<svg class="main-svg" xmlns="http://www.w3.org/2000/svg" xmlns:xlink="http://www.w3.org/1999/xlink" width="700" height="500" style="" viewBox="0 0 700 500"><rect x="0" y="0" width="700" height="500" style="fill: rgb(255, 255, 255); fill-opacity: 1;"/><defs id="defs-51179a"><g class="clips"><clipPath id="clip51179axyplot" class="plotclip"><rect width="394" height="320"/></clipPath><clipPath class="axesclip" id="clip51179ax"><rect x="80" y="0" width="394" height="500"/></clipPath><clipPath class="axesclip" id="clip51179ay"><rect x="0" y="100" width="700" height="320"/></clipPath><clipPath class="axesclip" id="clip51179axy"><rect x="80" y="100" width="394" height="320"/></clipPath></g><g class="gradients"/><g class="patterns"/></defs><g class="bglayer"><rect class="bg" x="80" y="100" width="394" height="320" style="fill: rgb(229, 236, 246); fill-opacity: 1; stroke-width: 0;"/></g><g class="layer-below"><g class="imagelayer"/><g class="shapelayer"/></g><g class="cartesianlayer"><g class="subplot xy"><g class="layer-subplot"><g class="shapelayer"/><g class="imagelayer"/></g><g class="gridlayer"><g class="x"><path class="xgrid crisp" transform="translate(178.5,0)" d="M0,100v320" style="stroke: rgb(255, 255, 255); stroke-opacity: 1; stroke-width: 1px;"/><path class="xgrid crisp" transform="translate(277,0)" d="M0,100v320" style="stroke: rgb(255, 255, 255); stroke-opacity: 1; stroke-width: 1px;"/><path class="xgrid crisp" transform="translate(375.5,0)" d="M0,100v320" style="stroke: rgb(255, 255, 255); stroke-opacity: 1; stroke-width: 1px;"/></g><g class="y"><path class="ygrid crisp" transform="translate(0,341.51)" d="M80,0h394" style="stroke: rgb(255, 255, 255); stroke-opacity: 1; stroke-width: 1px;"/><path class="ygrid crisp" transform="translate(0,263.01)" d="M80,0h394" style="stroke: rgb(255, 255, 255); stroke-opacity: 1; stroke-width: 1px;"/><path class="ygrid crisp" transform="translate(0,184.51999999999998)" d="M80,0h394" style="stroke: rgb(255, 255, 255); stroke-opacity: 1; stroke-width: 1px;"/><path class="ygrid crisp" transform="translate(0,106.03)" d="M80,0h394" style="stroke: rgb(255, 255, 255); stroke-opacity: 1; stroke-width: 1px;"/></g></g><g class="zerolinelayer"><path class="yzl zl crisp" transform="translate(0,420)" d="M80,0h394" style="stroke: rgb(255, 255, 255); stroke-opacity: 1; stroke-width: 2px;"/></g><path class="xlines-below"/><path class="ylines-below"/><g class="overlines-below"/><g class="xaxislayer-below"/><g class="yaxislayer-below"/><g class="overaxes-below"/><g class="plot" transform="translate(80,100)" clip-path="url(#clip51179axyplot)"><g class="scatterlayer mlayer"><g class="trace scatter traced85347" style="stroke-miterlimit: 2;"><g class="fills"><g><path class="js-fill" d="M394,320L0,320L0,319.36L206.85,319.06L216.7,319.03L285.65,319.02L295.5,319.03L394,319.07" style="fill: rgb(99, 110, 250); fill-opacity: 0.5; stroke-width: 0;"/></g><g><path class="js-fill" d="M0,274.81L29.55,266.68L39.4,264.66L49.25,263.38L59.1,262.92L68.95,261.93L78.8,260.18L98.5,257.7L108.35,257.58L118.2,257.16L128.05,255.37L137.9,257.12L147.75,257.23L177.3,255.82L187.15,254.29L197,254.4L206.85,255.61L216.7,256.11L226.55,254.91L236.4,254.94L246.25,253.52L256.1,251.92L265.95,251.34L305.35,249.82L315.2,249.74L384.15,249.47L394,249.55L394,319.07L295.5,319.03L285.65,319.02L216.7,319.03L206.85,319.06L0,319.36Z" style="fill: rgb(239, 85, 59); fill-opacity: 0.5; stroke-width: 0;"/></g></g><g class="errorbars"/><g class="lines"><path class="js-line" d="M0,319.36L206.85,319.06L216.7,319.03L285.65,319.02L295.5,319.03L394,319.07" style="vector-effect: non-scaling-stroke; fill: none; stroke: rgb(99, 110, 250); stroke-opacity: 1; stroke-width: 2px; opacity: 1;"/></g><g class="points"/><g class="text"/></g><g class="trace scatter trace260a5f" style="stroke-miterlimit: 2;"><g class="fills"><g><path class="js-fill" d="M0,272.45L9.85,268.31L19.7,265.95L49.25,260.64L59.1,260.32L78.8,258.34L88.65,257.1L98.5,256.05L108.35,256.03L118.2,255.59L128.05,253.3L137.9,255.48L147.75,255.7L177.3,254.4L187.15,253.01L206.85,254.36L216.7,254.84L226.55,253.64L236.4,253.41L265.95,247.58L275.8,246.55L295.5,245.52L305.35,245.69L384.15,243.45L394,243.37L394,249.55L384.15,249.47L315.2,249.74L305.35,249.82L265.95,251.34L256.1,251.92L246.25,253.52L236.4,254.94L226.55,254.91L216.7,256.11L206.85,255.61L197,254.4L187.15,254.29L177.3,255.82L147.75,257.23L137.9,257.12L128.05,255.37L118.2,257.16L108.35,257.58L98.5,257.7L78.8,260.18L68.95,261.93L59.1,262.92L49.25,263.38L39.4,264.66L29.55,266.68L0,274.81Z" style="fill: rgb(0, 204, 150); fill-opacity: 0.5; stroke-width: 0;"/></g></g><g class="errorbars"/><g class="lines"><path class="js-line" d="M0,274.81L29.55,266.68L39.4,264.66L49.25,263.38L59.1,262.92L68.95,261.93L78.8,260.18L98.5,257.7L108.35,257.58L118.2,257.16L128.05,255.37L137.9,257.12L147.75,257.23L177.3,255.82L187.15,254.29L197,254.4L206.85,255.61L216.7,256.11L226.55,254.91L236.4,254.94L246.25,253.52L256.1,251.92L265.95,251.34L305.35,249.82L315.2,249.74L384.15,249.47L394,249.55" style="vector-effect: non-scaling-stroke; fill: none; stroke: rgb(239, 85, 59); stroke-opacity: 1; stroke-width: 2px; opacity: 1;"/></g><g class="points"/><g class="text"/></g><g class="trace scatter tracece86af" style="stroke-miterlimit: 2;"><g class="fills"><g><path class="js-fill" d="M0,185.8L9.85,179.26L19.7,178.84L29.55,176.15L39.4,174.57L49.25,174.59L59.1,176.18L78.8,171.26L88.65,170.31L108.35,167.73L118.2,165.47L128.05,163.6L137.9,167.7L147.75,172.53L157.6,173.73L167.45,176.55L177.3,178.02L187.15,178.16L197,186.56L206.85,199.74L216.7,204.17L236.4,212.21L246.25,215.09L265.95,221.27L275.8,224.92L285.65,226.83L295.5,230.55L305.35,234.52L315.2,236.57L334.9,239.16L344.75,240.18L374.3,241.94L384.15,242.2L394,242.38L394,243.37L384.15,243.45L305.35,245.69L295.5,245.52L275.8,246.55L265.95,247.58L236.4,253.41L226.55,253.64L216.7,254.84L206.85,254.36L187.15,253.01L177.3,254.4L147.75,255.7L137.9,255.48L128.05,253.3L118.2,255.59L108.35,256.03L98.5,256.05L88.65,257.1L78.8,258.34L59.1,260.32L49.25,260.64L19.7,265.95L9.85,268.31L0,272.45Z" style="fill: rgb(171, 99, 250); fill-opacity: 0.5; stroke-width: 0;"/></g></g><g class="errorbars"/><g class="lines"><path class="js-line" d="M0,272.45L9.85,268.31L19.7,265.95L49.25,260.64L59.1,260.32L78.8,258.34L88.65,257.1L98.5,256.05L108.35,256.03L118.2,255.59L128.05,253.3L137.9,255.48L147.75,255.7L177.3,254.4L187.15,253.01L206.85,254.36L216.7,254.84L226.55,253.64L236.4,253.41L265.95,247.58L275.8,246.55L295.5,245.52L305.35,245.69L384.15,243.45L394,243.37" style="vector-effect: non-scaling-stroke; fill: none; stroke: rgb(0, 204, 150); stroke-opacity: 1; stroke-width: 2px; opacity: 1;"/></g><g class="points"/><g class="text"/></g><g class="trace scatter trace950461" style="stroke-miterlimit: 2;"><g class="fills"><g><path class="js-fill" d="M0,175.4L9.85,169.26L19.7,168.59L29.55,165.85L39.4,164.9L59.1,165.57L68.95,163.24L78.8,160.69L88.65,159.35L108.35,157.38L118.2,155.37L128.05,153.83L137.9,158.76L147.75,163.85L157.6,166.66L167.45,169.91L177.3,171.76L187.15,172.04L197,180.84L206.85,194.45L216.7,199.74L236.4,208.25L246.25,211.39L256.1,213.97L265.95,217.44L275.8,221.12L285.65,223.04L305.35,230.86L315.2,232.94L334.9,235.61L344.75,236.68L374.3,238.5L384.15,238.76L394,239L394,242.38L384.15,242.2L374.3,241.94L344.75,240.18L334.9,239.16L315.2,236.57L305.35,234.52L295.5,230.55L285.65,226.83L275.8,224.92L265.95,221.27L246.25,215.09L236.4,212.21L216.7,204.17L206.85,199.74L197,186.56L187.15,178.16L177.3,178.02L167.45,176.55L157.6,173.73L147.75,172.53L137.9,167.7L128.05,163.6L118.2,165.47L108.35,167.73L88.65,170.31L78.8,171.26L59.1,176.18L49.25,174.59L39.4,174.57L29.55,176.15L19.7,178.84L9.85,179.26L0,185.8Z" style="fill: rgb(255, 161, 90); fill-opacity: 0.5; stroke-width: 0;"/></g></g><g class="errorbars"/><g class="lines"><path class="js-line" d="M0,185.8L9.85,179.26L19.7,178.84L29.55,176.15L39.4,174.57L49.25,174.59L59.1,176.18L78.8,171.26L88.65,170.31L108.35,167.73L118.2,165.47L128.05,163.6L137.9,167.7L147.75,172.53L157.6,173.73L167.45,176.55L177.3,178.02L187.15,178.16L197,186.56L206.85,199.74L216.7,204.17L236.4,212.21L246.25,215.09L265.95,221.27L275.8,224.92L285.65,226.83L295.5,230.55L305.35,234.52L315.2,236.57L334.9,239.16L344.75,240.18L374.3,241.94L384.15,242.2L394,242.38" style="vector-effect: non-scaling-stroke; fill: none; stroke: rgb(171, 99, 250); stroke-opacity: 1; stroke-width: 2px; opacity: 1;"/></g><g class="points"/><g class="text"/></g><g class="trace scatter trace091750" style="stroke-miterlimit: 2;"><g class="fills"><g><path class="js-fill" d="M0,22.04L9.85,18.67L19.7,22.97L29.55,25.9L39.4,32.4L49.25,44.62L59.1,55.34L68.95,51.76L78.8,44.31L88.65,52.32L98.5,59.28L108.35,63.26L118.2,70.84L128.05,78.15L137.9,92.56L147.75,109.51L157.6,112.98L167.45,122.42L177.3,126.87L187.15,132.52L197,147.7L206.85,169.39L216.7,178.35L226.55,193.64L236.4,199.88L246.25,204.76L256.1,208.43L275.8,217.27L285.65,219.81L305.35,228.62L315.2,231.01L334.9,234.35L344.75,235.63L374.3,237.87L384.15,238.21L394,238.48L394,239L384.15,238.76L374.3,238.5L344.75,236.68L334.9,235.61L315.2,232.94L305.35,230.86L285.65,223.04L275.8,221.12L265.95,217.44L256.1,213.97L246.25,211.39L236.4,208.25L216.7,199.74L206.85,194.45L197,180.84L187.15,172.04L177.3,171.76L167.45,169.91L157.6,166.66L147.75,163.85L137.9,158.76L128.05,153.83L118.2,155.37L108.35,157.38L88.65,159.35L78.8,160.69L68.95,163.24L59.1,165.57L39.4,164.9L29.55,165.85L19.7,168.59L9.85,169.26L0,175.4Z" style="fill: rgb(25, 211, 243); fill-opacity: 0.5; stroke-width: 0;"/></g></g><g class="errorbars"/><g class="lines"><path class="js-line" d="M0,175.4L9.85,169.26L19.7,168.59L29.55,165.85L39.4,164.9L59.1,165.57L68.95,163.24L78.8,160.69L88.65,159.35L108.35,157.38L118.2,155.37L128.05,153.83L137.9,158.76L147.75,163.85L157.6,166.66L167.45,169.91L177.3,171.76L187.15,172.04L197,180.84L206.85,194.45L216.7,199.74L236.4,208.25L246.25,211.39L256.1,213.97L265.95,217.44L275.8,221.12L285.65,223.04L305.35,230.86L315.2,232.94L334.9,235.61L344.75,236.68L374.3,238.5L384.15,238.76L394,239" style="vector-effect: non-scaling-stroke; fill: none; stroke: rgb(255, 161, 90); stroke-opacity: 1; stroke-width: 2px; opacity: 1;"/></g><g class="points"/><g class="text"/></g><g class="trace scatter traced2347f" style="stroke-miterlimit: 2;"><g class="fills"><g><path class="js-fill" d="M0,19.78L9.85,16L19.7,19.55L29.55,22.05L39.4,27.36L49.25,39.67L59.1,50.16L68.95,47.38L78.8,40L98.5,53.91L108.35,58.43L118.2,66.65L128.05,73.89L137.9,89.01L147.75,106.04L157.6,110.05L167.45,119.96L177.3,124.85L187.15,130.66L197,145.92L206.85,167.86L216.7,176.93L226.55,192.43L236.4,198.52L246.25,203.62L265.95,211.82L275.8,216.39L285.65,219.01L295.5,223.5L305.35,227.94L315.2,230.39L334.9,233.83L344.75,235.15L374.3,237.51L384.15,237.87L394,238.18L394,238.48L384.15,238.21L374.3,237.87L344.75,235.63L334.9,234.35L315.2,231.01L305.35,228.62L285.65,219.81L275.8,217.27L256.1,208.43L246.25,204.76L236.4,199.88L226.55,193.64L216.7,178.35L206.85,169.39L197,147.7L187.15,132.52L177.3,126.87L167.45,122.42L157.6,112.98L147.75,109.51L137.9,92.56L128.05,78.15L118.2,70.84L108.35,63.26L98.5,59.28L88.65,52.32L78.8,44.31L68.95,51.76L59.1,55.34L49.25,44.62L39.4,32.4L29.55,25.9L19.7,22.97L9.85,18.67L0,22.04Z" style="fill: rgb(255, 102, 146); fill-opacity: 0.5; stroke-width: 0;"/></g></g><g class="errorbars"/><g class="lines"><path class="js-line" d="M0,22.04L9.85,18.67L19.7,22.97L29.55,25.9L39.4,32.4L49.25,44.62L59.1,55.34L68.95,51.76L78.8,44.31L88.65,52.32L98.5,59.28L108.35,63.26L118.2,70.84L128.05,78.15L137.9,92.56L147.75,109.51L157.6,112.98L167.45,122.42L177.3,126.87L187.15,132.52L197,147.7L206.85,169.39L216.7,178.35L226.55,193.64L236.4,199.88L246.25,204.76L256.1,208.43L275.8,217.27L285.65,219.81L305.35,228.62L315.2,231.01L334.9,234.35L344.75,235.63L374.3,237.87L384.15,238.21L394,238.48" style="vector-effect: non-scaling-stroke; fill: none; stroke: rgb(25, 211, 243); stroke-opacity: 1; stroke-width: 2px; opacity: 1;"/></g><g class="points"/><g class="text"/></g><g class="trace scatter trace5ddd45" style="stroke-miterlimit: 2;"><g class="fills"/><g class="errorbars"/><g class="lines"><path class="js-line" d="M0,19.78L9.85,16L19.7,19.55L29.55,22.05L39.4,27.36L49.25,39.67L59.1,50.16L68.95,47.38L78.8,40L98.5,53.91L108.35,58.43L118.2,66.65L128.05,73.89L137.9,89.01L147.75,106.04L157.6,110.05L167.45,119.96L177.3,124.85L187.15,130.66L197,145.92L206.85,167.86L216.7,176.93L226.55,192.43L236.4,198.52L246.25,203.62L265.95,211.82L275.8,216.39L285.65,219.01L295.5,223.5L305.35,227.94L315.2,230.39L334.9,233.83L344.75,235.15L374.3,237.51L384.15,237.87L394,238.18" style="vector-effect: non-scaling-stroke; fill: none; stroke: rgb(255, 102, 146); stroke-opacity: 1; stroke-width: 2px; opacity: 1;"/></g><g class="points"/><g class="text"/></g></g></g><g class="overplot"/><path class="xlines-above crisp" d="M0,0" style="fill: none;"/><path class="ylines-above crisp" d="M0,0" style="fill: none;"/><g class="overlines-above"/><g class="xaxislayer-above"><g class="xtick"><text text-anchor="middle" x="0" y="433" transform="translate(80,0)" style="font-family: 'Open Sans', verdana, arial, sans-serif; font-size: 12px; fill: rgb(42, 63, 95); fill-opacity: 1; white-space: pre; opacity: 1;">1990</text></g><g class="xtick"><text text-anchor="middle" x="0" y="433" style="font-family: 'Open Sans', verdana, arial, sans-serif; font-size: 12px; fill: rgb(42, 63, 95); fill-opacity: 1; white-space: pre; opacity: 1;" transform="translate(178.5,0)">2000</text></g><g class="xtick"><text text-anchor="middle" x="0" y="433" style="font-family: 'Open Sans', verdana, arial, sans-serif; font-size: 12px; fill: rgb(42, 63, 95); fill-opacity: 1; white-space: pre; opacity: 1;" transform="translate(277,0)">2010</text></g><g class="xtick"><text text-anchor="middle" x="0" y="433" style="font-family: 'Open Sans', verdana, arial, sans-serif; font-size: 12px; fill: rgb(42, 63, 95); fill-opacity: 1; white-space: pre; opacity: 1;" transform="translate(375.5,0)">2020</text></g><g class="xtick"><text text-anchor="middle" x="0" y="433" style="font-family: 'Open Sans', verdana, arial, sans-serif; font-size: 12px; fill: rgb(42, 63, 95); fill-opacity: 1; white-space: pre; opacity: 1;" transform="translate(474,0)">2030</text></g></g><g class="yaxislayer-above"><g class="ytick"><text text-anchor="end" x="79" y="4.199999999999999" transform="translate(0,420)" style="font-family: 'Open Sans', verdana, arial, sans-serif; font-size: 12px; fill: rgb(42, 63, 95); fill-opacity: 1; white-space: pre; opacity: 1;">0</text></g><g class="ytick"><text text-anchor="end" x="79" y="4.199999999999999" style="font-family: 'Open Sans', verdana, arial, sans-serif; font-size: 12px; fill: rgb(42, 63, 95); fill-opacity: 1; white-space: pre; opacity: 1;" transform="translate(0,341.51)">500</text></g><g class="ytick"><text text-anchor="end" x="79" y="4.199999999999999" style="font-family: 'Open Sans', verdana, arial, sans-serif; font-size: 12px; fill: rgb(42, 63, 95); fill-opacity: 1; white-space: pre; opacity: 1;" transform="translate(0,263.01)">1000</text></g><g class="ytick"><text text-anchor="end" x="79" y="4.199999999999999" style="font-family: 'Open Sans', verdana, arial, sans-serif; font-size: 12px; fill: rgb(42, 63, 95); fill-opacity: 1; white-space: pre; opacity: 1;" transform="translate(0,184.51999999999998)">1500</text></g><g class="ytick"><text text-anchor="end" x="79" y="4.199999999999999" style="font-family: 'Open Sans', verdana, arial, sans-serif; font-size: 12px; fill: rgb(42, 63, 95); fill-opacity: 1; white-space: pre; opacity: 1;" transform="translate(0,106.03)">2000</text></g></g><g class="overaxes-above"/></g></g><g class="polarlayer"/><g class="smithlayer"/><g class="ternarylayer"/><g class="geolayer"/><g class="funnelarealayer"/><g class="pielayer"/><g class="iciclelayer"/><g class="treemaplayer"/><g class="sunburstlayer"/><g class="glimages"/><defs id="topdefs-51179a"><g class="clips"/><clipPath id="legend51179a"><rect width="206" height="162" x="0" y="0"/></clipPath></defs><g class="layer-above"><g class="imagelayer"/><g class="shapelayer"/></g><g class="infolayer"><g class="legend" pointer-events="all" transform="translate(481.88,100)"><rect class="bg" shape-rendering="crispEdges" width="206" height="162" x="0" y="0" style="stroke: rgb(68, 68, 68); stroke-opacity: 1; fill: rgb(255, 255, 255); fill-opacity: 1; stroke-width: 0px;"/><g class="scrollbox" transform="" clip-path="url(#legend51179a)"><text class="legendtitletext" text-anchor="start" x="2" y="18.2" style="font-family: 'Open Sans', verdana, arial, sans-serif; font-size: 14px; fill: rgb(42, 63, 95); fill-opacity: 1; white-space: pre;">region</text><g class="groups" transform=""><g class="traces" transform="translate(0,32.7)" style="opacity: 1;"><text class="legendtext" text-anchor="start" x="40" y="4.680000000000001" style="font-family: 'Open Sans', verdana, arial, sans-serif; font-size: 12px; fill: rgb(42, 63, 95); fill-opacity: 1; white-space: pre;">Rest of the world</text><g class="layers"><g class="legendfill"><path class="js-fill" d="M5,-2h30v6h-30z" style="stroke-width: 0; fill: rgb(99, 110, 250); fill-opacity: 0.5;"/></g><g class="legendlines"><path class="js-line" d="M5,-2h30" style="fill: none; stroke: rgb(99, 110, 250); stroke-opacity: 1; stroke-width: 2px;"/></g><g class="legendsymbols"><g class="legendpoints"/></g></g><rect class="legendtoggle" x="0" y="-9.5" width="200.6875" height="19" style="fill: rgb(0, 0, 0); fill-opacity: 0;"/></g></g><g class="groups" transform=""><g class="traces" transform="translate(0,51.7)" style="opacity: 1;"><text class="legendtext" text-anchor="start" x="40" y="4.680000000000001" style="font-family: 'Open Sans', verdana, arial, sans-serif; font-size: 12px; fill: rgb(42, 63, 95); fill-opacity: 1; white-space: pre;">Sub-Saharan Africa</text><g class="layers"><g class="legendfill"><path class="js-fill" d="M5,-2h30v6h-30z" style="stroke-width: 0; fill: rgb(239, 85, 59); fill-opacity: 0.5;"/></g><g class="legendlines"><path class="js-line" d="M5,-2h30" style="fill: none; stroke: rgb(239, 85, 59); stroke-opacity: 1; stroke-width: 2px;"/></g><g class="legendsymbols"><g class="legendpoints"/></g></g><rect class="legendtoggle" x="0" y="-9.5" width="200.6875" height="19" style="fill: rgb(0, 0, 0); fill-opacity: 0;"/></g></g><g class="groups" transform=""><g class="traces" transform="translate(0,70.7)" style="opacity: 1;"><text class="legendtext" text-anchor="start" x="40" y="4.680000000000001" style="font-family: 'Open Sans', verdana, arial, sans-serif; font-size: 12px; fill: rgb(42, 63, 95); fill-opacity: 1; white-space: pre;">Middle East &amp; North Africa</text><g class="layers"><g class="legendfill"><path class="js-fill" d="M5,-2h30v6h-30z" style="stroke-width: 0; fill: rgb(0, 204, 150); fill-opacity: 0.5;"/></g><g class="legendlines"><path class="js-line" d="M5,-2h30" style="fill: none; stroke: rgb(0, 204, 150); stroke-opacity: 1; stroke-width: 2px;"/></g><g class="legendsymbols"><g class="legendpoints"/></g></g><rect class="legendtoggle" x="0" y="-9.5" width="200.6875" height="19" style="fill: rgb(0, 0, 0); fill-opacity: 0;"/></g></g><g class="groups" transform=""><g class="traces" transform="translate(0,89.7)" style="opacity: 1;"><text class="legendtext" text-anchor="start" x="40" y="4.680000000000001" style="font-family: 'Open Sans', verdana, arial, sans-serif; font-size: 12px; fill: rgb(42, 63, 95); fill-opacity: 1; white-space: pre;">South Asia</text><g class="layers"><g class="legendfill"><path class="js-fill" d="M5,-2h30v6h-30z" style="stroke-width: 0; fill: rgb(171, 99, 250); fill-opacity: 0.5;"/></g><g class="legendlines"><path class="js-line" d="M5,-2h30" style="fill: none; stroke: rgb(171, 99, 250); stroke-opacity: 1; stroke-width: 2px;"/></g><g class="legendsymbols"><g class="legendpoints"/></g></g><rect class="legendtoggle" x="0" y="-9.5" width="200.6875" height="19" style="fill: rgb(0, 0, 0); fill-opacity: 0;"/></g></g><g class="groups" transform=""><g class="traces" transform="translate(0,108.7)" style="opacity: 1;"><text class="legendtext" text-anchor="start" x="40" y="4.680000000000001" style="font-family: 'Open Sans', verdana, arial, sans-serif; font-size: 12px; fill: rgb(42, 63, 95); fill-opacity: 1; white-space: pre;">Latin America &amp; Caribbean</text><g class="layers"><g class="legendfill"><path class="js-fill" d="M5,-2h30v6h-30z" style="stroke-width: 0; fill: rgb(255, 161, 90); fill-opacity: 0.5;"/></g><g class="legendlines"><path class="js-line" d="M5,-2h30" style="fill: none; stroke: rgb(255, 161, 90); stroke-opacity: 1; stroke-width: 2px;"/></g><g class="legendsymbols"><g class="legendpoints"/></g></g><rect class="legendtoggle" x="0" y="-9.5" width="200.6875" height="19" style="fill: rgb(0, 0, 0); fill-opacity: 0;"/></g></g><g class="groups" transform=""><g class="traces" transform="translate(0,127.7)" style="opacity: 1;"><text class="legendtext" text-anchor="start" x="40" y="4.680000000000001" style="font-family: 'Open Sans', verdana, arial, sans-serif; font-size: 12px; fill: rgb(42, 63, 95); fill-opacity: 1; white-space: pre;">East Asia &amp; Pacific</text><g class="layers"><g class="legendfill"><path class="js-fill" d="M5,-2h30v6h-30z" style="stroke-width: 0; fill: rgb(25, 211, 243); fill-opacity: 0.5;"/></g><g class="legendlines"><path class="js-line" d="M5,-2h30" style="fill: none; stroke: rgb(25, 211, 243); stroke-opacity: 1; stroke-width: 2px;"/></g><g class="legendsymbols"><g class="legendpoints"/></g></g><rect class="legendtoggle" x="0" y="-9.5" width="200.6875" height="19" style="fill: rgb(0, 0, 0); fill-opacity: 0;"/></g></g><g class="groups" transform=""><g class="traces" transform="translate(0,146.7)" style="opacity: 1;"><text class="legendtext" text-anchor="start" x="40" y="4.680000000000001" style="font-family: 'Open Sans', verdana, arial, sans-serif; font-size: 12px; fill: rgb(42, 63, 95); fill-opacity: 1; white-space: pre;">Europe &amp; Central Asia</text><g class="layers"><g class="legendfill"><path class="js-fill" d="M5,-2h30v6h-30z" style="stroke-width: 0; fill: rgb(255, 102, 146); fill-opacity: 0.5;"/></g><g class="legendlines"><path class="js-line" d="M5,-2h30" style="fill: none; stroke: rgb(255, 102, 146); stroke-opacity: 1; stroke-width: 2px;"/></g><g class="legendsymbols"><g class="legendpoints"/></g></g><rect class="legendtoggle" x="0" y="-9.5" width="200.6875" height="19" style="fill: rgb(0, 0, 0); fill-opacity: 0;"/></g></g></g><rect class="scrollbar" rx="20" ry="3" width="0" height="0" x="0" y="0" style="fill: rgb(128, 139, 164); fill-opacity: 1;"/></g><g class="g-gtitle"><text class="gtitle" x="35" y="50" text-anchor="start" dy="0em" style="font-family: 'Open Sans', verdana, arial, sans-serif; font-size: 17px; fill: rgb(42, 63, 95); opacity: 1; font-weight: normal; white-space: pre;">pre</text></g><g class="g-xtitle"><text class="xtitle" x="277" y="460.3" text-anchor="middle" style="font-family: 'Open Sans', verdana, arial, sans-serif; font-size: 14px; fill: rgb(42, 63, 95); opacity: 1; font-weight: normal; white-space: pre;">year</text></g><g class="g-ytitle"><text class="ytitle" transform="rotate(-90,23.684375000000003,260)" x="23.684375000000003" y="260" text-anchor="middle" style="font-family: 'Open Sans', verdana, arial, sans-serif; font-size: 14px; fill: rgb(42, 63, 95); opacity: 1; font-weight: normal; white-space: pre;">pop_poverty</text></g></g></svg>