<svg class="main-svg" xmlns="http://www.w3.org/2000/svg" xmlns:xlink="http://www.w3.org/1999/xlink" width="700" height="500" style="" viewBox="0 0 700 500"><rect x="0" y="0" width="700" height="500" style="fill: rgb(255, 255, 255); fill-opacity: 1;"/><defs id="defs-db4633"><g class="clips"><clipPath id="clipdb4633xyplot" class="plotclip"><rect width="394" height="320"/></clipPath><clipPath class="axesclip" id="clipdb4633x"><rect x="80" y="0" width="394" height="500"/></clipPath><clipPath class="axesclip" id="clipdb4633y"><rect x="0" y="100" width="700" height="320"/></clipPath><clipPath class="axesclip" id="clipdb4633xy"><rect x="80" y="100" width="394" height="320"/></clipPath></g><g class="gradients"/><g class="patterns"/></defs><g class="bglayer"/><g class="layer-below"><g class="imagelayer"/><g class="shapelayer"/></g><g class="cartesianlayer"><g class="subplot xy"><g class="layer-subplot"><g class="shapelayer"/><g class="imagelayer"/></g><g class="gridlayer"><g class="x"><path class="xgrid crisp" transform="translate(178.5,0)" d="M0,100v320" style="stroke: rgb(238, 238, 238); stroke-opacity: 1; stroke-width: 1px;"/><path class="xgrid crisp" transform="translate(277,0)" d="M0,100v320" style="stroke: rgb(238, 238, 238); stroke-opacity: 1; stroke-width: 1px;"/><path class="xgrid crisp" transform="translate(375.5,0)" d="M0,100v320" style="stroke: rgb(238, 238, 238); stroke-opacity: 1; stroke-width: 1px;"/></g><g class="y"><path class="ygrid crisp" transform="translate(0,341.51)" d="M80,0h394" style="stroke: rgb(238, 238, 238); stroke-opacity: 1; stroke-width: 1px;"/><path class="ygrid crisp" transform="translate(0,263.01)" d="M80,0h394" style="stroke: rgb(238, 238, 238); stroke-opacity: 1; stroke-width: 1px;"/><path class="ygrid crisp" transform="translate(0,184.51999999999998)" d="M80,0h394" style="stroke: rgb(238, 238, 238); stroke-opacity: 1; stroke-width: 1px;"/><path class="ygrid crisp" transform="translate(0,106.03)" d="M80,0h394" style="stroke: rgb(238, 238, 238); stroke-opacity: 1; stroke-width: 1px;"/></g></g><g class="zerolinelayer"><path class="yzl zl crisp" transform="translate(0,420)" d="M80,0h394" style="stroke: rgb(68, 68, 68); stroke-opacity: 1; stroke-width: 1px;"/></g><path class="xlines-below"/><path class="ylines-below"/><g class="overlines-below"/><g class="xaxislayer-below"/><g class="yaxislayer-below"/><g class="overaxes-below"/><g class="plot" transform="translate(80,100)" clip-path="url(#clipdb4633xyplot)"><g class="scatterlayer mlayer"><g class="trace scatter tracefb9886" style="stroke-miterlimit: 2;"><g class="fills"><g><path class="js-fill" d="M394,320L0,320L0,317.73L29.55,316.15L39.4,314.96L78.8,315.69L88.65,314.32L167.45,317.54L177.3,317.98L305.35,319.32L315.2,319.39L394,319.7" style="fill: rgb(31, 119, 180); fill-opacity: 0.5; stroke-width: 0;"/></g><g><path class="js-fill" d="M0,317.1L29.55,315.43L39.4,314.25L59.1,314L68.95,314.77L78.8,314.86L88.65,313.55L206.85,317.53L216.7,317.61L384.15,318.73L394,318.76L394,319.7L315.2,319.39L305.35,319.32L177.3,317.98L167.45,317.54L88.65,314.32L78.8,315.69L39.4,314.96L29.55,316.15L0,317.73Z" style="fill: rgb(255, 127, 14); fill-opacity: 0.5; stroke-width: 0;"/></g></g><g class="errorbars"/><g class="lines"><path class="js-line" d="M0,317.73L29.55,316.15L39.4,314.96L78.8,315.69L88.65,314.32L167.45,317.54L177.3,317.98L305.35,319.32L315.2,319.39L394,319.7" style="vector-effect: non-scaling-stroke; fill: none; stroke: rgb(31, 119, 180); stroke-opacity: 1; stroke-width: 2px; opacity: 1;"/></g><g class="points"/><g class="text"/></g><g class="trace scatter trace2229ed" style="stroke-miterlimit: 2;"><g class="fills"><g><path class="js-fill" d="M0,306.69L9.85,306.71L19.7,305.67L49.25,304.76L59.1,303.39L78.8,304.3L88.65,302.59L118.2,304.9L128.05,305.11L137.9,306.67L147.75,306.99L157.6,309.18L167.45,310.09L197,311.67L206.85,312.24L226.55,313.61L236.4,313.65L265.95,314.13L275.8,314.3L394,315.38L394,318.76L384.15,318.73L216.7,317.61L206.85,317.53L88.65,313.55L78.8,314.86L68.95,314.77L59.1,314L39.4,314.25L29.55,315.43L0,317.1Z" style="fill: rgb(44, 160, 44); fill-opacity: 0.5; stroke-width: 0;"/></g></g><g class="errorbars"/><g class="lines"><path class="js-line" d="M0,317.1L29.55,315.43L39.4,314.25L59.1,314L68.95,314.77L78.8,314.86L88.65,313.55L206.85,317.53L216.7,317.61L384.15,318.73L394,318.76" style="vector-effect: non-scaling-stroke; fill: none; stroke: rgb(255, 127, 14); stroke-opacity: 1; stroke-width: 2px; opacity: 1;"/></g><g class="points"/><g class="text"/></g><g class="trace scatter trace1f5d77" style="stroke-miterlimit: 2;"><g class="fills"><g><path class="js-fill" d="M0,304.33L9.85,302.87L19.7,302.49L49.25,302.02L59.1,300.79L78.8,302.46L88.65,300.87L118.2,303.32L128.05,303.04L137.9,305.03L147.75,305.47L157.6,307.73L167.45,308.64L197,310.58L206.85,310.99L226.55,312.34L236.4,312.11L256.1,311.09L265.95,310.36L285.65,310.01L295.5,310.1L315.2,310.39L325.05,310.2L394,309.21L394,315.38L275.8,314.3L265.95,314.13L236.4,313.65L226.55,313.61L206.85,312.24L197,311.67L167.45,310.09L157.6,309.18L147.75,306.99L137.9,306.67L128.05,305.11L118.2,304.9L88.65,302.59L78.8,304.3L59.1,303.39L49.25,304.76L19.7,305.67L9.85,306.71L0,306.69Z" style="fill: rgb(214, 39, 40); fill-opacity: 0.5; stroke-width: 0;"/></g></g><g class="errorbars"/><g class="lines"><path class="js-line" d="M0,306.69L9.85,306.71L19.7,305.67L49.25,304.76L59.1,303.39L78.8,304.3L88.65,302.59L118.2,304.9L128.05,305.11L137.9,306.67L147.75,306.99L157.6,309.18L167.45,310.09L197,311.67L206.85,312.24L226.55,313.61L236.4,313.65L265.95,314.13L275.8,314.3L394,315.38" style="vector-effect: non-scaling-stroke; fill: none; stroke: rgb(44, 160, 44); stroke-opacity: 1; stroke-width: 2px; opacity: 1;"/></g><g class="points"/><g class="text"/></g><g class="trace scatter trace13ce24" style="stroke-miterlimit: 2;"><g class="fills"><g><path class="js-fill" d="M0,259.77L19.7,252.28L29.55,249.81L39.4,247.35L49.25,246.22L59.1,244.53L68.95,244.65L78.8,243.47L88.65,240.46L108.35,240.85L118.2,241.29L128.05,239.26L137.9,242.98L147.75,243.56L157.6,245.5L177.3,246.12L187.15,245.02L197,245.82L206.85,247.55L216.7,249L226.55,248.32L236.4,248.08L246.25,246.5L256.1,244.09L265.95,242.73L285.65,241.17L295.5,241.03L315.2,241.11L325.05,240.8L364.45,240.11L374.3,239.98L394,239.69L394,309.21L325.05,310.2L315.2,310.39L295.5,310.1L285.65,310.01L265.95,310.36L256.1,311.09L236.4,312.11L226.55,312.34L206.85,310.99L197,310.58L167.45,308.64L157.6,307.73L147.75,305.47L137.9,305.03L128.05,303.04L118.2,303.32L88.65,300.87L78.8,302.46L59.1,300.79L49.25,302.02L19.7,302.49L9.85,302.87L0,304.33Z" style="fill: rgb(148, 103, 189); fill-opacity: 0.5; stroke-width: 0;"/></g></g><g class="errorbars"/><g class="lines"><path class="js-line" d="M0,304.33L9.85,302.87L19.7,302.49L49.25,302.02L59.1,300.79L78.8,302.46L88.65,300.87L118.2,303.32L128.05,303.04L137.9,305.03L147.75,305.47L157.6,307.73L167.45,308.64L197,310.58L206.85,310.99L226.55,312.34L236.4,312.11L256.1,311.09L265.95,310.36L285.65,310.01L295.5,310.1L315.2,310.39L325.05,310.2L394,309.21" style="vector-effect: non-scaling-stroke; fill: none; stroke: rgb(214, 39, 40); stroke-opacity: 1; stroke-width: 2px; opacity: 1;"/></g><g class="points"/><g class="text"/></g><g class="trace scatter traced85f86" style="stroke-miterlimit: 2;"><g class="fills"><g><path class="js-fill" d="M0,106.42L9.85,105.06L19.7,106.66L29.55,109.85L39.4,114.84L49.25,125.72L59.1,134.3L68.95,133.17L78.8,127.08L88.65,133.43L98.5,141.12L108.35,146.74L118.2,156.76L128.05,163.59L137.9,176.79L147.75,189.21L157.6,191.82L167.45,198.34L177.3,201.23L187.15,205.5L197,212.68L206.85,222.48L216.7,227.6L226.55,238.17L236.4,239.71L246.25,239.87L256.1,238.55L285.65,237.94L295.5,238.47L315.2,239.18L325.05,239.13L394,239.17L394,239.69L374.3,239.98L364.45,240.11L325.05,240.8L315.2,241.11L295.5,241.03L285.65,241.17L265.95,242.73L256.1,244.09L246.25,246.5L236.4,248.08L226.55,248.32L216.7,249L206.85,247.55L197,245.82L187.15,245.02L177.3,246.12L157.6,245.5L147.75,243.56L137.9,242.98L128.05,239.26L118.2,241.29L108.35,240.85L88.65,240.46L78.8,243.47L68.95,244.65L59.1,244.53L49.25,246.22L39.4,247.35L29.55,249.81L19.7,252.28L0,259.77Z" style="fill: rgb(140, 86, 75); fill-opacity: 0.5; stroke-width: 0;"/></g></g><g class="errorbars"/><g class="lines"><path class="js-line" d="M0,259.77L19.7,252.28L29.55,249.81L39.4,247.35L49.25,246.22L59.1,244.53L68.95,244.65L78.8,243.47L88.65,240.46L108.35,240.85L118.2,241.29L128.05,239.26L137.9,242.98L147.75,243.56L157.6,245.5L177.3,246.12L187.15,245.02L197,245.82L206.85,247.55L216.7,249L226.55,248.32L236.4,248.08L246.25,246.5L256.1,244.09L265.95,242.73L285.65,241.17L295.5,241.03L315.2,241.11L325.05,240.8L364.45,240.11L374.3,239.98L394,239.69" style="vector-effect: non-scaling-stroke; fill: none; stroke: rgb(148, 103, 189); stroke-opacity: 1; stroke-width: 2px; opacity: 1;"/></g><g class="points"/><g class="text"/></g><g class="trace scatter trace9f072f" style="stroke-miterlimit: 2;"><g class="fills"><g><path class="js-fill" d="M0,19.78L9.85,16L19.7,19.55L29.55,22.05L39.4,27.36L49.25,39.67L59.1,50.16L68.95,47.38L78.8,40L98.5,53.91L108.35,58.43L118.2,66.65L128.05,73.89L137.9,89.01L147.75,106.04L157.6,110.05L167.45,119.96L177.3,124.85L187.15,130.66L197,145.92L206.85,167.86L216.7,176.93L226.55,192.43L236.4,198.52L246.25,203.62L265.95,211.82L275.8,216.39L285.65,219.01L295.5,223.5L305.35,227.94L315.2,230.39L334.9,233.83L344.75,235.15L374.3,237.51L384.15,237.87L394,238.18L394,239.17L325.05,239.13L315.2,239.18L295.5,238.47L285.65,237.94L256.1,238.55L246.25,239.87L236.4,239.71L226.55,238.17L216.7,227.6L206.85,222.48L197,212.68L187.15,205.5L177.3,201.23L167.45,198.34L157.6,191.82L147.75,189.21L137.9,176.79L128.05,163.59L118.2,156.76L108.35,146.74L98.5,141.12L88.65,133.43L78.8,127.08L68.95,133.17L59.1,134.3L49.25,125.72L39.4,114.84L29.55,109.85L19.7,106.66L9.85,105.06L0,106.42Z" style="fill: rgb(227, 119, 194); fill-opacity: 0.5; stroke-width: 0;"/></g></g><g class="errorbars"/><g class="lines"><path class="js-line" d="M0,106.42L9.85,105.06L19.7,106.66L29.55,109.85L39.4,114.84L49.25,125.72L59.1,134.3L68.95,133.17L78.8,127.08L88.65,133.43L98.5,141.12L108.35,146.74L118.2,156.76L128.05,163.59L137.9,176.79L147.75,189.21L157.6,191.82L167.45,198.34L177.3,201.23L187.15,205.5L197,212.68L206.85,222.48L216.7,227.6L226.55,238.17L236.4,239.71L246.25,239.87L256.1,238.55L285.65,237.94L295.5,238.47L315.2,239.18L325.05,239.13L394,239.17" style="vector-effect: non-scaling-stroke; fill: none; stroke: rgb(140, 86, 75); stroke-opacity: 1; stroke-width: 2px; opacity: 1;"/></g><g class="points"/><g class="text"/></g><g class="trace scatter trace8b69aa" style="stroke-miterlimit: 2;"><g class="fills"/><g class="errorbars"/><g class="lines"><path class="js-line" d="M0,19.78L9.85,16L19.7,19.55L29.55,22.05L39.4,27.36L49.25,39.67L59.1,50.16L68.95,47.38L78.8,40L98.5,53.91L108.35,58.43L118.2,66.65L128.05,73.89L137.9,89.01L147.75,106.04L157.6,110.05L167.45,119.96L177.3,124.85L187.15,130.66L197,145.92L206.85,167.86L216.7,176.93L226.55,192.43L236.4,198.52L246.25,203.62L265.95,211.82L275.8,216.39L285.65,219.01L295.5,223.5L305.35,227.94L315.2,230.39L334.9,233.83L344.75,235.15L374.3,237.51L384.15,237.87L394,238.18" style="vector-effect: non-scaling-stroke; fill: none; stroke: rgb(227, 119, 194); stroke-opacity: 1; stroke-width: 2px; opacity: 1;"/></g><g class="points"/><g class="text"/></g></g></g><g class="overplot"/><path class="xlines-above crisp" d="M0,0" style="fill: none;"/><path class="ylines-above crisp" d="M0,0" style="fill: none;"/><g class="overlines-above"/><g class="xaxislayer-above"><g class="xtick"><text text-anchor="middle" x="0" y="433" transform="translate(80,0)" style="font-family: 'Open Sans', verdana, arial, sans-serif; font-size: 12px; fill: rgb(68, 68, 68); fill-opacity: 1; white-space: pre; opacity: 1;">1990</text></g><g class="xtick"><text text-anchor="middle" x="0" y="433" style="font-family: 'Open Sans', verdana, arial, sans-serif; font-size: 12px; fill: rgb(68, 68, 68); fill-opacity: 1; white-space: pre; opacity: 1;" transform="translate(178.5,0)">2000</text></g><g class="xtick"><text text-anchor="middle" x="0" y="433" style="font-family: 'Open Sans', verdana, arial, sans-serif; font-size: 12px; fill: rgb(68, 68, 68); fill-opacity: 1; white-space: pre; opacity: 1;" transform="translate(277,0)">2010</text></g><g class="xtick"><text text-anchor="middle" x="0" y="433" style="font-family: 'Open Sans', verdana, arial, sans-serif; font-size: 12px; fill: rgb(68, 68, 68); fill-opacity: 1; white-space: pre; opacity: 1;" transform="translate(375.5,0)">2020</text></g><g class="xtick"><text text-anchor="middle" x="0" y="433" style="font-family: 'Open Sans', verdana, arial, sans-serif; font-size: 12px; fill: rgb(68, 68, 68); fill-opacity: 1; white-space: pre; opacity: 1;" transform="translate(474,0)">2030</text></g></g><g class="yaxislayer-above"><g class="ytick"><text text-anchor="end" x="79" y="4.199999999999999" transform="translate(0,420)" style="font-family: 'Open Sans', verdana, arial, sans-serif; font-size: 12px; fill: rgb(68, 68, 68); fill-opacity: 1; white-space: pre; opacity: 1;">0</text></g><g class="ytick"><text text-anchor="end" x="79" y="4.199999999999999" style="font-family: 'Open Sans', verdana, arial, sans-serif; font-size: 12px; fill: rgb(68, 68, 68); fill-opacity: 1; white-space: pre; opacity: 1;" transform="translate(0,341.51)">500</text></g><g class="ytick"><text text-anchor="end" x="79" y="4.199999999999999" style="font-family: 'Open Sans', verdana, arial, sans-serif; font-size: 12px; fill: rgb(68, 68, 68); fill-opacity: 1; white-space: pre; opacity: 1;" transform="translate(0,263.01)">1000</text></g><g class="ytick"><text text-anchor="end" x="79" y="4.199999999999999" style="font-family: 'Open Sans', verdana, arial, sans-serif; font-size: 12px; fill: rgb(68, 68, 68); fill-opacity: 1; white-space: pre; opacity: 1;" transform="translate(0,184.51999999999998)">1500</text></g><g class="ytick"><text text-anchor="end" x="79" y="4.199999999999999" style="font-family: 'Open Sans', verdana, arial, sans-serif; font-size: 12px; fill: rgb(68, 68, 68); fill-opacity: 1; white-space: pre; opacity: 1;" transform="translate(0,106.03)">2000</text></g></g><g class="overaxes-above"/></g></g><g class="polarlayer"/><g class="smithlayer"/><g class="ternarylayer"/><g class="geolayer"/><g class="funnelarealayer"/><g class="pielayer"/><g class="iciclelayer"/><g class="treemaplayer"/><g class="sunburstlayer"/><g class="glimages"/><defs id="topdefs-db4633"><g class="clips"/><clipPath id="legenddb4633"><rect width="206" height="162" x="0" y="0"/></clipPath></defs><g class="layer-above"><g class="imagelayer"/><g class="shapelayer"><path data-index="0" fill-rule="evenodd" d="M355.8,420H474V100H355.8Z" clip-path="url(#clipdb4633x)" style="opacity: 0.2; stroke: rgb(0, 0, 0); stroke-opacity: 0; fill: rgb(139, 149, 152); fill-opacity: 1; stroke-width: 0px;"/></g></g><g class="infolayer"><g class="legend" pointer-events="all" transform="translate(481.88,100)"><rect class="bg" shape-rendering="crispEdges" width="206" height="162" x="0" y="0" style="stroke: rgb(68, 68, 68); stroke-opacity: 1; fill: rgb(255, 255, 255); fill-opacity: 1; stroke-width: 0px;"/><g class="scrollbox" transform="" clip-path="url(#legenddb4633)"><text class="legendtitletext" text-anchor="start" x="2" y="18.2" style="font-family: 'Open Sans', verdana, arial, sans-serif; font-size: 14px; fill: rgb(68, 68, 68); fill-opacity: 1; white-space: pre;">region</text><g class="groups" transform=""><g class="traces" transform="translate(0,32.7)" style="opacity: 1;"><text class="legendtext" text-anchor="start" x="40" y="4.680000000000001" style="font-family: 'Open Sans', verdana, arial, sans-serif; font-size: 12px; fill: rgb(68, 68, 68); fill-opacity: 1; white-space: pre;">Europe &amp; Central Asia</text><g class="layers"><g class="legendfill"><path class="js-fill" d="M5,-2h30v6h-30z" style="stroke-width: 0; fill: rgb(31, 119, 180); fill-opacity: 0.5;"/></g><g class="legendlines"><path class="js-line" d="M5,-2h30" style="fill: none; stroke: rgb(31, 119, 180); stroke-opacity: 1; stroke-width: 2px;"/></g><g class="legendsymbols"><g class="legendpoints"/></g></g><rect class="legendtoggle" x="0" y="-9.5" width="200.6875" height="19" style="fill: rgb(0, 0, 0); fill-opacity: 0;"/></g></g><g class="groups" transform=""><g class="traces" transform="translate(0,51.7)" style="opacity: 1;"><text class="legendtext" text-anchor="start" x="40" y="4.680000000000001" style="font-family: 'Open Sans', verdana, arial, sans-serif; font-size: 12px; fill: rgb(68, 68, 68); fill-opacity: 1; white-space: pre;">Rest of the world</text><g class="layers"><g class="legendfill"><path class="js-fill" d="M5,-2h30v6h-30z" style="stroke-width: 0; fill: rgb(255, 127, 14); fill-opacity: 0.5;"/></g><g class="legendlines"><path class="js-line" d="M5,-2h30" style="fill: none; stroke: rgb(255, 127, 14); stroke-opacity: 1; stroke-width: 2px;"/></g><g class="legendsymbols"><g class="legendpoints"/></g></g><rect class="legendtoggle" x="0" y="-9.5" width="200.6875" height="19" style="fill: rgb(0, 0, 0); fill-opacity: 0;"/></g></g><g class="groups" transform=""><g class="traces" transform="translate(0,70.7)" style="opacity: 1;"><text class="legendtext" text-anchor="start" x="40" y="4.680000000000001" style="font-family: 'Open Sans', verdana, arial, sans-serif; font-size: 12px; fill: rgb(68, 68, 68); fill-opacity: 1; white-space: pre;">Latin America &amp; Caribbean</text><g class="layers"><g class="legendfill"><path class="js-fill" d="M5,-2h30v6h-30z" style="stroke-width: 0; fill: rgb(44, 160, 44); fill-opacity: 0.5;"/></g><g class="legendlines"><path class="js-line" d="M5,-2h30" style="fill: none; stroke: rgb(44, 160, 44); stroke-opacity: 1; stroke-width: 2px;"/></g><g class="legendsymbols"><g class="legendpoints"/></g></g><rect class="legendtoggle" x="0" y="-9.5" width="200.6875" height="19" style="fill: rgb(0, 0, 0); fill-opacity: 0;"/></g></g><g class="groups" transform=""><g class="traces" transform="translate(0,89.7)" style="opacity: 1;"><text class="legendtext" text-anchor="start" x="40" y="4.680000000000001" style="font-family: 'Open Sans', verdana, arial, sans-serif; font-size: 12px; fill: rgb(68, 68, 68); fill-opacity: 1; white-space: pre;">Middle East &amp; North Africa</text><g class="layers"><g class="legendfill"><path class="js-fill" d="M5,-2h30v6h-30z" style="stroke-width: 0; fill: rgb(214, 39, 40); fill-opacity: 0.5;"/></g><g class="legendlines"><path class="js-line" d="M5,-2h30" style="fill: none; stroke: rgb(214, 39, 40); stroke-opacity: 1; stroke-width: 2px;"/></g><g class="legendsymbols"><g class="legendpoints"/></g></g><rect class="legendtoggle" x="0" y="-9.5" width="200.6875" height="19" style="fill: rgb(0, 0, 0); fill-opacity: 0;"/></g></g><g class="groups" transform=""><g class="traces" transform="translate(0,108.7)" style="opacity: 1;"><text class="legendtext" text-anchor="start" x="40" y="4.680000000000001" style="font-family: 'Open Sans', verdana, arial, sans-serif; font-size: 12px; fill: rgb(68, 68, 68); fill-opacity: 1; white-space: pre;">Sub-Saharan Africa</text><g class="layers"><g class="legendfill"><path class="js-fill" d="M5,-2h30v6h-30z" style="stroke-width: 0; fill: rgb(148, 103, 189); fill-opacity: 0.5;"/></g><g class="legendlines"><path class="js-line" d="M5,-2h30" style="fill: none; stroke: rgb(148, 103, 189); stroke-opacity: 1; stroke-width: 2px;"/></g><g class="legendsymbols"><g class="legendpoints"/></g></g><rect class="legendtoggle" x="0" y="-9.5" width="200.6875" height="19" style="fill: rgb(0, 0, 0); fill-opacity: 0;"/></g></g><g class="groups" transform=""><g class="traces" transform="translate(0,127.7)" style="opacity: 1;"><text class="legendtext" text-anchor="start" x="40" y="4.680000000000001" style="font-family: 'Open Sans', verdana, arial, sans-serif; font-size: 12px; fill: rgb(68, 68, 68); fill-opacity: 1; white-space: pre;">East Asia &amp; Pacific</text><g class="layers"><g class="legendfill"><path class="js-fill" d="M5,-2h30v6h-30z" style="stroke-width: 0; fill: rgb(140, 86, 75); fill-opacity: 0.5;"/></g><g class="legendlines"><path class="js-line" d="M5,-2h30" style="fill: none; stroke: rgb(140, 86, 75); stroke-opacity: 1; stroke-width: 2px;"/></g><g class="legendsymbols"><g class="legendpoints"/></g></g><rect class="legendtoggle" x="0" y="-9.5" width="200.6875" height="19" style="fill: rgb(0, 0, 0); fill-opacity: 0;"/></g></g><g class="groups" transform=""><g class="traces" transform="translate(0,146.7)" style="opacity: 1;"><text class="legendtext" text-anchor="start" x="40" y="4.680000000000001" style="font-family: 'Open Sans', verdana, arial, sans-serif; font-size: 12px; fill: rgb(68, 68, 68); fill-opacity: 1; white-space: pre;">South Asia</text><g class="layers"><g class="legendfill"><path class="js-fill" d="M5,-2h30v6h-30z" style="stroke-width: 0; fill: rgb(227, 119, 194); fill-opacity: 0.5;"/></g><g class="legendlines"><path class="js-line" d="M5,-2h30" style="fill: none; stroke: rgb(227, 119, 194); stroke-opacity: 1; stroke-width: 2px;"/></g><g class="legendsymbols"><g class="legendpoints"/></g></g><rect class="legendtoggle" x="0" y="-9.5" width="200.6875" height="19" style="fill: rgb(0, 0, 0); fill-opacity: 0;"/></g></g></g><rect class="scrollbar" rx="20" ry="3" width="0" height="0" x="0" y="0" style="fill: rgb(128, 139, 164); fill-opacity: 1;"/></g><g class="g-gtitle"><text class="gtitle" x="350" y="50" text-anchor="middle" dy="0em" style="font-family: 'Open Sans', verdana, arial, sans-serif; font-size: 17px; fill: rgb(68, 68, 68); opacity: 1; font-weight: normal; white-space: pre;">Estimation: <tspan style="font-weight:bold">pre</tspan></text></g><g class="g-xtitle"><text class="xtitle" x="277" y="472" text-anchor="middle" style="font-family: 'Open Sans', verdana, arial, sans-serif; font-size: 14px; fill: rgb(68, 68, 68); opacity: 1; font-weight: normal; white-space: pre;">year</text></g><g class="g-ytitle"><text class="ytitle" transform="rotate(-90,42,260)" x="42" y="260" text-anchor="middle" style="font-family: 'Open Sans', verdana, arial, sans-serif; font-size: 14px; fill: rgb(68, 68, 68); opacity: 1; font-weight: normal; white-space: pre;">pop_poverty</text></g><g class="annotation" data-index="0" style="opacity: 1;"><g class="annotation-text-g" transform="rotate(0,392.3,109.5)"><g class="cursor-pointer" transform="translate(356,100)"><rect class="bg" x="0.5" y="0.5" width="72" height="18" style="stroke-width: 1px; stroke: rgb(0, 0, 0); stroke-opacity: 0; fill: rgb(0, 0, 0); fill-opacity: 0;"/><text class="annotation-text" text-anchor="middle" x="36.609375" y="14" style="font-family: 'Open Sans', verdana, arial, sans-serif; font-size: 12px; fill: rgb(68, 68, 68); fill-opacity: 1; white-space: pre;"><tspan style="font-weight:bold">Projection</tspan></text></g></g></g></g></svg>