<svg class="main-svg" xmlns="http://www.w3.org/2000/svg" xmlns:xlink="http://www.w3.org/1999/xlink" width="700" height="500" style="" viewBox="0 0 700 500"><rect x="0" y="0" width="700" height="500" style="fill: rgb(255, 255, 255); fill-opacity: 1;"/><defs id="defs-3adfc6"><g class="clips"><clipPath id="clip3adfc6xyplot" class="plotclip"><rect width="405" height="320"/></clipPath><clipPath class="axesclip" id="clip3adfc6x"><rect x="80" y="0" width="405" height="500"/></clipPath><clipPath class="axesclip" id="clip3adfc6y"><rect x="0" y="100" width="700" height="320"/></clipPath><clipPath class="axesclip" id="clip3adfc6xy"><rect x="80" y="100" width="405" height="320"/></clipPath></g><g class="gradients"/><g class="patterns"/></defs><g class="bglayer"><rect class="bg" x="80" y="100" width="405" height="320" style="fill: rgb(229, 236, 246); fill-opacity: 1; stroke-width: 0;"/></g><g class="layer-below"><g class="imagelayer"/><g class="shapelayer"/></g><g class="cartesianlayer"><g class="subplot xy"><g class="layer-subplot"><g class="shapelayer"/><g class="imagelayer"/></g><g class="minor-gridlayer"><g class="x"/><g class="y"/></g><g class="gridlayer"><g class="x"><path class="xgrid crisp" transform="translate(181.25,0)" d="M0,100v320" style="stroke: rgb(255, 255, 255); stroke-opacity: 1; stroke-width: 1px;"/><path class="xgrid crisp" transform="translate(282.5,0)" d="M0,100v320" style="stroke: rgb(255, 255, 255); stroke-opacity: 1; stroke-width: 1px;"/><path class="xgrid crisp" transform="translate(383.75,0)" d="M0,100v320" style="stroke: rgb(255, 255, 255); stroke-opacity: 1; stroke-width: 1px;"/></g><g class="y"><path class="ygrid crisp" transform="translate(0,341.51)" d="M80,0h405" style="stroke: rgb(255, 255, 255); stroke-opacity: 1; stroke-width: 1px;"/><path class="ygrid crisp" transform="translate(0,263.01)" d="M80,0h405" style="stroke: rgb(255, 255, 255); stroke-opacity: 1; stroke-width: 1px;"/><path class="ygrid crisp" transform="translate(0,184.51999999999998)" d="M80,0h405" style="stroke: rgb(255, 255, 255); stroke-opacity: 1; stroke-width: 1px;"/><path class="ygrid crisp" transform="translate(0,106.03)" d="M80,0h405" style="stroke: rgb(255, 255, 255); stroke-opacity: 1; stroke-width: 1px;"/></g></g><g class="zerolinelayer"><path class="yzl zl crisp" transform="translate(0,420)" d="M80,0h405" style="stroke: rgb(255, 255, 255); stroke-opacity: 1; stroke-width: 2px;"/></g><path class="xlines-below"/><path class="ylines-below"/><g class="overlines-below"/><g class="xaxislayer-below"/><g class="yaxislayer-below"/><g class="overaxes-below"/><g class="plot" transform="translate(80,100)" clip-path="url(#clip3adfc6xyplot)"><g class="scatterlayer mlayer"><g class="trace scatter trace7b1451" style="stroke-miterlimit: 2;"><g class="fills"><g><path class="js-fill" d="M405,320L0,320L0,275.45L30.38,267.4L40.5,265.37L60.75,263.74L70.88,262.78L91.13,259.59L101.25,258.44L121.5,257.97L131.63,256.22L141.75,257.95L151.88,258.09L182.25,256.68L192.38,255.13L202.5,255.23L212.63,256.55L222.75,257.08L232.88,255.98L243,255.97L253.13,254.63L263.25,253L273.38,252.37L313.88,250.8L324,250.72L405,250.48" style="fill: rgb(99, 110, 250); fill-opacity: 0.5; stroke-width: 0;"/></g><g><path class="js-fill" d="M0,188.8L10.13,183.72L20.25,182.68L30.38,179.6L40.5,177.88L50.63,178.15L60.75,179.6L81,173.93L91.13,172.8L131.63,166.52L141.75,170.17L151.88,174.92L162,176L172.13,178.8L182.25,180.3L192.38,180.28L202.5,188.48L212.63,201.93L222.75,206.4L273.38,226.06L283.5,230.34L293.63,232.22L303.75,235.96L313.88,239.63L324,241.93L344.25,245.12L354.38,246.37L374.63,248.33L384.75,248.7L405,249.49L405,250.48L324,250.72L313.88,250.8L273.38,252.37L263.25,253L253.13,254.63L243,255.97L232.88,255.98L222.75,257.08L212.63,256.55L202.5,255.23L192.38,255.13L182.25,256.68L151.88,258.09L141.75,257.95L131.63,256.22L121.5,257.97L101.25,258.44L91.13,259.59L70.88,262.78L60.75,263.74L40.5,265.37L30.38,267.4L0,275.45Z" style="fill: rgb(239, 85, 59); fill-opacity: 0.5; stroke-width: 0;"/></g></g><g class="errorbars"/><g class="lines"><path class="js-line" d="M0,275.45L30.38,267.4L40.5,265.37L60.75,263.74L70.88,262.78L91.13,259.59L101.25,258.44L121.5,257.97L131.63,256.22L141.75,257.95L151.88,258.09L182.25,256.68L192.38,255.13L202.5,255.23L212.63,256.55L222.75,257.08L232.88,255.98L243,255.97L253.13,254.63L263.25,253L273.38,252.37L313.88,250.8L324,250.72L405,250.48" style="vector-effect: non-scaling-stroke; fill: none; stroke: rgb(99, 110, 250); stroke-opacity: 1; stroke-width: 2px; opacity: 1;"/></g><g class="points"/><g class="text"/></g><g class="trace scatter trace49c682" style="stroke-miterlimit: 2;"><g class="fills"><g><path class="js-fill" d="M0,188.16L10.13,183.1L20.25,182.01L30.38,178.88L40.5,177.17L50.63,177.33L60.75,178.78L81,173.1L91.13,172.03L131.63,165.67L141.75,169.34L151.88,174.06L162,175.18L172.13,178L182.25,179.43L192.38,179.44L202.5,187.65L212.63,200.99L222.75,205.44L232.88,209.18L243,213.75L273.38,225.04L283.5,229.31L293.63,231.24L303.75,234.98L313.88,238.65L324,240.95L344.25,244.12L354.38,245.37L384.75,247.77L394.88,248.21L405,248.55L405,249.49L384.75,248.7L374.63,248.33L354.38,246.37L344.25,245.12L324,241.93L313.88,239.63L303.75,235.96L293.63,232.22L283.5,230.34L273.38,226.06L222.75,206.4L212.63,201.93L202.5,188.48L192.38,180.28L182.25,180.3L172.13,178.8L162,176L151.88,174.92L141.75,170.17L131.63,166.52L91.13,172.8L81,173.93L60.75,179.6L50.63,178.15L40.5,177.88L30.38,179.6L20.25,182.68L10.13,183.72L0,188.8Z" style="fill: rgb(0, 204, 150); fill-opacity: 0.5; stroke-width: 0;"/></g></g><g class="errorbars"/><g class="lines"><path class="js-line" d="M0,188.8L10.13,183.72L20.25,182.68L30.38,179.6L40.5,177.88L50.63,178.15L60.75,179.6L81,173.93L91.13,172.8L131.63,166.52L141.75,170.17L151.88,174.92L162,176L172.13,178.8L182.25,180.3L192.38,180.28L202.5,188.48L212.63,201.93L222.75,206.4L273.38,226.06L283.5,230.34L293.63,232.22L303.75,235.96L313.88,239.63L324,241.93L344.25,245.12L354.38,246.37L374.63,248.33L384.75,248.7L405,249.49" style="vector-effect: non-scaling-stroke; fill: none; stroke: rgb(239, 85, 59); stroke-opacity: 1; stroke-width: 2px; opacity: 1;"/></g><g class="points"/><g class="text"/></g><g class="trace scatter trace5ef1c5" style="stroke-miterlimit: 2;"><g class="fills"><g><path class="js-fill" d="M0,185.8L10.13,179.26L20.25,178.84L30.38,176.15L40.5,174.57L50.63,174.59L60.75,176.18L81,171.26L91.13,170.31L111.38,167.73L121.5,165.47L131.63,163.6L141.75,167.7L151.88,172.53L162,173.73L172.13,176.55L182.25,178.02L192.38,178.16L202.5,186.56L212.63,199.74L222.75,204.17L243,212.21L253.13,215.09L273.38,221.27L283.5,224.92L293.63,226.83L303.75,230.55L313.88,234.52L324,236.57L344.25,239.16L354.38,240.18L384.75,241.94L394.88,242.2L405,242.38L405,248.55L394.88,248.21L384.75,247.77L354.38,245.37L344.25,244.12L324,240.95L313.88,238.65L303.75,234.98L293.63,231.24L283.5,229.31L273.38,225.04L243,213.75L232.88,209.18L222.75,205.44L212.63,200.99L202.5,187.65L192.38,179.44L182.25,179.43L172.13,178L162,175.18L151.88,174.06L141.75,169.34L131.63,165.67L91.13,172.03L81,173.1L60.75,178.78L50.63,177.33L40.5,177.17L30.38,178.88L20.25,182.01L10.13,183.1L0,188.16Z" style="fill: rgb(171, 99, 250); fill-opacity: 0.5; stroke-width: 0;"/></g></g><g class="errorbars"/><g class="lines"><path class="js-line" d="M0,188.16L10.13,183.1L20.25,182.01L30.38,178.88L40.5,177.17L50.63,177.33L60.75,178.78L81,173.1L91.13,172.03L131.63,165.67L141.75,169.34L151.88,174.06L162,175.18L172.13,178L182.25,179.43L192.38,179.44L202.5,187.65L212.63,200.99L222.75,205.44L232.88,209.18L243,213.75L273.38,225.04L283.5,229.31L293.63,231.24L303.75,234.98L313.88,238.65L324,240.95L344.25,244.12L354.38,245.37L384.75,247.77L394.88,248.21L405,248.55" style="vector-effect: non-scaling-stroke; fill: none; stroke: rgb(0, 204, 150); stroke-opacity: 1; stroke-width: 2px; opacity: 1;"/></g><g class="points"/><g class="text"/></g><g class="trace scatter trace4913ac" style="stroke-miterlimit: 2;"><g class="fills"><g><path class="js-fill" d="M0,175.4L10.13,169.26L20.25,168.59L30.38,165.85L40.5,164.9L60.75,165.57L70.88,163.24L81,160.69L91.13,159.35L111.38,157.38L121.5,155.37L131.63,153.83L141.75,158.76L151.88,163.85L162,166.66L172.13,169.91L182.25,171.76L192.38,172.04L202.5,180.84L212.63,194.45L222.75,199.74L243,208.25L253.13,211.39L263.25,213.97L273.38,217.44L283.5,221.12L293.63,223.04L313.88,230.86L324,232.94L344.25,235.61L354.38,236.68L384.75,238.5L394.88,238.76L405,239L405,242.38L394.88,242.2L384.75,241.94L354.38,240.18L344.25,239.16L324,236.57L313.88,234.52L303.75,230.55L293.63,226.83L283.5,224.92L273.38,221.27L253.13,215.09L243,212.21L222.75,204.17L212.63,199.74L202.5,186.56L192.38,178.16L182.25,178.02L172.13,176.55L162,173.73L151.88,172.53L141.75,167.7L131.63,163.6L121.5,165.47L111.38,167.73L91.13,170.31L81,171.26L60.75,176.18L50.63,174.59L40.5,174.57L30.38,176.15L20.25,178.84L10.13,179.26L0,185.8Z" style="fill: rgb(255, 161, 90); fill-opacity: 0.5; stroke-width: 0;"/></g></g><g class="errorbars"/><g class="lines"><path class="js-line" d="M0,185.8L10.13,179.26L20.25,178.84L30.38,176.15L40.5,174.57L50.63,174.59L60.75,176.18L81,171.26L91.13,170.31L111.38,167.73L121.5,165.47L131.63,163.6L141.75,167.7L151.88,172.53L162,173.73L172.13,176.55L182.25,178.02L192.38,178.16L202.5,186.56L212.63,199.74L222.75,204.17L243,212.21L253.13,215.09L273.38,221.27L283.5,224.92L293.63,226.83L303.75,230.55L313.88,234.52L324,236.57L344.25,239.16L354.38,240.18L384.75,241.94L394.88,242.2L405,242.38" style="vector-effect: non-scaling-stroke; fill: none; stroke: rgb(171, 99, 250); stroke-opacity: 1; stroke-width: 2px; opacity: 1;"/></g><g class="points"/><g class="text"/></g><g class="trace scatter trace984df1" style="stroke-miterlimit: 2;"><g class="fills"><g><path class="js-fill" d="M0,173.13L10.13,166.59L20.25,165.17L30.38,162L40.5,159.86L60.75,160.39L70.88,158.85L91.13,153.68L101.25,153.12L111.38,152.55L121.5,151.18L131.63,149.56L141.75,155.2L151.88,160.39L162,163.72L172.13,167.45L182.25,169.74L192.38,170.17L202.5,179.06L212.63,192.93L222.75,198.32L243,206.89L253.13,210.24L273.38,216.42L283.5,220.25L293.63,222.24L303.75,226.06L313.88,230.18L324,232.32L344.25,235.09L354.38,236.2L384.75,238.15L394.88,238.43L405,238.69L405,239L394.88,238.76L384.75,238.5L354.38,236.68L344.25,235.61L324,232.94L313.88,230.86L293.63,223.04L283.5,221.12L273.38,217.44L263.25,213.97L253.13,211.39L243,208.25L222.75,199.74L212.63,194.45L202.5,180.84L192.38,172.04L182.25,171.76L172.13,169.91L162,166.66L151.88,163.85L141.75,158.76L131.63,153.83L121.5,155.37L111.38,157.38L91.13,159.35L81,160.69L70.88,163.24L60.75,165.57L40.5,164.9L30.38,165.85L20.25,168.59L10.13,169.26L0,175.4Z" style="fill: rgb(25, 211, 243); fill-opacity: 0.5; stroke-width: 0;"/></g></g><g class="errorbars"/><g class="lines"><path class="js-line" d="M0,175.4L10.13,169.26L20.25,168.59L30.38,165.85L40.5,164.9L60.75,165.57L70.88,163.24L81,160.69L91.13,159.35L111.38,157.38L121.5,155.37L131.63,153.83L141.75,158.76L151.88,163.85L162,166.66L172.13,169.91L182.25,171.76L192.38,172.04L202.5,180.84L212.63,194.45L222.75,199.74L243,208.25L253.13,211.39L263.25,213.97L273.38,217.44L283.5,221.12L293.63,223.04L313.88,230.86L324,232.94L344.25,235.61L354.38,236.68L384.75,238.5L394.88,238.76L405,239" style="vector-effect: non-scaling-stroke; fill: none; stroke: rgb(255, 161, 90); stroke-opacity: 1; stroke-width: 2px; opacity: 1;"/></g><g class="points"/><g class="text"/></g><g class="trace scatter trace1b2ba9" style="stroke-miterlimit: 2;"><g class="fills"><g><path class="js-fill" d="M0,19.78L10.13,16L20.25,19.55L30.38,22.05L40.5,27.36L50.63,39.67L60.75,50.16L70.88,47.38L81,40L101.25,53.91L111.38,58.43L121.5,66.65L131.63,73.89L141.75,89.01L151.88,106.04L162,110.05L172.13,119.96L182.25,124.85L192.38,130.66L202.5,145.92L212.63,167.86L222.75,176.93L232.88,192.43L243,198.52L253.13,203.62L273.38,211.82L283.5,216.39L293.63,219.01L303.75,223.5L313.88,227.94L324,230.39L344.25,233.83L354.38,235.15L384.75,237.51L394.88,237.87L405,238.18L405,238.69L394.88,238.43L384.75,238.15L354.38,236.2L344.25,235.09L324,232.32L313.88,230.18L303.75,226.06L293.63,222.24L283.5,220.25L273.38,216.42L253.13,210.24L243,206.89L222.75,198.32L212.63,192.93L202.5,179.06L192.38,170.17L182.25,169.74L172.13,167.45L162,163.72L151.88,160.39L141.75,155.2L131.63,149.56L121.5,151.18L111.38,152.55L101.25,153.12L91.13,153.68L70.88,158.85L60.75,160.39L40.5,159.86L30.38,162L20.25,165.17L10.13,166.59L0,173.13Z" style="fill: rgb(255, 102, 146); fill-opacity: 0.5; stroke-width: 0;"/></g></g><g class="errorbars"/><g class="lines"><path class="js-line" d="M0,173.13L10.13,166.59L20.25,165.17L30.38,162L40.5,159.86L60.75,160.39L70.88,158.85L91.13,153.68L101.25,153.12L111.38,152.55L121.5,151.18L131.63,149.56L141.75,155.2L151.88,160.39L162,163.72L172.13,167.45L182.25,169.74L192.38,170.17L202.5,179.06L212.63,192.93L222.75,198.32L243,206.89L253.13,210.24L273.38,216.42L283.5,220.25L293.63,222.24L303.75,226.06L313.88,230.18L324,232.32L344.25,235.09L354.38,236.2L384.75,238.15L394.88,238.43L405,238.69" style="vector-effect: non-scaling-stroke; fill: none; stroke: rgb(25, 211, 243); stroke-opacity: 1; stroke-width: 2px; opacity: 1;"/></g><g class="points"/><g class="text"/></g><g class="trace scatter trace9b392f" style="stroke-miterlimit: 2;"><g class="fills"/><g class="errorbars"/><g class="lines"><path class="js-line" d="M0,19.78L10.13,16L20.25,19.55L30.38,22.05L40.5,27.36L50.63,39.67L60.75,50.16L70.88,47.38L81,40L101.25,53.91L111.38,58.43L121.5,66.65L131.63,73.89L141.75,89.01L151.88,106.04L162,110.05L172.13,119.96L182.25,124.85L192.38,130.66L202.5,145.92L212.63,167.86L222.75,176.93L232.88,192.43L243,198.52L253.13,203.62L273.38,211.82L283.5,216.39L293.63,219.01L303.75,223.5L313.88,227.94L324,230.39L344.25,233.83L354.38,235.15L384.75,237.51L394.88,237.87L405,238.18" style="vector-effect: non-scaling-stroke; fill: none; stroke: rgb(255, 102, 146); stroke-opacity: 1; stroke-width: 2px; opacity: 1;"/></g><g class="points"/><g class="text"/></g></g></g><g class="overplot"/><path class="xlines-above crisp" d="M0,0" style="fill: none;"/><path class="ylines-above crisp" d="M0,0" style="fill: none;"/><g class="overlines-above"/><g class="xaxislayer-above"><g class="xtick"><text text-anchor="middle" x="0" y="433" transform="translate(80,0)" style="font-family: 'Open Sans', verdana, arial, sans-serif; font-size: 12px; fill: rgb(42, 63, 95); fill-opacity: 1; white-space: pre; opacity: 1;">1990</text></g><g class="xtick"><text text-anchor="middle" x="0" y="433" style="font-family: 'Open Sans', verdana, arial, sans-serif; font-size: 12px; fill: rgb(42, 63, 95); fill-opacity: 1; white-space: pre; opacity: 1;" transform="translate(181.25,0)">2000</text></g><g class="xtick"><text text-anchor="middle" x="0" y="433" style="font-family: 'Open Sans', verdana, arial, sans-serif; font-size: 12px; fill: rgb(42, 63, 95); fill-opacity: 1; white-space: pre; opacity: 1;" transform="translate(282.5,0)">2010</text></g><g class="xtick"><text text-anchor="middle" x="0" y="433" style="font-family: 'Open Sans', verdana, arial, sans-serif; font-size: 12px; fill: rgb(42, 63, 95); fill-opacity: 1; white-space: pre; opacity: 1;" transform="translate(383.75,0)">2020</text></g><g class="xtick"><text text-anchor="middle" x="0" y="433" style="font-family: 'Open Sans', verdana, arial, sans-serif; font-size: 12px; fill: rgb(42, 63, 95); fill-opacity: 1; white-space: pre; opacity: 1;" transform="translate(485,0)">2030</text></g></g><g class="yaxislayer-above"><g class="ytick"><text text-anchor="end" x="79" y="4.199999999999999" transform="translate(0,420)" style="font-family: 'Open Sans', verdana, arial, sans-serif; font-size: 12px; fill: rgb(42, 63, 95); fill-opacity: 1; white-space: pre; opacity: 1;">0</text></g><g class="ytick"><text text-anchor="end" x="79" y="4.199999999999999" style="font-family: 'Open Sans', verdana, arial, sans-serif; font-size: 12px; fill: rgb(42, 63, 95); fill-opacity: 1; white-space: pre; opacity: 1;" transform="translate(0,341.51)">500</text></g><g class="ytick"><text text-anchor="end" x="79" y="4.199999999999999" style="font-family: 'Open Sans', verdana, arial, sans-serif; font-size: 12px; fill: rgb(42, 63, 95); fill-opacity: 1; white-space: pre; opacity: 1;" transform="translate(0,263.01)">1000</text></g><g class="ytick"><text text-anchor="end" x="79" y="4.199999999999999" style="font-family: 'Open Sans', verdana, arial, sans-serif; font-size: 12px; fill: rgb(42, 63, 95); fill-opacity: 1; white-space: pre; opacity: 1;" transform="translate(0,184.51999999999998)">1500</text></g><g class="ytick"><text text-anchor="end" x="79" y="4.199999999999999" style="font-family: 'Open Sans', verdana, arial, sans-serif; font-size: 12px; fill: rgb(42, 63, 95); fill-opacity: 1; white-space: pre; opacity: 1;" transform="translate(0,106.03)">2000</text></g></g><g class="overaxes-above"/></g></g><g class="polarlayer"/><g class="smithlayer"/><g class="ternarylayer"/><g class="geolayer"/><g class="funnelarealayer"/><g class="pielayer"/><g class="iciclelayer"/><g class="treemaplayer"/><g class="sunburstlayer"/><g class="glimages"/><defs id="topdefs-3adfc6"><g class="clips"/><clipPath id="legend3adfc6"><rect width="195" height="162" x="0" y="0"/></clipPath></defs><g class="layer-above"><g class="imagelayer"/><g class="shapelayer"/></g><g class="infolayer"><g class="legend" pointer-events="all" transform="translate(493.1,100)"><rect class="bg" shape-rendering="crispEdges" width="195" height="162" x="0" y="0" style="stroke: rgb(68, 68, 68); stroke-opacity: 1; fill: rgb(255, 255, 255); fill-opacity: 1; stroke-width: 0px;"/><g class="scrollbox" transform="" clip-path="url(#legend3adfc6)"><text class="legendtitletext" text-anchor="start" x="2" y="18.2" style="font-family: 'Open Sans', verdana, arial, sans-serif; font-size: 14px; fill: rgb(42, 63, 95); fill-opacity: 1; white-space: pre;">region</text><g class="groups" transform=""><g class="traces" transform="translate(0,32.7)" style="opacity: 1;"><text class="legendtext" text-anchor="start" x="40" y="4.680000000000001" style="font-family: 'Open Sans', verdana, arial, sans-serif; font-size: 12px; fill: rgb(42, 63, 95); fill-opacity: 1; white-space: pre;">Sub-Saharan Africa</text><g class="layers"><g class="legendfill"><path class="js-fill" d="M5,-2h30v6h-30z" style="stroke-width: 0; fill: rgb(99, 110, 250); fill-opacity: 0.5;"/></g><g class="legendlines"><path class="js-line" d="M5,-2h30" style="fill: none; stroke: rgb(99, 110, 250); stroke-opacity: 1; stroke-width: 2px;"/></g><g class="legendsymbols"><g class="legendpoints"/></g></g><rect class="legendtoggle" x="0" y="-9.5" width="189.125" height="19" style="fill: rgb(0, 0, 0); fill-opacity: 0;"/></g></g><g class="groups" transform=""><g class="traces" transform="translate(0,51.7)" style="opacity: 1;"><text class="legendtext" text-anchor="start" x="40" y="4.680000000000001" style="font-family: 'Open Sans', verdana, arial, sans-serif; font-size: 12px; fill: rgb(42, 63, 95); fill-opacity: 1; white-space: pre;">South Asia</text><g class="layers"><g class="legendfill"><path class="js-fill" d="M5,-2h30v6h-30z" style="stroke-width: 0; fill: rgb(239, 85, 59); fill-opacity: 0.5;"/></g><g class="legendlines"><path class="js-line" d="M5,-2h30" style="fill: none; stroke: rgb(239, 85, 59); stroke-opacity: 1; stroke-width: 2px;"/></g><g class="legendsymbols"><g class="legendpoints"/></g></g><rect class="legendtoggle" x="0" y="-9.5" width="189.125" height="19" style="fill: rgb(0, 0, 0); fill-opacity: 0;"/></g></g><g class="groups" transform=""><g class="traces" transform="translate(0,70.7)" style="opacity: 1;"><text class="legendtext" text-anchor="start" x="40" y="4.680000000000001" style="font-family: 'Open Sans', verdana, arial, sans-serif; font-size: 12px; fill: rgb(42, 63, 95); fill-opacity: 1; white-space: pre;">Rest of the world</text><g class="layers"><g class="legendfill"><path class="js-fill" d="M5,-2h30v6h-30z" style="stroke-width: 0; fill: rgb(0, 204, 150); fill-opacity: 0.5;"/></g><g class="legendlines"><path class="js-line" d="M5,-2h30" style="fill: none; stroke: rgb(0, 204, 150); stroke-opacity: 1; stroke-width: 2px;"/></g><g class="legendsymbols"><g class="legendpoints"/></g></g><rect class="legendtoggle" x="0" y="-9.5" width="189.125" height="19" style="fill: rgb(0, 0, 0); fill-opacity: 0;"/></g></g><g class="groups" transform=""><g class="traces" transform="translate(0,89.7)" style="opacity: 1;"><text class="legendtext" text-anchor="start" x="40" y="4.680000000000001" style="font-family: 'Open Sans', verdana, arial, sans-serif; font-size: 12px; fill: rgb(42, 63, 95); fill-opacity: 1; white-space: pre;">Middle East &amp; North Africa</text><g class="layers"><g class="legendfill"><path class="js-fill" d="M5,-2h30v6h-30z" style="stroke-width: 0; fill: rgb(171, 99, 250); fill-opacity: 0.5;"/></g><g class="legendlines"><path class="js-line" d="M5,-2h30" style="fill: none; stroke: rgb(171, 99, 250); stroke-opacity: 1; stroke-width: 2px;"/></g><g class="legendsymbols"><g class="legendpoints"/></g></g><rect class="legendtoggle" x="0" y="-9.5" width="189.125" height="19" style="fill: rgb(0, 0, 0); fill-opacity: 0;"/></g></g><g class="groups" transform=""><g class="traces" transform="translate(0,108.7)" style="opacity: 1;"><text class="legendtext" text-anchor="start" x="40" y="4.680000000000001" style="font-family: 'Open Sans', verdana, arial, sans-serif; font-size: 12px; fill: rgb(42, 63, 95); fill-opacity: 1; white-space: pre;">Latin America &amp; Caribbean</text><g class="layers"><g class="legendfill"><path class="js-fill" d="M5,-2h30v6h-30z" style="stroke-width: 0; fill: rgb(255, 161, 90); fill-opacity: 0.5;"/></g><g class="legendlines"><path class="js-line" d="M5,-2h30" style="fill: none; stroke: rgb(255, 161, 90); stroke-opacity: 1; stroke-width: 2px;"/></g><g class="legendsymbols"><g class="legendpoints"/></g></g><rect class="legendtoggle" x="0" y="-9.5" width="189.125" height="19" style="fill: rgb(0, 0, 0); fill-opacity: 0;"/></g></g><g class="groups" transform=""><g class="traces" transform="translate(0,127.7)" style="opacity: 1;"><text class="legendtext" text-anchor="start" x="40" y="4.680000000000001" style="font-family: 'Open Sans', verdana, arial, sans-serif; font-size: 12px; fill: rgb(42, 63, 95); fill-opacity: 1; white-space: pre;">Europe &amp; Central Asia</text><g class="layers"><g class="legendfill"><path class="js-fill" d="M5,-2h30v6h-30z" style="stroke-width: 0; fill: rgb(25, 211, 243); fill-opacity: 0.5;"/></g><g class="legendlines"><path class="js-line" d="M5,-2h30" style="fill: none; stroke: rgb(25, 211, 243); stroke-opacity: 1; stroke-width: 2px;"/></g><g class="legendsymbols"><g class="legendpoints"/></g></g><rect class="legendtoggle" x="0" y="-9.5" width="189.125" height="19" style="fill: rgb(0, 0, 0); fill-opacity: 0;"/></g></g><g class="groups" transform=""><g class="traces" transform="translate(0,146.7)" style="opacity: 1;"><text class="legendtext" text-anchor="start" x="40" y="4.680000000000001" style="font-family: 'Open Sans', verdana, arial, sans-serif; font-size: 12px; fill: rgb(42, 63, 95); fill-opacity: 1; white-space: pre;">East Asia &amp; Pacific</text><g class="layers"><g class="legendfill"><path class="js-fill" d="M5,-2h30v6h-30z" style="stroke-width: 0; fill: rgb(255, 102, 146); fill-opacity: 0.5;"/></g><g class="legendlines"><path class="js-line" d="M5,-2h30" style="fill: none; stroke: rgb(255, 102, 146); stroke-opacity: 1; stroke-width: 2px;"/></g><g class="legendsymbols"><g class="legendpoints"/></g></g><rect class="legendtoggle" x="0" y="-9.5" width="189.125" height="19" style="fill: rgb(0, 0, 0); fill-opacity: 0;"/></g></g></g><rect class="scrollbar" rx="20" ry="3" width="0" height="0" x="0" y="0" style="fill: rgb(128, 139, 164); fill-opacity: 1;"/></g><g class="g-gtitle"><text class="gtitle" x="35" y="50" text-anchor="start" dy="0em" style="font-family: 'Open Sans', verdana, arial, sans-serif; font-size: 17px; fill: rgb(42, 63, 95); opacity: 1; font-weight: normal; white-space: pre;">pre</text></g><g class="g-xtitle"><text class="xtitle" x="282.5" y="461.8" text-anchor="middle" style="font-family: 'Open Sans', verdana, arial, sans-serif; font-size: 14px; fill: rgb(42, 63, 95); opacity: 1; font-weight: normal; white-space: pre;">year</text></g><g class="g-ytitle"><text class="ytitle" transform="rotate(-90,26.746875000000003,260)" x="26.746875000000003" y="260" text-anchor="middle" style="font-family: 'Open Sans', verdana, arial, sans-serif; font-size: 14px; fill: rgb(42, 63, 95); opacity: 1; font-weight: normal; white-space: pre;">pop_poverty</text></g></g></svg>