<svg class="main-svg" xmlns="http://www.w3.org/2000/svg" xmlns:xlink="http://www.w3.org/1999/xlink" width="700" height="500" style="" viewBox="0 0 700 500"><rect x="0" y="0" width="700" height="500" style="fill: rgb(255, 255, 255); fill-opacity: 1;"/><defs id="defs-45d33e"><g class="clips"><clipPath id="clip45d33exyplot" class="plotclip"><rect width="540" height="320"/></clipPath><clipPath class="axesclip" id="clip45d33ex"><rect x="80" y="0" width="540" height="500"/></clipPath><clipPath class="axesclip" id="clip45d33ey"><rect x="0" y="100" width="700" height="320"/></clipPath><clipPath class="axesclip" id="clip45d33exy"><rect x="80" y="100" width="540" height="320"/></clipPath></g><g class="gradients"/><g class="patterns"/></defs><g class="bglayer"><rect class="bg" x="80" y="100" width="540" height="320" style="fill: rgb(229, 236, 246); fill-opacity: 1; stroke-width: 0;"/></g><g class="layer-below"><g class="imagelayer"/><g class="shapelayer"/></g><g class="cartesianlayer"><g class="subplot xy"><g class="layer-subplot"><g class="shapelayer"/><g class="imagelayer"/></g><g class="minor-gridlayer"><g class="x"/><g class="y"/></g><g class="gridlayer"><g class="x"><path class="xgrid crisp" transform="translate(187.35,0)" d="M0,100v320" style="stroke: rgb(255, 255, 255); stroke-opacity: 1; stroke-width: 1px;"/><path class="xgrid crisp" transform="translate(295.78,0)" d="M0,100v320" style="stroke: rgb(255, 255, 255); stroke-opacity: 1; stroke-width: 1px;"/><path class="xgrid crisp" transform="translate(404.22,0)" d="M0,100v320" style="stroke: rgb(255, 255, 255); stroke-opacity: 1; stroke-width: 1px;"/><path class="xgrid crisp" transform="translate(512.65,0)" d="M0,100v320" style="stroke: rgb(255, 255, 255); stroke-opacity: 1; stroke-width: 1px;"/></g><g class="y"><path class="ygrid crisp" transform="translate(0,356.67)" d="M80,0h540" style="stroke: rgb(255, 255, 255); stroke-opacity: 1; stroke-width: 1px;"/><path class="ygrid crisp" transform="translate(0,305.93)" d="M80,0h540" style="stroke: rgb(255, 255, 255); stroke-opacity: 1; stroke-width: 1px;"/><path class="ygrid crisp" transform="translate(0,255.2)" d="M80,0h540" style="stroke: rgb(255, 255, 255); stroke-opacity: 1; stroke-width: 1px;"/><path class="ygrid crisp" transform="translate(0,204.45999999999998)" d="M80,0h540" style="stroke: rgb(255, 255, 255); stroke-opacity: 1; stroke-width: 1px;"/><path class="ygrid crisp" transform="translate(0,153.72)" d="M80,0h540" style="stroke: rgb(255, 255, 255); stroke-opacity: 1; stroke-width: 1px;"/><path class="ygrid crisp" transform="translate(0,102.99)" d="M80,0h540" style="stroke: rgb(255, 255, 255); stroke-opacity: 1; stroke-width: 1px;"/></g></g><g class="zerolinelayer"><path class="yzl zl crisp" transform="translate(0,407.4)" d="M80,0h540" style="stroke: rgb(255, 255, 255); stroke-opacity: 1; stroke-width: 2px;"/></g><path class="xlines-below"/><path class="ylines-below"/><g class="overlines-below"/><g class="xaxislayer-below"/><g class="yaxislayer-below"/><g class="overaxes-below"/><g class="plot" transform="translate(80,100)" clip-path="url(#clip45d33exyplot)"><g class="scatterlayer mlayer"><g class="trace scatter traceab36af" style="stroke-miterlimit: 2; opacity: 1;"><g class="fills"/><g class="errorbars"/><g class="lines"><path class="js-line" d="M0,303.86L4.34,303.5L5.42,303.75L6.51,303.64L7.59,294.13L8.67,303.58L9.76,302.39L10.84,303.63L11.93,303.58L18.43,303.74L19.52,303.58L22.77,303.67L23.86,302.62L26.02,303.84L27.11,303.64L28.19,302.19L29.28,303.69L36.87,303.74L37.95,303.22L40.12,303.82L41.2,303.86L69.4,303.78L70.48,303.93L76.99,303.79L78.07,303.92L81.33,303.78L82.41,303.81L83.49,302.77L84.58,303.53L91.08,303.88L92.17,303.68L111.69,303.91L112.77,302.86L113.86,303.81L114.94,303.72L119.28,303.92L120.36,303.75L134.46,303.78L135.54,303.67L145.3,303.74L146.39,303.9L148.55,303.72L149.64,303.78L153.98,303.89L155.06,58.11L156.14,117.76L157.23,51.04L158.31,57.92L159.4,119.15L160.48,51.86L161.57,87.88L162.65,117.91L163.73,57.46L164.82,56.93L165.9,49.98L166.99,116.96L168.07,114.6L169.16,112.38L170.24,116.7L171.33,117.07L172.41,16L173.49,49.13L174.58,52.32L175.66,57.59L176.75,91.28L177.83,57.95L178.92,54.26L180,115.93L181.08,112.93L182.17,54.61L183.25,115.34L184.34,114.33L185.42,32.6L186.51,55.7L187.59,113.88L188.67,114.73L189.76,45.42L190.84,303.42L191.93,303.85L198.43,303.67L199.52,303.89L200.6,110.21L201.69,303.47L202.77,47.57L203.86,303.43L206.02,303.76L207.11,74.94L208.19,302.96L209.28,45.82L210.36,302.96L211.45,303.46L215.78,303.68L216.87,303.71L224.46,303.91L225.54,302.93L227.71,303.76L228.8,303.93L230.96,303.89L232.05,303.86L237.47,303.76L238.55,303.84L239.64,303.68L240.72,302.69L242.89,303.75L243.98,303.83L254.82,303.82L255.9,303.04L258.07,303.86L259.16,303.84L279.76,303.6L280.84,303.81L297.11,303.85L298.19,303.58L304.7,303.7L305.78,303.71L314.46,303.82L315.54,302.91L317.71,303.78L318.8,303.81L346.99,303.71L348.07,303.83L358.92,303.65L360,302.84L362.17,303.72L363.25,303.75L389.28,303.73L390.36,302.78L392.53,303.83L393.61,303.81L400.12,303.59L401.2,303.7L403.37,303.65L404.46,302.83L406.63,303.66L407.71,303.63L414.22,303.79L415.3,303.67L418.55,303.74L419.64,303.46L422.89,303.7L423.98,303.73L436.99,303.77L438.07,303.84L467.35,303.64L468.43,303.84L482.53,303.79L483.61,302.76L485.78,303.93L486.87,303.92L497.71,303.83L498.8,302.68L500.96,303.76L502.05,303.72L507.47,303.93L508.55,303.75L513.98,303.09L515.06,303.81L540,303.77" style="vector-effect: non-scaling-stroke; fill: none; stroke: rgb(99, 110, 250); stroke-opacity: 1; stroke-width: 2px; opacity: 1;"/></g><g class="points"/><g class="text"/></g></g></g><g class="overplot"/><path class="xlines-above crisp" d="M0,0" style="fill: none;"/><path class="ylines-above crisp" d="M0,0" style="fill: none;"/><g class="overlines-above"/><g class="xaxislayer-above"><g class="xtick"><text text-anchor="middle" x="0" y="433" transform="translate(187.35,0)" style="font-family: 'Open Sans', verdana, arial, sans-serif; font-size: 12px; fill: rgb(42, 63, 95); fill-opacity: 1; white-space: pre; opacity: 1;">1</text></g><g class="xtick"><text text-anchor="middle" x="0" y="433" style="font-family: 'Open Sans', verdana, arial, sans-serif; font-size: 12px; fill: rgb(42, 63, 95); fill-opacity: 1; white-space: pre; opacity: 1;" transform="translate(295.78,0)">2</text></g><g class="xtick"><text text-anchor="middle" x="0" y="433" style="font-family: 'Open Sans', verdana, arial, sans-serif; font-size: 12px; fill: rgb(42, 63, 95); fill-opacity: 1; white-space: pre; opacity: 1;" transform="translate(404.22,0)">3</text></g><g class="xtick"><text text-anchor="middle" x="0" y="433" style="font-family: 'Open Sans', verdana, arial, sans-serif; font-size: 12px; fill: rgb(42, 63, 95); fill-opacity: 1; white-space: pre; opacity: 1;" transform="translate(512.65,0)">4</text></g></g><g class="yaxislayer-above"><g class="ytick"><text text-anchor="end" x="79" y="4.199999999999999" transform="translate(0,407.4)" style="font-family: 'Open Sans', verdana, arial, sans-serif; font-size: 12px; fill: rgb(42, 63, 95); fill-opacity: 1; white-space: pre; opacity: 1;">0</text></g><g class="ytick"><text text-anchor="end" x="79" y="4.199999999999999" style="font-family: 'Open Sans', verdana, arial, sans-serif; font-size: 12px; fill: rgb(42, 63, 95); fill-opacity: 1; white-space: pre; opacity: 1;" transform="translate(0,356.67)">10</text></g><g class="ytick"><text text-anchor="end" x="79" y="4.199999999999999" style="font-family: 'Open Sans', verdana, arial, sans-serif; font-size: 12px; fill: rgb(42, 63, 95); fill-opacity: 1; white-space: pre; opacity: 1;" transform="translate(0,305.93)">20</text></g><g class="ytick"><text text-anchor="end" x="79" y="4.199999999999999" style="font-family: 'Open Sans', verdana, arial, sans-serif; font-size: 12px; fill: rgb(42, 63, 95); fill-opacity: 1; white-space: pre; opacity: 1;" transform="translate(0,255.2)">30</text></g><g class="ytick"><text text-anchor="end" x="79" y="4.199999999999999" style="font-family: 'Open Sans', verdana, arial, sans-serif; font-size: 12px; fill: rgb(42, 63, 95); fill-opacity: 1; white-space: pre; opacity: 1;" transform="translate(0,204.45999999999998)">40</text></g><g class="ytick"><text text-anchor="end" x="79" y="4.199999999999999" style="font-family: 'Open Sans', verdana, arial, sans-serif; font-size: 12px; fill: rgb(42, 63, 95); fill-opacity: 1; white-space: pre; opacity: 1;" transform="translate(0,153.72)">50</text></g><g class="ytick"><text text-anchor="end" x="79" y="4.199999999999999" style="font-family: 'Open Sans', verdana, arial, sans-serif; font-size: 12px; fill: rgb(42, 63, 95); fill-opacity: 1; white-space: pre; opacity: 1;" transform="translate(0,102.99)">60</text></g></g><g class="overaxes-above"/></g></g><g class="polarlayer"/><g class="smithlayer"/><g class="ternarylayer"/><g class="geolayer"/><g class="funnelarealayer"/><g class="pielayer"/><g class="iciclelayer"/><g class="treemaplayer"/><g class="sunburstlayer"/><g class="glimages"/><defs id="topdefs-45d33e"><g class="clips"/></defs><g class="layer-above"><g class="imagelayer"/><g class="shapelayer"/></g><g class="infolayer"><g class="g-gtitle"><text class="gtitle" x="35" y="50" text-anchor="start" dy="0em" style="font-family: 'Open Sans', verdana, arial, sans-serif; font-size: 17px; fill: rgb(42, 63, 95); opacity: 1; font-weight: normal; white-space: pre;">Execution time for poverty line queries (regions)</text></g><g class="g-xtitle"><text class="xtitle" x="350" y="461.8" text-anchor="middle" style="font-family: 'Open Sans', verdana, arial, sans-serif; font-size: 14px; fill: rgb(42, 63, 95); opacity: 1; font-weight: normal; white-space: pre;">povline</text></g><g class="g-ytitle"><text class="ytitle" transform="rotate(-90,39.465625,260)" x="39.465625" y="260" text-anchor="middle" style="font-family: 'Open Sans', verdana, arial, sans-serif; font-size: 14px; fill: rgb(42, 63, 95); opacity: 1; font-weight: normal; white-space: pre;">duration</text></g></g></svg>