<svg class="main-svg" xmlns="http://www.w3.org/2000/svg" xmlns:xlink="http://www.w3.org/1999/xlink" width="700" height="500" style="" viewBox="0 0 700 500"><rect x="0" y="0" width="700" height="500" style="fill: rgb(255, 255, 255); fill-opacity: 1;"/><defs id="defs-0f720d"><g class="clips"><clipPath id="clip0f720dxyplot" class="plotclip"><rect width="540" height="320"/></clipPath><clipPath class="axesclip" id="clip0f720dx"><rect x="80" y="0" width="540" height="500"/></clipPath><clipPath class="axesclip" id="clip0f720dy"><rect x="0" y="100" width="700" height="320"/></clipPath><clipPath class="axesclip" id="clip0f720dxy"><rect x="80" y="100" width="540" height="320"/></clipPath></g><g class="gradients"/><g class="patterns"/></defs><g class="bglayer"><rect class="bg" x="80" y="100" width="540" height="320" style="fill: rgb(229, 236, 246); fill-opacity: 1; stroke-width: 0;"/></g><g class="layer-below"><g class="imagelayer"/><g class="shapelayer"/></g><g class="cartesianlayer"><g class="subplot xy"><g class="layer-subplot"><g class="shapelayer"/><g class="imagelayer"/></g><g class="minor-gridlayer"><g class="x"/><g class="y"/></g><g class="gridlayer"><g class="x"><path class="xgrid crisp" transform="translate(188.43,0)" d="M0,100v320" style="stroke: rgb(255, 255, 255); stroke-opacity: 1; stroke-width: 1px;"/><path class="xgrid crisp" transform="translate(296.87,0)" d="M0,100v320" style="stroke: rgb(255, 255, 255); stroke-opacity: 1; stroke-width: 1px;"/><path class="xgrid crisp" transform="translate(405.3,0)" d="M0,100v320" style="stroke: rgb(255, 255, 255); stroke-opacity: 1; stroke-width: 1px;"/><path class="xgrid crisp" transform="translate(513.73,0)" d="M0,100v320" style="stroke: rgb(255, 255, 255); stroke-opacity: 1; stroke-width: 1px;"/></g><g class="y"><path class="ygrid crisp" transform="translate(0,394.17)" d="M80,0h540" style="stroke: rgb(255, 255, 255); stroke-opacity: 1; stroke-width: 1px;"/><path class="ygrid crisp" transform="translate(0,335.46000000000004)" d="M80,0h540" style="stroke: rgb(255, 255, 255); stroke-opacity: 1; stroke-width: 1px;"/><path class="ygrid crisp" transform="translate(0,276.75)" d="M80,0h540" style="stroke: rgb(255, 255, 255); stroke-opacity: 1; stroke-width: 1px;"/><path class="ygrid crisp" transform="translate(0,218.04000000000002)" d="M80,0h540" style="stroke: rgb(255, 255, 255); stroke-opacity: 1; stroke-width: 1px;"/><path class="ygrid crisp" transform="translate(0,159.32999999999998)" d="M80,0h540" style="stroke: rgb(255, 255, 255); stroke-opacity: 1; stroke-width: 1px;"/></g></g><g class="zerolinelayer"/><path class="xlines-below"/><path class="ylines-below"/><g class="overlines-below"/><g class="xaxislayer-below"/><g class="yaxislayer-below"/><g class="overaxes-below"/><g class="plot" transform="translate(80,100)" clip-path="url(#clip0f720dxyplot)"><g class="scatterlayer mlayer"><g class="trace scatter trace261585" style="stroke-miterlimit: 2; opacity: 1;"><g class="fills"/><g class="errorbars"/><g class="lines"><path class="js-line" d="M0,45.24L2.17,257.77L4.34,273.76L6.51,260.75L8.67,261.32L10.84,253.16L13.01,273.72L15.18,239.31L17.35,254.59L21.69,267.11L23.86,220.86L26.02,281.99L28.19,269.92L30.36,293.47L32.53,271.18L34.7,16L36.87,267.55L39.04,288.93L41.2,275.4L43.37,253.14L45.54,281.34L47.71,261.01L49.88,265.62L52.05,253.52L54.22,255.52L56.39,256.78L58.55,276.37L60.72,245.87L62.89,259.73L65.06,266.23L67.23,254.04L69.4,287.49L71.57,224.99L73.73,275.24L75.9,237L78.07,290.65L80.24,276.39L82.41,248.09L84.58,274.94L86.75,249.3L88.92,192.9L91.08,264.94L93.25,277.65L95.42,259.97L97.59,262.42L99.76,251.61L101.93,266.87L104.1,204L106.27,290.59L110.6,178.7L112.77,256.94L114.94,249.79L117.11,273.55L119.28,289.83L121.45,246.02L123.61,262.28L125.78,231.84L127.95,285.18L130.12,274.21L132.29,255.54L134.46,259.17L136.63,261.57L138.8,284.14L140.96,260.48L143.13,252.34L145.3,262.44L147.47,29.74L149.64,259.19L151.81,239L156.14,268.49L158.31,238.64L160.48,269.89L162.65,262.46L164.82,245.15L166.99,286.57L169.16,231.81L171.33,267.72L173.49,256.93L175.66,285.3L177.83,269.89L180,279.36L182.17,248.76L184.34,159.32L186.51,285.69L188.67,244.06L190.84,263.11L193.01,263.24L195.18,292.99L197.35,256.09L199.52,263.17L201.69,252.51L203.86,261.49L206.02,289.75L208.19,275.1L210.36,249.48L212.53,285.96L214.7,265.16L216.87,292.22L219.04,250.8L221.2,198.4L223.37,255.88L225.54,229.93L227.71,270.1L229.88,243.95L232.05,282.39L234.22,254.05L236.39,249.2L238.55,244.55L240.72,277.02L242.89,273.55L245.06,238.51L247.23,274.36L249.4,256.1L251.57,268.93L253.73,263.86L255.9,264.54L258.07,209.35L260.24,236.73L262.41,281.06L264.58,267.76L266.75,275.97L268.92,278.24L271.08,283.81L273.25,257.01L275.42,265.92L277.59,245.83L279.76,268.3L281.93,268.38L284.1,272.03L286.27,269.99L288.43,245.22L290.6,285.73L292.77,257.6L294.94,262.91L297.11,192.3L299.28,265.32L301.45,245.58L303.61,267.3L305.78,253.92L307.95,294.93L310.12,287.28L312.29,270.17L314.46,286.54L316.63,265.61L318.8,269.89L320.96,258.71L323.13,254.48L325.3,289.46L327.47,249.9L329.64,267.71L331.81,260.49L333.98,231.16L336.14,278.14L338.31,269.53L340.48,271.49L342.65,221.37L344.82,272.05L346.99,270.23L349.16,255.49L351.33,257.95L353.49,246.06L355.66,229.22L357.83,266.91L360,235.11L362.17,245.4L364.34,267.43L366.51,267.53L368.67,242.53L370.84,120.86L373.01,273.24L375.18,272.09L377.35,253.02L379.52,304L381.69,279.61L383.86,226.27L386.02,265.46L388.19,251.58L390.36,277.46L392.53,271.59L394.7,274.42L396.87,270.04L399.04,248.89L401.2,241.14L403.37,258.39L405.54,265.04L407.71,248.37L409.88,271.83L412.05,165.92L414.22,269.52L416.39,270.69L418.55,246.02L422.89,293.29L425.06,264.32L427.23,245.69L429.4,255.02L431.57,265.25L433.73,258.27L435.9,255.46L438.07,296.51L440.24,247.61L442.41,263.74L446.75,253.07L448.92,139.04L451.08,253.43L453.25,255.83L455.42,255.78L457.59,273.47L459.76,259.62L461.93,278.25L464.1,279.02L466.27,260.5L468.43,276.59L470.6,247.21L472.77,261.9L474.94,244.06L477.11,266.63L479.28,267.84L481.45,286.05L483.61,261.75L485.78,94.76L487.95,256.35L490.12,286.67L492.29,217.38L494.46,248.59L496.63,265.58L500.96,268.69L503.13,284.58L505.3,275.26L507.47,243.66L509.64,255.74L511.81,251.91L513.98,263L516.14,258.68L520.48,268.69L522.65,180.73L524.82,251.19L526.99,136.08L529.16,283.59L531.33,203.97L533.49,240.6L535.66,241.37L537.83,277.61L540,273.51" style="vector-effect: non-scaling-stroke; fill: none; stroke: rgb(99, 110, 250); stroke-opacity: 1; stroke-width: 2px; opacity: 1;"/></g><g class="points"/><g class="text"/></g></g></g><g class="overplot"/><path class="xlines-above crisp" d="M0,0" style="fill: none;"/><path class="ylines-above crisp" d="M0,0" style="fill: none;"/><g class="overlines-above"/><g class="xaxislayer-above"><g class="xtick"><text text-anchor="middle" x="0" y="433" transform="translate(80,0)" style="font-family: 'Open Sans', verdana, arial, sans-serif; font-size: 12px; fill: rgb(42, 63, 95); fill-opacity: 1; white-space: pre; opacity: 1;">150</text></g><g class="xtick"><text text-anchor="middle" x="0" y="433" style="font-family: 'Open Sans', verdana, arial, sans-serif; font-size: 12px; fill: rgb(42, 63, 95); fill-opacity: 1; white-space: pre; opacity: 1;" transform="translate(188.43,0)">155</text></g><g class="xtick"><text text-anchor="middle" x="0" y="433" style="font-family: 'Open Sans', verdana, arial, sans-serif; font-size: 12px; fill: rgb(42, 63, 95); fill-opacity: 1; white-space: pre; opacity: 1;" transform="translate(296.87,0)">160</text></g><g class="xtick"><text text-anchor="middle" x="0" y="433" style="font-family: 'Open Sans', verdana, arial, sans-serif; font-size: 12px; fill: rgb(42, 63, 95); fill-opacity: 1; white-space: pre; opacity: 1;" transform="translate(405.3,0)">165</text></g><g class="xtick"><text text-anchor="middle" x="0" y="433" style="font-family: 'Open Sans', verdana, arial, sans-serif; font-size: 12px; fill: rgb(42, 63, 95); fill-opacity: 1; white-space: pre; opacity: 1;" transform="translate(513.73,0)">170</text></g></g><g class="yaxislayer-above"><g class="ytick"><text text-anchor="end" x="79" y="4.199999999999999" transform="translate(0,394.17)" style="font-family: 'Open Sans', verdana, arial, sans-serif; font-size: 12px; fill: rgb(42, 63, 95); fill-opacity: 1; white-space: pre; opacity: 1;">0.55</text></g><g class="ytick"><text text-anchor="end" x="79" y="4.199999999999999" style="font-family: 'Open Sans', verdana, arial, sans-serif; font-size: 12px; fill: rgb(42, 63, 95); fill-opacity: 1; white-space: pre; opacity: 1;" transform="translate(0,335.46000000000004)">0.6</text></g><g class="ytick"><text text-anchor="end" x="79" y="4.199999999999999" style="font-family: 'Open Sans', verdana, arial, sans-serif; font-size: 12px; fill: rgb(42, 63, 95); fill-opacity: 1; white-space: pre; opacity: 1;" transform="translate(0,276.75)">0.65</text></g><g class="ytick"><text text-anchor="end" x="79" y="4.199999999999999" style="font-family: 'Open Sans', verdana, arial, sans-serif; font-size: 12px; fill: rgb(42, 63, 95); fill-opacity: 1; white-space: pre; opacity: 1;" transform="translate(0,218.04000000000002)">0.7</text></g><g class="ytick"><text text-anchor="end" x="79" y="4.199999999999999" style="font-family: 'Open Sans', verdana, arial, sans-serif; font-size: 12px; fill: rgb(42, 63, 95); fill-opacity: 1; white-space: pre; opacity: 1;" transform="translate(0,159.32999999999998)">0.75</text></g><g class="ytick"><text text-anchor="end" x="79" y="4.199999999999999" style="font-family: 'Open Sans', verdana, arial, sans-serif; font-size: 12px; fill: rgb(42, 63, 95); fill-opacity: 1; white-space: pre; opacity: 1;" transform="translate(0,100.62)">0.8</text></g></g><g class="overaxes-above"/></g></g><g class="polarlayer"/><g class="smithlayer"/><g class="ternarylayer"/><g class="geolayer"/><g class="funnelarealayer"/><g class="pielayer"/><g class="iciclelayer"/><g class="treemaplayer"/><g class="sunburstlayer"/><g class="glimages"/><defs id="topdefs-0f720d"><g class="clips"/></defs><g class="layer-above"><g class="imagelayer"/><g class="shapelayer"/></g><g class="infolayer"><g class="g-gtitle"><text class="gtitle" x="35" y="50" text-anchor="start" dy="0em" style="font-family: 'Open Sans', verdana, arial, sans-serif; font-size: 17px; fill: rgb(42, 63, 95); opacity: 1; font-weight: normal; white-space: pre;">Execution time for poverty line queries</text></g><g class="g-xtitle"><text class="xtitle" x="350" y="461.8" text-anchor="middle" style="font-family: 'Open Sans', verdana, arial, sans-serif; font-size: 14px; fill: rgb(42, 63, 95); opacity: 1; font-weight: normal; white-space: pre;">povline</text></g><g class="g-ytitle"><text class="ytitle" transform="rotate(-90,30.418750000000003,260)" x="30.418750000000003" y="260" text-anchor="middle" style="font-family: 'Open Sans', verdana, arial, sans-serif; font-size: 14px; fill: rgb(42, 63, 95); opacity: 1; font-weight: normal; white-space: pre;">duration</text></g></g></svg>