<?xml version="1.0" encoding="utf-8" standalone="no"?>
<!DOCTYPE svg PUBLIC "-//W3C//DTD SVG 1.1//EN"
  "http://www.w3.org/Graphics/SVG/1.1/DTD/svg11.dtd">
<svg xmlns:xlink="http://www.w3.org/1999/xlink" width="1080pt" height="540pt" viewBox="0 0 1080 540" xmlns="http://www.w3.org/2000/svg" version="1.1">
 <metadata>
  <rdf:RDF xmlns:dc="http://purl.org/dc/elements/1.1/" xmlns:cc="http://creativecommons.org/ns#" xmlns:rdf="http://www.w3.org/1999/02/22-rdf-syntax-ns#">
   <cc:Work>
    <dc:type rdf:resource="http://purl.org/dc/dcmitype/StillImage"/>
    <dc:date>2025-03-14T11:57:25.702028</dc:date>
    <dc:format>image/svg+xml</dc:format>
    <dc:creator>
     <cc:Agent>
      <dc:title>Matplotlib v3.10.1, https://matplotlib.org/</dc:title>
     </cc:Agent>
    </dc:creator>
   </cc:Work>
  </rdf:RDF>
 </metadata>
 <defs>
  <style type="text/css">*{stroke-linejoin: round; stroke-linecap: butt}</style>
 </defs>
 <g id="figure_1">
  <g id="patch_1">
   <path d="M 0 540 
L 1080 540 
L 1080 0 
L 0 0 
z
" style="fill: #ffffff"/>
  </g>
  <g id="axes_1">
   <g id="patch_2">
    <path d="M 135 480.6 
L 972 480.6 
L 972 64.8 
L 135 64.8 
z
" style="fill: #ffffff"/>
   </g>
   <g id="FillBetweenPolyCollection_1">
    <defs>
     <path id="mf34a39bcaa" d="M 173.045455 -59.734096 
L 173.045455 -59.4 
L 176.869118 -59.4 
L 180.692782 -59.4 
L 184.516446 -59.4 
L 188.34011 -59.4 
L 192.163773 -59.4 
L 195.987437 -59.4 
L 199.811101 -59.4 
L 203.634765 -59.4 
L 207.458429 -59.4 
L 211.282092 -59.4 
L 215.105756 -59.4 
L 218.92942 -59.4 
L 222.753084 -59.4 
L 226.576747 -59.4 
L 230.400411 -59.4 
L 234.224075 -59.4 
L 238.047739 -59.4 
L 241.871402 -59.4 
L 245.695066 -59.4 
L 249.51873 -59.4 
L 253.342394 -59.4 
L 257.166058 -59.4 
L 260.989721 -59.4 
L 264.813385 -59.4 
L 268.637049 -59.4 
L 272.460713 -59.4 
L 276.284376 -59.4 
L 280.10804 -59.4 
L 283.931704 -59.4 
L 287.755368 -59.4 
L 291.579032 -59.4 
L 295.402695 -59.4 
L 299.226359 -59.4 
L 303.050023 -59.4 
L 306.873687 -59.4 
L 310.69735 -59.4 
L 314.521014 -59.4 
L 318.344678 -59.4 
L 322.168342 -59.4 
L 325.992005 -59.4 
L 329.815669 -59.4 
L 333.639333 -59.4 
L 337.462997 -59.4 
L 341.286661 -59.4 
L 345.110324 -59.4 
L 348.933988 -59.4 
L 352.757652 -59.4 
L 356.581316 -59.4 
L 360.404979 -59.4 
L 364.228643 -59.4 
L 368.052307 -59.4 
L 371.875971 -59.4 
L 375.699635 -59.4 
L 379.523298 -59.4 
L 383.346962 -59.4 
L 387.170626 -59.4 
L 390.99429 -59.4 
L 394.817953 -59.4 
L 398.641617 -59.4 
L 402.465281 -59.4 
L 406.288945 -59.4 
L 410.112608 -59.4 
L 413.936272 -59.4 
L 417.759936 -59.4 
L 421.5836 -59.4 
L 425.407264 -59.4 
L 429.230927 -59.4 
L 433.054591 -59.4 
L 436.878255 -59.4 
L 440.701919 -59.4 
L 444.525582 -59.4 
L 448.349246 -59.4 
L 452.17291 -59.4 
L 455.996574 -59.4 
L 459.820238 -59.4 
L 463.643901 -59.4 
L 467.467565 -59.4 
L 471.291229 -59.4 
L 475.114893 -59.4 
L 478.938556 -59.4 
L 482.76222 -59.4 
L 486.585884 -59.4 
L 490.409548 -59.4 
L 494.233212 -59.4 
L 498.056875 -59.4 
L 501.880539 -59.4 
L 505.704203 -59.4 
L 509.527867 -59.4 
L 513.35153 -59.4 
L 517.175194 -59.4 
L 520.998858 -59.4 
L 524.822522 -59.4 
L 528.646185 -59.4 
L 532.469849 -59.4 
L 536.293513 -59.4 
L 540.117177 -59.4 
L 543.940841 -59.4 
L 547.764504 -59.4 
L 551.588168 -59.4 
L 555.411832 -59.4 
L 559.235496 -59.4 
L 563.059159 -59.4 
L 566.882823 -59.4 
L 570.706487 -59.4 
L 574.530151 -59.4 
L 578.353815 -59.4 
L 582.177478 -59.4 
L 586.001142 -59.4 
L 589.824806 -59.4 
L 593.64847 -59.4 
L 597.472133 -59.4 
L 601.295797 -59.4 
L 605.119461 -59.4 
L 608.943125 -59.4 
L 612.766788 -59.4 
L 616.590452 -59.4 
L 620.414116 -59.4 
L 624.23778 -59.4 
L 628.061444 -59.4 
L 631.885107 -59.4 
L 635.708771 -59.4 
L 639.532435 -59.4 
L 643.356099 -59.4 
L 647.179762 -59.4 
L 651.003426 -59.4 
L 654.82709 -59.4 
L 658.650754 -59.4 
L 662.474418 -59.4 
L 666.298081 -59.4 
L 670.121745 -59.4 
L 673.945409 -59.4 
L 677.769073 -59.4 
L 681.592736 -59.4 
L 685.4164 -59.4 
L 689.240064 -59.4 
L 693.063728 -59.4 
L 696.887392 -59.4 
L 700.711055 -59.4 
L 704.534719 -59.4 
L 708.358383 -59.4 
L 712.182047 -59.4 
L 716.00571 -59.4 
L 719.829374 -59.4 
L 723.653038 -59.4 
L 727.476702 -59.4 
L 731.300365 -59.4 
L 735.124029 -59.4 
L 738.947693 -59.4 
L 742.771357 -59.4 
L 746.595021 -59.4 
L 750.418684 -59.4 
L 754.242348 -59.4 
L 758.066012 -59.4 
L 761.889676 -59.4 
L 765.713339 -59.4 
L 769.537003 -59.4 
L 773.360667 -59.4 
L 777.184331 -59.4 
L 781.007995 -59.4 
L 784.831658 -59.4 
L 788.655322 -59.4 
L 792.478986 -59.4 
L 796.30265 -59.4 
L 800.126313 -59.4 
L 803.949977 -59.4 
L 807.773641 -59.4 
L 811.597305 -59.4 
L 815.420968 -59.4 
L 819.244632 -59.4 
L 823.068296 -59.4 
L 826.89196 -59.4 
L 830.715624 -59.4 
L 834.539287 -59.4 
L 838.362951 -59.4 
L 842.186615 -59.4 
L 846.010279 -59.4 
L 849.833942 -59.4 
L 853.657606 -59.4 
L 857.48127 -59.4 
L 861.304934 -59.4 
L 865.128598 -59.4 
L 868.952261 -59.4 
L 872.775925 -59.4 
L 876.599589 -59.4 
L 880.423253 -59.4 
L 884.246916 -59.4 
L 888.07058 -59.4 
L 891.894244 -59.4 
L 895.717908 -59.4 
L 899.541571 -59.4 
L 903.365235 -59.4 
L 907.188899 -59.4 
L 911.012563 -59.4 
L 914.836227 -59.4 
L 918.65989 -59.4 
L 922.483554 -59.4 
L 926.307218 -59.4 
L 930.130882 -59.4 
L 933.954545 -59.4 
L 933.954545 -59.405992 
L 933.954545 -59.405992 
L 930.130882 -59.411202 
L 926.307218 -59.420238 
L 922.483554 -59.435353 
L 918.65989 -59.459736 
L 914.836227 -59.497686 
L 911.012563 -59.554694 
L 907.188899 -59.63739 
L 903.365235 -59.753307 
L 899.541571 -59.910435 
L 895.717908 -60.116619 
L 891.894244 -60.378855 
L 888.07058 -60.702633 
L 884.246916 -61.091465 
L 880.423253 -61.546736 
L 876.599589 -62.067945 
L 872.775925 -62.65334 
L 868.952261 -63.300859 
L 865.128598 -64.009196 
L 861.304934 -64.778832 
L 857.48127 -65.612841 
L 853.657606 -66.517382 
L 849.833942 -67.501832 
L 846.010279 -68.578619 
L 842.186615 -69.762846 
L 838.362951 -71.07184 
L 834.539287 -72.524706 
L 830.715624 -74.141969 
L 826.89196 -75.945298 
L 823.068296 -77.957269 
L 819.244632 -80.201084 
L 815.420968 -82.700157 
L 811.597305 -85.47749 
L 807.773641 -88.554833 
L 803.949977 -91.951675 
L 800.126313 -95.684187 
L 796.30265 -99.764268 
L 792.478986 -104.198861 
L 788.655322 -108.98961 
L 784.831658 -114.132851 
L 781.007995 -119.619812 
L 777.184331 -125.436852 
L 773.360667 -131.565554 
L 769.537003 -137.982569 
L 765.713339 -144.65924 
L 761.889676 -151.561116 
L 758.066012 -158.647567 
L 754.242348 -165.871636 
L 750.418684 -173.180259 
L 746.595021 -180.514807 
L 742.771357 -187.811934 
L 738.947693 -195.00463 
L 735.124029 -202.023482 
L 731.300365 -208.798151 
L 727.476702 -215.259093 
L 723.653038 -221.339496 
L 719.829374 -226.977281 
L 716.00571 -232.116936 
L 712.182047 -236.7109 
L 708.358383 -240.720256 
L 704.534719 -244.114619 
L 700.711055 -246.871299 
L 696.887392 -248.973951 
L 693.063728 -250.411048 
L 689.240064 -251.174536 
L 685.4164 -251.258985 
L 681.592736 -250.661448 
L 677.769073 -249.382114 
L 673.945409 -247.425691 
L 670.121745 -244.803285 
L 666.298081 -241.534444 
L 662.474418 -237.648885 
L 658.650754 -233.187476 
L 654.82709 -228.202058 
L 651.003426 -222.753958 
L 647.179762 -216.911264 
L 643.356099 -210.745215 
L 639.532435 -204.326308 
L 635.708771 -197.720753 
L 631.885107 -190.987898 
L 628.061444 -184.178994 
L 624.23778 -177.337393 
L 620.414116 -170.499972 
L 616.590452 -163.699324 
L 612.766788 -156.966126 
L 608.943125 -150.331132 
L 605.119461 -143.826348 
L 601.295797 -137.485202 
L 597.472133 -131.341755 
L 593.64847 -125.429221 
L 589.824806 -119.778209 
L 586.001142 -114.415082 
L 582.177478 -109.360771 
L 578.353815 -104.630196 
L 574.530151 -100.232262 
L 570.706487 -96.170276 
L 566.882823 -92.442559 
L 563.059159 -89.043047 
L 559.235496 -85.961769 
L 555.411832 -83.185218 
L 551.588168 -80.696681 
L 547.764504 -78.476677 
L 543.940841 -76.503587 
L 540.117177 -74.754518 
L 536.293513 -73.20632 
L 532.469849 -71.83665 
L 528.646185 -70.624884 
L 524.822522 -69.552747 
L 520.998858 -68.60455 
L 517.175194 -67.767017 
L 513.35153 -67.028765 
L 509.527867 -66.379596 
L 505.704203 -65.80976 
L 501.880539 -65.309399 
L 498.056875 -64.868301 
L 494.233212 -64.476013 
L 490.409548 -64.1223 
L 486.585884 -63.797805 
L 482.76222 -63.494775 
L 478.938556 -63.207679 
L 475.114893 -62.933627 
L 471.291229 -62.67253 
L 467.467565 -62.426952 
L 463.643901 -62.201651 
L 459.820238 -62.002766 
L 455.996574 -61.836645 
L 452.17291 -61.708376 
L 448.349246 -61.620208 
L 444.525582 -61.570194 
L 440.701919 -61.551426 
L 436.878255 -61.552216 
L 433.054591 -61.557384 
L 429.230927 -61.550512 
L 425.407264 -61.516757 
L 421.5836 -61.445601 
L 417.759936 -61.3329 
L 413.936272 -61.181749 
L 410.112608 -61.001993 
L 406.288945 -60.808524 
L 402.465281 -60.618801 
L 398.641617 -60.450103 
L 394.817953 -60.317039 
L 390.99429 -60.229641 
L 387.170626 -60.192248 
L 383.346962 -60.203161 
L 379.523298 -60.255038 
L 375.699635 -60.335904 
L 371.875971 -60.430668 
L 368.052307 -60.523011 
L 364.228643 -60.597455 
L 360.404979 -60.641323 
L 356.581316 -60.646333 
L 352.757652 -60.6095 
L 348.933988 -60.533206 
L 345.110324 -60.424419 
L 341.286661 -60.293246 
L 337.462997 -60.151133 
L 333.639333 -60.0091 
L 329.815669 -59.876329 
L 325.992005 -59.759325 
L 322.168342 -59.661701 
L 318.344678 -59.584495 
L 314.521014 -59.52686 
L 310.69735 -59.486918 
L 306.873687 -59.462615 
L 303.050023 -59.452466 
L 299.226359 -59.456113 
L 295.402695 -59.474708 
L 291.579032 -59.511086 
L 287.755368 -59.569723 
L 283.931704 -59.656484 
L 280.10804 -59.778119 
L 276.284376 -59.941557 
L 272.460713 -60.153023 
L 268.637049 -60.417097 
L 264.813385 -60.735827 
L 260.989721 -61.108002 
L 257.166058 -61.528624 
L 253.342394 -61.988601 
L 249.51873 -62.474583 
L 245.695066 -62.968953 
L 241.871402 -63.450024 
L 238.047739 -63.892643 
L 234.224075 -64.269444 
L 230.400411 -64.552952 
L 226.576747 -64.718526 
L 222.753084 -64.747803 
L 218.92942 -64.632006 
L 215.105756 -64.374301 
L 211.282092 -63.990457 
L 207.458429 -63.507454 
L 203.634765 -62.960141 
L 199.811101 -62.386617 
L 195.987437 -61.823279 
L 192.163773 -61.300561 
L 188.34011 -60.840132 
L 184.516446 -60.453878 
L 180.692782 -60.144568 
L 176.869118 -59.907725 
L 173.045455 -59.734096 
z
" style="stroke: #000000"/>
    </defs>
    <g clip-path="url(#pe1cedac310)">
     <use xlink:href="#mf34a39bcaa" x="0" y="540" style="fill: #2ca02c; fill-opacity: 0.75; stroke: #000000"/>
    </g>
   </g>
   <g id="FillBetweenPolyCollection_2">
    <defs>
     <path id="m81a9023591" d="M 173.045455 -59.734096 
L 173.045455 -59.734096 
L 176.869118 -59.907725 
L 180.692782 -60.144568 
L 184.516446 -60.453878 
L 188.34011 -60.840132 
L 192.163773 -61.300561 
L 195.987437 -61.823279 
L 199.811101 -62.386617 
L 203.634765 -62.960141 
L 207.458429 -63.507454 
L 211.282092 -63.990457 
L 215.105756 -64.374301 
L 218.92942 -64.632006 
L 222.753084 -64.747803 
L 226.576747 -64.718526 
L 230.400411 -64.552952 
L 234.224075 -64.269444 
L 238.047739 -63.892643 
L 241.871402 -63.450024 
L 245.695066 -62.968953 
L 249.51873 -62.474583 
L 253.342394 -61.988601 
L 257.166058 -61.528624 
L 260.989721 -61.108002 
L 264.813385 -60.735827 
L 268.637049 -60.417097 
L 272.460713 -60.153023 
L 276.284376 -59.941557 
L 280.10804 -59.778119 
L 283.931704 -59.656484 
L 287.755368 -59.569723 
L 291.579032 -59.511086 
L 295.402695 -59.474708 
L 299.226359 -59.456113 
L 303.050023 -59.452466 
L 306.873687 -59.462615 
L 310.69735 -59.486918 
L 314.521014 -59.52686 
L 318.344678 -59.584495 
L 322.168342 -59.661701 
L 325.992005 -59.759325 
L 329.815669 -59.876329 
L 333.639333 -60.0091 
L 337.462997 -60.151133 
L 341.286661 -60.293246 
L 345.110324 -60.424419 
L 348.933988 -60.533206 
L 352.757652 -60.6095 
L 356.581316 -60.646333 
L 360.404979 -60.641323 
L 364.228643 -60.597455 
L 368.052307 -60.523011 
L 371.875971 -60.430668 
L 375.699635 -60.335904 
L 379.523298 -60.255038 
L 383.346962 -60.203161 
L 387.170626 -60.192248 
L 390.99429 -60.229641 
L 394.817953 -60.317039 
L 398.641617 -60.450103 
L 402.465281 -60.618801 
L 406.288945 -60.808524 
L 410.112608 -61.001993 
L 413.936272 -61.181749 
L 417.759936 -61.3329 
L 421.5836 -61.445601 
L 425.407264 -61.516757 
L 429.230927 -61.550512 
L 433.054591 -61.557384 
L 436.878255 -61.552216 
L 440.701919 -61.551426 
L 444.525582 -61.570194 
L 448.349246 -61.620208 
L 452.17291 -61.708376 
L 455.996574 -61.836645 
L 459.820238 -62.002766 
L 463.643901 -62.201651 
L 467.467565 -62.426952 
L 471.291229 -62.67253 
L 475.114893 -62.933627 
L 478.938556 -63.207679 
L 482.76222 -63.494775 
L 486.585884 -63.797805 
L 490.409548 -64.1223 
L 494.233212 -64.476013 
L 498.056875 -64.868301 
L 501.880539 -65.309399 
L 505.704203 -65.80976 
L 509.527867 -66.379596 
L 513.35153 -67.028765 
L 517.175194 -67.767017 
L 520.998858 -68.60455 
L 524.822522 -69.552747 
L 528.646185 -70.624884 
L 532.469849 -71.83665 
L 536.293513 -73.20632 
L 540.117177 -74.754518 
L 543.940841 -76.503587 
L 547.764504 -78.476677 
L 551.588168 -80.696681 
L 555.411832 -83.185218 
L 559.235496 -85.961769 
L 563.059159 -89.043047 
L 566.882823 -92.442559 
L 570.706487 -96.170276 
L 574.530151 -100.232262 
L 578.353815 -104.630196 
L 582.177478 -109.360771 
L 586.001142 -114.415082 
L 589.824806 -119.778209 
L 593.64847 -125.429221 
L 597.472133 -131.341755 
L 601.295797 -137.485202 
L 605.119461 -143.826348 
L 608.943125 -150.331132 
L 612.766788 -156.966126 
L 616.590452 -163.699324 
L 620.414116 -170.499972 
L 624.23778 -177.337393 
L 628.061444 -184.178994 
L 631.885107 -190.987898 
L 635.708771 -197.720753 
L 639.532435 -204.326308 
L 643.356099 -210.745215 
L 647.179762 -216.911264 
L 651.003426 -222.753958 
L 654.82709 -228.202058 
L 658.650754 -233.187476 
L 662.474418 -237.648885 
L 666.298081 -241.534444 
L 670.121745 -244.803285 
L 673.945409 -247.425691 
L 677.769073 -249.382114 
L 681.592736 -250.661448 
L 685.4164 -251.258985 
L 689.240064 -251.174536 
L 693.063728 -250.411048 
L 696.887392 -248.973951 
L 700.711055 -246.871299 
L 704.534719 -244.114619 
L 708.358383 -240.720256 
L 712.182047 -236.7109 
L 716.00571 -232.116936 
L 719.829374 -226.977281 
L 723.653038 -221.339496 
L 727.476702 -215.259093 
L 731.300365 -208.798151 
L 735.124029 -202.023482 
L 738.947693 -195.00463 
L 742.771357 -187.811934 
L 746.595021 -180.514807 
L 750.418684 -173.180259 
L 754.242348 -165.871636 
L 758.066012 -158.647567 
L 761.889676 -151.561116 
L 765.713339 -144.65924 
L 769.537003 -137.982569 
L 773.360667 -131.565554 
L 777.184331 -125.436852 
L 781.007995 -119.619812 
L 784.831658 -114.132851 
L 788.655322 -108.98961 
L 792.478986 -104.198861 
L 796.30265 -99.764268 
L 800.126313 -95.684187 
L 803.949977 -91.951675 
L 807.773641 -88.554833 
L 811.597305 -85.47749 
L 815.420968 -82.700157 
L 819.244632 -80.201084 
L 823.068296 -77.957269 
L 826.89196 -75.945298 
L 830.715624 -74.141969 
L 834.539287 -72.524706 
L 838.362951 -71.07184 
L 842.186615 -69.762846 
L 846.010279 -68.578619 
L 849.833942 -67.501832 
L 853.657606 -66.517382 
L 857.48127 -65.612841 
L 861.304934 -64.778832 
L 865.128598 -64.009196 
L 868.952261 -63.300859 
L 872.775925 -62.65334 
L 876.599589 -62.067945 
L 880.423253 -61.546736 
L 884.246916 -61.091465 
L 888.07058 -60.702633 
L 891.894244 -60.378855 
L 895.717908 -60.116619 
L 899.541571 -59.910435 
L 903.365235 -59.753307 
L 907.188899 -59.63739 
L 911.012563 -59.554694 
L 914.836227 -59.497686 
L 918.65989 -59.459736 
L 922.483554 -59.435353 
L 926.307218 -59.420238 
L 930.130882 -59.411202 
L 933.954545 -59.405992 
L 933.954545 -59.405992 
L 933.954545 -59.405992 
L 930.130882 -59.411202 
L 926.307218 -59.420238 
L 922.483554 -59.435353 
L 918.65989 -59.459736 
L 914.836227 -59.497686 
L 911.012563 -59.554694 
L 907.188899 -59.63739 
L 903.365235 -59.753307 
L 899.541571 -59.910435 
L 895.717908 -60.116619 
L 891.894244 -60.378855 
L 888.07058 -60.702633 
L 884.246916 -61.091466 
L 880.423253 -61.546737 
L 876.599589 -62.067946 
L 872.775925 -62.653344 
L 868.952261 -63.300872 
L 865.128598 -64.009236 
L 861.304934 -64.778944 
L 857.48127 -65.613144 
L 853.657606 -66.518152 
L 849.833942 -67.50368 
L 846.010279 -68.582797 
L 842.186615 -69.771752 
L 838.362951 -71.089735 
L 834.539287 -72.558604 
L 830.715624 -74.202503 
L 826.89196 -76.047204 
L 823.068296 -78.118995 
L 819.244632 -80.44304 
L 815.420968 -83.041405 
L 811.597305 -85.931203 
L 807.773641 -89.123517 
L 803.949977 -92.623628 
L 800.126313 -96.432676 
L 796.30265 -100.550253 
L 792.478986 -104.976963 
L 788.655322 -109.715853 
L 784.831658 -114.77206 
L 781.007995 -120.150699 
L 777.184331 -125.853741 
L 773.360667 -131.876936 
L 769.537003 -138.207706 
L 765.713339 -144.824439 
L 761.889676 -151.69703 
L 758.066012 -158.788164 
L 754.242348 -166.054642 
L 750.418684 -173.448242 
L 746.595021 -180.915864 
L 742.771357 -188.399101 
L 738.947693 -195.833749 
L 735.124029 -203.149927 
L 731.300365 -210.273423 
L 727.476702 -217.128495 
L 723.653038 -223.641778 
L 719.829374 -229.746442 
L 716.00571 -235.385555 
L 712.182047 -240.513828 
L 708.358383 -245.09752 
L 704.534719 -249.112905 
L 700.711055 -252.544175 
L 696.887392 -255.381643 
L 693.063728 -257.620817 
L 689.240064 -259.262382 
L 685.4164 -260.312671 
L 681.592736 -260.783991 
L 677.769073 -260.694345 
L 673.945409 -260.066536 
L 670.121745 -258.927207 
L 666.298081 -257.306764 
L 662.474418 -255.240994 
L 658.650754 -252.774512 
L 654.82709 -249.965162 
L 651.003426 -246.887622 
L 647.179762 -243.63425 
L 643.356099 -240.311875 
L 639.532435 -237.034629 
L 635.708771 -233.914333 
L 631.885107 -231.050921 
L 628.061444 -228.525435 
L 624.23778 -226.397282 
L 620.414116 -224.706123 
L 616.590452 -223.477307 
L 612.766788 -222.728686 
L 608.943125 -222.476143 
L 605.119461 -222.735546 
L 601.295797 -223.520038 
L 597.472133 -224.833468 
L 593.64847 -226.662605 
L 589.824806 -228.971729 
L 586.001142 -231.702585 
L 582.177478 -234.780525 
L 578.353815 -238.124766 
L 574.530151 -241.658641 
L 570.706487 -245.315523 
L 566.882823 -249.038133 
L 563.059159 -252.772218 
L 559.235496 -256.458325 
L 555.411832 -260.026255 
L 551.588168 -263.395194 
L 547.764504 -266.479385 
L 543.940841 -269.196142 
L 540.117177 -271.471727 
L 536.293513 -273.24168 
L 532.469849 -274.445247 
L 528.646185 -275.017052 
L 524.822522 -274.881439 
L 520.998858 -273.954699 
L 517.175194 -272.157464 
L 513.35153 -269.434793 
L 509.527867 -265.776952 
L 505.704203 -261.231863 
L 501.880539 -255.902243 
L 498.056875 -249.926342 
L 494.233212 -243.448424 
L 490.409548 -236.590182 
L 486.585884 -229.434239 
L 482.76222 -222.02544 
L 478.938556 -214.38742 
L 475.114893 -206.545315 
L 471.291229 -198.54375 
L 467.467565 -190.453012 
L 463.643901 -182.362941 
L 459.820238 -174.369639 
L 455.996574 -166.561912 
L 452.17291 -159.012236 
L 448.349246 -151.773209 
L 444.525582 -144.877676 
L 440.701919 -138.340249 
L 436.878255 -132.15931 
L 433.054591 -126.320124 
L 429.230927 -120.799976 
L 425.407264 -115.575188 
L 421.5836 -110.62837 
L 417.759936 -105.953513 
L 413.936272 -101.557114 
L 410.112608 -97.455024 
L 406.288945 -93.666303 
L 402.465281 -90.206199 
L 398.641617 -87.080324 
L 394.817953 -84.281411 
L 390.99429 -81.789154 
L 387.170626 -79.572891 
L 383.346962 -77.596287 
L 379.523298 -75.822739 
L 375.699635 -74.220069 
L 371.875971 -72.763294 
L 368.052307 -71.434927 
L 364.228643 -70.223197 
L 360.404979 -69.119262 
L 356.581316 -68.114698 
L 352.757652 -67.200201 
L 348.933988 -66.36572 
L 345.110324 -65.601611 
L 341.286661 -64.900064 
L 337.462997 -64.25609 
L 333.639333 -63.667641 
L 329.815669 -63.134784 
L 325.992005 -62.658207 
L 322.168342 -62.23755 
L 318.344678 -61.870235 
L 314.521014 -61.551326 
L 310.69735 -61.274679 
L 306.873687 -61.035078 
L 303.050023 -60.830536 
L 299.226359 -60.663698 
L 295.402695 -60.54148 
L 291.579032 -60.472823 
L 287.755368 -60.465297 
L 283.931704 -60.521896 
L 280.10804 -60.639417 
L 276.284376 -60.809183 
L 272.460713 -61.019838 
L 268.637049 -61.261038 
L 264.813385 -61.526458 
L 260.989721 -61.814832 
L 257.166058 -62.128597 
L 253.342394 -62.470676 
L 249.51873 -62.840602 
L 245.695066 -63.231289 
L 241.871402 -63.627413 
L 238.047739 -64.005769 
L 234.224075 -64.337472 
L 230.400411 -64.591523 
L 226.576747 -64.739144 
L 222.753084 -64.758193 
L 218.92942 -64.636942 
L 215.105756 -64.376511 
L 211.282092 -63.991391 
L 207.458429 -63.507825 
L 203.634765 -62.960281 
L 199.811101 -62.386667 
L 195.987437 -61.823295 
L 192.163773 -61.300567 
L 188.34011 -60.840134 
L 184.516446 -60.453879 
L 180.692782 -60.144568 
L 176.869118 -59.907725 
L 173.045455 -59.734096 
z
" style="stroke: #000000"/>
    </defs>
    <g clip-path="url(#pe1cedac310)">
     <use xlink:href="#m81a9023591" x="0" y="540" style="fill: #ff7f0e; fill-opacity: 0.75; stroke: #000000"/>
    </g>
   </g>
   <g id="FillBetweenPolyCollection_3">
    <defs>
     <path id="mbaf46c93e8" d="M 173.045455 -59.753617 
L 173.045455 -59.734096 
L 176.869118 -59.907725 
L 180.692782 -60.144568 
L 184.516446 -60.453879 
L 188.34011 -60.840134 
L 192.163773 -61.300567 
L 195.987437 -61.823295 
L 199.811101 -62.386667 
L 203.634765 -62.960281 
L 207.458429 -63.507825 
L 211.282092 -63.991391 
L 215.105756 -64.376511 
L 218.92942 -64.636942 
L 222.753084 -64.758193 
L 226.576747 -64.739144 
L 230.400411 -64.591523 
L 234.224075 -64.337472 
L 238.047739 -64.005769 
L 241.871402 -63.627413 
L 245.695066 -63.231289 
L 249.51873 -62.840602 
L 253.342394 -62.470676 
L 257.166058 -62.128597 
L 260.989721 -61.814832 
L 264.813385 -61.526458 
L 268.637049 -61.261038 
L 272.460713 -61.019838 
L 276.284376 -60.809183 
L 280.10804 -60.639417 
L 283.931704 -60.521896 
L 287.755368 -60.465297 
L 291.579032 -60.472823 
L 295.402695 -60.54148 
L 299.226359 -60.663698 
L 303.050023 -60.830536 
L 306.873687 -61.035078 
L 310.69735 -61.274679 
L 314.521014 -61.551326 
L 318.344678 -61.870235 
L 322.168342 -62.23755 
L 325.992005 -62.658207 
L 329.815669 -63.134784 
L 333.639333 -63.667641 
L 337.462997 -64.25609 
L 341.286661 -64.900064 
L 345.110324 -65.601611 
L 348.933988 -66.36572 
L 352.757652 -67.200201 
L 356.581316 -68.114698 
L 360.404979 -69.119262 
L 364.228643 -70.223197 
L 368.052307 -71.434927 
L 371.875971 -72.763294 
L 375.699635 -74.220069 
L 379.523298 -75.822739 
L 383.346962 -77.596287 
L 387.170626 -79.572891 
L 390.99429 -81.789154 
L 394.817953 -84.281411 
L 398.641617 -87.080324 
L 402.465281 -90.206199 
L 406.288945 -93.666303 
L 410.112608 -97.455024 
L 413.936272 -101.557114 
L 417.759936 -105.953513 
L 421.5836 -110.62837 
L 425.407264 -115.575188 
L 429.230927 -120.799976 
L 433.054591 -126.320124 
L 436.878255 -132.15931 
L 440.701919 -138.340249 
L 444.525582 -144.877676 
L 448.349246 -151.773209 
L 452.17291 -159.012236 
L 455.996574 -166.561912 
L 459.820238 -174.369639 
L 463.643901 -182.362941 
L 467.467565 -190.453012 
L 471.291229 -198.54375 
L 475.114893 -206.545315 
L 478.938556 -214.38742 
L 482.76222 -222.02544 
L 486.585884 -229.434239 
L 490.409548 -236.590182 
L 494.233212 -243.448424 
L 498.056875 -249.926342 
L 501.880539 -255.902243 
L 505.704203 -261.231863 
L 509.527867 -265.776952 
L 513.35153 -269.434793 
L 517.175194 -272.157464 
L 520.998858 -273.954699 
L 524.822522 -274.881439 
L 528.646185 -275.017052 
L 532.469849 -274.445247 
L 536.293513 -273.24168 
L 540.117177 -271.471727 
L 543.940841 -269.196142 
L 547.764504 -266.479385 
L 551.588168 -263.395194 
L 555.411832 -260.026255 
L 559.235496 -256.458325 
L 563.059159 -252.772218 
L 566.882823 -249.038133 
L 570.706487 -245.315523 
L 574.530151 -241.658641 
L 578.353815 -238.124766 
L 582.177478 -234.780525 
L 586.001142 -231.702585 
L 589.824806 -228.971729 
L 593.64847 -226.662605 
L 597.472133 -224.833468 
L 601.295797 -223.520038 
L 605.119461 -222.735546 
L 608.943125 -222.476143 
L 612.766788 -222.728686 
L 616.590452 -223.477307 
L 620.414116 -224.706123 
L 624.23778 -226.397282 
L 628.061444 -228.525435 
L 631.885107 -231.050921 
L 635.708771 -233.914333 
L 639.532435 -237.034629 
L 643.356099 -240.311875 
L 647.179762 -243.63425 
L 651.003426 -246.887622 
L 654.82709 -249.965162 
L 658.650754 -252.774512 
L 662.474418 -255.240994 
L 666.298081 -257.306764 
L 670.121745 -258.927207 
L 673.945409 -260.066536 
L 677.769073 -260.694345 
L 681.592736 -260.783991 
L 685.4164 -260.312671 
L 689.240064 -259.262382 
L 693.063728 -257.620817 
L 696.887392 -255.381643 
L 700.711055 -252.544175 
L 704.534719 -249.112905 
L 708.358383 -245.09752 
L 712.182047 -240.513828 
L 716.00571 -235.385555 
L 719.829374 -229.746442 
L 723.653038 -223.641778 
L 727.476702 -217.128495 
L 731.300365 -210.273423 
L 735.124029 -203.149927 
L 738.947693 -195.833749 
L 742.771357 -188.399101 
L 746.595021 -180.915864 
L 750.418684 -173.448242 
L 754.242348 -166.054642 
L 758.066012 -158.788164 
L 761.889676 -151.69703 
L 765.713339 -144.824439 
L 769.537003 -138.207706 
L 773.360667 -131.876936 
L 777.184331 -125.853741 
L 781.007995 -120.150699 
L 784.831658 -114.77206 
L 788.655322 -109.715853 
L 792.478986 -104.976963 
L 796.30265 -100.550253 
L 800.126313 -96.432676 
L 803.949977 -92.623628 
L 807.773641 -89.123517 
L 811.597305 -85.931203 
L 815.420968 -83.041405 
L 819.244632 -80.44304 
L 823.068296 -78.118995 
L 826.89196 -76.047204 
L 830.715624 -74.202503 
L 834.539287 -72.558604 
L 838.362951 -71.089735 
L 842.186615 -69.771752 
L 846.010279 -68.582797 
L 849.833942 -67.50368 
L 853.657606 -66.518152 
L 857.48127 -65.613144 
L 861.304934 -64.778944 
L 865.128598 -64.009236 
L 868.952261 -63.300872 
L 872.775925 -62.653344 
L 876.599589 -62.067946 
L 880.423253 -61.546737 
L 884.246916 -61.091466 
L 888.07058 -60.702633 
L 891.894244 -60.378855 
L 895.717908 -60.116619 
L 899.541571 -59.910435 
L 903.365235 -59.753307 
L 907.188899 -59.63739 
L 911.012563 -59.554694 
L 914.836227 -59.497686 
L 918.65989 -59.459736 
L 922.483554 -59.435353 
L 926.307218 -59.420238 
L 930.130882 -59.411202 
L 933.954545 -59.405992 
L 933.954545 -59.406137 
L 933.954545 -59.406137 
L 930.130882 -59.411579 
L 926.307218 -59.421169 
L 922.483554 -59.437522 
L 918.65989 -59.464511 
L 914.836227 -59.507617 
L 911.012563 -59.574207 
L 907.188899 -59.673613 
L 903.365235 -59.816828 
L 899.541571 -60.015672 
L 895.717908 -60.281328 
L 891.894244 -60.622395 
L 888.07058 -61.042826 
L 884.246916 -61.540402 
L 880.423253 -62.106429 
L 876.599589 -62.727157 
L 872.775925 -63.38688 
L 868.952261 -64.072076 
L 865.128598 -64.775441 
L 861.304934 -65.498643 
L 857.48127 -66.253036 
L 853.657606 -67.058366 
L 849.833942 -67.940188 
L 846.010279 -68.927097 
L 842.186615 -70.048719 
L 838.362951 -71.334902 
L 834.539287 -72.81587 
L 830.715624 -74.522683 
L 826.89196 -76.487214 
L 823.068296 -78.741093 
L 819.244632 -81.313555 
L 815.420968 -84.228647 
L 811.597305 -87.502675 
L 807.773641 -91.142837 
L 803.949977 -95.147793 
L 800.126313 -99.510267 
L 796.30265 -104.221048 
L 792.478986 -109.273133 
L 788.655322 -114.664583 
L 784.831658 -120.399047 
L 781.007995 -126.48382 
L 777.184331 -132.926211 
L 773.360667 -139.729645 
L 769.537003 -146.890857 
L 765.713339 -154.398957 
L 761.889676 -162.236189 
L 758.066012 -170.37949 
L 754.242348 -178.801607 
L 750.418684 -187.470792 
L 746.595021 -196.348792 
L 742.771357 -205.387659 
L 738.947693 -214.526634 
L 735.124029 -223.690623 
L 731.300365 -232.791441 
L 727.476702 -241.732289 
L 723.653038 -250.414847 
L 719.829374 -258.747626 
L 716.00571 -266.65383 
L 712.182047 -274.077346 
L 708.358383 -280.986125 
L 704.534719 -287.373036 
L 700.711055 -293.254731 
L 696.887392 -298.66911 
L 693.063728 -303.671638 
L 689.240064 -308.330358 
L 685.4164 -312.719336 
L 681.592736 -316.910618 
L 677.769073 -320.965705 
L 673.945409 -324.928552 
L 670.121745 -328.822725 
L 666.298081 -332.654822 
L 662.474418 -336.424492 
L 658.650754 -340.13879 
L 654.82709 -343.826329 
L 651.003426 -347.54598 
L 647.179762 -351.386299 
L 643.356099 -355.454986 
L 639.532435 -359.861161 
L 635.708771 -364.695497 
L 631.885107 -370.013498 
L 628.061444 -375.82559 
L 624.23778 -382.095152 
L 620.414116 -388.74345 
L 616.590452 -395.659181 
L 612.766788 -402.710152 
L 608.943125 -409.754987 
L 605.119461 -416.653365 
L 601.295797 -423.273747 
L 597.472133 -429.498142 
L 593.64847 -435.223977 
L 589.824806 -440.363701 
L 586.001142 -444.843062 
L 582.177478 -448.59891 
L 578.353815 -451.57707 
L 574.530151 -453.730417 
L 570.706487 -455.017223 
L 566.882823 -455.4 
L 563.059159 -454.845373 
L 559.235496 -453.325503 
L 555.411832 -450.821095 
L 551.588168 -447.325145 
L 547.764504 -442.845765 
L 543.940841 -437.406244 
L 540.117177 -431.041259 
L 536.293513 -423.789726 
L 532.469849 -415.686503 
L 528.646185 -406.75639 
L 524.822522 -397.013924 
L 520.998858 -386.471094 
L 517.175194 -375.1524 
L 513.35153 -363.113333 
L 509.527867 -350.455513 
L 505.704203 -337.331059 
L 501.880539 -323.931352 
L 498.056875 -310.460999 
L 494.233212 -297.104395 
L 490.409548 -283.996561 
L 486.585884 -271.209198 
L 482.76222 -258.756966 
L 478.938556 -246.620391 
L 475.114893 -234.775049 
L 471.291229 -223.215061 
L 467.467565 -211.963149 
L 463.643901 -201.066686 
L 459.820238 -190.585215 
L 455.996574 -180.576853 
L 452.17291 -171.088734 
L 448.349246 -162.152542 
L 444.525582 -153.783255 
L 440.701919 -145.978866 
L 436.878255 -138.720541 
L 433.054591 -131.97435 
L 429.230927 -125.69599 
L 425.407264 -119.838462 
L 421.5836 -114.360776 
L 417.759936 -109.23473 
L 413.936272 -104.447454 
L 410.112608 -99.999202 
L 406.288945 -95.897744 
L 402.465281 -92.151666 
L 398.641617 -88.764672 
L 394.817953 -85.732007 
L 390.99429 -83.039127 
L 387.170626 -80.662159 
L 383.346962 -78.569616 
L 379.523298 -76.724886 
L 375.699635 -75.089151 
L 371.875971 -73.624377 
L 368.052307 -72.296043 
L 364.228643 -71.07534 
L 360.404979 -69.94062 
L 356.581316 -68.878011 
L 352.757652 -67.881131 
L 348.933988 -66.950006 
L 345.110324 -66.089359 
L 341.286661 -65.306568 
L 337.462997 -64.609519 
L 333.639333 -64.004463 
L 329.815669 -63.493914 
L 325.992005 -63.074724 
L 322.168342 -62.736791 
L 318.344678 -62.463095 
L 314.521014 -62.231729 
L 310.69735 -62.020028 
L 306.873687 -61.809967 
L 303.050023 -61.593127 
L 299.226359 -61.373318 
L 295.402695 -61.165544 
L 291.579032 -60.991401 
L 287.755368 -60.872448 
L 283.931704 -60.823962 
L 280.10804 -60.851296 
L 276.284376 -60.949992 
L 272.460713 -61.109199 
L 268.637049 -61.316741 
L 264.813385 -61.56368 
L 260.989721 -61.846678 
L 257.166058 -62.16746 
L 253.342394 -62.529866 
L 249.51873 -62.935632 
L 245.695066 -63.380265 
L 241.871402 -63.850057 
L 238.047739 -64.320878 
L 234.224075 -64.759061 
L 230.400411 -65.124484 
L 226.576747 -65.375682 
L 222.753084 -65.476418 
L 218.92942 -65.402542 
L 215.105756 -65.147495 
L 211.282092 -64.724877 
L 207.458429 -64.167062 
L 203.634765 -63.52003 
L 199.811101 -62.835669 
L 195.987437 -62.163552 
L 192.163773 -61.544161 
L 188.34011 -61.004886 
L 184.516446 -60.559147 
L 180.692782 -60.20811 
L 176.869118 -59.943961 
L 173.045455 -59.753617 
z
" style="stroke: #000000"/>
    </defs>
    <g clip-path="url(#pe1cedac310)">
     <use xlink:href="#mbaf46c93e8" x="0" y="540" style="fill: #1f77b4; fill-opacity: 0.75; stroke: #000000"/>
    </g>
   </g>
   <g id="matplotlib.axis_1">
    <g id="xtick_1">
     <g id="line2d_1">
      <defs>
       <path id="m381433441c" d="M 0 0 
L 0 3.5 
" style="stroke: #000000; stroke-width: 0.8"/>
      </defs>
      <g>
       <use xlink:href="#m381433441c" x="332.624573" y="480.6" style="stroke: #000000; stroke-width: 0.8"/>
      </g>
     </g>
     <g id="text_1">
      <!-- 1 -->
      <g transform="translate(329.443323 495.198438) scale(0.1 -0.1)">
       <defs>
        <path id="DejaVuSans-31" d="M 794 531 
L 1825 531 
L 1825 4091 
L 703 3866 
L 703 4441 
L 1819 4666 
L 2450 4666 
L 2450 531 
L 3481 531 
L 3481 0 
L 794 0 
L 794 531 
z
" transform="scale(0.015625)"/>
       </defs>
       <use xlink:href="#DejaVuSans-31"/>
      </g>
     </g>
    </g>
    <g id="xtick_2">
     <g id="line2d_2">
      <g>
       <use xlink:href="#m381433441c" x="391.178639" y="480.6" style="stroke: #000000; stroke-width: 0.8"/>
      </g>
     </g>
     <g id="text_2">
      <!-- 2 -->
      <g transform="translate(387.997389 495.198438) scale(0.1 -0.1)">
       <defs>
        <path id="DejaVuSans-32" d="M 1228 531 
L 3431 531 
L 3431 0 
L 469 0 
L 469 531 
Q 828 903 1448 1529 
Q 2069 2156 2228 2338 
Q 2531 2678 2651 2914 
Q 2772 3150 2772 3378 
Q 2772 3750 2511 3984 
Q 2250 4219 1831 4219 
Q 1534 4219 1204 4116 
Q 875 4013 500 3803 
L 500 4441 
Q 881 4594 1212 4672 
Q 1544 4750 1819 4750 
Q 2544 4750 2975 4387 
Q 3406 4025 3406 3419 
Q 3406 3131 3298 2873 
Q 3191 2616 2906 2266 
Q 2828 2175 2409 1742 
Q 1991 1309 1228 531 
z
" transform="scale(0.015625)"/>
       </defs>
       <use xlink:href="#DejaVuSans-32"/>
      </g>
     </g>
    </g>
    <g id="xtick_3">
     <g id="line2d_3">
      <g>
       <use xlink:href="#m381433441c" x="468.582904" y="480.6" style="stroke: #000000; stroke-width: 0.8"/>
      </g>
     </g>
     <g id="text_3">
      <!-- 5 -->
      <g transform="translate(465.401654 495.198438) scale(0.1 -0.1)">
       <defs>
        <path id="DejaVuSans-35" d="M 691 4666 
L 3169 4666 
L 3169 4134 
L 1269 4134 
L 1269 2991 
Q 1406 3038 1543 3061 
Q 1681 3084 1819 3084 
Q 2600 3084 3056 2656 
Q 3513 2228 3513 1497 
Q 3513 744 3044 326 
Q 2575 -91 1722 -91 
Q 1428 -91 1123 -41 
Q 819 9 494 109 
L 494 744 
Q 775 591 1075 516 
Q 1375 441 1709 441 
Q 2250 441 2565 725 
Q 2881 1009 2881 1497 
Q 2881 1984 2565 2268 
Q 2250 2553 1709 2553 
Q 1456 2553 1204 2497 
Q 953 2441 691 2322 
L 691 4666 
z
" transform="scale(0.015625)"/>
       </defs>
       <use xlink:href="#DejaVuSans-35"/>
      </g>
     </g>
    </g>
    <g id="xtick_4">
     <g id="line2d_4">
      <g>
       <use xlink:href="#m381433441c" x="527.136971" y="480.6" style="stroke: #000000; stroke-width: 0.8"/>
      </g>
     </g>
     <g id="text_4">
      <!-- 10 -->
      <g transform="translate(520.774471 495.198438) scale(0.1 -0.1)">
       <defs>
        <path id="DejaVuSans-30" d="M 2034 4250 
Q 1547 4250 1301 3770 
Q 1056 3291 1056 2328 
Q 1056 1369 1301 889 
Q 1547 409 2034 409 
Q 2525 409 2770 889 
Q 3016 1369 3016 2328 
Q 3016 3291 2770 3770 
Q 2525 4250 2034 4250 
z
M 2034 4750 
Q 2819 4750 3233 4129 
Q 3647 3509 3647 2328 
Q 3647 1150 3233 529 
Q 2819 -91 2034 -91 
Q 1250 -91 836 529 
Q 422 1150 422 2328 
Q 422 3509 836 4129 
Q 1250 4750 2034 4750 
z
" transform="scale(0.015625)"/>
       </defs>
       <use xlink:href="#DejaVuSans-31"/>
       <use xlink:href="#DejaVuSans-30" transform="translate(63.623047 0)"/>
      </g>
     </g>
    </g>
    <g id="xtick_5">
     <g id="line2d_5">
      <g>
       <use xlink:href="#m381433441c" x="585.691037" y="480.6" style="stroke: #000000; stroke-width: 0.8"/>
      </g>
     </g>
     <g id="text_5">
      <!-- 20 -->
      <g transform="translate(579.328537 495.198438) scale(0.1 -0.1)">
       <use xlink:href="#DejaVuSans-32"/>
       <use xlink:href="#DejaVuSans-30" transform="translate(63.623047 0)"/>
      </g>
     </g>
    </g>
    <g id="xtick_6">
     <g id="line2d_6">
      <g>
       <use xlink:href="#m381433441c" x="663.095302" y="480.6" style="stroke: #000000; stroke-width: 0.8"/>
      </g>
     </g>
     <g id="text_6">
      <!-- 50 -->
      <g transform="translate(656.732802 495.198438) scale(0.1 -0.1)">
       <use xlink:href="#DejaVuSans-35"/>
       <use xlink:href="#DejaVuSans-30" transform="translate(63.623047 0)"/>
      </g>
     </g>
    </g>
    <g id="xtick_7">
     <g id="line2d_7">
      <g>
       <use xlink:href="#m381433441c" x="721.649368" y="480.6" style="stroke: #000000; stroke-width: 0.8"/>
      </g>
     </g>
     <g id="text_7">
      <!-- 100 -->
      <g transform="translate(712.105618 495.198438) scale(0.1 -0.1)">
       <use xlink:href="#DejaVuSans-31"/>
       <use xlink:href="#DejaVuSans-30" transform="translate(63.623047 0)"/>
       <use xlink:href="#DejaVuSans-30" transform="translate(127.246094 0)"/>
      </g>
     </g>
    </g>
    <g id="xtick_8">
     <g id="line2d_8">
      <g>
       <use xlink:href="#m381433441c" x="780.203435" y="480.6" style="stroke: #000000; stroke-width: 0.8"/>
      </g>
     </g>
     <g id="text_8">
      <!-- 200 -->
      <g transform="translate(770.659685 495.198438) scale(0.1 -0.1)">
       <use xlink:href="#DejaVuSans-32"/>
       <use xlink:href="#DejaVuSans-30" transform="translate(63.623047 0)"/>
       <use xlink:href="#DejaVuSans-30" transform="translate(127.246094 0)"/>
      </g>
     </g>
    </g>
    <g id="xtick_9">
     <g id="line2d_9">
      <g>
       <use xlink:href="#m381433441c" x="857.6077" y="480.6" style="stroke: #000000; stroke-width: 0.8"/>
      </g>
     </g>
     <g id="text_9">
      <!-- 500 -->
      <g transform="translate(848.06395 495.198438) scale(0.1 -0.1)">
       <use xlink:href="#DejaVuSans-35"/>
       <use xlink:href="#DejaVuSans-30" transform="translate(63.623047 0)"/>
       <use xlink:href="#DejaVuSans-30" transform="translate(127.246094 0)"/>
      </g>
     </g>
    </g>
    <g id="xtick_10">
     <g id="line2d_10">
      <g>
       <use xlink:href="#m381433441c" x="916.161766" y="480.6" style="stroke: #000000; stroke-width: 0.8"/>
      </g>
     </g>
     <g id="text_10">
      <!-- 1000 -->
      <g transform="translate(903.436766 495.198438) scale(0.1 -0.1)">
       <use xlink:href="#DejaVuSans-31"/>
       <use xlink:href="#DejaVuSans-30" transform="translate(63.623047 0)"/>
       <use xlink:href="#DejaVuSans-30" transform="translate(127.246094 0)"/>
       <use xlink:href="#DejaVuSans-30" transform="translate(190.869141 0)"/>
      </g>
     </g>
    </g>
    <g id="xtick_11">
     <g id="line2d_11">
      <defs>
       <path id="m2a4b1f8055" d="M 0 0 
L 0 2 
" style="stroke: #000000; stroke-width: 0.6"/>
      </defs>
      <g>
       <use xlink:href="#m2a4b1f8055" x="196.666241" y="480.6" style="stroke: #000000; stroke-width: 0.6"/>
      </g>
     </g>
    </g>
    <g id="xtick_12">
     <g id="line2d_12">
      <g>
       <use xlink:href="#m2a4b1f8055" x="230.918174" y="480.6" style="stroke: #000000; stroke-width: 0.6"/>
      </g>
     </g>
    </g>
    <g id="xtick_13">
     <g id="line2d_13">
      <g>
       <use xlink:href="#m2a4b1f8055" x="255.220308" y="480.6" style="stroke: #000000; stroke-width: 0.6"/>
      </g>
     </g>
    </g>
    <g id="xtick_14">
     <g id="line2d_14">
      <g>
       <use xlink:href="#m2a4b1f8055" x="274.070507" y="480.6" style="stroke: #000000; stroke-width: 0.6"/>
      </g>
     </g>
    </g>
    <g id="xtick_15">
     <g id="line2d_15">
      <g>
       <use xlink:href="#m2a4b1f8055" x="289.472241" y="480.6" style="stroke: #000000; stroke-width: 0.6"/>
      </g>
     </g>
    </g>
    <g id="xtick_16">
     <g id="line2d_16">
      <g>
       <use xlink:href="#m2a4b1f8055" x="302.494221" y="480.6" style="stroke: #000000; stroke-width: 0.6"/>
      </g>
     </g>
    </g>
    <g id="xtick_17">
     <g id="line2d_17">
      <g>
       <use xlink:href="#m2a4b1f8055" x="313.774374" y="480.6" style="stroke: #000000; stroke-width: 0.6"/>
      </g>
     </g>
    </g>
    <g id="xtick_18">
     <g id="line2d_18">
      <g>
       <use xlink:href="#m2a4b1f8055" x="323.724174" y="480.6" style="stroke: #000000; stroke-width: 0.6"/>
      </g>
     </g>
    </g>
    <g id="xtick_19">
     <g id="line2d_19">
      <g>
       <use xlink:href="#m2a4b1f8055" x="425.430572" y="480.6" style="stroke: #000000; stroke-width: 0.6"/>
      </g>
     </g>
    </g>
    <g id="xtick_20">
     <g id="line2d_20">
      <g>
       <use xlink:href="#m2a4b1f8055" x="449.732705" y="480.6" style="stroke: #000000; stroke-width: 0.6"/>
      </g>
     </g>
    </g>
    <g id="xtick_21">
     <g id="line2d_21">
      <g>
       <use xlink:href="#m2a4b1f8055" x="483.984638" y="480.6" style="stroke: #000000; stroke-width: 0.6"/>
      </g>
     </g>
    </g>
    <g id="xtick_22">
     <g id="line2d_22">
      <g>
       <use xlink:href="#m2a4b1f8055" x="497.006619" y="480.6" style="stroke: #000000; stroke-width: 0.6"/>
      </g>
     </g>
    </g>
    <g id="xtick_23">
     <g id="line2d_23">
      <g>
       <use xlink:href="#m2a4b1f8055" x="508.286772" y="480.6" style="stroke: #000000; stroke-width: 0.6"/>
      </g>
     </g>
    </g>
    <g id="xtick_24">
     <g id="line2d_24">
      <g>
       <use xlink:href="#m2a4b1f8055" x="518.236571" y="480.6" style="stroke: #000000; stroke-width: 0.6"/>
      </g>
     </g>
    </g>
    <g id="xtick_25">
     <g id="line2d_25">
      <g>
       <use xlink:href="#m2a4b1f8055" x="619.94297" y="480.6" style="stroke: #000000; stroke-width: 0.6"/>
      </g>
     </g>
    </g>
    <g id="xtick_26">
     <g id="line2d_26">
      <g>
       <use xlink:href="#m2a4b1f8055" x="644.245103" y="480.6" style="stroke: #000000; stroke-width: 0.6"/>
      </g>
     </g>
    </g>
    <g id="xtick_27">
     <g id="line2d_27">
      <g>
       <use xlink:href="#m2a4b1f8055" x="678.497036" y="480.6" style="stroke: #000000; stroke-width: 0.6"/>
      </g>
     </g>
    </g>
    <g id="xtick_28">
     <g id="line2d_28">
      <g>
       <use xlink:href="#m2a4b1f8055" x="691.519017" y="480.6" style="stroke: #000000; stroke-width: 0.6"/>
      </g>
     </g>
    </g>
    <g id="xtick_29">
     <g id="line2d_29">
      <g>
       <use xlink:href="#m2a4b1f8055" x="702.799169" y="480.6" style="stroke: #000000; stroke-width: 0.6"/>
      </g>
     </g>
    </g>
    <g id="xtick_30">
     <g id="line2d_30">
      <g>
       <use xlink:href="#m2a4b1f8055" x="712.748969" y="480.6" style="stroke: #000000; stroke-width: 0.6"/>
      </g>
     </g>
    </g>
    <g id="xtick_31">
     <g id="line2d_31">
      <g>
       <use xlink:href="#m2a4b1f8055" x="814.455368" y="480.6" style="stroke: #000000; stroke-width: 0.6"/>
      </g>
     </g>
    </g>
    <g id="xtick_32">
     <g id="line2d_32">
      <g>
       <use xlink:href="#m2a4b1f8055" x="838.757501" y="480.6" style="stroke: #000000; stroke-width: 0.6"/>
      </g>
     </g>
    </g>
    <g id="xtick_33">
     <g id="line2d_33">
      <g>
       <use xlink:href="#m2a4b1f8055" x="873.009434" y="480.6" style="stroke: #000000; stroke-width: 0.6"/>
      </g>
     </g>
    </g>
    <g id="xtick_34">
     <g id="line2d_34">
      <g>
       <use xlink:href="#m2a4b1f8055" x="886.031415" y="480.6" style="stroke: #000000; stroke-width: 0.6"/>
      </g>
     </g>
    </g>
    <g id="xtick_35">
     <g id="line2d_35">
      <g>
       <use xlink:href="#m2a4b1f8055" x="897.311567" y="480.6" style="stroke: #000000; stroke-width: 0.6"/>
      </g>
     </g>
    </g>
    <g id="xtick_36">
     <g id="line2d_36">
      <g>
       <use xlink:href="#m2a4b1f8055" x="907.261367" y="480.6" style="stroke: #000000; stroke-width: 0.6"/>
      </g>
     </g>
    </g>
    <g id="text_11">
     <!-- avg -->
     <g transform="translate(544.302344 508.876563) scale(0.1 -0.1)">
      <defs>
       <path id="DejaVuSans-61" d="M 2194 1759 
Q 1497 1759 1228 1600 
Q 959 1441 959 1056 
Q 959 750 1161 570 
Q 1363 391 1709 391 
Q 2188 391 2477 730 
Q 2766 1069 2766 1631 
L 2766 1759 
L 2194 1759 
z
M 3341 1997 
L 3341 0 
L 2766 0 
L 2766 531 
Q 2569 213 2275 61 
Q 1981 -91 1556 -91 
Q 1019 -91 701 211 
Q 384 513 384 1019 
Q 384 1609 779 1909 
Q 1175 2209 1959 2209 
L 2766 2209 
L 2766 2266 
Q 2766 2663 2505 2880 
Q 2244 3097 1772 3097 
Q 1472 3097 1187 3025 
Q 903 2953 641 2809 
L 641 3341 
Q 956 3463 1253 3523 
Q 1550 3584 1831 3584 
Q 2591 3584 2966 3190 
Q 3341 2797 3341 1997 
z
" transform="scale(0.015625)"/>
       <path id="DejaVuSans-76" d="M 191 3500 
L 800 3500 
L 1894 563 
L 2988 3500 
L 3597 3500 
L 2284 0 
L 1503 0 
L 191 3500 
z
" transform="scale(0.015625)"/>
       <path id="DejaVuSans-67" d="M 2906 1791 
Q 2906 2416 2648 2759 
Q 2391 3103 1925 3103 
Q 1463 3103 1205 2759 
Q 947 2416 947 1791 
Q 947 1169 1205 825 
Q 1463 481 1925 481 
Q 2391 481 2648 825 
Q 2906 1169 2906 1791 
z
M 3481 434 
Q 3481 -459 3084 -895 
Q 2688 -1331 1869 -1331 
Q 1566 -1331 1297 -1286 
Q 1028 -1241 775 -1147 
L 775 -588 
Q 1028 -725 1275 -790 
Q 1522 -856 1778 -856 
Q 2344 -856 2625 -561 
Q 2906 -266 2906 331 
L 2906 616 
Q 2728 306 2450 153 
Q 2172 0 1784 0 
Q 1141 0 747 490 
Q 353 981 353 1791 
Q 353 2603 747 3093 
Q 1141 3584 1784 3584 
Q 2172 3584 2450 3431 
Q 2728 3278 2906 2969 
L 2906 3500 
L 3481 3500 
L 3481 434 
z
" transform="scale(0.015625)"/>
      </defs>
      <use xlink:href="#DejaVuSans-61"/>
      <use xlink:href="#DejaVuSans-76" transform="translate(61.279297 0)"/>
      <use xlink:href="#DejaVuSans-67" transform="translate(120.458984 0)"/>
     </g>
    </g>
   </g>
   <g id="matplotlib.axis_2">
    <g id="ytick_1">
     <g id="line2d_37">
      <defs>
       <path id="m367fecb758" d="M 0 0 
L -3.5 0 
" style="stroke: #000000; stroke-width: 0.8"/>
      </defs>
      <g>
       <use xlink:href="#m367fecb758" x="135" y="480.6" style="stroke: #000000; stroke-width: 0.8"/>
      </g>
     </g>
     <g id="text_12">
      <!-- 0.000 -->
      <g transform="translate(99.371875 484.399219) scale(0.1 -0.1)">
       <defs>
        <path id="DejaVuSans-2e" d="M 684 794 
L 1344 794 
L 1344 0 
L 684 0 
L 684 794 
z
" transform="scale(0.015625)"/>
       </defs>
       <use xlink:href="#DejaVuSans-30"/>
       <use xlink:href="#DejaVuSans-2e" transform="translate(63.623047 0)"/>
       <use xlink:href="#DejaVuSans-30" transform="translate(95.410156 0)"/>
       <use xlink:href="#DejaVuSans-30" transform="translate(159.033203 0)"/>
       <use xlink:href="#DejaVuSans-30" transform="translate(222.65625 0)"/>
      </g>
     </g>
    </g>
    <g id="ytick_2">
     <g id="line2d_38">
      <g>
       <use xlink:href="#m367fecb758" x="135" y="410.861144" style="stroke: #000000; stroke-width: 0.8"/>
      </g>
     </g>
     <g id="text_13">
      <!-- 0.002 -->
      <g transform="translate(99.371875 414.660363) scale(0.1 -0.1)">
       <use xlink:href="#DejaVuSans-30"/>
       <use xlink:href="#DejaVuSans-2e" transform="translate(63.623047 0)"/>
       <use xlink:href="#DejaVuSans-30" transform="translate(95.410156 0)"/>
       <use xlink:href="#DejaVuSans-30" transform="translate(159.033203 0)"/>
       <use xlink:href="#DejaVuSans-32" transform="translate(222.65625 0)"/>
      </g>
     </g>
    </g>
    <g id="ytick_3">
     <g id="line2d_39">
      <g>
       <use xlink:href="#m367fecb758" x="135" y="341.122288" style="stroke: #000000; stroke-width: 0.8"/>
      </g>
     </g>
     <g id="text_14">
      <!-- 0.004 -->
      <g transform="translate(99.371875 344.921507) scale(0.1 -0.1)">
       <defs>
        <path id="DejaVuSans-34" d="M 2419 4116 
L 825 1625 
L 2419 1625 
L 2419 4116 
z
M 2253 4666 
L 3047 4666 
L 3047 1625 
L 3713 1625 
L 3713 1100 
L 3047 1100 
L 3047 0 
L 2419 0 
L 2419 1100 
L 313 1100 
L 313 1709 
L 2253 4666 
z
" transform="scale(0.015625)"/>
       </defs>
       <use xlink:href="#DejaVuSans-30"/>
       <use xlink:href="#DejaVuSans-2e" transform="translate(63.623047 0)"/>
       <use xlink:href="#DejaVuSans-30" transform="translate(95.410156 0)"/>
       <use xlink:href="#DejaVuSans-30" transform="translate(159.033203 0)"/>
       <use xlink:href="#DejaVuSans-34" transform="translate(222.65625 0)"/>
      </g>
     </g>
    </g>
    <g id="ytick_4">
     <g id="line2d_40">
      <g>
       <use xlink:href="#m367fecb758" x="135" y="271.383432" style="stroke: #000000; stroke-width: 0.8"/>
      </g>
     </g>
     <g id="text_15">
      <!-- 0.006 -->
      <g transform="translate(99.371875 275.182651) scale(0.1 -0.1)">
       <defs>
        <path id="DejaVuSans-36" d="M 2113 2584 
Q 1688 2584 1439 2293 
Q 1191 2003 1191 1497 
Q 1191 994 1439 701 
Q 1688 409 2113 409 
Q 2538 409 2786 701 
Q 3034 994 3034 1497 
Q 3034 2003 2786 2293 
Q 2538 2584 2113 2584 
z
M 3366 4563 
L 3366 3988 
Q 3128 4100 2886 4159 
Q 2644 4219 2406 4219 
Q 1781 4219 1451 3797 
Q 1122 3375 1075 2522 
Q 1259 2794 1537 2939 
Q 1816 3084 2150 3084 
Q 2853 3084 3261 2657 
Q 3669 2231 3669 1497 
Q 3669 778 3244 343 
Q 2819 -91 2113 -91 
Q 1303 -91 875 529 
Q 447 1150 447 2328 
Q 447 3434 972 4092 
Q 1497 4750 2381 4750 
Q 2619 4750 2861 4703 
Q 3103 4656 3366 4563 
z
" transform="scale(0.015625)"/>
       </defs>
       <use xlink:href="#DejaVuSans-30"/>
       <use xlink:href="#DejaVuSans-2e" transform="translate(63.623047 0)"/>
       <use xlink:href="#DejaVuSans-30" transform="translate(95.410156 0)"/>
       <use xlink:href="#DejaVuSans-30" transform="translate(159.033203 0)"/>
       <use xlink:href="#DejaVuSans-36" transform="translate(222.65625 0)"/>
      </g>
     </g>
    </g>
    <g id="ytick_5">
     <g id="line2d_41">
      <g>
       <use xlink:href="#m367fecb758" x="135" y="201.644577" style="stroke: #000000; stroke-width: 0.8"/>
      </g>
     </g>
     <g id="text_16">
      <!-- 0.008 -->
      <g transform="translate(99.371875 205.443795) scale(0.1 -0.1)">
       <defs>
        <path id="DejaVuSans-38" d="M 2034 2216 
Q 1584 2216 1326 1975 
Q 1069 1734 1069 1313 
Q 1069 891 1326 650 
Q 1584 409 2034 409 
Q 2484 409 2743 651 
Q 3003 894 3003 1313 
Q 3003 1734 2745 1975 
Q 2488 2216 2034 2216 
z
M 1403 2484 
Q 997 2584 770 2862 
Q 544 3141 544 3541 
Q 544 4100 942 4425 
Q 1341 4750 2034 4750 
Q 2731 4750 3128 4425 
Q 3525 4100 3525 3541 
Q 3525 3141 3298 2862 
Q 3072 2584 2669 2484 
Q 3125 2378 3379 2068 
Q 3634 1759 3634 1313 
Q 3634 634 3220 271 
Q 2806 -91 2034 -91 
Q 1263 -91 848 271 
Q 434 634 434 1313 
Q 434 1759 690 2068 
Q 947 2378 1403 2484 
z
M 1172 3481 
Q 1172 3119 1398 2916 
Q 1625 2713 2034 2713 
Q 2441 2713 2670 2916 
Q 2900 3119 2900 3481 
Q 2900 3844 2670 4047 
Q 2441 4250 2034 4250 
Q 1625 4250 1398 4047 
Q 1172 3844 1172 3481 
z
" transform="scale(0.015625)"/>
       </defs>
       <use xlink:href="#DejaVuSans-30"/>
       <use xlink:href="#DejaVuSans-2e" transform="translate(63.623047 0)"/>
       <use xlink:href="#DejaVuSans-30" transform="translate(95.410156 0)"/>
       <use xlink:href="#DejaVuSans-30" transform="translate(159.033203 0)"/>
       <use xlink:href="#DejaVuSans-38" transform="translate(222.65625 0)"/>
      </g>
     </g>
    </g>
    <g id="ytick_6">
     <g id="line2d_42">
      <g>
       <use xlink:href="#m367fecb758" x="135" y="131.905721" style="stroke: #000000; stroke-width: 0.8"/>
      </g>
     </g>
     <g id="text_17">
      <!-- 0.010 -->
      <g transform="translate(99.371875 135.704939) scale(0.1 -0.1)">
       <use xlink:href="#DejaVuSans-30"/>
       <use xlink:href="#DejaVuSans-2e" transform="translate(63.623047 0)"/>
       <use xlink:href="#DejaVuSans-30" transform="translate(95.410156 0)"/>
       <use xlink:href="#DejaVuSans-31" transform="translate(159.033203 0)"/>
       <use xlink:href="#DejaVuSans-30" transform="translate(222.65625 0)"/>
      </g>
     </g>
    </g>
    <g id="text_18">
     <!-- Density -->
     <g transform="translate(93.292187 291.708594) rotate(-90) scale(0.1 -0.1)">
      <defs>
       <path id="DejaVuSans-44" d="M 1259 4147 
L 1259 519 
L 2022 519 
Q 2988 519 3436 956 
Q 3884 1394 3884 2338 
Q 3884 3275 3436 3711 
Q 2988 4147 2022 4147 
L 1259 4147 
z
M 628 4666 
L 1925 4666 
Q 3281 4666 3915 4102 
Q 4550 3538 4550 2338 
Q 4550 1131 3912 565 
Q 3275 0 1925 0 
L 628 0 
L 628 4666 
z
" transform="scale(0.015625)"/>
       <path id="DejaVuSans-65" d="M 3597 1894 
L 3597 1613 
L 953 1613 
Q 991 1019 1311 708 
Q 1631 397 2203 397 
Q 2534 397 2845 478 
Q 3156 559 3463 722 
L 3463 178 
Q 3153 47 2828 -22 
Q 2503 -91 2169 -91 
Q 1331 -91 842 396 
Q 353 884 353 1716 
Q 353 2575 817 3079 
Q 1281 3584 2069 3584 
Q 2775 3584 3186 3129 
Q 3597 2675 3597 1894 
z
M 3022 2063 
Q 3016 2534 2758 2815 
Q 2500 3097 2075 3097 
Q 1594 3097 1305 2825 
Q 1016 2553 972 2059 
L 3022 2063 
z
" transform="scale(0.015625)"/>
       <path id="DejaVuSans-6e" d="M 3513 2113 
L 3513 0 
L 2938 0 
L 2938 2094 
Q 2938 2591 2744 2837 
Q 2550 3084 2163 3084 
Q 1697 3084 1428 2787 
Q 1159 2491 1159 1978 
L 1159 0 
L 581 0 
L 581 3500 
L 1159 3500 
L 1159 2956 
Q 1366 3272 1645 3428 
Q 1925 3584 2291 3584 
Q 2894 3584 3203 3211 
Q 3513 2838 3513 2113 
z
" transform="scale(0.015625)"/>
       <path id="DejaVuSans-73" d="M 2834 3397 
L 2834 2853 
Q 2591 2978 2328 3040 
Q 2066 3103 1784 3103 
Q 1356 3103 1142 2972 
Q 928 2841 928 2578 
Q 928 2378 1081 2264 
Q 1234 2150 1697 2047 
L 1894 2003 
Q 2506 1872 2764 1633 
Q 3022 1394 3022 966 
Q 3022 478 2636 193 
Q 2250 -91 1575 -91 
Q 1294 -91 989 -36 
Q 684 19 347 128 
L 347 722 
Q 666 556 975 473 
Q 1284 391 1588 391 
Q 1994 391 2212 530 
Q 2431 669 2431 922 
Q 2431 1156 2273 1281 
Q 2116 1406 1581 1522 
L 1381 1569 
Q 847 1681 609 1914 
Q 372 2147 372 2553 
Q 372 3047 722 3315 
Q 1072 3584 1716 3584 
Q 2034 3584 2315 3537 
Q 2597 3491 2834 3397 
z
" transform="scale(0.015625)"/>
       <path id="DejaVuSans-69" d="M 603 3500 
L 1178 3500 
L 1178 0 
L 603 0 
L 603 3500 
z
M 603 4863 
L 1178 4863 
L 1178 4134 
L 603 4134 
L 603 4863 
z
" transform="scale(0.015625)"/>
       <path id="DejaVuSans-74" d="M 1172 4494 
L 1172 3500 
L 2356 3500 
L 2356 3053 
L 1172 3053 
L 1172 1153 
Q 1172 725 1289 603 
Q 1406 481 1766 481 
L 2356 481 
L 2356 0 
L 1766 0 
Q 1100 0 847 248 
Q 594 497 594 1153 
L 594 3053 
L 172 3053 
L 172 3500 
L 594 3500 
L 594 4494 
L 1172 4494 
z
" transform="scale(0.015625)"/>
       <path id="DejaVuSans-79" d="M 2059 -325 
Q 1816 -950 1584 -1140 
Q 1353 -1331 966 -1331 
L 506 -1331 
L 506 -850 
L 844 -850 
Q 1081 -850 1212 -737 
Q 1344 -625 1503 -206 
L 1606 56 
L 191 3500 
L 800 3500 
L 1894 763 
L 2988 3500 
L 3597 3500 
L 2059 -325 
z
" transform="scale(0.015625)"/>
      </defs>
      <use xlink:href="#DejaVuSans-44"/>
      <use xlink:href="#DejaVuSans-65" transform="translate(77.001953 0)"/>
      <use xlink:href="#DejaVuSans-6e" transform="translate(138.525391 0)"/>
      <use xlink:href="#DejaVuSans-73" transform="translate(201.904297 0)"/>
      <use xlink:href="#DejaVuSans-69" transform="translate(254.003906 0)"/>
      <use xlink:href="#DejaVuSans-74" transform="translate(281.787109 0)"/>
      <use xlink:href="#DejaVuSans-79" transform="translate(320.996094 0)"/>
     </g>
    </g>
   </g>
   <g id="line2d_43">
    <path d="M 397.287975 480.6 
L 397.287975 64.8 
" clip-path="url(#pe1cedac310)" style="fill: none; stroke-dasharray: 2.96,1.28; stroke-dashoffset: 0; stroke: #d3d3d3; stroke-width: 0.8"/>
   </g>
   <g id="patch_3">
    <path d="M 135 480.6 
L 135 64.8 
" style="fill: none; stroke: #000000; stroke-width: 0.8; stroke-linejoin: miter; stroke-linecap: square"/>
   </g>
   <g id="patch_4">
    <path d="M 972 480.6 
L 972 64.8 
" style="fill: none; stroke: #000000; stroke-width: 0.8; stroke-linejoin: miter; stroke-linecap: square"/>
   </g>
   <g id="patch_5">
    <path d="M 135 480.6 
L 972 480.6 
" style="fill: none; stroke: #000000; stroke-width: 0.8; stroke-linejoin: miter; stroke-linecap: square"/>
   </g>
   <g id="patch_6">
    <path d="M 135 64.8 
L 972 64.8 
" style="fill: none; stroke: #000000; stroke-width: 0.8; stroke-linejoin: miter; stroke-linecap: square"/>
   </g>
   <g id="text_19">
    <!-- International Poverty Line: $2.15 -->
    <g style="fill: #808080" transform="translate(403.366725 200.1605) rotate(-90) scale(0.08 -0.08)">
     <defs>
      <path id="DejaVuSans-49" d="M 628 4666 
L 1259 4666 
L 1259 0 
L 628 0 
L 628 4666 
z
" transform="scale(0.015625)"/>
      <path id="DejaVuSans-72" d="M 2631 2963 
Q 2534 3019 2420 3045 
Q 2306 3072 2169 3072 
Q 1681 3072 1420 2755 
Q 1159 2438 1159 1844 
L 1159 0 
L 581 0 
L 581 3500 
L 1159 3500 
L 1159 2956 
Q 1341 3275 1631 3429 
Q 1922 3584 2338 3584 
Q 2397 3584 2469 3576 
Q 2541 3569 2628 3553 
L 2631 2963 
z
" transform="scale(0.015625)"/>
      <path id="DejaVuSans-6f" d="M 1959 3097 
Q 1497 3097 1228 2736 
Q 959 2375 959 1747 
Q 959 1119 1226 758 
Q 1494 397 1959 397 
Q 2419 397 2687 759 
Q 2956 1122 2956 1747 
Q 2956 2369 2687 2733 
Q 2419 3097 1959 3097 
z
M 1959 3584 
Q 2709 3584 3137 3096 
Q 3566 2609 3566 1747 
Q 3566 888 3137 398 
Q 2709 -91 1959 -91 
Q 1206 -91 779 398 
Q 353 888 353 1747 
Q 353 2609 779 3096 
Q 1206 3584 1959 3584 
z
" transform="scale(0.015625)"/>
      <path id="DejaVuSans-6c" d="M 603 4863 
L 1178 4863 
L 1178 0 
L 603 0 
L 603 4863 
z
" transform="scale(0.015625)"/>
      <path id="DejaVuSans-20" transform="scale(0.015625)"/>
      <path id="DejaVuSans-50" d="M 1259 4147 
L 1259 2394 
L 2053 2394 
Q 2494 2394 2734 2622 
Q 2975 2850 2975 3272 
Q 2975 3691 2734 3919 
Q 2494 4147 2053 4147 
L 1259 4147 
z
M 628 4666 
L 2053 4666 
Q 2838 4666 3239 4311 
Q 3641 3956 3641 3272 
Q 3641 2581 3239 2228 
Q 2838 1875 2053 1875 
L 1259 1875 
L 1259 0 
L 628 0 
L 628 4666 
z
" transform="scale(0.015625)"/>
      <path id="DejaVuSans-4c" d="M 628 4666 
L 1259 4666 
L 1259 531 
L 3531 531 
L 3531 0 
L 628 0 
L 628 4666 
z
" transform="scale(0.015625)"/>
      <path id="DejaVuSans-3a" d="M 750 794 
L 1409 794 
L 1409 0 
L 750 0 
L 750 794 
z
M 750 3309 
L 1409 3309 
L 1409 2516 
L 750 2516 
L 750 3309 
z
" transform="scale(0.015625)"/>
      <path id="DejaVuSans-24" d="M 2163 -941 
L 1850 -941 
L 1847 0 
Q 1519 6 1191 76 
Q 863 147 531 288 
L 531 850 
Q 850 650 1176 548 
Q 1503 447 1850 444 
L 1850 1869 
Q 1159 1981 845 2250 
Q 531 2519 531 2988 
Q 531 3497 872 3790 
Q 1213 4084 1850 4128 
L 1850 4863 
L 2163 4863 
L 2163 4138 
Q 2453 4125 2725 4076 
Q 2997 4028 3256 3944 
L 3256 3397 
Q 2997 3528 2723 3600 
Q 2450 3672 2163 3684 
L 2163 2350 
Q 2872 2241 3206 1959 
Q 3541 1678 3541 1191 
Q 3541 663 3186 358 
Q 2831 53 2163 6 
L 2163 -941 
z
M 1850 2406 
L 1850 3688 
Q 1488 3647 1297 3481 
Q 1106 3316 1106 3041 
Q 1106 2772 1282 2622 
Q 1459 2472 1850 2406 
z
M 2163 1806 
L 2163 453 
Q 2559 506 2761 678 
Q 2963 850 2963 1131 
Q 2963 1406 2770 1568 
Q 2578 1731 2163 1806 
z
" transform="scale(0.015625)"/>
     </defs>
     <use xlink:href="#DejaVuSans-49"/>
     <use xlink:href="#DejaVuSans-6e" transform="translate(29.492188 0)"/>
     <use xlink:href="#DejaVuSans-74" transform="translate(92.871094 0)"/>
     <use xlink:href="#DejaVuSans-65" transform="translate(132.080078 0)"/>
     <use xlink:href="#DejaVuSans-72" transform="translate(193.603516 0)"/>
     <use xlink:href="#DejaVuSans-6e" transform="translate(232.966797 0)"/>
     <use xlink:href="#DejaVuSans-61" transform="translate(296.345703 0)"/>
     <use xlink:href="#DejaVuSans-74" transform="translate(357.625 0)"/>
     <use xlink:href="#DejaVuSans-69" transform="translate(396.833984 0)"/>
     <use xlink:href="#DejaVuSans-6f" transform="translate(424.617188 0)"/>
     <use xlink:href="#DejaVuSans-6e" transform="translate(485.798828 0)"/>
     <use xlink:href="#DejaVuSans-61" transform="translate(549.177734 0)"/>
     <use xlink:href="#DejaVuSans-6c" transform="translate(610.457031 0)"/>
     <use xlink:href="#DejaVuSans-20" transform="translate(638.240234 0)"/>
     <use xlink:href="#DejaVuSans-50" transform="translate(670.027344 0)"/>
     <use xlink:href="#DejaVuSans-6f" transform="translate(726.705078 0)"/>
     <use xlink:href="#DejaVuSans-76" transform="translate(787.886719 0)"/>
     <use xlink:href="#DejaVuSans-65" transform="translate(847.066406 0)"/>
     <use xlink:href="#DejaVuSans-72" transform="translate(908.589844 0)"/>
     <use xlink:href="#DejaVuSans-74" transform="translate(949.703125 0)"/>
     <use xlink:href="#DejaVuSans-79" transform="translate(988.912109 0)"/>
     <use xlink:href="#DejaVuSans-20" transform="translate(1048.091797 0)"/>
     <use xlink:href="#DejaVuSans-4c" transform="translate(1079.878906 0)"/>
     <use xlink:href="#DejaVuSans-69" transform="translate(1135.591797 0)"/>
     <use xlink:href="#DejaVuSans-6e" transform="translate(1163.375 0)"/>
     <use xlink:href="#DejaVuSans-65" transform="translate(1226.753906 0)"/>
     <use xlink:href="#DejaVuSans-3a" transform="translate(1288.277344 0)"/>
     <use xlink:href="#DejaVuSans-20" transform="translate(1321.96875 0)"/>
     <use xlink:href="#DejaVuSans-24" transform="translate(1353.755859 0)"/>
     <use xlink:href="#DejaVuSans-32" transform="translate(1417.378906 0)"/>
     <use xlink:href="#DejaVuSans-2e" transform="translate(1481.001953 0)"/>
     <use xlink:href="#DejaVuSans-31" transform="translate(1512.789062 0)"/>
     <use xlink:href="#DejaVuSans-35" transform="translate(1576.412109 0)"/>
    </g>
   </g>
   <g id="legend_1">
    <g id="patch_7">
     <path d="M 811.6 214.6725 
L 911.314062 214.6725 
Q 913.314062 214.6725 913.314062 212.6725 
L 913.314062 154.96 
Q 913.314062 152.96 911.314062 152.96 
L 811.6 152.96 
Q 809.6 152.96 809.6 154.96 
L 809.6 212.6725 
Q 809.6 214.6725 811.6 214.6725 
z
" style="fill: #ffffff; opacity: 0.8; stroke: #cccccc; stroke-linejoin: miter"/>
    </g>
    <g id="text_20">
     <!-- country -->
     <g transform="translate(842.335938 164.558438) scale(0.1 -0.1)">
      <defs>
       <path id="DejaVuSans-63" d="M 3122 3366 
L 3122 2828 
Q 2878 2963 2633 3030 
Q 2388 3097 2138 3097 
Q 1578 3097 1268 2742 
Q 959 2388 959 1747 
Q 959 1106 1268 751 
Q 1578 397 2138 397 
Q 2388 397 2633 464 
Q 2878 531 3122 666 
L 3122 134 
Q 2881 22 2623 -34 
Q 2366 -91 2075 -91 
Q 1284 -91 818 406 
Q 353 903 353 1747 
Q 353 2603 823 3093 
Q 1294 3584 2113 3584 
Q 2378 3584 2631 3529 
Q 2884 3475 3122 3366 
z
" transform="scale(0.015625)"/>
       <path id="DejaVuSans-75" d="M 544 1381 
L 544 3500 
L 1119 3500 
L 1119 1403 
Q 1119 906 1312 657 
Q 1506 409 1894 409 
Q 2359 409 2629 706 
Q 2900 1003 2900 1516 
L 2900 3500 
L 3475 3500 
L 3475 0 
L 2900 0 
L 2900 538 
Q 2691 219 2414 64 
Q 2138 -91 1772 -91 
Q 1169 -91 856 284 
Q 544 659 544 1381 
z
M 1991 3584 
L 1991 3584 
z
" transform="scale(0.015625)"/>
      </defs>
      <use xlink:href="#DejaVuSans-63"/>
      <use xlink:href="#DejaVuSans-6f" transform="translate(54.980469 0)"/>
      <use xlink:href="#DejaVuSans-75" transform="translate(116.162109 0)"/>
      <use xlink:href="#DejaVuSans-6e" transform="translate(179.541016 0)"/>
      <use xlink:href="#DejaVuSans-74" transform="translate(242.919922 0)"/>
      <use xlink:href="#DejaVuSans-72" transform="translate(282.128906 0)"/>
      <use xlink:href="#DejaVuSans-79" transform="translate(323.242188 0)"/>
     </g>
    </g>
    <g id="patch_8">
     <path d="M 813.6 179.236563 
L 833.6 179.236563 
L 833.6 172.236563 
L 813.6 172.236563 
z
" style="fill: #1f77b4; fill-opacity: 0.75; stroke: #000000; stroke-linejoin: miter"/>
    </g>
    <g id="text_21">
     <!-- Chile -->
     <g transform="translate(841.6 179.236563) scale(0.1 -0.1)">
      <defs>
       <path id="DejaVuSans-43" d="M 4122 4306 
L 4122 3641 
Q 3803 3938 3442 4084 
Q 3081 4231 2675 4231 
Q 1875 4231 1450 3742 
Q 1025 3253 1025 2328 
Q 1025 1406 1450 917 
Q 1875 428 2675 428 
Q 3081 428 3442 575 
Q 3803 722 4122 1019 
L 4122 359 
Q 3791 134 3420 21 
Q 3050 -91 2638 -91 
Q 1578 -91 968 557 
Q 359 1206 359 2328 
Q 359 3453 968 4101 
Q 1578 4750 2638 4750 
Q 3056 4750 3426 4639 
Q 3797 4528 4122 4306 
z
" transform="scale(0.015625)"/>
       <path id="DejaVuSans-68" d="M 3513 2113 
L 3513 0 
L 2938 0 
L 2938 2094 
Q 2938 2591 2744 2837 
Q 2550 3084 2163 3084 
Q 1697 3084 1428 2787 
Q 1159 2491 1159 1978 
L 1159 0 
L 581 0 
L 581 4863 
L 1159 4863 
L 1159 2956 
Q 1366 3272 1645 3428 
Q 1925 3584 2291 3584 
Q 2894 3584 3203 3211 
Q 3513 2838 3513 2113 
z
" transform="scale(0.015625)"/>
      </defs>
      <use xlink:href="#DejaVuSans-43"/>
      <use xlink:href="#DejaVuSans-68" transform="translate(69.824219 0)"/>
      <use xlink:href="#DejaVuSans-69" transform="translate(133.203125 0)"/>
      <use xlink:href="#DejaVuSans-6c" transform="translate(160.986328 0)"/>
      <use xlink:href="#DejaVuSans-65" transform="translate(188.769531 0)"/>
     </g>
    </g>
    <g id="patch_9">
     <path d="M 813.6 193.914688 
L 833.6 193.914688 
L 833.6 186.914688 
L 813.6 186.914688 
z
" style="fill: #ff7f0e; fill-opacity: 0.75; stroke: #000000; stroke-linejoin: miter"/>
    </g>
    <g id="text_22">
     <!-- Peru -->
     <g transform="translate(841.6 193.914688) scale(0.1 -0.1)">
      <use xlink:href="#DejaVuSans-50"/>
      <use xlink:href="#DejaVuSans-65" transform="translate(56.677734 0)"/>
      <use xlink:href="#DejaVuSans-72" transform="translate(118.201172 0)"/>
      <use xlink:href="#DejaVuSans-75" transform="translate(159.314453 0)"/>
     </g>
    </g>
    <g id="patch_10">
     <path d="M 813.6 208.592813 
L 833.6 208.592813 
L 833.6 201.592813 
L 813.6 201.592813 
z
" style="fill: #2ca02c; fill-opacity: 0.75; stroke: #000000; stroke-linejoin: miter"/>
    </g>
    <g id="text_23">
     <!-- United States -->
     <g transform="translate(841.6 208.592813) scale(0.1 -0.1)">
      <defs>
       <path id="DejaVuSans-55" d="M 556 4666 
L 1191 4666 
L 1191 1831 
Q 1191 1081 1462 751 
Q 1734 422 2344 422 
Q 2950 422 3222 751 
Q 3494 1081 3494 1831 
L 3494 4666 
L 4128 4666 
L 4128 1753 
Q 4128 841 3676 375 
Q 3225 -91 2344 -91 
Q 1459 -91 1007 375 
Q 556 841 556 1753 
L 556 4666 
z
" transform="scale(0.015625)"/>
       <path id="DejaVuSans-64" d="M 2906 2969 
L 2906 4863 
L 3481 4863 
L 3481 0 
L 2906 0 
L 2906 525 
Q 2725 213 2448 61 
Q 2172 -91 1784 -91 
Q 1150 -91 751 415 
Q 353 922 353 1747 
Q 353 2572 751 3078 
Q 1150 3584 1784 3584 
Q 2172 3584 2448 3432 
Q 2725 3281 2906 2969 
z
M 947 1747 
Q 947 1113 1208 752 
Q 1469 391 1925 391 
Q 2381 391 2643 752 
Q 2906 1113 2906 1747 
Q 2906 2381 2643 2742 
Q 2381 3103 1925 3103 
Q 1469 3103 1208 2742 
Q 947 2381 947 1747 
z
" transform="scale(0.015625)"/>
       <path id="DejaVuSans-53" d="M 3425 4513 
L 3425 3897 
Q 3066 4069 2747 4153 
Q 2428 4238 2131 4238 
Q 1616 4238 1336 4038 
Q 1056 3838 1056 3469 
Q 1056 3159 1242 3001 
Q 1428 2844 1947 2747 
L 2328 2669 
Q 3034 2534 3370 2195 
Q 3706 1856 3706 1288 
Q 3706 609 3251 259 
Q 2797 -91 1919 -91 
Q 1588 -91 1214 -16 
Q 841 59 441 206 
L 441 856 
Q 825 641 1194 531 
Q 1563 422 1919 422 
Q 2459 422 2753 634 
Q 3047 847 3047 1241 
Q 3047 1584 2836 1778 
Q 2625 1972 2144 2069 
L 1759 2144 
Q 1053 2284 737 2584 
Q 422 2884 422 3419 
Q 422 4038 858 4394 
Q 1294 4750 2059 4750 
Q 2388 4750 2728 4690 
Q 3069 4631 3425 4513 
z
" transform="scale(0.015625)"/>
      </defs>
      <use xlink:href="#DejaVuSans-55"/>
      <use xlink:href="#DejaVuSans-6e" transform="translate(73.193359 0)"/>
      <use xlink:href="#DejaVuSans-69" transform="translate(136.572266 0)"/>
      <use xlink:href="#DejaVuSans-74" transform="translate(164.355469 0)"/>
      <use xlink:href="#DejaVuSans-65" transform="translate(203.564453 0)"/>
      <use xlink:href="#DejaVuSans-64" transform="translate(265.087891 0)"/>
      <use xlink:href="#DejaVuSans-20" transform="translate(328.564453 0)"/>
      <use xlink:href="#DejaVuSans-53" transform="translate(360.351562 0)"/>
      <use xlink:href="#DejaVuSans-74" transform="translate(423.828125 0)"/>
      <use xlink:href="#DejaVuSans-61" transform="translate(463.037109 0)"/>
      <use xlink:href="#DejaVuSans-74" transform="translate(524.316406 0)"/>
      <use xlink:href="#DejaVuSans-65" transform="translate(563.525391 0)"/>
      <use xlink:href="#DejaVuSans-73" transform="translate(625.048828 0)"/>
     </g>
    </g>
   </g>
  </g>
 </g>
 <defs>
  <clipPath id="pe1cedac310">
   <rect x="135" y="64.8" width="837" height="415.8"/>
  </clipPath>
 </defs>
</svg>
