<svg class="main-svg" xmlns="http://www.w3.org/2000/svg" xmlns:xlink="http://www.w3.org/1999/xlink" width="1500" height="750" style="" viewBox="0 0 1500 750"><rect x="0" y="0" width="1500" height="750" style="fill: rgb(255, 255, 255); fill-opacity: 1;"/><defs id="defs-306404"><g class="clips"><clipPath id="clip306404xyplot" class="plotclip"><rect width="1340" height="570"/></clipPath><clipPath class="axesclip" id="clip306404x"><rect x="80" y="0" width="1340" height="750"/></clipPath><clipPath class="axesclip" id="clip306404y"><rect x="0" y="100" width="1500" height="570"/></clipPath><clipPath class="axesclip" id="clip306404xy"><rect x="80" y="100" width="1340" height="570"/></clipPath></g><g class="gradients"/><g class="patterns"/></defs><g class="bglayer"><rect class="bg" x="80" y="100" width="1340" height="570" style="fill: rgb(0, 0, 0); fill-opacity: 0; stroke-width: 0;"/></g><g class="layer-below"><g class="imagelayer"/><g class="shapelayer"/></g><g class="cartesianlayer"><g class="subplot xy"><g class="layer-subplot"><g class="shapelayer"/><g class="imagelayer"/></g><g class="minor-gridlayer"><g class="x"/><g class="y"/></g><g class="gridlayer"><g class="x"><path class="xgrid crisp" transform="translate(331.78999999999996,0)" d="M0,100v570" style="stroke: rgb(255, 255, 255); stroke-opacity: 1; stroke-width: 1px;"/><path class="xgrid crisp" transform="translate(457.69,0)" d="M0,100v570" style="stroke: rgb(255, 255, 255); stroke-opacity: 1; stroke-width: 1px;"/><path class="xgrid crisp" transform="translate(624.11,0)" d="M0,100v570" style="stroke: rgb(255, 255, 255); stroke-opacity: 1; stroke-width: 1px;"/><path class="xgrid crisp" transform="translate(750.01,0)" d="M0,100v570" style="stroke: rgb(255, 255, 255); stroke-opacity: 1; stroke-width: 1px;"/><path class="xgrid crisp" transform="translate(875.9,0)" d="M0,100v570" style="stroke: rgb(255, 255, 255); stroke-opacity: 1; stroke-width: 1px;"/><path class="xgrid crisp" transform="translate(1042.33,0)" d="M0,100v570" style="stroke: rgb(255, 255, 255); stroke-opacity: 1; stroke-width: 1px;"/><path class="xgrid crisp" transform="translate(1168.22,0)" d="M0,100v570" style="stroke: rgb(255, 255, 255); stroke-opacity: 1; stroke-width: 1px;"/><path class="xgrid crisp" transform="translate(1294.12,0)" d="M0,100v570" style="stroke: rgb(255, 255, 255); stroke-opacity: 1; stroke-width: 1px;"/></g><g class="y"/></g><g class="zerolinelayer"/><g class="layer-between"><g class="shapelayer"/><g class="imagelayer"/></g><path class="xlines-below"/><path class="ylines-below"/><g class="overlines-below"/><g class="xaxislayer-below"/><g class="yaxislayer-below"/><g class="overaxes-below"/><g class="overplot"><g class="xy" transform="translate(80,100)" clip-path="url(#clip306404xyplot)"><g class="scatterlayer mlayer"><g class="trace scatter trace45ccc5" style="stroke-miterlimit: 2; opacity: 1;"><g class="fills"/><g class="errorbars"/><g class="lines"><path class="js-line" d="M0,534.46L15.38,525.31L16.92,524.31L32.3,513.32L33.84,512.12L49.22,499.17L50.76,497.78L67.67,481.22L69.21,479.61L87.67,458.86L89.21,457.02L107.66,433.76L109.2,431.73L132.27,399.9L133.81,397.71L196.87,308.1L198.41,306.1L215.33,285.39L216.87,283.64L230.71,269.09L232.25,267.62L244.55,256.97L246.09,255.78L258.39,247.6L259.93,246.75L270.7,241.82L272.24,241.28L281.46,238.84L283,238.58L292.23,237.85L293.77,237.88L303,238.88L304.54,239.19L313.76,241.91L315.3,242.5L324.53,246.87L326.07,247.73L336.83,254.8L338.37,255.96L349.14,264.97L350.68,266.39L362.98,278.79L364.52,280.47L379.9,298.56L381.44,300.49L399.89,324.98L401.43,327.12L429.12,366.85L430.66,369.09L466.03,419.59L467.57,421.69L489.1,449.79L490.64,451.69L509.1,473.22L510.63,474.9L527.55,492.23L529.09,493.7L546.01,508.61L547.55,509.86L562.93,521.35L564.47,522.4L579.85,532.02L581.39,532.89L596.77,540.79L598.3,541.5L616.76,548.99L618.3,549.53L636.76,555.2L638.29,555.61L659.83,560.38L661.36,560.66L685.97,564.29L687.51,564.47L718.27,567.15L719.81,567.24L755.19,568.79L756.72,568.84L767.49,569.11" style="vector-effect: none; fill: none; stroke: rgb(31, 119, 180); stroke-opacity: 1; stroke-width: 2px; opacity: 1;"/></g><g class="points"/><g class="text"/></g><g class="trace scatter trace587774" style="stroke-miterlimit: 2; opacity: 1;"><g class="fills"/><g class="errorbars"/><g class="lines"><path class="js-line" d="M675.12,568.46L700.43,566.22L701.77,566.04L719.09,563.02L720.42,562.72L736.41,558.11L737.74,557.63L749.73,552.52L751.07,551.85L761.72,545.71L763.06,544.83L773.72,536.82L775.05,535.68L785.71,525.44L787.04,524L797.7,511.15L799.03,509.37L808.36,495.73L809.69,493.61L820.35,475.03L821.68,472.5L832.34,450.6L833.68,447.65L845.67,419.06L847,415.66L860.32,379.34L861.66,375.49L877.65,326.8L878.98,322.57L926.95,169.56L928.28,165.75L940.27,133.83L941.6,130.59L950.93,109.95L952.26,107.31L960.26,93.27L961.59,91.24L968.25,82.49L969.58,81.03L976.25,75.22L977.58,74.36L982.91,71.96L984.24,71.62L989.57,71.3L990.9,71.48L996.23,73.25L997.57,73.95L1002.89,77.78L1004.23,78.99L1010.89,86.52L1012.22,88.31L1018.88,98.68L1020.22,101.02L1028.21,116.82L1029.54,119.73L1038.87,142.12L1040.2,145.58L1050.86,175.28L1052.19,179.21L1066.85,224.77L1068.18,229.07L1112.15,369.55L1113.49,373.45L1128.14,413.85L1129.48,417.27L1141.47,446.08L1142.8,449.05L1154.79,473.7L1156.12,476.21L1168.12,496.72L1169.45,498.77L1180.11,513.71L1181.44,515.39L1192.1,527.49L1193.43,528.83L1204.09,538.43L1205.42,539.49L1217.42,547.77L1218.75,548.56L1230.74,554.67L1232.07,555.25L1245.4,560.06L1246.73,560.46L1261.39,563.98L1262.72,564.23L1280.04,566.77L1281.37,566.92L1305.36,568.7L1306.69,568.77L1340,569.67" style="vector-effect: none; fill: none; stroke: rgb(255, 127, 14); stroke-opacity: 1; stroke-width: 2px; opacity: 1;"/></g><g class="points"/><g class="text"/></g><g class="trace scatter trace4eee13" style="stroke-miterlimit: 2;"><g class="fills"><g><path class="js-fill" d="M767.49,570L0,570L0,534.46L1.54,533.62L3.08,532.76L4.61,531.89L6.15,530.99L7.69,530.09L9.23,529.17L10.77,528.23L12.3,527.27L13.84,526.3L15.38,525.31L16.92,524.31L18.46,523.29L19.99,522.25L21.53,521.19L23.07,520.12L24.61,519.03L26.15,517.92L27.69,516.8L29.22,515.65L30.76,514.49L32.3,513.32L33.84,512.12L35.38,510.91L36.91,509.68L38.45,508.43L39.99,507.16L41.53,505.87L43.07,504.57L44.6,503.25L46.14,501.91L47.68,500.55L49.22,499.17L50.76,497.78L52.29,496.36L53.83,494.93L55.37,493.48L56.91,492.01L58.45,490.53L59.98,489.02L61.52,487.5L63.06,485.95L64.6,484.39L66.14,482.82L67.67,481.22L69.21,479.61L70.75,477.97L72.29,476.32L73.83,474.65L75.36,472.97L76.9,471.27L78.44,469.54L79.98,467.81L81.52,466.05L83.06,464.28L84.59,462.49L86.13,460.68L87.67,458.86L89.21,457.02L90.75,455.17L92.28,453.3L93.82,451.41L95.36,449.51L96.9,447.59L98.44,445.66L99.97,443.71L101.51,441.75L103.05,439.77L104.59,437.78L106.13,435.77L107.66,433.76L109.2,431.73L110.74,429.68L112.28,427.62L113.82,425.56L115.35,423.47L116.89,421.38L118.43,419.28L119.97,417.16L121.51,415.04L123.04,412.9L124.58,410.76L126.12,408.6L127.66,406.44L129.2,404.27L130.73,402.09L132.27,399.9L133.81,397.71L135.35,395.51L136.89,393.3L138.43,391.09L139.96,388.87L141.5,386.65L143.04,384.42L144.58,382.19L146.12,379.96L147.65,377.72L149.19,375.48L150.73,373.24L152.27,371L153.81,368.76L155.34,366.51L156.88,364.27L158.42,362.03L159.96,359.79L161.5,357.55L163.03,355.32L164.57,353.09L166.11,350.86L167.65,348.64L169.19,346.42L170.72,344.21L172.26,342.01L173.8,339.81L175.34,337.62L176.88,335.43L178.41,333.26L179.95,331.1L181.49,328.94L183.03,326.8L184.57,324.67L186.1,322.55L187.64,320.44L189.18,318.35L190.72,316.27L192.26,314.2L193.8,312.15L195.33,310.12L196.87,308.1L198.41,306.1L199.95,304.11L201.49,302.15L203.02,300.2L204.56,298.28L206.1,296.37L207.64,294.48L209.18,292.62L210.71,290.78L212.25,288.96L213.79,287.16L215.33,285.39L216.87,283.64L218.4,281.91L219.94,280.22L221.48,278.54L223.02,276.9L224.56,275.28L226.09,273.69L227.63,272.13L229.17,270.6L230.71,269.09L232.25,267.62L233.78,266.18L235.32,264.76L236.86,263.38L238.4,262.03L239.94,260.72L241.47,259.43L243.01,258.18L244.55,256.97L246.09,255.78L247.63,254.64L249.17,253.52L250.7,252.44L252.24,251.4L253.78,250.4L255.32,249.43L256.86,248.5L258.39,247.6L259.93,246.75L261.47,245.93L263.01,245.14L264.55,244.4L266.08,243.7L267.62,243.03L269.16,242.41L270.7,241.82L272.24,241.28L273.77,240.77L275.31,240.3L276.85,239.88L278.39,239.49L279.93,239.14L281.46,238.84L283,238.58L284.54,238.35L286.08,238.17L287.62,238.03L289.15,237.93L290.69,237.87L292.23,237.85L293.77,237.88L295.31,237.94L296.84,238.05L298.38,238.2L299.92,238.38L301.46,238.61L303,238.88L304.54,239.19L306.07,239.54L307.61,239.94L309.15,240.37L310.69,240.84L312.23,241.35L313.76,241.91L315.3,242.5L316.84,243.13L318.38,243.8L319.92,244.51L321.45,245.26L322.99,246.05L324.53,246.87L326.07,247.73L327.61,248.63L329.14,249.57L330.68,250.54L332.22,251.56L333.76,252.6L335.3,253.69L336.83,254.8L338.37,255.96L339.91,257.14L341.45,258.37L342.99,259.62L344.52,260.91L346.06,262.23L347.6,263.58L349.14,264.97L350.68,266.39L352.22,267.84L353.75,269.31L355.29,270.82L356.83,272.36L358.37,273.93L359.91,275.52L361.44,277.14L362.98,278.79L364.52,280.47L366.06,282.17L367.6,283.9L369.13,285.65L370.67,287.42L372.21,289.23L373.75,291.05L375.29,292.89L376.82,294.76L378.36,296.65L379.9,298.56L381.44,300.49L382.98,302.44L384.51,304.41L386.05,306.39L387.59,308.4L389.13,310.42L390.67,312.46L392.2,314.51L393.74,316.58L395.28,318.66L396.82,320.75L398.36,322.86L399.89,324.98L401.43,327.12L402.97,329.26L404.51,331.42L406.05,333.58L407.59,335.76L409.12,337.94L410.66,340.13L412.2,342.33L413.74,344.54L415.28,346.75L416.81,348.97L418.35,351.19L419.89,353.42L421.43,355.65L422.97,357.89L424.5,360.12L426.04,362.36L427.58,364.6L429.12,366.85L430.66,369.09L432.19,371.33L433.73,373.57L435.27,375.81L436.81,378.05L438.35,380.29L439.88,382.52L441.42,384.75L442.96,386.98L444.5,389.2L446.04,391.42L447.57,393.63L449.11,395.84L450.65,398.04L452.19,400.23L453.73,402.41L455.26,404.59L456.8,406.76L458.34,408.92L459.88,411.08L461.42,413.22L462.96,415.35L464.49,417.48L466.03,419.59L467.57,421.69L469.11,423.78L470.65,425.86L472.18,427.93L473.72,429.98L475.26,432.03L476.8,434.06L478.34,436.07L479.87,438.08L481.41,440.06L482.95,442.04L484.49,444L486.03,445.94L487.56,447.88L489.1,449.79L490.64,451.69L492.18,453.58L493.72,455.44L495.25,457.3L496.79,459.13L498.33,460.95L499.87,462.76L501.41,464.54L502.94,466.31L504.48,468.07L506.02,469.8L507.56,471.52L509.1,473.22L510.63,474.9L512.17,476.57L513.71,478.22L515.25,479.85L516.79,481.46L518.33,483.05L519.86,484.63L521.4,486.18L522.94,487.72L524.48,489.24L526.02,490.75L527.55,492.23L529.09,493.7L530.63,495.15L532.17,496.57L533.71,497.99L535.24,499.38L536.78,500.75L538.32,502.11L539.86,503.45L541.4,504.77L542.93,506.07L544.47,507.35L546.01,508.61L547.55,509.86L549.09,511.09L550.62,512.3L552.16,513.49L553.7,514.67L555.24,515.83L556.78,516.97L558.31,518.09L559.85,519.19L561.39,520.28L562.93,521.35L564.47,522.4L566,523.44L567.54,524.46L569.08,525.46L570.62,526.45L572.16,527.41L573.7,528.37L575.23,529.3L576.77,530.22L578.31,531.13L579.85,532.02L581.39,532.89L582.92,533.75L584.46,534.59L586,535.41L587.54,536.23L589.08,537.02L590.61,537.8L592.15,538.57L593.69,539.32L595.23,540.06L596.77,540.79L598.3,541.5L599.84,542.19L601.38,542.87L602.92,543.54L604.46,544.2L605.99,544.84L607.53,545.47L609.07,546.09L610.61,546.69L612.15,547.29L613.68,547.87L615.22,548.43L616.76,548.99L618.3,549.53L619.84,550.06L621.37,550.58L622.91,551.09L624.45,551.59L625.99,552.08L627.53,552.56L629.07,553.02L630.6,553.48L632.14,553.92L633.68,554.36L635.22,554.78L636.76,555.2L638.29,555.61L639.83,556L641.37,556.39L642.91,556.77L644.45,557.14L645.98,557.5L647.52,557.85L649.06,558.2L650.6,558.53L652.14,558.86L653.67,559.18L655.21,559.49L656.75,559.79L658.29,560.09L659.83,560.38L661.36,560.66L662.9,560.93L664.44,561.2L665.98,561.46L667.52,561.71L669.05,561.96L670.59,562.2L672.13,562.44L673.67,562.67L675.21,562.89L676.75,563.11L678.28,563.32L679.82,563.52L681.36,563.72L682.9,563.92L684.44,564.1L685.97,564.29L687.51,564.47L689.05,564.64L690.59,564.81L692.13,564.97L693.66,565.13L695.2,565.29L696.74,565.44L698.28,565.59L699.82,565.73L701.35,565.87L702.89,566L704.43,566.13L705.97,566.26L707.51,566.38L709.04,566.5L710.58,566.62L712.12,566.73L713.66,566.84L715.2,566.94L716.73,567.05L718.27,567.15L719.81,567.24L721.35,567.34L722.89,567.43L724.42,567.51L725.96,567.6L727.5,567.68L729.04,567.76L730.58,567.84L732.12,567.91L733.65,567.99L735.19,568.06L736.73,568.13L738.27,568.19L739.81,568.26L741.34,568.32L742.88,568.38L744.42,568.44L745.96,568.49L747.5,568.55L749.03,568.6L750.57,568.65L752.11,568.7L753.65,568.75L755.19,568.79L756.72,568.84L758.26,568.88L759.8,568.92L761.34,568.96L762.88,569L764.41,569.04L765.95,569.07L767.49,569.11" style="fill: rgb(103, 177, 229); fill-opacity: 1; stroke-width: 0;"/></g></g><g class="errorbars"/><g class="lines"/><g class="points"/><g class="text"/></g><g class="trace scatter trace8aacb3" style="stroke-miterlimit: 2;"><g class="fills"><g><path class="js-fill" d="M1340,570L675.12,570L675.12,568.46L676.45,568.38L677.78,568.3L679.11,568.21L680.45,568.13L681.78,568.03L683.11,567.94L684.44,567.84L685.78,567.73L687.11,567.62L688.44,567.5L689.77,567.38L691.11,567.26L692.44,567.13L693.77,566.99L695.1,566.85L696.44,566.7L697.77,566.55L699.1,566.39L700.43,566.22L701.77,566.04L703.1,565.86L704.43,565.67L705.76,565.47L707.1,565.27L708.43,565.06L709.76,564.83L711.09,564.6L712.42,564.36L713.76,564.11L715.09,563.86L716.42,563.59L717.75,563.31L719.09,563.02L720.42,562.72L721.75,562.4L723.08,562.08L724.42,561.74L725.75,561.4L727.08,561.03L728.41,560.66L729.75,560.27L731.08,559.87L732.41,559.45L733.74,559.02L735.08,558.57L736.41,558.11L737.74,557.63L739.07,557.14L740.41,556.62L741.74,556.09L743.07,555.54L744.4,554.98L745.74,554.39L747.07,553.79L748.4,553.16L749.73,552.52L751.07,551.85L752.4,551.17L753.73,550.46L755.06,549.72L756.4,548.97L757.73,548.19L759.06,547.39L760.39,546.56L761.72,545.71L763.06,544.83L764.39,543.93L765.72,543L767.05,542.04L768.39,541.05L769.72,540.04L771.05,539L772.38,537.92L773.72,536.82L775.05,535.68L776.38,534.52L777.71,533.32L779.05,532.09L780.38,530.83L781.71,529.53L783.04,528.2L784.38,526.84L785.71,525.44L787.04,524L788.37,522.53L789.71,521.02L791.04,519.47L792.37,517.88L793.7,516.26L795.04,514.6L796.37,512.9L797.7,511.15L799.03,509.37L800.37,507.55L801.7,505.69L803.03,503.78L804.36,501.83L805.7,499.84L807.03,497.81L808.36,495.73L809.69,493.61L811.02,491.44L812.36,489.23L813.69,486.98L815.02,484.68L816.35,482.33L817.69,479.94L819.02,477.51L820.35,475.03L821.68,472.5L823.02,469.92L824.35,467.3L825.68,464.63L827.01,461.92L828.35,459.16L829.68,456.35L831.01,453.5L832.34,450.6L833.68,447.65L835.01,444.66L836.34,441.62L837.67,438.53L839.01,435.4L840.34,432.22L841.67,429L843,425.73L844.34,422.42L845.67,419.06L847,415.66L848.33,412.21L849.67,408.72L851,405.19L852.33,401.62L853.66,398.01L855,394.35L856.33,390.66L857.66,386.92L858.99,383.15L860.32,379.34L861.66,375.49L862.99,371.61L864.32,367.69L865.65,363.73L866.99,359.75L868.32,355.73L869.65,351.68L870.98,347.6L872.32,343.49L873.65,339.36L874.98,335.2L876.31,331.01L877.65,326.8L878.98,322.57L880.31,318.32L881.64,314.04L882.98,309.75L884.31,305.45L885.64,301.12L886.97,296.79L888.31,292.44L889.64,288.09L890.97,283.72L892.3,279.35L893.64,274.97L894.97,270.59L896.3,266.21L897.63,261.83L898.97,257.45L900.3,253.08L901.63,248.71L902.96,244.35L904.3,240L905.63,235.67L906.96,231.34L908.29,227.03L909.62,222.75L910.96,218.48L912.29,214.23L913.62,210.01L914.95,205.81L916.29,201.64L917.62,197.5L918.95,193.4L920.28,189.33L921.62,185.29L922.95,181.3L924.28,177.34L925.61,173.43L926.95,169.56L928.28,165.75L929.61,161.98L930.94,158.26L932.28,154.59L933.61,150.98L934.94,147.43L936.27,143.93L937.61,140.5L938.94,137.13L940.27,133.83L941.6,130.59L942.94,127.42L944.27,124.32L945.6,121.29L946.93,118.34L948.27,115.47L949.6,112.67L950.93,109.95L952.26,107.31L953.6,104.76L954.93,102.28L956.26,99.9L957.59,97.6L958.92,95.39L960.26,93.27L961.59,91.24L962.92,89.3L964.25,87.45L965.59,85.7L966.92,84.05L968.25,82.49L969.58,81.03L970.92,79.67L972.25,78.41L973.58,77.24L974.91,76.18L976.25,75.22L977.58,74.36L978.91,73.61L980.24,72.95L981.58,72.41L982.91,71.96L984.24,71.62L985.57,71.38L986.91,71.25L988.24,71.22L989.57,71.3L990.9,71.48L992.24,71.77L993.57,72.16L994.9,72.65L996.23,73.25L997.57,73.95L998.9,74.76L1000.23,75.66L1001.56,76.67L1002.89,77.78L1004.23,78.99L1005.56,80.3L1006.89,81.71L1008.22,83.22L1009.56,84.82L1010.89,86.52L1012.22,88.31L1013.55,90.2L1014.89,92.19L1016.22,94.26L1017.55,96.42L1018.88,98.68L1020.22,101.02L1021.55,103.44L1022.88,105.95L1024.21,108.55L1025.55,111.23L1026.88,113.98L1028.21,116.82L1029.54,119.73L1030.88,122.72L1032.21,125.78L1033.54,128.91L1034.87,132.11L1036.21,135.38L1037.54,138.72L1038.87,142.12L1040.2,145.58L1041.54,149.1L1042.87,152.68L1044.2,156.32L1045.53,160.01L1046.87,163.75L1048.2,167.55L1049.53,171.39L1050.86,175.28L1052.19,179.21L1053.53,183.18L1054.86,187.2L1056.19,191.25L1057.52,195.34L1058.86,199.46L1060.19,203.61L1061.52,207.79L1062.85,212L1064.19,216.23L1065.52,220.49L1066.85,224.77L1068.18,229.07L1069.52,233.39L1070.85,237.72L1072.18,242.06L1073.51,246.41L1074.85,250.78L1076.18,255.15L1077.51,259.52L1078.84,263.9L1080.18,268.28L1081.51,272.67L1082.84,277.04L1084.17,281.42L1085.51,285.79L1086.84,290.15L1088.17,294.5L1089.5,298.84L1090.84,303.17L1092.17,307.49L1093.5,311.79L1094.83,316.07L1096.17,320.33L1097.5,324.57L1098.83,328.8L1100.16,333L1101.49,337.17L1102.83,341.32L1104.16,345.44L1105.49,349.54L1106.82,353.6L1108.16,357.64L1109.49,361.64L1110.82,365.61L1112.15,369.55L1113.49,373.45L1114.82,377.31L1116.15,381.14L1117.48,384.94L1118.82,388.69L1120.15,392.41L1121.48,396.08L1122.81,399.72L1124.15,403.31L1125.48,406.87L1126.81,410.38L1128.14,413.85L1129.48,417.27L1130.81,420.65L1132.14,423.99L1133.47,427.28L1134.81,430.53L1136.14,433.73L1137.47,436.89L1138.8,440L1140.14,443.06L1141.47,446.08L1142.8,449.05L1144.13,451.98L1145.47,454.85L1146.8,457.69L1148.13,460.47L1149.46,463.21L1150.79,465.9L1152.13,468.55L1153.46,471.15L1154.79,473.7L1156.12,476.21L1157.46,478.67L1158.79,481.08L1160.12,483.45L1161.45,485.77L1162.79,488.05L1164.12,490.28L1165.45,492.47L1166.78,494.62L1168.12,496.72L1169.45,498.77L1170.78,500.79L1172.11,502.76L1173.45,504.69L1174.78,506.57L1176.11,508.42L1177.44,510.22L1178.78,511.98L1180.11,513.71L1181.44,515.39L1182.77,517.03L1184.11,518.64L1185.44,520.21L1186.77,521.74L1188.1,523.23L1189.44,524.68L1190.77,526.1L1192.1,527.49L1193.43,528.83L1194.77,530.15L1196.1,531.43L1197.43,532.68L1198.76,533.89L1200.09,535.07L1201.43,536.22L1202.76,537.34L1204.09,538.43L1205.42,539.49L1206.76,540.52L1208.09,541.52L1209.42,542.5L1210.75,543.44L1212.09,544.36L1213.42,545.25L1214.75,546.12L1216.08,546.96L1217.42,547.77L1218.75,548.56L1220.08,549.33L1221.41,550.07L1222.75,550.79L1224.08,551.49L1225.41,552.17L1226.74,552.83L1228.08,553.46L1229.41,554.08L1230.74,554.67L1232.07,555.25L1233.41,555.81L1234.74,556.35L1236.07,556.87L1237.4,557.37L1238.74,557.86L1240.07,558.33L1241.4,558.79L1242.73,559.23L1244.07,559.65L1245.4,560.06L1246.73,560.46L1248.06,560.84L1249.39,561.21L1250.73,561.56L1252.06,561.9L1253.39,562.24L1254.72,562.55L1256.06,562.86L1257.39,563.16L1258.72,563.44L1260.05,563.72L1261.39,563.98L1262.72,564.23L1264.05,564.48L1265.38,564.71L1266.72,564.94L1268.05,565.16L1269.38,565.37L1270.71,565.57L1272.05,565.76L1273.38,565.95L1274.71,566.13L1276.04,566.3L1277.38,566.46L1278.71,566.62L1280.04,566.77L1281.37,566.92L1282.71,567.06L1284.04,567.19L1285.37,567.32L1286.7,567.44L1288.04,567.56L1289.37,567.67L1290.7,567.78L1292.03,567.88L1293.36,567.98L1294.7,568.08L1296.03,568.17L1297.36,568.26L1298.69,568.34L1300.03,568.42L1301.36,568.49L1302.69,568.57L1304.02,568.64L1305.36,568.7L1306.69,568.77L1308.02,568.83L1309.35,568.88L1310.69,568.94L1312.02,568.99L1313.35,569.04L1314.68,569.09L1316.02,569.14L1317.35,569.18L1318.68,569.22L1320.01,569.26L1321.35,569.3L1322.68,569.33L1324.01,569.37L1325.34,569.4L1326.68,569.43L1328.01,569.46L1329.34,569.49L1330.67,569.52L1332.01,569.54L1333.34,569.57L1334.67,569.59L1336,569.61L1337.34,569.63L1338.67,569.65L1340,569.67" style="fill: rgb(255, 160, 77); fill-opacity: 1; stroke-width: 0;"/></g></g><g class="errorbars"/><g class="lines"/><g class="points"/><g class="text"/></g></g></g></g><path class="xlines-above crisp" d="" style="fill: none; stroke-width: 1px; stroke: rgb(0, 0, 0); stroke-opacity: 0;"/><path class="ylines-above crisp" d="M0,0" style="fill: none;"/><g class="overlines-above"/><g class="xaxislayer-above"><path class="xtick ticks crisp" d="M0,671v5" transform="translate(331.78999999999996,0)" style="stroke: rgb(128, 128, 128); stroke-opacity: 1; stroke-width: 1px;"/><path class="xtick ticks crisp" d="M0,671v5" transform="translate(457.69,0)" style="stroke: rgb(128, 128, 128); stroke-opacity: 1; stroke-width: 1px;"/><path class="xtick ticks crisp" d="M0,671v5" transform="translate(624.11,0)" style="stroke: rgb(128, 128, 128); stroke-opacity: 1; stroke-width: 1px;"/><path class="xtick ticks crisp" d="M0,671v5" transform="translate(750.01,0)" style="stroke: rgb(128, 128, 128); stroke-opacity: 1; stroke-width: 1px;"/><path class="xtick ticks crisp" d="M0,671v5" transform="translate(875.9,0)" style="stroke: rgb(128, 128, 128); stroke-opacity: 1; stroke-width: 1px;"/><path class="xtick ticks crisp" d="M0,671v5" transform="translate(1042.33,0)" style="stroke: rgb(128, 128, 128); stroke-opacity: 1; stroke-width: 1px;"/><path class="xtick ticks crisp" d="M0,671v5" transform="translate(1168.22,0)" style="stroke: rgb(128, 128, 128); stroke-opacity: 1; stroke-width: 1px;"/><path class="xtick ticks crisp" d="M0,671v5" transform="translate(1294.12,0)" style="stroke: rgb(128, 128, 128); stroke-opacity: 1; stroke-width: 1px;"/><g class="xtick"><text text-anchor="middle" x="0" y="690.4" transform="translate(331.78999999999996,0)" style="font-family: 'Open Sans', verdana, arial, sans-serif; font-size: 12px; fill: rgb(128, 128, 128); fill-opacity: 1; white-space: pre; opacity: 1;">1</text></g><g class="xtick"><text text-anchor="middle" x="0" y="690.4" style="font-family: 'Open Sans', verdana, arial, sans-serif; font-size: 12px; fill: rgb(128, 128, 128); fill-opacity: 1; white-space: pre; opacity: 1;" transform="translate(457.69,0)">2</text></g><g class="xtick"><text text-anchor="middle" x="0" y="690.4" style="font-family: 'Open Sans', verdana, arial, sans-serif; font-size: 12px; fill: rgb(128, 128, 128); fill-opacity: 1; white-space: pre; opacity: 1;" transform="translate(624.11,0)">5</text></g><g class="xtick"><text text-anchor="middle" x="0" y="690.4" style="font-family: 'Open Sans', verdana, arial, sans-serif; font-size: 12px; fill: rgb(128, 128, 128); fill-opacity: 1; white-space: pre; opacity: 1;" transform="translate(750.01,0)">10</text></g><g class="xtick"><text text-anchor="middle" x="0" y="690.4" style="font-family: 'Open Sans', verdana, arial, sans-serif; font-size: 12px; fill: rgb(128, 128, 128); fill-opacity: 1; white-space: pre; opacity: 1;" transform="translate(875.9,0)">20</text></g><g class="xtick"><text text-anchor="middle" x="0" y="690.4" style="font-family: 'Open Sans', verdana, arial, sans-serif; font-size: 12px; fill: rgb(128, 128, 128); fill-opacity: 1; white-space: pre; opacity: 1;" transform="translate(1042.33,0)">50</text></g><g class="xtick"><text text-anchor="middle" x="0" y="690.4" style="font-family: 'Open Sans', verdana, arial, sans-serif; font-size: 12px; fill: rgb(128, 128, 128); fill-opacity: 1; white-space: pre; opacity: 1;" transform="translate(1168.22,0)">100</text></g><g class="xtick"><text text-anchor="middle" x="0" y="690.4" style="font-family: 'Open Sans', verdana, arial, sans-serif; font-size: 12px; fill: rgb(128, 128, 128); fill-opacity: 1; white-space: pre; opacity: 1;" transform="translate(1294.12,0)">200</text></g></g><g class="yaxislayer-above"/><g class="overaxes-above"/></g></g><g class="polarlayer"/><g class="smithlayer"/><g class="ternarylayer"/><g class="geolayer"/><g class="funnelarealayer"/><g class="pielayer"/><g class="iciclelayer"/><g class="treemaplayer"/><g class="sunburstlayer"/><g class="glimages"/><defs id="topdefs-306404"><g class="clips"/></defs><g class="layer-above"><g class="imagelayer"/><g class="shapelayer"><g class="shape-group" data-index="0" clip-path="url(#clip306404x)"><path data-index="0" fill-rule="evenodd" d="M361.8,670L361.8,100" style="opacity: 1; stroke: rgb(128, 128, 128); stroke-opacity: 1; fill: rgb(0, 0, 0); fill-opacity: 0; stroke-dasharray: 3px, 3px; stroke-width: 0.5px;"/></g><g class="shape-group" data-index="1" clip-path="url(#clip306404x)"><path data-index="1" fill-rule="evenodd" d="M1066.4099999999999,670L1066.4099999999999,100" style="opacity: 1; stroke: rgb(128, 128, 128); stroke-opacity: 1; fill: rgb(0, 0, 0); fill-opacity: 0; stroke-dasharray: 3px, 3px; stroke-width: 0.5px;"/></g><g class="shape-group" data-index="2" clip-path="url(#clip306404x)"><path data-index="2" fill-rule="evenodd" d="M470.82,670L470.82,100" style="opacity: 1; stroke: rgb(255, 0, 0); stroke-opacity: 1; fill: rgb(0, 0, 0); fill-opacity: 0; stroke-dasharray: 3px, 3px; stroke-width: 0.5px;"/></g><g class="shape-group" data-index="3" clip-path="url(#clip306404x)"><path data-index="3" fill-rule="evenodd" d="M868.34,670L868.34,100" style="opacity: 1; stroke: rgb(0, 0, 0); stroke-opacity: 1; fill: rgb(0, 0, 0); fill-opacity: 0; stroke-dasharray: 3px, 3px; stroke-width: 0.5px;"/></g><g class="shape-group" data-index="4" clip-path="url(#clip306404x)"><path data-index="4" fill-rule="evenodd" d="M715.07,670L715.07,100" style="opacity: 1; stroke: rgb(0, 0, 0); stroke-opacity: 1; fill: rgb(0, 0, 0); fill-opacity: 0; stroke-dasharray: 3px, 3px; stroke-width: 0.5px;"/></g><g class="shape-group" data-index="5" clip-path="url(#clip306404y)"><path data-index="5" fill-rule="evenodd" d="M80,670L1420,670" style="opacity: 1; stroke: rgb(128, 128, 128); stroke-opacity: 1; fill: rgb(0, 0, 0); fill-opacity: 0; stroke-width: 2px;"/></g></g></g><g class="infolayer"><g class="g-gtitle"><text class="gtitle" x="75" y="50" text-anchor="start" dy="0em" style="opacity: 1; font-family: 'Open Sans', verdana, arial, sans-serif; font-size: 17px; fill: rgb(42, 63, 95); fill-opacity: 1; white-space: pre;">Density curve of income for Democratic Republic of Congo and Denmark</text></g><g class="g-xtitle"><text class="xtitle" x="750" y="717.20625" text-anchor="middle" style="opacity: 1; font-family: 'Open Sans', verdana, arial, sans-serif; font-size: 14px; fill: rgb(128, 128, 128); fill-opacity: 1; white-space: pre;">Income (log scale)</text></g><g class="annotation" data-index="0" style="opacity: 1;"><g class="annotation-text-g" transform="rotate(0,490.3,125)"><g class="cursor-pointer" transform="translate(362,100)"><rect class="bg" x="0.5" y="0.5" width="256" height="49" style="stroke-width: 1px; stroke: rgb(0, 0, 0); stroke-opacity: 0; fill: rgb(0, 0, 0); fill-opacity: 0;"/><text class="annotation-text" text-anchor="start" x="2" y="14" style="font-family: 'Open Sans', verdana, arial, sans-serif; font-size: 12px; fill: rgb(42, 63, 95); fill-opacity: 1; white-space: pre;"><tspan class="line" dy="0em" x="2" y="14"><tspan style="font-weight:bold">Democratic Republic of Congo (2020)</tspan></tspan><tspan class="line" dy="1.3em" x="2" y="14">Median income: $1.18</tspan><tspan class="line" dy="2.6em" x="2" y="14">Mean income: $1.70</tspan></text></g></g></g><g class="annotation" data-index="1" style="opacity: 1;"><g class="annotation-text-g" transform="rotate(0,993.4099999999999,125)"><g class="cursor-pointer" transform="translate(920,100)"><rect class="bg" x="0.5" y="0.5" width="145" height="49" style="stroke-width: 1px; stroke: rgb(0, 0, 0); stroke-opacity: 0; fill: rgb(0, 0, 0); fill-opacity: 0;"/><text class="annotation-text" text-anchor="end" x="144.484375" y="14" style="font-family: 'Open Sans', verdana, arial, sans-serif; font-size: 12px; fill: rgb(42, 63, 95); fill-opacity: 1; white-space: pre;"><tspan class="line" dy="0em" x="144.484375" y="14"><tspan style="font-weight:bold">Denmark (2021)</tspan></tspan><tspan class="line" dy="1.3em" x="144.484375" y="14">Median income: $57.09</tspan><tspan class="line" dy="2.6em" x="144.484375" y="14">Mean income: $66.20</tspan></text></g></g></g><g class="annotation" data-index="2" style="opacity: 1;"><g class="annotation-text-g" transform="rotate(-90,480.32,589.5)"><g class="cursor-pointer" transform="translate(400,580)"><rect class="bg" x="0.5" y="0.5" width="160" height="18" style="stroke-width: 1px; stroke: rgb(0, 0, 0); stroke-opacity: 0; fill: rgb(0, 0, 0); fill-opacity: 0;"/><text class="annotation-text" text-anchor="middle" x="80.359375" y="14" style="font-family: 'Open Sans', verdana, arial, sans-serif; font-size: 12px; fill: rgb(42, 63, 95); fill-opacity: 1; white-space: pre;">International Poverty Line</text></g></g></g><g class="annotation" data-index="3" style="opacity: 1;"><g class="annotation-text-g" transform="rotate(-90,877.84,605.5)"><g class="cursor-pointer" transform="translate(813,596)"><rect class="bg" x="0.5" y="0.5" width="128" height="18" style="stroke-width: 1px; stroke: rgb(0, 0, 0); stroke-opacity: 0; fill: rgb(0, 0, 0); fill-opacity: 0;"/><text class="annotation-text" text-anchor="middle" x="64.53125" y="14" style="font-family: 'Open Sans', verdana, arial, sans-serif; font-size: 12px; fill: rgb(42, 63, 95); fill-opacity: 1; white-space: pre;">World mean: $19.18</text></g></g></g><g class="annotation" data-index="4" style="opacity: 1;"><g class="annotation-text-g" transform="rotate(-90,724.57,604)"><g class="cursor-pointer" transform="translate(659,595)"><rect class="bg" x="0.5" y="0.5" width="131" height="18" style="stroke-width: 1px; stroke: rgb(0, 0, 0); stroke-opacity: 0; fill: rgb(0, 0, 0); fill-opacity: 0;"/><text class="annotation-text" text-anchor="middle" x="66.109375" y="14" style="font-family: 'Open Sans', verdana, arial, sans-serif; font-size: 12px; fill: rgb(42, 63, 95); fill-opacity: 1; white-space: pre;">World median: $8.25</text></g></g></g></g></svg>