<svg class="main-svg" xmlns="http://www.w3.org/2000/svg" xmlns:xlink="http://www.w3.org/1999/xlink" width="1500" height="750" style="" viewBox="0 0 1500 750"><rect x="0" y="0" width="1500" height="750" style="fill: rgb(255, 255, 255); fill-opacity: 1;"/><defs id="defs-041ee4"><g class="clips"><clipPath id="clip041ee4xyplot" class="plotclip"><rect width="1340" height="570"/></clipPath><clipPath class="axesclip" id="clip041ee4x"><rect x="80" y="0" width="1340" height="750"/></clipPath><clipPath class="axesclip" id="clip041ee4y"><rect x="0" y="100" width="1500" height="570"/></clipPath><clipPath class="axesclip" id="clip041ee4xy"><rect x="80" y="100" width="1340" height="570"/></clipPath></g><g class="gradients"/><g class="patterns"/></defs><g class="bglayer"><rect class="bg" x="80" y="100" width="1340" height="570" style="fill: rgb(0, 0, 0); fill-opacity: 0; stroke-width: 0;"/></g><g class="layer-below"><g class="imagelayer"/><g class="shapelayer"/></g><g class="cartesianlayer"><g class="subplot xy"><g class="layer-subplot"><g class="shapelayer"/><g class="imagelayer"/></g><g class="minor-gridlayer"><g class="x"/><g class="y"/></g><g class="gridlayer"><g class="x"><path class="xgrid crisp" transform="translate(381.46,0)" d="M0,100v570" style="stroke: rgb(255, 255, 255); stroke-opacity: 1; stroke-width: 1px;"/><path class="xgrid crisp" transform="translate(485.94,0)" d="M0,100v570" style="stroke: rgb(255, 255, 255); stroke-opacity: 1; stroke-width: 1px;"/><path class="xgrid crisp" transform="translate(624.06,0)" d="M0,100v570" style="stroke: rgb(255, 255, 255); stroke-opacity: 1; stroke-width: 1px;"/><path class="xgrid crisp" transform="translate(728.54,0)" d="M0,100v570" style="stroke: rgb(255, 255, 255); stroke-opacity: 1; stroke-width: 1px;"/><path class="xgrid crisp" transform="translate(833.02,0)" d="M0,100v570" style="stroke: rgb(255, 255, 255); stroke-opacity: 1; stroke-width: 1px;"/><path class="xgrid crisp" transform="translate(971.13,0)" d="M0,100v570" style="stroke: rgb(255, 255, 255); stroke-opacity: 1; stroke-width: 1px;"/><path class="xgrid crisp" transform="translate(1075.6100000000001,0)" d="M0,100v570" style="stroke: rgb(255, 255, 255); stroke-opacity: 1; stroke-width: 1px;"/><path class="xgrid crisp" transform="translate(1180.09,0)" d="M0,100v570" style="stroke: rgb(255, 255, 255); stroke-opacity: 1; stroke-width: 1px;"/><path class="xgrid crisp" transform="translate(1318.21,0)" d="M0,100v570" style="stroke: rgb(255, 255, 255); stroke-opacity: 1; stroke-width: 1px;"/></g><g class="y"/></g><g class="zerolinelayer"/><g class="layer-between"><g class="shapelayer"/><g class="imagelayer"/></g><path class="xlines-below"/><path class="ylines-below"/><g class="overlines-below"/><g class="xaxislayer-below"/><g class="yaxislayer-below"/><g class="overaxes-below"/><g class="overplot"><g class="xy" transform="translate(80,100)" clip-path="url(#clip041ee4xyplot)"><g class="scatterlayer mlayer"><g class="trace scatter trace941466" style="stroke-miterlimit: 2; opacity: 1;"><g class="fills"/><g class="errorbars"/><g class="lines"><path class="js-line" d="M0,569.43L48.34,568L51.02,567.86L83.25,565.44L85.93,565.15L110.1,561.8L112.79,561.32L134.27,556.58L136.95,555.86L155.75,549.81L158.44,548.79L174.55,541.76L177.23,540.42L193.35,531.3L196.03,529.58L209.46,520.11L212.14,518.04L225.57,506.66L228.26,504.19L244.37,487.9L247.05,484.94L263.17,465.74L265.85,462.3L281.96,440.29L284.65,436.4L303.45,407.64L306.13,403.33L330.3,362.98L332.99,358.38L375.95,285.76L378.64,281.5L394.75,257.32L397.43,253.56L410.86,236.18L413.55,233.01L424.29,221.51L426.97,218.94L437.72,209.98L440.4,208.09L451.14,201.95L453.83,200.78L461.88,198.2L464.57,197.65L472.63,196.93L475.31,197L483.37,198.15L486.05,198.84L494.11,201.84L496.79,203.14L504.85,207.92L507.54,209.8L518.28,218.71L520.96,221.27L531.7,232.73L534.39,235.88L547.82,253.22L550.5,256.97L566.61,281.11L569.3,285.37L593.47,325.6L596.15,330.21L641.8,407.24L644.49,411.51L663.29,439.94L665.97,443.77L682.08,465.43L684.77,468.81L700.88,487.63L703.57,490.53L719.68,506.44L722.36,508.85L738.48,521.95L741.16,523.91L757.27,534.41L759.96,535.96L776.07,544.18L778.76,545.37L794.87,551.64L797.56,552.54L816.35,557.88L819.04,558.51L840.52,562.64L843.21,563.05L867.37,565.94L870.06,566.18L902.28,568.24L904.97,568.35L950.62,569.51L953.31,569.54L1031.18,569.96L1033.87,569.96L1340,570" style="vector-effect: none; fill: none; stroke: rgb(31, 119, 180); stroke-opacity: 1; stroke-width: 2px; opacity: 1;"/></g><g class="points"/><g class="text"/></g><g class="trace scatter traceafa1b2" style="stroke-miterlimit: 2; opacity: 1;"><g class="fills"/><g class="errorbars"/><g class="lines"><path class="js-line" d="M0,570L475.31,569.29L478,569.23L518.28,567.65L520.96,567.47L547.82,565.01L550.5,564.67L571.98,561.17L574.67,560.61L593.47,555.81L596.15,554.97L612.26,549.06L614.95,547.9L628.38,541.32L631.06,539.83L644.49,531.41L647.17,529.52L660.6,518.99L663.29,516.65L676.71,503.75L679.4,500.91L692.83,485.45L695.51,482.1L708.94,464L711.62,460.12L727.74,435.05L730.42,430.58L746.53,402.26L749.22,397.3L770.7,355.84L773.39,350.48L819.04,260.12L821.72,255.16L837.84,227.26L840.52,222.97L853.95,203.42L856.63,199.92L867.37,187.48L870.06,184.78L878.12,177.71L880.8,175.72L888.86,170.84L891.54,169.59L899.6,167.02L902.28,166.55L910.34,166.34L913.03,166.67L921.08,168.82L923.77,169.93L931.82,174.4L934.51,176.27L942.57,182.96L945.25,185.54L955.99,197.52L958.68,200.91L969.42,215.9L972.1,219.99L985.53,242.12L988.22,246.85L1007.01,282.1L1009.7,287.36L1068.78,403.67L1071.46,408.54L1090.26,440.67L1092.95,444.95L1109.06,468.87L1111.74,472.55L1125.17,489.64L1127.86,492.79L1141.28,507.26L1143.97,509.9L1157.39,521.88L1160.08,524.04L1173.51,533.74L1176.19,535.47L1189.62,543.15L1192.3,544.5L1208.42,551.51L1211.1,552.5L1227.21,557.57L1229.9,558.27L1248.7,562.33L1251.38,562.8L1272.87,565.71L1275.55,565.99L1305.09,568.14L1307.78,568.27L1340,569.31" style="vector-effect: none; fill: none; stroke: rgb(255, 127, 14); stroke-opacity: 1; stroke-width: 2px; opacity: 1;"/></g><g class="points"/><g class="text"/></g><g class="trace scatter traceef899e" style="stroke-miterlimit: 2;"><g class="fills"><g><path class="js-fill" d="M1340,570L0,570L0,569.43L2.69,569.39L5.37,569.34L8.06,569.29L10.74,569.24L13.43,569.18L16.11,569.12L18.8,569.06L21.48,568.99L24.17,568.92L26.85,568.84L29.54,568.75L32.22,568.66L34.91,568.57L37.6,568.47L40.28,568.36L42.97,568.25L45.65,568.13L48.34,568L51.02,567.86L53.71,567.72L56.39,567.56L59.08,567.4L61.76,567.23L64.45,567.05L67.13,566.85L69.82,566.65L72.51,566.43L75.19,566.2L77.88,565.96L80.56,565.71L83.25,565.44L85.93,565.15L88.62,564.85L91.3,564.53L93.99,564.2L96.67,563.85L99.36,563.48L102.04,563.09L104.73,562.68L107.41,562.25L110.1,561.8L112.79,561.32L115.47,560.82L118.16,560.3L120.84,559.75L123.53,559.17L126.21,558.57L128.9,557.94L131.58,557.28L134.27,556.58L136.95,555.86L139.64,555.1L142.32,554.31L145.01,553.49L147.7,552.63L150.38,551.73L153.07,550.79L155.75,549.81L158.44,548.79L161.12,547.73L163.81,546.63L166.49,545.48L169.18,544.29L171.86,543.05L174.55,541.76L177.23,540.42L179.92,539.03L182.61,537.59L185.29,536.1L187.98,534.55L190.66,532.95L193.35,531.3L196.03,529.58L198.72,527.81L201.4,525.98L204.09,524.08L206.77,522.13L209.46,520.11L212.14,518.04L214.83,515.89L217.52,513.68L220.2,511.41L222.89,509.07L225.57,506.66L228.26,504.19L230.94,501.65L233.63,499.04L236.31,496.36L239,493.61L241.68,490.79L244.37,487.9L247.05,484.94L249.74,481.92L252.42,478.82L255.11,475.65L257.8,472.42L260.48,469.12L263.17,465.74L265.85,462.3L268.54,458.8L271.22,455.22L273.91,451.58L276.59,447.88L279.28,444.12L281.96,440.29L284.65,436.4L287.33,432.46L290.02,428.45L292.71,424.39L295.39,420.28L298.08,416.11L300.76,411.9L303.45,407.64L306.13,403.33L308.82,398.98L311.5,394.59L314.19,390.16L316.87,385.7L319.56,381.21L322.24,376.69L324.93,372.14L327.62,367.57L330.3,362.98L332.99,358.38L335.67,353.76L338.36,349.14L341.04,344.51L343.73,339.88L346.41,335.25L349.1,330.63L351.78,326.03L354.47,321.43L357.15,316.86L359.84,312.31L362.53,307.79L365.21,303.3L367.9,298.85L370.58,294.44L373.27,290.08L375.95,285.76L378.64,281.5L381.32,277.3L384.01,273.16L386.69,269.08L389.38,265.08L392.06,261.16L394.75,257.32L397.43,253.56L400.12,249.89L402.81,246.31L405.49,242.83L408.18,239.45L410.86,236.18L413.55,233.01L416.23,229.96L418.92,227.02L421.6,224.2L424.29,221.51L426.97,218.94L429.66,216.5L432.34,214.19L435.03,212.02L437.72,209.98L440.4,208.09L443.09,206.33L445.77,204.73L448.46,203.26L451.14,201.95L453.83,200.78L456.51,199.77L459.2,198.91L461.88,198.2L464.57,197.65L467.25,197.25L469.94,197.01L472.63,196.93L475.31,197L478,197.23L480.68,197.61L483.37,198.15L486.05,198.84L488.74,199.69L491.42,200.68L494.11,201.84L496.79,203.14L499.48,204.58L502.16,206.18L504.85,207.92L507.54,209.8L510.22,211.83L512.91,213.99L515.59,216.28L518.28,218.71L520.96,221.27L523.65,223.95L526.33,226.76L529.02,229.68L531.7,232.73L534.39,235.88L537.07,239.15L539.76,242.52L542.44,245.99L545.13,249.56L547.82,253.22L550.5,256.97L553.19,260.8L555.87,264.72L558.56,268.71L561.24,272.78L563.93,276.91L566.61,281.11L569.3,285.37L571.98,289.68L574.67,294.04L577.35,298.44L580.04,302.89L582.73,307.38L585.41,311.89L588.1,316.44L590.78,321.01L593.47,325.6L596.15,330.21L598.84,334.83L601.52,339.45L604.21,344.08L606.89,348.71L609.58,353.34L612.26,357.95L614.95,362.56L617.64,367.15L620.32,371.72L623.01,376.27L625.69,380.79L628.38,385.29L631.06,389.75L633.75,394.19L636.43,398.58L639.12,402.93L641.8,407.24L644.49,411.51L647.17,415.73L649.86,419.9L652.55,424.02L655.23,428.08L657.92,432.09L660.6,436.04L663.29,439.94L665.97,443.77L668.66,447.54L671.34,451.25L674.03,454.89L676.71,458.47L679.4,461.98L682.08,465.43L684.77,468.81L687.45,472.12L690.14,475.36L692.83,478.53L695.51,481.64L698.2,484.67L700.88,487.63L703.57,490.53L706.25,493.35L708.94,496.11L711.62,498.79L714.31,501.41L716.99,503.96L719.68,506.44L722.36,508.85L725.05,511.2L727.74,513.48L730.42,515.69L733.11,517.84L735.79,519.93L738.48,521.95L741.16,523.91L743.85,525.81L746.53,527.64L749.22,529.42L751.9,531.14L754.59,532.8L757.27,534.41L759.96,535.96L762.65,537.46L765.33,538.9L768.02,540.3L770.7,541.64L773.39,542.93L776.07,544.18L778.76,545.37L781.44,546.53L784.13,547.63L786.81,548.7L789.5,549.72L792.18,550.7L794.87,551.64L797.56,552.54L800.24,553.41L802.93,554.24L805.61,555.03L808.3,555.79L810.98,556.52L813.67,557.21L816.35,557.88L819.04,558.51L821.72,559.12L824.41,559.7L827.09,560.25L829.78,560.77L832.46,561.28L835.15,561.75L837.84,562.21L840.52,562.64L843.21,563.05L845.89,563.44L848.58,563.82L851.26,564.17L853.95,564.5L856.63,564.82L859.32,565.12L862,565.41L864.69,565.68L867.37,565.94L870.06,566.18L872.75,566.41L875.43,566.63L878.12,566.83L880.8,567.03L883.49,567.21L886.17,567.39L888.86,567.55L891.54,567.7L894.23,567.85L896.91,567.99L899.6,568.12L902.28,568.24L904.97,568.35L907.66,568.46L910.34,568.56L913.03,568.66L915.71,568.75L918.4,568.83L921.08,568.91L923.77,568.98L926.45,569.05L929.14,569.12L931.82,569.18L934.51,569.23L937.19,569.29L939.88,569.34L942.57,569.38L945.25,569.43L947.94,569.47L950.62,569.51L953.31,569.54L955.99,569.58L958.68,569.61L961.36,569.63L964.05,569.66L966.73,569.69L969.42,569.71L972.1,569.73L974.79,569.75L977.47,569.77L980.16,569.79L982.85,569.8L985.53,569.82L988.22,569.83L990.9,569.85L993.59,569.86L996.27,569.87L998.96,569.88L1001.64,569.89L1004.33,569.9L1007.01,569.91L1009.7,569.91L1012.38,569.92L1015.07,569.93L1017.76,569.93L1020.44,569.94L1023.13,569.94L1025.81,569.95L1028.5,569.95L1031.18,569.96L1033.87,569.96L1036.55,569.96L1039.24,569.97L1041.92,569.97L1044.61,569.97L1047.29,569.97L1049.98,569.98L1052.67,569.98L1055.35,569.98L1058.04,569.98L1060.72,569.98L1063.41,569.99L1066.09,569.99L1068.78,569.99L1071.46,569.99L1074.15,569.99L1076.83,569.99L1079.52,569.99L1082.2,569.99L1084.89,569.99L1087.58,569.99L1090.26,569.99L1092.95,569.99L1095.63,570L1098.32,570L1101,570L1103.69,570L1106.37,570L1109.06,570L1111.74,570L1114.43,570L1117.11,570L1119.8,570L1122.48,570L1125.17,570L1127.86,570L1130.54,570L1133.23,570L1135.91,570L1138.6,570L1141.28,570L1143.97,570L1146.65,570L1149.34,570L1152.02,570L1154.71,570L1157.39,570L1160.08,570L1162.77,570L1165.45,570L1168.14,570L1170.82,570L1173.51,570L1176.19,570L1178.88,570L1181.56,570L1184.25,570L1186.93,570L1189.62,570L1192.3,570L1194.99,570L1197.68,570L1200.36,570L1203.05,570L1205.73,570L1208.42,570L1211.1,570L1213.79,570L1216.47,570L1219.16,570L1221.84,570L1224.53,570L1227.21,570L1229.9,570L1232.59,570L1235.27,570L1237.96,570L1240.64,570L1243.33,570L1246.01,570L1248.7,570L1251.38,570L1254.07,570L1256.75,570L1259.44,570L1262.12,570L1264.81,570L1267.49,570L1270.18,570L1272.87,570L1275.55,570L1278.24,570L1280.92,570L1283.61,570L1286.29,570L1288.98,570L1291.66,570L1294.35,570L1297.03,570L1299.72,570L1302.4,570L1305.09,570L1307.78,570L1310.46,570L1313.15,570L1315.83,570L1318.52,570L1321.2,570L1323.89,570L1326.57,570L1329.26,570L1331.94,570L1334.63,570L1337.31,570L1340,570" style="fill: rgb(103, 177, 229); fill-opacity: 1; stroke-width: 0;"/></g></g><g class="errorbars"/><g class="lines"/><g class="points"/><g class="text"/></g><g class="trace scatter trace997e4c" style="stroke-miterlimit: 2;"><g class="fills"><g><path class="js-fill" d="M1340,570L0,570L0,570L2.69,570L5.37,570L8.06,570L10.74,570L13.43,570L16.11,570L18.8,570L21.48,570L24.17,570L26.85,570L29.54,570L32.22,570L34.91,570L37.6,570L40.28,570L42.97,570L45.65,570L48.34,570L51.02,570L53.71,570L56.39,570L59.08,570L61.76,570L64.45,570L67.13,570L69.82,570L72.51,570L75.19,570L77.88,570L80.56,570L83.25,570L85.93,570L88.62,570L91.3,570L93.99,570L96.67,570L99.36,570L102.04,570L104.73,570L107.41,570L110.1,570L112.79,570L115.47,570L118.16,570L120.84,570L123.53,570L126.21,570L128.9,570L131.58,570L134.27,570L136.95,570L139.64,570L142.32,570L145.01,570L147.7,570L150.38,570L153.07,570L155.75,570L158.44,570L161.12,570L163.81,570L166.49,570L169.18,570L171.86,570L174.55,570L177.23,570L179.92,570L182.61,570L185.29,570L187.98,570L190.66,570L193.35,570L196.03,570L198.72,570L201.4,570L204.09,570L206.77,570L209.46,570L212.14,570L214.83,570L217.52,570L220.2,570L222.89,570L225.57,570L228.26,570L230.94,570L233.63,570L236.31,570L239,570L241.68,570L244.37,570L247.05,570L249.74,570L252.42,570L255.11,570L257.8,570L260.48,570L263.17,570L265.85,570L268.54,570L271.22,570L273.91,570L276.59,570L279.28,570L281.96,570L284.65,570L287.33,570L290.02,570L292.71,570L295.39,570L298.08,570L300.76,570L303.45,570L306.13,570L308.82,570L311.5,570L314.19,570L316.87,570L319.56,570L322.24,570L324.93,570L327.62,570L330.3,570L332.99,569.99L335.67,569.99L338.36,569.99L341.04,569.99L343.73,569.99L346.41,569.99L349.1,569.99L351.78,569.99L354.47,569.99L357.15,569.99L359.84,569.98L362.53,569.98L365.21,569.98L367.9,569.98L370.58,569.98L373.27,569.98L375.95,569.97L378.64,569.97L381.32,569.97L384.01,569.96L386.69,569.96L389.38,569.96L392.06,569.95L394.75,569.95L397.43,569.94L400.12,569.94L402.81,569.93L405.49,569.92L408.18,569.92L410.86,569.91L413.55,569.9L416.23,569.89L418.92,569.88L421.6,569.87L424.29,569.85L426.97,569.84L429.66,569.83L432.34,569.81L435.03,569.79L437.72,569.78L440.4,569.76L443.09,569.73L445.77,569.71L448.46,569.69L451.14,569.66L453.83,569.63L456.51,569.6L459.2,569.56L461.88,569.52L464.57,569.48L467.25,569.44L469.94,569.39L472.63,569.34L475.31,569.29L478,569.23L480.68,569.17L483.37,569.1L486.05,569.03L488.74,568.95L491.42,568.87L494.11,568.78L496.79,568.69L499.48,568.59L502.16,568.48L504.85,568.36L507.54,568.24L510.22,568.1L512.91,567.96L515.59,567.81L518.28,567.65L520.96,567.47L523.65,567.29L526.33,567.09L529.02,566.89L531.7,566.66L534.39,566.43L537.07,566.18L539.76,565.91L542.44,565.63L545.13,565.33L547.82,565.01L550.5,564.67L553.19,564.31L555.87,563.94L558.56,563.54L561.24,563.11L563.93,562.66L566.61,562.19L569.3,561.69L571.98,561.17L574.67,560.61L577.35,560.03L580.04,559.41L582.73,558.76L585.41,558.08L588.1,557.36L590.78,556.6L593.47,555.81L596.15,554.97L598.84,554.1L601.52,553.18L604.21,552.22L606.89,551.21L609.58,550.16L612.26,549.06L614.95,547.9L617.64,546.7L620.32,545.44L623.01,544.12L625.69,542.75L628.38,541.32L631.06,539.83L633.75,538.28L636.43,536.66L639.12,534.98L641.8,533.23L644.49,531.41L647.17,529.52L649.86,527.57L652.55,525.53L655.23,523.43L657.92,521.25L660.6,518.99L663.29,516.65L665.97,514.23L668.66,511.74L671.34,509.16L674.03,506.49L676.71,503.75L679.4,500.91L682.08,498L684.77,494.99L687.45,491.9L690.14,488.72L692.83,485.45L695.51,482.1L698.2,478.66L700.88,475.12L703.57,471.5L706.25,467.8L708.94,464L711.62,460.12L714.31,456.15L716.99,452.1L719.68,447.96L722.36,443.73L725.05,439.43L727.74,435.05L730.42,430.58L733.11,426.04L735.79,421.43L738.48,416.74L741.16,411.98L743.85,407.15L746.53,402.26L749.22,397.3L751.9,392.29L754.59,387.22L757.27,382.1L759.96,376.93L762.65,371.71L765.33,366.46L768.02,361.16L770.7,355.84L773.39,350.48L776.07,345.11L778.76,339.71L781.44,334.3L784.13,328.88L786.81,323.46L789.5,318.03L792.18,312.62L794.87,307.22L797.56,301.83L800.24,296.47L802.93,291.14L805.61,285.85L808.3,280.6L810.98,275.39L813.67,270.24L816.35,265.15L819.04,260.12L821.72,255.16L824.41,250.28L827.09,245.49L829.78,240.78L832.46,236.17L835.15,231.66L837.84,227.26L840.52,222.97L843.21,218.8L845.89,214.76L848.58,210.84L851.26,207.06L853.95,203.42L856.63,199.92L859.32,196.58L862,193.39L864.69,190.35L867.37,187.48L870.06,184.78L872.75,182.25L875.43,179.89L878.12,177.71L880.8,175.72L883.49,173.9L886.17,172.28L888.86,170.84L891.54,169.59L894.23,168.54L896.91,167.68L899.6,167.02L902.28,166.55L904.97,166.28L907.66,166.21L910.34,166.34L913.03,166.67L915.71,167.19L918.4,167.91L921.08,168.82L923.77,169.93L926.45,171.23L929.14,172.72L931.82,174.4L934.51,176.27L937.19,178.32L939.88,180.55L942.57,182.96L945.25,185.54L947.94,188.29L950.62,191.21L953.31,194.28L955.99,197.52L958.68,200.91L961.36,204.45L964.05,208.13L966.73,211.95L969.42,215.9L972.1,219.99L974.79,224.19L977.47,228.51L980.16,232.94L982.85,237.48L985.53,242.12L988.22,246.85L990.9,251.67L993.59,256.57L996.27,261.55L998.96,266.6L1001.64,271.71L1004.33,276.88L1007.01,282.1L1009.7,287.36L1012.38,292.67L1015.07,298.01L1017.76,303.37L1020.44,308.76L1023.13,314.17L1025.81,319.59L1028.5,325.01L1031.18,330.43L1033.87,335.85L1036.55,341.26L1039.24,346.65L1041.92,352.02L1044.61,357.37L1047.29,362.68L1049.98,367.97L1052.67,373.21L1055.35,378.42L1058.04,383.57L1060.72,388.68L1063.41,393.73L1066.09,398.73L1068.78,403.67L1071.46,408.54L1074.15,413.35L1076.83,418.09L1079.52,422.76L1082.2,427.35L1084.89,431.87L1087.58,436.31L1090.26,440.67L1092.95,444.95L1095.63,449.15L1098.32,453.27L1101,457.3L1103.69,461.24L1106.37,465.1L1109.06,468.87L1111.74,472.55L1114.43,476.14L1117.11,479.65L1119.8,483.07L1122.48,486.4L1125.17,489.64L1127.86,492.79L1130.54,495.86L1133.23,498.84L1135.91,501.73L1138.6,504.54L1141.28,507.26L1143.97,509.9L1146.65,512.46L1149.34,514.93L1152.02,517.33L1154.71,519.64L1157.39,521.88L1160.08,524.04L1162.77,526.12L1165.45,528.13L1168.14,530.07L1170.82,531.94L1173.51,533.74L1176.19,535.47L1178.88,537.13L1181.56,538.73L1184.25,540.26L1186.93,541.74L1189.62,543.15L1192.3,544.5L1194.99,545.8L1197.68,547.05L1200.36,548.24L1203.05,549.38L1205.73,550.47L1208.42,551.51L1211.1,552.5L1213.79,553.45L1216.47,554.35L1219.16,555.22L1221.84,556.04L1224.53,556.82L1227.21,557.57L1229.9,558.27L1232.59,558.95L1235.27,559.59L1237.96,560.2L1240.64,560.77L1243.33,561.32L1246.01,561.84L1248.7,562.33L1251.38,562.8L1254.07,563.24L1256.75,563.65L1259.44,564.05L1262.12,564.42L1264.81,564.77L1267.49,565.1L1270.18,565.41L1272.87,565.71L1275.55,565.99L1278.24,566.25L1280.92,566.5L1283.61,566.73L1286.29,566.95L1288.98,567.15L1291.66,567.34L1294.35,567.52L1297.03,567.69L1299.72,567.85L1302.4,568L1305.09,568.14L1307.78,568.27L1310.46,568.39L1313.15,568.51L1315.83,568.62L1318.52,568.72L1321.2,568.81L1323.89,568.9L1326.57,568.98L1329.26,569.05L1331.94,569.12L1334.63,569.19L1337.31,569.25L1340,569.31" style="fill: rgb(255, 160, 77); fill-opacity: 1; stroke-width: 0;"/></g></g><g class="errorbars"/><g class="lines"/><g class="points"/><g class="text"/></g></g></g></g><path class="xlines-above crisp" d="" style="fill: none; stroke-width: 1px; stroke: rgb(0, 0, 0); stroke-opacity: 0;"/><path class="ylines-above crisp" d="M0,0" style="fill: none;"/><g class="overlines-above"/><g class="xaxislayer-above"><path class="xtick ticks crisp" d="M0,671v5" transform="translate(381.46,0)" style="stroke: rgb(128, 128, 128); stroke-opacity: 1; stroke-width: 1px;"/><path class="xtick ticks crisp" d="M0,671v5" transform="translate(485.94,0)" style="stroke: rgb(128, 128, 128); stroke-opacity: 1; stroke-width: 1px;"/><path class="xtick ticks crisp" d="M0,671v5" transform="translate(624.06,0)" style="stroke: rgb(128, 128, 128); stroke-opacity: 1; stroke-width: 1px;"/><path class="xtick ticks crisp" d="M0,671v5" transform="translate(728.54,0)" style="stroke: rgb(128, 128, 128); stroke-opacity: 1; stroke-width: 1px;"/><path class="xtick ticks crisp" d="M0,671v5" transform="translate(833.02,0)" style="stroke: rgb(128, 128, 128); stroke-opacity: 1; stroke-width: 1px;"/><path class="xtick ticks crisp" d="M0,671v5" transform="translate(971.13,0)" style="stroke: rgb(128, 128, 128); stroke-opacity: 1; stroke-width: 1px;"/><path class="xtick ticks crisp" d="M0,671v5" transform="translate(1075.6100000000001,0)" style="stroke: rgb(128, 128, 128); stroke-opacity: 1; stroke-width: 1px;"/><path class="xtick ticks crisp" d="M0,671v5" transform="translate(1180.09,0)" style="stroke: rgb(128, 128, 128); stroke-opacity: 1; stroke-width: 1px;"/><path class="xtick ticks crisp" d="M0,671v5" transform="translate(1318.21,0)" style="stroke: rgb(128, 128, 128); stroke-opacity: 1; stroke-width: 1px;"/><g class="xtick"><text text-anchor="middle" x="0" y="690.4" transform="translate(381.46,0)" style="font-family: 'Open Sans', verdana, arial, sans-serif; font-size: 12px; fill: rgb(128, 128, 128); fill-opacity: 1; white-space: pre; opacity: 1;">1</text></g><g class="xtick"><text text-anchor="middle" x="0" y="690.4" style="font-family: 'Open Sans', verdana, arial, sans-serif; font-size: 12px; fill: rgb(128, 128, 128); fill-opacity: 1; white-space: pre; opacity: 1;" transform="translate(485.94,0)">2</text></g><g class="xtick"><text text-anchor="middle" x="0" y="690.4" style="font-family: 'Open Sans', verdana, arial, sans-serif; font-size: 12px; fill: rgb(128, 128, 128); fill-opacity: 1; white-space: pre; opacity: 1;" transform="translate(624.06,0)">5</text></g><g class="xtick"><text text-anchor="middle" x="0" y="690.4" style="font-family: 'Open Sans', verdana, arial, sans-serif; font-size: 12px; fill: rgb(128, 128, 128); fill-opacity: 1; white-space: pre; opacity: 1;" transform="translate(728.54,0)">10</text></g><g class="xtick"><text text-anchor="middle" x="0" y="690.4" style="font-family: 'Open Sans', verdana, arial, sans-serif; font-size: 12px; fill: rgb(128, 128, 128); fill-opacity: 1; white-space: pre; opacity: 1;" transform="translate(833.02,0)">20</text></g><g class="xtick"><text text-anchor="middle" x="0" y="690.4" style="font-family: 'Open Sans', verdana, arial, sans-serif; font-size: 12px; fill: rgb(128, 128, 128); fill-opacity: 1; white-space: pre; opacity: 1;" transform="translate(971.13,0)">50</text></g><g class="xtick"><text text-anchor="middle" x="0" y="690.4" style="font-family: 'Open Sans', verdana, arial, sans-serif; font-size: 12px; fill: rgb(128, 128, 128); fill-opacity: 1; white-space: pre; opacity: 1;" transform="translate(1075.6100000000001,0)">100</text></g><g class="xtick"><text text-anchor="middle" x="0" y="690.4" style="font-family: 'Open Sans', verdana, arial, sans-serif; font-size: 12px; fill: rgb(128, 128, 128); fill-opacity: 1; white-space: pre; opacity: 1;" transform="translate(1180.09,0)">200</text></g><g class="xtick"><text text-anchor="middle" x="0" y="690.4" style="font-family: 'Open Sans', verdana, arial, sans-serif; font-size: 12px; fill: rgb(128, 128, 128); fill-opacity: 1; white-space: pre; opacity: 1;" transform="translate(1318.21,0)">500</text></g></g><g class="yaxislayer-above"/><g class="overaxes-above"/></g></g><g class="polarlayer"/><g class="smithlayer"/><g class="ternarylayer"/><g class="geolayer"/><g class="funnelarealayer"/><g class="pielayer"/><g class="iciclelayer"/><g class="treemaplayer"/><g class="sunburstlayer"/><g class="glimages"/><defs id="topdefs-041ee4"><g class="clips"/></defs><g class="layer-above"><g class="imagelayer"/><g class="shapelayer"><g class="shape-group" data-index="0" clip-path="url(#clip041ee4x)"><path data-index="0" fill-rule="evenodd" d="M550.14,670L550.14,100" style="opacity: 1; stroke: rgb(128, 128, 128); stroke-opacity: 1; fill: rgb(0, 0, 0); fill-opacity: 0; stroke-dasharray: 3px, 3px; stroke-width: 0.5px;"/></g><g class="shape-group" data-index="1" clip-path="url(#clip041ee4x)"><path data-index="1" fill-rule="evenodd" d="M991.12,670L991.12,100" style="opacity: 1; stroke: rgb(128, 128, 128); stroke-opacity: 1; fill: rgb(0, 0, 0); fill-opacity: 0; stroke-dasharray: 3px, 3px; stroke-width: 0.5px;"/></g><g class="shape-group" data-index="2" clip-path="url(#clip041ee4x)"><path data-index="2" fill-rule="evenodd" d="M496.84,670L496.84,100" style="opacity: 1; stroke: rgb(255, 0, 0); stroke-opacity: 1; fill: rgb(0, 0, 0); fill-opacity: 0; stroke-dasharray: 3px, 3px; stroke-width: 0.5px;"/></g><g class="shape-group" data-index="3" clip-path="url(#clip041ee4x)"><path data-index="3" fill-rule="evenodd" d="M826.64,670L826.64,100" style="opacity: 1; stroke: rgb(0, 0, 0); stroke-opacity: 1; fill: rgb(0, 0, 0); fill-opacity: 0; stroke-dasharray: 3px, 3px; stroke-width: 0.5px;"/></g><g class="shape-group" data-index="4" clip-path="url(#clip041ee4x)"><path data-index="4" fill-rule="evenodd" d="M698.63,670L698.63,100" style="opacity: 1; stroke: rgb(0, 0, 0); stroke-opacity: 1; fill: rgb(0, 0, 0); fill-opacity: 0; stroke-dasharray: 3px, 3px; stroke-width: 0.5px;"/></g><g class="shape-group" data-index="5" clip-path="url(#clip041ee4y)"><path data-index="5" fill-rule="evenodd" d="M80,670L1420,670" style="opacity: 1; stroke: rgb(128, 128, 128); stroke-opacity: 1; fill: rgb(0, 0, 0); fill-opacity: 0; stroke-width: 2px;"/></g></g></g><g class="infolayer"><g class="g-gtitle"><text class="gtitle" x="75" y="50" text-anchor="start" dy="0em" style="opacity: 1; font-family: 'Open Sans', verdana, arial, sans-serif; font-size: 17px; fill: rgb(42, 63, 95); fill-opacity: 1; white-space: pre;">Density curve of income for Ethiopia and Denmark</text></g><g class="g-xtitle"><text class="xtitle" x="750" y="717.20625" text-anchor="middle" style="opacity: 1; font-family: 'Open Sans', verdana, arial, sans-serif; font-size: 14px; fill: rgb(128, 128, 128); fill-opacity: 1; white-space: pre;">Income (log scale)</text></g><g class="annotation" data-index="0" style="opacity: 1;"><g class="annotation-text-g" transform="rotate(0,619.64,125)"><g class="cursor-pointer" transform="translate(550,100)"><rect class="bg" x="0.5" y="0.5" width="138" height="49" style="stroke-width: 1px; stroke: rgb(0, 0, 0); stroke-opacity: 0; fill: rgb(0, 0, 0); fill-opacity: 0;"/><text class="annotation-text" text-anchor="start" x="2" y="14" style="font-family: 'Open Sans', verdana, arial, sans-serif; font-size: 12px; fill: rgb(42, 63, 95); fill-opacity: 1; white-space: pre;"><tspan class="line" dy="0em" x="2" y="14"><tspan style="font-weight:bold">Ethiopia (2015)</tspan></tspan><tspan class="line" dy="1.3em" x="2" y="14">Median income: $3.10</tspan><tspan class="line" dy="2.6em" x="2" y="14">Mean income: $3.70</tspan></text></g></g></g><g class="annotation" data-index="1" style="opacity: 1;"><g class="annotation-text-g" transform="rotate(0,918.12,125)"><g class="cursor-pointer" transform="translate(845,100)"><rect class="bg" x="0.5" y="0.5" width="145" height="49" style="stroke-width: 1px; stroke: rgb(0, 0, 0); stroke-opacity: 0; fill: rgb(0, 0, 0); fill-opacity: 0;"/><text class="annotation-text" text-anchor="end" x="144.484375" y="14" style="font-family: 'Open Sans', verdana, arial, sans-serif; font-size: 12px; fill: rgb(42, 63, 95); fill-opacity: 1; white-space: pre;"><tspan class="line" dy="0em" x="144.484375" y="14"><tspan style="font-weight:bold">Denmark (2021)</tspan></tspan><tspan class="line" dy="1.3em" x="144.484375" y="14">Median income: $57.10</tspan><tspan class="line" dy="2.6em" x="144.484375" y="14">Mean income: $66.20</tspan></text></g></g></g><g class="annotation" data-index="2" style="opacity: 1;"><g class="annotation-text-g" transform="rotate(-90,506.34,589.5)"><g class="cursor-pointer" transform="translate(426,580)"><rect class="bg" x="0.5" y="0.5" width="160" height="18" style="stroke-width: 1px; stroke: rgb(0, 0, 0); stroke-opacity: 0; fill: rgb(0, 0, 0); fill-opacity: 0;"/><text class="annotation-text" text-anchor="middle" x="80.359375" y="14" style="font-family: 'Open Sans', verdana, arial, sans-serif; font-size: 12px; fill: rgb(42, 63, 95); fill-opacity: 1; white-space: pre;">International Poverty Line</text></g></g></g><g class="annotation" data-index="3" style="opacity: 1;"><g class="annotation-text-g" transform="rotate(-90,836.14,605.5)"><g class="cursor-pointer" transform="translate(772,596)"><rect class="bg" x="0.5" y="0.5" width="128" height="18" style="stroke-width: 1px; stroke: rgb(0, 0, 0); stroke-opacity: 0; fill: rgb(0, 0, 0); fill-opacity: 0;"/><text class="annotation-text" text-anchor="middle" x="64.53125" y="14" style="font-family: 'Open Sans', verdana, arial, sans-serif; font-size: 12px; fill: rgb(42, 63, 95); fill-opacity: 1; white-space: pre;">World mean: $19.20</text></g></g></g><g class="annotation" data-index="4" style="opacity: 1;"><g class="annotation-text-g" transform="rotate(-90,708.13,604)"><g class="cursor-pointer" transform="translate(642,595)"><rect class="bg" x="0.5" y="0.5" width="131" height="18" style="stroke-width: 1px; stroke: rgb(0, 0, 0); stroke-opacity: 0; fill: rgb(0, 0, 0); fill-opacity: 0;"/><text class="annotation-text" text-anchor="middle" x="66.109375" y="14" style="font-family: 'Open Sans', verdana, arial, sans-serif; font-size: 12px; fill: rgb(42, 63, 95); fill-opacity: 1; white-space: pre;">World median: $8.20</text></g></g></g></g></svg>