<svg class="main-svg" xmlns="http://www.w3.org/2000/svg" xmlns:xlink="http://www.w3.org/1999/xlink" width="1500" height="750" style="" viewBox="0 0 1500 750"><rect x="0" y="0" width="1500" height="750" style="fill: rgb(255, 255, 255); fill-opacity: 1;"/><defs id="defs-cb2b04"><g class="clips"><clipPath id="clipcb2b04xyplot" class="plotclip"><rect width="1340" height="570"/></clipPath><clipPath class="axesclip" id="clipcb2b04x"><rect x="80" y="0" width="1340" height="750"/></clipPath><clipPath class="axesclip" id="clipcb2b04y"><rect x="0" y="100" width="1500" height="570"/></clipPath><clipPath class="axesclip" id="clipcb2b04xy"><rect x="80" y="100" width="1340" height="570"/></clipPath></g><g class="gradients"/><g class="patterns"/></defs><g class="bglayer"><rect class="bg" x="80" y="100" width="1340" height="570" style="fill: rgb(0, 0, 0); fill-opacity: 0; stroke-width: 0;"/></g><g class="layer-below"><g class="imagelayer"/><g class="shapelayer"/></g><g class="cartesianlayer"><g class="subplot xy"><g class="layer-subplot"><g class="shapelayer"/><g class="imagelayer"/></g><g class="minor-gridlayer"><g class="x"/><g class="y"/></g><g class="gridlayer"><g class="x"><path class="xgrid crisp" transform="translate(182.01999999999998,0)" d="M0,100v570" style="stroke: rgb(255, 255, 255); stroke-opacity: 1; stroke-width: 1px;"/><path class="xgrid crisp" transform="translate(325.24,0)" d="M0,100v570" style="stroke: rgb(255, 255, 255); stroke-opacity: 1; stroke-width: 1px;"/><path class="xgrid crisp" transform="translate(514.5699999999999,0)" d="M0,100v570" style="stroke: rgb(255, 255, 255); stroke-opacity: 1; stroke-width: 1px;"/><path class="xgrid crisp" transform="translate(657.8,0)" d="M0,100v570" style="stroke: rgb(255, 255, 255); stroke-opacity: 1; stroke-width: 1px;"/><path class="xgrid crisp" transform="translate(801.02,0)" d="M0,100v570" style="stroke: rgb(255, 255, 255); stroke-opacity: 1; stroke-width: 1px;"/><path class="xgrid crisp" transform="translate(990.35,0)" d="M0,100v570" style="stroke: rgb(255, 255, 255); stroke-opacity: 1; stroke-width: 1px;"/><path class="xgrid crisp" transform="translate(1133.57,0)" d="M0,100v570" style="stroke: rgb(255, 255, 255); stroke-opacity: 1; stroke-width: 1px;"/><path class="xgrid crisp" transform="translate(1276.8,0)" d="M0,100v570" style="stroke: rgb(255, 255, 255); stroke-opacity: 1; stroke-width: 1px;"/></g><g class="y"/></g><g class="zerolinelayer"/><g class="layer-between"><g class="shapelayer"/><g class="imagelayer"/></g><path class="xlines-below"/><path class="ylines-below"/><g class="overlines-below"/><g class="xaxislayer-below"/><g class="yaxislayer-below"/><g class="overaxes-below"/><g class="overplot"><g class="xy" transform="translate(80,100)" clip-path="url(#clipcb2b04xyplot)"><g class="scatterlayer mlayer"><g class="trace scatter trace2d3945" style="stroke-miterlimit: 2; opacity: 1;"><g class="fills"/><g class="errorbars"/><g class="lines"><path class="js-line" d="M0,549.53L15.76,542.68L17.19,541.97L31.52,534.06L32.96,533.18L47.29,523.42L48.72,522.34L63.05,510.5L64.48,509.21L78.81,495.12L80.24,493.59L93.14,478.88L94.57,477.14L110.33,456.52L111.77,454.52L127.53,431.14L128.96,428.89L147.59,398.11L149.02,395.63L173.38,351.64L174.81,348.98L224.97,256.98L226.4,254.55L242.16,229.23L243.59,227.08L256.49,209.09L257.92,207.26L269.39,193.89L270.82,192.39L280.85,183.06L282.28,181.9L292.31,175.01L293.75,174.21L302.34,170.4L303.78,169.93L312.37,168.13L313.81,168L322.4,168.26L323.84,168.47L332.43,170.78L333.87,171.33L342.46,175.64L343.9,176.52L352.49,182.76L353.93,183.95L363.96,193.5L365.39,195.03L376.85,208.61L378.29,210.47L391.18,228.67L392.62,230.84L408.38,256.35L409.81,258.8L431.3,297.34L432.74,300L485.75,397.47L487.19,399.94L505.82,430.56L507.25,432.79L524.44,457.99L525.88,459.96L541.64,480.16L543.07,481.87L557.4,497.72L558.83,499.19L573.16,512.71L574.59,513.94L588.92,525.25L590.36,526.27L604.69,535.55L606.12,536.39L620.45,543.87L621.88,544.54L637.64,551L639.08,551.51L656.27,556.81L657.7,557.18L677.76,561.56L679.2,561.81L702.12,565.08L703.56,565.24L715.02,566.35" style="vector-effect: none; fill: none; stroke: rgb(31, 119, 180); stroke-opacity: 1; stroke-width: 2px; opacity: 1;"/></g><g class="points"/><g class="text"/></g><g class="trace scatter tracef9ff99" style="stroke-miterlimit: 2; opacity: 1;"><g class="fills"/><g class="errorbars"/><g class="lines"><path class="js-line" d="M583.61,568.46L612.41,566.22L613.92,566.04L633.63,563.02L635.15,562.72L653.34,558.11L654.85,557.63L668.49,552.52L670.01,551.85L682.14,545.71L683.65,544.83L695.78,536.82L697.29,535.68L707.9,526.84L709.42,525.44L720.03,514.6L721.55,512.9L733.67,497.81L735.19,495.73L745.8,479.94L747.32,477.51L759.44,456.35L760.96,453.5L774.6,425.73L776.12,422.42L791.27,386.92L792.79,383.15L809.46,339.36L810.98,335.2L835.23,266.21L836.75,261.83L862.52,189.33L864.03,185.29L879.19,147.43L880.71,143.93L891.32,121.29L892.83,118.34L903.44,99.9L904.96,97.6L912.54,87.45L914.06,85.7L921.63,78.41L923.15,77.24L929.21,73.61L930.73,72.95L936.79,71.38L938.31,71.25L944.37,71.77L945.89,72.16L951.95,74.76L953.47,75.66L959.53,80.3L961.05,81.71L968.62,90.2L970.14,92.19L977.72,103.44L979.24,105.95L988.33,122.72L989.85,125.78L1000.46,149.1L1001.97,152.68L1015.62,187.2L1017.13,191.25L1036.84,246.41L1038.35,250.78L1076.25,357.64L1077.76,361.64L1094.44,403.31L1095.95,406.87L1111.11,440L1112.63,443.06L1124.75,465.9L1126.27,468.55L1138.4,488.05L1139.91,490.28L1152.04,506.57L1153.55,508.42L1165.68,521.74L1167.2,523.23L1179.32,533.89L1180.84,535.07L1192.97,543.44L1194.48,544.36L1208.12,551.49L1209.64,552.17L1223.28,557.37L1224.8,557.86L1239.96,561.9L1241.47,562.24L1261.18,565.57L1262.69,565.76L1285.43,567.88L1286.95,567.98L1317.26,569.26L1318.78,569.3L1340,569.67" style="vector-effect: none; fill: none; stroke: rgb(255, 127, 14); stroke-opacity: 1; stroke-width: 2px; opacity: 1;"/></g><g class="points"/><g class="text"/></g><g class="trace scatter tracebb6358" style="stroke-miterlimit: 2;"><g class="fills"><g><path class="js-fill" d="M715.02,570L0,570L0,549.53L1.43,548.98L2.87,548.41L4.3,547.82L5.73,547.23L7.16,546.62L8.6,546L10.03,545.36L11.46,544.71L12.9,544.05L14.33,543.37L15.76,542.68L17.19,541.97L18.63,541.25L20.06,540.51L21.49,539.76L22.93,539L24.36,538.21L25.79,537.42L27.23,536.6L28.66,535.77L30.09,534.92L31.52,534.06L32.96,533.18L34.39,532.28L35.82,531.37L37.26,530.44L38.69,529.49L40.12,528.52L41.55,527.54L42.99,526.53L44.42,525.51L45.85,524.47L47.29,523.42L48.72,522.34L50.15,521.24L51.58,520.13L53.02,518.99L54.45,517.84L55.88,516.67L57.32,515.47L58.75,514.26L60.18,513.03L61.61,511.78L63.05,510.5L64.48,509.21L65.91,507.89L67.35,506.56L68.78,505.2L70.21,503.83L71.65,502.43L73.08,501.01L74.51,499.57L75.94,498.11L77.38,496.62L78.81,495.12L80.24,493.59L81.68,492.05L83.11,490.48L84.54,488.89L85.97,487.27L87.41,485.64L88.84,483.98L90.27,482.3L91.71,480.6L93.14,478.88L94.57,477.14L96,475.37L97.44,473.58L98.87,471.78L100.3,469.94L101.74,468.09L103.17,466.22L104.6,464.32L106.03,462.4L107.47,460.47L108.9,458.51L110.33,456.52L111.77,454.52L113.2,452.5L114.63,450.45L116.07,448.39L117.5,446.3L118.93,444.19L120.36,442.07L121.8,439.92L123.23,437.75L124.66,435.57L126.1,433.36L127.53,431.14L128.96,428.89L130.39,426.63L131.83,424.35L133.26,422.05L134.69,419.73L136.13,417.39L137.56,415.04L138.99,412.67L140.42,410.28L141.86,407.88L143.29,405.46L144.72,403.02L146.16,400.57L147.59,398.11L149.02,395.63L150.45,393.13L151.89,390.62L153.32,388.1L154.75,385.57L156.19,383.02L157.62,380.46L159.05,377.89L160.49,375.31L161.92,372.71L163.35,370.11L164.78,367.5L166.22,364.87L167.65,362.24L169.08,359.6L170.52,356.96L171.95,354.3L173.38,351.64L174.81,348.98L176.25,346.31L177.68,343.63L179.11,340.95L180.55,338.27L181.98,335.58L183.41,332.89L184.84,330.2L186.28,327.51L187.71,324.82L189.14,322.13L190.58,319.44L192.01,316.75L193.44,314.06L194.87,311.38L196.31,308.7L197.74,306.02L199.17,303.35L200.61,300.69L202.04,298.03L203.47,295.38L204.91,292.74L206.34,290.1L207.77,287.48L209.2,284.86L210.64,282.26L212.07,279.67L213.5,277.09L214.94,274.52L216.37,271.97L217.8,269.43L219.23,266.91L220.67,264.4L222.1,261.91L223.53,259.44L224.97,256.98L226.4,254.55L227.83,252.13L229.26,249.74L230.7,247.36L232.13,245.01L233.56,242.68L235,240.38L236.43,238.1L237.86,235.84L239.3,233.61L240.73,231.4L242.16,229.23L243.59,227.08L245.03,224.95L246.46,222.86L247.89,220.8L249.33,218.77L250.76,216.77L252.19,214.8L253.62,212.86L255.06,210.96L256.49,209.09L257.92,207.26L259.36,205.46L260.79,203.69L262.22,201.97L263.65,200.28L265.09,198.62L266.52,197.01L267.95,195.43L269.39,193.89L270.82,192.39L272.25,190.94L273.68,189.52L275.12,188.14L276.55,186.81L277.98,185.52L279.42,184.27L280.85,183.06L282.28,181.9L283.72,180.78L285.15,179.71L286.58,178.68L288.01,177.69L289.45,176.76L290.88,175.86L292.31,175.01L293.75,174.21L295.18,173.46L296.61,172.75L298.04,172.09L299.48,171.48L300.91,170.92L302.34,170.4L303.78,169.93L305.21,169.51L306.64,169.14L308.07,168.81L309.51,168.54L310.94,168.31L312.37,168.13L313.81,168L315.24,167.92L316.67,167.89L318.1,167.91L319.54,167.98L320.97,168.1L322.4,168.26L323.84,168.47L325.27,168.74L326.7,169.05L328.14,169.41L329.57,169.82L331,170.27L332.43,170.78L333.87,171.33L335.3,171.93L336.73,172.58L338.17,173.27L339.6,174.01L341.03,174.8L342.46,175.64L343.9,176.52L345.33,177.45L346.76,178.42L348.2,179.44L349.63,180.5L351.06,181.61L352.49,182.76L353.93,183.95L355.36,185.19L356.79,186.47L358.23,187.8L359.66,189.16L361.09,190.57L362.52,192.01L363.96,193.5L365.39,195.03L366.82,196.6L368.26,198.2L369.69,199.84L371.12,201.52L372.56,203.24L373.99,205L375.42,206.79L376.85,208.61L378.29,210.47L379.72,212.37L381.15,214.3L382.59,216.26L384.02,218.25L385.45,220.27L386.88,222.33L388.32,224.41L389.75,226.52L391.18,228.67L392.62,230.84L394.05,233.04L395.48,235.26L396.91,237.51L398.35,239.78L399.78,242.08L401.21,244.41L402.65,246.75L404.08,249.12L405.51,251.51L406.94,253.92L408.38,256.35L409.81,258.8L411.24,261.27L412.68,263.75L414.11,266.26L415.54,268.78L416.98,271.31L418.41,273.86L419.84,276.42L421.27,279L422.71,281.59L424.14,284.19L425.57,286.8L427.01,289.42L428.44,292.06L429.87,294.7L431.3,297.34L432.74,300L434.17,302.66L435.6,305.33L437.04,308.01L438.47,310.69L439.9,313.37L441.33,316.05L442.77,318.74L444.2,321.43L445.63,324.12L447.07,326.81L448.5,329.51L449.93,332.2L451.36,334.89L452.8,337.57L454.23,340.26L455.66,342.94L457.1,345.61L458.53,348.29L459.96,350.95L461.4,353.62L462.83,356.27L464.26,358.92L465.69,361.56L467.13,364.19L468.56,366.82L469.99,369.43L471.43,372.04L472.86,374.64L474.29,377.22L475.72,379.8L477.16,382.36L478.59,384.91L480.02,387.45L481.46,389.97L482.89,392.49L484.32,394.98L485.75,397.47L487.19,399.94L488.62,402.39L490.05,404.83L491.49,407.26L492.92,409.66L494.35,412.05L495.78,414.43L497.22,416.79L498.65,419.13L500.08,421.45L501.52,423.75L502.95,426.04L504.38,428.31L505.82,430.56L507.25,432.79L508.68,435L510.11,437.19L511.55,439.36L512.98,441.51L514.41,443.65L515.85,445.76L517.28,447.85L518.71,449.92L520.14,451.97L521.58,454L523.01,456.01L524.44,457.99L525.88,459.96L527.31,461.9L528.74,463.83L530.17,465.73L531.61,467.61L533.04,469.47L534.47,471.3L535.91,473.12L537.34,474.91L538.77,476.68L540.21,478.43L541.64,480.16L543.07,481.87L544.5,483.55L545.94,485.21L547.37,486.85L548.8,488.47L550.24,490.07L551.67,491.64L553.1,493.19L554.53,494.73L555.97,496.24L557.4,497.72L558.83,499.19L560.27,500.64L561.7,502.06L563.13,503.47L564.56,504.85L566,506.21L567.43,507.55L568.86,508.87L570.3,510.17L571.73,511.45L573.16,512.71L574.59,513.94L576.03,515.16L577.46,516.36L578.89,517.54L580.33,518.7L581.76,519.84L583.19,520.96L584.63,522.06L586.06,523.14L587.49,524.2L588.92,525.25L590.36,526.27L591.79,527.28L593.22,528.27L594.66,529.24L596.09,530.19L597.52,531.13L598.95,532.05L600.39,532.95L601.82,533.83L603.25,534.7L604.69,535.55L606.12,536.39L607.55,537.21L608.98,538.01L610.42,538.8L611.85,539.57L613.28,540.32L614.72,541.06L616.15,541.79L617.58,542.5L619.01,543.19L620.45,543.87L621.88,544.54L623.31,545.19L624.75,545.83L626.18,546.46L627.61,547.07L629.05,547.67L630.48,548.26L631.91,548.83L633.34,549.39L634.78,549.94L636.21,550.48L637.64,551L639.08,551.51L640.51,552.01L641.94,552.5L643.37,552.98L644.81,553.45L646.24,553.9L647.67,554.35L649.11,554.78L650.54,555.21L651.97,555.62L653.4,556.03L654.84,556.42L656.27,556.81L657.7,557.18L659.14,557.55L660.57,557.91L662,558.26L663.43,558.6L664.87,558.93L666.3,559.25L667.73,559.57L669.17,559.87L670.6,560.17L672.03,560.47L673.47,560.75L674.9,561.03L676.33,561.3L677.76,561.56L679.2,561.81L680.63,562.06L682.06,562.3L683.5,562.54L684.93,562.77L686.36,562.99L687.79,563.21L689.23,563.42L690.66,563.63L692.09,563.83L693.53,564.02L694.96,564.21L696.39,564.39L697.82,564.57L699.26,564.74L700.69,564.91L702.12,565.08L703.56,565.24L704.99,565.39L706.42,565.54L707.85,565.69L709.29,565.83L710.72,565.96L712.15,566.1L713.59,566.23L715.02,566.35" style="fill: rgb(103, 177, 229); fill-opacity: 1; stroke-width: 0;"/></g></g><g class="errorbars"/><g class="lines"/><g class="points"/><g class="text"/></g><g class="trace scatter tracedfb55f" style="stroke-miterlimit: 2;"><g class="fills"><g><path class="js-fill" d="M1340,570L583.61,570L583.61,568.46L585.12,568.38L586.64,568.3L588.15,568.21L589.67,568.13L591.19,568.03L592.7,567.94L594.22,567.84L595.73,567.73L597.25,567.62L598.77,567.5L600.28,567.38L601.8,567.26L603.31,567.13L604.83,566.99L606.34,566.85L607.86,566.7L609.38,566.55L610.89,566.39L612.41,566.22L613.92,566.04L615.44,565.86L616.96,565.67L618.47,565.47L619.99,565.27L621.5,565.06L623.02,564.83L624.53,564.6L626.05,564.36L627.57,564.11L629.08,563.86L630.6,563.59L632.11,563.31L633.63,563.02L635.15,562.72L636.66,562.4L638.18,562.08L639.69,561.74L641.21,561.4L642.72,561.03L644.24,560.66L645.76,560.27L647.27,559.87L648.79,559.45L650.3,559.02L651.82,558.57L653.34,558.11L654.85,557.63L656.37,557.14L657.88,556.62L659.4,556.09L660.91,555.54L662.43,554.98L663.95,554.39L665.46,553.79L666.98,553.16L668.49,552.52L670.01,551.85L671.52,551.17L673.04,550.46L674.56,549.72L676.07,548.97L677.59,548.19L679.1,547.39L680.62,546.56L682.14,545.71L683.65,544.83L685.17,543.93L686.68,543L688.2,542.04L689.71,541.05L691.23,540.04L692.75,539L694.26,537.92L695.78,536.82L697.29,535.68L698.81,534.52L700.33,533.32L701.84,532.09L703.36,530.83L704.87,529.53L706.39,528.2L707.9,526.84L709.42,525.44L710.94,524L712.45,522.53L713.97,521.02L715.48,519.47L717,517.88L718.52,516.26L720.03,514.6L721.55,512.9L723.06,511.15L724.58,509.37L726.09,507.55L727.61,505.69L729.13,503.78L730.64,501.83L732.16,499.84L733.67,497.81L735.19,495.73L736.71,493.61L738.22,491.44L739.74,489.23L741.25,486.98L742.77,484.68L744.28,482.33L745.8,479.94L747.32,477.51L748.83,475.03L750.35,472.5L751.86,469.92L753.38,467.3L754.89,464.63L756.41,461.92L757.93,459.16L759.44,456.35L760.96,453.5L762.47,450.6L763.99,447.65L765.51,444.66L767.02,441.62L768.54,438.53L770.05,435.4L771.57,432.22L773.08,429L774.6,425.73L776.12,422.42L777.63,419.06L779.15,415.66L780.66,412.21L782.18,408.72L783.7,405.19L785.21,401.62L786.73,398.01L788.24,394.35L789.76,390.66L791.27,386.92L792.79,383.15L794.31,379.34L795.82,375.49L797.34,371.61L798.85,367.69L800.37,363.73L801.89,359.75L803.4,355.73L804.92,351.68L806.43,347.6L807.95,343.49L809.46,339.36L810.98,335.2L812.5,331.01L814.01,326.8L815.53,322.57L817.04,318.32L818.56,314.04L820.07,309.75L821.59,305.45L823.11,301.12L824.62,296.79L826.14,292.44L827.65,288.09L829.17,283.72L830.69,279.35L832.2,274.97L833.72,270.59L835.23,266.21L836.75,261.83L838.26,257.45L839.78,253.08L841.3,248.71L842.81,244.35L844.33,240L845.84,235.67L847.36,231.34L848.88,227.03L850.39,222.75L851.91,218.48L853.42,214.23L854.94,210.01L856.45,205.81L857.97,201.64L859.49,197.5L861,193.4L862.52,189.33L864.03,185.29L865.55,181.3L867.07,177.34L868.58,173.43L870.1,169.56L871.61,165.75L873.13,161.98L874.64,158.26L876.16,154.59L877.68,150.98L879.19,147.43L880.71,143.93L882.22,140.5L883.74,137.13L885.26,133.83L886.77,130.59L888.29,127.42L889.8,124.32L891.32,121.29L892.83,118.34L894.35,115.47L895.87,112.67L897.38,109.95L898.9,107.31L900.41,104.76L901.93,102.28L903.44,99.9L904.96,97.6L906.48,95.39L907.99,93.27L909.51,91.24L911.02,89.3L912.54,87.45L914.06,85.7L915.57,84.05L917.09,82.49L918.6,81.03L920.12,79.67L921.63,78.41L923.15,77.24L924.67,76.18L926.18,75.22L927.7,74.36L929.21,73.61L930.73,72.95L932.25,72.41L933.76,71.96L935.28,71.62L936.79,71.38L938.31,71.25L939.82,71.22L941.34,71.3L942.86,71.48L944.37,71.77L945.89,72.16L947.4,72.65L948.92,73.25L950.44,73.95L951.95,74.76L953.47,75.66L954.98,76.67L956.5,77.78L958.01,78.99L959.53,80.3L961.05,81.71L962.56,83.22L964.08,84.82L965.59,86.52L967.11,88.31L968.62,90.2L970.14,92.19L971.66,94.26L973.17,96.42L974.69,98.68L976.2,101.02L977.72,103.44L979.24,105.95L980.75,108.55L982.27,111.23L983.78,113.98L985.3,116.82L986.81,119.73L988.33,122.72L989.85,125.78L991.36,128.91L992.88,132.11L994.39,135.38L995.91,138.72L997.43,142.12L998.94,145.58L1000.46,149.1L1001.97,152.68L1003.49,156.32L1005,160.01L1006.52,163.75L1008.04,167.55L1009.55,171.39L1011.07,175.28L1012.58,179.21L1014.1,183.18L1015.62,187.2L1017.13,191.25L1018.65,195.34L1020.16,199.46L1021.68,203.61L1023.19,207.79L1024.71,212L1026.23,216.23L1027.74,220.49L1029.26,224.77L1030.77,229.07L1032.29,233.39L1033.81,237.72L1035.32,242.06L1036.84,246.41L1038.35,250.78L1039.87,255.15L1041.38,259.52L1042.9,263.9L1044.42,268.28L1045.93,272.67L1047.45,277.04L1048.96,281.42L1050.48,285.79L1051.99,290.15L1053.51,294.5L1055.03,298.84L1056.54,303.17L1058.06,307.49L1059.57,311.79L1061.09,316.07L1062.61,320.33L1064.12,324.57L1065.64,328.8L1067.15,333L1068.67,337.17L1070.18,341.32L1071.7,345.44L1073.22,349.54L1074.73,353.6L1076.25,357.64L1077.76,361.64L1079.28,365.61L1080.8,369.55L1082.31,373.45L1083.83,377.31L1085.34,381.14L1086.86,384.94L1088.37,388.69L1089.89,392.41L1091.41,396.08L1092.92,399.72L1094.44,403.31L1095.95,406.87L1097.47,410.38L1098.99,413.85L1100.5,417.27L1102.02,420.65L1103.53,423.99L1105.05,427.28L1106.56,430.53L1108.08,433.73L1109.6,436.89L1111.11,440L1112.63,443.06L1114.14,446.08L1115.66,449.05L1117.17,451.98L1118.69,454.85L1120.21,457.69L1121.72,460.47L1123.24,463.21L1124.75,465.9L1126.27,468.55L1127.79,471.15L1129.3,473.7L1130.82,476.21L1132.33,478.67L1133.85,481.08L1135.36,483.45L1136.88,485.77L1138.4,488.05L1139.91,490.28L1141.43,492.47L1142.94,494.62L1144.46,496.72L1145.98,498.77L1147.49,500.79L1149.01,502.76L1150.52,504.69L1152.04,506.57L1153.55,508.42L1155.07,510.22L1156.59,511.98L1158.1,513.71L1159.62,515.39L1161.13,517.03L1162.65,518.64L1164.17,520.21L1165.68,521.74L1167.2,523.23L1168.71,524.68L1170.23,526.1L1171.74,527.49L1173.26,528.83L1174.78,530.15L1176.29,531.43L1177.81,532.68L1179.32,533.89L1180.84,535.07L1182.36,536.22L1183.87,537.34L1185.39,538.43L1186.9,539.49L1188.42,540.52L1189.93,541.52L1191.45,542.5L1192.97,543.44L1194.48,544.36L1196,545.25L1197.51,546.12L1199.03,546.96L1200.54,547.77L1202.06,548.56L1203.58,549.33L1205.09,550.07L1206.61,550.79L1208.12,551.49L1209.64,552.17L1211.16,552.83L1212.67,553.46L1214.19,554.08L1215.7,554.67L1217.22,555.25L1218.73,555.81L1220.25,556.35L1221.77,556.87L1223.28,557.37L1224.8,557.86L1226.31,558.33L1227.83,558.79L1229.35,559.23L1230.86,559.65L1232.38,560.06L1233.89,560.46L1235.41,560.84L1236.92,561.21L1238.44,561.56L1239.96,561.9L1241.47,562.24L1242.99,562.55L1244.5,562.86L1246.02,563.16L1247.54,563.44L1249.05,563.72L1250.57,563.98L1252.08,564.23L1253.6,564.48L1255.11,564.71L1256.63,564.94L1258.15,565.16L1259.66,565.37L1261.18,565.57L1262.69,565.76L1264.21,565.95L1265.73,566.13L1267.24,566.3L1268.76,566.46L1270.27,566.62L1271.79,566.77L1273.3,566.92L1274.82,567.06L1276.34,567.19L1277.85,567.32L1279.37,567.44L1280.88,567.56L1282.4,567.67L1283.91,567.78L1285.43,567.88L1286.95,567.98L1288.46,568.08L1289.98,568.17L1291.49,568.26L1293.01,568.34L1294.53,568.42L1296.04,568.49L1297.56,568.57L1299.07,568.64L1300.59,568.7L1302.1,568.77L1303.62,568.83L1305.14,568.88L1306.65,568.94L1308.17,568.99L1309.68,569.04L1311.2,569.09L1312.72,569.14L1314.23,569.18L1315.75,569.22L1317.26,569.26L1318.78,569.3L1320.29,569.33L1321.81,569.37L1323.33,569.4L1324.84,569.43L1326.36,569.46L1327.87,569.49L1329.39,569.52L1330.91,569.54L1332.42,569.57L1333.94,569.59L1335.45,569.61L1336.97,569.63L1338.48,569.65L1340,569.67" style="fill: rgb(255, 160, 77); fill-opacity: 1; stroke-width: 0;"/></g></g><g class="errorbars"/><g class="lines"/><g class="points"/><g class="text"/></g></g></g></g><path class="xlines-above crisp" d="" style="fill: none; stroke-width: 1px; stroke: rgb(0, 0, 0); stroke-opacity: 0;"/><path class="ylines-above crisp" d="M0,0" style="fill: none;"/><g class="overlines-above"/><g class="xaxislayer-above"><path class="xtick ticks crisp" d="M0,671v5" transform="translate(182.01999999999998,0)" style="stroke: rgb(128, 128, 128); stroke-opacity: 1; stroke-width: 1px;"/><path class="xtick ticks crisp" d="M0,671v5" transform="translate(325.24,0)" style="stroke: rgb(128, 128, 128); stroke-opacity: 1; stroke-width: 1px;"/><path class="xtick ticks crisp" d="M0,671v5" transform="translate(514.5699999999999,0)" style="stroke: rgb(128, 128, 128); stroke-opacity: 1; stroke-width: 1px;"/><path class="xtick ticks crisp" d="M0,671v5" transform="translate(657.8,0)" style="stroke: rgb(128, 128, 128); stroke-opacity: 1; stroke-width: 1px;"/><path class="xtick ticks crisp" d="M0,671v5" transform="translate(801.02,0)" style="stroke: rgb(128, 128, 128); stroke-opacity: 1; stroke-width: 1px;"/><path class="xtick ticks crisp" d="M0,671v5" transform="translate(990.35,0)" style="stroke: rgb(128, 128, 128); stroke-opacity: 1; stroke-width: 1px;"/><path class="xtick ticks crisp" d="M0,671v5" transform="translate(1133.57,0)" style="stroke: rgb(128, 128, 128); stroke-opacity: 1; stroke-width: 1px;"/><path class="xtick ticks crisp" d="M0,671v5" transform="translate(1276.8,0)" style="stroke: rgb(128, 128, 128); stroke-opacity: 1; stroke-width: 1px;"/><g class="xtick"><text text-anchor="middle" x="0" y="690.4" transform="translate(182.01999999999998,0)" style="font-family: 'Open Sans', verdana, arial, sans-serif; font-size: 12px; fill: rgb(128, 128, 128); fill-opacity: 1; white-space: pre; opacity: 1;">1</text></g><g class="xtick"><text text-anchor="middle" x="0" y="690.4" style="font-family: 'Open Sans', verdana, arial, sans-serif; font-size: 12px; fill: rgb(128, 128, 128); fill-opacity: 1; white-space: pre; opacity: 1;" transform="translate(325.24,0)">2</text></g><g class="xtick"><text text-anchor="middle" x="0" y="690.4" style="font-family: 'Open Sans', verdana, arial, sans-serif; font-size: 12px; fill: rgb(128, 128, 128); fill-opacity: 1; white-space: pre; opacity: 1;" transform="translate(514.5699999999999,0)">5</text></g><g class="xtick"><text text-anchor="middle" x="0" y="690.4" style="font-family: 'Open Sans', verdana, arial, sans-serif; font-size: 12px; fill: rgb(128, 128, 128); fill-opacity: 1; white-space: pre; opacity: 1;" transform="translate(657.8,0)">10</text></g><g class="xtick"><text text-anchor="middle" x="0" y="690.4" style="font-family: 'Open Sans', verdana, arial, sans-serif; font-size: 12px; fill: rgb(128, 128, 128); fill-opacity: 1; white-space: pre; opacity: 1;" transform="translate(801.02,0)">20</text></g><g class="xtick"><text text-anchor="middle" x="0" y="690.4" style="font-family: 'Open Sans', verdana, arial, sans-serif; font-size: 12px; fill: rgb(128, 128, 128); fill-opacity: 1; white-space: pre; opacity: 1;" transform="translate(990.35,0)">50</text></g><g class="xtick"><text text-anchor="middle" x="0" y="690.4" style="font-family: 'Open Sans', verdana, arial, sans-serif; font-size: 12px; fill: rgb(128, 128, 128); fill-opacity: 1; white-space: pre; opacity: 1;" transform="translate(1133.57,0)">100</text></g><g class="xtick"><text text-anchor="middle" x="0" y="690.4" style="font-family: 'Open Sans', verdana, arial, sans-serif; font-size: 12px; fill: rgb(128, 128, 128); fill-opacity: 1; white-space: pre; opacity: 1;" transform="translate(1276.8,0)">200</text></g></g><g class="yaxislayer-above"/><g class="overaxes-above"/></g></g><g class="polarlayer"/><g class="smithlayer"/><g class="ternarylayer"/><g class="geolayer"/><g class="funnelarealayer"/><g class="pielayer"/><g class="iciclelayer"/><g class="treemaplayer"/><g class="sunburstlayer"/><g class="glimages"/><defs id="topdefs-cb2b04"><g class="clips"/></defs><g class="layer-above"><g class="imagelayer"/><g class="shapelayer"><g class="shape-group" data-index="0" clip-path="url(#clipcb2b04x)"><path data-index="0" fill-rule="evenodd" d="M386.11,670L386.11,100" style="opacity: 1; stroke: rgb(128, 128, 128); stroke-opacity: 1; fill: rgb(0, 0, 0); fill-opacity: 0; stroke-dasharray: 3px, 3px; stroke-width: 0.5px;"/></g><g class="shape-group" data-index="1" clip-path="url(#clipcb2b04x)"><path data-index="1" fill-rule="evenodd" d="M1017.75,670L1017.75,100" style="opacity: 1; stroke: rgb(128, 128, 128); stroke-opacity: 1; fill: rgb(0, 0, 0); fill-opacity: 0; stroke-dasharray: 3px, 3px; stroke-width: 0.5px;"/></g><g class="shape-group" data-index="2" clip-path="url(#clipcb2b04x)"><path data-index="2" fill-rule="evenodd" d="M340.19,670L340.19,100" style="opacity: 1; stroke: rgb(255, 0, 0); stroke-opacity: 1; fill: rgb(0, 0, 0); fill-opacity: 0; stroke-dasharray: 3px, 3px; stroke-width: 0.5px;"/></g><g class="shape-group" data-index="3" clip-path="url(#clipcb2b04x)"><path data-index="3" fill-rule="evenodd" d="M792.28,670L792.28,100" style="opacity: 1; stroke: rgb(0, 0, 0); stroke-opacity: 1; fill: rgb(0, 0, 0); fill-opacity: 0; stroke-dasharray: 3px, 3px; stroke-width: 0.5px;"/></g><g class="shape-group" data-index="4" clip-path="url(#clipcb2b04x)"><path data-index="4" fill-rule="evenodd" d="M616.79,670L616.79,100" style="opacity: 1; stroke: rgb(0, 0, 0); stroke-opacity: 1; fill: rgb(0, 0, 0); fill-opacity: 0; stroke-dasharray: 3px, 3px; stroke-width: 0.5px;"/></g><g class="shape-group" data-index="5" clip-path="url(#clipcb2b04y)"><path data-index="5" fill-rule="evenodd" d="M80,670L1420,670" style="opacity: 1; stroke: rgb(128, 128, 128); stroke-opacity: 1; fill: rgb(0, 0, 0); fill-opacity: 0; stroke-width: 2px;"/></g></g></g><g class="infolayer"><g class="g-gtitle"><text class="gtitle" x="75" y="50" text-anchor="start" dy="0em" style="opacity: 1; font-family: 'Open Sans', verdana, arial, sans-serif; font-size: 17px; fill: rgb(42, 63, 95); fill-opacity: 1; white-space: pre;">Density curve of income for Kenya and Denmark</text></g><g class="g-xtitle"><text class="xtitle" x="750" y="717.20625" text-anchor="middle" style="opacity: 1; font-family: 'Open Sans', verdana, arial, sans-serif; font-size: 14px; fill: rgb(128, 128, 128); fill-opacity: 1; white-space: pre;">Income (log scale)</text></g><g class="annotation" data-index="0" style="opacity: 1;"><g class="annotation-text-g" transform="rotate(0,455.61,125)"><g class="cursor-pointer" transform="translate(386,100)"><rect class="bg" x="0.5" y="0.5" width="138" height="49" style="stroke-width: 1px; stroke: rgb(0, 0, 0); stroke-opacity: 0; fill: rgb(0, 0, 0); fill-opacity: 0;"/><text class="annotation-text" text-anchor="start" x="2" y="14" style="font-family: 'Open Sans', verdana, arial, sans-serif; font-size: 12px; fill: rgb(42, 63, 95); fill-opacity: 1; white-space: pre;"><tspan class="line" dy="0em" x="2" y="14"><tspan style="font-weight:bold">Kenya (2020)</tspan></tspan><tspan class="line" dy="1.3em" x="2" y="14">Median income: $2.70</tspan><tspan class="line" dy="2.6em" x="2" y="14">Mean income: $3.50</tspan></text></g></g></g><g class="annotation" data-index="1" style="opacity: 1;"><g class="annotation-text-g" transform="rotate(0,944.75,125)"><g class="cursor-pointer" transform="translate(872,100)"><rect class="bg" x="0.5" y="0.5" width="145" height="49" style="stroke-width: 1px; stroke: rgb(0, 0, 0); stroke-opacity: 0; fill: rgb(0, 0, 0); fill-opacity: 0;"/><text class="annotation-text" text-anchor="end" x="144.484375" y="14" style="font-family: 'Open Sans', verdana, arial, sans-serif; font-size: 12px; fill: rgb(42, 63, 95); fill-opacity: 1; white-space: pre;"><tspan class="line" dy="0em" x="144.484375" y="14"><tspan style="font-weight:bold">Denmark (2021)</tspan></tspan><tspan class="line" dy="1.3em" x="144.484375" y="14">Median income: $57.10</tspan><tspan class="line" dy="2.6em" x="144.484375" y="14">Mean income: $66.20</tspan></text></g></g></g><g class="annotation" data-index="2" style="opacity: 1;"><g class="annotation-text-g" transform="rotate(-90,349.69,589.5)"><g class="cursor-pointer" transform="translate(269,580)"><rect class="bg" x="0.5" y="0.5" width="160" height="18" style="stroke-width: 1px; stroke: rgb(0, 0, 0); stroke-opacity: 0; fill: rgb(0, 0, 0); fill-opacity: 0;"/><text class="annotation-text" text-anchor="middle" x="80.359375" y="14" style="font-family: 'Open Sans', verdana, arial, sans-serif; font-size: 12px; fill: rgb(42, 63, 95); fill-opacity: 1; white-space: pre;">International Poverty Line</text></g></g></g><g class="annotation" data-index="3" style="opacity: 1;"><g class="annotation-text-g" transform="rotate(-90,801.78,605.5)"><g class="cursor-pointer" transform="translate(737,596)"><rect class="bg" x="0.5" y="0.5" width="128" height="18" style="stroke-width: 1px; stroke: rgb(0, 0, 0); stroke-opacity: 0; fill: rgb(0, 0, 0); fill-opacity: 0;"/><text class="annotation-text" text-anchor="middle" x="64.53125" y="14" style="font-family: 'Open Sans', verdana, arial, sans-serif; font-size: 12px; fill: rgb(42, 63, 95); fill-opacity: 1; white-space: pre;">World mean: $19.20</text></g></g></g><g class="annotation" data-index="4" style="opacity: 1;"><g class="annotation-text-g" transform="rotate(-90,626.29,604)"><g class="cursor-pointer" transform="translate(560,595)"><rect class="bg" x="0.5" y="0.5" width="131" height="18" style="stroke-width: 1px; stroke: rgb(0, 0, 0); stroke-opacity: 0; fill: rgb(0, 0, 0); fill-opacity: 0;"/><text class="annotation-text" text-anchor="middle" x="66.109375" y="14" style="font-family: 'Open Sans', verdana, arial, sans-serif; font-size: 12px; fill: rgb(42, 63, 95); fill-opacity: 1; white-space: pre;">World median: $8.20</text></g></g></g></g></svg>