<svg class="main-svg" xmlns="http://www.w3.org/2000/svg" xmlns:xlink="http://www.w3.org/1999/xlink" width="1500" height="750" style="" viewBox="0 0 1500 750"><rect x="0" y="0" width="1500" height="750" style="fill: rgb(255, 255, 255); fill-opacity: 1;"/><defs id="defs-38e4dd"><g class="clips"><clipPath id="clip38e4ddxyplot" class="plotclip"><rect width="1340" height="570"/></clipPath><clipPath class="axesclip" id="clip38e4ddx"><rect x="80" y="0" width="1340" height="750"/></clipPath><clipPath class="axesclip" id="clip38e4ddy"><rect x="0" y="100" width="1500" height="570"/></clipPath><clipPath class="axesclip" id="clip38e4ddxy"><rect x="80" y="100" width="1340" height="570"/></clipPath></g><g class="gradients"/><g class="patterns"/></defs><g class="bglayer"><rect class="bg" x="80" y="100" width="1340" height="570" style="fill: rgb(0, 0, 0); fill-opacity: 0; stroke-width: 0;"/></g><g class="layer-below"><g class="imagelayer"/><g class="shapelayer"/></g><g class="cartesianlayer"><g class="subplot xy"><g class="layer-subplot"><g class="shapelayer"/><g class="imagelayer"/></g><g class="minor-gridlayer"><g class="x"/><g class="y"/></g><g class="gridlayer"><g class="x"><path class="xgrid crisp" transform="translate(160.32999999999998,0)" d="M0,100v570" style="stroke: rgb(255, 255, 255); stroke-opacity: 1; stroke-width: 1px;"/><path class="xgrid crisp" transform="translate(306.06,0)" d="M0,100v570" style="stroke: rgb(255, 255, 255); stroke-opacity: 1; stroke-width: 1px;"/><path class="xgrid crisp" transform="translate(498.71,0)" d="M0,100v570" style="stroke: rgb(255, 255, 255); stroke-opacity: 1; stroke-width: 1px;"/><path class="xgrid crisp" transform="translate(644.44,0)" d="M0,100v570" style="stroke: rgb(255, 255, 255); stroke-opacity: 1; stroke-width: 1px;"/><path class="xgrid crisp" transform="translate(790.17,0)" d="M0,100v570" style="stroke: rgb(255, 255, 255); stroke-opacity: 1; stroke-width: 1px;"/><path class="xgrid crisp" transform="translate(982.82,0)" d="M0,100v570" style="stroke: rgb(255, 255, 255); stroke-opacity: 1; stroke-width: 1px;"/><path class="xgrid crisp" transform="translate(1128.55,0)" d="M0,100v570" style="stroke: rgb(255, 255, 255); stroke-opacity: 1; stroke-width: 1px;"/><path class="xgrid crisp" transform="translate(1274.29,0)" d="M0,100v570" style="stroke: rgb(255, 255, 255); stroke-opacity: 1; stroke-width: 1px;"/></g><g class="y"/></g><g class="zerolinelayer"/><g class="layer-between"><g class="shapelayer"/><g class="imagelayer"/></g><path class="xlines-below"/><path class="ylines-below"/><g class="overlines-below"/><g class="xaxislayer-below"/><g class="yaxislayer-below"/><g class="overaxes-below"/><g class="overplot"><g class="xy" transform="translate(80,100)" clip-path="url(#clip38e4ddxyplot)"><g class="scatterlayer mlayer"><g class="trace scatter trace072a8b" style="stroke-miterlimit: 2; opacity: 1;"><g class="fills"/><g class="errorbars"/><g class="lines"><path class="js-line" d="M0,528.31L12.27,517.56L13.63,516.25L25.9,503.25L27.27,501.67L39.53,486.22L40.9,484.36L54.53,464.17L55.89,461.99L69.53,438.6L70.89,436.1L85.88,406.82L87.25,404L104.97,365.26L106.33,362.13L126.78,313.51L128.15,310.18L167.68,215.08L169.04,212.01L185.4,177.3L186.77,174.63L199.04,152.38L200.4,150.13L211.3,133.91L212.67,132.12L220.85,122.55L222.21,121.15L230.39,114.06L231.75,113.1L238.57,109.21L239.93,108.63L246.75,106.68L248.11,106.49L254.93,106.5L256.29,106.7L263.11,108.68L264.47,109.27L271.29,113.19L272.65,114.16L280.83,121.29L282.19,122.69L290.37,132.29L291.74,134.09L301.28,148.14L302.64,150.35L313.55,169.64L314.91,172.25L328.54,200.25L329.91,203.22L347.63,244.02L348.99,247.28L404.89,380.89L406.25,383.89L422.61,418.11L423.97,420.79L438.97,448.53L440.33,450.89L453.96,472.8L455.33,474.83L467.6,491.79L468.96,493.54L481.23,507.96L482.59,509.43L496.22,522.69L497.59,523.89L511.22,534.54L512.58,535.49L526.22,543.87L527.58,544.61L541.21,551.08L542.58,551.64L557.57,556.95L558.93,557.36L578.02,562.03L579.38,562.29L599.83,565.45L601.19,565.61L625.73,567.77L627.1,567.85L657.09,569.12L658.45,569.16L680.26,569.58" style="vector-effect: none; fill: none; stroke: rgb(31, 119, 180); stroke-opacity: 1; stroke-width: 2px; opacity: 1;"/></g><g class="points"/><g class="text"/></g><g class="trace scatter tracec0be54" style="stroke-miterlimit: 2; opacity: 1;"><g class="fills"/><g class="errorbars"/><g class="lines"><path class="js-line" d="M570.35,568.46L599.66,566.22L601.2,566.04L621.25,563.02L622.79,562.72L639.76,558.57L641.3,558.11L655.18,553.16L656.73,552.52L670.61,545.71L672.15,544.83L684.49,536.82L686.03,535.68L696.83,526.84L698.37,525.44L710.71,512.9L712.25,511.15L723.05,497.81L724.59,495.73L736.93,477.51L738.47,475.03L750.81,453.5L752.35,450.6L764.69,425.73L766.24,422.42L780.12,390.66L781.66,386.92L798.63,343.49L800.17,339.36L824.85,270.59L826.39,266.21L854.15,189.33L855.69,185.29L871.12,147.43L872.66,143.93L883.46,121.29L885,118.34L894.25,102.28L895.8,99.9L903.51,89.3L905.05,87.45L912.76,79.67L914.3,78.41L920.47,74.36L922.02,73.61L928.19,71.62L929.73,71.38L935.9,71.48L937.44,71.77L943.61,73.95L945.15,74.76L951.32,78.99L952.86,80.3L960.58,88.31L962.12,90.2L969.83,101.02L971.37,103.44L980.63,119.73L982.17,122.72L992.97,145.58L994.51,149.1L1008.39,183.18L1009.93,187.2L1028.44,237.72L1029.98,242.06L1071.63,357.64L1073.17,361.64L1088.59,399.72L1090.14,403.31L1104.02,433.73L1105.56,436.89L1117.9,460.47L1119.44,463.21L1131.78,483.45L1133.32,485.77L1145.66,502.76L1147.2,504.69L1159.54,518.64L1161.08,520.21L1173.42,531.43L1174.97,532.68L1187.3,541.52L1188.85,542.5L1201.19,549.33L1202.73,550.07L1216.61,555.81L1218.15,556.35L1233.58,560.84L1235.12,561.21L1253.63,564.71L1255.17,564.94L1276.76,567.32L1278.3,567.44L1307.61,568.99L1309.15,569.04L1340,569.67" style="vector-effect: none; fill: none; stroke: rgb(255, 127, 14); stroke-opacity: 1; stroke-width: 2px; opacity: 1;"/></g><g class="points"/><g class="text"/></g><g class="trace scatter tracee90a7a" style="stroke-miterlimit: 2;"><g class="fills"><g><path class="js-fill" d="M680.26,570L0,570L0,528.31L1.36,527.21L2.73,526.08L4.09,524.94L5.45,523.77L6.82,522.58L8.18,521.36L9.54,520.12L10.91,518.85L12.27,517.56L13.63,516.25L15,514.91L16.36,513.54L17.72,512.15L19.09,510.73L20.45,509.29L21.81,507.82L23.18,506.32L24.54,504.8L25.9,503.25L27.27,501.67L28.63,500.06L29.99,498.43L31.35,496.77L32.72,495.08L34.08,493.36L35.44,491.62L36.81,489.85L38.17,488.05L39.53,486.22L40.9,484.36L42.26,482.47L43.62,480.55L44.99,478.61L46.35,476.63L47.71,474.63L49.08,472.6L50.44,470.53L51.8,468.44L53.17,466.32L54.53,464.17L55.89,461.99L57.26,459.78L58.62,457.54L59.98,455.28L61.35,452.98L62.71,450.66L64.07,448.3L65.44,445.92L66.8,443.51L68.16,441.07L69.53,438.6L70.89,436.1L72.25,433.57L73.62,431.02L74.98,428.44L76.34,425.83L77.71,423.19L79.07,420.53L80.43,417.84L81.8,415.12L83.16,412.38L84.52,409.61L85.88,406.82L87.25,404L88.61,401.16L89.97,398.29L91.34,395.4L92.7,392.48L94.06,389.54L95.43,386.58L96.79,383.6L98.15,380.59L99.52,377.56L100.88,374.52L102.24,371.45L103.61,368.36L104.97,365.26L106.33,362.13L107.7,358.99L109.06,355.83L110.42,352.65L111.79,349.46L113.15,346.25L114.51,343.03L115.88,339.8L117.24,336.55L118.6,333.29L119.97,330.02L121.33,326.73L122.69,323.44L124.06,320.14L125.42,316.83L126.78,313.51L128.15,310.18L129.51,306.85L130.87,303.52L132.24,300.18L133.6,296.84L134.96,293.49L136.33,290.14L137.69,286.8L139.05,283.45L140.42,280.11L141.78,276.76L143.14,273.42L144.5,270.09L145.87,266.76L147.23,263.44L148.59,260.12L149.96,256.82L151.32,253.52L152.68,250.23L154.05,246.96L155.41,243.7L156.77,240.45L158.14,237.21L159.5,234L160.86,230.8L162.23,227.61L163.59,224.45L164.95,221.31L166.32,218.18L167.68,215.08L169.04,212.01L170.41,208.95L171.77,205.93L173.13,202.93L174.5,199.96L175.86,197.01L177.22,194.1L178.59,191.22L179.95,188.36L181.31,185.55L182.68,182.76L184.04,180.01L185.4,177.3L186.77,174.63L188.13,171.99L189.49,169.39L190.86,166.83L192.22,164.31L193.58,161.84L194.95,159.41L196.31,157.02L197.67,154.68L199.04,152.38L200.4,150.13L201.76,147.93L203.12,145.77L204.49,143.67L205.85,141.61L207.21,139.61L208.58,137.66L209.94,135.76L211.3,133.91L212.67,132.12L214.03,130.38L215.39,128.7L216.76,127.08L218.12,125.51L219.48,124L220.85,122.55L222.21,121.15L223.57,119.82L224.94,118.55L226.3,117.33L227.66,116.18L229.03,115.09L230.39,114.06L231.75,113.1L233.12,112.19L234.48,111.35L235.84,110.58L237.21,109.86L238.57,109.21L239.93,108.63L241.3,108.11L242.66,107.65L244.02,107.26L245.39,106.94L246.75,106.68L248.11,106.49L249.48,106.36L250.84,106.3L252.2,106.3L253.57,106.37L254.93,106.5L256.29,106.7L257.65,106.97L259.02,107.3L260.38,107.7L261.74,108.16L263.11,108.68L264.47,109.27L265.83,109.93L267.2,110.65L268.56,111.43L269.92,112.28L271.29,113.19L272.65,114.16L274.01,115.2L275.38,116.29L276.74,117.45L278.1,118.67L279.47,119.95L280.83,121.29L282.19,122.69L283.56,124.15L284.92,125.66L286.28,127.23L287.65,128.87L289.01,130.55L290.37,132.29L291.74,134.09L293.1,135.94L294.46,137.85L295.83,139.8L297.19,141.81L298.55,143.87L299.92,145.98L301.28,148.14L302.64,150.35L304.01,152.6L305.37,154.9L306.73,157.25L308.1,159.64L309.46,162.08L310.82,164.56L312.19,167.08L313.55,169.64L314.91,172.25L316.27,174.89L317.64,177.57L319,180.28L320.36,183.04L321.73,185.82L323.09,188.64L324.45,191.5L325.82,194.38L327.18,197.3L328.54,200.25L329.91,203.22L331.27,206.22L332.63,209.25L334,212.31L335.36,215.39L336.72,218.49L338.09,221.61L339.45,224.76L340.81,227.93L342.18,231.11L343.54,234.31L344.9,237.53L346.27,240.77L347.63,244.02L348.99,247.28L350.36,250.56L351.72,253.84L353.08,257.14L354.45,260.45L355.81,263.77L357.17,267.09L358.54,270.42L359.9,273.75L361.26,277.09L362.63,280.43L363.99,283.78L365.35,287.13L366.72,290.47L368.08,293.82L369.44,297.16L370.81,300.51L372.17,303.85L373.53,307.18L374.89,310.51L376.26,313.84L377.62,317.15L378.98,320.46L380.35,323.76L381.71,327.06L383.07,330.34L384.44,333.61L385.8,336.87L387.16,340.12L388.53,343.35L389.89,346.57L391.25,349.78L392.62,352.97L393.98,356.14L395.34,359.3L396.71,362.44L398.07,365.56L399.43,368.67L400.8,371.75L402.16,374.82L403.52,377.86L404.89,380.89L406.25,383.89L407.61,386.87L408.98,389.83L410.34,392.77L411.7,395.68L413.07,398.57L414.43,401.44L415.79,404.28L417.16,407.1L418.52,409.89L419.88,412.65L421.25,415.39L422.61,418.11L423.97,420.79L425.34,423.45L426.7,426.09L428.06,428.69L429.42,431.27L430.79,433.82L432.15,436.35L433.51,438.84L434.88,441.31L436.24,443.75L437.6,446.15L438.97,448.53L440.33,450.89L441.69,453.21L443.06,455.5L444.42,457.77L445.78,460L447.15,462.21L448.51,464.38L449.87,466.53L451.24,468.65L452.6,470.74L453.96,472.8L455.33,474.83L456.69,476.83L458.05,478.8L459.42,480.74L460.78,482.66L462.14,484.54L463.51,486.4L464.87,488.22L466.23,490.02L467.6,491.79L468.96,493.54L470.32,495.25L471.69,496.93L473.05,498.59L474.41,500.22L475.78,501.82L477.14,503.4L478.5,504.95L479.87,506.47L481.23,507.96L482.59,509.43L483.96,510.87L485.32,512.29L486.68,513.67L488.04,515.04L489.41,516.38L490.77,517.69L492.13,518.98L493.5,520.24L494.86,521.48L496.22,522.69L497.59,523.89L498.95,525.05L500.31,526.2L501.68,527.32L503.04,528.42L504.4,529.49L505.77,530.54L507.13,531.58L508.49,532.59L509.86,533.57L511.22,534.54L512.58,535.49L513.95,536.41L515.31,537.32L516.67,538.21L518.04,539.07L519.4,539.92L520.76,540.75L522.13,541.56L523.49,542.35L524.85,543.12L526.22,543.87L527.58,544.61L528.94,545.33L530.31,546.03L531.67,546.72L533.03,547.39L534.4,548.04L535.76,548.68L537.12,549.3L538.49,549.91L539.85,550.5L541.21,551.08L542.58,551.64L543.94,552.19L545.3,552.72L546.66,553.24L548.03,553.75L549.39,554.24L550.75,554.72L552.12,555.19L553.48,555.65L554.84,556.09L556.21,556.53L557.57,556.95L558.93,557.36L560.3,557.75L561.66,558.14L563.02,558.52L564.39,558.88L565.75,559.24L567.11,559.59L568.48,559.92L569.84,560.25L571.2,560.57L572.57,560.88L573.93,561.18L575.29,561.47L576.66,561.75L578.02,562.03L579.38,562.29L580.75,562.55L582.11,562.8L583.47,563.05L584.84,563.28L586.2,563.51L587.56,563.73L588.93,563.95L590.29,564.16L591.65,564.36L593.02,564.56L594.38,564.75L595.74,564.93L597.11,565.11L598.47,565.28L599.83,565.45L601.19,565.61L602.56,565.77L603.92,565.92L605.28,566.07L606.65,566.21L608.01,566.35L609.37,566.48L610.74,566.61L612.1,566.73L613.46,566.85L614.83,566.97L616.19,567.08L617.55,567.19L618.92,567.3L620.28,567.4L621.64,567.5L623.01,567.59L624.37,567.68L625.73,567.77L627.1,567.85L628.46,567.94L629.82,568.02L631.19,568.09L632.55,568.17L633.91,568.24L635.28,568.31L636.64,568.37L638,568.44L639.37,568.5L640.73,568.56L642.09,568.62L643.46,568.67L644.82,568.72L646.18,568.77L647.55,568.82L648.91,568.87L650.27,568.92L651.64,568.96L653,569L654.36,569.04L655.73,569.08L657.09,569.12L658.45,569.16L659.81,569.19L661.18,569.23L662.54,569.26L663.9,569.29L665.27,569.32L666.63,569.35L667.99,569.38L669.36,569.4L670.72,569.43L672.08,569.45L673.45,569.48L674.81,569.5L676.17,569.52L677.54,569.54L678.9,569.56L680.26,569.58" style="fill: rgb(103, 177, 229); fill-opacity: 1; stroke-width: 0;"/></g></g><g class="errorbars"/><g class="lines"/><g class="points"/><g class="text"/></g><g class="trace scatter tracedfb85d" style="stroke-miterlimit: 2;"><g class="fills"><g><path class="js-fill" d="M1340,570L570.35,570L570.35,568.46L571.9,568.38L573.44,568.3L574.98,568.21L576.52,568.13L578.07,568.03L579.61,567.94L581.15,567.84L582.69,567.73L584.24,567.62L585.78,567.5L587.32,567.38L588.86,567.26L590.41,567.13L591.95,566.99L593.49,566.85L595.03,566.7L596.57,566.55L598.12,566.39L599.66,566.22L601.2,566.04L602.74,565.86L604.29,565.67L605.83,565.47L607.37,565.27L608.91,565.06L610.46,564.83L612,564.6L613.54,564.36L615.08,564.11L616.63,563.86L618.17,563.59L619.71,563.31L621.25,563.02L622.79,562.72L624.34,562.4L625.88,562.08L627.42,561.74L628.96,561.4L630.51,561.03L632.05,560.66L633.59,560.27L635.13,559.87L636.68,559.45L638.22,559.02L639.76,558.57L641.3,558.11L642.85,557.63L644.39,557.14L645.93,556.62L647.47,556.09L649.02,555.54L650.56,554.98L652.1,554.39L653.64,553.79L655.18,553.16L656.73,552.52L658.27,551.85L659.81,551.17L661.35,550.46L662.9,549.72L664.44,548.97L665.98,548.19L667.52,547.39L669.07,546.56L670.61,545.71L672.15,544.83L673.69,543.93L675.24,543L676.78,542.04L678.32,541.05L679.86,540.04L681.41,539L682.95,537.92L684.49,536.82L686.03,535.68L687.57,534.52L689.12,533.32L690.66,532.09L692.2,530.83L693.74,529.53L695.29,528.2L696.83,526.84L698.37,525.44L699.91,524L701.46,522.53L703,521.02L704.54,519.47L706.08,517.88L707.63,516.26L709.17,514.6L710.71,512.9L712.25,511.15L713.8,509.37L715.34,507.55L716.88,505.69L718.42,503.78L719.96,501.83L721.51,499.84L723.05,497.81L724.59,495.73L726.13,493.61L727.68,491.44L729.22,489.23L730.76,486.98L732.3,484.68L733.85,482.33L735.39,479.94L736.93,477.51L738.47,475.03L740.02,472.5L741.56,469.92L743.1,467.3L744.64,464.63L746.19,461.92L747.73,459.16L749.27,456.35L750.81,453.5L752.35,450.6L753.9,447.65L755.44,444.66L756.98,441.62L758.52,438.53L760.07,435.4L761.61,432.22L763.15,429L764.69,425.73L766.24,422.42L767.78,419.06L769.32,415.66L770.86,412.21L772.41,408.72L773.95,405.19L775.49,401.62L777.03,398.01L778.58,394.35L780.12,390.66L781.66,386.92L783.2,383.15L784.74,379.34L786.29,375.49L787.83,371.61L789.37,367.69L790.91,363.73L792.46,359.75L794,355.73L795.54,351.68L797.08,347.6L798.63,343.49L800.17,339.36L801.71,335.2L803.25,331.01L804.8,326.8L806.34,322.57L807.88,318.32L809.42,314.04L810.96,309.75L812.51,305.45L814.05,301.12L815.59,296.79L817.13,292.44L818.68,288.09L820.22,283.72L821.76,279.35L823.3,274.97L824.85,270.59L826.39,266.21L827.93,261.83L829.47,257.45L831.02,253.08L832.56,248.71L834.1,244.35L835.64,240L837.19,235.67L838.73,231.34L840.27,227.03L841.81,222.75L843.35,218.48L844.9,214.23L846.44,210.01L847.98,205.81L849.52,201.64L851.07,197.5L852.61,193.4L854.15,189.33L855.69,185.29L857.24,181.3L858.78,177.34L860.32,173.43L861.86,169.56L863.41,165.75L864.95,161.98L866.49,158.26L868.03,154.59L869.58,150.98L871.12,147.43L872.66,143.93L874.2,140.5L875.74,137.13L877.29,133.83L878.83,130.59L880.37,127.42L881.91,124.32L883.46,121.29L885,118.34L886.54,115.47L888.08,112.67L889.63,109.95L891.17,107.31L892.71,104.76L894.25,102.28L895.8,99.9L897.34,97.6L898.88,95.39L900.42,93.27L901.97,91.24L903.51,89.3L905.05,87.45L906.59,85.7L908.13,84.05L909.68,82.49L911.22,81.03L912.76,79.67L914.3,78.41L915.85,77.24L917.39,76.18L918.93,75.22L920.47,74.36L922.02,73.61L923.56,72.95L925.1,72.41L926.64,71.96L928.19,71.62L929.73,71.38L931.27,71.25L932.81,71.22L934.36,71.3L935.9,71.48L937.44,71.77L938.98,72.16L940.52,72.65L942.07,73.25L943.61,73.95L945.15,74.76L946.69,75.66L948.24,76.67L949.78,77.78L951.32,78.99L952.86,80.3L954.41,81.71L955.95,83.22L957.49,84.82L959.03,86.52L960.58,88.31L962.12,90.2L963.66,92.19L965.2,94.26L966.74,96.42L968.29,98.68L969.83,101.02L971.37,103.44L972.91,105.95L974.46,108.55L976,111.23L977.54,113.98L979.08,116.82L980.63,119.73L982.17,122.72L983.71,125.78L985.25,128.91L986.8,132.11L988.34,135.38L989.88,138.72L991.42,142.12L992.97,145.58L994.51,149.1L996.05,152.68L997.59,156.32L999.13,160.01L1000.68,163.75L1002.22,167.55L1003.76,171.39L1005.3,175.28L1006.85,179.21L1008.39,183.18L1009.93,187.2L1011.47,191.25L1013.02,195.34L1014.56,199.46L1016.1,203.61L1017.64,207.79L1019.19,212L1020.73,216.23L1022.27,220.49L1023.81,224.77L1025.36,229.07L1026.9,233.39L1028.44,237.72L1029.98,242.06L1031.52,246.41L1033.07,250.78L1034.61,255.15L1036.15,259.52L1037.69,263.9L1039.24,268.28L1040.78,272.67L1042.32,277.04L1043.86,281.42L1045.41,285.79L1046.95,290.15L1048.49,294.5L1050.03,298.84L1051.58,303.17L1053.12,307.49L1054.66,311.79L1056.2,316.07L1057.75,320.33L1059.29,324.57L1060.83,328.8L1062.37,333L1063.91,337.17L1065.46,341.32L1067,345.44L1068.54,349.54L1070.08,353.6L1071.63,357.64L1073.17,361.64L1074.71,365.61L1076.25,369.55L1077.8,373.45L1079.34,377.31L1080.88,381.14L1082.42,384.94L1083.97,388.69L1085.51,392.41L1087.05,396.08L1088.59,399.72L1090.14,403.31L1091.68,406.87L1093.22,410.38L1094.76,413.85L1096.3,417.27L1097.85,420.65L1099.39,423.99L1100.93,427.28L1102.47,430.53L1104.02,433.73L1105.56,436.89L1107.1,440L1108.64,443.06L1110.19,446.08L1111.73,449.05L1113.27,451.98L1114.81,454.85L1116.36,457.69L1117.9,460.47L1119.44,463.21L1120.98,465.9L1122.53,468.55L1124.07,471.15L1125.61,473.7L1127.15,476.21L1128.69,478.67L1130.24,481.08L1131.78,483.45L1133.32,485.77L1134.86,488.05L1136.41,490.28L1137.95,492.47L1139.49,494.62L1141.03,496.72L1142.58,498.77L1144.12,500.79L1145.66,502.76L1147.2,504.69L1148.75,506.57L1150.29,508.42L1151.83,510.22L1153.37,511.98L1154.91,513.71L1156.46,515.39L1158,517.03L1159.54,518.64L1161.08,520.21L1162.63,521.74L1164.17,523.23L1165.71,524.68L1167.25,526.1L1168.8,527.49L1170.34,528.83L1171.88,530.15L1173.42,531.43L1174.97,532.68L1176.51,533.89L1178.05,535.07L1179.59,536.22L1181.14,537.34L1182.68,538.43L1184.22,539.49L1185.76,540.52L1187.3,541.52L1188.85,542.5L1190.39,543.44L1191.93,544.36L1193.47,545.25L1195.02,546.12L1196.56,546.96L1198.1,547.77L1199.64,548.56L1201.19,549.33L1202.73,550.07L1204.27,550.79L1205.81,551.49L1207.36,552.17L1208.9,552.83L1210.44,553.46L1211.98,554.08L1213.53,554.67L1215.07,555.25L1216.61,555.81L1218.15,556.35L1219.69,556.87L1221.24,557.37L1222.78,557.86L1224.32,558.33L1225.86,558.79L1227.41,559.23L1228.95,559.65L1230.49,560.06L1232.03,560.46L1233.58,560.84L1235.12,561.21L1236.66,561.56L1238.2,561.9L1239.75,562.24L1241.29,562.55L1242.83,562.86L1244.37,563.16L1245.92,563.44L1247.46,563.72L1249,563.98L1250.54,564.23L1252.08,564.48L1253.63,564.71L1255.17,564.94L1256.71,565.16L1258.25,565.37L1259.8,565.57L1261.34,565.76L1262.88,565.95L1264.42,566.13L1265.97,566.3L1267.51,566.46L1269.05,566.62L1270.59,566.77L1272.14,566.92L1273.68,567.06L1275.22,567.19L1276.76,567.32L1278.3,567.44L1279.85,567.56L1281.39,567.67L1282.93,567.78L1284.47,567.88L1286.02,567.98L1287.56,568.08L1289.1,568.17L1290.64,568.26L1292.19,568.34L1293.73,568.42L1295.27,568.49L1296.81,568.57L1298.36,568.64L1299.9,568.7L1301.44,568.77L1302.98,568.83L1304.53,568.88L1306.07,568.94L1307.61,568.99L1309.15,569.04L1310.69,569.09L1312.24,569.14L1313.78,569.18L1315.32,569.22L1316.86,569.26L1318.41,569.3L1319.95,569.33L1321.49,569.37L1323.03,569.4L1324.58,569.43L1326.12,569.46L1327.66,569.49L1329.2,569.52L1330.75,569.54L1332.29,569.57L1333.83,569.59L1335.37,569.61L1336.92,569.63L1338.46,569.65L1340,569.67" style="fill: rgb(255, 160, 77); fill-opacity: 1; stroke-width: 0;"/></g></g><g class="errorbars"/><g class="lines"/><g class="points"/><g class="text"/></g></g></g></g><path class="xlines-above crisp" d="" style="fill: none; stroke-width: 1px; stroke: rgb(0, 0, 0); stroke-opacity: 0;"/><path class="ylines-above crisp" d="M0,0" style="fill: none;"/><g class="overlines-above"/><g class="xaxislayer-above"><path class="xtick ticks crisp" d="M0,671v5" transform="translate(160.32999999999998,0)" style="stroke: rgb(128, 128, 128); stroke-opacity: 1; stroke-width: 1px;"/><path class="xtick ticks crisp" d="M0,671v5" transform="translate(306.06,0)" style="stroke: rgb(128, 128, 128); stroke-opacity: 1; stroke-width: 1px;"/><path class="xtick ticks crisp" d="M0,671v5" transform="translate(498.71,0)" style="stroke: rgb(128, 128, 128); stroke-opacity: 1; stroke-width: 1px;"/><path class="xtick ticks crisp" d="M0,671v5" transform="translate(644.44,0)" style="stroke: rgb(128, 128, 128); stroke-opacity: 1; stroke-width: 1px;"/><path class="xtick ticks crisp" d="M0,671v5" transform="translate(790.17,0)" style="stroke: rgb(128, 128, 128); stroke-opacity: 1; stroke-width: 1px;"/><path class="xtick ticks crisp" d="M0,671v5" transform="translate(982.82,0)" style="stroke: rgb(128, 128, 128); stroke-opacity: 1; stroke-width: 1px;"/><path class="xtick ticks crisp" d="M0,671v5" transform="translate(1128.55,0)" style="stroke: rgb(128, 128, 128); stroke-opacity: 1; stroke-width: 1px;"/><path class="xtick ticks crisp" d="M0,671v5" transform="translate(1274.29,0)" style="stroke: rgb(128, 128, 128); stroke-opacity: 1; stroke-width: 1px;"/><g class="xtick"><text text-anchor="middle" x="0" y="690.4" transform="translate(160.32999999999998,0)" style="font-family: 'Open Sans', verdana, arial, sans-serif; font-size: 12px; fill: rgb(128, 128, 128); fill-opacity: 1; white-space: pre; opacity: 1;">1</text></g><g class="xtick"><text text-anchor="middle" x="0" y="690.4" style="font-family: 'Open Sans', verdana, arial, sans-serif; font-size: 12px; fill: rgb(128, 128, 128); fill-opacity: 1; white-space: pre; opacity: 1;" transform="translate(306.06,0)">2</text></g><g class="xtick"><text text-anchor="middle" x="0" y="690.4" style="font-family: 'Open Sans', verdana, arial, sans-serif; font-size: 12px; fill: rgb(128, 128, 128); fill-opacity: 1; white-space: pre; opacity: 1;" transform="translate(498.71,0)">5</text></g><g class="xtick"><text text-anchor="middle" x="0" y="690.4" style="font-family: 'Open Sans', verdana, arial, sans-serif; font-size: 12px; fill: rgb(128, 128, 128); fill-opacity: 1; white-space: pre; opacity: 1;" transform="translate(644.44,0)">10</text></g><g class="xtick"><text text-anchor="middle" x="0" y="690.4" style="font-family: 'Open Sans', verdana, arial, sans-serif; font-size: 12px; fill: rgb(128, 128, 128); fill-opacity: 1; white-space: pre; opacity: 1;" transform="translate(790.17,0)">20</text></g><g class="xtick"><text text-anchor="middle" x="0" y="690.4" style="font-family: 'Open Sans', verdana, arial, sans-serif; font-size: 12px; fill: rgb(128, 128, 128); fill-opacity: 1; white-space: pre; opacity: 1;" transform="translate(982.82,0)">50</text></g><g class="xtick"><text text-anchor="middle" x="0" y="690.4" style="font-family: 'Open Sans', verdana, arial, sans-serif; font-size: 12px; fill: rgb(128, 128, 128); fill-opacity: 1; white-space: pre; opacity: 1;" transform="translate(1128.55,0)">100</text></g><g class="xtick"><text text-anchor="middle" x="0" y="690.4" style="font-family: 'Open Sans', verdana, arial, sans-serif; font-size: 12px; fill: rgb(128, 128, 128); fill-opacity: 1; white-space: pre; opacity: 1;" transform="translate(1274.29,0)">200</text></g></g><g class="yaxislayer-above"/><g class="overaxes-above"/></g></g><g class="polarlayer"/><g class="smithlayer"/><g class="ternarylayer"/><g class="geolayer"/><g class="funnelarealayer"/><g class="pielayer"/><g class="iciclelayer"/><g class="treemaplayer"/><g class="sunburstlayer"/><g class="glimages"/><defs id="topdefs-38e4dd"><g class="clips"/></defs><g class="layer-above"><g class="imagelayer"/><g class="shapelayer"><g class="shape-group" data-index="0" clip-path="url(#clip38e4ddx)"><path data-index="0" fill-rule="evenodd" d="M319.48,670L319.48,100" style="opacity: 1; stroke: rgb(128, 128, 128); stroke-opacity: 1; fill: rgb(0, 0, 0); fill-opacity: 0; stroke-dasharray: 3px, 3px; stroke-width: 0.5px;"/></g><g class="shape-group" data-index="1" clip-path="url(#clip38e4ddx)"><path data-index="1" fill-rule="evenodd" d="M1010.7,670L1010.7,100" style="opacity: 1; stroke: rgb(128, 128, 128); stroke-opacity: 1; fill: rgb(0, 0, 0); fill-opacity: 0; stroke-dasharray: 3px, 3px; stroke-width: 0.5px;"/></g><g class="shape-group" data-index="2" clip-path="url(#clip38e4ddx)"><path data-index="2" fill-rule="evenodd" d="M321.27,670L321.27,100" style="opacity: 1; stroke: rgb(255, 0, 0); stroke-opacity: 1; fill: rgb(0, 0, 0); fill-opacity: 0; stroke-dasharray: 3px, 3px; stroke-width: 0.5px;"/></g><g class="shape-group" data-index="3" clip-path="url(#clip38e4ddx)"><path data-index="3" fill-rule="evenodd" d="M781.28,670L781.28,100" style="opacity: 1; stroke: rgb(0, 0, 0); stroke-opacity: 1; fill: rgb(0, 0, 0); fill-opacity: 0; stroke-dasharray: 3px, 3px; stroke-width: 0.5px;"/></g><g class="shape-group" data-index="4" clip-path="url(#clip38e4ddx)"><path data-index="4" fill-rule="evenodd" d="M602.72,670L602.72,100" style="opacity: 1; stroke: rgb(0, 0, 0); stroke-opacity: 1; fill: rgb(0, 0, 0); fill-opacity: 0; stroke-dasharray: 3px, 3px; stroke-width: 0.5px;"/></g><g class="shape-group" data-index="5" clip-path="url(#clip38e4ddy)"><path data-index="5" fill-rule="evenodd" d="M80,670L1420,670" style="opacity: 1; stroke: rgb(128, 128, 128); stroke-opacity: 1; fill: rgb(0, 0, 0); fill-opacity: 0; stroke-width: 2px;"/></g></g></g><g class="infolayer"><g class="g-gtitle"><text class="gtitle" x="75" y="50" text-anchor="start" dy="0em" style="opacity: 1; font-family: 'Open Sans', verdana, arial, sans-serif; font-size: 17px; fill: rgb(42, 63, 95); fill-opacity: 1; white-space: pre;">Density curve of income for Niger and Denmark</text></g><g class="g-xtitle"><text class="xtitle" x="750" y="717.20625" text-anchor="middle" style="opacity: 1; font-family: 'Open Sans', verdana, arial, sans-serif; font-size: 14px; fill: rgb(128, 128, 128); fill-opacity: 1; white-space: pre;">Income (log scale)</text></g><g class="annotation" data-index="0" style="opacity: 1;"><g class="annotation-text-g" transform="rotate(0,388.98,125)"><g class="cursor-pointer" transform="translate(319,100)"><rect class="bg" x="0.5" y="0.5" width="138" height="49" style="stroke-width: 1px; stroke: rgb(0, 0, 0); stroke-opacity: 0; fill: rgb(0, 0, 0); fill-opacity: 0;"/><text class="annotation-text" text-anchor="start" x="2" y="14" style="font-family: 'Open Sans', verdana, arial, sans-serif; font-size: 12px; fill: rgb(42, 63, 95); fill-opacity: 1; white-space: pre;"><tspan class="line" dy="0em" x="2" y="14"><tspan style="font-weight:bold">Niger (2021)</tspan></tspan><tspan class="line" dy="1.3em" x="2" y="14">Median income: $2.10</tspan><tspan class="line" dy="2.6em" x="2" y="14">Mean income: $2.70</tspan></text></g></g></g><g class="annotation" data-index="1" style="opacity: 1;"><g class="annotation-text-g" transform="rotate(0,937.7,125)"><g class="cursor-pointer" transform="translate(865,100)"><rect class="bg" x="0.5" y="0.5" width="145" height="49" style="stroke-width: 1px; stroke: rgb(0, 0, 0); stroke-opacity: 0; fill: rgb(0, 0, 0); fill-opacity: 0;"/><text class="annotation-text" text-anchor="end" x="144.484375" y="14" style="font-family: 'Open Sans', verdana, arial, sans-serif; font-size: 12px; fill: rgb(42, 63, 95); fill-opacity: 1; white-space: pre;"><tspan class="line" dy="0em" x="144.484375" y="14"><tspan style="font-weight:bold">Denmark (2021)</tspan></tspan><tspan class="line" dy="1.3em" x="144.484375" y="14">Median income: $57.10</tspan><tspan class="line" dy="2.6em" x="144.484375" y="14">Mean income: $66.20</tspan></text></g></g></g><g class="annotation" data-index="2" style="opacity: 1;"><g class="annotation-text-g" transform="rotate(-90,330.77,589.5)"><g class="cursor-pointer" transform="translate(250,580)"><rect class="bg" x="0.5" y="0.5" width="160" height="18" style="stroke-width: 1px; stroke: rgb(0, 0, 0); stroke-opacity: 0; fill: rgb(0, 0, 0); fill-opacity: 0;"/><text class="annotation-text" text-anchor="middle" x="80.359375" y="14" style="font-family: 'Open Sans', verdana, arial, sans-serif; font-size: 12px; fill: rgb(42, 63, 95); fill-opacity: 1; white-space: pre;">International Poverty Line</text></g></g></g><g class="annotation" data-index="3" style="opacity: 1;"><g class="annotation-text-g" transform="rotate(-90,790.78,605.5)"><g class="cursor-pointer" transform="translate(726,596)"><rect class="bg" x="0.5" y="0.5" width="128" height="18" style="stroke-width: 1px; stroke: rgb(0, 0, 0); stroke-opacity: 0; fill: rgb(0, 0, 0); fill-opacity: 0;"/><text class="annotation-text" text-anchor="middle" x="64.53125" y="14" style="font-family: 'Open Sans', verdana, arial, sans-serif; font-size: 12px; fill: rgb(42, 63, 95); fill-opacity: 1; white-space: pre;">World mean: $19.20</text></g></g></g><g class="annotation" data-index="4" style="opacity: 1;"><g class="annotation-text-g" transform="rotate(-90,612.22,604)"><g class="cursor-pointer" transform="translate(546,595)"><rect class="bg" x="0.5" y="0.5" width="131" height="18" style="stroke-width: 1px; stroke: rgb(0, 0, 0); stroke-opacity: 0; fill: rgb(0, 0, 0); fill-opacity: 0;"/><text class="annotation-text" text-anchor="middle" x="66.109375" y="14" style="font-family: 'Open Sans', verdana, arial, sans-serif; font-size: 12px; fill: rgb(42, 63, 95); fill-opacity: 1; white-space: pre;">World median: $8.20</text></g></g></g></g></svg>