<svg class="main-svg" xmlns="http://www.w3.org/2000/svg" xmlns:xlink="http://www.w3.org/1999/xlink" width="1500" height="750" style="" viewBox="0 0 1500 750"><rect x="0" y="0" width="1500" height="750" style="fill: rgb(255, 255, 255); fill-opacity: 1;"/><defs id="defs-c4c55b"><g class="clips"><clipPath id="clipc4c55bxyplot" class="plotclip"><rect width="1340" height="570"/></clipPath><clipPath class="axesclip" id="clipc4c55bx"><rect x="80" y="0" width="1340" height="750"/></clipPath><clipPath class="axesclip" id="clipc4c55by"><rect x="0" y="100" width="1500" height="570"/></clipPath><clipPath class="axesclip" id="clipc4c55bxy"><rect x="80" y="100" width="1340" height="570"/></clipPath></g><g class="gradients"/><g class="patterns"/></defs><g class="bglayer"><rect class="bg" x="80" y="100" width="1340" height="570" style="fill: rgb(0, 0, 0); fill-opacity: 0; stroke-width: 0;"/></g><g class="layer-below"><g class="imagelayer"/><g class="shapelayer"/></g><g class="cartesianlayer"><g class="subplot xy"><g class="layer-subplot"><g class="shapelayer"/><g class="imagelayer"/></g><g class="minor-gridlayer"><g class="x"/><g class="y"/></g><g class="gridlayer"><g class="x"><path class="xgrid crisp" transform="translate(135.86,0)" d="M0,100v570" style="stroke: rgb(255, 255, 255); stroke-opacity: 1; stroke-width: 1px;"/><path class="xgrid crisp" transform="translate(284.41999999999996,0)" d="M0,100v570" style="stroke: rgb(255, 255, 255); stroke-opacity: 1; stroke-width: 1px;"/><path class="xgrid crisp" transform="translate(480.81,0)" d="M0,100v570" style="stroke: rgb(255, 255, 255); stroke-opacity: 1; stroke-width: 1px;"/><path class="xgrid crisp" transform="translate(629.38,0)" d="M0,100v570" style="stroke: rgb(255, 255, 255); stroke-opacity: 1; stroke-width: 1px;"/><path class="xgrid crisp" transform="translate(777.94,0)" d="M0,100v570" style="stroke: rgb(255, 255, 255); stroke-opacity: 1; stroke-width: 1px;"/><path class="xgrid crisp" transform="translate(974.33,0)" d="M0,100v570" style="stroke: rgb(255, 255, 255); stroke-opacity: 1; stroke-width: 1px;"/><path class="xgrid crisp" transform="translate(1122.89,0)" d="M0,100v570" style="stroke: rgb(255, 255, 255); stroke-opacity: 1; stroke-width: 1px;"/><path class="xgrid crisp" transform="translate(1271.46,0)" d="M0,100v570" style="stroke: rgb(255, 255, 255); stroke-opacity: 1; stroke-width: 1px;"/></g><g class="y"/></g><g class="zerolinelayer"/><g class="layer-between"><g class="shapelayer"/><g class="imagelayer"/></g><path class="xlines-below"/><path class="ylines-below"/><g class="overlines-below"/><g class="xaxislayer-below"/><g class="yaxislayer-below"/><g class="overaxes-below"/><g class="overplot"><g class="xy" transform="translate(80,100)" clip-path="url(#clipc4c55bxyplot)"><g class="scatterlayer mlayer"><g class="trace scatter traceb91b21" style="stroke-miterlimit: 2; opacity: 1;"><g class="fills"/><g class="errorbars"/><g class="lines"><path class="js-line" d="M0,558.87L14.26,553.87L15.36,553.41L27.43,547.65L28.52,547.05L40.59,539.54L41.69,538.76L52.66,530.1L53.76,529.13L64.73,518.43L65.82,517.25L76.8,504.25L77.89,502.82L88.86,487.29L89.96,485.6L100.93,467.34L102.03,465.38L114.1,442.05L115.19,439.77L127.26,413.05L128.36,410.47L141.52,377.7L142.62,374.82L157.98,332.52L159.08,329.37L184.31,254.07L185.41,250.73L210.64,175.81L211.74,172.71L226,134.59L227.09,131.85L239.16,104.01L240.26,101.71L250.13,82.91L251.23,81.04L260.01,67.9L261.1,66.48L268.78,58.06L269.88,57.08L276.46,52.34L277.56,51.74L284.14,49.39L285.24,49.21L290.73,49.13L291.82,49.29L297.31,50.95L298.4,51.45L303.89,54.83L304.99,55.68L311.57,61.91L312.67,63.14L320.35,73.21L321.44,74.85L329.12,87.71L330.22,89.73L340.09,109.88L341.19,112.32L352.16,138.67L353.26,141.48L367.52,180.4L368.62,183.54L394.95,262.3L396.04,265.64L423.47,346.41L424.57,349.47L441.02,393.05L442.12,395.78L456.38,429.14L457.48,431.53L470.65,458.23L471.74,460.29L483.81,481.22L484.91,482.97L496.98,500.6L498.07,502.06L509.04,515.4L510.14,516.62L522.21,528.61L523.31,529.59L535.37,539.13L536.47,539.89L547.44,546.73" style="vector-effect: none; fill: none; stroke: rgb(31, 119, 180); stroke-opacity: 1; stroke-width: 2px; opacity: 1;"/></g><g class="points"/><g class="text"/></g><g class="trace scatter trace12ba31" style="stroke-miterlimit: 2; opacity: 1;"><g class="fills"/><g class="errorbars"/><g class="lines"><path class="js-line" d="M555.4,568.46L585.28,566.22L586.85,566.04L607.29,563.02L608.86,562.72L626.16,558.57L627.73,558.11L643.46,552.52L645.03,551.85L657.61,545.71L659.18,544.83L671.76,536.82L673.33,535.68L684.34,526.84L685.91,525.44L698.49,512.9L700.06,511.15L711.07,497.81L712.64,495.73L725.22,477.51L726.79,475.03L739.37,453.5L740.94,450.6L755.09,422.42L756.66,419.06L770.81,386.92L772.39,383.15L789.68,339.36L791.25,335.2L814.84,270.59L816.41,266.21L844.71,189.33L846.29,185.29L860.44,150.98L862.01,147.43L873.02,124.32L874.59,121.29L884.02,104.76L885.59,102.28L895.03,89.3L896.6,87.45L904.46,79.67L906.04,78.41L912.32,74.36L913.9,73.61L920.19,71.62L921.76,71.38L928.05,71.48L929.62,71.77L935.91,73.95L937.48,74.76L943.77,78.99L945.34,80.3L953.21,88.31L954.78,90.2L962.64,101.02L964.21,103.44L973.65,119.73L975.22,122.72L986.22,145.58L987.8,149.1L1001.95,183.18L1003.52,187.2L1022.39,237.72L1023.96,242.06L1064.84,353.6L1066.41,357.64L1083.71,399.72L1085.28,403.31L1099.43,433.73L1101.01,436.89L1113.58,460.47L1115.16,463.21L1127.73,483.45L1129.31,485.77L1141.89,502.76L1143.46,504.69L1156.04,518.64L1157.61,520.21L1170.19,531.43L1171.76,532.68L1184.34,541.52L1185.91,542.5L1198.49,549.33L1200.06,550.07L1214.21,555.81L1215.79,556.35L1231.51,560.84L1233.08,561.21L1251.95,564.71L1253.52,564.94L1275.53,567.32L1277.11,567.44L1306.98,568.99L1308.55,569.04L1340,569.67" style="vector-effect: none; fill: none; stroke: rgb(255, 127, 14); stroke-opacity: 1; stroke-width: 2px; opacity: 1;"/></g><g class="points"/><g class="text"/></g><g class="trace scatter trace953ab3" style="stroke-miterlimit: 2;"><g class="fills"><g><path class="js-fill" d="M547.44,570L0,570L0,558.87L1.1,558.54L2.19,558.2L3.29,557.85L4.39,557.5L5.49,557.13L6.58,556.76L7.68,556.38L8.78,555.98L9.87,555.58L10.97,555.17L12.07,554.74L13.16,554.31L14.26,553.87L15.36,553.41L16.46,552.95L17.55,552.47L18.65,551.98L19.75,551.49L20.84,550.98L21.94,550.45L23.04,549.92L24.14,549.37L25.23,548.81L26.33,548.24L27.43,547.65L28.52,547.05L29.62,546.44L30.72,545.82L31.82,545.18L32.91,544.52L34.01,543.86L35.11,543.17L36.2,542.48L37.3,541.76L38.4,541.04L39.49,540.29L40.59,539.54L41.69,538.76L42.79,537.97L43.88,537.17L44.98,536.34L46.08,535.5L47.17,534.64L48.27,533.77L49.37,532.88L50.47,531.97L51.56,531.04L52.66,530.1L53.76,529.13L54.85,528.15L55.95,527.15L57.05,526.13L58.15,525.09L59.24,524.03L60.34,522.95L61.44,521.85L62.53,520.73L63.63,519.59L64.73,518.43L65.82,517.25L66.92,516.05L68.02,514.82L69.12,513.58L70.21,512.31L71.31,511.02L72.41,509.71L73.5,508.38L74.6,507.03L75.7,505.65L76.8,504.25L77.89,502.82L78.99,501.38L80.09,499.91L81.18,498.41L82.28,496.9L83.38,495.35L84.47,493.79L85.57,492.2L86.67,490.59L87.77,488.95L88.86,487.29L89.96,485.6L91.06,483.89L92.15,482.15L93.25,480.39L94.35,478.6L95.45,476.79L96.54,474.95L97.64,473.09L98.74,471.2L99.83,469.28L100.93,467.34L102.03,465.38L103.13,463.38L104.22,461.37L105.32,459.32L106.42,457.25L107.51,455.16L108.61,453.04L109.71,450.89L110.8,448.72L111.9,446.52L113,444.3L114.1,442.05L115.19,439.77L116.29,437.47L117.39,435.14L118.48,432.79L119.58,430.41L120.68,428L121.78,425.57L122.87,423.12L123.97,420.64L125.07,418.14L126.16,415.61L127.26,413.05L128.36,410.47L129.46,407.87L130.55,405.24L131.65,402.59L132.75,399.92L133.84,397.22L134.94,394.5L136.04,391.76L137.13,388.99L138.23,386.2L139.33,383.39L140.43,380.55L141.52,377.7L142.62,374.82L143.72,371.93L144.81,369.01L145.91,366.07L147.01,363.11L148.11,360.13L149.2,357.14L150.3,354.12L151.4,351.09L152.49,348.04L153.59,344.97L154.69,341.88L155.78,338.78L156.88,335.66L157.98,332.52L159.08,329.37L160.17,326.21L161.27,323.03L162.37,319.84L163.46,316.64L164.56,313.42L165.66,310.19L166.76,306.95L167.85,303.7L168.95,300.44L170.05,297.16L171.14,293.88L172.24,290.6L173.34,287.3L174.44,284L175.53,280.69L176.63,277.37L177.73,274.05L178.82,270.73L179.92,267.4L181.02,264.07L182.11,260.74L183.21,257.4L184.31,254.07L185.41,250.73L186.5,247.4L187.6,244.06L188.7,240.73L189.79,237.4L190.89,234.08L191.99,230.76L193.09,227.45L194.18,224.14L195.28,220.84L196.38,217.54L197.47,214.26L198.57,210.98L199.67,207.72L200.77,204.46L201.86,201.22L202.96,197.99L204.06,194.78L205.15,191.57L206.25,188.39L207.35,185.22L208.44,182.06L209.54,178.93L210.64,175.81L211.74,172.71L212.83,169.63L213.93,166.58L215.03,163.54L216.12,160.53L217.22,157.54L218.32,154.58L219.42,151.64L220.51,148.73L221.61,145.84L222.71,142.99L223.8,140.16L224.9,137.36L226,134.59L227.09,131.85L228.19,129.15L229.29,126.47L230.39,123.83L231.48,121.23L232.58,118.66L233.68,116.12L234.77,113.62L235.87,111.16L236.97,108.74L238.07,106.36L239.16,104.01L240.26,101.71L241.36,99.45L242.45,97.23L243.55,95.05L244.65,92.91L245.75,90.82L246.84,88.77L247.94,86.77L249.04,84.82L250.13,82.91L251.23,81.04L252.33,79.23L253.42,77.46L254.52,75.74L255.62,74.07L256.72,72.45L257.81,70.88L258.91,69.36L260.01,67.9L261.1,66.48L262.2,65.12L263.3,63.81L264.4,62.55L265.49,61.35L266.59,60.2L267.69,59.1L268.78,58.06L269.88,57.08L270.98,56.15L272.08,55.27L273.17,54.45L274.27,53.69L275.37,52.98L276.46,52.34L277.56,51.74L278.66,51.21L279.75,50.73L280.85,50.31L281.95,49.95L283.05,49.64L284.14,49.39L285.24,49.21L286.34,49.07L287.43,49L288.53,48.98L289.63,49.03L290.73,49.13L291.82,49.29L292.92,49.5L294.02,49.78L295.11,50.11L296.21,50.5L297.31,50.95L298.4,51.45L299.5,52.01L300.6,52.63L301.7,53.31L302.79,54.04L303.89,54.83L304.99,55.68L306.08,56.58L307.18,57.53L308.28,58.55L309.38,59.61L310.47,60.73L311.57,61.91L312.67,63.14L313.76,64.42L314.86,65.75L315.96,67.14L317.06,68.58L318.15,70.07L319.25,71.61L320.35,73.21L321.44,74.85L322.54,76.54L323.64,78.28L324.73,80.07L325.83,81.91L326.93,83.8L328.03,85.73L329.12,87.71L330.22,89.73L331.32,91.8L332.41,93.91L333.51,96.07L334.61,98.27L335.71,100.51L336.8,102.79L337.9,105.11L339,107.47L340.09,109.88L341.19,112.32L342.29,114.79L343.39,117.31L344.48,119.86L345.58,122.45L346.68,125.07L347.77,127.73L348.87,130.41L349.97,133.14L351.06,135.89L352.16,138.67L353.26,141.48L354.36,144.33L355.45,147.2L356.55,150.1L357.65,153.02L358.74,155.97L359.84,158.95L360.94,161.95L362.04,164.97L363.13,168.01L364.23,171.08L365.33,174.17L366.42,177.27L367.52,180.4L368.62,183.54L369.71,186.71L370.81,189.88L371.91,193.08L373.01,196.29L374.1,199.51L375.2,202.74L376.3,205.99L377.39,209.25L378.49,212.52L379.59,215.8L380.69,219.09L381.78,222.39L382.88,225.69L383.98,229L385.07,232.32L386.17,235.64L387.27,238.97L388.37,242.3L389.46,245.63L390.56,248.96L391.66,252.3L392.75,255.63L393.85,258.97L394.95,262.3L396.04,265.64L397.14,268.97L398.24,272.29L399.34,275.61L400.43,278.93L401.53,282.24L402.63,285.55L403.72,288.85L404.82,292.14L405.92,295.43L407.02,298.7L408.11,301.97L409.21,305.23L410.31,308.47L411.4,311.71L412.5,314.93L413.6,318.14L414.7,321.34L415.79,324.53L416.89,327.7L417.99,330.86L419.08,334L420.18,337.13L421.28,340.24L422.37,343.33L423.47,346.41L424.57,349.47L425.67,352.52L426.76,355.54L427.86,358.55L428.96,361.54L430.05,364.5L431.15,367.45L432.25,370.38L433.35,373.29L434.44,376.18L435.54,379.04L436.64,381.89L437.73,384.71L438.83,387.51L439.93,390.29L441.02,393.05L442.12,395.78L443.22,398.49L444.32,401.18L445.41,403.84L446.51,406.48L447.61,409.1L448.7,411.69L449.8,414.26L450.9,416.8L452,419.32L453.09,421.81L454.19,424.28L455.29,426.72L456.38,429.14L457.48,431.53L458.58,433.9L459.68,436.24L460.77,438.55L461.87,440.84L462.97,443.11L464.06,445.34L465.16,447.56L466.26,449.74L467.35,451.9L468.45,454.04L469.55,456.15L470.65,458.23L471.74,460.29L472.84,462.32L473.94,464.32L475.03,466.3L476.13,468.26L477.23,470.19L478.33,472.09L479.42,473.97L480.52,475.82L481.62,477.64L482.71,479.44L483.81,481.22L484.91,482.97L486.01,484.69L487.1,486.39L488.2,488.07L489.3,489.72L490.39,491.35L491.49,492.95L492.59,494.53L493.68,496.08L494.78,497.61L495.88,499.12L496.98,500.6L498.07,502.06L499.17,503.5L500.27,504.91L501.36,506.3L502.46,507.67L503.56,509.01L504.66,510.33L505.75,511.63L506.85,512.91L507.95,514.17L509.04,515.4L510.14,516.62L511.24,517.81L512.33,518.98L513.43,520.13L514.53,521.26L515.63,522.37L516.72,523.46L517.82,524.53L518.92,525.58L520.01,526.61L521.11,527.62L522.21,528.61L523.31,529.59L524.4,530.54L525.5,531.48L526.6,532.4L527.69,533.3L528.79,534.18L529.89,535.05L530.99,535.9L532.08,536.73L533.18,537.55L534.28,538.35L535.37,539.13L536.47,539.89L537.57,540.65L538.66,541.38L539.76,542.1L540.86,542.81L541.96,543.5L543.05,544.17L544.15,544.83L545.25,545.48L546.34,546.11L547.44,546.73" style="fill: rgb(103, 177, 229); fill-opacity: 1; stroke-width: 0;"/></g></g><g class="errorbars"/><g class="lines"/><g class="points"/><g class="text"/></g><g class="trace scatter trace91751a" style="stroke-miterlimit: 2;"><g class="fills"><g><path class="js-fill" d="M1340,570L555.4,570L555.4,568.46L556.98,568.38L558.55,568.3L560.12,568.21L561.69,568.13L563.27,568.03L564.84,567.94L566.41,567.84L567.98,567.73L569.56,567.62L571.13,567.5L572.7,567.38L574.27,567.26L575.84,567.13L577.42,566.99L578.99,566.85L580.56,566.7L582.13,566.55L583.71,566.39L585.28,566.22L586.85,566.04L588.42,565.86L590,565.67L591.57,565.47L593.14,565.27L594.71,565.06L596.29,564.83L597.86,564.6L599.43,564.36L601,564.11L602.57,563.86L604.15,563.59L605.72,563.31L607.29,563.02L608.86,562.72L610.44,562.4L612.01,562.08L613.58,561.74L615.15,561.4L616.73,561.03L618.3,560.66L619.87,560.27L621.44,559.87L623.01,559.45L624.59,559.02L626.16,558.57L627.73,558.11L629.3,557.63L630.88,557.14L632.45,556.62L634.02,556.09L635.59,555.54L637.17,554.98L638.74,554.39L640.31,553.79L641.88,553.16L643.46,552.52L645.03,551.85L646.6,551.17L648.17,550.46L649.74,549.72L651.32,548.97L652.89,548.19L654.46,547.39L656.03,546.56L657.61,545.71L659.18,544.83L660.75,543.93L662.32,543L663.9,542.04L665.47,541.05L667.04,540.04L668.61,539L670.18,537.92L671.76,536.82L673.33,535.68L674.9,534.52L676.47,533.32L678.05,532.09L679.62,530.83L681.19,529.53L682.76,528.2L684.34,526.84L685.91,525.44L687.48,524L689.05,522.53L690.63,521.02L692.2,519.47L693.77,517.88L695.34,516.26L696.91,514.6L698.49,512.9L700.06,511.15L701.63,509.37L703.2,507.55L704.78,505.69L706.35,503.78L707.92,501.83L709.49,499.84L711.07,497.81L712.64,495.73L714.21,493.61L715.78,491.44L717.36,489.23L718.93,486.98L720.5,484.68L722.07,482.33L723.64,479.94L725.22,477.51L726.79,475.03L728.36,472.5L729.93,469.92L731.51,467.3L733.08,464.63L734.65,461.92L736.22,459.16L737.8,456.35L739.37,453.5L740.94,450.6L742.51,447.65L744.08,444.66L745.66,441.62L747.23,438.53L748.8,435.4L750.37,432.22L751.95,429L753.52,425.73L755.09,422.42L756.66,419.06L758.24,415.66L759.81,412.21L761.38,408.72L762.95,405.19L764.53,401.62L766.1,398.01L767.67,394.35L769.24,390.66L770.81,386.92L772.39,383.15L773.96,379.34L775.53,375.49L777.1,371.61L778.68,367.69L780.25,363.73L781.82,359.75L783.39,355.73L784.97,351.68L786.54,347.6L788.11,343.49L789.68,339.36L791.25,335.2L792.83,331.01L794.4,326.8L795.97,322.57L797.54,318.32L799.12,314.04L800.69,309.75L802.26,305.45L803.83,301.12L805.41,296.79L806.98,292.44L808.55,288.09L810.12,283.72L811.7,279.35L813.27,274.97L814.84,270.59L816.41,266.21L817.98,261.83L819.56,257.45L821.13,253.08L822.7,248.71L824.27,244.35L825.85,240L827.42,235.67L828.99,231.34L830.56,227.03L832.14,222.75L833.71,218.48L835.28,214.23L836.85,210.01L838.42,205.81L840,201.64L841.57,197.5L843.14,193.4L844.71,189.33L846.29,185.29L847.86,181.3L849.43,177.34L851,173.43L852.58,169.56L854.15,165.75L855.72,161.98L857.29,158.26L858.87,154.59L860.44,150.98L862.01,147.43L863.58,143.93L865.15,140.5L866.73,137.13L868.3,133.83L869.87,130.59L871.44,127.42L873.02,124.32L874.59,121.29L876.16,118.34L877.73,115.47L879.31,112.67L880.88,109.95L882.45,107.31L884.02,104.76L885.59,102.28L887.17,99.9L888.74,97.6L890.31,95.39L891.88,93.27L893.46,91.24L895.03,89.3L896.6,87.45L898.17,85.7L899.75,84.05L901.32,82.49L902.89,81.03L904.46,79.67L906.04,78.41L907.61,77.24L909.18,76.18L910.75,75.22L912.32,74.36L913.9,73.61L915.47,72.95L917.04,72.41L918.61,71.96L920.19,71.62L921.76,71.38L923.33,71.25L924.9,71.22L926.48,71.3L928.05,71.48L929.62,71.77L931.19,72.16L932.77,72.65L934.34,73.25L935.91,73.95L937.48,74.76L939.05,75.66L940.63,76.67L942.2,77.78L943.77,78.99L945.34,80.3L946.92,81.71L948.49,83.22L950.06,84.82L951.63,86.52L953.21,88.31L954.78,90.2L956.35,92.19L957.92,94.26L959.49,96.42L961.07,98.68L962.64,101.02L964.21,103.44L965.78,105.95L967.36,108.55L968.93,111.23L970.5,113.98L972.07,116.82L973.65,119.73L975.22,122.72L976.79,125.78L978.36,128.91L979.94,132.11L981.51,135.38L983.08,138.72L984.65,142.12L986.22,145.58L987.8,149.1L989.37,152.68L990.94,156.32L992.51,160.01L994.09,163.75L995.66,167.55L997.23,171.39L998.8,175.28L1000.38,179.21L1001.95,183.18L1003.52,187.2L1005.09,191.25L1006.66,195.34L1008.24,199.46L1009.81,203.61L1011.38,207.79L1012.95,212L1014.53,216.23L1016.1,220.49L1017.67,224.77L1019.24,229.07L1020.82,233.39L1022.39,237.72L1023.96,242.06L1025.53,246.41L1027.11,250.78L1028.68,255.15L1030.25,259.52L1031.82,263.9L1033.39,268.28L1034.97,272.67L1036.54,277.04L1038.11,281.42L1039.68,285.79L1041.26,290.15L1042.83,294.5L1044.4,298.84L1045.97,303.17L1047.55,307.49L1049.12,311.79L1050.69,316.07L1052.26,320.33L1053.83,324.57L1055.41,328.8L1056.98,333L1058.55,337.17L1060.12,341.32L1061.7,345.44L1063.27,349.54L1064.84,353.6L1066.41,357.64L1067.99,361.64L1069.56,365.61L1071.13,369.55L1072.7,373.45L1074.28,377.31L1075.85,381.14L1077.42,384.94L1078.99,388.69L1080.56,392.41L1082.14,396.08L1083.71,399.72L1085.28,403.31L1086.85,406.87L1088.43,410.38L1090,413.85L1091.57,417.27L1093.14,420.65L1094.72,423.99L1096.29,427.28L1097.86,430.53L1099.43,433.73L1101.01,436.89L1102.58,440L1104.15,443.06L1105.72,446.08L1107.29,449.05L1108.87,451.98L1110.44,454.85L1112.01,457.69L1113.58,460.47L1115.16,463.21L1116.73,465.9L1118.3,468.55L1119.87,471.15L1121.45,473.7L1123.02,476.21L1124.59,478.67L1126.16,481.08L1127.73,483.45L1129.31,485.77L1130.88,488.05L1132.45,490.28L1134.02,492.47L1135.6,494.62L1137.17,496.72L1138.74,498.77L1140.31,500.79L1141.89,502.76L1143.46,504.69L1145.03,506.57L1146.6,508.42L1148.18,510.22L1149.75,511.98L1151.32,513.71L1152.89,515.39L1154.46,517.03L1156.04,518.64L1157.61,520.21L1159.18,521.74L1160.75,523.23L1162.33,524.68L1163.9,526.1L1165.47,527.49L1167.04,528.83L1168.62,530.15L1170.19,531.43L1171.76,532.68L1173.33,533.89L1174.9,535.07L1176.48,536.22L1178.05,537.34L1179.62,538.43L1181.19,539.49L1182.77,540.52L1184.34,541.52L1185.91,542.5L1187.48,543.44L1189.06,544.36L1190.63,545.25L1192.2,546.12L1193.77,546.96L1195.35,547.77L1196.92,548.56L1198.49,549.33L1200.06,550.07L1201.63,550.79L1203.21,551.49L1204.78,552.17L1206.35,552.83L1207.92,553.46L1209.5,554.08L1211.07,554.67L1212.64,555.25L1214.21,555.81L1215.79,556.35L1217.36,556.87L1218.93,557.37L1220.5,557.86L1222.07,558.33L1223.65,558.79L1225.22,559.23L1226.79,559.65L1228.36,560.06L1229.94,560.46L1231.51,560.84L1233.08,561.21L1234.65,561.56L1236.23,561.9L1237.8,562.24L1239.37,562.55L1240.94,562.86L1242.52,563.16L1244.09,563.44L1245.66,563.72L1247.23,563.98L1248.8,564.23L1250.38,564.48L1251.95,564.71L1253.52,564.94L1255.09,565.16L1256.67,565.37L1258.24,565.57L1259.81,565.76L1261.38,565.95L1262.96,566.13L1264.53,566.3L1266.1,566.46L1267.67,566.62L1269.24,566.77L1270.82,566.92L1272.39,567.06L1273.96,567.19L1275.53,567.32L1277.11,567.44L1278.68,567.56L1280.25,567.67L1281.82,567.78L1283.4,567.88L1284.97,567.98L1286.54,568.08L1288.11,568.17L1289.69,568.26L1291.26,568.34L1292.83,568.42L1294.4,568.49L1295.97,568.57L1297.55,568.64L1299.12,568.7L1300.69,568.77L1302.26,568.83L1303.84,568.88L1305.41,568.94L1306.98,568.99L1308.55,569.04L1310.13,569.09L1311.7,569.14L1313.27,569.18L1314.84,569.22L1316.42,569.26L1317.99,569.3L1319.56,569.33L1321.13,569.37L1322.7,569.4L1324.28,569.43L1325.85,569.46L1327.42,569.49L1328.99,569.52L1330.57,569.54L1332.14,569.57L1333.71,569.59L1335.28,569.61L1336.86,569.63L1338.43,569.65L1340,569.67" style="fill: rgb(255, 160, 77); fill-opacity: 1; stroke-width: 0;"/></g></g><g class="errorbars"/><g class="lines"/><g class="points"/><g class="text"/></g></g></g></g><path class="xlines-above crisp" d="" style="fill: none; stroke-width: 1px; stroke: rgb(0, 0, 0); stroke-opacity: 0;"/><path class="ylines-above crisp" d="M0,0" style="fill: none;"/><g class="overlines-above"/><g class="xaxislayer-above"><path class="xtick ticks crisp" d="M0,671v5" transform="translate(135.86,0)" style="stroke: rgb(128, 128, 128); stroke-opacity: 1; stroke-width: 1px;"/><path class="xtick ticks crisp" d="M0,671v5" transform="translate(284.41999999999996,0)" style="stroke: rgb(128, 128, 128); stroke-opacity: 1; stroke-width: 1px;"/><path class="xtick ticks crisp" d="M0,671v5" transform="translate(480.81,0)" style="stroke: rgb(128, 128, 128); stroke-opacity: 1; stroke-width: 1px;"/><path class="xtick ticks crisp" d="M0,671v5" transform="translate(629.38,0)" style="stroke: rgb(128, 128, 128); stroke-opacity: 1; stroke-width: 1px;"/><path class="xtick ticks crisp" d="M0,671v5" transform="translate(777.94,0)" style="stroke: rgb(128, 128, 128); stroke-opacity: 1; stroke-width: 1px;"/><path class="xtick ticks crisp" d="M0,671v5" transform="translate(974.33,0)" style="stroke: rgb(128, 128, 128); stroke-opacity: 1; stroke-width: 1px;"/><path class="xtick ticks crisp" d="M0,671v5" transform="translate(1122.89,0)" style="stroke: rgb(128, 128, 128); stroke-opacity: 1; stroke-width: 1px;"/><path class="xtick ticks crisp" d="M0,671v5" transform="translate(1271.46,0)" style="stroke: rgb(128, 128, 128); stroke-opacity: 1; stroke-width: 1px;"/><g class="xtick"><text text-anchor="middle" x="0" y="690.4" transform="translate(135.86,0)" style="font-family: 'Open Sans', verdana, arial, sans-serif; font-size: 12px; fill: rgb(128, 128, 128); fill-opacity: 1; white-space: pre; opacity: 1;">1</text></g><g class="xtick"><text text-anchor="middle" x="0" y="690.4" style="font-family: 'Open Sans', verdana, arial, sans-serif; font-size: 12px; fill: rgb(128, 128, 128); fill-opacity: 1; white-space: pre; opacity: 1;" transform="translate(284.41999999999996,0)">2</text></g><g class="xtick"><text text-anchor="middle" x="0" y="690.4" style="font-family: 'Open Sans', verdana, arial, sans-serif; font-size: 12px; fill: rgb(128, 128, 128); fill-opacity: 1; white-space: pre; opacity: 1;" transform="translate(480.81,0)">5</text></g><g class="xtick"><text text-anchor="middle" x="0" y="690.4" style="font-family: 'Open Sans', verdana, arial, sans-serif; font-size: 12px; fill: rgb(128, 128, 128); fill-opacity: 1; white-space: pre; opacity: 1;" transform="translate(629.38,0)">10</text></g><g class="xtick"><text text-anchor="middle" x="0" y="690.4" style="font-family: 'Open Sans', verdana, arial, sans-serif; font-size: 12px; fill: rgb(128, 128, 128); fill-opacity: 1; white-space: pre; opacity: 1;" transform="translate(777.94,0)">20</text></g><g class="xtick"><text text-anchor="middle" x="0" y="690.4" style="font-family: 'Open Sans', verdana, arial, sans-serif; font-size: 12px; fill: rgb(128, 128, 128); fill-opacity: 1; white-space: pre; opacity: 1;" transform="translate(974.33,0)">50</text></g><g class="xtick"><text text-anchor="middle" x="0" y="690.4" style="font-family: 'Open Sans', verdana, arial, sans-serif; font-size: 12px; fill: rgb(128, 128, 128); fill-opacity: 1; white-space: pre; opacity: 1;" transform="translate(1122.89,0)">100</text></g><g class="xtick"><text text-anchor="middle" x="0" y="690.4" style="font-family: 'Open Sans', verdana, arial, sans-serif; font-size: 12px; fill: rgb(128, 128, 128); fill-opacity: 1; white-space: pre; opacity: 1;" transform="translate(1271.46,0)">200</text></g></g><g class="yaxislayer-above"/><g class="overaxes-above"/></g></g><g class="polarlayer"/><g class="smithlayer"/><g class="ternarylayer"/><g class="geolayer"/><g class="funnelarealayer"/><g class="pielayer"/><g class="iciclelayer"/><g class="treemaplayer"/><g class="sunburstlayer"/><g class="glimages"/><defs id="topdefs-c4c55b"><g class="clips"/></defs><g class="layer-above"><g class="imagelayer"/><g class="shapelayer"><g class="shape-group" data-index="0" clip-path="url(#clipc4c55bx)"><path data-index="0" fill-rule="evenodd" d="M368.38,670L368.38,100" style="opacity: 1; stroke: rgb(128, 128, 128); stroke-opacity: 1; fill: rgb(0, 0, 0); fill-opacity: 0; stroke-dasharray: 3px, 3px; stroke-width: 0.5px;"/></g><g class="shape-group" data-index="1" clip-path="url(#clipc4c55bx)"><path data-index="1" fill-rule="evenodd" d="M1002.75,670L1002.75,100" style="opacity: 1; stroke: rgb(128, 128, 128); stroke-opacity: 1; fill: rgb(0, 0, 0); fill-opacity: 0; stroke-dasharray: 3px, 3px; stroke-width: 0.5px;"/></g><g class="shape-group" data-index="2" clip-path="url(#clipc4c55bx)"><path data-index="2" fill-rule="evenodd" d="M299.91999999999996,670L299.91999999999996,100" style="opacity: 1; stroke: rgb(255, 0, 0); stroke-opacity: 1; fill: rgb(0, 0, 0); fill-opacity: 0; stroke-dasharray: 3px, 3px; stroke-width: 0.5px;"/></g><g class="shape-group" data-index="3" clip-path="url(#clipc4c55bx)"><path data-index="3" fill-rule="evenodd" d="M769.02,670L769.02,100" style="opacity: 1; stroke: rgb(0, 0, 0); stroke-opacity: 1; fill: rgb(0, 0, 0); fill-opacity: 0; stroke-dasharray: 3px, 3px; stroke-width: 0.5px;"/></g><g class="shape-group" data-index="4" clip-path="url(#clipc4c55bx)"><path data-index="4" fill-rule="evenodd" d="M588.14,670L588.14,100" style="opacity: 1; stroke: rgb(0, 0, 0); stroke-opacity: 1; fill: rgb(0, 0, 0); fill-opacity: 0; stroke-dasharray: 3px, 3px; stroke-width: 0.5px;"/></g><g class="shape-group" data-index="5" clip-path="url(#clipc4c55by)"><path data-index="5" fill-rule="evenodd" d="M80,670L1420,670" style="opacity: 1; stroke: rgb(128, 128, 128); stroke-opacity: 1; fill: rgb(0, 0, 0); fill-opacity: 0; stroke-width: 2px;"/></g></g></g><g class="infolayer"><g class="g-gtitle"><text class="gtitle" x="75" y="50" text-anchor="start" dy="0em" style="opacity: 1; font-family: 'Open Sans', verdana, arial, sans-serif; font-size: 17px; fill: rgb(42, 63, 95); fill-opacity: 1; white-space: pre;">Density curve of income for Syria and Denmark</text></g><g class="g-xtitle"><text class="xtitle" x="750" y="717.20625" text-anchor="middle" style="opacity: 1; font-family: 'Open Sans', verdana, arial, sans-serif; font-size: 14px; fill: rgb(128, 128, 128); fill-opacity: 1; white-space: pre;">Income (log scale)</text></g><g class="annotation" data-index="0" style="opacity: 1;"><g class="annotation-text-g" transform="rotate(0,437.88,125)"><g class="cursor-pointer" transform="translate(368,100)"><rect class="bg" x="0.5" y="0.5" width="138" height="49" style="stroke-width: 1px; stroke: rgb(0, 0, 0); stroke-opacity: 0; fill: rgb(0, 0, 0); fill-opacity: 0;"/><text class="annotation-text" text-anchor="start" x="2" y="14" style="font-family: 'Open Sans', verdana, arial, sans-serif; font-size: 12px; fill: rgb(42, 63, 95); fill-opacity: 1; white-space: pre;"><tspan class="line" dy="0em" x="2" y="14"><tspan style="font-weight:bold">Syria (2022)</tspan></tspan><tspan class="line" dy="1.3em" x="2" y="14">Median income: $2.96</tspan><tspan class="line" dy="2.6em" x="2" y="14">Mean income: $3.30</tspan></text></g></g></g><g class="annotation" data-index="1" style="opacity: 1;"><g class="annotation-text-g" transform="rotate(0,929.75,125)"><g class="cursor-pointer" transform="translate(857,100)"><rect class="bg" x="0.5" y="0.5" width="145" height="49" style="stroke-width: 1px; stroke: rgb(0, 0, 0); stroke-opacity: 0; fill: rgb(0, 0, 0); fill-opacity: 0;"/><text class="annotation-text" text-anchor="end" x="144.484375" y="14" style="font-family: 'Open Sans', verdana, arial, sans-serif; font-size: 12px; fill: rgb(42, 63, 95); fill-opacity: 1; white-space: pre;"><tspan class="line" dy="0em" x="144.484375" y="14"><tspan style="font-weight:bold">Denmark (2021)</tspan></tspan><tspan class="line" dy="1.3em" x="144.484375" y="14">Median income: $57.09</tspan><tspan class="line" dy="2.6em" x="144.484375" y="14">Mean income: $66.20</tspan></text></g></g></g><g class="annotation" data-index="2" style="opacity: 1;"><g class="annotation-text-g" transform="rotate(-90,309.41999999999996,589.5)"><g class="cursor-pointer" transform="translate(229,580)"><rect class="bg" x="0.5" y="0.5" width="160" height="18" style="stroke-width: 1px; stroke: rgb(0, 0, 0); stroke-opacity: 0; fill: rgb(0, 0, 0); fill-opacity: 0;"/><text class="annotation-text" text-anchor="middle" x="80.359375" y="14" style="font-family: 'Open Sans', verdana, arial, sans-serif; font-size: 12px; fill: rgb(42, 63, 95); fill-opacity: 1; white-space: pre;">International Poverty Line</text></g></g></g><g class="annotation" data-index="3" style="opacity: 1;"><g class="annotation-text-g" transform="rotate(-90,778.52,605.5)"><g class="cursor-pointer" transform="translate(714,596)"><rect class="bg" x="0.5" y="0.5" width="128" height="18" style="stroke-width: 1px; stroke: rgb(0, 0, 0); stroke-opacity: 0; fill: rgb(0, 0, 0); fill-opacity: 0;"/><text class="annotation-text" text-anchor="middle" x="64.53125" y="14" style="font-family: 'Open Sans', verdana, arial, sans-serif; font-size: 12px; fill: rgb(42, 63, 95); fill-opacity: 1; white-space: pre;">World mean: $19.18</text></g></g></g><g class="annotation" data-index="4" style="opacity: 1;"><g class="annotation-text-g" transform="rotate(-90,597.64,604)"><g class="cursor-pointer" transform="translate(532,595)"><rect class="bg" x="0.5" y="0.5" width="131" height="18" style="stroke-width: 1px; stroke: rgb(0, 0, 0); stroke-opacity: 0; fill: rgb(0, 0, 0); fill-opacity: 0;"/><text class="annotation-text" text-anchor="middle" x="66.109375" y="14" style="font-family: 'Open Sans', verdana, arial, sans-serif; font-size: 12px; fill: rgb(42, 63, 95); fill-opacity: 1; white-space: pre;">World median: $8.25</text></g></g></g></g></svg>