<svg class="main-svg" xmlns="http://www.w3.org/2000/svg" xmlns:xlink="http://www.w3.org/1999/xlink" width="1500" height="750" style="" viewBox="0 0 1500 750"><rect x="0" y="0" width="1500" height="750" style="fill: rgb(255, 255, 255); fill-opacity: 1;"/><defs id="defs-180b7a"><g class="clips"><clipPath id="clip180b7axyplot" class="plotclip"><rect width="1340" height="570"/></clipPath><clipPath class="axesclip" id="clip180b7ax"><rect x="80" y="0" width="1340" height="750"/></clipPath><clipPath class="axesclip" id="clip180b7ay"><rect x="0" y="100" width="1500" height="570"/></clipPath><clipPath class="axesclip" id="clip180b7axy"><rect x="80" y="100" width="1340" height="570"/></clipPath></g><g class="gradients"/><g class="patterns"/></defs><g class="bglayer"><rect class="bg" x="80" y="100" width="1340" height="570" style="fill: rgb(0, 0, 0); fill-opacity: 0; stroke-width: 0;"/></g><g class="layer-below"><g class="imagelayer"/><g class="shapelayer"/></g><g class="cartesianlayer"><g class="subplot xy"><g class="layer-subplot"><g class="shapelayer"/><g class="imagelayer"/></g><g class="minor-gridlayer"><g class="x"/><g class="y"/></g><g class="gridlayer"><g class="x"><path class="xgrid crisp" transform="translate(135.86,0)" d="M0,100v570" style="stroke: rgb(255, 255, 255); stroke-opacity: 1; stroke-width: 1px;"/><path class="xgrid crisp" transform="translate(284.41999999999996,0)" d="M0,100v570" style="stroke: rgb(255, 255, 255); stroke-opacity: 1; stroke-width: 1px;"/><path class="xgrid crisp" transform="translate(480.81,0)" d="M0,100v570" style="stroke: rgb(255, 255, 255); stroke-opacity: 1; stroke-width: 1px;"/><path class="xgrid crisp" transform="translate(629.38,0)" d="M0,100v570" style="stroke: rgb(255, 255, 255); stroke-opacity: 1; stroke-width: 1px;"/><path class="xgrid crisp" transform="translate(777.94,0)" d="M0,100v570" style="stroke: rgb(255, 255, 255); stroke-opacity: 1; stroke-width: 1px;"/><path class="xgrid crisp" transform="translate(974.33,0)" d="M0,100v570" style="stroke: rgb(255, 255, 255); stroke-opacity: 1; stroke-width: 1px;"/><path class="xgrid crisp" transform="translate(1122.89,0)" d="M0,100v570" style="stroke: rgb(255, 255, 255); stroke-opacity: 1; stroke-width: 1px;"/><path class="xgrid crisp" transform="translate(1271.46,0)" d="M0,100v570" style="stroke: rgb(255, 255, 255); stroke-opacity: 1; stroke-width: 1px;"/></g><g class="y"/></g><g class="zerolinelayer"/><g class="layer-between"><g class="shapelayer"/><g class="imagelayer"/></g><path class="xlines-below"/><path class="ylines-below"/><g class="overlines-below"/><g class="xaxislayer-below"/><g class="yaxislayer-below"/><g class="overaxes-below"/><g class="overplot"><g class="xy" transform="translate(80,100)" clip-path="url(#clip180b7axyplot)"><g class="scatterlayer mlayer"><g class="trace scatter trace16af05" style="stroke-miterlimit: 2; opacity: 1;"><g class="fills"/><g class="errorbars"/><g class="lines"><path class="js-line" d="M0,547.58L16.46,540.5L17.55,539.96L30.72,532.59L31.82,531.89L43.88,523.17L44.98,522.27L55.95,512.36L57.05,511.27L69.12,498.07L70.21,496.77L83.38,479.7L84.47,478.17L97.64,458.48L98.74,456.74L114.1,430.57L115.19,428.58L129.46,401.11L130.55,398.87L144.81,368.15L145.91,365.66L161.27,328.93L162.37,326.18L183.21,271.27L184.31,268.27L224.9,158.91L226,156.21L238.07,128.49L239.16,126.18L249.04,107.17L250.13,105.28L258.91,91.95L260.01,90.52L267.69,82.07L268.78,81.1L275.37,76.49L276.46,75.93L281.95,74.07L283.05,73.88L288.53,73.85L289.63,74.03L295.11,75.8L296.21,76.32L302.79,80.68L303.89,81.59L310.47,88.16L311.57,89.43L319.25,99.56L320.35,101.18L330.22,117.39L331.32,119.36L343.39,142.88L344.48,145.17L358.74,176.68L359.84,179.23L377.39,221.63L378.49,224.37L435.54,366L436.64,368.5L453.09,404.4L454.19,406.68L470.65,438.89L471.74,440.9L486.01,465.42L487.1,467.17L500.27,486.64L501.36,488.13L513.43,503.21L514.53,504.47L527.69,518.13L528.79,519.16L543.05,531.25L544.15,532.09L547.44,534.55" style="vector-effect: none; fill: none; stroke: rgb(31, 119, 180); stroke-opacity: 1; stroke-width: 2px; opacity: 1;"/></g><g class="points"/><g class="text"/></g><g class="trace scatter trace29fad8" style="stroke-miterlimit: 2; opacity: 1;"><g class="fills"/><g class="errorbars"/><g class="lines"><path class="js-line" d="M555.4,557.3L572.7,557.79L574.27,557.89L608.86,559.81L610.44,559.77L623.01,558.67L624.59,558.42L635.59,555.95L637.17,555.49L648.17,551.46L649.74,550.77L662.32,544.27L663.9,543.33L676.47,534.89L678.05,533.71L690.63,523.35L692.2,521.93L704.78,509.59L706.35,507.92L720.5,491.54L722.07,489.56L736.22,470.28L737.8,467.96L750.37,448L751.95,445.32L764.53,422.15L766.1,419.02L778.68,391.97L780.25,388.31L792.83,356.74L794.4,352.49L806.98,316.21L808.55,311.39L824.27,260.45L825.85,255.14L862.01,134.07L863.58,129.33L874.59,98.61L876.16,94.63L885.59,73.25L887.17,70.14L895.03,56.61L896.6,54.33L902.89,46.68L904.46,45.14L910.75,40.51L912.32,39.74L917.04,38.33L918.61,38.16L923.33,38.58L924.9,39.02L929.62,41.23L931.19,42.26L937.48,47.79L939.05,49.51L945.34,57.74L946.92,60.11L954.78,73.75L956.35,76.81L965.78,97.22L967.36,100.93L979.94,133.18L981.51,137.48L1000.38,191.79L1001.95,196.45L1041.26,311.23L1042.83,315.59L1061.7,365.7L1063.27,369.67L1078.99,407.22L1080.56,410.75L1094.72,440.48L1096.29,443.54L1108.87,466.28L1110.44,468.9L1123.02,488.02L1124.59,490.19L1135.6,504.03L1137.17,505.83L1148.18,517.25L1149.75,518.73L1162.33,529.32L1163.9,530.5L1178.05,540.03L1179.62,540.97L1193.77,548.61L1195.35,549.37L1209.5,555.45L1211.07,556.04L1225.22,560.59L1226.79,561.01L1240.94,563.94L1242.52,564.18L1256.67,565.46L1258.24,565.51L1272.39,565.24L1273.96,565.14L1292.83,562.97L1294.4,562.74L1330.57,557.9L1332.14,557.8L1340,557.53" style="vector-effect: none; fill: none; stroke: rgb(255, 127, 14); stroke-opacity: 1; stroke-width: 2px; opacity: 1;"/></g><g class="points"/><g class="text"/></g><g class="trace scatter trace64342c" style="stroke-miterlimit: 2;"><g class="fills"><g><path class="js-fill" d="M547.44,570L0,570L0,547.58L1.1,547.16L2.19,546.73L3.29,546.29L4.39,545.85L5.49,545.4L6.58,544.95L7.68,544.48L8.78,544.01L9.87,543.54L10.97,543.05L12.07,542.56L13.16,542.06L14.26,541.55L15.36,541.03L16.46,540.5L17.55,539.96L18.65,539.41L19.75,538.85L20.84,538.28L21.94,537.7L23.04,537.11L24.14,536.5L25.23,535.88L26.33,535.25L27.43,534.61L28.52,533.95L29.62,533.28L30.72,532.59L31.82,531.89L32.91,531.18L34.01,530.45L35.11,529.7L36.2,528.94L37.3,528.17L38.4,527.38L39.49,526.57L40.59,525.74L41.69,524.9L42.79,524.04L43.88,523.17L44.98,522.27L46.08,521.36L47.17,520.43L48.27,519.49L49.37,518.52L50.47,517.54L51.56,516.54L52.66,515.53L53.76,514.49L54.85,513.44L55.95,512.36L57.05,511.27L58.15,510.16L59.24,509.04L60.34,507.89L61.44,506.73L62.53,505.55L63.63,504.35L64.73,503.13L65.82,501.89L66.92,500.64L68.02,499.37L69.12,498.07L70.21,496.77L71.31,495.44L72.41,494.1L73.5,492.74L74.6,491.36L75.7,489.96L76.8,488.55L77.89,487.11L78.99,485.67L80.09,484.2L81.18,482.72L82.28,481.22L83.38,479.7L84.47,478.17L85.57,476.62L86.67,475.05L87.77,473.47L88.86,471.87L89.96,470.25L91.06,468.62L92.15,466.97L93.25,465.31L94.35,463.63L95.45,461.93L96.54,460.21L97.64,458.48L98.74,456.74L99.83,454.97L100.93,453.19L102.03,451.4L103.13,449.59L104.22,447.76L105.32,445.91L106.42,444.05L107.51,442.18L108.61,440.28L109.71,438.37L110.8,436.45L111.9,434.51L113,432.55L114.1,430.57L115.19,428.58L116.29,426.57L117.39,424.54L118.48,422.5L119.58,420.44L120.68,418.36L121.78,416.26L122.87,414.15L123.97,412.02L125.07,409.87L126.16,407.71L127.26,405.53L128.36,403.33L129.46,401.11L130.55,398.87L131.65,396.62L132.75,394.35L133.84,392.06L134.94,389.75L136.04,387.42L137.13,385.08L138.23,382.71L139.33,380.33L140.43,377.93L141.52,375.52L142.62,373.08L143.72,370.63L144.81,368.15L145.91,365.66L147.01,363.16L148.11,360.63L149.2,358.08L150.3,355.52L151.4,352.94L152.49,350.34L153.59,347.72L154.69,345.09L155.78,342.44L156.88,339.77L157.98,337.09L159.08,334.38L160.17,331.66L161.27,328.93L162.37,326.18L163.46,323.41L164.56,320.63L165.66,317.83L166.76,315.01L167.85,312.18L168.95,309.34L170.05,306.48L171.14,303.61L172.24,300.73L173.34,297.83L174.44,294.93L175.53,292.01L176.63,289.07L177.73,286.13L178.82,283.18L179.92,280.21L181.02,277.24L182.11,274.26L183.21,271.27L184.31,268.27L185.41,265.27L186.5,262.26L187.6,259.24L188.7,256.22L189.79,253.2L190.89,250.17L191.99,247.13L193.09,244.1L194.18,241.06L195.28,238.03L196.38,234.99L197.47,231.96L198.57,228.92L199.67,225.89L200.77,222.86L201.86,219.84L202.96,216.82L204.06,213.81L205.15,210.8L206.25,207.8L207.35,204.81L208.44,201.83L209.54,198.86L210.64,195.9L211.74,192.96L212.83,190.03L213.93,187.11L215.03,184.2L216.12,181.31L217.22,178.44L218.32,175.59L219.42,172.76L220.51,169.95L221.61,167.15L222.71,164.38L223.8,161.64L224.9,158.91L226,156.21L227.09,153.54L228.19,150.9L229.29,148.28L230.39,145.7L231.48,143.14L232.58,140.61L233.68,138.12L234.77,135.66L235.87,133.24L236.97,130.85L238.07,128.49L239.16,126.18L240.26,123.9L241.36,121.66L242.45,119.46L243.55,117.3L244.65,115.19L245.75,113.12L246.84,111.09L247.94,109.11L249.04,107.17L250.13,105.28L251.23,103.44L252.33,101.65L253.42,99.9L254.52,98.21L255.62,96.57L256.72,94.98L257.81,93.44L258.91,91.95L260.01,90.52L261.1,89.15L262.2,87.83L263.3,86.56L264.4,85.35L265.49,84.2L266.59,83.11L267.69,82.07L268.78,81.1L269.88,80.18L270.98,79.32L272.08,78.52L273.17,77.79L274.27,77.11L275.37,76.49L276.46,75.93L277.56,75.44L278.66,75.01L279.75,74.63L280.85,74.32L281.95,74.07L283.05,73.88L284.14,73.75L285.24,73.69L286.34,73.68L287.43,73.74L288.53,73.85L289.63,74.03L290.73,74.26L291.82,74.56L292.92,74.91L294.02,75.33L295.11,75.8L296.21,76.32L297.31,76.91L298.4,77.55L299.5,78.25L300.6,79.01L301.7,79.81L302.79,80.68L303.89,81.59L304.99,82.56L306.08,83.58L307.18,84.65L308.28,85.77L309.38,86.95L310.47,88.16L311.57,89.43L312.67,90.75L313.76,92.11L314.86,93.51L315.96,94.96L317.06,96.45L318.15,97.98L319.25,99.56L320.35,101.18L321.44,102.83L322.54,104.53L323.64,106.26L324.73,108.03L325.83,109.83L326.93,111.67L328.03,113.54L329.12,115.45L330.22,117.39L331.32,119.36L332.41,121.36L333.51,123.39L334.61,125.45L335.71,127.54L336.8,129.65L337.9,131.8L339,133.96L340.09,136.16L341.19,138.37L342.29,140.62L343.39,142.88L344.48,145.17L345.58,147.48L346.68,149.81L347.77,152.16L348.87,154.53L349.97,156.92L351.06,159.33L352.16,161.76L353.26,164.2L354.36,166.67L355.45,169.15L356.55,171.64L357.65,174.15L358.74,176.68L359.84,179.23L360.94,181.78L362.04,184.36L363.13,186.94L364.23,189.54L365.33,192.15L366.42,194.78L367.52,197.42L368.62,200.06L369.71,202.72L370.81,205.4L371.91,208.08L373.01,210.77L374.1,213.47L375.2,216.18L376.3,218.9L377.39,221.63L378.49,224.37L379.59,227.11L380.69,229.86L381.78,232.62L382.88,235.38L383.98,238.15L385.07,240.93L386.17,243.71L387.27,246.49L388.37,249.28L389.46,252.07L390.56,254.86L391.66,257.66L392.75,260.46L393.85,263.26L394.95,266.06L396.04,268.86L397.14,271.66L398.24,274.46L399.34,277.26L400.43,280.06L401.53,282.85L402.63,285.65L403.72,288.44L404.82,291.22L405.92,294L407.02,296.78L408.11,299.55L409.21,302.32L410.31,305.08L411.4,307.83L412.5,310.58L413.6,313.32L414.7,316.05L415.79,318.77L416.89,321.49L417.99,324.19L419.08,326.89L420.18,329.58L421.28,332.25L422.37,334.92L423.47,337.57L424.57,340.22L425.67,342.85L426.76,345.47L427.86,348.08L428.96,350.68L430.05,353.26L431.15,355.84L432.25,358.4L433.35,360.94L434.44,363.48L435.54,366L436.64,368.5L437.73,371L438.83,373.48L439.93,375.94L441.02,378.39L442.12,380.83L443.22,383.25L444.32,385.66L445.41,388.06L446.51,390.44L447.61,392.8L448.7,395.15L449.8,397.49L450.9,399.81L452,402.11L453.09,404.4L454.19,406.68L455.29,408.94L456.38,411.18L457.48,413.41L458.58,415.62L459.68,417.82L460.77,420L461.87,422.17L462.97,424.31L464.06,426.45L465.16,428.56L466.26,430.66L467.35,432.74L468.45,434.81L469.55,436.86L470.65,438.89L471.74,440.9L472.84,442.9L473.94,444.88L475.03,446.84L476.13,448.78L477.23,450.7L478.33,452.61L479.42,454.5L480.52,456.36L481.62,458.21L482.71,460.04L483.81,461.85L484.91,463.65L486.01,465.42L487.1,467.17L488.2,468.9L489.3,470.62L490.39,472.31L491.49,473.98L492.59,475.64L493.68,477.27L494.78,478.88L495.88,480.48L496.98,482.05L498.07,483.6L499.17,485.13L500.27,486.64L501.36,488.13L502.46,489.6L503.56,491.05L504.66,492.48L505.75,493.89L506.85,495.28L507.95,496.65L509.04,498L510.14,499.34L511.24,500.65L512.33,501.94L513.43,503.21L514.53,504.47L515.63,505.7L516.72,506.92L517.82,508.12L518.92,509.3L520.01,510.46L521.11,511.61L522.21,512.74L523.31,513.85L524.4,514.94L525.5,516.02L526.6,517.08L527.69,518.13L528.79,519.16L529.89,520.17L530.99,521.17L532.08,522.16L533.18,523.13L534.28,524.08L535.37,525.03L536.47,525.95L537.57,526.87L538.66,527.77L539.76,528.66L540.86,529.54L541.96,530.4L543.05,531.25L544.15,532.09L545.25,532.92L546.34,533.74L547.44,534.55" style="fill: rgb(103, 177, 229); fill-opacity: 1; stroke-width: 0;"/></g></g><g class="errorbars"/><g class="lines"/><g class="points"/><g class="text"/></g><g class="trace scatter tracea5751b" style="stroke-miterlimit: 2;"><g class="fills"><g><path class="js-fill" d="M1340,570L555.4,570L555.4,557.3L556.98,557.28L558.55,557.28L560.12,557.29L561.69,557.31L563.27,557.34L564.84,557.39L566.41,557.45L567.98,557.52L569.56,557.6L571.13,557.69L572.7,557.79L574.27,557.89L575.84,558L577.42,558.12L578.99,558.24L580.56,558.37L582.13,558.49L583.71,558.62L585.28,558.75L586.85,558.87L588.42,559L590,559.12L591.57,559.23L593.14,559.34L594.71,559.44L596.29,559.54L597.86,559.62L599.43,559.69L601,559.75L602.57,559.79L604.15,559.82L605.72,559.83L607.29,559.83L608.86,559.81L610.44,559.77L612.01,559.71L613.58,559.63L615.15,559.53L616.73,559.4L618.3,559.26L619.87,559.08L621.44,558.89L623.01,558.67L624.59,558.42L626.16,558.15L627.73,557.85L629.3,557.52L630.88,557.17L632.45,556.79L634.02,556.39L635.59,555.95L637.17,555.49L638.74,555L640.31,554.48L641.88,553.93L643.46,553.35L645.03,552.75L646.6,552.12L648.17,551.46L649.74,550.77L651.32,550.05L652.89,549.31L654.46,548.54L656.03,547.74L657.61,546.91L659.18,546.06L660.75,545.18L662.32,544.27L663.9,543.33L665.47,542.37L667.04,541.38L668.61,540.37L670.18,539.32L671.76,538.26L673.33,537.16L674.9,536.04L676.47,534.89L678.05,533.71L679.62,532.51L681.19,531.28L682.76,530.03L684.34,528.74L685.91,527.44L687.48,526.1L689.05,524.74L690.63,523.35L692.2,521.93L693.77,520.49L695.34,519.01L696.91,517.51L698.49,515.99L700.06,514.43L701.63,512.84L703.2,511.23L704.78,509.59L706.35,507.92L707.92,506.22L709.49,504.49L711.07,502.73L712.64,500.94L714.21,499.12L715.78,497.27L717.36,495.39L718.93,493.48L720.5,491.54L722.07,489.56L723.64,487.55L725.22,485.51L726.79,483.44L728.36,481.33L729.93,479.19L731.51,477.02L733.08,474.81L734.65,472.56L736.22,470.28L737.8,467.96L739.37,465.6L740.94,463.21L742.51,460.77L744.08,458.3L745.66,455.79L747.23,453.23L748.8,450.64L750.37,448L751.95,445.32L753.52,442.59L755.09,439.81L756.66,436.99L758.24,434.12L759.81,431.21L761.38,428.24L762.95,425.22L764.53,422.15L766.1,419.02L767.67,415.84L769.24,412.61L770.81,409.32L772.39,405.97L773.96,402.56L775.53,399.09L777.1,395.56L778.68,391.97L780.25,388.31L781.82,384.59L783.39,380.81L784.97,376.96L786.54,373.05L788.11,369.07L789.68,365.03L791.25,360.92L792.83,356.74L794.4,352.49L795.97,348.18L797.54,343.81L799.12,339.37L800.69,334.86L802.26,330.29L803.83,325.66L805.41,320.96L806.98,316.21L808.55,311.39L810.12,306.52L811.7,301.59L813.27,296.61L814.84,291.58L816.41,286.49L817.98,281.37L819.56,276.2L821.13,270.98L822.7,265.73L824.27,260.45L825.85,255.14L827.42,249.79L828.99,244.43L830.56,239.04L832.14,233.64L833.71,228.23L835.28,222.81L836.85,217.39L838.42,211.97L840,206.56L841.57,201.16L843.14,195.77L844.71,190.4L846.29,185.06L847.86,179.75L849.43,174.47L851,169.23L852.58,164.04L854.15,158.89L855.72,153.8L857.29,148.77L858.87,143.8L860.44,138.9L862.01,134.07L863.58,129.33L865.15,124.66L866.73,120.08L868.3,115.58L869.87,111.19L871.44,106.89L873.02,102.69L874.59,98.61L876.16,94.63L877.73,90.76L879.31,87.01L880.88,83.39L882.45,79.88L884.02,76.5L885.59,73.25L887.17,70.14L888.74,67.15L890.31,64.31L891.88,61.6L893.46,59.03L895.03,56.61L896.6,54.33L898.17,52.19L899.75,50.21L901.32,48.37L902.89,46.68L904.46,45.14L906.04,43.76L907.61,42.52L909.18,41.44L910.75,40.51L912.32,39.74L913.9,39.11L915.47,38.64L917.04,38.33L918.61,38.16L920.19,38.15L921.76,38.29L923.33,38.58L924.9,39.02L926.48,39.61L928.05,40.35L929.62,41.23L931.19,42.26L932.77,43.43L934.34,44.74L935.91,46.19L937.48,47.79L939.05,49.51L940.63,51.38L942.2,53.37L943.77,55.49L945.34,57.74L946.92,60.11L948.49,62.61L950.06,65.22L951.63,67.95L953.21,70.8L954.78,73.75L956.35,76.81L957.92,79.97L959.49,83.23L961.07,86.59L962.64,90.05L964.21,93.59L965.78,97.22L967.36,100.93L968.93,104.72L970.5,108.59L972.07,112.53L973.65,116.54L975.22,120.61L976.79,124.75L978.36,128.94L979.94,133.18L981.51,137.48L983.08,141.82L984.65,146.21L986.22,150.64L987.8,155.1L989.37,159.6L990.94,164.13L992.51,168.69L994.09,173.27L995.66,177.87L997.23,182.5L998.8,187.14L1000.38,191.79L1001.95,196.45L1003.52,201.12L1005.09,205.8L1006.66,210.49L1008.24,215.17L1009.81,219.86L1011.38,224.54L1012.95,229.22L1014.53,233.89L1016.1,238.56L1017.67,243.22L1019.24,247.87L1020.82,252.51L1022.39,257.13L1023.96,261.74L1025.53,266.34L1027.11,270.91L1028.68,275.48L1030.25,280.02L1031.82,284.54L1033.39,289.05L1034.97,293.53L1036.54,297.99L1038.11,302.43L1039.68,306.84L1041.26,311.23L1042.83,315.59L1044.4,319.93L1045.97,324.24L1047.55,328.52L1049.12,332.78L1050.69,337L1052.26,341.2L1053.83,345.36L1055.41,349.5L1056.98,353.6L1058.55,357.67L1060.12,361.7L1061.7,365.7L1063.27,369.67L1064.84,373.6L1066.41,377.49L1067.99,381.34L1069.56,385.16L1071.13,388.94L1072.7,392.68L1074.28,396.38L1075.85,400.03L1077.42,403.65L1078.99,407.22L1080.56,410.75L1082.14,414.24L1083.71,417.68L1085.28,421.08L1086.85,424.43L1088.43,427.73L1090,430.99L1091.57,434.2L1093.14,437.36L1094.72,440.48L1096.29,443.54L1097.86,446.56L1099.43,449.53L1101.01,452.45L1102.58,455.31L1104.15,458.13L1105.72,460.9L1107.29,463.62L1108.87,466.28L1110.44,468.9L1112.01,471.46L1113.58,473.98L1115.16,476.44L1116.73,478.86L1118.3,481.22L1119.87,483.54L1121.45,485.8L1123.02,488.02L1124.59,490.19L1126.16,492.3L1127.73,494.38L1129.31,496.4L1130.88,498.38L1132.45,500.31L1134.02,502.19L1135.6,504.03L1137.17,505.83L1138.74,507.59L1140.31,509.3L1141.89,510.97L1143.46,512.6L1145.03,514.19L1146.6,515.74L1148.18,517.25L1149.75,518.73L1151.32,520.17L1152.89,521.57L1154.46,522.94L1156.04,524.28L1157.61,525.59L1159.18,526.86L1160.75,528.1L1162.33,529.32L1163.9,530.5L1165.47,531.66L1167.04,532.79L1168.62,533.9L1170.19,534.98L1171.76,536.03L1173.33,537.07L1174.9,538.08L1176.48,539.06L1178.05,540.03L1179.62,540.97L1181.19,541.9L1182.77,542.8L1184.34,543.69L1185.91,544.56L1187.48,545.4L1189.06,546.23L1190.63,547.04L1192.2,547.84L1193.77,548.61L1195.35,549.37L1196.92,550.12L1198.49,550.84L1200.06,551.55L1201.63,552.24L1203.21,552.92L1204.78,553.58L1206.35,554.22L1207.92,554.84L1209.5,555.45L1211.07,556.04L1212.64,556.62L1214.21,557.18L1215.79,557.72L1217.36,558.24L1218.93,558.75L1220.5,559.23L1222.07,559.71L1223.65,560.16L1225.22,560.59L1226.79,561.01L1228.36,561.41L1229.94,561.79L1231.51,562.15L1233.08,562.5L1234.65,562.82L1236.23,563.13L1237.8,563.42L1239.37,563.69L1240.94,563.94L1242.52,564.18L1244.09,564.39L1245.66,564.59L1247.23,564.77L1248.8,564.93L1250.38,565.07L1251.95,565.19L1253.52,565.3L1255.09,565.39L1256.67,565.46L1258.24,565.51L1259.81,565.55L1261.38,565.56L1262.96,565.57L1264.53,565.55L1266.1,565.52L1267.67,565.47L1269.24,565.41L1270.82,565.33L1272.39,565.24L1273.96,565.14L1275.53,565.02L1277.11,564.88L1278.68,564.74L1280.25,564.58L1281.82,564.41L1283.4,564.23L1284.97,564.05L1286.54,563.85L1288.11,563.64L1289.69,563.42L1291.26,563.2L1292.83,562.97L1294.4,562.74L1295.97,562.5L1297.55,562.26L1299.12,562.01L1300.69,561.76L1302.26,561.51L1303.84,561.26L1305.41,561.02L1306.98,560.77L1308.55,560.53L1310.13,560.29L1311.7,560.05L1313.27,559.82L1314.84,559.6L1316.42,559.38L1317.99,559.17L1319.56,558.98L1321.13,558.79L1322.7,558.61L1324.28,558.44L1325.85,558.29L1327.42,558.15L1328.99,558.02L1330.57,557.9L1332.14,557.8L1333.71,557.72L1335.28,557.65L1336.86,557.59L1338.43,557.55L1340,557.53" style="fill: rgb(255, 160, 77); fill-opacity: 1; stroke-width: 0;"/></g></g><g class="errorbars"/><g class="lines"/><g class="points"/><g class="text"/></g></g></g></g><path class="xlines-above crisp" d="" style="fill: none; stroke-width: 1px; stroke: rgb(0, 0, 0); stroke-opacity: 0;"/><path class="ylines-above crisp" d="M0,0" style="fill: none;"/><g class="overlines-above"/><g class="xaxislayer-above"><path class="xtick ticks crisp" d="M0,671v5" transform="translate(135.86,0)" style="stroke: rgb(128, 128, 128); stroke-opacity: 1; stroke-width: 1px;"/><path class="xtick ticks crisp" d="M0,671v5" transform="translate(284.41999999999996,0)" style="stroke: rgb(128, 128, 128); stroke-opacity: 1; stroke-width: 1px;"/><path class="xtick ticks crisp" d="M0,671v5" transform="translate(480.81,0)" style="stroke: rgb(128, 128, 128); stroke-opacity: 1; stroke-width: 1px;"/><path class="xtick ticks crisp" d="M0,671v5" transform="translate(629.38,0)" style="stroke: rgb(128, 128, 128); stroke-opacity: 1; stroke-width: 1px;"/><path class="xtick ticks crisp" d="M0,671v5" transform="translate(777.94,0)" style="stroke: rgb(128, 128, 128); stroke-opacity: 1; stroke-width: 1px;"/><path class="xtick ticks crisp" d="M0,671v5" transform="translate(974.33,0)" style="stroke: rgb(128, 128, 128); stroke-opacity: 1; stroke-width: 1px;"/><path class="xtick ticks crisp" d="M0,671v5" transform="translate(1122.89,0)" style="stroke: rgb(128, 128, 128); stroke-opacity: 1; stroke-width: 1px;"/><path class="xtick ticks crisp" d="M0,671v5" transform="translate(1271.46,0)" style="stroke: rgb(128, 128, 128); stroke-opacity: 1; stroke-width: 1px;"/><g class="xtick"><text text-anchor="middle" x="0" y="690.4" transform="translate(135.86,0)" style="font-family: 'Open Sans', verdana, arial, sans-serif; font-size: 12px; fill: rgb(128, 128, 128); fill-opacity: 1; white-space: pre; opacity: 1;">1</text></g><g class="xtick"><text text-anchor="middle" x="0" y="690.4" style="font-family: 'Open Sans', verdana, arial, sans-serif; font-size: 12px; fill: rgb(128, 128, 128); fill-opacity: 1; white-space: pre; opacity: 1;" transform="translate(284.41999999999996,0)">2</text></g><g class="xtick"><text text-anchor="middle" x="0" y="690.4" style="font-family: 'Open Sans', verdana, arial, sans-serif; font-size: 12px; fill: rgb(128, 128, 128); fill-opacity: 1; white-space: pre; opacity: 1;" transform="translate(480.81,0)">5</text></g><g class="xtick"><text text-anchor="middle" x="0" y="690.4" style="font-family: 'Open Sans', verdana, arial, sans-serif; font-size: 12px; fill: rgb(128, 128, 128); fill-opacity: 1; white-space: pre; opacity: 1;" transform="translate(629.38,0)">10</text></g><g class="xtick"><text text-anchor="middle" x="0" y="690.4" style="font-family: 'Open Sans', verdana, arial, sans-serif; font-size: 12px; fill: rgb(128, 128, 128); fill-opacity: 1; white-space: pre; opacity: 1;" transform="translate(777.94,0)">20</text></g><g class="xtick"><text text-anchor="middle" x="0" y="690.4" style="font-family: 'Open Sans', verdana, arial, sans-serif; font-size: 12px; fill: rgb(128, 128, 128); fill-opacity: 1; white-space: pre; opacity: 1;" transform="translate(974.33,0)">50</text></g><g class="xtick"><text text-anchor="middle" x="0" y="690.4" style="font-family: 'Open Sans', verdana, arial, sans-serif; font-size: 12px; fill: rgb(128, 128, 128); fill-opacity: 1; white-space: pre; opacity: 1;" transform="translate(1122.89,0)">100</text></g><g class="xtick"><text text-anchor="middle" x="0" y="690.4" style="font-family: 'Open Sans', verdana, arial, sans-serif; font-size: 12px; fill: rgb(128, 128, 128); fill-opacity: 1; white-space: pre; opacity: 1;" transform="translate(1271.46,0)">200</text></g></g><g class="yaxislayer-above"/><g class="overaxes-above"/></g></g><g class="polarlayer"/><g class="smithlayer"/><g class="ternarylayer"/><g class="geolayer"/><g class="funnelarealayer"/><g class="pielayer"/><g class="iciclelayer"/><g class="treemaplayer"/><g class="sunburstlayer"/><g class="glimages"/><defs id="topdefs-180b7a"><g class="clips"/></defs><g class="layer-above"><g class="imagelayer"/><g class="shapelayer"><g class="shape-group" data-index="0" clip-path="url(#clip180b7ax)"><path data-index="0" fill-rule="evenodd" d="M368.38,670L368.38,100" style="opacity: 1; stroke: rgb(128, 128, 128); stroke-opacity: 1; fill: rgb(0, 0, 0); fill-opacity: 0; stroke-dasharray: 3px, 3px; stroke-width: 0.5px;"/></g><g class="shape-group" data-index="1" clip-path="url(#clip180b7ax)"><path data-index="1" fill-rule="evenodd" d="M1002.75,670L1002.75,100" style="opacity: 1; stroke: rgb(128, 128, 128); stroke-opacity: 1; fill: rgb(0, 0, 0); fill-opacity: 0; stroke-dasharray: 3px, 3px; stroke-width: 0.5px;"/></g><g class="shape-group" data-index="2" clip-path="url(#clip180b7ax)"><path data-index="2" fill-rule="evenodd" d="M299.91999999999996,670L299.91999999999996,100" style="opacity: 1; stroke: rgb(255, 0, 0); stroke-opacity: 1; fill: rgb(0, 0, 0); fill-opacity: 0; stroke-dasharray: 3px, 3px; stroke-width: 0.5px;"/></g><g class="shape-group" data-index="3" clip-path="url(#clip180b7ax)"><path data-index="3" fill-rule="evenodd" d="M768.88,670L768.88,100" style="opacity: 1; stroke: rgb(0, 0, 0); stroke-opacity: 1; fill: rgb(0, 0, 0); fill-opacity: 0; stroke-dasharray: 3px, 3px; stroke-width: 0.5px;"/></g><g class="shape-group" data-index="4" clip-path="url(#clip180b7ax)"><path data-index="4" fill-rule="evenodd" d="M586.8399999999999,670L586.8399999999999,100" style="opacity: 1; stroke: rgb(0, 0, 0); stroke-opacity: 1; fill: rgb(0, 0, 0); fill-opacity: 0; stroke-dasharray: 3px, 3px; stroke-width: 0.5px;"/></g><g class="shape-group" data-index="5" clip-path="url(#clip180b7ay)"><path data-index="5" fill-rule="evenodd" d="M80,670L1420,670" style="opacity: 1; stroke: rgb(128, 128, 128); stroke-opacity: 1; fill: rgb(0, 0, 0); fill-opacity: 0; stroke-width: 2px;"/></g></g></g><g class="infolayer"><g class="g-gtitle"><text class="gtitle" x="75" y="50" text-anchor="start" dy="0em" style="opacity: 1; font-family: 'Open Sans', verdana, arial, sans-serif; font-size: 17px; fill: rgb(42, 63, 95); fill-opacity: 1; white-space: pre;">Density curve of income for Syria and Denmark</text></g><g class="g-xtitle"><text class="xtitle" x="750" y="717.20625" text-anchor="middle" style="opacity: 1; font-family: 'Open Sans', verdana, arial, sans-serif; font-size: 14px; fill: rgb(128, 128, 128); fill-opacity: 1; white-space: pre;">Income (log scale)</text></g><g class="annotation" data-index="0" style="opacity: 1;"><g class="annotation-text-g" transform="rotate(0,437.88,125)"><g class="cursor-pointer" transform="translate(368,100)"><rect class="bg" x="0.5" y="0.5" width="138" height="49" style="stroke-width: 1px; stroke: rgb(0, 0, 0); stroke-opacity: 0; fill: rgb(0, 0, 0); fill-opacity: 0;"/><text class="annotation-text" text-anchor="start" x="2" y="14" style="font-family: 'Open Sans', verdana, arial, sans-serif; font-size: 12px; fill: rgb(42, 63, 95); fill-opacity: 1; white-space: pre;"><tspan class="line" dy="0em" x="2" y="14"><tspan style="font-weight:bold">Syria (2022)</tspan></tspan><tspan class="line" dy="1.3em" x="2" y="14">Median income: $3.00</tspan><tspan class="line" dy="2.6em" x="2" y="14">Mean income: $3.30</tspan></text></g></g></g><g class="annotation" data-index="1" style="opacity: 1;"><g class="annotation-text-g" transform="rotate(0,929.75,125)"><g class="cursor-pointer" transform="translate(857,100)"><rect class="bg" x="0.5" y="0.5" width="145" height="49" style="stroke-width: 1px; stroke: rgb(0, 0, 0); stroke-opacity: 0; fill: rgb(0, 0, 0); fill-opacity: 0;"/><text class="annotation-text" text-anchor="end" x="144.484375" y="14" style="font-family: 'Open Sans', verdana, arial, sans-serif; font-size: 12px; fill: rgb(42, 63, 95); fill-opacity: 1; white-space: pre;"><tspan class="line" dy="0em" x="144.484375" y="14"><tspan style="font-weight:bold">Denmark (2021)</tspan></tspan><tspan class="line" dy="1.3em" x="144.484375" y="14">Median income: $57.10</tspan><tspan class="line" dy="2.6em" x="144.484375" y="14">Mean income: $66.20</tspan></text></g></g></g><g class="annotation" data-index="2" style="opacity: 1;"><g class="annotation-text-g" transform="rotate(-90,309.41999999999996,589.5)"><g class="cursor-pointer" transform="translate(229,580)"><rect class="bg" x="0.5" y="0.5" width="160" height="18" style="stroke-width: 1px; stroke: rgb(0, 0, 0); stroke-opacity: 0; fill: rgb(0, 0, 0); fill-opacity: 0;"/><text class="annotation-text" text-anchor="middle" x="80.359375" y="14" style="font-family: 'Open Sans', verdana, arial, sans-serif; font-size: 12px; fill: rgb(42, 63, 95); fill-opacity: 1; white-space: pre;">International Poverty Line</text></g></g></g><g class="annotation" data-index="3" style="opacity: 1;"><g class="annotation-text-g" transform="rotate(-90,778.38,605.5)"><g class="cursor-pointer" transform="translate(714,596)"><rect class="bg" x="0.5" y="0.5" width="128" height="18" style="stroke-width: 1px; stroke: rgb(0, 0, 0); stroke-opacity: 0; fill: rgb(0, 0, 0); fill-opacity: 0;"/><text class="annotation-text" text-anchor="middle" x="64.53125" y="14" style="font-family: 'Open Sans', verdana, arial, sans-serif; font-size: 12px; fill: rgb(42, 63, 95); fill-opacity: 1; white-space: pre;">World mean: $19.20</text></g></g></g><g class="annotation" data-index="4" style="opacity: 1;"><g class="annotation-text-g" transform="rotate(-90,596.3399999999999,604)"><g class="cursor-pointer" transform="translate(530,595)"><rect class="bg" x="0.5" y="0.5" width="131" height="18" style="stroke-width: 1px; stroke: rgb(0, 0, 0); stroke-opacity: 0; fill: rgb(0, 0, 0); fill-opacity: 0;"/><text class="annotation-text" text-anchor="middle" x="66.109375" y="14" style="font-family: 'Open Sans', verdana, arial, sans-serif; font-size: 12px; fill: rgb(42, 63, 95); fill-opacity: 1; white-space: pre;">World median: $8.20</text></g></g></g></g></svg>