<svg class="main-svg" xmlns="http://www.w3.org/2000/svg" xmlns:xlink="http://www.w3.org/1999/xlink" width="1500" height="750" style="" viewBox="0 0 1500 750"><rect x="0" y="0" width="1500" height="750" style="fill: rgb(255, 255, 255); fill-opacity: 1;"/><defs id="defs-95caa1"><g class="clips"><clipPath id="clip95caa1xyplot" class="plotclip"><rect width="1340" height="570"/></clipPath><clipPath class="axesclip" id="clip95caa1x"><rect x="80" y="0" width="1340" height="750"/></clipPath><clipPath class="axesclip" id="clip95caa1y"><rect x="0" y="100" width="1500" height="570"/></clipPath><clipPath class="axesclip" id="clip95caa1xy"><rect x="80" y="100" width="1340" height="570"/></clipPath></g><g class="gradients"/><g class="patterns"/></defs><g class="bglayer"><rect class="bg" x="80" y="100" width="1340" height="570" style="fill: rgb(0, 0, 0); fill-opacity: 0; stroke-width: 0;"/></g><g class="layer-below"><g class="imagelayer"/><g class="shapelayer"/></g><g class="cartesianlayer"><g class="subplot xy"><g class="layer-subplot"><g class="shapelayer"/><g class="imagelayer"/></g><g class="minor-gridlayer"><g class="x"/><g class="y"/></g><g class="gridlayer"><g class="x"><path class="xgrid crisp" transform="translate(289.94,0)" d="M0,100v570" style="stroke: rgb(255, 255, 255); stroke-opacity: 1; stroke-width: 1px;"/><path class="xgrid crisp" transform="translate(422.95,0)" d="M0,100v570" style="stroke: rgb(255, 255, 255); stroke-opacity: 1; stroke-width: 1px;"/><path class="xgrid crisp" transform="translate(598.79,0)" d="M0,100v570" style="stroke: rgb(255, 255, 255); stroke-opacity: 1; stroke-width: 1px;"/><path class="xgrid crisp" transform="translate(731.8,0)" d="M0,100v570" style="stroke: rgb(255, 255, 255); stroke-opacity: 1; stroke-width: 1px;"/><path class="xgrid crisp" transform="translate(864.82,0)" d="M0,100v570" style="stroke: rgb(255, 255, 255); stroke-opacity: 1; stroke-width: 1px;"/><path class="xgrid crisp" transform="translate(1040.6599999999999,0)" d="M0,100v570" style="stroke: rgb(255, 255, 255); stroke-opacity: 1; stroke-width: 1px;"/><path class="xgrid crisp" transform="translate(1173.67,0)" d="M0,100v570" style="stroke: rgb(255, 255, 255); stroke-opacity: 1; stroke-width: 1px;"/><path class="xgrid crisp" transform="translate(1306.69,0)" d="M0,100v570" style="stroke: rgb(255, 255, 255); stroke-opacity: 1; stroke-width: 1px;"/></g><g class="y"/></g><g class="zerolinelayer"/><g class="layer-between"><g class="shapelayer"/><g class="imagelayer"/></g><path class="xlines-below"/><path class="ylines-below"/><g class="overlines-below"/><g class="xaxislayer-below"/><g class="yaxislayer-below"/><g class="overaxes-below"/><g class="overplot"><g class="xy" transform="translate(80,100)" clip-path="url(#clip95caa1xyplot)"><g class="scatterlayer mlayer"><g class="trace scatter trace0ac56a" style="stroke-miterlimit: 2; opacity: 1;"><g class="fills"/><g class="errorbars"/><g class="lines"><path class="js-line" d="M0,570L394.75,569.27L397.43,569.22L456.51,567.63L459.2,567.52L499.48,565.05L502.16,564.82L534.39,561.38L537.07,561.02L566.61,556.13L569.3,555.59L593.47,549.93L596.15,549.2L617.64,542.58L620.32,541.65L641.8,533.28L644.49,532.11L665.97,521.76L668.66,520.34L690.14,507.87L692.83,506.18L714.31,491.54L716.99,489.57L738.48,472.83L741.16,470.62L765.33,449.57L768.02,447.13L800.24,416.48L802.93,413.85L862,356.6L864.69,354.15L886.17,335.56L888.86,333.39L907.66,319.29L910.34,317.45L926.45,307.48L929.14,306.01L942.57,299.49L945.25,298.36L958.68,293.67L961.36,292.92L974.79,290.17L977.47,289.82L990.9,289.09L993.59,289.15L1007.01,290.45L1009.7,290.91L1023.13,294.22L1025.81,295.07L1039.24,300.29L1041.92,301.52L1055.35,308.53L1058.04,310.09L1074.15,320.58L1076.83,322.49L1095.63,337.08L1098.32,339.31L1119.8,358.29L1122.48,360.78L1154.71,391.85L1157.39,394.5L1208.42,443.88L1211.1,446.35L1237.96,469.92L1240.64,472.14L1262.12,488.95L1264.81,490.93L1286.29,505.64L1288.98,507.35L1310.46,519.89L1313.15,521.32L1334.63,531.74L1337.31,532.91L1340,534.06" style="vector-effect: none; fill: none; stroke: rgb(31, 119, 180); stroke-opacity: 1; stroke-width: 2px; opacity: 1;"/></g><g class="points"/><g class="text"/></g><g class="trace scatter traced7f993" style="stroke-miterlimit: 2; opacity: 1;"><g class="fills"/><g class="errorbars"/><g class="lines"><path class="js-line" d="M55.4,542.15L68.84,533.9L70.07,533.07L83.51,522.8L84.74,521.77L98.18,509.25L99.41,508L112.85,493.01L114.08,491.53L127.52,473.94L128.75,472.22L143.42,450.05L144.64,448.08L160.53,420.74L161.75,418.51L177.65,388.16L178.87,385.73L202.1,337.65L203.32,335.05L242.44,253.33L243.66,250.94L259.55,221.54L260.78,219.44L273,199.9L274.22,198.11L285.23,183.49L286.45,182.04L296.23,171.81L297.45,170.71L306.01,164.14L307.23,163.36L315.79,159.17L317.01,158.75L324.35,157.14L325.57,157.03L332.9,157.3L334.13,157.5L341.46,159.64L342.68,160.15L350.02,164.13L351.24,164.95L359.8,171.81L361.02,172.95L369.58,182.04L370.8,183.49L380.58,196.35L381.8,198.11L392.81,215.3L394.03,217.36L407.48,241.52L408.7,243.85L427.04,280.61L428.26,283.15L483.27,397.76L484.49,400.12L502.83,433.73L504.05,435.84L521.17,463.33L522.39,465.15L537.06,485.41L538.28,486.97L552.95,504.14L554.18,505.44L567.62,518.57L568.85,519.65L582.29,530.46L583.52,531.34L596.96,540.07L598.19,540.78L612.86,548.25L614.08,548.8L629.97,554.9L631.19,555.3L648.31,560.02L649.53,560.3L665.42,563.36" style="vector-effect: none; fill: none; stroke: rgb(255, 127, 14); stroke-opacity: 1; stroke-width: 2px; opacity: 1;"/></g><g class="points"/><g class="text"/></g><g class="trace scatter traceaa991c" style="stroke-miterlimit: 2;"><g class="fills"><g><path class="js-fill" d="M1340,570L0,570L0,570L2.69,570L5.37,570L8.06,570L10.74,570L13.43,570L16.11,570L18.8,570L21.48,570L24.17,570L26.85,570L29.54,570L32.22,570L34.91,570L37.6,570L40.28,570L42.97,570L45.65,570L48.34,570L51.02,570L53.71,570L56.39,570L59.08,570L61.76,570L64.45,570L67.13,570L69.82,570L72.5,570L75.19,570L77.88,570L80.56,570L83.25,570L85.93,570L88.62,570L91.3,570L93.99,570L96.67,570L99.36,570L102.04,570L104.73,570L107.41,570L110.1,570L112.79,570L115.47,570L118.16,570L120.84,570L123.53,570L126.21,570L128.9,570L131.58,570L134.27,570L136.95,570L139.64,570L142.32,570L145.01,570L147.7,570L150.38,570L153.07,570L155.75,570L158.44,570L161.12,570L163.81,570L166.49,570L169.18,570L171.86,570L174.55,570L177.23,570L179.92,570L182.61,570L185.29,569.99L187.98,569.99L190.66,569.99L193.35,569.99L196.03,569.99L198.72,569.99L201.4,569.99L204.09,569.99L206.77,569.99L209.46,569.99L212.14,569.99L214.83,569.99L217.52,569.99L220.2,569.99L222.89,569.99L225.57,569.98L228.26,569.98L230.94,569.98L233.63,569.98L236.31,569.98L239,569.98L241.68,569.98L244.37,569.98L247.05,569.97L249.74,569.97L252.42,569.97L255.11,569.97L257.8,569.97L260.48,569.96L263.17,569.96L265.85,569.96L268.54,569.95L271.22,569.95L273.91,569.95L276.59,569.95L279.28,569.94L281.96,569.94L284.65,569.93L287.33,569.93L290.02,569.92L292.71,569.92L295.39,569.91L298.08,569.91L300.76,569.9L303.45,569.9L306.13,569.89L308.82,569.88L311.5,569.88L314.19,569.87L316.87,569.86L319.56,569.85L322.24,569.84L324.93,569.83L327.62,569.82L330.3,569.81L332.99,569.8L335.67,569.79L338.36,569.77L341.04,569.76L343.73,569.75L346.41,569.73L349.1,569.72L351.78,569.7L354.47,569.68L357.15,569.66L359.84,569.64L362.53,569.62L365.21,569.6L367.9,569.58L370.58,569.55L373.27,569.53L375.95,569.5L378.64,569.47L381.32,569.44L384.01,569.41L386.69,569.38L389.38,569.34L392.06,569.3L394.75,569.27L397.43,569.22L400.12,569.18L402.81,569.14L405.49,569.09L408.18,569.04L410.86,568.99L413.55,568.94L416.23,568.88L418.92,568.82L421.6,568.76L424.29,568.69L426.97,568.63L429.66,568.55L432.34,568.48L435.03,568.4L437.72,568.32L440.4,568.23L443.09,568.14L445.77,568.05L448.46,567.95L451.14,567.85L453.83,567.74L456.51,567.63L459.2,567.52L461.88,567.4L464.57,567.27L467.25,567.14L469.94,567L472.63,566.85L475.31,566.71L478,566.55L480.68,566.39L483.37,566.22L486.05,566.04L488.74,565.86L491.42,565.67L494.11,565.47L496.79,565.26L499.48,565.05L502.16,564.82L504.85,564.59L507.54,564.35L510.22,564.1L512.91,563.84L515.59,563.57L518.28,563.29L520.96,563L523.65,562.7L526.33,562.38L529.02,562.06L531.7,561.73L534.39,561.38L537.07,561.02L539.76,560.64L542.44,560.26L545.13,559.86L547.82,559.44L550.5,559.02L553.19,558.57L555.87,558.12L558.56,557.64L561.24,557.15L563.93,556.65L566.61,556.13L569.3,555.59L571.98,555.04L574.67,554.46L577.35,553.87L580.04,553.26L582.73,552.64L585.41,551.99L588.1,551.32L590.78,550.64L593.47,549.93L596.15,549.2L598.84,548.45L601.52,547.68L604.21,546.89L606.89,546.07L609.58,545.24L612.26,544.37L614.95,543.49L617.64,542.58L620.32,541.65L623.01,540.69L625.69,539.71L628.38,538.7L631.06,537.67L633.75,536.61L636.43,535.53L639.12,534.41L641.8,533.28L644.49,532.11L647.17,530.92L649.86,529.69L652.55,528.44L655.23,527.17L657.92,525.86L660.6,524.52L663.29,523.16L665.97,521.76L668.66,520.34L671.34,518.89L674.03,517.4L676.71,515.89L679.4,514.35L682.08,512.78L684.77,511.17L687.45,509.54L690.14,507.87L692.83,506.18L695.51,504.46L698.2,502.7L700.88,500.92L703.57,499.1L706.25,497.25L708.94,495.38L711.62,493.47L714.31,491.54L716.99,489.57L719.68,487.58L722.36,485.56L725.05,483.51L727.74,481.43L730.42,479.32L733.11,477.18L735.79,475.02L738.48,472.83L741.16,470.62L743.85,468.37L746.53,466.11L749.22,463.82L751.9,461.5L754.59,459.16L757.27,456.8L759.96,454.41L762.65,452L765.33,449.57L768.02,447.13L770.7,444.66L773.39,442.17L776.07,439.67L778.76,437.14L781.44,434.61L784.13,432.06L786.81,429.49L789.5,426.91L792.18,424.32L794.87,421.71L797.56,419.1L800.24,416.48L802.93,413.85L805.61,411.21L808.3,408.57L810.98,405.93L813.67,403.28L816.35,400.63L819.04,397.98L821.72,395.33L824.41,392.68L827.09,390.04L829.78,387.4L832.46,384.76L835.15,382.14L837.84,379.52L840.52,376.91L843.21,374.32L845.89,371.73L848.58,369.17L851.26,366.62L853.95,364.08L856.63,361.57L859.32,359.07L862,356.6L864.69,354.15L867.37,351.72L870.06,349.32L872.75,346.95L875.43,344.61L878.12,342.3L880.8,340.02L883.49,337.77L886.17,335.56L888.86,333.39L891.54,331.25L894.23,329.15L896.91,327.09L899.6,325.07L902.28,323.1L904.97,321.17L907.66,319.29L910.34,317.45L913.03,315.66L915.71,313.92L918.4,312.23L921.08,310.6L923.77,309.01L926.45,307.48L929.14,306.01L931.82,304.59L934.51,303.22L937.19,301.92L939.88,300.67L942.57,299.49L945.25,298.36L947.94,297.3L950.62,296.29L953.31,295.35L955.99,294.48L958.68,293.67L961.36,292.92L964.05,292.24L966.73,291.62L969.42,291.07L972.1,290.59L974.79,290.17L977.47,289.82L980.16,289.54L982.85,289.32L985.53,289.18L988.22,289.1L990.9,289.09L993.59,289.15L996.27,289.27L998.96,289.46L1001.64,289.72L1004.33,290.05L1007.01,290.45L1009.7,290.91L1012.38,291.44L1015.07,292.04L1017.76,292.7L1020.44,293.42L1023.13,294.22L1025.81,295.07L1028.5,295.99L1031.18,296.98L1033.87,298.02L1036.55,299.13L1039.24,300.29L1041.92,301.52L1044.61,302.81L1047.29,304.15L1049.98,305.55L1052.67,307.01L1055.35,308.53L1058.04,310.09L1060.72,311.71L1063.41,313.39L1066.09,315.11L1068.78,316.88L1071.46,318.71L1074.15,320.58L1076.83,322.49L1079.52,324.45L1082.2,326.45L1084.89,328.5L1087.58,330.59L1090.26,332.71L1092.95,334.87L1095.63,337.08L1098.32,339.31L1101,341.58L1103.69,343.88L1106.37,346.22L1109.06,348.58L1111.74,350.97L1114.43,353.39L1117.11,355.83L1119.8,358.29L1122.48,360.78L1125.17,363.29L1127.86,365.82L1130.54,368.37L1133.23,370.93L1135.91,373.51L1138.6,376.1L1141.28,378.7L1143.97,381.31L1146.65,383.94L1149.34,386.57L1152.02,389.21L1154.71,391.85L1157.39,394.5L1160.08,397.15L1162.77,399.8L1165.45,402.45L1168.14,405.1L1170.82,407.74L1173.51,410.39L1176.19,413.02L1178.88,415.66L1181.56,418.28L1184.25,420.9L1186.93,423.5L1189.62,426.1L1192.3,428.68L1194.99,431.25L1197.68,433.81L1200.36,436.35L1203.05,438.88L1205.73,441.39L1208.42,443.88L1211.1,446.35L1213.79,448.81L1216.47,451.24L1219.16,453.66L1221.84,456.05L1224.53,458.42L1227.21,460.77L1229.9,463.09L1232.59,465.39L1235.27,467.67L1237.96,469.92L1240.64,472.14L1243.33,474.34L1246.01,476.51L1248.7,478.65L1251.38,480.77L1254.07,482.86L1256.75,484.92L1259.44,486.95L1262.12,488.95L1264.81,490.93L1267.49,492.87L1270.18,494.79L1272.87,496.67L1275.55,498.52L1278.24,500.35L1280.92,502.14L1283.61,503.91L1286.29,505.64L1288.98,507.35L1291.66,509.02L1294.35,510.66L1297.03,512.28L1299.72,513.86L1302.4,515.41L1305.09,516.93L1307.78,518.43L1310.46,519.89L1313.15,521.32L1315.83,522.72L1318.52,524.1L1321.2,525.44L1323.89,526.76L1326.57,528.05L1329.26,529.3L1331.94,530.54L1334.63,531.74L1337.31,532.91L1340,534.06" style="fill: rgb(103, 177, 229); fill-opacity: 1; stroke-width: 0;"/></g></g><g class="errorbars"/><g class="lines"/><g class="points"/><g class="text"/></g><g class="trace scatter trace63842e" style="stroke-miterlimit: 2;"><g class="fills"><g><path class="js-fill" d="M665.42,570L55.4,570L55.4,542.15L56.62,541.47L57.84,540.78L59.06,540.07L60.29,539.35L61.51,538.62L62.73,537.87L63.95,537.1L65.18,536.33L66.4,535.53L67.62,534.73L68.84,533.9L70.07,533.07L71.29,532.21L72.51,531.35L73.73,530.46L74.96,529.56L76.18,528.65L77.4,527.71L78.62,526.76L79.85,525.8L81.07,524.82L82.29,523.82L83.51,522.8L84.74,521.77L85.96,520.72L87.18,519.66L88.4,518.57L89.63,517.47L90.85,516.35L92.07,515.21L93.29,514.06L94.52,512.88L95.74,511.69L96.96,510.48L98.18,509.25L99.41,508L100.63,506.73L101.85,505.45L103.07,504.14L104.3,502.82L105.52,501.48L106.74,500.11L107.96,498.73L109.19,497.33L110.41,495.91L111.63,494.47L112.85,493.01L114.08,491.53L115.3,490.03L116.52,488.51L117.74,486.97L118.97,485.41L120.19,483.83L121.41,482.24L122.63,480.62L123.86,478.98L125.08,477.32L126.3,475.64L127.52,473.94L128.75,472.22L129.97,470.48L131.19,468.73L132.41,466.95L133.64,465.15L134.86,463.33L136.08,461.49L137.3,459.64L138.53,457.76L139.75,455.86L140.97,453.95L142.19,452.01L143.42,450.05L144.64,448.08L145.86,446.09L147.08,444.08L148.31,442.04L149.53,440L150.75,437.93L151.97,435.84L153.2,433.74L154.42,431.61L155.64,429.47L156.86,427.32L158.09,425.14L159.31,422.95L160.53,420.74L161.75,418.51L162.98,416.27L164.2,414.01L165.42,411.74L166.64,409.44L167.87,407.14L169.09,404.82L170.31,402.48L171.53,400.13L172.76,397.76L173.98,395.38L175.2,392.99L176.42,390.58L177.65,388.16L178.87,385.73L180.09,383.29L181.31,380.83L182.54,378.36L183.76,375.88L184.98,373.39L186.2,370.89L187.43,368.38L188.65,365.86L189.87,363.34L191.09,360.8L192.32,358.25L193.54,355.7L194.76,353.14L195.98,350.57L197.21,348L198.43,345.42L199.65,342.84L200.87,340.25L202.1,337.65L203.32,335.05L204.54,332.45L205.76,329.85L206.99,327.24L208.21,324.64L209.43,322.03L210.65,319.42L211.88,316.81L213.1,314.2L214.32,311.59L215.54,308.99L216.77,306.39L217.99,303.78L219.21,301.19L220.43,298.6L221.66,296.01L222.88,293.42L224.1,290.85L225.32,288.28L226.55,285.71L227.77,283.16L228.99,280.61L230.21,278.07L231.44,275.55L232.66,273.03L233.88,270.52L235.1,268.03L236.33,265.54L237.55,263.07L238.77,260.62L239.99,258.17L241.22,255.75L242.44,253.33L243.66,250.94L244.88,248.56L246.11,246.2L247.33,243.85L248.55,241.53L249.77,239.22L251,236.93L252.22,234.67L253.44,232.42L254.66,230.2L255.89,228L257.11,225.82L258.33,223.67L259.55,221.54L260.78,219.44L262,217.36L263.22,215.31L264.44,213.28L265.67,211.28L266.89,209.31L268.11,207.37L269.33,205.46L270.56,203.58L271.78,201.72L273,199.9L274.22,198.11L275.45,196.35L276.67,194.63L277.89,192.93L279.11,191.27L280.34,189.65L281.56,188.05L282.78,186.5L284,184.98L285.23,183.49L286.45,182.04L287.67,180.63L288.89,179.25L290.12,177.92L291.34,176.62L292.56,175.36L293.78,174.14L295.01,172.95L296.23,171.81L297.45,170.71L298.67,169.64L299.9,168.62L301.12,167.64L302.34,166.7L303.56,165.8L304.79,164.95L306.01,164.14L307.23,163.36L308.45,162.64L309.68,161.95L310.9,161.31L312.12,160.71L313.34,160.15L314.57,159.64L315.79,159.17L317.01,158.75L318.23,158.37L319.46,158.04L320.68,157.75L321.9,157.5L323.12,157.3L324.35,157.14L325.57,157.03L326.79,156.96L328.01,156.94L329.24,156.96L330.46,157.03L331.68,157.14L332.9,157.3L334.13,157.5L335.35,157.75L336.57,158.04L337.79,158.37L339.02,158.75L340.24,159.17L341.46,159.64L342.68,160.15L343.91,160.71L345.13,161.31L346.35,161.95L347.57,162.63L348.8,163.36L350.02,164.13L351.24,164.95L352.46,165.8L353.69,166.7L354.91,167.64L356.13,168.62L357.35,169.64L358.58,170.71L359.8,171.81L361.02,172.95L362.24,174.13L363.47,175.35L364.69,176.62L365.91,177.91L367.13,179.25L368.36,180.63L369.58,182.04L370.8,183.49L372.02,184.97L373.25,186.49L374.47,188.05L375.69,189.64L376.91,191.27L378.14,192.93L379.36,194.62L380.58,196.35L381.8,198.11L383.03,199.9L384.25,201.72L385.47,203.57L386.69,205.46L387.92,207.37L389.14,209.31L390.36,211.28L391.58,213.28L392.81,215.3L394.03,217.36L395.25,219.43L396.47,221.54L397.7,223.67L398.92,225.82L400.14,228L401.36,230.2L402.59,232.42L403.81,234.66L405.03,236.93L406.25,239.22L407.48,241.52L408.7,243.85L409.92,246.19L411.14,248.55L412.37,250.93L413.59,253.33L414.81,255.74L416.03,258.17L417.26,260.61L418.48,263.07L419.7,265.54L420.92,268.02L422.15,270.52L423.37,273.02L424.59,275.54L425.81,278.07L427.04,280.61L428.26,283.15L429.48,285.71L430.7,288.27L431.93,290.84L433.15,293.42L434.37,296L435.59,298.59L436.82,301.18L438.04,303.78L439.26,306.38L440.48,308.98L441.71,311.59L442.93,314.2L444.15,316.81L445.37,319.41L446.6,322.02L447.82,324.63L449.04,327.24L450.26,329.85L451.49,332.45L452.71,335.05L453.93,337.65L455.15,340.24L456.38,342.83L457.6,345.42L458.82,347.99L460.04,350.57L461.27,353.14L462.49,355.7L463.71,358.25L464.93,360.79L466.16,363.33L467.38,365.86L468.6,368.38L469.82,370.89L471.05,373.39L472.27,375.88L473.49,378.36L474.71,380.83L475.94,383.28L477.16,385.73L478.38,388.16L479.6,390.58L480.83,392.99L482.05,395.38L483.27,397.76L484.49,400.12L485.72,402.48L486.94,404.81L488.16,407.13L489.38,409.44L490.61,411.73L491.83,414.01L493.05,416.27L494.27,418.51L495.5,420.73L496.72,422.94L497.94,425.14L499.16,427.31L500.39,429.47L501.61,431.61L502.83,433.73L504.05,435.84L505.28,437.92L506.5,439.99L507.72,442.04L508.94,444.07L510.17,446.08L511.39,448.08L512.61,450.05L513.83,452.01L515.06,453.94L516.28,455.86L517.5,457.75L518.72,459.63L519.95,461.49L521.17,463.33L522.39,465.15L523.61,466.94L524.84,468.72L526.06,470.48L527.28,472.22L528.5,473.94L529.73,475.64L530.95,477.32L532.17,478.97L533.39,480.61L534.62,482.23L535.84,483.83L537.06,485.41L538.28,486.97L539.51,488.51L540.73,490.03L541.95,491.53L543.17,493.01L544.4,494.47L545.62,495.91L546.84,497.33L548.06,498.73L549.29,500.11L550.51,501.47L551.73,502.82L552.95,504.14L554.18,505.44L555.4,506.73L556.62,508L557.84,509.25L559.07,510.48L560.29,511.69L561.51,512.88L562.73,514.05L563.96,515.21L565.18,516.35L566.4,517.47L567.62,518.57L568.85,519.65L570.07,520.72L571.29,521.77L572.51,522.8L573.74,523.82L574.96,524.82L576.18,525.8L577.4,526.76L578.63,527.71L579.85,528.64L581.07,529.56L582.29,530.46L583.52,531.34L584.74,532.21L585.96,533.07L587.18,533.9L588.41,534.73L589.63,535.53L590.85,536.33L592.07,537.1L593.3,537.87L594.52,538.62L595.74,539.35L596.96,540.07L598.19,540.78L599.41,541.47L600.63,542.15L601.85,542.82L603.08,543.47L604.3,544.11L605.52,544.74L606.74,545.36L607.97,545.96L609.19,546.55L610.41,547.13L611.63,547.7L612.86,548.25L614.08,548.8L615.3,549.33L616.52,549.85L617.75,550.36L618.97,550.86L620.19,551.35L621.41,551.83L622.64,552.3L623.86,552.75L625.08,553.2L626.3,553.64L627.53,554.07L628.75,554.49L629.97,554.9L631.19,555.3L632.42,555.69L633.64,556.07L634.86,556.44L636.08,556.81L637.31,557.16L638.53,557.51L639.75,557.85L640.97,558.18L642.2,558.51L643.42,558.82L644.64,559.13L645.86,559.44L647.09,559.73L648.31,560.02L649.53,560.3L650.75,560.57L651.98,560.84L653.2,561.1L654.42,561.35L655.64,561.6L656.87,561.84L658.09,562.07L659.31,562.3L660.53,562.53L661.76,562.74L662.98,562.96L664.2,563.16L665.42,563.36" style="fill: rgb(255, 160, 77); fill-opacity: 1; stroke-width: 0;"/></g></g><g class="errorbars"/><g class="lines"/><g class="points"/><g class="text"/></g></g></g></g><path class="xlines-above crisp" d="" style="fill: none; stroke-width: 1px; stroke: rgb(0, 0, 0); stroke-opacity: 0;"/><path class="ylines-above crisp" d="M0,0" style="fill: none;"/><g class="overlines-above"/><g class="xaxislayer-above"><path class="xtick ticks crisp" d="M0,671v5" transform="translate(289.94,0)" style="stroke: rgb(128, 128, 128); stroke-opacity: 1; stroke-width: 1px;"/><path class="xtick ticks crisp" d="M0,671v5" transform="translate(422.95,0)" style="stroke: rgb(128, 128, 128); stroke-opacity: 1; stroke-width: 1px;"/><path class="xtick ticks crisp" d="M0,671v5" transform="translate(598.79,0)" style="stroke: rgb(128, 128, 128); stroke-opacity: 1; stroke-width: 1px;"/><path class="xtick ticks crisp" d="M0,671v5" transform="translate(731.8,0)" style="stroke: rgb(128, 128, 128); stroke-opacity: 1; stroke-width: 1px;"/><path class="xtick ticks crisp" d="M0,671v5" transform="translate(864.82,0)" style="stroke: rgb(128, 128, 128); stroke-opacity: 1; stroke-width: 1px;"/><path class="xtick ticks crisp" d="M0,671v5" transform="translate(1040.6599999999999,0)" style="stroke: rgb(128, 128, 128); stroke-opacity: 1; stroke-width: 1px;"/><path class="xtick ticks crisp" d="M0,671v5" transform="translate(1173.67,0)" style="stroke: rgb(128, 128, 128); stroke-opacity: 1; stroke-width: 1px;"/><path class="xtick ticks crisp" d="M0,671v5" transform="translate(1306.69,0)" style="stroke: rgb(128, 128, 128); stroke-opacity: 1; stroke-width: 1px;"/><g class="xtick"><text text-anchor="middle" x="0" y="690.4" transform="translate(289.94,0)" style="font-family: 'Open Sans', verdana, arial, sans-serif; font-size: 12px; fill: rgb(128, 128, 128); fill-opacity: 1; white-space: pre; opacity: 1;">1</text></g><g class="xtick"><text text-anchor="middle" x="0" y="690.4" style="font-family: 'Open Sans', verdana, arial, sans-serif; font-size: 12px; fill: rgb(128, 128, 128); fill-opacity: 1; white-space: pre; opacity: 1;" transform="translate(422.95,0)">2</text></g><g class="xtick"><text text-anchor="middle" x="0" y="690.4" style="font-family: 'Open Sans', verdana, arial, sans-serif; font-size: 12px; fill: rgb(128, 128, 128); fill-opacity: 1; white-space: pre; opacity: 1;" transform="translate(598.79,0)">5</text></g><g class="xtick"><text text-anchor="middle" x="0" y="690.4" style="font-family: 'Open Sans', verdana, arial, sans-serif; font-size: 12px; fill: rgb(128, 128, 128); fill-opacity: 1; white-space: pre; opacity: 1;" transform="translate(731.8,0)">10</text></g><g class="xtick"><text text-anchor="middle" x="0" y="690.4" style="font-family: 'Open Sans', verdana, arial, sans-serif; font-size: 12px; fill: rgb(128, 128, 128); fill-opacity: 1; white-space: pre; opacity: 1;" transform="translate(864.82,0)">20</text></g><g class="xtick"><text text-anchor="middle" x="0" y="690.4" style="font-family: 'Open Sans', verdana, arial, sans-serif; font-size: 12px; fill: rgb(128, 128, 128); fill-opacity: 1; white-space: pre; opacity: 1;" transform="translate(1040.6599999999999,0)">50</text></g><g class="xtick"><text text-anchor="middle" x="0" y="690.4" style="font-family: 'Open Sans', verdana, arial, sans-serif; font-size: 12px; fill: rgb(128, 128, 128); fill-opacity: 1; white-space: pre; opacity: 1;" transform="translate(1173.67,0)">100</text></g><g class="xtick"><text text-anchor="middle" x="0" y="690.4" style="font-family: 'Open Sans', verdana, arial, sans-serif; font-size: 12px; fill: rgb(128, 128, 128); fill-opacity: 1; white-space: pre; opacity: 1;" transform="translate(1306.69,0)">200</text></g></g><g class="yaxislayer-above"/><g class="overaxes-above"/></g></g><g class="polarlayer"/><g class="smithlayer"/><g class="ternarylayer"/><g class="geolayer"/><g class="funnelarealayer"/><g class="pielayer"/><g class="iciclelayer"/><g class="treemaplayer"/><g class="sunburstlayer"/><g class="glimages"/><defs id="topdefs-95caa1"><g class="clips"/></defs><g class="layer-above"><g class="imagelayer"/><g class="shapelayer"><g class="shape-group" data-index="0" clip-path="url(#clip95caa1x)"><path data-index="0" fill-rule="evenodd" d="M1082.26,670L1082.26,100" style="opacity: 1; stroke: rgb(128, 128, 128); stroke-opacity: 1; fill: rgb(0, 0, 0); fill-opacity: 0; stroke-dasharray: 3px, 3px; stroke-width: 0.5px;"/></g><g class="shape-group" data-index="1" clip-path="url(#clip95caa1x)"><path data-index="1" fill-rule="evenodd" d="M402.29,670L402.29,100" style="opacity: 1; stroke: rgb(128, 128, 128); stroke-opacity: 1; fill: rgb(0, 0, 0); fill-opacity: 0; stroke-dasharray: 3px, 3px; stroke-width: 0.5px;"/></g><g class="shape-group" data-index="2" clip-path="url(#clip95caa1x)"><path data-index="2" fill-rule="evenodd" d="M436.83,670L436.83,100" style="opacity: 1; stroke: rgb(255, 0, 0); stroke-opacity: 1; fill: rgb(0, 0, 0); fill-opacity: 0; stroke-dasharray: 3px, 3px; stroke-width: 0.5px;"/></g><g class="shape-group" data-index="3" clip-path="url(#clip95caa1x)"><path data-index="3" fill-rule="evenodd" d="M856.71,670L856.71,100" style="opacity: 1; stroke: rgb(0, 0, 0); stroke-opacity: 1; fill: rgb(0, 0, 0); fill-opacity: 0; stroke-dasharray: 3px, 3px; stroke-width: 0.5px;"/></g><g class="shape-group" data-index="4" clip-path="url(#clip95caa1x)"><path data-index="4" fill-rule="evenodd" d="M693.72,670L693.72,100" style="opacity: 1; stroke: rgb(0, 0, 0); stroke-opacity: 1; fill: rgb(0, 0, 0); fill-opacity: 0; stroke-dasharray: 3px, 3px; stroke-width: 0.5px;"/></g><g class="shape-group" data-index="5" clip-path="url(#clip95caa1y)"><path data-index="5" fill-rule="evenodd" d="M80,670L1420,670" style="opacity: 1; stroke: rgb(128, 128, 128); stroke-opacity: 1; fill: rgb(0, 0, 0); fill-opacity: 0; stroke-width: 2px;"/></g></g></g><g class="infolayer"><g class="g-gtitle"><text class="gtitle" x="75" y="50" text-anchor="start" dy="0em" style="opacity: 1; font-family: 'Open Sans', verdana, arial, sans-serif; font-size: 17px; fill: rgb(42, 63, 95); fill-opacity: 1; white-space: pre;">Density curve of income for United States and Burundi</text></g><g class="g-xtitle"><text class="xtitle" x="750" y="717.20625" text-anchor="middle" style="opacity: 1; font-family: 'Open Sans', verdana, arial, sans-serif; font-size: 14px; fill: rgb(128, 128, 128); fill-opacity: 1; white-space: pre;">Income (log scale)</text></g><g class="annotation" data-index="0" style="opacity: 1;"><g class="annotation-text-g" transform="rotate(0,1155.26,125)"><g class="cursor-pointer" transform="translate(1082,100)"><rect class="bg" x="0.5" y="0.5" width="145" height="49" style="stroke-width: 1px; stroke: rgb(0, 0, 0); stroke-opacity: 0; fill: rgb(0, 0, 0); fill-opacity: 0;"/><text class="annotation-text" text-anchor="start" x="2" y="14" style="font-family: 'Open Sans', verdana, arial, sans-serif; font-size: 12px; fill: rgb(42, 63, 95); fill-opacity: 1; white-space: pre;"><tspan class="line" dy="0em" x="2" y="14"><tspan style="font-weight:bold">United States (2022)</tspan></tspan><tspan class="line" dy="1.3em" x="2" y="14">Median income: $62.40</tspan><tspan class="line" dy="2.6em" x="2" y="14">Mean income: $82.00</tspan></text></g></g></g><g class="annotation" data-index="1" style="opacity: 1;"><g class="annotation-text-g" transform="rotate(0,332.79,125)"><g class="cursor-pointer" transform="translate(263,100)"><rect class="bg" x="0.5" y="0.5" width="138" height="49" style="stroke-width: 1px; stroke: rgb(0, 0, 0); stroke-opacity: 0; fill: rgb(0, 0, 0); fill-opacity: 0;"/><text class="annotation-text" text-anchor="end" x="136.84375" y="14" style="font-family: 'Open Sans', verdana, arial, sans-serif; font-size: 12px; fill: rgb(42, 63, 95); fill-opacity: 1; white-space: pre;"><tspan class="line" dy="0em" x="136.84375" y="14"><tspan style="font-weight:bold">Burundi (2020)</tspan></tspan><tspan class="line" dy="1.3em" x="136.84375" y="14">Median income: $1.80</tspan><tspan class="line" dy="2.6em" x="136.84375" y="14">Mean income: $2.30</tspan></text></g></g></g><g class="annotation" data-index="2" style="opacity: 1;"><g class="annotation-text-g" transform="rotate(-90,446.33,589.5)"><g class="cursor-pointer" transform="translate(366,580)"><rect class="bg" x="0.5" y="0.5" width="160" height="18" style="stroke-width: 1px; stroke: rgb(0, 0, 0); stroke-opacity: 0; fill: rgb(0, 0, 0); fill-opacity: 0;"/><text class="annotation-text" text-anchor="middle" x="80.359375" y="14" style="font-family: 'Open Sans', verdana, arial, sans-serif; font-size: 12px; fill: rgb(42, 63, 95); fill-opacity: 1; white-space: pre;">International Poverty Line</text></g></g></g><g class="annotation" data-index="3" style="opacity: 1;"><g class="annotation-text-g" transform="rotate(-90,866.21,605.5)"><g class="cursor-pointer" transform="translate(802,596)"><rect class="bg" x="0.5" y="0.5" width="128" height="18" style="stroke-width: 1px; stroke: rgb(0, 0, 0); stroke-opacity: 0; fill: rgb(0, 0, 0); fill-opacity: 0;"/><text class="annotation-text" text-anchor="middle" x="64.53125" y="14" style="font-family: 'Open Sans', verdana, arial, sans-serif; font-size: 12px; fill: rgb(42, 63, 95); fill-opacity: 1; white-space: pre;">World mean: $19.20</text></g></g></g><g class="annotation" data-index="4" style="opacity: 1;"><g class="annotation-text-g" transform="rotate(-90,703.22,604)"><g class="cursor-pointer" transform="translate(637,595)"><rect class="bg" x="0.5" y="0.5" width="131" height="18" style="stroke-width: 1px; stroke: rgb(0, 0, 0); stroke-opacity: 0; fill: rgb(0, 0, 0); fill-opacity: 0;"/><text class="annotation-text" text-anchor="middle" x="66.109375" y="14" style="font-family: 'Open Sans', verdana, arial, sans-serif; font-size: 12px; fill: rgb(42, 63, 95); fill-opacity: 1; white-space: pre;">World median: $8.20</text></g></g></g></g></svg>