<svg class="main-svg" xmlns="http://www.w3.org/2000/svg" xmlns:xlink="http://www.w3.org/1999/xlink" width="1100" height="1000" style="" viewBox="0 0 1100 1000"><rect x="0" y="0" width="1100" height="1000" style="fill: rgb(255, 255, 255); fill-opacity: 1;"/><defs id="defs-e6a27b"><g class="clips"><clipPath id="clipe6a27bxyplot" class="plotclip"><rect width="914" height="820"/></clipPath><clipPath class="axesclip" id="clipe6a27bx"><rect x="80" y="0" width="914" height="1000"/></clipPath><clipPath class="axesclip" id="clipe6a27by"><rect x="0" y="100" width="1100" height="820"/></clipPath><clipPath class="axesclip" id="clipe6a27bxy"><rect x="80" y="100" width="914" height="820"/></clipPath></g><g class="gradients"/><g class="patterns"/></defs><g class="bglayer"><rect class="bg" x="80" y="100" width="914" height="820" style="fill: rgb(229, 236, 246); fill-opacity: 1; stroke-width: 0;"/></g><g class="layer-below"><g class="imagelayer"/><g class="shapelayer"/></g><g class="cartesianlayer"><g class="subplot xy"><g class="layer-subplot"><g class="shapelayer"/><g class="imagelayer"/></g><g class="minor-gridlayer"><g class="x"/><g class="y"/></g><g class="gridlayer"><g class="x"><path class="xgrid crisp" transform="translate(262.8,0)" d="M0,100v820" style="stroke: rgb(255, 255, 255); stroke-opacity: 1; stroke-width: 1px;"/><path class="xgrid crisp" transform="translate(445.6,0)" d="M0,100v820" style="stroke: rgb(255, 255, 255); stroke-opacity: 1; stroke-width: 1px;"/><path class="xgrid crisp" transform="translate(628.4,0)" d="M0,100v820" style="stroke: rgb(255, 255, 255); stroke-opacity: 1; stroke-width: 1px;"/><path class="xgrid crisp" transform="translate(811.2,0)" d="M0,100v820" style="stroke: rgb(255, 255, 255); stroke-opacity: 1; stroke-width: 1px;"/></g><g class="y"><path class="ygrid crisp" transform="translate(0,813.65)" d="M80,0h914" style="stroke: rgb(255, 255, 255); stroke-opacity: 1; stroke-width: 1px;"/><path class="ygrid crisp" transform="translate(0,707.3)" d="M80,0h914" style="stroke: rgb(255, 255, 255); stroke-opacity: 1; stroke-width: 1px;"/><path class="ygrid crisp" transform="translate(0,600.96)" d="M80,0h914" style="stroke: rgb(255, 255, 255); stroke-opacity: 1; stroke-width: 1px;"/><path class="ygrid crisp" transform="translate(0,494.61)" d="M80,0h914" style="stroke: rgb(255, 255, 255); stroke-opacity: 1; stroke-width: 1px;"/><path class="ygrid crisp" transform="translate(0,388.26)" d="M80,0h914" style="stroke: rgb(255, 255, 255); stroke-opacity: 1; stroke-width: 1px;"/><path class="ygrid crisp" transform="translate(0,281.90999999999997)" d="M80,0h914" style="stroke: rgb(255, 255, 255); stroke-opacity: 1; stroke-width: 1px;"/><path class="ygrid crisp" transform="translate(0,175.56)" d="M80,0h914" style="stroke: rgb(255, 255, 255); stroke-opacity: 1; stroke-width: 1px;"/></g></g><g class="zerolinelayer"><path class="xzl zl crisp" transform="translate(80,0)" d="M0,100v820" style="stroke: rgb(255, 255, 255); stroke-opacity: 1; stroke-width: 2px;"/><path class="yzl zl crisp" transform="translate(0,920)" d="M80,0h914" style="stroke: rgb(255, 255, 255); stroke-opacity: 1; stroke-width: 2px;"/></g><g class="layer-between"><g class="shapelayer"/><g class="imagelayer"/></g><path class="xlines-below"/><path class="ylines-below"/><g class="overlines-below"/><g class="xaxislayer-below"/><g class="yaxislayer-below"/><g class="overaxes-below"/><g class="overplot"><g class="xy" transform="translate(80,100)" clip-path="url(#clipe6a27bxyplot)"><g class="scatterlayer mlayer"><g class="trace scatter trace65ae10" style="stroke-miterlimit: 2;"><g class="fills"><g><path class="js-fill" d="M904.86,820L9.14,820L9.14,815.8L27.42,813.09L36.56,812.13L73.12,808.94L82.26,808.3L146.24,803.84L155.38,803.3L329.04,790.75L338.18,789.96L383.88,785.44L393.02,784.37L457,776.4L466.14,775.07L530.12,764.17L539.26,762.04L557.54,758.32L566.68,756.19L594.1,749.28L603.24,746.62L630.66,738.11L639.8,734.92L658.08,728.01L667.22,723.75L685.5,714.72L694.64,709.93L712.92,698.76L722.06,691.85L731.2,684.94L740.34,676.96L749.48,668.45L758.62,658.88L776.9,636.55L786.04,624.85L795.18,611.56L804.32,596.14L813.46,580.18L822.6,562.64L831.74,542.96L840.88,520.1L850.02,494.04L859.16,463.73L868.3,427.04L877.44,380.78L886.58,319.63L895.72,224.45L904.86,41" style="fill: rgb(99, 110, 250); fill-opacity: 0.5; stroke-width: 0;"/></g></g><g class="errorbars"/><g class="lines"><path class="js-line" d="M9.14,815.8L27.42,813.09L36.56,812.13L73.12,808.94L82.26,808.3L146.24,803.84L155.38,803.3L329.04,790.75L338.18,789.96L383.88,785.44L393.02,784.37L457,776.4L466.14,775.07L530.12,764.17L539.26,762.04L557.54,758.32L566.68,756.19L594.1,749.28L603.24,746.62L630.66,738.11L639.8,734.92L658.08,728.01L667.22,723.75L685.5,714.72L694.64,709.93L712.92,698.76L722.06,691.85L731.2,684.94L740.34,676.96L749.48,668.45L758.62,658.88L776.9,636.55L786.04,624.85L795.18,611.56L804.32,596.14L813.46,580.18L822.6,562.64L831.74,542.96L840.88,520.1L850.02,494.04L859.16,463.73L868.3,427.04L877.44,380.78L886.58,319.63L895.72,224.45L904.86,41" style="vector-effect: none; fill: none; stroke: rgb(99, 110, 250); stroke-opacity: 1; stroke-width: 2px; opacity: 1;"/></g><g class="points"/><g class="text"/></g><g class="trace scatter trace1b7516" style="stroke-miterlimit: 2;"><g class="fills"><g><path class="js-fill" d="M91.4,820L9.14,820L9.14,815.8L18.28,814.26L27.42,813.09L36.56,812.13L45.7,811.17L54.84,810.43L63.98,809.63L73.12,808.94L82.26,808.3L91.4,807.56" style="fill: rgb(239, 85, 59); fill-opacity: 0.5; stroke-width: 0;"/></g></g><g class="errorbars"/><g class="lines"/><g class="points"/><g class="text"/></g><g class="trace scatter traceed257f" style="stroke-miterlimit: 2;"><g class="fills"><g><path class="js-fill" d="M457,820L9.14,820L9.14,815.8L18.28,814.26L27.42,813.09L36.56,812.13L45.7,811.17L54.84,810.43L63.98,809.63L73.12,808.94L82.26,808.3L91.4,807.56L100.54,806.92L109.68,806.28L118.82,805.75L127.96,805.11L137.1,804.47L146.24,803.84L155.38,803.3L164.52,802.67L173.66,802.03L182.8,801.5L191.94,800.86L201.08,800.22L210.22,799.58L219.36,798.94L228.5,798.3L237.64,797.67L246.78,797.03L255.92,796.39L265.06,795.75L274.2,795.11L283.34,794.37L292.48,793.73L301.62,792.88L310.76,792.35L319.9,791.55L329.04,790.75L338.18,789.96L347.32,789.16L356.46,788.1L365.6,787.3L374.74,786.23L383.88,785.44L393.02,784.37L402.16,783.31L411.3,782.25L420.44,781.18L429.58,779.85L438.72,778.79L447.86,777.46L457,776.4" style="fill: rgb(0, 204, 150); fill-opacity: 0.5; stroke-width: 0;"/></g></g><g class="errorbars"/><g class="lines"/><g class="points"/><g class="text"/></g><g class="trace scatter trace96db56" style="stroke-miterlimit: 2;"><g class="fills"><g><path class="js-fill" d="M822.6,820L9.14,820L9.14,815.8L18.28,814.26L27.42,813.09L36.56,812.13L45.7,811.17L54.84,810.43L63.98,809.63L73.12,808.94L82.26,808.3L91.4,807.56L100.54,806.92L109.68,806.28L118.82,805.75L127.96,805.11L137.1,804.47L146.24,803.84L155.38,803.3L164.52,802.67L173.66,802.03L182.8,801.5L191.94,800.86L201.08,800.22L210.22,799.58L219.36,798.94L228.5,798.3L237.64,797.67L246.78,797.03L255.92,796.39L265.06,795.75L274.2,795.11L283.34,794.37L292.48,793.73L301.62,792.88L310.76,792.35L319.9,791.55L329.04,790.75L338.18,789.96L347.32,789.16L356.46,788.1L365.6,787.3L374.74,786.23L383.88,785.44L393.02,784.37L402.16,783.31L411.3,782.25L420.44,781.18L429.58,779.85L438.72,778.79L447.86,777.46L457,776.4L466.14,775.07L475.28,773.47L484.42,772.14L493.56,770.55L502.7,769.22L511.84,767.62L520.98,765.76L530.12,764.17L539.26,762.04L548.4,760.45L557.54,758.32L566.68,756.19L575.82,754.06L584.96,751.94L594.1,749.28L603.24,746.62L612.38,743.96L621.52,741.3L630.66,738.11L639.8,734.92L648.94,731.73L658.08,728.01L667.22,723.75L676.36,719.5L685.5,714.72L694.64,709.93L703.78,704.61L712.92,698.76L722.06,691.85L731.2,684.94L740.34,676.96L749.48,668.45L758.62,658.88L767.76,648.25L776.9,636.55L786.04,624.85L795.18,611.56L804.32,596.14L813.46,580.18L822.6,562.64" style="fill: rgb(171, 99, 250); fill-opacity: 0.5; stroke-width: 0;"/></g></g><g class="errorbars"/><g class="lines"/><g class="points"/><g class="text"/></g></g></g></g><path class="xlines-above crisp" d="M0,0" style="fill: none;"/><path class="ylines-above crisp" d="M0,0" style="fill: none;"/><g class="overlines-above"/><g class="xaxislayer-above"><g class="xtick"><text text-anchor="middle" x="0" y="933" transform="translate(80,0)" style="font-family: 'Open Sans', verdana, arial, sans-serif; font-size: 12px; fill: rgb(42, 63, 95); fill-opacity: 1; white-space: pre; opacity: 1;">0%</text></g><g class="xtick"><text text-anchor="middle" x="0" y="933" style="font-family: 'Open Sans', verdana, arial, sans-serif; font-size: 12px; fill: rgb(42, 63, 95); fill-opacity: 1; white-space: pre; opacity: 1;" transform="translate(262.8,0)">20%</text></g><g class="xtick"><text text-anchor="middle" x="0" y="933" style="font-family: 'Open Sans', verdana, arial, sans-serif; font-size: 12px; fill: rgb(42, 63, 95); fill-opacity: 1; white-space: pre; opacity: 1;" transform="translate(445.6,0)">40%</text></g><g class="xtick"><text text-anchor="middle" x="0" y="933" style="font-family: 'Open Sans', verdana, arial, sans-serif; font-size: 12px; fill: rgb(42, 63, 95); fill-opacity: 1; white-space: pre; opacity: 1;" transform="translate(628.4,0)">60%</text></g><g class="xtick"><text text-anchor="middle" x="0" y="933" style="font-family: 'Open Sans', verdana, arial, sans-serif; font-size: 12px; fill: rgb(42, 63, 95); fill-opacity: 1; white-space: pre; opacity: 1;" transform="translate(811.2,0)">80%</text></g><g class="xtick"><text text-anchor="middle" x="0" y="933" style="font-family: 'Open Sans', verdana, arial, sans-serif; font-size: 12px; fill: rgb(42, 63, 95); fill-opacity: 1; white-space: pre; opacity: 1;" transform="translate(994,0)">100%</text></g></g><g class="yaxislayer-above"><g class="ytick"><text text-anchor="start" x="995" y="4.199999999999999" transform="translate(0,920)" style="font-family: 'Open Sans', verdana, arial, sans-serif; font-size: 12px; fill: rgb(42, 63, 95); fill-opacity: 1; white-space: pre; opacity: 1;">$0 a day</text></g><g class="ytick"><text text-anchor="start" x="995" y="4.199999999999999" style="font-family: 'Open Sans', verdana, arial, sans-serif; font-size: 12px; fill: rgb(42, 63, 95); fill-opacity: 1; white-space: pre; opacity: 1;" transform="translate(0,813.65)">$20 a day</text></g><g class="ytick"><text text-anchor="start" x="995" y="4.199999999999999" style="font-family: 'Open Sans', verdana, arial, sans-serif; font-size: 12px; fill: rgb(42, 63, 95); fill-opacity: 1; white-space: pre; opacity: 1;" transform="translate(0,707.3)">$40 a day</text></g><g class="ytick"><text text-anchor="start" x="995" y="4.199999999999999" style="font-family: 'Open Sans', verdana, arial, sans-serif; font-size: 12px; fill: rgb(42, 63, 95); fill-opacity: 1; white-space: pre; opacity: 1;" transform="translate(0,600.96)">$60 a day</text></g><g class="ytick"><text text-anchor="start" x="995" y="4.199999999999999" style="font-family: 'Open Sans', verdana, arial, sans-serif; font-size: 12px; fill: rgb(42, 63, 95); fill-opacity: 1; white-space: pre; opacity: 1;" transform="translate(0,494.61)">$80 a day</text></g><g class="ytick"><text text-anchor="start" x="995" y="4.199999999999999" style="font-family: 'Open Sans', verdana, arial, sans-serif; font-size: 12px; fill: rgb(42, 63, 95); fill-opacity: 1; white-space: pre; opacity: 1;" transform="translate(0,388.26)">$100 a day</text></g><g class="ytick"><text text-anchor="start" x="995" y="4.199999999999999" style="font-family: 'Open Sans', verdana, arial, sans-serif; font-size: 12px; fill: rgb(42, 63, 95); fill-opacity: 1; white-space: pre; opacity: 1;" transform="translate(0,281.90999999999997)">$120 a day</text></g><g class="ytick"><text text-anchor="start" x="995" y="4.199999999999999" style="font-family: 'Open Sans', verdana, arial, sans-serif; font-size: 12px; fill: rgb(42, 63, 95); fill-opacity: 1; white-space: pre; opacity: 1;" transform="translate(0,175.56)">$140 a day</text></g></g><g class="overaxes-above"/></g></g><g class="polarlayer"/><g class="smithlayer"/><g class="ternarylayer"/><g class="geolayer"/><g class="funnelarealayer"/><g class="pielayer"/><g class="iciclelayer"/><g class="treemaplayer"/><g class="sunburstlayer"/><g class="glimages"/><defs id="topdefs-e6a27b"><g class="clips"/></defs><g class="layer-above"><g class="imagelayer"/><g class="shapelayer"><g class="shape-group" data-index="0" clip-path="url(#clipe6a27by)"><path data-index="0" fill-rule="evenodd" d="M994,908.57L162.26,908.57" style="opacity: 1; stroke: rgb(255, 0, 0); stroke-opacity: 1; fill: rgb(0, 0, 0); fill-opacity: 0; stroke-dasharray: 3px, 3px; stroke-width: 1px;"/></g><g class="shape-group" data-index="1" clip-path="url(#clipe6a27by)"><path data-index="1" fill-rule="evenodd" d="M994,876.4L537,876.4" style="opacity: 1; stroke: rgb(255, 0, 0); stroke-opacity: 1; fill: rgb(0, 0, 0); fill-opacity: 0; stroke-dasharray: 3px, 3px; stroke-width: 1px;"/></g><g class="shape-group" data-index="2" clip-path="url(#clipe6a27by)"><path data-index="2" fill-rule="evenodd" d="M994,662.64L902.6,662.64" style="opacity: 1; stroke: rgb(255, 0, 0); stroke-opacity: 1; fill: rgb(0, 0, 0); fill-opacity: 0; stroke-dasharray: 3px, 3px; stroke-width: 1px;"/></g><g class="shape-group" data-index="3" clip-path="url(#clipe6a27by)"><path data-index="3" fill-rule="evenodd" d="M994,141L984.86,141" style="opacity: 1; stroke: rgb(255, 0, 0); stroke-opacity: 1; fill: rgb(0, 0, 0); fill-opacity: 0; stroke-dasharray: 3px, 3px; stroke-width: 1px;"/></g><g class="shape-group" data-index="4" clip-path="url(#clipe6a27by)"><path data-index="4" fill-rule="evenodd" d="M994,818.06L765.5,818.06" style="opacity: 1; stroke: rgb(255, 0, 0); stroke-opacity: 1; fill: rgb(0, 0, 0); fill-opacity: 0; stroke-dasharray: 3px, 3px; stroke-width: 1px;"/></g><g class="shape-group" data-index="5" clip-path="url(#clipe6a27by)"><path data-index="5" fill-rule="evenodd" d="M994,588.19L932.305,588.19" style="opacity: 1; stroke: rgb(255, 0, 0); stroke-opacity: 1; fill: rgb(0, 0, 0); fill-opacity: 0; stroke-dasharray: 3px, 3px; stroke-width: 1px;"/></g></g></g><g class="infolayer"><g class="g-gtitle"><text class="gtitle" x="55" y="50" text-anchor="start" dy="0em" style="opacity: 1; font-family: 'Open Sans', verdana, arial, sans-serif; font-size: 17px; fill: rgb(42, 63, 95); fill-opacity: 1; white-space: pre;">World income distribution</text></g><g class="g-xtitle"><text class="xtitle" x="537" y="959.8" text-anchor="middle" style="opacity: 1; font-family: 'Open Sans', verdana, arial, sans-serif; font-size: 14px; fill: rgb(42, 63, 95); fill-opacity: 1; white-space: pre;">Percentage of the population</text></g><g class="g-ytitle"><text class="ytitle" transform="rotate(-90,1087.253125,510)" x="1087.253125" y="510" text-anchor="middle" style="opacity: 1; font-family: 'Open Sans', verdana, arial, sans-serif; font-size: 14px; fill: rgb(42, 63, 95); fill-opacity: 1; white-space: pre;">Daily income or consumption</text></g><g class="annotation" data-index="0" style="opacity: 1;"><g class="annotation-text-g" transform="rotate(0,891.5,899.07)"><g class="cursor-pointer" transform="translate(789,890)"><rect class="bg" x="0.5" y="0.5" width="204" height="18" style="stroke-width: 1px; stroke: rgb(0, 0, 0); stroke-opacity: 0; fill: rgb(0, 0, 0); fill-opacity: 0;"/><text class="annotation-text" text-anchor="middle" x="102.640625" y="14" style="font-family: 'Open Sans', verdana, arial, sans-serif; font-size: 12px; fill: rgb(42, 63, 95); fill-opacity: 1; white-space: pre;">International Poverty Line: $2.15</text></g></g></g><g class="annotation" data-index="1" style="opacity: 1;"><g class="annotation-text-g" transform="rotate(0,928,866.9)"><g class="cursor-pointer" transform="translate(862,857)"><rect class="bg" x="0.5" y="0.5" width="131" height="18" style="stroke-width: 1px; stroke: rgb(0, 0, 0); stroke-opacity: 0; fill: rgb(0, 0, 0); fill-opacity: 0;"/><text class="annotation-text" text-anchor="middle" x="66.109375" y="14" style="font-family: 'Open Sans', verdana, arial, sans-serif; font-size: 12px; fill: rgb(42, 63, 95); fill-opacity: 1; white-space: pre;">World median: $8.20</text></g></g></g><g class="annotation" data-index="2" style="opacity: 1;"><g class="annotation-text-g" transform="rotate(0,901,653.14)"><g class="cursor-pointer" transform="translate(808,644)"><rect class="bg" x="0.5" y="0.5" width="185" height="18" style="stroke-width: 1px; stroke: rgb(0, 0, 0); stroke-opacity: 0; fill: rgb(0, 0, 0); fill-opacity: 0;"/><text class="annotation-text" text-anchor="middle" x="93.21875" y="14" style="font-family: 'Open Sans', verdana, arial, sans-serif; font-size: 12px; fill: rgb(42, 63, 95); fill-opacity: 1; white-space: pre;">World 90th percentile: $48.40</text></g></g></g><g class="annotation" data-index="3" style="opacity: 1;"><g class="annotation-text-g" transform="rotate(0,897,131.5)"><g class="cursor-pointer" transform="translate(800,122)"><rect class="bg" x="0.5" y="0.5" width="193" height="18" style="stroke-width: 1px; stroke: rgb(0, 0, 0); stroke-opacity: 0; fill: rgb(0, 0, 0); fill-opacity: 0;"/><text class="annotation-text" text-anchor="middle" x="97.046875" y="14" style="font-family: 'Open Sans', verdana, arial, sans-serif; font-size: 12px; fill: rgb(42, 63, 95); fill-opacity: 1; white-space: pre;">World 99th percentile: $146.50</text></g></g></g><g class="annotation" data-index="4" style="opacity: 1;"><g class="annotation-text-g" transform="rotate(0,929.5,808.56)"><g class="cursor-pointer" transform="translate(865,799)"><rect class="bg" x="0.5" y="0.5" width="128" height="18" style="stroke-width: 1px; stroke: rgb(0, 0, 0); stroke-opacity: 0; fill: rgb(0, 0, 0); fill-opacity: 0;"/><text class="annotation-text" text-anchor="middle" x="64.53125" y="14" style="font-family: 'Open Sans', verdana, arial, sans-serif; font-size: 12px; fill: rgb(42, 63, 95); fill-opacity: 1; white-space: pre;">World mean: $19.17</text></g></g></g><g class="annotation" data-index="5" style="opacity: 1;"><g class="annotation-text-g" transform="rotate(0,933,578.69)"><g class="cursor-pointer" transform="translate(872,569)"><rect class="bg" x="0.5" y="0.5" width="121" height="18" style="stroke-width: 1px; stroke: rgb(0, 0, 0); stroke-opacity: 0; fill: rgb(0, 0, 0); fill-opacity: 0;"/><text class="annotation-text" text-anchor="middle" x="60.890625" y="14" style="font-family: 'Open Sans', verdana, arial, sans-serif; font-size: 12px; fill: rgb(42, 63, 95); fill-opacity: 1; white-space: pre;">US median: $62.40</text></g></g></g><g class="annotation" data-index="6" style="opacity: 1;"><g class="annotation-text-g" transform="rotate(0,641,829.4)"><g class="cursor-pointer" transform="translate(537,804)"><rect class="bg" x="0.5" y="0.5" width="207" height="49" style="stroke-width: 1px; stroke: rgb(0, 0, 0); stroke-opacity: 0; fill: rgb(0, 0, 0); fill-opacity: 0;"/><text class="annotation-text" text-anchor="start" x="2" y="14" style="font-family: 'Open Sans', verdana, arial, sans-serif; font-size: 12px; fill: rgb(42, 63, 95); fill-opacity: 1; white-space: pre;"><tspan class="line" dy="0em" x="2" y="14">50% of the world population lives</tspan><tspan class="line" dy="1.3em" x="2" y="14">with less than</tspan><tspan class="line" dy="2.6em" x="2" y="14"><tspan style="font-weight:bold">$8.20 per day</tspan></tspan></text></g></g></g></g></svg>