<?xml version="1.0" encoding="utf-8" standalone="no"?>
<!DOCTYPE svg PUBLIC "-//W3C//DTD SVG 1.1//EN"
  "http://www.w3.org/Graphics/SVG/1.1/DTD/svg11.dtd">
<svg xmlns:xlink="http://www.w3.org/1999/xlink" width="870.640625pt" height="459.729687pt" viewBox="0 0 870.640625 459.729687" xmlns="http://www.w3.org/2000/svg" version="1.1">
 <metadata>
  <rdf:RDF xmlns:dc="http://purl.org/dc/elements/1.1/" xmlns:cc="http://creativecommons.org/ns#" xmlns:rdf="http://www.w3.org/1999/02/22-rdf-syntax-ns#">
   <cc:Work>
    <dc:type rdf:resource="http://purl.org/dc/dcmitype/StillImage"/>
    <dc:date>2025-04-15T11:23:28.130837</dc:date>
    <dc:format>image/svg+xml</dc:format>
    <dc:creator>
     <cc:Agent>
      <dc:title>Matplotlib v3.10.1, https://matplotlib.org/</dc:title>
     </cc:Agent>
    </dc:creator>
   </cc:Work>
  </rdf:RDF>
 </metadata>
 <defs>
  <style type="text/css">*{stroke-linejoin: round; stroke-linecap: butt}</style>
 </defs>
 <g id="figure_1">
  <g id="patch_1">
   <path d="M 0 459.729687 
L 870.640625 459.729687 
L 870.640625 0 
L 0 0 
z
" style="fill: #ffffff"/>
  </g>
  <g id="axes_1">
   <g id="patch_2">
    <path d="M 7.2 423 
L 844.2 423 
L 844.2 7.2 
L 7.2 7.2 
z
" style="fill: #ffffff"/>
   </g>
   <g id="matplotlib.axis_1">
    <g id="xtick_1">
     <g id="line2d_1">
      <defs>
       <path id="m7d056d243b" d="M 0 0 
L 0 3.5 
" style="stroke: #262626; stroke-width: 0.8"/>
      </defs>
      <g>
       <use xlink:href="#m7d056d243b" x="204.824573" y="423" style="fill: #262626; stroke: #262626; stroke-width: 0.8"/>
      </g>
     </g>
     <g id="text_1">
      <text style="font-size: 10px; font-family: 'Arial', 'DejaVu Sans', 'Liberation Sans', 'Bitstream Vera Sans', sans-serif; text-anchor: middle; fill: #262626" x="204.824573" y="437.157812" transform="rotate(-0 204.824573 437.157812)">1</text>
     </g>
    </g>
    <g id="xtick_2">
     <g id="line2d_2">
      <g>
       <use xlink:href="#m7d056d243b" x="263.378639" y="423" style="fill: #262626; stroke: #262626; stroke-width: 0.8"/>
      </g>
     </g>
     <g id="text_2">
      <text style="font-size: 10px; font-family: 'Arial', 'DejaVu Sans', 'Liberation Sans', 'Bitstream Vera Sans', sans-serif; text-anchor: middle; fill: #262626" x="263.378639" y="437.157812" transform="rotate(-0 263.378639 437.157812)">2</text>
     </g>
    </g>
    <g id="xtick_3">
     <g id="line2d_3">
      <g>
       <use xlink:href="#m7d056d243b" x="340.782904" y="423" style="fill: #262626; stroke: #262626; stroke-width: 0.8"/>
      </g>
     </g>
     <g id="text_3">
      <text style="font-size: 10px; font-family: 'Arial', 'DejaVu Sans', 'Liberation Sans', 'Bitstream Vera Sans', sans-serif; text-anchor: middle; fill: #262626" x="340.782904" y="437.157812" transform="rotate(-0 340.782904 437.157812)">5</text>
     </g>
    </g>
    <g id="xtick_4">
     <g id="line2d_4">
      <g>
       <use xlink:href="#m7d056d243b" x="399.336971" y="423" style="fill: #262626; stroke: #262626; stroke-width: 0.8"/>
      </g>
     </g>
     <g id="text_4">
      <text style="font-size: 10px; font-family: 'Arial', 'DejaVu Sans', 'Liberation Sans', 'Bitstream Vera Sans', sans-serif; text-anchor: middle; fill: #262626" x="399.336971" y="437.157812" transform="rotate(-0 399.336971 437.157812)">10</text>
     </g>
    </g>
    <g id="xtick_5">
     <g id="line2d_5">
      <g>
       <use xlink:href="#m7d056d243b" x="457.891037" y="423" style="fill: #262626; stroke: #262626; stroke-width: 0.8"/>
      </g>
     </g>
     <g id="text_5">
      <text style="font-size: 10px; font-family: 'Arial', 'DejaVu Sans', 'Liberation Sans', 'Bitstream Vera Sans', sans-serif; text-anchor: middle; fill: #262626" x="457.891037" y="437.157812" transform="rotate(-0 457.891037 437.157812)">20</text>
     </g>
    </g>
    <g id="xtick_6">
     <g id="line2d_6">
      <g>
       <use xlink:href="#m7d056d243b" x="535.295302" y="423" style="fill: #262626; stroke: #262626; stroke-width: 0.8"/>
      </g>
     </g>
     <g id="text_6">
      <text style="font-size: 10px; font-family: 'Arial', 'DejaVu Sans', 'Liberation Sans', 'Bitstream Vera Sans', sans-serif; text-anchor: middle; fill: #262626" x="535.295302" y="437.157812" transform="rotate(-0 535.295302 437.157812)">50</text>
     </g>
    </g>
    <g id="xtick_7">
     <g id="line2d_7">
      <g>
       <use xlink:href="#m7d056d243b" x="593.849368" y="423" style="fill: #262626; stroke: #262626; stroke-width: 0.8"/>
      </g>
     </g>
     <g id="text_7">
      <text style="font-size: 10px; font-family: 'Arial', 'DejaVu Sans', 'Liberation Sans', 'Bitstream Vera Sans', sans-serif; text-anchor: middle; fill: #262626" x="593.849368" y="437.157812" transform="rotate(-0 593.849368 437.157812)">100</text>
     </g>
    </g>
    <g id="xtick_8">
     <g id="line2d_8">
      <g>
       <use xlink:href="#m7d056d243b" x="652.403435" y="423" style="fill: #262626; stroke: #262626; stroke-width: 0.8"/>
      </g>
     </g>
     <g id="text_8">
      <text style="font-size: 10px; font-family: 'Arial', 'DejaVu Sans', 'Liberation Sans', 'Bitstream Vera Sans', sans-serif; text-anchor: middle; fill: #262626" x="652.403435" y="437.157812" transform="rotate(-0 652.403435 437.157812)">200</text>
     </g>
    </g>
    <g id="xtick_9">
     <g id="line2d_9">
      <g>
       <use xlink:href="#m7d056d243b" x="729.8077" y="423" style="fill: #262626; stroke: #262626; stroke-width: 0.8"/>
      </g>
     </g>
     <g id="text_9">
      <text style="font-size: 10px; font-family: 'Arial', 'DejaVu Sans', 'Liberation Sans', 'Bitstream Vera Sans', sans-serif; text-anchor: middle; fill: #262626" x="729.8077" y="437.157812" transform="rotate(-0 729.8077 437.157812)">500</text>
     </g>
    </g>
    <g id="xtick_10">
     <g id="line2d_10">
      <g>
       <use xlink:href="#m7d056d243b" x="788.361766" y="423" style="fill: #262626; stroke: #262626; stroke-width: 0.8"/>
      </g>
     </g>
     <g id="text_10">
      <text style="font-size: 10px; font-family: 'Arial', 'DejaVu Sans', 'Liberation Sans', 'Bitstream Vera Sans', sans-serif; text-anchor: middle; fill: #262626" x="788.361766" y="437.157812" transform="rotate(-0 788.361766 437.157812)">1000</text>
     </g>
    </g>
    <g id="xtick_11">
     <g id="line2d_11">
      <defs>
       <path id="mf9763afeb2" d="M 0 0 
L 0 2 
" style="stroke: #262626; stroke-width: 0.6"/>
      </defs>
      <g>
       <use xlink:href="#mf9763afeb2" x="68.866241" y="423" style="fill: #262626; stroke: #262626; stroke-width: 0.6"/>
      </g>
     </g>
    </g>
    <g id="xtick_12">
     <g id="line2d_12">
      <g>
       <use xlink:href="#mf9763afeb2" x="103.118174" y="423" style="fill: #262626; stroke: #262626; stroke-width: 0.6"/>
      </g>
     </g>
    </g>
    <g id="xtick_13">
     <g id="line2d_13">
      <g>
       <use xlink:href="#mf9763afeb2" x="127.420308" y="423" style="fill: #262626; stroke: #262626; stroke-width: 0.6"/>
      </g>
     </g>
    </g>
    <g id="xtick_14">
     <g id="line2d_14">
      <g>
       <use xlink:href="#mf9763afeb2" x="146.270507" y="423" style="fill: #262626; stroke: #262626; stroke-width: 0.6"/>
      </g>
     </g>
    </g>
    <g id="xtick_15">
     <g id="line2d_15">
      <g>
       <use xlink:href="#mf9763afeb2" x="161.672241" y="423" style="fill: #262626; stroke: #262626; stroke-width: 0.6"/>
      </g>
     </g>
    </g>
    <g id="xtick_16">
     <g id="line2d_16">
      <g>
       <use xlink:href="#mf9763afeb2" x="174.694221" y="423" style="fill: #262626; stroke: #262626; stroke-width: 0.6"/>
      </g>
     </g>
    </g>
    <g id="xtick_17">
     <g id="line2d_17">
      <g>
       <use xlink:href="#mf9763afeb2" x="185.974374" y="423" style="fill: #262626; stroke: #262626; stroke-width: 0.6"/>
      </g>
     </g>
    </g>
    <g id="xtick_18">
     <g id="line2d_18">
      <g>
       <use xlink:href="#mf9763afeb2" x="195.924174" y="423" style="fill: #262626; stroke: #262626; stroke-width: 0.6"/>
      </g>
     </g>
    </g>
    <g id="xtick_19">
     <g id="line2d_19">
      <g>
       <use xlink:href="#mf9763afeb2" x="297.630572" y="423" style="fill: #262626; stroke: #262626; stroke-width: 0.6"/>
      </g>
     </g>
    </g>
    <g id="xtick_20">
     <g id="line2d_20">
      <g>
       <use xlink:href="#mf9763afeb2" x="321.932705" y="423" style="fill: #262626; stroke: #262626; stroke-width: 0.6"/>
      </g>
     </g>
    </g>
    <g id="xtick_21">
     <g id="line2d_21">
      <g>
       <use xlink:href="#mf9763afeb2" x="356.184638" y="423" style="fill: #262626; stroke: #262626; stroke-width: 0.6"/>
      </g>
     </g>
    </g>
    <g id="xtick_22">
     <g id="line2d_22">
      <g>
       <use xlink:href="#mf9763afeb2" x="369.206619" y="423" style="fill: #262626; stroke: #262626; stroke-width: 0.6"/>
      </g>
     </g>
    </g>
    <g id="xtick_23">
     <g id="line2d_23">
      <g>
       <use xlink:href="#mf9763afeb2" x="380.486772" y="423" style="fill: #262626; stroke: #262626; stroke-width: 0.6"/>
      </g>
     </g>
    </g>
    <g id="xtick_24">
     <g id="line2d_24">
      <g>
       <use xlink:href="#mf9763afeb2" x="390.436571" y="423" style="fill: #262626; stroke: #262626; stroke-width: 0.6"/>
      </g>
     </g>
    </g>
    <g id="xtick_25">
     <g id="line2d_25">
      <g>
       <use xlink:href="#mf9763afeb2" x="492.14297" y="423" style="fill: #262626; stroke: #262626; stroke-width: 0.6"/>
      </g>
     </g>
    </g>
    <g id="xtick_26">
     <g id="line2d_26">
      <g>
       <use xlink:href="#mf9763afeb2" x="516.445103" y="423" style="fill: #262626; stroke: #262626; stroke-width: 0.6"/>
      </g>
     </g>
    </g>
    <g id="xtick_27">
     <g id="line2d_27">
      <g>
       <use xlink:href="#mf9763afeb2" x="550.697036" y="423" style="fill: #262626; stroke: #262626; stroke-width: 0.6"/>
      </g>
     </g>
    </g>
    <g id="xtick_28">
     <g id="line2d_28">
      <g>
       <use xlink:href="#mf9763afeb2" x="563.719017" y="423" style="fill: #262626; stroke: #262626; stroke-width: 0.6"/>
      </g>
     </g>
    </g>
    <g id="xtick_29">
     <g id="line2d_29">
      <g>
       <use xlink:href="#mf9763afeb2" x="574.999169" y="423" style="fill: #262626; stroke: #262626; stroke-width: 0.6"/>
      </g>
     </g>
    </g>
    <g id="xtick_30">
     <g id="line2d_30">
      <g>
       <use xlink:href="#mf9763afeb2" x="584.948969" y="423" style="fill: #262626; stroke: #262626; stroke-width: 0.6"/>
      </g>
     </g>
    </g>
    <g id="xtick_31">
     <g id="line2d_31">
      <g>
       <use xlink:href="#mf9763afeb2" x="686.655368" y="423" style="fill: #262626; stroke: #262626; stroke-width: 0.6"/>
      </g>
     </g>
    </g>
    <g id="xtick_32">
     <g id="line2d_32">
      <g>
       <use xlink:href="#mf9763afeb2" x="710.957501" y="423" style="fill: #262626; stroke: #262626; stroke-width: 0.6"/>
      </g>
     </g>
    </g>
    <g id="xtick_33">
     <g id="line2d_33">
      <g>
       <use xlink:href="#mf9763afeb2" x="745.209434" y="423" style="fill: #262626; stroke: #262626; stroke-width: 0.6"/>
      </g>
     </g>
    </g>
    <g id="xtick_34">
     <g id="line2d_34">
      <g>
       <use xlink:href="#mf9763afeb2" x="758.231415" y="423" style="fill: #262626; stroke: #262626; stroke-width: 0.6"/>
      </g>
     </g>
    </g>
    <g id="xtick_35">
     <g id="line2d_35">
      <g>
       <use xlink:href="#mf9763afeb2" x="769.511567" y="423" style="fill: #262626; stroke: #262626; stroke-width: 0.6"/>
      </g>
     </g>
    </g>
    <g id="xtick_36">
     <g id="line2d_36">
      <g>
       <use xlink:href="#mf9763afeb2" x="779.461367" y="423" style="fill: #262626; stroke: #262626; stroke-width: 0.6"/>
      </g>
     </g>
    </g>
    <g id="text_11">
     <text style="font-size: 10px; font-family: 'Arial', 'DejaVu Sans', 'Liberation Sans', 'Bitstream Vera Sans', sans-serif; text-anchor: middle; fill: #262626" x="425.7" y="450.425" transform="rotate(-0 425.7 450.425)">Income or consumption (day)</text>
    </g>
   </g>
   <g id="matplotlib.axis_2"/>
   <g id="FillBetweenPolyCollection_1">
    <defs>
     <path id="mbae76efadf" d="M 45.245455 -36.731206 
L 45.245455 -36.729687 
L 49.069118 -36.729687 
L 52.892782 -36.729687 
L 56.716446 -36.729687 
L 60.54011 -36.729687 
L 64.363773 -36.729687 
L 68.187437 -36.729687 
L 72.011101 -36.729687 
L 75.834765 -36.729687 
L 79.658429 -36.729687 
L 83.482092 -36.729687 
L 87.305756 -36.729687 
L 91.12942 -36.729687 
L 94.953084 -36.729687 
L 98.776747 -36.729687 
L 102.600411 -36.729687 
L 106.424075 -36.729687 
L 110.247739 -36.729687 
L 114.071402 -36.729687 
L 117.895066 -36.729687 
L 121.71873 -36.729687 
L 125.542394 -36.729687 
L 129.366058 -36.729687 
L 133.189721 -36.729687 
L 137.013385 -36.729687 
L 140.837049 -36.729687 
L 144.660713 -36.729687 
L 148.484376 -36.729687 
L 152.30804 -36.729687 
L 156.131704 -36.729687 
L 159.955368 -36.729687 
L 163.779032 -36.729687 
L 167.602695 -36.729687 
L 171.426359 -36.729687 
L 175.250023 -36.729687 
L 179.073687 -36.729687 
L 182.89735 -36.729687 
L 186.721014 -36.729687 
L 190.544678 -36.729687 
L 194.368342 -36.729687 
L 198.192005 -36.729687 
L 202.015669 -36.729687 
L 205.839333 -36.729687 
L 209.662997 -36.729687 
L 213.486661 -36.729687 
L 217.310324 -36.729687 
L 221.133988 -36.729687 
L 224.957652 -36.729687 
L 228.781316 -36.729687 
L 232.604979 -36.729687 
L 236.428643 -36.729687 
L 240.252307 -36.729687 
L 244.075971 -36.729687 
L 247.899635 -36.729687 
L 251.723298 -36.729687 
L 255.546962 -36.729687 
L 259.370626 -36.729687 
L 263.19429 -36.729687 
L 267.017953 -36.729687 
L 270.841617 -36.729687 
L 274.665281 -36.729687 
L 278.488945 -36.729687 
L 282.312608 -36.729687 
L 286.136272 -36.729687 
L 289.959936 -36.729687 
L 293.7836 -36.729687 
L 297.607264 -36.729687 
L 301.430927 -36.729687 
L 305.254591 -36.729687 
L 309.078255 -36.729687 
L 312.901919 -36.729687 
L 316.725582 -36.729687 
L 320.549246 -36.729687 
L 324.37291 -36.729687 
L 328.196574 -36.729687 
L 332.020238 -36.729687 
L 335.843901 -36.729687 
L 339.667565 -36.729687 
L 343.491229 -36.729687 
L 347.314893 -36.729687 
L 351.138556 -36.729687 
L 354.96222 -36.729687 
L 358.785884 -36.729687 
L 362.609548 -36.729687 
L 366.433212 -36.729687 
L 370.256875 -36.729687 
L 374.080539 -36.729687 
L 377.904203 -36.729687 
L 381.727867 -36.729687 
L 385.55153 -36.729687 
L 389.375194 -36.729687 
L 393.198858 -36.729687 
L 397.022522 -36.729687 
L 400.846185 -36.729687 
L 404.669849 -36.729687 
L 408.493513 -36.729687 
L 412.317177 -36.729687 
L 416.140841 -36.729687 
L 419.964504 -36.729687 
L 423.788168 -36.729687 
L 427.611832 -36.729687 
L 431.435496 -36.729687 
L 435.259159 -36.729687 
L 439.082823 -36.729687 
L 442.906487 -36.729687 
L 446.730151 -36.729687 
L 450.553815 -36.729687 
L 454.377478 -36.729687 
L 458.201142 -36.729687 
L 462.024806 -36.729687 
L 465.84847 -36.729687 
L 469.672133 -36.729687 
L 473.495797 -36.729687 
L 477.319461 -36.729687 
L 481.143125 -36.729687 
L 484.966788 -36.729687 
L 488.790452 -36.729687 
L 492.614116 -36.729687 
L 496.43778 -36.729687 
L 500.261444 -36.729687 
L 504.085107 -36.729687 
L 507.908771 -36.729687 
L 511.732435 -36.729687 
L 515.556099 -36.729687 
L 519.379762 -36.729687 
L 523.203426 -36.729687 
L 527.02709 -36.729687 
L 530.850754 -36.729687 
L 534.674418 -36.729687 
L 538.498081 -36.729687 
L 542.321745 -36.729687 
L 546.145409 -36.729687 
L 549.969073 -36.729687 
L 553.792736 -36.729687 
L 557.6164 -36.729687 
L 561.440064 -36.729687 
L 565.263728 -36.729687 
L 569.087392 -36.729687 
L 572.911055 -36.729687 
L 576.734719 -36.729687 
L 580.558383 -36.729687 
L 584.382047 -36.729687 
L 588.20571 -36.729687 
L 592.029374 -36.729687 
L 595.853038 -36.729687 
L 599.676702 -36.729687 
L 603.500365 -36.729687 
L 607.324029 -36.729687 
L 611.147693 -36.729687 
L 614.971357 -36.729687 
L 618.795021 -36.729687 
L 622.618684 -36.729687 
L 626.442348 -36.729687 
L 630.266012 -36.729687 
L 634.089676 -36.729687 
L 637.913339 -36.729687 
L 641.737003 -36.729687 
L 645.560667 -36.729687 
L 649.384331 -36.729687 
L 653.207995 -36.729687 
L 657.031658 -36.729687 
L 660.855322 -36.729687 
L 664.678986 -36.729687 
L 668.50265 -36.729687 
L 672.326313 -36.729687 
L 676.149977 -36.729687 
L 679.973641 -36.729687 
L 683.797305 -36.729687 
L 687.620968 -36.729687 
L 691.444632 -36.729687 
L 695.268296 -36.729687 
L 699.09196 -36.729687 
L 702.915624 -36.729687 
L 706.739287 -36.729687 
L 710.562951 -36.729687 
L 714.386615 -36.729687 
L 718.210279 -36.729687 
L 722.033942 -36.729687 
L 725.857606 -36.729687 
L 729.68127 -36.729687 
L 733.504934 -36.729687 
L 737.328598 -36.729687 
L 741.152261 -36.729687 
L 744.975925 -36.729687 
L 748.799589 -36.729687 
L 752.623253 -36.729687 
L 756.446916 -36.729687 
L 760.27058 -36.729687 
L 764.094244 -36.729687 
L 767.917908 -36.729687 
L 771.741571 -36.729687 
L 775.565235 -36.729687 
L 779.388899 -36.729687 
L 783.212563 -36.729687 
L 787.036227 -36.729687 
L 790.85989 -36.729687 
L 794.683554 -36.729687 
L 798.507218 -36.729687 
L 802.330882 -36.729687 
L 806.154545 -36.729687 
L 806.154545 -36.729712 
L 806.154545 -36.729712 
L 802.330882 -36.729777 
L 798.507218 -36.729968 
L 794.683554 -36.730452 
L 790.85989 -36.731497 
L 787.036227 -36.733411 
L 783.212563 -36.736348 
L 779.388899 -36.74004 
L 775.565235 -36.743676 
L 771.741571 -36.746119 
L 767.917908 -36.746482 
L 764.094244 -36.744655 
L 760.27058 -36.741389 
L 756.446916 -36.737848 
L 752.623253 -36.734983 
L 748.799589 -36.733169 
L 744.975925 -36.732248 
L 741.152261 -36.73182 
L 737.328598 -36.731533 
L 733.504934 -36.731235 
L 729.68127 -36.730994 
L 725.857606 -36.731057 
L 722.033942 -36.731828 
L 718.210279 -36.733809 
L 714.386615 -36.737435 
L 710.562951 -36.742712 
L 706.739287 -36.748851 
L 702.915624 -36.754257 
L 699.09196 -36.757139 
L 695.268296 -36.756487 
L 691.444632 -36.752721 
L 687.620968 -36.747522 
L 683.797305 -36.743025 
L 679.973641 -36.74101 
L 676.149977 -36.742516 
L 672.326313 -36.747783 
L 668.50265 -36.756336 
L 664.678986 -36.767225 
L 660.855322 -36.779507 
L 657.031658 -36.792695 
L 653.207995 -36.806719 
L 649.384331 -36.821308 
L 645.560667 -36.835408 
L 641.737003 -36.847301 
L 637.913339 -36.855461 
L 634.089676 -36.859556 
L 630.266012 -36.860911 
L 626.442348 -36.862118 
L 622.618684 -36.865985 
L 618.795021 -36.87446 
L 614.971357 -36.888214 
L 611.147693 -36.907111 
L 607.324029 -36.931032 
L 603.500365 -36.960174 
L 599.676702 -36.994411 
L 595.853038 -37.032396 
L 592.029374 -37.071697 
L 588.20571 -37.110384 
L 584.382047 -37.148696 
L 580.558383 -37.18888 
L 576.734719 -37.233066 
L 572.911055 -37.281326 
L 569.087392 -37.331988 
L 565.263728 -37.383727 
L 561.440064 -37.436749 
L 557.6164 -37.491274 
L 553.792736 -37.544897 
L 549.969073 -37.592372 
L 546.145409 -37.62922 
L 542.321745 -37.656262 
L 538.498081 -37.680618 
L 534.674418 -37.712059 
L 530.850754 -37.758088 
L 527.02709 -37.821812 
L 523.203426 -37.903237 
L 519.379762 -38.001291 
L 515.556099 -38.114219 
L 511.732435 -38.238921 
L 507.908771 -38.371476 
L 504.085107 -38.509501 
L 500.261444 -38.654338 
L 496.43778 -38.810733 
L 492.614116 -38.984104 
L 488.790452 -39.178153 
L 484.966788 -39.395335 
L 481.143125 -39.639631 
L 477.319461 -39.918065 
L 473.495797 -40.238079 
L 469.672133 -40.602447 
L 465.84847 -41.007024 
L 462.024806 -41.444727 
L 458.201142 -41.912816 
L 454.377478 -42.416952 
L 450.553815 -42.968782 
L 446.730151 -43.580261 
L 442.906487 -44.260091 
L 439.082823 -45.014124 
L 435.259159 -45.847386 
L 431.435496 -46.764832 
L 427.611832 -47.770359 
L 423.788168 -48.865532 
L 419.964504 -50.049448 
L 416.140841 -51.319969 
L 412.317177 -52.675742 
L 408.493513 -54.118512 
L 404.669849 -55.655339 
L 400.846185 -57.299536 
L 397.022522 -59.068445 
L 393.198858 -60.977916 
L 389.375194 -63.037116 
L 385.55153 -65.248549 
L 381.727867 -67.613855 
L 377.904203 -70.140368 
L 374.080539 -72.842624 
L 370.256875 -75.737274 
L 366.433212 -78.833971 
L 362.609548 -82.126583 
L 358.785884 -85.589669 
L 354.96222 -89.183294 
L 351.138556 -92.86264 
L 347.314893 -96.582229 
L 343.491229 -100.287413 
L 339.667565 -103.899949 
L 335.843901 -107.316781 
L 332.020238 -110.435197 
L 328.196574 -113.193787 
L 324.37291 -115.598944 
L 320.549246 -117.713165 
L 316.725582 -119.610737 
L 312.901919 -121.331559 
L 309.078255 -122.862349 
L 305.254591 -124.150272 
L 301.430927 -125.13126 
L 297.607264 -125.752489 
L 293.7836 -125.98235 
L 289.959936 -125.813973 
L 286.136272 -125.268504 
L 282.312608 -124.396229 
L 278.488945 -123.268647 
L 274.665281 -121.958329 
L 270.841617 -120.512881 
L 267.017953 -118.936411 
L 263.19429 -117.190304 
L 259.370626 -115.214231 
L 255.546962 -112.955867 
L 251.723298 -110.394174 
L 247.899635 -107.548612 
L 244.075971 -104.475554 
L 240.252307 -101.254969 
L 236.428643 -97.969323 
L 232.604979 -94.680538 
L 228.781316 -91.416591 
L 224.957652 -88.176474 
L 221.133988 -84.94996 
L 217.310324 -81.738294 
L 213.486661 -78.562765 
L 209.662997 -75.458469 
L 205.839333 -72.461297 
L 202.015669 -69.59927 
L 198.192005 -66.892823 
L 194.368342 -64.358833 
L 190.544678 -62.010241 
L 186.721014 -59.850145 
L 182.89735 -57.867508 
L 179.073687 -56.040838 
L 175.250023 -54.347648 
L 171.426359 -52.772113 
L 167.602695 -51.306746 
L 163.779032 -49.950068 
L 159.955368 -48.703392 
L 156.131704 -47.567365 
L 152.30804 -46.538238 
L 148.484376 -45.605597 
L 144.660713 -44.753305 
L 140.837049 -43.963053 
L 137.013385 -43.218722 
L 133.189721 -42.510653 
L 129.366058 -41.839376 
L 125.542394 -41.217254 
L 121.71873 -40.6665 
L 117.895066 -40.214027 
L 114.071402 -39.884032 
L 110.247739 -39.687427 
L 106.424075 -39.608048 
L 102.600411 -39.592585 
L 98.776747 -39.557307 
L 94.953084 -39.418094 
L 91.12942 -39.130814 
L 87.305756 -38.714625 
L 83.482092 -38.239765 
L 79.658429 -37.788709 
L 75.834765 -37.419012 
L 72.011101 -37.149646 
L 68.187437 -36.970424 
L 64.363773 -36.8593 
L 60.54011 -36.794619 
L 56.716446 -36.759536 
L 52.892782 -36.7421 
L 49.069118 -36.734301 
L 45.245455 -36.731206 
z
" style="stroke: #ffffff"/>
    </defs>
    <g>
     <use xlink:href="#mbae76efadf" x="0" y="459.729687" style="fill: #da8bc3; fill-opacity: 0.75; stroke: #ffffff"/>
    </g>
   </g>
   <g id="FillBetweenPolyCollection_2">
    <defs>
     <path id="m2adfb5f958" d="M 45.245455 -36.731206 
L 45.245455 -36.731206 
L 49.069118 -36.734301 
L 52.892782 -36.7421 
L 56.716446 -36.759536 
L 60.54011 -36.794619 
L 64.363773 -36.8593 
L 68.187437 -36.970424 
L 72.011101 -37.149646 
L 75.834765 -37.419012 
L 79.658429 -37.788709 
L 83.482092 -38.239765 
L 87.305756 -38.714625 
L 91.12942 -39.130814 
L 94.953084 -39.418094 
L 98.776747 -39.557307 
L 102.600411 -39.592585 
L 106.424075 -39.608048 
L 110.247739 -39.687427 
L 114.071402 -39.884032 
L 117.895066 -40.214027 
L 121.71873 -40.6665 
L 125.542394 -41.217254 
L 129.366058 -41.839376 
L 133.189721 -42.510653 
L 137.013385 -43.218722 
L 140.837049 -43.963053 
L 144.660713 -44.753305 
L 148.484376 -45.605597 
L 152.30804 -46.538238 
L 156.131704 -47.567365 
L 159.955368 -48.703392 
L 163.779032 -49.950068 
L 167.602695 -51.306746 
L 171.426359 -52.772113 
L 175.250023 -54.347648 
L 179.073687 -56.040838 
L 182.89735 -57.867508 
L 186.721014 -59.850145 
L 190.544678 -62.010241 
L 194.368342 -64.358833 
L 198.192005 -66.892823 
L 202.015669 -69.59927 
L 205.839333 -72.461297 
L 209.662997 -75.458469 
L 213.486661 -78.562765 
L 217.310324 -81.738294 
L 221.133988 -84.94996 
L 224.957652 -88.176474 
L 228.781316 -91.416591 
L 232.604979 -94.680538 
L 236.428643 -97.969323 
L 240.252307 -101.254969 
L 244.075971 -104.475554 
L 247.899635 -107.548612 
L 251.723298 -110.394174 
L 255.546962 -112.955867 
L 259.370626 -115.214231 
L 263.19429 -117.190304 
L 267.017953 -118.936411 
L 270.841617 -120.512881 
L 274.665281 -121.958329 
L 278.488945 -123.268647 
L 282.312608 -124.396229 
L 286.136272 -125.268504 
L 289.959936 -125.813973 
L 293.7836 -125.98235 
L 297.607264 -125.752489 
L 301.430927 -125.13126 
L 305.254591 -124.150272 
L 309.078255 -122.862349 
L 312.901919 -121.331559 
L 316.725582 -119.610737 
L 320.549246 -117.713165 
L 324.37291 -115.598944 
L 328.196574 -113.193787 
L 332.020238 -110.435197 
L 335.843901 -107.316781 
L 339.667565 -103.899949 
L 343.491229 -100.287413 
L 347.314893 -96.582229 
L 351.138556 -92.86264 
L 354.96222 -89.183294 
L 358.785884 -85.589669 
L 362.609548 -82.126583 
L 366.433212 -78.833971 
L 370.256875 -75.737274 
L 374.080539 -72.842624 
L 377.904203 -70.140368 
L 381.727867 -67.613855 
L 385.55153 -65.248549 
L 389.375194 -63.037116 
L 393.198858 -60.977916 
L 397.022522 -59.068445 
L 400.846185 -57.299536 
L 404.669849 -55.655339 
L 408.493513 -54.118512 
L 412.317177 -52.675742 
L 416.140841 -51.319969 
L 419.964504 -50.049448 
L 423.788168 -48.865532 
L 427.611832 -47.770359 
L 431.435496 -46.764832 
L 435.259159 -45.847386 
L 439.082823 -45.014124 
L 442.906487 -44.260091 
L 446.730151 -43.580261 
L 450.553815 -42.968782 
L 454.377478 -42.416952 
L 458.201142 -41.912816 
L 462.024806 -41.444727 
L 465.84847 -41.007024 
L 469.672133 -40.602447 
L 473.495797 -40.238079 
L 477.319461 -39.918065 
L 481.143125 -39.639631 
L 484.966788 -39.395335 
L 488.790452 -39.178153 
L 492.614116 -38.984104 
L 496.43778 -38.810733 
L 500.261444 -38.654338 
L 504.085107 -38.509501 
L 507.908771 -38.371476 
L 511.732435 -38.238921 
L 515.556099 -38.114219 
L 519.379762 -38.001291 
L 523.203426 -37.903237 
L 527.02709 -37.821812 
L 530.850754 -37.758088 
L 534.674418 -37.712059 
L 538.498081 -37.680618 
L 542.321745 -37.656262 
L 546.145409 -37.62922 
L 549.969073 -37.592372 
L 553.792736 -37.544897 
L 557.6164 -37.491274 
L 561.440064 -37.436749 
L 565.263728 -37.383727 
L 569.087392 -37.331988 
L 572.911055 -37.281326 
L 576.734719 -37.233066 
L 580.558383 -37.18888 
L 584.382047 -37.148696 
L 588.20571 -37.110384 
L 592.029374 -37.071697 
L 595.853038 -37.032396 
L 599.676702 -36.994411 
L 603.500365 -36.960174 
L 607.324029 -36.931032 
L 611.147693 -36.907111 
L 614.971357 -36.888214 
L 618.795021 -36.87446 
L 622.618684 -36.865985 
L 626.442348 -36.862118 
L 630.266012 -36.860911 
L 634.089676 -36.859556 
L 637.913339 -36.855461 
L 641.737003 -36.847301 
L 645.560667 -36.835408 
L 649.384331 -36.821308 
L 653.207995 -36.806719 
L 657.031658 -36.792695 
L 660.855322 -36.779507 
L 664.678986 -36.767225 
L 668.50265 -36.756336 
L 672.326313 -36.747783 
L 676.149977 -36.742516 
L 679.973641 -36.74101 
L 683.797305 -36.743025 
L 687.620968 -36.747522 
L 691.444632 -36.752721 
L 695.268296 -36.756487 
L 699.09196 -36.757139 
L 702.915624 -36.754257 
L 706.739287 -36.748851 
L 710.562951 -36.742712 
L 714.386615 -36.737435 
L 718.210279 -36.733809 
L 722.033942 -36.731828 
L 725.857606 -36.731057 
L 729.68127 -36.730994 
L 733.504934 -36.731235 
L 737.328598 -36.731533 
L 741.152261 -36.73182 
L 744.975925 -36.732248 
L 748.799589 -36.733169 
L 752.623253 -36.734983 
L 756.446916 -36.737848 
L 760.27058 -36.741389 
L 764.094244 -36.744655 
L 767.917908 -36.746482 
L 771.741571 -36.746119 
L 775.565235 -36.743676 
L 779.388899 -36.74004 
L 783.212563 -36.736348 
L 787.036227 -36.733411 
L 790.85989 -36.731497 
L 794.683554 -36.730452 
L 798.507218 -36.729968 
L 802.330882 -36.729777 
L 806.154545 -36.729712 
L 806.154545 -36.729712 
L 806.154545 -36.729712 
L 802.330882 -36.729777 
L 798.507218 -36.729968 
L 794.683554 -36.730452 
L 790.85989 -36.731497 
L 787.036227 -36.733411 
L 783.212563 -36.736348 
L 779.388899 -36.74004 
L 775.565235 -36.743676 
L 771.741571 -36.746119 
L 767.917908 -36.746482 
L 764.094244 -36.744655 
L 760.27058 -36.741389 
L 756.446916 -36.737848 
L 752.623253 -36.734983 
L 748.799589 -36.733169 
L 744.975925 -36.732248 
L 741.152261 -36.73182 
L 737.328598 -36.731533 
L 733.504934 -36.731235 
L 729.68127 -36.730994 
L 725.857606 -36.731057 
L 722.033942 -36.731828 
L 718.210279 -36.733809 
L 714.386615 -36.737435 
L 710.562951 -36.742712 
L 706.739287 -36.748851 
L 702.915624 -36.754257 
L 699.09196 -36.757139 
L 695.268296 -36.756488 
L 691.444632 -36.752724 
L 687.620968 -36.747531 
L 683.797305 -36.743052 
L 679.973641 -36.74109 
L 676.149977 -36.74273 
L 672.326313 -36.748297 
L 668.50265 -36.757441 
L 664.678986 -36.769353 
L 660.855322 -36.783163 
L 657.031658 -36.798304 
L 653.207995 -36.814418 
L 649.384331 -36.830863 
L 645.560667 -36.846442 
L 641.737003 -36.859929 
L 637.913339 -36.871167 
L 634.089676 -36.881854 
L 630.266012 -36.895127 
L 626.442348 -36.913834 
L 622.618684 -36.938364 
L 618.795021 -36.96569 
L 614.971357 -36.990822 
L 611.147693 -37.010198 
L 607.324029 -37.024713 
L 603.500365 -37.039887 
L 599.676702 -37.062747 
L 595.853038 -37.097541 
L 592.029374 -37.143453 
L 588.20571 -37.19572 
L 584.382047 -37.248797 
L 580.558383 -37.29883 
L 576.734719 -37.34414 
L 572.911055 -37.384626 
L 569.087392 -37.421641 
L 565.263728 -37.458297 
L 561.440064 -37.498688 
L 557.6164 -37.545326 
L 553.792736 -37.596749 
L 549.969073 -37.648572 
L 546.145409 -37.69886 
L 542.321745 -37.754311 
L 538.498081 -37.831918 
L 534.674418 -37.953598 
L 530.850754 -38.136059 
L 527.02709 -38.38099 
L 523.203426 -38.670734 
L 519.379762 -38.972856 
L 515.556099 -39.253635 
L 511.732435 -39.495709 
L 507.908771 -39.711332 
L 504.085107 -39.943493 
L 500.261444 -40.252968 
L 496.43778 -40.696947 
L 492.614116 -41.309938 
L 488.790452 -42.097225 
L 484.966788 -43.04412 
L 481.143125 -44.13352 
L 477.319461 -45.358409 
L 473.495797 -46.722221 
L 469.672133 -48.233493 
L 465.84847 -49.906631 
L 462.024806 -51.770226 
L 458.201142 -53.87028 
L 454.377478 -56.25691 
L 450.553815 -58.960657 
L 446.730151 -61.978666 
L 442.906487 -65.284783 
L 439.082823 -68.85668 
L 435.259159 -72.698325 
L 431.435496 -76.841037 
L 427.611832 -81.325484 
L 423.788168 -86.182855 
L 419.964504 -91.43239 
L 416.140841 -97.095638 
L 412.317177 -103.211 
L 408.493513 -109.831807 
L 404.669849 -117.00795 
L 400.846185 -124.767432 
L 397.022522 -133.111904 
L 393.198858 -142.021668 
L 389.375194 -151.452622 
L 385.55153 -161.318483 
L 381.727867 -171.477768 
L 377.904203 -181.756239 
L 374.080539 -192.010777 
L 370.256875 -202.196177 
L 366.433212 -212.37752 
L 362.609548 -222.666473 
L 358.785884 -233.124193 
L 354.96222 -243.703 
L 351.138556 -254.259076 
L 347.314893 -264.597435 
L 343.491229 -274.484441 
L 339.667565 -283.613246 
L 335.843901 -291.580107 
L 332.020238 -297.940386 
L 328.196574 -302.340552 
L 324.37291 -304.6382 
L 320.549246 -304.917281 
L 316.725582 -303.39121 
L 312.901919 -300.277819 
L 309.078255 -295.738498 
L 305.254591 -289.89846 
L 301.430927 -282.888672 
L 297.607264 -274.848603 
L 293.7836 -265.894846 
L 289.959936 -256.114107 
L 286.136272 -245.615704 
L 282.312608 -234.602771 
L 278.488945 -223.381127 
L 274.665281 -212.272603 
L 270.841617 -201.489787 
L 267.017953 -191.06893 
L 263.19429 -180.909922 
L 259.370626 -170.887682 
L 255.546962 -160.95543 
L 251.723298 -151.184017 
L 247.899635 -141.735866 
L 244.075971 -132.805661 
L 240.252307 -124.558374 
L 236.428643 -117.081848 
L 232.604979 -110.365754 
L 228.781316 -104.314854 
L 224.957652 -98.790657 
L 221.133988 -93.660124 
L 217.310324 -88.82974 
L 213.486661 -84.257117 
L 209.662997 -79.944606 
L 205.839333 -75.921951 
L 202.015669 -72.224029 
L 198.192005 -68.870723 
L 194.368342 -65.856089 
L 190.544678 -63.15001 
L 186.721014 -60.70938 
L 182.89735 -58.492048 
L 179.073687 -56.46657 
L 175.250023 -54.613941 
L 171.426359 -52.922712 
L 167.602695 -51.383049 
L 163.779032 -49.984512 
L 159.955368 -48.717201 
L 156.131704 -47.572273 
L 152.30804 -46.539782 
L 148.484376 -45.606027 
L 144.660713 -44.75341 
L 140.837049 -43.963076 
L 137.013385 -43.218727 
L 133.189721 -42.510653 
L 129.366058 -41.839377 
L 125.542394 -41.217254 
L 121.71873 -40.6665 
L 117.895066 -40.214027 
L 114.071402 -39.884032 
L 110.247739 -39.687427 
L 106.424075 -39.608048 
L 102.600411 -39.592585 
L 98.776747 -39.557307 
L 94.953084 -39.418094 
L 91.12942 -39.130814 
L 87.305756 -38.714625 
L 83.482092 -38.239765 
L 79.658429 -37.788709 
L 75.834765 -37.419012 
L 72.011101 -37.149646 
L 68.187437 -36.970424 
L 64.363773 -36.8593 
L 60.54011 -36.794619 
L 56.716446 -36.759536 
L 52.892782 -36.7421 
L 49.069118 -36.734301 
L 45.245455 -36.731206 
z
" style="stroke: #ffffff"/>
    </defs>
    <g>
     <use xlink:href="#m2adfb5f958" x="0" y="459.729687" style="fill: #937860; fill-opacity: 0.75; stroke: #ffffff"/>
    </g>
   </g>
   <g id="FillBetweenPolyCollection_3">
    <defs>
     <path id="m2df16ef80f" d="M 45.245455 -36.73139 
L 45.245455 -36.731206 
L 49.069118 -36.734301 
L 52.892782 -36.7421 
L 56.716446 -36.759536 
L 60.54011 -36.794619 
L 64.363773 -36.8593 
L 68.187437 -36.970424 
L 72.011101 -37.149646 
L 75.834765 -37.419012 
L 79.658429 -37.788709 
L 83.482092 -38.239765 
L 87.305756 -38.714625 
L 91.12942 -39.130814 
L 94.953084 -39.418094 
L 98.776747 -39.557307 
L 102.600411 -39.592585 
L 106.424075 -39.608048 
L 110.247739 -39.687427 
L 114.071402 -39.884032 
L 117.895066 -40.214027 
L 121.71873 -40.6665 
L 125.542394 -41.217254 
L 129.366058 -41.839377 
L 133.189721 -42.510653 
L 137.013385 -43.218727 
L 140.837049 -43.963076 
L 144.660713 -44.75341 
L 148.484376 -45.606027 
L 152.30804 -46.539782 
L 156.131704 -47.572273 
L 159.955368 -48.717201 
L 163.779032 -49.984512 
L 167.602695 -51.383049 
L 171.426359 -52.922712 
L 175.250023 -54.613941 
L 179.073687 -56.46657 
L 182.89735 -58.492048 
L 186.721014 -60.70938 
L 190.544678 -63.15001 
L 194.368342 -65.856089 
L 198.192005 -68.870723 
L 202.015669 -72.224029 
L 205.839333 -75.921951 
L 209.662997 -79.944606 
L 213.486661 -84.257117 
L 217.310324 -88.82974 
L 221.133988 -93.660124 
L 224.957652 -98.790657 
L 228.781316 -104.314854 
L 232.604979 -110.365754 
L 236.428643 -117.081848 
L 240.252307 -124.558374 
L 244.075971 -132.805661 
L 247.899635 -141.735866 
L 251.723298 -151.184017 
L 255.546962 -160.95543 
L 259.370626 -170.887682 
L 263.19429 -180.909922 
L 267.017953 -191.06893 
L 270.841617 -201.489787 
L 274.665281 -212.272603 
L 278.488945 -223.381127 
L 282.312608 -234.602771 
L 286.136272 -245.615704 
L 289.959936 -256.114107 
L 293.7836 -265.894846 
L 297.607264 -274.848603 
L 301.430927 -282.888672 
L 305.254591 -289.89846 
L 309.078255 -295.738498 
L 312.901919 -300.277819 
L 316.725582 -303.39121 
L 320.549246 -304.917281 
L 324.37291 -304.6382 
L 328.196574 -302.340552 
L 332.020238 -297.940386 
L 335.843901 -291.580107 
L 339.667565 -283.613246 
L 343.491229 -274.484441 
L 347.314893 -264.597435 
L 351.138556 -254.259076 
L 354.96222 -243.703 
L 358.785884 -233.124193 
L 362.609548 -222.666473 
L 366.433212 -212.37752 
L 370.256875 -202.196177 
L 374.080539 -192.010777 
L 377.904203 -181.756239 
L 381.727867 -171.477768 
L 385.55153 -161.318483 
L 389.375194 -151.452622 
L 393.198858 -142.021668 
L 397.022522 -133.111904 
L 400.846185 -124.767432 
L 404.669849 -117.00795 
L 408.493513 -109.831807 
L 412.317177 -103.211 
L 416.140841 -97.095638 
L 419.964504 -91.43239 
L 423.788168 -86.182855 
L 427.611832 -81.325484 
L 431.435496 -76.841037 
L 435.259159 -72.698325 
L 439.082823 -68.85668 
L 442.906487 -65.284783 
L 446.730151 -61.978666 
L 450.553815 -58.960657 
L 454.377478 -56.25691 
L 458.201142 -53.87028 
L 462.024806 -51.770226 
L 465.84847 -49.906631 
L 469.672133 -48.233493 
L 473.495797 -46.722221 
L 477.319461 -45.358409 
L 481.143125 -44.13352 
L 484.966788 -43.04412 
L 488.790452 -42.097225 
L 492.614116 -41.309938 
L 496.43778 -40.696947 
L 500.261444 -40.252968 
L 504.085107 -39.943493 
L 507.908771 -39.711332 
L 511.732435 -39.495709 
L 515.556099 -39.253635 
L 519.379762 -38.972856 
L 523.203426 -38.670734 
L 527.02709 -38.38099 
L 530.850754 -38.136059 
L 534.674418 -37.953598 
L 538.498081 -37.831918 
L 542.321745 -37.754311 
L 546.145409 -37.69886 
L 549.969073 -37.648572 
L 553.792736 -37.596749 
L 557.6164 -37.545326 
L 561.440064 -37.498688 
L 565.263728 -37.458297 
L 569.087392 -37.421641 
L 572.911055 -37.384626 
L 576.734719 -37.34414 
L 580.558383 -37.29883 
L 584.382047 -37.248797 
L 588.20571 -37.19572 
L 592.029374 -37.143453 
L 595.853038 -37.097541 
L 599.676702 -37.062747 
L 603.500365 -37.039887 
L 607.324029 -37.024713 
L 611.147693 -37.010198 
L 614.971357 -36.990822 
L 618.795021 -36.96569 
L 622.618684 -36.938364 
L 626.442348 -36.913834 
L 630.266012 -36.895127 
L 634.089676 -36.881854 
L 637.913339 -36.871167 
L 641.737003 -36.859929 
L 645.560667 -36.846442 
L 649.384331 -36.830863 
L 653.207995 -36.814418 
L 657.031658 -36.798304 
L 660.855322 -36.783163 
L 664.678986 -36.769353 
L 668.50265 -36.757441 
L 672.326313 -36.748297 
L 676.149977 -36.74273 
L 679.973641 -36.74109 
L 683.797305 -36.743052 
L 687.620968 -36.747531 
L 691.444632 -36.752724 
L 695.268296 -36.756488 
L 699.09196 -36.757139 
L 702.915624 -36.754257 
L 706.739287 -36.748851 
L 710.562951 -36.742712 
L 714.386615 -36.737435 
L 718.210279 -36.733809 
L 722.033942 -36.731828 
L 725.857606 -36.731057 
L 729.68127 -36.730994 
L 733.504934 -36.731235 
L 737.328598 -36.731533 
L 741.152261 -36.73182 
L 744.975925 -36.732248 
L 748.799589 -36.733169 
L 752.623253 -36.734983 
L 756.446916 -36.737848 
L 760.27058 -36.741389 
L 764.094244 -36.744655 
L 767.917908 -36.746482 
L 771.741571 -36.746119 
L 775.565235 -36.743676 
L 779.388899 -36.74004 
L 783.212563 -36.736348 
L 787.036227 -36.733411 
L 790.85989 -36.731497 
L 794.683554 -36.730452 
L 798.507218 -36.729968 
L 802.330882 -36.729777 
L 806.154545 -36.729712 
L 806.154545 -36.732084 
L 806.154545 -36.732084 
L 802.330882 -36.735554 
L 798.507218 -36.742455 
L 794.683554 -36.754475 
L 790.85989 -36.772798 
L 787.036227 -36.797235 
L 783.212563 -36.825701 
L 779.388899 -36.854552 
L 775.565235 -36.879793 
L 771.741571 -36.898714 
L 767.917908 -36.911397 
L 764.094244 -36.921681 
L 760.27058 -36.937061 
L 756.446916 -36.967007 
L 752.623253 -37.01981 
L 748.799589 -37.099462 
L 744.975925 -37.204663 
L 741.152261 -37.330522 
L 737.328598 -37.471088 
L 733.504934 -37.620449 
L 729.68127 -37.772668 
L 725.857606 -37.9228 
L 722.033942 -38.069552 
L 718.210279 -38.217086 
L 714.386615 -38.373739 
L 710.562951 -38.549063 
L 706.739287 -38.752459 
L 702.915624 -38.994018 
L 699.09196 -39.284781 
L 695.268296 -39.634042 
L 691.444632 -40.045081 
L 687.620968 -40.513642 
L 683.797305 -41.032356 
L 679.973641 -41.599634 
L 676.149977 -42.227136 
L 672.326313 -42.940017 
L 668.50265 -43.769288 
L 664.678986 -44.74138 
L 660.855322 -45.871138 
L 657.031658 -47.160886 
L 653.207995 -48.604399 
L 649.384331 -50.193691 
L 645.560667 -51.926831 
L 641.737003 -53.813872 
L 637.913339 -55.876436 
L 634.089676 -58.138697 
L 630.266012 -60.614016 
L 626.442348 -63.296857 
L 622.618684 -66.167472 
L 618.795021 -69.20733 
L 614.971357 -72.41394 
L 611.147693 -75.803322 
L 607.324029 -79.397503 
L 603.500365 -83.205635 
L 599.676702 -87.211229 
L 595.853038 -91.372274 
L 592.029374 -95.631405 
L 588.20571 -99.92752 
L 584.382047 -104.201691 
L 580.558383 -108.395961 
L 576.734719 -112.448565 
L 572.911055 -116.290583 
L 569.087392 -119.847757 
L 565.263728 -123.048877 
L 561.440064 -125.838605 
L 557.6164 -128.188401 
L 553.792736 -130.097786 
L 549.969073 -131.582745 
L 546.145409 -132.656462 
L 542.321745 -133.312713 
L 538.498081 -133.520538 
L 534.674418 -133.232628 
L 530.850754 -132.403325 
L 527.02709 -131.007113 
L 523.203426 -129.047569 
L 519.379762 -126.553142 
L 515.556099 -123.567296 
L 511.732435 -120.145759 
L 507.908771 -116.365585 
L 504.085107 -112.336728 
L 500.261444 -108.202016 
L 496.43778 -104.120572 
L 492.614116 -100.241963 
L 488.790452 -96.682214 
L 484.966788 -93.508497 
L 481.143125 -90.734608 
L 477.319461 -88.327941 
L 473.495797 -86.228886 
L 469.672133 -84.381594 
L 465.84847 -82.768459 
L 462.024806 -81.432004 
L 458.201142 -80.467032 
L 454.377478 -79.981269 
L 450.553815 -80.046299 
L 446.730151 -80.670855 
L 442.906487 -81.813473 
L 439.082823 -83.42306 
L 435.259159 -85.478121 
L 431.435496 -88.000242 
L 427.611832 -91.038266 
L 423.788168 -94.639991 
L 419.964504 -98.834244 
L 416.140841 -103.634029 
L 412.317177 -109.051461 
L 408.493513 -115.10565 
L 404.669849 -121.814631 
L 400.846185 -129.180437 
L 397.022522 -137.181959 
L 393.198858 -145.777408 
L 389.375194 -154.903805 
L 385.55153 -164.465268 
L 381.727867 -174.323579 
L 377.904203 -184.31768 
L 374.080539 -194.319571 
L 370.256875 -204.292961 
L 366.433212 -214.301071 
L 362.609548 -224.443501 
L 358.785884 -234.764846 
L 354.96222 -245.205028 
L 351.138556 -255.618315 
L 347.314893 -265.81711 
L 343.491229 -275.576336 
L 339.667565 -284.590664 
L 335.843901 -292.449767 
L 332.020238 -298.701151 
L 328.196574 -302.990782 
L 324.37291 -305.186503 
L 320.549246 -305.389418 
L 316.725582 -303.829306 
L 312.901919 -300.732571 
L 309.078255 -296.257068 
L 305.254591 -290.510812 
L 301.430927 -283.596013 
L 297.607264 -275.619404 
L 293.7836 -266.673087 
L 289.959936 -256.838548 
L 286.136272 -246.241686 
L 282.312608 -235.115922 
L 278.488945 -223.797602 
L 274.665281 -212.628399 
L 270.841617 -201.825786 
L 267.017953 -191.417599 
L 263.19429 -181.287143 
L 259.370626 -171.291468 
L 255.546962 -161.371584 
L 251.723298 -151.596153 
L 247.899635 -142.134803 
L 244.075971 -133.193162 
L 240.252307 -124.943184 
L 236.428643 -117.470524 
L 232.604979 -110.754343 
L 228.781316 -104.68742 
L 224.957652 -99.126236 
L 221.133988 -93.943686 
L 217.310324 -89.059902 
L 213.486661 -84.446059 
L 209.662997 -80.111274 
L 205.839333 -76.083521 
L 202.015669 -72.390266 
L 198.192005 -69.04282 
L 194.368342 -66.028837 
L 190.544678 -63.315225 
L 186.721014 -60.859036 
L 182.89735 -58.620347 
L 179.073687 -56.570754 
L 175.250023 -54.694068 
L 171.426359 -52.980913 
L 167.602695 -51.422735 
L 163.779032 -50.009715 
L 159.955368 -48.732047 
L 156.131704 -47.580617 
L 152.30804 -46.545241 
L 148.484376 -45.612711 
L 144.660713 -44.767609 
L 140.837049 -43.995727 
L 137.013385 -43.287648 
L 133.189721 -42.640466 
L 129.366058 -42.056974 
L 125.542394 -41.542952 
L 121.71873 -41.105487 
L 117.895066 -40.755847 
L 114.071402 -40.514663 
L 110.247739 -40.408318 
L 106.424075 -40.446487 
L 102.600411 -40.588867 
L 98.776747 -40.730108 
L 94.953084 -40.729561 
L 91.12942 -40.47895 
L 87.305756 -39.963761 
L 83.482092 -39.272282 
L 79.658429 -38.546211 
L 75.834765 -37.911061 
L 72.011101 -37.43231 
L 68.187437 -37.113953 
L 64.363773 -36.923706 
L 60.54011 -36.820157 
L 56.716446 -36.768485 
L 52.892782 -36.744871 
L 49.069118 -36.735059 
L 45.245455 -36.73139 
z
" style="stroke: #ffffff"/>
    </defs>
    <g>
     <use xlink:href="#m2df16ef80f" x="0" y="459.729687" style="fill: #8172b3; fill-opacity: 0.75; stroke: #ffffff"/>
    </g>
   </g>
   <g id="FillBetweenPolyCollection_4">
    <defs>
     <path id="mbd4be3a9b6" d="M 45.245455 -36.73139 
L 45.245455 -36.73139 
L 49.069118 -36.735059 
L 52.892782 -36.744871 
L 56.716446 -36.768485 
L 60.54011 -36.820157 
L 64.363773 -36.923706 
L 68.187437 -37.113953 
L 72.011101 -37.43231 
L 75.834765 -37.911061 
L 79.658429 -38.546211 
L 83.482092 -39.272282 
L 87.305756 -39.963761 
L 91.12942 -40.47895 
L 94.953084 -40.729561 
L 98.776747 -40.730108 
L 102.600411 -40.588867 
L 106.424075 -40.446487 
L 110.247739 -40.408318 
L 114.071402 -40.514663 
L 117.895066 -40.755847 
L 121.71873 -41.105487 
L 125.542394 -41.542952 
L 129.366058 -42.056974 
L 133.189721 -42.640466 
L 137.013385 -43.287648 
L 140.837049 -43.995727 
L 144.660713 -44.767609 
L 148.484376 -45.612711 
L 152.30804 -46.545241 
L 156.131704 -47.580617 
L 159.955368 -48.732047 
L 163.779032 -50.009715 
L 167.602695 -51.422735 
L 171.426359 -52.980913 
L 175.250023 -54.694068 
L 179.073687 -56.570754 
L 182.89735 -58.620347 
L 186.721014 -60.859036 
L 190.544678 -63.315225 
L 194.368342 -66.028837 
L 198.192005 -69.04282 
L 202.015669 -72.390266 
L 205.839333 -76.083521 
L 209.662997 -80.111274 
L 213.486661 -84.446059 
L 217.310324 -89.059902 
L 221.133988 -93.943686 
L 224.957652 -99.126236 
L 228.781316 -104.68742 
L 232.604979 -110.754343 
L 236.428643 -117.470524 
L 240.252307 -124.943184 
L 244.075971 -133.193162 
L 247.899635 -142.134803 
L 251.723298 -151.596153 
L 255.546962 -161.371584 
L 259.370626 -171.291468 
L 263.19429 -181.287143 
L 267.017953 -191.417599 
L 270.841617 -201.825786 
L 274.665281 -212.628399 
L 278.488945 -223.797602 
L 282.312608 -235.115922 
L 286.136272 -246.241686 
L 289.959936 -256.838548 
L 293.7836 -266.673087 
L 297.607264 -275.619404 
L 301.430927 -283.596013 
L 305.254591 -290.510812 
L 309.078255 -296.257068 
L 312.901919 -300.732571 
L 316.725582 -303.829306 
L 320.549246 -305.389418 
L 324.37291 -305.186503 
L 328.196574 -302.990782 
L 332.020238 -298.701151 
L 335.843901 -292.449767 
L 339.667565 -284.590664 
L 343.491229 -275.576336 
L 347.314893 -265.81711 
L 351.138556 -255.618315 
L 354.96222 -245.205028 
L 358.785884 -234.764846 
L 362.609548 -224.443501 
L 366.433212 -214.301071 
L 370.256875 -204.292961 
L 374.080539 -194.319571 
L 377.904203 -184.31768 
L 381.727867 -174.323579 
L 385.55153 -164.465268 
L 389.375194 -154.903805 
L 393.198858 -145.777408 
L 397.022522 -137.181959 
L 400.846185 -129.180437 
L 404.669849 -121.814631 
L 408.493513 -115.10565 
L 412.317177 -109.051461 
L 416.140841 -103.634029 
L 419.964504 -98.834244 
L 423.788168 -94.639991 
L 427.611832 -91.038266 
L 431.435496 -88.000242 
L 435.259159 -85.478121 
L 439.082823 -83.42306 
L 442.906487 -81.813473 
L 446.730151 -80.670855 
L 450.553815 -80.046299 
L 454.377478 -79.981269 
L 458.201142 -80.467032 
L 462.024806 -81.432004 
L 465.84847 -82.768459 
L 469.672133 -84.381594 
L 473.495797 -86.228886 
L 477.319461 -88.327941 
L 481.143125 -90.734608 
L 484.966788 -93.508497 
L 488.790452 -96.682214 
L 492.614116 -100.241963 
L 496.43778 -104.120572 
L 500.261444 -108.202016 
L 504.085107 -112.336728 
L 507.908771 -116.365585 
L 511.732435 -120.145759 
L 515.556099 -123.567296 
L 519.379762 -126.553142 
L 523.203426 -129.047569 
L 527.02709 -131.007113 
L 530.850754 -132.403325 
L 534.674418 -133.232628 
L 538.498081 -133.520538 
L 542.321745 -133.312713 
L 546.145409 -132.656462 
L 549.969073 -131.582745 
L 553.792736 -130.097786 
L 557.6164 -128.188401 
L 561.440064 -125.838605 
L 565.263728 -123.048877 
L 569.087392 -119.847757 
L 572.911055 -116.290583 
L 576.734719 -112.448565 
L 580.558383 -108.395961 
L 584.382047 -104.201691 
L 588.20571 -99.92752 
L 592.029374 -95.631405 
L 595.853038 -91.372274 
L 599.676702 -87.211229 
L 603.500365 -83.205635 
L 607.324029 -79.397503 
L 611.147693 -75.803322 
L 614.971357 -72.41394 
L 618.795021 -69.20733 
L 622.618684 -66.167472 
L 626.442348 -63.296857 
L 630.266012 -60.614016 
L 634.089676 -58.138697 
L 637.913339 -55.876436 
L 641.737003 -53.813872 
L 645.560667 -51.926831 
L 649.384331 -50.193691 
L 653.207995 -48.604399 
L 657.031658 -47.160886 
L 660.855322 -45.871138 
L 664.678986 -44.74138 
L 668.50265 -43.769288 
L 672.326313 -42.940017 
L 676.149977 -42.227136 
L 679.973641 -41.599634 
L 683.797305 -41.032356 
L 687.620968 -40.513642 
L 691.444632 -40.045081 
L 695.268296 -39.634042 
L 699.09196 -39.284781 
L 702.915624 -38.994018 
L 706.739287 -38.752459 
L 710.562951 -38.549063 
L 714.386615 -38.373739 
L 718.210279 -38.217086 
L 722.033942 -38.069552 
L 725.857606 -37.9228 
L 729.68127 -37.772668 
L 733.504934 -37.620449 
L 737.328598 -37.471088 
L 741.152261 -37.330522 
L 744.975925 -37.204663 
L 748.799589 -37.099462 
L 752.623253 -37.01981 
L 756.446916 -36.967007 
L 760.27058 -36.937061 
L 764.094244 -36.921681 
L 767.917908 -36.911397 
L 771.741571 -36.898714 
L 775.565235 -36.879793 
L 779.388899 -36.854552 
L 783.212563 -36.825701 
L 787.036227 -36.797235 
L 790.85989 -36.772798 
L 794.683554 -36.754475 
L 798.507218 -36.742455 
L 802.330882 -36.735554 
L 806.154545 -36.732084 
L 806.154545 -36.732084 
L 806.154545 -36.732084 
L 802.330882 -36.735554 
L 798.507218 -36.742455 
L 794.683554 -36.754475 
L 790.85989 -36.772799 
L 787.036227 -36.797238 
L 783.212563 -36.825711 
L 779.388899 -36.854585 
L 775.565235 -36.879886 
L 771.741571 -36.898944 
L 767.917908 -36.911906 
L 764.094244 -36.922678 
L 760.27058 -36.938802 
L 756.446916 -36.969715 
L 752.623253 -37.02356 
L 748.799589 -37.104086 
L 744.975925 -37.209741 
L 741.152261 -37.335488 
L 737.328598 -37.475413 
L 733.504934 -37.623802 
L 729.68127 -37.774984 
L 725.857606 -37.924224 
L 722.033942 -38.070331 
L 718.210279 -38.217467 
L 714.386615 -38.373905 
L 710.562951 -38.549128 
L 706.739287 -38.752488 
L 702.915624 -38.99405 
L 699.09196 -39.284871 
L 695.268296 -39.634316 
L 691.444632 -40.045844 
L 687.620968 -40.515557 
L 683.797305 -41.036697 
L 679.973641 -41.608538 
L 676.149977 -42.243686 
L 672.326313 -42.967952 
L 668.50265 -43.812192 
L 664.678986 -44.801466 
L 660.855322 -45.948014 
L 657.031658 -47.250888 
L 653.207995 -48.700925 
L 649.384331 -50.288567 
L 645.560667 -52.012304 
L 641.737003 -53.884483 
L 637.913339 -55.930105 
L 634.089676 -58.176732 
L 630.266012 -60.640239 
L 626.442348 -63.316422 
L 622.618684 -66.185896 
L 618.795021 -69.229922 
L 614.971357 -72.445484 
L 611.147693 -75.847788 
L 607.324029 -79.457797 
L 603.500365 -83.283586 
L 599.676702 -87.30795 
L 595.853038 -91.488778 
L 592.029374 -95.769203 
L 588.20571 -100.089068 
L 584.382047 -104.390746 
L 580.558383 -108.617888 
L 576.734719 -112.710474 
L 572.911055 -116.60112 
L 569.087392 -120.21662 
L 565.263728 -123.486359 
L 561.440064 -126.355468 
L 557.6164 -128.796202 
L 553.792736 -130.809486 
L 549.969073 -132.413225 
L 546.145409 -133.62249 
L 542.321745 -134.432159 
L 538.498081 -134.811137 
L 534.674418 -134.711023 
L 530.850754 -134.084979 
L 527.02709 -132.907094 
L 523.203426 -131.181707 
L 519.379762 -128.939257 
L 515.556099 -126.226674 
L 511.732435 -123.105168 
L 507.908771 -119.659502 
L 504.085107 -116.008631 
L 500.261444 -112.303605 
L 496.43778 -108.708668 
L 492.614116 -105.374116 
L 488.790452 -102.41266 
L 484.966788 -99.885978 
L 481.143125 -97.802736 
L 477.319461 -96.127843 
L 473.495797 -94.80294 
L 469.672133 -93.776722 
L 465.84847 -93.037913 
L 462.024806 -92.635621 
L 458.201142 -92.670602 
L 454.377478 -93.25532 
L 450.553815 -94.463588 
L 446.730151 -96.301575 
L 442.906487 -98.718185 
L 439.082823 -101.645129 
L 435.259159 -105.038405 
L 431.435496 -108.896295 
L 427.611832 -113.248539 
L 423.788168 -118.131584 
L 419.964504 -123.571186 
L 416.140841 -129.582635 
L 412.317177 -136.180317 
L 408.493513 -143.380019 
L 404.669849 -151.187276 
L 400.846185 -159.581868 
L 397.022522 -168.513108 
L 393.198858 -177.907475 
L 389.375194 -187.67536 
L 385.55153 -197.706464 
L 381.727867 -207.863604 
L 377.904203 -217.998673 
L 374.080539 -227.999176 
L 370.256875 -237.836799 
L 366.433212 -247.57051 
L 362.609548 -257.286727 
L 358.785884 -267.01675 
L 354.96222 -276.695951 
L 351.138556 -286.187184 
L 347.314893 -295.323277 
L 343.491229 -303.906072 
L 339.667565 -311.657122 
L 335.843901 -318.187828 
L 332.020238 -323.060276 
L 328.196574 -325.929528 
L 324.37291 -326.671349 
L 320.549246 -325.398464 
L 316.725582 -322.359244 
L 312.901919 -317.806224 
L 309.078255 -311.928716 
L 305.254591 -304.867003 
L 301.430927 -296.750431 
L 297.607264 -287.70208 
L 293.7836 -277.816676 
L 289.959936 -267.166027 
L 286.136272 -255.859185 
L 282.312608 -244.111567 
L 278.488945 -232.244298 
L 274.665281 -220.587379 
L 270.841617 -209.348771 
L 267.017953 -198.547055 
L 263.19429 -188.055143 
L 259.370626 -177.718098 
L 255.546962 -167.464266 
L 251.723298 -157.351459 
L 247.899635 -147.543412 
L 244.075971 -138.246657 
L 240.252307 -129.639848 
L 236.428643 -121.817671 
L 232.604979 -114.766816 
L 228.781316 -108.384004 
L 224.957652 -102.52637 
L 221.133988 -97.065787 
L 217.310324 -91.921025 
L 213.486661 -87.061703 
L 209.662997 -82.494483 
L 205.839333 -78.243582 
L 202.015669 -74.332265 
L 198.192005 -70.769196 
L 194.368342 -67.542859 
L 190.544678 -64.624891 
L 186.721014 -61.979329 
L 182.89735 -59.57257 
L 179.073687 -57.379245 
L 175.250023 -55.382022 
L 171.426359 -53.567307 
L 167.602695 -51.921507 
L 163.779032 -50.430956 
L 159.955368 -49.084014 
L 156.131704 -47.871322 
L 152.30804 -46.783003 
L 148.484376 -45.805892 
L 144.660713 -44.924096 
L 140.837049 -44.122597 
L 137.013385 -43.391082 
L 133.189721 -42.725716 
L 129.366058 -42.128203 
L 125.542394 -41.603024 
L 121.71873 -41.155927 
L 117.895066 -40.797162 
L 114.071402 -40.546981 
L 110.247739 -40.43204 
L 106.424075 -40.462635 
L 102.600411 -40.599006 
L 98.776747 -40.735984 
L 94.953084 -40.732728 
L 91.12942 -40.480559 
L 87.305756 -39.964546 
L 83.482092 -39.272654 
L 79.658429 -38.546383 
L 75.834765 -37.911137 
L 72.011101 -37.432342 
L 68.187437 -37.113966 
L 64.363773 -36.92371 
L 60.54011 -36.820158 
L 56.716446 -36.768485 
L 52.892782 -36.744871 
L 49.069118 -36.735059 
L 45.245455 -36.73139 
z
" style="stroke: #ffffff"/>
    </defs>
    <g>
     <use xlink:href="#mbd4be3a9b6" x="0" y="459.729687" style="fill: #c44e52; fill-opacity: 0.75; stroke: #ffffff"/>
    </g>
   </g>
   <g id="FillBetweenPolyCollection_5">
    <defs>
     <path id="m7f90f544f0" d="M 45.245455 -36.732927 
L 45.245455 -36.73139 
L 49.069118 -36.735059 
L 52.892782 -36.744871 
L 56.716446 -36.768485 
L 60.54011 -36.820158 
L 64.363773 -36.92371 
L 68.187437 -37.113966 
L 72.011101 -37.432342 
L 75.834765 -37.911137 
L 79.658429 -38.546383 
L 83.482092 -39.272654 
L 87.305756 -39.964546 
L 91.12942 -40.480559 
L 94.953084 -40.732728 
L 98.776747 -40.735984 
L 102.600411 -40.599006 
L 106.424075 -40.462635 
L 110.247739 -40.43204 
L 114.071402 -40.546981 
L 117.895066 -40.797162 
L 121.71873 -41.155927 
L 125.542394 -41.603024 
L 129.366058 -42.128203 
L 133.189721 -42.725716 
L 137.013385 -43.391082 
L 140.837049 -44.122597 
L 144.660713 -44.924096 
L 148.484376 -45.805892 
L 152.30804 -46.783003 
L 156.131704 -47.871322 
L 159.955368 -49.084014 
L 163.779032 -50.430956 
L 167.602695 -51.921507 
L 171.426359 -53.567307 
L 175.250023 -55.382022 
L 179.073687 -57.379245 
L 182.89735 -59.57257 
L 186.721014 -61.979329 
L 190.544678 -64.624891 
L 194.368342 -67.542859 
L 198.192005 -70.769196 
L 202.015669 -74.332265 
L 205.839333 -78.243582 
L 209.662997 -82.494483 
L 213.486661 -87.061703 
L 217.310324 -91.921025 
L 221.133988 -97.065787 
L 224.957652 -102.52637 
L 228.781316 -108.384004 
L 232.604979 -114.766816 
L 236.428643 -121.817671 
L 240.252307 -129.639848 
L 244.075971 -138.246657 
L 247.899635 -147.543412 
L 251.723298 -157.351459 
L 255.546962 -167.464266 
L 259.370626 -177.718098 
L 263.19429 -188.055143 
L 267.017953 -198.547055 
L 270.841617 -209.348771 
L 274.665281 -220.587379 
L 278.488945 -232.244298 
L 282.312608 -244.111567 
L 286.136272 -255.859185 
L 289.959936 -267.166027 
L 293.7836 -277.816676 
L 297.607264 -287.70208 
L 301.430927 -296.750431 
L 305.254591 -304.867003 
L 309.078255 -311.928716 
L 312.901919 -317.806224 
L 316.725582 -322.359244 
L 320.549246 -325.398464 
L 324.37291 -326.671349 
L 328.196574 -325.929528 
L 332.020238 -323.060276 
L 335.843901 -318.187828 
L 339.667565 -311.657122 
L 343.491229 -303.906072 
L 347.314893 -295.323277 
L 351.138556 -286.187184 
L 354.96222 -276.695951 
L 358.785884 -267.01675 
L 362.609548 -257.286727 
L 366.433212 -247.57051 
L 370.256875 -237.836799 
L 374.080539 -227.999176 
L 377.904203 -217.998673 
L 381.727867 -207.863604 
L 385.55153 -197.706464 
L 389.375194 -187.67536 
L 393.198858 -177.907475 
L 397.022522 -168.513108 
L 400.846185 -159.581868 
L 404.669849 -151.187276 
L 408.493513 -143.380019 
L 412.317177 -136.180317 
L 416.140841 -129.582635 
L 419.964504 -123.571186 
L 423.788168 -118.131584 
L 427.611832 -113.248539 
L 431.435496 -108.896295 
L 435.259159 -105.038405 
L 439.082823 -101.645129 
L 442.906487 -98.718185 
L 446.730151 -96.301575 
L 450.553815 -94.463588 
L 454.377478 -93.25532 
L 458.201142 -92.670602 
L 462.024806 -92.635621 
L 465.84847 -93.037913 
L 469.672133 -93.776722 
L 473.495797 -94.80294 
L 477.319461 -96.127843 
L 481.143125 -97.802736 
L 484.966788 -99.885978 
L 488.790452 -102.41266 
L 492.614116 -105.374116 
L 496.43778 -108.708668 
L 500.261444 -112.303605 
L 504.085107 -116.008631 
L 507.908771 -119.659502 
L 511.732435 -123.105168 
L 515.556099 -126.226674 
L 519.379762 -128.939257 
L 523.203426 -131.181707 
L 527.02709 -132.907094 
L 530.850754 -134.084979 
L 534.674418 -134.711023 
L 538.498081 -134.811137 
L 542.321745 -134.432159 
L 546.145409 -133.62249 
L 549.969073 -132.413225 
L 553.792736 -130.809486 
L 557.6164 -128.796202 
L 561.440064 -126.355468 
L 565.263728 -123.486359 
L 569.087392 -120.21662 
L 572.911055 -116.60112 
L 576.734719 -112.710474 
L 580.558383 -108.617888 
L 584.382047 -104.390746 
L 588.20571 -100.089068 
L 592.029374 -95.769203 
L 595.853038 -91.488778 
L 599.676702 -87.30795 
L 603.500365 -83.283586 
L 607.324029 -79.457797 
L 611.147693 -75.847788 
L 614.971357 -72.445484 
L 618.795021 -69.229922 
L 622.618684 -66.185896 
L 626.442348 -63.316422 
L 630.266012 -60.640239 
L 634.089676 -58.176732 
L 637.913339 -55.930105 
L 641.737003 -53.884483 
L 645.560667 -52.012304 
L 649.384331 -50.288567 
L 653.207995 -48.700925 
L 657.031658 -47.250888 
L 660.855322 -45.948014 
L 664.678986 -44.801466 
L 668.50265 -43.812192 
L 672.326313 -42.967952 
L 676.149977 -42.243686 
L 679.973641 -41.608538 
L 683.797305 -41.036697 
L 687.620968 -40.515557 
L 691.444632 -40.045844 
L 695.268296 -39.634316 
L 699.09196 -39.284871 
L 702.915624 -38.99405 
L 706.739287 -38.752488 
L 710.562951 -38.549128 
L 714.386615 -38.373905 
L 718.210279 -38.217467 
L 722.033942 -38.070331 
L 725.857606 -37.924224 
L 729.68127 -37.774984 
L 733.504934 -37.623802 
L 737.328598 -37.475413 
L 741.152261 -37.335488 
L 744.975925 -37.209741 
L 748.799589 -37.104086 
L 752.623253 -37.02356 
L 756.446916 -36.969715 
L 760.27058 -36.938802 
L 764.094244 -36.922678 
L 767.917908 -36.911906 
L 771.741571 -36.898944 
L 775.565235 -36.879886 
L 779.388899 -36.854585 
L 783.212563 -36.825711 
L 787.036227 -36.797238 
L 790.85989 -36.772799 
L 794.683554 -36.754475 
L 798.507218 -36.742455 
L 802.330882 -36.735554 
L 806.154545 -36.732084 
L 806.154545 -36.732119 
L 806.154545 -36.732119 
L 802.330882 -36.735638 
L 798.507218 -36.742656 
L 794.683554 -36.75495 
L 790.85989 -36.773893 
L 787.036227 -36.799652 
L 783.212563 -36.830753 
L 779.388899 -36.86447 
L 775.565235 -36.897977 
L 771.741571 -36.929754 
L 767.917908 -36.960644 
L 764.094244 -36.994235 
L 760.27058 -37.03628 
L 756.446916 -37.092945 
L 752.623253 -37.168214 
L 748.799589 -37.261912 
L 744.975925 -37.370037 
L 741.152261 -37.487402 
L 737.328598 -37.610261 
L 733.504934 -37.736637 
L 729.68127 -37.864982 
L 725.857606 -37.99401 
L 722.033942 -38.124705 
L 718.210279 -38.2621 
L 714.386615 -38.414421 
L 710.562951 -38.590731 
L 706.739287 -38.800069 
L 702.915624 -39.05256 
L 699.09196 -39.359683 
L 695.268296 -39.731363 
L 691.444632 -40.171439 
L 687.620968 -40.675977 
L 683.797305 -41.237719 
L 679.973641 -41.855145 
L 676.149977 -42.540061 
L 672.326313 -43.317743 
L 668.50265 -44.218933 
L 664.678986 -45.268967 
L 660.855322 -46.480594 
L 657.031658 -47.853359 
L 653.207995 -49.37839 
L 649.384331 -51.046198 
L 645.560667 -52.855327 
L 641.737003 -54.818544 
L 637.913339 -56.962012 
L 634.089676 -59.315294 
L 630.266012 -61.896811 
L 626.442348 -64.704793 
L 622.618684 -67.721493 
L 618.795021 -70.92864 
L 614.971357 -74.32271 
L 611.147693 -77.918086 
L 607.324029 -81.735405 
L 603.500365 -85.783428 
L 599.676702 -90.046638 
L 595.853038 -94.485125 
L 592.029374 -99.044067 
L 588.20571 -103.664705 
L 584.382047 -108.290055 
L 580.558383 -112.86393 
L 576.734719 -117.326417 
L 572.911055 -121.610539 
L 569.087392 -125.643928 
L 565.263728 -129.357121 
L 561.440064 -132.696528 
L 557.6164 -135.635726 
L 553.792736 -138.177189 
L 549.969073 -140.341072 
L 546.145409 -142.145997 
L 542.321745 -143.592103 
L 538.498081 -144.655124 
L 534.674418 -145.294089 
L 530.850754 -145.468478 
L 527.02709 -145.155591 
L 523.203426 -144.358394 
L 519.379762 -143.10122 
L 515.556099 -141.421772 
L 511.732435 -139.371965 
L 507.908771 -137.03059 
L 504.085107 -134.516295 
L 500.261444 -131.985628 
L 496.43778 -129.611906 
L 492.614116 -127.554334 
L 488.790452 -125.93066 
L 484.966788 -124.801447 
L 481.143125 -124.167836 
L 477.319461 -123.982077 
L 473.495797 -124.169678 
L 469.672133 -124.660605 
L 465.84847 -125.421944 
L 462.024806 -126.47738 
L 458.201142 -127.898449 
L 454.377478 -129.766681 
L 450.553815 -132.127725 
L 446.730151 -134.96796 
L 442.906487 -138.229372 
L 439.082823 -141.85084 
L 435.259159 -145.806657 
L 431.435496 -150.118232 
L 427.611832 -154.835874 
L 423.788168 -160.007956 
L 419.964504 -165.660492 
L 416.140841 -171.797823 
L 412.317177 -178.415537 
L 408.493513 -185.507734 
L 404.669849 -193.060525 
L 400.846185 -201.04059 
L 397.022522 -209.392637 
L 393.198858 -218.047223 
L 389.375194 -226.926251 
L 385.55153 -235.9366 
L 381.727867 -244.962203 
L 377.904203 -253.878365 
L 374.080539 -262.596287 
L 370.256875 -271.108994 
L 366.433212 -279.491587 
L 362.609548 -287.839528 
L 358.785884 -296.186426 
L 354.96222 -304.466208 
L 351.138556 -312.54104 
L 347.314893 -320.247731 
L 343.491229 -327.398083 
L 339.667565 -333.727882 
L 335.843901 -338.863662 
L 332.020238 -342.380684 
L 328.196574 -343.944254 
L 324.37291 -343.438126 
L 320.549246 -340.981715 
L 316.725582 -336.828874 
L 312.901919 -331.235574 
L 309.078255 -324.391672 
L 305.254591 -316.435184 
L 301.430927 -307.4915 
L 297.607264 -297.679504 
L 293.7836 -287.090234 
L 289.959936 -275.791951 
L 286.136272 -263.889193 
L 282.312608 -251.591038 
L 278.488945 -239.210727 
L 274.665281 -227.070389 
L 270.841617 -215.372247 
L 267.017953 -204.132728 
L 263.19429 -193.22605 
L 259.370626 -182.500314 
L 255.546962 -171.886217 
L 251.723298 -161.441395 
L 247.899635 -151.326468 
L 244.075971 -141.742977 
L 240.252307 -132.864516 
L 236.428643 -124.782278 
L 232.604979 -117.481805 
L 228.781316 -110.860817 
L 224.957652 -104.778691 
L 221.133988 -99.109682 
L 217.310324 -93.774163 
L 213.486661 -88.742069 
L 209.662997 -84.019031 
L 205.839333 -79.627221 
L 202.015669 -75.587431 
L 198.192005 -71.906045 
L 194.368342 -68.569927 
L 190.544678 -65.54987 
L 186.721014 -62.809644 
L 182.89735 -60.31556 
L 179.073687 -58.042046 
L 175.250023 -55.971408 
L 171.426359 -54.089748 
L 167.602695 -52.383512 
L 163.779032 -50.839545 
L 159.955368 -49.446987 
L 156.131704 -48.197049 
L 152.30804 -47.079649 
L 148.484376 -46.080293 
L 144.660713 -45.180727 
L 140.837049 -44.363114 
L 137.013385 -43.614736 
L 133.189721 -42.930604 
L 129.366058 -42.313018 
L 125.542394 -41.76876 
L 121.71873 -41.307067 
L 117.895066 -40.941988 
L 114.071402 -40.696845 
L 110.247739 -40.599558 
L 106.424075 -40.658972 
L 102.600411 -40.830757 
L 98.776747 -41.002523 
L 94.953084 -41.025083 
L 91.12942 -40.782598 
L 87.305756 -40.256415 
L 83.482092 -39.535431 
L 79.658429 -38.766321 
L 75.834765 -38.082057 
L 72.011101 -37.555586 
L 68.187437 -37.196398 
L 64.363773 -36.974851 
L 60.54011 -36.849592 
L 56.716446 -36.784205 
L 52.892782 -36.752666 
L 49.069118 -36.73865 
L 45.245455 -36.732927 
z
" style="stroke: #ffffff"/>
    </defs>
    <g>
     <use xlink:href="#m7f90f544f0" x="0" y="459.729687" style="fill: #55a868; fill-opacity: 0.75; stroke: #ffffff"/>
    </g>
   </g>
   <g id="FillBetweenPolyCollection_6">
    <defs>
     <path id="m47e342485d" d="M 45.245455 -36.732928 
L 45.245455 -36.732927 
L 49.069118 -36.73865 
L 52.892782 -36.752666 
L 56.716446 -36.784205 
L 60.54011 -36.849592 
L 64.363773 -36.974851 
L 68.187437 -37.196398 
L 72.011101 -37.555586 
L 75.834765 -38.082057 
L 79.658429 -38.766321 
L 83.482092 -39.535431 
L 87.305756 -40.256415 
L 91.12942 -40.782598 
L 94.953084 -41.025083 
L 98.776747 -41.002523 
L 102.600411 -40.830757 
L 106.424075 -40.658972 
L 110.247739 -40.599558 
L 114.071402 -40.696845 
L 117.895066 -40.941988 
L 121.71873 -41.307067 
L 125.542394 -41.76876 
L 129.366058 -42.313018 
L 133.189721 -42.930604 
L 137.013385 -43.614736 
L 140.837049 -44.363114 
L 144.660713 -45.180727 
L 148.484376 -46.080293 
L 152.30804 -47.079649 
L 156.131704 -48.197049 
L 159.955368 -49.446987 
L 163.779032 -50.839545 
L 167.602695 -52.383512 
L 171.426359 -54.089748 
L 175.250023 -55.971408 
L 179.073687 -58.042046 
L 182.89735 -60.31556 
L 186.721014 -62.809644 
L 190.544678 -65.54987 
L 194.368342 -68.569927 
L 198.192005 -71.906045 
L 202.015669 -75.587431 
L 205.839333 -79.627221 
L 209.662997 -84.019031 
L 213.486661 -88.742069 
L 217.310324 -93.774163 
L 221.133988 -99.109682 
L 224.957652 -104.778691 
L 228.781316 -110.860817 
L 232.604979 -117.481805 
L 236.428643 -124.782278 
L 240.252307 -132.864516 
L 244.075971 -141.742977 
L 247.899635 -151.326468 
L 251.723298 -161.441395 
L 255.546962 -171.886217 
L 259.370626 -182.500314 
L 263.19429 -193.22605 
L 267.017953 -204.132728 
L 270.841617 -215.372247 
L 274.665281 -227.070389 
L 278.488945 -239.210727 
L 282.312608 -251.591038 
L 286.136272 -263.889193 
L 289.959936 -275.791951 
L 293.7836 -287.090234 
L 297.607264 -297.679504 
L 301.430927 -307.4915 
L 305.254591 -316.435184 
L 309.078255 -324.391672 
L 312.901919 -331.235574 
L 316.725582 -336.828874 
L 320.549246 -340.981715 
L 324.37291 -343.438126 
L 328.196574 -343.944254 
L 332.020238 -342.380684 
L 335.843901 -338.863662 
L 339.667565 -333.727882 
L 343.491229 -327.398083 
L 347.314893 -320.247731 
L 351.138556 -312.54104 
L 354.96222 -304.466208 
L 358.785884 -296.186426 
L 362.609548 -287.839528 
L 366.433212 -279.491587 
L 370.256875 -271.108994 
L 374.080539 -262.596287 
L 377.904203 -253.878365 
L 381.727867 -244.962203 
L 385.55153 -235.9366 
L 389.375194 -226.926251 
L 393.198858 -218.047223 
L 397.022522 -209.392637 
L 400.846185 -201.04059 
L 404.669849 -193.060525 
L 408.493513 -185.507734 
L 412.317177 -178.415537 
L 416.140841 -171.797823 
L 419.964504 -165.660492 
L 423.788168 -160.007956 
L 427.611832 -154.835874 
L 431.435496 -150.118232 
L 435.259159 -145.806657 
L 439.082823 -141.85084 
L 442.906487 -138.229372 
L 446.730151 -134.96796 
L 450.553815 -132.127725 
L 454.377478 -129.766681 
L 458.201142 -127.898449 
L 462.024806 -126.47738 
L 465.84847 -125.421944 
L 469.672133 -124.660605 
L 473.495797 -124.169678 
L 477.319461 -123.982077 
L 481.143125 -124.167836 
L 484.966788 -124.801447 
L 488.790452 -125.93066 
L 492.614116 -127.554334 
L 496.43778 -129.611906 
L 500.261444 -131.985628 
L 504.085107 -134.516295 
L 507.908771 -137.03059 
L 511.732435 -139.371965 
L 515.556099 -141.421772 
L 519.379762 -143.10122 
L 523.203426 -144.358394 
L 527.02709 -145.155591 
L 530.850754 -145.468478 
L 534.674418 -145.294089 
L 538.498081 -144.655124 
L 542.321745 -143.592103 
L 546.145409 -142.145997 
L 549.969073 -140.341072 
L 553.792736 -138.177189 
L 557.6164 -135.635726 
L 561.440064 -132.696528 
L 565.263728 -129.357121 
L 569.087392 -125.643928 
L 572.911055 -121.610539 
L 576.734719 -117.326417 
L 580.558383 -112.86393 
L 584.382047 -108.290055 
L 588.20571 -103.664705 
L 592.029374 -99.044067 
L 595.853038 -94.485125 
L 599.676702 -90.046638 
L 603.500365 -85.783428 
L 607.324029 -81.735405 
L 611.147693 -77.918086 
L 614.971357 -74.32271 
L 618.795021 -70.92864 
L 622.618684 -67.721493 
L 626.442348 -64.704793 
L 630.266012 -61.896811 
L 634.089676 -59.315294 
L 637.913339 -56.962012 
L 641.737003 -54.818544 
L 645.560667 -52.855327 
L 649.384331 -51.046198 
L 653.207995 -49.37839 
L 657.031658 -47.853359 
L 660.855322 -46.480594 
L 664.678986 -45.268967 
L 668.50265 -44.218933 
L 672.326313 -43.317743 
L 676.149977 -42.540061 
L 679.973641 -41.855145 
L 683.797305 -41.237719 
L 687.620968 -40.675977 
L 691.444632 -40.171439 
L 695.268296 -39.731363 
L 699.09196 -39.359683 
L 702.915624 -39.05256 
L 706.739287 -38.800069 
L 710.562951 -38.590731 
L 714.386615 -38.414421 
L 718.210279 -38.2621 
L 722.033942 -38.124705 
L 725.857606 -37.99401 
L 729.68127 -37.864982 
L 733.504934 -37.736637 
L 737.328598 -37.610261 
L 741.152261 -37.487402 
L 744.975925 -37.370037 
L 748.799589 -37.261912 
L 752.623253 -37.168214 
L 756.446916 -37.092945 
L 760.27058 -37.03628 
L 764.094244 -36.994235 
L 767.917908 -36.960644 
L 771.741571 -36.929754 
L 775.565235 -36.897977 
L 779.388899 -36.86447 
L 783.212563 -36.830753 
L 787.036227 -36.799652 
L 790.85989 -36.773893 
L 794.683554 -36.75495 
L 798.507218 -36.742656 
L 802.330882 -36.735638 
L 806.154545 -36.732119 
L 806.154545 -36.732439 
L 806.154545 -36.732439 
L 802.330882 -36.736507 
L 798.507218 -36.744754 
L 794.683554 -36.75945 
L 790.85989 -36.782479 
L 787.036227 -36.814224 
L 783.212563 -36.852771 
L 779.388899 -36.894112 
L 775.565235 -36.933591 
L 771.741571 -36.968034 
L 767.917908 -36.997609 
L 764.094244 -37.026515 
L 760.27058 -37.062055 
L 756.446916 -37.112098 
L 752.623253 -37.181845 
L 748.799589 -37.271661 
L 744.975925 -37.377636 
L 741.152261 -37.494592 
L 737.328598 -37.618945 
L 733.504934 -37.749009 
L 729.68127 -37.883402 
L 725.857606 -38.020538 
L 722.033942 -38.160537 
L 718.210279 -38.307424 
L 714.386615 -38.469108 
L 710.562951 -38.655635 
L 706.739287 -38.87802 
L 702.915624 -39.14798 
L 699.09196 -39.476626 
L 695.268296 -39.871035 
L 691.444632 -40.3309 
L 687.620968 -40.849103 
L 683.797305 -41.418044 
L 679.973641 -42.039075 
L 676.149977 -42.729009 
L 672.326313 -43.518733 
L 668.50265 -44.444218 
L 664.678986 -45.535299 
L 660.855322 -46.80808 
L 657.031658 -48.263282 
L 653.207995 -49.889772 
L 649.384331 -51.672128 
L 645.560667 -53.600959 
L 641.737003 -55.682033 
L 637.913339 -57.937757 
L 634.089676 -60.397453 
L 630.266012 -63.081529 
L 626.442348 -65.991432 
L 622.618684 -69.114527 
L 618.795021 -72.441361 
L 614.971357 -75.982068 
L 611.147693 -79.768595 
L 607.324029 -83.840224 
L 603.500365 -88.222189 
L 599.676702 -92.910609 
L 595.853038 -97.869884 
L 592.029374 -103.039051 
L 588.20571 -108.34022 
L 584.382047 -113.686461 
L 580.558383 -118.991131 
L 576.734719 -124.179274 
L 572.911055 -129.196218 
L 569.087392 -134.007363 
L 565.263728 -138.589767 
L 561.440064 -142.923456 
L 557.6164 -146.989244 
L 553.792736 -150.771234 
L 549.969073 -154.256399 
L 546.145409 -157.427292 
L 542.321745 -160.252423 
L 538.498081 -162.683319 
L 534.674418 -164.663861 
L 530.850754 -166.148667 
L 527.02709 -167.119075 
L 523.203426 -167.584934 
L 519.379762 -167.571231 
L 515.556099 -167.103344 
L 511.732435 -166.208232 
L 507.908771 -164.934846 
L 504.085107 -163.377668 
L 500.261444 -161.681938 
L 496.43778 -160.022436 
L 492.614116 -158.566021 
L 488.790452 -157.436401 
L 484.966788 -156.69542 
L 481.143125 -156.345131 
L 477.319461 -156.345759 
L 473.495797 -156.640862 
L 469.672133 -157.183123 
L 465.84847 -157.95698 
L 462.024806 -158.99146 
L 458.201142 -160.352577 
L 454.377478 -162.111723 
L 450.553815 -164.305295 
L 446.730151 -166.913458 
L 442.906487 -169.875378 
L 439.082823 -173.130972 
L 435.259159 -176.659274 
L 431.435496 -180.487617 
L 427.611832 -184.669034 
L 423.788168 -189.248183 
L 419.964504 -194.241162 
L 416.140841 -199.639026 
L 412.317177 -205.42329 
L 408.493513 -211.574339 
L 404.669849 -218.066534 
L 400.846185 -224.861419 
L 397.022522 -231.912001 
L 393.198858 -239.17473 
L 389.375194 -246.611697 
L 385.55153 -254.173613 
L 381.727867 -261.779746 
L 377.904203 -269.325833 
L 374.080539 -276.731082 
L 370.256875 -283.992387 
L 366.433212 -291.19209 
L 362.609548 -298.437786 
L 358.785884 -305.775402 
L 354.96222 -313.144808 
L 351.138556 -320.404495 
L 347.314893 -327.379995 
L 343.491229 -333.869303 
L 339.667565 -339.596071 
L 335.843901 -344.177585 
L 332.020238 -347.181806 
L 328.196574 -348.267828 
L 324.37291 -347.314704 
L 320.549246 -344.439753 
L 316.725582 -339.897688 
L 312.901919 -333.947211 
L 309.078255 -326.780891 
L 305.254591 -318.537941 
L 301.430927 -309.343091 
L 297.607264 -299.313215 
L 293.7836 -288.536455 
L 289.959936 -277.07721 
L 286.136272 -265.035073 
L 282.312608 -252.613754 
L 278.488945 -240.122145 
L 274.665281 -227.880255 
L 270.841617 -216.090337 
L 267.017953 -204.769751 
L 263.19429 -193.793239 
L 259.370626 -183.008622 
L 255.546962 -172.345925 
L 251.723298 -161.862027 
L 247.899635 -151.716303 
L 244.075971 -142.107792 
L 240.252307 -133.20626 
L 236.428643 -125.098922 
L 232.604979 -117.768982 
L 228.781316 -111.114513 
L 224.957652 -104.997468 
L 221.133988 -99.295382 
L 217.310324 -93.931167 
L 213.486661 -88.875928 
L 209.662997 -84.135182 
L 205.839333 -79.730054 
L 202.015669 -75.679722 
L 198.192005 -71.988825 
L 194.368342 -68.642856 
L 190.544678 -65.612053 
L 186.721014 -62.860554 
L 182.89735 -60.355681 
L 179.073687 -58.072974 
L 175.250023 -55.995462 
L 171.426359 -54.109366 
L 167.602695 -52.400724 
L 163.779032 -50.855693 
L 159.955368 -49.462678 
L 156.131704 -48.212266 
L 152.30804 -47.093954 
L 148.484376 -46.093076 
L 144.660713 -45.191463 
L 140.837049 -44.371561 
L 137.013385 -43.621015 
L 133.189721 -42.935166 
L 129.366058 -42.316537 
L 125.542394 -41.772031 
L 121.71873 -41.310918 
L 117.895066 -40.947208 
L 114.071402 -40.704076 
L 110.247739 -40.609146 
L 106.424075 -40.670808 
L 102.600411 -40.844194 
L 98.776747 -41.016457 
L 94.953084 -41.038222 
L 91.12942 -40.79383 
L 87.305756 -40.265099 
L 83.482092 -39.541497 
L 79.658429 -38.770147 
L 75.834765 -38.084234 
L 72.011101 -37.556705 
L 68.187437 -37.196917 
L 64.363773 -36.975069 
L 60.54011 -36.849674 
L 56.716446 -36.784233 
L 52.892782 -36.752674 
L 49.069118 -36.738652 
L 45.245455 -36.732928 
z
" style="stroke: #ffffff"/>
    </defs>
    <g>
     <use xlink:href="#m47e342485d" x="0" y="459.729687" style="fill: #dd8452; fill-opacity: 0.75; stroke: #ffffff"/>
    </g>
   </g>
   <g id="FillBetweenPolyCollection_7">
    <defs>
     <path id="maf71c245d0" d="M 45.245455 -36.732929 
L 45.245455 -36.732928 
L 49.069118 -36.738652 
L 52.892782 -36.752674 
L 56.716446 -36.784233 
L 60.54011 -36.849674 
L 64.363773 -36.975069 
L 68.187437 -37.196917 
L 72.011101 -37.556705 
L 75.834765 -38.084234 
L 79.658429 -38.770147 
L 83.482092 -39.541497 
L 87.305756 -40.265099 
L 91.12942 -40.79383 
L 94.953084 -41.038222 
L 98.776747 -41.016457 
L 102.600411 -40.844194 
L 106.424075 -40.670808 
L 110.247739 -40.609146 
L 114.071402 -40.704076 
L 117.895066 -40.947208 
L 121.71873 -41.310918 
L 125.542394 -41.772031 
L 129.366058 -42.316537 
L 133.189721 -42.935166 
L 137.013385 -43.621015 
L 140.837049 -44.371561 
L 144.660713 -45.191463 
L 148.484376 -46.093076 
L 152.30804 -47.093954 
L 156.131704 -48.212266 
L 159.955368 -49.462678 
L 163.779032 -50.855693 
L 167.602695 -52.400724 
L 171.426359 -54.109366 
L 175.250023 -55.995462 
L 179.073687 -58.072974 
L 182.89735 -60.355681 
L 186.721014 -62.860554 
L 190.544678 -65.612053 
L 194.368342 -68.642856 
L 198.192005 -71.988825 
L 202.015669 -75.679722 
L 205.839333 -79.730054 
L 209.662997 -84.135182 
L 213.486661 -88.875928 
L 217.310324 -93.931167 
L 221.133988 -99.295382 
L 224.957652 -104.997468 
L 228.781316 -111.114513 
L 232.604979 -117.768982 
L 236.428643 -125.098922 
L 240.252307 -133.20626 
L 244.075971 -142.107792 
L 247.899635 -151.716303 
L 251.723298 -161.862027 
L 255.546962 -172.345925 
L 259.370626 -183.008622 
L 263.19429 -193.793239 
L 267.017953 -204.769751 
L 270.841617 -216.090337 
L 274.665281 -227.880255 
L 278.488945 -240.122145 
L 282.312608 -252.613754 
L 286.136272 -265.035073 
L 289.959936 -277.07721 
L 293.7836 -288.536455 
L 297.607264 -299.313215 
L 301.430927 -309.343091 
L 305.254591 -318.537941 
L 309.078255 -326.780891 
L 312.901919 -333.947211 
L 316.725582 -339.897688 
L 320.549246 -344.439753 
L 324.37291 -347.314704 
L 328.196574 -348.267828 
L 332.020238 -347.181806 
L 335.843901 -344.177585 
L 339.667565 -339.596071 
L 343.491229 -333.869303 
L 347.314893 -327.379995 
L 351.138556 -320.404495 
L 354.96222 -313.144808 
L 358.785884 -305.775402 
L 362.609548 -298.437786 
L 366.433212 -291.19209 
L 370.256875 -283.992387 
L 374.080539 -276.731082 
L 377.904203 -269.325833 
L 381.727867 -261.779746 
L 385.55153 -254.173613 
L 389.375194 -246.611697 
L 393.198858 -239.17473 
L 397.022522 -231.912001 
L 400.846185 -224.861419 
L 404.669849 -218.066534 
L 408.493513 -211.574339 
L 412.317177 -205.42329 
L 416.140841 -199.639026 
L 419.964504 -194.241162 
L 423.788168 -189.248183 
L 427.611832 -184.669034 
L 431.435496 -180.487617 
L 435.259159 -176.659274 
L 439.082823 -173.130972 
L 442.906487 -169.875378 
L 446.730151 -166.913458 
L 450.553815 -164.305295 
L 454.377478 -162.111723 
L 458.201142 -160.352577 
L 462.024806 -158.99146 
L 465.84847 -157.95698 
L 469.672133 -157.183123 
L 473.495797 -156.640862 
L 477.319461 -156.345759 
L 481.143125 -156.345131 
L 484.966788 -156.69542 
L 488.790452 -157.436401 
L 492.614116 -158.566021 
L 496.43778 -160.022436 
L 500.261444 -161.681938 
L 504.085107 -163.377668 
L 507.908771 -164.934846 
L 511.732435 -166.208232 
L 515.556099 -167.103344 
L 519.379762 -167.571231 
L 523.203426 -167.584934 
L 527.02709 -167.119075 
L 530.850754 -166.148667 
L 534.674418 -164.663861 
L 538.498081 -162.683319 
L 542.321745 -160.252423 
L 546.145409 -157.427292 
L 549.969073 -154.256399 
L 553.792736 -150.771234 
L 557.6164 -146.989244 
L 561.440064 -142.923456 
L 565.263728 -138.589767 
L 569.087392 -134.007363 
L 572.911055 -129.196218 
L 576.734719 -124.179274 
L 580.558383 -118.991131 
L 584.382047 -113.686461 
L 588.20571 -108.34022 
L 592.029374 -103.039051 
L 595.853038 -97.869884 
L 599.676702 -92.910609 
L 603.500365 -88.222189 
L 607.324029 -83.840224 
L 611.147693 -79.768595 
L 614.971357 -75.982068 
L 618.795021 -72.441361 
L 622.618684 -69.114527 
L 626.442348 -65.991432 
L 630.266012 -63.081529 
L 634.089676 -60.397453 
L 637.913339 -57.937757 
L 641.737003 -55.682033 
L 645.560667 -53.600959 
L 649.384331 -51.672128 
L 653.207995 -49.889772 
L 657.031658 -48.263282 
L 660.855322 -46.80808 
L 664.678986 -45.535299 
L 668.50265 -44.444218 
L 672.326313 -43.518733 
L 676.149977 -42.729009 
L 679.973641 -42.039075 
L 683.797305 -41.418044 
L 687.620968 -40.849103 
L 691.444632 -40.3309 
L 695.268296 -39.871035 
L 699.09196 -39.476626 
L 702.915624 -39.14798 
L 706.739287 -38.87802 
L 710.562951 -38.655635 
L 714.386615 -38.469108 
L 718.210279 -38.307424 
L 722.033942 -38.160537 
L 725.857606 -38.020538 
L 729.68127 -37.883402 
L 733.504934 -37.749009 
L 737.328598 -37.618945 
L 741.152261 -37.494592 
L 744.975925 -37.377636 
L 748.799589 -37.271661 
L 752.623253 -37.181845 
L 756.446916 -37.112098 
L 760.27058 -37.062055 
L 764.094244 -37.026515 
L 767.917908 -36.997609 
L 771.741571 -36.968034 
L 775.565235 -36.933591 
L 779.388899 -36.894112 
L 783.212563 -36.852771 
L 787.036227 -36.814224 
L 790.85989 -36.782479 
L 794.683554 -36.75945 
L 798.507218 -36.744754 
L 802.330882 -36.736507 
L 806.154545 -36.732439 
L 806.154545 -36.733481 
L 806.154545 -36.733481 
L 802.330882 -36.738734 
L 798.507218 -36.749124 
L 794.683554 -36.767329 
L 790.85989 -36.795531 
L 787.036227 -36.834093 
L 783.212563 -36.880567 
L 779.388899 -36.929853 
L 775.565235 -36.975837 
L 771.741571 -37.013943 
L 767.917908 -37.04348 
L 764.094244 -37.068664 
L 760.27058 -37.097674 
L 756.446916 -37.139785 
L 752.623253 -37.201643 
L 748.799589 -37.284686 
L 744.975925 -37.385525 
L 741.152261 -37.499001 
L 737.328598 -37.621248 
L 733.504934 -37.750207 
L 729.68127 -37.884187 
L 725.857606 -38.021429 
L 722.033942 -38.162031 
L 718.210279 -38.310124 
L 714.386615 -38.4738 
L 710.562951 -38.663326 
L 706.739287 -38.889923 
L 702.915624 -39.165473 
L 699.09196 -39.501182 
L 695.268296 -39.904132 
L 691.444632 -40.373897 
L 687.620968 -40.903088 
L 683.797305 -41.48372 
L 679.973641 -42.116814 
L 676.149977 -42.819239 
L 672.326313 -43.622739 
L 668.50265 -44.565292 
L 664.678986 -45.679968 
L 660.855322 -46.987027 
L 657.031658 -48.491535 
L 653.207995 -50.18579 
L 649.384331 -52.055582 
L 645.560667 -54.089315 
L 641.737003 -56.286664 
L 637.913339 -58.661139 
L 634.089676 -61.233475 
L 630.266012 -64.020272 
L 626.442348 -67.027782 
L 622.618684 -70.257472 
L 618.795021 -73.719571 
L 614.971357 -77.442649 
L 611.147693 -81.469249 
L 607.324029 -85.838486 
L 603.500365 -90.566741 
L 599.676702 -95.638229 
L 595.853038 -101.008657 
L 592.029374 -106.615747 
L 588.20571 -112.388623 
L 584.382047 -118.253785 
L 580.558383 -124.14087 
L 576.734719 -129.990168 
L 572.911055 -135.758176 
L 569.087392 -141.416019 
L 565.263728 -146.941735 
L 561.440064 -152.314171 
L 557.6164 -157.514415 
L 553.792736 -162.531634 
L 549.969073 -167.364444 
L 546.145409 -172.013179 
L 542.321745 -176.467886 
L 538.498081 -180.702225 
L 534.674418 -184.680278 
L 530.850754 -188.373973 
L 527.02709 -191.779663 
L 523.203426 -194.921258 
L 519.379762 -197.838055 
L 515.556099 -200.570495 
L 511.732435 -203.161105 
L 507.908771 -205.674008 
L 504.085107 -208.216939 
L 500.261444 -210.944344 
L 496.43778 -214.033728 
L 492.614116 -217.646087 
L 488.790452 -221.889633 
L 484.966788 -226.801444 
L 481.143125 -232.350899 
L 477.319461 -238.459075 
L 473.495797 -245.024463 
L 469.672133 -251.948173 
L 465.84847 -259.155476 
L 462.024806 -266.608246 
L 458.201142 -274.298661 
L 454.377478 -282.220672 
L 450.553815 -290.333597 
L 446.730151 -298.544342 
L 442.906487 -306.724501 
L 439.082823 -314.752297 
L 435.259159 -322.550392 
L 431.435496 -330.095224 
L 427.611832 -337.396174 
L 423.788168 -344.464565 
L 419.964504 -351.296358 
L 416.140841 -357.876686 
L 412.317177 -364.193877 
L 408.493513 -370.244842 
L 404.669849 -376.027615 
L 400.846185 -381.534024 
L 397.022522 -386.755547 
L 393.198858 -391.69743 
L 389.375194 -396.381433 
L 385.55153 -400.826475 
L 381.727867 -405.023588 
L 377.904203 -408.937509 
L 374.080539 -412.547269 
L 370.256875 -415.894062 
L 366.433212 -419.082017 
L 362.609548 -422.210091 
L 358.785884 -425.27796 
L 354.96222 -428.139457 
L 351.138556 -430.53569 
L 347.314893 -432.166225 
L 343.491229 -432.729688 
L 339.667565 -431.915587 
L 335.843901 -429.400827 
L 332.020238 -424.913165 
L 328.196574 -418.35149 
L 324.37291 -409.873251 
L 320.549246 -399.862492 
L 316.725582 -388.783744 
L 312.901919 -377.019277 
L 309.078255 -364.79097 
L 305.254591 -352.185988 
L 301.430927 -339.223699 
L 297.607264 -325.896101 
L 293.7836 -312.176575 
L 289.959936 -298.043334 
L 286.136272 -283.543685 
L 282.312608 -268.857825 
L 278.488945 -254.289474 
L 274.665281 -240.161 
L 270.841617 -226.676505 
L 267.017953 -213.850452 
L 263.19429 -201.549034 
L 259.370626 -189.607069 
L 255.546962 -177.939183 
L 251.723298 -166.586373 
L 247.899635 -155.692872 
L 244.075971 -145.443787 
L 240.252307 -135.99616 
L 236.428643 -127.42561 
L 232.604979 -119.704912 
L 228.781316 -112.722966 
L 224.957652 -106.333735 
L 221.133988 -100.407639 
L 217.310324 -94.860938 
L 213.486661 -89.658247 
L 209.662997 -84.798746 
L 205.839333 -80.297585 
L 202.015669 -76.168665 
L 198.192005 -72.412314 
L 194.368342 -69.010824 
L 190.544678 -65.93229 
L 186.721014 -63.139547 
L 182.89735 -60.599113 
L 179.073687 -58.285897 
L 175.250023 -56.182258 
L 171.426359 -54.273675 
L 167.602695 -52.545491 
L 163.779032 -50.983342 
L 159.955368 -49.575352 
L 156.131704 -48.311994 
L 152.30804 -47.182664 
L 148.484376 -46.17247 
L 144.660713 -45.262832 
L 140.837049 -44.43567 
L 137.013385 -43.678131 
L 133.189721 -42.985232 
L 129.366058 -42.359426 
L 125.542394 -41.807783 
L 121.71873 -41.339885 
L 117.895066 -40.970074 
L 114.071402 -40.721764 
L 110.247739 -40.622659 
L 106.424075 -40.681078 
L 102.600411 -40.851983 
L 98.776747 -41.022326 
L 94.953084 -41.042573 
L 91.12942 -40.796962 
L 87.305756 -40.267263 
L 83.482092 -39.542918 
L 79.658429 -38.77103 
L 75.834765 -38.084752 
L 72.011101 -37.556992 
L 68.187437 -37.197067 
L 64.363773 -36.975143 
L 60.54011 -36.849709 
L 56.716446 -36.784249 
L 52.892782 -36.752681 
L 49.069118 -36.738655 
L 45.245455 -36.732929 
z
" style="stroke: #ffffff"/>
    </defs>
    <g>
     <use xlink:href="#maf71c245d0" x="0" y="459.729687" style="fill: #4c72b0; fill-opacity: 0.75; stroke: #ffffff"/>
    </g>
   </g>
   <g id="line2d_37">
    <path d="M 269.487975 423 
L 269.487975 7.2 
" style="fill: none; stroke-dasharray: 2.96,1.28; stroke-dashoffset: 0; stroke: #d3d3d3; stroke-width: 0.8"/>
   </g>
   <g id="line2d_38">
    <path d="M 454.374658 423 
L 454.374658 7.2 
" style="fill: none; stroke-dasharray: 2.96,1.28; stroke-dashoffset: 0; stroke: #d3d3d3; stroke-width: 0.8"/>
   </g>
   <g id="line2d_39">
    <path d="M 383.086228 423 
L 383.086228 7.2 
" style="fill: none; stroke-dasharray: 2.96,1.28; stroke-dashoffset: 0; stroke: #d3d3d3; stroke-width: 0.8"/>
   </g>
   <g id="line2d_40">
    <path d="M 7.2 423 
L 844.2 423 
" style="fill: none; stroke: #808080; stroke-width: 0.5; stroke-linecap: round"/>
   </g>
   <g id="text_12">
    <text style="font-size: 8px; font-family: 'Arial', 'DejaVu Sans', 'Liberation Sans', 'Bitstream Vera Sans', sans-serif; fill: #808080" transform="translate(275.741725 126.53675) rotate(-90)">International Poverty Line: $2.15</text>
   </g>
   <g id="text_13">
    <text style="font-size: 8px; font-family: 'Arial', 'DejaVu Sans', 'Liberation Sans', 'Bitstream Vera Sans', sans-serif; fill: #808080" transform="translate(460.100908 83.25175) rotate(-90)">World mean: $19.18</text>
   </g>
   <g id="text_14">
    <text style="font-size: 8px; font-family: 'Arial', 'DejaVu Sans', 'Liberation Sans', 'Bitstream Vera Sans', sans-serif; fill: #808080" transform="translate(388.812478 85.02925) rotate(-90)">World median: $8.25</text>
   </g>
   <g id="legend_1">
    <g id="patch_3">
     <path d="M 683.8 212.006875 
L 861.440625 212.006875 
Q 863.440625 212.006875 863.440625 210.006875 
L 863.440625 97.36 
Q 863.440625 95.36 861.440625 95.36 
L 683.8 95.36 
Q 681.8 95.36 681.8 97.36 
L 681.8 210.006875 
Q 681.8 212.006875 683.8 212.006875 
z
" style="fill: #ffffff; opacity: 0.8; stroke: #cccccc; stroke-linejoin: miter"/>
    </g>
    <g id="text_15">
     <text style="font-size: 10px; font-family: 'Arial', 'DejaVu Sans', 'Liberation Sans', 'Bitstream Vera Sans', sans-serif; text-anchor: start; fill: #262626" x="756.776563" y="106.517812" transform="rotate(-0 756.776563 106.517812)">Region</text>
    </g>
    <g id="patch_4">
     <path d="M 685.8 120.780312 
L 705.8 120.780312 
L 705.8 113.780312 
L 685.8 113.780312 
z
" style="fill: #4c72b0; fill-opacity: 0.75; stroke: #ffffff; stroke-linejoin: miter"/>
    </g>
    <g id="text_16">
     <text style="font-size: 10px; font-family: 'Arial', 'DejaVu Sans', 'Liberation Sans', 'Bitstream Vera Sans', sans-serif; text-anchor: start; fill: #262626" x="713.8" y="120.780312" transform="rotate(-0 713.8 120.780312)">East Asia and Pacific</text>
    </g>
    <g id="patch_5">
     <path d="M 685.8 135.0475 
L 705.8 135.0475 
L 705.8 128.0475 
L 685.8 128.0475 
z
" style="fill: #dd8452; fill-opacity: 0.75; stroke: #ffffff; stroke-linejoin: miter"/>
    </g>
    <g id="text_17">
     <text style="font-size: 10px; font-family: 'Arial', 'DejaVu Sans', 'Liberation Sans', 'Bitstream Vera Sans', sans-serif; text-anchor: start; fill: #262626" x="713.8" y="135.0475" transform="rotate(-0 713.8 135.0475)">Europe and Central Asia</text>
    </g>
    <g id="patch_6">
     <path d="M 685.8 149.192812 
L 705.8 149.192812 
L 705.8 142.192812 
L 685.8 142.192812 
z
" style="fill: #55a868; fill-opacity: 0.75; stroke: #ffffff; stroke-linejoin: miter"/>
    </g>
    <g id="text_18">
     <text style="font-size: 10px; font-family: 'Arial', 'DejaVu Sans', 'Liberation Sans', 'Bitstream Vera Sans', sans-serif; text-anchor: start; fill: #262626" x="713.8" y="149.192812" transform="rotate(-0 713.8 149.192812)">Latin America and the Caribbean</text>
    </g>
    <g id="patch_7">
     <path d="M 685.8 163.338125 
L 705.8 163.338125 
L 705.8 156.338125 
L 685.8 156.338125 
z
" style="fill: #c44e52; fill-opacity: 0.75; stroke: #ffffff; stroke-linejoin: miter"/>
    </g>
    <g id="text_19">
     <text style="font-size: 10px; font-family: 'Arial', 'DejaVu Sans', 'Liberation Sans', 'Bitstream Vera Sans', sans-serif; text-anchor: start; fill: #262626" x="713.8" y="163.338125" transform="rotate(-0 713.8 163.338125)">Middle East and North Africa</text>
    </g>
    <g id="patch_8">
     <path d="M 685.8 177.611562 
L 705.8 177.611562 
L 705.8 170.611562 
L 685.8 170.611562 
z
" style="fill: #8172b3; fill-opacity: 0.75; stroke: #ffffff; stroke-linejoin: miter"/>
    </g>
    <g id="text_20">
     <text style="font-size: 10px; font-family: 'Arial', 'DejaVu Sans', 'Liberation Sans', 'Bitstream Vera Sans', sans-serif; text-anchor: start; fill: #262626" x="713.8" y="177.611562" transform="rotate(-0 713.8 177.611562)">Other high income countries</text>
    </g>
    <g id="patch_9">
     <path d="M 685.8 191.874062 
L 705.8 191.874062 
L 705.8 184.874062 
L 685.8 184.874062 
z
" style="fill: #937860; fill-opacity: 0.75; stroke: #ffffff; stroke-linejoin: miter"/>
    </g>
    <g id="text_21">
     <text style="font-size: 10px; font-family: 'Arial', 'DejaVu Sans', 'Liberation Sans', 'Bitstream Vera Sans', sans-serif; text-anchor: start; fill: #262626" x="713.8" y="191.874062" transform="rotate(-0 713.8 191.874062)">South Asia</text>
    </g>
    <g id="patch_10">
     <path d="M 685.8 206.019375 
L 705.8 206.019375 
L 705.8 199.019375 
L 685.8 199.019375 
z
" style="fill: #da8bc3; fill-opacity: 0.75; stroke: #ffffff; stroke-linejoin: miter"/>
    </g>
    <g id="text_22">
     <text style="font-size: 10px; font-family: 'Arial', 'DejaVu Sans', 'Liberation Sans', 'Bitstream Vera Sans', sans-serif; text-anchor: start; fill: #262626" x="713.8" y="206.019375" transform="rotate(-0 713.8 206.019375)">Sub-Saharan Africa</text>
    </g>
   </g>
  </g>
 </g>
</svg>
