<?xml version="1.0" encoding="utf-8" standalone="no"?>
<!DOCTYPE svg PUBLIC "-//W3C//DTD SVG 1.1//EN"
  "http://www.w3.org/Graphics/SVG/1.1/DTD/svg11.dtd">
<svg xmlns:xlink="http://www.w3.org/1999/xlink" width="953.453125pt" height="459.729687pt" viewBox="0 0 953.453125 459.729687" xmlns="http://www.w3.org/2000/svg" version="1.1">
 <metadata>
  <rdf:RDF xmlns:dc="http://purl.org/dc/elements/1.1/" xmlns:cc="http://creativecommons.org/ns#" xmlns:rdf="http://www.w3.org/1999/02/22-rdf-syntax-ns#">
   <cc:Work>
    <dc:type rdf:resource="http://purl.org/dc/dcmitype/StillImage"/>
    <dc:date>2026-05-21T14:04:41.244998</dc:date>
    <dc:format>image/svg+xml</dc:format>
    <dc:creator>
     <cc:Agent>
      <dc:title>Matplotlib v3.10.1, https://matplotlib.org/</dc:title>
     </cc:Agent>
    </dc:creator>
   </cc:Work>
  </rdf:RDF>
 </metadata>
 <defs>
  <style type="text/css">*{stroke-linejoin: round; stroke-linecap: butt}</style>
 </defs>
 <g id="figure_1">
  <g id="patch_1">
   <path d="M 0 459.729687 
L 953.453125 459.729687 
L 953.453125 0 
L 0 0 
z
" style="fill: #ffffff"/>
  </g>
  <g id="axes_1">
   <g id="patch_2">
    <path d="M 7.2 423 
L 844.2 423 
L 844.2 7.2 
L 7.2 7.2 
z
" style="fill: #ffffff"/>
   </g>
   <g id="matplotlib.axis_1">
    <g id="xtick_1">
     <g id="line2d_1">
      <defs>
       <path id="m3e5aba840d" d="M 0 0 
L 0 3.5 
" style="stroke: #262626; stroke-width: 0.8"/>
      </defs>
      <g>
       <use xlink:href="#m3e5aba840d" x="190.165181" y="423" style="fill: #262626; stroke: #262626; stroke-width: 0.8"/>
      </g>
     </g>
     <g id="text_1">
      <text style="font-size: 10px; font-family: 'Arial', 'DejaVu Sans', 'Liberation Sans', 'Bitstream Vera Sans', sans-serif; text-anchor: middle; fill: #262626" x="190.165181" y="437.157812" transform="rotate(-0 190.165181 437.157812)">$1</text>
     </g>
    </g>
    <g id="xtick_2">
     <g id="line2d_2">
      <g>
       <use xlink:href="#m3e5aba840d" x="253.351093" y="423" style="fill: #262626; stroke: #262626; stroke-width: 0.8"/>
      </g>
     </g>
     <g id="text_2">
      <text style="font-size: 10px; font-family: 'Arial', 'DejaVu Sans', 'Liberation Sans', 'Bitstream Vera Sans', sans-serif; text-anchor: middle; fill: #262626" x="253.351093" y="437.157812" transform="rotate(-0 253.351093 437.157812)">$2</text>
     </g>
    </g>
    <g id="xtick_3">
     <g id="line2d_3">
      <g>
       <use xlink:href="#m3e5aba840d" x="336.878324" y="423" style="fill: #262626; stroke: #262626; stroke-width: 0.8"/>
      </g>
     </g>
     <g id="text_3">
      <text style="font-size: 10px; font-family: 'Arial', 'DejaVu Sans', 'Liberation Sans', 'Bitstream Vera Sans', sans-serif; text-anchor: middle; fill: #262626" x="336.878324" y="437.157812" transform="rotate(-0 336.878324 437.157812)">$5</text>
     </g>
    </g>
    <g id="xtick_4">
     <g id="line2d_4">
      <g>
       <use xlink:href="#m3e5aba840d" x="400.064235" y="423" style="fill: #262626; stroke: #262626; stroke-width: 0.8"/>
      </g>
     </g>
     <g id="text_4">
      <text style="font-size: 10px; font-family: 'Arial', 'DejaVu Sans', 'Liberation Sans', 'Bitstream Vera Sans', sans-serif; text-anchor: middle; fill: #262626" x="400.064235" y="437.157812" transform="rotate(-0 400.064235 437.157812)">$10</text>
     </g>
    </g>
    <g id="xtick_5">
     <g id="line2d_5">
      <g>
       <use xlink:href="#m3e5aba840d" x="463.250147" y="423" style="fill: #262626; stroke: #262626; stroke-width: 0.8"/>
      </g>
     </g>
     <g id="text_5">
      <text style="font-size: 10px; font-family: 'Arial', 'DejaVu Sans', 'Liberation Sans', 'Bitstream Vera Sans', sans-serif; text-anchor: middle; fill: #262626" x="463.250147" y="437.157812" transform="rotate(-0 463.250147 437.157812)">$20</text>
     </g>
    </g>
    <g id="xtick_6">
     <g id="line2d_6">
      <g>
       <use xlink:href="#m3e5aba840d" x="546.777378" y="423" style="fill: #262626; stroke: #262626; stroke-width: 0.8"/>
      </g>
     </g>
     <g id="text_6">
      <text style="font-size: 10px; font-family: 'Arial', 'DejaVu Sans', 'Liberation Sans', 'Bitstream Vera Sans', sans-serif; text-anchor: middle; fill: #262626" x="546.777378" y="437.157812" transform="rotate(-0 546.777378 437.157812)">$50</text>
     </g>
    </g>
    <g id="xtick_7">
     <g id="line2d_7">
      <g>
       <use xlink:href="#m3e5aba840d" x="609.963289" y="423" style="fill: #262626; stroke: #262626; stroke-width: 0.8"/>
      </g>
     </g>
     <g id="text_7">
      <text style="font-size: 10px; font-family: 'Arial', 'DejaVu Sans', 'Liberation Sans', 'Bitstream Vera Sans', sans-serif; text-anchor: middle; fill: #262626" x="609.963289" y="437.157812" transform="rotate(-0 609.963289 437.157812)">$100</text>
     </g>
    </g>
    <g id="xtick_8">
     <g id="line2d_8">
      <g>
       <use xlink:href="#m3e5aba840d" x="673.1492" y="423" style="fill: #262626; stroke: #262626; stroke-width: 0.8"/>
      </g>
     </g>
     <g id="text_8">
      <text style="font-size: 10px; font-family: 'Arial', 'DejaVu Sans', 'Liberation Sans', 'Bitstream Vera Sans', sans-serif; text-anchor: middle; fill: #262626" x="673.1492" y="437.157812" transform="rotate(-0 673.1492 437.157812)">$200</text>
     </g>
    </g>
    <g id="xtick_9">
     <g id="line2d_9">
      <g>
       <use xlink:href="#m3e5aba840d" x="756.676432" y="423" style="fill: #262626; stroke: #262626; stroke-width: 0.8"/>
      </g>
     </g>
     <g id="text_9">
      <text style="font-size: 10px; font-family: 'Arial', 'DejaVu Sans', 'Liberation Sans', 'Bitstream Vera Sans', sans-serif; text-anchor: middle; fill: #262626" x="756.676432" y="437.157812" transform="rotate(-0 756.676432 437.157812)">$500</text>
     </g>
    </g>
    <g id="xtick_10">
     <g id="line2d_10">
      <g>
       <use xlink:href="#m3e5aba840d" x="819.862343" y="423" style="fill: #262626; stroke: #262626; stroke-width: 0.8"/>
      </g>
     </g>
     <g id="text_10">
      <text style="font-size: 10px; font-family: 'Arial', 'DejaVu Sans', 'Liberation Sans', 'Bitstream Vera Sans', sans-serif; text-anchor: middle; fill: #262626" x="819.862343" y="437.157812" transform="rotate(-0 819.862343 437.157812)">$1000</text>
     </g>
    </g>
    <g id="xtick_11">
     <g id="line2d_11">
      <defs>
       <path id="m654513a547" d="M 0 0 
L 0 2 
" style="stroke: #262626; stroke-width: 0.6"/>
      </defs>
      <g>
       <use xlink:href="#m654513a547" x="43.452039" y="423" style="fill: #262626; stroke: #262626; stroke-width: 0.6"/>
      </g>
     </g>
    </g>
    <g id="xtick_12">
     <g id="line2d_12">
      <g>
       <use xlink:href="#m654513a547" x="80.413428" y="423" style="fill: #262626; stroke: #262626; stroke-width: 0.6"/>
      </g>
     </g>
    </g>
    <g id="xtick_13">
     <g id="line2d_13">
      <g>
       <use xlink:href="#m654513a547" x="106.63795" y="423" style="fill: #262626; stroke: #262626; stroke-width: 0.6"/>
      </g>
     </g>
    </g>
    <g id="xtick_14">
     <g id="line2d_14">
      <g>
       <use xlink:href="#m654513a547" x="126.97927" y="423" style="fill: #262626; stroke: #262626; stroke-width: 0.6"/>
      </g>
     </g>
    </g>
    <g id="xtick_15">
     <g id="line2d_15">
      <g>
       <use xlink:href="#m654513a547" x="143.599339" y="423" style="fill: #262626; stroke: #262626; stroke-width: 0.6"/>
      </g>
     </g>
    </g>
    <g id="xtick_16">
     <g id="line2d_16">
      <g>
       <use xlink:href="#m654513a547" x="157.651407" y="423" style="fill: #262626; stroke: #262626; stroke-width: 0.6"/>
      </g>
     </g>
    </g>
    <g id="xtick_17">
     <g id="line2d_17">
      <g>
       <use xlink:href="#m654513a547" x="169.823861" y="423" style="fill: #262626; stroke: #262626; stroke-width: 0.6"/>
      </g>
     </g>
    </g>
    <g id="xtick_18">
     <g id="line2d_18">
      <g>
       <use xlink:href="#m654513a547" x="180.560728" y="423" style="fill: #262626; stroke: #262626; stroke-width: 0.6"/>
      </g>
     </g>
    </g>
    <g id="xtick_19">
     <g id="line2d_19">
      <g>
       <use xlink:href="#m654513a547" x="290.312481" y="423" style="fill: #262626; stroke: #262626; stroke-width: 0.6"/>
      </g>
     </g>
    </g>
    <g id="xtick_20">
     <g id="line2d_20">
      <g>
       <use xlink:href="#m654513a547" x="316.537004" y="423" style="fill: #262626; stroke: #262626; stroke-width: 0.6"/>
      </g>
     </g>
    </g>
    <g id="xtick_21">
     <g id="line2d_21">
      <g>
       <use xlink:href="#m654513a547" x="353.498393" y="423" style="fill: #262626; stroke: #262626; stroke-width: 0.6"/>
      </g>
     </g>
    </g>
    <g id="xtick_22">
     <g id="line2d_22">
      <g>
       <use xlink:href="#m654513a547" x="367.55046" y="423" style="fill: #262626; stroke: #262626; stroke-width: 0.6"/>
      </g>
     </g>
    </g>
    <g id="xtick_23">
     <g id="line2d_23">
      <g>
       <use xlink:href="#m654513a547" x="379.722915" y="423" style="fill: #262626; stroke: #262626; stroke-width: 0.6"/>
      </g>
     </g>
    </g>
    <g id="xtick_24">
     <g id="line2d_24">
      <g>
       <use xlink:href="#m654513a547" x="390.459781" y="423" style="fill: #262626; stroke: #262626; stroke-width: 0.6"/>
      </g>
     </g>
    </g>
    <g id="xtick_25">
     <g id="line2d_25">
      <g>
       <use xlink:href="#m654513a547" x="500.211535" y="423" style="fill: #262626; stroke: #262626; stroke-width: 0.6"/>
      </g>
     </g>
    </g>
    <g id="xtick_26">
     <g id="line2d_26">
      <g>
       <use xlink:href="#m654513a547" x="526.436058" y="423" style="fill: #262626; stroke: #262626; stroke-width: 0.6"/>
      </g>
     </g>
    </g>
    <g id="xtick_27">
     <g id="line2d_27">
      <g>
       <use xlink:href="#m654513a547" x="563.397446" y="423" style="fill: #262626; stroke: #262626; stroke-width: 0.6"/>
      </g>
     </g>
    </g>
    <g id="xtick_28">
     <g id="line2d_28">
      <g>
       <use xlink:href="#m654513a547" x="577.449514" y="423" style="fill: #262626; stroke: #262626; stroke-width: 0.6"/>
      </g>
     </g>
    </g>
    <g id="xtick_29">
     <g id="line2d_29">
      <g>
       <use xlink:href="#m654513a547" x="589.621969" y="423" style="fill: #262626; stroke: #262626; stroke-width: 0.6"/>
      </g>
     </g>
    </g>
    <g id="xtick_30">
     <g id="line2d_30">
      <g>
       <use xlink:href="#m654513a547" x="600.358835" y="423" style="fill: #262626; stroke: #262626; stroke-width: 0.6"/>
      </g>
     </g>
    </g>
    <g id="xtick_31">
     <g id="line2d_31">
      <g>
       <use xlink:href="#m654513a547" x="710.110589" y="423" style="fill: #262626; stroke: #262626; stroke-width: 0.6"/>
      </g>
     </g>
    </g>
    <g id="xtick_32">
     <g id="line2d_32">
      <g>
       <use xlink:href="#m654513a547" x="736.335112" y="423" style="fill: #262626; stroke: #262626; stroke-width: 0.6"/>
      </g>
     </g>
    </g>
    <g id="xtick_33">
     <g id="line2d_33">
      <g>
       <use xlink:href="#m654513a547" x="773.2965" y="423" style="fill: #262626; stroke: #262626; stroke-width: 0.6"/>
      </g>
     </g>
    </g>
    <g id="xtick_34">
     <g id="line2d_34">
      <g>
       <use xlink:href="#m654513a547" x="787.348568" y="423" style="fill: #262626; stroke: #262626; stroke-width: 0.6"/>
      </g>
     </g>
    </g>
    <g id="xtick_35">
     <g id="line2d_35">
      <g>
       <use xlink:href="#m654513a547" x="799.521023" y="423" style="fill: #262626; stroke: #262626; stroke-width: 0.6"/>
      </g>
     </g>
    </g>
    <g id="xtick_36">
     <g id="line2d_36">
      <g>
       <use xlink:href="#m654513a547" x="810.257889" y="423" style="fill: #262626; stroke: #262626; stroke-width: 0.6"/>
      </g>
     </g>
    </g>
    <g id="text_11">
     <text style="font-size: 10px; font-family: 'Arial', 'DejaVu Sans', 'Liberation Sans', 'Bitstream Vera Sans', sans-serif; text-anchor: middle; fill: #262626" x="425.7" y="450.425" transform="rotate(-0 425.7 450.425)">Income or consumption (day)</text>
    </g>
   </g>
   <g id="matplotlib.axis_2"/>
   <g id="FillBetweenPolyCollection_1">
    <defs>
     <path id="m914183d97a" d="M 45.245455 -36.735149 
L 45.245455 -36.729687 
L 49.069118 -36.729687 
L 52.892782 -36.729687 
L 56.716446 -36.729687 
L 60.54011 -36.729687 
L 64.363773 -36.729687 
L 68.187437 -36.729687 
L 72.011101 -36.729687 
L 75.834765 -36.729687 
L 79.658429 -36.729687 
L 83.482092 -36.729687 
L 87.305756 -36.729687 
L 91.12942 -36.729687 
L 94.953084 -36.729687 
L 98.776747 -36.729687 
L 102.600411 -36.729687 
L 106.424075 -36.729687 
L 110.247739 -36.729687 
L 114.071402 -36.729687 
L 117.895066 -36.729687 
L 121.71873 -36.729687 
L 125.542394 -36.729687 
L 129.366058 -36.729687 
L 133.189721 -36.729687 
L 137.013385 -36.729687 
L 140.837049 -36.729687 
L 144.660713 -36.729687 
L 148.484376 -36.729687 
L 152.30804 -36.729687 
L 156.131704 -36.729687 
L 159.955368 -36.729687 
L 163.779032 -36.729687 
L 167.602695 -36.729687 
L 171.426359 -36.729687 
L 175.250023 -36.729687 
L 179.073687 -36.729687 
L 182.89735 -36.729687 
L 186.721014 -36.729687 
L 190.544678 -36.729687 
L 194.368342 -36.729687 
L 198.192005 -36.729687 
L 202.015669 -36.729687 
L 205.839333 -36.729687 
L 209.662997 -36.729687 
L 213.486661 -36.729687 
L 217.310324 -36.729687 
L 221.133988 -36.729687 
L 224.957652 -36.729687 
L 228.781316 -36.729687 
L 232.604979 -36.729687 
L 236.428643 -36.729687 
L 240.252307 -36.729687 
L 244.075971 -36.729687 
L 247.899635 -36.729687 
L 251.723298 -36.729687 
L 255.546962 -36.729687 
L 259.370626 -36.729687 
L 263.19429 -36.729687 
L 267.017953 -36.729687 
L 270.841617 -36.729687 
L 274.665281 -36.729687 
L 278.488945 -36.729687 
L 282.312608 -36.729687 
L 286.136272 -36.729687 
L 289.959936 -36.729687 
L 293.7836 -36.729687 
L 297.607264 -36.729687 
L 301.430927 -36.729687 
L 305.254591 -36.729687 
L 309.078255 -36.729687 
L 312.901919 -36.729687 
L 316.725582 -36.729687 
L 320.549246 -36.729687 
L 324.37291 -36.729687 
L 328.196574 -36.729687 
L 332.020238 -36.729687 
L 335.843901 -36.729687 
L 339.667565 -36.729687 
L 343.491229 -36.729687 
L 347.314893 -36.729687 
L 351.138556 -36.729687 
L 354.96222 -36.729687 
L 358.785884 -36.729687 
L 362.609548 -36.729687 
L 366.433212 -36.729687 
L 370.256875 -36.729687 
L 374.080539 -36.729687 
L 377.904203 -36.729687 
L 381.727867 -36.729687 
L 385.55153 -36.729687 
L 389.375194 -36.729687 
L 393.198858 -36.729687 
L 397.022522 -36.729687 
L 400.846185 -36.729687 
L 404.669849 -36.729687 
L 408.493513 -36.729687 
L 412.317177 -36.729687 
L 416.140841 -36.729687 
L 419.964504 -36.729687 
L 423.788168 -36.729687 
L 427.611832 -36.729687 
L 431.435496 -36.729687 
L 435.259159 -36.729687 
L 439.082823 -36.729687 
L 442.906487 -36.729687 
L 446.730151 -36.729687 
L 450.553815 -36.729687 
L 454.377478 -36.729687 
L 458.201142 -36.729687 
L 462.024806 -36.729687 
L 465.84847 -36.729687 
L 469.672133 -36.729687 
L 473.495797 -36.729687 
L 477.319461 -36.729687 
L 481.143125 -36.729687 
L 484.966788 -36.729687 
L 488.790452 -36.729687 
L 492.614116 -36.729687 
L 496.43778 -36.729687 
L 500.261444 -36.729687 
L 504.085107 -36.729687 
L 507.908771 -36.729687 
L 511.732435 -36.729687 
L 515.556099 -36.729687 
L 519.379762 -36.729687 
L 523.203426 -36.729687 
L 527.02709 -36.729687 
L 530.850754 -36.729687 
L 534.674418 -36.729687 
L 538.498081 -36.729687 
L 542.321745 -36.729687 
L 546.145409 -36.729687 
L 549.969073 -36.729687 
L 553.792736 -36.729687 
L 557.6164 -36.729687 
L 561.440064 -36.729687 
L 565.263728 -36.729687 
L 569.087392 -36.729687 
L 572.911055 -36.729687 
L 576.734719 -36.729687 
L 580.558383 -36.729687 
L 584.382047 -36.729687 
L 588.20571 -36.729687 
L 592.029374 -36.729687 
L 595.853038 -36.729687 
L 599.676702 -36.729687 
L 603.500365 -36.729687 
L 607.324029 -36.729687 
L 611.147693 -36.729687 
L 614.971357 -36.729687 
L 618.795021 -36.729687 
L 622.618684 -36.729687 
L 626.442348 -36.729687 
L 630.266012 -36.729687 
L 634.089676 -36.729687 
L 637.913339 -36.729687 
L 641.737003 -36.729687 
L 645.560667 -36.729687 
L 649.384331 -36.729687 
L 653.207995 -36.729687 
L 657.031658 -36.729687 
L 660.855322 -36.729687 
L 664.678986 -36.729687 
L 668.50265 -36.729687 
L 672.326313 -36.729687 
L 676.149977 -36.729687 
L 679.973641 -36.729687 
L 683.797305 -36.729687 
L 687.620968 -36.729687 
L 691.444632 -36.729687 
L 695.268296 -36.729687 
L 699.09196 -36.729687 
L 702.915624 -36.729687 
L 706.739287 -36.729687 
L 710.562951 -36.729687 
L 714.386615 -36.729687 
L 718.210279 -36.729687 
L 722.033942 -36.729687 
L 725.857606 -36.729687 
L 729.68127 -36.729687 
L 733.504934 -36.729687 
L 737.328598 -36.729687 
L 741.152261 -36.729687 
L 744.975925 -36.729687 
L 748.799589 -36.729687 
L 752.623253 -36.729687 
L 756.446916 -36.729687 
L 760.27058 -36.729687 
L 764.094244 -36.729687 
L 767.917908 -36.729687 
L 771.741571 -36.729687 
L 775.565235 -36.729687 
L 779.388899 -36.729687 
L 783.212563 -36.729687 
L 787.036227 -36.729687 
L 790.85989 -36.729687 
L 794.683554 -36.729687 
L 798.507218 -36.729687 
L 802.330882 -36.729687 
L 806.154545 -36.729687 
L 806.154545 -36.729687 
L 806.154545 -36.729687 
L 802.330882 -36.729687 
L 798.507218 -36.729687 
L 794.683554 -36.729687 
L 790.85989 -36.729687 
L 787.036227 -36.729687 
L 783.212563 -36.729687 
L 779.388899 -36.729687 
L 775.565235 -36.729687 
L 771.741571 -36.729687 
L 767.917908 -36.729687 
L 764.094244 -36.729687 
L 760.27058 -36.729687 
L 756.446916 -36.729687 
L 752.623253 -36.729687 
L 748.799589 -36.729687 
L 744.975925 -36.729687 
L 741.152261 -36.729687 
L 737.328598 -36.729687 
L 733.504934 -36.729687 
L 729.68127 -36.729687 
L 725.857606 -36.729687 
L 722.033942 -36.729687 
L 718.210279 -36.729687 
L 714.386615 -36.729687 
L 710.562951 -36.729687 
L 706.739287 -36.729687 
L 702.915624 -36.729687 
L 699.09196 -36.729687 
L 695.268296 -36.729687 
L 691.444632 -36.729687 
L 687.620968 -36.729688 
L 683.797305 -36.729688 
L 679.973641 -36.729688 
L 676.149977 -36.729688 
L 672.326313 -36.729688 
L 668.50265 -36.729688 
L 664.678986 -36.729688 
L 660.855322 -36.729688 
L 657.031658 -36.729688 
L 653.207995 -36.729689 
L 649.384331 -36.729692 
L 645.560667 -36.729704 
L 641.737003 -36.729741 
L 637.913339 -36.729837 
L 634.089676 -36.730058 
L 630.266012 -36.730501 
L 626.442348 -36.731283 
L 622.618684 -36.732535 
L 618.795021 -36.734435 
L 614.971357 -36.737369 
L 611.147693 -36.742242 
L 607.324029 -36.75084 
L 603.500365 -36.765929 
L 599.676702 -36.790711 
L 595.853038 -36.827508 
L 592.029374 -36.87616 
L 588.20571 -36.933159 
L 584.382047 -36.992394 
L 580.558383 -37.047386 
L 576.734719 -37.093879 
L 572.911055 -37.131369 
L 569.087392 -37.162859 
L 565.263728 -37.193085 
L 561.440064 -37.226222 
L 557.6164 -37.264284 
L 553.792736 -37.307055 
L 549.969073 -37.353404 
L 546.145409 -37.402808 
L 542.321745 -37.455786 
L 538.498081 -37.512917 
L 534.674418 -37.573369 
L 530.850754 -37.634467 
L 527.02709 -37.693122 
L 523.203426 -37.748439 
L 519.379762 -37.803716 
L 515.556099 -37.866193 
L 511.732435 -37.944548 
L 507.908771 -38.045696 
L 504.085107 -38.172867 
L 500.261444 -38.325835 
L 496.43778 -38.50273 
L 492.614116 -38.702131 
L 488.790452 -38.924565 
L 484.966788 -39.173298 
L 481.143125 -39.45453 
L 477.319461 -39.776813 
L 473.495797 -40.149335 
L 469.672133 -40.579421 
L 465.84847 -41.070718 
L 462.024806 -41.624201 
L 458.201142 -42.24268 
L 454.377478 -42.936185 
L 450.553815 -43.722813 
L 446.730151 -44.62134 
L 442.906487 -45.638584 
L 439.082823 -46.761243 
L 435.259159 -47.961087 
L 431.435496 -49.212119 
L 427.611832 -50.506949 
L 423.788168 -51.859208 
L 419.964504 -53.291211 
L 416.140841 -54.818784 
L 412.317177 -56.44556 
L 408.493513 -58.168576 
L 404.669849 -59.987552 
L 400.846185 -61.908973 
L 397.022522 -63.941464 
L 393.198858 -66.086675 
L 389.375194 -68.335601 
L 385.55153 -70.678021 
L 381.727867 -73.120386 
L 377.904203 -75.694691 
L 374.080539 -78.442694 
L 370.256875 -81.379679 
L 366.433212 -84.463856 
L 362.609548 -87.599331 
L 358.785884 -90.676283 
L 354.96222 -93.620906 
L 351.138556 -96.419046 
L 347.314893 -99.100612 
L 343.491229 -101.703706 
L 339.667565 -104.247312 
L 335.843901 -106.725049 
L 332.020238 -109.112715 
L 328.196574 -111.377479 
L 324.37291 -113.482488 
L 320.549246 -115.386105 
L 316.725582 -117.038813 
L 312.901919 -118.385382 
L 309.078255 -119.379191 
L 305.254591 -120.004517 
L 301.430927 -120.290253 
L 297.607264 -120.300136 
L 293.7836 -120.100785 
L 289.959936 -119.725283 
L 286.136272 -119.153998 
L 282.312608 -118.324321 
L 278.488945 -117.162798 
L 274.665281 -115.618419 
L 270.841617 -113.677491 
L 267.017953 -111.358804 
L 263.19429 -108.704167 
L 259.370626 -105.775968 
L 255.546962 -102.656585 
L 251.723298 -99.437508 
L 247.899635 -96.198231 
L 244.075971 -92.989784 
L 240.252307 -89.835317 
L 236.428643 -86.743313 
L 232.604979 -83.718696 
L 228.781316 -80.764287 
L 224.957652 -77.87833 
L 221.133988 -75.057095 
L 217.310324 -72.303559 
L 213.486661 -69.634751 
L 209.662997 -67.079412 
L 205.839333 -64.664773 
L 202.015669 -62.40119 
L 198.192005 -60.277667 
L 194.368342 -58.273829 
L 190.544678 -56.379306 
L 186.721014 -54.60406 
L 182.89735 -52.971422 
L 179.073687 -51.500953 
L 175.250023 -50.195052 
L 171.426359 -49.03694 
L 167.602695 -47.997798 
L 163.779032 -47.047139 
L 159.955368 -46.162182 
L 156.131704 -45.333487 
L 152.30804 -44.564251 
L 148.484376 -43.862816 
L 144.660713 -43.232496 
L 140.837049 -42.665651 
L 137.013385 -42.145896 
L 133.189721 -41.655778 
L 129.366058 -41.183766 
L 125.542394 -40.726702 
L 121.71873 -40.288421 
L 117.895066 -39.877001 
L 114.071402 -39.502066 
L 110.247739 -39.172475 
L 106.424075 -38.894384 
L 102.600411 -38.669438 
L 98.776747 -38.492895 
L 94.953084 -38.352499 
L 91.12942 -38.229792 
L 87.305756 -38.104473 
L 83.482092 -37.960195 
L 79.658429 -37.789216 
L 75.834765 -37.594523 
L 72.011101 -37.389248 
L 68.187437 -37.193083 
L 64.363773 -37.025724 
L 60.54011 -36.89971 
L 56.716446 -36.816666 
L 52.892782 -36.769038 
L 49.069118 -36.745348 
L 45.245455 -36.735149 
z
" style="stroke: #ffffff"/>
    </defs>
    <g>
     <use xlink:href="#m914183d97a" x="0" y="459.729687" style="fill: #da8bc3; fill-opacity: 0.75; stroke: #ffffff"/>
    </g>
   </g>
   <g id="FillBetweenPolyCollection_2">
    <defs>
     <path id="m2e944c75cf" d="M 45.245455 -36.735149 
L 45.245455 -36.735149 
L 49.069118 -36.745348 
L 52.892782 -36.769038 
L 56.716446 -36.816666 
L 60.54011 -36.89971 
L 64.363773 -37.025724 
L 68.187437 -37.193083 
L 72.011101 -37.389248 
L 75.834765 -37.594523 
L 79.658429 -37.789216 
L 83.482092 -37.960195 
L 87.305756 -38.104473 
L 91.12942 -38.229792 
L 94.953084 -38.352499 
L 98.776747 -38.492895 
L 102.600411 -38.669438 
L 106.424075 -38.894384 
L 110.247739 -39.172475 
L 114.071402 -39.502066 
L 117.895066 -39.877001 
L 121.71873 -40.288421 
L 125.542394 -40.726702 
L 129.366058 -41.183766 
L 133.189721 -41.655778 
L 137.013385 -42.145896 
L 140.837049 -42.665651 
L 144.660713 -43.232496 
L 148.484376 -43.862816 
L 152.30804 -44.564251 
L 156.131704 -45.333487 
L 159.955368 -46.162182 
L 163.779032 -47.047139 
L 167.602695 -47.997798 
L 171.426359 -49.03694 
L 175.250023 -50.195052 
L 179.073687 -51.500953 
L 182.89735 -52.971422 
L 186.721014 -54.60406 
L 190.544678 -56.379306 
L 194.368342 -58.273829 
L 198.192005 -60.277667 
L 202.015669 -62.40119 
L 205.839333 -64.664773 
L 209.662997 -67.079412 
L 213.486661 -69.634751 
L 217.310324 -72.303559 
L 221.133988 -75.057095 
L 224.957652 -77.87833 
L 228.781316 -80.764287 
L 232.604979 -83.718696 
L 236.428643 -86.743313 
L 240.252307 -89.835317 
L 244.075971 -92.989784 
L 247.899635 -96.198231 
L 251.723298 -99.437508 
L 255.546962 -102.656585 
L 259.370626 -105.775968 
L 263.19429 -108.704167 
L 267.017953 -111.358804 
L 270.841617 -113.677491 
L 274.665281 -115.618419 
L 278.488945 -117.162798 
L 282.312608 -118.324321 
L 286.136272 -119.153998 
L 289.959936 -119.725283 
L 293.7836 -120.100785 
L 297.607264 -120.300136 
L 301.430927 -120.290253 
L 305.254591 -120.004517 
L 309.078255 -119.379191 
L 312.901919 -118.385382 
L 316.725582 -117.038813 
L 320.549246 -115.386105 
L 324.37291 -113.482488 
L 328.196574 -111.377479 
L 332.020238 -109.112715 
L 335.843901 -106.725049 
L 339.667565 -104.247312 
L 343.491229 -101.703706 
L 347.314893 -99.100612 
L 351.138556 -96.419046 
L 354.96222 -93.620906 
L 358.785884 -90.676283 
L 362.609548 -87.599331 
L 366.433212 -84.463856 
L 370.256875 -81.379679 
L 374.080539 -78.442694 
L 377.904203 -75.694691 
L 381.727867 -73.120386 
L 385.55153 -70.678021 
L 389.375194 -68.335601 
L 393.198858 -66.086675 
L 397.022522 -63.941464 
L 400.846185 -61.908973 
L 404.669849 -59.987552 
L 408.493513 -58.168576 
L 412.317177 -56.44556 
L 416.140841 -54.818784 
L 419.964504 -53.291211 
L 423.788168 -51.859208 
L 427.611832 -50.506949 
L 431.435496 -49.212119 
L 435.259159 -47.961087 
L 439.082823 -46.761243 
L 442.906487 -45.638584 
L 446.730151 -44.62134 
L 450.553815 -43.722813 
L 454.377478 -42.936185 
L 458.201142 -42.24268 
L 462.024806 -41.624201 
L 465.84847 -41.070718 
L 469.672133 -40.579421 
L 473.495797 -40.149335 
L 477.319461 -39.776813 
L 481.143125 -39.45453 
L 484.966788 -39.173298 
L 488.790452 -38.924565 
L 492.614116 -38.702131 
L 496.43778 -38.50273 
L 500.261444 -38.325835 
L 504.085107 -38.172867 
L 507.908771 -38.045696 
L 511.732435 -37.944548 
L 515.556099 -37.866193 
L 519.379762 -37.803716 
L 523.203426 -37.748439 
L 527.02709 -37.693122 
L 530.850754 -37.634467 
L 534.674418 -37.573369 
L 538.498081 -37.512917 
L 542.321745 -37.455786 
L 546.145409 -37.402808 
L 549.969073 -37.353404 
L 553.792736 -37.307055 
L 557.6164 -37.264284 
L 561.440064 -37.226222 
L 565.263728 -37.193085 
L 569.087392 -37.162859 
L 572.911055 -37.131369 
L 576.734719 -37.093879 
L 580.558383 -37.047386 
L 584.382047 -36.992394 
L 588.20571 -36.933159 
L 592.029374 -36.87616 
L 595.853038 -36.827508 
L 599.676702 -36.790711 
L 603.500365 -36.765929 
L 607.324029 -36.75084 
L 611.147693 -36.742242 
L 614.971357 -36.737369 
L 618.795021 -36.734435 
L 622.618684 -36.732535 
L 626.442348 -36.731283 
L 630.266012 -36.730501 
L 634.089676 -36.730058 
L 637.913339 -36.729837 
L 641.737003 -36.729741 
L 645.560667 -36.729704 
L 649.384331 -36.729692 
L 653.207995 -36.729689 
L 657.031658 -36.729688 
L 660.855322 -36.729688 
L 664.678986 -36.729688 
L 668.50265 -36.729688 
L 672.326313 -36.729688 
L 676.149977 -36.729688 
L 679.973641 -36.729688 
L 683.797305 -36.729688 
L 687.620968 -36.729688 
L 691.444632 -36.729687 
L 695.268296 -36.729687 
L 699.09196 -36.729687 
L 702.915624 -36.729687 
L 706.739287 -36.729687 
L 710.562951 -36.729687 
L 714.386615 -36.729687 
L 718.210279 -36.729687 
L 722.033942 -36.729687 
L 725.857606 -36.729687 
L 729.68127 -36.729687 
L 733.504934 -36.729687 
L 737.328598 -36.729687 
L 741.152261 -36.729687 
L 744.975925 -36.729687 
L 748.799589 -36.729687 
L 752.623253 -36.729687 
L 756.446916 -36.729687 
L 760.27058 -36.729687 
L 764.094244 -36.729687 
L 767.917908 -36.729687 
L 771.741571 -36.729687 
L 775.565235 -36.729687 
L 779.388899 -36.729687 
L 783.212563 -36.729687 
L 787.036227 -36.729687 
L 790.85989 -36.729687 
L 794.683554 -36.729687 
L 798.507218 -36.729687 
L 802.330882 -36.729687 
L 806.154545 -36.729687 
L 806.154545 -36.729687 
L 806.154545 -36.729687 
L 802.330882 -36.729687 
L 798.507218 -36.729687 
L 794.683554 -36.729687 
L 790.85989 -36.729687 
L 787.036227 -36.729687 
L 783.212563 -36.729687 
L 779.388899 -36.729687 
L 775.565235 -36.729687 
L 771.741571 -36.729687 
L 767.917908 -36.729687 
L 764.094244 -36.729687 
L 760.27058 -36.729687 
L 756.446916 -36.729687 
L 752.623253 -36.729687 
L 748.799589 -36.729687 
L 744.975925 -36.729687 
L 741.152261 -36.729687 
L 737.328598 -36.729687 
L 733.504934 -36.729687 
L 729.68127 -36.729687 
L 725.857606 -36.729687 
L 722.033942 -36.729687 
L 718.210279 -36.729687 
L 714.386615 -36.729687 
L 710.562951 -36.729687 
L 706.739287 -36.729687 
L 702.915624 -36.729687 
L 699.09196 -36.729687 
L 695.268296 -36.729687 
L 691.444632 -36.729687 
L 687.620968 -36.729688 
L 683.797305 -36.729688 
L 679.973641 -36.729688 
L 676.149977 -36.729688 
L 672.326313 -36.729688 
L 668.50265 -36.729688 
L 664.678986 -36.729688 
L 660.855322 -36.729688 
L 657.031658 -36.729688 
L 653.207995 -36.729689 
L 649.384331 -36.729692 
L 645.560667 -36.729704 
L 641.737003 -36.729741 
L 637.913339 -36.729837 
L 634.089676 -36.730058 
L 630.266012 -36.730501 
L 626.442348 -36.731283 
L 622.618684 -36.732535 
L 618.795021 -36.734435 
L 614.971357 -36.737369 
L 611.147693 -36.742242 
L 607.324029 -36.75084 
L 603.500365 -36.76593 
L 599.676702 -36.790717 
L 595.853038 -36.827531 
L 592.029374 -36.876232 
L 588.20571 -36.933354 
L 584.382047 -36.992857 
L 580.558383 -37.048359 
L 576.734719 -37.095712 
L 572.911055 -37.134512 
L 569.087392 -37.167844 
L 565.263728 -37.200561 
L 561.440064 -37.237102 
L 557.6164 -37.280069 
L 553.792736 -37.330231 
L 549.969073 -37.387587 
L 546.145409 -37.452274 
L 542.321745 -37.524364 
L 538.498081 -37.602817 
L 534.674418 -37.684802 
L 530.850754 -37.76649 
L 527.02709 -37.845411 
L 523.203426 -37.923471 
L 519.379762 -38.009194 
L 515.556099 -38.117834 
L 511.732435 -38.2686 
L 507.908771 -38.479297 
L 504.085107 -38.760166 
L 500.261444 -39.1105 
L 496.43778 -39.521888 
L 492.614116 -39.989386 
L 488.790452 -40.527994 
L 484.966788 -41.189052 
L 481.143125 -42.067791 
L 477.319461 -43.288374 
L 473.495797 -44.957671 
L 469.672133 -47.105098 
L 465.84847 -49.654134 
L 462.024806 -52.460523 
L 458.201142 -55.398509 
L 454.377478 -58.433817 
L 450.553815 -61.635889 
L 446.730151 -65.132276 
L 442.906487 -69.045496 
L 439.082823 -73.454474 
L 435.259159 -78.39652 
L 431.435496 -83.892883 
L 427.611832 -89.968688 
L 423.788168 -96.655774 
L 419.964504 -103.988424 
L 416.140841 -111.999873 
L 412.317177 -120.713933 
L 408.493513 -130.129695 
L 404.669849 -140.212367 
L 400.846185 -150.900485 
L 397.022522 -162.117913 
L 393.198858 -173.770853 
L 389.375194 -185.731506 
L 385.55153 -197.833609 
L 381.727867 -209.895211 
L 377.904203 -221.747929 
L 374.080539 -233.234354 
L 370.256875 -244.163856 
L 366.433212 -254.265569 
L 362.609548 -263.191455 
L 358.785884 -270.580188 
L 354.96222 -276.136642 
L 351.138556 -279.674808 
L 347.314893 -281.116152 
L 343.491229 -280.468777 
L 339.667565 -277.801771 
L 335.843901 -273.214356 
L 332.020238 -266.817448 
L 328.196574 -258.757949 
L 324.37291 -249.277077 
L 320.549246 -238.741066 
L 316.725582 -227.592614 
L 312.901919 -216.245378 
L 309.078255 -205.001316 
L 305.254591 -194.050832 
L 301.430927 -183.53844 
L 297.607264 -173.615996 
L 293.7836 -164.422017 
L 289.959936 -156.005878 
L 286.136272 -148.278898 
L 282.312608 -141.057841 
L 278.488945 -134.18615 
L 274.665281 -127.643324 
L 270.841617 -121.549721 
L 267.017953 -116.058765 
L 263.19429 -111.229723 
L 259.370626 -106.985432 
L 255.546962 -103.169144 
L 251.723298 -99.628773 
L 247.899635 -96.260835 
L 244.075971 -93.007696 
L 240.252307 -89.839781 
L 236.428643 -86.744278 
L 232.604979 -83.718877 
L 228.781316 -80.764316 
L 224.957652 -77.878334 
L 221.133988 -75.057095 
L 217.310324 -72.303559 
L 213.486661 -69.634751 
L 209.662997 -67.079412 
L 205.839333 -64.664773 
L 202.015669 -62.40119 
L 198.192005 -60.277667 
L 194.368342 -58.273829 
L 190.544678 -56.379306 
L 186.721014 -54.60406 
L 182.89735 -52.971422 
L 179.073687 -51.500953 
L 175.250023 -50.195052 
L 171.426359 -49.03694 
L 167.602695 -47.997798 
L 163.779032 -47.047139 
L 159.955368 -46.162182 
L 156.131704 -45.333487 
L 152.30804 -44.564251 
L 148.484376 -43.862816 
L 144.660713 -43.232496 
L 140.837049 -42.665651 
L 137.013385 -42.145896 
L 133.189721 -41.655778 
L 129.366058 -41.183766 
L 125.542394 -40.726702 
L 121.71873 -40.288421 
L 117.895066 -39.877001 
L 114.071402 -39.502066 
L 110.247739 -39.172475 
L 106.424075 -38.894384 
L 102.600411 -38.669438 
L 98.776747 -38.492895 
L 94.953084 -38.352499 
L 91.12942 -38.229792 
L 87.305756 -38.104473 
L 83.482092 -37.960195 
L 79.658429 -37.789216 
L 75.834765 -37.594523 
L 72.011101 -37.389248 
L 68.187437 -37.193083 
L 64.363773 -37.025724 
L 60.54011 -36.89971 
L 56.716446 -36.816666 
L 52.892782 -36.769038 
L 49.069118 -36.745348 
L 45.245455 -36.735149 
z
" style="stroke: #ffffff"/>
    </defs>
    <g>
     <use xlink:href="#m2e944c75cf" x="0" y="459.729687" style="fill: #937860; fill-opacity: 0.75; stroke: #ffffff"/>
    </g>
   </g>
   <g id="FillBetweenPolyCollection_3">
    <defs>
     <path id="mbab9e6e00f" d="M 45.245455 -36.735149 
L 45.245455 -36.735149 
L 49.069118 -36.745348 
L 52.892782 -36.769038 
L 56.716446 -36.816666 
L 60.54011 -36.89971 
L 64.363773 -37.025724 
L 68.187437 -37.193083 
L 72.011101 -37.389248 
L 75.834765 -37.594523 
L 79.658429 -37.789216 
L 83.482092 -37.960195 
L 87.305756 -38.104473 
L 91.12942 -38.229792 
L 94.953084 -38.352499 
L 98.776747 -38.492895 
L 102.600411 -38.669438 
L 106.424075 -38.894384 
L 110.247739 -39.172475 
L 114.071402 -39.502066 
L 117.895066 -39.877001 
L 121.71873 -40.288421 
L 125.542394 -40.726702 
L 129.366058 -41.183766 
L 133.189721 -41.655778 
L 137.013385 -42.145896 
L 140.837049 -42.665651 
L 144.660713 -43.232496 
L 148.484376 -43.862816 
L 152.30804 -44.564251 
L 156.131704 -45.333487 
L 159.955368 -46.162182 
L 163.779032 -47.047139 
L 167.602695 -47.997798 
L 171.426359 -49.03694 
L 175.250023 -50.195052 
L 179.073687 -51.500953 
L 182.89735 -52.971422 
L 186.721014 -54.60406 
L 190.544678 -56.379306 
L 194.368342 -58.273829 
L 198.192005 -60.277667 
L 202.015669 -62.40119 
L 205.839333 -64.664773 
L 209.662997 -67.079412 
L 213.486661 -69.634751 
L 217.310324 -72.303559 
L 221.133988 -75.057095 
L 224.957652 -77.878334 
L 228.781316 -80.764316 
L 232.604979 -83.718877 
L 236.428643 -86.744278 
L 240.252307 -89.839781 
L 244.075971 -93.007696 
L 247.899635 -96.260835 
L 251.723298 -99.628773 
L 255.546962 -103.169144 
L 259.370626 -106.985432 
L 263.19429 -111.229723 
L 267.017953 -116.058765 
L 270.841617 -121.549721 
L 274.665281 -127.643324 
L 278.488945 -134.18615 
L 282.312608 -141.057841 
L 286.136272 -148.278898 
L 289.959936 -156.005878 
L 293.7836 -164.422017 
L 297.607264 -173.615996 
L 301.430927 -183.53844 
L 305.254591 -194.050832 
L 309.078255 -205.001316 
L 312.901919 -216.245378 
L 316.725582 -227.592614 
L 320.549246 -238.741066 
L 324.37291 -249.277077 
L 328.196574 -258.757949 
L 332.020238 -266.817448 
L 335.843901 -273.214356 
L 339.667565 -277.801771 
L 343.491229 -280.468777 
L 347.314893 -281.116152 
L 351.138556 -279.674808 
L 354.96222 -276.136642 
L 358.785884 -270.580188 
L 362.609548 -263.191455 
L 366.433212 -254.265569 
L 370.256875 -244.163856 
L 374.080539 -233.234354 
L 377.904203 -221.747929 
L 381.727867 -209.895211 
L 385.55153 -197.833609 
L 389.375194 -185.731506 
L 393.198858 -173.770853 
L 397.022522 -162.117913 
L 400.846185 -150.900485 
L 404.669849 -140.212367 
L 408.493513 -130.129695 
L 412.317177 -120.713933 
L 416.140841 -111.999873 
L 419.964504 -103.988424 
L 423.788168 -96.655774 
L 427.611832 -89.968688 
L 431.435496 -83.892883 
L 435.259159 -78.39652 
L 439.082823 -73.454474 
L 442.906487 -69.045496 
L 446.730151 -65.132276 
L 450.553815 -61.635889 
L 454.377478 -58.433817 
L 458.201142 -55.398509 
L 462.024806 -52.460523 
L 465.84847 -49.654134 
L 469.672133 -47.105098 
L 473.495797 -44.957671 
L 477.319461 -43.288374 
L 481.143125 -42.067791 
L 484.966788 -41.189052 
L 488.790452 -40.527994 
L 492.614116 -39.989386 
L 496.43778 -39.521888 
L 500.261444 -39.1105 
L 504.085107 -38.760166 
L 507.908771 -38.479297 
L 511.732435 -38.2686 
L 515.556099 -38.117834 
L 519.379762 -38.009194 
L 523.203426 -37.923471 
L 527.02709 -37.845411 
L 530.850754 -37.76649 
L 534.674418 -37.684802 
L 538.498081 -37.602817 
L 542.321745 -37.524364 
L 546.145409 -37.452274 
L 549.969073 -37.387587 
L 553.792736 -37.330231 
L 557.6164 -37.280069 
L 561.440064 -37.237102 
L 565.263728 -37.200561 
L 569.087392 -37.167844 
L 572.911055 -37.134512 
L 576.734719 -37.095712 
L 580.558383 -37.048359 
L 584.382047 -36.992857 
L 588.20571 -36.933354 
L 592.029374 -36.876232 
L 595.853038 -36.827531 
L 599.676702 -36.790717 
L 603.500365 -36.76593 
L 607.324029 -36.75084 
L 611.147693 -36.742242 
L 614.971357 -36.737369 
L 618.795021 -36.734435 
L 622.618684 -36.732535 
L 626.442348 -36.731283 
L 630.266012 -36.730501 
L 634.089676 -36.730058 
L 637.913339 -36.729837 
L 641.737003 -36.729741 
L 645.560667 -36.729704 
L 649.384331 -36.729692 
L 653.207995 -36.729689 
L 657.031658 -36.729688 
L 660.855322 -36.729688 
L 664.678986 -36.729688 
L 668.50265 -36.729688 
L 672.326313 -36.729688 
L 676.149977 -36.729688 
L 679.973641 -36.729688 
L 683.797305 -36.729688 
L 687.620968 -36.729688 
L 691.444632 -36.729687 
L 695.268296 -36.729687 
L 699.09196 -36.729687 
L 702.915624 -36.729687 
L 706.739287 -36.729687 
L 710.562951 -36.729687 
L 714.386615 -36.729687 
L 718.210279 -36.729687 
L 722.033942 -36.729687 
L 725.857606 -36.729687 
L 729.68127 -36.729687 
L 733.504934 -36.729687 
L 737.328598 -36.729687 
L 741.152261 -36.729687 
L 744.975925 -36.729687 
L 748.799589 -36.729687 
L 752.623253 -36.729687 
L 756.446916 -36.729687 
L 760.27058 -36.729687 
L 764.094244 -36.729687 
L 767.917908 -36.729687 
L 771.741571 -36.729687 
L 775.565235 -36.729687 
L 779.388899 -36.729687 
L 783.212563 -36.729687 
L 787.036227 -36.729687 
L 790.85989 -36.729687 
L 794.683554 -36.729687 
L 798.507218 -36.729687 
L 802.330882 -36.729687 
L 806.154545 -36.729687 
L 806.154545 -36.729717 
L 806.154545 -36.729717 
L 802.330882 -36.729769 
L 798.507218 -36.729901 
L 794.683554 -36.730216 
L 790.85989 -36.730927 
L 787.036227 -36.732448 
L 783.212563 -36.735521 
L 779.388899 -36.741397 
L 775.565235 -36.752027 
L 771.741571 -36.770235 
L 767.917908 -36.799779 
L 764.094244 -36.845229 
L 760.27058 -36.911585 
L 756.446916 -37.003652 
L 752.623253 -37.125267 
L 748.799589 -37.278577 
L 744.975925 -37.463598 
L 741.152261 -37.678259 
L 737.328598 -37.918957 
L 733.504934 -38.181538 
L 729.68127 -38.462397 
L 725.857606 -38.759426 
L 722.033942 -39.072532 
L 718.210279 -39.403635 
L 714.386615 -39.756236 
L 710.562951 -40.134711 
L 706.739287 -40.543599 
L 702.915624 -40.987038 
L 699.09196 -41.468456 
L 695.268296 -41.990477 
L 691.444632 -42.554942 
L 687.620968 -43.162893 
L 683.797305 -43.814438 
L 679.973641 -44.508464 
L 676.149977 -45.2423 
L 672.326313 -46.011481 
L 668.50265 -46.80977 
L 664.678986 -47.629517 
L 660.855322 -48.462318 
L 657.031658 -49.299836 
L 653.207995 -50.134577 
L 649.384331 -50.960437 
L 645.560667 -51.772916 
L 641.737003 -52.56897 
L 637.913339 -53.346586 
L 634.089676 -54.104188 
L 630.266012 -54.840025 
L 626.442348 -55.551653 
L 622.618684 -56.235634 
L 618.795021 -56.887519 
L 614.971357 -57.502174 
L 611.147693 -58.074389 
L 607.324029 -58.599582 
L 603.500365 -59.074228 
L 599.676702 -59.49563 
L 595.853038 -59.860932 
L 592.029374 -60.165874 
L 588.20571 -60.404232 
L 584.382047 -60.568689 
L 580.558383 -60.652888 
L 576.734719 -60.653539 
L 572.911055 -60.571361 
L 569.087392 -60.410411 
L 565.263728 -60.176355 
L 561.440064 -59.874748 
L 557.6164 -59.510365 
L 553.792736 -59.087934 
L 549.969073 -58.61354 
L 546.145409 -58.095296 
L 542.321745 -57.542351 
L 538.498081 -56.962735 
L 534.674418 -56.361591 
L 530.850754 -55.74119 
L 527.02709 -55.102998 
L 523.203426 -54.450899 
L 519.379762 -53.794035 
L 515.556099 -53.147736 
L 511.732435 -52.531578 
L 507.908771 -51.964659 
L 504.085107 -51.459755 
L 500.261444 -51.019852 
L 496.43778 -50.640994 
L 492.614116 -50.32295 
L 488.790452 -50.085319 
L 484.966788 -49.983854 
L 481.143125 -50.118256 
L 477.319461 -50.61761 
L 473.495797 -51.594435 
L 469.672133 -53.084439 
L 465.84847 -55.017498 
L 462.024806 -57.254988 
L 458.201142 -59.675095 
L 454.377478 -62.245112 
L 450.553815 -65.033485 
L 446.730151 -68.164524 
L 442.906487 -71.755967 
L 439.082823 -75.88129 
L 435.259159 -80.572469 
L 431.435496 -85.846071 
L 427.611832 -91.723441 
L 423.788168 -98.233525 
L 419.964504 -105.408443 
L 416.140841 -113.279757 
L 412.317177 -121.869892 
L 408.493513 -131.176669 
L 404.669849 -141.164038 
L 400.846185 -151.769217 
L 397.022522 -162.914671 
L 393.198858 -174.505118 
L 389.375194 -186.41123 
L 385.55153 -198.465245 
L 381.727867 -210.483833 
L 377.904203 -222.297452 
L 374.080539 -233.747814 
L 370.256875 -244.643711 
L 366.433212 -254.713965 
L 362.609548 -263.610406 
L 358.785884 -270.971655 
L 354.96222 -276.50253 
L 351.138556 -280.01692 
L 347.314893 -281.436136 
L 343.491229 -280.768119 
L 339.667565 -278.081824 
L 335.843901 -273.4764 
L 332.020238 -267.062756 
L 328.196574 -258.987819 
L 324.37291 -249.492824 
L 320.549246 -238.943964 
L 316.725582 -227.783776 
L 312.901919 -216.425593 
L 309.078255 -205.170858 
L 305.254591 -194.209318 
L 301.430927 -183.684805 
L 297.607264 -173.748649 
L 293.7836 -164.539197 
L 289.959936 -156.106114 
L 286.136272 -148.361458 
L 282.312608 -141.123008 
L 278.488945 -134.235261 
L 274.665281 -127.678558 
L 270.841617 -121.573732 
L 267.017953 -116.074284 
L 263.19429 -111.239223 
L 259.370626 -106.990936 
L 255.546962 -103.172159 
L 251.723298 -99.630335 
L 247.899635 -96.2616 
L 244.075971 -93.00805 
L 240.252307 -89.839935 
L 236.428643 -86.744342 
L 232.604979 -83.718902 
L 228.781316 -80.764325 
L 224.957652 -77.878337 
L 221.133988 -75.057096 
L 217.310324 -72.303559 
L 213.486661 -69.634751 
L 209.662997 -67.079412 
L 205.839333 -64.664773 
L 202.015669 -62.40119 
L 198.192005 -60.277667 
L 194.368342 -58.273829 
L 190.544678 -56.379306 
L 186.721014 -54.60406 
L 182.89735 -52.971422 
L 179.073687 -51.500953 
L 175.250023 -50.195052 
L 171.426359 -49.03694 
L 167.602695 -47.997798 
L 163.779032 -47.047139 
L 159.955368 -46.162182 
L 156.131704 -45.333487 
L 152.30804 -44.564251 
L 148.484376 -43.862816 
L 144.660713 -43.232496 
L 140.837049 -42.665651 
L 137.013385 -42.145896 
L 133.189721 -41.655778 
L 129.366058 -41.183766 
L 125.542394 -40.726702 
L 121.71873 -40.288421 
L 117.895066 -39.877001 
L 114.071402 -39.502066 
L 110.247739 -39.172475 
L 106.424075 -38.894384 
L 102.600411 -38.669438 
L 98.776747 -38.492895 
L 94.953084 -38.352499 
L 91.12942 -38.229792 
L 87.305756 -38.104473 
L 83.482092 -37.960195 
L 79.658429 -37.789216 
L 75.834765 -37.594523 
L 72.011101 -37.389248 
L 68.187437 -37.193083 
L 64.363773 -37.025724 
L 60.54011 -36.89971 
L 56.716446 -36.816666 
L 52.892782 -36.769038 
L 49.069118 -36.745348 
L 45.245455 -36.735149 
z
" style="stroke: #ffffff"/>
    </defs>
    <g>
     <use xlink:href="#mbab9e6e00f" x="0" y="459.729687" style="fill: #8172b3; fill-opacity: 0.75; stroke: #ffffff"/>
    </g>
   </g>
   <g id="FillBetweenPolyCollection_4">
    <defs>
     <path id="m41ac664d83" d="M 45.245455 -36.735149 
L 45.245455 -36.735149 
L 49.069118 -36.745348 
L 52.892782 -36.769038 
L 56.716446 -36.816666 
L 60.54011 -36.89971 
L 64.363773 -37.025724 
L 68.187437 -37.193083 
L 72.011101 -37.389248 
L 75.834765 -37.594523 
L 79.658429 -37.789216 
L 83.482092 -37.960195 
L 87.305756 -38.104473 
L 91.12942 -38.229792 
L 94.953084 -38.352499 
L 98.776747 -38.492895 
L 102.600411 -38.669438 
L 106.424075 -38.894384 
L 110.247739 -39.172475 
L 114.071402 -39.502066 
L 117.895066 -39.877001 
L 121.71873 -40.288421 
L 125.542394 -40.726702 
L 129.366058 -41.183766 
L 133.189721 -41.655778 
L 137.013385 -42.145896 
L 140.837049 -42.665651 
L 144.660713 -43.232496 
L 148.484376 -43.862816 
L 152.30804 -44.564251 
L 156.131704 -45.333487 
L 159.955368 -46.162182 
L 163.779032 -47.047139 
L 167.602695 -47.997798 
L 171.426359 -49.03694 
L 175.250023 -50.195052 
L 179.073687 -51.500953 
L 182.89735 -52.971422 
L 186.721014 -54.60406 
L 190.544678 -56.379306 
L 194.368342 -58.273829 
L 198.192005 -60.277667 
L 202.015669 -62.40119 
L 205.839333 -64.664773 
L 209.662997 -67.079412 
L 213.486661 -69.634751 
L 217.310324 -72.303559 
L 221.133988 -75.057096 
L 224.957652 -77.878337 
L 228.781316 -80.764325 
L 232.604979 -83.718902 
L 236.428643 -86.744342 
L 240.252307 -89.839935 
L 244.075971 -93.00805 
L 247.899635 -96.2616 
L 251.723298 -99.630335 
L 255.546962 -103.172159 
L 259.370626 -106.990936 
L 263.19429 -111.239223 
L 267.017953 -116.074284 
L 270.841617 -121.573732 
L 274.665281 -127.678558 
L 278.488945 -134.235261 
L 282.312608 -141.123008 
L 286.136272 -148.361458 
L 289.959936 -156.106114 
L 293.7836 -164.539197 
L 297.607264 -173.748649 
L 301.430927 -183.684805 
L 305.254591 -194.209318 
L 309.078255 -205.170858 
L 312.901919 -216.425593 
L 316.725582 -227.783776 
L 320.549246 -238.943964 
L 324.37291 -249.492824 
L 328.196574 -258.987819 
L 332.020238 -267.062756 
L 335.843901 -273.4764 
L 339.667565 -278.081824 
L 343.491229 -280.768119 
L 347.314893 -281.436136 
L 351.138556 -280.01692 
L 354.96222 -276.50253 
L 358.785884 -270.971655 
L 362.609548 -263.610406 
L 366.433212 -254.713965 
L 370.256875 -244.643711 
L 374.080539 -233.747814 
L 377.904203 -222.297452 
L 381.727867 -210.483833 
L 385.55153 -198.465245 
L 389.375194 -186.41123 
L 393.198858 -174.505118 
L 397.022522 -162.914671 
L 400.846185 -151.769217 
L 404.669849 -141.164038 
L 408.493513 -131.176669 
L 412.317177 -121.869892 
L 416.140841 -113.279757 
L 419.964504 -105.408443 
L 423.788168 -98.233525 
L 427.611832 -91.723441 
L 431.435496 -85.846071 
L 435.259159 -80.572469 
L 439.082823 -75.88129 
L 442.906487 -71.755967 
L 446.730151 -68.164524 
L 450.553815 -65.033485 
L 454.377478 -62.245112 
L 458.201142 -59.675095 
L 462.024806 -57.254988 
L 465.84847 -55.017498 
L 469.672133 -53.084439 
L 473.495797 -51.594435 
L 477.319461 -50.61761 
L 481.143125 -50.118256 
L 484.966788 -49.983854 
L 488.790452 -50.085319 
L 492.614116 -50.32295 
L 496.43778 -50.640994 
L 500.261444 -51.019852 
L 504.085107 -51.459755 
L 507.908771 -51.964659 
L 511.732435 -52.531578 
L 515.556099 -53.147736 
L 519.379762 -53.794035 
L 523.203426 -54.450899 
L 527.02709 -55.102998 
L 530.850754 -55.74119 
L 534.674418 -56.361591 
L 538.498081 -56.962735 
L 542.321745 -57.542351 
L 546.145409 -58.095296 
L 549.969073 -58.61354 
L 553.792736 -59.087934 
L 557.6164 -59.510365 
L 561.440064 -59.874748 
L 565.263728 -60.176355 
L 569.087392 -60.410411 
L 572.911055 -60.571361 
L 576.734719 -60.653539 
L 580.558383 -60.652888 
L 584.382047 -60.568689 
L 588.20571 -60.404232 
L 592.029374 -60.165874 
L 595.853038 -59.860932 
L 599.676702 -59.49563 
L 603.500365 -59.074228 
L 607.324029 -58.599582 
L 611.147693 -58.074389 
L 614.971357 -57.502174 
L 618.795021 -56.887519 
L 622.618684 -56.235634 
L 626.442348 -55.551653 
L 630.266012 -54.840025 
L 634.089676 -54.104188 
L 637.913339 -53.346586 
L 641.737003 -52.56897 
L 645.560667 -51.772916 
L 649.384331 -50.960437 
L 653.207995 -50.134577 
L 657.031658 -49.299836 
L 660.855322 -48.462318 
L 664.678986 -47.629517 
L 668.50265 -46.80977 
L 672.326313 -46.011481 
L 676.149977 -45.2423 
L 679.973641 -44.508464 
L 683.797305 -43.814438 
L 687.620968 -43.162893 
L 691.444632 -42.554942 
L 695.268296 -41.990477 
L 699.09196 -41.468456 
L 702.915624 -40.987038 
L 706.739287 -40.543599 
L 710.562951 -40.134711 
L 714.386615 -39.756236 
L 718.210279 -39.403635 
L 722.033942 -39.072532 
L 725.857606 -38.759426 
L 729.68127 -38.462397 
L 733.504934 -38.181538 
L 737.328598 -37.918957 
L 741.152261 -37.678259 
L 744.975925 -37.463598 
L 748.799589 -37.278577 
L 752.623253 -37.125267 
L 756.446916 -37.003652 
L 760.27058 -36.911585 
L 764.094244 -36.845229 
L 767.917908 -36.799779 
L 771.741571 -36.770235 
L 775.565235 -36.752027 
L 779.388899 -36.741397 
L 783.212563 -36.735521 
L 787.036227 -36.732448 
L 790.85989 -36.730927 
L 794.683554 -36.730216 
L 798.507218 -36.729901 
L 802.330882 -36.729769 
L 806.154545 -36.729717 
L 806.154545 -36.729717 
L 806.154545 -36.729717 
L 802.330882 -36.729769 
L 798.507218 -36.729901 
L 794.683554 -36.730216 
L 790.85989 -36.730927 
L 787.036227 -36.732448 
L 783.212563 -36.735521 
L 779.388899 -36.741397 
L 775.565235 -36.752027 
L 771.741571 -36.770236 
L 767.917908 -36.799782 
L 764.094244 -36.845238 
L 760.27058 -36.911608 
L 756.446916 -37.003714 
L 752.623253 -37.12542 
L 748.799589 -37.278934 
L 744.975925 -37.464385 
L 741.152261 -37.67989 
L 737.328598 -37.922153 
L 733.504934 -38.187462 
L 729.68127 -38.472812 
L 725.857606 -38.776835 
L 722.033942 -39.100275 
L 718.210279 -39.445922 
L 714.386615 -39.818091 
L 710.562951 -40.221847 
L 706.739287 -40.662236 
L 702.915624 -41.143702 
L 699.09196 -41.669783 
L 695.268296 -42.243077 
L 691.444632 -42.865333 
L 687.620968 -43.537554 
L 683.797305 -44.259965 
L 679.973641 -45.031823 
L 676.149977 -45.851097 
L 672.326313 -46.714186 
L 668.50265 -47.615808 
L 664.678986 -48.549184 
L 660.855322 -49.506509 
L 657.031658 -50.479618 
L 653.207995 -51.460643 
L 649.384331 -52.442521 
L 645.560667 -53.41922 
L 641.737003 -54.385679 
L 637.913339 -55.337522 
L 634.089676 -56.270659 
L 630.266012 -57.180888 
L 626.442348 -58.063592 
L 622.618684 -58.913612 
L 618.795021 -59.725366 
L 614.971357 -60.493225 
L 611.147693 -61.212119 
L 607.324029 -61.87817 
L 603.500365 -62.488998 
L 599.676702 -63.043334 
L 595.853038 -63.539873 
L 592.029374 -63.975858 
L 588.20571 -64.346395 
L 584.382047 -64.645231 
L 580.558383 -64.86676 
L 576.734719 -65.008119 
L 572.911055 -65.070121 
L 569.087392 -65.056588 
L 565.263728 -64.972588 
L 561.440064 -64.822685 
L 557.6164 -64.61026 
L 553.792736 -64.338344 
L 549.969073 -64.011315 
L 546.145409 -63.636064 
L 542.321745 -63.221642 
L 538.498081 -62.777684 
L 534.674418 -62.312926 
L 530.850754 -61.835058 
L 527.02709 -61.352144 
L 523.203426 -60.874884 
L 519.379762 -60.418469 
L 515.556099 -60.002804 
L 511.732435 -59.650388 
L 507.908771 -59.382047 
L 504.085107 -59.212102 
L 500.261444 -59.146191 
L 496.43778 -59.185282 
L 492.614116 -59.336903 
L 488.790452 -59.630861 
L 484.966788 -60.134209 
L 481.143125 -60.957036 
L 477.319461 -62.235903 
L 473.495797 -64.086574 
L 469.672133 -66.543579 
L 465.84847 -69.53208 
L 462.024806 -72.906682 
L 458.201142 -76.538147 
L 454.377478 -80.386516 
L 450.553815 -84.513278 
L 446.730151 -89.035844 
L 442.906487 -94.064938 
L 439.082823 -99.667151 
L 435.259159 -105.868255 
L 431.435496 -112.679806 
L 427.611832 -120.119274 
L 423.788168 -128.211964 
L 419.964504 -136.984948 
L 416.140841 -146.461412 
L 412.317177 -156.65045 
L 408.493513 -167.530779 
L 404.669849 -179.041729 
L 400.846185 -191.091795 
L 397.022522 -203.573129 
L 393.198858 -216.361911 
L 389.375194 -229.305767 
L 385.55153 -242.222603 
L 381.727867 -254.925245 
L 377.904203 -267.250395 
L 374.080539 -279.053519 
L 370.256875 -290.16073 
L 366.433212 -300.317739 
L 362.609548 -309.190045 
L 358.785884 -316.425685 
L 354.96222 -321.73512 
L 351.138556 -324.935354 
L 347.314893 -325.949527 
L 343.491229 -324.786987 
L 339.667565 -321.518145 
L 335.843901 -316.243873 
L 332.020238 -309.077128 
L 328.196574 -300.167099 
L 324.37291 -289.757214 
L 320.549246 -278.215404 
L 316.725582 -265.985214 
L 312.901919 -253.480267 
L 309.078255 -241.001987 
L 305.254591 -228.740502 
L 301.430927 -216.841266 
L 297.607264 -205.459204 
L 293.7836 -194.738761 
L 289.959936 -184.738551 
L 286.136272 -175.382655 
L 282.312608 -166.504024 
L 278.488945 -157.965227 
L 274.665281 -149.766815 
L 270.841617 -142.050611 
L 267.017953 -134.990058 
L 263.19429 -128.661125 
L 259.370626 -122.998504 
L 255.546962 -117.851548 
L 251.723298 -113.068426 
L 247.899635 -108.540828 
L 244.075971 -104.202766 
L 240.252307 -100.014895 
L 236.428643 -95.955501 
L 232.604979 -92.016255 
L 228.781316 -88.196054 
L 224.957652 -84.495212 
L 221.133988 -80.915989 
L 217.310324 -77.469095 
L 213.486661 -74.178586 
L 209.662997 -71.077236 
L 205.839333 -68.191777 
L 202.015669 -65.52713 
L 198.192005 -63.062746 
L 194.368342 -60.766337 
L 190.544678 -58.615392 
L 186.721014 -56.609443 
L 182.89735 -54.764331 
L 179.073687 -53.095365 
L 175.250023 -51.603397 
L 171.426359 -50.271724 
L 167.602695 -49.072069 
L 163.779032 -47.974109 
L 159.955368 -46.954516 
L 156.131704 -46.002778 
L 152.30804 -45.120982 
L 148.484376 -44.316805 
L 144.660713 -43.593598 
L 140.837049 -42.944376 
L 137.013385 -42.353654 
L 133.189721 -41.804663 
L 129.366058 -41.285941 
L 125.542394 -40.793623 
L 121.71873 -40.33013 
L 117.895066 -39.901675 
L 114.071402 -39.515891 
L 110.247739 -39.179797 
L 106.424075 -38.898044 
L 102.600411 -38.671163 
L 98.776747 -38.493659 
L 94.953084 -38.352818 
L 91.12942 -38.229916 
L 87.305756 -38.104518 
L 83.482092 -37.960211 
L 79.658429 -37.789221 
L 75.834765 -37.594524 
L 72.011101 -37.389248 
L 68.187437 -37.193083 
L 64.363773 -37.025724 
L 60.54011 -36.89971 
L 56.716446 -36.816666 
L 52.892782 -36.769038 
L 49.069118 -36.745348 
L 45.245455 -36.735149 
z
" style="stroke: #ffffff"/>
    </defs>
    <g>
     <use xlink:href="#m41ac664d83" x="0" y="459.729687" style="fill: #c44e52; fill-opacity: 0.75; stroke: #ffffff"/>
    </g>
   </g>
   <g id="FillBetweenPolyCollection_5">
    <defs>
     <path id="mefff4dd9f3" d="M 45.245455 -36.735149 
L 45.245455 -36.735149 
L 49.069118 -36.745348 
L 52.892782 -36.769038 
L 56.716446 -36.816666 
L 60.54011 -36.89971 
L 64.363773 -37.025724 
L 68.187437 -37.193083 
L 72.011101 -37.389248 
L 75.834765 -37.594524 
L 79.658429 -37.789221 
L 83.482092 -37.960211 
L 87.305756 -38.104518 
L 91.12942 -38.229916 
L 94.953084 -38.352818 
L 98.776747 -38.493659 
L 102.600411 -38.671163 
L 106.424075 -38.898044 
L 110.247739 -39.179797 
L 114.071402 -39.515891 
L 117.895066 -39.901675 
L 121.71873 -40.33013 
L 125.542394 -40.793623 
L 129.366058 -41.285941 
L 133.189721 -41.804663 
L 137.013385 -42.353654 
L 140.837049 -42.944376 
L 144.660713 -43.593598 
L 148.484376 -44.316805 
L 152.30804 -45.120982 
L 156.131704 -46.002778 
L 159.955368 -46.954516 
L 163.779032 -47.974109 
L 167.602695 -49.072069 
L 171.426359 -50.271724 
L 175.250023 -51.603397 
L 179.073687 -53.095365 
L 182.89735 -54.764331 
L 186.721014 -56.609443 
L 190.544678 -58.615392 
L 194.368342 -60.766337 
L 198.192005 -63.062746 
L 202.015669 -65.52713 
L 205.839333 -68.191777 
L 209.662997 -71.077236 
L 213.486661 -74.178586 
L 217.310324 -77.469095 
L 221.133988 -80.915989 
L 224.957652 -84.495212 
L 228.781316 -88.196054 
L 232.604979 -92.016255 
L 236.428643 -95.955501 
L 240.252307 -100.014895 
L 244.075971 -104.202766 
L 247.899635 -108.540828 
L 251.723298 -113.068426 
L 255.546962 -117.851548 
L 259.370626 -122.998504 
L 263.19429 -128.661125 
L 267.017953 -134.990058 
L 270.841617 -142.050611 
L 274.665281 -149.766815 
L 278.488945 -157.965227 
L 282.312608 -166.504024 
L 286.136272 -175.382655 
L 289.959936 -184.738551 
L 293.7836 -194.738761 
L 297.607264 -205.459204 
L 301.430927 -216.841266 
L 305.254591 -228.740502 
L 309.078255 -241.001987 
L 312.901919 -253.480267 
L 316.725582 -265.985214 
L 320.549246 -278.215404 
L 324.37291 -289.757214 
L 328.196574 -300.167099 
L 332.020238 -309.077128 
L 335.843901 -316.243873 
L 339.667565 -321.518145 
L 343.491229 -324.786987 
L 347.314893 -325.949527 
L 351.138556 -324.935354 
L 354.96222 -321.73512 
L 358.785884 -316.425685 
L 362.609548 -309.190045 
L 366.433212 -300.317739 
L 370.256875 -290.16073 
L 374.080539 -279.053519 
L 377.904203 -267.250395 
L 381.727867 -254.925245 
L 385.55153 -242.222603 
L 389.375194 -229.305767 
L 393.198858 -216.361911 
L 397.022522 -203.573129 
L 400.846185 -191.091795 
L 404.669849 -179.041729 
L 408.493513 -167.530779 
L 412.317177 -156.65045 
L 416.140841 -146.461412 
L 419.964504 -136.984948 
L 423.788168 -128.211964 
L 427.611832 -120.119274 
L 431.435496 -112.679806 
L 435.259159 -105.868255 
L 439.082823 -99.667151 
L 442.906487 -94.064938 
L 446.730151 -89.035844 
L 450.553815 -84.513278 
L 454.377478 -80.386516 
L 458.201142 -76.538147 
L 462.024806 -72.906682 
L 465.84847 -69.53208 
L 469.672133 -66.543579 
L 473.495797 -64.086574 
L 477.319461 -62.235903 
L 481.143125 -60.957036 
L 484.966788 -60.134209 
L 488.790452 -59.630861 
L 492.614116 -59.336903 
L 496.43778 -59.185282 
L 500.261444 -59.146191 
L 504.085107 -59.212102 
L 507.908771 -59.382047 
L 511.732435 -59.650388 
L 515.556099 -60.002804 
L 519.379762 -60.418469 
L 523.203426 -60.874884 
L 527.02709 -61.352144 
L 530.850754 -61.835058 
L 534.674418 -62.312926 
L 538.498081 -62.777684 
L 542.321745 -63.221642 
L 546.145409 -63.636064 
L 549.969073 -64.011315 
L 553.792736 -64.338344 
L 557.6164 -64.61026 
L 561.440064 -64.822685 
L 565.263728 -64.972588 
L 569.087392 -65.056588 
L 572.911055 -65.070121 
L 576.734719 -65.008119 
L 580.558383 -64.86676 
L 584.382047 -64.645231 
L 588.20571 -64.346395 
L 592.029374 -63.975858 
L 595.853038 -63.539873 
L 599.676702 -63.043334 
L 603.500365 -62.488998 
L 607.324029 -61.87817 
L 611.147693 -61.212119 
L 614.971357 -60.493225 
L 618.795021 -59.725366 
L 622.618684 -58.913612 
L 626.442348 -58.063592 
L 630.266012 -57.180888 
L 634.089676 -56.270659 
L 637.913339 -55.337522 
L 641.737003 -54.385679 
L 645.560667 -53.41922 
L 649.384331 -52.442521 
L 653.207995 -51.460643 
L 657.031658 -50.479618 
L 660.855322 -49.506509 
L 664.678986 -48.549184 
L 668.50265 -47.615808 
L 672.326313 -46.714186 
L 676.149977 -45.851097 
L 679.973641 -45.031823 
L 683.797305 -44.259965 
L 687.620968 -43.537554 
L 691.444632 -42.865333 
L 695.268296 -42.243077 
L 699.09196 -41.669783 
L 702.915624 -41.143702 
L 706.739287 -40.662236 
L 710.562951 -40.221847 
L 714.386615 -39.818091 
L 718.210279 -39.445922 
L 722.033942 -39.100275 
L 725.857606 -38.776835 
L 729.68127 -38.472812 
L 733.504934 -38.187462 
L 737.328598 -37.922153 
L 741.152261 -37.67989 
L 744.975925 -37.464385 
L 748.799589 -37.278934 
L 752.623253 -37.12542 
L 756.446916 -37.003714 
L 760.27058 -36.911608 
L 764.094244 -36.845238 
L 767.917908 -36.799782 
L 771.741571 -36.770236 
L 775.565235 -36.752027 
L 779.388899 -36.741397 
L 783.212563 -36.735521 
L 787.036227 -36.732448 
L 790.85989 -36.730927 
L 794.683554 -36.730216 
L 798.507218 -36.729901 
L 802.330882 -36.729769 
L 806.154545 -36.729717 
L 806.154545 -36.729726 
L 806.154545 -36.729726 
L 802.330882 -36.729787 
L 798.507218 -36.729937 
L 794.683554 -36.730285 
L 790.85989 -36.731052 
L 787.036227 -36.732661 
L 783.212563 -36.735869 
L 779.388899 -36.741937 
L 775.565235 -36.752831 
L 771.741571 -36.771383 
L 767.917908 -36.80136 
L 764.094244 -36.84734 
L 760.27058 -36.91434 
L 756.446916 -37.007197 
L 752.623253 -37.12981 
L 748.799589 -37.28442 
L 744.975925 -37.471195 
L 741.152261 -37.688275 
L 737.328598 -37.932362 
L 733.504934 -38.199713 
L 729.68127 -38.487269 
L 725.857606 -38.793601 
L 722.033942 -39.119403 
L 718.210279 -39.467441 
L 714.386615 -39.84204 
L 710.562951 -40.248314 
L 706.739287 -40.691411 
L 702.915624 -41.175967 
L 699.09196 -41.705891 
L 695.268296 -42.284451 
L 691.444632 -42.914558 
L 687.620968 -43.599063 
L 683.797305 -44.340865 
L 679.973641 -45.1427 
L 676.149977 -46.00653 
L 672.326313 -46.932661 
L 668.50265 -47.918823 
L 664.678986 -48.959566 
L 660.855322 -50.046295 
L 657.031658 -51.168052 
L 653.207995 -52.312915 
L 649.384331 -53.469602 
L 645.560667 -54.628814 
L 641.737003 -55.78396 
L 637.913339 -56.931197 
L 634.089676 -58.068891 
L 630.266012 -59.196764 
L 626.442348 -60.314918 
L 622.618684 -61.4229 
L 618.795021 -62.518951 
L 614.971357 -63.599644 
L 611.147693 -64.660067 
L 607.324029 -65.694511 
L 603.500365 -66.697315 
L 599.676702 -67.663317 
L 595.853038 -68.587519 
L 592.029374 -69.464255 
L 588.20571 -70.286781 
L 584.382047 -71.04818 
L 580.558383 -71.743575 
L 576.734719 -72.372601 
L 572.911055 -72.940755 
L 569.087392 -73.458835 
L 565.263728 -73.940639 
L 561.440064 -74.399857 
L 557.6164 -74.847448 
L 553.792736 -75.290507 
L 549.969073 -75.732733 
L 546.145409 -76.175698 
L 542.321745 -76.62007 
L 538.498081 -77.06661 
L 534.674418 -77.517334 
L 530.850754 -77.97707 
L 527.02709 -78.45506 
L 523.203426 -78.965928 
L 519.379762 -79.529434 
L 515.556099 -80.168706 
L 511.732435 -80.907001 
L 507.908771 -81.76344 
L 504.085107 -82.749027 
L 500.261444 -83.865396 
L 496.43778 -85.108955 
L 492.614116 -86.480782 
L 488.790452 -87.999632 
L 484.966788 -89.713872 
L 481.143125 -91.705774 
L 477.319461 -94.076751 
L 473.495797 -96.905768 
L 469.672133 -100.197097 
L 465.84847 -103.859948 
L 462.024806 -107.75137 
L 458.201142 -111.761525 
L 454.377478 -115.880342 
L 450.553815 -120.200781 
L 446.730151 -124.865305 
L 442.906487 -129.99866 
L 439.082823 -135.669798 
L 435.259159 -141.897511 
L 431.435496 -148.680519 
L 427.611832 -156.020805 
L 423.788168 -163.927855 
L 419.964504 -172.414167 
L 416.140841 -181.490973 
L 412.317177 -191.159677 
L 408.493513 -201.397527 
L 404.669849 -212.150331 
L 400.846185 -223.341556 
L 397.022522 -234.885272 
L 393.198858 -246.682708 
L 389.375194 -258.604485 
L 385.55153 -270.48464 
L 381.727867 -282.142659 
L 377.904203 -293.413068 
L 374.080539 -304.143927 
L 370.256875 -314.153794 
L 366.433212 -323.185303 
L 362.609548 -330.90791 
L 358.785884 -336.980502 
L 354.96222 -341.128915 
L 351.138556 -343.186653 
L 347.314893 -343.091415 
L 343.491229 -340.863369 
L 339.667565 -336.579693 
L 335.843901 -330.344724 
L 332.020238 -322.272627 
L 328.196574 -312.512269 
L 324.37291 -301.305358 
L 320.549246 -289.016484 
L 316.725582 -276.084082 
L 312.901919 -262.915262 
L 309.078255 -249.804549 
L 305.254591 -236.936209 
L 301.430927 -224.452214 
L 297.607264 -212.50708 
L 293.7836 -201.24761 
L 289.959936 -190.736293 
L 286.136272 -180.900826 
L 282.312608 -171.575929 
L 278.488945 -162.623259 
L 274.665281 -154.039961 
L 270.841617 -145.962989 
L 267.017953 -138.560898 
L 263.19429 -131.906058 
L 259.370626 -125.931659 
L 255.546962 -120.487754 
L 251.723298 -115.424892 
L 247.899635 -110.637889 
L 244.075971 -106.063633 
L 240.252307 -101.664608 
L 236.428643 -97.419504 
L 232.604979 -93.319012 
L 228.781316 -89.360003 
L 224.957652 -85.54019 
L 221.133988 -81.859056 
L 217.310324 -78.324607 
L 213.486661 -74.958348 
L 209.662997 -71.790656 
L 205.839333 -68.846028 
L 202.015669 -66.127401 
L 198.192005 -63.612665 
L 194.368342 -61.268554 
L 190.544678 -59.072225 
L 186.721014 -57.023419 
L 182.89735 -55.138467 
L 179.073687 -53.433149 
L 175.250023 -51.908504 
L 171.426359 -50.547642 
L 167.602695 -49.321764 
L 163.779032 -48.199836 
L 159.955368 -47.157808 
L 156.131704 -46.184568 
L 152.30804 -45.281819 
L 148.484376 -44.457093 
L 144.660713 -43.713824 
L 140.837049 -43.045293 
L 137.013385 -42.436388 
L 133.189721 -41.870735 
L 129.366058 -41.337211 
L 125.542394 -40.832175 
L 121.71873 -40.358136 
L 117.895066 -39.921262 
L 114.071402 -39.529028 
L 110.247739 -39.188213 
L 106.424075 -38.90317 
L 102.600411 -38.674121 
L 98.776747 -38.49527 
L 94.953084 -38.353642 
L 91.12942 -38.230312 
L 87.305756 -38.104696 
L 83.482092 -37.960285 
L 79.658429 -37.78925 
L 75.834765 -37.594535 
L 72.011101 -37.389252 
L 68.187437 -37.193084 
L 64.363773 -37.025725 
L 60.54011 -36.89971 
L 56.716446 -36.816666 
L 52.892782 -36.769038 
L 49.069118 -36.745348 
L 45.245455 -36.735149 
z
" style="stroke: #ffffff"/>
    </defs>
    <g>
     <use xlink:href="#mefff4dd9f3" x="0" y="459.729687" style="fill: #55a868; fill-opacity: 0.75; stroke: #ffffff"/>
    </g>
   </g>
   <g id="FillBetweenPolyCollection_6">
    <defs>
     <path id="m3b42896497" d="M 45.245455 -36.735149 
L 45.245455 -36.735149 
L 49.069118 -36.745348 
L 52.892782 -36.769038 
L 56.716446 -36.816666 
L 60.54011 -36.89971 
L 64.363773 -37.025725 
L 68.187437 -37.193084 
L 72.011101 -37.389252 
L 75.834765 -37.594535 
L 79.658429 -37.78925 
L 83.482092 -37.960285 
L 87.305756 -38.104696 
L 91.12942 -38.230312 
L 94.953084 -38.353642 
L 98.776747 -38.49527 
L 102.600411 -38.674121 
L 106.424075 -38.90317 
L 110.247739 -39.188213 
L 114.071402 -39.529028 
L 117.895066 -39.921262 
L 121.71873 -40.358136 
L 125.542394 -40.832175 
L 129.366058 -41.337211 
L 133.189721 -41.870735 
L 137.013385 -42.436388 
L 140.837049 -43.045293 
L 144.660713 -43.713824 
L 148.484376 -44.457093 
L 152.30804 -45.281819 
L 156.131704 -46.184568 
L 159.955368 -47.157808 
L 163.779032 -48.199836 
L 167.602695 -49.321764 
L 171.426359 -50.547642 
L 175.250023 -51.908504 
L 179.073687 -53.433149 
L 182.89735 -55.138467 
L 186.721014 -57.023419 
L 190.544678 -59.072225 
L 194.368342 -61.268554 
L 198.192005 -63.612665 
L 202.015669 -66.127401 
L 205.839333 -68.846028 
L 209.662997 -71.790656 
L 213.486661 -74.958348 
L 217.310324 -78.324607 
L 221.133988 -81.859056 
L 224.957652 -85.54019 
L 228.781316 -89.360003 
L 232.604979 -93.319012 
L 236.428643 -97.419504 
L 240.252307 -101.664608 
L 244.075971 -106.063633 
L 247.899635 -110.637889 
L 251.723298 -115.424892 
L 255.546962 -120.487754 
L 259.370626 -125.931659 
L 263.19429 -131.906058 
L 267.017953 -138.560898 
L 270.841617 -145.962989 
L 274.665281 -154.039961 
L 278.488945 -162.623259 
L 282.312608 -171.575929 
L 286.136272 -180.900826 
L 289.959936 -190.736293 
L 293.7836 -201.24761 
L 297.607264 -212.50708 
L 301.430927 -224.452214 
L 305.254591 -236.936209 
L 309.078255 -249.804549 
L 312.901919 -262.915262 
L 316.725582 -276.084082 
L 320.549246 -289.016484 
L 324.37291 -301.305358 
L 328.196574 -312.512269 
L 332.020238 -322.272627 
L 335.843901 -330.344724 
L 339.667565 -336.579693 
L 343.491229 -340.863369 
L 347.314893 -343.091415 
L 351.138556 -343.186653 
L 354.96222 -341.128915 
L 358.785884 -336.980502 
L 362.609548 -330.90791 
L 366.433212 -323.185303 
L 370.256875 -314.153794 
L 374.080539 -304.143927 
L 377.904203 -293.413068 
L 381.727867 -282.142659 
L 385.55153 -270.48464 
L 389.375194 -258.604485 
L 393.198858 -246.682708 
L 397.022522 -234.885272 
L 400.846185 -223.341556 
L 404.669849 -212.150331 
L 408.493513 -201.397527 
L 412.317177 -191.159677 
L 416.140841 -181.490973 
L 419.964504 -172.414167 
L 423.788168 -163.927855 
L 427.611832 -156.020805 
L 431.435496 -148.680519 
L 435.259159 -141.897511 
L 439.082823 -135.669798 
L 442.906487 -129.99866 
L 446.730151 -124.865305 
L 450.553815 -120.200781 
L 454.377478 -115.880342 
L 458.201142 -111.761525 
L 462.024806 -107.75137 
L 465.84847 -103.859948 
L 469.672133 -100.197097 
L 473.495797 -96.905768 
L 477.319461 -94.076751 
L 481.143125 -91.705774 
L 484.966788 -89.713872 
L 488.790452 -87.999632 
L 492.614116 -86.480782 
L 496.43778 -85.108955 
L 500.261444 -83.865396 
L 504.085107 -82.749027 
L 507.908771 -81.76344 
L 511.732435 -80.907001 
L 515.556099 -80.168706 
L 519.379762 -79.529434 
L 523.203426 -78.965928 
L 527.02709 -78.45506 
L 530.850754 -77.97707 
L 534.674418 -77.517334 
L 538.498081 -77.06661 
L 542.321745 -76.62007 
L 546.145409 -76.175698 
L 549.969073 -75.732733 
L 553.792736 -75.290507 
L 557.6164 -74.847448 
L 561.440064 -74.399857 
L 565.263728 -73.940639 
L 569.087392 -73.458835 
L 572.911055 -72.940755 
L 576.734719 -72.372601 
L 580.558383 -71.743575 
L 584.382047 -71.04818 
L 588.20571 -70.286781 
L 592.029374 -69.464255 
L 595.853038 -68.587519 
L 599.676702 -67.663317 
L 603.500365 -66.697315 
L 607.324029 -65.694511 
L 611.147693 -64.660067 
L 614.971357 -63.599644 
L 618.795021 -62.518951 
L 622.618684 -61.4229 
L 626.442348 -60.314918 
L 630.266012 -59.196764 
L 634.089676 -58.068891 
L 637.913339 -56.931197 
L 641.737003 -55.78396 
L 645.560667 -54.628814 
L 649.384331 -53.469602 
L 653.207995 -52.312915 
L 657.031658 -51.168052 
L 660.855322 -50.046295 
L 664.678986 -48.959566 
L 668.50265 -47.918823 
L 672.326313 -46.932661 
L 676.149977 -46.00653 
L 679.973641 -45.1427 
L 683.797305 -44.340865 
L 687.620968 -43.599063 
L 691.444632 -42.914558 
L 695.268296 -42.284451 
L 699.09196 -41.705891 
L 702.915624 -41.175967 
L 706.739287 -40.691411 
L 710.562951 -40.248314 
L 714.386615 -39.84204 
L 718.210279 -39.467441 
L 722.033942 -39.119403 
L 725.857606 -38.793601 
L 729.68127 -38.487269 
L 733.504934 -38.199713 
L 737.328598 -37.932362 
L 741.152261 -37.688275 
L 744.975925 -37.471195 
L 748.799589 -37.28442 
L 752.623253 -37.12981 
L 756.446916 -37.007197 
L 760.27058 -36.91434 
L 764.094244 -36.84734 
L 767.917908 -36.80136 
L 771.741571 -36.771383 
L 775.565235 -36.752831 
L 779.388899 -36.741937 
L 783.212563 -36.735869 
L 787.036227 -36.732661 
L 790.85989 -36.731052 
L 794.683554 -36.730285 
L 798.507218 -36.729937 
L 802.330882 -36.729787 
L 806.154545 -36.729726 
L 806.154545 -36.729726 
L 806.154545 -36.729726 
L 802.330882 -36.729787 
L 798.507218 -36.729937 
L 794.683554 -36.730285 
L 790.85989 -36.731052 
L 787.036227 -36.732661 
L 783.212563 -36.735869 
L 779.388899 -36.741937 
L 775.565235 -36.752831 
L 771.741571 -36.771383 
L 767.917908 -36.80136 
L 764.094244 -36.84734 
L 760.27058 -36.914341 
L 756.446916 -37.007202 
L 752.623253 -37.129825 
L 748.799589 -37.284469 
L 744.975925 -37.471334 
L 741.152261 -37.688633 
L 737.328598 -37.933207 
L 733.504934 -38.201549 
L 729.68127 -38.490983 
L 725.857606 -38.800666 
L 722.033942 -39.132233 
L 718.210279 -39.490038 
L 714.386615 -39.88117 
L 710.562951 -40.315381 
L 706.739287 -40.805021 
L 702.915624 -41.364869 
L 699.09196 -42.011561 
L 695.268296 -42.76214 
L 691.444632 -43.631461 
L 687.620968 -44.628952 
L 683.797305 -45.756247 
L 679.973641 -47.007203 
L 676.149977 -48.370571 
L 672.326313 -49.834081 
L 668.50265 -51.388594 
L 664.678986 -53.031894 
L 660.855322 -54.772071 
L 657.031658 -56.629191 
L 653.207995 -58.63247 
L 649.384331 -60.811431 
L 645.560667 -63.184144 
L 641.737003 -65.750224 
L 637.913339 -68.494697 
L 634.089676 -71.399904 
L 630.266012 -74.453867 
L 626.442348 -77.645485 
L 622.618684 -80.950702 
L 618.795021 -84.325837 
L 614.971357 -87.719673 
L 611.147693 -91.096766 
L 607.324029 -94.450735 
L 603.500365 -97.794049 
L 599.676702 -101.132888 
L 595.853038 -104.448748 
L 592.029374 -107.699941 
L 588.20571 -110.837052 
L 584.382047 -113.816992 
L 580.558383 -116.606982 
L 576.734719 -119.181494 
L 572.911055 -121.519366 
L 569.087392 -123.604299 
L 565.263728 -125.427426 
L 561.440064 -126.9901 
L 557.6164 -128.30626 
L 553.792736 -129.403282 
L 549.969073 -130.318509 
L 546.145409 -131.08933 
L 542.321745 -131.739062 
L 538.498081 -132.266478 
L 534.674418 -132.647897 
L 530.850754 -132.853852 
L 527.02709 -132.870926 
L 523.203426 -132.713744 
L 519.379762 -132.419942 
L 515.556099 -132.035983 
L 511.732435 -131.607954 
L 507.908771 -131.182261 
L 504.085107 -130.808146 
L 500.261444 -130.533168 
L 496.43778 -130.393866 
L 492.614116 -130.412113 
L 488.790452 -130.60457 
L 484.966788 -131.003197 
L 481.143125 -131.674953 
L 477.319461 -132.720972 
L 473.495797 -134.239622 
L 469.672133 -136.26576 
L 465.84847 -138.732462 
L 462.024806 -141.497538 
L 458.201142 -144.424891 
L 454.377478 -147.462545 
L 450.553815 -150.665481 
L 446.730151 -154.158713 
L 442.906487 -158.07564 
L 439.082823 -162.513249 
L 435.259159 -167.523778 
L 431.435496 -173.131193 
L 427.611832 -179.346718 
L 423.788168 -186.171641 
L 419.964504 -193.595554 
L 416.140841 -201.597991 
L 412.317177 -210.149826 
L 408.493513 -219.211568 
L 404.669849 -228.734987 
L 400.846185 -238.670336 
L 397.022522 -248.966729 
L 393.198858 -259.554368 
L 389.375194 -270.3207 
L 385.55153 -281.108721 
L 381.727867 -291.746938 
L 377.904203 -302.082199 
L 374.080539 -311.974032 
L 370.256875 -321.24417 
L 366.433212 -329.625864 
L 362.609548 -336.768895 
L 358.785884 -342.309404 
L 354.96222 -345.955173 
L 351.138556 -347.530917 
L 347.314893 -346.974962 
L 343.491229 -344.31434 
L 339.667565 -339.634989 
L 335.843901 -333.048145 
L 332.020238 -324.670686 
L 328.196574 -314.649288 
L 324.37291 -303.219434 
L 320.549246 -290.737546 
L 316.725582 -277.634358 
L 312.901919 -264.311315 
L 309.078255 -251.059493 
L 305.254591 -238.061136 
L 301.430927 -225.456735 
L 297.607264 -213.399506 
L 293.7836 -202.035291 
L 289.959936 -191.426303 
L 286.136272 -181.500763 
L 282.312608 -172.094351 
L 278.488945 -163.069384 
L 274.665281 -154.422728 
L 270.841617 -146.290053 
L 267.017953 -138.838173 
L 263.19429 -132.137991 
L 259.370626 -126.121908 
L 255.546962 -120.639815 
L 251.723298 -115.54246 
L 247.899635 -110.725048 
L 244.075971 -106.124989 
L 240.252307 -101.705315 
L 236.428643 -97.445003 
L 232.604979 -93.334481 
L 228.781316 -89.369749 
L 224.957652 -85.54725 
L 221.133988 -81.865125 
L 217.310324 -78.330275 
L 213.486661 -74.963521 
L 209.662997 -71.795025 
L 205.839333 -68.849426 
L 202.015669 -66.129957 
L 198.192005 -63.614766 
L 194.368342 -61.270696 
L 190.544678 -59.074852 
L 186.721014 -57.026792 
L 182.89735 -55.142592 
L 179.073687 -53.437767 
L 175.250023 -51.913188 
L 171.426359 -50.551948 
L 167.602695 -49.325389 
L 163.779032 -48.202678 
L 159.955368 -47.159928 
L 156.131704 -46.186101 
L 152.30804 -45.282895 
L 148.484376 -44.457816 
L 144.660713 -43.714279 
L 140.837049 -43.045554 
L 137.013385 -42.436527 
L 133.189721 -41.870819 
L 129.366058 -41.337317 
L 125.542394 -40.832435 
L 121.71873 -40.35882 
L 117.895066 -39.92288 
L 114.071402 -39.53239 
L 110.247739 -39.194318 
L 106.424075 -38.912853 
L 102.600411 -38.687514 
L 98.776747 -38.511413 
L 94.953084 -38.370587 
L 91.12942 -38.245793 
L 87.305756 -38.117001 
L 83.482092 -37.968791 
L 79.658429 -37.794363 
L 75.834765 -37.597206 
L 72.011101 -37.390465 
L 68.187437 -37.193563 
L 64.363773 -37.025889 
L 60.54011 -36.899759 
L 56.716446 -36.816679 
L 52.892782 -36.769041 
L 49.069118 -36.745349 
L 45.245455 -36.735149 
z
" style="stroke: #ffffff"/>
    </defs>
    <g>
     <use xlink:href="#m3b42896497" x="0" y="459.729687" style="fill: #dd8452; fill-opacity: 0.75; stroke: #ffffff"/>
    </g>
   </g>
   <g id="FillBetweenPolyCollection_7">
    <defs>
     <path id="mb719116983" d="M 45.245455 -36.735149 
L 45.245455 -36.735149 
L 49.069118 -36.745349 
L 52.892782 -36.769041 
L 56.716446 -36.816679 
L 60.54011 -36.899759 
L 64.363773 -37.025889 
L 68.187437 -37.193563 
L 72.011101 -37.390465 
L 75.834765 -37.597206 
L 79.658429 -37.794363 
L 83.482092 -37.968791 
L 87.305756 -38.117001 
L 91.12942 -38.245793 
L 94.953084 -38.370587 
L 98.776747 -38.511413 
L 102.600411 -38.687514 
L 106.424075 -38.912853 
L 110.247739 -39.194318 
L 114.071402 -39.53239 
L 117.895066 -39.92288 
L 121.71873 -40.35882 
L 125.542394 -40.832435 
L 129.366058 -41.337317 
L 133.189721 -41.870819 
L 137.013385 -42.436527 
L 140.837049 -43.045554 
L 144.660713 -43.714279 
L 148.484376 -44.457816 
L 152.30804 -45.282895 
L 156.131704 -46.186101 
L 159.955368 -47.159928 
L 163.779032 -48.202678 
L 167.602695 -49.325389 
L 171.426359 -50.551948 
L 175.250023 -51.913188 
L 179.073687 -53.437767 
L 182.89735 -55.142592 
L 186.721014 -57.026792 
L 190.544678 -59.074852 
L 194.368342 -61.270696 
L 198.192005 -63.614766 
L 202.015669 -66.129957 
L 205.839333 -68.849426 
L 209.662997 -71.795025 
L 213.486661 -74.963521 
L 217.310324 -78.330275 
L 221.133988 -81.865125 
L 224.957652 -85.54725 
L 228.781316 -89.369749 
L 232.604979 -93.334481 
L 236.428643 -97.445003 
L 240.252307 -101.705315 
L 244.075971 -106.124989 
L 247.899635 -110.725048 
L 251.723298 -115.54246 
L 255.546962 -120.639815 
L 259.370626 -126.121908 
L 263.19429 -132.137991 
L 267.017953 -138.838173 
L 270.841617 -146.290053 
L 274.665281 -154.422728 
L 278.488945 -163.069384 
L 282.312608 -172.094351 
L 286.136272 -181.500763 
L 289.959936 -191.426303 
L 293.7836 -202.035291 
L 297.607264 -213.399506 
L 301.430927 -225.456735 
L 305.254591 -238.061136 
L 309.078255 -251.059493 
L 312.901919 -264.311315 
L 316.725582 -277.634358 
L 320.549246 -290.737546 
L 324.37291 -303.219434 
L 328.196574 -314.649288 
L 332.020238 -324.670686 
L 335.843901 -333.048145 
L 339.667565 -339.634989 
L 343.491229 -344.31434 
L 347.314893 -346.974962 
L 351.138556 -347.530917 
L 354.96222 -345.955173 
L 358.785884 -342.309404 
L 362.609548 -336.768895 
L 366.433212 -329.625864 
L 370.256875 -321.24417 
L 374.080539 -311.974032 
L 377.904203 -302.082199 
L 381.727867 -291.746938 
L 385.55153 -281.108721 
L 389.375194 -270.3207 
L 393.198858 -259.554368 
L 397.022522 -248.966729 
L 400.846185 -238.670336 
L 404.669849 -228.734987 
L 408.493513 -219.211568 
L 412.317177 -210.149826 
L 416.140841 -201.597991 
L 419.964504 -193.595554 
L 423.788168 -186.171641 
L 427.611832 -179.346718 
L 431.435496 -173.131193 
L 435.259159 -167.523778 
L 439.082823 -162.513249 
L 442.906487 -158.07564 
L 446.730151 -154.158713 
L 450.553815 -150.665481 
L 454.377478 -147.462545 
L 458.201142 -144.424891 
L 462.024806 -141.497538 
L 465.84847 -138.732462 
L 469.672133 -136.26576 
L 473.495797 -134.239622 
L 477.319461 -132.720972 
L 481.143125 -131.674953 
L 484.966788 -131.003197 
L 488.790452 -130.60457 
L 492.614116 -130.412113 
L 496.43778 -130.393866 
L 500.261444 -130.533168 
L 504.085107 -130.808146 
L 507.908771 -131.182261 
L 511.732435 -131.607954 
L 515.556099 -132.035983 
L 519.379762 -132.419942 
L 523.203426 -132.713744 
L 527.02709 -132.870926 
L 530.850754 -132.853852 
L 534.674418 -132.647897 
L 538.498081 -132.266478 
L 542.321745 -131.739062 
L 546.145409 -131.08933 
L 549.969073 -130.318509 
L 553.792736 -129.403282 
L 557.6164 -128.30626 
L 561.440064 -126.9901 
L 565.263728 -125.427426 
L 569.087392 -123.604299 
L 572.911055 -121.519366 
L 576.734719 -119.181494 
L 580.558383 -116.606982 
L 584.382047 -113.816992 
L 588.20571 -110.837052 
L 592.029374 -107.699941 
L 595.853038 -104.448748 
L 599.676702 -101.132888 
L 603.500365 -97.794049 
L 607.324029 -94.450735 
L 611.147693 -91.096766 
L 614.971357 -87.719673 
L 618.795021 -84.325837 
L 622.618684 -80.950702 
L 626.442348 -77.645485 
L 630.266012 -74.453867 
L 634.089676 -71.399904 
L 637.913339 -68.494697 
L 641.737003 -65.750224 
L 645.560667 -63.184144 
L 649.384331 -60.811431 
L 653.207995 -58.63247 
L 657.031658 -56.629191 
L 660.855322 -54.772071 
L 664.678986 -53.031894 
L 668.50265 -51.388594 
L 672.326313 -49.834081 
L 676.149977 -48.370571 
L 679.973641 -47.007203 
L 683.797305 -45.756247 
L 687.620968 -44.628952 
L 691.444632 -43.631461 
L 695.268296 -42.76214 
L 699.09196 -42.011561 
L 702.915624 -41.364869 
L 706.739287 -40.805021 
L 710.562951 -40.315381 
L 714.386615 -39.88117 
L 718.210279 -39.490038 
L 722.033942 -39.132233 
L 725.857606 -38.800666 
L 729.68127 -38.490983 
L 733.504934 -38.201549 
L 737.328598 -37.933207 
L 741.152261 -37.688633 
L 744.975925 -37.471334 
L 748.799589 -37.284469 
L 752.623253 -37.129825 
L 756.446916 -37.007202 
L 760.27058 -36.914341 
L 764.094244 -36.84734 
L 767.917908 -36.80136 
L 771.741571 -36.771383 
L 775.565235 -36.752831 
L 779.388899 -36.741937 
L 783.212563 -36.735869 
L 787.036227 -36.732661 
L 790.85989 -36.731052 
L 794.683554 -36.730285 
L 798.507218 -36.729937 
L 802.330882 -36.729787 
L 806.154545 -36.729726 
L 806.154545 -36.730587 
L 806.154545 -36.730587 
L 802.330882 -36.731288 
L 798.507218 -36.732421 
L 794.683554 -36.734201 
L 790.85989 -36.736943 
L 787.036227 -36.74114 
L 783.212563 -36.747579 
L 779.388899 -36.75751 
L 775.565235 -36.772849 
L 771.741571 -36.796362 
L 767.917908 -36.831755 
L 764.094244 -36.883582 
L 760.27058 -36.956889 
L 756.446916 -37.056616 
L 752.623253 -37.186834 
L 748.799589 -37.350037 
L 744.975925 -37.546724 
L 741.152261 -37.775458 
L 737.328598 -38.033489 
L 733.504934 -38.317794 
L 729.68127 -38.626284 
L 725.857606 -38.958854 
L 722.033942 -39.318073 
L 718.210279 -39.709475 
L 714.386615 -40.141595 
L 710.562951 -40.625896 
L 706.739287 -41.176647 
L 702.915624 -41.810672 
L 699.09196 -42.546658 
L 695.268296 -43.403632 
L 691.444632 -44.398357 
L 687.620968 -45.542229 
L 683.797305 -46.839138 
L 679.973641 -48.285746 
L 676.149977 -49.874239 
L 672.326313 -51.596226 
L 668.50265 -53.446324 
L 664.678986 -55.425178 
L 660.855322 -57.542083 
L 657.031658 -59.816227 
L 653.207995 -62.273977 
L 649.384331 -64.940686 
L 645.560667 -67.829997 
L 641.737003 -70.938111 
L 637.913339 -74.248972 
L 634.089676 -77.74744 
L 630.266012 -81.4288 
L 626.442348 -85.294787 
L 622.618684 -89.339991 
L 618.795021 -93.544439 
L 614.971357 -97.883652 
L 611.147693 -102.348528 
L 607.324029 -106.954098 
L 603.500365 -111.724488 
L 599.676702 -116.66393 
L 595.853038 -121.736874 
L 592.029374 -126.871315 
L 588.20571 -131.979357 
L 584.382047 -136.978388 
L 580.558383 -141.802136 
L 576.734719 -146.402555 
L 572.911055 -150.748565 
L 569.087392 -154.824972 
L 565.263728 -158.631488 
L 561.440064 -162.181579 
L 557.6164 -165.501836 
L 553.792736 -168.631328 
L 549.969073 -171.61809 
L 546.145409 -174.51012 
L 542.321745 -177.342648 
L 538.498081 -180.129018 
L 534.674418 -182.863697 
L 530.850754 -185.539027 
L 527.02709 -188.165999 
L 523.203426 -190.783976 
L 519.379762 -193.452481 
L 515.556099 -196.233576 
L 511.732435 -199.179835 
L 507.908771 -202.333542 
L 504.085107 -205.729294 
L 500.261444 -209.390876 
L 496.43778 -213.323986 
L 492.614116 -217.514591 
L 488.790452 -221.939903 
L 484.966788 -226.589861 
L 481.143125 -231.487437 
L 477.319461 -236.688289 
L 473.495797 -242.24436 
L 469.672133 -248.143807 
L 465.84847 -254.273584 
L 462.024806 -260.447045 
L 458.201142 -266.486648 
L 454.377478 -272.303484 
L 450.553815 -277.921558 
L 446.730151 -283.441962 
L 442.906487 -288.981727 
L 439.082823 -294.628864 
L 435.259159 -300.433358 
L 431.435496 -306.422802 
L 427.611832 -312.617262 
L 423.788168 -319.03184 
L 419.964504 -325.675045 
L 416.140841 -332.550661 
L 412.317177 -339.65903 
L 408.493513 -346.994536 
L 404.669849 -354.545568 
L 400.846185 -362.299455 
L 397.022522 -370.240372 
L 393.198858 -378.329423 
L 389.375194 -386.47915 
L 385.55153 -394.550404 
L 381.727867 -402.380416 
L 377.904203 -409.812584 
L 374.080539 -416.686693 
L 370.256875 -422.78458 
L 366.433212 -427.7785 
L 362.609548 -431.241317 
L 358.785884 -432.729688 
L 354.96222 -431.890116 
L 351.138556 -428.527856 
L 347.314893 -422.622505 
L 343.491229 -414.309516 
L 339.667565 -403.839697 
L 335.843901 -391.519052 
L 332.020238 -377.65394 
L 328.196574 -362.541926 
L 324.37291 -346.508881 
L 320.549246 -329.935518 
L 316.725582 -313.220438 
L 312.901919 -296.695871 
L 309.078255 -280.568413 
L 305.254591 -264.938977 
L 301.430927 -249.881775 
L 297.607264 -235.50391 
L 293.7836 -221.925051 
L 289.959936 -209.197719 
L 286.136272 -197.252118 
L 282.312608 -185.932808 
L 278.488945 -175.113906 
L 274.665281 -164.804099 
L 270.841617 -155.148994 
L 267.017953 -146.322259 
L 263.19429 -138.397863 
L 259.370626 -131.307161 
L 255.546962 -124.89498 
L 251.723298 -119.003548 
L 247.899635 -113.517047 
L 244.075971 -108.360493 
L 240.252307 -103.484168 
L 236.428643 -98.854628 
L 232.604979 -94.450509 
L 228.781316 -90.256676 
L 224.957652 -86.259025 
L 221.133988 -82.445758 
L 217.310324 -78.814569 
L 213.486661 -75.378023 
L 209.662997 -72.159185 
L 205.839333 -69.176869 
L 202.015669 -66.429755 
L 198.192005 -63.89259 
L 194.368342 -61.529799 
L 190.544678 -59.316877 
L 186.721014 -57.252409 
L 182.89735 -55.351987 
L 179.073687 -53.63099 
L 175.250023 -52.090361 
L 171.426359 -50.713359 
L 167.602695 -49.471487 
L 163.779032 -48.334028 
L 159.955368 -47.277155 
L 156.131704 -46.289849 
L 152.30804 -45.373808 
L 148.484376 -44.53654 
L 144.660713 -43.781475 
L 140.837049 -43.101924 
L 137.013385 -42.482836 
L 133.189721 -41.90793 
L 129.366058 -41.366207 
L 125.542394 -40.854192 
L 121.71873 -40.374609 
L 117.895066 -39.933884 
L 114.071402 -39.539731 
L 110.247739 -39.198997 
L 106.424075 -38.915697 
L 102.600411 -38.68916 
L 98.776747 -38.512321 
L 94.953084 -38.371064 
L 91.12942 -38.246032 
L 87.305756 -38.117115 
L 83.482092 -37.968844 
L 79.658429 -37.794386 
L 75.834765 -37.597216 
L 72.011101 -37.390469 
L 68.187437 -37.193564 
L 64.363773 -37.025889 
L 60.54011 -36.899759 
L 56.716446 -36.816679 
L 52.892782 -36.769041 
L 49.069118 -36.745349 
L 45.245455 -36.735149 
z
" style="stroke: #ffffff"/>
    </defs>
    <g>
     <use xlink:href="#mb719116983" x="0" y="459.729687" style="fill: #4c72b0; fill-opacity: 0.75; stroke: #ffffff"/>
    </g>
   </g>
   <g id="line2d_37">
    <path d="M 290.312481 423 
L 290.312481 7.2 
" style="fill: none; stroke-dasharray: 2.96,1.28; stroke-dashoffset: 0; stroke: #d3d3d3; stroke-width: 0.8"/>
   </g>
   <g id="line2d_38">
    <path d="M 471.715868 423 
L 471.715868 7.2 
" style="fill: none; stroke-dasharray: 2.96,1.28; stroke-dashoffset: 0; stroke: #d3d3d3; stroke-width: 0.8"/>
   </g>
   <g id="line2d_39">
    <path d="M 394.907393 423 
L 394.907393 7.2 
" style="fill: none; stroke-dasharray: 2.96,1.28; stroke-dashoffset: 0; stroke: #d3d3d3; stroke-width: 0.8"/>
   </g>
   <g id="line2d_40">
    <path d="M 7.2 423 
L 844.2 423 
" style="fill: none; stroke: #808080; stroke-width: 0.5; stroke-linecap: round"/>
   </g>
   <g id="text_12">
    <text style="font-size: 8px; font-family: 'Arial', 'DejaVu Sans', 'Liberation Sans', 'Bitstream Vera Sans', sans-serif; fill: #808080" transform="translate(296.566231 126.53675) rotate(-90)">International Poverty Line: $3.00</text>
   </g>
   <g id="text_13">
    <text style="font-size: 8px; font-family: 'Arial', 'DejaVu Sans', 'Liberation Sans', 'Bitstream Vera Sans', sans-serif; fill: #808080" transform="translate(477.442118 83.25175) rotate(-90)">World mean: $21.95</text>
   </g>
   <g id="text_14">
    <text style="font-size: 8px; font-family: 'Arial', 'DejaVu Sans', 'Liberation Sans', 'Bitstream Vera Sans', sans-serif; fill: #808080" transform="translate(400.633643 85.02925) rotate(-90)">World median: $9.45</text>
   </g>
   <g id="legend_1">
    <g id="patch_3">
     <path d="M 683.8 212.000625 
L 944.253125 212.000625 
Q 946.253125 212.000625 946.253125 210.000625 
L 946.253125 97.36 
Q 946.253125 95.36 944.253125 95.36 
L 683.8 95.36 
Q 681.8 95.36 681.8 97.36 
L 681.8 210.000625 
Q 681.8 212.000625 683.8 212.000625 
z
" style="fill: #ffffff; opacity: 0.8; stroke: #cccccc; stroke-linejoin: miter"/>
    </g>
    <g id="text_15">
     <text style="font-size: 10px; font-family: 'Arial', 'DejaVu Sans', 'Liberation Sans', 'Bitstream Vera Sans', sans-serif; text-anchor: start; fill: #262626" x="798.182813" y="106.517812" transform="rotate(-0 798.182813 106.517812)">Region</text>
    </g>
    <g id="patch_4">
     <path d="M 685.8 120.780312 
L 705.8 120.780312 
L 705.8 113.780312 
L 685.8 113.780312 
z
" style="fill: #4c72b0; fill-opacity: 0.75; stroke: #ffffff; stroke-linejoin: miter"/>
    </g>
    <g id="text_16">
     <text style="font-size: 10px; font-family: 'Arial', 'DejaVu Sans', 'Liberation Sans', 'Bitstream Vera Sans', sans-serif; text-anchor: start; fill: #262626" x="713.8" y="120.780312" transform="rotate(-0 713.8 120.780312)">East Asia and Pacific</text>
    </g>
    <g id="patch_5">
     <path d="M 685.8 135.0475 
L 705.8 135.0475 
L 705.8 128.0475 
L 685.8 128.0475 
z
" style="fill: #dd8452; fill-opacity: 0.75; stroke: #ffffff; stroke-linejoin: miter"/>
    </g>
    <g id="text_17">
     <text style="font-size: 10px; font-family: 'Arial', 'DejaVu Sans', 'Liberation Sans', 'Bitstream Vera Sans', sans-serif; text-anchor: start; fill: #262626" x="713.8" y="135.0475" transform="rotate(-0 713.8 135.0475)">Europe and Central Asia</text>
    </g>
    <g id="patch_6">
     <path d="M 685.8 149.192812 
L 705.8 149.192812 
L 705.8 142.192812 
L 685.8 142.192812 
z
" style="fill: #55a868; fill-opacity: 0.75; stroke: #ffffff; stroke-linejoin: miter"/>
    </g>
    <g id="text_18">
     <text style="font-size: 10px; font-family: 'Arial', 'DejaVu Sans', 'Liberation Sans', 'Bitstream Vera Sans', sans-serif; text-anchor: start; fill: #262626" x="713.8" y="149.192812" transform="rotate(-0 713.8 149.192812)">Latin America and Caribbean</text>
    </g>
    <g id="patch_7">
     <path d="M 685.8 163.46 
L 705.8 163.46 
L 705.8 156.46 
L 685.8 156.46 
z
" style="fill: #c44e52; fill-opacity: 0.75; stroke: #ffffff; stroke-linejoin: miter"/>
    </g>
    <g id="text_19">
     <text style="font-size: 10px; font-family: 'Arial', 'DejaVu Sans', 'Liberation Sans', 'Bitstream Vera Sans', sans-serif; text-anchor: start; fill: #262626" x="713.8" y="163.46" transform="rotate(-0 713.8 163.46)">Middle East, North Africa, Afghanistan and Pakistan</text>
    </g>
    <g id="patch_8">
     <path d="M 685.8 177.7225 
L 705.8 177.7225 
L 705.8 170.7225 
L 685.8 170.7225 
z
" style="fill: #8172b3; fill-opacity: 0.75; stroke: #ffffff; stroke-linejoin: miter"/>
    </g>
    <g id="text_20">
     <text style="font-size: 10px; font-family: 'Arial', 'DejaVu Sans', 'Liberation Sans', 'Bitstream Vera Sans', sans-serif; text-anchor: start; fill: #262626" x="713.8" y="177.7225" transform="rotate(-0 713.8 177.7225)">North America</text>
    </g>
    <g id="patch_9">
     <path d="M 685.8 191.867812 
L 705.8 191.867812 
L 705.8 184.867812 
L 685.8 184.867812 
z
" style="fill: #937860; fill-opacity: 0.75; stroke: #ffffff; stroke-linejoin: miter"/>
    </g>
    <g id="text_21">
     <text style="font-size: 10px; font-family: 'Arial', 'DejaVu Sans', 'Liberation Sans', 'Bitstream Vera Sans', sans-serif; text-anchor: start; fill: #262626" x="713.8" y="191.867812" transform="rotate(-0 713.8 191.867812)">South Asia</text>
    </g>
    <g id="patch_10">
     <path d="M 685.8 206.013125 
L 705.8 206.013125 
L 705.8 199.013125 
L 685.8 199.013125 
z
" style="fill: #da8bc3; fill-opacity: 0.75; stroke: #ffffff; stroke-linejoin: miter"/>
    </g>
    <g id="text_22">
     <text style="font-size: 10px; font-family: 'Arial', 'DejaVu Sans', 'Liberation Sans', 'Bitstream Vera Sans', sans-serif; text-anchor: start; fill: #262626" x="713.8" y="206.013125" transform="rotate(-0 713.8 206.013125)">Sub-Saharan Africa</text>
    </g>
   </g>
  </g>
 </g>
</svg>
