<?xml version="1.0" encoding="utf-8" standalone="no"?>
<!DOCTYPE svg PUBLIC "-//W3C//DTD SVG 1.1//EN"
  "http://www.w3.org/Graphics/SVG/1.1/DTD/svg11.dtd">
<svg xmlns:xlink="http://www.w3.org/1999/xlink" width="953.453125pt" height="476.983437pt" viewBox="0 0 953.453125 476.983437" xmlns="http://www.w3.org/2000/svg" version="1.1">
 <metadata>
  <rdf:RDF xmlns:dc="http://purl.org/dc/elements/1.1/" xmlns:cc="http://creativecommons.org/ns#" xmlns:rdf="http://www.w3.org/1999/02/22-rdf-syntax-ns#">
   <cc:Work>
    <dc:type rdf:resource="http://purl.org/dc/dcmitype/StillImage"/>
    <dc:date>2026-05-27T11:50:31.995897</dc:date>
    <dc:format>image/svg+xml</dc:format>
    <dc:creator>
     <cc:Agent>
      <dc:title>Matplotlib v3.10.9, https://matplotlib.org/</dc:title>
     </cc:Agent>
    </dc:creator>
   </cc:Work>
  </rdf:RDF>
 </metadata>
 <defs>
  <style type="text/css">*{stroke-linejoin: round; stroke-linecap: butt}</style>
 </defs>
 <g id="figure_1">
  <g id="patch_1">
   <path d="M 0 476.983437 
L 953.453125 476.983437 
L 953.453125 0 
L 0 0 
z
" style="fill: #ffffff"/>
  </g>
  <g id="axes_1">
   <g id="patch_2">
    <path d="M 7.2 440.25375 
L 844.2 440.25375 
L 844.2 24.45375 
L 7.2 24.45375 
z
" style="fill: #ffffff"/>
   </g>
   <g id="matplotlib.axis_1">
    <g id="xtick_1">
     <g id="line2d_1">
      <defs>
       <path id="mccef1b55d2" d="M 0 0 
L 0 3.5 
" style="stroke: #262626; stroke-width: 0.8"/>
      </defs>
      <g>
       <use xlink:href="#mccef1b55d2" x="282.024283" y="440.25375" style="fill: #262626; stroke: #262626; stroke-width: 0.8"/>
      </g>
     </g>
     <g id="text_1">
      <text style="font-size: 10px; font-family: 'Arial', 'DejaVu Sans', 'Liberation Sans', 'Bitstream Vera Sans', sans-serif; text-anchor: middle; fill: #262626" x="282.024283" y="454.411562" transform="rotate(-0 282.024283 454.411562)">$10</text>
     </g>
    </g>
    <g id="xtick_2">
     <g id="line2d_2">
      <g>
       <use xlink:href="#mccef1b55d2" x="326.829866" y="440.25375" style="fill: #262626; stroke: #262626; stroke-width: 0.8"/>
      </g>
     </g>
     <g id="text_2">
      <text style="font-size: 10px; font-family: 'Arial', 'DejaVu Sans', 'Liberation Sans', 'Bitstream Vera Sans', sans-serif; text-anchor: middle; fill: #262626" x="326.829866" y="454.411562" transform="rotate(-0 326.829866 454.411562)">$20</text>
     </g>
    </g>
    <g id="xtick_3">
     <g id="line2d_3">
      <g>
       <use xlink:href="#mccef1b55d2" x="386.059625" y="440.25375" style="fill: #262626; stroke: #262626; stroke-width: 0.8"/>
      </g>
     </g>
     <g id="text_3">
      <text style="font-size: 10px; font-family: 'Arial', 'DejaVu Sans', 'Liberation Sans', 'Bitstream Vera Sans', sans-serif; text-anchor: middle; fill: #262626" x="386.059625" y="454.411562" transform="rotate(-0 386.059625 454.411562)">$50</text>
     </g>
    </g>
    <g id="xtick_4">
     <g id="line2d_4">
      <g>
       <use xlink:href="#mccef1b55d2" x="430.865208" y="440.25375" style="fill: #262626; stroke: #262626; stroke-width: 0.8"/>
      </g>
     </g>
     <g id="text_4">
      <text style="font-size: 10px; font-family: 'Arial', 'DejaVu Sans', 'Liberation Sans', 'Bitstream Vera Sans', sans-serif; text-anchor: middle; fill: #262626" x="430.865208" y="454.411562" transform="rotate(-0 430.865208 454.411562)">$100</text>
     </g>
    </g>
    <g id="xtick_5">
     <g id="line2d_5">
      <g>
       <use xlink:href="#mccef1b55d2" x="475.670791" y="440.25375" style="fill: #262626; stroke: #262626; stroke-width: 0.8"/>
      </g>
     </g>
     <g id="text_5">
      <text style="font-size: 10px; font-family: 'Arial', 'DejaVu Sans', 'Liberation Sans', 'Bitstream Vera Sans', sans-serif; text-anchor: middle; fill: #262626" x="475.670791" y="454.411562" transform="rotate(-0 475.670791 454.411562)">$200</text>
     </g>
    </g>
    <g id="xtick_6">
     <g id="line2d_6">
      <g>
       <use xlink:href="#mccef1b55d2" x="534.90055" y="440.25375" style="fill: #262626; stroke: #262626; stroke-width: 0.8"/>
      </g>
     </g>
     <g id="text_6">
      <text style="font-size: 10px; font-family: 'Arial', 'DejaVu Sans', 'Liberation Sans', 'Bitstream Vera Sans', sans-serif; text-anchor: middle; fill: #262626" x="534.90055" y="454.411562" transform="rotate(-0 534.90055 454.411562)">$500</text>
     </g>
    </g>
    <g id="xtick_7">
     <g id="line2d_7">
      <g>
       <use xlink:href="#mccef1b55d2" x="579.706133" y="440.25375" style="fill: #262626; stroke: #262626; stroke-width: 0.8"/>
      </g>
     </g>
     <g id="text_7">
      <text style="font-size: 10px; font-family: 'Arial', 'DejaVu Sans', 'Liberation Sans', 'Bitstream Vera Sans', sans-serif; text-anchor: middle; fill: #262626" x="579.706133" y="454.411562" transform="rotate(-0 579.706133 454.411562)">$1000</text>
     </g>
    </g>
    <g id="xtick_8">
     <g id="line2d_8">
      <g>
       <use xlink:href="#mccef1b55d2" x="624.511716" y="440.25375" style="fill: #262626; stroke: #262626; stroke-width: 0.8"/>
      </g>
     </g>
     <g id="text_8">
      <text style="font-size: 10px; font-family: 'Arial', 'DejaVu Sans', 'Liberation Sans', 'Bitstream Vera Sans', sans-serif; text-anchor: middle; fill: #262626" x="624.511716" y="454.411562" transform="rotate(-0 624.511716 454.411562)">$2000</text>
     </g>
    </g>
    <g id="xtick_9">
     <g id="line2d_9">
      <g>
       <use xlink:href="#mccef1b55d2" x="683.741475" y="440.25375" style="fill: #262626; stroke: #262626; stroke-width: 0.8"/>
      </g>
     </g>
     <g id="text_9">
      <text style="font-size: 10px; font-family: 'Arial', 'DejaVu Sans', 'Liberation Sans', 'Bitstream Vera Sans', sans-serif; text-anchor: middle; fill: #262626" x="683.741475" y="454.411562" transform="rotate(-0 683.741475 454.411562)">$5000</text>
     </g>
    </g>
    <g id="xtick_10">
     <g id="line2d_10">
      <g>
       <use xlink:href="#mccef1b55d2" x="728.547058" y="440.25375" style="fill: #262626; stroke: #262626; stroke-width: 0.8"/>
      </g>
     </g>
     <g id="text_10">
      <text style="font-size: 10px; font-family: 'Arial', 'DejaVu Sans', 'Liberation Sans', 'Bitstream Vera Sans', sans-serif; text-anchor: middle; fill: #262626" x="728.547058" y="454.411562" transform="rotate(-0 728.547058 454.411562)">$10000</text>
     </g>
    </g>
    <g id="xtick_11">
     <g id="line2d_11">
      <g>
       <use xlink:href="#mccef1b55d2" x="773.352642" y="440.25375" style="fill: #262626; stroke: #262626; stroke-width: 0.8"/>
      </g>
     </g>
     <g id="text_11">
      <text style="font-size: 10px; font-family: 'Arial', 'DejaVu Sans', 'Liberation Sans', 'Bitstream Vera Sans', sans-serif; text-anchor: middle; fill: #262626" x="773.352642" y="454.411562" transform="rotate(-0 773.352642 454.411562)">$20000</text>
     </g>
    </g>
    <g id="xtick_12">
     <g id="line2d_12">
      <defs>
       <path id="m48c641bbb5" d="M 0 0 
L 0 2 
" style="stroke: #262626; stroke-width: 0.6"/>
      </defs>
      <g>
       <use xlink:href="#m48c641bbb5" x="29.148016" y="440.25375" style="fill: #262626; stroke: #262626; stroke-width: 0.6"/>
      </g>
     </g>
    </g>
    <g id="xtick_13">
     <g id="line2d_13">
      <g>
       <use xlink:href="#m48c641bbb5" x="55.357602" y="440.25375" style="fill: #262626; stroke: #262626; stroke-width: 0.6"/>
      </g>
     </g>
    </g>
    <g id="xtick_14">
     <g id="line2d_14">
      <g>
       <use xlink:href="#m48c641bbb5" x="73.953599" y="440.25375" style="fill: #262626; stroke: #262626; stroke-width: 0.6"/>
      </g>
     </g>
    </g>
    <g id="xtick_15">
     <g id="line2d_15">
      <g>
       <use xlink:href="#m48c641bbb5" x="88.377775" y="440.25375" style="fill: #262626; stroke: #262626; stroke-width: 0.6"/>
      </g>
     </g>
    </g>
    <g id="xtick_16">
     <g id="line2d_16">
      <g>
       <use xlink:href="#m48c641bbb5" x="100.163185" y="440.25375" style="fill: #262626; stroke: #262626; stroke-width: 0.6"/>
      </g>
     </g>
    </g>
    <g id="xtick_17">
     <g id="line2d_17">
      <g>
       <use xlink:href="#m48c641bbb5" x="110.127607" y="440.25375" style="fill: #262626; stroke: #262626; stroke-width: 0.6"/>
      </g>
     </g>
    </g>
    <g id="xtick_18">
     <g id="line2d_18">
      <g>
       <use xlink:href="#m48c641bbb5" x="118.759182" y="440.25375" style="fill: #262626; stroke: #262626; stroke-width: 0.6"/>
      </g>
     </g>
    </g>
    <g id="xtick_19">
     <g id="line2d_19">
      <g>
       <use xlink:href="#m48c641bbb5" x="126.37277" y="440.25375" style="fill: #262626; stroke: #262626; stroke-width: 0.6"/>
      </g>
     </g>
    </g>
    <g id="xtick_20">
     <g id="line2d_20">
      <g>
       <use xlink:href="#m48c641bbb5" x="177.988941" y="440.25375" style="fill: #262626; stroke: #262626; stroke-width: 0.6"/>
      </g>
     </g>
    </g>
    <g id="xtick_21">
     <g id="line2d_21">
      <g>
       <use xlink:href="#m48c641bbb5" x="204.198527" y="440.25375" style="fill: #262626; stroke: #262626; stroke-width: 0.6"/>
      </g>
     </g>
    </g>
    <g id="xtick_22">
     <g id="line2d_22">
      <g>
       <use xlink:href="#m48c641bbb5" x="222.794524" y="440.25375" style="fill: #262626; stroke: #262626; stroke-width: 0.6"/>
      </g>
     </g>
    </g>
    <g id="xtick_23">
     <g id="line2d_23">
      <g>
       <use xlink:href="#m48c641bbb5" x="237.2187" y="440.25375" style="fill: #262626; stroke: #262626; stroke-width: 0.6"/>
      </g>
     </g>
    </g>
    <g id="xtick_24">
     <g id="line2d_24">
      <g>
       <use xlink:href="#m48c641bbb5" x="249.00411" y="440.25375" style="fill: #262626; stroke: #262626; stroke-width: 0.6"/>
      </g>
     </g>
    </g>
    <g id="xtick_25">
     <g id="line2d_25">
      <g>
       <use xlink:href="#m48c641bbb5" x="258.968532" y="440.25375" style="fill: #262626; stroke: #262626; stroke-width: 0.6"/>
      </g>
     </g>
    </g>
    <g id="xtick_26">
     <g id="line2d_26">
      <g>
       <use xlink:href="#m48c641bbb5" x="267.600107" y="440.25375" style="fill: #262626; stroke: #262626; stroke-width: 0.6"/>
      </g>
     </g>
    </g>
    <g id="xtick_27">
     <g id="line2d_27">
      <g>
       <use xlink:href="#m48c641bbb5" x="275.213696" y="440.25375" style="fill: #262626; stroke: #262626; stroke-width: 0.6"/>
      </g>
     </g>
    </g>
    <g id="xtick_28">
     <g id="line2d_28">
      <g>
       <use xlink:href="#m48c641bbb5" x="353.039452" y="440.25375" style="fill: #262626; stroke: #262626; stroke-width: 0.6"/>
      </g>
     </g>
    </g>
    <g id="xtick_29">
     <g id="line2d_29">
      <g>
       <use xlink:href="#m48c641bbb5" x="371.635449" y="440.25375" style="fill: #262626; stroke: #262626; stroke-width: 0.6"/>
      </g>
     </g>
    </g>
    <g id="xtick_30">
     <g id="line2d_30">
      <g>
       <use xlink:href="#m48c641bbb5" x="397.845035" y="440.25375" style="fill: #262626; stroke: #262626; stroke-width: 0.6"/>
      </g>
     </g>
    </g>
    <g id="xtick_31">
     <g id="line2d_31">
      <g>
       <use xlink:href="#m48c641bbb5" x="407.809457" y="440.25375" style="fill: #262626; stroke: #262626; stroke-width: 0.6"/>
      </g>
     </g>
    </g>
    <g id="xtick_32">
     <g id="line2d_32">
      <g>
       <use xlink:href="#m48c641bbb5" x="416.441032" y="440.25375" style="fill: #262626; stroke: #262626; stroke-width: 0.6"/>
      </g>
     </g>
    </g>
    <g id="xtick_33">
     <g id="line2d_33">
      <g>
       <use xlink:href="#m48c641bbb5" x="424.054621" y="440.25375" style="fill: #262626; stroke: #262626; stroke-width: 0.6"/>
      </g>
     </g>
    </g>
    <g id="xtick_34">
     <g id="line2d_34">
      <g>
       <use xlink:href="#m48c641bbb5" x="501.880377" y="440.25375" style="fill: #262626; stroke: #262626; stroke-width: 0.6"/>
      </g>
     </g>
    </g>
    <g id="xtick_35">
     <g id="line2d_35">
      <g>
       <use xlink:href="#m48c641bbb5" x="520.476374" y="440.25375" style="fill: #262626; stroke: #262626; stroke-width: 0.6"/>
      </g>
     </g>
    </g>
    <g id="xtick_36">
     <g id="line2d_36">
      <g>
       <use xlink:href="#m48c641bbb5" x="546.68596" y="440.25375" style="fill: #262626; stroke: #262626; stroke-width: 0.6"/>
      </g>
     </g>
    </g>
    <g id="xtick_37">
     <g id="line2d_37">
      <g>
       <use xlink:href="#m48c641bbb5" x="556.650382" y="440.25375" style="fill: #262626; stroke: #262626; stroke-width: 0.6"/>
      </g>
     </g>
    </g>
    <g id="xtick_38">
     <g id="line2d_38">
      <g>
       <use xlink:href="#m48c641bbb5" x="565.281957" y="440.25375" style="fill: #262626; stroke: #262626; stroke-width: 0.6"/>
      </g>
     </g>
    </g>
    <g id="xtick_39">
     <g id="line2d_39">
      <g>
       <use xlink:href="#m48c641bbb5" x="572.895546" y="440.25375" style="fill: #262626; stroke: #262626; stroke-width: 0.6"/>
      </g>
     </g>
    </g>
    <g id="xtick_40">
     <g id="line2d_40">
      <g>
       <use xlink:href="#m48c641bbb5" x="650.721302" y="440.25375" style="fill: #262626; stroke: #262626; stroke-width: 0.6"/>
      </g>
     </g>
    </g>
    <g id="xtick_41">
     <g id="line2d_41">
      <g>
       <use xlink:href="#m48c641bbb5" x="669.317299" y="440.25375" style="fill: #262626; stroke: #262626; stroke-width: 0.6"/>
      </g>
     </g>
    </g>
    <g id="xtick_42">
     <g id="line2d_42">
      <g>
       <use xlink:href="#m48c641bbb5" x="695.526885" y="440.25375" style="fill: #262626; stroke: #262626; stroke-width: 0.6"/>
      </g>
     </g>
    </g>
    <g id="xtick_43">
     <g id="line2d_43">
      <g>
       <use xlink:href="#m48c641bbb5" x="705.491307" y="440.25375" style="fill: #262626; stroke: #262626; stroke-width: 0.6"/>
      </g>
     </g>
    </g>
    <g id="xtick_44">
     <g id="line2d_44">
      <g>
       <use xlink:href="#m48c641bbb5" x="714.122882" y="440.25375" style="fill: #262626; stroke: #262626; stroke-width: 0.6"/>
      </g>
     </g>
    </g>
    <g id="xtick_45">
     <g id="line2d_45">
      <g>
       <use xlink:href="#m48c641bbb5" x="721.736471" y="440.25375" style="fill: #262626; stroke: #262626; stroke-width: 0.6"/>
      </g>
     </g>
    </g>
    <g id="xtick_46">
     <g id="line2d_46">
      <g>
       <use xlink:href="#m48c641bbb5" x="799.562227" y="440.25375" style="fill: #262626; stroke: #262626; stroke-width: 0.6"/>
      </g>
     </g>
    </g>
    <g id="xtick_47">
     <g id="line2d_47">
      <g>
       <use xlink:href="#m48c641bbb5" x="818.158225" y="440.25375" style="fill: #262626; stroke: #262626; stroke-width: 0.6"/>
      </g>
     </g>
    </g>
    <g id="xtick_48">
     <g id="line2d_48">
      <g>
       <use xlink:href="#m48c641bbb5" x="832.582401" y="440.25375" style="fill: #262626; stroke: #262626; stroke-width: 0.6"/>
      </g>
     </g>
    </g>
    <g id="text_12">
     <text style="font-size: 10px; font-family: 'Arial', 'DejaVu Sans', 'Liberation Sans', 'Bitstream Vera Sans', sans-serif; text-anchor: middle; fill: #262626" x="425.7" y="467.67875" transform="rotate(-0 425.7 467.67875)">Income or consumption (month)</text>
    </g>
   </g>
   <g id="matplotlib.axis_2"/>
   <g id="FillBetweenPolyCollection_1">
    <defs>
     <path id="m7c56056985" d="M 129.099187 -36.729718 
L 129.099187 -36.729687 
L 132.603601 -36.729687 
L 136.108016 -36.729687 
L 139.612431 -36.729687 
L 143.116846 -36.729687 
L 146.621261 -36.729687 
L 150.125675 -36.729687 
L 153.63009 -36.729687 
L 157.134505 -36.729687 
L 160.63892 -36.729687 
L 164.143334 -36.729687 
L 167.647749 -36.729687 
L 171.152164 -36.729687 
L 174.656579 -36.729687 
L 178.160994 -36.729687 
L 181.665408 -36.729687 
L 185.169823 -36.729687 
L 188.674238 -36.729687 
L 192.178653 -36.729687 
L 195.683067 -36.729687 
L 199.187482 -36.729687 
L 202.691897 -36.729687 
L 206.196312 -36.729687 
L 209.700727 -36.729687 
L 213.205141 -36.729687 
L 216.709556 -36.729687 
L 220.213971 -36.729687 
L 223.718386 -36.729687 
L 227.2228 -36.729687 
L 230.727215 -36.729687 
L 234.23163 -36.729687 
L 237.736045 -36.729687 
L 241.240459 -36.729687 
L 244.744874 -36.729687 
L 248.249289 -36.729687 
L 251.753704 -36.729687 
L 255.258119 -36.729687 
L 258.762533 -36.729687 
L 262.266948 -36.729687 
L 265.771363 -36.729687 
L 269.275778 -36.729687 
L 272.780192 -36.729687 
L 276.284607 -36.729687 
L 279.789022 -36.729687 
L 283.293437 -36.729687 
L 286.797852 -36.729687 
L 290.302266 -36.729687 
L 293.806681 -36.729687 
L 297.311096 -36.729687 
L 300.815511 -36.729687 
L 304.319925 -36.729687 
L 307.82434 -36.729687 
L 311.328755 -36.729687 
L 314.83317 -36.729687 
L 318.337585 -36.729687 
L 321.841999 -36.729687 
L 325.346414 -36.729687 
L 328.850829 -36.729687 
L 332.355244 -36.729687 
L 335.859658 -36.729687 
L 339.364073 -36.729687 
L 342.868488 -36.729687 
L 346.372903 -36.729687 
L 349.877318 -36.729687 
L 353.381732 -36.729687 
L 356.886147 -36.729687 
L 360.390562 -36.729687 
L 363.894977 -36.729687 
L 367.399391 -36.729687 
L 370.903806 -36.729687 
L 374.408221 -36.729687 
L 377.912636 -36.729687 
L 381.417051 -36.729687 
L 384.921465 -36.729687 
L 388.42588 -36.729687 
L 391.930295 -36.729687 
L 395.43471 -36.729687 
L 398.939124 -36.729687 
L 402.443539 -36.729687 
L 405.947954 -36.729687 
L 409.452369 -36.729687 
L 412.956784 -36.729687 
L 416.461198 -36.729687 
L 419.965613 -36.729687 
L 423.470028 -36.729687 
L 426.974443 -36.729687 
L 430.478857 -36.729687 
L 433.983272 -36.729687 
L 437.487687 -36.729687 
L 440.992102 -36.729687 
L 444.496517 -36.729687 
L 448.000931 -36.729687 
L 451.505346 -36.729687 
L 455.009761 -36.729687 
L 458.514176 -36.729687 
L 462.01859 -36.729687 
L 465.523005 -36.729687 
L 469.02742 -36.729687 
L 472.531835 -36.729687 
L 476.03625 -36.729687 
L 479.540664 -36.729687 
L 483.045079 -36.729687 
L 486.549494 -36.729687 
L 490.053909 -36.729687 
L 493.558323 -36.729687 
L 497.062738 -36.729687 
L 500.567153 -36.729687 
L 504.071568 -36.729687 
L 507.575982 -36.729687 
L 511.080397 -36.729687 
L 514.584812 -36.729687 
L 518.089227 -36.729687 
L 521.593642 -36.729687 
L 525.098056 -36.729687 
L 528.602471 -36.729687 
L 532.106886 -36.729687 
L 535.611301 -36.729687 
L 539.115715 -36.729687 
L 542.62013 -36.729687 
L 546.124545 -36.729687 
L 549.62896 -36.729687 
L 553.133375 -36.729687 
L 556.637789 -36.729687 
L 560.142204 -36.729687 
L 563.646619 -36.729687 
L 567.151034 -36.729687 
L 570.655448 -36.729687 
L 574.159863 -36.729687 
L 577.664278 -36.729687 
L 581.168693 -36.729687 
L 584.673108 -36.729687 
L 588.177522 -36.729687 
L 591.681937 -36.729687 
L 595.186352 -36.729687 
L 598.690767 -36.729687 
L 602.195181 -36.729687 
L 605.699596 -36.729687 
L 609.204011 -36.729687 
L 612.708426 -36.729687 
L 616.212841 -36.729687 
L 619.717255 -36.729687 
L 623.22167 -36.729687 
L 626.726085 -36.729687 
L 630.2305 -36.729687 
L 633.734914 -36.729687 
L 637.239329 -36.729687 
L 640.743744 -36.729687 
L 644.248159 -36.729687 
L 647.752574 -36.729687 
L 651.256988 -36.729687 
L 654.761403 -36.729687 
L 658.265818 -36.729687 
L 661.770233 -36.729687 
L 665.274647 -36.729687 
L 668.779062 -36.729687 
L 672.283477 -36.729687 
L 675.787892 -36.729687 
L 679.292307 -36.729687 
L 682.796721 -36.729687 
L 686.301136 -36.729687 
L 689.805551 -36.729687 
L 693.309966 -36.729687 
L 696.81438 -36.729687 
L 700.318795 -36.729687 
L 703.82321 -36.729687 
L 707.327625 -36.729687 
L 710.83204 -36.729687 
L 714.336454 -36.729687 
L 717.840869 -36.729687 
L 721.345284 -36.729687 
L 724.849699 -36.729687 
L 728.354113 -36.729687 
L 731.858528 -36.729687 
L 735.362943 -36.729687 
L 738.867358 -36.729687 
L 742.371772 -36.729687 
L 745.876187 -36.729687 
L 749.380602 -36.729687 
L 752.885017 -36.729687 
L 756.389432 -36.729687 
L 759.893846 -36.729687 
L 763.398261 -36.729687 
L 766.902676 -36.729687 
L 770.407091 -36.729687 
L 773.911505 -36.729687 
L 777.41592 -36.729687 
L 780.920335 -36.729687 
L 784.42475 -36.729687 
L 787.929165 -36.729687 
L 791.433579 -36.729687 
L 794.937994 -36.729687 
L 798.442409 -36.729687 
L 801.946824 -36.729687 
L 805.451238 -36.729687 
L 808.955653 -36.729687 
L 812.460068 -36.729687 
L 815.964483 -36.729687 
L 819.468898 -36.729687 
L 822.973312 -36.729687 
L 826.477727 -36.729687 
L 826.477727 -36.729687 
L 826.477727 -36.729687 
L 822.973312 -36.729687 
L 819.468898 -36.729687 
L 815.964483 -36.729687 
L 812.460068 -36.729687 
L 808.955653 -36.729687 
L 805.451238 -36.729687 
L 801.946824 -36.729687 
L 798.442409 -36.729687 
L 794.937994 -36.729687 
L 791.433579 -36.729687 
L 787.929165 -36.729687 
L 784.42475 -36.729687 
L 780.920335 -36.729687 
L 777.41592 -36.729687 
L 773.911505 -36.729687 
L 770.407091 -36.729687 
L 766.902676 -36.729687 
L 763.398261 -36.729687 
L 759.893846 -36.729687 
L 756.389432 -36.729687 
L 752.885017 -36.729687 
L 749.380602 -36.729687 
L 745.876187 -36.729687 
L 742.371772 -36.729687 
L 738.867358 -36.729687 
L 735.362943 -36.729687 
L 731.858528 -36.729687 
L 728.354113 -36.729687 
L 724.849699 -36.729687 
L 721.345284 -36.729687 
L 717.840869 -36.729687 
L 714.336454 -36.729687 
L 710.83204 -36.729688 
L 707.327625 -36.729688 
L 703.82321 -36.729688 
L 700.318795 -36.729688 
L 696.81438 -36.729688 
L 693.309966 -36.729688 
L 689.805551 -36.729688 
L 686.301136 -36.729688 
L 682.796721 -36.729688 
L 679.292307 -36.729689 
L 675.787892 -36.729692 
L 672.283477 -36.729706 
L 668.779062 -36.729752 
L 665.274647 -36.729894 
L 661.770233 -36.730288 
L 658.265818 -36.731288 
L 654.761403 -36.733583 
L 651.256988 -36.738304 
L 647.752574 -36.746984 
L 644.248159 -36.761235 
L 640.743744 -36.782226 
L 637.239329 -36.810297 
L 633.734914 -36.845095 
L 630.2305 -36.886211 
L 626.726085 -36.933734 
L 623.22167 -36.988083 
L 619.717255 -37.049149 
L 616.212841 -37.115571 
L 612.708426 -37.184939 
L 609.204011 -37.254885 
L 605.699596 -37.324236 
L 602.195181 -37.393471 
L 598.690767 -37.46439 
L 595.186352 -37.539431 
L 591.681937 -37.621034 
L 588.177522 -37.71117 
L 584.673108 -37.810993 
L 581.168693 -37.920661 
L 577.664278 -38.03951 
L 574.159863 -38.166616 
L 570.655448 -38.30159 
L 567.151034 -38.445351 
L 563.646619 -38.600913 
L 560.142204 -38.774383 
L 556.637789 -38.976124 
L 553.133375 -39.221143 
L 549.62896 -39.527174 
L 546.124545 -39.909832 
L 542.62013 -40.376591 
L 539.115715 -40.923294 
L 535.611301 -41.536015 
L 532.106886 -42.197558 
L 528.602471 -42.894709 
L 525.098056 -43.622448 
L 521.593642 -44.384002 
L 518.089227 -45.18819 
L 514.584812 -46.045919 
L 511.080397 -46.966885 
L 507.575982 -47.956889 
L 504.071568 -49.016223 
L 500.567153 -50.139547 
L 497.062738 -51.317156 
L 493.558323 -52.536994 
L 490.053909 -53.78663 
L 486.549494 -55.054642 
L 483.045079 -56.331155 
L 479.540664 -57.607508 
L 476.03625 -58.875346 
L 472.531835 -60.125647 
L 469.02742 -61.348223 
L 465.523005 -62.531879 
L 462.01859 -63.665017 
L 458.514176 -64.736298 
L 455.009761 -65.735095 
L 451.505346 -66.651713 
L 448.000931 -67.477491 
L 444.496517 -68.204897 
L 440.992102 -68.827653 
L 437.487687 -69.340847 
L 433.983272 -69.741023 
L 430.478857 -70.026204 
L 426.974443 -70.195882 
L 423.470028 -70.250959 
L 419.965613 -70.193653 
L 416.461198 -70.027385 
L 412.956784 -69.75664 
L 409.452369 -69.386811 
L 405.947954 -68.924029 
L 402.443539 -68.374984 
L 398.939124 -67.746758 
L 395.43471 -67.046677 
L 391.930295 -66.28219 
L 388.42588 -65.460779 
L 384.921465 -64.589889 
L 381.417051 -63.676859 
L 377.912636 -62.728779 
L 374.408221 -61.752164 
L 370.903806 -60.75239 
L 367.399391 -59.733039 
L 363.894977 -58.695661 
L 360.390562 -57.640722 
L 356.886147 -56.570131 
L 353.381732 -55.490531 
L 349.877318 -54.415115 
L 346.372903 -53.361803 
L 342.868488 -52.347857 
L 339.364073 -51.384058 
L 335.859658 -50.472217 
L 332.355244 -49.607289 
L 328.850829 -48.781907 
L 325.346414 -47.990019 
L 321.841999 -47.228037 
L 318.337585 -46.494188 
L 314.83317 -45.787684 
L 311.328755 -45.108519 
L 307.82434 -44.457541 
L 304.319925 -43.836062 
L 300.815511 -43.244836 
L 297.311096 -42.683151 
L 293.806681 -42.14899 
L 290.302266 -41.640402 
L 286.797852 -41.157095 
L 283.293437 -40.701054 
L 279.789022 -40.275885 
L 276.284607 -39.885542 
L 272.780192 -39.533182 
L 269.275778 -39.220348 
L 265.771363 -38.94639 
L 262.266948 -38.708246 
L 258.762533 -38.500794 
L 255.258119 -38.317744 
L 251.753704 -38.1527 
L 248.249289 -38.000075 
L 244.744874 -37.855687 
L 241.240459 -37.717002 
L 237.736045 -37.583033 
L 234.23163 -37.453986 
L 230.727215 -37.330879 
L 227.2228 -37.215365 
L 223.718386 -37.109722 
L 220.213971 -37.016669 
L 216.709556 -36.938749 
L 213.205141 -36.877422 
L 209.700727 -36.832369 
L 206.196312 -36.801461 
L 202.691897 -36.781386 
L 199.187482 -36.768598 
L 195.683067 -36.760109 
L 192.178653 -36.7539 
L 188.674238 -36.748911 
L 185.169823 -36.744765 
L 181.665408 -36.741418 
L 178.160994 -36.738875 
L 174.656579 -36.737055 
L 171.152164 -36.735792 
L 167.647749 -36.734882 
L 164.143334 -36.73415 
L 160.63892 -36.733474 
L 157.134505 -36.732793 
L 153.63009 -36.732101 
L 150.125675 -36.731436 
L 146.621261 -36.730851 
L 143.116846 -36.73039 
L 139.612431 -36.730069 
L 136.108016 -36.729873 
L 132.603601 -36.729767 
L 129.099187 -36.729718 
z
" style="stroke: #ffffff"/>
    </defs>
    <g>
     <use xlink:href="#m7c56056985" x="0" y="476.983437" style="fill: #da8bc3; fill-opacity: 0.75; stroke: #ffffff"/>
    </g>
   </g>
   <g id="FillBetweenPolyCollection_2">
    <defs>
     <path id="ma50e4b3804" d="M 129.099187 -36.729718 
L 129.099187 -36.729718 
L 132.603601 -36.729767 
L 136.108016 -36.729873 
L 139.612431 -36.730069 
L 143.116846 -36.73039 
L 146.621261 -36.730851 
L 150.125675 -36.731436 
L 153.63009 -36.732101 
L 157.134505 -36.732793 
L 160.63892 -36.733474 
L 164.143334 -36.73415 
L 167.647749 -36.734882 
L 171.152164 -36.735792 
L 174.656579 -36.737055 
L 178.160994 -36.738875 
L 181.665408 -36.741418 
L 185.169823 -36.744765 
L 188.674238 -36.748911 
L 192.178653 -36.7539 
L 195.683067 -36.760109 
L 199.187482 -36.768598 
L 202.691897 -36.781386 
L 206.196312 -36.801461 
L 209.700727 -36.832369 
L 213.205141 -36.877422 
L 216.709556 -36.938749 
L 220.213971 -37.016669 
L 223.718386 -37.109722 
L 227.2228 -37.215365 
L 230.727215 -37.330879 
L 234.23163 -37.453986 
L 237.736045 -37.583033 
L 241.240459 -37.717002 
L 244.744874 -37.855687 
L 248.249289 -38.000075 
L 251.753704 -38.1527 
L 255.258119 -38.317744 
L 258.762533 -38.500794 
L 262.266948 -38.708246 
L 265.771363 -38.94639 
L 269.275778 -39.220348 
L 272.780192 -39.533182 
L 276.284607 -39.885542 
L 279.789022 -40.275885 
L 283.293437 -40.701054 
L 286.797852 -41.157095 
L 290.302266 -41.640402 
L 293.806681 -42.14899 
L 297.311096 -42.683151 
L 300.815511 -43.244836 
L 304.319925 -43.836062 
L 307.82434 -44.457541 
L 311.328755 -45.108519 
L 314.83317 -45.787684 
L 318.337585 -46.494188 
L 321.841999 -47.228037 
L 325.346414 -47.990019 
L 328.850829 -48.781907 
L 332.355244 -49.607289 
L 335.859658 -50.472217 
L 339.364073 -51.384058 
L 342.868488 -52.347857 
L 346.372903 -53.361803 
L 349.877318 -54.415115 
L 353.381732 -55.490531 
L 356.886147 -56.570131 
L 360.390562 -57.640722 
L 363.894977 -58.695661 
L 367.399391 -59.733039 
L 370.903806 -60.75239 
L 374.408221 -61.752164 
L 377.912636 -62.728779 
L 381.417051 -63.676859 
L 384.921465 -64.589889 
L 388.42588 -65.460779 
L 391.930295 -66.28219 
L 395.43471 -67.046677 
L 398.939124 -67.746758 
L 402.443539 -68.374984 
L 405.947954 -68.924029 
L 409.452369 -69.386811 
L 412.956784 -69.75664 
L 416.461198 -70.027385 
L 419.965613 -70.193653 
L 423.470028 -70.250959 
L 426.974443 -70.195882 
L 430.478857 -70.026204 
L 433.983272 -69.741023 
L 437.487687 -69.340847 
L 440.992102 -68.827653 
L 444.496517 -68.204897 
L 448.000931 -67.477491 
L 451.505346 -66.651713 
L 455.009761 -65.735095 
L 458.514176 -64.736298 
L 462.01859 -63.665017 
L 465.523005 -62.531879 
L 469.02742 -61.348223 
L 472.531835 -60.125647 
L 476.03625 -58.875346 
L 479.540664 -57.607508 
L 483.045079 -56.331155 
L 486.549494 -55.054642 
L 490.053909 -53.78663 
L 493.558323 -52.536994 
L 497.062738 -51.317156 
L 500.567153 -50.139547 
L 504.071568 -49.016223 
L 507.575982 -47.956889 
L 511.080397 -46.966885 
L 514.584812 -46.045919 
L 518.089227 -45.18819 
L 521.593642 -44.384002 
L 525.098056 -43.622448 
L 528.602471 -42.894709 
L 532.106886 -42.197558 
L 535.611301 -41.536015 
L 539.115715 -40.923294 
L 542.62013 -40.376591 
L 546.124545 -39.909832 
L 549.62896 -39.527174 
L 553.133375 -39.221143 
L 556.637789 -38.976124 
L 560.142204 -38.774383 
L 563.646619 -38.600913 
L 567.151034 -38.445351 
L 570.655448 -38.30159 
L 574.159863 -38.166616 
L 577.664278 -38.03951 
L 581.168693 -37.920661 
L 584.673108 -37.810993 
L 588.177522 -37.71117 
L 591.681937 -37.621034 
L 595.186352 -37.539431 
L 598.690767 -37.46439 
L 602.195181 -37.393471 
L 605.699596 -37.324236 
L 609.204011 -37.254885 
L 612.708426 -37.184939 
L 616.212841 -37.115571 
L 619.717255 -37.049149 
L 623.22167 -36.988083 
L 626.726085 -36.933734 
L 630.2305 -36.886211 
L 633.734914 -36.845095 
L 637.239329 -36.810297 
L 640.743744 -36.782226 
L 644.248159 -36.761235 
L 647.752574 -36.746984 
L 651.256988 -36.738304 
L 654.761403 -36.733583 
L 658.265818 -36.731288 
L 661.770233 -36.730288 
L 665.274647 -36.729894 
L 668.779062 -36.729752 
L 672.283477 -36.729706 
L 675.787892 -36.729692 
L 679.292307 -36.729689 
L 682.796721 -36.729688 
L 686.301136 -36.729688 
L 689.805551 -36.729688 
L 693.309966 -36.729688 
L 696.81438 -36.729688 
L 700.318795 -36.729688 
L 703.82321 -36.729688 
L 707.327625 -36.729688 
L 710.83204 -36.729688 
L 714.336454 -36.729687 
L 717.840869 -36.729687 
L 721.345284 -36.729687 
L 724.849699 -36.729687 
L 728.354113 -36.729687 
L 731.858528 -36.729687 
L 735.362943 -36.729687 
L 738.867358 -36.729687 
L 742.371772 -36.729687 
L 745.876187 -36.729687 
L 749.380602 -36.729687 
L 752.885017 -36.729687 
L 756.389432 -36.729687 
L 759.893846 -36.729687 
L 763.398261 -36.729687 
L 766.902676 -36.729687 
L 770.407091 -36.729687 
L 773.911505 -36.729687 
L 777.41592 -36.729687 
L 780.920335 -36.729687 
L 784.42475 -36.729687 
L 787.929165 -36.729687 
L 791.433579 -36.729687 
L 794.937994 -36.729687 
L 798.442409 -36.729687 
L 801.946824 -36.729687 
L 805.451238 -36.729687 
L 808.955653 -36.729687 
L 812.460068 -36.729687 
L 815.964483 -36.729687 
L 819.468898 -36.729687 
L 822.973312 -36.729687 
L 826.477727 -36.729687 
L 826.477727 -36.729687 
L 826.477727 -36.729687 
L 822.973312 -36.729687 
L 819.468898 -36.729687 
L 815.964483 -36.729687 
L 812.460068 -36.729687 
L 808.955653 -36.729687 
L 805.451238 -36.729687 
L 801.946824 -36.729687 
L 798.442409 -36.729687 
L 794.937994 -36.729687 
L 791.433579 -36.729687 
L 787.929165 -36.729687 
L 784.42475 -36.729687 
L 780.920335 -36.729687 
L 777.41592 -36.729687 
L 773.911505 -36.729687 
L 770.407091 -36.729687 
L 766.902676 -36.729687 
L 763.398261 -36.729687 
L 759.893846 -36.729687 
L 756.389432 -36.729687 
L 752.885017 -36.729687 
L 749.380602 -36.729687 
L 745.876187 -36.729687 
L 742.371772 -36.729687 
L 738.867358 -36.729687 
L 735.362943 -36.729687 
L 731.858528 -36.729687 
L 728.354113 -36.729687 
L 724.849699 -36.729687 
L 721.345284 -36.729687 
L 717.840869 -36.729687 
L 714.336454 -36.729687 
L 710.83204 -36.729688 
L 707.327625 -36.729688 
L 703.82321 -36.729688 
L 700.318795 -36.729688 
L 696.81438 -36.729688 
L 693.309966 -36.729688 
L 689.805551 -36.729688 
L 686.301136 -36.729688 
L 682.796721 -36.729688 
L 679.292307 -36.729689 
L 675.787892 -36.729692 
L 672.283477 -36.729706 
L 668.779062 -36.729752 
L 665.274647 -36.729894 
L 661.770233 -36.730288 
L 658.265818 -36.731288 
L 654.761403 -36.733583 
L 651.256988 -36.738304 
L 647.752574 -36.746984 
L 644.248159 -36.761235 
L 640.743744 -36.782226 
L 637.239329 -36.810297 
L 633.734914 -36.845095 
L 630.2305 -36.886211 
L 626.726085 -36.933734 
L 623.22167 -36.988083 
L 619.717255 -37.049149 
L 616.212841 -37.115571 
L 612.708426 -37.184939 
L 609.204011 -37.254885 
L 605.699596 -37.324236 
L 602.195181 -37.393471 
L 598.690767 -37.46439 
L 595.186352 -37.539431 
L 591.681937 -37.621034 
L 588.177522 -37.71117 
L 584.673108 -37.810994 
L 581.168693 -37.920664 
L 577.664278 -38.039523 
L 574.159863 -38.166681 
L 570.655448 -38.301847 
L 567.151034 -38.446236 
L 563.646619 -38.603529 
L 560.142204 -38.781067 
L 556.637789 -38.99098 
L 553.133375 -39.250094 
L 549.62896 -39.577198 
L 546.124545 -39.9877 
L 542.62013 -40.488309 
L 539.115715 -41.075767 
L 535.611301 -41.741604 
L 532.106886 -42.480609 
L 528.602471 -43.298133 
L 525.098056 -44.214155 
L 521.593642 -45.268061 
L 518.089227 -46.529138 
L 514.584812 -48.107228 
L 511.080397 -50.143612 
L 507.575982 -52.766329 
L 504.071568 -56.026581 
L 500.567153 -59.865087 
L 497.062738 -64.144922 
L 493.558323 -68.731357 
L 490.053909 -73.557748 
L 486.549494 -78.634874 
L 483.045079 -84.013708 
L 479.540664 -89.740963 
L 476.03625 -95.834691 
L 472.531835 -102.281138 
L 469.02742 -109.041052 
L 465.523005 -116.055942 
L 462.01859 -123.251525 
L 458.514176 -130.53942 
L 455.009761 -137.818638 
L 451.505346 -144.977616 
L 448.000931 -151.896959 
L 444.496517 -158.452779 
L 440.992102 -164.520521 
L 437.487687 -169.979075 
L 433.983272 -174.71501 
L 430.478857 -178.626704 
L 426.974443 -181.628187 
L 423.470028 -183.652476 
L 419.965613 -184.654237 
L 416.461198 -184.611607 
L 412.956784 -183.527091 
L 409.452369 -181.427452 
L 405.947954 -178.36262 
L 402.443539 -174.403661 
L 398.939124 -169.639951 
L 395.43471 -164.175705 
L 391.930295 -158.126069 
L 388.42588 -151.612966 
L 384.921465 -144.760927 
L 381.417051 -137.693065 
L 377.912636 -130.527315 
L 374.408221 -123.372974 
L 370.903806 -116.327593 
L 367.399391 -109.474386 
L 363.894977 -102.880558 
L 360.390562 -96.596845 
L 356.886147 -90.657722 
L 353.381732 -85.080402 
L 349.877318 -79.861207 
L 346.372903 -74.972867 
L 342.868488 -70.373407 
L 339.364073 -66.035177 
L 335.859658 -61.982955 
L 332.355244 -58.307513 
L 328.850829 -55.128082 
L 325.346414 -52.520645 
L 321.841999 -50.465998 
L 318.337585 -48.85724 
L 314.83317 -47.554822 
L 311.328755 -46.443713 
L 307.82434 -45.458329 
L 304.319925 -44.57361 
L 300.815511 -43.781832 
L 297.311096 -43.074544 
L 293.806681 -42.437282 
L 290.302266 -41.853788 
L 286.797852 -41.312347 
L 283.293437 -40.808825 
L 279.789022 -40.345264 
L 276.284607 -39.926028 
L 272.780192 -39.554237 
L 269.275778 -39.229986 
L 265.771363 -38.950239 
L 262.266948 -38.709578 
L 258.762533 -38.501192 
L 255.258119 -38.317846 
L 251.753704 -38.152722 
L 248.249289 -38.00008 
L 244.744874 -37.855688 
L 241.240459 -37.717002 
L 237.736045 -37.583033 
L 234.23163 -37.453986 
L 230.727215 -37.330879 
L 227.2228 -37.215365 
L 223.718386 -37.109722 
L 220.213971 -37.016669 
L 216.709556 -36.938749 
L 213.205141 -36.877422 
L 209.700727 -36.832369 
L 206.196312 -36.801461 
L 202.691897 -36.781386 
L 199.187482 -36.768598 
L 195.683067 -36.760109 
L 192.178653 -36.7539 
L 188.674238 -36.748911 
L 185.169823 -36.744765 
L 181.665408 -36.741418 
L 178.160994 -36.738875 
L 174.656579 -36.737055 
L 171.152164 -36.735792 
L 167.647749 -36.734882 
L 164.143334 -36.73415 
L 160.63892 -36.733474 
L 157.134505 -36.732793 
L 153.63009 -36.732101 
L 150.125675 -36.731436 
L 146.621261 -36.730851 
L 143.116846 -36.73039 
L 139.612431 -36.730069 
L 136.108016 -36.729873 
L 132.603601 -36.729767 
L 129.099187 -36.729718 
z
" style="stroke: #ffffff"/>
    </defs>
    <g>
     <use xlink:href="#ma50e4b3804" x="0" y="476.983437" style="fill: #937860; fill-opacity: 0.75; stroke: #ffffff"/>
    </g>
   </g>
   <g id="FillBetweenPolyCollection_3">
    <defs>
     <path id="mc53ba601aa" d="M 129.099187 -36.729718 
L 129.099187 -36.729718 
L 132.603601 -36.729767 
L 136.108016 -36.729873 
L 139.612431 -36.730069 
L 143.116846 -36.73039 
L 146.621261 -36.730851 
L 150.125675 -36.731436 
L 153.63009 -36.732101 
L 157.134505 -36.732793 
L 160.63892 -36.733474 
L 164.143334 -36.73415 
L 167.647749 -36.734882 
L 171.152164 -36.735792 
L 174.656579 -36.737055 
L 178.160994 -36.738875 
L 181.665408 -36.741418 
L 185.169823 -36.744765 
L 188.674238 -36.748911 
L 192.178653 -36.7539 
L 195.683067 -36.760109 
L 199.187482 -36.768598 
L 202.691897 -36.781386 
L 206.196312 -36.801461 
L 209.700727 -36.832369 
L 213.205141 -36.877422 
L 216.709556 -36.938749 
L 220.213971 -37.016669 
L 223.718386 -37.109722 
L 227.2228 -37.215365 
L 230.727215 -37.330879 
L 234.23163 -37.453986 
L 237.736045 -37.583033 
L 241.240459 -37.717002 
L 244.744874 -37.855688 
L 248.249289 -38.00008 
L 251.753704 -38.152722 
L 255.258119 -38.317846 
L 258.762533 -38.501192 
L 262.266948 -38.709578 
L 265.771363 -38.950239 
L 269.275778 -39.229986 
L 272.780192 -39.554237 
L 276.284607 -39.926028 
L 279.789022 -40.345264 
L 283.293437 -40.808825 
L 286.797852 -41.312347 
L 290.302266 -41.853788 
L 293.806681 -42.437282 
L 297.311096 -43.074544 
L 300.815511 -43.781832 
L 304.319925 -44.57361 
L 307.82434 -45.458329 
L 311.328755 -46.443713 
L 314.83317 -47.554822 
L 318.337585 -48.85724 
L 321.841999 -50.465998 
L 325.346414 -52.520645 
L 328.850829 -55.128082 
L 332.355244 -58.307513 
L 335.859658 -61.982955 
L 339.364073 -66.035177 
L 342.868488 -70.373407 
L 346.372903 -74.972867 
L 349.877318 -79.861207 
L 353.381732 -85.080402 
L 356.886147 -90.657722 
L 360.390562 -96.596845 
L 363.894977 -102.880558 
L 367.399391 -109.474386 
L 370.903806 -116.327593 
L 374.408221 -123.372974 
L 377.912636 -130.527315 
L 381.417051 -137.693065 
L 384.921465 -144.760927 
L 388.42588 -151.612966 
L 391.930295 -158.126069 
L 395.43471 -164.175705 
L 398.939124 -169.639951 
L 402.443539 -174.403661 
L 405.947954 -178.36262 
L 409.452369 -181.427452 
L 412.956784 -183.527091 
L 416.461198 -184.611607 
L 419.965613 -184.654237 
L 423.470028 -183.652476 
L 426.974443 -181.628187 
L 430.478857 -178.626704 
L 433.983272 -174.71501 
L 437.487687 -169.979075 
L 440.992102 -164.520521 
L 444.496517 -158.452779 
L 448.000931 -151.896959 
L 451.505346 -144.977616 
L 455.009761 -137.818638 
L 458.514176 -130.53942 
L 462.01859 -123.251525 
L 465.523005 -116.055942 
L 469.02742 -109.041052 
L 472.531835 -102.281138 
L 476.03625 -95.834691 
L 479.540664 -89.740963 
L 483.045079 -84.013708 
L 486.549494 -78.634874 
L 490.053909 -73.557748 
L 493.558323 -68.731357 
L 497.062738 -64.144922 
L 500.567153 -59.865087 
L 504.071568 -56.026581 
L 507.575982 -52.766329 
L 511.080397 -50.143612 
L 514.584812 -48.107228 
L 518.089227 -46.529138 
L 521.593642 -45.268061 
L 525.098056 -44.214155 
L 528.602471 -43.298133 
L 532.106886 -42.480609 
L 535.611301 -41.741604 
L 539.115715 -41.075767 
L 542.62013 -40.488309 
L 546.124545 -39.9877 
L 549.62896 -39.577198 
L 553.133375 -39.250094 
L 556.637789 -38.99098 
L 560.142204 -38.781067 
L 563.646619 -38.603529 
L 567.151034 -38.446236 
L 570.655448 -38.301847 
L 574.159863 -38.166681 
L 577.664278 -38.039523 
L 581.168693 -37.920664 
L 584.673108 -37.810994 
L 588.177522 -37.71117 
L 591.681937 -37.621034 
L 595.186352 -37.539431 
L 598.690767 -37.46439 
L 602.195181 -37.393471 
L 605.699596 -37.324236 
L 609.204011 -37.254885 
L 612.708426 -37.184939 
L 616.212841 -37.115571 
L 619.717255 -37.049149 
L 623.22167 -36.988083 
L 626.726085 -36.933734 
L 630.2305 -36.886211 
L 633.734914 -36.845095 
L 637.239329 -36.810297 
L 640.743744 -36.782226 
L 644.248159 -36.761235 
L 647.752574 -36.746984 
L 651.256988 -36.738304 
L 654.761403 -36.733583 
L 658.265818 -36.731288 
L 661.770233 -36.730288 
L 665.274647 -36.729894 
L 668.779062 -36.729752 
L 672.283477 -36.729706 
L 675.787892 -36.729692 
L 679.292307 -36.729689 
L 682.796721 -36.729688 
L 686.301136 -36.729688 
L 689.805551 -36.729688 
L 693.309966 -36.729688 
L 696.81438 -36.729688 
L 700.318795 -36.729688 
L 703.82321 -36.729688 
L 707.327625 -36.729688 
L 710.83204 -36.729688 
L 714.336454 -36.729687 
L 717.840869 -36.729687 
L 721.345284 -36.729687 
L 724.849699 -36.729687 
L 728.354113 -36.729687 
L 731.858528 -36.729687 
L 735.362943 -36.729687 
L 738.867358 -36.729687 
L 742.371772 -36.729687 
L 745.876187 -36.729687 
L 749.380602 -36.729687 
L 752.885017 -36.729687 
L 756.389432 -36.729687 
L 759.893846 -36.729687 
L 763.398261 -36.729687 
L 766.902676 -36.729687 
L 770.407091 -36.729687 
L 773.911505 -36.729687 
L 777.41592 -36.729687 
L 780.920335 -36.729687 
L 784.42475 -36.729687 
L 787.929165 -36.729687 
L 791.433579 -36.729687 
L 794.937994 -36.729687 
L 798.442409 -36.729687 
L 801.946824 -36.729687 
L 805.451238 -36.729687 
L 808.955653 -36.729687 
L 812.460068 -36.729687 
L 815.964483 -36.729687 
L 819.468898 -36.729687 
L 822.973312 -36.729687 
L 826.477727 -36.729687 
L 826.477727 -36.729687 
L 826.477727 -36.729687 
L 822.973312 -36.729687 
L 819.468898 -36.729687 
L 815.964483 -36.729687 
L 812.460068 -36.729687 
L 808.955653 -36.729687 
L 805.451238 -36.729687 
L 801.946824 -36.729687 
L 798.442409 -36.729687 
L 794.937994 -36.729687 
L 791.433579 -36.729687 
L 787.929165 -36.729687 
L 784.42475 -36.729687 
L 780.920335 -36.729687 
L 777.41592 -36.729687 
L 773.911505 -36.729687 
L 770.407091 -36.729687 
L 766.902676 -36.729688 
L 763.398261 -36.729688 
L 759.893846 -36.729688 
L 756.389432 -36.729688 
L 752.885017 -36.729688 
L 749.380602 -36.729688 
L 745.876187 -36.729688 
L 742.371772 -36.729688 
L 738.867358 -36.729689 
L 735.362943 -36.729699 
L 731.858528 -36.72975 
L 728.354113 -36.729984 
L 724.849699 -36.730923 
L 721.345284 -36.734204 
L 717.840869 -36.74419 
L 714.336454 -36.770725 
L 710.83204 -36.832374 
L 707.327625 -36.957947 
L 703.82321 -37.183058 
L 700.318795 -37.540234 
L 696.81438 -38.04604 
L 693.309966 -38.693168 
L 689.805551 -39.454103 
L 686.301136 -40.295135 
L 682.796721 -41.191817 
L 679.292307 -42.136752 
L 675.787892 -43.137313 
L 672.283477 -44.207729 
L 668.779062 -45.361446 
L 665.274647 -46.6069 
L 661.770233 -47.946505 
L 658.265818 -49.37736 
L 654.761403 -50.892344 
L 651.256988 -52.480978 
L 647.752574 -54.129865 
L 644.248159 -55.822689 
L 640.743744 -57.540012 
L 637.239329 -59.259248 
L 633.734914 -60.955272 
L 630.2305 -62.601613 
L 626.726085 -64.171664 
L 623.22167 -65.639228 
L 619.717255 -66.978428 
L 616.212841 -68.163756 
L 612.708426 -69.17103 
L 609.204011 -69.979189 
L 605.699596 -70.572065 
L 602.195181 -70.939347 
L 598.690767 -71.07662 
L 595.186352 -70.984895 
L 591.681937 -70.670026 
L 588.177522 -70.142127 
L 584.673108 -69.414937 
L 581.168693 -68.505222 
L 577.664278 -67.432399 
L 574.159863 -66.218458 
L 570.655448 -64.888072 
L 567.151034 -63.468725 
L 563.646619 -61.990902 
L 560.142204 -60.488535 
L 556.637789 -58.999423 
L 553.133375 -57.564527 
L 549.62896 -56.224716 
L 546.124545 -55.014997 
L 542.62013 -53.958904 
L 539.115715 -53.066997 
L 535.611301 -52.341402 
L 532.106886 -51.7839 
L 528.602471 -51.402469 
L 525.098056 -51.214144 
L 521.593642 -51.248786 
L 518.089227 -51.560439 
L 514.584812 -52.242767 
L 511.080397 -53.428741 
L 507.575982 -55.254624 
L 504.071568 -57.797835 
L 500.567153 -61.033457 
L 497.062738 -64.850177 
L 493.558323 -69.116823 
L 490.053909 -73.746891 
L 486.549494 -78.717634 
L 483.045079 -84.045829 
L 479.540664 -89.751977 
L 476.03625 -95.838016 
L 472.531835 -102.28202 
L 469.02742 -109.041257 
L 465.523005 -116.055984 
L 462.01859 -123.251532 
L 458.514176 -130.539421 
L 455.009761 -137.818638 
L 451.505346 -144.977616 
L 448.000931 -151.896959 
L 444.496517 -158.452779 
L 440.992102 -164.520521 
L 437.487687 -169.979075 
L 433.983272 -174.71501 
L 430.478857 -178.626704 
L 426.974443 -181.628187 
L 423.470028 -183.652476 
L 419.965613 -184.654237 
L 416.461198 -184.611607 
L 412.956784 -183.527091 
L 409.452369 -181.427452 
L 405.947954 -178.36262 
L 402.443539 -174.403661 
L 398.939124 -169.639951 
L 395.43471 -164.175705 
L 391.930295 -158.126069 
L 388.42588 -151.612966 
L 384.921465 -144.760927 
L 381.417051 -137.693065 
L 377.912636 -130.527315 
L 374.408221 -123.372974 
L 370.903806 -116.327593 
L 367.399391 -109.474386 
L 363.894977 -102.880558 
L 360.390562 -96.596845 
L 356.886147 -90.657722 
L 353.381732 -85.080402 
L 349.877318 -79.861207 
L 346.372903 -74.972867 
L 342.868488 -70.373407 
L 339.364073 -66.035177 
L 335.859658 -61.982955 
L 332.355244 -58.307513 
L 328.850829 -55.128082 
L 325.346414 -52.520645 
L 321.841999 -50.465998 
L 318.337585 -48.85724 
L 314.83317 -47.554822 
L 311.328755 -46.443713 
L 307.82434 -45.458329 
L 304.319925 -44.57361 
L 300.815511 -43.781832 
L 297.311096 -43.074544 
L 293.806681 -42.437282 
L 290.302266 -41.853788 
L 286.797852 -41.312347 
L 283.293437 -40.808825 
L 279.789022 -40.345264 
L 276.284607 -39.926028 
L 272.780192 -39.554237 
L 269.275778 -39.229986 
L 265.771363 -38.950239 
L 262.266948 -38.709578 
L 258.762533 -38.501192 
L 255.258119 -38.317846 
L 251.753704 -38.152722 
L 248.249289 -38.00008 
L 244.744874 -37.855688 
L 241.240459 -37.717002 
L 237.736045 -37.583033 
L 234.23163 -37.453986 
L 230.727215 -37.330879 
L 227.2228 -37.215365 
L 223.718386 -37.109722 
L 220.213971 -37.016669 
L 216.709556 -36.938749 
L 213.205141 -36.877422 
L 209.700727 -36.832369 
L 206.196312 -36.801461 
L 202.691897 -36.781386 
L 199.187482 -36.768598 
L 195.683067 -36.760109 
L 192.178653 -36.7539 
L 188.674238 -36.748911 
L 185.169823 -36.744765 
L 181.665408 -36.741418 
L 178.160994 -36.738875 
L 174.656579 -36.737055 
L 171.152164 -36.735792 
L 167.647749 -36.734882 
L 164.143334 -36.73415 
L 160.63892 -36.733474 
L 157.134505 -36.732793 
L 153.63009 -36.732101 
L 150.125675 -36.731436 
L 146.621261 -36.730851 
L 143.116846 -36.73039 
L 139.612431 -36.730069 
L 136.108016 -36.729873 
L 132.603601 -36.729767 
L 129.099187 -36.729718 
z
" style="stroke: #ffffff"/>
    </defs>
    <g>
     <use xlink:href="#mc53ba601aa" x="0" y="476.983437" style="fill: #8172b3; fill-opacity: 0.75; stroke: #ffffff"/>
    </g>
   </g>
   <g id="FillBetweenPolyCollection_4">
    <defs>
     <path id="m68633c335a" d="M 129.099187 -36.729718 
L 129.099187 -36.729718 
L 132.603601 -36.729767 
L 136.108016 -36.729873 
L 139.612431 -36.730069 
L 143.116846 -36.73039 
L 146.621261 -36.730851 
L 150.125675 -36.731436 
L 153.63009 -36.732101 
L 157.134505 -36.732793 
L 160.63892 -36.733474 
L 164.143334 -36.73415 
L 167.647749 -36.734882 
L 171.152164 -36.735792 
L 174.656579 -36.737055 
L 178.160994 -36.738875 
L 181.665408 -36.741418 
L 185.169823 -36.744765 
L 188.674238 -36.748911 
L 192.178653 -36.7539 
L 195.683067 -36.760109 
L 199.187482 -36.768598 
L 202.691897 -36.781386 
L 206.196312 -36.801461 
L 209.700727 -36.832369 
L 213.205141 -36.877422 
L 216.709556 -36.938749 
L 220.213971 -37.016669 
L 223.718386 -37.109722 
L 227.2228 -37.215365 
L 230.727215 -37.330879 
L 234.23163 -37.453986 
L 237.736045 -37.583033 
L 241.240459 -37.717002 
L 244.744874 -37.855688 
L 248.249289 -38.00008 
L 251.753704 -38.152722 
L 255.258119 -38.317846 
L 258.762533 -38.501192 
L 262.266948 -38.709578 
L 265.771363 -38.950239 
L 269.275778 -39.229986 
L 272.780192 -39.554237 
L 276.284607 -39.926028 
L 279.789022 -40.345264 
L 283.293437 -40.808825 
L 286.797852 -41.312347 
L 290.302266 -41.853788 
L 293.806681 -42.437282 
L 297.311096 -43.074544 
L 300.815511 -43.781832 
L 304.319925 -44.57361 
L 307.82434 -45.458329 
L 311.328755 -46.443713 
L 314.83317 -47.554822 
L 318.337585 -48.85724 
L 321.841999 -50.465998 
L 325.346414 -52.520645 
L 328.850829 -55.128082 
L 332.355244 -58.307513 
L 335.859658 -61.982955 
L 339.364073 -66.035177 
L 342.868488 -70.373407 
L 346.372903 -74.972867 
L 349.877318 -79.861207 
L 353.381732 -85.080402 
L 356.886147 -90.657722 
L 360.390562 -96.596845 
L 363.894977 -102.880558 
L 367.399391 -109.474386 
L 370.903806 -116.327593 
L 374.408221 -123.372974 
L 377.912636 -130.527315 
L 381.417051 -137.693065 
L 384.921465 -144.760927 
L 388.42588 -151.612966 
L 391.930295 -158.126069 
L 395.43471 -164.175705 
L 398.939124 -169.639951 
L 402.443539 -174.403661 
L 405.947954 -178.36262 
L 409.452369 -181.427452 
L 412.956784 -183.527091 
L 416.461198 -184.611607 
L 419.965613 -184.654237 
L 423.470028 -183.652476 
L 426.974443 -181.628187 
L 430.478857 -178.626704 
L 433.983272 -174.71501 
L 437.487687 -169.979075 
L 440.992102 -164.520521 
L 444.496517 -158.452779 
L 448.000931 -151.896959 
L 451.505346 -144.977616 
L 455.009761 -137.818638 
L 458.514176 -130.539421 
L 462.01859 -123.251532 
L 465.523005 -116.055984 
L 469.02742 -109.041257 
L 472.531835 -102.28202 
L 476.03625 -95.838016 
L 479.540664 -89.751977 
L 483.045079 -84.045829 
L 486.549494 -78.717634 
L 490.053909 -73.746891 
L 493.558323 -69.116823 
L 497.062738 -64.850177 
L 500.567153 -61.033457 
L 504.071568 -57.797835 
L 507.575982 -55.254624 
L 511.080397 -53.428741 
L 514.584812 -52.242767 
L 518.089227 -51.560439 
L 521.593642 -51.248786 
L 525.098056 -51.214144 
L 528.602471 -51.402469 
L 532.106886 -51.7839 
L 535.611301 -52.341402 
L 539.115715 -53.066997 
L 542.62013 -53.958904 
L 546.124545 -55.014997 
L 549.62896 -56.224716 
L 553.133375 -57.564527 
L 556.637789 -58.999423 
L 560.142204 -60.488535 
L 563.646619 -61.990902 
L 567.151034 -63.468725 
L 570.655448 -64.888072 
L 574.159863 -66.218458 
L 577.664278 -67.432399 
L 581.168693 -68.505222 
L 584.673108 -69.414937 
L 588.177522 -70.142127 
L 591.681937 -70.670026 
L 595.186352 -70.984895 
L 598.690767 -71.07662 
L 602.195181 -70.939347 
L 605.699596 -70.572065 
L 609.204011 -69.979189 
L 612.708426 -69.17103 
L 616.212841 -68.163756 
L 619.717255 -66.978428 
L 623.22167 -65.639228 
L 626.726085 -64.171664 
L 630.2305 -62.601613 
L 633.734914 -60.955272 
L 637.239329 -59.259248 
L 640.743744 -57.540012 
L 644.248159 -55.822689 
L 647.752574 -54.129865 
L 651.256988 -52.480978 
L 654.761403 -50.892344 
L 658.265818 -49.37736 
L 661.770233 -47.946505 
L 665.274647 -46.6069 
L 668.779062 -45.361446 
L 672.283477 -44.207729 
L 675.787892 -43.137313 
L 679.292307 -42.136752 
L 682.796721 -41.191817 
L 686.301136 -40.295135 
L 689.805551 -39.454103 
L 693.309966 -38.693168 
L 696.81438 -38.04604 
L 700.318795 -37.540234 
L 703.82321 -37.183058 
L 707.327625 -36.957947 
L 710.83204 -36.832374 
L 714.336454 -36.770725 
L 717.840869 -36.74419 
L 721.345284 -36.734204 
L 724.849699 -36.730923 
L 728.354113 -36.729984 
L 731.858528 -36.72975 
L 735.362943 -36.729699 
L 738.867358 -36.729689 
L 742.371772 -36.729688 
L 745.876187 -36.729688 
L 749.380602 -36.729688 
L 752.885017 -36.729688 
L 756.389432 -36.729688 
L 759.893846 -36.729688 
L 763.398261 -36.729688 
L 766.902676 -36.729688 
L 770.407091 -36.729687 
L 773.911505 -36.729687 
L 777.41592 -36.729687 
L 780.920335 -36.729687 
L 784.42475 -36.729687 
L 787.929165 -36.729687 
L 791.433579 -36.729687 
L 794.937994 -36.729687 
L 798.442409 -36.729687 
L 801.946824 -36.729687 
L 805.451238 -36.729687 
L 808.955653 -36.729687 
L 812.460068 -36.729687 
L 815.964483 -36.729687 
L 819.468898 -36.729687 
L 822.973312 -36.729687 
L 826.477727 -36.729687 
L 826.477727 -36.730182 
L 826.477727 -36.730182 
L 822.973312 -36.730611 
L 819.468898 -36.731305 
L 815.964483 -36.732354 
L 812.460068 -36.733839 
L 808.955653 -36.735818 
L 805.451238 -36.738311 
L 801.946824 -36.741306 
L 798.442409 -36.744763 
L 794.937994 -36.748636 
L 791.433579 -36.752886 
L 787.929165 -36.757495 
L 784.42475 -36.762463 
L 780.920335 -36.767803 
L 777.41592 -36.773525 
L 773.911505 -36.779629 
L 770.407091 -36.7861 
L 766.902676 -36.792901 
L 763.398261 -36.799975 
L 759.893846 -36.807247 
L 756.389432 -36.814631 
L 752.885017 -36.822028 
L 749.380602 -36.829339 
L 745.876187 -36.836472 
L 742.371772 -36.843352 
L 738.867358 -36.849947 
L 735.362943 -36.856291 
L 731.858528 -36.86253 
L 728.354113 -36.869027 
L 724.849699 -36.876633 
L 721.345284 -36.887392 
L 717.840869 -36.906102 
L 714.336454 -36.942988 
L 710.83204 -37.016876 
L 707.327625 -37.156682 
L 703.82321 -37.397995 
L 700.318795 -37.773243 
L 696.81438 -38.298901 
L 693.309966 -38.96764 
L 689.805551 -39.752011 
L 686.301136 -40.618447 
L 682.796721 -41.542679 
L 679.292307 -42.517483 
L 675.787892 -43.55036 
L 672.283477 -44.655599 
L 668.779062 -45.846636 
L 665.274647 -47.131823 
L 661.770233 -48.513442 
L 658.265818 -49.988438 
L 654.761403 -51.549544 
L 651.256988 -53.186157 
L 647.752574 -54.884775 
L 644.248159 -56.628972 
L 640.743744 -58.399157 
L 637.239329 -60.172521 
L 633.734914 -61.923632 
L 630.2305 -63.625682 
L 626.726085 -65.251797 
L 623.22167 -66.775779 
L 619.717255 -68.172287 
L 616.212841 -69.417232 
L 612.708426 -70.48907 
L 609.204011 -71.370804 
L 605.699596 -72.051686 
L 602.195181 -72.527695 
L 598.690767 -72.800677 
L 595.186352 -72.876752 
L 591.681937 -72.76472 
L 588.177522 -72.475011 
L 584.673108 -72.019357 
L 581.168693 -71.411243 
L 577.664278 -70.666911 
L 574.159863 -69.80647 
L 570.655448 -68.854525 
L 567.151034 -67.840037 
L 563.646619 -66.795646 
L 560.142204 -65.757111 
L 556.637789 -64.762986 
L 553.133375 -63.853642 
L 549.62896 -63.068171 
L 546.124545 -62.439011 
L 542.62013 -61.986674 
L 539.115715 -61.718447 
L 535.611301 -61.632937 
L 532.106886 -61.728068 
L 528.602471 -62.007526 
L 525.098056 -62.483597 
L 521.593642 -63.180976 
L 518.089227 -64.148264 
L 514.584812 -65.473606 
L 511.080397 -67.284665 
L 507.575982 -69.713 
L 504.071568 -72.832354 
L 500.567153 -76.615497 
L 497.062738 -80.950219 
L 493.558323 -85.705488 
L 490.053909 -90.795163 
L 486.549494 -96.196121 
L 483.045079 -101.923278 
L 479.540664 -107.993688 
L 476.03625 -114.404906 
L 472.531835 -121.130835 
L 469.02742 -128.125978 
L 465.523005 -135.329959 
L 462.01859 -142.669698 
L 458.514176 -150.060074 
L 455.009761 -157.40452 
L 451.505346 -164.596396 
L 448.000931 -171.521289 
L 444.496517 -178.060128 
L 440.992102 -184.092838 
L 437.487687 -189.502297 
L 433.983272 -194.178352 
L 430.478857 -198.021728 
L 426.974443 -200.947679 
L 423.470028 -202.889215 
L 419.965613 -203.799764 
L 416.461198 -203.655097 
L 412.956784 -202.454394 
L 409.452369 -200.220364 
L 405.947954 -196.998382 
L 402.443539 -192.854684 
L 398.939124 -187.873752 
L 395.43471 -182.155036 
L 391.930295 -175.809273 
L 388.42588 -168.95464 
L 384.921465 -161.712984 
L 381.417051 -154.206278 
L 377.912636 -146.553276 
L 374.408221 -138.866214 
L 370.903806 -131.247457 
L 367.399391 -123.786243 
L 363.894977 -116.556115 
L 360.390562 -109.613643 
L 356.886147 -102.998178 
L 353.381732 -96.730919 
L 349.877318 -90.811741 
L 346.372903 -85.217123 
L 342.868488 -79.909511 
L 339.364073 -74.866476 
L 335.859658 -70.11857 
L 332.355244 -65.762372 
L 328.850829 -61.922395 
L 325.346414 -58.678924 
L 321.841999 -56.015852 
L 318.337585 -53.828146 
L 314.83317 -51.977057 
L 311.328755 -50.34755 
L 307.82434 -48.873586 
L 304.319925 -47.529598 
L 300.815511 -46.307726 
L 297.311096 -45.200127 
L 293.806681 -44.193919 
L 290.302266 -43.275351 
L 286.797852 -42.43571 
L 283.293437 -41.673602 
L 279.789022 -40.992622 
L 276.284607 -40.39677 
L 272.780192 -39.886621 
L 269.275778 -39.457848 
L 265.771363 -39.101853 
L 262.266948 -38.807381 
L 258.762533 -38.562217 
L 255.258119 -38.354541 
L 251.753704 -38.173888 
L 248.249289 -38.011729 
L 244.744874 -37.861774 
L 241.240459 -37.720006 
L 237.736045 -37.584428 
L 234.23163 -37.454593 
L 230.727215 -37.331126 
L 227.2228 -37.215459 
L 223.718386 -37.109755 
L 220.213971 -37.01668 
L 216.709556 -36.938752 
L 213.205141 -36.877423 
L 209.700727 -36.832369 
L 206.196312 -36.801461 
L 202.691897 -36.781386 
L 199.187482 -36.768598 
L 195.683067 -36.760109 
L 192.178653 -36.7539 
L 188.674238 -36.748911 
L 185.169823 -36.744765 
L 181.665408 -36.741418 
L 178.160994 -36.738875 
L 174.656579 -36.737055 
L 171.152164 -36.735792 
L 167.647749 -36.734882 
L 164.143334 -36.73415 
L 160.63892 -36.733474 
L 157.134505 -36.732793 
L 153.63009 -36.732101 
L 150.125675 -36.731436 
L 146.621261 -36.730851 
L 143.116846 -36.73039 
L 139.612431 -36.730069 
L 136.108016 -36.729873 
L 132.603601 -36.729767 
L 129.099187 -36.729718 
z
" style="stroke: #ffffff"/>
    </defs>
    <g>
     <use xlink:href="#m68633c335a" x="0" y="476.983437" style="fill: #c44e52; fill-opacity: 0.75; stroke: #ffffff"/>
    </g>
   </g>
   <g id="FillBetweenPolyCollection_5">
    <defs>
     <path id="m23f05e63ef" d="M 129.099187 -36.729718 
L 129.099187 -36.729718 
L 132.603601 -36.729767 
L 136.108016 -36.729873 
L 139.612431 -36.730069 
L 143.116846 -36.73039 
L 146.621261 -36.730851 
L 150.125675 -36.731436 
L 153.63009 -36.732101 
L 157.134505 -36.732793 
L 160.63892 -36.733474 
L 164.143334 -36.73415 
L 167.647749 -36.734882 
L 171.152164 -36.735792 
L 174.656579 -36.737055 
L 178.160994 -36.738875 
L 181.665408 -36.741418 
L 185.169823 -36.744765 
L 188.674238 -36.748911 
L 192.178653 -36.7539 
L 195.683067 -36.760109 
L 199.187482 -36.768598 
L 202.691897 -36.781386 
L 206.196312 -36.801461 
L 209.700727 -36.832369 
L 213.205141 -36.877423 
L 216.709556 -36.938752 
L 220.213971 -37.01668 
L 223.718386 -37.109755 
L 227.2228 -37.215459 
L 230.727215 -37.331126 
L 234.23163 -37.454593 
L 237.736045 -37.584428 
L 241.240459 -37.720006 
L 244.744874 -37.861774 
L 248.249289 -38.011729 
L 251.753704 -38.173888 
L 255.258119 -38.354541 
L 258.762533 -38.562217 
L 262.266948 -38.807381 
L 265.771363 -39.101853 
L 269.275778 -39.457848 
L 272.780192 -39.886621 
L 276.284607 -40.39677 
L 279.789022 -40.992622 
L 283.293437 -41.673602 
L 286.797852 -42.43571 
L 290.302266 -43.275351 
L 293.806681 -44.193919 
L 297.311096 -45.200127 
L 300.815511 -46.307726 
L 304.319925 -47.529598 
L 307.82434 -48.873586 
L 311.328755 -50.34755 
L 314.83317 -51.977057 
L 318.337585 -53.828146 
L 321.841999 -56.015852 
L 325.346414 -58.678924 
L 328.850829 -61.922395 
L 332.355244 -65.762372 
L 335.859658 -70.11857 
L 339.364073 -74.866476 
L 342.868488 -79.909511 
L 346.372903 -85.217123 
L 349.877318 -90.811741 
L 353.381732 -96.730919 
L 356.886147 -102.998178 
L 360.390562 -109.613643 
L 363.894977 -116.556115 
L 367.399391 -123.786243 
L 370.903806 -131.247457 
L 374.408221 -138.866214 
L 377.912636 -146.553276 
L 381.417051 -154.206278 
L 384.921465 -161.712984 
L 388.42588 -168.95464 
L 391.930295 -175.809273 
L 395.43471 -182.155036 
L 398.939124 -187.873752 
L 402.443539 -192.854684 
L 405.947954 -196.998382 
L 409.452369 -200.220364 
L 412.956784 -202.454394 
L 416.461198 -203.655097 
L 419.965613 -203.799764 
L 423.470028 -202.889215 
L 426.974443 -200.947679 
L 430.478857 -198.021728 
L 433.983272 -194.178352 
L 437.487687 -189.502297 
L 440.992102 -184.092838 
L 444.496517 -178.060128 
L 448.000931 -171.521289 
L 451.505346 -164.596396 
L 455.009761 -157.40452 
L 458.514176 -150.060074 
L 462.01859 -142.669698 
L 465.523005 -135.329959 
L 469.02742 -128.125978 
L 472.531835 -121.130835 
L 476.03625 -114.404906 
L 479.540664 -107.993688 
L 483.045079 -101.923278 
L 486.549494 -96.196121 
L 490.053909 -90.795163 
L 493.558323 -85.705488 
L 497.062738 -80.950219 
L 500.567153 -76.615497 
L 504.071568 -72.832354 
L 507.575982 -69.713 
L 511.080397 -67.284665 
L 514.584812 -65.473606 
L 518.089227 -64.148264 
L 521.593642 -63.180976 
L 525.098056 -62.483597 
L 528.602471 -62.007526 
L 532.106886 -61.728068 
L 535.611301 -61.632937 
L 539.115715 -61.718447 
L 542.62013 -61.986674 
L 546.124545 -62.439011 
L 549.62896 -63.068171 
L 553.133375 -63.853642 
L 556.637789 -64.762986 
L 560.142204 -65.757111 
L 563.646619 -66.795646 
L 567.151034 -67.840037 
L 570.655448 -68.854525 
L 574.159863 -69.80647 
L 577.664278 -70.666911 
L 581.168693 -71.411243 
L 584.673108 -72.019357 
L 588.177522 -72.475011 
L 591.681937 -72.76472 
L 595.186352 -72.876752 
L 598.690767 -72.800677 
L 602.195181 -72.527695 
L 605.699596 -72.051686 
L 609.204011 -71.370804 
L 612.708426 -70.48907 
L 616.212841 -69.417232 
L 619.717255 -68.172287 
L 623.22167 -66.775779 
L 626.726085 -65.251797 
L 630.2305 -63.625682 
L 633.734914 -61.923632 
L 637.239329 -60.172521 
L 640.743744 -58.399157 
L 644.248159 -56.628972 
L 647.752574 -54.884775 
L 651.256988 -53.186157 
L 654.761403 -51.549544 
L 658.265818 -49.988438 
L 661.770233 -48.513442 
L 665.274647 -47.131823 
L 668.779062 -45.846636 
L 672.283477 -44.655599 
L 675.787892 -43.55036 
L 679.292307 -42.517483 
L 682.796721 -41.542679 
L 686.301136 -40.618447 
L 689.805551 -39.752011 
L 693.309966 -38.96764 
L 696.81438 -38.298901 
L 700.318795 -37.773243 
L 703.82321 -37.397995 
L 707.327625 -37.156682 
L 710.83204 -37.016876 
L 714.336454 -36.942988 
L 717.840869 -36.906102 
L 721.345284 -36.887392 
L 724.849699 -36.876633 
L 728.354113 -36.869027 
L 731.858528 -36.86253 
L 735.362943 -36.856291 
L 738.867358 -36.849947 
L 742.371772 -36.843352 
L 745.876187 -36.836472 
L 749.380602 -36.829339 
L 752.885017 -36.822028 
L 756.389432 -36.814631 
L 759.893846 -36.807247 
L 763.398261 -36.799975 
L 766.902676 -36.792901 
L 770.407091 -36.7861 
L 773.911505 -36.779629 
L 777.41592 -36.773525 
L 780.920335 -36.767803 
L 784.42475 -36.762463 
L 787.929165 -36.757495 
L 791.433579 -36.752886 
L 794.937994 -36.748636 
L 798.442409 -36.744763 
L 801.946824 -36.741306 
L 805.451238 -36.738311 
L 808.955653 -36.735818 
L 812.460068 -36.733839 
L 815.964483 -36.732354 
L 819.468898 -36.731305 
L 822.973312 -36.730611 
L 826.477727 -36.730182 
L 826.477727 -36.730182 
L 826.477727 -36.730182 
L 822.973312 -36.730611 
L 819.468898 -36.731305 
L 815.964483 -36.732354 
L 812.460068 -36.733839 
L 808.955653 -36.735818 
L 805.451238 -36.738311 
L 801.946824 -36.741306 
L 798.442409 -36.744763 
L 794.937994 -36.748636 
L 791.433579 -36.752886 
L 787.929165 -36.757495 
L 784.42475 -36.762463 
L 780.920335 -36.767803 
L 777.41592 -36.773525 
L 773.911505 -36.779629 
L 770.407091 -36.7861 
L 766.902676 -36.792901 
L 763.398261 -36.799975 
L 759.893846 -36.807247 
L 756.389432 -36.814631 
L 752.885017 -36.822028 
L 749.380602 -36.829339 
L 745.876187 -36.836472 
L 742.371772 -36.843352 
L 738.867358 -36.849947 
L 735.362943 -36.856291 
L 731.858528 -36.862531 
L 728.354113 -36.86903 
L 724.849699 -36.876643 
L 721.345284 -36.887426 
L 717.840869 -36.906206 
L 714.336454 -36.943278 
L 710.83204 -37.017626 
L 707.327625 -37.158483 
L 703.82321 -37.402004 
L 700.318795 -37.781537 
L 696.81438 -38.314871 
L 693.309966 -38.996334 
L 689.805551 -39.800264 
L 686.301136 -40.694662 
L 682.796721 -41.65624 
L 679.292307 -42.677922 
L 675.787892 -43.766581 
L 672.283477 -44.935466 
L 668.779062 -46.197156 
L 665.274647 -47.559946 
L 661.770233 -49.027325 
L 658.265818 -50.598967 
L 654.761403 -52.271953 
L 651.256988 -54.041666 
L 647.752574 -55.902102 
L 644.248159 -57.845434 
L 640.743744 -59.86081 
L 637.239329 -61.932806 
L 633.734914 -64.04026 
L 630.2305 -66.15615 
L 626.726085 -68.248566 
L 623.22167 -70.282471 
L 619.717255 -72.221987 
L 616.212841 -74.03324 
L 612.708426 -75.687603 
L 609.204011 -77.164563 
L 605.699596 -78.453139 
L 602.195181 -79.551305 
L 598.690767 -80.463829 
L 595.186352 -81.199577 
L 591.681937 -81.769246 
L 588.177522 -82.184015 
L 584.673108 -82.455222 
L 581.168693 -82.594947 
L 577.664278 -82.617223 
L 574.159863 -82.539348 
L 570.655448 -82.382704 
L 567.151034 -82.172745 
L 563.646619 -81.938429 
L 560.142204 -81.71172 
L 556.637789 -81.527326 
L 553.133375 -81.421762 
L 549.62896 -81.430284 
L 546.124545 -81.581517 
L 542.62013 -81.892183 
L 539.115715 -82.365794 
L 535.611301 -82.997202 
L 532.106886 -83.780613 
L 528.602471 -84.716065 
L 525.098056 -85.812306 
L 521.593642 -87.090643 
L 518.089227 -88.596469 
L 514.584812 -90.414938 
L 511.080397 -92.670967 
L 507.575982 -95.493631 
L 504.071568 -98.954482 
L 500.567153 -103.02441 
L 497.062738 -107.589646 
L 493.558323 -112.517933 
L 490.053909 -117.722244 
L 486.549494 -123.178884 
L 483.045079 -128.902495 
L 479.540664 -134.910112 
L 476.03625 -141.199482 
L 472.531835 -147.74491 
L 469.02742 -154.501552 
L 465.523005 -161.410082 
L 462.01859 -168.399075 
L 458.514176 -175.385876 
L 455.009761 -182.277283 
L 451.505346 -188.970783 
L 448.000931 -195.356482 
L 444.496517 -201.319734 
L 440.992102 -206.744394 
L 437.487687 -211.516621 
L 433.983272 -215.52906 
L 430.478857 -218.685119 
L 426.974443 -220.902983 
L 423.470028 -222.119017 
L 419.965613 -222.290341 
L 416.461198 -221.396487 
L 412.956784 -219.44018 
L 409.452369 -216.447299 
L 405.947954 -212.466059 
L 402.443539 -207.565403 
L 398.939124 -201.8326 
L 395.43471 -195.370091 
L 391.930295 -188.291742 
L 388.42588 -180.718783 
L 384.921465 -172.775769 
L 381.417051 -164.586827 
L 377.912636 -156.272258 
L 374.408221 -147.945347 
L 370.903806 -139.709178 
L 367.399391 -131.653537 
L 363.894977 -123.85239 
L 360.390562 -116.362561 
L 356.886147 -109.223422 
L 353.381732 -102.455921 
L 349.877318 -96.059458 
L 346.372903 -90.009932 
L 342.868488 -84.269275 
L 339.364073 -78.81483 
L 335.859658 -73.677391 
L 332.355244 -68.954327 
L 328.850829 -64.771297 
L 325.346414 -61.209612 
L 321.841999 -58.253413 
L 318.337585 -55.796598 
L 314.83317 -53.697924 
L 311.328755 -51.838915 
L 307.82434 -50.150131 
L 304.319925 -48.603795 
L 300.815511 -47.191874 
L 297.311096 -45.908555 
L 293.806681 -44.744535 
L 290.302266 -43.689905 
L 286.797852 -42.738656 
L 283.293437 -41.889956 
L 279.789022 -41.145592 
L 276.284607 -40.505902 
L 272.780192 -39.966897 
L 269.275778 -39.519755 
L 265.771363 -39.152113 
L 262.266948 -38.849953 
L 258.762533 -38.599238 
L 255.258119 -38.387057 
L 251.753704 -38.202339 
L 248.249289 -38.036259 
L 244.744874 -37.88242 
L 241.240459 -37.73683 
L 237.736045 -37.597602 
L 234.23163 -37.464438 
L 230.727215 -37.338105 
L 227.2228 -37.220128 
L 223.718386 -37.11269 
L 220.213971 -37.018407 
L 216.709556 -36.9397 
L 213.205141 -36.877907 
L 209.700727 -36.8326 
L 206.196312 -36.801562 
L 202.691897 -36.781427 
L 199.187482 -36.768613 
L 195.683067 -36.760114 
L 192.178653 -36.753902 
L 188.674238 -36.748912 
L 185.169823 -36.744766 
L 181.665408 -36.741418 
L 178.160994 -36.738875 
L 174.656579 -36.737055 
L 171.152164 -36.735792 
L 167.647749 -36.734882 
L 164.143334 -36.73415 
L 160.63892 -36.733474 
L 157.134505 -36.732793 
L 153.63009 -36.732101 
L 150.125675 -36.731436 
L 146.621261 -36.730851 
L 143.116846 -36.73039 
L 139.612431 -36.730069 
L 136.108016 -36.729873 
L 132.603601 -36.729767 
L 129.099187 -36.729718 
z
" style="stroke: #ffffff"/>
    </defs>
    <g>
     <use xlink:href="#m23f05e63ef" x="0" y="476.983437" style="fill: #55a868; fill-opacity: 0.75; stroke: #ffffff"/>
    </g>
   </g>
   <g id="FillBetweenPolyCollection_6">
    <defs>
     <path id="m11b9a98e51" d="M 129.099187 -36.729718 
L 129.099187 -36.729718 
L 132.603601 -36.729767 
L 136.108016 -36.729873 
L 139.612431 -36.730069 
L 143.116846 -36.73039 
L 146.621261 -36.730851 
L 150.125675 -36.731436 
L 153.63009 -36.732101 
L 157.134505 -36.732793 
L 160.63892 -36.733474 
L 164.143334 -36.73415 
L 167.647749 -36.734882 
L 171.152164 -36.735792 
L 174.656579 -36.737055 
L 178.160994 -36.738875 
L 181.665408 -36.741418 
L 185.169823 -36.744766 
L 188.674238 -36.748912 
L 192.178653 -36.753902 
L 195.683067 -36.760114 
L 199.187482 -36.768613 
L 202.691897 -36.781427 
L 206.196312 -36.801562 
L 209.700727 -36.8326 
L 213.205141 -36.877907 
L 216.709556 -36.9397 
L 220.213971 -37.018407 
L 223.718386 -37.11269 
L 227.2228 -37.220128 
L 230.727215 -37.338105 
L 234.23163 -37.464438 
L 237.736045 -37.597602 
L 241.240459 -37.73683 
L 244.744874 -37.88242 
L 248.249289 -38.036259 
L 251.753704 -38.202339 
L 255.258119 -38.387057 
L 258.762533 -38.599238 
L 262.266948 -38.849953 
L 265.771363 -39.152113 
L 269.275778 -39.519755 
L 272.780192 -39.966897 
L 276.284607 -40.505902 
L 279.789022 -41.145592 
L 283.293437 -41.889956 
L 286.797852 -42.738656 
L 290.302266 -43.689905 
L 293.806681 -44.744535 
L 297.311096 -45.908555 
L 300.815511 -47.191874 
L 304.319925 -48.603795 
L 307.82434 -50.150131 
L 311.328755 -51.838915 
L 314.83317 -53.697924 
L 318.337585 -55.796598 
L 321.841999 -58.253413 
L 325.346414 -61.209612 
L 328.850829 -64.771297 
L 332.355244 -68.954327 
L 335.859658 -73.677391 
L 339.364073 -78.81483 
L 342.868488 -84.269275 
L 346.372903 -90.009932 
L 349.877318 -96.059458 
L 353.381732 -102.455921 
L 356.886147 -109.223422 
L 360.390562 -116.362561 
L 363.894977 -123.85239 
L 367.399391 -131.653537 
L 370.903806 -139.709178 
L 374.408221 -147.945347 
L 377.912636 -156.272258 
L 381.417051 -164.586827 
L 384.921465 -172.775769 
L 388.42588 -180.718783 
L 391.930295 -188.291742 
L 395.43471 -195.370091 
L 398.939124 -201.8326 
L 402.443539 -207.565403 
L 405.947954 -212.466059 
L 409.452369 -216.447299 
L 412.956784 -219.44018 
L 416.461198 -221.396487 
L 419.965613 -222.290341 
L 423.470028 -222.119017 
L 426.974443 -220.902983 
L 430.478857 -218.685119 
L 433.983272 -215.52906 
L 437.487687 -211.516621 
L 440.992102 -206.744394 
L 444.496517 -201.319734 
L 448.000931 -195.356482 
L 451.505346 -188.970783 
L 455.009761 -182.277283 
L 458.514176 -175.385876 
L 462.01859 -168.399075 
L 465.523005 -161.410082 
L 469.02742 -154.501552 
L 472.531835 -147.74491 
L 476.03625 -141.199482 
L 479.540664 -134.910112 
L 483.045079 -128.902495 
L 486.549494 -123.178884 
L 490.053909 -117.722244 
L 493.558323 -112.517933 
L 497.062738 -107.589646 
L 500.567153 -103.02441 
L 504.071568 -98.954482 
L 507.575982 -95.493631 
L 511.080397 -92.670967 
L 514.584812 -90.414938 
L 518.089227 -88.596469 
L 521.593642 -87.090643 
L 525.098056 -85.812306 
L 528.602471 -84.716065 
L 532.106886 -83.780613 
L 535.611301 -82.997202 
L 539.115715 -82.365794 
L 542.62013 -81.892183 
L 546.124545 -81.581517 
L 549.62896 -81.430284 
L 553.133375 -81.421762 
L 556.637789 -81.527326 
L 560.142204 -81.71172 
L 563.646619 -81.938429 
L 567.151034 -82.172745 
L 570.655448 -82.382704 
L 574.159863 -82.539348 
L 577.664278 -82.617223 
L 581.168693 -82.594947 
L 584.673108 -82.455222 
L 588.177522 -82.184015 
L 591.681937 -81.769246 
L 595.186352 -81.199577 
L 598.690767 -80.463829 
L 602.195181 -79.551305 
L 605.699596 -78.453139 
L 609.204011 -77.164563 
L 612.708426 -75.687603 
L 616.212841 -74.03324 
L 619.717255 -72.221987 
L 623.22167 -70.282471 
L 626.726085 -68.248566 
L 630.2305 -66.15615 
L 633.734914 -64.04026 
L 637.239329 -61.932806 
L 640.743744 -59.86081 
L 644.248159 -57.845434 
L 647.752574 -55.902102 
L 651.256988 -54.041666 
L 654.761403 -52.271953 
L 658.265818 -50.598967 
L 661.770233 -49.027325 
L 665.274647 -47.559946 
L 668.779062 -46.197156 
L 672.283477 -44.935466 
L 675.787892 -43.766581 
L 679.292307 -42.677922 
L 682.796721 -41.65624 
L 686.301136 -40.694662 
L 689.805551 -39.800264 
L 693.309966 -38.996334 
L 696.81438 -38.314871 
L 700.318795 -37.781537 
L 703.82321 -37.402004 
L 707.327625 -37.158483 
L 710.83204 -37.017626 
L 714.336454 -36.943278 
L 717.840869 -36.906206 
L 721.345284 -36.887426 
L 724.849699 -36.876643 
L 728.354113 -36.86903 
L 731.858528 -36.862531 
L 735.362943 -36.856291 
L 738.867358 -36.849947 
L 742.371772 -36.843352 
L 745.876187 -36.836472 
L 749.380602 -36.829339 
L 752.885017 -36.822028 
L 756.389432 -36.814631 
L 759.893846 -36.807247 
L 763.398261 -36.799975 
L 766.902676 -36.792901 
L 770.407091 -36.7861 
L 773.911505 -36.779629 
L 777.41592 -36.773525 
L 780.920335 -36.767803 
L 784.42475 -36.762463 
L 787.929165 -36.757495 
L 791.433579 -36.752886 
L 794.937994 -36.748636 
L 798.442409 -36.744763 
L 801.946824 -36.741306 
L 805.451238 -36.738311 
L 808.955653 -36.735818 
L 812.460068 -36.733839 
L 815.964483 -36.732354 
L 819.468898 -36.731305 
L 822.973312 -36.730611 
L 826.477727 -36.730182 
L 826.477727 -36.730182 
L 826.477727 -36.730182 
L 822.973312 -36.730611 
L 819.468898 -36.731305 
L 815.964483 -36.732354 
L 812.460068 -36.733839 
L 808.955653 -36.735818 
L 805.451238 -36.738311 
L 801.946824 -36.741306 
L 798.442409 -36.744763 
L 794.937994 -36.748636 
L 791.433579 -36.752886 
L 787.929165 -36.757495 
L 784.42475 -36.762463 
L 780.920335 -36.767803 
L 777.41592 -36.773525 
L 773.911505 -36.779629 
L 770.407091 -36.7861 
L 766.902676 -36.792901 
L 763.398261 -36.799975 
L 759.893846 -36.807249 
L 756.389432 -36.814638 
L 752.885017 -36.822058 
L 749.380602 -36.829452 
L 745.876187 -36.836846 
L 742.371772 -36.844435 
L 738.867358 -36.852694 
L 735.362943 -36.862429 
L 731.858528 -36.874685 
L 728.354113 -36.890538 
L 724.849699 -36.91102 
L 721.345284 -36.937735 
L 717.840869 -36.974764 
L 714.336454 -37.032 
L 710.83204 -37.128941 
L 707.327625 -37.296402 
L 703.82321 -37.572873 
L 700.318795 -37.994367 
L 696.81438 -38.581801 
L 693.309966 -39.334374 
L 689.805551 -40.235359 
L 686.301136 -41.267803 
L 682.796721 -42.429569 
L 679.292307 -43.737787 
L 675.787892 -45.221496 
L 672.283477 -46.909666 
L 668.779062 -48.823173 
L 665.274647 -50.974564 
L 661.770233 -53.373379 
L 658.265818 -56.031845 
L 654.761403 -58.9665 
L 651.256988 -62.194466 
L 647.752574 -65.726274 
L 644.248159 -69.558804 
L 640.743744 -73.671704 
L 637.239329 -78.028804 
L 633.734914 -82.583752 
L 630.2305 -87.287259 
L 626.726085 -92.092994 
L 623.22167 -96.960283 
L 619.717255 -101.853525 
L 616.212841 -106.739377 
L 612.708426 -111.583072 
L 609.204011 -116.345526 
L 605.699596 -120.982984 
L 602.195181 -125.449739 
L 598.690767 -129.702254 
L 595.186352 -133.702126 
L 591.681937 -137.416968 
L 588.177522 -140.820462 
L 584.673108 -143.892954 
L 581.168693 -146.622264 
L 577.664278 -149.003112 
L 574.159863 -151.034504 
L 570.655448 -152.716635 
L 567.151034 -154.050017 
L 563.646619 -155.038272 
L 560.142204 -155.693222 
L 556.637789 -156.038913 
L 553.133375 -156.111622 
L 549.62896 -155.95504 
L 546.124545 -155.612487 
L 542.62013 -155.120156 
L 539.115715 -154.505379 
L 535.611301 -153.790953 
L 532.106886 -153.002089 
L 528.602471 -152.170928 
L 525.098056 -151.337768 
L 521.593642 -150.55522 
L 518.089227 -149.902182 
L 514.584812 -149.501759 
L 511.080397 -149.519838 
L 507.575982 -150.123037 
L 504.071568 -151.40856 
L 500.567153 -153.356301 
L 497.062738 -155.847821 
L 493.558323 -158.742104 
L 490.053909 -161.949662 
L 486.549494 -165.455251 
L 483.045079 -169.289062 
L 479.540664 -173.481859 
L 476.03625 -178.035712 
L 472.531835 -182.917881 
L 469.02742 -188.068133 
L 465.523005 -193.407847 
L 462.01859 -198.845922 
L 458.514176 -204.282694 
L 455.009761 -209.614488 
L 451.505346 -214.73891 
L 448.000931 -219.558308 
L 444.496517 -223.979005 
L 440.992102 -227.907061 
L 437.487687 -231.244519 
L 433.983272 -233.890166 
L 430.478857 -235.745723 
L 426.974443 -236.724717 
L 423.470028 -236.76017 
L 419.965613 -235.808756 
L 416.461198 -233.851438 
L 412.956784 -230.891838 
L 409.452369 -226.953725 
L 405.947954 -222.078918 
L 402.443539 -216.326922 
L 398.939124 -209.776783 
L 395.43471 -202.52939 
L 391.930295 -194.706575 
L 388.42588 -186.444551 
L 384.921465 -177.883203 
L 381.417051 -169.15573 
L 377.912636 -160.382209 
L 374.408221 -151.667414 
L 370.903806 -143.101127 
L 367.399391 -134.759158 
L 363.894977 -126.704044 
L 360.390562 -118.985017 
L 356.886147 -111.636976 
L 353.381732 -104.677907 
L 349.877318 -98.104582 
L 346.372903 -91.890336 
L 342.868488 -85.994823 
L 339.364073 -80.39348 
L 335.859658 -75.115347 
L 332.355244 -70.255885 
L 328.850829 -65.938781 
L 325.346414 -62.244062 
L 321.841999 -59.156437 
L 318.337585 -56.572963 
L 314.83317 -54.357483 
L 311.328755 -52.396485 
L 307.82434 -50.623142 
L 304.319925 -49.009028 
L 300.815511 -47.543007 
L 297.311096 -46.215365 
L 293.806681 -45.013374 
L 290.302266 -43.924589 
L 286.797852 -42.941166 
L 283.293437 -42.060933 
L 279.789022 -41.284962 
L 276.284607 -40.613868 
L 272.780192 -40.045069 
L 269.275778 -39.571825 
L 265.771363 -39.183583 
L 262.266948 -38.867016 
L 258.762533 -38.607462 
L 255.258119 -38.390556 
L 251.753704 -38.203646 
L 248.249289 -38.036686 
L 244.744874 -37.882541 
L 241.240459 -37.73686 
L 237.736045 -37.597608 
L 234.23163 -37.46444 
L 230.727215 -37.338105 
L 227.2228 -37.220128 
L 223.718386 -37.11269 
L 220.213971 -37.018407 
L 216.709556 -36.9397 
L 213.205141 -36.877907 
L 209.700727 -36.8326 
L 206.196312 -36.801562 
L 202.691897 -36.781427 
L 199.187482 -36.768613 
L 195.683067 -36.760114 
L 192.178653 -36.753902 
L 188.674238 -36.748912 
L 185.169823 -36.744766 
L 181.665408 -36.741418 
L 178.160994 -36.738875 
L 174.656579 -36.737055 
L 171.152164 -36.735792 
L 167.647749 -36.734882 
L 164.143334 -36.73415 
L 160.63892 -36.733474 
L 157.134505 -36.732793 
L 153.63009 -36.732101 
L 150.125675 -36.731436 
L 146.621261 -36.730851 
L 143.116846 -36.73039 
L 139.612431 -36.730069 
L 136.108016 -36.729873 
L 132.603601 -36.729767 
L 129.099187 -36.729718 
z
" style="stroke: #ffffff"/>
    </defs>
    <g>
     <use xlink:href="#m11b9a98e51" x="0" y="476.983437" style="fill: #dd8452; fill-opacity: 0.75; stroke: #ffffff"/>
    </g>
   </g>
   <g id="FillBetweenPolyCollection_7">
    <defs>
     <path id="m4199d2567e" d="M 129.099187 -36.729718 
L 129.099187 -36.729718 
L 132.603601 -36.729767 
L 136.108016 -36.729873 
L 139.612431 -36.730069 
L 143.116846 -36.73039 
L 146.621261 -36.730851 
L 150.125675 -36.731436 
L 153.63009 -36.732101 
L 157.134505 -36.732793 
L 160.63892 -36.733474 
L 164.143334 -36.73415 
L 167.647749 -36.734882 
L 171.152164 -36.735792 
L 174.656579 -36.737055 
L 178.160994 -36.738875 
L 181.665408 -36.741418 
L 185.169823 -36.744766 
L 188.674238 -36.748912 
L 192.178653 -36.753902 
L 195.683067 -36.760114 
L 199.187482 -36.768613 
L 202.691897 -36.781427 
L 206.196312 -36.801562 
L 209.700727 -36.8326 
L 213.205141 -36.877907 
L 216.709556 -36.9397 
L 220.213971 -37.018407 
L 223.718386 -37.11269 
L 227.2228 -37.220128 
L 230.727215 -37.338105 
L 234.23163 -37.46444 
L 237.736045 -37.597608 
L 241.240459 -37.73686 
L 244.744874 -37.882541 
L 248.249289 -38.036686 
L 251.753704 -38.203646 
L 255.258119 -38.390556 
L 258.762533 -38.607462 
L 262.266948 -38.867016 
L 265.771363 -39.183583 
L 269.275778 -39.571825 
L 272.780192 -40.045069 
L 276.284607 -40.613868 
L 279.789022 -41.284962 
L 283.293437 -42.060933 
L 286.797852 -42.941166 
L 290.302266 -43.924589 
L 293.806681 -45.013374 
L 297.311096 -46.215365 
L 300.815511 -47.543007 
L 304.319925 -49.009028 
L 307.82434 -50.623142 
L 311.328755 -52.396485 
L 314.83317 -54.357483 
L 318.337585 -56.572963 
L 321.841999 -59.156437 
L 325.346414 -62.244062 
L 328.850829 -65.938781 
L 332.355244 -70.255885 
L 335.859658 -75.115347 
L 339.364073 -80.39348 
L 342.868488 -85.994823 
L 346.372903 -91.890336 
L 349.877318 -98.104582 
L 353.381732 -104.677907 
L 356.886147 -111.636976 
L 360.390562 -118.985017 
L 363.894977 -126.704044 
L 367.399391 -134.759158 
L 370.903806 -143.101127 
L 374.408221 -151.667414 
L 377.912636 -160.382209 
L 381.417051 -169.15573 
L 384.921465 -177.883203 
L 388.42588 -186.444551 
L 391.930295 -194.706575 
L 395.43471 -202.52939 
L 398.939124 -209.776783 
L 402.443539 -216.326922 
L 405.947954 -222.078918 
L 409.452369 -226.953725 
L 412.956784 -230.891838 
L 416.461198 -233.851438 
L 419.965613 -235.808756 
L 423.470028 -236.76017 
L 426.974443 -236.724717 
L 430.478857 -235.745723 
L 433.983272 -233.890166 
L 437.487687 -231.244519 
L 440.992102 -227.907061 
L 444.496517 -223.979005 
L 448.000931 -219.558308 
L 451.505346 -214.73891 
L 455.009761 -209.614488 
L 458.514176 -204.282694 
L 462.01859 -198.845922 
L 465.523005 -193.407847 
L 469.02742 -188.068133 
L 472.531835 -182.917881 
L 476.03625 -178.035712 
L 479.540664 -173.481859 
L 483.045079 -169.289062 
L 486.549494 -165.455251 
L 490.053909 -161.949662 
L 493.558323 -158.742104 
L 497.062738 -155.847821 
L 500.567153 -153.356301 
L 504.071568 -151.40856 
L 507.575982 -150.123037 
L 511.080397 -149.519838 
L 514.584812 -149.501759 
L 518.089227 -149.902182 
L 521.593642 -150.55522 
L 525.098056 -151.337768 
L 528.602471 -152.170928 
L 532.106886 -153.002089 
L 535.611301 -153.790953 
L 539.115715 -154.505379 
L 542.62013 -155.120156 
L 546.124545 -155.612487 
L 549.62896 -155.95504 
L 553.133375 -156.111622 
L 556.637789 -156.038913 
L 560.142204 -155.693222 
L 563.646619 -155.038272 
L 567.151034 -154.050017 
L 570.655448 -152.716635 
L 574.159863 -151.034504 
L 577.664278 -149.003112 
L 581.168693 -146.622264 
L 584.673108 -143.892954 
L 588.177522 -140.820462 
L 591.681937 -137.416968 
L 595.186352 -133.702126 
L 598.690767 -129.702254 
L 602.195181 -125.449739 
L 605.699596 -120.982984 
L 609.204011 -116.345526 
L 612.708426 -111.583072 
L 616.212841 -106.739377 
L 619.717255 -101.853525 
L 623.22167 -96.960283 
L 626.726085 -92.092994 
L 630.2305 -87.287259 
L 633.734914 -82.583752 
L 637.239329 -78.028804 
L 640.743744 -73.671704 
L 644.248159 -69.558804 
L 647.752574 -65.726274 
L 651.256988 -62.194466 
L 654.761403 -58.9665 
L 658.265818 -56.031845 
L 661.770233 -53.373379 
L 665.274647 -50.974564 
L 668.779062 -48.823173 
L 672.283477 -46.909666 
L 675.787892 -45.221496 
L 679.292307 -43.737787 
L 682.796721 -42.429569 
L 686.301136 -41.267803 
L 689.805551 -40.235359 
L 693.309966 -39.334374 
L 696.81438 -38.581801 
L 700.318795 -37.994367 
L 703.82321 -37.572873 
L 707.327625 -37.296402 
L 710.83204 -37.128941 
L 714.336454 -37.032 
L 717.840869 -36.974764 
L 721.345284 -36.937735 
L 724.849699 -36.91102 
L 728.354113 -36.890538 
L 731.858528 -36.874685 
L 735.362943 -36.862429 
L 738.867358 -36.852694 
L 742.371772 -36.844435 
L 745.876187 -36.836846 
L 749.380602 -36.829452 
L 752.885017 -36.822058 
L 756.389432 -36.814638 
L 759.893846 -36.807249 
L 763.398261 -36.799975 
L 766.902676 -36.792901 
L 770.407091 -36.7861 
L 773.911505 -36.779629 
L 777.41592 -36.773525 
L 780.920335 -36.767803 
L 784.42475 -36.762463 
L 787.929165 -36.757495 
L 791.433579 -36.752886 
L 794.937994 -36.748636 
L 798.442409 -36.744763 
L 801.946824 -36.741306 
L 805.451238 -36.738311 
L 808.955653 -36.735818 
L 812.460068 -36.733839 
L 815.964483 -36.732354 
L 819.468898 -36.731305 
L 822.973312 -36.730611 
L 826.477727 -36.730182 
L 826.477727 -36.730182 
L 826.477727 -36.730182 
L 822.973312 -36.730611 
L 819.468898 -36.731305 
L 815.964483 -36.732354 
L 812.460068 -36.733839 
L 808.955653 -36.735818 
L 805.451238 -36.738311 
L 801.946824 -36.741306 
L 798.442409 -36.744763 
L 794.937994 -36.748636 
L 791.433579 -36.752886 
L 787.929165 -36.757495 
L 784.42475 -36.762463 
L 780.920335 -36.767803 
L 777.41592 -36.773525 
L 773.911505 -36.779629 
L 770.407091 -36.7861 
L 766.902676 -36.792901 
L 763.398261 -36.799975 
L 759.893846 -36.807249 
L 756.389432 -36.814638 
L 752.885017 -36.822058 
L 749.380602 -36.829454 
L 745.876187 -36.83685 
L 742.371772 -36.844446 
L 738.867358 -36.852721 
L 735.362943 -36.862491 
L 731.858528 -36.874824 
L 728.354113 -36.890838 
L 724.849699 -36.911635 
L 721.345284 -36.938942 
L 717.840869 -36.977033 
L 714.336454 -37.036089 
L 710.83204 -37.136019 
L 707.327625 -37.308198 
L 703.82321 -37.591853 
L 700.318795 -38.023944 
L 696.81438 -38.6266 
L 693.309966 -39.400579 
L 689.805551 -40.331167 
L 686.301136 -41.404016 
L 682.796721 -42.620293 
L 679.292307 -44.001157 
L 675.787892 -45.580296 
L 672.283477 -47.391658 
L 668.779062 -49.460979 
L 665.274647 -51.805013 
L 661.770233 -54.436392 
L 658.265818 -57.369025 
L 654.761403 -60.619732 
L 651.256988 -64.204822 
L 647.752574 -68.133419 
L 644.248159 -72.400974 
L 640.743744 -76.986134 
L 637.239329 -81.852404 
L 633.734914 -86.953762 
L 630.2305 -92.241686 
L 626.726085 -97.670701 
L 623.22167 -103.200713 
L 619.717255 -108.796124 
L 616.212841 -114.422825 
L 612.708426 -120.044437 
L 609.204011 -125.619443 
L 605.699596 -131.100925 
L 602.195181 -136.43939 
L 598.690767 -141.586969 
L 595.186352 -146.500409 
L 591.681937 -151.141931 
L 588.177522 -155.479194 
L 584.673108 -159.48581 
L 581.168693 -163.142098 
L 577.664278 -166.434523 
L 574.159863 -169.353214 
L 570.655448 -171.889096 
L 567.151034 -174.033365 
L 563.646619 -175.780708 
L 560.142204 -177.134837 
L 556.637789 -178.112939 
L 553.133375 -178.746018 
L 549.62896 -179.074273 
L 546.124545 -179.139396 
L 542.62013 -178.977757 
L 539.115715 -178.618559 
L 535.611301 -178.088025 
L 532.106886 -177.416226 
L 528.602471 -176.641523 
L 525.098056 -175.811749 
L 521.593642 -174.988328 
L 518.089227 -174.260181 
L 514.584812 -173.761501 
L 511.080397 -173.670078 
L 507.575982 -174.16487 
L 504.071568 -175.355337 
L 500.567153 -177.232933 
L 497.062738 -179.689454 
L 493.558323 -182.592277 
L 490.053909 -185.858269 
L 486.549494 -189.476852 
L 483.045079 -193.482291 
L 479.540664 -197.910793 
L 476.03625 -202.773986 
L 472.531835 -208.056025 
L 469.02742 -213.724019 
L 465.523005 -219.739354 
L 462.01859 -226.064068 
L 458.514176 -232.662823 
L 455.009761 -239.502917 
L 451.505346 -246.552944 
L 448.000931 -253.778738 
L 444.496517 -261.135854 
L 440.992102 -268.560987 
L 437.487687 -275.967212 
L 433.983272 -283.247073 
L 430.478857 -290.283292 
L 426.974443 -296.962635 
L 423.470028 -303.187299 
L 419.965613 -308.880332 
L 416.461198 -313.984865 
L 412.956784 -318.459082 
L 409.452369 -322.269496 
L 405.947954 -325.38504 
L 402.443539 -327.774287 
L 398.939124 -329.406718 
L 395.43471 -330.256368 
L 391.930295 -330.303933 
L 388.42588 -329.534501 
L 384.921465 -327.932028 
L 381.417051 -325.474686 
L 377.912636 -322.134314 
L 374.408221 -317.880022 
L 370.903806 -312.683909 
L 367.399391 -306.526851 
L 363.894977 -299.403131 
L 360.390562 -291.323294 
L 356.886147 -282.314835 
L 353.381732 -272.420094 
L 349.877318 -261.691132 
L 346.372903 -250.185451 
L 342.868488 -237.972541 
L 339.364073 -225.159153 
L 335.859658 -211.922144 
L 332.355244 -198.515808 
L 328.850829 -185.227907 
L 325.346414 -172.302 
L 321.841999 -159.880217 
L 318.337585 -148.005811 
L 314.83317 -136.673233 
L 311.328755 -125.8807 
L 307.82434 -115.652356 
L 304.319925 -106.029843 
L 300.815511 -97.052853 
L 297.311096 -88.746483 
L 293.806681 -81.120958 
L 290.302266 -74.178978 
L 286.797852 -67.922931 
L 283.293437 -62.356872 
L 279.789022 -57.482851 
L 276.284607 -53.294381 
L 272.780192 -49.770515 
L 269.275778 -46.872717 
L 265.771363 -44.5451 
L 262.266948 -42.71777 
L 258.762533 -41.312502 
L 255.258119 -40.249498 
L 251.753704 -39.453668 
L 248.249289 -38.859208 
L 244.744874 -38.411995 
L 241.240459 -38.070005 
L 237.736045 -37.802268 
L 234.23163 -37.586987 
L 230.727215 -37.409487 
L 227.2228 -37.260488 
L 223.718386 -37.134793 
L 220.213971 -37.030106 
L 216.709556 -36.945674 
L 213.205141 -36.880844 
L 209.700727 -36.833988 
L 206.196312 -36.802192 
L 202.691897 -36.781702 
L 199.187482 -36.768728 
L 195.683067 -36.76016 
L 192.178653 -36.753919 
L 188.674238 -36.748918 
L 185.169823 -36.744768 
L 181.665408 -36.741419 
L 178.160994 -36.738875 
L 174.656579 -36.737055 
L 171.152164 -36.735792 
L 167.647749 -36.734882 
L 164.143334 -36.73415 
L 160.63892 -36.733474 
L 157.134505 -36.732793 
L 153.63009 -36.732101 
L 150.125675 -36.731436 
L 146.621261 -36.730851 
L 143.116846 -36.73039 
L 139.612431 -36.730069 
L 136.108016 -36.729873 
L 132.603601 -36.729767 
L 129.099187 -36.729718 
z
" style="stroke: #ffffff"/>
    </defs>
    <g>
     <use xlink:href="#m4199d2567e" x="0" y="476.983437" style="fill: #4c72b0; fill-opacity: 0.75; stroke: #ffffff"/>
    </g>
   </g>
   <g id="line2d_49">
    <path d="M 424.054621 440.25375 
L 424.054621 24.45375 
" style="fill: none; stroke-dasharray: 0.8,1.32; stroke-dashoffset: 0; stroke: #d3d3d3; stroke-width: 0.8"/>
   </g>
   <g id="line2d_50">
    <path d="M 572.895546 440.25375 
L 572.895546 24.45375 
" style="fill: none; stroke-dasharray: 0.8,1.32; stroke-dashoffset: 0; stroke: #d3d3d3; stroke-width: 0.8"/>
   </g>
   <g id="line2d_51">
    <path d="M 7.2 440.25375 
L 844.2 440.25375 
" style="fill: none; stroke: #808080; stroke-width: 0.5; stroke-linecap: round"/>
   </g>
   <g id="AnnotationBbox_1">
    <g id="text_13">
     <text style="font-weight: 700; font-size: 8px; font-family: 'Arial', 'DejaVu Sans', 'Liberation Sans', 'Bitstream Vera Sans', sans-serif; text-anchor: end; fill: #808080" x="424.054621" y="12.92625" transform="rotate(-0 424.054621 12.92625)">International Poverty Line</text>
    </g>
    <g id="text_14">
     <text style="font-size: 8px; font-family: 'Arial', 'DejaVu Sans', 'Liberation Sans', 'Bitstream Vera Sans', sans-serif; text-anchor: end; fill: #808080" x="424.054621" y="22.86375" transform="rotate(-0 424.054621 22.86375)">$90 per month</text>
    </g>
   </g>
   <g id="AnnotationBbox_2">
    <g id="text_15">
     <text style="font-weight: 700; font-size: 8px; font-family: 'Arial', 'DejaVu Sans', 'Liberation Sans', 'Bitstream Vera Sans', sans-serif; text-anchor: start; fill: #808080" x="572.895546" y="12.92625" transform="rotate(-0 572.895546 12.92625)">High-income poverty line</text>
    </g>
    <g id="text_16">
     <text style="font-size: 8px; font-family: 'Arial', 'DejaVu Sans', 'Liberation Sans', 'Bitstream Vera Sans', sans-serif; text-anchor: start; fill: #808080" x="572.895546" y="22.86375" transform="rotate(-0 572.895546 22.86375)">$900 per month</text>
    </g>
   </g>
   <g id="legend_1">
    <g id="patch_3">
     <path d="M 683.8 229.254375 
L 944.253125 229.254375 
Q 946.253125 229.254375 946.253125 227.254375 
L 946.253125 114.61375 
Q 946.253125 112.61375 944.253125 112.61375 
L 683.8 112.61375 
Q 681.8 112.61375 681.8 114.61375 
L 681.8 227.254375 
Q 681.8 229.254375 683.8 229.254375 
z
" style="fill: #ffffff; opacity: 0.8; stroke: #cccccc; stroke-linejoin: miter"/>
    </g>
    <g id="text_17">
     <text style="font-size: 10px; font-family: 'Arial', 'DejaVu Sans', 'Liberation Sans', 'Bitstream Vera Sans', sans-serif; text-anchor: start; fill: #262626" x="798.182813" y="123.771562" transform="rotate(-0 798.182813 123.771562)">Region</text>
    </g>
    <g id="patch_4">
     <path d="M 685.8 138.034062 
L 705.8 138.034062 
L 705.8 131.034062 
L 685.8 131.034062 
z
" style="fill: #4c72b0; fill-opacity: 0.75; stroke: #ffffff; stroke-linejoin: miter"/>
    </g>
    <g id="text_18">
     <text style="font-size: 10px; font-family: 'Arial', 'DejaVu Sans', 'Liberation Sans', 'Bitstream Vera Sans', sans-serif; text-anchor: start; fill: #262626" x="713.8" y="138.034062" transform="rotate(-0 713.8 138.034062)">East Asia and Pacific</text>
    </g>
    <g id="patch_5">
     <path d="M 685.8 152.30125 
L 705.8 152.30125 
L 705.8 145.30125 
L 685.8 145.30125 
z
" style="fill: #dd8452; fill-opacity: 0.75; stroke: #ffffff; stroke-linejoin: miter"/>
    </g>
    <g id="text_19">
     <text style="font-size: 10px; font-family: 'Arial', 'DejaVu Sans', 'Liberation Sans', 'Bitstream Vera Sans', sans-serif; text-anchor: start; fill: #262626" x="713.8" y="152.30125" transform="rotate(-0 713.8 152.30125)">Europe and Central Asia</text>
    </g>
    <g id="patch_6">
     <path d="M 685.8 166.446562 
L 705.8 166.446562 
L 705.8 159.446562 
L 685.8 159.446562 
z
" style="fill: #55a868; fill-opacity: 0.75; stroke: #ffffff; stroke-linejoin: miter"/>
    </g>
    <g id="text_20">
     <text style="font-size: 10px; font-family: 'Arial', 'DejaVu Sans', 'Liberation Sans', 'Bitstream Vera Sans', sans-serif; text-anchor: start; fill: #262626" x="713.8" y="166.446562" transform="rotate(-0 713.8 166.446562)">Latin America and Caribbean</text>
    </g>
    <g id="patch_7">
     <path d="M 685.8 180.71375 
L 705.8 180.71375 
L 705.8 173.71375 
L 685.8 173.71375 
z
" style="fill: #c44e52; fill-opacity: 0.75; stroke: #ffffff; stroke-linejoin: miter"/>
    </g>
    <g id="text_21">
     <text style="font-size: 10px; font-family: 'Arial', 'DejaVu Sans', 'Liberation Sans', 'Bitstream Vera Sans', sans-serif; text-anchor: start; fill: #262626" x="713.8" y="180.71375" transform="rotate(-0 713.8 180.71375)">Middle East, North Africa, Afghanistan and Pakistan</text>
    </g>
    <g id="patch_8">
     <path d="M 685.8 194.97625 
L 705.8 194.97625 
L 705.8 187.97625 
L 685.8 187.97625 
z
" style="fill: #8172b3; fill-opacity: 0.75; stroke: #ffffff; stroke-linejoin: miter"/>
    </g>
    <g id="text_22">
     <text style="font-size: 10px; font-family: 'Arial', 'DejaVu Sans', 'Liberation Sans', 'Bitstream Vera Sans', sans-serif; text-anchor: start; fill: #262626" x="713.8" y="194.97625" transform="rotate(-0 713.8 194.97625)">North America</text>
    </g>
    <g id="patch_9">
     <path d="M 685.8 209.121562 
L 705.8 209.121562 
L 705.8 202.121562 
L 685.8 202.121562 
z
" style="fill: #937860; fill-opacity: 0.75; stroke: #ffffff; stroke-linejoin: miter"/>
    </g>
    <g id="text_23">
     <text style="font-size: 10px; font-family: 'Arial', 'DejaVu Sans', 'Liberation Sans', 'Bitstream Vera Sans', sans-serif; text-anchor: start; fill: #262626" x="713.8" y="209.121562" transform="rotate(-0 713.8 209.121562)">South Asia</text>
    </g>
    <g id="patch_10">
     <path d="M 685.8 223.266875 
L 705.8 223.266875 
L 705.8 216.266875 
L 685.8 216.266875 
z
" style="fill: #da8bc3; fill-opacity: 0.75; stroke: #ffffff; stroke-linejoin: miter"/>
    </g>
    <g id="text_24">
     <text style="font-size: 10px; font-family: 'Arial', 'DejaVu Sans', 'Liberation Sans', 'Bitstream Vera Sans', sans-serif; text-anchor: start; fill: #262626" x="713.8" y="223.266875" transform="rotate(-0 713.8 223.266875)">Sub-Saharan Africa</text>
    </g>
   </g>
  </g>
 </g>
</svg>
