<?xml version="1.0" encoding="utf-8" standalone="no"?>
<!DOCTYPE svg PUBLIC "-//W3C//DTD SVG 1.1//EN"
  "http://www.w3.org/Graphics/SVG/1.1/DTD/svg11.dtd">
<svg xmlns:xlink="http://www.w3.org/1999/xlink" width="953.453125pt" height="459.729687pt" viewBox="0 0 953.453125 459.729687" xmlns="http://www.w3.org/2000/svg" version="1.1">
 <metadata>
  <rdf:RDF xmlns:dc="http://purl.org/dc/elements/1.1/" xmlns:cc="http://creativecommons.org/ns#" xmlns:rdf="http://www.w3.org/1999/02/22-rdf-syntax-ns#">
   <cc:Work>
    <dc:type rdf:resource="http://purl.org/dc/dcmitype/StillImage"/>
    <dc:date>2026-05-22T12:36:53.795827</dc:date>
    <dc:format>image/svg+xml</dc:format>
    <dc:creator>
     <cc:Agent>
      <dc:title>Matplotlib v3.10.9, https://matplotlib.org/</dc:title>
     </cc:Agent>
    </dc:creator>
   </cc:Work>
  </rdf:RDF>
 </metadata>
 <defs>
  <style type="text/css">*{stroke-linejoin: round; stroke-linecap: butt}</style>
 </defs>
 <g id="figure_1">
  <g id="patch_1">
   <path d="M 0 459.729687 
L 953.453125 459.729687 
L 953.453125 0 
L 0 0 
z
" style="fill: #ffffff"/>
  </g>
  <g id="axes_1">
   <g id="patch_2">
    <path d="M 7.2 423 
L 844.2 423 
L 844.2 7.2 
L 7.2 7.2 
z
" style="fill: #ffffff"/>
   </g>
   <g id="matplotlib.axis_1">
    <g id="xtick_1">
     <g id="line2d_1">
      <defs>
       <path id="mb49a24e2de" d="M 0 0 
L 0 3.5 
" style="stroke: #262626; stroke-width: 0.8"/>
      </defs>
      <g>
       <use xlink:href="#mb49a24e2de" x="189.621361" y="423" style="fill: #262626; stroke: #262626; stroke-width: 0.8"/>
      </g>
     </g>
     <g id="text_1">
      <text style="font-size: 10px; font-family: 'Arial', 'DejaVu Sans', 'Liberation Sans', 'Bitstream Vera Sans', sans-serif; text-anchor: middle; fill: #262626" x="189.621361" y="437.157812" transform="rotate(-0 189.621361 437.157812)">$1</text>
     </g>
    </g>
    <g id="xtick_2">
     <g id="line2d_2">
      <g>
       <use xlink:href="#mb49a24e2de" x="252.538242" y="423" style="fill: #262626; stroke: #262626; stroke-width: 0.8"/>
      </g>
     </g>
     <g id="text_2">
      <text style="font-size: 10px; font-family: 'Arial', 'DejaVu Sans', 'Liberation Sans', 'Bitstream Vera Sans', sans-serif; text-anchor: middle; fill: #262626" x="252.538242" y="437.157812" transform="rotate(-0 252.538242 437.157812)">$2</text>
     </g>
    </g>
    <g id="xtick_3">
     <g id="line2d_3">
      <g>
       <use xlink:href="#mb49a24e2de" x="335.709835" y="423" style="fill: #262626; stroke: #262626; stroke-width: 0.8"/>
      </g>
     </g>
     <g id="text_3">
      <text style="font-size: 10px; font-family: 'Arial', 'DejaVu Sans', 'Liberation Sans', 'Bitstream Vera Sans', sans-serif; text-anchor: middle; fill: #262626" x="335.709835" y="437.157812" transform="rotate(-0 335.709835 437.157812)">$5</text>
     </g>
    </g>
    <g id="xtick_4">
     <g id="line2d_4">
      <g>
       <use xlink:href="#mb49a24e2de" x="398.626716" y="423" style="fill: #262626; stroke: #262626; stroke-width: 0.8"/>
      </g>
     </g>
     <g id="text_4">
      <text style="font-size: 10px; font-family: 'Arial', 'DejaVu Sans', 'Liberation Sans', 'Bitstream Vera Sans', sans-serif; text-anchor: middle; fill: #262626" x="398.626716" y="437.157812" transform="rotate(-0 398.626716 437.157812)">$10</text>
     </g>
    </g>
    <g id="xtick_5">
     <g id="line2d_5">
      <g>
       <use xlink:href="#mb49a24e2de" x="461.543597" y="423" style="fill: #262626; stroke: #262626; stroke-width: 0.8"/>
      </g>
     </g>
     <g id="text_5">
      <text style="font-size: 10px; font-family: 'Arial', 'DejaVu Sans', 'Liberation Sans', 'Bitstream Vera Sans', sans-serif; text-anchor: middle; fill: #262626" x="461.543597" y="437.157812" transform="rotate(-0 461.543597 437.157812)">$20</text>
     </g>
    </g>
    <g id="xtick_6">
     <g id="line2d_6">
      <g>
       <use xlink:href="#mb49a24e2de" x="544.71519" y="423" style="fill: #262626; stroke: #262626; stroke-width: 0.8"/>
      </g>
     </g>
     <g id="text_6">
      <text style="font-size: 10px; font-family: 'Arial', 'DejaVu Sans', 'Liberation Sans', 'Bitstream Vera Sans', sans-serif; text-anchor: middle; fill: #262626" x="544.71519" y="437.157812" transform="rotate(-0 544.71519 437.157812)">$50</text>
     </g>
    </g>
    <g id="xtick_7">
     <g id="line2d_7">
      <g>
       <use xlink:href="#mb49a24e2de" x="607.632071" y="423" style="fill: #262626; stroke: #262626; stroke-width: 0.8"/>
      </g>
     </g>
     <g id="text_7">
      <text style="font-size: 10px; font-family: 'Arial', 'DejaVu Sans', 'Liberation Sans', 'Bitstream Vera Sans', sans-serif; text-anchor: middle; fill: #262626" x="607.632071" y="437.157812" transform="rotate(-0 607.632071 437.157812)">$100</text>
     </g>
    </g>
    <g id="xtick_8">
     <g id="line2d_8">
      <g>
       <use xlink:href="#mb49a24e2de" x="670.548952" y="423" style="fill: #262626; stroke: #262626; stroke-width: 0.8"/>
      </g>
     </g>
     <g id="text_8">
      <text style="font-size: 10px; font-family: 'Arial', 'DejaVu Sans', 'Liberation Sans', 'Bitstream Vera Sans', sans-serif; text-anchor: middle; fill: #262626" x="670.548952" y="437.157812" transform="rotate(-0 670.548952 437.157812)">$200</text>
     </g>
    </g>
    <g id="xtick_9">
     <g id="line2d_9">
      <g>
       <use xlink:href="#mb49a24e2de" x="753.720545" y="423" style="fill: #262626; stroke: #262626; stroke-width: 0.8"/>
      </g>
     </g>
     <g id="text_9">
      <text style="font-size: 10px; font-family: 'Arial', 'DejaVu Sans', 'Liberation Sans', 'Bitstream Vera Sans', sans-serif; text-anchor: middle; fill: #262626" x="753.720545" y="437.157812" transform="rotate(-0 753.720545 437.157812)">$500</text>
     </g>
    </g>
    <g id="xtick_10">
     <g id="line2d_10">
      <g>
       <use xlink:href="#mb49a24e2de" x="816.637426" y="423" style="fill: #262626; stroke: #262626; stroke-width: 0.8"/>
      </g>
     </g>
     <g id="text_10">
      <text style="font-size: 10px; font-family: 'Arial', 'DejaVu Sans', 'Liberation Sans', 'Bitstream Vera Sans', sans-serif; text-anchor: middle; fill: #262626" x="816.637426" y="437.157812" transform="rotate(-0 816.637426 437.157812)">$1000</text>
     </g>
    </g>
    <g id="xtick_11">
     <g id="line2d_11">
      <defs>
       <path id="m2bac0dac70" d="M 0 0 
L 0 2 
" style="stroke: #262626; stroke-width: 0.6"/>
      </defs>
      <g>
       <use xlink:href="#m2bac0dac70" x="43.532887" y="423" style="fill: #262626; stroke: #262626; stroke-width: 0.6"/>
      </g>
     </g>
    </g>
    <g id="xtick_12">
     <g id="line2d_12">
      <g>
       <use xlink:href="#m2bac0dac70" x="80.336903" y="423" style="fill: #262626; stroke: #262626; stroke-width: 0.6"/>
      </g>
     </g>
    </g>
    <g id="xtick_13">
     <g id="line2d_13">
      <g>
       <use xlink:href="#m2bac0dac70" x="106.449768" y="423" style="fill: #262626; stroke: #262626; stroke-width: 0.6"/>
      </g>
     </g>
    </g>
    <g id="xtick_14">
     <g id="line2d_14">
      <g>
       <use xlink:href="#m2bac0dac70" x="126.70448" y="423" style="fill: #262626; stroke: #262626; stroke-width: 0.6"/>
      </g>
     </g>
    </g>
    <g id="xtick_15">
     <g id="line2d_15">
      <g>
       <use xlink:href="#m2bac0dac70" x="143.253784" y="423" style="fill: #262626; stroke: #262626; stroke-width: 0.6"/>
      </g>
     </g>
    </g>
    <g id="xtick_16">
     <g id="line2d_16">
      <g>
       <use xlink:href="#m2bac0dac70" x="157.246022" y="423" style="fill: #262626; stroke: #262626; stroke-width: 0.6"/>
      </g>
     </g>
    </g>
    <g id="xtick_17">
     <g id="line2d_17">
      <g>
       <use xlink:href="#m2bac0dac70" x="169.366649" y="423" style="fill: #262626; stroke: #262626; stroke-width: 0.6"/>
      </g>
     </g>
    </g>
    <g id="xtick_18">
     <g id="line2d_18">
      <g>
       <use xlink:href="#m2bac0dac70" x="180.0578" y="423" style="fill: #262626; stroke: #262626; stroke-width: 0.6"/>
      </g>
     </g>
    </g>
    <g id="xtick_19">
     <g id="line2d_19">
      <g>
       <use xlink:href="#m2bac0dac70" x="289.342258" y="423" style="fill: #262626; stroke: #262626; stroke-width: 0.6"/>
      </g>
     </g>
    </g>
    <g id="xtick_20">
     <g id="line2d_20">
      <g>
       <use xlink:href="#m2bac0dac70" x="315.455123" y="423" style="fill: #262626; stroke: #262626; stroke-width: 0.6"/>
      </g>
     </g>
    </g>
    <g id="xtick_21">
     <g id="line2d_21">
      <g>
       <use xlink:href="#m2bac0dac70" x="352.259139" y="423" style="fill: #262626; stroke: #262626; stroke-width: 0.6"/>
      </g>
     </g>
    </g>
    <g id="xtick_22">
     <g id="line2d_22">
      <g>
       <use xlink:href="#m2bac0dac70" x="366.251377" y="423" style="fill: #262626; stroke: #262626; stroke-width: 0.6"/>
      </g>
     </g>
    </g>
    <g id="xtick_23">
     <g id="line2d_23">
      <g>
       <use xlink:href="#m2bac0dac70" x="378.372004" y="423" style="fill: #262626; stroke: #262626; stroke-width: 0.6"/>
      </g>
     </g>
    </g>
    <g id="xtick_24">
     <g id="line2d_24">
      <g>
       <use xlink:href="#m2bac0dac70" x="389.063155" y="423" style="fill: #262626; stroke: #262626; stroke-width: 0.6"/>
      </g>
     </g>
    </g>
    <g id="xtick_25">
     <g id="line2d_25">
      <g>
       <use xlink:href="#m2bac0dac70" x="498.347613" y="423" style="fill: #262626; stroke: #262626; stroke-width: 0.6"/>
      </g>
     </g>
    </g>
    <g id="xtick_26">
     <g id="line2d_26">
      <g>
       <use xlink:href="#m2bac0dac70" x="524.460478" y="423" style="fill: #262626; stroke: #262626; stroke-width: 0.6"/>
      </g>
     </g>
    </g>
    <g id="xtick_27">
     <g id="line2d_27">
      <g>
       <use xlink:href="#m2bac0dac70" x="561.264494" y="423" style="fill: #262626; stroke: #262626; stroke-width: 0.6"/>
      </g>
     </g>
    </g>
    <g id="xtick_28">
     <g id="line2d_28">
      <g>
       <use xlink:href="#m2bac0dac70" x="575.256732" y="423" style="fill: #262626; stroke: #262626; stroke-width: 0.6"/>
      </g>
     </g>
    </g>
    <g id="xtick_29">
     <g id="line2d_29">
      <g>
       <use xlink:href="#m2bac0dac70" x="587.377359" y="423" style="fill: #262626; stroke: #262626; stroke-width: 0.6"/>
      </g>
     </g>
    </g>
    <g id="xtick_30">
     <g id="line2d_30">
      <g>
       <use xlink:href="#m2bac0dac70" x="598.068511" y="423" style="fill: #262626; stroke: #262626; stroke-width: 0.6"/>
      </g>
     </g>
    </g>
    <g id="xtick_31">
     <g id="line2d_31">
      <g>
       <use xlink:href="#m2bac0dac70" x="707.352968" y="423" style="fill: #262626; stroke: #262626; stroke-width: 0.6"/>
      </g>
     </g>
    </g>
    <g id="xtick_32">
     <g id="line2d_32">
      <g>
       <use xlink:href="#m2bac0dac70" x="733.465833" y="423" style="fill: #262626; stroke: #262626; stroke-width: 0.6"/>
      </g>
     </g>
    </g>
    <g id="xtick_33">
     <g id="line2d_33">
      <g>
       <use xlink:href="#m2bac0dac70" x="770.26985" y="423" style="fill: #262626; stroke: #262626; stroke-width: 0.6"/>
      </g>
     </g>
    </g>
    <g id="xtick_34">
     <g id="line2d_34">
      <g>
       <use xlink:href="#m2bac0dac70" x="784.262087" y="423" style="fill: #262626; stroke: #262626; stroke-width: 0.6"/>
      </g>
     </g>
    </g>
    <g id="xtick_35">
     <g id="line2d_35">
      <g>
       <use xlink:href="#m2bac0dac70" x="796.382715" y="423" style="fill: #262626; stroke: #262626; stroke-width: 0.6"/>
      </g>
     </g>
    </g>
    <g id="xtick_36">
     <g id="line2d_36">
      <g>
       <use xlink:href="#m2bac0dac70" x="807.073866" y="423" style="fill: #262626; stroke: #262626; stroke-width: 0.6"/>
      </g>
     </g>
    </g>
    <g id="text_11">
     <text style="font-size: 10px; font-family: 'Arial', 'DejaVu Sans', 'Liberation Sans', 'Bitstream Vera Sans', sans-serif; text-anchor: middle; fill: #262626" x="425.7" y="450.425" transform="rotate(-0 425.7 450.425)">Income or consumption (day)</text>
    </g>
   </g>
   <g id="matplotlib.axis_2"/>
   <g id="FillBetweenPolyCollection_1">
    <defs>
     <path id="m2db96485a3" d="M 45.245455 -36.734297 
L 45.245455 -36.729687 
L 49.069118 -36.729687 
L 52.892782 -36.729687 
L 56.716446 -36.729687 
L 60.54011 -36.729687 
L 64.363773 -36.729687 
L 68.187437 -36.729687 
L 72.011101 -36.729687 
L 75.834765 -36.729687 
L 79.658429 -36.729687 
L 83.482092 -36.729687 
L 87.305756 -36.729687 
L 91.12942 -36.729687 
L 94.953084 -36.729687 
L 98.776747 -36.729687 
L 102.600411 -36.729687 
L 106.424075 -36.729687 
L 110.247739 -36.729687 
L 114.071402 -36.729687 
L 117.895066 -36.729687 
L 121.71873 -36.729687 
L 125.542394 -36.729687 
L 129.366058 -36.729687 
L 133.189721 -36.729687 
L 137.013385 -36.729687 
L 140.837049 -36.729687 
L 144.660713 -36.729687 
L 148.484376 -36.729687 
L 152.30804 -36.729687 
L 156.131704 -36.729687 
L 159.955368 -36.729687 
L 163.779032 -36.729687 
L 167.602695 -36.729687 
L 171.426359 -36.729687 
L 175.250023 -36.729687 
L 179.073687 -36.729687 
L 182.89735 -36.729687 
L 186.721014 -36.729687 
L 190.544678 -36.729687 
L 194.368342 -36.729687 
L 198.192005 -36.729687 
L 202.015669 -36.729687 
L 205.839333 -36.729687 
L 209.662997 -36.729687 
L 213.486661 -36.729687 
L 217.310324 -36.729687 
L 221.133988 -36.729687 
L 224.957652 -36.729687 
L 228.781316 -36.729687 
L 232.604979 -36.729687 
L 236.428643 -36.729687 
L 240.252307 -36.729687 
L 244.075971 -36.729687 
L 247.899635 -36.729687 
L 251.723298 -36.729687 
L 255.546962 -36.729687 
L 259.370626 -36.729687 
L 263.19429 -36.729687 
L 267.017953 -36.729687 
L 270.841617 -36.729687 
L 274.665281 -36.729687 
L 278.488945 -36.729687 
L 282.312608 -36.729687 
L 286.136272 -36.729687 
L 289.959936 -36.729687 
L 293.7836 -36.729687 
L 297.607264 -36.729687 
L 301.430927 -36.729687 
L 305.254591 -36.729687 
L 309.078255 -36.729687 
L 312.901919 -36.729687 
L 316.725582 -36.729687 
L 320.549246 -36.729687 
L 324.37291 -36.729687 
L 328.196574 -36.729687 
L 332.020238 -36.729687 
L 335.843901 -36.729687 
L 339.667565 -36.729687 
L 343.491229 -36.729687 
L 347.314893 -36.729687 
L 351.138556 -36.729687 
L 354.96222 -36.729687 
L 358.785884 -36.729687 
L 362.609548 -36.729687 
L 366.433212 -36.729687 
L 370.256875 -36.729687 
L 374.080539 -36.729687 
L 377.904203 -36.729687 
L 381.727867 -36.729687 
L 385.55153 -36.729687 
L 389.375194 -36.729687 
L 393.198858 -36.729687 
L 397.022522 -36.729687 
L 400.846185 -36.729687 
L 404.669849 -36.729687 
L 408.493513 -36.729687 
L 412.317177 -36.729687 
L 416.140841 -36.729687 
L 419.964504 -36.729687 
L 423.788168 -36.729687 
L 427.611832 -36.729687 
L 431.435496 -36.729687 
L 435.259159 -36.729687 
L 439.082823 -36.729687 
L 442.906487 -36.729687 
L 446.730151 -36.729687 
L 450.553815 -36.729687 
L 454.377478 -36.729687 
L 458.201142 -36.729687 
L 462.024806 -36.729687 
L 465.84847 -36.729687 
L 469.672133 -36.729687 
L 473.495797 -36.729687 
L 477.319461 -36.729687 
L 481.143125 -36.729687 
L 484.966788 -36.729687 
L 488.790452 -36.729687 
L 492.614116 -36.729687 
L 496.43778 -36.729687 
L 500.261444 -36.729687 
L 504.085107 -36.729687 
L 507.908771 -36.729687 
L 511.732435 -36.729687 
L 515.556099 -36.729687 
L 519.379762 -36.729687 
L 523.203426 -36.729687 
L 527.02709 -36.729687 
L 530.850754 -36.729687 
L 534.674418 -36.729687 
L 538.498081 -36.729687 
L 542.321745 -36.729687 
L 546.145409 -36.729687 
L 549.969073 -36.729687 
L 553.792736 -36.729687 
L 557.6164 -36.729687 
L 561.440064 -36.729687 
L 565.263728 -36.729687 
L 569.087392 -36.729687 
L 572.911055 -36.729687 
L 576.734719 -36.729687 
L 580.558383 -36.729687 
L 584.382047 -36.729687 
L 588.20571 -36.729687 
L 592.029374 -36.729687 
L 595.853038 -36.729687 
L 599.676702 -36.729687 
L 603.500365 -36.729687 
L 607.324029 -36.729687 
L 611.147693 -36.729687 
L 614.971357 -36.729687 
L 618.795021 -36.729687 
L 622.618684 -36.729687 
L 626.442348 -36.729687 
L 630.266012 -36.729687 
L 634.089676 -36.729687 
L 637.913339 -36.729687 
L 641.737003 -36.729687 
L 645.560667 -36.729687 
L 649.384331 -36.729687 
L 653.207995 -36.729687 
L 657.031658 -36.729687 
L 660.855322 -36.729687 
L 664.678986 -36.729687 
L 668.50265 -36.729687 
L 672.326313 -36.729687 
L 676.149977 -36.729687 
L 679.973641 -36.729687 
L 683.797305 -36.729687 
L 687.620968 -36.729687 
L 691.444632 -36.729687 
L 695.268296 -36.729687 
L 699.09196 -36.729687 
L 702.915624 -36.729687 
L 706.739287 -36.729687 
L 710.562951 -36.729687 
L 714.386615 -36.729687 
L 718.210279 -36.729687 
L 722.033942 -36.729687 
L 725.857606 -36.729687 
L 729.68127 -36.729687 
L 733.504934 -36.729687 
L 737.328598 -36.729687 
L 741.152261 -36.729687 
L 744.975925 -36.729687 
L 748.799589 -36.729687 
L 752.623253 -36.729687 
L 756.446916 -36.729687 
L 760.27058 -36.729687 
L 764.094244 -36.729687 
L 767.917908 -36.729687 
L 771.741571 -36.729687 
L 775.565235 -36.729687 
L 779.388899 -36.729687 
L 783.212563 -36.729687 
L 787.036227 -36.729687 
L 790.85989 -36.729687 
L 794.683554 -36.729687 
L 798.507218 -36.729687 
L 802.330882 -36.729687 
L 806.154545 -36.729687 
L 806.154545 -36.729687 
L 806.154545 -36.729687 
L 802.330882 -36.729687 
L 798.507218 -36.729687 
L 794.683554 -36.729687 
L 790.85989 -36.729687 
L 787.036227 -36.729687 
L 783.212563 -36.729687 
L 779.388899 -36.729687 
L 775.565235 -36.729687 
L 771.741571 -36.729687 
L 767.917908 -36.729687 
L 764.094244 -36.729687 
L 760.27058 -36.729687 
L 756.446916 -36.729687 
L 752.623253 -36.729687 
L 748.799589 -36.729687 
L 744.975925 -36.729687 
L 741.152261 -36.729687 
L 737.328598 -36.729687 
L 733.504934 -36.729687 
L 729.68127 -36.729687 
L 725.857606 -36.729687 
L 722.033942 -36.729687 
L 718.210279 -36.729687 
L 714.386615 -36.729687 
L 710.562951 -36.729687 
L 706.739287 -36.729687 
L 702.915624 -36.729687 
L 699.09196 -36.729687 
L 695.268296 -36.729687 
L 691.444632 -36.729687 
L 687.620968 -36.729687 
L 683.797305 -36.729688 
L 679.973641 -36.729688 
L 676.149977 -36.729688 
L 672.326313 -36.729688 
L 668.50265 -36.729688 
L 664.678986 -36.729688 
L 660.855322 -36.729688 
L 657.031658 -36.729688 
L 653.207995 -36.729688 
L 649.384331 -36.72969 
L 645.560667 -36.729698 
L 641.737003 -36.729722 
L 637.913339 -36.729789 
L 634.089676 -36.729954 
L 630.266012 -36.730301 
L 626.442348 -36.730944 
L 622.618684 -36.732 
L 618.795021 -36.733595 
L 614.971357 -36.735949 
L 611.147693 -36.739619 
L 607.324029 -36.745874 
L 603.500365 -36.757 
L 599.676702 -36.776153 
L 595.853038 -36.806429 
L 592.029374 -36.849252 
L 588.20571 -36.902919 
L 584.382047 -36.962389 
L 580.558383 -37.020868 
L 576.734719 -37.0725 
L 572.911055 -37.114694 
L 569.087392 -37.148855 
L 565.263728 -37.179255 
L 561.440064 -37.210764 
L 557.6164 -37.246667 
L 553.792736 -37.287753 
L 549.969073 -37.333062 
L 546.145409 -37.38157 
L 542.321745 -37.433337 
L 538.498081 -37.48918 
L 534.674418 -37.549182 
L 530.850754 -37.611515 
L 527.02709 -37.672957 
L 523.203426 -37.731226 
L 519.379762 -37.787687 
L 515.556099 -37.848387 
L 511.732435 -37.922432 
L 507.908771 -38.018643 
L 504.085107 -38.142533 
L 500.261444 -38.295314 
L 496.43778 -38.475159 
L 492.614116 -38.679687 
L 488.790452 -38.908252 
L 484.966788 -39.163234 
L 481.143125 -39.450296 
L 477.319461 -39.777847 
L 473.495797 -40.155641 
L 469.672133 -40.592386 
L 465.84847 -41.093273 
L 462.024806 -41.659794 
L 458.201142 -42.293803 
L 454.377478 -43.003901 
L 450.553815 -43.807838 
L 446.730151 -44.725514 
L 442.906487 -45.765101 
L 439.082823 -46.913355 
L 435.259159 -48.140703 
L 431.435496 -49.419865 
L 427.611832 -50.743665 
L 423.788168 -52.127263 
L 419.964504 -53.594194 
L 416.140841 -55.159963 
L 412.317177 -56.826815 
L 408.493513 -58.590825 
L 404.669849 -60.452001 
L 400.846185 -62.417932 
L 397.022522 -64.498317 
L 393.198858 -66.695542 
L 389.375194 -69.001294 
L 385.55153 -71.406175 
L 381.727867 -73.917146 
L 377.904203 -76.565486 
L 374.080539 -79.390361 
L 370.256875 -82.402752 
L 366.433212 -85.555859 
L 362.609548 -88.749501 
L 358.785884 -91.871481 
L 354.96222 -94.848145 
L 351.138556 -97.668322 
L 347.314893 -100.367644 
L 343.491229 -102.991054 
L 339.667565 -105.561676 
L 335.843901 -108.070926 
L 332.020238 -110.486504 
L 328.196574 -112.76679 
L 324.37291 -114.871137 
L 320.549246 -116.760461 
L 316.725582 -118.390857 
L 312.901919 -119.711185 
L 309.078255 -120.674469 
L 305.254591 -121.259738 
L 301.430927 -121.488187 
L 297.607264 -121.41853 
L 293.7836 -121.120028 
L 289.959936 -120.63639 
L 286.136272 -119.961071 
L 282.312608 -119.040059 
L 278.488945 -117.800861 
L 274.665281 -116.186973 
L 270.841617 -114.175564 
L 267.017953 -111.776163 
L 263.19429 -109.026232 
L 259.370626 -105.993422 
L 255.546962 -102.774601 
L 251.723298 -99.477515 
L 247.899635 -96.189922 
L 244.075971 -92.958798 
L 240.252307 -89.794999 
L 236.428643 -86.694689 
L 232.604979 -83.656202 
L 228.781316 -80.682214 
L 224.957652 -77.775081 
L 221.133988 -74.937143 
L 217.310324 -72.177369 
L 213.486661 -69.515736 
L 209.662997 -66.977562 
L 205.839333 -64.579868 
L 202.015669 -62.321244 
L 198.192005 -60.186057 
L 194.368342 -58.161392 
L 190.544678 -56.252072 
L 186.721014 -54.479978 
L 182.89735 -52.868759 
L 179.073687 -51.427888 
L 175.250023 -50.147547 
L 171.426359 -49.003935 
L 167.602695 -47.967879 
L 163.779032 -47.012489 
L 159.955368 -46.119624 
L 156.131704 -45.28407 
L 152.30804 -44.512158 
L 148.484376 -43.813667 
L 144.660713 -43.19138 
L 140.837049 -42.635435 
L 137.013385 -42.126227 
L 133.189721 -41.643014 
L 129.366058 -41.171893 
L 125.542394 -40.709018 
L 121.71873 -40.25938 
L 117.895066 -39.833663 
L 114.071402 -39.445009 
L 110.247739 -39.106035 
L 106.424075 -38.825695 
L 102.600411 -38.605759 
L 98.776747 -38.437879 
L 94.953084 -38.30359 
L 91.12942 -38.179074 
L 87.305756 -38.043266 
L 83.482092 -37.884743 
L 79.658429 -37.703556 
L 75.834765 -37.508591 
L 72.011101 -37.31381 
L 68.187437 -37.135067 
L 64.363773 -36.9865 
L 60.54011 -36.876324 
L 56.716446 -36.804351 
L 52.892782 -36.763308 
L 49.069118 -36.742995 
L 45.245455 -36.734297 
z
" style="stroke: #ffffff"/>
    </defs>
    <g>
     <use xlink:href="#m2db96485a3" x="0" y="459.729687" style="fill: #da8bc3; fill-opacity: 0.75; stroke: #ffffff"/>
    </g>
   </g>
   <g id="FillBetweenPolyCollection_2">
    <defs>
     <path id="m1b159ef9eb" d="M 45.245455 -36.734297 
L 45.245455 -36.734297 
L 49.069118 -36.742995 
L 52.892782 -36.763308 
L 56.716446 -36.804351 
L 60.54011 -36.876324 
L 64.363773 -36.9865 
L 68.187437 -37.135067 
L 72.011101 -37.31381 
L 75.834765 -37.508591 
L 79.658429 -37.703556 
L 83.482092 -37.884743 
L 87.305756 -38.043266 
L 91.12942 -38.179074 
L 94.953084 -38.30359 
L 98.776747 -38.437879 
L 102.600411 -38.605759 
L 106.424075 -38.825695 
L 110.247739 -39.106035 
L 114.071402 -39.445009 
L 117.895066 -39.833663 
L 121.71873 -40.25938 
L 125.542394 -40.709018 
L 129.366058 -41.171893 
L 133.189721 -41.643014 
L 137.013385 -42.126227 
L 140.837049 -42.635435 
L 144.660713 -43.19138 
L 148.484376 -43.813667 
L 152.30804 -44.512158 
L 156.131704 -45.28407 
L 159.955368 -46.119624 
L 163.779032 -47.012489 
L 167.602695 -47.967879 
L 171.426359 -49.003935 
L 175.250023 -50.147547 
L 179.073687 -51.427888 
L 182.89735 -52.868759 
L 186.721014 -54.479978 
L 190.544678 -56.252072 
L 194.368342 -58.161392 
L 198.192005 -60.186057 
L 202.015669 -62.321244 
L 205.839333 -64.579868 
L 209.662997 -66.977562 
L 213.486661 -69.515736 
L 217.310324 -72.177369 
L 221.133988 -74.937143 
L 224.957652 -77.775081 
L 228.781316 -80.682214 
L 232.604979 -83.656202 
L 236.428643 -86.694689 
L 240.252307 -89.794999 
L 244.075971 -92.958798 
L 247.899635 -96.189922 
L 251.723298 -99.477515 
L 255.546962 -102.774601 
L 259.370626 -105.993422 
L 263.19429 -109.026232 
L 267.017953 -111.776163 
L 270.841617 -114.175564 
L 274.665281 -116.186973 
L 278.488945 -117.800861 
L 282.312608 -119.040059 
L 286.136272 -119.961071 
L 289.959936 -120.63639 
L 293.7836 -121.120028 
L 297.607264 -121.41853 
L 301.430927 -121.488187 
L 305.254591 -121.259738 
L 309.078255 -120.674469 
L 312.901919 -119.711185 
L 316.725582 -118.390857 
L 320.549246 -116.760461 
L 324.37291 -114.871137 
L 328.196574 -112.76679 
L 332.020238 -110.486504 
L 335.843901 -108.070926 
L 339.667565 -105.561676 
L 343.491229 -102.991054 
L 347.314893 -100.367644 
L 351.138556 -97.668322 
L 354.96222 -94.848145 
L 358.785884 -91.871481 
L 362.609548 -88.749501 
L 366.433212 -85.555859 
L 370.256875 -82.402752 
L 374.080539 -79.390361 
L 377.904203 -76.565486 
L 381.727867 -73.917146 
L 385.55153 -71.406175 
L 389.375194 -69.001294 
L 393.198858 -66.695542 
L 397.022522 -64.498317 
L 400.846185 -62.417932 
L 404.669849 -60.452001 
L 408.493513 -58.590825 
L 412.317177 -56.826815 
L 416.140841 -55.159963 
L 419.964504 -53.594194 
L 423.788168 -52.127263 
L 427.611832 -50.743665 
L 431.435496 -49.419865 
L 435.259159 -48.140703 
L 439.082823 -46.913355 
L 442.906487 -45.765101 
L 446.730151 -44.725514 
L 450.553815 -43.807838 
L 454.377478 -43.003901 
L 458.201142 -42.293803 
L 462.024806 -41.659794 
L 465.84847 -41.093273 
L 469.672133 -40.592386 
L 473.495797 -40.155641 
L 477.319461 -39.777847 
L 481.143125 -39.450296 
L 484.966788 -39.163234 
L 488.790452 -38.908252 
L 492.614116 -38.679687 
L 496.43778 -38.475159 
L 500.261444 -38.295314 
L 504.085107 -38.142533 
L 507.908771 -38.018643 
L 511.732435 -37.922432 
L 515.556099 -37.848387 
L 519.379762 -37.787687 
L 523.203426 -37.731226 
L 527.02709 -37.672957 
L 530.850754 -37.611515 
L 534.674418 -37.549182 
L 538.498081 -37.48918 
L 542.321745 -37.433337 
L 546.145409 -37.38157 
L 549.969073 -37.333062 
L 553.792736 -37.287753 
L 557.6164 -37.246667 
L 561.440064 -37.210764 
L 565.263728 -37.179255 
L 569.087392 -37.148855 
L 572.911055 -37.114694 
L 576.734719 -37.0725 
L 580.558383 -37.020868 
L 584.382047 -36.962389 
L 588.20571 -36.902919 
L 592.029374 -36.849252 
L 595.853038 -36.806429 
L 599.676702 -36.776153 
L 603.500365 -36.757 
L 607.324029 -36.745874 
L 611.147693 -36.739619 
L 614.971357 -36.735949 
L 618.795021 -36.733595 
L 622.618684 -36.732 
L 626.442348 -36.730944 
L 630.266012 -36.730301 
L 634.089676 -36.729954 
L 637.913339 -36.729789 
L 641.737003 -36.729722 
L 645.560667 -36.729698 
L 649.384331 -36.72969 
L 653.207995 -36.729688 
L 657.031658 -36.729688 
L 660.855322 -36.729688 
L 664.678986 -36.729688 
L 668.50265 -36.729688 
L 672.326313 -36.729688 
L 676.149977 -36.729688 
L 679.973641 -36.729688 
L 683.797305 -36.729688 
L 687.620968 -36.729687 
L 691.444632 -36.729687 
L 695.268296 -36.729687 
L 699.09196 -36.729687 
L 702.915624 -36.729687 
L 706.739287 -36.729687 
L 710.562951 -36.729687 
L 714.386615 -36.729687 
L 718.210279 -36.729687 
L 722.033942 -36.729687 
L 725.857606 -36.729687 
L 729.68127 -36.729687 
L 733.504934 -36.729687 
L 737.328598 -36.729687 
L 741.152261 -36.729687 
L 744.975925 -36.729687 
L 748.799589 -36.729687 
L 752.623253 -36.729687 
L 756.446916 -36.729687 
L 760.27058 -36.729687 
L 764.094244 -36.729687 
L 767.917908 -36.729687 
L 771.741571 -36.729687 
L 775.565235 -36.729687 
L 779.388899 -36.729687 
L 783.212563 -36.729687 
L 787.036227 -36.729687 
L 790.85989 -36.729687 
L 794.683554 -36.729687 
L 798.507218 -36.729687 
L 802.330882 -36.729687 
L 806.154545 -36.729687 
L 806.154545 -36.729687 
L 806.154545 -36.729687 
L 802.330882 -36.729687 
L 798.507218 -36.729687 
L 794.683554 -36.729687 
L 790.85989 -36.729687 
L 787.036227 -36.729687 
L 783.212563 -36.729687 
L 779.388899 -36.729687 
L 775.565235 -36.729687 
L 771.741571 -36.729687 
L 767.917908 -36.729687 
L 764.094244 -36.729687 
L 760.27058 -36.729687 
L 756.446916 -36.729687 
L 752.623253 -36.729687 
L 748.799589 -36.729687 
L 744.975925 -36.729687 
L 741.152261 -36.729687 
L 737.328598 -36.729687 
L 733.504934 -36.729687 
L 729.68127 -36.729687 
L 725.857606 -36.729687 
L 722.033942 -36.729687 
L 718.210279 -36.729687 
L 714.386615 -36.729687 
L 710.562951 -36.729687 
L 706.739287 -36.729687 
L 702.915624 -36.729687 
L 699.09196 -36.729687 
L 695.268296 -36.729687 
L 691.444632 -36.729687 
L 687.620968 -36.729687 
L 683.797305 -36.729688 
L 679.973641 -36.729688 
L 676.149977 -36.729688 
L 672.326313 -36.729688 
L 668.50265 -36.729688 
L 664.678986 -36.729688 
L 660.855322 -36.729688 
L 657.031658 -36.729688 
L 653.207995 -36.729688 
L 649.384331 -36.72969 
L 645.560667 -36.729698 
L 641.737003 -36.729722 
L 637.913339 -36.729789 
L 634.089676 -36.729954 
L 630.266012 -36.730301 
L 626.442348 -36.730944 
L 622.618684 -36.732 
L 618.795021 -36.733595 
L 614.971357 -36.735949 
L 611.147693 -36.739619 
L 607.324029 -36.745874 
L 603.500365 -36.757001 
L 599.676702 -36.77616 
L 595.853038 -36.806453 
L 592.029374 -36.849329 
L 588.20571 -36.903133 
L 584.382047 -36.962905 
L 580.558383 -37.021965 
L 576.734719 -37.074574 
L 572.911055 -37.118233 
L 569.087392 -37.154396 
L 565.263728 -37.1874 
L 561.440064 -37.222335 
L 557.6164 -37.26306 
L 553.792736 -37.311369 
L 549.969073 -37.367495 
L 546.145409 -37.43116 
L 542.321745 -37.502052 
L 538.498081 -37.579382 
L 534.674418 -37.661177 
L 530.850754 -37.744376 
L 527.02709 -37.826379 
L 523.203426 -37.907908 
L 519.379762 -37.996034 
L 515.556099 -38.105532 
L 511.732435 -38.256703 
L 507.908771 -38.469319 
L 504.085107 -38.755073 
L 500.261444 -39.113593 
L 496.43778 -39.537019 
L 492.614116 -40.024137 
L 488.790452 -40.599786 
L 484.966788 -41.33118 
L 481.143125 -42.32863 
L 477.319461 -43.716896 
L 473.495797 -45.578024 
L 469.672133 -47.897929 
L 465.84847 -50.564135 
L 462.024806 -53.428956 
L 458.201142 -56.39662 
L 454.377478 -59.474483 
L 450.553815 -62.762415 
L 446.730151 -66.398878 
L 442.906487 -70.502621 
L 439.082823 -75.143016 
L 435.259159 -80.347732 
L 431.435496 -86.129149 
L 427.611832 -92.504668 
L 423.788168 -99.503269 
L 419.964504 -107.163728 
L 416.140841 -115.525036 
L 412.317177 -124.607134 
L 408.493513 -134.392745 
L 404.669849 -144.827164 
L 400.846185 -155.834911 
L 397.022522 -167.330768 
L 393.198858 -179.208945 
L 389.375194 -191.323878 
L 385.55153 -203.492209 
L 381.727867 -215.522862 
L 377.904203 -227.243732 
L 374.080539 -238.487873 
L 370.256875 -249.043102 
L 366.433212 -258.614002 
L 362.609548 -266.841829 
L 358.785884 -273.376105 
L 354.96222 -277.948803 
L 351.138556 -280.411789 
L 347.314893 -280.735611 
L 343.491229 -278.982431 
L 339.667565 -275.260876 
L 335.843901 -269.683925 
L 332.020238 -262.371332 
L 328.196574 -253.510609 
L 324.37291 -243.421562 
L 320.549246 -232.544612 
L 316.725582 -221.338215 
L 312.901919 -210.15949 
L 309.078255 -199.220567 
L 305.254591 -188.643788 
L 301.430927 -178.54897 
L 297.607264 -169.081514 
L 293.7836 -160.355497 
L 289.959936 -152.374434 
L 286.136272 -145.01723 
L 282.312608 -138.119804 
L 278.488945 -131.595809 
L 274.665281 -125.494762 
L 270.841617 -119.941826 
L 267.017953 -115.012198 
L 263.19429 -110.654798 
L 259.370626 -106.723153 
L 255.546962 -103.064246 
L 251.723298 -99.578933 
L 247.899635 -96.22112 
L 244.075971 -92.96719 
L 240.252307 -89.796963 
L 236.428643 -86.695087 
L 232.604979 -83.656271 
L 228.781316 -80.682224 
L 224.957652 -77.775082 
L 221.133988 -74.937143 
L 217.310324 -72.177369 
L 213.486661 -69.515736 
L 209.662997 -66.977562 
L 205.839333 -64.579868 
L 202.015669 -62.321244 
L 198.192005 -60.186057 
L 194.368342 -58.161392 
L 190.544678 -56.252072 
L 186.721014 -54.479978 
L 182.89735 -52.868759 
L 179.073687 -51.427888 
L 175.250023 -50.147547 
L 171.426359 -49.003935 
L 167.602695 -47.967879 
L 163.779032 -47.012489 
L 159.955368 -46.119624 
L 156.131704 -45.28407 
L 152.30804 -44.512158 
L 148.484376 -43.813667 
L 144.660713 -43.19138 
L 140.837049 -42.635435 
L 137.013385 -42.126227 
L 133.189721 -41.643014 
L 129.366058 -41.171893 
L 125.542394 -40.709018 
L 121.71873 -40.25938 
L 117.895066 -39.833663 
L 114.071402 -39.445009 
L 110.247739 -39.106035 
L 106.424075 -38.825695 
L 102.600411 -38.605759 
L 98.776747 -38.437879 
L 94.953084 -38.30359 
L 91.12942 -38.179074 
L 87.305756 -38.043266 
L 83.482092 -37.884743 
L 79.658429 -37.703556 
L 75.834765 -37.508591 
L 72.011101 -37.31381 
L 68.187437 -37.135067 
L 64.363773 -36.9865 
L 60.54011 -36.876324 
L 56.716446 -36.804351 
L 52.892782 -36.763308 
L 49.069118 -36.742995 
L 45.245455 -36.734297 
z
" style="stroke: #ffffff"/>
    </defs>
    <g>
     <use xlink:href="#m1b159ef9eb" x="0" y="459.729687" style="fill: #937860; fill-opacity: 0.75; stroke: #ffffff"/>
    </g>
   </g>
   <g id="FillBetweenPolyCollection_3">
    <defs>
     <path id="m82533a576e" d="M 45.245455 -36.734297 
L 45.245455 -36.734297 
L 49.069118 -36.742995 
L 52.892782 -36.763308 
L 56.716446 -36.804351 
L 60.54011 -36.876324 
L 64.363773 -36.9865 
L 68.187437 -37.135067 
L 72.011101 -37.31381 
L 75.834765 -37.508591 
L 79.658429 -37.703556 
L 83.482092 -37.884743 
L 87.305756 -38.043266 
L 91.12942 -38.179074 
L 94.953084 -38.30359 
L 98.776747 -38.437879 
L 102.600411 -38.605759 
L 106.424075 -38.825695 
L 110.247739 -39.106035 
L 114.071402 -39.445009 
L 117.895066 -39.833663 
L 121.71873 -40.25938 
L 125.542394 -40.709018 
L 129.366058 -41.171893 
L 133.189721 -41.643014 
L 137.013385 -42.126227 
L 140.837049 -42.635435 
L 144.660713 -43.19138 
L 148.484376 -43.813667 
L 152.30804 -44.512158 
L 156.131704 -45.28407 
L 159.955368 -46.119624 
L 163.779032 -47.012489 
L 167.602695 -47.967879 
L 171.426359 -49.003935 
L 175.250023 -50.147547 
L 179.073687 -51.427888 
L 182.89735 -52.868759 
L 186.721014 -54.479978 
L 190.544678 -56.252072 
L 194.368342 -58.161392 
L 198.192005 -60.186057 
L 202.015669 -62.321244 
L 205.839333 -64.579868 
L 209.662997 -66.977562 
L 213.486661 -69.515736 
L 217.310324 -72.177369 
L 221.133988 -74.937143 
L 224.957652 -77.775082 
L 228.781316 -80.682224 
L 232.604979 -83.656271 
L 236.428643 -86.695087 
L 240.252307 -89.796963 
L 244.075971 -92.96719 
L 247.899635 -96.22112 
L 251.723298 -99.578933 
L 255.546962 -103.064246 
L 259.370626 -106.723153 
L 263.19429 -110.654798 
L 267.017953 -115.012198 
L 270.841617 -119.941826 
L 274.665281 -125.494762 
L 278.488945 -131.595809 
L 282.312608 -138.119804 
L 286.136272 -145.01723 
L 289.959936 -152.374434 
L 293.7836 -160.355497 
L 297.607264 -169.081514 
L 301.430927 -178.54897 
L 305.254591 -188.643788 
L 309.078255 -199.220567 
L 312.901919 -210.15949 
L 316.725582 -221.338215 
L 320.549246 -232.544612 
L 324.37291 -243.421562 
L 328.196574 -253.510609 
L 332.020238 -262.371332 
L 335.843901 -269.683925 
L 339.667565 -275.260876 
L 343.491229 -278.982431 
L 347.314893 -280.735611 
L 351.138556 -280.411789 
L 354.96222 -277.948803 
L 358.785884 -273.376105 
L 362.609548 -266.841829 
L 366.433212 -258.614002 
L 370.256875 -249.043102 
L 374.080539 -238.487873 
L 377.904203 -227.243732 
L 381.727867 -215.522862 
L 385.55153 -203.492209 
L 389.375194 -191.323878 
L 393.198858 -179.208945 
L 397.022522 -167.330768 
L 400.846185 -155.834911 
L 404.669849 -144.827164 
L 408.493513 -134.392745 
L 412.317177 -124.607134 
L 416.140841 -115.525036 
L 419.964504 -107.163728 
L 423.788168 -99.503269 
L 427.611832 -92.504668 
L 431.435496 -86.129149 
L 435.259159 -80.347732 
L 439.082823 -75.143016 
L 442.906487 -70.502621 
L 446.730151 -66.398878 
L 450.553815 -62.762415 
L 454.377478 -59.474483 
L 458.201142 -56.39662 
L 462.024806 -53.428956 
L 465.84847 -50.564135 
L 469.672133 -47.897929 
L 473.495797 -45.578024 
L 477.319461 -43.716896 
L 481.143125 -42.32863 
L 484.966788 -41.33118 
L 488.790452 -40.599786 
L 492.614116 -40.024137 
L 496.43778 -39.537019 
L 500.261444 -39.113593 
L 504.085107 -38.755073 
L 507.908771 -38.469319 
L 511.732435 -38.256703 
L 515.556099 -38.105532 
L 519.379762 -37.996034 
L 523.203426 -37.907908 
L 527.02709 -37.826379 
L 530.850754 -37.744376 
L 534.674418 -37.661177 
L 538.498081 -37.579382 
L 542.321745 -37.502052 
L 546.145409 -37.43116 
L 549.969073 -37.367495 
L 553.792736 -37.311369 
L 557.6164 -37.26306 
L 561.440064 -37.222335 
L 565.263728 -37.1874 
L 569.087392 -37.154396 
L 572.911055 -37.118233 
L 576.734719 -37.074574 
L 580.558383 -37.021965 
L 584.382047 -36.962905 
L 588.20571 -36.903133 
L 592.029374 -36.849329 
L 595.853038 -36.806453 
L 599.676702 -36.77616 
L 603.500365 -36.757001 
L 607.324029 -36.745874 
L 611.147693 -36.739619 
L 614.971357 -36.735949 
L 618.795021 -36.733595 
L 622.618684 -36.732 
L 626.442348 -36.730944 
L 630.266012 -36.730301 
L 634.089676 -36.729954 
L 637.913339 -36.729789 
L 641.737003 -36.729722 
L 645.560667 -36.729698 
L 649.384331 -36.72969 
L 653.207995 -36.729688 
L 657.031658 -36.729688 
L 660.855322 -36.729688 
L 664.678986 -36.729688 
L 668.50265 -36.729688 
L 672.326313 -36.729688 
L 676.149977 -36.729688 
L 679.973641 -36.729688 
L 683.797305 -36.729688 
L 687.620968 -36.729687 
L 691.444632 -36.729687 
L 695.268296 -36.729687 
L 699.09196 -36.729687 
L 702.915624 -36.729687 
L 706.739287 -36.729687 
L 710.562951 -36.729687 
L 714.386615 -36.729687 
L 718.210279 -36.729687 
L 722.033942 -36.729687 
L 725.857606 -36.729687 
L 729.68127 -36.729687 
L 733.504934 -36.729687 
L 737.328598 -36.729687 
L 741.152261 -36.729687 
L 744.975925 -36.729687 
L 748.799589 -36.729687 
L 752.623253 -36.729687 
L 756.446916 -36.729687 
L 760.27058 -36.729687 
L 764.094244 -36.729687 
L 767.917908 -36.729687 
L 771.741571 -36.729687 
L 775.565235 -36.729687 
L 779.388899 -36.729687 
L 783.212563 -36.729687 
L 787.036227 -36.729687 
L 790.85989 -36.729687 
L 794.683554 -36.729687 
L 798.507218 -36.729687 
L 802.330882 -36.729687 
L 806.154545 -36.729687 
L 806.154545 -36.729706 
L 806.154545 -36.729706 
L 802.330882 -36.72974 
L 798.507218 -36.72983 
L 794.683554 -36.730049 
L 790.85989 -36.730558 
L 787.036227 -36.731676 
L 783.212563 -36.733995 
L 779.388899 -36.738542 
L 775.565235 -36.746975 
L 771.741571 -36.761771 
L 767.917908 -36.786346 
L 764.094244 -36.825016 
L 760.27058 -36.882711 
L 756.446916 -36.964436 
L 752.623253 -37.074521 
L 748.799589 -37.215838 
L 744.975925 -37.389223 
L 741.152261 -37.593317 
L 737.328598 -37.824948 
L 733.504934 -38.079988 
L 729.68127 -38.354466 
L 725.857606 -38.645621 
L 722.033942 -38.952598 
L 718.210279 -39.27664 
L 714.386615 -39.620784 
L 710.562951 -39.989225 
L 706.739287 -40.386575 
L 702.915624 -40.817226 
L 699.09196 -41.284945 
L 695.268296 -41.792703 
L 691.444632 -42.342649 
L 687.620968 -42.93611 
L 683.797305 -43.573484 
L 679.973641 -44.253992 
L 676.149977 -44.975356 
L 672.326313 -45.733531 
L 668.50265 -46.522659 
L 664.678986 -47.335355 
L 660.855322 -48.163302 
L 657.031658 -48.998057 
L 653.207995 -49.831855 
L 649.384331 -50.658222 
L 645.560667 -51.472273 
L 641.737003 -52.270639 
L 637.913339 -53.051093 
L 634.089676 -53.811987 
L 630.266012 -54.551636 
L 626.442348 -55.267772 
L 622.618684 -55.957185 
L 618.795021 -56.61562 
L 614.971357 -57.237989 
L 611.147693 -57.81888 
L 607.324029 -58.353272 
L 603.500365 -58.837159 
L 599.676702 -59.267716 
L 595.853038 -59.642689 
L 592.029374 -59.959149 
L 588.20571 -60.212352 
L 584.382047 -60.395711 
L 580.558383 -60.502241 
L 576.734719 -60.52681 
L 572.911055 -60.467862 
L 569.087392 -60.327692 
L 565.263728 -60.11131 
L 561.440064 -59.824722 
L 557.6164 -59.473681 
L 553.792736 -59.063608 
L 549.969073 -58.600498 
L 546.145409 -58.091807 
L 542.321745 -57.546197 
L 538.498081 -56.972018 
L 534.674418 -56.375485 
L 530.850754 -55.759957 
L 527.02709 -55.12712 
L 523.203426 -54.479983 
L 519.379762 -53.826464 
L 515.556099 -53.181527 
L 511.732435 -52.565859 
L 507.908771 -52.000493 
L 504.085107 -51.499612 
L 500.261444 -51.066532 
L 496.43778 -50.697895 
L 492.614116 -50.397294 
L 488.790452 -50.194272 
L 484.966788 -50.160535 
L 481.143125 -50.410898 
L 477.319461 -51.075031 
L 473.495797 -52.240599 
L 469.672133 -53.8998 
L 465.84847 -55.946592 
L 462.024806 -58.239029 
L 458.201142 -60.685428 
L 454.377478 -63.294878 
L 450.553815 -66.166384 
L 446.730151 -69.43524 
L 442.906487 -73.215423 
L 439.082823 -77.570804 
L 435.259159 -82.523631 
L 431.435496 -88.081507 
L 427.611832 -94.25797 
L 423.788168 -101.079046 
L 419.964504 -108.58131 
L 416.140841 -116.802067 
L 412.317177 -125.759865 
L 408.493513 -135.43616 
L 404.669849 -145.774997 
L 400.846185 -156.699585 
L 397.022522 -168.12331 
L 393.198858 -179.938898 
L 389.375194 -191.999249 
L 385.55153 -204.119496 
L 381.727867 -216.107173 
L 377.904203 -227.789006 
L 374.080539 -238.997165 
L 370.256875 -249.518886 
L 366.433212 -259.05844 
L 362.609548 -267.256948 
L 358.785884 -273.763878 
L 354.96222 -278.31114 
L 351.138556 -280.750492 
L 347.314893 -281.052322 
L 343.491229 -279.278629 
L 339.667565 -275.53791 
L 335.843901 -269.943078 
L 332.020238 -262.613881 
L 328.196574 -253.737861 
L 324.37291 -243.634836 
L 320.549246 -232.745176 
L 316.725582 -221.527159 
L 312.901919 -210.337554 
L 309.078255 -199.387955 
L 305.254591 -188.800031 
L 301.430927 -178.692918 
L 297.607264 -169.211525 
L 293.7836 -160.469816 
L 289.959936 -152.471666 
L 286.136272 -145.096773 
L 282.312608 -138.182105 
L 278.488945 -131.642355 
L 274.665281 -125.527842 
L 270.841617 -119.964141 
L 267.017953 -115.026465 
L 263.19429 -110.663432 
L 259.370626 -106.728095 
L 255.546962 -103.06692 
L 251.723298 -99.5803 
L 247.899635 -96.22178 
L 244.075971 -92.967491 
L 240.252307 -89.797093 
L 236.428643 -86.69514 
L 232.604979 -83.656291 
L 228.781316 -80.682231 
L 224.957652 -77.775085 
L 221.133988 -74.937144 
L 217.310324 -72.177369 
L 213.486661 -69.515736 
L 209.662997 -66.977562 
L 205.839333 -64.579868 
L 202.015669 -62.321244 
L 198.192005 -60.186057 
L 194.368342 -58.161392 
L 190.544678 -56.252072 
L 186.721014 -54.479978 
L 182.89735 -52.868759 
L 179.073687 -51.427888 
L 175.250023 -50.147547 
L 171.426359 -49.003935 
L 167.602695 -47.967879 
L 163.779032 -47.012489 
L 159.955368 -46.119624 
L 156.131704 -45.28407 
L 152.30804 -44.512158 
L 148.484376 -43.813667 
L 144.660713 -43.19138 
L 140.837049 -42.635435 
L 137.013385 -42.126227 
L 133.189721 -41.643014 
L 129.366058 -41.171893 
L 125.542394 -40.709018 
L 121.71873 -40.25938 
L 117.895066 -39.833663 
L 114.071402 -39.445009 
L 110.247739 -39.106035 
L 106.424075 -38.825695 
L 102.600411 -38.605759 
L 98.776747 -38.437879 
L 94.953084 -38.30359 
L 91.12942 -38.179074 
L 87.305756 -38.043266 
L 83.482092 -37.884743 
L 79.658429 -37.703556 
L 75.834765 -37.508591 
L 72.011101 -37.31381 
L 68.187437 -37.135067 
L 64.363773 -36.9865 
L 60.54011 -36.876324 
L 56.716446 -36.804351 
L 52.892782 -36.763308 
L 49.069118 -36.742995 
L 45.245455 -36.734297 
z
" style="stroke: #ffffff"/>
    </defs>
    <g>
     <use xlink:href="#m82533a576e" x="0" y="459.729687" style="fill: #8172b3; fill-opacity: 0.75; stroke: #ffffff"/>
    </g>
   </g>
   <g id="FillBetweenPolyCollection_4">
    <defs>
     <path id="mf57943e3eb" d="M 45.245455 -36.734297 
L 45.245455 -36.734297 
L 49.069118 -36.742995 
L 52.892782 -36.763308 
L 56.716446 -36.804351 
L 60.54011 -36.876324 
L 64.363773 -36.9865 
L 68.187437 -37.135067 
L 72.011101 -37.31381 
L 75.834765 -37.508591 
L 79.658429 -37.703556 
L 83.482092 -37.884743 
L 87.305756 -38.043266 
L 91.12942 -38.179074 
L 94.953084 -38.30359 
L 98.776747 -38.437879 
L 102.600411 -38.605759 
L 106.424075 -38.825695 
L 110.247739 -39.106035 
L 114.071402 -39.445009 
L 117.895066 -39.833663 
L 121.71873 -40.25938 
L 125.542394 -40.709018 
L 129.366058 -41.171893 
L 133.189721 -41.643014 
L 137.013385 -42.126227 
L 140.837049 -42.635435 
L 144.660713 -43.19138 
L 148.484376 -43.813667 
L 152.30804 -44.512158 
L 156.131704 -45.28407 
L 159.955368 -46.119624 
L 163.779032 -47.012489 
L 167.602695 -47.967879 
L 171.426359 -49.003935 
L 175.250023 -50.147547 
L 179.073687 -51.427888 
L 182.89735 -52.868759 
L 186.721014 -54.479978 
L 190.544678 -56.252072 
L 194.368342 -58.161392 
L 198.192005 -60.186057 
L 202.015669 -62.321244 
L 205.839333 -64.579868 
L 209.662997 -66.977562 
L 213.486661 -69.515736 
L 217.310324 -72.177369 
L 221.133988 -74.937144 
L 224.957652 -77.775085 
L 228.781316 -80.682231 
L 232.604979 -83.656291 
L 236.428643 -86.69514 
L 240.252307 -89.797093 
L 244.075971 -92.967491 
L 247.899635 -96.22178 
L 251.723298 -99.5803 
L 255.546962 -103.06692 
L 259.370626 -106.728095 
L 263.19429 -110.663432 
L 267.017953 -115.026465 
L 270.841617 -119.964141 
L 274.665281 -125.527842 
L 278.488945 -131.642355 
L 282.312608 -138.182105 
L 286.136272 -145.096773 
L 289.959936 -152.471666 
L 293.7836 -160.469816 
L 297.607264 -169.211525 
L 301.430927 -178.692918 
L 305.254591 -188.800031 
L 309.078255 -199.387955 
L 312.901919 -210.337554 
L 316.725582 -221.527159 
L 320.549246 -232.745176 
L 324.37291 -243.634836 
L 328.196574 -253.737861 
L 332.020238 -262.613881 
L 335.843901 -269.943078 
L 339.667565 -275.53791 
L 343.491229 -279.278629 
L 347.314893 -281.052322 
L 351.138556 -280.750492 
L 354.96222 -278.31114 
L 358.785884 -273.763878 
L 362.609548 -267.256948 
L 366.433212 -259.05844 
L 370.256875 -249.518886 
L 374.080539 -238.997165 
L 377.904203 -227.789006 
L 381.727867 -216.107173 
L 385.55153 -204.119496 
L 389.375194 -191.999249 
L 393.198858 -179.938898 
L 397.022522 -168.12331 
L 400.846185 -156.699585 
L 404.669849 -145.774997 
L 408.493513 -135.43616 
L 412.317177 -125.759865 
L 416.140841 -116.802067 
L 419.964504 -108.58131 
L 423.788168 -101.079046 
L 427.611832 -94.25797 
L 431.435496 -88.081507 
L 435.259159 -82.523631 
L 439.082823 -77.570804 
L 442.906487 -73.215423 
L 446.730151 -69.43524 
L 450.553815 -66.166384 
L 454.377478 -63.294878 
L 458.201142 -60.685428 
L 462.024806 -58.239029 
L 465.84847 -55.946592 
L 469.672133 -53.8998 
L 473.495797 -52.240599 
L 477.319461 -51.075031 
L 481.143125 -50.410898 
L 484.966788 -50.160535 
L 488.790452 -50.194272 
L 492.614116 -50.397294 
L 496.43778 -50.697895 
L 500.261444 -51.066532 
L 504.085107 -51.499612 
L 507.908771 -52.000493 
L 511.732435 -52.565859 
L 515.556099 -53.181527 
L 519.379762 -53.826464 
L 523.203426 -54.479983 
L 527.02709 -55.12712 
L 530.850754 -55.759957 
L 534.674418 -56.375485 
L 538.498081 -56.972018 
L 542.321745 -57.546197 
L 546.145409 -58.091807 
L 549.969073 -58.600498 
L 553.792736 -59.063608 
L 557.6164 -59.473681 
L 561.440064 -59.824722 
L 565.263728 -60.11131 
L 569.087392 -60.327692 
L 572.911055 -60.467862 
L 576.734719 -60.52681 
L 580.558383 -60.502241 
L 584.382047 -60.395711 
L 588.20571 -60.212352 
L 592.029374 -59.959149 
L 595.853038 -59.642689 
L 599.676702 -59.267716 
L 603.500365 -58.837159 
L 607.324029 -58.353272 
L 611.147693 -57.81888 
L 614.971357 -57.237989 
L 618.795021 -56.61562 
L 622.618684 -55.957185 
L 626.442348 -55.267772 
L 630.266012 -54.551636 
L 634.089676 -53.811987 
L 637.913339 -53.051093 
L 641.737003 -52.270639 
L 645.560667 -51.472273 
L 649.384331 -50.658222 
L 653.207995 -49.831855 
L 657.031658 -48.998057 
L 660.855322 -48.163302 
L 664.678986 -47.335355 
L 668.50265 -46.522659 
L 672.326313 -45.733531 
L 676.149977 -44.975356 
L 679.973641 -44.253992 
L 683.797305 -43.573484 
L 687.620968 -42.93611 
L 691.444632 -42.342649 
L 695.268296 -41.792703 
L 699.09196 -41.284945 
L 702.915624 -40.817226 
L 706.739287 -40.386575 
L 710.562951 -39.989225 
L 714.386615 -39.620784 
L 718.210279 -39.27664 
L 722.033942 -38.952598 
L 725.857606 -38.645621 
L 729.68127 -38.354466 
L 733.504934 -38.079988 
L 737.328598 -37.824948 
L 741.152261 -37.593317 
L 744.975925 -37.389223 
L 748.799589 -37.215838 
L 752.623253 -37.074521 
L 756.446916 -36.964436 
L 760.27058 -36.882711 
L 764.094244 -36.825016 
L 767.917908 -36.786346 
L 771.741571 -36.761771 
L 775.565235 -36.746975 
L 779.388899 -36.738542 
L 783.212563 -36.733995 
L 787.036227 -36.731676 
L 790.85989 -36.730558 
L 794.683554 -36.730049 
L 798.507218 -36.72983 
L 802.330882 -36.72974 
L 806.154545 -36.729706 
L 806.154545 -36.729706 
L 806.154545 -36.729706 
L 802.330882 -36.72974 
L 798.507218 -36.72983 
L 794.683554 -36.730049 
L 790.85989 -36.730558 
L 787.036227 -36.731676 
L 783.212563 -36.733995 
L 779.388899 -36.738543 
L 775.565235 -36.746975 
L 771.741571 -36.761772 
L 767.917908 -36.786349 
L 764.094244 -36.825024 
L 760.27058 -36.882735 
L 756.446916 -36.9645 
L 752.623253 -37.074679 
L 748.799589 -37.216205 
L 744.975925 -37.390027 
L 741.152261 -37.594978 
L 737.328598 -37.828189 
L 733.504934 -38.085975 
L 729.68127 -38.364958 
L 725.857606 -38.66311 
L 722.033942 -38.980405 
L 718.210279 -39.318945 
L 714.386615 -39.682578 
L 710.562951 -40.076189 
L 706.739287 -40.504911 
L 702.915624 -40.973469 
L 699.09196 -41.485779 
L 695.268296 -42.044821 
L 691.444632 -42.652687 
L 687.620968 -43.310681 
L 683.797305 -44.01932 
L 679.973641 -44.778176 
L 676.149977 -45.585589 
L 672.326313 -46.438347 
L 668.50265 -47.331528 
L 664.678986 -48.258597 
L 660.855322 -49.211829 
L 657.031658 -50.182938 
L 653.207995 -51.163782 
L 649.384331 -52.146918 
L 645.560667 -53.125917 
L 641.737003 -54.095378 
L 637.913339 -55.050686 
L 634.089676 -55.987652 
L 630.266012 -56.902106 
L 626.442348 -57.789584 
L 622.618684 -58.645153 
L 618.795021 -59.463439 
L 614.971357 -60.238896 
L 611.147693 -60.966308 
L 607.324029 -61.641416 
L 603.500365 -62.261419 
L 599.676702 -62.824974 
L 595.853038 -63.331415 
L 592.029374 -63.779333 
L 588.20571 -64.165297 
L 584.382047 -64.483696 
L 580.558383 -64.728118 
L 576.734719 -64.893554 
L 572.911055 -64.978135 
L 569.087392 -64.983471 
L 565.263728 -64.913614 
L 561.440064 -64.773457 
L 557.6164 -64.567612 
L 553.792736 -64.300434 
L 549.969073 -63.977095 
L 546.145409 -63.604688 
L 542.321745 -63.192323 
L 538.498081 -62.749987 
L 534.674418 -62.287031 
L 530.850754 -61.811482 
L 527.02709 -61.330919 
L 523.203426 -60.854804 
L 519.379762 -60.397249 
L 515.556099 -59.97841 
L 511.732435 -59.622778 
L 507.908771 -59.353936 
L 504.085107 -59.188037 
L 500.261444 -59.130807 
L 496.43778 -59.182837 
L 492.614116 -59.35394 
L 488.790452 -59.682225 
L 484.966788 -60.249534 
L 481.143125 -61.180919 
L 477.319461 -62.614601 
L 473.495797 -64.643564 
L 469.672133 -67.26126 
L 465.84847 -70.358922 
L 462.024806 -73.788728 
L 458.201142 -77.451186 
L 454.377478 -81.346769 
L 450.553815 -85.565842 
L 446.730151 -90.235427 
L 442.906487 -95.461772 
L 439.082823 -101.301719 
L 435.259159 -107.7714 
L 431.435496 -114.873378 
L 427.611832 -122.617099 
L 423.788168 -131.024815 
L 419.964504 -140.128408 
L 416.140841 -149.957895 
L 412.317177 -160.520143 
L 408.493513 -171.779091 
L 404.669849 -183.654832 
L 400.846185 -196.04095 
L 397.022522 -208.817946 
L 393.198858 -221.846373 
L 389.375194 -234.952518 
L 385.55153 -247.934918 
L 381.727867 -260.597121 
L 377.904203 -272.774162 
L 374.080539 -284.315567 
L 370.256875 -295.029866 
L 366.433212 -304.641389 
L 362.609548 -312.806526 
L 358.785884 -319.184063 
L 354.96222 -323.510237 
L 351.138556 -325.63819 
L 347.314893 -325.538781 
L 343.491229 -323.274908 
L 339.667565 -318.956923 
L 335.843901 -312.700472 
L 332.020238 -304.628486 
L 328.196574 -294.931553 
L 324.37291 -283.931804 
L 320.549246 -272.070707 
L 316.725582 -259.806264 
L 312.901919 -247.493887 
L 309.078255 -235.343487 
L 305.254591 -223.47577 
L 301.430927 -212.010688 
L 297.607264 -201.096509 
L 293.7836 -190.853484 
L 289.959936 -181.294785 
L 286.136272 -172.312396 
L 282.312608 -163.758547 
L 278.488945 -155.566043 
L 274.665281 -147.805631 
L 270.841617 -140.624456 
L 267.017953 -134.118625 
L 263.19429 -128.254847 
L 259.370626 -122.899528 
L 255.546962 -117.906498 
L 251.723298 -113.177218 
L 247.899635 -108.660708 
L 244.075971 -104.32453 
L 240.252307 -100.13791 
L 236.428643 -96.075546 
L 232.604979 -92.125076 
L 228.781316 -88.285576 
L 224.957652 -84.561435 
L 221.133988 -80.961229 
L 217.310324 -77.502229 
L 213.486661 -74.212155 
L 209.662997 -71.121041 
L 205.839333 -68.245954 
L 202.015669 -65.580442 
L 198.192005 -63.099547 
L 194.368342 -60.778449 
L 190.544678 -58.609578 
L 186.721014 -56.603843 
L 182.89735 -54.776678 
L 179.073687 -53.132604 
L 175.250023 -51.659826 
L 171.426359 -50.334635 
L 167.602695 -49.12888 
L 163.779032 -48.016614 
L 159.955368 -46.979976 
L 156.131704 -46.013283 
L 152.30804 -45.121972 
L 148.484376 -44.314993 
L 144.660713 -43.594739 
L 140.837049 -42.951523 
L 137.013385 -42.366305 
L 133.189721 -41.818935 
L 129.366058 -41.295735 
L 125.542394 -40.792457 
L 121.71873 -40.313006 
L 117.895066 -39.866446 
L 114.071402 -39.464025 
L 110.247739 -39.116478 
L 106.424075 -38.831114 
L 102.600411 -38.608412 
L 98.776747 -38.439103 
L 94.953084 -38.304122 
L 91.12942 -38.17929 
L 87.305756 -38.043349 
L 83.482092 -37.884773 
L 79.658429 -37.703566 
L 75.834765 -37.508594 
L 72.011101 -37.313811 
L 68.187437 -37.135067 
L 64.363773 -36.9865 
L 60.54011 -36.876325 
L 56.716446 -36.804351 
L 52.892782 -36.763308 
L 49.069118 -36.742995 
L 45.245455 -36.734297 
z
" style="stroke: #ffffff"/>
    </defs>
    <g>
     <use xlink:href="#mf57943e3eb" x="0" y="459.729687" style="fill: #c44e52; fill-opacity: 0.75; stroke: #ffffff"/>
    </g>
   </g>
   <g id="FillBetweenPolyCollection_5">
    <defs>
     <path id="m343c074d77" d="M 45.245455 -36.734297 
L 45.245455 -36.734297 
L 49.069118 -36.742995 
L 52.892782 -36.763308 
L 56.716446 -36.804351 
L 60.54011 -36.876325 
L 64.363773 -36.9865 
L 68.187437 -37.135067 
L 72.011101 -37.313811 
L 75.834765 -37.508594 
L 79.658429 -37.703566 
L 83.482092 -37.884773 
L 87.305756 -38.043349 
L 91.12942 -38.17929 
L 94.953084 -38.304122 
L 98.776747 -38.439103 
L 102.600411 -38.608412 
L 106.424075 -38.831114 
L 110.247739 -39.116478 
L 114.071402 -39.464025 
L 117.895066 -39.866446 
L 121.71873 -40.313006 
L 125.542394 -40.792457 
L 129.366058 -41.295735 
L 133.189721 -41.818935 
L 137.013385 -42.366305 
L 140.837049 -42.951523 
L 144.660713 -43.594739 
L 148.484376 -44.314993 
L 152.30804 -45.121972 
L 156.131704 -46.013283 
L 159.955368 -46.979976 
L 163.779032 -48.016614 
L 167.602695 -49.12888 
L 171.426359 -50.334635 
L 175.250023 -51.659826 
L 179.073687 -53.132604 
L 182.89735 -54.776678 
L 186.721014 -56.603843 
L 190.544678 -58.609578 
L 194.368342 -60.778449 
L 198.192005 -63.099547 
L 202.015669 -65.580442 
L 205.839333 -68.245954 
L 209.662997 -71.121041 
L 213.486661 -74.212155 
L 217.310324 -77.502229 
L 221.133988 -80.961229 
L 224.957652 -84.561435 
L 228.781316 -88.285576 
L 232.604979 -92.125076 
L 236.428643 -96.075546 
L 240.252307 -100.13791 
L 244.075971 -104.32453 
L 247.899635 -108.660708 
L 251.723298 -113.177218 
L 255.546962 -117.906498 
L 259.370626 -122.899528 
L 263.19429 -128.254847 
L 267.017953 -134.118625 
L 270.841617 -140.624456 
L 274.665281 -147.805631 
L 278.488945 -155.566043 
L 282.312608 -163.758547 
L 286.136272 -172.312396 
L 289.959936 -181.294785 
L 293.7836 -190.853484 
L 297.607264 -201.096509 
L 301.430927 -212.010688 
L 305.254591 -223.47577 
L 309.078255 -235.343487 
L 312.901919 -247.493887 
L 316.725582 -259.806264 
L 320.549246 -272.070707 
L 324.37291 -283.931804 
L 328.196574 -294.931553 
L 332.020238 -304.628486 
L 335.843901 -312.700472 
L 339.667565 -318.956923 
L 343.491229 -323.274908 
L 347.314893 -325.538781 
L 351.138556 -325.63819 
L 354.96222 -323.510237 
L 358.785884 -319.184063 
L 362.609548 -312.806526 
L 366.433212 -304.641389 
L 370.256875 -295.029866 
L 374.080539 -284.315567 
L 377.904203 -272.774162 
L 381.727867 -260.597121 
L 385.55153 -247.934918 
L 389.375194 -234.952518 
L 393.198858 -221.846373 
L 397.022522 -208.817946 
L 400.846185 -196.04095 
L 404.669849 -183.654832 
L 408.493513 -171.779091 
L 412.317177 -160.520143 
L 416.140841 -149.957895 
L 419.964504 -140.128408 
L 423.788168 -131.024815 
L 427.611832 -122.617099 
L 431.435496 -114.873378 
L 435.259159 -107.7714 
L 439.082823 -101.301719 
L 442.906487 -95.461772 
L 446.730151 -90.235427 
L 450.553815 -85.565842 
L 454.377478 -81.346769 
L 458.201142 -77.451186 
L 462.024806 -73.788728 
L 465.84847 -70.358922 
L 469.672133 -67.26126 
L 473.495797 -64.643564 
L 477.319461 -62.614601 
L 481.143125 -61.180919 
L 484.966788 -60.249534 
L 488.790452 -59.682225 
L 492.614116 -59.35394 
L 496.43778 -59.182837 
L 500.261444 -59.130807 
L 504.085107 -59.188037 
L 507.908771 -59.353936 
L 511.732435 -59.622778 
L 515.556099 -59.97841 
L 519.379762 -60.397249 
L 523.203426 -60.854804 
L 527.02709 -61.330919 
L 530.850754 -61.811482 
L 534.674418 -62.287031 
L 538.498081 -62.749987 
L 542.321745 -63.192323 
L 546.145409 -63.604688 
L 549.969073 -63.977095 
L 553.792736 -64.300434 
L 557.6164 -64.567612 
L 561.440064 -64.773457 
L 565.263728 -64.913614 
L 569.087392 -64.983471 
L 572.911055 -64.978135 
L 576.734719 -64.893554 
L 580.558383 -64.728118 
L 584.382047 -64.483696 
L 588.20571 -64.165297 
L 592.029374 -63.779333 
L 595.853038 -63.331415 
L 599.676702 -62.824974 
L 603.500365 -62.261419 
L 607.324029 -61.641416 
L 611.147693 -60.966308 
L 614.971357 -60.238896 
L 618.795021 -59.463439 
L 622.618684 -58.645153 
L 626.442348 -57.789584 
L 630.266012 -56.902106 
L 634.089676 -55.987652 
L 637.913339 -55.050686 
L 641.737003 -54.095378 
L 645.560667 -53.125917 
L 649.384331 -52.146918 
L 653.207995 -51.163782 
L 657.031658 -50.182938 
L 660.855322 -49.211829 
L 664.678986 -48.258597 
L 668.50265 -47.331528 
L 672.326313 -46.438347 
L 676.149977 -45.585589 
L 679.973641 -44.778176 
L 683.797305 -44.01932 
L 687.620968 -43.310681 
L 691.444632 -42.652687 
L 695.268296 -42.044821 
L 699.09196 -41.485779 
L 702.915624 -40.973469 
L 706.739287 -40.504911 
L 710.562951 -40.076189 
L 714.386615 -39.682578 
L 718.210279 -39.318945 
L 722.033942 -38.980405 
L 725.857606 -38.66311 
L 729.68127 -38.364958 
L 733.504934 -38.085975 
L 737.328598 -37.828189 
L 741.152261 -37.594978 
L 744.975925 -37.390027 
L 748.799589 -37.216205 
L 752.623253 -37.074679 
L 756.446916 -36.9645 
L 760.27058 -36.882735 
L 764.094244 -36.825024 
L 767.917908 -36.786349 
L 771.741571 -36.761772 
L 775.565235 -36.746975 
L 779.388899 -36.738543 
L 783.212563 -36.733995 
L 787.036227 -36.731676 
L 790.85989 -36.730558 
L 794.683554 -36.730049 
L 798.507218 -36.72983 
L 802.330882 -36.72974 
L 806.154545 -36.729706 
L 806.154545 -36.729759 
L 806.154545 -36.729759 
L 802.330882 -36.729842 
L 798.507218 -36.730015 
L 794.683554 -36.730365 
L 790.85989 -36.731067 
L 787.036227 -36.732448 
L 783.212563 -36.735106 
L 779.388899 -36.740064 
L 775.565235 -36.748967 
L 771.741571 -36.764279 
L 767.917908 -36.789403 
L 764.094244 -36.828653 
L 760.27058 -36.886982 
L 756.446916 -36.969439 
L 752.623253 -37.080433 
L 748.799589 -37.222954 
L 744.975925 -37.398003 
L 741.152261 -37.604447 
L 737.328598 -37.839427 
L 733.504934 -38.099236 
L 729.68127 -38.380449 
L 725.857606 -38.680974 
L 722.033942 -39.000725 
L 718.210279 -39.341758 
L 714.386615 -39.707902 
L 710.562951 -40.104067 
L 706.739287 -40.535461 
L 702.915624 -41.006975 
L 699.09196 -41.522847 
L 695.268296 -42.086653 
L 691.444632 -42.701524 
L 687.620968 -43.370436 
L 683.797305 -44.09637 
L 679.973641 -44.882178 
L 676.149977 -45.730072 
L 672.326313 -46.640799 
L 668.50265 -47.612721 
L 664.678986 -48.641132 
L 660.855322 -49.718131 
L 657.031658 -50.833235 
L 653.207995 -51.974646 
L 649.384331 -53.130801 
L 645.560667 -54.291761 
L 641.737003 -55.450033 
L 637.913339 -56.600731 
L 634.089676 -57.741188 
L 630.266012 -58.870275 
L 626.442348 -59.987626 
L 622.618684 -61.092872 
L 618.795021 -62.184933 
L 614.971357 -63.261475 
L 611.147693 -64.318731 
L 607.324029 -65.351828 
L 603.500365 -66.355495 
L 599.676702 -67.32473 
L 595.853038 -68.254869 
L 592.029374 -69.140907 
L 588.20571 -69.976718 
L 584.382047 -70.755244 
L 580.558383 -71.470236 
L 576.734719 -72.118937 
L 572.911055 -72.704227 
L 569.087392 -73.234958 
L 565.263728 -73.724196 
L 561.440064 -74.186124 
L 557.6164 -74.632945 
L 553.792736 -75.073055 
L 549.969073 -75.511007 
L 546.145409 -75.948779 
L 542.321745 -76.387338 
L 538.498081 -76.827899 
L 534.674418 -77.272915 
L 530.850754 -77.727118 
L 527.02709 -78.19876 
L 523.203426 -78.700913 
L 519.379762 -79.252318 
L 515.556099 -79.876843 
L 511.732435 -80.600529 
L 507.908771 -81.446155 
L 504.085107 -82.427356 
L 500.261444 -83.546443 
L 496.43778 -84.799792 
L 492.614116 -86.190949 
L 488.790452 -87.747068 
L 484.966788 -89.531348 
L 481.143125 -91.6409 
L 477.319461 -94.178333 
L 473.495797 -97.198914 
L 469.672133 -100.664577 
L 465.84847 -104.44933 
L 462.024806 -108.406961 
L 458.201142 -112.457274 
L 454.377478 -116.631244 
L 450.553815 -121.051716 
L 446.730151 -125.871704 
L 442.906487 -131.211975 
L 439.082823 -137.131698 
L 435.259159 -143.639647 
L 431.435496 -150.725155 
L 427.611832 -158.382002 
L 423.788168 -166.616651 
L 419.964504 -175.446442 
L 416.140841 -184.889224 
L 412.317177 -194.943615 
L 408.493513 -205.571301 
L 404.669849 -216.698132 
L 400.846185 -228.232238 
L 397.022522 -240.076018 
L 393.198858 -252.115416 
L 389.375194 -264.20028 
L 385.55153 -276.145945 
L 381.727867 -287.763279 
L 377.904203 -298.885672 
L 374.080539 -309.355498 
L 370.256875 -318.973608 
L 366.433212 -327.460772 
L 362.609548 -334.476668 
L 358.785884 -339.690354 
L 354.96222 -342.853202 
L 351.138556 -343.835071 
L 347.314893 -342.621996 
L 343.491229 -339.288492 
L 339.667565 -333.952406 
L 335.843901 -326.733284 
L 332.020238 -317.755324 
L 328.196574 -307.208523 
L 324.37291 -295.412842 
L 320.549246 -282.805953 
L 316.725582 -269.840445 
L 312.901919 -256.86515 
L 309.078255 -244.083255 
L 305.254591 -231.609954 
L 301.430927 -219.562091 
L 297.607264 -208.087756 
L 293.7836 -197.309531 
L 289.959936 -187.244157 
L 286.136272 -177.786753 
L 282.312608 -168.790802 
L 278.488945 -160.187795 
L 274.665281 -152.044855 
L 270.841617 -144.504245 
L 267.017953 -137.657325 
L 263.19429 -131.467476 
L 259.370626 -125.799943 
L 255.546962 -120.509623 
L 251.723298 -115.500694 
L 247.899635 -110.72555 
L 244.075971 -106.154738 
L 240.252307 -101.759272 
L 236.428643 -97.514074 
L 232.604979 -93.405533 
L 228.781316 -89.430419 
L 224.957652 -85.590283 
L 221.133988 -81.890767 
L 217.310324 -78.346369 
L 213.486661 -74.982252 
L 209.662997 -71.826086 
L 205.839333 -68.892755 
L 202.015669 -66.173894 
L 198.192005 -63.643074 
L 194.368342 -61.274601 
L 190.544678 -59.060675 
L 186.721014 -57.012483 
L 182.89735 -55.145975 
L 179.073687 -53.466113 
L 175.250023 -51.961231 
L 171.426359 -50.607364 
L 167.602695 -49.375782 
L 163.779032 -48.239795 
L 159.955368 -47.180805 
L 156.131704 -46.192549 
L 152.30804 -45.280119 
L 148.484376 -44.452382 
L 144.660713 -43.711886 
L 140.837049 -43.049277 
L 137.013385 -42.445927 
L 133.189721 -41.882088 
L 129.366058 -41.344395 
L 125.542394 -40.828784 
L 121.71873 -40.339202 
L 117.895066 -39.884628 
L 114.071402 -39.476122 
L 110.247739 -39.124162 
L 106.424075 -38.835753 
L 102.600411 -38.611064 
L 98.776747 -38.440532 
L 94.953084 -38.304846 
L 91.12942 -38.179634 
L 87.305756 -38.043502 
L 83.482092 -37.884836 
L 79.658429 -37.703591 
L 75.834765 -37.508603 
L 72.011101 -37.313814 
L 68.187437 -37.135068 
L 64.363773 -36.9865 
L 60.54011 -36.876325 
L 56.716446 -36.804351 
L 52.892782 -36.763308 
L 49.069118 -36.742995 
L 45.245455 -36.734297 
z
" style="stroke: #ffffff"/>
    </defs>
    <g>
     <use xlink:href="#m343c074d77" x="0" y="459.729687" style="fill: #55a868; fill-opacity: 0.75; stroke: #ffffff"/>
    </g>
   </g>
   <g id="FillBetweenPolyCollection_6">
    <defs>
     <path id="mbf0e108465" d="M 45.245455 -36.734297 
L 45.245455 -36.734297 
L 49.069118 -36.742995 
L 52.892782 -36.763308 
L 56.716446 -36.804351 
L 60.54011 -36.876325 
L 64.363773 -36.9865 
L 68.187437 -37.135068 
L 72.011101 -37.313814 
L 75.834765 -37.508603 
L 79.658429 -37.703591 
L 83.482092 -37.884836 
L 87.305756 -38.043502 
L 91.12942 -38.179634 
L 94.953084 -38.304846 
L 98.776747 -38.440532 
L 102.600411 -38.611064 
L 106.424075 -38.835753 
L 110.247739 -39.124162 
L 114.071402 -39.476122 
L 117.895066 -39.884628 
L 121.71873 -40.339202 
L 125.542394 -40.828784 
L 129.366058 -41.344395 
L 133.189721 -41.882088 
L 137.013385 -42.445927 
L 140.837049 -43.049277 
L 144.660713 -43.711886 
L 148.484376 -44.452382 
L 152.30804 -45.280119 
L 156.131704 -46.192549 
L 159.955368 -47.180805 
L 163.779032 -48.239795 
L 167.602695 -49.375782 
L 171.426359 -50.607364 
L 175.250023 -51.961231 
L 179.073687 -53.466113 
L 182.89735 -55.145975 
L 186.721014 -57.012483 
L 190.544678 -59.060675 
L 194.368342 -61.274601 
L 198.192005 -63.643074 
L 202.015669 -66.173894 
L 205.839333 -68.892755 
L 209.662997 -71.826086 
L 213.486661 -74.982252 
L 217.310324 -78.346369 
L 221.133988 -81.890767 
L 224.957652 -85.590283 
L 228.781316 -89.430419 
L 232.604979 -93.405533 
L 236.428643 -97.514074 
L 240.252307 -101.759272 
L 244.075971 -106.154738 
L 247.899635 -110.72555 
L 251.723298 -115.500694 
L 255.546962 -120.509623 
L 259.370626 -125.799943 
L 263.19429 -131.467476 
L 267.017953 -137.657325 
L 270.841617 -144.504245 
L 274.665281 -152.044855 
L 278.488945 -160.187795 
L 282.312608 -168.790802 
L 286.136272 -177.786753 
L 289.959936 -187.244157 
L 293.7836 -197.309531 
L 297.607264 -208.087756 
L 301.430927 -219.562091 
L 305.254591 -231.609954 
L 309.078255 -244.083255 
L 312.901919 -256.86515 
L 316.725582 -269.840445 
L 320.549246 -282.805953 
L 324.37291 -295.412842 
L 328.196574 -307.208523 
L 332.020238 -317.755324 
L 335.843901 -326.733284 
L 339.667565 -333.952406 
L 343.491229 -339.288492 
L 347.314893 -342.621996 
L 351.138556 -343.835071 
L 354.96222 -342.853202 
L 358.785884 -339.690354 
L 362.609548 -334.476668 
L 366.433212 -327.460772 
L 370.256875 -318.973608 
L 374.080539 -309.355498 
L 377.904203 -298.885672 
L 381.727867 -287.763279 
L 385.55153 -276.145945 
L 389.375194 -264.20028 
L 393.198858 -252.115416 
L 397.022522 -240.076018 
L 400.846185 -228.232238 
L 404.669849 -216.698132 
L 408.493513 -205.571301 
L 412.317177 -194.943615 
L 416.140841 -184.889224 
L 419.964504 -175.446442 
L 423.788168 -166.616651 
L 427.611832 -158.382002 
L 431.435496 -150.725155 
L 435.259159 -143.639647 
L 439.082823 -137.131698 
L 442.906487 -131.211975 
L 446.730151 -125.871704 
L 450.553815 -121.051716 
L 454.377478 -116.631244 
L 458.201142 -112.457274 
L 462.024806 -108.406961 
L 465.84847 -104.44933 
L 469.672133 -100.664577 
L 473.495797 -97.198914 
L 477.319461 -94.178333 
L 481.143125 -91.6409 
L 484.966788 -89.531348 
L 488.790452 -87.747068 
L 492.614116 -86.190949 
L 496.43778 -84.799792 
L 500.261444 -83.546443 
L 504.085107 -82.427356 
L 507.908771 -81.446155 
L 511.732435 -80.600529 
L 515.556099 -79.876843 
L 519.379762 -79.252318 
L 523.203426 -78.700913 
L 527.02709 -78.19876 
L 530.850754 -77.727118 
L 534.674418 -77.272915 
L 538.498081 -76.827899 
L 542.321745 -76.387338 
L 546.145409 -75.948779 
L 549.969073 -75.511007 
L 553.792736 -75.073055 
L 557.6164 -74.632945 
L 561.440064 -74.186124 
L 565.263728 -73.724196 
L 569.087392 -73.234958 
L 572.911055 -72.704227 
L 576.734719 -72.118937 
L 580.558383 -71.470236 
L 584.382047 -70.755244 
L 588.20571 -69.976718 
L 592.029374 -69.140907 
L 595.853038 -68.254869 
L 599.676702 -67.32473 
L 603.500365 -66.355495 
L 607.324029 -65.351828 
L 611.147693 -64.318731 
L 614.971357 -63.261475 
L 618.795021 -62.184933 
L 622.618684 -61.092872 
L 626.442348 -59.987626 
L 630.266012 -58.870275 
L 634.089676 -57.741188 
L 637.913339 -56.600731 
L 641.737003 -55.450033 
L 645.560667 -54.291761 
L 649.384331 -53.130801 
L 653.207995 -51.974646 
L 657.031658 -50.833235 
L 660.855322 -49.718131 
L 664.678986 -48.641132 
L 668.50265 -47.612721 
L 672.326313 -46.640799 
L 676.149977 -45.730072 
L 679.973641 -44.882178 
L 683.797305 -44.09637 
L 687.620968 -43.370436 
L 691.444632 -42.701524 
L 695.268296 -42.086653 
L 699.09196 -41.522847 
L 702.915624 -41.006975 
L 706.739287 -40.535461 
L 710.562951 -40.104067 
L 714.386615 -39.707902 
L 718.210279 -39.341758 
L 722.033942 -39.000725 
L 725.857606 -38.680974 
L 729.68127 -38.380449 
L 733.504934 -38.099236 
L 737.328598 -37.839427 
L 741.152261 -37.604447 
L 744.975925 -37.398003 
L 748.799589 -37.222954 
L 752.623253 -37.080433 
L 756.446916 -36.969439 
L 760.27058 -36.886982 
L 764.094244 -36.828653 
L 767.917908 -36.789403 
L 771.741571 -36.764279 
L 775.565235 -36.748967 
L 779.388899 -36.740064 
L 783.212563 -36.735106 
L 787.036227 -36.732448 
L 790.85989 -36.731067 
L 794.683554 -36.730365 
L 798.507218 -36.730015 
L 802.330882 -36.729842 
L 806.154545 -36.729759 
L 806.154545 -36.729759 
L 806.154545 -36.729759 
L 802.330882 -36.729842 
L 798.507218 -36.730015 
L 794.683554 -36.730365 
L 790.85989 -36.731067 
L 787.036227 -36.732448 
L 783.212563 -36.735106 
L 779.388899 -36.740064 
L 775.565235 -36.748967 
L 771.741571 -36.764279 
L 767.917908 -36.789403 
L 764.094244 -36.828653 
L 760.27058 -36.886982 
L 756.446916 -36.969441 
L 752.623253 -37.080441 
L 748.799589 -37.22298 
L 744.975925 -37.39808 
L 741.152261 -37.604657 
L 737.328598 -37.839949 
L 733.504934 -38.100426 
L 729.68127 -38.382962 
L 725.857606 -38.685929 
L 722.033942 -39.009968 
L 718.210279 -39.358327 
L 714.386615 -39.736898 
L 710.562951 -40.154152 
L 706.739287 -40.621116 
L 702.915624 -41.151404 
L 699.09196 -41.761054 
L 695.268296 -42.467706 
L 691.444632 -43.2885 
L 687.620968 -44.236631 
L 683.797305 -45.317735 
L 679.973641 -46.528203 
L 676.149977 -47.856872 
L 672.326313 -49.289505 
L 668.50265 -50.814063 
L 664.678986 -52.425203 
L 660.855322 -54.127643 
L 657.031658 -55.937985 
L 653.207995 -57.883235 
L 649.384331 -59.993921 
L 645.560667 -62.292881 
L 641.737003 -64.785812 
L 637.913339 -67.461068 
L 634.089676 -70.299818 
L 630.266012 -73.287616 
L 626.442348 -76.415205 
L 622.618684 -79.666405 
L 618.795021 -83.005922 
L 614.971357 -86.38331 
L 611.147693 -89.754421 
L 607.324029 -93.102437 
L 603.500365 -96.438245 
L 599.676702 -99.778308 
L 595.853038 -103.118621 
L 592.029374 -106.425131 
L 588.20571 -109.644379 
L 584.382047 -112.721785 
L 580.558383 -115.613522 
L 576.734719 -118.28811 
L 572.911055 -120.72288 
L 569.087392 -122.901366 
L 565.263728 -124.813648 
L 561.440064 -126.458551 
L 557.6164 -127.846032 
L 553.792736 -128.998393 
L 549.969073 -129.948447 
L 546.145409 -130.732574 
L 542.321745 -131.378791 
L 538.498081 -131.894947 
L 534.674418 -132.266066 
L 530.850754 -132.466532 
L 527.02709 -132.481602 
L 523.203426 -132.323015 
L 519.379762 -132.027249 
L 515.556099 -131.640872 
L 511.732435 -131.208485 
L 507.908771 -130.772375 
L 504.085107 -130.377832 
L 500.261444 -130.073113 
L 496.43778 -129.902834 
L 492.614116 -129.903851 
L 488.790452 -130.111922 
L 484.966788 -130.577713 
L 481.143125 -131.378939 
L 477.319461 -132.608958 
L 473.495797 -134.333884 
L 469.672133 -136.542408 
L 465.84847 -139.134121 
L 462.024806 -141.967987 
L 458.201142 -144.940651 
L 454.377478 -148.040916 
L 450.553815 -151.351115 
L 446.730151 -155.00472 
L 442.906487 -159.131226 
L 439.082823 -163.819709 
L 435.259159 -169.114424 
L 431.435496 -175.030875 
L 427.611832 -181.571853 
L 423.788168 -188.735093 
L 419.964504 -196.51477 
L 416.140841 -204.896561 
L 412.317177 -213.846747 
L 408.493513 -223.306735 
L 404.669849 -233.204343 
L 400.846185 -243.472567 
L 397.022522 -254.051007 
L 393.198858 -264.860521 
L 389.375194 -275.77455 
L 385.55153 -286.621268 
L 381.727867 -297.219958 
L 377.904203 -307.412763 
L 374.080539 -317.049898 
L 370.256875 -325.933513 
L 366.433212 -333.774786 
L 362.609548 -340.214327 
L 358.785884 -344.899338 
L 354.96222 -347.56414 
L 351.138556 -348.070521 
L 347.314893 -346.404962 
L 343.491229 -342.647634 
L 339.667565 -336.923614 
L 335.843901 -329.358532 
L 332.020238 -320.079616 
L 328.196574 -309.275612 
L 324.37291 -297.260936 
L 320.549246 -284.465063 
L 316.725582 -271.332361 
L 312.901919 -258.205553 
L 309.078255 -245.284358 
L 305.254591 -232.682276 
L 301.430927 -220.515079 
L 297.607264 -208.929896 
L 293.7836 -198.048673 
L 289.959936 -187.888247 
L 286.136272 -178.344545 
L 282.312608 -169.271929 
L 278.488945 -160.601932 
L 274.665281 -152.400457 
L 270.841617 -144.807691 
L 267.017953 -137.913012 
L 263.19429 -131.678665 
L 259.370626 -125.969725 
L 255.546962 -120.641533 
L 251.723298 -115.598941 
L 247.899635 -110.795065 
L 244.075971 -106.201099 
L 240.252307 -101.788393 
L 236.428643 -97.531631 
L 232.604979 -93.416319 
L 228.781316 -89.437895 
L 224.957652 -85.596474 
L 221.133988 -81.896482 
L 217.310324 -78.351619 
L 213.486661 -74.986741 
L 209.662997 -71.829606 
L 205.839333 -68.895387 
L 202.015669 -66.175995 
L 198.192005 -63.645135 
L 194.368342 -61.277086 
L 190.544678 -59.063883 
L 186.721014 -57.016461 
L 182.89735 -55.150499 
L 179.073687 -53.470767 
L 175.250023 -51.965562 
L 171.426359 -50.611043 
L 167.602695 -49.378682 
L 163.779032 -48.241964 
L 159.955368 -47.182374 
L 156.131704 -46.193653 
L 152.30804 -45.280864 
L 148.484376 -44.452852 
L 144.660713 -43.712159 
L 140.837049 -43.049422 
L 137.013385 -42.446011 
L 133.189721 -41.882183 
L 129.366058 -41.344624 
L 125.542394 -40.829396 
L 121.71873 -40.340682 
L 117.895066 -39.887761 
L 114.071402 -39.48191 
L 110.247739 -39.133476 
L 106.424075 -38.848797 
L 102.600411 -38.626947 
L 98.776747 -38.457336 
L 94.953084 -38.320284 
L 91.12942 -38.191945 
L 87.305756 -38.05202 
L 83.482092 -37.889948 
L 79.658429 -37.706252 
L 75.834765 -37.509804 
L 72.011101 -37.314284 
L 68.187437 -37.135227 
L 64.363773 -36.986547 
L 60.54011 -36.876337 
L 56.716446 -36.804353 
L 52.892782 -36.763308 
L 49.069118 -36.742995 
L 45.245455 -36.734297 
z
" style="stroke: #ffffff"/>
    </defs>
    <g>
     <use xlink:href="#mbf0e108465" x="0" y="459.729687" style="fill: #dd8452; fill-opacity: 0.75; stroke: #ffffff"/>
    </g>
   </g>
   <g id="FillBetweenPolyCollection_7">
    <defs>
     <path id="ma82c6bcb5f" d="M 45.245455 -36.734297 
L 45.245455 -36.734297 
L 49.069118 -36.742995 
L 52.892782 -36.763308 
L 56.716446 -36.804353 
L 60.54011 -36.876337 
L 64.363773 -36.986547 
L 68.187437 -37.135227 
L 72.011101 -37.314284 
L 75.834765 -37.509804 
L 79.658429 -37.706252 
L 83.482092 -37.889948 
L 87.305756 -38.05202 
L 91.12942 -38.191945 
L 94.953084 -38.320284 
L 98.776747 -38.457336 
L 102.600411 -38.626947 
L 106.424075 -38.848797 
L 110.247739 -39.133476 
L 114.071402 -39.48191 
L 117.895066 -39.887761 
L 121.71873 -40.340682 
L 125.542394 -40.829396 
L 129.366058 -41.344624 
L 133.189721 -41.882183 
L 137.013385 -42.446011 
L 140.837049 -43.049422 
L 144.660713 -43.712159 
L 148.484376 -44.452852 
L 152.30804 -45.280864 
L 156.131704 -46.193653 
L 159.955368 -47.182374 
L 163.779032 -48.241964 
L 167.602695 -49.378682 
L 171.426359 -50.611043 
L 175.250023 -51.965562 
L 179.073687 -53.470767 
L 182.89735 -55.150499 
L 186.721014 -57.016461 
L 190.544678 -59.063883 
L 194.368342 -61.277086 
L 198.192005 -63.645135 
L 202.015669 -66.175995 
L 205.839333 -68.895387 
L 209.662997 -71.829606 
L 213.486661 -74.986741 
L 217.310324 -78.351619 
L 221.133988 -81.896482 
L 224.957652 -85.596474 
L 228.781316 -89.437895 
L 232.604979 -93.416319 
L 236.428643 -97.531631 
L 240.252307 -101.788393 
L 244.075971 -106.201099 
L 247.899635 -110.795065 
L 251.723298 -115.598941 
L 255.546962 -120.641533 
L 259.370626 -125.969725 
L 263.19429 -131.678665 
L 267.017953 -137.913012 
L 270.841617 -144.807691 
L 274.665281 -152.400457 
L 278.488945 -160.601932 
L 282.312608 -169.271929 
L 286.136272 -178.344545 
L 289.959936 -187.888247 
L 293.7836 -198.048673 
L 297.607264 -208.929896 
L 301.430927 -220.515079 
L 305.254591 -232.682276 
L 309.078255 -245.284358 
L 312.901919 -258.205553 
L 316.725582 -271.332361 
L 320.549246 -284.465063 
L 324.37291 -297.260936 
L 328.196574 -309.275612 
L 332.020238 -320.079616 
L 335.843901 -329.358532 
L 339.667565 -336.923614 
L 343.491229 -342.647634 
L 347.314893 -346.404962 
L 351.138556 -348.070521 
L 354.96222 -347.56414 
L 358.785884 -344.899338 
L 362.609548 -340.214327 
L 366.433212 -333.774786 
L 370.256875 -325.933513 
L 374.080539 -317.049898 
L 377.904203 -307.412763 
L 381.727867 -297.219958 
L 385.55153 -286.621268 
L 389.375194 -275.77455 
L 393.198858 -264.860521 
L 397.022522 -254.051007 
L 400.846185 -243.472567 
L 404.669849 -233.204343 
L 408.493513 -223.306735 
L 412.317177 -213.846747 
L 416.140841 -204.896561 
L 419.964504 -196.51477 
L 423.788168 -188.735093 
L 427.611832 -181.571853 
L 431.435496 -175.030875 
L 435.259159 -169.114424 
L 439.082823 -163.819709 
L 442.906487 -159.131226 
L 446.730151 -155.00472 
L 450.553815 -151.351115 
L 454.377478 -148.040916 
L 458.201142 -144.940651 
L 462.024806 -141.967987 
L 465.84847 -139.134121 
L 469.672133 -136.542408 
L 473.495797 -134.333884 
L 477.319461 -132.608958 
L 481.143125 -131.378939 
L 484.966788 -130.577713 
L 488.790452 -130.111922 
L 492.614116 -129.903851 
L 496.43778 -129.902834 
L 500.261444 -130.073113 
L 504.085107 -130.377832 
L 507.908771 -130.772375 
L 511.732435 -131.208485 
L 515.556099 -131.640872 
L 519.379762 -132.027249 
L 523.203426 -132.323015 
L 527.02709 -132.481602 
L 530.850754 -132.466532 
L 534.674418 -132.266066 
L 538.498081 -131.894947 
L 542.321745 -131.378791 
L 546.145409 -130.732574 
L 549.969073 -129.948447 
L 553.792736 -128.998393 
L 557.6164 -127.846032 
L 561.440064 -126.458551 
L 565.263728 -124.813648 
L 569.087392 -122.901366 
L 572.911055 -120.72288 
L 576.734719 -118.28811 
L 580.558383 -115.613522 
L 584.382047 -112.721785 
L 588.20571 -109.644379 
L 592.029374 -106.425131 
L 595.853038 -103.118621 
L 599.676702 -99.778308 
L 603.500365 -96.438245 
L 607.324029 -93.102437 
L 611.147693 -89.754421 
L 614.971357 -86.38331 
L 618.795021 -83.005922 
L 622.618684 -79.666405 
L 626.442348 -76.415205 
L 630.266012 -73.287616 
L 634.089676 -70.299818 
L 637.913339 -67.461068 
L 641.737003 -64.785812 
L 645.560667 -62.292881 
L 649.384331 -59.993921 
L 653.207995 -57.883235 
L 657.031658 -55.937985 
L 660.855322 -54.127643 
L 664.678986 -52.425203 
L 668.50265 -50.814063 
L 672.326313 -49.289505 
L 676.149977 -47.856872 
L 679.973641 -46.528203 
L 683.797305 -45.317735 
L 687.620968 -44.236631 
L 691.444632 -43.2885 
L 695.268296 -42.467706 
L 699.09196 -41.761054 
L 702.915624 -41.151404 
L 706.739287 -40.621116 
L 710.562951 -40.154152 
L 714.386615 -39.736898 
L 718.210279 -39.358327 
L 722.033942 -39.009968 
L 725.857606 -38.685929 
L 729.68127 -38.382962 
L 733.504934 -38.100426 
L 737.328598 -37.839949 
L 741.152261 -37.604657 
L 744.975925 -37.39808 
L 748.799589 -37.22298 
L 752.623253 -37.080441 
L 756.446916 -36.969441 
L 760.27058 -36.886982 
L 764.094244 -36.828653 
L 767.917908 -36.789403 
L 771.741571 -36.764279 
L 775.565235 -36.748967 
L 779.388899 -36.740064 
L 783.212563 -36.735106 
L 787.036227 -36.732448 
L 790.85989 -36.731067 
L 794.683554 -36.730365 
L 798.507218 -36.730015 
L 802.330882 -36.729842 
L 806.154545 -36.729759 
L 806.154545 -36.730406 
L 806.154545 -36.730406 
L 802.330882 -36.731002 
L 798.507218 -36.731987 
L 794.683554 -36.733554 
L 790.85989 -36.735979 
L 787.036227 -36.739676 
L 783.212563 -36.745292 
L 779.388899 -36.753856 
L 775.565235 -36.76698 
L 771.741571 -36.787063 
L 767.917908 -36.81744 
L 764.094244 -36.862384 
L 760.27058 -36.926851 
L 756.446916 -37.015964 
L 752.623253 -37.13428 
L 748.799589 -37.285011 
L 744.975925 -37.469458 
L 741.152261 -37.686872 
L 737.328598 -37.934878 
L 733.504934 -38.210405 
L 729.68127 -38.510879 
L 725.857606 -38.835372 
L 722.033942 -39.185415 
L 718.210279 -39.565396 
L 714.386615 -39.982623 
L 710.562951 -40.447258 
L 706.739287 -40.97225 
L 702.915624 -41.57326 
L 699.09196 -42.268388 
L 695.268296 -43.077229 
L 691.444632 -44.018742 
L 687.620968 -45.107907 
L 683.797305 -46.35234 
L 679.973641 -47.750906 
L 676.149977 -49.295604 
L 672.326313 -50.975964 
L 668.50265 -52.783869 
L 664.678986 -54.7173 
L 660.855322 -56.78287 
L 657.031658 -58.997074 
L 653.207995 -61.384729 
L 649.384331 -63.972615 
L 645.560667 -66.779267 
L 641.737003 -69.806827 
L 637.913339 -73.042253 
L 634.089676 -76.468888 
L 630.266012 -80.079296 
L 626.442348 -83.877028 
L 622.618684 -87.864784 
L 618.795021 -92.031422 
L 614.971357 -96.353696 
L 611.147693 -100.814022 
L 607.324029 -105.416779 
L 603.500365 -110.183824 
L 599.676702 -115.1287 
L 595.853038 -120.229449 
L 592.029374 -125.421209 
L 588.20571 -130.612177 
L 584.382047 -135.709012 
L 580.558383 -140.63561 
L 576.734719 -145.339397 
L 572.911055 -149.789193 
L 569.087392 -153.970873 
L 565.263728 -157.884045 
L 561.440064 -161.540255 
L 557.6164 -164.962344 
L 553.792736 -168.184197 
L 549.969073 -171.24893 
L 546.145409 -174.202946 
L 542.321745 -177.085409 
L 538.498081 -179.917768 
L 534.674418 -182.701934 
L 530.850754 -185.432523 
L 527.02709 -188.117389 
L 523.203426 -190.791164 
L 519.379762 -193.510591 
L 515.556099 -196.336616 
L 511.732435 -199.319511 
L 507.908771 -202.496824 
L 504.085107 -205.898444 
L 500.261444 -209.547674 
L 496.43778 -213.456536 
L 492.614116 -217.623792 
L 488.790452 -222.043463 
L 484.966788 -226.722231 
L 481.143125 -231.692522 
L 477.319461 -237.00173 
L 473.495797 -242.669779 
L 469.672133 -248.639411 
L 465.84847 -254.765168 
L 462.024806 -260.86291 
L 458.201142 -266.789589 
L 454.377478 -272.499411 
L 450.553815 -278.046749 
L 446.730151 -283.544709 
L 442.906487 -289.110155 
L 439.082823 -294.826662 
L 435.259159 -300.739119 
L 431.435496 -306.868899 
L 427.611832 -313.229459 
L 423.788168 -319.834103 
L 419.964504 -326.697883 
L 416.140841 -333.832913 
L 412.317177 -341.237104 
L 408.493513 -348.887448 
L 404.669849 -356.749246 
L 400.846185 -364.792374 
L 397.022522 -372.990261 
L 393.198858 -381.292502 
L 389.375194 -389.594572 
L 385.55153 -397.738343 
L 381.727867 -405.546131 
L 377.904203 -412.849019 
L 374.080539 -419.468041 
L 370.256875 -425.155276 
L 366.433212 -429.552391 
L 362.609548 -432.219607 
L 358.785884 -432.729688 
L 354.96222 -430.771216 
L 351.138556 -426.211591 
L 347.314893 -419.108592 
L 343.491229 -409.678466 
L 339.667565 -398.228639 
L 335.843901 -385.081433 
L 332.020238 -370.539078 
L 328.196574 -354.914355 
L 324.37291 -338.580134 
L 320.549246 -321.960952 
L 316.725582 -305.448255 
L 312.901919 -289.305535 
L 309.078255 -273.647904 
L 305.254591 -258.514367 
L 301.430927 -243.964727 
L 297.607264 -230.110809 
L 293.7836 -217.05773 
L 289.959936 -204.819592 
L 286.136272 -193.298757 
L 282.312608 -182.360755 
L 278.488945 -171.949605 
L 274.665281 -162.142639 
L 270.841617 -153.088911 
L 267.017953 -144.883164 
L 263.19429 -137.488962 
L 259.370626 -130.768494 
L 255.546962 -124.570304 
L 251.723298 -118.789288 
L 247.899635 -113.366547 
L 244.075971 -108.260359 
L 240.252307 -103.429201 
L 236.428643 -98.835495 
L 232.604979 -94.453284 
L 228.781316 -90.267304 
L 224.957652 -86.267641 
L 221.133988 -82.449364 
L 217.310324 -78.817607 
L 213.486661 -75.389621 
L 209.662997 -72.186689 
L 205.839333 -69.21871 
L 202.015669 -66.473493 
L 198.192005 -63.921694 
L 194.368342 -61.535438 
L 190.544678 -59.305339 
L 186.721014 -57.241495 
L 182.89735 -55.3592 
L 179.073687 -53.663147 
L 175.250023 -52.141747 
L 171.426359 -50.771333 
L 167.602695 -49.523544 
L 163.779032 -48.371977 
L 159.955368 -47.298172 
L 156.131704 -46.295887 
L 152.30804 -45.370192 
L 148.484376 -44.529937 
L 144.660713 -43.777684 
L 140.837049 -43.104117 
L 137.013385 -42.490679 
L 133.189721 -41.917728 
L 129.366058 -41.372069 
L 125.542394 -40.849871 
L 121.71873 -40.355383 
L 117.895066 -39.897886 
L 114.071402 -39.488579 
L 110.247739 -39.137668 
L 106.424075 -38.851308 
L 102.600411 -38.628379 
L 98.776747 -38.458114 
L 94.953084 -38.320686 
L 91.12942 -38.192144 
L 87.305756 -38.052114 
L 83.482092 -37.889991 
L 79.658429 -37.70627 
L 75.834765 -37.509811 
L 72.011101 -37.314287 
L 68.187437 -37.135229 
L 64.363773 -36.986548 
L 60.54011 -36.876337 
L 56.716446 -36.804353 
L 52.892782 -36.763308 
L 49.069118 -36.742995 
L 45.245455 -36.734297 
z
" style="stroke: #ffffff"/>
    </defs>
    <g>
     <use xlink:href="#ma82c6bcb5f" x="0" y="459.729687" style="fill: #4c72b0; fill-opacity: 0.75; stroke: #ffffff"/>
    </g>
   </g>
   <g id="line2d_37">
    <path d="M 289.342258 423 
L 289.342258 7.2 
" style="fill: none; stroke-dasharray: 0.8,1.32; stroke-dashoffset: 0; stroke: #d3d3d3; stroke-width: 0.8"/>
   </g>
   <g id="line2d_38">
    <path d="M 471.416461 423 
L 471.416461 7.2 
" style="fill: none; stroke-dasharray: 0.8,1.32; stroke-dashoffset: 0; stroke: #d3d3d3; stroke-width: 0.8"/>
   </g>
   <g id="line2d_39">
    <path d="M 395.392838 423 
L 395.392838 7.2 
" style="fill: none; stroke-dasharray: 0.8,1.32; stroke-dashoffset: 0; stroke: #d3d3d3; stroke-width: 0.8"/>
   </g>
   <g id="line2d_40">
    <path d="M 7.2 423 
L 844.2 423 
" style="fill: none; stroke: #808080; stroke-width: 0.5; stroke-linecap: round"/>
   </g>
   <g id="text_12">
    <text style="font-size: 8px; font-family: 'Arial', 'DejaVu Sans', 'Liberation Sans', 'Bitstream Vera Sans', sans-serif; fill: #808080" transform="translate(295.596008 126.53675) rotate(-90)">International Poverty Line: $3.00</text>
   </g>
   <g id="text_13">
    <text style="font-size: 8px; font-family: 'Arial', 'DejaVu Sans', 'Liberation Sans', 'Bitstream Vera Sans', sans-serif; fill: #808080" transform="translate(477.142711 83.25175) rotate(-90)">World mean: $22.30</text>
   </g>
   <g id="text_14">
    <text style="font-size: 8px; font-family: 'Arial', 'DejaVu Sans', 'Liberation Sans', 'Bitstream Vera Sans', sans-serif; fill: #808080" transform="translate(401.119088 85.02925) rotate(-90)">World median: $9.65</text>
   </g>
   <g id="legend_1">
    <g id="patch_3">
     <path d="M 683.8 212.000625 
L 944.253125 212.000625 
Q 946.253125 212.000625 946.253125 210.000625 
L 946.253125 97.36 
Q 946.253125 95.36 944.253125 95.36 
L 683.8 95.36 
Q 681.8 95.36 681.8 97.36 
L 681.8 210.000625 
Q 681.8 212.000625 683.8 212.000625 
z
" style="fill: #ffffff; opacity: 0.8; stroke: #cccccc; stroke-linejoin: miter"/>
    </g>
    <g id="text_15">
     <text style="font-size: 10px; font-family: 'Arial', 'DejaVu Sans', 'Liberation Sans', 'Bitstream Vera Sans', sans-serif; text-anchor: start; fill: #262626" x="798.182813" y="106.517812" transform="rotate(-0 798.182813 106.517812)">Region</text>
    </g>
    <g id="patch_4">
     <path d="M 685.8 120.780312 
L 705.8 120.780312 
L 705.8 113.780312 
L 685.8 113.780312 
z
" style="fill: #4c72b0; fill-opacity: 0.75; stroke: #ffffff; stroke-linejoin: miter"/>
    </g>
    <g id="text_16">
     <text style="font-size: 10px; font-family: 'Arial', 'DejaVu Sans', 'Liberation Sans', 'Bitstream Vera Sans', sans-serif; text-anchor: start; fill: #262626" x="713.8" y="120.780312" transform="rotate(-0 713.8 120.780312)">East Asia and Pacific</text>
    </g>
    <g id="patch_5">
     <path d="M 685.8 135.0475 
L 705.8 135.0475 
L 705.8 128.0475 
L 685.8 128.0475 
z
" style="fill: #dd8452; fill-opacity: 0.75; stroke: #ffffff; stroke-linejoin: miter"/>
    </g>
    <g id="text_17">
     <text style="font-size: 10px; font-family: 'Arial', 'DejaVu Sans', 'Liberation Sans', 'Bitstream Vera Sans', sans-serif; text-anchor: start; fill: #262626" x="713.8" y="135.0475" transform="rotate(-0 713.8 135.0475)">Europe and Central Asia</text>
    </g>
    <g id="patch_6">
     <path d="M 685.8 149.192812 
L 705.8 149.192812 
L 705.8 142.192812 
L 685.8 142.192812 
z
" style="fill: #55a868; fill-opacity: 0.75; stroke: #ffffff; stroke-linejoin: miter"/>
    </g>
    <g id="text_18">
     <text style="font-size: 10px; font-family: 'Arial', 'DejaVu Sans', 'Liberation Sans', 'Bitstream Vera Sans', sans-serif; text-anchor: start; fill: #262626" x="713.8" y="149.192812" transform="rotate(-0 713.8 149.192812)">Latin America and Caribbean</text>
    </g>
    <g id="patch_7">
     <path d="M 685.8 163.46 
L 705.8 163.46 
L 705.8 156.46 
L 685.8 156.46 
z
" style="fill: #c44e52; fill-opacity: 0.75; stroke: #ffffff; stroke-linejoin: miter"/>
    </g>
    <g id="text_19">
     <text style="font-size: 10px; font-family: 'Arial', 'DejaVu Sans', 'Liberation Sans', 'Bitstream Vera Sans', sans-serif; text-anchor: start; fill: #262626" x="713.8" y="163.46" transform="rotate(-0 713.8 163.46)">Middle East, North Africa, Afghanistan and Pakistan</text>
    </g>
    <g id="patch_8">
     <path d="M 685.8 177.7225 
L 705.8 177.7225 
L 705.8 170.7225 
L 685.8 170.7225 
z
" style="fill: #8172b3; fill-opacity: 0.75; stroke: #ffffff; stroke-linejoin: miter"/>
    </g>
    <g id="text_20">
     <text style="font-size: 10px; font-family: 'Arial', 'DejaVu Sans', 'Liberation Sans', 'Bitstream Vera Sans', sans-serif; text-anchor: start; fill: #262626" x="713.8" y="177.7225" transform="rotate(-0 713.8 177.7225)">North America</text>
    </g>
    <g id="patch_9">
     <path d="M 685.8 191.867812 
L 705.8 191.867812 
L 705.8 184.867812 
L 685.8 184.867812 
z
" style="fill: #937860; fill-opacity: 0.75; stroke: #ffffff; stroke-linejoin: miter"/>
    </g>
    <g id="text_21">
     <text style="font-size: 10px; font-family: 'Arial', 'DejaVu Sans', 'Liberation Sans', 'Bitstream Vera Sans', sans-serif; text-anchor: start; fill: #262626" x="713.8" y="191.867812" transform="rotate(-0 713.8 191.867812)">South Asia</text>
    </g>
    <g id="patch_10">
     <path d="M 685.8 206.013125 
L 705.8 206.013125 
L 705.8 199.013125 
L 685.8 199.013125 
z
" style="fill: #da8bc3; fill-opacity: 0.75; stroke: #ffffff; stroke-linejoin: miter"/>
    </g>
    <g id="text_22">
     <text style="font-size: 10px; font-family: 'Arial', 'DejaVu Sans', 'Liberation Sans', 'Bitstream Vera Sans', sans-serif; text-anchor: start; fill: #262626" x="713.8" y="206.013125" transform="rotate(-0 713.8 206.013125)">Sub-Saharan Africa</text>
    </g>
   </g>
  </g>
 </g>
</svg>
