<?xml version="1.0" encoding="utf-8" standalone="no"?>
<!DOCTYPE svg PUBLIC "-//W3C//DTD SVG 1.1//EN"
  "http://www.w3.org/Graphics/SVG/1.1/DTD/svg11.dtd">
<svg xmlns:xlink="http://www.w3.org/1999/xlink" width="870.640625pt" height="459.729687pt" viewBox="0 0 870.640625 459.729687" xmlns="http://www.w3.org/2000/svg" version="1.1">
 <metadata>
  <rdf:RDF xmlns:dc="http://purl.org/dc/elements/1.1/" xmlns:cc="http://creativecommons.org/ns#" xmlns:rdf="http://www.w3.org/1999/02/22-rdf-syntax-ns#">
   <cc:Work>
    <dc:type rdf:resource="http://purl.org/dc/dcmitype/StillImage"/>
    <dc:date>2025-12-05T16:06:55.160394</dc:date>
    <dc:format>image/svg+xml</dc:format>
    <dc:creator>
     <cc:Agent>
      <dc:title>Matplotlib v3.10.1, https://matplotlib.org/</dc:title>
     </cc:Agent>
    </dc:creator>
   </cc:Work>
  </rdf:RDF>
 </metadata>
 <defs>
  <style type="text/css">*{stroke-linejoin: round; stroke-linecap: butt}</style>
 </defs>
 <g id="figure_1">
  <g id="patch_1">
   <path d="M 0 459.729687 
L 870.640625 459.729687 
L 870.640625 0 
L 0 0 
z
" style="fill: #ffffff"/>
  </g>
  <g id="axes_1">
   <g id="patch_2">
    <path d="M 7.2 423 
L 844.2 423 
L 844.2 7.2 
L 7.2 7.2 
z
" style="fill: #ffffff"/>
   </g>
   <g id="matplotlib.axis_1">
    <g id="xtick_1">
     <g id="line2d_1">
      <defs>
       <path id="m74b33698fa" d="M 0 0 
L 0 3.5 
" style="stroke: #262626; stroke-width: 0.8"/>
      </defs>
      <g>
       <use xlink:href="#m74b33698fa" x="228.819289" y="423" style="fill: #262626; stroke: #262626; stroke-width: 0.8"/>
      </g>
     </g>
     <g id="text_1">
      <text style="font-size: 10px; font-family: 'Arial', 'DejaVu Sans', 'Liberation Sans', 'Bitstream Vera Sans', sans-serif; text-anchor: middle; fill: #262626" x="228.819289" y="437.157812" transform="rotate(-0 228.819289 437.157812)">1</text>
     </g>
    </g>
    <g id="xtick_2">
     <g id="line2d_2">
      <g>
       <use xlink:href="#m74b33698fa" x="290.56864" y="423" style="fill: #262626; stroke: #262626; stroke-width: 0.8"/>
      </g>
     </g>
     <g id="text_2">
      <text style="font-size: 10px; font-family: 'Arial', 'DejaVu Sans', 'Liberation Sans', 'Bitstream Vera Sans', sans-serif; text-anchor: middle; fill: #262626" x="290.56864" y="437.157812" transform="rotate(-0 290.56864 437.157812)">2</text>
     </g>
    </g>
    <g id="xtick_3">
     <g id="line2d_3">
      <g>
       <use xlink:href="#m74b33698fa" x="372.196841" y="423" style="fill: #262626; stroke: #262626; stroke-width: 0.8"/>
      </g>
     </g>
     <g id="text_3">
      <text style="font-size: 10px; font-family: 'Arial', 'DejaVu Sans', 'Liberation Sans', 'Bitstream Vera Sans', sans-serif; text-anchor: middle; fill: #262626" x="372.196841" y="437.157812" transform="rotate(-0 372.196841 437.157812)">5</text>
     </g>
    </g>
    <g id="xtick_4">
     <g id="line2d_4">
      <g>
       <use xlink:href="#m74b33698fa" x="433.946192" y="423" style="fill: #262626; stroke: #262626; stroke-width: 0.8"/>
      </g>
     </g>
     <g id="text_4">
      <text style="font-size: 10px; font-family: 'Arial', 'DejaVu Sans', 'Liberation Sans', 'Bitstream Vera Sans', sans-serif; text-anchor: middle; fill: #262626" x="433.946192" y="437.157812" transform="rotate(-0 433.946192 437.157812)">10</text>
     </g>
    </g>
    <g id="xtick_5">
     <g id="line2d_5">
      <g>
       <use xlink:href="#m74b33698fa" x="495.695543" y="423" style="fill: #262626; stroke: #262626; stroke-width: 0.8"/>
      </g>
     </g>
     <g id="text_5">
      <text style="font-size: 10px; font-family: 'Arial', 'DejaVu Sans', 'Liberation Sans', 'Bitstream Vera Sans', sans-serif; text-anchor: middle; fill: #262626" x="495.695543" y="437.157812" transform="rotate(-0 495.695543 437.157812)">20</text>
     </g>
    </g>
    <g id="xtick_6">
     <g id="line2d_6">
      <g>
       <use xlink:href="#m74b33698fa" x="577.323745" y="423" style="fill: #262626; stroke: #262626; stroke-width: 0.8"/>
      </g>
     </g>
     <g id="text_6">
      <text style="font-size: 10px; font-family: 'Arial', 'DejaVu Sans', 'Liberation Sans', 'Bitstream Vera Sans', sans-serif; text-anchor: middle; fill: #262626" x="577.323745" y="437.157812" transform="rotate(-0 577.323745 437.157812)">50</text>
     </g>
    </g>
    <g id="xtick_7">
     <g id="line2d_7">
      <g>
       <use xlink:href="#m74b33698fa" x="639.073096" y="423" style="fill: #262626; stroke: #262626; stroke-width: 0.8"/>
      </g>
     </g>
     <g id="text_7">
      <text style="font-size: 10px; font-family: 'Arial', 'DejaVu Sans', 'Liberation Sans', 'Bitstream Vera Sans', sans-serif; text-anchor: middle; fill: #262626" x="639.073096" y="437.157812" transform="rotate(-0 639.073096 437.157812)">100</text>
     </g>
    </g>
    <g id="xtick_8">
     <g id="line2d_8">
      <g>
       <use xlink:href="#m74b33698fa" x="700.822447" y="423" style="fill: #262626; stroke: #262626; stroke-width: 0.8"/>
      </g>
     </g>
     <g id="text_8">
      <text style="font-size: 10px; font-family: 'Arial', 'DejaVu Sans', 'Liberation Sans', 'Bitstream Vera Sans', sans-serif; text-anchor: middle; fill: #262626" x="700.822447" y="437.157812" transform="rotate(-0 700.822447 437.157812)">200</text>
     </g>
    </g>
    <g id="xtick_9">
     <g id="line2d_9">
      <g>
       <use xlink:href="#m74b33698fa" x="782.450649" y="423" style="fill: #262626; stroke: #262626; stroke-width: 0.8"/>
      </g>
     </g>
     <g id="text_9">
      <text style="font-size: 10px; font-family: 'Arial', 'DejaVu Sans', 'Liberation Sans', 'Bitstream Vera Sans', sans-serif; text-anchor: middle; fill: #262626" x="782.450649" y="437.157812" transform="rotate(-0 782.450649 437.157812)">500</text>
     </g>
    </g>
    <g id="xtick_10">
     <g id="line2d_10">
      <g>
       <use xlink:href="#m74b33698fa" x="844.2" y="423" style="fill: #262626; stroke: #262626; stroke-width: 0.8"/>
      </g>
     </g>
     <g id="text_10">
      <text style="font-size: 10px; font-family: 'Arial', 'DejaVu Sans', 'Liberation Sans', 'Bitstream Vera Sans', sans-serif; text-anchor: middle; fill: #262626" x="844.2" y="437.157812" transform="rotate(-0 844.2 437.157812)">1000</text>
     </g>
    </g>
    <g id="xtick_11">
     <g id="line2d_11">
      <defs>
       <path id="ma75a759b4a" d="M 0 0 
L 0 2 
" style="stroke: #262626; stroke-width: 0.6"/>
      </defs>
      <g>
       <use xlink:href="#ma75a759b4a" x="14.306292" y="423" style="fill: #262626; stroke: #262626; stroke-width: 0.6"/>
      </g>
     </g>
    </g>
    <g id="xtick_12">
     <g id="line2d_12">
      <g>
       <use xlink:href="#ma75a759b4a" x="85.441736" y="423" style="fill: #262626; stroke: #262626; stroke-width: 0.6"/>
      </g>
     </g>
    </g>
    <g id="xtick_13">
     <g id="line2d_13">
      <g>
       <use xlink:href="#ma75a759b4a" x="121.56279" y="423" style="fill: #262626; stroke: #262626; stroke-width: 0.6"/>
      </g>
     </g>
    </g>
    <g id="xtick_14">
     <g id="line2d_14">
      <g>
       <use xlink:href="#ma75a759b4a" x="147.191087" y="423" style="fill: #262626; stroke: #262626; stroke-width: 0.6"/>
      </g>
     </g>
    </g>
    <g id="xtick_15">
     <g id="line2d_15">
      <g>
       <use xlink:href="#ma75a759b4a" x="167.069938" y="423" style="fill: #262626; stroke: #262626; stroke-width: 0.6"/>
      </g>
     </g>
    </g>
    <g id="xtick_16">
     <g id="line2d_16">
      <g>
       <use xlink:href="#ma75a759b4a" x="183.312141" y="423" style="fill: #262626; stroke: #262626; stroke-width: 0.6"/>
      </g>
     </g>
    </g>
    <g id="xtick_17">
     <g id="line2d_17">
      <g>
       <use xlink:href="#ma75a759b4a" x="197.044729" y="423" style="fill: #262626; stroke: #262626; stroke-width: 0.6"/>
      </g>
     </g>
    </g>
    <g id="xtick_18">
     <g id="line2d_18">
      <g>
       <use xlink:href="#ma75a759b4a" x="208.940438" y="423" style="fill: #262626; stroke: #262626; stroke-width: 0.6"/>
      </g>
     </g>
    </g>
    <g id="xtick_19">
     <g id="line2d_19">
      <g>
       <use xlink:href="#ma75a759b4a" x="219.433196" y="423" style="fill: #262626; stroke: #262626; stroke-width: 0.6"/>
      </g>
     </g>
    </g>
    <g id="xtick_20">
     <g id="line2d_20">
      <g>
       <use xlink:href="#ma75a759b4a" x="326.689694" y="423" style="fill: #262626; stroke: #262626; stroke-width: 0.6"/>
      </g>
     </g>
    </g>
    <g id="xtick_21">
     <g id="line2d_21">
      <g>
       <use xlink:href="#ma75a759b4a" x="352.31799" y="423" style="fill: #262626; stroke: #262626; stroke-width: 0.6"/>
      </g>
     </g>
    </g>
    <g id="xtick_22">
     <g id="line2d_22">
      <g>
       <use xlink:href="#ma75a759b4a" x="388.439045" y="423" style="fill: #262626; stroke: #262626; stroke-width: 0.6"/>
      </g>
     </g>
    </g>
    <g id="xtick_23">
     <g id="line2d_23">
      <g>
       <use xlink:href="#ma75a759b4a" x="402.171633" y="423" style="fill: #262626; stroke: #262626; stroke-width: 0.6"/>
      </g>
     </g>
    </g>
    <g id="xtick_24">
     <g id="line2d_24">
      <g>
       <use xlink:href="#ma75a759b4a" x="414.067341" y="423" style="fill: #262626; stroke: #262626; stroke-width: 0.6"/>
      </g>
     </g>
    </g>
    <g id="xtick_25">
     <g id="line2d_25">
      <g>
       <use xlink:href="#ma75a759b4a" x="424.5601" y="423" style="fill: #262626; stroke: #262626; stroke-width: 0.6"/>
      </g>
     </g>
    </g>
    <g id="xtick_26">
     <g id="line2d_26">
      <g>
       <use xlink:href="#ma75a759b4a" x="531.816598" y="423" style="fill: #262626; stroke: #262626; stroke-width: 0.6"/>
      </g>
     </g>
    </g>
    <g id="xtick_27">
     <g id="line2d_27">
      <g>
       <use xlink:href="#ma75a759b4a" x="557.444894" y="423" style="fill: #262626; stroke: #262626; stroke-width: 0.6"/>
      </g>
     </g>
    </g>
    <g id="xtick_28">
     <g id="line2d_28">
      <g>
       <use xlink:href="#ma75a759b4a" x="593.565949" y="423" style="fill: #262626; stroke: #262626; stroke-width: 0.6"/>
      </g>
     </g>
    </g>
    <g id="xtick_29">
     <g id="line2d_29">
      <g>
       <use xlink:href="#ma75a759b4a" x="607.298537" y="423" style="fill: #262626; stroke: #262626; stroke-width: 0.6"/>
      </g>
     </g>
    </g>
    <g id="xtick_30">
     <g id="line2d_30">
      <g>
       <use xlink:href="#ma75a759b4a" x="619.194245" y="423" style="fill: #262626; stroke: #262626; stroke-width: 0.6"/>
      </g>
     </g>
    </g>
    <g id="xtick_31">
     <g id="line2d_31">
      <g>
       <use xlink:href="#ma75a759b4a" x="629.687004" y="423" style="fill: #262626; stroke: #262626; stroke-width: 0.6"/>
      </g>
     </g>
    </g>
    <g id="xtick_32">
     <g id="line2d_32">
      <g>
       <use xlink:href="#ma75a759b4a" x="736.943502" y="423" style="fill: #262626; stroke: #262626; stroke-width: 0.6"/>
      </g>
     </g>
    </g>
    <g id="xtick_33">
     <g id="line2d_33">
      <g>
       <use xlink:href="#ma75a759b4a" x="762.571798" y="423" style="fill: #262626; stroke: #262626; stroke-width: 0.6"/>
      </g>
     </g>
    </g>
    <g id="xtick_34">
     <g id="line2d_34">
      <g>
       <use xlink:href="#ma75a759b4a" x="798.692853" y="423" style="fill: #262626; stroke: #262626; stroke-width: 0.6"/>
      </g>
     </g>
    </g>
    <g id="xtick_35">
     <g id="line2d_35">
      <g>
       <use xlink:href="#ma75a759b4a" x="812.425441" y="423" style="fill: #262626; stroke: #262626; stroke-width: 0.6"/>
      </g>
     </g>
    </g>
    <g id="xtick_36">
     <g id="line2d_36">
      <g>
       <use xlink:href="#ma75a759b4a" x="824.321149" y="423" style="fill: #262626; stroke: #262626; stroke-width: 0.6"/>
      </g>
     </g>
    </g>
    <g id="xtick_37">
     <g id="line2d_37">
      <g>
       <use xlink:href="#ma75a759b4a" x="834.813908" y="423" style="fill: #262626; stroke: #262626; stroke-width: 0.6"/>
      </g>
     </g>
    </g>
    <g id="text_11">
     <text style="font-size: 10px; font-family: 'Arial', 'DejaVu Sans', 'Liberation Sans', 'Bitstream Vera Sans', sans-serif; text-anchor: middle; fill: #262626" x="425.7" y="450.425" transform="rotate(-0 425.7 450.425)">Income or consumption (day)</text>
    </g>
   </g>
   <g id="matplotlib.axis_2"/>
   <g id="FillBetweenPolyCollection_1">
    <defs>
     <path id="m80595900b4" d="M 45.231059 -36.730808 
L 45.231059 -36.729687 
L 49.053276 -36.729687 
L 52.875492 -36.729687 
L 56.697709 -36.729687 
L 60.519926 -36.729687 
L 64.342143 -36.729687 
L 68.16436 -36.729687 
L 71.986577 -36.729687 
L 75.808794 -36.729687 
L 79.631011 -36.729687 
L 83.453228 -36.729687 
L 87.275445 -36.729687 
L 91.097662 -36.729687 
L 94.919879 -36.729687 
L 98.742096 -36.729687 
L 102.564313 -36.729687 
L 106.38653 -36.729687 
L 110.208747 -36.729687 
L 114.030964 -36.729687 
L 117.85318 -36.729687 
L 121.675397 -36.729687 
L 125.497614 -36.729687 
L 129.319831 -36.729687 
L 133.142048 -36.729687 
L 136.964265 -36.729687 
L 140.786482 -36.729687 
L 144.608699 -36.729687 
L 148.430916 -36.729687 
L 152.253133 -36.729687 
L 156.07535 -36.729687 
L 159.897567 -36.729687 
L 163.719784 -36.729687 
L 167.542001 -36.729687 
L 171.364218 -36.729687 
L 175.186435 -36.729687 
L 179.008652 -36.729687 
L 182.830869 -36.729687 
L 186.653085 -36.729687 
L 190.475302 -36.729687 
L 194.297519 -36.729687 
L 198.119736 -36.729687 
L 201.941953 -36.729687 
L 205.76417 -36.729687 
L 209.586387 -36.729687 
L 213.408604 -36.729687 
L 217.230821 -36.729687 
L 221.053038 -36.729687 
L 224.875255 -36.729687 
L 228.697472 -36.729687 
L 232.519689 -36.729687 
L 236.341906 -36.729687 
L 240.164123 -36.729687 
L 243.98634 -36.729687 
L 247.808557 -36.729687 
L 251.630773 -36.729687 
L 255.45299 -36.729687 
L 259.275207 -36.729687 
L 263.097424 -36.729687 
L 266.919641 -36.729687 
L 270.741858 -36.729687 
L 274.564075 -36.729687 
L 278.386292 -36.729687 
L 282.208509 -36.729687 
L 286.030726 -36.729687 
L 289.852943 -36.729687 
L 293.67516 -36.729687 
L 297.497377 -36.729687 
L 301.319594 -36.729687 
L 305.141811 -36.729687 
L 308.964028 -36.729687 
L 312.786245 -36.729687 
L 316.608462 -36.729687 
L 320.430678 -36.729687 
L 324.252895 -36.729687 
L 328.075112 -36.729687 
L 331.897329 -36.729687 
L 335.719546 -36.729687 
L 339.541763 -36.729687 
L 343.36398 -36.729687 
L 347.186197 -36.729687 
L 351.008414 -36.729687 
L 354.830631 -36.729687 
L 358.652848 -36.729687 
L 362.475065 -36.729687 
L 366.297282 -36.729687 
L 370.119499 -36.729687 
L 373.941716 -36.729687 
L 377.763933 -36.729687 
L 381.58615 -36.729687 
L 385.408366 -36.729687 
L 389.230583 -36.729687 
L 393.0528 -36.729687 
L 396.875017 -36.729687 
L 400.697234 -36.729687 
L 404.519451 -36.729687 
L 408.341668 -36.729687 
L 412.163885 -36.729687 
L 415.986102 -36.729687 
L 419.808319 -36.729687 
L 423.630536 -36.729687 
L 427.452753 -36.729687 
L 431.27497 -36.729687 
L 435.097187 -36.729687 
L 438.919404 -36.729687 
L 442.741621 -36.729687 
L 446.563838 -36.729687 
L 450.386054 -36.729687 
L 454.208271 -36.729687 
L 458.030488 -36.729687 
L 461.852705 -36.729687 
L 465.674922 -36.729687 
L 469.497139 -36.729687 
L 473.319356 -36.729687 
L 477.141573 -36.729687 
L 480.96379 -36.729687 
L 484.786007 -36.729687 
L 488.608224 -36.729687 
L 492.430441 -36.729687 
L 496.252658 -36.729687 
L 500.074875 -36.729687 
L 503.897092 -36.729687 
L 507.719309 -36.729687 
L 511.541526 -36.729687 
L 515.363743 -36.729687 
L 519.185959 -36.729687 
L 523.008176 -36.729687 
L 526.830393 -36.729687 
L 530.65261 -36.729687 
L 534.474827 -36.729687 
L 538.297044 -36.729687 
L 542.119261 -36.729687 
L 545.941478 -36.729687 
L 549.763695 -36.729687 
L 553.585912 -36.729687 
L 557.408129 -36.729687 
L 561.230346 -36.729687 
L 565.052563 -36.729687 
L 568.87478 -36.729687 
L 572.696997 -36.729687 
L 576.519214 -36.729687 
L 580.341431 -36.729687 
L 584.163647 -36.729687 
L 587.985864 -36.729687 
L 591.808081 -36.729687 
L 595.630298 -36.729687 
L 599.452515 -36.729687 
L 603.274732 -36.729687 
L 607.096949 -36.729687 
L 610.919166 -36.729687 
L 614.741383 -36.729687 
L 618.5636 -36.729687 
L 622.385817 -36.729687 
L 626.208034 -36.729687 
L 630.030251 -36.729687 
L 633.852468 -36.729687 
L 637.674685 -36.729687 
L 641.496902 -36.729687 
L 645.319119 -36.729687 
L 649.141336 -36.729687 
L 652.963552 -36.729687 
L 656.785769 -36.729687 
L 660.607986 -36.729687 
L 664.430203 -36.729687 
L 668.25242 -36.729687 
L 672.074637 -36.729687 
L 675.896854 -36.729687 
L 679.719071 -36.729687 
L 683.541288 -36.729687 
L 687.363505 -36.729687 
L 691.185722 -36.729687 
L 695.007939 -36.729687 
L 698.830156 -36.729687 
L 702.652373 -36.729687 
L 706.47459 -36.729687 
L 710.296807 -36.729687 
L 714.119024 -36.729687 
L 717.94124 -36.729687 
L 721.763457 -36.729687 
L 725.585674 -36.729687 
L 729.407891 -36.729687 
L 733.230108 -36.729687 
L 737.052325 -36.729687 
L 740.874542 -36.729687 
L 744.696759 -36.729687 
L 748.518976 -36.729687 
L 752.341193 -36.729687 
L 756.16341 -36.729687 
L 759.985627 -36.729687 
L 763.807844 -36.729687 
L 767.630061 -36.729687 
L 771.452278 -36.729687 
L 775.274495 -36.729687 
L 779.096712 -36.729687 
L 782.918929 -36.729687 
L 786.741145 -36.729687 
L 790.563362 -36.729687 
L 794.385579 -36.729687 
L 798.207796 -36.729687 
L 802.030013 -36.729687 
L 805.85223 -36.729687 
L 805.85223 -36.729687 
L 805.85223 -36.729687 
L 802.030013 -36.729687 
L 798.207796 -36.729687 
L 794.385579 -36.729687 
L 790.563362 -36.729687 
L 786.741145 -36.729687 
L 782.918929 -36.729687 
L 779.096712 -36.729687 
L 775.274495 -36.729687 
L 771.452278 -36.729687 
L 767.630061 -36.729687 
L 763.807844 -36.729687 
L 759.985627 -36.729687 
L 756.16341 -36.729687 
L 752.341193 -36.729687 
L 748.518976 -36.729687 
L 744.696759 -36.729687 
L 740.874542 -36.729687 
L 737.052325 -36.729687 
L 733.230108 -36.729687 
L 729.407891 -36.729687 
L 725.585674 -36.729687 
L 721.763457 -36.729687 
L 717.94124 -36.729687 
L 714.119024 -36.729688 
L 710.296807 -36.729688 
L 706.47459 -36.729688 
L 702.652373 -36.729688 
L 698.830156 -36.729688 
L 695.007939 -36.729688 
L 691.185722 -36.729688 
L 687.363505 -36.729688 
L 683.541288 -36.729688 
L 679.719071 -36.72969 
L 675.896854 -36.729698 
L 672.074637 -36.729728 
L 668.25242 -36.729829 
L 664.430203 -36.730139 
L 660.607986 -36.73098 
L 656.785769 -36.733018 
L 652.963552 -36.737432 
L 649.141336 -36.745971 
L 645.319119 -36.760769 
L 641.496902 -36.783822 
L 637.674685 -36.816296 
L 633.852468 -36.857979 
L 630.030251 -36.907133 
L 626.208034 -36.960776 
L 622.385817 -37.015236 
L 618.5636 -37.066927 
L 614.741383 -37.113317 
L 610.919166 -37.153777 
L 607.096949 -37.189615 
L 603.274732 -37.222917 
L 599.452515 -37.2549 
L 595.630298 -37.285229 
L 591.808081 -37.313051 
L 587.985864 -37.338803 
L 584.163647 -37.364948 
L 580.341431 -37.394727 
L 576.519214 -37.42991 
L 572.696997 -37.469492 
L 568.87478 -37.510475 
L 565.052563 -37.550198 
L 561.230346 -37.588462 
L 557.408129 -37.627897 
L 553.585912 -37.672435 
L 549.763695 -37.725328 
L 545.941478 -37.788446 
L 542.119261 -37.863333 
L 538.297044 -37.952855 
L 534.474827 -38.061775 
L 530.65261 -38.195758 
L 526.830393 -38.359745 
L 523.008176 -38.557075 
L 519.185959 -38.789774 
L 515.363743 -39.05939 
L 511.541526 -39.367755 
L 507.719309 -39.718076 
L 503.897092 -40.117139 
L 500.074875 -40.578027 
L 496.252658 -41.120591 
L 492.430441 -41.767065 
L 488.608224 -42.533551 
L 484.786007 -43.421978 
L 480.96379 -44.417408 
L 477.141573 -45.492164 
L 473.319356 -46.615 
L 469.497139 -47.762784 
L 465.674922 -48.931936 
L 461.852705 -50.144706 
L 458.030488 -51.444078 
L 454.208271 -52.875723 
L 450.386054 -54.465453 
L 446.563838 -56.206943 
L 442.741621 -58.069087 
L 438.919404 -60.017985 
L 435.097187 -62.037637 
L 431.27497 -64.135322 
L 427.452753 -66.330028 
L 423.630536 -68.634982 
L 419.808319 -71.048602 
L 415.986102 -73.559595 
L 412.163885 -76.158465 
L 408.341668 -78.841476 
L 404.519451 -81.601203 
L 400.697234 -84.412986 
L 396.875017 -87.232988 
L 393.0528 -90.013742 
L 389.230583 -92.726563 
L 385.408366 -95.373175 
L 381.58615 -97.977039 
L 377.763933 -100.559521 
L 373.941716 -103.115338 
L 370.119499 -105.601299 
L 366.297282 -107.944658 
L 362.475065 -110.066352 
L 358.652848 -111.904888 
L 354.830631 -113.425844 
L 351.008414 -114.613568 
L 347.186197 -115.457391 
L 343.36398 -115.948912 
L 339.541763 -116.094006 
L 335.719546 -115.926325 
L 331.897329 -115.505425 
L 328.075112 -114.894985 
L 324.252895 -114.13283 
L 320.430678 -113.212129 
L 316.608462 -112.087242 
L 312.786245 -110.701582 
L 308.964028 -109.01918 
L 305.141811 -107.040284 
L 301.319594 -104.796242 
L 297.497377 -102.334812 
L 293.67516 -99.708285 
L 289.852943 -96.966569 
L 286.030726 -94.151716 
L 282.208509 -91.294763 
L 278.386292 -88.41948 
L 274.564075 -85.551765 
L 270.741858 -82.724812 
L 266.919641 -79.972149 
L 263.097424 -77.313364 
L 259.275207 -74.746451 
L 255.45299 -72.255164 
L 251.630773 -69.825364 
L 247.808557 -67.456191 
L 243.98634 -65.158303 
L 240.164123 -62.945405 
L 236.341906 -60.831535 
L 232.519689 -58.837644 
L 228.697472 -56.996826 
L 224.875255 -55.345549 
L 221.053038 -53.902514 
L 217.230821 -52.651811 
L 213.408604 -51.545558 
L 209.586387 -50.524587 
L 205.76417 -49.542003 
L 201.941953 -48.575821 
L 198.119736 -47.628201 
L 194.297519 -46.716627 
L 190.475302 -45.862421 
L 186.653085 -45.079808 
L 182.830869 -44.368933 
L 179.008652 -43.716274 
L 175.186435 -43.102298 
L 171.364218 -42.5112 
L 167.542001 -41.936775 
L 163.719784 -41.382612 
L 159.897567 -40.858852 
L 156.07535 -40.378077 
L 152.253133 -39.951427 
L 148.430916 -39.585729 
L 144.608699 -39.282457 
L 140.786482 -39.038034 
L 136.964265 -38.84352 
L 133.142048 -38.682901 
L 129.319831 -38.532444 
L 125.497614 -38.365049 
L 121.675397 -38.16046 
L 117.85318 -37.916236 
L 114.030964 -37.65127 
L 110.208747 -37.397692 
L 106.38653 -37.185663 
L 102.564313 -37.031002 
L 98.742096 -36.932545 
L 94.919879 -36.878085 
L 91.097662 -36.852543 
L 87.275445 -36.843061 
L 83.453228 -36.840137 
L 79.631011 -36.836949 
L 75.808794 -36.82905 
L 71.986577 -36.814856 
L 68.16436 -36.795875 
L 64.342143 -36.775698 
L 60.519926 -36.758046 
L 56.697709 -36.745093 
L 52.875492 -36.737035 
L 49.053276 -36.732756 
L 45.231059 -36.730808 
z
" style="stroke: #ffffff"/>
    </defs>
    <g>
     <use xlink:href="#m80595900b4" x="0" y="459.729687" style="fill: #da8bc3; fill-opacity: 0.75; stroke: #ffffff"/>
    </g>
   </g>
   <g id="FillBetweenPolyCollection_2">
    <defs>
     <path id="m3d572bbfac" d="M 45.231059 -36.730808 
L 45.231059 -36.730808 
L 49.053276 -36.732756 
L 52.875492 -36.737035 
L 56.697709 -36.745093 
L 60.519926 -36.758046 
L 64.342143 -36.775698 
L 68.16436 -36.795875 
L 71.986577 -36.814856 
L 75.808794 -36.82905 
L 79.631011 -36.836949 
L 83.453228 -36.840137 
L 87.275445 -36.843061 
L 91.097662 -36.852543 
L 94.919879 -36.878085 
L 98.742096 -36.932545 
L 102.564313 -37.031002 
L 106.38653 -37.185663 
L 110.208747 -37.397692 
L 114.030964 -37.65127 
L 117.85318 -37.916236 
L 121.675397 -38.16046 
L 125.497614 -38.365049 
L 129.319831 -38.532444 
L 133.142048 -38.682901 
L 136.964265 -38.84352 
L 140.786482 -39.038034 
L 144.608699 -39.282457 
L 148.430916 -39.585729 
L 152.253133 -39.951427 
L 156.07535 -40.378077 
L 159.897567 -40.858852 
L 163.719784 -41.382612 
L 167.542001 -41.936775 
L 171.364218 -42.5112 
L 175.186435 -43.102298 
L 179.008652 -43.716274 
L 182.830869 -44.368933 
L 186.653085 -45.079808 
L 190.475302 -45.862421 
L 194.297519 -46.716627 
L 198.119736 -47.628201 
L 201.941953 -48.575821 
L 205.76417 -49.542003 
L 209.586387 -50.524587 
L 213.408604 -51.545558 
L 217.230821 -52.651811 
L 221.053038 -53.902514 
L 224.875255 -55.345549 
L 228.697472 -56.996826 
L 232.519689 -58.837644 
L 236.341906 -60.831535 
L 240.164123 -62.945405 
L 243.98634 -65.158303 
L 247.808557 -67.456191 
L 251.630773 -69.825364 
L 255.45299 -72.255164 
L 259.275207 -74.746451 
L 263.097424 -77.313364 
L 266.919641 -79.972149 
L 270.741858 -82.724812 
L 274.564075 -85.551765 
L 278.386292 -88.41948 
L 282.208509 -91.294763 
L 286.030726 -94.151716 
L 289.852943 -96.966569 
L 293.67516 -99.708285 
L 297.497377 -102.334812 
L 301.319594 -104.796242 
L 305.141811 -107.040284 
L 308.964028 -109.01918 
L 312.786245 -110.701582 
L 316.608462 -112.087242 
L 320.430678 -113.212129 
L 324.252895 -114.13283 
L 328.075112 -114.894985 
L 331.897329 -115.505425 
L 335.719546 -115.926325 
L 339.541763 -116.094006 
L 343.36398 -115.948912 
L 347.186197 -115.457391 
L 351.008414 -114.613568 
L 354.830631 -113.425844 
L 358.652848 -111.904888 
L 362.475065 -110.066352 
L 366.297282 -107.944658 
L 370.119499 -105.601299 
L 373.941716 -103.115338 
L 377.763933 -100.559521 
L 381.58615 -97.977039 
L 385.408366 -95.373175 
L 389.230583 -92.726563 
L 393.0528 -90.013742 
L 396.875017 -87.232988 
L 400.697234 -84.412986 
L 404.519451 -81.601203 
L 408.341668 -78.841476 
L 412.163885 -76.158465 
L 415.986102 -73.559595 
L 419.808319 -71.048602 
L 423.630536 -68.634982 
L 427.452753 -66.330028 
L 431.27497 -64.135322 
L 435.097187 -62.037637 
L 438.919404 -60.017985 
L 442.741621 -58.069087 
L 446.563838 -56.206943 
L 450.386054 -54.465453 
L 454.208271 -52.875723 
L 458.030488 -51.444078 
L 461.852705 -50.144706 
L 465.674922 -48.931936 
L 469.497139 -47.762784 
L 473.319356 -46.615 
L 477.141573 -45.492164 
L 480.96379 -44.417408 
L 484.786007 -43.421978 
L 488.608224 -42.533551 
L 492.430441 -41.767065 
L 496.252658 -41.120591 
L 500.074875 -40.578027 
L 503.897092 -40.117139 
L 507.719309 -39.718076 
L 511.541526 -39.367755 
L 515.363743 -39.05939 
L 519.185959 -38.789774 
L 523.008176 -38.557075 
L 526.830393 -38.359745 
L 530.65261 -38.195758 
L 534.474827 -38.061775 
L 538.297044 -37.952855 
L 542.119261 -37.863333 
L 545.941478 -37.788446 
L 549.763695 -37.725328 
L 553.585912 -37.672435 
L 557.408129 -37.627897 
L 561.230346 -37.588462 
L 565.052563 -37.550198 
L 568.87478 -37.510475 
L 572.696997 -37.469492 
L 576.519214 -37.42991 
L 580.341431 -37.394727 
L 584.163647 -37.364948 
L 587.985864 -37.338803 
L 591.808081 -37.313051 
L 595.630298 -37.285229 
L 599.452515 -37.2549 
L 603.274732 -37.222917 
L 607.096949 -37.189615 
L 610.919166 -37.153777 
L 614.741383 -37.113317 
L 618.5636 -37.066927 
L 622.385817 -37.015236 
L 626.208034 -36.960776 
L 630.030251 -36.907133 
L 633.852468 -36.857979 
L 637.674685 -36.816296 
L 641.496902 -36.783822 
L 645.319119 -36.760769 
L 649.141336 -36.745971 
L 652.963552 -36.737432 
L 656.785769 -36.733018 
L 660.607986 -36.73098 
L 664.430203 -36.730139 
L 668.25242 -36.729829 
L 672.074637 -36.729728 
L 675.896854 -36.729698 
L 679.719071 -36.72969 
L 683.541288 -36.729688 
L 687.363505 -36.729688 
L 691.185722 -36.729688 
L 695.007939 -36.729688 
L 698.830156 -36.729688 
L 702.652373 -36.729688 
L 706.47459 -36.729688 
L 710.296807 -36.729688 
L 714.119024 -36.729688 
L 717.94124 -36.729687 
L 721.763457 -36.729687 
L 725.585674 -36.729687 
L 729.407891 -36.729687 
L 733.230108 -36.729687 
L 737.052325 -36.729687 
L 740.874542 -36.729687 
L 744.696759 -36.729687 
L 748.518976 -36.729687 
L 752.341193 -36.729687 
L 756.16341 -36.729687 
L 759.985627 -36.729687 
L 763.807844 -36.729687 
L 767.630061 -36.729687 
L 771.452278 -36.729687 
L 775.274495 -36.729687 
L 779.096712 -36.729687 
L 782.918929 -36.729687 
L 786.741145 -36.729687 
L 790.563362 -36.729687 
L 794.385579 -36.729687 
L 798.207796 -36.729687 
L 802.030013 -36.729687 
L 805.85223 -36.729687 
L 805.85223 -36.729687 
L 805.85223 -36.729687 
L 802.030013 -36.729687 
L 798.207796 -36.729687 
L 794.385579 -36.729687 
L 790.563362 -36.729687 
L 786.741145 -36.729687 
L 782.918929 -36.729687 
L 779.096712 -36.729687 
L 775.274495 -36.729687 
L 771.452278 -36.729687 
L 767.630061 -36.729687 
L 763.807844 -36.729687 
L 759.985627 -36.729687 
L 756.16341 -36.729687 
L 752.341193 -36.729687 
L 748.518976 -36.729687 
L 744.696759 -36.729687 
L 740.874542 -36.729687 
L 737.052325 -36.729687 
L 733.230108 -36.729687 
L 729.407891 -36.729687 
L 725.585674 -36.729687 
L 721.763457 -36.729687 
L 717.94124 -36.729687 
L 714.119024 -36.729688 
L 710.296807 -36.729688 
L 706.47459 -36.729688 
L 702.652373 -36.729688 
L 698.830156 -36.729688 
L 695.007939 -36.729688 
L 691.185722 -36.729688 
L 687.363505 -36.729688 
L 683.541288 -36.729688 
L 679.719071 -36.72969 
L 675.896854 -36.729698 
L 672.074637 -36.729728 
L 668.25242 -36.729829 
L 664.430203 -36.730139 
L 660.607986 -36.73098 
L 656.785769 -36.733018 
L 652.963552 -36.737432 
L 649.141336 -36.745971 
L 645.319119 -36.760769 
L 641.496902 -36.783822 
L 637.674685 -36.816296 
L 633.852468 -36.857979 
L 630.030251 -36.907135 
L 626.208034 -36.960783 
L 622.385817 -37.015262 
L 618.5636 -37.067009 
L 614.741383 -37.113541 
L 610.919166 -37.154305 
L 607.096949 -37.190712 
L 603.274732 -37.224956 
L 599.452515 -37.258356 
L 595.630298 -37.290672 
L 591.808081 -37.321193 
L 587.985864 -37.350693 
L 584.163647 -37.382377 
L 580.341431 -37.420674 
L 576.519214 -37.468588 
L 572.696997 -37.525591 
L 568.87478 -37.587864 
L 565.052563 -37.651266 
L 561.230346 -37.715607 
L 557.408129 -37.787873 
L 553.585912 -37.882616 
L 549.763695 -38.018652 
L 545.941478 -38.212107 
L 542.119261 -38.468016 
L 538.297044 -38.775857 
L 534.474827 -39.114128 
L 530.65261 -39.462883 
L 526.830393 -39.817477 
L 523.008176 -40.198241 
L 519.185959 -40.656456 
L 515.363743 -41.278847 
L 511.541526 -42.187754 
L 507.719309 -43.524681 
L 503.897092 -45.404853 
L 500.074875 -47.857079 
L 496.252658 -50.798656 
L 492.430441 -54.082456 
L 488.608224 -57.585415 
L 484.786007 -61.26589 
L 480.96379 -65.157142 
L 477.141573 -69.32788 
L 473.319356 -73.853484 
L 469.497139 -78.812056 
L 465.674922 -84.293886 
L 461.852705 -90.405015 
L 458.030488 -97.252558 
L 454.208271 -104.918253 
L 450.386054 -113.438632 
L 446.563838 -122.800706 
L 442.741621 -132.949763 
L 438.919404 -143.807354 
L 435.097187 -155.296382 
L 431.27497 -167.357576 
L 427.452753 -179.938882 
L 423.630536 -192.959212 
L 419.808319 -206.273159 
L 415.986102 -219.668427 
L 412.163885 -232.902203 
L 408.341668 -245.743051 
L 404.519451 -257.971778 
L 400.697234 -269.334035 
L 396.875017 -279.497089 
L 393.0528 -288.072582 
L 389.230583 -294.705762 
L 385.408366 -299.168063 
L 381.58615 -301.393265 
L 377.763933 -301.446067 
L 373.941716 -299.443477 
L 370.119499 -295.464521 
L 366.297282 -289.511054 
L 362.475065 -281.577229 
L 358.652848 -271.796299 
L 354.830631 -260.537974 
L 351.008414 -248.351467 
L 347.186197 -235.780472 
L 343.36398 -223.193022 
L 339.541763 -210.761126 
L 335.719546 -198.582693 
L 331.897329 -186.795723 
L 328.075112 -175.561975 
L 324.252895 -164.966768 
L 320.430678 -154.979151 
L 316.608462 -145.534156 
L 312.786245 -136.654071 
L 308.964028 -128.481058 
L 305.141811 -121.18364 
L 301.319594 -114.825237 
L 297.497377 -109.313527 
L 293.67516 -104.461183 
L 289.852943 -100.088149 
L 286.030726 -96.081414 
L 282.208509 -92.387423 
L 278.386292 -88.972348 
L 274.564075 -85.796829 
L 270.741858 -82.81857 
L 266.919641 -80.002778 
L 263.097424 -77.321843 
L 259.275207 -74.748429 
L 255.45299 -72.255551 
L 251.630773 -69.825428 
L 247.808557 -67.4562 
L 243.98634 -65.158304 
L 240.164123 -62.945405 
L 236.341906 -60.831535 
L 232.519689 -58.837644 
L 228.697472 -56.996826 
L 224.875255 -55.345549 
L 221.053038 -53.902514 
L 217.230821 -52.651811 
L 213.408604 -51.545558 
L 209.586387 -50.524587 
L 205.76417 -49.542003 
L 201.941953 -48.575821 
L 198.119736 -47.628201 
L 194.297519 -46.716627 
L 190.475302 -45.862421 
L 186.653085 -45.079808 
L 182.830869 -44.368933 
L 179.008652 -43.716274 
L 175.186435 -43.102298 
L 171.364218 -42.5112 
L 167.542001 -41.936775 
L 163.719784 -41.382612 
L 159.897567 -40.858852 
L 156.07535 -40.378077 
L 152.253133 -39.951427 
L 148.430916 -39.585729 
L 144.608699 -39.282457 
L 140.786482 -39.038034 
L 136.964265 -38.84352 
L 133.142048 -38.682901 
L 129.319831 -38.532444 
L 125.497614 -38.365049 
L 121.675397 -38.16046 
L 117.85318 -37.916236 
L 114.030964 -37.65127 
L 110.208747 -37.397692 
L 106.38653 -37.185663 
L 102.564313 -37.031002 
L 98.742096 -36.932545 
L 94.919879 -36.878085 
L 91.097662 -36.852543 
L 87.275445 -36.843061 
L 83.453228 -36.840137 
L 79.631011 -36.836949 
L 75.808794 -36.82905 
L 71.986577 -36.814856 
L 68.16436 -36.795875 
L 64.342143 -36.775698 
L 60.519926 -36.758046 
L 56.697709 -36.745093 
L 52.875492 -36.737035 
L 49.053276 -36.732756 
L 45.231059 -36.730808 
z
" style="stroke: #ffffff"/>
    </defs>
    <g>
     <use xlink:href="#m3d572bbfac" x="0" y="459.729687" style="fill: #937860; fill-opacity: 0.75; stroke: #ffffff"/>
    </g>
   </g>
   <g id="FillBetweenPolyCollection_3">
    <defs>
     <path id="mbcdc679e3d" d="M 45.231059 -36.730808 
L 45.231059 -36.730808 
L 49.053276 -36.732756 
L 52.875492 -36.737035 
L 56.697709 -36.745093 
L 60.519926 -36.758046 
L 64.342143 -36.775698 
L 68.16436 -36.795875 
L 71.986577 -36.814856 
L 75.808794 -36.82905 
L 79.631011 -36.836949 
L 83.453228 -36.840137 
L 87.275445 -36.843061 
L 91.097662 -36.852543 
L 94.919879 -36.878085 
L 98.742096 -36.932545 
L 102.564313 -37.031002 
L 106.38653 -37.185663 
L 110.208747 -37.397692 
L 114.030964 -37.65127 
L 117.85318 -37.916236 
L 121.675397 -38.16046 
L 125.497614 -38.365049 
L 129.319831 -38.532444 
L 133.142048 -38.682901 
L 136.964265 -38.84352 
L 140.786482 -39.038034 
L 144.608699 -39.282457 
L 148.430916 -39.585729 
L 152.253133 -39.951427 
L 156.07535 -40.378077 
L 159.897567 -40.858852 
L 163.719784 -41.382612 
L 167.542001 -41.936775 
L 171.364218 -42.5112 
L 175.186435 -43.102298 
L 179.008652 -43.716274 
L 182.830869 -44.368933 
L 186.653085 -45.079808 
L 190.475302 -45.862421 
L 194.297519 -46.716627 
L 198.119736 -47.628201 
L 201.941953 -48.575821 
L 205.76417 -49.542003 
L 209.586387 -50.524587 
L 213.408604 -51.545558 
L 217.230821 -52.651811 
L 221.053038 -53.902514 
L 224.875255 -55.345549 
L 228.697472 -56.996826 
L 232.519689 -58.837644 
L 236.341906 -60.831535 
L 240.164123 -62.945405 
L 243.98634 -65.158304 
L 247.808557 -67.4562 
L 251.630773 -69.825428 
L 255.45299 -72.255551 
L 259.275207 -74.748429 
L 263.097424 -77.321843 
L 266.919641 -80.002778 
L 270.741858 -82.81857 
L 274.564075 -85.796829 
L 278.386292 -88.972348 
L 282.208509 -92.387423 
L 286.030726 -96.081414 
L 289.852943 -100.088149 
L 293.67516 -104.461183 
L 297.497377 -109.313527 
L 301.319594 -114.825237 
L 305.141811 -121.18364 
L 308.964028 -128.481058 
L 312.786245 -136.654071 
L 316.608462 -145.534156 
L 320.430678 -154.979151 
L 324.252895 -164.966768 
L 328.075112 -175.561975 
L 331.897329 -186.795723 
L 335.719546 -198.582693 
L 339.541763 -210.761126 
L 343.36398 -223.193022 
L 347.186197 -235.780472 
L 351.008414 -248.351467 
L 354.830631 -260.537974 
L 358.652848 -271.796299 
L 362.475065 -281.577229 
L 366.297282 -289.511054 
L 370.119499 -295.464521 
L 373.941716 -299.443477 
L 377.763933 -301.446067 
L 381.58615 -301.393265 
L 385.408366 -299.168063 
L 389.230583 -294.705762 
L 393.0528 -288.072582 
L 396.875017 -279.497089 
L 400.697234 -269.334035 
L 404.519451 -257.971778 
L 408.341668 -245.743051 
L 412.163885 -232.902203 
L 415.986102 -219.668427 
L 419.808319 -206.273159 
L 423.630536 -192.959212 
L 427.452753 -179.938882 
L 431.27497 -167.357576 
L 435.097187 -155.296382 
L 438.919404 -143.807354 
L 442.741621 -132.949763 
L 446.563838 -122.800706 
L 450.386054 -113.438632 
L 454.208271 -104.918253 
L 458.030488 -97.252558 
L 461.852705 -90.405015 
L 465.674922 -84.293886 
L 469.497139 -78.812056 
L 473.319356 -73.853484 
L 477.141573 -69.32788 
L 480.96379 -65.157142 
L 484.786007 -61.26589 
L 488.608224 -57.585415 
L 492.430441 -54.082456 
L 496.252658 -50.798656 
L 500.074875 -47.857079 
L 503.897092 -45.404853 
L 507.719309 -43.524681 
L 511.541526 -42.187754 
L 515.363743 -41.278847 
L 519.185959 -40.656456 
L 523.008176 -40.198241 
L 526.830393 -39.817477 
L 530.65261 -39.462883 
L 534.474827 -39.114128 
L 538.297044 -38.775857 
L 542.119261 -38.468016 
L 545.941478 -38.212107 
L 549.763695 -38.018652 
L 553.585912 -37.882616 
L 557.408129 -37.787873 
L 561.230346 -37.715607 
L 565.052563 -37.651266 
L 568.87478 -37.587864 
L 572.696997 -37.525591 
L 576.519214 -37.468588 
L 580.341431 -37.420674 
L 584.163647 -37.382377 
L 587.985864 -37.350693 
L 591.808081 -37.321193 
L 595.630298 -37.290672 
L 599.452515 -37.258356 
L 603.274732 -37.224956 
L 607.096949 -37.190712 
L 610.919166 -37.154305 
L 614.741383 -37.113541 
L 618.5636 -37.067009 
L 622.385817 -37.015262 
L 626.208034 -36.960783 
L 630.030251 -36.907135 
L 633.852468 -36.857979 
L 637.674685 -36.816296 
L 641.496902 -36.783822 
L 645.319119 -36.760769 
L 649.141336 -36.745971 
L 652.963552 -36.737432 
L 656.785769 -36.733018 
L 660.607986 -36.73098 
L 664.430203 -36.730139 
L 668.25242 -36.729829 
L 672.074637 -36.729728 
L 675.896854 -36.729698 
L 679.719071 -36.72969 
L 683.541288 -36.729688 
L 687.363505 -36.729688 
L 691.185722 -36.729688 
L 695.007939 -36.729688 
L 698.830156 -36.729688 
L 702.652373 -36.729688 
L 706.47459 -36.729688 
L 710.296807 -36.729688 
L 714.119024 -36.729688 
L 717.94124 -36.729687 
L 721.763457 -36.729687 
L 725.585674 -36.729687 
L 729.407891 -36.729687 
L 733.230108 -36.729687 
L 737.052325 -36.729687 
L 740.874542 -36.729687 
L 744.696759 -36.729687 
L 748.518976 -36.729687 
L 752.341193 -36.729687 
L 756.16341 -36.729687 
L 759.985627 -36.729687 
L 763.807844 -36.729687 
L 767.630061 -36.729687 
L 771.452278 -36.729687 
L 775.274495 -36.729687 
L 779.096712 -36.729687 
L 782.918929 -36.729687 
L 786.741145 -36.729687 
L 790.563362 -36.729687 
L 794.385579 -36.729687 
L 798.207796 -36.729687 
L 802.030013 -36.729687 
L 805.85223 -36.729687 
L 805.85223 -36.72969 
L 805.85223 -36.72969 
L 802.030013 -36.729704 
L 798.207796 -36.729776 
L 794.385579 -36.730095 
L 790.563362 -36.731323 
L 786.741145 -36.735388 
L 782.918929 -36.747009 
L 779.096712 -36.7757 
L 775.274495 -36.836964 
L 771.452278 -36.950343 
L 767.630061 -37.132862 
L 763.807844 -37.390054 
L 759.985627 -37.710847 
L 756.16341 -38.071912 
L 752.341193 -38.450351 
L 748.518976 -38.836412 
L 744.696759 -39.237866 
L 740.874542 -39.674629 
L 737.052325 -40.168964 
L 733.230108 -40.737773 
L 729.407891 -41.390278 
L 725.585674 -42.130669 
L 721.763457 -42.962856 
L 717.94124 -43.893633 
L 714.119024 -44.932194 
L 710.296807 -46.087844 
L 706.47459 -47.370106 
L 702.652373 -48.792056 
L 698.830156 -50.371947 
L 695.007939 -52.128167 
L 691.185722 -54.070181 
L 687.363505 -56.193884 
L 683.541288 -58.485615 
L 679.719071 -60.929997 
L 675.896854 -63.513918 
L 672.074637 -66.224618 
L 668.25242 -69.046506 
L 664.430203 -71.962151 
L 660.607986 -74.958264 
L 656.785769 -78.031674 
L 652.963552 -81.188016 
L 649.141336 -84.430113 
L 645.319119 -87.742228 
L 641.496902 -91.082573 
L 637.674685 -94.392209 
L 633.852468 -97.615637 
L 630.030251 -100.717766 
L 626.208034 -103.683001 
L 622.385817 -106.495776 
L 618.5636 -109.118706 
L 614.741383 -111.488904 
L 610.919166 -113.536437 
L 607.096949 -115.206959 
L 603.274732 -116.469501 
L 599.452515 -117.310058 
L 595.630298 -117.724291 
L 591.808081 -117.715079 
L 587.985864 -117.290462 
L 584.163647 -116.459602 
L 580.341431 -115.230217 
L 576.519214 -113.610504 
L 572.696997 -111.614525 
L 568.87478 -109.26699 
L 565.052563 -106.603396 
L 561.230346 -103.667161 
L 557.408129 -100.512181 
L 553.585912 -97.214932 
L 549.763695 -93.883839 
L 545.941478 -90.644972 
L 542.119261 -87.600363 
L 538.297044 -84.786664 
L 534.474827 -82.17056 
L 530.65261 -79.68592 
L 526.830393 -77.280107 
L 523.008176 -74.93867 
L 519.185959 -72.692073 
L 515.363743 -70.625548 
L 511.541526 -68.89103 
L 507.719309 -67.689146 
L 503.897092 -67.196751 
L 500.074875 -67.471771 
L 496.252658 -68.416419 
L 492.430441 -69.846351 
L 488.608224 -71.613331 
L 484.786007 -73.679604 
L 480.96379 -76.102148 
L 477.141573 -78.970892 
L 473.319356 -82.362935 
L 469.497139 -86.336997 
L 465.674922 -90.954629 
L 461.852705 -96.298201 
L 458.030488 -102.462666 
L 454.208271 -109.525422 
L 450.386054 -117.519002 
L 446.563838 -126.422685 
L 442.741621 -136.17214 
L 438.919404 -146.683343 
L 435.097187 -157.883113 
L 431.27497 -169.724446 
L 427.452753 -182.165333 
L 423.630536 -195.11783 
L 419.808319 -208.40468 
L 415.986102 -221.763194 
L 412.163885 -234.902203 
L 408.341668 -247.568795 
L 404.519451 -259.561694 
L 400.697234 -270.67183 
L 396.875017 -280.609118 
L 393.0528 -289.001498 
L 389.230583 -295.485954 
L 385.408366 -299.82243 
L 381.58615 -301.947245 
L 377.763933 -301.939366 
L 373.941716 -299.925998 
L 370.119499 -295.979407 
L 366.297282 -290.077102 
L 362.475065 -282.181229 
L 358.652848 -272.399418 
L 354.830631 -261.093503 
L 351.008414 -248.824947 
L 347.186197 -236.161274 
L 343.36398 -223.492184 
L 339.541763 -210.999618 
L 335.719546 -198.779012 
L 331.897329 -186.959545 
L 328.075112 -175.695407 
L 324.252895 -165.070515 
L 320.430678 -155.059219 
L 316.608462 -145.605608 
L 312.786245 -136.740293 
L 308.964028 -128.608074 
L 305.141811 -121.369963 
L 301.319594 -115.070792 
L 297.497377 -109.59488 
L 293.67516 -104.73891 
L 289.852943 -100.323771 
L 286.030726 -96.253142 
L 282.208509 -92.494959 
L 278.386292 -89.030227 
L 274.564075 -85.823619 
L 270.741858 -82.829242 
L 266.919641 -80.00644 
L 263.097424 -77.322926 
L 259.275207 -74.748706 
L 255.45299 -72.255612 
L 251.630773 -69.825439 
L 247.808557 -67.456202 
L 243.98634 -65.158304 
L 240.164123 -62.945405 
L 236.341906 -60.831535 
L 232.519689 -58.837644 
L 228.697472 -56.996826 
L 224.875255 -55.345549 
L 221.053038 -53.902514 
L 217.230821 -52.651811 
L 213.408604 -51.545558 
L 209.586387 -50.524587 
L 205.76417 -49.542003 
L 201.941953 -48.575821 
L 198.119736 -47.628201 
L 194.297519 -46.716627 
L 190.475302 -45.862421 
L 186.653085 -45.079808 
L 182.830869 -44.368933 
L 179.008652 -43.716274 
L 175.186435 -43.102298 
L 171.364218 -42.5112 
L 167.542001 -41.936775 
L 163.719784 -41.382612 
L 159.897567 -40.858852 
L 156.07535 -40.378077 
L 152.253133 -39.951427 
L 148.430916 -39.585729 
L 144.608699 -39.282457 
L 140.786482 -39.038034 
L 136.964265 -38.84352 
L 133.142048 -38.682901 
L 129.319831 -38.532444 
L 125.497614 -38.365049 
L 121.675397 -38.16046 
L 117.85318 -37.916236 
L 114.030964 -37.65127 
L 110.208747 -37.397692 
L 106.38653 -37.185663 
L 102.564313 -37.031002 
L 98.742096 -36.932545 
L 94.919879 -36.878085 
L 91.097662 -36.852543 
L 87.275445 -36.843061 
L 83.453228 -36.840137 
L 79.631011 -36.836949 
L 75.808794 -36.82905 
L 71.986577 -36.814856 
L 68.16436 -36.795875 
L 64.342143 -36.775698 
L 60.519926 -36.758046 
L 56.697709 -36.745093 
L 52.875492 -36.737035 
L 49.053276 -36.732756 
L 45.231059 -36.730808 
z
" style="stroke: #ffffff"/>
    </defs>
    <g>
     <use xlink:href="#mbcdc679e3d" x="0" y="459.729687" style="fill: #8172b3; fill-opacity: 0.75; stroke: #ffffff"/>
    </g>
   </g>
   <g id="FillBetweenPolyCollection_4">
    <defs>
     <path id="m709e620263" d="M 45.231059 -36.730808 
L 45.231059 -36.730808 
L 49.053276 -36.732756 
L 52.875492 -36.737035 
L 56.697709 -36.745093 
L 60.519926 -36.758046 
L 64.342143 -36.775698 
L 68.16436 -36.795875 
L 71.986577 -36.814856 
L 75.808794 -36.82905 
L 79.631011 -36.836949 
L 83.453228 -36.840137 
L 87.275445 -36.843061 
L 91.097662 -36.852543 
L 94.919879 -36.878085 
L 98.742096 -36.932545 
L 102.564313 -37.031002 
L 106.38653 -37.185663 
L 110.208747 -37.397692 
L 114.030964 -37.65127 
L 117.85318 -37.916236 
L 121.675397 -38.16046 
L 125.497614 -38.365049 
L 129.319831 -38.532444 
L 133.142048 -38.682901 
L 136.964265 -38.84352 
L 140.786482 -39.038034 
L 144.608699 -39.282457 
L 148.430916 -39.585729 
L 152.253133 -39.951427 
L 156.07535 -40.378077 
L 159.897567 -40.858852 
L 163.719784 -41.382612 
L 167.542001 -41.936775 
L 171.364218 -42.5112 
L 175.186435 -43.102298 
L 179.008652 -43.716274 
L 182.830869 -44.368933 
L 186.653085 -45.079808 
L 190.475302 -45.862421 
L 194.297519 -46.716627 
L 198.119736 -47.628201 
L 201.941953 -48.575821 
L 205.76417 -49.542003 
L 209.586387 -50.524587 
L 213.408604 -51.545558 
L 217.230821 -52.651811 
L 221.053038 -53.902514 
L 224.875255 -55.345549 
L 228.697472 -56.996826 
L 232.519689 -58.837644 
L 236.341906 -60.831535 
L 240.164123 -62.945405 
L 243.98634 -65.158304 
L 247.808557 -67.456202 
L 251.630773 -69.825439 
L 255.45299 -72.255612 
L 259.275207 -74.748706 
L 263.097424 -77.322926 
L 266.919641 -80.00644 
L 270.741858 -82.829242 
L 274.564075 -85.823619 
L 278.386292 -89.030227 
L 282.208509 -92.494959 
L 286.030726 -96.253142 
L 289.852943 -100.323771 
L 293.67516 -104.73891 
L 297.497377 -109.59488 
L 301.319594 -115.070792 
L 305.141811 -121.369963 
L 308.964028 -128.608074 
L 312.786245 -136.740293 
L 316.608462 -145.605608 
L 320.430678 -155.059219 
L 324.252895 -165.070515 
L 328.075112 -175.695407 
L 331.897329 -186.959545 
L 335.719546 -198.779012 
L 339.541763 -210.999618 
L 343.36398 -223.492184 
L 347.186197 -236.161274 
L 351.008414 -248.824947 
L 354.830631 -261.093503 
L 358.652848 -272.399418 
L 362.475065 -282.181229 
L 366.297282 -290.077102 
L 370.119499 -295.979407 
L 373.941716 -299.925998 
L 377.763933 -301.939366 
L 381.58615 -301.947245 
L 385.408366 -299.82243 
L 389.230583 -295.485954 
L 393.0528 -289.001498 
L 396.875017 -280.609118 
L 400.697234 -270.67183 
L 404.519451 -259.561694 
L 408.341668 -247.568795 
L 412.163885 -234.902203 
L 415.986102 -221.763194 
L 419.808319 -208.40468 
L 423.630536 -195.11783 
L 427.452753 -182.165333 
L 431.27497 -169.724446 
L 435.097187 -157.883113 
L 438.919404 -146.683343 
L 442.741621 -136.17214 
L 446.563838 -126.422685 
L 450.386054 -117.519002 
L 454.208271 -109.525422 
L 458.030488 -102.462666 
L 461.852705 -96.298201 
L 465.674922 -90.954629 
L 469.497139 -86.336997 
L 473.319356 -82.362935 
L 477.141573 -78.970892 
L 480.96379 -76.102148 
L 484.786007 -73.679604 
L 488.608224 -71.613331 
L 492.430441 -69.846351 
L 496.252658 -68.416419 
L 500.074875 -67.471771 
L 503.897092 -67.196751 
L 507.719309 -67.689146 
L 511.541526 -68.89103 
L 515.363743 -70.625548 
L 519.185959 -72.692073 
L 523.008176 -74.93867 
L 526.830393 -77.280107 
L 530.65261 -79.68592 
L 534.474827 -82.17056 
L 538.297044 -84.786664 
L 542.119261 -87.600363 
L 545.941478 -90.644972 
L 549.763695 -93.883839 
L 553.585912 -97.214932 
L 557.408129 -100.512181 
L 561.230346 -103.667161 
L 565.052563 -106.603396 
L 568.87478 -109.26699 
L 572.696997 -111.614525 
L 576.519214 -113.610504 
L 580.341431 -115.230217 
L 584.163647 -116.459602 
L 587.985864 -117.290462 
L 591.808081 -117.715079 
L 595.630298 -117.724291 
L 599.452515 -117.310058 
L 603.274732 -116.469501 
L 607.096949 -115.206959 
L 610.919166 -113.536437 
L 614.741383 -111.488904 
L 618.5636 -109.118706 
L 622.385817 -106.495776 
L 626.208034 -103.683001 
L 630.030251 -100.717766 
L 633.852468 -97.615637 
L 637.674685 -94.392209 
L 641.496902 -91.082573 
L 645.319119 -87.742228 
L 649.141336 -84.430113 
L 652.963552 -81.188016 
L 656.785769 -78.031674 
L 660.607986 -74.958264 
L 664.430203 -71.962151 
L 668.25242 -69.046506 
L 672.074637 -66.224618 
L 675.896854 -63.513918 
L 679.719071 -60.929997 
L 683.541288 -58.485615 
L 687.363505 -56.193884 
L 691.185722 -54.070181 
L 695.007939 -52.128167 
L 698.830156 -50.371947 
L 702.652373 -48.792056 
L 706.47459 -47.370106 
L 710.296807 -46.087844 
L 714.119024 -44.932194 
L 717.94124 -43.893633 
L 721.763457 -42.962856 
L 725.585674 -42.130669 
L 729.407891 -41.390278 
L 733.230108 -40.737773 
L 737.052325 -40.168964 
L 740.874542 -39.674629 
L 744.696759 -39.237866 
L 748.518976 -38.836412 
L 752.341193 -38.450351 
L 756.16341 -38.071912 
L 759.985627 -37.710847 
L 763.807844 -37.390054 
L 767.630061 -37.132862 
L 771.452278 -36.950343 
L 775.274495 -36.836964 
L 779.096712 -36.7757 
L 782.918929 -36.747009 
L 786.741145 -36.735388 
L 790.563362 -36.731323 
L 794.385579 -36.730095 
L 798.207796 -36.729776 
L 802.030013 -36.729704 
L 805.85223 -36.72969 
L 805.85223 -36.72969 
L 805.85223 -36.72969 
L 802.030013 -36.729704 
L 798.207796 -36.729776 
L 794.385579 -36.730095 
L 790.563362 -36.731323 
L 786.741145 -36.735388 
L 782.918929 -36.747009 
L 779.096712 -36.7757 
L 775.274495 -36.836964 
L 771.452278 -36.950343 
L 767.630061 -37.132862 
L 763.807844 -37.390054 
L 759.985627 -37.710847 
L 756.16341 -38.071912 
L 752.341193 -38.450351 
L 748.518976 -38.836412 
L 744.696759 -39.237866 
L 740.874542 -39.674629 
L 737.052325 -40.168964 
L 733.230108 -40.737773 
L 729.407891 -41.390278 
L 725.585674 -42.130669 
L 721.763457 -42.962856 
L 717.94124 -43.893633 
L 714.119024 -44.932194 
L 710.296807 -46.087844 
L 706.47459 -47.370106 
L 702.652373 -48.792056 
L 698.830156 -50.371947 
L 695.007939 -52.128167 
L 691.185722 -54.070181 
L 687.363505 -56.193884 
L 683.541288 -58.485615 
L 679.719071 -60.929997 
L 675.896854 -63.513918 
L 672.074637 -66.224618 
L 668.25242 -69.046506 
L 664.430203 -71.962151 
L 660.607986 -74.958264 
L 656.785769 -78.031674 
L 652.963552 -81.188016 
L 649.141336 -84.430113 
L 645.319119 -87.742229 
L 641.496902 -91.082578 
L 637.674685 -94.392227 
L 633.852468 -97.615707 
L 630.030251 -100.718007 
L 626.208034 -103.683744 
L 622.385817 -106.497822 
L 618.5636 -109.123764 
L 614.741383 -111.500177 
L 610.919166 -113.559169 
L 607.096949 -115.248679 
L 603.274732 -116.539752 
L 599.452515 -117.419748 
L 595.630298 -117.885191 
L 591.808081 -117.940018 
L 587.985864 -117.5942 
L 584.163647 -116.859567 
L 580.341431 -115.746153 
L 576.519214 -114.262966 
L 572.696997 -112.423379 
L 568.87478 -110.251466 
L 565.052563 -107.784211 
L 561.230346 -105.069673 
L 557.408129 -102.168847 
L 553.585912 -99.165885 
L 549.763695 -96.175441 
L 545.941478 -93.326875 
L 542.119261 -90.721735 
L 538.297044 -88.392386 
L 534.474827 -86.298537 
L 530.65261 -84.366952 
L 526.830393 -82.541347 
L 523.008176 -80.810345 
L 519.185959 -79.21533 
L 515.363743 -77.858096 
L 511.541526 -76.907555 
L 507.719309 -76.575719 
L 503.897092 -77.041583 
L 500.074875 -78.356748 
L 496.252658 -80.413126 
L 492.430441 -83.017049 
L 488.608224 -86.013987 
L 484.786007 -89.36102 
L 480.96379 -93.107192 
L 477.141573 -97.329249 
L 473.319356 -102.087364 
L 469.497139 -107.424855 
L 465.674922 -113.395081 
L 461.852705 -120.081124 
L 458.030488 -127.582939 
L 454.208271 -135.978517 
L 450.386054 -145.289315 
L 446.563838 -155.470592 
L 442.741621 -166.425389 
L 438.919404 -178.033718 
L 435.097187 -190.18528 
L 431.27497 -202.794582 
L 427.452753 -215.781332 
L 423.630536 -229.025436 
L 419.808319 -242.331779 
L 415.986102 -255.439483 
L 412.163885 -268.0778 
L 408.341668 -280.025605 
L 404.519451 -291.11529 
L 400.697234 -301.166747 
L 396.875017 -309.913459 
L 393.0528 -317.005201 
L 389.230583 -322.102191 
L 385.408366 -324.988247 
L 381.58615 -325.621141 
L 377.763933 -324.097683 
L 373.941716 -320.561303 
L 370.119499 -315.101071 
L 366.297282 -307.711309 
L 362.475065 -298.368651 
L 358.652848 -287.192221 
L 354.830631 -274.5546 
L 351.008414 -261.030027 
L 347.186197 -247.201159 
L 343.36398 -233.472696 
L 339.541763 -220.03795 
L 335.719546 -206.997252 
L 331.897329 -194.476559 
L 328.075112 -182.61875 
L 324.252895 -171.49089 
L 320.430678 -161.049869 
L 316.608462 -151.226778 
L 312.786245 -142.045683 
L 308.964028 -133.648875 
L 305.141811 -126.194174 
L 301.319594 -119.719486 
L 297.497377 -114.099162 
L 293.67516 -109.119599 
L 289.852943 -104.592445 
L 286.030726 -100.411983 
L 282.208509 -96.535242 
L 278.386292 -92.932283 
L 274.564075 -89.561003 
L 270.741858 -86.376352 
L 266.919641 -83.345733 
L 263.097424 -80.448069 
L 259.275207 -77.663084 
L 255.45299 -74.968465 
L 251.630773 -72.348373 
L 247.808557 -69.801349 
L 243.98634 -67.337569 
L 240.164123 -64.969483 
L 236.341906 -62.70805 
L 232.519689 -60.569152 
L 228.697472 -58.580326 
L 224.875255 -56.774609 
L 221.053038 -55.171538 
L 217.230821 -53.760542 
L 213.408604 -52.501637 
L 209.586387 -51.343013 
L 205.76417 -50.241805 
L 201.941953 -49.175507 
L 198.119736 -48.14193 
L 194.297519 -47.152615 
L 190.475302 -46.224 
L 186.653085 -45.368398 
L 182.830869 -44.587412 
L 179.008652 -43.871206 
L 175.186435 -43.204145 
L 171.364218 -42.572736 
L 167.542001 -41.97071 
L 163.719784 -41.399595 
L 159.897567 -40.866528 
L 156.07535 -40.381198 
L 152.253133 -39.952565 
L 148.430916 -39.5861 
L 144.608699 -39.282565 
L 140.786482 -39.038062 
L 136.964265 -38.843526 
L 133.142048 -38.682902 
L 129.319831 -38.532444 
L 125.497614 -38.365049 
L 121.675397 -38.16046 
L 117.85318 -37.916236 
L 114.030964 -37.65127 
L 110.208747 -37.397692 
L 106.38653 -37.185663 
L 102.564313 -37.031002 
L 98.742096 -36.932545 
L 94.919879 -36.878085 
L 91.097662 -36.852543 
L 87.275445 -36.843061 
L 83.453228 -36.840137 
L 79.631011 -36.836949 
L 75.808794 -36.82905 
L 71.986577 -36.814856 
L 68.16436 -36.795875 
L 64.342143 -36.775698 
L 60.519926 -36.758046 
L 56.697709 -36.745093 
L 52.875492 -36.737035 
L 49.053276 -36.732756 
L 45.231059 -36.730808 
z
" style="stroke: #ffffff"/>
    </defs>
    <g>
     <use xlink:href="#m709e620263" x="0" y="459.729687" style="fill: #c44e52; fill-opacity: 0.75; stroke: #ffffff"/>
    </g>
   </g>
   <g id="FillBetweenPolyCollection_5">
    <defs>
     <path id="maa419adcb3" d="M 45.231059 -36.730808 
L 45.231059 -36.730808 
L 49.053276 -36.732756 
L 52.875492 -36.737035 
L 56.697709 -36.745093 
L 60.519926 -36.758046 
L 64.342143 -36.775698 
L 68.16436 -36.795875 
L 71.986577 -36.814856 
L 75.808794 -36.82905 
L 79.631011 -36.836949 
L 83.453228 -36.840137 
L 87.275445 -36.843061 
L 91.097662 -36.852543 
L 94.919879 -36.878085 
L 98.742096 -36.932545 
L 102.564313 -37.031002 
L 106.38653 -37.185663 
L 110.208747 -37.397692 
L 114.030964 -37.65127 
L 117.85318 -37.916236 
L 121.675397 -38.16046 
L 125.497614 -38.365049 
L 129.319831 -38.532444 
L 133.142048 -38.682902 
L 136.964265 -38.843526 
L 140.786482 -39.038062 
L 144.608699 -39.282565 
L 148.430916 -39.5861 
L 152.253133 -39.952565 
L 156.07535 -40.381198 
L 159.897567 -40.866528 
L 163.719784 -41.399595 
L 167.542001 -41.97071 
L 171.364218 -42.572736 
L 175.186435 -43.204145 
L 179.008652 -43.871206 
L 182.830869 -44.587412 
L 186.653085 -45.368398 
L 190.475302 -46.224 
L 194.297519 -47.152615 
L 198.119736 -48.14193 
L 201.941953 -49.175507 
L 205.76417 -50.241805 
L 209.586387 -51.343013 
L 213.408604 -52.501637 
L 217.230821 -53.760542 
L 221.053038 -55.171538 
L 224.875255 -56.774609 
L 228.697472 -58.580326 
L 232.519689 -60.569152 
L 236.341906 -62.70805 
L 240.164123 -64.969483 
L 243.98634 -67.337569 
L 247.808557 -69.801349 
L 251.630773 -72.348373 
L 255.45299 -74.968465 
L 259.275207 -77.663084 
L 263.097424 -80.448069 
L 266.919641 -83.345733 
L 270.741858 -86.376352 
L 274.564075 -89.561003 
L 278.386292 -92.932283 
L 282.208509 -96.535242 
L 286.030726 -100.411983 
L 289.852943 -104.592445 
L 293.67516 -109.119599 
L 297.497377 -114.099162 
L 301.319594 -119.719486 
L 305.141811 -126.194174 
L 308.964028 -133.648875 
L 312.786245 -142.045683 
L 316.608462 -151.226778 
L 320.430678 -161.049869 
L 324.252895 -171.49089 
L 328.075112 -182.61875 
L 331.897329 -194.476559 
L 335.719546 -206.997252 
L 339.541763 -220.03795 
L 343.36398 -233.472696 
L 347.186197 -247.201159 
L 351.008414 -261.030027 
L 354.830631 -274.5546 
L 358.652848 -287.192221 
L 362.475065 -298.368651 
L 366.297282 -307.711309 
L 370.119499 -315.101071 
L 373.941716 -320.561303 
L 377.763933 -324.097683 
L 381.58615 -325.621141 
L 385.408366 -324.988247 
L 389.230583 -322.102191 
L 393.0528 -317.005201 
L 396.875017 -309.913459 
L 400.697234 -301.166747 
L 404.519451 -291.11529 
L 408.341668 -280.025605 
L 412.163885 -268.0778 
L 415.986102 -255.439483 
L 419.808319 -242.331779 
L 423.630536 -229.025436 
L 427.452753 -215.781332 
L 431.27497 -202.794582 
L 435.097187 -190.18528 
L 438.919404 -178.033718 
L 442.741621 -166.425389 
L 446.563838 -155.470592 
L 450.386054 -145.289315 
L 454.208271 -135.978517 
L 458.030488 -127.582939 
L 461.852705 -120.081124 
L 465.674922 -113.395081 
L 469.497139 -107.424855 
L 473.319356 -102.087364 
L 477.141573 -97.329249 
L 480.96379 -93.107192 
L 484.786007 -89.36102 
L 488.608224 -86.013987 
L 492.430441 -83.017049 
L 496.252658 -80.413126 
L 500.074875 -78.356748 
L 503.897092 -77.041583 
L 507.719309 -76.575719 
L 511.541526 -76.907555 
L 515.363743 -77.858096 
L 519.185959 -79.21533 
L 523.008176 -80.810345 
L 526.830393 -82.541347 
L 530.65261 -84.366952 
L 534.474827 -86.298537 
L 538.297044 -88.392386 
L 542.119261 -90.721735 
L 545.941478 -93.326875 
L 549.763695 -96.175441 
L 553.585912 -99.165885 
L 557.408129 -102.168847 
L 561.230346 -105.069673 
L 565.052563 -107.784211 
L 568.87478 -110.251466 
L 572.696997 -112.423379 
L 576.519214 -114.262966 
L 580.341431 -115.746153 
L 584.163647 -116.859567 
L 587.985864 -117.5942 
L 591.808081 -117.940018 
L 595.630298 -117.885191 
L 599.452515 -117.419748 
L 603.274732 -116.539752 
L 607.096949 -115.248679 
L 610.919166 -113.559169 
L 614.741383 -111.500177 
L 618.5636 -109.123764 
L 622.385817 -106.497822 
L 626.208034 -103.683744 
L 630.030251 -100.718007 
L 633.852468 -97.615707 
L 637.674685 -94.392227 
L 641.496902 -91.082578 
L 645.319119 -87.742229 
L 649.141336 -84.430113 
L 652.963552 -81.188016 
L 656.785769 -78.031674 
L 660.607986 -74.958264 
L 664.430203 -71.962151 
L 668.25242 -69.046506 
L 672.074637 -66.224618 
L 675.896854 -63.513918 
L 679.719071 -60.929997 
L 683.541288 -58.485615 
L 687.363505 -56.193884 
L 691.185722 -54.070181 
L 695.007939 -52.128167 
L 698.830156 -50.371947 
L 702.652373 -48.792056 
L 706.47459 -47.370106 
L 710.296807 -46.087844 
L 714.119024 -44.932194 
L 717.94124 -43.893633 
L 721.763457 -42.962856 
L 725.585674 -42.130669 
L 729.407891 -41.390278 
L 733.230108 -40.737773 
L 737.052325 -40.168964 
L 740.874542 -39.674629 
L 744.696759 -39.237866 
L 748.518976 -38.836412 
L 752.341193 -38.450351 
L 756.16341 -38.071912 
L 759.985627 -37.710847 
L 763.807844 -37.390054 
L 767.630061 -37.132862 
L 771.452278 -36.950343 
L 775.274495 -36.836964 
L 779.096712 -36.7757 
L 782.918929 -36.747009 
L 786.741145 -36.735388 
L 790.563362 -36.731323 
L 794.385579 -36.730095 
L 798.207796 -36.729776 
L 802.030013 -36.729704 
L 805.85223 -36.72969 
L 805.85223 -36.729766 
L 805.85223 -36.729766 
L 802.030013 -36.729853 
L 798.207796 -36.730049 
L 794.385579 -36.730563 
L 790.563362 -36.732072 
L 786.741145 -36.736515 
L 782.918929 -36.748608 
L 779.096712 -36.77785 
L 775.274495 -36.839723 
L 771.452278 -36.953746 
L 767.630061 -37.136925 
L 763.807844 -37.394786 
L 759.985627 -37.716251 
L 756.16341 -38.077995 
L 752.341193 -38.457126 
L 748.518976 -38.843896 
L 744.696759 -39.246083 
L 740.874542 -39.683616 
L 737.052325 -40.178779 
L 733.230108 -40.748526 
L 729.407891 -41.402211 
L 725.585674 -42.144325 
L 721.763457 -42.9794 
L 717.94124 -43.915388 
L 714.119024 -44.9634 
L 710.296807 -46.135588 
L 706.47459 -47.445179 
L 702.652373 -48.909412 
L 698.830156 -50.550376 
L 695.007939 -52.389003 
L 691.185722 -54.435226 
L 687.363505 -56.683089 
L 683.541288 -59.115281 
L 679.719071 -61.712095 
L 675.896854 -64.456675 
L 672.074637 -67.334063 
L 668.25242 -70.32839 
L 664.430203 -73.423716 
L 660.607986 -76.609562 
L 656.785769 -79.886342 
L 652.963552 -83.263491 
L 649.141336 -86.747272 
L 645.319119 -90.324422 
L 641.496902 -93.954154 
L 637.674685 -97.576779 
L 633.852468 -101.134392 
L 630.030251 -104.588345 
L 626.208034 -107.919244 
L 622.385817 -111.108638 
L 618.5636 -114.118356 
L 614.741383 -116.887643 
L 610.919166 -119.351709 
L 607.096949 -121.463648 
L 603.274732 -123.200969 
L 599.452515 -124.558025 
L 595.630298 -125.538208 
L 591.808081 -126.151613 
L 587.985864 -126.412983 
L 584.163647 -126.336813 
L 580.341431 -125.933171 
L 576.519214 -125.208466 
L 572.696997 -124.171487 
L 568.87478 -122.840881 
L 565.052563 -121.248615 
L 561.230346 -119.439194 
L 557.408129 -117.472078 
L 553.585912 -115.431797 
L 549.763695 -113.43455 
L 545.941478 -111.611271 
L 542.119261 -110.064176 
L 538.297044 -108.825173 
L 534.474827 -107.852933 
L 530.65261 -107.073241 
L 526.830393 -106.428561 
L 523.008176 -105.904116 
L 519.185959 -105.532692 
L 515.363743 -105.399448 
L 511.541526 -105.647579 
L 507.719309 -106.456071 
L 503.897092 -107.968192 
L 500.074875 -110.203604 
L 496.252658 -113.032719 
L 492.430441 -116.255484 
L 488.608224 -119.726944 
L 484.786007 -123.426106 
L 480.96379 -127.429515 
L 477.141573 -131.839823 
L 473.319356 -136.736676 
L 469.497139 -142.174909 
L 465.674922 -148.212243 
L 461.852705 -154.930052 
L 458.030488 -162.420675 
L 454.208271 -170.748192 
L 450.386054 -179.914409 
L 446.563838 -189.851936 
L 442.741621 -200.443061 
L 438.919404 -211.55455 
L 435.097187 -223.074618 
L 431.27497 -234.929208 
L 427.452753 -247.059824 
L 423.630536 -259.37297 
L 419.808319 -271.698284 
L 415.986102 -283.792371 
L 412.163885 -295.392385 
L 408.341668 -306.277011 
L 404.519451 -316.274793 
L 400.697234 -325.203515 
L 396.875017 -332.800339 
L 393.0528 -338.72557 
L 389.230583 -342.654633 
L 385.408366 -344.387115 
L 381.58615 -343.893213 
L 377.763933 -341.276988 
L 373.941716 -336.684813 
L 370.119499 -330.206966 
L 366.297282 -321.839706 
L 362.475065 -311.563172 
L 358.652848 -299.500484 
L 354.830631 -286.026644 
L 351.008414 -271.71511 
L 347.186197 -257.144411 
L 343.36398 -242.713193 
L 339.541763 -228.609073 
L 335.719546 -214.929105 
L 331.897329 -201.799278 
L 328.075112 -189.365175 
L 324.252895 -177.69732 
L 320.430678 -166.754553 
L 316.608462 -156.466912 
L 312.786245 -146.854511 
L 308.964028 -138.054426 
L 305.141811 -130.220213 
L 301.319594 -123.387935 
L 297.497377 -117.432437 
L 293.67516 -112.141478 
L 289.852943 -107.327124 
L 286.030726 -102.88209 
L 282.208509 -98.760142 
L 278.386292 -94.92769 
L 274.564075 -91.340059 
L 270.741858 -87.951596 
L 266.919641 -84.730988 
L 263.097424 -81.659526 
L 259.275207 -78.719304 
L 255.45299 -75.889504 
L 251.630773 -73.154464 
L 247.808557 -70.511567 
L 243.98634 -67.968775 
L 240.164123 -65.535673 
L 236.341906 -63.220144 
L 232.519689 -61.0352 
L 228.697472 -59.006048 
L 224.875255 -57.164105 
L 221.053038 -55.527965 
L 217.230821 -54.086556 
L 213.408604 -52.799549 
L 209.586387 -51.61469 
L 205.76417 -50.488492 
L 201.941953 -49.397732 
L 198.119736 -48.339613 
L 194.297519 -47.325378 
L 190.475302 -46.371593 
L 186.653085 -45.491117 
L 182.830869 -44.686371 
L 179.008652 -43.948399 
L 175.186435 -43.262295 
L 171.364218 -42.614997 
L 167.542001 -42.000326 
L 163.719784 -41.419599 
L 159.897567 -40.879542 
L 156.07535 -40.389339 
L 152.253133 -39.957451 
L 148.430916 -39.588904 
L 144.608699 -39.284097 
L 140.786482 -39.038856 
L 136.964265 -38.843914 
L 133.142048 -38.68308 
L 129.319831 -38.53252 
L 125.497614 -38.36508 
L 121.675397 -38.160472 
L 117.85318 -37.91624 
L 114.030964 -37.651271 
L 110.208747 -37.397693 
L 106.38653 -37.185663 
L 102.564313 -37.031002 
L 98.742096 -36.932545 
L 94.919879 -36.878085 
L 91.097662 -36.852543 
L 87.275445 -36.843061 
L 83.453228 -36.840137 
L 79.631011 -36.836949 
L 75.808794 -36.82905 
L 71.986577 -36.814856 
L 68.16436 -36.795875 
L 64.342143 -36.775698 
L 60.519926 -36.758046 
L 56.697709 -36.745093 
L 52.875492 -36.737035 
L 49.053276 -36.732756 
L 45.231059 -36.730808 
z
" style="stroke: #ffffff"/>
    </defs>
    <g>
     <use xlink:href="#maa419adcb3" x="0" y="459.729687" style="fill: #55a868; fill-opacity: 0.75; stroke: #ffffff"/>
    </g>
   </g>
   <g id="FillBetweenPolyCollection_6">
    <defs>
     <path id="m142d841c03" d="M 45.231059 -36.730808 
L 45.231059 -36.730808 
L 49.053276 -36.732756 
L 52.875492 -36.737035 
L 56.697709 -36.745093 
L 60.519926 -36.758046 
L 64.342143 -36.775698 
L 68.16436 -36.795875 
L 71.986577 -36.814856 
L 75.808794 -36.82905 
L 79.631011 -36.836949 
L 83.453228 -36.840137 
L 87.275445 -36.843061 
L 91.097662 -36.852543 
L 94.919879 -36.878085 
L 98.742096 -36.932545 
L 102.564313 -37.031002 
L 106.38653 -37.185663 
L 110.208747 -37.397693 
L 114.030964 -37.651271 
L 117.85318 -37.91624 
L 121.675397 -38.160472 
L 125.497614 -38.36508 
L 129.319831 -38.53252 
L 133.142048 -38.68308 
L 136.964265 -38.843914 
L 140.786482 -39.038856 
L 144.608699 -39.284097 
L 148.430916 -39.588904 
L 152.253133 -39.957451 
L 156.07535 -40.389339 
L 159.897567 -40.879542 
L 163.719784 -41.419599 
L 167.542001 -42.000326 
L 171.364218 -42.614997 
L 175.186435 -43.262295 
L 179.008652 -43.948399 
L 182.830869 -44.686371 
L 186.653085 -45.491117 
L 190.475302 -46.371593 
L 194.297519 -47.325378 
L 198.119736 -48.339613 
L 201.941953 -49.397732 
L 205.76417 -50.488492 
L 209.586387 -51.61469 
L 213.408604 -52.799549 
L 217.230821 -54.086556 
L 221.053038 -55.527965 
L 224.875255 -57.164105 
L 228.697472 -59.006048 
L 232.519689 -61.0352 
L 236.341906 -63.220144 
L 240.164123 -65.535673 
L 243.98634 -67.968775 
L 247.808557 -70.511567 
L 251.630773 -73.154464 
L 255.45299 -75.889504 
L 259.275207 -78.719304 
L 263.097424 -81.659526 
L 266.919641 -84.730988 
L 270.741858 -87.951596 
L 274.564075 -91.340059 
L 278.386292 -94.92769 
L 282.208509 -98.760142 
L 286.030726 -102.88209 
L 289.852943 -107.327124 
L 293.67516 -112.141478 
L 297.497377 -117.432437 
L 301.319594 -123.387935 
L 305.141811 -130.220213 
L 308.964028 -138.054426 
L 312.786245 -146.854511 
L 316.608462 -156.466912 
L 320.430678 -166.754553 
L 324.252895 -177.69732 
L 328.075112 -189.365175 
L 331.897329 -201.799278 
L 335.719546 -214.929105 
L 339.541763 -228.609073 
L 343.36398 -242.713193 
L 347.186197 -257.144411 
L 351.008414 -271.71511 
L 354.830631 -286.026644 
L 358.652848 -299.500484 
L 362.475065 -311.563172 
L 366.297282 -321.839706 
L 370.119499 -330.206966 
L 373.941716 -336.684813 
L 377.763933 -341.276988 
L 381.58615 -343.893213 
L 385.408366 -344.387115 
L 389.230583 -342.654633 
L 393.0528 -338.72557 
L 396.875017 -332.800339 
L 400.697234 -325.203515 
L 404.519451 -316.274793 
L 408.341668 -306.277011 
L 412.163885 -295.392385 
L 415.986102 -283.792371 
L 419.808319 -271.698284 
L 423.630536 -259.37297 
L 427.452753 -247.059824 
L 431.27497 -234.929208 
L 435.097187 -223.074618 
L 438.919404 -211.55455 
L 442.741621 -200.443061 
L 446.563838 -189.851936 
L 450.386054 -179.914409 
L 454.208271 -170.748192 
L 458.030488 -162.420675 
L 461.852705 -154.930052 
L 465.674922 -148.212243 
L 469.497139 -142.174909 
L 473.319356 -136.736676 
L 477.141573 -131.839823 
L 480.96379 -127.429515 
L 484.786007 -123.426106 
L 488.608224 -119.726944 
L 492.430441 -116.255484 
L 496.252658 -113.032719 
L 500.074875 -110.203604 
L 503.897092 -107.968192 
L 507.719309 -106.456071 
L 511.541526 -105.647579 
L 515.363743 -105.399448 
L 519.185959 -105.532692 
L 523.008176 -105.904116 
L 526.830393 -106.428561 
L 530.65261 -107.073241 
L 534.474827 -107.852933 
L 538.297044 -108.825173 
L 542.119261 -110.064176 
L 545.941478 -111.611271 
L 549.763695 -113.43455 
L 553.585912 -115.431797 
L 557.408129 -117.472078 
L 561.230346 -119.439194 
L 565.052563 -121.248615 
L 568.87478 -122.840881 
L 572.696997 -124.171487 
L 576.519214 -125.208466 
L 580.341431 -125.933171 
L 584.163647 -126.336813 
L 587.985864 -126.412983 
L 591.808081 -126.151613 
L 595.630298 -125.538208 
L 599.452515 -124.558025 
L 603.274732 -123.200969 
L 607.096949 -121.463648 
L 610.919166 -119.351709 
L 614.741383 -116.887643 
L 618.5636 -114.118356 
L 622.385817 -111.108638 
L 626.208034 -107.919244 
L 630.030251 -104.588345 
L 633.852468 -101.134392 
L 637.674685 -97.576779 
L 641.496902 -93.954154 
L 645.319119 -90.324422 
L 649.141336 -86.747272 
L 652.963552 -83.263491 
L 656.785769 -79.886342 
L 660.607986 -76.609562 
L 664.430203 -73.423716 
L 668.25242 -70.32839 
L 672.074637 -67.334063 
L 675.896854 -64.456675 
L 679.719071 -61.712095 
L 683.541288 -59.115281 
L 687.363505 -56.683089 
L 691.185722 -54.435226 
L 695.007939 -52.389003 
L 698.830156 -50.550376 
L 702.652373 -48.909412 
L 706.47459 -47.445179 
L 710.296807 -46.135588 
L 714.119024 -44.9634 
L 717.94124 -43.915388 
L 721.763457 -42.9794 
L 725.585674 -42.144325 
L 729.407891 -41.402211 
L 733.230108 -40.748526 
L 737.052325 -40.178779 
L 740.874542 -39.683616 
L 744.696759 -39.246083 
L 748.518976 -38.843896 
L 752.341193 -38.457126 
L 756.16341 -38.077995 
L 759.985627 -37.716251 
L 763.807844 -37.394786 
L 767.630061 -37.136925 
L 771.452278 -36.953746 
L 775.274495 -36.839723 
L 779.096712 -36.77785 
L 782.918929 -36.748608 
L 786.741145 -36.736515 
L 790.563362 -36.732072 
L 794.385579 -36.730563 
L 798.207796 -36.730049 
L 802.030013 -36.729853 
L 805.85223 -36.729766 
L 805.85223 -36.729766 
L 805.85223 -36.729766 
L 802.030013 -36.729853 
L 798.207796 -36.730049 
L 794.385579 -36.730563 
L 790.563362 -36.732072 
L 786.741145 -36.736515 
L 782.918929 -36.748608 
L 779.096712 -36.77785 
L 775.274495 -36.839723 
L 771.452278 -36.953746 
L 767.630061 -37.136925 
L 763.807844 -37.394786 
L 759.985627 -37.716251 
L 756.16341 -38.077995 
L 752.341193 -38.457126 
L 748.518976 -38.843896 
L 744.696759 -39.246084 
L 740.874542 -39.683619 
L 737.052325 -40.178793 
L 733.230108 -40.748582 
L 729.407891 -41.402412 
L 725.585674 -42.144978 
L 721.763457 -42.981308 
L 717.94124 -43.920429 
L 714.119024 -44.975472 
L 710.296807 -46.161847 
L 706.47459 -47.497228 
L 702.652373 -49.003798 
L 698.830156 -50.707772 
L 695.007939 -52.632007 
L 691.185722 -54.785652 
L 687.363505 -57.160396 
L 683.541288 -59.73748 
L 679.719071 -62.499126 
L 675.896854 -65.434605 
L 672.074637 -68.537884 
L 668.25242 -71.802066 
L 664.430203 -75.21753 
L 660.607986 -78.775316 
L 656.785769 -82.470678 
L 652.963552 -86.299993 
L 649.141336 -90.250093 
L 645.319119 -94.288355 
L 641.496902 -98.364847 
L 637.674685 -102.429248 
L 633.852468 -106.451587 
L 630.030251 -110.429939 
L 626.208034 -114.376035 
L 622.385817 -118.286077 
L 618.5636 -122.117659 
L 614.741383 -125.791992 
L 610.919166 -129.220445 
L 607.096949 -132.333311 
L 603.274732 -135.090792 
L 599.452515 -137.47811 
L 595.630298 -139.498781 
L 591.808081 -141.170603 
L 587.985864 -142.518236 
L 584.163647 -143.560725 
L 580.341431 -144.301696 
L 576.519214 -144.730457 
L 572.696997 -144.834518 
L 568.87478 -144.615151 
L 565.052563 -144.094559 
L 561.230346 -143.311397 
L 557.408129 -142.314459 
L 553.585912 -141.165251 
L 549.763695 -139.944431 
L 545.941478 -138.74423 
L 542.119261 -137.639724 
L 538.297044 -136.658944 
L 534.474827 -135.781576 
L 530.65261 -134.970339 
L 526.830393 -134.207181 
L 523.008176 -133.509386 
L 519.185959 -132.931551 
L 515.363743 -132.572848 
L 511.541526 -132.585948 
L 507.719309 -133.155761 
L 503.897092 -134.42692 
L 500.074875 -136.415319 
L 496.252658 -138.984004 
L 492.430441 -141.924729 
L 488.608224 -145.085207 
L 484.786007 -148.437542 
L 480.96379 -152.050905 
L 477.141573 -156.021263 
L 473.319356 -160.425858 
L 469.497139 -165.32456 
L 465.674922 -170.786536 
L 461.852705 -176.904865 
L 458.030488 -183.775835 
L 454.208271 -191.45505 
L 450.386054 -199.925505 
L 446.563838 -209.098849 
L 442.741621 -218.844404 
L 438.919404 -229.030864 
L 435.097187 -239.563402 
L 431.27497 -250.393366 
L 427.452753 -261.48661 
L 423.630536 -272.766021 
L 419.808319 -284.068944 
L 415.986102 -295.155864 
L 412.163885 -305.770104 
L 408.341668 -315.701744 
L 404.519451 -324.794308 
L 400.697234 -332.879808 
L 396.875017 -339.704929 
L 393.0528 -344.933025 
L 389.230583 -348.236576 
L 385.408366 -349.408086 
L 381.58615 -348.408882 
L 377.763933 -345.334661 
L 373.941716 -340.325693 
L 370.119499 -333.469171 
L 366.297282 -324.760728 
L 362.475065 -314.180609 
L 358.652848 -301.850664 
L 354.830631 -288.141923 
L 351.008414 -273.621388 
L 347.186197 -258.860283 
L 343.36398 -244.251224 
L 339.541763 -229.978567 
L 335.719546 -216.139138 
L 331.897329 -202.860842 
L 328.075112 -190.291809 
L 324.252895 -178.504342 
L 320.430678 -167.457546 
L 316.608462 -157.080297 
L 312.786245 -147.390803 
L 308.964028 -138.524246 
L 305.141811 -130.632688 
L 301.319594 -123.751003 
L 297.497377 -117.752856 
L 293.67516 -112.42472 
L 289.852943 -107.577481 
L 286.030726 -103.103092 
L 282.208509 -98.955022 
L 278.386292 -95.099543 
L 274.564075 -91.491584 
L 270.741858 -88.084677 
L 266.919641 -84.84652 
L 263.097424 -81.757696 
L 259.275207 -78.800221 
L 255.45299 -75.953836 
L 251.630773 -73.203763 
L 247.808557 -70.548201 
L 243.98634 -67.995575 
L 240.164123 -65.555507 
L 236.341906 -63.235562 
L 232.519689 -61.048191 
L 228.697472 -59.017916 
L 224.875255 -57.175478 
L 221.053038 -55.538929 
L 217.230821 -54.096886 
L 213.408604 -52.808934 
L 209.586387 -51.622901 
L 205.76417 -50.495436 
L 201.941953 -49.40343 
L 198.119736 -48.344145 
L 194.297519 -47.328853 
L 190.475302 -46.374146 
L 186.653085 -45.492922 
L 182.830869 -44.687634 
L 179.008652 -43.949329 
L 175.186435 -43.26307 
L 171.364218 -42.615741 
L 167.542001 -42.001128 
L 163.719784 -41.420587 
L 159.897567 -40.881012 
L 156.07535 -40.391923 
L 152.253133 -39.962237 
L 148.430916 -39.597406 
L 144.608699 -39.297933 
L 140.786482 -39.059121 
L 136.964265 -38.870462 
L 133.142048 -38.714121 
L 129.319831 -38.564891 
L 125.497614 -38.395181 
L 121.675397 -38.185429 
L 117.85318 -37.934689 
L 114.030964 -37.663431 
L 110.208747 -37.404838 
L 106.38653 -37.189407 
L 102.564313 -37.032751 
L 98.742096 -36.933273 
L 94.919879 -36.878355 
L 91.097662 -36.852632 
L 87.275445 -36.843087 
L 83.453228 -36.840144 
L 79.631011 -36.83695 
L 75.808794 -36.82905 
L 71.986577 -36.814856 
L 68.16436 -36.795875 
L 64.342143 -36.775698 
L 60.519926 -36.758046 
L 56.697709 -36.745093 
L 52.875492 -36.737035 
L 49.053276 -36.732756 
L 45.231059 -36.730808 
z
" style="stroke: #ffffff"/>
    </defs>
    <g>
     <use xlink:href="#m142d841c03" x="0" y="459.729687" style="fill: #dd8452; fill-opacity: 0.75; stroke: #ffffff"/>
    </g>
   </g>
   <g id="FillBetweenPolyCollection_7">
    <defs>
     <path id="ma16978ac52" d="M 45.231059 -36.730808 
L 45.231059 -36.730808 
L 49.053276 -36.732756 
L 52.875492 -36.737035 
L 56.697709 -36.745093 
L 60.519926 -36.758046 
L 64.342143 -36.775698 
L 68.16436 -36.795875 
L 71.986577 -36.814856 
L 75.808794 -36.82905 
L 79.631011 -36.83695 
L 83.453228 -36.840144 
L 87.275445 -36.843087 
L 91.097662 -36.852632 
L 94.919879 -36.878355 
L 98.742096 -36.933273 
L 102.564313 -37.032751 
L 106.38653 -37.189407 
L 110.208747 -37.404838 
L 114.030964 -37.663431 
L 117.85318 -37.934689 
L 121.675397 -38.185429 
L 125.497614 -38.395181 
L 129.319831 -38.564891 
L 133.142048 -38.714121 
L 136.964265 -38.870462 
L 140.786482 -39.059121 
L 144.608699 -39.297933 
L 148.430916 -39.597406 
L 152.253133 -39.962237 
L 156.07535 -40.391923 
L 159.897567 -40.881012 
L 163.719784 -41.420587 
L 167.542001 -42.001128 
L 171.364218 -42.615741 
L 175.186435 -43.26307 
L 179.008652 -43.949329 
L 182.830869 -44.687634 
L 186.653085 -45.492922 
L 190.475302 -46.374146 
L 194.297519 -47.328853 
L 198.119736 -48.344145 
L 201.941953 -49.40343 
L 205.76417 -50.495436 
L 209.586387 -51.622901 
L 213.408604 -52.808934 
L 217.230821 -54.096886 
L 221.053038 -55.538929 
L 224.875255 -57.175478 
L 228.697472 -59.017916 
L 232.519689 -61.048191 
L 236.341906 -63.235562 
L 240.164123 -65.555507 
L 243.98634 -67.995575 
L 247.808557 -70.548201 
L 251.630773 -73.203763 
L 255.45299 -75.953836 
L 259.275207 -78.800221 
L 263.097424 -81.757696 
L 266.919641 -84.84652 
L 270.741858 -88.084677 
L 274.564075 -91.491584 
L 278.386292 -95.099543 
L 282.208509 -98.955022 
L 286.030726 -103.103092 
L 289.852943 -107.577481 
L 293.67516 -112.42472 
L 297.497377 -117.752856 
L 301.319594 -123.751003 
L 305.141811 -130.632688 
L 308.964028 -138.524246 
L 312.786245 -147.390803 
L 316.608462 -157.080297 
L 320.430678 -167.457546 
L 324.252895 -178.504342 
L 328.075112 -190.291809 
L 331.897329 -202.860842 
L 335.719546 -216.139138 
L 339.541763 -229.978567 
L 343.36398 -244.251224 
L 347.186197 -258.860283 
L 351.008414 -273.621388 
L 354.830631 -288.141923 
L 358.652848 -301.850664 
L 362.475065 -314.180609 
L 366.297282 -324.760728 
L 370.119499 -333.469171 
L 373.941716 -340.325693 
L 377.763933 -345.334661 
L 381.58615 -348.408882 
L 385.408366 -349.408086 
L 389.230583 -348.236576 
L 393.0528 -344.933025 
L 396.875017 -339.704929 
L 400.697234 -332.879808 
L 404.519451 -324.794308 
L 408.341668 -315.701744 
L 412.163885 -305.770104 
L 415.986102 -295.155864 
L 419.808319 -284.068944 
L 423.630536 -272.766021 
L 427.452753 -261.48661 
L 431.27497 -250.393366 
L 435.097187 -239.563402 
L 438.919404 -229.030864 
L 442.741621 -218.844404 
L 446.563838 -209.098849 
L 450.386054 -199.925505 
L 454.208271 -191.45505 
L 458.030488 -183.775835 
L 461.852705 -176.904865 
L 465.674922 -170.786536 
L 469.497139 -165.32456 
L 473.319356 -160.425858 
L 477.141573 -156.021263 
L 480.96379 -152.050905 
L 484.786007 -148.437542 
L 488.608224 -145.085207 
L 492.430441 -141.924729 
L 496.252658 -138.984004 
L 500.074875 -136.415319 
L 503.897092 -134.42692 
L 507.719309 -133.155761 
L 511.541526 -132.585948 
L 515.363743 -132.572848 
L 519.185959 -132.931551 
L 523.008176 -133.509386 
L 526.830393 -134.207181 
L 530.65261 -134.970339 
L 534.474827 -135.781576 
L 538.297044 -136.658944 
L 542.119261 -137.639724 
L 545.941478 -138.74423 
L 549.763695 -139.944431 
L 553.585912 -141.165251 
L 557.408129 -142.314459 
L 561.230346 -143.311397 
L 565.052563 -144.094559 
L 568.87478 -144.615151 
L 572.696997 -144.834518 
L 576.519214 -144.730457 
L 580.341431 -144.301696 
L 584.163647 -143.560725 
L 587.985864 -142.518236 
L 591.808081 -141.170603 
L 595.630298 -139.498781 
L 599.452515 -137.47811 
L 603.274732 -135.090792 
L 607.096949 -132.333311 
L 610.919166 -129.220445 
L 614.741383 -125.791992 
L 618.5636 -122.117659 
L 622.385817 -118.286077 
L 626.208034 -114.376035 
L 630.030251 -110.429939 
L 633.852468 -106.451587 
L 637.674685 -102.429248 
L 641.496902 -98.364847 
L 645.319119 -94.288355 
L 649.141336 -90.250093 
L 652.963552 -86.299993 
L 656.785769 -82.470678 
L 660.607986 -78.775316 
L 664.430203 -75.21753 
L 668.25242 -71.802066 
L 672.074637 -68.537884 
L 675.896854 -65.434605 
L 679.719071 -62.499126 
L 683.541288 -59.73748 
L 687.363505 -57.160396 
L 691.185722 -54.785652 
L 695.007939 -52.632007 
L 698.830156 -50.707772 
L 702.652373 -49.003798 
L 706.47459 -47.497228 
L 710.296807 -46.161847 
L 714.119024 -44.975472 
L 717.94124 -43.920429 
L 721.763457 -42.981308 
L 725.585674 -42.144978 
L 729.407891 -41.402412 
L 733.230108 -40.748582 
L 737.052325 -40.178793 
L 740.874542 -39.683619 
L 744.696759 -39.246084 
L 748.518976 -38.843896 
L 752.341193 -38.457126 
L 756.16341 -38.077995 
L 759.985627 -37.716251 
L 763.807844 -37.394786 
L 767.630061 -37.136925 
L 771.452278 -36.953746 
L 775.274495 -36.839723 
L 779.096712 -36.77785 
L 782.918929 -36.748608 
L 786.741145 -36.736515 
L 790.563362 -36.732072 
L 794.385579 -36.730563 
L 798.207796 -36.730049 
L 802.030013 -36.729853 
L 805.85223 -36.729766 
L 805.85223 -36.729766 
L 805.85223 -36.729766 
L 802.030013 -36.729853 
L 798.207796 -36.730049 
L 794.385579 -36.730563 
L 790.563362 -36.732072 
L 786.741145 -36.736515 
L 782.918929 -36.748608 
L 779.096712 -36.77785 
L 775.274495 -36.839723 
L 771.452278 -36.953746 
L 767.630061 -37.136925 
L 763.807844 -37.394786 
L 759.985627 -37.716251 
L 756.16341 -38.077997 
L 752.341193 -38.457133 
L 748.518976 -38.843918 
L 744.696759 -39.246148 
L 740.874542 -39.683794 
L 737.052325 -40.179234 
L 733.230108 -40.749616 
L 729.407891 -41.404665 
L 725.585674 -42.149537 
L 721.763457 -42.989908 
L 717.94124 -43.935571 
L 714.119024 -45.000431 
L 710.296807 -46.200489 
L 706.47459 -47.553652 
L 702.652373 -49.081879 
L 698.830156 -50.810752 
L 695.007939 -52.762281 
L 691.185722 -54.944815 
L 687.363505 -57.349499 
L 683.541288 -59.957394 
L 679.719071 -62.750864 
L 675.896854 -65.719526 
L 672.074637 -68.857806 
L 668.25242 -72.159397 
L 664.430203 -75.615589 
L 660.607986 -79.219112 
L 656.785769 -82.968543 
L 652.963552 -86.866566 
L 649.141336 -90.911145 
L 645.319119 -95.087527 
L 641.496902 -99.371474 
L 637.674685 -103.745189 
L 633.852468 -108.213951 
L 630.030251 -112.806701 
L 626.208034 -117.553349 
L 622.385817 -122.449282 
L 618.5636 -127.431119 
L 614.741383 -132.384196 
L 610.919166 -137.179184 
L 607.096949 -141.711942 
L 603.274732 -145.922596 
L 599.452515 -149.793562 
L 595.630298 -153.340861 
L 591.808081 -156.605293 
L 587.985864 -159.639637 
L 584.163647 -162.491767 
L 580.341431 -165.19207 
L 576.519214 -167.753423 
L 572.696997 -170.183952 
L 568.87478 -172.503578 
L 565.052563 -174.752069 
L 561.230346 -176.984489 
L 557.408129 -179.26346 
L 553.585912 -181.659328 
L 549.763695 -184.254185 
L 545.941478 -187.13287 
L 542.119261 -190.354307 
L 538.297044 -193.922884 
L 534.474827 -197.788834 
L 530.65261 -201.880858 
L 526.830393 -206.142834 
L 523.008176 -210.549955 
L 519.185959 -215.11095 
L 515.363743 -219.876314 
L 511.541526 -224.948885 
L 507.719309 -230.464257 
L 503.897092 -236.519129 
L 500.074875 -243.08249 
L 496.252658 -249.970385 
L 492.430441 -256.926705 
L 488.608224 -263.751168 
L 484.786007 -270.370368 
L 480.96379 -276.814092 
L 477.141573 -283.148136 
L 473.319356 -289.429861 
L 469.497139 -295.708398 
L 465.674922 -302.04909 
L 461.852705 -308.546621 
L 458.030488 -315.304825 
L 454.208271 -322.3951 
L 450.386054 -329.827032 
L 446.563838 -337.550545 
L 442.741621 -345.483078 
L 438.919404 -353.54719 
L 435.097187 -361.702916 
L 431.27497 -369.953796 
L 427.452753 -378.313358 
L 423.630536 -386.746954 
L 419.808319 -395.128037 
L 415.986102 -403.24359 
L 412.163885 -410.847646 
L 408.341668 -417.716702 
L 404.519451 -423.647823 
L 400.697234 -428.389231 
L 396.875017 -431.571606 
L 393.0528 -432.729688 
L 389.230583 -431.4294 
L 385.408366 -427.421345 
L 381.58615 -420.725018 
L 377.763933 -411.605006 
L 373.941716 -400.456573 
L 370.119499 -387.652614 
L 366.297282 -373.438438 
L 362.475065 -357.955054 
L 358.652848 -341.375034 
L 354.830631 -324.023096 
L 351.008414 -306.35821 
L 347.186197 -288.822015 
L 343.36398 -271.687394 
L 339.541763 -255.046074 
L 335.719546 -238.934183 
L 331.897329 -223.447902 
L 328.075112 -208.726227 
L 324.252895 -194.847808 
L 320.430678 -181.787137 
L 316.608462 -169.492517 
L 312.786245 -158.002259 
L 308.964028 -147.470333 
L 305.141811 -138.064956 
L 301.319594 -129.833234 
L 297.497377 -122.655699 
L 293.67516 -116.319219 
L 289.852943 -110.628439 
L 286.030726 -105.463511 
L 282.208509 -100.762446 
L 278.386292 -96.474348 
L 274.564075 -92.536638 
L 270.741858 -88.885669 
L 266.919641 -85.472592 
L 263.097424 -82.262402 
L 259.275207 -79.223033 
L 255.45299 -76.322242 
L 251.630773 -73.535793 
L 247.808557 -70.854986 
L 243.98634 -68.283577 
L 240.164123 -65.828177 
L 236.341906 -63.494421 
L 232.519689 -61.293506 
L 228.697472 -59.249165 
L 224.875255 -57.391783 
L 221.053038 -55.739454 
L 217.230821 -54.281148 
L 213.408604 -52.976938 
L 209.586387 -51.775082 
L 205.76417 -50.632481 
L 201.941953 -49.526089 
L 198.119736 -48.453111 
L 194.297519 -47.424731 
L 190.475302 -46.457489 
L 186.653085 -45.56427 
L 182.830869 -44.747558 
L 179.008652 -43.998471 
L 175.186435 -43.302192 
L 171.364218 -42.64578 
L 167.542001 -42.023226 
L 163.719784 -41.436063 
L 159.897567 -40.891276 
L 156.07535 -40.398341 
L 152.253133 -39.96601 
L 148.430916 -39.599488 
L 144.608699 -39.299012 
L 140.786482 -39.059647 
L 136.964265 -38.870704 
L 133.142048 -38.714227 
L 129.319831 -38.564935 
L 125.497614 -38.395199 
L 121.675397 -38.185436 
L 117.85318 -37.934692 
L 114.030964 -37.663432 
L 110.208747 -37.404839 
L 106.38653 -37.189407 
L 102.564313 -37.032751 
L 98.742096 -36.933273 
L 94.919879 -36.878355 
L 91.097662 -36.852632 
L 87.275445 -36.843087 
L 83.453228 -36.840144 
L 79.631011 -36.83695 
L 75.808794 -36.82905 
L 71.986577 -36.814856 
L 68.16436 -36.795875 
L 64.342143 -36.775698 
L 60.519926 -36.758046 
L 56.697709 -36.745093 
L 52.875492 -36.737035 
L 49.053276 -36.732756 
L 45.231059 -36.730808 
z
" style="stroke: #ffffff"/>
    </defs>
    <g>
     <use xlink:href="#ma16978ac52" x="0" y="459.729687" style="fill: #4c72b0; fill-opacity: 0.75; stroke: #ffffff"/>
    </g>
   </g>
   <g id="line2d_38">
    <path d="M 326.689694 423 
L 326.689694 7.2 
" style="fill: none; stroke-dasharray: 2.96,1.28; stroke-dashoffset: 0; stroke: #d3d3d3; stroke-width: 0.8"/>
   </g>
   <g id="line2d_39">
    <path d="M 502.914523 423 
L 502.914523 7.2 
" style="fill: none; stroke-dasharray: 2.96,1.28; stroke-dashoffset: 0; stroke: #d3d3d3; stroke-width: 0.8"/>
   </g>
   <g id="line2d_40">
    <path d="M 427.958872 423 
L 427.958872 7.2 
" style="fill: none; stroke-dasharray: 2.96,1.28; stroke-dashoffset: 0; stroke: #d3d3d3; stroke-width: 0.8"/>
   </g>
   <g id="line2d_41">
    <path d="M 7.2 423 
L 844.2 423 
" style="fill: none; stroke: #808080; stroke-width: 0.5; stroke-linecap: round"/>
   </g>
   <g id="text_12">
    <text style="font-size: 8px; font-family: 'Arial', 'DejaVu Sans', 'Liberation Sans', 'Bitstream Vera Sans', sans-serif; fill: #808080" transform="translate(332.943444 126.53675) rotate(-90)">International Poverty Line: $3.00</text>
   </g>
   <g id="text_13">
    <text style="font-size: 8px; font-family: 'Arial', 'DejaVu Sans', 'Liberation Sans', 'Bitstream Vera Sans', sans-serif; fill: #808080" transform="translate(508.640773 83.25175) rotate(-90)">World mean: $21.69</text>
   </g>
   <g id="text_14">
    <text style="font-size: 8px; font-family: 'Arial', 'DejaVu Sans', 'Liberation Sans', 'Bitstream Vera Sans', sans-serif; fill: #808080" transform="translate(433.685122 85.02925) rotate(-90)">World median: $9.35</text>
   </g>
   <g id="legend_1">
    <g id="patch_3">
     <path d="M 683.8 212.006875 
L 861.440625 212.006875 
Q 863.440625 212.006875 863.440625 210.006875 
L 863.440625 97.36 
Q 863.440625 95.36 861.440625 95.36 
L 683.8 95.36 
Q 681.8 95.36 681.8 97.36 
L 681.8 210.006875 
Q 681.8 212.006875 683.8 212.006875 
z
" style="fill: #ffffff; opacity: 0.8; stroke: #cccccc; stroke-linejoin: miter"/>
    </g>
    <g id="text_15">
     <text style="font-size: 10px; font-family: 'Arial', 'DejaVu Sans', 'Liberation Sans', 'Bitstream Vera Sans', sans-serif; text-anchor: start; fill: #262626" x="756.776563" y="106.517812" transform="rotate(-0 756.776563 106.517812)">Region</text>
    </g>
    <g id="patch_4">
     <path d="M 685.8 120.780312 
L 705.8 120.780312 
L 705.8 113.780312 
L 685.8 113.780312 
z
" style="fill: #4c72b0; fill-opacity: 0.75; stroke: #ffffff; stroke-linejoin: miter"/>
    </g>
    <g id="text_16">
     <text style="font-size: 10px; font-family: 'Arial', 'DejaVu Sans', 'Liberation Sans', 'Bitstream Vera Sans', sans-serif; text-anchor: start; fill: #262626" x="713.8" y="120.780312" transform="rotate(-0 713.8 120.780312)">East Asia and Pacific</text>
    </g>
    <g id="patch_5">
     <path d="M 685.8 135.0475 
L 705.8 135.0475 
L 705.8 128.0475 
L 685.8 128.0475 
z
" style="fill: #dd8452; fill-opacity: 0.75; stroke: #ffffff; stroke-linejoin: miter"/>
    </g>
    <g id="text_17">
     <text style="font-size: 10px; font-family: 'Arial', 'DejaVu Sans', 'Liberation Sans', 'Bitstream Vera Sans', sans-serif; text-anchor: start; fill: #262626" x="713.8" y="135.0475" transform="rotate(-0 713.8 135.0475)">Europe and Central Asia</text>
    </g>
    <g id="patch_6">
     <path d="M 685.8 149.192812 
L 705.8 149.192812 
L 705.8 142.192812 
L 685.8 142.192812 
z
" style="fill: #55a868; fill-opacity: 0.75; stroke: #ffffff; stroke-linejoin: miter"/>
    </g>
    <g id="text_18">
     <text style="font-size: 10px; font-family: 'Arial', 'DejaVu Sans', 'Liberation Sans', 'Bitstream Vera Sans', sans-serif; text-anchor: start; fill: #262626" x="713.8" y="149.192812" transform="rotate(-0 713.8 149.192812)">Latin America and the Caribbean</text>
    </g>
    <g id="patch_7">
     <path d="M 685.8 163.338125 
L 705.8 163.338125 
L 705.8 156.338125 
L 685.8 156.338125 
z
" style="fill: #c44e52; fill-opacity: 0.75; stroke: #ffffff; stroke-linejoin: miter"/>
    </g>
    <g id="text_19">
     <text style="font-size: 10px; font-family: 'Arial', 'DejaVu Sans', 'Liberation Sans', 'Bitstream Vera Sans', sans-serif; text-anchor: start; fill: #262626" x="713.8" y="163.338125" transform="rotate(-0 713.8 163.338125)">Middle East and North Africa</text>
    </g>
    <g id="patch_8">
     <path d="M 685.8 177.611562 
L 705.8 177.611562 
L 705.8 170.611562 
L 685.8 170.611562 
z
" style="fill: #8172b3; fill-opacity: 0.75; stroke: #ffffff; stroke-linejoin: miter"/>
    </g>
    <g id="text_20">
     <text style="font-size: 10px; font-family: 'Arial', 'DejaVu Sans', 'Liberation Sans', 'Bitstream Vera Sans', sans-serif; text-anchor: start; fill: #262626" x="713.8" y="177.611562" transform="rotate(-0 713.8 177.611562)">Other high income countries</text>
    </g>
    <g id="patch_9">
     <path d="M 685.8 191.874062 
L 705.8 191.874062 
L 705.8 184.874062 
L 685.8 184.874062 
z
" style="fill: #937860; fill-opacity: 0.75; stroke: #ffffff; stroke-linejoin: miter"/>
    </g>
    <g id="text_21">
     <text style="font-size: 10px; font-family: 'Arial', 'DejaVu Sans', 'Liberation Sans', 'Bitstream Vera Sans', sans-serif; text-anchor: start; fill: #262626" x="713.8" y="191.874062" transform="rotate(-0 713.8 191.874062)">South Asia</text>
    </g>
    <g id="patch_10">
     <path d="M 685.8 206.019375 
L 705.8 206.019375 
L 705.8 199.019375 
L 685.8 199.019375 
z
" style="fill: #da8bc3; fill-opacity: 0.75; stroke: #ffffff; stroke-linejoin: miter"/>
    </g>
    <g id="text_22">
     <text style="font-size: 10px; font-family: 'Arial', 'DejaVu Sans', 'Liberation Sans', 'Bitstream Vera Sans', sans-serif; text-anchor: start; fill: #262626" x="713.8" y="206.019375" transform="rotate(-0 713.8 206.019375)">Sub-Saharan Africa</text>
    </g>
   </g>
  </g>
 </g>
</svg>
