<?xml version="1.0" encoding="utf-8" standalone="no"?>
<!DOCTYPE svg PUBLIC "-//W3C//DTD SVG 1.1//EN"
  "http://www.w3.org/Graphics/SVG/1.1/DTD/svg11.dtd">
<svg xmlns:xlink="http://www.w3.org/1999/xlink" width="953.453125pt" height="459.729687pt" viewBox="0 0 953.453125 459.729687" xmlns="http://www.w3.org/2000/svg" version="1.1">
 <metadata>
  <rdf:RDF xmlns:dc="http://purl.org/dc/elements/1.1/" xmlns:cc="http://creativecommons.org/ns#" xmlns:rdf="http://www.w3.org/1999/02/22-rdf-syntax-ns#">
   <cc:Work>
    <dc:type rdf:resource="http://purl.org/dc/dcmitype/StillImage"/>
    <dc:date>2026-01-02T17:38:48.179402</dc:date>
    <dc:format>image/svg+xml</dc:format>
    <dc:creator>
     <cc:Agent>
      <dc:title>Matplotlib v3.10.1, https://matplotlib.org/</dc:title>
     </cc:Agent>
    </dc:creator>
   </cc:Work>
  </rdf:RDF>
 </metadata>
 <defs>
  <style type="text/css">*{stroke-linejoin: round; stroke-linecap: butt}</style>
 </defs>
 <g id="figure_1">
  <g id="patch_1">
   <path d="M 0 459.729687 
L 953.453125 459.729687 
L 953.453125 0 
L 0 0 
z
" style="fill: #ffffff"/>
  </g>
  <g id="axes_1">
   <g id="patch_2">
    <path d="M 7.2 423 
L 844.2 423 
L 844.2 7.2 
L 7.2 7.2 
z
" style="fill: #ffffff"/>
   </g>
   <g id="matplotlib.axis_1">
    <g id="xtick_1">
     <g id="line2d_1">
      <defs>
       <path id="m820442523c" d="M 0 0 
L 0 3.5 
" style="stroke: #262626; stroke-width: 0.8"/>
      </defs>
      <g>
       <use xlink:href="#m820442523c" x="190.256816" y="423" style="fill: #262626; stroke: #262626; stroke-width: 0.8"/>
      </g>
     </g>
     <g id="text_1">
      <text style="font-size: 10px; font-family: 'Arial', 'DejaVu Sans', 'Liberation Sans', 'Bitstream Vera Sans', sans-serif; text-anchor: middle; fill: #262626" x="190.256816" y="437.157812" transform="rotate(-0 190.256816 437.157812)">$1</text>
     </g>
    </g>
    <g id="xtick_2">
     <g id="line2d_2">
      <g>
       <use xlink:href="#m820442523c" x="253.418145" y="423" style="fill: #262626; stroke: #262626; stroke-width: 0.8"/>
      </g>
     </g>
     <g id="text_2">
      <text style="font-size: 10px; font-family: 'Arial', 'DejaVu Sans', 'Liberation Sans', 'Bitstream Vera Sans', sans-serif; text-anchor: middle; fill: #262626" x="253.418145" y="437.157812" transform="rotate(-0 253.418145 437.157812)">$2</text>
     </g>
    </g>
    <g id="xtick_3">
     <g id="line2d_3">
      <g>
       <use xlink:href="#m820442523c" x="336.91288" y="423" style="fill: #262626; stroke: #262626; stroke-width: 0.8"/>
      </g>
     </g>
     <g id="text_3">
      <text style="font-size: 10px; font-family: 'Arial', 'DejaVu Sans', 'Liberation Sans', 'Bitstream Vera Sans', sans-serif; text-anchor: middle; fill: #262626" x="336.91288" y="437.157812" transform="rotate(-0 336.91288 437.157812)">$5</text>
     </g>
    </g>
    <g id="xtick_4">
     <g id="line2d_4">
      <g>
       <use xlink:href="#m820442523c" x="400.074209" y="423" style="fill: #262626; stroke: #262626; stroke-width: 0.8"/>
      </g>
     </g>
     <g id="text_4">
      <text style="font-size: 10px; font-family: 'Arial', 'DejaVu Sans', 'Liberation Sans', 'Bitstream Vera Sans', sans-serif; text-anchor: middle; fill: #262626" x="400.074209" y="437.157812" transform="rotate(-0 400.074209 437.157812)">$10</text>
     </g>
    </g>
    <g id="xtick_5">
     <g id="line2d_5">
      <g>
       <use xlink:href="#m820442523c" x="463.235538" y="423" style="fill: #262626; stroke: #262626; stroke-width: 0.8"/>
      </g>
     </g>
     <g id="text_5">
      <text style="font-size: 10px; font-family: 'Arial', 'DejaVu Sans', 'Liberation Sans', 'Bitstream Vera Sans', sans-serif; text-anchor: middle; fill: #262626" x="463.235538" y="437.157812" transform="rotate(-0 463.235538 437.157812)">$20</text>
     </g>
    </g>
    <g id="xtick_6">
     <g id="line2d_6">
      <g>
       <use xlink:href="#m820442523c" x="546.730273" y="423" style="fill: #262626; stroke: #262626; stroke-width: 0.8"/>
      </g>
     </g>
     <g id="text_6">
      <text style="font-size: 10px; font-family: 'Arial', 'DejaVu Sans', 'Liberation Sans', 'Bitstream Vera Sans', sans-serif; text-anchor: middle; fill: #262626" x="546.730273" y="437.157812" transform="rotate(-0 546.730273 437.157812)">$50</text>
     </g>
    </g>
    <g id="xtick_7">
     <g id="line2d_7">
      <g>
       <use xlink:href="#m820442523c" x="609.891601" y="423" style="fill: #262626; stroke: #262626; stroke-width: 0.8"/>
      </g>
     </g>
     <g id="text_7">
      <text style="font-size: 10px; font-family: 'Arial', 'DejaVu Sans', 'Liberation Sans', 'Bitstream Vera Sans', sans-serif; text-anchor: middle; fill: #262626" x="609.891601" y="437.157812" transform="rotate(-0 609.891601 437.157812)">$100</text>
     </g>
    </g>
    <g id="xtick_8">
     <g id="line2d_8">
      <g>
       <use xlink:href="#m820442523c" x="673.05293" y="423" style="fill: #262626; stroke: #262626; stroke-width: 0.8"/>
      </g>
     </g>
     <g id="text_8">
      <text style="font-size: 10px; font-family: 'Arial', 'DejaVu Sans', 'Liberation Sans', 'Bitstream Vera Sans', sans-serif; text-anchor: middle; fill: #262626" x="673.05293" y="437.157812" transform="rotate(-0 673.05293 437.157812)">$200</text>
     </g>
    </g>
    <g id="xtick_9">
     <g id="line2d_9">
      <g>
       <use xlink:href="#m820442523c" x="756.547665" y="423" style="fill: #262626; stroke: #262626; stroke-width: 0.8"/>
      </g>
     </g>
     <g id="text_9">
      <text style="font-size: 10px; font-family: 'Arial', 'DejaVu Sans', 'Liberation Sans', 'Bitstream Vera Sans', sans-serif; text-anchor: middle; fill: #262626" x="756.547665" y="437.157812" transform="rotate(-0 756.547665 437.157812)">$500</text>
     </g>
    </g>
    <g id="xtick_10">
     <g id="line2d_10">
      <g>
       <use xlink:href="#m820442523c" x="819.708994" y="423" style="fill: #262626; stroke: #262626; stroke-width: 0.8"/>
      </g>
     </g>
     <g id="text_10">
      <text style="font-size: 10px; font-family: 'Arial', 'DejaVu Sans', 'Liberation Sans', 'Bitstream Vera Sans', sans-serif; text-anchor: middle; fill: #262626" x="819.708994" y="437.157812" transform="rotate(-0 819.708994 437.157812)">$1000</text>
     </g>
    </g>
    <g id="xtick_11">
     <g id="line2d_11">
      <defs>
       <path id="m8bd5db87c7" d="M 0 0 
L 0 2 
" style="stroke: #262626; stroke-width: 0.6"/>
      </defs>
      <g>
       <use xlink:href="#m8bd5db87c7" x="43.600753" y="423" style="fill: #262626; stroke: #262626; stroke-width: 0.6"/>
      </g>
     </g>
    </g>
    <g id="xtick_12">
     <g id="line2d_12">
      <g>
       <use xlink:href="#m8bd5db87c7" x="80.547761" y="423" style="fill: #262626; stroke: #262626; stroke-width: 0.6"/>
      </g>
     </g>
    </g>
    <g id="xtick_13">
     <g id="line2d_13">
      <g>
       <use xlink:href="#m8bd5db87c7" x="106.762081" y="423" style="fill: #262626; stroke: #262626; stroke-width: 0.6"/>
      </g>
     </g>
    </g>
    <g id="xtick_14">
     <g id="line2d_14">
      <g>
       <use xlink:href="#m8bd5db87c7" x="127.095488" y="423" style="fill: #262626; stroke: #262626; stroke-width: 0.6"/>
      </g>
     </g>
    </g>
    <g id="xtick_15">
     <g id="line2d_15">
      <g>
       <use xlink:href="#m8bd5db87c7" x="143.70909" y="423" style="fill: #262626; stroke: #262626; stroke-width: 0.6"/>
      </g>
     </g>
    </g>
    <g id="xtick_16">
     <g id="line2d_16">
      <g>
       <use xlink:href="#m8bd5db87c7" x="157.755691" y="423" style="fill: #262626; stroke: #262626; stroke-width: 0.6"/>
      </g>
     </g>
    </g>
    <g id="xtick_17">
     <g id="line2d_17">
      <g>
       <use xlink:href="#m8bd5db87c7" x="169.92341" y="423" style="fill: #262626; stroke: #262626; stroke-width: 0.6"/>
      </g>
     </g>
    </g>
    <g id="xtick_18">
     <g id="line2d_18">
      <g>
       <use xlink:href="#m8bd5db87c7" x="180.656099" y="423" style="fill: #262626; stroke: #262626; stroke-width: 0.6"/>
      </g>
     </g>
    </g>
    <g id="xtick_19">
     <g id="line2d_19">
      <g>
       <use xlink:href="#m8bd5db87c7" x="290.365154" y="423" style="fill: #262626; stroke: #262626; stroke-width: 0.6"/>
      </g>
     </g>
    </g>
    <g id="xtick_20">
     <g id="line2d_20">
      <g>
       <use xlink:href="#m8bd5db87c7" x="316.579474" y="423" style="fill: #262626; stroke: #262626; stroke-width: 0.6"/>
      </g>
     </g>
    </g>
    <g id="xtick_21">
     <g id="line2d_21">
      <g>
       <use xlink:href="#m8bd5db87c7" x="353.526483" y="423" style="fill: #262626; stroke: #262626; stroke-width: 0.6"/>
      </g>
     </g>
    </g>
    <g id="xtick_22">
     <g id="line2d_22">
      <g>
       <use xlink:href="#m8bd5db87c7" x="367.573084" y="423" style="fill: #262626; stroke: #262626; stroke-width: 0.6"/>
      </g>
     </g>
    </g>
    <g id="xtick_23">
     <g id="line2d_23">
      <g>
       <use xlink:href="#m8bd5db87c7" x="379.740803" y="423" style="fill: #262626; stroke: #262626; stroke-width: 0.6"/>
      </g>
     </g>
    </g>
    <g id="xtick_24">
     <g id="line2d_24">
      <g>
       <use xlink:href="#m8bd5db87c7" x="390.473492" y="423" style="fill: #262626; stroke: #262626; stroke-width: 0.6"/>
      </g>
     </g>
    </g>
    <g id="xtick_25">
     <g id="line2d_25">
      <g>
       <use xlink:href="#m8bd5db87c7" x="500.182546" y="423" style="fill: #262626; stroke: #262626; stroke-width: 0.6"/>
      </g>
     </g>
    </g>
    <g id="xtick_26">
     <g id="line2d_26">
      <g>
       <use xlink:href="#m8bd5db87c7" x="526.396866" y="423" style="fill: #262626; stroke: #262626; stroke-width: 0.6"/>
      </g>
     </g>
    </g>
    <g id="xtick_27">
     <g id="line2d_27">
      <g>
       <use xlink:href="#m8bd5db87c7" x="563.343875" y="423" style="fill: #262626; stroke: #262626; stroke-width: 0.6"/>
      </g>
     </g>
    </g>
    <g id="xtick_28">
     <g id="line2d_28">
      <g>
       <use xlink:href="#m8bd5db87c7" x="577.390476" y="423" style="fill: #262626; stroke: #262626; stroke-width: 0.6"/>
      </g>
     </g>
    </g>
    <g id="xtick_29">
     <g id="line2d_29">
      <g>
       <use xlink:href="#m8bd5db87c7" x="589.558195" y="423" style="fill: #262626; stroke: #262626; stroke-width: 0.6"/>
      </g>
     </g>
    </g>
    <g id="xtick_30">
     <g id="line2d_30">
      <g>
       <use xlink:href="#m8bd5db87c7" x="600.290884" y="423" style="fill: #262626; stroke: #262626; stroke-width: 0.6"/>
      </g>
     </g>
    </g>
    <g id="xtick_31">
     <g id="line2d_31">
      <g>
       <use xlink:href="#m8bd5db87c7" x="709.999939" y="423" style="fill: #262626; stroke: #262626; stroke-width: 0.6"/>
      </g>
     </g>
    </g>
    <g id="xtick_32">
     <g id="line2d_32">
      <g>
       <use xlink:href="#m8bd5db87c7" x="736.214259" y="423" style="fill: #262626; stroke: #262626; stroke-width: 0.6"/>
      </g>
     </g>
    </g>
    <g id="xtick_33">
     <g id="line2d_33">
      <g>
       <use xlink:href="#m8bd5db87c7" x="773.161268" y="423" style="fill: #262626; stroke: #262626; stroke-width: 0.6"/>
      </g>
     </g>
    </g>
    <g id="xtick_34">
     <g id="line2d_34">
      <g>
       <use xlink:href="#m8bd5db87c7" x="787.207869" y="423" style="fill: #262626; stroke: #262626; stroke-width: 0.6"/>
      </g>
     </g>
    </g>
    <g id="xtick_35">
     <g id="line2d_35">
      <g>
       <use xlink:href="#m8bd5db87c7" x="799.375588" y="423" style="fill: #262626; stroke: #262626; stroke-width: 0.6"/>
      </g>
     </g>
    </g>
    <g id="xtick_36">
     <g id="line2d_36">
      <g>
       <use xlink:href="#m8bd5db87c7" x="810.108277" y="423" style="fill: #262626; stroke: #262626; stroke-width: 0.6"/>
      </g>
     </g>
    </g>
    <g id="text_11">
     <text style="font-size: 10px; font-family: 'Arial', 'DejaVu Sans', 'Liberation Sans', 'Bitstream Vera Sans', sans-serif; text-anchor: middle; fill: #262626" x="425.7" y="450.425" transform="rotate(-0 425.7 450.425)">Income or consumption (day)</text>
    </g>
   </g>
   <g id="matplotlib.axis_2"/>
   <g id="FillBetweenPolyCollection_1">
    <defs>
     <path id="m0770583447" d="M 45.245455 -36.73661 
L 45.245455 -36.729687 
L 49.069118 -36.729687 
L 52.892782 -36.729687 
L 56.716446 -36.729687 
L 60.54011 -36.729687 
L 64.363773 -36.729687 
L 68.187437 -36.729687 
L 72.011101 -36.729687 
L 75.834765 -36.729687 
L 79.658429 -36.729687 
L 83.482092 -36.729687 
L 87.305756 -36.729687 
L 91.12942 -36.729687 
L 94.953084 -36.729687 
L 98.776747 -36.729687 
L 102.600411 -36.729687 
L 106.424075 -36.729687 
L 110.247739 -36.729687 
L 114.071402 -36.729687 
L 117.895066 -36.729687 
L 121.71873 -36.729687 
L 125.542394 -36.729687 
L 129.366058 -36.729687 
L 133.189721 -36.729687 
L 137.013385 -36.729687 
L 140.837049 -36.729687 
L 144.660713 -36.729687 
L 148.484376 -36.729687 
L 152.30804 -36.729687 
L 156.131704 -36.729687 
L 159.955368 -36.729687 
L 163.779032 -36.729687 
L 167.602695 -36.729687 
L 171.426359 -36.729687 
L 175.250023 -36.729687 
L 179.073687 -36.729687 
L 182.89735 -36.729687 
L 186.721014 -36.729687 
L 190.544678 -36.729687 
L 194.368342 -36.729687 
L 198.192005 -36.729687 
L 202.015669 -36.729687 
L 205.839333 -36.729687 
L 209.662997 -36.729687 
L 213.486661 -36.729687 
L 217.310324 -36.729687 
L 221.133988 -36.729687 
L 224.957652 -36.729687 
L 228.781316 -36.729687 
L 232.604979 -36.729687 
L 236.428643 -36.729687 
L 240.252307 -36.729687 
L 244.075971 -36.729687 
L 247.899635 -36.729687 
L 251.723298 -36.729687 
L 255.546962 -36.729687 
L 259.370626 -36.729687 
L 263.19429 -36.729687 
L 267.017953 -36.729687 
L 270.841617 -36.729687 
L 274.665281 -36.729687 
L 278.488945 -36.729687 
L 282.312608 -36.729687 
L 286.136272 -36.729687 
L 289.959936 -36.729687 
L 293.7836 -36.729687 
L 297.607264 -36.729687 
L 301.430927 -36.729687 
L 305.254591 -36.729687 
L 309.078255 -36.729687 
L 312.901919 -36.729687 
L 316.725582 -36.729687 
L 320.549246 -36.729687 
L 324.37291 -36.729687 
L 328.196574 -36.729687 
L 332.020238 -36.729687 
L 335.843901 -36.729687 
L 339.667565 -36.729687 
L 343.491229 -36.729687 
L 347.314893 -36.729687 
L 351.138556 -36.729687 
L 354.96222 -36.729687 
L 358.785884 -36.729687 
L 362.609548 -36.729687 
L 366.433212 -36.729687 
L 370.256875 -36.729687 
L 374.080539 -36.729687 
L 377.904203 -36.729687 
L 381.727867 -36.729687 
L 385.55153 -36.729687 
L 389.375194 -36.729687 
L 393.198858 -36.729687 
L 397.022522 -36.729687 
L 400.846185 -36.729687 
L 404.669849 -36.729687 
L 408.493513 -36.729687 
L 412.317177 -36.729687 
L 416.140841 -36.729687 
L 419.964504 -36.729687 
L 423.788168 -36.729687 
L 427.611832 -36.729687 
L 431.435496 -36.729687 
L 435.259159 -36.729687 
L 439.082823 -36.729687 
L 442.906487 -36.729687 
L 446.730151 -36.729687 
L 450.553815 -36.729687 
L 454.377478 -36.729687 
L 458.201142 -36.729687 
L 462.024806 -36.729687 
L 465.84847 -36.729687 
L 469.672133 -36.729687 
L 473.495797 -36.729687 
L 477.319461 -36.729687 
L 481.143125 -36.729687 
L 484.966788 -36.729687 
L 488.790452 -36.729687 
L 492.614116 -36.729687 
L 496.43778 -36.729687 
L 500.261444 -36.729687 
L 504.085107 -36.729687 
L 507.908771 -36.729687 
L 511.732435 -36.729687 
L 515.556099 -36.729687 
L 519.379762 -36.729687 
L 523.203426 -36.729687 
L 527.02709 -36.729687 
L 530.850754 -36.729687 
L 534.674418 -36.729687 
L 538.498081 -36.729687 
L 542.321745 -36.729687 
L 546.145409 -36.729687 
L 549.969073 -36.729687 
L 553.792736 -36.729687 
L 557.6164 -36.729687 
L 561.440064 -36.729687 
L 565.263728 -36.729687 
L 569.087392 -36.729687 
L 572.911055 -36.729687 
L 576.734719 -36.729687 
L 580.558383 -36.729687 
L 584.382047 -36.729687 
L 588.20571 -36.729687 
L 592.029374 -36.729687 
L 595.853038 -36.729687 
L 599.676702 -36.729687 
L 603.500365 -36.729687 
L 607.324029 -36.729687 
L 611.147693 -36.729687 
L 614.971357 -36.729687 
L 618.795021 -36.729687 
L 622.618684 -36.729687 
L 626.442348 -36.729687 
L 630.266012 -36.729687 
L 634.089676 -36.729687 
L 637.913339 -36.729687 
L 641.737003 -36.729687 
L 645.560667 -36.729687 
L 649.384331 -36.729687 
L 653.207995 -36.729687 
L 657.031658 -36.729687 
L 660.855322 -36.729687 
L 664.678986 -36.729687 
L 668.50265 -36.729687 
L 672.326313 -36.729687 
L 676.149977 -36.729687 
L 679.973641 -36.729687 
L 683.797305 -36.729687 
L 687.620968 -36.729687 
L 691.444632 -36.729687 
L 695.268296 -36.729687 
L 699.09196 -36.729687 
L 702.915624 -36.729687 
L 706.739287 -36.729687 
L 710.562951 -36.729687 
L 714.386615 -36.729687 
L 718.210279 -36.729687 
L 722.033942 -36.729687 
L 725.857606 -36.729687 
L 729.68127 -36.729687 
L 733.504934 -36.729687 
L 737.328598 -36.729687 
L 741.152261 -36.729687 
L 744.975925 -36.729687 
L 748.799589 -36.729687 
L 752.623253 -36.729687 
L 756.446916 -36.729687 
L 760.27058 -36.729687 
L 764.094244 -36.729687 
L 767.917908 -36.729687 
L 771.741571 -36.729687 
L 775.565235 -36.729687 
L 779.388899 -36.729687 
L 783.212563 -36.729687 
L 787.036227 -36.729687 
L 790.85989 -36.729687 
L 794.683554 -36.729687 
L 798.507218 -36.729687 
L 802.330882 -36.729687 
L 806.154545 -36.729687 
L 806.154545 -36.729687 
L 806.154545 -36.729687 
L 802.330882 -36.729687 
L 798.507218 -36.729687 
L 794.683554 -36.729687 
L 790.85989 -36.729687 
L 787.036227 -36.729687 
L 783.212563 -36.729687 
L 779.388899 -36.729687 
L 775.565235 -36.729687 
L 771.741571 -36.729687 
L 767.917908 -36.729687 
L 764.094244 -36.729687 
L 760.27058 -36.729687 
L 756.446916 -36.729687 
L 752.623253 -36.729687 
L 748.799589 -36.729687 
L 744.975925 -36.729687 
L 741.152261 -36.729687 
L 737.328598 -36.729687 
L 733.504934 -36.729687 
L 729.68127 -36.729687 
L 725.857606 -36.729687 
L 722.033942 -36.729687 
L 718.210279 -36.729687 
L 714.386615 -36.729687 
L 710.562951 -36.729687 
L 706.739287 -36.729687 
L 702.915624 -36.729687 
L 699.09196 -36.729687 
L 695.268296 -36.729687 
L 691.444632 -36.729688 
L 687.620968 -36.729688 
L 683.797305 -36.729688 
L 679.973641 -36.729688 
L 676.149977 -36.729688 
L 672.326313 -36.729688 
L 668.50265 -36.729688 
L 664.678986 -36.729688 
L 660.855322 -36.729688 
L 657.031658 -36.729689 
L 653.207995 -36.729695 
L 649.384331 -36.729716 
L 645.560667 -36.729777 
L 641.737003 -36.729943 
L 637.913339 -36.730353 
L 634.089676 -36.731289 
L 630.266012 -36.733291 
L 626.442348 -36.7373 
L 622.618684 -36.744765 
L 618.795021 -36.757556 
L 614.971357 -36.77755 
L 611.147693 -36.80598 
L 607.324029 -36.842906 
L 603.500365 -36.88716 
L 599.676702 -36.936706 
L 595.853038 -36.989006 
L 592.029374 -37.041171 
L 588.20571 -37.090223 
L 584.382047 -37.13388 
L 580.558383 -37.171612 
L 576.734719 -37.204921 
L 572.911055 -37.236192 
L 569.087392 -37.266828 
L 565.263728 -37.296407 
L 561.440064 -37.323774 
L 557.6164 -37.349076 
L 553.792736 -37.374694 
L 549.969073 -37.404021 
L 546.145409 -37.439068 
L 542.321745 -37.478931 
L 538.498081 -37.520447 
L 534.674418 -37.560605 
L 530.850754 -37.598941 
L 527.02709 -37.638208 
L 523.203426 -37.68293 
L 519.379762 -37.737151 
L 515.556099 -37.803206 
L 511.732435 -37.882282 
L 507.908771 -37.975892 
L 504.085107 -38.08671 
L 500.261444 -38.218039 
L 496.43778 -38.372544 
L 492.614116 -38.551569 
L 488.790452 -38.755686 
L 484.966788 -38.985886 
L 481.143125 -39.244319 
L 477.319461 -39.5343 
L 473.495797 -39.860349 
L 469.672133 -40.228836 
L 465.84847 -40.648614 
L 462.024806 -41.130862 
L 458.201142 -41.688543 
L 454.377478 -42.336249 
L 450.553815 -43.089327 
L 446.730151 -43.959611 
L 442.906487 -44.947746 
L 439.082823 -46.037947 
L 435.259159 -47.202796 
L 431.435496 -48.418468 
L 427.611832 -49.679978 
L 423.788168 -51.003694 
L 419.964504 -52.414514 
L 416.140841 -53.928491 
L 412.317177 -55.544875 
L 408.493513 -57.252455 
L 404.669849 -59.043093 
L 400.846185 -60.920493 
L 397.022522 -62.896788 
L 393.198858 -64.979879 
L 389.375194 -67.163849 
L 385.55153 -69.434682 
L 381.727867 -71.79028 
L 377.904203 -74.256835 
L 374.080539 -76.880762 
L 370.256875 -79.694301 
L 366.433212 -82.678665 
L 362.609548 -85.756227 
L 358.785884 -88.822289 
L 354.96222 -91.794534 
L 351.138556 -94.644225 
L 347.314893 -97.390271 
L 343.491229 -100.067614 
L 339.667565 -102.696326 
L 335.843901 -105.268894 
L 332.020238 -107.755438 
L 328.196574 -110.116551 
L 324.37291 -112.313156 
L 320.549246 -114.307558 
L 316.725582 -116.057828 
L 312.901919 -117.515472 
L 309.078255 -118.635849 
L 305.254591 -119.39871 
L 301.430927 -119.823196 
L 297.607264 -119.961932 
L 293.7836 -119.873421 
L 289.959936 -119.588111 
L 286.136272 -119.089132 
L 282.312608 -118.320508 
L 278.488945 -117.217807 
L 274.665281 -115.740229 
L 270.841617 -113.883492 
L 267.017953 -111.67138 
L 263.19429 -109.1422 
L 259.370626 -106.344984 
L 255.546962 -103.342767 
L 251.723298 -100.2096 
L 247.899635 -97.016605 
L 244.075971 -93.817506 
L 240.252307 -90.645669 
L 236.428643 -87.521812 
L 232.604979 -84.461428 
L 228.781316 -81.475127 
L 224.957652 -78.566004 
L 221.133988 -75.731909 
L 217.310324 -72.974139 
L 213.486661 -70.305823 
L 209.662997 -67.751386 
L 205.839333 -65.335269 
L 202.015669 -63.068221 
L 198.192005 -60.943487 
L 194.368342 -58.947114 
L 190.544678 -57.072943 
L 186.721014 -55.328144 
L 182.89735 -53.72499 
L 179.073687 -52.268025 
L 175.250023 -50.948195 
L 171.426359 -49.746449 
L 167.602695 -48.64099 
L 163.779032 -47.612865 
L 159.955368 -46.649468 
L 156.131704 -45.74703 
L 152.30804 -44.910682 
L 148.484376 -44.149733 
L 144.660713 -43.469177 
L 140.837049 -42.862931 
L 137.013385 -42.314024 
L 133.189721 -41.801644 
L 129.366058 -41.309781 
L 125.542394 -40.832337 
L 121.71873 -40.373359 
L 117.895066 -39.943951 
L 114.071402 -39.557779 
L 110.247739 -39.226571 
L 106.424075 -38.956706 
L 102.600411 -38.747255 
L 98.776747 -38.589281 
L 94.953084 -38.466484 
L 91.12942 -38.357776 
L 87.305756 -38.241699 
L 83.482092 -38.101208 
L 79.658429 -37.927401 
L 75.834765 -37.721927 
L 72.011101 -37.497855 
L 68.187437 -37.277273 
L 64.363773 -37.084285 
L 60.54011 -36.935908 
L 56.716446 -36.836418 
L 52.892782 -36.77851 
L 49.069118 -36.749327 
L 45.245455 -36.73661 
z
" style="stroke: #ffffff"/>
    </defs>
    <g>
     <use xlink:href="#m0770583447" x="0" y="459.729687" style="fill: #da8bc3; fill-opacity: 0.75; stroke: #ffffff"/>
    </g>
   </g>
   <g id="FillBetweenPolyCollection_2">
    <defs>
     <path id="m9de19e1275" d="M 45.245455 -36.73661 
L 45.245455 -36.73661 
L 49.069118 -36.749327 
L 52.892782 -36.77851 
L 56.716446 -36.836418 
L 60.54011 -36.935908 
L 64.363773 -37.084285 
L 68.187437 -37.277273 
L 72.011101 -37.497855 
L 75.834765 -37.721927 
L 79.658429 -37.927401 
L 83.482092 -38.101208 
L 87.305756 -38.241699 
L 91.12942 -38.357776 
L 94.953084 -38.466484 
L 98.776747 -38.589281 
L 102.600411 -38.747255 
L 106.424075 -38.956706 
L 110.247739 -39.226571 
L 114.071402 -39.557779 
L 117.895066 -39.943951 
L 121.71873 -40.373359 
L 125.542394 -40.832337 
L 129.366058 -41.309781 
L 133.189721 -41.801644 
L 137.013385 -42.314024 
L 140.837049 -42.862931 
L 144.660713 -43.469177 
L 148.484376 -44.149733 
L 152.30804 -44.910682 
L 156.131704 -45.74703 
L 159.955368 -46.649468 
L 163.779032 -47.612865 
L 167.602695 -48.64099 
L 171.426359 -49.746449 
L 175.250023 -50.948195 
L 179.073687 -52.268025 
L 182.89735 -53.72499 
L 186.721014 -55.328144 
L 190.544678 -57.072943 
L 194.368342 -58.947114 
L 198.192005 -60.943487 
L 202.015669 -63.068221 
L 205.839333 -65.335269 
L 209.662997 -67.751386 
L 213.486661 -70.305823 
L 217.310324 -72.974139 
L 221.133988 -75.731909 
L 224.957652 -78.566004 
L 228.781316 -81.475127 
L 232.604979 -84.461428 
L 236.428643 -87.521812 
L 240.252307 -90.645669 
L 244.075971 -93.817506 
L 247.899635 -97.016605 
L 251.723298 -100.2096 
L 255.546962 -103.342767 
L 259.370626 -106.344984 
L 263.19429 -109.1422 
L 267.017953 -111.67138 
L 270.841617 -113.883492 
L 274.665281 -115.740229 
L 278.488945 -117.217807 
L 282.312608 -118.320508 
L 286.136272 -119.089132 
L 289.959936 -119.588111 
L 293.7836 -119.873421 
L 297.607264 -119.961932 
L 301.430927 -119.823196 
L 305.254591 -119.39871 
L 309.078255 -118.635849 
L 312.901919 -117.515472 
L 316.725582 -116.057828 
L 320.549246 -114.307558 
L 324.37291 -112.313156 
L 328.196574 -110.116551 
L 332.020238 -107.755438 
L 335.843901 -105.268894 
L 339.667565 -102.696326 
L 343.491229 -100.067614 
L 347.314893 -97.390271 
L 351.138556 -94.644225 
L 354.96222 -91.794534 
L 358.785884 -88.822289 
L 362.609548 -85.756227 
L 366.433212 -82.678665 
L 370.256875 -79.694301 
L 374.080539 -76.880762 
L 377.904203 -74.256835 
L 381.727867 -71.79028 
L 385.55153 -69.434682 
L 389.375194 -67.163849 
L 393.198858 -64.979879 
L 397.022522 -62.896788 
L 400.846185 -60.920493 
L 404.669849 -59.043093 
L 408.493513 -57.252455 
L 412.317177 -55.544875 
L 416.140841 -53.928491 
L 419.964504 -52.414514 
L 423.788168 -51.003694 
L 427.611832 -49.679978 
L 431.435496 -48.418468 
L 435.259159 -47.202796 
L 439.082823 -46.037947 
L 442.906487 -44.947746 
L 446.730151 -43.959611 
L 450.553815 -43.089327 
L 454.377478 -42.336249 
L 458.201142 -41.688543 
L 462.024806 -41.130862 
L 465.84847 -40.648614 
L 469.672133 -40.228836 
L 473.495797 -39.860349 
L 477.319461 -39.5343 
L 481.143125 -39.244319 
L 484.966788 -38.985886 
L 488.790452 -38.755686 
L 492.614116 -38.551569 
L 496.43778 -38.372544 
L 500.261444 -38.218039 
L 504.085107 -38.08671 
L 507.908771 -37.975892 
L 511.732435 -37.882282 
L 515.556099 -37.803206 
L 519.379762 -37.737151 
L 523.203426 -37.68293 
L 527.02709 -37.638208 
L 530.850754 -37.598941 
L 534.674418 -37.560605 
L 538.498081 -37.520447 
L 542.321745 -37.478931 
L 546.145409 -37.439068 
L 549.969073 -37.404021 
L 553.792736 -37.374694 
L 557.6164 -37.349076 
L 561.440064 -37.323774 
L 565.263728 -37.296407 
L 569.087392 -37.266828 
L 572.911055 -37.236192 
L 576.734719 -37.204921 
L 580.558383 -37.171612 
L 584.382047 -37.13388 
L 588.20571 -37.090223 
L 592.029374 -37.041171 
L 595.853038 -36.989006 
L 599.676702 -36.936706 
L 603.500365 -36.88716 
L 607.324029 -36.842906 
L 611.147693 -36.80598 
L 614.971357 -36.77755 
L 618.795021 -36.757556 
L 622.618684 -36.744765 
L 626.442348 -36.7373 
L 630.266012 -36.733291 
L 634.089676 -36.731289 
L 637.913339 -36.730353 
L 641.737003 -36.729943 
L 645.560667 -36.729777 
L 649.384331 -36.729716 
L 653.207995 -36.729695 
L 657.031658 -36.729689 
L 660.855322 -36.729688 
L 664.678986 -36.729688 
L 668.50265 -36.729688 
L 672.326313 -36.729688 
L 676.149977 -36.729688 
L 679.973641 -36.729688 
L 683.797305 -36.729688 
L 687.620968 -36.729688 
L 691.444632 -36.729688 
L 695.268296 -36.729687 
L 699.09196 -36.729687 
L 702.915624 -36.729687 
L 706.739287 -36.729687 
L 710.562951 -36.729687 
L 714.386615 -36.729687 
L 718.210279 -36.729687 
L 722.033942 -36.729687 
L 725.857606 -36.729687 
L 729.68127 -36.729687 
L 733.504934 -36.729687 
L 737.328598 -36.729687 
L 741.152261 -36.729687 
L 744.975925 -36.729687 
L 748.799589 -36.729687 
L 752.623253 -36.729687 
L 756.446916 -36.729687 
L 760.27058 -36.729687 
L 764.094244 -36.729687 
L 767.917908 -36.729687 
L 771.741571 -36.729687 
L 775.565235 -36.729687 
L 779.388899 -36.729687 
L 783.212563 -36.729687 
L 787.036227 -36.729687 
L 790.85989 -36.729687 
L 794.683554 -36.729687 
L 798.507218 -36.729687 
L 802.330882 -36.729687 
L 806.154545 -36.729687 
L 806.154545 -36.729687 
L 806.154545 -36.729687 
L 802.330882 -36.729687 
L 798.507218 -36.729687 
L 794.683554 -36.729687 
L 790.85989 -36.729687 
L 787.036227 -36.729687 
L 783.212563 -36.729687 
L 779.388899 -36.729687 
L 775.565235 -36.729687 
L 771.741571 -36.729687 
L 767.917908 -36.729687 
L 764.094244 -36.729687 
L 760.27058 -36.729687 
L 756.446916 -36.729687 
L 752.623253 -36.729687 
L 748.799589 -36.729687 
L 744.975925 -36.729687 
L 741.152261 -36.729687 
L 737.328598 -36.729687 
L 733.504934 -36.729687 
L 729.68127 -36.729687 
L 725.857606 -36.729687 
L 722.033942 -36.729687 
L 718.210279 -36.729687 
L 714.386615 -36.729687 
L 710.562951 -36.729687 
L 706.739287 -36.729687 
L 702.915624 -36.729687 
L 699.09196 -36.729687 
L 695.268296 -36.729687 
L 691.444632 -36.729688 
L 687.620968 -36.729688 
L 683.797305 -36.729688 
L 679.973641 -36.729688 
L 676.149977 -36.729688 
L 672.326313 -36.729688 
L 668.50265 -36.729688 
L 664.678986 -36.729688 
L 660.855322 -36.729688 
L 657.031658 -36.729689 
L 653.207995 -36.729695 
L 649.384331 -36.729716 
L 645.560667 -36.729777 
L 641.737003 -36.729943 
L 637.913339 -36.730353 
L 634.089676 -36.731289 
L 630.266012 -36.733291 
L 626.442348 -36.7373 
L 622.618684 -36.744765 
L 618.795021 -36.757556 
L 614.971357 -36.77755 
L 611.147693 -36.80598 
L 607.324029 -36.842906 
L 603.500365 -36.887162 
L 599.676702 -36.936712 
L 595.853038 -36.989026 
L 592.029374 -37.041235 
L 588.20571 -37.090397 
L 584.382047 -37.134291 
L 580.558383 -37.172469 
L 576.734719 -37.206527 
L 572.911055 -37.238941 
L 569.087392 -37.271206 
L 565.263728 -37.303023 
L 561.440064 -37.333485 
L 557.6164 -37.363261 
L 553.792736 -37.395626 
L 549.969073 -37.435082 
L 546.145409 -37.484423 
L 542.321745 -37.542546 
L 538.498081 -37.604881 
L 534.674418 -37.666433 
L 530.850754 -37.725362 
L 527.02709 -37.784717 
L 523.203426 -37.851546 
L 519.379762 -37.934986 
L 515.556099 -38.045398 
L 511.732435 -38.194659 
L 507.908771 -38.395393 
L 504.085107 -38.657479 
L 500.261444 -38.983828 
L 496.43778 -39.370467 
L 492.614116 -39.814654 
L 488.790452 -40.329985 
L 484.966788 -40.963137 
L 481.143125 -41.802808 
L 477.319461 -42.967035 
L 473.495797 -44.560217 
L 469.672133 -46.615878 
L 465.84847 -49.068096 
L 462.024806 -51.785194 
L 458.201142 -54.64936 
L 454.377478 -57.625636 
L 450.553815 -60.775722 
L 446.730151 -64.217903 
L 442.906487 -68.068915 
L 439.082823 -72.406661 
L 435.259159 -77.270279 
L 431.435496 -82.683536 
L 427.611832 -88.674303 
L 423.788168 -95.27768 
L 419.964504 -102.530812 
L 416.140841 -110.46708 
L 412.317177 -119.106001 
L 408.493513 -128.438863 
L 404.669849 -138.423512 
L 400.846185 -148.996499 
L 397.022522 -160.087121 
L 393.198858 -171.610666 
L 389.375194 -183.444582 
L 385.55153 -195.419294 
L 381.727867 -207.344019 
L 377.904203 -219.04516 
L 374.080539 -230.372148 
L 370.256875 -241.154638 
L 366.433212 -251.148198 
L 362.609548 -260.025359 
L 358.785884 -267.430178 
L 354.96222 -273.057217 
L 351.138556 -276.702827 
L 347.314893 -278.274393 
L 343.491229 -277.77508 
L 339.667565 -275.275358 
L 335.843901 -270.874808 
L 332.020238 -264.678609 
L 328.196574 -256.822873 
L 324.37291 -247.538632 
L 320.549246 -237.188191 
L 316.725582 -226.218173 
L 312.901919 -215.050428 
L 309.078255 -203.992728 
L 305.254591 -193.23357 
L 301.430927 -182.907726 
L 297.607264 -173.154835 
L 293.7836 -164.105394 
L 289.959936 -155.808053 
L 286.136272 -148.179034 
L 282.312608 -141.041974 
L 278.488945 -134.24706 
L 274.665281 -127.781012 
L 270.841617 -121.772802 
L 267.017953 -116.38353 
L 263.19429 -111.67344 
L 259.370626 -107.555422 
L 255.546962 -103.854284 
L 251.723298 -100.399631 
L 247.899635 -97.078425 
L 244.075971 -93.835058 
L 240.252307 -90.650004 
L 236.428643 -87.52274 
L 232.604979 -84.4616 
L 228.781316 -81.475154 
L 224.957652 -78.566008 
L 221.133988 -75.731909 
L 217.310324 -72.974139 
L 213.486661 -70.305823 
L 209.662997 -67.751386 
L 205.839333 -65.335269 
L 202.015669 -63.068221 
L 198.192005 -60.943487 
L 194.368342 -58.947114 
L 190.544678 -57.072943 
L 186.721014 -55.328144 
L 182.89735 -53.72499 
L 179.073687 -52.268025 
L 175.250023 -50.948195 
L 171.426359 -49.746449 
L 167.602695 -48.64099 
L 163.779032 -47.612865 
L 159.955368 -46.649468 
L 156.131704 -45.74703 
L 152.30804 -44.910682 
L 148.484376 -44.149733 
L 144.660713 -43.469177 
L 140.837049 -42.862931 
L 137.013385 -42.314024 
L 133.189721 -41.801644 
L 129.366058 -41.309781 
L 125.542394 -40.832337 
L 121.71873 -40.373359 
L 117.895066 -39.943951 
L 114.071402 -39.557779 
L 110.247739 -39.226571 
L 106.424075 -38.956706 
L 102.600411 -38.747255 
L 98.776747 -38.589281 
L 94.953084 -38.466484 
L 91.12942 -38.357776 
L 87.305756 -38.241699 
L 83.482092 -38.101208 
L 79.658429 -37.927401 
L 75.834765 -37.721927 
L 72.011101 -37.497855 
L 68.187437 -37.277273 
L 64.363773 -37.084285 
L 60.54011 -36.935908 
L 56.716446 -36.836418 
L 52.892782 -36.77851 
L 49.069118 -36.749327 
L 45.245455 -36.73661 
z
" style="stroke: #ffffff"/>
    </defs>
    <g>
     <use xlink:href="#m9de19e1275" x="0" y="459.729687" style="fill: #937860; fill-opacity: 0.75; stroke: #ffffff"/>
    </g>
   </g>
   <g id="FillBetweenPolyCollection_3">
    <defs>
     <path id="m8ed2446b81" d="M 45.245455 -36.73661 
L 45.245455 -36.73661 
L 49.069118 -36.749327 
L 52.892782 -36.77851 
L 56.716446 -36.836418 
L 60.54011 -36.935908 
L 64.363773 -37.084285 
L 68.187437 -37.277273 
L 72.011101 -37.497855 
L 75.834765 -37.721927 
L 79.658429 -37.927401 
L 83.482092 -38.101208 
L 87.305756 -38.241699 
L 91.12942 -38.357776 
L 94.953084 -38.466484 
L 98.776747 -38.589281 
L 102.600411 -38.747255 
L 106.424075 -38.956706 
L 110.247739 -39.226571 
L 114.071402 -39.557779 
L 117.895066 -39.943951 
L 121.71873 -40.373359 
L 125.542394 -40.832337 
L 129.366058 -41.309781 
L 133.189721 -41.801644 
L 137.013385 -42.314024 
L 140.837049 -42.862931 
L 144.660713 -43.469177 
L 148.484376 -44.149733 
L 152.30804 -44.910682 
L 156.131704 -45.74703 
L 159.955368 -46.649468 
L 163.779032 -47.612865 
L 167.602695 -48.64099 
L 171.426359 -49.746449 
L 175.250023 -50.948195 
L 179.073687 -52.268025 
L 182.89735 -53.72499 
L 186.721014 -55.328144 
L 190.544678 -57.072943 
L 194.368342 -58.947114 
L 198.192005 -60.943487 
L 202.015669 -63.068221 
L 205.839333 -65.335269 
L 209.662997 -67.751386 
L 213.486661 -70.305823 
L 217.310324 -72.974139 
L 221.133988 -75.731909 
L 224.957652 -78.566008 
L 228.781316 -81.475154 
L 232.604979 -84.4616 
L 236.428643 -87.52274 
L 240.252307 -90.650004 
L 244.075971 -93.835058 
L 247.899635 -97.078425 
L 251.723298 -100.399631 
L 255.546962 -103.854284 
L 259.370626 -107.555422 
L 263.19429 -111.67344 
L 267.017953 -116.38353 
L 270.841617 -121.772802 
L 274.665281 -127.781012 
L 278.488945 -134.24706 
L 282.312608 -141.041974 
L 286.136272 -148.179034 
L 289.959936 -155.808053 
L 293.7836 -164.105394 
L 297.607264 -173.154835 
L 301.430927 -182.907726 
L 305.254591 -193.23357 
L 309.078255 -203.992728 
L 312.901919 -215.050428 
L 316.725582 -226.218173 
L 320.549246 -237.188191 
L 324.37291 -247.538632 
L 328.196574 -256.822873 
L 332.020238 -264.678609 
L 335.843901 -270.874808 
L 339.667565 -275.275358 
L 343.491229 -277.77508 
L 347.314893 -278.274393 
L 351.138556 -276.702827 
L 354.96222 -273.057217 
L 358.785884 -267.430178 
L 362.609548 -260.025359 
L 366.433212 -251.148198 
L 370.256875 -241.154638 
L 374.080539 -230.372148 
L 377.904203 -219.04516 
L 381.727867 -207.344019 
L 385.55153 -195.419294 
L 389.375194 -183.444582 
L 393.198858 -171.610666 
L 397.022522 -160.087121 
L 400.846185 -148.996499 
L 404.669849 -138.423512 
L 408.493513 -128.438863 
L 412.317177 -119.106001 
L 416.140841 -110.46708 
L 419.964504 -102.530812 
L 423.788168 -95.27768 
L 427.611832 -88.674303 
L 431.435496 -82.683536 
L 435.259159 -77.270279 
L 439.082823 -72.406661 
L 442.906487 -68.068915 
L 446.730151 -64.217903 
L 450.553815 -60.775722 
L 454.377478 -57.625636 
L 458.201142 -54.64936 
L 462.024806 -51.785194 
L 465.84847 -49.068096 
L 469.672133 -46.615878 
L 473.495797 -44.560217 
L 477.319461 -42.967035 
L 481.143125 -41.802808 
L 484.966788 -40.963137 
L 488.790452 -40.329985 
L 492.614116 -39.814654 
L 496.43778 -39.370467 
L 500.261444 -38.983828 
L 504.085107 -38.657479 
L 507.908771 -38.395393 
L 511.732435 -38.194659 
L 515.556099 -38.045398 
L 519.379762 -37.934986 
L 523.203426 -37.851546 
L 527.02709 -37.784717 
L 530.850754 -37.725362 
L 534.674418 -37.666433 
L 538.498081 -37.604881 
L 542.321745 -37.542546 
L 546.145409 -37.484423 
L 549.969073 -37.435082 
L 553.792736 -37.395626 
L 557.6164 -37.363261 
L 561.440064 -37.333485 
L 565.263728 -37.303023 
L 569.087392 -37.271206 
L 572.911055 -37.238941 
L 576.734719 -37.206527 
L 580.558383 -37.172469 
L 584.382047 -37.134291 
L 588.20571 -37.090397 
L 592.029374 -37.041235 
L 595.853038 -36.989026 
L 599.676702 -36.936712 
L 603.500365 -36.887162 
L 607.324029 -36.842906 
L 611.147693 -36.80598 
L 614.971357 -36.77755 
L 618.795021 -36.757556 
L 622.618684 -36.744765 
L 626.442348 -36.7373 
L 630.266012 -36.733291 
L 634.089676 -36.731289 
L 637.913339 -36.730353 
L 641.737003 -36.729943 
L 645.560667 -36.729777 
L 649.384331 -36.729716 
L 653.207995 -36.729695 
L 657.031658 -36.729689 
L 660.855322 -36.729688 
L 664.678986 -36.729688 
L 668.50265 -36.729688 
L 672.326313 -36.729688 
L 676.149977 -36.729688 
L 679.973641 -36.729688 
L 683.797305 -36.729688 
L 687.620968 -36.729688 
L 691.444632 -36.729688 
L 695.268296 -36.729687 
L 699.09196 -36.729687 
L 702.915624 -36.729687 
L 706.739287 -36.729687 
L 710.562951 -36.729687 
L 714.386615 -36.729687 
L 718.210279 -36.729687 
L 722.033942 -36.729687 
L 725.857606 -36.729687 
L 729.68127 -36.729687 
L 733.504934 -36.729687 
L 737.328598 -36.729687 
L 741.152261 -36.729687 
L 744.975925 -36.729687 
L 748.799589 -36.729687 
L 752.623253 -36.729687 
L 756.446916 -36.729687 
L 760.27058 -36.729687 
L 764.094244 -36.729687 
L 767.917908 -36.729687 
L 771.741571 -36.729687 
L 775.565235 -36.729687 
L 779.388899 -36.729687 
L 783.212563 -36.729687 
L 787.036227 -36.729687 
L 790.85989 -36.729687 
L 794.683554 -36.729687 
L 798.507218 -36.729687 
L 802.330882 -36.729687 
L 806.154545 -36.729687 
L 806.154545 -36.729701 
L 806.154545 -36.729701 
L 802.330882 -36.729726 
L 798.507218 -36.729793 
L 794.683554 -36.72996 
L 790.85989 -36.730355 
L 787.036227 -36.731239 
L 783.212563 -36.733108 
L 779.388899 -36.736847 
L 775.565235 -36.743921 
L 771.741571 -36.756587 
L 767.917908 -36.778059 
L 764.094244 -36.812543 
L 760.27058 -36.865054 
L 756.446916 -36.940952 
L 752.623253 -37.04523 
L 748.799589 -37.18169 
L 744.975925 -37.352222 
L 741.152261 -37.556455 
L 737.328598 -37.791927 
L 733.504934 -38.054794 
L 729.68127 -38.340875 
L 725.857606 -38.646715 
L 722.033942 -38.970334 
L 718.210279 -39.311457 
L 714.386615 -39.671247 
L 710.562951 -40.051711 
L 706.739287 -40.455079 
L 702.915624 -40.883401 
L 699.09196 -41.338466 
L 695.268296 -41.821988 
L 691.444632 -42.335895 
L 687.620968 -42.882497 
L 683.797305 -43.464433 
L 679.973641 -44.08435 
L 676.149977 -44.744437 
L 672.326313 -45.445926 
L 668.50265 -46.188712 
L 664.678986 -46.971116 
L 660.855322 -47.789802 
L 657.031658 -48.639815 
L 653.207995 -49.514736 
L 649.384331 -50.406968 
L 645.560667 -51.308124 
L 641.737003 -52.209427 
L 637.913339 -53.101983 
L 634.089676 -53.976816 
L 630.266012 -54.824727 
L 626.442348 -55.636192 
L 622.618684 -56.401588 
L 618.795021 -57.111858 
L 614.971357 -57.759478 
L 611.147693 -58.339426 
L 607.324029 -58.84993 
L 603.500365 -59.292716 
L 599.676702 -59.672436 
L 595.853038 -59.995012 
L 592.029374 -60.265245 
L 588.20571 -60.484807 
L 584.382047 -60.651704 
L 580.558383 -60.761267 
L 576.734719 -60.80754 
L 572.911055 -60.783926 
L 569.087392 -60.68325 
L 565.263728 -60.498516 
L 561.440064 -60.225098 
L 557.6164 -59.863424 
L 553.792736 -59.420152 
L 549.969073 -58.9067 
L 546.145409 -58.335953 
L 542.321745 -57.719362 
L 538.498081 -57.06623 
L 534.674418 -56.385267 
L 530.850754 -55.686616 
L 527.02709 -54.982289 
L 523.203426 -54.284592 
L 519.379762 -53.604259 
L 515.556099 -52.950342 
L 511.732435 -52.331722 
L 507.908771 -51.757775 
L 504.085107 -51.236208 
L 500.261444 -50.769877 
L 496.43778 -50.357477 
L 492.614116 -50.001753 
L 488.790452 -49.72422 
L 484.966788 -49.581068 
L 481.143125 -49.670958 
L 477.319461 -50.121083 
L 473.495797 -51.043062 
L 469.672133 -52.474943 
L 465.84847 -54.352413 
L 462.024806 -56.542839 
L 458.201142 -58.925701 
L 454.377478 -61.462575 
L 450.553815 -64.21182 
L 446.730151 -67.28905 
L 442.906487 -70.809108 
L 439.082823 -74.848564 
L 435.259159 -79.445385 
L 431.435496 -84.621976 
L 427.611832 -90.404452 
L 423.788168 -96.825744 
L 419.964504 -103.920543 
L 416.140841 -111.719665 
L 412.317177 -120.240114 
L 408.493513 -129.470816 
L 404.669849 -139.367436 
L 400.846185 -149.864512 
L 397.022522 -160.889457 
L 393.198858 -172.35579 
L 389.375194 -184.139309 
L 385.55153 -196.068958 
L 381.727867 -207.952691 
L 377.904203 -219.615918 
L 374.080539 -230.907369 
L 370.256875 -241.656271 
L 366.433212 -251.617993 
L 362.609548 -260.465023 
L 358.785884 -267.841459 
L 354.96222 -273.441926 
L 351.138556 -277.06281 
L 347.314893 -278.611476 
L 343.491229 -278.091002 
L 339.667565 -275.571715 
L 335.843901 -271.15302 
L 332.020238 -264.939927 
L 328.196574 -257.068416 
L 324.37291 -247.769446 
L 320.549246 -237.405292 
L 316.725582 -226.422566 
L 312.901919 -215.243088 
L 309.078255 -204.174585 
L 305.254591 -193.405513 
L 301.430927 -183.070647 
L 297.607264 -173.309674 
L 293.7836 -164.253111 
L 289.959936 -155.949476 
L 286.136272 -148.3146 
L 282.312608 -141.171434 
L 278.488945 -134.369321 
L 274.665281 -127.894225 
L 270.841617 -121.874728 
L 267.017953 -116.472082 
L 263.19429 -111.747235 
L 259.370626 -107.614138 
L 255.546962 -103.89874 
L 251.723298 -100.431583 
L 247.899635 -97.10019 
L 244.075971 -93.849092 
L 240.252307 -90.658564 
L 236.428643 -87.527676 
L 232.604979 -84.464289 
L 228.781316 -81.476539 
L 224.957652 -78.566682 
L 221.133988 -75.732219 
L 217.310324 -72.974273 
L 213.486661 -70.305878 
L 209.662997 -67.751408 
L 205.839333 -65.335277 
L 202.015669 -63.068224 
L 198.192005 -60.943488 
L 194.368342 -58.947115 
L 190.544678 -57.072943 
L 186.721014 -55.328144 
L 182.89735 -53.72499 
L 179.073687 -52.268025 
L 175.250023 -50.948195 
L 171.426359 -49.746449 
L 167.602695 -48.64099 
L 163.779032 -47.612865 
L 159.955368 -46.649468 
L 156.131704 -45.74703 
L 152.30804 -44.910682 
L 148.484376 -44.149733 
L 144.660713 -43.469177 
L 140.837049 -42.862931 
L 137.013385 -42.314024 
L 133.189721 -41.801644 
L 129.366058 -41.309781 
L 125.542394 -40.832337 
L 121.71873 -40.373359 
L 117.895066 -39.943951 
L 114.071402 -39.557779 
L 110.247739 -39.226571 
L 106.424075 -38.956706 
L 102.600411 -38.747255 
L 98.776747 -38.589281 
L 94.953084 -38.466484 
L 91.12942 -38.357776 
L 87.305756 -38.241699 
L 83.482092 -38.101208 
L 79.658429 -37.927401 
L 75.834765 -37.721927 
L 72.011101 -37.497855 
L 68.187437 -37.277273 
L 64.363773 -37.084285 
L 60.54011 -36.935908 
L 56.716446 -36.836418 
L 52.892782 -36.77851 
L 49.069118 -36.749327 
L 45.245455 -36.73661 
z
" style="stroke: #ffffff"/>
    </defs>
    <g>
     <use xlink:href="#m8ed2446b81" x="0" y="459.729687" style="fill: #8172b3; fill-opacity: 0.75; stroke: #ffffff"/>
    </g>
   </g>
   <g id="FillBetweenPolyCollection_4">
    <defs>
     <path id="me6833943ae" d="M 45.245455 -36.73661 
L 45.245455 -36.73661 
L 49.069118 -36.749327 
L 52.892782 -36.77851 
L 56.716446 -36.836418 
L 60.54011 -36.935908 
L 64.363773 -37.084285 
L 68.187437 -37.277273 
L 72.011101 -37.497855 
L 75.834765 -37.721927 
L 79.658429 -37.927401 
L 83.482092 -38.101208 
L 87.305756 -38.241699 
L 91.12942 -38.357776 
L 94.953084 -38.466484 
L 98.776747 -38.589281 
L 102.600411 -38.747255 
L 106.424075 -38.956706 
L 110.247739 -39.226571 
L 114.071402 -39.557779 
L 117.895066 -39.943951 
L 121.71873 -40.373359 
L 125.542394 -40.832337 
L 129.366058 -41.309781 
L 133.189721 -41.801644 
L 137.013385 -42.314024 
L 140.837049 -42.862931 
L 144.660713 -43.469177 
L 148.484376 -44.149733 
L 152.30804 -44.910682 
L 156.131704 -45.74703 
L 159.955368 -46.649468 
L 163.779032 -47.612865 
L 167.602695 -48.64099 
L 171.426359 -49.746449 
L 175.250023 -50.948195 
L 179.073687 -52.268025 
L 182.89735 -53.72499 
L 186.721014 -55.328144 
L 190.544678 -57.072943 
L 194.368342 -58.947115 
L 198.192005 -60.943488 
L 202.015669 -63.068224 
L 205.839333 -65.335277 
L 209.662997 -67.751408 
L 213.486661 -70.305878 
L 217.310324 -72.974273 
L 221.133988 -75.732219 
L 224.957652 -78.566682 
L 228.781316 -81.476539 
L 232.604979 -84.464289 
L 236.428643 -87.527676 
L 240.252307 -90.658564 
L 244.075971 -93.849092 
L 247.899635 -97.10019 
L 251.723298 -100.431583 
L 255.546962 -103.89874 
L 259.370626 -107.614138 
L 263.19429 -111.747235 
L 267.017953 -116.472082 
L 270.841617 -121.874728 
L 274.665281 -127.894225 
L 278.488945 -134.369321 
L 282.312608 -141.171434 
L 286.136272 -148.3146 
L 289.959936 -155.949476 
L 293.7836 -164.253111 
L 297.607264 -173.309674 
L 301.430927 -183.070647 
L 305.254591 -193.405513 
L 309.078255 -204.174585 
L 312.901919 -215.243088 
L 316.725582 -226.422566 
L 320.549246 -237.405292 
L 324.37291 -247.769446 
L 328.196574 -257.068416 
L 332.020238 -264.939927 
L 335.843901 -271.15302 
L 339.667565 -275.571715 
L 343.491229 -278.091002 
L 347.314893 -278.611476 
L 351.138556 -277.06281 
L 354.96222 -273.441926 
L 358.785884 -267.841459 
L 362.609548 -260.465023 
L 366.433212 -251.617993 
L 370.256875 -241.656271 
L 374.080539 -230.907369 
L 377.904203 -219.615918 
L 381.727867 -207.952691 
L 385.55153 -196.068958 
L 389.375194 -184.139309 
L 393.198858 -172.35579 
L 397.022522 -160.889457 
L 400.846185 -149.864512 
L 404.669849 -139.367436 
L 408.493513 -129.470816 
L 412.317177 -120.240114 
L 416.140841 -111.719665 
L 419.964504 -103.920543 
L 423.788168 -96.825744 
L 427.611832 -90.404452 
L 431.435496 -84.621976 
L 435.259159 -79.445385 
L 439.082823 -74.848564 
L 442.906487 -70.809108 
L 446.730151 -67.28905 
L 450.553815 -64.21182 
L 454.377478 -61.462575 
L 458.201142 -58.925701 
L 462.024806 -56.542839 
L 465.84847 -54.352413 
L 469.672133 -52.474943 
L 473.495797 -51.043062 
L 477.319461 -50.121083 
L 481.143125 -49.670958 
L 484.966788 -49.581068 
L 488.790452 -49.72422 
L 492.614116 -50.001753 
L 496.43778 -50.357477 
L 500.261444 -50.769877 
L 504.085107 -51.236208 
L 507.908771 -51.757775 
L 511.732435 -52.331722 
L 515.556099 -52.950342 
L 519.379762 -53.604259 
L 523.203426 -54.284592 
L 527.02709 -54.982289 
L 530.850754 -55.686616 
L 534.674418 -56.385267 
L 538.498081 -57.06623 
L 542.321745 -57.719362 
L 546.145409 -58.335953 
L 549.969073 -58.9067 
L 553.792736 -59.420152 
L 557.6164 -59.863424 
L 561.440064 -60.225098 
L 565.263728 -60.498516 
L 569.087392 -60.68325 
L 572.911055 -60.783926 
L 576.734719 -60.80754 
L 580.558383 -60.761267 
L 584.382047 -60.651704 
L 588.20571 -60.484807 
L 592.029374 -60.265245 
L 595.853038 -59.995012 
L 599.676702 -59.672436 
L 603.500365 -59.292716 
L 607.324029 -58.84993 
L 611.147693 -58.339426 
L 614.971357 -57.759478 
L 618.795021 -57.111858 
L 622.618684 -56.401588 
L 626.442348 -55.636192 
L 630.266012 -54.824727 
L 634.089676 -53.976816 
L 637.913339 -53.101983 
L 641.737003 -52.209427 
L 645.560667 -51.308124 
L 649.384331 -50.406968 
L 653.207995 -49.514736 
L 657.031658 -48.639815 
L 660.855322 -47.789802 
L 664.678986 -46.971116 
L 668.50265 -46.188712 
L 672.326313 -45.445926 
L 676.149977 -44.744437 
L 679.973641 -44.08435 
L 683.797305 -43.464433 
L 687.620968 -42.882497 
L 691.444632 -42.335895 
L 695.268296 -41.821988 
L 699.09196 -41.338466 
L 702.915624 -40.883401 
L 706.739287 -40.455079 
L 710.562951 -40.051711 
L 714.386615 -39.671247 
L 718.210279 -39.311457 
L 722.033942 -38.970334 
L 725.857606 -38.646715 
L 729.68127 -38.340875 
L 733.504934 -38.054794 
L 737.328598 -37.791927 
L 741.152261 -37.556455 
L 744.975925 -37.352222 
L 748.799589 -37.18169 
L 752.623253 -37.04523 
L 756.446916 -36.940952 
L 760.27058 -36.865054 
L 764.094244 -36.812543 
L 767.917908 -36.778059 
L 771.741571 -36.756587 
L 775.565235 -36.743921 
L 779.388899 -36.736847 
L 783.212563 -36.733108 
L 787.036227 -36.731239 
L 790.85989 -36.730355 
L 794.683554 -36.72996 
L 798.507218 -36.729793 
L 802.330882 -36.729726 
L 806.154545 -36.729701 
L 806.154545 -36.729701 
L 806.154545 -36.729701 
L 802.330882 -36.729726 
L 798.507218 -36.729793 
L 794.683554 -36.72996 
L 790.85989 -36.730355 
L 787.036227 -36.731239 
L 783.212563 -36.733108 
L 779.388899 -36.736847 
L 775.565235 -36.743921 
L 771.741571 -36.756587 
L 767.917908 -36.77806 
L 764.094244 -36.812546 
L 760.27058 -36.865064 
L 756.446916 -36.940979 
L 752.623253 -37.045304 
L 748.799589 -37.181875 
L 744.975925 -37.352661 
L 741.152261 -37.55743 
L 737.328598 -37.79396 
L 733.504934 -38.058784 
L 729.68127 -38.348262 
L 725.857606 -38.659649 
L 722.033942 -38.99181 
L 718.210279 -39.345389 
L 714.386615 -39.722441 
L 710.562951 -40.125754 
L 706.739287 -40.558142 
L 702.915624 -41.022009 
L 699.09196 -41.519263 
L 695.268296 -42.051551 
L 691.444632 -42.620629 
L 687.620968 -43.22866 
L 683.797305 -43.878297 
L 679.973641 -44.572491 
L 676.149977 -45.314086 
L 672.326313 -46.105282 
L 668.50265 -46.947106 
L 664.678986 -47.838953 
L 660.855322 -48.778254 
L 657.031658 -49.760317 
L 653.207995 -50.778364 
L 649.384331 -51.823803 
L 645.560667 -52.886696 
L 641.737003 -53.956289 
L 637.913339 -55.021438 
L 634.089676 -56.070795 
L 630.266012 -57.092809 
L 626.442348 -58.075776 
L 622.618684 -59.008227 
L 618.795021 -59.879754 
L 614.971357 -60.682118 
L 611.147693 -61.410302 
L 607.324029 -62.063226 
L 603.500365 -62.643859 
L 599.676702 -63.15842 
L 595.853038 -63.614467 
L 592.029374 -64.018307 
L 588.20571 -64.372856 
L 584.382047 -64.677047 
L 580.558383 -64.926807 
L 576.734719 -65.116415 
L 572.911055 -65.239134 
L 569.087392 -65.287286 
L 565.263728 -65.253073 
L 561.440064 -65.130892 
L 557.6164 -64.920122 
L 553.792736 -64.626409 
L 549.969073 -64.260303 
L 546.145409 -63.834193 
L 542.321745 -63.359742 
L 538.498081 -62.847601 
L 534.674418 -62.309252 
L 530.850754 -61.759042 
L 527.02709 -61.214243 
L 523.203426 -60.692801 
L 519.379762 -60.210689 
L 515.556099 -59.781166 
L 511.732435 -59.416006 
L 507.908771 -59.126351 
L 504.085107 -58.921247 
L 500.261444 -58.805554 
L 496.43778 -58.781895 
L 492.614116 -58.859908 
L 488.790452 -59.071341 
L 484.966788 -59.48538 
L 481.143125 -60.214812 
L 477.319461 -61.399737 
L 473.495797 -63.161009 
L 469.672133 -65.540411 
L 465.84847 -68.471233 
L 462.024806 -71.813008 
L 458.201142 -75.433649 
L 454.377478 -79.281574 
L 450.553815 -83.402395 
L 446.730151 -87.900923 
L 442.906487 -92.884125 
L 439.082823 -98.424024 
L 435.259159 -104.557097 
L 431.435496 -111.306203 
L 427.611832 -118.697825 
L 423.788168 -126.762602 
L 419.964504 -135.527861 
L 416.140841 -145.010697 
L 412.317177 -155.208457 
L 408.493513 -166.0865 
L 404.669849 -177.57582 
L 400.846185 -189.587613 
L 397.022522 -202.02856 
L 393.198858 -214.794225 
L 389.375194 -227.745095 
L 385.55153 -240.697968 
L 381.727867 -253.453391 
L 377.904203 -265.836081 
L 374.080539 -277.7018 
L 370.256875 -288.893419 
L 366.433212 -299.183091 
L 362.609548 -308.258469 
L 358.785884 -315.772849 
L 354.96222 -321.421674 
L 351.138556 -324.993866 
L 347.314893 -326.383177 
L 343.491229 -325.576003 
L 339.667565 -322.62587 
L 335.843901 -317.617423 
L 332.020238 -310.644256 
L 328.196574 -301.835026 
L 324.37291 -291.417946 
L 320.549246 -279.757412 
L 316.725582 -267.306946 
L 312.901919 -254.49952 
L 309.078255 -241.657362 
L 305.254591 -228.986004 
L 301.430927 -216.639651 
L 297.607264 -204.780166 
L 293.7836 -193.563628 
L 289.959936 -183.067706 
L 286.136272 -173.240165 
L 282.312608 -163.93673 
L 278.488945 -155.037714 
L 274.665281 -146.555693 
L 270.841617 -138.639939 
L 267.017953 -131.466358 
L 263.19429 -125.105717 
L 259.370626 -119.478671 
L 255.546962 -114.415984 
L 251.723298 -109.751117 
L 247.899635 -105.371421 
L 244.075971 -101.216562 
L 240.252307 -97.256361 
L 236.428643 -93.474374 
L 232.604979 -89.859825 
L 228.781316 -86.401697 
L 224.957652 -83.084888 
L 221.133988 -79.892677 
L 217.310324 -76.815352 
L 213.486661 -73.857967 
L 209.662997 -71.038924 
L 205.839333 -68.377849 
L 202.015669 -65.881298 
L 198.192005 -63.538661 
L 194.368342 -61.332524 
L 190.544678 -59.254007 
L 186.721014 -57.30876 
L 182.89735 -55.509077 
L 179.073687 -53.861033 
L 175.250023 -52.358114 
L 171.426359 -50.98397 
L 167.602695 -49.718786 
L 163.779032 -48.544304 
L 159.955368 -47.447303 
L 156.131704 -46.42257 
L 152.30804 -45.473737 
L 148.484376 -44.609251 
L 144.660713 -43.834233 
L 140.837049 -43.143586 
L 137.013385 -42.521692 
L 133.189721 -41.948818 
L 129.366058 -41.409258 
L 125.542394 -40.896235 
L 121.71873 -40.412245 
L 117.895066 -39.966314 
L 114.071402 -39.569905 
L 110.247739 -39.232759 
L 106.424075 -38.959673 
L 102.600411 -38.74859 
L 98.776747 -38.589844 
L 94.953084 -38.466706 
L 91.12942 -38.357858 
L 87.305756 -38.241727 
L 83.482092 -38.101217 
L 79.658429 -37.927404 
L 75.834765 -37.721928 
L 72.011101 -37.497855 
L 68.187437 -37.277273 
L 64.363773 -37.084285 
L 60.54011 -36.935908 
L 56.716446 -36.836418 
L 52.892782 -36.77851 
L 49.069118 -36.749327 
L 45.245455 -36.73661 
z
" style="stroke: #ffffff"/>
    </defs>
    <g>
     <use xlink:href="#me6833943ae" x="0" y="459.729687" style="fill: #c44e52; fill-opacity: 0.75; stroke: #ffffff"/>
    </g>
   </g>
   <g id="FillBetweenPolyCollection_5">
    <defs>
     <path id="m57bf6676b3" d="M 45.245455 -36.73661 
L 45.245455 -36.73661 
L 49.069118 -36.749327 
L 52.892782 -36.77851 
L 56.716446 -36.836418 
L 60.54011 -36.935908 
L 64.363773 -37.084285 
L 68.187437 -37.277273 
L 72.011101 -37.497855 
L 75.834765 -37.721928 
L 79.658429 -37.927404 
L 83.482092 -38.101217 
L 87.305756 -38.241727 
L 91.12942 -38.357858 
L 94.953084 -38.466706 
L 98.776747 -38.589844 
L 102.600411 -38.74859 
L 106.424075 -38.959673 
L 110.247739 -39.232759 
L 114.071402 -39.569905 
L 117.895066 -39.966314 
L 121.71873 -40.412245 
L 125.542394 -40.896235 
L 129.366058 -41.409258 
L 133.189721 -41.948818 
L 137.013385 -42.521692 
L 140.837049 -43.143586 
L 144.660713 -43.834233 
L 148.484376 -44.609251 
L 152.30804 -45.473737 
L 156.131704 -46.42257 
L 159.955368 -47.447303 
L 163.779032 -48.544304 
L 167.602695 -49.718786 
L 171.426359 -50.98397 
L 175.250023 -52.358114 
L 179.073687 -53.861033 
L 182.89735 -55.509077 
L 186.721014 -57.30876 
L 190.544678 -59.254007 
L 194.368342 -61.332524 
L 198.192005 -63.538661 
L 202.015669 -65.881298 
L 205.839333 -68.377849 
L 209.662997 -71.038924 
L 213.486661 -73.857967 
L 217.310324 -76.815352 
L 221.133988 -79.892677 
L 224.957652 -83.084888 
L 228.781316 -86.401697 
L 232.604979 -89.859825 
L 236.428643 -93.474374 
L 240.252307 -97.256361 
L 244.075971 -101.216562 
L 247.899635 -105.371421 
L 251.723298 -109.751117 
L 255.546962 -114.415984 
L 259.370626 -119.478671 
L 263.19429 -125.105717 
L 267.017953 -131.466358 
L 270.841617 -138.639939 
L 274.665281 -146.555693 
L 278.488945 -155.037714 
L 282.312608 -163.93673 
L 286.136272 -173.240165 
L 289.959936 -183.067706 
L 293.7836 -193.563628 
L 297.607264 -204.780166 
L 301.430927 -216.639651 
L 305.254591 -228.986004 
L 309.078255 -241.657362 
L 312.901919 -254.49952 
L 316.725582 -267.306946 
L 320.549246 -279.757412 
L 324.37291 -291.417946 
L 328.196574 -301.835026 
L 332.020238 -310.644256 
L 335.843901 -317.617423 
L 339.667565 -322.62587 
L 343.491229 -325.576003 
L 347.314893 -326.383177 
L 351.138556 -324.993866 
L 354.96222 -321.421674 
L 358.785884 -315.772849 
L 362.609548 -308.258469 
L 366.433212 -299.183091 
L 370.256875 -288.893419 
L 374.080539 -277.7018 
L 377.904203 -265.836081 
L 381.727867 -253.453391 
L 385.55153 -240.697968 
L 389.375194 -227.745095 
L 393.198858 -214.794225 
L 397.022522 -202.02856 
L 400.846185 -189.587613 
L 404.669849 -177.57582 
L 408.493513 -166.0865 
L 412.317177 -155.208457 
L 416.140841 -145.010697 
L 419.964504 -135.527861 
L 423.788168 -126.762602 
L 427.611832 -118.697825 
L 431.435496 -111.306203 
L 435.259159 -104.557097 
L 439.082823 -98.424024 
L 442.906487 -92.884125 
L 446.730151 -87.900923 
L 450.553815 -83.402395 
L 454.377478 -79.281574 
L 458.201142 -75.433649 
L 462.024806 -71.813008 
L 465.84847 -68.471233 
L 469.672133 -65.540411 
L 473.495797 -63.161009 
L 477.319461 -61.399737 
L 481.143125 -60.214812 
L 484.966788 -59.48538 
L 488.790452 -59.071341 
L 492.614116 -58.859908 
L 496.43778 -58.781895 
L 500.261444 -58.805554 
L 504.085107 -58.921247 
L 507.908771 -59.126351 
L 511.732435 -59.416006 
L 515.556099 -59.781166 
L 519.379762 -60.210689 
L 523.203426 -60.692801 
L 527.02709 -61.214243 
L 530.850754 -61.759042 
L 534.674418 -62.309252 
L 538.498081 -62.847601 
L 542.321745 -63.359742 
L 546.145409 -63.834193 
L 549.969073 -64.260303 
L 553.792736 -64.626409 
L 557.6164 -64.920122 
L 561.440064 -65.130892 
L 565.263728 -65.253073 
L 569.087392 -65.287286 
L 572.911055 -65.239134 
L 576.734719 -65.116415 
L 580.558383 -64.926807 
L 584.382047 -64.677047 
L 588.20571 -64.372856 
L 592.029374 -64.018307 
L 595.853038 -63.614467 
L 599.676702 -63.15842 
L 603.500365 -62.643859 
L 607.324029 -62.063226 
L 611.147693 -61.410302 
L 614.971357 -60.682118 
L 618.795021 -59.879754 
L 622.618684 -59.008227 
L 626.442348 -58.075776 
L 630.266012 -57.092809 
L 634.089676 -56.070795 
L 637.913339 -55.021438 
L 641.737003 -53.956289 
L 645.560667 -52.886696 
L 649.384331 -51.823803 
L 653.207995 -50.778364 
L 657.031658 -49.760317 
L 660.855322 -48.778254 
L 664.678986 -47.838953 
L 668.50265 -46.947106 
L 672.326313 -46.105282 
L 676.149977 -45.314086 
L 679.973641 -44.572491 
L 683.797305 -43.878297 
L 687.620968 -43.22866 
L 691.444632 -42.620629 
L 695.268296 -42.051551 
L 699.09196 -41.519263 
L 702.915624 -41.022009 
L 706.739287 -40.558142 
L 710.562951 -40.125754 
L 714.386615 -39.722441 
L 718.210279 -39.345389 
L 722.033942 -38.99181 
L 725.857606 -38.659649 
L 729.68127 -38.348262 
L 733.504934 -38.058784 
L 737.328598 -37.79396 
L 741.152261 -37.55743 
L 744.975925 -37.352661 
L 748.799589 -37.181875 
L 752.623253 -37.045304 
L 756.446916 -36.940979 
L 760.27058 -36.865064 
L 764.094244 -36.812546 
L 767.917908 -36.77806 
L 771.741571 -36.756587 
L 775.565235 -36.743921 
L 779.388899 -36.736847 
L 783.212563 -36.733108 
L 787.036227 -36.731239 
L 790.85989 -36.730355 
L 794.683554 -36.72996 
L 798.507218 -36.729793 
L 802.330882 -36.729726 
L 806.154545 -36.729701 
L 806.154545 -36.729707 
L 806.154545 -36.729707 
L 802.330882 -36.72974 
L 798.507218 -36.729819 
L 794.683554 -36.730009 
L 790.85989 -36.730444 
L 787.036227 -36.731394 
L 783.212563 -36.733367 
L 779.388899 -36.737261 
L 775.565235 -36.744558 
L 771.741571 -36.757528 
L 767.917908 -36.779396 
L 764.094244 -36.814377 
L 760.27058 -36.867495 
L 756.446916 -36.944129 
L 752.623253 -37.049312 
L 748.799589 -37.186914 
L 744.975925 -37.358936 
L 741.152261 -37.565177 
L 737.328598 -37.803424 
L 733.504934 -38.070193 
L 729.68127 -38.3618 
L 725.857606 -38.675441 
L 722.033942 -39.009931 
L 718.210279 -39.365884 
L 714.386615 -39.745368 
L 710.562951 -40.151237 
L 706.739287 -40.586472 
L 702.915624 -41.053802 
L 699.09196 -41.555753 
L 695.268296 -42.095055 
L 691.444632 -42.675204 
L 687.620968 -43.300892 
L 683.797305 -43.978044 
L 679.973641 -44.713293 
L 676.149977 -45.512943 
L 672.326313 -46.381636 
L 668.50265 -47.321113 
L 664.678986 -48.32948 
L 660.855322 -49.401208 
L 657.031658 -50.527864 
L 653.207995 -51.699291 
L 649.384331 -52.904838 
L 645.560667 -54.134277 
L 641.737003 -55.378199 
L 637.913339 -56.62789 
L 634.089676 -57.874853 
L 630.266012 -59.110265 
L 626.442348 -60.32471 
L 622.618684 -61.508404 
L 618.795021 -62.651917 
L 614.971357 -63.747146 
L 611.147693 -64.78826 
L 607.324029 -65.772405 
L 603.500365 -66.700054 
L 599.676702 -67.574697 
L 595.853038 -68.401598 
L 592.029374 -69.185873 
L 588.20571 -69.930814 
L 584.382047 -70.637485 
L 580.558383 -71.305632 
L 576.734719 -71.934868 
L 572.911055 -72.525019 
L 569.087392 -73.075734 
L 565.263728 -73.586438 
L 561.440064 -74.057364 
L 557.6164 -74.490983 
L 553.792736 -74.892413 
L 549.969073 -75.268246 
L 546.145409 -75.62473 
L 542.321745 -75.967073 
L 538.498081 -76.30081 
L 534.674418 -76.634513 
L 530.850754 -76.981749 
L 527.02709 -77.360423 
L 523.203426 -77.789599 
L 519.379762 -78.286116 
L 515.556099 -78.863546 
L 511.732435 -79.533675 
L 507.908771 -80.308036 
L 504.085107 -81.197098 
L 500.261444 -82.208009 
L 496.43778 -83.34491 
L 492.614116 -84.615084 
L 488.790452 -86.040436 
L 484.966788 -87.670351 
L 481.143125 -89.588058 
L 477.319461 -91.897873 
L 473.495797 -94.684817 
L 469.672133 -97.961908 
L 465.84847 -101.646532 
L 462.024806 -105.597753 
L 458.201142 -109.696867 
L 454.377478 -113.914337 
L 450.553815 -118.319655 
L 446.730151 -123.037427 
L 442.906487 -128.187252 
L 439.082823 -133.846716 
L 435.259159 -140.052788 
L 431.435496 -146.825702 
L 427.611832 -154.186811 
L 423.788168 -162.158461 
L 419.964504 -170.755836 
L 416.140841 -179.98076 
L 412.317177 -189.814972 
L 408.493513 -200.212146 
L 404.669849 -211.099615 
L 400.846185 -222.395071 
L 397.022522 -234.020879 
L 393.198858 -245.893574 
L 389.375194 -257.894528 
L 385.55153 -269.856594 
L 381.727867 -281.58922 
L 377.904203 -292.919594 
L 374.080539 -303.702621 
L 370.256875 -313.780868 
L 366.433212 -322.929796 
L 362.609548 -330.84523 
L 358.785884 -337.192847 
L 354.96222 -341.682643 
L 351.138556 -344.117695 
L 347.314893 -344.403228 
L 343.491229 -342.53309 
L 339.667565 -338.564102 
L 335.843901 -332.580986 
L 332.020238 -324.675674 
L 328.196574 -314.97476 
L 324.37291 -303.704717 
L 320.549246 -291.228575 
L 316.725582 -277.998621 
L 312.901919 -264.446673 
L 309.078255 -250.894311 
L 305.254591 -237.547673 
L 301.430927 -224.563336 
L 297.607264 -212.107045 
L 293.7836 -200.338967 
L 289.959936 -189.339009 
L 286.136272 -179.053367 
L 282.312608 -169.331558 
L 278.488945 -160.043992 
L 274.665281 -151.192283 
L 270.841617 -142.91697 
L 267.017953 -135.389951 
L 263.19429 -128.683287 
L 259.370626 -122.722708 
L 255.546962 -117.345044 
L 251.723298 -112.388147 
L 247.899635 -107.740668 
L 244.075971 -103.340713 
L 240.252307 -99.15508 
L 236.428643 -95.16455 
L 232.604979 -91.357001 
L 228.781316 -87.721746 
L 224.957652 -84.245115 
L 221.133988 -80.911943 
L 217.310324 -77.713285 
L 213.486661 -74.65365 
L 209.662997 -71.74953 
L 205.839333 -69.017635 
L 202.015669 -66.46116 
L 198.192005 -64.066307 
L 194.368342 -61.813127 
L 190.544678 -59.691111 
L 186.721014 -57.705171 
L 182.89735 -55.867522 
L 179.073687 -54.18447 
L 175.250023 -52.64972 
L 171.426359 -51.246914 
L 167.602695 -49.955939 
L 163.779032 -48.758018 
L 159.955368 -47.639312 
L 156.131704 -46.594033 
L 152.30804 -45.625389 
L 148.484376 -44.74161 
L 144.660713 -43.947825 
L 140.837049 -43.239129 
L 137.013385 -42.600216 
L 133.189721 -42.011704 
L 129.366058 -41.458202 
L 125.542394 -40.933148 
L 121.71873 -40.439136 
L 117.895066 -39.985167 
L 114.071402 -39.582575 
L 110.247739 -39.240886 
L 106.424075 -38.964627 
L 102.600411 -38.751449 
L 98.776747 -38.5914 
L 94.953084 -38.467502 
L 91.12942 -38.35824 
L 87.305756 -38.241898 
L 83.482092 -38.101289 
L 79.658429 -37.927432 
L 75.834765 -37.721938 
L 72.011101 -37.497858 
L 68.187437 -37.277274 
L 64.363773 -37.084285 
L 60.54011 -36.935908 
L 56.716446 -36.836418 
L 52.892782 -36.77851 
L 49.069118 -36.749327 
L 45.245455 -36.73661 
z
" style="stroke: #ffffff"/>
    </defs>
    <g>
     <use xlink:href="#m57bf6676b3" x="0" y="459.729687" style="fill: #55a868; fill-opacity: 0.75; stroke: #ffffff"/>
    </g>
   </g>
   <g id="FillBetweenPolyCollection_6">
    <defs>
     <path id="m98dd6e5f4c" d="M 45.245455 -36.73661 
L 45.245455 -36.73661 
L 49.069118 -36.749327 
L 52.892782 -36.77851 
L 56.716446 -36.836418 
L 60.54011 -36.935908 
L 64.363773 -37.084285 
L 68.187437 -37.277274 
L 72.011101 -37.497858 
L 75.834765 -37.721938 
L 79.658429 -37.927432 
L 83.482092 -38.101289 
L 87.305756 -38.241898 
L 91.12942 -38.35824 
L 94.953084 -38.467502 
L 98.776747 -38.5914 
L 102.600411 -38.751449 
L 106.424075 -38.964627 
L 110.247739 -39.240886 
L 114.071402 -39.582575 
L 117.895066 -39.985167 
L 121.71873 -40.439136 
L 125.542394 -40.933148 
L 129.366058 -41.458202 
L 133.189721 -42.011704 
L 137.013385 -42.600216 
L 140.837049 -43.239129 
L 144.660713 -43.947825 
L 148.484376 -44.74161 
L 152.30804 -45.625389 
L 156.131704 -46.594033 
L 159.955368 -47.639312 
L 163.779032 -48.758018 
L 167.602695 -49.955939 
L 171.426359 -51.246914 
L 175.250023 -52.64972 
L 179.073687 -54.18447 
L 182.89735 -55.867522 
L 186.721014 -57.705171 
L 190.544678 -59.691111 
L 194.368342 -61.813127 
L 198.192005 -64.066307 
L 202.015669 -66.46116 
L 205.839333 -69.017635 
L 209.662997 -71.74953 
L 213.486661 -74.65365 
L 217.310324 -77.713285 
L 221.133988 -80.911943 
L 224.957652 -84.245115 
L 228.781316 -87.721746 
L 232.604979 -91.357001 
L 236.428643 -95.16455 
L 240.252307 -99.15508 
L 244.075971 -103.340713 
L 247.899635 -107.740668 
L 251.723298 -112.388147 
L 255.546962 -117.345044 
L 259.370626 -122.722708 
L 263.19429 -128.683287 
L 267.017953 -135.389951 
L 270.841617 -142.91697 
L 274.665281 -151.192283 
L 278.488945 -160.043992 
L 282.312608 -169.331558 
L 286.136272 -179.053367 
L 289.959936 -189.339009 
L 293.7836 -200.338967 
L 297.607264 -212.107045 
L 301.430927 -224.563336 
L 305.254591 -237.547673 
L 309.078255 -250.894311 
L 312.901919 -264.446673 
L 316.725582 -277.998621 
L 320.549246 -291.228575 
L 324.37291 -303.704717 
L 328.196574 -314.97476 
L 332.020238 -324.675674 
L 335.843901 -332.580986 
L 339.667565 -338.564102 
L 343.491229 -342.53309 
L 347.314893 -344.403228 
L 351.138556 -344.117695 
L 354.96222 -341.682643 
L 358.785884 -337.192847 
L 362.609548 -330.84523 
L 366.433212 -322.929796 
L 370.256875 -313.780868 
L 374.080539 -303.702621 
L 377.904203 -292.919594 
L 381.727867 -281.58922 
L 385.55153 -269.856594 
L 389.375194 -257.894528 
L 393.198858 -245.893574 
L 397.022522 -234.020879 
L 400.846185 -222.395071 
L 404.669849 -211.099615 
L 408.493513 -200.212146 
L 412.317177 -189.814972 
L 416.140841 -179.98076 
L 419.964504 -170.755836 
L 423.788168 -162.158461 
L 427.611832 -154.186811 
L 431.435496 -146.825702 
L 435.259159 -140.052788 
L 439.082823 -133.846716 
L 442.906487 -128.187252 
L 446.730151 -123.037427 
L 450.553815 -118.319655 
L 454.377478 -113.914337 
L 458.201142 -109.696867 
L 462.024806 -105.597753 
L 465.84847 -101.646532 
L 469.672133 -97.961908 
L 473.495797 -94.684817 
L 477.319461 -91.897873 
L 481.143125 -89.588058 
L 484.966788 -87.670351 
L 488.790452 -86.040436 
L 492.614116 -84.615084 
L 496.43778 -83.34491 
L 500.261444 -82.208009 
L 504.085107 -81.197098 
L 507.908771 -80.308036 
L 511.732435 -79.533675 
L 515.556099 -78.863546 
L 519.379762 -78.286116 
L 523.203426 -77.789599 
L 527.02709 -77.360423 
L 530.850754 -76.981749 
L 534.674418 -76.634513 
L 538.498081 -76.30081 
L 542.321745 -75.967073 
L 546.145409 -75.62473 
L 549.969073 -75.268246 
L 553.792736 -74.892413 
L 557.6164 -74.490983 
L 561.440064 -74.057364 
L 565.263728 -73.586438 
L 569.087392 -73.075734 
L 572.911055 -72.525019 
L 576.734719 -71.934868 
L 580.558383 -71.305632 
L 584.382047 -70.637485 
L 588.20571 -69.930814 
L 592.029374 -69.185873 
L 595.853038 -68.401598 
L 599.676702 -67.574697 
L 603.500365 -66.700054 
L 607.324029 -65.772405 
L 611.147693 -64.78826 
L 614.971357 -63.747146 
L 618.795021 -62.651917 
L 622.618684 -61.508404 
L 626.442348 -60.32471 
L 630.266012 -59.110265 
L 634.089676 -57.874853 
L 637.913339 -56.62789 
L 641.737003 -55.378199 
L 645.560667 -54.134277 
L 649.384331 -52.904838 
L 653.207995 -51.699291 
L 657.031658 -50.527864 
L 660.855322 -49.401208 
L 664.678986 -48.32948 
L 668.50265 -47.321113 
L 672.326313 -46.381636 
L 676.149977 -45.512943 
L 679.973641 -44.713293 
L 683.797305 -43.978044 
L 687.620968 -43.300892 
L 691.444632 -42.675204 
L 695.268296 -42.095055 
L 699.09196 -41.555753 
L 702.915624 -41.053802 
L 706.739287 -40.586472 
L 710.562951 -40.151237 
L 714.386615 -39.745368 
L 718.210279 -39.365884 
L 722.033942 -39.009931 
L 725.857606 -38.675441 
L 729.68127 -38.3618 
L 733.504934 -38.070193 
L 737.328598 -37.803424 
L 741.152261 -37.565177 
L 744.975925 -37.358936 
L 748.799589 -37.186914 
L 752.623253 -37.049312 
L 756.446916 -36.944129 
L 760.27058 -36.867495 
L 764.094244 -36.814377 
L 767.917908 -36.779396 
L 771.741571 -36.757528 
L 775.565235 -36.744558 
L 779.388899 -36.737261 
L 783.212563 -36.733367 
L 787.036227 -36.731394 
L 790.85989 -36.730444 
L 794.683554 -36.730009 
L 798.507218 -36.729819 
L 802.330882 -36.72974 
L 806.154545 -36.729707 
L 806.154545 -36.729707 
L 806.154545 -36.729707 
L 802.330882 -36.72974 
L 798.507218 -36.729819 
L 794.683554 -36.730009 
L 790.85989 -36.730444 
L 787.036227 -36.731394 
L 783.212563 -36.733367 
L 779.388899 -36.737261 
L 775.565235 -36.744558 
L 771.741571 -36.757528 
L 767.917908 -36.779396 
L 764.094244 -36.814378 
L 760.27058 -36.867498 
L 756.446916 -36.944139 
L 752.623253 -37.049341 
L 748.799589 -37.186994 
L 744.975925 -37.359139 
L 741.152261 -37.565653 
L 737.328598 -37.804474 
L 733.504934 -38.072395 
L 729.68127 -38.366239 
L 725.857606 -38.684124 
L 722.033942 -39.026468 
L 718.210279 -39.396519 
L 714.386615 -39.800275 
L 710.562951 -40.245844 
L 706.739287 -40.742577 
L 702.915624 -41.300527 
L 699.09196 -41.930682 
L 695.268296 -42.64566 
L 691.444632 -43.459713 
L 687.620968 -44.387069 
L 683.797305 -45.439172 
L 679.973641 -46.622741 
L 676.149977 -47.94002 
L 672.326313 -49.390413 
L 668.50265 -50.971755 
L 664.678986 -52.681025 
L 660.855322 -54.516377 
L 657.031658 -56.481487 
L 653.207995 -58.589588 
L 649.384331 -60.862429 
L 645.560667 -63.32226 
L 641.737003 -65.980732 
L 637.913339 -68.831468 
L 634.089676 -71.849704 
L 630.266012 -74.996842 
L 626.442348 -78.226278 
L 622.618684 -81.490071 
L 618.795021 -84.747967 
L 614.971357 -87.976709 
L 611.147693 -91.173173 
L 607.324029 -94.347037 
L 603.500365 -97.506802 
L 599.676702 -100.648389 
L 595.853038 -103.75226 
L 592.029374 -106.787561 
L 588.20571 -109.718174 
L 584.382047 -112.507753 
L 580.558383 -115.12378 
L 576.734719 -117.540757 
L 572.911055 -119.74159 
L 569.087392 -121.716857 
L 565.263728 -123.463362 
L 561.440064 -124.983409 
L 557.6164 -126.284417 
L 553.792736 -127.37744 
L 549.969073 -128.274316 
L 546.145409 -128.98476 
L 542.321745 -129.514523 
L 538.498081 -129.865088 
L 534.674418 -130.036229 
L 530.850754 -130.032837 
L 527.02709 -129.873118 
L 523.203426 -129.590419 
L 519.379762 -129.224412 
L 515.556099 -128.80885 
L 511.732435 -128.368728 
L 507.908771 -127.930135 
L 504.085107 -127.531499 
L 500.261444 -127.223116 
L 496.43778 -127.054743 
L 492.614116 -127.063405 
L 488.790452 -127.273964 
L 484.966788 -127.715238 
L 481.143125 -128.441145 
L 477.319461 -129.535441 
L 473.495797 -131.082757 
L 469.672133 -133.116543 
L 465.84847 -135.585918 
L 462.024806 -138.377797 
L 458.201142 -141.383802 
L 454.377478 -144.562638 
L 450.553815 -147.957895 
L 446.730151 -151.669977 
L 442.906487 -155.809247 
L 439.082823 -160.461211 
L 435.259159 -165.679171 
L 431.435496 -171.495859 
L 427.611832 -177.933102 
L 423.788168 -184.999968 
L 419.964504 -192.68757 
L 416.140841 -200.968447 
L 412.317177 -209.797749 
L 408.493513 -219.114764 
L 404.669849 -228.852206 
L 400.846185 -238.953423 
L 397.022522 -249.378249 
L 393.198858 -260.079204 
L 389.375194 -270.961756 
L 385.55153 -281.868779 
L 381.727867 -292.61091 
L 377.904203 -303.01488 
L 374.080539 -312.937274 
L 370.256875 -322.223369 
L 366.433212 -330.648781 
L 362.609548 -337.904341 
L 358.785884 -343.645817 
L 354.96222 -347.570848 
L 351.138556 -349.470693 
L 347.314893 -349.24167 
L 343.491229 -346.873335 
L 339.667565 -342.424109 
L 335.843901 -335.986258 
L 332.020238 -327.662775 
L 328.196574 -317.590104 
L 324.37291 -305.998808 
L 320.549246 -293.248862 
L 316.725582 -279.784741 
L 312.901919 -266.029682 
L 309.078255 -252.298658 
L 305.254591 -238.793534 
L 301.430927 -225.667833 
L 297.607264 -213.084416 
L 293.7836 -201.200613 
L 289.959936 -190.094165 
L 286.136272 -179.710394 
L 282.312608 -169.899187 
L 278.488945 -160.531776 
L 274.665281 -151.610066 
L 270.841617 -143.273861 
L 267.017953 -135.693547 
L 263.19429 -128.939517 
L 259.370626 -122.936195 
L 255.546962 -117.519652 
L 251.723298 -112.527463 
L 247.899635 -107.84836 
L 244.075971 -103.42078 
L 240.252307 -99.211981 
L 236.428643 -95.203145 
L 232.604979 -91.38222 
L 228.781316 -87.73806 
L 224.957652 -84.256024 
L 221.133988 -80.91973 
L 217.310324 -77.719151 
L 213.486661 -74.658113 
L 209.662997 -71.752865 
L 205.839333 -69.020147 
L 202.015669 -66.463266 
L 198.192005 -64.068469 
L 194.368342 -61.815736 
L 190.544678 -59.694383 
L 186.721014 -57.70909 
L 182.89735 -55.871845 
L 179.073687 -54.188816 
L 175.250023 -52.653706 
L 171.426359 -51.250277 
L 167.602695 -49.958589 
L 163.779032 -48.760004 
L 159.955368 -47.640749 
L 156.131704 -46.595041 
L 152.30804 -45.626066 
L 148.484376 -44.742038 
L 144.660713 -43.948076 
L 140.837049 -43.239268 
L 137.013385 -42.600311 
L 133.189721 -42.011841 
L 129.366058 -41.45853 
L 125.542394 -40.933961 
L 121.71873 -40.440952 
L 117.895066 -39.98875 
L 114.071402 -39.588799 
L 110.247739 -39.250397 
L 106.424075 -38.977401 
L 102.600411 -38.766517 
L 98.776747 -38.607002 
L 94.953084 -38.481677 
L 91.12942 -38.369537 
L 87.305756 -38.249792 
L 83.482092 -38.106125 
L 79.658429 -37.930029 
L 75.834765 -37.72316 
L 72.011101 -37.498362 
L 68.187437 -37.277456 
L 64.363773 -37.084343 
L 60.54011 -36.935924 
L 56.716446 -36.836422 
L 52.892782 -36.778511 
L 49.069118 -36.749327 
L 45.245455 -36.73661 
z
" style="stroke: #ffffff"/>
    </defs>
    <g>
     <use xlink:href="#m98dd6e5f4c" x="0" y="459.729687" style="fill: #dd8452; fill-opacity: 0.75; stroke: #ffffff"/>
    </g>
   </g>
   <g id="FillBetweenPolyCollection_7">
    <defs>
     <path id="me81074db08" d="M 45.245455 -36.73661 
L 45.245455 -36.73661 
L 49.069118 -36.749327 
L 52.892782 -36.778511 
L 56.716446 -36.836422 
L 60.54011 -36.935924 
L 64.363773 -37.084343 
L 68.187437 -37.277456 
L 72.011101 -37.498362 
L 75.834765 -37.72316 
L 79.658429 -37.930029 
L 83.482092 -38.106125 
L 87.305756 -38.249792 
L 91.12942 -38.369537 
L 94.953084 -38.481677 
L 98.776747 -38.607002 
L 102.600411 -38.766517 
L 106.424075 -38.977401 
L 110.247739 -39.250397 
L 114.071402 -39.588799 
L 117.895066 -39.98875 
L 121.71873 -40.440952 
L 125.542394 -40.933961 
L 129.366058 -41.45853 
L 133.189721 -42.011841 
L 137.013385 -42.600311 
L 140.837049 -43.239268 
L 144.660713 -43.948076 
L 148.484376 -44.742038 
L 152.30804 -45.626066 
L 156.131704 -46.595041 
L 159.955368 -47.640749 
L 163.779032 -48.760004 
L 167.602695 -49.958589 
L 171.426359 -51.250277 
L 175.250023 -52.653706 
L 179.073687 -54.188816 
L 182.89735 -55.871845 
L 186.721014 -57.70909 
L 190.544678 -59.694383 
L 194.368342 -61.815736 
L 198.192005 -64.068469 
L 202.015669 -66.463266 
L 205.839333 -69.020147 
L 209.662997 -71.752865 
L 213.486661 -74.658113 
L 217.310324 -77.719151 
L 221.133988 -80.91973 
L 224.957652 -84.256024 
L 228.781316 -87.73806 
L 232.604979 -91.38222 
L 236.428643 -95.203145 
L 240.252307 -99.211981 
L 244.075971 -103.42078 
L 247.899635 -107.84836 
L 251.723298 -112.527463 
L 255.546962 -117.519652 
L 259.370626 -122.936195 
L 263.19429 -128.939517 
L 267.017953 -135.693547 
L 270.841617 -143.273861 
L 274.665281 -151.610066 
L 278.488945 -160.531776 
L 282.312608 -169.899187 
L 286.136272 -179.710394 
L 289.959936 -190.094165 
L 293.7836 -201.200613 
L 297.607264 -213.084416 
L 301.430927 -225.667833 
L 305.254591 -238.793534 
L 309.078255 -252.298658 
L 312.901919 -266.029682 
L 316.725582 -279.784741 
L 320.549246 -293.248862 
L 324.37291 -305.998808 
L 328.196574 -317.590104 
L 332.020238 -327.662775 
L 335.843901 -335.986258 
L 339.667565 -342.424109 
L 343.491229 -346.873335 
L 347.314893 -349.24167 
L 351.138556 -349.470693 
L 354.96222 -347.570848 
L 358.785884 -343.645817 
L 362.609548 -337.904341 
L 366.433212 -330.648781 
L 370.256875 -322.223369 
L 374.080539 -312.937274 
L 377.904203 -303.01488 
L 381.727867 -292.61091 
L 385.55153 -281.868779 
L 389.375194 -270.961756 
L 393.198858 -260.079204 
L 397.022522 -249.378249 
L 400.846185 -238.953423 
L 404.669849 -228.852206 
L 408.493513 -219.114764 
L 412.317177 -209.797749 
L 416.140841 -200.968447 
L 419.964504 -192.68757 
L 423.788168 -184.999968 
L 427.611832 -177.933102 
L 431.435496 -171.495859 
L 435.259159 -165.679171 
L 439.082823 -160.461211 
L 442.906487 -155.809247 
L 446.730151 -151.669977 
L 450.553815 -147.957895 
L 454.377478 -144.562638 
L 458.201142 -141.383802 
L 462.024806 -138.377797 
L 465.84847 -135.585918 
L 469.672133 -133.116543 
L 473.495797 -131.082757 
L 477.319461 -129.535441 
L 481.143125 -128.441145 
L 484.966788 -127.715238 
L 488.790452 -127.273964 
L 492.614116 -127.063405 
L 496.43778 -127.054743 
L 500.261444 -127.223116 
L 504.085107 -127.531499 
L 507.908771 -127.930135 
L 511.732435 -128.368728 
L 515.556099 -128.80885 
L 519.379762 -129.224412 
L 523.203426 -129.590419 
L 527.02709 -129.873118 
L 530.850754 -130.032837 
L 534.674418 -130.036229 
L 538.498081 -129.865088 
L 542.321745 -129.514523 
L 546.145409 -128.98476 
L 549.969073 -128.274316 
L 553.792736 -127.37744 
L 557.6164 -126.284417 
L 561.440064 -124.983409 
L 565.263728 -123.463362 
L 569.087392 -121.716857 
L 572.911055 -119.74159 
L 576.734719 -117.540757 
L 580.558383 -115.12378 
L 584.382047 -112.507753 
L 588.20571 -109.718174 
L 592.029374 -106.787561 
L 595.853038 -103.75226 
L 599.676702 -100.648389 
L 603.500365 -97.506802 
L 607.324029 -94.347037 
L 611.147693 -91.173173 
L 614.971357 -87.976709 
L 618.795021 -84.747967 
L 622.618684 -81.490071 
L 626.442348 -78.226278 
L 630.266012 -74.996842 
L 634.089676 -71.849704 
L 637.913339 -68.831468 
L 641.737003 -65.980732 
L 645.560667 -63.32226 
L 649.384331 -60.862429 
L 653.207995 -58.589588 
L 657.031658 -56.481487 
L 660.855322 -54.516377 
L 664.678986 -52.681025 
L 668.50265 -50.971755 
L 672.326313 -49.390413 
L 676.149977 -47.94002 
L 679.973641 -46.622741 
L 683.797305 -45.439172 
L 687.620968 -44.387069 
L 691.444632 -43.459713 
L 695.268296 -42.64566 
L 699.09196 -41.930682 
L 702.915624 -41.300527 
L 706.739287 -40.742577 
L 710.562951 -40.245844 
L 714.386615 -39.800275 
L 718.210279 -39.396519 
L 722.033942 -39.026468 
L 725.857606 -38.684124 
L 729.68127 -38.366239 
L 733.504934 -38.072395 
L 737.328598 -37.804474 
L 741.152261 -37.565653 
L 744.975925 -37.359139 
L 748.799589 -37.186994 
L 752.623253 -37.049341 
L 756.446916 -36.944139 
L 760.27058 -36.867498 
L 764.094244 -36.814378 
L 767.917908 -36.779396 
L 771.741571 -36.757528 
L 775.565235 -36.744558 
L 779.388899 -36.737261 
L 783.212563 -36.733367 
L 787.036227 -36.731394 
L 790.85989 -36.730444 
L 794.683554 -36.730009 
L 798.507218 -36.729819 
L 802.330882 -36.72974 
L 806.154545 -36.729707 
L 806.154545 -36.730518 
L 806.154545 -36.730518 
L 802.330882 -36.731155 
L 798.507218 -36.73217 
L 794.683554 -36.733728 
L 790.85989 -36.736058 
L 787.036227 -36.739503 
L 783.212563 -36.744608 
L 779.388899 -36.752266 
L 775.565235 -36.763916 
L 771.741571 -36.781765 
L 767.917908 -36.808982 
L 764.094244 -36.849757 
L 760.27058 -36.909144 
L 756.446916 -36.992621 
L 752.623253 -37.105397 
L 748.799589 -37.251591 
L 744.975925 -37.433536 
L 741.152261 -37.651449 
L 737.328598 -37.903665 
L 733.504934 -38.187444 
L 729.68127 -38.500188 
L 725.857606 -38.840747 
L 722.033942 -39.210481 
L 718.210279 -39.613832 
L 714.386615 -40.058263 
L 710.562951 -40.553614 
L 706.739287 -41.11117 
L 702.915624 -41.743039 
L 699.09196 -42.462285 
L 695.268296 -43.283552 
L 691.444632 -44.223076 
L 687.620968 -45.297134 
L 683.797305 -46.519471 
L 679.973641 -47.899554 
L 676.149977 -49.442881 
L 672.326313 -51.152436 
L 668.50265 -53.029495 
L 664.678986 -55.073687 
L 660.855322 -57.284396 
L 657.031658 -59.664721 
L 653.207995 -62.225537 
L 649.384331 -64.984949 
L 645.560667 -67.961126 
L 641.737003 -71.162332 
L 637.913339 -74.580752 
L 634.089676 -78.193463 
L 630.266012 -81.968256 
L 626.442348 -85.870451 
L 622.618684 -89.869943 
L 618.795021 -93.949605 
L 614.971357 -98.112658 
L 611.147693 -102.38245 
L 607.324029 -106.790632 
L 603.500365 -111.358349 
L 599.676702 -116.080882 
L 595.853038 -120.92308 
L 592.029374 -125.825037 
L 588.20571 -130.712936 
L 584.382047 -135.510978 
L 580.558383 -140.152489 
L 576.734719 -144.588264 
L 572.911055 -148.789979 
L 569.087392 -152.74834 
L 565.263728 -156.468424 
L 561.440064 -159.965142 
L 557.6164 -163.259714 
L 553.792736 -166.376337 
L 549.969073 -169.338813 
L 546.145409 -172.168144 
L 542.321745 -174.881821 
L 538.498081 -177.494901 
L 534.674418 -180.023776 
L 530.850754 -182.493542 
L 527.02709 -184.945592 
L 523.203426 -187.437423 
L 519.379762 -190.03058 
L 515.556099 -192.774651 
L 511.732435 -195.701117 
L 507.908771 -198.831265 
L 504.085107 -202.18732 
L 500.261444 -205.793522 
L 496.43778 -209.666258 
L 492.614116 -213.804598 
L 488.790452 -218.193094 
L 484.966788 -222.819383 
L 481.143125 -227.696022 
L 477.319461 -232.865381 
L 473.495797 -238.370483 
L 469.672133 -244.202716 
L 465.84847 -250.26865 
L 462.024806 -256.412591 
L 458.201142 -262.484516 
L 454.377478 -268.403997 
L 450.553815 -274.179784 
L 446.730151 -279.883378 
L 442.906487 -285.6033 
L 439.082823 -291.410786 
L 435.259159 -297.352499 
L 431.435496 -303.462114 
L 427.611832 -309.77011 
L 423.788168 -316.302272 
L 419.964504 -323.074744 
L 416.140841 -330.093094 
L 412.317177 -337.352145 
L 408.493513 -344.835066 
L 404.669849 -352.519451 
L 400.846185 -360.391221 
L 397.022522 -368.447679 
L 393.198858 -376.671781 
L 389.375194 -384.991147 
L 385.55153 -393.261415 
L 381.727867 -401.294932 
L 377.904203 -408.906532 
L 374.080539 -415.924266 
L 370.256875 -422.146146 
L 366.433212 -427.282933 
L 362.609548 -430.949795 
L 358.785884 -432.729688 
L 354.96222 -432.269626 
L 351.138556 -429.353107 
L 347.314893 -423.926888 
L 343.491229 -416.092578 
L 339.667565 -406.07015 
L 335.843901 -394.136979 
L 332.020238 -380.57182 
L 328.196574 -365.647282 
L 324.37291 -349.671401 
L 320.549246 -333.019155 
L 316.725582 -316.097799 
L 312.901919 -299.260058 
L 309.078255 -282.737957 
L 305.254591 -266.655298 
L 301.430927 -251.10338 
L 297.607264 -236.203056 
L 293.7836 -222.089153 
L 289.959936 -208.832703 
L 286.136272 -196.383273 
L 282.312608 -184.601338 
L 278.488945 -173.371396 
L 274.665281 -162.708768 
L 270.841617 -152.765249 
L 267.017953 -143.720788 
L 263.19429 -135.652203 
L 259.370626 -128.486631 
L 255.546962 -122.058785 
L 251.723298 -116.200835 
L 247.899635 -110.792556 
L 244.075971 -105.76075 
L 240.252307 -101.059417 
L 236.428643 -96.655824 
L 232.604979 -92.524074 
L 228.781316 -88.639706 
L 224.957652 -84.975573 
L 221.133988 -81.503802 
L 217.310324 -78.204079 
L 213.486661 -75.071317 
L 209.662997 -72.114315 
L 205.839333 -69.343839 
L 202.015669 -66.758577 
L 198.192005 -64.341337 
L 194.368342 -62.069643 
L 190.544678 -59.93115 
L 186.721014 -57.929518 
L 182.89735 -56.076211 
L 179.073687 -54.377236 
L 175.250023 -52.82635 
L 171.426359 -51.407467 
L 167.602695 -50.100798 
L 163.779032 -48.88781 
L 159.955368 -47.754777 
L 156.131704 -46.695922 
L 152.30804 -45.714425 
L 148.484376 -44.818497 
L 144.660713 -44.013271 
L 140.837049 -43.293879 
L 137.013385 -42.645089 
L 133.189721 -42.04764 
L 129.366058 -41.486325 
L 125.542394 -40.954832 
L 121.71873 -40.456052 
L 117.895066 -39.999242 
L 114.071402 -39.595781 
L 110.247739 -39.254838 
L 106.424075 -38.980096 
L 102.600411 -38.768077 
L 98.776747 -38.607863 
L 94.953084 -38.482131 
L 91.12942 -38.369765 
L 87.305756 -38.249902 
L 83.482092 -38.106176 
L 79.658429 -37.930052 
L 75.834765 -37.72317 
L 72.011101 -37.498366 
L 68.187437 -37.277458 
L 64.363773 -37.084343 
L 60.54011 -36.935924 
L 56.716446 -36.836422 
L 52.892782 -36.778511 
L 49.069118 -36.749327 
L 45.245455 -36.73661 
z
" style="stroke: #ffffff"/>
    </defs>
    <g>
     <use xlink:href="#me81074db08" x="0" y="459.729687" style="fill: #4c72b0; fill-opacity: 0.75; stroke: #ffffff"/>
    </g>
   </g>
   <g id="line2d_37">
    <path d="M 290.365154 423 
L 290.365154 7.2 
" style="fill: none; stroke-dasharray: 2.96,1.28; stroke-dashoffset: 0; stroke: #d3d3d3; stroke-width: 0.8"/>
   </g>
   <g id="line2d_38">
    <path d="M 471.305044 423 
L 471.305044 7.2 
" style="fill: none; stroke-dasharray: 2.96,1.28; stroke-dashoffset: 0; stroke: #d3d3d3; stroke-width: 0.8"/>
   </g>
   <g id="line2d_39">
    <path d="M 393.949981 423 
L 393.949981 7.2 
" style="fill: none; stroke-dasharray: 2.96,1.28; stroke-dashoffset: 0; stroke: #d3d3d3; stroke-width: 0.8"/>
   </g>
   <g id="line2d_40">
    <path d="M 7.2 423 
L 844.2 423 
" style="fill: none; stroke: #808080; stroke-width: 0.5; stroke-linecap: round"/>
   </g>
   <g id="text_12">
    <text style="font-size: 8px; font-family: 'Arial', 'DejaVu Sans', 'Liberation Sans', 'Bitstream Vera Sans', sans-serif; fill: #808080" transform="translate(296.618904 126.53675) rotate(-90)">International Poverty Line: $3.00</text>
   </g>
   <g id="text_13">
    <text style="font-size: 8px; font-family: 'Arial', 'DejaVu Sans', 'Liberation Sans', 'Bitstream Vera Sans', sans-serif; fill: #808080" transform="translate(477.031294 83.25175) rotate(-90)">World mean: $21.85</text>
   </g>
   <g id="text_14">
    <text style="font-size: 8px; font-family: 'Arial', 'DejaVu Sans', 'Liberation Sans', 'Bitstream Vera Sans', sans-serif; fill: #808080" transform="translate(399.676231 85.02925) rotate(-90)">World median: $9.35</text>
   </g>
   <g id="legend_1">
    <g id="patch_3">
     <path d="M 683.8 212.000625 
L 944.253125 212.000625 
Q 946.253125 212.000625 946.253125 210.000625 
L 946.253125 97.36 
Q 946.253125 95.36 944.253125 95.36 
L 683.8 95.36 
Q 681.8 95.36 681.8 97.36 
L 681.8 210.000625 
Q 681.8 212.000625 683.8 212.000625 
z
" style="fill: #ffffff; opacity: 0.8; stroke: #cccccc; stroke-linejoin: miter"/>
    </g>
    <g id="text_15">
     <text style="font-size: 10px; font-family: 'Arial', 'DejaVu Sans', 'Liberation Sans', 'Bitstream Vera Sans', sans-serif; text-anchor: start; fill: #262626" x="798.182813" y="106.517812" transform="rotate(-0 798.182813 106.517812)">Region</text>
    </g>
    <g id="patch_4">
     <path d="M 685.8 120.780312 
L 705.8 120.780312 
L 705.8 113.780312 
L 685.8 113.780312 
z
" style="fill: #4c72b0; fill-opacity: 0.75; stroke: #ffffff; stroke-linejoin: miter"/>
    </g>
    <g id="text_16">
     <text style="font-size: 10px; font-family: 'Arial', 'DejaVu Sans', 'Liberation Sans', 'Bitstream Vera Sans', sans-serif; text-anchor: start; fill: #262626" x="713.8" y="120.780312" transform="rotate(-0 713.8 120.780312)">East Asia and Pacific</text>
    </g>
    <g id="patch_5">
     <path d="M 685.8 135.0475 
L 705.8 135.0475 
L 705.8 128.0475 
L 685.8 128.0475 
z
" style="fill: #dd8452; fill-opacity: 0.75; stroke: #ffffff; stroke-linejoin: miter"/>
    </g>
    <g id="text_17">
     <text style="font-size: 10px; font-family: 'Arial', 'DejaVu Sans', 'Liberation Sans', 'Bitstream Vera Sans', sans-serif; text-anchor: start; fill: #262626" x="713.8" y="135.0475" transform="rotate(-0 713.8 135.0475)">Europe and Central Asia</text>
    </g>
    <g id="patch_6">
     <path d="M 685.8 149.192812 
L 705.8 149.192812 
L 705.8 142.192812 
L 685.8 142.192812 
z
" style="fill: #55a868; fill-opacity: 0.75; stroke: #ffffff; stroke-linejoin: miter"/>
    </g>
    <g id="text_18">
     <text style="font-size: 10px; font-family: 'Arial', 'DejaVu Sans', 'Liberation Sans', 'Bitstream Vera Sans', sans-serif; text-anchor: start; fill: #262626" x="713.8" y="149.192812" transform="rotate(-0 713.8 149.192812)">Latin America and Caribbean</text>
    </g>
    <g id="patch_7">
     <path d="M 685.8 163.46 
L 705.8 163.46 
L 705.8 156.46 
L 685.8 156.46 
z
" style="fill: #c44e52; fill-opacity: 0.75; stroke: #ffffff; stroke-linejoin: miter"/>
    </g>
    <g id="text_19">
     <text style="font-size: 10px; font-family: 'Arial', 'DejaVu Sans', 'Liberation Sans', 'Bitstream Vera Sans', sans-serif; text-anchor: start; fill: #262626" x="713.8" y="163.46" transform="rotate(-0 713.8 163.46)">Middle East, North Africa, Afghanistan and Pakistan</text>
    </g>
    <g id="patch_8">
     <path d="M 685.8 177.7225 
L 705.8 177.7225 
L 705.8 170.7225 
L 685.8 170.7225 
z
" style="fill: #8172b3; fill-opacity: 0.75; stroke: #ffffff; stroke-linejoin: miter"/>
    </g>
    <g id="text_20">
     <text style="font-size: 10px; font-family: 'Arial', 'DejaVu Sans', 'Liberation Sans', 'Bitstream Vera Sans', sans-serif; text-anchor: start; fill: #262626" x="713.8" y="177.7225" transform="rotate(-0 713.8 177.7225)">North America</text>
    </g>
    <g id="patch_9">
     <path d="M 685.8 191.867812 
L 705.8 191.867812 
L 705.8 184.867812 
L 685.8 184.867812 
z
" style="fill: #937860; fill-opacity: 0.75; stroke: #ffffff; stroke-linejoin: miter"/>
    </g>
    <g id="text_21">
     <text style="font-size: 10px; font-family: 'Arial', 'DejaVu Sans', 'Liberation Sans', 'Bitstream Vera Sans', sans-serif; text-anchor: start; fill: #262626" x="713.8" y="191.867812" transform="rotate(-0 713.8 191.867812)">South Asia</text>
    </g>
    <g id="patch_10">
     <path d="M 685.8 206.013125 
L 705.8 206.013125 
L 705.8 199.013125 
L 685.8 199.013125 
z
" style="fill: #da8bc3; fill-opacity: 0.75; stroke: #ffffff; stroke-linejoin: miter"/>
    </g>
    <g id="text_22">
     <text style="font-size: 10px; font-family: 'Arial', 'DejaVu Sans', 'Liberation Sans', 'Bitstream Vera Sans', sans-serif; text-anchor: start; fill: #262626" x="713.8" y="206.013125" transform="rotate(-0 713.8 206.013125)">Sub-Saharan Africa</text>
    </g>
   </g>
  </g>
 </g>
</svg>
