<?xml version="1.0" encoding="utf-8" standalone="no"?>
<!DOCTYPE svg PUBLIC "-//W3C//DTD SVG 1.1//EN"
  "http://www.w3.org/Graphics/SVG/1.1/DTD/svg11.dtd">
<svg xmlns:xlink="http://www.w3.org/1999/xlink" width="953.453125pt" height="477.077187pt" viewBox="0 0 953.453125 477.077187" xmlns="http://www.w3.org/2000/svg" version="1.1">
 <metadata>
  <rdf:RDF xmlns:dc="http://purl.org/dc/elements/1.1/" xmlns:cc="http://creativecommons.org/ns#" xmlns:rdf="http://www.w3.org/1999/02/22-rdf-syntax-ns#">
   <cc:Work>
    <dc:type rdf:resource="http://purl.org/dc/dcmitype/StillImage"/>
    <dc:date>2026-05-26T16:01:57.060809</dc:date>
    <dc:format>image/svg+xml</dc:format>
    <dc:creator>
     <cc:Agent>
      <dc:title>Matplotlib v3.10.1, https://matplotlib.org/</dc:title>
     </cc:Agent>
    </dc:creator>
   </cc:Work>
  </rdf:RDF>
 </metadata>
 <defs>
  <style type="text/css">*{stroke-linejoin: round; stroke-linecap: butt}</style>
 </defs>
 <g id="figure_1">
  <g id="patch_1">
   <path d="M 0 477.077187 
L 953.453125 477.077187 
L 953.453125 0 
L 0 0 
z
" style="fill: #ffffff"/>
  </g>
  <g id="axes_1">
   <g id="patch_2">
    <path d="M 7.2 440.3475 
L 844.2 440.3475 
L 844.2 24.5475 
L 7.2 24.5475 
z
" style="fill: #ffffff"/>
   </g>
   <g id="matplotlib.axis_1">
    <g id="xtick_1">
     <g id="line2d_1">
      <defs>
       <path id="m23724b8d22" d="M 0 0 
L 0 3.5 
" style="stroke: #262626; stroke-width: 0.8"/>
      </defs>
      <g>
       <use xlink:href="#m23724b8d22" x="189.621361" y="440.3475" style="fill: #262626; stroke: #262626; stroke-width: 0.8"/>
      </g>
     </g>
     <g id="text_1">
      <text style="font-size: 10px; font-family: 'Arial', 'DejaVu Sans', 'Liberation Sans', 'Bitstream Vera Sans', sans-serif; text-anchor: middle; fill: #262626" x="189.621361" y="454.505312" transform="rotate(-0 189.621361 454.505312)">$1</text>
     </g>
    </g>
    <g id="xtick_2">
     <g id="line2d_2">
      <g>
       <use xlink:href="#m23724b8d22" x="252.538242" y="440.3475" style="fill: #262626; stroke: #262626; stroke-width: 0.8"/>
      </g>
     </g>
     <g id="text_2">
      <text style="font-size: 10px; font-family: 'Arial', 'DejaVu Sans', 'Liberation Sans', 'Bitstream Vera Sans', sans-serif; text-anchor: middle; fill: #262626" x="252.538242" y="454.505312" transform="rotate(-0 252.538242 454.505312)">$2</text>
     </g>
    </g>
    <g id="xtick_3">
     <g id="line2d_3">
      <g>
       <use xlink:href="#m23724b8d22" x="335.709835" y="440.3475" style="fill: #262626; stroke: #262626; stroke-width: 0.8"/>
      </g>
     </g>
     <g id="text_3">
      <text style="font-size: 10px; font-family: 'Arial', 'DejaVu Sans', 'Liberation Sans', 'Bitstream Vera Sans', sans-serif; text-anchor: middle; fill: #262626" x="335.709835" y="454.505312" transform="rotate(-0 335.709835 454.505312)">$5</text>
     </g>
    </g>
    <g id="xtick_4">
     <g id="line2d_4">
      <g>
       <use xlink:href="#m23724b8d22" x="398.626716" y="440.3475" style="fill: #262626; stroke: #262626; stroke-width: 0.8"/>
      </g>
     </g>
     <g id="text_4">
      <text style="font-size: 10px; font-family: 'Arial', 'DejaVu Sans', 'Liberation Sans', 'Bitstream Vera Sans', sans-serif; text-anchor: middle; fill: #262626" x="398.626716" y="454.505312" transform="rotate(-0 398.626716 454.505312)">$10</text>
     </g>
    </g>
    <g id="xtick_5">
     <g id="line2d_5">
      <g>
       <use xlink:href="#m23724b8d22" x="461.543597" y="440.3475" style="fill: #262626; stroke: #262626; stroke-width: 0.8"/>
      </g>
     </g>
     <g id="text_5">
      <text style="font-size: 10px; font-family: 'Arial', 'DejaVu Sans', 'Liberation Sans', 'Bitstream Vera Sans', sans-serif; text-anchor: middle; fill: #262626" x="461.543597" y="454.505312" transform="rotate(-0 461.543597 454.505312)">$20</text>
     </g>
    </g>
    <g id="xtick_6">
     <g id="line2d_6">
      <g>
       <use xlink:href="#m23724b8d22" x="544.71519" y="440.3475" style="fill: #262626; stroke: #262626; stroke-width: 0.8"/>
      </g>
     </g>
     <g id="text_6">
      <text style="font-size: 10px; font-family: 'Arial', 'DejaVu Sans', 'Liberation Sans', 'Bitstream Vera Sans', sans-serif; text-anchor: middle; fill: #262626" x="544.71519" y="454.505312" transform="rotate(-0 544.71519 454.505312)">$50</text>
     </g>
    </g>
    <g id="xtick_7">
     <g id="line2d_7">
      <g>
       <use xlink:href="#m23724b8d22" x="607.632071" y="440.3475" style="fill: #262626; stroke: #262626; stroke-width: 0.8"/>
      </g>
     </g>
     <g id="text_7">
      <text style="font-size: 10px; font-family: 'Arial', 'DejaVu Sans', 'Liberation Sans', 'Bitstream Vera Sans', sans-serif; text-anchor: middle; fill: #262626" x="607.632071" y="454.505312" transform="rotate(-0 607.632071 454.505312)">$100</text>
     </g>
    </g>
    <g id="xtick_8">
     <g id="line2d_8">
      <g>
       <use xlink:href="#m23724b8d22" x="670.548952" y="440.3475" style="fill: #262626; stroke: #262626; stroke-width: 0.8"/>
      </g>
     </g>
     <g id="text_8">
      <text style="font-size: 10px; font-family: 'Arial', 'DejaVu Sans', 'Liberation Sans', 'Bitstream Vera Sans', sans-serif; text-anchor: middle; fill: #262626" x="670.548952" y="454.505312" transform="rotate(-0 670.548952 454.505312)">$200</text>
     </g>
    </g>
    <g id="xtick_9">
     <g id="line2d_9">
      <g>
       <use xlink:href="#m23724b8d22" x="753.720545" y="440.3475" style="fill: #262626; stroke: #262626; stroke-width: 0.8"/>
      </g>
     </g>
     <g id="text_9">
      <text style="font-size: 10px; font-family: 'Arial', 'DejaVu Sans', 'Liberation Sans', 'Bitstream Vera Sans', sans-serif; text-anchor: middle; fill: #262626" x="753.720545" y="454.505312" transform="rotate(-0 753.720545 454.505312)">$500</text>
     </g>
    </g>
    <g id="xtick_10">
     <g id="line2d_10">
      <g>
       <use xlink:href="#m23724b8d22" x="816.637426" y="440.3475" style="fill: #262626; stroke: #262626; stroke-width: 0.8"/>
      </g>
     </g>
     <g id="text_10">
      <text style="font-size: 10px; font-family: 'Arial', 'DejaVu Sans', 'Liberation Sans', 'Bitstream Vera Sans', sans-serif; text-anchor: middle; fill: #262626" x="816.637426" y="454.505312" transform="rotate(-0 816.637426 454.505312)">$1000</text>
     </g>
    </g>
    <g id="xtick_11">
     <g id="line2d_11">
      <defs>
       <path id="m0114484b80" d="M 0 0 
L 0 2 
" style="stroke: #262626; stroke-width: 0.6"/>
      </defs>
      <g>
       <use xlink:href="#m0114484b80" x="43.532887" y="440.3475" style="fill: #262626; stroke: #262626; stroke-width: 0.6"/>
      </g>
     </g>
    </g>
    <g id="xtick_12">
     <g id="line2d_12">
      <g>
       <use xlink:href="#m0114484b80" x="80.336903" y="440.3475" style="fill: #262626; stroke: #262626; stroke-width: 0.6"/>
      </g>
     </g>
    </g>
    <g id="xtick_13">
     <g id="line2d_13">
      <g>
       <use xlink:href="#m0114484b80" x="106.449768" y="440.3475" style="fill: #262626; stroke: #262626; stroke-width: 0.6"/>
      </g>
     </g>
    </g>
    <g id="xtick_14">
     <g id="line2d_14">
      <g>
       <use xlink:href="#m0114484b80" x="126.70448" y="440.3475" style="fill: #262626; stroke: #262626; stroke-width: 0.6"/>
      </g>
     </g>
    </g>
    <g id="xtick_15">
     <g id="line2d_15">
      <g>
       <use xlink:href="#m0114484b80" x="143.253784" y="440.3475" style="fill: #262626; stroke: #262626; stroke-width: 0.6"/>
      </g>
     </g>
    </g>
    <g id="xtick_16">
     <g id="line2d_16">
      <g>
       <use xlink:href="#m0114484b80" x="157.246022" y="440.3475" style="fill: #262626; stroke: #262626; stroke-width: 0.6"/>
      </g>
     </g>
    </g>
    <g id="xtick_17">
     <g id="line2d_17">
      <g>
       <use xlink:href="#m0114484b80" x="169.366649" y="440.3475" style="fill: #262626; stroke: #262626; stroke-width: 0.6"/>
      </g>
     </g>
    </g>
    <g id="xtick_18">
     <g id="line2d_18">
      <g>
       <use xlink:href="#m0114484b80" x="180.0578" y="440.3475" style="fill: #262626; stroke: #262626; stroke-width: 0.6"/>
      </g>
     </g>
    </g>
    <g id="xtick_19">
     <g id="line2d_19">
      <g>
       <use xlink:href="#m0114484b80" x="289.342258" y="440.3475" style="fill: #262626; stroke: #262626; stroke-width: 0.6"/>
      </g>
     </g>
    </g>
    <g id="xtick_20">
     <g id="line2d_20">
      <g>
       <use xlink:href="#m0114484b80" x="315.455123" y="440.3475" style="fill: #262626; stroke: #262626; stroke-width: 0.6"/>
      </g>
     </g>
    </g>
    <g id="xtick_21">
     <g id="line2d_21">
      <g>
       <use xlink:href="#m0114484b80" x="352.259139" y="440.3475" style="fill: #262626; stroke: #262626; stroke-width: 0.6"/>
      </g>
     </g>
    </g>
    <g id="xtick_22">
     <g id="line2d_22">
      <g>
       <use xlink:href="#m0114484b80" x="366.251377" y="440.3475" style="fill: #262626; stroke: #262626; stroke-width: 0.6"/>
      </g>
     </g>
    </g>
    <g id="xtick_23">
     <g id="line2d_23">
      <g>
       <use xlink:href="#m0114484b80" x="378.372004" y="440.3475" style="fill: #262626; stroke: #262626; stroke-width: 0.6"/>
      </g>
     </g>
    </g>
    <g id="xtick_24">
     <g id="line2d_24">
      <g>
       <use xlink:href="#m0114484b80" x="389.063155" y="440.3475" style="fill: #262626; stroke: #262626; stroke-width: 0.6"/>
      </g>
     </g>
    </g>
    <g id="xtick_25">
     <g id="line2d_25">
      <g>
       <use xlink:href="#m0114484b80" x="498.347613" y="440.3475" style="fill: #262626; stroke: #262626; stroke-width: 0.6"/>
      </g>
     </g>
    </g>
    <g id="xtick_26">
     <g id="line2d_26">
      <g>
       <use xlink:href="#m0114484b80" x="524.460478" y="440.3475" style="fill: #262626; stroke: #262626; stroke-width: 0.6"/>
      </g>
     </g>
    </g>
    <g id="xtick_27">
     <g id="line2d_27">
      <g>
       <use xlink:href="#m0114484b80" x="561.264494" y="440.3475" style="fill: #262626; stroke: #262626; stroke-width: 0.6"/>
      </g>
     </g>
    </g>
    <g id="xtick_28">
     <g id="line2d_28">
      <g>
       <use xlink:href="#m0114484b80" x="575.256732" y="440.3475" style="fill: #262626; stroke: #262626; stroke-width: 0.6"/>
      </g>
     </g>
    </g>
    <g id="xtick_29">
     <g id="line2d_29">
      <g>
       <use xlink:href="#m0114484b80" x="587.377359" y="440.3475" style="fill: #262626; stroke: #262626; stroke-width: 0.6"/>
      </g>
     </g>
    </g>
    <g id="xtick_30">
     <g id="line2d_30">
      <g>
       <use xlink:href="#m0114484b80" x="598.068511" y="440.3475" style="fill: #262626; stroke: #262626; stroke-width: 0.6"/>
      </g>
     </g>
    </g>
    <g id="xtick_31">
     <g id="line2d_31">
      <g>
       <use xlink:href="#m0114484b80" x="707.352968" y="440.3475" style="fill: #262626; stroke: #262626; stroke-width: 0.6"/>
      </g>
     </g>
    </g>
    <g id="xtick_32">
     <g id="line2d_32">
      <g>
       <use xlink:href="#m0114484b80" x="733.465833" y="440.3475" style="fill: #262626; stroke: #262626; stroke-width: 0.6"/>
      </g>
     </g>
    </g>
    <g id="xtick_33">
     <g id="line2d_33">
      <g>
       <use xlink:href="#m0114484b80" x="770.26985" y="440.3475" style="fill: #262626; stroke: #262626; stroke-width: 0.6"/>
      </g>
     </g>
    </g>
    <g id="xtick_34">
     <g id="line2d_34">
      <g>
       <use xlink:href="#m0114484b80" x="784.262087" y="440.3475" style="fill: #262626; stroke: #262626; stroke-width: 0.6"/>
      </g>
     </g>
    </g>
    <g id="xtick_35">
     <g id="line2d_35">
      <g>
       <use xlink:href="#m0114484b80" x="796.382715" y="440.3475" style="fill: #262626; stroke: #262626; stroke-width: 0.6"/>
      </g>
     </g>
    </g>
    <g id="xtick_36">
     <g id="line2d_36">
      <g>
       <use xlink:href="#m0114484b80" x="807.073866" y="440.3475" style="fill: #262626; stroke: #262626; stroke-width: 0.6"/>
      </g>
     </g>
    </g>
    <g id="text_11">
     <text style="font-size: 10px; font-family: 'Arial', 'DejaVu Sans', 'Liberation Sans', 'Bitstream Vera Sans', sans-serif; text-anchor: middle; fill: #262626" x="425.7" y="467.7725" transform="rotate(-0 425.7 467.7725)">Income or consumption (day)</text>
    </g>
   </g>
   <g id="matplotlib.axis_2"/>
   <g id="FillBetweenPolyCollection_1">
    <defs>
     <path id="mf3f15206b0" d="M 45.245455 -36.734297 
L 45.245455 -36.729687 
L 49.069118 -36.729687 
L 52.892782 -36.729687 
L 56.716446 -36.729687 
L 60.54011 -36.729687 
L 64.363773 -36.729687 
L 68.187437 -36.729687 
L 72.011101 -36.729687 
L 75.834765 -36.729687 
L 79.658429 -36.729687 
L 83.482092 -36.729687 
L 87.305756 -36.729687 
L 91.12942 -36.729687 
L 94.953084 -36.729687 
L 98.776747 -36.729687 
L 102.600411 -36.729687 
L 106.424075 -36.729687 
L 110.247739 -36.729687 
L 114.071402 -36.729687 
L 117.895066 -36.729687 
L 121.71873 -36.729687 
L 125.542394 -36.729687 
L 129.366058 -36.729687 
L 133.189721 -36.729687 
L 137.013385 -36.729687 
L 140.837049 -36.729687 
L 144.660713 -36.729687 
L 148.484376 -36.729687 
L 152.30804 -36.729687 
L 156.131704 -36.729687 
L 159.955368 -36.729687 
L 163.779032 -36.729687 
L 167.602695 -36.729687 
L 171.426359 -36.729687 
L 175.250023 -36.729687 
L 179.073687 -36.729687 
L 182.89735 -36.729687 
L 186.721014 -36.729687 
L 190.544678 -36.729687 
L 194.368342 -36.729687 
L 198.192005 -36.729687 
L 202.015669 -36.729687 
L 205.839333 -36.729687 
L 209.662997 -36.729687 
L 213.486661 -36.729687 
L 217.310324 -36.729687 
L 221.133988 -36.729687 
L 224.957652 -36.729687 
L 228.781316 -36.729687 
L 232.604979 -36.729687 
L 236.428643 -36.729687 
L 240.252307 -36.729687 
L 244.075971 -36.729687 
L 247.899635 -36.729687 
L 251.723298 -36.729687 
L 255.546962 -36.729687 
L 259.370626 -36.729687 
L 263.19429 -36.729687 
L 267.017953 -36.729687 
L 270.841617 -36.729687 
L 274.665281 -36.729687 
L 278.488945 -36.729687 
L 282.312608 -36.729687 
L 286.136272 -36.729687 
L 289.959936 -36.729687 
L 293.7836 -36.729687 
L 297.607264 -36.729687 
L 301.430927 -36.729687 
L 305.254591 -36.729687 
L 309.078255 -36.729687 
L 312.901919 -36.729687 
L 316.725582 -36.729687 
L 320.549246 -36.729687 
L 324.37291 -36.729687 
L 328.196574 -36.729687 
L 332.020238 -36.729687 
L 335.843901 -36.729687 
L 339.667565 -36.729687 
L 343.491229 -36.729687 
L 347.314893 -36.729687 
L 351.138556 -36.729687 
L 354.96222 -36.729687 
L 358.785884 -36.729687 
L 362.609548 -36.729687 
L 366.433212 -36.729687 
L 370.256875 -36.729687 
L 374.080539 -36.729687 
L 377.904203 -36.729687 
L 381.727867 -36.729687 
L 385.55153 -36.729687 
L 389.375194 -36.729687 
L 393.198858 -36.729687 
L 397.022522 -36.729687 
L 400.846185 -36.729687 
L 404.669849 -36.729687 
L 408.493513 -36.729687 
L 412.317177 -36.729687 
L 416.140841 -36.729687 
L 419.964504 -36.729687 
L 423.788168 -36.729687 
L 427.611832 -36.729687 
L 431.435496 -36.729687 
L 435.259159 -36.729687 
L 439.082823 -36.729687 
L 442.906487 -36.729687 
L 446.730151 -36.729687 
L 450.553815 -36.729687 
L 454.377478 -36.729687 
L 458.201142 -36.729687 
L 462.024806 -36.729687 
L 465.84847 -36.729687 
L 469.672133 -36.729687 
L 473.495797 -36.729687 
L 477.319461 -36.729687 
L 481.143125 -36.729687 
L 484.966788 -36.729687 
L 488.790452 -36.729687 
L 492.614116 -36.729687 
L 496.43778 -36.729687 
L 500.261444 -36.729687 
L 504.085107 -36.729687 
L 507.908771 -36.729687 
L 511.732435 -36.729687 
L 515.556099 -36.729687 
L 519.379762 -36.729687 
L 523.203426 -36.729687 
L 527.02709 -36.729687 
L 530.850754 -36.729687 
L 534.674418 -36.729687 
L 538.498081 -36.729687 
L 542.321745 -36.729687 
L 546.145409 -36.729687 
L 549.969073 -36.729687 
L 553.792736 -36.729687 
L 557.6164 -36.729687 
L 561.440064 -36.729687 
L 565.263728 -36.729687 
L 569.087392 -36.729687 
L 572.911055 -36.729687 
L 576.734719 -36.729687 
L 580.558383 -36.729687 
L 584.382047 -36.729687 
L 588.20571 -36.729687 
L 592.029374 -36.729687 
L 595.853038 -36.729687 
L 599.676702 -36.729687 
L 603.500365 -36.729687 
L 607.324029 -36.729687 
L 611.147693 -36.729687 
L 614.971357 -36.729687 
L 618.795021 -36.729687 
L 622.618684 -36.729687 
L 626.442348 -36.729687 
L 630.266012 -36.729687 
L 634.089676 -36.729687 
L 637.913339 -36.729687 
L 641.737003 -36.729687 
L 645.560667 -36.729687 
L 649.384331 -36.729687 
L 653.207995 -36.729687 
L 657.031658 -36.729687 
L 660.855322 -36.729687 
L 664.678986 -36.729687 
L 668.50265 -36.729687 
L 672.326313 -36.729687 
L 676.149977 -36.729687 
L 679.973641 -36.729687 
L 683.797305 -36.729687 
L 687.620968 -36.729687 
L 691.444632 -36.729687 
L 695.268296 -36.729687 
L 699.09196 -36.729687 
L 702.915624 -36.729687 
L 706.739287 -36.729687 
L 710.562951 -36.729687 
L 714.386615 -36.729687 
L 718.210279 -36.729687 
L 722.033942 -36.729687 
L 725.857606 -36.729687 
L 729.68127 -36.729687 
L 733.504934 -36.729687 
L 737.328598 -36.729687 
L 741.152261 -36.729687 
L 744.975925 -36.729687 
L 748.799589 -36.729687 
L 752.623253 -36.729687 
L 756.446916 -36.729687 
L 760.27058 -36.729687 
L 764.094244 -36.729687 
L 767.917908 -36.729687 
L 771.741571 -36.729687 
L 775.565235 -36.729687 
L 779.388899 -36.729687 
L 783.212563 -36.729687 
L 787.036227 -36.729687 
L 790.85989 -36.729687 
L 794.683554 -36.729687 
L 798.507218 -36.729687 
L 802.330882 -36.729687 
L 806.154545 -36.729687 
L 806.154545 -36.729687 
L 806.154545 -36.729687 
L 802.330882 -36.729687 
L 798.507218 -36.729687 
L 794.683554 -36.729687 
L 790.85989 -36.729687 
L 787.036227 -36.729687 
L 783.212563 -36.729687 
L 779.388899 -36.729687 
L 775.565235 -36.729687 
L 771.741571 -36.729687 
L 767.917908 -36.729687 
L 764.094244 -36.729687 
L 760.27058 -36.729687 
L 756.446916 -36.729687 
L 752.623253 -36.729687 
L 748.799589 -36.729687 
L 744.975925 -36.729687 
L 741.152261 -36.729687 
L 737.328598 -36.729687 
L 733.504934 -36.729687 
L 729.68127 -36.729687 
L 725.857606 -36.729687 
L 722.033942 -36.729687 
L 718.210279 -36.729687 
L 714.386615 -36.729687 
L 710.562951 -36.729687 
L 706.739287 -36.729687 
L 702.915624 -36.729687 
L 699.09196 -36.729687 
L 695.268296 -36.729687 
L 691.444632 -36.729687 
L 687.620968 -36.729687 
L 683.797305 -36.729688 
L 679.973641 -36.729688 
L 676.149977 -36.729688 
L 672.326313 -36.729688 
L 668.50265 -36.729688 
L 664.678986 -36.729688 
L 660.855322 -36.729688 
L 657.031658 -36.729688 
L 653.207995 -36.729688 
L 649.384331 -36.72969 
L 645.560667 -36.729698 
L 641.737003 -36.729722 
L 637.913339 -36.729789 
L 634.089676 -36.729954 
L 630.266012 -36.730301 
L 626.442348 -36.730944 
L 622.618684 -36.732 
L 618.795021 -36.733595 
L 614.971357 -36.735949 
L 611.147693 -36.739619 
L 607.324029 -36.745874 
L 603.500365 -36.757 
L 599.676702 -36.776153 
L 595.853038 -36.806429 
L 592.029374 -36.849252 
L 588.20571 -36.902919 
L 584.382047 -36.962389 
L 580.558383 -37.020868 
L 576.734719 -37.0725 
L 572.911055 -37.114694 
L 569.087392 -37.148855 
L 565.263728 -37.179255 
L 561.440064 -37.210764 
L 557.6164 -37.246668 
L 553.792736 -37.287753 
L 549.969073 -37.333062 
L 546.145409 -37.38157 
L 542.321745 -37.433338 
L 538.498081 -37.489181 
L 534.674418 -37.549182 
L 530.850754 -37.611515 
L 527.02709 -37.672957 
L 523.203426 -37.731226 
L 519.379762 -37.787688 
L 515.556099 -37.848387 
L 511.732435 -37.922433 
L 507.908771 -38.018644 
L 504.085107 -38.142534 
L 500.261444 -38.295314 
L 496.43778 -38.475159 
L 492.614116 -38.679687 
L 488.790452 -38.908253 
L 484.966788 -39.163234 
L 481.143125 -39.450296 
L 477.319461 -39.777848 
L 473.495797 -40.155642 
L 469.672133 -40.592387 
L 465.84847 -41.093273 
L 462.024806 -41.659794 
L 458.201142 -42.293804 
L 454.377478 -43.003902 
L 450.553815 -43.807839 
L 446.730151 -44.725515 
L 442.906487 -45.765102 
L 439.082823 -46.913356 
L 435.259159 -48.140704 
L 431.435496 -49.419867 
L 427.611832 -50.743666 
L 423.788168 -52.127264 
L 419.964504 -53.594196 
L 416.140841 -55.159965 
L 412.317177 -56.826817 
L 408.493513 -58.590828 
L 404.669849 -60.452004 
L 400.846185 -62.417935 
L 397.022522 -64.498319 
L 393.198858 -66.695546 
L 389.375194 -69.001297 
L 385.55153 -71.406179 
L 381.727867 -73.91715 
L 377.904203 -76.56549 
L 374.080539 -79.390366 
L 370.256875 -82.402757 
L 366.433212 -85.555865 
L 362.609548 -88.749506 
L 358.785884 -91.871486 
L 354.96222 -94.848152 
L 351.138556 -97.668328 
L 347.314893 -100.367651 
L 343.491229 -102.991061 
L 339.667565 -105.561683 
L 335.843901 -108.070934 
L 332.020238 -110.486511 
L 328.196574 -112.766798 
L 324.37291 -114.871145 
L 320.549246 -116.76047 
L 316.725582 -118.390865 
L 312.901919 -119.711194 
L 309.078255 -120.674478 
L 305.254591 -121.259747 
L 301.430927 -121.488196 
L 297.607264 -121.418539 
L 293.7836 -121.120037 
L 289.959936 -120.636399 
L 286.136272 -119.96108 
L 282.312608 -119.040067 
L 278.488945 -117.800869 
L 274.665281 -116.186981 
L 270.841617 -114.175572 
L 267.017953 -111.776171 
L 263.19429 -109.026239 
L 259.370626 -105.993429 
L 255.546962 -102.774609 
L 251.723298 -99.477522 
L 247.899635 -96.189929 
L 244.075971 -92.958804 
L 240.252307 -89.795005 
L 236.428643 -86.694695 
L 232.604979 -83.656207 
L 228.781316 -80.682218 
L 224.957652 -77.775085 
L 221.133988 -74.937147 
L 217.310324 -72.177373 
L 213.486661 -69.515739 
L 209.662997 -66.977566 
L 205.839333 -64.579871 
L 202.015669 -62.321247 
L 198.192005 -60.18606 
L 194.368342 -58.161394 
L 190.544678 -56.252074 
L 186.721014 -54.479979 
L 182.89735 -52.868761 
L 179.073687 -51.42789 
L 175.250023 -50.147549 
L 171.426359 -49.003936 
L 167.602695 -47.96788 
L 163.779032 -47.01249 
L 159.955368 -46.119625 
L 156.131704 -45.284071 
L 152.30804 -44.512159 
L 148.484376 -43.813668 
L 144.660713 -43.191381 
L 140.837049 -42.635435 
L 137.013385 -42.126227 
L 133.189721 -41.643014 
L 129.366058 -41.171894 
L 125.542394 -40.709019 
L 121.71873 -40.25938 
L 117.895066 -39.833663 
L 114.071402 -39.445009 
L 110.247739 -39.106035 
L 106.424075 -38.825695 
L 102.600411 -38.605759 
L 98.776747 -38.437879 
L 94.953084 -38.303591 
L 91.12942 -38.179074 
L 87.305756 -38.043266 
L 83.482092 -37.884743 
L 79.658429 -37.703556 
L 75.834765 -37.508591 
L 72.011101 -37.31381 
L 68.187437 -37.135067 
L 64.363773 -36.9865 
L 60.54011 -36.876325 
L 56.716446 -36.804351 
L 52.892782 -36.763308 
L 49.069118 -36.742995 
L 45.245455 -36.734297 
z
" style="stroke: #ffffff"/>
    </defs>
    <g>
     <use xlink:href="#mf3f15206b0" x="0" y="477.077187" style="fill: #da8bc3; fill-opacity: 0.75; stroke: #ffffff"/>
    </g>
   </g>
   <g id="FillBetweenPolyCollection_2">
    <defs>
     <path id="m823d8bdb21" d="M 45.245455 -36.734297 
L 45.245455 -36.734297 
L 49.069118 -36.742995 
L 52.892782 -36.763308 
L 56.716446 -36.804351 
L 60.54011 -36.876325 
L 64.363773 -36.9865 
L 68.187437 -37.135067 
L 72.011101 -37.31381 
L 75.834765 -37.508591 
L 79.658429 -37.703556 
L 83.482092 -37.884743 
L 87.305756 -38.043266 
L 91.12942 -38.179074 
L 94.953084 -38.303591 
L 98.776747 -38.437879 
L 102.600411 -38.605759 
L 106.424075 -38.825695 
L 110.247739 -39.106035 
L 114.071402 -39.445009 
L 117.895066 -39.833663 
L 121.71873 -40.25938 
L 125.542394 -40.709019 
L 129.366058 -41.171894 
L 133.189721 -41.643014 
L 137.013385 -42.126227 
L 140.837049 -42.635435 
L 144.660713 -43.191381 
L 148.484376 -43.813668 
L 152.30804 -44.512159 
L 156.131704 -45.284071 
L 159.955368 -46.119625 
L 163.779032 -47.01249 
L 167.602695 -47.96788 
L 171.426359 -49.003936 
L 175.250023 -50.147549 
L 179.073687 -51.42789 
L 182.89735 -52.868761 
L 186.721014 -54.479979 
L 190.544678 -56.252074 
L 194.368342 -58.161394 
L 198.192005 -60.18606 
L 202.015669 -62.321247 
L 205.839333 -64.579871 
L 209.662997 -66.977566 
L 213.486661 -69.515739 
L 217.310324 -72.177373 
L 221.133988 -74.937147 
L 224.957652 -77.775085 
L 228.781316 -80.682218 
L 232.604979 -83.656207 
L 236.428643 -86.694695 
L 240.252307 -89.795005 
L 244.075971 -92.958804 
L 247.899635 -96.189929 
L 251.723298 -99.477522 
L 255.546962 -102.774609 
L 259.370626 -105.993429 
L 263.19429 -109.026239 
L 267.017953 -111.776171 
L 270.841617 -114.175572 
L 274.665281 -116.186981 
L 278.488945 -117.800869 
L 282.312608 -119.040067 
L 286.136272 -119.96108 
L 289.959936 -120.636399 
L 293.7836 -121.120037 
L 297.607264 -121.418539 
L 301.430927 -121.488196 
L 305.254591 -121.259747 
L 309.078255 -120.674478 
L 312.901919 -119.711194 
L 316.725582 -118.390865 
L 320.549246 -116.76047 
L 324.37291 -114.871145 
L 328.196574 -112.766798 
L 332.020238 -110.486511 
L 335.843901 -108.070934 
L 339.667565 -105.561683 
L 343.491229 -102.991061 
L 347.314893 -100.367651 
L 351.138556 -97.668328 
L 354.96222 -94.848152 
L 358.785884 -91.871486 
L 362.609548 -88.749506 
L 366.433212 -85.555865 
L 370.256875 -82.402757 
L 374.080539 -79.390366 
L 377.904203 -76.56549 
L 381.727867 -73.91715 
L 385.55153 -71.406179 
L 389.375194 -69.001297 
L 393.198858 -66.695546 
L 397.022522 -64.498319 
L 400.846185 -62.417935 
L 404.669849 -60.452004 
L 408.493513 -58.590828 
L 412.317177 -56.826817 
L 416.140841 -55.159965 
L 419.964504 -53.594196 
L 423.788168 -52.127264 
L 427.611832 -50.743666 
L 431.435496 -49.419867 
L 435.259159 -48.140704 
L 439.082823 -46.913356 
L 442.906487 -45.765102 
L 446.730151 -44.725515 
L 450.553815 -43.807839 
L 454.377478 -43.003902 
L 458.201142 -42.293804 
L 462.024806 -41.659794 
L 465.84847 -41.093273 
L 469.672133 -40.592387 
L 473.495797 -40.155642 
L 477.319461 -39.777848 
L 481.143125 -39.450296 
L 484.966788 -39.163234 
L 488.790452 -38.908253 
L 492.614116 -38.679687 
L 496.43778 -38.475159 
L 500.261444 -38.295314 
L 504.085107 -38.142534 
L 507.908771 -38.018644 
L 511.732435 -37.922433 
L 515.556099 -37.848387 
L 519.379762 -37.787688 
L 523.203426 -37.731226 
L 527.02709 -37.672957 
L 530.850754 -37.611515 
L 534.674418 -37.549182 
L 538.498081 -37.489181 
L 542.321745 -37.433338 
L 546.145409 -37.38157 
L 549.969073 -37.333062 
L 553.792736 -37.287753 
L 557.6164 -37.246668 
L 561.440064 -37.210764 
L 565.263728 -37.179255 
L 569.087392 -37.148855 
L 572.911055 -37.114694 
L 576.734719 -37.0725 
L 580.558383 -37.020868 
L 584.382047 -36.962389 
L 588.20571 -36.902919 
L 592.029374 -36.849252 
L 595.853038 -36.806429 
L 599.676702 -36.776153 
L 603.500365 -36.757 
L 607.324029 -36.745874 
L 611.147693 -36.739619 
L 614.971357 -36.735949 
L 618.795021 -36.733595 
L 622.618684 -36.732 
L 626.442348 -36.730944 
L 630.266012 -36.730301 
L 634.089676 -36.729954 
L 637.913339 -36.729789 
L 641.737003 -36.729722 
L 645.560667 -36.729698 
L 649.384331 -36.72969 
L 653.207995 -36.729688 
L 657.031658 -36.729688 
L 660.855322 -36.729688 
L 664.678986 -36.729688 
L 668.50265 -36.729688 
L 672.326313 -36.729688 
L 676.149977 -36.729688 
L 679.973641 -36.729688 
L 683.797305 -36.729688 
L 687.620968 -36.729687 
L 691.444632 -36.729687 
L 695.268296 -36.729687 
L 699.09196 -36.729687 
L 702.915624 -36.729687 
L 706.739287 -36.729687 
L 710.562951 -36.729687 
L 714.386615 -36.729687 
L 718.210279 -36.729687 
L 722.033942 -36.729687 
L 725.857606 -36.729687 
L 729.68127 -36.729687 
L 733.504934 -36.729687 
L 737.328598 -36.729687 
L 741.152261 -36.729687 
L 744.975925 -36.729687 
L 748.799589 -36.729687 
L 752.623253 -36.729687 
L 756.446916 -36.729687 
L 760.27058 -36.729687 
L 764.094244 -36.729687 
L 767.917908 -36.729687 
L 771.741571 -36.729687 
L 775.565235 -36.729687 
L 779.388899 -36.729687 
L 783.212563 -36.729687 
L 787.036227 -36.729687 
L 790.85989 -36.729687 
L 794.683554 -36.729687 
L 798.507218 -36.729687 
L 802.330882 -36.729687 
L 806.154545 -36.729687 
L 806.154545 -36.729687 
L 806.154545 -36.729687 
L 802.330882 -36.729687 
L 798.507218 -36.729687 
L 794.683554 -36.729687 
L 790.85989 -36.729687 
L 787.036227 -36.729687 
L 783.212563 -36.729687 
L 779.388899 -36.729687 
L 775.565235 -36.729687 
L 771.741571 -36.729687 
L 767.917908 -36.729687 
L 764.094244 -36.729687 
L 760.27058 -36.729687 
L 756.446916 -36.729687 
L 752.623253 -36.729687 
L 748.799589 -36.729687 
L 744.975925 -36.729687 
L 741.152261 -36.729687 
L 737.328598 -36.729687 
L 733.504934 -36.729687 
L 729.68127 -36.729687 
L 725.857606 -36.729687 
L 722.033942 -36.729687 
L 718.210279 -36.729687 
L 714.386615 -36.729687 
L 710.562951 -36.729687 
L 706.739287 -36.729687 
L 702.915624 -36.729687 
L 699.09196 -36.729687 
L 695.268296 -36.729687 
L 691.444632 -36.729687 
L 687.620968 -36.729687 
L 683.797305 -36.729688 
L 679.973641 -36.729688 
L 676.149977 -36.729688 
L 672.326313 -36.729688 
L 668.50265 -36.729688 
L 664.678986 -36.729688 
L 660.855322 -36.729688 
L 657.031658 -36.729688 
L 653.207995 -36.729688 
L 649.384331 -36.72969 
L 645.560667 -36.729698 
L 641.737003 -36.729722 
L 637.913339 -36.729789 
L 634.089676 -36.729954 
L 630.266012 -36.730301 
L 626.442348 -36.730944 
L 622.618684 -36.732 
L 618.795021 -36.733595 
L 614.971357 -36.735949 
L 611.147693 -36.739619 
L 607.324029 -36.745874 
L 603.500365 -36.757001 
L 599.676702 -36.77616 
L 595.853038 -36.806453 
L 592.029374 -36.849329 
L 588.20571 -36.903133 
L 584.382047 -36.962905 
L 580.558383 -37.021965 
L 576.734719 -37.074575 
L 572.911055 -37.118233 
L 569.087392 -37.154396 
L 565.263728 -37.1874 
L 561.440064 -37.222335 
L 557.6164 -37.26306 
L 553.792736 -37.311369 
L 549.969073 -37.367495 
L 546.145409 -37.43116 
L 542.321745 -37.502052 
L 538.498081 -37.579382 
L 534.674418 -37.661177 
L 530.850754 -37.744376 
L 527.02709 -37.82638 
L 523.203426 -37.907908 
L 519.379762 -37.996034 
L 515.556099 -38.105533 
L 511.732435 -38.256703 
L 507.908771 -38.469319 
L 504.085107 -38.755073 
L 500.261444 -39.113593 
L 496.43778 -39.537019 
L 492.614116 -40.024137 
L 488.790452 -40.599787 
L 484.966788 -41.33118 
L 481.143125 -42.32863 
L 477.319461 -43.716897 
L 473.495797 -45.578024 
L 469.672133 -47.89793 
L 465.84847 -50.564135 
L 462.024806 -53.428956 
L 458.201142 -56.396621 
L 454.377478 -59.474484 
L 450.553815 -62.762416 
L 446.730151 -66.398879 
L 442.906487 -70.502623 
L 439.082823 -75.143017 
L 435.259159 -80.347733 
L 431.435496 -86.129151 
L 427.611832 -92.50467 
L 423.788168 -99.503271 
L 419.964504 -107.16373 
L 416.140841 -115.525038 
L 412.317177 -124.607137 
L 408.493513 -134.392748 
L 404.669849 -144.827168 
L 400.846185 -155.834915 
L 397.022522 -167.330772 
L 393.198858 -179.20895 
L 389.375194 -191.323883 
L 385.55153 -203.492214 
L 381.727867 -215.522868 
L 377.904203 -227.243738 
L 374.080539 -238.48788 
L 370.256875 -249.043109 
L 366.433212 -258.614009 
L 362.609548 -266.841837 
L 358.785884 -273.376114 
L 354.96222 -277.948811 
L 351.138556 -280.411798 
L 347.314893 -280.73562 
L 343.491229 -278.982441 
L 339.667565 -275.260886 
L 335.843901 -269.683935 
L 332.020238 -262.371342 
L 328.196574 -253.510619 
L 324.37291 -243.421572 
L 320.549246 -232.544622 
L 316.725582 -221.338225 
L 312.901919 -210.1595 
L 309.078255 -199.220577 
L 305.254591 -188.643798 
L 301.430927 -178.54898 
L 297.607264 -169.081523 
L 293.7836 -160.355506 
L 289.959936 -152.374443 
L 286.136272 -145.017239 
L 282.312608 -138.119813 
L 278.488945 -131.595818 
L 274.665281 -125.49477 
L 270.841617 -119.941834 
L 267.017953 -115.012206 
L 263.19429 -110.654806 
L 259.370626 -106.723161 
L 255.546962 -103.064253 
L 251.723298 -99.578939 
L 247.899635 -96.221126 
L 244.075971 -92.967196 
L 240.252307 -89.796969 
L 236.428643 -86.695092 
L 232.604979 -83.656276 
L 228.781316 -80.682229 
L 224.957652 -77.775087 
L 221.133988 -74.937147 
L 217.310324 -72.177373 
L 213.486661 -69.515739 
L 209.662997 -66.977566 
L 205.839333 -64.579871 
L 202.015669 -62.321247 
L 198.192005 -60.18606 
L 194.368342 -58.161394 
L 190.544678 -56.252074 
L 186.721014 -54.479979 
L 182.89735 -52.868761 
L 179.073687 -51.42789 
L 175.250023 -50.147549 
L 171.426359 -49.003936 
L 167.602695 -47.96788 
L 163.779032 -47.01249 
L 159.955368 -46.119625 
L 156.131704 -45.284071 
L 152.30804 -44.512159 
L 148.484376 -43.813668 
L 144.660713 -43.191381 
L 140.837049 -42.635435 
L 137.013385 -42.126227 
L 133.189721 -41.643014 
L 129.366058 -41.171894 
L 125.542394 -40.709019 
L 121.71873 -40.25938 
L 117.895066 -39.833663 
L 114.071402 -39.445009 
L 110.247739 -39.106035 
L 106.424075 -38.825695 
L 102.600411 -38.605759 
L 98.776747 -38.437879 
L 94.953084 -38.303591 
L 91.12942 -38.179074 
L 87.305756 -38.043266 
L 83.482092 -37.884743 
L 79.658429 -37.703556 
L 75.834765 -37.508591 
L 72.011101 -37.31381 
L 68.187437 -37.135067 
L 64.363773 -36.9865 
L 60.54011 -36.876325 
L 56.716446 -36.804351 
L 52.892782 -36.763308 
L 49.069118 -36.742995 
L 45.245455 -36.734297 
z
" style="stroke: #ffffff"/>
    </defs>
    <g>
     <use xlink:href="#m823d8bdb21" x="0" y="477.077187" style="fill: #937860; fill-opacity: 0.75; stroke: #ffffff"/>
    </g>
   </g>
   <g id="FillBetweenPolyCollection_3">
    <defs>
     <path id="mf91136063a" d="M 45.245455 -36.734297 
L 45.245455 -36.734297 
L 49.069118 -36.742995 
L 52.892782 -36.763308 
L 56.716446 -36.804351 
L 60.54011 -36.876325 
L 64.363773 -36.9865 
L 68.187437 -37.135067 
L 72.011101 -37.31381 
L 75.834765 -37.508591 
L 79.658429 -37.703556 
L 83.482092 -37.884743 
L 87.305756 -38.043266 
L 91.12942 -38.179074 
L 94.953084 -38.303591 
L 98.776747 -38.437879 
L 102.600411 -38.605759 
L 106.424075 -38.825695 
L 110.247739 -39.106035 
L 114.071402 -39.445009 
L 117.895066 -39.833663 
L 121.71873 -40.25938 
L 125.542394 -40.709019 
L 129.366058 -41.171894 
L 133.189721 -41.643014 
L 137.013385 -42.126227 
L 140.837049 -42.635435 
L 144.660713 -43.191381 
L 148.484376 -43.813668 
L 152.30804 -44.512159 
L 156.131704 -45.284071 
L 159.955368 -46.119625 
L 163.779032 -47.01249 
L 167.602695 -47.96788 
L 171.426359 -49.003936 
L 175.250023 -50.147549 
L 179.073687 -51.42789 
L 182.89735 -52.868761 
L 186.721014 -54.479979 
L 190.544678 -56.252074 
L 194.368342 -58.161394 
L 198.192005 -60.18606 
L 202.015669 -62.321247 
L 205.839333 -64.579871 
L 209.662997 -66.977566 
L 213.486661 -69.515739 
L 217.310324 -72.177373 
L 221.133988 -74.937147 
L 224.957652 -77.775087 
L 228.781316 -80.682229 
L 232.604979 -83.656276 
L 236.428643 -86.695092 
L 240.252307 -89.796969 
L 244.075971 -92.967196 
L 247.899635 -96.221126 
L 251.723298 -99.578939 
L 255.546962 -103.064253 
L 259.370626 -106.723161 
L 263.19429 -110.654806 
L 267.017953 -115.012206 
L 270.841617 -119.941834 
L 274.665281 -125.49477 
L 278.488945 -131.595818 
L 282.312608 -138.119813 
L 286.136272 -145.017239 
L 289.959936 -152.374443 
L 293.7836 -160.355506 
L 297.607264 -169.081523 
L 301.430927 -178.54898 
L 305.254591 -188.643798 
L 309.078255 -199.220577 
L 312.901919 -210.1595 
L 316.725582 -221.338225 
L 320.549246 -232.544622 
L 324.37291 -243.421572 
L 328.196574 -253.510619 
L 332.020238 -262.371342 
L 335.843901 -269.683935 
L 339.667565 -275.260886 
L 343.491229 -278.982441 
L 347.314893 -280.73562 
L 351.138556 -280.411798 
L 354.96222 -277.948811 
L 358.785884 -273.376114 
L 362.609548 -266.841837 
L 366.433212 -258.614009 
L 370.256875 -249.043109 
L 374.080539 -238.48788 
L 377.904203 -227.243738 
L 381.727867 -215.522868 
L 385.55153 -203.492214 
L 389.375194 -191.323883 
L 393.198858 -179.20895 
L 397.022522 -167.330772 
L 400.846185 -155.834915 
L 404.669849 -144.827168 
L 408.493513 -134.392748 
L 412.317177 -124.607137 
L 416.140841 -115.525038 
L 419.964504 -107.16373 
L 423.788168 -99.503271 
L 427.611832 -92.50467 
L 431.435496 -86.129151 
L 435.259159 -80.347733 
L 439.082823 -75.143017 
L 442.906487 -70.502623 
L 446.730151 -66.398879 
L 450.553815 -62.762416 
L 454.377478 -59.474484 
L 458.201142 -56.396621 
L 462.024806 -53.428956 
L 465.84847 -50.564135 
L 469.672133 -47.89793 
L 473.495797 -45.578024 
L 477.319461 -43.716897 
L 481.143125 -42.32863 
L 484.966788 -41.33118 
L 488.790452 -40.599787 
L 492.614116 -40.024137 
L 496.43778 -39.537019 
L 500.261444 -39.113593 
L 504.085107 -38.755073 
L 507.908771 -38.469319 
L 511.732435 -38.256703 
L 515.556099 -38.105533 
L 519.379762 -37.996034 
L 523.203426 -37.907908 
L 527.02709 -37.82638 
L 530.850754 -37.744376 
L 534.674418 -37.661177 
L 538.498081 -37.579382 
L 542.321745 -37.502052 
L 546.145409 -37.43116 
L 549.969073 -37.367495 
L 553.792736 -37.311369 
L 557.6164 -37.26306 
L 561.440064 -37.222335 
L 565.263728 -37.1874 
L 569.087392 -37.154396 
L 572.911055 -37.118233 
L 576.734719 -37.074575 
L 580.558383 -37.021965 
L 584.382047 -36.962905 
L 588.20571 -36.903133 
L 592.029374 -36.849329 
L 595.853038 -36.806453 
L 599.676702 -36.77616 
L 603.500365 -36.757001 
L 607.324029 -36.745874 
L 611.147693 -36.739619 
L 614.971357 -36.735949 
L 618.795021 -36.733595 
L 622.618684 -36.732 
L 626.442348 -36.730944 
L 630.266012 -36.730301 
L 634.089676 -36.729954 
L 637.913339 -36.729789 
L 641.737003 -36.729722 
L 645.560667 -36.729698 
L 649.384331 -36.72969 
L 653.207995 -36.729688 
L 657.031658 -36.729688 
L 660.855322 -36.729688 
L 664.678986 -36.729688 
L 668.50265 -36.729688 
L 672.326313 -36.729688 
L 676.149977 -36.729688 
L 679.973641 -36.729688 
L 683.797305 -36.729688 
L 687.620968 -36.729687 
L 691.444632 -36.729687 
L 695.268296 -36.729687 
L 699.09196 -36.729687 
L 702.915624 -36.729687 
L 706.739287 -36.729687 
L 710.562951 -36.729687 
L 714.386615 -36.729687 
L 718.210279 -36.729687 
L 722.033942 -36.729687 
L 725.857606 -36.729687 
L 729.68127 -36.729687 
L 733.504934 -36.729687 
L 737.328598 -36.729687 
L 741.152261 -36.729687 
L 744.975925 -36.729687 
L 748.799589 -36.729687 
L 752.623253 -36.729687 
L 756.446916 -36.729687 
L 760.27058 -36.729687 
L 764.094244 -36.729687 
L 767.917908 -36.729687 
L 771.741571 -36.729687 
L 775.565235 -36.729687 
L 779.388899 -36.729687 
L 783.212563 -36.729687 
L 787.036227 -36.729687 
L 790.85989 -36.729687 
L 794.683554 -36.729687 
L 798.507218 -36.729687 
L 802.330882 -36.729687 
L 806.154545 -36.729687 
L 806.154545 -36.729706 
L 806.154545 -36.729706 
L 802.330882 -36.72974 
L 798.507218 -36.72983 
L 794.683554 -36.730049 
L 790.85989 -36.730558 
L 787.036227 -36.731676 
L 783.212563 -36.733995 
L 779.388899 -36.738542 
L 775.565235 -36.746975 
L 771.741571 -36.761771 
L 767.917908 -36.786346 
L 764.094244 -36.825016 
L 760.27058 -36.882711 
L 756.446916 -36.964436 
L 752.623253 -37.074521 
L 748.799589 -37.215838 
L 744.975925 -37.389223 
L 741.152261 -37.593317 
L 737.328598 -37.824948 
L 733.504934 -38.079988 
L 729.68127 -38.354466 
L 725.857606 -38.645621 
L 722.033942 -38.952598 
L 718.210279 -39.27664 
L 714.386615 -39.620784 
L 710.562951 -39.989225 
L 706.739287 -40.386575 
L 702.915624 -40.817226 
L 699.09196 -41.284945 
L 695.268296 -41.792703 
L 691.444632 -42.342649 
L 687.620968 -42.93611 
L 683.797305 -43.573484 
L 679.973641 -44.253992 
L 676.149977 -44.975356 
L 672.326313 -45.733531 
L 668.50265 -46.522659 
L 664.678986 -47.335355 
L 660.855322 -48.163302 
L 657.031658 -48.998058 
L 653.207995 -49.831855 
L 649.384331 -50.658223 
L 645.560667 -51.472273 
L 641.737003 -52.270639 
L 637.913339 -53.051093 
L 634.089676 -53.811988 
L 630.266012 -54.551636 
L 626.442348 -55.267772 
L 622.618684 -55.957185 
L 618.795021 -56.61562 
L 614.971357 -57.237989 
L 611.147693 -57.818881 
L 607.324029 -58.353273 
L 603.500365 -58.837159 
L 599.676702 -59.267716 
L 595.853038 -59.642689 
L 592.029374 -59.959149 
L 588.20571 -60.212353 
L 584.382047 -60.395711 
L 580.558383 -60.502242 
L 576.734719 -60.526811 
L 572.911055 -60.467862 
L 569.087392 -60.327692 
L 565.263728 -60.111311 
L 561.440064 -59.824722 
L 557.6164 -59.473682 
L 553.792736 -59.063608 
L 549.969073 -58.600498 
L 546.145409 -58.091807 
L 542.321745 -57.546198 
L 538.498081 -56.972018 
L 534.674418 -56.375486 
L 530.850754 -55.759958 
L 527.02709 -55.127121 
L 523.203426 -54.479984 
L 519.379762 -53.826464 
L 515.556099 -53.181527 
L 511.732435 -52.56586 
L 507.908771 -52.000493 
L 504.085107 -51.499613 
L 500.261444 -51.066533 
L 496.43778 -50.697895 
L 492.614116 -50.397295 
L 488.790452 -50.194273 
L 484.966788 -50.160536 
L 481.143125 -50.410899 
L 477.319461 -51.075032 
L 473.495797 -52.2406 
L 469.672133 -53.8998 
L 465.84847 -55.946593 
L 462.024806 -58.23903 
L 458.201142 -60.685429 
L 454.377478 -63.294879 
L 450.553815 -66.166385 
L 446.730151 -69.435241 
L 442.906487 -73.215424 
L 439.082823 -77.570805 
L 435.259159 -82.523632 
L 431.435496 -88.081509 
L 427.611832 -94.257972 
L 423.788168 -101.079048 
L 419.964504 -108.581313 
L 416.140841 -116.802069 
L 412.317177 -125.759868 
L 408.493513 -135.436164 
L 404.669849 -145.775001 
L 400.846185 -156.69959 
L 397.022522 -168.123314 
L 393.198858 -179.938902 
L 389.375194 -191.999254 
L 385.55153 -204.119501 
L 381.727867 -216.107179 
L 377.904203 -227.789013 
L 374.080539 -238.997172 
L 370.256875 -249.518894 
L 366.433212 -259.058448 
L 362.609548 -267.256956 
L 358.785884 -273.763887 
L 354.96222 -278.311149 
L 351.138556 -280.750501 
L 347.314893 -281.052332 
L 343.491229 -279.278639 
L 339.667565 -275.53792 
L 335.843901 -269.943088 
L 332.020238 -262.613891 
L 328.196574 -253.737871 
L 324.37291 -243.634846 
L 320.549246 -232.745186 
L 316.725582 -221.527169 
L 312.901919 -210.337564 
L 309.078255 -199.387965 
L 305.254591 -188.800041 
L 301.430927 -178.692927 
L 297.607264 -169.211535 
L 293.7836 -160.469825 
L 289.959936 -152.471675 
L 286.136272 -145.096782 
L 282.312608 -138.182114 
L 278.488945 -131.642364 
L 274.665281 -125.52785 
L 270.841617 -119.964149 
L 267.017953 -115.026473 
L 263.19429 -110.66344 
L 259.370626 -106.728103 
L 255.546962 -103.066927 
L 251.723298 -99.580306 
L 247.899635 -96.221786 
L 244.075971 -92.967497 
L 240.252307 -89.797099 
L 236.428643 -86.695145 
L 232.604979 -83.656296 
L 228.781316 -80.682236 
L 224.957652 -77.775089 
L 221.133988 -74.937148 
L 217.310324 -72.177373 
L 213.486661 -69.515739 
L 209.662997 -66.977566 
L 205.839333 -64.579871 
L 202.015669 -62.321247 
L 198.192005 -60.18606 
L 194.368342 -58.161394 
L 190.544678 -56.252074 
L 186.721014 -54.479979 
L 182.89735 -52.868761 
L 179.073687 -51.42789 
L 175.250023 -50.147549 
L 171.426359 -49.003936 
L 167.602695 -47.96788 
L 163.779032 -47.01249 
L 159.955368 -46.119625 
L 156.131704 -45.284071 
L 152.30804 -44.512159 
L 148.484376 -43.813668 
L 144.660713 -43.191381 
L 140.837049 -42.635435 
L 137.013385 -42.126227 
L 133.189721 -41.643014 
L 129.366058 -41.171894 
L 125.542394 -40.709019 
L 121.71873 -40.25938 
L 117.895066 -39.833663 
L 114.071402 -39.445009 
L 110.247739 -39.106035 
L 106.424075 -38.825695 
L 102.600411 -38.605759 
L 98.776747 -38.437879 
L 94.953084 -38.303591 
L 91.12942 -38.179074 
L 87.305756 -38.043266 
L 83.482092 -37.884743 
L 79.658429 -37.703556 
L 75.834765 -37.508591 
L 72.011101 -37.31381 
L 68.187437 -37.135067 
L 64.363773 -36.9865 
L 60.54011 -36.876325 
L 56.716446 -36.804351 
L 52.892782 -36.763308 
L 49.069118 -36.742995 
L 45.245455 -36.734297 
z
" style="stroke: #ffffff"/>
    </defs>
    <g>
     <use xlink:href="#mf91136063a" x="0" y="477.077187" style="fill: #8172b3; fill-opacity: 0.75; stroke: #ffffff"/>
    </g>
   </g>
   <g id="FillBetweenPolyCollection_4">
    <defs>
     <path id="m6f061a8e43" d="M 45.245455 -36.734297 
L 45.245455 -36.734297 
L 49.069118 -36.742995 
L 52.892782 -36.763308 
L 56.716446 -36.804351 
L 60.54011 -36.876325 
L 64.363773 -36.9865 
L 68.187437 -37.135067 
L 72.011101 -37.31381 
L 75.834765 -37.508591 
L 79.658429 -37.703556 
L 83.482092 -37.884743 
L 87.305756 -38.043266 
L 91.12942 -38.179074 
L 94.953084 -38.303591 
L 98.776747 -38.437879 
L 102.600411 -38.605759 
L 106.424075 -38.825695 
L 110.247739 -39.106035 
L 114.071402 -39.445009 
L 117.895066 -39.833663 
L 121.71873 -40.25938 
L 125.542394 -40.709019 
L 129.366058 -41.171894 
L 133.189721 -41.643014 
L 137.013385 -42.126227 
L 140.837049 -42.635435 
L 144.660713 -43.191381 
L 148.484376 -43.813668 
L 152.30804 -44.512159 
L 156.131704 -45.284071 
L 159.955368 -46.119625 
L 163.779032 -47.01249 
L 167.602695 -47.96788 
L 171.426359 -49.003936 
L 175.250023 -50.147549 
L 179.073687 -51.42789 
L 182.89735 -52.868761 
L 186.721014 -54.479979 
L 190.544678 -56.252074 
L 194.368342 -58.161394 
L 198.192005 -60.18606 
L 202.015669 -62.321247 
L 205.839333 -64.579871 
L 209.662997 -66.977566 
L 213.486661 -69.515739 
L 217.310324 -72.177373 
L 221.133988 -74.937148 
L 224.957652 -77.775089 
L 228.781316 -80.682236 
L 232.604979 -83.656296 
L 236.428643 -86.695145 
L 240.252307 -89.797099 
L 244.075971 -92.967497 
L 247.899635 -96.221786 
L 251.723298 -99.580306 
L 255.546962 -103.066927 
L 259.370626 -106.728103 
L 263.19429 -110.66344 
L 267.017953 -115.026473 
L 270.841617 -119.964149 
L 274.665281 -125.52785 
L 278.488945 -131.642364 
L 282.312608 -138.182114 
L 286.136272 -145.096782 
L 289.959936 -152.471675 
L 293.7836 -160.469825 
L 297.607264 -169.211535 
L 301.430927 -178.692927 
L 305.254591 -188.800041 
L 309.078255 -199.387965 
L 312.901919 -210.337564 
L 316.725582 -221.527169 
L 320.549246 -232.745186 
L 324.37291 -243.634846 
L 328.196574 -253.737871 
L 332.020238 -262.613891 
L 335.843901 -269.943088 
L 339.667565 -275.53792 
L 343.491229 -279.278639 
L 347.314893 -281.052332 
L 351.138556 -280.750501 
L 354.96222 -278.311149 
L 358.785884 -273.763887 
L 362.609548 -267.256956 
L 366.433212 -259.058448 
L 370.256875 -249.518894 
L 374.080539 -238.997172 
L 377.904203 -227.789013 
L 381.727867 -216.107179 
L 385.55153 -204.119501 
L 389.375194 -191.999254 
L 393.198858 -179.938902 
L 397.022522 -168.123314 
L 400.846185 -156.69959 
L 404.669849 -145.775001 
L 408.493513 -135.436164 
L 412.317177 -125.759868 
L 416.140841 -116.802069 
L 419.964504 -108.581313 
L 423.788168 -101.079048 
L 427.611832 -94.257972 
L 431.435496 -88.081509 
L 435.259159 -82.523632 
L 439.082823 -77.570805 
L 442.906487 -73.215424 
L 446.730151 -69.435241 
L 450.553815 -66.166385 
L 454.377478 -63.294879 
L 458.201142 -60.685429 
L 462.024806 -58.23903 
L 465.84847 -55.946593 
L 469.672133 -53.8998 
L 473.495797 -52.2406 
L 477.319461 -51.075032 
L 481.143125 -50.410899 
L 484.966788 -50.160536 
L 488.790452 -50.194273 
L 492.614116 -50.397295 
L 496.43778 -50.697895 
L 500.261444 -51.066533 
L 504.085107 -51.499613 
L 507.908771 -52.000493 
L 511.732435 -52.56586 
L 515.556099 -53.181527 
L 519.379762 -53.826464 
L 523.203426 -54.479984 
L 527.02709 -55.127121 
L 530.850754 -55.759958 
L 534.674418 -56.375486 
L 538.498081 -56.972018 
L 542.321745 -57.546198 
L 546.145409 -58.091807 
L 549.969073 -58.600498 
L 553.792736 -59.063608 
L 557.6164 -59.473682 
L 561.440064 -59.824722 
L 565.263728 -60.111311 
L 569.087392 -60.327692 
L 572.911055 -60.467862 
L 576.734719 -60.526811 
L 580.558383 -60.502242 
L 584.382047 -60.395711 
L 588.20571 -60.212353 
L 592.029374 -59.959149 
L 595.853038 -59.642689 
L 599.676702 -59.267716 
L 603.500365 -58.837159 
L 607.324029 -58.353273 
L 611.147693 -57.818881 
L 614.971357 -57.237989 
L 618.795021 -56.61562 
L 622.618684 -55.957185 
L 626.442348 -55.267772 
L 630.266012 -54.551636 
L 634.089676 -53.811988 
L 637.913339 -53.051093 
L 641.737003 -52.270639 
L 645.560667 -51.472273 
L 649.384331 -50.658223 
L 653.207995 -49.831855 
L 657.031658 -48.998058 
L 660.855322 -48.163302 
L 664.678986 -47.335355 
L 668.50265 -46.522659 
L 672.326313 -45.733531 
L 676.149977 -44.975356 
L 679.973641 -44.253992 
L 683.797305 -43.573484 
L 687.620968 -42.93611 
L 691.444632 -42.342649 
L 695.268296 -41.792703 
L 699.09196 -41.284945 
L 702.915624 -40.817226 
L 706.739287 -40.386575 
L 710.562951 -39.989225 
L 714.386615 -39.620784 
L 718.210279 -39.27664 
L 722.033942 -38.952598 
L 725.857606 -38.645621 
L 729.68127 -38.354466 
L 733.504934 -38.079988 
L 737.328598 -37.824948 
L 741.152261 -37.593317 
L 744.975925 -37.389223 
L 748.799589 -37.215838 
L 752.623253 -37.074521 
L 756.446916 -36.964436 
L 760.27058 -36.882711 
L 764.094244 -36.825016 
L 767.917908 -36.786346 
L 771.741571 -36.761771 
L 775.565235 -36.746975 
L 779.388899 -36.738542 
L 783.212563 -36.733995 
L 787.036227 -36.731676 
L 790.85989 -36.730558 
L 794.683554 -36.730049 
L 798.507218 -36.72983 
L 802.330882 -36.72974 
L 806.154545 -36.729706 
L 806.154545 -36.729706 
L 806.154545 -36.729706 
L 802.330882 -36.72974 
L 798.507218 -36.72983 
L 794.683554 -36.730049 
L 790.85989 -36.730558 
L 787.036227 -36.731676 
L 783.212563 -36.733995 
L 779.388899 -36.738543 
L 775.565235 -36.746975 
L 771.741571 -36.761772 
L 767.917908 -36.786349 
L 764.094244 -36.825024 
L 760.27058 -36.882735 
L 756.446916 -36.9645 
L 752.623253 -37.074679 
L 748.799589 -37.216205 
L 744.975925 -37.390027 
L 741.152261 -37.594978 
L 737.328598 -37.828189 
L 733.504934 -38.085975 
L 729.68127 -38.364958 
L 725.857606 -38.66311 
L 722.033942 -38.980406 
L 718.210279 -39.318945 
L 714.386615 -39.682578 
L 710.562951 -40.076189 
L 706.739287 -40.504911 
L 702.915624 -40.973469 
L 699.09196 -41.485779 
L 695.268296 -42.044821 
L 691.444632 -42.652687 
L 687.620968 -43.310681 
L 683.797305 -44.01932 
L 679.973641 -44.778176 
L 676.149977 -45.585589 
L 672.326313 -46.438347 
L 668.50265 -47.331528 
L 664.678986 -48.258597 
L 660.855322 -49.211829 
L 657.031658 -50.182939 
L 653.207995 -51.163782 
L 649.384331 -52.146918 
L 645.560667 -53.125918 
L 641.737003 -54.095378 
L 637.913339 -55.050687 
L 634.089676 -55.987652 
L 630.266012 -56.902106 
L 626.442348 -57.789585 
L 622.618684 -58.645154 
L 618.795021 -59.463439 
L 614.971357 -60.238896 
L 611.147693 -60.966308 
L 607.324029 -61.641416 
L 603.500365 -62.261419 
L 599.676702 -62.824974 
L 595.853038 -63.331415 
L 592.029374 -63.779334 
L 588.20571 -64.165297 
L 584.382047 -64.483697 
L 580.558383 -64.728119 
L 576.734719 -64.893554 
L 572.911055 -64.978135 
L 569.087392 -64.983471 
L 565.263728 -64.913614 
L 561.440064 -64.773458 
L 557.6164 -64.567612 
L 553.792736 -64.300435 
L 549.969073 -63.977096 
L 546.145409 -63.604689 
L 542.321745 -63.192324 
L 538.498081 -62.749988 
L 534.674418 -62.287032 
L 530.850754 -61.811483 
L 527.02709 -61.330919 
L 523.203426 -60.854805 
L 519.379762 -60.397249 
L 515.556099 -59.97841 
L 511.732435 -59.622778 
L 507.908771 -59.353937 
L 504.085107 -59.188037 
L 500.261444 -59.130808 
L 496.43778 -59.182837 
L 492.614116 -59.353941 
L 488.790452 -59.682225 
L 484.966788 -60.249535 
L 481.143125 -61.18092 
L 477.319461 -62.614602 
L 473.495797 -64.643564 
L 469.672133 -67.261261 
L 465.84847 -70.358923 
L 462.024806 -73.788729 
L 458.201142 -77.451187 
L 454.377478 -81.34677 
L 450.553815 -85.565844 
L 446.730151 -90.235428 
L 442.906487 -95.461773 
L 439.082823 -101.301721 
L 435.259159 -107.771402 
L 431.435496 -114.87338 
L 427.611832 -122.617101 
L 423.788168 -131.024818 
L 419.964504 -140.128411 
L 416.140841 -149.957898 
L 412.317177 -160.520147 
L 408.493513 -171.779095 
L 404.669849 -183.654836 
L 400.846185 -196.040955 
L 397.022522 -208.817951 
L 393.198858 -221.846378 
L 389.375194 -234.952524 
L 385.55153 -247.934924 
L 381.727867 -260.597127 
L 377.904203 -272.774169 
L 374.080539 -284.315575 
L 370.256875 -295.029875 
L 366.433212 -304.641398 
L 362.609548 -312.806535 
L 358.785884 -319.184072 
L 354.96222 -323.510247 
L 351.138556 -325.6382 
L 347.314893 -325.538791 
L 343.491229 -323.274918 
L 339.667565 -318.956933 
L 335.843901 -312.700483 
L 332.020238 -304.628497 
L 328.196574 -294.931564 
L 324.37291 -283.931815 
L 320.549246 -272.070718 
L 316.725582 -259.806275 
L 312.901919 -247.493898 
L 309.078255 -235.343497 
L 305.254591 -223.47578 
L 301.430927 -212.010698 
L 297.607264 -201.096519 
L 293.7836 -190.853494 
L 289.959936 -181.294795 
L 286.136272 -172.312406 
L 282.312608 -163.758557 
L 278.488945 -155.566052 
L 274.665281 -147.805639 
L 270.841617 -140.624465 
L 267.017953 -134.118634 
L 263.19429 -128.254855 
L 259.370626 -122.899536 
L 255.546962 -117.906505 
L 251.723298 -113.177225 
L 247.899635 -108.660715 
L 244.075971 -104.324536 
L 240.252307 -100.137916 
L 236.428643 -96.075552 
L 232.604979 -92.125082 
L 228.781316 -88.285581 
L 224.957652 -84.561439 
L 221.133988 -80.961233 
L 217.310324 -77.502233 
L 213.486661 -74.212158 
L 209.662997 -71.121044 
L 205.839333 -68.245957 
L 202.015669 -65.580445 
L 198.192005 -63.099549 
L 194.368342 -60.778451 
L 190.544678 -58.60958 
L 186.721014 -56.603845 
L 182.89735 -54.776679 
L 179.073687 -53.132605 
L 175.250023 -51.659827 
L 171.426359 -50.334636 
L 167.602695 -49.128881 
L 163.779032 -48.016616 
L 159.955368 -46.979977 
L 156.131704 -46.013283 
L 152.30804 -45.121973 
L 148.484376 -44.314994 
L 144.660713 -43.59474 
L 140.837049 -42.951523 
L 137.013385 -42.366305 
L 133.189721 -41.818935 
L 129.366058 -41.295735 
L 125.542394 -40.792457 
L 121.71873 -40.313006 
L 117.895066 -39.866446 
L 114.071402 -39.464025 
L 110.247739 -39.116478 
L 106.424075 -38.831114 
L 102.600411 -38.608412 
L 98.776747 -38.439103 
L 94.953084 -38.304122 
L 91.12942 -38.179291 
L 87.305756 -38.043349 
L 83.482092 -37.884773 
L 79.658429 -37.703566 
L 75.834765 -37.508594 
L 72.011101 -37.313811 
L 68.187437 -37.135067 
L 64.363773 -36.9865 
L 60.54011 -36.876325 
L 56.716446 -36.804351 
L 52.892782 -36.763308 
L 49.069118 -36.742995 
L 45.245455 -36.734297 
z
" style="stroke: #ffffff"/>
    </defs>
    <g>
     <use xlink:href="#m6f061a8e43" x="0" y="477.077187" style="fill: #c44e52; fill-opacity: 0.75; stroke: #ffffff"/>
    </g>
   </g>
   <g id="FillBetweenPolyCollection_5">
    <defs>
     <path id="mcd59ac7aa6" d="M 45.245455 -36.734297 
L 45.245455 -36.734297 
L 49.069118 -36.742995 
L 52.892782 -36.763308 
L 56.716446 -36.804351 
L 60.54011 -36.876325 
L 64.363773 -36.9865 
L 68.187437 -37.135067 
L 72.011101 -37.313811 
L 75.834765 -37.508594 
L 79.658429 -37.703566 
L 83.482092 -37.884773 
L 87.305756 -38.043349 
L 91.12942 -38.179291 
L 94.953084 -38.304122 
L 98.776747 -38.439103 
L 102.600411 -38.608412 
L 106.424075 -38.831114 
L 110.247739 -39.116478 
L 114.071402 -39.464025 
L 117.895066 -39.866446 
L 121.71873 -40.313006 
L 125.542394 -40.792457 
L 129.366058 -41.295735 
L 133.189721 -41.818935 
L 137.013385 -42.366305 
L 140.837049 -42.951523 
L 144.660713 -43.59474 
L 148.484376 -44.314994 
L 152.30804 -45.121973 
L 156.131704 -46.013283 
L 159.955368 -46.979977 
L 163.779032 -48.016616 
L 167.602695 -49.128881 
L 171.426359 -50.334636 
L 175.250023 -51.659827 
L 179.073687 -53.132605 
L 182.89735 -54.776679 
L 186.721014 -56.603845 
L 190.544678 -58.60958 
L 194.368342 -60.778451 
L 198.192005 -63.099549 
L 202.015669 -65.580445 
L 205.839333 -68.245957 
L 209.662997 -71.121044 
L 213.486661 -74.212158 
L 217.310324 -77.502233 
L 221.133988 -80.961233 
L 224.957652 -84.561439 
L 228.781316 -88.285581 
L 232.604979 -92.125082 
L 236.428643 -96.075552 
L 240.252307 -100.137916 
L 244.075971 -104.324536 
L 247.899635 -108.660715 
L 251.723298 -113.177225 
L 255.546962 -117.906505 
L 259.370626 -122.899536 
L 263.19429 -128.254855 
L 267.017953 -134.118634 
L 270.841617 -140.624465 
L 274.665281 -147.805639 
L 278.488945 -155.566052 
L 282.312608 -163.758557 
L 286.136272 -172.312406 
L 289.959936 -181.294795 
L 293.7836 -190.853494 
L 297.607264 -201.096519 
L 301.430927 -212.010698 
L 305.254591 -223.47578 
L 309.078255 -235.343497 
L 312.901919 -247.493898 
L 316.725582 -259.806275 
L 320.549246 -272.070718 
L 324.37291 -283.931815 
L 328.196574 -294.931564 
L 332.020238 -304.628497 
L 335.843901 -312.700483 
L 339.667565 -318.956933 
L 343.491229 -323.274918 
L 347.314893 -325.538791 
L 351.138556 -325.6382 
L 354.96222 -323.510247 
L 358.785884 -319.184072 
L 362.609548 -312.806535 
L 366.433212 -304.641398 
L 370.256875 -295.029875 
L 374.080539 -284.315575 
L 377.904203 -272.774169 
L 381.727867 -260.597127 
L 385.55153 -247.934924 
L 389.375194 -234.952524 
L 393.198858 -221.846378 
L 397.022522 -208.817951 
L 400.846185 -196.040955 
L 404.669849 -183.654836 
L 408.493513 -171.779095 
L 412.317177 -160.520147 
L 416.140841 -149.957898 
L 419.964504 -140.128411 
L 423.788168 -131.024818 
L 427.611832 -122.617101 
L 431.435496 -114.87338 
L 435.259159 -107.771402 
L 439.082823 -101.301721 
L 442.906487 -95.461773 
L 446.730151 -90.235428 
L 450.553815 -85.565844 
L 454.377478 -81.34677 
L 458.201142 -77.451187 
L 462.024806 -73.788729 
L 465.84847 -70.358923 
L 469.672133 -67.261261 
L 473.495797 -64.643564 
L 477.319461 -62.614602 
L 481.143125 -61.18092 
L 484.966788 -60.249535 
L 488.790452 -59.682225 
L 492.614116 -59.353941 
L 496.43778 -59.182837 
L 500.261444 -59.130808 
L 504.085107 -59.188037 
L 507.908771 -59.353937 
L 511.732435 -59.622778 
L 515.556099 -59.97841 
L 519.379762 -60.397249 
L 523.203426 -60.854805 
L 527.02709 -61.330919 
L 530.850754 -61.811483 
L 534.674418 -62.287032 
L 538.498081 -62.749988 
L 542.321745 -63.192324 
L 546.145409 -63.604689 
L 549.969073 -63.977096 
L 553.792736 -64.300435 
L 557.6164 -64.567612 
L 561.440064 -64.773458 
L 565.263728 -64.913614 
L 569.087392 -64.983471 
L 572.911055 -64.978135 
L 576.734719 -64.893554 
L 580.558383 -64.728119 
L 584.382047 -64.483697 
L 588.20571 -64.165297 
L 592.029374 -63.779334 
L 595.853038 -63.331415 
L 599.676702 -62.824974 
L 603.500365 -62.261419 
L 607.324029 -61.641416 
L 611.147693 -60.966308 
L 614.971357 -60.238896 
L 618.795021 -59.463439 
L 622.618684 -58.645154 
L 626.442348 -57.789585 
L 630.266012 -56.902106 
L 634.089676 -55.987652 
L 637.913339 -55.050687 
L 641.737003 -54.095378 
L 645.560667 -53.125918 
L 649.384331 -52.146918 
L 653.207995 -51.163782 
L 657.031658 -50.182939 
L 660.855322 -49.211829 
L 664.678986 -48.258597 
L 668.50265 -47.331528 
L 672.326313 -46.438347 
L 676.149977 -45.585589 
L 679.973641 -44.778176 
L 683.797305 -44.01932 
L 687.620968 -43.310681 
L 691.444632 -42.652687 
L 695.268296 -42.044821 
L 699.09196 -41.485779 
L 702.915624 -40.973469 
L 706.739287 -40.504911 
L 710.562951 -40.076189 
L 714.386615 -39.682578 
L 718.210279 -39.318945 
L 722.033942 -38.980406 
L 725.857606 -38.66311 
L 729.68127 -38.364958 
L 733.504934 -38.085975 
L 737.328598 -37.828189 
L 741.152261 -37.594978 
L 744.975925 -37.390027 
L 748.799589 -37.216205 
L 752.623253 -37.074679 
L 756.446916 -36.9645 
L 760.27058 -36.882735 
L 764.094244 -36.825024 
L 767.917908 -36.786349 
L 771.741571 -36.761772 
L 775.565235 -36.746975 
L 779.388899 -36.738543 
L 783.212563 -36.733995 
L 787.036227 -36.731676 
L 790.85989 -36.730558 
L 794.683554 -36.730049 
L 798.507218 -36.72983 
L 802.330882 -36.72974 
L 806.154545 -36.729706 
L 806.154545 -36.729759 
L 806.154545 -36.729759 
L 802.330882 -36.729842 
L 798.507218 -36.730015 
L 794.683554 -36.730365 
L 790.85989 -36.731067 
L 787.036227 -36.732448 
L 783.212563 -36.735106 
L 779.388899 -36.740064 
L 775.565235 -36.748967 
L 771.741571 -36.764279 
L 767.917908 -36.789403 
L 764.094244 -36.828653 
L 760.27058 -36.886982 
L 756.446916 -36.969439 
L 752.623253 -37.080433 
L 748.799589 -37.222954 
L 744.975925 -37.398003 
L 741.152261 -37.604447 
L 737.328598 -37.839427 
L 733.504934 -38.099236 
L 729.68127 -38.380449 
L 725.857606 -38.680974 
L 722.033942 -39.000725 
L 718.210279 -39.341758 
L 714.386615 -39.707902 
L 710.562951 -40.104067 
L 706.739287 -40.535461 
L 702.915624 -41.006975 
L 699.09196 -41.522847 
L 695.268296 -42.086653 
L 691.444632 -42.701524 
L 687.620968 -43.370436 
L 683.797305 -44.09637 
L 679.973641 -44.882178 
L 676.149977 -45.730072 
L 672.326313 -46.640799 
L 668.50265 -47.612721 
L 664.678986 -48.641132 
L 660.855322 -49.718131 
L 657.031658 -50.833235 
L 653.207995 -51.974646 
L 649.384331 -53.130801 
L 645.560667 -54.291761 
L 641.737003 -55.450033 
L 637.913339 -56.600731 
L 634.089676 -57.741189 
L 630.266012 -58.870275 
L 626.442348 -59.987626 
L 622.618684 -61.092873 
L 618.795021 -62.184933 
L 614.971357 -63.261475 
L 611.147693 -64.318731 
L 607.324029 -65.351828 
L 603.500365 -66.355495 
L 599.676702 -67.32473 
L 595.853038 -68.254869 
L 592.029374 -69.140907 
L 588.20571 -69.976718 
L 584.382047 -70.755244 
L 580.558383 -71.470236 
L 576.734719 -72.118937 
L 572.911055 -72.704227 
L 569.087392 -73.234958 
L 565.263728 -73.724196 
L 561.440064 -74.186124 
L 557.6164 -74.632944 
L 553.792736 -75.073054 
L 549.969073 -75.511007 
L 546.145409 -75.948779 
L 542.321745 -76.387338 
L 538.498081 -76.827899 
L 534.674418 -77.272914 
L 530.850754 -77.727117 
L 527.02709 -78.198759 
L 523.203426 -78.700912 
L 519.379762 -79.252317 
L 515.556099 -79.876842 
L 511.732435 -80.600528 
L 507.908771 -81.446154 
L 504.085107 -82.427354 
L 500.261444 -83.546441 
L 496.43778 -84.79979 
L 492.614116 -86.190947 
L 488.790452 -87.747066 
L 484.966788 -89.531346 
L 481.143125 -91.640899 
L 477.319461 -94.178331 
L 473.495797 -97.198912 
L 469.672133 -100.664575 
L 465.84847 -104.449328 
L 462.024806 -108.40696 
L 458.201142 -112.457272 
L 454.377478 -116.631243 
L 450.553815 -121.051715 
L 446.730151 -125.871703 
L 442.906487 -131.211974 
L 439.082823 -137.131697 
L 435.259159 -143.639647 
L 431.435496 -150.725155 
L 427.611832 -158.382001 
L 423.788168 -166.616651 
L 419.964504 -175.446443 
L 416.140841 -184.889224 
L 412.317177 -194.943616 
L 408.493513 -205.571303 
L 404.669849 -216.698133 
L 400.846185 -228.23224 
L 397.022522 -240.076021 
L 393.198858 -252.115419 
L 389.375194 -264.200283 
L 385.55153 -276.145949 
L 381.727867 -287.763283 
L 377.904203 -298.885677 
L 374.080539 -309.355504 
L 370.256875 -318.973614 
L 366.433212 -327.460778 
L 362.609548 -334.476675 
L 358.785884 -339.690361 
L 354.96222 -342.85321 
L 351.138556 -343.83508 
L 347.314893 -342.622005 
L 343.491229 -339.288501 
L 339.667565 -333.952416 
L 335.843901 -326.733294 
L 332.020238 -317.755334 
L 328.196574 -307.208533 
L 324.37291 -295.412852 
L 320.549246 -282.805963 
L 316.725582 -269.840455 
L 312.901919 -256.86516 
L 309.078255 -244.083265 
L 305.254591 -231.609964 
L 301.430927 -219.562101 
L 297.607264 -208.087765 
L 293.7836 -197.309541 
L 289.959936 -187.244167 
L 286.136272 -177.786762 
L 282.312608 -168.790811 
L 278.488945 -160.187803 
L 274.665281 -152.044864 
L 270.841617 -144.504253 
L 267.017953 -137.657333 
L 263.19429 -131.467484 
L 259.370626 -125.79995 
L 255.546962 -120.50963 
L 251.723298 -115.5007 
L 247.899635 -110.725556 
L 244.075971 -106.154744 
L 240.252307 -101.759278 
L 236.428643 -97.514079 
L 232.604979 -93.405538 
L 228.781316 -89.430424 
L 224.957652 -85.590287 
L 221.133988 -81.890771 
L 217.310324 -78.346373 
L 213.486661 -74.982255 
L 209.662997 -71.826089 
L 205.839333 -68.892758 
L 202.015669 -66.173897 
L 198.192005 -63.643076 
L 194.368342 -61.274603 
L 190.544678 -59.060677 
L 186.721014 -57.012485 
L 182.89735 -55.145977 
L 179.073687 -53.466114 
L 175.250023 -51.961233 
L 171.426359 -50.607366 
L 167.602695 -49.375783 
L 163.779032 -48.239796 
L 159.955368 -47.180806 
L 156.131704 -46.19255 
L 152.30804 -45.28012 
L 148.484376 -44.452382 
L 144.660713 -43.711887 
L 140.837049 -43.049278 
L 137.013385 -42.445928 
L 133.189721 -41.882088 
L 129.366058 -41.344395 
L 125.542394 -40.828784 
L 121.71873 -40.339202 
L 117.895066 -39.884628 
L 114.071402 -39.476123 
L 110.247739 -39.124162 
L 106.424075 -38.835753 
L 102.600411 -38.611064 
L 98.776747 -38.440532 
L 94.953084 -38.304846 
L 91.12942 -38.179635 
L 87.305756 -38.043502 
L 83.482092 -37.884836 
L 79.658429 -37.703591 
L 75.834765 -37.508603 
L 72.011101 -37.313814 
L 68.187437 -37.135068 
L 64.363773 -36.9865 
L 60.54011 -36.876325 
L 56.716446 -36.804351 
L 52.892782 -36.763308 
L 49.069118 -36.742995 
L 45.245455 -36.734297 
z
" style="stroke: #ffffff"/>
    </defs>
    <g>
     <use xlink:href="#mcd59ac7aa6" x="0" y="477.077187" style="fill: #55a868; fill-opacity: 0.75; stroke: #ffffff"/>
    </g>
   </g>
   <g id="FillBetweenPolyCollection_6">
    <defs>
     <path id="m582904ba3f" d="M 45.245455 -36.734297 
L 45.245455 -36.734297 
L 49.069118 -36.742995 
L 52.892782 -36.763308 
L 56.716446 -36.804351 
L 60.54011 -36.876325 
L 64.363773 -36.9865 
L 68.187437 -37.135068 
L 72.011101 -37.313814 
L 75.834765 -37.508603 
L 79.658429 -37.703591 
L 83.482092 -37.884836 
L 87.305756 -38.043502 
L 91.12942 -38.179635 
L 94.953084 -38.304846 
L 98.776747 -38.440532 
L 102.600411 -38.611064 
L 106.424075 -38.835753 
L 110.247739 -39.124162 
L 114.071402 -39.476123 
L 117.895066 -39.884628 
L 121.71873 -40.339202 
L 125.542394 -40.828784 
L 129.366058 -41.344395 
L 133.189721 -41.882088 
L 137.013385 -42.445928 
L 140.837049 -43.049278 
L 144.660713 -43.711887 
L 148.484376 -44.452382 
L 152.30804 -45.28012 
L 156.131704 -46.19255 
L 159.955368 -47.180806 
L 163.779032 -48.239796 
L 167.602695 -49.375783 
L 171.426359 -50.607366 
L 175.250023 -51.961233 
L 179.073687 -53.466114 
L 182.89735 -55.145977 
L 186.721014 -57.012485 
L 190.544678 -59.060677 
L 194.368342 -61.274603 
L 198.192005 -63.643076 
L 202.015669 -66.173897 
L 205.839333 -68.892758 
L 209.662997 -71.826089 
L 213.486661 -74.982255 
L 217.310324 -78.346373 
L 221.133988 -81.890771 
L 224.957652 -85.590287 
L 228.781316 -89.430424 
L 232.604979 -93.405538 
L 236.428643 -97.514079 
L 240.252307 -101.759278 
L 244.075971 -106.154744 
L 247.899635 -110.725556 
L 251.723298 -115.5007 
L 255.546962 -120.50963 
L 259.370626 -125.79995 
L 263.19429 -131.467484 
L 267.017953 -137.657333 
L 270.841617 -144.504253 
L 274.665281 -152.044864 
L 278.488945 -160.187803 
L 282.312608 -168.790811 
L 286.136272 -177.786762 
L 289.959936 -187.244167 
L 293.7836 -197.309541 
L 297.607264 -208.087765 
L 301.430927 -219.562101 
L 305.254591 -231.609964 
L 309.078255 -244.083265 
L 312.901919 -256.86516 
L 316.725582 -269.840455 
L 320.549246 -282.805963 
L 324.37291 -295.412852 
L 328.196574 -307.208533 
L 332.020238 -317.755334 
L 335.843901 -326.733294 
L 339.667565 -333.952416 
L 343.491229 -339.288501 
L 347.314893 -342.622005 
L 351.138556 -343.83508 
L 354.96222 -342.85321 
L 358.785884 -339.690361 
L 362.609548 -334.476675 
L 366.433212 -327.460778 
L 370.256875 -318.973614 
L 374.080539 -309.355504 
L 377.904203 -298.885677 
L 381.727867 -287.763283 
L 385.55153 -276.145949 
L 389.375194 -264.200283 
L 393.198858 -252.115419 
L 397.022522 -240.076021 
L 400.846185 -228.23224 
L 404.669849 -216.698133 
L 408.493513 -205.571303 
L 412.317177 -194.943616 
L 416.140841 -184.889224 
L 419.964504 -175.446443 
L 423.788168 -166.616651 
L 427.611832 -158.382001 
L 431.435496 -150.725155 
L 435.259159 -143.639647 
L 439.082823 -137.131697 
L 442.906487 -131.211974 
L 446.730151 -125.871703 
L 450.553815 -121.051715 
L 454.377478 -116.631243 
L 458.201142 -112.457272 
L 462.024806 -108.40696 
L 465.84847 -104.449328 
L 469.672133 -100.664575 
L 473.495797 -97.198912 
L 477.319461 -94.178331 
L 481.143125 -91.640899 
L 484.966788 -89.531346 
L 488.790452 -87.747066 
L 492.614116 -86.190947 
L 496.43778 -84.79979 
L 500.261444 -83.546441 
L 504.085107 -82.427354 
L 507.908771 -81.446154 
L 511.732435 -80.600528 
L 515.556099 -79.876842 
L 519.379762 -79.252317 
L 523.203426 -78.700912 
L 527.02709 -78.198759 
L 530.850754 -77.727117 
L 534.674418 -77.272914 
L 538.498081 -76.827899 
L 542.321745 -76.387338 
L 546.145409 -75.948779 
L 549.969073 -75.511007 
L 553.792736 -75.073054 
L 557.6164 -74.632944 
L 561.440064 -74.186124 
L 565.263728 -73.724196 
L 569.087392 -73.234958 
L 572.911055 -72.704227 
L 576.734719 -72.118937 
L 580.558383 -71.470236 
L 584.382047 -70.755244 
L 588.20571 -69.976718 
L 592.029374 -69.140907 
L 595.853038 -68.254869 
L 599.676702 -67.32473 
L 603.500365 -66.355495 
L 607.324029 -65.351828 
L 611.147693 -64.318731 
L 614.971357 -63.261475 
L 618.795021 -62.184933 
L 622.618684 -61.092873 
L 626.442348 -59.987626 
L 630.266012 -58.870275 
L 634.089676 -57.741189 
L 637.913339 -56.600731 
L 641.737003 -55.450033 
L 645.560667 -54.291761 
L 649.384331 -53.130801 
L 653.207995 -51.974646 
L 657.031658 -50.833235 
L 660.855322 -49.718131 
L 664.678986 -48.641132 
L 668.50265 -47.612721 
L 672.326313 -46.640799 
L 676.149977 -45.730072 
L 679.973641 -44.882178 
L 683.797305 -44.09637 
L 687.620968 -43.370436 
L 691.444632 -42.701524 
L 695.268296 -42.086653 
L 699.09196 -41.522847 
L 702.915624 -41.006975 
L 706.739287 -40.535461 
L 710.562951 -40.104067 
L 714.386615 -39.707902 
L 718.210279 -39.341758 
L 722.033942 -39.000725 
L 725.857606 -38.680974 
L 729.68127 -38.380449 
L 733.504934 -38.099236 
L 737.328598 -37.839427 
L 741.152261 -37.604447 
L 744.975925 -37.398003 
L 748.799589 -37.222954 
L 752.623253 -37.080433 
L 756.446916 -36.969439 
L 760.27058 -36.886982 
L 764.094244 -36.828653 
L 767.917908 -36.789403 
L 771.741571 -36.764279 
L 775.565235 -36.748967 
L 779.388899 -36.740064 
L 783.212563 -36.735106 
L 787.036227 -36.732448 
L 790.85989 -36.731067 
L 794.683554 -36.730365 
L 798.507218 -36.730015 
L 802.330882 -36.729842 
L 806.154545 -36.729759 
L 806.154545 -36.729759 
L 806.154545 -36.729759 
L 802.330882 -36.729842 
L 798.507218 -36.730015 
L 794.683554 -36.730365 
L 790.85989 -36.731067 
L 787.036227 -36.732448 
L 783.212563 -36.735106 
L 779.388899 -36.740064 
L 775.565235 -36.748967 
L 771.741571 -36.764279 
L 767.917908 -36.789403 
L 764.094244 -36.828653 
L 760.27058 -36.886982 
L 756.446916 -36.969441 
L 752.623253 -37.080441 
L 748.799589 -37.22298 
L 744.975925 -37.39808 
L 741.152261 -37.604657 
L 737.328598 -37.839949 
L 733.504934 -38.100426 
L 729.68127 -38.382962 
L 725.857606 -38.685929 
L 722.033942 -39.009968 
L 718.210279 -39.358327 
L 714.386615 -39.736898 
L 710.562951 -40.154152 
L 706.739287 -40.621116 
L 702.915624 -41.151404 
L 699.09196 -41.761054 
L 695.268296 -42.467706 
L 691.444632 -43.2885 
L 687.620968 -44.236632 
L 683.797305 -45.317735 
L 679.973641 -46.528203 
L 676.149977 -47.856872 
L 672.326313 -49.289506 
L 668.50265 -50.814063 
L 664.678986 -52.425203 
L 660.855322 -54.127643 
L 657.031658 -55.937986 
L 653.207995 -57.883236 
L 649.384331 -59.993921 
L 645.560667 -62.292881 
L 641.737003 -64.785813 
L 637.913339 -67.461068 
L 634.089676 -70.299819 
L 630.266012 -73.287617 
L 626.442348 -76.415205 
L 622.618684 -79.666405 
L 618.795021 -83.005922 
L 614.971357 -86.383311 
L 611.147693 -89.754421 
L 607.324029 -93.102437 
L 603.500365 -96.438245 
L 599.676702 -99.778308 
L 595.853038 -103.118622 
L 592.029374 -106.425132 
L 588.20571 -109.644379 
L 584.382047 -112.721786 
L 580.558383 -115.613523 
L 576.734719 -118.28811 
L 572.911055 -120.722881 
L 569.087392 -122.901367 
L 565.263728 -124.813649 
L 561.440064 -126.458551 
L 557.6164 -127.846033 
L 553.792736 -128.998394 
L 549.969073 -129.948447 
L 546.145409 -130.732575 
L 542.321745 -131.378791 
L 538.498081 -131.894947 
L 534.674418 -132.266066 
L 530.850754 -132.466532 
L 527.02709 -132.481602 
L 523.203426 -132.323015 
L 519.379762 -132.027249 
L 515.556099 -131.640872 
L 511.732435 -131.208484 
L 507.908771 -130.772375 
L 504.085107 -130.377831 
L 500.261444 -130.073112 
L 496.43778 -129.902833 
L 492.614116 -129.90385 
L 488.790452 -130.111921 
L 484.966788 -130.577712 
L 481.143125 -131.378938 
L 477.319461 -132.608957 
L 473.495797 -134.333883 
L 469.672133 -136.542407 
L 465.84847 -139.13412 
L 462.024806 -141.967986 
L 458.201142 -144.94065 
L 454.377478 -148.040915 
L 450.553815 -151.351114 
L 446.730151 -155.004719 
L 442.906487 -159.131225 
L 439.082823 -163.819709 
L 435.259159 -169.114424 
L 431.435496 -175.030875 
L 427.611832 -181.571853 
L 423.788168 -188.735093 
L 419.964504 -196.514771 
L 416.140841 -204.896562 
L 412.317177 -213.846748 
L 408.493513 -223.306736 
L 404.669849 -233.204346 
L 400.846185 -243.472569 
L 397.022522 -254.05101 
L 393.198858 -264.860525 
L 389.375194 -275.774554 
L 385.55153 -286.621273 
L 381.727867 -297.219963 
L 377.904203 -307.412768 
L 374.080539 -317.049904 
L 370.256875 -325.933519 
L 366.433212 -333.774793 
L 362.609548 -340.214335 
L 358.785884 -344.899346 
L 354.96222 -347.564148 
L 351.138556 -348.07053 
L 347.314893 -346.404971 
L 343.491229 -342.647644 
L 339.667565 -336.923624 
L 335.843901 -329.358541 
L 332.020238 -320.079626 
L 328.196574 -309.275622 
L 324.37291 -297.260946 
L 320.549246 -284.465073 
L 316.725582 -271.332371 
L 312.901919 -258.205563 
L 309.078255 -245.284368 
L 305.254591 -232.682286 
L 301.430927 -220.515088 
L 297.607264 -208.929906 
L 293.7836 -198.048683 
L 289.959936 -187.888256 
L 286.136272 -178.344555 
L 282.312608 -169.271938 
L 278.488945 -160.601941 
L 274.665281 -152.400466 
L 270.841617 -144.807699 
L 267.017953 -137.91302 
L 263.19429 -131.678673 
L 259.370626 -125.969732 
L 255.546962 -120.64154 
L 251.723298 -115.598947 
L 247.899635 -110.795071 
L 244.075971 -106.201105 
L 240.252307 -101.788399 
L 236.428643 -97.531637 
L 232.604979 -93.416324 
L 228.781316 -89.4379 
L 224.957652 -85.596479 
L 221.133988 -81.896486 
L 217.310324 -78.351623 
L 213.486661 -74.986744 
L 209.662997 -71.829609 
L 205.839333 -68.89539 
L 202.015669 -66.175997 
L 198.192005 -63.645137 
L 194.368342 -61.277089 
L 190.544678 -59.063885 
L 186.721014 -57.016462 
L 182.89735 -55.150501 
L 179.073687 -53.470768 
L 175.250023 -51.965564 
L 171.426359 -50.611044 
L 167.602695 -49.378683 
L 163.779032 -48.241965 
L 159.955368 -47.182375 
L 156.131704 -46.193654 
L 152.30804 -45.280865 
L 148.484376 -44.452853 
L 144.660713 -43.712159 
L 140.837049 -43.049422 
L 137.013385 -42.446011 
L 133.189721 -41.882183 
L 129.366058 -41.344624 
L 125.542394 -40.829397 
L 121.71873 -40.340682 
L 117.895066 -39.887761 
L 114.071402 -39.481911 
L 110.247739 -39.133476 
L 106.424075 -38.848797 
L 102.600411 -38.626947 
L 98.776747 -38.457336 
L 94.953084 -38.320284 
L 91.12942 -38.191945 
L 87.305756 -38.05202 
L 83.482092 -37.889948 
L 79.658429 -37.706252 
L 75.834765 -37.509804 
L 72.011101 -37.314284 
L 68.187437 -37.135227 
L 64.363773 -36.986547 
L 60.54011 -36.876337 
L 56.716446 -36.804353 
L 52.892782 -36.763308 
L 49.069118 -36.742995 
L 45.245455 -36.734297 
z
" style="stroke: #ffffff"/>
    </defs>
    <g>
     <use xlink:href="#m582904ba3f" x="0" y="477.077187" style="fill: #dd8452; fill-opacity: 0.75; stroke: #ffffff"/>
    </g>
   </g>
   <g id="FillBetweenPolyCollection_7">
    <defs>
     <path id="m187c51b8d0" d="M 45.245455 -36.734297 
L 45.245455 -36.734297 
L 49.069118 -36.742995 
L 52.892782 -36.763308 
L 56.716446 -36.804353 
L 60.54011 -36.876337 
L 64.363773 -36.986547 
L 68.187437 -37.135227 
L 72.011101 -37.314284 
L 75.834765 -37.509804 
L 79.658429 -37.706252 
L 83.482092 -37.889948 
L 87.305756 -38.05202 
L 91.12942 -38.191945 
L 94.953084 -38.320284 
L 98.776747 -38.457336 
L 102.600411 -38.626947 
L 106.424075 -38.848797 
L 110.247739 -39.133476 
L 114.071402 -39.481911 
L 117.895066 -39.887761 
L 121.71873 -40.340682 
L 125.542394 -40.829397 
L 129.366058 -41.344624 
L 133.189721 -41.882183 
L 137.013385 -42.446011 
L 140.837049 -43.049422 
L 144.660713 -43.712159 
L 148.484376 -44.452853 
L 152.30804 -45.280865 
L 156.131704 -46.193654 
L 159.955368 -47.182375 
L 163.779032 -48.241965 
L 167.602695 -49.378683 
L 171.426359 -50.611044 
L 175.250023 -51.965564 
L 179.073687 -53.470768 
L 182.89735 -55.150501 
L 186.721014 -57.016462 
L 190.544678 -59.063885 
L 194.368342 -61.277089 
L 198.192005 -63.645137 
L 202.015669 -66.175997 
L 205.839333 -68.89539 
L 209.662997 -71.829609 
L 213.486661 -74.986744 
L 217.310324 -78.351623 
L 221.133988 -81.896486 
L 224.957652 -85.596479 
L 228.781316 -89.4379 
L 232.604979 -93.416324 
L 236.428643 -97.531637 
L 240.252307 -101.788399 
L 244.075971 -106.201105 
L 247.899635 -110.795071 
L 251.723298 -115.598947 
L 255.546962 -120.64154 
L 259.370626 -125.969732 
L 263.19429 -131.678673 
L 267.017953 -137.91302 
L 270.841617 -144.807699 
L 274.665281 -152.400466 
L 278.488945 -160.601941 
L 282.312608 -169.271938 
L 286.136272 -178.344555 
L 289.959936 -187.888256 
L 293.7836 -198.048683 
L 297.607264 -208.929906 
L 301.430927 -220.515088 
L 305.254591 -232.682286 
L 309.078255 -245.284368 
L 312.901919 -258.205563 
L 316.725582 -271.332371 
L 320.549246 -284.465073 
L 324.37291 -297.260946 
L 328.196574 -309.275622 
L 332.020238 -320.079626 
L 335.843901 -329.358541 
L 339.667565 -336.923624 
L 343.491229 -342.647644 
L 347.314893 -346.404971 
L 351.138556 -348.07053 
L 354.96222 -347.564148 
L 358.785884 -344.899346 
L 362.609548 -340.214335 
L 366.433212 -333.774793 
L 370.256875 -325.933519 
L 374.080539 -317.049904 
L 377.904203 -307.412768 
L 381.727867 -297.219963 
L 385.55153 -286.621273 
L 389.375194 -275.774554 
L 393.198858 -264.860525 
L 397.022522 -254.05101 
L 400.846185 -243.472569 
L 404.669849 -233.204346 
L 408.493513 -223.306736 
L 412.317177 -213.846748 
L 416.140841 -204.896562 
L 419.964504 -196.514771 
L 423.788168 -188.735093 
L 427.611832 -181.571853 
L 431.435496 -175.030875 
L 435.259159 -169.114424 
L 439.082823 -163.819709 
L 442.906487 -159.131225 
L 446.730151 -155.004719 
L 450.553815 -151.351114 
L 454.377478 -148.040915 
L 458.201142 -144.94065 
L 462.024806 -141.967986 
L 465.84847 -139.13412 
L 469.672133 -136.542407 
L 473.495797 -134.333883 
L 477.319461 -132.608957 
L 481.143125 -131.378938 
L 484.966788 -130.577712 
L 488.790452 -130.111921 
L 492.614116 -129.90385 
L 496.43778 -129.902833 
L 500.261444 -130.073112 
L 504.085107 -130.377831 
L 507.908771 -130.772375 
L 511.732435 -131.208484 
L 515.556099 -131.640872 
L 519.379762 -132.027249 
L 523.203426 -132.323015 
L 527.02709 -132.481602 
L 530.850754 -132.466532 
L 534.674418 -132.266066 
L 538.498081 -131.894947 
L 542.321745 -131.378791 
L 546.145409 -130.732575 
L 549.969073 -129.948447 
L 553.792736 -128.998394 
L 557.6164 -127.846033 
L 561.440064 -126.458551 
L 565.263728 -124.813649 
L 569.087392 -122.901367 
L 572.911055 -120.722881 
L 576.734719 -118.28811 
L 580.558383 -115.613523 
L 584.382047 -112.721786 
L 588.20571 -109.644379 
L 592.029374 -106.425132 
L 595.853038 -103.118622 
L 599.676702 -99.778308 
L 603.500365 -96.438245 
L 607.324029 -93.102437 
L 611.147693 -89.754421 
L 614.971357 -86.383311 
L 618.795021 -83.005922 
L 622.618684 -79.666405 
L 626.442348 -76.415205 
L 630.266012 -73.287617 
L 634.089676 -70.299819 
L 637.913339 -67.461068 
L 641.737003 -64.785813 
L 645.560667 -62.292881 
L 649.384331 -59.993921 
L 653.207995 -57.883236 
L 657.031658 -55.937986 
L 660.855322 -54.127643 
L 664.678986 -52.425203 
L 668.50265 -50.814063 
L 672.326313 -49.289506 
L 676.149977 -47.856872 
L 679.973641 -46.528203 
L 683.797305 -45.317735 
L 687.620968 -44.236632 
L 691.444632 -43.2885 
L 695.268296 -42.467706 
L 699.09196 -41.761054 
L 702.915624 -41.151404 
L 706.739287 -40.621116 
L 710.562951 -40.154152 
L 714.386615 -39.736898 
L 718.210279 -39.358327 
L 722.033942 -39.009968 
L 725.857606 -38.685929 
L 729.68127 -38.382962 
L 733.504934 -38.100426 
L 737.328598 -37.839949 
L 741.152261 -37.604657 
L 744.975925 -37.39808 
L 748.799589 -37.22298 
L 752.623253 -37.080441 
L 756.446916 -36.969441 
L 760.27058 -36.886982 
L 764.094244 -36.828653 
L 767.917908 -36.789403 
L 771.741571 -36.764279 
L 775.565235 -36.748967 
L 779.388899 -36.740064 
L 783.212563 -36.735106 
L 787.036227 -36.732448 
L 790.85989 -36.731067 
L 794.683554 -36.730365 
L 798.507218 -36.730015 
L 802.330882 -36.729842 
L 806.154545 -36.729759 
L 806.154545 -36.730406 
L 806.154545 -36.730406 
L 802.330882 -36.731002 
L 798.507218 -36.731987 
L 794.683554 -36.733554 
L 790.85989 -36.735979 
L 787.036227 -36.739676 
L 783.212563 -36.745292 
L 779.388899 -36.753856 
L 775.565235 -36.76698 
L 771.741571 -36.787063 
L 767.917908 -36.81744 
L 764.094244 -36.862384 
L 760.27058 -36.926851 
L 756.446916 -37.015964 
L 752.623253 -37.13428 
L 748.799589 -37.285011 
L 744.975925 -37.469458 
L 741.152261 -37.686872 
L 737.328598 -37.934878 
L 733.504934 -38.210405 
L 729.68127 -38.510879 
L 725.857606 -38.835372 
L 722.033942 -39.185415 
L 718.210279 -39.565396 
L 714.386615 -39.982623 
L 710.562951 -40.447258 
L 706.739287 -40.97225 
L 702.915624 -41.57326 
L 699.09196 -42.268388 
L 695.268296 -43.077229 
L 691.444632 -44.018742 
L 687.620968 -45.107907 
L 683.797305 -46.35234 
L 679.973641 -47.750906 
L 676.149977 -49.295604 
L 672.326313 -50.975964 
L 668.50265 -52.783869 
L 664.678986 -54.7173 
L 660.855322 -56.78287 
L 657.031658 -58.997074 
L 653.207995 -61.384729 
L 649.384331 -63.972615 
L 645.560667 -66.779267 
L 641.737003 -69.806827 
L 637.913339 -73.042253 
L 634.089676 -76.468888 
L 630.266012 -80.079296 
L 626.442348 -83.877027 
L 622.618684 -87.864784 
L 618.795021 -92.031422 
L 614.971357 -96.353696 
L 611.147693 -100.814022 
L 607.324029 -105.416779 
L 603.500365 -110.183824 
L 599.676702 -115.128699 
L 595.853038 -120.229448 
L 592.029374 -125.421208 
L 588.20571 -130.612175 
L 584.382047 -135.70901 
L 580.558383 -140.635609 
L 576.734719 -145.339395 
L 572.911055 -149.789191 
L 569.087392 -153.970871 
L 565.263728 -157.884043 
L 561.440064 -161.540252 
L 557.6164 -164.962341 
L 553.792736 -168.184194 
L 549.969073 -171.248927 
L 546.145409 -174.202943 
L 542.321745 -177.085405 
L 538.498081 -179.917763 
L 534.674418 -182.70193 
L 530.850754 -185.432518 
L 527.02709 -188.117384 
L 523.203426 -190.791159 
L 519.379762 -193.510585 
L 515.556099 -196.33661 
L 511.732435 -199.319505 
L 507.908771 -202.496817 
L 504.085107 -205.898437 
L 500.261444 -209.547666 
L 496.43778 -213.456528 
L 492.614116 -217.623783 
L 488.790452 -222.043454 
L 484.966788 -226.722221 
L 481.143125 -231.692512 
L 477.319461 -237.001719 
L 473.495797 -242.669768 
L 469.672133 -248.6394 
L 465.84847 -254.765157 
L 462.024806 -260.862899 
L 458.201142 -266.789577 
L 454.377478 -272.499399 
L 450.553815 -278.046737 
L 446.730151 -283.544697 
L 442.906487 -289.110143 
L 439.082823 -294.82665 
L 435.259159 -300.739108 
L 431.435496 -306.868887 
L 427.611832 -313.229448 
L 423.788168 -319.834091 
L 419.964504 -326.697872 
L 416.140841 -333.832902 
L 412.317177 -341.237094 
L 408.493513 -348.887438 
L 404.669849 -356.749237 
L 400.846185 -364.792366 
L 397.022522 -372.990253 
L 393.198858 -381.292495 
L 389.375194 -389.594565 
L 385.55153 -397.738337 
L 381.727867 -405.546126 
L 377.904203 -412.849015 
L 374.080539 -419.468037 
L 370.256875 -425.155274 
L 366.433212 -429.552389 
L 362.609548 -432.219606 
L 358.785884 -432.729688 
L 354.96222 -430.771217 
L 351.138556 -426.211592 
L 347.314893 -419.108595 
L 343.491229 -409.678469 
L 339.667565 -398.228643 
L 335.843901 -385.081437 
L 332.020238 -370.539083 
L 328.196574 -354.914361 
L 324.37291 -338.580141 
L 320.549246 -321.960959 
L 316.725582 -305.448262 
L 312.901919 -289.305542 
L 309.078255 -273.647912 
L 305.254591 -258.514374 
L 301.430927 -243.964735 
L 297.607264 -230.110817 
L 293.7836 -217.057738 
L 289.959936 -204.8196 
L 286.136272 -193.298765 
L 282.312608 -182.360763 
L 278.488945 -171.949613 
L 274.665281 -162.142647 
L 270.841617 -153.088919 
L 267.017953 -144.883172 
L 263.19429 -137.488969 
L 259.370626 -130.768501 
L 255.546962 -124.57031 
L 251.723298 -118.789294 
L 247.899635 -113.366554 
L 244.075971 -108.260364 
L 240.252307 -103.429207 
L 236.428643 -98.835501 
L 232.604979 -94.453289 
L 228.781316 -90.267309 
L 224.957652 -86.267645 
L 221.133988 -82.449368 
L 217.310324 -78.817611 
L 213.486661 -75.389624 
L 209.662997 -72.186692 
L 205.839333 -69.218713 
L 202.015669 -66.473495 
L 198.192005 -63.921696 
L 194.368342 -61.535441 
L 190.544678 -59.305341 
L 186.721014 -57.241497 
L 182.89735 -55.359201 
L 179.073687 -53.663149 
L 175.250023 -52.141748 
L 171.426359 -50.771335 
L 167.602695 -49.523546 
L 163.779032 -48.371978 
L 159.955368 -47.298173 
L 156.131704 -46.295888 
L 152.30804 -45.370193 
L 148.484376 -44.529937 
L 144.660713 -43.777685 
L 140.837049 -43.104118 
L 137.013385 -42.490679 
L 133.189721 -41.917729 
L 129.366058 -41.372069 
L 125.542394 -40.849872 
L 121.71873 -40.355383 
L 117.895066 -39.897886 
L 114.071402 -39.48858 
L 110.247739 -39.137668 
L 106.424075 -38.851309 
L 102.600411 -38.628379 
L 98.776747 -38.458114 
L 94.953084 -38.320687 
L 91.12942 -38.192144 
L 87.305756 -38.052114 
L 83.482092 -37.889991 
L 79.658429 -37.70627 
L 75.834765 -37.509812 
L 72.011101 -37.314287 
L 68.187437 -37.135229 
L 64.363773 -36.986548 
L 60.54011 -36.876337 
L 56.716446 -36.804353 
L 52.892782 -36.763308 
L 49.069118 -36.742995 
L 45.245455 -36.734297 
z
" style="stroke: #ffffff"/>
    </defs>
    <g>
     <use xlink:href="#m187c51b8d0" x="0" y="477.077187" style="fill: #4c72b0; fill-opacity: 0.75; stroke: #ffffff"/>
    </g>
   </g>
   <g id="line2d_37">
    <path d="M 289.342258 440.3475 
L 289.342258 24.5475 
" style="fill: none; stroke-dasharray: 0.8,1.32; stroke-dashoffset: 0; stroke: #d3d3d3; stroke-width: 0.8"/>
   </g>
   <g id="line2d_38">
    <path d="M 395.392838 440.3475 
L 395.392838 24.5475 
" style="fill: none; stroke-dasharray: 0.8,1.32; stroke-dashoffset: 0; stroke: #d3d3d3; stroke-width: 0.8"/>
   </g>
   <g id="line2d_39">
    <path d="M 7.2 440.3475 
L 844.2 440.3475 
" style="fill: none; stroke: #808080; stroke-width: 0.5; stroke-linecap: round"/>
   </g>
   <g id="AnnotationBbox_1">
    <g id="text_12">
     <text style="font-weight: 700; font-size: 8px; font-family: 'Arial', 'DejaVu Sans', 'Liberation Sans', 'Bitstream Vera Sans', sans-serif; text-anchor: end; fill: #808080" x="289.342258" y="12.92625" transform="rotate(-0 289.342258 12.92625)">International Poverty Line</text>
    </g>
    <g id="text_13">
     <text style="font-size: 8px; font-family: 'Arial', 'DejaVu Sans', 'Liberation Sans', 'Bitstream Vera Sans', sans-serif; text-anchor: end; fill: #808080" x="289.342258" y="22.86375" transform="rotate(-0 289.342258 22.86375)">$3.00 per day</text>
    </g>
   </g>
   <g id="AnnotationBbox_2">
    <g id="text_14">
     <text style="font-weight: 700; font-size: 8px; font-family: 'Arial', 'DejaVu Sans', 'Liberation Sans', 'Bitstream Vera Sans', sans-serif; text-anchor: start; fill: #808080" x="395.392838" y="13.03125" transform="rotate(-0 395.392838 13.03125)">World median</text>
    </g>
    <g id="text_15">
     <text style="font-size: 8px; font-family: 'Arial', 'DejaVu Sans', 'Liberation Sans', 'Bitstream Vera Sans', sans-serif; text-anchor: start; fill: #808080" x="395.392838" y="22.86375" transform="rotate(-0 395.392838 22.86375)">$9.65 per day</text>
    </g>
   </g>
   <g id="legend_1">
    <g id="patch_3">
     <path d="M 683.8 229.348125 
L 944.253125 229.348125 
Q 946.253125 229.348125 946.253125 227.348125 
L 946.253125 114.7075 
Q 946.253125 112.7075 944.253125 112.7075 
L 683.8 112.7075 
Q 681.8 112.7075 681.8 114.7075 
L 681.8 227.348125 
Q 681.8 229.348125 683.8 229.348125 
z
" style="fill: #ffffff; opacity: 0.8; stroke: #cccccc; stroke-linejoin: miter"/>
    </g>
    <g id="text_16">
     <text style="font-size: 10px; font-family: 'Arial', 'DejaVu Sans', 'Liberation Sans', 'Bitstream Vera Sans', sans-serif; text-anchor: start; fill: #262626" x="798.182813" y="123.865312" transform="rotate(-0 798.182813 123.865312)">Region</text>
    </g>
    <g id="patch_4">
     <path d="M 685.8 138.127812 
L 705.8 138.127812 
L 705.8 131.127812 
L 685.8 131.127812 
z
" style="fill: #4c72b0; fill-opacity: 0.75; stroke: #ffffff; stroke-linejoin: miter"/>
    </g>
    <g id="text_17">
     <text style="font-size: 10px; font-family: 'Arial', 'DejaVu Sans', 'Liberation Sans', 'Bitstream Vera Sans', sans-serif; text-anchor: start; fill: #262626" x="713.8" y="138.127812" transform="rotate(-0 713.8 138.127812)">East Asia and Pacific</text>
    </g>
    <g id="patch_5">
     <path d="M 685.8 152.395 
L 705.8 152.395 
L 705.8 145.395 
L 685.8 145.395 
z
" style="fill: #dd8452; fill-opacity: 0.75; stroke: #ffffff; stroke-linejoin: miter"/>
    </g>
    <g id="text_18">
     <text style="font-size: 10px; font-family: 'Arial', 'DejaVu Sans', 'Liberation Sans', 'Bitstream Vera Sans', sans-serif; text-anchor: start; fill: #262626" x="713.8" y="152.395" transform="rotate(-0 713.8 152.395)">Europe and Central Asia</text>
    </g>
    <g id="patch_6">
     <path d="M 685.8 166.540312 
L 705.8 166.540312 
L 705.8 159.540312 
L 685.8 159.540312 
z
" style="fill: #55a868; fill-opacity: 0.75; stroke: #ffffff; stroke-linejoin: miter"/>
    </g>
    <g id="text_19">
     <text style="font-size: 10px; font-family: 'Arial', 'DejaVu Sans', 'Liberation Sans', 'Bitstream Vera Sans', sans-serif; text-anchor: start; fill: #262626" x="713.8" y="166.540312" transform="rotate(-0 713.8 166.540312)">Latin America and Caribbean</text>
    </g>
    <g id="patch_7">
     <path d="M 685.8 180.8075 
L 705.8 180.8075 
L 705.8 173.8075 
L 685.8 173.8075 
z
" style="fill: #c44e52; fill-opacity: 0.75; stroke: #ffffff; stroke-linejoin: miter"/>
    </g>
    <g id="text_20">
     <text style="font-size: 10px; font-family: 'Arial', 'DejaVu Sans', 'Liberation Sans', 'Bitstream Vera Sans', sans-serif; text-anchor: start; fill: #262626" x="713.8" y="180.8075" transform="rotate(-0 713.8 180.8075)">Middle East, North Africa, Afghanistan and Pakistan</text>
    </g>
    <g id="patch_8">
     <path d="M 685.8 195.07 
L 705.8 195.07 
L 705.8 188.07 
L 685.8 188.07 
z
" style="fill: #8172b3; fill-opacity: 0.75; stroke: #ffffff; stroke-linejoin: miter"/>
    </g>
    <g id="text_21">
     <text style="font-size: 10px; font-family: 'Arial', 'DejaVu Sans', 'Liberation Sans', 'Bitstream Vera Sans', sans-serif; text-anchor: start; fill: #262626" x="713.8" y="195.07" transform="rotate(-0 713.8 195.07)">North America</text>
    </g>
    <g id="patch_9">
     <path d="M 685.8 209.215312 
L 705.8 209.215312 
L 705.8 202.215312 
L 685.8 202.215312 
z
" style="fill: #937860; fill-opacity: 0.75; stroke: #ffffff; stroke-linejoin: miter"/>
    </g>
    <g id="text_22">
     <text style="font-size: 10px; font-family: 'Arial', 'DejaVu Sans', 'Liberation Sans', 'Bitstream Vera Sans', sans-serif; text-anchor: start; fill: #262626" x="713.8" y="209.215312" transform="rotate(-0 713.8 209.215312)">South Asia</text>
    </g>
    <g id="patch_10">
     <path d="M 685.8 223.360625 
L 705.8 223.360625 
L 705.8 216.360625 
L 685.8 216.360625 
z
" style="fill: #da8bc3; fill-opacity: 0.75; stroke: #ffffff; stroke-linejoin: miter"/>
    </g>
    <g id="text_23">
     <text style="font-size: 10px; font-family: 'Arial', 'DejaVu Sans', 'Liberation Sans', 'Bitstream Vera Sans', sans-serif; text-anchor: start; fill: #262626" x="713.8" y="223.360625" transform="rotate(-0 713.8 223.360625)">Sub-Saharan Africa</text>
    </g>
   </g>
  </g>
 </g>
</svg>
