<?xml version="1.0" encoding="utf-8" standalone="no"?>
<!DOCTYPE svg PUBLIC "-//W3C//DTD SVG 1.1//EN"
  "http://www.w3.org/Graphics/SVG/1.1/DTD/svg11.dtd">
<svg xmlns:xlink="http://www.w3.org/1999/xlink" width="851.4pt" height="477.077187pt" viewBox="0 0 851.4 477.077187" xmlns="http://www.w3.org/2000/svg" version="1.1">
 <metadata>
  <rdf:RDF xmlns:dc="http://purl.org/dc/elements/1.1/" xmlns:cc="http://creativecommons.org/ns#" xmlns:rdf="http://www.w3.org/1999/02/22-rdf-syntax-ns#">
   <cc:Work>
    <dc:type rdf:resource="http://purl.org/dc/dcmitype/StillImage"/>
    <dc:date>2026-05-28T14:12:37.590987</dc:date>
    <dc:format>image/svg+xml</dc:format>
    <dc:creator>
     <cc:Agent>
      <dc:title>Matplotlib v3.10.9, https://matplotlib.org/</dc:title>
     </cc:Agent>
    </dc:creator>
   </cc:Work>
  </rdf:RDF>
 </metadata>
 <defs>
  <style type="text/css">*{stroke-linejoin: round; stroke-linecap: butt}</style>
 </defs>
 <g id="figure_1">
  <g id="patch_1">
   <path d="M 0 477.077187 
L 851.4 477.077187 
L 851.4 0 
L 0 0 
z
" style="fill: #ffffff"/>
  </g>
  <g id="axes_1">
   <g id="patch_2">
    <path d="M 7.2 440.3475 
L 844.2 440.3475 
L 844.2 24.5475 
L 7.2 24.5475 
z
" style="fill: #ffffff"/>
   </g>
   <g id="matplotlib.axis_1">
    <g id="xtick_1">
     <g id="line2d_1">
      <defs>
       <path id="mb0c9234e3b" d="M 0 0 
L 0 3.5 
" style="stroke: #262626; stroke-width: 0.8"/>
      </defs>
      <g>
       <use xlink:href="#mb0c9234e3b" x="239.736622" y="440.3475" style="fill: #262626; stroke: #262626; stroke-width: 0.8"/>
      </g>
     </g>
     <g id="text_1">
      <text style="font-size: 10px; font-family: 'Arial', 'DejaVu Sans', 'Liberation Sans', 'Bitstream Vera Sans', sans-serif; text-anchor: middle; fill: #262626" x="239.736622" y="454.505312" transform="rotate(-0 239.736622 454.505312)">$1</text>
     </g>
    </g>
    <g id="xtick_2">
     <g id="line2d_2">
      <g>
       <use xlink:href="#mb0c9234e3b" x="363.330844" y="440.3475" style="fill: #262626; stroke: #262626; stroke-width: 0.8"/>
      </g>
     </g>
     <g id="text_2">
      <text style="font-size: 10px; font-family: 'Arial', 'DejaVu Sans', 'Liberation Sans', 'Bitstream Vera Sans', sans-serif; text-anchor: middle; fill: #262626" x="363.330844" y="454.505312" transform="rotate(-0 363.330844 454.505312)">$2</text>
     </g>
    </g>
    <g id="xtick_3">
     <g id="line2d_3">
      <g>
       <use xlink:href="#mb0c9234e3b" x="526.713518" y="440.3475" style="fill: #262626; stroke: #262626; stroke-width: 0.8"/>
      </g>
     </g>
     <g id="text_3">
      <text style="font-size: 10px; font-family: 'Arial', 'DejaVu Sans', 'Liberation Sans', 'Bitstream Vera Sans', sans-serif; text-anchor: middle; fill: #262626" x="526.713518" y="454.505312" transform="rotate(-0 526.713518 454.505312)">$5</text>
     </g>
    </g>
    <g id="xtick_4">
     <g id="line2d_4">
      <g>
       <use xlink:href="#mb0c9234e3b" x="650.307739" y="440.3475" style="fill: #262626; stroke: #262626; stroke-width: 0.8"/>
      </g>
     </g>
     <g id="text_4">
      <text style="font-size: 10px; font-family: 'Arial', 'DejaVu Sans', 'Liberation Sans', 'Bitstream Vera Sans', sans-serif; text-anchor: middle; fill: #262626" x="650.307739" y="454.505312" transform="rotate(-0 650.307739 454.505312)">$10</text>
     </g>
    </g>
    <g id="xtick_5">
     <g id="line2d_5">
      <g>
       <use xlink:href="#mb0c9234e3b" x="773.901961" y="440.3475" style="fill: #262626; stroke: #262626; stroke-width: 0.8"/>
      </g>
     </g>
     <g id="text_5">
      <text style="font-size: 10px; font-family: 'Arial', 'DejaVu Sans', 'Liberation Sans', 'Bitstream Vera Sans', sans-serif; text-anchor: middle; fill: #262626" x="773.901961" y="454.505312" transform="rotate(-0 773.901961 454.505312)">$20</text>
     </g>
    </g>
    <g id="xtick_6">
     <g id="line2d_6">
      <defs>
       <path id="m56a57746b6" d="M 0 0 
L 0 2 
" style="stroke: #262626; stroke-width: 0.6"/>
      </defs>
      <g>
       <use xlink:href="#m56a57746b6" x="25.057712" y="440.3475" style="fill: #262626; stroke: #262626; stroke-width: 0.6"/>
      </g>
     </g>
    </g>
    <g id="xtick_7">
     <g id="line2d_7">
      <g>
       <use xlink:href="#m56a57746b6" x="76.353948" y="440.3475" style="fill: #262626; stroke: #262626; stroke-width: 0.6"/>
      </g>
     </g>
    </g>
    <g id="xtick_8">
     <g id="line2d_8">
      <g>
       <use xlink:href="#m56a57746b6" x="116.142401" y="440.3475" style="fill: #262626; stroke: #262626; stroke-width: 0.6"/>
      </g>
     </g>
    </g>
    <g id="xtick_9">
     <g id="line2d_9">
      <g>
       <use xlink:href="#m56a57746b6" x="148.651933" y="440.3475" style="fill: #262626; stroke: #262626; stroke-width: 0.6"/>
      </g>
     </g>
    </g>
    <g id="xtick_10">
     <g id="line2d_10">
      <g>
       <use xlink:href="#m56a57746b6" x="176.138351" y="440.3475" style="fill: #262626; stroke: #262626; stroke-width: 0.6"/>
      </g>
     </g>
    </g>
    <g id="xtick_11">
     <g id="line2d_11">
      <g>
       <use xlink:href="#m56a57746b6" x="199.94817" y="440.3475" style="fill: #262626; stroke: #262626; stroke-width: 0.6"/>
      </g>
     </g>
    </g>
    <g id="xtick_12">
     <g id="line2d_12">
      <g>
       <use xlink:href="#m56a57746b6" x="220.949918" y="440.3475" style="fill: #262626; stroke: #262626; stroke-width: 0.6"/>
      </g>
     </g>
    </g>
    <g id="xtick_13">
     <g id="line2d_13">
      <g>
       <use xlink:href="#m56a57746b6" x="435.628829" y="440.3475" style="fill: #262626; stroke: #262626; stroke-width: 0.6"/>
      </g>
     </g>
    </g>
    <g id="xtick_14">
     <g id="line2d_14">
      <g>
       <use xlink:href="#m56a57746b6" x="486.925065" y="440.3475" style="fill: #262626; stroke: #262626; stroke-width: 0.6"/>
      </g>
     </g>
    </g>
    <g id="xtick_15">
     <g id="line2d_15">
      <g>
       <use xlink:href="#m56a57746b6" x="559.22305" y="440.3475" style="fill: #262626; stroke: #262626; stroke-width: 0.6"/>
      </g>
     </g>
    </g>
    <g id="xtick_16">
     <g id="line2d_16">
      <g>
       <use xlink:href="#m56a57746b6" x="586.709468" y="440.3475" style="fill: #262626; stroke: #262626; stroke-width: 0.6"/>
      </g>
     </g>
    </g>
    <g id="xtick_17">
     <g id="line2d_17">
      <g>
       <use xlink:href="#m56a57746b6" x="610.519287" y="440.3475" style="fill: #262626; stroke: #262626; stroke-width: 0.6"/>
      </g>
     </g>
    </g>
    <g id="xtick_18">
     <g id="line2d_18">
      <g>
       <use xlink:href="#m56a57746b6" x="631.521035" y="440.3475" style="fill: #262626; stroke: #262626; stroke-width: 0.6"/>
      </g>
     </g>
    </g>
    <g id="text_6">
     <text style="font-size: 10px; font-family: 'Arial', 'DejaVu Sans', 'Liberation Sans', 'Bitstream Vera Sans', sans-serif; text-anchor: middle; fill: #262626" x="425.7" y="467.7725" transform="rotate(-0 425.7 467.7725)">Income or consumption (day)</text>
    </g>
   </g>
   <g id="matplotlib.axis_2"/>
   <g id="FillBetweenPolyCollection_1">
    <defs>
     <path id="m55ee7e9afd" d="M 230.557869 -36.729687 
L 230.557869 -36.787273 
L 233.142461 -36.816534 
L 235.727052 -36.85871 
L 238.311643 -36.918529 
L 240.896234 -37.002011 
L 243.480825 -37.116654 
L 246.065416 -37.271577 
L 248.650007 -37.477601 
L 251.234598 -37.74724 
L 253.81919 -38.094568 
L 256.403781 -38.534945 
L 258.988372 -39.084601 
L 261.572963 -39.760055 
L 264.157554 -40.577417 
L 266.742145 -41.551594 
L 269.326736 -42.695467 
L 271.911328 -44.019111 
L 274.495919 -45.529131 
L 277.08051 -47.228205 
L 279.665101 -49.11488 
L 282.249692 -51.183685 
L 284.834283 -53.425552 
L 287.418874 -55.828523 
L 290.003465 -58.378692 
L 292.588057 -61.06127 
L 295.172648 -63.861685 
L 297.757239 -66.766577 
L 300.34183 -69.764615 
L 302.926421 -72.84703 
L 305.511012 -76.007844 
L 308.095603 -79.243783 
L 310.680195 -82.553922 
L 313.264786 -85.939124 
L 315.849377 -89.401375 
L 318.433968 -92.943093 
L 321.018559 -96.566515 
L 323.60315 -100.273217 
L 326.187741 -104.063804 
L 328.772332 -107.937787 
L 331.356924 -111.893626 
L 333.941515 -115.92891 
L 336.526106 -120.040621 
L 339.110697 -124.225435 
L 341.695288 -128.48003 
L 344.279879 -132.801339 
L 346.86447 -137.186745 
L 349.449062 -141.634197 
L 352.033653 -146.142235 
L 354.618244 -150.709952 
L 357.202835 -155.336895 
L 359.787426 -160.022938 
L 362.372017 -164.768175 
L 364.956608 -169.572859 
L 367.541199 -174.437444 
L 370.125791 -179.362753 
L 372.710382 -184.350293 
L 375.294973 -189.402717 
L 377.879564 -194.524367 
L 380.464155 -199.721848 
L 383.048746 -205.004518 
L 385.633337 -210.384768 
L 388.217929 -215.877978 
L 390.80252 -221.502067 
L 393.387111 -227.276558 
L 395.971702 -233.221203 
L 398.556293 -239.354238 
L 401.140884 -245.690423 
L 403.725475 -252.239083 
L 406.310066 -259.002386 
L 408.894658 -265.974085 
L 411.479249 -273.138922 
L 414.06384 -280.472808 
L 416.648431 -287.9438 
L 419.233022 -295.513797 
L 421.817613 -303.140762 
L 424.402204 -310.781222 
L 426.986796 -318.392753 
L 429.571387 -325.936143 
L 432.155978 -333.376993 
L 434.740569 -340.68659 
L 437.32516 -347.841988 
L 439.909751 -354.825347 
L 442.494342 -361.622696 
L 445.078933 -368.222328 
L 447.663525 -374.613113 
L 450.248116 -380.782966 
L 452.832707 -386.717686 
L 455.417298 -392.400292 
L 458.001889 -397.810878 
L 460.58648 -402.926941 
L 463.171071 -407.724034 
L 465.755663 -412.176588 
L 468.340254 -416.258727 
L 470.924845 -419.944942 
L 473.509436 -423.210539 
L 476.094027 -426.031875 
L 478.678618 -428.386428 
L 481.263209 -430.252813 
L 483.8478 -431.610884 
L 486.432392 -432.44202 
L 489.016983 -432.729688 
L 491.601574 -432.460281 
L 494.186165 -431.624221 
L 496.770756 -430.217183 
L 499.355347 -428.241356 
L 501.939938 -425.706555 
L 504.52453 -422.631065 
L 507.109121 -419.042117 
L 509.693712 -414.975911 
L 512.278303 -410.47718 
L 514.862894 -405.5983 
L 517.447485 -400.397997 
L 520.032076 -394.939699 
L 522.616667 -389.289601 
L 525.201259 -383.514523 
L 527.78585 -377.6796 
L 530.370441 -371.845915 
L 532.955032 -366.068132 
L 535.539623 -360.392251 
L 538.124214 -354.853603 
L 540.708805 -349.47521 
L 543.293397 -344.266662 
L 545.877988 -339.223609 
L 548.462579 -334.327978 
L 551.04717 -329.548941 
L 553.631761 -324.844631 
L 556.216352 -320.164529 
L 558.800943 -315.452399 
L 561.385534 -310.649611 
L 563.970126 -305.698651 
L 566.554717 -300.546628 
L 569.139308 -295.148578 
L 571.723899 -289.470391 
L 574.30849 -283.491204 
L 576.893081 -277.205131 
L 579.477672 -270.622229 
L 582.062264 -263.76861 
L 584.646855 -256.685674 
L 587.231446 -249.42843 
L 589.816037 -242.062959 
L 592.400628 -234.663097 
L 594.985219 -227.306492 
L 597.56981 -220.070241 
L 600.154401 -213.02638 
L 602.738993 -206.237517 
L 605.323584 -199.752958 
L 607.908175 -193.605607 
L 610.492766 -187.809945 
L 613.077357 -182.361262 
L 615.661948 -177.23627 
L 618.246539 -172.395075 
L 620.83113 -167.784377 
L 623.415722 -163.341673 
L 626.000313 -159.000102 
L 628.584904 -154.693548 
L 631.169495 -150.361564 
L 633.754086 -145.953699 
L 636.338677 -141.432879 
L 638.923268 -136.777571 
L 641.50786 -131.982589 
L 644.092451 -127.058526 
L 646.677042 -122.029942 
L 649.261633 -116.932543 
L 651.846224 -111.809673 
L 654.430815 -106.708509 
L 657.015406 -101.676324 
L 659.599997 -96.757188 
L 662.184589 -91.989359 
L 664.76918 -87.403568 
L 667.353771 -83.022239 
L 669.938362 -78.859614 
L 672.522953 -74.922643 
L 675.107544 -71.212402 
L 677.692135 -67.725821 
L 680.276727 -64.457433 
L 682.861318 -61.400948 
L 685.445909 -58.550453 
L 688.0305 -55.901166 
L 690.615091 -53.4497 
L 693.199682 -51.193894 
L 695.784273 -49.132311 
L 698.368864 -47.263536 
L 700.953456 -45.585411 
L 703.538047 -44.094346 
L 706.122638 -42.784804 
L 708.707229 -41.649016 
L 711.29182 -40.676963 
L 713.876411 -39.856585 
L 716.461002 -39.174194 
L 719.045594 -38.615013 
L 721.630185 -38.163761 
L 724.214776 -37.805249 
L 726.799367 -37.524894 
L 729.383958 -37.309142 
L 731.968549 -37.145769 
L 734.55314 -37.024056 
L 737.137731 -36.934852 
L 739.722323 -36.870538 
L 742.306914 -36.824926 
L 744.891505 -36.793108 
L 744.891505 -36.729687 
L 744.891505 -36.729687 
L 742.306914 -36.729687 
L 739.722323 -36.729687 
L 737.137731 -36.729687 
L 734.55314 -36.729687 
L 731.968549 -36.729687 
L 729.383958 -36.729687 
L 726.799367 -36.729687 
L 724.214776 -36.729687 
L 721.630185 -36.729687 
L 719.045594 -36.729687 
L 716.461002 -36.729687 
L 713.876411 -36.729687 
L 711.29182 -36.729687 
L 708.707229 -36.729687 
L 706.122638 -36.729687 
L 703.538047 -36.729687 
L 700.953456 -36.729687 
L 698.368864 -36.729687 
L 695.784273 -36.729687 
L 693.199682 -36.729687 
L 690.615091 -36.729687 
L 688.0305 -36.729687 
L 685.445909 -36.729687 
L 682.861318 -36.729687 
L 680.276727 -36.729687 
L 677.692135 -36.729687 
L 675.107544 -36.729687 
L 672.522953 -36.729687 
L 669.938362 -36.729687 
L 667.353771 -36.729687 
L 664.76918 -36.729687 
L 662.184589 -36.729687 
L 659.599997 -36.729687 
L 657.015406 -36.729687 
L 654.430815 -36.729687 
L 651.846224 -36.729687 
L 649.261633 -36.729687 
L 646.677042 -36.729687 
L 644.092451 -36.729687 
L 641.50786 -36.729687 
L 638.923268 -36.729687 
L 636.338677 -36.729687 
L 633.754086 -36.729687 
L 631.169495 -36.729687 
L 628.584904 -36.729687 
L 626.000313 -36.729687 
L 623.415722 -36.729687 
L 620.83113 -36.729687 
L 618.246539 -36.729687 
L 615.661948 -36.729687 
L 613.077357 -36.729687 
L 610.492766 -36.729687 
L 607.908175 -36.729687 
L 605.323584 -36.729687 
L 602.738993 -36.729687 
L 600.154401 -36.729687 
L 597.56981 -36.729687 
L 594.985219 -36.729687 
L 592.400628 -36.729687 
L 589.816037 -36.729687 
L 587.231446 -36.729687 
L 584.646855 -36.729687 
L 582.062264 -36.729687 
L 579.477672 -36.729687 
L 576.893081 -36.729687 
L 574.30849 -36.729687 
L 571.723899 -36.729687 
L 569.139308 -36.729687 
L 566.554717 -36.729687 
L 563.970126 -36.729687 
L 561.385534 -36.729687 
L 558.800943 -36.729687 
L 556.216352 -36.729687 
L 553.631761 -36.729687 
L 551.04717 -36.729687 
L 548.462579 -36.729687 
L 545.877988 -36.729687 
L 543.293397 -36.729687 
L 540.708805 -36.729687 
L 538.124214 -36.729687 
L 535.539623 -36.729687 
L 532.955032 -36.729687 
L 530.370441 -36.729687 
L 527.78585 -36.729687 
L 525.201259 -36.729687 
L 522.616667 -36.729687 
L 520.032076 -36.729687 
L 517.447485 -36.729687 
L 514.862894 -36.729687 
L 512.278303 -36.729687 
L 509.693712 -36.729687 
L 507.109121 -36.729687 
L 504.52453 -36.729687 
L 501.939938 -36.729687 
L 499.355347 -36.729687 
L 496.770756 -36.729687 
L 494.186165 -36.729687 
L 491.601574 -36.729687 
L 489.016983 -36.729687 
L 486.432392 -36.729687 
L 483.8478 -36.729687 
L 481.263209 -36.729687 
L 478.678618 -36.729687 
L 476.094027 -36.729687 
L 473.509436 -36.729687 
L 470.924845 -36.729687 
L 468.340254 -36.729687 
L 465.755663 -36.729687 
L 463.171071 -36.729687 
L 460.58648 -36.729687 
L 458.001889 -36.729687 
L 455.417298 -36.729687 
L 452.832707 -36.729687 
L 450.248116 -36.729687 
L 447.663525 -36.729687 
L 445.078933 -36.729687 
L 442.494342 -36.729687 
L 439.909751 -36.729687 
L 437.32516 -36.729687 
L 434.740569 -36.729687 
L 432.155978 -36.729687 
L 429.571387 -36.729687 
L 426.986796 -36.729687 
L 424.402204 -36.729687 
L 421.817613 -36.729687 
L 419.233022 -36.729687 
L 416.648431 -36.729687 
L 414.06384 -36.729687 
L 411.479249 -36.729687 
L 408.894658 -36.729687 
L 406.310066 -36.729687 
L 403.725475 -36.729687 
L 401.140884 -36.729687 
L 398.556293 -36.729687 
L 395.971702 -36.729687 
L 393.387111 -36.729687 
L 390.80252 -36.729687 
L 388.217929 -36.729687 
L 385.633337 -36.729687 
L 383.048746 -36.729687 
L 380.464155 -36.729687 
L 377.879564 -36.729687 
L 375.294973 -36.729687 
L 372.710382 -36.729687 
L 370.125791 -36.729687 
L 367.541199 -36.729687 
L 364.956608 -36.729687 
L 362.372017 -36.729687 
L 359.787426 -36.729687 
L 357.202835 -36.729687 
L 354.618244 -36.729687 
L 352.033653 -36.729687 
L 349.449062 -36.729687 
L 346.86447 -36.729687 
L 344.279879 -36.729687 
L 341.695288 -36.729687 
L 339.110697 -36.729687 
L 336.526106 -36.729687 
L 333.941515 -36.729687 
L 331.356924 -36.729687 
L 328.772332 -36.729687 
L 326.187741 -36.729687 
L 323.60315 -36.729687 
L 321.018559 -36.729687 
L 318.433968 -36.729687 
L 315.849377 -36.729687 
L 313.264786 -36.729687 
L 310.680195 -36.729687 
L 308.095603 -36.729687 
L 305.511012 -36.729687 
L 302.926421 -36.729687 
L 300.34183 -36.729687 
L 297.757239 -36.729687 
L 295.172648 -36.729687 
L 292.588057 -36.729687 
L 290.003465 -36.729687 
L 287.418874 -36.729687 
L 284.834283 -36.729687 
L 282.249692 -36.729687 
L 279.665101 -36.729687 
L 277.08051 -36.729687 
L 274.495919 -36.729687 
L 271.911328 -36.729687 
L 269.326736 -36.729687 
L 266.742145 -36.729687 
L 264.157554 -36.729687 
L 261.572963 -36.729687 
L 258.988372 -36.729687 
L 256.403781 -36.729687 
L 253.81919 -36.729687 
L 251.234598 -36.729687 
L 248.650007 -36.729687 
L 246.065416 -36.729687 
L 243.480825 -36.729687 
L 240.896234 -36.729687 
L 238.311643 -36.729687 
L 235.727052 -36.729687 
L 233.142461 -36.729687 
L 230.557869 -36.729687 
z
" style="stroke: #55a868; stroke-opacity: 0.2"/>
    </defs>
    <g>
     <use xlink:href="#m55ee7e9afd" x="0" y="477.077187" style="fill: #55a868; fill-opacity: 0.2; stroke: #55a868; stroke-opacity: 0.2"/>
    </g>
   </g>
   <g id="FillBetweenPolyCollection_2">
    <defs>
     <path id="m6d3d644af0" d="M 207.153036 -36.729687 
L 207.153036 -36.771284 
L 210.163094 -36.793075 
L 213.173152 -36.824771 
L 216.18321 -36.8701 
L 219.193268 -36.933846 
L 222.203326 -37.022008 
L 225.213383 -37.141927 
L 228.223441 -37.302377 
L 231.233499 -37.513578 
L 234.243557 -37.787124 
L 237.253615 -38.135807 
L 240.263673 -38.573327 
L 243.27373 -39.113894 
L 246.283788 -39.771732 
L 249.293846 -40.560533 
L 252.303904 -41.492873 
L 255.313962 -42.579676 
L 258.32402 -43.829747 
L 261.334077 -45.249449 
L 264.344135 -46.842547 
L 267.354193 -48.610249 
L 270.364251 -50.551442 
L 273.374309 -52.663087 
L 276.384367 -54.940762 
L 279.394424 -57.379253 
L 282.404482 -59.973163 
L 285.41454 -62.71746 
L 288.424598 -65.607909 
L 291.434656 -68.641375 
L 294.444714 -71.815954 
L 297.454771 -75.130972 
L 300.464829 -78.586861 
L 303.474887 -82.184955 
L 306.484945 -85.927253 
L 309.495003 -89.816179 
L 312.505061 -93.854376 
L 315.515119 -98.044535 
L 318.525176 -102.389263 
L 321.535234 -106.89097 
L 324.545292 -111.551749 
L 327.55535 -116.373224 
L 330.565408 -121.356355 
L 333.575466 -126.501174 
L 336.585523 -131.806479 
L 339.595581 -137.269503 
L 342.605639 -142.885589 
L 345.615697 -148.647921 
L 348.625755 -154.547355 
L 351.635813 -160.572376 
L 354.64587 -166.709211 
L 357.655928 -172.942097 
L 360.665986 -179.253685 
L 363.676044 -185.625552 
L 366.686102 -192.038783 
L 369.69616 -198.474567 
L 372.706217 -204.914783 
L 375.716275 -211.342522 
L 378.726333 -217.74256 
L 381.736391 -224.101741 
L 384.746449 -230.409307 
L 387.756507 -236.657162 
L 390.766564 -242.840084 
L 393.776622 -248.955871 
L 396.78668 -255.005409 
L 399.796738 -260.992606 
L 402.806796 -266.924164 
L 405.816854 -272.809111 
L 408.826911 -278.658088 
L 411.836969 -284.482344 
L 414.847027 -290.292491 
L 417.857085 -296.097067 
L 420.867143 -301.901041 
L 423.877201 -307.704376 
L 426.887258 -313.50085 
L 429.897316 -319.277254 
L 432.907374 -325.013118 
L 435.917432 -330.681019 
L 438.92749 -336.247476 
L 441.937548 -341.674368 
L 444.947605 -346.920723 
L 447.957663 -351.94471 
L 450.967721 -356.705609 
L 453.977779 -361.165577 
L 456.987837 -365.291039 
L 459.997895 -369.053596 
L 463.007952 -372.430428 
L 466.01801 -375.404212 
L 469.028068 -377.962663 
L 472.038126 -380.097834 
L 475.048184 -381.80532 
L 478.058242 -383.083517 
L 481.068299 -383.933062 
L 484.078357 -384.356496 
L 487.088415 -384.358202 
L 490.098473 -383.944547 
L 493.108531 -383.124182 
L 496.118589 -381.908366 
L 499.128646 -380.311224 
L 502.138704 -378.349815 
L 505.148762 -376.043946 
L 508.15882 -373.415685 
L 511.168878 -370.488592 
L 514.178936 -367.286723 
L 517.188993 -363.833502 
L 520.199051 -360.150598 
L 523.209109 -356.25692 
L 526.219167 -352.167882 
L 529.229225 -347.895007 
L 532.239283 -343.445931 
L 535.24934 -338.824811 
L 538.259398 -334.03307 
L 541.269456 -329.070394 
L 544.279514 -323.93586 
L 547.289572 -318.629051 
L 550.29963 -313.151055 
L 553.309687 -307.505242 
L 556.319745 -301.697778 
L 559.329803 -295.737846 
L 562.339861 -289.63762 
L 565.349919 -283.41202 
L 568.359977 -277.078328 
L 571.370034 -270.65572 
L 574.380092 -264.16477 
L 577.39015 -257.626965 
L 580.400208 -251.064246 
L 583.410266 -244.498577 
L 586.420324 -237.951552 
L 589.430381 -231.444013 
L 592.440439 -224.995694 
L 595.450497 -218.624892 
L 598.460555 -212.348176 
L 601.470613 -206.180151 
L 604.480671 -200.1333 
L 607.490728 -194.217913 
L 610.500786 -188.442114 
L 613.510844 -182.811973 
L 616.520902 -177.331694 
L 619.53096 -172.003846 
L 622.541018 -166.829626 
L 625.551075 -161.809106 
L 628.561133 -156.941456 
L 631.571191 -152.225128 
L 634.581249 -147.657992 
L 637.591307 -143.237429 
L 640.601365 -138.960396 
L 643.611422 -134.823475 
L 646.62148 -130.822922 
L 649.631538 -126.954728 
L 652.641596 -123.214686 
L 655.651654 -119.598489 
L 658.661712 -116.101816 
L 661.671769 -112.720429 
L 664.681827 -109.450241 
L 667.691885 -106.287352 
L 670.701943 -103.228047 
L 673.712001 -100.268733 
L 676.722059 -97.405842 
L 679.732116 -94.635678 
L 682.742174 -91.954253 
L 685.752232 -89.357111 
L 688.76229 -86.839181 
L 691.772348 -84.394672 
L 694.782406 -82.017046 
L 697.792463 -79.69909 
L 700.802521 -77.433092 
L 703.812579 -75.211129 
L 706.822637 -73.025464 
L 709.832695 -70.869025 
L 712.842753 -68.735927 
L 715.85281 -66.62201 
L 718.862868 -64.52532 
L 721.872926 -62.4465 
L 724.882984 -60.389025 
L 727.893042 -58.359248 
L 730.9031 -56.366228 
L 733.913157 -54.421346 
L 736.923215 -52.537704 
L 739.933273 -50.729376 
L 742.943331 -49.010536 
L 745.953389 -47.394575 
L 748.963447 -45.893242 
L 751.973504 -44.515919 
L 754.983562 -43.269066 
L 757.99362 -42.155888 
L 761.003678 -41.176246 
L 764.013736 -40.326793 
L 767.023794 -39.60132 
L 770.033851 -38.991252 
L 773.043909 -38.486247 
L 776.053967 -38.074839 
L 779.064025 -37.745058 
L 782.074083 -37.484994 
L 785.084141 -37.283262 
L 788.094198 -37.129356 
L 791.104256 -37.013883 
L 794.114314 -36.928691 
L 797.124372 -36.866891 
L 800.13443 -36.822814 
L 803.144488 -36.791908 
L 806.154545 -36.770604 
L 806.154545 -36.729687 
L 806.154545 -36.729687 
L 803.144488 -36.729687 
L 800.13443 -36.729687 
L 797.124372 -36.729687 
L 794.114314 -36.729687 
L 791.104256 -36.729687 
L 788.094198 -36.729687 
L 785.084141 -36.729687 
L 782.074083 -36.729687 
L 779.064025 -36.729687 
L 776.053967 -36.729687 
L 773.043909 -36.729687 
L 770.033851 -36.729687 
L 767.023794 -36.729687 
L 764.013736 -36.729687 
L 761.003678 -36.729687 
L 757.99362 -36.729687 
L 754.983562 -36.729687 
L 751.973504 -36.729687 
L 748.963447 -36.729687 
L 745.953389 -36.729687 
L 742.943331 -36.729687 
L 739.933273 -36.729687 
L 736.923215 -36.729687 
L 733.913157 -36.729687 
L 730.9031 -36.729687 
L 727.893042 -36.729687 
L 724.882984 -36.729687 
L 721.872926 -36.729687 
L 718.862868 -36.729687 
L 715.85281 -36.729687 
L 712.842753 -36.729687 
L 709.832695 -36.729687 
L 706.822637 -36.729687 
L 703.812579 -36.729687 
L 700.802521 -36.729687 
L 697.792463 -36.729687 
L 694.782406 -36.729687 
L 691.772348 -36.729687 
L 688.76229 -36.729687 
L 685.752232 -36.729687 
L 682.742174 -36.729687 
L 679.732116 -36.729687 
L 676.722059 -36.729687 
L 673.712001 -36.729687 
L 670.701943 -36.729687 
L 667.691885 -36.729687 
L 664.681827 -36.729687 
L 661.671769 -36.729687 
L 658.661712 -36.729687 
L 655.651654 -36.729687 
L 652.641596 -36.729687 
L 649.631538 -36.729687 
L 646.62148 -36.729687 
L 643.611422 -36.729687 
L 640.601365 -36.729687 
L 637.591307 -36.729687 
L 634.581249 -36.729687 
L 631.571191 -36.729687 
L 628.561133 -36.729687 
L 625.551075 -36.729687 
L 622.541018 -36.729687 
L 619.53096 -36.729687 
L 616.520902 -36.729687 
L 613.510844 -36.729687 
L 610.500786 -36.729687 
L 607.490728 -36.729687 
L 604.480671 -36.729687 
L 601.470613 -36.729687 
L 598.460555 -36.729687 
L 595.450497 -36.729687 
L 592.440439 -36.729687 
L 589.430381 -36.729687 
L 586.420324 -36.729687 
L 583.410266 -36.729687 
L 580.400208 -36.729687 
L 577.39015 -36.729687 
L 574.380092 -36.729687 
L 571.370034 -36.729687 
L 568.359977 -36.729687 
L 565.349919 -36.729687 
L 562.339861 -36.729687 
L 559.329803 -36.729687 
L 556.319745 -36.729687 
L 553.309687 -36.729687 
L 550.29963 -36.729687 
L 547.289572 -36.729687 
L 544.279514 -36.729687 
L 541.269456 -36.729687 
L 538.259398 -36.729687 
L 535.24934 -36.729687 
L 532.239283 -36.729687 
L 529.229225 -36.729687 
L 526.219167 -36.729687 
L 523.209109 -36.729687 
L 520.199051 -36.729687 
L 517.188993 -36.729687 
L 514.178936 -36.729687 
L 511.168878 -36.729687 
L 508.15882 -36.729687 
L 505.148762 -36.729687 
L 502.138704 -36.729687 
L 499.128646 -36.729687 
L 496.118589 -36.729687 
L 493.108531 -36.729687 
L 490.098473 -36.729687 
L 487.088415 -36.729687 
L 484.078357 -36.729687 
L 481.068299 -36.729687 
L 478.058242 -36.729687 
L 475.048184 -36.729687 
L 472.038126 -36.729687 
L 469.028068 -36.729687 
L 466.01801 -36.729687 
L 463.007952 -36.729687 
L 459.997895 -36.729687 
L 456.987837 -36.729687 
L 453.977779 -36.729687 
L 450.967721 -36.729687 
L 447.957663 -36.729687 
L 444.947605 -36.729687 
L 441.937548 -36.729687 
L 438.92749 -36.729687 
L 435.917432 -36.729687 
L 432.907374 -36.729687 
L 429.897316 -36.729687 
L 426.887258 -36.729687 
L 423.877201 -36.729687 
L 420.867143 -36.729687 
L 417.857085 -36.729687 
L 414.847027 -36.729687 
L 411.836969 -36.729687 
L 408.826911 -36.729687 
L 405.816854 -36.729687 
L 402.806796 -36.729687 
L 399.796738 -36.729687 
L 396.78668 -36.729687 
L 393.776622 -36.729687 
L 390.766564 -36.729687 
L 387.756507 -36.729687 
L 384.746449 -36.729687 
L 381.736391 -36.729687 
L 378.726333 -36.729687 
L 375.716275 -36.729687 
L 372.706217 -36.729687 
L 369.69616 -36.729687 
L 366.686102 -36.729687 
L 363.676044 -36.729687 
L 360.665986 -36.729687 
L 357.655928 -36.729687 
L 354.64587 -36.729687 
L 351.635813 -36.729687 
L 348.625755 -36.729687 
L 345.615697 -36.729687 
L 342.605639 -36.729687 
L 339.595581 -36.729687 
L 336.585523 -36.729687 
L 333.575466 -36.729687 
L 330.565408 -36.729687 
L 327.55535 -36.729687 
L 324.545292 -36.729687 
L 321.535234 -36.729687 
L 318.525176 -36.729687 
L 315.515119 -36.729687 
L 312.505061 -36.729687 
L 309.495003 -36.729687 
L 306.484945 -36.729687 
L 303.474887 -36.729687 
L 300.464829 -36.729687 
L 297.454771 -36.729687 
L 294.444714 -36.729687 
L 291.434656 -36.729687 
L 288.424598 -36.729687 
L 285.41454 -36.729687 
L 282.404482 -36.729687 
L 279.394424 -36.729687 
L 276.384367 -36.729687 
L 273.374309 -36.729687 
L 270.364251 -36.729687 
L 267.354193 -36.729687 
L 264.344135 -36.729687 
L 261.334077 -36.729687 
L 258.32402 -36.729687 
L 255.313962 -36.729687 
L 252.303904 -36.729687 
L 249.293846 -36.729687 
L 246.283788 -36.729687 
L 243.27373 -36.729687 
L 240.263673 -36.729687 
L 237.253615 -36.729687 
L 234.243557 -36.729687 
L 231.233499 -36.729687 
L 228.223441 -36.729687 
L 225.213383 -36.729687 
L 222.203326 -36.729687 
L 219.193268 -36.729687 
L 216.18321 -36.729687 
L 213.173152 -36.729687 
L 210.163094 -36.729687 
L 207.153036 -36.729687 
z
" style="stroke: #dd8452; stroke-opacity: 0.2"/>
    </defs>
    <g>
     <use xlink:href="#m6d3d644af0" x="0" y="477.077187" style="fill: #dd8452; fill-opacity: 0.2; stroke: #dd8452; stroke-opacity: 0.2"/>
    </g>
   </g>
   <g id="FillBetweenPolyCollection_3">
    <defs>
     <path id="ma49a4f6ad4" d="M 45.245455 -36.729687 
L 45.245455 -36.754442 
L 48.851321 -36.767875 
L 52.457188 -36.787658 
L 56.063055 -36.816302 
L 59.668922 -36.857082 
L 63.274789 -36.91418 
L 66.880656 -36.992818 
L 70.486523 -37.099371 
L 74.092389 -37.241445 
L 77.698256 -37.427908 
L 81.304123 -37.668845 
L 84.90999 -37.97545 
L 88.515857 -38.359823 
L 92.121724 -38.834694 
L 95.727591 -39.413072 
L 99.333458 -40.10783 
L 102.939324 -40.931276 
L 106.545191 -41.894705 
L 110.151058 -43.007998 
L 113.756925 -44.279275 
L 117.362792 -45.714646 
L 120.968659 -47.318067 
L 124.574526 -49.091336 
L 128.180392 -51.034206 
L 131.786259 -53.144632 
L 135.392126 -55.419132 
L 138.997993 -57.853245 
L 142.60386 -60.442063 
L 146.209727 -63.180819 
L 149.815594 -66.065483 
L 153.421461 -69.093343 
L 157.027327 -72.263526 
L 160.633194 -75.577394 
L 164.239061 -79.038787 
L 167.844928 -82.654044 
L 171.450795 -86.431772 
L 175.056662 -90.382348 
L 178.662529 -94.51715 
L 182.268395 -98.847588 
L 185.874262 -103.383996 
L 189.480129 -108.1345 
L 193.085996 -113.104015 
L 196.691863 -118.293471 
L 200.29773 -123.699407 
L 203.903597 -129.313986 
L 207.509464 -135.125443 
L 211.11533 -141.118907 
L 214.721197 -147.277489 
L 218.327064 -153.583444 
L 221.932931 -160.01924 
L 225.538798 -166.568328 
L 229.144665 -173.215475 
L 232.750532 -179.946583 
L 236.356398 -186.747995 
L 239.962265 -193.605372 
L 243.568132 -200.502341 
L 247.173999 -207.419121 
L 250.779866 -214.331399 
L 254.385733 -221.209702 
L 257.9916 -228.019442 
L 261.597467 -234.721757 
L 265.203333 -241.275143 
L 268.8092 -247.637764 
L 272.415067 -253.770233 
L 276.020934 -259.63856 
L 279.626801 -265.216943 
L 283.232668 -270.490038 
L 286.838535 -275.454427 
L 290.444401 -280.119051 
L 294.050268 -284.504494 
L 297.656135 -288.641147 
L 301.262002 -292.566394 
L 304.867869 -296.321087 
L 308.473736 -299.945667 
L 312.079603 -303.476333 
L 315.68547 -306.941626 
L 319.291336 -310.3598 
L 322.897203 -313.737171 
L 326.50307 -317.06758 
L 330.108937 -320.332917 
L 333.714804 -323.504547 
L 337.320671 -326.545393 
L 340.926538 -329.412357 
L 344.532404 -332.058809 
L 348.138271 -334.436898 
L 351.744138 -336.499542 
L 355.350005 -338.202061 
L 358.955872 -339.503502 
L 362.561739 -340.36777 
L 366.167606 -340.764677 
L 369.773473 -340.671013 
L 373.379339 -340.071643 
L 376.985206 -338.960579 
L 380.591073 -337.341853 
L 384.19694 -335.23002 
L 387.802807 -332.650066 
L 391.408674 -329.636587 
L 395.014541 -326.232163 
L 398.620407 -322.485023 
L 402.226274 -318.446155 
L 405.832141 -314.166183 
L 409.438008 -309.692342 
L 413.043875 -305.065896 
L 416.649742 -300.3203 
L 420.255609 -295.480271 
L 423.861476 -290.561829 
L 427.467342 -285.573233 
L 431.073209 -280.516613 
L 434.679076 -275.390039 
L 438.284943 -270.189729 
L 441.89081 -264.912115 
L 445.496677 -259.555559 
L 449.102544 -254.121545 
L 452.70841 -248.615314 
L 456.314277 -243.045928 
L 459.920144 -237.425872 
L 463.526011 -231.770301 
L 467.131878 -226.096079 
L 470.737745 -220.420756 
L 474.343612 -214.761621 
L 477.949479 -209.134913 
L 481.555345 -203.55528 
L 485.161212 -198.035502 
L 488.767079 -192.586481 
L 492.372946 -187.217461 
L 495.978813 -181.936406 
L 499.58468 -176.750468 
L 503.190547 -171.666436 
L 506.796414 -166.691104 
L 510.40228 -161.831462 
L 514.008147 -157.094694 
L 517.614014 -152.487958 
L 521.219881 -148.01799 
L 524.825748 -143.690583 
L 528.431615 -139.510047 
L 532.037482 -135.47873 
L 535.643348 -131.596691 
L 539.249215 -127.861611 
L 542.855082 -124.26894 
L 546.460949 -120.812298 
L 550.066816 -117.484058 
L 553.672683 -114.276035 
L 557.27855 -111.180177 
L 560.884417 -108.189156 
L 564.490283 -105.296792 
L 568.09615 -102.498247 
L 571.702017 -99.789993 
L 575.307884 -97.169583 
L 578.913751 -94.63529 
L 582.519618 -92.185686 
L 586.125485 -89.819246 
L 589.731351 -87.53405 
L 593.337218 -85.327611 
L 596.943085 -83.19686 
L 600.548952 -81.138251 
L 604.154819 -79.147976 
L 607.760686 -77.222205 
L 611.366553 -75.357323 
L 614.97242 -73.550096 
L 618.578286 -71.797742 
L 622.184153 -70.097888 
L 625.79002 -68.448423 
L 629.395887 -66.847273 
L 633.001754 -65.292146 
L 636.607621 -63.780292 
L 640.213488 -62.30834 
L 643.819354 -60.87225 
L 647.425221 -59.467412 
L 651.031088 -58.088907 
L 654.636955 -56.731901 
L 658.242822 -55.392145 
L 661.848689 -54.066514 
L 665.454556 -52.75351 
L 669.060423 -51.453673 
L 672.666289 -50.169811 
L 676.272156 -48.907025 
L 679.878023 -47.6725 
L 683.48389 -46.475074 
L 687.089757 -45.324633 
L 690.695624 -44.23138 
L 694.301491 -43.20507 
L 697.907357 -42.254283 
L 701.513224 -41.385808 
L 705.119091 -40.6042 
L 708.724958 -39.911531 
L 712.330825 -39.307359 
L 715.936692 -38.788888 
L 719.542559 -38.35128 
L 723.148426 -37.988095 
L 726.754292 -37.691774 
L 730.360159 -37.454136 
L 733.966026 -37.266842 
L 737.571893 -37.121787 
L 741.17776 -37.011405 
L 744.783627 -36.928879 
L 748.389494 -36.868267 
L 751.99536 -36.824536 
L 755.601227 -36.793543 
L 759.207094 -36.77197 
L 762.812961 -36.75722 
L 762.812961 -36.729687 
L 762.812961 -36.729687 
L 759.207094 -36.729687 
L 755.601227 -36.729687 
L 751.99536 -36.729687 
L 748.389494 -36.729687 
L 744.783627 -36.729687 
L 741.17776 -36.729687 
L 737.571893 -36.729687 
L 733.966026 -36.729687 
L 730.360159 -36.729687 
L 726.754292 -36.729687 
L 723.148426 -36.729687 
L 719.542559 -36.729687 
L 715.936692 -36.729687 
L 712.330825 -36.729687 
L 708.724958 -36.729687 
L 705.119091 -36.729687 
L 701.513224 -36.729687 
L 697.907357 -36.729687 
L 694.301491 -36.729687 
L 690.695624 -36.729687 
L 687.089757 -36.729687 
L 683.48389 -36.729687 
L 679.878023 -36.729687 
L 676.272156 -36.729687 
L 672.666289 -36.729687 
L 669.060423 -36.729687 
L 665.454556 -36.729687 
L 661.848689 -36.729687 
L 658.242822 -36.729687 
L 654.636955 -36.729687 
L 651.031088 -36.729687 
L 647.425221 -36.729687 
L 643.819354 -36.729687 
L 640.213488 -36.729687 
L 636.607621 -36.729687 
L 633.001754 -36.729687 
L 629.395887 -36.729687 
L 625.79002 -36.729687 
L 622.184153 -36.729687 
L 618.578286 -36.729687 
L 614.97242 -36.729687 
L 611.366553 -36.729687 
L 607.760686 -36.729687 
L 604.154819 -36.729687 
L 600.548952 -36.729687 
L 596.943085 -36.729687 
L 593.337218 -36.729687 
L 589.731351 -36.729687 
L 586.125485 -36.729687 
L 582.519618 -36.729687 
L 578.913751 -36.729687 
L 575.307884 -36.729687 
L 571.702017 -36.729687 
L 568.09615 -36.729687 
L 564.490283 -36.729687 
L 560.884417 -36.729687 
L 557.27855 -36.729687 
L 553.672683 -36.729687 
L 550.066816 -36.729687 
L 546.460949 -36.729687 
L 542.855082 -36.729687 
L 539.249215 -36.729687 
L 535.643348 -36.729687 
L 532.037482 -36.729687 
L 528.431615 -36.729687 
L 524.825748 -36.729687 
L 521.219881 -36.729687 
L 517.614014 -36.729687 
L 514.008147 -36.729687 
L 510.40228 -36.729687 
L 506.796414 -36.729687 
L 503.190547 -36.729687 
L 499.58468 -36.729687 
L 495.978813 -36.729687 
L 492.372946 -36.729687 
L 488.767079 -36.729687 
L 485.161212 -36.729687 
L 481.555345 -36.729687 
L 477.949479 -36.729687 
L 474.343612 -36.729687 
L 470.737745 -36.729687 
L 467.131878 -36.729687 
L 463.526011 -36.729687 
L 459.920144 -36.729687 
L 456.314277 -36.729687 
L 452.70841 -36.729687 
L 449.102544 -36.729687 
L 445.496677 -36.729687 
L 441.89081 -36.729687 
L 438.284943 -36.729687 
L 434.679076 -36.729687 
L 431.073209 -36.729687 
L 427.467342 -36.729687 
L 423.861476 -36.729687 
L 420.255609 -36.729687 
L 416.649742 -36.729687 
L 413.043875 -36.729687 
L 409.438008 -36.729687 
L 405.832141 -36.729687 
L 402.226274 -36.729687 
L 398.620407 -36.729687 
L 395.014541 -36.729687 
L 391.408674 -36.729687 
L 387.802807 -36.729687 
L 384.19694 -36.729687 
L 380.591073 -36.729687 
L 376.985206 -36.729687 
L 373.379339 -36.729687 
L 369.773473 -36.729687 
L 366.167606 -36.729687 
L 362.561739 -36.729687 
L 358.955872 -36.729687 
L 355.350005 -36.729687 
L 351.744138 -36.729687 
L 348.138271 -36.729687 
L 344.532404 -36.729687 
L 340.926538 -36.729687 
L 337.320671 -36.729687 
L 333.714804 -36.729687 
L 330.108937 -36.729687 
L 326.50307 -36.729687 
L 322.897203 -36.729687 
L 319.291336 -36.729687 
L 315.68547 -36.729687 
L 312.079603 -36.729687 
L 308.473736 -36.729687 
L 304.867869 -36.729687 
L 301.262002 -36.729687 
L 297.656135 -36.729687 
L 294.050268 -36.729687 
L 290.444401 -36.729687 
L 286.838535 -36.729687 
L 283.232668 -36.729687 
L 279.626801 -36.729687 
L 276.020934 -36.729687 
L 272.415067 -36.729687 
L 268.8092 -36.729687 
L 265.203333 -36.729687 
L 261.597467 -36.729687 
L 257.9916 -36.729687 
L 254.385733 -36.729687 
L 250.779866 -36.729687 
L 247.173999 -36.729687 
L 243.568132 -36.729687 
L 239.962265 -36.729687 
L 236.356398 -36.729687 
L 232.750532 -36.729687 
L 229.144665 -36.729687 
L 225.538798 -36.729687 
L 221.932931 -36.729687 
L 218.327064 -36.729687 
L 214.721197 -36.729687 
L 211.11533 -36.729687 
L 207.509464 -36.729687 
L 203.903597 -36.729687 
L 200.29773 -36.729687 
L 196.691863 -36.729687 
L 193.085996 -36.729687 
L 189.480129 -36.729687 
L 185.874262 -36.729687 
L 182.268395 -36.729687 
L 178.662529 -36.729687 
L 175.056662 -36.729687 
L 171.450795 -36.729687 
L 167.844928 -36.729687 
L 164.239061 -36.729687 
L 160.633194 -36.729687 
L 157.027327 -36.729687 
L 153.421461 -36.729687 
L 149.815594 -36.729687 
L 146.209727 -36.729687 
L 142.60386 -36.729687 
L 138.997993 -36.729687 
L 135.392126 -36.729687 
L 131.786259 -36.729687 
L 128.180392 -36.729687 
L 124.574526 -36.729687 
L 120.968659 -36.729687 
L 117.362792 -36.729687 
L 113.756925 -36.729687 
L 110.151058 -36.729687 
L 106.545191 -36.729687 
L 102.939324 -36.729687 
L 99.333458 -36.729687 
L 95.727591 -36.729687 
L 92.121724 -36.729687 
L 88.515857 -36.729687 
L 84.90999 -36.729687 
L 81.304123 -36.729687 
L 77.698256 -36.729687 
L 74.092389 -36.729687 
L 70.486523 -36.729687 
L 66.880656 -36.729687 
L 63.274789 -36.729687 
L 59.668922 -36.729687 
L 56.063055 -36.729687 
L 52.457188 -36.729687 
L 48.851321 -36.729687 
L 45.245455 -36.729687 
z
" style="stroke: #4c72b0; stroke-opacity: 0.2"/>
    </defs>
    <g>
     <use xlink:href="#ma49a4f6ad4" x="0" y="477.077187" style="fill: #4c72b0; fill-opacity: 0.2; stroke: #4c72b0; stroke-opacity: 0.2"/>
    </g>
   </g>
   <g id="FillBetweenPolyCollection_4">
    <defs>
     <path id="mf016a2ad2c" d="M 230.557869 -36.787273 
L 230.557869 -36.729687 
L 233.142461 -36.729687 
L 235.727052 -36.729687 
L 238.311643 -36.729687 
L 240.896234 -36.729687 
L 243.480825 -36.729687 
L 246.065416 -36.729687 
L 248.650007 -36.729687 
L 251.234598 -36.729687 
L 253.81919 -36.729687 
L 256.403781 -36.729687 
L 258.988372 -36.729687 
L 261.572963 -36.729687 
L 264.157554 -36.729687 
L 266.742145 -36.729687 
L 269.326736 -36.729687 
L 271.911328 -36.729687 
L 274.495919 -36.729687 
L 277.08051 -36.729687 
L 279.665101 -36.729687 
L 282.249692 -36.729687 
L 284.834283 -36.729687 
L 287.418874 -36.729687 
L 290.003465 -36.729687 
L 292.588057 -36.729687 
L 295.172648 -36.729687 
L 297.757239 -36.729687 
L 300.34183 -36.729687 
L 302.926421 -36.729687 
L 305.511012 -36.729687 
L 308.095603 -36.729687 
L 310.680195 -36.729687 
L 313.264786 -36.729687 
L 315.849377 -36.729687 
L 318.433968 -36.729687 
L 321.018559 -36.729687 
L 323.60315 -36.729687 
L 326.187741 -36.729687 
L 328.772332 -36.729687 
L 331.356924 -36.729687 
L 333.941515 -36.729687 
L 336.526106 -36.729687 
L 339.110697 -36.729687 
L 341.695288 -36.729687 
L 344.279879 -36.729687 
L 346.86447 -36.729687 
L 349.449062 -36.729687 
L 352.033653 -36.729687 
L 354.618244 -36.729687 
L 357.202835 -36.729687 
L 359.787426 -36.729687 
L 362.372017 -36.729687 
L 364.956608 -36.729687 
L 367.541199 -36.729687 
L 370.125791 -36.729687 
L 372.710382 -36.729687 
L 375.294973 -36.729687 
L 377.879564 -36.729687 
L 380.464155 -36.729687 
L 383.048746 -36.729687 
L 385.633337 -36.729687 
L 388.217929 -36.729687 
L 390.80252 -36.729687 
L 393.387111 -36.729687 
L 395.971702 -36.729687 
L 398.556293 -36.729687 
L 401.140884 -36.729687 
L 403.725475 -36.729687 
L 406.310066 -36.729687 
L 408.894658 -36.729687 
L 411.479249 -36.729687 
L 414.06384 -36.729687 
L 416.648431 -36.729687 
L 419.233022 -36.729687 
L 421.817613 -36.729687 
L 424.402204 -36.729687 
L 426.986796 -36.729687 
L 429.571387 -36.729687 
L 432.155978 -36.729687 
L 434.740569 -36.729687 
L 435.628829 -36.729687 
L 435.628829 -343.134034 
L 435.628829 -343.134034 
L 434.740569 -340.68659 
L 432.155978 -333.376993 
L 429.571387 -325.936143 
L 426.986796 -318.392753 
L 424.402204 -310.781222 
L 421.817613 -303.140762 
L 419.233022 -295.513797 
L 416.648431 -287.9438 
L 414.06384 -280.472808 
L 411.479249 -273.138922 
L 408.894658 -265.974085 
L 406.310066 -259.002386 
L 403.725475 -252.239083 
L 401.140884 -245.690423 
L 398.556293 -239.354238 
L 395.971702 -233.221203 
L 393.387111 -227.276558 
L 390.80252 -221.502067 
L 388.217929 -215.877978 
L 385.633337 -210.384768 
L 383.048746 -205.004518 
L 380.464155 -199.721848 
L 377.879564 -194.524367 
L 375.294973 -189.402717 
L 372.710382 -184.350293 
L 370.125791 -179.362753 
L 367.541199 -174.437444 
L 364.956608 -169.572859 
L 362.372017 -164.768175 
L 359.787426 -160.022938 
L 357.202835 -155.336895 
L 354.618244 -150.709952 
L 352.033653 -146.142235 
L 349.449062 -141.634197 
L 346.86447 -137.186745 
L 344.279879 -132.801339 
L 341.695288 -128.48003 
L 339.110697 -124.225435 
L 336.526106 -120.040621 
L 333.941515 -115.92891 
L 331.356924 -111.893626 
L 328.772332 -107.937787 
L 326.187741 -104.063804 
L 323.60315 -100.273217 
L 321.018559 -96.566515 
L 318.433968 -92.943093 
L 315.849377 -89.401375 
L 313.264786 -85.939124 
L 310.680195 -82.553922 
L 308.095603 -79.243783 
L 305.511012 -76.007844 
L 302.926421 -72.84703 
L 300.34183 -69.764615 
L 297.757239 -66.766577 
L 295.172648 -63.861685 
L 292.588057 -61.06127 
L 290.003465 -58.378692 
L 287.418874 -55.828523 
L 284.834283 -53.425552 
L 282.249692 -51.183685 
L 279.665101 -49.11488 
L 277.08051 -47.228205 
L 274.495919 -45.529131 
L 271.911328 -44.019111 
L 269.326736 -42.695467 
L 266.742145 -41.551594 
L 264.157554 -40.577417 
L 261.572963 -39.760055 
L 258.988372 -39.084601 
L 256.403781 -38.534945 
L 253.81919 -38.094568 
L 251.234598 -37.74724 
L 248.650007 -37.477601 
L 246.065416 -37.271577 
L 243.480825 -37.116654 
L 240.896234 -37.002011 
L 238.311643 -36.918529 
L 235.727052 -36.85871 
L 233.142461 -36.816534 
L 230.557869 -36.787273 
z
"/>
    </defs>
    <g>
     <use xlink:href="#mf016a2ad2c" x="0" y="477.077187" style="fill: #55a868; fill-opacity: 0.3"/>
    </g>
   </g>
   <g id="FillBetweenPolyCollection_5">
    <defs>
     <path id="mf0c3d408b2" d="M 207.153036 -36.771284 
L 207.153036 -36.729687 
L 210.163094 -36.729687 
L 213.173152 -36.729687 
L 216.18321 -36.729687 
L 219.193268 -36.729687 
L 222.203326 -36.729687 
L 225.213383 -36.729687 
L 228.223441 -36.729687 
L 231.233499 -36.729687 
L 234.243557 -36.729687 
L 237.253615 -36.729687 
L 240.263673 -36.729687 
L 243.27373 -36.729687 
L 246.283788 -36.729687 
L 249.293846 -36.729687 
L 252.303904 -36.729687 
L 255.313962 -36.729687 
L 258.32402 -36.729687 
L 261.334077 -36.729687 
L 264.344135 -36.729687 
L 267.354193 -36.729687 
L 270.364251 -36.729687 
L 273.374309 -36.729687 
L 276.384367 -36.729687 
L 279.394424 -36.729687 
L 282.404482 -36.729687 
L 285.41454 -36.729687 
L 288.424598 -36.729687 
L 291.434656 -36.729687 
L 294.444714 -36.729687 
L 297.454771 -36.729687 
L 300.464829 -36.729687 
L 303.474887 -36.729687 
L 306.484945 -36.729687 
L 309.495003 -36.729687 
L 312.505061 -36.729687 
L 315.515119 -36.729687 
L 318.525176 -36.729687 
L 321.535234 -36.729687 
L 324.545292 -36.729687 
L 327.55535 -36.729687 
L 330.565408 -36.729687 
L 333.575466 -36.729687 
L 336.585523 -36.729687 
L 339.595581 -36.729687 
L 342.605639 -36.729687 
L 345.615697 -36.729687 
L 348.625755 -36.729687 
L 351.635813 -36.729687 
L 354.64587 -36.729687 
L 357.655928 -36.729687 
L 360.665986 -36.729687 
L 363.676044 -36.729687 
L 366.686102 -36.729687 
L 369.69616 -36.729687 
L 372.706217 -36.729687 
L 375.716275 -36.729687 
L 378.726333 -36.729687 
L 381.736391 -36.729687 
L 384.746449 -36.729687 
L 387.756507 -36.729687 
L 390.766564 -36.729687 
L 393.776622 -36.729687 
L 396.78668 -36.729687 
L 399.796738 -36.729687 
L 402.806796 -36.729687 
L 405.816854 -36.729687 
L 408.826911 -36.729687 
L 411.836969 -36.729687 
L 414.847027 -36.729687 
L 417.857085 -36.729687 
L 420.867143 -36.729687 
L 423.877201 -36.729687 
L 426.887258 -36.729687 
L 429.897316 -36.729687 
L 432.907374 -36.729687 
L 435.628829 -36.729687 
L 435.628829 -330.133426 
L 435.628829 -330.133426 
L 432.907374 -325.013118 
L 429.897316 -319.277254 
L 426.887258 -313.50085 
L 423.877201 -307.704376 
L 420.867143 -301.901041 
L 417.857085 -296.097067 
L 414.847027 -290.292491 
L 411.836969 -284.482344 
L 408.826911 -278.658088 
L 405.816854 -272.809111 
L 402.806796 -266.924164 
L 399.796738 -260.992606 
L 396.78668 -255.005409 
L 393.776622 -248.955871 
L 390.766564 -242.840084 
L 387.756507 -236.657162 
L 384.746449 -230.409307 
L 381.736391 -224.101741 
L 378.726333 -217.74256 
L 375.716275 -211.342522 
L 372.706217 -204.914783 
L 369.69616 -198.474567 
L 366.686102 -192.038783 
L 363.676044 -185.625552 
L 360.665986 -179.253685 
L 357.655928 -172.942097 
L 354.64587 -166.709211 
L 351.635813 -160.572376 
L 348.625755 -154.547355 
L 345.615697 -148.647921 
L 342.605639 -142.885589 
L 339.595581 -137.269503 
L 336.585523 -131.806479 
L 333.575466 -126.501174 
L 330.565408 -121.356355 
L 327.55535 -116.373224 
L 324.545292 -111.551749 
L 321.535234 -106.89097 
L 318.525176 -102.389263 
L 315.515119 -98.044535 
L 312.505061 -93.854376 
L 309.495003 -89.816179 
L 306.484945 -85.927253 
L 303.474887 -82.184955 
L 300.464829 -78.586861 
L 297.454771 -75.130972 
L 294.444714 -71.815954 
L 291.434656 -68.641375 
L 288.424598 -65.607909 
L 285.41454 -62.71746 
L 282.404482 -59.973163 
L 279.394424 -57.379253 
L 276.384367 -54.940762 
L 273.374309 -52.663087 
L 270.364251 -50.551442 
L 267.354193 -48.610249 
L 264.344135 -46.842547 
L 261.334077 -45.249449 
L 258.32402 -43.829747 
L 255.313962 -42.579676 
L 252.303904 -41.492873 
L 249.293846 -40.560533 
L 246.283788 -39.771732 
L 243.27373 -39.113894 
L 240.263673 -38.573327 
L 237.253615 -38.135807 
L 234.243557 -37.787124 
L 231.233499 -37.513578 
L 228.223441 -37.302377 
L 225.213383 -37.141927 
L 222.203326 -37.022008 
L 219.193268 -36.933846 
L 216.18321 -36.8701 
L 213.173152 -36.824771 
L 210.163094 -36.793075 
L 207.153036 -36.771284 
z
"/>
    </defs>
    <g>
     <use xlink:href="#mf0c3d408b2" x="0" y="477.077187" style="fill: #dd8452; fill-opacity: 0.3"/>
    </g>
   </g>
   <g id="FillBetweenPolyCollection_6">
    <defs>
     <path id="me0261b58d4" d="M 45.245455 -36.754442 
L 45.245455 -36.729687 
L 48.851321 -36.729687 
L 52.457188 -36.729687 
L 56.063055 -36.729687 
L 59.668922 -36.729687 
L 63.274789 -36.729687 
L 66.880656 -36.729687 
L 70.486523 -36.729687 
L 74.092389 -36.729687 
L 77.698256 -36.729687 
L 81.304123 -36.729687 
L 84.90999 -36.729687 
L 88.515857 -36.729687 
L 92.121724 -36.729687 
L 95.727591 -36.729687 
L 99.333458 -36.729687 
L 102.939324 -36.729687 
L 106.545191 -36.729687 
L 110.151058 -36.729687 
L 113.756925 -36.729687 
L 117.362792 -36.729687 
L 120.968659 -36.729687 
L 124.574526 -36.729687 
L 128.180392 -36.729687 
L 131.786259 -36.729687 
L 135.392126 -36.729687 
L 138.997993 -36.729687 
L 142.60386 -36.729687 
L 146.209727 -36.729687 
L 149.815594 -36.729687 
L 153.421461 -36.729687 
L 157.027327 -36.729687 
L 160.633194 -36.729687 
L 164.239061 -36.729687 
L 167.844928 -36.729687 
L 171.450795 -36.729687 
L 175.056662 -36.729687 
L 178.662529 -36.729687 
L 182.268395 -36.729687 
L 185.874262 -36.729687 
L 189.480129 -36.729687 
L 193.085996 -36.729687 
L 196.691863 -36.729687 
L 200.29773 -36.729687 
L 203.903597 -36.729687 
L 207.509464 -36.729687 
L 211.11533 -36.729687 
L 214.721197 -36.729687 
L 218.327064 -36.729687 
L 221.932931 -36.729687 
L 225.538798 -36.729687 
L 229.144665 -36.729687 
L 232.750532 -36.729687 
L 236.356398 -36.729687 
L 239.962265 -36.729687 
L 243.568132 -36.729687 
L 247.173999 -36.729687 
L 250.779866 -36.729687 
L 254.385733 -36.729687 
L 257.9916 -36.729687 
L 261.597467 -36.729687 
L 265.203333 -36.729687 
L 268.8092 -36.729687 
L 272.415067 -36.729687 
L 276.020934 -36.729687 
L 279.626801 -36.729687 
L 283.232668 -36.729687 
L 286.838535 -36.729687 
L 290.444401 -36.729687 
L 294.050268 -36.729687 
L 297.656135 -36.729687 
L 301.262002 -36.729687 
L 304.867869 -36.729687 
L 308.473736 -36.729687 
L 312.079603 -36.729687 
L 315.68547 -36.729687 
L 319.291336 -36.729687 
L 322.897203 -36.729687 
L 326.50307 -36.729687 
L 330.108937 -36.729687 
L 333.714804 -36.729687 
L 337.320671 -36.729687 
L 340.926538 -36.729687 
L 344.532404 -36.729687 
L 348.138271 -36.729687 
L 351.744138 -36.729687 
L 355.350005 -36.729687 
L 358.955872 -36.729687 
L 362.561739 -36.729687 
L 366.167606 -36.729687 
L 369.773473 -36.729687 
L 373.379339 -36.729687 
L 376.985206 -36.729687 
L 380.591073 -36.729687 
L 384.19694 -36.729687 
L 387.802807 -36.729687 
L 391.408674 -36.729687 
L 395.014541 -36.729687 
L 398.620407 -36.729687 
L 402.226274 -36.729687 
L 405.832141 -36.729687 
L 409.438008 -36.729687 
L 413.043875 -36.729687 
L 416.649742 -36.729687 
L 420.255609 -36.729687 
L 423.861476 -36.729687 
L 427.467342 -36.729687 
L 431.073209 -36.729687 
L 434.679076 -36.729687 
L 435.628829 -36.729687 
L 435.628829 -274.03051 
L 435.628829 -274.03051 
L 434.679076 -275.390039 
L 431.073209 -280.516613 
L 427.467342 -285.573233 
L 423.861476 -290.561829 
L 420.255609 -295.480271 
L 416.649742 -300.3203 
L 413.043875 -305.065896 
L 409.438008 -309.692342 
L 405.832141 -314.166183 
L 402.226274 -318.446155 
L 398.620407 -322.485023 
L 395.014541 -326.232163 
L 391.408674 -329.636587 
L 387.802807 -332.650066 
L 384.19694 -335.23002 
L 380.591073 -337.341853 
L 376.985206 -338.960579 
L 373.379339 -340.071643 
L 369.773473 -340.671013 
L 366.167606 -340.764677 
L 362.561739 -340.36777 
L 358.955872 -339.503502 
L 355.350005 -338.202061 
L 351.744138 -336.499542 
L 348.138271 -334.436898 
L 344.532404 -332.058809 
L 340.926538 -329.412357 
L 337.320671 -326.545393 
L 333.714804 -323.504547 
L 330.108937 -320.332917 
L 326.50307 -317.06758 
L 322.897203 -313.737171 
L 319.291336 -310.3598 
L 315.68547 -306.941626 
L 312.079603 -303.476333 
L 308.473736 -299.945667 
L 304.867869 -296.321087 
L 301.262002 -292.566394 
L 297.656135 -288.641147 
L 294.050268 -284.504494 
L 290.444401 -280.119051 
L 286.838535 -275.454427 
L 283.232668 -270.490038 
L 279.626801 -265.216943 
L 276.020934 -259.63856 
L 272.415067 -253.770233 
L 268.8092 -247.637764 
L 265.203333 -241.275143 
L 261.597467 -234.721757 
L 257.9916 -228.019442 
L 254.385733 -221.209702 
L 250.779866 -214.331399 
L 247.173999 -207.419121 
L 243.568132 -200.502341 
L 239.962265 -193.605372 
L 236.356398 -186.747995 
L 232.750532 -179.946583 
L 229.144665 -173.215475 
L 225.538798 -166.568328 
L 221.932931 -160.01924 
L 218.327064 -153.583444 
L 214.721197 -147.277489 
L 211.11533 -141.118907 
L 207.509464 -135.125443 
L 203.903597 -129.313986 
L 200.29773 -123.699407 
L 196.691863 -118.293471 
L 193.085996 -113.104015 
L 189.480129 -108.1345 
L 185.874262 -103.383996 
L 182.268395 -98.847588 
L 178.662529 -94.51715 
L 175.056662 -90.382348 
L 171.450795 -86.431772 
L 167.844928 -82.654044 
L 164.239061 -79.038787 
L 160.633194 -75.577394 
L 157.027327 -72.263526 
L 153.421461 -69.093343 
L 149.815594 -66.065483 
L 146.209727 -63.180819 
L 142.60386 -60.442063 
L 138.997993 -57.853245 
L 135.392126 -55.419132 
L 131.786259 -53.144632 
L 128.180392 -51.034206 
L 124.574526 -49.091336 
L 120.968659 -47.318067 
L 117.362792 -45.714646 
L 113.756925 -44.279275 
L 110.151058 -43.007998 
L 106.545191 -41.894705 
L 102.939324 -40.931276 
L 99.333458 -40.10783 
L 95.727591 -39.413072 
L 92.121724 -38.834694 
L 88.515857 -38.359823 
L 84.90999 -37.97545 
L 81.304123 -37.668845 
L 77.698256 -37.427908 
L 74.092389 -37.241445 
L 70.486523 -37.099371 
L 66.880656 -36.992818 
L 63.274789 -36.91418 
L 59.668922 -36.857082 
L 56.063055 -36.816302 
L 52.457188 -36.787658 
L 48.851321 -36.767875 
L 45.245455 -36.754442 
z
"/>
    </defs>
    <g>
     <use xlink:href="#me0261b58d4" x="0" y="477.077187" style="fill: #4c72b0; fill-opacity: 0.3"/>
    </g>
   </g>
   <g id="line2d_19">
    <path d="M 230.557869 440.289914 
L 240.896234 440.075176 
L 246.065416 439.805611 
L 251.234598 439.329947 
L 256.403781 438.542242 
L 258.988372 437.992586 
L 261.572963 437.317132 
L 264.157554 436.49977 
L 266.742145 435.525594 
L 269.326736 434.38172 
L 271.911328 433.058077 
L 274.495919 431.548056 
L 277.08051 429.848983 
L 279.665101 427.962308 
L 282.249692 425.893502 
L 284.834283 423.651636 
L 290.003465 418.698496 
L 295.172648 413.215503 
L 300.34183 407.312573 
L 305.511012 401.069344 
L 310.680195 394.523266 
L 315.849377 387.675812 
L 321.018559 380.510672 
L 326.187741 373.013383 
L 331.356924 365.183561 
L 336.526106 357.036567 
L 344.279879 344.275849 
L 352.033653 330.934952 
L 359.787426 317.054249 
L 367.541199 302.639743 
L 375.294973 287.67447 
L 383.048746 272.072669 
L 388.217929 261.199209 
L 393.387111 249.800629 
L 398.556293 237.72295 
L 403.725475 224.838105 
L 408.894658 211.103102 
L 414.06384 196.60438 
L 421.817613 173.936426 
L 432.155978 143.700194 
L 437.32516 129.2352 
L 442.494342 115.454492 
L 447.663525 102.464074 
L 452.832707 90.359502 
L 455.417298 84.676896 
L 458.001889 79.266309 
L 460.58648 74.150246 
L 463.171071 69.353154 
L 465.755663 64.9006 
L 468.340254 60.81846 
L 470.924845 57.132246 
L 473.509436 53.866649 
L 476.094027 51.045312 
L 478.678618 48.69076 
L 481.263209 46.824375 
L 483.8478 45.466304 
L 486.432392 44.635167 
L 489.016983 44.3475 
L 491.601574 44.616906 
L 494.186165 45.452967 
L 496.770756 46.860004 
L 499.355347 48.835831 
L 501.939938 51.370633 
L 504.52453 54.446122 
L 507.109121 58.03507 
L 509.693712 62.101276 
L 512.278303 66.600008 
L 514.862894 71.478887 
L 517.447485 76.67919 
L 522.616667 87.787586 
L 538.124214 122.223584 
L 543.293397 132.810525 
L 548.462579 142.749209 
L 556.216352 156.912659 
L 561.385534 166.427577 
L 566.554717 176.530559 
L 569.139308 181.928609 
L 571.723899 187.606796 
L 574.30849 193.585984 
L 576.893081 199.872056 
L 582.062264 213.308577 
L 587.231446 227.648758 
L 597.56981 257.006946 
L 602.738993 270.839671 
L 605.323584 277.32423 
L 607.908175 283.47158 
L 610.492766 289.267242 
L 613.077357 294.715925 
L 615.661948 299.840917 
L 620.83113 309.292811 
L 626.000313 318.077086 
L 633.754086 331.123489 
L 638.923268 340.299616 
L 644.092451 350.018661 
L 662.184589 385.087828 
L 667.353771 394.054949 
L 669.938362 398.217573 
L 672.522953 402.154545 
L 675.107544 405.864785 
L 677.692135 409.351367 
L 680.276727 412.619755 
L 682.861318 415.67624 
L 685.445909 418.526735 
L 688.0305 421.176021 
L 690.615091 423.627487 
L 693.199682 425.883294 
L 695.784273 427.944876 
L 698.368864 429.813652 
L 700.953456 431.491777 
L 703.538047 432.982841 
L 706.122638 434.292384 
L 708.707229 435.428171 
L 711.29182 436.400225 
L 713.876411 437.220603 
L 716.461002 437.902993 
L 721.630185 438.913426 
L 726.799367 439.552294 
L 731.968549 439.931418 
L 739.722323 440.20665 
L 744.891505 440.284079 
L 744.891505 440.284079 
" style="fill: none; stroke: #55a868; stroke-width: 1.5; stroke-linecap: round"/>
   </g>
   <g id="line2d_20">
    <path d="M 207.153036 440.305904 
L 219.193268 440.143341 
L 228.223441 439.774811 
L 234.243557 439.290064 
L 240.263673 438.50386 
L 243.27373 437.963294 
L 246.283788 437.305455 
L 249.293846 436.516655 
L 252.303904 435.584314 
L 255.313962 434.497511 
L 258.32402 433.247441 
L 261.334077 431.827739 
L 264.344135 430.234641 
L 267.354193 428.466938 
L 270.364251 426.525746 
L 273.374309 424.4141 
L 276.384367 422.136425 
L 279.394424 419.697934 
L 282.404482 417.104024 
L 288.424598 411.469278 
L 294.444714 405.261234 
L 300.464829 398.490327 
L 306.484945 391.149935 
L 312.505061 383.222812 
L 318.525176 374.687924 
L 324.545292 365.525439 
L 330.565408 355.720832 
L 336.585523 345.270708 
L 342.605639 334.191598 
L 348.625755 322.529832 
L 354.64587 310.367976 
L 363.676044 291.451635 
L 384.746449 246.66788 
L 393.776622 228.121317 
L 402.806796 210.153024 
L 414.847027 186.784697 
L 432.907374 152.06407 
L 438.92749 140.829712 
L 444.947605 130.156464 
L 447.957663 125.132478 
L 450.967721 120.371579 
L 453.977779 115.911611 
L 456.987837 111.786149 
L 459.997895 108.023591 
L 463.007952 104.64676 
L 466.01801 101.672976 
L 469.028068 99.114524 
L 472.038126 96.979353 
L 475.048184 95.271868 
L 478.058242 93.99367 
L 481.068299 93.144126 
L 484.078357 92.720691 
L 487.088415 92.718986 
L 490.098473 93.13264 
L 493.108531 93.953006 
L 496.118589 95.168822 
L 499.128646 96.765964 
L 502.138704 98.727372 
L 505.148762 101.033241 
L 508.15882 103.661502 
L 511.168878 106.588595 
L 514.178936 109.790465 
L 517.188993 113.243685 
L 520.199051 116.92659 
L 523.209109 120.820267 
L 529.229225 129.18218 
L 535.24934 138.252376 
L 541.269456 148.006793 
L 547.289572 158.448137 
L 553.309687 169.571945 
L 559.329803 181.339342 
L 565.349919 193.665168 
L 574.380092 212.912418 
L 595.450497 258.452295 
L 601.470613 270.897036 
L 607.490728 282.859275 
L 613.510844 294.265214 
L 619.53096 305.073341 
L 625.551075 315.268082 
L 631.571191 324.852059 
L 637.591307 333.839758 
L 643.611422 342.253713 
L 649.631538 350.12246 
L 655.651654 357.478698 
L 661.671769 364.356758 
L 667.691885 370.789835 
L 673.712001 376.808454 
L 679.732116 382.44151 
L 685.752232 387.720076 
L 691.772348 392.682516 
L 697.792463 397.378097 
L 706.822637 404.051723 
L 718.862868 412.551868 
L 727.893042 418.71794 
L 733.913157 422.655842 
L 739.933273 426.347812 
L 745.953389 429.682612 
L 751.973504 432.561268 
L 754.983562 433.808122 
L 757.99362 434.9213 
L 761.003678 435.900942 
L 764.013736 436.750394 
L 767.023794 437.475867 
L 773.043909 438.590941 
L 779.064025 439.332129 
L 785.084141 439.793925 
L 794.114314 440.148496 
L 806.154545 440.306584 
L 806.154545 440.306584 
" style="fill: none; stroke: #dd8452; stroke-width: 1.5; stroke-linecap: round"/>
   </g>
   <g id="line2d_21">
    <path d="M 45.245455 440.322745 
L 63.274789 440.163008 
L 74.092389 439.835742 
L 81.304123 439.408342 
L 88.515857 438.717365 
L 95.727591 437.664116 
L 99.333458 436.969357 
L 102.939324 436.145912 
L 106.545191 435.182482 
L 110.151058 434.069189 
L 113.756925 432.797912 
L 117.362792 431.362542 
L 120.968659 429.759121 
L 124.574526 427.985852 
L 128.180392 426.042982 
L 131.786259 423.932556 
L 135.392126 421.658056 
L 138.997993 419.223943 
L 142.60386 416.635124 
L 146.209727 413.896368 
L 149.815594 411.011705 
L 157.027327 404.813662 
L 164.239061 398.038401 
L 167.844928 394.423144 
L 171.450795 390.645415 
L 175.056662 386.69484 
L 178.662529 382.560038 
L 182.268395 378.229599 
L 185.874262 373.693192 
L 189.480129 368.942687 
L 193.085996 363.973173 
L 196.691863 358.783717 
L 200.29773 353.377781 
L 207.509464 341.951745 
L 214.721197 329.799699 
L 221.932931 317.057947 
L 229.144665 303.861713 
L 239.962265 283.471815 
L 257.9916 249.057745 
L 265.203333 235.802045 
L 268.8092 229.439424 
L 272.415067 223.306955 
L 276.020934 217.438627 
L 279.626801 211.860244 
L 283.232668 206.58715 
L 286.838535 201.622761 
L 290.444401 196.958137 
L 294.050268 192.572694 
L 297.656135 188.43604 
L 301.262002 184.510793 
L 308.473736 177.13152 
L 315.68547 170.135561 
L 326.50307 160.009607 
L 333.714804 153.57264 
L 337.320671 150.531794 
L 340.926538 147.66483 
L 344.532404 145.018378 
L 348.138271 142.640289 
L 351.744138 140.577645 
L 355.350005 138.875127 
L 358.955872 137.573685 
L 362.561739 136.709417 
L 366.167606 136.31251 
L 369.773473 136.406175 
L 373.379339 137.005544 
L 376.985206 138.116609 
L 380.591073 139.735335 
L 384.19694 141.847168 
L 387.802807 144.427121 
L 391.408674 147.440601 
L 395.014541 150.845024 
L 398.620407 154.592164 
L 402.226274 158.631032 
L 405.832141 162.911004 
L 413.043875 172.011292 
L 420.255609 181.596916 
L 427.467342 191.503955 
L 434.679076 201.687148 
L 441.89081 212.165072 
L 449.102544 222.955642 
L 459.920144 239.651315 
L 485.161212 279.041686 
L 492.372946 289.859726 
L 499.58468 300.32672 
L 506.796414 310.386084 
L 514.008147 319.982494 
L 521.219881 329.059198 
L 528.431615 337.56714 
L 535.643348 345.480496 
L 542.855082 352.808248 
L 550.066816 359.59313 
L 557.27855 365.897011 
L 564.490283 371.780395 
L 571.702017 377.287195 
L 578.913751 382.441897 
L 586.125485 387.257942 
L 593.337218 391.749576 
L 600.548952 395.938936 
L 607.760686 399.854983 
L 614.97242 403.527092 
L 622.184153 406.979299 
L 629.395887 410.229914 
L 636.607621 413.296895 
L 647.425221 417.609776 
L 661.848689 423.010674 
L 676.272156 428.170162 
L 683.48389 430.602113 
L 690.695624 432.845807 
L 697.907357 434.822905 
L 705.119091 436.472988 
L 712.330825 437.769828 
L 719.542559 438.725908 
L 726.754292 439.385414 
L 733.966026 439.810345 
L 744.783627 440.148308 
L 759.207094 440.305218 
L 762.812961 440.319967 
L 762.812961 440.319967 
" style="fill: none; stroke: #4c72b0; stroke-width: 1.5; stroke-linecap: round"/>
   </g>
   <g id="line2d_22">
    <path d="M 435.628829 440.3475 
L 435.628829 24.5475 
" style="fill: none; stroke-dasharray: 0.8,1.32; stroke-dashoffset: 0; stroke: #d3d3d3; stroke-width: 0.8"/>
   </g>
   <g id="line2d_23">
    <path d="M 643.955094 440.3475 
L 643.955094 24.5475 
" style="fill: none; stroke-dasharray: 0.8,1.32; stroke-dashoffset: 0; stroke: #d3d3d3; stroke-width: 0.8"/>
   </g>
   <g id="line2d_24">
    <path d="M 7.2 440.3475 
L 844.2 440.3475 
" style="fill: none; stroke: #808080; stroke-width: 0.5; stroke-linecap: round"/>
   </g>
   <g id="AnnotationBbox_1">
    <g id="text_7">
     <text style="font-weight: 700; font-size: 8px; font-family: 'Arial', 'DejaVu Sans', 'Liberation Sans', 'Bitstream Vera Sans', sans-serif; text-anchor: end; fill: #808080" x="435.628829" y="12.92625" transform="rotate(-0 435.628829 12.92625)">International Poverty Line</text>
    </g>
    <g id="text_8">
     <text style="font-size: 8px; font-family: 'Arial', 'DejaVu Sans', 'Liberation Sans', 'Bitstream Vera Sans', sans-serif; text-anchor: end; fill: #808080" x="435.628829" y="22.86375" transform="rotate(-0 435.628829 22.86375)">$3.00 per day</text>
    </g>
   </g>
   <g id="AnnotationBbox_2">
    <g id="text_9">
     <text style="font-weight: 700; font-size: 8px; font-family: 'Arial', 'DejaVu Sans', 'Liberation Sans', 'Bitstream Vera Sans', sans-serif; text-anchor: start; fill: #808080" x="643.955094" y="13.03125" transform="rotate(-0 643.955094 13.03125)">World median</text>
    </g>
    <g id="text_10">
     <text style="font-size: 8px; font-family: 'Arial', 'DejaVu Sans', 'Liberation Sans', 'Bitstream Vera Sans', sans-serif; text-anchor: start; fill: #808080" x="643.955094" y="22.86375" transform="rotate(-0 643.955094 22.86375)">$9.65 per day</text>
    </g>
   </g>
   <g id="legend_1">
    <g id="patch_3">
     <path d="M 683.8 172.766875 
L 751.935938 172.766875 
Q 753.935938 172.766875 753.935938 170.766875 
L 753.935938 114.7075 
Q 753.935938 112.7075 751.935938 112.7075 
L 683.8 112.7075 
Q 681.8 112.7075 681.8 114.7075 
L 681.8 170.766875 
Q 681.8 172.766875 683.8 172.766875 
z
" style="fill: #ffffff; opacity: 0.8; stroke: #cccccc; stroke-linejoin: miter"/>
    </g>
    <g id="text_11">
     <text style="font-size: 10px; font-family: 'Arial', 'DejaVu Sans', 'Liberation Sans', 'Bitstream Vera Sans', sans-serif; text-anchor: start; fill: #262626" x="700.361719" y="123.987187" transform="rotate(-0 700.361719 123.987187)">Country</text>
    </g>
    <g id="line2d_25">
     <path d="M 685.8 134.749687 
L 695.8 134.749687 
L 705.8 134.749687 
" style="fill: none; stroke: #4c72b0; stroke-width: 1.5; stroke-linecap: round"/>
    </g>
    <g id="text_12">
     <text style="font-size: 10px; font-family: 'Arial', 'DejaVu Sans', 'Liberation Sans', 'Bitstream Vera Sans', sans-serif; text-anchor: start; fill: #262626" x="713.8" y="138.249687" transform="rotate(-0 713.8 138.249687)">Burundi</text>
    </g>
    <g id="line2d_26">
     <path d="M 685.8 148.895 
L 695.8 148.895 
L 705.8 148.895 
" style="fill: none; stroke: #dd8452; stroke-width: 1.5; stroke-linecap: round"/>
    </g>
    <g id="text_13">
     <text style="font-size: 10px; font-family: 'Arial', 'DejaVu Sans', 'Liberation Sans', 'Bitstream Vera Sans', sans-serif; text-anchor: start; fill: #262626" x="713.8" y="152.395" transform="rotate(-0 713.8 152.395)">Ethiopia</text>
    </g>
    <g id="line2d_27">
     <path d="M 685.8 163.162187 
L 695.8 163.162187 
L 705.8 163.162187 
" style="fill: none; stroke: #55a868; stroke-width: 1.5; stroke-linecap: round"/>
    </g>
    <g id="text_14">
     <text style="font-size: 10px; font-family: 'Arial', 'DejaVu Sans', 'Liberation Sans', 'Bitstream Vera Sans', sans-serif; text-anchor: start; fill: #262626" x="713.8" y="166.662187" transform="rotate(-0 713.8 166.662187)">Syria</text>
    </g>
   </g>
  </g>
 </g>
</svg>
