<?xml version="1.0" encoding="utf-8" standalone="no"?>
<!DOCTYPE svg PUBLIC "-//W3C//DTD SVG 1.1//EN"
  "http://www.w3.org/Graphics/SVG/1.1/DTD/svg11.dtd">
<svg xmlns:xlink="http://www.w3.org/1999/xlink" width="1080pt" height="288pt" viewBox="0 0 1080 288" xmlns="http://www.w3.org/2000/svg" version="1.1">
 <metadata>
  <rdf:RDF xmlns:dc="http://purl.org/dc/elements/1.1/" xmlns:cc="http://creativecommons.org/ns#" xmlns:rdf="http://www.w3.org/1999/02/22-rdf-syntax-ns#">
   <cc:Work>
    <dc:type rdf:resource="http://purl.org/dc/dcmitype/StillImage"/>
    <dc:date>2025-04-04T17:23:31.201693</dc:date>
    <dc:format>image/svg+xml</dc:format>
    <dc:creator>
     <cc:Agent>
      <dc:title>Matplotlib v3.10.1, https://matplotlib.org/</dc:title>
     </cc:Agent>
    </dc:creator>
   </cc:Work>
  </rdf:RDF>
 </metadata>
 <defs>
  <style type="text/css">*{stroke-linejoin: round; stroke-linecap: butt}</style>
 </defs>
 <g id="figure_1">
  <g id="patch_1">
   <path d="M 0 288 
L 1080 288 
L 1080 0 
L 0 0 
z
" style="fill: #ffffff"/>
  </g>
  <g id="axes_1">
   <g id="patch_2">
    <path d="M 135 256.32 
L 972 256.32 
L 972 34.56 
L 135 34.56 
z
" style="fill: #ffffff"/>
   </g>
   <g id="matplotlib.axis_1">
    <g id="xtick_1">
     <g id="line2d_1">
      <defs>
       <path id="mb12d883ecf" d="M 0 0 
L 0 3.5 
" style="stroke: #262626; stroke-width: 0.8"/>
      </defs>
      <g>
       <use xlink:href="#mb12d883ecf" x="259.122681" y="256.32" style="fill: #262626; stroke: #262626; stroke-width: 0.8"/>
      </g>
     </g>
     <g id="text_1">
      <!-- 1 -->
      <g style="fill: #262626" transform="translate(256.342212 270.477813) scale(0.1 -0.1)">
       <defs>
        <path id="ArialMT-31" d="M 2384 0 
L 1822 0 
L 1822 3584 
Q 1619 3391 1289 3197 
Q 959 3003 697 2906 
L 697 3450 
Q 1169 3672 1522 3987 
Q 1875 4303 2022 4600 
L 2384 4600 
L 2384 0 
z
" transform="scale(0.015625)"/>
       </defs>
       <use xlink:href="#ArialMT-31"/>
      </g>
     </g>
    </g>
    <g id="xtick_2">
     <g id="line2d_2">
      <g>
       <use xlink:href="#mb12d883ecf" x="329.922574" y="256.32" style="fill: #262626; stroke: #262626; stroke-width: 0.8"/>
      </g>
     </g>
     <g id="text_2">
      <!-- 2 -->
      <g style="fill: #262626" transform="translate(327.142106 270.477813) scale(0.1 -0.1)">
       <defs>
        <path id="ArialMT-32" d="M 3222 541 
L 3222 0 
L 194 0 
Q 188 203 259 391 
Q 375 700 629 1000 
Q 884 1300 1366 1694 
Q 2113 2306 2375 2664 
Q 2638 3022 2638 3341 
Q 2638 3675 2398 3904 
Q 2159 4134 1775 4134 
Q 1369 4134 1125 3890 
Q 881 3647 878 3216 
L 300 3275 
Q 359 3922 746 4261 
Q 1134 4600 1788 4600 
Q 2447 4600 2831 4234 
Q 3216 3869 3216 3328 
Q 3216 3053 3103 2787 
Q 2991 2522 2730 2228 
Q 2469 1934 1863 1422 
Q 1356 997 1212 845 
Q 1069 694 975 541 
L 3222 541 
z
" transform="scale(0.015625)"/>
       </defs>
       <use xlink:href="#ArialMT-32"/>
      </g>
     </g>
    </g>
    <g id="xtick_3">
     <g id="line2d_3">
      <g>
       <use xlink:href="#mb12d883ecf" x="423.514943" y="256.32" style="fill: #262626; stroke: #262626; stroke-width: 0.8"/>
      </g>
     </g>
     <g id="text_3">
      <!-- 5 -->
      <g style="fill: #262626" transform="translate(420.734474 270.477813) scale(0.1 -0.1)">
       <defs>
        <path id="ArialMT-35" d="M 266 1200 
L 856 1250 
Q 922 819 1161 601 
Q 1400 384 1738 384 
Q 2144 384 2425 690 
Q 2706 997 2706 1503 
Q 2706 1984 2436 2262 
Q 2166 2541 1728 2541 
Q 1456 2541 1237 2417 
Q 1019 2294 894 2097 
L 366 2166 
L 809 4519 
L 3088 4519 
L 3088 3981 
L 1259 3981 
L 1013 2750 
Q 1425 3038 1878 3038 
Q 2478 3038 2890 2622 
Q 3303 2206 3303 1553 
Q 3303 931 2941 478 
Q 2500 -78 1738 -78 
Q 1113 -78 717 272 
Q 322 622 266 1200 
z
" transform="scale(0.015625)"/>
       </defs>
       <use xlink:href="#ArialMT-35"/>
      </g>
     </g>
    </g>
    <g id="xtick_4">
     <g id="line2d_4">
      <g>
       <use xlink:href="#mb12d883ecf" x="494.314837" y="256.32" style="fill: #262626; stroke: #262626; stroke-width: 0.8"/>
      </g>
     </g>
     <g id="text_4">
      <!-- 10 -->
      <g style="fill: #262626" transform="translate(488.753899 270.477813) scale(0.1 -0.1)">
       <defs>
        <path id="ArialMT-30" d="M 266 2259 
Q 266 3072 433 3567 
Q 600 4063 929 4331 
Q 1259 4600 1759 4600 
Q 2128 4600 2406 4451 
Q 2684 4303 2865 4023 
Q 3047 3744 3150 3342 
Q 3253 2941 3253 2259 
Q 3253 1453 3087 958 
Q 2922 463 2592 192 
Q 2263 -78 1759 -78 
Q 1097 -78 719 397 
Q 266 969 266 2259 
z
M 844 2259 
Q 844 1131 1108 757 
Q 1372 384 1759 384 
Q 2147 384 2411 759 
Q 2675 1134 2675 2259 
Q 2675 3391 2411 3762 
Q 2147 4134 1753 4134 
Q 1366 4134 1134 3806 
Q 844 3388 844 2259 
z
" transform="scale(0.015625)"/>
       </defs>
       <use xlink:href="#ArialMT-31"/>
       <use xlink:href="#ArialMT-30" transform="translate(55.615234 0)"/>
      </g>
     </g>
    </g>
    <g id="xtick_5">
     <g id="line2d_5">
      <g>
       <use xlink:href="#mb12d883ecf" x="565.11473" y="256.32" style="fill: #262626; stroke: #262626; stroke-width: 0.8"/>
      </g>
     </g>
     <g id="text_5">
      <!-- 20 -->
      <g style="fill: #262626" transform="translate(559.553793 270.477813) scale(0.1 -0.1)">
       <use xlink:href="#ArialMT-32"/>
       <use xlink:href="#ArialMT-30" transform="translate(55.615234 0)"/>
      </g>
     </g>
    </g>
    <g id="xtick_6">
     <g id="line2d_6">
      <g>
       <use xlink:href="#mb12d883ecf" x="658.707099" y="256.32" style="fill: #262626; stroke: #262626; stroke-width: 0.8"/>
      </g>
     </g>
     <g id="text_6">
      <!-- 50 -->
      <g style="fill: #262626" transform="translate(653.146161 270.477813) scale(0.1 -0.1)">
       <use xlink:href="#ArialMT-35"/>
       <use xlink:href="#ArialMT-30" transform="translate(55.615234 0)"/>
      </g>
     </g>
    </g>
    <g id="xtick_7">
     <g id="line2d_7">
      <g>
       <use xlink:href="#mb12d883ecf" x="729.506992" y="256.32" style="fill: #262626; stroke: #262626; stroke-width: 0.8"/>
      </g>
     </g>
     <g id="text_7">
      <!-- 100 -->
      <g style="fill: #262626" transform="translate(721.165586 270.477813) scale(0.1 -0.1)">
       <use xlink:href="#ArialMT-31"/>
       <use xlink:href="#ArialMT-30" transform="translate(55.615234 0)"/>
       <use xlink:href="#ArialMT-30" transform="translate(111.230469 0)"/>
      </g>
     </g>
    </g>
    <g id="xtick_8">
     <g id="line2d_8">
      <g>
       <use xlink:href="#mb12d883ecf" x="800.306886" y="256.32" style="fill: #262626; stroke: #262626; stroke-width: 0.8"/>
      </g>
     </g>
     <g id="text_8">
      <!-- 200 -->
      <g style="fill: #262626" transform="translate(791.96548 270.477813) scale(0.1 -0.1)">
       <use xlink:href="#ArialMT-32"/>
       <use xlink:href="#ArialMT-30" transform="translate(55.615234 0)"/>
       <use xlink:href="#ArialMT-30" transform="translate(111.230469 0)"/>
      </g>
     </g>
    </g>
    <g id="xtick_9">
     <g id="line2d_9">
      <g>
       <use xlink:href="#mb12d883ecf" x="893.899255" y="256.32" style="fill: #262626; stroke: #262626; stroke-width: 0.8"/>
      </g>
     </g>
     <g id="text_9">
      <!-- 500 -->
      <g style="fill: #262626" transform="translate(885.557848 270.477813) scale(0.1 -0.1)">
       <use xlink:href="#ArialMT-35"/>
       <use xlink:href="#ArialMT-30" transform="translate(55.615234 0)"/>
       <use xlink:href="#ArialMT-30" transform="translate(111.230469 0)"/>
      </g>
     </g>
    </g>
    <g id="xtick_10">
     <g id="line2d_10">
      <g>
       <use xlink:href="#mb12d883ecf" x="964.699148" y="256.32" style="fill: #262626; stroke: #262626; stroke-width: 0.8"/>
      </g>
     </g>
     <g id="text_10">
      <!-- 1000 -->
      <g style="fill: #262626" transform="translate(953.577273 270.477813) scale(0.1 -0.1)">
       <use xlink:href="#ArialMT-31"/>
       <use xlink:href="#ArialMT-30" transform="translate(55.615234 0)"/>
       <use xlink:href="#ArialMT-30" transform="translate(111.230469 0)"/>
       <use xlink:href="#ArialMT-30" transform="translate(166.845703 0)"/>
      </g>
     </g>
    </g>
    <g id="xtick_11">
     <g id="line2d_11">
      <defs>
       <path id="m43a9c2b0e1" d="M 0 0 
L 0 2 
" style="stroke: #262626; stroke-width: 0.6"/>
      </defs>
      <g>
       <use xlink:href="#m43a9c2b0e1" x="136.145701" y="256.32" style="fill: #262626; stroke: #262626; stroke-width: 0.6"/>
      </g>
     </g>
    </g>
    <g id="xtick_12">
     <g id="line2d_12">
      <g>
       <use xlink:href="#m43a9c2b0e1" x="165.530312" y="256.32" style="fill: #262626; stroke: #262626; stroke-width: 0.6"/>
      </g>
     </g>
    </g>
    <g id="xtick_13">
     <g id="line2d_13">
      <g>
       <use xlink:href="#m43a9c2b0e1" x="188.322787" y="256.32" style="fill: #262626; stroke: #262626; stroke-width: 0.6"/>
      </g>
     </g>
    </g>
    <g id="xtick_14">
     <g id="line2d_14">
      <g>
       <use xlink:href="#m43a9c2b0e1" x="206.945595" y="256.32" style="fill: #262626; stroke: #262626; stroke-width: 0.6"/>
      </g>
     </g>
    </g>
    <g id="xtick_15">
     <g id="line2d_15">
      <g>
       <use xlink:href="#m43a9c2b0e1" x="222.690955" y="256.32" style="fill: #262626; stroke: #262626; stroke-width: 0.6"/>
      </g>
     </g>
    </g>
    <g id="xtick_16">
     <g id="line2d_16">
      <g>
       <use xlink:href="#m43a9c2b0e1" x="236.330206" y="256.32" style="fill: #262626; stroke: #262626; stroke-width: 0.6"/>
      </g>
     </g>
    </g>
    <g id="xtick_17">
     <g id="line2d_17">
      <g>
       <use xlink:href="#m43a9c2b0e1" x="248.360878" y="256.32" style="fill: #262626; stroke: #262626; stroke-width: 0.6"/>
      </g>
     </g>
    </g>
    <g id="xtick_18">
     <g id="line2d_18">
      <g>
       <use xlink:href="#m43a9c2b0e1" x="371.337857" y="256.32" style="fill: #262626; stroke: #262626; stroke-width: 0.6"/>
      </g>
     </g>
    </g>
    <g id="xtick_19">
     <g id="line2d_19">
      <g>
       <use xlink:href="#m43a9c2b0e1" x="400.722468" y="256.32" style="fill: #262626; stroke: #262626; stroke-width: 0.6"/>
      </g>
     </g>
    </g>
    <g id="xtick_20">
     <g id="line2d_20">
      <g>
       <use xlink:href="#m43a9c2b0e1" x="442.137751" y="256.32" style="fill: #262626; stroke: #262626; stroke-width: 0.6"/>
      </g>
     </g>
    </g>
    <g id="xtick_21">
     <g id="line2d_21">
      <g>
       <use xlink:href="#m43a9c2b0e1" x="457.883111" y="256.32" style="fill: #262626; stroke: #262626; stroke-width: 0.6"/>
      </g>
     </g>
    </g>
    <g id="xtick_22">
     <g id="line2d_22">
      <g>
       <use xlink:href="#m43a9c2b0e1" x="471.522362" y="256.32" style="fill: #262626; stroke: #262626; stroke-width: 0.6"/>
      </g>
     </g>
    </g>
    <g id="xtick_23">
     <g id="line2d_23">
      <g>
       <use xlink:href="#m43a9c2b0e1" x="483.553034" y="256.32" style="fill: #262626; stroke: #262626; stroke-width: 0.6"/>
      </g>
     </g>
    </g>
    <g id="xtick_24">
     <g id="line2d_24">
      <g>
       <use xlink:href="#m43a9c2b0e1" x="606.530013" y="256.32" style="fill: #262626; stroke: #262626; stroke-width: 0.6"/>
      </g>
     </g>
    </g>
    <g id="xtick_25">
     <g id="line2d_25">
      <g>
       <use xlink:href="#m43a9c2b0e1" x="635.914624" y="256.32" style="fill: #262626; stroke: #262626; stroke-width: 0.6"/>
      </g>
     </g>
    </g>
    <g id="xtick_26">
     <g id="line2d_26">
      <g>
       <use xlink:href="#m43a9c2b0e1" x="677.329907" y="256.32" style="fill: #262626; stroke: #262626; stroke-width: 0.6"/>
      </g>
     </g>
    </g>
    <g id="xtick_27">
     <g id="line2d_27">
      <g>
       <use xlink:href="#m43a9c2b0e1" x="693.075267" y="256.32" style="fill: #262626; stroke: #262626; stroke-width: 0.6"/>
      </g>
     </g>
    </g>
    <g id="xtick_28">
     <g id="line2d_28">
      <g>
       <use xlink:href="#m43a9c2b0e1" x="706.714518" y="256.32" style="fill: #262626; stroke: #262626; stroke-width: 0.6"/>
      </g>
     </g>
    </g>
    <g id="xtick_29">
     <g id="line2d_29">
      <g>
       <use xlink:href="#m43a9c2b0e1" x="718.74519" y="256.32" style="fill: #262626; stroke: #262626; stroke-width: 0.6"/>
      </g>
     </g>
    </g>
    <g id="xtick_30">
     <g id="line2d_30">
      <g>
       <use xlink:href="#m43a9c2b0e1" x="841.722169" y="256.32" style="fill: #262626; stroke: #262626; stroke-width: 0.6"/>
      </g>
     </g>
    </g>
    <g id="xtick_31">
     <g id="line2d_31">
      <g>
       <use xlink:href="#m43a9c2b0e1" x="871.10678" y="256.32" style="fill: #262626; stroke: #262626; stroke-width: 0.6"/>
      </g>
     </g>
    </g>
    <g id="xtick_32">
     <g id="line2d_32">
      <g>
       <use xlink:href="#m43a9c2b0e1" x="912.522063" y="256.32" style="fill: #262626; stroke: #262626; stroke-width: 0.6"/>
      </g>
     </g>
    </g>
    <g id="xtick_33">
     <g id="line2d_33">
      <g>
       <use xlink:href="#m43a9c2b0e1" x="928.267422" y="256.32" style="fill: #262626; stroke: #262626; stroke-width: 0.6"/>
      </g>
     </g>
    </g>
    <g id="xtick_34">
     <g id="line2d_34">
      <g>
       <use xlink:href="#m43a9c2b0e1" x="941.906673" y="256.32" style="fill: #262626; stroke: #262626; stroke-width: 0.6"/>
      </g>
     </g>
    </g>
    <g id="xtick_35">
     <g id="line2d_35">
      <g>
       <use xlink:href="#m43a9c2b0e1" x="953.937345" y="256.32" style="fill: #262626; stroke: #262626; stroke-width: 0.6"/>
      </g>
     </g>
    </g>
    <g id="text_11">
     <!-- Income or consumption (day) -->
     <g style="fill: #262626" transform="translate(488.753906 283.745) scale(0.1 -0.1)">
      <defs>
       <path id="ArialMT-49" d="M 597 0 
L 597 4581 
L 1203 4581 
L 1203 0 
L 597 0 
z
" transform="scale(0.015625)"/>
       <path id="ArialMT-6e" d="M 422 0 
L 422 3319 
L 928 3319 
L 928 2847 
Q 1294 3394 1984 3394 
Q 2284 3394 2536 3286 
Q 2788 3178 2913 3003 
Q 3038 2828 3088 2588 
Q 3119 2431 3119 2041 
L 3119 0 
L 2556 0 
L 2556 2019 
Q 2556 2363 2490 2533 
Q 2425 2703 2258 2804 
Q 2091 2906 1866 2906 
Q 1506 2906 1245 2678 
Q 984 2450 984 1813 
L 984 0 
L 422 0 
z
" transform="scale(0.015625)"/>
       <path id="ArialMT-63" d="M 2588 1216 
L 3141 1144 
Q 3050 572 2676 248 
Q 2303 -75 1759 -75 
Q 1078 -75 664 370 
Q 250 816 250 1647 
Q 250 2184 428 2587 
Q 606 2991 970 3192 
Q 1334 3394 1763 3394 
Q 2303 3394 2647 3120 
Q 2991 2847 3088 2344 
L 2541 2259 
Q 2463 2594 2264 2762 
Q 2066 2931 1784 2931 
Q 1359 2931 1093 2626 
Q 828 2322 828 1663 
Q 828 994 1084 691 
Q 1341 388 1753 388 
Q 2084 388 2306 591 
Q 2528 794 2588 1216 
z
" transform="scale(0.015625)"/>
       <path id="ArialMT-6f" d="M 213 1659 
Q 213 2581 725 3025 
Q 1153 3394 1769 3394 
Q 2453 3394 2887 2945 
Q 3322 2497 3322 1706 
Q 3322 1066 3130 698 
Q 2938 331 2570 128 
Q 2203 -75 1769 -75 
Q 1072 -75 642 372 
Q 213 819 213 1659 
z
M 791 1659 
Q 791 1022 1069 705 
Q 1347 388 1769 388 
Q 2188 388 2466 706 
Q 2744 1025 2744 1678 
Q 2744 2294 2464 2611 
Q 2184 2928 1769 2928 
Q 1347 2928 1069 2612 
Q 791 2297 791 1659 
z
" transform="scale(0.015625)"/>
       <path id="ArialMT-6d" d="M 422 0 
L 422 3319 
L 925 3319 
L 925 2853 
Q 1081 3097 1340 3245 
Q 1600 3394 1931 3394 
Q 2300 3394 2536 3241 
Q 2772 3088 2869 2813 
Q 3263 3394 3894 3394 
Q 4388 3394 4653 3120 
Q 4919 2847 4919 2278 
L 4919 0 
L 4359 0 
L 4359 2091 
Q 4359 2428 4304 2576 
Q 4250 2725 4106 2815 
Q 3963 2906 3769 2906 
Q 3419 2906 3187 2673 
Q 2956 2441 2956 1928 
L 2956 0 
L 2394 0 
L 2394 2156 
Q 2394 2531 2256 2718 
Q 2119 2906 1806 2906 
Q 1569 2906 1367 2781 
Q 1166 2656 1075 2415 
Q 984 2175 984 1722 
L 984 0 
L 422 0 
z
" transform="scale(0.015625)"/>
       <path id="ArialMT-65" d="M 2694 1069 
L 3275 997 
Q 3138 488 2766 206 
Q 2394 -75 1816 -75 
Q 1088 -75 661 373 
Q 234 822 234 1631 
Q 234 2469 665 2931 
Q 1097 3394 1784 3394 
Q 2450 3394 2872 2941 
Q 3294 2488 3294 1666 
Q 3294 1616 3291 1516 
L 816 1516 
Q 847 969 1125 678 
Q 1403 388 1819 388 
Q 2128 388 2347 550 
Q 2566 713 2694 1069 
z
M 847 1978 
L 2700 1978 
Q 2663 2397 2488 2606 
Q 2219 2931 1791 2931 
Q 1403 2931 1139 2672 
Q 875 2413 847 1978 
z
" transform="scale(0.015625)"/>
       <path id="ArialMT-20" transform="scale(0.015625)"/>
       <path id="ArialMT-72" d="M 416 0 
L 416 3319 
L 922 3319 
L 922 2816 
Q 1116 3169 1280 3281 
Q 1444 3394 1641 3394 
Q 1925 3394 2219 3213 
L 2025 2691 
Q 1819 2813 1613 2813 
Q 1428 2813 1281 2702 
Q 1134 2591 1072 2394 
Q 978 2094 978 1738 
L 978 0 
L 416 0 
z
" transform="scale(0.015625)"/>
       <path id="ArialMT-73" d="M 197 991 
L 753 1078 
Q 800 744 1014 566 
Q 1228 388 1613 388 
Q 2000 388 2187 545 
Q 2375 703 2375 916 
Q 2375 1106 2209 1216 
Q 2094 1291 1634 1406 
Q 1016 1563 777 1677 
Q 538 1791 414 1992 
Q 291 2194 291 2438 
Q 291 2659 392 2848 
Q 494 3038 669 3163 
Q 800 3259 1026 3326 
Q 1253 3394 1513 3394 
Q 1903 3394 2198 3281 
Q 2494 3169 2634 2976 
Q 2775 2784 2828 2463 
L 2278 2388 
Q 2241 2644 2061 2787 
Q 1881 2931 1553 2931 
Q 1166 2931 1000 2803 
Q 834 2675 834 2503 
Q 834 2394 903 2306 
Q 972 2216 1119 2156 
Q 1203 2125 1616 2013 
Q 2213 1853 2448 1751 
Q 2684 1650 2818 1456 
Q 2953 1263 2953 975 
Q 2953 694 2789 445 
Q 2625 197 2315 61 
Q 2006 -75 1616 -75 
Q 969 -75 630 194 
Q 291 463 197 991 
z
" transform="scale(0.015625)"/>
       <path id="ArialMT-75" d="M 2597 0 
L 2597 488 
Q 2209 -75 1544 -75 
Q 1250 -75 995 37 
Q 741 150 617 320 
Q 494 491 444 738 
Q 409 903 409 1263 
L 409 3319 
L 972 3319 
L 972 1478 
Q 972 1038 1006 884 
Q 1059 663 1231 536 
Q 1403 409 1656 409 
Q 1909 409 2131 539 
Q 2353 669 2445 892 
Q 2538 1116 2538 1541 
L 2538 3319 
L 3100 3319 
L 3100 0 
L 2597 0 
z
" transform="scale(0.015625)"/>
       <path id="ArialMT-70" d="M 422 -1272 
L 422 3319 
L 934 3319 
L 934 2888 
Q 1116 3141 1344 3267 
Q 1572 3394 1897 3394 
Q 2322 3394 2647 3175 
Q 2972 2956 3137 2557 
Q 3303 2159 3303 1684 
Q 3303 1175 3120 767 
Q 2938 359 2589 142 
Q 2241 -75 1856 -75 
Q 1575 -75 1351 44 
Q 1128 163 984 344 
L 984 -1272 
L 422 -1272 
z
M 931 1641 
Q 931 1000 1190 694 
Q 1450 388 1819 388 
Q 2194 388 2461 705 
Q 2728 1022 2728 1688 
Q 2728 2322 2467 2637 
Q 2206 2953 1844 2953 
Q 1484 2953 1207 2617 
Q 931 2281 931 1641 
z
" transform="scale(0.015625)"/>
       <path id="ArialMT-74" d="M 1650 503 
L 1731 6 
Q 1494 -44 1306 -44 
Q 1000 -44 831 53 
Q 663 150 594 308 
Q 525 466 525 972 
L 525 2881 
L 113 2881 
L 113 3319 
L 525 3319 
L 525 4141 
L 1084 4478 
L 1084 3319 
L 1650 3319 
L 1650 2881 
L 1084 2881 
L 1084 941 
Q 1084 700 1114 631 
Q 1144 563 1211 522 
Q 1278 481 1403 481 
Q 1497 481 1650 503 
z
" transform="scale(0.015625)"/>
       <path id="ArialMT-69" d="M 425 3934 
L 425 4581 
L 988 4581 
L 988 3934 
L 425 3934 
z
M 425 0 
L 425 3319 
L 988 3319 
L 988 0 
L 425 0 
z
" transform="scale(0.015625)"/>
       <path id="ArialMT-28" d="M 1497 -1347 
Q 1031 -759 709 28 
Q 388 816 388 1659 
Q 388 2403 628 3084 
Q 909 3875 1497 4659 
L 1900 4659 
Q 1522 4009 1400 3731 
Q 1209 3300 1100 2831 
Q 966 2247 966 1656 
Q 966 153 1900 -1347 
L 1497 -1347 
z
" transform="scale(0.015625)"/>
       <path id="ArialMT-64" d="M 2575 0 
L 2575 419 
Q 2259 -75 1647 -75 
Q 1250 -75 917 144 
Q 584 363 401 755 
Q 219 1147 219 1656 
Q 219 2153 384 2558 
Q 550 2963 881 3178 
Q 1213 3394 1622 3394 
Q 1922 3394 2156 3267 
Q 2391 3141 2538 2938 
L 2538 4581 
L 3097 4581 
L 3097 0 
L 2575 0 
z
M 797 1656 
Q 797 1019 1065 703 
Q 1334 388 1700 388 
Q 2069 388 2326 689 
Q 2584 991 2584 1609 
Q 2584 2291 2321 2609 
Q 2059 2928 1675 2928 
Q 1300 2928 1048 2622 
Q 797 2316 797 1656 
z
" transform="scale(0.015625)"/>
       <path id="ArialMT-61" d="M 2588 409 
Q 2275 144 1986 34 
Q 1697 -75 1366 -75 
Q 819 -75 525 192 
Q 231 459 231 875 
Q 231 1119 342 1320 
Q 453 1522 633 1644 
Q 813 1766 1038 1828 
Q 1203 1872 1538 1913 
Q 2219 1994 2541 2106 
Q 2544 2222 2544 2253 
Q 2544 2597 2384 2738 
Q 2169 2928 1744 2928 
Q 1347 2928 1158 2789 
Q 969 2650 878 2297 
L 328 2372 
Q 403 2725 575 2942 
Q 747 3159 1072 3276 
Q 1397 3394 1825 3394 
Q 2250 3394 2515 3294 
Q 2781 3194 2906 3042 
Q 3031 2891 3081 2659 
Q 3109 2516 3109 2141 
L 3109 1391 
Q 3109 606 3145 398 
Q 3181 191 3288 0 
L 2700 0 
Q 2613 175 2588 409 
z
M 2541 1666 
Q 2234 1541 1622 1453 
Q 1275 1403 1131 1340 
Q 988 1278 909 1158 
Q 831 1038 831 891 
Q 831 666 1001 516 
Q 1172 366 1500 366 
Q 1825 366 2078 508 
Q 2331 650 2450 897 
Q 2541 1088 2541 1459 
L 2541 1666 
z
" transform="scale(0.015625)"/>
       <path id="ArialMT-79" d="M 397 -1278 
L 334 -750 
Q 519 -800 656 -800 
Q 844 -800 956 -737 
Q 1069 -675 1141 -563 
Q 1194 -478 1313 -144 
Q 1328 -97 1363 -6 
L 103 3319 
L 709 3319 
L 1400 1397 
Q 1534 1031 1641 628 
Q 1738 1016 1872 1384 
L 2581 3319 
L 3144 3319 
L 1881 -56 
Q 1678 -603 1566 -809 
Q 1416 -1088 1222 -1217 
Q 1028 -1347 759 -1347 
Q 597 -1347 397 -1278 
z
" transform="scale(0.015625)"/>
       <path id="ArialMT-29" d="M 791 -1347 
L 388 -1347 
Q 1322 153 1322 1656 
Q 1322 2244 1188 2822 
Q 1081 3291 891 3722 
Q 769 4003 388 4659 
L 791 4659 
Q 1378 3875 1659 3084 
Q 1900 2403 1900 1659 
Q 1900 816 1576 28 
Q 1253 -759 791 -1347 
z
" transform="scale(0.015625)"/>
      </defs>
      <use xlink:href="#ArialMT-49"/>
      <use xlink:href="#ArialMT-6e" transform="translate(27.783203 0)"/>
      <use xlink:href="#ArialMT-63" transform="translate(83.398438 0)"/>
      <use xlink:href="#ArialMT-6f" transform="translate(133.398438 0)"/>
      <use xlink:href="#ArialMT-6d" transform="translate(189.013672 0)"/>
      <use xlink:href="#ArialMT-65" transform="translate(272.314453 0)"/>
      <use xlink:href="#ArialMT-20" transform="translate(327.929688 0)"/>
      <use xlink:href="#ArialMT-6f" transform="translate(355.712891 0)"/>
      <use xlink:href="#ArialMT-72" transform="translate(411.328125 0)"/>
      <use xlink:href="#ArialMT-20" transform="translate(444.628906 0)"/>
      <use xlink:href="#ArialMT-63" transform="translate(472.412109 0)"/>
      <use xlink:href="#ArialMT-6f" transform="translate(522.412109 0)"/>
      <use xlink:href="#ArialMT-6e" transform="translate(578.027344 0)"/>
      <use xlink:href="#ArialMT-73" transform="translate(633.642578 0)"/>
      <use xlink:href="#ArialMT-75" transform="translate(683.642578 0)"/>
      <use xlink:href="#ArialMT-6d" transform="translate(739.257812 0)"/>
      <use xlink:href="#ArialMT-70" transform="translate(822.558594 0)"/>
      <use xlink:href="#ArialMT-74" transform="translate(878.173828 0)"/>
      <use xlink:href="#ArialMT-69" transform="translate(905.957031 0)"/>
      <use xlink:href="#ArialMT-6f" transform="translate(928.173828 0)"/>
      <use xlink:href="#ArialMT-6e" transform="translate(983.789062 0)"/>
      <use xlink:href="#ArialMT-20" transform="translate(1039.404297 0)"/>
      <use xlink:href="#ArialMT-28" transform="translate(1067.1875 0)"/>
      <use xlink:href="#ArialMT-64" transform="translate(1100.488281 0)"/>
      <use xlink:href="#ArialMT-61" transform="translate(1156.103516 0)"/>
      <use xlink:href="#ArialMT-79" transform="translate(1211.71875 0)"/>
      <use xlink:href="#ArialMT-29" transform="translate(1261.71875 0)"/>
     </g>
    </g>
   </g>
   <g id="matplotlib.axis_2"/>
   <g id="FillBetweenPolyCollection_1">
    <defs>
     <path id="m6bee3e71ac" d="M 173.045455 -31.73841 
L 173.045455 -31.68 
L 174.956646 -31.68 
L 176.867838 -31.68 
L 178.77903 -31.68 
L 180.690221 -31.68 
L 182.601413 -31.68 
L 184.512605 -31.68 
L 186.423797 -31.68 
L 188.334988 -31.68 
L 190.24618 -31.68 
L 192.157372 -31.68 
L 194.068564 -31.68 
L 195.979755 -31.68 
L 197.890947 -31.68 
L 199.802139 -31.68 
L 201.713331 -31.68 
L 203.624522 -31.68 
L 205.535714 -31.68 
L 207.446906 -31.68 
L 209.358098 -31.68 
L 211.269289 -31.68 
L 213.180481 -31.68 
L 215.091673 -31.68 
L 217.002864 -31.68 
L 218.914056 -31.68 
L 220.825248 -31.68 
L 222.73644 -31.68 
L 224.647631 -31.68 
L 226.558823 -31.68 
L 228.470015 -31.68 
L 230.381207 -31.68 
L 232.292398 -31.68 
L 234.20359 -31.68 
L 236.114782 -31.68 
L 238.025974 -31.68 
L 239.937165 -31.68 
L 241.848357 -31.68 
L 243.759549 -31.68 
L 245.670741 -31.68 
L 247.581932 -31.68 
L 249.493124 -31.68 
L 251.404316 -31.68 
L 253.315507 -31.68 
L 255.226699 -31.68 
L 257.137891 -31.68 
L 259.049083 -31.68 
L 260.960274 -31.68 
L 262.871466 -31.68 
L 264.782658 -31.68 
L 266.69385 -31.68 
L 268.605041 -31.68 
L 270.516233 -31.68 
L 272.427425 -31.68 
L 274.338617 -31.68 
L 276.249808 -31.68 
L 278.161 -31.68 
L 280.072192 -31.68 
L 281.983384 -31.68 
L 283.894575 -31.68 
L 285.805767 -31.68 
L 287.716959 -31.68 
L 289.62815 -31.68 
L 291.539342 -31.68 
L 293.450534 -31.68 
L 295.361726 -31.68 
L 297.272917 -31.68 
L 299.184109 -31.68 
L 301.095301 -31.68 
L 303.006493 -31.68 
L 304.917684 -31.68 
L 306.828876 -31.68 
L 308.740068 -31.68 
L 310.65126 -31.68 
L 312.562451 -31.68 
L 314.473643 -31.68 
L 316.384835 -31.68 
L 318.296027 -31.68 
L 320.207218 -31.68 
L 322.11841 -31.68 
L 324.029602 -31.68 
L 325.940793 -31.68 
L 327.851985 -31.68 
L 329.763177 -31.68 
L 331.674369 -31.68 
L 333.58556 -31.68 
L 335.496752 -31.68 
L 337.407944 -31.68 
L 339.319136 -31.68 
L 341.230327 -31.68 
L 343.141519 -31.68 
L 345.052711 -31.68 
L 346.963903 -31.68 
L 348.875094 -31.68 
L 350.786286 -31.68 
L 352.697478 -31.68 
L 354.60867 -31.68 
L 356.519861 -31.68 
L 358.431053 -31.68 
L 360.342245 -31.68 
L 362.253436 -31.68 
L 364.164628 -31.68 
L 366.07582 -31.68 
L 367.987012 -31.68 
L 369.898203 -31.68 
L 371.809395 -31.68 
L 373.720587 -31.68 
L 375.631779 -31.68 
L 377.54297 -31.68 
L 379.454162 -31.68 
L 381.365354 -31.68 
L 383.276546 -31.68 
L 385.187737 -31.68 
L 387.098929 -31.68 
L 389.010121 -31.68 
L 390.921313 -31.68 
L 392.832504 -31.68 
L 394.743696 -31.68 
L 396.654888 -31.68 
L 398.566079 -31.68 
L 400.477271 -31.68 
L 402.388463 -31.68 
L 404.299655 -31.68 
L 406.210846 -31.68 
L 408.122038 -31.68 
L 410.03323 -31.68 
L 411.944422 -31.68 
L 413.855613 -31.68 
L 415.766805 -31.68 
L 417.677997 -31.68 
L 419.589189 -31.68 
L 421.50038 -31.68 
L 423.411572 -31.68 
L 425.322764 -31.68 
L 427.233956 -31.68 
L 429.145147 -31.68 
L 431.056339 -31.68 
L 432.967531 -31.68 
L 434.878722 -31.68 
L 436.789914 -31.68 
L 438.701106 -31.68 
L 440.612298 -31.68 
L 442.523489 -31.68 
L 444.434681 -31.68 
L 446.345873 -31.68 
L 448.257065 -31.68 
L 450.168256 -31.68 
L 452.079448 -31.68 
L 453.99064 -31.68 
L 455.901832 -31.68 
L 457.813023 -31.68 
L 459.724215 -31.68 
L 461.635407 -31.68 
L 463.546599 -31.68 
L 465.45779 -31.68 
L 467.368982 -31.68 
L 469.280174 -31.68 
L 471.191365 -31.68 
L 473.102557 -31.68 
L 475.013749 -31.68 
L 476.924941 -31.68 
L 478.836132 -31.68 
L 480.747324 -31.68 
L 482.658516 -31.68 
L 484.569708 -31.68 
L 486.480899 -31.68 
L 488.392091 -31.68 
L 490.303283 -31.68 
L 492.214475 -31.68 
L 494.125666 -31.68 
L 496.036858 -31.68 
L 497.94805 -31.68 
L 499.859242 -31.68 
L 501.770433 -31.68 
L 503.681625 -31.68 
L 505.592817 -31.68 
L 507.504008 -31.68 
L 509.4152 -31.68 
L 511.326392 -31.68 
L 513.237584 -31.68 
L 515.148775 -31.68 
L 517.059967 -31.68 
L 518.971159 -31.68 
L 520.882351 -31.68 
L 522.793542 -31.68 
L 524.704734 -31.68 
L 526.615926 -31.68 
L 528.527118 -31.68 
L 530.438309 -31.68 
L 532.349501 -31.68 
L 534.260693 -31.68 
L 536.171885 -31.68 
L 538.083076 -31.68 
L 539.994268 -31.68 
L 541.90546 -31.68 
L 543.816651 -31.68 
L 545.727843 -31.68 
L 547.639035 -31.68 
L 549.550227 -31.68 
L 551.461418 -31.68 
L 553.37261 -31.68 
L 553.37261 -31.742966 
L 553.37261 -31.742966 
L 551.461418 -31.764198 
L 549.550227 -31.79161 
L 547.639035 -31.826667 
L 545.727843 -31.871077 
L 543.816651 -31.926808 
L 541.90546 -31.996089 
L 539.994268 -32.08141 
L 538.083076 -32.185508 
L 536.171885 -32.31134 
L 534.260693 -32.462046 
L 532.349501 -32.640896 
L 530.438309 -32.851229 
L 528.527118 -33.096375 
L 526.615926 -33.379577 
L 524.704734 -33.703904 
L 522.793542 -34.072164 
L 520.882351 -34.486829 
L 518.971159 -34.949966 
L 517.059967 -35.463194 
L 515.148775 -36.027652 
L 513.237584 -36.644008 
L 511.326392 -37.312491 
L 509.4152 -38.032955 
L 507.504008 -38.804977 
L 505.592817 -39.627976 
L 503.681625 -40.501355 
L 501.770433 -41.424662 
L 499.859242 -42.397737 
L 497.94805 -43.420872 
L 496.036858 -44.494936 
L 494.125666 -45.621475 
L 492.214475 -46.802777 
L 490.303283 -48.041887 
L 488.392091 -49.34257 
L 486.480899 -50.709234 
L 484.569708 -52.146792 
L 482.658516 -53.660496 
L 480.747324 -55.255733 
L 478.836132 -56.93781 
L 476.924941 -58.711729 
L 475.013749 -60.581985 
L 473.102557 -62.55238 
L 471.191365 -64.625891 
L 469.280174 -66.804574 
L 467.368982 -69.089537 
L 465.45779 -71.480961 
L 463.546599 -73.978182 
L 461.635407 -76.579812 
L 459.724215 -79.283896 
L 457.813023 -82.088089 
L 455.901832 -84.989821 
L 453.99064 -87.986461 
L 452.079448 -91.075429 
L 450.168256 -94.254279 
L 448.257065 -97.520711 
L 446.345873 -100.872537 
L 444.434681 -104.307591 
L 442.523489 -107.82359 
L 440.612298 -111.417965 
L 438.701106 -115.087685 
L 436.789914 -118.829071 
L 434.878722 -122.637652 
L 432.967531 -126.508049 
L 431.056339 -130.433916 
L 429.145147 -134.407949 
L 427.233956 -138.421951 
L 425.322764 -142.466959 
L 423.411572 -146.53342 
L 421.50038 -150.611398 
L 419.589189 -154.690792 
L 417.677997 -158.76155 
L 415.766805 -162.813846 
L 413.855613 -166.83822 
L 411.944422 -170.825644 
L 410.03323 -174.767527 
L 408.122038 -178.655645 
L 406.210846 -182.481999 
L 404.299655 -186.238623 
L 402.388463 -189.917346 
L 400.477271 -193.509537 
L 398.566079 -197.005853 
L 396.654888 -200.396009 
L 394.743696 -203.668605 
L 392.832504 -206.811007 
L 390.921313 -209.809325 
L 389.010121 -212.648461 
L 387.098929 -215.312268 
L 385.187737 -217.783785 
L 383.276546 -220.045546 
L 381.365354 -222.079969 
L 379.454162 -223.869766 
L 377.54297 -225.398396 
L 375.631779 -226.650503 
L 373.720587 -227.612341 
L 371.809395 -228.272154 
L 369.898203 -228.620501 
L 367.987012 -228.650503 
L 366.07582 -228.358022 
L 364.164628 -227.741745 
L 362.253436 -226.803199 
L 360.342245 -225.546679 
L 358.431053 -223.979119 
L 356.519861 -222.109897 
L 354.60867 -219.950608 
L 352.697478 -217.514798 
L 350.786286 -214.817687 
L 348.875094 -211.875887 
L 346.963903 -208.707124 
L 345.052711 -205.329976 
L 343.141519 -201.763629 
L 341.230327 -198.027651 
L 339.319136 -194.141795 
L 337.407944 -190.125819 
L 335.496752 -185.999324 
L 333.58556 -181.78161 
L 331.674369 -177.491544 
L 329.763177 -173.147431 
L 327.851985 -168.766905 
L 325.940793 -164.366809 
L 324.029602 -159.963091 
L 322.11841 -155.570702 
L 320.207218 -151.203505 
L 318.296027 -146.874189 
L 316.384835 -142.594204 
L 314.473643 -138.373709 
L 312.562451 -134.221543 
L 310.65126 -130.145215 
L 308.740068 -126.150923 
L 306.828876 -122.243596 
L 304.917684 -118.42696 
L 303.006493 -114.703627 
L 301.095301 -111.075208 
L 299.184109 -107.542435 
L 297.272917 -104.105306 
L 295.361726 -100.763231 
L 293.450534 -97.515186 
L 291.539342 -94.359868 
L 289.62815 -91.295837 
L 287.716959 -88.321661 
L 285.805767 -85.436031 
L 283.894575 -82.637879 
L 281.983384 -79.926451 
L 280.072192 -77.30138 
L 278.161 -74.762715 
L 276.249808 -72.310932 
L 274.338617 -69.946912 
L 272.427425 -67.67189 
L 270.516233 -65.48738 
L 268.605041 -63.395067 
L 266.69385 -61.396688 
L 264.782658 -59.493878 
L 262.871466 -57.688027 
L 260.960274 -55.980111 
L 259.049083 -54.370548 
L 257.137891 -52.85905 
L 255.226699 -51.444514 
L 253.315507 -50.124933 
L 251.404316 -48.897354 
L 249.493124 -47.757878 
L 247.581932 -46.701707 
L 245.670741 -45.723245 
L 243.759549 -44.816235 
L 241.848357 -43.973946 
L 239.937165 -43.18938 
L 238.025974 -42.455503 
L 236.114782 -41.765478 
L 234.20359 -41.112889 
L 232.292398 -40.491944 
L 230.381207 -39.897639 
L 228.470015 -39.325882 
L 226.558823 -38.773563 
L 224.647631 -38.238569 
L 222.73644 -37.719753 
L 220.825248 -37.216844 
L 218.914056 -36.730324 
L 217.002864 -36.261273 
L 215.091673 -35.811197 
L 213.180481 -35.381842 
L 211.269289 -34.975021 
L 209.358098 -34.592453 
L 207.446906 -34.235628 
L 205.535714 -33.905693 
L 203.624522 -33.603384 
L 201.713331 -33.328979 
L 199.802139 -33.082294 
L 197.890947 -32.862695 
L 195.979755 -32.669144 
L 194.068564 -32.500257 
L 192.157372 -32.354374 
L 190.24618 -32.229636 
L 188.334988 -32.124059 
L 186.423797 -32.035605 
L 184.512605 -31.962249 
L 182.601413 -31.902031 
L 180.690221 -31.853098 
L 178.77903 -31.813737 
L 176.867838 -31.782395 
L 174.956646 -31.757689 
L 173.045455 -31.73841 
z
" style="stroke: #dd8452"/>
    </defs>
    <g clip-path="url(#p58fb3d0856)">
     <use xlink:href="#m6bee3e71ac" x="0" y="288" style="fill: #dd8452; fill-opacity: 0.25; stroke: #dd8452"/>
    </g>
   </g>
   <g id="FillBetweenPolyCollection_2">
    <defs>
     <path id="md9333ac1e1" d="M 435.080391 -31.734062 
L 435.080391 -31.68 
L 437.587296 -31.68 
L 440.094201 -31.68 
L 442.601107 -31.68 
L 445.108012 -31.68 
L 447.614917 -31.68 
L 450.121822 -31.68 
L 452.628728 -31.68 
L 455.135633 -31.68 
L 457.642538 -31.68 
L 460.149444 -31.68 
L 462.656349 -31.68 
L 465.163254 -31.68 
L 467.67016 -31.68 
L 470.177065 -31.68 
L 472.68397 -31.68 
L 475.190875 -31.68 
L 477.697781 -31.68 
L 480.204686 -31.68 
L 482.711591 -31.68 
L 485.218497 -31.68 
L 487.725402 -31.68 
L 490.232307 -31.68 
L 492.739213 -31.68 
L 495.246118 -31.68 
L 497.753023 -31.68 
L 500.259928 -31.68 
L 502.766834 -31.68 
L 505.273739 -31.68 
L 507.780644 -31.68 
L 510.28755 -31.68 
L 512.794455 -31.68 
L 515.30136 -31.68 
L 517.808266 -31.68 
L 520.315171 -31.68 
L 522.822076 -31.68 
L 525.328981 -31.68 
L 527.835887 -31.68 
L 530.342792 -31.68 
L 532.849697 -31.68 
L 535.356603 -31.68 
L 537.863508 -31.68 
L 540.370413 -31.68 
L 542.877319 -31.68 
L 545.384224 -31.68 
L 547.891129 -31.68 
L 550.398034 -31.68 
L 552.90494 -31.68 
L 555.411845 -31.68 
L 557.91875 -31.68 
L 560.425656 -31.68 
L 562.932561 -31.68 
L 565.439466 -31.68 
L 567.946372 -31.68 
L 570.453277 -31.68 
L 572.960182 -31.68 
L 575.467087 -31.68 
L 577.973993 -31.68 
L 580.480898 -31.68 
L 582.987803 -31.68 
L 585.494709 -31.68 
L 588.001614 -31.68 
L 590.508519 -31.68 
L 593.015425 -31.68 
L 595.52233 -31.68 
L 598.029235 -31.68 
L 600.53614 -31.68 
L 603.043046 -31.68 
L 605.549951 -31.68 
L 608.056856 -31.68 
L 610.563762 -31.68 
L 613.070667 -31.68 
L 615.577572 -31.68 
L 618.084478 -31.68 
L 620.591383 -31.68 
L 623.098288 -31.68 
L 625.605193 -31.68 
L 628.112099 -31.68 
L 630.619004 -31.68 
L 633.125909 -31.68 
L 635.632815 -31.68 
L 638.13972 -31.68 
L 640.646625 -31.68 
L 643.153531 -31.68 
L 645.660436 -31.68 
L 648.167341 -31.68 
L 650.674246 -31.68 
L 653.181152 -31.68 
L 655.688057 -31.68 
L 658.194962 -31.68 
L 660.701868 -31.68 
L 663.208773 -31.68 
L 665.715678 -31.68 
L 668.222584 -31.68 
L 670.729489 -31.68 
L 673.236394 -31.68 
L 675.743299 -31.68 
L 678.250205 -31.68 
L 680.75711 -31.68 
L 683.264015 -31.68 
L 685.770921 -31.68 
L 688.277826 -31.68 
L 690.784731 -31.68 
L 693.291637 -31.68 
L 695.798542 -31.68 
L 698.305447 -31.68 
L 700.812352 -31.68 
L 703.319258 -31.68 
L 705.826163 -31.68 
L 708.333068 -31.68 
L 710.839974 -31.68 
L 713.346879 -31.68 
L 715.853784 -31.68 
L 718.36069 -31.68 
L 720.867595 -31.68 
L 723.3745 -31.68 
L 725.881405 -31.68 
L 728.388311 -31.68 
L 730.895216 -31.68 
L 733.402121 -31.68 
L 735.909027 -31.68 
L 738.415932 -31.68 
L 740.922837 -31.68 
L 743.429743 -31.68 
L 745.936648 -31.68 
L 748.443553 -31.68 
L 750.950459 -31.68 
L 753.457364 -31.68 
L 755.964269 -31.68 
L 758.471174 -31.68 
L 760.97808 -31.68 
L 763.484985 -31.68 
L 765.99189 -31.68 
L 768.498796 -31.68 
L 771.005701 -31.68 
L 773.512606 -31.68 
L 776.019512 -31.68 
L 778.526417 -31.68 
L 781.033322 -31.68 
L 783.540227 -31.68 
L 786.047133 -31.68 
L 788.554038 -31.68 
L 791.060943 -31.68 
L 793.567849 -31.68 
L 796.074754 -31.68 
L 798.581659 -31.68 
L 801.088565 -31.68 
L 803.59547 -31.68 
L 806.102375 -31.68 
L 808.60928 -31.68 
L 811.116186 -31.68 
L 813.623091 -31.68 
L 816.129996 -31.68 
L 818.636902 -31.68 
L 821.143807 -31.68 
L 823.650712 -31.68 
L 826.157618 -31.68 
L 828.664523 -31.68 
L 831.171428 -31.68 
L 833.678333 -31.68 
L 836.185239 -31.68 
L 838.692144 -31.68 
L 841.199049 -31.68 
L 843.705955 -31.68 
L 846.21286 -31.68 
L 848.719765 -31.68 
L 851.226671 -31.68 
L 853.733576 -31.68 
L 856.240481 -31.68 
L 858.747386 -31.68 
L 861.254292 -31.68 
L 863.761197 -31.68 
L 866.268102 -31.68 
L 868.775008 -31.68 
L 871.281913 -31.68 
L 873.788818 -31.68 
L 876.295724 -31.68 
L 878.802629 -31.68 
L 881.309534 -31.68 
L 883.816439 -31.68 
L 886.323345 -31.68 
L 888.83025 -31.68 
L 891.337155 -31.68 
L 893.844061 -31.68 
L 896.350966 -31.68 
L 898.857871 -31.68 
L 901.364777 -31.68 
L 903.871682 -31.68 
L 906.378587 -31.68 
L 908.885492 -31.68 
L 911.392398 -31.68 
L 913.899303 -31.68 
L 916.406208 -31.68 
L 918.913114 -31.68 
L 921.420019 -31.68 
L 923.926924 -31.68 
L 926.43383 -31.68 
L 928.940735 -31.68 
L 931.44764 -31.68 
L 933.954545 -31.68 
L 933.954545 -31.734913 
L 933.954545 -31.734913 
L 931.44764 -31.758413 
L 928.940735 -31.79034 
L 926.43383 -31.833004 
L 923.926924 -31.889074 
L 921.420019 -31.961529 
L 918.913114 -32.05357 
L 916.406208 -32.168481 
L 913.899303 -32.309433 
L 911.392398 -32.479241 
L 908.885492 -32.680074 
L 906.378587 -32.913143 
L 903.871682 -33.178377 
L 901.364777 -33.474136 
L 898.857871 -33.796977 
L 896.350966 -34.141523 
L 893.844061 -34.500453 
L 891.337155 -34.864649 
L 888.83025 -35.223502 
L 886.323345 -35.565379 
L 883.816439 -35.878225 
L 881.309534 -36.150258 
L 878.802629 -36.370714 
L 876.295724 -36.530565 
L 873.788818 -36.623162 
L 871.281913 -36.644732 
L 868.775008 -36.594685 
L 866.268102 -36.475709 
L 863.761197 -36.293643 
L 861.254292 -36.057142 
L 858.747386 -35.777179 
L 856.240481 -35.466429 
L 853.733576 -35.138597 
L 851.226671 -34.807759 
L 848.719765 -34.487748 
L 846.21286 -34.191662 
L 843.705955 -33.931477 
L 841.199049 -33.717809 
L 838.692144 -33.559787 
L 836.185239 -33.465038 
L 833.678333 -33.439739 
L 831.171428 -33.488714 
L 828.664523 -33.615552 
L 826.157618 -33.822716 
L 823.650712 -34.111657 
L 821.143807 -34.48291 
L 818.636902 -34.936207 
L 816.129996 -35.470611 
L 813.623091 -36.084685 
L 811.116186 -36.776731 
L 808.60928 -37.545071 
L 806.102375 -38.388394 
L 803.59547 -39.306135 
L 801.088565 -40.298862 
L 798.581659 -41.368638 
L 796.074754 -42.51931 
L 793.567849 -43.756703 
L 791.060943 -45.088685 
L 788.554038 -46.525077 
L 786.047133 -48.077427 
L 783.540227 -49.75864 
L 781.033322 -51.582515 
L 778.526417 -53.563195 
L 776.019512 -55.714604 
L 773.512606 -58.049884 
L 771.005701 -60.580894 
L 768.498796 -63.317779 
L 765.99189 -66.268641 
L 763.484985 -69.439312 
L 760.97808 -72.83324 
L 758.471174 -76.451468 
L 755.964269 -80.292698 
L 753.457364 -84.353442 
L 750.950459 -88.628223 
L 748.443553 -93.109839 
L 745.936648 -97.789658 
L 743.429743 -102.65795 
L 740.922837 -107.704211 
L 738.415932 -112.917483 
L 735.909027 -118.286618 
L 733.402121 -123.800464 
L 730.895216 -129.447924 
L 728.388311 -135.217876 
L 725.881405 -141.098911 
L 723.3745 -147.078893 
L 720.867595 -153.144367 
L 718.36069 -159.279833 
L 715.853784 -165.466966 
L 713.346879 -171.683846 
L 710.839974 -177.904292 
L 708.333068 -184.097383 
L 705.826163 -190.227231 
L 703.319258 -196.253075 
L 700.812352 -202.129683 
L 698.305447 -207.808088 
L 695.798542 -213.236579 
L 693.291637 -218.361898 
L 690.784731 -223.130541 
L 688.277826 -227.490088 
L 685.770921 -231.39045 
L 683.264015 -234.784984 
L 680.75711 -237.631426 
L 678.250205 -239.892618 
L 675.743299 -241.537051 
L 673.236394 -242.53924 
L 670.729489 -242.88 
L 668.222584 -242.546651 
L 665.715678 -241.533212 
L 663.208773 -239.84061 
L 660.701868 -237.47691 
L 658.194962 -234.457557 
L 655.688057 -230.8056 
L 653.181152 -226.551825 
L 650.674246 -221.734768 
L 648.167341 -216.400516 
L 645.660436 -210.602255 
L 643.153531 -204.399535 
L 640.646625 -197.857228 
L 638.13972 -191.044197 
L 635.632815 -184.031719 
L 633.125909 -176.891735 
L 630.619004 -169.694991 
L 628.112099 -162.509198 
L 625.605193 -155.397289 
L 623.098288 -148.415884 
L 620.591383 -141.614049 
L 618.084478 -135.032404 
L 615.577572 -128.702642 
L 613.070667 -122.647454 
L 610.563762 -116.880861 
L 608.056856 -111.408908 
L 605.549951 -106.230651 
L 603.043046 -101.33937 
L 600.53614 -96.7239 
L 598.029235 -92.37 
L 595.52233 -88.261649 
L 593.015425 -84.382218 
L 590.508519 -80.715428 
L 588.001614 -77.246083 
L 585.494709 -73.960537 
L 582.987803 -70.846936 
L 580.480898 -67.895241 
L 577.973993 -65.097091 
L 575.467087 -62.445569 
L 572.960182 -59.934917 
L 570.453277 -57.560265 
L 567.946372 -55.317406 
L 565.439466 -53.202659 
L 562.932561 -51.21281 
L 560.425656 -49.345137 
L 557.91875 -47.597484 
L 555.411845 -45.968365 
L 552.90494 -44.457042 
L 550.398034 -43.06356 
L 547.891129 -41.788692 
L 545.384224 -40.633793 
L 542.877319 -39.600541 
L 540.370413 -38.690587 
L 537.863508 -37.905125 
L 535.356603 -37.244421 
L 532.849697 -36.707337 
L 530.342792 -36.290882 
L 527.835887 -35.989856 
L 525.328981 -35.796593 
L 522.822076 -35.700868 
L 520.315171 -35.689963 
L 517.808266 -35.748923 
L 515.30136 -35.860989 
L 512.794455 -36.008192 
L 510.28755 -36.17208 
L 507.780644 -36.334527 
L 505.273739 -36.478578 
L 502.766834 -36.589249 
L 500.259928 -36.654237 
L 497.753023 -36.664471 
L 495.246118 -36.614463 
L 492.739213 -36.502422 
L 490.232307 -36.330131 
L 487.725402 -36.102598 
L 485.218497 -35.827512 
L 482.711591 -35.514557 
L 480.204686 -35.174648 
L 477.697781 -34.819154 
L 475.190875 -34.459167 
L 472.68397 -34.104878 
L 470.177065 -33.765089 
L 467.67016 -33.446887 
L 465.163254 -33.155488 
L 462.656349 -32.894229 
L 460.149444 -32.664691 
L 457.642538 -32.466922 
L 455.135633 -32.299717 
L 452.628728 -32.160933 
L 450.121822 -32.047794 
L 447.614917 -31.957174 
L 445.108012 -31.885839 
L 442.601107 -31.830636 
L 440.094201 -31.788632 
L 437.587296 -31.757199 
L 435.080391 -31.734062 
z
" style="stroke: #4c72b0"/>
    </defs>
    <g clip-path="url(#p58fb3d0856)">
     <use xlink:href="#md9333ac1e1" x="0" y="288" style="fill: #4c72b0; fill-opacity: 0.25; stroke: #4c72b0"/>
    </g>
   </g>
   <g id="line2d_36">
    <path d="M 337.309599 256.32 
L 337.309599 34.56 
" clip-path="url(#p58fb3d0856)" style="fill: none; stroke-dasharray: 2.96,1.28; stroke-dashoffset: 0; stroke: #d3d3d3; stroke-width: 0.8"/>
   </g>
   <g id="line2d_37">
    <path d="M 560.862945 256.32 
L 560.862945 34.56 
" clip-path="url(#p58fb3d0856)" style="fill: none; stroke-dasharray: 2.96,1.28; stroke-dashoffset: 0; stroke: #d3d3d3; stroke-width: 0.8"/>
   </g>
   <g id="line2d_38">
    <path d="M 474.665461 256.32 
L 474.665461 34.56 
" clip-path="url(#p58fb3d0856)" style="fill: none; stroke-dasharray: 2.96,1.28; stroke-dashoffset: 0; stroke: #d3d3d3; stroke-width: 0.8"/>
   </g>
   <g id="line2d_39">
    <path d="M 135 256.32 
L 972 256.32 
" clip-path="url(#p58fb3d0856)" style="fill: none; stroke: #808080; stroke-width: 0.5; stroke-linecap: round"/>
   </g>
   <g id="text_12">
    <!-- International Poverty Line: $2.15 -->
    <g style="fill: #808080" transform="translate(343.563349 151.95635) rotate(-90) scale(0.08 -0.08)">
     <defs>
      <path id="ArialMT-6c" d="M 409 0 
L 409 4581 
L 972 4581 
L 972 0 
L 409 0 
z
" transform="scale(0.015625)"/>
      <path id="ArialMT-50" d="M 494 0 
L 494 4581 
L 2222 4581 
Q 2678 4581 2919 4538 
Q 3256 4481 3484 4323 
Q 3713 4166 3852 3881 
Q 3991 3597 3991 3256 
Q 3991 2672 3619 2267 
Q 3247 1863 2275 1863 
L 1100 1863 
L 1100 0 
L 494 0 
z
M 1100 2403 
L 2284 2403 
Q 2872 2403 3119 2622 
Q 3366 2841 3366 3238 
Q 3366 3525 3220 3729 
Q 3075 3934 2838 4000 
Q 2684 4041 2272 4041 
L 1100 4041 
L 1100 2403 
z
" transform="scale(0.015625)"/>
      <path id="ArialMT-76" d="M 1344 0 
L 81 3319 
L 675 3319 
L 1388 1331 
Q 1503 1009 1600 663 
Q 1675 925 1809 1294 
L 2547 3319 
L 3125 3319 
L 1869 0 
L 1344 0 
z
" transform="scale(0.015625)"/>
      <path id="ArialMT-4c" d="M 469 0 
L 469 4581 
L 1075 4581 
L 1075 541 
L 3331 541 
L 3331 0 
L 469 0 
z
" transform="scale(0.015625)"/>
      <path id="ArialMT-3a" d="M 578 2678 
L 578 3319 
L 1219 3319 
L 1219 2678 
L 578 2678 
z
M 578 0 
L 578 641 
L 1219 641 
L 1219 0 
L 578 0 
z
" transform="scale(0.015625)"/>
      <path id="ArialMT-24" d="M 1594 -659 
L 1594 -97 
Q 1172 -44 908 92 
Q 644 228 451 531 
Q 259 834 228 1272 
L 794 1378 
Q 859 925 1025 713 
Q 1263 413 1594 378 
L 1594 2169 
Q 1247 2234 884 2438 
Q 616 2588 470 2853 
Q 325 3119 325 3456 
Q 325 4056 750 4428 
Q 1034 4678 1594 4734 
L 1594 5003 
L 1925 5003 
L 1925 4734 
Q 2416 4688 2703 4447 
Q 3072 4141 3147 3606 
L 2566 3519 
Q 2516 3850 2358 4026 
Q 2200 4203 1925 4259 
L 1925 2638 
Q 2350 2531 2488 2472 
Q 2750 2356 2915 2190 
Q 3081 2025 3170 1797 
Q 3259 1569 3259 1303 
Q 3259 719 2887 328 
Q 2516 -63 1925 -91 
L 1925 -659 
L 1594 -659 
z
M 1594 4266 
Q 1266 4216 1077 4003 
Q 888 3791 888 3500 
Q 888 3213 1048 3019 
Q 1209 2825 1594 2709 
L 1594 4266 
z
M 1925 378 
Q 2253 419 2467 662 
Q 2681 906 2681 1266 
Q 2681 1572 2529 1758 
Q 2378 1944 1925 2091 
L 1925 378 
z
" transform="scale(0.015625)"/>
      <path id="ArialMT-2e" d="M 581 0 
L 581 641 
L 1222 641 
L 1222 0 
L 581 0 
z
" transform="scale(0.015625)"/>
     </defs>
     <use xlink:href="#ArialMT-49"/>
     <use xlink:href="#ArialMT-6e" transform="translate(27.783203 0)"/>
     <use xlink:href="#ArialMT-74" transform="translate(83.398438 0)"/>
     <use xlink:href="#ArialMT-65" transform="translate(111.181641 0)"/>
     <use xlink:href="#ArialMT-72" transform="translate(166.796875 0)"/>
     <use xlink:href="#ArialMT-6e" transform="translate(200.097656 0)"/>
     <use xlink:href="#ArialMT-61" transform="translate(255.712891 0)"/>
     <use xlink:href="#ArialMT-74" transform="translate(311.328125 0)"/>
     <use xlink:href="#ArialMT-69" transform="translate(339.111328 0)"/>
     <use xlink:href="#ArialMT-6f" transform="translate(361.328125 0)"/>
     <use xlink:href="#ArialMT-6e" transform="translate(416.943359 0)"/>
     <use xlink:href="#ArialMT-61" transform="translate(472.558594 0)"/>
     <use xlink:href="#ArialMT-6c" transform="translate(528.173828 0)"/>
     <use xlink:href="#ArialMT-20" transform="translate(550.390625 0)"/>
     <use xlink:href="#ArialMT-50" transform="translate(578.173828 0)"/>
     <use xlink:href="#ArialMT-6f" transform="translate(644.873047 0)"/>
     <use xlink:href="#ArialMT-76" transform="translate(700.488281 0)"/>
     <use xlink:href="#ArialMT-65" transform="translate(750.488281 0)"/>
     <use xlink:href="#ArialMT-72" transform="translate(806.103516 0)"/>
     <use xlink:href="#ArialMT-74" transform="translate(839.404297 0)"/>
     <use xlink:href="#ArialMT-79" transform="translate(867.1875 0)"/>
     <use xlink:href="#ArialMT-20" transform="translate(917.1875 0)"/>
     <use xlink:href="#ArialMT-4c" transform="translate(944.970703 0)"/>
     <use xlink:href="#ArialMT-69" transform="translate(1000.585938 0)"/>
     <use xlink:href="#ArialMT-6e" transform="translate(1022.802734 0)"/>
     <use xlink:href="#ArialMT-65" transform="translate(1078.417969 0)"/>
     <use xlink:href="#ArialMT-3a" transform="translate(1134.033203 0)"/>
     <use xlink:href="#ArialMT-20" transform="translate(1161.816406 0)"/>
     <use xlink:href="#ArialMT-24" transform="translate(1189.599609 0)"/>
     <use xlink:href="#ArialMT-32" transform="translate(1245.214844 0)"/>
     <use xlink:href="#ArialMT-2e" transform="translate(1300.830078 0)"/>
     <use xlink:href="#ArialMT-31" transform="translate(1328.613281 0)"/>
     <use xlink:href="#ArialMT-35" transform="translate(1384.228516 0)"/>
    </g>
   </g>
   <g id="text_13">
    <!-- World mean: $19.18 -->
    <g style="fill: #808080" transform="translate(566.589195 108.67135) rotate(-90) scale(0.08 -0.08)">
     <defs>
      <path id="ArialMT-57" d="M 1294 0 
L 78 4581 
L 700 4581 
L 1397 1578 
Q 1509 1106 1591 641 
Q 1766 1375 1797 1488 
L 2669 4581 
L 3400 4581 
L 4056 2263 
Q 4303 1400 4413 641 
Q 4500 1075 4641 1638 
L 5359 4581 
L 5969 4581 
L 4713 0 
L 4128 0 
L 3163 3491 
Q 3041 3928 3019 4028 
Q 2947 3713 2884 3491 
L 1913 0 
L 1294 0 
z
" transform="scale(0.015625)"/>
      <path id="ArialMT-39" d="M 350 1059 
L 891 1109 
Q 959 728 1153 556 
Q 1347 384 1650 384 
Q 1909 384 2104 503 
Q 2300 622 2425 820 
Q 2550 1019 2634 1356 
Q 2719 1694 2719 2044 
Q 2719 2081 2716 2156 
Q 2547 1888 2255 1720 
Q 1963 1553 1622 1553 
Q 1053 1553 659 1965 
Q 266 2378 266 3053 
Q 266 3750 677 4175 
Q 1088 4600 1706 4600 
Q 2153 4600 2523 4359 
Q 2894 4119 3086 3673 
Q 3278 3228 3278 2384 
Q 3278 1506 3087 986 
Q 2897 466 2520 194 
Q 2144 -78 1638 -78 
Q 1100 -78 759 220 
Q 419 519 350 1059 
z
M 2653 3081 
Q 2653 3566 2395 3850 
Q 2138 4134 1775 4134 
Q 1400 4134 1122 3828 
Q 844 3522 844 3034 
Q 844 2597 1108 2323 
Q 1372 2050 1759 2050 
Q 2150 2050 2401 2323 
Q 2653 2597 2653 3081 
z
" transform="scale(0.015625)"/>
      <path id="ArialMT-38" d="M 1131 2484 
Q 781 2613 612 2850 
Q 444 3088 444 3419 
Q 444 3919 803 4259 
Q 1163 4600 1759 4600 
Q 2359 4600 2725 4251 
Q 3091 3903 3091 3403 
Q 3091 3084 2923 2848 
Q 2756 2613 2416 2484 
Q 2838 2347 3058 2040 
Q 3278 1734 3278 1309 
Q 3278 722 2862 322 
Q 2447 -78 1769 -78 
Q 1091 -78 675 323 
Q 259 725 259 1325 
Q 259 1772 486 2073 
Q 713 2375 1131 2484 
z
M 1019 3438 
Q 1019 3113 1228 2906 
Q 1438 2700 1772 2700 
Q 2097 2700 2305 2904 
Q 2513 3109 2513 3406 
Q 2513 3716 2298 3927 
Q 2084 4138 1766 4138 
Q 1444 4138 1231 3931 
Q 1019 3725 1019 3438 
z
M 838 1322 
Q 838 1081 952 856 
Q 1066 631 1291 507 
Q 1516 384 1775 384 
Q 2178 384 2440 643 
Q 2703 903 2703 1303 
Q 2703 1709 2433 1975 
Q 2163 2241 1756 2241 
Q 1359 2241 1098 1978 
Q 838 1716 838 1322 
z
" transform="scale(0.015625)"/>
     </defs>
     <use xlink:href="#ArialMT-57"/>
     <use xlink:href="#ArialMT-6f" transform="translate(92.634766 0)"/>
     <use xlink:href="#ArialMT-72" transform="translate(148.25 0)"/>
     <use xlink:href="#ArialMT-6c" transform="translate(181.550781 0)"/>
     <use xlink:href="#ArialMT-64" transform="translate(203.767578 0)"/>
     <use xlink:href="#ArialMT-20" transform="translate(259.382812 0)"/>
     <use xlink:href="#ArialMT-6d" transform="translate(287.166016 0)"/>
     <use xlink:href="#ArialMT-65" transform="translate(370.466797 0)"/>
     <use xlink:href="#ArialMT-61" transform="translate(426.082031 0)"/>
     <use xlink:href="#ArialMT-6e" transform="translate(481.697266 0)"/>
     <use xlink:href="#ArialMT-3a" transform="translate(537.3125 0)"/>
     <use xlink:href="#ArialMT-20" transform="translate(565.095703 0)"/>
     <use xlink:href="#ArialMT-24" transform="translate(592.878906 0)"/>
     <use xlink:href="#ArialMT-31" transform="translate(648.494141 0)"/>
     <use xlink:href="#ArialMT-39" transform="translate(704.109375 0)"/>
     <use xlink:href="#ArialMT-2e" transform="translate(759.724609 0)"/>
     <use xlink:href="#ArialMT-31" transform="translate(787.507812 0)"/>
     <use xlink:href="#ArialMT-38" transform="translate(843.123047 0)"/>
    </g>
   </g>
   <g id="text_14">
    <!-- World median: $8.25 -->
    <g style="fill: #808080" transform="translate(480.391711 110.44885) rotate(-90) scale(0.08 -0.08)">
     <use xlink:href="#ArialMT-57"/>
     <use xlink:href="#ArialMT-6f" transform="translate(92.634766 0)"/>
     <use xlink:href="#ArialMT-72" transform="translate(148.25 0)"/>
     <use xlink:href="#ArialMT-6c" transform="translate(181.550781 0)"/>
     <use xlink:href="#ArialMT-64" transform="translate(203.767578 0)"/>
     <use xlink:href="#ArialMT-20" transform="translate(259.382812 0)"/>
     <use xlink:href="#ArialMT-6d" transform="translate(287.166016 0)"/>
     <use xlink:href="#ArialMT-65" transform="translate(370.466797 0)"/>
     <use xlink:href="#ArialMT-64" transform="translate(426.082031 0)"/>
     <use xlink:href="#ArialMT-69" transform="translate(481.697266 0)"/>
     <use xlink:href="#ArialMT-61" transform="translate(503.914062 0)"/>
     <use xlink:href="#ArialMT-6e" transform="translate(559.529297 0)"/>
     <use xlink:href="#ArialMT-3a" transform="translate(615.144531 0)"/>
     <use xlink:href="#ArialMT-20" transform="translate(642.927734 0)"/>
     <use xlink:href="#ArialMT-24" transform="translate(670.710938 0)"/>
     <use xlink:href="#ArialMT-38" transform="translate(726.326172 0)"/>
     <use xlink:href="#ArialMT-2e" transform="translate(781.941406 0)"/>
     <use xlink:href="#ArialMT-32" transform="translate(809.724609 0)"/>
     <use xlink:href="#ArialMT-35" transform="translate(865.339844 0)"/>
    </g>
   </g>
   <g id="text_15">
    <!-- Denmark (2021) -->
    <g transform="translate(649.475167 254.215313) scale(0.1 -0.1)">
     <defs>
      <path id="ArialMT-44" d="M 494 0 
L 494 4581 
L 2072 4581 
Q 2606 4581 2888 4516 
Q 3281 4425 3559 4188 
Q 3922 3881 4101 3404 
Q 4281 2928 4281 2316 
Q 4281 1794 4159 1391 
Q 4038 988 3847 723 
Q 3656 459 3429 307 
Q 3203 156 2883 78 
Q 2563 0 2147 0 
L 494 0 
z
M 1100 541 
L 2078 541 
Q 2531 541 2789 625 
Q 3047 709 3200 863 
Q 3416 1078 3536 1442 
Q 3656 1806 3656 2325 
Q 3656 3044 3420 3430 
Q 3184 3816 2847 3947 
Q 2603 4041 2063 4041 
L 1100 4041 
L 1100 541 
z
" transform="scale(0.015625)"/>
      <path id="ArialMT-6b" d="M 425 0 
L 425 4581 
L 988 4581 
L 988 1969 
L 2319 3319 
L 3047 3319 
L 1778 2088 
L 3175 0 
L 2481 0 
L 1384 1697 
L 988 1316 
L 988 0 
L 425 0 
z
" transform="scale(0.015625)"/>
     </defs>
     <use xlink:href="#ArialMT-44"/>
     <use xlink:href="#ArialMT-65" transform="translate(72.216797 0)"/>
     <use xlink:href="#ArialMT-6e" transform="translate(127.832031 0)"/>
     <use xlink:href="#ArialMT-6d" transform="translate(183.447266 0)"/>
     <use xlink:href="#ArialMT-61" transform="translate(266.748047 0)"/>
     <use xlink:href="#ArialMT-72" transform="translate(322.363281 0)"/>
     <use xlink:href="#ArialMT-6b" transform="translate(355.664062 0)"/>
     <use xlink:href="#ArialMT-20" transform="translate(405.664062 0)"/>
     <use xlink:href="#ArialMT-28" transform="translate(433.447266 0)"/>
     <use xlink:href="#ArialMT-32" transform="translate(466.748047 0)"/>
     <use xlink:href="#ArialMT-30" transform="translate(522.363281 0)"/>
     <use xlink:href="#ArialMT-32" transform="translate(577.978516 0)"/>
     <use xlink:href="#ArialMT-31" transform="translate(633.59375 0)"/>
     <use xlink:href="#ArialMT-29" transform="translate(689.208984 0)"/>
    </g>
   </g>
   <g id="text_16">
    <!-- Syria (2022) -->
    <g transform="translate(347.171955 254.215313) scale(0.1 -0.1)">
     <defs>
      <path id="ArialMT-53" d="M 288 1472 
L 859 1522 
Q 900 1178 1048 958 
Q 1197 738 1509 602 
Q 1822 466 2213 466 
Q 2559 466 2825 569 
Q 3091 672 3220 851 
Q 3350 1031 3350 1244 
Q 3350 1459 3225 1620 
Q 3100 1781 2813 1891 
Q 2628 1963 1997 2114 
Q 1366 2266 1113 2400 
Q 784 2572 623 2826 
Q 463 3081 463 3397 
Q 463 3744 659 4045 
Q 856 4347 1234 4503 
Q 1613 4659 2075 4659 
Q 2584 4659 2973 4495 
Q 3363 4331 3572 4012 
Q 3781 3694 3797 3291 
L 3216 3247 
Q 3169 3681 2898 3903 
Q 2628 4125 2100 4125 
Q 1550 4125 1298 3923 
Q 1047 3722 1047 3438 
Q 1047 3191 1225 3031 
Q 1400 2872 2139 2705 
Q 2878 2538 3153 2413 
Q 3553 2228 3743 1945 
Q 3934 1663 3934 1294 
Q 3934 928 3725 604 
Q 3516 281 3123 101 
Q 2731 -78 2241 -78 
Q 1619 -78 1198 103 
Q 778 284 539 648 
Q 300 1013 288 1472 
z
" transform="scale(0.015625)"/>
     </defs>
     <use xlink:href="#ArialMT-53"/>
     <use xlink:href="#ArialMT-79" transform="translate(66.699219 0)"/>
     <use xlink:href="#ArialMT-72" transform="translate(116.699219 0)"/>
     <use xlink:href="#ArialMT-69" transform="translate(150 0)"/>
     <use xlink:href="#ArialMT-61" transform="translate(172.216797 0)"/>
     <use xlink:href="#ArialMT-20" transform="translate(227.832031 0)"/>
     <use xlink:href="#ArialMT-28" transform="translate(255.615234 0)"/>
     <use xlink:href="#ArialMT-32" transform="translate(288.916016 0)"/>
     <use xlink:href="#ArialMT-30" transform="translate(344.53125 0)"/>
     <use xlink:href="#ArialMT-32" transform="translate(400.146484 0)"/>
     <use xlink:href="#ArialMT-32" transform="translate(455.761719 0)"/>
     <use xlink:href="#ArialMT-29" transform="translate(511.376953 0)"/>
    </g>
   </g>
  </g>
 </g>
 <defs>
  <clipPath id="p58fb3d0856">
   <rect x="135" y="34.56" width="837" height="221.76"/>
  </clipPath>
 </defs>
</svg>
