<?xml version="1.0" encoding="utf-8" standalone="no"?>
<!DOCTYPE svg PUBLIC "-//W3C//DTD SVG 1.1//EN"
  "http://www.w3.org/Graphics/SVG/1.1/DTD/svg11.dtd">
<svg xmlns:xlink="http://www.w3.org/1999/xlink" width="1080pt" height="540pt" viewBox="0 0 1080 540" xmlns="http://www.w3.org/2000/svg" version="1.1">
 <metadata>
  <rdf:RDF xmlns:dc="http://purl.org/dc/elements/1.1/" xmlns:cc="http://creativecommons.org/ns#" xmlns:rdf="http://www.w3.org/1999/02/22-rdf-syntax-ns#">
   <cc:Work>
    <dc:type rdf:resource="http://purl.org/dc/dcmitype/StillImage"/>
    <dc:date>2025-03-17T18:13:48.275482</dc:date>
    <dc:format>image/svg+xml</dc:format>
    <dc:creator>
     <cc:Agent>
      <dc:title>Matplotlib v3.10.1, https://matplotlib.org/</dc:title>
     </cc:Agent>
    </dc:creator>
   </cc:Work>
  </rdf:RDF>
 </metadata>
 <defs>
  <style type="text/css">*{stroke-linejoin: round; stroke-linecap: butt}</style>
 </defs>
 <g id="figure_1">
  <g id="patch_1">
   <path d="M 0 540 
L 1080 540 
L 1080 0 
L 0 0 
z
" style="fill: #ffffff"/>
  </g>
  <g id="axes_1">
   <g id="patch_2">
    <path d="M 135 480.6 
L 972 480.6 
L 972 64.8 
L 135 64.8 
z
" style="fill: #ffffff"/>
   </g>
   <g id="FillBetweenPolyCollection_1">
    <defs>
     <path id="m54f66e13d4" d="M 186.119515 -59.412048 
L 186.119515 -59.4 
L 189.036102 -59.4 
L 191.95269 -59.4 
L 194.869277 -59.4 
L 197.785864 -59.4 
L 200.702451 -59.4 
L 203.619039 -59.4 
L 206.535626 -59.4 
L 209.452213 -59.4 
L 212.3688 -59.4 
L 215.285388 -59.4 
L 218.201975 -59.4 
L 221.118562 -59.4 
L 224.035149 -59.4 
L 226.951736 -59.4 
L 229.868324 -59.4 
L 232.784911 -59.4 
L 235.701498 -59.4 
L 238.618085 -59.4 
L 241.534673 -59.4 
L 244.45126 -59.4 
L 247.367847 -59.4 
L 250.284434 -59.4 
L 253.201022 -59.4 
L 256.117609 -59.4 
L 259.034196 -59.4 
L 261.950783 -59.4 
L 264.86737 -59.4 
L 267.783958 -59.4 
L 270.700545 -59.4 
L 273.617132 -59.4 
L 276.533719 -59.4 
L 279.450307 -59.4 
L 282.366894 -59.4 
L 285.283481 -59.4 
L 288.200068 -59.4 
L 291.116655 -59.4 
L 294.033243 -59.4 
L 296.94983 -59.4 
L 299.866417 -59.4 
L 302.783004 -59.4 
L 305.699592 -59.4 
L 308.616179 -59.4 
L 311.532766 -59.4 
L 314.449353 -59.4 
L 317.365941 -59.4 
L 320.282528 -59.4 
L 323.199115 -59.4 
L 326.115702 -59.4 
L 329.032289 -59.4 
L 331.948877 -59.4 
L 334.865464 -59.4 
L 337.782051 -59.4 
L 340.698638 -59.4 
L 343.615226 -59.4 
L 346.531813 -59.4 
L 349.4484 -59.4 
L 352.364987 -59.4 
L 355.281575 -59.4 
L 358.198162 -59.4 
L 361.114749 -59.4 
L 364.031336 -59.4 
L 366.947923 -59.4 
L 369.864511 -59.4 
L 372.781098 -59.4 
L 375.697685 -59.4 
L 378.614272 -59.4 
L 381.53086 -59.4 
L 384.447447 -59.4 
L 387.364034 -59.4 
L 390.280621 -59.4 
L 393.197209 -59.4 
L 396.113796 -59.4 
L 399.030383 -59.4 
L 401.94697 -59.4 
L 404.863557 -59.4 
L 407.780145 -59.4 
L 410.696732 -59.4 
L 413.613319 -59.4 
L 416.529906 -59.4 
L 419.446494 -59.4 
L 422.363081 -59.4 
L 425.279668 -59.4 
L 428.196255 -59.4 
L 431.112843 -59.4 
L 434.02943 -59.4 
L 436.946017 -59.4 
L 439.862604 -59.4 
L 442.779191 -59.4 
L 445.695779 -59.4 
L 448.612366 -59.4 
L 451.528953 -59.4 
L 454.44554 -59.4 
L 457.362128 -59.4 
L 460.278715 -59.4 
L 463.195302 -59.4 
L 466.111889 -59.4 
L 469.028476 -59.4 
L 471.945064 -59.4 
L 474.861651 -59.4 
L 477.778238 -59.4 
L 480.694825 -59.4 
L 483.611413 -59.4 
L 486.528 -59.4 
L 489.444587 -59.4 
L 492.361174 -59.4 
L 495.277762 -59.4 
L 498.194349 -59.4 
L 501.110936 -59.4 
L 504.027523 -59.4 
L 506.94411 -59.4 
L 509.860698 -59.4 
L 512.777285 -59.4 
L 515.693872 -59.4 
L 518.610459 -59.4 
L 521.527047 -59.4 
L 524.443634 -59.4 
L 527.360221 -59.4 
L 530.276808 -59.4 
L 533.193396 -59.4 
L 536.109983 -59.4 
L 539.02657 -59.4 
L 541.943157 -59.4 
L 544.859744 -59.4 
L 547.776332 -59.4 
L 550.692919 -59.4 
L 553.609506 -59.4 
L 556.526093 -59.4 
L 559.442681 -59.4 
L 562.359268 -59.4 
L 565.275855 -59.4 
L 568.192442 -59.4 
L 571.10903 -59.4 
L 574.025617 -59.4 
L 576.942204 -59.4 
L 579.858791 -59.4 
L 582.775378 -59.4 
L 585.691966 -59.4 
L 588.608553 -59.4 
L 591.52514 -59.4 
L 594.441727 -59.4 
L 597.358315 -59.4 
L 600.274902 -59.4 
L 603.191489 -59.4 
L 606.108076 -59.4 
L 609.024663 -59.4 
L 611.941251 -59.4 
L 614.857838 -59.4 
L 617.774425 -59.4 
L 620.691012 -59.4 
L 623.6076 -59.4 
L 626.524187 -59.4 
L 629.440774 -59.4 
L 632.357361 -59.4 
L 635.273949 -59.4 
L 638.190536 -59.4 
L 641.107123 -59.4 
L 644.02371 -59.4 
L 646.940297 -59.4 
L 649.856885 -59.4 
L 652.773472 -59.4 
L 655.690059 -59.4 
L 658.606646 -59.4 
L 661.523234 -59.4 
L 664.439821 -59.4 
L 667.356408 -59.4 
L 670.272995 -59.4 
L 673.189583 -59.4 
L 676.10617 -59.4 
L 679.022757 -59.4 
L 681.939344 -59.4 
L 684.855931 -59.4 
L 687.772519 -59.4 
L 690.689106 -59.4 
L 693.605693 -59.4 
L 696.52228 -59.4 
L 699.438868 -59.4 
L 702.355455 -59.4 
L 705.272042 -59.4 
L 708.188629 -59.4 
L 711.105217 -59.4 
L 714.021804 -59.4 
L 716.938391 -59.4 
L 719.854978 -59.4 
L 722.771565 -59.4 
L 725.688153 -59.4 
L 728.60474 -59.4 
L 731.521327 -59.4 
L 734.437914 -59.4 
L 737.354502 -59.4 
L 740.271089 -59.4 
L 743.187676 -59.4 
L 746.104263 -59.4 
L 749.020851 -59.4 
L 751.937438 -59.4 
L 754.854025 -59.4 
L 757.770612 -59.4 
L 760.687199 -59.4 
L 763.603787 -59.4 
L 766.520374 -59.4 
L 766.520374 -59.41202 
L 766.520374 -59.41202 
L 763.603787 -59.421879 
L 760.687199 -59.438155 
L 757.770612 -59.463755 
L 754.854025 -59.502075 
L 751.937438 -59.556586 
L 749.020851 -59.630157 
L 746.104263 -59.724137 
L 743.187676 -59.83739 
L 740.271089 -59.965514 
L 737.354502 -60.100571 
L 734.437914 -60.231564 
L 731.521327 -60.345745 
L 728.60474 -60.430593 
L 725.688153 -60.476055 
L 722.771565 -60.476507 
L 719.854978 -60.431891 
L 716.938391 -60.347732 
L 714.021804 -60.234011 
L 711.105217 -60.103223 
L 708.188629 -59.968131 
L 705.272042 -59.839784 
L 702.355455 -59.726185 
L 699.438868 -59.631806 
L 696.52228 -59.557843 
L 693.605693 -59.502985 
L 690.689106 -59.464392 
L 687.772519 -59.438604 
L 684.855931 -59.422244 
L 681.939344 -59.412449 
L 679.022757 -59.407065 
L 676.10617 -59.404695 
L 673.189583 -59.404691 
L 670.272995 -59.407157 
L 667.356408 -59.413037 
L 664.439821 -59.424296 
L 661.523234 -59.444184 
L 658.606646 -59.477539 
L 655.690059 -59.531009 
L 652.773472 -59.613074 
L 649.856885 -59.733689 
L 646.940297 -59.903426 
L 644.02371 -60.132065 
L 641.107123 -60.426741 
L 638.190536 -60.789948 
L 635.273949 -61.217888 
L 632.357361 -61.699734 
L 629.440774 -62.218312 
L 626.524187 -62.752461 
L 623.6076 -63.280854 
L 620.691012 -63.786624 
L 617.774425 -64.261668 
L 614.857838 -64.709419 
L 611.941251 -65.145099 
L 609.024663 -65.593063 
L 606.108076 -66.081717 
L 603.191489 -66.637194 
L 600.274902 -67.277489 
L 597.358315 -68.008588 
L 594.441727 -68.82362 
L 591.52514 -69.705135 
L 588.608553 -70.629772 
L 585.691966 -71.574035 
L 582.775378 -72.519772 
L 579.858791 -73.458269 
L 576.942204 -74.392329 
L 574.025617 -75.336229 
L 571.10903 -76.313736 
L 568.192442 -77.35458 
L 565.275855 -78.489831 
L 562.359268 -79.74679 
L 559.442681 -81.144152 
L 556.526093 -82.688389 
L 553.609506 -84.372303 
L 550.692919 -86.176451 
L 547.776332 -88.07358 
L 544.859744 -90.035416 
L 541.943157 -92.040427 
L 539.02657 -94.080712 
L 536.109983 -96.166213 
L 533.193396 -98.325102 
L 530.276808 -100.600184 
L 527.360221 -103.042325 
L 524.443634 -105.702744 
L 521.527047 -108.626282 
L 518.610459 -111.847317 
L 515.693872 -115.389077 
L 512.777285 -119.265908 
L 509.860698 -123.487194 
L 506.94411 -128.061188 
L 504.027523 -132.997257 
L 501.110936 -138.305694 
L 498.194349 -143.99508 
L 495.277762 -150.067924 
L 492.361174 -156.515723 
L 489.444587 -163.314726 
L 486.528 -170.423537 
L 483.611413 -177.783394 
L 480.694825 -185.321523 
L 477.778238 -192.957471 
L 474.861651 -200.611751 
L 471.945064 -208.215691 
L 469.028476 -215.720974 
L 466.111889 -223.107305 
L 463.195302 -230.386751 
L 460.278715 -237.603684 
L 457.362128 -244.829783 
L 454.44554 -252.154145 
L 451.528953 -259.669335 
L 448.612366 -267.454914 
L 445.695779 -275.560751 
L 442.779191 -283.992868 
L 439.862604 -292.704516 
L 436.946017 -301.594504 
L 434.02943 -310.51346 
L 431.112843 -319.277103 
L 428.196255 -327.684057 
L 425.279668 -335.534815 
L 422.363081 -342.648322 
L 419.446494 -348.873388 
L 416.529906 -354.093461 
L 413.613319 -358.224801 
L 410.696732 -361.209499 
L 407.780145 -363.005635 
L 404.863557 -363.577247 
L 401.94697 -362.886514 
L 399.030383 -360.889993 
L 396.113796 -357.539842 
L 393.197209 -352.790015 
L 390.280621 -346.606467 
L 387.364034 -338.979553 
L 384.447447 -329.936229 
L 381.53086 -319.549501 
L 378.614272 -307.942934 
L 375.697685 -295.288966 
L 372.781098 -281.801092 
L 369.864511 -267.7213 
L 366.947923 -253.305111 
L 364.031336 -238.806795 
L 361.114749 -224.466824 
L 358.198162 -210.502526 
L 355.281575 -197.101759 
L 352.364987 -184.41863 
L 349.4484 -172.570214 
L 346.531813 -161.633809 
L 343.615226 -151.645158 
L 340.698638 -142.598803 
L 337.782051 -134.451799 
L 334.865464 -127.131386 
L 331.948877 -120.546039 
L 329.032289 -114.598119 
L 326.115702 -109.195652 
L 323.199115 -104.260934 
L 320.282528 -99.734559 
L 317.365941 -95.574842 
L 314.449353 -91.753823 
L 311.532766 -88.251791 
L 308.616179 -85.05222 
L 305.699592 -82.13845 
L 302.783004 -79.49253 
L 299.866417 -77.095867 
L 296.94983 -74.930777 
L 294.033243 -72.982021 
L 291.116655 -71.237568 
L 288.200068 -69.688307 
L 285.283481 -68.326821 
L 282.366894 -67.145631 
L 279.450307 -66.135474 
L 276.533719 -65.28407 
L 273.617132 -64.575713 
L 270.700545 -63.991705 
L 267.783958 -63.511539 
L 264.86737 -63.114497 
L 261.950783 -62.781368 
L 259.034196 -62.495934 
L 256.117609 -62.245948 
L 253.201022 -62.023421 
L 250.284434 -61.824123 
L 247.367847 -61.646377 
L 244.45126 -61.489408 
L 241.534673 -61.351666 
L 238.618085 -61.229616 
L 235.701498 -61.117402 
L 232.784911 -61.007508 
L 229.868324 -60.892261 
L 226.951736 -60.765658 
L 224.035149 -60.624917 
L 221.118562 -60.471231 
L 218.201975 -60.309487 
L 215.285388 -60.147071 
L 212.3688 -59.992166 
L 209.452213 -59.852056 
L 206.535626 -59.731883 
L 203.619039 -59.634082 
L 200.702451 -59.558494 
L 197.785864 -59.502964 
L 194.869277 -59.464153 
L 191.95269 -59.438325 
L 189.036102 -59.421949 
L 186.119515 -59.412048 
z
" style="stroke: #ff7f0e"/>
    </defs>
    <g clip-path="url(#pc386313804)">
     <use xlink:href="#m54f66e13d4" x="0" y="540" style="fill: #ff7f0e; fill-opacity: 0.25; stroke: #ff7f0e"/>
    </g>
   </g>
   <g id="FillBetweenPolyCollection_2">
    <defs>
     <path id="m9588a8db97" d="M 173.045455 -59.414961 
L 173.045455 -59.4 
L 176.869118 -59.4 
L 180.692782 -59.4 
L 184.516446 -59.4 
L 188.34011 -59.4 
L 192.163773 -59.4 
L 195.987437 -59.4 
L 199.811101 -59.4 
L 203.634765 -59.4 
L 207.458429 -59.4 
L 211.282092 -59.4 
L 215.105756 -59.4 
L 218.92942 -59.4 
L 222.753084 -59.4 
L 226.576747 -59.4 
L 230.400411 -59.4 
L 234.224075 -59.4 
L 238.047739 -59.4 
L 241.871402 -59.4 
L 245.695066 -59.4 
L 249.51873 -59.4 
L 253.342394 -59.4 
L 257.166058 -59.4 
L 260.989721 -59.4 
L 264.813385 -59.4 
L 268.637049 -59.4 
L 272.460713 -59.4 
L 276.284376 -59.4 
L 280.10804 -59.4 
L 283.931704 -59.4 
L 287.755368 -59.4 
L 291.579032 -59.4 
L 295.402695 -59.4 
L 299.226359 -59.4 
L 303.050023 -59.4 
L 306.873687 -59.4 
L 310.69735 -59.4 
L 314.521014 -59.4 
L 318.344678 -59.4 
L 322.168342 -59.4 
L 325.992005 -59.4 
L 329.815669 -59.4 
L 333.639333 -59.4 
L 337.462997 -59.4 
L 341.286661 -59.4 
L 345.110324 -59.4 
L 348.933988 -59.4 
L 352.757652 -59.4 
L 356.581316 -59.4 
L 360.404979 -59.4 
L 364.228643 -59.4 
L 368.052307 -59.4 
L 371.875971 -59.4 
L 375.699635 -59.4 
L 379.523298 -59.4 
L 383.346962 -59.4 
L 387.170626 -59.4 
L 390.99429 -59.4 
L 394.817953 -59.4 
L 398.641617 -59.4 
L 402.465281 -59.4 
L 406.288945 -59.4 
L 410.112608 -59.4 
L 413.936272 -59.4 
L 417.759936 -59.4 
L 421.5836 -59.4 
L 425.407264 -59.4 
L 429.230927 -59.4 
L 433.054591 -59.4 
L 436.878255 -59.4 
L 440.701919 -59.4 
L 444.525582 -59.4 
L 448.349246 -59.4 
L 452.17291 -59.4 
L 455.996574 -59.4 
L 459.820238 -59.4 
L 463.643901 -59.4 
L 467.467565 -59.4 
L 471.291229 -59.4 
L 475.114893 -59.4 
L 478.938556 -59.4 
L 482.76222 -59.4 
L 486.585884 -59.4 
L 490.409548 -59.4 
L 494.233212 -59.4 
L 498.056875 -59.4 
L 501.880539 -59.4 
L 505.704203 -59.4 
L 509.527867 -59.4 
L 513.35153 -59.4 
L 517.175194 -59.4 
L 520.998858 -59.4 
L 524.822522 -59.4 
L 528.646185 -59.4 
L 532.469849 -59.4 
L 536.293513 -59.4 
L 540.117177 -59.4 
L 543.940841 -59.4 
L 547.764504 -59.4 
L 551.588168 -59.4 
L 555.411832 -59.4 
L 559.235496 -59.4 
L 563.059159 -59.4 
L 566.882823 -59.4 
L 570.706487 -59.4 
L 574.530151 -59.4 
L 578.353815 -59.4 
L 582.177478 -59.4 
L 586.001142 -59.4 
L 589.824806 -59.4 
L 593.64847 -59.4 
L 597.472133 -59.4 
L 601.295797 -59.4 
L 605.119461 -59.4 
L 608.943125 -59.4 
L 612.766788 -59.4 
L 616.590452 -59.4 
L 620.414116 -59.4 
L 624.23778 -59.4 
L 628.061444 -59.4 
L 631.885107 -59.4 
L 635.708771 -59.4 
L 639.532435 -59.4 
L 643.356099 -59.4 
L 647.179762 -59.4 
L 651.003426 -59.4 
L 654.82709 -59.4 
L 658.650754 -59.4 
L 662.474418 -59.4 
L 666.298081 -59.4 
L 670.121745 -59.4 
L 673.945409 -59.4 
L 677.769073 -59.4 
L 681.592736 -59.4 
L 685.4164 -59.4 
L 689.240064 -59.4 
L 693.063728 -59.4 
L 696.887392 -59.4 
L 700.711055 -59.4 
L 704.534719 -59.4 
L 708.358383 -59.4 
L 712.182047 -59.4 
L 716.00571 -59.4 
L 719.829374 -59.4 
L 723.653038 -59.4 
L 727.476702 -59.4 
L 731.300365 -59.4 
L 735.124029 -59.4 
L 738.947693 -59.4 
L 742.771357 -59.4 
L 746.595021 -59.4 
L 750.418684 -59.4 
L 754.242348 -59.4 
L 758.066012 -59.4 
L 761.889676 -59.4 
L 765.713339 -59.4 
L 769.537003 -59.4 
L 773.360667 -59.4 
L 777.184331 -59.4 
L 781.007995 -59.4 
L 784.831658 -59.4 
L 788.655322 -59.4 
L 792.478986 -59.4 
L 796.30265 -59.4 
L 800.126313 -59.4 
L 803.949977 -59.4 
L 807.773641 -59.4 
L 811.597305 -59.4 
L 815.420968 -59.4 
L 819.244632 -59.4 
L 823.068296 -59.4 
L 826.89196 -59.4 
L 830.715624 -59.4 
L 834.539287 -59.4 
L 838.362951 -59.4 
L 842.186615 -59.4 
L 846.010279 -59.4 
L 849.833942 -59.4 
L 853.657606 -59.4 
L 857.48127 -59.4 
L 861.304934 -59.4 
L 865.128598 -59.4 
L 868.952261 -59.4 
L 872.775925 -59.4 
L 876.599589 -59.4 
L 880.423253 -59.4 
L 884.246916 -59.4 
L 888.07058 -59.4 
L 891.894244 -59.4 
L 895.717908 -59.4 
L 899.541571 -59.4 
L 903.365235 -59.4 
L 907.188899 -59.4 
L 911.012563 -59.4 
L 914.836227 -59.4 
L 918.65989 -59.4 
L 922.483554 -59.4 
L 926.307218 -59.4 
L 930.130882 -59.4 
L 933.954545 -59.4 
L 933.954545 -59.414961 
L 933.954545 -59.414961 
L 930.130882 -59.438884 
L 926.307218 -59.490193 
L 922.483554 -59.586699 
L 918.65989 -59.744895 
L 914.836227 -59.968598 
L 911.012563 -60.236576 
L 907.188899 -60.498514 
L 903.365235 -60.687579 
L 899.541571 -60.747846 
L 895.717908 -60.662374 
L 891.894244 -60.464287 
L 888.07058 -60.22392 
L 884.246916 -60.021097 
L 880.423253 -59.918628 
L 876.599589 -59.946783 
L 872.775925 -60.098225 
L 868.952261 -60.330151 
L 865.128598 -60.575246 
L 861.304934 -60.765343 
L 857.48127 -60.863931 
L 853.657606 -60.891562 
L 849.833942 -60.925144 
L 846.010279 -61.065054 
L 842.186615 -61.384975 
L 838.362951 -61.89259 
L 834.539287 -62.524542 
L 830.715624 -63.178862 
L 826.89196 -63.765749 
L 823.068296 -64.24844 
L 819.244632 -64.655815 
L 815.420968 -65.067956 
L 811.597305 -65.58879 
L 807.773641 -66.318771 
L 803.949977 -67.332391 
L 800.126313 -68.661605 
L 796.30265 -70.289893 
L 792.478986 -72.165582 
L 788.655322 -74.237712 
L 784.831658 -76.502776 
L 781.007995 -79.038579 
L 777.184331 -82.007418 
L 773.360667 -85.632827 
L 769.537003 -90.169577 
L 765.713339 -95.877403 
L 761.889676 -102.988192 
L 758.066012 -111.657463 
L 754.242348 -121.92241 
L 750.418684 -133.711522 
L 746.595021 -146.919267 
L 742.771357 -161.487479 
L 738.947693 -177.402072 
L 735.124029 -194.580218 
L 731.300365 -212.746426 
L 727.476702 -231.450096 
L 723.653038 -250.279469 
L 719.829374 -269.141288 
L 716.00571 -288.372407 
L 712.182047 -308.543414 
L 708.358383 -330.041418 
L 704.534719 -352.688952 
L 700.711055 -375.631495 
L 696.887392 -397.54436 
L 693.063728 -417.02417 
L 689.240064 -432.960045 
L 685.4164 -444.730082 
L 681.592736 -452.174797 
L 677.769073 -455.4 
L 673.945409 -454.525236 
L 670.121745 -449.505859 
L 666.298081 -440.116208 
L 662.474418 -426.103944 
L 658.650754 -407.440721 
L 654.82709 -384.539504 
L 651.003426 -358.321469 
L 647.179762 -330.100417 
L 643.356099 -301.354209 
L 639.532435 -273.490947 
L 635.708771 -247.672944 
L 631.885107 -224.697417 
L 628.061444 -204.918029 
L 624.23778 -188.222803 
L 620.414116 -174.104569 
L 616.590452 -161.833233 
L 612.766788 -150.683499 
L 608.943125 -140.134601 
L 605.119461 -129.969841 
L 601.295797 -120.254498 
L 597.472133 -111.225424 
L 593.64847 -103.152047 
L 589.824806 -96.220335 
L 586.001142 -90.467246 
L 582.177478 -85.773622 
L 578.353815 -81.911313 
L 574.530151 -78.625426 
L 570.706487 -75.715956 
L 566.882823 -73.081565 
L 563.059159 -70.711892 
L 559.235496 -68.645991 
L 555.411832 -66.926099 
L 551.588168 -65.564222 
L 547.764504 -64.525131 
L 543.940841 -63.727932 
L 540.117177 -63.06975 
L 536.293513 -62.465601 
L 532.469849 -61.883698 
L 528.646185 -61.353314 
L 524.822522 -60.938693 
L 520.998858 -60.694205 
L 517.175194 -60.626188 
L 513.35153 -60.68136 
L 509.527867 -60.766702 
L 505.704203 -60.789723 
L 501.880539 -60.69755 
L 498.056875 -60.494243 
L 494.233212 -60.229217 
L 490.409548 -59.967648 
L 486.585884 -59.762934 
L 482.76222 -59.645325 
L 478.938556 -59.626253 
L 475.114893 -59.707068 
L 471.291229 -59.880872 
L 467.467565 -60.12521 
L 463.643901 -60.393952 
L 459.820238 -60.620726 
L 455.996574 -60.73918 
L 452.17291 -60.711353 
L 448.349246 -60.54602 
L 444.525582 -60.293803 
L 440.701919 -60.022107 
L 436.878255 -59.786422 
L 433.054591 -59.614206 
L 429.230927 -59.505967 
L 425.407264 -59.446783 
L 421.5836 -59.418432 
L 417.759936 -59.406481 
L 413.936272 -59.402034 
L 410.112608 -59.400569 
L 406.288945 -59.400142 
L 402.465281 -59.400032 
L 398.641617 -59.400006 
L 394.817953 -59.400001 
L 390.99429 -59.4 
L 387.170626 -59.4 
L 383.346962 -59.4 
L 379.523298 -59.4 
L 375.699635 -59.4 
L 371.875971 -59.4 
L 368.052307 -59.4 
L 364.228643 -59.4 
L 360.404979 -59.4 
L 356.581316 -59.4 
L 352.757652 -59.4 
L 348.933988 -59.4 
L 345.110324 -59.4 
L 341.286661 -59.4 
L 337.462997 -59.4 
L 333.639333 -59.4 
L 329.815669 -59.4 
L 325.992005 -59.4 
L 322.168342 -59.4 
L 318.344678 -59.4 
L 314.521014 -59.4 
L 310.69735 -59.4 
L 306.873687 -59.4 
L 303.050023 -59.4 
L 299.226359 -59.4 
L 295.402695 -59.4 
L 291.579032 -59.4 
L 287.755368 -59.4 
L 283.931704 -59.4 
L 280.10804 -59.4 
L 276.284376 -59.4 
L 272.460713 -59.4 
L 268.637049 -59.400001 
L 264.813385 -59.400003 
L 260.989721 -59.400016 
L 257.166058 -59.400076 
L 253.342394 -59.400321 
L 249.51873 -59.401203 
L 245.695066 -59.404023 
L 241.871402 -59.412007 
L 238.047739 -59.431978 
L 234.224075 -59.47601 
L 230.400411 -59.561233 
L 226.576747 -59.705219 
L 222.753084 -59.915635 
L 218.92942 -60.177401 
L 215.105756 -60.445973 
L 211.282092 -60.65594 
L 207.458429 -60.745829 
L 203.634765 -60.687015 
L 199.811101 -60.498373 
L 195.987437 -60.236544 
L 192.163773 -59.968592 
L 188.34011 -59.744894 
L 184.516446 -59.586699 
L 180.692782 -59.490193 
L 176.869118 -59.438884 
L 173.045455 -59.414961 
z
" style="stroke: #1f77b4"/>
    </defs>
    <g clip-path="url(#pc386313804)">
     <use xlink:href="#m9588a8db97" x="0" y="540" style="fill: #1f77b4; fill-opacity: 0.25; stroke: #1f77b4"/>
    </g>
   </g>
   <g id="matplotlib.axis_1">
    <g id="xtick_1">
     <g id="line2d_1">
      <defs>
       <path id="mbe08243072" d="M 0 0 
L 0 3.5 
" style="stroke: #000000; stroke-width: 0.8"/>
      </defs>
      <g>
       <use xlink:href="#mbe08243072" x="326.780033" y="480.6" style="stroke: #000000; stroke-width: 0.8"/>
      </g>
     </g>
     <g id="text_1">
      <!-- 1 -->
      <g transform="translate(323.598783 495.198438) scale(0.1 -0.1)">
       <defs>
        <path id="DejaVuSans-31" d="M 794 531 
L 1825 531 
L 1825 4091 
L 703 3866 
L 703 4441 
L 1819 4666 
L 2450 4666 
L 2450 531 
L 3481 531 
L 3481 0 
L 794 0 
L 794 531 
z
" transform="scale(0.015625)"/>
       </defs>
       <use xlink:href="#DejaVuSans-31"/>
      </g>
     </g>
    </g>
    <g id="xtick_2">
     <g id="line2d_2">
      <g>
       <use xlink:href="#mbe08243072" x="386.94023" y="480.6" style="stroke: #000000; stroke-width: 0.8"/>
      </g>
     </g>
     <g id="text_2">
      <!-- 2 -->
      <g transform="translate(383.75898 495.198438) scale(0.1 -0.1)">
       <defs>
        <path id="DejaVuSans-32" d="M 1228 531 
L 3431 531 
L 3431 0 
L 469 0 
L 469 531 
Q 828 903 1448 1529 
Q 2069 2156 2228 2338 
Q 2531 2678 2651 2914 
Q 2772 3150 2772 3378 
Q 2772 3750 2511 3984 
Q 2250 4219 1831 4219 
Q 1534 4219 1204 4116 
Q 875 4013 500 3803 
L 500 4441 
Q 881 4594 1212 4672 
Q 1544 4750 1819 4750 
Q 2544 4750 2975 4387 
Q 3406 4025 3406 3419 
Q 3406 3131 3298 2873 
Q 3191 2616 2906 2266 
Q 2828 2175 2409 1742 
Q 1991 1309 1228 531 
z
" transform="scale(0.015625)"/>
       </defs>
       <use xlink:href="#DejaVuSans-32"/>
      </g>
     </g>
    </g>
    <g id="xtick_3">
     <g id="line2d_3">
      <g>
       <use xlink:href="#mbe08243072" x="466.467685" y="480.6" style="stroke: #000000; stroke-width: 0.8"/>
      </g>
     </g>
     <g id="text_3">
      <!-- 5 -->
      <g transform="translate(463.286435 495.198438) scale(0.1 -0.1)">
       <defs>
        <path id="DejaVuSans-35" d="M 691 4666 
L 3169 4666 
L 3169 4134 
L 1269 4134 
L 1269 2991 
Q 1406 3038 1543 3061 
Q 1681 3084 1819 3084 
Q 2600 3084 3056 2656 
Q 3513 2228 3513 1497 
Q 3513 744 3044 326 
Q 2575 -91 1722 -91 
Q 1428 -91 1123 -41 
Q 819 9 494 109 
L 494 744 
Q 775 591 1075 516 
Q 1375 441 1709 441 
Q 2250 441 2565 725 
Q 2881 1009 2881 1497 
Q 2881 1984 2565 2268 
Q 2250 2553 1709 2553 
Q 1456 2553 1204 2497 
Q 953 2441 691 2322 
L 691 4666 
z
" transform="scale(0.015625)"/>
       </defs>
       <use xlink:href="#DejaVuSans-35"/>
      </g>
     </g>
    </g>
    <g id="xtick_4">
     <g id="line2d_4">
      <g>
       <use xlink:href="#mbe08243072" x="526.627882" y="480.6" style="stroke: #000000; stroke-width: 0.8"/>
      </g>
     </g>
     <g id="text_4">
      <!-- 10 -->
      <g transform="translate(520.265382 495.198438) scale(0.1 -0.1)">
       <defs>
        <path id="DejaVuSans-30" d="M 2034 4250 
Q 1547 4250 1301 3770 
Q 1056 3291 1056 2328 
Q 1056 1369 1301 889 
Q 1547 409 2034 409 
Q 2525 409 2770 889 
Q 3016 1369 3016 2328 
Q 3016 3291 2770 3770 
Q 2525 4250 2034 4250 
z
M 2034 4750 
Q 2819 4750 3233 4129 
Q 3647 3509 3647 2328 
Q 3647 1150 3233 529 
Q 2819 -91 2034 -91 
Q 1250 -91 836 529 
Q 422 1150 422 2328 
Q 422 3509 836 4129 
Q 1250 4750 2034 4750 
z
" transform="scale(0.015625)"/>
       </defs>
       <use xlink:href="#DejaVuSans-31"/>
       <use xlink:href="#DejaVuSans-30" transform="translate(63.623047 0)"/>
      </g>
     </g>
    </g>
    <g id="xtick_5">
     <g id="line2d_5">
      <g>
       <use xlink:href="#mbe08243072" x="586.788079" y="480.6" style="stroke: #000000; stroke-width: 0.8"/>
      </g>
     </g>
     <g id="text_5">
      <!-- 20 -->
      <g transform="translate(580.425579 495.198438) scale(0.1 -0.1)">
       <use xlink:href="#DejaVuSans-32"/>
       <use xlink:href="#DejaVuSans-30" transform="translate(63.623047 0)"/>
      </g>
     </g>
    </g>
    <g id="xtick_6">
     <g id="line2d_6">
      <g>
       <use xlink:href="#mbe08243072" x="666.315534" y="480.6" style="stroke: #000000; stroke-width: 0.8"/>
      </g>
     </g>
     <g id="text_6">
      <!-- 50 -->
      <g transform="translate(659.953034 495.198438) scale(0.1 -0.1)">
       <use xlink:href="#DejaVuSans-35"/>
       <use xlink:href="#DejaVuSans-30" transform="translate(63.623047 0)"/>
      </g>
     </g>
    </g>
    <g id="xtick_7">
     <g id="line2d_7">
      <g>
       <use xlink:href="#mbe08243072" x="726.47573" y="480.6" style="stroke: #000000; stroke-width: 0.8"/>
      </g>
     </g>
     <g id="text_7">
      <!-- 100 -->
      <g transform="translate(716.93198 495.198438) scale(0.1 -0.1)">
       <use xlink:href="#DejaVuSans-31"/>
       <use xlink:href="#DejaVuSans-30" transform="translate(63.623047 0)"/>
       <use xlink:href="#DejaVuSans-30" transform="translate(127.246094 0)"/>
      </g>
     </g>
    </g>
    <g id="xtick_8">
     <g id="line2d_8">
      <g>
       <use xlink:href="#mbe08243072" x="786.635927" y="480.6" style="stroke: #000000; stroke-width: 0.8"/>
      </g>
     </g>
     <g id="text_8">
      <!-- 200 -->
      <g transform="translate(777.092177 495.198438) scale(0.1 -0.1)">
       <use xlink:href="#DejaVuSans-32"/>
       <use xlink:href="#DejaVuSans-30" transform="translate(63.623047 0)"/>
       <use xlink:href="#DejaVuSans-30" transform="translate(127.246094 0)"/>
      </g>
     </g>
    </g>
    <g id="xtick_9">
     <g id="line2d_9">
      <g>
       <use xlink:href="#mbe08243072" x="866.163382" y="480.6" style="stroke: #000000; stroke-width: 0.8"/>
      </g>
     </g>
     <g id="text_9">
      <!-- 500 -->
      <g transform="translate(856.619632 495.198438) scale(0.1 -0.1)">
       <use xlink:href="#DejaVuSans-35"/>
       <use xlink:href="#DejaVuSans-30" transform="translate(63.623047 0)"/>
       <use xlink:href="#DejaVuSans-30" transform="translate(127.246094 0)"/>
      </g>
     </g>
    </g>
    <g id="xtick_10">
     <g id="line2d_10">
      <g>
       <use xlink:href="#mbe08243072" x="926.323579" y="480.6" style="stroke: #000000; stroke-width: 0.8"/>
      </g>
     </g>
     <g id="text_10">
      <!-- 1000 -->
      <g transform="translate(913.598579 495.198438) scale(0.1 -0.1)">
       <use xlink:href="#DejaVuSans-31"/>
       <use xlink:href="#DejaVuSans-30" transform="translate(63.623047 0)"/>
       <use xlink:href="#DejaVuSans-30" transform="translate(127.246094 0)"/>
       <use xlink:href="#DejaVuSans-30" transform="translate(190.869141 0)"/>
      </g>
     </g>
    </g>
    <g id="xtick_11">
     <g id="line2d_11">
      <defs>
       <path id="m6f54baac10" d="M 0 0 
L 0 2 
" style="stroke: #000000; stroke-width: 0.6"/>
      </defs>
      <g>
       <use xlink:href="#m6f54baac10" x="187.092382" y="480.6" style="stroke: #000000; stroke-width: 0.6"/>
      </g>
     </g>
    </g>
    <g id="xtick_12">
     <g id="line2d_12">
      <g>
       <use xlink:href="#m6f54baac10" x="222.283841" y="480.6" style="stroke: #000000; stroke-width: 0.6"/>
      </g>
     </g>
    </g>
    <g id="xtick_13">
     <g id="line2d_13">
      <g>
       <use xlink:href="#m6f54baac10" x="247.252579" y="480.6" style="stroke: #000000; stroke-width: 0.6"/>
      </g>
     </g>
    </g>
    <g id="xtick_14">
     <g id="line2d_14">
      <g>
       <use xlink:href="#m6f54baac10" x="266.619836" y="480.6" style="stroke: #000000; stroke-width: 0.6"/>
      </g>
     </g>
    </g>
    <g id="xtick_15">
     <g id="line2d_15">
      <g>
       <use xlink:href="#m6f54baac10" x="282.444038" y="480.6" style="stroke: #000000; stroke-width: 0.6"/>
      </g>
     </g>
    </g>
    <g id="xtick_16">
     <g id="line2d_16">
      <g>
       <use xlink:href="#m6f54baac10" x="295.82321" y="480.6" style="stroke: #000000; stroke-width: 0.6"/>
      </g>
     </g>
    </g>
    <g id="xtick_17">
     <g id="line2d_17">
      <g>
       <use xlink:href="#m6f54baac10" x="307.412776" y="480.6" style="stroke: #000000; stroke-width: 0.6"/>
      </g>
     </g>
    </g>
    <g id="xtick_18">
     <g id="line2d_18">
      <g>
       <use xlink:href="#m6f54baac10" x="317.635497" y="480.6" style="stroke: #000000; stroke-width: 0.6"/>
      </g>
     </g>
    </g>
    <g id="xtick_19">
     <g id="line2d_19">
      <g>
       <use xlink:href="#m6f54baac10" x="422.13169" y="480.6" style="stroke: #000000; stroke-width: 0.6"/>
      </g>
     </g>
    </g>
    <g id="xtick_20">
     <g id="line2d_20">
      <g>
       <use xlink:href="#m6f54baac10" x="447.100427" y="480.6" style="stroke: #000000; stroke-width: 0.6"/>
      </g>
     </g>
    </g>
    <g id="xtick_21">
     <g id="line2d_21">
      <g>
       <use xlink:href="#m6f54baac10" x="482.291887" y="480.6" style="stroke: #000000; stroke-width: 0.6"/>
      </g>
     </g>
    </g>
    <g id="xtick_22">
     <g id="line2d_22">
      <g>
       <use xlink:href="#m6f54baac10" x="495.671058" y="480.6" style="stroke: #000000; stroke-width: 0.6"/>
      </g>
     </g>
    </g>
    <g id="xtick_23">
     <g id="line2d_23">
      <g>
       <use xlink:href="#m6f54baac10" x="507.260624" y="480.6" style="stroke: #000000; stroke-width: 0.6"/>
      </g>
     </g>
    </g>
    <g id="xtick_24">
     <g id="line2d_24">
      <g>
       <use xlink:href="#m6f54baac10" x="517.483346" y="480.6" style="stroke: #000000; stroke-width: 0.6"/>
      </g>
     </g>
    </g>
    <g id="xtick_25">
     <g id="line2d_25">
      <g>
       <use xlink:href="#m6f54baac10" x="621.979538" y="480.6" style="stroke: #000000; stroke-width: 0.6"/>
      </g>
     </g>
    </g>
    <g id="xtick_26">
     <g id="line2d_26">
      <g>
       <use xlink:href="#m6f54baac10" x="646.948276" y="480.6" style="stroke: #000000; stroke-width: 0.6"/>
      </g>
     </g>
    </g>
    <g id="xtick_27">
     <g id="line2d_27">
      <g>
       <use xlink:href="#m6f54baac10" x="682.139735" y="480.6" style="stroke: #000000; stroke-width: 0.6"/>
      </g>
     </g>
    </g>
    <g id="xtick_28">
     <g id="line2d_28">
      <g>
       <use xlink:href="#m6f54baac10" x="695.518907" y="480.6" style="stroke: #000000; stroke-width: 0.6"/>
      </g>
     </g>
    </g>
    <g id="xtick_29">
     <g id="line2d_29">
      <g>
       <use xlink:href="#m6f54baac10" x="707.108473" y="480.6" style="stroke: #000000; stroke-width: 0.6"/>
      </g>
     </g>
    </g>
    <g id="xtick_30">
     <g id="line2d_30">
      <g>
       <use xlink:href="#m6f54baac10" x="717.331194" y="480.6" style="stroke: #000000; stroke-width: 0.6"/>
      </g>
     </g>
    </g>
    <g id="xtick_31">
     <g id="line2d_31">
      <g>
       <use xlink:href="#m6f54baac10" x="821.827387" y="480.6" style="stroke: #000000; stroke-width: 0.6"/>
      </g>
     </g>
    </g>
    <g id="xtick_32">
     <g id="line2d_32">
      <g>
       <use xlink:href="#m6f54baac10" x="846.796124" y="480.6" style="stroke: #000000; stroke-width: 0.6"/>
      </g>
     </g>
    </g>
    <g id="xtick_33">
     <g id="line2d_33">
      <g>
       <use xlink:href="#m6f54baac10" x="881.987584" y="480.6" style="stroke: #000000; stroke-width: 0.6"/>
      </g>
     </g>
    </g>
    <g id="xtick_34">
     <g id="line2d_34">
      <g>
       <use xlink:href="#m6f54baac10" x="895.366756" y="480.6" style="stroke: #000000; stroke-width: 0.6"/>
      </g>
     </g>
    </g>
    <g id="xtick_35">
     <g id="line2d_35">
      <g>
       <use xlink:href="#m6f54baac10" x="906.956321" y="480.6" style="stroke: #000000; stroke-width: 0.6"/>
      </g>
     </g>
    </g>
    <g id="xtick_36">
     <g id="line2d_36">
      <g>
       <use xlink:href="#m6f54baac10" x="917.179043" y="480.6" style="stroke: #000000; stroke-width: 0.6"/>
      </g>
     </g>
    </g>
    <g id="text_11">
     <!-- Income or consumption (day) -->
     <g transform="translate(479.746875 508.876563) scale(0.1 -0.1)">
      <defs>
       <path id="DejaVuSans-49" d="M 628 4666 
L 1259 4666 
L 1259 0 
L 628 0 
L 628 4666 
z
" transform="scale(0.015625)"/>
       <path id="DejaVuSans-6e" d="M 3513 2113 
L 3513 0 
L 2938 0 
L 2938 2094 
Q 2938 2591 2744 2837 
Q 2550 3084 2163 3084 
Q 1697 3084 1428 2787 
Q 1159 2491 1159 1978 
L 1159 0 
L 581 0 
L 581 3500 
L 1159 3500 
L 1159 2956 
Q 1366 3272 1645 3428 
Q 1925 3584 2291 3584 
Q 2894 3584 3203 3211 
Q 3513 2838 3513 2113 
z
" transform="scale(0.015625)"/>
       <path id="DejaVuSans-63" d="M 3122 3366 
L 3122 2828 
Q 2878 2963 2633 3030 
Q 2388 3097 2138 3097 
Q 1578 3097 1268 2742 
Q 959 2388 959 1747 
Q 959 1106 1268 751 
Q 1578 397 2138 397 
Q 2388 397 2633 464 
Q 2878 531 3122 666 
L 3122 134 
Q 2881 22 2623 -34 
Q 2366 -91 2075 -91 
Q 1284 -91 818 406 
Q 353 903 353 1747 
Q 353 2603 823 3093 
Q 1294 3584 2113 3584 
Q 2378 3584 2631 3529 
Q 2884 3475 3122 3366 
z
" transform="scale(0.015625)"/>
       <path id="DejaVuSans-6f" d="M 1959 3097 
Q 1497 3097 1228 2736 
Q 959 2375 959 1747 
Q 959 1119 1226 758 
Q 1494 397 1959 397 
Q 2419 397 2687 759 
Q 2956 1122 2956 1747 
Q 2956 2369 2687 2733 
Q 2419 3097 1959 3097 
z
M 1959 3584 
Q 2709 3584 3137 3096 
Q 3566 2609 3566 1747 
Q 3566 888 3137 398 
Q 2709 -91 1959 -91 
Q 1206 -91 779 398 
Q 353 888 353 1747 
Q 353 2609 779 3096 
Q 1206 3584 1959 3584 
z
" transform="scale(0.015625)"/>
       <path id="DejaVuSans-6d" d="M 3328 2828 
Q 3544 3216 3844 3400 
Q 4144 3584 4550 3584 
Q 5097 3584 5394 3201 
Q 5691 2819 5691 2113 
L 5691 0 
L 5113 0 
L 5113 2094 
Q 5113 2597 4934 2840 
Q 4756 3084 4391 3084 
Q 3944 3084 3684 2787 
Q 3425 2491 3425 1978 
L 3425 0 
L 2847 0 
L 2847 2094 
Q 2847 2600 2669 2842 
Q 2491 3084 2119 3084 
Q 1678 3084 1418 2786 
Q 1159 2488 1159 1978 
L 1159 0 
L 581 0 
L 581 3500 
L 1159 3500 
L 1159 2956 
Q 1356 3278 1631 3431 
Q 1906 3584 2284 3584 
Q 2666 3584 2933 3390 
Q 3200 3197 3328 2828 
z
" transform="scale(0.015625)"/>
       <path id="DejaVuSans-65" d="M 3597 1894 
L 3597 1613 
L 953 1613 
Q 991 1019 1311 708 
Q 1631 397 2203 397 
Q 2534 397 2845 478 
Q 3156 559 3463 722 
L 3463 178 
Q 3153 47 2828 -22 
Q 2503 -91 2169 -91 
Q 1331 -91 842 396 
Q 353 884 353 1716 
Q 353 2575 817 3079 
Q 1281 3584 2069 3584 
Q 2775 3584 3186 3129 
Q 3597 2675 3597 1894 
z
M 3022 2063 
Q 3016 2534 2758 2815 
Q 2500 3097 2075 3097 
Q 1594 3097 1305 2825 
Q 1016 2553 972 2059 
L 3022 2063 
z
" transform="scale(0.015625)"/>
       <path id="DejaVuSans-20" transform="scale(0.015625)"/>
       <path id="DejaVuSans-72" d="M 2631 2963 
Q 2534 3019 2420 3045 
Q 2306 3072 2169 3072 
Q 1681 3072 1420 2755 
Q 1159 2438 1159 1844 
L 1159 0 
L 581 0 
L 581 3500 
L 1159 3500 
L 1159 2956 
Q 1341 3275 1631 3429 
Q 1922 3584 2338 3584 
Q 2397 3584 2469 3576 
Q 2541 3569 2628 3553 
L 2631 2963 
z
" transform="scale(0.015625)"/>
       <path id="DejaVuSans-73" d="M 2834 3397 
L 2834 2853 
Q 2591 2978 2328 3040 
Q 2066 3103 1784 3103 
Q 1356 3103 1142 2972 
Q 928 2841 928 2578 
Q 928 2378 1081 2264 
Q 1234 2150 1697 2047 
L 1894 2003 
Q 2506 1872 2764 1633 
Q 3022 1394 3022 966 
Q 3022 478 2636 193 
Q 2250 -91 1575 -91 
Q 1294 -91 989 -36 
Q 684 19 347 128 
L 347 722 
Q 666 556 975 473 
Q 1284 391 1588 391 
Q 1994 391 2212 530 
Q 2431 669 2431 922 
Q 2431 1156 2273 1281 
Q 2116 1406 1581 1522 
L 1381 1569 
Q 847 1681 609 1914 
Q 372 2147 372 2553 
Q 372 3047 722 3315 
Q 1072 3584 1716 3584 
Q 2034 3584 2315 3537 
Q 2597 3491 2834 3397 
z
" transform="scale(0.015625)"/>
       <path id="DejaVuSans-75" d="M 544 1381 
L 544 3500 
L 1119 3500 
L 1119 1403 
Q 1119 906 1312 657 
Q 1506 409 1894 409 
Q 2359 409 2629 706 
Q 2900 1003 2900 1516 
L 2900 3500 
L 3475 3500 
L 3475 0 
L 2900 0 
L 2900 538 
Q 2691 219 2414 64 
Q 2138 -91 1772 -91 
Q 1169 -91 856 284 
Q 544 659 544 1381 
z
M 1991 3584 
L 1991 3584 
z
" transform="scale(0.015625)"/>
       <path id="DejaVuSans-70" d="M 1159 525 
L 1159 -1331 
L 581 -1331 
L 581 3500 
L 1159 3500 
L 1159 2969 
Q 1341 3281 1617 3432 
Q 1894 3584 2278 3584 
Q 2916 3584 3314 3078 
Q 3713 2572 3713 1747 
Q 3713 922 3314 415 
Q 2916 -91 2278 -91 
Q 1894 -91 1617 61 
Q 1341 213 1159 525 
z
M 3116 1747 
Q 3116 2381 2855 2742 
Q 2594 3103 2138 3103 
Q 1681 3103 1420 2742 
Q 1159 2381 1159 1747 
Q 1159 1113 1420 752 
Q 1681 391 2138 391 
Q 2594 391 2855 752 
Q 3116 1113 3116 1747 
z
" transform="scale(0.015625)"/>
       <path id="DejaVuSans-74" d="M 1172 4494 
L 1172 3500 
L 2356 3500 
L 2356 3053 
L 1172 3053 
L 1172 1153 
Q 1172 725 1289 603 
Q 1406 481 1766 481 
L 2356 481 
L 2356 0 
L 1766 0 
Q 1100 0 847 248 
Q 594 497 594 1153 
L 594 3053 
L 172 3053 
L 172 3500 
L 594 3500 
L 594 4494 
L 1172 4494 
z
" transform="scale(0.015625)"/>
       <path id="DejaVuSans-69" d="M 603 3500 
L 1178 3500 
L 1178 0 
L 603 0 
L 603 3500 
z
M 603 4863 
L 1178 4863 
L 1178 4134 
L 603 4134 
L 603 4863 
z
" transform="scale(0.015625)"/>
       <path id="DejaVuSans-28" d="M 1984 4856 
Q 1566 4138 1362 3434 
Q 1159 2731 1159 2009 
Q 1159 1288 1364 580 
Q 1569 -128 1984 -844 
L 1484 -844 
Q 1016 -109 783 600 
Q 550 1309 550 2009 
Q 550 2706 781 3412 
Q 1013 4119 1484 4856 
L 1984 4856 
z
" transform="scale(0.015625)"/>
       <path id="DejaVuSans-64" d="M 2906 2969 
L 2906 4863 
L 3481 4863 
L 3481 0 
L 2906 0 
L 2906 525 
Q 2725 213 2448 61 
Q 2172 -91 1784 -91 
Q 1150 -91 751 415 
Q 353 922 353 1747 
Q 353 2572 751 3078 
Q 1150 3584 1784 3584 
Q 2172 3584 2448 3432 
Q 2725 3281 2906 2969 
z
M 947 1747 
Q 947 1113 1208 752 
Q 1469 391 1925 391 
Q 2381 391 2643 752 
Q 2906 1113 2906 1747 
Q 2906 2381 2643 2742 
Q 2381 3103 1925 3103 
Q 1469 3103 1208 2742 
Q 947 2381 947 1747 
z
" transform="scale(0.015625)"/>
       <path id="DejaVuSans-61" d="M 2194 1759 
Q 1497 1759 1228 1600 
Q 959 1441 959 1056 
Q 959 750 1161 570 
Q 1363 391 1709 391 
Q 2188 391 2477 730 
Q 2766 1069 2766 1631 
L 2766 1759 
L 2194 1759 
z
M 3341 1997 
L 3341 0 
L 2766 0 
L 2766 531 
Q 2569 213 2275 61 
Q 1981 -91 1556 -91 
Q 1019 -91 701 211 
Q 384 513 384 1019 
Q 384 1609 779 1909 
Q 1175 2209 1959 2209 
L 2766 2209 
L 2766 2266 
Q 2766 2663 2505 2880 
Q 2244 3097 1772 3097 
Q 1472 3097 1187 3025 
Q 903 2953 641 2809 
L 641 3341 
Q 956 3463 1253 3523 
Q 1550 3584 1831 3584 
Q 2591 3584 2966 3190 
Q 3341 2797 3341 1997 
z
" transform="scale(0.015625)"/>
       <path id="DejaVuSans-79" d="M 2059 -325 
Q 1816 -950 1584 -1140 
Q 1353 -1331 966 -1331 
L 506 -1331 
L 506 -850 
L 844 -850 
Q 1081 -850 1212 -737 
Q 1344 -625 1503 -206 
L 1606 56 
L 191 3500 
L 800 3500 
L 1894 763 
L 2988 3500 
L 3597 3500 
L 2059 -325 
z
" transform="scale(0.015625)"/>
       <path id="DejaVuSans-29" d="M 513 4856 
L 1013 4856 
Q 1481 4119 1714 3412 
Q 1947 2706 1947 2009 
Q 1947 1309 1714 600 
Q 1481 -109 1013 -844 
L 513 -844 
Q 928 -128 1133 580 
Q 1338 1288 1338 2009 
Q 1338 2731 1133 3434 
Q 928 4138 513 4856 
z
" transform="scale(0.015625)"/>
      </defs>
      <use xlink:href="#DejaVuSans-49"/>
      <use xlink:href="#DejaVuSans-6e" transform="translate(29.492188 0)"/>
      <use xlink:href="#DejaVuSans-63" transform="translate(92.871094 0)"/>
      <use xlink:href="#DejaVuSans-6f" transform="translate(147.851562 0)"/>
      <use xlink:href="#DejaVuSans-6d" transform="translate(209.033203 0)"/>
      <use xlink:href="#DejaVuSans-65" transform="translate(306.445312 0)"/>
      <use xlink:href="#DejaVuSans-20" transform="translate(367.96875 0)"/>
      <use xlink:href="#DejaVuSans-6f" transform="translate(399.755859 0)"/>
      <use xlink:href="#DejaVuSans-72" transform="translate(460.9375 0)"/>
      <use xlink:href="#DejaVuSans-20" transform="translate(502.050781 0)"/>
      <use xlink:href="#DejaVuSans-63" transform="translate(533.837891 0)"/>
      <use xlink:href="#DejaVuSans-6f" transform="translate(588.818359 0)"/>
      <use xlink:href="#DejaVuSans-6e" transform="translate(650 0)"/>
      <use xlink:href="#DejaVuSans-73" transform="translate(713.378906 0)"/>
      <use xlink:href="#DejaVuSans-75" transform="translate(765.478516 0)"/>
      <use xlink:href="#DejaVuSans-6d" transform="translate(828.857422 0)"/>
      <use xlink:href="#DejaVuSans-70" transform="translate(926.269531 0)"/>
      <use xlink:href="#DejaVuSans-74" transform="translate(989.746094 0)"/>
      <use xlink:href="#DejaVuSans-69" transform="translate(1028.955078 0)"/>
      <use xlink:href="#DejaVuSans-6f" transform="translate(1056.738281 0)"/>
      <use xlink:href="#DejaVuSans-6e" transform="translate(1117.919922 0)"/>
      <use xlink:href="#DejaVuSans-20" transform="translate(1181.298828 0)"/>
      <use xlink:href="#DejaVuSans-28" transform="translate(1213.085938 0)"/>
      <use xlink:href="#DejaVuSans-64" transform="translate(1252.099609 0)"/>
      <use xlink:href="#DejaVuSans-61" transform="translate(1315.576172 0)"/>
      <use xlink:href="#DejaVuSans-79" transform="translate(1376.855469 0)"/>
      <use xlink:href="#DejaVuSans-29" transform="translate(1436.035156 0)"/>
     </g>
    </g>
   </g>
   <g id="matplotlib.axis_2"/>
   <g id="line2d_37">
    <path d="M 393.217144 480.6 
L 393.217144 64.8 
" clip-path="url(#pc386313804)" style="fill: none; stroke-dasharray: 2.96,1.28; stroke-dashoffset: 0; stroke: #d3d3d3; stroke-width: 0.8"/>
   </g>
   <g id="line2d_38">
    <path d="M 583.175246 480.6 
L 583.175246 64.8 
" clip-path="url(#pc386313804)" style="fill: none; stroke-dasharray: 2.96,1.28; stroke-dashoffset: 0; stroke: #d3d3d3; stroke-width: 0.8"/>
   </g>
   <g id="line2d_39">
    <path d="M 509.931383 480.6 
L 509.931383 64.8 
" clip-path="url(#pc386313804)" style="fill: none; stroke-dasharray: 2.96,1.28; stroke-dashoffset: 0; stroke: #d3d3d3; stroke-width: 0.8"/>
   </g>
   <g id="text_12">
    <!-- International Poverty Line: $2.15 -->
    <g style="fill: #808080" transform="translate(399.295894 200.1605) rotate(-90) scale(0.08 -0.08)">
     <defs>
      <path id="DejaVuSans-6c" d="M 603 4863 
L 1178 4863 
L 1178 0 
L 603 0 
L 603 4863 
z
" transform="scale(0.015625)"/>
      <path id="DejaVuSans-50" d="M 1259 4147 
L 1259 2394 
L 2053 2394 
Q 2494 2394 2734 2622 
Q 2975 2850 2975 3272 
Q 2975 3691 2734 3919 
Q 2494 4147 2053 4147 
L 1259 4147 
z
M 628 4666 
L 2053 4666 
Q 2838 4666 3239 4311 
Q 3641 3956 3641 3272 
Q 3641 2581 3239 2228 
Q 2838 1875 2053 1875 
L 1259 1875 
L 1259 0 
L 628 0 
L 628 4666 
z
" transform="scale(0.015625)"/>
      <path id="DejaVuSans-76" d="M 191 3500 
L 800 3500 
L 1894 563 
L 2988 3500 
L 3597 3500 
L 2284 0 
L 1503 0 
L 191 3500 
z
" transform="scale(0.015625)"/>
      <path id="DejaVuSans-4c" d="M 628 4666 
L 1259 4666 
L 1259 531 
L 3531 531 
L 3531 0 
L 628 0 
L 628 4666 
z
" transform="scale(0.015625)"/>
      <path id="DejaVuSans-3a" d="M 750 794 
L 1409 794 
L 1409 0 
L 750 0 
L 750 794 
z
M 750 3309 
L 1409 3309 
L 1409 2516 
L 750 2516 
L 750 3309 
z
" transform="scale(0.015625)"/>
      <path id="DejaVuSans-24" d="M 2163 -941 
L 1850 -941 
L 1847 0 
Q 1519 6 1191 76 
Q 863 147 531 288 
L 531 850 
Q 850 650 1176 548 
Q 1503 447 1850 444 
L 1850 1869 
Q 1159 1981 845 2250 
Q 531 2519 531 2988 
Q 531 3497 872 3790 
Q 1213 4084 1850 4128 
L 1850 4863 
L 2163 4863 
L 2163 4138 
Q 2453 4125 2725 4076 
Q 2997 4028 3256 3944 
L 3256 3397 
Q 2997 3528 2723 3600 
Q 2450 3672 2163 3684 
L 2163 2350 
Q 2872 2241 3206 1959 
Q 3541 1678 3541 1191 
Q 3541 663 3186 358 
Q 2831 53 2163 6 
L 2163 -941 
z
M 1850 2406 
L 1850 3688 
Q 1488 3647 1297 3481 
Q 1106 3316 1106 3041 
Q 1106 2772 1282 2622 
Q 1459 2472 1850 2406 
z
M 2163 1806 
L 2163 453 
Q 2559 506 2761 678 
Q 2963 850 2963 1131 
Q 2963 1406 2770 1568 
Q 2578 1731 2163 1806 
z
" transform="scale(0.015625)"/>
      <path id="DejaVuSans-2e" d="M 684 794 
L 1344 794 
L 1344 0 
L 684 0 
L 684 794 
z
" transform="scale(0.015625)"/>
     </defs>
     <use xlink:href="#DejaVuSans-49"/>
     <use xlink:href="#DejaVuSans-6e" transform="translate(29.492188 0)"/>
     <use xlink:href="#DejaVuSans-74" transform="translate(92.871094 0)"/>
     <use xlink:href="#DejaVuSans-65" transform="translate(132.080078 0)"/>
     <use xlink:href="#DejaVuSans-72" transform="translate(193.603516 0)"/>
     <use xlink:href="#DejaVuSans-6e" transform="translate(232.966797 0)"/>
     <use xlink:href="#DejaVuSans-61" transform="translate(296.345703 0)"/>
     <use xlink:href="#DejaVuSans-74" transform="translate(357.625 0)"/>
     <use xlink:href="#DejaVuSans-69" transform="translate(396.833984 0)"/>
     <use xlink:href="#DejaVuSans-6f" transform="translate(424.617188 0)"/>
     <use xlink:href="#DejaVuSans-6e" transform="translate(485.798828 0)"/>
     <use xlink:href="#DejaVuSans-61" transform="translate(549.177734 0)"/>
     <use xlink:href="#DejaVuSans-6c" transform="translate(610.457031 0)"/>
     <use xlink:href="#DejaVuSans-20" transform="translate(638.240234 0)"/>
     <use xlink:href="#DejaVuSans-50" transform="translate(670.027344 0)"/>
     <use xlink:href="#DejaVuSans-6f" transform="translate(726.705078 0)"/>
     <use xlink:href="#DejaVuSans-76" transform="translate(787.886719 0)"/>
     <use xlink:href="#DejaVuSans-65" transform="translate(847.066406 0)"/>
     <use xlink:href="#DejaVuSans-72" transform="translate(908.589844 0)"/>
     <use xlink:href="#DejaVuSans-74" transform="translate(949.703125 0)"/>
     <use xlink:href="#DejaVuSans-79" transform="translate(988.912109 0)"/>
     <use xlink:href="#DejaVuSans-20" transform="translate(1048.091797 0)"/>
     <use xlink:href="#DejaVuSans-4c" transform="translate(1079.878906 0)"/>
     <use xlink:href="#DejaVuSans-69" transform="translate(1135.591797 0)"/>
     <use xlink:href="#DejaVuSans-6e" transform="translate(1163.375 0)"/>
     <use xlink:href="#DejaVuSans-65" transform="translate(1226.753906 0)"/>
     <use xlink:href="#DejaVuSans-3a" transform="translate(1288.277344 0)"/>
     <use xlink:href="#DejaVuSans-20" transform="translate(1321.96875 0)"/>
     <use xlink:href="#DejaVuSans-24" transform="translate(1353.755859 0)"/>
     <use xlink:href="#DejaVuSans-32" transform="translate(1417.378906 0)"/>
     <use xlink:href="#DejaVuSans-2e" transform="translate(1481.001953 0)"/>
     <use xlink:href="#DejaVuSans-31" transform="translate(1512.789062 0)"/>
     <use xlink:href="#DejaVuSans-35" transform="translate(1576.412109 0)"/>
    </g>
   </g>
   <g id="text_13">
    <!-- World mean: $19.18 -->
    <g style="fill: #808080" transform="translate(589.253996 150.343) rotate(-90) scale(0.08 -0.08)">
     <defs>
      <path id="DejaVuSans-57" d="M 213 4666 
L 850 4666 
L 1831 722 
L 2809 4666 
L 3519 4666 
L 4500 722 
L 5478 4666 
L 6119 4666 
L 4947 0 
L 4153 0 
L 3169 4050 
L 2175 0 
L 1381 0 
L 213 4666 
z
" transform="scale(0.015625)"/>
      <path id="DejaVuSans-39" d="M 703 97 
L 703 672 
Q 941 559 1184 500 
Q 1428 441 1663 441 
Q 2288 441 2617 861 
Q 2947 1281 2994 2138 
Q 2813 1869 2534 1725 
Q 2256 1581 1919 1581 
Q 1219 1581 811 2004 
Q 403 2428 403 3163 
Q 403 3881 828 4315 
Q 1253 4750 1959 4750 
Q 2769 4750 3195 4129 
Q 3622 3509 3622 2328 
Q 3622 1225 3098 567 
Q 2575 -91 1691 -91 
Q 1453 -91 1209 -44 
Q 966 3 703 97 
z
M 1959 2075 
Q 2384 2075 2632 2365 
Q 2881 2656 2881 3163 
Q 2881 3666 2632 3958 
Q 2384 4250 1959 4250 
Q 1534 4250 1286 3958 
Q 1038 3666 1038 3163 
Q 1038 2656 1286 2365 
Q 1534 2075 1959 2075 
z
" transform="scale(0.015625)"/>
      <path id="DejaVuSans-38" d="M 2034 2216 
Q 1584 2216 1326 1975 
Q 1069 1734 1069 1313 
Q 1069 891 1326 650 
Q 1584 409 2034 409 
Q 2484 409 2743 651 
Q 3003 894 3003 1313 
Q 3003 1734 2745 1975 
Q 2488 2216 2034 2216 
z
M 1403 2484 
Q 997 2584 770 2862 
Q 544 3141 544 3541 
Q 544 4100 942 4425 
Q 1341 4750 2034 4750 
Q 2731 4750 3128 4425 
Q 3525 4100 3525 3541 
Q 3525 3141 3298 2862 
Q 3072 2584 2669 2484 
Q 3125 2378 3379 2068 
Q 3634 1759 3634 1313 
Q 3634 634 3220 271 
Q 2806 -91 2034 -91 
Q 1263 -91 848 271 
Q 434 634 434 1313 
Q 434 1759 690 2068 
Q 947 2378 1403 2484 
z
M 1172 3481 
Q 1172 3119 1398 2916 
Q 1625 2713 2034 2713 
Q 2441 2713 2670 2916 
Q 2900 3119 2900 3481 
Q 2900 3844 2670 4047 
Q 2441 4250 2034 4250 
Q 1625 4250 1398 4047 
Q 1172 3844 1172 3481 
z
" transform="scale(0.015625)"/>
     </defs>
     <use xlink:href="#DejaVuSans-57"/>
     <use xlink:href="#DejaVuSans-6f" transform="translate(93.001953 0)"/>
     <use xlink:href="#DejaVuSans-72" transform="translate(154.183594 0)"/>
     <use xlink:href="#DejaVuSans-6c" transform="translate(195.296875 0)"/>
     <use xlink:href="#DejaVuSans-64" transform="translate(223.080078 0)"/>
     <use xlink:href="#DejaVuSans-20" transform="translate(286.556641 0)"/>
     <use xlink:href="#DejaVuSans-6d" transform="translate(318.34375 0)"/>
     <use xlink:href="#DejaVuSans-65" transform="translate(415.755859 0)"/>
     <use xlink:href="#DejaVuSans-61" transform="translate(477.279297 0)"/>
     <use xlink:href="#DejaVuSans-6e" transform="translate(538.558594 0)"/>
     <use xlink:href="#DejaVuSans-3a" transform="translate(601.9375 0)"/>
     <use xlink:href="#DejaVuSans-20" transform="translate(635.628906 0)"/>
     <use xlink:href="#DejaVuSans-24" transform="translate(667.416016 0)"/>
     <use xlink:href="#DejaVuSans-31" transform="translate(731.039062 0)"/>
     <use xlink:href="#DejaVuSans-39" transform="translate(794.662109 0)"/>
     <use xlink:href="#DejaVuSans-2e" transform="translate(858.285156 0)"/>
     <use xlink:href="#DejaVuSans-31" transform="translate(890.072266 0)"/>
     <use xlink:href="#DejaVuSans-38" transform="translate(953.695312 0)"/>
    </g>
   </g>
   <g id="text_14">
    <!-- World median: $8.25 -->
    <g style="fill: #808080" transform="translate(516.010133 152.55425) rotate(-90) scale(0.08 -0.08)">
     <use xlink:href="#DejaVuSans-57"/>
     <use xlink:href="#DejaVuSans-6f" transform="translate(93.001953 0)"/>
     <use xlink:href="#DejaVuSans-72" transform="translate(154.183594 0)"/>
     <use xlink:href="#DejaVuSans-6c" transform="translate(195.296875 0)"/>
     <use xlink:href="#DejaVuSans-64" transform="translate(223.080078 0)"/>
     <use xlink:href="#DejaVuSans-20" transform="translate(286.556641 0)"/>
     <use xlink:href="#DejaVuSans-6d" transform="translate(318.34375 0)"/>
     <use xlink:href="#DejaVuSans-65" transform="translate(415.755859 0)"/>
     <use xlink:href="#DejaVuSans-64" transform="translate(477.279297 0)"/>
     <use xlink:href="#DejaVuSans-69" transform="translate(540.755859 0)"/>
     <use xlink:href="#DejaVuSans-61" transform="translate(568.539062 0)"/>
     <use xlink:href="#DejaVuSans-6e" transform="translate(629.818359 0)"/>
     <use xlink:href="#DejaVuSans-3a" transform="translate(693.197266 0)"/>
     <use xlink:href="#DejaVuSans-20" transform="translate(726.888672 0)"/>
     <use xlink:href="#DejaVuSans-24" transform="translate(758.675781 0)"/>
     <use xlink:href="#DejaVuSans-38" transform="translate(822.298828 0)"/>
     <use xlink:href="#DejaVuSans-2e" transform="translate(885.921875 0)"/>
     <use xlink:href="#DejaVuSans-32" transform="translate(917.708984 0)"/>
     <use xlink:href="#DejaVuSans-35" transform="translate(981.332031 0)"/>
    </g>
   </g>
   <g id="legend_1">
    <g id="patch_3">
     <path d="M 811.6 199.994375 
L 889.560938 199.994375 
Q 891.560938 199.994375 891.560938 197.994375 
L 891.560938 154.96 
Q 891.560938 152.96 889.560938 152.96 
L 811.6 152.96 
Q 809.6 152.96 809.6 154.96 
L 809.6 197.994375 
Q 809.6 199.994375 811.6 199.994375 
z
" style="fill: #ffffff; opacity: 0.8; stroke: #cccccc; stroke-linejoin: miter"/>
    </g>
    <g id="text_15">
     <!-- Country -->
     <g transform="translate(830.717188 164.558437) scale(0.1 -0.1)">
      <defs>
       <path id="DejaVuSans-43" d="M 4122 4306 
L 4122 3641 
Q 3803 3938 3442 4084 
Q 3081 4231 2675 4231 
Q 1875 4231 1450 3742 
Q 1025 3253 1025 2328 
Q 1025 1406 1450 917 
Q 1875 428 2675 428 
Q 3081 428 3442 575 
Q 3803 722 4122 1019 
L 4122 359 
Q 3791 134 3420 21 
Q 3050 -91 2638 -91 
Q 1578 -91 968 557 
Q 359 1206 359 2328 
Q 359 3453 968 4101 
Q 1578 4750 2638 4750 
Q 3056 4750 3426 4639 
Q 3797 4528 4122 4306 
z
" transform="scale(0.015625)"/>
      </defs>
      <use xlink:href="#DejaVuSans-43"/>
      <use xlink:href="#DejaVuSans-6f" transform="translate(69.824219 0)"/>
      <use xlink:href="#DejaVuSans-75" transform="translate(131.005859 0)"/>
      <use xlink:href="#DejaVuSans-6e" transform="translate(194.384766 0)"/>
      <use xlink:href="#DejaVuSans-74" transform="translate(257.763672 0)"/>
      <use xlink:href="#DejaVuSans-72" transform="translate(296.972656 0)"/>
      <use xlink:href="#DejaVuSans-79" transform="translate(338.085938 0)"/>
     </g>
    </g>
    <g id="patch_4">
     <path d="M 813.6 179.236562 
L 833.6 179.236562 
L 833.6 172.236562 
L 813.6 172.236562 
z
" style="fill: #1f77b4; fill-opacity: 0.25; stroke: #1f77b4; stroke-linejoin: miter"/>
    </g>
    <g id="text_16">
     <!-- Denmark -->
     <g transform="translate(841.6 179.236562) scale(0.1 -0.1)">
      <defs>
       <path id="DejaVuSans-44" d="M 1259 4147 
L 1259 519 
L 2022 519 
Q 2988 519 3436 956 
Q 3884 1394 3884 2338 
Q 3884 3275 3436 3711 
Q 2988 4147 2022 4147 
L 1259 4147 
z
M 628 4666 
L 1925 4666 
Q 3281 4666 3915 4102 
Q 4550 3538 4550 2338 
Q 4550 1131 3912 565 
Q 3275 0 1925 0 
L 628 0 
L 628 4666 
z
" transform="scale(0.015625)"/>
       <path id="DejaVuSans-6b" d="M 581 4863 
L 1159 4863 
L 1159 1991 
L 2875 3500 
L 3609 3500 
L 1753 1863 
L 3688 0 
L 2938 0 
L 1159 1709 
L 1159 0 
L 581 0 
L 581 4863 
z
" transform="scale(0.015625)"/>
      </defs>
      <use xlink:href="#DejaVuSans-44"/>
      <use xlink:href="#DejaVuSans-65" transform="translate(77.001953 0)"/>
      <use xlink:href="#DejaVuSans-6e" transform="translate(138.525391 0)"/>
      <use xlink:href="#DejaVuSans-6d" transform="translate(201.904297 0)"/>
      <use xlink:href="#DejaVuSans-61" transform="translate(299.316406 0)"/>
      <use xlink:href="#DejaVuSans-72" transform="translate(360.595703 0)"/>
      <use xlink:href="#DejaVuSans-6b" transform="translate(401.708984 0)"/>
     </g>
    </g>
    <g id="patch_5">
     <path d="M 813.6 193.914688 
L 833.6 193.914688 
L 833.6 186.914688 
L 813.6 186.914688 
z
" style="fill: #ff7f0e; fill-opacity: 0.25; stroke: #ff7f0e; stroke-linejoin: miter"/>
    </g>
    <g id="text_17">
     <!-- Kenya -->
     <g transform="translate(841.6 193.914688) scale(0.1 -0.1)">
      <defs>
       <path id="DejaVuSans-4b" d="M 628 4666 
L 1259 4666 
L 1259 2694 
L 3353 4666 
L 4166 4666 
L 1850 2491 
L 4331 0 
L 3500 0 
L 1259 2247 
L 1259 0 
L 628 0 
L 628 4666 
z
" transform="scale(0.015625)"/>
      </defs>
      <use xlink:href="#DejaVuSans-4b"/>
      <use xlink:href="#DejaVuSans-65" transform="translate(60.576172 0)"/>
      <use xlink:href="#DejaVuSans-6e" transform="translate(122.099609 0)"/>
      <use xlink:href="#DejaVuSans-79" transform="translate(185.478516 0)"/>
      <use xlink:href="#DejaVuSans-61" transform="translate(244.658203 0)"/>
     </g>
    </g>
   </g>
  </g>
 </g>
 <defs>
  <clipPath id="pc386313804">
   <rect x="135" y="64.8" width="837" height="415.8"/>
  </clipPath>
 </defs>
</svg>
