<?xml version="1.0" encoding="utf-8" standalone="no"?>
<!DOCTYPE svg PUBLIC "-//W3C//DTD SVG 1.1//EN"
  "http://www.w3.org/Graphics/SVG/1.1/DTD/svg11.dtd">
<svg xmlns:xlink="http://www.w3.org/1999/xlink" width="852.874159pt" height="282.943437pt" viewBox="0 0 852.874159 282.943437" xmlns="http://www.w3.org/2000/svg" version="1.1">
 <metadata>
  <rdf:RDF xmlns:dc="http://purl.org/dc/elements/1.1/" xmlns:cc="http://creativecommons.org/ns#" xmlns:rdf="http://www.w3.org/1999/02/22-rdf-syntax-ns#">
   <cc:Work>
    <dc:type rdf:resource="http://purl.org/dc/dcmitype/StillImage"/>
    <dc:date>2026-05-29T12:13:56.248677</dc:date>
    <dc:format>image/svg+xml</dc:format>
    <dc:creator>
     <cc:Agent>
      <dc:title>Matplotlib v3.10.9, https://matplotlib.org/</dc:title>
     </cc:Agent>
    </dc:creator>
   </cc:Work>
  </rdf:RDF>
 </metadata>
 <defs>
  <style type="text/css">*{stroke-linejoin: round; stroke-linecap: butt}</style>
 </defs>
 <g id="figure_1">
  <g id="patch_1">
   <path d="M 0 282.943437 
L 852.874159 282.943437 
L 852.874159 0 
L 0 0 
z
" style="fill: #ffffff"/>
  </g>
  <g id="axes_1">
   <g id="patch_2">
    <path d="M 7.2 246.21375 
L 844.2 246.21375 
L 844.2 24.45375 
L 7.2 24.45375 
z
" style="fill: #ffffff"/>
   </g>
   <g id="matplotlib.axis_1">
    <g id="xtick_1">
     <g id="line2d_1">
      <defs>
       <path id="m20ce7075d3" d="M 0 0 
L 0 3.5 
" style="stroke: #262626; stroke-width: 0.8"/>
      </defs>
      <g>
       <use xlink:href="#m20ce7075d3" x="53.457014" y="246.21375" style="fill: #262626; stroke: #262626; stroke-width: 0.8"/>
      </g>
     </g>
     <g id="text_1">
      <text style="font-size: 10px; font-family: 'Arial', 'DejaVu Sans', 'Liberation Sans', 'Bitstream Vera Sans', sans-serif; text-anchor: middle; fill: #262626" x="53.457014" y="260.371562" transform="rotate(-0 53.457014 260.371562)">$20</text>
     </g>
    </g>
    <g id="xtick_2">
     <g id="line2d_2">
      <g>
       <use xlink:href="#m20ce7075d3" x="167.802909" y="246.21375" style="fill: #262626; stroke: #262626; stroke-width: 0.8"/>
      </g>
     </g>
     <g id="text_2">
      <text style="font-size: 10px; font-family: 'Arial', 'DejaVu Sans', 'Liberation Sans', 'Bitstream Vera Sans', sans-serif; text-anchor: middle; fill: #262626" x="167.802909" y="260.371562" transform="rotate(-0 167.802909 260.371562)">$50</text>
     </g>
    </g>
    <g id="xtick_3">
     <g id="line2d_3">
      <g>
       <use xlink:href="#m20ce7075d3" x="254.302238" y="246.21375" style="fill: #262626; stroke: #262626; stroke-width: 0.8"/>
      </g>
     </g>
     <g id="text_3">
      <text style="font-size: 10px; font-family: 'Arial', 'DejaVu Sans', 'Liberation Sans', 'Bitstream Vera Sans', sans-serif; text-anchor: middle; fill: #262626" x="254.302238" y="260.371562" transform="rotate(-0 254.302238 260.371562)">$100</text>
     </g>
    </g>
    <g id="xtick_4">
     <g id="line2d_4">
      <g>
       <use xlink:href="#m20ce7075d3" x="340.801568" y="246.21375" style="fill: #262626; stroke: #262626; stroke-width: 0.8"/>
      </g>
     </g>
     <g id="text_4">
      <text style="font-size: 10px; font-family: 'Arial', 'DejaVu Sans', 'Liberation Sans', 'Bitstream Vera Sans', sans-serif; text-anchor: middle; fill: #262626" x="340.801568" y="260.371562" transform="rotate(-0 340.801568 260.371562)">$200</text>
     </g>
    </g>
    <g id="xtick_5">
     <g id="line2d_5">
      <g>
       <use xlink:href="#m20ce7075d3" x="455.147463" y="246.21375" style="fill: #262626; stroke: #262626; stroke-width: 0.8"/>
      </g>
     </g>
     <g id="text_5">
      <text style="font-size: 10px; font-family: 'Arial', 'DejaVu Sans', 'Liberation Sans', 'Bitstream Vera Sans', sans-serif; text-anchor: middle; fill: #262626" x="455.147463" y="260.371562" transform="rotate(-0 455.147463 260.371562)">$500</text>
     </g>
    </g>
    <g id="xtick_6">
     <g id="line2d_6">
      <g>
       <use xlink:href="#m20ce7075d3" x="541.646792" y="246.21375" style="fill: #262626; stroke: #262626; stroke-width: 0.8"/>
      </g>
     </g>
     <g id="text_6">
      <text style="font-size: 10px; font-family: 'Arial', 'DejaVu Sans', 'Liberation Sans', 'Bitstream Vera Sans', sans-serif; text-anchor: middle; fill: #262626" x="541.646792" y="260.371562" transform="rotate(-0 541.646792 260.371562)">$1000</text>
     </g>
    </g>
    <g id="xtick_7">
     <g id="line2d_7">
      <g>
       <use xlink:href="#m20ce7075d3" x="628.146122" y="246.21375" style="fill: #262626; stroke: #262626; stroke-width: 0.8"/>
      </g>
     </g>
     <g id="text_7">
      <text style="font-size: 10px; font-family: 'Arial', 'DejaVu Sans', 'Liberation Sans', 'Bitstream Vera Sans', sans-serif; text-anchor: middle; fill: #262626" x="628.146122" y="260.371562" transform="rotate(-0 628.146122 260.371562)">$2000</text>
     </g>
    </g>
    <g id="xtick_8">
     <g id="line2d_8">
      <g>
       <use xlink:href="#m20ce7075d3" x="742.492017" y="246.21375" style="fill: #262626; stroke: #262626; stroke-width: 0.8"/>
      </g>
     </g>
     <g id="text_8">
      <text style="font-size: 10px; font-family: 'Arial', 'DejaVu Sans', 'Liberation Sans', 'Bitstream Vera Sans', sans-serif; text-anchor: middle; fill: #262626" x="742.492017" y="260.371562" transform="rotate(-0 742.492017 260.371562)">$5000</text>
     </g>
    </g>
    <g id="xtick_9">
     <g id="line2d_9">
      <g>
       <use xlink:href="#m20ce7075d3" x="828.991347" y="246.21375" style="fill: #262626; stroke: #262626; stroke-width: 0.8"/>
      </g>
     </g>
     <g id="text_9">
      <text style="font-size: 10px; font-family: 'Arial', 'DejaVu Sans', 'Liberation Sans', 'Bitstream Vera Sans', sans-serif; text-anchor: middle; fill: #262626" x="828.991347" y="260.371562" transform="rotate(-0 828.991347 260.371562)">$10000</text>
     </g>
    </g>
    <g id="xtick_10">
     <g id="line2d_10">
      <defs>
       <path id="m314ecd0bc7" d="M 0 0 
L 0 2 
" style="stroke: #262626; stroke-width: 0.6"/>
      </defs>
      <g>
       <use xlink:href="#m314ecd0bc7" x="104.055879" y="246.21375" style="fill: #262626; stroke: #262626; stroke-width: 0.6"/>
      </g>
     </g>
    </g>
    <g id="xtick_11">
     <g id="line2d_11">
      <g>
       <use xlink:href="#m314ecd0bc7" x="139.956344" y="246.21375" style="fill: #262626; stroke: #262626; stroke-width: 0.6"/>
      </g>
     </g>
    </g>
    <g id="xtick_12">
     <g id="line2d_12">
      <g>
       <use xlink:href="#m314ecd0bc7" x="190.555208" y="246.21375" style="fill: #262626; stroke: #262626; stroke-width: 0.6"/>
      </g>
     </g>
    </g>
    <g id="xtick_13">
     <g id="line2d_13">
      <g>
       <use xlink:href="#m314ecd0bc7" x="209.792004" y="246.21375" style="fill: #262626; stroke: #262626; stroke-width: 0.6"/>
      </g>
     </g>
    </g>
    <g id="xtick_14">
     <g id="line2d_14">
      <g>
       <use xlink:href="#m314ecd0bc7" x="226.455674" y="246.21375" style="fill: #262626; stroke: #262626; stroke-width: 0.6"/>
      </g>
     </g>
    </g>
    <g id="xtick_15">
     <g id="line2d_15">
      <g>
       <use xlink:href="#m314ecd0bc7" x="241.154073" y="246.21375" style="fill: #262626; stroke: #262626; stroke-width: 0.6"/>
      </g>
     </g>
    </g>
    <g id="xtick_16">
     <g id="line2d_16">
      <g>
       <use xlink:href="#m314ecd0bc7" x="391.400433" y="246.21375" style="fill: #262626; stroke: #262626; stroke-width: 0.6"/>
      </g>
     </g>
    </g>
    <g id="xtick_17">
     <g id="line2d_17">
      <g>
       <use xlink:href="#m314ecd0bc7" x="427.300898" y="246.21375" style="fill: #262626; stroke: #262626; stroke-width: 0.6"/>
      </g>
     </g>
    </g>
    <g id="xtick_18">
     <g id="line2d_18">
      <g>
       <use xlink:href="#m314ecd0bc7" x="477.899762" y="246.21375" style="fill: #262626; stroke: #262626; stroke-width: 0.6"/>
      </g>
     </g>
    </g>
    <g id="xtick_19">
     <g id="line2d_19">
      <g>
       <use xlink:href="#m314ecd0bc7" x="497.136558" y="246.21375" style="fill: #262626; stroke: #262626; stroke-width: 0.6"/>
      </g>
     </g>
    </g>
    <g id="xtick_20">
     <g id="line2d_20">
      <g>
       <use xlink:href="#m314ecd0bc7" x="513.800228" y="246.21375" style="fill: #262626; stroke: #262626; stroke-width: 0.6"/>
      </g>
     </g>
    </g>
    <g id="xtick_21">
     <g id="line2d_21">
      <g>
       <use xlink:href="#m314ecd0bc7" x="528.498627" y="246.21375" style="fill: #262626; stroke: #262626; stroke-width: 0.6"/>
      </g>
     </g>
    </g>
    <g id="xtick_22">
     <g id="line2d_22">
      <g>
       <use xlink:href="#m314ecd0bc7" x="678.744987" y="246.21375" style="fill: #262626; stroke: #262626; stroke-width: 0.6"/>
      </g>
     </g>
    </g>
    <g id="xtick_23">
     <g id="line2d_23">
      <g>
       <use xlink:href="#m314ecd0bc7" x="714.645452" y="246.21375" style="fill: #262626; stroke: #262626; stroke-width: 0.6"/>
      </g>
     </g>
    </g>
    <g id="xtick_24">
     <g id="line2d_24">
      <g>
       <use xlink:href="#m314ecd0bc7" x="765.244316" y="246.21375" style="fill: #262626; stroke: #262626; stroke-width: 0.6"/>
      </g>
     </g>
    </g>
    <g id="xtick_25">
     <g id="line2d_25">
      <g>
       <use xlink:href="#m314ecd0bc7" x="784.481112" y="246.21375" style="fill: #262626; stroke: #262626; stroke-width: 0.6"/>
      </g>
     </g>
    </g>
    <g id="xtick_26">
     <g id="line2d_26">
      <g>
       <use xlink:href="#m314ecd0bc7" x="801.144782" y="246.21375" style="fill: #262626; stroke: #262626; stroke-width: 0.6"/>
      </g>
     </g>
    </g>
    <g id="xtick_27">
     <g id="line2d_27">
      <g>
       <use xlink:href="#m314ecd0bc7" x="815.843181" y="246.21375" style="fill: #262626; stroke: #262626; stroke-width: 0.6"/>
      </g>
     </g>
    </g>
    <g id="text_10">
     <text style="font-size: 10px; font-family: 'Arial', 'DejaVu Sans', 'Liberation Sans', 'Bitstream Vera Sans', sans-serif; text-anchor: middle; fill: #262626" x="425.7" y="273.63875" transform="rotate(-0 425.7 273.63875)">Income or consumption (month)</text>
    </g>
   </g>
   <g id="matplotlib.axis_2"/>
   <g id="FillBetweenPolyCollection_1">
    <defs>
     <path id="mfbf85df91e" d="M 45.245455 -36.729688 
L 45.245455 -36.793647 
L 47.432209 -36.813552 
L 49.618963 -36.838871 
L 51.805717 -36.870831 
L 53.992472 -36.91087 
L 56.179226 -36.960651 
L 58.36598 -37.022082 
L 60.552735 -37.097324 
L 62.739489 -37.188803 
L 64.926243 -37.299208 
L 67.112998 -37.431487 
L 69.299752 -37.588834 
L 71.486506 -37.774672 
L 73.673261 -37.992619 
L 75.860015 -38.246457 
L 78.046769 -38.540083 
L 80.233523 -38.877461 
L 82.420278 -39.262568 
L 84.607032 -39.699336 
L 86.793786 -40.191589 
L 88.980541 -40.742993 
L 91.167295 -41.356996 
L 93.354049 -42.036786 
L 95.540804 -42.785253 
L 97.727558 -43.604959 
L 99.914312 -44.498125 
L 102.101066 -45.466621 
L 104.287821 -46.51198 
L 106.474575 -47.635415 
L 108.661329 -48.837842 
L 110.848084 -50.11992 
L 113.034838 -51.482089 
L 115.221592 -52.92461 
L 117.408347 -54.447608 
L 119.595101 -56.051105 
L 121.781855 -57.735052 
L 123.96861 -59.499346 
L 126.155364 -61.343847 
L 128.342118 -63.268371 
L 130.528872 -65.272683 
L 132.715627 -67.356477 
L 134.902381 -69.519339 
L 137.089135 -71.760717 
L 139.27589 -74.079877 
L 141.462644 -76.475854 
L 143.649398 -78.947417 
L 145.836153 -81.493022 
L 148.022907 -84.110782 
L 150.209661 -86.798439 
L 152.396416 -89.55335 
L 154.58317 -92.372482 
L 156.769924 -95.252417 
L 158.956678 -98.189373 
L 161.143433 -101.179236 
L 163.330187 -104.217596 
L 165.516941 -107.299803 
L 167.703696 -110.421019 
L 169.89045 -113.576282 
L 172.077204 -116.760564 
L 174.263959 -119.968835 
L 176.450713 -123.196119 
L 178.637467 -126.437541 
L 180.824221 -129.688367 
L 183.010976 -132.944027 
L 185.19773 -136.200132 
L 187.384484 -139.452465 
L 189.571239 -142.696965 
L 191.757993 -145.929689 
L 193.944747 -149.14676 
L 196.131502 -152.344308 
L 198.318256 -155.518395 
L 200.50501 -158.664936 
L 202.691765 -161.779617 
L 204.878519 -164.857815 
L 207.065273 -167.894527 
L 209.252027 -170.884303 
L 211.438782 -173.821204 
L 213.625536 -176.698771 
L 215.81229 -179.510017 
L 217.999045 -182.247442 
L 220.185799 -184.903074 
L 222.372553 -187.46853 
L 224.559308 -189.935102 
L 226.746062 -192.293858 
L 228.932816 -194.535764 
L 231.119571 -196.651815 
L 233.306325 -198.633171 
L 235.493079 -200.471303 
L 237.679833 -202.158125 
L 239.866588 -203.686131 
L 242.053342 -205.048509 
L 244.240096 -206.239251 
L 246.426851 -207.253235 
L 248.613605 -208.086296 
L 250.800359 -208.735268 
L 252.987114 -209.198006 
L 255.173868 -209.473391 
L 257.360622 -209.561309 
L 259.547377 -209.462612 
L 261.734131 -209.179062 
L 263.920885 -208.713267 
L 266.107639 -208.068594 
L 268.294394 -207.249085 
L 270.481148 -206.259364 
L 272.667902 -205.104543 
L 274.854657 -203.79013 
L 277.041411 -202.321946 
L 279.228165 -200.706042 
L 281.41492 -198.948635 
L 283.601674 -197.05605 
L 285.788428 -195.034676 
L 287.975182 -192.890937 
L 290.161937 -190.631274 
L 292.348691 -188.262138 
L 294.535445 -185.789997 
L 296.7222 -183.221343 
L 298.908954 -180.562719 
L 301.095708 -177.820732 
L 303.282463 -175.002078 
L 305.469217 -172.113564 
L 307.655971 -169.162117 
L 309.842726 -166.154795 
L 312.02948 -163.098785 
L 314.216234 -160.001392 
L 316.402988 -156.870019 
L 318.589743 -153.712138 
L 320.776497 -150.535246 
L 322.963251 -147.346823 
L 325.150006 -144.154272 
L 327.33676 -140.964863 
L 329.523514 -137.785672 
L 331.710269 -134.623515 
L 333.897023 -131.484887 
L 336.083777 -128.375905 
L 338.270532 -125.302255 
L 340.457286 -122.26914 
L 342.64404 -119.281242 
L 344.830794 -116.342693 
L 347.017549 -113.457043 
L 349.204303 -110.627252 
L 351.391057 -107.855682 
L 353.577812 -105.144098 
L 355.764566 -102.493683 
L 357.95132 -99.905057 
L 360.138075 -97.378307 
L 362.324829 -94.913023 
L 364.511583 -92.508345 
L 366.698337 -90.163014 
L 368.885092 -87.875432 
L 371.071846 -85.643729 
L 373.2586 -83.465833 
L 375.445355 -81.339551 
L 377.632109 -79.262642 
L 379.818863 -77.232909 
L 382.005618 -75.248272 
L 384.192372 -73.306856 
L 386.379126 -71.407062 
L 388.565881 -69.547638 
L 390.752635 -67.727737 
L 392.939389 -65.946964 
L 395.126143 -64.205408 
L 397.312898 -62.503652 
L 399.499652 -60.842775 
L 401.686406 -59.224323 
L 403.873161 -57.650269 
L 406.059915 -56.122949 
L 408.246669 -54.644986 
L 410.433424 -53.219196 
L 412.620178 -51.848486 
L 414.806932 -50.535745 
L 416.993687 -49.28373 
L 419.180441 -48.094963 
L 421.367195 -46.971622 
L 423.553949 -45.915456 
L 425.740704 -44.92771 
L 427.927458 -44.009064 
L 430.114212 -43.159602 
L 432.300967 -42.378789 
L 434.487721 -41.665482 
L 436.674475 -41.017951 
L 438.86123 -40.433924 
L 441.047984 -39.910644 
L 443.234738 -39.44494 
L 445.421492 -39.033307 
L 447.608247 -38.671987 
L 449.795001 -38.357056 
L 451.981755 -38.084508 
L 454.16851 -37.850332 
L 456.355264 -37.650583 
L 458.542018 -37.481444 
L 460.728773 -37.339279 
L 462.915527 -37.220671 
L 465.102281 -37.122455 
L 467.289036 -37.041734 
L 469.47579 -36.975892 
L 471.662544 -36.922592 
L 473.849298 -36.879774 
L 476.036053 -36.845637 
L 478.222807 -36.81863 
L 480.409561 -36.797428 
L 480.409561 -36.729688 
L 480.409561 -36.729688 
L 478.222807 -36.729688 
L 476.036053 -36.729688 
L 473.849298 -36.729688 
L 471.662544 -36.729688 
L 469.47579 -36.729688 
L 467.289036 -36.729688 
L 465.102281 -36.729688 
L 462.915527 -36.729688 
L 460.728773 -36.729688 
L 458.542018 -36.729688 
L 456.355264 -36.729688 
L 454.16851 -36.729688 
L 451.981755 -36.729688 
L 449.795001 -36.729688 
L 447.608247 -36.729688 
L 445.421492 -36.729688 
L 443.234738 -36.729688 
L 441.047984 -36.729688 
L 438.86123 -36.729688 
L 436.674475 -36.729688 
L 434.487721 -36.729688 
L 432.300967 -36.729688 
L 430.114212 -36.729688 
L 427.927458 -36.729688 
L 425.740704 -36.729688 
L 423.553949 -36.729688 
L 421.367195 -36.729688 
L 419.180441 -36.729688 
L 416.993687 -36.729688 
L 414.806932 -36.729688 
L 412.620178 -36.729688 
L 410.433424 -36.729688 
L 408.246669 -36.729688 
L 406.059915 -36.729688 
L 403.873161 -36.729688 
L 401.686406 -36.729688 
L 399.499652 -36.729688 
L 397.312898 -36.729688 
L 395.126143 -36.729688 
L 392.939389 -36.729688 
L 390.752635 -36.729688 
L 388.565881 -36.729688 
L 386.379126 -36.729688 
L 384.192372 -36.729688 
L 382.005618 -36.729688 
L 379.818863 -36.729688 
L 377.632109 -36.729688 
L 375.445355 -36.729688 
L 373.2586 -36.729688 
L 371.071846 -36.729688 
L 368.885092 -36.729688 
L 366.698337 -36.729688 
L 364.511583 -36.729688 
L 362.324829 -36.729688 
L 360.138075 -36.729688 
L 357.95132 -36.729688 
L 355.764566 -36.729688 
L 353.577812 -36.729688 
L 351.391057 -36.729688 
L 349.204303 -36.729688 
L 347.017549 -36.729688 
L 344.830794 -36.729688 
L 342.64404 -36.729688 
L 340.457286 -36.729688 
L 338.270532 -36.729688 
L 336.083777 -36.729688 
L 333.897023 -36.729688 
L 331.710269 -36.729688 
L 329.523514 -36.729688 
L 327.33676 -36.729688 
L 325.150006 -36.729688 
L 322.963251 -36.729688 
L 320.776497 -36.729688 
L 318.589743 -36.729688 
L 316.402988 -36.729688 
L 314.216234 -36.729688 
L 312.02948 -36.729688 
L 309.842726 -36.729688 
L 307.655971 -36.729688 
L 305.469217 -36.729688 
L 303.282463 -36.729688 
L 301.095708 -36.729688 
L 298.908954 -36.729688 
L 296.7222 -36.729688 
L 294.535445 -36.729688 
L 292.348691 -36.729688 
L 290.161937 -36.729688 
L 287.975182 -36.729688 
L 285.788428 -36.729688 
L 283.601674 -36.729688 
L 281.41492 -36.729688 
L 279.228165 -36.729688 
L 277.041411 -36.729688 
L 274.854657 -36.729688 
L 272.667902 -36.729688 
L 270.481148 -36.729688 
L 268.294394 -36.729688 
L 266.107639 -36.729688 
L 263.920885 -36.729688 
L 261.734131 -36.729688 
L 259.547377 -36.729688 
L 257.360622 -36.729688 
L 255.173868 -36.729688 
L 252.987114 -36.729688 
L 250.800359 -36.729688 
L 248.613605 -36.729688 
L 246.426851 -36.729688 
L 244.240096 -36.729688 
L 242.053342 -36.729688 
L 239.866588 -36.729688 
L 237.679833 -36.729688 
L 235.493079 -36.729688 
L 233.306325 -36.729688 
L 231.119571 -36.729688 
L 228.932816 -36.729688 
L 226.746062 -36.729688 
L 224.559308 -36.729688 
L 222.372553 -36.729688 
L 220.185799 -36.729688 
L 217.999045 -36.729688 
L 215.81229 -36.729688 
L 213.625536 -36.729688 
L 211.438782 -36.729688 
L 209.252027 -36.729688 
L 207.065273 -36.729688 
L 204.878519 -36.729688 
L 202.691765 -36.729688 
L 200.50501 -36.729688 
L 198.318256 -36.729688 
L 196.131502 -36.729688 
L 193.944747 -36.729688 
L 191.757993 -36.729688 
L 189.571239 -36.729688 
L 187.384484 -36.729688 
L 185.19773 -36.729688 
L 183.010976 -36.729688 
L 180.824221 -36.729688 
L 178.637467 -36.729688 
L 176.450713 -36.729688 
L 174.263959 -36.729688 
L 172.077204 -36.729688 
L 169.89045 -36.729688 
L 167.703696 -36.729688 
L 165.516941 -36.729688 
L 163.330187 -36.729688 
L 161.143433 -36.729688 
L 158.956678 -36.729688 
L 156.769924 -36.729688 
L 154.58317 -36.729688 
L 152.396416 -36.729688 
L 150.209661 -36.729688 
L 148.022907 -36.729688 
L 145.836153 -36.729688 
L 143.649398 -36.729688 
L 141.462644 -36.729688 
L 139.27589 -36.729688 
L 137.089135 -36.729688 
L 134.902381 -36.729688 
L 132.715627 -36.729688 
L 130.528872 -36.729688 
L 128.342118 -36.729688 
L 126.155364 -36.729688 
L 123.96861 -36.729688 
L 121.781855 -36.729688 
L 119.595101 -36.729688 
L 117.408347 -36.729688 
L 115.221592 -36.729688 
L 113.034838 -36.729688 
L 110.848084 -36.729688 
L 108.661329 -36.729688 
L 106.474575 -36.729688 
L 104.287821 -36.729688 
L 102.101066 -36.729688 
L 99.914312 -36.729688 
L 97.727558 -36.729688 
L 95.540804 -36.729688 
L 93.354049 -36.729688 
L 91.167295 -36.729688 
L 88.980541 -36.729688 
L 86.793786 -36.729688 
L 84.607032 -36.729688 
L 82.420278 -36.729688 
L 80.233523 -36.729688 
L 78.046769 -36.729688 
L 75.860015 -36.729688 
L 73.673261 -36.729688 
L 71.486506 -36.729688 
L 69.299752 -36.729688 
L 67.112998 -36.729688 
L 64.926243 -36.729688 
L 62.739489 -36.729688 
L 60.552735 -36.729688 
L 58.36598 -36.729688 
L 56.179226 -36.729688 
L 53.992472 -36.729688 
L 51.805717 -36.729688 
L 49.618963 -36.729688 
L 47.432209 -36.729688 
L 45.245455 -36.729688 
z
" style="stroke: #dd8452; stroke-opacity: 0.2"/>
    </defs>
    <g>
     <use xlink:href="#mfbf85df91e" x="0" y="282.943437" style="fill: #dd8452; fill-opacity: 0.2; stroke: #dd8452; stroke-opacity: 0.2"/>
    </g>
   </g>
   <g id="FillBetweenPolyCollection_2">
    <defs>
     <path id="mf956cdbabb" d="M 407.579639 -36.729688 
L 407.579639 -36.794212 
L 409.582528 -36.81508 
L 411.585417 -36.841724 
L 413.588306 -36.875423 
L 415.591195 -36.917639 
L 417.594084 -36.970024 
L 419.596973 -37.034413 
L 421.599862 -37.112808 
L 423.602751 -37.207355 
L 425.60564 -37.320308 
L 427.608529 -37.453986 
L 429.611418 -37.610717 
L 431.614307 -37.792774 
L 433.617196 -38.002312 
L 435.620085 -38.241294 
L 437.622974 -38.511426 
L 439.625863 -38.814096 
L 441.628752 -39.150327 
L 443.631641 -39.520746 
L 445.63453 -39.925571 
L 447.637419 -40.364628 
L 449.640308 -40.837386 
L 451.643197 -41.343024 
L 453.646086 -41.880514 
L 455.648974 -42.448724 
L 457.651863 -43.046537 
L 459.654752 -43.672967 
L 461.657641 -44.327268 
L 463.66053 -45.00904 
L 465.663419 -45.718298 
L 467.666308 -46.45552 
L 469.669197 -47.221657 
L 471.672086 -48.018107 
L 473.674975 -48.846653 
L 475.677864 -49.709369 
L 477.680753 -50.608507 
L 479.683642 -51.546367 
L 481.686531 -52.525166 
L 483.68942 -53.54692 
L 485.692309 -54.613344 
L 487.695198 -55.725794 
L 489.698087 -56.885237 
L 491.700976 -58.092284 
L 493.703865 -59.347251 
L 495.706754 -60.65028 
L 497.709643 -62.001486 
L 499.712532 -63.401138 
L 501.715421 -64.849857 
L 503.71831 -66.348811 
L 505.721199 -67.899908 
L 507.724088 -69.505962 
L 509.726977 -71.170831 
L 511.729866 -72.899502 
L 513.732755 -74.698146 
L 515.735644 -76.574104 
L 517.738533 -78.535836 
L 519.741422 -80.59281 
L 521.744311 -82.755351 
L 523.7472 -85.034447 
L 525.750089 -87.441522 
L 527.752978 -89.988175 
L 529.755867 -92.685906 
L 531.758756 -95.545819 
L 533.761645 -98.578319 
L 535.764534 -101.792804 
L 537.767423 -105.197356 
L 539.770312 -108.798442 
L 541.773201 -112.600619 
L 543.776089 -116.606264 
L 545.778978 -120.81532 
L 547.781867 -125.225066 
L 549.784756 -129.829931 
L 551.787645 -134.621338 
L 553.790534 -139.587602 
L 555.793423 -144.713882 
L 557.796312 -149.982188 
L 559.799201 -155.371465 
L 561.80209 -160.857737 
L 563.804979 -166.414333 
L 565.807868 -172.012182 
L 567.810757 -177.620188 
L 569.813646 -183.205664 
L 571.816535 -188.734834 
L 573.819424 -194.173384 
L 575.822313 -199.487041 
L 577.825202 -204.642183 
L 579.828091 -209.606443 
L 581.83098 -214.349292 
L 583.833869 -218.842591 
L 585.836758 -223.061072 
L 587.839647 -226.98275 
L 589.842536 -230.589235 
L 591.845425 -233.865944 
L 593.848314 -236.802194 
L 595.851203 -239.391183 
L 597.854092 -241.629856 
L 599.856981 -243.518666 
L 601.85987 -245.06125 
L 603.862759 -246.264026 
L 605.865648 -247.135737 
L 607.868537 -247.686974 
L 609.871426 -247.929688 
L 611.874315 -247.87672 
L 613.877204 -247.54138 
L 615.880093 -246.93707 
L 617.882982 -246.07699 
L 619.885871 -244.973919 
L 621.88876 -243.640075 
L 623.891649 -242.087062 
L 625.894538 -240.325881 
L 627.897427 -238.367004 
L 629.900315 -236.220498 
L 631.903204 -233.896164 
L 633.906093 -231.403698 
L 635.908982 -228.752837 
L 637.911871 -225.95348 
L 639.91476 -223.015785 
L 641.917649 -219.950208 
L 643.920538 -216.767508 
L 645.923427 -213.478688 
L 647.926316 -210.094909 
L 649.929205 -206.627357 
L 651.932094 -203.087079 
L 653.934983 -199.484817 
L 655.937872 -195.830828 
L 657.940761 -192.134718 
L 659.94365 -188.405293 
L 661.946539 -184.650447 
L 663.949428 -180.877083 
L 665.952317 -177.091075 
L 667.955206 -173.297283 
L 669.958095 -169.4996 
L 671.960984 -165.701049 
L 673.963873 -161.903915 
L 675.966762 -158.109904 
L 677.969651 -154.320317 
L 679.97254 -150.536249 
L 681.975429 -146.758774 
L 683.978318 -142.989132 
L 685.981207 -139.2289 
L 687.984096 -135.480128 
L 689.986985 -131.745461 
L 691.989874 -128.028207 
L 693.992763 -124.332381 
L 695.995652 -120.6627 
L 697.998541 -117.024544 
L 700.00143 -113.423874 
L 702.004319 -109.867125 
L 704.007208 -106.361066 
L 706.010097 -102.912646 
L 708.012986 -99.528822 
L 710.015875 -96.216384 
L 712.018764 -92.981791 
L 714.021653 -89.831015 
L 716.024541 -86.769398 
L 718.02743 -83.801553 
L 720.030319 -80.931275 
L 722.033208 -78.161505 
L 724.036097 -75.494314 
L 726.038986 -72.930933 
L 728.041875 -70.47181 
L 730.044764 -68.116692 
L 732.047653 -65.864738 
L 734.050542 -63.714632 
L 736.053431 -61.664719 
L 738.05632 -59.713125 
L 740.059209 -57.857875 
L 742.062098 -56.096992 
L 744.064987 -54.428577 
L 746.067876 -52.850858 
L 748.070765 -51.362215 
L 750.073654 -49.961177 
L 752.076543 -48.646394 
L 754.079432 -47.416584 
L 756.082321 -46.270475 
L 758.08521 -45.206722 
L 760.088099 -44.223836 
L 762.090988 -43.32011 
L 764.093877 -42.493554 
L 766.096766 -41.741851 
L 768.099655 -41.062324 
L 770.102544 -40.451929 
L 772.105433 -39.907269 
L 774.108322 -39.42462 
L 776.111211 -38.999983 
L 778.1141 -38.629141 
L 780.116989 -38.307739 
L 782.119878 -38.031347 
L 784.122767 -37.795548 
L 786.125656 -37.596005 
L 788.128545 -37.428529 
L 790.131434 -37.289134 
L 792.134323 -37.174089 
L 794.137212 -37.079948 
L 796.140101 -37.003573 
L 798.14299 -36.942147 
L 800.145879 -36.893175 
L 802.148768 -36.854473 
L 804.151656 -36.824156 
L 806.154545 -36.800619 
L 806.154545 -36.729688 
L 806.154545 -36.729688 
L 804.151656 -36.729688 
L 802.148768 -36.729688 
L 800.145879 -36.729688 
L 798.14299 -36.729688 
L 796.140101 -36.729688 
L 794.137212 -36.729688 
L 792.134323 -36.729688 
L 790.131434 -36.729688 
L 788.128545 -36.729688 
L 786.125656 -36.729688 
L 784.122767 -36.729688 
L 782.119878 -36.729688 
L 780.116989 -36.729688 
L 778.1141 -36.729688 
L 776.111211 -36.729688 
L 774.108322 -36.729688 
L 772.105433 -36.729688 
L 770.102544 -36.729688 
L 768.099655 -36.729688 
L 766.096766 -36.729688 
L 764.093877 -36.729688 
L 762.090988 -36.729688 
L 760.088099 -36.729688 
L 758.08521 -36.729688 
L 756.082321 -36.729688 
L 754.079432 -36.729688 
L 752.076543 -36.729688 
L 750.073654 -36.729688 
L 748.070765 -36.729688 
L 746.067876 -36.729688 
L 744.064987 -36.729688 
L 742.062098 -36.729688 
L 740.059209 -36.729688 
L 738.05632 -36.729688 
L 736.053431 -36.729688 
L 734.050542 -36.729688 
L 732.047653 -36.729688 
L 730.044764 -36.729688 
L 728.041875 -36.729688 
L 726.038986 -36.729688 
L 724.036097 -36.729688 
L 722.033208 -36.729688 
L 720.030319 -36.729688 
L 718.02743 -36.729688 
L 716.024541 -36.729688 
L 714.021653 -36.729688 
L 712.018764 -36.729688 
L 710.015875 -36.729688 
L 708.012986 -36.729688 
L 706.010097 -36.729688 
L 704.007208 -36.729688 
L 702.004319 -36.729688 
L 700.00143 -36.729688 
L 697.998541 -36.729688 
L 695.995652 -36.729688 
L 693.992763 -36.729688 
L 691.989874 -36.729688 
L 689.986985 -36.729688 
L 687.984096 -36.729688 
L 685.981207 -36.729688 
L 683.978318 -36.729688 
L 681.975429 -36.729688 
L 679.97254 -36.729688 
L 677.969651 -36.729688 
L 675.966762 -36.729688 
L 673.963873 -36.729688 
L 671.960984 -36.729688 
L 669.958095 -36.729688 
L 667.955206 -36.729688 
L 665.952317 -36.729688 
L 663.949428 -36.729688 
L 661.946539 -36.729688 
L 659.94365 -36.729688 
L 657.940761 -36.729688 
L 655.937872 -36.729688 
L 653.934983 -36.729688 
L 651.932094 -36.729688 
L 649.929205 -36.729688 
L 647.926316 -36.729688 
L 645.923427 -36.729688 
L 643.920538 -36.729688 
L 641.917649 -36.729688 
L 639.91476 -36.729688 
L 637.911871 -36.729688 
L 635.908982 -36.729688 
L 633.906093 -36.729688 
L 631.903204 -36.729688 
L 629.900315 -36.729688 
L 627.897427 -36.729688 
L 625.894538 -36.729688 
L 623.891649 -36.729688 
L 621.88876 -36.729688 
L 619.885871 -36.729688 
L 617.882982 -36.729688 
L 615.880093 -36.729688 
L 613.877204 -36.729688 
L 611.874315 -36.729688 
L 609.871426 -36.729688 
L 607.868537 -36.729688 
L 605.865648 -36.729688 
L 603.862759 -36.729688 
L 601.85987 -36.729688 
L 599.856981 -36.729688 
L 597.854092 -36.729688 
L 595.851203 -36.729688 
L 593.848314 -36.729688 
L 591.845425 -36.729688 
L 589.842536 -36.729688 
L 587.839647 -36.729688 
L 585.836758 -36.729688 
L 583.833869 -36.729688 
L 581.83098 -36.729688 
L 579.828091 -36.729688 
L 577.825202 -36.729688 
L 575.822313 -36.729688 
L 573.819424 -36.729688 
L 571.816535 -36.729688 
L 569.813646 -36.729688 
L 567.810757 -36.729688 
L 565.807868 -36.729688 
L 563.804979 -36.729688 
L 561.80209 -36.729688 
L 559.799201 -36.729688 
L 557.796312 -36.729688 
L 555.793423 -36.729688 
L 553.790534 -36.729688 
L 551.787645 -36.729688 
L 549.784756 -36.729688 
L 547.781867 -36.729688 
L 545.778978 -36.729688 
L 543.776089 -36.729688 
L 541.773201 -36.729688 
L 539.770312 -36.729688 
L 537.767423 -36.729688 
L 535.764534 -36.729688 
L 533.761645 -36.729688 
L 531.758756 -36.729688 
L 529.755867 -36.729688 
L 527.752978 -36.729688 
L 525.750089 -36.729688 
L 523.7472 -36.729688 
L 521.744311 -36.729688 
L 519.741422 -36.729688 
L 517.738533 -36.729688 
L 515.735644 -36.729688 
L 513.732755 -36.729688 
L 511.729866 -36.729688 
L 509.726977 -36.729688 
L 507.724088 -36.729688 
L 505.721199 -36.729688 
L 503.71831 -36.729688 
L 501.715421 -36.729688 
L 499.712532 -36.729688 
L 497.709643 -36.729688 
L 495.706754 -36.729688 
L 493.703865 -36.729688 
L 491.700976 -36.729688 
L 489.698087 -36.729688 
L 487.695198 -36.729688 
L 485.692309 -36.729688 
L 483.68942 -36.729688 
L 481.686531 -36.729688 
L 479.683642 -36.729688 
L 477.680753 -36.729688 
L 475.677864 -36.729688 
L 473.674975 -36.729688 
L 471.672086 -36.729688 
L 469.669197 -36.729688 
L 467.666308 -36.729688 
L 465.663419 -36.729688 
L 463.66053 -36.729688 
L 461.657641 -36.729688 
L 459.654752 -36.729688 
L 457.651863 -36.729688 
L 455.648974 -36.729688 
L 453.646086 -36.729688 
L 451.643197 -36.729688 
L 449.640308 -36.729688 
L 447.637419 -36.729688 
L 445.63453 -36.729688 
L 443.631641 -36.729688 
L 441.628752 -36.729688 
L 439.625863 -36.729688 
L 437.622974 -36.729688 
L 435.620085 -36.729688 
L 433.617196 -36.729688 
L 431.614307 -36.729688 
L 429.611418 -36.729688 
L 427.608529 -36.729688 
L 425.60564 -36.729688 
L 423.602751 -36.729688 
L 421.599862 -36.729688 
L 419.596973 -36.729688 
L 417.594084 -36.729688 
L 415.591195 -36.729688 
L 413.588306 -36.729688 
L 411.585417 -36.729688 
L 409.582528 -36.729688 
L 407.579639 -36.729688 
z
" style="stroke: #4c72b0; stroke-opacity: 0.2"/>
    </defs>
    <g>
     <use xlink:href="#mf956cdbabb" x="0" y="282.943437" style="fill: #4c72b0; fill-opacity: 0.2; stroke: #4c72b0; stroke-opacity: 0.2"/>
    </g>
   </g>
   <g id="FillBetweenPolyCollection_3">
    <defs>
     <path id="mf805491279" d="M 45.245455 -36.793647 
L 45.245455 -36.729688 
L 47.432209 -36.729688 
L 49.618963 -36.729688 
L 51.805717 -36.729688 
L 53.992472 -36.729688 
L 56.179226 -36.729688 
L 58.36598 -36.729688 
L 60.552735 -36.729688 
L 62.739489 -36.729688 
L 64.926243 -36.729688 
L 67.112998 -36.729688 
L 69.299752 -36.729688 
L 71.486506 -36.729688 
L 73.673261 -36.729688 
L 75.860015 -36.729688 
L 78.046769 -36.729688 
L 80.233523 -36.729688 
L 82.420278 -36.729688 
L 84.607032 -36.729688 
L 86.793786 -36.729688 
L 88.980541 -36.729688 
L 91.167295 -36.729688 
L 93.354049 -36.729688 
L 95.540804 -36.729688 
L 97.727558 -36.729688 
L 99.914312 -36.729688 
L 102.101066 -36.729688 
L 104.287821 -36.729688 
L 106.474575 -36.729688 
L 108.661329 -36.729688 
L 110.848084 -36.729688 
L 113.034838 -36.729688 
L 115.221592 -36.729688 
L 117.408347 -36.729688 
L 119.595101 -36.729688 
L 121.781855 -36.729688 
L 123.96861 -36.729688 
L 126.155364 -36.729688 
L 128.342118 -36.729688 
L 130.528872 -36.729688 
L 132.715627 -36.729688 
L 134.902381 -36.729688 
L 137.089135 -36.729688 
L 139.27589 -36.729688 
L 141.462644 -36.729688 
L 143.649398 -36.729688 
L 145.836153 -36.729688 
L 148.022907 -36.729688 
L 150.209661 -36.729688 
L 152.396416 -36.729688 
L 154.58317 -36.729688 
L 156.769924 -36.729688 
L 158.956678 -36.729688 
L 161.143433 -36.729688 
L 163.330187 -36.729688 
L 165.516941 -36.729688 
L 167.703696 -36.729688 
L 169.89045 -36.729688 
L 172.077204 -36.729688 
L 174.263959 -36.729688 
L 176.450713 -36.729688 
L 178.637467 -36.729688 
L 180.824221 -36.729688 
L 183.010976 -36.729688 
L 185.19773 -36.729688 
L 187.384484 -36.729688 
L 189.571239 -36.729688 
L 191.757993 -36.729688 
L 193.944747 -36.729688 
L 196.131502 -36.729688 
L 198.318256 -36.729688 
L 200.50501 -36.729688 
L 202.691765 -36.729688 
L 204.878519 -36.729688 
L 207.065273 -36.729688 
L 209.252027 -36.729688 
L 211.438782 -36.729688 
L 213.625536 -36.729688 
L 215.81229 -36.729688 
L 217.999045 -36.729688 
L 220.185799 -36.729688 
L 222.372553 -36.729688 
L 224.559308 -36.729688 
L 226.746062 -36.729688 
L 228.932816 -36.729688 
L 231.119571 -36.729688 
L 233.306325 -36.729688 
L 235.493079 -36.729688 
L 237.679833 -36.729688 
L 239.866588 -36.729688 
L 241.154073 -36.729688 
L 241.154073 -204.48536 
L 241.154073 -204.48536 
L 239.866588 -203.686131 
L 237.679833 -202.158125 
L 235.493079 -200.471303 
L 233.306325 -198.633171 
L 231.119571 -196.651815 
L 228.932816 -194.535764 
L 226.746062 -192.293858 
L 224.559308 -189.935102 
L 222.372553 -187.46853 
L 220.185799 -184.903074 
L 217.999045 -182.247442 
L 215.81229 -179.510017 
L 213.625536 -176.698771 
L 211.438782 -173.821204 
L 209.252027 -170.884303 
L 207.065273 -167.894527 
L 204.878519 -164.857815 
L 202.691765 -161.779617 
L 200.50501 -158.664936 
L 198.318256 -155.518395 
L 196.131502 -152.344308 
L 193.944747 -149.14676 
L 191.757993 -145.929689 
L 189.571239 -142.696965 
L 187.384484 -139.452465 
L 185.19773 -136.200132 
L 183.010976 -132.944027 
L 180.824221 -129.688367 
L 178.637467 -126.437541 
L 176.450713 -123.196119 
L 174.263959 -119.968835 
L 172.077204 -116.760564 
L 169.89045 -113.576282 
L 167.703696 -110.421019 
L 165.516941 -107.299803 
L 163.330187 -104.217596 
L 161.143433 -101.179236 
L 158.956678 -98.189373 
L 156.769924 -95.252417 
L 154.58317 -92.372482 
L 152.396416 -89.55335 
L 150.209661 -86.798439 
L 148.022907 -84.110782 
L 145.836153 -81.493022 
L 143.649398 -78.947417 
L 141.462644 -76.475854 
L 139.27589 -74.079877 
L 137.089135 -71.760717 
L 134.902381 -69.519339 
L 132.715627 -67.356477 
L 130.528872 -65.272683 
L 128.342118 -63.268371 
L 126.155364 -61.343847 
L 123.96861 -59.499346 
L 121.781855 -57.735052 
L 119.595101 -56.051105 
L 117.408347 -54.447608 
L 115.221592 -52.92461 
L 113.034838 -51.482089 
L 110.848084 -50.11992 
L 108.661329 -48.837842 
L 106.474575 -47.635415 
L 104.287821 -46.51198 
L 102.101066 -45.466621 
L 99.914312 -44.498125 
L 97.727558 -43.604959 
L 95.540804 -42.785253 
L 93.354049 -42.036786 
L 91.167295 -41.356996 
L 88.980541 -40.742993 
L 86.793786 -40.191589 
L 84.607032 -39.699336 
L 82.420278 -39.262568 
L 80.233523 -38.877461 
L 78.046769 -38.540083 
L 75.860015 -38.246457 
L 73.673261 -37.992619 
L 71.486506 -37.774672 
L 69.299752 -37.588834 
L 67.112998 -37.431487 
L 64.926243 -37.299208 
L 62.739489 -37.188803 
L 60.552735 -37.097324 
L 58.36598 -37.022082 
L 56.179226 -36.960651 
L 53.992472 -36.91087 
L 51.805717 -36.870831 
L 49.618963 -36.838871 
L 47.432209 -36.813552 
L 45.245455 -36.793647 
z
"/>
    </defs>
    <g>
     <use xlink:href="#mf805491279" x="0" y="282.943437" style="fill: #dd8452; fill-opacity: 0.3"/>
    </g>
   </g>
   <g id="line2d_28">
    <path d="M 45.245455 246.14979 
L 58.36598 245.921356 
L 67.112998 245.511951 
L 73.673261 244.950818 
L 78.046769 244.403355 
L 82.420278 243.680869 
L 86.793786 242.751848 
L 91.167295 241.586442 
L 95.540804 240.158185 
L 99.914312 238.445313 
L 104.287821 236.431457 
L 108.661329 234.105596 
L 113.034838 231.461349 
L 117.408347 228.495829 
L 121.781855 225.208386 
L 126.155364 221.599591 
L 130.528872 217.670754 
L 134.902381 213.424099 
L 139.27589 208.863561 
L 143.649398 203.996021 
L 148.022907 198.832656 
L 152.396416 193.390087 
L 158.956678 184.754064 
L 165.516941 175.643635 
L 174.263959 162.974602 
L 202.691765 121.16382 
L 209.252027 112.059135 
L 215.81229 103.43342 
L 220.185799 98.040363 
L 224.559308 93.008335 
L 228.932816 88.407674 
L 233.306325 84.310266 
L 235.493079 82.472135 
L 237.679833 80.785312 
L 239.866588 79.257307 
L 242.053342 77.894929 
L 244.240096 76.704187 
L 246.426851 75.690202 
L 248.613605 74.857141 
L 250.800359 74.20817 
L 252.987114 73.745432 
L 255.173868 73.470046 
L 257.360622 73.382128 
L 259.547377 73.480826 
L 261.734131 73.764375 
L 263.920885 74.230171 
L 266.107639 74.874844 
L 268.294394 75.694353 
L 270.481148 76.684074 
L 272.667902 77.838895 
L 274.854657 79.153307 
L 277.041411 80.621491 
L 279.228165 82.237395 
L 283.601674 85.887388 
L 287.975182 90.052501 
L 292.348691 94.681299 
L 296.7222 99.722094 
L 301.095708 105.122706 
L 305.469217 110.829873 
L 312.02948 119.844653 
L 320.776497 132.408191 
L 336.083777 154.567532 
L 342.64404 163.662195 
L 349.204303 172.316185 
L 353.577812 177.79934 
L 357.95132 183.038381 
L 362.324829 188.030414 
L 366.698337 192.780423 
L 371.071846 197.299709 
L 377.632109 203.680795 
L 384.192372 209.636581 
L 390.752635 215.2157 
L 397.312898 220.439786 
L 403.873161 225.293169 
L 408.246669 228.298451 
L 412.620178 231.094951 
L 416.993687 233.659707 
L 421.367195 235.971816 
L 425.740704 238.015728 
L 430.114212 239.783835 
L 434.487721 241.277956 
L 438.86123 242.509514 
L 443.234738 243.498497 
L 447.608247 244.27145 
L 451.981755 244.858929 
L 458.542018 245.461993 
L 465.102281 245.820982 
L 473.849298 246.063664 
L 480.409561 246.14601 
L 480.409561 246.14601 
" style="fill: none; stroke: #dd8452; stroke-width: 1.5; stroke-linecap: round"/>
   </g>
   <g id="line2d_29">
    <path d="M 407.579639 246.149226 
L 417.594084 245.973413 
L 425.60564 245.623129 
L 431.614307 245.150663 
L 437.622974 244.432011 
L 443.631641 243.422691 
L 449.640308 242.106051 
L 455.648974 240.494714 
L 461.657641 238.61617 
L 467.666308 236.487917 
L 473.674975 234.096785 
L 479.683642 231.397071 
L 483.68942 229.396517 
L 487.695198 227.217644 
L 491.700976 224.851154 
L 495.706754 222.293157 
L 499.712532 219.542299 
L 503.71831 216.594627 
L 507.724088 213.437475 
L 511.729866 210.043935 
L 515.735644 206.369333 
L 519.741422 202.350628 
L 523.7472 197.90899 
L 527.752978 192.955263 
L 531.758756 187.397619 
L 535.764534 181.150633 
L 539.770312 174.144996 
L 543.776089 166.337173 
L 547.781867 157.718371 
L 551.787645 148.3221 
L 555.793423 138.229556 
L 559.799201 127.571972 
L 567.810757 105.32325 
L 573.819424 88.770054 
L 577.825202 78.301255 
L 581.83098 68.594145 
L 583.833869 64.100846 
L 585.836758 59.882365 
L 587.839647 55.960688 
L 589.842536 52.354203 
L 591.845425 49.077493 
L 593.848314 46.141243 
L 595.851203 43.552254 
L 597.854092 41.313582 
L 599.856981 39.424772 
L 601.85987 37.882187 
L 603.862759 36.679412 
L 605.865648 35.807701 
L 607.868537 35.256464 
L 609.871426 35.01375 
L 611.874315 35.066717 
L 613.877204 35.402058 
L 615.880093 36.006368 
L 617.882982 36.866447 
L 619.885871 37.969519 
L 621.88876 39.303362 
L 623.891649 40.856375 
L 625.894538 42.617557 
L 627.897427 44.576433 
L 629.900315 46.72294 
L 633.906093 51.539739 
L 637.911871 56.989958 
L 641.917649 62.993229 
L 645.923427 69.46475 
L 649.929205 76.316081 
L 655.937872 87.112609 
L 663.949428 102.066355 
L 691.989874 154.915231 
L 700.00143 169.519564 
L 706.010097 180.030791 
L 710.015875 186.727054 
L 714.021653 193.112423 
L 718.02743 199.141885 
L 722.033208 204.781933 
L 726.038986 210.012504 
L 730.044764 214.826745 
L 734.050542 219.228805 
L 738.05632 223.230312 
L 742.062098 226.846445 
L 746.067876 230.092579 
L 750.073654 232.98226 
L 754.079432 235.526853 
L 758.08521 237.736715 
L 762.090988 239.623327 
L 766.096766 241.201587 
L 770.102544 242.491508 
L 774.108322 243.518817 
L 778.1141 244.314296 
L 782.119878 244.91209 
L 788.128545 245.514909 
L 794.137212 245.86349 
L 802.148768 246.088965 
L 806.154545 246.142819 
L 806.154545 246.142819 
" style="fill: none; stroke: #4c72b0; stroke-width: 1.5; stroke-linecap: round"/>
   </g>
   <g id="line2d_30">
    <path d="M 241.154073 246.21375 
L 241.154073 24.45375 
" style="fill: none; stroke-dasharray: 0.8,1.32; stroke-dashoffset: 0; stroke: #d3d3d3; stroke-width: 0.8"/>
   </g>
   <g id="line2d_31">
    <path d="M 7.2 246.21375 
L 844.2 246.21375 
" style="fill: none; stroke: #808080; stroke-width: 0.5; stroke-linecap: round"/>
   </g>
   <g id="AnnotationBbox_1">
    <g id="text_11">
     <text style="font-weight: 700; font-size: 8px; font-family: 'Arial', 'DejaVu Sans', 'Liberation Sans', 'Bitstream Vera Sans', sans-serif; text-anchor: end; fill: #808080" x="241.154073" y="12.92625" transform="rotate(-0 241.154073 12.92625)">International Poverty Line</text>
    </g>
    <g id="text_12">
     <text style="font-size: 8px; font-family: 'Arial', 'DejaVu Sans', 'Liberation Sans', 'Bitstream Vera Sans', sans-serif; text-anchor: end; fill: #808080" x="241.154073" y="22.86375" transform="rotate(-0 241.154073 22.86375)">$90 per month</text>
    </g>
   </g>
   <g id="text_13">
    <text style="font-size: 10px; font-family: 'Arial', 'DejaVu Sans', 'Liberation Sans', 'Bitstream Vera Sans', sans-serif; text-anchor: middle" x="615.943841" y="244.109062" transform="rotate(-0 615.943841 244.109062)">Denmark (2023)</text>
   </g>
   <g id="text_14">
    <text style="font-size: 10px; font-family: 'Arial', 'DejaVu Sans', 'Liberation Sans', 'Bitstream Vera Sans', sans-serif; text-anchor: middle" x="259.013022" y="244.109062" transform="rotate(-0 259.013022 244.109062)">Ethiopia (2021)</text>
   </g>
  </g>
 </g>
</svg>
