<?xml version="1.0" encoding="utf-8" standalone="no"?>
<!DOCTYPE svg PUBLIC "-//W3C//DTD SVG 1.1//EN"
  "http://www.w3.org/Graphics/SVG/1.1/DTD/svg11.dtd">
<svg xmlns:xlink="http://www.w3.org/1999/xlink" width="868.082812pt" height="265.689687pt" viewBox="0 0 868.082812 265.689687" xmlns="http://www.w3.org/2000/svg" version="1.1">
 <metadata>
  <rdf:RDF xmlns:dc="http://purl.org/dc/elements/1.1/" xmlns:cc="http://creativecommons.org/ns#" xmlns:rdf="http://www.w3.org/1999/02/22-rdf-syntax-ns#">
   <cc:Work>
    <dc:type rdf:resource="http://purl.org/dc/dcmitype/StillImage"/>
    <dc:date>2026-05-26T13:04:29.236081</dc:date>
    <dc:format>image/svg+xml</dc:format>
    <dc:creator>
     <cc:Agent>
      <dc:title>Matplotlib v3.10.9, https://matplotlib.org/</dc:title>
     </cc:Agent>
    </dc:creator>
   </cc:Work>
  </rdf:RDF>
 </metadata>
 <defs>
  <style type="text/css">*{stroke-linejoin: round; stroke-linecap: butt}</style>
 </defs>
 <g id="figure_1">
  <g id="patch_1">
   <path d="M 0 265.689687 
L 868.082812 265.689687 
L 868.082812 0 
L 0 0 
z
" style="fill: #ffffff"/>
  </g>
  <g id="axes_1">
   <g id="patch_2">
    <path d="M 7.2 228.96 
L 844.2 228.96 
L 844.2 7.2 
L 7.2 7.2 
z
" style="fill: #ffffff"/>
   </g>
   <g id="matplotlib.axis_1">
    <g id="xtick_1">
     <g id="line2d_1">
      <defs>
       <path id="mec80dba6f6" d="M 0 0 
L 0 3.5 
" style="stroke: #262626; stroke-width: 0.8"/>
      </defs>
      <g>
       <use xlink:href="#mec80dba6f6" x="133.618692" y="228.96" style="fill: #262626; stroke: #262626; stroke-width: 0.8"/>
      </g>
     </g>
     <g id="text_1">
      <text style="font-size: 10px; font-family: 'Arial', 'DejaVu Sans', 'Liberation Sans', 'Bitstream Vera Sans', sans-serif; text-anchor: middle; fill: #262626" x="133.618692" y="243.117812" transform="rotate(-0 133.618692 243.117812)">$10</text>
     </g>
    </g>
    <g id="xtick_2">
     <g id="line2d_2">
      <g>
       <use xlink:href="#mec80dba6f6" x="198.418554" y="228.96" style="fill: #262626; stroke: #262626; stroke-width: 0.8"/>
      </g>
     </g>
     <g id="text_2">
      <text style="font-size: 10px; font-family: 'Arial', 'DejaVu Sans', 'Liberation Sans', 'Bitstream Vera Sans', sans-serif; text-anchor: middle; fill: #262626" x="198.418554" y="243.117812" transform="rotate(-0 198.418554 243.117812)">$20</text>
     </g>
    </g>
    <g id="xtick_3">
     <g id="line2d_3">
      <g>
       <use xlink:href="#mec80dba6f6" x="284.079312" y="228.96" style="fill: #262626; stroke: #262626; stroke-width: 0.8"/>
      </g>
     </g>
     <g id="text_3">
      <text style="font-size: 10px; font-family: 'Arial', 'DejaVu Sans', 'Liberation Sans', 'Bitstream Vera Sans', sans-serif; text-anchor: middle; fill: #262626" x="284.079312" y="243.117812" transform="rotate(-0 284.079312 243.117812)">$50</text>
     </g>
    </g>
    <g id="xtick_4">
     <g id="line2d_4">
      <g>
       <use xlink:href="#mec80dba6f6" x="348.879174" y="228.96" style="fill: #262626; stroke: #262626; stroke-width: 0.8"/>
      </g>
     </g>
     <g id="text_4">
      <text style="font-size: 10px; font-family: 'Arial', 'DejaVu Sans', 'Liberation Sans', 'Bitstream Vera Sans', sans-serif; text-anchor: middle; fill: #262626" x="348.879174" y="243.117812" transform="rotate(-0 348.879174 243.117812)">$100</text>
     </g>
    </g>
    <g id="xtick_5">
     <g id="line2d_5">
      <g>
       <use xlink:href="#mec80dba6f6" x="413.679036" y="228.96" style="fill: #262626; stroke: #262626; stroke-width: 0.8"/>
      </g>
     </g>
     <g id="text_5">
      <text style="font-size: 10px; font-family: 'Arial', 'DejaVu Sans', 'Liberation Sans', 'Bitstream Vera Sans', sans-serif; text-anchor: middle; fill: #262626" x="413.679036" y="243.117812" transform="rotate(-0 413.679036 243.117812)">$200</text>
     </g>
    </g>
    <g id="xtick_6">
     <g id="line2d_6">
      <g>
       <use xlink:href="#mec80dba6f6" x="499.339794" y="228.96" style="fill: #262626; stroke: #262626; stroke-width: 0.8"/>
      </g>
     </g>
     <g id="text_6">
      <text style="font-size: 10px; font-family: 'Arial', 'DejaVu Sans', 'Liberation Sans', 'Bitstream Vera Sans', sans-serif; text-anchor: middle; fill: #262626" x="499.339794" y="243.117812" transform="rotate(-0 499.339794 243.117812)">$500</text>
     </g>
    </g>
    <g id="xtick_7">
     <g id="line2d_7">
      <g>
       <use xlink:href="#mec80dba6f6" x="564.139656" y="228.96" style="fill: #262626; stroke: #262626; stroke-width: 0.8"/>
      </g>
     </g>
     <g id="text_7">
      <text style="font-size: 10px; font-family: 'Arial', 'DejaVu Sans', 'Liberation Sans', 'Bitstream Vera Sans', sans-serif; text-anchor: middle; fill: #262626" x="564.139656" y="243.117812" transform="rotate(-0 564.139656 243.117812)">$1000</text>
     </g>
    </g>
    <g id="xtick_8">
     <g id="line2d_8">
      <g>
       <use xlink:href="#mec80dba6f6" x="628.939518" y="228.96" style="fill: #262626; stroke: #262626; stroke-width: 0.8"/>
      </g>
     </g>
     <g id="text_8">
      <text style="font-size: 10px; font-family: 'Arial', 'DejaVu Sans', 'Liberation Sans', 'Bitstream Vera Sans', sans-serif; text-anchor: middle; fill: #262626" x="628.939518" y="243.117812" transform="rotate(-0 628.939518 243.117812)">$2000</text>
     </g>
    </g>
    <g id="xtick_9">
     <g id="line2d_9">
      <g>
       <use xlink:href="#mec80dba6f6" x="714.600276" y="228.96" style="fill: #262626; stroke: #262626; stroke-width: 0.8"/>
      </g>
     </g>
     <g id="text_9">
      <text style="font-size: 10px; font-family: 'Arial', 'DejaVu Sans', 'Liberation Sans', 'Bitstream Vera Sans', sans-serif; text-anchor: middle; fill: #262626" x="714.600276" y="243.117812" transform="rotate(-0 714.600276 243.117812)">$5000</text>
     </g>
    </g>
    <g id="xtick_10">
     <g id="line2d_10">
      <g>
       <use xlink:href="#mec80dba6f6" x="779.400138" y="228.96" style="fill: #262626; stroke: #262626; stroke-width: 0.8"/>
      </g>
     </g>
     <g id="text_10">
      <text style="font-size: 10px; font-family: 'Arial', 'DejaVu Sans', 'Liberation Sans', 'Bitstream Vera Sans', sans-serif; text-anchor: middle; fill: #262626" x="779.400138" y="243.117812" transform="rotate(-0 779.400138 243.117812)">$10000</text>
     </g>
    </g>
    <g id="xtick_11">
     <g id="line2d_11">
      <g>
       <use xlink:href="#mec80dba6f6" x="844.2" y="228.96" style="fill: #262626; stroke: #262626; stroke-width: 0.8"/>
      </g>
     </g>
     <g id="text_11">
      <text style="font-size: 10px; font-family: 'Arial', 'DejaVu Sans', 'Liberation Sans', 'Bitstream Vera Sans', sans-serif; text-anchor: middle; fill: #262626" x="844.2" y="243.117812" transform="rotate(-0 844.2 243.117812)">$20000</text>
     </g>
    </g>
    <g id="xtick_12">
     <g id="line2d_12">
      <defs>
       <path id="m138c595ac2" d="M 0 0 
L 0 2 
" style="stroke: #262626; stroke-width: 0.6"/>
      </defs>
      <g>
       <use xlink:href="#m138c595ac2" x="21.063561" y="228.96" style="fill: #262626; stroke: #262626; stroke-width: 0.6"/>
      </g>
     </g>
    </g>
    <g id="xtick_13">
     <g id="line2d_13">
      <g>
       <use xlink:href="#m138c595ac2" x="47.957934" y="228.96" style="fill: #262626; stroke: #262626; stroke-width: 0.6"/>
      </g>
     </g>
    </g>
    <g id="xtick_14">
     <g id="line2d_14">
      <g>
       <use xlink:href="#m138c595ac2" x="68.81883" y="228.96" style="fill: #262626; stroke: #262626; stroke-width: 0.6"/>
      </g>
     </g>
    </g>
    <g id="xtick_15">
     <g id="line2d_15">
      <g>
       <use xlink:href="#m138c595ac2" x="85.863423" y="228.96" style="fill: #262626; stroke: #262626; stroke-width: 0.6"/>
      </g>
     </g>
    </g>
    <g id="xtick_16">
     <g id="line2d_16">
      <g>
       <use xlink:href="#m138c595ac2" x="100.274421" y="228.96" style="fill: #262626; stroke: #262626; stroke-width: 0.6"/>
      </g>
     </g>
    </g>
    <g id="xtick_17">
     <g id="line2d_17">
      <g>
       <use xlink:href="#m138c595ac2" x="112.757796" y="228.96" style="fill: #262626; stroke: #262626; stroke-width: 0.6"/>
      </g>
     </g>
    </g>
    <g id="xtick_18">
     <g id="line2d_18">
      <g>
       <use xlink:href="#m138c595ac2" x="123.768912" y="228.96" style="fill: #262626; stroke: #262626; stroke-width: 0.6"/>
      </g>
     </g>
    </g>
    <g id="xtick_19">
     <g id="line2d_19">
      <g>
       <use xlink:href="#m138c595ac2" x="236.324043" y="228.96" style="fill: #262626; stroke: #262626; stroke-width: 0.6"/>
      </g>
     </g>
    </g>
    <g id="xtick_20">
     <g id="line2d_20">
      <g>
       <use xlink:href="#m138c595ac2" x="263.218416" y="228.96" style="fill: #262626; stroke: #262626; stroke-width: 0.6"/>
      </g>
     </g>
    </g>
    <g id="xtick_21">
     <g id="line2d_21">
      <g>
       <use xlink:href="#m138c595ac2" x="301.123905" y="228.96" style="fill: #262626; stroke: #262626; stroke-width: 0.6"/>
      </g>
     </g>
    </g>
    <g id="xtick_22">
     <g id="line2d_22">
      <g>
       <use xlink:href="#m138c595ac2" x="315.534903" y="228.96" style="fill: #262626; stroke: #262626; stroke-width: 0.6"/>
      </g>
     </g>
    </g>
    <g id="xtick_23">
     <g id="line2d_23">
      <g>
       <use xlink:href="#m138c595ac2" x="328.018278" y="228.96" style="fill: #262626; stroke: #262626; stroke-width: 0.6"/>
      </g>
     </g>
    </g>
    <g id="xtick_24">
     <g id="line2d_24">
      <g>
       <use xlink:href="#m138c595ac2" x="339.029394" y="228.96" style="fill: #262626; stroke: #262626; stroke-width: 0.6"/>
      </g>
     </g>
    </g>
    <g id="xtick_25">
     <g id="line2d_25">
      <g>
       <use xlink:href="#m138c595ac2" x="451.584525" y="228.96" style="fill: #262626; stroke: #262626; stroke-width: 0.6"/>
      </g>
     </g>
    </g>
    <g id="xtick_26">
     <g id="line2d_26">
      <g>
       <use xlink:href="#m138c595ac2" x="478.478898" y="228.96" style="fill: #262626; stroke: #262626; stroke-width: 0.6"/>
      </g>
     </g>
    </g>
    <g id="xtick_27">
     <g id="line2d_27">
      <g>
       <use xlink:href="#m138c595ac2" x="516.384387" y="228.96" style="fill: #262626; stroke: #262626; stroke-width: 0.6"/>
      </g>
     </g>
    </g>
    <g id="xtick_28">
     <g id="line2d_28">
      <g>
       <use xlink:href="#m138c595ac2" x="530.795385" y="228.96" style="fill: #262626; stroke: #262626; stroke-width: 0.6"/>
      </g>
     </g>
    </g>
    <g id="xtick_29">
     <g id="line2d_29">
      <g>
       <use xlink:href="#m138c595ac2" x="543.27876" y="228.96" style="fill: #262626; stroke: #262626; stroke-width: 0.6"/>
      </g>
     </g>
    </g>
    <g id="xtick_30">
     <g id="line2d_30">
      <g>
       <use xlink:href="#m138c595ac2" x="554.289876" y="228.96" style="fill: #262626; stroke: #262626; stroke-width: 0.6"/>
      </g>
     </g>
    </g>
    <g id="xtick_31">
     <g id="line2d_31">
      <g>
       <use xlink:href="#m138c595ac2" x="666.845007" y="228.96" style="fill: #262626; stroke: #262626; stroke-width: 0.6"/>
      </g>
     </g>
    </g>
    <g id="xtick_32">
     <g id="line2d_32">
      <g>
       <use xlink:href="#m138c595ac2" x="693.73938" y="228.96" style="fill: #262626; stroke: #262626; stroke-width: 0.6"/>
      </g>
     </g>
    </g>
    <g id="xtick_33">
     <g id="line2d_33">
      <g>
       <use xlink:href="#m138c595ac2" x="731.644869" y="228.96" style="fill: #262626; stroke: #262626; stroke-width: 0.6"/>
      </g>
     </g>
    </g>
    <g id="xtick_34">
     <g id="line2d_34">
      <g>
       <use xlink:href="#m138c595ac2" x="746.055867" y="228.96" style="fill: #262626; stroke: #262626; stroke-width: 0.6"/>
      </g>
     </g>
    </g>
    <g id="xtick_35">
     <g id="line2d_35">
      <g>
       <use xlink:href="#m138c595ac2" x="758.539242" y="228.96" style="fill: #262626; stroke: #262626; stroke-width: 0.6"/>
      </g>
     </g>
    </g>
    <g id="xtick_36">
     <g id="line2d_36">
      <g>
       <use xlink:href="#m138c595ac2" x="769.550359" y="228.96" style="fill: #262626; stroke: #262626; stroke-width: 0.6"/>
      </g>
     </g>
    </g>
    <g id="text_12">
     <text style="font-size: 10px; font-family: 'Arial', 'DejaVu Sans', 'Liberation Sans', 'Bitstream Vera Sans', sans-serif; text-anchor: middle; fill: #262626" x="425.7" y="256.385" transform="rotate(-0 425.7 256.385)">Income or consumption (month)</text>
    </g>
   </g>
   <g id="matplotlib.axis_2"/>
   <g id="FillBetweenPolyCollection_1">
    <defs>
     <path id="ma44764e536" d="M 43.156773 -36.777508 
L 43.156773 -36.729688 
L 45.456218 -36.729688 
L 47.755663 -36.729688 
L 50.055107 -36.729688 
L 52.354552 -36.729688 
L 54.653996 -36.729688 
L 56.953441 -36.729688 
L 59.252885 -36.729688 
L 61.55233 -36.729688 
L 63.851774 -36.729688 
L 66.151219 -36.729688 
L 68.450664 -36.729688 
L 70.750108 -36.729688 
L 73.049553 -36.729688 
L 75.348997 -36.729688 
L 77.648442 -36.729688 
L 79.947886 -36.729688 
L 82.247331 -36.729688 
L 84.546775 -36.729688 
L 86.84622 -36.729688 
L 89.145665 -36.729688 
L 91.445109 -36.729688 
L 93.744554 -36.729688 
L 96.043998 -36.729688 
L 98.343443 -36.729688 
L 100.642887 -36.729688 
L 102.942332 -36.729688 
L 105.241776 -36.729688 
L 107.541221 -36.729688 
L 109.840665 -36.729688 
L 112.14011 -36.729688 
L 114.439555 -36.729688 
L 116.738999 -36.729688 
L 119.038444 -36.729688 
L 121.337888 -36.729688 
L 123.637333 -36.729688 
L 125.936777 -36.729688 
L 128.236222 -36.729688 
L 130.535666 -36.729688 
L 132.835111 -36.729688 
L 135.134556 -36.729688 
L 137.434 -36.729688 
L 139.733445 -36.729688 
L 142.032889 -36.729688 
L 144.332334 -36.729688 
L 146.631778 -36.729688 
L 148.931223 -36.729688 
L 151.230667 -36.729688 
L 153.530112 -36.729688 
L 155.829557 -36.729688 
L 158.129001 -36.729688 
L 160.428446 -36.729688 
L 162.72789 -36.729688 
L 165.027335 -36.729688 
L 167.326779 -36.729688 
L 169.626224 -36.729688 
L 171.925668 -36.729688 
L 174.225113 -36.729688 
L 176.524558 -36.729688 
L 178.824002 -36.729688 
L 181.123447 -36.729688 
L 183.422891 -36.729688 
L 185.722336 -36.729688 
L 188.02178 -36.729688 
L 190.321225 -36.729688 
L 192.620669 -36.729688 
L 194.920114 -36.729688 
L 197.219559 -36.729688 
L 199.519003 -36.729688 
L 201.818448 -36.729688 
L 204.117892 -36.729688 
L 206.417337 -36.729688 
L 208.716781 -36.729688 
L 211.016226 -36.729688 
L 213.31567 -36.729688 
L 215.615115 -36.729688 
L 217.91456 -36.729688 
L 220.214004 -36.729688 
L 222.513449 -36.729688 
L 224.812893 -36.729688 
L 227.112338 -36.729688 
L 229.411782 -36.729688 
L 231.711227 -36.729688 
L 234.010671 -36.729688 
L 236.310116 -36.729688 
L 238.609561 -36.729688 
L 240.909005 -36.729688 
L 243.20845 -36.729688 
L 245.507894 -36.729688 
L 247.807339 -36.729688 
L 250.106783 -36.729688 
L 252.406228 -36.729688 
L 254.705672 -36.729688 
L 257.005117 -36.729688 
L 259.304562 -36.729688 
L 261.604006 -36.729688 
L 263.903451 -36.729688 
L 266.202895 -36.729688 
L 268.50234 -36.729688 
L 270.801784 -36.729688 
L 273.101229 -36.729688 
L 275.400673 -36.729688 
L 277.700118 -36.729688 
L 279.999563 -36.729688 
L 282.299007 -36.729688 
L 284.598452 -36.729688 
L 286.897896 -36.729688 
L 289.197341 -36.729688 
L 291.496785 -36.729688 
L 293.79623 -36.729688 
L 296.095674 -36.729688 
L 298.395119 -36.729688 
L 300.694564 -36.729688 
L 302.994008 -36.729688 
L 305.293453 -36.729688 
L 307.592897 -36.729688 
L 309.892342 -36.729688 
L 312.191786 -36.729688 
L 314.491231 -36.729688 
L 316.790675 -36.729688 
L 319.09012 -36.729688 
L 321.389564 -36.729688 
L 323.689009 -36.729688 
L 325.988454 -36.729688 
L 328.287898 -36.729688 
L 330.587343 -36.729688 
L 332.886787 -36.729688 
L 335.186232 -36.729688 
L 337.485676 -36.729688 
L 339.785121 -36.729688 
L 342.084565 -36.729688 
L 344.38401 -36.729688 
L 346.683455 -36.729688 
L 348.982899 -36.729688 
L 351.282344 -36.729688 
L 353.581788 -36.729688 
L 355.881233 -36.729688 
L 358.180677 -36.729688 
L 360.480122 -36.729688 
L 362.779566 -36.729688 
L 365.079011 -36.729688 
L 367.378456 -36.729688 
L 369.6779 -36.729688 
L 371.977345 -36.729688 
L 374.276789 -36.729688 
L 376.576234 -36.729688 
L 378.875678 -36.729688 
L 381.175123 -36.729688 
L 383.474567 -36.729688 
L 385.774012 -36.729688 
L 388.073457 -36.729688 
L 390.372901 -36.729688 
L 392.672346 -36.729688 
L 394.97179 -36.729688 
L 397.271235 -36.729688 
L 399.570679 -36.729688 
L 401.870124 -36.729688 
L 404.169568 -36.729688 
L 406.469013 -36.729688 
L 408.768458 -36.729688 
L 411.067902 -36.729688 
L 413.367347 -36.729688 
L 415.666791 -36.729688 
L 417.966236 -36.729688 
L 420.26568 -36.729688 
L 422.565125 -36.729688 
L 424.864569 -36.729688 
L 427.164014 -36.729688 
L 429.463459 -36.729688 
L 431.762903 -36.729688 
L 434.062348 -36.729688 
L 436.361792 -36.729688 
L 438.661237 -36.729688 
L 440.960681 -36.729688 
L 443.260126 -36.729688 
L 445.55957 -36.729688 
L 447.859015 -36.729688 
L 450.15846 -36.729688 
L 452.457904 -36.729688 
L 454.757349 -36.729688 
L 457.056793 -36.729688 
L 459.356238 -36.729688 
L 461.655682 -36.729688 
L 463.955127 -36.729688 
L 466.254571 -36.729688 
L 468.554016 -36.729688 
L 470.853461 -36.729688 
L 473.152905 -36.729688 
L 475.45235 -36.729688 
L 477.751794 -36.729688 
L 480.051239 -36.729688 
L 482.350683 -36.729688 
L 484.650128 -36.729688 
L 486.949572 -36.729688 
L 489.249017 -36.729688 
L 491.548462 -36.729688 
L 493.847906 -36.729688 
L 496.147351 -36.729688 
L 498.446795 -36.729688 
L 500.74624 -36.729688 
L 500.74624 -36.775096 
L 500.74624 -36.775096 
L 498.446795 -36.789484 
L 496.147351 -36.807839 
L 493.847906 -36.831064 
L 491.548462 -36.860214 
L 489.249017 -36.896505 
L 486.949572 -36.941322 
L 484.650128 -36.996224 
L 482.350683 -37.062943 
L 480.051239 -37.14338 
L 477.751794 -37.239587 
L 475.45235 -37.353751 
L 473.152905 -37.488167 
L 470.853461 -37.645202 
L 468.554016 -37.827254 
L 466.254571 -38.036702 
L 463.955127 -38.275858 
L 461.655682 -38.546908 
L 459.356238 -38.851858 
L 457.056793 -39.192477 
L 454.757349 -39.570248 
L 452.457904 -39.986326 
L 450.15846 -40.441503 
L 447.859015 -40.936185 
L 445.55957 -41.470384 
L 443.260126 -42.043726 
L 440.960681 -42.655474 
L 438.661237 -43.304562 
L 436.361792 -43.989649 
L 434.062348 -44.70918 
L 431.762903 -45.461466 
L 429.463459 -46.244758 
L 427.164014 -47.057331 
L 424.864569 -47.897572 
L 422.565125 -48.764052 
L 420.26568 -49.655598 
L 417.966236 -50.571354 
L 415.666791 -51.51082 
L 413.367347 -52.473885 
L 411.067902 -53.460831 
L 408.768458 -54.472333 
L 406.469013 -55.509426 
L 404.169568 -56.573473 
L 401.870124 -57.666104 
L 399.570679 -58.789151 
L 397.271235 -59.944582 
L 394.97179 -61.134419 
L 392.672346 -62.360662 
L 390.372901 -63.625222 
L 388.073457 -64.929849 
L 385.774012 -66.276084 
L 383.474567 -67.665213 
L 381.175123 -69.098243 
L 378.875678 -70.575885 
L 376.576234 -72.09856 
L 374.276789 -73.666415 
L 371.977345 -75.27935 
L 369.6779 -76.937055 
L 367.378456 -78.639054 
L 365.079011 -80.38475 
L 362.779566 -82.173472 
L 360.480122 -84.004511 
L 358.180677 -85.877155 
L 355.881233 -87.790707 
L 353.581788 -89.744497 
L 351.282344 -91.737875 
L 348.982899 -93.770191 
L 346.683455 -95.840766 
L 344.38401 -97.948852 
L 342.084565 -100.093576 
L 339.785121 -102.27389 
L 337.485676 -104.488511 
L 335.186232 -106.735867 
L 332.886787 -109.014049 
L 330.587343 -111.320765 
L 328.287898 -113.653311 
L 325.988454 -116.008547 
L 323.689009 -118.382895 
L 321.389564 -120.772332 
L 319.09012 -123.172411 
L 316.790675 -125.578274 
L 314.491231 -127.984685 
L 312.191786 -130.386052 
L 309.892342 -132.77646 
L 307.592897 -135.149699 
L 305.293453 -137.499279 
L 302.994008 -139.818457 
L 300.694564 -142.100241 
L 298.395119 -144.337398 
L 296.095674 -146.52246 
L 293.79623 -148.647717 
L 291.496785 -150.705226 
L 289.197341 -152.686812 
L 286.897896 -154.584081 
L 284.598452 -156.388446 
L 282.299007 -158.09116 
L 279.999563 -159.683374 
L 277.700118 -161.156206 
L 275.400673 -162.500825 
L 273.101229 -163.708564 
L 270.801784 -164.771039 
L 268.50234 -165.680281 
L 266.202895 -166.428881 
L 263.903451 -167.01014 
L 261.604006 -167.41821 
L 259.304562 -167.648235 
L 257.005117 -167.696475 
L 254.705672 -167.56041 
L 252.406228 -167.238826 
L 250.106783 -166.731864 
L 247.807339 -166.041046 
L 245.507894 -165.169265 
L 243.20845 -164.120741 
L 240.909005 -162.90095 
L 238.609561 -161.516524 
L 236.310116 -159.975129 
L 234.010671 -158.285318 
L 231.711227 -156.456382 
L 229.411782 -154.498185 
L 227.112338 -152.421005 
L 224.812893 -150.235374 
L 222.513449 -147.951935 
L 220.214004 -145.581308 
L 217.91456 -143.133968 
L 215.615115 -140.620152 
L 213.31567 -138.049777 
L 211.016226 -135.432371 
L 208.716781 -132.777031 
L 206.417337 -130.092389 
L 204.117892 -127.38659 
L 201.818448 -124.667281 
L 199.519003 -121.941612 
L 197.219559 -119.216231 
L 194.920114 -116.497298 
L 192.620669 -113.790494 
L 190.321225 -111.101036 
L 188.02178 -108.43369 
L 185.722336 -105.792795 
L 183.422891 -103.182285 
L 181.123447 -100.605711 
L 178.824002 -98.066269 
L 176.524558 -95.56683 
L 174.225113 -93.109969 
L 171.925668 -90.69799 
L 169.626224 -88.332959 
L 167.326779 -86.016723 
L 165.027335 -83.750931 
L 162.72789 -81.537051 
L 160.428446 -79.376377 
L 158.129001 -77.270036 
L 155.829557 -75.218986 
L 153.530112 -73.224016 
L 151.230667 -71.285738 
L 148.931223 -69.404591 
L 146.631778 -67.58083 
L 144.332334 -65.814538 
L 142.032889 -64.105633 
L 139.733445 -62.453883 
L 137.434 -60.85893 
L 135.134556 -59.32032 
L 132.835111 -57.837536 
L 130.535666 -56.410037 
L 128.236222 -55.037295 
L 125.936777 -53.71883 
L 123.637333 -52.454237 
L 121.337888 -51.243211 
L 119.038444 -50.085557 
L 116.738999 -48.981187 
L 114.439555 -47.930111 
L 112.14011 -46.932408 
L 109.840665 -45.988195 
L 107.541221 -45.097578 
L 105.241776 -44.260608 
L 102.942332 -43.477223 
L 100.642887 -42.747202 
L 98.343443 -42.070114 
L 96.043998 -41.44528 
L 93.744554 -40.871744 
L 91.445109 -40.348253 
L 89.145665 -39.873251 
L 86.84622 -39.444889 
L 84.546775 -39.061042 
L 82.247331 -38.71934 
L 79.947886 -38.417206 
L 77.648442 -38.151905 
L 75.348997 -37.920592 
L 73.049553 -37.720364 
L 70.750108 -37.548313 
L 68.450664 -37.40157 
L 66.151219 -37.277355 
L 63.851774 -37.173009 
L 61.55233 -37.086028 
L 59.252885 -37.014083 
L 56.953441 -36.95504 
L 54.653996 -36.906967 
L 52.354552 -36.868134 
L 50.055107 -36.837015 
L 47.755663 -36.812277 
L 45.456218 -36.792769 
L 43.156773 -36.777508 
z
" style="stroke: #dd8452"/>
    </defs>
    <g>
     <use xlink:href="#ma44764e536" x="0" y="265.689687" style="fill: #dd8452; fill-opacity: 0.25; stroke: #dd8452"/>
    </g>
   </g>
   <g id="FillBetweenPolyCollection_2">
    <defs>
     <path id="m84670353a9" d="M 463.70497 -36.794212 
L 463.70497 -36.729688 
L 465.205408 -36.729688 
L 466.705847 -36.729688 
L 468.206286 -36.729688 
L 469.706724 -36.729688 
L 471.207163 -36.729688 
L 472.707601 -36.729688 
L 474.20804 -36.729688 
L 475.708478 -36.729688 
L 477.208917 -36.729688 
L 478.709355 -36.729688 
L 480.209794 -36.729688 
L 481.710233 -36.729688 
L 483.210671 -36.729688 
L 484.71111 -36.729688 
L 486.211548 -36.729688 
L 487.711987 -36.729688 
L 489.212425 -36.729688 
L 490.712864 -36.729688 
L 492.213302 -36.729688 
L 493.713741 -36.729688 
L 495.214179 -36.729688 
L 496.714618 -36.729688 
L 498.215057 -36.729688 
L 499.715495 -36.729688 
L 501.215934 -36.729688 
L 502.716372 -36.729688 
L 504.216811 -36.729688 
L 505.717249 -36.729688 
L 507.217688 -36.729688 
L 508.718126 -36.729688 
L 510.218565 -36.729688 
L 511.719004 -36.729688 
L 513.219442 -36.729688 
L 514.719881 -36.729688 
L 516.220319 -36.729688 
L 517.720758 -36.729688 
L 519.221196 -36.729688 
L 520.721635 -36.729688 
L 522.222073 -36.729688 
L 523.722512 -36.729688 
L 525.222951 -36.729688 
L 526.723389 -36.729688 
L 528.223828 -36.729688 
L 529.724266 -36.729688 
L 531.224705 -36.729688 
L 532.725143 -36.729688 
L 534.225582 -36.729688 
L 535.72602 -36.729688 
L 537.226459 -36.729688 
L 538.726897 -36.729688 
L 540.227336 -36.729688 
L 541.727775 -36.729688 
L 543.228213 -36.729688 
L 544.728652 -36.729688 
L 546.22909 -36.729688 
L 547.729529 -36.729688 
L 549.229967 -36.729688 
L 550.730406 -36.729688 
L 552.230844 -36.729688 
L 553.731283 -36.729688 
L 555.231722 -36.729688 
L 556.73216 -36.729688 
L 558.232599 -36.729688 
L 559.733037 -36.729688 
L 561.233476 -36.729688 
L 562.733914 -36.729688 
L 564.234353 -36.729688 
L 565.734791 -36.729688 
L 567.23523 -36.729688 
L 568.735669 -36.729688 
L 570.236107 -36.729688 
L 571.736546 -36.729688 
L 573.236984 -36.729688 
L 574.737423 -36.729688 
L 576.237861 -36.729688 
L 577.7383 -36.729688 
L 579.238738 -36.729688 
L 580.739177 -36.729688 
L 582.239616 -36.729688 
L 583.740054 -36.729688 
L 585.240493 -36.729688 
L 586.740931 -36.729688 
L 588.24137 -36.729688 
L 589.741808 -36.729688 
L 591.242247 -36.729688 
L 592.742685 -36.729688 
L 594.243124 -36.729688 
L 595.743562 -36.729688 
L 597.244001 -36.729688 
L 598.74444 -36.729688 
L 600.244878 -36.729688 
L 601.745317 -36.729688 
L 603.245755 -36.729688 
L 604.746194 -36.729688 
L 606.246632 -36.729688 
L 607.747071 -36.729688 
L 609.247509 -36.729688 
L 610.747948 -36.729688 
L 612.248387 -36.729688 
L 613.748825 -36.729688 
L 615.249264 -36.729688 
L 616.749702 -36.729688 
L 618.250141 -36.729688 
L 619.750579 -36.729688 
L 621.251018 -36.729688 
L 622.751456 -36.729688 
L 624.251895 -36.729688 
L 625.752334 -36.729688 
L 627.252772 -36.729688 
L 628.753211 -36.729688 
L 630.253649 -36.729688 
L 631.754088 -36.729688 
L 633.254526 -36.729688 
L 634.754965 -36.729688 
L 636.255403 -36.729688 
L 637.755842 -36.729688 
L 639.256281 -36.729688 
L 640.756719 -36.729688 
L 642.257158 -36.729688 
L 643.757596 -36.729688 
L 645.258035 -36.729688 
L 646.758473 -36.729688 
L 648.258912 -36.729688 
L 649.75935 -36.729688 
L 651.259789 -36.729688 
L 652.760227 -36.729688 
L 654.260666 -36.729688 
L 655.761105 -36.729688 
L 657.261543 -36.729688 
L 658.761982 -36.729688 
L 660.26242 -36.729688 
L 661.762859 -36.729688 
L 663.263297 -36.729688 
L 664.763736 -36.729688 
L 666.264174 -36.729688 
L 667.764613 -36.729688 
L 669.265052 -36.729688 
L 670.76549 -36.729688 
L 672.265929 -36.729688 
L 673.766367 -36.729688 
L 675.266806 -36.729688 
L 676.767244 -36.729688 
L 678.267683 -36.729688 
L 679.768121 -36.729688 
L 681.26856 -36.729688 
L 682.768999 -36.729688 
L 684.269437 -36.729688 
L 685.769876 -36.729688 
L 687.270314 -36.729688 
L 688.770753 -36.729688 
L 690.271191 -36.729688 
L 691.77163 -36.729688 
L 693.272068 -36.729688 
L 694.772507 -36.729688 
L 696.272946 -36.729688 
L 697.773384 -36.729688 
L 699.273823 -36.729688 
L 700.774261 -36.729688 
L 702.2747 -36.729688 
L 703.775138 -36.729688 
L 705.275577 -36.729688 
L 706.776015 -36.729688 
L 708.276454 -36.729688 
L 709.776892 -36.729688 
L 711.277331 -36.729688 
L 712.77777 -36.729688 
L 714.278208 -36.729688 
L 715.778647 -36.729688 
L 717.279085 -36.729688 
L 718.779524 -36.729688 
L 720.279962 -36.729688 
L 721.780401 -36.729688 
L 723.280839 -36.729688 
L 724.781278 -36.729688 
L 726.281717 -36.729688 
L 727.782155 -36.729688 
L 729.282594 -36.729688 
L 730.783032 -36.729688 
L 732.283471 -36.729688 
L 733.783909 -36.729688 
L 735.284348 -36.729688 
L 736.784786 -36.729688 
L 738.285225 -36.729688 
L 739.785664 -36.729688 
L 741.286102 -36.729688 
L 742.786541 -36.729688 
L 744.286979 -36.729688 
L 745.787418 -36.729688 
L 747.287856 -36.729688 
L 748.788295 -36.729688 
L 750.288733 -36.729688 
L 751.789172 -36.729688 
L 753.28961 -36.729688 
L 754.790049 -36.729688 
L 756.290488 -36.729688 
L 757.790926 -36.729688 
L 759.291365 -36.729688 
L 760.791803 -36.729688 
L 762.292242 -36.729688 
L 762.292242 -36.800619 
L 762.292242 -36.800619 
L 760.791803 -36.824156 
L 759.291365 -36.854473 
L 757.790926 -36.893175 
L 756.290488 -36.942147 
L 754.790049 -37.003573 
L 753.28961 -37.079948 
L 751.789172 -37.174089 
L 750.288733 -37.289134 
L 748.788295 -37.428529 
L 747.287856 -37.596005 
L 745.787418 -37.795548 
L 744.286979 -38.031347 
L 742.786541 -38.307739 
L 741.286102 -38.629141 
L 739.785664 -38.999983 
L 738.285225 -39.42462 
L 736.784786 -39.907269 
L 735.284348 -40.451929 
L 733.783909 -41.062324 
L 732.283471 -41.741851 
L 730.783032 -42.493554 
L 729.282594 -43.32011 
L 727.782155 -44.223836 
L 726.281717 -45.206722 
L 724.781278 -46.270475 
L 723.280839 -47.416584 
L 721.780401 -48.646394 
L 720.279962 -49.961177 
L 718.779524 -51.362215 
L 717.279085 -52.850858 
L 715.778647 -54.428577 
L 714.278208 -56.096992 
L 712.77777 -57.857875 
L 711.277331 -59.713125 
L 709.776892 -61.664719 
L 708.276454 -63.714632 
L 706.776015 -65.864738 
L 705.275577 -68.116692 
L 703.775138 -70.47181 
L 702.2747 -72.930933 
L 700.774261 -75.494314 
L 699.273823 -78.161505 
L 697.773384 -80.931275 
L 696.272946 -83.801553 
L 694.772507 -86.769398 
L 693.272068 -89.831015 
L 691.77163 -92.981791 
L 690.271191 -96.216384 
L 688.770753 -99.528822 
L 687.270314 -102.912646 
L 685.769876 -106.361066 
L 684.269437 -109.867125 
L 682.768999 -113.423874 
L 681.26856 -117.024544 
L 679.768121 -120.6627 
L 678.267683 -124.332381 
L 676.767244 -128.028207 
L 675.266806 -131.745461 
L 673.766367 -135.480128 
L 672.265929 -139.2289 
L 670.76549 -142.989132 
L 669.265052 -146.758774 
L 667.764613 -150.536249 
L 666.264174 -154.320317 
L 664.763736 -158.109904 
L 663.263297 -161.903915 
L 661.762859 -165.701049 
L 660.26242 -169.4996 
L 658.761982 -173.297283 
L 657.261543 -177.091075 
L 655.761105 -180.877083 
L 654.260666 -184.650447 
L 652.760227 -188.405293 
L 651.259789 -192.134718 
L 649.75935 -195.830828 
L 648.258912 -199.484817 
L 646.758473 -203.087079 
L 645.258035 -206.627357 
L 643.757596 -210.094909 
L 642.257158 -213.478688 
L 640.756719 -216.767508 
L 639.256281 -219.950208 
L 637.755842 -223.015785 
L 636.255403 -225.95348 
L 634.754965 -228.752837 
L 633.254526 -231.403698 
L 631.754088 -233.896164 
L 630.253649 -236.220498 
L 628.753211 -238.367004 
L 627.252772 -240.325881 
L 625.752334 -242.087062 
L 624.251895 -243.640075 
L 622.751456 -244.973919 
L 621.251018 -246.07699 
L 619.750579 -246.93707 
L 618.250141 -247.54138 
L 616.749702 -247.87672 
L 615.249264 -247.929688 
L 613.748825 -247.686974 
L 612.248387 -247.135737 
L 610.747948 -246.264026 
L 609.247509 -245.06125 
L 607.747071 -243.518666 
L 606.246632 -241.629856 
L 604.746194 -239.391183 
L 603.245755 -236.802194 
L 601.745317 -233.865944 
L 600.244878 -230.589235 
L 598.74444 -226.98275 
L 597.244001 -223.061072 
L 595.743562 -218.842591 
L 594.243124 -214.349292 
L 592.742685 -209.606443 
L 591.242247 -204.642183 
L 589.741808 -199.487041 
L 588.24137 -194.173384 
L 586.740931 -188.734834 
L 585.240493 -183.205664 
L 583.740054 -177.620188 
L 582.239616 -172.012182 
L 580.739177 -166.414333 
L 579.238738 -160.857737 
L 577.7383 -155.371465 
L 576.237861 -149.982188 
L 574.737423 -144.713882 
L 573.236984 -139.587602 
L 571.736546 -134.621338 
L 570.236107 -129.829931 
L 568.735669 -125.225066 
L 567.23523 -120.81532 
L 565.734791 -116.606264 
L 564.234353 -112.600619 
L 562.733914 -108.798442 
L 561.233476 -105.197356 
L 559.733037 -101.792804 
L 558.232599 -98.578319 
L 556.73216 -95.545819 
L 555.231722 -92.685906 
L 553.731283 -89.988175 
L 552.230844 -87.441522 
L 550.730406 -85.034447 
L 549.229967 -82.755351 
L 547.729529 -80.59281 
L 546.22909 -78.535836 
L 544.728652 -76.574104 
L 543.228213 -74.698146 
L 541.727775 -72.899502 
L 540.227336 -71.170831 
L 538.726897 -69.505962 
L 537.226459 -67.899908 
L 535.72602 -66.348811 
L 534.225582 -64.849857 
L 532.725143 -63.401138 
L 531.224705 -62.001486 
L 529.724266 -60.65028 
L 528.223828 -59.347251 
L 526.723389 -58.092284 
L 525.222951 -56.885237 
L 523.722512 -55.725794 
L 522.222073 -54.613344 
L 520.721635 -53.54692 
L 519.221196 -52.525166 
L 517.720758 -51.546367 
L 516.220319 -50.608507 
L 514.719881 -49.709369 
L 513.219442 -48.846653 
L 511.719004 -48.018107 
L 510.218565 -47.221657 
L 508.718126 -46.45552 
L 507.217688 -45.718298 
L 505.717249 -45.00904 
L 504.216811 -44.327268 
L 502.716372 -43.672967 
L 501.215934 -43.046537 
L 499.715495 -42.448724 
L 498.215057 -41.880514 
L 496.714618 -41.343024 
L 495.214179 -40.837386 
L 493.713741 -40.364628 
L 492.213302 -39.925571 
L 490.712864 -39.520746 
L 489.212425 -39.150327 
L 487.711987 -38.814096 
L 486.211548 -38.511426 
L 484.71111 -38.241294 
L 483.210671 -38.002312 
L 481.710233 -37.792774 
L 480.209794 -37.610717 
L 478.709355 -37.453986 
L 477.208917 -37.320308 
L 475.708478 -37.207355 
L 474.20804 -37.112808 
L 472.707601 -37.034413 
L 471.207163 -36.970024 
L 469.706724 -36.917639 
L 468.206286 -36.875423 
L 466.705847 -36.841724 
L 465.205408 -36.81508 
L 463.70497 -36.794212 
z
" style="stroke: #4c72b0"/>
    </defs>
    <g>
     <use xlink:href="#m84670353a9" x="0" y="265.689687" style="fill: #4c72b0; fill-opacity: 0.25; stroke: #4c72b0"/>
    </g>
   </g>
   <g id="line2d_37">
    <path d="M 339.029394 228.96 
L 339.029394 7.2 
" style="fill: none; stroke-dasharray: 0.8,1.32; stroke-dashoffset: 0; stroke: #d3d3d3; stroke-width: 0.8"/>
   </g>
   <g id="line2d_38">
    <path d="M 448.253863 228.96 
L 448.253863 7.2 
" style="fill: none; stroke-dasharray: 0.8,1.32; stroke-dashoffset: 0; stroke: #d3d3d3; stroke-width: 0.8"/>
   </g>
   <g id="line2d_39">
    <path d="M 7.2 228.96 
L 844.2 228.96 
" style="fill: none; stroke: #808080; stroke-width: 0.5; stroke-linecap: round"/>
   </g>
   <g id="text_13">
    <text style="font-size: 8px; font-family: 'Arial', 'DejaVu Sans', 'Liberation Sans', 'Bitstream Vera Sans', sans-serif; fill: #808080" transform="translate(345.283144 117.9251) rotate(-90)">International Poverty Line: $90</text>
   </g>
   <g id="text_14">
    <text style="font-size: 8px; font-family: 'Arial', 'DejaVu Sans', 'Liberation Sans', 'Bitstream Vera Sans', sans-serif; fill: #808080" transform="translate(453.980113 80.86635) rotate(-90)">World median: $289</text>
   </g>
   <g id="text_15">
    <text style="font-size: 10px; font-family: 'Arial', 'DejaVu Sans', 'Liberation Sans', 'Bitstream Vera Sans', sans-serif; text-anchor: middle" x="619.798336" y="226.855312" transform="rotate(-0 619.798336 226.855312)">Denmark (2023)</text>
   </g>
   <g id="text_16">
    <text style="font-size: 10px; font-family: 'Arial', 'DejaVu Sans', 'Liberation Sans', 'Bitstream Vera Sans', sans-serif; text-anchor: middle" x="261.230958" y="226.855312" transform="rotate(-0 261.230958 226.855312)">Democratic Republic of Congo (2020)</text>
   </g>
  </g>
 </g>
</svg>
