<?xml version="1.0" encoding="utf-8" standalone="no"?>
<!DOCTYPE svg PUBLIC "-//W3C//DTD SVG 1.1//EN"
  "http://www.w3.org/Graphics/SVG/1.1/DTD/svg11.dtd">
<svg xmlns:xlink="http://www.w3.org/1999/xlink" width="865.302344pt" height="265.689687pt" viewBox="0 0 865.302344 265.689687" xmlns="http://www.w3.org/2000/svg" version="1.1">
 <metadata>
  <rdf:RDF xmlns:dc="http://purl.org/dc/elements/1.1/" xmlns:cc="http://creativecommons.org/ns#" xmlns:rdf="http://www.w3.org/1999/02/22-rdf-syntax-ns#">
   <cc:Work>
    <dc:type rdf:resource="http://purl.org/dc/dcmitype/StillImage"/>
    <dc:date>2026-05-22T12:42:20.977394</dc:date>
    <dc:format>image/svg+xml</dc:format>
    <dc:creator>
     <cc:Agent>
      <dc:title>Matplotlib v3.10.9, https://matplotlib.org/</dc:title>
     </cc:Agent>
    </dc:creator>
   </cc:Work>
  </rdf:RDF>
 </metadata>
 <defs>
  <style type="text/css">*{stroke-linejoin: round; stroke-linecap: butt}</style>
 </defs>
 <g id="figure_1">
  <g id="patch_1">
   <path d="M 0 265.689687 
L 865.302344 265.689687 
L 865.302344 0 
L 0 0 
z
" style="fill: #ffffff"/>
  </g>
  <g id="axes_1">
   <g id="patch_2">
    <path d="M 7.2 228.96 
L 844.2 228.96 
L 844.2 7.2 
L 7.2 7.2 
z
" style="fill: #ffffff"/>
   </g>
   <g id="matplotlib.axis_1">
    <g id="xtick_1">
     <g id="line2d_1">
      <defs>
       <path id="mb5b91b0ed9" d="M 0 0 
L 0 3.5 
" style="stroke: #262626; stroke-width: 0.8"/>
      </defs>
      <g>
       <use xlink:href="#mb5b91b0ed9" x="69.486392" y="228.96" style="fill: #262626; stroke: #262626; stroke-width: 0.8"/>
      </g>
     </g>
     <g id="text_1">
      <text style="font-size: 10px; font-family: 'Arial', 'DejaVu Sans', 'Liberation Sans', 'Bitstream Vera Sans', sans-serif; text-anchor: middle; fill: #262626" x="69.486392" y="243.117812" transform="rotate(-0 69.486392 243.117812)">$1</text>
     </g>
    </g>
    <g id="xtick_2">
     <g id="line2d_2">
      <g>
       <use xlink:href="#mb5b91b0ed9" x="147.223736" y="228.96" style="fill: #262626; stroke: #262626; stroke-width: 0.8"/>
      </g>
     </g>
     <g id="text_2">
      <text style="font-size: 10px; font-family: 'Arial', 'DejaVu Sans', 'Liberation Sans', 'Bitstream Vera Sans', sans-serif; text-anchor: middle; fill: #262626" x="147.223736" y="243.117812" transform="rotate(-0 147.223736 243.117812)">$2</text>
     </g>
    </g>
    <g id="xtick_3">
     <g id="line2d_3">
      <g>
       <use xlink:href="#mb5b91b0ed9" x="249.986916" y="228.96" style="fill: #262626; stroke: #262626; stroke-width: 0.8"/>
      </g>
     </g>
     <g id="text_3">
      <text style="font-size: 10px; font-family: 'Arial', 'DejaVu Sans', 'Liberation Sans', 'Bitstream Vera Sans', sans-serif; text-anchor: middle; fill: #262626" x="249.986916" y="243.117812" transform="rotate(-0 249.986916 243.117812)">$5</text>
     </g>
    </g>
    <g id="xtick_4">
     <g id="line2d_4">
      <g>
       <use xlink:href="#mb5b91b0ed9" x="327.724261" y="228.96" style="fill: #262626; stroke: #262626; stroke-width: 0.8"/>
      </g>
     </g>
     <g id="text_4">
      <text style="font-size: 10px; font-family: 'Arial', 'DejaVu Sans', 'Liberation Sans', 'Bitstream Vera Sans', sans-serif; text-anchor: middle; fill: #262626" x="327.724261" y="243.117812" transform="rotate(-0 327.724261 243.117812)">$10</text>
     </g>
    </g>
    <g id="xtick_5">
     <g id="line2d_5">
      <g>
       <use xlink:href="#mb5b91b0ed9" x="405.461606" y="228.96" style="fill: #262626; stroke: #262626; stroke-width: 0.8"/>
      </g>
     </g>
     <g id="text_5">
      <text style="font-size: 10px; font-family: 'Arial', 'DejaVu Sans', 'Liberation Sans', 'Bitstream Vera Sans', sans-serif; text-anchor: middle; fill: #262626" x="405.461606" y="243.117812" transform="rotate(-0 405.461606 243.117812)">$20</text>
     </g>
    </g>
    <g id="xtick_6">
     <g id="line2d_6">
      <g>
       <use xlink:href="#mb5b91b0ed9" x="508.224786" y="228.96" style="fill: #262626; stroke: #262626; stroke-width: 0.8"/>
      </g>
     </g>
     <g id="text_6">
      <text style="font-size: 10px; font-family: 'Arial', 'DejaVu Sans', 'Liberation Sans', 'Bitstream Vera Sans', sans-serif; text-anchor: middle; fill: #262626" x="508.224786" y="243.117812" transform="rotate(-0 508.224786 243.117812)">$50</text>
     </g>
    </g>
    <g id="xtick_7">
     <g id="line2d_7">
      <g>
       <use xlink:href="#mb5b91b0ed9" x="585.962131" y="228.96" style="fill: #262626; stroke: #262626; stroke-width: 0.8"/>
      </g>
     </g>
     <g id="text_7">
      <text style="font-size: 10px; font-family: 'Arial', 'DejaVu Sans', 'Liberation Sans', 'Bitstream Vera Sans', sans-serif; text-anchor: middle; fill: #262626" x="585.962131" y="243.117812" transform="rotate(-0 585.962131 243.117812)">$100</text>
     </g>
    </g>
    <g id="xtick_8">
     <g id="line2d_8">
      <g>
       <use xlink:href="#mb5b91b0ed9" x="663.699475" y="228.96" style="fill: #262626; stroke: #262626; stroke-width: 0.8"/>
      </g>
     </g>
     <g id="text_8">
      <text style="font-size: 10px; font-family: 'Arial', 'DejaVu Sans', 'Liberation Sans', 'Bitstream Vera Sans', sans-serif; text-anchor: middle; fill: #262626" x="663.699475" y="243.117812" transform="rotate(-0 663.699475 243.117812)">$200</text>
     </g>
    </g>
    <g id="xtick_9">
     <g id="line2d_9">
      <g>
       <use xlink:href="#mb5b91b0ed9" x="766.462655" y="228.96" style="fill: #262626; stroke: #262626; stroke-width: 0.8"/>
      </g>
     </g>
     <g id="text_9">
      <text style="font-size: 10px; font-family: 'Arial', 'DejaVu Sans', 'Liberation Sans', 'Bitstream Vera Sans', sans-serif; text-anchor: middle; fill: #262626" x="766.462655" y="243.117812" transform="rotate(-0 766.462655 243.117812)">$500</text>
     </g>
    </g>
    <g id="xtick_10">
     <g id="line2d_10">
      <g>
       <use xlink:href="#mb5b91b0ed9" x="844.2" y="228.96" style="fill: #262626; stroke: #262626; stroke-width: 0.8"/>
      </g>
     </g>
     <g id="text_10">
      <text style="font-size: 10px; font-family: 'Arial', 'DejaVu Sans', 'Liberation Sans', 'Bitstream Vera Sans', sans-serif; text-anchor: middle; fill: #262626" x="844.2" y="243.117812" transform="rotate(-0 844.2 243.117812)">$1000</text>
     </g>
    </g>
    <g id="xtick_11">
     <g id="line2d_11">
      <defs>
       <path id="m10678b75bd" d="M 0 0 
L 0 2 
" style="stroke: #262626; stroke-width: 0.6"/>
      </defs>
      <g>
       <use xlink:href="#m10678b75bd" x="12.196643" y="228.96" style="fill: #262626; stroke: #262626; stroke-width: 0.6"/>
      </g>
     </g>
    </g>
    <g id="xtick_12">
     <g id="line2d_12">
      <g>
       <use xlink:href="#m10678b75bd" x="29.48484" y="228.96" style="fill: #262626; stroke: #262626; stroke-width: 0.6"/>
      </g>
     </g>
    </g>
    <g id="xtick_13">
     <g id="line2d_13">
      <g>
       <use xlink:href="#m10678b75bd" x="44.460556" y="228.96" style="fill: #262626; stroke: #262626; stroke-width: 0.6"/>
      </g>
     </g>
    </g>
    <g id="xtick_14">
     <g id="line2d_14">
      <g>
       <use xlink:href="#m10678b75bd" x="57.670075" y="228.96" style="fill: #262626; stroke: #262626; stroke-width: 0.6"/>
      </g>
     </g>
    </g>
    <g id="xtick_15">
     <g id="line2d_15">
      <g>
       <use xlink:href="#m10678b75bd" x="192.697168" y="228.96" style="fill: #262626; stroke: #262626; stroke-width: 0.6"/>
      </g>
     </g>
    </g>
    <g id="xtick_16">
     <g id="line2d_16">
      <g>
       <use xlink:href="#m10678b75bd" x="224.961081" y="228.96" style="fill: #262626; stroke: #262626; stroke-width: 0.6"/>
      </g>
     </g>
    </g>
    <g id="xtick_17">
     <g id="line2d_17">
      <g>
       <use xlink:href="#m10678b75bd" x="270.434513" y="228.96" style="fill: #262626; stroke: #262626; stroke-width: 0.6"/>
      </g>
     </g>
    </g>
    <g id="xtick_18">
     <g id="line2d_18">
      <g>
       <use xlink:href="#m10678b75bd" x="287.722709" y="228.96" style="fill: #262626; stroke: #262626; stroke-width: 0.6"/>
      </g>
     </g>
    </g>
    <g id="xtick_19">
     <g id="line2d_19">
      <g>
       <use xlink:href="#m10678b75bd" x="302.698426" y="228.96" style="fill: #262626; stroke: #262626; stroke-width: 0.6"/>
      </g>
     </g>
    </g>
    <g id="xtick_20">
     <g id="line2d_20">
      <g>
       <use xlink:href="#m10678b75bd" x="315.907944" y="228.96" style="fill: #262626; stroke: #262626; stroke-width: 0.6"/>
      </g>
     </g>
    </g>
    <g id="xtick_21">
     <g id="line2d_21">
      <g>
       <use xlink:href="#m10678b75bd" x="450.935037" y="228.96" style="fill: #262626; stroke: #262626; stroke-width: 0.6"/>
      </g>
     </g>
    </g>
    <g id="xtick_22">
     <g id="line2d_22">
      <g>
       <use xlink:href="#m10678b75bd" x="483.198951" y="228.96" style="fill: #262626; stroke: #262626; stroke-width: 0.6"/>
      </g>
     </g>
    </g>
    <g id="xtick_23">
     <g id="line2d_23">
      <g>
       <use xlink:href="#m10678b75bd" x="528.672382" y="228.96" style="fill: #262626; stroke: #262626; stroke-width: 0.6"/>
      </g>
     </g>
    </g>
    <g id="xtick_24">
     <g id="line2d_24">
      <g>
       <use xlink:href="#m10678b75bd" x="545.960578" y="228.96" style="fill: #262626; stroke: #262626; stroke-width: 0.6"/>
      </g>
     </g>
    </g>
    <g id="xtick_25">
     <g id="line2d_25">
      <g>
       <use xlink:href="#m10678b75bd" x="560.936295" y="228.96" style="fill: #262626; stroke: #262626; stroke-width: 0.6"/>
      </g>
     </g>
    </g>
    <g id="xtick_26">
     <g id="line2d_26">
      <g>
       <use xlink:href="#m10678b75bd" x="574.145814" y="228.96" style="fill: #262626; stroke: #262626; stroke-width: 0.6"/>
      </g>
     </g>
    </g>
    <g id="xtick_27">
     <g id="line2d_27">
      <g>
       <use xlink:href="#m10678b75bd" x="709.172907" y="228.96" style="fill: #262626; stroke: #262626; stroke-width: 0.6"/>
      </g>
     </g>
    </g>
    <g id="xtick_28">
     <g id="line2d_28">
      <g>
       <use xlink:href="#m10678b75bd" x="741.43682" y="228.96" style="fill: #262626; stroke: #262626; stroke-width: 0.6"/>
      </g>
     </g>
    </g>
    <g id="xtick_29">
     <g id="line2d_29">
      <g>
       <use xlink:href="#m10678b75bd" x="786.910252" y="228.96" style="fill: #262626; stroke: #262626; stroke-width: 0.6"/>
      </g>
     </g>
    </g>
    <g id="xtick_30">
     <g id="line2d_30">
      <g>
       <use xlink:href="#m10678b75bd" x="804.198448" y="228.96" style="fill: #262626; stroke: #262626; stroke-width: 0.6"/>
      </g>
     </g>
    </g>
    <g id="xtick_31">
     <g id="line2d_31">
      <g>
       <use xlink:href="#m10678b75bd" x="819.174165" y="228.96" style="fill: #262626; stroke: #262626; stroke-width: 0.6"/>
      </g>
     </g>
    </g>
    <g id="xtick_32">
     <g id="line2d_32">
      <g>
       <use xlink:href="#m10678b75bd" x="832.383683" y="228.96" style="fill: #262626; stroke: #262626; stroke-width: 0.6"/>
      </g>
     </g>
    </g>
    <g id="text_11">
     <text style="font-size: 10px; font-family: 'Arial', 'DejaVu Sans', 'Liberation Sans', 'Bitstream Vera Sans', sans-serif; text-anchor: middle; fill: #262626" x="425.7" y="256.385" transform="rotate(-0 425.7 256.385)">Income or consumption (day)</text>
    </g>
   </g>
   <g id="matplotlib.axis_2"/>
   <g id="FillBetweenPolyCollection_1">
    <defs>
     <path id="m1b925306dd" d="M 41.295586 -36.758835 
L 41.295586 -36.729688 
L 43.199591 -36.729688 
L 45.103597 -36.729688 
L 47.007603 -36.729688 
L 48.911608 -36.729688 
L 50.815614 -36.729688 
L 52.71962 -36.729688 
L 54.623625 -36.729688 
L 56.527631 -36.729688 
L 58.431637 -36.729688 
L 60.335642 -36.729688 
L 62.239648 -36.729688 
L 64.143654 -36.729688 
L 66.047659 -36.729688 
L 67.951665 -36.729688 
L 69.855671 -36.729688 
L 71.759677 -36.729688 
L 73.663682 -36.729688 
L 75.567688 -36.729688 
L 77.471694 -36.729688 
L 79.375699 -36.729688 
L 81.279705 -36.729688 
L 83.183711 -36.729688 
L 85.087716 -36.729688 
L 86.991722 -36.729688 
L 88.895728 -36.729688 
L 90.799733 -36.729688 
L 92.703739 -36.729688 
L 94.607745 -36.729688 
L 96.51175 -36.729688 
L 98.415756 -36.729688 
L 100.319762 -36.729688 
L 102.223767 -36.729688 
L 104.127773 -36.729688 
L 106.031779 -36.729688 
L 107.935784 -36.729688 
L 109.83979 -36.729688 
L 111.743796 -36.729688 
L 113.647801 -36.729688 
L 115.551807 -36.729688 
L 117.455813 -36.729688 
L 119.359818 -36.729688 
L 121.263824 -36.729688 
L 123.16783 -36.729688 
L 125.071835 -36.729688 
L 126.975841 -36.729688 
L 128.879847 -36.729688 
L 130.783853 -36.729688 
L 132.687858 -36.729688 
L 134.591864 -36.729688 
L 136.49587 -36.729688 
L 138.399875 -36.729688 
L 140.303881 -36.729688 
L 142.207887 -36.729688 
L 144.111892 -36.729688 
L 146.015898 -36.729688 
L 147.919904 -36.729688 
L 149.823909 -36.729688 
L 151.727915 -36.729688 
L 153.631921 -36.729688 
L 155.535926 -36.729688 
L 157.439932 -36.729688 
L 159.343938 -36.729688 
L 161.247943 -36.729688 
L 163.151949 -36.729688 
L 165.055955 -36.729688 
L 166.95996 -36.729688 
L 168.863966 -36.729688 
L 170.767972 -36.729688 
L 172.671977 -36.729688 
L 174.575983 -36.729688 
L 176.479989 -36.729688 
L 178.383994 -36.729688 
L 180.288 -36.729688 
L 182.192006 -36.729688 
L 184.096012 -36.729688 
L 186.000017 -36.729688 
L 187.904023 -36.729688 
L 189.808029 -36.729688 
L 191.712034 -36.729688 
L 193.61604 -36.729688 
L 195.520046 -36.729688 
L 197.424051 -36.729688 
L 199.328057 -36.729688 
L 201.232063 -36.729688 
L 203.136068 -36.729688 
L 205.040074 -36.729688 
L 206.94408 -36.729688 
L 208.848085 -36.729688 
L 210.752091 -36.729688 
L 212.656097 -36.729688 
L 214.560102 -36.729688 
L 216.464108 -36.729688 
L 218.368114 -36.729688 
L 220.272119 -36.729688 
L 222.176125 -36.729688 
L 224.080131 -36.729688 
L 225.984136 -36.729688 
L 227.888142 -36.729688 
L 229.792148 -36.729688 
L 231.696153 -36.729688 
L 233.600159 -36.729688 
L 235.504165 -36.729688 
L 237.408171 -36.729688 
L 239.312176 -36.729688 
L 241.216182 -36.729688 
L 243.120188 -36.729688 
L 245.024193 -36.729688 
L 246.928199 -36.729688 
L 248.832205 -36.729688 
L 250.73621 -36.729688 
L 252.640216 -36.729688 
L 254.544222 -36.729688 
L 256.448227 -36.729688 
L 258.352233 -36.729688 
L 260.256239 -36.729688 
L 262.160244 -36.729688 
L 264.06425 -36.729688 
L 265.968256 -36.729688 
L 267.872261 -36.729688 
L 269.776267 -36.729688 
L 271.680273 -36.729688 
L 273.584278 -36.729688 
L 275.488284 -36.729688 
L 277.39229 -36.729688 
L 279.296295 -36.729688 
L 281.200301 -36.729688 
L 283.104307 -36.729688 
L 285.008312 -36.729688 
L 286.912318 -36.729688 
L 288.816324 -36.729688 
L 290.72033 -36.729688 
L 292.624335 -36.729688 
L 294.528341 -36.729688 
L 296.432347 -36.729688 
L 298.336352 -36.729688 
L 300.240358 -36.729688 
L 302.144364 -36.729688 
L 304.048369 -36.729688 
L 305.952375 -36.729688 
L 307.856381 -36.729688 
L 309.760386 -36.729688 
L 311.664392 -36.729688 
L 313.568398 -36.729688 
L 315.472403 -36.729688 
L 317.376409 -36.729688 
L 319.280415 -36.729688 
L 321.18442 -36.729688 
L 323.088426 -36.729688 
L 324.992432 -36.729688 
L 326.896437 -36.729688 
L 328.800443 -36.729688 
L 330.704449 -36.729688 
L 332.608454 -36.729688 
L 334.51246 -36.729688 
L 336.416466 -36.729688 
L 338.320471 -36.729688 
L 340.224477 -36.729688 
L 342.128483 -36.729688 
L 344.032489 -36.729688 
L 345.936494 -36.729688 
L 347.8405 -36.729688 
L 349.744506 -36.729688 
L 351.648511 -36.729688 
L 353.552517 -36.729688 
L 355.456523 -36.729688 
L 357.360528 -36.729688 
L 359.264534 -36.729688 
L 361.16854 -36.729688 
L 363.072545 -36.729688 
L 364.976551 -36.729688 
L 366.880557 -36.729688 
L 368.784562 -36.729688 
L 370.688568 -36.729688 
L 372.592574 -36.729688 
L 374.496579 -36.729688 
L 376.400585 -36.729688 
L 378.304591 -36.729688 
L 380.208596 -36.729688 
L 382.112602 -36.729688 
L 384.016608 -36.729688 
L 385.920613 -36.729688 
L 387.824619 -36.729688 
L 389.728625 -36.729688 
L 391.63263 -36.729688 
L 393.536636 -36.729688 
L 395.440642 -36.729688 
L 397.344648 -36.729688 
L 399.248653 -36.729688 
L 401.152659 -36.729688 
L 403.056665 -36.729688 
L 404.96067 -36.729688 
L 406.864676 -36.729688 
L 408.768682 -36.729688 
L 410.672687 -36.729688 
L 412.576693 -36.729688 
L 414.480699 -36.729688 
L 416.384704 -36.729688 
L 418.28871 -36.729688 
L 420.192716 -36.729688 
L 420.192716 -36.743233 
L 420.192716 -36.743233 
L 418.28871 -36.750396 
L 416.384704 -36.760803 
L 414.480699 -36.775646 
L 412.576693 -36.796422 
L 410.672687 -36.824961 
L 408.768682 -36.863436 
L 406.864676 -36.914344 
L 404.96067 -36.980451 
L 403.056665 -37.064702 
L 401.152659 -37.170088 
L 399.248653 -37.299476 
L 397.344648 -37.455407 
L 395.440642 -37.63989 
L 393.536636 -37.854194 
L 391.63263 -38.098682 
L 389.728625 -38.372707 
L 387.824619 -38.67458 
L 385.920613 -39.001655 
L 384.016608 -39.350501 
L 382.112602 -39.717195 
L 380.208596 -40.097666 
L 378.304591 -40.488105 
L 376.400585 -40.885358 
L 374.496579 -41.287282 
L 372.592574 -41.692998 
L 370.688568 -42.103026 
L 368.784562 -42.519267 
L 366.880557 -42.94484 
L 364.976551 -43.383785 
L 363.072545 -43.840669 
L 361.16854 -44.320148 
L 359.264534 -44.826528 
L 357.360528 -45.363385 
L 355.456523 -45.933278 
L 353.552517 -46.53759 
L 351.648511 -47.176494 
L 349.744506 -47.849054 
L 347.8405 -48.553418 
L 345.936494 -49.287083 
L 344.032489 -50.047195 
L 342.128483 -50.830839 
L 340.224477 -51.635294 
L 338.320471 -52.458233 
L 336.416466 -53.297866 
L 334.51246 -54.152997 
L 332.608454 -55.023038 
L 330.704449 -55.907956 
L 328.800443 -56.808182 
L 326.896437 -57.724494 
L 324.992432 -58.657873 
L 323.088426 -59.609363 
L 321.18442 -60.579932 
L 319.280415 -61.570357 
L 317.376409 -62.581151 
L 315.472403 -63.612539 
L 313.568398 -64.664506 
L 311.664392 -65.736917 
L 309.760386 -66.829704 
L 307.856381 -67.943126 
L 305.952375 -69.078056 
L 304.048369 -70.236287 
L 302.144364 -71.420796 
L 300.240358 -72.635941 
L 298.336352 -73.887542 
L 296.432347 -75.182811 
L 294.528341 -76.530119 
L 292.624335 -77.938586 
L 290.72033 -79.417526 
L 288.816324 -80.975771 
L 286.912318 -82.620949 
L 285.008312 -84.358772 
L 283.104307 -86.192436 
L 281.200301 -88.122177 
L 279.296295 -90.145078 
L 277.39229 -92.255138 
L 275.488284 -94.443619 
L 273.584278 -96.699649 
L 271.680273 -99.011021 
L 269.776267 -101.365107 
L 267.872261 -103.749819 
L 265.968256 -106.154506 
L 264.06425 -108.570735 
L 262.160244 -110.992895 
L 260.256239 -113.418592 
L 258.352233 -115.848842 
L 256.448227 -118.288053 
L 254.544222 -120.743828 
L 252.640216 -123.226608 
L 250.73621 -125.749177 
L 248.832205 -128.326044 
L 246.928199 -130.97272 
L 245.024193 -133.704921 
L 243.120188 -136.53772 
L 241.216182 -139.484685 
L 239.312176 -142.557084 
L 237.408171 -145.763179 
L 235.504165 -149.10769 
L 233.600159 -152.591466 
L 231.696153 -156.211353 
L 229.792148 -159.960271 
L 227.888142 -163.827422 
L 225.984136 -167.798568 
L 224.080131 -171.856283 
L 222.176125 -175.980115 
L 220.272119 -180.146609 
L 218.368114 -184.329196 
L 216.464108 -188.498011 
L 214.560102 -192.619755 
L 212.656097 -196.657729 
L 210.752091 -200.57221 
L 208.848085 -204.321261 
L 206.94408 -207.862066 
L 205.040074 -211.152728 
L 203.136068 -214.154433 
L 201.232063 -216.833759 
L 199.328057 -219.164861 
L 197.424051 -221.131235 
L 195.520046 -222.726801 
L 193.61604 -223.956104 
L 191.712034 -224.833558 
L 189.808029 -225.381778 
L 187.904023 -225.62917 
L 186.000017 -225.60708 
L 184.096012 -225.34683 
L 182.192006 -224.877007 
L 180.288 -224.221319 
L 178.383994 -223.39722 
L 176.479989 -222.415423 
L 174.575983 -221.280233 
L 172.671977 -219.990571 
L 170.767972 -218.541427 
L 168.863966 -216.925488 
L 166.95996 -215.134669 
L 165.055955 -213.161364 
L 163.151949 -210.999291 
L 161.247943 -208.643942 
L 159.343938 -206.092697 
L 157.439932 -203.344727 
L 155.535926 -200.400851 
L 153.631921 -197.263446 
L 151.727915 -193.936506 
L 149.823909 -190.425843 
L 147.919904 -186.739384 
L 146.015898 -182.887464 
L 144.111892 -178.882985 
L 142.207887 -174.741365 
L 140.303881 -170.480187 
L 138.399875 -166.118563 
L 136.49587 -161.676284 
L 134.591864 -157.172842 
L 132.687858 -152.626503 
L 130.783853 -148.05356 
L 128.879847 -143.467896 
L 126.975841 -138.880915 
L 125.071835 -134.301863 
L 123.16783 -129.738453 
L 121.263824 -125.197676 
L 119.359818 -120.686651 
L 117.455813 -116.213339 
L 115.551807 -111.786991 
L 113.647801 -107.418256 
L 111.743796 -103.118923 
L 109.83979 -98.901358 
L 107.935784 -94.777755 
L 106.031779 -90.759344 
L 104.127773 -86.855723 
L 102.223767 -83.074428 
L 100.319762 -79.420849 
L 98.415756 -75.898481 
L 96.51175 -72.509485 
L 94.607745 -69.255432 
L 92.703739 -66.13811 
L 90.799733 -63.160222 
L 88.895728 -60.325869 
L 86.991722 -57.640701 
L 85.087716 -55.11173 
L 83.183711 -52.746807 
L 81.279705 -50.553856 
L 79.375699 -48.539966 
L 77.471694 -46.71048 
L 75.567688 -45.068191 
L 73.663682 -43.612769 
L 71.759677 -42.340458 
L 69.855671 -41.244081 
L 67.951665 -40.313332 
L 66.047659 -39.535303 
L 64.143654 -38.895171 
L 62.239648 -38.37696 
L 60.335642 -37.964311 
L 58.431637 -37.641171 
L 56.527631 -37.392371 
L 54.623625 -37.204053 
L 52.71962 -37.06395 
L 50.815614 -36.961508 
L 48.911608 -36.887899 
L 47.007603 -36.835926 
L 45.103597 -36.799869 
L 43.199591 -36.775293 
L 41.295586 -36.758835 
z
" style="stroke: #dd8452"/>
    </defs>
    <g>
     <use xlink:href="#m1b925306dd" x="0" y="265.689687" style="fill: #dd8452; fill-opacity: 0.25; stroke: #dd8452"/>
    </g>
   </g>
   <g id="FillBetweenPolyCollection_2">
    <defs>
     <path id="m21036cc15a" d="M 343.805529 -36.740956 
L 343.805529 -36.729688 
L 345.71207 -36.729688 
L 347.618612 -36.729688 
L 349.525153 -36.729688 
L 351.431695 -36.729688 
L 353.338236 -36.729688 
L 355.244778 -36.729688 
L 357.15132 -36.729688 
L 359.057861 -36.729688 
L 360.964403 -36.729688 
L 362.870944 -36.729688 
L 364.777486 -36.729688 
L 366.684027 -36.729688 
L 368.590569 -36.729688 
L 370.49711 -36.729688 
L 372.403652 -36.729688 
L 374.310194 -36.729688 
L 376.216735 -36.729688 
L 378.123277 -36.729688 
L 380.029818 -36.729688 
L 381.93636 -36.729688 
L 383.842901 -36.729688 
L 385.749443 -36.729688 
L 387.655984 -36.729688 
L 389.562526 -36.729688 
L 391.469068 -36.729688 
L 393.375609 -36.729688 
L 395.282151 -36.729688 
L 397.188692 -36.729688 
L 399.095234 -36.729688 
L 401.001775 -36.729688 
L 402.908317 -36.729688 
L 404.814858 -36.729688 
L 406.7214 -36.729688 
L 408.627942 -36.729688 
L 410.534483 -36.729688 
L 412.441025 -36.729688 
L 414.347566 -36.729688 
L 416.254108 -36.729688 
L 418.160649 -36.729688 
L 420.067191 -36.729688 
L 421.973732 -36.729688 
L 423.880274 -36.729688 
L 425.786816 -36.729688 
L 427.693357 -36.729688 
L 429.599899 -36.729688 
L 431.50644 -36.729688 
L 433.412982 -36.729688 
L 435.319523 -36.729688 
L 437.226065 -36.729688 
L 439.132607 -36.729688 
L 441.039148 -36.729688 
L 442.94569 -36.729688 
L 444.852231 -36.729688 
L 446.758773 -36.729688 
L 448.665314 -36.729688 
L 450.571856 -36.729688 
L 452.478397 -36.729688 
L 454.384939 -36.729688 
L 456.291481 -36.729688 
L 458.198022 -36.729688 
L 460.104564 -36.729688 
L 462.011105 -36.729688 
L 463.917647 -36.729688 
L 465.824188 -36.729688 
L 467.73073 -36.729688 
L 469.637271 -36.729688 
L 471.543813 -36.729688 
L 473.450355 -36.729688 
L 475.356896 -36.729688 
L 477.263438 -36.729688 
L 479.169979 -36.729688 
L 481.076521 -36.729688 
L 482.983062 -36.729688 
L 484.889604 -36.729688 
L 486.796145 -36.729688 
L 488.702687 -36.729688 
L 490.609229 -36.729688 
L 492.51577 -36.729688 
L 494.422312 -36.729688 
L 496.328853 -36.729688 
L 498.235395 -36.729688 
L 500.141936 -36.729688 
L 502.048478 -36.729688 
L 503.955019 -36.729688 
L 505.861561 -36.729688 
L 507.768103 -36.729688 
L 509.674644 -36.729688 
L 511.581186 -36.729688 
L 513.487727 -36.729688 
L 515.394269 -36.729688 
L 517.30081 -36.729688 
L 519.207352 -36.729688 
L 521.113894 -36.729688 
L 523.020435 -36.729688 
L 524.926977 -36.729688 
L 526.833518 -36.729688 
L 528.74006 -36.729688 
L 530.646601 -36.729688 
L 532.553143 -36.729688 
L 534.459684 -36.729688 
L 536.366226 -36.729688 
L 538.272768 -36.729688 
L 540.179309 -36.729688 
L 542.085851 -36.729688 
L 543.992392 -36.729688 
L 545.898934 -36.729688 
L 547.805475 -36.729688 
L 549.712017 -36.729688 
L 551.618558 -36.729688 
L 553.5251 -36.729688 
L 555.431642 -36.729688 
L 557.338183 -36.729688 
L 559.244725 -36.729688 
L 561.151266 -36.729688 
L 563.057808 -36.729688 
L 564.964349 -36.729688 
L 566.870891 -36.729688 
L 568.777432 -36.729688 
L 570.683974 -36.729688 
L 572.590516 -36.729688 
L 574.497057 -36.729688 
L 576.403599 -36.729688 
L 578.31014 -36.729688 
L 580.216682 -36.729688 
L 582.123223 -36.729688 
L 584.029765 -36.729688 
L 585.936306 -36.729688 
L 587.842848 -36.729688 
L 589.74939 -36.729688 
L 591.655931 -36.729688 
L 593.562473 -36.729688 
L 595.469014 -36.729688 
L 597.375556 -36.729688 
L 599.282097 -36.729688 
L 601.188639 -36.729688 
L 603.095181 -36.729688 
L 605.001722 -36.729688 
L 606.908264 -36.729688 
L 608.814805 -36.729688 
L 610.721347 -36.729688 
L 612.627888 -36.729688 
L 614.53443 -36.729688 
L 616.440971 -36.729688 
L 618.347513 -36.729688 
L 620.254055 -36.729688 
L 622.160596 -36.729688 
L 624.067138 -36.729688 
L 625.973679 -36.729688 
L 627.880221 -36.729688 
L 629.786762 -36.729688 
L 631.693304 -36.729688 
L 633.599845 -36.729688 
L 635.506387 -36.729688 
L 637.412929 -36.729688 
L 639.31947 -36.729688 
L 641.226012 -36.729688 
L 643.132553 -36.729688 
L 645.039095 -36.729688 
L 646.945636 -36.729688 
L 648.852178 -36.729688 
L 650.758719 -36.729688 
L 652.665261 -36.729688 
L 654.571803 -36.729688 
L 656.478344 -36.729688 
L 658.384886 -36.729688 
L 660.291427 -36.729688 
L 662.197969 -36.729688 
L 664.10451 -36.729688 
L 666.011052 -36.729688 
L 667.917593 -36.729688 
L 669.824135 -36.729688 
L 671.730677 -36.729688 
L 673.637218 -36.729688 
L 675.54376 -36.729688 
L 677.450301 -36.729688 
L 679.356843 -36.729688 
L 681.263384 -36.729688 
L 683.169926 -36.729688 
L 685.076468 -36.729688 
L 686.983009 -36.729688 
L 688.889551 -36.729688 
L 690.796092 -36.729688 
L 692.702634 -36.729688 
L 694.609175 -36.729688 
L 696.515717 -36.729688 
L 698.422258 -36.729688 
L 700.3288 -36.729688 
L 702.235342 -36.729688 
L 704.141883 -36.729688 
L 706.048425 -36.729688 
L 707.954966 -36.729688 
L 709.861508 -36.729688 
L 711.768049 -36.729688 
L 713.674591 -36.729688 
L 715.581132 -36.729688 
L 717.487674 -36.729688 
L 719.394216 -36.729688 
L 721.300757 -36.729688 
L 723.207299 -36.729688 
L 723.207299 -36.743376 
L 723.207299 -36.743376 
L 721.300757 -36.751673 
L 719.394216 -36.76423 
L 717.487674 -36.782784 
L 715.581132 -36.809557 
L 713.674591 -36.847287 
L 711.768049 -36.899224 
L 709.861508 -36.969073 
L 707.954966 -37.060873 
L 706.048425 -37.178815 
L 704.141883 -37.326998 
L 702.235342 -37.50916 
L 700.3288 -37.728393 
L 698.422258 -37.986896 
L 696.515717 -38.285796 
L 694.609175 -38.625062 
L 692.702634 -39.003547 
L 690.796092 -39.419129 
L 688.889551 -39.868952 
L 686.983009 -40.349714 
L 685.076468 -40.857962 
L 683.169926 -41.390353 
L 681.263384 -41.943843 
L 679.356843 -42.515805 
L 677.450301 -43.104082 
L 675.54376 -43.707003 
L 673.637218 -44.323408 
L 671.730677 -44.952715 
L 669.824135 -45.595041 
L 667.917593 -46.251397 
L 666.011052 -46.923911 
L 664.10451 -47.616068 
L 662.197969 -48.332908 
L 660.291427 -49.081145 
L 658.384886 -49.869198 
L 656.478344 -50.707122 
L 654.571803 -51.60644 
L 652.665261 -52.579921 
L 650.758719 -53.6413 
L 648.852178 -54.804972 
L 646.945636 -56.085639 
L 645.039095 -57.497922 
L 643.132553 -59.055905 
L 641.226012 -60.772622 
L 639.31947 -62.659499 
L 637.412929 -64.725783 
L 635.506387 -66.978016 
L 633.599845 -69.419625 
L 631.693304 -72.050678 
L 629.786762 -74.867846 
L 627.880221 -77.864574 
L 625.973679 -81.031428 
L 624.067138 -84.356527 
L 622.160596 -87.82601 
L 620.254055 -91.42442 
L 618.347513 -95.134983 
L 616.440971 -98.939768 
L 614.53443 -102.819775 
L 612.627888 -106.755066 
L 610.721347 -110.725046 
L 608.814805 -114.709016 
L 606.908264 -118.687039 
L 605.001722 -122.641121 
L 603.095181 -126.556558 
L 601.188639 -130.423254 
L 599.282097 -134.236751 
L 597.375556 -137.998712 
L 595.469014 -141.716698 
L 593.562473 -145.403198 
L 591.655931 -149.074035 
L 589.74939 -152.746416 
L 587.842848 -156.436998 
L 585.936306 -160.160302 
L 584.029765 -163.927741 
L 582.123223 -167.747332 
L 580.216682 -171.623944 
L 578.31014 -175.559786 
L 576.403599 -179.554746 
L 574.497057 -183.606236 
L 572.590516 -187.708381 
L 570.683974 -191.850644 
L 568.777432 -196.016217 
L 566.870891 -200.180717 
L 564.964349 -204.311752 
L 563.057808 -208.369807 
L 561.151266 -212.310627 
L 559.244725 -216.088907 
L 557.338183 -219.662797 
L 555.431642 -222.998423 
L 553.5251 -226.073608 
L 551.618558 -228.880067 
L 549.712017 -231.423605 
L 547.805475 -233.72226 
L 545.898934 -235.802693 
L 543.992392 -237.695408 
L 542.085851 -239.429587 
L 540.179309 -241.028287 
L 538.272768 -242.504614 
L 536.366226 -243.859246 
L 534.459684 -245.079388 
L 532.553143 -246.139055 
L 530.646601 -247.000375 
L 528.74006 -247.615619 
L 526.833518 -247.929688 
L 524.926977 -247.882889 
L 523.020435 -247.413954 
L 521.113894 -246.463289 
L 519.207352 -244.976461 
L 517.30081 -242.907818 
L 515.394269 -240.224054 
L 513.487727 -236.907354 
L 511.581186 -232.957752 
L 509.674644 -228.394308 
L 507.768103 -223.254843 
L 505.861561 -217.594179 
L 503.955019 -211.481042 
L 502.048478 -204.994026 
L 500.141936 -198.217131 
L 498.235395 -191.235442 
L 496.328853 -184.13142 
L 494.422312 -176.982147 
L 492.51577 -169.857627 
L 490.609229 -162.820066 
L 488.702687 -155.923898 
L 486.796145 -149.216249 
L 484.889604 -142.737508 
L 482.983062 -136.521787 
L 481.076521 -130.597123 
L 479.169979 -124.985412 
L 477.263438 -119.702184 
L 475.356896 -114.756368 
L 473.450355 -110.150248 
L 471.543813 -105.879758 
L 469.637271 -101.935183 
L 467.73073 -98.302277 
L 465.824188 -94.963643 
L 463.917647 -91.90019 
L 462.011105 -89.092414 
L 460.104564 -86.521273 
L 458.198022 -84.168501 
L 456.291481 -82.016314 
L 454.384939 -80.046631 
L 452.478397 -78.240027 
L 450.571856 -76.574739 
L 448.665314 -75.026072 
L 446.758773 -73.566454 
L 444.852231 -72.166294 
L 442.94569 -70.795587 
L 441.039148 -69.426075 
L 439.132607 -68.033595 
L 437.226065 -66.60023 
L 435.319523 -65.115864 
L 433.412982 -63.578876 
L 431.50644 -61.995845 
L 429.599899 -60.380345 
L 427.693357 -58.751022 
L 425.786816 -57.129292 
L 423.880274 -55.537011 
L 421.973732 -53.994431 
L 420.067191 -52.518687 
L 418.160649 -51.122918 
L 416.254108 -49.81603 
L 414.347566 -48.602981 
L 412.441025 -47.485426 
L 410.534483 -46.46253 
L 408.627942 -45.531757 
L 406.7214 -44.689519 
L 404.814858 -43.931588 
L 402.908317 -43.253287 
L 401.001775 -42.649481 
L 399.095234 -42.114457 
L 397.188692 -41.641787 
L 395.282151 -41.224268 
L 393.375609 -40.853988 
L 391.469068 -40.522568 
L 389.562526 -40.221547 
L 387.655984 -39.942875 
L 385.749443 -39.679438 
L 383.842901 -39.42553 
L 381.93636 -39.177193 
L 380.029818 -38.932379 
L 378.123277 -38.690891 
L 376.216735 -38.454133 
L 374.310194 -38.224699 
L 372.403652 -38.005861 
L 370.49711 -37.801044 
L 368.590569 -37.613347 
L 366.684027 -37.445168 
L 364.777486 -37.297973 
L 362.870944 -37.172209 
L 360.964403 -37.067352 
L 359.057861 -36.982057 
L 357.15132 -36.914374 
L 355.244778 -36.861983 
L 353.338236 -36.822426 
L 351.431695 -36.79329 
L 349.525153 -36.772356 
L 347.618612 -36.757683 
L 345.71207 -36.74765 
L 343.805529 -36.740956 
z
" style="stroke: #4c72b0"/>
    </defs>
    <g>
     <use xlink:href="#m21036cc15a" x="0" y="265.689687" style="fill: #4c72b0; fill-opacity: 0.25; stroke: #4c72b0"/>
    </g>
   </g>
   <g id="line2d_33">
    <path d="M 192.697168 228.96 
L 192.697168 7.2 
" style="fill: none; stroke-dasharray: 0.8,1.32; stroke-dashoffset: 0; stroke: #d3d3d3; stroke-width: 0.8"/>
   </g>
   <g id="line2d_34">
    <path d="M 417.660084 228.96 
L 417.660084 7.2 
" style="fill: none; stroke-dasharray: 0.8,1.32; stroke-dashoffset: 0; stroke: #d3d3d3; stroke-width: 0.8"/>
   </g>
   <g id="line2d_35">
    <path d="M 323.728623 228.96 
L 323.728623 7.2 
" style="fill: none; stroke-dasharray: 0.8,1.32; stroke-dashoffset: 0; stroke: #d3d3d3; stroke-width: 0.8"/>
   </g>
   <g id="line2d_36">
    <path d="M 7.2 228.96 
L 844.2 228.96 
" style="fill: none; stroke: #808080; stroke-width: 0.5; stroke-linecap: round"/>
   </g>
   <g id="text_12">
    <text style="font-size: 8px; font-family: 'Arial', 'DejaVu Sans', 'Liberation Sans', 'Bitstream Vera Sans', sans-serif; fill: #808080" transform="translate(198.950918 124.59635) rotate(-90)">International Poverty Line: $3.00</text>
   </g>
   <g id="text_13">
    <text style="font-size: 8px; font-family: 'Arial', 'DejaVu Sans', 'Liberation Sans', 'Bitstream Vera Sans', sans-serif; fill: #808080" transform="translate(423.386334 81.31135) rotate(-90)">World mean: $22.30</text>
   </g>
   <g id="text_14">
    <text style="font-size: 8px; font-family: 'Arial', 'DejaVu Sans', 'Liberation Sans', 'Bitstream Vera Sans', sans-serif; fill: #808080" transform="translate(329.454873 83.08885) rotate(-90)">World median: $9.65</text>
   </g>
   <g id="legend_1">
    <g id="patch_3">
     <path d="M 683.8 102.344187 
L 756.364063 102.344187 
Q 758.364063 102.344187 758.364063 100.344187 
L 758.364063 58.552 
Q 758.364063 56.552 756.364063 56.552 
L 683.8 56.552 
Q 681.8 56.552 681.8 58.552 
L 681.8 100.344187 
Q 681.8 102.344187 683.8 102.344187 
z
" style="fill: #ffffff; opacity: 0.8; stroke: #cccccc; stroke-linejoin: miter"/>
    </g>
    <g id="text_15">
     <text style="font-size: 10px; font-family: 'Arial', 'DejaVu Sans', 'Liberation Sans', 'Bitstream Vera Sans', sans-serif; text-anchor: start; fill: #262626" x="702.575781" y="67.831687" transform="rotate(-0 702.575781 67.831687)">Country</text>
    </g>
    <g id="patch_4">
     <path d="M 685.8 82.094187 
L 705.8 82.094187 
L 705.8 75.094187 
L 685.8 75.094187 
z
" style="fill: #4c72b0; fill-opacity: 0.25; stroke: #4c72b0; stroke-linejoin: miter"/>
    </g>
    <g id="text_16">
     <text style="font-size: 10px; font-family: 'Arial', 'DejaVu Sans', 'Liberation Sans', 'Bitstream Vera Sans', sans-serif; text-anchor: start; fill: #262626" x="713.8" y="82.094187" transform="rotate(-0 713.8 82.094187)">Denmark</text>
    </g>
    <g id="patch_5">
     <path d="M 685.8 96.2395 
L 705.8 96.2395 
L 705.8 89.2395 
L 685.8 89.2395 
z
" style="fill: #dd8452; fill-opacity: 0.25; stroke: #dd8452; stroke-linejoin: miter"/>
    </g>
    <g id="text_17">
     <text style="font-size: 10px; font-family: 'Arial', 'DejaVu Sans', 'Liberation Sans', 'Bitstream Vera Sans', sans-serif; text-anchor: start; fill: #262626" x="713.8" y="96.2395" transform="rotate(-0 713.8 96.2395)">Niger</text>
    </g>
   </g>
  </g>
 </g>
</svg>
