<?xml version="1.0" encoding="utf-8" standalone="no"?>
<!DOCTYPE svg PUBLIC "-//W3C//DTD SVG 1.1//EN"
  "http://www.w3.org/Graphics/SVG/1.1/DTD/svg11.dtd">
<svg xmlns:xlink="http://www.w3.org/1999/xlink" width="1080pt" height="288pt" viewBox="0 0 1080 288" xmlns="http://www.w3.org/2000/svg" version="1.1">
 <metadata>
  <rdf:RDF xmlns:dc="http://purl.org/dc/elements/1.1/" xmlns:cc="http://creativecommons.org/ns#" xmlns:rdf="http://www.w3.org/1999/02/22-rdf-syntax-ns#">
   <cc:Work>
    <dc:type rdf:resource="http://purl.org/dc/dcmitype/StillImage"/>
    <dc:date>2025-04-07T12:04:10.452650</dc:date>
    <dc:format>image/svg+xml</dc:format>
    <dc:creator>
     <cc:Agent>
      <dc:title>Matplotlib v3.10.1, https://matplotlib.org/</dc:title>
     </cc:Agent>
    </dc:creator>
   </cc:Work>
  </rdf:RDF>
 </metadata>
 <defs>
  <style type="text/css">*{stroke-linejoin: round; stroke-linecap: butt}</style>
 </defs>
 <g id="figure_1">
  <g id="patch_1">
   <path d="M 0 288 
L 1080 288 
L 1080 0 
L 0 0 
z
" style="fill: #ffffff"/>
  </g>
  <g id="axes_1">
   <g id="patch_2">
    <path d="M 135 256.32 
L 972 256.32 
L 972 34.56 
L 135 34.56 
z
" style="fill: #ffffff"/>
   </g>
   <g id="matplotlib.axis_1">
    <g id="xtick_1">
     <g id="line2d_1">
      <defs>
       <path id="mbcdd9a8196" d="M 0 0 
L 0 3.5 
" style="stroke: #262626; stroke-width: 0.8"/>
      </defs>
      <g>
       <use xlink:href="#mbcdd9a8196" x="287.568642" y="256.32" style="fill: #262626; stroke: #262626; stroke-width: 0.8"/>
      </g>
     </g>
     <g id="text_1">
      <!-- 1 -->
      <g style="fill: #262626" transform="translate(284.788173 270.477813) scale(0.1 -0.1)">
       <defs>
        <path id="ArialMT-31" d="M 2384 0 
L 1822 0 
L 1822 3584 
Q 1619 3391 1289 3197 
Q 959 3003 697 2906 
L 697 3450 
Q 1169 3672 1522 3987 
Q 1875 4303 2022 4600 
L 2384 4600 
L 2384 0 
z
" transform="scale(0.015625)"/>
       </defs>
       <use xlink:href="#ArialMT-31"/>
      </g>
     </g>
    </g>
    <g id="xtick_2">
     <g id="line2d_2">
      <g>
       <use xlink:href="#mbcdd9a8196" x="355.384131" y="256.32" style="fill: #262626; stroke: #262626; stroke-width: 0.8"/>
      </g>
     </g>
     <g id="text_2">
      <!-- 2 -->
      <g style="fill: #262626" transform="translate(352.603662 270.477813) scale(0.1 -0.1)">
       <defs>
        <path id="ArialMT-32" d="M 3222 541 
L 3222 0 
L 194 0 
Q 188 203 259 391 
Q 375 700 629 1000 
Q 884 1300 1366 1694 
Q 2113 2306 2375 2664 
Q 2638 3022 2638 3341 
Q 2638 3675 2398 3904 
Q 2159 4134 1775 4134 
Q 1369 4134 1125 3890 
Q 881 3647 878 3216 
L 300 3275 
Q 359 3922 746 4261 
Q 1134 4600 1788 4600 
Q 2447 4600 2831 4234 
Q 3216 3869 3216 3328 
Q 3216 3053 3103 2787 
Q 2991 2522 2730 2228 
Q 2469 1934 1863 1422 
Q 1356 997 1212 845 
Q 1069 694 975 541 
L 3222 541 
z
" transform="scale(0.015625)"/>
       </defs>
       <use xlink:href="#ArialMT-32"/>
      </g>
     </g>
    </g>
    <g id="xtick_3">
     <g id="line2d_3">
      <g>
       <use xlink:href="#mbcdd9a8196" x="445.031332" y="256.32" style="fill: #262626; stroke: #262626; stroke-width: 0.8"/>
      </g>
     </g>
     <g id="text_3">
      <!-- 5 -->
      <g style="fill: #262626" transform="translate(442.250863 270.477813) scale(0.1 -0.1)">
       <defs>
        <path id="ArialMT-35" d="M 266 1200 
L 856 1250 
Q 922 819 1161 601 
Q 1400 384 1738 384 
Q 2144 384 2425 690 
Q 2706 997 2706 1503 
Q 2706 1984 2436 2262 
Q 2166 2541 1728 2541 
Q 1456 2541 1237 2417 
Q 1019 2294 894 2097 
L 366 2166 
L 809 4519 
L 3088 4519 
L 3088 3981 
L 1259 3981 
L 1013 2750 
Q 1425 3038 1878 3038 
Q 2478 3038 2890 2622 
Q 3303 2206 3303 1553 
Q 3303 931 2941 478 
Q 2500 -78 1738 -78 
Q 1113 -78 717 272 
Q 322 622 266 1200 
z
" transform="scale(0.015625)"/>
       </defs>
       <use xlink:href="#ArialMT-35"/>
      </g>
     </g>
    </g>
    <g id="xtick_4">
     <g id="line2d_4">
      <g>
       <use xlink:href="#mbcdd9a8196" x="512.846822" y="256.32" style="fill: #262626; stroke: #262626; stroke-width: 0.8"/>
      </g>
     </g>
     <g id="text_4">
      <!-- 10 -->
      <g style="fill: #262626" transform="translate(507.285884 270.477813) scale(0.1 -0.1)">
       <defs>
        <path id="ArialMT-30" d="M 266 2259 
Q 266 3072 433 3567 
Q 600 4063 929 4331 
Q 1259 4600 1759 4600 
Q 2128 4600 2406 4451 
Q 2684 4303 2865 4023 
Q 3047 3744 3150 3342 
Q 3253 2941 3253 2259 
Q 3253 1453 3087 958 
Q 2922 463 2592 192 
Q 2263 -78 1759 -78 
Q 1097 -78 719 397 
Q 266 969 266 2259 
z
M 844 2259 
Q 844 1131 1108 757 
Q 1372 384 1759 384 
Q 2147 384 2411 759 
Q 2675 1134 2675 2259 
Q 2675 3391 2411 3762 
Q 2147 4134 1753 4134 
Q 1366 4134 1134 3806 
Q 844 3388 844 2259 
z
" transform="scale(0.015625)"/>
       </defs>
       <use xlink:href="#ArialMT-31"/>
       <use xlink:href="#ArialMT-30" transform="translate(55.615234 0)"/>
      </g>
     </g>
    </g>
    <g id="xtick_5">
     <g id="line2d_5">
      <g>
       <use xlink:href="#mbcdd9a8196" x="580.662311" y="256.32" style="fill: #262626; stroke: #262626; stroke-width: 0.8"/>
      </g>
     </g>
     <g id="text_5">
      <!-- 20 -->
      <g style="fill: #262626" transform="translate(575.101374 270.477813) scale(0.1 -0.1)">
       <use xlink:href="#ArialMT-32"/>
       <use xlink:href="#ArialMT-30" transform="translate(55.615234 0)"/>
      </g>
     </g>
    </g>
    <g id="xtick_6">
     <g id="line2d_6">
      <g>
       <use xlink:href="#mbcdd9a8196" x="670.309512" y="256.32" style="fill: #262626; stroke: #262626; stroke-width: 0.8"/>
      </g>
     </g>
     <g id="text_6">
      <!-- 50 -->
      <g style="fill: #262626" transform="translate(664.748575 270.477813) scale(0.1 -0.1)">
       <use xlink:href="#ArialMT-35"/>
       <use xlink:href="#ArialMT-30" transform="translate(55.615234 0)"/>
      </g>
     </g>
    </g>
    <g id="xtick_7">
     <g id="line2d_7">
      <g>
       <use xlink:href="#mbcdd9a8196" x="738.125002" y="256.32" style="fill: #262626; stroke: #262626; stroke-width: 0.8"/>
      </g>
     </g>
     <g id="text_7">
      <!-- 100 -->
      <g style="fill: #262626" transform="translate(729.783595 270.477813) scale(0.1 -0.1)">
       <use xlink:href="#ArialMT-31"/>
       <use xlink:href="#ArialMT-30" transform="translate(55.615234 0)"/>
       <use xlink:href="#ArialMT-30" transform="translate(111.230469 0)"/>
      </g>
     </g>
    </g>
    <g id="xtick_8">
     <g id="line2d_8">
      <g>
       <use xlink:href="#mbcdd9a8196" x="805.940491" y="256.32" style="fill: #262626; stroke: #262626; stroke-width: 0.8"/>
      </g>
     </g>
     <g id="text_8">
      <!-- 200 -->
      <g style="fill: #262626" transform="translate(797.599085 270.477813) scale(0.1 -0.1)">
       <use xlink:href="#ArialMT-32"/>
       <use xlink:href="#ArialMT-30" transform="translate(55.615234 0)"/>
       <use xlink:href="#ArialMT-30" transform="translate(111.230469 0)"/>
      </g>
     </g>
    </g>
    <g id="xtick_9">
     <g id="line2d_9">
      <g>
       <use xlink:href="#mbcdd9a8196" x="895.587692" y="256.32" style="fill: #262626; stroke: #262626; stroke-width: 0.8"/>
      </g>
     </g>
     <g id="text_9">
      <!-- 500 -->
      <g style="fill: #262626" transform="translate(887.246286 270.477813) scale(0.1 -0.1)">
       <use xlink:href="#ArialMT-35"/>
       <use xlink:href="#ArialMT-30" transform="translate(55.615234 0)"/>
       <use xlink:href="#ArialMT-30" transform="translate(111.230469 0)"/>
      </g>
     </g>
    </g>
    <g id="xtick_10">
     <g id="line2d_10">
      <g>
       <use xlink:href="#mbcdd9a8196" x="963.403181" y="256.32" style="fill: #262626; stroke: #262626; stroke-width: 0.8"/>
      </g>
     </g>
     <g id="text_10">
      <!-- 1000 -->
      <g style="fill: #262626" transform="translate(952.281306 270.477813) scale(0.1 -0.1)">
       <use xlink:href="#ArialMT-31"/>
       <use xlink:href="#ArialMT-30" transform="translate(55.615234 0)"/>
       <use xlink:href="#ArialMT-30" transform="translate(111.230469 0)"/>
       <use xlink:href="#ArialMT-30" transform="translate(166.845703 0)"/>
      </g>
     </g>
    </g>
    <g id="xtick_11">
     <g id="line2d_11">
      <defs>
       <path id="m4d4e10d112" d="M 0 0 
L 0 2 
" style="stroke: #262626; stroke-width: 0.6"/>
      </defs>
      <g>
       <use xlink:href="#m4d4e10d112" x="169.77547" y="256.32" style="fill: #262626; stroke: #262626; stroke-width: 0.6"/>
      </g>
     </g>
    </g>
    <g id="xtick_12">
     <g id="line2d_12">
      <g>
       <use xlink:href="#m4d4e10d112" x="197.921441" y="256.32" style="fill: #262626; stroke: #262626; stroke-width: 0.6"/>
      </g>
     </g>
    </g>
    <g id="xtick_13">
     <g id="line2d_13">
      <g>
       <use xlink:href="#m4d4e10d112" x="219.753152" y="256.32" style="fill: #262626; stroke: #262626; stroke-width: 0.6"/>
      </g>
     </g>
    </g>
    <g id="xtick_14">
     <g id="line2d_14">
      <g>
       <use xlink:href="#m4d4e10d112" x="237.590959" y="256.32" style="fill: #262626; stroke: #262626; stroke-width: 0.6"/>
      </g>
     </g>
    </g>
    <g id="xtick_15">
     <g id="line2d_15">
      <g>
       <use xlink:href="#m4d4e10d112" x="252.67261" y="256.32" style="fill: #262626; stroke: #262626; stroke-width: 0.6"/>
      </g>
     </g>
    </g>
    <g id="xtick_16">
     <g id="line2d_16">
      <g>
       <use xlink:href="#m4d4e10d112" x="265.73693" y="256.32" style="fill: #262626; stroke: #262626; stroke-width: 0.6"/>
      </g>
     </g>
    </g>
    <g id="xtick_17">
     <g id="line2d_17">
      <g>
       <use xlink:href="#m4d4e10d112" x="277.260478" y="256.32" style="fill: #262626; stroke: #262626; stroke-width: 0.6"/>
      </g>
     </g>
    </g>
    <g id="xtick_18">
     <g id="line2d_18">
      <g>
       <use xlink:href="#m4d4e10d112" x="395.05365" y="256.32" style="fill: #262626; stroke: #262626; stroke-width: 0.6"/>
      </g>
     </g>
    </g>
    <g id="xtick_19">
     <g id="line2d_19">
      <g>
       <use xlink:href="#m4d4e10d112" x="423.199621" y="256.32" style="fill: #262626; stroke: #262626; stroke-width: 0.6"/>
      </g>
     </g>
    </g>
    <g id="xtick_20">
     <g id="line2d_20">
      <g>
       <use xlink:href="#m4d4e10d112" x="462.869139" y="256.32" style="fill: #262626; stroke: #262626; stroke-width: 0.6"/>
      </g>
     </g>
    </g>
    <g id="xtick_21">
     <g id="line2d_21">
      <g>
       <use xlink:href="#m4d4e10d112" x="477.95079" y="256.32" style="fill: #262626; stroke: #262626; stroke-width: 0.6"/>
      </g>
     </g>
    </g>
    <g id="xtick_22">
     <g id="line2d_22">
      <g>
       <use xlink:href="#m4d4e10d112" x="491.01511" y="256.32" style="fill: #262626; stroke: #262626; stroke-width: 0.6"/>
      </g>
     </g>
    </g>
    <g id="xtick_23">
     <g id="line2d_23">
      <g>
       <use xlink:href="#m4d4e10d112" x="502.538657" y="256.32" style="fill: #262626; stroke: #262626; stroke-width: 0.6"/>
      </g>
     </g>
    </g>
    <g id="xtick_24">
     <g id="line2d_24">
      <g>
       <use xlink:href="#m4d4e10d112" x="620.331829" y="256.32" style="fill: #262626; stroke: #262626; stroke-width: 0.6"/>
      </g>
     </g>
    </g>
    <g id="xtick_25">
     <g id="line2d_25">
      <g>
       <use xlink:href="#m4d4e10d112" x="648.477801" y="256.32" style="fill: #262626; stroke: #262626; stroke-width: 0.6"/>
      </g>
     </g>
    </g>
    <g id="xtick_26">
     <g id="line2d_26">
      <g>
       <use xlink:href="#m4d4e10d112" x="688.147319" y="256.32" style="fill: #262626; stroke: #262626; stroke-width: 0.6"/>
      </g>
     </g>
    </g>
    <g id="xtick_27">
     <g id="line2d_27">
      <g>
       <use xlink:href="#m4d4e10d112" x="703.22897" y="256.32" style="fill: #262626; stroke: #262626; stroke-width: 0.6"/>
      </g>
     </g>
    </g>
    <g id="xtick_28">
     <g id="line2d_28">
      <g>
       <use xlink:href="#m4d4e10d112" x="716.29329" y="256.32" style="fill: #262626; stroke: #262626; stroke-width: 0.6"/>
      </g>
     </g>
    </g>
    <g id="xtick_29">
     <g id="line2d_29">
      <g>
       <use xlink:href="#m4d4e10d112" x="727.816837" y="256.32" style="fill: #262626; stroke: #262626; stroke-width: 0.6"/>
      </g>
     </g>
    </g>
    <g id="xtick_30">
     <g id="line2d_30">
      <g>
       <use xlink:href="#m4d4e10d112" x="845.610009" y="256.32" style="fill: #262626; stroke: #262626; stroke-width: 0.6"/>
      </g>
     </g>
    </g>
    <g id="xtick_31">
     <g id="line2d_31">
      <g>
       <use xlink:href="#m4d4e10d112" x="873.755981" y="256.32" style="fill: #262626; stroke: #262626; stroke-width: 0.6"/>
      </g>
     </g>
    </g>
    <g id="xtick_32">
     <g id="line2d_32">
      <g>
       <use xlink:href="#m4d4e10d112" x="913.425499" y="256.32" style="fill: #262626; stroke: #262626; stroke-width: 0.6"/>
      </g>
     </g>
    </g>
    <g id="xtick_33">
     <g id="line2d_33">
      <g>
       <use xlink:href="#m4d4e10d112" x="928.50715" y="256.32" style="fill: #262626; stroke: #262626; stroke-width: 0.6"/>
      </g>
     </g>
    </g>
    <g id="xtick_34">
     <g id="line2d_34">
      <g>
       <use xlink:href="#m4d4e10d112" x="941.57147" y="256.32" style="fill: #262626; stroke: #262626; stroke-width: 0.6"/>
      </g>
     </g>
    </g>
    <g id="xtick_35">
     <g id="line2d_35">
      <g>
       <use xlink:href="#m4d4e10d112" x="953.095017" y="256.32" style="fill: #262626; stroke: #262626; stroke-width: 0.6"/>
      </g>
     </g>
    </g>
    <g id="text_11">
     <!-- Income or consumption (day) -->
     <g style="fill: #262626" transform="translate(488.753906 283.745) scale(0.1 -0.1)">
      <defs>
       <path id="ArialMT-49" d="M 597 0 
L 597 4581 
L 1203 4581 
L 1203 0 
L 597 0 
z
" transform="scale(0.015625)"/>
       <path id="ArialMT-6e" d="M 422 0 
L 422 3319 
L 928 3319 
L 928 2847 
Q 1294 3394 1984 3394 
Q 2284 3394 2536 3286 
Q 2788 3178 2913 3003 
Q 3038 2828 3088 2588 
Q 3119 2431 3119 2041 
L 3119 0 
L 2556 0 
L 2556 2019 
Q 2556 2363 2490 2533 
Q 2425 2703 2258 2804 
Q 2091 2906 1866 2906 
Q 1506 2906 1245 2678 
Q 984 2450 984 1813 
L 984 0 
L 422 0 
z
" transform="scale(0.015625)"/>
       <path id="ArialMT-63" d="M 2588 1216 
L 3141 1144 
Q 3050 572 2676 248 
Q 2303 -75 1759 -75 
Q 1078 -75 664 370 
Q 250 816 250 1647 
Q 250 2184 428 2587 
Q 606 2991 970 3192 
Q 1334 3394 1763 3394 
Q 2303 3394 2647 3120 
Q 2991 2847 3088 2344 
L 2541 2259 
Q 2463 2594 2264 2762 
Q 2066 2931 1784 2931 
Q 1359 2931 1093 2626 
Q 828 2322 828 1663 
Q 828 994 1084 691 
Q 1341 388 1753 388 
Q 2084 388 2306 591 
Q 2528 794 2588 1216 
z
" transform="scale(0.015625)"/>
       <path id="ArialMT-6f" d="M 213 1659 
Q 213 2581 725 3025 
Q 1153 3394 1769 3394 
Q 2453 3394 2887 2945 
Q 3322 2497 3322 1706 
Q 3322 1066 3130 698 
Q 2938 331 2570 128 
Q 2203 -75 1769 -75 
Q 1072 -75 642 372 
Q 213 819 213 1659 
z
M 791 1659 
Q 791 1022 1069 705 
Q 1347 388 1769 388 
Q 2188 388 2466 706 
Q 2744 1025 2744 1678 
Q 2744 2294 2464 2611 
Q 2184 2928 1769 2928 
Q 1347 2928 1069 2612 
Q 791 2297 791 1659 
z
" transform="scale(0.015625)"/>
       <path id="ArialMT-6d" d="M 422 0 
L 422 3319 
L 925 3319 
L 925 2853 
Q 1081 3097 1340 3245 
Q 1600 3394 1931 3394 
Q 2300 3394 2536 3241 
Q 2772 3088 2869 2813 
Q 3263 3394 3894 3394 
Q 4388 3394 4653 3120 
Q 4919 2847 4919 2278 
L 4919 0 
L 4359 0 
L 4359 2091 
Q 4359 2428 4304 2576 
Q 4250 2725 4106 2815 
Q 3963 2906 3769 2906 
Q 3419 2906 3187 2673 
Q 2956 2441 2956 1928 
L 2956 0 
L 2394 0 
L 2394 2156 
Q 2394 2531 2256 2718 
Q 2119 2906 1806 2906 
Q 1569 2906 1367 2781 
Q 1166 2656 1075 2415 
Q 984 2175 984 1722 
L 984 0 
L 422 0 
z
" transform="scale(0.015625)"/>
       <path id="ArialMT-65" d="M 2694 1069 
L 3275 997 
Q 3138 488 2766 206 
Q 2394 -75 1816 -75 
Q 1088 -75 661 373 
Q 234 822 234 1631 
Q 234 2469 665 2931 
Q 1097 3394 1784 3394 
Q 2450 3394 2872 2941 
Q 3294 2488 3294 1666 
Q 3294 1616 3291 1516 
L 816 1516 
Q 847 969 1125 678 
Q 1403 388 1819 388 
Q 2128 388 2347 550 
Q 2566 713 2694 1069 
z
M 847 1978 
L 2700 1978 
Q 2663 2397 2488 2606 
Q 2219 2931 1791 2931 
Q 1403 2931 1139 2672 
Q 875 2413 847 1978 
z
" transform="scale(0.015625)"/>
       <path id="ArialMT-20" transform="scale(0.015625)"/>
       <path id="ArialMT-72" d="M 416 0 
L 416 3319 
L 922 3319 
L 922 2816 
Q 1116 3169 1280 3281 
Q 1444 3394 1641 3394 
Q 1925 3394 2219 3213 
L 2025 2691 
Q 1819 2813 1613 2813 
Q 1428 2813 1281 2702 
Q 1134 2591 1072 2394 
Q 978 2094 978 1738 
L 978 0 
L 416 0 
z
" transform="scale(0.015625)"/>
       <path id="ArialMT-73" d="M 197 991 
L 753 1078 
Q 800 744 1014 566 
Q 1228 388 1613 388 
Q 2000 388 2187 545 
Q 2375 703 2375 916 
Q 2375 1106 2209 1216 
Q 2094 1291 1634 1406 
Q 1016 1563 777 1677 
Q 538 1791 414 1992 
Q 291 2194 291 2438 
Q 291 2659 392 2848 
Q 494 3038 669 3163 
Q 800 3259 1026 3326 
Q 1253 3394 1513 3394 
Q 1903 3394 2198 3281 
Q 2494 3169 2634 2976 
Q 2775 2784 2828 2463 
L 2278 2388 
Q 2241 2644 2061 2787 
Q 1881 2931 1553 2931 
Q 1166 2931 1000 2803 
Q 834 2675 834 2503 
Q 834 2394 903 2306 
Q 972 2216 1119 2156 
Q 1203 2125 1616 2013 
Q 2213 1853 2448 1751 
Q 2684 1650 2818 1456 
Q 2953 1263 2953 975 
Q 2953 694 2789 445 
Q 2625 197 2315 61 
Q 2006 -75 1616 -75 
Q 969 -75 630 194 
Q 291 463 197 991 
z
" transform="scale(0.015625)"/>
       <path id="ArialMT-75" d="M 2597 0 
L 2597 488 
Q 2209 -75 1544 -75 
Q 1250 -75 995 37 
Q 741 150 617 320 
Q 494 491 444 738 
Q 409 903 409 1263 
L 409 3319 
L 972 3319 
L 972 1478 
Q 972 1038 1006 884 
Q 1059 663 1231 536 
Q 1403 409 1656 409 
Q 1909 409 2131 539 
Q 2353 669 2445 892 
Q 2538 1116 2538 1541 
L 2538 3319 
L 3100 3319 
L 3100 0 
L 2597 0 
z
" transform="scale(0.015625)"/>
       <path id="ArialMT-70" d="M 422 -1272 
L 422 3319 
L 934 3319 
L 934 2888 
Q 1116 3141 1344 3267 
Q 1572 3394 1897 3394 
Q 2322 3394 2647 3175 
Q 2972 2956 3137 2557 
Q 3303 2159 3303 1684 
Q 3303 1175 3120 767 
Q 2938 359 2589 142 
Q 2241 -75 1856 -75 
Q 1575 -75 1351 44 
Q 1128 163 984 344 
L 984 -1272 
L 422 -1272 
z
M 931 1641 
Q 931 1000 1190 694 
Q 1450 388 1819 388 
Q 2194 388 2461 705 
Q 2728 1022 2728 1688 
Q 2728 2322 2467 2637 
Q 2206 2953 1844 2953 
Q 1484 2953 1207 2617 
Q 931 2281 931 1641 
z
" transform="scale(0.015625)"/>
       <path id="ArialMT-74" d="M 1650 503 
L 1731 6 
Q 1494 -44 1306 -44 
Q 1000 -44 831 53 
Q 663 150 594 308 
Q 525 466 525 972 
L 525 2881 
L 113 2881 
L 113 3319 
L 525 3319 
L 525 4141 
L 1084 4478 
L 1084 3319 
L 1650 3319 
L 1650 2881 
L 1084 2881 
L 1084 941 
Q 1084 700 1114 631 
Q 1144 563 1211 522 
Q 1278 481 1403 481 
Q 1497 481 1650 503 
z
" transform="scale(0.015625)"/>
       <path id="ArialMT-69" d="M 425 3934 
L 425 4581 
L 988 4581 
L 988 3934 
L 425 3934 
z
M 425 0 
L 425 3319 
L 988 3319 
L 988 0 
L 425 0 
z
" transform="scale(0.015625)"/>
       <path id="ArialMT-28" d="M 1497 -1347 
Q 1031 -759 709 28 
Q 388 816 388 1659 
Q 388 2403 628 3084 
Q 909 3875 1497 4659 
L 1900 4659 
Q 1522 4009 1400 3731 
Q 1209 3300 1100 2831 
Q 966 2247 966 1656 
Q 966 153 1900 -1347 
L 1497 -1347 
z
" transform="scale(0.015625)"/>
       <path id="ArialMT-64" d="M 2575 0 
L 2575 419 
Q 2259 -75 1647 -75 
Q 1250 -75 917 144 
Q 584 363 401 755 
Q 219 1147 219 1656 
Q 219 2153 384 2558 
Q 550 2963 881 3178 
Q 1213 3394 1622 3394 
Q 1922 3394 2156 3267 
Q 2391 3141 2538 2938 
L 2538 4581 
L 3097 4581 
L 3097 0 
L 2575 0 
z
M 797 1656 
Q 797 1019 1065 703 
Q 1334 388 1700 388 
Q 2069 388 2326 689 
Q 2584 991 2584 1609 
Q 2584 2291 2321 2609 
Q 2059 2928 1675 2928 
Q 1300 2928 1048 2622 
Q 797 2316 797 1656 
z
" transform="scale(0.015625)"/>
       <path id="ArialMT-61" d="M 2588 409 
Q 2275 144 1986 34 
Q 1697 -75 1366 -75 
Q 819 -75 525 192 
Q 231 459 231 875 
Q 231 1119 342 1320 
Q 453 1522 633 1644 
Q 813 1766 1038 1828 
Q 1203 1872 1538 1913 
Q 2219 1994 2541 2106 
Q 2544 2222 2544 2253 
Q 2544 2597 2384 2738 
Q 2169 2928 1744 2928 
Q 1347 2928 1158 2789 
Q 969 2650 878 2297 
L 328 2372 
Q 403 2725 575 2942 
Q 747 3159 1072 3276 
Q 1397 3394 1825 3394 
Q 2250 3394 2515 3294 
Q 2781 3194 2906 3042 
Q 3031 2891 3081 2659 
Q 3109 2516 3109 2141 
L 3109 1391 
Q 3109 606 3145 398 
Q 3181 191 3288 0 
L 2700 0 
Q 2613 175 2588 409 
z
M 2541 1666 
Q 2234 1541 1622 1453 
Q 1275 1403 1131 1340 
Q 988 1278 909 1158 
Q 831 1038 831 891 
Q 831 666 1001 516 
Q 1172 366 1500 366 
Q 1825 366 2078 508 
Q 2331 650 2450 897 
Q 2541 1088 2541 1459 
L 2541 1666 
z
" transform="scale(0.015625)"/>
       <path id="ArialMT-79" d="M 397 -1278 
L 334 -750 
Q 519 -800 656 -800 
Q 844 -800 956 -737 
Q 1069 -675 1141 -563 
Q 1194 -478 1313 -144 
Q 1328 -97 1363 -6 
L 103 3319 
L 709 3319 
L 1400 1397 
Q 1534 1031 1641 628 
Q 1738 1016 1872 1384 
L 2581 3319 
L 3144 3319 
L 1881 -56 
Q 1678 -603 1566 -809 
Q 1416 -1088 1222 -1217 
Q 1028 -1347 759 -1347 
Q 597 -1347 397 -1278 
z
" transform="scale(0.015625)"/>
       <path id="ArialMT-29" d="M 791 -1347 
L 388 -1347 
Q 1322 153 1322 1656 
Q 1322 2244 1188 2822 
Q 1081 3291 891 3722 
Q 769 4003 388 4659 
L 791 4659 
Q 1378 3875 1659 3084 
Q 1900 2403 1900 1659 
Q 1900 816 1576 28 
Q 1253 -759 791 -1347 
z
" transform="scale(0.015625)"/>
      </defs>
      <use xlink:href="#ArialMT-49"/>
      <use xlink:href="#ArialMT-6e" transform="translate(27.783203 0)"/>
      <use xlink:href="#ArialMT-63" transform="translate(83.398438 0)"/>
      <use xlink:href="#ArialMT-6f" transform="translate(133.398438 0)"/>
      <use xlink:href="#ArialMT-6d" transform="translate(189.013672 0)"/>
      <use xlink:href="#ArialMT-65" transform="translate(272.314453 0)"/>
      <use xlink:href="#ArialMT-20" transform="translate(327.929688 0)"/>
      <use xlink:href="#ArialMT-6f" transform="translate(355.712891 0)"/>
      <use xlink:href="#ArialMT-72" transform="translate(411.328125 0)"/>
      <use xlink:href="#ArialMT-20" transform="translate(444.628906 0)"/>
      <use xlink:href="#ArialMT-63" transform="translate(472.412109 0)"/>
      <use xlink:href="#ArialMT-6f" transform="translate(522.412109 0)"/>
      <use xlink:href="#ArialMT-6e" transform="translate(578.027344 0)"/>
      <use xlink:href="#ArialMT-73" transform="translate(633.642578 0)"/>
      <use xlink:href="#ArialMT-75" transform="translate(683.642578 0)"/>
      <use xlink:href="#ArialMT-6d" transform="translate(739.257812 0)"/>
      <use xlink:href="#ArialMT-70" transform="translate(822.558594 0)"/>
      <use xlink:href="#ArialMT-74" transform="translate(878.173828 0)"/>
      <use xlink:href="#ArialMT-69" transform="translate(905.957031 0)"/>
      <use xlink:href="#ArialMT-6f" transform="translate(928.173828 0)"/>
      <use xlink:href="#ArialMT-6e" transform="translate(983.789062 0)"/>
      <use xlink:href="#ArialMT-20" transform="translate(1039.404297 0)"/>
      <use xlink:href="#ArialMT-28" transform="translate(1067.1875 0)"/>
      <use xlink:href="#ArialMT-64" transform="translate(1100.488281 0)"/>
      <use xlink:href="#ArialMT-61" transform="translate(1156.103516 0)"/>
      <use xlink:href="#ArialMT-79" transform="translate(1211.71875 0)"/>
      <use xlink:href="#ArialMT-29" transform="translate(1261.71875 0)"/>
     </g>
    </g>
   </g>
   <g id="matplotlib.axis_2"/>
   <g id="FillBetweenPolyCollection_1">
    <defs>
     <path id="m6ff9ab079d" d="M 173.045455 -31.726513 
L 173.045455 -31.68 
L 175.546882 -31.68 
L 178.04831 -31.68 
L 180.549738 -31.68 
L 183.051166 -31.68 
L 185.552593 -31.68 
L 188.054021 -31.68 
L 190.555449 -31.68 
L 193.056877 -31.68 
L 195.558304 -31.68 
L 198.059732 -31.68 
L 200.56116 -31.68 
L 203.062588 -31.68 
L 205.564015 -31.68 
L 208.065443 -31.68 
L 210.566871 -31.68 
L 213.068299 -31.68 
L 215.569727 -31.68 
L 218.071154 -31.68 
L 220.572582 -31.68 
L 223.07401 -31.68 
L 225.575438 -31.68 
L 228.076865 -31.68 
L 230.578293 -31.68 
L 233.079721 -31.68 
L 235.581149 -31.68 
L 238.082576 -31.68 
L 240.584004 -31.68 
L 243.085432 -31.68 
L 245.58686 -31.68 
L 248.088287 -31.68 
L 250.589715 -31.68 
L 253.091143 -31.68 
L 255.592571 -31.68 
L 258.093999 -31.68 
L 260.595426 -31.68 
L 263.096854 -31.68 
L 265.598282 -31.68 
L 268.09971 -31.68 
L 270.601137 -31.68 
L 273.102565 -31.68 
L 275.603993 -31.68 
L 278.105421 -31.68 
L 280.606848 -31.68 
L 283.108276 -31.68 
L 285.609704 -31.68 
L 288.111132 -31.68 
L 290.612559 -31.68 
L 293.113987 -31.68 
L 295.615415 -31.68 
L 298.116843 -31.68 
L 300.618271 -31.68 
L 303.119698 -31.68 
L 305.621126 -31.68 
L 308.122554 -31.68 
L 310.623982 -31.68 
L 313.125409 -31.68 
L 315.626837 -31.68 
L 318.128265 -31.68 
L 320.629693 -31.68 
L 323.13112 -31.68 
L 325.632548 -31.68 
L 328.133976 -31.68 
L 330.635404 -31.68 
L 333.136831 -31.68 
L 335.638259 -31.68 
L 338.139687 -31.68 
L 340.641115 -31.68 
L 343.142542 -31.68 
L 345.64397 -31.68 
L 348.145398 -31.68 
L 350.646826 -31.68 
L 353.148254 -31.68 
L 355.649681 -31.68 
L 358.151109 -31.68 
L 360.652537 -31.68 
L 363.153965 -31.68 
L 365.655392 -31.68 
L 368.15682 -31.68 
L 370.658248 -31.68 
L 373.159676 -31.68 
L 375.661103 -31.68 
L 378.162531 -31.68 
L 380.663959 -31.68 
L 383.165387 -31.68 
L 385.666814 -31.68 
L 388.168242 -31.68 
L 390.66967 -31.68 
L 393.171098 -31.68 
L 395.672526 -31.68 
L 398.173953 -31.68 
L 400.675381 -31.68 
L 403.176809 -31.68 
L 405.678237 -31.68 
L 408.179664 -31.68 
L 410.681092 -31.68 
L 413.18252 -31.68 
L 415.683948 -31.68 
L 418.185375 -31.68 
L 420.686803 -31.68 
L 423.188231 -31.68 
L 425.689659 -31.68 
L 428.191086 -31.68 
L 430.692514 -31.68 
L 433.193942 -31.68 
L 435.69537 -31.68 
L 438.196798 -31.68 
L 440.698225 -31.68 
L 443.199653 -31.68 
L 445.701081 -31.68 
L 448.202509 -31.68 
L 450.703936 -31.68 
L 453.205364 -31.68 
L 455.706792 -31.68 
L 458.20822 -31.68 
L 460.709647 -31.68 
L 463.211075 -31.68 
L 465.712503 -31.68 
L 468.213931 -31.68 
L 470.715358 -31.68 
L 473.216786 -31.68 
L 475.718214 -31.68 
L 478.219642 -31.68 
L 480.72107 -31.68 
L 483.222497 -31.68 
L 485.723925 -31.68 
L 488.225353 -31.68 
L 490.726781 -31.68 
L 493.228208 -31.68 
L 495.729636 -31.68 
L 498.231064 -31.68 
L 500.732492 -31.68 
L 503.233919 -31.68 
L 505.735347 -31.68 
L 508.236775 -31.68 
L 510.738203 -31.68 
L 513.23963 -31.68 
L 515.741058 -31.68 
L 518.242486 -31.68 
L 520.743914 -31.68 
L 523.245342 -31.68 
L 525.746769 -31.68 
L 528.248197 -31.68 
L 530.749625 -31.68 
L 533.251053 -31.68 
L 535.75248 -31.68 
L 538.253908 -31.68 
L 540.755336 -31.68 
L 543.256764 -31.68 
L 545.758191 -31.68 
L 548.259619 -31.68 
L 550.761047 -31.68 
L 553.262475 -31.68 
L 555.763902 -31.68 
L 558.26533 -31.68 
L 560.766758 -31.68 
L 563.268186 -31.68 
L 565.769613 -31.68 
L 568.271041 -31.68 
L 570.772469 -31.68 
L 573.273897 -31.68 
L 575.775325 -31.68 
L 578.276752 -31.68 
L 580.77818 -31.68 
L 583.279608 -31.68 
L 585.781036 -31.68 
L 588.282463 -31.68 
L 590.783891 -31.68 
L 593.285319 -31.68 
L 595.786747 -31.68 
L 598.288174 -31.68 
L 600.789602 -31.68 
L 603.29103 -31.68 
L 605.792458 -31.68 
L 608.293885 -31.68 
L 610.795313 -31.68 
L 613.296741 -31.68 
L 615.798169 -31.68 
L 618.299597 -31.68 
L 620.801024 -31.68 
L 623.302452 -31.68 
L 625.80388 -31.68 
L 628.305308 -31.68 
L 630.806735 -31.68 
L 633.308163 -31.68 
L 635.809591 -31.68 
L 638.311019 -31.68 
L 640.812446 -31.68 
L 643.313874 -31.68 
L 645.815302 -31.68 
L 648.31673 -31.68 
L 650.818157 -31.68 
L 653.319585 -31.68 
L 655.821013 -31.68 
L 658.322441 -31.68 
L 660.823869 -31.68 
L 663.325296 -31.68 
L 665.826724 -31.68 
L 668.328152 -31.68 
L 670.82958 -31.68 
L 670.82958 -31.725473 
L 670.82958 -31.725473 
L 668.328152 -31.741837 
L 665.826724 -31.763182 
L 663.325296 -31.790686 
L 660.823869 -31.825693 
L 658.322441 -31.869702 
L 655.821013 -31.924338 
L 653.319585 -31.991316 
L 650.818157 -32.072378 
L 648.31673 -32.169219 
L 645.815302 -32.283398 
L 643.313874 -32.416227 
L 640.812446 -32.568657 
L 638.311019 -32.741159 
L 635.809591 -32.933611 
L 633.308163 -33.145198 
L 630.806735 -33.37434 
L 628.305308 -33.61865 
L 625.80388 -33.874947 
L 623.302452 -34.13931 
L 620.801024 -34.407199 
L 618.299597 -34.673622 
L 615.798169 -34.933365 
L 613.296741 -35.181257 
L 610.795313 -35.412465 
L 608.293885 -35.622805 
L 605.792458 -35.809036 
L 603.29103 -35.969134 
L 600.789602 -36.102499 
L 598.288174 -36.210107 
L 595.786747 -36.29457 
L 593.285319 -36.360105 
L 590.783891 -36.412411 
L 588.282463 -36.458457 
L 585.781036 -36.506193 
L 583.279608 -36.564205 
L 580.77818 -36.64134 
L 578.276752 -36.746314 
L 575.775325 -36.887339 
L 573.273897 -37.071798 
L 570.772469 -37.305973 
L 568.271041 -37.594856 
L 565.769613 -37.942043 
L 563.268186 -38.349715 
L 560.766758 -38.818714 
L 558.26533 -39.34868 
L 555.763902 -39.938255 
L 553.262475 -40.585328 
L 550.761047 -41.287295 
L 548.259619 -42.04133 
L 545.758191 -42.844628 
L 543.256764 -43.694627 
L 540.755336 -44.589178 
L 538.253908 -45.526672 
L 535.75248 -46.506113 
L 533.251053 -47.527149 
L 530.749625 -48.590048 
L 528.248197 -49.695659 
L 525.746769 -50.845337 
L 523.245342 -52.040861 
L 520.743914 -53.284359 
L 518.242486 -54.578235 
L 515.741058 -55.925119 
L 513.23963 -57.327843 
L 510.738203 -58.78944 
L 508.236775 -60.313179 
L 505.735347 -61.902618 
L 503.233919 -63.561684 
L 500.732492 -65.294772 
L 498.231064 -67.10684 
L 495.729636 -69.00351 
L 493.228208 -70.991157 
L 490.726781 -73.076963 
L 488.225353 -75.268939 
L 485.723925 -77.575909 
L 483.222497 -80.007419 
L 480.72107 -82.5736 
L 478.219642 -85.284954 
L 475.718214 -88.152069 
L 473.216786 -91.185265 
L 470.715358 -94.394183 
L 468.213931 -97.787303 
L 465.712503 -101.371431 
L 463.211075 -105.151151 
L 460.709647 -109.128263 
L 458.20822 -113.301233 
L 455.706792 -117.664681 
L 453.205364 -122.208914 
L 450.703936 -126.919556 
L 448.202509 -131.777279 
L 445.701081 -136.757668 
L 443.199653 -141.831249 
L 440.698225 -146.96369 
L 438.196798 -152.116189 
L 435.69537 -157.246058 
L 433.193942 -162.307503 
L 430.692514 -167.252574 
L 428.191086 -172.032277 
L 425.689659 -176.597789 
L 423.188231 -180.901752 
L 420.686803 -184.899564 
L 418.185375 -188.550629 
L 415.683948 -191.819472 
L 413.18252 -194.67669 
L 410.681092 -197.099646 
L 408.179664 -199.072895 
L 405.678237 -200.588301 
L 403.176809 -201.644836 
L 400.675381 -202.248086 
L 398.173953 -202.409492 
L 395.672526 -202.145391 
L 393.171098 -201.47591 
L 390.66967 -200.423812 
L 388.168242 -199.013367 
L 385.666814 -197.269317 
L 383.165387 -195.216021 
L 380.663959 -192.876808 
L 378.162531 -190.273587 
L 375.661103 -187.426707 
L 373.159676 -184.355052 
L 370.658248 -181.076345 
L 368.15682 -177.607585 
L 365.655392 -173.965583 
L 363.153965 -170.167499 
L 360.652537 -166.23133 
L 358.151109 -162.176287 
L 355.649681 -158.023012 
L 353.148254 -153.79361 
L 350.646826 -149.511491 
L 348.145398 -145.201019 
L 345.64397 -140.887008 
L 343.142542 -136.594099 
L 340.641115 -132.346066 
L 338.139687 -128.16511 
L 335.638259 -124.071199 
L 333.136831 -120.081484 
L 330.635404 -116.209861 
L 328.133976 -112.466678 
L 325.632548 -108.858626 
L 323.13112 -105.388796 
L 320.629693 -102.056908 
L 318.128265 -98.859683 
L 315.626837 -95.791327 
L 313.125409 -92.844098 
L 310.623982 -90.008917 
L 308.122554 -87.275986 
L 305.621126 -84.635384 
L 303.119698 -82.0776 
L 300.618271 -79.594007 
L 298.116843 -77.177222 
L 295.615415 -74.821382 
L 293.113987 -72.522298 
L 290.612559 -70.277508 
L 288.111132 -68.086234 
L 285.609704 -65.949236 
L 283.108276 -63.868602 
L 280.606848 -61.847467 
L 278.105421 -59.889693 
L 275.603993 -57.999528 
L 273.102565 -56.181254 
L 270.601137 -54.438866 
L 268.09971 -52.775772 
L 265.598282 -51.19456 
L 263.096854 -49.696823 
L 260.595426 -48.283061 
L 258.093999 -46.952661 
L 255.592571 -45.703951 
L 253.091143 -44.534323 
L 250.589715 -43.44041 
L 248.088287 -42.418296 
L 245.58686 -41.463752 
L 243.085432 -40.572463 
L 240.584004 -39.74024 
L 238.082576 -38.963193 
L 235.581149 -38.237864 
L 233.079721 -37.561295 
L 230.578293 -36.931055 
L 228.076865 -36.345209 
L 225.575438 -35.802245 
L 223.07401 -35.300976 
L 220.572582 -34.840419 
L 218.071154 -34.419674 
L 215.569727 -34.037802 
L 213.068299 -33.693736 
L 210.566871 -33.3862 
L 208.065443 -33.113669 
L 205.564015 -32.874351 
L 203.062588 -32.666199 
L 200.56116 -32.486944 
L 198.059732 -32.33415 
L 195.558304 -32.205272 
L 193.056877 -32.097727 
L 190.555449 -32.008957 
L 188.054021 -31.936489 
L 185.552593 -31.877983 
L 183.051166 -31.831279 
L 180.549738 -31.794414 
L 178.04831 -31.765644 
L 175.546882 -31.743446 
L 173.045455 -31.726513 
z
" style="stroke: #dd8452"/>
    </defs>
    <g clip-path="url(#p48e0cc6974)">
     <use xlink:href="#m6ff9ab079d" x="0" y="288" style="fill: #dd8452; fill-opacity: 0.25; stroke: #dd8452"/>
    </g>
   </g>
   <g id="FillBetweenPolyCollection_2">
    <defs>
     <path id="m45fcfa9b4e" d="M 456.109265 -31.734062 
L 456.109265 -31.68 
L 458.510498 -31.68 
L 460.911731 -31.68 
L 463.312963 -31.68 
L 465.714196 -31.68 
L 468.115428 -31.68 
L 470.516661 -31.68 
L 472.917893 -31.68 
L 475.319126 -31.68 
L 477.720358 -31.68 
L 480.121591 -31.68 
L 482.522824 -31.68 
L 484.924056 -31.68 
L 487.325289 -31.68 
L 489.726521 -31.68 
L 492.127754 -31.68 
L 494.528986 -31.68 
L 496.930219 -31.68 
L 499.331452 -31.68 
L 501.732684 -31.68 
L 504.133917 -31.68 
L 506.535149 -31.68 
L 508.936382 -31.68 
L 511.337614 -31.68 
L 513.738847 -31.68 
L 516.140079 -31.68 
L 518.541312 -31.68 
L 520.942545 -31.68 
L 523.343777 -31.68 
L 525.74501 -31.68 
L 528.146242 -31.68 
L 530.547475 -31.68 
L 532.948707 -31.68 
L 535.34994 -31.68 
L 537.751173 -31.68 
L 540.152405 -31.68 
L 542.553638 -31.68 
L 544.95487 -31.68 
L 547.356103 -31.68 
L 549.757335 -31.68 
L 552.158568 -31.68 
L 554.5598 -31.68 
L 556.961033 -31.68 
L 559.362266 -31.68 
L 561.763498 -31.68 
L 564.164731 -31.68 
L 566.565963 -31.68 
L 568.967196 -31.68 
L 571.368428 -31.68 
L 573.769661 -31.68 
L 576.170894 -31.68 
L 578.572126 -31.68 
L 580.973359 -31.68 
L 583.374591 -31.68 
L 585.775824 -31.68 
L 588.177056 -31.68 
L 590.578289 -31.68 
L 592.979521 -31.68 
L 595.380754 -31.68 
L 597.781987 -31.68 
L 600.183219 -31.68 
L 602.584452 -31.68 
L 604.985684 -31.68 
L 607.386917 -31.68 
L 609.788149 -31.68 
L 612.189382 -31.68 
L 614.590615 -31.68 
L 616.991847 -31.68 
L 619.39308 -31.68 
L 621.794312 -31.68 
L 624.195545 -31.68 
L 626.596777 -31.68 
L 628.99801 -31.68 
L 631.399242 -31.68 
L 633.800475 -31.68 
L 636.201708 -31.68 
L 638.60294 -31.68 
L 641.004173 -31.68 
L 643.405405 -31.68 
L 645.806638 -31.68 
L 648.20787 -31.68 
L 650.609103 -31.68 
L 653.010336 -31.68 
L 655.411568 -31.68 
L 657.812801 -31.68 
L 660.214033 -31.68 
L 662.615266 -31.68 
L 665.016498 -31.68 
L 667.417731 -31.68 
L 669.818964 -31.68 
L 672.220196 -31.68 
L 674.621429 -31.68 
L 677.022661 -31.68 
L 679.423894 -31.68 
L 681.825126 -31.68 
L 684.226359 -31.68 
L 686.627591 -31.68 
L 689.028824 -31.68 
L 691.430057 -31.68 
L 693.831289 -31.68 
L 696.232522 -31.68 
L 698.633754 -31.68 
L 701.034987 -31.68 
L 703.436219 -31.68 
L 705.837452 -31.68 
L 708.238685 -31.68 
L 710.639917 -31.68 
L 713.04115 -31.68 
L 715.442382 -31.68 
L 717.843615 -31.68 
L 720.244847 -31.68 
L 722.64608 -31.68 
L 725.047312 -31.68 
L 727.448545 -31.68 
L 729.849778 -31.68 
L 732.25101 -31.68 
L 734.652243 -31.68 
L 737.053475 -31.68 
L 739.454708 -31.68 
L 741.85594 -31.68 
L 744.257173 -31.68 
L 746.658406 -31.68 
L 749.059638 -31.68 
L 751.460871 -31.68 
L 753.862103 -31.68 
L 756.263336 -31.68 
L 758.664568 -31.68 
L 761.065801 -31.68 
L 763.467033 -31.68 
L 765.868266 -31.68 
L 768.269499 -31.68 
L 770.670731 -31.68 
L 773.071964 -31.68 
L 775.473196 -31.68 
L 777.874429 -31.68 
L 780.275661 -31.68 
L 782.676894 -31.68 
L 785.078127 -31.68 
L 787.479359 -31.68 
L 789.880592 -31.68 
L 792.281824 -31.68 
L 794.683057 -31.68 
L 797.084289 -31.68 
L 799.485522 -31.68 
L 801.886754 -31.68 
L 804.287987 -31.68 
L 806.68922 -31.68 
L 809.090452 -31.68 
L 811.491685 -31.68 
L 813.892917 -31.68 
L 816.29415 -31.68 
L 818.695382 -31.68 
L 821.096615 -31.68 
L 823.497848 -31.68 
L 825.89908 -31.68 
L 828.300313 -31.68 
L 830.701545 -31.68 
L 833.102778 -31.68 
L 835.50401 -31.68 
L 837.905243 -31.68 
L 840.306475 -31.68 
L 842.707708 -31.68 
L 845.108941 -31.68 
L 847.510173 -31.68 
L 849.911406 -31.68 
L 852.312638 -31.68 
L 854.713871 -31.68 
L 857.115103 -31.68 
L 859.516336 -31.68 
L 861.917569 -31.68 
L 864.318801 -31.68 
L 866.720034 -31.68 
L 869.121266 -31.68 
L 871.522499 -31.68 
L 873.923731 -31.68 
L 876.324964 -31.68 
L 878.726197 -31.68 
L 881.127429 -31.68 
L 883.528662 -31.68 
L 885.929894 -31.68 
L 888.331127 -31.68 
L 890.732359 -31.68 
L 893.133592 -31.68 
L 895.534824 -31.68 
L 897.936057 -31.68 
L 900.33729 -31.68 
L 902.738522 -31.68 
L 905.139755 -31.68 
L 907.540987 -31.68 
L 909.94222 -31.68 
L 912.343452 -31.68 
L 914.744685 -31.68 
L 917.145918 -31.68 
L 919.54715 -31.68 
L 921.948383 -31.68 
L 924.349615 -31.68 
L 926.750848 -31.68 
L 929.15208 -31.68 
L 931.553313 -31.68 
L 933.954545 -31.68 
L 933.954545 -31.734913 
L 933.954545 -31.734913 
L 931.553313 -31.758413 
L 929.15208 -31.79034 
L 926.750848 -31.833004 
L 924.349615 -31.889074 
L 921.948383 -31.961529 
L 919.54715 -32.05357 
L 917.145918 -32.168481 
L 914.744685 -32.309433 
L 912.343452 -32.479241 
L 909.94222 -32.680074 
L 907.540987 -32.913143 
L 905.139755 -33.178377 
L 902.738522 -33.474136 
L 900.33729 -33.796977 
L 897.936057 -34.141523 
L 895.534824 -34.500453 
L 893.133592 -34.864649 
L 890.732359 -35.223502 
L 888.331127 -35.565379 
L 885.929894 -35.878225 
L 883.528662 -36.150258 
L 881.127429 -36.370714 
L 878.726197 -36.530565 
L 876.324964 -36.623162 
L 873.923731 -36.644732 
L 871.522499 -36.594685 
L 869.121266 -36.475709 
L 866.720034 -36.293643 
L 864.318801 -36.057142 
L 861.917569 -35.777179 
L 859.516336 -35.466429 
L 857.115103 -35.138597 
L 854.713871 -34.807759 
L 852.312638 -34.487748 
L 849.911406 -34.191662 
L 847.510173 -33.931477 
L 845.108941 -33.717809 
L 842.707708 -33.559787 
L 840.306475 -33.465038 
L 837.905243 -33.439739 
L 835.50401 -33.488714 
L 833.102778 -33.615552 
L 830.701545 -33.822716 
L 828.300313 -34.111657 
L 825.89908 -34.48291 
L 823.497848 -34.936207 
L 821.096615 -35.470611 
L 818.695382 -36.084685 
L 816.29415 -36.776731 
L 813.892917 -37.545071 
L 811.491685 -38.388394 
L 809.090452 -39.306135 
L 806.68922 -40.298862 
L 804.287987 -41.368638 
L 801.886754 -42.51931 
L 799.485522 -43.756703 
L 797.084289 -45.088685 
L 794.683057 -46.525077 
L 792.281824 -48.077427 
L 789.880592 -49.75864 
L 787.479359 -51.582515 
L 785.078127 -53.563195 
L 782.676894 -55.714604 
L 780.275661 -58.049884 
L 777.874429 -60.580894 
L 775.473196 -63.317779 
L 773.071964 -66.268641 
L 770.670731 -69.439312 
L 768.269499 -72.83324 
L 765.868266 -76.451468 
L 763.467033 -80.292698 
L 761.065801 -84.353442 
L 758.664568 -88.628223 
L 756.263336 -93.109839 
L 753.862103 -97.789658 
L 751.460871 -102.65795 
L 749.059638 -107.704211 
L 746.658406 -112.917483 
L 744.257173 -118.286618 
L 741.85594 -123.800464 
L 739.454708 -129.447924 
L 737.053475 -135.217876 
L 734.652243 -141.098911 
L 732.25101 -147.078893 
L 729.849778 -153.144367 
L 727.448545 -159.279833 
L 725.047312 -165.466966 
L 722.64608 -171.683846 
L 720.244847 -177.904292 
L 717.843615 -184.097383 
L 715.442382 -190.227231 
L 713.04115 -196.253075 
L 710.639917 -202.129683 
L 708.238685 -207.808088 
L 705.837452 -213.236579 
L 703.436219 -218.361898 
L 701.034987 -223.130541 
L 698.633754 -227.490088 
L 696.232522 -231.39045 
L 693.831289 -234.784984 
L 691.430057 -237.631426 
L 689.028824 -239.892618 
L 686.627591 -241.537051 
L 684.226359 -242.53924 
L 681.825126 -242.88 
L 679.423894 -242.546651 
L 677.022661 -241.533212 
L 674.621429 -239.84061 
L 672.220196 -237.47691 
L 669.818964 -234.457557 
L 667.417731 -230.8056 
L 665.016498 -226.551825 
L 662.615266 -221.734768 
L 660.214033 -216.400516 
L 657.812801 -210.602255 
L 655.411568 -204.399535 
L 653.010336 -197.857228 
L 650.609103 -191.044197 
L 648.20787 -184.031719 
L 645.806638 -176.891735 
L 643.405405 -169.694991 
L 641.004173 -162.509198 
L 638.60294 -155.397289 
L 636.201708 -148.415884 
L 633.800475 -141.614049 
L 631.399242 -135.032404 
L 628.99801 -128.702642 
L 626.596777 -122.647454 
L 624.195545 -116.880861 
L 621.794312 -111.408908 
L 619.39308 -106.230651 
L 616.991847 -101.33937 
L 614.590615 -96.7239 
L 612.189382 -92.37 
L 609.788149 -88.261649 
L 607.386917 -84.382218 
L 604.985684 -80.715428 
L 602.584452 -77.246083 
L 600.183219 -73.960537 
L 597.781987 -70.846936 
L 595.380754 -67.895241 
L 592.979521 -65.097091 
L 590.578289 -62.445569 
L 588.177056 -59.934917 
L 585.775824 -57.560265 
L 583.374591 -55.317406 
L 580.973359 -53.202659 
L 578.572126 -51.21281 
L 576.170894 -49.345137 
L 573.769661 -47.597484 
L 571.368428 -45.968365 
L 568.967196 -44.457042 
L 566.565963 -43.06356 
L 564.164731 -41.788692 
L 561.763498 -40.633793 
L 559.362266 -39.600541 
L 556.961033 -38.690587 
L 554.5598 -37.905125 
L 552.158568 -37.244421 
L 549.757335 -36.707337 
L 547.356103 -36.290882 
L 544.95487 -35.989856 
L 542.553638 -35.796593 
L 540.152405 -35.700868 
L 537.751173 -35.689963 
L 535.34994 -35.748923 
L 532.948707 -35.860989 
L 530.547475 -36.008192 
L 528.146242 -36.17208 
L 525.74501 -36.334527 
L 523.343777 -36.478578 
L 520.942545 -36.589249 
L 518.541312 -36.654237 
L 516.140079 -36.664471 
L 513.738847 -36.614463 
L 511.337614 -36.502422 
L 508.936382 -36.330131 
L 506.535149 -36.102598 
L 504.133917 -35.827512 
L 501.732684 -35.514557 
L 499.331452 -35.174648 
L 496.930219 -34.819154 
L 494.528986 -34.459167 
L 492.127754 -34.104878 
L 489.726521 -33.765089 
L 487.325289 -33.446887 
L 484.924056 -33.155488 
L 482.522824 -32.894229 
L 480.121591 -32.664691 
L 477.720358 -32.466922 
L 475.319126 -32.299717 
L 472.917893 -32.160933 
L 470.516661 -32.047794 
L 468.115428 -31.957174 
L 465.714196 -31.885839 
L 463.312963 -31.830636 
L 460.911731 -31.788632 
L 458.510498 -31.757199 
L 456.109265 -31.734062 
z
" style="stroke: #4c72b0"/>
    </defs>
    <g clip-path="url(#p48e0cc6974)">
     <use xlink:href="#m45fcfa9b4e" x="0" y="288" style="fill: #4c72b0; fill-opacity: 0.25; stroke: #4c72b0"/>
    </g>
   </g>
   <g id="line2d_36">
    <path d="M 362.459773 256.32 
L 362.459773 34.56 
" clip-path="url(#p48e0cc6974)" style="fill: none; stroke-dasharray: 2.96,1.28; stroke-dashoffset: 0; stroke: #d3d3d3; stroke-width: 0.8"/>
   </g>
   <g id="line2d_37">
    <path d="M 576.58975 256.32 
L 576.58975 34.56 
" clip-path="url(#p48e0cc6974)" style="fill: none; stroke-dasharray: 2.96,1.28; stroke-dashoffset: 0; stroke: #d3d3d3; stroke-width: 0.8"/>
   </g>
   <g id="line2d_38">
    <path d="M 494.025719 256.32 
L 494.025719 34.56 
" clip-path="url(#p48e0cc6974)" style="fill: none; stroke-dasharray: 2.96,1.28; stroke-dashoffset: 0; stroke: #d3d3d3; stroke-width: 0.8"/>
   </g>
   <g id="line2d_39">
    <path d="M 135 256.32 
L 972 256.32 
" clip-path="url(#p48e0cc6974)" style="fill: none; stroke: #808080; stroke-width: 0.5; stroke-linecap: round"/>
   </g>
   <g id="text_12">
    <!-- International Poverty Line: $2.15 -->
    <g style="fill: #808080" transform="translate(368.713523 151.95635) rotate(-90) scale(0.08 -0.08)">
     <defs>
      <path id="ArialMT-6c" d="M 409 0 
L 409 4581 
L 972 4581 
L 972 0 
L 409 0 
z
" transform="scale(0.015625)"/>
      <path id="ArialMT-50" d="M 494 0 
L 494 4581 
L 2222 4581 
Q 2678 4581 2919 4538 
Q 3256 4481 3484 4323 
Q 3713 4166 3852 3881 
Q 3991 3597 3991 3256 
Q 3991 2672 3619 2267 
Q 3247 1863 2275 1863 
L 1100 1863 
L 1100 0 
L 494 0 
z
M 1100 2403 
L 2284 2403 
Q 2872 2403 3119 2622 
Q 3366 2841 3366 3238 
Q 3366 3525 3220 3729 
Q 3075 3934 2838 4000 
Q 2684 4041 2272 4041 
L 1100 4041 
L 1100 2403 
z
" transform="scale(0.015625)"/>
      <path id="ArialMT-76" d="M 1344 0 
L 81 3319 
L 675 3319 
L 1388 1331 
Q 1503 1009 1600 663 
Q 1675 925 1809 1294 
L 2547 3319 
L 3125 3319 
L 1869 0 
L 1344 0 
z
" transform="scale(0.015625)"/>
      <path id="ArialMT-4c" d="M 469 0 
L 469 4581 
L 1075 4581 
L 1075 541 
L 3331 541 
L 3331 0 
L 469 0 
z
" transform="scale(0.015625)"/>
      <path id="ArialMT-3a" d="M 578 2678 
L 578 3319 
L 1219 3319 
L 1219 2678 
L 578 2678 
z
M 578 0 
L 578 641 
L 1219 641 
L 1219 0 
L 578 0 
z
" transform="scale(0.015625)"/>
      <path id="ArialMT-24" d="M 1594 -659 
L 1594 -97 
Q 1172 -44 908 92 
Q 644 228 451 531 
Q 259 834 228 1272 
L 794 1378 
Q 859 925 1025 713 
Q 1263 413 1594 378 
L 1594 2169 
Q 1247 2234 884 2438 
Q 616 2588 470 2853 
Q 325 3119 325 3456 
Q 325 4056 750 4428 
Q 1034 4678 1594 4734 
L 1594 5003 
L 1925 5003 
L 1925 4734 
Q 2416 4688 2703 4447 
Q 3072 4141 3147 3606 
L 2566 3519 
Q 2516 3850 2358 4026 
Q 2200 4203 1925 4259 
L 1925 2638 
Q 2350 2531 2488 2472 
Q 2750 2356 2915 2190 
Q 3081 2025 3170 1797 
Q 3259 1569 3259 1303 
Q 3259 719 2887 328 
Q 2516 -63 1925 -91 
L 1925 -659 
L 1594 -659 
z
M 1594 4266 
Q 1266 4216 1077 4003 
Q 888 3791 888 3500 
Q 888 3213 1048 3019 
Q 1209 2825 1594 2709 
L 1594 4266 
z
M 1925 378 
Q 2253 419 2467 662 
Q 2681 906 2681 1266 
Q 2681 1572 2529 1758 
Q 2378 1944 1925 2091 
L 1925 378 
z
" transform="scale(0.015625)"/>
      <path id="ArialMT-2e" d="M 581 0 
L 581 641 
L 1222 641 
L 1222 0 
L 581 0 
z
" transform="scale(0.015625)"/>
     </defs>
     <use xlink:href="#ArialMT-49"/>
     <use xlink:href="#ArialMT-6e" transform="translate(27.783203 0)"/>
     <use xlink:href="#ArialMT-74" transform="translate(83.398438 0)"/>
     <use xlink:href="#ArialMT-65" transform="translate(111.181641 0)"/>
     <use xlink:href="#ArialMT-72" transform="translate(166.796875 0)"/>
     <use xlink:href="#ArialMT-6e" transform="translate(200.097656 0)"/>
     <use xlink:href="#ArialMT-61" transform="translate(255.712891 0)"/>
     <use xlink:href="#ArialMT-74" transform="translate(311.328125 0)"/>
     <use xlink:href="#ArialMT-69" transform="translate(339.111328 0)"/>
     <use xlink:href="#ArialMT-6f" transform="translate(361.328125 0)"/>
     <use xlink:href="#ArialMT-6e" transform="translate(416.943359 0)"/>
     <use xlink:href="#ArialMT-61" transform="translate(472.558594 0)"/>
     <use xlink:href="#ArialMT-6c" transform="translate(528.173828 0)"/>
     <use xlink:href="#ArialMT-20" transform="translate(550.390625 0)"/>
     <use xlink:href="#ArialMT-50" transform="translate(578.173828 0)"/>
     <use xlink:href="#ArialMT-6f" transform="translate(644.873047 0)"/>
     <use xlink:href="#ArialMT-76" transform="translate(700.488281 0)"/>
     <use xlink:href="#ArialMT-65" transform="translate(750.488281 0)"/>
     <use xlink:href="#ArialMT-72" transform="translate(806.103516 0)"/>
     <use xlink:href="#ArialMT-74" transform="translate(839.404297 0)"/>
     <use xlink:href="#ArialMT-79" transform="translate(867.1875 0)"/>
     <use xlink:href="#ArialMT-20" transform="translate(917.1875 0)"/>
     <use xlink:href="#ArialMT-4c" transform="translate(944.970703 0)"/>
     <use xlink:href="#ArialMT-69" transform="translate(1000.585938 0)"/>
     <use xlink:href="#ArialMT-6e" transform="translate(1022.802734 0)"/>
     <use xlink:href="#ArialMT-65" transform="translate(1078.417969 0)"/>
     <use xlink:href="#ArialMT-3a" transform="translate(1134.033203 0)"/>
     <use xlink:href="#ArialMT-20" transform="translate(1161.816406 0)"/>
     <use xlink:href="#ArialMT-24" transform="translate(1189.599609 0)"/>
     <use xlink:href="#ArialMT-32" transform="translate(1245.214844 0)"/>
     <use xlink:href="#ArialMT-2e" transform="translate(1300.830078 0)"/>
     <use xlink:href="#ArialMT-31" transform="translate(1328.613281 0)"/>
     <use xlink:href="#ArialMT-35" transform="translate(1384.228516 0)"/>
    </g>
   </g>
   <g id="text_13">
    <!-- World mean: $19.18 -->
    <g style="fill: #808080" transform="translate(582.316 108.67135) rotate(-90) scale(0.08 -0.08)">
     <defs>
      <path id="ArialMT-57" d="M 1294 0 
L 78 4581 
L 700 4581 
L 1397 1578 
Q 1509 1106 1591 641 
Q 1766 1375 1797 1488 
L 2669 4581 
L 3400 4581 
L 4056 2263 
Q 4303 1400 4413 641 
Q 4500 1075 4641 1638 
L 5359 4581 
L 5969 4581 
L 4713 0 
L 4128 0 
L 3163 3491 
Q 3041 3928 3019 4028 
Q 2947 3713 2884 3491 
L 1913 0 
L 1294 0 
z
" transform="scale(0.015625)"/>
      <path id="ArialMT-39" d="M 350 1059 
L 891 1109 
Q 959 728 1153 556 
Q 1347 384 1650 384 
Q 1909 384 2104 503 
Q 2300 622 2425 820 
Q 2550 1019 2634 1356 
Q 2719 1694 2719 2044 
Q 2719 2081 2716 2156 
Q 2547 1888 2255 1720 
Q 1963 1553 1622 1553 
Q 1053 1553 659 1965 
Q 266 2378 266 3053 
Q 266 3750 677 4175 
Q 1088 4600 1706 4600 
Q 2153 4600 2523 4359 
Q 2894 4119 3086 3673 
Q 3278 3228 3278 2384 
Q 3278 1506 3087 986 
Q 2897 466 2520 194 
Q 2144 -78 1638 -78 
Q 1100 -78 759 220 
Q 419 519 350 1059 
z
M 2653 3081 
Q 2653 3566 2395 3850 
Q 2138 4134 1775 4134 
Q 1400 4134 1122 3828 
Q 844 3522 844 3034 
Q 844 2597 1108 2323 
Q 1372 2050 1759 2050 
Q 2150 2050 2401 2323 
Q 2653 2597 2653 3081 
z
" transform="scale(0.015625)"/>
      <path id="ArialMT-38" d="M 1131 2484 
Q 781 2613 612 2850 
Q 444 3088 444 3419 
Q 444 3919 803 4259 
Q 1163 4600 1759 4600 
Q 2359 4600 2725 4251 
Q 3091 3903 3091 3403 
Q 3091 3084 2923 2848 
Q 2756 2613 2416 2484 
Q 2838 2347 3058 2040 
Q 3278 1734 3278 1309 
Q 3278 722 2862 322 
Q 2447 -78 1769 -78 
Q 1091 -78 675 323 
Q 259 725 259 1325 
Q 259 1772 486 2073 
Q 713 2375 1131 2484 
z
M 1019 3438 
Q 1019 3113 1228 2906 
Q 1438 2700 1772 2700 
Q 2097 2700 2305 2904 
Q 2513 3109 2513 3406 
Q 2513 3716 2298 3927 
Q 2084 4138 1766 4138 
Q 1444 4138 1231 3931 
Q 1019 3725 1019 3438 
z
M 838 1322 
Q 838 1081 952 856 
Q 1066 631 1291 507 
Q 1516 384 1775 384 
Q 2178 384 2440 643 
Q 2703 903 2703 1303 
Q 2703 1709 2433 1975 
Q 2163 2241 1756 2241 
Q 1359 2241 1098 1978 
Q 838 1716 838 1322 
z
" transform="scale(0.015625)"/>
     </defs>
     <use xlink:href="#ArialMT-57"/>
     <use xlink:href="#ArialMT-6f" transform="translate(92.634766 0)"/>
     <use xlink:href="#ArialMT-72" transform="translate(148.25 0)"/>
     <use xlink:href="#ArialMT-6c" transform="translate(181.550781 0)"/>
     <use xlink:href="#ArialMT-64" transform="translate(203.767578 0)"/>
     <use xlink:href="#ArialMT-20" transform="translate(259.382812 0)"/>
     <use xlink:href="#ArialMT-6d" transform="translate(287.166016 0)"/>
     <use xlink:href="#ArialMT-65" transform="translate(370.466797 0)"/>
     <use xlink:href="#ArialMT-61" transform="translate(426.082031 0)"/>
     <use xlink:href="#ArialMT-6e" transform="translate(481.697266 0)"/>
     <use xlink:href="#ArialMT-3a" transform="translate(537.3125 0)"/>
     <use xlink:href="#ArialMT-20" transform="translate(565.095703 0)"/>
     <use xlink:href="#ArialMT-24" transform="translate(592.878906 0)"/>
     <use xlink:href="#ArialMT-31" transform="translate(648.494141 0)"/>
     <use xlink:href="#ArialMT-39" transform="translate(704.109375 0)"/>
     <use xlink:href="#ArialMT-2e" transform="translate(759.724609 0)"/>
     <use xlink:href="#ArialMT-31" transform="translate(787.507812 0)"/>
     <use xlink:href="#ArialMT-38" transform="translate(843.123047 0)"/>
    </g>
   </g>
   <g id="text_14">
    <!-- World median: $8.25 -->
    <g style="fill: #808080" transform="translate(499.751969 110.44885) rotate(-90) scale(0.08 -0.08)">
     <use xlink:href="#ArialMT-57"/>
     <use xlink:href="#ArialMT-6f" transform="translate(92.634766 0)"/>
     <use xlink:href="#ArialMT-72" transform="translate(148.25 0)"/>
     <use xlink:href="#ArialMT-6c" transform="translate(181.550781 0)"/>
     <use xlink:href="#ArialMT-64" transform="translate(203.767578 0)"/>
     <use xlink:href="#ArialMT-20" transform="translate(259.382812 0)"/>
     <use xlink:href="#ArialMT-6d" transform="translate(287.166016 0)"/>
     <use xlink:href="#ArialMT-65" transform="translate(370.466797 0)"/>
     <use xlink:href="#ArialMT-64" transform="translate(426.082031 0)"/>
     <use xlink:href="#ArialMT-69" transform="translate(481.697266 0)"/>
     <use xlink:href="#ArialMT-61" transform="translate(503.914062 0)"/>
     <use xlink:href="#ArialMT-6e" transform="translate(559.529297 0)"/>
     <use xlink:href="#ArialMT-3a" transform="translate(615.144531 0)"/>
     <use xlink:href="#ArialMT-20" transform="translate(642.927734 0)"/>
     <use xlink:href="#ArialMT-24" transform="translate(670.710938 0)"/>
     <use xlink:href="#ArialMT-38" transform="translate(726.326172 0)"/>
     <use xlink:href="#ArialMT-2e" transform="translate(781.941406 0)"/>
     <use xlink:href="#ArialMT-32" transform="translate(809.724609 0)"/>
     <use xlink:href="#ArialMT-35" transform="translate(865.339844 0)"/>
    </g>
   </g>
   <g id="text_15">
    <!-- Denmark (2021) -->
    <g transform="translate(647.175781 254.215313) scale(0.1 -0.1)">
     <defs>
      <path id="ArialMT-44" d="M 494 0 
L 494 4581 
L 2072 4581 
Q 2606 4581 2888 4516 
Q 3281 4425 3559 4188 
Q 3922 3881 4101 3404 
Q 4281 2928 4281 2316 
Q 4281 1794 4159 1391 
Q 4038 988 3847 723 
Q 3656 459 3429 307 
Q 3203 156 2883 78 
Q 2563 0 2147 0 
L 494 0 
z
M 1100 541 
L 2078 541 
Q 2531 541 2789 625 
Q 3047 709 3200 863 
Q 3416 1078 3536 1442 
Q 3656 1806 3656 2325 
Q 3656 3044 3420 3430 
Q 3184 3816 2847 3947 
Q 2603 4041 2063 4041 
L 1100 4041 
L 1100 541 
z
" transform="scale(0.015625)"/>
      <path id="ArialMT-6b" d="M 425 0 
L 425 4581 
L 988 4581 
L 988 1969 
L 2319 3319 
L 3047 3319 
L 1778 2088 
L 3175 0 
L 2481 0 
L 1384 1697 
L 988 1316 
L 988 0 
L 425 0 
z
" transform="scale(0.015625)"/>
     </defs>
     <use xlink:href="#ArialMT-44"/>
     <use xlink:href="#ArialMT-65" transform="translate(72.216797 0)"/>
     <use xlink:href="#ArialMT-6e" transform="translate(127.832031 0)"/>
     <use xlink:href="#ArialMT-6d" transform="translate(183.447266 0)"/>
     <use xlink:href="#ArialMT-61" transform="translate(266.748047 0)"/>
     <use xlink:href="#ArialMT-72" transform="translate(322.363281 0)"/>
     <use xlink:href="#ArialMT-6b" transform="translate(355.664062 0)"/>
     <use xlink:href="#ArialMT-20" transform="translate(405.664062 0)"/>
     <use xlink:href="#ArialMT-28" transform="translate(433.447266 0)"/>
     <use xlink:href="#ArialMT-32" transform="translate(466.748047 0)"/>
     <use xlink:href="#ArialMT-30" transform="translate(522.363281 0)"/>
     <use xlink:href="#ArialMT-32" transform="translate(577.978516 0)"/>
     <use xlink:href="#ArialMT-31" transform="translate(633.59375 0)"/>
     <use xlink:href="#ArialMT-29" transform="translate(689.208984 0)"/>
    </g>
   </g>
   <g id="text_16">
    <!-- Ethiopia (2015) -->
    <g transform="translate(363.166454 254.215313) scale(0.1 -0.1)">
     <defs>
      <path id="ArialMT-45" d="M 506 0 
L 506 4581 
L 3819 4581 
L 3819 4041 
L 1113 4041 
L 1113 2638 
L 3647 2638 
L 3647 2100 
L 1113 2100 
L 1113 541 
L 3925 541 
L 3925 0 
L 506 0 
z
" transform="scale(0.015625)"/>
      <path id="ArialMT-68" d="M 422 0 
L 422 4581 
L 984 4581 
L 984 2938 
Q 1378 3394 1978 3394 
Q 2347 3394 2619 3248 
Q 2891 3103 3008 2847 
Q 3125 2591 3125 2103 
L 3125 0 
L 2563 0 
L 2563 2103 
Q 2563 2525 2380 2717 
Q 2197 2909 1863 2909 
Q 1613 2909 1392 2779 
Q 1172 2650 1078 2428 
Q 984 2206 984 1816 
L 984 0 
L 422 0 
z
" transform="scale(0.015625)"/>
     </defs>
     <use xlink:href="#ArialMT-45"/>
     <use xlink:href="#ArialMT-74" transform="translate(66.699219 0)"/>
     <use xlink:href="#ArialMT-68" transform="translate(94.482422 0)"/>
     <use xlink:href="#ArialMT-69" transform="translate(150.097656 0)"/>
     <use xlink:href="#ArialMT-6f" transform="translate(172.314453 0)"/>
     <use xlink:href="#ArialMT-70" transform="translate(227.929688 0)"/>
     <use xlink:href="#ArialMT-69" transform="translate(283.544922 0)"/>
     <use xlink:href="#ArialMT-61" transform="translate(305.761719 0)"/>
     <use xlink:href="#ArialMT-20" transform="translate(361.376953 0)"/>
     <use xlink:href="#ArialMT-28" transform="translate(389.160156 0)"/>
     <use xlink:href="#ArialMT-32" transform="translate(422.460938 0)"/>
     <use xlink:href="#ArialMT-30" transform="translate(478.076172 0)"/>
     <use xlink:href="#ArialMT-31" transform="translate(533.691406 0)"/>
     <use xlink:href="#ArialMT-35" transform="translate(589.306641 0)"/>
     <use xlink:href="#ArialMT-29" transform="translate(644.921875 0)"/>
    </g>
   </g>
  </g>
 </g>
 <defs>
  <clipPath id="p48e0cc6974">
   <rect x="135" y="34.56" width="837" height="221.76"/>
  </clipPath>
 </defs>
</svg>
