<?xml version="1.0" encoding="utf-8" standalone="no"?>
<!DOCTYPE svg PUBLIC "-//W3C//DTD SVG 1.1//EN"
  "http://www.w3.org/Graphics/SVG/1.1/DTD/svg11.dtd">
<svg xmlns:xlink="http://www.w3.org/1999/xlink" width="1080pt" height="540pt" viewBox="0 0 1080 540" xmlns="http://www.w3.org/2000/svg" version="1.1">
 <metadata>
  <rdf:RDF xmlns:dc="http://purl.org/dc/elements/1.1/" xmlns:cc="http://creativecommons.org/ns#" xmlns:rdf="http://www.w3.org/1999/02/22-rdf-syntax-ns#">
   <cc:Work>
    <dc:type rdf:resource="http://purl.org/dc/dcmitype/StillImage"/>
    <dc:date>2025-03-17T19:00:08.762198</dc:date>
    <dc:format>image/svg+xml</dc:format>
    <dc:creator>
     <cc:Agent>
      <dc:title>Matplotlib v3.10.1, https://matplotlib.org/</dc:title>
     </cc:Agent>
    </dc:creator>
   </cc:Work>
  </rdf:RDF>
 </metadata>
 <defs>
  <style type="text/css">*{stroke-linejoin: round; stroke-linecap: butt}</style>
 </defs>
 <g id="figure_1">
  <g id="patch_1">
   <path d="M 0 540 
L 1080 540 
L 1080 0 
L 0 0 
z
" style="fill: #ffffff"/>
  </g>
  <g id="axes_1">
   <g id="patch_2">
    <path d="M 135 480.6 
L 972 480.6 
L 972 64.8 
L 135 64.8 
z
" style="fill: #ffffff"/>
   </g>
   <g id="matplotlib.axis_1">
    <g id="xtick_1">
     <g id="line2d_1">
      <defs>
       <path id="m0bcde93275" d="M 0 0 
L 0 3.5 
" style="stroke: #262626; stroke-width: 0.8"/>
      </defs>
      <g>
       <use xlink:href="#m0bcde93275" x="276.197099" y="480.6" style="fill: #262626; stroke: #262626; stroke-width: 0.8"/>
      </g>
     </g>
     <g id="text_1">
      <!-- 1 -->
      <g style="fill: #262626" transform="translate(273.41663 494.757812) scale(0.1 -0.1)">
       <defs>
        <path id="ArialMT-31" d="M 2384 0 
L 1822 0 
L 1822 3584 
Q 1619 3391 1289 3197 
Q 959 3003 697 2906 
L 697 3450 
Q 1169 3672 1522 3987 
Q 1875 4303 2022 4600 
L 2384 4600 
L 2384 0 
z
" transform="scale(0.015625)"/>
       </defs>
       <use xlink:href="#ArialMT-31"/>
      </g>
     </g>
    </g>
    <g id="xtick_2">
     <g id="line2d_2">
      <g>
       <use xlink:href="#m0bcde93275" x="345.205632" y="480.6" style="fill: #262626; stroke: #262626; stroke-width: 0.8"/>
      </g>
     </g>
     <g id="text_2">
      <!-- 2 -->
      <g style="fill: #262626" transform="translate(342.425164 494.757812) scale(0.1 -0.1)">
       <defs>
        <path id="ArialMT-32" d="M 3222 541 
L 3222 0 
L 194 0 
Q 188 203 259 391 
Q 375 700 629 1000 
Q 884 1300 1366 1694 
Q 2113 2306 2375 2664 
Q 2638 3022 2638 3341 
Q 2638 3675 2398 3904 
Q 2159 4134 1775 4134 
Q 1369 4134 1125 3890 
Q 881 3647 878 3216 
L 300 3275 
Q 359 3922 746 4261 
Q 1134 4600 1788 4600 
Q 2447 4600 2831 4234 
Q 3216 3869 3216 3328 
Q 3216 3053 3103 2787 
Q 2991 2522 2730 2228 
Q 2469 1934 1863 1422 
Q 1356 997 1212 845 
Q 1069 694 975 541 
L 3222 541 
z
" transform="scale(0.015625)"/>
       </defs>
       <use xlink:href="#ArialMT-32"/>
      </g>
     </g>
    </g>
    <g id="xtick_3">
     <g id="line2d_3">
      <g>
       <use xlink:href="#m0bcde93275" x="436.429951" y="480.6" style="fill: #262626; stroke: #262626; stroke-width: 0.8"/>
      </g>
     </g>
     <g id="text_3">
      <!-- 5 -->
      <g style="fill: #262626" transform="translate(433.649483 494.757812) scale(0.1 -0.1)">
       <defs>
        <path id="ArialMT-35" d="M 266 1200 
L 856 1250 
Q 922 819 1161 601 
Q 1400 384 1738 384 
Q 2144 384 2425 690 
Q 2706 997 2706 1503 
Q 2706 1984 2436 2262 
Q 2166 2541 1728 2541 
Q 1456 2541 1237 2417 
Q 1019 2294 894 2097 
L 366 2166 
L 809 4519 
L 3088 4519 
L 3088 3981 
L 1259 3981 
L 1013 2750 
Q 1425 3038 1878 3038 
Q 2478 3038 2890 2622 
Q 3303 2206 3303 1553 
Q 3303 931 2941 478 
Q 2500 -78 1738 -78 
Q 1113 -78 717 272 
Q 322 622 266 1200 
z
" transform="scale(0.015625)"/>
       </defs>
       <use xlink:href="#ArialMT-35"/>
      </g>
     </g>
    </g>
    <g id="xtick_4">
     <g id="line2d_4">
      <g>
       <use xlink:href="#m0bcde93275" x="505.438485" y="480.6" style="fill: #262626; stroke: #262626; stroke-width: 0.8"/>
      </g>
     </g>
     <g id="text_4">
      <!-- 10 -->
      <g style="fill: #262626" transform="translate(499.877547 494.757812) scale(0.1 -0.1)">
       <defs>
        <path id="ArialMT-30" d="M 266 2259 
Q 266 3072 433 3567 
Q 600 4063 929 4331 
Q 1259 4600 1759 4600 
Q 2128 4600 2406 4451 
Q 2684 4303 2865 4023 
Q 3047 3744 3150 3342 
Q 3253 2941 3253 2259 
Q 3253 1453 3087 958 
Q 2922 463 2592 192 
Q 2263 -78 1759 -78 
Q 1097 -78 719 397 
Q 266 969 266 2259 
z
M 844 2259 
Q 844 1131 1108 757 
Q 1372 384 1759 384 
Q 2147 384 2411 759 
Q 2675 1134 2675 2259 
Q 2675 3391 2411 3762 
Q 2147 4134 1753 4134 
Q 1366 4134 1134 3806 
Q 844 3388 844 2259 
z
" transform="scale(0.015625)"/>
       </defs>
       <use xlink:href="#ArialMT-31"/>
       <use xlink:href="#ArialMT-30" transform="translate(55.615234 0)"/>
      </g>
     </g>
    </g>
    <g id="xtick_5">
     <g id="line2d_5">
      <g>
       <use xlink:href="#m0bcde93275" x="574.447018" y="480.6" style="fill: #262626; stroke: #262626; stroke-width: 0.8"/>
      </g>
     </g>
     <g id="text_5">
      <!-- 20 -->
      <g style="fill: #262626" transform="translate(568.886081 494.757812) scale(0.1 -0.1)">
       <use xlink:href="#ArialMT-32"/>
       <use xlink:href="#ArialMT-30" transform="translate(55.615234 0)"/>
      </g>
     </g>
    </g>
    <g id="xtick_6">
     <g id="line2d_6">
      <g>
       <use xlink:href="#m0bcde93275" x="665.671337" y="480.6" style="fill: #262626; stroke: #262626; stroke-width: 0.8"/>
      </g>
     </g>
     <g id="text_6">
      <!-- 50 -->
      <g style="fill: #262626" transform="translate(660.1104 494.757812) scale(0.1 -0.1)">
       <use xlink:href="#ArialMT-35"/>
       <use xlink:href="#ArialMT-30" transform="translate(55.615234 0)"/>
      </g>
     </g>
    </g>
    <g id="xtick_7">
     <g id="line2d_7">
      <g>
       <use xlink:href="#m0bcde93275" x="734.679871" y="480.6" style="fill: #262626; stroke: #262626; stroke-width: 0.8"/>
      </g>
     </g>
     <g id="text_7">
      <!-- 100 -->
      <g style="fill: #262626" transform="translate(726.338464 494.757812) scale(0.1 -0.1)">
       <use xlink:href="#ArialMT-31"/>
       <use xlink:href="#ArialMT-30" transform="translate(55.615234 0)"/>
       <use xlink:href="#ArialMT-30" transform="translate(111.230469 0)"/>
      </g>
     </g>
    </g>
    <g id="xtick_8">
     <g id="line2d_8">
      <g>
       <use xlink:href="#m0bcde93275" x="803.688404" y="480.6" style="fill: #262626; stroke: #262626; stroke-width: 0.8"/>
      </g>
     </g>
     <g id="text_8">
      <!-- 200 -->
      <g style="fill: #262626" transform="translate(795.346998 494.757812) scale(0.1 -0.1)">
       <use xlink:href="#ArialMT-32"/>
       <use xlink:href="#ArialMT-30" transform="translate(55.615234 0)"/>
       <use xlink:href="#ArialMT-30" transform="translate(111.230469 0)"/>
      </g>
     </g>
    </g>
    <g id="xtick_9">
     <g id="line2d_9">
      <g>
       <use xlink:href="#m0bcde93275" x="894.912723" y="480.6" style="fill: #262626; stroke: #262626; stroke-width: 0.8"/>
      </g>
     </g>
     <g id="text_9">
      <!-- 500 -->
      <g style="fill: #262626" transform="translate(886.571317 494.757812) scale(0.1 -0.1)">
       <use xlink:href="#ArialMT-35"/>
       <use xlink:href="#ArialMT-30" transform="translate(55.615234 0)"/>
       <use xlink:href="#ArialMT-30" transform="translate(111.230469 0)"/>
      </g>
     </g>
    </g>
    <g id="xtick_10">
     <g id="line2d_10">
      <g>
       <use xlink:href="#m0bcde93275" x="963.921256" y="480.6" style="fill: #262626; stroke: #262626; stroke-width: 0.8"/>
      </g>
     </g>
     <g id="text_10">
      <!-- 1000 -->
      <g style="fill: #262626" transform="translate(952.799381 494.757812) scale(0.1 -0.1)">
       <use xlink:href="#ArialMT-31"/>
       <use xlink:href="#ArialMT-30" transform="translate(55.615234 0)"/>
       <use xlink:href="#ArialMT-30" transform="translate(111.230469 0)"/>
       <use xlink:href="#ArialMT-30" transform="translate(166.845703 0)"/>
      </g>
     </g>
    </g>
    <g id="xtick_11">
     <g id="line2d_11">
      <defs>
       <path id="mb8a1526e74" d="M 0 0 
L 0 2 
" style="stroke: #262626; stroke-width: 0.6"/>
      </defs>
      <g>
       <use xlink:href="#mb8a1526e74" x="156.331651" y="480.6" style="fill: #262626; stroke: #262626; stroke-width: 0.6"/>
      </g>
     </g>
    </g>
    <g id="xtick_12">
     <g id="line2d_12">
      <g>
       <use xlink:href="#mb8a1526e74" x="184.97278" y="480.6" style="fill: #262626; stroke: #262626; stroke-width: 0.6"/>
      </g>
     </g>
    </g>
    <g id="xtick_13">
     <g id="line2d_13">
      <g>
       <use xlink:href="#mb8a1526e74" x="207.188566" y="480.6" style="fill: #262626; stroke: #262626; stroke-width: 0.6"/>
      </g>
     </g>
    </g>
    <g id="xtick_14">
     <g id="line2d_14">
      <g>
       <use xlink:href="#mb8a1526e74" x="225.340184" y="480.6" style="fill: #262626; stroke: #262626; stroke-width: 0.6"/>
      </g>
     </g>
    </g>
    <g id="xtick_15">
     <g id="line2d_15">
      <g>
       <use xlink:href="#mb8a1526e74" x="240.687159" y="480.6" style="fill: #262626; stroke: #262626; stroke-width: 0.6"/>
      </g>
     </g>
    </g>
    <g id="xtick_16">
     <g id="line2d_16">
      <g>
       <use xlink:href="#mb8a1526e74" x="253.981313" y="480.6" style="fill: #262626; stroke: #262626; stroke-width: 0.6"/>
      </g>
     </g>
    </g>
    <g id="xtick_17">
     <g id="line2d_17">
      <g>
       <use xlink:href="#mb8a1526e74" x="265.707588" y="480.6" style="fill: #262626; stroke: #262626; stroke-width: 0.6"/>
      </g>
     </g>
    </g>
    <g id="xtick_18">
     <g id="line2d_18">
      <g>
       <use xlink:href="#mb8a1526e74" x="385.573037" y="480.6" style="fill: #262626; stroke: #262626; stroke-width: 0.6"/>
      </g>
     </g>
    </g>
    <g id="xtick_19">
     <g id="line2d_19">
      <g>
       <use xlink:href="#mb8a1526e74" x="414.214166" y="480.6" style="fill: #262626; stroke: #262626; stroke-width: 0.6"/>
      </g>
     </g>
    </g>
    <g id="xtick_20">
     <g id="line2d_20">
      <g>
       <use xlink:href="#mb8a1526e74" x="454.58157" y="480.6" style="fill: #262626; stroke: #262626; stroke-width: 0.6"/>
      </g>
     </g>
    </g>
    <g id="xtick_21">
     <g id="line2d_21">
      <g>
       <use xlink:href="#mb8a1526e74" x="469.928545" y="480.6" style="fill: #262626; stroke: #262626; stroke-width: 0.6"/>
      </g>
     </g>
    </g>
    <g id="xtick_22">
     <g id="line2d_22">
      <g>
       <use xlink:href="#mb8a1526e74" x="483.222699" y="480.6" style="fill: #262626; stroke: #262626; stroke-width: 0.6"/>
      </g>
     </g>
    </g>
    <g id="xtick_23">
     <g id="line2d_23">
      <g>
       <use xlink:href="#mb8a1526e74" x="494.948974" y="480.6" style="fill: #262626; stroke: #262626; stroke-width: 0.6"/>
      </g>
     </g>
    </g>
    <g id="xtick_24">
     <g id="line2d_24">
      <g>
       <use xlink:href="#mb8a1526e74" x="614.814422" y="480.6" style="fill: #262626; stroke: #262626; stroke-width: 0.6"/>
      </g>
     </g>
    </g>
    <g id="xtick_25">
     <g id="line2d_25">
      <g>
       <use xlink:href="#mb8a1526e74" x="643.455552" y="480.6" style="fill: #262626; stroke: #262626; stroke-width: 0.6"/>
      </g>
     </g>
    </g>
    <g id="xtick_26">
     <g id="line2d_26">
      <g>
       <use xlink:href="#mb8a1526e74" x="683.822956" y="480.6" style="fill: #262626; stroke: #262626; stroke-width: 0.6"/>
      </g>
     </g>
    </g>
    <g id="xtick_27">
     <g id="line2d_27">
      <g>
       <use xlink:href="#mb8a1526e74" x="699.169931" y="480.6" style="fill: #262626; stroke: #262626; stroke-width: 0.6"/>
      </g>
     </g>
    </g>
    <g id="xtick_28">
     <g id="line2d_28">
      <g>
       <use xlink:href="#mb8a1526e74" x="712.464085" y="480.6" style="fill: #262626; stroke: #262626; stroke-width: 0.6"/>
      </g>
     </g>
    </g>
    <g id="xtick_29">
     <g id="line2d_29">
      <g>
       <use xlink:href="#mb8a1526e74" x="724.19036" y="480.6" style="fill: #262626; stroke: #262626; stroke-width: 0.6"/>
      </g>
     </g>
    </g>
    <g id="xtick_30">
     <g id="line2d_30">
      <g>
       <use xlink:href="#mb8a1526e74" x="844.055808" y="480.6" style="fill: #262626; stroke: #262626; stroke-width: 0.6"/>
      </g>
     </g>
    </g>
    <g id="xtick_31">
     <g id="line2d_31">
      <g>
       <use xlink:href="#mb8a1526e74" x="872.696937" y="480.6" style="fill: #262626; stroke: #262626; stroke-width: 0.6"/>
      </g>
     </g>
    </g>
    <g id="xtick_32">
     <g id="line2d_32">
      <g>
       <use xlink:href="#mb8a1526e74" x="913.064342" y="480.6" style="fill: #262626; stroke: #262626; stroke-width: 0.6"/>
      </g>
     </g>
    </g>
    <g id="xtick_33">
     <g id="line2d_33">
      <g>
       <use xlink:href="#mb8a1526e74" x="928.411317" y="480.6" style="fill: #262626; stroke: #262626; stroke-width: 0.6"/>
      </g>
     </g>
    </g>
    <g id="xtick_34">
     <g id="line2d_34">
      <g>
       <use xlink:href="#mb8a1526e74" x="941.705471" y="480.6" style="fill: #262626; stroke: #262626; stroke-width: 0.6"/>
      </g>
     </g>
    </g>
    <g id="xtick_35">
     <g id="line2d_35">
      <g>
       <use xlink:href="#mb8a1526e74" x="953.431746" y="480.6" style="fill: #262626; stroke: #262626; stroke-width: 0.6"/>
      </g>
     </g>
    </g>
    <g id="text_11">
     <!-- Income or consumption (day) -->
     <g style="fill: #262626" transform="translate(488.753906 508.025) scale(0.1 -0.1)">
      <defs>
       <path id="ArialMT-49" d="M 597 0 
L 597 4581 
L 1203 4581 
L 1203 0 
L 597 0 
z
" transform="scale(0.015625)"/>
       <path id="ArialMT-6e" d="M 422 0 
L 422 3319 
L 928 3319 
L 928 2847 
Q 1294 3394 1984 3394 
Q 2284 3394 2536 3286 
Q 2788 3178 2913 3003 
Q 3038 2828 3088 2588 
Q 3119 2431 3119 2041 
L 3119 0 
L 2556 0 
L 2556 2019 
Q 2556 2363 2490 2533 
Q 2425 2703 2258 2804 
Q 2091 2906 1866 2906 
Q 1506 2906 1245 2678 
Q 984 2450 984 1813 
L 984 0 
L 422 0 
z
" transform="scale(0.015625)"/>
       <path id="ArialMT-63" d="M 2588 1216 
L 3141 1144 
Q 3050 572 2676 248 
Q 2303 -75 1759 -75 
Q 1078 -75 664 370 
Q 250 816 250 1647 
Q 250 2184 428 2587 
Q 606 2991 970 3192 
Q 1334 3394 1763 3394 
Q 2303 3394 2647 3120 
Q 2991 2847 3088 2344 
L 2541 2259 
Q 2463 2594 2264 2762 
Q 2066 2931 1784 2931 
Q 1359 2931 1093 2626 
Q 828 2322 828 1663 
Q 828 994 1084 691 
Q 1341 388 1753 388 
Q 2084 388 2306 591 
Q 2528 794 2588 1216 
z
" transform="scale(0.015625)"/>
       <path id="ArialMT-6f" d="M 213 1659 
Q 213 2581 725 3025 
Q 1153 3394 1769 3394 
Q 2453 3394 2887 2945 
Q 3322 2497 3322 1706 
Q 3322 1066 3130 698 
Q 2938 331 2570 128 
Q 2203 -75 1769 -75 
Q 1072 -75 642 372 
Q 213 819 213 1659 
z
M 791 1659 
Q 791 1022 1069 705 
Q 1347 388 1769 388 
Q 2188 388 2466 706 
Q 2744 1025 2744 1678 
Q 2744 2294 2464 2611 
Q 2184 2928 1769 2928 
Q 1347 2928 1069 2612 
Q 791 2297 791 1659 
z
" transform="scale(0.015625)"/>
       <path id="ArialMT-6d" d="M 422 0 
L 422 3319 
L 925 3319 
L 925 2853 
Q 1081 3097 1340 3245 
Q 1600 3394 1931 3394 
Q 2300 3394 2536 3241 
Q 2772 3088 2869 2813 
Q 3263 3394 3894 3394 
Q 4388 3394 4653 3120 
Q 4919 2847 4919 2278 
L 4919 0 
L 4359 0 
L 4359 2091 
Q 4359 2428 4304 2576 
Q 4250 2725 4106 2815 
Q 3963 2906 3769 2906 
Q 3419 2906 3187 2673 
Q 2956 2441 2956 1928 
L 2956 0 
L 2394 0 
L 2394 2156 
Q 2394 2531 2256 2718 
Q 2119 2906 1806 2906 
Q 1569 2906 1367 2781 
Q 1166 2656 1075 2415 
Q 984 2175 984 1722 
L 984 0 
L 422 0 
z
" transform="scale(0.015625)"/>
       <path id="ArialMT-65" d="M 2694 1069 
L 3275 997 
Q 3138 488 2766 206 
Q 2394 -75 1816 -75 
Q 1088 -75 661 373 
Q 234 822 234 1631 
Q 234 2469 665 2931 
Q 1097 3394 1784 3394 
Q 2450 3394 2872 2941 
Q 3294 2488 3294 1666 
Q 3294 1616 3291 1516 
L 816 1516 
Q 847 969 1125 678 
Q 1403 388 1819 388 
Q 2128 388 2347 550 
Q 2566 713 2694 1069 
z
M 847 1978 
L 2700 1978 
Q 2663 2397 2488 2606 
Q 2219 2931 1791 2931 
Q 1403 2931 1139 2672 
Q 875 2413 847 1978 
z
" transform="scale(0.015625)"/>
       <path id="ArialMT-20" transform="scale(0.015625)"/>
       <path id="ArialMT-72" d="M 416 0 
L 416 3319 
L 922 3319 
L 922 2816 
Q 1116 3169 1280 3281 
Q 1444 3394 1641 3394 
Q 1925 3394 2219 3213 
L 2025 2691 
Q 1819 2813 1613 2813 
Q 1428 2813 1281 2702 
Q 1134 2591 1072 2394 
Q 978 2094 978 1738 
L 978 0 
L 416 0 
z
" transform="scale(0.015625)"/>
       <path id="ArialMT-73" d="M 197 991 
L 753 1078 
Q 800 744 1014 566 
Q 1228 388 1613 388 
Q 2000 388 2187 545 
Q 2375 703 2375 916 
Q 2375 1106 2209 1216 
Q 2094 1291 1634 1406 
Q 1016 1563 777 1677 
Q 538 1791 414 1992 
Q 291 2194 291 2438 
Q 291 2659 392 2848 
Q 494 3038 669 3163 
Q 800 3259 1026 3326 
Q 1253 3394 1513 3394 
Q 1903 3394 2198 3281 
Q 2494 3169 2634 2976 
Q 2775 2784 2828 2463 
L 2278 2388 
Q 2241 2644 2061 2787 
Q 1881 2931 1553 2931 
Q 1166 2931 1000 2803 
Q 834 2675 834 2503 
Q 834 2394 903 2306 
Q 972 2216 1119 2156 
Q 1203 2125 1616 2013 
Q 2213 1853 2448 1751 
Q 2684 1650 2818 1456 
Q 2953 1263 2953 975 
Q 2953 694 2789 445 
Q 2625 197 2315 61 
Q 2006 -75 1616 -75 
Q 969 -75 630 194 
Q 291 463 197 991 
z
" transform="scale(0.015625)"/>
       <path id="ArialMT-75" d="M 2597 0 
L 2597 488 
Q 2209 -75 1544 -75 
Q 1250 -75 995 37 
Q 741 150 617 320 
Q 494 491 444 738 
Q 409 903 409 1263 
L 409 3319 
L 972 3319 
L 972 1478 
Q 972 1038 1006 884 
Q 1059 663 1231 536 
Q 1403 409 1656 409 
Q 1909 409 2131 539 
Q 2353 669 2445 892 
Q 2538 1116 2538 1541 
L 2538 3319 
L 3100 3319 
L 3100 0 
L 2597 0 
z
" transform="scale(0.015625)"/>
       <path id="ArialMT-70" d="M 422 -1272 
L 422 3319 
L 934 3319 
L 934 2888 
Q 1116 3141 1344 3267 
Q 1572 3394 1897 3394 
Q 2322 3394 2647 3175 
Q 2972 2956 3137 2557 
Q 3303 2159 3303 1684 
Q 3303 1175 3120 767 
Q 2938 359 2589 142 
Q 2241 -75 1856 -75 
Q 1575 -75 1351 44 
Q 1128 163 984 344 
L 984 -1272 
L 422 -1272 
z
M 931 1641 
Q 931 1000 1190 694 
Q 1450 388 1819 388 
Q 2194 388 2461 705 
Q 2728 1022 2728 1688 
Q 2728 2322 2467 2637 
Q 2206 2953 1844 2953 
Q 1484 2953 1207 2617 
Q 931 2281 931 1641 
z
" transform="scale(0.015625)"/>
       <path id="ArialMT-74" d="M 1650 503 
L 1731 6 
Q 1494 -44 1306 -44 
Q 1000 -44 831 53 
Q 663 150 594 308 
Q 525 466 525 972 
L 525 2881 
L 113 2881 
L 113 3319 
L 525 3319 
L 525 4141 
L 1084 4478 
L 1084 3319 
L 1650 3319 
L 1650 2881 
L 1084 2881 
L 1084 941 
Q 1084 700 1114 631 
Q 1144 563 1211 522 
Q 1278 481 1403 481 
Q 1497 481 1650 503 
z
" transform="scale(0.015625)"/>
       <path id="ArialMT-69" d="M 425 3934 
L 425 4581 
L 988 4581 
L 988 3934 
L 425 3934 
z
M 425 0 
L 425 3319 
L 988 3319 
L 988 0 
L 425 0 
z
" transform="scale(0.015625)"/>
       <path id="ArialMT-28" d="M 1497 -1347 
Q 1031 -759 709 28 
Q 388 816 388 1659 
Q 388 2403 628 3084 
Q 909 3875 1497 4659 
L 1900 4659 
Q 1522 4009 1400 3731 
Q 1209 3300 1100 2831 
Q 966 2247 966 1656 
Q 966 153 1900 -1347 
L 1497 -1347 
z
" transform="scale(0.015625)"/>
       <path id="ArialMT-64" d="M 2575 0 
L 2575 419 
Q 2259 -75 1647 -75 
Q 1250 -75 917 144 
Q 584 363 401 755 
Q 219 1147 219 1656 
Q 219 2153 384 2558 
Q 550 2963 881 3178 
Q 1213 3394 1622 3394 
Q 1922 3394 2156 3267 
Q 2391 3141 2538 2938 
L 2538 4581 
L 3097 4581 
L 3097 0 
L 2575 0 
z
M 797 1656 
Q 797 1019 1065 703 
Q 1334 388 1700 388 
Q 2069 388 2326 689 
Q 2584 991 2584 1609 
Q 2584 2291 2321 2609 
Q 2059 2928 1675 2928 
Q 1300 2928 1048 2622 
Q 797 2316 797 1656 
z
" transform="scale(0.015625)"/>
       <path id="ArialMT-61" d="M 2588 409 
Q 2275 144 1986 34 
Q 1697 -75 1366 -75 
Q 819 -75 525 192 
Q 231 459 231 875 
Q 231 1119 342 1320 
Q 453 1522 633 1644 
Q 813 1766 1038 1828 
Q 1203 1872 1538 1913 
Q 2219 1994 2541 2106 
Q 2544 2222 2544 2253 
Q 2544 2597 2384 2738 
Q 2169 2928 1744 2928 
Q 1347 2928 1158 2789 
Q 969 2650 878 2297 
L 328 2372 
Q 403 2725 575 2942 
Q 747 3159 1072 3276 
Q 1397 3394 1825 3394 
Q 2250 3394 2515 3294 
Q 2781 3194 2906 3042 
Q 3031 2891 3081 2659 
Q 3109 2516 3109 2141 
L 3109 1391 
Q 3109 606 3145 398 
Q 3181 191 3288 0 
L 2700 0 
Q 2613 175 2588 409 
z
M 2541 1666 
Q 2234 1541 1622 1453 
Q 1275 1403 1131 1340 
Q 988 1278 909 1158 
Q 831 1038 831 891 
Q 831 666 1001 516 
Q 1172 366 1500 366 
Q 1825 366 2078 508 
Q 2331 650 2450 897 
Q 2541 1088 2541 1459 
L 2541 1666 
z
" transform="scale(0.015625)"/>
       <path id="ArialMT-79" d="M 397 -1278 
L 334 -750 
Q 519 -800 656 -800 
Q 844 -800 956 -737 
Q 1069 -675 1141 -563 
Q 1194 -478 1313 -144 
Q 1328 -97 1363 -6 
L 103 3319 
L 709 3319 
L 1400 1397 
Q 1534 1031 1641 628 
Q 1738 1016 1872 1384 
L 2581 3319 
L 3144 3319 
L 1881 -56 
Q 1678 -603 1566 -809 
Q 1416 -1088 1222 -1217 
Q 1028 -1347 759 -1347 
Q 597 -1347 397 -1278 
z
" transform="scale(0.015625)"/>
       <path id="ArialMT-29" d="M 791 -1347 
L 388 -1347 
Q 1322 153 1322 1656 
Q 1322 2244 1188 2822 
Q 1081 3291 891 3722 
Q 769 4003 388 4659 
L 791 4659 
Q 1378 3875 1659 3084 
Q 1900 2403 1900 1659 
Q 1900 816 1576 28 
Q 1253 -759 791 -1347 
z
" transform="scale(0.015625)"/>
      </defs>
      <use xlink:href="#ArialMT-49"/>
      <use xlink:href="#ArialMT-6e" transform="translate(27.783203 0)"/>
      <use xlink:href="#ArialMT-63" transform="translate(83.398438 0)"/>
      <use xlink:href="#ArialMT-6f" transform="translate(133.398438 0)"/>
      <use xlink:href="#ArialMT-6d" transform="translate(189.013672 0)"/>
      <use xlink:href="#ArialMT-65" transform="translate(272.314453 0)"/>
      <use xlink:href="#ArialMT-20" transform="translate(327.929688 0)"/>
      <use xlink:href="#ArialMT-6f" transform="translate(355.712891 0)"/>
      <use xlink:href="#ArialMT-72" transform="translate(411.328125 0)"/>
      <use xlink:href="#ArialMT-20" transform="translate(444.628906 0)"/>
      <use xlink:href="#ArialMT-63" transform="translate(472.412109 0)"/>
      <use xlink:href="#ArialMT-6f" transform="translate(522.412109 0)"/>
      <use xlink:href="#ArialMT-6e" transform="translate(578.027344 0)"/>
      <use xlink:href="#ArialMT-73" transform="translate(633.642578 0)"/>
      <use xlink:href="#ArialMT-75" transform="translate(683.642578 0)"/>
      <use xlink:href="#ArialMT-6d" transform="translate(739.257812 0)"/>
      <use xlink:href="#ArialMT-70" transform="translate(822.558594 0)"/>
      <use xlink:href="#ArialMT-74" transform="translate(878.173828 0)"/>
      <use xlink:href="#ArialMT-69" transform="translate(905.957031 0)"/>
      <use xlink:href="#ArialMT-6f" transform="translate(928.173828 0)"/>
      <use xlink:href="#ArialMT-6e" transform="translate(983.789062 0)"/>
      <use xlink:href="#ArialMT-20" transform="translate(1039.404297 0)"/>
      <use xlink:href="#ArialMT-28" transform="translate(1067.1875 0)"/>
      <use xlink:href="#ArialMT-64" transform="translate(1100.488281 0)"/>
      <use xlink:href="#ArialMT-61" transform="translate(1156.103516 0)"/>
      <use xlink:href="#ArialMT-79" transform="translate(1211.71875 0)"/>
      <use xlink:href="#ArialMT-29" transform="translate(1261.71875 0)"/>
     </g>
    </g>
   </g>
   <g id="matplotlib.axis_2"/>
   <g id="FillBetweenPolyCollection_1">
    <defs>
     <path id="mba7a97594c" d="M 173.045455 -59.498794 
L 173.045455 -59.4 
L 175.32183 -59.4 
L 177.598205 -59.4 
L 179.87458 -59.4 
L 182.150955 -59.4 
L 184.42733 -59.4 
L 186.703705 -59.4 
L 188.98008 -59.4 
L 191.256455 -59.4 
L 193.53283 -59.4 
L 195.809205 -59.4 
L 198.08558 -59.4 
L 200.361955 -59.4 
L 202.63833 -59.4 
L 204.914705 -59.4 
L 207.19108 -59.4 
L 209.467455 -59.4 
L 211.743831 -59.4 
L 214.020206 -59.4 
L 216.296581 -59.4 
L 218.572956 -59.4 
L 220.849331 -59.4 
L 223.125706 -59.4 
L 225.402081 -59.4 
L 227.678456 -59.4 
L 229.954831 -59.4 
L 232.231206 -59.4 
L 234.507581 -59.4 
L 236.783956 -59.4 
L 239.060331 -59.4 
L 241.336706 -59.4 
L 243.613081 -59.4 
L 245.889456 -59.4 
L 248.165831 -59.4 
L 250.442206 -59.4 
L 252.718582 -59.4 
L 254.994957 -59.4 
L 257.271332 -59.4 
L 259.547707 -59.4 
L 261.824082 -59.4 
L 264.100457 -59.4 
L 266.376832 -59.4 
L 268.653207 -59.4 
L 270.929582 -59.4 
L 273.205957 -59.4 
L 275.482332 -59.4 
L 277.758707 -59.4 
L 280.035082 -59.4 
L 282.311457 -59.4 
L 284.587832 -59.4 
L 286.864207 -59.4 
L 289.140582 -59.4 
L 291.416958 -59.4 
L 293.693333 -59.4 
L 295.969708 -59.4 
L 298.246083 -59.4 
L 300.522458 -59.4 
L 302.798833 -59.4 
L 305.075208 -59.4 
L 307.351583 -59.4 
L 309.627958 -59.4 
L 311.904333 -59.4 
L 314.180708 -59.4 
L 316.457083 -59.4 
L 318.733458 -59.4 
L 321.009833 -59.4 
L 323.286208 -59.4 
L 325.562583 -59.4 
L 327.838958 -59.4 
L 330.115334 -59.4 
L 332.391709 -59.4 
L 334.668084 -59.4 
L 336.944459 -59.4 
L 339.220834 -59.4 
L 341.497209 -59.4 
L 343.773584 -59.4 
L 346.049959 -59.4 
L 348.326334 -59.4 
L 350.602709 -59.4 
L 352.879084 -59.4 
L 355.155459 -59.4 
L 357.431834 -59.4 
L 359.708209 -59.4 
L 361.984584 -59.4 
L 364.260959 -59.4 
L 366.537334 -59.4 
L 368.813709 -59.4 
L 371.090085 -59.4 
L 373.36646 -59.4 
L 375.642835 -59.4 
L 377.91921 -59.4 
L 380.195585 -59.4 
L 382.47196 -59.4 
L 384.748335 -59.4 
L 387.02471 -59.4 
L 389.301085 -59.4 
L 391.57746 -59.4 
L 393.853835 -59.4 
L 396.13021 -59.4 
L 398.406585 -59.4 
L 400.68296 -59.4 
L 402.959335 -59.4 
L 405.23571 -59.4 
L 407.512085 -59.4 
L 409.788461 -59.4 
L 412.064836 -59.4 
L 414.341211 -59.4 
L 416.617586 -59.4 
L 418.893961 -59.4 
L 421.170336 -59.4 
L 423.446711 -59.4 
L 425.723086 -59.4 
L 427.999461 -59.4 
L 430.275836 -59.4 
L 432.552211 -59.4 
L 434.828586 -59.4 
L 437.104961 -59.4 
L 439.381336 -59.4 
L 441.657711 -59.4 
L 443.934086 -59.4 
L 446.210461 -59.4 
L 448.486836 -59.4 
L 450.763212 -59.4 
L 453.039587 -59.4 
L 455.315962 -59.4 
L 457.592337 -59.4 
L 459.868712 -59.4 
L 462.145087 -59.4 
L 464.421462 -59.4 
L 466.697837 -59.4 
L 468.974212 -59.4 
L 471.250587 -59.4 
L 473.526962 -59.4 
L 475.803337 -59.4 
L 478.079712 -59.4 
L 480.356087 -59.4 
L 482.632462 -59.4 
L 484.908837 -59.4 
L 487.185212 -59.4 
L 489.461588 -59.4 
L 491.737963 -59.4 
L 494.014338 -59.4 
L 496.290713 -59.4 
L 498.567088 -59.4 
L 500.843463 -59.4 
L 503.119838 -59.4 
L 505.396213 -59.4 
L 507.672588 -59.4 
L 509.948963 -59.4 
L 512.225338 -59.4 
L 514.501713 -59.4 
L 516.778088 -59.4 
L 519.054463 -59.4 
L 521.330838 -59.4 
L 523.607213 -59.4 
L 525.883588 -59.4 
L 528.159963 -59.4 
L 530.436339 -59.4 
L 532.712714 -59.4 
L 534.989089 -59.4 
L 537.265464 -59.4 
L 539.541839 -59.4 
L 541.818214 -59.4 
L 544.094589 -59.4 
L 546.370964 -59.4 
L 548.647339 -59.4 
L 550.923714 -59.4 
L 553.200089 -59.4 
L 555.476464 -59.4 
L 557.752839 -59.4 
L 560.029214 -59.4 
L 562.305589 -59.4 
L 564.581964 -59.4 
L 566.858339 -59.4 
L 569.134715 -59.4 
L 571.41109 -59.4 
L 573.687465 -59.4 
L 575.96384 -59.4 
L 578.240215 -59.4 
L 580.51659 -59.4 
L 582.792965 -59.4 
L 585.06934 -59.4 
L 587.345715 -59.4 
L 589.62209 -59.4 
L 591.898465 -59.4 
L 594.17484 -59.4 
L 596.451215 -59.4 
L 598.72759 -59.4 
L 601.003965 -59.4 
L 603.28034 -59.4 
L 605.556715 -59.4 
L 607.833091 -59.4 
L 610.109466 -59.4 
L 612.385841 -59.4 
L 614.662216 -59.4 
L 616.938591 -59.4 
L 619.214966 -59.4 
L 621.491341 -59.4 
L 623.767716 -59.4 
L 626.044091 -59.4 
L 626.044091 -59.496015 
L 626.044091 -59.496015 
L 623.767716 -59.53079 
L 621.491341 -59.576212 
L 619.214966 -59.634813 
L 616.938591 -59.70948 
L 614.662216 -59.803431 
L 612.385841 -59.920154 
L 610.109466 -60.063317 
L 607.833091 -60.236638 
L 605.556715 -60.443718 
L 603.28034 -60.687831 
L 601.003965 -60.97169 
L 598.72759 -61.297185 
L 596.451215 -61.665119 
L 594.17484 -62.074946 
L 591.898465 -62.524553 
L 589.62209 -63.010082 
L 587.345715 -63.525844 
L 585.06934 -64.064317 
L 582.792965 -64.616272 
L 580.51659 -65.171009 
L 578.240215 -65.716726 
L 575.96384 -66.241001 
L 573.687465 -66.731365 
L 571.41109 -67.175945 
L 569.134715 -67.564132 
L 566.858339 -67.887238 
L 564.581964 -68.139089 
L 562.305589 -68.316514 
L 560.029214 -68.41969 
L 557.752839 -68.452317 
L 555.476464 -68.421594 
L 553.200089 -68.338 
L 550.923714 -68.214895 
L 548.647339 -68.067939 
L 546.370964 -67.914403 
L 544.094589 -67.772377 
L 541.818214 -67.659959 
L 539.541839 -67.594452 
L 537.265464 -67.591644 
L 534.989089 -67.665194 
L 532.712714 -67.826174 
L 530.436339 -68.08279 
L 528.159963 -68.440289 
L 525.883588 -68.90105 
L 523.607213 -69.464853 
L 521.330838 -70.129278 
L 519.054463 -70.890229 
L 516.778088 -71.742504 
L 514.501713 -72.680397 
L 512.225338 -73.698268 
L 509.948963 -74.791048 
L 507.672588 -75.954646 
L 505.396213 -77.186235 
L 503.119838 -78.484405 
L 500.843463 -79.849183 
L 498.567088 -81.281941 
L 496.290713 -82.785193 
L 494.014338 -84.362336 
L 491.737963 -86.017346 
L 489.461588 -87.754474 
L 487.185212 -89.577965 
L 484.908837 -91.491834 
L 482.632462 -93.499709 
L 480.356087 -95.604755 
L 478.079712 -97.80968 
L 475.803337 -100.116806 
L 473.526962 -102.528217 
L 471.250587 -105.045926 
L 468.974212 -107.672085 
L 466.697837 -110.409169 
L 464.421462 -113.260158 
L 462.145087 -116.228664 
L 459.868712 -119.319014 
L 457.592337 -122.536264 
L 455.315962 -125.886154 
L 453.039587 -129.375002 
L 450.763212 -133.009544 
L 448.486836 -136.796737 
L 446.210461 -140.743538 
L 443.934086 -144.856676 
L 441.657711 -149.142445 
L 439.381336 -153.606527 
L 437.104961 -158.25386 
L 434.828586 -163.088575 
L 432.552211 -168.113992 
L 430.275836 -173.332683 
L 427.999461 -178.746599 
L 425.723086 -184.35723 
L 423.446711 -190.165792 
L 421.170336 -196.173409 
L 418.893961 -202.381256 
L 416.617586 -208.790641 
L 414.341211 -215.402987 
L 412.064836 -222.219705 
L 409.788461 -229.241926 
L 407.512085 -236.470102 
L 405.23571 -243.903468 
L 402.959335 -251.53939 
L 400.68296 -259.372627 
L 398.406585 -267.394546 
L 396.13021 -275.592326 
L 393.853835 -283.948227 
L 391.57746 -292.438958 
L 389.301085 -301.035203 
L 387.02471 -309.701352 
L 384.748335 -318.395479 
L 382.47196 -327.069581 
L 380.195585 -335.670095 
L 377.91921 -344.138686 
L 375.642835 -352.413275 
L 373.36646 -360.429278 
L 371.090085 -368.120984 
L 368.813709 -375.423026 
L 366.537334 -382.271864 
L 364.260959 -388.607199 
L 361.984584 -394.373268 
L 359.708209 -399.519938 
L 357.431834 -404.003567 
L 355.155459 -407.787595 
L 352.879084 -410.84285 
L 350.602709 -413.147584 
L 348.326334 -414.687258 
L 346.049959 -415.454119 
L 343.773584 -415.44662 
L 341.497209 -414.668748 
L 339.220834 -413.129306 
L 336.944459 -410.841218 
L 334.668084 -407.820893 
L 332.391709 -404.087699 
L 330.115334 -399.663541 
L 327.838958 -394.572588 
L 325.562583 -388.841101 
L 323.286208 -382.497386 
L 321.009833 -375.571809 
L 318.733458 -368.096874 
L 316.457083 -360.10731 
L 314.180708 -351.640147 
L 311.904333 -342.734762 
L 309.627958 -333.432857 
L 307.351583 -323.778384 
L 305.075208 -313.817384 
L 302.798833 -303.597765 
L 300.522458 -293.16901 
L 298.246083 -282.58183 
L 295.969708 -271.887778 
L 293.693333 -261.138823 
L 291.416958 -250.386906 
L 289.140582 -239.683475 
L 286.864207 -229.079008 
L 284.587832 -218.622535 
L 282.311457 -208.361145 
L 280.035082 -198.339493 
L 277.758707 -188.599303 
L 275.482332 -179.178878 
L 273.205957 -170.112618 
L 270.929582 -161.430567 
L 268.653207 -153.157996 
L 266.376832 -145.31505 
L 264.100457 -137.91648 
L 261.824082 -130.971467 
L 259.547707 -124.483587 
L 257.271332 -118.450907 
L 254.994957 -112.866229 
L 252.718582 -107.717498 
L 250.442206 -102.988341 
L 248.165831 -98.658745 
L 245.889456 -94.705823 
L 243.613081 -91.104651 
L 241.336706 -87.829124 
L 239.060331 -84.85279 
L 236.783956 -82.149628 
L 234.507581 -79.69471 
L 232.231206 -77.464748 
L 229.954831 -75.438478 
L 227.678456 -73.596891 
L 225.402081 -71.923305 
L 223.125706 -70.4033 
L 220.849331 -69.02453 
L 218.572956 -67.776456 
L 216.296581 -66.650019 
L 214.020206 -65.637294 
L 211.743831 -64.731155 
L 209.467455 -63.924977 
L 207.19108 -63.212386 
L 204.914705 -62.587077 
L 202.63833 -62.042703 
L 200.361955 -61.572817 
L 198.08558 -61.170885 
L 195.809205 -60.830329 
L 193.53283 -60.544613 
L 191.256455 -60.307337 
L 188.98008 -60.112337 
L 186.703705 -59.953783 
L 184.42733 -59.826254 
L 182.150955 -59.724801 
L 179.87458 -59.644984 
L 177.598205 -59.582889 
L 175.32183 -59.535123 
L 173.045455 -59.498794 
z
" style="stroke: #dd8452"/>
    </defs>
    <g clip-path="url(#pce4978a05a)">
     <use xlink:href="#mba7a97594c" x="0" y="540" style="fill: #dd8452; fill-opacity: 0.25; stroke: #dd8452"/>
    </g>
   </g>
   <g id="FillBetweenPolyCollection_2">
    <defs>
     <path id="mc196928c6e" d="M 447.702773 -59.501367 
L 447.702773 -59.4 
L 450.146249 -59.4 
L 452.589726 -59.4 
L 455.033202 -59.4 
L 457.476678 -59.4 
L 459.920154 -59.4 
L 462.363631 -59.4 
L 464.807107 -59.4 
L 467.250583 -59.4 
L 469.694059 -59.4 
L 472.137536 -59.4 
L 474.581012 -59.4 
L 477.024488 -59.4 
L 479.467964 -59.4 
L 481.911441 -59.4 
L 484.354917 -59.4 
L 486.798393 -59.4 
L 489.241869 -59.4 
L 491.685346 -59.4 
L 494.128822 -59.4 
L 496.572298 -59.4 
L 499.015774 -59.4 
L 501.459251 -59.4 
L 503.902727 -59.4 
L 506.346203 -59.4 
L 508.789679 -59.4 
L 511.233155 -59.4 
L 513.676632 -59.4 
L 516.120108 -59.4 
L 518.563584 -59.4 
L 521.00706 -59.4 
L 523.450537 -59.4 
L 525.894013 -59.4 
L 528.337489 -59.4 
L 530.780965 -59.4 
L 533.224442 -59.4 
L 535.667918 -59.4 
L 538.111394 -59.4 
L 540.55487 -59.4 
L 542.998347 -59.4 
L 545.441823 -59.4 
L 547.885299 -59.4 
L 550.328775 -59.4 
L 552.772252 -59.4 
L 555.215728 -59.4 
L 557.659204 -59.4 
L 560.10268 -59.4 
L 562.546157 -59.4 
L 564.989633 -59.4 
L 567.433109 -59.4 
L 569.876585 -59.4 
L 572.320062 -59.4 
L 574.763538 -59.4 
L 577.207014 -59.4 
L 579.65049 -59.4 
L 582.093967 -59.4 
L 584.537443 -59.4 
L 586.980919 -59.4 
L 589.424395 -59.4 
L 591.867872 -59.4 
L 594.311348 -59.4 
L 596.754824 -59.4 
L 599.1983 -59.4 
L 601.641776 -59.4 
L 604.085253 -59.4 
L 606.528729 -59.4 
L 608.972205 -59.4 
L 611.415681 -59.4 
L 613.859158 -59.4 
L 616.302634 -59.4 
L 618.74611 -59.4 
L 621.189586 -59.4 
L 623.633063 -59.4 
L 626.076539 -59.4 
L 628.520015 -59.4 
L 630.963491 -59.4 
L 633.406968 -59.4 
L 635.850444 -59.4 
L 638.29392 -59.4 
L 640.737396 -59.4 
L 643.180873 -59.4 
L 645.624349 -59.4 
L 648.067825 -59.4 
L 650.511301 -59.4 
L 652.954778 -59.4 
L 655.398254 -59.4 
L 657.84173 -59.4 
L 660.285206 -59.4 
L 662.728683 -59.4 
L 665.172159 -59.4 
L 667.615635 -59.4 
L 670.059111 -59.4 
L 672.502588 -59.4 
L 674.946064 -59.4 
L 677.38954 -59.4 
L 679.833016 -59.4 
L 682.276492 -59.4 
L 684.719969 -59.4 
L 687.163445 -59.4 
L 689.606921 -59.4 
L 692.050397 -59.4 
L 694.493874 -59.4 
L 696.93735 -59.4 
L 699.380826 -59.4 
L 701.824302 -59.4 
L 704.267779 -59.4 
L 706.711255 -59.4 
L 709.154731 -59.4 
L 711.598207 -59.4 
L 714.041684 -59.4 
L 716.48516 -59.4 
L 718.928636 -59.4 
L 721.372112 -59.4 
L 723.815589 -59.4 
L 726.259065 -59.4 
L 728.702541 -59.4 
L 731.146017 -59.4 
L 733.589494 -59.4 
L 736.03297 -59.4 
L 738.476446 -59.4 
L 740.919922 -59.4 
L 743.363399 -59.4 
L 745.806875 -59.4 
L 748.250351 -59.4 
L 750.693827 -59.4 
L 753.137304 -59.4 
L 755.58078 -59.4 
L 758.024256 -59.4 
L 760.467732 -59.4 
L 762.911208 -59.4 
L 765.354685 -59.4 
L 767.798161 -59.4 
L 770.241637 -59.4 
L 772.685113 -59.4 
L 775.12859 -59.4 
L 777.572066 -59.4 
L 780.015542 -59.4 
L 782.459018 -59.4 
L 784.902495 -59.4 
L 787.345971 -59.4 
L 789.789447 -59.4 
L 792.232923 -59.4 
L 794.6764 -59.4 
L 797.119876 -59.4 
L 799.563352 -59.4 
L 802.006828 -59.4 
L 804.450305 -59.4 
L 806.893781 -59.4 
L 809.337257 -59.4 
L 811.780733 -59.4 
L 814.22421 -59.4 
L 816.667686 -59.4 
L 819.111162 -59.4 
L 821.554638 -59.4 
L 823.998115 -59.4 
L 826.441591 -59.4 
L 828.885067 -59.4 
L 831.328543 -59.4 
L 833.77202 -59.4 
L 836.215496 -59.4 
L 838.658972 -59.4 
L 841.102448 -59.4 
L 843.545924 -59.4 
L 845.989401 -59.4 
L 848.432877 -59.4 
L 850.876353 -59.4 
L 853.319829 -59.4 
L 855.763306 -59.4 
L 858.206782 -59.4 
L 860.650258 -59.4 
L 863.093734 -59.4 
L 865.537211 -59.4 
L 867.980687 -59.4 
L 870.424163 -59.4 
L 872.867639 -59.4 
L 875.311116 -59.4 
L 877.754592 -59.4 
L 880.198068 -59.4 
L 882.641544 -59.4 
L 885.085021 -59.4 
L 887.528497 -59.4 
L 889.971973 -59.4 
L 892.415449 -59.4 
L 894.858926 -59.4 
L 897.302402 -59.4 
L 899.745878 -59.4 
L 902.189354 -59.4 
L 904.632831 -59.4 
L 907.076307 -59.4 
L 909.519783 -59.4 
L 911.963259 -59.4 
L 914.406736 -59.4 
L 916.850212 -59.4 
L 919.293688 -59.4 
L 921.737164 -59.4 
L 924.18064 -59.4 
L 926.624117 -59.4 
L 929.067593 -59.4 
L 931.511069 -59.4 
L 933.954545 -59.4 
L 933.954545 -59.502961 
L 933.954545 -59.502961 
L 931.511069 -59.547025 
L 929.067593 -59.606888 
L 926.624117 -59.686883 
L 924.18064 -59.792014 
L 921.737164 -59.927866 
L 919.293688 -60.100444 
L 916.850212 -60.315901 
L 914.406736 -60.580186 
L 911.963259 -60.898576 
L 909.519783 -61.275139 
L 907.076307 -61.712143 
L 904.632831 -62.209457 
L 902.189354 -62.764004 
L 899.745878 -63.369332 
L 897.302402 -64.015356 
L 894.858926 -64.68835 
L 892.415449 -65.371217 
L 889.971973 -66.044066 
L 887.528497 -66.685086 
L 885.085021 -67.271672 
L 882.641544 -67.781734 
L 880.198068 -68.195088 
L 877.754592 -68.494809 
L 875.311116 -68.66843 
L 872.867639 -68.708873 
L 870.424163 -68.615035 
L 867.980687 -68.391955 
L 865.537211 -68.05058 
L 863.093734 -67.607141 
L 860.650258 -67.08221 
L 858.206782 -66.499553 
L 855.763306 -65.88487 
L 853.319829 -65.264548 
L 850.876353 -64.664528 
L 848.432877 -64.109367 
L 845.989401 -63.62152 
L 843.545924 -63.220892 
L 841.102448 -62.9246 
L 838.658972 -62.746946 
L 836.215496 -62.69951 
L 833.77202 -62.791339 
L 831.328543 -63.029159 
L 828.885067 -63.417593 
L 826.441591 -63.959357 
L 823.998115 -64.655456 
L 821.554638 -65.505389 
L 819.111162 -66.507395 
L 816.667686 -67.658785 
L 814.22421 -68.956371 
L 811.780733 -70.397008 
L 809.337257 -71.978239 
L 806.893781 -73.699003 
L 804.450305 -75.560367 
L 802.006828 -77.566196 
L 799.563352 -79.723705 
L 797.119876 -82.043819 
L 794.6764 -84.541285 
L 792.232923 -87.23452 
L 789.789447 -90.145175 
L 787.345971 -93.29745 
L 784.902495 -96.717215 
L 782.459018 -100.430991 
L 780.015542 -104.464882 
L 777.572066 -108.843532 
L 775.12859 -113.589177 
L 772.685113 -118.720836 
L 770.241637 -124.253702 
L 767.798161 -130.19871 
L 765.354685 -136.562326 
L 762.911208 -143.346502 
L 760.467732 -150.548809 
L 758.024256 -158.162704 
L 755.58078 -166.177918 
L 753.137304 -174.580947 
L 750.693827 -183.355609 
L 748.250351 -192.483656 
L 745.806875 -201.945396 
L 743.363399 -211.720281 
L 740.919922 -221.78741 
L 738.476446 -232.12587 
L 736.03297 -242.714858 
L 733.589494 -253.533518 
L 731.146017 -264.560457 
L 728.702541 -275.772924 
L 726.259065 -287.145688 
L 723.815589 -298.649687 
L 721.372112 -310.250562 
L 718.928636 -321.907212 
L 716.48516 -333.570548 
L 714.041684 -345.182592 
L 711.598207 -356.676059 
L 709.154731 -367.974515 
L 706.711255 -378.993156 
L 704.267779 -389.640166 
L 701.824302 -399.818586 
L 699.380826 -409.428558 
L 696.93735 -418.369765 
L 694.493874 -426.543916 
L 692.050397 -433.857094 
L 689.606921 -440.221845 
L 687.163445 -445.558924 
L 684.719969 -449.79866 
L 682.276492 -452.88197 
L 679.833016 -454.761075 
L 677.38954 -455.4 
L 674.946064 -454.77497 
L 672.502588 -452.874773 
L 670.059111 -449.701144 
L 667.615635 -445.269206 
L 665.172159 -439.60792 
L 662.728683 -432.760499 
L 660.285206 -424.784671 
L 657.84173 -415.75269 
L 655.398254 -405.750967 
L 652.954778 -394.879228 
L 650.511301 -383.249129 
L 648.067825 -370.982303 
L 645.624349 -358.207869 
L 643.180873 -345.059474 
L 640.737396 -331.672003 
L 638.29392 -318.178108 
L 635.850444 -304.704746 
L 633.406968 -291.369916 
L 630.963491 -278.279783 
L 628.520015 -265.526342 
L 626.076539 -253.185757 
L 623.633063 -241.317453 
L 621.189586 -229.963976 
L 618.74611 -219.151615 
L 616.302634 -208.891702 
L 613.859158 -199.18247 
L 611.415681 -190.011318 
L 608.972205 -181.357313 
L 606.528729 -173.19375 
L 604.085253 -165.490592 
L 601.641776 -158.216658 
L 599.1983 -151.341428 
L 596.754824 -144.836405 
L 594.311348 -138.676006 
L 591.867872 -132.838005 
L 589.424395 -127.303576 
L 586.980919 -122.057045 
L 584.537443 -117.085442 
L 582.093967 -112.37797 
L 579.65049 -107.925496 
L 577.207014 -103.720136 
L 574.763538 -99.754985 
L 572.320062 -96.024019 
L 569.876585 -92.522131 
L 567.433109 -89.245282 
L 564.989633 -86.190684 
L 562.546157 -83.356954 
L 560.10268 -80.744174 
L 557.659204 -78.353797 
L 555.215728 -76.188362 
L 552.772252 -74.251015 
L 550.328775 -72.544851 
L 547.885299 -71.072109 
L 545.441823 -69.83329 
L 542.998347 -68.826256 
L 540.55487 -68.045404 
L 538.111394 -67.480979 
L 535.667918 -67.118612 
L 533.224442 -66.939127 
L 530.780965 -66.91868 
L 528.337489 -67.029231 
L 525.894013 -67.239355 
L 523.450537 -67.51536 
L 521.00706 -67.822649 
L 518.563584 -68.127239 
L 516.120108 -68.397334 
L 513.676632 -68.604842 
L 511.233155 -68.726695 
L 508.789679 -68.745884 
L 506.346203 -68.652119 
L 503.902727 -68.442041 
L 501.459251 -68.118995 
L 499.015774 -67.692371 
L 496.572298 -67.176585 
L 494.128822 -66.589794 
L 491.685346 -65.952465 
L 489.241869 -65.285913 
L 486.798393 -64.610938 
L 484.354917 -63.946646 
L 481.911441 -63.309541 
L 479.467964 -62.712913 
L 477.024488 -62.16654 
L 474.581012 -61.67668 
L 472.137536 -61.246296 
L 469.694059 -60.875479 
L 467.250583 -60.56197 
L 464.807107 -60.30175 
L 462.363631 -60.089614 
L 459.920154 -59.919701 
L 457.476678 -59.785947 
L 455.033202 -59.682443 
L 452.589726 -59.603685 
L 450.146249 -59.544749 
L 447.702773 -59.501367 
z
" style="stroke: #4c72b0"/>
    </defs>
    <g clip-path="url(#pce4978a05a)">
     <use xlink:href="#mc196928c6e" x="0" y="540" style="fill: #4c72b0; fill-opacity: 0.25; stroke: #4c72b0"/>
    </g>
   </g>
   <g id="line2d_36">
    <path d="M 352.405752 480.6 
L 352.405752 64.8 
" clip-path="url(#pce4978a05a)" style="fill: none; stroke-dasharray: 2.96,1.28; stroke-dashoffset: 0; stroke: #d3d3d3; stroke-width: 0.8"/>
   </g>
   <g id="line2d_37">
    <path d="M 570.302811 480.6 
L 570.302811 64.8 
" clip-path="url(#pce4978a05a)" style="fill: none; stroke-dasharray: 2.96,1.28; stroke-dashoffset: 0; stroke: #d3d3d3; stroke-width: 0.8"/>
   </g>
   <g id="line2d_38">
    <path d="M 486.286272 480.6 
L 486.286272 64.8 
" clip-path="url(#pce4978a05a)" style="fill: none; stroke-dasharray: 2.96,1.28; stroke-dashoffset: 0; stroke: #d3d3d3; stroke-width: 0.8"/>
   </g>
   <g id="text_12">
    <!-- International Poverty Line: $2.15 -->
    <g style="fill: #808080" transform="translate(358.659502 184.13675) rotate(-90) scale(0.08 -0.08)">
     <defs>
      <path id="ArialMT-6c" d="M 409 0 
L 409 4581 
L 972 4581 
L 972 0 
L 409 0 
z
" transform="scale(0.015625)"/>
      <path id="ArialMT-50" d="M 494 0 
L 494 4581 
L 2222 4581 
Q 2678 4581 2919 4538 
Q 3256 4481 3484 4323 
Q 3713 4166 3852 3881 
Q 3991 3597 3991 3256 
Q 3991 2672 3619 2267 
Q 3247 1863 2275 1863 
L 1100 1863 
L 1100 0 
L 494 0 
z
M 1100 2403 
L 2284 2403 
Q 2872 2403 3119 2622 
Q 3366 2841 3366 3238 
Q 3366 3525 3220 3729 
Q 3075 3934 2838 4000 
Q 2684 4041 2272 4041 
L 1100 4041 
L 1100 2403 
z
" transform="scale(0.015625)"/>
      <path id="ArialMT-76" d="M 1344 0 
L 81 3319 
L 675 3319 
L 1388 1331 
Q 1503 1009 1600 663 
Q 1675 925 1809 1294 
L 2547 3319 
L 3125 3319 
L 1869 0 
L 1344 0 
z
" transform="scale(0.015625)"/>
      <path id="ArialMT-4c" d="M 469 0 
L 469 4581 
L 1075 4581 
L 1075 541 
L 3331 541 
L 3331 0 
L 469 0 
z
" transform="scale(0.015625)"/>
      <path id="ArialMT-3a" d="M 578 2678 
L 578 3319 
L 1219 3319 
L 1219 2678 
L 578 2678 
z
M 578 0 
L 578 641 
L 1219 641 
L 1219 0 
L 578 0 
z
" transform="scale(0.015625)"/>
      <path id="ArialMT-24" d="M 1594 -659 
L 1594 -97 
Q 1172 -44 908 92 
Q 644 228 451 531 
Q 259 834 228 1272 
L 794 1378 
Q 859 925 1025 713 
Q 1263 413 1594 378 
L 1594 2169 
Q 1247 2234 884 2438 
Q 616 2588 470 2853 
Q 325 3119 325 3456 
Q 325 4056 750 4428 
Q 1034 4678 1594 4734 
L 1594 5003 
L 1925 5003 
L 1925 4734 
Q 2416 4688 2703 4447 
Q 3072 4141 3147 3606 
L 2566 3519 
Q 2516 3850 2358 4026 
Q 2200 4203 1925 4259 
L 1925 2638 
Q 2350 2531 2488 2472 
Q 2750 2356 2915 2190 
Q 3081 2025 3170 1797 
Q 3259 1569 3259 1303 
Q 3259 719 2887 328 
Q 2516 -63 1925 -91 
L 1925 -659 
L 1594 -659 
z
M 1594 4266 
Q 1266 4216 1077 4003 
Q 888 3791 888 3500 
Q 888 3213 1048 3019 
Q 1209 2825 1594 2709 
L 1594 4266 
z
M 1925 378 
Q 2253 419 2467 662 
Q 2681 906 2681 1266 
Q 2681 1572 2529 1758 
Q 2378 1944 1925 2091 
L 1925 378 
z
" transform="scale(0.015625)"/>
      <path id="ArialMT-2e" d="M 581 0 
L 581 641 
L 1222 641 
L 1222 0 
L 581 0 
z
" transform="scale(0.015625)"/>
     </defs>
     <use xlink:href="#ArialMT-49"/>
     <use xlink:href="#ArialMT-6e" transform="translate(27.783203 0)"/>
     <use xlink:href="#ArialMT-74" transform="translate(83.398438 0)"/>
     <use xlink:href="#ArialMT-65" transform="translate(111.181641 0)"/>
     <use xlink:href="#ArialMT-72" transform="translate(166.796875 0)"/>
     <use xlink:href="#ArialMT-6e" transform="translate(200.097656 0)"/>
     <use xlink:href="#ArialMT-61" transform="translate(255.712891 0)"/>
     <use xlink:href="#ArialMT-74" transform="translate(311.328125 0)"/>
     <use xlink:href="#ArialMT-69" transform="translate(339.111328 0)"/>
     <use xlink:href="#ArialMT-6f" transform="translate(361.328125 0)"/>
     <use xlink:href="#ArialMT-6e" transform="translate(416.943359 0)"/>
     <use xlink:href="#ArialMT-61" transform="translate(472.558594 0)"/>
     <use xlink:href="#ArialMT-6c" transform="translate(528.173828 0)"/>
     <use xlink:href="#ArialMT-20" transform="translate(550.390625 0)"/>
     <use xlink:href="#ArialMT-50" transform="translate(578.173828 0)"/>
     <use xlink:href="#ArialMT-6f" transform="translate(644.873047 0)"/>
     <use xlink:href="#ArialMT-76" transform="translate(700.488281 0)"/>
     <use xlink:href="#ArialMT-65" transform="translate(750.488281 0)"/>
     <use xlink:href="#ArialMT-72" transform="translate(806.103516 0)"/>
     <use xlink:href="#ArialMT-74" transform="translate(839.404297 0)"/>
     <use xlink:href="#ArialMT-79" transform="translate(867.1875 0)"/>
     <use xlink:href="#ArialMT-20" transform="translate(917.1875 0)"/>
     <use xlink:href="#ArialMT-4c" transform="translate(944.970703 0)"/>
     <use xlink:href="#ArialMT-69" transform="translate(1000.585938 0)"/>
     <use xlink:href="#ArialMT-6e" transform="translate(1022.802734 0)"/>
     <use xlink:href="#ArialMT-65" transform="translate(1078.417969 0)"/>
     <use xlink:href="#ArialMT-3a" transform="translate(1134.033203 0)"/>
     <use xlink:href="#ArialMT-20" transform="translate(1161.816406 0)"/>
     <use xlink:href="#ArialMT-24" transform="translate(1189.599609 0)"/>
     <use xlink:href="#ArialMT-32" transform="translate(1245.214844 0)"/>
     <use xlink:href="#ArialMT-2e" transform="translate(1300.830078 0)"/>
     <use xlink:href="#ArialMT-31" transform="translate(1328.613281 0)"/>
     <use xlink:href="#ArialMT-35" transform="translate(1384.228516 0)"/>
    </g>
   </g>
   <g id="text_13">
    <!-- World mean: $19.18 -->
    <g style="fill: #808080" transform="translate(576.029061 140.85175) rotate(-90) scale(0.08 -0.08)">
     <defs>
      <path id="ArialMT-57" d="M 1294 0 
L 78 4581 
L 700 4581 
L 1397 1578 
Q 1509 1106 1591 641 
Q 1766 1375 1797 1488 
L 2669 4581 
L 3400 4581 
L 4056 2263 
Q 4303 1400 4413 641 
Q 4500 1075 4641 1638 
L 5359 4581 
L 5969 4581 
L 4713 0 
L 4128 0 
L 3163 3491 
Q 3041 3928 3019 4028 
Q 2947 3713 2884 3491 
L 1913 0 
L 1294 0 
z
" transform="scale(0.015625)"/>
      <path id="ArialMT-39" d="M 350 1059 
L 891 1109 
Q 959 728 1153 556 
Q 1347 384 1650 384 
Q 1909 384 2104 503 
Q 2300 622 2425 820 
Q 2550 1019 2634 1356 
Q 2719 1694 2719 2044 
Q 2719 2081 2716 2156 
Q 2547 1888 2255 1720 
Q 1963 1553 1622 1553 
Q 1053 1553 659 1965 
Q 266 2378 266 3053 
Q 266 3750 677 4175 
Q 1088 4600 1706 4600 
Q 2153 4600 2523 4359 
Q 2894 4119 3086 3673 
Q 3278 3228 3278 2384 
Q 3278 1506 3087 986 
Q 2897 466 2520 194 
Q 2144 -78 1638 -78 
Q 1100 -78 759 220 
Q 419 519 350 1059 
z
M 2653 3081 
Q 2653 3566 2395 3850 
Q 2138 4134 1775 4134 
Q 1400 4134 1122 3828 
Q 844 3522 844 3034 
Q 844 2597 1108 2323 
Q 1372 2050 1759 2050 
Q 2150 2050 2401 2323 
Q 2653 2597 2653 3081 
z
" transform="scale(0.015625)"/>
      <path id="ArialMT-38" d="M 1131 2484 
Q 781 2613 612 2850 
Q 444 3088 444 3419 
Q 444 3919 803 4259 
Q 1163 4600 1759 4600 
Q 2359 4600 2725 4251 
Q 3091 3903 3091 3403 
Q 3091 3084 2923 2848 
Q 2756 2613 2416 2484 
Q 2838 2347 3058 2040 
Q 3278 1734 3278 1309 
Q 3278 722 2862 322 
Q 2447 -78 1769 -78 
Q 1091 -78 675 323 
Q 259 725 259 1325 
Q 259 1772 486 2073 
Q 713 2375 1131 2484 
z
M 1019 3438 
Q 1019 3113 1228 2906 
Q 1438 2700 1772 2700 
Q 2097 2700 2305 2904 
Q 2513 3109 2513 3406 
Q 2513 3716 2298 3927 
Q 2084 4138 1766 4138 
Q 1444 4138 1231 3931 
Q 1019 3725 1019 3438 
z
M 838 1322 
Q 838 1081 952 856 
Q 1066 631 1291 507 
Q 1516 384 1775 384 
Q 2178 384 2440 643 
Q 2703 903 2703 1303 
Q 2703 1709 2433 1975 
Q 2163 2241 1756 2241 
Q 1359 2241 1098 1978 
Q 838 1716 838 1322 
z
" transform="scale(0.015625)"/>
     </defs>
     <use xlink:href="#ArialMT-57"/>
     <use xlink:href="#ArialMT-6f" transform="translate(92.634766 0)"/>
     <use xlink:href="#ArialMT-72" transform="translate(148.25 0)"/>
     <use xlink:href="#ArialMT-6c" transform="translate(181.550781 0)"/>
     <use xlink:href="#ArialMT-64" transform="translate(203.767578 0)"/>
     <use xlink:href="#ArialMT-20" transform="translate(259.382812 0)"/>
     <use xlink:href="#ArialMT-6d" transform="translate(287.166016 0)"/>
     <use xlink:href="#ArialMT-65" transform="translate(370.466797 0)"/>
     <use xlink:href="#ArialMT-61" transform="translate(426.082031 0)"/>
     <use xlink:href="#ArialMT-6e" transform="translate(481.697266 0)"/>
     <use xlink:href="#ArialMT-3a" transform="translate(537.3125 0)"/>
     <use xlink:href="#ArialMT-20" transform="translate(565.095703 0)"/>
     <use xlink:href="#ArialMT-24" transform="translate(592.878906 0)"/>
     <use xlink:href="#ArialMT-31" transform="translate(648.494141 0)"/>
     <use xlink:href="#ArialMT-39" transform="translate(704.109375 0)"/>
     <use xlink:href="#ArialMT-2e" transform="translate(759.724609 0)"/>
     <use xlink:href="#ArialMT-31" transform="translate(787.507812 0)"/>
     <use xlink:href="#ArialMT-38" transform="translate(843.123047 0)"/>
    </g>
   </g>
   <g id="text_14">
    <!-- World median: $8.25 -->
    <g style="fill: #808080" transform="translate(492.012522 142.62925) rotate(-90) scale(0.08 -0.08)">
     <use xlink:href="#ArialMT-57"/>
     <use xlink:href="#ArialMT-6f" transform="translate(92.634766 0)"/>
     <use xlink:href="#ArialMT-72" transform="translate(148.25 0)"/>
     <use xlink:href="#ArialMT-6c" transform="translate(181.550781 0)"/>
     <use xlink:href="#ArialMT-64" transform="translate(203.767578 0)"/>
     <use xlink:href="#ArialMT-20" transform="translate(259.382812 0)"/>
     <use xlink:href="#ArialMT-6d" transform="translate(287.166016 0)"/>
     <use xlink:href="#ArialMT-65" transform="translate(370.466797 0)"/>
     <use xlink:href="#ArialMT-64" transform="translate(426.082031 0)"/>
     <use xlink:href="#ArialMT-69" transform="translate(481.697266 0)"/>
     <use xlink:href="#ArialMT-61" transform="translate(503.914062 0)"/>
     <use xlink:href="#ArialMT-6e" transform="translate(559.529297 0)"/>
     <use xlink:href="#ArialMT-3a" transform="translate(615.144531 0)"/>
     <use xlink:href="#ArialMT-20" transform="translate(642.927734 0)"/>
     <use xlink:href="#ArialMT-24" transform="translate(670.710938 0)"/>
     <use xlink:href="#ArialMT-38" transform="translate(726.326172 0)"/>
     <use xlink:href="#ArialMT-2e" transform="translate(781.941406 0)"/>
     <use xlink:href="#ArialMT-32" transform="translate(809.724609 0)"/>
     <use xlink:href="#ArialMT-35" transform="translate(865.339844 0)"/>
    </g>
   </g>
   <g id="text_15">
    <!-- Denmark (2021) -->
    <g transform="translate(656.672989 478.495313) scale(0.1 -0.1)">
     <defs>
      <path id="ArialMT-44" d="M 494 0 
L 494 4581 
L 2072 4581 
Q 2606 4581 2888 4516 
Q 3281 4425 3559 4188 
Q 3922 3881 4101 3404 
Q 4281 2928 4281 2316 
Q 4281 1794 4159 1391 
Q 4038 988 3847 723 
Q 3656 459 3429 307 
Q 3203 156 2883 78 
Q 2563 0 2147 0 
L 494 0 
z
M 1100 541 
L 2078 541 
Q 2531 541 2789 625 
Q 3047 709 3200 863 
Q 3416 1078 3536 1442 
Q 3656 1806 3656 2325 
Q 3656 3044 3420 3430 
Q 3184 3816 2847 3947 
Q 2603 4041 2063 4041 
L 1100 4041 
L 1100 541 
z
" transform="scale(0.015625)"/>
      <path id="ArialMT-6b" d="M 425 0 
L 425 4581 
L 988 4581 
L 988 1969 
L 2319 3319 
L 3047 3319 
L 1778 2088 
L 3175 0 
L 2481 0 
L 1384 1697 
L 988 1316 
L 988 0 
L 425 0 
z
" transform="scale(0.015625)"/>
     </defs>
     <use xlink:href="#ArialMT-44"/>
     <use xlink:href="#ArialMT-65" transform="translate(72.216797 0)"/>
     <use xlink:href="#ArialMT-6e" transform="translate(127.832031 0)"/>
     <use xlink:href="#ArialMT-6d" transform="translate(183.447266 0)"/>
     <use xlink:href="#ArialMT-61" transform="translate(266.748047 0)"/>
     <use xlink:href="#ArialMT-72" transform="translate(322.363281 0)"/>
     <use xlink:href="#ArialMT-6b" transform="translate(355.664062 0)"/>
     <use xlink:href="#ArialMT-20" transform="translate(405.664062 0)"/>
     <use xlink:href="#ArialMT-28" transform="translate(433.447266 0)"/>
     <use xlink:href="#ArialMT-32" transform="translate(466.748047 0)"/>
     <use xlink:href="#ArialMT-30" transform="translate(522.363281 0)"/>
     <use xlink:href="#ArialMT-32" transform="translate(577.978516 0)"/>
     <use xlink:href="#ArialMT-31" transform="translate(633.59375 0)"/>
     <use xlink:href="#ArialMT-29" transform="translate(689.208984 0)"/>
    </g>
   </g>
   <g id="text_16">
    <!-- Niger (2021) -->
    <g transform="translate(329.375588 478.495313) scale(0.1 -0.1)">
     <defs>
      <path id="ArialMT-4e" d="M 488 0 
L 488 4581 
L 1109 4581 
L 3516 984 
L 3516 4581 
L 4097 4581 
L 4097 0 
L 3475 0 
L 1069 3600 
L 1069 0 
L 488 0 
z
" transform="scale(0.015625)"/>
      <path id="ArialMT-67" d="M 319 -275 
L 866 -356 
Q 900 -609 1056 -725 
Q 1266 -881 1628 -881 
Q 2019 -881 2231 -725 
Q 2444 -569 2519 -288 
Q 2563 -116 2559 434 
Q 2191 0 1641 0 
Q 956 0 581 494 
Q 206 988 206 1678 
Q 206 2153 378 2554 
Q 550 2956 876 3175 
Q 1203 3394 1644 3394 
Q 2231 3394 2613 2919 
L 2613 3319 
L 3131 3319 
L 3131 450 
Q 3131 -325 2973 -648 
Q 2816 -972 2473 -1159 
Q 2131 -1347 1631 -1347 
Q 1038 -1347 672 -1080 
Q 306 -813 319 -275 
z
M 784 1719 
Q 784 1066 1043 766 
Q 1303 466 1694 466 
Q 2081 466 2343 764 
Q 2606 1063 2606 1700 
Q 2606 2309 2336 2618 
Q 2066 2928 1684 2928 
Q 1309 2928 1046 2623 
Q 784 2319 784 1719 
z
" transform="scale(0.015625)"/>
     </defs>
     <use xlink:href="#ArialMT-4e"/>
     <use xlink:href="#ArialMT-69" transform="translate(72.216797 0)"/>
     <use xlink:href="#ArialMT-67" transform="translate(94.433594 0)"/>
     <use xlink:href="#ArialMT-65" transform="translate(150.048828 0)"/>
     <use xlink:href="#ArialMT-72" transform="translate(205.664062 0)"/>
     <use xlink:href="#ArialMT-20" transform="translate(238.964844 0)"/>
     <use xlink:href="#ArialMT-28" transform="translate(266.748047 0)"/>
     <use xlink:href="#ArialMT-32" transform="translate(300.048828 0)"/>
     <use xlink:href="#ArialMT-30" transform="translate(355.664062 0)"/>
     <use xlink:href="#ArialMT-32" transform="translate(411.279297 0)"/>
     <use xlink:href="#ArialMT-31" transform="translate(466.894531 0)"/>
     <use xlink:href="#ArialMT-29" transform="translate(522.509766 0)"/>
    </g>
   </g>
  </g>
 </g>
 <defs>
  <clipPath id="pce4978a05a">
   <rect x="135" y="64.8" width="837" height="415.8"/>
  </clipPath>
 </defs>
</svg>
