<?xml version="1.0" encoding="utf-8" standalone="no"?>
<!DOCTYPE svg PUBLIC "-//W3C//DTD SVG 1.1//EN"
  "http://www.w3.org/Graphics/SVG/1.1/DTD/svg11.dtd">
<svg xmlns:xlink="http://www.w3.org/1999/xlink" width="1080pt" height="540pt" viewBox="0 0 1080 540" xmlns="http://www.w3.org/2000/svg" version="1.1">
 <metadata>
  <rdf:RDF xmlns:dc="http://purl.org/dc/elements/1.1/" xmlns:cc="http://creativecommons.org/ns#" xmlns:rdf="http://www.w3.org/1999/02/22-rdf-syntax-ns#">
   <cc:Work>
    <dc:type rdf:resource="http://purl.org/dc/dcmitype/StillImage"/>
    <dc:date>2025-03-17T18:03:35.281551</dc:date>
    <dc:format>image/svg+xml</dc:format>
    <dc:creator>
     <cc:Agent>
      <dc:title>Matplotlib v3.10.1, https://matplotlib.org/</dc:title>
     </cc:Agent>
    </dc:creator>
   </cc:Work>
  </rdf:RDF>
 </metadata>
 <defs>
  <style type="text/css">*{stroke-linejoin: round; stroke-linecap: butt}</style>
 </defs>
 <g id="figure_1">
  <g id="patch_1">
   <path d="M 0 540 
L 1080 540 
L 1080 0 
L 0 0 
z
" style="fill: #ffffff"/>
  </g>
  <g id="axes_1">
   <g id="patch_2">
    <path d="M 135 480.6 
L 972 480.6 
L 972 64.8 
L 135 64.8 
z
" style="fill: #ffffff"/>
   </g>
   <g id="FillBetweenPolyCollection_1">
    <defs>
     <path id="mdd69f67e1f" d="M 240.8049 -59.414742 
L 240.8049 -59.4 
L 243.107196 -59.4 
L 245.409492 -59.4 
L 247.711788 -59.4 
L 250.014084 -59.4 
L 252.31638 -59.4 
L 254.618675 -59.4 
L 256.920971 -59.4 
L 259.223267 -59.4 
L 261.525563 -59.4 
L 263.827859 -59.4 
L 266.130154 -59.4 
L 268.43245 -59.4 
L 270.734746 -59.4 
L 273.037042 -59.4 
L 275.339338 -59.4 
L 277.641634 -59.4 
L 279.943929 -59.4 
L 282.246225 -59.4 
L 284.548521 -59.4 
L 286.850817 -59.4 
L 289.153113 -59.4 
L 291.455409 -59.4 
L 293.757704 -59.4 
L 296.06 -59.4 
L 298.362296 -59.4 
L 300.664592 -59.4 
L 302.966888 -59.4 
L 305.269184 -59.4 
L 307.571479 -59.4 
L 309.873775 -59.4 
L 312.176071 -59.4 
L 314.478367 -59.4 
L 316.780663 -59.4 
L 319.082959 -59.4 
L 321.385254 -59.4 
L 323.68755 -59.4 
L 325.989846 -59.4 
L 328.292142 -59.4 
L 330.594438 -59.4 
L 332.896733 -59.4 
L 335.199029 -59.4 
L 337.501325 -59.4 
L 339.803621 -59.4 
L 342.105917 -59.4 
L 344.408213 -59.4 
L 346.710508 -59.4 
L 349.012804 -59.4 
L 351.3151 -59.4 
L 353.617396 -59.4 
L 355.919692 -59.4 
L 358.221988 -59.4 
L 360.524283 -59.4 
L 362.826579 -59.4 
L 365.128875 -59.4 
L 367.431171 -59.4 
L 369.733467 -59.4 
L 372.035763 -59.4 
L 374.338058 -59.4 
L 376.640354 -59.4 
L 378.94265 -59.4 
L 381.244946 -59.4 
L 383.547242 -59.4 
L 385.849538 -59.4 
L 388.151833 -59.4 
L 390.454129 -59.4 
L 392.756425 -59.4 
L 395.058721 -59.4 
L 397.361017 -59.4 
L 399.663313 -59.4 
L 401.965608 -59.4 
L 404.267904 -59.4 
L 406.5702 -59.4 
L 408.872496 -59.4 
L 411.174792 -59.4 
L 413.477087 -59.4 
L 415.779383 -59.4 
L 418.081679 -59.4 
L 420.383975 -59.4 
L 422.686271 -59.4 
L 424.988567 -59.4 
L 427.290862 -59.4 
L 429.593158 -59.4 
L 431.895454 -59.4 
L 434.19775 -59.4 
L 436.500046 -59.4 
L 438.802342 -59.4 
L 441.104637 -59.4 
L 443.406933 -59.4 
L 445.709229 -59.4 
L 448.011525 -59.4 
L 450.313821 -59.4 
L 452.616117 -59.4 
L 454.918412 -59.4 
L 457.220708 -59.4 
L 459.523004 -59.4 
L 461.8253 -59.4 
L 464.127596 -59.4 
L 466.429892 -59.4 
L 468.732187 -59.4 
L 471.034483 -59.4 
L 473.336779 -59.4 
L 475.639075 -59.4 
L 477.941371 -59.4 
L 480.243666 -59.4 
L 482.545962 -59.4 
L 484.848258 -59.4 
L 487.150554 -59.4 
L 489.45285 -59.4 
L 491.755146 -59.4 
L 494.057441 -59.4 
L 496.359737 -59.4 
L 498.662033 -59.4 
L 500.964329 -59.4 
L 503.266625 -59.4 
L 505.568921 -59.4 
L 507.871216 -59.4 
L 510.173512 -59.4 
L 512.475808 -59.4 
L 514.778104 -59.4 
L 517.0804 -59.4 
L 519.382696 -59.4 
L 521.684991 -59.4 
L 523.987287 -59.4 
L 526.289583 -59.4 
L 528.591879 -59.4 
L 530.894175 -59.4 
L 533.196471 -59.4 
L 535.498766 -59.4 
L 537.801062 -59.4 
L 540.103358 -59.4 
L 542.405654 -59.4 
L 544.70795 -59.4 
L 547.010245 -59.4 
L 549.312541 -59.4 
L 551.614837 -59.4 
L 553.917133 -59.4 
L 556.219429 -59.4 
L 558.521725 -59.4 
L 560.82402 -59.4 
L 563.126316 -59.4 
L 565.428612 -59.4 
L 567.730908 -59.4 
L 570.033204 -59.4 
L 572.3355 -59.4 
L 574.637795 -59.4 
L 576.940091 -59.4 
L 579.242387 -59.4 
L 581.544683 -59.4 
L 583.846979 -59.4 
L 586.149275 -59.4 
L 588.45157 -59.4 
L 590.753866 -59.4 
L 593.056162 -59.4 
L 595.358458 -59.4 
L 597.660754 -59.4 
L 599.96305 -59.4 
L 602.265345 -59.4 
L 604.567641 -59.4 
L 606.869937 -59.4 
L 609.172233 -59.4 
L 611.474529 -59.4 
L 613.776825 -59.4 
L 616.07912 -59.4 
L 618.381416 -59.4 
L 620.683712 -59.4 
L 622.986008 -59.4 
L 625.288304 -59.4 
L 627.590599 -59.4 
L 629.892895 -59.4 
L 632.195191 -59.4 
L 634.497487 -59.4 
L 636.799783 -59.4 
L 639.102079 -59.4 
L 641.404374 -59.4 
L 643.70667 -59.4 
L 646.008966 -59.4 
L 648.311262 -59.4 
L 650.613558 -59.4 
L 652.915854 -59.4 
L 655.218149 -59.4 
L 657.520445 -59.4 
L 659.822741 -59.4 
L 662.125037 -59.4 
L 664.427333 -59.4 
L 666.729629 -59.4 
L 669.031924 -59.4 
L 671.33422 -59.4 
L 673.636516 -59.4 
L 675.938812 -59.4 
L 678.241108 -59.4 
L 680.543404 -59.4 
L 682.845699 -59.4 
L 685.147995 -59.4 
L 687.450291 -59.4 
L 689.752587 -59.4 
L 692.054883 -59.4 
L 694.357178 -59.4 
L 696.659474 -59.4 
L 698.96177 -59.4 
L 698.96177 -59.414329 
L 698.96177 -59.414329 
L 696.659474 -59.425204 
L 694.357178 -59.442687 
L 692.054883 -59.469612 
L 689.752587 -59.509302 
L 687.450291 -59.565248 
L 685.147995 -59.640549 
L 682.845699 -59.737158 
L 680.543404 -59.855015 
L 678.241108 -59.99126 
L 675.938812 -60.139765 
L 673.636516 -60.291189 
L 671.33422 -60.433732 
L 669.031924 -60.554535 
L 666.729629 -60.641562 
L 664.427333 -60.685555 
L 662.125037 -60.681666 
L 659.822741 -60.630328 
L 657.520445 -60.537178 
L 655.218149 -60.412042 
L 652.915854 -60.267227 
L 650.613558 -60.115545 
L 648.311262 -59.968497 
L 646.008966 -59.834969 
L 643.70667 -59.720615 
L 641.404374 -59.62792 
L 639.102079 -59.55678 
L 636.799783 -59.505386 
L 634.497487 -59.471173 
L 632.195191 -59.451679 
L 629.892895 -59.445212 
L 627.590599 -59.451292 
L 625.288304 -59.470872 
L 622.986008 -59.506338 
L 620.683712 -59.561304 
L 618.381416 -59.640191 
L 616.07912 -59.747612 
L 613.776825 -59.887612 
L 611.474529 -60.062869 
L 609.172233 -60.274001 
L 606.869937 -60.519153 
L 604.567641 -60.793979 
L 602.265345 -61.092081 
L 599.96305 -61.405839 
L 597.660754 -61.727466 
L 595.358458 -62.050066 
L 593.056162 -62.368498 
L 590.753866 -62.679883 
L 588.45157 -62.983757 
L 586.149275 -63.281906 
L 583.846979 -63.578008 
L 581.544683 -63.877179 
L 579.242387 -64.185475 
L 576.940091 -64.509347 
L 574.637795 -64.855014 
L 572.3355 -65.22776 
L 570.033204 -65.631183 
L 567.730908 -66.066523 
L 565.428612 -66.532217 
L 563.126316 -67.023791 
L 560.82402 -67.534188 
L 558.521725 -68.0545 
L 556.219429 -68.575052 
L 553.917133 -69.08671 
L 551.614837 -69.582339 
L 549.312541 -70.058315 
L 547.010245 -70.51601 
L 544.70795 -70.963101 
L 542.405654 -71.414476 
L 540.103358 -71.892442 
L 537.801062 -72.42593 
L 535.498766 -73.048539 
L 533.196471 -73.795479 
L 530.894175 -74.699807 
L 528.591879 -75.78857 
L 526.289583 -77.079632 
L 523.987287 -78.579828 
L 521.684991 -80.284852 
L 519.382696 -82.180864 
L 517.0804 -84.247421 
L 514.778104 -86.461081 
L 512.475808 -88.798952 
L 510.173512 -91.241534 
L 507.871216 -93.774482 
L 505.568921 -96.389154 
L 503.266625 -99.082081 
L 500.964329 -101.853702 
L 498.662033 -104.706808 
L 496.359737 -107.645204 
L 494.057441 -110.673044 
L 491.755146 -113.795184 
L 489.45285 -117.018611 
L 487.150554 -120.354739 
L 484.848258 -123.821955 
L 482.545962 -127.44757 
L 480.243666 -131.26826 
L 477.941371 -135.328268 
L 475.639075 -139.675119 
L 473.336779 -144.353282 
L 471.034483 -149.396859 
L 468.732187 -154.822868 
L 466.429892 -160.626811 
L 464.127596 -166.781824 
L 461.8253 -173.24198 
L 459.523004 -179.949382 
L 457.220708 -186.843791 
L 454.918412 -193.873055 
L 452.616117 -201.002462 
L 450.313821 -208.221488 
L 448.011525 -215.546975 
L 445.709229 -223.022372 
L 443.406933 -230.713214 
L 441.104637 -238.699428 
L 438.802342 -247.06537 
L 436.500046 -255.888782 
L 434.19775 -265.229983 
L 431.895454 -275.122624 
L 429.593158 -285.566959 
L 427.290862 -296.525985 
L 424.988567 -307.924108 
L 422.686271 -319.647509 
L 420.383975 -331.545415 
L 418.081679 -343.432131 
L 415.779383 -355.09065 
L 413.477087 -366.279514 
L 411.174792 -376.744609 
L 408.872496 -386.236613 
L 406.5702 -394.532829 
L 404.267904 -401.459925 
L 401.965608 -406.91255 
L 399.663313 -410.862765 
L 397.361017 -413.356976 
L 395.058721 -414.500251 
L 392.756425 -414.43136 
L 390.454129 -413.294507 
L 388.151833 -411.214437 
L 385.849538 -408.280179 
L 383.547242 -404.539826 
L 381.244946 -400.005362 
L 378.94265 -394.664089 
L 376.640354 -388.492291 
L 374.338058 -381.467489 
L 372.035763 -373.577406 
L 369.733467 -364.825534 
L 367.431171 -355.234261 
L 365.128875 -344.846556 
L 362.826579 -333.72655 
L 360.524283 -321.958541 
L 358.221988 -309.643755 
L 355.919692 -296.894613 
L 353.617396 -283.827318 
L 351.3151 -270.55447 
L 349.012804 -257.179793 
L 346.710508 -243.796464 
L 344.408213 -230.489257 
L 342.105917 -217.339234 
L 339.803621 -204.428686 
L 337.501325 -191.843924 
L 335.199029 -179.674412 
L 332.896733 -168.008217 
L 330.594438 -156.925202 
L 328.292142 -146.490244 
L 325.989846 -136.748657 
L 323.68755 -127.725104 
L 321.385254 -119.425968 
L 319.082959 -111.844019 
L 316.780663 -104.963629 
L 314.478367 -98.764904 
L 312.176071 -93.225796 
L 309.873775 -88.322086 
L 307.571479 -84.025899 
L 305.269184 -80.303771 
L 302.966888 -77.115247 
L 300.664592 -74.412701 
L 298.362296 -72.142548 
L 296.06 -70.247641 
L 293.757704 -68.670313 
L 291.455409 -67.355437 
L 289.153113 -66.252944 
L 286.850817 -65.319469 
L 284.548521 -64.519039 
L 282.246225 -63.822952 
L 279.943929 -63.209145 
L 277.641634 -62.661347 
L 275.339338 -62.16821 
L 273.037042 -61.722491 
L 270.734746 -61.320248 
L 268.43245 -60.959972 
L 266.130154 -60.641626 
L 263.827859 -60.365658 
L 261.525563 -60.132093 
L 259.223267 -59.939879 
L 256.920971 -59.786558 
L 254.618675 -59.668315 
L 252.31638 -59.580311 
L 250.014084 -59.517187 
L 247.711788 -59.473594 
L 245.409492 -59.444627 
L 243.107196 -59.426115 
L 240.8049 -59.414742 
z
" style="stroke: #ff7f0e"/>
    </defs>
    <g clip-path="url(#p499c97e241)">
     <use xlink:href="#mdd69f67e1f" x="0" y="540" style="fill: #ff7f0e; fill-opacity: 0.25; stroke: #ff7f0e"/>
    </g>
   </g>
   <g id="FillBetweenPolyCollection_2">
    <defs>
     <path id="m01139f469e" d="M 173.045455 -59.414961 
L 173.045455 -59.4 
L 176.869118 -59.4 
L 180.692782 -59.4 
L 184.516446 -59.4 
L 188.34011 -59.4 
L 192.163773 -59.4 
L 195.987437 -59.4 
L 199.811101 -59.4 
L 203.634765 -59.4 
L 207.458429 -59.4 
L 211.282092 -59.4 
L 215.105756 -59.4 
L 218.92942 -59.4 
L 222.753084 -59.4 
L 226.576747 -59.4 
L 230.400411 -59.4 
L 234.224075 -59.4 
L 238.047739 -59.4 
L 241.871402 -59.4 
L 245.695066 -59.4 
L 249.51873 -59.4 
L 253.342394 -59.4 
L 257.166058 -59.4 
L 260.989721 -59.4 
L 264.813385 -59.4 
L 268.637049 -59.4 
L 272.460713 -59.4 
L 276.284376 -59.4 
L 280.10804 -59.4 
L 283.931704 -59.4 
L 287.755368 -59.4 
L 291.579032 -59.4 
L 295.402695 -59.4 
L 299.226359 -59.4 
L 303.050023 -59.4 
L 306.873687 -59.4 
L 310.69735 -59.4 
L 314.521014 -59.4 
L 318.344678 -59.4 
L 322.168342 -59.4 
L 325.992005 -59.4 
L 329.815669 -59.4 
L 333.639333 -59.4 
L 337.462997 -59.4 
L 341.286661 -59.4 
L 345.110324 -59.4 
L 348.933988 -59.4 
L 352.757652 -59.4 
L 356.581316 -59.4 
L 360.404979 -59.4 
L 364.228643 -59.4 
L 368.052307 -59.4 
L 371.875971 -59.4 
L 375.699635 -59.4 
L 379.523298 -59.4 
L 383.346962 -59.4 
L 387.170626 -59.4 
L 390.99429 -59.4 
L 394.817953 -59.4 
L 398.641617 -59.4 
L 402.465281 -59.4 
L 406.288945 -59.4 
L 410.112608 -59.4 
L 413.936272 -59.4 
L 417.759936 -59.4 
L 421.5836 -59.4 
L 425.407264 -59.4 
L 429.230927 -59.4 
L 433.054591 -59.4 
L 436.878255 -59.4 
L 440.701919 -59.4 
L 444.525582 -59.4 
L 448.349246 -59.4 
L 452.17291 -59.4 
L 455.996574 -59.4 
L 459.820238 -59.4 
L 463.643901 -59.4 
L 467.467565 -59.4 
L 471.291229 -59.4 
L 475.114893 -59.4 
L 478.938556 -59.4 
L 482.76222 -59.4 
L 486.585884 -59.4 
L 490.409548 -59.4 
L 494.233212 -59.4 
L 498.056875 -59.4 
L 501.880539 -59.4 
L 505.704203 -59.4 
L 509.527867 -59.4 
L 513.35153 -59.4 
L 517.175194 -59.4 
L 520.998858 -59.4 
L 524.822522 -59.4 
L 528.646185 -59.4 
L 532.469849 -59.4 
L 536.293513 -59.4 
L 540.117177 -59.4 
L 543.940841 -59.4 
L 547.764504 -59.4 
L 551.588168 -59.4 
L 555.411832 -59.4 
L 559.235496 -59.4 
L 563.059159 -59.4 
L 566.882823 -59.4 
L 570.706487 -59.4 
L 574.530151 -59.4 
L 578.353815 -59.4 
L 582.177478 -59.4 
L 586.001142 -59.4 
L 589.824806 -59.4 
L 593.64847 -59.4 
L 597.472133 -59.4 
L 601.295797 -59.4 
L 605.119461 -59.4 
L 608.943125 -59.4 
L 612.766788 -59.4 
L 616.590452 -59.4 
L 620.414116 -59.4 
L 624.23778 -59.4 
L 628.061444 -59.4 
L 631.885107 -59.4 
L 635.708771 -59.4 
L 639.532435 -59.4 
L 643.356099 -59.4 
L 647.179762 -59.4 
L 651.003426 -59.4 
L 654.82709 -59.4 
L 658.650754 -59.4 
L 662.474418 -59.4 
L 666.298081 -59.4 
L 670.121745 -59.4 
L 673.945409 -59.4 
L 677.769073 -59.4 
L 681.592736 -59.4 
L 685.4164 -59.4 
L 689.240064 -59.4 
L 693.063728 -59.4 
L 696.887392 -59.4 
L 700.711055 -59.4 
L 704.534719 -59.4 
L 708.358383 -59.4 
L 712.182047 -59.4 
L 716.00571 -59.4 
L 719.829374 -59.4 
L 723.653038 -59.4 
L 727.476702 -59.4 
L 731.300365 -59.4 
L 735.124029 -59.4 
L 738.947693 -59.4 
L 742.771357 -59.4 
L 746.595021 -59.4 
L 750.418684 -59.4 
L 754.242348 -59.4 
L 758.066012 -59.4 
L 761.889676 -59.4 
L 765.713339 -59.4 
L 769.537003 -59.4 
L 773.360667 -59.4 
L 777.184331 -59.4 
L 781.007995 -59.4 
L 784.831658 -59.4 
L 788.655322 -59.4 
L 792.478986 -59.4 
L 796.30265 -59.4 
L 800.126313 -59.4 
L 803.949977 -59.4 
L 807.773641 -59.4 
L 811.597305 -59.4 
L 815.420968 -59.4 
L 819.244632 -59.4 
L 823.068296 -59.4 
L 826.89196 -59.4 
L 830.715624 -59.4 
L 834.539287 -59.4 
L 838.362951 -59.4 
L 842.186615 -59.4 
L 846.010279 -59.4 
L 849.833942 -59.4 
L 853.657606 -59.4 
L 857.48127 -59.4 
L 861.304934 -59.4 
L 865.128598 -59.4 
L 868.952261 -59.4 
L 872.775925 -59.4 
L 876.599589 -59.4 
L 880.423253 -59.4 
L 884.246916 -59.4 
L 888.07058 -59.4 
L 891.894244 -59.4 
L 895.717908 -59.4 
L 899.541571 -59.4 
L 903.365235 -59.4 
L 907.188899 -59.4 
L 911.012563 -59.4 
L 914.836227 -59.4 
L 918.65989 -59.4 
L 922.483554 -59.4 
L 926.307218 -59.4 
L 930.130882 -59.4 
L 933.954545 -59.4 
L 933.954545 -59.414961 
L 933.954545 -59.414961 
L 930.130882 -59.438884 
L 926.307218 -59.490193 
L 922.483554 -59.586699 
L 918.65989 -59.744895 
L 914.836227 -59.968598 
L 911.012563 -60.236576 
L 907.188899 -60.498514 
L 903.365235 -60.687579 
L 899.541571 -60.747846 
L 895.717908 -60.662374 
L 891.894244 -60.464287 
L 888.07058 -60.22392 
L 884.246916 -60.021097 
L 880.423253 -59.918628 
L 876.599589 -59.946783 
L 872.775925 -60.098225 
L 868.952261 -60.330151 
L 865.128598 -60.575246 
L 861.304934 -60.765343 
L 857.48127 -60.863931 
L 853.657606 -60.891562 
L 849.833942 -60.925144 
L 846.010279 -61.065054 
L 842.186615 -61.384975 
L 838.362951 -61.89259 
L 834.539287 -62.524542 
L 830.715624 -63.178862 
L 826.89196 -63.765749 
L 823.068296 -64.24844 
L 819.244632 -64.655815 
L 815.420968 -65.067956 
L 811.597305 -65.58879 
L 807.773641 -66.318771 
L 803.949977 -67.332391 
L 800.126313 -68.661605 
L 796.30265 -70.289893 
L 792.478986 -72.165582 
L 788.655322 -74.237712 
L 784.831658 -76.502776 
L 781.007995 -79.038579 
L 777.184331 -82.007418 
L 773.360667 -85.632827 
L 769.537003 -90.169577 
L 765.713339 -95.877403 
L 761.889676 -102.988192 
L 758.066012 -111.657463 
L 754.242348 -121.92241 
L 750.418684 -133.711522 
L 746.595021 -146.919267 
L 742.771357 -161.487479 
L 738.947693 -177.402072 
L 735.124029 -194.580218 
L 731.300365 -212.746426 
L 727.476702 -231.450096 
L 723.653038 -250.279469 
L 719.829374 -269.141288 
L 716.00571 -288.372407 
L 712.182047 -308.543414 
L 708.358383 -330.041418 
L 704.534719 -352.688952 
L 700.711055 -375.631495 
L 696.887392 -397.54436 
L 693.063728 -417.02417 
L 689.240064 -432.960045 
L 685.4164 -444.730082 
L 681.592736 -452.174797 
L 677.769073 -455.4 
L 673.945409 -454.525236 
L 670.121745 -449.505859 
L 666.298081 -440.116208 
L 662.474418 -426.103944 
L 658.650754 -407.440721 
L 654.82709 -384.539504 
L 651.003426 -358.321469 
L 647.179762 -330.100417 
L 643.356099 -301.354209 
L 639.532435 -273.490947 
L 635.708771 -247.672944 
L 631.885107 -224.697417 
L 628.061444 -204.918029 
L 624.23778 -188.222803 
L 620.414116 -174.104569 
L 616.590452 -161.833233 
L 612.766788 -150.683499 
L 608.943125 -140.134601 
L 605.119461 -129.969841 
L 601.295797 -120.254498 
L 597.472133 -111.225424 
L 593.64847 -103.152047 
L 589.824806 -96.220335 
L 586.001142 -90.467246 
L 582.177478 -85.773622 
L 578.353815 -81.911313 
L 574.530151 -78.625426 
L 570.706487 -75.715956 
L 566.882823 -73.081565 
L 563.059159 -70.711892 
L 559.235496 -68.645991 
L 555.411832 -66.926099 
L 551.588168 -65.564222 
L 547.764504 -64.525131 
L 543.940841 -63.727932 
L 540.117177 -63.06975 
L 536.293513 -62.465601 
L 532.469849 -61.883698 
L 528.646185 -61.353314 
L 524.822522 -60.938693 
L 520.998858 -60.694205 
L 517.175194 -60.626188 
L 513.35153 -60.68136 
L 509.527867 -60.766702 
L 505.704203 -60.789723 
L 501.880539 -60.69755 
L 498.056875 -60.494243 
L 494.233212 -60.229217 
L 490.409548 -59.967648 
L 486.585884 -59.762934 
L 482.76222 -59.645325 
L 478.938556 -59.626253 
L 475.114893 -59.707068 
L 471.291229 -59.880872 
L 467.467565 -60.12521 
L 463.643901 -60.393952 
L 459.820238 -60.620726 
L 455.996574 -60.73918 
L 452.17291 -60.711353 
L 448.349246 -60.54602 
L 444.525582 -60.293803 
L 440.701919 -60.022107 
L 436.878255 -59.786422 
L 433.054591 -59.614206 
L 429.230927 -59.505967 
L 425.407264 -59.446783 
L 421.5836 -59.418432 
L 417.759936 -59.406481 
L 413.936272 -59.402034 
L 410.112608 -59.400569 
L 406.288945 -59.400142 
L 402.465281 -59.400032 
L 398.641617 -59.400006 
L 394.817953 -59.400001 
L 390.99429 -59.4 
L 387.170626 -59.4 
L 383.346962 -59.4 
L 379.523298 -59.4 
L 375.699635 -59.4 
L 371.875971 -59.4 
L 368.052307 -59.4 
L 364.228643 -59.4 
L 360.404979 -59.4 
L 356.581316 -59.4 
L 352.757652 -59.4 
L 348.933988 -59.4 
L 345.110324 -59.4 
L 341.286661 -59.4 
L 337.462997 -59.4 
L 333.639333 -59.4 
L 329.815669 -59.4 
L 325.992005 -59.4 
L 322.168342 -59.4 
L 318.344678 -59.4 
L 314.521014 -59.4 
L 310.69735 -59.4 
L 306.873687 -59.4 
L 303.050023 -59.4 
L 299.226359 -59.4 
L 295.402695 -59.4 
L 291.579032 -59.4 
L 287.755368 -59.4 
L 283.931704 -59.4 
L 280.10804 -59.4 
L 276.284376 -59.4 
L 272.460713 -59.4 
L 268.637049 -59.400001 
L 264.813385 -59.400003 
L 260.989721 -59.400016 
L 257.166058 -59.400076 
L 253.342394 -59.400321 
L 249.51873 -59.401203 
L 245.695066 -59.404023 
L 241.871402 -59.412007 
L 238.047739 -59.431978 
L 234.224075 -59.47601 
L 230.400411 -59.561233 
L 226.576747 -59.705219 
L 222.753084 -59.915635 
L 218.92942 -60.177401 
L 215.105756 -60.445973 
L 211.282092 -60.65594 
L 207.458429 -60.745829 
L 203.634765 -60.687015 
L 199.811101 -60.498373 
L 195.987437 -60.236544 
L 192.163773 -59.968592 
L 188.34011 -59.744894 
L 184.516446 -59.586699 
L 180.692782 -59.490193 
L 176.869118 -59.438884 
L 173.045455 -59.414961 
z
" style="stroke: #1f77b4"/>
    </defs>
    <g clip-path="url(#p499c97e241)">
     <use xlink:href="#m01139f469e" x="0" y="540" style="fill: #1f77b4; fill-opacity: 0.25; stroke: #1f77b4"/>
    </g>
   </g>
   <g id="matplotlib.axis_1">
    <g id="xtick_1">
     <g id="line2d_1">
      <defs>
       <path id="m2af92ff10f" d="M 0 0 
L 0 3.5 
" style="stroke: #000000; stroke-width: 0.8"/>
      </defs>
      <g>
       <use xlink:href="#m2af92ff10f" x="326.780033" y="480.6" style="stroke: #000000; stroke-width: 0.8"/>
      </g>
     </g>
     <g id="text_1">
      <!-- 1 -->
      <g transform="translate(323.598783 495.198438) scale(0.1 -0.1)">
       <defs>
        <path id="DejaVuSans-31" d="M 794 531 
L 1825 531 
L 1825 4091 
L 703 3866 
L 703 4441 
L 1819 4666 
L 2450 4666 
L 2450 531 
L 3481 531 
L 3481 0 
L 794 0 
L 794 531 
z
" transform="scale(0.015625)"/>
       </defs>
       <use xlink:href="#DejaVuSans-31"/>
      </g>
     </g>
    </g>
    <g id="xtick_2">
     <g id="line2d_2">
      <g>
       <use xlink:href="#m2af92ff10f" x="386.94023" y="480.6" style="stroke: #000000; stroke-width: 0.8"/>
      </g>
     </g>
     <g id="text_2">
      <!-- 2 -->
      <g transform="translate(383.75898 495.198438) scale(0.1 -0.1)">
       <defs>
        <path id="DejaVuSans-32" d="M 1228 531 
L 3431 531 
L 3431 0 
L 469 0 
L 469 531 
Q 828 903 1448 1529 
Q 2069 2156 2228 2338 
Q 2531 2678 2651 2914 
Q 2772 3150 2772 3378 
Q 2772 3750 2511 3984 
Q 2250 4219 1831 4219 
Q 1534 4219 1204 4116 
Q 875 4013 500 3803 
L 500 4441 
Q 881 4594 1212 4672 
Q 1544 4750 1819 4750 
Q 2544 4750 2975 4387 
Q 3406 4025 3406 3419 
Q 3406 3131 3298 2873 
Q 3191 2616 2906 2266 
Q 2828 2175 2409 1742 
Q 1991 1309 1228 531 
z
" transform="scale(0.015625)"/>
       </defs>
       <use xlink:href="#DejaVuSans-32"/>
      </g>
     </g>
    </g>
    <g id="xtick_3">
     <g id="line2d_3">
      <g>
       <use xlink:href="#m2af92ff10f" x="466.467685" y="480.6" style="stroke: #000000; stroke-width: 0.8"/>
      </g>
     </g>
     <g id="text_3">
      <!-- 5 -->
      <g transform="translate(463.286435 495.198438) scale(0.1 -0.1)">
       <defs>
        <path id="DejaVuSans-35" d="M 691 4666 
L 3169 4666 
L 3169 4134 
L 1269 4134 
L 1269 2991 
Q 1406 3038 1543 3061 
Q 1681 3084 1819 3084 
Q 2600 3084 3056 2656 
Q 3513 2228 3513 1497 
Q 3513 744 3044 326 
Q 2575 -91 1722 -91 
Q 1428 -91 1123 -41 
Q 819 9 494 109 
L 494 744 
Q 775 591 1075 516 
Q 1375 441 1709 441 
Q 2250 441 2565 725 
Q 2881 1009 2881 1497 
Q 2881 1984 2565 2268 
Q 2250 2553 1709 2553 
Q 1456 2553 1204 2497 
Q 953 2441 691 2322 
L 691 4666 
z
" transform="scale(0.015625)"/>
       </defs>
       <use xlink:href="#DejaVuSans-35"/>
      </g>
     </g>
    </g>
    <g id="xtick_4">
     <g id="line2d_4">
      <g>
       <use xlink:href="#m2af92ff10f" x="526.627882" y="480.6" style="stroke: #000000; stroke-width: 0.8"/>
      </g>
     </g>
     <g id="text_4">
      <!-- 10 -->
      <g transform="translate(520.265382 495.198438) scale(0.1 -0.1)">
       <defs>
        <path id="DejaVuSans-30" d="M 2034 4250 
Q 1547 4250 1301 3770 
Q 1056 3291 1056 2328 
Q 1056 1369 1301 889 
Q 1547 409 2034 409 
Q 2525 409 2770 889 
Q 3016 1369 3016 2328 
Q 3016 3291 2770 3770 
Q 2525 4250 2034 4250 
z
M 2034 4750 
Q 2819 4750 3233 4129 
Q 3647 3509 3647 2328 
Q 3647 1150 3233 529 
Q 2819 -91 2034 -91 
Q 1250 -91 836 529 
Q 422 1150 422 2328 
Q 422 3509 836 4129 
Q 1250 4750 2034 4750 
z
" transform="scale(0.015625)"/>
       </defs>
       <use xlink:href="#DejaVuSans-31"/>
       <use xlink:href="#DejaVuSans-30" transform="translate(63.623047 0)"/>
      </g>
     </g>
    </g>
    <g id="xtick_5">
     <g id="line2d_5">
      <g>
       <use xlink:href="#m2af92ff10f" x="586.788079" y="480.6" style="stroke: #000000; stroke-width: 0.8"/>
      </g>
     </g>
     <g id="text_5">
      <!-- 20 -->
      <g transform="translate(580.425579 495.198438) scale(0.1 -0.1)">
       <use xlink:href="#DejaVuSans-32"/>
       <use xlink:href="#DejaVuSans-30" transform="translate(63.623047 0)"/>
      </g>
     </g>
    </g>
    <g id="xtick_6">
     <g id="line2d_6">
      <g>
       <use xlink:href="#m2af92ff10f" x="666.315534" y="480.6" style="stroke: #000000; stroke-width: 0.8"/>
      </g>
     </g>
     <g id="text_6">
      <!-- 50 -->
      <g transform="translate(659.953034 495.198438) scale(0.1 -0.1)">
       <use xlink:href="#DejaVuSans-35"/>
       <use xlink:href="#DejaVuSans-30" transform="translate(63.623047 0)"/>
      </g>
     </g>
    </g>
    <g id="xtick_7">
     <g id="line2d_7">
      <g>
       <use xlink:href="#m2af92ff10f" x="726.47573" y="480.6" style="stroke: #000000; stroke-width: 0.8"/>
      </g>
     </g>
     <g id="text_7">
      <!-- 100 -->
      <g transform="translate(716.93198 495.198438) scale(0.1 -0.1)">
       <use xlink:href="#DejaVuSans-31"/>
       <use xlink:href="#DejaVuSans-30" transform="translate(63.623047 0)"/>
       <use xlink:href="#DejaVuSans-30" transform="translate(127.246094 0)"/>
      </g>
     </g>
    </g>
    <g id="xtick_8">
     <g id="line2d_8">
      <g>
       <use xlink:href="#m2af92ff10f" x="786.635927" y="480.6" style="stroke: #000000; stroke-width: 0.8"/>
      </g>
     </g>
     <g id="text_8">
      <!-- 200 -->
      <g transform="translate(777.092177 495.198438) scale(0.1 -0.1)">
       <use xlink:href="#DejaVuSans-32"/>
       <use xlink:href="#DejaVuSans-30" transform="translate(63.623047 0)"/>
       <use xlink:href="#DejaVuSans-30" transform="translate(127.246094 0)"/>
      </g>
     </g>
    </g>
    <g id="xtick_9">
     <g id="line2d_9">
      <g>
       <use xlink:href="#m2af92ff10f" x="866.163382" y="480.6" style="stroke: #000000; stroke-width: 0.8"/>
      </g>
     </g>
     <g id="text_9">
      <!-- 500 -->
      <g transform="translate(856.619632 495.198438) scale(0.1 -0.1)">
       <use xlink:href="#DejaVuSans-35"/>
       <use xlink:href="#DejaVuSans-30" transform="translate(63.623047 0)"/>
       <use xlink:href="#DejaVuSans-30" transform="translate(127.246094 0)"/>
      </g>
     </g>
    </g>
    <g id="xtick_10">
     <g id="line2d_10">
      <g>
       <use xlink:href="#m2af92ff10f" x="926.323579" y="480.6" style="stroke: #000000; stroke-width: 0.8"/>
      </g>
     </g>
     <g id="text_10">
      <!-- 1000 -->
      <g transform="translate(913.598579 495.198438) scale(0.1 -0.1)">
       <use xlink:href="#DejaVuSans-31"/>
       <use xlink:href="#DejaVuSans-30" transform="translate(63.623047 0)"/>
       <use xlink:href="#DejaVuSans-30" transform="translate(127.246094 0)"/>
       <use xlink:href="#DejaVuSans-30" transform="translate(190.869141 0)"/>
      </g>
     </g>
    </g>
    <g id="xtick_11">
     <g id="line2d_11">
      <defs>
       <path id="m83036ac40d" d="M 0 0 
L 0 2 
" style="stroke: #000000; stroke-width: 0.6"/>
      </defs>
      <g>
       <use xlink:href="#m83036ac40d" x="187.092382" y="480.6" style="stroke: #000000; stroke-width: 0.6"/>
      </g>
     </g>
    </g>
    <g id="xtick_12">
     <g id="line2d_12">
      <g>
       <use xlink:href="#m83036ac40d" x="222.283841" y="480.6" style="stroke: #000000; stroke-width: 0.6"/>
      </g>
     </g>
    </g>
    <g id="xtick_13">
     <g id="line2d_13">
      <g>
       <use xlink:href="#m83036ac40d" x="247.252579" y="480.6" style="stroke: #000000; stroke-width: 0.6"/>
      </g>
     </g>
    </g>
    <g id="xtick_14">
     <g id="line2d_14">
      <g>
       <use xlink:href="#m83036ac40d" x="266.619836" y="480.6" style="stroke: #000000; stroke-width: 0.6"/>
      </g>
     </g>
    </g>
    <g id="xtick_15">
     <g id="line2d_15">
      <g>
       <use xlink:href="#m83036ac40d" x="282.444038" y="480.6" style="stroke: #000000; stroke-width: 0.6"/>
      </g>
     </g>
    </g>
    <g id="xtick_16">
     <g id="line2d_16">
      <g>
       <use xlink:href="#m83036ac40d" x="295.82321" y="480.6" style="stroke: #000000; stroke-width: 0.6"/>
      </g>
     </g>
    </g>
    <g id="xtick_17">
     <g id="line2d_17">
      <g>
       <use xlink:href="#m83036ac40d" x="307.412776" y="480.6" style="stroke: #000000; stroke-width: 0.6"/>
      </g>
     </g>
    </g>
    <g id="xtick_18">
     <g id="line2d_18">
      <g>
       <use xlink:href="#m83036ac40d" x="317.635497" y="480.6" style="stroke: #000000; stroke-width: 0.6"/>
      </g>
     </g>
    </g>
    <g id="xtick_19">
     <g id="line2d_19">
      <g>
       <use xlink:href="#m83036ac40d" x="422.13169" y="480.6" style="stroke: #000000; stroke-width: 0.6"/>
      </g>
     </g>
    </g>
    <g id="xtick_20">
     <g id="line2d_20">
      <g>
       <use xlink:href="#m83036ac40d" x="447.100427" y="480.6" style="stroke: #000000; stroke-width: 0.6"/>
      </g>
     </g>
    </g>
    <g id="xtick_21">
     <g id="line2d_21">
      <g>
       <use xlink:href="#m83036ac40d" x="482.291887" y="480.6" style="stroke: #000000; stroke-width: 0.6"/>
      </g>
     </g>
    </g>
    <g id="xtick_22">
     <g id="line2d_22">
      <g>
       <use xlink:href="#m83036ac40d" x="495.671058" y="480.6" style="stroke: #000000; stroke-width: 0.6"/>
      </g>
     </g>
    </g>
    <g id="xtick_23">
     <g id="line2d_23">
      <g>
       <use xlink:href="#m83036ac40d" x="507.260624" y="480.6" style="stroke: #000000; stroke-width: 0.6"/>
      </g>
     </g>
    </g>
    <g id="xtick_24">
     <g id="line2d_24">
      <g>
       <use xlink:href="#m83036ac40d" x="517.483346" y="480.6" style="stroke: #000000; stroke-width: 0.6"/>
      </g>
     </g>
    </g>
    <g id="xtick_25">
     <g id="line2d_25">
      <g>
       <use xlink:href="#m83036ac40d" x="621.979538" y="480.6" style="stroke: #000000; stroke-width: 0.6"/>
      </g>
     </g>
    </g>
    <g id="xtick_26">
     <g id="line2d_26">
      <g>
       <use xlink:href="#m83036ac40d" x="646.948276" y="480.6" style="stroke: #000000; stroke-width: 0.6"/>
      </g>
     </g>
    </g>
    <g id="xtick_27">
     <g id="line2d_27">
      <g>
       <use xlink:href="#m83036ac40d" x="682.139735" y="480.6" style="stroke: #000000; stroke-width: 0.6"/>
      </g>
     </g>
    </g>
    <g id="xtick_28">
     <g id="line2d_28">
      <g>
       <use xlink:href="#m83036ac40d" x="695.518907" y="480.6" style="stroke: #000000; stroke-width: 0.6"/>
      </g>
     </g>
    </g>
    <g id="xtick_29">
     <g id="line2d_29">
      <g>
       <use xlink:href="#m83036ac40d" x="707.108473" y="480.6" style="stroke: #000000; stroke-width: 0.6"/>
      </g>
     </g>
    </g>
    <g id="xtick_30">
     <g id="line2d_30">
      <g>
       <use xlink:href="#m83036ac40d" x="717.331194" y="480.6" style="stroke: #000000; stroke-width: 0.6"/>
      </g>
     </g>
    </g>
    <g id="xtick_31">
     <g id="line2d_31">
      <g>
       <use xlink:href="#m83036ac40d" x="821.827387" y="480.6" style="stroke: #000000; stroke-width: 0.6"/>
      </g>
     </g>
    </g>
    <g id="xtick_32">
     <g id="line2d_32">
      <g>
       <use xlink:href="#m83036ac40d" x="846.796124" y="480.6" style="stroke: #000000; stroke-width: 0.6"/>
      </g>
     </g>
    </g>
    <g id="xtick_33">
     <g id="line2d_33">
      <g>
       <use xlink:href="#m83036ac40d" x="881.987584" y="480.6" style="stroke: #000000; stroke-width: 0.6"/>
      </g>
     </g>
    </g>
    <g id="xtick_34">
     <g id="line2d_34">
      <g>
       <use xlink:href="#m83036ac40d" x="895.366756" y="480.6" style="stroke: #000000; stroke-width: 0.6"/>
      </g>
     </g>
    </g>
    <g id="xtick_35">
     <g id="line2d_35">
      <g>
       <use xlink:href="#m83036ac40d" x="906.956321" y="480.6" style="stroke: #000000; stroke-width: 0.6"/>
      </g>
     </g>
    </g>
    <g id="xtick_36">
     <g id="line2d_36">
      <g>
       <use xlink:href="#m83036ac40d" x="917.179043" y="480.6" style="stroke: #000000; stroke-width: 0.6"/>
      </g>
     </g>
    </g>
    <g id="text_11">
     <!-- Income or consumption (day) -->
     <g transform="translate(479.746875 508.876563) scale(0.1 -0.1)">
      <defs>
       <path id="DejaVuSans-49" d="M 628 4666 
L 1259 4666 
L 1259 0 
L 628 0 
L 628 4666 
z
" transform="scale(0.015625)"/>
       <path id="DejaVuSans-6e" d="M 3513 2113 
L 3513 0 
L 2938 0 
L 2938 2094 
Q 2938 2591 2744 2837 
Q 2550 3084 2163 3084 
Q 1697 3084 1428 2787 
Q 1159 2491 1159 1978 
L 1159 0 
L 581 0 
L 581 3500 
L 1159 3500 
L 1159 2956 
Q 1366 3272 1645 3428 
Q 1925 3584 2291 3584 
Q 2894 3584 3203 3211 
Q 3513 2838 3513 2113 
z
" transform="scale(0.015625)"/>
       <path id="DejaVuSans-63" d="M 3122 3366 
L 3122 2828 
Q 2878 2963 2633 3030 
Q 2388 3097 2138 3097 
Q 1578 3097 1268 2742 
Q 959 2388 959 1747 
Q 959 1106 1268 751 
Q 1578 397 2138 397 
Q 2388 397 2633 464 
Q 2878 531 3122 666 
L 3122 134 
Q 2881 22 2623 -34 
Q 2366 -91 2075 -91 
Q 1284 -91 818 406 
Q 353 903 353 1747 
Q 353 2603 823 3093 
Q 1294 3584 2113 3584 
Q 2378 3584 2631 3529 
Q 2884 3475 3122 3366 
z
" transform="scale(0.015625)"/>
       <path id="DejaVuSans-6f" d="M 1959 3097 
Q 1497 3097 1228 2736 
Q 959 2375 959 1747 
Q 959 1119 1226 758 
Q 1494 397 1959 397 
Q 2419 397 2687 759 
Q 2956 1122 2956 1747 
Q 2956 2369 2687 2733 
Q 2419 3097 1959 3097 
z
M 1959 3584 
Q 2709 3584 3137 3096 
Q 3566 2609 3566 1747 
Q 3566 888 3137 398 
Q 2709 -91 1959 -91 
Q 1206 -91 779 398 
Q 353 888 353 1747 
Q 353 2609 779 3096 
Q 1206 3584 1959 3584 
z
" transform="scale(0.015625)"/>
       <path id="DejaVuSans-6d" d="M 3328 2828 
Q 3544 3216 3844 3400 
Q 4144 3584 4550 3584 
Q 5097 3584 5394 3201 
Q 5691 2819 5691 2113 
L 5691 0 
L 5113 0 
L 5113 2094 
Q 5113 2597 4934 2840 
Q 4756 3084 4391 3084 
Q 3944 3084 3684 2787 
Q 3425 2491 3425 1978 
L 3425 0 
L 2847 0 
L 2847 2094 
Q 2847 2600 2669 2842 
Q 2491 3084 2119 3084 
Q 1678 3084 1418 2786 
Q 1159 2488 1159 1978 
L 1159 0 
L 581 0 
L 581 3500 
L 1159 3500 
L 1159 2956 
Q 1356 3278 1631 3431 
Q 1906 3584 2284 3584 
Q 2666 3584 2933 3390 
Q 3200 3197 3328 2828 
z
" transform="scale(0.015625)"/>
       <path id="DejaVuSans-65" d="M 3597 1894 
L 3597 1613 
L 953 1613 
Q 991 1019 1311 708 
Q 1631 397 2203 397 
Q 2534 397 2845 478 
Q 3156 559 3463 722 
L 3463 178 
Q 3153 47 2828 -22 
Q 2503 -91 2169 -91 
Q 1331 -91 842 396 
Q 353 884 353 1716 
Q 353 2575 817 3079 
Q 1281 3584 2069 3584 
Q 2775 3584 3186 3129 
Q 3597 2675 3597 1894 
z
M 3022 2063 
Q 3016 2534 2758 2815 
Q 2500 3097 2075 3097 
Q 1594 3097 1305 2825 
Q 1016 2553 972 2059 
L 3022 2063 
z
" transform="scale(0.015625)"/>
       <path id="DejaVuSans-20" transform="scale(0.015625)"/>
       <path id="DejaVuSans-72" d="M 2631 2963 
Q 2534 3019 2420 3045 
Q 2306 3072 2169 3072 
Q 1681 3072 1420 2755 
Q 1159 2438 1159 1844 
L 1159 0 
L 581 0 
L 581 3500 
L 1159 3500 
L 1159 2956 
Q 1341 3275 1631 3429 
Q 1922 3584 2338 3584 
Q 2397 3584 2469 3576 
Q 2541 3569 2628 3553 
L 2631 2963 
z
" transform="scale(0.015625)"/>
       <path id="DejaVuSans-73" d="M 2834 3397 
L 2834 2853 
Q 2591 2978 2328 3040 
Q 2066 3103 1784 3103 
Q 1356 3103 1142 2972 
Q 928 2841 928 2578 
Q 928 2378 1081 2264 
Q 1234 2150 1697 2047 
L 1894 2003 
Q 2506 1872 2764 1633 
Q 3022 1394 3022 966 
Q 3022 478 2636 193 
Q 2250 -91 1575 -91 
Q 1294 -91 989 -36 
Q 684 19 347 128 
L 347 722 
Q 666 556 975 473 
Q 1284 391 1588 391 
Q 1994 391 2212 530 
Q 2431 669 2431 922 
Q 2431 1156 2273 1281 
Q 2116 1406 1581 1522 
L 1381 1569 
Q 847 1681 609 1914 
Q 372 2147 372 2553 
Q 372 3047 722 3315 
Q 1072 3584 1716 3584 
Q 2034 3584 2315 3537 
Q 2597 3491 2834 3397 
z
" transform="scale(0.015625)"/>
       <path id="DejaVuSans-75" d="M 544 1381 
L 544 3500 
L 1119 3500 
L 1119 1403 
Q 1119 906 1312 657 
Q 1506 409 1894 409 
Q 2359 409 2629 706 
Q 2900 1003 2900 1516 
L 2900 3500 
L 3475 3500 
L 3475 0 
L 2900 0 
L 2900 538 
Q 2691 219 2414 64 
Q 2138 -91 1772 -91 
Q 1169 -91 856 284 
Q 544 659 544 1381 
z
M 1991 3584 
L 1991 3584 
z
" transform="scale(0.015625)"/>
       <path id="DejaVuSans-70" d="M 1159 525 
L 1159 -1331 
L 581 -1331 
L 581 3500 
L 1159 3500 
L 1159 2969 
Q 1341 3281 1617 3432 
Q 1894 3584 2278 3584 
Q 2916 3584 3314 3078 
Q 3713 2572 3713 1747 
Q 3713 922 3314 415 
Q 2916 -91 2278 -91 
Q 1894 -91 1617 61 
Q 1341 213 1159 525 
z
M 3116 1747 
Q 3116 2381 2855 2742 
Q 2594 3103 2138 3103 
Q 1681 3103 1420 2742 
Q 1159 2381 1159 1747 
Q 1159 1113 1420 752 
Q 1681 391 2138 391 
Q 2594 391 2855 752 
Q 3116 1113 3116 1747 
z
" transform="scale(0.015625)"/>
       <path id="DejaVuSans-74" d="M 1172 4494 
L 1172 3500 
L 2356 3500 
L 2356 3053 
L 1172 3053 
L 1172 1153 
Q 1172 725 1289 603 
Q 1406 481 1766 481 
L 2356 481 
L 2356 0 
L 1766 0 
Q 1100 0 847 248 
Q 594 497 594 1153 
L 594 3053 
L 172 3053 
L 172 3500 
L 594 3500 
L 594 4494 
L 1172 4494 
z
" transform="scale(0.015625)"/>
       <path id="DejaVuSans-69" d="M 603 3500 
L 1178 3500 
L 1178 0 
L 603 0 
L 603 3500 
z
M 603 4863 
L 1178 4863 
L 1178 4134 
L 603 4134 
L 603 4863 
z
" transform="scale(0.015625)"/>
       <path id="DejaVuSans-28" d="M 1984 4856 
Q 1566 4138 1362 3434 
Q 1159 2731 1159 2009 
Q 1159 1288 1364 580 
Q 1569 -128 1984 -844 
L 1484 -844 
Q 1016 -109 783 600 
Q 550 1309 550 2009 
Q 550 2706 781 3412 
Q 1013 4119 1484 4856 
L 1984 4856 
z
" transform="scale(0.015625)"/>
       <path id="DejaVuSans-64" d="M 2906 2969 
L 2906 4863 
L 3481 4863 
L 3481 0 
L 2906 0 
L 2906 525 
Q 2725 213 2448 61 
Q 2172 -91 1784 -91 
Q 1150 -91 751 415 
Q 353 922 353 1747 
Q 353 2572 751 3078 
Q 1150 3584 1784 3584 
Q 2172 3584 2448 3432 
Q 2725 3281 2906 2969 
z
M 947 1747 
Q 947 1113 1208 752 
Q 1469 391 1925 391 
Q 2381 391 2643 752 
Q 2906 1113 2906 1747 
Q 2906 2381 2643 2742 
Q 2381 3103 1925 3103 
Q 1469 3103 1208 2742 
Q 947 2381 947 1747 
z
" transform="scale(0.015625)"/>
       <path id="DejaVuSans-61" d="M 2194 1759 
Q 1497 1759 1228 1600 
Q 959 1441 959 1056 
Q 959 750 1161 570 
Q 1363 391 1709 391 
Q 2188 391 2477 730 
Q 2766 1069 2766 1631 
L 2766 1759 
L 2194 1759 
z
M 3341 1997 
L 3341 0 
L 2766 0 
L 2766 531 
Q 2569 213 2275 61 
Q 1981 -91 1556 -91 
Q 1019 -91 701 211 
Q 384 513 384 1019 
Q 384 1609 779 1909 
Q 1175 2209 1959 2209 
L 2766 2209 
L 2766 2266 
Q 2766 2663 2505 2880 
Q 2244 3097 1772 3097 
Q 1472 3097 1187 3025 
Q 903 2953 641 2809 
L 641 3341 
Q 956 3463 1253 3523 
Q 1550 3584 1831 3584 
Q 2591 3584 2966 3190 
Q 3341 2797 3341 1997 
z
" transform="scale(0.015625)"/>
       <path id="DejaVuSans-79" d="M 2059 -325 
Q 1816 -950 1584 -1140 
Q 1353 -1331 966 -1331 
L 506 -1331 
L 506 -850 
L 844 -850 
Q 1081 -850 1212 -737 
Q 1344 -625 1503 -206 
L 1606 56 
L 191 3500 
L 800 3500 
L 1894 763 
L 2988 3500 
L 3597 3500 
L 2059 -325 
z
" transform="scale(0.015625)"/>
       <path id="DejaVuSans-29" d="M 513 4856 
L 1013 4856 
Q 1481 4119 1714 3412 
Q 1947 2706 1947 2009 
Q 1947 1309 1714 600 
Q 1481 -109 1013 -844 
L 513 -844 
Q 928 -128 1133 580 
Q 1338 1288 1338 2009 
Q 1338 2731 1133 3434 
Q 928 4138 513 4856 
z
" transform="scale(0.015625)"/>
      </defs>
      <use xlink:href="#DejaVuSans-49"/>
      <use xlink:href="#DejaVuSans-6e" transform="translate(29.492188 0)"/>
      <use xlink:href="#DejaVuSans-63" transform="translate(92.871094 0)"/>
      <use xlink:href="#DejaVuSans-6f" transform="translate(147.851562 0)"/>
      <use xlink:href="#DejaVuSans-6d" transform="translate(209.033203 0)"/>
      <use xlink:href="#DejaVuSans-65" transform="translate(306.445312 0)"/>
      <use xlink:href="#DejaVuSans-20" transform="translate(367.96875 0)"/>
      <use xlink:href="#DejaVuSans-6f" transform="translate(399.755859 0)"/>
      <use xlink:href="#DejaVuSans-72" transform="translate(460.9375 0)"/>
      <use xlink:href="#DejaVuSans-20" transform="translate(502.050781 0)"/>
      <use xlink:href="#DejaVuSans-63" transform="translate(533.837891 0)"/>
      <use xlink:href="#DejaVuSans-6f" transform="translate(588.818359 0)"/>
      <use xlink:href="#DejaVuSans-6e" transform="translate(650 0)"/>
      <use xlink:href="#DejaVuSans-73" transform="translate(713.378906 0)"/>
      <use xlink:href="#DejaVuSans-75" transform="translate(765.478516 0)"/>
      <use xlink:href="#DejaVuSans-6d" transform="translate(828.857422 0)"/>
      <use xlink:href="#DejaVuSans-70" transform="translate(926.269531 0)"/>
      <use xlink:href="#DejaVuSans-74" transform="translate(989.746094 0)"/>
      <use xlink:href="#DejaVuSans-69" transform="translate(1028.955078 0)"/>
      <use xlink:href="#DejaVuSans-6f" transform="translate(1056.738281 0)"/>
      <use xlink:href="#DejaVuSans-6e" transform="translate(1117.919922 0)"/>
      <use xlink:href="#DejaVuSans-20" transform="translate(1181.298828 0)"/>
      <use xlink:href="#DejaVuSans-28" transform="translate(1213.085938 0)"/>
      <use xlink:href="#DejaVuSans-64" transform="translate(1252.099609 0)"/>
      <use xlink:href="#DejaVuSans-61" transform="translate(1315.576172 0)"/>
      <use xlink:href="#DejaVuSans-79" transform="translate(1376.855469 0)"/>
      <use xlink:href="#DejaVuSans-29" transform="translate(1436.035156 0)"/>
     </g>
    </g>
   </g>
   <g id="matplotlib.axis_2"/>
   <g id="line2d_37">
    <path d="M 393.217144 480.6 
L 393.217144 64.8 
" clip-path="url(#p499c97e241)" style="fill: none; stroke-dasharray: 2.96,1.28; stroke-dashoffset: 0; stroke: #d3d3d3; stroke-width: 0.8"/>
   </g>
   <g id="line2d_38">
    <path d="M 583.175246 480.6 
L 583.175246 64.8 
" clip-path="url(#p499c97e241)" style="fill: none; stroke-dasharray: 2.96,1.28; stroke-dashoffset: 0; stroke: #d3d3d3; stroke-width: 0.8"/>
   </g>
   <g id="line2d_39">
    <path d="M 509.931383 480.6 
L 509.931383 64.8 
" clip-path="url(#p499c97e241)" style="fill: none; stroke-dasharray: 2.96,1.28; stroke-dashoffset: 0; stroke: #d3d3d3; stroke-width: 0.8"/>
   </g>
   <g id="text_12">
    <!-- International Poverty Line: $2.15 -->
    <g style="fill: #808080" transform="translate(399.295894 200.1605) rotate(-90) scale(0.08 -0.08)">
     <defs>
      <path id="DejaVuSans-6c" d="M 603 4863 
L 1178 4863 
L 1178 0 
L 603 0 
L 603 4863 
z
" transform="scale(0.015625)"/>
      <path id="DejaVuSans-50" d="M 1259 4147 
L 1259 2394 
L 2053 2394 
Q 2494 2394 2734 2622 
Q 2975 2850 2975 3272 
Q 2975 3691 2734 3919 
Q 2494 4147 2053 4147 
L 1259 4147 
z
M 628 4666 
L 2053 4666 
Q 2838 4666 3239 4311 
Q 3641 3956 3641 3272 
Q 3641 2581 3239 2228 
Q 2838 1875 2053 1875 
L 1259 1875 
L 1259 0 
L 628 0 
L 628 4666 
z
" transform="scale(0.015625)"/>
      <path id="DejaVuSans-76" d="M 191 3500 
L 800 3500 
L 1894 563 
L 2988 3500 
L 3597 3500 
L 2284 0 
L 1503 0 
L 191 3500 
z
" transform="scale(0.015625)"/>
      <path id="DejaVuSans-4c" d="M 628 4666 
L 1259 4666 
L 1259 531 
L 3531 531 
L 3531 0 
L 628 0 
L 628 4666 
z
" transform="scale(0.015625)"/>
      <path id="DejaVuSans-3a" d="M 750 794 
L 1409 794 
L 1409 0 
L 750 0 
L 750 794 
z
M 750 3309 
L 1409 3309 
L 1409 2516 
L 750 2516 
L 750 3309 
z
" transform="scale(0.015625)"/>
      <path id="DejaVuSans-24" d="M 2163 -941 
L 1850 -941 
L 1847 0 
Q 1519 6 1191 76 
Q 863 147 531 288 
L 531 850 
Q 850 650 1176 548 
Q 1503 447 1850 444 
L 1850 1869 
Q 1159 1981 845 2250 
Q 531 2519 531 2988 
Q 531 3497 872 3790 
Q 1213 4084 1850 4128 
L 1850 4863 
L 2163 4863 
L 2163 4138 
Q 2453 4125 2725 4076 
Q 2997 4028 3256 3944 
L 3256 3397 
Q 2997 3528 2723 3600 
Q 2450 3672 2163 3684 
L 2163 2350 
Q 2872 2241 3206 1959 
Q 3541 1678 3541 1191 
Q 3541 663 3186 358 
Q 2831 53 2163 6 
L 2163 -941 
z
M 1850 2406 
L 1850 3688 
Q 1488 3647 1297 3481 
Q 1106 3316 1106 3041 
Q 1106 2772 1282 2622 
Q 1459 2472 1850 2406 
z
M 2163 1806 
L 2163 453 
Q 2559 506 2761 678 
Q 2963 850 2963 1131 
Q 2963 1406 2770 1568 
Q 2578 1731 2163 1806 
z
" transform="scale(0.015625)"/>
      <path id="DejaVuSans-2e" d="M 684 794 
L 1344 794 
L 1344 0 
L 684 0 
L 684 794 
z
" transform="scale(0.015625)"/>
     </defs>
     <use xlink:href="#DejaVuSans-49"/>
     <use xlink:href="#DejaVuSans-6e" transform="translate(29.492188 0)"/>
     <use xlink:href="#DejaVuSans-74" transform="translate(92.871094 0)"/>
     <use xlink:href="#DejaVuSans-65" transform="translate(132.080078 0)"/>
     <use xlink:href="#DejaVuSans-72" transform="translate(193.603516 0)"/>
     <use xlink:href="#DejaVuSans-6e" transform="translate(232.966797 0)"/>
     <use xlink:href="#DejaVuSans-61" transform="translate(296.345703 0)"/>
     <use xlink:href="#DejaVuSans-74" transform="translate(357.625 0)"/>
     <use xlink:href="#DejaVuSans-69" transform="translate(396.833984 0)"/>
     <use xlink:href="#DejaVuSans-6f" transform="translate(424.617188 0)"/>
     <use xlink:href="#DejaVuSans-6e" transform="translate(485.798828 0)"/>
     <use xlink:href="#DejaVuSans-61" transform="translate(549.177734 0)"/>
     <use xlink:href="#DejaVuSans-6c" transform="translate(610.457031 0)"/>
     <use xlink:href="#DejaVuSans-20" transform="translate(638.240234 0)"/>
     <use xlink:href="#DejaVuSans-50" transform="translate(670.027344 0)"/>
     <use xlink:href="#DejaVuSans-6f" transform="translate(726.705078 0)"/>
     <use xlink:href="#DejaVuSans-76" transform="translate(787.886719 0)"/>
     <use xlink:href="#DejaVuSans-65" transform="translate(847.066406 0)"/>
     <use xlink:href="#DejaVuSans-72" transform="translate(908.589844 0)"/>
     <use xlink:href="#DejaVuSans-74" transform="translate(949.703125 0)"/>
     <use xlink:href="#DejaVuSans-79" transform="translate(988.912109 0)"/>
     <use xlink:href="#DejaVuSans-20" transform="translate(1048.091797 0)"/>
     <use xlink:href="#DejaVuSans-4c" transform="translate(1079.878906 0)"/>
     <use xlink:href="#DejaVuSans-69" transform="translate(1135.591797 0)"/>
     <use xlink:href="#DejaVuSans-6e" transform="translate(1163.375 0)"/>
     <use xlink:href="#DejaVuSans-65" transform="translate(1226.753906 0)"/>
     <use xlink:href="#DejaVuSans-3a" transform="translate(1288.277344 0)"/>
     <use xlink:href="#DejaVuSans-20" transform="translate(1321.96875 0)"/>
     <use xlink:href="#DejaVuSans-24" transform="translate(1353.755859 0)"/>
     <use xlink:href="#DejaVuSans-32" transform="translate(1417.378906 0)"/>
     <use xlink:href="#DejaVuSans-2e" transform="translate(1481.001953 0)"/>
     <use xlink:href="#DejaVuSans-31" transform="translate(1512.789062 0)"/>
     <use xlink:href="#DejaVuSans-35" transform="translate(1576.412109 0)"/>
    </g>
   </g>
   <g id="text_13">
    <!-- World mean: $19.18 -->
    <g style="fill: #808080" transform="translate(589.253996 150.343) rotate(-90) scale(0.08 -0.08)">
     <defs>
      <path id="DejaVuSans-57" d="M 213 4666 
L 850 4666 
L 1831 722 
L 2809 4666 
L 3519 4666 
L 4500 722 
L 5478 4666 
L 6119 4666 
L 4947 0 
L 4153 0 
L 3169 4050 
L 2175 0 
L 1381 0 
L 213 4666 
z
" transform="scale(0.015625)"/>
      <path id="DejaVuSans-39" d="M 703 97 
L 703 672 
Q 941 559 1184 500 
Q 1428 441 1663 441 
Q 2288 441 2617 861 
Q 2947 1281 2994 2138 
Q 2813 1869 2534 1725 
Q 2256 1581 1919 1581 
Q 1219 1581 811 2004 
Q 403 2428 403 3163 
Q 403 3881 828 4315 
Q 1253 4750 1959 4750 
Q 2769 4750 3195 4129 
Q 3622 3509 3622 2328 
Q 3622 1225 3098 567 
Q 2575 -91 1691 -91 
Q 1453 -91 1209 -44 
Q 966 3 703 97 
z
M 1959 2075 
Q 2384 2075 2632 2365 
Q 2881 2656 2881 3163 
Q 2881 3666 2632 3958 
Q 2384 4250 1959 4250 
Q 1534 4250 1286 3958 
Q 1038 3666 1038 3163 
Q 1038 2656 1286 2365 
Q 1534 2075 1959 2075 
z
" transform="scale(0.015625)"/>
      <path id="DejaVuSans-38" d="M 2034 2216 
Q 1584 2216 1326 1975 
Q 1069 1734 1069 1313 
Q 1069 891 1326 650 
Q 1584 409 2034 409 
Q 2484 409 2743 651 
Q 3003 894 3003 1313 
Q 3003 1734 2745 1975 
Q 2488 2216 2034 2216 
z
M 1403 2484 
Q 997 2584 770 2862 
Q 544 3141 544 3541 
Q 544 4100 942 4425 
Q 1341 4750 2034 4750 
Q 2731 4750 3128 4425 
Q 3525 4100 3525 3541 
Q 3525 3141 3298 2862 
Q 3072 2584 2669 2484 
Q 3125 2378 3379 2068 
Q 3634 1759 3634 1313 
Q 3634 634 3220 271 
Q 2806 -91 2034 -91 
Q 1263 -91 848 271 
Q 434 634 434 1313 
Q 434 1759 690 2068 
Q 947 2378 1403 2484 
z
M 1172 3481 
Q 1172 3119 1398 2916 
Q 1625 2713 2034 2713 
Q 2441 2713 2670 2916 
Q 2900 3119 2900 3481 
Q 2900 3844 2670 4047 
Q 2441 4250 2034 4250 
Q 1625 4250 1398 4047 
Q 1172 3844 1172 3481 
z
" transform="scale(0.015625)"/>
     </defs>
     <use xlink:href="#DejaVuSans-57"/>
     <use xlink:href="#DejaVuSans-6f" transform="translate(93.001953 0)"/>
     <use xlink:href="#DejaVuSans-72" transform="translate(154.183594 0)"/>
     <use xlink:href="#DejaVuSans-6c" transform="translate(195.296875 0)"/>
     <use xlink:href="#DejaVuSans-64" transform="translate(223.080078 0)"/>
     <use xlink:href="#DejaVuSans-20" transform="translate(286.556641 0)"/>
     <use xlink:href="#DejaVuSans-6d" transform="translate(318.34375 0)"/>
     <use xlink:href="#DejaVuSans-65" transform="translate(415.755859 0)"/>
     <use xlink:href="#DejaVuSans-61" transform="translate(477.279297 0)"/>
     <use xlink:href="#DejaVuSans-6e" transform="translate(538.558594 0)"/>
     <use xlink:href="#DejaVuSans-3a" transform="translate(601.9375 0)"/>
     <use xlink:href="#DejaVuSans-20" transform="translate(635.628906 0)"/>
     <use xlink:href="#DejaVuSans-24" transform="translate(667.416016 0)"/>
     <use xlink:href="#DejaVuSans-31" transform="translate(731.039062 0)"/>
     <use xlink:href="#DejaVuSans-39" transform="translate(794.662109 0)"/>
     <use xlink:href="#DejaVuSans-2e" transform="translate(858.285156 0)"/>
     <use xlink:href="#DejaVuSans-31" transform="translate(890.072266 0)"/>
     <use xlink:href="#DejaVuSans-38" transform="translate(953.695312 0)"/>
    </g>
   </g>
   <g id="text_14">
    <!-- World median: $8.25 -->
    <g style="fill: #808080" transform="translate(516.010133 152.55425) rotate(-90) scale(0.08 -0.08)">
     <use xlink:href="#DejaVuSans-57"/>
     <use xlink:href="#DejaVuSans-6f" transform="translate(93.001953 0)"/>
     <use xlink:href="#DejaVuSans-72" transform="translate(154.183594 0)"/>
     <use xlink:href="#DejaVuSans-6c" transform="translate(195.296875 0)"/>
     <use xlink:href="#DejaVuSans-64" transform="translate(223.080078 0)"/>
     <use xlink:href="#DejaVuSans-20" transform="translate(286.556641 0)"/>
     <use xlink:href="#DejaVuSans-6d" transform="translate(318.34375 0)"/>
     <use xlink:href="#DejaVuSans-65" transform="translate(415.755859 0)"/>
     <use xlink:href="#DejaVuSans-64" transform="translate(477.279297 0)"/>
     <use xlink:href="#DejaVuSans-69" transform="translate(540.755859 0)"/>
     <use xlink:href="#DejaVuSans-61" transform="translate(568.539062 0)"/>
     <use xlink:href="#DejaVuSans-6e" transform="translate(629.818359 0)"/>
     <use xlink:href="#DejaVuSans-3a" transform="translate(693.197266 0)"/>
     <use xlink:href="#DejaVuSans-20" transform="translate(726.888672 0)"/>
     <use xlink:href="#DejaVuSans-24" transform="translate(758.675781 0)"/>
     <use xlink:href="#DejaVuSans-38" transform="translate(822.298828 0)"/>
     <use xlink:href="#DejaVuSans-2e" transform="translate(885.921875 0)"/>
     <use xlink:href="#DejaVuSans-32" transform="translate(917.708984 0)"/>
     <use xlink:href="#DejaVuSans-35" transform="translate(981.332031 0)"/>
    </g>
   </g>
   <g id="legend_1">
    <g id="patch_3">
     <path d="M 811.6 199.994375 
L 889.560938 199.994375 
Q 891.560938 199.994375 891.560938 197.994375 
L 891.560938 154.96 
Q 891.560938 152.96 889.560938 152.96 
L 811.6 152.96 
Q 809.6 152.96 809.6 154.96 
L 809.6 197.994375 
Q 809.6 199.994375 811.6 199.994375 
z
" style="fill: #ffffff; opacity: 0.8; stroke: #cccccc; stroke-linejoin: miter"/>
    </g>
    <g id="text_15">
     <!-- Country -->
     <g transform="translate(830.717188 164.558437) scale(0.1 -0.1)">
      <defs>
       <path id="DejaVuSans-43" d="M 4122 4306 
L 4122 3641 
Q 3803 3938 3442 4084 
Q 3081 4231 2675 4231 
Q 1875 4231 1450 3742 
Q 1025 3253 1025 2328 
Q 1025 1406 1450 917 
Q 1875 428 2675 428 
Q 3081 428 3442 575 
Q 3803 722 4122 1019 
L 4122 359 
Q 3791 134 3420 21 
Q 3050 -91 2638 -91 
Q 1578 -91 968 557 
Q 359 1206 359 2328 
Q 359 3453 968 4101 
Q 1578 4750 2638 4750 
Q 3056 4750 3426 4639 
Q 3797 4528 4122 4306 
z
" transform="scale(0.015625)"/>
      </defs>
      <use xlink:href="#DejaVuSans-43"/>
      <use xlink:href="#DejaVuSans-6f" transform="translate(69.824219 0)"/>
      <use xlink:href="#DejaVuSans-75" transform="translate(131.005859 0)"/>
      <use xlink:href="#DejaVuSans-6e" transform="translate(194.384766 0)"/>
      <use xlink:href="#DejaVuSans-74" transform="translate(257.763672 0)"/>
      <use xlink:href="#DejaVuSans-72" transform="translate(296.972656 0)"/>
      <use xlink:href="#DejaVuSans-79" transform="translate(338.085938 0)"/>
     </g>
    </g>
    <g id="patch_4">
     <path d="M 813.6 179.236562 
L 833.6 179.236562 
L 833.6 172.236562 
L 813.6 172.236562 
z
" style="fill: #1f77b4; fill-opacity: 0.25; stroke: #1f77b4; stroke-linejoin: miter"/>
    </g>
    <g id="text_16">
     <!-- Denmark -->
     <g transform="translate(841.6 179.236562) scale(0.1 -0.1)">
      <defs>
       <path id="DejaVuSans-44" d="M 1259 4147 
L 1259 519 
L 2022 519 
Q 2988 519 3436 956 
Q 3884 1394 3884 2338 
Q 3884 3275 3436 3711 
Q 2988 4147 2022 4147 
L 1259 4147 
z
M 628 4666 
L 1925 4666 
Q 3281 4666 3915 4102 
Q 4550 3538 4550 2338 
Q 4550 1131 3912 565 
Q 3275 0 1925 0 
L 628 0 
L 628 4666 
z
" transform="scale(0.015625)"/>
       <path id="DejaVuSans-6b" d="M 581 4863 
L 1159 4863 
L 1159 1991 
L 2875 3500 
L 3609 3500 
L 1753 1863 
L 3688 0 
L 2938 0 
L 1159 1709 
L 1159 0 
L 581 0 
L 581 4863 
z
" transform="scale(0.015625)"/>
      </defs>
      <use xlink:href="#DejaVuSans-44"/>
      <use xlink:href="#DejaVuSans-65" transform="translate(77.001953 0)"/>
      <use xlink:href="#DejaVuSans-6e" transform="translate(138.525391 0)"/>
      <use xlink:href="#DejaVuSans-6d" transform="translate(201.904297 0)"/>
      <use xlink:href="#DejaVuSans-61" transform="translate(299.316406 0)"/>
      <use xlink:href="#DejaVuSans-72" transform="translate(360.595703 0)"/>
      <use xlink:href="#DejaVuSans-6b" transform="translate(401.708984 0)"/>
     </g>
    </g>
    <g id="patch_5">
     <path d="M 813.6 193.914688 
L 833.6 193.914688 
L 833.6 186.914688 
L 813.6 186.914688 
z
" style="fill: #ff7f0e; fill-opacity: 0.25; stroke: #ff7f0e; stroke-linejoin: miter"/>
    </g>
    <g id="text_17">
     <!-- Niger -->
     <g transform="translate(841.6 193.914688) scale(0.1 -0.1)">
      <defs>
       <path id="DejaVuSans-4e" d="M 628 4666 
L 1478 4666 
L 3547 763 
L 3547 4666 
L 4159 4666 
L 4159 0 
L 3309 0 
L 1241 3903 
L 1241 0 
L 628 0 
L 628 4666 
z
" transform="scale(0.015625)"/>
       <path id="DejaVuSans-67" d="M 2906 1791 
Q 2906 2416 2648 2759 
Q 2391 3103 1925 3103 
Q 1463 3103 1205 2759 
Q 947 2416 947 1791 
Q 947 1169 1205 825 
Q 1463 481 1925 481 
Q 2391 481 2648 825 
Q 2906 1169 2906 1791 
z
M 3481 434 
Q 3481 -459 3084 -895 
Q 2688 -1331 1869 -1331 
Q 1566 -1331 1297 -1286 
Q 1028 -1241 775 -1147 
L 775 -588 
Q 1028 -725 1275 -790 
Q 1522 -856 1778 -856 
Q 2344 -856 2625 -561 
Q 2906 -266 2906 331 
L 2906 616 
Q 2728 306 2450 153 
Q 2172 0 1784 0 
Q 1141 0 747 490 
Q 353 981 353 1791 
Q 353 2603 747 3093 
Q 1141 3584 1784 3584 
Q 2172 3584 2450 3431 
Q 2728 3278 2906 2969 
L 2906 3500 
L 3481 3500 
L 3481 434 
z
" transform="scale(0.015625)"/>
      </defs>
      <use xlink:href="#DejaVuSans-4e"/>
      <use xlink:href="#DejaVuSans-69" transform="translate(74.804688 0)"/>
      <use xlink:href="#DejaVuSans-67" transform="translate(102.587891 0)"/>
      <use xlink:href="#DejaVuSans-65" transform="translate(166.064453 0)"/>
      <use xlink:href="#DejaVuSans-72" transform="translate(227.587891 0)"/>
     </g>
    </g>
   </g>
  </g>
 </g>
 <defs>
  <clipPath id="p499c97e241">
   <rect x="135" y="64.8" width="837" height="415.8"/>
  </clipPath>
 </defs>
</svg>
