<?xml version="1.0" encoding="utf-8" standalone="no"?>
<!DOCTYPE svg PUBLIC "-//W3C//DTD SVG 1.1//EN"
  "http://www.w3.org/Graphics/SVG/1.1/DTD/svg11.dtd">
<svg xmlns:xlink="http://www.w3.org/1999/xlink" width="854.443131pt" height="265.689687pt" viewBox="0 0 854.443131 265.689687" xmlns="http://www.w3.org/2000/svg" version="1.1">
 <metadata>
  <rdf:RDF xmlns:dc="http://purl.org/dc/elements/1.1/" xmlns:cc="http://creativecommons.org/ns#" xmlns:rdf="http://www.w3.org/1999/02/22-rdf-syntax-ns#">
   <cc:Work>
    <dc:type rdf:resource="http://purl.org/dc/dcmitype/StillImage"/>
    <dc:date>2025-04-15T11:23:11.408592</dc:date>
    <dc:format>image/svg+xml</dc:format>
    <dc:creator>
     <cc:Agent>
      <dc:title>Matplotlib v3.10.1, https://matplotlib.org/</dc:title>
     </cc:Agent>
    </dc:creator>
   </cc:Work>
  </rdf:RDF>
 </metadata>
 <defs>
  <style type="text/css">*{stroke-linejoin: round; stroke-linecap: butt}</style>
 </defs>
 <g id="figure_1">
  <g id="patch_1">
   <path d="M 0 265.689687 
L 854.443131 265.689687 
L 854.443131 0 
L 0 0 
z
" style="fill: #ffffff"/>
  </g>
  <g id="axes_1">
   <g id="patch_2">
    <path d="M 7.2 228.96 
L 844.2 228.96 
L 844.2 7.2 
L 7.2 7.2 
z
" style="fill: #ffffff"/>
   </g>
   <g id="matplotlib.axis_1">
    <g id="xtick_1">
     <g id="line2d_1">
      <defs>
       <path id="m72e9c1193a" d="M 0 0 
L 0 3.5 
" style="stroke: #262626; stroke-width: 0.8"/>
      </defs>
      <g>
       <use xlink:href="#m72e9c1193a" x="148.397099" y="228.96" style="fill: #262626; stroke: #262626; stroke-width: 0.8"/>
      </g>
     </g>
     <g id="text_1">
      <text style="font-size: 10px; font-family: 'Arial', 'DejaVu Sans', 'Liberation Sans', 'Bitstream Vera Sans', sans-serif; text-anchor: middle; fill: #262626" x="148.397099" y="243.117812" transform="rotate(-0 148.397099 243.117812)">1</text>
     </g>
    </g>
    <g id="xtick_2">
     <g id="line2d_2">
      <g>
       <use xlink:href="#m72e9c1193a" x="217.405632" y="228.96" style="fill: #262626; stroke: #262626; stroke-width: 0.8"/>
      </g>
     </g>
     <g id="text_2">
      <text style="font-size: 10px; font-family: 'Arial', 'DejaVu Sans', 'Liberation Sans', 'Bitstream Vera Sans', sans-serif; text-anchor: middle; fill: #262626" x="217.405632" y="243.117812" transform="rotate(-0 217.405632 243.117812)">2</text>
     </g>
    </g>
    <g id="xtick_3">
     <g id="line2d_3">
      <g>
       <use xlink:href="#m72e9c1193a" x="308.629951" y="228.96" style="fill: #262626; stroke: #262626; stroke-width: 0.8"/>
      </g>
     </g>
     <g id="text_3">
      <text style="font-size: 10px; font-family: 'Arial', 'DejaVu Sans', 'Liberation Sans', 'Bitstream Vera Sans', sans-serif; text-anchor: middle; fill: #262626" x="308.629951" y="243.117812" transform="rotate(-0 308.629951 243.117812)">5</text>
     </g>
    </g>
    <g id="xtick_4">
     <g id="line2d_4">
      <g>
       <use xlink:href="#m72e9c1193a" x="377.638485" y="228.96" style="fill: #262626; stroke: #262626; stroke-width: 0.8"/>
      </g>
     </g>
     <g id="text_4">
      <text style="font-size: 10px; font-family: 'Arial', 'DejaVu Sans', 'Liberation Sans', 'Bitstream Vera Sans', sans-serif; text-anchor: middle; fill: #262626" x="377.638485" y="243.117812" transform="rotate(-0 377.638485 243.117812)">10</text>
     </g>
    </g>
    <g id="xtick_5">
     <g id="line2d_5">
      <g>
       <use xlink:href="#m72e9c1193a" x="446.647018" y="228.96" style="fill: #262626; stroke: #262626; stroke-width: 0.8"/>
      </g>
     </g>
     <g id="text_5">
      <text style="font-size: 10px; font-family: 'Arial', 'DejaVu Sans', 'Liberation Sans', 'Bitstream Vera Sans', sans-serif; text-anchor: middle; fill: #262626" x="446.647018" y="243.117812" transform="rotate(-0 446.647018 243.117812)">20</text>
     </g>
    </g>
    <g id="xtick_6">
     <g id="line2d_6">
      <g>
       <use xlink:href="#m72e9c1193a" x="537.871337" y="228.96" style="fill: #262626; stroke: #262626; stroke-width: 0.8"/>
      </g>
     </g>
     <g id="text_6">
      <text style="font-size: 10px; font-family: 'Arial', 'DejaVu Sans', 'Liberation Sans', 'Bitstream Vera Sans', sans-serif; text-anchor: middle; fill: #262626" x="537.871337" y="243.117812" transform="rotate(-0 537.871337 243.117812)">50</text>
     </g>
    </g>
    <g id="xtick_7">
     <g id="line2d_7">
      <g>
       <use xlink:href="#m72e9c1193a" x="606.879871" y="228.96" style="fill: #262626; stroke: #262626; stroke-width: 0.8"/>
      </g>
     </g>
     <g id="text_7">
      <text style="font-size: 10px; font-family: 'Arial', 'DejaVu Sans', 'Liberation Sans', 'Bitstream Vera Sans', sans-serif; text-anchor: middle; fill: #262626" x="606.879871" y="243.117812" transform="rotate(-0 606.879871 243.117812)">100</text>
     </g>
    </g>
    <g id="xtick_8">
     <g id="line2d_8">
      <g>
       <use xlink:href="#m72e9c1193a" x="675.888404" y="228.96" style="fill: #262626; stroke: #262626; stroke-width: 0.8"/>
      </g>
     </g>
     <g id="text_8">
      <text style="font-size: 10px; font-family: 'Arial', 'DejaVu Sans', 'Liberation Sans', 'Bitstream Vera Sans', sans-serif; text-anchor: middle; fill: #262626" x="675.888404" y="243.117812" transform="rotate(-0 675.888404 243.117812)">200</text>
     </g>
    </g>
    <g id="xtick_9">
     <g id="line2d_9">
      <g>
       <use xlink:href="#m72e9c1193a" x="767.112723" y="228.96" style="fill: #262626; stroke: #262626; stroke-width: 0.8"/>
      </g>
     </g>
     <g id="text_9">
      <text style="font-size: 10px; font-family: 'Arial', 'DejaVu Sans', 'Liberation Sans', 'Bitstream Vera Sans', sans-serif; text-anchor: middle; fill: #262626" x="767.112723" y="243.117812" transform="rotate(-0 767.112723 243.117812)">500</text>
     </g>
    </g>
    <g id="xtick_10">
     <g id="line2d_10">
      <g>
       <use xlink:href="#m72e9c1193a" x="836.121256" y="228.96" style="fill: #262626; stroke: #262626; stroke-width: 0.8"/>
      </g>
     </g>
     <g id="text_10">
      <text style="font-size: 10px; font-family: 'Arial', 'DejaVu Sans', 'Liberation Sans', 'Bitstream Vera Sans', sans-serif; text-anchor: middle; fill: #262626" x="836.121256" y="243.117812" transform="rotate(-0 836.121256 243.117812)">1000</text>
     </g>
    </g>
    <g id="xtick_11">
     <g id="line2d_11">
      <defs>
       <path id="m553da67418" d="M 0 0 
L 0 2 
" style="stroke: #262626; stroke-width: 0.6"/>
      </defs>
      <g>
       <use xlink:href="#m553da67418" x="28.531651" y="228.96" style="fill: #262626; stroke: #262626; stroke-width: 0.6"/>
      </g>
     </g>
    </g>
    <g id="xtick_12">
     <g id="line2d_12">
      <g>
       <use xlink:href="#m553da67418" x="57.17278" y="228.96" style="fill: #262626; stroke: #262626; stroke-width: 0.6"/>
      </g>
     </g>
    </g>
    <g id="xtick_13">
     <g id="line2d_13">
      <g>
       <use xlink:href="#m553da67418" x="79.388566" y="228.96" style="fill: #262626; stroke: #262626; stroke-width: 0.6"/>
      </g>
     </g>
    </g>
    <g id="xtick_14">
     <g id="line2d_14">
      <g>
       <use xlink:href="#m553da67418" x="97.540184" y="228.96" style="fill: #262626; stroke: #262626; stroke-width: 0.6"/>
      </g>
     </g>
    </g>
    <g id="xtick_15">
     <g id="line2d_15">
      <g>
       <use xlink:href="#m553da67418" x="112.887159" y="228.96" style="fill: #262626; stroke: #262626; stroke-width: 0.6"/>
      </g>
     </g>
    </g>
    <g id="xtick_16">
     <g id="line2d_16">
      <g>
       <use xlink:href="#m553da67418" x="126.181313" y="228.96" style="fill: #262626; stroke: #262626; stroke-width: 0.6"/>
      </g>
     </g>
    </g>
    <g id="xtick_17">
     <g id="line2d_17">
      <g>
       <use xlink:href="#m553da67418" x="137.907588" y="228.96" style="fill: #262626; stroke: #262626; stroke-width: 0.6"/>
      </g>
     </g>
    </g>
    <g id="xtick_18">
     <g id="line2d_18">
      <g>
       <use xlink:href="#m553da67418" x="257.773037" y="228.96" style="fill: #262626; stroke: #262626; stroke-width: 0.6"/>
      </g>
     </g>
    </g>
    <g id="xtick_19">
     <g id="line2d_19">
      <g>
       <use xlink:href="#m553da67418" x="286.414166" y="228.96" style="fill: #262626; stroke: #262626; stroke-width: 0.6"/>
      </g>
     </g>
    </g>
    <g id="xtick_20">
     <g id="line2d_20">
      <g>
       <use xlink:href="#m553da67418" x="326.78157" y="228.96" style="fill: #262626; stroke: #262626; stroke-width: 0.6"/>
      </g>
     </g>
    </g>
    <g id="xtick_21">
     <g id="line2d_21">
      <g>
       <use xlink:href="#m553da67418" x="342.128545" y="228.96" style="fill: #262626; stroke: #262626; stroke-width: 0.6"/>
      </g>
     </g>
    </g>
    <g id="xtick_22">
     <g id="line2d_22">
      <g>
       <use xlink:href="#m553da67418" x="355.422699" y="228.96" style="fill: #262626; stroke: #262626; stroke-width: 0.6"/>
      </g>
     </g>
    </g>
    <g id="xtick_23">
     <g id="line2d_23">
      <g>
       <use xlink:href="#m553da67418" x="367.148974" y="228.96" style="fill: #262626; stroke: #262626; stroke-width: 0.6"/>
      </g>
     </g>
    </g>
    <g id="xtick_24">
     <g id="line2d_24">
      <g>
       <use xlink:href="#m553da67418" x="487.014422" y="228.96" style="fill: #262626; stroke: #262626; stroke-width: 0.6"/>
      </g>
     </g>
    </g>
    <g id="xtick_25">
     <g id="line2d_25">
      <g>
       <use xlink:href="#m553da67418" x="515.655552" y="228.96" style="fill: #262626; stroke: #262626; stroke-width: 0.6"/>
      </g>
     </g>
    </g>
    <g id="xtick_26">
     <g id="line2d_26">
      <g>
       <use xlink:href="#m553da67418" x="556.022956" y="228.96" style="fill: #262626; stroke: #262626; stroke-width: 0.6"/>
      </g>
     </g>
    </g>
    <g id="xtick_27">
     <g id="line2d_27">
      <g>
       <use xlink:href="#m553da67418" x="571.369931" y="228.96" style="fill: #262626; stroke: #262626; stroke-width: 0.6"/>
      </g>
     </g>
    </g>
    <g id="xtick_28">
     <g id="line2d_28">
      <g>
       <use xlink:href="#m553da67418" x="584.664085" y="228.96" style="fill: #262626; stroke: #262626; stroke-width: 0.6"/>
      </g>
     </g>
    </g>
    <g id="xtick_29">
     <g id="line2d_29">
      <g>
       <use xlink:href="#m553da67418" x="596.39036" y="228.96" style="fill: #262626; stroke: #262626; stroke-width: 0.6"/>
      </g>
     </g>
    </g>
    <g id="xtick_30">
     <g id="line2d_30">
      <g>
       <use xlink:href="#m553da67418" x="716.255808" y="228.96" style="fill: #262626; stroke: #262626; stroke-width: 0.6"/>
      </g>
     </g>
    </g>
    <g id="xtick_31">
     <g id="line2d_31">
      <g>
       <use xlink:href="#m553da67418" x="744.896937" y="228.96" style="fill: #262626; stroke: #262626; stroke-width: 0.6"/>
      </g>
     </g>
    </g>
    <g id="xtick_32">
     <g id="line2d_32">
      <g>
       <use xlink:href="#m553da67418" x="785.264342" y="228.96" style="fill: #262626; stroke: #262626; stroke-width: 0.6"/>
      </g>
     </g>
    </g>
    <g id="xtick_33">
     <g id="line2d_33">
      <g>
       <use xlink:href="#m553da67418" x="800.611317" y="228.96" style="fill: #262626; stroke: #262626; stroke-width: 0.6"/>
      </g>
     </g>
    </g>
    <g id="xtick_34">
     <g id="line2d_34">
      <g>
       <use xlink:href="#m553da67418" x="813.905471" y="228.96" style="fill: #262626; stroke: #262626; stroke-width: 0.6"/>
      </g>
     </g>
    </g>
    <g id="xtick_35">
     <g id="line2d_35">
      <g>
       <use xlink:href="#m553da67418" x="825.631746" y="228.96" style="fill: #262626; stroke: #262626; stroke-width: 0.6"/>
      </g>
     </g>
    </g>
    <g id="text_11">
     <text style="font-size: 10px; font-family: 'Arial', 'DejaVu Sans', 'Liberation Sans', 'Bitstream Vera Sans', sans-serif; text-anchor: middle; fill: #262626" x="425.7" y="256.385" transform="rotate(-0 425.7 256.385)">Income or consumption (day)</text>
    </g>
   </g>
   <g id="matplotlib.axis_2"/>
   <g id="FillBetweenPolyCollection_1">
    <defs>
     <path id="mf3bd2c7ce7" d="M 45.245455 -36.782378 
L 45.245455 -36.729688 
L 47.52183 -36.729688 
L 49.798205 -36.729688 
L 52.07458 -36.729688 
L 54.350955 -36.729688 
L 56.62733 -36.729688 
L 58.903705 -36.729688 
L 61.18008 -36.729688 
L 63.456455 -36.729688 
L 65.73283 -36.729688 
L 68.009205 -36.729688 
L 70.28558 -36.729688 
L 72.561955 -36.729688 
L 74.83833 -36.729688 
L 77.114705 -36.729688 
L 79.39108 -36.729688 
L 81.667455 -36.729688 
L 83.943831 -36.729688 
L 86.220206 -36.729688 
L 88.496581 -36.729688 
L 90.772956 -36.729688 
L 93.049331 -36.729688 
L 95.325706 -36.729688 
L 97.602081 -36.729688 
L 99.878456 -36.729688 
L 102.154831 -36.729688 
L 104.431206 -36.729688 
L 106.707581 -36.729688 
L 108.983956 -36.729688 
L 111.260331 -36.729688 
L 113.536706 -36.729688 
L 115.813081 -36.729688 
L 118.089456 -36.729688 
L 120.365831 -36.729688 
L 122.642206 -36.729688 
L 124.918582 -36.729688 
L 127.194957 -36.729688 
L 129.471332 -36.729688 
L 131.747707 -36.729688 
L 134.024082 -36.729688 
L 136.300457 -36.729688 
L 138.576832 -36.729688 
L 140.853207 -36.729688 
L 143.129582 -36.729688 
L 145.405957 -36.729688 
L 147.682332 -36.729688 
L 149.958707 -36.729688 
L 152.235082 -36.729688 
L 154.511457 -36.729688 
L 156.787832 -36.729688 
L 159.064207 -36.729688 
L 161.340582 -36.729688 
L 163.616958 -36.729688 
L 165.893333 -36.729688 
L 168.169708 -36.729688 
L 170.446083 -36.729688 
L 172.722458 -36.729688 
L 174.998833 -36.729688 
L 177.275208 -36.729688 
L 179.551583 -36.729688 
L 181.827958 -36.729688 
L 184.104333 -36.729688 
L 186.380708 -36.729688 
L 188.657083 -36.729688 
L 190.933458 -36.729688 
L 193.209833 -36.729688 
L 195.486208 -36.729688 
L 197.762583 -36.729688 
L 200.038958 -36.729688 
L 202.315334 -36.729688 
L 204.591709 -36.729688 
L 206.868084 -36.729688 
L 209.144459 -36.729688 
L 211.420834 -36.729688 
L 213.697209 -36.729688 
L 215.973584 -36.729688 
L 218.249959 -36.729688 
L 220.526334 -36.729688 
L 222.802709 -36.729688 
L 225.079084 -36.729688 
L 227.355459 -36.729688 
L 229.631834 -36.729688 
L 231.908209 -36.729688 
L 234.184584 -36.729688 
L 236.460959 -36.729688 
L 238.737334 -36.729688 
L 241.013709 -36.729688 
L 243.290085 -36.729688 
L 245.56646 -36.729688 
L 247.842835 -36.729688 
L 250.11921 -36.729688 
L 252.395585 -36.729688 
L 254.67196 -36.729688 
L 256.948335 -36.729688 
L 259.22471 -36.729688 
L 261.501085 -36.729688 
L 263.77746 -36.729688 
L 266.053835 -36.729688 
L 268.33021 -36.729688 
L 270.606585 -36.729688 
L 272.88296 -36.729688 
L 275.159335 -36.729688 
L 277.43571 -36.729688 
L 279.712085 -36.729688 
L 281.988461 -36.729688 
L 284.264836 -36.729688 
L 286.541211 -36.729688 
L 288.817586 -36.729688 
L 291.093961 -36.729688 
L 293.370336 -36.729688 
L 295.646711 -36.729688 
L 297.923086 -36.729688 
L 300.199461 -36.729688 
L 302.475836 -36.729688 
L 304.752211 -36.729688 
L 307.028586 -36.729688 
L 309.304961 -36.729688 
L 311.581336 -36.729688 
L 313.857711 -36.729688 
L 316.134086 -36.729688 
L 318.410461 -36.729688 
L 320.686836 -36.729688 
L 322.963212 -36.729688 
L 325.239587 -36.729688 
L 327.515962 -36.729688 
L 329.792337 -36.729688 
L 332.068712 -36.729688 
L 334.345087 -36.729688 
L 336.621462 -36.729688 
L 338.897837 -36.729688 
L 341.174212 -36.729688 
L 343.450587 -36.729688 
L 345.726962 -36.729688 
L 348.003337 -36.729688 
L 350.279712 -36.729688 
L 352.556087 -36.729688 
L 354.832462 -36.729688 
L 357.108837 -36.729688 
L 359.385212 -36.729688 
L 361.661588 -36.729688 
L 363.937963 -36.729688 
L 366.214338 -36.729688 
L 368.490713 -36.729688 
L 370.767088 -36.729688 
L 373.043463 -36.729688 
L 375.319838 -36.729688 
L 377.596213 -36.729688 
L 379.872588 -36.729688 
L 382.148963 -36.729688 
L 384.425338 -36.729688 
L 386.701713 -36.729688 
L 388.978088 -36.729688 
L 391.254463 -36.729688 
L 393.530838 -36.729688 
L 395.807213 -36.729688 
L 398.083588 -36.729688 
L 400.359963 -36.729688 
L 402.636339 -36.729688 
L 404.912714 -36.729688 
L 407.189089 -36.729688 
L 409.465464 -36.729688 
L 411.741839 -36.729688 
L 414.018214 -36.729688 
L 416.294589 -36.729688 
L 418.570964 -36.729688 
L 420.847339 -36.729688 
L 423.123714 -36.729688 
L 425.400089 -36.729688 
L 427.676464 -36.729688 
L 429.952839 -36.729688 
L 432.229214 -36.729688 
L 434.505589 -36.729688 
L 436.781964 -36.729688 
L 439.058339 -36.729688 
L 441.334715 -36.729688 
L 443.61109 -36.729688 
L 445.887465 -36.729688 
L 448.16384 -36.729688 
L 450.440215 -36.729688 
L 452.71659 -36.729688 
L 454.992965 -36.729688 
L 457.26934 -36.729688 
L 459.545715 -36.729688 
L 461.82209 -36.729688 
L 464.098465 -36.729688 
L 466.37484 -36.729688 
L 468.651215 -36.729688 
L 470.92759 -36.729688 
L 473.203965 -36.729688 
L 475.48034 -36.729688 
L 477.756715 -36.729688 
L 480.033091 -36.729688 
L 482.309466 -36.729688 
L 484.585841 -36.729688 
L 486.862216 -36.729688 
L 489.138591 -36.729688 
L 491.414966 -36.729688 
L 493.691341 -36.729688 
L 495.967716 -36.729688 
L 498.244091 -36.729688 
L 498.244091 -36.780895 
L 498.244091 -36.780895 
L 495.967716 -36.799442 
L 493.691341 -36.823667 
L 491.414966 -36.854921 
L 489.138591 -36.894744 
L 486.862216 -36.944851 
L 484.585841 -37.007103 
L 482.309466 -37.083456 
L 480.033091 -37.175894 
L 477.756715 -37.286337 
L 475.48034 -37.416531 
L 473.203965 -37.567922 
L 470.92759 -37.74152 
L 468.651215 -37.937751 
L 466.37484 -38.156326 
L 464.098465 -38.396116 
L 461.82209 -38.655065 
L 459.545715 -38.930137 
L 457.26934 -39.217323 
L 454.992965 -39.511699 
L 452.71659 -39.807559 
L 450.440215 -40.098608 
L 448.16384 -40.378222 
L 445.887465 -40.639749 
L 443.61109 -40.876858 
L 441.334715 -41.083891 
L 439.058339 -41.256214 
L 436.781964 -41.390535 
L 434.505589 -41.485161 
L 432.229214 -41.540189 
L 429.952839 -41.55759 
L 427.676464 -41.541204 
L 425.400089 -41.496621 
L 423.123714 -41.430965 
L 420.847339 -41.352588 
L 418.570964 -41.270702 
L 416.294589 -41.194955 
L 414.018214 -41.134999 
L 411.741839 -41.100062 
L 409.465464 -41.098564 
L 407.189089 -41.137791 
L 404.912714 -41.223647 
L 402.636339 -41.360509 
L 400.359963 -41.551175 
L 398.083588 -41.796914 
L 395.807213 -42.097609 
L 393.530838 -42.451969 
L 391.254463 -42.85781 
L 388.978088 -43.312356 
L 386.701713 -43.812566 
L 384.425338 -44.355431 
L 382.148963 -44.938247 
L 379.872588 -45.558832 
L 377.596213 -46.21568 
L 375.319838 -46.908037 
L 373.043463 -47.635919 
L 370.767088 -48.400056 
L 368.490713 -49.20179 
L 366.214338 -50.042933 
L 363.937963 -50.925605 
L 361.661588 -51.852074 
L 359.385212 -52.824602 
L 357.108837 -53.845332 
L 354.832462 -54.916199 
L 352.556087 -56.03889 
L 350.279712 -57.21485 
L 348.003337 -58.445317 
L 345.726962 -59.731403 
L 343.450587 -61.074182 
L 341.174212 -62.474799 
L 338.897837 -63.934578 
L 336.621462 -65.455105 
L 334.345087 -67.038308 
L 332.068712 -68.686495 
L 329.792337 -70.402361 
L 327.515962 -72.188969 
L 325.239587 -74.049688 
L 322.963212 -75.988111 
L 320.686836 -78.007947 
L 318.410461 -80.112908 
L 316.134086 -82.306581 
L 313.857711 -84.592325 
L 311.581336 -86.973168 
L 309.304961 -89.451746 
L 307.028586 -92.030261 
L 304.752211 -94.710483 
L 302.475836 -97.493785 
L 300.199461 -100.381207 
L 297.923086 -103.373544 
L 295.646711 -106.471443 
L 293.370336 -109.675506 
L 291.093961 -112.986358 
L 288.817586 -116.404696 
L 286.541211 -119.931281 
L 284.264836 -123.566864 
L 281.988461 -127.312048 
L 279.712085 -131.167075 
L 277.43571 -135.131537 
L 275.159335 -139.204029 
L 272.88296 -143.381755 
L 270.606585 -147.660112 
L 268.33021 -152.032261 
L 266.053835 -156.488742 
L 263.77746 -161.017132 
L 261.501085 -165.601796 
L 259.22471 -170.223742 
L 256.948335 -174.86061 
L 254.67196 -179.486797 
L 252.395585 -184.073738 
L 250.11921 -188.59032 
L 247.842835 -193.003434 
L 245.56646 -197.278636 
L 243.290085 -201.380879 
L 241.013709 -205.275302 
L 238.737334 -208.928015 
L 236.460959 -212.306861 
L 234.184584 -215.382097 
L 231.908209 -218.126988 
L 229.631834 -220.518257 
L 227.355459 -222.536405 
L 225.079084 -224.165874 
L 222.802709 -225.395066 
L 220.526334 -226.216225 
L 218.249959 -226.625217 
L 215.973584 -226.621218 
L 213.697209 -226.206353 
L 211.420834 -225.385317 
L 209.144459 -224.165004 
L 206.868084 -222.554164 
L 204.591709 -220.563127 
L 202.315334 -218.203576 
L 200.038958 -215.488401 
L 197.762583 -212.431608 
L 195.486208 -209.048293 
L 193.209833 -205.354652 
L 190.933458 -201.368021 
L 188.657083 -197.10692 
L 186.380708 -192.591099 
L 184.104333 -187.84156 
L 181.827958 -182.880545 
L 179.551583 -177.731492 
L 177.275208 -172.418959 
L 174.998833 -166.968496 
L 172.722458 -161.406493 
L 170.446083 -155.759997 
L 168.169708 -150.056502 
L 165.893333 -144.323726 
L 163.616958 -138.589371 
L 161.340582 -132.880874 
L 159.064207 -127.225158 
L 156.787832 -121.648373 
L 154.511457 -116.175632 
L 152.235082 -110.83075 
L 149.958707 -105.635982 
L 147.682332 -100.611756 
L 145.405957 -95.776417 
L 143.129582 -91.14599 
L 140.853207 -86.733952 
L 138.576832 -82.551048 
L 136.300457 -78.605143 
L 134.024082 -74.901136 
L 131.747707 -71.440934 
L 129.471332 -68.223504 
L 127.194957 -65.24501 
L 124.918582 -62.49902 
L 122.642206 -59.976803 
L 120.365831 -57.667685 
L 118.089456 -55.55946 
L 115.813081 -53.638835 
L 113.536706 -51.891887 
L 111.260331 -50.304509 
L 108.983956 -48.862822 
L 106.707581 -47.553533 
L 104.431206 -46.36422 
L 102.154831 -45.283542 
L 99.878456 -44.301363 
L 97.602081 -43.408784 
L 95.325706 -42.598114 
L 93.049331 -41.86277 
L 90.772956 -41.197131 
L 88.496581 -40.596364 
L 86.220206 -40.056244 
L 83.943831 -39.57297 
L 81.667455 -39.143008 
L 79.39108 -38.76296 
L 77.114705 -38.429462 
L 74.83833 -38.139129 
L 72.561955 -37.888523 
L 70.28558 -37.674159 
L 68.009205 -37.49253 
L 65.73283 -37.340148 
L 63.456455 -37.2136 
L 61.18008 -37.109601 
L 58.903705 -37.025038 
L 56.62733 -36.957023 
L 54.350955 -36.902914 
L 52.07458 -36.860346 
L 49.798205 -36.827228 
L 47.52183 -36.801753 
L 45.245455 -36.782378 
z
" style="stroke: #dd8452"/>
    </defs>
    <g>
     <use xlink:href="#mf3bd2c7ce7" x="0" y="265.689687" style="fill: #dd8452; fill-opacity: 0.25; stroke: #dd8452"/>
    </g>
   </g>
   <g id="FillBetweenPolyCollection_2">
    <defs>
     <path id="m00d1b0a8ce" d="M 319.902773 -36.78375 
L 319.902773 -36.729688 
L 322.346249 -36.729688 
L 324.789726 -36.729688 
L 327.233202 -36.729688 
L 329.676678 -36.729688 
L 332.120154 -36.729688 
L 334.563631 -36.729688 
L 337.007107 -36.729688 
L 339.450583 -36.729688 
L 341.894059 -36.729688 
L 344.337536 -36.729688 
L 346.781012 -36.729688 
L 349.224488 -36.729688 
L 351.667964 -36.729688 
L 354.111441 -36.729688 
L 356.554917 -36.729688 
L 358.998393 -36.729688 
L 361.441869 -36.729688 
L 363.885346 -36.729688 
L 366.328822 -36.729688 
L 368.772298 -36.729688 
L 371.215774 -36.729688 
L 373.659251 -36.729688 
L 376.102727 -36.729688 
L 378.546203 -36.729688 
L 380.989679 -36.729688 
L 383.433155 -36.729688 
L 385.876632 -36.729688 
L 388.320108 -36.729688 
L 390.763584 -36.729688 
L 393.20706 -36.729688 
L 395.650537 -36.729688 
L 398.094013 -36.729688 
L 400.537489 -36.729688 
L 402.980965 -36.729688 
L 405.424442 -36.729688 
L 407.867918 -36.729688 
L 410.311394 -36.729688 
L 412.75487 -36.729688 
L 415.198347 -36.729688 
L 417.641823 -36.729688 
L 420.085299 -36.729688 
L 422.528775 -36.729688 
L 424.972252 -36.729688 
L 427.415728 -36.729688 
L 429.859204 -36.729688 
L 432.30268 -36.729688 
L 434.746157 -36.729688 
L 437.189633 -36.729688 
L 439.633109 -36.729688 
L 442.076585 -36.729688 
L 444.520062 -36.729688 
L 446.963538 -36.729688 
L 449.407014 -36.729688 
L 451.85049 -36.729688 
L 454.293967 -36.729688 
L 456.737443 -36.729688 
L 459.180919 -36.729688 
L 461.624395 -36.729688 
L 464.067872 -36.729688 
L 466.511348 -36.729688 
L 468.954824 -36.729688 
L 471.3983 -36.729688 
L 473.841776 -36.729688 
L 476.285253 -36.729688 
L 478.728729 -36.729688 
L 481.172205 -36.729688 
L 483.615681 -36.729688 
L 486.059158 -36.729688 
L 488.502634 -36.729688 
L 490.94611 -36.729688 
L 493.389586 -36.729688 
L 495.833063 -36.729688 
L 498.276539 -36.729688 
L 500.720015 -36.729688 
L 503.163491 -36.729688 
L 505.606968 -36.729688 
L 508.050444 -36.729688 
L 510.49392 -36.729688 
L 512.937396 -36.729688 
L 515.380873 -36.729688 
L 517.824349 -36.729688 
L 520.267825 -36.729688 
L 522.711301 -36.729688 
L 525.154778 -36.729688 
L 527.598254 -36.729688 
L 530.04173 -36.729688 
L 532.485206 -36.729688 
L 534.928683 -36.729688 
L 537.372159 -36.729688 
L 539.815635 -36.729688 
L 542.259111 -36.729688 
L 544.702588 -36.729688 
L 547.146064 -36.729688 
L 549.58954 -36.729688 
L 552.033016 -36.729688 
L 554.476492 -36.729688 
L 556.919969 -36.729688 
L 559.363445 -36.729688 
L 561.806921 -36.729688 
L 564.250397 -36.729688 
L 566.693874 -36.729688 
L 569.13735 -36.729688 
L 571.580826 -36.729688 
L 574.024302 -36.729688 
L 576.467779 -36.729688 
L 578.911255 -36.729688 
L 581.354731 -36.729688 
L 583.798207 -36.729688 
L 586.241684 -36.729688 
L 588.68516 -36.729688 
L 591.128636 -36.729688 
L 593.572112 -36.729688 
L 596.015589 -36.729688 
L 598.459065 -36.729688 
L 600.902541 -36.729688 
L 603.346017 -36.729688 
L 605.789494 -36.729688 
L 608.23297 -36.729688 
L 610.676446 -36.729688 
L 613.119922 -36.729688 
L 615.563399 -36.729688 
L 618.006875 -36.729688 
L 620.450351 -36.729688 
L 622.893827 -36.729688 
L 625.337304 -36.729688 
L 627.78078 -36.729688 
L 630.224256 -36.729688 
L 632.667732 -36.729688 
L 635.111208 -36.729688 
L 637.554685 -36.729688 
L 639.998161 -36.729688 
L 642.441637 -36.729688 
L 644.885113 -36.729688 
L 647.32859 -36.729688 
L 649.772066 -36.729688 
L 652.215542 -36.729688 
L 654.659018 -36.729688 
L 657.102495 -36.729688 
L 659.545971 -36.729688 
L 661.989447 -36.729688 
L 664.432923 -36.729688 
L 666.8764 -36.729688 
L 669.319876 -36.729688 
L 671.763352 -36.729688 
L 674.206828 -36.729688 
L 676.650305 -36.729688 
L 679.093781 -36.729688 
L 681.537257 -36.729688 
L 683.980733 -36.729688 
L 686.42421 -36.729688 
L 688.867686 -36.729688 
L 691.311162 -36.729688 
L 693.754638 -36.729688 
L 696.198115 -36.729688 
L 698.641591 -36.729688 
L 701.085067 -36.729688 
L 703.528543 -36.729688 
L 705.97202 -36.729688 
L 708.415496 -36.729688 
L 710.858972 -36.729688 
L 713.302448 -36.729688 
L 715.745924 -36.729688 
L 718.189401 -36.729688 
L 720.632877 -36.729688 
L 723.076353 -36.729688 
L 725.519829 -36.729688 
L 727.963306 -36.729688 
L 730.406782 -36.729688 
L 732.850258 -36.729688 
L 735.293734 -36.729688 
L 737.737211 -36.729688 
L 740.180687 -36.729688 
L 742.624163 -36.729688 
L 745.067639 -36.729688 
L 747.511116 -36.729688 
L 749.954592 -36.729688 
L 752.398068 -36.729688 
L 754.841544 -36.729688 
L 757.285021 -36.729688 
L 759.728497 -36.729688 
L 762.171973 -36.729688 
L 764.615449 -36.729688 
L 767.058926 -36.729688 
L 769.502402 -36.729688 
L 771.945878 -36.729688 
L 774.389354 -36.729688 
L 776.832831 -36.729688 
L 779.276307 -36.729688 
L 781.719783 -36.729688 
L 784.163259 -36.729688 
L 786.606736 -36.729688 
L 789.050212 -36.729688 
L 791.493688 -36.729688 
L 793.937164 -36.729688 
L 796.38064 -36.729688 
L 798.824117 -36.729688 
L 801.267593 -36.729688 
L 803.711069 -36.729688 
L 806.154545 -36.729688 
L 806.154545 -36.7846 
L 806.154545 -36.7846 
L 803.711069 -36.808101 
L 801.267593 -36.840028 
L 798.824117 -36.882692 
L 796.38064 -36.938761 
L 793.937164 -37.011216 
L 791.493688 -37.103257 
L 789.050212 -37.218168 
L 786.606736 -37.35912 
L 784.163259 -37.528928 
L 781.719783 -37.729762 
L 779.276307 -37.96283 
L 776.832831 -38.228064 
L 774.389354 -38.523823 
L 771.945878 -38.846665 
L 769.502402 -39.191211 
L 767.058926 -39.550141 
L 764.615449 -39.914337 
L 762.171973 -40.273189 
L 759.728497 -40.615067 
L 757.285021 -40.927912 
L 754.841544 -41.199946 
L 752.398068 -41.420401 
L 749.954592 -41.580252 
L 747.511116 -41.67285 
L 745.067639 -41.69442 
L 742.624163 -41.644373 
L 740.180687 -41.525397 
L 737.737211 -41.34333 
L 735.293734 -41.106829 
L 732.850258 -40.826866 
L 730.406782 -40.516116 
L 727.963306 -40.188285 
L 725.519829 -39.857446 
L 723.076353 -39.537436 
L 720.632877 -39.24135 
L 718.189401 -38.981165 
L 715.745924 -38.767496 
L 713.302448 -38.609474 
L 710.858972 -38.514725 
L 708.415496 -38.489426 
L 705.97202 -38.538402 
L 703.528543 -38.665239 
L 701.085067 -38.872404 
L 698.641591 -39.161344 
L 696.198115 -39.532597 
L 693.754638 -39.985895 
L 691.311162 -40.520298 
L 688.867686 -41.134373 
L 686.42421 -41.826419 
L 683.980733 -42.594759 
L 681.537257 -43.438081 
L 679.093781 -44.355822 
L 676.650305 -45.34855 
L 674.206828 -46.418325 
L 671.763352 -47.568997 
L 669.319876 -48.806391 
L 666.8764 -50.138373 
L 664.432923 -51.574765 
L 661.989447 -53.127114 
L 659.545971 -54.808328 
L 657.102495 -56.632202 
L 654.659018 -58.612883 
L 652.215542 -60.764291 
L 649.772066 -63.099571 
L 647.32859 -65.630582 
L 644.885113 -68.367467 
L 642.441637 -71.318328 
L 639.998161 -74.488999 
L 637.554685 -77.882928 
L 635.111208 -81.501155 
L 632.667732 -85.342386 
L 630.224256 -89.40313 
L 627.78078 -93.677911 
L 625.337304 -98.159526 
L 622.893827 -102.839346 
L 620.450351 -107.707638 
L 618.006875 -112.753899 
L 615.563399 -117.967171 
L 613.119922 -123.336306 
L 610.676446 -128.850151 
L 608.23297 -134.497612 
L 605.789494 -140.267564 
L 603.346017 -146.148598 
L 600.902541 -152.12858 
L 598.459065 -158.194054 
L 596.015589 -164.329521 
L 593.572112 -170.516654 
L 591.128636 -176.733534 
L 588.68516 -182.95398 
L 586.241684 -189.14707 
L 583.798207 -195.276919 
L 581.354731 -201.302762 
L 578.911255 -207.179371 
L 576.467779 -212.857776 
L 574.024302 -218.286267 
L 571.580826 -223.411585 
L 569.13735 -228.180229 
L 566.693874 -232.539776 
L 564.250397 -236.440137 
L 561.806921 -239.834672 
L 559.363445 -242.681113 
L 556.919969 -244.942306 
L 554.476492 -246.586738 
L 552.033016 -247.588928 
L 549.58954 -247.929688 
L 547.146064 -247.596338 
L 544.702588 -246.5829 
L 542.259111 -244.890298 
L 539.815635 -242.526597 
L 537.372159 -239.507245 
L 534.928683 -235.855287 
L 532.485206 -231.601512 
L 530.04173 -226.784456 
L 527.598254 -221.450203 
L 525.154778 -215.651942 
L 522.711301 -209.449223 
L 520.267825 -202.906916 
L 517.824349 -196.093884 
L 515.380873 -189.081407 
L 512.937396 -181.941422 
L 510.49392 -174.744678 
L 508.050444 -167.558885 
L 505.606968 -160.446976 
L 503.163491 -153.465572 
L 500.720015 -146.663736 
L 498.276539 -140.082091 
L 495.833063 -133.752329 
L 493.389586 -127.697141 
L 490.94611 -121.930549 
L 488.502634 -116.458595 
L 486.059158 -111.280338 
L 483.615681 -106.389057 
L 481.172205 -101.773588 
L 478.728729 -97.419687 
L 476.285253 -93.311337 
L 473.841776 -89.431905 
L 471.3983 -85.765116 
L 468.954824 -82.29577 
L 466.511348 -79.010224 
L 464.067872 -75.896623 
L 461.624395 -72.944928 
L 459.180919 -70.146778 
L 456.737443 -67.495256 
L 454.293967 -64.984605 
L 451.85049 -62.609952 
L 449.407014 -60.367093 
L 446.963538 -58.252346 
L 444.520062 -56.262498 
L 442.076585 -54.394824 
L 439.633109 -52.647171 
L 437.189633 -51.018052 
L 434.746157 -49.506729 
L 432.30268 -48.113247 
L 429.859204 -46.838379 
L 427.415728 -45.683481 
L 424.972252 -44.650229 
L 422.528775 -43.740275 
L 420.085299 -42.954812 
L 417.641823 -42.294109 
L 415.198347 -41.757024 
L 412.75487 -41.34057 
L 410.311394 -41.039543 
L 407.867918 -40.84628 
L 405.424442 -40.750555 
L 402.980965 -40.73965 
L 400.537489 -40.798611 
L 398.094013 -40.910677 
L 395.650537 -41.05788 
L 393.20706 -41.221767 
L 390.763584 -41.384215 
L 388.320108 -41.528266 
L 385.876632 -41.638937 
L 383.433155 -41.703925 
L 380.989679 -41.714159 
L 378.546203 -41.664151 
L 376.102727 -41.552109 
L 373.659251 -41.379818 
L 371.215774 -41.152286 
L 368.772298 -40.8772 
L 366.328822 -40.564244 
L 363.885346 -40.224336 
L 361.441869 -39.868841 
L 358.998393 -39.508854 
L 356.554917 -39.154565 
L 354.111441 -38.814776 
L 351.667964 -38.496574 
L 349.224488 -38.205176 
L 346.781012 -37.943917 
L 344.337536 -37.714379 
L 341.894059 -37.51661 
L 339.450583 -37.349405 
L 337.007107 -37.210621 
L 334.563631 -37.097482 
L 332.120154 -37.006861 
L 329.676678 -36.935526 
L 327.233202 -36.880324 
L 324.789726 -36.838319 
L 322.346249 -36.806887 
L 319.902773 -36.78375 
z
" style="stroke: #4c72b0"/>
    </defs>
    <g>
     <use xlink:href="#m00d1b0a8ce" x="0" y="265.689687" style="fill: #4c72b0; fill-opacity: 0.25; stroke: #4c72b0"/>
    </g>
   </g>
   <g id="line2d_36">
    <path d="M 224.605752 228.96 
L 224.605752 7.2 
" style="fill: none; stroke-dasharray: 2.96,1.28; stroke-dashoffset: 0; stroke: #d3d3d3; stroke-width: 0.8"/>
   </g>
   <g id="line2d_37">
    <path d="M 442.502811 228.96 
L 442.502811 7.2 
" style="fill: none; stroke-dasharray: 2.96,1.28; stroke-dashoffset: 0; stroke: #d3d3d3; stroke-width: 0.8"/>
   </g>
   <g id="line2d_38">
    <path d="M 358.486272 228.96 
L 358.486272 7.2 
" style="fill: none; stroke-dasharray: 2.96,1.28; stroke-dashoffset: 0; stroke: #d3d3d3; stroke-width: 0.8"/>
   </g>
   <g id="line2d_39">
    <path d="M 7.2 228.96 
L 844.2 228.96 
" style="fill: none; stroke: #808080; stroke-width: 0.5; stroke-linecap: round"/>
   </g>
   <g id="text_12">
    <text style="font-size: 8px; font-family: 'Arial', 'DejaVu Sans', 'Liberation Sans', 'Bitstream Vera Sans', sans-serif; fill: #808080" transform="translate(230.859502 124.59635) rotate(-90)">International Poverty Line: $2.15</text>
   </g>
   <g id="text_13">
    <text style="font-size: 8px; font-family: 'Arial', 'DejaVu Sans', 'Liberation Sans', 'Bitstream Vera Sans', sans-serif; fill: #808080" transform="translate(448.229061 81.31135) rotate(-90)">World mean: $19.18</text>
   </g>
   <g id="text_14">
    <text style="font-size: 8px; font-family: 'Arial', 'DejaVu Sans', 'Liberation Sans', 'Bitstream Vera Sans', sans-serif; fill: #808080" transform="translate(364.212522 83.08885) rotate(-90)">World median: $8.25</text>
   </g>
   <g id="text_15">
    <text style="font-size: 10px; font-family: 'Arial', 'DejaVu Sans', 'Liberation Sans', 'Bitstream Vera Sans', sans-serif; text-anchor: middle" x="551.08877" y="226.855312" transform="rotate(-0 551.08877 226.855312)">Denmark (2021)</text>
   </g>
   <g id="text_16">
    <text style="font-size: 10px; font-family: 'Arial', 'DejaVu Sans', 'Liberation Sans', 'Bitstream Vera Sans', sans-serif; text-anchor: middle" x="223.791374" y="226.855312" transform="rotate(-0 223.791374 226.855312)">Niger (2021)</text>
   </g>
  </g>
 </g>
</svg>
