<?xml version="1.0" encoding="utf-8" standalone="no"?>
<!DOCTYPE svg PUBLIC "-//W3C//DTD SVG 1.1//EN"
  "http://www.w3.org/Graphics/SVG/1.1/DTD/svg11.dtd">
<svg xmlns:xlink="http://www.w3.org/1999/xlink" width="851.4pt" height="282.943437pt" viewBox="0 0 851.4 282.943437" xmlns="http://www.w3.org/2000/svg" version="1.1">
 <metadata>
  <rdf:RDF xmlns:dc="http://purl.org/dc/elements/1.1/" xmlns:cc="http://creativecommons.org/ns#" xmlns:rdf="http://www.w3.org/1999/02/22-rdf-syntax-ns#">
   <cc:Work>
    <dc:type rdf:resource="http://purl.org/dc/dcmitype/StillImage"/>
    <dc:date>2026-05-29T12:13:56.728928</dc:date>
    <dc:format>image/svg+xml</dc:format>
    <dc:creator>
     <cc:Agent>
      <dc:title>Matplotlib v3.10.9, https://matplotlib.org/</dc:title>
     </cc:Agent>
    </dc:creator>
   </cc:Work>
  </rdf:RDF>
 </metadata>
 <defs>
  <style type="text/css">*{stroke-linejoin: round; stroke-linecap: butt}</style>
 </defs>
 <g id="figure_1">
  <g id="patch_1">
   <path d="M 0 282.943437 
L 851.4 282.943437 
L 851.4 0 
L 0 0 
z
" style="fill: #ffffff"/>
  </g>
  <g id="axes_1">
   <g id="patch_2">
    <path d="M 7.2 246.21375 
L 844.2 246.21375 
L 844.2 24.45375 
L 7.2 24.45375 
z
" style="fill: #ffffff"/>
   </g>
   <g id="matplotlib.axis_1">
    <g id="xtick_1">
     <g id="line2d_1">
      <defs>
       <path id="m701852fc79" d="M 0 0 
L 0 3.5 
" style="stroke: #262626; stroke-width: 0.8"/>
      </defs>
      <g>
       <use xlink:href="#m701852fc79" x="25.96069" y="246.21375" style="fill: #262626; stroke: #262626; stroke-width: 0.8"/>
      </g>
     </g>
     <g id="text_1">
      <text style="font-size: 10px; font-family: 'Arial', 'DejaVu Sans', 'Liberation Sans', 'Bitstream Vera Sans', sans-serif; text-anchor: middle; fill: #262626" x="25.96069" y="260.371562" transform="rotate(-0 25.96069 260.371562)">$20</text>
     </g>
    </g>
    <g id="xtick_2">
     <g id="line2d_2">
      <g>
       <use xlink:href="#m701852fc79" x="140.628669" y="246.21375" style="fill: #262626; stroke: #262626; stroke-width: 0.8"/>
      </g>
     </g>
     <g id="text_2">
      <text style="font-size: 10px; font-family: 'Arial', 'DejaVu Sans', 'Liberation Sans', 'Bitstream Vera Sans', sans-serif; text-anchor: middle; fill: #262626" x="140.628669" y="260.371562" transform="rotate(-0 140.628669 260.371562)">$50</text>
     </g>
    </g>
    <g id="xtick_3">
     <g id="line2d_3">
      <g>
       <use xlink:href="#m701852fc79" x="227.371646" y="246.21375" style="fill: #262626; stroke: #262626; stroke-width: 0.8"/>
      </g>
     </g>
     <g id="text_3">
      <text style="font-size: 10px; font-family: 'Arial', 'DejaVu Sans', 'Liberation Sans', 'Bitstream Vera Sans', sans-serif; text-anchor: middle; fill: #262626" x="227.371646" y="260.371562" transform="rotate(-0 227.371646 260.371562)">$100</text>
     </g>
    </g>
    <g id="xtick_4">
     <g id="line2d_4">
      <g>
       <use xlink:href="#m701852fc79" x="314.114624" y="246.21375" style="fill: #262626; stroke: #262626; stroke-width: 0.8"/>
      </g>
     </g>
     <g id="text_4">
      <text style="font-size: 10px; font-family: 'Arial', 'DejaVu Sans', 'Liberation Sans', 'Bitstream Vera Sans', sans-serif; text-anchor: middle; fill: #262626" x="314.114624" y="260.371562" transform="rotate(-0 314.114624 260.371562)">$200</text>
     </g>
    </g>
    <g id="xtick_5">
     <g id="line2d_5">
      <g>
       <use xlink:href="#m701852fc79" x="428.782603" y="246.21375" style="fill: #262626; stroke: #262626; stroke-width: 0.8"/>
      </g>
     </g>
     <g id="text_5">
      <text style="font-size: 10px; font-family: 'Arial', 'DejaVu Sans', 'Liberation Sans', 'Bitstream Vera Sans', sans-serif; text-anchor: middle; fill: #262626" x="428.782603" y="260.371562" transform="rotate(-0 428.782603 260.371562)">$500</text>
     </g>
    </g>
    <g id="xtick_6">
     <g id="line2d_6">
      <g>
       <use xlink:href="#m701852fc79" x="515.525581" y="246.21375" style="fill: #262626; stroke: #262626; stroke-width: 0.8"/>
      </g>
     </g>
     <g id="text_6">
      <text style="font-size: 10px; font-family: 'Arial', 'DejaVu Sans', 'Liberation Sans', 'Bitstream Vera Sans', sans-serif; text-anchor: middle; fill: #262626" x="515.525581" y="260.371562" transform="rotate(-0 515.525581 260.371562)">$1000</text>
     </g>
    </g>
    <g id="xtick_7">
     <g id="line2d_7">
      <g>
       <use xlink:href="#m701852fc79" x="602.268558" y="246.21375" style="fill: #262626; stroke: #262626; stroke-width: 0.8"/>
      </g>
     </g>
     <g id="text_7">
      <text style="font-size: 10px; font-family: 'Arial', 'DejaVu Sans', 'Liberation Sans', 'Bitstream Vera Sans', sans-serif; text-anchor: middle; fill: #262626" x="602.268558" y="260.371562" transform="rotate(-0 602.268558 260.371562)">$2000</text>
     </g>
    </g>
    <g id="xtick_8">
     <g id="line2d_8">
      <g>
       <use xlink:href="#m701852fc79" x="716.936537" y="246.21375" style="fill: #262626; stroke: #262626; stroke-width: 0.8"/>
      </g>
     </g>
     <g id="text_8">
      <text style="font-size: 10px; font-family: 'Arial', 'DejaVu Sans', 'Liberation Sans', 'Bitstream Vera Sans', sans-serif; text-anchor: middle; fill: #262626" x="716.936537" y="260.371562" transform="rotate(-0 716.936537 260.371562)">$5000</text>
     </g>
    </g>
    <g id="xtick_9">
     <g id="line2d_9">
      <g>
       <use xlink:href="#m701852fc79" x="803.679515" y="246.21375" style="fill: #262626; stroke: #262626; stroke-width: 0.8"/>
      </g>
     </g>
     <g id="text_9">
      <text style="font-size: 10px; font-family: 'Arial', 'DejaVu Sans', 'Liberation Sans', 'Bitstream Vera Sans', sans-serif; text-anchor: middle; fill: #262626" x="803.679515" y="260.371562" transform="rotate(-0 803.679515 260.371562)">$10000</text>
     </g>
    </g>
    <g id="xtick_10">
     <g id="line2d_10">
      <defs>
       <path id="mba043cb531" d="M 0 0 
L 0 2 
" style="stroke: #262626; stroke-width: 0.6"/>
      </defs>
      <g>
       <use xlink:href="#mba043cb531" x="76.702079" y="246.21375" style="fill: #262626; stroke: #262626; stroke-width: 0.6"/>
      </g>
     </g>
    </g>
    <g id="xtick_11">
     <g id="line2d_11">
      <g>
       <use xlink:href="#mba043cb531" x="112.703667" y="246.21375" style="fill: #262626; stroke: #262626; stroke-width: 0.6"/>
      </g>
     </g>
    </g>
    <g id="xtick_12">
     <g id="line2d_12">
      <g>
       <use xlink:href="#mba043cb531" x="163.445056" y="246.21375" style="fill: #262626; stroke: #262626; stroke-width: 0.6"/>
      </g>
     </g>
    </g>
    <g id="xtick_13">
     <g id="line2d_13">
      <g>
       <use xlink:href="#mba043cb531" x="182.736037" y="246.21375" style="fill: #262626; stroke: #262626; stroke-width: 0.6"/>
      </g>
     </g>
    </g>
    <g id="xtick_14">
     <g id="line2d_14">
      <g>
       <use xlink:href="#mba043cb531" x="199.446645" y="246.21375" style="fill: #262626; stroke: #262626; stroke-width: 0.6"/>
      </g>
     </g>
    </g>
    <g id="xtick_15">
     <g id="line2d_15">
      <g>
       <use xlink:href="#mba043cb531" x="214.186446" y="246.21375" style="fill: #262626; stroke: #262626; stroke-width: 0.6"/>
      </g>
     </g>
    </g>
    <g id="xtick_16">
     <g id="line2d_16">
      <g>
       <use xlink:href="#mba043cb531" x="364.856013" y="246.21375" style="fill: #262626; stroke: #262626; stroke-width: 0.6"/>
      </g>
     </g>
    </g>
    <g id="xtick_17">
     <g id="line2d_17">
      <g>
       <use xlink:href="#mba043cb531" x="400.857602" y="246.21375" style="fill: #262626; stroke: #262626; stroke-width: 0.6"/>
      </g>
     </g>
    </g>
    <g id="xtick_18">
     <g id="line2d_18">
      <g>
       <use xlink:href="#mba043cb531" x="451.598991" y="246.21375" style="fill: #262626; stroke: #262626; stroke-width: 0.6"/>
      </g>
     </g>
    </g>
    <g id="xtick_19">
     <g id="line2d_19">
      <g>
       <use xlink:href="#mba043cb531" x="470.889972" y="246.21375" style="fill: #262626; stroke: #262626; stroke-width: 0.6"/>
      </g>
     </g>
    </g>
    <g id="xtick_20">
     <g id="line2d_20">
      <g>
       <use xlink:href="#mba043cb531" x="487.600579" y="246.21375" style="fill: #262626; stroke: #262626; stroke-width: 0.6"/>
      </g>
     </g>
    </g>
    <g id="xtick_21">
     <g id="line2d_21">
      <g>
       <use xlink:href="#mba043cb531" x="502.34038" y="246.21375" style="fill: #262626; stroke: #262626; stroke-width: 0.6"/>
      </g>
     </g>
    </g>
    <g id="xtick_22">
     <g id="line2d_22">
      <g>
       <use xlink:href="#mba043cb531" x="653.009947" y="246.21375" style="fill: #262626; stroke: #262626; stroke-width: 0.6"/>
      </g>
     </g>
    </g>
    <g id="xtick_23">
     <g id="line2d_23">
      <g>
       <use xlink:href="#mba043cb531" x="689.011536" y="246.21375" style="fill: #262626; stroke: #262626; stroke-width: 0.6"/>
      </g>
     </g>
    </g>
    <g id="xtick_24">
     <g id="line2d_24">
      <g>
       <use xlink:href="#mba043cb531" x="739.752925" y="246.21375" style="fill: #262626; stroke: #262626; stroke-width: 0.6"/>
      </g>
     </g>
    </g>
    <g id="xtick_25">
     <g id="line2d_25">
      <g>
       <use xlink:href="#mba043cb531" x="759.043906" y="246.21375" style="fill: #262626; stroke: #262626; stroke-width: 0.6"/>
      </g>
     </g>
    </g>
    <g id="xtick_26">
     <g id="line2d_26">
      <g>
       <use xlink:href="#mba043cb531" x="775.754513" y="246.21375" style="fill: #262626; stroke: #262626; stroke-width: 0.6"/>
      </g>
     </g>
    </g>
    <g id="xtick_27">
     <g id="line2d_27">
      <g>
       <use xlink:href="#mba043cb531" x="790.494314" y="246.21375" style="fill: #262626; stroke: #262626; stroke-width: 0.6"/>
      </g>
     </g>
    </g>
    <g id="text_10">
     <text style="font-size: 10px; font-family: 'Arial', 'DejaVu Sans', 'Liberation Sans', 'Bitstream Vera Sans', sans-serif; text-anchor: middle; fill: #262626" x="425.7" y="273.63875" transform="rotate(-0 425.7 273.63875)">Income or consumption (month)</text>
    </g>
   </g>
   <g id="matplotlib.axis_2"/>
   <g id="FillBetweenPolyCollection_1">
    <defs>
     <path id="mddd9351e2c" d="M 45.245455 -36.729688 
L 45.245455 -36.758835 
L 47.370033 -36.775293 
L 49.494612 -36.799869 
L 51.619191 -36.835926 
L 53.74377 -36.887899 
L 55.868349 -36.961508 
L 57.992928 -37.06395 
L 60.117507 -37.204053 
L 62.242086 -37.392371 
L 64.366665 -37.641171 
L 66.491244 -37.964311 
L 68.615822 -38.37696 
L 70.740401 -38.895171 
L 72.86498 -39.535303 
L 74.989559 -40.313332 
L 77.114138 -41.244081 
L 79.238717 -42.340458 
L 81.363296 -43.612769 
L 83.487875 -45.06819 
L 85.612454 -46.710479 
L 87.737033 -48.539966 
L 89.861611 -50.553856 
L 91.98619 -52.746806 
L 94.110769 -55.11173 
L 96.235348 -57.640701 
L 98.359927 -60.325869 
L 100.484506 -63.160222 
L 102.609085 -66.13811 
L 104.733664 -69.255432 
L 106.858243 -72.509485 
L 108.982822 -75.898482 
L 111.1074 -79.42085 
L 113.231979 -83.074429 
L 115.356558 -86.855724 
L 117.481137 -90.759346 
L 119.605716 -94.777757 
L 121.730295 -98.901361 
L 123.854874 -103.118926 
L 125.979453 -107.418259 
L 128.104032 -111.786993 
L 130.228611 -116.213341 
L 132.353189 -120.686653 
L 134.477768 -125.197678 
L 136.602347 -129.738454 
L 138.726926 -134.301864 
L 140.851505 -138.880915 
L 142.976084 -143.467896 
L 145.100663 -148.05356 
L 147.225242 -152.626502 
L 149.349821 -157.172841 
L 151.4744 -161.676283 
L 153.598979 -166.118562 
L 155.723557 -170.480185 
L 157.848136 -174.741364 
L 159.972715 -178.882984 
L 162.097294 -182.887462 
L 164.221873 -186.739383 
L 166.346452 -190.425841 
L 168.471031 -193.936504 
L 170.59561 -197.263445 
L 172.720189 -200.40085 
L 174.844768 -203.344726 
L 176.969346 -206.092696 
L 179.093925 -208.643941 
L 181.218504 -210.99929 
L 183.343083 -213.161364 
L 185.467662 -215.13467 
L 187.592241 -216.925488 
L 189.71682 -218.541428 
L 191.841399 -219.990572 
L 193.965978 -221.280235 
L 196.090557 -222.415424 
L 198.215135 -223.397221 
L 200.339714 -224.22132 
L 202.464293 -224.877009 
L 204.588872 -225.346831 
L 206.713451 -225.607082 
L 208.83803 -225.629172 
L 210.962609 -225.381779 
L 213.087188 -224.83356 
L 215.211767 -223.956105 
L 217.336346 -222.726802 
L 219.460924 -221.131236 
L 221.585503 -219.164861 
L 223.710082 -216.833759 
L 225.834661 -214.154433 
L 227.95924 -211.152728 
L 230.083819 -207.862066 
L 232.208398 -204.32126 
L 234.332977 -200.572209 
L 236.457556 -196.657728 
L 238.582135 -192.619753 
L 240.706713 -188.49801 
L 242.831292 -184.329194 
L 244.955871 -180.146608 
L 247.08045 -175.980114 
L 249.205029 -171.856281 
L 251.329608 -167.798567 
L 253.454187 -163.827421 
L 255.578766 -159.96027 
L 257.703345 -156.211353 
L 259.827924 -152.591466 
L 261.952502 -149.107691 
L 264.077081 -145.763179 
L 266.20166 -142.557085 
L 268.326239 -139.484686 
L 270.450818 -136.537721 
L 272.575397 -133.704922 
L 274.699976 -130.972721 
L 276.824555 -128.326045 
L 278.949134 -125.749178 
L 281.073713 -123.226609 
L 283.198291 -120.743829 
L 285.32287 -118.288054 
L 287.447449 -115.848843 
L 289.572028 -113.418592 
L 291.696607 -110.992895 
L 293.821186 -108.570735 
L 295.945765 -106.154506 
L 298.070344 -103.749819 
L 300.194923 -101.365107 
L 302.319502 -99.01102 
L 304.44408 -96.699649 
L 306.568659 -94.443618 
L 308.693238 -92.255137 
L 310.817817 -90.145077 
L 312.942396 -88.122176 
L 315.066975 -86.192435 
L 317.191554 -84.358771 
L 319.316133 -82.620948 
L 321.440712 -80.97577 
L 323.565291 -79.417525 
L 325.689869 -77.938585 
L 327.814448 -76.530118 
L 329.939027 -75.18281 
L 332.063606 -73.887541 
L 334.188185 -72.63594 
L 336.312764 -71.420795 
L 338.437343 -70.236286 
L 340.561922 -69.078056 
L 342.686501 -67.943125 
L 344.81108 -66.829703 
L 346.935658 -65.736916 
L 349.060237 -64.664505 
L 351.184816 -63.612538 
L 353.309395 -62.58115 
L 355.433974 -61.570356 
L 357.558553 -60.579931 
L 359.683132 -59.609362 
L 361.807711 -58.657872 
L 363.93229 -57.724493 
L 366.056869 -56.808181 
L 368.181448 -55.907955 
L 370.306026 -55.023038 
L 372.430605 -54.152996 
L 374.555184 -53.297865 
L 376.679763 -52.458233 
L 378.804342 -51.635293 
L 380.928921 -50.830839 
L 383.0535 -50.047195 
L 385.178079 -49.287083 
L 387.302658 -48.553418 
L 389.427237 -47.849054 
L 391.551815 -47.176494 
L 393.676394 -46.53759 
L 395.800973 -45.933278 
L 397.925552 -45.363385 
L 400.050131 -44.826528 
L 402.17471 -44.320148 
L 404.299289 -43.840669 
L 406.423868 -43.383785 
L 408.548447 -42.94484 
L 410.673026 -42.519267 
L 412.797604 -42.103025 
L 414.922183 -41.692998 
L 417.046762 -41.287282 
L 419.171341 -40.885358 
L 421.29592 -40.488104 
L 423.420499 -40.097665 
L 425.545078 -39.717194 
L 427.669657 -39.350501 
L 429.794236 -39.001654 
L 431.918815 -38.67458 
L 434.043393 -38.372707 
L 436.167972 -38.098682 
L 438.292551 -37.854193 
L 440.41713 -37.63989 
L 442.541709 -37.455407 
L 444.666288 -37.299476 
L 446.790867 -37.170088 
L 448.915446 -37.064702 
L 451.040025 -36.98045 
L 453.164604 -36.914344 
L 455.289182 -36.863436 
L 457.413761 -36.824961 
L 459.53834 -36.796422 
L 461.662919 -36.775646 
L 463.787498 -36.760803 
L 465.912077 -36.750396 
L 468.036656 -36.743233 
L 468.036656 -36.729688 
L 468.036656 -36.729688 
L 465.912077 -36.729688 
L 463.787498 -36.729688 
L 461.662919 -36.729688 
L 459.53834 -36.729688 
L 457.413761 -36.729688 
L 455.289182 -36.729688 
L 453.164604 -36.729688 
L 451.040025 -36.729688 
L 448.915446 -36.729688 
L 446.790867 -36.729688 
L 444.666288 -36.729688 
L 442.541709 -36.729688 
L 440.41713 -36.729688 
L 438.292551 -36.729688 
L 436.167972 -36.729688 
L 434.043393 -36.729688 
L 431.918815 -36.729688 
L 429.794236 -36.729688 
L 427.669657 -36.729688 
L 425.545078 -36.729688 
L 423.420499 -36.729688 
L 421.29592 -36.729688 
L 419.171341 -36.729688 
L 417.046762 -36.729688 
L 414.922183 -36.729688 
L 412.797604 -36.729688 
L 410.673026 -36.729688 
L 408.548447 -36.729688 
L 406.423868 -36.729688 
L 404.299289 -36.729688 
L 402.17471 -36.729688 
L 400.050131 -36.729688 
L 397.925552 -36.729688 
L 395.800973 -36.729688 
L 393.676394 -36.729688 
L 391.551815 -36.729688 
L 389.427237 -36.729688 
L 387.302658 -36.729688 
L 385.178079 -36.729688 
L 383.0535 -36.729688 
L 380.928921 -36.729688 
L 378.804342 -36.729688 
L 376.679763 -36.729688 
L 374.555184 -36.729688 
L 372.430605 -36.729688 
L 370.306026 -36.729688 
L 368.181448 -36.729688 
L 366.056869 -36.729688 
L 363.93229 -36.729688 
L 361.807711 -36.729688 
L 359.683132 -36.729688 
L 357.558553 -36.729688 
L 355.433974 -36.729688 
L 353.309395 -36.729688 
L 351.184816 -36.729688 
L 349.060237 -36.729688 
L 346.935658 -36.729688 
L 344.81108 -36.729688 
L 342.686501 -36.729688 
L 340.561922 -36.729688 
L 338.437343 -36.729688 
L 336.312764 -36.729688 
L 334.188185 -36.729688 
L 332.063606 -36.729688 
L 329.939027 -36.729688 
L 327.814448 -36.729688 
L 325.689869 -36.729688 
L 323.565291 -36.729688 
L 321.440712 -36.729688 
L 319.316133 -36.729688 
L 317.191554 -36.729688 
L 315.066975 -36.729688 
L 312.942396 -36.729688 
L 310.817817 -36.729688 
L 308.693238 -36.729688 
L 306.568659 -36.729688 
L 304.44408 -36.729688 
L 302.319502 -36.729688 
L 300.194923 -36.729688 
L 298.070344 -36.729688 
L 295.945765 -36.729688 
L 293.821186 -36.729688 
L 291.696607 -36.729688 
L 289.572028 -36.729688 
L 287.447449 -36.729688 
L 285.32287 -36.729688 
L 283.198291 -36.729688 
L 281.073713 -36.729688 
L 278.949134 -36.729688 
L 276.824555 -36.729688 
L 274.699976 -36.729688 
L 272.575397 -36.729688 
L 270.450818 -36.729688 
L 268.326239 -36.729688 
L 266.20166 -36.729688 
L 264.077081 -36.729688 
L 261.952502 -36.729688 
L 259.827924 -36.729688 
L 257.703345 -36.729688 
L 255.578766 -36.729688 
L 253.454187 -36.729688 
L 251.329608 -36.729688 
L 249.205029 -36.729688 
L 247.08045 -36.729688 
L 244.955871 -36.729688 
L 242.831292 -36.729688 
L 240.706713 -36.729688 
L 238.582135 -36.729688 
L 236.457556 -36.729688 
L 234.332977 -36.729688 
L 232.208398 -36.729688 
L 230.083819 -36.729688 
L 227.95924 -36.729688 
L 225.834661 -36.729688 
L 223.710082 -36.729688 
L 221.585503 -36.729688 
L 219.460924 -36.729688 
L 217.336346 -36.729688 
L 215.211767 -36.729688 
L 213.087188 -36.729688 
L 210.962609 -36.729688 
L 208.83803 -36.729688 
L 206.713451 -36.729688 
L 204.588872 -36.729688 
L 202.464293 -36.729688 
L 200.339714 -36.729688 
L 198.215135 -36.729688 
L 196.090557 -36.729688 
L 193.965978 -36.729688 
L 191.841399 -36.729688 
L 189.71682 -36.729688 
L 187.592241 -36.729688 
L 185.467662 -36.729688 
L 183.343083 -36.729688 
L 181.218504 -36.729688 
L 179.093925 -36.729688 
L 176.969346 -36.729688 
L 174.844768 -36.729688 
L 172.720189 -36.729688 
L 170.59561 -36.729688 
L 168.471031 -36.729688 
L 166.346452 -36.729688 
L 164.221873 -36.729688 
L 162.097294 -36.729688 
L 159.972715 -36.729688 
L 157.848136 -36.729688 
L 155.723557 -36.729688 
L 153.598979 -36.729688 
L 151.4744 -36.729688 
L 149.349821 -36.729688 
L 147.225242 -36.729688 
L 145.100663 -36.729688 
L 142.976084 -36.729688 
L 140.851505 -36.729688 
L 138.726926 -36.729688 
L 136.602347 -36.729688 
L 134.477768 -36.729688 
L 132.353189 -36.729688 
L 130.228611 -36.729688 
L 128.104032 -36.729688 
L 125.979453 -36.729688 
L 123.854874 -36.729688 
L 121.730295 -36.729688 
L 119.605716 -36.729688 
L 117.481137 -36.729688 
L 115.356558 -36.729688 
L 113.231979 -36.729688 
L 111.1074 -36.729688 
L 108.982822 -36.729688 
L 106.858243 -36.729688 
L 104.733664 -36.729688 
L 102.609085 -36.729688 
L 100.484506 -36.729688 
L 98.359927 -36.729688 
L 96.235348 -36.729688 
L 94.110769 -36.729688 
L 91.98619 -36.729688 
L 89.861611 -36.729688 
L 87.737033 -36.729688 
L 85.612454 -36.729688 
L 83.487875 -36.729688 
L 81.363296 -36.729688 
L 79.238717 -36.729688 
L 77.114138 -36.729688 
L 74.989559 -36.729688 
L 72.86498 -36.729688 
L 70.740401 -36.729688 
L 68.615822 -36.729688 
L 66.491244 -36.729688 
L 64.366665 -36.729688 
L 62.242086 -36.729688 
L 60.117507 -36.729688 
L 57.992928 -36.729688 
L 55.868349 -36.729688 
L 53.74377 -36.729688 
L 51.619191 -36.729688 
L 49.494612 -36.729688 
L 47.370033 -36.729688 
L 45.245455 -36.729688 
z
" style="stroke: #dd8452; stroke-opacity: 0.2"/>
    </defs>
    <g>
     <use xlink:href="#mddd9351e2c" x="0" y="282.943437" style="fill: #dd8452; fill-opacity: 0.2; stroke: #dd8452; stroke-opacity: 0.2"/>
    </g>
   </g>
   <g id="FillBetweenPolyCollection_2">
    <defs>
     <path id="m0131193a79" d="M 382.800243 -36.729688 
L 382.800243 -36.740956 
L 384.927652 -36.74765 
L 387.05506 -36.757683 
L 389.182469 -36.772356 
L 391.309877 -36.79329 
L 393.437286 -36.822426 
L 395.564695 -36.861983 
L 397.692103 -36.914373 
L 399.819512 -36.982057 
L 401.94692 -37.067352 
L 404.074329 -37.172209 
L 406.201737 -37.297973 
L 408.329146 -37.445167 
L 410.456554 -37.613346 
L 412.583963 -37.801044 
L 414.711372 -38.005861 
L 416.83878 -38.224699 
L 418.966189 -38.454133 
L 421.093597 -38.69089 
L 423.221006 -38.932379 
L 425.348414 -39.177193 
L 427.475823 -39.425529 
L 429.603231 -39.679438 
L 431.73064 -39.942874 
L 433.858049 -40.221547 
L 435.985457 -40.522568 
L 438.112866 -40.853988 
L 440.240274 -41.224267 
L 442.367683 -41.641787 
L 444.495091 -42.114457 
L 446.6225 -42.649481 
L 448.749908 -43.253287 
L 450.877317 -43.931587 
L 453.004726 -44.689518 
L 455.132134 -45.531756 
L 457.259543 -46.462529 
L 459.386951 -47.485425 
L 461.51436 -48.602979 
L 463.641768 -49.816029 
L 465.769177 -51.122917 
L 467.896585 -52.518685 
L 470.023994 -53.994429 
L 472.151403 -55.537009 
L 474.278811 -57.12929 
L 476.40622 -58.75102 
L 478.533628 -60.380343 
L 480.661037 -61.995843 
L 482.788445 -63.578873 
L 484.915854 -65.115862 
L 487.043262 -66.600227 
L 489.170671 -68.033592 
L 491.29808 -69.426072 
L 493.425488 -70.795585 
L 495.552897 -72.166291 
L 497.680305 -73.566451 
L 499.807714 -75.026069 
L 501.935122 -76.574736 
L 504.062531 -78.240024 
L 506.189939 -80.046628 
L 508.317348 -82.01631 
L 510.444756 -84.168497 
L 512.572165 -86.52127 
L 514.699574 -89.09241 
L 516.826982 -91.900186 
L 518.954391 -94.963639 
L 521.081799 -98.302273 
L 523.209208 -101.935179 
L 525.336616 -105.879754 
L 527.464025 -110.150245 
L 529.591433 -114.756364 
L 531.718842 -119.70218 
L 533.846251 -124.985408 
L 535.973659 -130.597118 
L 538.101068 -136.521782 
L 540.228476 -142.737503 
L 542.355885 -149.216243 
L 544.483293 -155.923892 
L 546.610702 -162.820059 
L 548.73811 -169.85762 
L 550.865519 -176.98214 
L 552.992928 -184.131413 
L 555.120336 -191.235435 
L 557.247745 -198.217124 
L 559.375153 -204.994019 
L 561.502562 -211.481036 
L 563.62997 -217.594173 
L 565.757379 -223.254838 
L 567.884787 -228.394303 
L 570.012196 -232.957748 
L 572.139605 -236.90735 
L 574.267013 -240.224051 
L 576.394422 -242.907816 
L 578.52183 -244.976458 
L 580.649239 -246.463288 
L 582.776647 -247.413953 
L 584.904056 -247.882889 
L 587.031464 -247.929688 
L 589.158873 -247.615619 
L 591.286282 -247.000376 
L 593.41369 -246.139057 
L 595.541099 -245.07939 
L 597.668507 -243.859248 
L 599.795916 -242.504617 
L 601.923324 -241.02829 
L 604.050733 -239.429591 
L 606.178141 -237.695412 
L 608.30555 -235.802697 
L 610.432959 -233.722265 
L 612.560367 -231.423609 
L 614.687776 -228.880072 
L 616.815184 -226.073613 
L 618.942593 -222.998427 
L 621.070001 -219.662802 
L 623.19741 -216.088911 
L 625.324818 -212.31063 
L 627.452227 -208.369811 
L 629.579635 -204.311755 
L 631.707044 -200.18072 
L 633.834453 -196.01622 
L 635.961861 -191.850646 
L 638.08927 -187.708383 
L 640.216678 -183.606238 
L 642.344087 -179.554749 
L 644.471495 -175.559789 
L 646.598904 -171.623947 
L 648.726312 -167.747336 
L 650.853721 -163.927745 
L 652.98113 -160.160306 
L 655.108538 -156.437002 
L 657.235947 -152.74642 
L 659.363355 -149.074039 
L 661.490764 -145.403202 
L 663.618172 -141.716702 
L 665.745581 -137.998716 
L 667.872989 -134.236756 
L 670.000398 -130.423259 
L 672.127807 -126.556563 
L 674.255215 -122.641126 
L 676.382624 -118.687044 
L 678.510032 -114.70902 
L 680.637441 -110.725051 
L 682.764849 -106.75507 
L 684.892258 -102.819779 
L 687.019666 -98.939772 
L 689.147075 -95.134987 
L 691.274484 -91.424423 
L 693.401892 -87.826013 
L 695.529301 -84.35653 
L 697.656709 -81.03143 
L 699.784118 -77.864577 
L 701.911526 -74.867848 
L 704.038935 -72.05068 
L 706.166343 -69.419627 
L 708.293752 -66.978018 
L 710.421161 -64.725784 
L 712.548569 -62.6595 
L 714.675978 -60.772623 
L 716.803386 -59.055906 
L 718.930795 -57.497923 
L 721.058203 -56.08564 
L 723.185612 -54.804972 
L 725.31302 -53.6413 
L 727.440429 -52.579921 
L 729.567838 -51.60644 
L 731.695246 -50.707122 
L 733.822655 -49.869199 
L 735.950063 -49.081145 
L 738.077472 -48.332908 
L 740.20488 -47.616068 
L 742.332289 -46.923911 
L 744.459697 -46.251397 
L 746.587106 -45.595042 
L 748.714515 -44.952715 
L 750.841923 -44.323409 
L 752.969332 -43.707004 
L 755.09674 -43.104083 
L 757.224149 -42.515806 
L 759.351557 -41.943844 
L 761.478966 -41.390353 
L 763.606374 -40.857962 
L 765.733783 -40.349714 
L 767.861191 -39.868952 
L 769.9886 -39.419129 
L 772.116009 -39.003547 
L 774.243417 -38.625062 
L 776.370826 -38.285796 
L 778.498234 -37.986896 
L 780.625643 -37.728393 
L 782.753051 -37.50916 
L 784.88046 -37.326998 
L 787.007868 -37.178815 
L 789.135277 -37.060873 
L 791.262686 -36.969073 
L 793.390094 -36.899224 
L 795.517503 -36.847287 
L 797.644911 -36.809557 
L 799.77232 -36.782784 
L 801.899728 -36.76423 
L 804.027137 -36.751673 
L 806.154545 -36.743376 
L 806.154545 -36.729688 
L 806.154545 -36.729688 
L 804.027137 -36.729688 
L 801.899728 -36.729688 
L 799.77232 -36.729688 
L 797.644911 -36.729688 
L 795.517503 -36.729688 
L 793.390094 -36.729688 
L 791.262686 -36.729688 
L 789.135277 -36.729688 
L 787.007868 -36.729688 
L 784.88046 -36.729688 
L 782.753051 -36.729688 
L 780.625643 -36.729688 
L 778.498234 -36.729688 
L 776.370826 -36.729688 
L 774.243417 -36.729688 
L 772.116009 -36.729688 
L 769.9886 -36.729688 
L 767.861191 -36.729688 
L 765.733783 -36.729688 
L 763.606374 -36.729688 
L 761.478966 -36.729688 
L 759.351557 -36.729688 
L 757.224149 -36.729688 
L 755.09674 -36.729688 
L 752.969332 -36.729688 
L 750.841923 -36.729688 
L 748.714515 -36.729688 
L 746.587106 -36.729688 
L 744.459697 -36.729688 
L 742.332289 -36.729688 
L 740.20488 -36.729688 
L 738.077472 -36.729688 
L 735.950063 -36.729688 
L 733.822655 -36.729688 
L 731.695246 -36.729688 
L 729.567838 -36.729688 
L 727.440429 -36.729688 
L 725.31302 -36.729688 
L 723.185612 -36.729688 
L 721.058203 -36.729688 
L 718.930795 -36.729688 
L 716.803386 -36.729688 
L 714.675978 -36.729688 
L 712.548569 -36.729688 
L 710.421161 -36.729688 
L 708.293752 -36.729688 
L 706.166343 -36.729688 
L 704.038935 -36.729688 
L 701.911526 -36.729688 
L 699.784118 -36.729688 
L 697.656709 -36.729688 
L 695.529301 -36.729688 
L 693.401892 -36.729688 
L 691.274484 -36.729688 
L 689.147075 -36.729688 
L 687.019666 -36.729688 
L 684.892258 -36.729688 
L 682.764849 -36.729688 
L 680.637441 -36.729688 
L 678.510032 -36.729688 
L 676.382624 -36.729688 
L 674.255215 -36.729688 
L 672.127807 -36.729688 
L 670.000398 -36.729688 
L 667.872989 -36.729688 
L 665.745581 -36.729688 
L 663.618172 -36.729688 
L 661.490764 -36.729688 
L 659.363355 -36.729688 
L 657.235947 -36.729688 
L 655.108538 -36.729688 
L 652.98113 -36.729688 
L 650.853721 -36.729688 
L 648.726312 -36.729688 
L 646.598904 -36.729688 
L 644.471495 -36.729688 
L 642.344087 -36.729688 
L 640.216678 -36.729688 
L 638.08927 -36.729688 
L 635.961861 -36.729688 
L 633.834453 -36.729688 
L 631.707044 -36.729688 
L 629.579635 -36.729688 
L 627.452227 -36.729688 
L 625.324818 -36.729688 
L 623.19741 -36.729688 
L 621.070001 -36.729688 
L 618.942593 -36.729688 
L 616.815184 -36.729688 
L 614.687776 -36.729688 
L 612.560367 -36.729688 
L 610.432959 -36.729688 
L 608.30555 -36.729688 
L 606.178141 -36.729688 
L 604.050733 -36.729688 
L 601.923324 -36.729688 
L 599.795916 -36.729688 
L 597.668507 -36.729688 
L 595.541099 -36.729688 
L 593.41369 -36.729688 
L 591.286282 -36.729688 
L 589.158873 -36.729688 
L 587.031464 -36.729688 
L 584.904056 -36.729688 
L 582.776647 -36.729688 
L 580.649239 -36.729688 
L 578.52183 -36.729688 
L 576.394422 -36.729688 
L 574.267013 -36.729688 
L 572.139605 -36.729688 
L 570.012196 -36.729688 
L 567.884787 -36.729688 
L 565.757379 -36.729688 
L 563.62997 -36.729688 
L 561.502562 -36.729688 
L 559.375153 -36.729688 
L 557.247745 -36.729688 
L 555.120336 -36.729688 
L 552.992928 -36.729688 
L 550.865519 -36.729688 
L 548.73811 -36.729688 
L 546.610702 -36.729688 
L 544.483293 -36.729688 
L 542.355885 -36.729688 
L 540.228476 -36.729688 
L 538.101068 -36.729688 
L 535.973659 -36.729688 
L 533.846251 -36.729688 
L 531.718842 -36.729688 
L 529.591433 -36.729688 
L 527.464025 -36.729688 
L 525.336616 -36.729688 
L 523.209208 -36.729688 
L 521.081799 -36.729688 
L 518.954391 -36.729688 
L 516.826982 -36.729688 
L 514.699574 -36.729688 
L 512.572165 -36.729688 
L 510.444756 -36.729688 
L 508.317348 -36.729688 
L 506.189939 -36.729688 
L 504.062531 -36.729688 
L 501.935122 -36.729688 
L 499.807714 -36.729688 
L 497.680305 -36.729688 
L 495.552897 -36.729688 
L 493.425488 -36.729688 
L 491.29808 -36.729688 
L 489.170671 -36.729688 
L 487.043262 -36.729688 
L 484.915854 -36.729688 
L 482.788445 -36.729688 
L 480.661037 -36.729688 
L 478.533628 -36.729688 
L 476.40622 -36.729688 
L 474.278811 -36.729688 
L 472.151403 -36.729688 
L 470.023994 -36.729688 
L 467.896585 -36.729688 
L 465.769177 -36.729688 
L 463.641768 -36.729688 
L 461.51436 -36.729688 
L 459.386951 -36.729688 
L 457.259543 -36.729688 
L 455.132134 -36.729688 
L 453.004726 -36.729688 
L 450.877317 -36.729688 
L 448.749908 -36.729688 
L 446.6225 -36.729688 
L 444.495091 -36.729688 
L 442.367683 -36.729688 
L 440.240274 -36.729688 
L 438.112866 -36.729688 
L 435.985457 -36.729688 
L 433.858049 -36.729688 
L 431.73064 -36.729688 
L 429.603231 -36.729688 
L 427.475823 -36.729688 
L 425.348414 -36.729688 
L 423.221006 -36.729688 
L 421.093597 -36.729688 
L 418.966189 -36.729688 
L 416.83878 -36.729688 
L 414.711372 -36.729688 
L 412.583963 -36.729688 
L 410.456554 -36.729688 
L 408.329146 -36.729688 
L 406.201737 -36.729688 
L 404.074329 -36.729688 
L 401.94692 -36.729688 
L 399.819512 -36.729688 
L 397.692103 -36.729688 
L 395.564695 -36.729688 
L 393.437286 -36.729688 
L 391.309877 -36.729688 
L 389.182469 -36.729688 
L 387.05506 -36.729688 
L 384.927652 -36.729688 
L 382.800243 -36.729688 
z
" style="stroke: #4c72b0; stroke-opacity: 0.2"/>
    </defs>
    <g>
     <use xlink:href="#m0131193a79" x="0" y="282.943437" style="fill: #4c72b0; fill-opacity: 0.2; stroke: #4c72b0; stroke-opacity: 0.2"/>
    </g>
   </g>
   <g id="FillBetweenPolyCollection_3">
    <defs>
     <path id="m8a28b69d99" d="M 45.245455 -36.758835 
L 45.245455 -36.729688 
L 47.370033 -36.729688 
L 49.494612 -36.729688 
L 51.619191 -36.729688 
L 53.74377 -36.729688 
L 55.868349 -36.729688 
L 57.992928 -36.729688 
L 60.117507 -36.729688 
L 62.242086 -36.729688 
L 64.366665 -36.729688 
L 66.491244 -36.729688 
L 68.615822 -36.729688 
L 70.740401 -36.729688 
L 72.86498 -36.729688 
L 74.989559 -36.729688 
L 77.114138 -36.729688 
L 79.238717 -36.729688 
L 81.363296 -36.729688 
L 83.487875 -36.729688 
L 85.612454 -36.729688 
L 87.737033 -36.729688 
L 89.861611 -36.729688 
L 91.98619 -36.729688 
L 94.110769 -36.729688 
L 96.235348 -36.729688 
L 98.359927 -36.729688 
L 100.484506 -36.729688 
L 102.609085 -36.729688 
L 104.733664 -36.729688 
L 106.858243 -36.729688 
L 108.982822 -36.729688 
L 111.1074 -36.729688 
L 113.231979 -36.729688 
L 115.356558 -36.729688 
L 117.481137 -36.729688 
L 119.605716 -36.729688 
L 121.730295 -36.729688 
L 123.854874 -36.729688 
L 125.979453 -36.729688 
L 128.104032 -36.729688 
L 130.228611 -36.729688 
L 132.353189 -36.729688 
L 134.477768 -36.729688 
L 136.602347 -36.729688 
L 138.726926 -36.729688 
L 140.851505 -36.729688 
L 142.976084 -36.729688 
L 145.100663 -36.729688 
L 147.225242 -36.729688 
L 149.349821 -36.729688 
L 151.4744 -36.729688 
L 153.598979 -36.729688 
L 155.723557 -36.729688 
L 157.848136 -36.729688 
L 159.972715 -36.729688 
L 162.097294 -36.729688 
L 164.221873 -36.729688 
L 166.346452 -36.729688 
L 168.471031 -36.729688 
L 170.59561 -36.729688 
L 172.720189 -36.729688 
L 174.844768 -36.729688 
L 176.969346 -36.729688 
L 179.093925 -36.729688 
L 181.218504 -36.729688 
L 183.343083 -36.729688 
L 185.467662 -36.729688 
L 187.592241 -36.729688 
L 189.71682 -36.729688 
L 191.841399 -36.729688 
L 193.965978 -36.729688 
L 196.090557 -36.729688 
L 198.215135 -36.729688 
L 200.339714 -36.729688 
L 202.464293 -36.729688 
L 204.588872 -36.729688 
L 206.713451 -36.729688 
L 208.83803 -36.729688 
L 210.962609 -36.729688 
L 213.087188 -36.729688 
L 214.186446 -36.729688 
L 214.186446 -224.381424 
L 214.186446 -224.381424 
L 213.087188 -224.83356 
L 210.962609 -225.381779 
L 208.83803 -225.629172 
L 206.713451 -225.607082 
L 204.588872 -225.346831 
L 202.464293 -224.877009 
L 200.339714 -224.22132 
L 198.215135 -223.397221 
L 196.090557 -222.415424 
L 193.965978 -221.280235 
L 191.841399 -219.990572 
L 189.71682 -218.541428 
L 187.592241 -216.925488 
L 185.467662 -215.13467 
L 183.343083 -213.161364 
L 181.218504 -210.99929 
L 179.093925 -208.643941 
L 176.969346 -206.092696 
L 174.844768 -203.344726 
L 172.720189 -200.40085 
L 170.59561 -197.263445 
L 168.471031 -193.936504 
L 166.346452 -190.425841 
L 164.221873 -186.739383 
L 162.097294 -182.887462 
L 159.972715 -178.882984 
L 157.848136 -174.741364 
L 155.723557 -170.480185 
L 153.598979 -166.118562 
L 151.4744 -161.676283 
L 149.349821 -157.172841 
L 147.225242 -152.626502 
L 145.100663 -148.05356 
L 142.976084 -143.467896 
L 140.851505 -138.880915 
L 138.726926 -134.301864 
L 136.602347 -129.738454 
L 134.477768 -125.197678 
L 132.353189 -120.686653 
L 130.228611 -116.213341 
L 128.104032 -111.786993 
L 125.979453 -107.418259 
L 123.854874 -103.118926 
L 121.730295 -98.901361 
L 119.605716 -94.777757 
L 117.481137 -90.759346 
L 115.356558 -86.855724 
L 113.231979 -83.074429 
L 111.1074 -79.42085 
L 108.982822 -75.898482 
L 106.858243 -72.509485 
L 104.733664 -69.255432 
L 102.609085 -66.13811 
L 100.484506 -63.160222 
L 98.359927 -60.325869 
L 96.235348 -57.640701 
L 94.110769 -55.11173 
L 91.98619 -52.746806 
L 89.861611 -50.553856 
L 87.737033 -48.539966 
L 85.612454 -46.710479 
L 83.487875 -45.06819 
L 81.363296 -43.612769 
L 79.238717 -42.340458 
L 77.114138 -41.244081 
L 74.989559 -40.313332 
L 72.86498 -39.535303 
L 70.740401 -38.895171 
L 68.615822 -38.37696 
L 66.491244 -37.964311 
L 64.366665 -37.641171 
L 62.242086 -37.392371 
L 60.117507 -37.204053 
L 57.992928 -37.06395 
L 55.868349 -36.961508 
L 53.74377 -36.887899 
L 51.619191 -36.835926 
L 49.494612 -36.799869 
L 47.370033 -36.775293 
L 45.245455 -36.758835 
z
"/>
    </defs>
    <g>
     <use xlink:href="#m8a28b69d99" x="0" y="282.943437" style="fill: #dd8452; fill-opacity: 0.3"/>
    </g>
   </g>
   <g id="line2d_28">
    <path d="M 45.245455 246.184602 
L 53.74377 246.055539 
L 60.117507 245.739384 
L 64.366665 245.302266 
L 68.615822 244.566477 
L 70.740401 244.048267 
L 72.86498 243.408134 
L 74.989559 242.630106 
L 77.114138 241.699357 
L 79.238717 240.60298 
L 81.363296 239.330669 
L 83.487875 237.875247 
L 85.612454 236.232958 
L 87.737033 234.403471 
L 89.861611 232.389582 
L 91.98619 230.196631 
L 96.235348 225.302737 
L 100.484506 219.783215 
L 104.733664 213.688005 
L 108.982822 207.044956 
L 113.231979 199.869008 
L 117.481137 192.184091 
L 121.730295 184.042077 
L 128.104032 171.156444 
L 136.602347 153.204983 
L 153.598979 116.824875 
L 157.848136 108.202074 
L 162.097294 100.055975 
L 166.346452 92.517596 
L 170.59561 85.679993 
L 174.844768 79.598711 
L 176.969346 76.850742 
L 179.093925 74.299496 
L 181.218504 71.944147 
L 183.343083 69.782074 
L 185.467662 67.808768 
L 187.592241 66.017949 
L 189.71682 64.40201 
L 191.841399 62.952865 
L 193.965978 61.663203 
L 196.090557 60.528013 
L 198.215135 59.546216 
L 200.339714 58.722117 
L 202.464293 58.066429 
L 204.588872 57.596606 
L 206.713451 57.336356 
L 208.83803 57.314266 
L 210.962609 57.561658 
L 213.087188 58.109878 
L 215.211767 58.987333 
L 217.336346 60.216636 
L 219.460924 61.812202 
L 221.585503 63.778576 
L 223.710082 66.109678 
L 225.834661 68.789005 
L 227.95924 71.79071 
L 230.083819 75.081372 
L 234.332977 82.371229 
L 238.582135 90.323684 
L 253.454187 119.116016 
L 257.703345 126.732085 
L 261.952502 133.835747 
L 266.20166 140.386353 
L 270.450818 146.405717 
L 274.699976 151.970717 
L 278.949134 157.194259 
L 285.32287 164.655384 
L 300.194923 181.578331 
L 306.568659 188.499819 
L 310.817817 192.79836 
L 315.066975 196.751003 
L 319.316133 200.32249 
L 323.565291 203.525912 
L 327.814448 206.41332 
L 332.063606 209.055896 
L 338.437343 212.707151 
L 344.81108 216.113734 
L 353.309395 220.362288 
L 361.807711 224.285566 
L 370.306026 227.9204 
L 378.804342 231.308144 
L 385.178079 233.656355 
L 391.551815 235.766943 
L 397.925552 237.580053 
L 404.299289 239.102768 
L 412.797604 240.840412 
L 425.545078 243.226243 
L 431.918815 244.268857 
L 438.292551 245.089244 
L 444.666288 245.643962 
L 451.040025 245.962987 
L 459.53834 246.147016 
L 468.036656 246.200204 
L 468.036656 246.200204 
" style="fill: none; stroke: #dd8452; stroke-width: 1.5; stroke-linecap: round"/>
   </g>
   <g id="line2d_29">
    <path d="M 382.800243 246.202482 
L 395.564695 246.081454 
L 404.074329 245.771229 
L 410.456554 245.330091 
L 418.966189 244.489304 
L 433.858049 242.721891 
L 440.240274 241.71917 
L 444.495091 240.828981 
L 448.749908 239.690151 
L 453.004726 238.253919 
L 457.259543 236.480909 
L 461.51436 234.340458 
L 465.769177 231.820521 
L 470.023994 228.949008 
L 476.40622 224.192418 
L 482.788445 219.364564 
L 487.043262 216.34321 
L 493.425488 212.147853 
L 499.807714 207.917369 
L 504.062531 204.703414 
L 506.189939 202.89681 
L 508.317348 200.927127 
L 510.444756 198.77494 
L 512.572165 196.422168 
L 514.699574 193.851028 
L 516.826982 191.043252 
L 518.954391 187.979799 
L 521.081799 184.641164 
L 523.209208 181.008259 
L 525.336616 177.063684 
L 527.464025 172.793193 
L 529.591433 168.187074 
L 531.718842 163.241258 
L 533.846251 157.958029 
L 538.101068 146.421655 
L 542.355885 133.727194 
L 546.610702 120.123378 
L 559.375153 77.949419 
L 561.502562 71.462402 
L 563.62997 65.349264 
L 565.757379 59.6886 
L 567.884787 54.549135 
L 570.012196 49.98569 
L 572.139605 46.036087 
L 574.267013 42.719386 
L 576.394422 40.035622 
L 578.52183 37.966979 
L 580.649239 36.48015 
L 582.776647 35.529484 
L 584.904056 35.060549 
L 587.031464 35.01375 
L 589.158873 35.327818 
L 591.286282 35.943062 
L 593.41369 36.804381 
L 595.541099 37.864047 
L 597.668507 39.084189 
L 601.923324 41.915147 
L 606.178141 45.248025 
L 608.30555 47.14074 
L 610.432959 49.221173 
L 612.560367 51.519828 
L 614.687776 54.063365 
L 616.815184 56.869825 
L 618.942593 59.94501 
L 621.070001 63.280636 
L 625.324818 70.632807 
L 629.579635 78.631683 
L 644.471495 107.383649 
L 650.853721 119.015693 
L 659.363355 133.869399 
L 667.872989 148.706682 
L 674.255215 160.302312 
L 689.147075 187.808451 
L 693.401892 195.117424 
L 697.656709 201.912007 
L 701.911526 208.07559 
L 704.038935 210.892758 
L 706.166343 213.52381 
L 708.293752 215.96542 
L 710.421161 218.217653 
L 712.548569 220.283937 
L 714.675978 222.170814 
L 716.803386 223.887531 
L 718.930795 225.445514 
L 723.185612 228.138465 
L 727.440429 230.363517 
L 731.695246 232.236315 
L 735.950063 233.862293 
L 742.332289 236.019527 
L 750.841923 238.620029 
L 759.351557 240.999594 
L 765.733783 242.593723 
L 772.116009 243.939891 
L 776.370826 244.657642 
L 780.625643 245.215044 
L 787.007868 245.764623 
L 793.390094 246.044214 
L 801.899728 246.179208 
L 806.154545 246.200062 
L 806.154545 246.200062 
" style="fill: none; stroke: #4c72b0; stroke-width: 1.5; stroke-linecap: round"/>
   </g>
   <g id="line2d_30">
    <path d="M 214.186446 246.21375 
L 214.186446 24.45375 
" style="fill: none; stroke-dasharray: 0.8,1.32; stroke-dashoffset: 0; stroke: #d3d3d3; stroke-width: 0.8"/>
   </g>
   <g id="line2d_31">
    <path d="M 7.2 246.21375 
L 844.2 246.21375 
" style="fill: none; stroke: #808080; stroke-width: 0.5; stroke-linecap: round"/>
   </g>
   <g id="AnnotationBbox_1">
    <g id="text_11">
     <text style="font-weight: 700; font-size: 8px; font-family: 'Arial', 'DejaVu Sans', 'Liberation Sans', 'Bitstream Vera Sans', sans-serif; text-anchor: end; fill: #808080" x="214.186446" y="12.92625" transform="rotate(-0 214.186446 12.92625)">International Poverty Line</text>
    </g>
    <g id="text_12">
     <text style="font-size: 8px; font-family: 'Arial', 'DejaVu Sans', 'Liberation Sans', 'Bitstream Vera Sans', sans-serif; text-anchor: end; fill: #808080" x="214.186446" y="22.86375" transform="rotate(-0 214.186446 22.86375)">$90 per month</text>
    </g>
   </g>
   <g id="legend_1">
    <g id="patch_3">
     <path d="M 683.8 119.597937 
L 756.364063 119.597937 
Q 758.364063 119.597937 758.364063 117.597937 
L 758.364063 75.80575 
Q 758.364063 73.80575 756.364063 73.80575 
L 683.8 73.80575 
Q 681.8 73.80575 681.8 75.80575 
L 681.8 117.597937 
Q 681.8 119.597937 683.8 119.597937 
z
" style="fill: #ffffff; opacity: 0.8; stroke: #cccccc; stroke-linejoin: miter"/>
    </g>
    <g id="text_13">
     <text style="font-size: 10px; font-family: 'Arial', 'DejaVu Sans', 'Liberation Sans', 'Bitstream Vera Sans', sans-serif; text-anchor: start; fill: #262626" x="702.575781" y="85.085437" transform="rotate(-0 702.575781 85.085437)">Country</text>
    </g>
    <g id="line2d_32">
     <path d="M 685.8 95.847937 
L 695.8 95.847937 
L 705.8 95.847937 
" style="fill: none; stroke: #4c72b0; stroke-width: 1.5; stroke-linecap: round"/>
    </g>
    <g id="text_14">
     <text style="font-size: 10px; font-family: 'Arial', 'DejaVu Sans', 'Liberation Sans', 'Bitstream Vera Sans', sans-serif; text-anchor: start; fill: #262626" x="713.8" y="99.347937" transform="rotate(-0 713.8 99.347937)">Denmark</text>
    </g>
    <g id="line2d_33">
     <path d="M 685.8 109.99325 
L 695.8 109.99325 
L 705.8 109.99325 
" style="fill: none; stroke: #dd8452; stroke-width: 1.5; stroke-linecap: round"/>
    </g>
    <g id="text_15">
     <text style="font-size: 10px; font-family: 'Arial', 'DejaVu Sans', 'Liberation Sans', 'Bitstream Vera Sans', sans-serif; text-anchor: start; fill: #262626" x="713.8" y="113.49325" transform="rotate(-0 713.8 113.49325)">Niger</text>
    </g>
   </g>
  </g>
 </g>
</svg>
