<?xml version="1.0" encoding="utf-8" standalone="no"?>
<!DOCTYPE svg PUBLIC "-//W3C//DTD SVG 1.1//EN"
  "http://www.w3.org/Graphics/SVG/1.1/DTD/svg11.dtd">
<svg xmlns:xlink="http://www.w3.org/1999/xlink" width="851.4pt" height="265.689687pt" viewBox="0 0 851.4 265.689687" xmlns="http://www.w3.org/2000/svg" version="1.1">
 <metadata>
  <rdf:RDF xmlns:dc="http://purl.org/dc/elements/1.1/" xmlns:cc="http://creativecommons.org/ns#" xmlns:rdf="http://www.w3.org/1999/02/22-rdf-syntax-ns#">
   <cc:Work>
    <dc:type rdf:resource="http://purl.org/dc/dcmitype/StillImage"/>
    <dc:date>2025-08-14T18:13:22.739621</dc:date>
    <dc:format>image/svg+xml</dc:format>
    <dc:creator>
     <cc:Agent>
      <dc:title>Matplotlib v3.10.1, https://matplotlib.org/</dc:title>
     </cc:Agent>
    </dc:creator>
   </cc:Work>
  </rdf:RDF>
 </metadata>
 <defs>
  <style type="text/css">*{stroke-linejoin: round; stroke-linecap: butt}</style>
 </defs>
 <g id="figure_1">
  <g id="patch_1">
   <path d="M 0 265.689687 
L 851.4 265.689687 
L 851.4 0 
L 0 0 
z
" style="fill: #ffffff"/>
  </g>
  <g id="axes_1">
   <g id="patch_2">
    <path d="M 7.2 228.96 
L 844.2 228.96 
L 844.2 7.2 
L 7.2 7.2 
z
" style="fill: #ffffff"/>
   </g>
   <g id="matplotlib.axis_1">
    <g id="xtick_1">
     <g id="line2d_1">
      <defs>
       <path id="mb3097b219b" d="M 0 0 
L 0 3.5 
" style="stroke: #262626; stroke-width: 0.8"/>
      </defs>
      <g>
       <use xlink:href="#mb3097b219b" x="159.841731" y="228.96" style="fill: #262626; stroke: #262626; stroke-width: 0.8"/>
      </g>
     </g>
     <g id="text_1">
      <text style="font-size: 10px; font-family: 'Arial', 'DejaVu Sans', 'Liberation Sans', 'Bitstream Vera Sans', sans-serif; text-anchor: middle; fill: #262626" x="159.841731" y="243.117812" transform="rotate(-0 159.841731 243.117812)">1</text>
     </g>
    </g>
    <g id="xtick_2">
     <g id="line2d_2">
      <g>
       <use xlink:href="#mb3097b219b" x="224.766126" y="228.96" style="fill: #262626; stroke: #262626; stroke-width: 0.8"/>
      </g>
     </g>
     <g id="text_2">
      <text style="font-size: 10px; font-family: 'Arial', 'DejaVu Sans', 'Liberation Sans', 'Bitstream Vera Sans', sans-serif; text-anchor: middle; fill: #262626" x="224.766126" y="243.117812" transform="rotate(-0 224.766126 243.117812)">2</text>
     </g>
    </g>
    <g id="xtick_3">
     <g id="line2d_3">
      <g>
       <use xlink:href="#mb3097b219b" x="310.591508" y="228.96" style="fill: #262626; stroke: #262626; stroke-width: 0.8"/>
      </g>
     </g>
     <g id="text_3">
      <text style="font-size: 10px; font-family: 'Arial', 'DejaVu Sans', 'Liberation Sans', 'Bitstream Vera Sans', sans-serif; text-anchor: middle; fill: #262626" x="310.591508" y="243.117812" transform="rotate(-0 310.591508 243.117812)">5</text>
     </g>
    </g>
    <g id="xtick_4">
     <g id="line2d_4">
      <g>
       <use xlink:href="#mb3097b219b" x="375.515904" y="228.96" style="fill: #262626; stroke: #262626; stroke-width: 0.8"/>
      </g>
     </g>
     <g id="text_4">
      <text style="font-size: 10px; font-family: 'Arial', 'DejaVu Sans', 'Liberation Sans', 'Bitstream Vera Sans', sans-serif; text-anchor: middle; fill: #262626" x="375.515904" y="243.117812" transform="rotate(-0 375.515904 243.117812)">10</text>
     </g>
    </g>
    <g id="xtick_5">
     <g id="line2d_5">
      <g>
       <use xlink:href="#mb3097b219b" x="440.440299" y="228.96" style="fill: #262626; stroke: #262626; stroke-width: 0.8"/>
      </g>
     </g>
     <g id="text_5">
      <text style="font-size: 10px; font-family: 'Arial', 'DejaVu Sans', 'Liberation Sans', 'Bitstream Vera Sans', sans-serif; text-anchor: middle; fill: #262626" x="440.440299" y="243.117812" transform="rotate(-0 440.440299 243.117812)">20</text>
     </g>
    </g>
    <g id="xtick_6">
     <g id="line2d_6">
      <g>
       <use xlink:href="#mb3097b219b" x="526.265681" y="228.96" style="fill: #262626; stroke: #262626; stroke-width: 0.8"/>
      </g>
     </g>
     <g id="text_6">
      <text style="font-size: 10px; font-family: 'Arial', 'DejaVu Sans', 'Liberation Sans', 'Bitstream Vera Sans', sans-serif; text-anchor: middle; fill: #262626" x="526.265681" y="243.117812" transform="rotate(-0 526.265681 243.117812)">50</text>
     </g>
    </g>
    <g id="xtick_7">
     <g id="line2d_7">
      <g>
       <use xlink:href="#mb3097b219b" x="591.190077" y="228.96" style="fill: #262626; stroke: #262626; stroke-width: 0.8"/>
      </g>
     </g>
     <g id="text_7">
      <text style="font-size: 10px; font-family: 'Arial', 'DejaVu Sans', 'Liberation Sans', 'Bitstream Vera Sans', sans-serif; text-anchor: middle; fill: #262626" x="591.190077" y="243.117812" transform="rotate(-0 591.190077 243.117812)">100</text>
     </g>
    </g>
    <g id="xtick_8">
     <g id="line2d_8">
      <g>
       <use xlink:href="#mb3097b219b" x="656.114472" y="228.96" style="fill: #262626; stroke: #262626; stroke-width: 0.8"/>
      </g>
     </g>
     <g id="text_8">
      <text style="font-size: 10px; font-family: 'Arial', 'DejaVu Sans', 'Liberation Sans', 'Bitstream Vera Sans', sans-serif; text-anchor: middle; fill: #262626" x="656.114472" y="243.117812" transform="rotate(-0 656.114472 243.117812)">200</text>
     </g>
    </g>
    <g id="xtick_9">
     <g id="line2d_9">
      <g>
       <use xlink:href="#mb3097b219b" x="741.939854" y="228.96" style="fill: #262626; stroke: #262626; stroke-width: 0.8"/>
      </g>
     </g>
     <g id="text_9">
      <text style="font-size: 10px; font-family: 'Arial', 'DejaVu Sans', 'Liberation Sans', 'Bitstream Vera Sans', sans-serif; text-anchor: middle; fill: #262626" x="741.939854" y="243.117812" transform="rotate(-0 741.939854 243.117812)">500</text>
     </g>
    </g>
    <g id="xtick_10">
     <g id="line2d_10">
      <g>
       <use xlink:href="#mb3097b219b" x="806.86425" y="228.96" style="fill: #262626; stroke: #262626; stroke-width: 0.8"/>
      </g>
     </g>
     <g id="text_10">
      <text style="font-size: 10px; font-family: 'Arial', 'DejaVu Sans', 'Liberation Sans', 'Bitstream Vera Sans', sans-serif; text-anchor: middle; fill: #262626" x="806.86425" y="243.117812" transform="rotate(-0 806.86425 243.117812)">1000</text>
     </g>
    </g>
    <g id="xtick_11">
     <g id="line2d_11">
      <defs>
       <path id="m9f83f7be06" d="M 0 0 
L 0 2 
" style="stroke: #262626; stroke-width: 0.6"/>
      </defs>
      <g>
       <use xlink:href="#m9f83f7be06" x="9.091953" y="228.96" style="fill: #262626; stroke: #262626; stroke-width: 0.6"/>
      </g>
     </g>
    </g>
    <g id="xtick_12">
     <g id="line2d_12">
      <g>
       <use xlink:href="#m9f83f7be06" x="47.07029" y="228.96" style="fill: #262626; stroke: #262626; stroke-width: 0.6"/>
      </g>
     </g>
    </g>
    <g id="xtick_13">
     <g id="line2d_13">
      <g>
       <use xlink:href="#m9f83f7be06" x="74.016348" y="228.96" style="fill: #262626; stroke: #262626; stroke-width: 0.6"/>
      </g>
     </g>
    </g>
    <g id="xtick_14">
     <g id="line2d_14">
      <g>
       <use xlink:href="#m9f83f7be06" x="94.917335" y="228.96" style="fill: #262626; stroke: #262626; stroke-width: 0.6"/>
      </g>
     </g>
    </g>
    <g id="xtick_15">
     <g id="line2d_15">
      <g>
       <use xlink:href="#m9f83f7be06" x="111.994685" y="228.96" style="fill: #262626; stroke: #262626; stroke-width: 0.6"/>
      </g>
     </g>
    </g>
    <g id="xtick_16">
     <g id="line2d_16">
      <g>
       <use xlink:href="#m9f83f7be06" x="126.433378" y="228.96" style="fill: #262626; stroke: #262626; stroke-width: 0.6"/>
      </g>
     </g>
    </g>
    <g id="xtick_17">
     <g id="line2d_17">
      <g>
       <use xlink:href="#m9f83f7be06" x="138.940744" y="228.96" style="fill: #262626; stroke: #262626; stroke-width: 0.6"/>
      </g>
     </g>
    </g>
    <g id="xtick_18">
     <g id="line2d_18">
      <g>
       <use xlink:href="#m9f83f7be06" x="149.973022" y="228.96" style="fill: #262626; stroke: #262626; stroke-width: 0.6"/>
      </g>
     </g>
    </g>
    <g id="xtick_19">
     <g id="line2d_19">
      <g>
       <use xlink:href="#m9f83f7be06" x="262.744463" y="228.96" style="fill: #262626; stroke: #262626; stroke-width: 0.6"/>
      </g>
     </g>
    </g>
    <g id="xtick_20">
     <g id="line2d_20">
      <g>
       <use xlink:href="#m9f83f7be06" x="289.690521" y="228.96" style="fill: #262626; stroke: #262626; stroke-width: 0.6"/>
      </g>
     </g>
    </g>
    <g id="xtick_21">
     <g id="line2d_21">
      <g>
       <use xlink:href="#m9f83f7be06" x="327.668858" y="228.96" style="fill: #262626; stroke: #262626; stroke-width: 0.6"/>
      </g>
     </g>
    </g>
    <g id="xtick_22">
     <g id="line2d_22">
      <g>
       <use xlink:href="#m9f83f7be06" x="342.107551" y="228.96" style="fill: #262626; stroke: #262626; stroke-width: 0.6"/>
      </g>
     </g>
    </g>
    <g id="xtick_23">
     <g id="line2d_23">
      <g>
       <use xlink:href="#m9f83f7be06" x="354.614917" y="228.96" style="fill: #262626; stroke: #262626; stroke-width: 0.6"/>
      </g>
     </g>
    </g>
    <g id="xtick_24">
     <g id="line2d_24">
      <g>
       <use xlink:href="#m9f83f7be06" x="365.647195" y="228.96" style="fill: #262626; stroke: #262626; stroke-width: 0.6"/>
      </g>
     </g>
    </g>
    <g id="xtick_25">
     <g id="line2d_25">
      <g>
       <use xlink:href="#m9f83f7be06" x="478.418636" y="228.96" style="fill: #262626; stroke: #262626; stroke-width: 0.6"/>
      </g>
     </g>
    </g>
    <g id="xtick_26">
     <g id="line2d_26">
      <g>
       <use xlink:href="#m9f83f7be06" x="505.364694" y="228.96" style="fill: #262626; stroke: #262626; stroke-width: 0.6"/>
      </g>
     </g>
    </g>
    <g id="xtick_27">
     <g id="line2d_27">
      <g>
       <use xlink:href="#m9f83f7be06" x="543.343031" y="228.96" style="fill: #262626; stroke: #262626; stroke-width: 0.6"/>
      </g>
     </g>
    </g>
    <g id="xtick_28">
     <g id="line2d_28">
      <g>
       <use xlink:href="#m9f83f7be06" x="557.781724" y="228.96" style="fill: #262626; stroke: #262626; stroke-width: 0.6"/>
      </g>
     </g>
    </g>
    <g id="xtick_29">
     <g id="line2d_29">
      <g>
       <use xlink:href="#m9f83f7be06" x="570.28909" y="228.96" style="fill: #262626; stroke: #262626; stroke-width: 0.6"/>
      </g>
     </g>
    </g>
    <g id="xtick_30">
     <g id="line2d_30">
      <g>
       <use xlink:href="#m9f83f7be06" x="581.321368" y="228.96" style="fill: #262626; stroke: #262626; stroke-width: 0.6"/>
      </g>
     </g>
    </g>
    <g id="xtick_31">
     <g id="line2d_31">
      <g>
       <use xlink:href="#m9f83f7be06" x="694.092809" y="228.96" style="fill: #262626; stroke: #262626; stroke-width: 0.6"/>
      </g>
     </g>
    </g>
    <g id="xtick_32">
     <g id="line2d_32">
      <g>
       <use xlink:href="#m9f83f7be06" x="721.038867" y="228.96" style="fill: #262626; stroke: #262626; stroke-width: 0.6"/>
      </g>
     </g>
    </g>
    <g id="xtick_33">
     <g id="line2d_33">
      <g>
       <use xlink:href="#m9f83f7be06" x="759.017204" y="228.96" style="fill: #262626; stroke: #262626; stroke-width: 0.6"/>
      </g>
     </g>
    </g>
    <g id="xtick_34">
     <g id="line2d_34">
      <g>
       <use xlink:href="#m9f83f7be06" x="773.455898" y="228.96" style="fill: #262626; stroke: #262626; stroke-width: 0.6"/>
      </g>
     </g>
    </g>
    <g id="xtick_35">
     <g id="line2d_35">
      <g>
       <use xlink:href="#m9f83f7be06" x="785.963263" y="228.96" style="fill: #262626; stroke: #262626; stroke-width: 0.6"/>
      </g>
     </g>
    </g>
    <g id="xtick_36">
     <g id="line2d_36">
      <g>
       <use xlink:href="#m9f83f7be06" x="796.995541" y="228.96" style="fill: #262626; stroke: #262626; stroke-width: 0.6"/>
      </g>
     </g>
    </g>
    <g id="text_11">
     <text style="font-size: 10px; font-family: 'Arial', 'DejaVu Sans', 'Liberation Sans', 'Bitstream Vera Sans', sans-serif; text-anchor: middle; fill: #262626" x="425.7" y="256.385" transform="rotate(-0 425.7 256.385)">Income or consumption (day)</text>
    </g>
   </g>
   <g id="matplotlib.axis_2"/>
   <g id="FillBetweenPolyCollection_1">
    <defs>
     <path id="m57de971c3d" d="M 45.245455 -36.77417 
L 45.245455 -36.729688 
L 47.845075 -36.729688 
L 50.444695 -36.729688 
L 53.044315 -36.729688 
L 55.643935 -36.729688 
L 58.243555 -36.729688 
L 60.843175 -36.729688 
L 63.442795 -36.729688 
L 66.042415 -36.729688 
L 68.642036 -36.729688 
L 71.241656 -36.729688 
L 73.841276 -36.729688 
L 76.440896 -36.729688 
L 79.040516 -36.729688 
L 81.640136 -36.729688 
L 84.239756 -36.729688 
L 86.839376 -36.729688 
L 89.438996 -36.729688 
L 92.038617 -36.729688 
L 94.638237 -36.729688 
L 97.237857 -36.729688 
L 99.837477 -36.729688 
L 102.437097 -36.729688 
L 105.036717 -36.729688 
L 107.636337 -36.729688 
L 110.235957 -36.729688 
L 112.835577 -36.729688 
L 115.435198 -36.729688 
L 118.034818 -36.729688 
L 120.634438 -36.729688 
L 123.234058 -36.729688 
L 125.833678 -36.729688 
L 128.433298 -36.729688 
L 131.032918 -36.729688 
L 133.632538 -36.729688 
L 136.232159 -36.729688 
L 138.831779 -36.729688 
L 141.431399 -36.729688 
L 144.031019 -36.729688 
L 146.630639 -36.729688 
L 149.230259 -36.729688 
L 151.829879 -36.729688 
L 154.429499 -36.729688 
L 157.029119 -36.729688 
L 159.62874 -36.729688 
L 162.22836 -36.729688 
L 164.82798 -36.729688 
L 167.4276 -36.729688 
L 170.02722 -36.729688 
L 172.62684 -36.729688 
L 175.22646 -36.729688 
L 177.82608 -36.729688 
L 180.4257 -36.729688 
L 183.025321 -36.729688 
L 185.624941 -36.729688 
L 188.224561 -36.729688 
L 190.824181 -36.729688 
L 193.423801 -36.729688 
L 196.023421 -36.729688 
L 198.623041 -36.729688 
L 201.222661 -36.729688 
L 203.822281 -36.729688 
L 206.421902 -36.729688 
L 209.021522 -36.729688 
L 211.621142 -36.729688 
L 214.220762 -36.729688 
L 216.820382 -36.729688 
L 219.420002 -36.729688 
L 222.019622 -36.729688 
L 224.619242 -36.729688 
L 227.218862 -36.729688 
L 229.818483 -36.729688 
L 232.418103 -36.729688 
L 235.017723 -36.729688 
L 237.617343 -36.729688 
L 240.216963 -36.729688 
L 242.816583 -36.729688 
L 245.416203 -36.729688 
L 248.015823 -36.729688 
L 250.615443 -36.729688 
L 253.215064 -36.729688 
L 255.814684 -36.729688 
L 258.414304 -36.729688 
L 261.013924 -36.729688 
L 263.613544 -36.729688 
L 266.213164 -36.729688 
L 268.812784 -36.729688 
L 271.412404 -36.729688 
L 274.012025 -36.729688 
L 276.611645 -36.729688 
L 279.211265 -36.729688 
L 281.810885 -36.729688 
L 284.410505 -36.729688 
L 287.010125 -36.729688 
L 289.609745 -36.729688 
L 292.209365 -36.729688 
L 294.808985 -36.729688 
L 297.408606 -36.729688 
L 300.008226 -36.729688 
L 302.607846 -36.729688 
L 305.207466 -36.729688 
L 307.807086 -36.729688 
L 310.406706 -36.729688 
L 313.006326 -36.729688 
L 315.605946 -36.729688 
L 318.205566 -36.729688 
L 320.805187 -36.729688 
L 323.404807 -36.729688 
L 326.004427 -36.729688 
L 328.604047 -36.729688 
L 331.203667 -36.729688 
L 333.803287 -36.729688 
L 336.402907 -36.729688 
L 339.002527 -36.729688 
L 341.602147 -36.729688 
L 344.201768 -36.729688 
L 346.801388 -36.729688 
L 349.401008 -36.729688 
L 352.000628 -36.729688 
L 354.600248 -36.729688 
L 357.199868 -36.729688 
L 359.799488 -36.729688 
L 362.399108 -36.729688 
L 364.998728 -36.729688 
L 367.598349 -36.729688 
L 370.197969 -36.729688 
L 372.797589 -36.729688 
L 375.397209 -36.729688 
L 377.996829 -36.729688 
L 380.596449 -36.729688 
L 383.196069 -36.729688 
L 385.795689 -36.729688 
L 388.395309 -36.729688 
L 390.99493 -36.729688 
L 393.59455 -36.729688 
L 396.19417 -36.729688 
L 398.79379 -36.729688 
L 401.39341 -36.729688 
L 403.99303 -36.729688 
L 406.59265 -36.729688 
L 409.19227 -36.729688 
L 411.791891 -36.729688 
L 414.391511 -36.729688 
L 416.991131 -36.729688 
L 419.590751 -36.729688 
L 422.190371 -36.729688 
L 424.789991 -36.729688 
L 427.389611 -36.729688 
L 429.989231 -36.729688 
L 432.588851 -36.729688 
L 435.188472 -36.729688 
L 437.788092 -36.729688 
L 440.387712 -36.729688 
L 442.987332 -36.729688 
L 445.586952 -36.729688 
L 448.186572 -36.729688 
L 450.786192 -36.729688 
L 453.385812 -36.729688 
L 455.985432 -36.729688 
L 458.585053 -36.729688 
L 461.184673 -36.729688 
L 463.784293 -36.729688 
L 466.383913 -36.729688 
L 468.983533 -36.729688 
L 471.583153 -36.729688 
L 474.182773 -36.729688 
L 476.782393 -36.729688 
L 479.382013 -36.729688 
L 481.981634 -36.729688 
L 484.581254 -36.729688 
L 487.180874 -36.729688 
L 489.780494 -36.729688 
L 492.380114 -36.729688 
L 494.979734 -36.729688 
L 497.579354 -36.729688 
L 500.178974 -36.729688 
L 502.778594 -36.729688 
L 505.378215 -36.729688 
L 507.977835 -36.729688 
L 510.577455 -36.729688 
L 513.177075 -36.729688 
L 515.776695 -36.729688 
L 518.376315 -36.729688 
L 520.975935 -36.729688 
L 523.575555 -36.729688 
L 526.175175 -36.729688 
L 528.774796 -36.729688 
L 531.374416 -36.729688 
L 533.974036 -36.729688 
L 536.573656 -36.729688 
L 539.173276 -36.729688 
L 541.772896 -36.729688 
L 544.372516 -36.729688 
L 546.972136 -36.729688 
L 549.571757 -36.729688 
L 552.171377 -36.729688 
L 554.770997 -36.729688 
L 557.370617 -36.729688 
L 559.970237 -36.729688 
L 562.569857 -36.729688 
L 562.569857 -36.773979 
L 562.569857 -36.773979 
L 559.970237 -36.790355 
L 557.370617 -36.811845 
L 554.770997 -36.839687 
L 552.171377 -36.875298 
L 549.571757 -36.920256 
L 546.972136 -36.976274 
L 544.372516 -37.045152 
L 541.772896 -37.128709 
L 539.173276 -37.2287 
L 536.573656 -37.346712 
L 533.974036 -37.484041 
L 531.374416 -37.641568 
L 528.774796 -37.819626 
L 526.175175 -38.017879 
L 523.575555 -38.235225 
L 520.975935 -38.469717 
L 518.376315 -38.718547 
L 515.776695 -38.978066 
L 513.177075 -39.243876 
L 510.577455 -39.510977 
L 507.977835 -39.773984 
L 505.378215 -40.027392 
L 502.778594 -40.265878 
L 500.178974 -40.484634 
L 497.579354 -40.679695 
L 494.979734 -40.848237 
L 492.380114 -40.988838 
L 489.780494 -41.101657 
L 487.180874 -41.188532 
L 484.581254 -41.252974 
L 481.981634 -41.300059 
L 479.382013 -41.336223 
L 476.782393 -41.368964 
L 474.182773 -41.406488 
L 471.583153 -41.457306 
L 468.983533 -41.529824 
L 466.383913 -41.631945 
L 463.784293 -41.770724 
L 461.184673 -41.952084 
L 458.585053 -42.180619 
L 455.985432 -42.459495 
L 453.385812 -42.790439 
L 450.786192 -43.173826 
L 448.186572 -43.608837 
L 445.586952 -44.093676 
L 442.987332 -44.625831 
L 440.387712 -45.202339 
L 437.788092 -45.820062 
L 435.188472 -46.475928 
L 432.588851 -47.167146 
L 429.989231 -47.891376 
L 427.389611 -48.646852 
L 424.789991 -49.432465 
L 422.190371 -50.247801 
L 419.590751 -51.093154 
L 416.991131 -51.969512 
L 414.391511 -52.878524 
L 411.791891 -53.822469 
L 409.19227 -54.804213 
L 406.59265 -55.827161 
L 403.99303 -56.895224 
L 401.39341 -58.012765 
L 398.79379 -59.184553 
L 396.19417 -60.415707 
L 393.59455 -61.711625 
L 390.99493 -63.077905 
L 388.395309 -64.52025 
L 385.795689 -66.044361 
L 383.196069 -67.655814 
L 380.596449 -69.359935 
L 377.996829 -71.161656 
L 375.397209 -73.065386 
L 372.797589 -75.074868 
L 370.197969 -77.193059 
L 367.598349 -79.422011 
L 364.998728 -81.762786 
L 362.399108 -84.215381 
L 359.799488 -86.778695 
L 357.199868 -89.450524 
L 354.600248 -92.2276 
L 352.000628 -95.105664 
L 349.401008 -98.079585 
L 346.801388 -101.143509 
L 344.201768 -104.291048 
L 341.602147 -107.515478 
L 339.002527 -110.809962 
L 336.402907 -114.167756 
L 333.803287 -117.582402 
L 331.203667 -121.047882 
L 328.604047 -124.558716 
L 326.004427 -128.109997 
L 323.404807 -131.697348 
L 320.805187 -135.316797 
L 318.205566 -138.964573 
L 315.605946 -142.636824 
L 313.006326 -146.329281 
L 310.406706 -150.036874 
L 307.807086 -153.753335 
L 305.207466 -157.470809 
L 302.607846 -161.179497 
L 300.008226 -164.867364 
L 297.408606 -168.519928 
L 294.808985 -172.120151 
L 292.209365 -175.648443 
L 289.609745 -179.08277 
L 287.010125 -182.39889 
L 284.410505 -185.570674 
L 281.810885 -188.570517 
L 279.211265 -191.36982 
L 276.611645 -193.939503 
L 274.012025 -196.250553 
L 271.412404 -198.274569 
L 268.812784 -199.984293 
L 266.213164 -201.35412 
L 263.613544 -202.360575 
L 261.013924 -202.982744 
L 258.414304 -203.202681 
L 255.814684 -203.005765 
L 253.215064 -202.381025 
L 250.615443 -201.321429 
L 248.015823 -199.824131 
L 245.416203 -197.890679 
L 242.816583 -195.527166 
L 240.216963 -192.744329 
L 237.617343 -189.557567 
L 235.017723 -185.986884 
L 232.418103 -182.056724 
L 229.818483 -177.795717 
L 227.218862 -173.236308 
L 224.619242 -168.414277 
L 222.019622 -163.368165 
L 219.420002 -158.138606 
L 216.820382 -152.767587 
L 214.220762 -147.297666 
L 211.621142 -141.771159 
L 209.021522 -136.229348 
L 206.421902 -130.711715 
L 203.822281 -125.255251 
L 201.222661 -119.893849 
L 198.623041 -114.657819 
L 196.023421 -109.573529 
L 193.423801 -104.663188 
L 190.824181 -99.944766 
L 188.224561 -95.432066 
L 185.624941 -91.134909 
L 183.025321 -87.059438 
L 180.4257 -83.208515 
L 177.82608 -79.582168 
L 175.22646 -76.178083 
L 172.62684 -72.992097 
L 170.02722 -70.018664 
L 167.4276 -67.251281 
L 164.82798 -64.682835 
L 162.22836 -62.305874 
L 159.62874 -60.112792 
L 157.029119 -58.095912 
L 154.429499 -56.247504 
L 151.829879 -54.559729 
L 149.230259 -53.024536 
L 146.630639 -51.633547 
L 144.031019 -50.37794 
L 141.431399 -49.248361 
L 138.831779 -48.234888 
L 136.232159 -47.327056 
L 133.632538 -46.513951 
L 131.032918 -45.784382 
L 128.433298 -45.127101 
L 125.833678 -44.531081 
L 123.234058 -43.985808 
L 120.634438 -43.481576 
L 118.034818 -43.009757 
L 115.435198 -42.563017 
L 112.835577 -42.135469 
L 110.235957 -41.722744 
L 107.636337 -41.321976 
L 105.036717 -40.93171 
L 102.437097 -40.551732 
L 99.837477 -40.182848 
L 97.237857 -39.82662 
L 94.638237 -39.485094 
L 92.038617 -39.160526 
L 89.438996 -38.855139 
L 86.839376 -38.570907 
L 84.239756 -38.309402 
L 81.640136 -38.07168 
L 79.040516 -37.858233 
L 76.440896 -37.668975 
L 73.841276 -37.503289 
L 71.241656 -37.360083 
L 68.642036 -37.237888 
L 66.042415 -37.134953 
L 63.442795 -37.049349 
L 60.843175 -36.979065 
L 58.243555 -36.922091 
L 55.643935 -36.876492 
L 53.044315 -36.840455 
L 50.444695 -36.812333 
L 47.845075 -36.790662 
L 45.245455 -36.77417 
z
" style="stroke: #dd8452"/>
    </defs>
    <g>
     <use xlink:href="#m57de971c3d" x="0" y="265.689687" style="fill: #dd8452; fill-opacity: 0.25; stroke: #dd8452"/>
    </g>
   </g>
   <g id="FillBetweenPolyCollection_2">
    <defs>
     <path id="mca51988f27" d="M 268.214461 -36.782771 
L 268.214461 -36.729688 
L 270.917677 -36.729688 
L 273.620894 -36.729688 
L 276.32411 -36.729688 
L 279.027327 -36.729688 
L 281.730543 -36.729688 
L 284.43376 -36.729688 
L 287.136976 -36.729688 
L 289.840193 -36.729688 
L 292.543409 -36.729688 
L 295.246626 -36.729688 
L 297.949842 -36.729688 
L 300.653059 -36.729688 
L 303.356275 -36.729688 
L 306.059492 -36.729688 
L 308.762708 -36.729688 
L 311.465925 -36.729688 
L 314.169141 -36.729688 
L 316.872358 -36.729688 
L 319.575574 -36.729688 
L 322.278791 -36.729688 
L 324.982007 -36.729688 
L 327.685224 -36.729688 
L 330.38844 -36.729688 
L 333.091657 -36.729688 
L 335.794873 -36.729688 
L 338.49809 -36.729688 
L 341.201306 -36.729688 
L 343.904523 -36.729688 
L 346.607739 -36.729688 
L 349.310956 -36.729688 
L 352.014172 -36.729688 
L 354.717389 -36.729688 
L 357.420605 -36.729688 
L 360.123822 -36.729688 
L 362.827038 -36.729688 
L 365.530255 -36.729688 
L 368.233471 -36.729688 
L 370.936688 -36.729688 
L 373.639904 -36.729688 
L 376.343121 -36.729688 
L 379.046337 -36.729688 
L 381.749554 -36.729688 
L 384.45277 -36.729688 
L 387.155987 -36.729688 
L 389.859203 -36.729688 
L 392.56242 -36.729688 
L 395.265636 -36.729688 
L 397.968853 -36.729688 
L 400.672069 -36.729688 
L 403.375286 -36.729688 
L 406.078502 -36.729688 
L 408.781719 -36.729688 
L 411.484935 -36.729688 
L 414.188152 -36.729688 
L 416.891369 -36.729688 
L 419.594585 -36.729688 
L 422.297802 -36.729688 
L 425.001018 -36.729688 
L 427.704235 -36.729688 
L 430.407451 -36.729688 
L 433.110668 -36.729688 
L 435.813884 -36.729688 
L 438.517101 -36.729688 
L 441.220317 -36.729688 
L 443.923534 -36.729688 
L 446.62675 -36.729688 
L 449.329967 -36.729688 
L 452.033183 -36.729688 
L 454.7364 -36.729688 
L 457.439616 -36.729688 
L 460.142833 -36.729688 
L 462.846049 -36.729688 
L 465.549266 -36.729688 
L 468.252482 -36.729688 
L 470.955699 -36.729688 
L 473.658915 -36.729688 
L 476.362132 -36.729688 
L 479.065348 -36.729688 
L 481.768565 -36.729688 
L 484.471781 -36.729688 
L 487.174998 -36.729688 
L 489.878214 -36.729688 
L 492.581431 -36.729688 
L 495.284647 -36.729688 
L 497.987864 -36.729688 
L 500.69108 -36.729688 
L 503.394297 -36.729688 
L 506.097513 -36.729688 
L 508.80073 -36.729688 
L 511.503946 -36.729688 
L 514.207163 -36.729688 
L 516.910379 -36.729688 
L 519.613596 -36.729688 
L 522.316812 -36.729688 
L 525.020029 -36.729688 
L 527.723245 -36.729688 
L 530.426462 -36.729688 
L 533.129678 -36.729688 
L 535.832895 -36.729688 
L 538.536111 -36.729688 
L 541.239328 -36.729688 
L 543.942544 -36.729688 
L 546.645761 -36.729688 
L 549.348977 -36.729688 
L 552.052194 -36.729688 
L 554.75541 -36.729688 
L 557.458627 -36.729688 
L 560.161843 -36.729688 
L 562.86506 -36.729688 
L 565.568276 -36.729688 
L 568.271493 -36.729688 
L 570.974709 -36.729688 
L 573.677926 -36.729688 
L 576.381142 -36.729688 
L 579.084359 -36.729688 
L 581.787575 -36.729688 
L 584.490792 -36.729688 
L 587.194008 -36.729688 
L 589.897225 -36.729688 
L 592.600441 -36.729688 
L 595.303658 -36.729688 
L 598.006874 -36.729688 
L 600.710091 -36.729688 
L 603.413307 -36.729688 
L 606.116524 -36.729688 
L 608.81974 -36.729688 
L 611.522957 -36.729688 
L 614.226173 -36.729688 
L 616.92939 -36.729688 
L 619.632606 -36.729688 
L 622.335823 -36.729688 
L 625.03904 -36.729688 
L 627.742256 -36.729688 
L 630.445473 -36.729688 
L 633.148689 -36.729688 
L 635.851906 -36.729688 
L 638.555122 -36.729688 
L 641.258339 -36.729688 
L 643.961555 -36.729688 
L 646.664772 -36.729688 
L 649.367988 -36.729688 
L 652.071205 -36.729688 
L 654.774421 -36.729688 
L 657.477638 -36.729688 
L 660.180854 -36.729688 
L 662.884071 -36.729688 
L 665.587287 -36.729688 
L 668.290504 -36.729688 
L 670.99372 -36.729688 
L 673.696937 -36.729688 
L 676.400153 -36.729688 
L 679.10337 -36.729688 
L 681.806586 -36.729688 
L 684.509803 -36.729688 
L 687.213019 -36.729688 
L 689.916236 -36.729688 
L 692.619452 -36.729688 
L 695.322669 -36.729688 
L 698.025885 -36.729688 
L 700.729102 -36.729688 
L 703.432318 -36.729688 
L 706.135535 -36.729688 
L 708.838751 -36.729688 
L 711.541968 -36.729688 
L 714.245184 -36.729688 
L 716.948401 -36.729688 
L 719.651617 -36.729688 
L 722.354834 -36.729688 
L 725.05805 -36.729688 
L 727.761267 -36.729688 
L 730.464483 -36.729688 
L 733.1677 -36.729688 
L 735.870916 -36.729688 
L 738.574133 -36.729688 
L 741.277349 -36.729688 
L 743.980566 -36.729688 
L 746.683782 -36.729688 
L 749.386999 -36.729688 
L 752.090215 -36.729688 
L 754.793432 -36.729688 
L 757.496648 -36.729688 
L 760.199865 -36.729688 
L 762.903081 -36.729688 
L 765.606298 -36.729688 
L 768.309514 -36.729688 
L 771.012731 -36.729688 
L 773.715947 -36.729688 
L 776.419164 -36.729688 
L 779.12238 -36.729688 
L 781.825597 -36.729688 
L 784.528813 -36.729688 
L 787.23203 -36.729688 
L 789.935246 -36.729688 
L 792.638463 -36.729688 
L 795.341679 -36.729688 
L 798.044896 -36.729688 
L 800.748112 -36.729688 
L 803.451329 -36.729688 
L 806.154545 -36.729688 
L 806.154545 -36.782771 
L 806.154545 -36.782771 
L 803.451329 -36.808118 
L 800.748112 -36.843535 
L 798.044896 -36.892044 
L 795.341679 -36.957159 
L 792.638463 -37.042795 
L 789.935246 -37.153106 
L 787.23203 -37.292232 
L 784.528813 -37.463953 
L 781.825597 -37.671273 
L 779.12238 -37.915937 
L 776.419164 -38.197945 
L 773.715947 -38.515098 
L 771.012731 -38.862654 
L 768.309514 -39.233143 
L 765.606298 -39.616414 
L 762.903081 -39.999941 
L 760.199865 -40.3694 
L 757.496648 -40.709502 
L 754.793432 -41.005009 
L 752.090215 -41.241855 
L 749.386999 -41.408252 
L 746.683782 -41.495664 
L 743.980566 -41.499537 
L 741.277349 -41.419702 
L 738.574133 -41.260394 
L 735.870916 -41.029906 
L 733.1677 -40.739899 
L 730.464483 -40.404472 
L 727.761267 -40.039096 
L 725.05805 -39.659533 
L 722.354834 -39.28086 
L 719.651617 -38.916688 
L 716.948401 -38.578651 
L 714.245184 -38.276169 
L 711.541968 -38.016499 
L 708.838751 -37.805011 
L 706.135535 -37.645639 
L 703.432318 -37.541421 
L 700.729102 -37.495061 
L 698.025885 -37.50943 
L 695.322669 -37.587961 
L 692.619452 -37.734896 
L 689.916236 -37.955378 
L 687.213019 -38.255383 
L 684.509803 -38.641532 
L 681.806586 -39.120817 
L 679.10337 -39.700299 
L 676.400153 -40.386837 
L 673.696937 -41.186894 
L 670.99372 -42.106481 
L 668.290504 -43.151249 
L 665.587287 -44.326735 
L 662.884071 -45.638751 
L 660.180854 -47.093853 
L 657.477638 -48.699836 
L 654.774421 -50.46617 
L 652.071205 -52.404309 
L 649.367988 -54.52779 
L 646.664772 -56.852095 
L 643.961555 -59.394245 
L 641.258339 -62.172146 
L 638.555122 -65.203732 
L 635.851906 -68.505974 
L 633.148689 -72.093851 
L 630.445473 -75.979371 
L 627.742256 -80.170737 
L 625.03904 -84.671719 
L 622.335823 -89.481294 
L 619.632606 -94.593558 
L 616.92939 -99.997894 
L 614.226173 -105.679355 
L 611.522957 -111.619187 
L 608.81974 -117.795422 
L 606.116524 -124.183449 
L 603.413307 -130.756503 
L 600.710091 -137.486021 
L 598.006874 -144.341841 
L 595.303658 -151.292263 
L 592.600441 -158.303988 
L 589.897225 -165.342 
L 587.194008 -172.369453 
L 584.490792 -179.347602 
L 581.787575 -186.235833 
L 579.084359 -192.991802 
L 576.381142 -199.57167 
L 573.677926 -205.93041 
L 570.974709 -212.022123 
L 568.271493 -217.800323 
L 565.568276 -223.218139 
L 562.86506 -228.228418 
L 560.161843 -232.78373 
L 557.458627 -236.836339 
L 554.75541 -240.338208 
L 552.052194 -243.241158 
L 549.348977 -245.49729 
L 546.645761 -247.059773 
L 543.942544 -247.884082 
L 541.239328 -247.929688 
L 538.536111 -247.162165 
L 535.832895 -245.55559 
L 533.129678 -243.095037 
L 530.426462 -239.77895 
L 527.723245 -235.621116 
L 525.020029 -230.652 
L 522.316812 -224.919224 
L 519.613596 -218.487074 
L 516.910379 -211.434986 
L 514.207163 -203.855082 
L 511.503946 -195.848936 
L 508.80073 -187.523814 
L 506.097513 -178.98869 
L 503.394297 -170.350357 
L 500.69108 -161.709922 
L 497.987864 -153.159913 
L 495.284647 -144.78215 
L 492.581431 -136.646442 
L 489.878214 -128.810069 
L 487.174998 -121.317966 
L 484.471781 -114.203431 
L 481.768565 -107.489218 
L 479.065348 -101.188821 
L 476.362132 -95.307825 
L 473.658915 -89.845229 
L 470.955699 -84.794662 
L 468.252482 -80.145488 
L 465.549266 -75.883785 
L 462.846049 -71.993216 
L 460.142833 -68.455792 
L 457.439616 -65.252525 
L 454.7364 -62.363961 
L 452.033183 -59.770559 
L 449.329967 -57.452914 
L 446.62675 -55.391797 
L 443.923534 -53.568047 
L 441.220317 -51.962346 
L 438.517101 -50.554948 
L 435.813884 -49.325453 
L 433.110668 -48.252702 
L 430.407451 -47.314868 
L 427.704235 -46.489788 
L 425.001018 -45.755518 
L 422.297802 -45.091089 
L 419.594585 -44.477354 
L 416.891369 -43.897828 
L 414.188152 -43.339398 
L 411.484935 -42.79281 
L 408.781719 -42.252847 
L 406.078502 -41.718177 
L 403.375286 -41.190903 
L 400.672069 -40.675861 
L 397.968853 -40.17977 
L 395.265636 -39.710345 
L 392.56242 -39.275472 
L 389.859203 -38.882525 
L 387.155987 -38.537895 
L 384.45277 -38.246727 
L 381.749554 -38.012853 
L 379.046337 -37.838884 
L 376.343121 -37.726369 
L 373.639904 -37.675981 
L 370.936688 -37.687633 
L 368.233471 -37.760502 
L 365.530255 -37.892921 
L 362.827038 -38.082151 
L 360.123822 -38.324069 
L 357.420605 -38.612825 
L 354.717389 -38.940548 
L 352.014172 -39.29717 
L 349.310956 -39.670456 
L 346.607739 -40.046264 
L 343.904523 -40.409083 
L 341.201306 -40.742807 
L 338.49809 -41.031705 
L 335.794873 -41.261486 
L 333.091657 -41.420352 
L 330.38844 -41.499917 
L 327.685224 -41.495881 
L 324.982007 -41.408374 
L 322.278791 -41.241922 
L 319.575574 -41.005045 
L 316.872358 -40.709521 
L 314.169141 -40.36941 
L 311.465925 -39.999946 
L 308.762708 -39.616417 
L 306.059492 -39.233144 
L 303.356275 -38.862655 
L 300.653059 -38.515098 
L 297.949842 -38.197945 
L 295.246626 -37.915937 
L 292.543409 -37.671273 
L 289.840193 -37.463953 
L 287.136976 -37.292232 
L 284.43376 -37.153106 
L 281.730543 -37.042795 
L 279.027327 -36.957159 
L 276.32411 -36.892044 
L 273.620894 -36.843535 
L 270.917677 -36.808118 
L 268.214461 -36.782771 
z
" style="stroke: #4c72b0"/>
    </defs>
    <g>
     <use xlink:href="#mca51988f27" x="0" y="265.689687" style="fill: #4c72b0; fill-opacity: 0.25; stroke: #4c72b0"/>
    </g>
   </g>
   <g id="line2d_37">
    <path d="M 262.744463 228.96 
L 262.744463 7.2 
" style="fill: none; stroke-dasharray: 2.96,1.28; stroke-dashoffset: 0; stroke: #d3d3d3; stroke-width: 0.8"/>
   </g>
   <g id="line2d_38">
    <path d="M 448.030466 228.96 
L 448.030466 7.2 
" style="fill: none; stroke-dasharray: 2.96,1.28; stroke-dashoffset: 0; stroke: #d3d3d3; stroke-width: 0.8"/>
   </g>
   <g id="line2d_39">
    <path d="M 369.220726 228.96 
L 369.220726 7.2 
" style="fill: none; stroke-dasharray: 2.96,1.28; stroke-dashoffset: 0; stroke: #d3d3d3; stroke-width: 0.8"/>
   </g>
   <g id="line2d_40">
    <path d="M 7.2 228.96 
L 844.2 228.96 
" style="fill: none; stroke: #808080; stroke-width: 0.5; stroke-linecap: round"/>
   </g>
   <g id="text_12">
    <text style="font-size: 8px; font-family: 'Arial', 'DejaVu Sans', 'Liberation Sans', 'Bitstream Vera Sans', sans-serif; fill: #808080" transform="translate(268.998213 124.59635) rotate(-90)">International Poverty Line: $3.00</text>
   </g>
   <g id="text_13">
    <text style="font-size: 8px; font-family: 'Arial', 'DejaVu Sans', 'Liberation Sans', 'Bitstream Vera Sans', sans-serif; fill: #808080" transform="translate(453.756716 81.31135) rotate(-90)">World mean: $21.69</text>
   </g>
   <g id="text_14">
    <text style="font-size: 8px; font-family: 'Arial', 'DejaVu Sans', 'Liberation Sans', 'Bitstream Vera Sans', sans-serif; fill: #808080" transform="translate(374.946976 83.08885) rotate(-90)">World median: $9.35</text>
   </g>
   <g id="text_15">
    <text style="font-size: 10px; font-family: 'Arial', 'DejaVu Sans', 'Liberation Sans', 'Bitstream Vera Sans', sans-serif; text-anchor: middle" x="544.9248" y="226.855312" transform="rotate(-0 544.9248 226.855312)">Denmark (2022)</text>
   </g>
   <g id="text_16">
    <text style="font-size: 10px; font-family: 'Arial', 'DejaVu Sans', 'Liberation Sans', 'Bitstream Vera Sans', sans-serif; text-anchor: middle" x="267.611727" y="226.855312" transform="rotate(-0 267.611727 226.855312)">Kenya (2021)</text>
   </g>
  </g>
 </g>
</svg>
