<?xml version="1.0" encoding="utf-8" standalone="no"?>
<!DOCTYPE svg PUBLIC "-//W3C//DTD SVG 1.1//EN"
  "http://www.w3.org/Graphics/SVG/1.1/DTD/svg11.dtd">
<svg xmlns:xlink="http://www.w3.org/1999/xlink" width="851.4pt" height="265.689687pt" viewBox="0 0 851.4 265.689687" xmlns="http://www.w3.org/2000/svg" version="1.1">
 <metadata>
  <rdf:RDF xmlns:dc="http://purl.org/dc/elements/1.1/" xmlns:cc="http://creativecommons.org/ns#" xmlns:rdf="http://www.w3.org/1999/02/22-rdf-syntax-ns#">
   <cc:Work>
    <dc:type rdf:resource="http://purl.org/dc/dcmitype/StillImage"/>
    <dc:date>2025-07-25T10:50:02.323247</dc:date>
    <dc:format>image/svg+xml</dc:format>
    <dc:creator>
     <cc:Agent>
      <dc:title>Matplotlib v3.10.1, https://matplotlib.org/</dc:title>
     </cc:Agent>
    </dc:creator>
   </cc:Work>
  </rdf:RDF>
 </metadata>
 <defs>
  <style type="text/css">*{stroke-linejoin: round; stroke-linecap: butt}</style>
 </defs>
 <g id="figure_1">
  <g id="patch_1">
   <path d="M 0 265.689687 
L 851.4 265.689687 
L 851.4 0 
L 0 0 
z
" style="fill: #ffffff"/>
  </g>
  <g id="axes_1">
   <g id="patch_2">
    <path d="M 7.2 228.96 
L 844.2 228.96 
L 844.2 7.2 
L 7.2 7.2 
z
" style="fill: #ffffff"/>
   </g>
   <g id="matplotlib.axis_1">
    <g id="xtick_1">
     <g id="line2d_1">
      <defs>
       <path id="m7121deb136" d="M 0 0 
L 0 3.5 
" style="stroke: #262626; stroke-width: 0.8"/>
      </defs>
      <g>
       <use xlink:href="#m7121deb136" x="192.600131" y="228.96" style="fill: #262626; stroke: #262626; stroke-width: 0.8"/>
      </g>
     </g>
     <g id="text_1">
      <text style="font-size: 10px; font-family: 'Arial', 'DejaVu Sans', 'Liberation Sans', 'Bitstream Vera Sans', sans-serif; text-anchor: middle; fill: #262626" x="192.600131" y="243.117812" transform="rotate(-0 192.600131 243.117812)">1</text>
     </g>
    </g>
    <g id="xtick_2">
     <g id="line2d_2">
      <g>
       <use xlink:href="#m7121deb136" x="254.476848" y="228.96" style="fill: #262626; stroke: #262626; stroke-width: 0.8"/>
      </g>
     </g>
     <g id="text_2">
      <text style="font-size: 10px; font-family: 'Arial', 'DejaVu Sans', 'Liberation Sans', 'Bitstream Vera Sans', sans-serif; text-anchor: middle; fill: #262626" x="254.476848" y="243.117812" transform="rotate(-0 254.476848 243.117812)">2</text>
     </g>
    </g>
    <g id="xtick_3">
     <g id="line2d_3">
      <g>
       <use xlink:href="#m7121deb136" x="336.273419" y="228.96" style="fill: #262626; stroke: #262626; stroke-width: 0.8"/>
      </g>
     </g>
     <g id="text_3">
      <text style="font-size: 10px; font-family: 'Arial', 'DejaVu Sans', 'Liberation Sans', 'Bitstream Vera Sans', sans-serif; text-anchor: middle; fill: #262626" x="336.273419" y="243.117812" transform="rotate(-0 336.273419 243.117812)">5</text>
     </g>
    </g>
    <g id="xtick_4">
     <g id="line2d_4">
      <g>
       <use xlink:href="#m7121deb136" x="398.150137" y="228.96" style="fill: #262626; stroke: #262626; stroke-width: 0.8"/>
      </g>
     </g>
     <g id="text_4">
      <text style="font-size: 10px; font-family: 'Arial', 'DejaVu Sans', 'Liberation Sans', 'Bitstream Vera Sans', sans-serif; text-anchor: middle; fill: #262626" x="398.150137" y="243.117812" transform="rotate(-0 398.150137 243.117812)">10</text>
     </g>
    </g>
    <g id="xtick_5">
     <g id="line2d_5">
      <g>
       <use xlink:href="#m7121deb136" x="460.026854" y="228.96" style="fill: #262626; stroke: #262626; stroke-width: 0.8"/>
      </g>
     </g>
     <g id="text_5">
      <text style="font-size: 10px; font-family: 'Arial', 'DejaVu Sans', 'Liberation Sans', 'Bitstream Vera Sans', sans-serif; text-anchor: middle; fill: #262626" x="460.026854" y="243.117812" transform="rotate(-0 460.026854 243.117812)">20</text>
     </g>
    </g>
    <g id="xtick_6">
     <g id="line2d_6">
      <g>
       <use xlink:href="#m7121deb136" x="541.823425" y="228.96" style="fill: #262626; stroke: #262626; stroke-width: 0.8"/>
      </g>
     </g>
     <g id="text_6">
      <text style="font-size: 10px; font-family: 'Arial', 'DejaVu Sans', 'Liberation Sans', 'Bitstream Vera Sans', sans-serif; text-anchor: middle; fill: #262626" x="541.823425" y="243.117812" transform="rotate(-0 541.823425 243.117812)">50</text>
     </g>
    </g>
    <g id="xtick_7">
     <g id="line2d_7">
      <g>
       <use xlink:href="#m7121deb136" x="603.700143" y="228.96" style="fill: #262626; stroke: #262626; stroke-width: 0.8"/>
      </g>
     </g>
     <g id="text_7">
      <text style="font-size: 10px; font-family: 'Arial', 'DejaVu Sans', 'Liberation Sans', 'Bitstream Vera Sans', sans-serif; text-anchor: middle; fill: #262626" x="603.700143" y="243.117812" transform="rotate(-0 603.700143 243.117812)">100</text>
     </g>
    </g>
    <g id="xtick_8">
     <g id="line2d_8">
      <g>
       <use xlink:href="#m7121deb136" x="665.57686" y="228.96" style="fill: #262626; stroke: #262626; stroke-width: 0.8"/>
      </g>
     </g>
     <g id="text_8">
      <text style="font-size: 10px; font-family: 'Arial', 'DejaVu Sans', 'Liberation Sans', 'Bitstream Vera Sans', sans-serif; text-anchor: middle; fill: #262626" x="665.57686" y="243.117812" transform="rotate(-0 665.57686 243.117812)">200</text>
     </g>
    </g>
    <g id="xtick_9">
     <g id="line2d_9">
      <g>
       <use xlink:href="#m7121deb136" x="747.373431" y="228.96" style="fill: #262626; stroke: #262626; stroke-width: 0.8"/>
      </g>
     </g>
     <g id="text_9">
      <text style="font-size: 10px; font-family: 'Arial', 'DejaVu Sans', 'Liberation Sans', 'Bitstream Vera Sans', sans-serif; text-anchor: middle; fill: #262626" x="747.373431" y="243.117812" transform="rotate(-0 747.373431 243.117812)">500</text>
     </g>
    </g>
    <g id="xtick_10">
     <g id="line2d_10">
      <g>
       <use xlink:href="#m7121deb136" x="809.250149" y="228.96" style="fill: #262626; stroke: #262626; stroke-width: 0.8"/>
      </g>
     </g>
     <g id="text_10">
      <text style="font-size: 10px; font-family: 'Arial', 'DejaVu Sans', 'Liberation Sans', 'Bitstream Vera Sans', sans-serif; text-anchor: middle; fill: #262626" x="809.250149" y="243.117812" transform="rotate(-0 809.250149 243.117812)">1000</text>
     </g>
    </g>
    <g id="xtick_11">
     <g id="line2d_11">
      <defs>
       <path id="m76e1a2c032" d="M 0 0 
L 0 2 
" style="stroke: #262626; stroke-width: 0.6"/>
      </defs>
      <g>
       <use xlink:href="#m76e1a2c032" x="48.926842" y="228.96" style="fill: #262626; stroke: #262626; stroke-width: 0.6"/>
      </g>
     </g>
    </g>
    <g id="xtick_12">
     <g id="line2d_12">
      <g>
       <use xlink:href="#m76e1a2c032" x="85.122401" y="228.96" style="fill: #262626; stroke: #262626; stroke-width: 0.6"/>
      </g>
     </g>
    </g>
    <g id="xtick_13">
     <g id="line2d_13">
      <g>
       <use xlink:href="#m76e1a2c032" x="110.803559" y="228.96" style="fill: #262626; stroke: #262626; stroke-width: 0.6"/>
      </g>
     </g>
    </g>
    <g id="xtick_14">
     <g id="line2d_14">
      <g>
       <use xlink:href="#m76e1a2c032" x="130.723413" y="228.96" style="fill: #262626; stroke: #262626; stroke-width: 0.6"/>
      </g>
     </g>
    </g>
    <g id="xtick_15">
     <g id="line2d_15">
      <g>
       <use xlink:href="#m76e1a2c032" x="146.999119" y="228.96" style="fill: #262626; stroke: #262626; stroke-width: 0.6"/>
      </g>
     </g>
    </g>
    <g id="xtick_16">
     <g id="line2d_16">
      <g>
       <use xlink:href="#m76e1a2c032" x="160.760032" y="228.96" style="fill: #262626; stroke: #262626; stroke-width: 0.6"/>
      </g>
     </g>
    </g>
    <g id="xtick_17">
     <g id="line2d_17">
      <g>
       <use xlink:href="#m76e1a2c032" x="172.680277" y="228.96" style="fill: #262626; stroke: #262626; stroke-width: 0.6"/>
      </g>
     </g>
    </g>
    <g id="xtick_18">
     <g id="line2d_18">
      <g>
       <use xlink:href="#m76e1a2c032" x="183.194678" y="228.96" style="fill: #262626; stroke: #262626; stroke-width: 0.6"/>
      </g>
     </g>
    </g>
    <g id="xtick_19">
     <g id="line2d_19">
      <g>
       <use xlink:href="#m76e1a2c032" x="290.672407" y="228.96" style="fill: #262626; stroke: #262626; stroke-width: 0.6"/>
      </g>
     </g>
    </g>
    <g id="xtick_20">
     <g id="line2d_20">
      <g>
       <use xlink:href="#m76e1a2c032" x="316.353565" y="228.96" style="fill: #262626; stroke: #262626; stroke-width: 0.6"/>
      </g>
     </g>
    </g>
    <g id="xtick_21">
     <g id="line2d_21">
      <g>
       <use xlink:href="#m76e1a2c032" x="352.549125" y="228.96" style="fill: #262626; stroke: #262626; stroke-width: 0.6"/>
      </g>
     </g>
    </g>
    <g id="xtick_22">
     <g id="line2d_22">
      <g>
       <use xlink:href="#m76e1a2c032" x="366.310038" y="228.96" style="fill: #262626; stroke: #262626; stroke-width: 0.6"/>
      </g>
     </g>
    </g>
    <g id="xtick_23">
     <g id="line2d_23">
      <g>
       <use xlink:href="#m76e1a2c032" x="378.230283" y="228.96" style="fill: #262626; stroke: #262626; stroke-width: 0.6"/>
      </g>
     </g>
    </g>
    <g id="xtick_24">
     <g id="line2d_24">
      <g>
       <use xlink:href="#m76e1a2c032" x="388.744684" y="228.96" style="fill: #262626; stroke: #262626; stroke-width: 0.6"/>
      </g>
     </g>
    </g>
    <g id="xtick_25">
     <g id="line2d_25">
      <g>
       <use xlink:href="#m76e1a2c032" x="496.222413" y="228.96" style="fill: #262626; stroke: #262626; stroke-width: 0.6"/>
      </g>
     </g>
    </g>
    <g id="xtick_26">
     <g id="line2d_26">
      <g>
       <use xlink:href="#m76e1a2c032" x="521.903571" y="228.96" style="fill: #262626; stroke: #262626; stroke-width: 0.6"/>
      </g>
     </g>
    </g>
    <g id="xtick_27">
     <g id="line2d_27">
      <g>
       <use xlink:href="#m76e1a2c032" x="558.099131" y="228.96" style="fill: #262626; stroke: #262626; stroke-width: 0.6"/>
      </g>
     </g>
    </g>
    <g id="xtick_28">
     <g id="line2d_28">
      <g>
       <use xlink:href="#m76e1a2c032" x="571.860044" y="228.96" style="fill: #262626; stroke: #262626; stroke-width: 0.6"/>
      </g>
     </g>
    </g>
    <g id="xtick_29">
     <g id="line2d_29">
      <g>
       <use xlink:href="#m76e1a2c032" x="583.780289" y="228.96" style="fill: #262626; stroke: #262626; stroke-width: 0.6"/>
      </g>
     </g>
    </g>
    <g id="xtick_30">
     <g id="line2d_30">
      <g>
       <use xlink:href="#m76e1a2c032" x="594.29469" y="228.96" style="fill: #262626; stroke: #262626; stroke-width: 0.6"/>
      </g>
     </g>
    </g>
    <g id="xtick_31">
     <g id="line2d_31">
      <g>
       <use xlink:href="#m76e1a2c032" x="701.772419" y="228.96" style="fill: #262626; stroke: #262626; stroke-width: 0.6"/>
      </g>
     </g>
    </g>
    <g id="xtick_32">
     <g id="line2d_32">
      <g>
       <use xlink:href="#m76e1a2c032" x="727.453578" y="228.96" style="fill: #262626; stroke: #262626; stroke-width: 0.6"/>
      </g>
     </g>
    </g>
    <g id="xtick_33">
     <g id="line2d_33">
      <g>
       <use xlink:href="#m76e1a2c032" x="763.649137" y="228.96" style="fill: #262626; stroke: #262626; stroke-width: 0.6"/>
      </g>
     </g>
    </g>
    <g id="xtick_34">
     <g id="line2d_34">
      <g>
       <use xlink:href="#m76e1a2c032" x="777.41005" y="228.96" style="fill: #262626; stroke: #262626; stroke-width: 0.6"/>
      </g>
     </g>
    </g>
    <g id="xtick_35">
     <g id="line2d_35">
      <g>
       <use xlink:href="#m76e1a2c032" x="789.330295" y="228.96" style="fill: #262626; stroke: #262626; stroke-width: 0.6"/>
      </g>
     </g>
    </g>
    <g id="xtick_36">
     <g id="line2d_36">
      <g>
       <use xlink:href="#m76e1a2c032" x="799.844696" y="228.96" style="fill: #262626; stroke: #262626; stroke-width: 0.6"/>
      </g>
     </g>
    </g>
    <g id="text_11">
     <text style="font-size: 10px; font-family: 'Arial', 'DejaVu Sans', 'Liberation Sans', 'Bitstream Vera Sans', sans-serif; text-anchor: middle; fill: #262626" x="425.7" y="256.385" transform="rotate(-0 425.7 256.385)">Income or consumption (day)</text>
    </g>
   </g>
   <g id="matplotlib.axis_2"/>
   <g id="FillBetweenPolyCollection_1">
    <defs>
     <path id="md23c40a36e" d="M 126.308267 -36.737801 
L 126.308267 -36.729688 
L 128.676342 -36.729688 
L 131.044417 -36.729688 
L 133.412493 -36.729688 
L 135.780568 -36.729688 
L 138.148643 -36.729688 
L 140.516719 -36.729688 
L 142.884794 -36.729688 
L 145.252869 -36.729688 
L 147.620945 -36.729688 
L 149.98902 -36.729688 
L 152.357095 -36.729688 
L 154.725171 -36.729688 
L 157.093246 -36.729688 
L 159.461321 -36.729688 
L 161.829397 -36.729688 
L 164.197472 -36.729688 
L 166.565547 -36.729688 
L 168.933622 -36.729688 
L 171.301698 -36.729688 
L 173.669773 -36.729688 
L 176.037848 -36.729688 
L 178.405924 -36.729688 
L 180.773999 -36.729688 
L 183.142074 -36.729688 
L 185.51015 -36.729688 
L 187.878225 -36.729688 
L 190.2463 -36.729688 
L 192.614376 -36.729688 
L 194.982451 -36.729688 
L 197.350526 -36.729688 
L 199.718602 -36.729688 
L 202.086677 -36.729688 
L 204.454752 -36.729688 
L 206.822828 -36.729688 
L 209.190903 -36.729688 
L 211.558978 -36.729688 
L 213.927054 -36.729688 
L 216.295129 -36.729688 
L 218.663204 -36.729688 
L 221.03128 -36.729688 
L 223.399355 -36.729688 
L 225.76743 -36.729688 
L 228.135506 -36.729688 
L 230.503581 -36.729688 
L 232.871656 -36.729688 
L 235.239732 -36.729688 
L 237.607807 -36.729688 
L 239.975882 -36.729688 
L 242.343958 -36.729688 
L 244.712033 -36.729688 
L 247.080108 -36.729688 
L 249.448184 -36.729688 
L 251.816259 -36.729688 
L 254.184334 -36.729688 
L 256.55241 -36.729688 
L 258.920485 -36.729688 
L 261.28856 -36.729688 
L 263.656636 -36.729688 
L 266.024711 -36.729688 
L 268.392786 -36.729688 
L 270.760862 -36.729688 
L 273.128937 -36.729688 
L 275.497012 -36.729688 
L 277.865088 -36.729688 
L 280.233163 -36.729688 
L 282.601238 -36.729688 
L 284.969314 -36.729688 
L 287.337389 -36.729688 
L 289.705464 -36.729688 
L 292.073539 -36.729688 
L 294.441615 -36.729688 
L 296.80969 -36.729688 
L 299.177765 -36.729688 
L 301.545841 -36.729688 
L 303.913916 -36.729688 
L 306.281991 -36.729688 
L 308.650067 -36.729688 
L 311.018142 -36.729688 
L 313.386217 -36.729688 
L 315.754293 -36.729688 
L 318.122368 -36.729688 
L 320.490443 -36.729688 
L 322.858519 -36.729688 
L 325.226594 -36.729688 
L 327.594669 -36.729688 
L 329.962745 -36.729688 
L 332.33082 -36.729688 
L 334.698895 -36.729688 
L 337.066971 -36.729688 
L 339.435046 -36.729688 
L 341.803121 -36.729688 
L 344.171197 -36.729688 
L 346.539272 -36.729688 
L 348.907347 -36.729688 
L 351.275423 -36.729688 
L 353.643498 -36.729688 
L 356.011573 -36.729688 
L 358.379649 -36.729688 
L 360.747724 -36.729688 
L 363.115799 -36.729688 
L 365.483875 -36.729688 
L 367.85195 -36.729688 
L 370.220025 -36.729688 
L 372.588101 -36.729688 
L 374.956176 -36.729688 
L 377.324251 -36.729688 
L 379.692327 -36.729688 
L 382.060402 -36.729688 
L 384.428477 -36.729688 
L 386.796553 -36.729688 
L 389.164628 -36.729688 
L 391.532703 -36.729688 
L 393.900779 -36.729688 
L 396.268854 -36.729688 
L 398.636929 -36.729688 
L 401.005005 -36.729688 
L 403.37308 -36.729688 
L 405.741155 -36.729688 
L 408.10923 -36.729688 
L 410.477306 -36.729688 
L 412.845381 -36.729688 
L 415.213456 -36.729688 
L 417.581532 -36.729688 
L 419.949607 -36.729688 
L 422.317682 -36.729688 
L 424.685758 -36.729688 
L 427.053833 -36.729688 
L 429.421908 -36.729688 
L 431.789984 -36.729688 
L 434.158059 -36.729688 
L 436.526134 -36.729688 
L 438.89421 -36.729688 
L 441.262285 -36.729688 
L 443.63036 -36.729688 
L 445.998436 -36.729688 
L 448.366511 -36.729688 
L 450.734586 -36.729688 
L 453.102662 -36.729688 
L 455.470737 -36.729688 
L 457.838812 -36.729688 
L 460.206888 -36.729688 
L 462.574963 -36.729688 
L 464.943038 -36.729688 
L 467.311114 -36.729688 
L 469.679189 -36.729688 
L 472.047264 -36.729688 
L 474.41534 -36.729688 
L 476.783415 -36.729688 
L 479.15149 -36.729688 
L 481.519566 -36.729688 
L 483.887641 -36.729688 
L 486.255716 -36.729688 
L 488.623792 -36.729688 
L 490.991867 -36.729688 
L 493.359942 -36.729688 
L 495.728018 -36.729688 
L 498.096093 -36.729688 
L 500.464168 -36.729688 
L 502.832244 -36.729688 
L 505.200319 -36.729688 
L 507.568394 -36.729688 
L 509.93647 -36.729688 
L 512.304545 -36.729688 
L 514.67262 -36.729688 
L 517.040696 -36.729688 
L 519.408771 -36.729688 
L 521.776846 -36.729688 
L 524.144922 -36.729688 
L 526.512997 -36.729688 
L 528.881072 -36.729688 
L 531.249147 -36.729688 
L 533.617223 -36.729688 
L 535.985298 -36.729688 
L 538.353373 -36.729688 
L 540.721449 -36.729688 
L 543.089524 -36.729688 
L 545.457599 -36.729688 
L 547.825675 -36.729688 
L 550.19375 -36.729688 
L 552.561825 -36.729688 
L 554.929901 -36.729688 
L 557.297976 -36.729688 
L 559.666051 -36.729688 
L 562.034127 -36.729688 
L 564.402202 -36.729688 
L 566.770277 -36.729688 
L 569.138353 -36.729688 
L 571.506428 -36.729688 
L 573.874503 -36.729688 
L 576.242579 -36.729688 
L 578.610654 -36.729688 
L 580.978729 -36.729688 
L 583.346805 -36.729688 
L 585.71488 -36.729688 
L 588.082955 -36.729688 
L 590.451031 -36.729688 
L 592.819106 -36.729688 
L 595.187181 -36.729688 
L 597.555257 -36.729688 
L 597.555257 -36.737555 
L 597.555257 -36.737555 
L 595.187181 -36.743525 
L 592.819106 -36.753123 
L 590.451031 -36.767904 
L 588.082955 -36.789694 
L 585.71488 -36.820407 
L 583.346805 -36.861746 
L 580.978729 -36.914782 
L 578.610654 -36.979484 
L 576.242579 -37.054281 
L 573.874503 -37.13581 
L 571.506428 -37.218944 
L 569.138353 -37.297204 
L 566.770277 -37.363534 
L 564.402202 -37.411322 
L 562.034127 -37.435488 
L 559.666051 -37.433368 
L 557.297976 -37.405197 
L 554.929901 -37.35407 
L 552.561825 -37.285378 
L 550.19375 -37.205879 
L 547.825675 -37.122604 
L 545.457599 -37.04187 
L 543.089524 -36.968554 
L 540.721449 -36.905762 
L 538.353373 -36.85486 
L 535.985298 -36.815791 
L 533.617223 -36.787563 
L 531.249147 -36.768765 
L 528.881072 -36.758045 
L 526.512997 -36.754471 
L 524.144922 -36.757778 
L 521.776846 -36.768483 
L 519.408771 -36.787895 
L 517.040696 -36.817995 
L 514.67262 -36.861208 
L 512.304545 -36.920069 
L 509.93647 -36.996801 
L 507.568394 -37.09288 
L 505.200319 -37.208654 
L 502.832244 -37.343109 
L 500.464168 -37.493863 
L 498.096093 -37.657404 
L 495.728018 -37.82954 
L 493.359942 -38.005987 
L 490.991867 -38.182947 
L 488.623792 -38.357589 
L 486.255716 -38.528333 
L 483.887641 -38.694937 
L 481.519566 -38.858409 
L 479.15149 -39.020809 
L 476.783415 -39.184992 
L 474.41534 -39.354325 
L 472.047264 -39.532378 
L 469.679189 -39.722567 
L 467.311114 -39.927765 
L 464.943038 -40.149891 
L 462.574963 -40.389549 
L 460.206888 -40.645798 
L 457.838812 -40.91611 
L 455.470737 -41.196566 
L 453.102662 -41.482265 
L 450.734586 -41.767919 
L 448.366511 -42.048566 
L 445.998436 -42.320359 
L 443.63036 -42.581376 
L 441.262285 -42.83243 
L 438.89421 -43.077773 
L 436.526134 -43.325592 
L 434.158059 -43.588125 
L 431.789984 -43.881235 
L 429.421908 -44.223337 
L 427.053833 -44.633733 
L 424.685758 -45.130547 
L 422.317682 -45.728611 
L 419.949607 -46.437721 
L 417.581532 -47.261624 
L 415.213456 -48.197948 
L 412.845381 -49.239084 
L 410.477306 -50.373792 
L 408.10923 -51.58918 
L 405.741155 -52.872646 
L 403.37308 -54.213453 
L 401.005005 -55.603688 
L 398.636929 -57.038578 
L 396.268854 -58.5162 
L 393.900779 -60.0368 
L 391.532703 -61.601941 
L 389.164628 -63.213771 
L 386.796553 -64.874654 
L 384.428477 -66.587355 
L 382.060402 -68.355808 
L 379.692327 -70.186362 
L 377.324251 -72.08917 
L 374.956176 -74.079256 
L 372.588101 -76.176765 
L 370.220025 -78.405989 
L 367.85195 -80.793026 
L 365.483875 -83.362313 
L 363.115799 -86.132601 
L 360.747724 -89.113259 
L 358.379649 -92.301815 
L 356.011573 -95.68347 
L 353.643498 -99.232903 
L 351.275423 -102.918166 
L 348.907347 -106.705997 
L 346.539272 -110.567571 
L 344.171197 -114.483661 
L 341.803121 -118.448357 
L 339.435046 -122.470806 
L 337.066971 -126.574782 
L 334.698895 -130.796187 
L 332.33082 -135.178835 
L 329.962745 -139.768995 
L 327.594669 -144.609368 
L 325.226594 -149.733179 
L 322.858519 -155.159119 
L 320.490443 -160.887622 
L 318.122368 -166.8987 
L 315.754293 -173.151145 
L 313.386217 -179.582682 
L 311.018142 -186.11066 
L 308.650067 -192.633207 
L 306.281991 -199.031292 
L 303.913916 -205.172569 
L 301.545841 -210.917898 
L 299.177765 -216.130894 
L 296.80969 -220.689799 
L 294.441615 -224.499796 
L 292.073539 -227.503042 
L 289.705464 -229.683714 
L 287.337389 -231.06631 
L 284.969314 -231.707158 
L 282.601238 -231.68097 
L 280.233163 -231.065648 
L 277.865088 -229.928914 
L 275.497012 -228.31958 
L 273.128937 -226.264679 
L 270.760862 -223.771936 
L 268.392786 -220.835712 
L 266.024711 -217.444135 
L 263.656636 -213.585525 
L 261.28856 -209.253174 
L 258.920485 -204.448444 
L 256.55241 -199.182706 
L 254.184334 -193.478578 
L 251.816259 -187.370556 
L 249.448184 -180.904699 
L 247.080108 -174.136937 
L 244.712033 -167.129846 
L 242.343958 -159.948384 
L 239.975882 -152.655551 
L 237.607807 -145.309205 
L 235.239732 -137.960922 
L 232.871656 -130.657065 
L 230.503581 -123.44139 
L 228.135506 -116.357939 
L 225.76743 -109.452839 
L 223.399355 -102.774126 
L 221.03128 -96.369496 
L 218.663204 -90.282704 
L 216.295129 -84.54984 
L 213.927054 -79.196676 
L 211.558978 -74.237842 
L 209.190903 -69.677872 
L 206.822828 -65.513538 
L 204.454752 -61.736573 
L 202.086677 -58.335911 
L 199.718602 -55.298911 
L 197.350526 -52.611504 
L 194.982451 -50.257566 
L 192.614376 -48.218038 
L 190.2463 -46.470291 
L 187.878225 -44.988072 
L 185.51015 -43.742146 
L 183.142074 -42.701507 
L 180.773999 -41.834919 
L 178.405924 -41.112469 
L 176.037848 -40.506865 
L 173.669773 -39.994315 
L 171.301698 -39.554938 
L 168.933622 -39.172768 
L 166.565547 -38.835491 
L 164.197472 -38.534042 
L 161.829397 -38.262159 
L 159.461321 -38.015937 
L 157.093246 -37.793348 
L 154.725171 -37.593732 
L 152.357095 -37.417221 
L 149.98902 -37.264176 
L 147.620945 -37.134677 
L 145.252869 -37.028159 
L 142.884794 -36.943256 
L 140.516719 -36.877831 
L 138.148643 -36.829178 
L 135.780568 -36.79431 
L 133.412493 -36.770248 
L 131.044417 -36.754271 
L 128.676342 -36.744067 
L 126.308267 -36.737801 
z
" style="stroke: #dd8452"/>
    </defs>
    <g>
     <use xlink:href="#md23c40a36e" x="0" y="265.689687" style="fill: #dd8452; fill-opacity: 0.25; stroke: #dd8452"/>
    </g>
   </g>
   <g id="FillBetweenPolyCollection_2">
    <defs>
     <path id="mcf6d1e7620" d="M 45.245455 -36.737586 
L 45.245455 -36.729688 
L 49.069118 -36.729688 
L 52.892782 -36.729688 
L 56.716446 -36.729688 
L 60.54011 -36.729688 
L 64.363773 -36.729688 
L 68.187437 -36.729688 
L 72.011101 -36.729688 
L 75.834765 -36.729688 
L 79.658429 -36.729688 
L 83.482092 -36.729688 
L 87.305756 -36.729688 
L 91.12942 -36.729688 
L 94.953084 -36.729688 
L 98.776747 -36.729688 
L 102.600411 -36.729688 
L 106.424075 -36.729688 
L 110.247739 -36.729688 
L 114.071402 -36.729688 
L 117.895066 -36.729688 
L 121.71873 -36.729688 
L 125.542394 -36.729688 
L 129.366058 -36.729688 
L 133.189721 -36.729688 
L 137.013385 -36.729688 
L 140.837049 -36.729688 
L 144.660713 -36.729688 
L 148.484376 -36.729688 
L 152.30804 -36.729688 
L 156.131704 -36.729688 
L 159.955368 -36.729688 
L 163.779032 -36.729688 
L 167.602695 -36.729688 
L 171.426359 -36.729688 
L 175.250023 -36.729688 
L 179.073687 -36.729688 
L 182.89735 -36.729688 
L 186.721014 -36.729688 
L 190.544678 -36.729688 
L 194.368342 -36.729688 
L 198.192005 -36.729688 
L 202.015669 -36.729688 
L 205.839333 -36.729688 
L 209.662997 -36.729688 
L 213.486661 -36.729688 
L 217.310324 -36.729688 
L 221.133988 -36.729688 
L 224.957652 -36.729688 
L 228.781316 -36.729688 
L 232.604979 -36.729688 
L 236.428643 -36.729688 
L 240.252307 -36.729688 
L 244.075971 -36.729688 
L 247.899635 -36.729688 
L 251.723298 -36.729688 
L 255.546962 -36.729688 
L 259.370626 -36.729688 
L 263.19429 -36.729688 
L 267.017953 -36.729688 
L 270.841617 -36.729688 
L 274.665281 -36.729688 
L 278.488945 -36.729688 
L 282.312608 -36.729688 
L 286.136272 -36.729688 
L 289.959936 -36.729688 
L 293.7836 -36.729688 
L 297.607264 -36.729688 
L 301.430927 -36.729688 
L 305.254591 -36.729688 
L 309.078255 -36.729688 
L 312.901919 -36.729688 
L 316.725582 -36.729688 
L 320.549246 -36.729688 
L 324.37291 -36.729688 
L 328.196574 -36.729688 
L 332.020238 -36.729688 
L 335.843901 -36.729688 
L 339.667565 -36.729688 
L 343.491229 -36.729688 
L 347.314893 -36.729688 
L 351.138556 -36.729688 
L 354.96222 -36.729688 
L 358.785884 -36.729688 
L 362.609548 -36.729688 
L 366.433212 -36.729688 
L 370.256875 -36.729688 
L 374.080539 -36.729688 
L 377.904203 -36.729688 
L 381.727867 -36.729688 
L 385.55153 -36.729688 
L 389.375194 -36.729688 
L 393.198858 -36.729688 
L 397.022522 -36.729688 
L 400.846185 -36.729688 
L 404.669849 -36.729688 
L 408.493513 -36.729688 
L 412.317177 -36.729688 
L 416.140841 -36.729688 
L 419.964504 -36.729688 
L 423.788168 -36.729688 
L 427.611832 -36.729688 
L 431.435496 -36.729688 
L 435.259159 -36.729688 
L 439.082823 -36.729688 
L 442.906487 -36.729688 
L 446.730151 -36.729688 
L 450.553815 -36.729688 
L 454.377478 -36.729688 
L 458.201142 -36.729688 
L 462.024806 -36.729688 
L 465.84847 -36.729688 
L 469.672133 -36.729688 
L 473.495797 -36.729688 
L 477.319461 -36.729688 
L 481.143125 -36.729688 
L 484.966788 -36.729688 
L 488.790452 -36.729688 
L 492.614116 -36.729688 
L 496.43778 -36.729688 
L 500.261444 -36.729688 
L 504.085107 -36.729688 
L 507.908771 -36.729688 
L 511.732435 -36.729688 
L 515.556099 -36.729688 
L 519.379762 -36.729688 
L 523.203426 -36.729688 
L 527.02709 -36.729688 
L 530.850754 -36.729688 
L 534.674418 -36.729688 
L 538.498081 -36.729688 
L 542.321745 -36.729688 
L 546.145409 -36.729688 
L 549.969073 -36.729688 
L 553.792736 -36.729688 
L 557.6164 -36.729688 
L 561.440064 -36.729688 
L 565.263728 -36.729688 
L 569.087392 -36.729688 
L 572.911055 -36.729688 
L 576.734719 -36.729688 
L 580.558383 -36.729688 
L 584.382047 -36.729688 
L 588.20571 -36.729688 
L 592.029374 -36.729688 
L 595.853038 -36.729688 
L 599.676702 -36.729688 
L 603.500365 -36.729688 
L 607.324029 -36.729688 
L 611.147693 -36.729688 
L 614.971357 -36.729688 
L 618.795021 -36.729688 
L 622.618684 -36.729688 
L 626.442348 -36.729688 
L 630.266012 -36.729688 
L 634.089676 -36.729688 
L 637.913339 -36.729688 
L 641.737003 -36.729688 
L 645.560667 -36.729688 
L 649.384331 -36.729688 
L 653.207995 -36.729688 
L 657.031658 -36.729688 
L 660.855322 -36.729688 
L 664.678986 -36.729688 
L 668.50265 -36.729688 
L 672.326313 -36.729688 
L 676.149977 -36.729688 
L 679.973641 -36.729688 
L 683.797305 -36.729688 
L 687.620968 -36.729688 
L 691.444632 -36.729688 
L 695.268296 -36.729688 
L 699.09196 -36.729688 
L 702.915624 -36.729688 
L 706.739287 -36.729688 
L 710.562951 -36.729688 
L 714.386615 -36.729688 
L 718.210279 -36.729688 
L 722.033942 -36.729688 
L 725.857606 -36.729688 
L 729.68127 -36.729688 
L 733.504934 -36.729688 
L 737.328598 -36.729688 
L 741.152261 -36.729688 
L 744.975925 -36.729688 
L 748.799589 -36.729688 
L 752.623253 -36.729688 
L 756.446916 -36.729688 
L 760.27058 -36.729688 
L 764.094244 -36.729688 
L 767.917908 -36.729688 
L 771.741571 -36.729688 
L 775.565235 -36.729688 
L 779.388899 -36.729688 
L 783.212563 -36.729688 
L 787.036227 -36.729688 
L 790.85989 -36.729688 
L 794.683554 -36.729688 
L 798.507218 -36.729688 
L 802.330882 -36.729688 
L 806.154545 -36.729688 
L 806.154545 -36.737586 
L 806.154545 -36.737586 
L 802.330882 -36.749045 
L 798.507218 -36.772638 
L 794.683554 -36.815962 
L 790.85989 -36.886579 
L 787.036227 -36.987984 
L 783.212563 -37.11467 
L 779.388899 -37.249172 
L 775.565235 -37.364329 
L 771.741571 -37.431732 
L 767.917908 -37.43319 
L 764.094244 -37.369201 
L 760.27058 -37.259564 
L 756.446916 -37.136092 
L 752.623253 -37.032074 
L 748.799589 -36.974095 
L 744.975925 -36.978733 
L 741.152261 -37.052868 
L 737.328598 -37.195009 
L 733.504934 -37.396656 
L 729.68127 -37.644627 
L 725.857606 -37.925104 
L 722.033942 -38.227909 
L 718.210279 -38.548048 
L 714.386615 -38.883201 
L 710.562951 -39.229626 
L 706.739287 -39.581094 
L 702.915624 -39.933272 
L 699.09196 -40.290897 
L 695.268296 -40.671895 
L 691.444632 -41.104795 
L 687.620968 -41.621829 
L 683.797305 -42.254555 
L 679.973641 -43.036828 
L 676.149977 -44.012592 
L 672.326313 -45.23983 
L 668.50265 -46.783905 
L 664.678986 -48.703226 
L 660.855322 -51.039316 
L 657.031658 -53.822755 
L 653.207995 -57.09471 
L 649.384331 -60.929908 
L 645.560667 -65.442354 
L 641.737003 -70.763791 
L 637.913339 -77.000784 
L 634.089676 -84.189074 
L 630.266012 -92.266902 
L 626.442348 -101.08178 
L 622.618684 -110.431432 
L 618.795021 -120.124379 
L 614.971357 -130.034466 
L 611.147693 -140.122554 
L 607.324029 -150.411373 
L 603.500365 -160.923249 
L 599.676702 -171.612775 
L 595.853038 -182.331377 
L 592.029374 -192.841866 
L 588.20571 -202.870903 
L 584.382047 -212.168614 
L 580.558383 -220.549208 
L 576.734719 -227.904279 
L 572.911055 -234.192281 
L 569.087392 -239.406934 
L 565.263728 -243.525293 
L 561.440064 -246.444347 
L 557.6164 -247.929688 
L 553.792736 -247.607041 
L 549.969073 -245.018343 
L 546.145409 -239.74122 
L 542.321745 -231.54228 
L 538.498081 -220.510731 
L 534.674418 -207.112957 
L 530.850754 -192.131711 
L 527.02709 -176.501279 
L 523.203426 -161.098176 
L 519.379762 -146.567327 
L 515.556099 -133.244494 
L 511.732435 -121.188897 
L 507.908771 -110.291864 
L 504.085107 -100.402406 
L 500.261444 -91.418105 
L 496.43778 -83.318295 
L 492.614116 -76.145295 
L 488.790452 -69.954678 
L 484.966788 -64.759299 
L 481.143125 -60.491325 
L 477.319461 -57.001437 
L 473.495797 -54.099057 
L 469.672133 -51.614308 
L 465.84847 -49.446995 
L 462.024806 -47.574614 
L 458.201142 -46.018125 
L 454.377478 -44.791226 
L 450.553815 -43.866476 
L 446.730151 -43.175886 
L 442.906487 -42.638152 
L 439.082823 -42.188733 
L 435.259159 -41.792071 
L 431.435496 -41.432118 
L 427.611832 -41.093599 
L 423.788168 -40.750617 
L 419.964504 -40.37098 
L 416.140841 -39.932391 
L 412.317177 -39.439237 
L 408.493513 -38.929326 
L 404.669849 -38.466367 
L 400.846185 -38.121569 
L 397.022522 -37.952458 
L 393.198858 -37.986878 
L 389.375194 -38.216223 
L 385.55153 -38.597488 
L 381.727867 -39.061306 
L 377.904203 -39.52346 
L 374.080539 -39.898699 
L 370.256875 -40.115953 
L 366.433212 -40.132594 
L 362.609548 -39.943513 
L 358.785884 -39.581016 
L 354.96222 -39.104761 
L 351.138556 -38.58533 
L 347.314893 -38.087433 
L 343.491229 -37.657924 
L 339.667565 -37.320887 
L 335.843901 -37.079272 
L 332.020238 -36.920907 
L 328.196574 -36.826097 
L 324.37291 -36.774343 
L 320.549246 -36.748638 
L 316.725582 -36.737053 
L 312.901919 -36.732366 
L 309.078255 -36.73082 
L 305.254591 -36.730912 
L 301.430927 -36.732682 
L 297.607264 -36.73763 
L 293.7836 -36.74911 
L 289.959936 -36.772758 
L 286.136272 -36.816171 
L 282.312608 -36.8869 
L 278.488945 -36.988415 
L 274.665281 -37.115167 
L 270.841617 -37.249637 
L 267.017953 -37.364613 
L 263.19429 -37.431605 
L 259.370626 -37.432195 
L 255.546962 -37.366216 
L 251.723298 -37.251826 
L 247.899635 -37.117441 
L 244.075971 -36.990379 
L 240.252307 -36.888359 
L 236.428643 -36.81712 
L 232.604979 -36.773304 
L 228.781316 -36.749386 
L 224.957652 -36.737741 
L 221.133988 -36.732669 
L 217.310324 -36.730687 
L 213.486661 -36.729991 
L 209.662997 -36.729771 
L 205.839333 -36.729708 
L 202.015669 -36.729692 
L 198.192005 -36.729688 
L 194.368342 -36.729688 
L 190.544678 -36.729688 
L 186.721014 -36.729688 
L 182.89735 -36.729688 
L 179.073687 -36.729688 
L 175.250023 -36.729688 
L 171.426359 -36.729688 
L 167.602695 -36.729688 
L 163.779032 -36.729688 
L 159.955368 -36.729688 
L 156.131704 -36.729688 
L 152.30804 -36.729688 
L 148.484376 -36.729688 
L 144.660713 -36.729688 
L 140.837049 -36.729692 
L 137.013385 -36.729708 
L 133.189721 -36.729771 
L 129.366058 -36.729992 
L 125.542394 -36.730691 
L 121.71873 -36.73268 
L 117.895066 -36.73777 
L 114.071402 -36.749448 
L 110.247739 -36.773425 
L 106.424075 -36.81733 
L 102.600411 -36.888682 
L 98.776747 -36.990812 
L 94.953084 -37.117942 
L 91.12942 -37.252307 
L 87.305756 -37.366567 
L 83.482092 -37.432323 
L 79.658429 -37.431473 
L 75.834765 -37.364259 
L 72.011101 -37.249154 
L 68.187437 -37.114667 
L 64.363773 -36.987984 
L 60.54011 -36.886579 
L 56.716446 -36.815962 
L 52.892782 -36.772638 
L 49.069118 -36.749045 
L 45.245455 -36.737586 
z
" style="stroke: #4c72b0"/>
    </defs>
    <g>
     <use xlink:href="#mcf6d1e7620" x="0" y="265.689687" style="fill: #4c72b0; fill-opacity: 0.25; stroke: #4c72b0"/>
    </g>
   </g>
   <g id="line2d_37">
    <path d="M 290.672407 228.96 
L 290.672407 7.2 
" style="fill: none; stroke-dasharray: 2.96,1.28; stroke-dashoffset: 0; stroke: #d3d3d3; stroke-width: 0.8"/>
   </g>
   <g id="line2d_38">
    <path d="M 467.260724 228.96 
L 467.260724 7.2 
" style="fill: none; stroke-dasharray: 2.96,1.28; stroke-dashoffset: 0; stroke: #d3d3d3; stroke-width: 0.8"/>
   </g>
   <g id="line2d_39">
    <path d="M 392.150467 228.96 
L 392.150467 7.2 
" style="fill: none; stroke-dasharray: 2.96,1.28; stroke-dashoffset: 0; stroke: #d3d3d3; stroke-width: 0.8"/>
   </g>
   <g id="line2d_40">
    <path d="M 7.2 228.96 
L 844.2 228.96 
" style="fill: none; stroke: #808080; stroke-width: 0.5; stroke-linecap: round"/>
   </g>
   <g id="text_12">
    <text style="font-size: 8px; font-family: 'Arial', 'DejaVu Sans', 'Liberation Sans', 'Bitstream Vera Sans', sans-serif; fill: #808080" transform="translate(296.926157 124.59635) rotate(-90)">International Poverty Line: $3.00</text>
   </g>
   <g id="text_13">
    <text style="font-size: 8px; font-family: 'Arial', 'DejaVu Sans', 'Liberation Sans', 'Bitstream Vera Sans', sans-serif; fill: #808080" transform="translate(472.986974 81.31135) rotate(-90)">World mean: $21.69</text>
   </g>
   <g id="text_14">
    <text style="font-size: 8px; font-family: 'Arial', 'DejaVu Sans', 'Liberation Sans', 'Bitstream Vera Sans', sans-serif; fill: #808080" transform="translate(397.876717 83.08885) rotate(-90)">World median: $9.35</text>
   </g>
   <g id="legend_1">
    <g id="patch_3">
     <path d="M 683.8 102.344187 
L 756.364063 102.344187 
Q 758.364063 102.344187 758.364063 100.344187 
L 758.364063 58.552 
Q 758.364063 56.552 756.364063 56.552 
L 683.8 56.552 
Q 681.8 56.552 681.8 58.552 
L 681.8 100.344187 
Q 681.8 102.344187 683.8 102.344187 
z
" style="fill: #ffffff; opacity: 0.8; stroke: #cccccc; stroke-linejoin: miter"/>
    </g>
    <g id="text_15">
     <text style="font-size: 10px; font-family: 'Arial', 'DejaVu Sans', 'Liberation Sans', 'Bitstream Vera Sans', sans-serif; text-anchor: start; fill: #262626" x="702.575781" y="67.831687" transform="rotate(-0 702.575781 67.831687)">Country</text>
    </g>
    <g id="patch_4">
     <path d="M 685.8 82.094187 
L 705.8 82.094187 
L 705.8 75.094187 
L 685.8 75.094187 
z
" style="fill: #4c72b0; fill-opacity: 0.25; stroke: #4c72b0; stroke-linejoin: miter"/>
    </g>
    <g id="text_16">
     <text style="font-size: 10px; font-family: 'Arial', 'DejaVu Sans', 'Liberation Sans', 'Bitstream Vera Sans', sans-serif; text-anchor: start; fill: #262626" x="713.8" y="82.094187" transform="rotate(-0 713.8 82.094187)">Denmark</text>
    </g>
    <g id="patch_5">
     <path d="M 685.8 96.2395 
L 705.8 96.2395 
L 705.8 89.2395 
L 685.8 89.2395 
z
" style="fill: #dd8452; fill-opacity: 0.25; stroke: #dd8452; stroke-linejoin: miter"/>
    </g>
    <g id="text_17">
     <text style="font-size: 10px; font-family: 'Arial', 'DejaVu Sans', 'Liberation Sans', 'Bitstream Vera Sans', sans-serif; text-anchor: start; fill: #262626" x="713.8" y="96.2395" transform="rotate(-0 713.8 96.2395)">Niger</text>
    </g>
   </g>
  </g>
 </g>
</svg>
