<?xml version="1.0" encoding="utf-8" standalone="no"?>
<!DOCTYPE svg PUBLIC "-//W3C//DTD SVG 1.1//EN"
  "http://www.w3.org/Graphics/SVG/1.1/DTD/svg11.dtd">
<svg xmlns:xlink="http://www.w3.org/1999/xlink" width="1080pt" height="540pt" viewBox="0 0 1080 540" xmlns="http://www.w3.org/2000/svg" version="1.1">
 <metadata>
  <rdf:RDF xmlns:dc="http://purl.org/dc/elements/1.1/" xmlns:cc="http://creativecommons.org/ns#" xmlns:rdf="http://www.w3.org/1999/02/22-rdf-syntax-ns#">
   <cc:Work>
    <dc:type rdf:resource="http://purl.org/dc/dcmitype/StillImage"/>
    <dc:date>2025-03-17T17:43:21.359850</dc:date>
    <dc:format>image/svg+xml</dc:format>
    <dc:creator>
     <cc:Agent>
      <dc:title>Matplotlib v3.10.1, https://matplotlib.org/</dc:title>
     </cc:Agent>
    </dc:creator>
   </cc:Work>
  </rdf:RDF>
 </metadata>
 <defs>
  <style type="text/css">*{stroke-linejoin: round; stroke-linecap: butt}</style>
 </defs>
 <g id="figure_1">
  <g id="patch_1">
   <path d="M 0 540 
L 1080 540 
L 1080 0 
L 0 0 
z
" style="fill: #ffffff"/>
  </g>
  <g id="axes_1">
   <g id="patch_2">
    <path d="M 135 480.6 
L 972 480.6 
L 972 64.8 
L 135 64.8 
z
" style="fill: #ffffff"/>
   </g>
   <g id="FillBetweenPolyCollection_1">
    <defs>
     <path id="m588cf87eed" d="M 173.045455 -59.498794 
L 173.045455 -59.4 
L 175.32183 -59.4 
L 177.598205 -59.4 
L 179.87458 -59.4 
L 182.150955 -59.4 
L 184.42733 -59.4 
L 186.703705 -59.4 
L 188.98008 -59.4 
L 191.256455 -59.4 
L 193.53283 -59.4 
L 195.809205 -59.4 
L 198.08558 -59.4 
L 200.361955 -59.4 
L 202.63833 -59.4 
L 204.914705 -59.4 
L 207.19108 -59.4 
L 209.467455 -59.4 
L 211.743831 -59.4 
L 214.020206 -59.4 
L 216.296581 -59.4 
L 218.572956 -59.4 
L 220.849331 -59.4 
L 223.125706 -59.4 
L 225.402081 -59.4 
L 227.678456 -59.4 
L 229.954831 -59.4 
L 232.231206 -59.4 
L 234.507581 -59.4 
L 236.783956 -59.4 
L 239.060331 -59.4 
L 241.336706 -59.4 
L 243.613081 -59.4 
L 245.889456 -59.4 
L 248.165831 -59.4 
L 250.442206 -59.4 
L 252.718582 -59.4 
L 254.994957 -59.4 
L 257.271332 -59.4 
L 259.547707 -59.4 
L 261.824082 -59.4 
L 264.100457 -59.4 
L 266.376832 -59.4 
L 268.653207 -59.4 
L 270.929582 -59.4 
L 273.205957 -59.4 
L 275.482332 -59.4 
L 277.758707 -59.4 
L 280.035082 -59.4 
L 282.311457 -59.4 
L 284.587832 -59.4 
L 286.864207 -59.4 
L 289.140582 -59.4 
L 291.416958 -59.4 
L 293.693333 -59.4 
L 295.969708 -59.4 
L 298.246083 -59.4 
L 300.522458 -59.4 
L 302.798833 -59.4 
L 305.075208 -59.4 
L 307.351583 -59.4 
L 309.627958 -59.4 
L 311.904333 -59.4 
L 314.180708 -59.4 
L 316.457083 -59.4 
L 318.733458 -59.4 
L 321.009833 -59.4 
L 323.286208 -59.4 
L 325.562583 -59.4 
L 327.838958 -59.4 
L 330.115334 -59.4 
L 332.391709 -59.4 
L 334.668084 -59.4 
L 336.944459 -59.4 
L 339.220834 -59.4 
L 341.497209 -59.4 
L 343.773584 -59.4 
L 346.049959 -59.4 
L 348.326334 -59.4 
L 350.602709 -59.4 
L 352.879084 -59.4 
L 355.155459 -59.4 
L 357.431834 -59.4 
L 359.708209 -59.4 
L 361.984584 -59.4 
L 364.260959 -59.4 
L 366.537334 -59.4 
L 368.813709 -59.4 
L 371.090085 -59.4 
L 373.36646 -59.4 
L 375.642835 -59.4 
L 377.91921 -59.4 
L 380.195585 -59.4 
L 382.47196 -59.4 
L 384.748335 -59.4 
L 387.02471 -59.4 
L 389.301085 -59.4 
L 391.57746 -59.4 
L 393.853835 -59.4 
L 396.13021 -59.4 
L 398.406585 -59.4 
L 400.68296 -59.4 
L 402.959335 -59.4 
L 405.23571 -59.4 
L 407.512085 -59.4 
L 409.788461 -59.4 
L 412.064836 -59.4 
L 414.341211 -59.4 
L 416.617586 -59.4 
L 418.893961 -59.4 
L 421.170336 -59.4 
L 423.446711 -59.4 
L 425.723086 -59.4 
L 427.999461 -59.4 
L 430.275836 -59.4 
L 432.552211 -59.4 
L 434.828586 -59.4 
L 437.104961 -59.4 
L 439.381336 -59.4 
L 441.657711 -59.4 
L 443.934086 -59.4 
L 446.210461 -59.4 
L 448.486836 -59.4 
L 450.763212 -59.4 
L 453.039587 -59.4 
L 455.315962 -59.4 
L 457.592337 -59.4 
L 459.868712 -59.4 
L 462.145087 -59.4 
L 464.421462 -59.4 
L 466.697837 -59.4 
L 468.974212 -59.4 
L 471.250587 -59.4 
L 473.526962 -59.4 
L 475.803337 -59.4 
L 478.079712 -59.4 
L 480.356087 -59.4 
L 482.632462 -59.4 
L 484.908837 -59.4 
L 487.185212 -59.4 
L 489.461588 -59.4 
L 491.737963 -59.4 
L 494.014338 -59.4 
L 496.290713 -59.4 
L 498.567088 -59.4 
L 500.843463 -59.4 
L 503.119838 -59.4 
L 505.396213 -59.4 
L 507.672588 -59.4 
L 509.948963 -59.4 
L 512.225338 -59.4 
L 514.501713 -59.4 
L 516.778088 -59.4 
L 519.054463 -59.4 
L 521.330838 -59.4 
L 523.607213 -59.4 
L 525.883588 -59.4 
L 528.159963 -59.4 
L 530.436339 -59.4 
L 532.712714 -59.4 
L 534.989089 -59.4 
L 537.265464 -59.4 
L 539.541839 -59.4 
L 541.818214 -59.4 
L 544.094589 -59.4 
L 546.370964 -59.4 
L 548.647339 -59.4 
L 550.923714 -59.4 
L 553.200089 -59.4 
L 555.476464 -59.4 
L 557.752839 -59.4 
L 560.029214 -59.4 
L 562.305589 -59.4 
L 564.581964 -59.4 
L 566.858339 -59.4 
L 569.134715 -59.4 
L 571.41109 -59.4 
L 573.687465 -59.4 
L 575.96384 -59.4 
L 578.240215 -59.4 
L 580.51659 -59.4 
L 582.792965 -59.4 
L 585.06934 -59.4 
L 587.345715 -59.4 
L 589.62209 -59.4 
L 591.898465 -59.4 
L 594.17484 -59.4 
L 596.451215 -59.4 
L 598.72759 -59.4 
L 601.003965 -59.4 
L 603.28034 -59.4 
L 605.556715 -59.4 
L 607.833091 -59.4 
L 610.109466 -59.4 
L 612.385841 -59.4 
L 614.662216 -59.4 
L 616.938591 -59.4 
L 619.214966 -59.4 
L 621.491341 -59.4 
L 623.767716 -59.4 
L 626.044091 -59.4 
L 626.044091 -59.496015 
L 626.044091 -59.496015 
L 623.767716 -59.53079 
L 621.491341 -59.576212 
L 619.214966 -59.634813 
L 616.938591 -59.70948 
L 614.662216 -59.803431 
L 612.385841 -59.920154 
L 610.109466 -60.063317 
L 607.833091 -60.236638 
L 605.556715 -60.443718 
L 603.28034 -60.687831 
L 601.003965 -60.97169 
L 598.72759 -61.297185 
L 596.451215 -61.665119 
L 594.17484 -62.074946 
L 591.898465 -62.524553 
L 589.62209 -63.010082 
L 587.345715 -63.525844 
L 585.06934 -64.064317 
L 582.792965 -64.616272 
L 580.51659 -65.171009 
L 578.240215 -65.716726 
L 575.96384 -66.241001 
L 573.687465 -66.731365 
L 571.41109 -67.175945 
L 569.134715 -67.564132 
L 566.858339 -67.887238 
L 564.581964 -68.139089 
L 562.305589 -68.316514 
L 560.029214 -68.41969 
L 557.752839 -68.452317 
L 555.476464 -68.421594 
L 553.200089 -68.338 
L 550.923714 -68.214895 
L 548.647339 -68.067939 
L 546.370964 -67.914403 
L 544.094589 -67.772377 
L 541.818214 -67.659959 
L 539.541839 -67.594452 
L 537.265464 -67.591644 
L 534.989089 -67.665194 
L 532.712714 -67.826174 
L 530.436339 -68.08279 
L 528.159963 -68.440289 
L 525.883588 -68.90105 
L 523.607213 -69.464853 
L 521.330838 -70.129278 
L 519.054463 -70.890229 
L 516.778088 -71.742504 
L 514.501713 -72.680397 
L 512.225338 -73.698268 
L 509.948963 -74.791048 
L 507.672588 -75.954646 
L 505.396213 -77.186235 
L 503.119838 -78.484405 
L 500.843463 -79.849183 
L 498.567088 -81.281941 
L 496.290713 -82.785193 
L 494.014338 -84.362336 
L 491.737963 -86.017346 
L 489.461588 -87.754474 
L 487.185212 -89.577965 
L 484.908837 -91.491834 
L 482.632462 -93.499709 
L 480.356087 -95.604755 
L 478.079712 -97.80968 
L 475.803337 -100.116806 
L 473.526962 -102.528217 
L 471.250587 -105.045926 
L 468.974212 -107.672085 
L 466.697837 -110.409169 
L 464.421462 -113.260158 
L 462.145087 -116.228664 
L 459.868712 -119.319014 
L 457.592337 -122.536264 
L 455.315962 -125.886154 
L 453.039587 -129.375002 
L 450.763212 -133.009544 
L 448.486836 -136.796737 
L 446.210461 -140.743538 
L 443.934086 -144.856676 
L 441.657711 -149.142445 
L 439.381336 -153.606527 
L 437.104961 -158.25386 
L 434.828586 -163.088575 
L 432.552211 -168.113992 
L 430.275836 -173.332683 
L 427.999461 -178.746599 
L 425.723086 -184.35723 
L 423.446711 -190.165792 
L 421.170336 -196.173409 
L 418.893961 -202.381256 
L 416.617586 -208.790641 
L 414.341211 -215.402987 
L 412.064836 -222.219705 
L 409.788461 -229.241926 
L 407.512085 -236.470102 
L 405.23571 -243.903468 
L 402.959335 -251.53939 
L 400.68296 -259.372627 
L 398.406585 -267.394546 
L 396.13021 -275.592326 
L 393.853835 -283.948227 
L 391.57746 -292.438958 
L 389.301085 -301.035203 
L 387.02471 -309.701352 
L 384.748335 -318.395479 
L 382.47196 -327.069581 
L 380.195585 -335.670095 
L 377.91921 -344.138686 
L 375.642835 -352.413275 
L 373.36646 -360.429278 
L 371.090085 -368.120984 
L 368.813709 -375.423026 
L 366.537334 -382.271864 
L 364.260959 -388.607199 
L 361.984584 -394.373268 
L 359.708209 -399.519938 
L 357.431834 -404.003567 
L 355.155459 -407.787595 
L 352.879084 -410.84285 
L 350.602709 -413.147584 
L 348.326334 -414.687258 
L 346.049959 -415.454119 
L 343.773584 -415.44662 
L 341.497209 -414.668748 
L 339.220834 -413.129306 
L 336.944459 -410.841218 
L 334.668084 -407.820893 
L 332.391709 -404.087699 
L 330.115334 -399.663541 
L 327.838958 -394.572588 
L 325.562583 -388.841101 
L 323.286208 -382.497386 
L 321.009833 -375.571809 
L 318.733458 -368.096874 
L 316.457083 -360.10731 
L 314.180708 -351.640147 
L 311.904333 -342.734762 
L 309.627958 -333.432857 
L 307.351583 -323.778384 
L 305.075208 -313.817384 
L 302.798833 -303.597765 
L 300.522458 -293.16901 
L 298.246083 -282.58183 
L 295.969708 -271.887778 
L 293.693333 -261.138823 
L 291.416958 -250.386906 
L 289.140582 -239.683475 
L 286.864207 -229.079008 
L 284.587832 -218.622535 
L 282.311457 -208.361145 
L 280.035082 -198.339493 
L 277.758707 -188.599303 
L 275.482332 -179.178878 
L 273.205957 -170.112618 
L 270.929582 -161.430567 
L 268.653207 -153.157996 
L 266.376832 -145.31505 
L 264.100457 -137.91648 
L 261.824082 -130.971467 
L 259.547707 -124.483587 
L 257.271332 -118.450907 
L 254.994957 -112.866229 
L 252.718582 -107.717498 
L 250.442206 -102.988341 
L 248.165831 -98.658745 
L 245.889456 -94.705823 
L 243.613081 -91.104651 
L 241.336706 -87.829124 
L 239.060331 -84.85279 
L 236.783956 -82.149628 
L 234.507581 -79.69471 
L 232.231206 -77.464748 
L 229.954831 -75.438478 
L 227.678456 -73.596891 
L 225.402081 -71.923305 
L 223.125706 -70.4033 
L 220.849331 -69.02453 
L 218.572956 -67.776456 
L 216.296581 -66.650019 
L 214.020206 -65.637294 
L 211.743831 -64.731155 
L 209.467455 -63.924977 
L 207.19108 -63.212386 
L 204.914705 -62.587077 
L 202.63833 -62.042703 
L 200.361955 -61.572817 
L 198.08558 -61.170885 
L 195.809205 -60.830329 
L 193.53283 -60.544613 
L 191.256455 -60.307337 
L 188.98008 -60.112337 
L 186.703705 -59.953783 
L 184.42733 -59.826254 
L 182.150955 -59.724801 
L 179.87458 -59.644984 
L 177.598205 -59.582889 
L 175.32183 -59.535123 
L 173.045455 -59.498794 
z
" style="stroke: #ff7f0e"/>
    </defs>
    <g clip-path="url(#p5044c5b403)">
     <use xlink:href="#m588cf87eed" x="0" y="540" style="fill: #ff7f0e; fill-opacity: 0.25; stroke: #ff7f0e"/>
    </g>
   </g>
   <g id="FillBetweenPolyCollection_2">
    <defs>
     <path id="mcaaefa702b" d="M 447.702773 -59.501367 
L 447.702773 -59.4 
L 450.146249 -59.4 
L 452.589726 -59.4 
L 455.033202 -59.4 
L 457.476678 -59.4 
L 459.920154 -59.4 
L 462.363631 -59.4 
L 464.807107 -59.4 
L 467.250583 -59.4 
L 469.694059 -59.4 
L 472.137536 -59.4 
L 474.581012 -59.4 
L 477.024488 -59.4 
L 479.467964 -59.4 
L 481.911441 -59.4 
L 484.354917 -59.4 
L 486.798393 -59.4 
L 489.241869 -59.4 
L 491.685346 -59.4 
L 494.128822 -59.4 
L 496.572298 -59.4 
L 499.015774 -59.4 
L 501.459251 -59.4 
L 503.902727 -59.4 
L 506.346203 -59.4 
L 508.789679 -59.4 
L 511.233155 -59.4 
L 513.676632 -59.4 
L 516.120108 -59.4 
L 518.563584 -59.4 
L 521.00706 -59.4 
L 523.450537 -59.4 
L 525.894013 -59.4 
L 528.337489 -59.4 
L 530.780965 -59.4 
L 533.224442 -59.4 
L 535.667918 -59.4 
L 538.111394 -59.4 
L 540.55487 -59.4 
L 542.998347 -59.4 
L 545.441823 -59.4 
L 547.885299 -59.4 
L 550.328775 -59.4 
L 552.772252 -59.4 
L 555.215728 -59.4 
L 557.659204 -59.4 
L 560.10268 -59.4 
L 562.546157 -59.4 
L 564.989633 -59.4 
L 567.433109 -59.4 
L 569.876585 -59.4 
L 572.320062 -59.4 
L 574.763538 -59.4 
L 577.207014 -59.4 
L 579.65049 -59.4 
L 582.093967 -59.4 
L 584.537443 -59.4 
L 586.980919 -59.4 
L 589.424395 -59.4 
L 591.867872 -59.4 
L 594.311348 -59.4 
L 596.754824 -59.4 
L 599.1983 -59.4 
L 601.641776 -59.4 
L 604.085253 -59.4 
L 606.528729 -59.4 
L 608.972205 -59.4 
L 611.415681 -59.4 
L 613.859158 -59.4 
L 616.302634 -59.4 
L 618.74611 -59.4 
L 621.189586 -59.4 
L 623.633063 -59.4 
L 626.076539 -59.4 
L 628.520015 -59.4 
L 630.963491 -59.4 
L 633.406968 -59.4 
L 635.850444 -59.4 
L 638.29392 -59.4 
L 640.737396 -59.4 
L 643.180873 -59.4 
L 645.624349 -59.4 
L 648.067825 -59.4 
L 650.511301 -59.4 
L 652.954778 -59.4 
L 655.398254 -59.4 
L 657.84173 -59.4 
L 660.285206 -59.4 
L 662.728683 -59.4 
L 665.172159 -59.4 
L 667.615635 -59.4 
L 670.059111 -59.4 
L 672.502588 -59.4 
L 674.946064 -59.4 
L 677.38954 -59.4 
L 679.833016 -59.4 
L 682.276492 -59.4 
L 684.719969 -59.4 
L 687.163445 -59.4 
L 689.606921 -59.4 
L 692.050397 -59.4 
L 694.493874 -59.4 
L 696.93735 -59.4 
L 699.380826 -59.4 
L 701.824302 -59.4 
L 704.267779 -59.4 
L 706.711255 -59.4 
L 709.154731 -59.4 
L 711.598207 -59.4 
L 714.041684 -59.4 
L 716.48516 -59.4 
L 718.928636 -59.4 
L 721.372112 -59.4 
L 723.815589 -59.4 
L 726.259065 -59.4 
L 728.702541 -59.4 
L 731.146017 -59.4 
L 733.589494 -59.4 
L 736.03297 -59.4 
L 738.476446 -59.4 
L 740.919922 -59.4 
L 743.363399 -59.4 
L 745.806875 -59.4 
L 748.250351 -59.4 
L 750.693827 -59.4 
L 753.137304 -59.4 
L 755.58078 -59.4 
L 758.024256 -59.4 
L 760.467732 -59.4 
L 762.911208 -59.4 
L 765.354685 -59.4 
L 767.798161 -59.4 
L 770.241637 -59.4 
L 772.685113 -59.4 
L 775.12859 -59.4 
L 777.572066 -59.4 
L 780.015542 -59.4 
L 782.459018 -59.4 
L 784.902495 -59.4 
L 787.345971 -59.4 
L 789.789447 -59.4 
L 792.232923 -59.4 
L 794.6764 -59.4 
L 797.119876 -59.4 
L 799.563352 -59.4 
L 802.006828 -59.4 
L 804.450305 -59.4 
L 806.893781 -59.4 
L 809.337257 -59.4 
L 811.780733 -59.4 
L 814.22421 -59.4 
L 816.667686 -59.4 
L 819.111162 -59.4 
L 821.554638 -59.4 
L 823.998115 -59.4 
L 826.441591 -59.4 
L 828.885067 -59.4 
L 831.328543 -59.4 
L 833.77202 -59.4 
L 836.215496 -59.4 
L 838.658972 -59.4 
L 841.102448 -59.4 
L 843.545924 -59.4 
L 845.989401 -59.4 
L 848.432877 -59.4 
L 850.876353 -59.4 
L 853.319829 -59.4 
L 855.763306 -59.4 
L 858.206782 -59.4 
L 860.650258 -59.4 
L 863.093734 -59.4 
L 865.537211 -59.4 
L 867.980687 -59.4 
L 870.424163 -59.4 
L 872.867639 -59.4 
L 875.311116 -59.4 
L 877.754592 -59.4 
L 880.198068 -59.4 
L 882.641544 -59.4 
L 885.085021 -59.4 
L 887.528497 -59.4 
L 889.971973 -59.4 
L 892.415449 -59.4 
L 894.858926 -59.4 
L 897.302402 -59.4 
L 899.745878 -59.4 
L 902.189354 -59.4 
L 904.632831 -59.4 
L 907.076307 -59.4 
L 909.519783 -59.4 
L 911.963259 -59.4 
L 914.406736 -59.4 
L 916.850212 -59.4 
L 919.293688 -59.4 
L 921.737164 -59.4 
L 924.18064 -59.4 
L 926.624117 -59.4 
L 929.067593 -59.4 
L 931.511069 -59.4 
L 933.954545 -59.4 
L 933.954545 -59.502961 
L 933.954545 -59.502961 
L 931.511069 -59.547025 
L 929.067593 -59.606888 
L 926.624117 -59.686883 
L 924.18064 -59.792014 
L 921.737164 -59.927866 
L 919.293688 -60.100444 
L 916.850212 -60.315901 
L 914.406736 -60.580186 
L 911.963259 -60.898576 
L 909.519783 -61.275139 
L 907.076307 -61.712143 
L 904.632831 -62.209457 
L 902.189354 -62.764004 
L 899.745878 -63.369332 
L 897.302402 -64.015356 
L 894.858926 -64.68835 
L 892.415449 -65.371217 
L 889.971973 -66.044066 
L 887.528497 -66.685086 
L 885.085021 -67.271672 
L 882.641544 -67.781734 
L 880.198068 -68.195088 
L 877.754592 -68.494809 
L 875.311116 -68.66843 
L 872.867639 -68.708873 
L 870.424163 -68.615035 
L 867.980687 -68.391955 
L 865.537211 -68.05058 
L 863.093734 -67.607141 
L 860.650258 -67.08221 
L 858.206782 -66.499553 
L 855.763306 -65.88487 
L 853.319829 -65.264548 
L 850.876353 -64.664528 
L 848.432877 -64.109367 
L 845.989401 -63.62152 
L 843.545924 -63.220892 
L 841.102448 -62.9246 
L 838.658972 -62.746946 
L 836.215496 -62.69951 
L 833.77202 -62.791339 
L 831.328543 -63.029159 
L 828.885067 -63.417593 
L 826.441591 -63.959357 
L 823.998115 -64.655456 
L 821.554638 -65.505389 
L 819.111162 -66.507395 
L 816.667686 -67.658785 
L 814.22421 -68.956371 
L 811.780733 -70.397008 
L 809.337257 -71.978239 
L 806.893781 -73.699003 
L 804.450305 -75.560367 
L 802.006828 -77.566196 
L 799.563352 -79.723705 
L 797.119876 -82.043819 
L 794.6764 -84.541285 
L 792.232923 -87.23452 
L 789.789447 -90.145175 
L 787.345971 -93.29745 
L 784.902495 -96.717215 
L 782.459018 -100.430991 
L 780.015542 -104.464882 
L 777.572066 -108.843532 
L 775.12859 -113.589177 
L 772.685113 -118.720836 
L 770.241637 -124.253702 
L 767.798161 -130.19871 
L 765.354685 -136.562326 
L 762.911208 -143.346502 
L 760.467732 -150.548809 
L 758.024256 -158.162704 
L 755.58078 -166.177918 
L 753.137304 -174.580947 
L 750.693827 -183.355609 
L 748.250351 -192.483656 
L 745.806875 -201.945396 
L 743.363399 -211.720281 
L 740.919922 -221.78741 
L 738.476446 -232.12587 
L 736.03297 -242.714858 
L 733.589494 -253.533518 
L 731.146017 -264.560457 
L 728.702541 -275.772924 
L 726.259065 -287.145688 
L 723.815589 -298.649687 
L 721.372112 -310.250562 
L 718.928636 -321.907212 
L 716.48516 -333.570548 
L 714.041684 -345.182592 
L 711.598207 -356.676059 
L 709.154731 -367.974515 
L 706.711255 -378.993156 
L 704.267779 -389.640166 
L 701.824302 -399.818586 
L 699.380826 -409.428558 
L 696.93735 -418.369765 
L 694.493874 -426.543916 
L 692.050397 -433.857094 
L 689.606921 -440.221845 
L 687.163445 -445.558924 
L 684.719969 -449.79866 
L 682.276492 -452.88197 
L 679.833016 -454.761075 
L 677.38954 -455.4 
L 674.946064 -454.77497 
L 672.502588 -452.874773 
L 670.059111 -449.701144 
L 667.615635 -445.269206 
L 665.172159 -439.60792 
L 662.728683 -432.760499 
L 660.285206 -424.784671 
L 657.84173 -415.75269 
L 655.398254 -405.750967 
L 652.954778 -394.879228 
L 650.511301 -383.249129 
L 648.067825 -370.982303 
L 645.624349 -358.207869 
L 643.180873 -345.059474 
L 640.737396 -331.672003 
L 638.29392 -318.178108 
L 635.850444 -304.704746 
L 633.406968 -291.369916 
L 630.963491 -278.279783 
L 628.520015 -265.526342 
L 626.076539 -253.185757 
L 623.633063 -241.317453 
L 621.189586 -229.963976 
L 618.74611 -219.151615 
L 616.302634 -208.891702 
L 613.859158 -199.18247 
L 611.415681 -190.011318 
L 608.972205 -181.357313 
L 606.528729 -173.19375 
L 604.085253 -165.490592 
L 601.641776 -158.216658 
L 599.1983 -151.341428 
L 596.754824 -144.836405 
L 594.311348 -138.676006 
L 591.867872 -132.838005 
L 589.424395 -127.303576 
L 586.980919 -122.057045 
L 584.537443 -117.085442 
L 582.093967 -112.37797 
L 579.65049 -107.925496 
L 577.207014 -103.720136 
L 574.763538 -99.754985 
L 572.320062 -96.024019 
L 569.876585 -92.522131 
L 567.433109 -89.245282 
L 564.989633 -86.190684 
L 562.546157 -83.356954 
L 560.10268 -80.744174 
L 557.659204 -78.353797 
L 555.215728 -76.188362 
L 552.772252 -74.251015 
L 550.328775 -72.544851 
L 547.885299 -71.072109 
L 545.441823 -69.83329 
L 542.998347 -68.826256 
L 540.55487 -68.045404 
L 538.111394 -67.480979 
L 535.667918 -67.118612 
L 533.224442 -66.939127 
L 530.780965 -66.91868 
L 528.337489 -67.029231 
L 525.894013 -67.239355 
L 523.450537 -67.51536 
L 521.00706 -67.822649 
L 518.563584 -68.127239 
L 516.120108 -68.397334 
L 513.676632 -68.604842 
L 511.233155 -68.726695 
L 508.789679 -68.745884 
L 506.346203 -68.652119 
L 503.902727 -68.442041 
L 501.459251 -68.118995 
L 499.015774 -67.692371 
L 496.572298 -67.176585 
L 494.128822 -66.589794 
L 491.685346 -65.952465 
L 489.241869 -65.285913 
L 486.798393 -64.610938 
L 484.354917 -63.946646 
L 481.911441 -63.309541 
L 479.467964 -62.712913 
L 477.024488 -62.16654 
L 474.581012 -61.67668 
L 472.137536 -61.246296 
L 469.694059 -60.875479 
L 467.250583 -60.56197 
L 464.807107 -60.30175 
L 462.363631 -60.089614 
L 459.920154 -59.919701 
L 457.476678 -59.785947 
L 455.033202 -59.682443 
L 452.589726 -59.603685 
L 450.146249 -59.544749 
L 447.702773 -59.501367 
z
" style="stroke: #1f77b4"/>
    </defs>
    <g clip-path="url(#p5044c5b403)">
     <use xlink:href="#mcaaefa702b" x="0" y="540" style="fill: #1f77b4; fill-opacity: 0.25; stroke: #1f77b4"/>
    </g>
   </g>
   <g id="matplotlib.axis_1">
    <g id="xtick_1">
     <g id="line2d_1">
      <defs>
       <path id="m8c243da5b4" d="M 0 0 
L 0 3.5 
" style="stroke: #000000; stroke-width: 0.8"/>
      </defs>
      <g>
       <use xlink:href="#m8c243da5b4" x="276.197099" y="480.6" style="stroke: #000000; stroke-width: 0.8"/>
      </g>
     </g>
     <g id="text_1">
      <!-- 1 -->
      <g transform="translate(273.015849 495.198438) scale(0.1 -0.1)">
       <defs>
        <path id="DejaVuSans-31" d="M 794 531 
L 1825 531 
L 1825 4091 
L 703 3866 
L 703 4441 
L 1819 4666 
L 2450 4666 
L 2450 531 
L 3481 531 
L 3481 0 
L 794 0 
L 794 531 
z
" transform="scale(0.015625)"/>
       </defs>
       <use xlink:href="#DejaVuSans-31"/>
      </g>
     </g>
    </g>
    <g id="xtick_2">
     <g id="line2d_2">
      <g>
       <use xlink:href="#m8c243da5b4" x="345.205632" y="480.6" style="stroke: #000000; stroke-width: 0.8"/>
      </g>
     </g>
     <g id="text_2">
      <!-- 2 -->
      <g transform="translate(342.024382 495.198438) scale(0.1 -0.1)">
       <defs>
        <path id="DejaVuSans-32" d="M 1228 531 
L 3431 531 
L 3431 0 
L 469 0 
L 469 531 
Q 828 903 1448 1529 
Q 2069 2156 2228 2338 
Q 2531 2678 2651 2914 
Q 2772 3150 2772 3378 
Q 2772 3750 2511 3984 
Q 2250 4219 1831 4219 
Q 1534 4219 1204 4116 
Q 875 4013 500 3803 
L 500 4441 
Q 881 4594 1212 4672 
Q 1544 4750 1819 4750 
Q 2544 4750 2975 4387 
Q 3406 4025 3406 3419 
Q 3406 3131 3298 2873 
Q 3191 2616 2906 2266 
Q 2828 2175 2409 1742 
Q 1991 1309 1228 531 
z
" transform="scale(0.015625)"/>
       </defs>
       <use xlink:href="#DejaVuSans-32"/>
      </g>
     </g>
    </g>
    <g id="xtick_3">
     <g id="line2d_3">
      <g>
       <use xlink:href="#m8c243da5b4" x="436.429951" y="480.6" style="stroke: #000000; stroke-width: 0.8"/>
      </g>
     </g>
     <g id="text_3">
      <!-- 5 -->
      <g transform="translate(433.248701 495.198438) scale(0.1 -0.1)">
       <defs>
        <path id="DejaVuSans-35" d="M 691 4666 
L 3169 4666 
L 3169 4134 
L 1269 4134 
L 1269 2991 
Q 1406 3038 1543 3061 
Q 1681 3084 1819 3084 
Q 2600 3084 3056 2656 
Q 3513 2228 3513 1497 
Q 3513 744 3044 326 
Q 2575 -91 1722 -91 
Q 1428 -91 1123 -41 
Q 819 9 494 109 
L 494 744 
Q 775 591 1075 516 
Q 1375 441 1709 441 
Q 2250 441 2565 725 
Q 2881 1009 2881 1497 
Q 2881 1984 2565 2268 
Q 2250 2553 1709 2553 
Q 1456 2553 1204 2497 
Q 953 2441 691 2322 
L 691 4666 
z
" transform="scale(0.015625)"/>
       </defs>
       <use xlink:href="#DejaVuSans-35"/>
      </g>
     </g>
    </g>
    <g id="xtick_4">
     <g id="line2d_4">
      <g>
       <use xlink:href="#m8c243da5b4" x="505.438485" y="480.6" style="stroke: #000000; stroke-width: 0.8"/>
      </g>
     </g>
     <g id="text_4">
      <!-- 10 -->
      <g transform="translate(499.075985 495.198438) scale(0.1 -0.1)">
       <defs>
        <path id="DejaVuSans-30" d="M 2034 4250 
Q 1547 4250 1301 3770 
Q 1056 3291 1056 2328 
Q 1056 1369 1301 889 
Q 1547 409 2034 409 
Q 2525 409 2770 889 
Q 3016 1369 3016 2328 
Q 3016 3291 2770 3770 
Q 2525 4250 2034 4250 
z
M 2034 4750 
Q 2819 4750 3233 4129 
Q 3647 3509 3647 2328 
Q 3647 1150 3233 529 
Q 2819 -91 2034 -91 
Q 1250 -91 836 529 
Q 422 1150 422 2328 
Q 422 3509 836 4129 
Q 1250 4750 2034 4750 
z
" transform="scale(0.015625)"/>
       </defs>
       <use xlink:href="#DejaVuSans-31"/>
       <use xlink:href="#DejaVuSans-30" transform="translate(63.623047 0)"/>
      </g>
     </g>
    </g>
    <g id="xtick_5">
     <g id="line2d_5">
      <g>
       <use xlink:href="#m8c243da5b4" x="574.447018" y="480.6" style="stroke: #000000; stroke-width: 0.8"/>
      </g>
     </g>
     <g id="text_5">
      <!-- 20 -->
      <g transform="translate(568.084518 495.198438) scale(0.1 -0.1)">
       <use xlink:href="#DejaVuSans-32"/>
       <use xlink:href="#DejaVuSans-30" transform="translate(63.623047 0)"/>
      </g>
     </g>
    </g>
    <g id="xtick_6">
     <g id="line2d_6">
      <g>
       <use xlink:href="#m8c243da5b4" x="665.671337" y="480.6" style="stroke: #000000; stroke-width: 0.8"/>
      </g>
     </g>
     <g id="text_6">
      <!-- 50 -->
      <g transform="translate(659.308837 495.198438) scale(0.1 -0.1)">
       <use xlink:href="#DejaVuSans-35"/>
       <use xlink:href="#DejaVuSans-30" transform="translate(63.623047 0)"/>
      </g>
     </g>
    </g>
    <g id="xtick_7">
     <g id="line2d_7">
      <g>
       <use xlink:href="#m8c243da5b4" x="734.679871" y="480.6" style="stroke: #000000; stroke-width: 0.8"/>
      </g>
     </g>
     <g id="text_7">
      <!-- 100 -->
      <g transform="translate(725.136121 495.198438) scale(0.1 -0.1)">
       <use xlink:href="#DejaVuSans-31"/>
       <use xlink:href="#DejaVuSans-30" transform="translate(63.623047 0)"/>
       <use xlink:href="#DejaVuSans-30" transform="translate(127.246094 0)"/>
      </g>
     </g>
    </g>
    <g id="xtick_8">
     <g id="line2d_8">
      <g>
       <use xlink:href="#m8c243da5b4" x="803.688404" y="480.6" style="stroke: #000000; stroke-width: 0.8"/>
      </g>
     </g>
     <g id="text_8">
      <!-- 200 -->
      <g transform="translate(794.144654 495.198438) scale(0.1 -0.1)">
       <use xlink:href="#DejaVuSans-32"/>
       <use xlink:href="#DejaVuSans-30" transform="translate(63.623047 0)"/>
       <use xlink:href="#DejaVuSans-30" transform="translate(127.246094 0)"/>
      </g>
     </g>
    </g>
    <g id="xtick_9">
     <g id="line2d_9">
      <g>
       <use xlink:href="#m8c243da5b4" x="894.912723" y="480.6" style="stroke: #000000; stroke-width: 0.8"/>
      </g>
     </g>
     <g id="text_9">
      <!-- 500 -->
      <g transform="translate(885.368973 495.198438) scale(0.1 -0.1)">
       <use xlink:href="#DejaVuSans-35"/>
       <use xlink:href="#DejaVuSans-30" transform="translate(63.623047 0)"/>
       <use xlink:href="#DejaVuSans-30" transform="translate(127.246094 0)"/>
      </g>
     </g>
    </g>
    <g id="xtick_10">
     <g id="line2d_10">
      <g>
       <use xlink:href="#m8c243da5b4" x="963.921256" y="480.6" style="stroke: #000000; stroke-width: 0.8"/>
      </g>
     </g>
     <g id="text_10">
      <!-- 1000 -->
      <g transform="translate(951.196256 495.198438) scale(0.1 -0.1)">
       <use xlink:href="#DejaVuSans-31"/>
       <use xlink:href="#DejaVuSans-30" transform="translate(63.623047 0)"/>
       <use xlink:href="#DejaVuSans-30" transform="translate(127.246094 0)"/>
       <use xlink:href="#DejaVuSans-30" transform="translate(190.869141 0)"/>
      </g>
     </g>
    </g>
    <g id="xtick_11">
     <g id="line2d_11">
      <defs>
       <path id="m66f7ce505a" d="M 0 0 
L 0 2 
" style="stroke: #000000; stroke-width: 0.6"/>
      </defs>
      <g>
       <use xlink:href="#m66f7ce505a" x="156.331651" y="480.6" style="stroke: #000000; stroke-width: 0.6"/>
      </g>
     </g>
    </g>
    <g id="xtick_12">
     <g id="line2d_12">
      <g>
       <use xlink:href="#m66f7ce505a" x="184.97278" y="480.6" style="stroke: #000000; stroke-width: 0.6"/>
      </g>
     </g>
    </g>
    <g id="xtick_13">
     <g id="line2d_13">
      <g>
       <use xlink:href="#m66f7ce505a" x="207.188566" y="480.6" style="stroke: #000000; stroke-width: 0.6"/>
      </g>
     </g>
    </g>
    <g id="xtick_14">
     <g id="line2d_14">
      <g>
       <use xlink:href="#m66f7ce505a" x="225.340184" y="480.6" style="stroke: #000000; stroke-width: 0.6"/>
      </g>
     </g>
    </g>
    <g id="xtick_15">
     <g id="line2d_15">
      <g>
       <use xlink:href="#m66f7ce505a" x="240.687159" y="480.6" style="stroke: #000000; stroke-width: 0.6"/>
      </g>
     </g>
    </g>
    <g id="xtick_16">
     <g id="line2d_16">
      <g>
       <use xlink:href="#m66f7ce505a" x="253.981313" y="480.6" style="stroke: #000000; stroke-width: 0.6"/>
      </g>
     </g>
    </g>
    <g id="xtick_17">
     <g id="line2d_17">
      <g>
       <use xlink:href="#m66f7ce505a" x="265.707588" y="480.6" style="stroke: #000000; stroke-width: 0.6"/>
      </g>
     </g>
    </g>
    <g id="xtick_18">
     <g id="line2d_18">
      <g>
       <use xlink:href="#m66f7ce505a" x="385.573037" y="480.6" style="stroke: #000000; stroke-width: 0.6"/>
      </g>
     </g>
    </g>
    <g id="xtick_19">
     <g id="line2d_19">
      <g>
       <use xlink:href="#m66f7ce505a" x="414.214166" y="480.6" style="stroke: #000000; stroke-width: 0.6"/>
      </g>
     </g>
    </g>
    <g id="xtick_20">
     <g id="line2d_20">
      <g>
       <use xlink:href="#m66f7ce505a" x="454.58157" y="480.6" style="stroke: #000000; stroke-width: 0.6"/>
      </g>
     </g>
    </g>
    <g id="xtick_21">
     <g id="line2d_21">
      <g>
       <use xlink:href="#m66f7ce505a" x="469.928545" y="480.6" style="stroke: #000000; stroke-width: 0.6"/>
      </g>
     </g>
    </g>
    <g id="xtick_22">
     <g id="line2d_22">
      <g>
       <use xlink:href="#m66f7ce505a" x="483.222699" y="480.6" style="stroke: #000000; stroke-width: 0.6"/>
      </g>
     </g>
    </g>
    <g id="xtick_23">
     <g id="line2d_23">
      <g>
       <use xlink:href="#m66f7ce505a" x="494.948974" y="480.6" style="stroke: #000000; stroke-width: 0.6"/>
      </g>
     </g>
    </g>
    <g id="xtick_24">
     <g id="line2d_24">
      <g>
       <use xlink:href="#m66f7ce505a" x="614.814422" y="480.6" style="stroke: #000000; stroke-width: 0.6"/>
      </g>
     </g>
    </g>
    <g id="xtick_25">
     <g id="line2d_25">
      <g>
       <use xlink:href="#m66f7ce505a" x="643.455552" y="480.6" style="stroke: #000000; stroke-width: 0.6"/>
      </g>
     </g>
    </g>
    <g id="xtick_26">
     <g id="line2d_26">
      <g>
       <use xlink:href="#m66f7ce505a" x="683.822956" y="480.6" style="stroke: #000000; stroke-width: 0.6"/>
      </g>
     </g>
    </g>
    <g id="xtick_27">
     <g id="line2d_27">
      <g>
       <use xlink:href="#m66f7ce505a" x="699.169931" y="480.6" style="stroke: #000000; stroke-width: 0.6"/>
      </g>
     </g>
    </g>
    <g id="xtick_28">
     <g id="line2d_28">
      <g>
       <use xlink:href="#m66f7ce505a" x="712.464085" y="480.6" style="stroke: #000000; stroke-width: 0.6"/>
      </g>
     </g>
    </g>
    <g id="xtick_29">
     <g id="line2d_29">
      <g>
       <use xlink:href="#m66f7ce505a" x="724.19036" y="480.6" style="stroke: #000000; stroke-width: 0.6"/>
      </g>
     </g>
    </g>
    <g id="xtick_30">
     <g id="line2d_30">
      <g>
       <use xlink:href="#m66f7ce505a" x="844.055808" y="480.6" style="stroke: #000000; stroke-width: 0.6"/>
      </g>
     </g>
    </g>
    <g id="xtick_31">
     <g id="line2d_31">
      <g>
       <use xlink:href="#m66f7ce505a" x="872.696937" y="480.6" style="stroke: #000000; stroke-width: 0.6"/>
      </g>
     </g>
    </g>
    <g id="xtick_32">
     <g id="line2d_32">
      <g>
       <use xlink:href="#m66f7ce505a" x="913.064342" y="480.6" style="stroke: #000000; stroke-width: 0.6"/>
      </g>
     </g>
    </g>
    <g id="xtick_33">
     <g id="line2d_33">
      <g>
       <use xlink:href="#m66f7ce505a" x="928.411317" y="480.6" style="stroke: #000000; stroke-width: 0.6"/>
      </g>
     </g>
    </g>
    <g id="xtick_34">
     <g id="line2d_34">
      <g>
       <use xlink:href="#m66f7ce505a" x="941.705471" y="480.6" style="stroke: #000000; stroke-width: 0.6"/>
      </g>
     </g>
    </g>
    <g id="xtick_35">
     <g id="line2d_35">
      <g>
       <use xlink:href="#m66f7ce505a" x="953.431746" y="480.6" style="stroke: #000000; stroke-width: 0.6"/>
      </g>
     </g>
    </g>
    <g id="text_11">
     <!-- Income or consumption (day) -->
     <g transform="translate(479.746875 508.876563) scale(0.1 -0.1)">
      <defs>
       <path id="DejaVuSans-49" d="M 628 4666 
L 1259 4666 
L 1259 0 
L 628 0 
L 628 4666 
z
" transform="scale(0.015625)"/>
       <path id="DejaVuSans-6e" d="M 3513 2113 
L 3513 0 
L 2938 0 
L 2938 2094 
Q 2938 2591 2744 2837 
Q 2550 3084 2163 3084 
Q 1697 3084 1428 2787 
Q 1159 2491 1159 1978 
L 1159 0 
L 581 0 
L 581 3500 
L 1159 3500 
L 1159 2956 
Q 1366 3272 1645 3428 
Q 1925 3584 2291 3584 
Q 2894 3584 3203 3211 
Q 3513 2838 3513 2113 
z
" transform="scale(0.015625)"/>
       <path id="DejaVuSans-63" d="M 3122 3366 
L 3122 2828 
Q 2878 2963 2633 3030 
Q 2388 3097 2138 3097 
Q 1578 3097 1268 2742 
Q 959 2388 959 1747 
Q 959 1106 1268 751 
Q 1578 397 2138 397 
Q 2388 397 2633 464 
Q 2878 531 3122 666 
L 3122 134 
Q 2881 22 2623 -34 
Q 2366 -91 2075 -91 
Q 1284 -91 818 406 
Q 353 903 353 1747 
Q 353 2603 823 3093 
Q 1294 3584 2113 3584 
Q 2378 3584 2631 3529 
Q 2884 3475 3122 3366 
z
" transform="scale(0.015625)"/>
       <path id="DejaVuSans-6f" d="M 1959 3097 
Q 1497 3097 1228 2736 
Q 959 2375 959 1747 
Q 959 1119 1226 758 
Q 1494 397 1959 397 
Q 2419 397 2687 759 
Q 2956 1122 2956 1747 
Q 2956 2369 2687 2733 
Q 2419 3097 1959 3097 
z
M 1959 3584 
Q 2709 3584 3137 3096 
Q 3566 2609 3566 1747 
Q 3566 888 3137 398 
Q 2709 -91 1959 -91 
Q 1206 -91 779 398 
Q 353 888 353 1747 
Q 353 2609 779 3096 
Q 1206 3584 1959 3584 
z
" transform="scale(0.015625)"/>
       <path id="DejaVuSans-6d" d="M 3328 2828 
Q 3544 3216 3844 3400 
Q 4144 3584 4550 3584 
Q 5097 3584 5394 3201 
Q 5691 2819 5691 2113 
L 5691 0 
L 5113 0 
L 5113 2094 
Q 5113 2597 4934 2840 
Q 4756 3084 4391 3084 
Q 3944 3084 3684 2787 
Q 3425 2491 3425 1978 
L 3425 0 
L 2847 0 
L 2847 2094 
Q 2847 2600 2669 2842 
Q 2491 3084 2119 3084 
Q 1678 3084 1418 2786 
Q 1159 2488 1159 1978 
L 1159 0 
L 581 0 
L 581 3500 
L 1159 3500 
L 1159 2956 
Q 1356 3278 1631 3431 
Q 1906 3584 2284 3584 
Q 2666 3584 2933 3390 
Q 3200 3197 3328 2828 
z
" transform="scale(0.015625)"/>
       <path id="DejaVuSans-65" d="M 3597 1894 
L 3597 1613 
L 953 1613 
Q 991 1019 1311 708 
Q 1631 397 2203 397 
Q 2534 397 2845 478 
Q 3156 559 3463 722 
L 3463 178 
Q 3153 47 2828 -22 
Q 2503 -91 2169 -91 
Q 1331 -91 842 396 
Q 353 884 353 1716 
Q 353 2575 817 3079 
Q 1281 3584 2069 3584 
Q 2775 3584 3186 3129 
Q 3597 2675 3597 1894 
z
M 3022 2063 
Q 3016 2534 2758 2815 
Q 2500 3097 2075 3097 
Q 1594 3097 1305 2825 
Q 1016 2553 972 2059 
L 3022 2063 
z
" transform="scale(0.015625)"/>
       <path id="DejaVuSans-20" transform="scale(0.015625)"/>
       <path id="DejaVuSans-72" d="M 2631 2963 
Q 2534 3019 2420 3045 
Q 2306 3072 2169 3072 
Q 1681 3072 1420 2755 
Q 1159 2438 1159 1844 
L 1159 0 
L 581 0 
L 581 3500 
L 1159 3500 
L 1159 2956 
Q 1341 3275 1631 3429 
Q 1922 3584 2338 3584 
Q 2397 3584 2469 3576 
Q 2541 3569 2628 3553 
L 2631 2963 
z
" transform="scale(0.015625)"/>
       <path id="DejaVuSans-73" d="M 2834 3397 
L 2834 2853 
Q 2591 2978 2328 3040 
Q 2066 3103 1784 3103 
Q 1356 3103 1142 2972 
Q 928 2841 928 2578 
Q 928 2378 1081 2264 
Q 1234 2150 1697 2047 
L 1894 2003 
Q 2506 1872 2764 1633 
Q 3022 1394 3022 966 
Q 3022 478 2636 193 
Q 2250 -91 1575 -91 
Q 1294 -91 989 -36 
Q 684 19 347 128 
L 347 722 
Q 666 556 975 473 
Q 1284 391 1588 391 
Q 1994 391 2212 530 
Q 2431 669 2431 922 
Q 2431 1156 2273 1281 
Q 2116 1406 1581 1522 
L 1381 1569 
Q 847 1681 609 1914 
Q 372 2147 372 2553 
Q 372 3047 722 3315 
Q 1072 3584 1716 3584 
Q 2034 3584 2315 3537 
Q 2597 3491 2834 3397 
z
" transform="scale(0.015625)"/>
       <path id="DejaVuSans-75" d="M 544 1381 
L 544 3500 
L 1119 3500 
L 1119 1403 
Q 1119 906 1312 657 
Q 1506 409 1894 409 
Q 2359 409 2629 706 
Q 2900 1003 2900 1516 
L 2900 3500 
L 3475 3500 
L 3475 0 
L 2900 0 
L 2900 538 
Q 2691 219 2414 64 
Q 2138 -91 1772 -91 
Q 1169 -91 856 284 
Q 544 659 544 1381 
z
M 1991 3584 
L 1991 3584 
z
" transform="scale(0.015625)"/>
       <path id="DejaVuSans-70" d="M 1159 525 
L 1159 -1331 
L 581 -1331 
L 581 3500 
L 1159 3500 
L 1159 2969 
Q 1341 3281 1617 3432 
Q 1894 3584 2278 3584 
Q 2916 3584 3314 3078 
Q 3713 2572 3713 1747 
Q 3713 922 3314 415 
Q 2916 -91 2278 -91 
Q 1894 -91 1617 61 
Q 1341 213 1159 525 
z
M 3116 1747 
Q 3116 2381 2855 2742 
Q 2594 3103 2138 3103 
Q 1681 3103 1420 2742 
Q 1159 2381 1159 1747 
Q 1159 1113 1420 752 
Q 1681 391 2138 391 
Q 2594 391 2855 752 
Q 3116 1113 3116 1747 
z
" transform="scale(0.015625)"/>
       <path id="DejaVuSans-74" d="M 1172 4494 
L 1172 3500 
L 2356 3500 
L 2356 3053 
L 1172 3053 
L 1172 1153 
Q 1172 725 1289 603 
Q 1406 481 1766 481 
L 2356 481 
L 2356 0 
L 1766 0 
Q 1100 0 847 248 
Q 594 497 594 1153 
L 594 3053 
L 172 3053 
L 172 3500 
L 594 3500 
L 594 4494 
L 1172 4494 
z
" transform="scale(0.015625)"/>
       <path id="DejaVuSans-69" d="M 603 3500 
L 1178 3500 
L 1178 0 
L 603 0 
L 603 3500 
z
M 603 4863 
L 1178 4863 
L 1178 4134 
L 603 4134 
L 603 4863 
z
" transform="scale(0.015625)"/>
       <path id="DejaVuSans-28" d="M 1984 4856 
Q 1566 4138 1362 3434 
Q 1159 2731 1159 2009 
Q 1159 1288 1364 580 
Q 1569 -128 1984 -844 
L 1484 -844 
Q 1016 -109 783 600 
Q 550 1309 550 2009 
Q 550 2706 781 3412 
Q 1013 4119 1484 4856 
L 1984 4856 
z
" transform="scale(0.015625)"/>
       <path id="DejaVuSans-64" d="M 2906 2969 
L 2906 4863 
L 3481 4863 
L 3481 0 
L 2906 0 
L 2906 525 
Q 2725 213 2448 61 
Q 2172 -91 1784 -91 
Q 1150 -91 751 415 
Q 353 922 353 1747 
Q 353 2572 751 3078 
Q 1150 3584 1784 3584 
Q 2172 3584 2448 3432 
Q 2725 3281 2906 2969 
z
M 947 1747 
Q 947 1113 1208 752 
Q 1469 391 1925 391 
Q 2381 391 2643 752 
Q 2906 1113 2906 1747 
Q 2906 2381 2643 2742 
Q 2381 3103 1925 3103 
Q 1469 3103 1208 2742 
Q 947 2381 947 1747 
z
" transform="scale(0.015625)"/>
       <path id="DejaVuSans-61" d="M 2194 1759 
Q 1497 1759 1228 1600 
Q 959 1441 959 1056 
Q 959 750 1161 570 
Q 1363 391 1709 391 
Q 2188 391 2477 730 
Q 2766 1069 2766 1631 
L 2766 1759 
L 2194 1759 
z
M 3341 1997 
L 3341 0 
L 2766 0 
L 2766 531 
Q 2569 213 2275 61 
Q 1981 -91 1556 -91 
Q 1019 -91 701 211 
Q 384 513 384 1019 
Q 384 1609 779 1909 
Q 1175 2209 1959 2209 
L 2766 2209 
L 2766 2266 
Q 2766 2663 2505 2880 
Q 2244 3097 1772 3097 
Q 1472 3097 1187 3025 
Q 903 2953 641 2809 
L 641 3341 
Q 956 3463 1253 3523 
Q 1550 3584 1831 3584 
Q 2591 3584 2966 3190 
Q 3341 2797 3341 1997 
z
" transform="scale(0.015625)"/>
       <path id="DejaVuSans-79" d="M 2059 -325 
Q 1816 -950 1584 -1140 
Q 1353 -1331 966 -1331 
L 506 -1331 
L 506 -850 
L 844 -850 
Q 1081 -850 1212 -737 
Q 1344 -625 1503 -206 
L 1606 56 
L 191 3500 
L 800 3500 
L 1894 763 
L 2988 3500 
L 3597 3500 
L 2059 -325 
z
" transform="scale(0.015625)"/>
       <path id="DejaVuSans-29" d="M 513 4856 
L 1013 4856 
Q 1481 4119 1714 3412 
Q 1947 2706 1947 2009 
Q 1947 1309 1714 600 
Q 1481 -109 1013 -844 
L 513 -844 
Q 928 -128 1133 580 
Q 1338 1288 1338 2009 
Q 1338 2731 1133 3434 
Q 928 4138 513 4856 
z
" transform="scale(0.015625)"/>
      </defs>
      <use xlink:href="#DejaVuSans-49"/>
      <use xlink:href="#DejaVuSans-6e" transform="translate(29.492188 0)"/>
      <use xlink:href="#DejaVuSans-63" transform="translate(92.871094 0)"/>
      <use xlink:href="#DejaVuSans-6f" transform="translate(147.851562 0)"/>
      <use xlink:href="#DejaVuSans-6d" transform="translate(209.033203 0)"/>
      <use xlink:href="#DejaVuSans-65" transform="translate(306.445312 0)"/>
      <use xlink:href="#DejaVuSans-20" transform="translate(367.96875 0)"/>
      <use xlink:href="#DejaVuSans-6f" transform="translate(399.755859 0)"/>
      <use xlink:href="#DejaVuSans-72" transform="translate(460.9375 0)"/>
      <use xlink:href="#DejaVuSans-20" transform="translate(502.050781 0)"/>
      <use xlink:href="#DejaVuSans-63" transform="translate(533.837891 0)"/>
      <use xlink:href="#DejaVuSans-6f" transform="translate(588.818359 0)"/>
      <use xlink:href="#DejaVuSans-6e" transform="translate(650 0)"/>
      <use xlink:href="#DejaVuSans-73" transform="translate(713.378906 0)"/>
      <use xlink:href="#DejaVuSans-75" transform="translate(765.478516 0)"/>
      <use xlink:href="#DejaVuSans-6d" transform="translate(828.857422 0)"/>
      <use xlink:href="#DejaVuSans-70" transform="translate(926.269531 0)"/>
      <use xlink:href="#DejaVuSans-74" transform="translate(989.746094 0)"/>
      <use xlink:href="#DejaVuSans-69" transform="translate(1028.955078 0)"/>
      <use xlink:href="#DejaVuSans-6f" transform="translate(1056.738281 0)"/>
      <use xlink:href="#DejaVuSans-6e" transform="translate(1117.919922 0)"/>
      <use xlink:href="#DejaVuSans-20" transform="translate(1181.298828 0)"/>
      <use xlink:href="#DejaVuSans-28" transform="translate(1213.085938 0)"/>
      <use xlink:href="#DejaVuSans-64" transform="translate(1252.099609 0)"/>
      <use xlink:href="#DejaVuSans-61" transform="translate(1315.576172 0)"/>
      <use xlink:href="#DejaVuSans-79" transform="translate(1376.855469 0)"/>
      <use xlink:href="#DejaVuSans-29" transform="translate(1436.035156 0)"/>
     </g>
    </g>
   </g>
   <g id="matplotlib.axis_2"/>
   <g id="line2d_36">
    <path d="M 352.405752 480.6 
L 352.405752 64.8 
" clip-path="url(#p5044c5b403)" style="fill: none; stroke-dasharray: 2.96,1.28; stroke-dashoffset: 0; stroke: #d3d3d3; stroke-width: 0.8"/>
   </g>
   <g id="line2d_37">
    <path d="M 570.302811 480.6 
L 570.302811 64.8 
" clip-path="url(#p5044c5b403)" style="fill: none; stroke-dasharray: 2.96,1.28; stroke-dashoffset: 0; stroke: #d3d3d3; stroke-width: 0.8"/>
   </g>
   <g id="line2d_38">
    <path d="M 486.286272 480.6 
L 486.286272 64.8 
" clip-path="url(#p5044c5b403)" style="fill: none; stroke-dasharray: 2.96,1.28; stroke-dashoffset: 0; stroke: #d3d3d3; stroke-width: 0.8"/>
   </g>
   <g id="text_12">
    <!-- International Poverty Line: $2.15 -->
    <g style="fill: #808080" transform="translate(358.484502 200.1605) rotate(-90) scale(0.08 -0.08)">
     <defs>
      <path id="DejaVuSans-6c" d="M 603 4863 
L 1178 4863 
L 1178 0 
L 603 0 
L 603 4863 
z
" transform="scale(0.015625)"/>
      <path id="DejaVuSans-50" d="M 1259 4147 
L 1259 2394 
L 2053 2394 
Q 2494 2394 2734 2622 
Q 2975 2850 2975 3272 
Q 2975 3691 2734 3919 
Q 2494 4147 2053 4147 
L 1259 4147 
z
M 628 4666 
L 2053 4666 
Q 2838 4666 3239 4311 
Q 3641 3956 3641 3272 
Q 3641 2581 3239 2228 
Q 2838 1875 2053 1875 
L 1259 1875 
L 1259 0 
L 628 0 
L 628 4666 
z
" transform="scale(0.015625)"/>
      <path id="DejaVuSans-76" d="M 191 3500 
L 800 3500 
L 1894 563 
L 2988 3500 
L 3597 3500 
L 2284 0 
L 1503 0 
L 191 3500 
z
" transform="scale(0.015625)"/>
      <path id="DejaVuSans-4c" d="M 628 4666 
L 1259 4666 
L 1259 531 
L 3531 531 
L 3531 0 
L 628 0 
L 628 4666 
z
" transform="scale(0.015625)"/>
      <path id="DejaVuSans-3a" d="M 750 794 
L 1409 794 
L 1409 0 
L 750 0 
L 750 794 
z
M 750 3309 
L 1409 3309 
L 1409 2516 
L 750 2516 
L 750 3309 
z
" transform="scale(0.015625)"/>
      <path id="DejaVuSans-24" d="M 2163 -941 
L 1850 -941 
L 1847 0 
Q 1519 6 1191 76 
Q 863 147 531 288 
L 531 850 
Q 850 650 1176 548 
Q 1503 447 1850 444 
L 1850 1869 
Q 1159 1981 845 2250 
Q 531 2519 531 2988 
Q 531 3497 872 3790 
Q 1213 4084 1850 4128 
L 1850 4863 
L 2163 4863 
L 2163 4138 
Q 2453 4125 2725 4076 
Q 2997 4028 3256 3944 
L 3256 3397 
Q 2997 3528 2723 3600 
Q 2450 3672 2163 3684 
L 2163 2350 
Q 2872 2241 3206 1959 
Q 3541 1678 3541 1191 
Q 3541 663 3186 358 
Q 2831 53 2163 6 
L 2163 -941 
z
M 1850 2406 
L 1850 3688 
Q 1488 3647 1297 3481 
Q 1106 3316 1106 3041 
Q 1106 2772 1282 2622 
Q 1459 2472 1850 2406 
z
M 2163 1806 
L 2163 453 
Q 2559 506 2761 678 
Q 2963 850 2963 1131 
Q 2963 1406 2770 1568 
Q 2578 1731 2163 1806 
z
" transform="scale(0.015625)"/>
      <path id="DejaVuSans-2e" d="M 684 794 
L 1344 794 
L 1344 0 
L 684 0 
L 684 794 
z
" transform="scale(0.015625)"/>
     </defs>
     <use xlink:href="#DejaVuSans-49"/>
     <use xlink:href="#DejaVuSans-6e" transform="translate(29.492188 0)"/>
     <use xlink:href="#DejaVuSans-74" transform="translate(92.871094 0)"/>
     <use xlink:href="#DejaVuSans-65" transform="translate(132.080078 0)"/>
     <use xlink:href="#DejaVuSans-72" transform="translate(193.603516 0)"/>
     <use xlink:href="#DejaVuSans-6e" transform="translate(232.966797 0)"/>
     <use xlink:href="#DejaVuSans-61" transform="translate(296.345703 0)"/>
     <use xlink:href="#DejaVuSans-74" transform="translate(357.625 0)"/>
     <use xlink:href="#DejaVuSans-69" transform="translate(396.833984 0)"/>
     <use xlink:href="#DejaVuSans-6f" transform="translate(424.617188 0)"/>
     <use xlink:href="#DejaVuSans-6e" transform="translate(485.798828 0)"/>
     <use xlink:href="#DejaVuSans-61" transform="translate(549.177734 0)"/>
     <use xlink:href="#DejaVuSans-6c" transform="translate(610.457031 0)"/>
     <use xlink:href="#DejaVuSans-20" transform="translate(638.240234 0)"/>
     <use xlink:href="#DejaVuSans-50" transform="translate(670.027344 0)"/>
     <use xlink:href="#DejaVuSans-6f" transform="translate(726.705078 0)"/>
     <use xlink:href="#DejaVuSans-76" transform="translate(787.886719 0)"/>
     <use xlink:href="#DejaVuSans-65" transform="translate(847.066406 0)"/>
     <use xlink:href="#DejaVuSans-72" transform="translate(908.589844 0)"/>
     <use xlink:href="#DejaVuSans-74" transform="translate(949.703125 0)"/>
     <use xlink:href="#DejaVuSans-79" transform="translate(988.912109 0)"/>
     <use xlink:href="#DejaVuSans-20" transform="translate(1048.091797 0)"/>
     <use xlink:href="#DejaVuSans-4c" transform="translate(1079.878906 0)"/>
     <use xlink:href="#DejaVuSans-69" transform="translate(1135.591797 0)"/>
     <use xlink:href="#DejaVuSans-6e" transform="translate(1163.375 0)"/>
     <use xlink:href="#DejaVuSans-65" transform="translate(1226.753906 0)"/>
     <use xlink:href="#DejaVuSans-3a" transform="translate(1288.277344 0)"/>
     <use xlink:href="#DejaVuSans-20" transform="translate(1321.96875 0)"/>
     <use xlink:href="#DejaVuSans-24" transform="translate(1353.755859 0)"/>
     <use xlink:href="#DejaVuSans-32" transform="translate(1417.378906 0)"/>
     <use xlink:href="#DejaVuSans-2e" transform="translate(1481.001953 0)"/>
     <use xlink:href="#DejaVuSans-31" transform="translate(1512.789062 0)"/>
     <use xlink:href="#DejaVuSans-35" transform="translate(1576.412109 0)"/>
    </g>
   </g>
   <g id="text_13">
    <!-- World mean: $19.18 -->
    <g style="fill: #808080" transform="translate(576.381561 150.343) rotate(-90) scale(0.08 -0.08)">
     <defs>
      <path id="DejaVuSans-57" d="M 213 4666 
L 850 4666 
L 1831 722 
L 2809 4666 
L 3519 4666 
L 4500 722 
L 5478 4666 
L 6119 4666 
L 4947 0 
L 4153 0 
L 3169 4050 
L 2175 0 
L 1381 0 
L 213 4666 
z
" transform="scale(0.015625)"/>
      <path id="DejaVuSans-39" d="M 703 97 
L 703 672 
Q 941 559 1184 500 
Q 1428 441 1663 441 
Q 2288 441 2617 861 
Q 2947 1281 2994 2138 
Q 2813 1869 2534 1725 
Q 2256 1581 1919 1581 
Q 1219 1581 811 2004 
Q 403 2428 403 3163 
Q 403 3881 828 4315 
Q 1253 4750 1959 4750 
Q 2769 4750 3195 4129 
Q 3622 3509 3622 2328 
Q 3622 1225 3098 567 
Q 2575 -91 1691 -91 
Q 1453 -91 1209 -44 
Q 966 3 703 97 
z
M 1959 2075 
Q 2384 2075 2632 2365 
Q 2881 2656 2881 3163 
Q 2881 3666 2632 3958 
Q 2384 4250 1959 4250 
Q 1534 4250 1286 3958 
Q 1038 3666 1038 3163 
Q 1038 2656 1286 2365 
Q 1534 2075 1959 2075 
z
" transform="scale(0.015625)"/>
      <path id="DejaVuSans-38" d="M 2034 2216 
Q 1584 2216 1326 1975 
Q 1069 1734 1069 1313 
Q 1069 891 1326 650 
Q 1584 409 2034 409 
Q 2484 409 2743 651 
Q 3003 894 3003 1313 
Q 3003 1734 2745 1975 
Q 2488 2216 2034 2216 
z
M 1403 2484 
Q 997 2584 770 2862 
Q 544 3141 544 3541 
Q 544 4100 942 4425 
Q 1341 4750 2034 4750 
Q 2731 4750 3128 4425 
Q 3525 4100 3525 3541 
Q 3525 3141 3298 2862 
Q 3072 2584 2669 2484 
Q 3125 2378 3379 2068 
Q 3634 1759 3634 1313 
Q 3634 634 3220 271 
Q 2806 -91 2034 -91 
Q 1263 -91 848 271 
Q 434 634 434 1313 
Q 434 1759 690 2068 
Q 947 2378 1403 2484 
z
M 1172 3481 
Q 1172 3119 1398 2916 
Q 1625 2713 2034 2713 
Q 2441 2713 2670 2916 
Q 2900 3119 2900 3481 
Q 2900 3844 2670 4047 
Q 2441 4250 2034 4250 
Q 1625 4250 1398 4047 
Q 1172 3844 1172 3481 
z
" transform="scale(0.015625)"/>
     </defs>
     <use xlink:href="#DejaVuSans-57"/>
     <use xlink:href="#DejaVuSans-6f" transform="translate(93.001953 0)"/>
     <use xlink:href="#DejaVuSans-72" transform="translate(154.183594 0)"/>
     <use xlink:href="#DejaVuSans-6c" transform="translate(195.296875 0)"/>
     <use xlink:href="#DejaVuSans-64" transform="translate(223.080078 0)"/>
     <use xlink:href="#DejaVuSans-20" transform="translate(286.556641 0)"/>
     <use xlink:href="#DejaVuSans-6d" transform="translate(318.34375 0)"/>
     <use xlink:href="#DejaVuSans-65" transform="translate(415.755859 0)"/>
     <use xlink:href="#DejaVuSans-61" transform="translate(477.279297 0)"/>
     <use xlink:href="#DejaVuSans-6e" transform="translate(538.558594 0)"/>
     <use xlink:href="#DejaVuSans-3a" transform="translate(601.9375 0)"/>
     <use xlink:href="#DejaVuSans-20" transform="translate(635.628906 0)"/>
     <use xlink:href="#DejaVuSans-24" transform="translate(667.416016 0)"/>
     <use xlink:href="#DejaVuSans-31" transform="translate(731.039062 0)"/>
     <use xlink:href="#DejaVuSans-39" transform="translate(794.662109 0)"/>
     <use xlink:href="#DejaVuSans-2e" transform="translate(858.285156 0)"/>
     <use xlink:href="#DejaVuSans-31" transform="translate(890.072266 0)"/>
     <use xlink:href="#DejaVuSans-38" transform="translate(953.695312 0)"/>
    </g>
   </g>
   <g id="text_14">
    <!-- World median: $8.25 -->
    <g style="fill: #808080" transform="translate(492.365022 152.55425) rotate(-90) scale(0.08 -0.08)">
     <use xlink:href="#DejaVuSans-57"/>
     <use xlink:href="#DejaVuSans-6f" transform="translate(93.001953 0)"/>
     <use xlink:href="#DejaVuSans-72" transform="translate(154.183594 0)"/>
     <use xlink:href="#DejaVuSans-6c" transform="translate(195.296875 0)"/>
     <use xlink:href="#DejaVuSans-64" transform="translate(223.080078 0)"/>
     <use xlink:href="#DejaVuSans-20" transform="translate(286.556641 0)"/>
     <use xlink:href="#DejaVuSans-6d" transform="translate(318.34375 0)"/>
     <use xlink:href="#DejaVuSans-65" transform="translate(415.755859 0)"/>
     <use xlink:href="#DejaVuSans-64" transform="translate(477.279297 0)"/>
     <use xlink:href="#DejaVuSans-69" transform="translate(540.755859 0)"/>
     <use xlink:href="#DejaVuSans-61" transform="translate(568.539062 0)"/>
     <use xlink:href="#DejaVuSans-6e" transform="translate(629.818359 0)"/>
     <use xlink:href="#DejaVuSans-3a" transform="translate(693.197266 0)"/>
     <use xlink:href="#DejaVuSans-20" transform="translate(726.888672 0)"/>
     <use xlink:href="#DejaVuSans-24" transform="translate(758.675781 0)"/>
     <use xlink:href="#DejaVuSans-38" transform="translate(822.298828 0)"/>
     <use xlink:href="#DejaVuSans-2e" transform="translate(885.921875 0)"/>
     <use xlink:href="#DejaVuSans-32" transform="translate(917.708984 0)"/>
     <use xlink:href="#DejaVuSans-35" transform="translate(981.332031 0)"/>
    </g>
   </g>
   <g id="text_15">
    <!-- Denmark (2021) -->
    <g transform="translate(656.672989 478.520312) scale(0.1 -0.1)">
     <defs>
      <path id="DejaVuSans-44" d="M 1259 4147 
L 1259 519 
L 2022 519 
Q 2988 519 3436 956 
Q 3884 1394 3884 2338 
Q 3884 3275 3436 3711 
Q 2988 4147 2022 4147 
L 1259 4147 
z
M 628 4666 
L 1925 4666 
Q 3281 4666 3915 4102 
Q 4550 3538 4550 2338 
Q 4550 1131 3912 565 
Q 3275 0 1925 0 
L 628 0 
L 628 4666 
z
" transform="scale(0.015625)"/>
      <path id="DejaVuSans-6b" d="M 581 4863 
L 1159 4863 
L 1159 1991 
L 2875 3500 
L 3609 3500 
L 1753 1863 
L 3688 0 
L 2938 0 
L 1159 1709 
L 1159 0 
L 581 0 
L 581 4863 
z
" transform="scale(0.015625)"/>
     </defs>
     <use xlink:href="#DejaVuSans-44"/>
     <use xlink:href="#DejaVuSans-65" transform="translate(77.001953 0)"/>
     <use xlink:href="#DejaVuSans-6e" transform="translate(138.525391 0)"/>
     <use xlink:href="#DejaVuSans-6d" transform="translate(201.904297 0)"/>
     <use xlink:href="#DejaVuSans-61" transform="translate(299.316406 0)"/>
     <use xlink:href="#DejaVuSans-72" transform="translate(360.595703 0)"/>
     <use xlink:href="#DejaVuSans-6b" transform="translate(401.708984 0)"/>
     <use xlink:href="#DejaVuSans-20" transform="translate(459.619141 0)"/>
     <use xlink:href="#DejaVuSans-28" transform="translate(491.40625 0)"/>
     <use xlink:href="#DejaVuSans-32" transform="translate(530.419922 0)"/>
     <use xlink:href="#DejaVuSans-30" transform="translate(594.042969 0)"/>
     <use xlink:href="#DejaVuSans-32" transform="translate(657.666016 0)"/>
     <use xlink:href="#DejaVuSans-31" transform="translate(721.289062 0)"/>
     <use xlink:href="#DejaVuSans-29" transform="translate(784.912109 0)"/>
    </g>
   </g>
   <g id="text_16">
    <!-- Niger (2021) -->
    <g transform="translate(329.375588 478.520312) scale(0.1 -0.1)">
     <defs>
      <path id="DejaVuSans-4e" d="M 628 4666 
L 1478 4666 
L 3547 763 
L 3547 4666 
L 4159 4666 
L 4159 0 
L 3309 0 
L 1241 3903 
L 1241 0 
L 628 0 
L 628 4666 
z
" transform="scale(0.015625)"/>
      <path id="DejaVuSans-67" d="M 2906 1791 
Q 2906 2416 2648 2759 
Q 2391 3103 1925 3103 
Q 1463 3103 1205 2759 
Q 947 2416 947 1791 
Q 947 1169 1205 825 
Q 1463 481 1925 481 
Q 2391 481 2648 825 
Q 2906 1169 2906 1791 
z
M 3481 434 
Q 3481 -459 3084 -895 
Q 2688 -1331 1869 -1331 
Q 1566 -1331 1297 -1286 
Q 1028 -1241 775 -1147 
L 775 -588 
Q 1028 -725 1275 -790 
Q 1522 -856 1778 -856 
Q 2344 -856 2625 -561 
Q 2906 -266 2906 331 
L 2906 616 
Q 2728 306 2450 153 
Q 2172 0 1784 0 
Q 1141 0 747 490 
Q 353 981 353 1791 
Q 353 2603 747 3093 
Q 1141 3584 1784 3584 
Q 2172 3584 2450 3431 
Q 2728 3278 2906 2969 
L 2906 3500 
L 3481 3500 
L 3481 434 
z
" transform="scale(0.015625)"/>
     </defs>
     <use xlink:href="#DejaVuSans-4e"/>
     <use xlink:href="#DejaVuSans-69" transform="translate(74.804688 0)"/>
     <use xlink:href="#DejaVuSans-67" transform="translate(102.587891 0)"/>
     <use xlink:href="#DejaVuSans-65" transform="translate(166.064453 0)"/>
     <use xlink:href="#DejaVuSans-72" transform="translate(227.587891 0)"/>
     <use xlink:href="#DejaVuSans-20" transform="translate(268.701172 0)"/>
     <use xlink:href="#DejaVuSans-28" transform="translate(300.488281 0)"/>
     <use xlink:href="#DejaVuSans-32" transform="translate(339.501953 0)"/>
     <use xlink:href="#DejaVuSans-30" transform="translate(403.125 0)"/>
     <use xlink:href="#DejaVuSans-32" transform="translate(466.748047 0)"/>
     <use xlink:href="#DejaVuSans-31" transform="translate(530.371094 0)"/>
     <use xlink:href="#DejaVuSans-29" transform="translate(593.994141 0)"/>
    </g>
   </g>
  </g>
 </g>
 <defs>
  <clipPath id="p5044c5b403">
   <rect x="135" y="64.8" width="837" height="415.8"/>
  </clipPath>
 </defs>
</svg>
