<?xml version="1.0" encoding="utf-8" standalone="no"?>
<!DOCTYPE svg PUBLIC "-//W3C//DTD SVG 1.1//EN"
  "http://www.w3.org/Graphics/SVG/1.1/DTD/svg11.dtd">
<svg xmlns:xlink="http://www.w3.org/1999/xlink" width="1080pt" height="540pt" viewBox="0 0 1080 540" xmlns="http://www.w3.org/2000/svg" version="1.1">
 <metadata>
  <rdf:RDF xmlns:dc="http://purl.org/dc/elements/1.1/" xmlns:cc="http://creativecommons.org/ns#" xmlns:rdf="http://www.w3.org/1999/02/22-rdf-syntax-ns#">
   <cc:Work>
    <dc:type rdf:resource="http://purl.org/dc/dcmitype/StillImage"/>
    <dc:date>2025-03-17T19:13:50.301823</dc:date>
    <dc:format>image/svg+xml</dc:format>
    <dc:creator>
     <cc:Agent>
      <dc:title>Matplotlib v3.10.1, https://matplotlib.org/</dc:title>
     </cc:Agent>
    </dc:creator>
   </cc:Work>
  </rdf:RDF>
 </metadata>
 <defs>
  <style type="text/css">*{stroke-linejoin: round; stroke-linecap: butt}</style>
 </defs>
 <g id="figure_1">
  <g id="patch_1">
   <path d="M 0 540 
L 1080 540 
L 1080 0 
L 0 0 
z
" style="fill: #ffffff"/>
  </g>
  <g id="axes_1">
   <g id="patch_2">
    <path d="M 135 480.6 
L 972 480.6 
L 972 64.8 
L 135 64.8 
z
" style="fill: #ffffff"/>
   </g>
   <g id="matplotlib.axis_1">
    <g id="xtick_1">
     <g id="line2d_1">
      <defs>
       <path id="m53992f5a11" d="M 0 0 
L 0 3.5 
" style="stroke: #262626; stroke-width: 0.8"/>
      </defs>
      <g>
       <use xlink:href="#m53992f5a11" x="259.122681" y="480.6" style="fill: #262626; stroke: #262626; stroke-width: 0.8"/>
      </g>
     </g>
     <g id="text_1">
      <!-- 1 -->
      <g style="fill: #262626" transform="translate(256.342212 494.757812) scale(0.1 -0.1)">
       <defs>
        <path id="ArialMT-31" d="M 2384 0 
L 1822 0 
L 1822 3584 
Q 1619 3391 1289 3197 
Q 959 3003 697 2906 
L 697 3450 
Q 1169 3672 1522 3987 
Q 1875 4303 2022 4600 
L 2384 4600 
L 2384 0 
z
" transform="scale(0.015625)"/>
       </defs>
       <use xlink:href="#ArialMT-31"/>
      </g>
     </g>
    </g>
    <g id="xtick_2">
     <g id="line2d_2">
      <g>
       <use xlink:href="#m53992f5a11" x="329.922574" y="480.6" style="fill: #262626; stroke: #262626; stroke-width: 0.8"/>
      </g>
     </g>
     <g id="text_2">
      <!-- 2 -->
      <g style="fill: #262626" transform="translate(327.142106 494.757812) scale(0.1 -0.1)">
       <defs>
        <path id="ArialMT-32" d="M 3222 541 
L 3222 0 
L 194 0 
Q 188 203 259 391 
Q 375 700 629 1000 
Q 884 1300 1366 1694 
Q 2113 2306 2375 2664 
Q 2638 3022 2638 3341 
Q 2638 3675 2398 3904 
Q 2159 4134 1775 4134 
Q 1369 4134 1125 3890 
Q 881 3647 878 3216 
L 300 3275 
Q 359 3922 746 4261 
Q 1134 4600 1788 4600 
Q 2447 4600 2831 4234 
Q 3216 3869 3216 3328 
Q 3216 3053 3103 2787 
Q 2991 2522 2730 2228 
Q 2469 1934 1863 1422 
Q 1356 997 1212 845 
Q 1069 694 975 541 
L 3222 541 
z
" transform="scale(0.015625)"/>
       </defs>
       <use xlink:href="#ArialMT-32"/>
      </g>
     </g>
    </g>
    <g id="xtick_3">
     <g id="line2d_3">
      <g>
       <use xlink:href="#m53992f5a11" x="423.514943" y="480.6" style="fill: #262626; stroke: #262626; stroke-width: 0.8"/>
      </g>
     </g>
     <g id="text_3">
      <!-- 5 -->
      <g style="fill: #262626" transform="translate(420.734474 494.757812) scale(0.1 -0.1)">
       <defs>
        <path id="ArialMT-35" d="M 266 1200 
L 856 1250 
Q 922 819 1161 601 
Q 1400 384 1738 384 
Q 2144 384 2425 690 
Q 2706 997 2706 1503 
Q 2706 1984 2436 2262 
Q 2166 2541 1728 2541 
Q 1456 2541 1237 2417 
Q 1019 2294 894 2097 
L 366 2166 
L 809 4519 
L 3088 4519 
L 3088 3981 
L 1259 3981 
L 1013 2750 
Q 1425 3038 1878 3038 
Q 2478 3038 2890 2622 
Q 3303 2206 3303 1553 
Q 3303 931 2941 478 
Q 2500 -78 1738 -78 
Q 1113 -78 717 272 
Q 322 622 266 1200 
z
" transform="scale(0.015625)"/>
       </defs>
       <use xlink:href="#ArialMT-35"/>
      </g>
     </g>
    </g>
    <g id="xtick_4">
     <g id="line2d_4">
      <g>
       <use xlink:href="#m53992f5a11" x="494.314837" y="480.6" style="fill: #262626; stroke: #262626; stroke-width: 0.8"/>
      </g>
     </g>
     <g id="text_4">
      <!-- 10 -->
      <g style="fill: #262626" transform="translate(488.753899 494.757812) scale(0.1 -0.1)">
       <defs>
        <path id="ArialMT-30" d="M 266 2259 
Q 266 3072 433 3567 
Q 600 4063 929 4331 
Q 1259 4600 1759 4600 
Q 2128 4600 2406 4451 
Q 2684 4303 2865 4023 
Q 3047 3744 3150 3342 
Q 3253 2941 3253 2259 
Q 3253 1453 3087 958 
Q 2922 463 2592 192 
Q 2263 -78 1759 -78 
Q 1097 -78 719 397 
Q 266 969 266 2259 
z
M 844 2259 
Q 844 1131 1108 757 
Q 1372 384 1759 384 
Q 2147 384 2411 759 
Q 2675 1134 2675 2259 
Q 2675 3391 2411 3762 
Q 2147 4134 1753 4134 
Q 1366 4134 1134 3806 
Q 844 3388 844 2259 
z
" transform="scale(0.015625)"/>
       </defs>
       <use xlink:href="#ArialMT-31"/>
       <use xlink:href="#ArialMT-30" transform="translate(55.615234 0)"/>
      </g>
     </g>
    </g>
    <g id="xtick_5">
     <g id="line2d_5">
      <g>
       <use xlink:href="#m53992f5a11" x="565.11473" y="480.6" style="fill: #262626; stroke: #262626; stroke-width: 0.8"/>
      </g>
     </g>
     <g id="text_5">
      <!-- 20 -->
      <g style="fill: #262626" transform="translate(559.553793 494.757812) scale(0.1 -0.1)">
       <use xlink:href="#ArialMT-32"/>
       <use xlink:href="#ArialMT-30" transform="translate(55.615234 0)"/>
      </g>
     </g>
    </g>
    <g id="xtick_6">
     <g id="line2d_6">
      <g>
       <use xlink:href="#m53992f5a11" x="658.707099" y="480.6" style="fill: #262626; stroke: #262626; stroke-width: 0.8"/>
      </g>
     </g>
     <g id="text_6">
      <!-- 50 -->
      <g style="fill: #262626" transform="translate(653.146161 494.757812) scale(0.1 -0.1)">
       <use xlink:href="#ArialMT-35"/>
       <use xlink:href="#ArialMT-30" transform="translate(55.615234 0)"/>
      </g>
     </g>
    </g>
    <g id="xtick_7">
     <g id="line2d_7">
      <g>
       <use xlink:href="#m53992f5a11" x="729.506992" y="480.6" style="fill: #262626; stroke: #262626; stroke-width: 0.8"/>
      </g>
     </g>
     <g id="text_7">
      <!-- 100 -->
      <g style="fill: #262626" transform="translate(721.165586 494.757812) scale(0.1 -0.1)">
       <use xlink:href="#ArialMT-31"/>
       <use xlink:href="#ArialMT-30" transform="translate(55.615234 0)"/>
       <use xlink:href="#ArialMT-30" transform="translate(111.230469 0)"/>
      </g>
     </g>
    </g>
    <g id="xtick_8">
     <g id="line2d_8">
      <g>
       <use xlink:href="#m53992f5a11" x="800.306886" y="480.6" style="fill: #262626; stroke: #262626; stroke-width: 0.8"/>
      </g>
     </g>
     <g id="text_8">
      <!-- 200 -->
      <g style="fill: #262626" transform="translate(791.96548 494.757812) scale(0.1 -0.1)">
       <use xlink:href="#ArialMT-32"/>
       <use xlink:href="#ArialMT-30" transform="translate(55.615234 0)"/>
       <use xlink:href="#ArialMT-30" transform="translate(111.230469 0)"/>
      </g>
     </g>
    </g>
    <g id="xtick_9">
     <g id="line2d_9">
      <g>
       <use xlink:href="#m53992f5a11" x="893.899255" y="480.6" style="fill: #262626; stroke: #262626; stroke-width: 0.8"/>
      </g>
     </g>
     <g id="text_9">
      <!-- 500 -->
      <g style="fill: #262626" transform="translate(885.557848 494.757812) scale(0.1 -0.1)">
       <use xlink:href="#ArialMT-35"/>
       <use xlink:href="#ArialMT-30" transform="translate(55.615234 0)"/>
       <use xlink:href="#ArialMT-30" transform="translate(111.230469 0)"/>
      </g>
     </g>
    </g>
    <g id="xtick_10">
     <g id="line2d_10">
      <g>
       <use xlink:href="#m53992f5a11" x="964.699148" y="480.6" style="fill: #262626; stroke: #262626; stroke-width: 0.8"/>
      </g>
     </g>
     <g id="text_10">
      <!-- 1000 -->
      <g style="fill: #262626" transform="translate(953.577273 494.757812) scale(0.1 -0.1)">
       <use xlink:href="#ArialMT-31"/>
       <use xlink:href="#ArialMT-30" transform="translate(55.615234 0)"/>
       <use xlink:href="#ArialMT-30" transform="translate(111.230469 0)"/>
       <use xlink:href="#ArialMT-30" transform="translate(166.845703 0)"/>
      </g>
     </g>
    </g>
    <g id="xtick_11">
     <g id="line2d_11">
      <defs>
       <path id="mdb1e3794ce" d="M 0 0 
L 0 2 
" style="stroke: #262626; stroke-width: 0.6"/>
      </defs>
      <g>
       <use xlink:href="#mdb1e3794ce" x="136.145701" y="480.6" style="fill: #262626; stroke: #262626; stroke-width: 0.6"/>
      </g>
     </g>
    </g>
    <g id="xtick_12">
     <g id="line2d_12">
      <g>
       <use xlink:href="#mdb1e3794ce" x="165.530312" y="480.6" style="fill: #262626; stroke: #262626; stroke-width: 0.6"/>
      </g>
     </g>
    </g>
    <g id="xtick_13">
     <g id="line2d_13">
      <g>
       <use xlink:href="#mdb1e3794ce" x="188.322787" y="480.6" style="fill: #262626; stroke: #262626; stroke-width: 0.6"/>
      </g>
     </g>
    </g>
    <g id="xtick_14">
     <g id="line2d_14">
      <g>
       <use xlink:href="#mdb1e3794ce" x="206.945595" y="480.6" style="fill: #262626; stroke: #262626; stroke-width: 0.6"/>
      </g>
     </g>
    </g>
    <g id="xtick_15">
     <g id="line2d_15">
      <g>
       <use xlink:href="#mdb1e3794ce" x="222.690955" y="480.6" style="fill: #262626; stroke: #262626; stroke-width: 0.6"/>
      </g>
     </g>
    </g>
    <g id="xtick_16">
     <g id="line2d_16">
      <g>
       <use xlink:href="#mdb1e3794ce" x="236.330206" y="480.6" style="fill: #262626; stroke: #262626; stroke-width: 0.6"/>
      </g>
     </g>
    </g>
    <g id="xtick_17">
     <g id="line2d_17">
      <g>
       <use xlink:href="#mdb1e3794ce" x="248.360878" y="480.6" style="fill: #262626; stroke: #262626; stroke-width: 0.6"/>
      </g>
     </g>
    </g>
    <g id="xtick_18">
     <g id="line2d_18">
      <g>
       <use xlink:href="#mdb1e3794ce" x="371.337857" y="480.6" style="fill: #262626; stroke: #262626; stroke-width: 0.6"/>
      </g>
     </g>
    </g>
    <g id="xtick_19">
     <g id="line2d_19">
      <g>
       <use xlink:href="#mdb1e3794ce" x="400.722468" y="480.6" style="fill: #262626; stroke: #262626; stroke-width: 0.6"/>
      </g>
     </g>
    </g>
    <g id="xtick_20">
     <g id="line2d_20">
      <g>
       <use xlink:href="#mdb1e3794ce" x="442.137751" y="480.6" style="fill: #262626; stroke: #262626; stroke-width: 0.6"/>
      </g>
     </g>
    </g>
    <g id="xtick_21">
     <g id="line2d_21">
      <g>
       <use xlink:href="#mdb1e3794ce" x="457.883111" y="480.6" style="fill: #262626; stroke: #262626; stroke-width: 0.6"/>
      </g>
     </g>
    </g>
    <g id="xtick_22">
     <g id="line2d_22">
      <g>
       <use xlink:href="#mdb1e3794ce" x="471.522362" y="480.6" style="fill: #262626; stroke: #262626; stroke-width: 0.6"/>
      </g>
     </g>
    </g>
    <g id="xtick_23">
     <g id="line2d_23">
      <g>
       <use xlink:href="#mdb1e3794ce" x="483.553034" y="480.6" style="fill: #262626; stroke: #262626; stroke-width: 0.6"/>
      </g>
     </g>
    </g>
    <g id="xtick_24">
     <g id="line2d_24">
      <g>
       <use xlink:href="#mdb1e3794ce" x="606.530013" y="480.6" style="fill: #262626; stroke: #262626; stroke-width: 0.6"/>
      </g>
     </g>
    </g>
    <g id="xtick_25">
     <g id="line2d_25">
      <g>
       <use xlink:href="#mdb1e3794ce" x="635.914624" y="480.6" style="fill: #262626; stroke: #262626; stroke-width: 0.6"/>
      </g>
     </g>
    </g>
    <g id="xtick_26">
     <g id="line2d_26">
      <g>
       <use xlink:href="#mdb1e3794ce" x="677.329907" y="480.6" style="fill: #262626; stroke: #262626; stroke-width: 0.6"/>
      </g>
     </g>
    </g>
    <g id="xtick_27">
     <g id="line2d_27">
      <g>
       <use xlink:href="#mdb1e3794ce" x="693.075267" y="480.6" style="fill: #262626; stroke: #262626; stroke-width: 0.6"/>
      </g>
     </g>
    </g>
    <g id="xtick_28">
     <g id="line2d_28">
      <g>
       <use xlink:href="#mdb1e3794ce" x="706.714518" y="480.6" style="fill: #262626; stroke: #262626; stroke-width: 0.6"/>
      </g>
     </g>
    </g>
    <g id="xtick_29">
     <g id="line2d_29">
      <g>
       <use xlink:href="#mdb1e3794ce" x="718.74519" y="480.6" style="fill: #262626; stroke: #262626; stroke-width: 0.6"/>
      </g>
     </g>
    </g>
    <g id="xtick_30">
     <g id="line2d_30">
      <g>
       <use xlink:href="#mdb1e3794ce" x="841.722169" y="480.6" style="fill: #262626; stroke: #262626; stroke-width: 0.6"/>
      </g>
     </g>
    </g>
    <g id="xtick_31">
     <g id="line2d_31">
      <g>
       <use xlink:href="#mdb1e3794ce" x="871.10678" y="480.6" style="fill: #262626; stroke: #262626; stroke-width: 0.6"/>
      </g>
     </g>
    </g>
    <g id="xtick_32">
     <g id="line2d_32">
      <g>
       <use xlink:href="#mdb1e3794ce" x="912.522063" y="480.6" style="fill: #262626; stroke: #262626; stroke-width: 0.6"/>
      </g>
     </g>
    </g>
    <g id="xtick_33">
     <g id="line2d_33">
      <g>
       <use xlink:href="#mdb1e3794ce" x="928.267422" y="480.6" style="fill: #262626; stroke: #262626; stroke-width: 0.6"/>
      </g>
     </g>
    </g>
    <g id="xtick_34">
     <g id="line2d_34">
      <g>
       <use xlink:href="#mdb1e3794ce" x="941.906673" y="480.6" style="fill: #262626; stroke: #262626; stroke-width: 0.6"/>
      </g>
     </g>
    </g>
    <g id="xtick_35">
     <g id="line2d_35">
      <g>
       <use xlink:href="#mdb1e3794ce" x="953.937345" y="480.6" style="fill: #262626; stroke: #262626; stroke-width: 0.6"/>
      </g>
     </g>
    </g>
    <g id="text_11">
     <!-- Income or consumption (day) -->
     <g style="fill: #262626" transform="translate(488.753906 508.025) scale(0.1 -0.1)">
      <defs>
       <path id="ArialMT-49" d="M 597 0 
L 597 4581 
L 1203 4581 
L 1203 0 
L 597 0 
z
" transform="scale(0.015625)"/>
       <path id="ArialMT-6e" d="M 422 0 
L 422 3319 
L 928 3319 
L 928 2847 
Q 1294 3394 1984 3394 
Q 2284 3394 2536 3286 
Q 2788 3178 2913 3003 
Q 3038 2828 3088 2588 
Q 3119 2431 3119 2041 
L 3119 0 
L 2556 0 
L 2556 2019 
Q 2556 2363 2490 2533 
Q 2425 2703 2258 2804 
Q 2091 2906 1866 2906 
Q 1506 2906 1245 2678 
Q 984 2450 984 1813 
L 984 0 
L 422 0 
z
" transform="scale(0.015625)"/>
       <path id="ArialMT-63" d="M 2588 1216 
L 3141 1144 
Q 3050 572 2676 248 
Q 2303 -75 1759 -75 
Q 1078 -75 664 370 
Q 250 816 250 1647 
Q 250 2184 428 2587 
Q 606 2991 970 3192 
Q 1334 3394 1763 3394 
Q 2303 3394 2647 3120 
Q 2991 2847 3088 2344 
L 2541 2259 
Q 2463 2594 2264 2762 
Q 2066 2931 1784 2931 
Q 1359 2931 1093 2626 
Q 828 2322 828 1663 
Q 828 994 1084 691 
Q 1341 388 1753 388 
Q 2084 388 2306 591 
Q 2528 794 2588 1216 
z
" transform="scale(0.015625)"/>
       <path id="ArialMT-6f" d="M 213 1659 
Q 213 2581 725 3025 
Q 1153 3394 1769 3394 
Q 2453 3394 2887 2945 
Q 3322 2497 3322 1706 
Q 3322 1066 3130 698 
Q 2938 331 2570 128 
Q 2203 -75 1769 -75 
Q 1072 -75 642 372 
Q 213 819 213 1659 
z
M 791 1659 
Q 791 1022 1069 705 
Q 1347 388 1769 388 
Q 2188 388 2466 706 
Q 2744 1025 2744 1678 
Q 2744 2294 2464 2611 
Q 2184 2928 1769 2928 
Q 1347 2928 1069 2612 
Q 791 2297 791 1659 
z
" transform="scale(0.015625)"/>
       <path id="ArialMT-6d" d="M 422 0 
L 422 3319 
L 925 3319 
L 925 2853 
Q 1081 3097 1340 3245 
Q 1600 3394 1931 3394 
Q 2300 3394 2536 3241 
Q 2772 3088 2869 2813 
Q 3263 3394 3894 3394 
Q 4388 3394 4653 3120 
Q 4919 2847 4919 2278 
L 4919 0 
L 4359 0 
L 4359 2091 
Q 4359 2428 4304 2576 
Q 4250 2725 4106 2815 
Q 3963 2906 3769 2906 
Q 3419 2906 3187 2673 
Q 2956 2441 2956 1928 
L 2956 0 
L 2394 0 
L 2394 2156 
Q 2394 2531 2256 2718 
Q 2119 2906 1806 2906 
Q 1569 2906 1367 2781 
Q 1166 2656 1075 2415 
Q 984 2175 984 1722 
L 984 0 
L 422 0 
z
" transform="scale(0.015625)"/>
       <path id="ArialMT-65" d="M 2694 1069 
L 3275 997 
Q 3138 488 2766 206 
Q 2394 -75 1816 -75 
Q 1088 -75 661 373 
Q 234 822 234 1631 
Q 234 2469 665 2931 
Q 1097 3394 1784 3394 
Q 2450 3394 2872 2941 
Q 3294 2488 3294 1666 
Q 3294 1616 3291 1516 
L 816 1516 
Q 847 969 1125 678 
Q 1403 388 1819 388 
Q 2128 388 2347 550 
Q 2566 713 2694 1069 
z
M 847 1978 
L 2700 1978 
Q 2663 2397 2488 2606 
Q 2219 2931 1791 2931 
Q 1403 2931 1139 2672 
Q 875 2413 847 1978 
z
" transform="scale(0.015625)"/>
       <path id="ArialMT-20" transform="scale(0.015625)"/>
       <path id="ArialMT-72" d="M 416 0 
L 416 3319 
L 922 3319 
L 922 2816 
Q 1116 3169 1280 3281 
Q 1444 3394 1641 3394 
Q 1925 3394 2219 3213 
L 2025 2691 
Q 1819 2813 1613 2813 
Q 1428 2813 1281 2702 
Q 1134 2591 1072 2394 
Q 978 2094 978 1738 
L 978 0 
L 416 0 
z
" transform="scale(0.015625)"/>
       <path id="ArialMT-73" d="M 197 991 
L 753 1078 
Q 800 744 1014 566 
Q 1228 388 1613 388 
Q 2000 388 2187 545 
Q 2375 703 2375 916 
Q 2375 1106 2209 1216 
Q 2094 1291 1634 1406 
Q 1016 1563 777 1677 
Q 538 1791 414 1992 
Q 291 2194 291 2438 
Q 291 2659 392 2848 
Q 494 3038 669 3163 
Q 800 3259 1026 3326 
Q 1253 3394 1513 3394 
Q 1903 3394 2198 3281 
Q 2494 3169 2634 2976 
Q 2775 2784 2828 2463 
L 2278 2388 
Q 2241 2644 2061 2787 
Q 1881 2931 1553 2931 
Q 1166 2931 1000 2803 
Q 834 2675 834 2503 
Q 834 2394 903 2306 
Q 972 2216 1119 2156 
Q 1203 2125 1616 2013 
Q 2213 1853 2448 1751 
Q 2684 1650 2818 1456 
Q 2953 1263 2953 975 
Q 2953 694 2789 445 
Q 2625 197 2315 61 
Q 2006 -75 1616 -75 
Q 969 -75 630 194 
Q 291 463 197 991 
z
" transform="scale(0.015625)"/>
       <path id="ArialMT-75" d="M 2597 0 
L 2597 488 
Q 2209 -75 1544 -75 
Q 1250 -75 995 37 
Q 741 150 617 320 
Q 494 491 444 738 
Q 409 903 409 1263 
L 409 3319 
L 972 3319 
L 972 1478 
Q 972 1038 1006 884 
Q 1059 663 1231 536 
Q 1403 409 1656 409 
Q 1909 409 2131 539 
Q 2353 669 2445 892 
Q 2538 1116 2538 1541 
L 2538 3319 
L 3100 3319 
L 3100 0 
L 2597 0 
z
" transform="scale(0.015625)"/>
       <path id="ArialMT-70" d="M 422 -1272 
L 422 3319 
L 934 3319 
L 934 2888 
Q 1116 3141 1344 3267 
Q 1572 3394 1897 3394 
Q 2322 3394 2647 3175 
Q 2972 2956 3137 2557 
Q 3303 2159 3303 1684 
Q 3303 1175 3120 767 
Q 2938 359 2589 142 
Q 2241 -75 1856 -75 
Q 1575 -75 1351 44 
Q 1128 163 984 344 
L 984 -1272 
L 422 -1272 
z
M 931 1641 
Q 931 1000 1190 694 
Q 1450 388 1819 388 
Q 2194 388 2461 705 
Q 2728 1022 2728 1688 
Q 2728 2322 2467 2637 
Q 2206 2953 1844 2953 
Q 1484 2953 1207 2617 
Q 931 2281 931 1641 
z
" transform="scale(0.015625)"/>
       <path id="ArialMT-74" d="M 1650 503 
L 1731 6 
Q 1494 -44 1306 -44 
Q 1000 -44 831 53 
Q 663 150 594 308 
Q 525 466 525 972 
L 525 2881 
L 113 2881 
L 113 3319 
L 525 3319 
L 525 4141 
L 1084 4478 
L 1084 3319 
L 1650 3319 
L 1650 2881 
L 1084 2881 
L 1084 941 
Q 1084 700 1114 631 
Q 1144 563 1211 522 
Q 1278 481 1403 481 
Q 1497 481 1650 503 
z
" transform="scale(0.015625)"/>
       <path id="ArialMT-69" d="M 425 3934 
L 425 4581 
L 988 4581 
L 988 3934 
L 425 3934 
z
M 425 0 
L 425 3319 
L 988 3319 
L 988 0 
L 425 0 
z
" transform="scale(0.015625)"/>
       <path id="ArialMT-28" d="M 1497 -1347 
Q 1031 -759 709 28 
Q 388 816 388 1659 
Q 388 2403 628 3084 
Q 909 3875 1497 4659 
L 1900 4659 
Q 1522 4009 1400 3731 
Q 1209 3300 1100 2831 
Q 966 2247 966 1656 
Q 966 153 1900 -1347 
L 1497 -1347 
z
" transform="scale(0.015625)"/>
       <path id="ArialMT-64" d="M 2575 0 
L 2575 419 
Q 2259 -75 1647 -75 
Q 1250 -75 917 144 
Q 584 363 401 755 
Q 219 1147 219 1656 
Q 219 2153 384 2558 
Q 550 2963 881 3178 
Q 1213 3394 1622 3394 
Q 1922 3394 2156 3267 
Q 2391 3141 2538 2938 
L 2538 4581 
L 3097 4581 
L 3097 0 
L 2575 0 
z
M 797 1656 
Q 797 1019 1065 703 
Q 1334 388 1700 388 
Q 2069 388 2326 689 
Q 2584 991 2584 1609 
Q 2584 2291 2321 2609 
Q 2059 2928 1675 2928 
Q 1300 2928 1048 2622 
Q 797 2316 797 1656 
z
" transform="scale(0.015625)"/>
       <path id="ArialMT-61" d="M 2588 409 
Q 2275 144 1986 34 
Q 1697 -75 1366 -75 
Q 819 -75 525 192 
Q 231 459 231 875 
Q 231 1119 342 1320 
Q 453 1522 633 1644 
Q 813 1766 1038 1828 
Q 1203 1872 1538 1913 
Q 2219 1994 2541 2106 
Q 2544 2222 2544 2253 
Q 2544 2597 2384 2738 
Q 2169 2928 1744 2928 
Q 1347 2928 1158 2789 
Q 969 2650 878 2297 
L 328 2372 
Q 403 2725 575 2942 
Q 747 3159 1072 3276 
Q 1397 3394 1825 3394 
Q 2250 3394 2515 3294 
Q 2781 3194 2906 3042 
Q 3031 2891 3081 2659 
Q 3109 2516 3109 2141 
L 3109 1391 
Q 3109 606 3145 398 
Q 3181 191 3288 0 
L 2700 0 
Q 2613 175 2588 409 
z
M 2541 1666 
Q 2234 1541 1622 1453 
Q 1275 1403 1131 1340 
Q 988 1278 909 1158 
Q 831 1038 831 891 
Q 831 666 1001 516 
Q 1172 366 1500 366 
Q 1825 366 2078 508 
Q 2331 650 2450 897 
Q 2541 1088 2541 1459 
L 2541 1666 
z
" transform="scale(0.015625)"/>
       <path id="ArialMT-79" d="M 397 -1278 
L 334 -750 
Q 519 -800 656 -800 
Q 844 -800 956 -737 
Q 1069 -675 1141 -563 
Q 1194 -478 1313 -144 
Q 1328 -97 1363 -6 
L 103 3319 
L 709 3319 
L 1400 1397 
Q 1534 1031 1641 628 
Q 1738 1016 1872 1384 
L 2581 3319 
L 3144 3319 
L 1881 -56 
Q 1678 -603 1566 -809 
Q 1416 -1088 1222 -1217 
Q 1028 -1347 759 -1347 
Q 597 -1347 397 -1278 
z
" transform="scale(0.015625)"/>
       <path id="ArialMT-29" d="M 791 -1347 
L 388 -1347 
Q 1322 153 1322 1656 
Q 1322 2244 1188 2822 
Q 1081 3291 891 3722 
Q 769 4003 388 4659 
L 791 4659 
Q 1378 3875 1659 3084 
Q 1900 2403 1900 1659 
Q 1900 816 1576 28 
Q 1253 -759 791 -1347 
z
" transform="scale(0.015625)"/>
      </defs>
      <use xlink:href="#ArialMT-49"/>
      <use xlink:href="#ArialMT-6e" transform="translate(27.783203 0)"/>
      <use xlink:href="#ArialMT-63" transform="translate(83.398438 0)"/>
      <use xlink:href="#ArialMT-6f" transform="translate(133.398438 0)"/>
      <use xlink:href="#ArialMT-6d" transform="translate(189.013672 0)"/>
      <use xlink:href="#ArialMT-65" transform="translate(272.314453 0)"/>
      <use xlink:href="#ArialMT-20" transform="translate(327.929688 0)"/>
      <use xlink:href="#ArialMT-6f" transform="translate(355.712891 0)"/>
      <use xlink:href="#ArialMT-72" transform="translate(411.328125 0)"/>
      <use xlink:href="#ArialMT-20" transform="translate(444.628906 0)"/>
      <use xlink:href="#ArialMT-63" transform="translate(472.412109 0)"/>
      <use xlink:href="#ArialMT-6f" transform="translate(522.412109 0)"/>
      <use xlink:href="#ArialMT-6e" transform="translate(578.027344 0)"/>
      <use xlink:href="#ArialMT-73" transform="translate(633.642578 0)"/>
      <use xlink:href="#ArialMT-75" transform="translate(683.642578 0)"/>
      <use xlink:href="#ArialMT-6d" transform="translate(739.257812 0)"/>
      <use xlink:href="#ArialMT-70" transform="translate(822.558594 0)"/>
      <use xlink:href="#ArialMT-74" transform="translate(878.173828 0)"/>
      <use xlink:href="#ArialMT-69" transform="translate(905.957031 0)"/>
      <use xlink:href="#ArialMT-6f" transform="translate(928.173828 0)"/>
      <use xlink:href="#ArialMT-6e" transform="translate(983.789062 0)"/>
      <use xlink:href="#ArialMT-20" transform="translate(1039.404297 0)"/>
      <use xlink:href="#ArialMT-28" transform="translate(1067.1875 0)"/>
      <use xlink:href="#ArialMT-64" transform="translate(1100.488281 0)"/>
      <use xlink:href="#ArialMT-61" transform="translate(1156.103516 0)"/>
      <use xlink:href="#ArialMT-79" transform="translate(1211.71875 0)"/>
      <use xlink:href="#ArialMT-29" transform="translate(1261.71875 0)"/>
     </g>
    </g>
   </g>
   <g id="matplotlib.axis_2"/>
   <g id="FillBetweenPolyCollection_1">
    <defs>
     <path id="m587d2f3bda" d="M 173.045455 -59.509518 
L 173.045455 -59.4 
L 174.956646 -59.4 
L 176.867838 -59.4 
L 178.77903 -59.4 
L 180.690221 -59.4 
L 182.601413 -59.4 
L 184.512605 -59.4 
L 186.423797 -59.4 
L 188.334988 -59.4 
L 190.24618 -59.4 
L 192.157372 -59.4 
L 194.068564 -59.4 
L 195.979755 -59.4 
L 197.890947 -59.4 
L 199.802139 -59.4 
L 201.713331 -59.4 
L 203.624522 -59.4 
L 205.535714 -59.4 
L 207.446906 -59.4 
L 209.358098 -59.4 
L 211.269289 -59.4 
L 213.180481 -59.4 
L 215.091673 -59.4 
L 217.002864 -59.4 
L 218.914056 -59.4 
L 220.825248 -59.4 
L 222.73644 -59.4 
L 224.647631 -59.4 
L 226.558823 -59.4 
L 228.470015 -59.4 
L 230.381207 -59.4 
L 232.292398 -59.4 
L 234.20359 -59.4 
L 236.114782 -59.4 
L 238.025974 -59.4 
L 239.937165 -59.4 
L 241.848357 -59.4 
L 243.759549 -59.4 
L 245.670741 -59.4 
L 247.581932 -59.4 
L 249.493124 -59.4 
L 251.404316 -59.4 
L 253.315507 -59.4 
L 255.226699 -59.4 
L 257.137891 -59.4 
L 259.049083 -59.4 
L 260.960274 -59.4 
L 262.871466 -59.4 
L 264.782658 -59.4 
L 266.69385 -59.4 
L 268.605041 -59.4 
L 270.516233 -59.4 
L 272.427425 -59.4 
L 274.338617 -59.4 
L 276.249808 -59.4 
L 278.161 -59.4 
L 280.072192 -59.4 
L 281.983384 -59.4 
L 283.894575 -59.4 
L 285.805767 -59.4 
L 287.716959 -59.4 
L 289.62815 -59.4 
L 291.539342 -59.4 
L 293.450534 -59.4 
L 295.361726 -59.4 
L 297.272917 -59.4 
L 299.184109 -59.4 
L 301.095301 -59.4 
L 303.006493 -59.4 
L 304.917684 -59.4 
L 306.828876 -59.4 
L 308.740068 -59.4 
L 310.65126 -59.4 
L 312.562451 -59.4 
L 314.473643 -59.4 
L 316.384835 -59.4 
L 318.296027 -59.4 
L 320.207218 -59.4 
L 322.11841 -59.4 
L 324.029602 -59.4 
L 325.940793 -59.4 
L 327.851985 -59.4 
L 329.763177 -59.4 
L 331.674369 -59.4 
L 333.58556 -59.4 
L 335.496752 -59.4 
L 337.407944 -59.4 
L 339.319136 -59.4 
L 341.230327 -59.4 
L 343.141519 -59.4 
L 345.052711 -59.4 
L 346.963903 -59.4 
L 348.875094 -59.4 
L 350.786286 -59.4 
L 352.697478 -59.4 
L 354.60867 -59.4 
L 356.519861 -59.4 
L 358.431053 -59.4 
L 360.342245 -59.4 
L 362.253436 -59.4 
L 364.164628 -59.4 
L 366.07582 -59.4 
L 367.987012 -59.4 
L 369.898203 -59.4 
L 371.809395 -59.4 
L 373.720587 -59.4 
L 375.631779 -59.4 
L 377.54297 -59.4 
L 379.454162 -59.4 
L 381.365354 -59.4 
L 383.276546 -59.4 
L 385.187737 -59.4 
L 387.098929 -59.4 
L 389.010121 -59.4 
L 390.921313 -59.4 
L 392.832504 -59.4 
L 394.743696 -59.4 
L 396.654888 -59.4 
L 398.566079 -59.4 
L 400.477271 -59.4 
L 402.388463 -59.4 
L 404.299655 -59.4 
L 406.210846 -59.4 
L 408.122038 -59.4 
L 410.03323 -59.4 
L 411.944422 -59.4 
L 413.855613 -59.4 
L 415.766805 -59.4 
L 417.677997 -59.4 
L 419.589189 -59.4 
L 421.50038 -59.4 
L 423.411572 -59.4 
L 425.322764 -59.4 
L 427.233956 -59.4 
L 429.145147 -59.4 
L 431.056339 -59.4 
L 432.967531 -59.4 
L 434.878722 -59.4 
L 436.789914 -59.4 
L 438.701106 -59.4 
L 440.612298 -59.4 
L 442.523489 -59.4 
L 444.434681 -59.4 
L 446.345873 -59.4 
L 448.257065 -59.4 
L 450.168256 -59.4 
L 452.079448 -59.4 
L 453.99064 -59.4 
L 455.901832 -59.4 
L 457.813023 -59.4 
L 459.724215 -59.4 
L 461.635407 -59.4 
L 463.546599 -59.4 
L 465.45779 -59.4 
L 467.368982 -59.4 
L 469.280174 -59.4 
L 471.191365 -59.4 
L 473.102557 -59.4 
L 475.013749 -59.4 
L 476.924941 -59.4 
L 478.836132 -59.4 
L 480.747324 -59.4 
L 482.658516 -59.4 
L 484.569708 -59.4 
L 486.480899 -59.4 
L 488.392091 -59.4 
L 490.303283 -59.4 
L 492.214475 -59.4 
L 494.125666 -59.4 
L 496.036858 -59.4 
L 497.94805 -59.4 
L 499.859242 -59.4 
L 501.770433 -59.4 
L 503.681625 -59.4 
L 505.592817 -59.4 
L 507.504008 -59.4 
L 509.4152 -59.4 
L 511.326392 -59.4 
L 513.237584 -59.4 
L 515.148775 -59.4 
L 517.059967 -59.4 
L 518.971159 -59.4 
L 520.882351 -59.4 
L 522.793542 -59.4 
L 524.704734 -59.4 
L 526.615926 -59.4 
L 528.527118 -59.4 
L 530.438309 -59.4 
L 532.349501 -59.4 
L 534.260693 -59.4 
L 536.171885 -59.4 
L 538.083076 -59.4 
L 539.994268 -59.4 
L 541.90546 -59.4 
L 543.816651 -59.4 
L 545.727843 -59.4 
L 547.639035 -59.4 
L 549.550227 -59.4 
L 551.461418 -59.4 
L 553.37261 -59.4 
L 553.37261 -59.518061 
L 553.37261 -59.518061 
L 551.461418 -59.557871 
L 549.550227 -59.609268 
L 547.639035 -59.675 
L 545.727843 -59.75827 
L 543.816651 -59.862765 
L 541.90546 -59.992667 
L 539.994268 -60.152645 
L 538.083076 -60.347828 
L 536.171885 -60.583763 
L 534.260693 -60.866336 
L 532.349501 -61.20168 
L 530.438309 -61.596054 
L 528.527118 -62.055703 
L 526.615926 -62.586707 
L 524.704734 -63.19482 
L 522.793542 -63.885307 
L 520.882351 -64.662803 
L 518.971159 -65.531187 
L 517.059967 -66.493488 
L 515.148775 -67.551847 
L 513.237584 -68.707515 
L 511.326392 -69.96092 
L 509.4152 -71.311791 
L 507.504008 -72.759332 
L 505.592817 -74.302454 
L 503.681625 -75.940041 
L 501.770433 -77.67124 
L 499.859242 -79.495757 
L 497.94805 -81.414136 
L 496.036858 -83.428005 
L 494.125666 -85.540266 
L 492.214475 -87.755207 
L 490.303283 -90.078537 
L 488.392091 -92.517319 
L 486.480899 -95.079813 
L 484.569708 -97.775235 
L 482.658516 -100.61343 
L 480.747324 -103.6045 
L 478.836132 -106.758394 
L 476.924941 -110.084492 
L 475.013749 -113.591221 
L 473.102557 -117.285713 
L 471.191365 -121.173545 
L 469.280174 -125.258576 
L 467.368982 -129.542882 
L 465.45779 -134.026802 
L 463.546599 -138.709092 
L 461.635407 -143.587147 
L 459.724215 -148.657306 
L 457.813023 -153.915166 
L 455.901832 -159.355914 
L 453.99064 -164.974614 
L 452.079448 -170.76643 
L 450.168256 -176.726774 
L 448.257065 -182.851333 
L 446.345873 -189.136008 
L 444.434681 -195.576734 
L 442.523489 -202.169231 
L 440.612298 -208.908685 
L 438.701106 -215.789409 
L 436.789914 -222.804508 
L 434.878722 -229.945598 
L 432.967531 -237.202591 
L 431.056339 -244.563593 
L 429.145147 -252.014905 
L 427.233956 -259.541159 
L 425.322764 -267.125549 
L 423.411572 -274.750163 
L 421.50038 -282.396371 
L 419.589189 -290.045235 
L 417.677997 -297.677906 
L 415.766805 -305.275962 
L 413.855613 -312.821663 
L 411.944422 -320.298083 
L 410.03323 -327.689114 
L 408.122038 -334.979334 
L 406.210846 -342.153748 
L 404.299655 -349.197418 
L 402.388463 -356.095023 
L 400.477271 -362.830382 
L 398.566079 -369.385974 
L 396.654888 -375.742517 
L 394.743696 -381.878634 
L 392.832504 -387.770639 
L 390.921313 -393.392483 
L 389.010121 -398.715864 
L 387.098929 -403.710503 
L 385.187737 -408.344596 
L 383.276546 -412.585399 
L 381.365354 -416.399941 
L 379.454162 -419.755812 
L 377.54297 -422.621992 
L 375.631779 -424.969693 
L 373.720587 -426.773139 
L 371.809395 -428.010289 
L 369.898203 -428.663439 
L 367.987012 -428.719694 
L 366.07582 -428.171291 
L 364.164628 -427.015772 
L 362.253436 -425.255997 
L 360.342245 -422.900023 
L 358.431053 -419.960847 
L 356.519861 -416.456057 
L 354.60867 -412.407391 
L 352.697478 -407.840247 
L 350.786286 -402.783164 
L 348.875094 -397.267288 
L 346.963903 -391.325857 
L 345.052711 -384.993705 
L 343.141519 -378.306804 
L 341.230327 -371.301845 
L 339.319136 -364.015866 
L 337.407944 -356.485911 
L 335.496752 -348.748733 
L 333.58556 -340.84052 
L 331.674369 -332.796644 
L 329.763177 -324.651434 
L 327.851985 -316.437947 
L 325.940793 -308.187767 
L 324.029602 -299.930796 
L 322.11841 -291.695067 
L 320.207218 -283.506572 
L 318.296027 -275.389105 
L 316.384835 -267.364133 
L 314.473643 -259.450705 
L 312.562451 -251.665393 
L 310.65126 -244.022278 
L 308.740068 -236.53298 
L 306.828876 -229.206742 
L 304.917684 -222.050549 
L 303.006493 -215.069301 
L 301.095301 -208.266015 
L 299.184109 -201.642066 
L 297.272917 -195.197449 
L 295.361726 -188.931058 
L 293.450534 -182.840974 
L 291.539342 -176.924752 
L 289.62815 -171.179695 
L 287.716959 -165.603114 
L 285.805767 -160.192559 
L 283.894575 -154.946022 
L 281.983384 -149.862095 
L 280.072192 -144.940087 
L 278.161 -140.180091 
L 276.249808 -135.582998 
L 274.338617 -131.15046 
L 272.427425 -126.884794 
L 270.516233 -122.788837 
L 268.605041 -118.865751 
L 266.69385 -115.118789 
L 264.782658 -111.551021 
L 262.871466 -108.16505 
L 260.960274 -104.962709 
L 259.049083 -101.944777 
L 257.137891 -99.110719 
L 255.226699 -96.458464 
L 253.315507 -93.98425 
L 251.404316 -91.682539 
L 249.493124 -89.546021 
L 247.581932 -87.565701 
L 245.670741 -85.731084 
L 243.759549 -84.03044 
L 241.848357 -82.451148 
L 239.937165 -80.980087 
L 238.025974 -79.604068 
L 236.114782 -78.310271 
L 234.20359 -77.086667 
L 232.292398 -75.922395 
L 230.381207 -74.808073 
L 228.470015 -73.736029 
L 226.558823 -72.70043 
L 224.647631 -71.697318 
L 222.73644 -70.724538 
L 220.825248 -69.781582 
L 218.914056 -68.869357 
L 217.002864 -67.989888 
L 215.091673 -67.145995 
L 213.180481 -66.340953 
L 211.269289 -65.578164 
L 209.358098 -64.86085 
L 207.446906 -64.191802 
L 205.535714 -63.573175 
L 203.624522 -63.006345 
L 201.713331 -62.491837 
L 199.802139 -62.029301 
L 197.890947 -61.617553 
L 195.979755 -61.254644 
L 194.068564 -60.937982 
L 192.157372 -60.664452 
L 190.24618 -60.430568 
L 188.334988 -60.232611 
L 186.423797 -60.066759 
L 184.512605 -59.929217 
L 182.601413 -59.816308 
L 180.690221 -59.724559 
L 178.77903 -59.650757 
L 176.867838 -59.59199 
L 174.956646 -59.545667 
L 173.045455 -59.509518 
z
" style="stroke: #dd8452"/>
    </defs>
    <g clip-path="url(#p286740ac82)">
     <use xlink:href="#m587d2f3bda" x="0" y="540" style="fill: #dd8452; fill-opacity: 0.25; stroke: #dd8452"/>
    </g>
   </g>
   <g id="FillBetweenPolyCollection_2">
    <defs>
     <path id="m13d2d93e3a" d="M 435.080391 -59.501367 
L 435.080391 -59.4 
L 437.587296 -59.4 
L 440.094201 -59.4 
L 442.601107 -59.4 
L 445.108012 -59.4 
L 447.614917 -59.4 
L 450.121822 -59.4 
L 452.628728 -59.4 
L 455.135633 -59.4 
L 457.642538 -59.4 
L 460.149444 -59.4 
L 462.656349 -59.4 
L 465.163254 -59.4 
L 467.67016 -59.4 
L 470.177065 -59.4 
L 472.68397 -59.4 
L 475.190875 -59.4 
L 477.697781 -59.4 
L 480.204686 -59.4 
L 482.711591 -59.4 
L 485.218497 -59.4 
L 487.725402 -59.4 
L 490.232307 -59.4 
L 492.739213 -59.4 
L 495.246118 -59.4 
L 497.753023 -59.4 
L 500.259928 -59.4 
L 502.766834 -59.4 
L 505.273739 -59.4 
L 507.780644 -59.4 
L 510.28755 -59.4 
L 512.794455 -59.4 
L 515.30136 -59.4 
L 517.808266 -59.4 
L 520.315171 -59.4 
L 522.822076 -59.4 
L 525.328981 -59.4 
L 527.835887 -59.4 
L 530.342792 -59.4 
L 532.849697 -59.4 
L 535.356603 -59.4 
L 537.863508 -59.4 
L 540.370413 -59.4 
L 542.877319 -59.4 
L 545.384224 -59.4 
L 547.891129 -59.4 
L 550.398034 -59.4 
L 552.90494 -59.4 
L 555.411845 -59.4 
L 557.91875 -59.4 
L 560.425656 -59.4 
L 562.932561 -59.4 
L 565.439466 -59.4 
L 567.946372 -59.4 
L 570.453277 -59.4 
L 572.960182 -59.4 
L 575.467087 -59.4 
L 577.973993 -59.4 
L 580.480898 -59.4 
L 582.987803 -59.4 
L 585.494709 -59.4 
L 588.001614 -59.4 
L 590.508519 -59.4 
L 593.015425 -59.4 
L 595.52233 -59.4 
L 598.029235 -59.4 
L 600.53614 -59.4 
L 603.043046 -59.4 
L 605.549951 -59.4 
L 608.056856 -59.4 
L 610.563762 -59.4 
L 613.070667 -59.4 
L 615.577572 -59.4 
L 618.084478 -59.4 
L 620.591383 -59.4 
L 623.098288 -59.4 
L 625.605193 -59.4 
L 628.112099 -59.4 
L 630.619004 -59.4 
L 633.125909 -59.4 
L 635.632815 -59.4 
L 638.13972 -59.4 
L 640.646625 -59.4 
L 643.153531 -59.4 
L 645.660436 -59.4 
L 648.167341 -59.4 
L 650.674246 -59.4 
L 653.181152 -59.4 
L 655.688057 -59.4 
L 658.194962 -59.4 
L 660.701868 -59.4 
L 663.208773 -59.4 
L 665.715678 -59.4 
L 668.222584 -59.4 
L 670.729489 -59.4 
L 673.236394 -59.4 
L 675.743299 -59.4 
L 678.250205 -59.4 
L 680.75711 -59.4 
L 683.264015 -59.4 
L 685.770921 -59.4 
L 688.277826 -59.4 
L 690.784731 -59.4 
L 693.291637 -59.4 
L 695.798542 -59.4 
L 698.305447 -59.4 
L 700.812352 -59.4 
L 703.319258 -59.4 
L 705.826163 -59.4 
L 708.333068 -59.4 
L 710.839974 -59.4 
L 713.346879 -59.4 
L 715.853784 -59.4 
L 718.36069 -59.4 
L 720.867595 -59.4 
L 723.3745 -59.4 
L 725.881405 -59.4 
L 728.388311 -59.4 
L 730.895216 -59.4 
L 733.402121 -59.4 
L 735.909027 -59.4 
L 738.415932 -59.4 
L 740.922837 -59.4 
L 743.429743 -59.4 
L 745.936648 -59.4 
L 748.443553 -59.4 
L 750.950459 -59.4 
L 753.457364 -59.4 
L 755.964269 -59.4 
L 758.471174 -59.4 
L 760.97808 -59.4 
L 763.484985 -59.4 
L 765.99189 -59.4 
L 768.498796 -59.4 
L 771.005701 -59.4 
L 773.512606 -59.4 
L 776.019512 -59.4 
L 778.526417 -59.4 
L 781.033322 -59.4 
L 783.540227 -59.4 
L 786.047133 -59.4 
L 788.554038 -59.4 
L 791.060943 -59.4 
L 793.567849 -59.4 
L 796.074754 -59.4 
L 798.581659 -59.4 
L 801.088565 -59.4 
L 803.59547 -59.4 
L 806.102375 -59.4 
L 808.60928 -59.4 
L 811.116186 -59.4 
L 813.623091 -59.4 
L 816.129996 -59.4 
L 818.636902 -59.4 
L 821.143807 -59.4 
L 823.650712 -59.4 
L 826.157618 -59.4 
L 828.664523 -59.4 
L 831.171428 -59.4 
L 833.678333 -59.4 
L 836.185239 -59.4 
L 838.692144 -59.4 
L 841.199049 -59.4 
L 843.705955 -59.4 
L 846.21286 -59.4 
L 848.719765 -59.4 
L 851.226671 -59.4 
L 853.733576 -59.4 
L 856.240481 -59.4 
L 858.747386 -59.4 
L 861.254292 -59.4 
L 863.761197 -59.4 
L 866.268102 -59.4 
L 868.775008 -59.4 
L 871.281913 -59.4 
L 873.788818 -59.4 
L 876.295724 -59.4 
L 878.802629 -59.4 
L 881.309534 -59.4 
L 883.816439 -59.4 
L 886.323345 -59.4 
L 888.83025 -59.4 
L 891.337155 -59.4 
L 893.844061 -59.4 
L 896.350966 -59.4 
L 898.857871 -59.4 
L 901.364777 -59.4 
L 903.871682 -59.4 
L 906.378587 -59.4 
L 908.885492 -59.4 
L 911.392398 -59.4 
L 913.899303 -59.4 
L 916.406208 -59.4 
L 918.913114 -59.4 
L 921.420019 -59.4 
L 923.926924 -59.4 
L 926.43383 -59.4 
L 928.940735 -59.4 
L 931.44764 -59.4 
L 933.954545 -59.4 
L 933.954545 -59.502961 
L 933.954545 -59.502961 
L 931.44764 -59.547025 
L 928.940735 -59.606888 
L 926.43383 -59.686883 
L 923.926924 -59.792014 
L 921.420019 -59.927866 
L 918.913114 -60.100444 
L 916.406208 -60.315901 
L 913.899303 -60.580186 
L 911.392398 -60.898576 
L 908.885492 -61.275139 
L 906.378587 -61.712143 
L 903.871682 -62.209457 
L 901.364777 -62.764004 
L 898.857871 -63.369332 
L 896.350966 -64.015356 
L 893.844061 -64.68835 
L 891.337155 -65.371217 
L 888.83025 -66.044066 
L 886.323345 -66.685086 
L 883.816439 -67.271672 
L 881.309534 -67.781734 
L 878.802629 -68.195088 
L 876.295724 -68.494809 
L 873.788818 -68.66843 
L 871.281913 -68.708873 
L 868.775008 -68.615035 
L 866.268102 -68.391955 
L 863.761197 -68.05058 
L 861.254292 -67.607141 
L 858.747386 -67.08221 
L 856.240481 -66.499553 
L 853.733576 -65.88487 
L 851.226671 -65.264548 
L 848.719765 -64.664528 
L 846.21286 -64.109367 
L 843.705955 -63.62152 
L 841.199049 -63.220892 
L 838.692144 -62.9246 
L 836.185239 -62.746946 
L 833.678333 -62.69951 
L 831.171428 -62.791339 
L 828.664523 -63.029159 
L 826.157618 -63.417593 
L 823.650712 -63.959357 
L 821.143807 -64.655456 
L 818.636902 -65.505389 
L 816.129996 -66.507395 
L 813.623091 -67.658785 
L 811.116186 -68.956371 
L 808.60928 -70.397008 
L 806.102375 -71.978239 
L 803.59547 -73.699003 
L 801.088565 -75.560367 
L 798.581659 -77.566196 
L 796.074754 -79.723705 
L 793.567849 -82.043819 
L 791.060943 -84.541285 
L 788.554038 -87.23452 
L 786.047133 -90.145175 
L 783.540227 -93.29745 
L 781.033322 -96.717215 
L 778.526417 -100.430991 
L 776.019512 -104.464882 
L 773.512606 -108.843532 
L 771.005701 -113.589177 
L 768.498796 -118.720836 
L 765.99189 -124.253702 
L 763.484985 -130.19871 
L 760.97808 -136.562326 
L 758.471174 -143.346502 
L 755.964269 -150.548809 
L 753.457364 -158.162704 
L 750.950459 -166.177918 
L 748.443553 -174.580947 
L 745.936648 -183.355609 
L 743.429743 -192.483656 
L 740.922837 -201.945396 
L 738.415932 -211.720281 
L 735.909027 -221.78741 
L 733.402121 -232.12587 
L 730.895216 -242.714858 
L 728.388311 -253.533518 
L 725.881405 -264.560457 
L 723.3745 -275.772924 
L 720.867595 -287.145688 
L 718.36069 -298.649687 
L 715.853784 -310.250562 
L 713.346879 -321.907212 
L 710.839974 -333.570548 
L 708.333068 -345.182592 
L 705.826163 -356.676059 
L 703.319258 -367.974515 
L 700.812352 -378.993156 
L 698.305447 -389.640166 
L 695.798542 -399.818586 
L 693.291637 -409.428558 
L 690.784731 -418.369765 
L 688.277826 -426.543916 
L 685.770921 -433.857094 
L 683.264015 -440.221845 
L 680.75711 -445.558924 
L 678.250205 -449.79866 
L 675.743299 -452.88197 
L 673.236394 -454.761075 
L 670.729489 -455.4 
L 668.222584 -454.77497 
L 665.715678 -452.874773 
L 663.208773 -449.701144 
L 660.701868 -445.269206 
L 658.194962 -439.60792 
L 655.688057 -432.760499 
L 653.181152 -424.784671 
L 650.674246 -415.75269 
L 648.167341 -405.750967 
L 645.660436 -394.879228 
L 643.153531 -383.249129 
L 640.646625 -370.982303 
L 638.13972 -358.207869 
L 635.632815 -345.059474 
L 633.125909 -331.672003 
L 630.619004 -318.178108 
L 628.112099 -304.704746 
L 625.605193 -291.369916 
L 623.098288 -278.279783 
L 620.591383 -265.526342 
L 618.084478 -253.185757 
L 615.577572 -241.317453 
L 613.070667 -229.963976 
L 610.563762 -219.151615 
L 608.056856 -208.891702 
L 605.549951 -199.18247 
L 603.043046 -190.011318 
L 600.53614 -181.357313 
L 598.029235 -173.19375 
L 595.52233 -165.490592 
L 593.015425 -158.216658 
L 590.508519 -151.341428 
L 588.001614 -144.836405 
L 585.494709 -138.676006 
L 582.987803 -132.838005 
L 580.480898 -127.303576 
L 577.973993 -122.057045 
L 575.467087 -117.085442 
L 572.960182 -112.37797 
L 570.453277 -107.925496 
L 567.946372 -103.720136 
L 565.439466 -99.754985 
L 562.932561 -96.024019 
L 560.425656 -92.522131 
L 557.91875 -89.245282 
L 555.411845 -86.190684 
L 552.90494 -83.356954 
L 550.398034 -80.744174 
L 547.891129 -78.353797 
L 545.384224 -76.188362 
L 542.877319 -74.251015 
L 540.370413 -72.544851 
L 537.863508 -71.072109 
L 535.356603 -69.83329 
L 532.849697 -68.826256 
L 530.342792 -68.045404 
L 527.835887 -67.480979 
L 525.328981 -67.118612 
L 522.822076 -66.939127 
L 520.315171 -66.91868 
L 517.808266 -67.029231 
L 515.30136 -67.239355 
L 512.794455 -67.51536 
L 510.28755 -67.822649 
L 507.780644 -68.127239 
L 505.273739 -68.397334 
L 502.766834 -68.604842 
L 500.259928 -68.726695 
L 497.753023 -68.745884 
L 495.246118 -68.652119 
L 492.739213 -68.442041 
L 490.232307 -68.118995 
L 487.725402 -67.692371 
L 485.218497 -67.176585 
L 482.711591 -66.589794 
L 480.204686 -65.952465 
L 477.697781 -65.285913 
L 475.190875 -64.610938 
L 472.68397 -63.946646 
L 470.177065 -63.309541 
L 467.67016 -62.712913 
L 465.163254 -62.16654 
L 462.656349 -61.67668 
L 460.149444 -61.246296 
L 457.642538 -60.875479 
L 455.135633 -60.56197 
L 452.628728 -60.30175 
L 450.121822 -60.089614 
L 447.614917 -59.919701 
L 445.108012 -59.785947 
L 442.601107 -59.682443 
L 440.094201 -59.603685 
L 437.587296 -59.544749 
L 435.080391 -59.501367 
z
" style="stroke: #4c72b0"/>
    </defs>
    <g clip-path="url(#p286740ac82)">
     <use xlink:href="#m13d2d93e3a" x="0" y="540" style="fill: #4c72b0; fill-opacity: 0.25; stroke: #4c72b0"/>
    </g>
   </g>
   <g id="line2d_36">
    <path d="M 337.309599 480.6 
L 337.309599 64.8 
" clip-path="url(#p286740ac82)" style="fill: none; stroke-dasharray: 2.96,1.28; stroke-dashoffset: 0; stroke: #d3d3d3; stroke-width: 0.8"/>
   </g>
   <g id="line2d_37">
    <path d="M 560.862945 480.6 
L 560.862945 64.8 
" clip-path="url(#p286740ac82)" style="fill: none; stroke-dasharray: 2.96,1.28; stroke-dashoffset: 0; stroke: #d3d3d3; stroke-width: 0.8"/>
   </g>
   <g id="line2d_38">
    <path d="M 474.665461 480.6 
L 474.665461 64.8 
" clip-path="url(#p286740ac82)" style="fill: none; stroke-dasharray: 2.96,1.28; stroke-dashoffset: 0; stroke: #d3d3d3; stroke-width: 0.8"/>
   </g>
   <g id="text_12">
    <!-- International Poverty Line: $2.15 -->
    <g style="fill: #808080" transform="translate(343.563349 184.13675) rotate(-90) scale(0.08 -0.08)">
     <defs>
      <path id="ArialMT-6c" d="M 409 0 
L 409 4581 
L 972 4581 
L 972 0 
L 409 0 
z
" transform="scale(0.015625)"/>
      <path id="ArialMT-50" d="M 494 0 
L 494 4581 
L 2222 4581 
Q 2678 4581 2919 4538 
Q 3256 4481 3484 4323 
Q 3713 4166 3852 3881 
Q 3991 3597 3991 3256 
Q 3991 2672 3619 2267 
Q 3247 1863 2275 1863 
L 1100 1863 
L 1100 0 
L 494 0 
z
M 1100 2403 
L 2284 2403 
Q 2872 2403 3119 2622 
Q 3366 2841 3366 3238 
Q 3366 3525 3220 3729 
Q 3075 3934 2838 4000 
Q 2684 4041 2272 4041 
L 1100 4041 
L 1100 2403 
z
" transform="scale(0.015625)"/>
      <path id="ArialMT-76" d="M 1344 0 
L 81 3319 
L 675 3319 
L 1388 1331 
Q 1503 1009 1600 663 
Q 1675 925 1809 1294 
L 2547 3319 
L 3125 3319 
L 1869 0 
L 1344 0 
z
" transform="scale(0.015625)"/>
      <path id="ArialMT-4c" d="M 469 0 
L 469 4581 
L 1075 4581 
L 1075 541 
L 3331 541 
L 3331 0 
L 469 0 
z
" transform="scale(0.015625)"/>
      <path id="ArialMT-3a" d="M 578 2678 
L 578 3319 
L 1219 3319 
L 1219 2678 
L 578 2678 
z
M 578 0 
L 578 641 
L 1219 641 
L 1219 0 
L 578 0 
z
" transform="scale(0.015625)"/>
      <path id="ArialMT-24" d="M 1594 -659 
L 1594 -97 
Q 1172 -44 908 92 
Q 644 228 451 531 
Q 259 834 228 1272 
L 794 1378 
Q 859 925 1025 713 
Q 1263 413 1594 378 
L 1594 2169 
Q 1247 2234 884 2438 
Q 616 2588 470 2853 
Q 325 3119 325 3456 
Q 325 4056 750 4428 
Q 1034 4678 1594 4734 
L 1594 5003 
L 1925 5003 
L 1925 4734 
Q 2416 4688 2703 4447 
Q 3072 4141 3147 3606 
L 2566 3519 
Q 2516 3850 2358 4026 
Q 2200 4203 1925 4259 
L 1925 2638 
Q 2350 2531 2488 2472 
Q 2750 2356 2915 2190 
Q 3081 2025 3170 1797 
Q 3259 1569 3259 1303 
Q 3259 719 2887 328 
Q 2516 -63 1925 -91 
L 1925 -659 
L 1594 -659 
z
M 1594 4266 
Q 1266 4216 1077 4003 
Q 888 3791 888 3500 
Q 888 3213 1048 3019 
Q 1209 2825 1594 2709 
L 1594 4266 
z
M 1925 378 
Q 2253 419 2467 662 
Q 2681 906 2681 1266 
Q 2681 1572 2529 1758 
Q 2378 1944 1925 2091 
L 1925 378 
z
" transform="scale(0.015625)"/>
      <path id="ArialMT-2e" d="M 581 0 
L 581 641 
L 1222 641 
L 1222 0 
L 581 0 
z
" transform="scale(0.015625)"/>
     </defs>
     <use xlink:href="#ArialMT-49"/>
     <use xlink:href="#ArialMT-6e" transform="translate(27.783203 0)"/>
     <use xlink:href="#ArialMT-74" transform="translate(83.398438 0)"/>
     <use xlink:href="#ArialMT-65" transform="translate(111.181641 0)"/>
     <use xlink:href="#ArialMT-72" transform="translate(166.796875 0)"/>
     <use xlink:href="#ArialMT-6e" transform="translate(200.097656 0)"/>
     <use xlink:href="#ArialMT-61" transform="translate(255.712891 0)"/>
     <use xlink:href="#ArialMT-74" transform="translate(311.328125 0)"/>
     <use xlink:href="#ArialMT-69" transform="translate(339.111328 0)"/>
     <use xlink:href="#ArialMT-6f" transform="translate(361.328125 0)"/>
     <use xlink:href="#ArialMT-6e" transform="translate(416.943359 0)"/>
     <use xlink:href="#ArialMT-61" transform="translate(472.558594 0)"/>
     <use xlink:href="#ArialMT-6c" transform="translate(528.173828 0)"/>
     <use xlink:href="#ArialMT-20" transform="translate(550.390625 0)"/>
     <use xlink:href="#ArialMT-50" transform="translate(578.173828 0)"/>
     <use xlink:href="#ArialMT-6f" transform="translate(644.873047 0)"/>
     <use xlink:href="#ArialMT-76" transform="translate(700.488281 0)"/>
     <use xlink:href="#ArialMT-65" transform="translate(750.488281 0)"/>
     <use xlink:href="#ArialMT-72" transform="translate(806.103516 0)"/>
     <use xlink:href="#ArialMT-74" transform="translate(839.404297 0)"/>
     <use xlink:href="#ArialMT-79" transform="translate(867.1875 0)"/>
     <use xlink:href="#ArialMT-20" transform="translate(917.1875 0)"/>
     <use xlink:href="#ArialMT-4c" transform="translate(944.970703 0)"/>
     <use xlink:href="#ArialMT-69" transform="translate(1000.585938 0)"/>
     <use xlink:href="#ArialMT-6e" transform="translate(1022.802734 0)"/>
     <use xlink:href="#ArialMT-65" transform="translate(1078.417969 0)"/>
     <use xlink:href="#ArialMT-3a" transform="translate(1134.033203 0)"/>
     <use xlink:href="#ArialMT-20" transform="translate(1161.816406 0)"/>
     <use xlink:href="#ArialMT-24" transform="translate(1189.599609 0)"/>
     <use xlink:href="#ArialMT-32" transform="translate(1245.214844 0)"/>
     <use xlink:href="#ArialMT-2e" transform="translate(1300.830078 0)"/>
     <use xlink:href="#ArialMT-31" transform="translate(1328.613281 0)"/>
     <use xlink:href="#ArialMT-35" transform="translate(1384.228516 0)"/>
    </g>
   </g>
   <g id="text_13">
    <!-- World mean: $19.18 -->
    <g style="fill: #808080" transform="translate(566.589195 140.85175) rotate(-90) scale(0.08 -0.08)">
     <defs>
      <path id="ArialMT-57" d="M 1294 0 
L 78 4581 
L 700 4581 
L 1397 1578 
Q 1509 1106 1591 641 
Q 1766 1375 1797 1488 
L 2669 4581 
L 3400 4581 
L 4056 2263 
Q 4303 1400 4413 641 
Q 4500 1075 4641 1638 
L 5359 4581 
L 5969 4581 
L 4713 0 
L 4128 0 
L 3163 3491 
Q 3041 3928 3019 4028 
Q 2947 3713 2884 3491 
L 1913 0 
L 1294 0 
z
" transform="scale(0.015625)"/>
      <path id="ArialMT-39" d="M 350 1059 
L 891 1109 
Q 959 728 1153 556 
Q 1347 384 1650 384 
Q 1909 384 2104 503 
Q 2300 622 2425 820 
Q 2550 1019 2634 1356 
Q 2719 1694 2719 2044 
Q 2719 2081 2716 2156 
Q 2547 1888 2255 1720 
Q 1963 1553 1622 1553 
Q 1053 1553 659 1965 
Q 266 2378 266 3053 
Q 266 3750 677 4175 
Q 1088 4600 1706 4600 
Q 2153 4600 2523 4359 
Q 2894 4119 3086 3673 
Q 3278 3228 3278 2384 
Q 3278 1506 3087 986 
Q 2897 466 2520 194 
Q 2144 -78 1638 -78 
Q 1100 -78 759 220 
Q 419 519 350 1059 
z
M 2653 3081 
Q 2653 3566 2395 3850 
Q 2138 4134 1775 4134 
Q 1400 4134 1122 3828 
Q 844 3522 844 3034 
Q 844 2597 1108 2323 
Q 1372 2050 1759 2050 
Q 2150 2050 2401 2323 
Q 2653 2597 2653 3081 
z
" transform="scale(0.015625)"/>
      <path id="ArialMT-38" d="M 1131 2484 
Q 781 2613 612 2850 
Q 444 3088 444 3419 
Q 444 3919 803 4259 
Q 1163 4600 1759 4600 
Q 2359 4600 2725 4251 
Q 3091 3903 3091 3403 
Q 3091 3084 2923 2848 
Q 2756 2613 2416 2484 
Q 2838 2347 3058 2040 
Q 3278 1734 3278 1309 
Q 3278 722 2862 322 
Q 2447 -78 1769 -78 
Q 1091 -78 675 323 
Q 259 725 259 1325 
Q 259 1772 486 2073 
Q 713 2375 1131 2484 
z
M 1019 3438 
Q 1019 3113 1228 2906 
Q 1438 2700 1772 2700 
Q 2097 2700 2305 2904 
Q 2513 3109 2513 3406 
Q 2513 3716 2298 3927 
Q 2084 4138 1766 4138 
Q 1444 4138 1231 3931 
Q 1019 3725 1019 3438 
z
M 838 1322 
Q 838 1081 952 856 
Q 1066 631 1291 507 
Q 1516 384 1775 384 
Q 2178 384 2440 643 
Q 2703 903 2703 1303 
Q 2703 1709 2433 1975 
Q 2163 2241 1756 2241 
Q 1359 2241 1098 1978 
Q 838 1716 838 1322 
z
" transform="scale(0.015625)"/>
     </defs>
     <use xlink:href="#ArialMT-57"/>
     <use xlink:href="#ArialMT-6f" transform="translate(92.634766 0)"/>
     <use xlink:href="#ArialMT-72" transform="translate(148.25 0)"/>
     <use xlink:href="#ArialMT-6c" transform="translate(181.550781 0)"/>
     <use xlink:href="#ArialMT-64" transform="translate(203.767578 0)"/>
     <use xlink:href="#ArialMT-20" transform="translate(259.382812 0)"/>
     <use xlink:href="#ArialMT-6d" transform="translate(287.166016 0)"/>
     <use xlink:href="#ArialMT-65" transform="translate(370.466797 0)"/>
     <use xlink:href="#ArialMT-61" transform="translate(426.082031 0)"/>
     <use xlink:href="#ArialMT-6e" transform="translate(481.697266 0)"/>
     <use xlink:href="#ArialMT-3a" transform="translate(537.3125 0)"/>
     <use xlink:href="#ArialMT-20" transform="translate(565.095703 0)"/>
     <use xlink:href="#ArialMT-24" transform="translate(592.878906 0)"/>
     <use xlink:href="#ArialMT-31" transform="translate(648.494141 0)"/>
     <use xlink:href="#ArialMT-39" transform="translate(704.109375 0)"/>
     <use xlink:href="#ArialMT-2e" transform="translate(759.724609 0)"/>
     <use xlink:href="#ArialMT-31" transform="translate(787.507812 0)"/>
     <use xlink:href="#ArialMT-38" transform="translate(843.123047 0)"/>
    </g>
   </g>
   <g id="text_14">
    <!-- World median: $8.25 -->
    <g style="fill: #808080" transform="translate(480.391711 142.62925) rotate(-90) scale(0.08 -0.08)">
     <use xlink:href="#ArialMT-57"/>
     <use xlink:href="#ArialMT-6f" transform="translate(92.634766 0)"/>
     <use xlink:href="#ArialMT-72" transform="translate(148.25 0)"/>
     <use xlink:href="#ArialMT-6c" transform="translate(181.550781 0)"/>
     <use xlink:href="#ArialMT-64" transform="translate(203.767578 0)"/>
     <use xlink:href="#ArialMT-20" transform="translate(259.382812 0)"/>
     <use xlink:href="#ArialMT-6d" transform="translate(287.166016 0)"/>
     <use xlink:href="#ArialMT-65" transform="translate(370.466797 0)"/>
     <use xlink:href="#ArialMT-64" transform="translate(426.082031 0)"/>
     <use xlink:href="#ArialMT-69" transform="translate(481.697266 0)"/>
     <use xlink:href="#ArialMT-61" transform="translate(503.914062 0)"/>
     <use xlink:href="#ArialMT-6e" transform="translate(559.529297 0)"/>
     <use xlink:href="#ArialMT-3a" transform="translate(615.144531 0)"/>
     <use xlink:href="#ArialMT-20" transform="translate(642.927734 0)"/>
     <use xlink:href="#ArialMT-24" transform="translate(670.710938 0)"/>
     <use xlink:href="#ArialMT-38" transform="translate(726.326172 0)"/>
     <use xlink:href="#ArialMT-2e" transform="translate(781.941406 0)"/>
     <use xlink:href="#ArialMT-32" transform="translate(809.724609 0)"/>
     <use xlink:href="#ArialMT-35" transform="translate(865.339844 0)"/>
    </g>
   </g>
   <g id="text_15">
    <!-- Denmark (2021) -->
    <g transform="translate(649.475167 478.495313) scale(0.1 -0.1)">
     <defs>
      <path id="ArialMT-44" d="M 494 0 
L 494 4581 
L 2072 4581 
Q 2606 4581 2888 4516 
Q 3281 4425 3559 4188 
Q 3922 3881 4101 3404 
Q 4281 2928 4281 2316 
Q 4281 1794 4159 1391 
Q 4038 988 3847 723 
Q 3656 459 3429 307 
Q 3203 156 2883 78 
Q 2563 0 2147 0 
L 494 0 
z
M 1100 541 
L 2078 541 
Q 2531 541 2789 625 
Q 3047 709 3200 863 
Q 3416 1078 3536 1442 
Q 3656 1806 3656 2325 
Q 3656 3044 3420 3430 
Q 3184 3816 2847 3947 
Q 2603 4041 2063 4041 
L 1100 4041 
L 1100 541 
z
" transform="scale(0.015625)"/>
      <path id="ArialMT-6b" d="M 425 0 
L 425 4581 
L 988 4581 
L 988 1969 
L 2319 3319 
L 3047 3319 
L 1778 2088 
L 3175 0 
L 2481 0 
L 1384 1697 
L 988 1316 
L 988 0 
L 425 0 
z
" transform="scale(0.015625)"/>
     </defs>
     <use xlink:href="#ArialMT-44"/>
     <use xlink:href="#ArialMT-65" transform="translate(72.216797 0)"/>
     <use xlink:href="#ArialMT-6e" transform="translate(127.832031 0)"/>
     <use xlink:href="#ArialMT-6d" transform="translate(183.447266 0)"/>
     <use xlink:href="#ArialMT-61" transform="translate(266.748047 0)"/>
     <use xlink:href="#ArialMT-72" transform="translate(322.363281 0)"/>
     <use xlink:href="#ArialMT-6b" transform="translate(355.664062 0)"/>
     <use xlink:href="#ArialMT-20" transform="translate(405.664062 0)"/>
     <use xlink:href="#ArialMT-28" transform="translate(433.447266 0)"/>
     <use xlink:href="#ArialMT-32" transform="translate(466.748047 0)"/>
     <use xlink:href="#ArialMT-30" transform="translate(522.363281 0)"/>
     <use xlink:href="#ArialMT-32" transform="translate(577.978516 0)"/>
     <use xlink:href="#ArialMT-31" transform="translate(633.59375 0)"/>
     <use xlink:href="#ArialMT-29" transform="translate(689.208984 0)"/>
    </g>
   </g>
   <g id="text_16">
    <!-- Syria (2022) -->
    <g transform="translate(347.171955 478.495313) scale(0.1 -0.1)">
     <defs>
      <path id="ArialMT-53" d="M 288 1472 
L 859 1522 
Q 900 1178 1048 958 
Q 1197 738 1509 602 
Q 1822 466 2213 466 
Q 2559 466 2825 569 
Q 3091 672 3220 851 
Q 3350 1031 3350 1244 
Q 3350 1459 3225 1620 
Q 3100 1781 2813 1891 
Q 2628 1963 1997 2114 
Q 1366 2266 1113 2400 
Q 784 2572 623 2826 
Q 463 3081 463 3397 
Q 463 3744 659 4045 
Q 856 4347 1234 4503 
Q 1613 4659 2075 4659 
Q 2584 4659 2973 4495 
Q 3363 4331 3572 4012 
Q 3781 3694 3797 3291 
L 3216 3247 
Q 3169 3681 2898 3903 
Q 2628 4125 2100 4125 
Q 1550 4125 1298 3923 
Q 1047 3722 1047 3438 
Q 1047 3191 1225 3031 
Q 1400 2872 2139 2705 
Q 2878 2538 3153 2413 
Q 3553 2228 3743 1945 
Q 3934 1663 3934 1294 
Q 3934 928 3725 604 
Q 3516 281 3123 101 
Q 2731 -78 2241 -78 
Q 1619 -78 1198 103 
Q 778 284 539 648 
Q 300 1013 288 1472 
z
" transform="scale(0.015625)"/>
     </defs>
     <use xlink:href="#ArialMT-53"/>
     <use xlink:href="#ArialMT-79" transform="translate(66.699219 0)"/>
     <use xlink:href="#ArialMT-72" transform="translate(116.699219 0)"/>
     <use xlink:href="#ArialMT-69" transform="translate(150 0)"/>
     <use xlink:href="#ArialMT-61" transform="translate(172.216797 0)"/>
     <use xlink:href="#ArialMT-20" transform="translate(227.832031 0)"/>
     <use xlink:href="#ArialMT-28" transform="translate(255.615234 0)"/>
     <use xlink:href="#ArialMT-32" transform="translate(288.916016 0)"/>
     <use xlink:href="#ArialMT-30" transform="translate(344.53125 0)"/>
     <use xlink:href="#ArialMT-32" transform="translate(400.146484 0)"/>
     <use xlink:href="#ArialMT-32" transform="translate(455.761719 0)"/>
     <use xlink:href="#ArialMT-29" transform="translate(511.376953 0)"/>
    </g>
   </g>
  </g>
 </g>
 <defs>
  <clipPath id="p286740ac82">
   <rect x="135" y="64.8" width="837" height="415.8"/>
  </clipPath>
 </defs>
</svg>
