<?xml version="1.0" encoding="utf-8" standalone="no"?>
<!DOCTYPE svg PUBLIC "-//W3C//DTD SVG 1.1//EN"
  "http://www.w3.org/Graphics/SVG/1.1/DTD/svg11.dtd">
<svg xmlns:xlink="http://www.w3.org/1999/xlink" width="851.4pt" height="265.689687pt" viewBox="0 0 851.4 265.689687" xmlns="http://www.w3.org/2000/svg" version="1.1">
 <metadata>
  <rdf:RDF xmlns:dc="http://purl.org/dc/elements/1.1/" xmlns:cc="http://creativecommons.org/ns#" xmlns:rdf="http://www.w3.org/1999/02/22-rdf-syntax-ns#">
   <cc:Work>
    <dc:type rdf:resource="http://purl.org/dc/dcmitype/StillImage"/>
    <dc:date>2025-07-25T10:50:03.265798</dc:date>
    <dc:format>image/svg+xml</dc:format>
    <dc:creator>
     <cc:Agent>
      <dc:title>Matplotlib v3.10.1, https://matplotlib.org/</dc:title>
     </cc:Agent>
    </dc:creator>
   </cc:Work>
  </rdf:RDF>
 </metadata>
 <defs>
  <style type="text/css">*{stroke-linejoin: round; stroke-linecap: butt}</style>
 </defs>
 <g id="figure_1">
  <g id="patch_1">
   <path d="M 0 265.689687 
L 851.4 265.689687 
L 851.4 0 
L 0 0 
z
" style="fill: #ffffff"/>
  </g>
  <g id="axes_1">
   <g id="patch_2">
    <path d="M 7.2 228.96 
L 844.2 228.96 
L 844.2 7.2 
L 7.2 7.2 
z
" style="fill: #ffffff"/>
   </g>
   <g id="matplotlib.axis_1">
    <g id="xtick_1">
     <g id="line2d_1">
      <defs>
       <path id="mcf63a716fa" d="M 0 0 
L 0 3.5 
" style="stroke: #262626; stroke-width: 0.8"/>
      </defs>
      <g>
       <use xlink:href="#mcf63a716fa" x="83.859242" y="228.96" style="fill: #262626; stroke: #262626; stroke-width: 0.8"/>
      </g>
     </g>
     <g id="text_1">
      <text style="font-size: 10px; font-family: 'Arial', 'DejaVu Sans', 'Liberation Sans', 'Bitstream Vera Sans', sans-serif; text-anchor: middle; fill: #262626" x="83.859242" y="243.117812" transform="rotate(-0 83.859242 243.117812)">1</text>
     </g>
    </g>
    <g id="xtick_2">
     <g id="line2d_2">
      <g>
       <use xlink:href="#mcf63a716fa" x="156.416346" y="228.96" style="fill: #262626; stroke: #262626; stroke-width: 0.8"/>
      </g>
     </g>
     <g id="text_2">
      <text style="font-size: 10px; font-family: 'Arial', 'DejaVu Sans', 'Liberation Sans', 'Bitstream Vera Sans', sans-serif; text-anchor: middle; fill: #262626" x="156.416346" y="243.117812" transform="rotate(-0 156.416346 243.117812)">2</text>
     </g>
    </g>
    <g id="xtick_3">
     <g id="line2d_3">
      <g>
       <use xlink:href="#mcf63a716fa" x="252.331619" y="228.96" style="fill: #262626; stroke: #262626; stroke-width: 0.8"/>
      </g>
     </g>
     <g id="text_3">
      <text style="font-size: 10px; font-family: 'Arial', 'DejaVu Sans', 'Liberation Sans', 'Bitstream Vera Sans', sans-serif; text-anchor: middle; fill: #262626" x="252.331619" y="243.117812" transform="rotate(-0 252.331619 243.117812)">5</text>
     </g>
    </g>
    <g id="xtick_4">
     <g id="line2d_4">
      <g>
       <use xlink:href="#mcf63a716fa" x="324.888723" y="228.96" style="fill: #262626; stroke: #262626; stroke-width: 0.8"/>
      </g>
     </g>
     <g id="text_4">
      <text style="font-size: 10px; font-family: 'Arial', 'DejaVu Sans', 'Liberation Sans', 'Bitstream Vera Sans', sans-serif; text-anchor: middle; fill: #262626" x="324.888723" y="243.117812" transform="rotate(-0 324.888723 243.117812)">10</text>
     </g>
    </g>
    <g id="xtick_5">
     <g id="line2d_5">
      <g>
       <use xlink:href="#mcf63a716fa" x="397.445827" y="228.96" style="fill: #262626; stroke: #262626; stroke-width: 0.8"/>
      </g>
     </g>
     <g id="text_5">
      <text style="font-size: 10px; font-family: 'Arial', 'DejaVu Sans', 'Liberation Sans', 'Bitstream Vera Sans', sans-serif; text-anchor: middle; fill: #262626" x="397.445827" y="243.117812" transform="rotate(-0 397.445827 243.117812)">20</text>
     </g>
    </g>
    <g id="xtick_6">
     <g id="line2d_6">
      <g>
       <use xlink:href="#mcf63a716fa" x="493.3611" y="228.96" style="fill: #262626; stroke: #262626; stroke-width: 0.8"/>
      </g>
     </g>
     <g id="text_6">
      <text style="font-size: 10px; font-family: 'Arial', 'DejaVu Sans', 'Liberation Sans', 'Bitstream Vera Sans', sans-serif; text-anchor: middle; fill: #262626" x="493.3611" y="243.117812" transform="rotate(-0 493.3611 243.117812)">50</text>
     </g>
    </g>
    <g id="xtick_7">
     <g id="line2d_7">
      <g>
       <use xlink:href="#mcf63a716fa" x="565.918204" y="228.96" style="fill: #262626; stroke: #262626; stroke-width: 0.8"/>
      </g>
     </g>
     <g id="text_7">
      <text style="font-size: 10px; font-family: 'Arial', 'DejaVu Sans', 'Liberation Sans', 'Bitstream Vera Sans', sans-serif; text-anchor: middle; fill: #262626" x="565.918204" y="243.117812" transform="rotate(-0 565.918204 243.117812)">100</text>
     </g>
    </g>
    <g id="xtick_8">
     <g id="line2d_8">
      <g>
       <use xlink:href="#mcf63a716fa" x="638.475307" y="228.96" style="fill: #262626; stroke: #262626; stroke-width: 0.8"/>
      </g>
     </g>
     <g id="text_8">
      <text style="font-size: 10px; font-family: 'Arial', 'DejaVu Sans', 'Liberation Sans', 'Bitstream Vera Sans', sans-serif; text-anchor: middle; fill: #262626" x="638.475307" y="243.117812" transform="rotate(-0 638.475307 243.117812)">200</text>
     </g>
    </g>
    <g id="xtick_9">
     <g id="line2d_9">
      <g>
       <use xlink:href="#mcf63a716fa" x="734.390581" y="228.96" style="fill: #262626; stroke: #262626; stroke-width: 0.8"/>
      </g>
     </g>
     <g id="text_9">
      <text style="font-size: 10px; font-family: 'Arial', 'DejaVu Sans', 'Liberation Sans', 'Bitstream Vera Sans', sans-serif; text-anchor: middle; fill: #262626" x="734.390581" y="243.117812" transform="rotate(-0 734.390581 243.117812)">500</text>
     </g>
    </g>
    <g id="xtick_10">
     <g id="line2d_10">
      <g>
       <use xlink:href="#mcf63a716fa" x="806.947685" y="228.96" style="fill: #262626; stroke: #262626; stroke-width: 0.8"/>
      </g>
     </g>
     <g id="text_10">
      <text style="font-size: 10px; font-family: 'Arial', 'DejaVu Sans', 'Liberation Sans', 'Bitstream Vera Sans', sans-serif; text-anchor: middle; fill: #262626" x="806.947685" y="243.117812" transform="rotate(-0 806.947685 243.117812)">1000</text>
     </g>
    </g>
    <g id="xtick_11">
     <g id="line2d_11">
      <defs>
       <path id="m006264e6a9" d="M 0 0 
L 0 2 
" style="stroke: #262626; stroke-width: 0.6"/>
      </defs>
      <g>
       <use xlink:href="#m006264e6a9" x="11.302139" y="228.96" style="fill: #262626; stroke: #262626; stroke-width: 0.6"/>
      </g>
     </g>
    </g>
    <g id="xtick_12">
     <g id="line2d_12">
      <g>
       <use xlink:href="#m006264e6a9" x="30.387153" y="228.96" style="fill: #262626; stroke: #262626; stroke-width: 0.6"/>
      </g>
     </g>
    </g>
    <g id="xtick_13">
     <g id="line2d_13">
      <g>
       <use xlink:href="#m006264e6a9" x="46.523303" y="228.96" style="fill: #262626; stroke: #262626; stroke-width: 0.6"/>
      </g>
     </g>
    </g>
    <g id="xtick_14">
     <g id="line2d_14">
      <g>
       <use xlink:href="#m006264e6a9" x="60.501072" y="228.96" style="fill: #262626; stroke: #262626; stroke-width: 0.6"/>
      </g>
     </g>
    </g>
    <g id="xtick_15">
     <g id="line2d_15">
      <g>
       <use xlink:href="#m006264e6a9" x="72.830338" y="228.96" style="fill: #262626; stroke: #262626; stroke-width: 0.6"/>
      </g>
     </g>
    </g>
    <g id="xtick_16">
     <g id="line2d_16">
      <g>
       <use xlink:href="#m006264e6a9" x="198.859531" y="228.96" style="fill: #262626; stroke: #262626; stroke-width: 0.6"/>
      </g>
     </g>
    </g>
    <g id="xtick_17">
     <g id="line2d_17">
      <g>
       <use xlink:href="#m006264e6a9" x="228.973449" y="228.96" style="fill: #262626; stroke: #262626; stroke-width: 0.6"/>
      </g>
     </g>
    </g>
    <g id="xtick_18">
     <g id="line2d_18">
      <g>
       <use xlink:href="#m006264e6a9" x="271.416634" y="228.96" style="fill: #262626; stroke: #262626; stroke-width: 0.6"/>
      </g>
     </g>
    </g>
    <g id="xtick_19">
     <g id="line2d_19">
      <g>
       <use xlink:href="#m006264e6a9" x="287.552784" y="228.96" style="fill: #262626; stroke: #262626; stroke-width: 0.6"/>
      </g>
     </g>
    </g>
    <g id="xtick_20">
     <g id="line2d_20">
      <g>
       <use xlink:href="#m006264e6a9" x="301.530553" y="228.96" style="fill: #262626; stroke: #262626; stroke-width: 0.6"/>
      </g>
     </g>
    </g>
    <g id="xtick_21">
     <g id="line2d_21">
      <g>
       <use xlink:href="#m006264e6a9" x="313.859819" y="228.96" style="fill: #262626; stroke: #262626; stroke-width: 0.6"/>
      </g>
     </g>
    </g>
    <g id="xtick_22">
     <g id="line2d_22">
      <g>
       <use xlink:href="#m006264e6a9" x="439.889011" y="228.96" style="fill: #262626; stroke: #262626; stroke-width: 0.6"/>
      </g>
     </g>
    </g>
    <g id="xtick_23">
     <g id="line2d_23">
      <g>
       <use xlink:href="#m006264e6a9" x="470.00293" y="228.96" style="fill: #262626; stroke: #262626; stroke-width: 0.6"/>
      </g>
     </g>
    </g>
    <g id="xtick_24">
     <g id="line2d_24">
      <g>
       <use xlink:href="#m006264e6a9" x="512.446115" y="228.96" style="fill: #262626; stroke: #262626; stroke-width: 0.6"/>
      </g>
     </g>
    </g>
    <g id="xtick_25">
     <g id="line2d_25">
      <g>
       <use xlink:href="#m006264e6a9" x="528.582265" y="228.96" style="fill: #262626; stroke: #262626; stroke-width: 0.6"/>
      </g>
     </g>
    </g>
    <g id="xtick_26">
     <g id="line2d_26">
      <g>
       <use xlink:href="#m006264e6a9" x="542.560034" y="228.96" style="fill: #262626; stroke: #262626; stroke-width: 0.6"/>
      </g>
     </g>
    </g>
    <g id="xtick_27">
     <g id="line2d_27">
      <g>
       <use xlink:href="#m006264e6a9" x="554.8893" y="228.96" style="fill: #262626; stroke: #262626; stroke-width: 0.6"/>
      </g>
     </g>
    </g>
    <g id="xtick_28">
     <g id="line2d_28">
      <g>
       <use xlink:href="#m006264e6a9" x="680.918492" y="228.96" style="fill: #262626; stroke: #262626; stroke-width: 0.6"/>
      </g>
     </g>
    </g>
    <g id="xtick_29">
     <g id="line2d_29">
      <g>
       <use xlink:href="#m006264e6a9" x="711.032411" y="228.96" style="fill: #262626; stroke: #262626; stroke-width: 0.6"/>
      </g>
     </g>
    </g>
    <g id="xtick_30">
     <g id="line2d_30">
      <g>
       <use xlink:href="#m006264e6a9" x="753.475596" y="228.96" style="fill: #262626; stroke: #262626; stroke-width: 0.6"/>
      </g>
     </g>
    </g>
    <g id="xtick_31">
     <g id="line2d_31">
      <g>
       <use xlink:href="#m006264e6a9" x="769.611746" y="228.96" style="fill: #262626; stroke: #262626; stroke-width: 0.6"/>
      </g>
     </g>
    </g>
    <g id="xtick_32">
     <g id="line2d_32">
      <g>
       <use xlink:href="#m006264e6a9" x="783.589515" y="228.96" style="fill: #262626; stroke: #262626; stroke-width: 0.6"/>
      </g>
     </g>
    </g>
    <g id="xtick_33">
     <g id="line2d_33">
      <g>
       <use xlink:href="#m006264e6a9" x="795.91878" y="228.96" style="fill: #262626; stroke: #262626; stroke-width: 0.6"/>
      </g>
     </g>
    </g>
    <g id="text_11">
     <text style="font-size: 10px; font-family: 'Arial', 'DejaVu Sans', 'Liberation Sans', 'Bitstream Vera Sans', sans-serif; text-anchor: middle; fill: #262626" x="425.7" y="256.385" transform="rotate(-0 425.7 256.385)">Income or consumption (day)</text>
    </g>
   </g>
   <g id="matplotlib.axis_2"/>
   <g id="FillBetweenPolyCollection_1">
    <defs>
     <path id="m23221c85c5" d="M 45.245455 -36.789479 
L 45.245455 -36.729688 
L 47.204716 -36.729688 
L 49.163978 -36.729688 
L 51.12324 -36.729688 
L 53.082502 -36.729688 
L 55.041764 -36.729688 
L 57.001026 -36.729688 
L 58.960288 -36.729688 
L 60.919549 -36.729688 
L 62.878811 -36.729688 
L 64.838073 -36.729688 
L 66.797335 -36.729688 
L 68.756597 -36.729688 
L 70.715859 -36.729688 
L 72.67512 -36.729688 
L 74.634382 -36.729688 
L 76.593644 -36.729688 
L 78.552906 -36.729688 
L 80.512168 -36.729688 
L 82.47143 -36.729688 
L 84.430692 -36.729688 
L 86.389953 -36.729688 
L 88.349215 -36.729688 
L 90.308477 -36.729688 
L 92.267739 -36.729688 
L 94.227001 -36.729688 
L 96.186263 -36.729688 
L 98.145525 -36.729688 
L 100.104786 -36.729688 
L 102.064048 -36.729688 
L 104.02331 -36.729688 
L 105.982572 -36.729688 
L 107.941834 -36.729688 
L 109.901096 -36.729688 
L 111.860357 -36.729688 
L 113.819619 -36.729688 
L 115.778881 -36.729688 
L 117.738143 -36.729688 
L 119.697405 -36.729688 
L 121.656667 -36.729688 
L 123.615929 -36.729688 
L 125.57519 -36.729688 
L 127.534452 -36.729688 
L 129.493714 -36.729688 
L 131.452976 -36.729688 
L 133.412238 -36.729688 
L 135.3715 -36.729688 
L 137.330762 -36.729688 
L 139.290023 -36.729688 
L 141.249285 -36.729688 
L 143.208547 -36.729688 
L 145.167809 -36.729688 
L 147.127071 -36.729688 
L 149.086333 -36.729688 
L 151.045594 -36.729688 
L 153.004856 -36.729688 
L 154.964118 -36.729688 
L 156.92338 -36.729688 
L 158.882642 -36.729688 
L 160.841904 -36.729688 
L 162.801166 -36.729688 
L 164.760427 -36.729688 
L 166.719689 -36.729688 
L 168.678951 -36.729688 
L 170.638213 -36.729688 
L 172.597475 -36.729688 
L 174.556737 -36.729688 
L 176.515999 -36.729688 
L 178.47526 -36.729688 
L 180.434522 -36.729688 
L 182.393784 -36.729688 
L 184.353046 -36.729688 
L 186.312308 -36.729688 
L 188.27157 -36.729688 
L 190.230831 -36.729688 
L 192.190093 -36.729688 
L 194.149355 -36.729688 
L 196.108617 -36.729688 
L 198.067879 -36.729688 
L 200.027141 -36.729688 
L 201.986403 -36.729688 
L 203.945664 -36.729688 
L 205.904926 -36.729688 
L 207.864188 -36.729688 
L 209.82345 -36.729688 
L 211.782712 -36.729688 
L 213.741974 -36.729688 
L 215.701236 -36.729688 
L 217.660497 -36.729688 
L 219.619759 -36.729688 
L 221.579021 -36.729688 
L 223.538283 -36.729688 
L 225.497545 -36.729688 
L 227.456807 -36.729688 
L 229.416069 -36.729688 
L 231.37533 -36.729688 
L 233.334592 -36.729688 
L 235.293854 -36.729688 
L 237.253116 -36.729688 
L 239.212378 -36.729688 
L 241.17164 -36.729688 
L 243.130901 -36.729688 
L 245.090163 -36.729688 
L 247.049425 -36.729688 
L 249.008687 -36.729688 
L 250.967949 -36.729688 
L 252.927211 -36.729688 
L 254.886473 -36.729688 
L 256.845734 -36.729688 
L 258.804996 -36.729688 
L 260.764258 -36.729688 
L 262.72352 -36.729688 
L 264.682782 -36.729688 
L 266.642044 -36.729688 
L 268.601306 -36.729688 
L 270.560567 -36.729688 
L 272.519829 -36.729688 
L 274.479091 -36.729688 
L 276.438353 -36.729688 
L 278.397615 -36.729688 
L 280.356877 -36.729688 
L 282.316138 -36.729688 
L 284.2754 -36.729688 
L 286.234662 -36.729688 
L 288.193924 -36.729688 
L 290.153186 -36.729688 
L 292.112448 -36.729688 
L 294.07171 -36.729688 
L 296.030971 -36.729688 
L 297.990233 -36.729688 
L 299.949495 -36.729688 
L 301.908757 -36.729688 
L 303.868019 -36.729688 
L 305.827281 -36.729688 
L 307.786543 -36.729688 
L 309.745804 -36.729688 
L 311.705066 -36.729688 
L 313.664328 -36.729688 
L 315.62359 -36.729688 
L 317.582852 -36.729688 
L 319.542114 -36.729688 
L 321.501375 -36.729688 
L 323.460637 -36.729688 
L 325.419899 -36.729688 
L 327.379161 -36.729688 
L 329.338423 -36.729688 
L 331.297685 -36.729688 
L 333.256947 -36.729688 
L 335.216208 -36.729688 
L 337.17547 -36.729688 
L 339.134732 -36.729688 
L 341.093994 -36.729688 
L 343.053256 -36.729688 
L 345.012518 -36.729688 
L 346.97178 -36.729688 
L 348.931041 -36.729688 
L 350.890303 -36.729688 
L 352.849565 -36.729688 
L 354.808827 -36.729688 
L 356.768089 -36.729688 
L 358.727351 -36.729688 
L 360.686613 -36.729688 
L 362.645874 -36.729688 
L 364.605136 -36.729688 
L 366.564398 -36.729688 
L 368.52366 -36.729688 
L 370.482922 -36.729688 
L 372.442184 -36.729688 
L 374.401445 -36.729688 
L 376.360707 -36.729688 
L 378.319969 -36.729688 
L 380.279231 -36.729688 
L 382.238493 -36.729688 
L 384.197755 -36.729688 
L 386.157017 -36.729688 
L 388.116278 -36.729688 
L 390.07554 -36.729688 
L 392.034802 -36.729688 
L 393.994064 -36.729688 
L 395.953326 -36.729688 
L 397.912588 -36.729688 
L 399.87185 -36.729688 
L 401.831111 -36.729688 
L 403.790373 -36.729688 
L 405.749635 -36.729688 
L 407.708897 -36.729688 
L 409.668159 -36.729688 
L 411.627421 -36.729688 
L 413.586682 -36.729688 
L 415.545944 -36.729688 
L 417.505206 -36.729688 
L 419.464468 -36.729688 
L 421.42373 -36.729688 
L 423.382992 -36.729688 
L 425.342254 -36.729688 
L 427.301515 -36.729688 
L 429.260777 -36.729688 
L 431.220039 -36.729688 
L 433.179301 -36.729688 
L 435.138563 -36.729688 
L 435.138563 -36.794035 
L 435.138563 -36.794035 
L 433.179301 -36.815776 
L 431.220039 -36.843858 
L 429.260777 -36.879788 
L 427.301515 -36.925325 
L 425.342254 -36.982493 
L 423.382992 -37.05359 
L 421.42373 -37.141182 
L 419.464468 -37.24809 
L 417.505206 -37.377362 
L 415.545944 -37.53224 
L 413.586682 -37.716098 
L 411.627421 -37.932383 
L 409.668159 -38.184535 
L 407.708897 -38.475905 
L 405.749635 -38.809665 
L 403.790373 -39.18872 
L 401.831111 -39.615628 
L 399.87185 -40.092533 
L 397.912588 -40.621114 
L 395.953326 -41.202559 
L 393.994064 -41.83757 
L 392.034802 -42.526399 
L 390.07554 -43.268911 
L 388.116278 -44.064688 
L 386.157017 -44.91315 
L 384.197755 -45.813705 
L 382.238493 -46.765907 
L 380.279231 -47.769617 
L 378.319969 -48.825159 
L 376.360707 -49.933452 
L 374.401445 -51.096112 
L 372.442184 -52.315514 
L 370.482922 -53.594809 
L 368.52366 -54.937888 
L 366.564398 -56.349294 
L 364.605136 -57.834085 
L 362.645874 -59.39766 
L 360.686613 -61.045553 
L 358.727351 -62.783205 
L 356.768089 -64.615743 
L 354.808827 -66.547766 
L 352.849565 -68.583161 
L 350.890303 -70.724963 
L 348.931041 -72.975267 
L 346.97178 -75.335192 
L 345.012518 -77.804913 
L 343.053256 -80.383739 
L 341.093994 -83.070245 
L 339.134732 -85.86243 
L 337.17547 -88.757896 
L 335.216208 -91.754025 
L 333.256947 -94.84814 
L 331.297685 -98.037621 
L 329.338423 -101.319986 
L 327.379161 -104.692907 
L 325.419899 -108.154168 
L 323.460637 -111.701574 
L 321.501375 -115.332802 
L 319.542114 -119.045231 
L 317.582852 -122.83575 
L 315.62359 -126.700581 
L 313.664328 -130.63511 
L 311.705066 -134.633783 
L 309.745804 -138.690038 
L 307.786543 -142.796318 
L 305.827281 -146.944133 
L 303.868019 -151.1242 
L 301.908757 -155.326624 
L 299.949495 -159.541108 
L 297.990233 -163.757187 
L 296.030971 -167.964446 
L 294.07171 -172.152707 
L 292.112448 -176.312172 
L 290.153186 -180.433497 
L 288.193924 -184.507792 
L 286.234662 -188.526553 
L 284.2754 -192.481514 
L 282.316138 -196.364447 
L 280.356877 -200.166916 
L 278.397615 -203.880012 
L 276.438353 -207.494089 
L 274.479091 -210.998529 
L 272.519829 -214.381558 
L 270.560567 -217.630124 
L 268.601306 -220.729871 
L 266.642044 -223.665191 
L 264.682782 -226.419386 
L 262.72352 -228.97491 
L 260.764258 -231.313694 
L 258.804996 -233.41754 
L 256.845734 -235.268557 
L 254.886473 -236.849621 
L 252.927211 -238.144835 
L 250.967949 -239.139964 
L 249.008687 -239.822838 
L 247.049425 -240.183677 
L 245.090163 -240.215359 
L 243.130901 -239.913596 
L 241.17164 -239.277027 
L 239.212378 -238.307231 
L 237.253116 -237.008654 
L 235.293854 -235.388471 
L 233.334592 -233.456391 
L 231.37533 -231.224413 
L 229.416069 -228.706559 
L 227.456807 -225.918579 
L 225.497545 -222.877665 
L 223.538283 -219.602161 
L 221.579021 -216.111289 
L 219.619759 -212.4249 
L 217.660497 -208.563238 
L 215.701236 -204.546736 
L 213.741974 -200.395829 
L 211.782712 -196.130789 
L 209.82345 -191.771572 
L 207.864188 -187.337685 
L 205.904926 -182.848051 
L 203.945664 -178.320892 
L 201.986403 -173.773614 
L 200.027141 -169.222691 
L 198.067879 -164.683565 
L 196.108617 -160.170547 
L 194.149355 -155.696738 
L 192.190093 -151.273952 
L 190.230831 -146.912673 
L 188.27157 -142.622018 
L 186.312308 -138.409733 
L 184.353046 -134.282213 
L 182.393784 -130.244548 
L 180.434522 -126.300586 
L 178.47526 -122.453033 
L 176.515999 -118.703565 
L 174.556737 -115.052957 
L 172.597475 -111.501228 
L 170.638213 -108.047796 
L 168.678951 -104.69163 
L 166.719689 -101.431413 
L 164.760427 -98.265684 
L 162.801166 -95.192984 
L 160.841904 -92.211983 
L 158.882642 -89.321584 
L 156.92338 -86.521015 
L 154.964118 -83.809891 
L 153.004856 -81.188253 
L 151.045594 -78.656572 
L 149.086333 -76.215736 
L 147.127071 -73.866992 
L 145.167809 -71.611876 
L 143.208547 -69.4521 
L 141.249285 -67.389425 
L 139.290023 -65.425518 
L 137.330762 -63.56179 
L 135.3715 -61.799231 
L 133.412238 -60.138258 
L 131.452976 -58.578563 
L 129.493714 -57.118997 
L 127.534452 -55.757481 
L 125.57519 -54.490961 
L 123.615929 -53.315404 
L 121.656667 -52.225848 
L 119.697405 -51.216507 
L 117.738143 -50.280911 
L 115.778881 -49.412099 
L 113.819619 -48.602834 
L 111.860357 -47.845842 
L 109.901096 -47.134053 
L 107.941834 -46.460837 
L 105.982572 -45.820206 
L 104.02331 -45.206995 
L 102.064048 -44.616979 
L 100.104786 -44.046955 
L 98.145525 -43.494751 
L 96.186263 -42.959195 
L 94.227001 -42.440023 
L 92.267739 -41.937748 
L 90.308477 -41.453503 
L 88.349215 -40.988856 
L 86.389953 -40.545624 
L 84.430692 -40.12569 
L 82.47143 -39.730837 
L 80.512168 -39.362605 
L 78.552906 -39.022182 
L 76.593644 -38.710324 
L 74.634382 -38.427315 
L 72.67512 -38.172957 
L 70.715859 -37.946588 
L 68.756597 -37.747128 
L 66.797335 -37.573138 
L 64.838073 -37.422897 
L 62.878811 -37.294476 
L 60.919549 -37.18582 
L 58.960288 -37.094822 
L 57.001026 -37.019385 
L 55.041764 -36.957484 
L 53.082502 -36.907205 
L 51.12324 -36.866779 
L 49.163978 -36.834603 
L 47.204716 -36.809252 
L 45.245455 -36.789479 
z
" style="stroke: #dd8452"/>
    </defs>
    <g>
     <use xlink:href="#m23221c85c5" x="0" y="265.689687" style="fill: #dd8452; fill-opacity: 0.25; stroke: #dd8452"/>
    </g>
   </g>
   <g id="FillBetweenPolyCollection_2">
    <defs>
     <path id="m804843d009" d="M 204.972598 -36.782771 
L 204.972598 -36.729688 
L 207.993613 -36.729688 
L 211.014628 -36.729688 
L 214.035643 -36.729688 
L 217.056657 -36.729688 
L 220.077672 -36.729688 
L 223.098687 -36.729688 
L 226.119702 -36.729688 
L 229.140717 -36.729688 
L 232.161731 -36.729688 
L 235.182746 -36.729688 
L 238.203761 -36.729688 
L 241.224776 -36.729688 
L 244.245791 -36.729688 
L 247.266805 -36.729688 
L 250.28782 -36.729688 
L 253.308835 -36.729688 
L 256.32985 -36.729688 
L 259.350865 -36.729688 
L 262.371879 -36.729688 
L 265.392894 -36.729688 
L 268.413909 -36.729688 
L 271.434924 -36.729688 
L 274.455939 -36.729688 
L 277.476954 -36.729688 
L 280.497968 -36.729688 
L 283.518983 -36.729688 
L 286.539998 -36.729688 
L 289.561013 -36.729688 
L 292.582028 -36.729688 
L 295.603042 -36.729688 
L 298.624057 -36.729688 
L 301.645072 -36.729688 
L 304.666087 -36.729688 
L 307.687102 -36.729688 
L 310.708116 -36.729688 
L 313.729131 -36.729688 
L 316.750146 -36.729688 
L 319.771161 -36.729688 
L 322.792176 -36.729688 
L 325.813191 -36.729688 
L 328.834205 -36.729688 
L 331.85522 -36.729688 
L 334.876235 -36.729688 
L 337.89725 -36.729688 
L 340.918265 -36.729688 
L 343.939279 -36.729688 
L 346.960294 -36.729688 
L 349.981309 -36.729688 
L 353.002324 -36.729688 
L 356.023339 -36.729688 
L 359.044353 -36.729688 
L 362.065368 -36.729688 
L 365.086383 -36.729688 
L 368.107398 -36.729688 
L 371.128413 -36.729688 
L 374.149427 -36.729688 
L 377.170442 -36.729688 
L 380.191457 -36.729688 
L 383.212472 -36.729688 
L 386.233487 -36.729688 
L 389.254502 -36.729688 
L 392.275516 -36.729688 
L 395.296531 -36.729688 
L 398.317546 -36.729688 
L 401.338561 -36.729688 
L 404.359576 -36.729688 
L 407.38059 -36.729688 
L 410.401605 -36.729688 
L 413.42262 -36.729688 
L 416.443635 -36.729688 
L 419.46465 -36.729688 
L 422.485664 -36.729688 
L 425.506679 -36.729688 
L 428.527694 -36.729688 
L 431.548709 -36.729688 
L 434.569724 -36.729688 
L 437.590739 -36.729688 
L 440.611753 -36.729688 
L 443.632768 -36.729688 
L 446.653783 -36.729688 
L 449.674798 -36.729688 
L 452.695813 -36.729688 
L 455.716827 -36.729688 
L 458.737842 -36.729688 
L 461.758857 -36.729688 
L 464.779872 -36.729688 
L 467.800887 -36.729688 
L 470.821901 -36.729688 
L 473.842916 -36.729688 
L 476.863931 -36.729688 
L 479.884946 -36.729688 
L 482.905961 -36.729688 
L 485.926975 -36.729688 
L 488.94799 -36.729688 
L 491.969005 -36.729688 
L 494.99002 -36.729688 
L 498.011035 -36.729688 
L 501.03205 -36.729688 
L 504.053064 -36.729688 
L 507.074079 -36.729688 
L 510.095094 -36.729688 
L 513.116109 -36.729688 
L 516.137124 -36.729688 
L 519.158138 -36.729688 
L 522.179153 -36.729688 
L 525.200168 -36.729688 
L 528.221183 -36.729688 
L 531.242198 -36.729688 
L 534.263212 -36.729688 
L 537.284227 -36.729688 
L 540.305242 -36.729688 
L 543.326257 -36.729688 
L 546.347272 -36.729688 
L 549.368287 -36.729688 
L 552.389301 -36.729688 
L 555.410316 -36.729688 
L 558.431331 -36.729688 
L 561.452346 -36.729688 
L 564.473361 -36.729688 
L 567.494375 -36.729688 
L 570.51539 -36.729688 
L 573.536405 -36.729688 
L 576.55742 -36.729688 
L 579.578435 -36.729688 
L 582.599449 -36.729688 
L 585.620464 -36.729688 
L 588.641479 -36.729688 
L 591.662494 -36.729688 
L 594.683509 -36.729688 
L 597.704524 -36.729688 
L 600.725538 -36.729688 
L 603.746553 -36.729688 
L 606.767568 -36.729688 
L 609.788583 -36.729688 
L 612.809598 -36.729688 
L 615.830612 -36.729688 
L 618.851627 -36.729688 
L 621.872642 -36.729688 
L 624.893657 -36.729688 
L 627.914672 -36.729688 
L 630.935686 -36.729688 
L 633.956701 -36.729688 
L 636.977716 -36.729688 
L 639.998731 -36.729688 
L 643.019746 -36.729688 
L 646.04076 -36.729688 
L 649.061775 -36.729688 
L 652.08279 -36.729688 
L 655.103805 -36.729688 
L 658.12482 -36.729688 
L 661.145835 -36.729688 
L 664.166849 -36.729688 
L 667.187864 -36.729688 
L 670.208879 -36.729688 
L 673.229894 -36.729688 
L 676.250909 -36.729688 
L 679.271923 -36.729688 
L 682.292938 -36.729688 
L 685.313953 -36.729688 
L 688.334968 -36.729688 
L 691.355983 -36.729688 
L 694.376997 -36.729688 
L 697.398012 -36.729688 
L 700.419027 -36.729688 
L 703.440042 -36.729688 
L 706.461057 -36.729688 
L 709.482072 -36.729688 
L 712.503086 -36.729688 
L 715.524101 -36.729688 
L 718.545116 -36.729688 
L 721.566131 -36.729688 
L 724.587146 -36.729688 
L 727.60816 -36.729688 
L 730.629175 -36.729688 
L 733.65019 -36.729688 
L 736.671205 -36.729688 
L 739.69222 -36.729688 
L 742.713234 -36.729688 
L 745.734249 -36.729688 
L 748.755264 -36.729688 
L 751.776279 -36.729688 
L 754.797294 -36.729688 
L 757.818308 -36.729688 
L 760.839323 -36.729688 
L 763.860338 -36.729688 
L 766.881353 -36.729688 
L 769.902368 -36.729688 
L 772.923383 -36.729688 
L 775.944397 -36.729688 
L 778.965412 -36.729688 
L 781.986427 -36.729688 
L 785.007442 -36.729688 
L 788.028457 -36.729688 
L 791.049471 -36.729688 
L 794.070486 -36.729688 
L 797.091501 -36.729688 
L 800.112516 -36.729688 
L 803.133531 -36.729688 
L 806.154545 -36.729688 
L 806.154545 -36.782771 
L 806.154545 -36.782771 
L 803.133531 -36.808118 
L 800.112516 -36.843535 
L 797.091501 -36.892044 
L 794.070486 -36.957159 
L 791.049471 -37.042795 
L 788.028457 -37.153106 
L 785.007442 -37.292232 
L 781.986427 -37.463953 
L 778.965412 -37.671273 
L 775.944397 -37.915937 
L 772.923383 -38.197945 
L 769.902368 -38.515098 
L 766.881353 -38.862654 
L 763.860338 -39.233143 
L 760.839323 -39.616414 
L 757.818308 -39.999941 
L 754.797294 -40.3694 
L 751.776279 -40.709502 
L 748.755264 -41.005009 
L 745.734249 -41.241855 
L 742.713234 -41.408252 
L 739.69222 -41.495664 
L 736.671205 -41.499537 
L 733.65019 -41.419702 
L 730.629175 -41.260394 
L 727.60816 -41.029906 
L 724.587146 -40.739899 
L 721.566131 -40.404472 
L 718.545116 -40.039096 
L 715.524101 -39.659533 
L 712.503086 -39.28086 
L 709.482072 -38.916688 
L 706.461057 -38.578651 
L 703.440042 -38.276169 
L 700.419027 -38.016499 
L 697.398012 -37.805011 
L 694.376997 -37.645639 
L 691.355983 -37.541421 
L 688.334968 -37.495061 
L 685.313953 -37.50943 
L 682.292938 -37.587961 
L 679.271923 -37.734896 
L 676.250909 -37.955378 
L 673.229894 -38.255383 
L 670.208879 -38.641532 
L 667.187864 -39.120817 
L 664.166849 -39.700299 
L 661.145835 -40.386837 
L 658.12482 -41.186894 
L 655.103805 -42.106481 
L 652.08279 -43.151249 
L 649.061775 -44.326735 
L 646.04076 -45.638751 
L 643.019746 -47.093853 
L 639.998731 -48.699836 
L 636.977716 -50.46617 
L 633.956701 -52.404309 
L 630.935686 -54.52779 
L 627.914672 -56.852095 
L 624.893657 -59.394245 
L 621.872642 -62.172146 
L 618.851627 -65.203732 
L 615.830612 -68.505974 
L 612.809598 -72.093851 
L 609.788583 -75.979371 
L 606.767568 -80.170737 
L 603.746553 -84.671719 
L 600.725538 -89.481294 
L 597.704524 -94.593558 
L 594.683509 -99.997894 
L 591.662494 -105.679355 
L 588.641479 -111.619187 
L 585.620464 -117.795422 
L 582.599449 -124.183449 
L 579.578435 -130.756503 
L 576.55742 -137.486021 
L 573.536405 -144.341841 
L 570.51539 -151.292263 
L 567.494375 -158.303988 
L 564.473361 -165.342 
L 561.452346 -172.369453 
L 558.431331 -179.347602 
L 555.410316 -186.235833 
L 552.389301 -192.991802 
L 549.368287 -199.57167 
L 546.347272 -205.93041 
L 543.326257 -212.022123 
L 540.305242 -217.800323 
L 537.284227 -223.218139 
L 534.263212 -228.228418 
L 531.242198 -232.78373 
L 528.221183 -236.836339 
L 525.200168 -240.338208 
L 522.179153 -243.241158 
L 519.158138 -245.49729 
L 516.137124 -247.059773 
L 513.116109 -247.884082 
L 510.095094 -247.929688 
L 507.074079 -247.162165 
L 504.053064 -245.55559 
L 501.03205 -243.095037 
L 498.011035 -239.77895 
L 494.99002 -235.621116 
L 491.969005 -230.652 
L 488.94799 -224.919224 
L 485.926975 -218.487074 
L 482.905961 -211.434986 
L 479.884946 -203.855082 
L 476.863931 -195.848936 
L 473.842916 -187.523814 
L 470.821901 -178.98869 
L 467.800887 -170.350357 
L 464.779872 -161.709922 
L 461.758857 -153.159913 
L 458.737842 -144.78215 
L 455.716827 -136.646442 
L 452.695813 -128.810069 
L 449.674798 -121.317966 
L 446.653783 -114.203431 
L 443.632768 -107.489218 
L 440.611753 -101.188821 
L 437.590739 -95.307825 
L 434.569724 -89.845229 
L 431.548709 -84.794662 
L 428.527694 -80.145488 
L 425.506679 -75.883785 
L 422.485664 -71.993216 
L 419.46465 -68.455792 
L 416.443635 -65.252525 
L 413.42262 -62.363961 
L 410.401605 -59.770559 
L 407.38059 -57.452914 
L 404.359576 -55.391797 
L 401.338561 -53.568047 
L 398.317546 -51.962346 
L 395.296531 -50.554948 
L 392.275516 -49.325453 
L 389.254502 -48.252702 
L 386.233487 -47.314868 
L 383.212472 -46.489788 
L 380.191457 -45.755518 
L 377.170442 -45.091089 
L 374.149427 -44.477354 
L 371.128413 -43.897828 
L 368.107398 -43.339398 
L 365.086383 -42.79281 
L 362.065368 -42.252847 
L 359.044353 -41.718177 
L 356.023339 -41.190903 
L 353.002324 -40.675861 
L 349.981309 -40.17977 
L 346.960294 -39.710345 
L 343.939279 -39.275472 
L 340.918265 -38.882525 
L 337.89725 -38.537895 
L 334.876235 -38.246727 
L 331.85522 -38.012853 
L 328.834205 -37.838884 
L 325.813191 -37.726369 
L 322.792176 -37.675981 
L 319.771161 -37.687633 
L 316.750146 -37.760502 
L 313.729131 -37.892921 
L 310.708116 -38.082151 
L 307.687102 -38.324069 
L 304.666087 -38.612825 
L 301.645072 -38.940548 
L 298.624057 -39.29717 
L 295.603042 -39.670456 
L 292.582028 -40.046264 
L 289.561013 -40.409083 
L 286.539998 -40.742807 
L 283.518983 -41.031705 
L 280.497968 -41.261486 
L 277.476954 -41.420352 
L 274.455939 -41.499917 
L 271.434924 -41.495881 
L 268.413909 -41.408374 
L 265.392894 -41.241922 
L 262.371879 -41.005045 
L 259.350865 -40.709521 
L 256.32985 -40.36941 
L 253.308835 -39.999946 
L 250.28782 -39.616417 
L 247.266805 -39.233144 
L 244.245791 -38.862655 
L 241.224776 -38.515098 
L 238.203761 -38.197945 
L 235.182746 -37.915937 
L 232.161731 -37.671273 
L 229.140717 -37.463953 
L 226.119702 -37.292232 
L 223.098687 -37.153106 
L 220.077672 -37.042795 
L 217.056657 -36.957159 
L 214.035643 -36.892044 
L 211.014628 -36.843535 
L 207.993613 -36.808118 
L 204.972598 -36.782771 
z
" style="stroke: #4c72b0"/>
    </defs>
    <g>
     <use xlink:href="#m804843d009" x="0" y="265.689687" style="fill: #4c72b0; fill-opacity: 0.25; stroke: #4c72b0"/>
    </g>
   </g>
   <g id="line2d_34">
    <path d="M 198.859531 228.96 
L 198.859531 7.2 
" style="fill: none; stroke-dasharray: 2.96,1.28; stroke-dashoffset: 0; stroke: #d3d3d3; stroke-width: 0.8"/>
   </g>
   <g id="line2d_35">
    <path d="M 405.928317 228.96 
L 405.928317 7.2 
" style="fill: none; stroke-dasharray: 2.96,1.28; stroke-dashoffset: 0; stroke: #d3d3d3; stroke-width: 0.8"/>
   </g>
   <g id="line2d_36">
    <path d="M 317.853465 228.96 
L 317.853465 7.2 
" style="fill: none; stroke-dasharray: 2.96,1.28; stroke-dashoffset: 0; stroke: #d3d3d3; stroke-width: 0.8"/>
   </g>
   <g id="line2d_37">
    <path d="M 7.2 228.96 
L 844.2 228.96 
" style="fill: none; stroke: #808080; stroke-width: 0.5; stroke-linecap: round"/>
   </g>
   <g id="text_12">
    <text style="font-size: 8px; font-family: 'Arial', 'DejaVu Sans', 'Liberation Sans', 'Bitstream Vera Sans', sans-serif; fill: #808080" transform="translate(205.113281 124.59635) rotate(-90)">International Poverty Line: $3.00</text>
   </g>
   <g id="text_13">
    <text style="font-size: 8px; font-family: 'Arial', 'DejaVu Sans', 'Liberation Sans', 'Bitstream Vera Sans', sans-serif; fill: #808080" transform="translate(411.654567 81.31135) rotate(-90)">World mean: $21.69</text>
   </g>
   <g id="text_14">
    <text style="font-size: 8px; font-family: 'Arial', 'DejaVu Sans', 'Liberation Sans', 'Bitstream Vera Sans', sans-serif; fill: #808080" transform="translate(323.579715 83.08885) rotate(-90)">World median: $9.35</text>
   </g>
   <g id="text_15">
    <text style="font-size: 10px; font-family: 'Arial', 'DejaVu Sans', 'Liberation Sans', 'Bitstream Vera Sans', sans-serif; text-anchor: middle" x="514.213842" y="226.855312" transform="rotate(-0 514.213842 226.855312)">Denmark (2022)</text>
   </g>
   <g id="text_16">
    <text style="font-size: 10px; font-family: 'Arial', 'DejaVu Sans', 'Liberation Sans', 'Bitstream Vera Sans', sans-serif; text-anchor: middle" x="247.119353" y="226.855312" transform="rotate(-0 247.119353 226.855312)">Syria (2022)</text>
   </g>
  </g>
 </g>
</svg>
