<?xml version="1.0" encoding="utf-8" standalone="no"?>
<!DOCTYPE svg PUBLIC "-//W3C//DTD SVG 1.1//EN"
  "http://www.w3.org/Graphics/SVG/1.1/DTD/svg11.dtd">
<svg xmlns:xlink="http://www.w3.org/1999/xlink" width="865.302344pt" height="265.689687pt" viewBox="0 0 865.302344 265.689687" xmlns="http://www.w3.org/2000/svg" version="1.1">
 <metadata>
  <rdf:RDF xmlns:dc="http://purl.org/dc/elements/1.1/" xmlns:cc="http://creativecommons.org/ns#" xmlns:rdf="http://www.w3.org/1999/02/22-rdf-syntax-ns#">
   <cc:Work>
    <dc:type rdf:resource="http://purl.org/dc/dcmitype/StillImage"/>
    <dc:date>2025-12-05T17:50:42.580512</dc:date>
    <dc:format>image/svg+xml</dc:format>
    <dc:creator>
     <cc:Agent>
      <dc:title>Matplotlib v3.10.1, https://matplotlib.org/</dc:title>
     </cc:Agent>
    </dc:creator>
   </cc:Work>
  </rdf:RDF>
 </metadata>
 <defs>
  <style type="text/css">*{stroke-linejoin: round; stroke-linecap: butt}</style>
 </defs>
 <g id="figure_1">
  <g id="patch_1">
   <path d="M 0 265.689687 
L 865.302344 265.689687 
L 865.302344 0 
L 0 0 
z
" style="fill: #ffffff"/>
  </g>
  <g id="axes_1">
   <g id="patch_2">
    <path d="M 7.2 228.96 
L 844.2 228.96 
L 844.2 7.2 
L 7.2 7.2 
z
" style="fill: #ffffff"/>
   </g>
   <g id="matplotlib.axis_1">
    <g id="xtick_1">
     <g id="line2d_1">
      <defs>
       <path id="mce5797e00f" d="M 0 0 
L 0 3.5 
" style="stroke: #262626; stroke-width: 0.8"/>
      </defs>
      <g>
       <use xlink:href="#mce5797e00f" x="94.734307" y="228.96" style="fill: #262626; stroke: #262626; stroke-width: 0.8"/>
      </g>
     </g>
     <g id="text_1">
      <text style="font-size: 10px; font-family: 'Arial', 'DejaVu Sans', 'Liberation Sans', 'Bitstream Vera Sans', sans-serif; text-anchor: middle; fill: #262626" x="94.734307" y="243.117812" transform="rotate(-0 94.734307 243.117812)">$1</text>
     </g>
    </g>
    <g id="xtick_2">
     <g id="line2d_2">
      <g>
       <use xlink:href="#mce5797e00f" x="169.938192" y="228.96" style="fill: #262626; stroke: #262626; stroke-width: 0.8"/>
      </g>
     </g>
     <g id="text_2">
      <text style="font-size: 10px; font-family: 'Arial', 'DejaVu Sans', 'Liberation Sans', 'Bitstream Vera Sans', sans-serif; text-anchor: middle; fill: #262626" x="169.938192" y="243.117812" transform="rotate(-0 169.938192 243.117812)">$2</text>
     </g>
    </g>
    <g id="xtick_3">
     <g id="line2d_3">
      <g>
       <use xlink:href="#mce5797e00f" x="269.35232" y="228.96" style="fill: #262626; stroke: #262626; stroke-width: 0.8"/>
      </g>
     </g>
     <g id="text_3">
      <text style="font-size: 10px; font-family: 'Arial', 'DejaVu Sans', 'Liberation Sans', 'Bitstream Vera Sans', sans-serif; text-anchor: middle; fill: #262626" x="269.35232" y="243.117812" transform="rotate(-0 269.35232 243.117812)">$5</text>
     </g>
    </g>
    <g id="xtick_4">
     <g id="line2d_4">
      <g>
       <use xlink:href="#mce5797e00f" x="344.556205" y="228.96" style="fill: #262626; stroke: #262626; stroke-width: 0.8"/>
      </g>
     </g>
     <g id="text_4">
      <text style="font-size: 10px; font-family: 'Arial', 'DejaVu Sans', 'Liberation Sans', 'Bitstream Vera Sans', sans-serif; text-anchor: middle; fill: #262626" x="344.556205" y="243.117812" transform="rotate(-0 344.556205 243.117812)">$10</text>
     </g>
    </g>
    <g id="xtick_5">
     <g id="line2d_5">
      <g>
       <use xlink:href="#mce5797e00f" x="419.76009" y="228.96" style="fill: #262626; stroke: #262626; stroke-width: 0.8"/>
      </g>
     </g>
     <g id="text_5">
      <text style="font-size: 10px; font-family: 'Arial', 'DejaVu Sans', 'Liberation Sans', 'Bitstream Vera Sans', sans-serif; text-anchor: middle; fill: #262626" x="419.76009" y="243.117812" transform="rotate(-0 419.76009 243.117812)">$20</text>
     </g>
    </g>
    <g id="xtick_6">
     <g id="line2d_6">
      <g>
       <use xlink:href="#mce5797e00f" x="519.174218" y="228.96" style="fill: #262626; stroke: #262626; stroke-width: 0.8"/>
      </g>
     </g>
     <g id="text_6">
      <text style="font-size: 10px; font-family: 'Arial', 'DejaVu Sans', 'Liberation Sans', 'Bitstream Vera Sans', sans-serif; text-anchor: middle; fill: #262626" x="519.174218" y="243.117812" transform="rotate(-0 519.174218 243.117812)">$50</text>
     </g>
    </g>
    <g id="xtick_7">
     <g id="line2d_7">
      <g>
       <use xlink:href="#mce5797e00f" x="594.378102" y="228.96" style="fill: #262626; stroke: #262626; stroke-width: 0.8"/>
      </g>
     </g>
     <g id="text_7">
      <text style="font-size: 10px; font-family: 'Arial', 'DejaVu Sans', 'Liberation Sans', 'Bitstream Vera Sans', sans-serif; text-anchor: middle; fill: #262626" x="594.378102" y="243.117812" transform="rotate(-0 594.378102 243.117812)">$100</text>
     </g>
    </g>
    <g id="xtick_8">
     <g id="line2d_8">
      <g>
       <use xlink:href="#mce5797e00f" x="669.581987" y="228.96" style="fill: #262626; stroke: #262626; stroke-width: 0.8"/>
      </g>
     </g>
     <g id="text_8">
      <text style="font-size: 10px; font-family: 'Arial', 'DejaVu Sans', 'Liberation Sans', 'Bitstream Vera Sans', sans-serif; text-anchor: middle; fill: #262626" x="669.581987" y="243.117812" transform="rotate(-0 669.581987 243.117812)">$200</text>
     </g>
    </g>
    <g id="xtick_9">
     <g id="line2d_9">
      <g>
       <use xlink:href="#mce5797e00f" x="768.996115" y="228.96" style="fill: #262626; stroke: #262626; stroke-width: 0.8"/>
      </g>
     </g>
     <g id="text_9">
      <text style="font-size: 10px; font-family: 'Arial', 'DejaVu Sans', 'Liberation Sans', 'Bitstream Vera Sans', sans-serif; text-anchor: middle; fill: #262626" x="768.996115" y="243.117812" transform="rotate(-0 768.996115 243.117812)">$500</text>
     </g>
    </g>
    <g id="xtick_10">
     <g id="line2d_10">
      <g>
       <use xlink:href="#mce5797e00f" x="844.2" y="228.96" style="fill: #262626; stroke: #262626; stroke-width: 0.8"/>
      </g>
     </g>
     <g id="text_10">
      <text style="font-size: 10px; font-family: 'Arial', 'DejaVu Sans', 'Liberation Sans', 'Bitstream Vera Sans', sans-serif; text-anchor: middle; fill: #262626" x="844.2" y="243.117812" transform="rotate(-0 844.2 243.117812)">$1000</text>
     </g>
    </g>
    <g id="xtick_11">
     <g id="line2d_11">
      <defs>
       <path id="mc7770d3c9e" d="M 0 0 
L 0 2 
" style="stroke: #262626; stroke-width: 0.6"/>
      </defs>
      <g>
       <use xlink:href="#mc7770d3c9e" x="19.530422" y="228.96" style="fill: #262626; stroke: #262626; stroke-width: 0.6"/>
      </g>
     </g>
    </g>
    <g id="xtick_12">
     <g id="line2d_12">
      <g>
       <use xlink:href="#mc7770d3c9e" x="39.311632" y="228.96" style="fill: #262626; stroke: #262626; stroke-width: 0.6"/>
      </g>
     </g>
    </g>
    <g id="xtick_13">
     <g id="line2d_13">
      <g>
       <use xlink:href="#mc7770d3c9e" x="56.036406" y="228.96" style="fill: #262626; stroke: #262626; stroke-width: 0.6"/>
      </g>
     </g>
    </g>
    <g id="xtick_14">
     <g id="line2d_14">
      <g>
       <use xlink:href="#mc7770d3c9e" x="70.524064" y="228.96" style="fill: #262626; stroke: #262626; stroke-width: 0.6"/>
      </g>
     </g>
    </g>
    <g id="xtick_15">
     <g id="line2d_15">
      <g>
       <use xlink:href="#mc7770d3c9e" x="83.303084" y="228.96" style="fill: #262626; stroke: #262626; stroke-width: 0.6"/>
      </g>
     </g>
    </g>
    <g id="xtick_16">
     <g id="line2d_16">
      <g>
       <use xlink:href="#mc7770d3c9e" x="213.929644" y="228.96" style="fill: #262626; stroke: #262626; stroke-width: 0.6"/>
      </g>
     </g>
    </g>
    <g id="xtick_17">
     <g id="line2d_17">
      <g>
       <use xlink:href="#mc7770d3c9e" x="245.142077" y="228.96" style="fill: #262626; stroke: #262626; stroke-width: 0.6"/>
      </g>
     </g>
    </g>
    <g id="xtick_18">
     <g id="line2d_18">
      <g>
       <use xlink:href="#mc7770d3c9e" x="289.133529" y="228.96" style="fill: #262626; stroke: #262626; stroke-width: 0.6"/>
      </g>
     </g>
    </g>
    <g id="xtick_19">
     <g id="line2d_19">
      <g>
       <use xlink:href="#mc7770d3c9e" x="305.858303" y="228.96" style="fill: #262626; stroke: #262626; stroke-width: 0.6"/>
      </g>
     </g>
    </g>
    <g id="xtick_20">
     <g id="line2d_20">
      <g>
       <use xlink:href="#mc7770d3c9e" x="320.345961" y="228.96" style="fill: #262626; stroke: #262626; stroke-width: 0.6"/>
      </g>
     </g>
    </g>
    <g id="xtick_21">
     <g id="line2d_21">
      <g>
       <use xlink:href="#mc7770d3c9e" x="333.124982" y="228.96" style="fill: #262626; stroke: #262626; stroke-width: 0.6"/>
      </g>
     </g>
    </g>
    <g id="xtick_22">
     <g id="line2d_22">
      <g>
       <use xlink:href="#mc7770d3c9e" x="463.751542" y="228.96" style="fill: #262626; stroke: #262626; stroke-width: 0.6"/>
      </g>
     </g>
    </g>
    <g id="xtick_23">
     <g id="line2d_23">
      <g>
       <use xlink:href="#mc7770d3c9e" x="494.963974" y="228.96" style="fill: #262626; stroke: #262626; stroke-width: 0.6"/>
      </g>
     </g>
    </g>
    <g id="xtick_24">
     <g id="line2d_24">
      <g>
       <use xlink:href="#mc7770d3c9e" x="538.955427" y="228.96" style="fill: #262626; stroke: #262626; stroke-width: 0.6"/>
      </g>
     </g>
    </g>
    <g id="xtick_25">
     <g id="line2d_25">
      <g>
       <use xlink:href="#mc7770d3c9e" x="555.680201" y="228.96" style="fill: #262626; stroke: #262626; stroke-width: 0.6"/>
      </g>
     </g>
    </g>
    <g id="xtick_26">
     <g id="line2d_26">
      <g>
       <use xlink:href="#mc7770d3c9e" x="570.167859" y="228.96" style="fill: #262626; stroke: #262626; stroke-width: 0.6"/>
      </g>
     </g>
    </g>
    <g id="xtick_27">
     <g id="line2d_27">
      <g>
       <use xlink:href="#mc7770d3c9e" x="582.946879" y="228.96" style="fill: #262626; stroke: #262626; stroke-width: 0.6"/>
      </g>
     </g>
    </g>
    <g id="xtick_28">
     <g id="line2d_28">
      <g>
       <use xlink:href="#mc7770d3c9e" x="713.57344" y="228.96" style="fill: #262626; stroke: #262626; stroke-width: 0.6"/>
      </g>
     </g>
    </g>
    <g id="xtick_29">
     <g id="line2d_29">
      <g>
       <use xlink:href="#mc7770d3c9e" x="744.785872" y="228.96" style="fill: #262626; stroke: #262626; stroke-width: 0.6"/>
      </g>
     </g>
    </g>
    <g id="xtick_30">
     <g id="line2d_30">
      <g>
       <use xlink:href="#mc7770d3c9e" x="788.777324" y="228.96" style="fill: #262626; stroke: #262626; stroke-width: 0.6"/>
      </g>
     </g>
    </g>
    <g id="xtick_31">
     <g id="line2d_31">
      <g>
       <use xlink:href="#mc7770d3c9e" x="805.502098" y="228.96" style="fill: #262626; stroke: #262626; stroke-width: 0.6"/>
      </g>
     </g>
    </g>
    <g id="xtick_32">
     <g id="line2d_32">
      <g>
       <use xlink:href="#mc7770d3c9e" x="819.989757" y="228.96" style="fill: #262626; stroke: #262626; stroke-width: 0.6"/>
      </g>
     </g>
    </g>
    <g id="xtick_33">
     <g id="line2d_33">
      <g>
       <use xlink:href="#mc7770d3c9e" x="832.768777" y="228.96" style="fill: #262626; stroke: #262626; stroke-width: 0.6"/>
      </g>
     </g>
    </g>
    <g id="text_11">
     <text style="font-size: 10px; font-family: 'Arial', 'DejaVu Sans', 'Liberation Sans', 'Bitstream Vera Sans', sans-serif; text-anchor: middle; fill: #262626" x="425.7" y="256.385" transform="rotate(-0 425.7 256.385)">Income or consumption (day)</text>
    </g>
   </g>
   <g id="matplotlib.axis_2"/>
   <g id="FillBetweenPolyCollection_1">
    <defs>
     <path id="m394e817d4f" d="M 40.396981 -36.813844 
L 40.396981 -36.729688 
L 42.230543 -36.729688 
L 44.064105 -36.729688 
L 45.897668 -36.729688 
L 47.73123 -36.729688 
L 49.564792 -36.729688 
L 51.398354 -36.729688 
L 53.231917 -36.729688 
L 55.065479 -36.729688 
L 56.899041 -36.729688 
L 58.732604 -36.729688 
L 60.566166 -36.729688 
L 62.399728 -36.729688 
L 64.23329 -36.729688 
L 66.066853 -36.729688 
L 67.900415 -36.729688 
L 69.733977 -36.729688 
L 71.567539 -36.729688 
L 73.401102 -36.729688 
L 75.234664 -36.729688 
L 77.068226 -36.729688 
L 78.901789 -36.729688 
L 80.735351 -36.729688 
L 82.568913 -36.729688 
L 84.402475 -36.729688 
L 86.236038 -36.729688 
L 88.0696 -36.729688 
L 89.903162 -36.729688 
L 91.736724 -36.729688 
L 93.570287 -36.729688 
L 95.403849 -36.729688 
L 97.237411 -36.729688 
L 99.070974 -36.729688 
L 100.904536 -36.729688 
L 102.738098 -36.729688 
L 104.57166 -36.729688 
L 106.405223 -36.729688 
L 108.238785 -36.729688 
L 110.072347 -36.729688 
L 111.905909 -36.729688 
L 113.739472 -36.729688 
L 115.573034 -36.729688 
L 117.406596 -36.729688 
L 119.240159 -36.729688 
L 121.073721 -36.729688 
L 122.907283 -36.729688 
L 124.740845 -36.729688 
L 126.574408 -36.729688 
L 128.40797 -36.729688 
L 130.241532 -36.729688 
L 132.075094 -36.729688 
L 133.908657 -36.729688 
L 135.742219 -36.729688 
L 137.575781 -36.729688 
L 139.409344 -36.729688 
L 141.242906 -36.729688 
L 143.076468 -36.729688 
L 144.91003 -36.729688 
L 146.743593 -36.729688 
L 148.577155 -36.729688 
L 150.410717 -36.729688 
L 152.244279 -36.729688 
L 154.077842 -36.729688 
L 155.911404 -36.729688 
L 157.744966 -36.729688 
L 159.578529 -36.729688 
L 161.412091 -36.729688 
L 163.245653 -36.729688 
L 165.079215 -36.729688 
L 166.912778 -36.729688 
L 168.74634 -36.729688 
L 170.579902 -36.729688 
L 172.413464 -36.729688 
L 174.247027 -36.729688 
L 176.080589 -36.729688 
L 177.914151 -36.729688 
L 179.747714 -36.729688 
L 181.581276 -36.729688 
L 183.414838 -36.729688 
L 185.2484 -36.729688 
L 187.081963 -36.729688 
L 188.915525 -36.729688 
L 190.749087 -36.729688 
L 192.582649 -36.729688 
L 194.416212 -36.729688 
L 196.249774 -36.729688 
L 198.083336 -36.729688 
L 199.916899 -36.729688 
L 201.750461 -36.729688 
L 203.584023 -36.729688 
L 205.417585 -36.729688 
L 207.251148 -36.729688 
L 209.08471 -36.729688 
L 210.918272 -36.729688 
L 212.751834 -36.729688 
L 214.585397 -36.729688 
L 216.418959 -36.729688 
L 218.252521 -36.729688 
L 220.086084 -36.729688 
L 221.919646 -36.729688 
L 223.753208 -36.729688 
L 225.58677 -36.729688 
L 227.420333 -36.729688 
L 229.253895 -36.729688 
L 231.087457 -36.729688 
L 232.921019 -36.729688 
L 234.754582 -36.729688 
L 236.588144 -36.729688 
L 238.421706 -36.729688 
L 240.255269 -36.729688 
L 242.088831 -36.729688 
L 243.922393 -36.729688 
L 245.755955 -36.729688 
L 247.589518 -36.729688 
L 249.42308 -36.729688 
L 251.256642 -36.729688 
L 253.090204 -36.729688 
L 254.923767 -36.729688 
L 256.757329 -36.729688 
L 258.590891 -36.729688 
L 260.424454 -36.729688 
L 262.258016 -36.729688 
L 264.091578 -36.729688 
L 265.92514 -36.729688 
L 267.758703 -36.729688 
L 269.592265 -36.729688 
L 271.425827 -36.729688 
L 273.259389 -36.729688 
L 275.092952 -36.729688 
L 276.926514 -36.729688 
L 278.760076 -36.729688 
L 280.593639 -36.729688 
L 282.427201 -36.729688 
L 284.260763 -36.729688 
L 286.094325 -36.729688 
L 287.927888 -36.729688 
L 289.76145 -36.729688 
L 291.595012 -36.729688 
L 293.428574 -36.729688 
L 295.262137 -36.729688 
L 297.095699 -36.729688 
L 298.929261 -36.729688 
L 300.762824 -36.729688 
L 302.596386 -36.729688 
L 304.429948 -36.729688 
L 306.26351 -36.729688 
L 308.097073 -36.729688 
L 309.930635 -36.729688 
L 311.764197 -36.729688 
L 313.597759 -36.729688 
L 315.431322 -36.729688 
L 317.264884 -36.729688 
L 319.098446 -36.729688 
L 320.932009 -36.729688 
L 322.765571 -36.729688 
L 324.599133 -36.729688 
L 326.432695 -36.729688 
L 328.266258 -36.729688 
L 330.09982 -36.729688 
L 331.933382 -36.729688 
L 333.766944 -36.729688 
L 335.600507 -36.729688 
L 337.434069 -36.729688 
L 339.267631 -36.729688 
L 341.101194 -36.729688 
L 342.934756 -36.729688 
L 344.768318 -36.729688 
L 346.60188 -36.729688 
L 348.435443 -36.729688 
L 350.269005 -36.729688 
L 352.102567 -36.729688 
L 353.936129 -36.729688 
L 355.769692 -36.729688 
L 357.603254 -36.729688 
L 359.436816 -36.729688 
L 361.270379 -36.729688 
L 363.103941 -36.729688 
L 364.937503 -36.729688 
L 366.771065 -36.729688 
L 368.604628 -36.729688 
L 370.43819 -36.729688 
L 372.271752 -36.729688 
L 374.105314 -36.729688 
L 375.938877 -36.729688 
L 377.772439 -36.729688 
L 379.606001 -36.729688 
L 381.439564 -36.729688 
L 383.273126 -36.729688 
L 385.106688 -36.729688 
L 386.94025 -36.729688 
L 388.773813 -36.729688 
L 390.607375 -36.729688 
L 392.440937 -36.729688 
L 394.274499 -36.729688 
L 396.108062 -36.729688 
L 397.941624 -36.729688 
L 399.775186 -36.729688 
L 401.608749 -36.729688 
L 403.442311 -36.729688 
L 405.275873 -36.729688 
L 405.275873 -36.795395 
L 405.275873 -36.795395 
L 403.442311 -36.815731 
L 401.608749 -36.841538 
L 399.775186 -36.874031 
L 397.941624 -36.914618 
L 396.108062 -36.964917 
L 394.274499 -37.02676 
L 392.440937 -37.102202 
L 390.607375 -37.193515 
L 388.773813 -37.303178 
L 386.94025 -37.433857 
L 385.106688 -37.588379 
L 383.273126 -37.769692 
L 381.439564 -37.980819 
L 379.606001 -38.224799 
L 377.772439 -38.504625 
L 375.938877 -38.823173 
L 374.105314 -39.183127 
L 372.271752 -39.586902 
L 370.43819 -40.036573 
L 368.604628 -40.533807 
L 366.771065 -41.0798 
L 364.937503 -41.675233 
L 363.103941 -42.32024 
L 361.270379 -43.014391 
L 359.436816 -43.756695 
L 357.603254 -44.545626 
L 355.769692 -45.379164 
L 353.936129 -46.254856 
L 352.102567 -47.169891 
L 350.269005 -48.12119 
L 348.435443 -49.105505 
L 346.60188 -50.119519 
L 344.768318 -51.159956 
L 342.934756 -52.223674 
L 341.101194 -53.307767 
L 339.267631 -54.409639 
L 337.434069 -55.527085 
L 335.600507 -56.658337 
L 333.766944 -57.80211 
L 331.933382 -58.957623 
L 330.09982 -60.12461 
L 328.266258 -61.303316 
L 326.432695 -62.494479 
L 324.599133 -63.699302 
L 322.765571 -64.919419 
L 320.932009 -66.156851 
L 319.098446 -67.41396 
L 317.264884 -68.693398 
L 315.431322 -69.998047 
L 313.597759 -71.330971 
L 311.764197 -72.695351 
L 309.930635 -74.094425 
L 308.097073 -75.531434 
L 306.26351 -77.009554 
L 304.429948 -78.531841 
L 302.596386 -80.101169 
L 300.762824 -81.720183 
L 298.929261 -83.391241 
L 297.095699 -85.116381 
L 295.262137 -86.897283 
L 293.428574 -88.735257 
L 291.595012 -90.631231 
L 289.76145 -92.585764 
L 287.927888 -94.599069 
L 286.094325 -96.671057 
L 284.260763 -98.801392 
L 282.427201 -100.989556 
L 280.593639 -103.234934 
L 278.760076 -105.536891 
L 276.926514 -107.894862 
L 275.092952 -110.308433 
L 273.259389 -112.777415 
L 271.425827 -115.3019 
L 269.592265 -117.882307 
L 267.758703 -120.519392 
L 265.92514 -123.214248 
L 264.091578 -125.968262 
L 262.258016 -128.783047 
L 260.424454 -131.660355 
L 258.590891 -134.601945 
L 256.757329 -137.609441 
L 254.923767 -140.684166 
L 253.090204 -143.826961 
L 251.256642 -147.037995 
L 249.42308 -150.316577 
L 247.589518 -153.660972 
L 245.755955 -157.068231 
L 243.922393 -160.534039 
L 242.088831 -164.052596 
L 240.255269 -167.616528 
L 238.421706 -171.216832 
L 236.588144 -174.842873 
L 234.754582 -178.482421 
L 232.921019 -182.121734 
L 231.087457 -185.74569 
L 229.253895 -189.337963 
L 227.420333 -192.881239 
L 225.58677 -196.357471 
L 223.753208 -199.748157 
L 221.919646 -203.034648 
L 220.086084 -206.198456 
L 218.252521 -209.221568 
L 216.418959 -212.086756 
L 214.585397 -214.777854 
L 212.751834 -217.280015 
L 210.918272 -219.579922 
L 209.08471 -221.665955 
L 207.251148 -223.528307 
L 205.417585 -225.159038 
L 203.584023 -226.552083 
L 201.750461 -227.703199 
L 199.916899 -228.609868 
L 198.083336 -229.271157 
L 196.249774 -229.687548 
L 194.416212 -229.860741 
L 192.582649 -229.79345 
L 190.749087 -229.489197 
L 188.915525 -228.952113 
L 187.081963 -228.186766 
L 185.2484 -227.198 
L 183.414838 -225.990821 
L 181.581276 -224.570307 
L 179.747714 -222.941554 
L 177.914151 -221.109664 
L 176.080589 -219.079748 
L 174.247027 -216.856971 
L 172.413464 -214.446609 
L 170.579902 -211.854115 
L 168.74634 -209.085205 
L 166.912778 -206.145932 
L 165.079215 -203.042759 
L 163.245653 -199.782626 
L 161.412091 -196.372992 
L 159.578529 -192.82187 
L 157.744966 -189.137839 
L 155.911404 -185.330036 
L 154.077842 -181.408131 
L 152.244279 -177.382288 
L 150.410717 -173.263104 
L 148.577155 -169.061549 
L 146.743593 -164.788886 
L 144.91003 -160.456593 
L 143.076468 -156.076284 
L 141.242906 -151.659625 
L 139.409344 -147.218261 
L 137.575781 -142.76374 
L 135.742219 -138.307454 
L 133.908657 -133.860578 
L 132.075094 -129.434021 
L 130.241532 -125.038384 
L 128.40797 -120.683928 
L 126.574408 -116.380545 
L 124.740845 -112.137736 
L 122.907283 -107.964599 
L 121.073721 -103.869809 
L 119.240159 -99.861615 
L 117.406596 -95.947828 
L 115.573034 -92.135814 
L 113.739472 -88.432482 
L 111.905909 -84.844276 
L 110.072347 -81.377156 
L 108.238785 -78.03658 
L 106.405223 -74.827482 
L 104.57166 -71.754238 
L 102.738098 -68.820638 
L 100.904536 -66.029843 
L 99.070974 -63.38435 
L 97.237411 -60.885949 
L 95.403849 -58.535685 
L 93.570287 -56.333821 
L 91.736724 -54.279817 
L 89.903162 -52.372305 
L 88.0696 -50.609089 
L 86.236038 -48.987152 
L 84.402475 -47.50268 
L 82.568913 -46.151104 
L 80.735351 -44.927157 
L 78.901789 -43.824949 
L 77.068226 -42.83805 
L 75.234664 -41.959592 
L 73.401102 -41.182372 
L 71.567539 -40.498963 
L 69.733977 -39.901829 
L 67.900415 -39.38343 
L 66.066853 -38.936328 
L 64.23329 -38.553282 
L 62.399728 -38.227329 
L 60.566166 -37.951858 
L 58.732604 -37.720665 
L 56.899041 -37.527992 
L 55.065479 -37.36856 
L 53.231917 -37.237577 
L 51.398354 -37.130744 
L 49.564792 -37.044241 
L 47.73123 -36.974713 
L 45.897668 -36.91924 
L 44.064105 -36.87531 
L 42.230543 -36.840781 
L 40.396981 -36.813844 
z
" style="stroke: #dd8452"/>
    </defs>
    <g>
     <use xlink:href="#m394e817d4f" x="0" y="265.689687" style="fill: #dd8452; fill-opacity: 0.25; stroke: #dd8452"/>
    </g>
   </g>
   <g id="FillBetweenPolyCollection_2">
    <defs>
     <path id="mb2140dc5a6" d="M 335.535518 -36.793204 
L 335.535518 -36.729688 
L 337.38879 -36.729688 
L 339.242061 -36.729688 
L 341.095333 -36.729688 
L 342.948605 -36.729688 
L 344.801877 -36.729688 
L 346.655148 -36.729688 
L 348.50842 -36.729688 
L 350.361692 -36.729688 
L 352.214964 -36.729688 
L 354.068235 -36.729688 
L 355.921507 -36.729688 
L 357.774779 -36.729688 
L 359.628051 -36.729688 
L 361.481322 -36.729688 
L 363.334594 -36.729688 
L 365.187866 -36.729688 
L 367.041138 -36.729688 
L 368.894409 -36.729688 
L 370.747681 -36.729688 
L 372.600953 -36.729688 
L 374.454225 -36.729688 
L 376.307496 -36.729688 
L 378.160768 -36.729688 
L 380.01404 -36.729688 
L 381.867312 -36.729688 
L 383.720583 -36.729688 
L 385.573855 -36.729688 
L 387.427127 -36.729688 
L 389.280399 -36.729688 
L 391.133671 -36.729688 
L 392.986942 -36.729688 
L 394.840214 -36.729688 
L 396.693486 -36.729688 
L 398.546758 -36.729688 
L 400.400029 -36.729688 
L 402.253301 -36.729688 
L 404.106573 -36.729688 
L 405.959845 -36.729688 
L 407.813116 -36.729688 
L 409.666388 -36.729688 
L 411.51966 -36.729688 
L 413.372932 -36.729688 
L 415.226203 -36.729688 
L 417.079475 -36.729688 
L 418.932747 -36.729688 
L 420.786019 -36.729688 
L 422.63929 -36.729688 
L 424.492562 -36.729688 
L 426.345834 -36.729688 
L 428.199106 -36.729688 
L 430.052377 -36.729688 
L 431.905649 -36.729688 
L 433.758921 -36.729688 
L 435.612193 -36.729688 
L 437.465464 -36.729688 
L 439.318736 -36.729688 
L 441.172008 -36.729688 
L 443.02528 -36.729688 
L 444.878551 -36.729688 
L 446.731823 -36.729688 
L 448.585095 -36.729688 
L 450.438367 -36.729688 
L 452.291638 -36.729688 
L 454.14491 -36.729688 
L 455.998182 -36.729688 
L 457.851454 -36.729688 
L 459.704726 -36.729688 
L 461.557997 -36.729688 
L 463.411269 -36.729688 
L 465.264541 -36.729688 
L 467.117813 -36.729688 
L 468.971084 -36.729688 
L 470.824356 -36.729688 
L 472.677628 -36.729688 
L 474.5309 -36.729688 
L 476.384171 -36.729688 
L 478.237443 -36.729688 
L 480.090715 -36.729688 
L 481.943987 -36.729688 
L 483.797258 -36.729688 
L 485.65053 -36.729688 
L 487.503802 -36.729688 
L 489.357074 -36.729688 
L 491.210345 -36.729688 
L 493.063617 -36.729688 
L 494.916889 -36.729688 
L 496.770161 -36.729688 
L 498.623432 -36.729688 
L 500.476704 -36.729688 
L 502.329976 -36.729688 
L 504.183248 -36.729688 
L 506.036519 -36.729688 
L 507.889791 -36.729688 
L 509.743063 -36.729688 
L 511.596335 -36.729688 
L 513.449606 -36.729688 
L 515.302878 -36.729688 
L 517.15615 -36.729688 
L 519.009422 -36.729688 
L 520.862694 -36.729688 
L 522.715965 -36.729688 
L 524.569237 -36.729688 
L 526.422509 -36.729688 
L 528.275781 -36.729688 
L 530.129052 -36.729688 
L 531.982324 -36.729688 
L 533.835596 -36.729688 
L 535.688868 -36.729688 
L 537.542139 -36.729688 
L 539.395411 -36.729688 
L 541.248683 -36.729688 
L 543.101955 -36.729688 
L 544.955226 -36.729688 
L 546.808498 -36.729688 
L 548.66177 -36.729688 
L 550.515042 -36.729688 
L 552.368313 -36.729688 
L 554.221585 -36.729688 
L 556.074857 -36.729688 
L 557.928129 -36.729688 
L 559.7814 -36.729688 
L 561.634672 -36.729688 
L 563.487944 -36.729688 
L 565.341216 -36.729688 
L 567.194487 -36.729688 
L 569.047759 -36.729688 
L 570.901031 -36.729688 
L 572.754303 -36.729688 
L 574.607574 -36.729688 
L 576.460846 -36.729688 
L 578.314118 -36.729688 
L 580.16739 -36.729688 
L 582.020661 -36.729688 
L 583.873933 -36.729688 
L 585.727205 -36.729688 
L 587.580477 -36.729688 
L 589.433749 -36.729688 
L 591.28702 -36.729688 
L 593.140292 -36.729688 
L 594.993564 -36.729688 
L 596.846836 -36.729688 
L 598.700107 -36.729688 
L 600.553379 -36.729688 
L 602.406651 -36.729688 
L 604.259923 -36.729688 
L 606.113194 -36.729688 
L 607.966466 -36.729688 
L 609.819738 -36.729688 
L 611.67301 -36.729688 
L 613.526281 -36.729688 
L 615.379553 -36.729688 
L 617.232825 -36.729688 
L 619.086097 -36.729688 
L 620.939368 -36.729688 
L 622.79264 -36.729688 
L 624.645912 -36.729688 
L 626.499184 -36.729688 
L 628.352455 -36.729688 
L 630.205727 -36.729688 
L 632.058999 -36.729688 
L 633.912271 -36.729688 
L 635.765542 -36.729688 
L 637.618814 -36.729688 
L 639.472086 -36.729688 
L 641.325358 -36.729688 
L 643.178629 -36.729688 
L 645.031901 -36.729688 
L 646.885173 -36.729688 
L 648.738445 -36.729688 
L 650.591716 -36.729688 
L 652.444988 -36.729688 
L 654.29826 -36.729688 
L 656.151532 -36.729688 
L 658.004804 -36.729688 
L 659.858075 -36.729688 
L 661.711347 -36.729688 
L 663.564619 -36.729688 
L 665.417891 -36.729688 
L 667.271162 -36.729688 
L 669.124434 -36.729688 
L 670.977706 -36.729688 
L 672.830978 -36.729688 
L 674.684249 -36.729688 
L 676.537521 -36.729688 
L 678.390793 -36.729688 
L 680.244065 -36.729688 
L 682.097336 -36.729688 
L 683.950608 -36.729688 
L 685.80388 -36.729688 
L 687.657152 -36.729688 
L 689.510423 -36.729688 
L 691.363695 -36.729688 
L 693.216967 -36.729688 
L 695.070239 -36.729688 
L 696.92351 -36.729688 
L 698.776782 -36.729688 
L 700.630054 -36.729688 
L 702.483326 -36.729688 
L 704.336597 -36.729688 
L 704.336597 -36.805385 
L 704.336597 -36.805385 
L 702.483326 -36.831938 
L 700.630054 -36.866595 
L 698.776782 -36.911407 
L 696.92351 -36.968805 
L 695.070239 -37.041643 
L 693.216967 -37.133217 
L 691.363695 -37.24729 
L 689.510423 -37.388096 
L 687.657152 -37.560328 
L 685.80388 -37.769117 
L 683.950608 -38.019986 
L 682.097336 -38.318786 
L 680.244065 -38.671616 
L 678.390793 -39.084724 
L 676.537521 -39.5644 
L 674.684249 -40.11685 
L 672.830978 -40.748082 
L 670.977706 -41.463781 
L 669.124434 -42.269201 
L 667.271162 -43.169072 
L 665.417891 -44.16753 
L 663.564619 -45.268067 
L 661.711347 -46.473518 
L 659.858075 -47.786074 
L 658.004804 -49.207316 
L 656.151532 -50.738284 
L 654.29826 -52.379555 
L 652.444988 -54.131334 
L 650.591716 -55.993548 
L 648.738445 -57.965931 
L 646.885173 -60.048099 
L 645.031901 -62.239599 
L 643.178629 -64.539936 
L 641.325358 -66.948576 
L 639.472086 -69.464915 
L 637.618814 -72.088235 
L 635.765542 -74.817633 
L 633.912271 -77.65195 
L 632.058999 -80.589694 
L 630.205727 -83.628968 
L 628.352455 -86.767419 
L 626.499184 -90.002212 
L 624.645912 -93.330016 
L 622.79264 -96.74704 
L 620.939368 -100.249074 
L 619.086097 -103.83157 
L 617.232825 -107.489733 
L 615.379553 -111.218616 
L 613.526281 -115.013225 
L 611.67301 -118.8686 
L 609.819738 -122.779891 
L 607.966466 -126.742393 
L 606.113194 -130.751563 
L 604.259923 -134.802988 
L 602.406651 -138.892331 
L 600.553379 -143.015245 
L 598.700107 -147.167255 
L 596.846836 -151.343642 
L 594.993564 -155.539304 
L 593.140292 -159.748637 
L 591.28702 -163.965425 
L 589.433749 -168.182762 
L 587.580477 -172.393001 
L 585.727205 -176.587749 
L 583.873933 -180.757892 
L 582.020661 -184.89367 
L 580.16739 -188.984783 
L 578.314118 -193.020522 
L 576.460846 -196.989924 
L 574.607574 -200.881938 
L 572.754303 -204.685588 
L 570.901031 -208.390123 
L 569.047759 -211.985143 
L 567.194487 -215.460705 
L 565.341216 -218.807371 
L 563.487944 -222.016233 
L 561.634672 -225.078873 
L 559.7814 -227.987296 
L 557.928129 -230.733805 
L 556.074857 -233.310849 
L 554.221585 -235.710845 
L 552.368313 -237.925974 
L 550.515042 -239.947988 
L 548.66177 -241.768021 
L 546.808498 -243.376431 
L 544.955226 -244.762683 
L 543.101955 -245.915295 
L 541.248683 -246.821854 
L 539.395411 -247.469105 
L 537.542139 -247.843145 
L 535.688868 -247.929688 
L 533.835596 -247.714426 
L 531.982324 -247.183469 
L 530.129052 -246.323841 
L 528.275781 -245.124029 
L 526.422509 -243.574544 
L 524.569237 -241.668487 
L 522.715965 -239.402072 
L 520.862694 -236.775093 
L 519.009422 -233.791295 
L 517.15615 -230.458641 
L 515.302878 -226.789435 
L 513.449606 -222.800303 
L 511.596335 -218.51203 
L 509.743063 -213.949236 
L 507.889791 -209.139918 
L 506.036519 -204.114875 
L 504.183248 -198.907034 
L 502.329976 -193.550701 
L 500.476704 -188.080799 
L 498.623432 -182.532084 
L 496.770161 -176.938415 
L 494.916889 -171.332082 
L 493.063617 -165.743229 
L 491.210345 -160.199393 
L 489.357074 -154.725168 
L 487.503802 -149.342005 
L 485.65053 -144.068141 
L 483.797258 -138.918652 
L 481.943987 -133.905613 
L 480.090715 -129.038341 
L 478.237443 -124.323709 
L 476.384171 -119.766489 
L 474.5309 -115.369716 
L 472.677628 -111.13504 
L 470.824356 -107.063047 
L 468.971084 -103.15354 
L 467.117813 -99.405758 
L 465.264541 -95.818541 
L 463.411269 -92.390432 
L 461.557997 -89.119721 
L 459.704726 -86.004441 
L 457.851454 -83.042335 
L 455.998182 -80.230794 
L 454.14491 -77.566792 
L 452.291638 -75.046832 
L 450.438367 -72.666903 
L 448.585095 -70.422478 
L 446.731823 -68.308547 
L 444.878551 -66.31968 
L 443.02528 -64.450144 
L 441.172008 -62.69404 
L 439.318736 -61.045465 
L 437.465464 -59.49869 
L 435.612193 -58.048323 
L 433.758921 -56.689461 
L 431.905649 -55.417802 
L 430.052377 -54.229713 
L 428.199106 -53.12224 
L 426.345834 -52.093061 
L 424.492562 -51.140372 
L 422.63929 -50.262726 
L 420.786019 -49.458828 
L 418.932747 -48.727298 
L 417.079475 -48.066427 
L 415.226203 -47.473949 
L 413.372932 -46.946841 
L 411.51966 -46.481171 
L 409.666388 -46.072021 
L 407.813116 -45.713479 
L 405.959845 -45.398715 
L 404.106573 -45.120137 
L 402.253301 -44.869615 
L 400.400029 -44.638763 
L 398.546758 -44.419255 
L 396.693486 -44.203156 
L 394.840214 -43.983251 
L 392.986942 -43.753328 
L 391.133671 -43.508422 
L 389.280399 -43.244987 
L 387.427127 -42.960988 
L 385.573855 -42.65591 
L 383.720583 -42.330692 
L 381.867312 -41.987582 
L 380.01404 -41.629931 
L 378.160768 -41.261945 
L 376.307496 -40.888409 
L 374.454225 -40.514405 
L 372.600953 -40.145033 
L 370.747681 -39.785166 
L 368.894409 -39.439236 
L 367.041138 -39.111073 
L 365.187866 -38.803783 
L 363.334594 -38.519692 
L 361.481322 -38.260326 
L 359.628051 -38.026437 
L 357.774779 -37.818071 
L 355.921507 -37.634652 
L 354.068235 -37.475086 
L 352.214964 -37.337879 
L 350.361692 -37.221247 
L 348.50842 -37.123226 
L 346.655148 -37.041768 
L 344.801877 -36.974823 
L 342.948605 -36.920411 
L 341.095333 -36.876666 
L 339.242061 -36.841877 
L 337.38879 -36.814507 
L 335.535518 -36.793204 
z
" style="stroke: #4c72b0"/>
    </defs>
    <g>
     <use xlink:href="#mb2140dc5a6" x="0" y="265.689687" style="fill: #4c72b0; fill-opacity: 0.25; stroke: #4c72b0"/>
    </g>
   </g>
   <g id="line2d_34">
    <path d="M 213.929644 228.96 
L 213.929644 7.2 
" style="fill: none; stroke-dasharray: 2.96,1.28; stroke-dashoffset: 0; stroke: #d3d3d3; stroke-width: 0.8"/>
   </g>
   <g id="line2d_35">
    <path d="M 428.552009 228.96 
L 428.552009 7.2 
" style="fill: none; stroke-dasharray: 2.96,1.28; stroke-dashoffset: 0; stroke: #d3d3d3; stroke-width: 0.8"/>
   </g>
   <g id="line2d_36">
    <path d="M 337.26431 228.96 
L 337.26431 7.2 
" style="fill: none; stroke-dasharray: 2.96,1.28; stroke-dashoffset: 0; stroke: #d3d3d3; stroke-width: 0.8"/>
   </g>
   <g id="line2d_37">
    <path d="M 7.2 228.96 
L 844.2 228.96 
" style="fill: none; stroke: #808080; stroke-width: 0.5; stroke-linecap: round"/>
   </g>
   <g id="text_12">
    <text style="font-size: 8px; font-family: 'Arial', 'DejaVu Sans', 'Liberation Sans', 'Bitstream Vera Sans', sans-serif; fill: #808080" transform="translate(220.183394 124.59635) rotate(-90)">International Poverty Line: $3.00</text>
   </g>
   <g id="text_13">
    <text style="font-size: 8px; font-family: 'Arial', 'DejaVu Sans', 'Liberation Sans', 'Bitstream Vera Sans', sans-serif; fill: #808080" transform="translate(434.278259 81.31135) rotate(-90)">World mean: $21.69</text>
   </g>
   <g id="text_14">
    <text style="font-size: 8px; font-family: 'Arial', 'DejaVu Sans', 'Liberation Sans', 'Bitstream Vera Sans', sans-serif; fill: #808080" transform="translate(342.99056 83.08885) rotate(-90)">World median: $9.35</text>
   </g>
   <g id="text_15">
    <text style="font-size: 10px; font-family: 'Arial', 'DejaVu Sans', 'Liberation Sans', 'Bitstream Vera Sans', sans-serif; text-anchor: middle" x="540.059043" y="226.855312" transform="rotate(-0 540.059043 226.855312)">Denmark (2022)</text>
   </g>
   <g id="text_16">
    <text style="font-size: 10px; font-family: 'Arial', 'DejaVu Sans', 'Liberation Sans', 'Bitstream Vera Sans', sans-serif; text-anchor: middle" x="200.184317" y="226.855312" transform="rotate(-0 200.184317 226.855312)">Niger (2021)</text>
   </g>
  </g>
 </g>
</svg>
