<?xml version="1.0" encoding="utf-8" standalone="no"?>
<!DOCTYPE svg PUBLIC "-//W3C//DTD SVG 1.1//EN"
  "http://www.w3.org/Graphics/SVG/1.1/DTD/svg11.dtd">
<svg xmlns:xlink="http://www.w3.org/1999/xlink" width="865.302344pt" height="265.689687pt" viewBox="0 0 865.302344 265.689687" xmlns="http://www.w3.org/2000/svg" version="1.1">
 <metadata>
  <rdf:RDF xmlns:dc="http://purl.org/dc/elements/1.1/" xmlns:cc="http://creativecommons.org/ns#" xmlns:rdf="http://www.w3.org/1999/02/22-rdf-syntax-ns#">
   <cc:Work>
    <dc:type rdf:resource="http://purl.org/dc/dcmitype/StillImage"/>
    <dc:date>2026-01-02T17:38:46.377308</dc:date>
    <dc:format>image/svg+xml</dc:format>
    <dc:creator>
     <cc:Agent>
      <dc:title>Matplotlib v3.10.1, https://matplotlib.org/</dc:title>
     </cc:Agent>
    </dc:creator>
   </cc:Work>
  </rdf:RDF>
 </metadata>
 <defs>
  <style type="text/css">*{stroke-linejoin: round; stroke-linecap: butt}</style>
 </defs>
 <g id="figure_1">
  <g id="patch_1">
   <path d="M 0 265.689687 
L 865.302344 265.689687 
L 865.302344 0 
L 0 0 
z
" style="fill: #ffffff"/>
  </g>
  <g id="axes_1">
   <g id="patch_2">
    <path d="M 7.2 228.96 
L 844.2 228.96 
L 844.2 7.2 
L 7.2 7.2 
z
" style="fill: #ffffff"/>
   </g>
   <g id="matplotlib.axis_1">
    <g id="xtick_1">
     <g id="line2d_1">
      <defs>
       <path id="m44bd539155" d="M 0 0 
L 0 3.5 
" style="stroke: #262626; stroke-width: 0.8"/>
      </defs>
      <g>
       <use xlink:href="#m44bd539155" x="226.397189" y="228.96" style="fill: #262626; stroke: #262626; stroke-width: 0.8"/>
      </g>
     </g>
     <g id="text_1">
      <text style="font-size: 10px; font-family: 'Arial', 'DejaVu Sans', 'Liberation Sans', 'Bitstream Vera Sans', sans-serif; text-anchor: middle; fill: #262626" x="226.397189" y="243.117812" transform="rotate(-0 226.397189 243.117812)">$1</text>
     </g>
    </g>
    <g id="xtick_2">
     <g id="line2d_2">
      <g>
       <use xlink:href="#m44bd539155" x="288.389582" y="228.96" style="fill: #262626; stroke: #262626; stroke-width: 0.8"/>
      </g>
     </g>
     <g id="text_2">
      <text style="font-size: 10px; font-family: 'Arial', 'DejaVu Sans', 'Liberation Sans', 'Bitstream Vera Sans', sans-serif; text-anchor: middle; fill: #262626" x="288.389582" y="243.117812" transform="rotate(-0 288.389582 243.117812)">$2</text>
     </g>
    </g>
    <g id="xtick_3">
     <g id="line2d_3">
      <g>
       <use xlink:href="#m44bd539155" x="370.339067" y="228.96" style="fill: #262626; stroke: #262626; stroke-width: 0.8"/>
      </g>
     </g>
     <g id="text_3">
      <text style="font-size: 10px; font-family: 'Arial', 'DejaVu Sans', 'Liberation Sans', 'Bitstream Vera Sans', sans-serif; text-anchor: middle; fill: #262626" x="370.339067" y="243.117812" transform="rotate(-0 370.339067 243.117812)">$5</text>
     </g>
    </g>
    <g id="xtick_4">
     <g id="line2d_4">
      <g>
       <use xlink:href="#m44bd539155" x="432.331459" y="228.96" style="fill: #262626; stroke: #262626; stroke-width: 0.8"/>
      </g>
     </g>
     <g id="text_4">
      <text style="font-size: 10px; font-family: 'Arial', 'DejaVu Sans', 'Liberation Sans', 'Bitstream Vera Sans', sans-serif; text-anchor: middle; fill: #262626" x="432.331459" y="243.117812" transform="rotate(-0 432.331459 243.117812)">$10</text>
     </g>
    </g>
    <g id="xtick_5">
     <g id="line2d_5">
      <g>
       <use xlink:href="#m44bd539155" x="494.323852" y="228.96" style="fill: #262626; stroke: #262626; stroke-width: 0.8"/>
      </g>
     </g>
     <g id="text_5">
      <text style="font-size: 10px; font-family: 'Arial', 'DejaVu Sans', 'Liberation Sans', 'Bitstream Vera Sans', sans-serif; text-anchor: middle; fill: #262626" x="494.323852" y="243.117812" transform="rotate(-0 494.323852 243.117812)">$20</text>
     </g>
    </g>
    <g id="xtick_6">
     <g id="line2d_6">
      <g>
       <use xlink:href="#m44bd539155" x="576.273337" y="228.96" style="fill: #262626; stroke: #262626; stroke-width: 0.8"/>
      </g>
     </g>
     <g id="text_6">
      <text style="font-size: 10px; font-family: 'Arial', 'DejaVu Sans', 'Liberation Sans', 'Bitstream Vera Sans', sans-serif; text-anchor: middle; fill: #262626" x="576.273337" y="243.117812" transform="rotate(-0 576.273337 243.117812)">$50</text>
     </g>
    </g>
    <g id="xtick_7">
     <g id="line2d_7">
      <g>
       <use xlink:href="#m44bd539155" x="638.26573" y="228.96" style="fill: #262626; stroke: #262626; stroke-width: 0.8"/>
      </g>
     </g>
     <g id="text_7">
      <text style="font-size: 10px; font-family: 'Arial', 'DejaVu Sans', 'Liberation Sans', 'Bitstream Vera Sans', sans-serif; text-anchor: middle; fill: #262626" x="638.26573" y="243.117812" transform="rotate(-0 638.26573 243.117812)">$100</text>
     </g>
    </g>
    <g id="xtick_8">
     <g id="line2d_8">
      <g>
       <use xlink:href="#m44bd539155" x="700.258122" y="228.96" style="fill: #262626; stroke: #262626; stroke-width: 0.8"/>
      </g>
     </g>
     <g id="text_8">
      <text style="font-size: 10px; font-family: 'Arial', 'DejaVu Sans', 'Liberation Sans', 'Bitstream Vera Sans', sans-serif; text-anchor: middle; fill: #262626" x="700.258122" y="243.117812" transform="rotate(-0 700.258122 243.117812)">$200</text>
     </g>
    </g>
    <g id="xtick_9">
     <g id="line2d_9">
      <g>
       <use xlink:href="#m44bd539155" x="782.207608" y="228.96" style="fill: #262626; stroke: #262626; stroke-width: 0.8"/>
      </g>
     </g>
     <g id="text_9">
      <text style="font-size: 10px; font-family: 'Arial', 'DejaVu Sans', 'Liberation Sans', 'Bitstream Vera Sans', sans-serif; text-anchor: middle; fill: #262626" x="782.207608" y="243.117812" transform="rotate(-0 782.207608 243.117812)">$500</text>
     </g>
    </g>
    <g id="xtick_10">
     <g id="line2d_10">
      <g>
       <use xlink:href="#m44bd539155" x="844.2" y="228.96" style="fill: #262626; stroke: #262626; stroke-width: 0.8"/>
      </g>
     </g>
     <g id="text_10">
      <text style="font-size: 10px; font-family: 'Arial', 'DejaVu Sans', 'Liberation Sans', 'Bitstream Vera Sans', sans-serif; text-anchor: middle; fill: #262626" x="844.2" y="243.117812" transform="rotate(-0 844.2 243.117812)">$1000</text>
     </g>
    </g>
    <g id="xtick_11">
     <g id="line2d_11">
      <defs>
       <path id="m0e7bdfd476" d="M 0 0 
L 0 2 
" style="stroke: #262626; stroke-width: 0.6"/>
      </defs>
      <g>
       <use xlink:href="#m0e7bdfd476" x="11.039883" y="228.96" style="fill: #262626; stroke: #262626; stroke-width: 0.6"/>
      </g>
     </g>
    </g>
    <g id="xtick_12">
     <g id="line2d_12">
      <g>
       <use xlink:href="#m0e7bdfd476" x="82.455311" y="228.96" style="fill: #262626; stroke: #262626; stroke-width: 0.6"/>
      </g>
     </g>
    </g>
    <g id="xtick_13">
     <g id="line2d_13">
      <g>
       <use xlink:href="#m0e7bdfd476" x="118.718536" y="228.96" style="fill: #262626; stroke: #262626; stroke-width: 0.6"/>
      </g>
     </g>
    </g>
    <g id="xtick_14">
     <g id="line2d_14">
      <g>
       <use xlink:href="#m0e7bdfd476" x="144.447704" y="228.96" style="fill: #262626; stroke: #262626; stroke-width: 0.6"/>
      </g>
     </g>
    </g>
    <g id="xtick_15">
     <g id="line2d_15">
      <g>
       <use xlink:href="#m0e7bdfd476" x="164.404797" y="228.96" style="fill: #262626; stroke: #262626; stroke-width: 0.6"/>
      </g>
     </g>
    </g>
    <g id="xtick_16">
     <g id="line2d_16">
      <g>
       <use xlink:href="#m0e7bdfd476" x="180.710929" y="228.96" style="fill: #262626; stroke: #262626; stroke-width: 0.6"/>
      </g>
     </g>
    </g>
    <g id="xtick_17">
     <g id="line2d_17">
      <g>
       <use xlink:href="#m0e7bdfd476" x="194.497567" y="228.96" style="fill: #262626; stroke: #262626; stroke-width: 0.6"/>
      </g>
     </g>
    </g>
    <g id="xtick_18">
     <g id="line2d_18">
      <g>
       <use xlink:href="#m0e7bdfd476" x="206.440096" y="228.96" style="fill: #262626; stroke: #262626; stroke-width: 0.6"/>
      </g>
     </g>
    </g>
    <g id="xtick_19">
     <g id="line2d_19">
      <g>
       <use xlink:href="#m0e7bdfd476" x="216.974154" y="228.96" style="fill: #262626; stroke: #262626; stroke-width: 0.6"/>
      </g>
     </g>
    </g>
    <g id="xtick_20">
     <g id="line2d_20">
      <g>
       <use xlink:href="#m0e7bdfd476" x="324.652807" y="228.96" style="fill: #262626; stroke: #262626; stroke-width: 0.6"/>
      </g>
     </g>
    </g>
    <g id="xtick_21">
     <g id="line2d_21">
      <g>
       <use xlink:href="#m0e7bdfd476" x="350.381974" y="228.96" style="fill: #262626; stroke: #262626; stroke-width: 0.6"/>
      </g>
     </g>
    </g>
    <g id="xtick_22">
     <g id="line2d_22">
      <g>
       <use xlink:href="#m0e7bdfd476" x="386.645199" y="228.96" style="fill: #262626; stroke: #262626; stroke-width: 0.6"/>
      </g>
     </g>
    </g>
    <g id="xtick_23">
     <g id="line2d_23">
      <g>
       <use xlink:href="#m0e7bdfd476" x="400.431837" y="228.96" style="fill: #262626; stroke: #262626; stroke-width: 0.6"/>
      </g>
     </g>
    </g>
    <g id="xtick_24">
     <g id="line2d_24">
      <g>
       <use xlink:href="#m0e7bdfd476" x="412.374367" y="228.96" style="fill: #262626; stroke: #262626; stroke-width: 0.6"/>
      </g>
     </g>
    </g>
    <g id="xtick_25">
     <g id="line2d_25">
      <g>
       <use xlink:href="#m0e7bdfd476" x="422.908424" y="228.96" style="fill: #262626; stroke: #262626; stroke-width: 0.6"/>
      </g>
     </g>
    </g>
    <g id="xtick_26">
     <g id="line2d_26">
      <g>
       <use xlink:href="#m0e7bdfd476" x="530.587077" y="228.96" style="fill: #262626; stroke: #262626; stroke-width: 0.6"/>
      </g>
     </g>
    </g>
    <g id="xtick_27">
     <g id="line2d_27">
      <g>
       <use xlink:href="#m0e7bdfd476" x="556.316244" y="228.96" style="fill: #262626; stroke: #262626; stroke-width: 0.6"/>
      </g>
     </g>
    </g>
    <g id="xtick_28">
     <g id="line2d_28">
      <g>
       <use xlink:href="#m0e7bdfd476" x="592.579469" y="228.96" style="fill: #262626; stroke: #262626; stroke-width: 0.6"/>
      </g>
     </g>
    </g>
    <g id="xtick_29">
     <g id="line2d_29">
      <g>
       <use xlink:href="#m0e7bdfd476" x="606.366108" y="228.96" style="fill: #262626; stroke: #262626; stroke-width: 0.6"/>
      </g>
     </g>
    </g>
    <g id="xtick_30">
     <g id="line2d_30">
      <g>
       <use xlink:href="#m0e7bdfd476" x="618.308637" y="228.96" style="fill: #262626; stroke: #262626; stroke-width: 0.6"/>
      </g>
     </g>
    </g>
    <g id="xtick_31">
     <g id="line2d_31">
      <g>
       <use xlink:href="#m0e7bdfd476" x="628.842694" y="228.96" style="fill: #262626; stroke: #262626; stroke-width: 0.6"/>
      </g>
     </g>
    </g>
    <g id="xtick_32">
     <g id="line2d_32">
      <g>
       <use xlink:href="#m0e7bdfd476" x="736.521347" y="228.96" style="fill: #262626; stroke: #262626; stroke-width: 0.6"/>
      </g>
     </g>
    </g>
    <g id="xtick_33">
     <g id="line2d_33">
      <g>
       <use xlink:href="#m0e7bdfd476" x="762.250515" y="228.96" style="fill: #262626; stroke: #262626; stroke-width: 0.6"/>
      </g>
     </g>
    </g>
    <g id="xtick_34">
     <g id="line2d_34">
      <g>
       <use xlink:href="#m0e7bdfd476" x="798.51374" y="228.96" style="fill: #262626; stroke: #262626; stroke-width: 0.6"/>
      </g>
     </g>
    </g>
    <g id="xtick_35">
     <g id="line2d_35">
      <g>
       <use xlink:href="#m0e7bdfd476" x="812.300378" y="228.96" style="fill: #262626; stroke: #262626; stroke-width: 0.6"/>
      </g>
     </g>
    </g>
    <g id="xtick_36">
     <g id="line2d_36">
      <g>
       <use xlink:href="#m0e7bdfd476" x="824.242907" y="228.96" style="fill: #262626; stroke: #262626; stroke-width: 0.6"/>
      </g>
     </g>
    </g>
    <g id="xtick_37">
     <g id="line2d_37">
      <g>
       <use xlink:href="#m0e7bdfd476" x="834.776965" y="228.96" style="fill: #262626; stroke: #262626; stroke-width: 0.6"/>
      </g>
     </g>
    </g>
    <g id="text_11">
     <text style="font-size: 10px; font-family: 'Arial', 'DejaVu Sans', 'Liberation Sans', 'Bitstream Vera Sans', sans-serif; text-anchor: middle; fill: #262626" x="425.7" y="256.385" transform="rotate(-0 425.7 256.385)">Income or consumption (day)</text>
    </g>
   </g>
   <g id="matplotlib.axis_2"/>
   <g id="FillBetweenPolyCollection_1">
    <defs>
     <path id="m013777567c" d="M 41.598938 -36.777508 
L 41.598938 -36.729688 
L 43.798758 -36.729688 
L 45.998579 -36.729688 
L 48.198399 -36.729688 
L 50.39822 -36.729688 
L 52.59804 -36.729688 
L 54.797861 -36.729688 
L 56.997682 -36.729688 
L 59.197502 -36.729688 
L 61.397323 -36.729688 
L 63.597143 -36.729688 
L 65.796964 -36.729688 
L 67.996784 -36.729688 
L 70.196605 -36.729688 
L 72.396426 -36.729688 
L 74.596246 -36.729688 
L 76.796067 -36.729688 
L 78.995887 -36.729688 
L 81.195708 -36.729688 
L 83.395528 -36.729688 
L 85.595349 -36.729688 
L 87.79517 -36.729688 
L 89.99499 -36.729688 
L 92.194811 -36.729688 
L 94.394631 -36.729688 
L 96.594452 -36.729688 
L 98.794272 -36.729688 
L 100.994093 -36.729688 
L 103.193914 -36.729688 
L 105.393734 -36.729688 
L 107.593555 -36.729688 
L 109.793375 -36.729688 
L 111.993196 -36.729688 
L 114.193016 -36.729688 
L 116.392837 -36.729688 
L 118.592658 -36.729688 
L 120.792478 -36.729688 
L 122.992299 -36.729688 
L 125.192119 -36.729688 
L 127.39194 -36.729688 
L 129.59176 -36.729688 
L 131.791581 -36.729688 
L 133.991402 -36.729688 
L 136.191222 -36.729688 
L 138.391043 -36.729688 
L 140.590863 -36.729688 
L 142.790684 -36.729688 
L 144.990504 -36.729688 
L 147.190325 -36.729688 
L 149.390146 -36.729688 
L 151.589966 -36.729688 
L 153.789787 -36.729688 
L 155.989607 -36.729688 
L 158.189428 -36.729688 
L 160.389248 -36.729688 
L 162.589069 -36.729688 
L 164.78889 -36.729688 
L 166.98871 -36.729688 
L 169.188531 -36.729688 
L 171.388351 -36.729688 
L 173.588172 -36.729688 
L 175.787992 -36.729688 
L 177.987813 -36.729688 
L 180.187634 -36.729688 
L 182.387454 -36.729688 
L 184.587275 -36.729688 
L 186.787095 -36.729688 
L 188.986916 -36.729688 
L 191.186736 -36.729688 
L 193.386557 -36.729688 
L 195.586378 -36.729688 
L 197.786198 -36.729688 
L 199.986019 -36.729688 
L 202.185839 -36.729688 
L 204.38566 -36.729688 
L 206.58548 -36.729688 
L 208.785301 -36.729688 
L 210.985121 -36.729688 
L 213.184942 -36.729688 
L 215.384763 -36.729688 
L 217.584583 -36.729688 
L 219.784404 -36.729688 
L 221.984224 -36.729688 
L 224.184045 -36.729688 
L 226.383865 -36.729688 
L 228.583686 -36.729688 
L 230.783507 -36.729688 
L 232.983327 -36.729688 
L 235.183148 -36.729688 
L 237.382968 -36.729688 
L 239.582789 -36.729688 
L 241.782609 -36.729688 
L 243.98243 -36.729688 
L 246.182251 -36.729688 
L 248.382071 -36.729688 
L 250.581892 -36.729688 
L 252.781712 -36.729688 
L 254.981533 -36.729688 
L 257.181353 -36.729688 
L 259.381174 -36.729688 
L 261.580995 -36.729688 
L 263.780815 -36.729688 
L 265.980636 -36.729688 
L 268.180456 -36.729688 
L 270.380277 -36.729688 
L 272.580097 -36.729688 
L 274.779918 -36.729688 
L 276.979739 -36.729688 
L 279.179559 -36.729688 
L 281.37938 -36.729688 
L 283.5792 -36.729688 
L 285.779021 -36.729688 
L 287.978841 -36.729688 
L 290.178662 -36.729688 
L 292.378483 -36.729688 
L 294.578303 -36.729688 
L 296.778124 -36.729688 
L 298.977944 -36.729688 
L 301.177765 -36.729688 
L 303.377585 -36.729688 
L 305.577406 -36.729688 
L 307.777227 -36.729688 
L 309.977047 -36.729688 
L 312.176868 -36.729688 
L 314.376688 -36.729688 
L 316.576509 -36.729688 
L 318.776329 -36.729688 
L 320.97615 -36.729688 
L 323.175971 -36.729688 
L 325.375791 -36.729688 
L 327.575612 -36.729688 
L 329.775432 -36.729688 
L 331.975253 -36.729688 
L 334.175073 -36.729688 
L 336.374894 -36.729688 
L 338.574715 -36.729688 
L 340.774535 -36.729688 
L 342.974356 -36.729688 
L 345.174176 -36.729688 
L 347.373997 -36.729688 
L 349.573817 -36.729688 
L 351.773638 -36.729688 
L 353.973459 -36.729688 
L 356.173279 -36.729688 
L 358.3731 -36.729688 
L 360.57292 -36.729688 
L 362.772741 -36.729688 
L 364.972561 -36.729688 
L 367.172382 -36.729688 
L 369.372203 -36.729688 
L 371.572023 -36.729688 
L 373.771844 -36.729688 
L 375.971664 -36.729688 
L 378.171485 -36.729688 
L 380.371305 -36.729688 
L 382.571126 -36.729688 
L 384.770947 -36.729688 
L 386.970767 -36.729688 
L 389.170588 -36.729688 
L 391.370408 -36.729688 
L 393.570229 -36.729688 
L 395.770049 -36.729688 
L 397.96987 -36.729688 
L 400.16969 -36.729688 
L 402.369511 -36.729688 
L 404.569332 -36.729688 
L 406.769152 -36.729688 
L 408.968973 -36.729688 
L 411.168793 -36.729688 
L 413.368614 -36.729688 
L 415.568434 -36.729688 
L 417.768255 -36.729688 
L 419.968076 -36.729688 
L 422.167896 -36.729688 
L 424.367717 -36.729688 
L 426.567537 -36.729688 
L 428.767358 -36.729688 
L 430.967178 -36.729688 
L 433.166999 -36.729688 
L 435.36682 -36.729688 
L 437.56664 -36.729688 
L 439.766461 -36.729688 
L 441.966281 -36.729688 
L 444.166102 -36.729688 
L 446.365922 -36.729688 
L 448.565743 -36.729688 
L 450.765564 -36.729688 
L 452.965384 -36.729688 
L 455.165205 -36.729688 
L 457.365025 -36.729688 
L 459.564846 -36.729688 
L 461.764666 -36.729688 
L 463.964487 -36.729688 
L 466.164308 -36.729688 
L 468.364128 -36.729688 
L 470.563949 -36.729688 
L 472.763769 -36.729688 
L 474.96359 -36.729688 
L 477.16341 -36.729688 
L 479.363231 -36.729688 
L 479.363231 -36.775096 
L 479.363231 -36.775096 
L 477.16341 -36.789484 
L 474.96359 -36.807839 
L 472.763769 -36.831064 
L 470.563949 -36.860214 
L 468.364128 -36.896505 
L 466.164308 -36.941322 
L 463.964487 -36.996224 
L 461.764666 -37.062943 
L 459.564846 -37.14338 
L 457.365025 -37.239587 
L 455.165205 -37.353751 
L 452.965384 -37.488167 
L 450.765564 -37.645202 
L 448.565743 -37.827254 
L 446.365922 -38.036702 
L 444.166102 -38.275858 
L 441.966281 -38.546908 
L 439.766461 -38.851858 
L 437.56664 -39.192477 
L 435.36682 -39.570248 
L 433.166999 -39.986326 
L 430.967178 -40.441503 
L 428.767358 -40.936185 
L 426.567537 -41.470384 
L 424.367717 -42.043726 
L 422.167896 -42.655474 
L 419.968076 -43.304562 
L 417.768255 -43.989649 
L 415.568434 -44.70918 
L 413.368614 -45.461466 
L 411.168793 -46.244758 
L 408.968973 -47.057331 
L 406.769152 -47.897572 
L 404.569332 -48.764052 
L 402.369511 -49.655598 
L 400.16969 -50.571354 
L 397.96987 -51.51082 
L 395.770049 -52.473885 
L 393.570229 -53.460831 
L 391.370408 -54.472332 
L 389.170588 -55.509426 
L 386.970767 -56.573473 
L 384.770947 -57.666103 
L 382.571126 -58.789151 
L 380.371305 -59.944582 
L 378.171485 -61.134419 
L 375.971664 -62.360662 
L 373.771844 -63.625222 
L 371.572023 -64.929849 
L 369.372203 -66.276084 
L 367.172382 -67.665213 
L 364.972561 -69.098243 
L 362.772741 -70.575884 
L 360.57292 -72.09856 
L 358.3731 -73.666415 
L 356.173279 -75.27935 
L 353.973459 -76.937055 
L 351.773638 -78.639053 
L 349.573817 -80.38475 
L 347.373997 -82.173472 
L 345.174176 -84.004511 
L 342.974356 -85.877154 
L 340.774535 -87.790707 
L 338.574715 -89.744497 
L 336.374894 -91.737874 
L 334.175073 -93.77019 
L 331.975253 -95.840766 
L 329.775432 -97.948852 
L 327.575612 -100.093576 
L 325.375791 -102.273889 
L 323.175971 -104.48851 
L 320.97615 -106.735867 
L 318.776329 -109.014049 
L 316.576509 -111.320765 
L 314.376688 -113.65331 
L 312.176868 -116.008547 
L 309.977047 -118.382894 
L 307.777227 -120.772332 
L 305.577406 -123.17241 
L 303.377585 -125.578274 
L 301.177765 -127.984684 
L 298.977944 -130.386051 
L 296.778124 -132.77646 
L 294.578303 -135.149698 
L 292.378483 -137.499278 
L 290.178662 -139.818456 
L 287.978841 -142.10024 
L 285.779021 -144.337397 
L 283.5792 -146.522459 
L 281.37938 -148.647716 
L 279.179559 -150.705225 
L 276.979739 -152.686811 
L 274.779918 -154.58408 
L 272.580097 -156.388445 
L 270.380277 -158.091159 
L 268.180456 -159.683374 
L 265.980636 -161.156205 
L 263.780815 -162.500824 
L 261.580995 -163.708563 
L 259.381174 -164.771038 
L 257.181353 -165.68028 
L 254.981533 -166.42888 
L 252.781712 -167.010139 
L 250.581892 -167.418209 
L 248.382071 -167.648234 
L 246.182251 -167.696474 
L 243.98243 -167.560409 
L 241.782609 -167.238825 
L 239.582789 -166.731863 
L 237.382968 -166.041046 
L 235.183148 -165.169264 
L 232.983327 -164.12074 
L 230.783507 -162.900949 
L 228.583686 -161.516523 
L 226.383865 -159.975128 
L 224.184045 -158.285317 
L 221.984224 -156.456381 
L 219.784404 -154.498185 
L 217.584583 -152.421004 
L 215.384763 -150.235373 
L 213.184942 -147.951935 
L 210.985121 -145.581307 
L 208.785301 -143.133967 
L 206.58548 -140.620152 
L 204.38566 -138.049776 
L 202.185839 -135.43237 
L 199.986019 -132.77703 
L 197.786198 -130.092388 
L 195.586378 -127.386589 
L 193.386557 -124.667281 
L 191.186736 -121.941611 
L 188.986916 -119.21623 
L 186.787095 -116.497297 
L 184.587275 -113.790494 
L 182.387454 -111.101035 
L 180.187634 -108.433689 
L 177.987813 -105.792795 
L 175.787992 -103.182285 
L 173.588172 -100.60571 
L 171.388351 -98.066268 
L 169.188531 -95.56683 
L 166.98871 -93.109968 
L 164.78889 -90.69799 
L 162.589069 -88.332959 
L 160.389248 -86.016723 
L 158.189428 -83.750931 
L 155.989607 -81.537051 
L 153.789787 -79.376377 
L 151.589966 -77.270036 
L 149.390146 -75.218986 
L 147.190325 -73.224015 
L 144.990504 -71.285738 
L 142.790684 -69.40459 
L 140.590863 -67.58083 
L 138.391043 -65.814538 
L 136.191222 -64.105633 
L 133.991402 -62.453883 
L 131.791581 -60.85893 
L 129.59176 -59.32032 
L 127.39194 -57.837536 
L 125.192119 -56.410037 
L 122.992299 -55.037295 
L 120.792478 -53.71883 
L 118.592658 -52.454237 
L 116.392837 -51.243211 
L 114.193016 -50.085557 
L 111.993196 -48.981187 
L 109.793375 -47.930111 
L 107.593555 -46.932408 
L 105.393734 -45.988195 
L 103.193914 -45.097578 
L 100.994093 -44.260607 
L 98.794272 -43.477223 
L 96.594452 -42.747202 
L 94.394631 -42.070114 
L 92.194811 -41.44528 
L 89.99499 -40.871744 
L 87.79517 -40.348253 
L 85.595349 -39.873251 
L 83.395528 -39.444889 
L 81.195708 -39.061042 
L 78.995887 -38.71934 
L 76.796067 -38.417206 
L 74.596246 -38.151905 
L 72.396426 -37.920592 
L 70.196605 -37.720364 
L 67.996784 -37.548313 
L 65.796964 -37.40157 
L 63.597143 -37.277355 
L 61.397323 -37.173009 
L 59.197502 -37.086028 
L 56.997682 -37.014083 
L 54.797861 -36.95504 
L 52.59804 -36.906967 
L 50.39822 -36.868134 
L 48.198399 -36.837015 
L 45.998579 -36.812277 
L 43.798758 -36.792769 
L 41.598938 -36.777508 
z
" style="stroke: #dd8452"/>
    </defs>
    <g>
     <use xlink:href="#m013777567c" x="0" y="265.689687" style="fill: #dd8452; fill-opacity: 0.25; stroke: #dd8452"/>
    </g>
   </g>
   <g id="FillBetweenPolyCollection_2">
    <defs>
     <path id="mab841bcce9" d="M 443.926783 -36.794212 
L 443.926783 -36.729688 
L 445.362215 -36.729688 
L 446.797646 -36.729688 
L 448.233078 -36.729688 
L 449.66851 -36.729688 
L 451.103942 -36.729688 
L 452.539373 -36.729688 
L 453.974805 -36.729688 
L 455.410237 -36.729688 
L 456.845668 -36.729688 
L 458.2811 -36.729688 
L 459.716532 -36.729688 
L 461.151963 -36.729688 
L 462.587395 -36.729688 
L 464.022827 -36.729688 
L 465.458258 -36.729688 
L 466.89369 -36.729688 
L 468.329122 -36.729688 
L 469.764554 -36.729688 
L 471.199985 -36.729688 
L 472.635417 -36.729688 
L 474.070849 -36.729688 
L 475.50628 -36.729688 
L 476.941712 -36.729688 
L 478.377144 -36.729688 
L 479.812575 -36.729688 
L 481.248007 -36.729688 
L 482.683439 -36.729688 
L 484.11887 -36.729688 
L 485.554302 -36.729688 
L 486.989734 -36.729688 
L 488.425166 -36.729688 
L 489.860597 -36.729688 
L 491.296029 -36.729688 
L 492.731461 -36.729688 
L 494.166892 -36.729688 
L 495.602324 -36.729688 
L 497.037756 -36.729688 
L 498.473187 -36.729688 
L 499.908619 -36.729688 
L 501.344051 -36.729688 
L 502.779482 -36.729688 
L 504.214914 -36.729688 
L 505.650346 -36.729688 
L 507.085778 -36.729688 
L 508.521209 -36.729688 
L 509.956641 -36.729688 
L 511.392073 -36.729688 
L 512.827504 -36.729688 
L 514.262936 -36.729688 
L 515.698368 -36.729688 
L 517.133799 -36.729688 
L 518.569231 -36.729688 
L 520.004663 -36.729688 
L 521.440094 -36.729688 
L 522.875526 -36.729688 
L 524.310958 -36.729688 
L 525.74639 -36.729688 
L 527.181821 -36.729688 
L 528.617253 -36.729688 
L 530.052685 -36.729688 
L 531.488116 -36.729688 
L 532.923548 -36.729688 
L 534.35898 -36.729688 
L 535.794411 -36.729688 
L 537.229843 -36.729688 
L 538.665275 -36.729688 
L 540.100706 -36.729688 
L 541.536138 -36.729688 
L 542.97157 -36.729688 
L 544.407002 -36.729688 
L 545.842433 -36.729688 
L 547.277865 -36.729688 
L 548.713297 -36.729688 
L 550.148728 -36.729688 
L 551.58416 -36.729688 
L 553.019592 -36.729688 
L 554.455023 -36.729688 
L 555.890455 -36.729688 
L 557.325887 -36.729688 
L 558.761319 -36.729688 
L 560.19675 -36.729688 
L 561.632182 -36.729688 
L 563.067614 -36.729688 
L 564.503045 -36.729688 
L 565.938477 -36.729688 
L 567.373909 -36.729688 
L 568.80934 -36.729688 
L 570.244772 -36.729688 
L 571.680204 -36.729688 
L 573.115635 -36.729688 
L 574.551067 -36.729688 
L 575.986499 -36.729688 
L 577.421931 -36.729688 
L 578.857362 -36.729688 
L 580.292794 -36.729688 
L 581.728226 -36.729688 
L 583.163657 -36.729688 
L 584.599089 -36.729688 
L 586.034521 -36.729688 
L 587.469952 -36.729688 
L 588.905384 -36.729688 
L 590.340816 -36.729688 
L 591.776247 -36.729688 
L 593.211679 -36.729688 
L 594.647111 -36.729688 
L 596.082543 -36.729688 
L 597.517974 -36.729688 
L 598.953406 -36.729688 
L 600.388838 -36.729688 
L 601.824269 -36.729688 
L 603.259701 -36.729688 
L 604.695133 -36.729688 
L 606.130564 -36.729688 
L 607.565996 -36.729688 
L 609.001428 -36.729688 
L 610.436859 -36.729688 
L 611.872291 -36.729688 
L 613.307723 -36.729688 
L 614.743155 -36.729688 
L 616.178586 -36.729688 
L 617.614018 -36.729688 
L 619.04945 -36.729688 
L 620.484881 -36.729688 
L 621.920313 -36.729688 
L 623.355745 -36.729688 
L 624.791176 -36.729688 
L 626.226608 -36.729688 
L 627.66204 -36.729688 
L 629.097471 -36.729688 
L 630.532903 -36.729688 
L 631.968335 -36.729688 
L 633.403767 -36.729688 
L 634.839198 -36.729688 
L 636.27463 -36.729688 
L 637.710062 -36.729688 
L 639.145493 -36.729688 
L 640.580925 -36.729688 
L 642.016357 -36.729688 
L 643.451788 -36.729688 
L 644.88722 -36.729688 
L 646.322652 -36.729688 
L 647.758084 -36.729688 
L 649.193515 -36.729688 
L 650.628947 -36.729688 
L 652.064379 -36.729688 
L 653.49981 -36.729688 
L 654.935242 -36.729688 
L 656.370674 -36.729688 
L 657.806105 -36.729688 
L 659.241537 -36.729688 
L 660.676969 -36.729688 
L 662.1124 -36.729688 
L 663.547832 -36.729688 
L 664.983264 -36.729688 
L 666.418696 -36.729688 
L 667.854127 -36.729688 
L 669.289559 -36.729688 
L 670.724991 -36.729688 
L 672.160422 -36.729688 
L 673.595854 -36.729688 
L 675.031286 -36.729688 
L 676.466717 -36.729688 
L 677.902149 -36.729688 
L 679.337581 -36.729688 
L 680.773012 -36.729688 
L 682.208444 -36.729688 
L 683.643876 -36.729688 
L 685.079308 -36.729688 
L 686.514739 -36.729688 
L 687.950171 -36.729688 
L 689.385603 -36.729688 
L 690.821034 -36.729688 
L 692.256466 -36.729688 
L 693.691898 -36.729688 
L 695.127329 -36.729688 
L 696.562761 -36.729688 
L 697.998193 -36.729688 
L 699.433624 -36.729688 
L 700.869056 -36.729688 
L 702.304488 -36.729688 
L 703.73992 -36.729688 
L 705.175351 -36.729688 
L 706.610783 -36.729688 
L 708.046215 -36.729688 
L 709.481646 -36.729688 
L 710.917078 -36.729688 
L 712.35251 -36.729688 
L 713.787941 -36.729688 
L 715.223373 -36.729688 
L 716.658805 -36.729688 
L 718.094236 -36.729688 
L 719.529668 -36.729688 
L 720.9651 -36.729688 
L 722.400532 -36.729688 
L 723.835963 -36.729688 
L 725.271395 -36.729688 
L 726.706827 -36.729688 
L 728.142258 -36.729688 
L 729.57769 -36.729688 
L 729.57769 -36.800619 
L 729.57769 -36.800619 
L 728.142258 -36.824156 
L 726.706827 -36.854473 
L 725.271395 -36.893175 
L 723.835963 -36.942147 
L 722.400532 -37.003573 
L 720.9651 -37.079948 
L 719.529668 -37.174089 
L 718.094236 -37.289134 
L 716.658805 -37.428529 
L 715.223373 -37.596005 
L 713.787941 -37.795548 
L 712.35251 -38.031347 
L 710.917078 -38.307739 
L 709.481646 -38.629141 
L 708.046215 -38.999983 
L 706.610783 -39.42462 
L 705.175351 -39.907269 
L 703.73992 -40.451929 
L 702.304488 -41.062324 
L 700.869056 -41.741851 
L 699.433624 -42.493554 
L 697.998193 -43.32011 
L 696.562761 -44.223836 
L 695.127329 -45.206722 
L 693.691898 -46.270475 
L 692.256466 -47.416584 
L 690.821034 -48.646394 
L 689.385603 -49.961177 
L 687.950171 -51.362215 
L 686.514739 -52.850858 
L 685.079308 -54.428577 
L 683.643876 -56.096992 
L 682.208444 -57.857875 
L 680.773012 -59.713125 
L 679.337581 -61.664719 
L 677.902149 -63.714632 
L 676.466717 -65.864737 
L 675.031286 -68.116692 
L 673.595854 -70.471809 
L 672.160422 -72.930933 
L 670.724991 -75.494314 
L 669.289559 -78.161505 
L 667.854127 -80.931275 
L 666.418696 -83.801553 
L 664.983264 -86.769398 
L 663.547832 -89.831014 
L 662.1124 -92.981791 
L 660.676969 -96.216383 
L 659.241537 -99.528821 
L 657.806105 -102.912646 
L 656.370674 -106.361066 
L 654.935242 -109.867124 
L 653.49981 -113.423873 
L 652.064379 -117.024543 
L 650.628947 -120.6627 
L 649.193515 -124.33238 
L 647.758084 -128.028206 
L 646.322652 -131.74546 
L 644.88722 -135.480128 
L 643.451788 -139.228899 
L 642.016357 -142.989131 
L 640.580925 -146.758773 
L 639.145493 -150.536248 
L 637.710062 -154.320316 
L 636.27463 -158.109903 
L 634.839198 -161.903914 
L 633.403767 -165.701048 
L 631.968335 -169.499599 
L 630.532903 -173.297282 
L 629.097471 -177.091075 
L 627.66204 -180.877082 
L 626.226608 -184.650446 
L 624.791176 -188.405292 
L 623.355745 -192.134717 
L 621.920313 -195.830827 
L 620.484881 -199.484816 
L 619.04945 -203.087078 
L 617.614018 -206.627356 
L 616.178586 -210.094909 
L 614.743155 -213.478687 
L 613.307723 -216.767507 
L 611.872291 -219.950208 
L 610.436859 -223.015784 
L 609.001428 -225.953479 
L 607.565996 -228.752836 
L 606.130564 -231.403698 
L 604.695133 -233.896164 
L 603.259701 -236.220498 
L 601.824269 -238.367004 
L 600.388838 -240.32588 
L 598.953406 -242.087062 
L 597.517974 -243.640075 
L 596.082543 -244.973919 
L 594.647111 -246.07699 
L 593.211679 -246.93707 
L 591.776247 -247.54138 
L 590.340816 -247.87672 
L 588.905384 -247.929687 
L 587.469952 -247.686974 
L 586.034521 -247.135736 
L 584.599089 -246.264025 
L 583.163657 -245.061249 
L 581.728226 -243.518665 
L 580.292794 -241.629855 
L 578.857362 -239.391182 
L 577.421931 -236.802193 
L 575.986499 -233.865943 
L 574.551067 -230.589233 
L 573.115635 -226.982748 
L 571.680204 -223.06107 
L 570.244772 -218.842589 
L 568.80934 -214.34929 
L 567.373909 -209.60644 
L 565.938477 -204.64218 
L 564.503045 -199.487038 
L 563.067614 -194.173381 
L 561.632182 -188.734832 
L 560.19675 -183.205661 
L 558.761319 -177.620185 
L 557.325887 -172.01218 
L 555.890455 -166.41433 
L 554.455023 -160.857735 
L 553.019592 -155.371463 
L 551.58416 -149.982186 
L 550.148728 -144.71388 
L 548.713297 -139.587601 
L 547.277865 -134.621337 
L 545.842433 -129.82993 
L 544.407002 -125.225065 
L 542.97157 -120.815319 
L 541.536138 -116.606263 
L 540.100706 -112.600618 
L 538.665275 -108.798441 
L 537.229843 -105.197356 
L 535.794411 -101.792804 
L 534.35898 -98.578319 
L 532.923548 -95.545818 
L 531.488116 -92.685905 
L 530.052685 -89.988174 
L 528.617253 -87.441521 
L 527.181821 -85.034447 
L 525.74639 -82.75535 
L 524.310958 -80.592809 
L 522.875526 -78.535836 
L 521.440094 -76.574104 
L 520.004663 -74.698146 
L 518.569231 -72.899502 
L 517.133799 -71.170831 
L 515.698368 -69.505962 
L 514.262936 -67.899907 
L 512.827504 -66.34881 
L 511.392073 -64.849857 
L 509.956641 -63.401138 
L 508.521209 -62.001486 
L 507.085778 -60.65028 
L 505.650346 -59.347251 
L 504.214914 -58.092284 
L 502.779482 -56.885237 
L 501.344051 -55.725794 
L 499.908619 -54.613344 
L 498.473187 -53.54692 
L 497.037756 -52.525166 
L 495.602324 -51.546367 
L 494.166892 -50.608507 
L 492.731461 -49.709368 
L 491.296029 -48.846653 
L 489.860597 -48.018107 
L 488.425166 -47.221657 
L 486.989734 -46.45552 
L 485.554302 -45.718298 
L 484.11887 -45.00904 
L 482.683439 -44.327268 
L 481.248007 -43.672966 
L 479.812575 -43.046537 
L 478.377144 -42.448724 
L 476.941712 -41.880514 
L 475.50628 -41.343024 
L 474.070849 -40.837386 
L 472.635417 -40.364628 
L 471.199985 -39.925571 
L 469.764554 -39.520746 
L 468.329122 -39.150327 
L 466.89369 -38.814096 
L 465.458258 -38.511426 
L 464.022827 -38.241294 
L 462.587395 -38.002312 
L 461.151963 -37.792774 
L 459.716532 -37.610717 
L 458.2811 -37.453986 
L 456.845668 -37.320308 
L 455.410237 -37.207355 
L 453.974805 -37.112808 
L 452.539373 -37.034413 
L 451.103942 -36.970024 
L 449.66851 -36.917639 
L 448.233078 -36.875423 
L 446.797646 -36.841724 
L 445.362215 -36.81508 
L 443.926783 -36.794212 
z
" style="stroke: #4c72b0"/>
    </defs>
    <g>
     <use xlink:href="#mab841bcce9" x="0" y="265.689687" style="fill: #4c72b0; fill-opacity: 0.25; stroke: #4c72b0"/>
    </g>
   </g>
   <g id="line2d_38">
    <path d="M 324.652807 228.96 
L 324.652807 7.2 
" style="fill: none; stroke-dasharray: 2.96,1.28; stroke-dashoffset: 0; stroke: #d3d3d3; stroke-width: 0.8"/>
   </g>
   <g id="line2d_39">
    <path d="M 502.244015 228.96 
L 502.244015 7.2 
" style="fill: none; stroke-dasharray: 2.96,1.28; stroke-dashoffset: 0; stroke: #d3d3d3; stroke-width: 0.8"/>
   </g>
   <g id="line2d_40">
    <path d="M 426.320573 228.96 
L 426.320573 7.2 
" style="fill: none; stroke-dasharray: 2.96,1.28; stroke-dashoffset: 0; stroke: #d3d3d3; stroke-width: 0.8"/>
   </g>
   <g id="line2d_41">
    <path d="M 7.2 228.96 
L 844.2 228.96 
" style="fill: none; stroke: #808080; stroke-width: 0.5; stroke-linecap: round"/>
   </g>
   <g id="text_12">
    <text style="font-size: 8px; font-family: 'Arial', 'DejaVu Sans', 'Liberation Sans', 'Bitstream Vera Sans', sans-serif; fill: #808080" transform="translate(330.906557 124.59635) rotate(-90)">International Poverty Line: $3.00</text>
   </g>
   <g id="text_13">
    <text style="font-size: 8px; font-family: 'Arial', 'DejaVu Sans', 'Liberation Sans', 'Bitstream Vera Sans', sans-serif; fill: #808080" transform="translate(507.970265 81.31135) rotate(-90)">World mean: $21.85</text>
   </g>
   <g id="text_14">
    <text style="font-size: 8px; font-family: 'Arial', 'DejaVu Sans', 'Liberation Sans', 'Bitstream Vera Sans', sans-serif; fill: #808080" transform="translate(432.046823 83.08885) rotate(-90)">World median: $9.35</text>
   </g>
   <g id="text_15">
    <text style="font-size: 10px; font-family: 'Arial', 'DejaVu Sans', 'Liberation Sans', 'Bitstream Vera Sans', sans-serif; text-anchor: middle" x="593.257366" y="226.855312" transform="rotate(-0 593.257366 226.855312)">Denmark (2023)</text>
   </g>
   <g id="text_16">
    <text style="font-size: 10px; font-family: 'Arial', 'DejaVu Sans', 'Liberation Sans', 'Bitstream Vera Sans', sans-serif; text-anchor: middle" x="250.225006" y="226.855312" transform="rotate(-0 250.225006 226.855312)">Democratic Republic of Congo (2020)</text>
   </g>
  </g>
 </g>
</svg>
