<?xml version="1.0" encoding="utf-8" standalone="no"?>
<!DOCTYPE svg PUBLIC "-//W3C//DTD SVG 1.1//EN"
  "http://www.w3.org/Graphics/SVG/1.1/DTD/svg11.dtd">
<svg xmlns:xlink="http://www.w3.org/1999/xlink" width="865.302344pt" height="265.689687pt" viewBox="0 0 865.302344 265.689687" xmlns="http://www.w3.org/2000/svg" version="1.1">
 <metadata>
  <rdf:RDF xmlns:dc="http://purl.org/dc/elements/1.1/" xmlns:cc="http://creativecommons.org/ns#" xmlns:rdf="http://www.w3.org/1999/02/22-rdf-syntax-ns#">
   <cc:Work>
    <dc:type rdf:resource="http://purl.org/dc/dcmitype/StillImage"/>
    <dc:date>2025-12-05T17:50:42.414443</dc:date>
    <dc:format>image/svg+xml</dc:format>
    <dc:creator>
     <cc:Agent>
      <dc:title>Matplotlib v3.10.1, https://matplotlib.org/</dc:title>
     </cc:Agent>
    </dc:creator>
   </cc:Work>
  </rdf:RDF>
 </metadata>
 <defs>
  <style type="text/css">*{stroke-linejoin: round; stroke-linecap: butt}</style>
 </defs>
 <g id="figure_1">
  <g id="patch_1">
   <path d="M 0 265.689687 
L 865.302344 265.689687 
L 865.302344 0 
L 0 0 
z
" style="fill: #ffffff"/>
  </g>
  <g id="axes_1">
   <g id="patch_2">
    <path d="M 7.2 228.96 
L 844.2 228.96 
L 844.2 7.2 
L 7.2 7.2 
z
" style="fill: #ffffff"/>
   </g>
   <g id="matplotlib.axis_1">
    <g id="xtick_1">
     <g id="line2d_1">
      <defs>
       <path id="me48de5080d" d="M 0 0 
L 0 3.5 
" style="stroke: #262626; stroke-width: 0.8"/>
      </defs>
      <g>
       <use xlink:href="#me48de5080d" x="118.866198" y="228.96" style="fill: #262626; stroke: #262626; stroke-width: 0.8"/>
      </g>
     </g>
     <g id="text_1">
      <text style="font-size: 10px; font-family: 'Arial', 'DejaVu Sans', 'Liberation Sans', 'Bitstream Vera Sans', sans-serif; text-anchor: middle; fill: #262626" x="118.866198" y="243.117812" transform="rotate(-0 118.866198 243.117812)">$1</text>
     </g>
    </g>
    <g id="xtick_2">
     <g id="line2d_2">
      <g>
       <use xlink:href="#me48de5080d" x="191.648608" y="228.96" style="fill: #262626; stroke: #262626; stroke-width: 0.8"/>
      </g>
     </g>
     <g id="text_2">
      <text style="font-size: 10px; font-family: 'Arial', 'DejaVu Sans', 'Liberation Sans', 'Bitstream Vera Sans', sans-serif; text-anchor: middle; fill: #262626" x="191.648608" y="243.117812" transform="rotate(-0 191.648608 243.117812)">$2</text>
     </g>
    </g>
    <g id="xtick_3">
     <g id="line2d_3">
      <g>
       <use xlink:href="#me48de5080d" x="287.861721" y="228.96" style="fill: #262626; stroke: #262626; stroke-width: 0.8"/>
      </g>
     </g>
     <g id="text_3">
      <text style="font-size: 10px; font-family: 'Arial', 'DejaVu Sans', 'Liberation Sans', 'Bitstream Vera Sans', sans-serif; text-anchor: middle; fill: #262626" x="287.861721" y="243.117812" transform="rotate(-0 287.861721 243.117812)">$5</text>
     </g>
    </g>
    <g id="xtick_4">
     <g id="line2d_4">
      <g>
       <use xlink:href="#me48de5080d" x="360.644132" y="228.96" style="fill: #262626; stroke: #262626; stroke-width: 0.8"/>
      </g>
     </g>
     <g id="text_4">
      <text style="font-size: 10px; font-family: 'Arial', 'DejaVu Sans', 'Liberation Sans', 'Bitstream Vera Sans', sans-serif; text-anchor: middle; fill: #262626" x="360.644132" y="243.117812" transform="rotate(-0 360.644132 243.117812)">$10</text>
     </g>
    </g>
    <g id="xtick_5">
     <g id="line2d_5">
      <g>
       <use xlink:href="#me48de5080d" x="433.426542" y="228.96" style="fill: #262626; stroke: #262626; stroke-width: 0.8"/>
      </g>
     </g>
     <g id="text_5">
      <text style="font-size: 10px; font-family: 'Arial', 'DejaVu Sans', 'Liberation Sans', 'Bitstream Vera Sans', sans-serif; text-anchor: middle; fill: #262626" x="433.426542" y="243.117812" transform="rotate(-0 433.426542 243.117812)">$20</text>
     </g>
    </g>
    <g id="xtick_6">
     <g id="line2d_6">
      <g>
       <use xlink:href="#me48de5080d" x="529.639656" y="228.96" style="fill: #262626; stroke: #262626; stroke-width: 0.8"/>
      </g>
     </g>
     <g id="text_6">
      <text style="font-size: 10px; font-family: 'Arial', 'DejaVu Sans', 'Liberation Sans', 'Bitstream Vera Sans', sans-serif; text-anchor: middle; fill: #262626" x="529.639656" y="243.117812" transform="rotate(-0 529.639656 243.117812)">$50</text>
     </g>
    </g>
    <g id="xtick_7">
     <g id="line2d_7">
      <g>
       <use xlink:href="#me48de5080d" x="602.422066" y="228.96" style="fill: #262626; stroke: #262626; stroke-width: 0.8"/>
      </g>
     </g>
     <g id="text_7">
      <text style="font-size: 10px; font-family: 'Arial', 'DejaVu Sans', 'Liberation Sans', 'Bitstream Vera Sans', sans-serif; text-anchor: middle; fill: #262626" x="602.422066" y="243.117812" transform="rotate(-0 602.422066 243.117812)">$100</text>
     </g>
    </g>
    <g id="xtick_8">
     <g id="line2d_8">
      <g>
       <use xlink:href="#me48de5080d" x="675.204476" y="228.96" style="fill: #262626; stroke: #262626; stroke-width: 0.8"/>
      </g>
     </g>
     <g id="text_8">
      <text style="font-size: 10px; font-family: 'Arial', 'DejaVu Sans', 'Liberation Sans', 'Bitstream Vera Sans', sans-serif; text-anchor: middle; fill: #262626" x="675.204476" y="243.117812" transform="rotate(-0 675.204476 243.117812)">$200</text>
     </g>
    </g>
    <g id="xtick_9">
     <g id="line2d_9">
      <g>
       <use xlink:href="#me48de5080d" x="771.41759" y="228.96" style="fill: #262626; stroke: #262626; stroke-width: 0.8"/>
      </g>
     </g>
     <g id="text_9">
      <text style="font-size: 10px; font-family: 'Arial', 'DejaVu Sans', 'Liberation Sans', 'Bitstream Vera Sans', sans-serif; text-anchor: middle; fill: #262626" x="771.41759" y="243.117812" transform="rotate(-0 771.41759 243.117812)">$500</text>
     </g>
    </g>
    <g id="xtick_10">
     <g id="line2d_10">
      <g>
       <use xlink:href="#me48de5080d" x="844.2" y="228.96" style="fill: #262626; stroke: #262626; stroke-width: 0.8"/>
      </g>
     </g>
     <g id="text_10">
      <text style="font-size: 10px; font-family: 'Arial', 'DejaVu Sans', 'Liberation Sans', 'Bitstream Vera Sans', sans-serif; text-anchor: middle; fill: #262626" x="844.2" y="243.117812" transform="rotate(-0 844.2 243.117812)">$1000</text>
     </g>
    </g>
    <g id="xtick_11">
     <g id="line2d_11">
      <defs>
       <path id="m1556874777" d="M 0 0 
L 0 2 
" style="stroke: #262626; stroke-width: 0.6"/>
      </defs>
      <g>
       <use xlink:href="#m1556874777" x="22.653085" y="228.96" style="fill: #262626; stroke: #262626; stroke-width: 0.6"/>
      </g>
     </g>
    </g>
    <g id="xtick_12">
     <g id="line2d_12">
      <g>
       <use xlink:href="#m1556874777" x="46.083787" y="228.96" style="fill: #262626; stroke: #262626; stroke-width: 0.6"/>
      </g>
     </g>
    </g>
    <g id="xtick_13">
     <g id="line2d_13">
      <g>
       <use xlink:href="#m1556874777" x="65.228065" y="228.96" style="fill: #262626; stroke: #262626; stroke-width: 0.6"/>
      </g>
     </g>
    </g>
    <g id="xtick_14">
     <g id="line2d_14">
      <g>
       <use xlink:href="#m1556874777" x="81.414322" y="228.96" style="fill: #262626; stroke: #262626; stroke-width: 0.6"/>
      </g>
     </g>
    </g>
    <g id="xtick_15">
     <g id="line2d_15">
      <g>
       <use xlink:href="#m1556874777" x="95.435495" y="228.96" style="fill: #262626; stroke: #262626; stroke-width: 0.6"/>
      </g>
     </g>
    </g>
    <g id="xtick_16">
     <g id="line2d_16">
      <g>
       <use xlink:href="#m1556874777" x="107.803046" y="228.96" style="fill: #262626; stroke: #262626; stroke-width: 0.6"/>
      </g>
     </g>
    </g>
    <g id="xtick_17">
     <g id="line2d_17">
      <g>
       <use xlink:href="#m1556874777" x="234.223589" y="228.96" style="fill: #262626; stroke: #262626; stroke-width: 0.6"/>
      </g>
     </g>
    </g>
    <g id="xtick_18">
     <g id="line2d_18">
      <g>
       <use xlink:href="#m1556874777" x="264.431019" y="228.96" style="fill: #262626; stroke: #262626; stroke-width: 0.6"/>
      </g>
     </g>
    </g>
    <g id="xtick_19">
     <g id="line2d_19">
      <g>
       <use xlink:href="#m1556874777" x="307.006" y="228.96" style="fill: #262626; stroke: #262626; stroke-width: 0.6"/>
      </g>
     </g>
    </g>
    <g id="xtick_20">
     <g id="line2d_20">
      <g>
       <use xlink:href="#m1556874777" x="323.192256" y="228.96" style="fill: #262626; stroke: #262626; stroke-width: 0.6"/>
      </g>
     </g>
    </g>
    <g id="xtick_21">
     <g id="line2d_21">
      <g>
       <use xlink:href="#m1556874777" x="337.213429" y="228.96" style="fill: #262626; stroke: #262626; stroke-width: 0.6"/>
      </g>
     </g>
    </g>
    <g id="xtick_22">
     <g id="line2d_22">
      <g>
       <use xlink:href="#m1556874777" x="349.58098" y="228.96" style="fill: #262626; stroke: #262626; stroke-width: 0.6"/>
      </g>
     </g>
    </g>
    <g id="xtick_23">
     <g id="line2d_23">
      <g>
       <use xlink:href="#m1556874777" x="476.001523" y="228.96" style="fill: #262626; stroke: #262626; stroke-width: 0.6"/>
      </g>
     </g>
    </g>
    <g id="xtick_24">
     <g id="line2d_24">
      <g>
       <use xlink:href="#m1556874777" x="506.208953" y="228.96" style="fill: #262626; stroke: #262626; stroke-width: 0.6"/>
      </g>
     </g>
    </g>
    <g id="xtick_25">
     <g id="line2d_25">
      <g>
       <use xlink:href="#m1556874777" x="548.783934" y="228.96" style="fill: #262626; stroke: #262626; stroke-width: 0.6"/>
      </g>
     </g>
    </g>
    <g id="xtick_26">
     <g id="line2d_26">
      <g>
       <use xlink:href="#m1556874777" x="564.97019" y="228.96" style="fill: #262626; stroke: #262626; stroke-width: 0.6"/>
      </g>
     </g>
    </g>
    <g id="xtick_27">
     <g id="line2d_27">
      <g>
       <use xlink:href="#m1556874777" x="578.991363" y="228.96" style="fill: #262626; stroke: #262626; stroke-width: 0.6"/>
      </g>
     </g>
    </g>
    <g id="xtick_28">
     <g id="line2d_28">
      <g>
       <use xlink:href="#m1556874777" x="591.358914" y="228.96" style="fill: #262626; stroke: #262626; stroke-width: 0.6"/>
      </g>
     </g>
    </g>
    <g id="xtick_29">
     <g id="line2d_29">
      <g>
       <use xlink:href="#m1556874777" x="717.779457" y="228.96" style="fill: #262626; stroke: #262626; stroke-width: 0.6"/>
      </g>
     </g>
    </g>
    <g id="xtick_30">
     <g id="line2d_30">
      <g>
       <use xlink:href="#m1556874777" x="747.986887" y="228.96" style="fill: #262626; stroke: #262626; stroke-width: 0.6"/>
      </g>
     </g>
    </g>
    <g id="xtick_31">
     <g id="line2d_31">
      <g>
       <use xlink:href="#m1556874777" x="790.561868" y="228.96" style="fill: #262626; stroke: #262626; stroke-width: 0.6"/>
      </g>
     </g>
    </g>
    <g id="xtick_32">
     <g id="line2d_32">
      <g>
       <use xlink:href="#m1556874777" x="806.748124" y="228.96" style="fill: #262626; stroke: #262626; stroke-width: 0.6"/>
      </g>
     </g>
    </g>
    <g id="xtick_33">
     <g id="line2d_33">
      <g>
       <use xlink:href="#m1556874777" x="820.769297" y="228.96" style="fill: #262626; stroke: #262626; stroke-width: 0.6"/>
      </g>
     </g>
    </g>
    <g id="xtick_34">
     <g id="line2d_34">
      <g>
       <use xlink:href="#m1556874777" x="833.136848" y="228.96" style="fill: #262626; stroke: #262626; stroke-width: 0.6"/>
      </g>
     </g>
    </g>
    <g id="text_11">
     <text style="font-size: 10px; font-family: 'Arial', 'DejaVu Sans', 'Liberation Sans', 'Bitstream Vera Sans', sans-serif; text-anchor: middle; fill: #262626" x="425.7" y="256.385" transform="rotate(-0 425.7 256.385)">Income or consumption (day)</text>
    </g>
   </g>
   <g id="matplotlib.axis_2"/>
   <g id="FillBetweenPolyCollection_1">
    <defs>
     <path id="m919d46afc3" d="M 40.61143 -36.785562 
L 40.61143 -36.729688 
L 42.796314 -36.729688 
L 44.981199 -36.729688 
L 47.166083 -36.729688 
L 49.350967 -36.729688 
L 51.535852 -36.729688 
L 53.720736 -36.729688 
L 55.90562 -36.729688 
L 58.090505 -36.729688 
L 60.275389 -36.729688 
L 62.460274 -36.729688 
L 64.645158 -36.729688 
L 66.830042 -36.729688 
L 69.014927 -36.729688 
L 71.199811 -36.729688 
L 73.384695 -36.729688 
L 75.56958 -36.729688 
L 77.754464 -36.729688 
L 79.939348 -36.729688 
L 82.124233 -36.729688 
L 84.309117 -36.729688 
L 86.494001 -36.729688 
L 88.678886 -36.729688 
L 90.86377 -36.729688 
L 93.048654 -36.729688 
L 95.233539 -36.729688 
L 97.418423 -36.729688 
L 99.603307 -36.729688 
L 101.788192 -36.729688 
L 103.973076 -36.729688 
L 106.157961 -36.729688 
L 108.342845 -36.729688 
L 110.527729 -36.729688 
L 112.712614 -36.729688 
L 114.897498 -36.729688 
L 117.082382 -36.729688 
L 119.267267 -36.729688 
L 121.452151 -36.729688 
L 123.637035 -36.729688 
L 125.82192 -36.729688 
L 128.006804 -36.729688 
L 130.191688 -36.729688 
L 132.376573 -36.729688 
L 134.561457 -36.729688 
L 136.746341 -36.729688 
L 138.931226 -36.729688 
L 141.11611 -36.729688 
L 143.300995 -36.729688 
L 145.485879 -36.729688 
L 147.670763 -36.729688 
L 149.855648 -36.729688 
L 152.040532 -36.729688 
L 154.225416 -36.729688 
L 156.410301 -36.729688 
L 158.595185 -36.729688 
L 160.780069 -36.729688 
L 162.964954 -36.729688 
L 165.149838 -36.729688 
L 167.334722 -36.729688 
L 169.519607 -36.729688 
L 171.704491 -36.729688 
L 173.889375 -36.729688 
L 176.07426 -36.729688 
L 178.259144 -36.729688 
L 180.444029 -36.729688 
L 182.628913 -36.729688 
L 184.813797 -36.729688 
L 186.998682 -36.729688 
L 189.183566 -36.729688 
L 191.36845 -36.729688 
L 193.553335 -36.729688 
L 195.738219 -36.729688 
L 197.923103 -36.729688 
L 200.107988 -36.729688 
L 202.292872 -36.729688 
L 204.477756 -36.729688 
L 206.662641 -36.729688 
L 208.847525 -36.729688 
L 211.032409 -36.729688 
L 213.217294 -36.729688 
L 215.402178 -36.729688 
L 217.587062 -36.729688 
L 219.771947 -36.729688 
L 221.956831 -36.729688 
L 224.141716 -36.729688 
L 226.3266 -36.729688 
L 228.511484 -36.729688 
L 230.696369 -36.729688 
L 232.881253 -36.729688 
L 235.066137 -36.729688 
L 237.251022 -36.729688 
L 239.435906 -36.729688 
L 241.62079 -36.729688 
L 243.805675 -36.729688 
L 245.990559 -36.729688 
L 248.175443 -36.729688 
L 250.360328 -36.729688 
L 252.545212 -36.729688 
L 254.730096 -36.729688 
L 256.914981 -36.729688 
L 259.099865 -36.729688 
L 261.28475 -36.729688 
L 263.469634 -36.729688 
L 265.654518 -36.729688 
L 267.839403 -36.729688 
L 270.024287 -36.729688 
L 272.209171 -36.729688 
L 274.394056 -36.729688 
L 276.57894 -36.729688 
L 278.763824 -36.729688 
L 280.948709 -36.729688 
L 283.133593 -36.729688 
L 285.318477 -36.729688 
L 287.503362 -36.729688 
L 289.688246 -36.729688 
L 291.87313 -36.729688 
L 294.058015 -36.729688 
L 296.242899 -36.729688 
L 298.427783 -36.729688 
L 300.612668 -36.729688 
L 302.797552 -36.729688 
L 304.982437 -36.729688 
L 307.167321 -36.729688 
L 309.352205 -36.729688 
L 311.53709 -36.729688 
L 313.721974 -36.729688 
L 315.906858 -36.729688 
L 318.091743 -36.729688 
L 320.276627 -36.729688 
L 322.461511 -36.729688 
L 324.646396 -36.729688 
L 326.83128 -36.729688 
L 329.016164 -36.729688 
L 331.201049 -36.729688 
L 333.385933 -36.729688 
L 335.570817 -36.729688 
L 337.755702 -36.729688 
L 339.940586 -36.729688 
L 342.125471 -36.729688 
L 344.310355 -36.729688 
L 346.495239 -36.729688 
L 348.680124 -36.729688 
L 350.865008 -36.729688 
L 353.049892 -36.729688 
L 355.234777 -36.729688 
L 357.419661 -36.729688 
L 359.604545 -36.729688 
L 361.78943 -36.729688 
L 363.974314 -36.729688 
L 366.159198 -36.729688 
L 368.344083 -36.729688 
L 370.528967 -36.729688 
L 372.713851 -36.729688 
L 374.898736 -36.729688 
L 377.08362 -36.729688 
L 379.268504 -36.729688 
L 381.453389 -36.729688 
L 383.638273 -36.729688 
L 385.823158 -36.729688 
L 388.008042 -36.729688 
L 390.192926 -36.729688 
L 392.377811 -36.729688 
L 394.562695 -36.729688 
L 396.747579 -36.729688 
L 398.932464 -36.729688 
L 401.117348 -36.729688 
L 403.302232 -36.729688 
L 405.487117 -36.729688 
L 407.672001 -36.729688 
L 409.856885 -36.729688 
L 412.04177 -36.729688 
L 414.226654 -36.729688 
L 416.411538 -36.729688 
L 418.596423 -36.729688 
L 420.781307 -36.729688 
L 422.966192 -36.729688 
L 425.151076 -36.729688 
L 427.33596 -36.729688 
L 429.520845 -36.729688 
L 431.705729 -36.729688 
L 433.890613 -36.729688 
L 436.075498 -36.729688 
L 438.260382 -36.729688 
L 440.445266 -36.729688 
L 442.630151 -36.729688 
L 444.815035 -36.729688 
L 446.999919 -36.729688 
L 449.184804 -36.729688 
L 451.369688 -36.729688 
L 453.554572 -36.729688 
L 455.739457 -36.729688 
L 457.924341 -36.729688 
L 460.109225 -36.729688 
L 462.29411 -36.729688 
L 464.478994 -36.729688 
L 466.663879 -36.729688 
L 468.848763 -36.729688 
L 471.033647 -36.729688 
L 473.218532 -36.729688 
L 475.403416 -36.729688 
L 475.403416 -36.785523 
L 475.403416 -36.785523 
L 473.218532 -36.803431 
L 471.033647 -36.826329 
L 468.848763 -36.85536 
L 466.663879 -36.891858 
L 464.478994 -36.93736 
L 462.29411 -36.993612 
L 460.109225 -37.062572 
L 457.924341 -37.146409 
L 455.739457 -37.247485 
L 453.554572 -37.368334 
L 451.369688 -37.511632 
L 449.184804 -37.680151 
L 446.999919 -37.876711 
L 444.815035 -38.104108 
L 442.630151 -38.365053 
L 440.445266 -38.662088 
L 438.260382 -38.997511 
L 436.075498 -39.373294 
L 433.890613 -39.791005 
L 431.705729 -40.251745 
L 429.520845 -40.756089 
L 427.33596 -41.304048 
L 425.151076 -41.895049 
L 422.966192 -42.527933 
L 420.781307 -43.200981 
L 418.596423 -43.911966 
L 416.411538 -44.658217 
L 414.226654 -45.436716 
L 412.04177 -46.244202 
L 409.856885 -47.077299 
L 407.672001 -47.93264 
L 405.487117 -48.806999 
L 403.302232 -49.697424 
L 401.117348 -50.601347 
L 398.932464 -51.516696 
L 396.747579 -52.441972 
L 394.562695 -53.376317 
L 392.377811 -54.319548 
L 390.192926 -55.272172 
L 388.008042 -56.235372 
L 385.823158 -57.210971 
L 383.638273 -58.201383 
L 381.453389 -59.209534 
L 379.268504 -60.238782 
L 377.08362 -61.292824 
L 374.898736 -62.375599 
L 372.713851 -63.491189 
L 370.528967 -64.64373 
L 368.344083 -65.837319 
L 366.159198 -67.075932 
L 363.974314 -68.363354 
L 361.78943 -69.703113 
L 359.604545 -71.098428 
L 357.419661 -72.552153 
L 355.234777 -74.066744 
L 353.049892 -75.644224 
L 350.865008 -77.286148 
L 348.680124 -78.993585 
L 346.495239 -80.767096 
L 344.310355 -82.606722 
L 342.125471 -84.511972 
L 339.940586 -86.481824 
L 337.755702 -88.514736 
L 335.570817 -90.608657 
L 333.385933 -92.761061 
L 331.201049 -94.968987 
L 329.016164 -97.229092 
L 326.83128 -99.537722 
L 324.646396 -101.890994 
L 322.461511 -104.284883 
L 320.276627 -106.715325 
L 318.091743 -109.178324 
L 315.906858 -111.670052 
L 313.721974 -114.186957 
L 311.53709 -116.72585 
L 309.352205 -119.283986 
L 307.167321 -121.859118 
L 304.982437 -124.449534 
L 302.797552 -127.054058 
L 300.612668 -129.672027 
L 298.427783 -132.303232 
L 296.242899 -134.947827 
L 294.058015 -137.606208 
L 291.87313 -140.278872 
L 289.688246 -142.966245 
L 287.503362 -145.6685 
L 285.318477 -148.385369 
L 283.133593 -151.115955 
L 280.948709 -153.858551 
L 278.763824 -156.610481 
L 276.57894 -159.367962 
L 274.394056 -162.126003 
L 272.209171 -164.878334 
L 270.024287 -167.617384 
L 267.839403 -170.334295 
L 265.654518 -173.018977 
L 263.469634 -175.660207 
L 261.28475 -178.245757 
L 259.099865 -180.762552 
L 256.914981 -183.196849 
L 254.730096 -185.534435 
L 252.545212 -187.760822 
L 250.360328 -189.861448 
L 248.175443 -191.821868 
L 245.990559 -193.627929 
L 243.805675 -195.265932 
L 241.62079 -196.722771 
L 239.435906 -197.986055 
L 237.251022 -199.044203 
L 235.066137 -199.88653 
L 232.881253 -200.503315 
L 230.696369 -200.885859 
L 228.511484 -201.026536 
L 226.3266 -200.918847 
L 224.141716 -200.55747 
L 221.956831 -199.938317 
L 219.771947 -199.058599 
L 217.587062 -197.916892 
L 215.402178 -196.513213 
L 213.217294 -194.849093 
L 211.032409 -192.927654 
L 208.847525 -190.753669 
L 206.662641 -188.333621 
L 204.477756 -185.67574 
L 202.292872 -182.790012 
L 200.107988 -179.688167 
L 197.923103 -176.383634 
L 195.738219 -172.891457 
L 193.553335 -169.228181 
L 191.36845 -165.411702 
L 189.183566 -161.461079 
L 186.998682 -157.396323 
L 184.813797 -153.238153 
L 182.628913 -149.007739 
L 180.444029 -144.726428 
L 178.259144 -140.415463 
L 176.07426 -136.095703 
L 173.889375 -131.787354 
L 171.704491 -127.50971 
L 169.519607 -123.280914 
L 167.334722 -119.117753 
L 165.149838 -115.035473 
L 162.964954 -111.047638 
L 160.780069 -107.16602 
L 158.595185 -103.40053 
L 156.410301 -99.759191 
L 154.225416 -96.248146 
L 152.040532 -92.871706 
L 149.855648 -89.632432 
L 147.670763 -86.531253 
L 145.485879 -83.567607 
L 143.300995 -80.739607 
L 141.11611 -78.04423 
L 138.931226 -75.477511 
L 136.746341 -73.034749 
L 134.561457 -70.710713 
L 132.376573 -68.499844 
L 130.191688 -66.396444 
L 128.006804 -64.394849 
L 125.82192 -62.489589 
L 123.637035 -60.675516 
L 121.452151 -58.947906 
L 119.267267 -57.302544 
L 117.082382 -55.735762 
L 114.897498 -54.244462 
L 112.712614 -52.826108 
L 110.527729 -51.478686 
L 108.342845 -50.200653 
L 106.157961 -48.990859 
L 103.973076 -47.848458 
L 101.788192 -46.772815 
L 99.603307 -45.763399 
L 97.418423 -44.819692 
L 95.233539 -43.94109 
L 93.048654 -43.126824 
L 90.86377 -42.375889 
L 88.678886 -41.686995 
L 86.494001 -41.058529 
L 84.309117 -40.488543 
L 82.124233 -39.974751 
L 79.939348 -39.514551 
L 77.754464 -39.105058 
L 75.56958 -38.743146 
L 73.384695 -38.425503 
L 71.199811 -38.148692 
L 69.014927 -37.909208 
L 66.830042 -37.703545 
L 64.645158 -37.528247 
L 62.460274 -37.379965 
L 60.275389 -37.255497 
L 58.090505 -37.151831 
L 55.90562 -37.066166 
L 53.720736 -36.995937 
L 51.535852 -36.938821 
L 49.350967 -36.892742 
L 47.166083 -36.855867 
L 44.981199 -36.826598 
L 42.796314 -36.803555 
L 40.61143 -36.785562 
z
" style="stroke: #dd8452"/>
    </defs>
    <g>
     <use xlink:href="#m919d46afc3" x="0" y="265.689687" style="fill: #dd8452; fill-opacity: 0.25; stroke: #dd8452"/>
    </g>
   </g>
   <g id="FillBetweenPolyCollection_2">
    <defs>
     <path id="m91533291e0" d="M 351.9139 -36.793204 
L 351.9139 -36.729688 
L 353.707499 -36.729688 
L 355.501097 -36.729688 
L 357.294696 -36.729688 
L 359.088295 -36.729688 
L 360.881893 -36.729688 
L 362.675492 -36.729688 
L 364.469091 -36.729688 
L 366.262689 -36.729688 
L 368.056288 -36.729688 
L 369.849887 -36.729688 
L 371.643485 -36.729688 
L 373.437084 -36.729688 
L 375.230683 -36.729688 
L 377.024281 -36.729688 
L 378.81788 -36.729688 
L 380.611478 -36.729688 
L 382.405077 -36.729688 
L 384.198676 -36.729688 
L 385.992274 -36.729688 
L 387.785873 -36.729688 
L 389.579472 -36.729688 
L 391.37307 -36.729688 
L 393.166669 -36.729688 
L 394.960268 -36.729688 
L 396.753866 -36.729688 
L 398.547465 -36.729688 
L 400.341064 -36.729688 
L 402.134662 -36.729688 
L 403.928261 -36.729688 
L 405.721859 -36.729688 
L 407.515458 -36.729688 
L 409.309057 -36.729688 
L 411.102655 -36.729688 
L 412.896254 -36.729688 
L 414.689853 -36.729688 
L 416.483451 -36.729688 
L 418.27705 -36.729688 
L 420.070649 -36.729688 
L 421.864247 -36.729688 
L 423.657846 -36.729688 
L 425.451445 -36.729688 
L 427.245043 -36.729688 
L 429.038642 -36.729688 
L 430.83224 -36.729688 
L 432.625839 -36.729688 
L 434.419438 -36.729688 
L 436.213036 -36.729688 
L 438.006635 -36.729688 
L 439.800234 -36.729688 
L 441.593832 -36.729688 
L 443.387431 -36.729688 
L 445.18103 -36.729688 
L 446.974628 -36.729688 
L 448.768227 -36.729688 
L 450.561826 -36.729688 
L 452.355424 -36.729688 
L 454.149023 -36.729688 
L 455.942621 -36.729688 
L 457.73622 -36.729688 
L 459.529819 -36.729688 
L 461.323417 -36.729688 
L 463.117016 -36.729688 
L 464.910615 -36.729688 
L 466.704213 -36.729688 
L 468.497812 -36.729688 
L 470.291411 -36.729688 
L 472.085009 -36.729688 
L 473.878608 -36.729688 
L 475.672207 -36.729688 
L 477.465805 -36.729688 
L 479.259404 -36.729688 
L 481.053002 -36.729688 
L 482.846601 -36.729688 
L 484.6402 -36.729688 
L 486.433798 -36.729688 
L 488.227397 -36.729688 
L 490.020996 -36.729688 
L 491.814594 -36.729688 
L 493.608193 -36.729688 
L 495.401792 -36.729688 
L 497.19539 -36.729688 
L 498.988989 -36.729688 
L 500.782588 -36.729688 
L 502.576186 -36.729688 
L 504.369785 -36.729688 
L 506.163383 -36.729688 
L 507.956982 -36.729688 
L 509.750581 -36.729688 
L 511.544179 -36.729688 
L 513.337778 -36.729688 
L 515.131377 -36.729688 
L 516.924975 -36.729688 
L 518.718574 -36.729688 
L 520.512173 -36.729688 
L 522.305771 -36.729688 
L 524.09937 -36.729688 
L 525.892969 -36.729688 
L 527.686567 -36.729688 
L 529.480166 -36.729688 
L 531.273764 -36.729688 
L 533.067363 -36.729688 
L 534.860962 -36.729688 
L 536.65456 -36.729688 
L 538.448159 -36.729688 
L 540.241758 -36.729688 
L 542.035356 -36.729688 
L 543.828955 -36.729688 
L 545.622554 -36.729688 
L 547.416152 -36.729688 
L 549.209751 -36.729688 
L 551.00335 -36.729688 
L 552.796948 -36.729688 
L 554.590547 -36.729688 
L 556.384145 -36.729688 
L 558.177744 -36.729688 
L 559.971343 -36.729688 
L 561.764941 -36.729688 
L 563.55854 -36.729688 
L 565.352139 -36.729688 
L 567.145737 -36.729688 
L 568.939336 -36.729688 
L 570.732935 -36.729688 
L 572.526533 -36.729688 
L 574.320132 -36.729688 
L 576.113731 -36.729688 
L 577.907329 -36.729688 
L 579.700928 -36.729688 
L 581.494526 -36.729688 
L 583.288125 -36.729688 
L 585.081724 -36.729688 
L 586.875322 -36.729688 
L 588.668921 -36.729688 
L 590.46252 -36.729688 
L 592.256118 -36.729688 
L 594.049717 -36.729688 
L 595.843316 -36.729688 
L 597.636914 -36.729688 
L 599.430513 -36.729688 
L 601.224112 -36.729688 
L 603.01771 -36.729688 
L 604.811309 -36.729688 
L 606.604908 -36.729688 
L 608.398506 -36.729688 
L 610.192105 -36.729688 
L 611.985703 -36.729688 
L 613.779302 -36.729688 
L 615.572901 -36.729688 
L 617.366499 -36.729688 
L 619.160098 -36.729688 
L 620.953697 -36.729688 
L 622.747295 -36.729688 
L 624.540894 -36.729688 
L 626.334493 -36.729688 
L 628.128091 -36.729688 
L 629.92169 -36.729688 
L 631.715289 -36.729688 
L 633.508887 -36.729688 
L 635.302486 -36.729688 
L 637.096084 -36.729688 
L 638.889683 -36.729688 
L 640.683282 -36.729688 
L 642.47688 -36.729688 
L 644.270479 -36.729688 
L 646.064078 -36.729688 
L 647.857676 -36.729688 
L 649.651275 -36.729688 
L 651.444874 -36.729688 
L 653.238472 -36.729688 
L 655.032071 -36.729688 
L 656.82567 -36.729688 
L 658.619268 -36.729688 
L 660.412867 -36.729688 
L 662.206465 -36.729688 
L 664.000064 -36.729688 
L 665.793663 -36.729688 
L 667.587261 -36.729688 
L 669.38086 -36.729688 
L 671.174459 -36.729688 
L 672.968057 -36.729688 
L 674.761656 -36.729688 
L 676.555255 -36.729688 
L 678.348853 -36.729688 
L 680.142452 -36.729688 
L 681.936051 -36.729688 
L 683.729649 -36.729688 
L 685.523248 -36.729688 
L 687.316846 -36.729688 
L 689.110445 -36.729688 
L 690.904044 -36.729688 
L 692.697642 -36.729688 
L 694.491241 -36.729688 
L 696.28484 -36.729688 
L 698.078438 -36.729688 
L 699.872037 -36.729688 
L 701.665636 -36.729688 
L 703.459234 -36.729688 
L 705.252833 -36.729688 
L 707.046432 -36.729688 
L 708.84003 -36.729688 
L 708.84003 -36.805385 
L 708.84003 -36.805385 
L 707.046432 -36.831938 
L 705.252833 -36.866595 
L 703.459234 -36.911407 
L 701.665636 -36.968805 
L 699.872037 -37.041643 
L 698.078438 -37.133217 
L 696.28484 -37.24729 
L 694.491241 -37.388096 
L 692.697642 -37.560328 
L 690.904044 -37.769117 
L 689.110445 -38.019986 
L 687.316846 -38.318786 
L 685.523248 -38.671616 
L 683.729649 -39.084724 
L 681.936051 -39.5644 
L 680.142452 -40.11685 
L 678.348853 -40.748082 
L 676.555255 -41.463781 
L 674.761656 -42.269201 
L 672.968057 -43.169072 
L 671.174459 -44.16753 
L 669.38086 -45.268067 
L 667.587261 -46.473518 
L 665.793663 -47.786074 
L 664.000064 -49.207316 
L 662.206465 -50.738284 
L 660.412867 -52.379555 
L 658.619268 -54.131334 
L 656.82567 -55.993548 
L 655.032071 -57.965931 
L 653.238472 -60.048099 
L 651.444874 -62.239599 
L 649.651275 -64.539936 
L 647.857676 -66.948576 
L 646.064078 -69.464915 
L 644.270479 -72.088235 
L 642.47688 -74.817633 
L 640.683282 -77.65195 
L 638.889683 -80.589694 
L 637.096084 -83.628968 
L 635.302486 -86.767419 
L 633.508887 -90.002212 
L 631.715289 -93.330016 
L 629.92169 -96.74704 
L 628.128091 -100.249074 
L 626.334493 -103.83157 
L 624.540894 -107.489733 
L 622.747295 -111.218616 
L 620.953697 -115.013225 
L 619.160098 -118.8686 
L 617.366499 -122.779891 
L 615.572901 -126.742393 
L 613.779302 -130.751563 
L 611.985703 -134.802988 
L 610.192105 -138.892331 
L 608.398506 -143.015245 
L 606.604908 -147.167255 
L 604.811309 -151.343642 
L 603.01771 -155.539304 
L 601.224112 -159.748637 
L 599.430513 -163.965425 
L 597.636914 -168.182762 
L 595.843316 -172.393001 
L 594.049717 -176.587749 
L 592.256118 -180.757892 
L 590.46252 -184.89367 
L 588.668921 -188.984783 
L 586.875322 -193.020522 
L 585.081724 -196.989924 
L 583.288125 -200.881938 
L 581.494526 -204.685588 
L 579.700928 -208.390123 
L 577.907329 -211.985143 
L 576.113731 -215.460705 
L 574.320132 -218.807371 
L 572.526533 -222.016233 
L 570.732935 -225.078873 
L 568.939336 -227.987296 
L 567.145737 -230.733805 
L 565.352139 -233.310849 
L 563.55854 -235.710845 
L 561.764941 -237.925974 
L 559.971343 -239.947988 
L 558.177744 -241.768021 
L 556.384145 -243.376431 
L 554.590547 -244.762683 
L 552.796948 -245.915295 
L 551.00335 -246.821854 
L 549.209751 -247.469105 
L 547.416152 -247.843145 
L 545.622554 -247.929688 
L 543.828955 -247.714426 
L 542.035356 -247.183469 
L 540.241758 -246.323841 
L 538.448159 -245.124029 
L 536.65456 -243.574544 
L 534.860962 -241.668487 
L 533.067363 -239.402072 
L 531.273764 -236.775093 
L 529.480166 -233.791295 
L 527.686567 -230.458641 
L 525.892969 -226.789435 
L 524.09937 -222.800303 
L 522.305771 -218.51203 
L 520.512173 -213.949236 
L 518.718574 -209.139918 
L 516.924975 -204.114875 
L 515.131377 -198.907034 
L 513.337778 -193.550701 
L 511.544179 -188.080799 
L 509.750581 -182.532084 
L 507.956982 -176.938415 
L 506.163383 -171.332082 
L 504.369785 -165.743229 
L 502.576186 -160.199393 
L 500.782588 -154.725168 
L 498.988989 -149.342005 
L 497.19539 -144.068141 
L 495.401792 -138.918652 
L 493.608193 -133.905613 
L 491.814594 -129.038341 
L 490.020996 -124.323709 
L 488.227397 -119.766489 
L 486.433798 -115.369716 
L 484.6402 -111.13504 
L 482.846601 -107.063047 
L 481.053002 -103.15354 
L 479.259404 -99.405758 
L 477.465805 -95.818541 
L 475.672207 -92.390432 
L 473.878608 -89.119721 
L 472.085009 -86.004441 
L 470.291411 -83.042335 
L 468.497812 -80.230794 
L 466.704213 -77.566792 
L 464.910615 -75.046832 
L 463.117016 -72.666903 
L 461.323417 -70.422478 
L 459.529819 -68.308547 
L 457.73622 -66.31968 
L 455.942621 -64.450144 
L 454.149023 -62.69404 
L 452.355424 -61.045465 
L 450.561826 -59.49869 
L 448.768227 -58.048323 
L 446.974628 -56.689461 
L 445.18103 -55.417802 
L 443.387431 -54.229713 
L 441.593832 -53.12224 
L 439.800234 -52.093061 
L 438.006635 -51.140372 
L 436.213036 -50.262726 
L 434.419438 -49.458828 
L 432.625839 -48.727298 
L 430.83224 -48.066427 
L 429.038642 -47.473949 
L 427.245043 -46.946841 
L 425.451445 -46.481171 
L 423.657846 -46.072021 
L 421.864247 -45.713479 
L 420.070649 -45.398715 
L 418.27705 -45.120137 
L 416.483451 -44.869615 
L 414.689853 -44.638763 
L 412.896254 -44.419255 
L 411.102655 -44.203156 
L 409.309057 -43.983251 
L 407.515458 -43.753328 
L 405.721859 -43.508422 
L 403.928261 -43.244987 
L 402.134662 -42.960988 
L 400.341064 -42.65591 
L 398.547465 -42.330692 
L 396.753866 -41.987582 
L 394.960268 -41.629931 
L 393.166669 -41.261945 
L 391.37307 -40.888409 
L 389.579472 -40.514405 
L 387.785873 -40.145033 
L 385.992274 -39.785166 
L 384.198676 -39.439236 
L 382.405077 -39.111073 
L 380.611478 -38.803783 
L 378.81788 -38.519692 
L 377.024281 -38.260326 
L 375.230683 -38.026437 
L 373.437084 -37.818071 
L 371.643485 -37.634652 
L 369.849887 -37.475086 
L 368.056288 -37.337879 
L 366.262689 -37.221247 
L 364.469091 -37.123226 
L 362.675492 -37.041768 
L 360.881893 -36.974823 
L 359.088295 -36.920411 
L 357.294696 -36.876666 
L 355.501097 -36.841877 
L 353.707499 -36.814507 
L 351.9139 -36.793204 
z
" style="stroke: #4c72b0"/>
    </defs>
    <g>
     <use xlink:href="#m91533291e0" x="0" y="265.689687" style="fill: #4c72b0; fill-opacity: 0.25; stroke: #4c72b0"/>
    </g>
   </g>
   <g id="line2d_35">
    <path d="M 234.223589 228.96 
L 234.223589 7.2 
" style="fill: none; stroke-dasharray: 2.96,1.28; stroke-dashoffset: 0; stroke: #d3d3d3; stroke-width: 0.8"/>
   </g>
   <g id="line2d_36">
    <path d="M 441.935373 228.96 
L 441.935373 7.2 
" style="fill: none; stroke-dasharray: 2.96,1.28; stroke-dashoffset: 0; stroke: #d3d3d3; stroke-width: 0.8"/>
   </g>
   <g id="line2d_37">
    <path d="M 353.587028 228.96 
L 353.587028 7.2 
" style="fill: none; stroke-dasharray: 2.96,1.28; stroke-dashoffset: 0; stroke: #d3d3d3; stroke-width: 0.8"/>
   </g>
   <g id="line2d_38">
    <path d="M 7.2 228.96 
L 844.2 228.96 
" style="fill: none; stroke: #808080; stroke-width: 0.5; stroke-linecap: round"/>
   </g>
   <g id="text_12">
    <text style="font-size: 8px; font-family: 'Arial', 'DejaVu Sans', 'Liberation Sans', 'Bitstream Vera Sans', sans-serif; fill: #808080" transform="translate(240.477339 124.59635) rotate(-90)">International Poverty Line: $3.00</text>
   </g>
   <g id="text_13">
    <text style="font-size: 8px; font-family: 'Arial', 'DejaVu Sans', 'Liberation Sans', 'Bitstream Vera Sans', sans-serif; fill: #808080" transform="translate(447.661623 81.31135) rotate(-90)">World mean: $21.69</text>
   </g>
   <g id="text_14">
    <text style="font-size: 8px; font-family: 'Arial', 'DejaVu Sans', 'Liberation Sans', 'Bitstream Vera Sans', sans-serif; fill: #808080" transform="translate(359.313278 83.08885) rotate(-90)">World median: $9.35</text>
   </g>
   <g id="text_15">
    <text style="font-size: 10px; font-family: 'Arial', 'DejaVu Sans', 'Liberation Sans', 'Bitstream Vera Sans', sans-serif; text-anchor: middle" x="549.852014" y="226.855312" transform="rotate(-0 549.852014 226.855312)">Denmark (2022)</text>
   </g>
   <g id="text_16">
    <text style="font-size: 10px; font-family: 'Arial', 'DejaVu Sans', 'Liberation Sans', 'Bitstream Vera Sans', sans-serif; text-anchor: middle" x="238.930737" y="226.855312" transform="rotate(-0 238.930737 226.855312)">Kenya (2021)</text>
   </g>
  </g>
 </g>
</svg>
