<?xml version="1.0" encoding="utf-8" standalone="no"?>
<!DOCTYPE svg PUBLIC "-//W3C//DTD SVG 1.1//EN"
  "http://www.w3.org/Graphics/SVG/1.1/DTD/svg11.dtd">
<svg xmlns:xlink="http://www.w3.org/1999/xlink" width="860.6125pt" height="282.943437pt" viewBox="0 0 860.6125 282.943437" xmlns="http://www.w3.org/2000/svg" version="1.1">
 <metadata>
  <rdf:RDF xmlns:dc="http://purl.org/dc/elements/1.1/" xmlns:cc="http://creativecommons.org/ns#" xmlns:rdf="http://www.w3.org/1999/02/22-rdf-syntax-ns#">
   <cc:Work>
    <dc:type rdf:resource="http://purl.org/dc/dcmitype/StillImage"/>
    <dc:date>2026-05-27T15:50:18.001242</dc:date>
    <dc:format>image/svg+xml</dc:format>
    <dc:creator>
     <cc:Agent>
      <dc:title>Matplotlib v3.10.9, https://matplotlib.org/</dc:title>
     </cc:Agent>
    </dc:creator>
   </cc:Work>
  </rdf:RDF>
 </metadata>
 <defs>
  <style type="text/css">*{stroke-linejoin: round; stroke-linecap: butt}</style>
 </defs>
 <g id="figure_1">
  <g id="patch_1">
   <path d="M 0 282.943437 
L 860.6125 282.943437 
L 860.6125 0 
L 0 0 
z
" style="fill: #ffffff"/>
  </g>
  <g id="axes_1">
   <g id="patch_2">
    <path d="M 7.2 246.21375 
L 844.2 246.21375 
L 844.2 24.45375 
L 7.2 24.45375 
z
" style="fill: #ffffff"/>
   </g>
   <g id="matplotlib.axis_1">
    <g id="xtick_1">
     <g id="line2d_1">
      <defs>
       <path id="m3c5de3e168" d="M 0 0 
L 0 3.5 
" style="stroke: #262626; stroke-width: 0.8"/>
      </defs>
      <g>
       <use xlink:href="#m3c5de3e168" x="32.009935" y="246.21375" style="fill: #262626; stroke: #262626; stroke-width: 0.8"/>
      </g>
     </g>
     <g id="text_1">
      <text style="font-size: 10px; font-family: 'Arial', 'DejaVu Sans', 'Liberation Sans', 'Bitstream Vera Sans', sans-serif; text-anchor: middle; fill: #262626" x="32.009935" y="260.371562" transform="rotate(-0 32.009935 260.371562)">$5</text>
     </g>
    </g>
    <g id="xtick_2">
     <g id="line2d_2">
      <g>
       <use xlink:href="#m3c5de3e168" x="102.423095" y="246.21375" style="fill: #262626; stroke: #262626; stroke-width: 0.8"/>
      </g>
     </g>
     <g id="text_2">
      <text style="font-size: 10px; font-family: 'Arial', 'DejaVu Sans', 'Liberation Sans', 'Bitstream Vera Sans', sans-serif; text-anchor: middle; fill: #262626" x="102.423095" y="260.371562" transform="rotate(-0 102.423095 260.371562)">$10</text>
     </g>
    </g>
    <g id="xtick_3">
     <g id="line2d_3">
      <g>
       <use xlink:href="#m3c5de3e168" x="172.836254" y="246.21375" style="fill: #262626; stroke: #262626; stroke-width: 0.8"/>
      </g>
     </g>
     <g id="text_3">
      <text style="font-size: 10px; font-family: 'Arial', 'DejaVu Sans', 'Liberation Sans', 'Bitstream Vera Sans', sans-serif; text-anchor: middle; fill: #262626" x="172.836254" y="260.371562" transform="rotate(-0 172.836254 260.371562)">$20</text>
     </g>
    </g>
    <g id="xtick_4">
     <g id="line2d_4">
      <g>
       <use xlink:href="#m3c5de3e168" x="265.917388" y="246.21375" style="fill: #262626; stroke: #262626; stroke-width: 0.8"/>
      </g>
     </g>
     <g id="text_4">
      <text style="font-size: 10px; font-family: 'Arial', 'DejaVu Sans', 'Liberation Sans', 'Bitstream Vera Sans', sans-serif; text-anchor: middle; fill: #262626" x="265.917388" y="260.371562" transform="rotate(-0 265.917388 260.371562)">$50</text>
     </g>
    </g>
    <g id="xtick_5">
     <g id="line2d_5">
      <g>
       <use xlink:href="#m3c5de3e168" x="336.330547" y="246.21375" style="fill: #262626; stroke: #262626; stroke-width: 0.8"/>
      </g>
     </g>
     <g id="text_5">
      <text style="font-size: 10px; font-family: 'Arial', 'DejaVu Sans', 'Liberation Sans', 'Bitstream Vera Sans', sans-serif; text-anchor: middle; fill: #262626" x="336.330547" y="260.371562" transform="rotate(-0 336.330547 260.371562)">$100</text>
     </g>
    </g>
    <g id="xtick_6">
     <g id="line2d_6">
      <g>
       <use xlink:href="#m3c5de3e168" x="406.743707" y="246.21375" style="fill: #262626; stroke: #262626; stroke-width: 0.8"/>
      </g>
     </g>
     <g id="text_6">
      <text style="font-size: 10px; font-family: 'Arial', 'DejaVu Sans', 'Liberation Sans', 'Bitstream Vera Sans', sans-serif; text-anchor: middle; fill: #262626" x="406.743707" y="260.371562" transform="rotate(-0 406.743707 260.371562)">$200</text>
     </g>
    </g>
    <g id="xtick_7">
     <g id="line2d_7">
      <g>
       <use xlink:href="#m3c5de3e168" x="499.82484" y="246.21375" style="fill: #262626; stroke: #262626; stroke-width: 0.8"/>
      </g>
     </g>
     <g id="text_7">
      <text style="font-size: 10px; font-family: 'Arial', 'DejaVu Sans', 'Liberation Sans', 'Bitstream Vera Sans', sans-serif; text-anchor: middle; fill: #262626" x="499.82484" y="260.371562" transform="rotate(-0 499.82484 260.371562)">$500</text>
     </g>
    </g>
    <g id="xtick_8">
     <g id="line2d_8">
      <g>
       <use xlink:href="#m3c5de3e168" x="570.238" y="246.21375" style="fill: #262626; stroke: #262626; stroke-width: 0.8"/>
      </g>
     </g>
     <g id="text_8">
      <text style="font-size: 10px; font-family: 'Arial', 'DejaVu Sans', 'Liberation Sans', 'Bitstream Vera Sans', sans-serif; text-anchor: middle; fill: #262626" x="570.238" y="260.371562" transform="rotate(-0 570.238 260.371562)">$1000</text>
     </g>
    </g>
    <g id="xtick_9">
     <g id="line2d_9">
      <g>
       <use xlink:href="#m3c5de3e168" x="640.651159" y="246.21375" style="fill: #262626; stroke: #262626; stroke-width: 0.8"/>
      </g>
     </g>
     <g id="text_9">
      <text style="font-size: 10px; font-family: 'Arial', 'DejaVu Sans', 'Liberation Sans', 'Bitstream Vera Sans', sans-serif; text-anchor: middle; fill: #262626" x="640.651159" y="260.371562" transform="rotate(-0 640.651159 260.371562)">$2000</text>
     </g>
    </g>
    <g id="xtick_10">
     <g id="line2d_10">
      <g>
       <use xlink:href="#m3c5de3e168" x="733.732293" y="246.21375" style="fill: #262626; stroke: #262626; stroke-width: 0.8"/>
      </g>
     </g>
     <g id="text_10">
      <text style="font-size: 10px; font-family: 'Arial', 'DejaVu Sans', 'Liberation Sans', 'Bitstream Vera Sans', sans-serif; text-anchor: middle; fill: #262626" x="733.732293" y="260.371562" transform="rotate(-0 733.732293 260.371562)">$5000</text>
     </g>
    </g>
    <g id="xtick_11">
     <g id="line2d_11">
      <g>
       <use xlink:href="#m3c5de3e168" x="804.145452" y="246.21375" style="fill: #262626; stroke: #262626; stroke-width: 0.8"/>
      </g>
     </g>
     <g id="text_11">
      <text style="font-size: 10px; font-family: 'Arial', 'DejaVu Sans', 'Liberation Sans', 'Bitstream Vera Sans', sans-serif; text-anchor: middle; fill: #262626" x="804.145452" y="260.371562" transform="rotate(-0 804.145452 260.371562)">$10000</text>
     </g>
    </g>
    <g id="xtick_12">
     <g id="line2d_12">
      <defs>
       <path id="m5759739237" d="M 0 0 
L 0 2 
" style="stroke: #262626; stroke-width: 0.6"/>
      </defs>
      <g>
       <use xlink:href="#m5759739237" x="9.341961" y="246.21375" style="fill: #262626; stroke: #262626; stroke-width: 0.6"/>
      </g>
     </g>
    </g>
    <g id="xtick_13">
     <g id="line2d_13">
      <g>
       <use xlink:href="#m5759739237" x="50.531019" y="246.21375" style="fill: #262626; stroke: #262626; stroke-width: 0.6"/>
      </g>
     </g>
    </g>
    <g id="xtick_14">
     <g id="line2d_14">
      <g>
       <use xlink:href="#m5759739237" x="66.190372" y="246.21375" style="fill: #262626; stroke: #262626; stroke-width: 0.6"/>
      </g>
     </g>
    </g>
    <g id="xtick_15">
     <g id="line2d_15">
      <g>
       <use xlink:href="#m5759739237" x="79.75512" y="246.21375" style="fill: #262626; stroke: #262626; stroke-width: 0.6"/>
      </g>
     </g>
    </g>
    <g id="xtick_16">
     <g id="line2d_16">
      <g>
       <use xlink:href="#m5759739237" x="91.720077" y="246.21375" style="fill: #262626; stroke: #262626; stroke-width: 0.6"/>
      </g>
     </g>
    </g>
    <g id="xtick_17">
     <g id="line2d_17">
      <g>
       <use xlink:href="#m5759739237" x="214.025312" y="246.21375" style="fill: #262626; stroke: #262626; stroke-width: 0.6"/>
      </g>
     </g>
    </g>
    <g id="xtick_18">
     <g id="line2d_18">
      <g>
       <use xlink:href="#m5759739237" x="243.249414" y="246.21375" style="fill: #262626; stroke: #262626; stroke-width: 0.6"/>
      </g>
     </g>
    </g>
    <g id="xtick_19">
     <g id="line2d_19">
      <g>
       <use xlink:href="#m5759739237" x="284.438471" y="246.21375" style="fill: #262626; stroke: #262626; stroke-width: 0.6"/>
      </g>
     </g>
    </g>
    <g id="xtick_20">
     <g id="line2d_20">
      <g>
       <use xlink:href="#m5759739237" x="300.097824" y="246.21375" style="fill: #262626; stroke: #262626; stroke-width: 0.6"/>
      </g>
     </g>
    </g>
    <g id="xtick_21">
     <g id="line2d_21">
      <g>
       <use xlink:href="#m5759739237" x="313.662573" y="246.21375" style="fill: #262626; stroke: #262626; stroke-width: 0.6"/>
      </g>
     </g>
    </g>
    <g id="xtick_22">
     <g id="line2d_22">
      <g>
       <use xlink:href="#m5759739237" x="325.627529" y="246.21375" style="fill: #262626; stroke: #262626; stroke-width: 0.6"/>
      </g>
     </g>
    </g>
    <g id="xtick_23">
     <g id="line2d_23">
      <g>
       <use xlink:href="#m5759739237" x="447.932764" y="246.21375" style="fill: #262626; stroke: #262626; stroke-width: 0.6"/>
      </g>
     </g>
    </g>
    <g id="xtick_24">
     <g id="line2d_24">
      <g>
       <use xlink:href="#m5759739237" x="477.156866" y="246.21375" style="fill: #262626; stroke: #262626; stroke-width: 0.6"/>
      </g>
     </g>
    </g>
    <g id="xtick_25">
     <g id="line2d_25">
      <g>
       <use xlink:href="#m5759739237" x="518.345924" y="246.21375" style="fill: #262626; stroke: #262626; stroke-width: 0.6"/>
      </g>
     </g>
    </g>
    <g id="xtick_26">
     <g id="line2d_26">
      <g>
       <use xlink:href="#m5759739237" x="534.005277" y="246.21375" style="fill: #262626; stroke: #262626; stroke-width: 0.6"/>
      </g>
     </g>
    </g>
    <g id="xtick_27">
     <g id="line2d_27">
      <g>
       <use xlink:href="#m5759739237" x="547.570026" y="246.21375" style="fill: #262626; stroke: #262626; stroke-width: 0.6"/>
      </g>
     </g>
    </g>
    <g id="xtick_28">
     <g id="line2d_28">
      <g>
       <use xlink:href="#m5759739237" x="559.534982" y="246.21375" style="fill: #262626; stroke: #262626; stroke-width: 0.6"/>
      </g>
     </g>
    </g>
    <g id="xtick_29">
     <g id="line2d_29">
      <g>
       <use xlink:href="#m5759739237" x="681.840217" y="246.21375" style="fill: #262626; stroke: #262626; stroke-width: 0.6"/>
      </g>
     </g>
    </g>
    <g id="xtick_30">
     <g id="line2d_30">
      <g>
       <use xlink:href="#m5759739237" x="711.064319" y="246.21375" style="fill: #262626; stroke: #262626; stroke-width: 0.6"/>
      </g>
     </g>
    </g>
    <g id="xtick_31">
     <g id="line2d_31">
      <g>
       <use xlink:href="#m5759739237" x="752.253377" y="246.21375" style="fill: #262626; stroke: #262626; stroke-width: 0.6"/>
      </g>
     </g>
    </g>
    <g id="xtick_32">
     <g id="line2d_32">
      <g>
       <use xlink:href="#m5759739237" x="767.91273" y="246.21375" style="fill: #262626; stroke: #262626; stroke-width: 0.6"/>
      </g>
     </g>
    </g>
    <g id="xtick_33">
     <g id="line2d_33">
      <g>
       <use xlink:href="#m5759739237" x="781.477478" y="246.21375" style="fill: #262626; stroke: #262626; stroke-width: 0.6"/>
      </g>
     </g>
    </g>
    <g id="xtick_34">
     <g id="line2d_34">
      <g>
       <use xlink:href="#m5759739237" x="793.442434" y="246.21375" style="fill: #262626; stroke: #262626; stroke-width: 0.6"/>
      </g>
     </g>
    </g>
    <g id="text_12">
     <text style="font-size: 10px; font-family: 'Arial', 'DejaVu Sans', 'Liberation Sans', 'Bitstream Vera Sans', sans-serif; text-anchor: middle; fill: #262626" x="425.7" y="273.63875" transform="rotate(-0 425.7 273.63875)">Income or consumption (month)</text>
    </g>
   </g>
   <g id="matplotlib.axis_2"/>
   <g id="FillBetweenPolyCollection_1">
    <defs>
     <path id="ma9ffef39b6" d="M 45.245455 -36.729688 
L 45.245455 -36.775902 
L 47.651436 -36.799212 
L 50.057418 -36.832522 
L 52.4634 -36.879246 
L 54.869381 -36.943587 
L 57.275363 -37.030565 
L 59.681345 -37.145991 
L 62.087326 -37.296371 
L 64.493308 -37.488717 
L 66.89929 -37.730268 
L 69.305271 -38.028122 
L 71.711253 -38.388798 
L 74.117235 -38.817757 
L 76.523216 -39.318939 
L 78.929198 -39.894346 
L 81.33518 -40.543763 
L 83.741162 -41.264632 
L 86.147143 -42.052149 
L 88.553125 -42.899583 
L 90.959107 -43.798816 
L 93.365088 -44.741064 
L 95.77107 -45.717711 
L 98.177052 -46.721174 
L 100.583033 -47.745701 
L 102.989015 -48.78801 
L 105.394997 -49.847687 
L 107.800978 -50.927302 
L 110.20696 -52.032212 
L 112.612942 -53.170076 
L 115.018924 -54.350138 
L 117.424905 -55.58234 
L 119.830887 -56.87638 
L 122.236869 -58.240802 
L 124.64285 -59.682214 
L 127.048832 -61.204707 
L 129.454814 -62.809536 
L 131.860795 -64.495078 
L 134.266777 -66.257073 
L 136.672759 -68.089108 
L 139.07874 -69.983302 
L 141.484722 -71.931113 
L 143.890704 -73.924187 
L 146.296685 -75.955176 
L 148.702667 -78.018426 
L 151.108649 -80.110473 
L 153.514631 -82.230295 
L 155.920612 -84.379282 
L 158.326594 -86.560933 
L 160.732576 -88.780299 
L 163.138557 -91.04323 
L 165.544539 -93.355523 
L 167.950521 -95.722051 
L 170.356502 -98.145988 
L 172.762484 -100.628222 
L 175.168466 -103.16703 
L 177.574447 -105.758053 
L 179.980429 -108.394575 
L 182.386411 -111.068066 
L 184.792392 -113.768909 
L 187.198374 -116.487219 
L 189.604356 -119.213624 
L 192.010338 -121.939917 
L 194.416319 -124.659484 
L 196.822301 -127.367448 
L 199.228283 -130.06052 
L 201.634264 -132.736583 
L 204.040246 -135.394064 
L 206.446228 -138.031183 
L 208.852209 -140.645168 
L 211.258191 -143.231536 
L 213.664173 -145.783508 
L 216.070154 -148.291612 
L 218.476136 -150.743513 
L 220.882118 -153.124062 
L 223.2881 -155.415562 
L 225.694081 -157.598231 
L 228.100063 -159.650833 
L 230.506045 -161.551448 
L 232.912026 -163.278344 
L 235.318008 -164.81092 
L 237.72399 -166.130668 
L 240.129971 -167.222076 
L 242.535953 -168.073434 
L 244.941935 -168.677435 
L 247.347916 -169.031523 
L 249.753898 -169.137947 
L 252.15988 -169.00348 
L 254.565861 -168.63885 
L 256.971843 -168.057932 
L 259.377825 -167.276782 
L 261.783807 -166.312639 
L 264.189788 -165.182986 
L 266.59577 -163.904776 
L 269.001752 -162.493866 
L 271.407733 -160.964692 
L 273.813715 -159.330159 
L 276.219697 -157.601689 
L 278.625678 -155.789364 
L 281.03166 -153.902086 
L 283.437642 -151.947704 
L 285.843623 -149.933069 
L 288.249605 -147.864028 
L 290.655587 -145.74539 
L 293.061568 -143.580906 
L 295.46755 -141.373331 
L 297.873532 -139.124611 
L 300.279514 -136.836219 
L 302.685495 -134.509625 
L 305.091477 -132.14686 
L 307.497459 -129.75109 
L 309.90344 -127.327113 
L 312.309422 -124.881681 
L 314.715404 -122.423569 
L 317.121385 -119.963363 
L 319.527367 -117.512958 
L 321.933349 -115.084815 
L 324.33933 -112.691082 
L 326.745312 -110.342676 
L 329.151294 -108.048457 
L 331.557276 -105.814595 
L 333.963257 -103.644219 
L 336.369239 -101.53737 
L 338.775221 -99.491262 
L 341.181202 -97.500784 
L 343.587184 -95.559188 
L 345.993166 -93.658843 
L 348.399147 -91.791997 
L 350.805129 -89.951442 
L 353.211111 -88.131067 
L 355.617092 -86.32625 
L 358.023074 -84.534109 
L 360.429056 -82.753623 
L 362.835037 -80.985638 
L 365.241019 -79.23279 
L 367.647001 -77.499345 
L 370.052983 -75.790959 
L 372.458964 -74.114368 
L 374.864946 -72.476987 
L 377.270928 -70.886447 
L 379.676909 -69.350075 
L 382.082891 -67.874373 
L 384.488873 -66.464512 
L 386.894854 -65.123936 
L 389.300836 -63.854086 
L 391.706818 -62.654312 
L 394.112799 -61.521973 
L 396.518781 -60.452714 
L 398.924763 -59.440902 
L 401.330744 -58.48015 
L 403.736726 -57.563886 
L 406.142708 -56.685876 
L 408.54869 -55.840671 
L 410.954671 -55.023916 
L 413.360653 -54.232507 
L 415.766635 -53.464593 
L 418.172616 -52.719449 
L 420.578598 -51.997234 
L 422.98458 -51.298682 
L 425.390561 -50.624769 
L 427.796543 -49.976382 
L 430.202525 -49.354026 
L 432.608506 -48.757591 
L 435.014488 -48.1862 
L 437.42047 -47.638131 
L 439.826452 -47.110837 
L 442.232433 -46.60105 
L 444.638415 -46.104964 
L 447.044397 -45.61848 
L 449.450378 -45.137515 
L 451.85636 -44.658317 
L 454.262342 -44.177792 
L 456.668323 -43.693793 
L 459.074305 -43.205342 
L 461.480287 -42.712774 
L 463.886268 -42.217764 
L 466.29225 -41.723252 
L 468.698232 -41.23325 
L 471.104213 -40.752564 
L 473.510195 -40.286448 
L 475.916177 -39.840227 
L 478.322159 -39.418923 
L 480.72814 -39.026923 
L 483.134122 -38.667707 
L 485.540104 -38.34367 
L 487.946085 -38.056035 
L 490.352067 -37.804866 
L 492.758049 -37.589155 
L 495.16403 -37.406982 
L 497.570012 -37.255718 
L 499.975994 -37.132243 
L 502.381975 -37.033166 
L 504.787957 -36.955023 
L 507.193939 -36.894448 
L 509.59992 -36.848299 
L 512.005902 -36.813745 
L 514.411884 -36.788322 
L 516.817866 -36.769939 
L 519.223847 -36.756879 
L 521.629829 -36.74776 
L 524.035811 -36.741505 
L 524.035811 -36.729688 
L 524.035811 -36.729688 
L 521.629829 -36.729688 
L 519.223847 -36.729688 
L 516.817866 -36.729688 
L 514.411884 -36.729688 
L 512.005902 -36.729688 
L 509.59992 -36.729688 
L 507.193939 -36.729688 
L 504.787957 -36.729688 
L 502.381975 -36.729688 
L 499.975994 -36.729688 
L 497.570012 -36.729688 
L 495.16403 -36.729688 
L 492.758049 -36.729688 
L 490.352067 -36.729688 
L 487.946085 -36.729688 
L 485.540104 -36.729688 
L 483.134122 -36.729688 
L 480.72814 -36.729688 
L 478.322159 -36.729688 
L 475.916177 -36.729688 
L 473.510195 -36.729688 
L 471.104213 -36.729688 
L 468.698232 -36.729688 
L 466.29225 -36.729688 
L 463.886268 -36.729688 
L 461.480287 -36.729688 
L 459.074305 -36.729688 
L 456.668323 -36.729688 
L 454.262342 -36.729688 
L 451.85636 -36.729688 
L 449.450378 -36.729688 
L 447.044397 -36.729688 
L 444.638415 -36.729688 
L 442.232433 -36.729688 
L 439.826452 -36.729688 
L 437.42047 -36.729688 
L 435.014488 -36.729688 
L 432.608506 -36.729688 
L 430.202525 -36.729688 
L 427.796543 -36.729688 
L 425.390561 -36.729688 
L 422.98458 -36.729688 
L 420.578598 -36.729688 
L 418.172616 -36.729688 
L 415.766635 -36.729688 
L 413.360653 -36.729688 
L 410.954671 -36.729688 
L 408.54869 -36.729688 
L 406.142708 -36.729688 
L 403.736726 -36.729688 
L 401.330744 -36.729688 
L 398.924763 -36.729688 
L 396.518781 -36.729688 
L 394.112799 -36.729688 
L 391.706818 -36.729688 
L 389.300836 -36.729688 
L 386.894854 -36.729688 
L 384.488873 -36.729688 
L 382.082891 -36.729688 
L 379.676909 -36.729688 
L 377.270928 -36.729688 
L 374.864946 -36.729688 
L 372.458964 -36.729688 
L 370.052983 -36.729688 
L 367.647001 -36.729688 
L 365.241019 -36.729688 
L 362.835037 -36.729688 
L 360.429056 -36.729688 
L 358.023074 -36.729688 
L 355.617092 -36.729688 
L 353.211111 -36.729688 
L 350.805129 -36.729688 
L 348.399147 -36.729688 
L 345.993166 -36.729688 
L 343.587184 -36.729688 
L 341.181202 -36.729688 
L 338.775221 -36.729688 
L 336.369239 -36.729688 
L 333.963257 -36.729688 
L 331.557276 -36.729688 
L 329.151294 -36.729688 
L 326.745312 -36.729688 
L 324.33933 -36.729688 
L 321.933349 -36.729688 
L 319.527367 -36.729688 
L 317.121385 -36.729688 
L 314.715404 -36.729688 
L 312.309422 -36.729688 
L 309.90344 -36.729688 
L 307.497459 -36.729688 
L 305.091477 -36.729688 
L 302.685495 -36.729688 
L 300.279514 -36.729688 
L 297.873532 -36.729688 
L 295.46755 -36.729688 
L 293.061568 -36.729688 
L 290.655587 -36.729688 
L 288.249605 -36.729688 
L 285.843623 -36.729688 
L 283.437642 -36.729688 
L 281.03166 -36.729688 
L 278.625678 -36.729688 
L 276.219697 -36.729688 
L 273.813715 -36.729688 
L 271.407733 -36.729688 
L 269.001752 -36.729688 
L 266.59577 -36.729688 
L 264.189788 -36.729688 
L 261.783807 -36.729688 
L 259.377825 -36.729688 
L 256.971843 -36.729688 
L 254.565861 -36.729688 
L 252.15988 -36.729688 
L 249.753898 -36.729688 
L 247.347916 -36.729688 
L 244.941935 -36.729688 
L 242.535953 -36.729688 
L 240.129971 -36.729688 
L 237.72399 -36.729688 
L 235.318008 -36.729688 
L 232.912026 -36.729688 
L 230.506045 -36.729688 
L 228.100063 -36.729688 
L 225.694081 -36.729688 
L 223.2881 -36.729688 
L 220.882118 -36.729688 
L 218.476136 -36.729688 
L 216.070154 -36.729688 
L 213.664173 -36.729688 
L 211.258191 -36.729688 
L 208.852209 -36.729688 
L 206.446228 -36.729688 
L 204.040246 -36.729688 
L 201.634264 -36.729688 
L 199.228283 -36.729688 
L 196.822301 -36.729688 
L 194.416319 -36.729688 
L 192.010338 -36.729688 
L 189.604356 -36.729688 
L 187.198374 -36.729688 
L 184.792392 -36.729688 
L 182.386411 -36.729688 
L 179.980429 -36.729688 
L 177.574447 -36.729688 
L 175.168466 -36.729688 
L 172.762484 -36.729688 
L 170.356502 -36.729688 
L 167.950521 -36.729688 
L 165.544539 -36.729688 
L 163.138557 -36.729688 
L 160.732576 -36.729688 
L 158.326594 -36.729688 
L 155.920612 -36.729688 
L 153.514631 -36.729688 
L 151.108649 -36.729688 
L 148.702667 -36.729688 
L 146.296685 -36.729688 
L 143.890704 -36.729688 
L 141.484722 -36.729688 
L 139.07874 -36.729688 
L 136.672759 -36.729688 
L 134.266777 -36.729688 
L 131.860795 -36.729688 
L 129.454814 -36.729688 
L 127.048832 -36.729688 
L 124.64285 -36.729688 
L 122.236869 -36.729688 
L 119.830887 -36.729688 
L 117.424905 -36.729688 
L 115.018924 -36.729688 
L 112.612942 -36.729688 
L 110.20696 -36.729688 
L 107.800978 -36.729688 
L 105.394997 -36.729688 
L 102.989015 -36.729688 
L 100.583033 -36.729688 
L 98.177052 -36.729688 
L 95.77107 -36.729688 
L 93.365088 -36.729688 
L 90.959107 -36.729688 
L 88.553125 -36.729688 
L 86.147143 -36.729688 
L 83.741162 -36.729688 
L 81.33518 -36.729688 
L 78.929198 -36.729688 
L 76.523216 -36.729688 
L 74.117235 -36.729688 
L 71.711253 -36.729688 
L 69.305271 -36.729688 
L 66.89929 -36.729688 
L 64.493308 -36.729688 
L 62.087326 -36.729688 
L 59.681345 -36.729688 
L 57.275363 -36.729688 
L 54.869381 -36.729688 
L 52.4634 -36.729688 
L 50.057418 -36.729688 
L 47.651436 -36.729688 
L 45.245455 -36.729688 
z
" style="stroke: #dd8452; stroke-opacity: 0.2"/>
    </defs>
    <g>
     <use xlink:href="#ma9ffef39b6" x="0" y="282.943437" style="fill: #dd8452; fill-opacity: 0.2; stroke: #dd8452; stroke-opacity: 0.2"/>
    </g>
   </g>
   <g id="FillBetweenPolyCollection_2">
    <defs>
     <path id="m61d998f936" d="M 462.4989 -36.729688 
L 462.4989 -36.740956 
L 464.225812 -36.74765 
L 465.952725 -36.757683 
L 467.679638 -36.772356 
L 469.406551 -36.79329 
L 471.133464 -36.822426 
L 472.860376 -36.861983 
L 474.587289 -36.914373 
L 476.314202 -36.982057 
L 478.041115 -37.067352 
L 479.768028 -37.172209 
L 481.49494 -37.297973 
L 483.221853 -37.445167 
L 484.948766 -37.613346 
L 486.675679 -37.801044 
L 488.402592 -38.005861 
L 490.129504 -38.224699 
L 491.856417 -38.454133 
L 493.58333 -38.69089 
L 495.310243 -38.932379 
L 497.037156 -39.177193 
L 498.764068 -39.425529 
L 500.490981 -39.679438 
L 502.217894 -39.942874 
L 503.944807 -40.221547 
L 505.671719 -40.522568 
L 507.398632 -40.853988 
L 509.125545 -41.224267 
L 510.852458 -41.641787 
L 512.579371 -42.114457 
L 514.306283 -42.649481 
L 516.033196 -43.253287 
L 517.760109 -43.931587 
L 519.487022 -44.689518 
L 521.213935 -45.531756 
L 522.940847 -46.462529 
L 524.66776 -47.485425 
L 526.394673 -48.602979 
L 528.121586 -49.816029 
L 529.848499 -51.122917 
L 531.575411 -52.518685 
L 533.302324 -53.994429 
L 535.029237 -55.537009 
L 536.75615 -57.12929 
L 538.483063 -58.75102 
L 540.209975 -60.380343 
L 541.936888 -61.995843 
L 543.663801 -63.578873 
L 545.390714 -65.115862 
L 547.117627 -66.600227 
L 548.844539 -68.033592 
L 550.571452 -69.426072 
L 552.298365 -70.795585 
L 554.025278 -72.166291 
L 555.75219 -73.566451 
L 557.479103 -75.026069 
L 559.206016 -76.574736 
L 560.932929 -78.240024 
L 562.659842 -80.046628 
L 564.386754 -82.01631 
L 566.113667 -84.168497 
L 567.84058 -86.52127 
L 569.567493 -89.09241 
L 571.294406 -91.900186 
L 573.021318 -94.963639 
L 574.748231 -98.302273 
L 576.475144 -101.935179 
L 578.202057 -105.879754 
L 579.92897 -110.150245 
L 581.655882 -114.756364 
L 583.382795 -119.70218 
L 585.109708 -124.985408 
L 586.836621 -130.597118 
L 588.563534 -136.521782 
L 590.290446 -142.737503 
L 592.017359 -149.216243 
L 593.744272 -155.923892 
L 595.471185 -162.820059 
L 597.198098 -169.85762 
L 598.92501 -176.98214 
L 600.651923 -184.131413 
L 602.378836 -191.235435 
L 604.105749 -198.217124 
L 605.832661 -204.994019 
L 607.559574 -211.481036 
L 609.286487 -217.594173 
L 611.0134 -223.254838 
L 612.740313 -228.394303 
L 614.467225 -232.957748 
L 616.194138 -236.90735 
L 617.921051 -240.224051 
L 619.647964 -242.907816 
L 621.374877 -244.976458 
L 623.101789 -246.463288 
L 624.828702 -247.413953 
L 626.555615 -247.882889 
L 628.282528 -247.929688 
L 630.009441 -247.615619 
L 631.736353 -247.000376 
L 633.463266 -246.139057 
L 635.190179 -245.07939 
L 636.917092 -243.859248 
L 638.644005 -242.504617 
L 640.370917 -241.02829 
L 642.09783 -239.429591 
L 643.824743 -237.695412 
L 645.551656 -235.802697 
L 647.278569 -233.722265 
L 649.005481 -231.423609 
L 650.732394 -228.880072 
L 652.459307 -226.073613 
L 654.18622 -222.998427 
L 655.913132 -219.662802 
L 657.640045 -216.088911 
L 659.366958 -212.31063 
L 661.093871 -208.369811 
L 662.820784 -204.311755 
L 664.547696 -200.18072 
L 666.274609 -196.01622 
L 668.001522 -191.850646 
L 669.728435 -187.708383 
L 671.455348 -183.606238 
L 673.18226 -179.554749 
L 674.909173 -175.559789 
L 676.636086 -171.623947 
L 678.362999 -167.747336 
L 680.089912 -163.927745 
L 681.816824 -160.160306 
L 683.543737 -156.437002 
L 685.27065 -152.74642 
L 686.997563 -149.074039 
L 688.724476 -145.403202 
L 690.451388 -141.716702 
L 692.178301 -137.998716 
L 693.905214 -134.236756 
L 695.632127 -130.423259 
L 697.359039 -126.556563 
L 699.085952 -122.641126 
L 700.812865 -118.687044 
L 702.539778 -114.70902 
L 704.266691 -110.725051 
L 705.993603 -106.75507 
L 707.720516 -102.819779 
L 709.447429 -98.939772 
L 711.174342 -95.134987 
L 712.901255 -91.424423 
L 714.628167 -87.826013 
L 716.35508 -84.35653 
L 718.081993 -81.03143 
L 719.808906 -77.864577 
L 721.535819 -74.867848 
L 723.262731 -72.05068 
L 724.989644 -69.419627 
L 726.716557 -66.978018 
L 728.44347 -64.725784 
L 730.170383 -62.6595 
L 731.897295 -60.772623 
L 733.624208 -59.055906 
L 735.351121 -57.497923 
L 737.078034 -56.08564 
L 738.804947 -54.804972 
L 740.531859 -53.6413 
L 742.258772 -52.579921 
L 743.985685 -51.60644 
L 745.712598 -50.707122 
L 747.43951 -49.869199 
L 749.166423 -49.081145 
L 750.893336 -48.332908 
L 752.620249 -47.616068 
L 754.347162 -46.923911 
L 756.074074 -46.251397 
L 757.800987 -45.595042 
L 759.5279 -44.952715 
L 761.254813 -44.323409 
L 762.981726 -43.707004 
L 764.708638 -43.104083 
L 766.435551 -42.515806 
L 768.162464 -41.943844 
L 769.889377 -41.390353 
L 771.61629 -40.857962 
L 773.343202 -40.349714 
L 775.070115 -39.868952 
L 776.797028 -39.419129 
L 778.523941 -39.003547 
L 780.250854 -38.625062 
L 781.977766 -38.285796 
L 783.704679 -37.986896 
L 785.431592 -37.728393 
L 787.158505 -37.50916 
L 788.885418 -37.326998 
L 790.61233 -37.178815 
L 792.339243 -37.060873 
L 794.066156 -36.969073 
L 795.793069 -36.899224 
L 797.519981 -36.847287 
L 799.246894 -36.809557 
L 800.973807 -36.782784 
L 802.70072 -36.76423 
L 804.427633 -36.751673 
L 806.154545 -36.743376 
L 806.154545 -36.729688 
L 806.154545 -36.729688 
L 804.427633 -36.729688 
L 802.70072 -36.729688 
L 800.973807 -36.729688 
L 799.246894 -36.729688 
L 797.519981 -36.729688 
L 795.793069 -36.729688 
L 794.066156 -36.729688 
L 792.339243 -36.729688 
L 790.61233 -36.729688 
L 788.885418 -36.729688 
L 787.158505 -36.729688 
L 785.431592 -36.729688 
L 783.704679 -36.729688 
L 781.977766 -36.729688 
L 780.250854 -36.729688 
L 778.523941 -36.729688 
L 776.797028 -36.729688 
L 775.070115 -36.729688 
L 773.343202 -36.729688 
L 771.61629 -36.729688 
L 769.889377 -36.729688 
L 768.162464 -36.729688 
L 766.435551 -36.729688 
L 764.708638 -36.729688 
L 762.981726 -36.729688 
L 761.254813 -36.729688 
L 759.5279 -36.729688 
L 757.800987 -36.729688 
L 756.074074 -36.729688 
L 754.347162 -36.729688 
L 752.620249 -36.729688 
L 750.893336 -36.729688 
L 749.166423 -36.729688 
L 747.43951 -36.729688 
L 745.712598 -36.729688 
L 743.985685 -36.729688 
L 742.258772 -36.729688 
L 740.531859 -36.729688 
L 738.804947 -36.729688 
L 737.078034 -36.729688 
L 735.351121 -36.729688 
L 733.624208 -36.729688 
L 731.897295 -36.729688 
L 730.170383 -36.729688 
L 728.44347 -36.729688 
L 726.716557 -36.729688 
L 724.989644 -36.729688 
L 723.262731 -36.729688 
L 721.535819 -36.729688 
L 719.808906 -36.729688 
L 718.081993 -36.729688 
L 716.35508 -36.729688 
L 714.628167 -36.729688 
L 712.901255 -36.729688 
L 711.174342 -36.729688 
L 709.447429 -36.729688 
L 707.720516 -36.729688 
L 705.993603 -36.729688 
L 704.266691 -36.729688 
L 702.539778 -36.729688 
L 700.812865 -36.729688 
L 699.085952 -36.729688 
L 697.359039 -36.729688 
L 695.632127 -36.729688 
L 693.905214 -36.729688 
L 692.178301 -36.729688 
L 690.451388 -36.729688 
L 688.724476 -36.729688 
L 686.997563 -36.729688 
L 685.27065 -36.729688 
L 683.543737 -36.729688 
L 681.816824 -36.729688 
L 680.089912 -36.729688 
L 678.362999 -36.729688 
L 676.636086 -36.729688 
L 674.909173 -36.729688 
L 673.18226 -36.729688 
L 671.455348 -36.729688 
L 669.728435 -36.729688 
L 668.001522 -36.729688 
L 666.274609 -36.729688 
L 664.547696 -36.729688 
L 662.820784 -36.729688 
L 661.093871 -36.729688 
L 659.366958 -36.729688 
L 657.640045 -36.729688 
L 655.913132 -36.729688 
L 654.18622 -36.729688 
L 652.459307 -36.729688 
L 650.732394 -36.729688 
L 649.005481 -36.729688 
L 647.278569 -36.729688 
L 645.551656 -36.729688 
L 643.824743 -36.729688 
L 642.09783 -36.729688 
L 640.370917 -36.729688 
L 638.644005 -36.729688 
L 636.917092 -36.729688 
L 635.190179 -36.729688 
L 633.463266 -36.729688 
L 631.736353 -36.729688 
L 630.009441 -36.729688 
L 628.282528 -36.729688 
L 626.555615 -36.729688 
L 624.828702 -36.729688 
L 623.101789 -36.729688 
L 621.374877 -36.729688 
L 619.647964 -36.729688 
L 617.921051 -36.729688 
L 616.194138 -36.729688 
L 614.467225 -36.729688 
L 612.740313 -36.729688 
L 611.0134 -36.729688 
L 609.286487 -36.729688 
L 607.559574 -36.729688 
L 605.832661 -36.729688 
L 604.105749 -36.729688 
L 602.378836 -36.729688 
L 600.651923 -36.729688 
L 598.92501 -36.729688 
L 597.198098 -36.729688 
L 595.471185 -36.729688 
L 593.744272 -36.729688 
L 592.017359 -36.729688 
L 590.290446 -36.729688 
L 588.563534 -36.729688 
L 586.836621 -36.729688 
L 585.109708 -36.729688 
L 583.382795 -36.729688 
L 581.655882 -36.729688 
L 579.92897 -36.729688 
L 578.202057 -36.729688 
L 576.475144 -36.729688 
L 574.748231 -36.729688 
L 573.021318 -36.729688 
L 571.294406 -36.729688 
L 569.567493 -36.729688 
L 567.84058 -36.729688 
L 566.113667 -36.729688 
L 564.386754 -36.729688 
L 562.659842 -36.729688 
L 560.932929 -36.729688 
L 559.206016 -36.729688 
L 557.479103 -36.729688 
L 555.75219 -36.729688 
L 554.025278 -36.729688 
L 552.298365 -36.729688 
L 550.571452 -36.729688 
L 548.844539 -36.729688 
L 547.117627 -36.729688 
L 545.390714 -36.729688 
L 543.663801 -36.729688 
L 541.936888 -36.729688 
L 540.209975 -36.729688 
L 538.483063 -36.729688 
L 536.75615 -36.729688 
L 535.029237 -36.729688 
L 533.302324 -36.729688 
L 531.575411 -36.729688 
L 529.848499 -36.729688 
L 528.121586 -36.729688 
L 526.394673 -36.729688 
L 524.66776 -36.729688 
L 522.940847 -36.729688 
L 521.213935 -36.729688 
L 519.487022 -36.729688 
L 517.760109 -36.729688 
L 516.033196 -36.729688 
L 514.306283 -36.729688 
L 512.579371 -36.729688 
L 510.852458 -36.729688 
L 509.125545 -36.729688 
L 507.398632 -36.729688 
L 505.671719 -36.729688 
L 503.944807 -36.729688 
L 502.217894 -36.729688 
L 500.490981 -36.729688 
L 498.764068 -36.729688 
L 497.037156 -36.729688 
L 495.310243 -36.729688 
L 493.58333 -36.729688 
L 491.856417 -36.729688 
L 490.129504 -36.729688 
L 488.402592 -36.729688 
L 486.675679 -36.729688 
L 484.948766 -36.729688 
L 483.221853 -36.729688 
L 481.49494 -36.729688 
L 479.768028 -36.729688 
L 478.041115 -36.729688 
L 476.314202 -36.729688 
L 474.587289 -36.729688 
L 472.860376 -36.729688 
L 471.133464 -36.729688 
L 469.406551 -36.729688 
L 467.679638 -36.729688 
L 465.952725 -36.729688 
L 464.225812 -36.729688 
L 462.4989 -36.729688 
z
" style="stroke: #4c72b0; stroke-opacity: 0.2"/>
    </defs>
    <g>
     <use xlink:href="#m61d998f936" x="0" y="282.943437" style="fill: #4c72b0; fill-opacity: 0.2; stroke: #4c72b0; stroke-opacity: 0.2"/>
    </g>
   </g>
   <g id="FillBetweenPolyCollection_3">
    <defs>
     <path id="m13233ad441" d="M 45.245455 -36.775902 
L 45.245455 -36.729688 
L 47.651436 -36.729688 
L 50.057418 -36.729688 
L 52.4634 -36.729688 
L 54.869381 -36.729688 
L 57.275363 -36.729688 
L 59.681345 -36.729688 
L 62.087326 -36.729688 
L 64.493308 -36.729688 
L 66.89929 -36.729688 
L 69.305271 -36.729688 
L 71.711253 -36.729688 
L 74.117235 -36.729688 
L 76.523216 -36.729688 
L 78.929198 -36.729688 
L 81.33518 -36.729688 
L 83.741162 -36.729688 
L 86.147143 -36.729688 
L 88.553125 -36.729688 
L 90.959107 -36.729688 
L 93.365088 -36.729688 
L 95.77107 -36.729688 
L 98.177052 -36.729688 
L 100.583033 -36.729688 
L 102.989015 -36.729688 
L 105.394997 -36.729688 
L 107.800978 -36.729688 
L 110.20696 -36.729688 
L 112.612942 -36.729688 
L 115.018924 -36.729688 
L 117.424905 -36.729688 
L 119.830887 -36.729688 
L 122.236869 -36.729688 
L 124.64285 -36.729688 
L 127.048832 -36.729688 
L 129.454814 -36.729688 
L 131.860795 -36.729688 
L 134.266777 -36.729688 
L 136.672759 -36.729688 
L 139.07874 -36.729688 
L 141.484722 -36.729688 
L 143.890704 -36.729688 
L 146.296685 -36.729688 
L 148.702667 -36.729688 
L 151.108649 -36.729688 
L 153.514631 -36.729688 
L 155.920612 -36.729688 
L 158.326594 -36.729688 
L 160.732576 -36.729688 
L 163.138557 -36.729688 
L 165.544539 -36.729688 
L 167.950521 -36.729688 
L 170.356502 -36.729688 
L 172.762484 -36.729688 
L 175.168466 -36.729688 
L 177.574447 -36.729688 
L 179.980429 -36.729688 
L 182.386411 -36.729688 
L 184.792392 -36.729688 
L 187.198374 -36.729688 
L 189.604356 -36.729688 
L 192.010338 -36.729688 
L 194.416319 -36.729688 
L 196.822301 -36.729688 
L 199.228283 -36.729688 
L 201.634264 -36.729688 
L 204.040246 -36.729688 
L 206.446228 -36.729688 
L 208.852209 -36.729688 
L 211.258191 -36.729688 
L 213.664173 -36.729688 
L 216.070154 -36.729688 
L 218.476136 -36.729688 
L 220.882118 -36.729688 
L 223.2881 -36.729688 
L 225.694081 -36.729688 
L 228.100063 -36.729688 
L 230.506045 -36.729688 
L 232.912026 -36.729688 
L 235.318008 -36.729688 
L 237.72399 -36.729688 
L 240.129971 -36.729688 
L 242.535953 -36.729688 
L 244.941935 -36.729688 
L 247.347916 -36.729688 
L 249.753898 -36.729688 
L 252.15988 -36.729688 
L 254.565861 -36.729688 
L 256.971843 -36.729688 
L 259.377825 -36.729688 
L 261.783807 -36.729688 
L 264.189788 -36.729688 
L 266.59577 -36.729688 
L 269.001752 -36.729688 
L 271.407733 -36.729688 
L 273.813715 -36.729688 
L 276.219697 -36.729688 
L 278.625678 -36.729688 
L 281.03166 -36.729688 
L 283.437642 -36.729688 
L 285.843623 -36.729688 
L 288.249605 -36.729688 
L 290.655587 -36.729688 
L 293.061568 -36.729688 
L 295.46755 -36.729688 
L 297.873532 -36.729688 
L 300.279514 -36.729688 
L 302.685495 -36.729688 
L 305.091477 -36.729688 
L 307.497459 -36.729688 
L 309.90344 -36.729688 
L 312.309422 -36.729688 
L 314.715404 -36.729688 
L 317.121385 -36.729688 
L 319.527367 -36.729688 
L 321.933349 -36.729688 
L 324.33933 -36.729688 
L 325.627529 -36.729688 
L 325.627529 -111.44063 
L 325.627529 -111.44063 
L 324.33933 -112.691082 
L 321.933349 -115.084815 
L 319.527367 -117.512958 
L 317.121385 -119.963363 
L 314.715404 -122.423569 
L 312.309422 -124.881681 
L 309.90344 -127.327113 
L 307.497459 -129.75109 
L 305.091477 -132.14686 
L 302.685495 -134.509625 
L 300.279514 -136.836219 
L 297.873532 -139.124611 
L 295.46755 -141.373331 
L 293.061568 -143.580906 
L 290.655587 -145.74539 
L 288.249605 -147.864028 
L 285.843623 -149.933069 
L 283.437642 -151.947704 
L 281.03166 -153.902086 
L 278.625678 -155.789364 
L 276.219697 -157.601689 
L 273.813715 -159.330159 
L 271.407733 -160.964692 
L 269.001752 -162.493866 
L 266.59577 -163.904776 
L 264.189788 -165.182986 
L 261.783807 -166.312639 
L 259.377825 -167.276782 
L 256.971843 -168.057932 
L 254.565861 -168.63885 
L 252.15988 -169.00348 
L 249.753898 -169.137947 
L 247.347916 -169.031523 
L 244.941935 -168.677435 
L 242.535953 -168.073434 
L 240.129971 -167.222076 
L 237.72399 -166.130668 
L 235.318008 -164.81092 
L 232.912026 -163.278344 
L 230.506045 -161.551448 
L 228.100063 -159.650833 
L 225.694081 -157.598231 
L 223.2881 -155.415562 
L 220.882118 -153.124062 
L 218.476136 -150.743513 
L 216.070154 -148.291612 
L 213.664173 -145.783508 
L 211.258191 -143.231536 
L 208.852209 -140.645168 
L 206.446228 -138.031183 
L 204.040246 -135.394064 
L 201.634264 -132.736583 
L 199.228283 -130.06052 
L 196.822301 -127.367448 
L 194.416319 -124.659484 
L 192.010338 -121.939917 
L 189.604356 -119.213624 
L 187.198374 -116.487219 
L 184.792392 -113.768909 
L 182.386411 -111.068066 
L 179.980429 -108.394575 
L 177.574447 -105.758053 
L 175.168466 -103.16703 
L 172.762484 -100.628222 
L 170.356502 -98.145988 
L 167.950521 -95.722051 
L 165.544539 -93.355523 
L 163.138557 -91.04323 
L 160.732576 -88.780299 
L 158.326594 -86.560933 
L 155.920612 -84.379282 
L 153.514631 -82.230295 
L 151.108649 -80.110473 
L 148.702667 -78.018426 
L 146.296685 -75.955176 
L 143.890704 -73.924187 
L 141.484722 -71.931113 
L 139.07874 -69.983302 
L 136.672759 -68.089108 
L 134.266777 -66.257073 
L 131.860795 -64.495078 
L 129.454814 -62.809536 
L 127.048832 -61.204707 
L 124.64285 -59.682214 
L 122.236869 -58.240802 
L 119.830887 -56.87638 
L 117.424905 -55.58234 
L 115.018924 -54.350138 
L 112.612942 -53.170076 
L 110.20696 -52.032212 
L 107.800978 -50.927302 
L 105.394997 -49.847687 
L 102.989015 -48.78801 
L 100.583033 -47.745701 
L 98.177052 -46.721174 
L 95.77107 -45.717711 
L 93.365088 -44.741064 
L 90.959107 -43.798816 
L 88.553125 -42.899583 
L 86.147143 -42.052149 
L 83.741162 -41.264632 
L 81.33518 -40.543763 
L 78.929198 -39.894346 
L 76.523216 -39.318939 
L 74.117235 -38.817757 
L 71.711253 -38.388798 
L 69.305271 -38.028122 
L 66.89929 -37.730268 
L 64.493308 -37.488717 
L 62.087326 -37.296371 
L 59.681345 -37.145991 
L 57.275363 -37.030565 
L 54.869381 -36.943587 
L 52.4634 -36.879246 
L 50.057418 -36.832522 
L 47.651436 -36.799212 
L 45.245455 -36.775902 
z
"/>
    </defs>
    <g>
     <use xlink:href="#m13233ad441" x="0" y="282.943437" style="fill: #dd8452; fill-opacity: 0.3"/>
    </g>
   </g>
   <g id="line2d_35">
    <path d="M 45.245455 246.167536 
L 54.869381 245.99985 
L 62.087326 245.647067 
L 66.89929 245.213169 
L 71.711253 244.55464 
L 76.523216 243.624499 
L 81.33518 242.399674 
L 86.147143 240.891288 
L 90.959107 239.144622 
L 98.177052 236.222264 
L 107.800978 232.016136 
L 115.018924 228.593299 
L 119.830887 226.067058 
L 124.64285 223.261223 
L 129.454814 220.133902 
L 134.266777 216.686365 
L 139.07874 212.960135 
L 146.296685 206.988262 
L 153.514631 200.713143 
L 160.732576 194.163139 
L 165.544539 189.587914 
L 170.356502 184.797449 
L 175.168466 179.776407 
L 182.386411 171.875372 
L 208.852209 142.298269 
L 216.070154 134.651826 
L 220.882118 129.819376 
L 225.694081 125.345207 
L 228.100063 123.292604 
L 230.506045 121.391989 
L 232.912026 119.665094 
L 235.318008 118.132517 
L 237.72399 116.81277 
L 240.129971 115.721361 
L 242.535953 114.870003 
L 244.941935 114.266003 
L 247.347916 113.911914 
L 249.753898 113.80549 
L 252.15988 113.939958 
L 254.565861 114.304588 
L 256.971843 114.885506 
L 259.377825 115.666656 
L 261.783807 116.630799 
L 264.189788 117.760451 
L 266.59577 119.038661 
L 271.407733 121.978746 
L 276.219697 125.341749 
L 281.03166 129.041351 
L 285.843623 133.010369 
L 293.061568 139.362531 
L 300.279514 146.107218 
L 307.497459 153.192348 
L 329.151294 174.89498 
L 333.963257 179.299219 
L 338.775221 183.452176 
L 345.993166 189.284594 
L 355.617092 196.617188 
L 367.647001 205.444093 
L 374.864946 210.46645 
L 379.676909 213.593362 
L 384.488873 216.478925 
L 389.300836 219.089352 
L 394.112799 221.421464 
L 398.924763 223.502536 
L 403.736726 225.379552 
L 410.954671 227.919521 
L 418.172616 230.223988 
L 425.390561 232.318668 
L 432.608506 234.185846 
L 439.826452 235.8326 
L 451.85636 238.28512 
L 478.322159 243.524514 
L 485.540104 244.599768 
L 492.758049 245.354283 
L 499.975994 245.811194 
L 507.193939 246.048989 
L 519.223847 246.186559 
L 524.035811 246.201932 
L 524.035811 246.201932 
" style="fill: none; stroke: #dd8452; stroke-width: 1.5; stroke-linecap: round"/>
   </g>
   <g id="line2d_36">
    <path d="M 462.4989 246.202482 
L 472.860376 246.081454 
L 479.768028 245.771229 
L 484.948766 245.330091 
L 491.856417 244.489304 
L 503.944807 242.721891 
L 509.125545 241.71917 
L 512.579371 240.828981 
L 516.033196 239.690151 
L 519.487022 238.253919 
L 522.940847 236.480909 
L 526.394673 234.340458 
L 529.848499 231.820521 
L 533.302324 228.949008 
L 538.483063 224.192418 
L 545.390714 217.827576 
L 550.571452 213.517365 
L 557.479103 207.917369 
L 560.932929 204.703414 
L 562.659842 202.89681 
L 564.386754 200.927127 
L 566.113667 198.77494 
L 567.84058 196.422168 
L 569.567493 193.851028 
L 571.294406 191.043252 
L 573.021318 187.979799 
L 574.748231 184.641164 
L 576.475144 181.008259 
L 578.202057 177.063684 
L 579.92897 172.793193 
L 581.655882 168.187074 
L 583.382795 163.241258 
L 586.836621 152.346319 
L 590.290446 140.205935 
L 593.744272 127.019545 
L 598.92501 105.961297 
L 604.105749 84.726313 
L 607.559574 71.462402 
L 609.286487 65.349264 
L 611.0134 59.6886 
L 612.740313 54.549135 
L 614.467225 49.98569 
L 616.194138 46.036087 
L 617.921051 42.719386 
L 619.647964 40.035622 
L 621.374877 37.966979 
L 623.101789 36.48015 
L 624.828702 35.529484 
L 626.555615 35.060549 
L 628.282528 35.01375 
L 630.009441 35.327818 
L 631.736353 35.943062 
L 633.463266 36.804381 
L 635.190179 37.864047 
L 638.644005 40.43882 
L 642.09783 43.513847 
L 643.824743 45.248025 
L 645.551656 47.14074 
L 647.278569 49.221173 
L 649.005481 51.519828 
L 650.732394 54.063365 
L 652.459307 56.869825 
L 654.18622 59.94501 
L 657.640045 66.854526 
L 661.093871 74.573627 
L 666.274609 86.927218 
L 673.18226 103.388689 
L 678.362999 115.196102 
L 683.543737 126.506435 
L 695.632127 152.520178 
L 702.539778 168.234417 
L 709.447429 184.003666 
L 712.901255 191.519014 
L 716.35508 198.586907 
L 719.808906 205.078861 
L 723.262731 210.892758 
L 726.716557 215.96542 
L 728.44347 218.217653 
L 730.170383 220.283937 
L 731.897295 222.170814 
L 733.624208 223.887531 
L 737.078034 226.857797 
L 740.531859 229.302137 
L 743.985685 231.336997 
L 747.43951 233.074239 
L 752.620249 235.327369 
L 759.5279 237.990722 
L 766.435551 240.427631 
L 771.61629 242.085475 
L 776.797028 243.524308 
L 781.977766 244.657642 
L 785.431592 245.215044 
L 790.61233 245.764623 
L 795.793069 246.044214 
L 802.70072 246.179208 
L 806.154545 246.200062 
L 806.154545 246.200062 
" style="fill: none; stroke: #4c72b0; stroke-width: 1.5; stroke-linecap: round"/>
   </g>
   <g id="line2d_37">
    <path d="M 325.627529 246.21375 
L 325.627529 24.45375 
" style="fill: none; stroke-dasharray: 0.8,1.32; stroke-dashoffset: 0; stroke: #d3d3d3; stroke-width: 0.8"/>
   </g>
   <g id="line2d_38">
    <path d="M 7.2 246.21375 
L 844.2 246.21375 
" style="fill: none; stroke: #808080; stroke-width: 0.5; stroke-linecap: round"/>
   </g>
   <g id="AnnotationBbox_1">
    <g id="text_13">
     <text style="font-weight: 700; font-size: 8px; font-family: 'Arial', 'DejaVu Sans', 'Liberation Sans', 'Bitstream Vera Sans', sans-serif; text-anchor: end; fill: #808080" x="325.627529" y="12.92625" transform="rotate(-0 325.627529 12.92625)">International Poverty Line</text>
    </g>
    <g id="text_14">
     <text style="font-size: 8px; font-family: 'Arial', 'DejaVu Sans', 'Liberation Sans', 'Bitstream Vera Sans', sans-serif; text-anchor: end; fill: #808080" x="325.627529" y="22.86375" transform="rotate(-0 325.627529 22.86375)">$90 per month</text>
    </g>
   </g>
   <g id="legend_1">
    <g id="patch_3">
     <path d="M 683.8 119.719812 
L 851.4125 119.719812 
Q 853.4125 119.719812 853.4125 117.719812 
L 853.4125 75.80575 
Q 853.4125 73.80575 851.4125 73.80575 
L 683.8 73.80575 
Q 681.8 73.80575 681.8 75.80575 
L 681.8 117.719812 
Q 681.8 119.719812 683.8 119.719812 
z
" style="fill: #ffffff; opacity: 0.8; stroke: #cccccc; stroke-linejoin: miter"/>
    </g>
    <g id="text_15">
     <text style="font-size: 10px; font-family: 'Arial', 'DejaVu Sans', 'Liberation Sans', 'Bitstream Vera Sans', sans-serif; text-anchor: start; fill: #262626" x="750.1" y="85.085437" transform="rotate(-0 750.1 85.085437)">Country</text>
    </g>
    <g id="line2d_39">
     <path d="M 685.8 95.847937 
L 695.8 95.847937 
L 705.8 95.847937 
" style="fill: none; stroke: #4c72b0; stroke-width: 1.5; stroke-linecap: round"/>
    </g>
    <g id="text_16">
     <text style="font-size: 10px; font-family: 'Arial', 'DejaVu Sans', 'Liberation Sans', 'Bitstream Vera Sans', sans-serif; text-anchor: start; fill: #262626" x="713.8" y="99.347937" transform="rotate(-0 713.8 99.347937)">Denmark</text>
    </g>
    <g id="line2d_40">
     <path d="M 685.8 110.115125 
L 695.8 110.115125 
L 705.8 110.115125 
" style="fill: none; stroke: #dd8452; stroke-width: 1.5; stroke-linecap: round"/>
    </g>
    <g id="text_17">
     <text style="font-size: 10px; font-family: 'Arial', 'DejaVu Sans', 'Liberation Sans', 'Bitstream Vera Sans', sans-serif; text-anchor: start; fill: #262626" x="713.8" y="113.615125" transform="rotate(-0 713.8 113.615125)">Democratic Republic of Congo</text>
    </g>
   </g>
  </g>
 </g>
</svg>
