<?xml version="1.0" encoding="utf-8" standalone="no"?>
<!DOCTYPE svg PUBLIC "-//W3C//DTD SVG 1.1//EN"
  "http://www.w3.org/Graphics/SVG/1.1/DTD/svg11.dtd">
<svg xmlns:xlink="http://www.w3.org/1999/xlink" width="862.521875pt" height="265.689687pt" viewBox="0 0 862.521875 265.689687" xmlns="http://www.w3.org/2000/svg" version="1.1">
 <metadata>
  <rdf:RDF xmlns:dc="http://purl.org/dc/elements/1.1/" xmlns:cc="http://creativecommons.org/ns#" xmlns:rdf="http://www.w3.org/1999/02/22-rdf-syntax-ns#">
   <cc:Work>
    <dc:type rdf:resource="http://purl.org/dc/dcmitype/StillImage"/>
    <dc:date>2025-08-21T11:29:10.895441</dc:date>
    <dc:format>image/svg+xml</dc:format>
    <dc:creator>
     <cc:Agent>
      <dc:title>Matplotlib v3.10.1, https://matplotlib.org/</dc:title>
     </cc:Agent>
    </dc:creator>
   </cc:Work>
  </rdf:RDF>
 </metadata>
 <defs>
  <style type="text/css">*{stroke-linejoin: round; stroke-linecap: butt}</style>
 </defs>
 <g id="figure_1">
  <g id="patch_1">
   <path d="M 0 265.689687 
L 862.521875 265.689687 
L 862.521875 0 
L 0 0 
z
" style="fill: #ffffff"/>
  </g>
  <g id="axes_1">
   <g id="patch_2">
    <path d="M 7.2 228.96 
L 844.2 228.96 
L 844.2 7.2 
L 7.2 7.2 
z
" style="fill: #ffffff"/>
   </g>
   <g id="matplotlib.axis_1">
    <g id="xtick_1">
     <g id="line2d_1">
      <defs>
       <path id="me47081ed02" d="M 0 0 
L 0 3.5 
" style="stroke: #262626; stroke-width: 0.8"/>
      </defs>
      <g>
       <use xlink:href="#me47081ed02" x="44.255487" y="228.96" style="fill: #262626; stroke: #262626; stroke-width: 0.8"/>
      </g>
     </g>
     <g id="text_1">
      <text style="font-size: 10px; font-family: 'Arial', 'DejaVu Sans', 'Liberation Sans', 'Bitstream Vera Sans', sans-serif; text-anchor: middle; fill: #262626" x="44.255487" y="243.117812" transform="rotate(-0 44.255487 243.117812)">1</text>
     </g>
    </g>
    <g id="xtick_2">
     <g id="line2d_2">
      <g>
       <use xlink:href="#me47081ed02" x="124.524585" y="228.96" style="fill: #262626; stroke: #262626; stroke-width: 0.8"/>
      </g>
     </g>
     <g id="text_2">
      <text style="font-size: 10px; font-family: 'Arial', 'DejaVu Sans', 'Liberation Sans', 'Bitstream Vera Sans', sans-serif; text-anchor: middle; fill: #262626" x="124.524585" y="243.117812" transform="rotate(-0 124.524585 243.117812)">2</text>
     </g>
    </g>
    <g id="xtick_3">
     <g id="line2d_3">
      <g>
       <use xlink:href="#me47081ed02" x="230.634561" y="228.96" style="fill: #262626; stroke: #262626; stroke-width: 0.8"/>
      </g>
     </g>
     <g id="text_3">
      <text style="font-size: 10px; font-family: 'Arial', 'DejaVu Sans', 'Liberation Sans', 'Bitstream Vera Sans', sans-serif; text-anchor: middle; fill: #262626" x="230.634561" y="243.117812" transform="rotate(-0 230.634561 243.117812)">5</text>
     </g>
    </g>
    <g id="xtick_4">
     <g id="line2d_4">
      <g>
       <use xlink:href="#me47081ed02" x="310.903658" y="228.96" style="fill: #262626; stroke: #262626; stroke-width: 0.8"/>
      </g>
     </g>
     <g id="text_4">
      <text style="font-size: 10px; font-family: 'Arial', 'DejaVu Sans', 'Liberation Sans', 'Bitstream Vera Sans', sans-serif; text-anchor: middle; fill: #262626" x="310.903658" y="243.117812" transform="rotate(-0 310.903658 243.117812)">10</text>
     </g>
    </g>
    <g id="xtick_5">
     <g id="line2d_5">
      <g>
       <use xlink:href="#me47081ed02" x="391.172756" y="228.96" style="fill: #262626; stroke: #262626; stroke-width: 0.8"/>
      </g>
     </g>
     <g id="text_5">
      <text style="font-size: 10px; font-family: 'Arial', 'DejaVu Sans', 'Liberation Sans', 'Bitstream Vera Sans', sans-serif; text-anchor: middle; fill: #262626" x="391.172756" y="243.117812" transform="rotate(-0 391.172756 243.117812)">20</text>
     </g>
    </g>
    <g id="xtick_6">
     <g id="line2d_6">
      <g>
       <use xlink:href="#me47081ed02" x="497.282731" y="228.96" style="fill: #262626; stroke: #262626; stroke-width: 0.8"/>
      </g>
     </g>
     <g id="text_6">
      <text style="font-size: 10px; font-family: 'Arial', 'DejaVu Sans', 'Liberation Sans', 'Bitstream Vera Sans', sans-serif; text-anchor: middle; fill: #262626" x="497.282731" y="243.117812" transform="rotate(-0 497.282731 243.117812)">50</text>
     </g>
    </g>
    <g id="xtick_7">
     <g id="line2d_7">
      <g>
       <use xlink:href="#me47081ed02" x="577.551829" y="228.96" style="fill: #262626; stroke: #262626; stroke-width: 0.8"/>
      </g>
     </g>
     <g id="text_7">
      <text style="font-size: 10px; font-family: 'Arial', 'DejaVu Sans', 'Liberation Sans', 'Bitstream Vera Sans', sans-serif; text-anchor: middle; fill: #262626" x="577.551829" y="243.117812" transform="rotate(-0 577.551829 243.117812)">100</text>
     </g>
    </g>
    <g id="xtick_8">
     <g id="line2d_8">
      <g>
       <use xlink:href="#me47081ed02" x="657.820927" y="228.96" style="fill: #262626; stroke: #262626; stroke-width: 0.8"/>
      </g>
     </g>
     <g id="text_8">
      <text style="font-size: 10px; font-family: 'Arial', 'DejaVu Sans', 'Liberation Sans', 'Bitstream Vera Sans', sans-serif; text-anchor: middle; fill: #262626" x="657.820927" y="243.117812" transform="rotate(-0 657.820927 243.117812)">200</text>
     </g>
    </g>
    <g id="xtick_9">
     <g id="line2d_9">
      <g>
       <use xlink:href="#me47081ed02" x="763.930902" y="228.96" style="fill: #262626; stroke: #262626; stroke-width: 0.8"/>
      </g>
     </g>
     <g id="text_9">
      <text style="font-size: 10px; font-family: 'Arial', 'DejaVu Sans', 'Liberation Sans', 'Bitstream Vera Sans', sans-serif; text-anchor: middle; fill: #262626" x="763.930902" y="243.117812" transform="rotate(-0 763.930902 243.117812)">500</text>
     </g>
    </g>
    <g id="xtick_10">
     <g id="line2d_10">
      <g>
       <use xlink:href="#me47081ed02" x="844.2" y="228.96" style="fill: #262626; stroke: #262626; stroke-width: 0.8"/>
      </g>
     </g>
     <g id="text_10">
      <text style="font-size: 10px; font-family: 'Arial', 'DejaVu Sans', 'Liberation Sans', 'Bitstream Vera Sans', sans-serif; text-anchor: middle; fill: #262626" x="844.2" y="243.117812" transform="rotate(-0 844.2 243.117812)">1000</text>
     </g>
    </g>
    <g id="xtick_11">
     <g id="line2d_11">
      <defs>
       <path id="m3f6affde3d" d="M 0 0 
L 0 2 
" style="stroke: #262626; stroke-width: 0.6"/>
      </defs>
      <g>
       <use xlink:href="#m3f6affde3d" x="18.41461" y="228.96" style="fill: #262626; stroke: #262626; stroke-width: 0.6"/>
      </g>
     </g>
    </g>
    <g id="xtick_12">
     <g id="line2d_12">
      <g>
       <use xlink:href="#m3f6affde3d" x="32.054336" y="228.96" style="fill: #262626; stroke: #262626; stroke-width: 0.6"/>
      </g>
     </g>
    </g>
    <g id="xtick_13">
     <g id="line2d_13">
      <g>
       <use xlink:href="#m3f6affde3d" x="171.478997" y="228.96" style="fill: #262626; stroke: #262626; stroke-width: 0.6"/>
      </g>
     </g>
    </g>
    <g id="xtick_14">
     <g id="line2d_14">
      <g>
       <use xlink:href="#m3f6affde3d" x="204.793683" y="228.96" style="fill: #262626; stroke: #262626; stroke-width: 0.6"/>
      </g>
     </g>
    </g>
    <g id="xtick_15">
     <g id="line2d_15">
      <g>
       <use xlink:href="#m3f6affde3d" x="251.748095" y="228.96" style="fill: #262626; stroke: #262626; stroke-width: 0.6"/>
      </g>
     </g>
    </g>
    <g id="xtick_16">
     <g id="line2d_16">
      <g>
       <use xlink:href="#m3f6affde3d" x="269.599334" y="228.96" style="fill: #262626; stroke: #262626; stroke-width: 0.6"/>
      </g>
     </g>
    </g>
    <g id="xtick_17">
     <g id="line2d_17">
      <g>
       <use xlink:href="#m3f6affde3d" x="285.062781" y="228.96" style="fill: #262626; stroke: #262626; stroke-width: 0.6"/>
      </g>
     </g>
    </g>
    <g id="xtick_18">
     <g id="line2d_18">
      <g>
       <use xlink:href="#m3f6affde3d" x="298.702507" y="228.96" style="fill: #262626; stroke: #262626; stroke-width: 0.6"/>
      </g>
     </g>
    </g>
    <g id="xtick_19">
     <g id="line2d_19">
      <g>
       <use xlink:href="#m3f6affde3d" x="438.127168" y="228.96" style="fill: #262626; stroke: #262626; stroke-width: 0.6"/>
      </g>
     </g>
    </g>
    <g id="xtick_20">
     <g id="line2d_20">
      <g>
       <use xlink:href="#m3f6affde3d" x="471.441854" y="228.96" style="fill: #262626; stroke: #262626; stroke-width: 0.6"/>
      </g>
     </g>
    </g>
    <g id="xtick_21">
     <g id="line2d_21">
      <g>
       <use xlink:href="#m3f6affde3d" x="518.396266" y="228.96" style="fill: #262626; stroke: #262626; stroke-width: 0.6"/>
      </g>
     </g>
    </g>
    <g id="xtick_22">
     <g id="line2d_22">
      <g>
       <use xlink:href="#m3f6affde3d" x="536.247505" y="228.96" style="fill: #262626; stroke: #262626; stroke-width: 0.6"/>
      </g>
     </g>
    </g>
    <g id="xtick_23">
     <g id="line2d_23">
      <g>
       <use xlink:href="#m3f6affde3d" x="551.710951" y="228.96" style="fill: #262626; stroke: #262626; stroke-width: 0.6"/>
      </g>
     </g>
    </g>
    <g id="xtick_24">
     <g id="line2d_24">
      <g>
       <use xlink:href="#m3f6affde3d" x="565.350678" y="228.96" style="fill: #262626; stroke: #262626; stroke-width: 0.6"/>
      </g>
     </g>
    </g>
    <g id="xtick_25">
     <g id="line2d_25">
      <g>
       <use xlink:href="#m3f6affde3d" x="704.775339" y="228.96" style="fill: #262626; stroke: #262626; stroke-width: 0.6"/>
      </g>
     </g>
    </g>
    <g id="xtick_26">
     <g id="line2d_26">
      <g>
       <use xlink:href="#m3f6affde3d" x="738.090025" y="228.96" style="fill: #262626; stroke: #262626; stroke-width: 0.6"/>
      </g>
     </g>
    </g>
    <g id="xtick_27">
     <g id="line2d_27">
      <g>
       <use xlink:href="#m3f6affde3d" x="785.044437" y="228.96" style="fill: #262626; stroke: #262626; stroke-width: 0.6"/>
      </g>
     </g>
    </g>
    <g id="xtick_28">
     <g id="line2d_28">
      <g>
       <use xlink:href="#m3f6affde3d" x="802.895676" y="228.96" style="fill: #262626; stroke: #262626; stroke-width: 0.6"/>
      </g>
     </g>
    </g>
    <g id="xtick_29">
     <g id="line2d_29">
      <g>
       <use xlink:href="#m3f6affde3d" x="818.359122" y="228.96" style="fill: #262626; stroke: #262626; stroke-width: 0.6"/>
      </g>
     </g>
    </g>
    <g id="xtick_30">
     <g id="line2d_30">
      <g>
       <use xlink:href="#m3f6affde3d" x="831.998849" y="228.96" style="fill: #262626; stroke: #262626; stroke-width: 0.6"/>
      </g>
     </g>
    </g>
    <g id="text_11">
     <text style="font-size: 10px; font-family: 'Arial', 'DejaVu Sans', 'Liberation Sans', 'Bitstream Vera Sans', sans-serif; text-anchor: middle; fill: #262626" x="425.7" y="256.385" transform="rotate(-0 425.7 256.385)">Income or consumption (day)</text>
    </g>
   </g>
   <g id="matplotlib.axis_2"/>
   <g id="FillBetweenPolyCollection_1">
    <defs>
     <path id="med433592e8" d="M 40.314378 -36.764535 
L 40.314378 -36.729688 
L 42.011964 -36.729688 
L 43.709549 -36.729688 
L 45.407134 -36.729688 
L 47.10472 -36.729688 
L 48.802305 -36.729688 
L 50.499891 -36.729688 
L 52.197476 -36.729688 
L 53.895062 -36.729688 
L 55.592647 -36.729688 
L 57.290232 -36.729688 
L 58.987818 -36.729688 
L 60.685403 -36.729688 
L 62.382989 -36.729688 
L 64.080574 -36.729688 
L 65.77816 -36.729688 
L 67.475745 -36.729688 
L 69.173331 -36.729688 
L 70.870916 -36.729688 
L 72.568501 -36.729688 
L 74.266087 -36.729688 
L 75.963672 -36.729688 
L 77.661258 -36.729688 
L 79.358843 -36.729688 
L 81.056429 -36.729688 
L 82.754014 -36.729688 
L 84.4516 -36.729688 
L 86.149185 -36.729688 
L 87.84677 -36.729688 
L 89.544356 -36.729688 
L 91.241941 -36.729688 
L 92.939527 -36.729688 
L 94.637112 -36.729688 
L 96.334698 -36.729688 
L 98.032283 -36.729688 
L 99.729868 -36.729688 
L 101.427454 -36.729688 
L 103.125039 -36.729688 
L 104.822625 -36.729688 
L 106.52021 -36.729688 
L 108.217796 -36.729688 
L 109.915381 -36.729688 
L 111.612967 -36.729688 
L 113.310552 -36.729688 
L 115.008137 -36.729688 
L 116.705723 -36.729688 
L 118.403308 -36.729688 
L 120.100894 -36.729688 
L 121.798479 -36.729688 
L 123.496065 -36.729688 
L 125.19365 -36.729688 
L 126.891236 -36.729688 
L 128.588821 -36.729688 
L 130.286406 -36.729688 
L 131.983992 -36.729688 
L 133.681577 -36.729688 
L 135.379163 -36.729688 
L 137.076748 -36.729688 
L 138.774334 -36.729688 
L 140.471919 -36.729688 
L 142.169504 -36.729688 
L 143.86709 -36.729688 
L 145.564675 -36.729688 
L 147.262261 -36.729688 
L 148.959846 -36.729688 
L 150.657432 -36.729688 
L 152.355017 -36.729688 
L 154.052603 -36.729688 
L 155.750188 -36.729688 
L 157.447773 -36.729688 
L 159.145359 -36.729688 
L 160.842944 -36.729688 
L 162.54053 -36.729688 
L 164.238115 -36.729688 
L 165.935701 -36.729688 
L 167.633286 -36.729688 
L 169.330872 -36.729688 
L 171.028457 -36.729688 
L 172.726042 -36.729688 
L 174.423628 -36.729688 
L 176.121213 -36.729688 
L 177.818799 -36.729688 
L 179.516384 -36.729688 
L 181.21397 -36.729688 
L 182.911555 -36.729688 
L 184.60914 -36.729688 
L 186.306726 -36.729688 
L 188.004311 -36.729688 
L 189.701897 -36.729688 
L 191.399482 -36.729688 
L 193.097068 -36.729688 
L 194.794653 -36.729688 
L 196.492239 -36.729688 
L 198.189824 -36.729688 
L 199.887409 -36.729688 
L 201.584995 -36.729688 
L 203.28258 -36.729688 
L 204.980166 -36.729688 
L 206.677751 -36.729688 
L 208.375337 -36.729688 
L 210.072922 -36.729688 
L 211.770508 -36.729688 
L 213.468093 -36.729688 
L 215.165678 -36.729688 
L 216.863264 -36.729688 
L 218.560849 -36.729688 
L 220.258435 -36.729688 
L 221.95602 -36.729688 
L 223.653606 -36.729688 
L 225.351191 -36.729688 
L 227.048776 -36.729688 
L 228.746362 -36.729688 
L 230.443947 -36.729688 
L 232.141533 -36.729688 
L 233.839118 -36.729688 
L 235.536704 -36.729688 
L 237.234289 -36.729688 
L 238.931875 -36.729688 
L 240.62946 -36.729688 
L 242.327045 -36.729688 
L 244.024631 -36.729688 
L 245.722216 -36.729688 
L 247.419802 -36.729688 
L 249.117387 -36.729688 
L 250.814973 -36.729688 
L 252.512558 -36.729688 
L 254.210144 -36.729688 
L 255.907729 -36.729688 
L 257.605314 -36.729688 
L 259.3029 -36.729688 
L 261.000485 -36.729688 
L 262.698071 -36.729688 
L 264.395656 -36.729688 
L 266.093242 -36.729688 
L 267.790827 -36.729688 
L 269.488412 -36.729688 
L 271.185998 -36.729688 
L 272.883583 -36.729688 
L 274.581169 -36.729688 
L 276.278754 -36.729688 
L 277.97634 -36.729688 
L 279.673925 -36.729688 
L 281.371511 -36.729688 
L 283.069096 -36.729688 
L 284.766681 -36.729688 
L 286.464267 -36.729688 
L 288.161852 -36.729688 
L 289.859438 -36.729688 
L 291.557023 -36.729688 
L 293.254609 -36.729688 
L 294.952194 -36.729688 
L 296.64978 -36.729688 
L 298.347365 -36.729688 
L 300.04495 -36.729688 
L 301.742536 -36.729688 
L 303.440121 -36.729688 
L 305.137707 -36.729688 
L 306.835292 -36.729688 
L 308.532878 -36.729688 
L 310.230463 -36.729688 
L 311.928048 -36.729688 
L 313.625634 -36.729688 
L 315.323219 -36.729688 
L 317.020805 -36.729688 
L 318.71839 -36.729688 
L 320.415976 -36.729688 
L 322.113561 -36.729688 
L 323.811147 -36.729688 
L 325.508732 -36.729688 
L 327.206317 -36.729688 
L 328.903903 -36.729688 
L 330.601488 -36.729688 
L 332.299074 -36.729688 
L 333.996659 -36.729688 
L 335.694245 -36.729688 
L 337.39183 -36.729688 
L 339.089416 -36.729688 
L 340.787001 -36.729688 
L 342.484586 -36.729688 
L 344.182172 -36.729688 
L 345.879757 -36.729688 
L 347.577343 -36.729688 
L 349.274928 -36.729688 
L 350.972514 -36.729688 
L 352.670099 -36.729688 
L 354.367684 -36.729688 
L 356.06527 -36.729688 
L 357.762855 -36.729688 
L 359.460441 -36.729688 
L 361.158026 -36.729688 
L 362.855612 -36.729688 
L 364.553197 -36.729688 
L 366.250783 -36.729688 
L 367.948368 -36.729688 
L 369.645953 -36.729688 
L 371.343539 -36.729688 
L 373.041124 -36.729688 
L 374.73871 -36.729688 
L 376.436295 -36.729688 
L 378.133881 -36.729688 
L 378.133881 -36.76137 
L 378.133881 -36.76137 
L 376.436295 -36.777445 
L 374.73871 -36.800604 
L 373.041124 -36.833429 
L 371.343539 -36.879206 
L 369.645953 -36.942019 
L 367.948368 -37.026826 
L 366.250783 -37.139486 
L 364.553197 -37.286748 
L 362.855612 -37.476161 
L 361.158026 -37.715901 
L 359.460441 -38.014517 
L 357.762855 -38.380588 
L 356.06527 -38.822314 
L 354.367684 -39.347062 
L 352.670099 -39.960902 
L 350.972514 -40.6682 
L 349.274928 -41.471295 
L 347.577343 -42.370339 
L 345.879757 -43.363325 
L 344.182172 -44.446338 
L 342.484586 -45.614035 
L 340.787001 -46.860319 
L 339.089416 -48.179155 
L 337.39183 -49.565445 
L 335.694245 -51.015852 
L 333.996659 -52.529459 
L 332.299074 -54.10816 
L 330.601488 -55.756694 
L 328.903903 -57.48227 
L 327.206317 -59.293783 
L 325.508732 -61.200673 
L 323.811147 -63.211522 
L 322.113561 -65.33255 
L 320.415976 -67.566163 
L 318.71839 -69.909768 
L 317.020805 -72.354993 
L 315.323219 -74.887476 
L 313.625634 -77.487293 
L 311.928048 -80.130039 
L 310.230463 -82.788501 
L 308.532878 -85.4348 
L 306.835292 -88.042804 
L 305.137707 -90.590576 
L 303.440121 -93.062618 
L 301.742536 -95.45167 
L 300.04495 -97.759851 
L 298.347365 -99.999009 
L 296.64978 -102.190215 
L 294.952194 -104.362412 
L 293.254609 -106.550319 
L 291.557023 -108.791779 
L 289.859438 -111.124768 
L 288.161852 -113.584338 
L 286.464267 -116.199765 
L 284.766681 -118.992152 
L 283.069096 -121.972683 
L 281.371511 -125.141686 
L 279.673925 -128.488551 
L 277.97634 -131.992493 
L 276.278754 -135.624078 
L 274.581169 -139.347341 
L 272.883583 -143.1223 
L 271.185998 -146.907651 
L 269.488412 -150.663402 
L 267.790827 -154.353264 
L 266.093242 -157.946616 
L 264.395656 -161.419945 
L 262.698071 -164.757701 
L 261.000485 -167.952567 
L 259.3029 -171.005187 
L 257.605314 -173.923428 
L 255.907729 -176.721289 
L 254.210144 -179.417554 
L 252.512558 -182.034289 
L 250.814973 -184.595304 
L 249.117387 -187.124628 
L 247.419802 -189.64509 
L 245.722216 -192.177038 
L 244.024631 -194.737241 
L 242.327045 -197.338004 
L 240.62946 -199.986505 
L 238.931875 -202.684366 
L 237.234289 -205.427455 
L 235.536704 -208.205918 
L 233.839118 -211.004426 
L 232.141533 -213.80261 
L 230.443947 -216.575687 
L 228.746362 -219.295234 
L 227.048776 -221.930097 
L 225.351191 -224.447424 
L 223.653606 -226.813766 
L 221.95602 -228.996244 
L 220.258435 -230.963707 
L 218.560849 -232.687852 
L 216.863264 -234.14422 
L 215.165678 -235.313029 
L 213.468093 -236.179749 
L 211.770508 -236.735414 
L 210.072922 -236.9766 
L 208.375337 -236.905117 
L 206.677751 -236.527423 
L 204.980166 -235.853847 
L 203.28258 -234.897689 
L 201.584995 -233.674315 
L 199.887409 -232.200325 
L 198.189824 -230.492856 
L 196.492239 -228.56907 
L 194.794653 -226.445826 
L 193.097068 -224.13949 
L 191.399482 -221.665852 
L 189.701897 -219.040065 
L 188.004311 -216.276565 
L 186.306726 -213.388934 
L 184.60914 -210.389698 
L 182.911555 -207.290097 
L 181.21397 -204.099867 
L 179.516384 -200.827117 
L 177.818799 -197.478347 
L 176.121213 -194.058664 
L 174.423628 -190.572189 
L 172.726042 -187.022649 
L 171.028457 -183.414074 
L 169.330872 -179.751506 
L 167.633286 -176.041626 
L 165.935701 -172.29319 
L 164.238115 -168.517211 
L 162.54053 -164.726827 
L 160.842944 -160.936885 
L 159.145359 -157.163272 
L 157.447773 -153.422078 
L 155.750188 -149.728707 
L 154.052603 -146.097035 
L 152.355017 -142.538729 
L 150.657432 -139.06278 
L 148.959846 -135.67532 
L 147.262261 -132.379688 
L 145.564675 -129.176743 
L 143.86709 -126.065335 
L 142.169504 -123.042871 
L 140.471919 -120.105885 
L 138.774334 -117.250557 
L 137.076748 -114.473099 
L 135.379163 -111.770011 
L 133.681577 -109.138187 
L 131.983992 -106.574882 
L 130.286406 -104.077594 
L 128.588821 -101.643888 
L 126.891236 -99.271206 
L 125.19365 -96.956709 
L 123.496065 -94.697176 
L 121.798479 -92.488974 
L 120.100894 -90.328108 
L 118.403308 -88.210347 
L 116.705723 -86.131406 
L 115.008137 -84.087172 
L 113.310552 -82.07393 
L 111.612967 -80.088584 
L 109.915381 -78.128824 
L 108.217796 -76.193237 
L 106.52021 -74.281327 
L 104.822625 -72.393456 
L 103.125039 -70.530703 
L 101.427454 -68.694652 
L 99.729868 -66.88716 
L 98.032283 -65.11012 
L 96.334698 -63.365263 
L 94.637112 -61.654045 
L 92.939527 -59.977616 
L 91.241941 -58.336917 
L 89.544356 -56.732858 
L 87.84677 -55.166573 
L 86.149185 -53.639706 
L 84.4516 -52.15467 
L 82.754014 -50.71484 
L 81.056429 -49.324627 
L 79.358843 -47.989413 
L 77.661258 -46.715344 
L 75.963672 -45.508983 
L 74.266087 -44.376872 
L 72.568501 -43.325042 
L 70.870916 -42.358532 
L 69.173331 -41.480968 
L 67.475745 -40.694251 
L 65.77816 -39.998378 
L 64.080574 -39.391415 
L 62.382989 -38.869618 
L 60.685403 -38.427668 
L 58.987818 -38.059003 
L 57.290232 -37.756203 
L 55.592647 -37.511383 
L 53.895062 -37.316565 
L 52.197476 -37.164006 
L 50.499891 -37.046458 
L 48.802305 -36.957348 
L 47.10472 -36.890892 
L 45.407134 -36.842136 
L 43.709549 -36.806951 
L 42.011964 -36.781974 
L 40.314378 -36.764535 
z
" style="stroke: #dd8452"/>
    </defs>
    <g>
     <use xlink:href="#med433592e8" x="0" y="265.689687" style="fill: #dd8452; fill-opacity: 0.25; stroke: #dd8452"/>
    </g>
   </g>
   <g id="FillBetweenPolyCollection_2">
    <defs>
     <path id="mbec1a30cb4" d="M 302.679976 -36.74131 
L 302.679976 -36.729688 
L 304.689634 -36.729688 
L 306.699292 -36.729688 
L 308.70895 -36.729688 
L 310.718608 -36.729688 
L 312.728266 -36.729688 
L 314.737924 -36.729688 
L 316.747582 -36.729688 
L 318.757241 -36.729688 
L 320.766899 -36.729688 
L 322.776557 -36.729688 
L 324.786215 -36.729688 
L 326.795873 -36.729688 
L 328.805531 -36.729688 
L 330.815189 -36.729688 
L 332.824847 -36.729688 
L 334.834505 -36.729688 
L 336.844164 -36.729688 
L 338.853822 -36.729688 
L 340.86348 -36.729688 
L 342.873138 -36.729688 
L 344.882796 -36.729688 
L 346.892454 -36.729688 
L 348.902112 -36.729688 
L 350.91177 -36.729688 
L 352.921428 -36.729688 
L 354.931087 -36.729688 
L 356.940745 -36.729688 
L 358.950403 -36.729688 
L 360.960061 -36.729688 
L 362.969719 -36.729688 
L 364.979377 -36.729688 
L 366.989035 -36.729688 
L 368.998693 -36.729688 
L 371.008351 -36.729688 
L 373.01801 -36.729688 
L 375.027668 -36.729688 
L 377.037326 -36.729688 
L 379.046984 -36.729688 
L 381.056642 -36.729688 
L 383.0663 -36.729688 
L 385.075958 -36.729688 
L 387.085616 -36.729688 
L 389.095275 -36.729688 
L 391.104933 -36.729688 
L 393.114591 -36.729688 
L 395.124249 -36.729688 
L 397.133907 -36.729688 
L 399.143565 -36.729688 
L 401.153223 -36.729688 
L 403.162881 -36.729688 
L 405.172539 -36.729688 
L 407.182198 -36.729688 
L 409.191856 -36.729688 
L 411.201514 -36.729688 
L 413.211172 -36.729688 
L 415.22083 -36.729688 
L 417.230488 -36.729688 
L 419.240146 -36.729688 
L 421.249804 -36.729688 
L 423.259462 -36.729688 
L 425.269121 -36.729688 
L 427.278779 -36.729688 
L 429.288437 -36.729688 
L 431.298095 -36.729688 
L 433.307753 -36.729688 
L 435.317411 -36.729688 
L 437.327069 -36.729688 
L 439.336727 -36.729688 
L 441.346385 -36.729688 
L 443.356044 -36.729688 
L 445.365702 -36.729688 
L 447.37536 -36.729688 
L 449.385018 -36.729688 
L 451.394676 -36.729688 
L 453.404334 -36.729688 
L 455.413992 -36.729688 
L 457.42365 -36.729688 
L 459.433308 -36.729688 
L 461.442967 -36.729688 
L 463.452625 -36.729688 
L 465.462283 -36.729688 
L 467.471941 -36.729688 
L 469.481599 -36.729688 
L 471.491257 -36.729688 
L 473.500915 -36.729688 
L 475.510573 -36.729688 
L 477.520231 -36.729688 
L 479.52989 -36.729688 
L 481.539548 -36.729688 
L 483.549206 -36.729688 
L 485.558864 -36.729688 
L 487.568522 -36.729688 
L 489.57818 -36.729688 
L 491.587838 -36.729688 
L 493.597496 -36.729688 
L 495.607154 -36.729688 
L 497.616813 -36.729688 
L 499.626471 -36.729688 
L 501.636129 -36.729688 
L 503.645787 -36.729688 
L 505.655445 -36.729688 
L 507.665103 -36.729688 
L 509.674761 -36.729688 
L 511.684419 -36.729688 
L 513.694077 -36.729688 
L 515.703736 -36.729688 
L 517.713394 -36.729688 
L 519.723052 -36.729688 
L 521.73271 -36.729688 
L 523.742368 -36.729688 
L 525.752026 -36.729688 
L 527.761684 -36.729688 
L 529.771342 -36.729688 
L 531.781001 -36.729688 
L 533.790659 -36.729688 
L 535.800317 -36.729688 
L 537.809975 -36.729688 
L 539.819633 -36.729688 
L 541.829291 -36.729688 
L 543.838949 -36.729688 
L 545.848607 -36.729688 
L 547.858265 -36.729688 
L 549.867924 -36.729688 
L 551.877582 -36.729688 
L 553.88724 -36.729688 
L 555.896898 -36.729688 
L 557.906556 -36.729688 
L 559.916214 -36.729688 
L 561.925872 -36.729688 
L 563.93553 -36.729688 
L 565.945188 -36.729688 
L 567.954847 -36.729688 
L 569.964505 -36.729688 
L 571.974163 -36.729688 
L 573.983821 -36.729688 
L 575.993479 -36.729688 
L 578.003137 -36.729688 
L 580.012795 -36.729688 
L 582.022453 -36.729688 
L 584.032111 -36.729688 
L 586.04177 -36.729688 
L 588.051428 -36.729688 
L 590.061086 -36.729688 
L 592.070744 -36.729688 
L 594.080402 -36.729688 
L 596.09006 -36.729688 
L 598.099718 -36.729688 
L 600.109376 -36.729688 
L 602.119034 -36.729688 
L 604.128693 -36.729688 
L 606.138351 -36.729688 
L 608.148009 -36.729688 
L 610.157667 -36.729688 
L 612.167325 -36.729688 
L 614.176983 -36.729688 
L 616.186641 -36.729688 
L 618.196299 -36.729688 
L 620.205957 -36.729688 
L 622.215616 -36.729688 
L 624.225274 -36.729688 
L 626.234932 -36.729688 
L 628.24459 -36.729688 
L 630.254248 -36.729688 
L 632.263906 -36.729688 
L 634.273564 -36.729688 
L 636.283222 -36.729688 
L 638.29288 -36.729688 
L 640.302539 -36.729688 
L 642.312197 -36.729688 
L 644.321855 -36.729688 
L 646.331513 -36.729688 
L 648.341171 -36.729688 
L 650.350829 -36.729688 
L 652.360487 -36.729688 
L 654.370145 -36.729688 
L 656.379803 -36.729688 
L 658.389462 -36.729688 
L 660.39912 -36.729688 
L 662.408778 -36.729688 
L 664.418436 -36.729688 
L 666.428094 -36.729688 
L 668.437752 -36.729688 
L 670.44741 -36.729688 
L 672.457068 -36.729688 
L 674.466727 -36.729688 
L 676.476385 -36.729688 
L 678.486043 -36.729688 
L 680.495701 -36.729688 
L 682.505359 -36.729688 
L 684.515017 -36.729688 
L 686.524675 -36.729688 
L 688.534333 -36.729688 
L 690.543991 -36.729688 
L 692.55365 -36.729688 
L 694.563308 -36.729688 
L 696.572966 -36.729688 
L 698.582624 -36.729688 
L 700.592282 -36.729688 
L 702.60194 -36.729688 
L 702.60194 -36.742228 
L 702.60194 -36.742228 
L 700.592282 -36.750064 
L 698.582624 -36.762108 
L 696.572966 -36.780214 
L 694.563308 -36.806849 
L 692.55365 -36.845195 
L 690.543991 -36.899253 
L 688.534333 -36.973895 
L 686.524675 -37.074891 
L 684.515017 -37.208858 
L 682.505359 -37.383145 
L 680.495701 -37.605638 
L 678.486043 -37.88448 
L 676.476385 -38.227727 
L 674.466727 -38.642947 
L 672.457068 -39.13679 
L 670.44741 -39.714559 
L 668.437752 -40.37982 
L 666.428094 -41.134088 
L 664.418436 -41.97662 
L 662.408778 -42.904356 
L 660.39912 -43.912041 
L 658.389462 -44.992526 
L 656.379803 -46.137278 
L 654.370145 -47.337058 
L 652.360487 -48.582751 
L 650.350829 -49.866283 
L 648.341171 -51.181544 
L 646.331513 -52.525241 
L 644.321855 -53.897578 
L 642.312197 -55.302701 
L 640.302539 -56.74882 
L 638.29288 -58.248014 
L 636.283222 -59.815702 
L 634.273564 -61.469837 
L 632.263906 -63.22988 
L 630.254248 -65.115648 
L 628.24459 -67.146118 
L 626.234932 -69.33827 
L 624.225274 -71.70603 
L 622.215616 -74.259382 
L 620.205957 -77.003676 
L 618.196299 -79.939177 
L 616.186641 -83.060882 
L 614.176983 -86.358623 
L 612.167325 -89.817469 
L 610.157667 -93.418426 
L 608.148009 -97.139407 
L 606.138351 -100.956432 
L 604.128693 -104.845007 
L 602.119034 -108.781581 
L 600.109376 -112.745024 
L 598.099718 -116.717996 
L 596.09006 -120.688109 
L 594.080402 -124.648773 
L 592.070744 -128.599594 
L 590.061086 -132.546237 
L 588.051428 -136.499679 
L 586.04177 -140.474856 
L 584.032111 -144.488749 
L 582.022453 -148.558094 
L 580.012795 -152.696935 
L 578.003137 -156.914336 
L 575.993479 -161.212553 
L 573.983821 -165.58596 
L 571.974163 -170.020883 
L 569.964505 -174.496411 
L 567.954847 -178.986034 
L 565.945188 -183.459864 
L 563.93553 -187.887074 
L 561.925872 -192.238161 
L 559.916214 -196.486712 
L 557.906556 -200.610452 
L 555.896898 -204.591535 
L 553.88724 -208.416189 
L 551.877582 -212.073951 
L 549.867924 -215.556812 
L 547.858265 -218.858532 
L 545.848607 -221.974325 
L 543.838949 -224.900961 
L 541.829291 -227.637179 
L 539.819633 -230.184205 
L 537.809975 -232.546101 
L 535.800317 -234.729698 
L 533.790659 -236.743953 
L 531.781001 -238.598696 
L 529.771342 -240.302892 
L 527.761684 -241.862644 
L 525.752026 -243.279219 
L 523.742368 -244.547382 
L 521.73271 -245.654244 
L 519.723052 -246.578725 
L 517.713394 -247.291636 
L 515.703736 -247.75631 
L 513.694077 -247.929688 
L 511.684419 -247.763783 
L 509.674761 -247.207519 
L 507.665103 -246.208961 
L 505.655445 -244.717975 
L 503.645787 -242.689332 
L 501.636129 -240.086129 
L 499.626471 -236.883311 
L 497.616813 -233.070942 
L 495.607154 -228.656801 
L 493.597496 -223.667907 
L 491.587838 -218.150654 
L 489.57818 -212.169441 
L 487.568522 -205.803843 
L 485.558864 -199.144602 
L 483.549206 -192.28883 
L 481.539548 -185.334883 
L 479.52989 -178.377368 
L 477.520231 -171.502653 
L 475.510573 -164.785167 
L 473.500915 -158.284701 
L 471.491257 -152.044794 
L 469.481599 -146.092274 
L 467.471941 -140.437936 
L 465.462283 -135.078275 
L 463.452625 -129.998113 
L 461.442967 -125.173872 
L 459.433308 -120.577156 
L 457.42365 -116.178266 
L 455.413992 -111.949277 
L 453.404334 -107.866389 
L 451.394676 -103.911392 
L 449.385018 -100.072229 
L 447.37536 -96.342799 
L 445.365702 -92.722243 
L 443.356044 -89.213967 
L 441.346385 -85.824643 
L 439.336727 -82.563342 
L 437.327069 -79.440821 
L 435.317411 -76.468903 
L 433.307753 -73.659835 
L 431.298095 -71.025491 
L 429.288437 -68.576352 
L 427.278779 -66.320283 
L 425.269121 -64.261217 
L 423.259462 -62.397959 
L 421.249804 -60.72334 
L 419.240146 -59.223953 
L 417.230488 -57.880614 
L 415.22083 -56.669586 
L 413.211172 -55.564449 
L 411.201514 -54.538419 
L 409.191856 -53.566774 
L 407.182198 -52.629074 
L 405.172539 -51.710835 
L 403.162881 -50.804471 
L 401.153223 -49.909351 
L 399.143565 -49.031036 
L 397.133907 -48.179811 
L 395.124249 -47.368751 
L 393.114591 -46.611603 
L 391.104933 -45.92074 
L 389.095275 -45.305457 
L 387.085616 -44.770757 
L 385.075958 -44.316769 
L 383.0663 -43.938781 
L 381.056642 -43.627876 
L 379.046984 -43.372013 
L 377.037326 -43.157428 
L 375.027668 -42.970112 
L 373.01801 -42.797207 
L 371.008351 -42.628103 
L 368.998693 -42.455125 
L 366.989035 -42.27373 
L 364.979377 -42.082231 
L 362.969719 -41.881132 
L 360.960061 -41.672241 
L 358.950403 -41.457721 
L 356.940745 -41.239287 
L 354.931087 -41.017675 
L 352.921428 -40.792465 
L 350.91177 -40.562267 
L 348.902112 -40.325188 
L 346.892454 -40.079457 
L 344.882796 -39.824063 
L 342.873138 -39.559262 
L 340.86348 -39.286851 
L 338.853822 -39.010165 
L 336.844164 -38.733813 
L 334.834505 -38.4632 
L 332.824847 -38.20395 
L 330.815189 -37.961312 
L 328.805531 -37.739657 
L 326.795873 -37.542121 
L 324.786215 -37.370431 
L 322.776557 -37.224912 
L 320.766899 -37.104638 
L 318.757241 -37.007695 
L 316.747582 -36.931491 
L 314.737924 -36.873065 
L 312.728266 -36.82937 
L 310.718608 -36.797491 
L 308.70895 -36.774801 
L 306.699292 -36.759044 
L 304.689634 -36.748368 
L 302.679976 -36.74131 
z
" style="stroke: #4c72b0"/>
    </defs>
    <g>
     <use xlink:href="#mbec1a30cb4" x="0" y="265.689687" style="fill: #4c72b0; fill-opacity: 0.25; stroke: #4c72b0"/>
    </g>
   </g>
   <g id="line2d_31">
    <path d="M 171.478997 228.96 
L 171.478997 7.2 
" style="fill: none; stroke-dasharray: 2.96,1.28; stroke-dashoffset: 0; stroke: #d3d3d3; stroke-width: 0.8"/>
   </g>
   <g id="line2d_32">
    <path d="M 400.556838 228.96 
L 400.556838 7.2 
" style="fill: none; stroke-dasharray: 2.96,1.28; stroke-dashoffset: 0; stroke: #d3d3d3; stroke-width: 0.8"/>
   </g>
   <g id="line2d_33">
    <path d="M 303.120632 228.96 
L 303.120632 7.2 
" style="fill: none; stroke-dasharray: 2.96,1.28; stroke-dashoffset: 0; stroke: #d3d3d3; stroke-width: 0.8"/>
   </g>
   <g id="line2d_34">
    <path d="M 7.2 228.96 
L 844.2 228.96 
" style="fill: none; stroke: #808080; stroke-width: 0.5; stroke-linecap: round"/>
   </g>
   <g id="text_12">
    <text style="font-size: 8px; font-family: 'Arial', 'DejaVu Sans', 'Liberation Sans', 'Bitstream Vera Sans', sans-serif; fill: #808080" transform="translate(177.732747 124.59635) rotate(-90)">International Poverty Line: $3.00</text>
   </g>
   <g id="text_13">
    <text style="font-size: 8px; font-family: 'Arial', 'DejaVu Sans', 'Liberation Sans', 'Bitstream Vera Sans', sans-serif; fill: #808080" transform="translate(406.283088 81.31135) rotate(-90)">World mean: $21.69</text>
   </g>
   <g id="text_14">
    <text style="font-size: 8px; font-family: 'Arial', 'DejaVu Sans', 'Liberation Sans', 'Bitstream Vera Sans', sans-serif; fill: #808080" transform="translate(308.846882 83.08885) rotate(-90)">World median: $9.35</text>
   </g>
   <g id="legend_1">
    <g id="patch_3">
     <path d="M 683.8 102.466062 
L 756.364063 102.466062 
Q 758.364063 102.466062 758.364063 100.466062 
L 758.364063 58.552 
Q 758.364063 56.552 756.364063 56.552 
L 683.8 56.552 
Q 681.8 56.552 681.8 58.552 
L 681.8 100.466062 
Q 681.8 102.466062 683.8 102.466062 
z
" style="fill: #ffffff; opacity: 0.8; stroke: #cccccc; stroke-linejoin: miter"/>
    </g>
    <g id="text_15">
     <text style="font-size: 10px; font-family: 'Arial', 'DejaVu Sans', 'Liberation Sans', 'Bitstream Vera Sans', sans-serif; text-anchor: start; fill: #262626" x="702.575781" y="67.831687" transform="rotate(-0 702.575781 67.831687)">Country</text>
    </g>
    <g id="patch_4">
     <path d="M 685.8 82.094187 
L 705.8 82.094187 
L 705.8 75.094187 
L 685.8 75.094187 
z
" style="fill: #4c72b0; fill-opacity: 0.25; stroke: #4c72b0; stroke-linejoin: miter"/>
    </g>
    <g id="text_16">
     <text style="font-size: 10px; font-family: 'Arial', 'DejaVu Sans', 'Liberation Sans', 'Bitstream Vera Sans', sans-serif; text-anchor: start; fill: #262626" x="713.8" y="82.094187" transform="rotate(-0 713.8 82.094187)">Denmark</text>
    </g>
    <g id="patch_5">
     <path d="M 685.8 96.361375 
L 705.8 96.361375 
L 705.8 89.361375 
L 685.8 89.361375 
z
" style="fill: #dd8452; fill-opacity: 0.25; stroke: #dd8452; stroke-linejoin: miter"/>
    </g>
    <g id="text_17">
     <text style="font-size: 10px; font-family: 'Arial', 'DejaVu Sans', 'Liberation Sans', 'Bitstream Vera Sans', sans-serif; text-anchor: start; fill: #262626" x="713.8" y="96.361375" transform="rotate(-0 713.8 96.361375)">Syria</text>
    </g>
   </g>
  </g>
 </g>
</svg>
