<?xml version="1.0" encoding="utf-8" standalone="no"?>
<!DOCTYPE svg PUBLIC "-//W3C//DTD SVG 1.1//EN"
  "http://www.w3.org/Graphics/SVG/1.1/DTD/svg11.dtd">
<svg xmlns:xlink="http://www.w3.org/1999/xlink" width="855.221023pt" height="265.689687pt" viewBox="0 0 855.221023 265.689687" xmlns="http://www.w3.org/2000/svg" version="1.1">
 <metadata>
  <rdf:RDF xmlns:dc="http://purl.org/dc/elements/1.1/" xmlns:cc="http://creativecommons.org/ns#" xmlns:rdf="http://www.w3.org/1999/02/22-rdf-syntax-ns#">
   <cc:Work>
    <dc:type rdf:resource="http://purl.org/dc/dcmitype/StillImage"/>
    <dc:date>2025-04-16T15:07:00.759342</dc:date>
    <dc:format>image/svg+xml</dc:format>
    <dc:creator>
     <cc:Agent>
      <dc:title>Matplotlib v3.10.1, https://matplotlib.org/</dc:title>
     </cc:Agent>
    </dc:creator>
   </cc:Work>
  </rdf:RDF>
 </metadata>
 <defs>
  <style type="text/css">*{stroke-linejoin: round; stroke-linecap: butt}</style>
 </defs>
 <g id="figure_1">
  <g id="patch_1">
   <path d="M 0 265.689687 
L 855.221023 265.689687 
L 855.221023 0 
L 0 0 
z
" style="fill: #ffffff"/>
  </g>
  <g id="axes_1">
   <g id="patch_2">
    <path d="M 7.2 228.96 
L 844.2 228.96 
L 844.2 7.2 
L 7.2 7.2 
z
" style="fill: #ffffff"/>
   </g>
   <g id="matplotlib.axis_1">
    <g id="xtick_1">
     <g id="line2d_1">
      <defs>
       <path id="m57d8b7638c" d="M 0 0 
L 0 3.5 
" style="stroke: #262626; stroke-width: 0.8"/>
      </defs>
      <g>
       <use xlink:href="#m57d8b7638c" x="131.322681" y="228.96" style="fill: #262626; stroke: #262626; stroke-width: 0.8"/>
      </g>
     </g>
     <g id="text_1">
      <text style="font-size: 10px; font-family: 'Arial', 'DejaVu Sans', 'Liberation Sans', 'Bitstream Vera Sans', sans-serif; text-anchor: middle; fill: #262626" x="131.322681" y="243.117812" transform="rotate(-0 131.322681 243.117812)">1</text>
     </g>
    </g>
    <g id="xtick_2">
     <g id="line2d_2">
      <g>
       <use xlink:href="#m57d8b7638c" x="202.122574" y="228.96" style="fill: #262626; stroke: #262626; stroke-width: 0.8"/>
      </g>
     </g>
     <g id="text_2">
      <text style="font-size: 10px; font-family: 'Arial', 'DejaVu Sans', 'Liberation Sans', 'Bitstream Vera Sans', sans-serif; text-anchor: middle; fill: #262626" x="202.122574" y="243.117812" transform="rotate(-0 202.122574 243.117812)">2</text>
     </g>
    </g>
    <g id="xtick_3">
     <g id="line2d_3">
      <g>
       <use xlink:href="#m57d8b7638c" x="295.714943" y="228.96" style="fill: #262626; stroke: #262626; stroke-width: 0.8"/>
      </g>
     </g>
     <g id="text_3">
      <text style="font-size: 10px; font-family: 'Arial', 'DejaVu Sans', 'Liberation Sans', 'Bitstream Vera Sans', sans-serif; text-anchor: middle; fill: #262626" x="295.714943" y="243.117812" transform="rotate(-0 295.714943 243.117812)">5</text>
     </g>
    </g>
    <g id="xtick_4">
     <g id="line2d_4">
      <g>
       <use xlink:href="#m57d8b7638c" x="366.514837" y="228.96" style="fill: #262626; stroke: #262626; stroke-width: 0.8"/>
      </g>
     </g>
     <g id="text_4">
      <text style="font-size: 10px; font-family: 'Arial', 'DejaVu Sans', 'Liberation Sans', 'Bitstream Vera Sans', sans-serif; text-anchor: middle; fill: #262626" x="366.514837" y="243.117812" transform="rotate(-0 366.514837 243.117812)">10</text>
     </g>
    </g>
    <g id="xtick_5">
     <g id="line2d_5">
      <g>
       <use xlink:href="#m57d8b7638c" x="437.31473" y="228.96" style="fill: #262626; stroke: #262626; stroke-width: 0.8"/>
      </g>
     </g>
     <g id="text_5">
      <text style="font-size: 10px; font-family: 'Arial', 'DejaVu Sans', 'Liberation Sans', 'Bitstream Vera Sans', sans-serif; text-anchor: middle; fill: #262626" x="437.31473" y="243.117812" transform="rotate(-0 437.31473 243.117812)">20</text>
     </g>
    </g>
    <g id="xtick_6">
     <g id="line2d_6">
      <g>
       <use xlink:href="#m57d8b7638c" x="530.907099" y="228.96" style="fill: #262626; stroke: #262626; stroke-width: 0.8"/>
      </g>
     </g>
     <g id="text_6">
      <text style="font-size: 10px; font-family: 'Arial', 'DejaVu Sans', 'Liberation Sans', 'Bitstream Vera Sans', sans-serif; text-anchor: middle; fill: #262626" x="530.907099" y="243.117812" transform="rotate(-0 530.907099 243.117812)">50</text>
     </g>
    </g>
    <g id="xtick_7">
     <g id="line2d_7">
      <g>
       <use xlink:href="#m57d8b7638c" x="601.706992" y="228.96" style="fill: #262626; stroke: #262626; stroke-width: 0.8"/>
      </g>
     </g>
     <g id="text_7">
      <text style="font-size: 10px; font-family: 'Arial', 'DejaVu Sans', 'Liberation Sans', 'Bitstream Vera Sans', sans-serif; text-anchor: middle; fill: #262626" x="601.706992" y="243.117812" transform="rotate(-0 601.706992 243.117812)">100</text>
     </g>
    </g>
    <g id="xtick_8">
     <g id="line2d_8">
      <g>
       <use xlink:href="#m57d8b7638c" x="672.506886" y="228.96" style="fill: #262626; stroke: #262626; stroke-width: 0.8"/>
      </g>
     </g>
     <g id="text_8">
      <text style="font-size: 10px; font-family: 'Arial', 'DejaVu Sans', 'Liberation Sans', 'Bitstream Vera Sans', sans-serif; text-anchor: middle; fill: #262626" x="672.506886" y="243.117812" transform="rotate(-0 672.506886 243.117812)">200</text>
     </g>
    </g>
    <g id="xtick_9">
     <g id="line2d_9">
      <g>
       <use xlink:href="#m57d8b7638c" x="766.099255" y="228.96" style="fill: #262626; stroke: #262626; stroke-width: 0.8"/>
      </g>
     </g>
     <g id="text_9">
      <text style="font-size: 10px; font-family: 'Arial', 'DejaVu Sans', 'Liberation Sans', 'Bitstream Vera Sans', sans-serif; text-anchor: middle; fill: #262626" x="766.099255" y="243.117812" transform="rotate(-0 766.099255 243.117812)">500</text>
     </g>
    </g>
    <g id="xtick_10">
     <g id="line2d_10">
      <g>
       <use xlink:href="#m57d8b7638c" x="836.899148" y="228.96" style="fill: #262626; stroke: #262626; stroke-width: 0.8"/>
      </g>
     </g>
     <g id="text_10">
      <text style="font-size: 10px; font-family: 'Arial', 'DejaVu Sans', 'Liberation Sans', 'Bitstream Vera Sans', sans-serif; text-anchor: middle; fill: #262626" x="836.899148" y="243.117812" transform="rotate(-0 836.899148 243.117812)">1000</text>
     </g>
    </g>
    <g id="xtick_11">
     <g id="line2d_11">
      <defs>
       <path id="m86e7e5de5c" d="M 0 0 
L 0 2 
" style="stroke: #262626; stroke-width: 0.6"/>
      </defs>
      <g>
       <use xlink:href="#m86e7e5de5c" x="8.345701" y="228.96" style="fill: #262626; stroke: #262626; stroke-width: 0.6"/>
      </g>
     </g>
    </g>
    <g id="xtick_12">
     <g id="line2d_12">
      <g>
       <use xlink:href="#m86e7e5de5c" x="37.730312" y="228.96" style="fill: #262626; stroke: #262626; stroke-width: 0.6"/>
      </g>
     </g>
    </g>
    <g id="xtick_13">
     <g id="line2d_13">
      <g>
       <use xlink:href="#m86e7e5de5c" x="60.522787" y="228.96" style="fill: #262626; stroke: #262626; stroke-width: 0.6"/>
      </g>
     </g>
    </g>
    <g id="xtick_14">
     <g id="line2d_14">
      <g>
       <use xlink:href="#m86e7e5de5c" x="79.145595" y="228.96" style="fill: #262626; stroke: #262626; stroke-width: 0.6"/>
      </g>
     </g>
    </g>
    <g id="xtick_15">
     <g id="line2d_15">
      <g>
       <use xlink:href="#m86e7e5de5c" x="94.890955" y="228.96" style="fill: #262626; stroke: #262626; stroke-width: 0.6"/>
      </g>
     </g>
    </g>
    <g id="xtick_16">
     <g id="line2d_16">
      <g>
       <use xlink:href="#m86e7e5de5c" x="108.530206" y="228.96" style="fill: #262626; stroke: #262626; stroke-width: 0.6"/>
      </g>
     </g>
    </g>
    <g id="xtick_17">
     <g id="line2d_17">
      <g>
       <use xlink:href="#m86e7e5de5c" x="120.560878" y="228.96" style="fill: #262626; stroke: #262626; stroke-width: 0.6"/>
      </g>
     </g>
    </g>
    <g id="xtick_18">
     <g id="line2d_18">
      <g>
       <use xlink:href="#m86e7e5de5c" x="243.537857" y="228.96" style="fill: #262626; stroke: #262626; stroke-width: 0.6"/>
      </g>
     </g>
    </g>
    <g id="xtick_19">
     <g id="line2d_19">
      <g>
       <use xlink:href="#m86e7e5de5c" x="272.922468" y="228.96" style="fill: #262626; stroke: #262626; stroke-width: 0.6"/>
      </g>
     </g>
    </g>
    <g id="xtick_20">
     <g id="line2d_20">
      <g>
       <use xlink:href="#m86e7e5de5c" x="314.337751" y="228.96" style="fill: #262626; stroke: #262626; stroke-width: 0.6"/>
      </g>
     </g>
    </g>
    <g id="xtick_21">
     <g id="line2d_21">
      <g>
       <use xlink:href="#m86e7e5de5c" x="330.083111" y="228.96" style="fill: #262626; stroke: #262626; stroke-width: 0.6"/>
      </g>
     </g>
    </g>
    <g id="xtick_22">
     <g id="line2d_22">
      <g>
       <use xlink:href="#m86e7e5de5c" x="343.722362" y="228.96" style="fill: #262626; stroke: #262626; stroke-width: 0.6"/>
      </g>
     </g>
    </g>
    <g id="xtick_23">
     <g id="line2d_23">
      <g>
       <use xlink:href="#m86e7e5de5c" x="355.753034" y="228.96" style="fill: #262626; stroke: #262626; stroke-width: 0.6"/>
      </g>
     </g>
    </g>
    <g id="xtick_24">
     <g id="line2d_24">
      <g>
       <use xlink:href="#m86e7e5de5c" x="478.730013" y="228.96" style="fill: #262626; stroke: #262626; stroke-width: 0.6"/>
      </g>
     </g>
    </g>
    <g id="xtick_25">
     <g id="line2d_25">
      <g>
       <use xlink:href="#m86e7e5de5c" x="508.114624" y="228.96" style="fill: #262626; stroke: #262626; stroke-width: 0.6"/>
      </g>
     </g>
    </g>
    <g id="xtick_26">
     <g id="line2d_26">
      <g>
       <use xlink:href="#m86e7e5de5c" x="549.529907" y="228.96" style="fill: #262626; stroke: #262626; stroke-width: 0.6"/>
      </g>
     </g>
    </g>
    <g id="xtick_27">
     <g id="line2d_27">
      <g>
       <use xlink:href="#m86e7e5de5c" x="565.275267" y="228.96" style="fill: #262626; stroke: #262626; stroke-width: 0.6"/>
      </g>
     </g>
    </g>
    <g id="xtick_28">
     <g id="line2d_28">
      <g>
       <use xlink:href="#m86e7e5de5c" x="578.914518" y="228.96" style="fill: #262626; stroke: #262626; stroke-width: 0.6"/>
      </g>
     </g>
    </g>
    <g id="xtick_29">
     <g id="line2d_29">
      <g>
       <use xlink:href="#m86e7e5de5c" x="590.94519" y="228.96" style="fill: #262626; stroke: #262626; stroke-width: 0.6"/>
      </g>
     </g>
    </g>
    <g id="xtick_30">
     <g id="line2d_30">
      <g>
       <use xlink:href="#m86e7e5de5c" x="713.922169" y="228.96" style="fill: #262626; stroke: #262626; stroke-width: 0.6"/>
      </g>
     </g>
    </g>
    <g id="xtick_31">
     <g id="line2d_31">
      <g>
       <use xlink:href="#m86e7e5de5c" x="743.30678" y="228.96" style="fill: #262626; stroke: #262626; stroke-width: 0.6"/>
      </g>
     </g>
    </g>
    <g id="xtick_32">
     <g id="line2d_32">
      <g>
       <use xlink:href="#m86e7e5de5c" x="784.722063" y="228.96" style="fill: #262626; stroke: #262626; stroke-width: 0.6"/>
      </g>
     </g>
    </g>
    <g id="xtick_33">
     <g id="line2d_33">
      <g>
       <use xlink:href="#m86e7e5de5c" x="800.467422" y="228.96" style="fill: #262626; stroke: #262626; stroke-width: 0.6"/>
      </g>
     </g>
    </g>
    <g id="xtick_34">
     <g id="line2d_34">
      <g>
       <use xlink:href="#m86e7e5de5c" x="814.106673" y="228.96" style="fill: #262626; stroke: #262626; stroke-width: 0.6"/>
      </g>
     </g>
    </g>
    <g id="xtick_35">
     <g id="line2d_35">
      <g>
       <use xlink:href="#m86e7e5de5c" x="826.137345" y="228.96" style="fill: #262626; stroke: #262626; stroke-width: 0.6"/>
      </g>
     </g>
    </g>
    <g id="text_11">
     <text style="font-size: 10px; font-family: 'Arial', 'DejaVu Sans', 'Liberation Sans', 'Bitstream Vera Sans', sans-serif; text-anchor: middle; fill: #262626" x="425.7" y="256.385" transform="rotate(-0 425.7 256.385)">Income or consumption (day)</text>
    </g>
   </g>
   <g id="matplotlib.axis_2"/>
   <g id="FillBetweenPolyCollection_1">
    <defs>
     <path id="m5cc654da05" d="M 45.245455 -36.788097 
L 45.245455 -36.729688 
L 47.156646 -36.729688 
L 49.067838 -36.729688 
L 50.97903 -36.729688 
L 52.890221 -36.729688 
L 54.801413 -36.729688 
L 56.712605 -36.729688 
L 58.623797 -36.729688 
L 60.534988 -36.729688 
L 62.44618 -36.729688 
L 64.357372 -36.729688 
L 66.268564 -36.729688 
L 68.179755 -36.729688 
L 70.090947 -36.729688 
L 72.002139 -36.729688 
L 73.913331 -36.729688 
L 75.824522 -36.729688 
L 77.735714 -36.729688 
L 79.646906 -36.729688 
L 81.558098 -36.729688 
L 83.469289 -36.729688 
L 85.380481 -36.729688 
L 87.291673 -36.729688 
L 89.202864 -36.729688 
L 91.114056 -36.729688 
L 93.025248 -36.729688 
L 94.93644 -36.729688 
L 96.847631 -36.729688 
L 98.758823 -36.729688 
L 100.670015 -36.729688 
L 102.581207 -36.729688 
L 104.492398 -36.729688 
L 106.40359 -36.729688 
L 108.314782 -36.729688 
L 110.225974 -36.729688 
L 112.137165 -36.729688 
L 114.048357 -36.729688 
L 115.959549 -36.729688 
L 117.870741 -36.729688 
L 119.781932 -36.729688 
L 121.693124 -36.729688 
L 123.604316 -36.729688 
L 125.515507 -36.729688 
L 127.426699 -36.729688 
L 129.337891 -36.729688 
L 131.249083 -36.729688 
L 133.160274 -36.729688 
L 135.071466 -36.729688 
L 136.982658 -36.729688 
L 138.89385 -36.729688 
L 140.805041 -36.729688 
L 142.716233 -36.729688 
L 144.627425 -36.729688 
L 146.538617 -36.729688 
L 148.449808 -36.729688 
L 150.361 -36.729688 
L 152.272192 -36.729688 
L 154.183384 -36.729688 
L 156.094575 -36.729688 
L 158.005767 -36.729688 
L 159.916959 -36.729688 
L 161.82815 -36.729688 
L 163.739342 -36.729688 
L 165.650534 -36.729688 
L 167.561726 -36.729688 
L 169.472917 -36.729688 
L 171.384109 -36.729688 
L 173.295301 -36.729688 
L 175.206493 -36.729688 
L 177.117684 -36.729688 
L 179.028876 -36.729688 
L 180.940068 -36.729688 
L 182.85126 -36.729688 
L 184.762451 -36.729688 
L 186.673643 -36.729688 
L 188.584835 -36.729688 
L 190.496027 -36.729688 
L 192.407218 -36.729688 
L 194.31841 -36.729688 
L 196.229602 -36.729688 
L 198.140793 -36.729688 
L 200.051985 -36.729688 
L 201.963177 -36.729688 
L 203.874369 -36.729688 
L 205.78556 -36.729688 
L 207.696752 -36.729688 
L 209.607944 -36.729688 
L 211.519136 -36.729688 
L 213.430327 -36.729688 
L 215.341519 -36.729688 
L 217.252711 -36.729688 
L 219.163903 -36.729688 
L 221.075094 -36.729688 
L 222.986286 -36.729688 
L 224.897478 -36.729688 
L 226.80867 -36.729688 
L 228.719861 -36.729688 
L 230.631053 -36.729688 
L 232.542245 -36.729688 
L 234.453436 -36.729688 
L 236.364628 -36.729688 
L 238.27582 -36.729688 
L 240.187012 -36.729688 
L 242.098203 -36.729688 
L 244.009395 -36.729688 
L 245.920587 -36.729688 
L 247.831779 -36.729688 
L 249.74297 -36.729688 
L 251.654162 -36.729688 
L 253.565354 -36.729688 
L 255.476546 -36.729688 
L 257.387737 -36.729688 
L 259.298929 -36.729688 
L 261.210121 -36.729688 
L 263.121313 -36.729688 
L 265.032504 -36.729688 
L 266.943696 -36.729688 
L 268.854888 -36.729688 
L 270.766079 -36.729688 
L 272.677271 -36.729688 
L 274.588463 -36.729688 
L 276.499655 -36.729688 
L 278.410846 -36.729688 
L 280.322038 -36.729688 
L 282.23323 -36.729688 
L 284.144422 -36.729688 
L 286.055613 -36.729688 
L 287.966805 -36.729688 
L 289.877997 -36.729688 
L 291.789189 -36.729688 
L 293.70038 -36.729688 
L 295.611572 -36.729688 
L 297.522764 -36.729688 
L 299.433956 -36.729688 
L 301.345147 -36.729688 
L 303.256339 -36.729688 
L 305.167531 -36.729688 
L 307.078722 -36.729688 
L 308.989914 -36.729688 
L 310.901106 -36.729688 
L 312.812298 -36.729688 
L 314.723489 -36.729688 
L 316.634681 -36.729688 
L 318.545873 -36.729688 
L 320.457065 -36.729688 
L 322.368256 -36.729688 
L 324.279448 -36.729688 
L 326.19064 -36.729688 
L 328.101832 -36.729688 
L 330.013023 -36.729688 
L 331.924215 -36.729688 
L 333.835407 -36.729688 
L 335.746599 -36.729688 
L 337.65779 -36.729688 
L 339.568982 -36.729688 
L 341.480174 -36.729688 
L 343.391365 -36.729688 
L 345.302557 -36.729688 
L 347.213749 -36.729688 
L 349.124941 -36.729688 
L 351.036132 -36.729688 
L 352.947324 -36.729688 
L 354.858516 -36.729688 
L 356.769708 -36.729688 
L 358.680899 -36.729688 
L 360.592091 -36.729688 
L 362.503283 -36.729688 
L 364.414475 -36.729688 
L 366.325666 -36.729688 
L 368.236858 -36.729688 
L 370.14805 -36.729688 
L 372.059242 -36.729688 
L 373.970433 -36.729688 
L 375.881625 -36.729688 
L 377.792817 -36.729688 
L 379.704008 -36.729688 
L 381.6152 -36.729688 
L 383.526392 -36.729688 
L 385.437584 -36.729688 
L 387.348775 -36.729688 
L 389.259967 -36.729688 
L 391.171159 -36.729688 
L 393.082351 -36.729688 
L 394.993542 -36.729688 
L 396.904734 -36.729688 
L 398.815926 -36.729688 
L 400.727118 -36.729688 
L 402.638309 -36.729688 
L 404.549501 -36.729688 
L 406.460693 -36.729688 
L 408.371885 -36.729688 
L 410.283076 -36.729688 
L 412.194268 -36.729688 
L 414.10546 -36.729688 
L 416.016651 -36.729688 
L 417.927843 -36.729688 
L 419.839035 -36.729688 
L 421.750227 -36.729688 
L 423.661418 -36.729688 
L 425.57261 -36.729688 
L 425.57261 -36.792653 
L 425.57261 -36.792653 
L 423.661418 -36.813885 
L 421.750227 -36.841297 
L 419.839035 -36.876354 
L 417.927843 -36.920765 
L 416.016651 -36.976495 
L 414.10546 -37.045777 
L 412.194268 -37.131098 
L 410.283076 -37.235196 
L 408.371885 -37.361028 
L 406.460693 -37.511734 
L 404.549501 -37.690584 
L 402.638309 -37.900916 
L 400.727118 -38.146062 
L 398.815926 -38.429265 
L 396.904734 -38.753591 
L 394.993542 -39.121851 
L 393.082351 -39.536516 
L 391.171159 -39.999654 
L 389.259967 -40.512881 
L 387.348775 -41.077339 
L 385.437584 -41.693695 
L 383.526392 -42.362178 
L 381.6152 -43.082643 
L 379.704008 -43.854665 
L 377.792817 -44.677663 
L 375.881625 -45.551043 
L 373.970433 -46.474349 
L 372.059242 -47.447424 
L 370.14805 -48.47056 
L 368.236858 -49.544623 
L 366.325666 -50.671163 
L 364.414475 -51.852465 
L 362.503283 -53.091574 
L 360.592091 -54.392258 
L 358.680899 -55.758921 
L 356.769708 -57.196479 
L 354.858516 -58.710183 
L 352.947324 -60.305421 
L 351.036132 -61.987497 
L 349.124941 -63.761417 
L 347.213749 -65.631672 
L 345.302557 -67.602068 
L 343.391365 -69.675578 
L 341.480174 -71.854262 
L 339.568982 -74.139224 
L 337.65779 -76.530649 
L 335.746599 -79.02787 
L 333.835407 -81.629499 
L 331.924215 -84.333584 
L 330.013023 -87.137776 
L 328.101832 -90.039509 
L 326.19064 -93.036148 
L 324.279448 -96.125117 
L 322.368256 -99.303967 
L 320.457065 -102.570399 
L 318.545873 -105.922225 
L 316.634681 -109.357279 
L 314.723489 -112.873277 
L 312.812298 -116.467653 
L 310.901106 -120.137372 
L 308.989914 -123.878758 
L 307.078722 -127.68734 
L 305.167531 -131.557736 
L 303.256339 -135.483604 
L 301.345147 -139.457637 
L 299.433956 -143.471639 
L 297.522764 -147.516647 
L 295.611572 -151.583108 
L 293.70038 -155.661085 
L 291.789189 -159.74048 
L 289.877997 -163.811237 
L 287.966805 -167.863534 
L 286.055613 -171.887908 
L 284.144422 -175.875332 
L 282.23323 -179.817215 
L 280.322038 -183.705332 
L 278.410846 -187.531686 
L 276.499655 -191.28831 
L 274.588463 -194.967033 
L 272.677271 -198.559224 
L 270.766079 -202.05554 
L 268.854888 -205.445697 
L 266.943696 -208.718292 
L 265.032504 -211.860695 
L 263.121313 -214.859012 
L 261.210121 -217.698148 
L 259.298929 -220.361956 
L 257.387737 -222.833472 
L 255.476546 -225.095234 
L 253.565354 -227.129656 
L 251.654162 -228.919454 
L 249.74297 -230.448083 
L 247.831779 -231.70019 
L 245.920587 -232.662028 
L 244.009395 -233.321842 
L 242.098203 -233.670188 
L 240.187012 -233.700191 
L 238.27582 -233.407709 
L 236.364628 -232.791433 
L 234.453436 -231.852886 
L 232.542245 -230.596366 
L 230.631053 -229.028806 
L 228.719861 -227.159585 
L 226.80867 -225.000296 
L 224.897478 -222.564486 
L 222.986286 -219.867375 
L 221.075094 -216.925574 
L 219.163903 -213.756811 
L 217.252711 -210.379664 
L 215.341519 -206.813316 
L 213.430327 -203.077338 
L 211.519136 -199.191483 
L 209.607944 -195.175507 
L 207.696752 -191.049012 
L 205.78556 -186.831298 
L 203.874369 -182.541231 
L 201.963177 -178.197119 
L 200.051985 -173.816593 
L 198.140793 -169.416497 
L 196.229602 -165.012779 
L 194.31841 -160.62039 
L 192.407218 -156.253193 
L 190.496027 -151.923877 
L 188.584835 -147.643892 
L 186.673643 -143.423397 
L 184.762451 -139.271231 
L 182.85126 -135.194902 
L 180.940068 -131.20061 
L 179.028876 -127.293283 
L 177.117684 -123.476647 
L 175.206493 -119.753315 
L 173.295301 -116.124896 
L 171.384109 -112.592123 
L 169.472917 -109.154994 
L 167.561726 -105.812918 
L 165.650534 -102.564874 
L 163.739342 -99.409555 
L 161.82815 -96.345525 
L 159.916959 -93.371348 
L 158.005767 -90.485719 
L 156.094575 -87.687566 
L 154.183384 -84.976138 
L 152.272192 -82.351067 
L 150.361 -79.812403 
L 148.449808 -77.36062 
L 146.538617 -74.9966 
L 144.627425 -72.721578 
L 142.716233 -70.537067 
L 140.805041 -68.444755 
L 138.89385 -66.446375 
L 136.982658 -64.543566 
L 135.071466 -62.737714 
L 133.160274 -61.029799 
L 131.249083 -59.420235 
L 129.337891 -57.908738 
L 127.426699 -56.494202 
L 125.515507 -55.174621 
L 123.604316 -53.947042 
L 121.693124 -52.807565 
L 119.781932 -51.751395 
L 117.870741 -50.772932 
L 115.959549 -49.865922 
L 114.048357 -49.023633 
L 112.137165 -48.239067 
L 110.225974 -47.50519 
L 108.314782 -46.815165 
L 106.40359 -46.162577 
L 104.492398 -45.541631 
L 102.581207 -44.947326 
L 100.670015 -44.375569 
L 98.758823 -43.82325 
L 96.847631 -43.288257 
L 94.93644 -42.769441 
L 93.025248 -42.266531 
L 91.114056 -41.780011 
L 89.202864 -41.310961 
L 87.291673 -40.860885 
L 85.380481 -40.431529 
L 83.469289 -40.024708 
L 81.558098 -39.642141 
L 79.646906 -39.285315 
L 77.735714 -38.955381 
L 75.824522 -38.653071 
L 73.913331 -38.378667 
L 72.002139 -38.131982 
L 70.090947 -37.912382 
L 68.179755 -37.718831 
L 66.268564 -37.549944 
L 64.357372 -37.404062 
L 62.44618 -37.279324 
L 60.534988 -37.173746 
L 58.623797 -37.085293 
L 56.712605 -37.011937 
L 54.801413 -36.951719 
L 52.890221 -36.902785 
L 50.97903 -36.863424 
L 49.067838 -36.832082 
L 47.156646 -36.807376 
L 45.245455 -36.788097 
z
" style="stroke: #dd8452"/>
    </defs>
    <g>
     <use xlink:href="#m5cc654da05" x="0" y="265.689687" style="fill: #dd8452; fill-opacity: 0.25; stroke: #dd8452"/>
    </g>
   </g>
   <g id="FillBetweenPolyCollection_2">
    <defs>
     <path id="m9e5862bfe6" d="M 307.280391 -36.78375 
L 307.280391 -36.729688 
L 309.787296 -36.729688 
L 312.294201 -36.729688 
L 314.801107 -36.729688 
L 317.308012 -36.729688 
L 319.814917 -36.729688 
L 322.321822 -36.729688 
L 324.828728 -36.729688 
L 327.335633 -36.729688 
L 329.842538 -36.729688 
L 332.349444 -36.729688 
L 334.856349 -36.729688 
L 337.363254 -36.729688 
L 339.87016 -36.729688 
L 342.377065 -36.729688 
L 344.88397 -36.729688 
L 347.390875 -36.729688 
L 349.897781 -36.729688 
L 352.404686 -36.729688 
L 354.911591 -36.729688 
L 357.418497 -36.729688 
L 359.925402 -36.729688 
L 362.432307 -36.729688 
L 364.939213 -36.729688 
L 367.446118 -36.729688 
L 369.953023 -36.729688 
L 372.459928 -36.729688 
L 374.966834 -36.729688 
L 377.473739 -36.729688 
L 379.980644 -36.729688 
L 382.48755 -36.729688 
L 384.994455 -36.729688 
L 387.50136 -36.729688 
L 390.008266 -36.729688 
L 392.515171 -36.729688 
L 395.022076 -36.729688 
L 397.528981 -36.729688 
L 400.035887 -36.729688 
L 402.542792 -36.729688 
L 405.049697 -36.729688 
L 407.556603 -36.729688 
L 410.063508 -36.729688 
L 412.570413 -36.729688 
L 415.077319 -36.729688 
L 417.584224 -36.729688 
L 420.091129 -36.729688 
L 422.598034 -36.729688 
L 425.10494 -36.729688 
L 427.611845 -36.729688 
L 430.11875 -36.729688 
L 432.625656 -36.729688 
L 435.132561 -36.729688 
L 437.639466 -36.729688 
L 440.146372 -36.729688 
L 442.653277 -36.729688 
L 445.160182 -36.729688 
L 447.667087 -36.729688 
L 450.173993 -36.729688 
L 452.680898 -36.729688 
L 455.187803 -36.729688 
L 457.694709 -36.729688 
L 460.201614 -36.729688 
L 462.708519 -36.729688 
L 465.215425 -36.729688 
L 467.72233 -36.729688 
L 470.229235 -36.729688 
L 472.73614 -36.729688 
L 475.243046 -36.729688 
L 477.749951 -36.729688 
L 480.256856 -36.729688 
L 482.763762 -36.729688 
L 485.270667 -36.729688 
L 487.777572 -36.729688 
L 490.284478 -36.729688 
L 492.791383 -36.729688 
L 495.298288 -36.729688 
L 497.805193 -36.729688 
L 500.312099 -36.729688 
L 502.819004 -36.729688 
L 505.325909 -36.729688 
L 507.832815 -36.729688 
L 510.33972 -36.729688 
L 512.846625 -36.729688 
L 515.353531 -36.729688 
L 517.860436 -36.729688 
L 520.367341 -36.729688 
L 522.874246 -36.729688 
L 525.381152 -36.729688 
L 527.888057 -36.729688 
L 530.394962 -36.729688 
L 532.901868 -36.729688 
L 535.408773 -36.729688 
L 537.915678 -36.729688 
L 540.422584 -36.729688 
L 542.929489 -36.729688 
L 545.436394 -36.729688 
L 547.943299 -36.729688 
L 550.450205 -36.729688 
L 552.95711 -36.729688 
L 555.464015 -36.729688 
L 557.970921 -36.729688 
L 560.477826 -36.729688 
L 562.984731 -36.729688 
L 565.491637 -36.729688 
L 567.998542 -36.729688 
L 570.505447 -36.729688 
L 573.012352 -36.729688 
L 575.519258 -36.729688 
L 578.026163 -36.729688 
L 580.533068 -36.729688 
L 583.039974 -36.729688 
L 585.546879 -36.729688 
L 588.053784 -36.729688 
L 590.56069 -36.729688 
L 593.067595 -36.729688 
L 595.5745 -36.729688 
L 598.081405 -36.729688 
L 600.588311 -36.729688 
L 603.095216 -36.729688 
L 605.602121 -36.729688 
L 608.109027 -36.729688 
L 610.615932 -36.729688 
L 613.122837 -36.729688 
L 615.629743 -36.729688 
L 618.136648 -36.729688 
L 620.643553 -36.729688 
L 623.150459 -36.729688 
L 625.657364 -36.729688 
L 628.164269 -36.729688 
L 630.671174 -36.729688 
L 633.17808 -36.729688 
L 635.684985 -36.729688 
L 638.19189 -36.729688 
L 640.698796 -36.729688 
L 643.205701 -36.729688 
L 645.712606 -36.729688 
L 648.219512 -36.729688 
L 650.726417 -36.729688 
L 653.233322 -36.729688 
L 655.740227 -36.729688 
L 658.247133 -36.729688 
L 660.754038 -36.729688 
L 663.260943 -36.729688 
L 665.767849 -36.729688 
L 668.274754 -36.729688 
L 670.781659 -36.729688 
L 673.288565 -36.729688 
L 675.79547 -36.729688 
L 678.302375 -36.729688 
L 680.80928 -36.729688 
L 683.316186 -36.729688 
L 685.823091 -36.729688 
L 688.329996 -36.729688 
L 690.836902 -36.729688 
L 693.343807 -36.729688 
L 695.850712 -36.729688 
L 698.357618 -36.729688 
L 700.864523 -36.729688 
L 703.371428 -36.729688 
L 705.878333 -36.729688 
L 708.385239 -36.729688 
L 710.892144 -36.729688 
L 713.399049 -36.729688 
L 715.905955 -36.729688 
L 718.41286 -36.729688 
L 720.919765 -36.729688 
L 723.426671 -36.729688 
L 725.933576 -36.729688 
L 728.440481 -36.729688 
L 730.947386 -36.729688 
L 733.454292 -36.729688 
L 735.961197 -36.729688 
L 738.468102 -36.729688 
L 740.975008 -36.729688 
L 743.481913 -36.729688 
L 745.988818 -36.729688 
L 748.495724 -36.729688 
L 751.002629 -36.729688 
L 753.509534 -36.729688 
L 756.016439 -36.729688 
L 758.523345 -36.729688 
L 761.03025 -36.729688 
L 763.537155 -36.729688 
L 766.044061 -36.729688 
L 768.550966 -36.729688 
L 771.057871 -36.729688 
L 773.564777 -36.729688 
L 776.071682 -36.729688 
L 778.578587 -36.729688 
L 781.085492 -36.729688 
L 783.592398 -36.729688 
L 786.099303 -36.729688 
L 788.606208 -36.729688 
L 791.113114 -36.729688 
L 793.620019 -36.729688 
L 796.126924 -36.729688 
L 798.63383 -36.729688 
L 801.140735 -36.729688 
L 803.64764 -36.729688 
L 806.154545 -36.729688 
L 806.154545 -36.7846 
L 806.154545 -36.7846 
L 803.64764 -36.808101 
L 801.140735 -36.840028 
L 798.63383 -36.882692 
L 796.126924 -36.938761 
L 793.620019 -37.011216 
L 791.113114 -37.103257 
L 788.606208 -37.218168 
L 786.099303 -37.35912 
L 783.592398 -37.528928 
L 781.085492 -37.729762 
L 778.578587 -37.96283 
L 776.071682 -38.228064 
L 773.564777 -38.523823 
L 771.057871 -38.846665 
L 768.550966 -39.191211 
L 766.044061 -39.550141 
L 763.537155 -39.914337 
L 761.03025 -40.273189 
L 758.523345 -40.615067 
L 756.016439 -40.927912 
L 753.509534 -41.199946 
L 751.002629 -41.420401 
L 748.495724 -41.580252 
L 745.988818 -41.67285 
L 743.481913 -41.69442 
L 740.975008 -41.644373 
L 738.468102 -41.525397 
L 735.961197 -41.34333 
L 733.454292 -41.106829 
L 730.947386 -40.826866 
L 728.440481 -40.516116 
L 725.933576 -40.188285 
L 723.426671 -39.857446 
L 720.919765 -39.537436 
L 718.41286 -39.24135 
L 715.905955 -38.981165 
L 713.399049 -38.767496 
L 710.892144 -38.609474 
L 708.385239 -38.514725 
L 705.878333 -38.489426 
L 703.371428 -38.538402 
L 700.864523 -38.665239 
L 698.357618 -38.872404 
L 695.850712 -39.161344 
L 693.343807 -39.532597 
L 690.836902 -39.985895 
L 688.329996 -40.520298 
L 685.823091 -41.134373 
L 683.316186 -41.826419 
L 680.80928 -42.594759 
L 678.302375 -43.438081 
L 675.79547 -44.355822 
L 673.288565 -45.34855 
L 670.781659 -46.418325 
L 668.274754 -47.568997 
L 665.767849 -48.806391 
L 663.260943 -50.138373 
L 660.754038 -51.574765 
L 658.247133 -53.127114 
L 655.740227 -54.808328 
L 653.233322 -56.632202 
L 650.726417 -58.612883 
L 648.219512 -60.764291 
L 645.712606 -63.099571 
L 643.205701 -65.630582 
L 640.698796 -68.367467 
L 638.19189 -71.318328 
L 635.684985 -74.488999 
L 633.17808 -77.882928 
L 630.671174 -81.501155 
L 628.164269 -85.342386 
L 625.657364 -89.40313 
L 623.150459 -93.677911 
L 620.643553 -98.159526 
L 618.136648 -102.839346 
L 615.629743 -107.707638 
L 613.122837 -112.753899 
L 610.615932 -117.967171 
L 608.109027 -123.336306 
L 605.602121 -128.850151 
L 603.095216 -134.497612 
L 600.588311 -140.267564 
L 598.081405 -146.148598 
L 595.5745 -152.12858 
L 593.067595 -158.194054 
L 590.56069 -164.329521 
L 588.053784 -170.516654 
L 585.546879 -176.733534 
L 583.039974 -182.95398 
L 580.533068 -189.14707 
L 578.026163 -195.276919 
L 575.519258 -201.302762 
L 573.012352 -207.179371 
L 570.505447 -212.857776 
L 567.998542 -218.286267 
L 565.491637 -223.411585 
L 562.984731 -228.180229 
L 560.477826 -232.539776 
L 557.970921 -236.440137 
L 555.464015 -239.834672 
L 552.95711 -242.681113 
L 550.450205 -244.942306 
L 547.943299 -246.586738 
L 545.436394 -247.588928 
L 542.929489 -247.929688 
L 540.422584 -247.596338 
L 537.915678 -246.5829 
L 535.408773 -244.890298 
L 532.901868 -242.526597 
L 530.394962 -239.507245 
L 527.888057 -235.855287 
L 525.381152 -231.601512 
L 522.874246 -226.784456 
L 520.367341 -221.450203 
L 517.860436 -215.651942 
L 515.353531 -209.449223 
L 512.846625 -202.906916 
L 510.33972 -196.093884 
L 507.832815 -189.081407 
L 505.325909 -181.941422 
L 502.819004 -174.744678 
L 500.312099 -167.558885 
L 497.805193 -160.446976 
L 495.298288 -153.465572 
L 492.791383 -146.663736 
L 490.284478 -140.082091 
L 487.777572 -133.752329 
L 485.270667 -127.697141 
L 482.763762 -121.930549 
L 480.256856 -116.458595 
L 477.749951 -111.280338 
L 475.243046 -106.389057 
L 472.73614 -101.773588 
L 470.229235 -97.419687 
L 467.72233 -93.311337 
L 465.215425 -89.431905 
L 462.708519 -85.765116 
L 460.201614 -82.29577 
L 457.694709 -79.010224 
L 455.187803 -75.896623 
L 452.680898 -72.944928 
L 450.173993 -70.146778 
L 447.667087 -67.495256 
L 445.160182 -64.984605 
L 442.653277 -62.609952 
L 440.146372 -60.367093 
L 437.639466 -58.252346 
L 435.132561 -56.262498 
L 432.625656 -54.394824 
L 430.11875 -52.647171 
L 427.611845 -51.018052 
L 425.10494 -49.506729 
L 422.598034 -48.113247 
L 420.091129 -46.838379 
L 417.584224 -45.683481 
L 415.077319 -44.650229 
L 412.570413 -43.740275 
L 410.063508 -42.954812 
L 407.556603 -42.294109 
L 405.049697 -41.757024 
L 402.542792 -41.34057 
L 400.035887 -41.039543 
L 397.528981 -40.84628 
L 395.022076 -40.750555 
L 392.515171 -40.73965 
L 390.008266 -40.798611 
L 387.50136 -40.910677 
L 384.994455 -41.05788 
L 382.48755 -41.221767 
L 379.980644 -41.384215 
L 377.473739 -41.528266 
L 374.966834 -41.638937 
L 372.459928 -41.703925 
L 369.953023 -41.714159 
L 367.446118 -41.664151 
L 364.939213 -41.552109 
L 362.432307 -41.379818 
L 359.925402 -41.152286 
L 357.418497 -40.8772 
L 354.911591 -40.564244 
L 352.404686 -40.224336 
L 349.897781 -39.868841 
L 347.390875 -39.508854 
L 344.88397 -39.154565 
L 342.377065 -38.814776 
L 339.87016 -38.496574 
L 337.363254 -38.205176 
L 334.856349 -37.943917 
L 332.349444 -37.714379 
L 329.842538 -37.51661 
L 327.335633 -37.349405 
L 324.828728 -37.210621 
L 322.321822 -37.097482 
L 319.814917 -37.006861 
L 317.308012 -36.935526 
L 314.801107 -36.880324 
L 312.294201 -36.838319 
L 309.787296 -36.806887 
L 307.280391 -36.78375 
z
" style="stroke: #4c72b0"/>
    </defs>
    <g>
     <use xlink:href="#m9e5862bfe6" x="0" y="265.689687" style="fill: #4c72b0; fill-opacity: 0.25; stroke: #4c72b0"/>
    </g>
   </g>
   <g id="line2d_36">
    <path d="M 209.509599 228.96 
L 209.509599 7.2 
" style="fill: none; stroke-dasharray: 2.96,1.28; stroke-dashoffset: 0; stroke: #d3d3d3; stroke-width: 0.8"/>
   </g>
   <g id="line2d_37">
    <path d="M 433.062945 228.96 
L 433.062945 7.2 
" style="fill: none; stroke-dasharray: 2.96,1.28; stroke-dashoffset: 0; stroke: #d3d3d3; stroke-width: 0.8"/>
   </g>
   <g id="line2d_38">
    <path d="M 346.865461 228.96 
L 346.865461 7.2 
" style="fill: none; stroke-dasharray: 2.96,1.28; stroke-dashoffset: 0; stroke: #d3d3d3; stroke-width: 0.8"/>
   </g>
   <g id="line2d_39">
    <path d="M 7.2 228.96 
L 844.2 228.96 
" style="fill: none; stroke: #808080; stroke-width: 0.5; stroke-linecap: round"/>
   </g>
   <g id="text_12">
    <text style="font-size: 8px; font-family: 'Arial', 'DejaVu Sans', 'Liberation Sans', 'Bitstream Vera Sans', sans-serif; fill: #808080" transform="translate(215.763349 124.59635) rotate(-90)">International Poverty Line: $2.15</text>
   </g>
   <g id="text_13">
    <text style="font-size: 8px; font-family: 'Arial', 'DejaVu Sans', 'Liberation Sans', 'Bitstream Vera Sans', sans-serif; fill: #808080" transform="translate(438.789195 81.31135) rotate(-90)">World mean: $19.18</text>
   </g>
   <g id="text_14">
    <text style="font-size: 8px; font-family: 'Arial', 'DejaVu Sans', 'Liberation Sans', 'Bitstream Vera Sans', sans-serif; fill: #808080" transform="translate(352.591711 83.08885) rotate(-90)">World median: $8.25</text>
   </g>
   <g id="text_15">
    <text style="font-size: 10px; font-family: 'Arial', 'DejaVu Sans', 'Liberation Sans', 'Bitstream Vera Sans', sans-serif; text-anchor: middle" x="544.467637" y="226.855312" transform="rotate(-0 544.467637 226.855312)">Denmark (2021)</text>
   </g>
   <g id="text_16">
    <text style="font-size: 10px; font-family: 'Arial', 'DejaVu Sans', 'Liberation Sans', 'Bitstream Vera Sans', sans-serif; text-anchor: middle" x="242.164426" y="226.855312" transform="rotate(-0 242.164426 226.855312)">Syria (2022)</text>
   </g>
  </g>
 </g>
</svg>
