<?xml version="1.0" encoding="utf-8" standalone="no"?>
<!DOCTYPE svg PUBLIC "-//W3C//DTD SVG 1.1//EN"
  "http://www.w3.org/Graphics/SVG/1.1/DTD/svg11.dtd">
<svg xmlns:xlink="http://www.w3.org/1999/xlink" width="876.424219pt" height="282.943437pt" viewBox="0 0 876.424219 282.943437" xmlns="http://www.w3.org/2000/svg" version="1.1">
 <metadata>
  <rdf:RDF xmlns:dc="http://purl.org/dc/elements/1.1/" xmlns:cc="http://creativecommons.org/ns#" xmlns:rdf="http://www.w3.org/1999/02/22-rdf-syntax-ns#">
   <cc:Work>
    <dc:type rdf:resource="http://purl.org/dc/dcmitype/StillImage"/>
    <dc:date>2026-05-27T14:35:29.064986</dc:date>
    <dc:format>image/svg+xml</dc:format>
    <dc:creator>
     <cc:Agent>
      <dc:title>Matplotlib v3.10.9, https://matplotlib.org/</dc:title>
     </cc:Agent>
    </dc:creator>
   </cc:Work>
  </rdf:RDF>
 </metadata>
 <defs>
  <style type="text/css">*{stroke-linejoin: round; stroke-linecap: butt}</style>
 </defs>
 <g id="figure_1">
  <g id="patch_1">
   <path d="M 0 282.943437 
L 876.424219 282.943437 
L 876.424219 0 
L 0 0 
z
" style="fill: #ffffff"/>
  </g>
  <g id="axes_1">
   <g id="patch_2">
    <path d="M 15.541406 246.21375 
L 852.541406 246.21375 
L 852.541406 24.45375 
L 15.541406 24.45375 
z
" style="fill: #ffffff"/>
   </g>
   <g id="matplotlib.axis_1">
    <g id="xtick_1">
     <g id="line2d_1">
      <defs>
       <path id="m2c5d3fb7ba" d="M 0 0 
L 0 3.5 
" style="stroke: #262626; stroke-width: 0.8"/>
      </defs>
      <g>
       <use xlink:href="#m2c5d3fb7ba" x="15.541406" y="246.21375" style="fill: #262626; stroke: #262626; stroke-width: 0.8"/>
      </g>
     </g>
     <g id="text_1">
      <text style="font-size: 10px; font-family: 'Arial', 'DejaVu Sans', 'Liberation Sans', 'Bitstream Vera Sans', sans-serif; text-anchor: middle; fill: #262626" x="15.541406" y="260.371562" transform="rotate(-0 15.541406 260.371562)">$10</text>
     </g>
    </g>
    <g id="xtick_2">
     <g id="line2d_2">
      <g>
       <use xlink:href="#m2c5d3fb7ba" x="91.869736" y="246.21375" style="fill: #262626; stroke: #262626; stroke-width: 0.8"/>
      </g>
     </g>
     <g id="text_2">
      <text style="font-size: 10px; font-family: 'Arial', 'DejaVu Sans', 'Liberation Sans', 'Bitstream Vera Sans', sans-serif; text-anchor: middle; fill: #262626" x="91.869736" y="260.371562" transform="rotate(-0 91.869736 260.371562)">$20</text>
     </g>
    </g>
    <g id="xtick_3">
     <g id="line2d_3">
      <g>
       <use xlink:href="#m2c5d3fb7ba" x="192.7703" y="246.21375" style="fill: #262626; stroke: #262626; stroke-width: 0.8"/>
      </g>
     </g>
     <g id="text_3">
      <text style="font-size: 10px; font-family: 'Arial', 'DejaVu Sans', 'Liberation Sans', 'Bitstream Vera Sans', sans-serif; text-anchor: middle; fill: #262626" x="192.7703" y="260.371562" transform="rotate(-0 192.7703 260.371562)">$50</text>
     </g>
    </g>
    <g id="xtick_4">
     <g id="line2d_4">
      <g>
       <use xlink:href="#m2c5d3fb7ba" x="269.09863" y="246.21375" style="fill: #262626; stroke: #262626; stroke-width: 0.8"/>
      </g>
     </g>
     <g id="text_4">
      <text style="font-size: 10px; font-family: 'Arial', 'DejaVu Sans', 'Liberation Sans', 'Bitstream Vera Sans', sans-serif; text-anchor: middle; fill: #262626" x="269.09863" y="260.371562" transform="rotate(-0 269.09863 260.371562)">$100</text>
     </g>
    </g>
    <g id="xtick_5">
     <g id="line2d_5">
      <g>
       <use xlink:href="#m2c5d3fb7ba" x="345.426959" y="246.21375" style="fill: #262626; stroke: #262626; stroke-width: 0.8"/>
      </g>
     </g>
     <g id="text_5">
      <text style="font-size: 10px; font-family: 'Arial', 'DejaVu Sans', 'Liberation Sans', 'Bitstream Vera Sans', sans-serif; text-anchor: middle; fill: #262626" x="345.426959" y="260.371562" transform="rotate(-0 345.426959 260.371562)">$200</text>
     </g>
    </g>
    <g id="xtick_6">
     <g id="line2d_6">
      <g>
       <use xlink:href="#m2c5d3fb7ba" x="446.327523" y="246.21375" style="fill: #262626; stroke: #262626; stroke-width: 0.8"/>
      </g>
     </g>
     <g id="text_6">
      <text style="font-size: 10px; font-family: 'Arial', 'DejaVu Sans', 'Liberation Sans', 'Bitstream Vera Sans', sans-serif; text-anchor: middle; fill: #262626" x="446.327523" y="260.371562" transform="rotate(-0 446.327523 260.371562)">$500</text>
     </g>
    </g>
    <g id="xtick_7">
     <g id="line2d_7">
      <g>
       <use xlink:href="#m2c5d3fb7ba" x="522.655853" y="246.21375" style="fill: #262626; stroke: #262626; stroke-width: 0.8"/>
      </g>
     </g>
     <g id="text_7">
      <text style="font-size: 10px; font-family: 'Arial', 'DejaVu Sans', 'Liberation Sans', 'Bitstream Vera Sans', sans-serif; text-anchor: middle; fill: #262626" x="522.655853" y="260.371562" transform="rotate(-0 522.655853 260.371562)">$1000</text>
     </g>
    </g>
    <g id="xtick_8">
     <g id="line2d_8">
      <g>
       <use xlink:href="#m2c5d3fb7ba" x="598.984183" y="246.21375" style="fill: #262626; stroke: #262626; stroke-width: 0.8"/>
      </g>
     </g>
     <g id="text_8">
      <text style="font-size: 10px; font-family: 'Arial', 'DejaVu Sans', 'Liberation Sans', 'Bitstream Vera Sans', sans-serif; text-anchor: middle; fill: #262626" x="598.984183" y="260.371562" transform="rotate(-0 598.984183 260.371562)">$2000</text>
     </g>
    </g>
    <g id="xtick_9">
     <g id="line2d_9">
      <g>
       <use xlink:href="#m2c5d3fb7ba" x="699.884747" y="246.21375" style="fill: #262626; stroke: #262626; stroke-width: 0.8"/>
      </g>
     </g>
     <g id="text_9">
      <text style="font-size: 10px; font-family: 'Arial', 'DejaVu Sans', 'Liberation Sans', 'Bitstream Vera Sans', sans-serif; text-anchor: middle; fill: #262626" x="699.884747" y="260.371562" transform="rotate(-0 699.884747 260.371562)">$5000</text>
     </g>
    </g>
    <g id="xtick_10">
     <g id="line2d_10">
      <g>
       <use xlink:href="#m2c5d3fb7ba" x="776.213076" y="246.21375" style="fill: #262626; stroke: #262626; stroke-width: 0.8"/>
      </g>
     </g>
     <g id="text_10">
      <text style="font-size: 10px; font-family: 'Arial', 'DejaVu Sans', 'Liberation Sans', 'Bitstream Vera Sans', sans-serif; text-anchor: middle; fill: #262626" x="776.213076" y="260.371562" transform="rotate(-0 776.213076 260.371562)">$10000</text>
     </g>
    </g>
    <g id="xtick_11">
     <g id="line2d_11">
      <g>
       <use xlink:href="#m2c5d3fb7ba" x="852.541406" y="246.21375" style="fill: #262626; stroke: #262626; stroke-width: 0.8"/>
      </g>
     </g>
     <g id="text_11">
      <text style="font-size: 10px; font-family: 'Arial', 'DejaVu Sans', 'Liberation Sans', 'Bitstream Vera Sans', sans-serif; text-anchor: middle; fill: #262626" x="852.541406" y="260.371562" transform="rotate(-0 852.541406 260.371562)">$20000</text>
     </g>
    </g>
    <g id="xtick_12">
     <g id="line2d_12">
      <defs>
       <path id="m87ae530716" d="M 0 0 
L 0 2 
" style="stroke: #262626; stroke-width: 0.6"/>
      </defs>
      <g>
       <use xlink:href="#m87ae530716" x="136.518947" y="246.21375" style="fill: #262626; stroke: #262626; stroke-width: 0.6"/>
      </g>
     </g>
    </g>
    <g id="xtick_13">
     <g id="line2d_13">
      <g>
       <use xlink:href="#m87ae530716" x="168.198066" y="246.21375" style="fill: #262626; stroke: #262626; stroke-width: 0.6"/>
      </g>
     </g>
    </g>
    <g id="xtick_14">
     <g id="line2d_14">
      <g>
       <use xlink:href="#m87ae530716" x="212.847277" y="246.21375" style="fill: #262626; stroke: #262626; stroke-width: 0.6"/>
      </g>
     </g>
    </g>
    <g id="xtick_15">
     <g id="line2d_15">
      <g>
       <use xlink:href="#m87ae530716" x="229.822119" y="246.21375" style="fill: #262626; stroke: #262626; stroke-width: 0.6"/>
      </g>
     </g>
    </g>
    <g id="xtick_16">
     <g id="line2d_16">
      <g>
       <use xlink:href="#m87ae530716" x="244.526396" y="246.21375" style="fill: #262626; stroke: #262626; stroke-width: 0.6"/>
      </g>
     </g>
    </g>
    <g id="xtick_17">
     <g id="line2d_17">
      <g>
       <use xlink:href="#m87ae530716" x="257.496487" y="246.21375" style="fill: #262626; stroke: #262626; stroke-width: 0.6"/>
      </g>
     </g>
    </g>
    <g id="xtick_18">
     <g id="line2d_18">
      <g>
       <use xlink:href="#m87ae530716" x="390.07617" y="246.21375" style="fill: #262626; stroke: #262626; stroke-width: 0.6"/>
      </g>
     </g>
    </g>
    <g id="xtick_19">
     <g id="line2d_19">
      <g>
       <use xlink:href="#m87ae530716" x="421.755289" y="246.21375" style="fill: #262626; stroke: #262626; stroke-width: 0.6"/>
      </g>
     </g>
    </g>
    <g id="xtick_20">
     <g id="line2d_20">
      <g>
       <use xlink:href="#m87ae530716" x="466.4045" y="246.21375" style="fill: #262626; stroke: #262626; stroke-width: 0.6"/>
      </g>
     </g>
    </g>
    <g id="xtick_21">
     <g id="line2d_21">
      <g>
       <use xlink:href="#m87ae530716" x="483.379342" y="246.21375" style="fill: #262626; stroke: #262626; stroke-width: 0.6"/>
      </g>
     </g>
    </g>
    <g id="xtick_22">
     <g id="line2d_22">
      <g>
       <use xlink:href="#m87ae530716" x="498.083619" y="246.21375" style="fill: #262626; stroke: #262626; stroke-width: 0.6"/>
      </g>
     </g>
    </g>
    <g id="xtick_23">
     <g id="line2d_23">
      <g>
       <use xlink:href="#m87ae530716" x="511.053711" y="246.21375" style="fill: #262626; stroke: #262626; stroke-width: 0.6"/>
      </g>
     </g>
    </g>
    <g id="xtick_24">
     <g id="line2d_24">
      <g>
       <use xlink:href="#m87ae530716" x="643.633394" y="246.21375" style="fill: #262626; stroke: #262626; stroke-width: 0.6"/>
      </g>
     </g>
    </g>
    <g id="xtick_25">
     <g id="line2d_25">
      <g>
       <use xlink:href="#m87ae530716" x="675.312513" y="246.21375" style="fill: #262626; stroke: #262626; stroke-width: 0.6"/>
      </g>
     </g>
    </g>
    <g id="xtick_26">
     <g id="line2d_26">
      <g>
       <use xlink:href="#m87ae530716" x="719.961723" y="246.21375" style="fill: #262626; stroke: #262626; stroke-width: 0.6"/>
      </g>
     </g>
    </g>
    <g id="xtick_27">
     <g id="line2d_27">
      <g>
       <use xlink:href="#m87ae530716" x="736.936566" y="246.21375" style="fill: #262626; stroke: #262626; stroke-width: 0.6"/>
      </g>
     </g>
    </g>
    <g id="xtick_28">
     <g id="line2d_28">
      <g>
       <use xlink:href="#m87ae530716" x="751.640843" y="246.21375" style="fill: #262626; stroke: #262626; stroke-width: 0.6"/>
      </g>
     </g>
    </g>
    <g id="xtick_29">
     <g id="line2d_29">
      <g>
       <use xlink:href="#m87ae530716" x="764.610934" y="246.21375" style="fill: #262626; stroke: #262626; stroke-width: 0.6"/>
      </g>
     </g>
    </g>
    <g id="text_12">
     <text style="font-size: 10px; font-family: 'Arial', 'DejaVu Sans', 'Liberation Sans', 'Bitstream Vera Sans', sans-serif; text-anchor: middle; fill: #262626" x="434.041406" y="273.63875" transform="rotate(-0 434.041406 273.63875)">Income or consumption (month)</text>
    </g>
   </g>
   <g id="matplotlib.axis_2"/>
   <g id="FillBetweenPolyCollection_1">
    <defs>
     <path id="maa220e0ee8" d="M 130.850405 -36.729688 
L 130.850405 -36.758235 
L 132.446576 -36.772741 
L 134.042747 -36.79365 
L 135.638918 -36.823305 
L 137.235089 -36.864691 
L 138.83126 -36.921525 
L 140.427431 -36.998327 
L 142.023602 -37.100463 
L 143.619774 -37.234136 
L 145.215945 -37.406322 
L 146.812116 -37.624638 
L 148.408287 -37.897128 
L 150.004458 -38.231982 
L 151.600629 -38.637187 
L 153.1968 -39.120132 
L 154.792971 -39.687203 
L 156.389142 -40.343395 
L 157.985313 -41.091983 
L 159.581484 -41.934293 
L 161.177656 -42.869606 
L 162.773827 -43.895209 
L 164.369998 -45.006607 
L 165.966169 -46.197872 
L 167.56234 -47.46211 
L 169.158511 -48.791989 
L 170.754682 -50.180285 
L 172.350853 -51.620376 
L 173.947024 -53.106644 
L 175.543195 -54.634741 
L 177.139367 -56.201704 
L 178.735538 -57.80591 
L 180.331709 -59.4469 
L 181.92788 -61.125103 
L 183.524051 -62.841503 
L 185.120222 -64.597298 
L 186.716393 -66.393598 
L 188.312564 -68.231183 
L 189.908735 -70.110354 
L 191.504906 -72.030869 
L 193.101077 -73.991963 
L 194.697249 -75.992442 
L 196.29342 -78.030809 
L 197.889591 -80.105417 
L 199.485762 -82.214619 
L 201.081933 -84.356894 
L 202.678104 -86.530945 
L 204.274275 -88.735754 
L 205.870446 -90.970599 
L 207.466617 -93.23503 
L 209.062788 -95.528822 
L 210.65896 -97.851912 
L 212.255131 -100.204348 
L 213.851302 -102.586254 
L 215.447473 -104.997856 
L 217.043644 -107.439561 
L 218.639815 -109.912117 
L 220.235986 -112.41684 
L 221.832157 -114.95588 
L 223.428328 -117.532514 
L 225.024499 -120.15138 
L 226.620671 -122.818621 
L 228.216842 -125.541862 
L 229.813013 -128.329985 
L 231.409184 -131.19267 
L 233.005355 -134.139708 
L 234.601526 -137.18014 
L 236.197697 -140.321283 
L 237.793868 -143.56776 
L 239.390039 -146.920646 
L 240.98621 -150.376844 
L 242.582381 -153.928788 
L 244.178553 -157.564539 
L 245.774724 -161.26826 
L 247.370895 -165.021062 
L 248.967066 -168.802105 
L 250.563237 -172.589839 
L 252.159408 -176.363231 
L 253.755579 -180.102843 
L 255.35175 -183.791621 
L 256.947921 -187.41533 
L 258.544092 -190.962595 
L 260.140264 -194.424573 
L 261.736435 -197.794337 
L 263.332606 -201.066083 
L 264.928777 -204.234294 
L 266.524948 -207.292978 
L 268.121119 -210.235095 
L 269.71729 -213.052228 
L 271.313461 -215.734509 
L 272.909632 -218.27078 
L 274.505803 -220.648922 
L 276.101974 -222.856261 
L 277.698146 -224.879968 
L 279.294317 -226.707396 
L 280.890488 -228.326305 
L 282.486659 -229.724973 
L 284.08283 -230.892234 
L 285.679001 -231.817488 
L 287.275172 -232.490747 
L 288.871343 -232.902781 
L 290.467514 -233.045391 
L 292.063685 -232.911834 
L 293.659857 -232.49736 
L 295.256028 -231.799826 
L 296.852199 -230.820317 
L 298.44837 -229.563698 
L 300.044541 -228.039035 
L 301.640712 -226.259826 
L 303.236883 -224.244019 
L 304.833054 -222.013788 
L 306.429225 -219.5951 
L 308.025396 -217.017068 
L 309.621567 -214.311135 
L 311.217739 -211.510118 
L 312.81391 -208.647142 
L 314.410081 -205.754498 
L 316.006252 -202.862468 
L 317.602423 -199.998151 
L 319.198594 -197.184351 
L 320.794765 -194.438584 
L 322.390936 -191.772263 
L 323.987107 -189.190142 
L 325.583278 -186.690065 
L 327.17945 -184.263071 
L 328.775621 -181.893879 
L 330.371792 -179.561733 
L 331.967963 -177.241587 
L 333.564134 -174.905564 
L 335.160305 -172.524598 
L 336.756476 -170.070176 
L 338.352647 -167.516078 
L 339.948818 -164.840012 
L 341.544989 -162.02507 
L 343.141161 -159.060908 
L 344.737332 -155.944608 
L 346.333503 -152.681156 
L 347.929674 -149.283498 
L 349.525845 -145.772155 
L 351.122016 -142.1744 
L 352.718187 -138.522992 
L 354.314358 -134.854535 
L 355.910529 -131.207522 
L 357.5067 -127.620174 
L 359.102871 -124.128202 
L 360.699043 -120.762645 
L 362.295214 -117.547946 
L 363.891385 -114.500417 
L 365.487556 -111.627236 
L 367.083727 -108.926068 
L 368.679898 -106.38537 
L 370.276069 -103.985363 
L 371.87224 -101.699624 
L 373.468411 -99.497168 
L 375.064582 -97.344848 
L 376.660754 -95.209888 
L 378.256925 -93.062321 
L 379.853096 -90.877136 
L 381.449267 -88.635955 
L 383.045438 -86.328102 
L 384.641609 -83.951005 
L 386.23778 -81.509917 
L 387.833951 -79.017014 
L 389.430122 -76.489995 
L 391.026293 -73.950349 
L 392.622464 -71.421463 
L 394.218636 -68.926774 
L 395.814807 -66.488129 
L 397.410978 -64.124493 
L 399.007149 -61.851102 
L 400.60332 -59.679072 
L 402.199491 -57.615465 
L 403.795662 -55.663724 
L 405.391833 -53.824384 
L 406.988004 -52.095922 
L 408.584175 -50.47563 
L 410.180347 -48.960387 
L 411.776518 -47.547263 
L 413.372689 -46.233888 
L 414.96886 -45.018581 
L 416.565031 -43.900272 
L 418.161202 -42.878249 
L 419.757373 -41.95181 
L 421.353544 -41.119885 
L 422.949715 -40.380694 
L 424.545886 -39.731493 
L 426.142057 -39.16843 
L 427.738229 -38.686537 
L 429.3344 -38.279837 
L 430.930571 -37.941544 
L 432.526742 -37.664332 
L 434.122913 -37.440625 
L 435.719084 -37.262894 
L 437.315255 -37.123909 
L 438.911426 -37.01695 
L 440.507597 -36.935959 
L 442.103768 -36.87562 
L 443.69994 -36.831397 
L 445.296111 -36.799513 
L 446.892282 -36.776902 
L 448.488453 -36.761128 
L 448.488453 -36.729688 
L 448.488453 -36.729688 
L 446.892282 -36.729688 
L 445.296111 -36.729688 
L 443.69994 -36.729688 
L 442.103768 -36.729688 
L 440.507597 -36.729688 
L 438.911426 -36.729688 
L 437.315255 -36.729688 
L 435.719084 -36.729688 
L 434.122913 -36.729688 
L 432.526742 -36.729688 
L 430.930571 -36.729688 
L 429.3344 -36.729688 
L 427.738229 -36.729688 
L 426.142057 -36.729688 
L 424.545886 -36.729688 
L 422.949715 -36.729688 
L 421.353544 -36.729688 
L 419.757373 -36.729688 
L 418.161202 -36.729688 
L 416.565031 -36.729688 
L 414.96886 -36.729688 
L 413.372689 -36.729688 
L 411.776518 -36.729688 
L 410.180347 -36.729688 
L 408.584175 -36.729688 
L 406.988004 -36.729688 
L 405.391833 -36.729688 
L 403.795662 -36.729688 
L 402.199491 -36.729688 
L 400.60332 -36.729688 
L 399.007149 -36.729688 
L 397.410978 -36.729688 
L 395.814807 -36.729688 
L 394.218636 -36.729688 
L 392.622464 -36.729688 
L 391.026293 -36.729688 
L 389.430122 -36.729688 
L 387.833951 -36.729688 
L 386.23778 -36.729688 
L 384.641609 -36.729688 
L 383.045438 -36.729688 
L 381.449267 -36.729688 
L 379.853096 -36.729688 
L 378.256925 -36.729688 
L 376.660754 -36.729688 
L 375.064582 -36.729688 
L 373.468411 -36.729688 
L 371.87224 -36.729688 
L 370.276069 -36.729688 
L 368.679898 -36.729688 
L 367.083727 -36.729688 
L 365.487556 -36.729688 
L 363.891385 -36.729688 
L 362.295214 -36.729688 
L 360.699043 -36.729688 
L 359.102871 -36.729688 
L 357.5067 -36.729688 
L 355.910529 -36.729688 
L 354.314358 -36.729688 
L 352.718187 -36.729688 
L 351.122016 -36.729688 
L 349.525845 -36.729688 
L 347.929674 -36.729688 
L 346.333503 -36.729688 
L 344.737332 -36.729688 
L 343.141161 -36.729688 
L 341.544989 -36.729688 
L 339.948818 -36.729688 
L 338.352647 -36.729688 
L 336.756476 -36.729688 
L 335.160305 -36.729688 
L 333.564134 -36.729688 
L 331.967963 -36.729688 
L 330.371792 -36.729688 
L 328.775621 -36.729688 
L 327.17945 -36.729688 
L 325.583278 -36.729688 
L 323.987107 -36.729688 
L 322.390936 -36.729688 
L 320.794765 -36.729688 
L 319.198594 -36.729688 
L 317.602423 -36.729688 
L 316.006252 -36.729688 
L 314.410081 -36.729688 
L 312.81391 -36.729688 
L 311.217739 -36.729688 
L 309.621567 -36.729688 
L 308.025396 -36.729688 
L 306.429225 -36.729688 
L 304.833054 -36.729688 
L 303.236883 -36.729688 
L 301.640712 -36.729688 
L 300.044541 -36.729688 
L 298.44837 -36.729688 
L 296.852199 -36.729688 
L 295.256028 -36.729688 
L 293.659857 -36.729688 
L 292.063685 -36.729688 
L 290.467514 -36.729688 
L 288.871343 -36.729688 
L 287.275172 -36.729688 
L 285.679001 -36.729688 
L 284.08283 -36.729688 
L 282.486659 -36.729688 
L 280.890488 -36.729688 
L 279.294317 -36.729688 
L 277.698146 -36.729688 
L 276.101974 -36.729688 
L 274.505803 -36.729688 
L 272.909632 -36.729688 
L 271.313461 -36.729688 
L 269.71729 -36.729688 
L 268.121119 -36.729688 
L 266.524948 -36.729688 
L 264.928777 -36.729688 
L 263.332606 -36.729688 
L 261.736435 -36.729688 
L 260.140264 -36.729688 
L 258.544092 -36.729688 
L 256.947921 -36.729688 
L 255.35175 -36.729688 
L 253.755579 -36.729688 
L 252.159408 -36.729688 
L 250.563237 -36.729688 
L 248.967066 -36.729688 
L 247.370895 -36.729688 
L 245.774724 -36.729688 
L 244.178553 -36.729688 
L 242.582381 -36.729688 
L 240.98621 -36.729688 
L 239.390039 -36.729688 
L 237.793868 -36.729688 
L 236.197697 -36.729688 
L 234.601526 -36.729688 
L 233.005355 -36.729688 
L 231.409184 -36.729688 
L 229.813013 -36.729688 
L 228.216842 -36.729688 
L 226.620671 -36.729688 
L 225.024499 -36.729688 
L 223.428328 -36.729688 
L 221.832157 -36.729688 
L 220.235986 -36.729688 
L 218.639815 -36.729688 
L 217.043644 -36.729688 
L 215.447473 -36.729688 
L 213.851302 -36.729688 
L 212.255131 -36.729688 
L 210.65896 -36.729688 
L 209.062788 -36.729688 
L 207.466617 -36.729688 
L 205.870446 -36.729688 
L 204.274275 -36.729688 
L 202.678104 -36.729688 
L 201.081933 -36.729688 
L 199.485762 -36.729688 
L 197.889591 -36.729688 
L 196.29342 -36.729688 
L 194.697249 -36.729688 
L 193.101077 -36.729688 
L 191.504906 -36.729688 
L 189.908735 -36.729688 
L 188.312564 -36.729688 
L 186.716393 -36.729688 
L 185.120222 -36.729688 
L 183.524051 -36.729688 
L 181.92788 -36.729688 
L 180.331709 -36.729688 
L 178.735538 -36.729688 
L 177.139367 -36.729688 
L 175.543195 -36.729688 
L 173.947024 -36.729688 
L 172.350853 -36.729688 
L 170.754682 -36.729688 
L 169.158511 -36.729688 
L 167.56234 -36.729688 
L 165.966169 -36.729688 
L 164.369998 -36.729688 
L 162.773827 -36.729688 
L 161.177656 -36.729688 
L 159.581484 -36.729688 
L 157.985313 -36.729688 
L 156.389142 -36.729688 
L 154.792971 -36.729688 
L 153.1968 -36.729688 
L 151.600629 -36.729688 
L 150.004458 -36.729688 
L 148.408287 -36.729688 
L 146.812116 -36.729688 
L 145.215945 -36.729688 
L 143.619774 -36.729688 
L 142.023602 -36.729688 
L 140.427431 -36.729688 
L 138.83126 -36.729688 
L 137.235089 -36.729688 
L 135.638918 -36.729688 
L 134.042747 -36.729688 
L 132.446576 -36.729688 
L 130.850405 -36.729688 
z
" style="stroke: #dd8452; stroke-opacity: 0.2"/>
    </defs>
    <g>
     <use xlink:href="#maa220e0ee8" x="0" y="282.943437" style="fill: #dd8452; fill-opacity: 0.2; stroke: #dd8452; stroke-opacity: 0.2"/>
    </g>
   </g>
   <g id="FillBetweenPolyCollection_2">
    <defs>
     <path id="m3e936c3c25" d="M 405.865957 -36.729688 
L 405.865957 -36.740956 
L 407.737942 -36.74765 
L 409.609927 -36.757683 
L 411.481912 -36.772356 
L 413.353896 -36.79329 
L 415.225881 -36.822426 
L 417.097866 -36.861983 
L 418.969851 -36.914373 
L 420.841836 -36.982057 
L 422.713821 -37.067352 
L 424.585806 -37.172209 
L 426.457791 -37.297973 
L 428.329775 -37.445167 
L 430.20176 -37.613346 
L 432.073745 -37.801044 
L 433.94573 -38.005861 
L 435.817715 -38.224699 
L 437.6897 -38.454133 
L 439.561685 -38.69089 
L 441.433669 -38.932379 
L 443.305654 -39.177193 
L 445.177639 -39.425529 
L 447.049624 -39.679438 
L 448.921609 -39.942874 
L 450.793594 -40.221547 
L 452.665579 -40.522568 
L 454.537564 -40.853988 
L 456.409548 -41.224267 
L 458.281533 -41.641787 
L 460.153518 -42.114457 
L 462.025503 -42.649481 
L 463.897488 -43.253287 
L 465.769473 -43.931587 
L 467.641458 -44.689518 
L 469.513443 -45.531756 
L 471.385427 -46.462529 
L 473.257412 -47.485425 
L 475.129397 -48.602979 
L 477.001382 -49.816029 
L 478.873367 -51.122917 
L 480.745352 -52.518685 
L 482.617337 -53.994429 
L 484.489322 -55.537009 
L 486.361306 -57.12929 
L 488.233291 -58.75102 
L 490.105276 -60.380343 
L 491.977261 -61.995843 
L 493.849246 -63.578873 
L 495.721231 -65.115862 
L 497.593216 -66.600227 
L 499.465201 -68.033592 
L 501.337185 -69.426072 
L 503.20917 -70.795585 
L 505.081155 -72.166291 
L 506.95314 -73.566451 
L 508.825125 -75.026069 
L 510.69711 -76.574736 
L 512.569095 -78.240024 
L 514.44108 -80.046628 
L 516.313064 -82.01631 
L 518.185049 -84.168497 
L 520.057034 -86.52127 
L 521.929019 -89.09241 
L 523.801004 -91.900186 
L 525.672989 -94.963639 
L 527.544974 -98.302273 
L 529.416959 -101.935179 
L 531.288943 -105.879754 
L 533.160928 -110.150245 
L 535.032913 -114.756364 
L 536.904898 -119.70218 
L 538.776883 -124.985408 
L 540.648868 -130.597118 
L 542.520853 -136.521782 
L 544.392837 -142.737503 
L 546.264822 -149.216243 
L 548.136807 -155.923892 
L 550.008792 -162.820059 
L 551.880777 -169.85762 
L 553.752762 -176.98214 
L 555.624747 -184.131413 
L 557.496732 -191.235435 
L 559.368716 -198.217124 
L 561.240701 -204.994019 
L 563.112686 -211.481036 
L 564.984671 -217.594173 
L 566.856656 -223.254838 
L 568.728641 -228.394303 
L 570.600626 -232.957748 
L 572.472611 -236.90735 
L 574.344595 -240.224051 
L 576.21658 -242.907816 
L 578.088565 -244.976458 
L 579.96055 -246.463288 
L 581.832535 -247.413953 
L 583.70452 -247.882889 
L 585.576505 -247.929688 
L 587.44849 -247.615619 
L 589.320474 -247.000376 
L 591.192459 -246.139057 
L 593.064444 -245.07939 
L 594.936429 -243.859248 
L 596.808414 -242.504617 
L 598.680399 -241.02829 
L 600.552384 -239.429591 
L 602.424369 -237.695412 
L 604.296353 -235.802697 
L 606.168338 -233.722265 
L 608.040323 -231.423609 
L 609.912308 -228.880072 
L 611.784293 -226.073613 
L 613.656278 -222.998427 
L 615.528263 -219.662802 
L 617.400248 -216.088911 
L 619.272232 -212.31063 
L 621.144217 -208.369811 
L 623.016202 -204.311755 
L 624.888187 -200.18072 
L 626.760172 -196.01622 
L 628.632157 -191.850646 
L 630.504142 -187.708383 
L 632.376126 -183.606238 
L 634.248111 -179.554749 
L 636.120096 -175.559789 
L 637.992081 -171.623947 
L 639.864066 -167.747336 
L 641.736051 -163.927745 
L 643.608036 -160.160306 
L 645.480021 -156.437002 
L 647.352005 -152.74642 
L 649.22399 -149.074039 
L 651.095975 -145.403202 
L 652.96796 -141.716702 
L 654.839945 -137.998716 
L 656.71193 -134.236756 
L 658.583915 -130.423259 
L 660.4559 -126.556563 
L 662.327884 -122.641126 
L 664.199869 -118.687044 
L 666.071854 -114.70902 
L 667.943839 -110.725051 
L 669.815824 -106.75507 
L 671.687809 -102.819779 
L 673.559794 -98.939772 
L 675.431779 -95.134987 
L 677.303763 -91.424423 
L 679.175748 -87.826013 
L 681.047733 -84.35653 
L 682.919718 -81.03143 
L 684.791703 -77.864577 
L 686.663688 -74.867848 
L 688.535673 -72.05068 
L 690.407658 -69.419627 
L 692.279642 -66.978018 
L 694.151627 -64.725784 
L 696.023612 -62.6595 
L 697.895597 -60.772623 
L 699.767582 -59.055906 
L 701.639567 -57.497923 
L 703.511552 -56.08564 
L 705.383537 -54.804972 
L 707.255521 -53.6413 
L 709.127506 -52.579921 
L 710.999491 -51.60644 
L 712.871476 -50.707122 
L 714.743461 -49.869199 
L 716.615446 -49.081145 
L 718.487431 -48.332908 
L 720.359416 -47.616068 
L 722.2314 -46.923911 
L 724.103385 -46.251397 
L 725.97537 -45.595042 
L 727.847355 -44.952715 
L 729.71934 -44.323409 
L 731.591325 -43.707004 
L 733.46331 -43.104083 
L 735.335294 -42.515806 
L 737.207279 -41.943844 
L 739.079264 -41.390353 
L 740.951249 -40.857962 
L 742.823234 -40.349714 
L 744.695219 -39.868952 
L 746.567204 -39.419129 
L 748.439189 -39.003547 
L 750.311173 -38.625062 
L 752.183158 -38.285796 
L 754.055143 -37.986896 
L 755.927128 -37.728393 
L 757.799113 -37.50916 
L 759.671098 -37.326998 
L 761.543083 -37.178815 
L 763.415068 -37.060873 
L 765.287052 -36.969073 
L 767.159037 -36.899224 
L 769.031022 -36.847287 
L 770.903007 -36.809557 
L 772.774992 -36.782784 
L 774.646977 -36.76423 
L 776.518962 -36.751673 
L 778.390947 -36.743376 
L 778.390947 -36.729688 
L 778.390947 -36.729688 
L 776.518962 -36.729688 
L 774.646977 -36.729688 
L 772.774992 -36.729688 
L 770.903007 -36.729688 
L 769.031022 -36.729688 
L 767.159037 -36.729688 
L 765.287052 -36.729688 
L 763.415068 -36.729688 
L 761.543083 -36.729688 
L 759.671098 -36.729688 
L 757.799113 -36.729688 
L 755.927128 -36.729688 
L 754.055143 -36.729688 
L 752.183158 -36.729688 
L 750.311173 -36.729688 
L 748.439189 -36.729688 
L 746.567204 -36.729688 
L 744.695219 -36.729688 
L 742.823234 -36.729688 
L 740.951249 -36.729688 
L 739.079264 -36.729688 
L 737.207279 -36.729688 
L 735.335294 -36.729688 
L 733.46331 -36.729688 
L 731.591325 -36.729688 
L 729.71934 -36.729688 
L 727.847355 -36.729688 
L 725.97537 -36.729688 
L 724.103385 -36.729688 
L 722.2314 -36.729688 
L 720.359416 -36.729688 
L 718.487431 -36.729688 
L 716.615446 -36.729688 
L 714.743461 -36.729688 
L 712.871476 -36.729688 
L 710.999491 -36.729688 
L 709.127506 -36.729688 
L 707.255521 -36.729688 
L 705.383537 -36.729688 
L 703.511552 -36.729688 
L 701.639567 -36.729688 
L 699.767582 -36.729688 
L 697.895597 -36.729688 
L 696.023612 -36.729688 
L 694.151627 -36.729688 
L 692.279642 -36.729688 
L 690.407658 -36.729688 
L 688.535673 -36.729688 
L 686.663688 -36.729688 
L 684.791703 -36.729688 
L 682.919718 -36.729688 
L 681.047733 -36.729688 
L 679.175748 -36.729688 
L 677.303763 -36.729688 
L 675.431779 -36.729688 
L 673.559794 -36.729688 
L 671.687809 -36.729688 
L 669.815824 -36.729688 
L 667.943839 -36.729688 
L 666.071854 -36.729688 
L 664.199869 -36.729688 
L 662.327884 -36.729688 
L 660.4559 -36.729688 
L 658.583915 -36.729688 
L 656.71193 -36.729688 
L 654.839945 -36.729688 
L 652.96796 -36.729688 
L 651.095975 -36.729688 
L 649.22399 -36.729688 
L 647.352005 -36.729688 
L 645.480021 -36.729688 
L 643.608036 -36.729688 
L 641.736051 -36.729688 
L 639.864066 -36.729688 
L 637.992081 -36.729688 
L 636.120096 -36.729688 
L 634.248111 -36.729688 
L 632.376126 -36.729688 
L 630.504142 -36.729688 
L 628.632157 -36.729688 
L 626.760172 -36.729688 
L 624.888187 -36.729688 
L 623.016202 -36.729688 
L 621.144217 -36.729688 
L 619.272232 -36.729688 
L 617.400248 -36.729688 
L 615.528263 -36.729688 
L 613.656278 -36.729688 
L 611.784293 -36.729688 
L 609.912308 -36.729688 
L 608.040323 -36.729688 
L 606.168338 -36.729688 
L 604.296353 -36.729688 
L 602.424369 -36.729688 
L 600.552384 -36.729688 
L 598.680399 -36.729688 
L 596.808414 -36.729688 
L 594.936429 -36.729688 
L 593.064444 -36.729688 
L 591.192459 -36.729688 
L 589.320474 -36.729688 
L 587.44849 -36.729688 
L 585.576505 -36.729688 
L 583.70452 -36.729688 
L 581.832535 -36.729688 
L 579.96055 -36.729688 
L 578.088565 -36.729688 
L 576.21658 -36.729688 
L 574.344595 -36.729688 
L 572.472611 -36.729688 
L 570.600626 -36.729688 
L 568.728641 -36.729688 
L 566.856656 -36.729688 
L 564.984671 -36.729688 
L 563.112686 -36.729688 
L 561.240701 -36.729688 
L 559.368716 -36.729688 
L 557.496732 -36.729688 
L 555.624747 -36.729688 
L 553.752762 -36.729688 
L 551.880777 -36.729688 
L 550.008792 -36.729688 
L 548.136807 -36.729688 
L 546.264822 -36.729688 
L 544.392837 -36.729688 
L 542.520853 -36.729688 
L 540.648868 -36.729688 
L 538.776883 -36.729688 
L 536.904898 -36.729688 
L 535.032913 -36.729688 
L 533.160928 -36.729688 
L 531.288943 -36.729688 
L 529.416959 -36.729688 
L 527.544974 -36.729688 
L 525.672989 -36.729688 
L 523.801004 -36.729688 
L 521.929019 -36.729688 
L 520.057034 -36.729688 
L 518.185049 -36.729688 
L 516.313064 -36.729688 
L 514.44108 -36.729688 
L 512.569095 -36.729688 
L 510.69711 -36.729688 
L 508.825125 -36.729688 
L 506.95314 -36.729688 
L 505.081155 -36.729688 
L 503.20917 -36.729688 
L 501.337185 -36.729688 
L 499.465201 -36.729688 
L 497.593216 -36.729688 
L 495.721231 -36.729688 
L 493.849246 -36.729688 
L 491.977261 -36.729688 
L 490.105276 -36.729688 
L 488.233291 -36.729688 
L 486.361306 -36.729688 
L 484.489322 -36.729688 
L 482.617337 -36.729688 
L 480.745352 -36.729688 
L 478.873367 -36.729688 
L 477.001382 -36.729688 
L 475.129397 -36.729688 
L 473.257412 -36.729688 
L 471.385427 -36.729688 
L 469.513443 -36.729688 
L 467.641458 -36.729688 
L 465.769473 -36.729688 
L 463.897488 -36.729688 
L 462.025503 -36.729688 
L 460.153518 -36.729688 
L 458.281533 -36.729688 
L 456.409548 -36.729688 
L 454.537564 -36.729688 
L 452.665579 -36.729688 
L 450.793594 -36.729688 
L 448.921609 -36.729688 
L 447.049624 -36.729688 
L 445.177639 -36.729688 
L 443.305654 -36.729688 
L 441.433669 -36.729688 
L 439.561685 -36.729688 
L 437.6897 -36.729688 
L 435.817715 -36.729688 
L 433.94573 -36.729688 
L 432.073745 -36.729688 
L 430.20176 -36.729688 
L 428.329775 -36.729688 
L 426.457791 -36.729688 
L 424.585806 -36.729688 
L 422.713821 -36.729688 
L 420.841836 -36.729688 
L 418.969851 -36.729688 
L 417.097866 -36.729688 
L 415.225881 -36.729688 
L 413.353896 -36.729688 
L 411.481912 -36.729688 
L 409.609927 -36.729688 
L 407.737942 -36.729688 
L 405.865957 -36.729688 
z
" style="stroke: #4c72b0; stroke-opacity: 0.2"/>
    </defs>
    <g>
     <use xlink:href="#m3e936c3c25" x="0" y="282.943437" style="fill: #4c72b0; fill-opacity: 0.2; stroke: #4c72b0; stroke-opacity: 0.2"/>
    </g>
   </g>
   <g id="FillBetweenPolyCollection_3">
    <defs>
     <path id="mc2e9d662f9" d="M 130.850405 -36.758235 
L 130.850405 -36.729688 
L 132.446576 -36.729688 
L 134.042747 -36.729688 
L 135.638918 -36.729688 
L 137.235089 -36.729688 
L 138.83126 -36.729688 
L 140.427431 -36.729688 
L 142.023602 -36.729688 
L 143.619774 -36.729688 
L 145.215945 -36.729688 
L 146.812116 -36.729688 
L 148.408287 -36.729688 
L 150.004458 -36.729688 
L 151.600629 -36.729688 
L 153.1968 -36.729688 
L 154.792971 -36.729688 
L 156.389142 -36.729688 
L 157.985313 -36.729688 
L 159.581484 -36.729688 
L 161.177656 -36.729688 
L 162.773827 -36.729688 
L 164.369998 -36.729688 
L 165.966169 -36.729688 
L 167.56234 -36.729688 
L 169.158511 -36.729688 
L 170.754682 -36.729688 
L 172.350853 -36.729688 
L 173.947024 -36.729688 
L 175.543195 -36.729688 
L 177.139367 -36.729688 
L 178.735538 -36.729688 
L 180.331709 -36.729688 
L 181.92788 -36.729688 
L 183.524051 -36.729688 
L 185.120222 -36.729688 
L 186.716393 -36.729688 
L 188.312564 -36.729688 
L 189.908735 -36.729688 
L 191.504906 -36.729688 
L 193.101077 -36.729688 
L 194.697249 -36.729688 
L 196.29342 -36.729688 
L 197.889591 -36.729688 
L 199.485762 -36.729688 
L 201.081933 -36.729688 
L 202.678104 -36.729688 
L 204.274275 -36.729688 
L 205.870446 -36.729688 
L 207.466617 -36.729688 
L 209.062788 -36.729688 
L 210.65896 -36.729688 
L 212.255131 -36.729688 
L 213.851302 -36.729688 
L 215.447473 -36.729688 
L 217.043644 -36.729688 
L 218.639815 -36.729688 
L 220.235986 -36.729688 
L 221.832157 -36.729688 
L 223.428328 -36.729688 
L 225.024499 -36.729688 
L 226.620671 -36.729688 
L 228.216842 -36.729688 
L 229.813013 -36.729688 
L 231.409184 -36.729688 
L 233.005355 -36.729688 
L 234.601526 -36.729688 
L 236.197697 -36.729688 
L 237.793868 -36.729688 
L 239.390039 -36.729688 
L 240.98621 -36.729688 
L 242.582381 -36.729688 
L 244.178553 -36.729688 
L 245.774724 -36.729688 
L 247.370895 -36.729688 
L 248.967066 -36.729688 
L 250.563237 -36.729688 
L 252.159408 -36.729688 
L 253.755579 -36.729688 
L 255.35175 -36.729688 
L 256.947921 -36.729688 
L 257.496487 -36.729688 
L 257.496487 -188.628646 
L 257.496487 -188.628646 
L 256.947921 -187.41533 
L 255.35175 -183.791621 
L 253.755579 -180.102843 
L 252.159408 -176.363231 
L 250.563237 -172.589839 
L 248.967066 -168.802105 
L 247.370895 -165.021062 
L 245.774724 -161.26826 
L 244.178553 -157.564539 
L 242.582381 -153.928788 
L 240.98621 -150.376844 
L 239.390039 -146.920646 
L 237.793868 -143.56776 
L 236.197697 -140.321283 
L 234.601526 -137.18014 
L 233.005355 -134.139708 
L 231.409184 -131.19267 
L 229.813013 -128.329985 
L 228.216842 -125.541862 
L 226.620671 -122.818621 
L 225.024499 -120.15138 
L 223.428328 -117.532514 
L 221.832157 -114.95588 
L 220.235986 -112.41684 
L 218.639815 -109.912117 
L 217.043644 -107.439561 
L 215.447473 -104.997856 
L 213.851302 -102.586254 
L 212.255131 -100.204348 
L 210.65896 -97.851912 
L 209.062788 -95.528822 
L 207.466617 -93.23503 
L 205.870446 -90.970599 
L 204.274275 -88.735754 
L 202.678104 -86.530945 
L 201.081933 -84.356894 
L 199.485762 -82.214619 
L 197.889591 -80.105417 
L 196.29342 -78.030809 
L 194.697249 -75.992442 
L 193.101077 -73.991963 
L 191.504906 -72.030869 
L 189.908735 -70.110354 
L 188.312564 -68.231183 
L 186.716393 -66.393598 
L 185.120222 -64.597298 
L 183.524051 -62.841503 
L 181.92788 -61.125103 
L 180.331709 -59.4469 
L 178.735538 -57.80591 
L 177.139367 -56.201704 
L 175.543195 -54.634741 
L 173.947024 -53.106644 
L 172.350853 -51.620376 
L 170.754682 -50.180285 
L 169.158511 -48.791989 
L 167.56234 -47.46211 
L 165.966169 -46.197872 
L 164.369998 -45.006607 
L 162.773827 -43.895209 
L 161.177656 -42.869606 
L 159.581484 -41.934293 
L 157.985313 -41.091983 
L 156.389142 -40.343395 
L 154.792971 -39.687203 
L 153.1968 -39.120132 
L 151.600629 -38.637187 
L 150.004458 -38.231982 
L 148.408287 -37.897128 
L 146.812116 -37.624638 
L 145.215945 -37.406322 
L 143.619774 -37.234136 
L 142.023602 -37.100463 
L 140.427431 -36.998327 
L 138.83126 -36.921525 
L 137.235089 -36.864691 
L 135.638918 -36.823305 
L 134.042747 -36.79365 
L 132.446576 -36.772741 
L 130.850405 -36.758235 
z
"/>
    </defs>
    <g>
     <use xlink:href="#mc2e9d662f9" x="0" y="282.943437" style="fill: #dd8452; fill-opacity: 0.3"/>
    </g>
   </g>
   <g id="line2d_30">
    <path d="M 130.850405 246.185202 
L 138.83126 246.021913 
L 143.619774 245.709302 
L 146.812116 245.318799 
L 150.004458 244.711455 
L 153.1968 243.823306 
L 156.389142 242.600042 
L 159.581484 241.009145 
L 162.773827 239.048228 
L 165.966169 236.745565 
L 169.158511 234.151448 
L 172.350853 231.323061 
L 177.139367 226.741734 
L 181.92788 221.818334 
L 186.716393 216.54984 
L 191.504906 210.912569 
L 196.29342 204.912628 
L 201.081933 198.586544 
L 207.466617 189.708407 
L 213.851302 180.357184 
L 220.235986 170.526598 
L 225.024499 162.792057 
L 229.813013 154.613452 
L 233.005355 148.803729 
L 236.197697 142.622154 
L 239.390039 136.022791 
L 242.582381 129.014649 
L 247.370895 117.922376 
L 255.35175 99.151817 
L 260.140264 88.518865 
L 263.332606 81.877355 
L 266.524948 75.65046 
L 269.71729 69.891209 
L 272.909632 64.672658 
L 276.101974 60.087177 
L 277.698146 58.06347 
L 279.294317 56.236041 
L 280.890488 54.617133 
L 282.486659 53.218465 
L 284.08283 52.051203 
L 285.679001 51.125949 
L 287.275172 50.45269 
L 288.871343 50.040657 
L 290.467514 49.898047 
L 292.063685 50.031604 
L 293.659857 50.446078 
L 295.256028 51.143612 
L 296.852199 52.123121 
L 298.44837 53.37974 
L 300.044541 54.904403 
L 301.640712 56.683611 
L 303.236883 58.699419 
L 306.429225 63.348337 
L 309.621567 68.632303 
L 314.410081 77.188939 
L 319.198594 85.759086 
L 322.390936 91.171174 
L 325.583278 96.253373 
L 330.371792 103.381705 
L 335.160305 110.41884 
L 338.352647 115.42736 
L 341.544989 120.918367 
L 344.737332 126.998829 
L 347.929674 133.65994 
L 352.718187 144.420445 
L 357.5067 155.323263 
L 360.699043 162.180792 
L 363.891385 168.443021 
L 367.083727 174.017369 
L 370.276069 178.958075 
L 373.468411 183.44627 
L 381.449267 194.307483 
L 384.641609 198.992432 
L 389.430122 206.453443 
L 395.814807 216.455309 
L 399.007149 221.092335 
L 402.199491 225.327973 
L 405.391833 229.119054 
L 408.584175 232.467808 
L 411.776518 235.396174 
L 414.96886 237.924856 
L 418.161202 240.065188 
L 421.353544 241.823553 
L 424.545886 243.211945 
L 427.738229 244.2569 
L 430.930571 245.001893 
L 434.122913 245.502812 
L 438.911426 245.926487 
L 445.296111 246.143924 
L 448.488453 246.182309 
L 448.488453 246.182309 
" style="fill: none; stroke: #dd8452; stroke-width: 1.5; stroke-linecap: round"/>
   </g>
   <g id="line2d_31">
    <path d="M 405.865957 246.202482 
L 417.097866 246.081454 
L 424.585806 245.771229 
L 430.20176 245.330091 
L 437.6897 244.489304 
L 450.793594 242.721891 
L 456.409548 241.71917 
L 460.153518 240.828981 
L 463.897488 239.690151 
L 467.641458 238.253919 
L 471.385427 236.480909 
L 475.129397 234.340458 
L 478.873367 231.820521 
L 482.617337 228.949008 
L 488.233291 224.192418 
L 493.849246 219.364564 
L 497.593216 216.34321 
L 503.20917 212.147853 
L 508.825125 207.917369 
L 512.569095 204.703414 
L 514.44108 202.89681 
L 516.313064 200.927127 
L 518.185049 198.77494 
L 520.057034 196.422168 
L 521.929019 193.851028 
L 523.801004 191.043252 
L 525.672989 187.979799 
L 527.544974 184.641164 
L 529.416959 181.008259 
L 531.288943 177.063684 
L 533.160928 172.793193 
L 535.032913 168.187074 
L 536.904898 163.241258 
L 540.648868 152.346319 
L 544.392837 140.205935 
L 548.136807 127.019545 
L 553.752762 105.961297 
L 559.368716 84.726313 
L 563.112686 71.462402 
L 564.984671 65.349264 
L 566.856656 59.6886 
L 568.728641 54.549135 
L 570.600626 49.98569 
L 572.472611 46.036087 
L 574.344595 42.719386 
L 576.21658 40.035622 
L 578.088565 37.966979 
L 579.96055 36.48015 
L 581.832535 35.529484 
L 583.70452 35.060549 
L 585.576505 35.01375 
L 587.44849 35.327818 
L 589.320474 35.943062 
L 591.192459 36.804381 
L 593.064444 37.864047 
L 594.936429 39.084189 
L 598.680399 41.915147 
L 602.424369 45.248025 
L 604.296353 47.14074 
L 606.168338 49.221173 
L 608.040323 51.519828 
L 609.912308 54.063365 
L 611.784293 56.869825 
L 613.656278 59.94501 
L 615.528263 63.280636 
L 619.272232 70.632807 
L 623.016202 78.631683 
L 636.120096 107.383649 
L 641.736051 119.015693 
L 649.22399 133.869399 
L 656.71193 148.706682 
L 662.327884 160.302312 
L 675.431779 187.808451 
L 679.175748 195.117424 
L 682.919718 201.912007 
L 686.663688 208.07559 
L 690.407658 213.52381 
L 692.279642 215.96542 
L 694.151627 218.217653 
L 696.023612 220.283937 
L 697.895597 222.170814 
L 699.767582 223.887531 
L 701.639567 225.445514 
L 705.383537 228.138465 
L 709.127506 230.363517 
L 712.871476 232.236315 
L 716.615446 233.862293 
L 722.2314 236.019527 
L 729.71934 238.620029 
L 737.207279 240.999594 
L 742.823234 242.593723 
L 748.439189 243.939891 
L 752.183158 244.657642 
L 755.927128 245.215044 
L 761.543083 245.764623 
L 767.159037 246.044214 
L 774.646977 246.179208 
L 778.390947 246.200062 
L 778.390947 246.200062 
" style="fill: none; stroke: #4c72b0; stroke-width: 1.5; stroke-linecap: round"/>
   </g>
   <g id="line2d_32">
    <path d="M 257.496487 246.21375 
L 257.496487 24.45375 
" style="fill: none; stroke-dasharray: 0.8,1.32; stroke-dashoffset: 0; stroke: #d3d3d3; stroke-width: 0.8"/>
   </g>
   <g id="line2d_33">
    <path d="M 15.541406 246.21375 
L 852.541406 246.21375 
" style="fill: none; stroke: #808080; stroke-width: 0.5; stroke-linecap: round"/>
   </g>
   <g id="AnnotationBbox_1">
    <g id="text_13">
     <text style="font-weight: 700; font-size: 8px; font-family: 'Arial', 'DejaVu Sans', 'Liberation Sans', 'Bitstream Vera Sans', sans-serif; text-anchor: end; fill: #808080" x="257.496487" y="12.92625" transform="rotate(-0 257.496487 12.92625)">International Poverty Line</text>
    </g>
    <g id="text_14">
     <text style="font-size: 8px; font-family: 'Arial', 'DejaVu Sans', 'Liberation Sans', 'Bitstream Vera Sans', sans-serif; text-anchor: end; fill: #808080" x="257.496487" y="22.86375" transform="rotate(-0 257.496487 22.86375)">$90 per month</text>
    </g>
   </g>
   <g id="legend_1">
    <g id="patch_3">
     <path d="M 692.141406 119.719812 
L 764.705469 119.719812 
Q 766.705469 119.719812 766.705469 117.719812 
L 766.705469 75.80575 
Q 766.705469 73.80575 764.705469 73.80575 
L 692.141406 73.80575 
Q 690.141406 73.80575 690.141406 75.80575 
L 690.141406 117.719812 
Q 690.141406 119.719812 692.141406 119.719812 
z
" style="fill: #ffffff; opacity: 0.8; stroke: #cccccc; stroke-linejoin: miter"/>
    </g>
    <g id="text_15">
     <text style="font-size: 10px; font-family: 'Arial', 'DejaVu Sans', 'Liberation Sans', 'Bitstream Vera Sans', sans-serif; text-anchor: start; fill: #262626" x="710.917188" y="85.085437" transform="rotate(-0 710.917188 85.085437)">Country</text>
    </g>
    <g id="line2d_34">
     <path d="M 694.141406 95.847937 
L 704.141406 95.847937 
L 714.141406 95.847937 
" style="fill: none; stroke: #4c72b0; stroke-width: 1.5; stroke-linecap: round"/>
    </g>
    <g id="text_16">
     <text style="font-size: 10px; font-family: 'Arial', 'DejaVu Sans', 'Liberation Sans', 'Bitstream Vera Sans', sans-serif; text-anchor: start; fill: #262626" x="722.141406" y="99.347937" transform="rotate(-0 722.141406 99.347937)">Denmark</text>
    </g>
    <g id="line2d_35">
     <path d="M 694.141406 110.115125 
L 704.141406 110.115125 
L 714.141406 110.115125 
" style="fill: none; stroke: #dd8452; stroke-width: 1.5; stroke-linecap: round"/>
    </g>
    <g id="text_17">
     <text style="font-size: 10px; font-family: 'Arial', 'DejaVu Sans', 'Liberation Sans', 'Bitstream Vera Sans', sans-serif; text-anchor: start; fill: #262626" x="722.141406" y="113.615125" transform="rotate(-0 722.141406 113.615125)">Syria</text>
    </g>
   </g>
  </g>
 </g>
</svg>
