<?xml version="1.0" encoding="utf-8" standalone="no"?>
<!DOCTYPE svg PUBLIC "-//W3C//DTD SVG 1.1//EN"
  "http://www.w3.org/Graphics/SVG/1.1/DTD/svg11.dtd">
<svg xmlns:xlink="http://www.w3.org/1999/xlink" width="851.4pt" height="265.689687pt" viewBox="0 0 851.4 265.689687" xmlns="http://www.w3.org/2000/svg" version="1.1">
 <metadata>
  <rdf:RDF xmlns:dc="http://purl.org/dc/elements/1.1/" xmlns:cc="http://creativecommons.org/ns#" xmlns:rdf="http://www.w3.org/1999/02/22-rdf-syntax-ns#">
   <cc:Work>
    <dc:type rdf:resource="http://purl.org/dc/dcmitype/StillImage"/>
    <dc:date>2025-04-16T15:07:00.678552</dc:date>
    <dc:format>image/svg+xml</dc:format>
    <dc:creator>
     <cc:Agent>
      <dc:title>Matplotlib v3.10.1, https://matplotlib.org/</dc:title>
     </cc:Agent>
    </dc:creator>
   </cc:Work>
  </rdf:RDF>
 </metadata>
 <defs>
  <style type="text/css">*{stroke-linejoin: round; stroke-linecap: butt}</style>
 </defs>
 <g id="figure_1">
  <g id="patch_1">
   <path d="M 0 265.689687 
L 851.4 265.689687 
L 851.4 0 
L 0 0 
z
" style="fill: #ffffff"/>
  </g>
  <g id="axes_1">
   <g id="patch_2">
    <path d="M 7.2 228.96 
L 844.2 228.96 
L 844.2 7.2 
L 7.2 7.2 
z
" style="fill: #ffffff"/>
   </g>
   <g id="matplotlib.axis_1">
    <g id="xtick_1">
     <g id="line2d_1">
      <defs>
       <path id="m2e53829c4c" d="M 0 0 
L 0 3.5 
" style="stroke: #262626; stroke-width: 0.8"/>
      </defs>
      <g>
       <use xlink:href="#m2e53829c4c" x="198.980033" y="228.96" style="fill: #262626; stroke: #262626; stroke-width: 0.8"/>
      </g>
     </g>
     <g id="text_1">
      <text style="font-size: 10px; font-family: 'Arial', 'DejaVu Sans', 'Liberation Sans', 'Bitstream Vera Sans', sans-serif; text-anchor: middle; fill: #262626" x="198.980033" y="243.117812" transform="rotate(-0 198.980033 243.117812)">1</text>
     </g>
    </g>
    <g id="xtick_2">
     <g id="line2d_2">
      <g>
       <use xlink:href="#m2e53829c4c" x="259.14023" y="228.96" style="fill: #262626; stroke: #262626; stroke-width: 0.8"/>
      </g>
     </g>
     <g id="text_2">
      <text style="font-size: 10px; font-family: 'Arial', 'DejaVu Sans', 'Liberation Sans', 'Bitstream Vera Sans', sans-serif; text-anchor: middle; fill: #262626" x="259.14023" y="243.117812" transform="rotate(-0 259.14023 243.117812)">2</text>
     </g>
    </g>
    <g id="xtick_3">
     <g id="line2d_3">
      <g>
       <use xlink:href="#m2e53829c4c" x="338.667685" y="228.96" style="fill: #262626; stroke: #262626; stroke-width: 0.8"/>
      </g>
     </g>
     <g id="text_3">
      <text style="font-size: 10px; font-family: 'Arial', 'DejaVu Sans', 'Liberation Sans', 'Bitstream Vera Sans', sans-serif; text-anchor: middle; fill: #262626" x="338.667685" y="243.117812" transform="rotate(-0 338.667685 243.117812)">5</text>
     </g>
    </g>
    <g id="xtick_4">
     <g id="line2d_4">
      <g>
       <use xlink:href="#m2e53829c4c" x="398.827882" y="228.96" style="fill: #262626; stroke: #262626; stroke-width: 0.8"/>
      </g>
     </g>
     <g id="text_4">
      <text style="font-size: 10px; font-family: 'Arial', 'DejaVu Sans', 'Liberation Sans', 'Bitstream Vera Sans', sans-serif; text-anchor: middle; fill: #262626" x="398.827882" y="243.117812" transform="rotate(-0 398.827882 243.117812)">10</text>
     </g>
    </g>
    <g id="xtick_5">
     <g id="line2d_5">
      <g>
       <use xlink:href="#m2e53829c4c" x="458.988079" y="228.96" style="fill: #262626; stroke: #262626; stroke-width: 0.8"/>
      </g>
     </g>
     <g id="text_5">
      <text style="font-size: 10px; font-family: 'Arial', 'DejaVu Sans', 'Liberation Sans', 'Bitstream Vera Sans', sans-serif; text-anchor: middle; fill: #262626" x="458.988079" y="243.117812" transform="rotate(-0 458.988079 243.117812)">20</text>
     </g>
    </g>
    <g id="xtick_6">
     <g id="line2d_6">
      <g>
       <use xlink:href="#m2e53829c4c" x="538.515534" y="228.96" style="fill: #262626; stroke: #262626; stroke-width: 0.8"/>
      </g>
     </g>
     <g id="text_6">
      <text style="font-size: 10px; font-family: 'Arial', 'DejaVu Sans', 'Liberation Sans', 'Bitstream Vera Sans', sans-serif; text-anchor: middle; fill: #262626" x="538.515534" y="243.117812" transform="rotate(-0 538.515534 243.117812)">50</text>
     </g>
    </g>
    <g id="xtick_7">
     <g id="line2d_7">
      <g>
       <use xlink:href="#m2e53829c4c" x="598.67573" y="228.96" style="fill: #262626; stroke: #262626; stroke-width: 0.8"/>
      </g>
     </g>
     <g id="text_7">
      <text style="font-size: 10px; font-family: 'Arial', 'DejaVu Sans', 'Liberation Sans', 'Bitstream Vera Sans', sans-serif; text-anchor: middle; fill: #262626" x="598.67573" y="243.117812" transform="rotate(-0 598.67573 243.117812)">100</text>
     </g>
    </g>
    <g id="xtick_8">
     <g id="line2d_8">
      <g>
       <use xlink:href="#m2e53829c4c" x="658.835927" y="228.96" style="fill: #262626; stroke: #262626; stroke-width: 0.8"/>
      </g>
     </g>
     <g id="text_8">
      <text style="font-size: 10px; font-family: 'Arial', 'DejaVu Sans', 'Liberation Sans', 'Bitstream Vera Sans', sans-serif; text-anchor: middle; fill: #262626" x="658.835927" y="243.117812" transform="rotate(-0 658.835927 243.117812)">200</text>
     </g>
    </g>
    <g id="xtick_9">
     <g id="line2d_9">
      <g>
       <use xlink:href="#m2e53829c4c" x="738.363382" y="228.96" style="fill: #262626; stroke: #262626; stroke-width: 0.8"/>
      </g>
     </g>
     <g id="text_9">
      <text style="font-size: 10px; font-family: 'Arial', 'DejaVu Sans', 'Liberation Sans', 'Bitstream Vera Sans', sans-serif; text-anchor: middle; fill: #262626" x="738.363382" y="243.117812" transform="rotate(-0 738.363382 243.117812)">500</text>
     </g>
    </g>
    <g id="xtick_10">
     <g id="line2d_10">
      <g>
       <use xlink:href="#m2e53829c4c" x="798.523579" y="228.96" style="fill: #262626; stroke: #262626; stroke-width: 0.8"/>
      </g>
     </g>
     <g id="text_10">
      <text style="font-size: 10px; font-family: 'Arial', 'DejaVu Sans', 'Liberation Sans', 'Bitstream Vera Sans', sans-serif; text-anchor: middle; fill: #262626" x="798.523579" y="243.117812" transform="rotate(-0 798.523579 243.117812)">1000</text>
     </g>
    </g>
    <g id="xtick_11">
     <g id="line2d_11">
      <defs>
       <path id="m69fe200b75" d="M 0 0 
L 0 2 
" style="stroke: #262626; stroke-width: 0.6"/>
      </defs>
      <g>
       <use xlink:href="#m69fe200b75" x="59.292382" y="228.96" style="fill: #262626; stroke: #262626; stroke-width: 0.6"/>
      </g>
     </g>
    </g>
    <g id="xtick_12">
     <g id="line2d_12">
      <g>
       <use xlink:href="#m69fe200b75" x="94.483841" y="228.96" style="fill: #262626; stroke: #262626; stroke-width: 0.6"/>
      </g>
     </g>
    </g>
    <g id="xtick_13">
     <g id="line2d_13">
      <g>
       <use xlink:href="#m69fe200b75" x="119.452579" y="228.96" style="fill: #262626; stroke: #262626; stroke-width: 0.6"/>
      </g>
     </g>
    </g>
    <g id="xtick_14">
     <g id="line2d_14">
      <g>
       <use xlink:href="#m69fe200b75" x="138.819836" y="228.96" style="fill: #262626; stroke: #262626; stroke-width: 0.6"/>
      </g>
     </g>
    </g>
    <g id="xtick_15">
     <g id="line2d_15">
      <g>
       <use xlink:href="#m69fe200b75" x="154.644038" y="228.96" style="fill: #262626; stroke: #262626; stroke-width: 0.6"/>
      </g>
     </g>
    </g>
    <g id="xtick_16">
     <g id="line2d_16">
      <g>
       <use xlink:href="#m69fe200b75" x="168.02321" y="228.96" style="fill: #262626; stroke: #262626; stroke-width: 0.6"/>
      </g>
     </g>
    </g>
    <g id="xtick_17">
     <g id="line2d_17">
      <g>
       <use xlink:href="#m69fe200b75" x="179.612776" y="228.96" style="fill: #262626; stroke: #262626; stroke-width: 0.6"/>
      </g>
     </g>
    </g>
    <g id="xtick_18">
     <g id="line2d_18">
      <g>
       <use xlink:href="#m69fe200b75" x="189.835497" y="228.96" style="fill: #262626; stroke: #262626; stroke-width: 0.6"/>
      </g>
     </g>
    </g>
    <g id="xtick_19">
     <g id="line2d_19">
      <g>
       <use xlink:href="#m69fe200b75" x="294.33169" y="228.96" style="fill: #262626; stroke: #262626; stroke-width: 0.6"/>
      </g>
     </g>
    </g>
    <g id="xtick_20">
     <g id="line2d_20">
      <g>
       <use xlink:href="#m69fe200b75" x="319.300427" y="228.96" style="fill: #262626; stroke: #262626; stroke-width: 0.6"/>
      </g>
     </g>
    </g>
    <g id="xtick_21">
     <g id="line2d_21">
      <g>
       <use xlink:href="#m69fe200b75" x="354.491887" y="228.96" style="fill: #262626; stroke: #262626; stroke-width: 0.6"/>
      </g>
     </g>
    </g>
    <g id="xtick_22">
     <g id="line2d_22">
      <g>
       <use xlink:href="#m69fe200b75" x="367.871058" y="228.96" style="fill: #262626; stroke: #262626; stroke-width: 0.6"/>
      </g>
     </g>
    </g>
    <g id="xtick_23">
     <g id="line2d_23">
      <g>
       <use xlink:href="#m69fe200b75" x="379.460624" y="228.96" style="fill: #262626; stroke: #262626; stroke-width: 0.6"/>
      </g>
     </g>
    </g>
    <g id="xtick_24">
     <g id="line2d_24">
      <g>
       <use xlink:href="#m69fe200b75" x="389.683346" y="228.96" style="fill: #262626; stroke: #262626; stroke-width: 0.6"/>
      </g>
     </g>
    </g>
    <g id="xtick_25">
     <g id="line2d_25">
      <g>
       <use xlink:href="#m69fe200b75" x="494.179538" y="228.96" style="fill: #262626; stroke: #262626; stroke-width: 0.6"/>
      </g>
     </g>
    </g>
    <g id="xtick_26">
     <g id="line2d_26">
      <g>
       <use xlink:href="#m69fe200b75" x="519.148276" y="228.96" style="fill: #262626; stroke: #262626; stroke-width: 0.6"/>
      </g>
     </g>
    </g>
    <g id="xtick_27">
     <g id="line2d_27">
      <g>
       <use xlink:href="#m69fe200b75" x="554.339735" y="228.96" style="fill: #262626; stroke: #262626; stroke-width: 0.6"/>
      </g>
     </g>
    </g>
    <g id="xtick_28">
     <g id="line2d_28">
      <g>
       <use xlink:href="#m69fe200b75" x="567.718907" y="228.96" style="fill: #262626; stroke: #262626; stroke-width: 0.6"/>
      </g>
     </g>
    </g>
    <g id="xtick_29">
     <g id="line2d_29">
      <g>
       <use xlink:href="#m69fe200b75" x="579.308473" y="228.96" style="fill: #262626; stroke: #262626; stroke-width: 0.6"/>
      </g>
     </g>
    </g>
    <g id="xtick_30">
     <g id="line2d_30">
      <g>
       <use xlink:href="#m69fe200b75" x="589.531194" y="228.96" style="fill: #262626; stroke: #262626; stroke-width: 0.6"/>
      </g>
     </g>
    </g>
    <g id="xtick_31">
     <g id="line2d_31">
      <g>
       <use xlink:href="#m69fe200b75" x="694.027387" y="228.96" style="fill: #262626; stroke: #262626; stroke-width: 0.6"/>
      </g>
     </g>
    </g>
    <g id="xtick_32">
     <g id="line2d_32">
      <g>
       <use xlink:href="#m69fe200b75" x="718.996124" y="228.96" style="fill: #262626; stroke: #262626; stroke-width: 0.6"/>
      </g>
     </g>
    </g>
    <g id="xtick_33">
     <g id="line2d_33">
      <g>
       <use xlink:href="#m69fe200b75" x="754.187584" y="228.96" style="fill: #262626; stroke: #262626; stroke-width: 0.6"/>
      </g>
     </g>
    </g>
    <g id="xtick_34">
     <g id="line2d_34">
      <g>
       <use xlink:href="#m69fe200b75" x="767.566756" y="228.96" style="fill: #262626; stroke: #262626; stroke-width: 0.6"/>
      </g>
     </g>
    </g>
    <g id="xtick_35">
     <g id="line2d_35">
      <g>
       <use xlink:href="#m69fe200b75" x="779.156321" y="228.96" style="fill: #262626; stroke: #262626; stroke-width: 0.6"/>
      </g>
     </g>
    </g>
    <g id="xtick_36">
     <g id="line2d_36">
      <g>
       <use xlink:href="#m69fe200b75" x="789.379043" y="228.96" style="fill: #262626; stroke: #262626; stroke-width: 0.6"/>
      </g>
     </g>
    </g>
    <g id="text_11">
     <text style="font-size: 10px; font-family: 'Arial', 'DejaVu Sans', 'Liberation Sans', 'Bitstream Vera Sans', sans-serif; text-anchor: middle; fill: #262626" x="425.7" y="256.385" transform="rotate(-0 425.7 256.385)">Income or consumption (day)</text>
    </g>
   </g>
   <g id="matplotlib.axis_2"/>
   <g id="FillBetweenPolyCollection_1">
    <defs>
     <path id="mbf92a6a571" d="M 111.327549 -36.738284 
L 111.327549 -36.729688 
L 112.951409 -36.729688 
L 114.575269 -36.729688 
L 116.199129 -36.729688 
L 117.82299 -36.729688 
L 119.44685 -36.729688 
L 121.07071 -36.729688 
L 122.69457 -36.729688 
L 124.31843 -36.729688 
L 125.942291 -36.729688 
L 127.566151 -36.729688 
L 129.190011 -36.729688 
L 130.813871 -36.729688 
L 132.437732 -36.729688 
L 134.061592 -36.729688 
L 135.685452 -36.729688 
L 137.309312 -36.729688 
L 138.933173 -36.729688 
L 140.557033 -36.729688 
L 142.180893 -36.729688 
L 143.804753 -36.729688 
L 145.428613 -36.729688 
L 147.052474 -36.729688 
L 148.676334 -36.729688 
L 150.300194 -36.729688 
L 151.924054 -36.729688 
L 153.547915 -36.729688 
L 155.171775 -36.729688 
L 156.795635 -36.729688 
L 158.419495 -36.729688 
L 160.043356 -36.729688 
L 161.667216 -36.729688 
L 163.291076 -36.729688 
L 164.914936 -36.729688 
L 166.538796 -36.729688 
L 168.162657 -36.729688 
L 169.786517 -36.729688 
L 171.410377 -36.729688 
L 173.034237 -36.729688 
L 174.658098 -36.729688 
L 176.281958 -36.729688 
L 177.905818 -36.729688 
L 179.529678 -36.729688 
L 181.153538 -36.729688 
L 182.777399 -36.729688 
L 184.401259 -36.729688 
L 186.025119 -36.729688 
L 187.648979 -36.729688 
L 189.27284 -36.729688 
L 190.8967 -36.729688 
L 192.52056 -36.729688 
L 194.14442 -36.729688 
L 195.768281 -36.729688 
L 197.392141 -36.729688 
L 199.016001 -36.729688 
L 200.639861 -36.729688 
L 202.263721 -36.729688 
L 203.887582 -36.729688 
L 205.511442 -36.729688 
L 207.135302 -36.729688 
L 208.759162 -36.729688 
L 210.383023 -36.729688 
L 212.006883 -36.729688 
L 213.630743 -36.729688 
L 215.254603 -36.729688 
L 216.878464 -36.729688 
L 218.502324 -36.729688 
L 220.126184 -36.729688 
L 221.750044 -36.729688 
L 223.373904 -36.729688 
L 224.997765 -36.729688 
L 226.621625 -36.729688 
L 228.245485 -36.729688 
L 229.869345 -36.729688 
L 231.493206 -36.729688 
L 233.117066 -36.729688 
L 234.740926 -36.729688 
L 236.364786 -36.729688 
L 237.988646 -36.729688 
L 239.612507 -36.729688 
L 241.236367 -36.729688 
L 242.860227 -36.729688 
L 244.484087 -36.729688 
L 246.107948 -36.729688 
L 247.731808 -36.729688 
L 249.355668 -36.729688 
L 250.979528 -36.729688 
L 252.603389 -36.729688 
L 254.227249 -36.729688 
L 255.851109 -36.729688 
L 257.474969 -36.729688 
L 259.098829 -36.729688 
L 260.72269 -36.729688 
L 262.34655 -36.729688 
L 263.97041 -36.729688 
L 265.59427 -36.729688 
L 267.218131 -36.729688 
L 268.841991 -36.729688 
L 270.465851 -36.729688 
L 272.089711 -36.729688 
L 273.713571 -36.729688 
L 275.337432 -36.729688 
L 276.961292 -36.729688 
L 278.585152 -36.729688 
L 280.209012 -36.729688 
L 281.832873 -36.729688 
L 283.456733 -36.729688 
L 285.080593 -36.729688 
L 286.704453 -36.729688 
L 288.328314 -36.729688 
L 289.952174 -36.729688 
L 291.576034 -36.729688 
L 293.199894 -36.729688 
L 294.823754 -36.729688 
L 296.447615 -36.729688 
L 298.071475 -36.729688 
L 299.695335 -36.729688 
L 301.319195 -36.729688 
L 302.943056 -36.729688 
L 304.566916 -36.729688 
L 306.190776 -36.729688 
L 307.814636 -36.729688 
L 309.438497 -36.729688 
L 311.062357 -36.729688 
L 312.686217 -36.729688 
L 314.310077 -36.729688 
L 315.933937 -36.729688 
L 317.557798 -36.729688 
L 319.181658 -36.729688 
L 320.805518 -36.729688 
L 322.429378 -36.729688 
L 324.053239 -36.729688 
L 325.677099 -36.729688 
L 327.300959 -36.729688 
L 328.924819 -36.729688 
L 330.548679 -36.729688 
L 332.17254 -36.729688 
L 333.7964 -36.729688 
L 335.42026 -36.729688 
L 337.04412 -36.729688 
L 338.667981 -36.729688 
L 340.291841 -36.729688 
L 341.915701 -36.729688 
L 343.539561 -36.729688 
L 345.163422 -36.729688 
L 346.787282 -36.729688 
L 348.411142 -36.729688 
L 350.035002 -36.729688 
L 351.658862 -36.729688 
L 353.282723 -36.729688 
L 354.906583 -36.729688 
L 356.530443 -36.729688 
L 358.154303 -36.729688 
L 359.778164 -36.729688 
L 361.402024 -36.729688 
L 363.025884 -36.729688 
L 364.649744 -36.729688 
L 366.273605 -36.729688 
L 367.897465 -36.729688 
L 369.521325 -36.729688 
L 371.145185 -36.729688 
L 372.769045 -36.729688 
L 374.392906 -36.729688 
L 376.016766 -36.729688 
L 377.640626 -36.729688 
L 379.264486 -36.729688 
L 380.888347 -36.729688 
L 382.512207 -36.729688 
L 384.136067 -36.729688 
L 385.759927 -36.729688 
L 387.383787 -36.729688 
L 389.007648 -36.729688 
L 390.631508 -36.729688 
L 392.255368 -36.729688 
L 393.879228 -36.729688 
L 395.503089 -36.729688 
L 397.126949 -36.729688 
L 398.750809 -36.729688 
L 400.374669 -36.729688 
L 401.99853 -36.729688 
L 403.62239 -36.729688 
L 405.24625 -36.729688 
L 406.87011 -36.729688 
L 408.49397 -36.729688 
L 410.117831 -36.729688 
L 411.741691 -36.729688 
L 413.365551 -36.729688 
L 414.989411 -36.729688 
L 416.613272 -36.729688 
L 418.237132 -36.729688 
L 419.860992 -36.729688 
L 421.484852 -36.729688 
L 423.108712 -36.729688 
L 424.732573 -36.729688 
L 426.356433 -36.729688 
L 427.980293 -36.729688 
L 429.604153 -36.729688 
L 431.228014 -36.729688 
L 432.851874 -36.729688 
L 434.475734 -36.729688 
L 434.475734 -36.740046 
L 434.475734 -36.740046 
L 432.851874 -36.74634 
L 431.228014 -36.755917 
L 429.604153 -36.770184 
L 427.980293 -36.790999 
L 426.356433 -36.820755 
L 424.732573 -36.862459 
L 423.108712 -36.919796 
L 421.484852 -36.997166 
L 419.860992 -37.099698 
L 418.237132 -37.233211 
L 416.613272 -37.404134 
L 414.989411 -37.619359 
L 413.365551 -37.88602 
L 411.741691 -38.211202 
L 410.117831 -38.601569 
L 408.49397 -39.062924 
L 406.87011 -39.599717 
L 405.24625 -40.21455 
L 403.62239 -40.90772 
L 401.99853 -41.67687 
L 400.374669 -42.516828 
L 398.750809 -43.419693 
L 397.126949 -44.375201 
L 395.503089 -45.371412 
L 393.879228 -46.39566 
L 392.255368 -47.435722 
L 390.631508 -48.481107 
L 389.007648 -49.524335 
L 387.383787 -50.562124 
L 385.759927 -51.596348 
L 384.136067 -52.634698 
L 382.512207 -53.690964 
L 380.888347 -54.784891 
L 379.264486 -55.94153 
L 377.640626 -57.190055 
L 376.016766 -58.562022 
L 374.392906 -60.089073 
L 372.769045 -61.800202 
L 371.145185 -63.718753 
L 369.521325 -65.859464 
L 367.897465 -68.225945 
L 366.273605 -70.809003 
L 364.649744 -73.586242 
L 363.025884 -76.523197 
L 361.402024 -79.576133 
L 359.778164 -82.696323 
L 358.154303 -85.835421 
L 356.530443 -88.951266 
L 354.906583 -92.013353 
L 353.282723 -95.00714 
L 351.658862 -97.936498 
L 350.035002 -100.823844 
L 348.411142 -103.707796 
L 346.787282 -106.63859 
L 345.163422 -109.6718 
L 343.539561 -112.861208 
L 341.915701 -116.251759 
L 340.291841 -119.873563 
L 338.667981 -123.737735 
L 337.04412 -127.834577 
L 335.42026 -132.134309 
L 333.7964 -136.590141 
L 332.17254 -141.143215 
L 330.548679 -145.728711 
L 328.924819 -150.282288 
L 327.300959 -154.746085 
L 325.677099 -159.073615 
L 324.053239 -163.233099 
L 322.429378 -167.20903 
L 320.805518 -171.00198 
L 319.181658 -174.626862 
L 317.557798 -178.109993 
L 315.933937 -181.485356 
L 314.310077 -184.79049 
L 312.686217 -188.062365 
L 311.062357 -191.333589 
L 309.438497 -194.629169 
L 307.814636 -197.964004 
L 306.190776 -201.341215 
L 304.566916 -204.751346 
L 302.943056 -208.172426 
L 301.319195 -211.570837 
L 299.695335 -214.902911 
L 298.071475 -218.117142 
L 296.447615 -221.156882 
L 294.823754 -223.963371 
L 293.199894 -226.478909 
L 291.576034 -228.649975 
L 289.952174 -230.430039 
L 288.328314 -231.781867 
L 286.704453 -232.679086 
L 285.080593 -233.10691 
L 283.456733 -233.061967 
L 281.832873 -232.551328 
L 280.209012 -231.590906 
L 278.585152 -230.203502 
L 276.961292 -228.416759 
L 275.337432 -226.261277 
L 273.713571 -223.769027 
L 272.089711 -220.972126 
L 270.465851 -217.901923 
L 268.841991 -214.588297 
L 267.218131 -211.059081 
L 265.59427 -207.339561 
L 263.97041 -203.452084 
L 262.34655 -199.415867 
L 260.72269 -195.247134 
L 259.098829 -190.959662 
L 257.474969 -186.565766 
L 255.851109 -182.077598 
L 254.227249 -177.508556 
L 252.603389 -172.874533 
L 250.979528 -168.194706 
L 249.355668 -163.491672 
L 247.731808 -158.790854 
L 246.107948 -154.119241 
L 244.484087 -149.503694 
L 242.860227 -144.969118 
L 241.236367 -140.536829 
L 239.612507 -136.223393 
L 237.988646 -132.040097 
L 236.364786 -127.993064 
L 234.740926 -124.083932 
L 233.117066 -120.310874 
L 231.493206 -116.669729 
L 229.869345 -113.155043 
L 228.245485 -109.760844 
L 226.621625 -106.481099 
L 224.997765 -103.309869 
L 223.373904 -100.241248 
L 221.750044 -97.26921 
L 220.126184 -94.387491 
L 218.502324 -91.589601 
L 216.878464 -88.869021 
L 215.254603 -86.21958 
L 213.630743 -83.635967 
L 212.006883 -81.114282 
L 210.383023 -78.652526 
L 208.759162 -76.250916 
L 207.135302 -73.911952 
L 205.511442 -71.64017 
L 203.887582 -69.441621 
L 202.263721 -67.323105 
L 200.639861 -65.291295 
L 199.016001 -63.351878 
L 197.392141 -61.508847 
L 195.768281 -59.764082 
L 194.14442 -58.117244 
L 192.52056 -56.566027 
L 190.8967 -55.106659 
L 189.27284 -53.734564 
L 187.648979 -52.445037 
L 186.025119 -51.233791 
L 184.401259 -50.097281 
L 182.777399 -49.032773 
L 181.153538 -48.038158 
L 179.529678 -47.111592 
L 177.905818 -46.251073 
L 176.281958 -45.45405 
L 174.658098 -44.717192 
L 173.034237 -44.036339 
L 171.410377 -43.406682 
L 169.786517 -42.823108 
L 168.162657 -42.280658 
L 166.538796 -41.774991 
L 164.914936 -41.302761 
L 163.291076 -40.861838 
L 161.667216 -40.451325 
L 160.043356 -40.071358 
L 158.419495 -39.722739 
L 156.795635 -39.406449 
L 155.171775 -39.123138 
L 153.547915 -38.872684 
L 151.924054 -38.65388 
L 150.300194 -38.464321 
L 148.676334 -38.300491 
L 147.052474 -38.158049 
L 145.428613 -38.032238 
L 143.804753 -37.91837 
L 142.180893 -37.812289 
L 140.557033 -37.710733 
L 138.933173 -37.611568 
L 137.309312 -37.513836 
L 135.685452 -37.417648 
L 134.061592 -37.323951 
L 132.437732 -37.234211 
L 130.813871 -37.15008 
L 129.190011 -37.073096 
L 127.566151 -37.004456 
L 125.942291 -36.94488 
L 124.31843 -36.894565 
L 122.69457 -36.853224 
L 121.07071 -36.820175 
L 119.44685 -36.794467 
L 117.82299 -36.775005 
L 116.199129 -36.760662 
L 114.575269 -36.750371 
L 112.951409 -36.743179 
L 111.327549 -36.738284 
z
" style="stroke: #dd8452"/>
    </defs>
    <g>
     <use xlink:href="#mbf92a6a571" x="0" y="265.689687" style="fill: #dd8452; fill-opacity: 0.25; stroke: #dd8452"/>
    </g>
   </g>
   <g id="FillBetweenPolyCollection_2">
    <defs>
     <path id="m01ab3e0128" d="M 45.245455 -36.737666 
L 45.245455 -36.729688 
L 49.069118 -36.729688 
L 52.892782 -36.729688 
L 56.716446 -36.729688 
L 60.54011 -36.729688 
L 64.363773 -36.729688 
L 68.187437 -36.729688 
L 72.011101 -36.729688 
L 75.834765 -36.729688 
L 79.658429 -36.729688 
L 83.482092 -36.729688 
L 87.305756 -36.729688 
L 91.12942 -36.729688 
L 94.953084 -36.729688 
L 98.776747 -36.729688 
L 102.600411 -36.729688 
L 106.424075 -36.729688 
L 110.247739 -36.729688 
L 114.071402 -36.729688 
L 117.895066 -36.729688 
L 121.71873 -36.729688 
L 125.542394 -36.729688 
L 129.366058 -36.729688 
L 133.189721 -36.729688 
L 137.013385 -36.729688 
L 140.837049 -36.729688 
L 144.660713 -36.729688 
L 148.484376 -36.729688 
L 152.30804 -36.729688 
L 156.131704 -36.729688 
L 159.955368 -36.729688 
L 163.779032 -36.729688 
L 167.602695 -36.729688 
L 171.426359 -36.729688 
L 175.250023 -36.729688 
L 179.073687 -36.729688 
L 182.89735 -36.729688 
L 186.721014 -36.729688 
L 190.544678 -36.729688 
L 194.368342 -36.729688 
L 198.192005 -36.729688 
L 202.015669 -36.729688 
L 205.839333 -36.729688 
L 209.662997 -36.729688 
L 213.486661 -36.729688 
L 217.310324 -36.729688 
L 221.133988 -36.729688 
L 224.957652 -36.729688 
L 228.781316 -36.729688 
L 232.604979 -36.729688 
L 236.428643 -36.729688 
L 240.252307 -36.729688 
L 244.075971 -36.729688 
L 247.899635 -36.729688 
L 251.723298 -36.729688 
L 255.546962 -36.729688 
L 259.370626 -36.729688 
L 263.19429 -36.729688 
L 267.017953 -36.729688 
L 270.841617 -36.729688 
L 274.665281 -36.729688 
L 278.488945 -36.729688 
L 282.312608 -36.729688 
L 286.136272 -36.729688 
L 289.959936 -36.729688 
L 293.7836 -36.729688 
L 297.607264 -36.729688 
L 301.430927 -36.729688 
L 305.254591 -36.729688 
L 309.078255 -36.729688 
L 312.901919 -36.729688 
L 316.725582 -36.729688 
L 320.549246 -36.729688 
L 324.37291 -36.729688 
L 328.196574 -36.729688 
L 332.020238 -36.729688 
L 335.843901 -36.729688 
L 339.667565 -36.729688 
L 343.491229 -36.729688 
L 347.314893 -36.729688 
L 351.138556 -36.729688 
L 354.96222 -36.729688 
L 358.785884 -36.729688 
L 362.609548 -36.729688 
L 366.433212 -36.729688 
L 370.256875 -36.729688 
L 374.080539 -36.729688 
L 377.904203 -36.729688 
L 381.727867 -36.729688 
L 385.55153 -36.729688 
L 389.375194 -36.729688 
L 393.198858 -36.729688 
L 397.022522 -36.729688 
L 400.846185 -36.729688 
L 404.669849 -36.729688 
L 408.493513 -36.729688 
L 412.317177 -36.729688 
L 416.140841 -36.729688 
L 419.964504 -36.729688 
L 423.788168 -36.729688 
L 427.611832 -36.729688 
L 431.435496 -36.729688 
L 435.259159 -36.729688 
L 439.082823 -36.729688 
L 442.906487 -36.729688 
L 446.730151 -36.729688 
L 450.553815 -36.729688 
L 454.377478 -36.729688 
L 458.201142 -36.729688 
L 462.024806 -36.729688 
L 465.84847 -36.729688 
L 469.672133 -36.729688 
L 473.495797 -36.729688 
L 477.319461 -36.729688 
L 481.143125 -36.729688 
L 484.966788 -36.729688 
L 488.790452 -36.729688 
L 492.614116 -36.729688 
L 496.43778 -36.729688 
L 500.261444 -36.729688 
L 504.085107 -36.729688 
L 507.908771 -36.729688 
L 511.732435 -36.729688 
L 515.556099 -36.729688 
L 519.379762 -36.729688 
L 523.203426 -36.729688 
L 527.02709 -36.729688 
L 530.850754 -36.729688 
L 534.674418 -36.729688 
L 538.498081 -36.729688 
L 542.321745 -36.729688 
L 546.145409 -36.729688 
L 549.969073 -36.729688 
L 553.792736 -36.729688 
L 557.6164 -36.729688 
L 561.440064 -36.729688 
L 565.263728 -36.729688 
L 569.087392 -36.729688 
L 572.911055 -36.729688 
L 576.734719 -36.729688 
L 580.558383 -36.729688 
L 584.382047 -36.729688 
L 588.20571 -36.729688 
L 592.029374 -36.729688 
L 595.853038 -36.729688 
L 599.676702 -36.729688 
L 603.500365 -36.729688 
L 607.324029 -36.729688 
L 611.147693 -36.729688 
L 614.971357 -36.729688 
L 618.795021 -36.729688 
L 622.618684 -36.729688 
L 626.442348 -36.729688 
L 630.266012 -36.729688 
L 634.089676 -36.729688 
L 637.913339 -36.729688 
L 641.737003 -36.729688 
L 645.560667 -36.729688 
L 649.384331 -36.729688 
L 653.207995 -36.729688 
L 657.031658 -36.729688 
L 660.855322 -36.729688 
L 664.678986 -36.729688 
L 668.50265 -36.729688 
L 672.326313 -36.729688 
L 676.149977 -36.729688 
L 679.973641 -36.729688 
L 683.797305 -36.729688 
L 687.620968 -36.729688 
L 691.444632 -36.729688 
L 695.268296 -36.729688 
L 699.09196 -36.729688 
L 702.915624 -36.729688 
L 706.739287 -36.729688 
L 710.562951 -36.729688 
L 714.386615 -36.729688 
L 718.210279 -36.729688 
L 722.033942 -36.729688 
L 725.857606 -36.729688 
L 729.68127 -36.729688 
L 733.504934 -36.729688 
L 737.328598 -36.729688 
L 741.152261 -36.729688 
L 744.975925 -36.729688 
L 748.799589 -36.729688 
L 752.623253 -36.729688 
L 756.446916 -36.729688 
L 760.27058 -36.729688 
L 764.094244 -36.729688 
L 767.917908 -36.729688 
L 771.741571 -36.729688 
L 775.565235 -36.729688 
L 779.388899 -36.729688 
L 783.212563 -36.729688 
L 787.036227 -36.729688 
L 790.85989 -36.729688 
L 794.683554 -36.729688 
L 798.507218 -36.729688 
L 802.330882 -36.729688 
L 806.154545 -36.729688 
L 806.154545 -36.737666 
L 806.154545 -36.737666 
L 802.330882 -36.750426 
L 798.507218 -36.77779 
L 794.683554 -36.82926 
L 790.85989 -36.913631 
L 787.036227 -37.03294 
L 783.212563 -37.175861 
L 779.388899 -37.315562 
L 775.565235 -37.416396 
L 771.741571 -37.448539 
L 767.917908 -37.402954 
L 764.094244 -37.297307 
L 760.27058 -37.169111 
L 756.446916 -37.060939 
L 752.623253 -37.006289 
L 748.799589 -37.021305 
L 744.975925 -37.102074 
L 741.152261 -37.225768 
L 737.328598 -37.356486 
L 733.504934 -37.45787 
L 729.68127 -37.510451 
L 725.857606 -37.525187 
L 722.033942 -37.543098 
L 718.210279 -37.617717 
L 714.386615 -37.788341 
L 710.562951 -38.059069 
L 706.739287 -38.39611 
L 702.915624 -38.74508 
L 699.09196 -39.058087 
L 695.268296 -39.315522 
L 691.444632 -39.532789 
L 687.620968 -39.752598 
L 683.797305 -40.030376 
L 679.973641 -40.419698 
L 676.149977 -40.960296 
L 672.326313 -41.66921 
L 668.50265 -42.53763 
L 664.678986 -43.537998 
L 660.855322 -44.643134 
L 657.031658 -45.851168 
L 653.207995 -47.203596 
L 649.384331 -48.786977 
L 645.560667 -50.720528 
L 641.737003 -53.140128 
L 637.913339 -56.184302 
L 634.089676 -59.976723 
L 630.266012 -64.600335 
L 626.442348 -70.074973 
L 622.618684 -76.362499 
L 618.795021 -83.40663 
L 614.971357 -91.176343 
L 611.147693 -99.664126 
L 607.324029 -108.825804 
L 603.500365 -118.514448 
L 599.676702 -128.489739 
L 595.853038 -138.532071 
L 592.029374 -148.591708 
L 588.20571 -158.848305 
L 584.382047 -169.606175 
L 580.558383 -181.071777 
L 576.734719 -193.150462 
L 572.911055 -205.386485 
L 569.087392 -217.073346 
L 565.263728 -227.462578 
L 561.440064 -235.961711 
L 557.6164 -242.239065 
L 553.792736 -246.209579 
L 549.969073 -247.929688 
L 546.145409 -247.463147 
L 542.321745 -244.786146 
L 538.498081 -239.778332 
L 534.674418 -232.305124 
L 530.850754 -222.351405 
L 527.02709 -210.137423 
L 523.203426 -196.154471 
L 519.379762 -181.103243 
L 515.556099 -165.771932 
L 511.732435 -150.911526 
L 507.908771 -137.141924 
L 504.085107 -124.88831 
L 500.261444 -114.339303 
L 496.43778 -105.435182 
L 492.614116 -97.905458 
L 488.790452 -91.360745 
L 484.966788 -85.41422 
L 481.143125 -79.788141 
L 477.319461 -74.366936 
L 473.495797 -69.18542 
L 469.672133 -64.369914 
L 465.84847 -60.064112 
L 462.024806 -56.3672 
L 458.201142 -53.298885 
L 454.377478 -50.795619 
L 450.553815 -48.735721 
L 446.730151 -46.983248 
L 442.906487 -45.431531 
L 439.082823 -44.026522 
L 435.259159 -42.762697 
L 431.435496 -41.660882 
L 427.611832 -40.743607 
L 423.788168 -40.017273 
L 419.964504 -39.463091 
L 416.140841 -39.037918 
L 412.317177 -38.686888 
L 408.493513 -38.364674 
L 404.669849 -38.054326 
L 400.846185 -37.771455 
L 397.022522 -37.550324 
L 393.198858 -37.41993 
L 389.375194 -37.383655 
L 385.55153 -37.413079 
L 381.727867 -37.458595 
L 377.904203 -37.470873 
L 374.080539 -37.421714 
L 370.256875 -37.313284 
L 366.433212 -37.171936 
L 362.609548 -37.032433 
L 358.785884 -36.923252 
L 354.96222 -36.860527 
L 351.138556 -36.850356 
L 347.314893 -36.893457 
L 343.491229 -36.986153 
L 339.667565 -37.116466 
L 335.843901 -37.259795 
L 332.020238 -37.380742 
L 328.196574 -37.443917 
L 324.37291 -37.429076 
L 320.549246 -37.340898 
L 316.725582 -37.206383 
L 312.901919 -37.061478 
L 309.078255 -36.935779 
L 305.254591 -36.84393 
L 301.430927 -36.786203 
L 297.607264 -36.754638 
L 293.7836 -36.739518 
L 289.959936 -36.733144 
L 286.136272 -36.730772 
L 282.312608 -36.729991 
L 278.488945 -36.729763 
L 274.665281 -36.729704 
L 270.841617 -36.729691 
L 267.017953 -36.729688 
L 263.19429 -36.729688 
L 259.370626 -36.729688 
L 255.546962 -36.729688 
L 251.723298 -36.729688 
L 247.899635 -36.729688 
L 244.075971 -36.729688 
L 240.252307 -36.729688 
L 236.428643 -36.729688 
L 232.604979 -36.729688 
L 228.781316 -36.729688 
L 224.957652 -36.729688 
L 221.133988 -36.729688 
L 217.310324 -36.729688 
L 213.486661 -36.729688 
L 209.662997 -36.729688 
L 205.839333 -36.729688 
L 202.015669 -36.729688 
L 198.192005 -36.729688 
L 194.368342 -36.729688 
L 190.544678 -36.729688 
L 186.721014 -36.729688 
L 182.89735 -36.729688 
L 179.073687 -36.729688 
L 175.250023 -36.729688 
L 171.426359 -36.729688 
L 167.602695 -36.729688 
L 163.779032 -36.729688 
L 159.955368 -36.729688 
L 156.131704 -36.729688 
L 152.30804 -36.729688 
L 148.484376 -36.729688 
L 144.660713 -36.729688 
L 140.837049 -36.729688 
L 137.013385 -36.729689 
L 133.189721 -36.729696 
L 129.366058 -36.729728 
L 125.542394 -36.729859 
L 121.71873 -36.730329 
L 117.895066 -36.731833 
L 114.071402 -36.736091 
L 110.247739 -36.746743 
L 106.424075 -36.770226 
L 102.600411 -36.815679 
L 98.776747 -36.892471 
L 94.953084 -37.004693 
L 91.12942 -37.144301 
L 87.305756 -37.28754 
L 83.482092 -37.399522 
L 79.658429 -37.447463 
L 75.834765 -37.416095 
L 72.011101 -37.315486 
L 68.187437 -37.175844 
L 64.363773 -37.032936 
L 60.54011 -36.913631 
L 56.716446 -36.82926 
L 52.892782 -36.77779 
L 49.069118 -36.750426 
L 45.245455 -36.737666 
z
" style="stroke: #4c72b0"/>
    </defs>
    <g>
     <use xlink:href="#m01ab3e0128" x="0" y="265.689687" style="fill: #4c72b0; fill-opacity: 0.25; stroke: #4c72b0"/>
    </g>
   </g>
   <g id="line2d_37">
    <path d="M 265.417144 228.96 
L 265.417144 7.2 
" style="fill: none; stroke-dasharray: 2.96,1.28; stroke-dashoffset: 0; stroke: #d3d3d3; stroke-width: 0.8"/>
   </g>
   <g id="line2d_38">
    <path d="M 455.375246 228.96 
L 455.375246 7.2 
" style="fill: none; stroke-dasharray: 2.96,1.28; stroke-dashoffset: 0; stroke: #d3d3d3; stroke-width: 0.8"/>
   </g>
   <g id="line2d_39">
    <path d="M 382.131383 228.96 
L 382.131383 7.2 
" style="fill: none; stroke-dasharray: 2.96,1.28; stroke-dashoffset: 0; stroke: #d3d3d3; stroke-width: 0.8"/>
   </g>
   <g id="line2d_40">
    <path d="M 7.2 228.96 
L 844.2 228.96 
" style="fill: none; stroke: #808080; stroke-width: 0.5; stroke-linecap: round"/>
   </g>
   <g id="text_12">
    <text style="font-size: 8px; font-family: 'Arial', 'DejaVu Sans', 'Liberation Sans', 'Bitstream Vera Sans', sans-serif; fill: #808080" transform="translate(271.670894 124.59635) rotate(-90)">International Poverty Line: $2.15</text>
   </g>
   <g id="text_13">
    <text style="font-size: 8px; font-family: 'Arial', 'DejaVu Sans', 'Liberation Sans', 'Bitstream Vera Sans', sans-serif; fill: #808080" transform="translate(461.101496 81.31135) rotate(-90)">World mean: $19.18</text>
   </g>
   <g id="text_14">
    <text style="font-size: 8px; font-family: 'Arial', 'DejaVu Sans', 'Liberation Sans', 'Bitstream Vera Sans', sans-serif; fill: #808080" transform="translate(387.857633 83.08885) rotate(-90)">World median: $8.25</text>
   </g>
   <g id="legend_1">
    <g id="patch_3">
     <path d="M 683.8 102.466062 
L 756.364063 102.466062 
Q 758.364063 102.466062 758.364063 100.466062 
L 758.364063 58.552 
Q 758.364063 56.552 756.364063 56.552 
L 683.8 56.552 
Q 681.8 56.552 681.8 58.552 
L 681.8 100.466062 
Q 681.8 102.466062 683.8 102.466062 
z
" style="fill: #ffffff; opacity: 0.8; stroke: #cccccc; stroke-linejoin: miter"/>
    </g>
    <g id="text_15">
     <text style="font-size: 10px; font-family: 'Arial', 'DejaVu Sans', 'Liberation Sans', 'Bitstream Vera Sans', sans-serif; text-anchor: start; fill: #262626" x="702.575781" y="67.831687" transform="rotate(-0 702.575781 67.831687)">Country</text>
    </g>
    <g id="patch_4">
     <path d="M 685.8 82.094187 
L 705.8 82.094187 
L 705.8 75.094187 
L 685.8 75.094187 
z
" style="fill: #4c72b0; fill-opacity: 0.25; stroke: #4c72b0; stroke-linejoin: miter"/>
    </g>
    <g id="text_16">
     <text style="font-size: 10px; font-family: 'Arial', 'DejaVu Sans', 'Liberation Sans', 'Bitstream Vera Sans', sans-serif; text-anchor: start; fill: #262626" x="713.8" y="82.094187" transform="rotate(-0 713.8 82.094187)">Denmark</text>
    </g>
    <g id="patch_5">
     <path d="M 685.8 96.361375 
L 705.8 96.361375 
L 705.8 89.361375 
L 685.8 89.361375 
z
" style="fill: #dd8452; fill-opacity: 0.25; stroke: #dd8452; stroke-linejoin: miter"/>
    </g>
    <g id="text_17">
     <text style="font-size: 10px; font-family: 'Arial', 'DejaVu Sans', 'Liberation Sans', 'Bitstream Vera Sans', sans-serif; text-anchor: start; fill: #262626" x="713.8" y="96.361375" transform="rotate(-0 713.8 96.361375)">Syria</text>
    </g>
   </g>
  </g>
 </g>
</svg>
