<?xml version="1.0" encoding="utf-8" standalone="no"?>
<!DOCTYPE svg PUBLIC "-//W3C//DTD SVG 1.1//EN"
  "http://www.w3.org/Graphics/SVG/1.1/DTD/svg11.dtd">
<svg xmlns:xlink="http://www.w3.org/1999/xlink" width="862.521875pt" height="265.689687pt" viewBox="0 0 862.521875 265.689687" xmlns="http://www.w3.org/2000/svg" version="1.1">
 <metadata>
  <rdf:RDF xmlns:dc="http://purl.org/dc/elements/1.1/" xmlns:cc="http://creativecommons.org/ns#" xmlns:rdf="http://www.w3.org/1999/02/22-rdf-syntax-ns#">
   <cc:Work>
    <dc:type rdf:resource="http://purl.org/dc/dcmitype/StillImage"/>
    <dc:date>2025-12-05T16:06:53.693771</dc:date>
    <dc:format>image/svg+xml</dc:format>
    <dc:creator>
     <cc:Agent>
      <dc:title>Matplotlib v3.10.1, https://matplotlib.org/</dc:title>
     </cc:Agent>
    </dc:creator>
   </cc:Work>
  </rdf:RDF>
 </metadata>
 <defs>
  <style type="text/css">*{stroke-linejoin: round; stroke-linecap: butt}</style>
 </defs>
 <g id="figure_1">
  <g id="patch_1">
   <path d="M 0 265.689687 
L 862.521875 265.689687 
L 862.521875 0 
L 0 0 
z
" style="fill: #ffffff"/>
  </g>
  <g id="axes_1">
   <g id="patch_2">
    <path d="M 7.2 228.96 
L 844.2 228.96 
L 844.2 7.2 
L 7.2 7.2 
z
" style="fill: #ffffff"/>
   </g>
   <g id="matplotlib.axis_1">
    <g id="xtick_1">
     <g id="line2d_1">
      <defs>
       <path id="m955c7b7669" d="M 0 0 
L 0 3.5 
" style="stroke: #262626; stroke-width: 0.8"/>
      </defs>
      <g>
       <use xlink:href="#m955c7b7669" x="69.512325" y="228.96" style="fill: #262626; stroke: #262626; stroke-width: 0.8"/>
      </g>
     </g>
     <g id="text_1">
      <text style="font-size: 10px; font-family: 'Arial', 'DejaVu Sans', 'Liberation Sans', 'Bitstream Vera Sans', sans-serif; text-anchor: middle; fill: #262626" x="69.512325" y="243.117812" transform="rotate(-0 69.512325 243.117812)">1</text>
     </g>
    </g>
    <g id="xtick_2">
     <g id="line2d_2">
      <g>
       <use xlink:href="#m955c7b7669" x="147.247067" y="228.96" style="fill: #262626; stroke: #262626; stroke-width: 0.8"/>
      </g>
     </g>
     <g id="text_2">
      <text style="font-size: 10px; font-family: 'Arial', 'DejaVu Sans', 'Liberation Sans', 'Bitstream Vera Sans', sans-serif; text-anchor: middle; fill: #262626" x="147.247067" y="243.117812" transform="rotate(-0 147.247067 243.117812)">2</text>
     </g>
    </g>
    <g id="xtick_3">
     <g id="line2d_3">
      <g>
       <use xlink:href="#m955c7b7669" x="250.006808" y="228.96" style="fill: #262626; stroke: #262626; stroke-width: 0.8"/>
      </g>
     </g>
     <g id="text_3">
      <text style="font-size: 10px; font-family: 'Arial', 'DejaVu Sans', 'Liberation Sans', 'Bitstream Vera Sans', sans-serif; text-anchor: middle; fill: #262626" x="250.006808" y="243.117812" transform="rotate(-0 250.006808 243.117812)">5</text>
     </g>
    </g>
    <g id="xtick_4">
     <g id="line2d_4">
      <g>
       <use xlink:href="#m955c7b7669" x="327.74155" y="228.96" style="fill: #262626; stroke: #262626; stroke-width: 0.8"/>
      </g>
     </g>
     <g id="text_4">
      <text style="font-size: 10px; font-family: 'Arial', 'DejaVu Sans', 'Liberation Sans', 'Bitstream Vera Sans', sans-serif; text-anchor: middle; fill: #262626" x="327.74155" y="243.117812" transform="rotate(-0 327.74155 243.117812)">10</text>
     </g>
    </g>
    <g id="xtick_5">
     <g id="line2d_5">
      <g>
       <use xlink:href="#m955c7b7669" x="405.476292" y="228.96" style="fill: #262626; stroke: #262626; stroke-width: 0.8"/>
      </g>
     </g>
     <g id="text_5">
      <text style="font-size: 10px; font-family: 'Arial', 'DejaVu Sans', 'Liberation Sans', 'Bitstream Vera Sans', sans-serif; text-anchor: middle; fill: #262626" x="405.476292" y="243.117812" transform="rotate(-0 405.476292 243.117812)">20</text>
     </g>
    </g>
    <g id="xtick_6">
     <g id="line2d_6">
      <g>
       <use xlink:href="#m955c7b7669" x="508.236033" y="228.96" style="fill: #262626; stroke: #262626; stroke-width: 0.8"/>
      </g>
     </g>
     <g id="text_6">
      <text style="font-size: 10px; font-family: 'Arial', 'DejaVu Sans', 'Liberation Sans', 'Bitstream Vera Sans', sans-serif; text-anchor: middle; fill: #262626" x="508.236033" y="243.117812" transform="rotate(-0 508.236033 243.117812)">50</text>
     </g>
    </g>
    <g id="xtick_7">
     <g id="line2d_7">
      <g>
       <use xlink:href="#m955c7b7669" x="585.970775" y="228.96" style="fill: #262626; stroke: #262626; stroke-width: 0.8"/>
      </g>
     </g>
     <g id="text_7">
      <text style="font-size: 10px; font-family: 'Arial', 'DejaVu Sans', 'Liberation Sans', 'Bitstream Vera Sans', sans-serif; text-anchor: middle; fill: #262626" x="585.970775" y="243.117812" transform="rotate(-0 585.970775 243.117812)">100</text>
     </g>
    </g>
    <g id="xtick_8">
     <g id="line2d_8">
      <g>
       <use xlink:href="#m955c7b7669" x="663.705517" y="228.96" style="fill: #262626; stroke: #262626; stroke-width: 0.8"/>
      </g>
     </g>
     <g id="text_8">
      <text style="font-size: 10px; font-family: 'Arial', 'DejaVu Sans', 'Liberation Sans', 'Bitstream Vera Sans', sans-serif; text-anchor: middle; fill: #262626" x="663.705517" y="243.117812" transform="rotate(-0 663.705517 243.117812)">200</text>
     </g>
    </g>
    <g id="xtick_9">
     <g id="line2d_9">
      <g>
       <use xlink:href="#m955c7b7669" x="766.465258" y="228.96" style="fill: #262626; stroke: #262626; stroke-width: 0.8"/>
      </g>
     </g>
     <g id="text_9">
      <text style="font-size: 10px; font-family: 'Arial', 'DejaVu Sans', 'Liberation Sans', 'Bitstream Vera Sans', sans-serif; text-anchor: middle; fill: #262626" x="766.465258" y="243.117812" transform="rotate(-0 766.465258 243.117812)">500</text>
     </g>
    </g>
    <g id="xtick_10">
     <g id="line2d_10">
      <g>
       <use xlink:href="#m955c7b7669" x="844.2" y="228.96" style="fill: #262626; stroke: #262626; stroke-width: 0.8"/>
      </g>
     </g>
     <g id="text_10">
      <text style="font-size: 10px; font-family: 'Arial', 'DejaVu Sans', 'Liberation Sans', 'Bitstream Vera Sans', sans-serif; text-anchor: middle; fill: #262626" x="844.2" y="243.117812" transform="rotate(-0 844.2 243.117812)">1000</text>
     </g>
    </g>
    <g id="xtick_11">
     <g id="line2d_11">
      <defs>
       <path id="m1e41084fbc" d="M 0 0 
L 0 2 
" style="stroke: #262626; stroke-width: 0.6"/>
      </defs>
      <g>
       <use xlink:href="#m1e41084fbc" x="12.224494" y="228.96" style="fill: #262626; stroke: #262626; stroke-width: 0.6"/>
      </g>
     </g>
    </g>
    <g id="xtick_12">
     <g id="line2d_12">
      <g>
       <use xlink:href="#m1e41084fbc" x="29.512112" y="228.96" style="fill: #262626; stroke: #262626; stroke-width: 0.6"/>
      </g>
     </g>
    </g>
    <g id="xtick_13">
     <g id="line2d_13">
      <g>
       <use xlink:href="#m1e41084fbc" x="44.487327" y="228.96" style="fill: #262626; stroke: #262626; stroke-width: 0.6"/>
      </g>
     </g>
    </g>
    <g id="xtick_14">
     <g id="line2d_14">
      <g>
       <use xlink:href="#m1e41084fbc" x="57.696404" y="228.96" style="fill: #262626; stroke: #262626; stroke-width: 0.6"/>
      </g>
     </g>
    </g>
    <g id="xtick_15">
     <g id="line2d_15">
      <g>
       <use xlink:href="#m1e41084fbc" x="192.718977" y="228.96" style="fill: #262626; stroke: #262626; stroke-width: 0.6"/>
      </g>
     </g>
    </g>
    <g id="xtick_16">
     <g id="line2d_16">
      <g>
       <use xlink:href="#m1e41084fbc" x="224.98181" y="228.96" style="fill: #262626; stroke: #262626; stroke-width: 0.6"/>
      </g>
     </g>
    </g>
    <g id="xtick_17">
     <g id="line2d_17">
      <g>
       <use xlink:href="#m1e41084fbc" x="270.453719" y="228.96" style="fill: #262626; stroke: #262626; stroke-width: 0.6"/>
      </g>
     </g>
    </g>
    <g id="xtick_18">
     <g id="line2d_18">
      <g>
       <use xlink:href="#m1e41084fbc" x="287.741337" y="228.96" style="fill: #262626; stroke: #262626; stroke-width: 0.6"/>
      </g>
     </g>
    </g>
    <g id="xtick_19">
     <g id="line2d_19">
      <g>
       <use xlink:href="#m1e41084fbc" x="302.716552" y="228.96" style="fill: #262626; stroke: #262626; stroke-width: 0.6"/>
      </g>
     </g>
    </g>
    <g id="xtick_20">
     <g id="line2d_20">
      <g>
       <use xlink:href="#m1e41084fbc" x="315.925629" y="228.96" style="fill: #262626; stroke: #262626; stroke-width: 0.6"/>
      </g>
     </g>
    </g>
    <g id="xtick_21">
     <g id="line2d_21">
      <g>
       <use xlink:href="#m1e41084fbc" x="450.948202" y="228.96" style="fill: #262626; stroke: #262626; stroke-width: 0.6"/>
      </g>
     </g>
    </g>
    <g id="xtick_22">
     <g id="line2d_22">
      <g>
       <use xlink:href="#m1e41084fbc" x="483.211035" y="228.96" style="fill: #262626; stroke: #262626; stroke-width: 0.6"/>
      </g>
     </g>
    </g>
    <g id="xtick_23">
     <g id="line2d_23">
      <g>
       <use xlink:href="#m1e41084fbc" x="528.682944" y="228.96" style="fill: #262626; stroke: #262626; stroke-width: 0.6"/>
      </g>
     </g>
    </g>
    <g id="xtick_24">
     <g id="line2d_24">
      <g>
       <use xlink:href="#m1e41084fbc" x="545.970562" y="228.96" style="fill: #262626; stroke: #262626; stroke-width: 0.6"/>
      </g>
     </g>
    </g>
    <g id="xtick_25">
     <g id="line2d_25">
      <g>
       <use xlink:href="#m1e41084fbc" x="560.945777" y="228.96" style="fill: #262626; stroke: #262626; stroke-width: 0.6"/>
      </g>
     </g>
    </g>
    <g id="xtick_26">
     <g id="line2d_26">
      <g>
       <use xlink:href="#m1e41084fbc" x="574.154854" y="228.96" style="fill: #262626; stroke: #262626; stroke-width: 0.6"/>
      </g>
     </g>
    </g>
    <g id="xtick_27">
     <g id="line2d_27">
      <g>
       <use xlink:href="#m1e41084fbc" x="709.177427" y="228.96" style="fill: #262626; stroke: #262626; stroke-width: 0.6"/>
      </g>
     </g>
    </g>
    <g id="xtick_28">
     <g id="line2d_28">
      <g>
       <use xlink:href="#m1e41084fbc" x="741.44026" y="228.96" style="fill: #262626; stroke: #262626; stroke-width: 0.6"/>
      </g>
     </g>
    </g>
    <g id="xtick_29">
     <g id="line2d_29">
      <g>
       <use xlink:href="#m1e41084fbc" x="786.912169" y="228.96" style="fill: #262626; stroke: #262626; stroke-width: 0.6"/>
      </g>
     </g>
    </g>
    <g id="xtick_30">
     <g id="line2d_30">
      <g>
       <use xlink:href="#m1e41084fbc" x="804.199787" y="228.96" style="fill: #262626; stroke: #262626; stroke-width: 0.6"/>
      </g>
     </g>
    </g>
    <g id="xtick_31">
     <g id="line2d_31">
      <g>
       <use xlink:href="#m1e41084fbc" x="819.175002" y="228.96" style="fill: #262626; stroke: #262626; stroke-width: 0.6"/>
      </g>
     </g>
    </g>
    <g id="xtick_32">
     <g id="line2d_32">
      <g>
       <use xlink:href="#m1e41084fbc" x="832.384079" y="228.96" style="fill: #262626; stroke: #262626; stroke-width: 0.6"/>
      </g>
     </g>
    </g>
    <g id="text_11">
     <text style="font-size: 10px; font-family: 'Arial', 'DejaVu Sans', 'Liberation Sans', 'Bitstream Vera Sans', sans-serif; text-anchor: middle; fill: #262626" x="425.7" y="256.385" transform="rotate(-0 425.7 256.385)">Income or consumption (day)</text>
    </g>
   </g>
   <g id="matplotlib.axis_2"/>
   <g id="FillBetweenPolyCollection_1">
    <defs>
     <path id="m76a16745d3" d="M 40.527269 -36.761971 
L 40.527269 -36.729688 
L 42.412511 -36.729688 
L 44.297753 -36.729688 
L 46.182994 -36.729688 
L 48.068236 -36.729688 
L 49.953478 -36.729688 
L 51.83872 -36.729688 
L 53.723962 -36.729688 
L 55.609204 -36.729688 
L 57.494445 -36.729688 
L 59.379687 -36.729688 
L 61.264929 -36.729688 
L 63.150171 -36.729688 
L 65.035413 -36.729688 
L 66.920655 -36.729688 
L 68.805896 -36.729688 
L 70.691138 -36.729688 
L 72.57638 -36.729688 
L 74.461622 -36.729688 
L 76.346864 -36.729688 
L 78.232106 -36.729688 
L 80.117347 -36.729688 
L 82.002589 -36.729688 
L 83.887831 -36.729688 
L 85.773073 -36.729688 
L 87.658315 -36.729688 
L 89.543557 -36.729688 
L 91.428798 -36.729688 
L 93.31404 -36.729688 
L 95.199282 -36.729688 
L 97.084524 -36.729688 
L 98.969766 -36.729688 
L 100.855008 -36.729688 
L 102.740249 -36.729688 
L 104.625491 -36.729688 
L 106.510733 -36.729688 
L 108.395975 -36.729688 
L 110.281217 -36.729688 
L 112.166458 -36.729688 
L 114.0517 -36.729688 
L 115.936942 -36.729688 
L 117.822184 -36.729688 
L 119.707426 -36.729688 
L 121.592668 -36.729688 
L 123.477909 -36.729688 
L 125.363151 -36.729688 
L 127.248393 -36.729688 
L 129.133635 -36.729688 
L 131.018877 -36.729688 
L 132.904119 -36.729688 
L 134.78936 -36.729688 
L 136.674602 -36.729688 
L 138.559844 -36.729688 
L 140.445086 -36.729688 
L 142.330328 -36.729688 
L 144.21557 -36.729688 
L 146.100811 -36.729688 
L 147.986053 -36.729688 
L 149.871295 -36.729688 
L 151.756537 -36.729688 
L 153.641779 -36.729688 
L 155.527021 -36.729688 
L 157.412262 -36.729688 
L 159.297504 -36.729688 
L 161.182746 -36.729688 
L 163.067988 -36.729688 
L 164.95323 -36.729688 
L 166.838471 -36.729688 
L 168.723713 -36.729688 
L 170.608955 -36.729688 
L 172.494197 -36.729688 
L 174.379439 -36.729688 
L 176.264681 -36.729688 
L 178.149922 -36.729688 
L 180.035164 -36.729688 
L 181.920406 -36.729688 
L 183.805648 -36.729688 
L 185.69089 -36.729688 
L 187.576132 -36.729688 
L 189.461373 -36.729688 
L 191.346615 -36.729688 
L 193.231857 -36.729688 
L 195.117099 -36.729688 
L 197.002341 -36.729688 
L 198.887583 -36.729688 
L 200.772824 -36.729688 
L 202.658066 -36.729688 
L 204.543308 -36.729688 
L 206.42855 -36.729688 
L 208.313792 -36.729688 
L 210.199034 -36.729688 
L 212.084275 -36.729688 
L 213.969517 -36.729688 
L 215.854759 -36.729688 
L 217.740001 -36.729688 
L 219.625243 -36.729688 
L 221.510485 -36.729688 
L 223.395726 -36.729688 
L 225.280968 -36.729688 
L 227.16621 -36.729688 
L 229.051452 -36.729688 
L 230.936694 -36.729688 
L 232.821935 -36.729688 
L 234.707177 -36.729688 
L 236.592419 -36.729688 
L 238.477661 -36.729688 
L 240.362903 -36.729688 
L 242.248145 -36.729688 
L 244.133386 -36.729688 
L 246.018628 -36.729688 
L 247.90387 -36.729688 
L 249.789112 -36.729688 
L 251.674354 -36.729688 
L 253.559596 -36.729688 
L 255.444837 -36.729688 
L 257.330079 -36.729688 
L 259.215321 -36.729688 
L 261.100563 -36.729688 
L 262.985805 -36.729688 
L 264.871047 -36.729688 
L 266.756288 -36.729688 
L 268.64153 -36.729688 
L 270.526772 -36.729688 
L 272.412014 -36.729688 
L 274.297256 -36.729688 
L 276.182498 -36.729688 
L 278.067739 -36.729688 
L 279.952981 -36.729688 
L 281.838223 -36.729688 
L 283.723465 -36.729688 
L 285.608707 -36.729688 
L 287.493948 -36.729688 
L 289.37919 -36.729688 
L 291.264432 -36.729688 
L 293.149674 -36.729688 
L 295.034916 -36.729688 
L 296.920158 -36.729688 
L 298.805399 -36.729688 
L 300.690641 -36.729688 
L 302.575883 -36.729688 
L 304.461125 -36.729688 
L 306.346367 -36.729688 
L 308.231609 -36.729688 
L 310.11685 -36.729688 
L 312.002092 -36.729688 
L 313.887334 -36.729688 
L 315.772576 -36.729688 
L 317.657818 -36.729688 
L 319.54306 -36.729688 
L 321.428301 -36.729688 
L 323.313543 -36.729688 
L 325.198785 -36.729688 
L 327.084027 -36.729688 
L 328.969269 -36.729688 
L 330.854511 -36.729688 
L 332.739752 -36.729688 
L 334.624994 -36.729688 
L 336.510236 -36.729688 
L 338.395478 -36.729688 
L 340.28072 -36.729688 
L 342.165961 -36.729688 
L 344.051203 -36.729688 
L 345.936445 -36.729688 
L 347.821687 -36.729688 
L 349.706929 -36.729688 
L 351.592171 -36.729688 
L 353.477412 -36.729688 
L 355.362654 -36.729688 
L 357.247896 -36.729688 
L 359.133138 -36.729688 
L 361.01838 -36.729688 
L 362.903622 -36.729688 
L 364.788863 -36.729688 
L 366.674105 -36.729688 
L 368.559347 -36.729688 
L 370.444589 -36.729688 
L 372.329831 -36.729688 
L 374.215073 -36.729688 
L 376.100314 -36.729688 
L 377.985556 -36.729688 
L 379.870798 -36.729688 
L 381.75604 -36.729688 
L 383.641282 -36.729688 
L 385.526524 -36.729688 
L 387.411765 -36.729688 
L 389.297007 -36.729688 
L 391.182249 -36.729688 
L 393.067491 -36.729688 
L 394.952733 -36.729688 
L 396.837975 -36.729688 
L 398.723216 -36.729688 
L 400.608458 -36.729688 
L 402.4937 -36.729688 
L 404.378942 -36.729688 
L 406.264184 -36.729688 
L 408.149425 -36.729688 
L 410.034667 -36.729688 
L 411.919909 -36.729688 
L 413.805151 -36.729688 
L 415.690393 -36.729688 
L 415.690393 -36.744813 
L 415.690393 -36.744813 
L 413.805151 -36.75271 
L 411.919909 -36.764132 
L 410.034667 -36.780349 
L 408.149425 -36.802947 
L 406.264184 -36.833854 
L 404.378942 -36.875343 
L 402.4937 -36.930008 
L 400.608458 -37.000703 
L 398.723216 -37.090444 
L 396.837975 -37.20227 
L 394.952733 -37.339067 
L 393.067491 -37.503374 
L 391.182249 -37.697175 
L 389.297007 -37.921713 
L 387.411765 -38.177335 
L 385.526524 -38.463418 
L 383.641282 -38.778365 
L 381.75604 -39.119706 
L 379.870798 -39.484307 
L 377.985556 -39.868647 
L 376.100314 -40.269174 
L 374.215073 -40.682676 
L 372.329831 -41.106632 
L 370.444589 -41.539505 
L 368.559347 -41.980926 
L 366.674105 -42.431758 
L 364.788863 -42.894011 
L 362.903622 -43.370635 
L 361.01838 -43.865201 
L 359.133138 -44.381525 
L 357.247896 -44.923269 
L 355.362654 -45.493572 
L 353.477412 -46.094761 
L 351.592171 -46.728161 
L 349.706929 -47.394026 
L 347.821687 -48.09159 
L 345.936445 -48.819214 
L 344.051203 -49.574613 
L 342.165961 -50.355118 
L 340.28072 -51.157945 
L 338.395478 -51.98045 
L 336.510236 -52.820325 
L 334.624994 -53.675751 
L 332.739752 -54.545477 
L 330.854511 -55.428848 
L 328.969269 -56.325771 
L 327.084027 -57.236644 
L 325.198785 -58.162246 
L 323.313543 -59.1036 
L 321.428301 -60.061835 
L 319.54306 -61.038045 
L 317.657818 -62.033164 
L 315.772576 -63.047878 
L 313.887334 -64.082594 
L 312.002092 -65.137466 
L 310.11685 -66.212501 
L 308.231609 -67.307734 
L 306.346367 -68.423479 
L 304.461125 -69.560608 
L 302.575883 -70.720861 
L 300.690641 -71.90712 
L 298.805399 -73.123614 
L 296.920158 -74.376027 
L 295.034916 -75.671452 
L 293.149674 -77.018183 
L 291.264432 -78.425341 
L 289.37919 -79.902337 
L 287.493948 -81.458222 
L 285.608707 -83.100972 
L 283.723465 -84.836774 
L 281.838223 -86.669404 
L 279.952981 -88.599751 
L 278.067739 -90.62557 
L 276.182498 -92.741495 
L 274.297256 -94.939316 
L 272.412014 -97.208528 
L 270.526772 -99.53707 
L 268.64153 -101.912208 
L 266.756288 -104.321477 
L 264.871047 -106.753582 
L 262.985805 -109.199198 
L 261.100563 -111.651612 
L 259.215321 -114.107171 
L 257.330079 -116.565522 
L 255.444837 -119.029667 
L 253.559596 -121.50583 
L 251.674354 -124.003183 
L 249.789112 -126.533426 
L 247.90387 -129.110262 
L 246.018628 -131.748757 
L 244.133386 -134.464618 
L 242.248145 -137.273398 
L 240.362903 -140.189658 
L 238.477661 -143.226149 
L 236.592419 -146.393044 
L 234.707177 -149.6973 
L 232.821935 -153.142195 
L 230.936694 -156.727064 
L 229.051452 -160.447253 
L 227.16621 -164.294249 
L 225.280968 -168.255927 
L 223.395726 -172.316844 
L 221.510485 -176.458478 
L 219.625243 -180.659356 
L 217.740001 -184.895039 
L 215.854759 -189.137984 
L 213.969517 -193.357352 
L 212.084275 -197.51889 
L 210.199034 -201.585037 
L 208.313792 -205.515386 
L 206.42855 -209.267613 
L 204.543308 -212.798921 
L 202.658066 -216.067927 
L 200.772824 -219.036867 
L 198.887583 -221.673888 
L 197.002341 -223.95514 
L 195.117099 -225.866395 
L 193.231857 -227.403934 
L 191.346615 -228.574545 
L 189.461373 -229.394561 
L 187.576132 -229.888037 
L 185.69089 -230.084257 
L 183.805648 -230.014852 
L 181.920406 -229.710907 
L 180.035164 -229.200365 
L 178.149922 -228.506046 
L 176.264681 -227.644446 
L 174.379439 -226.625406 
L 172.494197 -225.452566 
L 170.608955 -224.124453 
L 168.723713 -222.635949 
L 166.838471 -220.979875 
L 164.95323 -219.148443 
L 163.067988 -217.134418 
L 161.182746 -214.931862 
L 159.297504 -212.53651 
L 157.412262 -209.945823 
L 155.527021 -207.158876 
L 153.641779 -204.176211 
L 151.756537 -200.999779 
L 149.871295 -197.633039 
L 147.986053 -194.08121 
L 146.100811 -190.351626 
L 144.21557 -186.45408 
L 142.330328 -182.401038 
L 140.445086 -178.207628 
L 138.559844 -173.891326 
L 136.674602 -169.471348 
L 134.78936 -164.96779 
L 132.904119 -160.400637 
L 131.018877 -155.788787 
L 129.133635 -151.14923 
L 127.248393 -146.496518 
L 125.363151 -141.842598 
L 123.477909 -137.197038 
L 121.592668 -132.567572 
L 119.707426 -127.96088 
L 117.822184 -123.383442 
L 115.936942 -118.842307 
L 114.0517 -114.345644 
L 112.166458 -109.902975 
L 110.281217 -105.525065 
L 108.395975 -101.223487 
L 106.510733 -97.009982 
L 104.625491 -92.895723 
L 102.740249 -88.890654 
L 100.855008 -85.003025 
L 98.969766 -81.239219 
L 97.084524 -77.603901 
L 95.199282 -74.100466 
L 93.31404 -70.731685 
L 91.428798 -67.500434 
L 89.543557 -64.410355 
L 87.658315 -61.466324 
L 85.773073 -58.674624 
L 83.887831 -56.042792 
L 82.002589 -53.579139 
L 80.117347 -51.292017 
L 78.232106 -49.188937 
L 76.346864 -47.275657 
L 74.461622 -45.555378 
L 72.57638 -44.028132 
L 70.691138 -42.690458 
L 68.805896 -41.53537 
L 66.920655 -40.552623 
L 65.035413 -39.729229 
L 63.150171 -39.050136 
L 61.264929 -38.49901 
L 59.379687 -38.059017 
L 57.494445 -37.71355 
L 55.609204 -37.446836 
L 53.723962 -37.2444 
L 51.83872 -37.093365 
L 49.953478 -36.982611 
L 48.068236 -36.902794 
L 46.182994 -36.846269 
L 44.297753 -36.806934 
L 42.412511 -36.780039 
L 40.527269 -36.761971 
z
" style="stroke: #dd8452"/>
    </defs>
    <g>
     <use xlink:href="#m76a16745d3" x="0" y="265.689687" style="fill: #dd8452; fill-opacity: 0.25; stroke: #dd8452"/>
    </g>
   </g>
   <g id="FillBetweenPolyCollection_2">
    <defs>
     <path id="m25065fdc37" d="M 319.777516 -36.74131 
L 319.777516 -36.729688 
L 321.723722 -36.729688 
L 323.669929 -36.729688 
L 325.616136 -36.729688 
L 327.562343 -36.729688 
L 329.508549 -36.729688 
L 331.454756 -36.729688 
L 333.400963 -36.729688 
L 335.347169 -36.729688 
L 337.293376 -36.729688 
L 339.239583 -36.729688 
L 341.185789 -36.729688 
L 343.131996 -36.729688 
L 345.078203 -36.729688 
L 347.02441 -36.729688 
L 348.970616 -36.729688 
L 350.916823 -36.729688 
L 352.86303 -36.729688 
L 354.809236 -36.729688 
L 356.755443 -36.729688 
L 358.70165 -36.729688 
L 360.647856 -36.729688 
L 362.594063 -36.729688 
L 364.54027 -36.729688 
L 366.486477 -36.729688 
L 368.432683 -36.729688 
L 370.37889 -36.729688 
L 372.325097 -36.729688 
L 374.271303 -36.729688 
L 376.21751 -36.729688 
L 378.163717 -36.729688 
L 380.109923 -36.729688 
L 382.05613 -36.729688 
L 384.002337 -36.729688 
L 385.948544 -36.729688 
L 387.89475 -36.729688 
L 389.840957 -36.729688 
L 391.787164 -36.729688 
L 393.73337 -36.729688 
L 395.679577 -36.729688 
L 397.625784 -36.729688 
L 399.57199 -36.729688 
L 401.518197 -36.729688 
L 403.464404 -36.729688 
L 405.410611 -36.729688 
L 407.356817 -36.729688 
L 409.303024 -36.729688 
L 411.249231 -36.729688 
L 413.195437 -36.729688 
L 415.141644 -36.729688 
L 417.087851 -36.729688 
L 419.034057 -36.729688 
L 420.980264 -36.729688 
L 422.926471 -36.729688 
L 424.872678 -36.729688 
L 426.818884 -36.729688 
L 428.765091 -36.729688 
L 430.711298 -36.729688 
L 432.657504 -36.729688 
L 434.603711 -36.729688 
L 436.549918 -36.729688 
L 438.496124 -36.729688 
L 440.442331 -36.729688 
L 442.388538 -36.729688 
L 444.334745 -36.729688 
L 446.280951 -36.729688 
L 448.227158 -36.729688 
L 450.173365 -36.729688 
L 452.119571 -36.729688 
L 454.065778 -36.729688 
L 456.011985 -36.729688 
L 457.958191 -36.729688 
L 459.904398 -36.729688 
L 461.850605 -36.729688 
L 463.796812 -36.729688 
L 465.743018 -36.729688 
L 467.689225 -36.729688 
L 469.635432 -36.729688 
L 471.581638 -36.729688 
L 473.527845 -36.729688 
L 475.474052 -36.729688 
L 477.420258 -36.729688 
L 479.366465 -36.729688 
L 481.312672 -36.729688 
L 483.258879 -36.729688 
L 485.205085 -36.729688 
L 487.151292 -36.729688 
L 489.097499 -36.729688 
L 491.043705 -36.729688 
L 492.989912 -36.729688 
L 494.936119 -36.729688 
L 496.882325 -36.729688 
L 498.828532 -36.729688 
L 500.774739 -36.729688 
L 502.720946 -36.729688 
L 504.667152 -36.729688 
L 506.613359 -36.729688 
L 508.559566 -36.729688 
L 510.505772 -36.729688 
L 512.451979 -36.729688 
L 514.398186 -36.729688 
L 516.344392 -36.729688 
L 518.290599 -36.729688 
L 520.236806 -36.729688 
L 522.183013 -36.729688 
L 524.129219 -36.729688 
L 526.075426 -36.729688 
L 528.021633 -36.729688 
L 529.967839 -36.729688 
L 531.914046 -36.729688 
L 533.860253 -36.729688 
L 535.80646 -36.729688 
L 537.752666 -36.729688 
L 539.698873 -36.729688 
L 541.64508 -36.729688 
L 543.591286 -36.729688 
L 545.537493 -36.729688 
L 547.4837 -36.729688 
L 549.429906 -36.729688 
L 551.376113 -36.729688 
L 553.32232 -36.729688 
L 555.268527 -36.729688 
L 557.214733 -36.729688 
L 559.16094 -36.729688 
L 561.107147 -36.729688 
L 563.053353 -36.729688 
L 564.99956 -36.729688 
L 566.945767 -36.729688 
L 568.891973 -36.729688 
L 570.83818 -36.729688 
L 572.784387 -36.729688 
L 574.730594 -36.729688 
L 576.6768 -36.729688 
L 578.623007 -36.729688 
L 580.569214 -36.729688 
L 582.51542 -36.729688 
L 584.461627 -36.729688 
L 586.407834 -36.729688 
L 588.35404 -36.729688 
L 590.300247 -36.729688 
L 592.246454 -36.729688 
L 594.192661 -36.729688 
L 596.138867 -36.729688 
L 598.085074 -36.729688 
L 600.031281 -36.729688 
L 601.977487 -36.729688 
L 603.923694 -36.729688 
L 605.869901 -36.729688 
L 607.816107 -36.729688 
L 609.762314 -36.729688 
L 611.708521 -36.729688 
L 613.654728 -36.729688 
L 615.600934 -36.729688 
L 617.547141 -36.729688 
L 619.493348 -36.729688 
L 621.439554 -36.729688 
L 623.385761 -36.729688 
L 625.331968 -36.729688 
L 627.278174 -36.729688 
L 629.224381 -36.729688 
L 631.170588 -36.729688 
L 633.116795 -36.729688 
L 635.063001 -36.729688 
L 637.009208 -36.729688 
L 638.955415 -36.729688 
L 640.901621 -36.729688 
L 642.847828 -36.729688 
L 644.794035 -36.729688 
L 646.740241 -36.729688 
L 648.686448 -36.729688 
L 650.632655 -36.729688 
L 652.578862 -36.729688 
L 654.525068 -36.729688 
L 656.471275 -36.729688 
L 658.417482 -36.729688 
L 660.363688 -36.729688 
L 662.309895 -36.729688 
L 664.256102 -36.729688 
L 666.202308 -36.729688 
L 668.148515 -36.729688 
L 670.094722 -36.729688 
L 672.040929 -36.729688 
L 673.987135 -36.729688 
L 675.933342 -36.729688 
L 677.879549 -36.729688 
L 679.825755 -36.729688 
L 681.771962 -36.729688 
L 683.718169 -36.729688 
L 685.664375 -36.729688 
L 687.610582 -36.729688 
L 689.556789 -36.729688 
L 691.502996 -36.729688 
L 693.449202 -36.729688 
L 695.395409 -36.729688 
L 697.341616 -36.729688 
L 699.287822 -36.729688 
L 701.234029 -36.729688 
L 703.180236 -36.729688 
L 705.126442 -36.729688 
L 707.072649 -36.729688 
L 707.072649 -36.742228 
L 707.072649 -36.742228 
L 705.126442 -36.750064 
L 703.180236 -36.762108 
L 701.234029 -36.780214 
L 699.287822 -36.806849 
L 697.341616 -36.845195 
L 695.395409 -36.899253 
L 693.449202 -36.973895 
L 691.502996 -37.074891 
L 689.556789 -37.208858 
L 687.610582 -37.383145 
L 685.664375 -37.605638 
L 683.718169 -37.88448 
L 681.771962 -38.227727 
L 679.825755 -38.642947 
L 677.879549 -39.13679 
L 675.933342 -39.714559 
L 673.987135 -40.37982 
L 672.040929 -41.134088 
L 670.094722 -41.97662 
L 668.148515 -42.904356 
L 666.202308 -43.912041 
L 664.256102 -44.992526 
L 662.309895 -46.137278 
L 660.363688 -47.337058 
L 658.417482 -48.582751 
L 656.471275 -49.866283 
L 654.525068 -51.181544 
L 652.578862 -52.525241 
L 650.632655 -53.897578 
L 648.686448 -55.302701 
L 646.740241 -56.74882 
L 644.794035 -58.248014 
L 642.847828 -59.815702 
L 640.901621 -61.469837 
L 638.955415 -63.22988 
L 637.009208 -65.115648 
L 635.063001 -67.146118 
L 633.116795 -69.33827 
L 631.170588 -71.70603 
L 629.224381 -74.259382 
L 627.278174 -77.003676 
L 625.331968 -79.939177 
L 623.385761 -83.060882 
L 621.439554 -86.358623 
L 619.493348 -89.817469 
L 617.547141 -93.418426 
L 615.600934 -97.139407 
L 613.654728 -100.956432 
L 611.708521 -104.845007 
L 609.762314 -108.781581 
L 607.816107 -112.745024 
L 605.869901 -116.717996 
L 603.923694 -120.688109 
L 601.977487 -124.648773 
L 600.031281 -128.599594 
L 598.085074 -132.546237 
L 596.138867 -136.499679 
L 594.192661 -140.474856 
L 592.246454 -144.488749 
L 590.300247 -148.558094 
L 588.35404 -152.696935 
L 586.407834 -156.914336 
L 584.461627 -161.212553 
L 582.51542 -165.58596 
L 580.569214 -170.020883 
L 578.623007 -174.496411 
L 576.6768 -178.986034 
L 574.730594 -183.459864 
L 572.784387 -187.887074 
L 570.83818 -192.238161 
L 568.891973 -196.486712 
L 566.945767 -200.610452 
L 564.99956 -204.591535 
L 563.053353 -208.416189 
L 561.107147 -212.073951 
L 559.16094 -215.556812 
L 557.214733 -218.858532 
L 555.268527 -221.974325 
L 553.32232 -224.900961 
L 551.376113 -227.637179 
L 549.429906 -230.184205 
L 547.4837 -232.546101 
L 545.537493 -234.729698 
L 543.591286 -236.743953 
L 541.64508 -238.598696 
L 539.698873 -240.302892 
L 537.752666 -241.862644 
L 535.80646 -243.279219 
L 533.860253 -244.547382 
L 531.914046 -245.654244 
L 529.967839 -246.578725 
L 528.021633 -247.291636 
L 526.075426 -247.75631 
L 524.129219 -247.929688 
L 522.183013 -247.763783 
L 520.236806 -247.207519 
L 518.290599 -246.208961 
L 516.344392 -244.717975 
L 514.398186 -242.689332 
L 512.451979 -240.086129 
L 510.505772 -236.883311 
L 508.559566 -233.070942 
L 506.613359 -228.656801 
L 504.667152 -223.667907 
L 502.720946 -218.150654 
L 500.774739 -212.169441 
L 498.828532 -205.803843 
L 496.882325 -199.144602 
L 494.936119 -192.28883 
L 492.989912 -185.334883 
L 491.043705 -178.377368 
L 489.097499 -171.502653 
L 487.151292 -164.785167 
L 485.205085 -158.284701 
L 483.258879 -152.044794 
L 481.312672 -146.092274 
L 479.366465 -140.437936 
L 477.420258 -135.078275 
L 475.474052 -129.998113 
L 473.527845 -125.173872 
L 471.581638 -120.577156 
L 469.635432 -116.178266 
L 467.689225 -111.949277 
L 465.743018 -107.866389 
L 463.796812 -103.911392 
L 461.850605 -100.072229 
L 459.904398 -96.342799 
L 457.958191 -92.722243 
L 456.011985 -89.213967 
L 454.065778 -85.824643 
L 452.119571 -82.563342 
L 450.173365 -79.440821 
L 448.227158 -76.468903 
L 446.280951 -73.659835 
L 444.334745 -71.025491 
L 442.388538 -68.576352 
L 440.442331 -66.320283 
L 438.496124 -64.261217 
L 436.549918 -62.397959 
L 434.603711 -60.72334 
L 432.657504 -59.223953 
L 430.711298 -57.880614 
L 428.765091 -56.669586 
L 426.818884 -55.564449 
L 424.872678 -54.538419 
L 422.926471 -53.566774 
L 420.980264 -52.629074 
L 419.034057 -51.710835 
L 417.087851 -50.804471 
L 415.141644 -49.909351 
L 413.195437 -49.031036 
L 411.249231 -48.179811 
L 409.303024 -47.368751 
L 407.356817 -46.611603 
L 405.410611 -45.92074 
L 403.464404 -45.305457 
L 401.518197 -44.770757 
L 399.57199 -44.316769 
L 397.625784 -43.938781 
L 395.679577 -43.627876 
L 393.73337 -43.372013 
L 391.787164 -43.157428 
L 389.840957 -42.970112 
L 387.89475 -42.797207 
L 385.948544 -42.628103 
L 384.002337 -42.455125 
L 382.05613 -42.27373 
L 380.109923 -42.082231 
L 378.163717 -41.881132 
L 376.21751 -41.672241 
L 374.271303 -41.457721 
L 372.325097 -41.239287 
L 370.37889 -41.017675 
L 368.432683 -40.792465 
L 366.486477 -40.562267 
L 364.54027 -40.325188 
L 362.594063 -40.079457 
L 360.647856 -39.824063 
L 358.70165 -39.559262 
L 356.755443 -39.286851 
L 354.809236 -39.010165 
L 352.86303 -38.733813 
L 350.916823 -38.4632 
L 348.970616 -38.20395 
L 347.02441 -37.961312 
L 345.078203 -37.739657 
L 343.131996 -37.542121 
L 341.185789 -37.370431 
L 339.239583 -37.224912 
L 337.293376 -37.104638 
L 335.347169 -37.007695 
L 333.400963 -36.931491 
L 331.454756 -36.873065 
L 329.508549 -36.82937 
L 327.562343 -36.797491 
L 325.616136 -36.774801 
L 323.669929 -36.759044 
L 321.723722 -36.748368 
L 319.777516 -36.74131 
z
" style="stroke: #4c72b0"/>
    </defs>
    <g>
     <use xlink:href="#m25065fdc37" x="0" y="265.689687" style="fill: #4c72b0; fill-opacity: 0.25; stroke: #4c72b0"/>
    </g>
   </g>
   <g id="line2d_33">
    <path d="M 192.718977 228.96 
L 192.718977 7.2 
" style="fill: none; stroke-dasharray: 2.96,1.28; stroke-dashoffset: 0; stroke: #d3d3d3; stroke-width: 0.8"/>
   </g>
   <g id="line2d_34">
    <path d="M 414.564089 228.96 
L 414.564089 7.2 
" style="fill: none; stroke-dasharray: 2.96,1.28; stroke-dashoffset: 0; stroke: #d3d3d3; stroke-width: 0.8"/>
   </g>
   <g id="line2d_35">
    <path d="M 320.204259 228.96 
L 320.204259 7.2 
" style="fill: none; stroke-dasharray: 2.96,1.28; stroke-dashoffset: 0; stroke: #d3d3d3; stroke-width: 0.8"/>
   </g>
   <g id="line2d_36">
    <path d="M 7.2 228.96 
L 844.2 228.96 
" style="fill: none; stroke: #808080; stroke-width: 0.5; stroke-linecap: round"/>
   </g>
   <g id="text_12">
    <text style="font-size: 8px; font-family: 'Arial', 'DejaVu Sans', 'Liberation Sans', 'Bitstream Vera Sans', sans-serif; fill: #808080" transform="translate(198.972727 124.59635) rotate(-90)">International Poverty Line: $3.00</text>
   </g>
   <g id="text_13">
    <text style="font-size: 8px; font-family: 'Arial', 'DejaVu Sans', 'Liberation Sans', 'Bitstream Vera Sans', sans-serif; fill: #808080" transform="translate(420.290339 81.31135) rotate(-90)">World mean: $21.69</text>
   </g>
   <g id="text_14">
    <text style="font-size: 8px; font-family: 'Arial', 'DejaVu Sans', 'Liberation Sans', 'Bitstream Vera Sans', sans-serif; fill: #808080" transform="translate(325.930509 83.08885) rotate(-90)">World median: $9.35</text>
   </g>
   <g id="legend_1">
    <g id="patch_3">
     <path d="M 683.8 102.344187 
L 756.364063 102.344187 
Q 758.364063 102.344187 758.364063 100.344187 
L 758.364063 58.552 
Q 758.364063 56.552 756.364063 56.552 
L 683.8 56.552 
Q 681.8 56.552 681.8 58.552 
L 681.8 100.344187 
Q 681.8 102.344187 683.8 102.344187 
z
" style="fill: #ffffff; opacity: 0.8; stroke: #cccccc; stroke-linejoin: miter"/>
    </g>
    <g id="text_15">
     <text style="font-size: 10px; font-family: 'Arial', 'DejaVu Sans', 'Liberation Sans', 'Bitstream Vera Sans', sans-serif; text-anchor: start; fill: #262626" x="702.575781" y="67.831687" transform="rotate(-0 702.575781 67.831687)">Country</text>
    </g>
    <g id="patch_4">
     <path d="M 685.8 82.094187 
L 705.8 82.094187 
L 705.8 75.094187 
L 685.8 75.094187 
z
" style="fill: #4c72b0; fill-opacity: 0.25; stroke: #4c72b0; stroke-linejoin: miter"/>
    </g>
    <g id="text_16">
     <text style="font-size: 10px; font-family: 'Arial', 'DejaVu Sans', 'Liberation Sans', 'Bitstream Vera Sans', sans-serif; text-anchor: start; fill: #262626" x="713.8" y="82.094187" transform="rotate(-0 713.8 82.094187)">Denmark</text>
    </g>
    <g id="patch_5">
     <path d="M 685.8 96.2395 
L 705.8 96.2395 
L 705.8 89.2395 
L 685.8 89.2395 
z
" style="fill: #dd8452; fill-opacity: 0.25; stroke: #dd8452; stroke-linejoin: miter"/>
    </g>
    <g id="text_17">
     <text style="font-size: 10px; font-family: 'Arial', 'DejaVu Sans', 'Liberation Sans', 'Bitstream Vera Sans', sans-serif; text-anchor: start; fill: #262626" x="713.8" y="96.2395" transform="rotate(-0 713.8 96.2395)">Niger</text>
    </g>
   </g>
  </g>
 </g>
</svg>
