<?xml version="1.0" encoding="utf-8" standalone="no"?>
<!DOCTYPE svg PUBLIC "-//W3C//DTD SVG 1.1//EN"
  "http://www.w3.org/Graphics/SVG/1.1/DTD/svg11.dtd">
<svg xmlns:xlink="http://www.w3.org/1999/xlink" width="865.302344pt" height="265.689687pt" viewBox="0 0 865.302344 265.689687" xmlns="http://www.w3.org/2000/svg" version="1.1">
 <metadata>
  <rdf:RDF xmlns:dc="http://purl.org/dc/elements/1.1/" xmlns:cc="http://creativecommons.org/ns#" xmlns:rdf="http://www.w3.org/1999/02/22-rdf-syntax-ns#">
   <cc:Work>
    <dc:type rdf:resource="http://purl.org/dc/dcmitype/StillImage"/>
    <dc:date>2025-12-05T17:50:42.075127</dc:date>
    <dc:format>image/svg+xml</dc:format>
    <dc:creator>
     <cc:Agent>
      <dc:title>Matplotlib v3.10.1, https://matplotlib.org/</dc:title>
     </cc:Agent>
    </dc:creator>
   </cc:Work>
  </rdf:RDF>
 </metadata>
 <defs>
  <style type="text/css">*{stroke-linejoin: round; stroke-linecap: butt}</style>
 </defs>
 <g id="figure_1">
  <g id="patch_1">
   <path d="M 0 265.689687 
L 865.302344 265.689687 
L 865.302344 0 
L 0 0 
z
" style="fill: #ffffff"/>
  </g>
  <g id="axes_1">
   <g id="patch_2">
    <path d="M 7.2 228.96 
L 844.2 228.96 
L 844.2 7.2 
L 7.2 7.2 
z
" style="fill: #ffffff"/>
   </g>
   <g id="matplotlib.axis_1">
    <g id="xtick_1">
     <g id="line2d_1">
      <defs>
       <path id="m62f9704eb3" d="M 0 0 
L 0 3.5 
" style="stroke: #262626; stroke-width: 0.8"/>
      </defs>
      <g>
       <use xlink:href="#m62f9704eb3" x="91.707304" y="228.96" style="fill: #262626; stroke: #262626; stroke-width: 0.8"/>
      </g>
     </g>
     <g id="text_1">
      <text style="font-size: 10px; font-family: 'Arial', 'DejaVu Sans', 'Liberation Sans', 'Bitstream Vera Sans', sans-serif; text-anchor: middle; fill: #262626" x="91.707304" y="243.117812" transform="rotate(-0 91.707304 243.117812)">$1</text>
     </g>
    </g>
    <g id="xtick_2">
     <g id="line2d_2">
      <g>
       <use xlink:href="#m62f9704eb3" x="167.214929" y="228.96" style="fill: #262626; stroke: #262626; stroke-width: 0.8"/>
      </g>
     </g>
     <g id="text_2">
      <text style="font-size: 10px; font-family: 'Arial', 'DejaVu Sans', 'Liberation Sans', 'Bitstream Vera Sans', sans-serif; text-anchor: middle; fill: #262626" x="167.214929" y="243.117812" transform="rotate(-0 167.214929 243.117812)">$2</text>
     </g>
    </g>
    <g id="xtick_3">
     <g id="line2d_3">
      <g>
       <use xlink:href="#m62f9704eb3" x="267.030579" y="228.96" style="fill: #262626; stroke: #262626; stroke-width: 0.8"/>
      </g>
     </g>
     <g id="text_3">
      <text style="font-size: 10px; font-family: 'Arial', 'DejaVu Sans', 'Liberation Sans', 'Bitstream Vera Sans', sans-serif; text-anchor: middle; fill: #262626" x="267.030579" y="243.117812" transform="rotate(-0 267.030579 243.117812)">$5</text>
     </g>
    </g>
    <g id="xtick_4">
     <g id="line2d_4">
      <g>
       <use xlink:href="#m62f9704eb3" x="342.538203" y="228.96" style="fill: #262626; stroke: #262626; stroke-width: 0.8"/>
      </g>
     </g>
     <g id="text_4">
      <text style="font-size: 10px; font-family: 'Arial', 'DejaVu Sans', 'Liberation Sans', 'Bitstream Vera Sans', sans-serif; text-anchor: middle; fill: #262626" x="342.538203" y="243.117812" transform="rotate(-0 342.538203 243.117812)">$10</text>
     </g>
    </g>
    <g id="xtick_5">
     <g id="line2d_5">
      <g>
       <use xlink:href="#m62f9704eb3" x="418.045827" y="228.96" style="fill: #262626; stroke: #262626; stroke-width: 0.8"/>
      </g>
     </g>
     <g id="text_5">
      <text style="font-size: 10px; font-family: 'Arial', 'DejaVu Sans', 'Liberation Sans', 'Bitstream Vera Sans', sans-serif; text-anchor: middle; fill: #262626" x="418.045827" y="243.117812" transform="rotate(-0 418.045827 243.117812)">$20</text>
     </g>
    </g>
    <g id="xtick_6">
     <g id="line2d_6">
      <g>
       <use xlink:href="#m62f9704eb3" x="517.861477" y="228.96" style="fill: #262626; stroke: #262626; stroke-width: 0.8"/>
      </g>
     </g>
     <g id="text_6">
      <text style="font-size: 10px; font-family: 'Arial', 'DejaVu Sans', 'Liberation Sans', 'Bitstream Vera Sans', sans-serif; text-anchor: middle; fill: #262626" x="517.861477" y="243.117812" transform="rotate(-0 517.861477 243.117812)">$50</text>
     </g>
    </g>
    <g id="xtick_7">
     <g id="line2d_7">
      <g>
       <use xlink:href="#m62f9704eb3" x="593.369101" y="228.96" style="fill: #262626; stroke: #262626; stroke-width: 0.8"/>
      </g>
     </g>
     <g id="text_7">
      <text style="font-size: 10px; font-family: 'Arial', 'DejaVu Sans', 'Liberation Sans', 'Bitstream Vera Sans', sans-serif; text-anchor: middle; fill: #262626" x="593.369101" y="243.117812" transform="rotate(-0 593.369101 243.117812)">$100</text>
     </g>
    </g>
    <g id="xtick_8">
     <g id="line2d_8">
      <g>
       <use xlink:href="#m62f9704eb3" x="668.876726" y="228.96" style="fill: #262626; stroke: #262626; stroke-width: 0.8"/>
      </g>
     </g>
     <g id="text_8">
      <text style="font-size: 10px; font-family: 'Arial', 'DejaVu Sans', 'Liberation Sans', 'Bitstream Vera Sans', sans-serif; text-anchor: middle; fill: #262626" x="668.876726" y="243.117812" transform="rotate(-0 668.876726 243.117812)">$200</text>
     </g>
    </g>
    <g id="xtick_9">
     <g id="line2d_9">
      <g>
       <use xlink:href="#m62f9704eb3" x="768.692376" y="228.96" style="fill: #262626; stroke: #262626; stroke-width: 0.8"/>
      </g>
     </g>
     <g id="text_9">
      <text style="font-size: 10px; font-family: 'Arial', 'DejaVu Sans', 'Liberation Sans', 'Bitstream Vera Sans', sans-serif; text-anchor: middle; fill: #262626" x="768.692376" y="243.117812" transform="rotate(-0 768.692376 243.117812)">$500</text>
     </g>
    </g>
    <g id="xtick_10">
     <g id="line2d_10">
      <g>
       <use xlink:href="#m62f9704eb3" x="844.2" y="228.96" style="fill: #262626; stroke: #262626; stroke-width: 0.8"/>
      </g>
     </g>
     <g id="text_10">
      <text style="font-size: 10px; font-family: 'Arial', 'DejaVu Sans', 'Liberation Sans', 'Bitstream Vera Sans', sans-serif; text-anchor: middle; fill: #262626" x="844.2" y="243.117812" transform="rotate(-0 844.2 243.117812)">$1000</text>
     </g>
    </g>
    <g id="xtick_11">
     <g id="line2d_11">
      <defs>
       <path id="m5df34ed029" d="M 0 0 
L 0 2 
" style="stroke: #262626; stroke-width: 0.6"/>
      </defs>
      <g>
       <use xlink:href="#m5df34ed029" x="16.19968" y="228.96" style="fill: #262626; stroke: #262626; stroke-width: 0.6"/>
      </g>
     </g>
    </g>
    <g id="xtick_12">
     <g id="line2d_12">
      <g>
       <use xlink:href="#m5df34ed029" x="36.060783" y="228.96" style="fill: #262626; stroke: #262626; stroke-width: 0.6"/>
      </g>
     </g>
    </g>
    <g id="xtick_13">
     <g id="line2d_13">
      <g>
       <use xlink:href="#m5df34ed029" x="52.853107" y="228.96" style="fill: #262626; stroke: #262626; stroke-width: 0.6"/>
      </g>
     </g>
    </g>
    <g id="xtick_14">
     <g id="line2d_14">
      <g>
       <use xlink:href="#m5df34ed029" x="67.399279" y="228.96" style="fill: #262626; stroke: #262626; stroke-width: 0.6"/>
      </g>
     </g>
    </g>
    <g id="xtick_15">
     <g id="line2d_15">
      <g>
       <use xlink:href="#m5df34ed029" x="80.229912" y="228.96" style="fill: #262626; stroke: #262626; stroke-width: 0.6"/>
      </g>
     </g>
    </g>
    <g id="xtick_16">
     <g id="line2d_16">
      <g>
       <use xlink:href="#m5df34ed029" x="211.384057" y="228.96" style="fill: #262626; stroke: #262626; stroke-width: 0.6"/>
      </g>
     </g>
    </g>
    <g id="xtick_17">
     <g id="line2d_17">
      <g>
       <use xlink:href="#m5df34ed029" x="242.722553" y="228.96" style="fill: #262626; stroke: #262626; stroke-width: 0.6"/>
      </g>
     </g>
    </g>
    <g id="xtick_18">
     <g id="line2d_18">
      <g>
       <use xlink:href="#m5df34ed029" x="286.891682" y="228.96" style="fill: #262626; stroke: #262626; stroke-width: 0.6"/>
      </g>
     </g>
    </g>
    <g id="xtick_19">
     <g id="line2d_19">
      <g>
       <use xlink:href="#m5df34ed029" x="303.684005" y="228.96" style="fill: #262626; stroke: #262626; stroke-width: 0.6"/>
      </g>
     </g>
    </g>
    <g id="xtick_20">
     <g id="line2d_20">
      <g>
       <use xlink:href="#m5df34ed029" x="318.230177" y="228.96" style="fill: #262626; stroke: #262626; stroke-width: 0.6"/>
      </g>
     </g>
    </g>
    <g id="xtick_21">
     <g id="line2d_21">
      <g>
       <use xlink:href="#m5df34ed029" x="331.06081" y="228.96" style="fill: #262626; stroke: #262626; stroke-width: 0.6"/>
      </g>
     </g>
    </g>
    <g id="xtick_22">
     <g id="line2d_22">
      <g>
       <use xlink:href="#m5df34ed029" x="462.214956" y="228.96" style="fill: #262626; stroke: #262626; stroke-width: 0.6"/>
      </g>
     </g>
    </g>
    <g id="xtick_23">
     <g id="line2d_23">
      <g>
       <use xlink:href="#m5df34ed029" x="493.553452" y="228.96" style="fill: #262626; stroke: #262626; stroke-width: 0.6"/>
      </g>
     </g>
    </g>
    <g id="xtick_24">
     <g id="line2d_24">
      <g>
       <use xlink:href="#m5df34ed029" x="537.72258" y="228.96" style="fill: #262626; stroke: #262626; stroke-width: 0.6"/>
      </g>
     </g>
    </g>
    <g id="xtick_25">
     <g id="line2d_25">
      <g>
       <use xlink:href="#m5df34ed029" x="554.514904" y="228.96" style="fill: #262626; stroke: #262626; stroke-width: 0.6"/>
      </g>
     </g>
    </g>
    <g id="xtick_26">
     <g id="line2d_26">
      <g>
       <use xlink:href="#m5df34ed029" x="569.061076" y="228.96" style="fill: #262626; stroke: #262626; stroke-width: 0.6"/>
      </g>
     </g>
    </g>
    <g id="xtick_27">
     <g id="line2d_27">
      <g>
       <use xlink:href="#m5df34ed029" x="581.891709" y="228.96" style="fill: #262626; stroke: #262626; stroke-width: 0.6"/>
      </g>
     </g>
    </g>
    <g id="xtick_28">
     <g id="line2d_28">
      <g>
       <use xlink:href="#m5df34ed029" x="713.045854" y="228.96" style="fill: #262626; stroke: #262626; stroke-width: 0.6"/>
      </g>
     </g>
    </g>
    <g id="xtick_29">
     <g id="line2d_29">
      <g>
       <use xlink:href="#m5df34ed029" x="744.38435" y="228.96" style="fill: #262626; stroke: #262626; stroke-width: 0.6"/>
      </g>
     </g>
    </g>
    <g id="xtick_30">
     <g id="line2d_30">
      <g>
       <use xlink:href="#m5df34ed029" x="788.553479" y="228.96" style="fill: #262626; stroke: #262626; stroke-width: 0.6"/>
      </g>
     </g>
    </g>
    <g id="xtick_31">
     <g id="line2d_31">
      <g>
       <use xlink:href="#m5df34ed029" x="805.345802" y="228.96" style="fill: #262626; stroke: #262626; stroke-width: 0.6"/>
      </g>
     </g>
    </g>
    <g id="xtick_32">
     <g id="line2d_32">
      <g>
       <use xlink:href="#m5df34ed029" x="819.891974" y="228.96" style="fill: #262626; stroke: #262626; stroke-width: 0.6"/>
      </g>
     </g>
    </g>
    <g id="xtick_33">
     <g id="line2d_33">
      <g>
       <use xlink:href="#m5df34ed029" x="832.722608" y="228.96" style="fill: #262626; stroke: #262626; stroke-width: 0.6"/>
      </g>
     </g>
    </g>
    <g id="text_11">
     <text style="font-size: 10px; font-family: 'Arial', 'DejaVu Sans', 'Liberation Sans', 'Bitstream Vera Sans', sans-serif; text-anchor: middle; fill: #262626" x="425.7" y="256.385" transform="rotate(-0 425.7 256.385)">Income or consumption (day)</text>
    </g>
   </g>
   <g id="matplotlib.axis_2"/>
   <g id="FillBetweenPolyCollection_1">
    <defs>
     <path id="m7b16986221" d="M 40.370081 -36.795073 
L 40.370081 -36.729688 
L 42.278959 -36.729688 
L 44.187836 -36.729688 
L 46.096714 -36.729688 
L 48.005591 -36.729688 
L 49.914469 -36.729688 
L 51.823346 -36.729688 
L 53.732224 -36.729688 
L 55.641101 -36.729688 
L 57.549979 -36.729688 
L 59.458856 -36.729688 
L 61.367733 -36.729688 
L 63.276611 -36.729688 
L 65.185488 -36.729688 
L 67.094366 -36.729688 
L 69.003243 -36.729688 
L 70.912121 -36.729688 
L 72.820998 -36.729688 
L 74.729876 -36.729688 
L 76.638753 -36.729688 
L 78.547631 -36.729688 
L 80.456508 -36.729688 
L 82.365386 -36.729688 
L 84.274263 -36.729688 
L 86.183141 -36.729688 
L 88.092018 -36.729688 
L 90.000896 -36.729688 
L 91.909773 -36.729688 
L 93.818651 -36.729688 
L 95.727528 -36.729688 
L 97.636406 -36.729688 
L 99.545283 -36.729688 
L 101.45416 -36.729688 
L 103.363038 -36.729688 
L 105.271915 -36.729688 
L 107.180793 -36.729688 
L 109.08967 -36.729688 
L 110.998548 -36.729688 
L 112.907425 -36.729688 
L 114.816303 -36.729688 
L 116.72518 -36.729688 
L 118.634058 -36.729688 
L 120.542935 -36.729688 
L 122.451813 -36.729688 
L 124.36069 -36.729688 
L 126.269568 -36.729688 
L 128.178445 -36.729688 
L 130.087323 -36.729688 
L 131.9962 -36.729688 
L 133.905078 -36.729688 
L 135.813955 -36.729688 
L 137.722833 -36.729688 
L 139.63171 -36.729688 
L 141.540588 -36.729688 
L 143.449465 -36.729688 
L 145.358342 -36.729688 
L 147.26722 -36.729688 
L 149.176097 -36.729688 
L 151.084975 -36.729688 
L 152.993852 -36.729688 
L 154.90273 -36.729688 
L 156.811607 -36.729688 
L 158.720485 -36.729688 
L 160.629362 -36.729688 
L 162.53824 -36.729688 
L 164.447117 -36.729688 
L 166.355995 -36.729688 
L 168.264872 -36.729688 
L 170.17375 -36.729688 
L 172.082627 -36.729688 
L 173.991505 -36.729688 
L 175.900382 -36.729688 
L 177.80926 -36.729688 
L 179.718137 -36.729688 
L 181.627015 -36.729688 
L 183.535892 -36.729688 
L 185.444769 -36.729688 
L 187.353647 -36.729688 
L 189.262524 -36.729688 
L 191.171402 -36.729688 
L 193.080279 -36.729688 
L 194.989157 -36.729688 
L 196.898034 -36.729688 
L 198.806912 -36.729688 
L 200.715789 -36.729688 
L 202.624667 -36.729688 
L 204.533544 -36.729688 
L 206.442422 -36.729688 
L 208.351299 -36.729688 
L 210.260177 -36.729688 
L 212.169054 -36.729688 
L 214.077932 -36.729688 
L 215.986809 -36.729688 
L 217.895687 -36.729688 
L 219.804564 -36.729688 
L 221.713442 -36.729688 
L 223.622319 -36.729688 
L 225.531197 -36.729688 
L 227.440074 -36.729688 
L 229.348951 -36.729688 
L 231.257829 -36.729688 
L 233.166706 -36.729688 
L 235.075584 -36.729688 
L 236.984461 -36.729688 
L 238.893339 -36.729688 
L 240.802216 -36.729688 
L 242.711094 -36.729688 
L 244.619971 -36.729688 
L 246.528849 -36.729688 
L 248.437726 -36.729688 
L 250.346604 -36.729688 
L 252.255481 -36.729688 
L 254.164359 -36.729688 
L 256.073236 -36.729688 
L 257.982114 -36.729688 
L 259.890991 -36.729688 
L 261.799869 -36.729688 
L 263.708746 -36.729688 
L 265.617624 -36.729688 
L 267.526501 -36.729688 
L 269.435378 -36.729688 
L 271.344256 -36.729688 
L 273.253133 -36.729688 
L 275.162011 -36.729688 
L 277.070888 -36.729688 
L 278.979766 -36.729688 
L 280.888643 -36.729688 
L 282.797521 -36.729688 
L 284.706398 -36.729688 
L 286.615276 -36.729688 
L 288.524153 -36.729688 
L 290.433031 -36.729688 
L 292.341908 -36.729688 
L 294.250786 -36.729688 
L 296.159663 -36.729688 
L 298.068541 -36.729688 
L 299.977418 -36.729688 
L 301.886296 -36.729688 
L 303.795173 -36.729688 
L 305.704051 -36.729688 
L 307.612928 -36.729688 
L 309.521805 -36.729688 
L 311.430683 -36.729688 
L 313.33956 -36.729688 
L 315.248438 -36.729688 
L 317.157315 -36.729688 
L 319.066193 -36.729688 
L 320.97507 -36.729688 
L 322.883948 -36.729688 
L 324.792825 -36.729688 
L 326.701703 -36.729688 
L 328.61058 -36.729688 
L 330.519458 -36.729688 
L 332.428335 -36.729688 
L 334.337213 -36.729688 
L 336.24609 -36.729688 
L 338.154968 -36.729688 
L 340.063845 -36.729688 
L 341.972723 -36.729688 
L 343.8816 -36.729688 
L 345.790478 -36.729688 
L 347.699355 -36.729688 
L 349.608233 -36.729688 
L 351.51711 -36.729688 
L 353.425987 -36.729688 
L 355.334865 -36.729688 
L 357.243742 -36.729688 
L 359.15262 -36.729688 
L 361.061497 -36.729688 
L 362.970375 -36.729688 
L 364.879252 -36.729688 
L 366.78813 -36.729688 
L 368.697007 -36.729688 
L 370.605885 -36.729688 
L 372.514762 -36.729688 
L 374.42364 -36.729688 
L 376.332517 -36.729688 
L 378.241395 -36.729688 
L 380.150272 -36.729688 
L 382.05915 -36.729688 
L 383.968027 -36.729688 
L 385.876905 -36.729688 
L 387.785782 -36.729688 
L 389.69466 -36.729688 
L 391.603537 -36.729688 
L 393.512414 -36.729688 
L 395.421292 -36.729688 
L 397.330169 -36.729688 
L 399.239047 -36.729688 
L 401.147924 -36.729688 
L 403.056802 -36.729688 
L 404.965679 -36.729688 
L 406.874557 -36.729688 
L 408.783434 -36.729688 
L 410.692312 -36.729688 
L 412.601189 -36.729688 
L 414.510067 -36.729688 
L 416.418944 -36.729688 
L 418.327822 -36.729688 
L 420.236699 -36.729688 
L 420.236699 -36.798937 
L 420.236699 -36.798937 
L 418.327822 -36.820612 
L 416.418944 -36.848221 
L 414.510067 -36.883118 
L 412.601189 -36.926892 
L 410.692312 -36.981379 
L 408.783434 -37.048689 
L 406.874557 -37.131209 
L 404.965679 -37.231614 
L 403.056802 -37.352865 
L 401.147924 -37.498198 
L 399.239047 -37.671107 
L 397.330169 -37.875308 
L 395.421292 -38.114703 
L 393.512414 -38.393325 
L 391.603537 -38.715275 
L 389.69466 -39.084648 
L 387.785782 -39.505455 
L 385.876905 -39.981538 
L 383.968027 -40.51648 
L 382.05915 -41.113523 
L 380.150272 -41.775486 
L 378.241395 -42.50469 
L 376.332517 -43.302905 
L 374.42364 -44.1713 
L 372.514762 -45.110419 
L 370.605885 -46.120179 
L 368.697007 -47.199883 
L 366.78813 -48.34826 
L 364.879252 -49.563522 
L 362.970375 -50.84344 
L 361.061497 -52.185438 
L 359.15262 -53.586697 
L 357.243742 -55.044263 
L 355.334865 -56.555166 
L 353.425987 -58.116525 
L 351.51711 -59.72566 
L 349.608233 -61.380182 
L 347.699355 -63.078075 
L 345.790478 -64.817758 
L 343.8816 -66.598128 
L 341.972723 -68.418589 
L 340.063845 -70.27905 
L 338.154968 -72.179915 
L 336.24609 -74.12205 
L 334.337213 -76.106734 
L 332.428335 -78.135602 
L 330.519458 -80.210572 
L 328.61058 -82.333769 
L 326.701703 -84.50744 
L 324.792825 -86.733874 
L 322.883948 -89.015315 
L 320.97507 -91.35388 
L 319.066193 -93.751481 
L 317.157315 -96.209752 
L 315.248438 -98.72998 
L 313.33956 -101.313043 
L 311.430683 -103.959362 
L 309.521805 -106.668847 
L 307.612928 -109.440864 
L 305.704051 -112.274204 
L 303.795173 -115.167062 
L 301.886296 -118.117024 
L 299.977418 -121.121065 
L 298.068541 -124.175553 
L 296.159663 -127.276268 
L 294.250786 -130.41842 
L 292.341908 -133.596692 
L 290.433031 -136.80527 
L 288.524153 -140.037902 
L 286.615276 -143.287948 
L 284.706398 -146.548438 
L 282.797521 -149.812142 
L 280.888643 -153.071625 
L 278.979766 -156.31932 
L 277.070888 -159.547581 
L 275.162011 -162.748743 
L 273.253133 -165.915167 
L 271.344256 -169.039287 
L 269.435378 -172.113633 
L 267.526501 -175.130859 
L 265.617624 -178.083749 
L 263.708746 -180.965221 
L 261.799869 -183.768319 
L 259.890991 -186.486196 
L 257.982114 -189.112097 
L 256.073236 -191.639335 
L 254.164359 -194.061271 
L 252.255481 -196.371295 
L 250.346604 -198.562811 
L 248.437726 -200.629236 
L 246.528849 -202.564001 
L 244.619971 -204.360576 
L 242.711094 -206.012493 
L 240.802216 -207.513399 
L 238.893339 -208.857105 
L 236.984461 -210.037664 
L 235.075584 -211.049442 
L 233.166706 -211.887216 
L 231.257829 -212.546257 
L 229.348951 -213.022433 
L 227.440074 -213.312302 
L 225.531197 -213.413199 
L 223.622319 -213.323322 
L 221.713442 -213.041799 
L 219.804564 -212.568748 
L 217.895687 -211.905313 
L 215.986809 -211.053685 
L 214.077932 -210.017102 
L 212.169054 -208.799822 
L 210.260177 -207.407081 
L 208.351299 -205.845021 
L 206.442422 -204.120605 
L 204.533544 -202.241506 
L 202.624667 -200.215992 
L 200.715789 -198.052781 
L 198.806912 -195.760909 
L 196.898034 -193.349584 
L 194.989157 -190.82804 
L 193.080279 -188.205408 
L 191.171402 -185.49059 
L 189.262524 -182.692156 
L 187.353647 -179.818256 
L 185.444769 -176.876556 
L 183.535892 -173.8742 
L 181.627015 -170.817791 
L 179.718137 -167.713401 
L 177.80926 -164.566599 
L 175.900382 -161.382501 
L 173.991505 -158.165833 
L 172.082627 -154.921005 
L 170.17375 -151.652194 
L 168.264872 -148.363424 
L 166.355995 -145.058653 
L 164.447117 -141.741843 
L 162.53824 -138.417025 
L 160.629362 -135.088351 
L 158.720485 -131.760132 
L 156.811607 -128.436856 
L 154.90273 -125.123193 
L 152.993852 -121.823982 
L 151.084975 -118.544208 
L 149.176097 -115.288958 
L 147.26722 -112.063375 
L 145.358342 -108.872596 
L 143.449465 -105.721696 
L 141.540588 -102.61562 
L 139.63171 -99.559123 
L 137.722833 -96.55671 
L 135.813955 -93.612591 
L 133.905078 -90.730629 
L 131.9962 -87.914319 
L 130.087323 -85.166762 
L 128.178445 -82.49066 
L 126.269568 -79.888322 
L 124.36069 -77.361675 
L 122.451813 -74.912299 
L 120.542935 -72.541452 
L 118.634058 -70.25012 
L 116.72518 -68.039054 
L 114.816303 -65.90882 
L 112.907425 -63.859837 
L 110.998548 -61.892421 
L 109.08967 -60.006812 
L 107.180793 -58.203197 
L 105.271915 -56.481721 
L 103.363038 -54.842487 
L 101.45416 -53.285545 
L 99.545283 -51.810875 
L 97.636406 -50.418347 
L 95.727528 -49.107696 
L 93.818651 -47.87847 
L 91.909773 -46.729998 
L 90.000896 -45.66134 
L 88.092018 -44.671259 
L 86.183141 -43.758188 
L 84.274263 -42.920213 
L 82.365386 -42.155065 
L 80.456508 -41.460124 
L 78.547631 -40.832437 
L 76.638753 -40.268745 
L 74.729876 -39.76552 
L 72.820998 -39.319019 
L 70.912121 -38.925328 
L 69.003243 -38.580431 
L 67.094366 -38.280261 
L 65.185488 -38.020766 
L 63.276611 -37.797961 
L 61.367733 -37.607982 
L 59.458856 -37.447127 
L 57.549979 -37.311901 
L 55.641101 -37.199036 
L 53.732224 -37.105518 
L 51.823346 -37.028598 
L 49.914469 -36.965798 
L 48.005591 -36.914908 
L 46.096714 -36.873976 
L 44.187836 -36.841304 
L 42.278959 -36.815421 
L 40.370081 -36.795073 
z
" style="stroke: #dd8452"/>
    </defs>
    <g>
     <use xlink:href="#m7b16986221" x="0" y="265.689687" style="fill: #dd8452; fill-opacity: 0.25; stroke: #dd8452"/>
    </g>
   </g>
   <g id="FillBetweenPolyCollection_2">
    <defs>
     <path id="m1145b47583" d="M 333.481082 -36.793204 
L 333.481082 -36.729688 
L 335.341839 -36.729688 
L 337.202596 -36.729688 
L 339.063353 -36.729688 
L 340.92411 -36.729688 
L 342.784867 -36.729688 
L 344.645624 -36.729688 
L 346.506381 -36.729688 
L 348.367138 -36.729688 
L 350.227895 -36.729688 
L 352.088651 -36.729688 
L 353.949408 -36.729688 
L 355.810165 -36.729688 
L 357.670922 -36.729688 
L 359.531679 -36.729688 
L 361.392436 -36.729688 
L 363.253193 -36.729688 
L 365.11395 -36.729688 
L 366.974707 -36.729688 
L 368.835464 -36.729688 
L 370.69622 -36.729688 
L 372.556977 -36.729688 
L 374.417734 -36.729688 
L 376.278491 -36.729688 
L 378.139248 -36.729688 
L 380.000005 -36.729688 
L 381.860762 -36.729688 
L 383.721519 -36.729688 
L 385.582276 -36.729688 
L 387.443033 -36.729688 
L 389.30379 -36.729688 
L 391.164546 -36.729688 
L 393.025303 -36.729688 
L 394.88606 -36.729688 
L 396.746817 -36.729688 
L 398.607574 -36.729688 
L 400.468331 -36.729688 
L 402.329088 -36.729688 
L 404.189845 -36.729688 
L 406.050602 -36.729688 
L 407.911359 -36.729688 
L 409.772115 -36.729688 
L 411.632872 -36.729688 
L 413.493629 -36.729688 
L 415.354386 -36.729688 
L 417.215143 -36.729688 
L 419.0759 -36.729688 
L 420.936657 -36.729688 
L 422.797414 -36.729688 
L 424.658171 -36.729688 
L 426.518928 -36.729688 
L 428.379684 -36.729688 
L 430.240441 -36.729688 
L 432.101198 -36.729688 
L 433.961955 -36.729688 
L 435.822712 -36.729688 
L 437.683469 -36.729688 
L 439.544226 -36.729688 
L 441.404983 -36.729688 
L 443.26574 -36.729688 
L 445.126497 -36.729688 
L 446.987253 -36.729688 
L 448.84801 -36.729688 
L 450.708767 -36.729688 
L 452.569524 -36.729688 
L 454.430281 -36.729688 
L 456.291038 -36.729688 
L 458.151795 -36.729688 
L 460.012552 -36.729688 
L 461.873309 -36.729688 
L 463.734066 -36.729688 
L 465.594822 -36.729688 
L 467.455579 -36.729688 
L 469.316336 -36.729688 
L 471.177093 -36.729688 
L 473.03785 -36.729688 
L 474.898607 -36.729688 
L 476.759364 -36.729688 
L 478.620121 -36.729688 
L 480.480878 -36.729688 
L 482.341635 -36.729688 
L 484.202391 -36.729688 
L 486.063148 -36.729688 
L 487.923905 -36.729688 
L 489.784662 -36.729688 
L 491.645419 -36.729688 
L 493.506176 -36.729688 
L 495.366933 -36.729688 
L 497.22769 -36.729688 
L 499.088447 -36.729688 
L 500.949204 -36.729688 
L 502.80996 -36.729688 
L 504.670717 -36.729688 
L 506.531474 -36.729688 
L 508.392231 -36.729688 
L 510.252988 -36.729688 
L 512.113745 -36.729688 
L 513.974502 -36.729688 
L 515.835259 -36.729688 
L 517.696016 -36.729688 
L 519.556773 -36.729688 
L 521.417529 -36.729688 
L 523.278286 -36.729688 
L 525.139043 -36.729688 
L 526.9998 -36.729688 
L 528.860557 -36.729688 
L 530.721314 -36.729688 
L 532.582071 -36.729688 
L 534.442828 -36.729688 
L 536.303585 -36.729688 
L 538.164342 -36.729688 
L 540.025098 -36.729688 
L 541.885855 -36.729688 
L 543.746612 -36.729688 
L 545.607369 -36.729688 
L 547.468126 -36.729688 
L 549.328883 -36.729688 
L 551.18964 -36.729688 
L 553.050397 -36.729688 
L 554.911154 -36.729688 
L 556.771911 -36.729688 
L 558.632668 -36.729688 
L 560.493424 -36.729688 
L 562.354181 -36.729688 
L 564.214938 -36.729688 
L 566.075695 -36.729688 
L 567.936452 -36.729688 
L 569.797209 -36.729688 
L 571.657966 -36.729688 
L 573.518723 -36.729688 
L 575.37948 -36.729688 
L 577.240237 -36.729688 
L 579.100993 -36.729688 
L 580.96175 -36.729688 
L 582.822507 -36.729688 
L 584.683264 -36.729688 
L 586.544021 -36.729688 
L 588.404778 -36.729688 
L 590.265535 -36.729688 
L 592.126292 -36.729688 
L 593.987049 -36.729688 
L 595.847806 -36.729688 
L 597.708562 -36.729688 
L 599.569319 -36.729688 
L 601.430076 -36.729688 
L 603.290833 -36.729688 
L 605.15159 -36.729688 
L 607.012347 -36.729688 
L 608.873104 -36.729688 
L 610.733861 -36.729688 
L 612.594618 -36.729688 
L 614.455375 -36.729688 
L 616.316131 -36.729688 
L 618.176888 -36.729688 
L 620.037645 -36.729688 
L 621.898402 -36.729688 
L 623.759159 -36.729688 
L 625.619916 -36.729688 
L 627.480673 -36.729688 
L 629.34143 -36.729688 
L 631.202187 -36.729688 
L 633.062944 -36.729688 
L 634.9237 -36.729688 
L 636.784457 -36.729688 
L 638.645214 -36.729688 
L 640.505971 -36.729688 
L 642.366728 -36.729688 
L 644.227485 -36.729688 
L 646.088242 -36.729688 
L 647.948999 -36.729688 
L 649.809756 -36.729688 
L 651.670513 -36.729688 
L 653.531269 -36.729688 
L 655.392026 -36.729688 
L 657.252783 -36.729688 
L 659.11354 -36.729688 
L 660.974297 -36.729688 
L 662.835054 -36.729688 
L 664.695811 -36.729688 
L 666.556568 -36.729688 
L 668.417325 -36.729688 
L 670.278082 -36.729688 
L 672.138838 -36.729688 
L 673.999595 -36.729688 
L 675.860352 -36.729688 
L 677.721109 -36.729688 
L 679.581866 -36.729688 
L 681.442623 -36.729688 
L 683.30338 -36.729688 
L 685.164137 -36.729688 
L 687.024894 -36.729688 
L 688.885651 -36.729688 
L 690.746407 -36.729688 
L 692.607164 -36.729688 
L 694.467921 -36.729688 
L 696.328678 -36.729688 
L 698.189435 -36.729688 
L 700.050192 -36.729688 
L 701.910949 -36.729688 
L 703.771706 -36.729688 
L 703.771706 -36.805385 
L 703.771706 -36.805385 
L 701.910949 -36.831938 
L 700.050192 -36.866595 
L 698.189435 -36.911407 
L 696.328678 -36.968805 
L 694.467921 -37.041643 
L 692.607164 -37.133217 
L 690.746407 -37.24729 
L 688.885651 -37.388096 
L 687.024894 -37.560328 
L 685.164137 -37.769117 
L 683.30338 -38.019986 
L 681.442623 -38.318786 
L 679.581866 -38.671616 
L 677.721109 -39.084724 
L 675.860352 -39.5644 
L 673.999595 -40.11685 
L 672.138838 -40.748082 
L 670.278082 -41.463781 
L 668.417325 -42.269201 
L 666.556568 -43.169072 
L 664.695811 -44.16753 
L 662.835054 -45.268067 
L 660.974297 -46.473518 
L 659.11354 -47.786074 
L 657.252783 -49.207316 
L 655.392026 -50.738284 
L 653.531269 -52.379555 
L 651.670513 -54.131334 
L 649.809756 -55.993548 
L 647.948999 -57.965931 
L 646.088242 -60.048099 
L 644.227485 -62.239599 
L 642.366728 -64.539936 
L 640.505971 -66.948576 
L 638.645214 -69.464915 
L 636.784457 -72.088235 
L 634.9237 -74.817633 
L 633.062944 -77.65195 
L 631.202187 -80.589694 
L 629.34143 -83.628968 
L 627.480673 -86.767419 
L 625.619916 -90.002212 
L 623.759159 -93.330016 
L 621.898402 -96.74704 
L 620.037645 -100.249074 
L 618.176888 -103.83157 
L 616.316131 -107.489733 
L 614.455375 -111.218616 
L 612.594618 -115.013225 
L 610.733861 -118.8686 
L 608.873104 -122.779891 
L 607.012347 -126.742393 
L 605.15159 -130.751563 
L 603.290833 -134.802988 
L 601.430076 -138.892331 
L 599.569319 -143.015245 
L 597.708562 -147.167255 
L 595.847806 -151.343642 
L 593.987049 -155.539304 
L 592.126292 -159.748637 
L 590.265535 -163.965425 
L 588.404778 -168.182762 
L 586.544021 -172.393001 
L 584.683264 -176.587749 
L 582.822507 -180.757892 
L 580.96175 -184.89367 
L 579.100993 -188.984783 
L 577.240237 -193.020522 
L 575.37948 -196.989924 
L 573.518723 -200.881938 
L 571.657966 -204.685588 
L 569.797209 -208.390123 
L 567.936452 -211.985143 
L 566.075695 -215.460705 
L 564.214938 -218.807371 
L 562.354181 -222.016233 
L 560.493424 -225.078873 
L 558.632668 -227.987296 
L 556.771911 -230.733805 
L 554.911154 -233.310849 
L 553.050397 -235.710845 
L 551.18964 -237.925974 
L 549.328883 -239.947988 
L 547.468126 -241.768021 
L 545.607369 -243.376431 
L 543.746612 -244.762683 
L 541.885855 -245.915295 
L 540.025098 -246.821854 
L 538.164342 -247.469105 
L 536.303585 -247.843145 
L 534.442828 -247.929688 
L 532.582071 -247.714426 
L 530.721314 -247.183469 
L 528.860557 -246.323841 
L 526.9998 -245.124029 
L 525.139043 -243.574544 
L 523.278286 -241.668487 
L 521.417529 -239.402072 
L 519.556773 -236.775093 
L 517.696016 -233.791295 
L 515.835259 -230.458641 
L 513.974502 -226.789435 
L 512.113745 -222.800303 
L 510.252988 -218.51203 
L 508.392231 -213.949236 
L 506.531474 -209.139918 
L 504.670717 -204.114875 
L 502.80996 -198.907034 
L 500.949204 -193.550701 
L 499.088447 -188.080799 
L 497.22769 -182.532084 
L 495.366933 -176.938415 
L 493.506176 -171.332082 
L 491.645419 -165.743229 
L 489.784662 -160.199393 
L 487.923905 -154.725168 
L 486.063148 -149.342005 
L 484.202391 -144.068141 
L 482.341635 -138.918652 
L 480.480878 -133.905613 
L 478.620121 -129.038341 
L 476.759364 -124.323709 
L 474.898607 -119.766489 
L 473.03785 -115.369716 
L 471.177093 -111.13504 
L 469.316336 -107.063047 
L 467.455579 -103.15354 
L 465.594822 -99.405758 
L 463.734066 -95.818541 
L 461.873309 -92.390432 
L 460.012552 -89.119721 
L 458.151795 -86.004441 
L 456.291038 -83.042335 
L 454.430281 -80.230794 
L 452.569524 -77.566792 
L 450.708767 -75.046832 
L 448.84801 -72.666903 
L 446.987253 -70.422478 
L 445.126497 -68.308547 
L 443.26574 -66.31968 
L 441.404983 -64.450144 
L 439.544226 -62.69404 
L 437.683469 -61.045465 
L 435.822712 -59.49869 
L 433.961955 -58.048323 
L 432.101198 -56.689461 
L 430.240441 -55.417802 
L 428.379684 -54.229713 
L 426.518928 -53.12224 
L 424.658171 -52.093061 
L 422.797414 -51.140372 
L 420.936657 -50.262726 
L 419.0759 -49.458828 
L 417.215143 -48.727298 
L 415.354386 -48.066427 
L 413.493629 -47.473949 
L 411.632872 -46.946841 
L 409.772115 -46.481171 
L 407.911359 -46.072021 
L 406.050602 -45.713479 
L 404.189845 -45.398715 
L 402.329088 -45.120137 
L 400.468331 -44.869615 
L 398.607574 -44.638763 
L 396.746817 -44.419255 
L 394.88606 -44.203156 
L 393.025303 -43.983251 
L 391.164546 -43.753328 
L 389.30379 -43.508422 
L 387.443033 -43.244987 
L 385.582276 -42.960988 
L 383.721519 -42.65591 
L 381.860762 -42.330692 
L 380.000005 -41.987582 
L 378.139248 -41.629931 
L 376.278491 -41.261945 
L 374.417734 -40.888409 
L 372.556977 -40.514405 
L 370.69622 -40.145033 
L 368.835464 -39.785166 
L 366.974707 -39.439236 
L 365.11395 -39.111073 
L 363.253193 -38.803783 
L 361.392436 -38.519692 
L 359.531679 -38.260326 
L 357.670922 -38.026437 
L 355.810165 -37.818071 
L 353.949408 -37.634652 
L 352.088651 -37.475086 
L 350.227895 -37.337879 
L 348.367138 -37.221247 
L 346.506381 -37.123226 
L 344.645624 -37.041768 
L 342.784867 -36.974823 
L 340.92411 -36.920411 
L 339.063353 -36.876666 
L 337.202596 -36.841877 
L 335.341839 -36.814507 
L 333.481082 -36.793204 
z
" style="stroke: #4c72b0"/>
    </defs>
    <g>
     <use xlink:href="#m1145b47583" x="0" y="265.689687" style="fill: #4c72b0; fill-opacity: 0.25; stroke: #4c72b0"/>
    </g>
   </g>
   <g id="line2d_34">
    <path d="M 211.384057 228.96 
L 211.384057 7.2 
" style="fill: none; stroke-dasharray: 2.96,1.28; stroke-dashoffset: 0; stroke: #d3d3d3; stroke-width: 0.8"/>
   </g>
   <g id="line2d_35">
    <path d="M 426.873256 228.96 
L 426.873256 7.2 
" style="fill: none; stroke-dasharray: 2.96,1.28; stroke-dashoffset: 0; stroke: #d3d3d3; stroke-width: 0.8"/>
   </g>
   <g id="line2d_36">
    <path d="M 335.216858 228.96 
L 335.216858 7.2 
" style="fill: none; stroke-dasharray: 2.96,1.28; stroke-dashoffset: 0; stroke: #d3d3d3; stroke-width: 0.8"/>
   </g>
   <g id="line2d_37">
    <path d="M 7.2 228.96 
L 844.2 228.96 
" style="fill: none; stroke: #808080; stroke-width: 0.5; stroke-linecap: round"/>
   </g>
   <g id="text_12">
    <text style="font-size: 8px; font-family: 'Arial', 'DejaVu Sans', 'Liberation Sans', 'Bitstream Vera Sans', sans-serif; fill: #808080" transform="translate(217.637807 124.59635) rotate(-90)">International Poverty Line: $3.00</text>
   </g>
   <g id="text_13">
    <text style="font-size: 8px; font-family: 'Arial', 'DejaVu Sans', 'Liberation Sans', 'Bitstream Vera Sans', sans-serif; fill: #808080" transform="translate(432.599506 81.31135) rotate(-90)">World mean: $21.69</text>
   </g>
   <g id="text_14">
    <text style="font-size: 8px; font-family: 'Arial', 'DejaVu Sans', 'Liberation Sans', 'Bitstream Vera Sans', sans-serif; fill: #808080" transform="translate(340.943108 83.08885) rotate(-90)">World median: $9.35</text>
   </g>
   <g id="text_15">
    <text style="font-size: 10px; font-family: 'Arial', 'DejaVu Sans', 'Liberation Sans', 'Bitstream Vera Sans', sans-serif; text-anchor: middle" x="538.830653" y="226.855312" transform="rotate(-0 538.830653 226.855312)">Denmark (2022)</text>
   </g>
   <g id="text_16">
    <text style="font-size: 10px; font-family: 'Arial', 'DejaVu Sans', 'Liberation Sans', 'Bitstream Vera Sans', sans-serif; text-anchor: middle" x="226.973621" y="226.855312" transform="rotate(-0 226.973621 226.855312)">Ethiopia (2021)</text>
   </g>
  </g>
 </g>
</svg>
