<?xml version="1.0" encoding="utf-8" standalone="no"?>
<!DOCTYPE svg PUBLIC "-//W3C//DTD SVG 1.1//EN"
  "http://www.w3.org/Graphics/SVG/1.1/DTD/svg11.dtd">
<svg xmlns:xlink="http://www.w3.org/1999/xlink" width="865.302344pt" height="265.689687pt" viewBox="0 0 865.302344 265.689687" xmlns="http://www.w3.org/2000/svg" version="1.1">
 <metadata>
  <rdf:RDF xmlns:dc="http://purl.org/dc/elements/1.1/" xmlns:cc="http://creativecommons.org/ns#" xmlns:rdf="http://www.w3.org/1999/02/22-rdf-syntax-ns#">
   <cc:Work>
    <dc:type rdf:resource="http://purl.org/dc/dcmitype/StillImage"/>
    <dc:date>2026-01-02T17:38:46.094721</dc:date>
    <dc:format>image/svg+xml</dc:format>
    <dc:creator>
     <cc:Agent>
      <dc:title>Matplotlib v3.10.1, https://matplotlib.org/</dc:title>
     </cc:Agent>
    </dc:creator>
   </cc:Work>
  </rdf:RDF>
 </metadata>
 <defs>
  <style type="text/css">*{stroke-linejoin: round; stroke-linecap: butt}</style>
 </defs>
 <g id="figure_1">
  <g id="patch_1">
   <path d="M 0 265.689687 
L 865.302344 265.689687 
L 865.302344 0 
L 0 0 
z
" style="fill: #ffffff"/>
  </g>
  <g id="axes_1">
   <g id="patch_2">
    <path d="M 7.2 228.96 
L 844.2 228.96 
L 844.2 7.2 
L 7.2 7.2 
z
" style="fill: #ffffff"/>
   </g>
   <g id="matplotlib.axis_1">
    <g id="xtick_1">
     <g id="line2d_1">
      <defs>
       <path id="mf796ffc595" d="M 0 0 
L 0 3.5 
" style="stroke: #262626; stroke-width: 0.8"/>
      </defs>
      <g>
       <use xlink:href="#mf796ffc595" x="66.780541" y="228.96" style="fill: #262626; stroke: #262626; stroke-width: 0.8"/>
      </g>
     </g>
     <g id="text_1">
      <text style="font-size: 10px; font-family: 'Arial', 'DejaVu Sans', 'Liberation Sans', 'Bitstream Vera Sans', sans-serif; text-anchor: middle; fill: #262626" x="66.780541" y="243.117812" transform="rotate(-0 66.780541 243.117812)">$1</text>
     </g>
    </g>
    <g id="xtick_2">
     <g id="line2d_2">
      <g>
       <use xlink:href="#mf796ffc595" x="144.7894" y="228.96" style="fill: #262626; stroke: #262626; stroke-width: 0.8"/>
      </g>
     </g>
     <g id="text_2">
      <text style="font-size: 10px; font-family: 'Arial', 'DejaVu Sans', 'Liberation Sans', 'Bitstream Vera Sans', sans-serif; text-anchor: middle; fill: #262626" x="144.7894" y="243.117812" transform="rotate(-0 144.7894 243.117812)">$2</text>
     </g>
    </g>
    <g id="xtick_3">
     <g id="line2d_3">
      <g>
       <use xlink:href="#mf796ffc595" x="247.911502" y="228.96" style="fill: #262626; stroke: #262626; stroke-width: 0.8"/>
      </g>
     </g>
     <g id="text_3">
      <text style="font-size: 10px; font-family: 'Arial', 'DejaVu Sans', 'Liberation Sans', 'Bitstream Vera Sans', sans-serif; text-anchor: middle; fill: #262626" x="247.911502" y="243.117812" transform="rotate(-0 247.911502 243.117812)">$5</text>
     </g>
    </g>
    <g id="xtick_4">
     <g id="line2d_4">
      <g>
       <use xlink:href="#mf796ffc595" x="325.920361" y="228.96" style="fill: #262626; stroke: #262626; stroke-width: 0.8"/>
      </g>
     </g>
     <g id="text_4">
      <text style="font-size: 10px; font-family: 'Arial', 'DejaVu Sans', 'Liberation Sans', 'Bitstream Vera Sans', sans-serif; text-anchor: middle; fill: #262626" x="325.920361" y="243.117812" transform="rotate(-0 325.920361 243.117812)">$10</text>
     </g>
    </g>
    <g id="xtick_5">
     <g id="line2d_5">
      <g>
       <use xlink:href="#mf796ffc595" x="403.929219" y="228.96" style="fill: #262626; stroke: #262626; stroke-width: 0.8"/>
      </g>
     </g>
     <g id="text_5">
      <text style="font-size: 10px; font-family: 'Arial', 'DejaVu Sans', 'Liberation Sans', 'Bitstream Vera Sans', sans-serif; text-anchor: middle; fill: #262626" x="403.929219" y="243.117812" transform="rotate(-0 403.929219 243.117812)">$20</text>
     </g>
    </g>
    <g id="xtick_6">
     <g id="line2d_6">
      <g>
       <use xlink:href="#mf796ffc595" x="507.051321" y="228.96" style="fill: #262626; stroke: #262626; stroke-width: 0.8"/>
      </g>
     </g>
     <g id="text_6">
      <text style="font-size: 10px; font-family: 'Arial', 'DejaVu Sans', 'Liberation Sans', 'Bitstream Vera Sans', sans-serif; text-anchor: middle; fill: #262626" x="507.051321" y="243.117812" transform="rotate(-0 507.051321 243.117812)">$50</text>
     </g>
    </g>
    <g id="xtick_7">
     <g id="line2d_7">
      <g>
       <use xlink:href="#mf796ffc595" x="585.06018" y="228.96" style="fill: #262626; stroke: #262626; stroke-width: 0.8"/>
      </g>
     </g>
     <g id="text_7">
      <text style="font-size: 10px; font-family: 'Arial', 'DejaVu Sans', 'Liberation Sans', 'Bitstream Vera Sans', sans-serif; text-anchor: middle; fill: #262626" x="585.06018" y="243.117812" transform="rotate(-0 585.06018 243.117812)">$100</text>
     </g>
    </g>
    <g id="xtick_8">
     <g id="line2d_8">
      <g>
       <use xlink:href="#mf796ffc595" x="663.069039" y="228.96" style="fill: #262626; stroke: #262626; stroke-width: 0.8"/>
      </g>
     </g>
     <g id="text_8">
      <text style="font-size: 10px; font-family: 'Arial', 'DejaVu Sans', 'Liberation Sans', 'Bitstream Vera Sans', sans-serif; text-anchor: middle; fill: #262626" x="663.069039" y="243.117812" transform="rotate(-0 663.069039 243.117812)">$200</text>
     </g>
    </g>
    <g id="xtick_9">
     <g id="line2d_9">
      <g>
       <use xlink:href="#mf796ffc595" x="766.191141" y="228.96" style="fill: #262626; stroke: #262626; stroke-width: 0.8"/>
      </g>
     </g>
     <g id="text_9">
      <text style="font-size: 10px; font-family: 'Arial', 'DejaVu Sans', 'Liberation Sans', 'Bitstream Vera Sans', sans-serif; text-anchor: middle; fill: #262626" x="766.191141" y="243.117812" transform="rotate(-0 766.191141 243.117812)">$500</text>
     </g>
    </g>
    <g id="xtick_10">
     <g id="line2d_10">
      <g>
       <use xlink:href="#mf796ffc595" x="844.2" y="228.96" style="fill: #262626; stroke: #262626; stroke-width: 0.8"/>
      </g>
     </g>
     <g id="text_10">
      <text style="font-size: 10px; font-family: 'Arial', 'DejaVu Sans', 'Liberation Sans', 'Bitstream Vera Sans', sans-serif; text-anchor: middle; fill: #262626" x="844.2" y="243.117812" transform="rotate(-0 844.2 243.117812)">$1000</text>
     </g>
    </g>
    <g id="xtick_11">
     <g id="line2d_11">
      <defs>
       <path id="m0db4aa6046" d="M 0 0 
L 0 2 
" style="stroke: #262626; stroke-width: 0.6"/>
      </defs>
      <g>
       <use xlink:href="#m0db4aa6046" x="9.290696" y="228.96" style="fill: #262626; stroke: #262626; stroke-width: 0.6"/>
      </g>
     </g>
    </g>
    <g id="xtick_12">
     <g id="line2d_12">
      <g>
       <use xlink:href="#m0db4aa6046" x="26.639275" y="228.96" style="fill: #262626; stroke: #262626; stroke-width: 0.6"/>
      </g>
     </g>
    </g>
    <g id="xtick_13">
     <g id="line2d_13">
      <g>
       <use xlink:href="#m0db4aa6046" x="41.667298" y="228.96" style="fill: #262626; stroke: #262626; stroke-width: 0.6"/>
      </g>
     </g>
    </g>
    <g id="xtick_14">
     <g id="line2d_14">
      <g>
       <use xlink:href="#m0db4aa6046" x="54.922953" y="228.96" style="fill: #262626; stroke: #262626; stroke-width: 0.6"/>
      </g>
     </g>
    </g>
    <g id="xtick_15">
     <g id="line2d_15">
      <g>
       <use xlink:href="#m0db4aa6046" x="190.421657" y="228.96" style="fill: #262626; stroke: #262626; stroke-width: 0.6"/>
      </g>
     </g>
    </g>
    <g id="xtick_16">
     <g id="line2d_16">
      <g>
       <use xlink:href="#m0db4aa6046" x="222.798258" y="228.96" style="fill: #262626; stroke: #262626; stroke-width: 0.6"/>
      </g>
     </g>
    </g>
    <g id="xtick_17">
     <g id="line2d_17">
      <g>
       <use xlink:href="#m0db4aa6046" x="268.430516" y="228.96" style="fill: #262626; stroke: #262626; stroke-width: 0.6"/>
      </g>
     </g>
    </g>
    <g id="xtick_18">
     <g id="line2d_18">
      <g>
       <use xlink:href="#m0db4aa6046" x="285.779095" y="228.96" style="fill: #262626; stroke: #262626; stroke-width: 0.6"/>
      </g>
     </g>
    </g>
    <g id="xtick_19">
     <g id="line2d_19">
      <g>
       <use xlink:href="#m0db4aa6046" x="300.807117" y="228.96" style="fill: #262626; stroke: #262626; stroke-width: 0.6"/>
      </g>
     </g>
    </g>
    <g id="xtick_20">
     <g id="line2d_20">
      <g>
       <use xlink:href="#m0db4aa6046" x="314.062773" y="228.96" style="fill: #262626; stroke: #262626; stroke-width: 0.6"/>
      </g>
     </g>
    </g>
    <g id="xtick_21">
     <g id="line2d_21">
      <g>
       <use xlink:href="#m0db4aa6046" x="449.561477" y="228.96" style="fill: #262626; stroke: #262626; stroke-width: 0.6"/>
      </g>
     </g>
    </g>
    <g id="xtick_22">
     <g id="line2d_22">
      <g>
       <use xlink:href="#m0db4aa6046" x="481.938078" y="228.96" style="fill: #262626; stroke: #262626; stroke-width: 0.6"/>
      </g>
     </g>
    </g>
    <g id="xtick_23">
     <g id="line2d_23">
      <g>
       <use xlink:href="#m0db4aa6046" x="527.570335" y="228.96" style="fill: #262626; stroke: #262626; stroke-width: 0.6"/>
      </g>
     </g>
    </g>
    <g id="xtick_24">
     <g id="line2d_24">
      <g>
       <use xlink:href="#m0db4aa6046" x="544.918914" y="228.96" style="fill: #262626; stroke: #262626; stroke-width: 0.6"/>
      </g>
     </g>
    </g>
    <g id="xtick_25">
     <g id="line2d_25">
      <g>
       <use xlink:href="#m0db4aa6046" x="559.946937" y="228.96" style="fill: #262626; stroke: #262626; stroke-width: 0.6"/>
      </g>
     </g>
    </g>
    <g id="xtick_26">
     <g id="line2d_26">
      <g>
       <use xlink:href="#m0db4aa6046" x="573.202592" y="228.96" style="fill: #262626; stroke: #262626; stroke-width: 0.6"/>
      </g>
     </g>
    </g>
    <g id="xtick_27">
     <g id="line2d_27">
      <g>
       <use xlink:href="#m0db4aa6046" x="708.701296" y="228.96" style="fill: #262626; stroke: #262626; stroke-width: 0.6"/>
      </g>
     </g>
    </g>
    <g id="xtick_28">
     <g id="line2d_28">
      <g>
       <use xlink:href="#m0db4aa6046" x="741.077898" y="228.96" style="fill: #262626; stroke: #262626; stroke-width: 0.6"/>
      </g>
     </g>
    </g>
    <g id="xtick_29">
     <g id="line2d_29">
      <g>
       <use xlink:href="#m0db4aa6046" x="786.710155" y="228.96" style="fill: #262626; stroke: #262626; stroke-width: 0.6"/>
      </g>
     </g>
    </g>
    <g id="xtick_30">
     <g id="line2d_30">
      <g>
       <use xlink:href="#m0db4aa6046" x="804.058734" y="228.96" style="fill: #262626; stroke: #262626; stroke-width: 0.6"/>
      </g>
     </g>
    </g>
    <g id="xtick_31">
     <g id="line2d_31">
      <g>
       <use xlink:href="#m0db4aa6046" x="819.086757" y="228.96" style="fill: #262626; stroke: #262626; stroke-width: 0.6"/>
      </g>
     </g>
    </g>
    <g id="xtick_32">
     <g id="line2d_32">
      <g>
       <use xlink:href="#m0db4aa6046" x="832.342412" y="228.96" style="fill: #262626; stroke: #262626; stroke-width: 0.6"/>
      </g>
     </g>
    </g>
    <g id="text_11">
     <text style="font-size: 10px; font-family: 'Arial', 'DejaVu Sans', 'Liberation Sans', 'Bitstream Vera Sans', sans-serif; text-anchor: middle; fill: #262626" x="425.7" y="256.385" transform="rotate(-0 425.7 256.385)">Income or consumption (day)</text>
    </g>
   </g>
   <g id="matplotlib.axis_2"/>
   <g id="FillBetweenPolyCollection_1">
    <defs>
     <path id="m8e608133f6" d="M 41.122983 -36.750296 
L 41.122983 -36.729688 
L 43.022872 -36.729688 
L 44.922761 -36.729688 
L 46.82265 -36.729688 
L 48.722539 -36.729688 
L 50.622428 -36.729688 
L 52.522316 -36.729688 
L 54.422205 -36.729688 
L 56.322094 -36.729688 
L 58.221983 -36.729688 
L 60.121872 -36.729688 
L 62.021761 -36.729688 
L 63.92165 -36.729688 
L 65.821539 -36.729688 
L 67.721428 -36.729688 
L 69.621317 -36.729688 
L 71.521206 -36.729688 
L 73.421094 -36.729688 
L 75.320983 -36.729688 
L 77.220872 -36.729688 
L 79.120761 -36.729688 
L 81.02065 -36.729688 
L 82.920539 -36.729688 
L 84.820428 -36.729688 
L 86.720317 -36.729688 
L 88.620206 -36.729688 
L 90.520095 -36.729688 
L 92.419984 -36.729688 
L 94.319872 -36.729688 
L 96.219761 -36.729688 
L 98.11965 -36.729688 
L 100.019539 -36.729688 
L 101.919428 -36.729688 
L 103.819317 -36.729688 
L 105.719206 -36.729688 
L 107.619095 -36.729688 
L 109.518984 -36.729688 
L 111.418873 -36.729688 
L 113.318761 -36.729688 
L 115.21865 -36.729688 
L 117.118539 -36.729688 
L 119.018428 -36.729688 
L 120.918317 -36.729688 
L 122.818206 -36.729688 
L 124.718095 -36.729688 
L 126.617984 -36.729688 
L 128.517873 -36.729688 
L 130.417762 -36.729688 
L 132.317651 -36.729688 
L 134.217539 -36.729688 
L 136.117428 -36.729688 
L 138.017317 -36.729688 
L 139.917206 -36.729688 
L 141.817095 -36.729688 
L 143.716984 -36.729688 
L 145.616873 -36.729688 
L 147.516762 -36.729688 
L 149.416651 -36.729688 
L 151.31654 -36.729688 
L 153.216429 -36.729688 
L 155.116317 -36.729688 
L 157.016206 -36.729688 
L 158.916095 -36.729688 
L 160.815984 -36.729688 
L 162.715873 -36.729688 
L 164.615762 -36.729688 
L 166.515651 -36.729688 
L 168.41554 -36.729688 
L 170.315429 -36.729688 
L 172.215318 -36.729688 
L 174.115207 -36.729688 
L 176.015095 -36.729688 
L 177.914984 -36.729688 
L 179.814873 -36.729688 
L 181.714762 -36.729688 
L 183.614651 -36.729688 
L 185.51454 -36.729688 
L 187.414429 -36.729688 
L 189.314318 -36.729688 
L 191.214207 -36.729688 
L 193.114096 -36.729688 
L 195.013984 -36.729688 
L 196.913873 -36.729688 
L 198.813762 -36.729688 
L 200.713651 -36.729688 
L 202.61354 -36.729688 
L 204.513429 -36.729688 
L 206.413318 -36.729688 
L 208.313207 -36.729688 
L 210.213096 -36.729688 
L 212.112985 -36.729688 
L 214.012874 -36.729688 
L 215.912762 -36.729688 
L 217.812651 -36.729688 
L 219.71254 -36.729688 
L 221.612429 -36.729688 
L 223.512318 -36.729688 
L 225.412207 -36.729688 
L 227.312096 -36.729688 
L 229.211985 -36.729688 
L 231.111874 -36.729688 
L 233.011763 -36.729688 
L 234.911652 -36.729688 
L 236.81154 -36.729688 
L 238.711429 -36.729688 
L 240.611318 -36.729688 
L 242.511207 -36.729688 
L 244.411096 -36.729688 
L 246.310985 -36.729688 
L 248.210874 -36.729688 
L 250.110763 -36.729688 
L 252.010652 -36.729688 
L 253.910541 -36.729688 
L 255.81043 -36.729688 
L 257.710318 -36.729688 
L 259.610207 -36.729688 
L 261.510096 -36.729688 
L 263.409985 -36.729688 
L 265.309874 -36.729688 
L 267.209763 -36.729688 
L 269.109652 -36.729688 
L 271.009541 -36.729688 
L 272.90943 -36.729688 
L 274.809319 -36.729688 
L 276.709208 -36.729688 
L 278.609096 -36.729688 
L 280.508985 -36.729688 
L 282.408874 -36.729688 
L 284.308763 -36.729688 
L 286.208652 -36.729688 
L 288.108541 -36.729688 
L 290.00843 -36.729688 
L 291.908319 -36.729688 
L 293.808208 -36.729688 
L 295.708097 -36.729688 
L 297.607985 -36.729688 
L 299.507874 -36.729688 
L 301.407763 -36.729688 
L 303.307652 -36.729688 
L 305.207541 -36.729688 
L 307.10743 -36.729688 
L 309.007319 -36.729688 
L 310.907208 -36.729688 
L 312.807097 -36.729688 
L 314.706986 -36.729688 
L 316.606875 -36.729688 
L 318.506763 -36.729688 
L 320.406652 -36.729688 
L 322.306541 -36.729688 
L 324.20643 -36.729688 
L 326.106319 -36.729688 
L 328.006208 -36.729688 
L 329.906097 -36.729688 
L 331.805986 -36.729688 
L 333.705875 -36.729688 
L 335.605764 -36.729688 
L 337.505653 -36.729688 
L 339.405541 -36.729688 
L 341.30543 -36.729688 
L 343.205319 -36.729688 
L 345.105208 -36.729688 
L 347.005097 -36.729688 
L 348.904986 -36.729688 
L 350.804875 -36.729688 
L 352.704764 -36.729688 
L 354.604653 -36.729688 
L 356.504542 -36.729688 
L 358.404431 -36.729688 
L 360.304319 -36.729688 
L 362.204208 -36.729688 
L 364.104097 -36.729688 
L 366.003986 -36.729688 
L 367.903875 -36.729688 
L 369.803764 -36.729688 
L 371.703653 -36.729688 
L 373.603542 -36.729688 
L 375.503431 -36.729688 
L 377.40332 -36.729688 
L 379.303208 -36.729688 
L 381.203097 -36.729688 
L 383.102986 -36.729688 
L 385.002875 -36.729688 
L 386.902764 -36.729688 
L 388.802653 -36.729688 
L 390.702542 -36.729688 
L 392.602431 -36.729688 
L 394.50232 -36.729688 
L 396.402209 -36.729688 
L 398.302098 -36.729688 
L 400.201986 -36.729688 
L 402.101875 -36.729688 
L 404.001764 -36.729688 
L 405.901653 -36.729688 
L 407.801542 -36.729688 
L 409.701431 -36.729688 
L 411.60132 -36.729688 
L 413.501209 -36.729688 
L 415.401098 -36.729688 
L 417.300987 -36.729688 
L 419.200876 -36.729688 
L 419.200876 -36.749956 
L 419.200876 -36.749956 
L 417.300987 -36.760509 
L 415.401098 -36.775819 
L 413.501209 -36.797654 
L 411.60132 -36.828269 
L 409.701431 -36.870472 
L 407.801542 -36.927677 
L 405.901653 -37.003922 
L 404.001764 -37.103862 
L 402.101875 -37.2327 
L 400.201986 -37.396079 
L 398.302098 -37.599898 
L 396.402209 -37.85009 
L 394.50232 -38.152334 
L 392.602431 -38.511756 
L 390.702542 -38.932604 
L 388.802653 -39.417956 
L 386.902764 -39.969468 
L 385.002875 -40.587211 
L 383.102986 -41.269595 
L 381.203097 -42.01342 
L 379.303208 -42.814037 
L 377.40332 -43.665622 
L 375.503431 -44.56154 
L 373.603542 -45.494767 
L 371.703653 -46.458328 
L 369.803764 -47.445729 
L 367.903875 -48.45133 
L 366.003986 -49.470642 
L 364.104097 -50.500517 
L 362.204208 -51.539233 
L 360.304319 -52.586473 
L 358.404431 -53.643206 
L 356.504542 -54.711496 
L 354.604653 -55.794262 
L 352.704764 -56.895012 
L 350.804875 -58.017581 
L 348.904986 -59.165898 
L 347.005097 -60.343786 
L 345.105208 -61.554821 
L 343.205319 -62.802242 
L 341.30543 -64.088917 
L 339.405541 -65.417357 
L 337.505653 -66.789768 
L 335.605764 -68.208122 
L 333.705875 -69.674248 
L 331.805986 -71.189911 
L 329.906097 -72.756889 
L 328.006208 -74.377022 
L 326.106319 -76.052242 
L 324.20643 -77.784574 
L 322.306541 -79.576121 
L 320.406652 -81.429024 
L 318.506763 -83.345422 
L 316.606875 -85.327401 
L 314.706986 -87.37695 
L 312.807097 -89.495927 
L 310.907208 -91.686027 
L 309.007319 -93.948759 
L 307.10743 -96.28542 
L 305.207541 -98.697067 
L 303.307652 -101.184466 
L 301.407763 -103.748027 
L 299.507874 -106.387714 
L 297.607985 -109.102934 
L 295.708097 -111.892412 
L 293.808208 -114.754066 
L 291.908319 -117.684888 
L 290.00843 -120.680854 
L 288.108541 -123.736865 
L 286.208652 -126.846737 
L 284.308763 -130.003234 
L 282.408874 -133.198149 
L 280.508985 -136.422418 
L 278.609096 -139.666262 
L 276.709208 -142.919357 
L 274.809319 -146.171004 
L 272.90943 -149.410321 
L 271.009541 -152.626438 
L 269.109652 -155.808708 
L 267.209763 -158.946937 
L 265.309874 -162.031625 
L 263.409985 -165.054206 
L 261.510096 -168.007287 
L 259.610207 -170.884834 
L 257.710318 -173.682296 
L 255.81043 -176.396615 
L 253.910541 -179.026119 
L 252.010652 -181.570268 
L 250.110763 -184.029268 
L 248.210874 -186.403575 
L 246.310985 -188.693344 
L 244.411096 -190.897873 
L 242.511207 -193.015103 
L 240.611318 -195.041252 
L 238.711429 -196.970613 
L 236.81154 -198.795551 
L 234.911652 -200.506699 
L 233.011763 -202.093321 
L 231.111874 -203.543812 
L 229.211985 -204.846252 
L 227.312096 -205.988967 
L 225.412207 -206.961021 
L 223.512318 -207.752598 
L 221.612429 -208.355245 
L 219.71254 -208.76196 
L 217.812651 -208.967162 
L 215.912762 -208.966564 
L 214.012874 -208.757009 
L 212.112985 -208.336325 
L 210.213096 -207.70325 
L 208.313207 -206.85747 
L 206.413318 -205.799777 
L 204.513429 -204.532354 
L 202.61354 -203.059136 
L 200.713651 -201.386208 
L 198.813762 -199.522153 
L 196.913873 -197.478274 
L 195.013984 -195.268642 
L 193.114096 -192.909889 
L 191.214207 -190.420766 
L 189.314318 -187.821446 
L 187.414429 -185.132657 
L 185.51454 -182.3747 
L 183.614651 -179.566465 
L 181.714762 -176.724543 
L 179.814873 -173.862523 
L 177.914984 -170.990553 
L 176.015095 -168.115179 
L 174.115207 -165.239488 
L 172.215318 -162.363498 
L 170.315429 -159.48475 
L 168.41554 -156.599014 
L 166.515651 -153.701033 
L 164.615762 -150.785231 
L 162.715873 -147.846337 
L 160.815984 -144.879874 
L 158.916095 -141.882523 
L 157.016206 -138.852343 
L 155.116317 -135.788897 
L 153.216429 -132.693273 
L 151.31654 -129.568059 
L 149.416651 -126.417266 
L 147.516762 -123.246224 
L 145.616873 -120.061452 
L 143.716984 -116.870494 
L 141.817095 -113.681727 
L 139.917206 -110.504131 
L 138.017317 -107.347027 
L 136.117428 -104.219788 
L 134.217539 -101.131541 
L 132.317651 -98.090884 
L 130.417762 -95.105627 
L 128.517873 -92.182593 
L 126.617984 -89.32749 
L 124.718095 -86.544847 
L 122.818206 -83.838042 
L 120.918317 -81.209383 
L 119.018428 -78.66024 
L 117.118539 -76.191209 
L 115.21865 -73.802274 
L 113.318761 -71.49296 
L 111.418873 -69.262463 
L 109.518984 -67.109744 
L 107.619095 -65.03361 
L 105.719206 -63.03277 
L 103.819317 -61.10589 
L 101.919428 -59.251662 
L 100.019539 -57.468883 
L 98.11965 -55.756563 
L 96.219761 -54.114043 
L 94.319872 -52.541108 
L 92.419984 -51.038092 
L 90.520095 -49.605938 
L 88.620206 -48.246201 
L 86.720317 -46.960978 
L 84.820428 -45.752763 
L 82.920539 -44.62423 
L 81.02065 -43.577962 
L 79.120761 -42.61615 
L 77.220872 -41.740299 
L 75.320983 -40.950962 
L 73.421094 -40.247539 
L 71.521206 -39.628165 
L 69.621317 -39.089686 
L 67.721428 -38.627739 
L 65.821539 -38.236913 
L 63.92165 -37.910975 
L 62.021761 -37.643142 
L 60.121872 -37.426366 
L 58.221983 -37.253605 
L 56.322094 -37.118073 
L 54.422205 -37.013431 
L 52.522316 -36.933934 
L 50.622428 -36.874519 
L 48.722539 -36.830839 
L 46.82265 -36.799255 
L 44.922761 -36.776797 
L 43.022872 -36.761093 
L 41.122983 -36.750296 
z
" style="stroke: #dd8452"/>
    </defs>
    <g>
     <use xlink:href="#m8e608133f6" x="0" y="265.689687" style="fill: #dd8452; fill-opacity: 0.25; stroke: #dd8452"/>
    </g>
   </g>
   <g id="FillBetweenPolyCollection_2">
    <defs>
     <path id="m0d3247a427" d="M 340.268982 -36.74097 
L 340.268982 -36.729688 
L 342.175081 -36.729688 
L 344.08118 -36.729688 
L 345.987279 -36.729688 
L 347.893378 -36.729688 
L 349.799476 -36.729688 
L 351.705575 -36.729688 
L 353.611674 -36.729688 
L 355.517773 -36.729688 
L 357.423872 -36.729688 
L 359.32997 -36.729688 
L 361.236069 -36.729688 
L 363.142168 -36.729688 
L 365.048267 -36.729688 
L 366.954366 -36.729688 
L 368.860464 -36.729688 
L 370.766563 -36.729688 
L 372.672662 -36.729688 
L 374.578761 -36.729688 
L 376.48486 -36.729688 
L 378.390958 -36.729688 
L 380.297057 -36.729688 
L 382.203156 -36.729688 
L 384.109255 -36.729688 
L 386.015354 -36.729688 
L 387.921452 -36.729688 
L 389.827551 -36.729688 
L 391.73365 -36.729688 
L 393.639749 -36.729688 
L 395.545848 -36.729688 
L 397.451946 -36.729688 
L 399.358045 -36.729688 
L 401.264144 -36.729688 
L 403.170243 -36.729688 
L 405.076342 -36.729688 
L 406.98244 -36.729688 
L 408.888539 -36.729688 
L 410.794638 -36.729688 
L 412.700737 -36.729688 
L 414.606836 -36.729688 
L 416.512934 -36.729688 
L 418.419033 -36.729688 
L 420.325132 -36.729688 
L 422.231231 -36.729688 
L 424.13733 -36.729688 
L 426.043428 -36.729688 
L 427.949527 -36.729688 
L 429.855626 -36.729688 
L 431.761725 -36.729688 
L 433.667824 -36.729688 
L 435.573922 -36.729688 
L 437.480021 -36.729688 
L 439.38612 -36.729688 
L 441.292219 -36.729688 
L 443.198318 -36.729688 
L 445.104416 -36.729688 
L 447.010515 -36.729688 
L 448.916614 -36.729688 
L 450.822713 -36.729688 
L 452.728812 -36.729688 
L 454.63491 -36.729688 
L 456.541009 -36.729688 
L 458.447108 -36.729688 
L 460.353207 -36.729688 
L 462.259306 -36.729688 
L 464.165404 -36.729688 
L 466.071503 -36.729688 
L 467.977602 -36.729688 
L 469.883701 -36.729688 
L 471.7898 -36.729688 
L 473.695898 -36.729688 
L 475.601997 -36.729688 
L 477.508096 -36.729688 
L 479.414195 -36.729688 
L 481.320294 -36.729688 
L 483.226392 -36.729688 
L 485.132491 -36.729688 
L 487.03859 -36.729688 
L 488.944689 -36.729688 
L 490.850788 -36.729688 
L 492.756886 -36.729688 
L 494.662985 -36.729688 
L 496.569084 -36.729688 
L 498.475183 -36.729688 
L 500.381281 -36.729688 
L 502.28738 -36.729688 
L 504.193479 -36.729688 
L 506.099578 -36.729688 
L 508.005677 -36.729688 
L 509.911775 -36.729688 
L 511.817874 -36.729688 
L 513.723973 -36.729688 
L 515.630072 -36.729688 
L 517.536171 -36.729688 
L 519.442269 -36.729688 
L 521.348368 -36.729688 
L 523.254467 -36.729688 
L 525.160566 -36.729688 
L 527.066665 -36.729688 
L 528.972763 -36.729688 
L 530.878862 -36.729688 
L 532.784961 -36.729688 
L 534.69106 -36.729688 
L 536.597159 -36.729688 
L 538.503257 -36.729688 
L 540.409356 -36.729688 
L 542.315455 -36.729688 
L 544.221554 -36.729688 
L 546.127653 -36.729688 
L 548.033751 -36.729688 
L 549.93985 -36.729688 
L 551.845949 -36.729688 
L 553.752048 -36.729688 
L 555.658147 -36.729688 
L 557.564245 -36.729688 
L 559.470344 -36.729688 
L 561.376443 -36.729688 
L 563.282542 -36.729688 
L 565.188641 -36.729688 
L 567.094739 -36.729688 
L 569.000838 -36.729688 
L 570.906937 -36.729688 
L 572.813036 -36.729688 
L 574.719135 -36.729688 
L 576.625233 -36.729688 
L 578.531332 -36.729688 
L 580.437431 -36.729688 
L 582.34353 -36.729688 
L 584.249629 -36.729688 
L 586.155727 -36.729688 
L 588.061826 -36.729688 
L 589.967925 -36.729688 
L 591.874024 -36.729688 
L 593.780123 -36.729688 
L 595.686221 -36.729688 
L 597.59232 -36.729688 
L 599.498419 -36.729688 
L 601.404518 -36.729688 
L 603.310617 -36.729688 
L 605.216715 -36.729688 
L 607.122814 -36.729688 
L 609.028913 -36.729688 
L 610.935012 -36.729688 
L 612.841111 -36.729688 
L 614.747209 -36.729688 
L 616.653308 -36.729688 
L 618.559407 -36.729688 
L 620.465506 -36.729688 
L 622.371605 -36.729688 
L 624.277703 -36.729688 
L 626.183802 -36.729688 
L 628.089901 -36.729688 
L 629.996 -36.729688 
L 631.902099 -36.729688 
L 633.808197 -36.729688 
L 635.714296 -36.729688 
L 637.620395 -36.729688 
L 639.526494 -36.729688 
L 641.432593 -36.729688 
L 643.338691 -36.729688 
L 645.24479 -36.729688 
L 647.150889 -36.729688 
L 649.056988 -36.729688 
L 650.963087 -36.729688 
L 652.869185 -36.729688 
L 654.775284 -36.729688 
L 656.681383 -36.729688 
L 658.587482 -36.729688 
L 660.493581 -36.729688 
L 662.399679 -36.729688 
L 664.305778 -36.729688 
L 666.211877 -36.729688 
L 668.117976 -36.729688 
L 670.024075 -36.729688 
L 671.930173 -36.729688 
L 673.836272 -36.729688 
L 675.742371 -36.729688 
L 677.64847 -36.729688 
L 679.554569 -36.729688 
L 681.460667 -36.729688 
L 683.366766 -36.729688 
L 685.272865 -36.729688 
L 687.178964 -36.729688 
L 689.085062 -36.729688 
L 690.991161 -36.729688 
L 692.89726 -36.729688 
L 694.803359 -36.729688 
L 696.709458 -36.729688 
L 698.615556 -36.729688 
L 700.521655 -36.729688 
L 702.427754 -36.729688 
L 704.333853 -36.729688 
L 706.239952 -36.729688 
L 708.14605 -36.729688 
L 710.052149 -36.729688 
L 711.958248 -36.729688 
L 713.864347 -36.729688 
L 715.770446 -36.729688 
L 717.676544 -36.729688 
L 719.582643 -36.729688 
L 719.582643 -36.74309 
L 719.582643 -36.74309 
L 717.676544 -36.751197 
L 715.770446 -36.763462 
L 713.864347 -36.781586 
L 711.958248 -36.807748 
L 710.052149 -36.844645 
L 708.14605 -36.895497 
L 706.239952 -36.963999 
L 704.333853 -37.054221 
L 702.427754 -37.170443 
L 700.521655 -37.316936 
L 698.615556 -37.497706 
L 696.709458 -37.716221 
L 694.803359 -37.975162 
L 692.89726 -38.276225 
L 690.991161 -38.619998 
L 689.085062 -39.005944 
L 687.178964 -39.43248 
L 685.272865 -39.897136 
L 683.366766 -40.396775 
L 681.460667 -40.927847 
L 679.554569 -41.486618 
L 677.64847 -42.069389 
L 675.742371 -42.672665 
L 673.836272 -43.293305 
L 671.930173 -43.928658 
L 670.024075 -44.576714 
L 668.117976 -45.236276 
L 666.211877 -45.907179 
L 664.305778 -46.590516 
L 662.399679 -47.288865 
L 660.493581 -48.006481 
L 658.587482 -48.749409 
L 656.681383 -49.525518 
L 654.775284 -50.344422 
L 652.869185 -51.217322 
L 650.963087 -52.156776 
L 649.056988 -53.176415 
L 647.150889 -54.290628 
L 645.24479 -55.514223 
L 643.338691 -56.86204 
L 641.432593 -58.348532 
L 639.526494 -59.987276 
L 637.620395 -61.79044 
L 635.714296 -63.768229 
L 633.808197 -65.928349 
L 631.902099 -68.275558 
L 629.996 -70.811358 
L 628.089901 -73.533883 
L 626.183802 -76.437992 
L 624.277703 -79.515546 
L 622.371605 -82.755818 
L 620.465506 -86.145952 
L 618.559407 -89.671384 
L 616.653308 -93.316166 
L 614.747209 -97.063161 
L 612.841111 -100.894141 
L 610.935012 -104.789864 
L 609.028913 -108.730251 
L 607.122814 -112.694776 
L 605.216715 -116.663161 
L 603.310617 -120.616401 
L 601.404518 -124.538035 
L 599.498419 -128.415511 
L 597.59232 -132.241387 
L 595.686221 -136.014131 
L 593.780123 -139.738283 
L 591.874024 -143.423875 
L 589.967925 -147.085148 
L 588.061826 -150.738766 
L 586.155727 -154.401835 
L 584.249629 -158.090104 
L 582.34353 -161.816653 
L 580.437431 -165.591251 
L 578.531332 -169.420349 
L 576.625233 -173.307503 
L 574.719135 -177.253854 
L 572.813036 -181.258298 
L 570.906937 -185.317064 
L 569.000838 -189.422641 
L 567.094739 -193.562244 
L 565.188641 -197.716265 
L 563.282542 -201.857252 
L 561.376443 -205.949968 
L 559.470344 -209.952864 
L 557.564245 -213.821009 
L 555.658147 -217.510154 
L 553.752048 -220.981301 
L 551.845949 -224.204981 
L 549.93985 -227.164417 
L 548.033751 -229.856958 
L 546.127653 -232.293476 
L 544.221554 -234.495802 
L 542.315455 -236.492618 
L 540.409356 -238.314493 
L 538.503257 -239.988818 
L 536.597159 -241.535361 
L 534.69106 -242.962952 
L 532.784961 -244.267564 
L 530.878862 -245.431794 
L 528.972763 -246.425542 
L 527.066665 -247.207595 
L 525.160566 -247.727814 
L 523.254467 -247.929688 
L 521.348368 -247.753143 
L 519.442269 -247.137585 
L 517.536171 -246.025168 
L 515.630072 -244.364286 
L 513.723973 -242.113153 
L 511.817874 -239.243231 
L 509.911775 -235.74214 
L 508.005677 -231.615664 
L 506.099578 -226.888495 
L 504.193479 -221.603515 
L 502.28738 -215.819629 
L 500.381281 -209.608373 
L 498.475183 -203.049741 
L 496.569084 -196.227754 
L 494.662985 -189.226331 
L 492.756886 -182.125872 
L 490.850788 -175.000848 
L 488.944689 -167.918419 
L 487.03859 -160.937977 
L 485.132491 -154.11134 
L 483.226392 -147.483271 
L 481.320294 -141.092054 
L 479.414195 -134.969878 
L 477.508096 -129.142968 
L 475.601997 -123.631457 
L 473.695898 -118.449135 
L 471.7898 -113.603235 
L 469.883701 -109.094452 
L 467.977602 -104.917318 
L 466.071503 -101.061 
L 464.165404 -97.510477 
L 462.259306 -94.247949 
L 460.353207 -91.254264 
L 458.447108 -88.510126 
L 456.541009 -85.996846 
L 454.63491 -83.69653 
L 452.728812 -81.59167 
L 450.822713 -79.664284 
L 448.916614 -77.894854 
L 447.010515 -76.261382 
L 445.104416 -74.738893 
L 443.198318 -73.299626 
L 441.292219 -71.914023 
L 439.38612 -70.552434 
L 437.480021 -69.187321 
L 435.573922 -67.795583 
L 433.667824 -66.36061 
L 431.761725 -64.873703 
L 429.855626 -63.334608 
L 427.949527 -61.751073 
L 426.043428 -60.137521 
L 424.13733 -58.513075 
L 422.231231 -56.899245 
L 420.325132 -55.31765 
L 418.419033 -53.788058 
L 416.512934 -52.326975 
L 414.606836 -50.94687 
L 412.700737 -49.65602 
L 410.794638 -48.458855 
L 408.888539 -47.356634 
L 406.98244 -46.348254 
L 405.076342 -45.431028 
L 403.170243 -44.601299 
L 401.264144 -43.854827 
L 399.358045 -43.186947 
L 397.451946 -42.592544 
L 395.545848 -42.06592 
L 393.639749 -41.600661 
L 391.73365 -41.189576 
L 389.827551 -40.824782 
L 387.921452 -40.497942 
L 386.015354 -40.200666 
L 384.109255 -39.925001 
L 382.203156 -39.663949 
L 380.297057 -39.411931 
L 378.390958 -39.165121 
L 376.48486 -38.921587 
L 374.578761 -38.681232 
L 372.672662 -38.445532 
L 370.766563 -38.217124 
L 368.860464 -37.999297 
L 366.954366 -37.795473 
L 365.048267 -37.608732 
L 363.142168 -37.441449 
L 361.236069 -37.295066 
L 359.32997 -37.170011 
L 357.423872 -37.06575 
L 355.517773 -36.980936 
L 353.611674 -36.913624 
L 351.705575 -36.861509 
L 349.799476 -36.822146 
L 347.893378 -36.79314 
L 345.987279 -36.772288 
L 344.08118 -36.757663 
L 342.175081 -36.747654 
L 340.268982 -36.74097 
z
" style="stroke: #4c72b0"/>
    </defs>
    <g>
     <use xlink:href="#m0d3247a427" x="0" y="265.689687" style="fill: #4c72b0; fill-opacity: 0.25; stroke: #4c72b0"/>
    </g>
   </g>
   <g id="line2d_33">
    <path d="M 190.421657 228.96 
L 190.421657 7.2 
" style="fill: none; stroke-dasharray: 2.96,1.28; stroke-dashoffset: 0; stroke: #d3d3d3; stroke-width: 0.8"/>
   </g>
   <g id="line2d_34">
    <path d="M 413.89565 228.96 
L 413.89565 7.2 
" style="fill: none; stroke-dasharray: 2.96,1.28; stroke-dashoffset: 0; stroke: #d3d3d3; stroke-width: 0.8"/>
   </g>
   <g id="line2d_35">
    <path d="M 318.356491 228.96 
L 318.356491 7.2 
" style="fill: none; stroke-dasharray: 2.96,1.28; stroke-dashoffset: 0; stroke: #d3d3d3; stroke-width: 0.8"/>
   </g>
   <g id="line2d_36">
    <path d="M 7.2 228.96 
L 844.2 228.96 
" style="fill: none; stroke: #808080; stroke-width: 0.5; stroke-linecap: round"/>
   </g>
   <g id="text_12">
    <text style="font-size: 8px; font-family: 'Arial', 'DejaVu Sans', 'Liberation Sans', 'Bitstream Vera Sans', sans-serif; fill: #808080" transform="translate(196.675407 124.59635) rotate(-90)">International Poverty Line: $3.00</text>
   </g>
   <g id="text_13">
    <text style="font-size: 8px; font-family: 'Arial', 'DejaVu Sans', 'Liberation Sans', 'Bitstream Vera Sans', sans-serif; fill: #808080" transform="translate(419.6219 81.31135) rotate(-90)">World mean: $21.85</text>
   </g>
   <g id="text_14">
    <text style="font-size: 8px; font-family: 'Arial', 'DejaVu Sans', 'Liberation Sans', 'Bitstream Vera Sans', sans-serif; fill: #808080" transform="translate(324.082741 83.08885) rotate(-90)">World median: $9.35</text>
   </g>
   <g id="legend_1">
    <g id="patch_3">
     <path d="M 683.8 102.227 
L 756.364063 102.227 
Q 758.364063 102.227 758.364063 100.227 
L 758.364063 58.552 
Q 758.364063 56.552 756.364063 56.552 
L 683.8 56.552 
Q 681.8 56.552 681.8 58.552 
L 681.8 100.227 
Q 681.8 102.227 683.8 102.227 
z
" style="fill: #ffffff; opacity: 0.8; stroke: #cccccc; stroke-linejoin: miter"/>
    </g>
    <g id="text_15">
     <text style="font-size: 10px; font-family: 'Arial', 'DejaVu Sans', 'Liberation Sans', 'Bitstream Vera Sans', sans-serif; text-anchor: start; fill: #262626" x="702.575781" y="67.831687" transform="rotate(-0 702.575781 67.831687)">Country</text>
    </g>
    <g id="patch_4">
     <path d="M 685.8 82.094187 
L 705.8 82.094187 
L 705.8 75.094187 
L 685.8 75.094187 
z
" style="fill: #4c72b0; fill-opacity: 0.25; stroke: #4c72b0; stroke-linejoin: miter"/>
    </g>
    <g id="text_16">
     <text style="font-size: 10px; font-family: 'Arial', 'DejaVu Sans', 'Liberation Sans', 'Bitstream Vera Sans', sans-serif; text-anchor: start; fill: #262626" x="713.8" y="82.094187" transform="rotate(-0 713.8 82.094187)">Denmark</text>
    </g>
    <g id="patch_5">
     <path d="M 685.8 96.2395 
L 705.8 96.2395 
L 705.8 89.2395 
L 685.8 89.2395 
z
" style="fill: #dd8452; fill-opacity: 0.25; stroke: #dd8452; stroke-linejoin: miter"/>
    </g>
    <g id="text_17">
     <text style="font-size: 10px; font-family: 'Arial', 'DejaVu Sans', 'Liberation Sans', 'Bitstream Vera Sans', sans-serif; text-anchor: start; fill: #262626" x="713.8" y="96.2395" transform="rotate(-0 713.8 96.2395)">Ethiopia</text>
    </g>
   </g>
  </g>
 </g>
</svg>
