<?xml version="1.0" encoding="utf-8" standalone="no"?>
<!DOCTYPE svg PUBLIC "-//W3C//DTD SVG 1.1//EN"
  "http://www.w3.org/Graphics/SVG/1.1/DTD/svg11.dtd">
<svg xmlns:xlink="http://www.w3.org/1999/xlink" width="862.521875pt" height="265.689687pt" viewBox="0 0 862.521875 265.689687" xmlns="http://www.w3.org/2000/svg" version="1.1">
 <metadata>
  <rdf:RDF xmlns:dc="http://purl.org/dc/elements/1.1/" xmlns:cc="http://creativecommons.org/ns#" xmlns:rdf="http://www.w3.org/1999/02/22-rdf-syntax-ns#">
   <cc:Work>
    <dc:type rdf:resource="http://purl.org/dc/dcmitype/StillImage"/>
    <dc:date>2025-08-21T11:29:10.189819</dc:date>
    <dc:format>image/svg+xml</dc:format>
    <dc:creator>
     <cc:Agent>
      <dc:title>Matplotlib v3.10.1, https://matplotlib.org/</dc:title>
     </cc:Agent>
    </dc:creator>
   </cc:Work>
  </rdf:RDF>
 </metadata>
 <defs>
  <style type="text/css">*{stroke-linejoin: round; stroke-linecap: butt}</style>
 </defs>
 <g id="figure_1">
  <g id="patch_1">
   <path d="M 0 265.689687 
L 862.521875 265.689687 
L 862.521875 0 
L 0 0 
z
" style="fill: #ffffff"/>
  </g>
  <g id="axes_1">
   <g id="patch_2">
    <path d="M 7.2 228.96 
L 844.2 228.96 
L 844.2 7.2 
L 7.2 7.2 
z
" style="fill: #ffffff"/>
   </g>
   <g id="matplotlib.axis_1">
    <g id="xtick_1">
     <g id="line2d_1">
      <defs>
       <path id="m1ab2958b8c" d="M 0 0 
L 0 3.5 
" style="stroke: #262626; stroke-width: 0.8"/>
      </defs>
      <g>
       <use xlink:href="#m1ab2958b8c" x="64.794471" y="228.96" style="fill: #262626; stroke: #262626; stroke-width: 0.8"/>
      </g>
     </g>
     <g id="text_1">
      <text style="font-size: 10px; font-family: 'Arial', 'DejaVu Sans', 'Liberation Sans', 'Bitstream Vera Sans', sans-serif; text-anchor: middle; fill: #262626" x="64.794471" y="243.117812" transform="rotate(-0 64.794471 243.117812)">1</text>
     </g>
    </g>
    <g id="xtick_2">
     <g id="line2d_2">
      <g>
       <use xlink:href="#m1ab2958b8c" x="143.002619" y="228.96" style="fill: #262626; stroke: #262626; stroke-width: 0.8"/>
      </g>
     </g>
     <g id="text_2">
      <text style="font-size: 10px; font-family: 'Arial', 'DejaVu Sans', 'Liberation Sans', 'Bitstream Vera Sans', sans-serif; text-anchor: middle; fill: #262626" x="143.002619" y="243.117812" transform="rotate(-0 143.002619 243.117812)">2</text>
     </g>
    </g>
    <g id="xtick_3">
     <g id="line2d_3">
      <g>
       <use xlink:href="#m1ab2958b8c" x="246.388167" y="228.96" style="fill: #262626; stroke: #262626; stroke-width: 0.8"/>
      </g>
     </g>
     <g id="text_3">
      <text style="font-size: 10px; font-family: 'Arial', 'DejaVu Sans', 'Liberation Sans', 'Bitstream Vera Sans', sans-serif; text-anchor: middle; fill: #262626" x="246.388167" y="243.117812" transform="rotate(-0 246.388167 243.117812)">5</text>
     </g>
    </g>
    <g id="xtick_4">
     <g id="line2d_4">
      <g>
       <use xlink:href="#m1ab2958b8c" x="324.596314" y="228.96" style="fill: #262626; stroke: #262626; stroke-width: 0.8"/>
      </g>
     </g>
     <g id="text_4">
      <text style="font-size: 10px; font-family: 'Arial', 'DejaVu Sans', 'Liberation Sans', 'Bitstream Vera Sans', sans-serif; text-anchor: middle; fill: #262626" x="324.596314" y="243.117812" transform="rotate(-0 324.596314 243.117812)">10</text>
     </g>
    </g>
    <g id="xtick_5">
     <g id="line2d_5">
      <g>
       <use xlink:href="#m1ab2958b8c" x="402.804462" y="228.96" style="fill: #262626; stroke: #262626; stroke-width: 0.8"/>
      </g>
     </g>
     <g id="text_5">
      <text style="font-size: 10px; font-family: 'Arial', 'DejaVu Sans', 'Liberation Sans', 'Bitstream Vera Sans', sans-serif; text-anchor: middle; fill: #262626" x="402.804462" y="243.117812" transform="rotate(-0 402.804462 243.117812)">20</text>
     </g>
    </g>
    <g id="xtick_6">
     <g id="line2d_6">
      <g>
       <use xlink:href="#m1ab2958b8c" x="506.19001" y="228.96" style="fill: #262626; stroke: #262626; stroke-width: 0.8"/>
      </g>
     </g>
     <g id="text_6">
      <text style="font-size: 10px; font-family: 'Arial', 'DejaVu Sans', 'Liberation Sans', 'Bitstream Vera Sans', sans-serif; text-anchor: middle; fill: #262626" x="506.19001" y="243.117812" transform="rotate(-0 506.19001 243.117812)">50</text>
     </g>
    </g>
    <g id="xtick_7">
     <g id="line2d_7">
      <g>
       <use xlink:href="#m1ab2958b8c" x="584.398157" y="228.96" style="fill: #262626; stroke: #262626; stroke-width: 0.8"/>
      </g>
     </g>
     <g id="text_7">
      <text style="font-size: 10px; font-family: 'Arial', 'DejaVu Sans', 'Liberation Sans', 'Bitstream Vera Sans', sans-serif; text-anchor: middle; fill: #262626" x="584.398157" y="243.117812" transform="rotate(-0 584.398157 243.117812)">100</text>
     </g>
    </g>
    <g id="xtick_8">
     <g id="line2d_8">
      <g>
       <use xlink:href="#m1ab2958b8c" x="662.606305" y="228.96" style="fill: #262626; stroke: #262626; stroke-width: 0.8"/>
      </g>
     </g>
     <g id="text_8">
      <text style="font-size: 10px; font-family: 'Arial', 'DejaVu Sans', 'Liberation Sans', 'Bitstream Vera Sans', sans-serif; text-anchor: middle; fill: #262626" x="662.606305" y="243.117812" transform="rotate(-0 662.606305 243.117812)">200</text>
     </g>
    </g>
    <g id="xtick_9">
     <g id="line2d_9">
      <g>
       <use xlink:href="#m1ab2958b8c" x="765.991852" y="228.96" style="fill: #262626; stroke: #262626; stroke-width: 0.8"/>
      </g>
     </g>
     <g id="text_9">
      <text style="font-size: 10px; font-family: 'Arial', 'DejaVu Sans', 'Liberation Sans', 'Bitstream Vera Sans', sans-serif; text-anchor: middle; fill: #262626" x="765.991852" y="243.117812" transform="rotate(-0 765.991852 243.117812)">500</text>
     </g>
    </g>
    <g id="xtick_10">
     <g id="line2d_10">
      <g>
       <use xlink:href="#m1ab2958b8c" x="844.2" y="228.96" style="fill: #262626; stroke: #262626; stroke-width: 0.8"/>
      </g>
     </g>
     <g id="text_10">
      <text style="font-size: 10px; font-family: 'Arial', 'DejaVu Sans', 'Liberation Sans', 'Bitstream Vera Sans', sans-serif; text-anchor: middle; fill: #262626" x="844.2" y="243.117812" transform="rotate(-0 844.2 243.117812)">1000</text>
     </g>
    </g>
    <g id="xtick_11">
     <g id="line2d_11">
      <defs>
       <path id="mf35be570f0" d="M 0 0 
L 0 2 
" style="stroke: #262626; stroke-width: 0.6"/>
      </defs>
      <g>
       <use xlink:href="#mf35be570f0" x="24.550657" y="228.96" style="fill: #262626; stroke: #262626; stroke-width: 0.6"/>
      </g>
     </g>
    </g>
    <g id="xtick_12">
     <g id="line2d_12">
      <g>
       <use xlink:href="#mf35be570f0" x="39.617071" y="228.96" style="fill: #262626; stroke: #262626; stroke-width: 0.6"/>
      </g>
     </g>
    </g>
    <g id="xtick_13">
     <g id="line2d_13">
      <g>
       <use xlink:href="#mf35be570f0" x="52.906591" y="228.96" style="fill: #262626; stroke: #262626; stroke-width: 0.6"/>
      </g>
     </g>
    </g>
    <g id="xtick_14">
     <g id="line2d_14">
      <g>
       <use xlink:href="#mf35be570f0" x="188.751453" y="228.96" style="fill: #262626; stroke: #262626; stroke-width: 0.6"/>
      </g>
     </g>
    </g>
    <g id="xtick_15">
     <g id="line2d_15">
      <g>
       <use xlink:href="#mf35be570f0" x="221.210767" y="228.96" style="fill: #262626; stroke: #262626; stroke-width: 0.6"/>
      </g>
     </g>
    </g>
    <g id="xtick_16">
     <g id="line2d_16">
      <g>
       <use xlink:href="#mf35be570f0" x="266.9596" y="228.96" style="fill: #262626; stroke: #262626; stroke-width: 0.6"/>
      </g>
     </g>
    </g>
    <g id="xtick_17">
     <g id="line2d_17">
      <g>
       <use xlink:href="#mf35be570f0" x="284.3525" y="228.96" style="fill: #262626; stroke: #262626; stroke-width: 0.6"/>
      </g>
     </g>
    </g>
    <g id="xtick_18">
     <g id="line2d_18">
      <g>
       <use xlink:href="#mf35be570f0" x="299.418914" y="228.96" style="fill: #262626; stroke: #262626; stroke-width: 0.6"/>
      </g>
     </g>
    </g>
    <g id="xtick_19">
     <g id="line2d_19">
      <g>
       <use xlink:href="#mf35be570f0" x="312.708434" y="228.96" style="fill: #262626; stroke: #262626; stroke-width: 0.6"/>
      </g>
     </g>
    </g>
    <g id="xtick_20">
     <g id="line2d_20">
      <g>
       <use xlink:href="#mf35be570f0" x="448.553296" y="228.96" style="fill: #262626; stroke: #262626; stroke-width: 0.6"/>
      </g>
     </g>
    </g>
    <g id="xtick_21">
     <g id="line2d_21">
      <g>
       <use xlink:href="#mf35be570f0" x="481.01261" y="228.96" style="fill: #262626; stroke: #262626; stroke-width: 0.6"/>
      </g>
     </g>
    </g>
    <g id="xtick_22">
     <g id="line2d_22">
      <g>
       <use xlink:href="#mf35be570f0" x="526.761443" y="228.96" style="fill: #262626; stroke: #262626; stroke-width: 0.6"/>
      </g>
     </g>
    </g>
    <g id="xtick_23">
     <g id="line2d_23">
      <g>
       <use xlink:href="#mf35be570f0" x="544.154342" y="228.96" style="fill: #262626; stroke: #262626; stroke-width: 0.6"/>
      </g>
     </g>
    </g>
    <g id="xtick_24">
     <g id="line2d_24">
      <g>
       <use xlink:href="#mf35be570f0" x="559.220757" y="228.96" style="fill: #262626; stroke: #262626; stroke-width: 0.6"/>
      </g>
     </g>
    </g>
    <g id="xtick_25">
     <g id="line2d_25">
      <g>
       <use xlink:href="#mf35be570f0" x="572.510277" y="228.96" style="fill: #262626; stroke: #262626; stroke-width: 0.6"/>
      </g>
     </g>
    </g>
    <g id="xtick_26">
     <g id="line2d_26">
      <g>
       <use xlink:href="#mf35be570f0" x="708.355138" y="228.96" style="fill: #262626; stroke: #262626; stroke-width: 0.6"/>
      </g>
     </g>
    </g>
    <g id="xtick_27">
     <g id="line2d_27">
      <g>
       <use xlink:href="#mf35be570f0" x="740.814452" y="228.96" style="fill: #262626; stroke: #262626; stroke-width: 0.6"/>
      </g>
     </g>
    </g>
    <g id="xtick_28">
     <g id="line2d_28">
      <g>
       <use xlink:href="#mf35be570f0" x="786.563286" y="228.96" style="fill: #262626; stroke: #262626; stroke-width: 0.6"/>
      </g>
     </g>
    </g>
    <g id="xtick_29">
     <g id="line2d_29">
      <g>
       <use xlink:href="#mf35be570f0" x="803.956185" y="228.96" style="fill: #262626; stroke: #262626; stroke-width: 0.6"/>
      </g>
     </g>
    </g>
    <g id="xtick_30">
     <g id="line2d_30">
      <g>
       <use xlink:href="#mf35be570f0" x="819.0226" y="228.96" style="fill: #262626; stroke: #262626; stroke-width: 0.6"/>
      </g>
     </g>
    </g>
    <g id="xtick_31">
     <g id="line2d_31">
      <g>
       <use xlink:href="#mf35be570f0" x="832.31212" y="228.96" style="fill: #262626; stroke: #262626; stroke-width: 0.6"/>
      </g>
     </g>
    </g>
    <g id="text_11">
     <text style="font-size: 10px; font-family: 'Arial', 'DejaVu Sans', 'Liberation Sans', 'Bitstream Vera Sans', sans-serif; text-anchor: middle; fill: #262626" x="425.7" y="256.385" transform="rotate(-0 425.7 256.385)">Income or consumption (day)</text>
    </g>
   </g>
   <g id="matplotlib.axis_2"/>
   <g id="FillBetweenPolyCollection_1">
    <defs>
     <path id="m5293df3ce6" d="M 40.487502 -36.750865 
L 40.487502 -36.729688 
L 42.379707 -36.729688 
L 44.271912 -36.729688 
L 46.164117 -36.729688 
L 48.056323 -36.729688 
L 49.948528 -36.729688 
L 51.840733 -36.729688 
L 53.732938 -36.729688 
L 55.625143 -36.729688 
L 57.517348 -36.729688 
L 59.409553 -36.729688 
L 61.301758 -36.729688 
L 63.193963 -36.729688 
L 65.086169 -36.729688 
L 66.978374 -36.729688 
L 68.870579 -36.729688 
L 70.762784 -36.729688 
L 72.654989 -36.729688 
L 74.547194 -36.729688 
L 76.439399 -36.729688 
L 78.331604 -36.729688 
L 80.22381 -36.729688 
L 82.116015 -36.729688 
L 84.00822 -36.729688 
L 85.900425 -36.729688 
L 87.79263 -36.729688 
L 89.684835 -36.729688 
L 91.57704 -36.729688 
L 93.469245 -36.729688 
L 95.361451 -36.729688 
L 97.253656 -36.729688 
L 99.145861 -36.729688 
L 101.038066 -36.729688 
L 102.930271 -36.729688 
L 104.822476 -36.729688 
L 106.714681 -36.729688 
L 108.606886 -36.729688 
L 110.499091 -36.729688 
L 112.391297 -36.729688 
L 114.283502 -36.729688 
L 116.175707 -36.729688 
L 118.067912 -36.729688 
L 119.960117 -36.729688 
L 121.852322 -36.729688 
L 123.744527 -36.729688 
L 125.636732 -36.729688 
L 127.528938 -36.729688 
L 129.421143 -36.729688 
L 131.313348 -36.729688 
L 133.205553 -36.729688 
L 135.097758 -36.729688 
L 136.989963 -36.729688 
L 138.882168 -36.729688 
L 140.774373 -36.729688 
L 142.666579 -36.729688 
L 144.558784 -36.729688 
L 146.450989 -36.729688 
L 148.343194 -36.729688 
L 150.235399 -36.729688 
L 152.127604 -36.729688 
L 154.019809 -36.729688 
L 155.912014 -36.729688 
L 157.80422 -36.729688 
L 159.696425 -36.729688 
L 161.58863 -36.729688 
L 163.480835 -36.729688 
L 165.37304 -36.729688 
L 167.265245 -36.729688 
L 169.15745 -36.729688 
L 171.049655 -36.729688 
L 172.94186 -36.729688 
L 174.834066 -36.729688 
L 176.726271 -36.729688 
L 178.618476 -36.729688 
L 180.510681 -36.729688 
L 182.402886 -36.729688 
L 184.295091 -36.729688 
L 186.187296 -36.729688 
L 188.079501 -36.729688 
L 189.971707 -36.729688 
L 191.863912 -36.729688 
L 193.756117 -36.729688 
L 195.648322 -36.729688 
L 197.540527 -36.729688 
L 199.432732 -36.729688 
L 201.324937 -36.729688 
L 203.217142 -36.729688 
L 205.109348 -36.729688 
L 207.001553 -36.729688 
L 208.893758 -36.729688 
L 210.785963 -36.729688 
L 212.678168 -36.729688 
L 214.570373 -36.729688 
L 216.462578 -36.729688 
L 218.354783 -36.729688 
L 220.246988 -36.729688 
L 222.139194 -36.729688 
L 224.031399 -36.729688 
L 225.923604 -36.729688 
L 227.815809 -36.729688 
L 229.708014 -36.729688 
L 231.600219 -36.729688 
L 233.492424 -36.729688 
L 235.384629 -36.729688 
L 237.276835 -36.729688 
L 239.16904 -36.729688 
L 241.061245 -36.729688 
L 242.95345 -36.729688 
L 244.845655 -36.729688 
L 246.73786 -36.729688 
L 248.630065 -36.729688 
L 250.52227 -36.729688 
L 252.414476 -36.729688 
L 254.306681 -36.729688 
L 256.198886 -36.729688 
L 258.091091 -36.729688 
L 259.983296 -36.729688 
L 261.875501 -36.729688 
L 263.767706 -36.729688 
L 265.659911 -36.729688 
L 267.552117 -36.729688 
L 269.444322 -36.729688 
L 271.336527 -36.729688 
L 273.228732 -36.729688 
L 275.120937 -36.729688 
L 277.013142 -36.729688 
L 278.905347 -36.729688 
L 280.797552 -36.729688 
L 282.689757 -36.729688 
L 284.581963 -36.729688 
L 286.474168 -36.729688 
L 288.366373 -36.729688 
L 290.258578 -36.729688 
L 292.150783 -36.729688 
L 294.042988 -36.729688 
L 295.935193 -36.729688 
L 297.827398 -36.729688 
L 299.719604 -36.729688 
L 301.611809 -36.729688 
L 303.504014 -36.729688 
L 305.396219 -36.729688 
L 307.288424 -36.729688 
L 309.180629 -36.729688 
L 311.072834 -36.729688 
L 312.965039 -36.729688 
L 314.857245 -36.729688 
L 316.74945 -36.729688 
L 318.641655 -36.729688 
L 320.53386 -36.729688 
L 322.426065 -36.729688 
L 324.31827 -36.729688 
L 326.210475 -36.729688 
L 328.10268 -36.729688 
L 329.994885 -36.729688 
L 331.887091 -36.729688 
L 333.779296 -36.729688 
L 335.671501 -36.729688 
L 337.563706 -36.729688 
L 339.455911 -36.729688 
L 341.348116 -36.729688 
L 343.240321 -36.729688 
L 345.132526 -36.729688 
L 347.024732 -36.729688 
L 348.916937 -36.729688 
L 350.809142 -36.729688 
L 352.701347 -36.729688 
L 354.593552 -36.729688 
L 356.485757 -36.729688 
L 358.377962 -36.729688 
L 360.270167 -36.729688 
L 362.162373 -36.729688 
L 364.054578 -36.729688 
L 365.946783 -36.729688 
L 367.838988 -36.729688 
L 369.731193 -36.729688 
L 371.623398 -36.729688 
L 373.515603 -36.729688 
L 375.407808 -36.729688 
L 377.300014 -36.729688 
L 379.192219 -36.729688 
L 381.084424 -36.729688 
L 382.976629 -36.729688 
L 384.868834 -36.729688 
L 386.761039 -36.729688 
L 388.653244 -36.729688 
L 390.545449 -36.729688 
L 392.437654 -36.729688 
L 394.32986 -36.729688 
L 396.222065 -36.729688 
L 398.11427 -36.729688 
L 400.006475 -36.729688 
L 401.89868 -36.729688 
L 403.790885 -36.729688 
L 405.68309 -36.729688 
L 407.575295 -36.729688 
L 409.467501 -36.729688 
L 411.359706 -36.729688 
L 413.251911 -36.729688 
L 415.144116 -36.729688 
L 417.036321 -36.729688 
L 417.036321 -36.751207 
L 417.036321 -36.751207 
L 415.144116 -36.762343 
L 413.251911 -36.778468 
L 411.359706 -36.801422 
L 409.467501 -36.83355 
L 407.575295 -36.87777 
L 405.68309 -36.93762 
L 403.790885 -37.017286 
L 401.89868 -37.121585 
L 400.006475 -37.255901 
L 398.11427 -37.426072 
L 396.222065 -37.638204 
L 394.32986 -37.898441 
L 392.437654 -38.21268 
L 390.545449 -38.586256 
L 388.653244 -39.02362 
L 386.761039 -39.528034 
L 384.868834 -40.101318 
L 382.976629 -40.743673 
L 381.084424 -41.453602 
L 379.192219 -42.227955 
L 377.300014 -43.062079 
L 375.407808 -43.950094 
L 373.515603 -44.885247 
L 371.623398 -45.860338 
L 369.731193 -46.868161 
L 367.838988 -47.901939 
L 365.946783 -48.955707 
L 364.054578 -50.024616 
L 362.162373 -51.105146 
L 360.270167 -52.195194 
L 358.377962 -53.294077 
L 356.485757 -54.402422 
L 354.593552 -55.521986 
L 352.701347 -56.655433 
L 350.809142 -57.806069 
L 348.916937 -58.977594 
L 347.024732 -60.173863 
L 345.132526 -61.398694 
L 343.240321 -62.655721 
L 341.348116 -63.948305 
L 339.455911 -65.27949 
L 337.563706 -66.652017 
L 335.671501 -68.068356 
L 333.779296 -69.530776 
L 331.887091 -71.041418 
L 329.994885 -72.602362 
L 328.10268 -74.215685 
L 326.210475 -75.883499 
L 324.31827 -77.607962 
L 322.426065 -79.391273 
L 320.53386 -81.235641 
L 318.641655 -83.143252 
L 316.74945 -85.116216 
L 314.857245 -87.156534 
L 312.965039 -89.26606 
L 311.072834 -91.44648 
L 309.180629 -93.699295 
L 307.288424 -96.025815 
L 305.396219 -98.427145 
L 303.504014 -100.904159 
L 301.611809 -103.457463 
L 299.719604 -106.087322 
L 297.827398 -108.793568 
L 295.935193 -111.575481 
L 294.042988 -114.431664 
L 292.150783 -117.359899 
L 290.258578 -120.357033 
L 288.366373 -123.418884 
L 286.474168 -126.54018 
L 284.581963 -129.714555 
L 282.689757 -132.934586 
L 280.797552 -136.191878 
L 278.905347 -139.477182 
L 277.013142 -142.780546 
L 275.120937 -146.091482 
L 273.228732 -149.399145 
L 271.336527 -152.692523 
L 269.444322 -155.960641 
L 267.552117 -159.192775 
L 265.659911 -162.378691 
L 263.767706 -165.508883 
L 261.875501 -168.57483 
L 259.983296 -171.569223 
L 258.091091 -174.486153 
L 256.198886 -177.321219 
L 254.306681 -180.071534 
L 252.414476 -182.735589 
L 250.52227 -185.312989 
L 248.630065 -187.804043 
L 246.73786 -190.209263 
L 244.845655 -192.528802 
L 242.95345 -194.761897 
L 241.061245 -196.906384 
L 239.16904 -198.958341 
L 237.276835 -200.911909 
L 235.384629 -202.759304 
L 233.492424 -204.49103 
L 231.600219 -206.096264 
L 229.708014 -207.563349 
L 227.815809 -208.880363 
L 225.923604 -210.035664 
L 224.031399 -211.01838 
L 222.139194 -211.818775 
L 220.246988 -212.428478 
L 218.354783 -212.840558 
L 216.462578 -213.049481 
L 214.570373 -213.050975 
L 212.678168 -212.841856 
L 210.785963 -212.419878 
L 208.893758 -211.783658 
L 207.001553 -210.932707 
L 205.109348 -209.867598 
L 203.217142 -208.590252 
L 201.324937 -207.104312 
L 199.432732 -205.415557 
L 197.540527 -203.532268 
L 195.648322 -201.465487 
L 193.756117 -199.229086 
L 191.863912 -196.839601 
L 189.971707 -194.315812 
L 188.079501 -191.678074 
L 186.187296 -188.947457 
L 184.295091 -186.14476 
L 182.402886 -183.289504 
L 180.510681 -180.399004 
L 178.618476 -177.487617 
L 176.726271 -174.566232 
L 174.834066 -171.642056 
L 172.94186 -168.718692 
L 171.049655 -165.796487 
L 169.15745 -162.8731 
L 167.265245 -159.944201 
L 165.37304 -157.004235 
L 163.480835 -154.047178 
L 161.58863 -151.067204 
L 159.696425 -148.059248 
L 157.80422 -145.019427 
L 155.912014 -141.94532 
L 154.019809 -138.836131 
L 152.127604 -135.692742 
L 150.235399 -132.517686 
L 148.343194 -129.31506 
L 146.450989 -126.090395 
L 144.558784 -122.850483 
L 142.666579 -119.603179 
L 140.774373 -116.357159 
L 138.882168 -113.121663 
L 136.989963 -109.906202 
L 135.097758 -106.720255 
L 133.205553 -103.572964 
L 131.313348 -100.47285 
L 129.421143 -97.427564 
L 127.528938 -94.443698 
L 125.636732 -91.526666 
L 123.744527 -88.680662 
L 121.852322 -85.908697 
L 119.960117 -83.2127 
L 118.067912 -80.593673 
L 116.175707 -78.051874 
L 114.283502 -75.587011 
L 112.391297 -73.198418 
L 110.499091 -70.885211 
L 108.606886 -68.646417 
L 106.714681 -66.481059 
L 104.822476 -64.388232 
L 102.930271 -62.367153 
L 101.038066 -60.417223 
L 99.145861 -58.53808 
L 97.253656 -56.729678 
L 95.361451 -54.992364 
L 93.469245 -53.32695 
L 91.57704 -51.734767 
L 89.684835 -50.217687 
L 87.79263 -48.778077 
L 85.900425 -47.418705 
L 84.00822 -46.142563 
L 82.116015 -44.952641 
L 80.22381 -43.851649 
L 78.331604 -42.841731 
L 76.439399 -41.924177 
L 74.547194 -41.099192 
L 72.654989 -40.365721 
L 70.762784 -39.721368 
L 68.870579 -39.162406 
L 66.978374 -38.683887 
L 65.086169 -38.279827 
L 63.193963 -37.943453 
L 61.301758 -37.667489 
L 59.409553 -37.44445 
L 57.517348 -37.266919 
L 55.625143 -37.127791 
L 53.732938 -37.020463 
L 51.840733 -36.93898 
L 49.948528 -36.878109 
L 48.056323 -36.83337 
L 46.164117 -36.801024 
L 44.271912 -36.778021 
L 42.379707 -36.761932 
L 40.487502 -36.750865 
z
" style="stroke: #dd8452"/>
    </defs>
    <g>
     <use xlink:href="#m5293df3ce6" x="0" y="265.689687" style="fill: #dd8452; fill-opacity: 0.25; stroke: #dd8452"/>
    </g>
   </g>
   <g id="FillBetweenPolyCollection_2">
    <defs>
     <path id="m740520edd6" d="M 316.583779 -36.74131 
L 316.583779 -36.729688 
L 318.541838 -36.729688 
L 320.499897 -36.729688 
L 322.457956 -36.729688 
L 324.416015 -36.729688 
L 326.374075 -36.729688 
L 328.332134 -36.729688 
L 330.290193 -36.729688 
L 332.248252 -36.729688 
L 334.206311 -36.729688 
L 336.16437 -36.729688 
L 338.122429 -36.729688 
L 340.080488 -36.729688 
L 342.038547 -36.729688 
L 343.996607 -36.729688 
L 345.954666 -36.729688 
L 347.912725 -36.729688 
L 349.870784 -36.729688 
L 351.828843 -36.729688 
L 353.786902 -36.729688 
L 355.744961 -36.729688 
L 357.70302 -36.729688 
L 359.661079 -36.729688 
L 361.619139 -36.729688 
L 363.577198 -36.729688 
L 365.535257 -36.729688 
L 367.493316 -36.729688 
L 369.451375 -36.729688 
L 371.409434 -36.729688 
L 373.367493 -36.729688 
L 375.325552 -36.729688 
L 377.283611 -36.729688 
L 379.241671 -36.729688 
L 381.19973 -36.729688 
L 383.157789 -36.729688 
L 385.115848 -36.729688 
L 387.073907 -36.729688 
L 389.031966 -36.729688 
L 390.990025 -36.729688 
L 392.948084 -36.729688 
L 394.906144 -36.729688 
L 396.864203 -36.729688 
L 398.822262 -36.729688 
L 400.780321 -36.729688 
L 402.73838 -36.729688 
L 404.696439 -36.729688 
L 406.654498 -36.729688 
L 408.612557 -36.729688 
L 410.570616 -36.729688 
L 412.528676 -36.729688 
L 414.486735 -36.729688 
L 416.444794 -36.729688 
L 418.402853 -36.729688 
L 420.360912 -36.729688 
L 422.318971 -36.729688 
L 424.27703 -36.729688 
L 426.235089 -36.729688 
L 428.193148 -36.729688 
L 430.151208 -36.729688 
L 432.109267 -36.729688 
L 434.067326 -36.729688 
L 436.025385 -36.729688 
L 437.983444 -36.729688 
L 439.941503 -36.729688 
L 441.899562 -36.729688 
L 443.857621 -36.729688 
L 445.81568 -36.729688 
L 447.77374 -36.729688 
L 449.731799 -36.729688 
L 451.689858 -36.729688 
L 453.647917 -36.729688 
L 455.605976 -36.729688 
L 457.564035 -36.729688 
L 459.522094 -36.729688 
L 461.480153 -36.729688 
L 463.438212 -36.729688 
L 465.396272 -36.729688 
L 467.354331 -36.729688 
L 469.31239 -36.729688 
L 471.270449 -36.729688 
L 473.228508 -36.729688 
L 475.186567 -36.729688 
L 477.144626 -36.729688 
L 479.102685 -36.729688 
L 481.060745 -36.729688 
L 483.018804 -36.729688 
L 484.976863 -36.729688 
L 486.934922 -36.729688 
L 488.892981 -36.729688 
L 490.85104 -36.729688 
L 492.809099 -36.729688 
L 494.767158 -36.729688 
L 496.725217 -36.729688 
L 498.683277 -36.729688 
L 500.641336 -36.729688 
L 502.599395 -36.729688 
L 504.557454 -36.729688 
L 506.515513 -36.729688 
L 508.473572 -36.729688 
L 510.431631 -36.729688 
L 512.38969 -36.729688 
L 514.347749 -36.729688 
L 516.305809 -36.729688 
L 518.263868 -36.729688 
L 520.221927 -36.729688 
L 522.179986 -36.729688 
L 524.138045 -36.729688 
L 526.096104 -36.729688 
L 528.054163 -36.729688 
L 530.012222 -36.729688 
L 531.970281 -36.729688 
L 533.928341 -36.729688 
L 535.8864 -36.729688 
L 537.844459 -36.729688 
L 539.802518 -36.729688 
L 541.760577 -36.729688 
L 543.718636 -36.729688 
L 545.676695 -36.729688 
L 547.634754 -36.729688 
L 549.592814 -36.729688 
L 551.550873 -36.729688 
L 553.508932 -36.729688 
L 555.466991 -36.729688 
L 557.42505 -36.729688 
L 559.383109 -36.729688 
L 561.341168 -36.729688 
L 563.299227 -36.729688 
L 565.257286 -36.729688 
L 567.215346 -36.729688 
L 569.173405 -36.729688 
L 571.131464 -36.729688 
L 573.089523 -36.729688 
L 575.047582 -36.729688 
L 577.005641 -36.729688 
L 578.9637 -36.729688 
L 580.921759 -36.729688 
L 582.879818 -36.729688 
L 584.837878 -36.729688 
L 586.795937 -36.729688 
L 588.753996 -36.729688 
L 590.712055 -36.729688 
L 592.670114 -36.729688 
L 594.628173 -36.729688 
L 596.586232 -36.729688 
L 598.544291 -36.729688 
L 600.50235 -36.729688 
L 602.46041 -36.729688 
L 604.418469 -36.729688 
L 606.376528 -36.729688 
L 608.334587 -36.729688 
L 610.292646 -36.729688 
L 612.250705 -36.729688 
L 614.208764 -36.729688 
L 616.166823 -36.729688 
L 618.124882 -36.729688 
L 620.082942 -36.729688 
L 622.041001 -36.729688 
L 623.99906 -36.729688 
L 625.957119 -36.729688 
L 627.915178 -36.729688 
L 629.873237 -36.729688 
L 631.831296 -36.729688 
L 633.789355 -36.729688 
L 635.747415 -36.729688 
L 637.705474 -36.729688 
L 639.663533 -36.729688 
L 641.621592 -36.729688 
L 643.579651 -36.729688 
L 645.53771 -36.729688 
L 647.495769 -36.729688 
L 649.453828 -36.729688 
L 651.411887 -36.729688 
L 653.369947 -36.729688 
L 655.328006 -36.729688 
L 657.286065 -36.729688 
L 659.244124 -36.729688 
L 661.202183 -36.729688 
L 663.160242 -36.729688 
L 665.118301 -36.729688 
L 667.07636 -36.729688 
L 669.034419 -36.729688 
L 670.992479 -36.729688 
L 672.950538 -36.729688 
L 674.908597 -36.729688 
L 676.866656 -36.729688 
L 678.824715 -36.729688 
L 680.782774 -36.729688 
L 682.740833 -36.729688 
L 684.698892 -36.729688 
L 686.656951 -36.729688 
L 688.615011 -36.729688 
L 690.57307 -36.729688 
L 692.531129 -36.729688 
L 694.489188 -36.729688 
L 696.447247 -36.729688 
L 698.405306 -36.729688 
L 700.363365 -36.729688 
L 702.321424 -36.729688 
L 704.279484 -36.729688 
L 706.237543 -36.729688 
L 706.237543 -36.742228 
L 706.237543 -36.742228 
L 704.279484 -36.750064 
L 702.321424 -36.762108 
L 700.363365 -36.780214 
L 698.405306 -36.806849 
L 696.447247 -36.845195 
L 694.489188 -36.899253 
L 692.531129 -36.973895 
L 690.57307 -37.074891 
L 688.615011 -37.208858 
L 686.656951 -37.383145 
L 684.698892 -37.605638 
L 682.740833 -37.88448 
L 680.782774 -38.227727 
L 678.824715 -38.642947 
L 676.866656 -39.13679 
L 674.908597 -39.714559 
L 672.950538 -40.37982 
L 670.992479 -41.134088 
L 669.034419 -41.97662 
L 667.07636 -42.904356 
L 665.118301 -43.912041 
L 663.160242 -44.992526 
L 661.202183 -46.137278 
L 659.244124 -47.337058 
L 657.286065 -48.582751 
L 655.328006 -49.866283 
L 653.369947 -51.181544 
L 651.411887 -52.525241 
L 649.453828 -53.897578 
L 647.495769 -55.302701 
L 645.53771 -56.74882 
L 643.579651 -58.248014 
L 641.621592 -59.815702 
L 639.663533 -61.469837 
L 637.705474 -63.22988 
L 635.747415 -65.115648 
L 633.789355 -67.146118 
L 631.831296 -69.33827 
L 629.873237 -71.70603 
L 627.915178 -74.259382 
L 625.957119 -77.003676 
L 623.99906 -79.939177 
L 622.041001 -83.060882 
L 620.082942 -86.358623 
L 618.124882 -89.817469 
L 616.166823 -93.418426 
L 614.208764 -97.139407 
L 612.250705 -100.956432 
L 610.292646 -104.845007 
L 608.334587 -108.781581 
L 606.376528 -112.745024 
L 604.418469 -116.717996 
L 602.46041 -120.688109 
L 600.50235 -124.648773 
L 598.544291 -128.599594 
L 596.586232 -132.546237 
L 594.628173 -136.499679 
L 592.670114 -140.474856 
L 590.712055 -144.488749 
L 588.753996 -148.558094 
L 586.795937 -152.696935 
L 584.837878 -156.914336 
L 582.879818 -161.212553 
L 580.921759 -165.58596 
L 578.9637 -170.020883 
L 577.005641 -174.496411 
L 575.047582 -178.986034 
L 573.089523 -183.459864 
L 571.131464 -187.887074 
L 569.173405 -192.238161 
L 567.215346 -196.486712 
L 565.257286 -200.610452 
L 563.299227 -204.591535 
L 561.341168 -208.416189 
L 559.383109 -212.073951 
L 557.42505 -215.556812 
L 555.466991 -218.858532 
L 553.508932 -221.974325 
L 551.550873 -224.900961 
L 549.592814 -227.637179 
L 547.634754 -230.184205 
L 545.676695 -232.546101 
L 543.718636 -234.729698 
L 541.760577 -236.743953 
L 539.802518 -238.598696 
L 537.844459 -240.302892 
L 535.8864 -241.862644 
L 533.928341 -243.279219 
L 531.970281 -244.547382 
L 530.012222 -245.654244 
L 528.054163 -246.578725 
L 526.096104 -247.291636 
L 524.138045 -247.75631 
L 522.179986 -247.929688 
L 520.221927 -247.763783 
L 518.263868 -247.207519 
L 516.305809 -246.208961 
L 514.347749 -244.717975 
L 512.38969 -242.689332 
L 510.431631 -240.086129 
L 508.473572 -236.883311 
L 506.515513 -233.070942 
L 504.557454 -228.656801 
L 502.599395 -223.667907 
L 500.641336 -218.150654 
L 498.683277 -212.169441 
L 496.725217 -205.803843 
L 494.767158 -199.144602 
L 492.809099 -192.28883 
L 490.85104 -185.334883 
L 488.892981 -178.377368 
L 486.934922 -171.502653 
L 484.976863 -164.785167 
L 483.018804 -158.284701 
L 481.060745 -152.044794 
L 479.102685 -146.092274 
L 477.144626 -140.437936 
L 475.186567 -135.078275 
L 473.228508 -129.998113 
L 471.270449 -125.173872 
L 469.31239 -120.577156 
L 467.354331 -116.178266 
L 465.396272 -111.949277 
L 463.438212 -107.866389 
L 461.480153 -103.911392 
L 459.522094 -100.072229 
L 457.564035 -96.342799 
L 455.605976 -92.722243 
L 453.647917 -89.213967 
L 451.689858 -85.824643 
L 449.731799 -82.563342 
L 447.77374 -79.440821 
L 445.81568 -76.468903 
L 443.857621 -73.659835 
L 441.899562 -71.025491 
L 439.941503 -68.576352 
L 437.983444 -66.320283 
L 436.025385 -64.261217 
L 434.067326 -62.397959 
L 432.109267 -60.72334 
L 430.151208 -59.223953 
L 428.193148 -57.880614 
L 426.235089 -56.669586 
L 424.27703 -55.564449 
L 422.318971 -54.538419 
L 420.360912 -53.566774 
L 418.402853 -52.629074 
L 416.444794 -51.710835 
L 414.486735 -50.804471 
L 412.528676 -49.909351 
L 410.570616 -49.031036 
L 408.612557 -48.179811 
L 406.654498 -47.368751 
L 404.696439 -46.611603 
L 402.73838 -45.92074 
L 400.780321 -45.305457 
L 398.822262 -44.770757 
L 396.864203 -44.316769 
L 394.906144 -43.938781 
L 392.948084 -43.627876 
L 390.990025 -43.372013 
L 389.031966 -43.157428 
L 387.073907 -42.970112 
L 385.115848 -42.797207 
L 383.157789 -42.628103 
L 381.19973 -42.455125 
L 379.241671 -42.27373 
L 377.283611 -42.082231 
L 375.325552 -41.881132 
L 373.367493 -41.672241 
L 371.409434 -41.457721 
L 369.451375 -41.239287 
L 367.493316 -41.017675 
L 365.535257 -40.792465 
L 363.577198 -40.562267 
L 361.619139 -40.325188 
L 359.661079 -40.079457 
L 357.70302 -39.824063 
L 355.744961 -39.559262 
L 353.786902 -39.286851 
L 351.828843 -39.010165 
L 349.870784 -38.733813 
L 347.912725 -38.4632 
L 345.954666 -38.20395 
L 343.996607 -37.961312 
L 342.038547 -37.739657 
L 340.080488 -37.542121 
L 338.122429 -37.370431 
L 336.16437 -37.224912 
L 334.206311 -37.104638 
L 332.248252 -37.007695 
L 330.290193 -36.931491 
L 328.332134 -36.873065 
L 326.374075 -36.82937 
L 324.416015 -36.797491 
L 322.457956 -36.774801 
L 320.499897 -36.759044 
L 318.541838 -36.748368 
L 316.583779 -36.74131 
z
" style="stroke: #4c72b0"/>
    </defs>
    <g>
     <use xlink:href="#m740520edd6" x="0" y="265.689687" style="fill: #4c72b0; fill-opacity: 0.25; stroke: #4c72b0"/>
    </g>
   </g>
   <g id="line2d_32">
    <path d="M 188.751453 228.96 
L 188.751453 7.2 
" style="fill: none; stroke-dasharray: 2.96,1.28; stroke-dashoffset: 0; stroke: #d3d3d3; stroke-width: 0.8"/>
   </g>
   <g id="line2d_33">
    <path d="M 411.947603 228.96 
L 411.947603 7.2 
" style="fill: none; stroke-dasharray: 2.96,1.28; stroke-dashoffset: 0; stroke: #d3d3d3; stroke-width: 0.8"/>
   </g>
   <g id="line2d_34">
    <path d="M 317.013122 228.96 
L 317.013122 7.2 
" style="fill: none; stroke-dasharray: 2.96,1.28; stroke-dashoffset: 0; stroke: #d3d3d3; stroke-width: 0.8"/>
   </g>
   <g id="line2d_35">
    <path d="M 7.2 228.96 
L 844.2 228.96 
" style="fill: none; stroke: #808080; stroke-width: 0.5; stroke-linecap: round"/>
   </g>
   <g id="text_12">
    <text style="font-size: 8px; font-family: 'Arial', 'DejaVu Sans', 'Liberation Sans', 'Bitstream Vera Sans', sans-serif; fill: #808080" transform="translate(195.005203 124.59635) rotate(-90)">International Poverty Line: $3.00</text>
   </g>
   <g id="text_13">
    <text style="font-size: 8px; font-family: 'Arial', 'DejaVu Sans', 'Liberation Sans', 'Bitstream Vera Sans', sans-serif; fill: #808080" transform="translate(417.673853 81.31135) rotate(-90)">World mean: $21.69</text>
   </g>
   <g id="text_14">
    <text style="font-size: 8px; font-family: 'Arial', 'DejaVu Sans', 'Liberation Sans', 'Bitstream Vera Sans', sans-serif; fill: #808080" transform="translate(322.739372 83.08885) rotate(-90)">World median: $9.35</text>
   </g>
   <g id="legend_1">
    <g id="patch_3">
     <path d="M 683.8 102.227 
L 756.364063 102.227 
Q 758.364063 102.227 758.364063 100.227 
L 758.364063 58.552 
Q 758.364063 56.552 756.364063 56.552 
L 683.8 56.552 
Q 681.8 56.552 681.8 58.552 
L 681.8 100.227 
Q 681.8 102.227 683.8 102.227 
z
" style="fill: #ffffff; opacity: 0.8; stroke: #cccccc; stroke-linejoin: miter"/>
    </g>
    <g id="text_15">
     <text style="font-size: 10px; font-family: 'Arial', 'DejaVu Sans', 'Liberation Sans', 'Bitstream Vera Sans', sans-serif; text-anchor: start; fill: #262626" x="702.575781" y="67.831687" transform="rotate(-0 702.575781 67.831687)">Country</text>
    </g>
    <g id="patch_4">
     <path d="M 685.8 82.094187 
L 705.8 82.094187 
L 705.8 75.094187 
L 685.8 75.094187 
z
" style="fill: #4c72b0; fill-opacity: 0.25; stroke: #4c72b0; stroke-linejoin: miter"/>
    </g>
    <g id="text_16">
     <text style="font-size: 10px; font-family: 'Arial', 'DejaVu Sans', 'Liberation Sans', 'Bitstream Vera Sans', sans-serif; text-anchor: start; fill: #262626" x="713.8" y="82.094187" transform="rotate(-0 713.8 82.094187)">Denmark</text>
    </g>
    <g id="patch_5">
     <path d="M 685.8 96.2395 
L 705.8 96.2395 
L 705.8 89.2395 
L 685.8 89.2395 
z
" style="fill: #dd8452; fill-opacity: 0.25; stroke: #dd8452; stroke-linejoin: miter"/>
    </g>
    <g id="text_17">
     <text style="font-size: 10px; font-family: 'Arial', 'DejaVu Sans', 'Liberation Sans', 'Bitstream Vera Sans', sans-serif; text-anchor: start; fill: #262626" x="713.8" y="96.2395" transform="rotate(-0 713.8 96.2395)">Ethiopia</text>
    </g>
   </g>
  </g>
 </g>
</svg>
