<?xml version="1.0" encoding="utf-8" standalone="no"?>
<!DOCTYPE svg PUBLIC "-//W3C//DTD SVG 1.1//EN"
  "http://www.w3.org/Graphics/SVG/1.1/DTD/svg11.dtd">
<svg xmlns:xlink="http://www.w3.org/1999/xlink" width="1080pt" height="288pt" viewBox="0 0 1080 288" xmlns="http://www.w3.org/2000/svg" version="1.1">
 <metadata>
  <rdf:RDF xmlns:dc="http://purl.org/dc/elements/1.1/" xmlns:cc="http://creativecommons.org/ns#" xmlns:rdf="http://www.w3.org/1999/02/22-rdf-syntax-ns#">
   <cc:Work>
    <dc:type rdf:resource="http://purl.org/dc/dcmitype/StillImage"/>
    <dc:date>2025-04-07T12:04:18.417450</dc:date>
    <dc:format>image/svg+xml</dc:format>
    <dc:creator>
     <cc:Agent>
      <dc:title>Matplotlib v3.10.1, https://matplotlib.org/</dc:title>
     </cc:Agent>
    </dc:creator>
   </cc:Work>
  </rdf:RDF>
 </metadata>
 <defs>
  <style type="text/css">*{stroke-linejoin: round; stroke-linecap: butt}</style>
 </defs>
 <g id="figure_1">
  <g id="patch_1">
   <path d="M 0 288 
L 1080 288 
L 1080 0 
L 0 0 
z
" style="fill: #ffffff"/>
  </g>
  <g id="axes_1">
   <g id="patch_2">
    <path d="M 135 256.32 
L 972 256.32 
L 972 34.56 
L 135 34.56 
z
" style="fill: #ffffff"/>
   </g>
   <g id="matplotlib.axis_1">
    <g id="xtick_1">
     <g id="line2d_1">
      <defs>
       <path id="m93f59e7756" d="M 0 0 
L 0 3.5 
" style="stroke: #262626; stroke-width: 0.8"/>
      </defs>
      <g>
       <use xlink:href="#m93f59e7756" x="306.886392" y="256.32" style="fill: #262626; stroke: #262626; stroke-width: 0.8"/>
      </g>
     </g>
     <g id="text_1">
      <!-- 1 -->
      <g style="fill: #262626" transform="translate(304.105923 270.477813) scale(0.1 -0.1)">
       <defs>
        <path id="ArialMT-31" d="M 2384 0 
L 1822 0 
L 1822 3584 
Q 1619 3391 1289 3197 
Q 959 3003 697 2906 
L 697 3450 
Q 1169 3672 1522 3987 
Q 1875 4303 2022 4600 
L 2384 4600 
L 2384 0 
z
" transform="scale(0.015625)"/>
       </defs>
       <use xlink:href="#ArialMT-31"/>
      </g>
     </g>
    </g>
    <g id="xtick_2">
     <g id="line2d_2">
      <g>
       <use xlink:href="#m93f59e7756" x="372.675162" y="256.32" style="fill: #262626; stroke: #262626; stroke-width: 0.8"/>
      </g>
     </g>
     <g id="text_2">
      <!-- 2 -->
      <g style="fill: #262626" transform="translate(369.894693 270.477813) scale(0.1 -0.1)">
       <defs>
        <path id="ArialMT-32" d="M 3222 541 
L 3222 0 
L 194 0 
Q 188 203 259 391 
Q 375 700 629 1000 
Q 884 1300 1366 1694 
Q 2113 2306 2375 2664 
Q 2638 3022 2638 3341 
Q 2638 3675 2398 3904 
Q 2159 4134 1775 4134 
Q 1369 4134 1125 3890 
Q 881 3647 878 3216 
L 300 3275 
Q 359 3922 746 4261 
Q 1134 4600 1788 4600 
Q 2447 4600 2831 4234 
Q 3216 3869 3216 3328 
Q 3216 3053 3103 2787 
Q 2991 2522 2730 2228 
Q 2469 1934 1863 1422 
Q 1356 997 1212 845 
Q 1069 694 975 541 
L 3222 541 
z
" transform="scale(0.015625)"/>
       </defs>
       <use xlink:href="#ArialMT-32"/>
      </g>
     </g>
    </g>
    <g id="xtick_3">
     <g id="line2d_3">
      <g>
       <use xlink:href="#m93f59e7756" x="459.643186" y="256.32" style="fill: #262626; stroke: #262626; stroke-width: 0.8"/>
      </g>
     </g>
     <g id="text_3">
      <!-- 5 -->
      <g style="fill: #262626" transform="translate(456.862717 270.477813) scale(0.1 -0.1)">
       <defs>
        <path id="ArialMT-35" d="M 266 1200 
L 856 1250 
Q 922 819 1161 601 
Q 1400 384 1738 384 
Q 2144 384 2425 690 
Q 2706 997 2706 1503 
Q 2706 1984 2436 2262 
Q 2166 2541 1728 2541 
Q 1456 2541 1237 2417 
Q 1019 2294 894 2097 
L 366 2166 
L 809 4519 
L 3088 4519 
L 3088 3981 
L 1259 3981 
L 1013 2750 
Q 1425 3038 1878 3038 
Q 2478 3038 2890 2622 
Q 3303 2206 3303 1553 
Q 3303 931 2941 478 
Q 2500 -78 1738 -78 
Q 1113 -78 717 272 
Q 322 622 266 1200 
z
" transform="scale(0.015625)"/>
       </defs>
       <use xlink:href="#ArialMT-35"/>
      </g>
     </g>
    </g>
    <g id="xtick_4">
     <g id="line2d_4">
      <g>
       <use xlink:href="#m93f59e7756" x="525.431956" y="256.32" style="fill: #262626; stroke: #262626; stroke-width: 0.8"/>
      </g>
     </g>
     <g id="text_4">
      <!-- 10 -->
      <g style="fill: #262626" transform="translate(519.871019 270.477813) scale(0.1 -0.1)">
       <defs>
        <path id="ArialMT-30" d="M 266 2259 
Q 266 3072 433 3567 
Q 600 4063 929 4331 
Q 1259 4600 1759 4600 
Q 2128 4600 2406 4451 
Q 2684 4303 2865 4023 
Q 3047 3744 3150 3342 
Q 3253 2941 3253 2259 
Q 3253 1453 3087 958 
Q 2922 463 2592 192 
Q 2263 -78 1759 -78 
Q 1097 -78 719 397 
Q 266 969 266 2259 
z
M 844 2259 
Q 844 1131 1108 757 
Q 1372 384 1759 384 
Q 2147 384 2411 759 
Q 2675 1134 2675 2259 
Q 2675 3391 2411 3762 
Q 2147 4134 1753 4134 
Q 1366 4134 1134 3806 
Q 844 3388 844 2259 
z
" transform="scale(0.015625)"/>
       </defs>
       <use xlink:href="#ArialMT-31"/>
       <use xlink:href="#ArialMT-30" transform="translate(55.615234 0)"/>
      </g>
     </g>
    </g>
    <g id="xtick_5">
     <g id="line2d_5">
      <g>
       <use xlink:href="#m93f59e7756" x="591.220727" y="256.32" style="fill: #262626; stroke: #262626; stroke-width: 0.8"/>
      </g>
     </g>
     <g id="text_5">
      <!-- 20 -->
      <g style="fill: #262626" transform="translate(585.659789 270.477813) scale(0.1 -0.1)">
       <use xlink:href="#ArialMT-32"/>
       <use xlink:href="#ArialMT-30" transform="translate(55.615234 0)"/>
      </g>
     </g>
    </g>
    <g id="xtick_6">
     <g id="line2d_6">
      <g>
       <use xlink:href="#m93f59e7756" x="678.188751" y="256.32" style="fill: #262626; stroke: #262626; stroke-width: 0.8"/>
      </g>
     </g>
     <g id="text_6">
      <!-- 50 -->
      <g style="fill: #262626" transform="translate(672.627813 270.477813) scale(0.1 -0.1)">
       <use xlink:href="#ArialMT-35"/>
       <use xlink:href="#ArialMT-30" transform="translate(55.615234 0)"/>
      </g>
     </g>
    </g>
    <g id="xtick_7">
     <g id="line2d_7">
      <g>
       <use xlink:href="#m93f59e7756" x="743.977521" y="256.32" style="fill: #262626; stroke: #262626; stroke-width: 0.8"/>
      </g>
     </g>
     <g id="text_7">
      <!-- 100 -->
      <g style="fill: #262626" transform="translate(735.636115 270.477813) scale(0.1 -0.1)">
       <use xlink:href="#ArialMT-31"/>
       <use xlink:href="#ArialMT-30" transform="translate(55.615234 0)"/>
       <use xlink:href="#ArialMT-30" transform="translate(111.230469 0)"/>
      </g>
     </g>
    </g>
    <g id="xtick_8">
     <g id="line2d_8">
      <g>
       <use xlink:href="#m93f59e7756" x="809.766291" y="256.32" style="fill: #262626; stroke: #262626; stroke-width: 0.8"/>
      </g>
     </g>
     <g id="text_8">
      <!-- 200 -->
      <g style="fill: #262626" transform="translate(801.424885 270.477813) scale(0.1 -0.1)">
       <use xlink:href="#ArialMT-32"/>
       <use xlink:href="#ArialMT-30" transform="translate(55.615234 0)"/>
       <use xlink:href="#ArialMT-30" transform="translate(111.230469 0)"/>
      </g>
     </g>
    </g>
    <g id="xtick_9">
     <g id="line2d_9">
      <g>
       <use xlink:href="#m93f59e7756" x="896.734315" y="256.32" style="fill: #262626; stroke: #262626; stroke-width: 0.8"/>
      </g>
     </g>
     <g id="text_9">
      <!-- 500 -->
      <g style="fill: #262626" transform="translate(888.392909 270.477813) scale(0.1 -0.1)">
       <use xlink:href="#ArialMT-35"/>
       <use xlink:href="#ArialMT-30" transform="translate(55.615234 0)"/>
       <use xlink:href="#ArialMT-30" transform="translate(111.230469 0)"/>
      </g>
     </g>
    </g>
    <g id="xtick_10">
     <g id="line2d_10">
      <g>
       <use xlink:href="#m93f59e7756" x="962.523086" y="256.32" style="fill: #262626; stroke: #262626; stroke-width: 0.8"/>
      </g>
     </g>
     <g id="text_10">
      <!-- 1000 -->
      <g style="fill: #262626" transform="translate(951.401211 270.477813) scale(0.1 -0.1)">
       <use xlink:href="#ArialMT-31"/>
       <use xlink:href="#ArialMT-30" transform="translate(55.615234 0)"/>
       <use xlink:href="#ArialMT-30" transform="translate(111.230469 0)"/>
       <use xlink:href="#ArialMT-30" transform="translate(166.845703 0)"/>
      </g>
     </g>
    </g>
    <g id="xtick_11">
     <g id="line2d_11">
      <defs>
       <path id="m3afeb354ad" d="M 0 0 
L 0 2 
" style="stroke: #262626; stroke-width: 0.6"/>
      </defs>
      <g>
       <use xlink:href="#m3afeb354ad" x="154.129597" y="256.32" style="fill: #262626; stroke: #262626; stroke-width: 0.6"/>
      </g>
     </g>
    </g>
    <g id="xtick_12">
     <g id="line2d_12">
      <g>
       <use xlink:href="#m3afeb354ad" x="192.613561" y="256.32" style="fill: #262626; stroke: #262626; stroke-width: 0.6"/>
      </g>
     </g>
    </g>
    <g id="xtick_13">
     <g id="line2d_13">
      <g>
       <use xlink:href="#m3afeb354ad" x="219.918368" y="256.32" style="fill: #262626; stroke: #262626; stroke-width: 0.6"/>
      </g>
     </g>
    </g>
    <g id="xtick_14">
     <g id="line2d_14">
      <g>
       <use xlink:href="#m3afeb354ad" x="241.097621" y="256.32" style="fill: #262626; stroke: #262626; stroke-width: 0.6"/>
      </g>
     </g>
    </g>
    <g id="xtick_15">
     <g id="line2d_15">
      <g>
       <use xlink:href="#m3afeb354ad" x="258.402331" y="256.32" style="fill: #262626; stroke: #262626; stroke-width: 0.6"/>
      </g>
     </g>
    </g>
    <g id="xtick_16">
     <g id="line2d_16">
      <g>
       <use xlink:href="#m3afeb354ad" x="273.033255" y="256.32" style="fill: #262626; stroke: #262626; stroke-width: 0.6"/>
      </g>
     </g>
    </g>
    <g id="xtick_17">
     <g id="line2d_17">
      <g>
       <use xlink:href="#m3afeb354ad" x="285.707138" y="256.32" style="fill: #262626; stroke: #262626; stroke-width: 0.6"/>
      </g>
     </g>
    </g>
    <g id="xtick_18">
     <g id="line2d_18">
      <g>
       <use xlink:href="#m3afeb354ad" x="296.886295" y="256.32" style="fill: #262626; stroke: #262626; stroke-width: 0.6"/>
      </g>
     </g>
    </g>
    <g id="xtick_19">
     <g id="line2d_19">
      <g>
       <use xlink:href="#m3afeb354ad" x="411.159126" y="256.32" style="fill: #262626; stroke: #262626; stroke-width: 0.6"/>
      </g>
     </g>
    </g>
    <g id="xtick_20">
     <g id="line2d_20">
      <g>
       <use xlink:href="#m3afeb354ad" x="438.463932" y="256.32" style="fill: #262626; stroke: #262626; stroke-width: 0.6"/>
      </g>
     </g>
    </g>
    <g id="xtick_21">
     <g id="line2d_21">
      <g>
       <use xlink:href="#m3afeb354ad" x="476.947896" y="256.32" style="fill: #262626; stroke: #262626; stroke-width: 0.6"/>
      </g>
     </g>
    </g>
    <g id="xtick_22">
     <g id="line2d_22">
      <g>
       <use xlink:href="#m3afeb354ad" x="491.57882" y="256.32" style="fill: #262626; stroke: #262626; stroke-width: 0.6"/>
      </g>
     </g>
    </g>
    <g id="xtick_23">
     <g id="line2d_23">
      <g>
       <use xlink:href="#m3afeb354ad" x="504.252703" y="256.32" style="fill: #262626; stroke: #262626; stroke-width: 0.6"/>
      </g>
     </g>
    </g>
    <g id="xtick_24">
     <g id="line2d_24">
      <g>
       <use xlink:href="#m3afeb354ad" x="515.43186" y="256.32" style="fill: #262626; stroke: #262626; stroke-width: 0.6"/>
      </g>
     </g>
    </g>
    <g id="xtick_25">
     <g id="line2d_25">
      <g>
       <use xlink:href="#m3afeb354ad" x="629.70469" y="256.32" style="fill: #262626; stroke: #262626; stroke-width: 0.6"/>
      </g>
     </g>
    </g>
    <g id="xtick_26">
     <g id="line2d_26">
      <g>
       <use xlink:href="#m3afeb354ad" x="657.009497" y="256.32" style="fill: #262626; stroke: #262626; stroke-width: 0.6"/>
      </g>
     </g>
    </g>
    <g id="xtick_27">
     <g id="line2d_27">
      <g>
       <use xlink:href="#m3afeb354ad" x="695.493461" y="256.32" style="fill: #262626; stroke: #262626; stroke-width: 0.6"/>
      </g>
     </g>
    </g>
    <g id="xtick_28">
     <g id="line2d_28">
      <g>
       <use xlink:href="#m3afeb354ad" x="710.124385" y="256.32" style="fill: #262626; stroke: #262626; stroke-width: 0.6"/>
      </g>
     </g>
    </g>
    <g id="xtick_29">
     <g id="line2d_29">
      <g>
       <use xlink:href="#m3afeb354ad" x="722.798268" y="256.32" style="fill: #262626; stroke: #262626; stroke-width: 0.6"/>
      </g>
     </g>
    </g>
    <g id="xtick_30">
     <g id="line2d_30">
      <g>
       <use xlink:href="#m3afeb354ad" x="733.977424" y="256.32" style="fill: #262626; stroke: #262626; stroke-width: 0.6"/>
      </g>
     </g>
    </g>
    <g id="xtick_31">
     <g id="line2d_31">
      <g>
       <use xlink:href="#m3afeb354ad" x="848.250255" y="256.32" style="fill: #262626; stroke: #262626; stroke-width: 0.6"/>
      </g>
     </g>
    </g>
    <g id="xtick_32">
     <g id="line2d_32">
      <g>
       <use xlink:href="#m3afeb354ad" x="875.555062" y="256.32" style="fill: #262626; stroke: #262626; stroke-width: 0.6"/>
      </g>
     </g>
    </g>
    <g id="xtick_33">
     <g id="line2d_33">
      <g>
       <use xlink:href="#m3afeb354ad" x="914.039026" y="256.32" style="fill: #262626; stroke: #262626; stroke-width: 0.6"/>
      </g>
     </g>
    </g>
    <g id="xtick_34">
     <g id="line2d_34">
      <g>
       <use xlink:href="#m3afeb354ad" x="928.66995" y="256.32" style="fill: #262626; stroke: #262626; stroke-width: 0.6"/>
      </g>
     </g>
    </g>
    <g id="xtick_35">
     <g id="line2d_35">
      <g>
       <use xlink:href="#m3afeb354ad" x="941.343832" y="256.32" style="fill: #262626; stroke: #262626; stroke-width: 0.6"/>
      </g>
     </g>
    </g>
    <g id="xtick_36">
     <g id="line2d_36">
      <g>
       <use xlink:href="#m3afeb354ad" x="952.522989" y="256.32" style="fill: #262626; stroke: #262626; stroke-width: 0.6"/>
      </g>
     </g>
    </g>
    <g id="text_11">
     <!-- Income or consumption (day) -->
     <g style="fill: #262626" transform="translate(488.753906 283.745) scale(0.1 -0.1)">
      <defs>
       <path id="ArialMT-49" d="M 597 0 
L 597 4581 
L 1203 4581 
L 1203 0 
L 597 0 
z
" transform="scale(0.015625)"/>
       <path id="ArialMT-6e" d="M 422 0 
L 422 3319 
L 928 3319 
L 928 2847 
Q 1294 3394 1984 3394 
Q 2284 3394 2536 3286 
Q 2788 3178 2913 3003 
Q 3038 2828 3088 2588 
Q 3119 2431 3119 2041 
L 3119 0 
L 2556 0 
L 2556 2019 
Q 2556 2363 2490 2533 
Q 2425 2703 2258 2804 
Q 2091 2906 1866 2906 
Q 1506 2906 1245 2678 
Q 984 2450 984 1813 
L 984 0 
L 422 0 
z
" transform="scale(0.015625)"/>
       <path id="ArialMT-63" d="M 2588 1216 
L 3141 1144 
Q 3050 572 2676 248 
Q 2303 -75 1759 -75 
Q 1078 -75 664 370 
Q 250 816 250 1647 
Q 250 2184 428 2587 
Q 606 2991 970 3192 
Q 1334 3394 1763 3394 
Q 2303 3394 2647 3120 
Q 2991 2847 3088 2344 
L 2541 2259 
Q 2463 2594 2264 2762 
Q 2066 2931 1784 2931 
Q 1359 2931 1093 2626 
Q 828 2322 828 1663 
Q 828 994 1084 691 
Q 1341 388 1753 388 
Q 2084 388 2306 591 
Q 2528 794 2588 1216 
z
" transform="scale(0.015625)"/>
       <path id="ArialMT-6f" d="M 213 1659 
Q 213 2581 725 3025 
Q 1153 3394 1769 3394 
Q 2453 3394 2887 2945 
Q 3322 2497 3322 1706 
Q 3322 1066 3130 698 
Q 2938 331 2570 128 
Q 2203 -75 1769 -75 
Q 1072 -75 642 372 
Q 213 819 213 1659 
z
M 791 1659 
Q 791 1022 1069 705 
Q 1347 388 1769 388 
Q 2188 388 2466 706 
Q 2744 1025 2744 1678 
Q 2744 2294 2464 2611 
Q 2184 2928 1769 2928 
Q 1347 2928 1069 2612 
Q 791 2297 791 1659 
z
" transform="scale(0.015625)"/>
       <path id="ArialMT-6d" d="M 422 0 
L 422 3319 
L 925 3319 
L 925 2853 
Q 1081 3097 1340 3245 
Q 1600 3394 1931 3394 
Q 2300 3394 2536 3241 
Q 2772 3088 2869 2813 
Q 3263 3394 3894 3394 
Q 4388 3394 4653 3120 
Q 4919 2847 4919 2278 
L 4919 0 
L 4359 0 
L 4359 2091 
Q 4359 2428 4304 2576 
Q 4250 2725 4106 2815 
Q 3963 2906 3769 2906 
Q 3419 2906 3187 2673 
Q 2956 2441 2956 1928 
L 2956 0 
L 2394 0 
L 2394 2156 
Q 2394 2531 2256 2718 
Q 2119 2906 1806 2906 
Q 1569 2906 1367 2781 
Q 1166 2656 1075 2415 
Q 984 2175 984 1722 
L 984 0 
L 422 0 
z
" transform="scale(0.015625)"/>
       <path id="ArialMT-65" d="M 2694 1069 
L 3275 997 
Q 3138 488 2766 206 
Q 2394 -75 1816 -75 
Q 1088 -75 661 373 
Q 234 822 234 1631 
Q 234 2469 665 2931 
Q 1097 3394 1784 3394 
Q 2450 3394 2872 2941 
Q 3294 2488 3294 1666 
Q 3294 1616 3291 1516 
L 816 1516 
Q 847 969 1125 678 
Q 1403 388 1819 388 
Q 2128 388 2347 550 
Q 2566 713 2694 1069 
z
M 847 1978 
L 2700 1978 
Q 2663 2397 2488 2606 
Q 2219 2931 1791 2931 
Q 1403 2931 1139 2672 
Q 875 2413 847 1978 
z
" transform="scale(0.015625)"/>
       <path id="ArialMT-20" transform="scale(0.015625)"/>
       <path id="ArialMT-72" d="M 416 0 
L 416 3319 
L 922 3319 
L 922 2816 
Q 1116 3169 1280 3281 
Q 1444 3394 1641 3394 
Q 1925 3394 2219 3213 
L 2025 2691 
Q 1819 2813 1613 2813 
Q 1428 2813 1281 2702 
Q 1134 2591 1072 2394 
Q 978 2094 978 1738 
L 978 0 
L 416 0 
z
" transform="scale(0.015625)"/>
       <path id="ArialMT-73" d="M 197 991 
L 753 1078 
Q 800 744 1014 566 
Q 1228 388 1613 388 
Q 2000 388 2187 545 
Q 2375 703 2375 916 
Q 2375 1106 2209 1216 
Q 2094 1291 1634 1406 
Q 1016 1563 777 1677 
Q 538 1791 414 1992 
Q 291 2194 291 2438 
Q 291 2659 392 2848 
Q 494 3038 669 3163 
Q 800 3259 1026 3326 
Q 1253 3394 1513 3394 
Q 1903 3394 2198 3281 
Q 2494 3169 2634 2976 
Q 2775 2784 2828 2463 
L 2278 2388 
Q 2241 2644 2061 2787 
Q 1881 2931 1553 2931 
Q 1166 2931 1000 2803 
Q 834 2675 834 2503 
Q 834 2394 903 2306 
Q 972 2216 1119 2156 
Q 1203 2125 1616 2013 
Q 2213 1853 2448 1751 
Q 2684 1650 2818 1456 
Q 2953 1263 2953 975 
Q 2953 694 2789 445 
Q 2625 197 2315 61 
Q 2006 -75 1616 -75 
Q 969 -75 630 194 
Q 291 463 197 991 
z
" transform="scale(0.015625)"/>
       <path id="ArialMT-75" d="M 2597 0 
L 2597 488 
Q 2209 -75 1544 -75 
Q 1250 -75 995 37 
Q 741 150 617 320 
Q 494 491 444 738 
Q 409 903 409 1263 
L 409 3319 
L 972 3319 
L 972 1478 
Q 972 1038 1006 884 
Q 1059 663 1231 536 
Q 1403 409 1656 409 
Q 1909 409 2131 539 
Q 2353 669 2445 892 
Q 2538 1116 2538 1541 
L 2538 3319 
L 3100 3319 
L 3100 0 
L 2597 0 
z
" transform="scale(0.015625)"/>
       <path id="ArialMT-70" d="M 422 -1272 
L 422 3319 
L 934 3319 
L 934 2888 
Q 1116 3141 1344 3267 
Q 1572 3394 1897 3394 
Q 2322 3394 2647 3175 
Q 2972 2956 3137 2557 
Q 3303 2159 3303 1684 
Q 3303 1175 3120 767 
Q 2938 359 2589 142 
Q 2241 -75 1856 -75 
Q 1575 -75 1351 44 
Q 1128 163 984 344 
L 984 -1272 
L 422 -1272 
z
M 931 1641 
Q 931 1000 1190 694 
Q 1450 388 1819 388 
Q 2194 388 2461 705 
Q 2728 1022 2728 1688 
Q 2728 2322 2467 2637 
Q 2206 2953 1844 2953 
Q 1484 2953 1207 2617 
Q 931 2281 931 1641 
z
" transform="scale(0.015625)"/>
       <path id="ArialMT-74" d="M 1650 503 
L 1731 6 
Q 1494 -44 1306 -44 
Q 1000 -44 831 53 
Q 663 150 594 308 
Q 525 466 525 972 
L 525 2881 
L 113 2881 
L 113 3319 
L 525 3319 
L 525 4141 
L 1084 4478 
L 1084 3319 
L 1650 3319 
L 1650 2881 
L 1084 2881 
L 1084 941 
Q 1084 700 1114 631 
Q 1144 563 1211 522 
Q 1278 481 1403 481 
Q 1497 481 1650 503 
z
" transform="scale(0.015625)"/>
       <path id="ArialMT-69" d="M 425 3934 
L 425 4581 
L 988 4581 
L 988 3934 
L 425 3934 
z
M 425 0 
L 425 3319 
L 988 3319 
L 988 0 
L 425 0 
z
" transform="scale(0.015625)"/>
       <path id="ArialMT-28" d="M 1497 -1347 
Q 1031 -759 709 28 
Q 388 816 388 1659 
Q 388 2403 628 3084 
Q 909 3875 1497 4659 
L 1900 4659 
Q 1522 4009 1400 3731 
Q 1209 3300 1100 2831 
Q 966 2247 966 1656 
Q 966 153 1900 -1347 
L 1497 -1347 
z
" transform="scale(0.015625)"/>
       <path id="ArialMT-64" d="M 2575 0 
L 2575 419 
Q 2259 -75 1647 -75 
Q 1250 -75 917 144 
Q 584 363 401 755 
Q 219 1147 219 1656 
Q 219 2153 384 2558 
Q 550 2963 881 3178 
Q 1213 3394 1622 3394 
Q 1922 3394 2156 3267 
Q 2391 3141 2538 2938 
L 2538 4581 
L 3097 4581 
L 3097 0 
L 2575 0 
z
M 797 1656 
Q 797 1019 1065 703 
Q 1334 388 1700 388 
Q 2069 388 2326 689 
Q 2584 991 2584 1609 
Q 2584 2291 2321 2609 
Q 2059 2928 1675 2928 
Q 1300 2928 1048 2622 
Q 797 2316 797 1656 
z
" transform="scale(0.015625)"/>
       <path id="ArialMT-61" d="M 2588 409 
Q 2275 144 1986 34 
Q 1697 -75 1366 -75 
Q 819 -75 525 192 
Q 231 459 231 875 
Q 231 1119 342 1320 
Q 453 1522 633 1644 
Q 813 1766 1038 1828 
Q 1203 1872 1538 1913 
Q 2219 1994 2541 2106 
Q 2544 2222 2544 2253 
Q 2544 2597 2384 2738 
Q 2169 2928 1744 2928 
Q 1347 2928 1158 2789 
Q 969 2650 878 2297 
L 328 2372 
Q 403 2725 575 2942 
Q 747 3159 1072 3276 
Q 1397 3394 1825 3394 
Q 2250 3394 2515 3294 
Q 2781 3194 2906 3042 
Q 3031 2891 3081 2659 
Q 3109 2516 3109 2141 
L 3109 1391 
Q 3109 606 3145 398 
Q 3181 191 3288 0 
L 2700 0 
Q 2613 175 2588 409 
z
M 2541 1666 
Q 2234 1541 1622 1453 
Q 1275 1403 1131 1340 
Q 988 1278 909 1158 
Q 831 1038 831 891 
Q 831 666 1001 516 
Q 1172 366 1500 366 
Q 1825 366 2078 508 
Q 2331 650 2450 897 
Q 2541 1088 2541 1459 
L 2541 1666 
z
" transform="scale(0.015625)"/>
       <path id="ArialMT-79" d="M 397 -1278 
L 334 -750 
Q 519 -800 656 -800 
Q 844 -800 956 -737 
Q 1069 -675 1141 -563 
Q 1194 -478 1313 -144 
Q 1328 -97 1363 -6 
L 103 3319 
L 709 3319 
L 1400 1397 
Q 1534 1031 1641 628 
Q 1738 1016 1872 1384 
L 2581 3319 
L 3144 3319 
L 1881 -56 
Q 1678 -603 1566 -809 
Q 1416 -1088 1222 -1217 
Q 1028 -1347 759 -1347 
Q 597 -1347 397 -1278 
z
" transform="scale(0.015625)"/>
       <path id="ArialMT-29" d="M 791 -1347 
L 388 -1347 
Q 1322 153 1322 1656 
Q 1322 2244 1188 2822 
Q 1081 3291 891 3722 
Q 769 4003 388 4659 
L 791 4659 
Q 1378 3875 1659 3084 
Q 1900 2403 1900 1659 
Q 1900 816 1576 28 
Q 1253 -759 791 -1347 
z
" transform="scale(0.015625)"/>
      </defs>
      <use xlink:href="#ArialMT-49"/>
      <use xlink:href="#ArialMT-6e" transform="translate(27.783203 0)"/>
      <use xlink:href="#ArialMT-63" transform="translate(83.398438 0)"/>
      <use xlink:href="#ArialMT-6f" transform="translate(133.398438 0)"/>
      <use xlink:href="#ArialMT-6d" transform="translate(189.013672 0)"/>
      <use xlink:href="#ArialMT-65" transform="translate(272.314453 0)"/>
      <use xlink:href="#ArialMT-20" transform="translate(327.929688 0)"/>
      <use xlink:href="#ArialMT-6f" transform="translate(355.712891 0)"/>
      <use xlink:href="#ArialMT-72" transform="translate(411.328125 0)"/>
      <use xlink:href="#ArialMT-20" transform="translate(444.628906 0)"/>
      <use xlink:href="#ArialMT-63" transform="translate(472.412109 0)"/>
      <use xlink:href="#ArialMT-6f" transform="translate(522.412109 0)"/>
      <use xlink:href="#ArialMT-6e" transform="translate(578.027344 0)"/>
      <use xlink:href="#ArialMT-73" transform="translate(633.642578 0)"/>
      <use xlink:href="#ArialMT-75" transform="translate(683.642578 0)"/>
      <use xlink:href="#ArialMT-6d" transform="translate(739.257812 0)"/>
      <use xlink:href="#ArialMT-70" transform="translate(822.558594 0)"/>
      <use xlink:href="#ArialMT-74" transform="translate(878.173828 0)"/>
      <use xlink:href="#ArialMT-69" transform="translate(905.957031 0)"/>
      <use xlink:href="#ArialMT-6f" transform="translate(928.173828 0)"/>
      <use xlink:href="#ArialMT-6e" transform="translate(983.789062 0)"/>
      <use xlink:href="#ArialMT-20" transform="translate(1039.404297 0)"/>
      <use xlink:href="#ArialMT-28" transform="translate(1067.1875 0)"/>
      <use xlink:href="#ArialMT-64" transform="translate(1100.488281 0)"/>
      <use xlink:href="#ArialMT-61" transform="translate(1156.103516 0)"/>
      <use xlink:href="#ArialMT-79" transform="translate(1211.71875 0)"/>
      <use xlink:href="#ArialMT-29" transform="translate(1261.71875 0)"/>
     </g>
    </g>
   </g>
   <g id="matplotlib.axis_2"/>
   <g id="FillBetweenPolyCollection_1">
    <defs>
     <path id="ma864a53ca3" d="M 173.045455 -31.723565 
L 173.045455 -31.68 
L 175.669829 -31.68 
L 178.294203 -31.68 
L 180.918577 -31.68 
L 183.542951 -31.68 
L 186.167325 -31.68 
L 188.791699 -31.68 
L 191.416073 -31.68 
L 194.040448 -31.68 
L 196.664822 -31.68 
L 199.289196 -31.68 
L 201.91357 -31.68 
L 204.537944 -31.68 
L 207.162318 -31.68 
L 209.786692 -31.68 
L 212.411067 -31.68 
L 215.035441 -31.68 
L 217.659815 -31.68 
L 220.284189 -31.68 
L 222.908563 -31.68 
L 225.532937 -31.68 
L 228.157311 -31.68 
L 230.781685 -31.68 
L 233.40606 -31.68 
L 236.030434 -31.68 
L 238.654808 -31.68 
L 241.279182 -31.68 
L 243.903556 -31.68 
L 246.52793 -31.68 
L 249.152304 -31.68 
L 251.776679 -31.68 
L 254.401053 -31.68 
L 257.025427 -31.68 
L 259.649801 -31.68 
L 262.274175 -31.68 
L 264.898549 -31.68 
L 267.522923 -31.68 
L 270.147297 -31.68 
L 272.771672 -31.68 
L 275.396046 -31.68 
L 278.02042 -31.68 
L 280.644794 -31.68 
L 283.269168 -31.68 
L 285.893542 -31.68 
L 288.517916 -31.68 
L 291.142291 -31.68 
L 293.766665 -31.68 
L 296.391039 -31.68 
L 299.015413 -31.68 
L 301.639787 -31.68 
L 304.264161 -31.68 
L 306.888535 -31.68 
L 309.512909 -31.68 
L 312.137284 -31.68 
L 314.761658 -31.68 
L 317.386032 -31.68 
L 320.010406 -31.68 
L 322.63478 -31.68 
L 325.259154 -31.68 
L 327.883528 -31.68 
L 330.507903 -31.68 
L 333.132277 -31.68 
L 335.756651 -31.68 
L 338.381025 -31.68 
L 341.005399 -31.68 
L 343.629773 -31.68 
L 346.254147 -31.68 
L 348.878521 -31.68 
L 351.502896 -31.68 
L 354.12727 -31.68 
L 356.751644 -31.68 
L 359.376018 -31.68 
L 362.000392 -31.68 
L 364.624766 -31.68 
L 367.24914 -31.68 
L 369.873515 -31.68 
L 372.497889 -31.68 
L 375.122263 -31.68 
L 377.746637 -31.68 
L 380.371011 -31.68 
L 382.995385 -31.68 
L 385.619759 -31.68 
L 388.244133 -31.68 
L 390.868508 -31.68 
L 393.492882 -31.68 
L 396.117256 -31.68 
L 398.74163 -31.68 
L 401.366004 -31.68 
L 403.990378 -31.68 
L 406.614752 -31.68 
L 409.239127 -31.68 
L 411.863501 -31.68 
L 414.487875 -31.68 
L 417.112249 -31.68 
L 419.736623 -31.68 
L 422.360997 -31.68 
L 424.985371 -31.68 
L 427.609746 -31.68 
L 430.23412 -31.68 
L 432.858494 -31.68 
L 435.482868 -31.68 
L 438.107242 -31.68 
L 440.731616 -31.68 
L 443.35599 -31.68 
L 445.980364 -31.68 
L 448.604739 -31.68 
L 451.229113 -31.68 
L 453.853487 -31.68 
L 456.477861 -31.68 
L 459.102235 -31.68 
L 461.726609 -31.68 
L 464.350983 -31.68 
L 466.975358 -31.68 
L 469.599732 -31.68 
L 472.224106 -31.68 
L 474.84848 -31.68 
L 477.472854 -31.68 
L 480.097228 -31.68 
L 482.721602 -31.68 
L 485.345976 -31.68 
L 487.970351 -31.68 
L 490.594725 -31.68 
L 493.219099 -31.68 
L 495.843473 -31.68 
L 498.467847 -31.68 
L 501.092221 -31.68 
L 503.716595 -31.68 
L 506.34097 -31.68 
L 508.965344 -31.68 
L 511.589718 -31.68 
L 514.214092 -31.68 
L 516.838466 -31.68 
L 519.46284 -31.68 
L 522.087214 -31.68 
L 524.711588 -31.68 
L 527.335963 -31.68 
L 529.960337 -31.68 
L 532.584711 -31.68 
L 535.209085 -31.68 
L 537.833459 -31.68 
L 540.457833 -31.68 
L 543.082207 -31.68 
L 545.706582 -31.68 
L 548.330956 -31.68 
L 550.95533 -31.68 
L 553.579704 -31.68 
L 556.204078 -31.68 
L 558.828452 -31.68 
L 561.452826 -31.68 
L 564.0772 -31.68 
L 566.701575 -31.68 
L 569.325949 -31.68 
L 571.950323 -31.68 
L 574.574697 -31.68 
L 577.199071 -31.68 
L 579.823445 -31.68 
L 582.447819 -31.68 
L 585.072194 -31.68 
L 587.696568 -31.68 
L 590.320942 -31.68 
L 592.945316 -31.68 
L 595.56969 -31.68 
L 598.194064 -31.68 
L 600.818438 -31.68 
L 603.442812 -31.68 
L 606.067187 -31.68 
L 608.691561 -31.68 
L 611.315935 -31.68 
L 613.940309 -31.68 
L 616.564683 -31.68 
L 619.189057 -31.68 
L 621.813431 -31.68 
L 624.437806 -31.68 
L 627.06218 -31.68 
L 629.686554 -31.68 
L 632.310928 -31.68 
L 634.935302 -31.68 
L 637.559676 -31.68 
L 640.18405 -31.68 
L 642.808424 -31.68 
L 645.432799 -31.68 
L 648.057173 -31.68 
L 650.681547 -31.68 
L 653.305921 -31.68 
L 655.930295 -31.68 
L 658.554669 -31.68 
L 661.179043 -31.68 
L 663.803418 -31.68 
L 666.427792 -31.68 
L 669.052166 -31.68 
L 671.67654 -31.68 
L 674.300914 -31.68 
L 676.925288 -31.68 
L 679.549662 -31.68 
L 682.174036 -31.68 
L 684.798411 -31.68 
L 687.422785 -31.68 
L 690.047159 -31.68 
L 692.671533 -31.68 
L 695.295907 -31.68 
L 695.295907 -31.725467 
L 695.295907 -31.725467 
L 692.671533 -31.742176 
L 690.047159 -31.764072 
L 687.422785 -31.7924 
L 684.798411 -31.828586 
L 682.174036 -31.874215 
L 679.549662 -31.931006 
L 676.925288 -32.000765 
L 674.300914 -32.085316 
L 671.67654 -32.186415 
L 669.052166 -32.305653 
L 666.427792 -32.444328 
L 663.803418 -32.603324 
L 661.179043 -32.78298 
L 658.554669 -32.982969 
L 655.930295 -33.202195 
L 653.305921 -33.438727 
L 650.681547 -33.689769 
L 648.057173 -33.951687 
L 645.432799 -34.220091 
L 642.808424 -34.489991 
L 640.18405 -34.755993 
L 637.559676 -35.012574 
L 634.935302 -35.254373 
L 632.310928 -35.47652 
L 629.686554 -35.674961 
L 627.06218 -35.846758 
L 624.437806 -35.990343 
L 621.813431 -36.105709 
L 619.189057 -36.194505 
L 616.564683 -36.260041 
L 613.940309 -36.307192 
L 611.315935 -36.342199 
L 608.691561 -36.372391 
L 606.067187 -36.405838 
L 603.442812 -36.45096 
L 600.818438 -36.516131 
L 598.194064 -36.609286 
L 595.56969 -36.737574 
L 592.945316 -36.907082 
L 590.320942 -37.122624 
L 587.696568 -37.387632 
L 585.072194 -37.704137 
L 582.447819 -38.07283 
L 579.823445 -38.493205 
L 577.199071 -38.963757 
L 574.574697 -39.482219 
L 571.950323 -40.04582 
L 569.325949 -40.651544 
L 566.701575 -41.296364 
L 564.0772 -41.977461 
L 561.452826 -42.692398 
L 558.828452 -43.439249 
L 556.204078 -44.216702 
L 553.579704 -45.024109 
L 550.95533 -45.861518 
L 548.330956 -46.729674 
L 545.706582 -47.630004 
L 543.082207 -48.564591 
L 540.457833 -49.536135 
L 537.833459 -50.547917 
L 535.209085 -51.603747 
L 532.584711 -52.707915 
L 529.960337 -53.86513 
L 527.335963 -55.080448 
L 524.711588 -56.359198 
L 522.087214 -57.706883 
L 519.46284 -59.129081 
L 516.838466 -60.631325 
L 514.214092 -62.218986 
L 511.589718 -63.897133 
L 508.965344 -65.670407 
L 506.34097 -67.542886 
L 503.716595 -69.517956 
L 501.092221 -71.598198 
L 498.467847 -73.78529 
L 495.843473 -76.079923 
L 493.219099 -78.481751 
L 490.594725 -80.989369 
L 487.970351 -83.600322 
L 485.345976 -86.311155 
L 482.721602 -89.117501 
L 480.097228 -92.0142 
L 477.472854 -94.99546 
L 474.84848 -98.055037 
L 472.224106 -101.186438 
L 469.599732 -104.383121 
L 466.975358 -107.638698 
L 464.350983 -110.9471 
L 461.726609 -114.302714 
L 459.102235 -117.700458 
L 456.477861 -121.135793 
L 453.853487 -124.604659 
L 451.229113 -128.103331 
L 448.604739 -131.62821 
L 445.980364 -135.175532 
L 443.35599 -138.741037 
L 440.731616 -142.319599 
L 438.107242 -145.904847 
L 435.482868 -149.488801 
L 432.858494 -153.06155 
L 430.23412 -156.610988 
L 427.609746 -160.122642 
L 424.985371 -163.579589 
L 422.360997 -166.962489 
L 419.736623 -170.249719 
L 417.112249 -173.417612 
L 414.487875 -176.44079 
L 411.863501 -179.29257 
L 409.239127 -181.945427 
L 406.614752 -184.371494 
L 403.990378 -186.543085 
L 401.366004 -188.433207 
L 398.74163 -190.016064 
L 396.117256 -191.267533 
L 393.492882 -192.16561 
L 390.868508 -192.690816 
L 388.244133 -192.82657 
L 385.619759 -192.559526 
L 382.995385 -191.879875 
L 380.371011 -190.781609 
L 377.746637 -189.262753 
L 375.122263 -187.325551 
L 372.497889 -184.976603 
L 369.873515 -182.226945 
L 367.24914 -179.092058 
L 364.624766 -175.591791 
L 362.000392 -171.7502 
L 359.376018 -167.595281 
L 356.751644 -163.158605 
L 354.12727 -158.47485 
L 351.502896 -153.581237 
L 348.878521 -148.516889 
L 346.254147 -143.322116 
L 343.629773 -138.03767 
L 341.005399 -132.703975 
L 338.381025 -127.360373 
L 335.756651 -122.044406 
L 333.132277 -116.791164 
L 330.507903 -111.632729 
L 327.883528 -106.59772 
L 325.259154 -101.710969 
L 322.63478 -96.99333 
L 320.010406 -92.461617 
L 317.386032 -88.128681 
L 314.761658 -84.003599 
L 312.137284 -80.091974 
L 309.512909 -76.39631 
L 306.888535 -72.916446 
L 304.264161 -69.650017 
L 301.639787 -66.592927 
L 299.015413 -63.739784 
L 296.391039 -61.084296 
L 293.766665 -58.619603 
L 291.142291 -56.338522 
L 288.517916 -54.233719 
L 285.893542 -52.297787 
L 283.269168 -50.523258 
L 280.644794 -48.90255 
L 278.02042 -47.427874 
L 275.396046 -46.091125 
L 272.771672 -44.883779 
L 270.147297 -43.796812 
L 267.522923 -42.820676 
L 264.898549 -41.945322 
L 262.274175 -41.160303 
L 259.649801 -40.454931 
L 257.025427 -39.818493 
L 254.401053 -39.240509 
L 251.776679 -38.711012 
L 249.152304 -38.22082 
L 246.52793 -37.761785 
L 243.903556 -37.326999 
L 241.279182 -36.910924 
L 238.654808 -36.509464 
L 236.030434 -36.119938 
L 233.40606 -35.740993 
L 230.781685 -35.372443 
L 228.157311 -35.015054 
L 225.532937 -34.670299 
L 222.908563 -34.3401 
L 220.284189 -34.02657 
L 217.659815 -33.731782 
L 215.035441 -33.457573 
L 212.411067 -33.205396 
L 209.786692 -32.976216 
L 207.162318 -32.770462 
L 204.537944 -32.588022 
L 201.91357 -32.428277 
L 199.289196 -32.290165 
L 196.664822 -32.172266 
L 194.040448 -32.072894 
L 191.416073 -31.990198 
L 188.791699 -31.922247 
L 186.167325 -31.867114 
L 183.542951 -31.822943 
L 180.918577 -31.787997 
L 178.294203 -31.760692 
L 175.669829 -31.739623 
L 173.045455 -31.723565 
z
" style="stroke: #dd8452"/>
    </defs>
    <g clip-path="url(#p0945230266)">
     <use xlink:href="#ma864a53ca3" x="0" y="288" style="fill: #dd8452; fill-opacity: 0.25; stroke: #dd8452"/>
    </g>
   </g>
   <g id="FillBetweenPolyCollection_2">
    <defs>
     <path id="m47630b60e8" d="M 470.390046 -31.734062 
L 470.390046 -31.68 
L 472.719516 -31.68 
L 475.048986 -31.68 
L 477.378456 -31.68 
L 479.707926 -31.68 
L 482.037396 -31.68 
L 484.366866 -31.68 
L 486.696335 -31.68 
L 489.025805 -31.68 
L 491.355275 -31.68 
L 493.684745 -31.68 
L 496.014215 -31.68 
L 498.343685 -31.68 
L 500.673154 -31.68 
L 503.002624 -31.68 
L 505.332094 -31.68 
L 507.661564 -31.68 
L 509.991034 -31.68 
L 512.320504 -31.68 
L 514.649973 -31.68 
L 516.979443 -31.68 
L 519.308913 -31.68 
L 521.638383 -31.68 
L 523.967853 -31.68 
L 526.297323 -31.68 
L 528.626793 -31.68 
L 530.956262 -31.68 
L 533.285732 -31.68 
L 535.615202 -31.68 
L 537.944672 -31.68 
L 540.274142 -31.68 
L 542.603612 -31.68 
L 544.933081 -31.68 
L 547.262551 -31.68 
L 549.592021 -31.68 
L 551.921491 -31.68 
L 554.250961 -31.68 
L 556.580431 -31.68 
L 558.909901 -31.68 
L 561.23937 -31.68 
L 563.56884 -31.68 
L 565.89831 -31.68 
L 568.22778 -31.68 
L 570.55725 -31.68 
L 572.88672 -31.68 
L 575.216189 -31.68 
L 577.545659 -31.68 
L 579.875129 -31.68 
L 582.204599 -31.68 
L 584.534069 -31.68 
L 586.863539 -31.68 
L 589.193009 -31.68 
L 591.522478 -31.68 
L 593.851948 -31.68 
L 596.181418 -31.68 
L 598.510888 -31.68 
L 600.840358 -31.68 
L 603.169828 -31.68 
L 605.499297 -31.68 
L 607.828767 -31.68 
L 610.158237 -31.68 
L 612.487707 -31.68 
L 614.817177 -31.68 
L 617.146647 -31.68 
L 619.476116 -31.68 
L 621.805586 -31.68 
L 624.135056 -31.68 
L 626.464526 -31.68 
L 628.793996 -31.68 
L 631.123466 -31.68 
L 633.452936 -31.68 
L 635.782405 -31.68 
L 638.111875 -31.68 
L 640.441345 -31.68 
L 642.770815 -31.68 
L 645.100285 -31.68 
L 647.429755 -31.68 
L 649.759224 -31.68 
L 652.088694 -31.68 
L 654.418164 -31.68 
L 656.747634 -31.68 
L 659.077104 -31.68 
L 661.406574 -31.68 
L 663.736044 -31.68 
L 666.065513 -31.68 
L 668.394983 -31.68 
L 670.724453 -31.68 
L 673.053923 -31.68 
L 675.383393 -31.68 
L 677.712863 -31.68 
L 680.042332 -31.68 
L 682.371802 -31.68 
L 684.701272 -31.68 
L 687.030742 -31.68 
L 689.360212 -31.68 
L 691.689682 -31.68 
L 694.019151 -31.68 
L 696.348621 -31.68 
L 698.678091 -31.68 
L 701.007561 -31.68 
L 703.337031 -31.68 
L 705.666501 -31.68 
L 707.995971 -31.68 
L 710.32544 -31.68 
L 712.65491 -31.68 
L 714.98438 -31.68 
L 717.31385 -31.68 
L 719.64332 -31.68 
L 721.97279 -31.68 
L 724.302259 -31.68 
L 726.631729 -31.68 
L 728.961199 -31.68 
L 731.290669 -31.68 
L 733.620139 -31.68 
L 735.949609 -31.68 
L 738.279079 -31.68 
L 740.608548 -31.68 
L 742.938018 -31.68 
L 745.267488 -31.68 
L 747.596958 -31.68 
L 749.926428 -31.68 
L 752.255898 -31.68 
L 754.585367 -31.68 
L 756.914837 -31.68 
L 759.244307 -31.68 
L 761.573777 -31.68 
L 763.903247 -31.68 
L 766.232717 -31.68 
L 768.562187 -31.68 
L 770.891656 -31.68 
L 773.221126 -31.68 
L 775.550596 -31.68 
L 777.880066 -31.68 
L 780.209536 -31.68 
L 782.539006 -31.68 
L 784.868475 -31.68 
L 787.197945 -31.68 
L 789.527415 -31.68 
L 791.856885 -31.68 
L 794.186355 -31.68 
L 796.515825 -31.68 
L 798.845294 -31.68 
L 801.174764 -31.68 
L 803.504234 -31.68 
L 805.833704 -31.68 
L 808.163174 -31.68 
L 810.492644 -31.68 
L 812.822114 -31.68 
L 815.151583 -31.68 
L 817.481053 -31.68 
L 819.810523 -31.68 
L 822.139993 -31.68 
L 824.469463 -31.68 
L 826.798933 -31.68 
L 829.128402 -31.68 
L 831.457872 -31.68 
L 833.787342 -31.68 
L 836.116812 -31.68 
L 838.446282 -31.68 
L 840.775752 -31.68 
L 843.105222 -31.68 
L 845.434691 -31.68 
L 847.764161 -31.68 
L 850.093631 -31.68 
L 852.423101 -31.68 
L 854.752571 -31.68 
L 857.082041 -31.68 
L 859.41151 -31.68 
L 861.74098 -31.68 
L 864.07045 -31.68 
L 866.39992 -31.68 
L 868.72939 -31.68 
L 871.05886 -31.68 
L 873.38833 -31.68 
L 875.717799 -31.68 
L 878.047269 -31.68 
L 880.376739 -31.68 
L 882.706209 -31.68 
L 885.035679 -31.68 
L 887.365149 -31.68 
L 889.694618 -31.68 
L 892.024088 -31.68 
L 894.353558 -31.68 
L 896.683028 -31.68 
L 899.012498 -31.68 
L 901.341968 -31.68 
L 903.671437 -31.68 
L 906.000907 -31.68 
L 908.330377 -31.68 
L 910.659847 -31.68 
L 912.989317 -31.68 
L 915.318787 -31.68 
L 917.648257 -31.68 
L 919.977726 -31.68 
L 922.307196 -31.68 
L 924.636666 -31.68 
L 926.966136 -31.68 
L 929.295606 -31.68 
L 931.625076 -31.68 
L 933.954545 -31.68 
L 933.954545 -31.734913 
L 933.954545 -31.734913 
L 931.625076 -31.758413 
L 929.295606 -31.79034 
L 926.966136 -31.833004 
L 924.636666 -31.889074 
L 922.307196 -31.961529 
L 919.977726 -32.05357 
L 917.648257 -32.168481 
L 915.318787 -32.309433 
L 912.989317 -32.479241 
L 910.659847 -32.680074 
L 908.330377 -32.913143 
L 906.000907 -33.178377 
L 903.671437 -33.474136 
L 901.341968 -33.796977 
L 899.012498 -34.141523 
L 896.683028 -34.500453 
L 894.353558 -34.864649 
L 892.024088 -35.223502 
L 889.694618 -35.565379 
L 887.365149 -35.878225 
L 885.035679 -36.150258 
L 882.706209 -36.370714 
L 880.376739 -36.530565 
L 878.047269 -36.623162 
L 875.717799 -36.644732 
L 873.38833 -36.594685 
L 871.05886 -36.475709 
L 868.72939 -36.293643 
L 866.39992 -36.057142 
L 864.07045 -35.777179 
L 861.74098 -35.466429 
L 859.41151 -35.138597 
L 857.082041 -34.807759 
L 854.752571 -34.487748 
L 852.423101 -34.191662 
L 850.093631 -33.931477 
L 847.764161 -33.717809 
L 845.434691 -33.559787 
L 843.105222 -33.465038 
L 840.775752 -33.439739 
L 838.446282 -33.488714 
L 836.116812 -33.615552 
L 833.787342 -33.822716 
L 831.457872 -34.111657 
L 829.128402 -34.48291 
L 826.798933 -34.936207 
L 824.469463 -35.470611 
L 822.139993 -36.084685 
L 819.810523 -36.776731 
L 817.481053 -37.545071 
L 815.151583 -38.388394 
L 812.822114 -39.306135 
L 810.492644 -40.298862 
L 808.163174 -41.368638 
L 805.833704 -42.51931 
L 803.504234 -43.756703 
L 801.174764 -45.088685 
L 798.845294 -46.525077 
L 796.515825 -48.077427 
L 794.186355 -49.75864 
L 791.856885 -51.582515 
L 789.527415 -53.563195 
L 787.197945 -55.714604 
L 784.868475 -58.049884 
L 782.539006 -60.580894 
L 780.209536 -63.317779 
L 777.880066 -66.268641 
L 775.550596 -69.439312 
L 773.221126 -72.83324 
L 770.891656 -76.451468 
L 768.562187 -80.292698 
L 766.232717 -84.353442 
L 763.903247 -88.628223 
L 761.573777 -93.109839 
L 759.244307 -97.789658 
L 756.914837 -102.65795 
L 754.585367 -107.704211 
L 752.255898 -112.917483 
L 749.926428 -118.286618 
L 747.596958 -123.800464 
L 745.267488 -129.447924 
L 742.938018 -135.217876 
L 740.608548 -141.098911 
L 738.279079 -147.078893 
L 735.949609 -153.144367 
L 733.620139 -159.279833 
L 731.290669 -165.466966 
L 728.961199 -171.683846 
L 726.631729 -177.904292 
L 724.302259 -184.097383 
L 721.97279 -190.227231 
L 719.64332 -196.253075 
L 717.31385 -202.129683 
L 714.98438 -207.808088 
L 712.65491 -213.236579 
L 710.32544 -218.361898 
L 707.995971 -223.130541 
L 705.666501 -227.490088 
L 703.337031 -231.39045 
L 701.007561 -234.784984 
L 698.678091 -237.631426 
L 696.348621 -239.892618 
L 694.019151 -241.537051 
L 691.689682 -242.53924 
L 689.360212 -242.88 
L 687.030742 -242.546651 
L 684.701272 -241.533212 
L 682.371802 -239.84061 
L 680.042332 -237.47691 
L 677.712863 -234.457557 
L 675.383393 -230.8056 
L 673.053923 -226.551825 
L 670.724453 -221.734768 
L 668.394983 -216.400516 
L 666.065513 -210.602255 
L 663.736044 -204.399535 
L 661.406574 -197.857228 
L 659.077104 -191.044197 
L 656.747634 -184.031719 
L 654.418164 -176.891735 
L 652.088694 -169.694991 
L 649.759224 -162.509198 
L 647.429755 -155.397289 
L 645.100285 -148.415884 
L 642.770815 -141.614049 
L 640.441345 -135.032404 
L 638.111875 -128.702642 
L 635.782405 -122.647454 
L 633.452936 -116.880861 
L 631.123466 -111.408908 
L 628.793996 -106.230651 
L 626.464526 -101.33937 
L 624.135056 -96.7239 
L 621.805586 -92.37 
L 619.476116 -88.261649 
L 617.146647 -84.382218 
L 614.817177 -80.715428 
L 612.487707 -77.246083 
L 610.158237 -73.960537 
L 607.828767 -70.846936 
L 605.499297 -67.895241 
L 603.169828 -65.097091 
L 600.840358 -62.445569 
L 598.510888 -59.934917 
L 596.181418 -57.560265 
L 593.851948 -55.317406 
L 591.522478 -53.202659 
L 589.193009 -51.21281 
L 586.863539 -49.345137 
L 584.534069 -47.597484 
L 582.204599 -45.968365 
L 579.875129 -44.457042 
L 577.545659 -43.06356 
L 575.216189 -41.788692 
L 572.88672 -40.633793 
L 570.55725 -39.600541 
L 568.22778 -38.690587 
L 565.89831 -37.905125 
L 563.56884 -37.244421 
L 561.23937 -36.707337 
L 558.909901 -36.290882 
L 556.580431 -35.989856 
L 554.250961 -35.796593 
L 551.921491 -35.700868 
L 549.592021 -35.689963 
L 547.262551 -35.748923 
L 544.933081 -35.860989 
L 542.603612 -36.008192 
L 540.274142 -36.17208 
L 537.944672 -36.334527 
L 535.615202 -36.478578 
L 533.285732 -36.589249 
L 530.956262 -36.654237 
L 528.626793 -36.664471 
L 526.297323 -36.614463 
L 523.967853 -36.502422 
L 521.638383 -36.330131 
L 519.308913 -36.102598 
L 516.979443 -35.827512 
L 514.649973 -35.514557 
L 512.320504 -35.174648 
L 509.991034 -34.819154 
L 507.661564 -34.459167 
L 505.332094 -34.104878 
L 503.002624 -33.765089 
L 500.673154 -33.446887 
L 498.343685 -33.155488 
L 496.014215 -32.894229 
L 493.684745 -32.664691 
L 491.355275 -32.466922 
L 489.025805 -32.299717 
L 486.696335 -32.160933 
L 484.366866 -32.047794 
L 482.037396 -31.957174 
L 479.707926 -31.885839 
L 477.378456 -31.830636 
L 475.048986 -31.788632 
L 472.719516 -31.757199 
L 470.390046 -31.734062 
z
" style="stroke: #4c72b0"/>
    </defs>
    <g clip-path="url(#p0945230266)">
     <use xlink:href="#m47630b60e8" x="0" y="288" style="fill: #4c72b0; fill-opacity: 0.25; stroke: #4c72b0"/>
    </g>
   </g>
   <g id="line2d_37">
    <path d="M 379.539343 256.32 
L 379.539343 34.56 
" clip-path="url(#p0945230266)" style="fill: none; stroke-dasharray: 2.96,1.28; stroke-dashoffset: 0; stroke: #d3d3d3; stroke-width: 0.8"/>
   </g>
   <g id="line2d_38">
    <path d="M 587.269878 256.32 
L 587.269878 34.56 
" clip-path="url(#p0945230266)" style="fill: none; stroke-dasharray: 2.96,1.28; stroke-dashoffset: 0; stroke: #d3d3d3; stroke-width: 0.8"/>
   </g>
   <g id="line2d_39">
    <path d="M 507.173337 256.32 
L 507.173337 34.56 
" clip-path="url(#p0945230266)" style="fill: none; stroke-dasharray: 2.96,1.28; stroke-dashoffset: 0; stroke: #d3d3d3; stroke-width: 0.8"/>
   </g>
   <g id="line2d_40">
    <path d="M 135 256.32 
L 972 256.32 
" clip-path="url(#p0945230266)" style="fill: none; stroke: #808080; stroke-width: 0.5; stroke-linecap: round"/>
   </g>
   <g id="text_12">
    <!-- International Poverty Line: $2.15 -->
    <g style="fill: #808080" transform="translate(385.793093 151.95635) rotate(-90) scale(0.08 -0.08)">
     <defs>
      <path id="ArialMT-6c" d="M 409 0 
L 409 4581 
L 972 4581 
L 972 0 
L 409 0 
z
" transform="scale(0.015625)"/>
      <path id="ArialMT-50" d="M 494 0 
L 494 4581 
L 2222 4581 
Q 2678 4581 2919 4538 
Q 3256 4481 3484 4323 
Q 3713 4166 3852 3881 
Q 3991 3597 3991 3256 
Q 3991 2672 3619 2267 
Q 3247 1863 2275 1863 
L 1100 1863 
L 1100 0 
L 494 0 
z
M 1100 2403 
L 2284 2403 
Q 2872 2403 3119 2622 
Q 3366 2841 3366 3238 
Q 3366 3525 3220 3729 
Q 3075 3934 2838 4000 
Q 2684 4041 2272 4041 
L 1100 4041 
L 1100 2403 
z
" transform="scale(0.015625)"/>
      <path id="ArialMT-76" d="M 1344 0 
L 81 3319 
L 675 3319 
L 1388 1331 
Q 1503 1009 1600 663 
Q 1675 925 1809 1294 
L 2547 3319 
L 3125 3319 
L 1869 0 
L 1344 0 
z
" transform="scale(0.015625)"/>
      <path id="ArialMT-4c" d="M 469 0 
L 469 4581 
L 1075 4581 
L 1075 541 
L 3331 541 
L 3331 0 
L 469 0 
z
" transform="scale(0.015625)"/>
      <path id="ArialMT-3a" d="M 578 2678 
L 578 3319 
L 1219 3319 
L 1219 2678 
L 578 2678 
z
M 578 0 
L 578 641 
L 1219 641 
L 1219 0 
L 578 0 
z
" transform="scale(0.015625)"/>
      <path id="ArialMT-24" d="M 1594 -659 
L 1594 -97 
Q 1172 -44 908 92 
Q 644 228 451 531 
Q 259 834 228 1272 
L 794 1378 
Q 859 925 1025 713 
Q 1263 413 1594 378 
L 1594 2169 
Q 1247 2234 884 2438 
Q 616 2588 470 2853 
Q 325 3119 325 3456 
Q 325 4056 750 4428 
Q 1034 4678 1594 4734 
L 1594 5003 
L 1925 5003 
L 1925 4734 
Q 2416 4688 2703 4447 
Q 3072 4141 3147 3606 
L 2566 3519 
Q 2516 3850 2358 4026 
Q 2200 4203 1925 4259 
L 1925 2638 
Q 2350 2531 2488 2472 
Q 2750 2356 2915 2190 
Q 3081 2025 3170 1797 
Q 3259 1569 3259 1303 
Q 3259 719 2887 328 
Q 2516 -63 1925 -91 
L 1925 -659 
L 1594 -659 
z
M 1594 4266 
Q 1266 4216 1077 4003 
Q 888 3791 888 3500 
Q 888 3213 1048 3019 
Q 1209 2825 1594 2709 
L 1594 4266 
z
M 1925 378 
Q 2253 419 2467 662 
Q 2681 906 2681 1266 
Q 2681 1572 2529 1758 
Q 2378 1944 1925 2091 
L 1925 378 
z
" transform="scale(0.015625)"/>
      <path id="ArialMT-2e" d="M 581 0 
L 581 641 
L 1222 641 
L 1222 0 
L 581 0 
z
" transform="scale(0.015625)"/>
     </defs>
     <use xlink:href="#ArialMT-49"/>
     <use xlink:href="#ArialMT-6e" transform="translate(27.783203 0)"/>
     <use xlink:href="#ArialMT-74" transform="translate(83.398438 0)"/>
     <use xlink:href="#ArialMT-65" transform="translate(111.181641 0)"/>
     <use xlink:href="#ArialMT-72" transform="translate(166.796875 0)"/>
     <use xlink:href="#ArialMT-6e" transform="translate(200.097656 0)"/>
     <use xlink:href="#ArialMT-61" transform="translate(255.712891 0)"/>
     <use xlink:href="#ArialMT-74" transform="translate(311.328125 0)"/>
     <use xlink:href="#ArialMT-69" transform="translate(339.111328 0)"/>
     <use xlink:href="#ArialMT-6f" transform="translate(361.328125 0)"/>
     <use xlink:href="#ArialMT-6e" transform="translate(416.943359 0)"/>
     <use xlink:href="#ArialMT-61" transform="translate(472.558594 0)"/>
     <use xlink:href="#ArialMT-6c" transform="translate(528.173828 0)"/>
     <use xlink:href="#ArialMT-20" transform="translate(550.390625 0)"/>
     <use xlink:href="#ArialMT-50" transform="translate(578.173828 0)"/>
     <use xlink:href="#ArialMT-6f" transform="translate(644.873047 0)"/>
     <use xlink:href="#ArialMT-76" transform="translate(700.488281 0)"/>
     <use xlink:href="#ArialMT-65" transform="translate(750.488281 0)"/>
     <use xlink:href="#ArialMT-72" transform="translate(806.103516 0)"/>
     <use xlink:href="#ArialMT-74" transform="translate(839.404297 0)"/>
     <use xlink:href="#ArialMT-79" transform="translate(867.1875 0)"/>
     <use xlink:href="#ArialMT-20" transform="translate(917.1875 0)"/>
     <use xlink:href="#ArialMT-4c" transform="translate(944.970703 0)"/>
     <use xlink:href="#ArialMT-69" transform="translate(1000.585938 0)"/>
     <use xlink:href="#ArialMT-6e" transform="translate(1022.802734 0)"/>
     <use xlink:href="#ArialMT-65" transform="translate(1078.417969 0)"/>
     <use xlink:href="#ArialMT-3a" transform="translate(1134.033203 0)"/>
     <use xlink:href="#ArialMT-20" transform="translate(1161.816406 0)"/>
     <use xlink:href="#ArialMT-24" transform="translate(1189.599609 0)"/>
     <use xlink:href="#ArialMT-32" transform="translate(1245.214844 0)"/>
     <use xlink:href="#ArialMT-2e" transform="translate(1300.830078 0)"/>
     <use xlink:href="#ArialMT-31" transform="translate(1328.613281 0)"/>
     <use xlink:href="#ArialMT-35" transform="translate(1384.228516 0)"/>
    </g>
   </g>
   <g id="text_13">
    <!-- World mean: $19.18 -->
    <g style="fill: #808080" transform="translate(592.996128 108.67135) rotate(-90) scale(0.08 -0.08)">
     <defs>
      <path id="ArialMT-57" d="M 1294 0 
L 78 4581 
L 700 4581 
L 1397 1578 
Q 1509 1106 1591 641 
Q 1766 1375 1797 1488 
L 2669 4581 
L 3400 4581 
L 4056 2263 
Q 4303 1400 4413 641 
Q 4500 1075 4641 1638 
L 5359 4581 
L 5969 4581 
L 4713 0 
L 4128 0 
L 3163 3491 
Q 3041 3928 3019 4028 
Q 2947 3713 2884 3491 
L 1913 0 
L 1294 0 
z
" transform="scale(0.015625)"/>
      <path id="ArialMT-39" d="M 350 1059 
L 891 1109 
Q 959 728 1153 556 
Q 1347 384 1650 384 
Q 1909 384 2104 503 
Q 2300 622 2425 820 
Q 2550 1019 2634 1356 
Q 2719 1694 2719 2044 
Q 2719 2081 2716 2156 
Q 2547 1888 2255 1720 
Q 1963 1553 1622 1553 
Q 1053 1553 659 1965 
Q 266 2378 266 3053 
Q 266 3750 677 4175 
Q 1088 4600 1706 4600 
Q 2153 4600 2523 4359 
Q 2894 4119 3086 3673 
Q 3278 3228 3278 2384 
Q 3278 1506 3087 986 
Q 2897 466 2520 194 
Q 2144 -78 1638 -78 
Q 1100 -78 759 220 
Q 419 519 350 1059 
z
M 2653 3081 
Q 2653 3566 2395 3850 
Q 2138 4134 1775 4134 
Q 1400 4134 1122 3828 
Q 844 3522 844 3034 
Q 844 2597 1108 2323 
Q 1372 2050 1759 2050 
Q 2150 2050 2401 2323 
Q 2653 2597 2653 3081 
z
" transform="scale(0.015625)"/>
      <path id="ArialMT-38" d="M 1131 2484 
Q 781 2613 612 2850 
Q 444 3088 444 3419 
Q 444 3919 803 4259 
Q 1163 4600 1759 4600 
Q 2359 4600 2725 4251 
Q 3091 3903 3091 3403 
Q 3091 3084 2923 2848 
Q 2756 2613 2416 2484 
Q 2838 2347 3058 2040 
Q 3278 1734 3278 1309 
Q 3278 722 2862 322 
Q 2447 -78 1769 -78 
Q 1091 -78 675 323 
Q 259 725 259 1325 
Q 259 1772 486 2073 
Q 713 2375 1131 2484 
z
M 1019 3438 
Q 1019 3113 1228 2906 
Q 1438 2700 1772 2700 
Q 2097 2700 2305 2904 
Q 2513 3109 2513 3406 
Q 2513 3716 2298 3927 
Q 2084 4138 1766 4138 
Q 1444 4138 1231 3931 
Q 1019 3725 1019 3438 
z
M 838 1322 
Q 838 1081 952 856 
Q 1066 631 1291 507 
Q 1516 384 1775 384 
Q 2178 384 2440 643 
Q 2703 903 2703 1303 
Q 2703 1709 2433 1975 
Q 2163 2241 1756 2241 
Q 1359 2241 1098 1978 
Q 838 1716 838 1322 
z
" transform="scale(0.015625)"/>
     </defs>
     <use xlink:href="#ArialMT-57"/>
     <use xlink:href="#ArialMT-6f" transform="translate(92.634766 0)"/>
     <use xlink:href="#ArialMT-72" transform="translate(148.25 0)"/>
     <use xlink:href="#ArialMT-6c" transform="translate(181.550781 0)"/>
     <use xlink:href="#ArialMT-64" transform="translate(203.767578 0)"/>
     <use xlink:href="#ArialMT-20" transform="translate(259.382812 0)"/>
     <use xlink:href="#ArialMT-6d" transform="translate(287.166016 0)"/>
     <use xlink:href="#ArialMT-65" transform="translate(370.466797 0)"/>
     <use xlink:href="#ArialMT-61" transform="translate(426.082031 0)"/>
     <use xlink:href="#ArialMT-6e" transform="translate(481.697266 0)"/>
     <use xlink:href="#ArialMT-3a" transform="translate(537.3125 0)"/>
     <use xlink:href="#ArialMT-20" transform="translate(565.095703 0)"/>
     <use xlink:href="#ArialMT-24" transform="translate(592.878906 0)"/>
     <use xlink:href="#ArialMT-31" transform="translate(648.494141 0)"/>
     <use xlink:href="#ArialMT-39" transform="translate(704.109375 0)"/>
     <use xlink:href="#ArialMT-2e" transform="translate(759.724609 0)"/>
     <use xlink:href="#ArialMT-31" transform="translate(787.507812 0)"/>
     <use xlink:href="#ArialMT-38" transform="translate(843.123047 0)"/>
    </g>
   </g>
   <g id="text_14">
    <!-- World median: $8.25 -->
    <g style="fill: #808080" transform="translate(512.899587 110.44885) rotate(-90) scale(0.08 -0.08)">
     <use xlink:href="#ArialMT-57"/>
     <use xlink:href="#ArialMT-6f" transform="translate(92.634766 0)"/>
     <use xlink:href="#ArialMT-72" transform="translate(148.25 0)"/>
     <use xlink:href="#ArialMT-6c" transform="translate(181.550781 0)"/>
     <use xlink:href="#ArialMT-64" transform="translate(203.767578 0)"/>
     <use xlink:href="#ArialMT-20" transform="translate(259.382812 0)"/>
     <use xlink:href="#ArialMT-6d" transform="translate(287.166016 0)"/>
     <use xlink:href="#ArialMT-65" transform="translate(370.466797 0)"/>
     <use xlink:href="#ArialMT-64" transform="translate(426.082031 0)"/>
     <use xlink:href="#ArialMT-69" transform="translate(481.697266 0)"/>
     <use xlink:href="#ArialMT-61" transform="translate(503.914062 0)"/>
     <use xlink:href="#ArialMT-6e" transform="translate(559.529297 0)"/>
     <use xlink:href="#ArialMT-3a" transform="translate(615.144531 0)"/>
     <use xlink:href="#ArialMT-20" transform="translate(642.927734 0)"/>
     <use xlink:href="#ArialMT-24" transform="translate(670.710938 0)"/>
     <use xlink:href="#ArialMT-38" transform="translate(726.326172 0)"/>
     <use xlink:href="#ArialMT-2e" transform="translate(781.941406 0)"/>
     <use xlink:href="#ArialMT-32" transform="translate(809.724609 0)"/>
     <use xlink:href="#ArialMT-35" transform="translate(865.339844 0)"/>
    </g>
   </g>
   <g id="text_15">
    <!-- Denmark (2021) -->
    <g transform="translate(654.666835 254.215313) scale(0.1 -0.1)">
     <defs>
      <path id="ArialMT-44" d="M 494 0 
L 494 4581 
L 2072 4581 
Q 2606 4581 2888 4516 
Q 3281 4425 3559 4188 
Q 3922 3881 4101 3404 
Q 4281 2928 4281 2316 
Q 4281 1794 4159 1391 
Q 4038 988 3847 723 
Q 3656 459 3429 307 
Q 3203 156 2883 78 
Q 2563 0 2147 0 
L 494 0 
z
M 1100 541 
L 2078 541 
Q 2531 541 2789 625 
Q 3047 709 3200 863 
Q 3416 1078 3536 1442 
Q 3656 1806 3656 2325 
Q 3656 3044 3420 3430 
Q 3184 3816 2847 3947 
Q 2603 4041 2063 4041 
L 1100 4041 
L 1100 541 
z
" transform="scale(0.015625)"/>
      <path id="ArialMT-6b" d="M 425 0 
L 425 4581 
L 988 4581 
L 988 1969 
L 2319 3319 
L 3047 3319 
L 1778 2088 
L 3175 0 
L 2481 0 
L 1384 1697 
L 988 1316 
L 988 0 
L 425 0 
z
" transform="scale(0.015625)"/>
     </defs>
     <use xlink:href="#ArialMT-44"/>
     <use xlink:href="#ArialMT-65" transform="translate(72.216797 0)"/>
     <use xlink:href="#ArialMT-6e" transform="translate(127.832031 0)"/>
     <use xlink:href="#ArialMT-6d" transform="translate(183.447266 0)"/>
     <use xlink:href="#ArialMT-61" transform="translate(266.748047 0)"/>
     <use xlink:href="#ArialMT-72" transform="translate(322.363281 0)"/>
     <use xlink:href="#ArialMT-6b" transform="translate(355.664062 0)"/>
     <use xlink:href="#ArialMT-20" transform="translate(405.664062 0)"/>
     <use xlink:href="#ArialMT-28" transform="translate(433.447266 0)"/>
     <use xlink:href="#ArialMT-32" transform="translate(466.748047 0)"/>
     <use xlink:href="#ArialMT-30" transform="translate(522.363281 0)"/>
     <use xlink:href="#ArialMT-32" transform="translate(577.978516 0)"/>
     <use xlink:href="#ArialMT-31" transform="translate(633.59375 0)"/>
     <use xlink:href="#ArialMT-29" transform="translate(689.208984 0)"/>
    </g>
   </g>
   <g id="text_16">
    <!-- Kenya (2021) -->
    <g transform="translate(368.017484 254.215313) scale(0.1 -0.1)">
     <defs>
      <path id="ArialMT-4b" d="M 469 0 
L 469 4581 
L 1075 4581 
L 1075 2309 
L 3350 4581 
L 4172 4581 
L 2250 2725 
L 4256 0 
L 3456 0 
L 1825 2319 
L 1075 1588 
L 1075 0 
L 469 0 
z
" transform="scale(0.015625)"/>
     </defs>
     <use xlink:href="#ArialMT-4b"/>
     <use xlink:href="#ArialMT-65" transform="translate(66.699219 0)"/>
     <use xlink:href="#ArialMT-6e" transform="translate(122.314453 0)"/>
     <use xlink:href="#ArialMT-79" transform="translate(177.929688 0)"/>
     <use xlink:href="#ArialMT-61" transform="translate(227.929688 0)"/>
     <use xlink:href="#ArialMT-20" transform="translate(283.544922 0)"/>
     <use xlink:href="#ArialMT-28" transform="translate(311.328125 0)"/>
     <use xlink:href="#ArialMT-32" transform="translate(344.628906 0)"/>
     <use xlink:href="#ArialMT-30" transform="translate(400.244141 0)"/>
     <use xlink:href="#ArialMT-32" transform="translate(455.859375 0)"/>
     <use xlink:href="#ArialMT-31" transform="translate(511.474609 0)"/>
     <use xlink:href="#ArialMT-29" transform="translate(567.089844 0)"/>
    </g>
   </g>
  </g>
 </g>
 <defs>
  <clipPath id="p0945230266">
   <rect x="135" y="34.56" width="837" height="221.76"/>
  </clipPath>
 </defs>
</svg>
