<?xml version="1.0" encoding="utf-8" standalone="no"?>
<!DOCTYPE svg PUBLIC "-//W3C//DTD SVG 1.1//EN"
  "http://www.w3.org/Graphics/SVG/1.1/DTD/svg11.dtd">
<svg xmlns:xlink="http://www.w3.org/1999/xlink" width="851.4pt" height="265.689687pt" viewBox="0 0 851.4 265.689687" xmlns="http://www.w3.org/2000/svg" version="1.1">
 <metadata>
  <rdf:RDF xmlns:dc="http://purl.org/dc/elements/1.1/" xmlns:cc="http://creativecommons.org/ns#" xmlns:rdf="http://www.w3.org/1999/02/22-rdf-syntax-ns#">
   <cc:Work>
    <dc:type rdf:resource="http://purl.org/dc/dcmitype/StillImage"/>
    <dc:date>2025-08-14T18:13:21.307217</dc:date>
    <dc:format>image/svg+xml</dc:format>
    <dc:creator>
     <cc:Agent>
      <dc:title>Matplotlib v3.10.1, https://matplotlib.org/</dc:title>
     </cc:Agent>
    </dc:creator>
   </cc:Work>
  </rdf:RDF>
 </metadata>
 <defs>
  <style type="text/css">*{stroke-linejoin: round; stroke-linecap: butt}</style>
 </defs>
 <g id="figure_1">
  <g id="patch_1">
   <path d="M 0 265.689687 
L 851.4 265.689687 
L 851.4 0 
L 0 0 
z
" style="fill: #ffffff"/>
  </g>
  <g id="axes_1">
   <g id="patch_2">
    <path d="M 7.2 228.96 
L 844.2 228.96 
L 844.2 7.2 
L 7.2 7.2 
z
" style="fill: #ffffff"/>
   </g>
   <g id="matplotlib.axis_1">
    <g id="xtick_1">
     <g id="line2d_1">
      <defs>
       <path id="m42f4e8ade6" d="M 0 0 
L 0 3.5 
" style="stroke: #262626; stroke-width: 0.8"/>
      </defs>
      <g>
       <use xlink:href="#m42f4e8ade6" x="228.302018" y="228.96" style="fill: #262626; stroke: #262626; stroke-width: 0.8"/>
      </g>
     </g>
     <g id="text_1">
      <text style="font-size: 10px; font-family: 'Arial', 'DejaVu Sans', 'Liberation Sans', 'Bitstream Vera Sans', sans-serif; text-anchor: middle; fill: #262626" x="228.302018" y="243.117812" transform="rotate(-0 228.302018 243.117812)">1</text>
     </g>
    </g>
    <g id="xtick_2">
     <g id="line2d_2">
      <g>
       <use xlink:href="#m42f4e8ade6" x="286.349337" y="228.96" style="fill: #262626; stroke: #262626; stroke-width: 0.8"/>
      </g>
     </g>
     <g id="text_2">
      <text style="font-size: 10px; font-family: 'Arial', 'DejaVu Sans', 'Liberation Sans', 'Bitstream Vera Sans', sans-serif; text-anchor: middle; fill: #262626" x="286.349337" y="243.117812" transform="rotate(-0 286.349337 243.117812)">2</text>
     </g>
    </g>
    <g id="xtick_3">
     <g id="line2d_3">
      <g>
       <use xlink:href="#m42f4e8ade6" x="363.083719" y="228.96" style="fill: #262626; stroke: #262626; stroke-width: 0.8"/>
      </g>
     </g>
     <g id="text_3">
      <text style="font-size: 10px; font-family: 'Arial', 'DejaVu Sans', 'Liberation Sans', 'Bitstream Vera Sans', sans-serif; text-anchor: middle; fill: #262626" x="363.083719" y="243.117812" transform="rotate(-0 363.083719 243.117812)">5</text>
     </g>
    </g>
    <g id="xtick_4">
     <g id="line2d_4">
      <g>
       <use xlink:href="#m42f4e8ade6" x="421.131037" y="228.96" style="fill: #262626; stroke: #262626; stroke-width: 0.8"/>
      </g>
     </g>
     <g id="text_4">
      <text style="font-size: 10px; font-family: 'Arial', 'DejaVu Sans', 'Liberation Sans', 'Bitstream Vera Sans', sans-serif; text-anchor: middle; fill: #262626" x="421.131037" y="243.117812" transform="rotate(-0 421.131037 243.117812)">10</text>
     </g>
    </g>
    <g id="xtick_5">
     <g id="line2d_5">
      <g>
       <use xlink:href="#m42f4e8ade6" x="479.178356" y="228.96" style="fill: #262626; stroke: #262626; stroke-width: 0.8"/>
      </g>
     </g>
     <g id="text_5">
      <text style="font-size: 10px; font-family: 'Arial', 'DejaVu Sans', 'Liberation Sans', 'Bitstream Vera Sans', sans-serif; text-anchor: middle; fill: #262626" x="479.178356" y="243.117812" transform="rotate(-0 479.178356 243.117812)">20</text>
     </g>
    </g>
    <g id="xtick_6">
     <g id="line2d_6">
      <g>
       <use xlink:href="#m42f4e8ade6" x="555.912737" y="228.96" style="fill: #262626; stroke: #262626; stroke-width: 0.8"/>
      </g>
     </g>
     <g id="text_6">
      <text style="font-size: 10px; font-family: 'Arial', 'DejaVu Sans', 'Liberation Sans', 'Bitstream Vera Sans', sans-serif; text-anchor: middle; fill: #262626" x="555.912737" y="243.117812" transform="rotate(-0 555.912737 243.117812)">50</text>
     </g>
    </g>
    <g id="xtick_7">
     <g id="line2d_7">
      <g>
       <use xlink:href="#m42f4e8ade6" x="613.960056" y="228.96" style="fill: #262626; stroke: #262626; stroke-width: 0.8"/>
      </g>
     </g>
     <g id="text_7">
      <text style="font-size: 10px; font-family: 'Arial', 'DejaVu Sans', 'Liberation Sans', 'Bitstream Vera Sans', sans-serif; text-anchor: middle; fill: #262626" x="613.960056" y="243.117812" transform="rotate(-0 613.960056 243.117812)">100</text>
     </g>
    </g>
    <g id="xtick_8">
     <g id="line2d_8">
      <g>
       <use xlink:href="#m42f4e8ade6" x="672.007375" y="228.96" style="fill: #262626; stroke: #262626; stroke-width: 0.8"/>
      </g>
     </g>
     <g id="text_8">
      <text style="font-size: 10px; font-family: 'Arial', 'DejaVu Sans', 'Liberation Sans', 'Bitstream Vera Sans', sans-serif; text-anchor: middle; fill: #262626" x="672.007375" y="243.117812" transform="rotate(-0 672.007375 243.117812)">200</text>
     </g>
    </g>
    <g id="xtick_9">
     <g id="line2d_9">
      <g>
       <use xlink:href="#m42f4e8ade6" x="748.741756" y="228.96" style="fill: #262626; stroke: #262626; stroke-width: 0.8"/>
      </g>
     </g>
     <g id="text_9">
      <text style="font-size: 10px; font-family: 'Arial', 'DejaVu Sans', 'Liberation Sans', 'Bitstream Vera Sans', sans-serif; text-anchor: middle; fill: #262626" x="748.741756" y="243.117812" transform="rotate(-0 748.741756 243.117812)">500</text>
     </g>
    </g>
    <g id="xtick_10">
     <g id="line2d_10">
      <g>
       <use xlink:href="#m42f4e8ade6" x="806.789075" y="228.96" style="fill: #262626; stroke: #262626; stroke-width: 0.8"/>
      </g>
     </g>
     <g id="text_10">
      <text style="font-size: 10px; font-family: 'Arial', 'DejaVu Sans', 'Liberation Sans', 'Bitstream Vera Sans', sans-serif; text-anchor: middle; fill: #262626" x="806.789075" y="243.117812" transform="rotate(-0 806.789075 243.117812)">1000</text>
     </g>
    </g>
    <g id="xtick_11">
     <g id="line2d_11">
      <defs>
       <path id="m1438bcbd06" d="M 0 0 
L 0 2 
" style="stroke: #262626; stroke-width: 0.6"/>
      </defs>
      <g>
       <use xlink:href="#m1438bcbd06" x="16.785937" y="228.96" style="fill: #262626; stroke: #262626; stroke-width: 0.6"/>
      </g>
     </g>
    </g>
    <g id="xtick_12">
     <g id="line2d_12">
      <g>
       <use xlink:href="#m1438bcbd06" x="26.649628" y="228.96" style="fill: #262626; stroke: #262626; stroke-width: 0.6"/>
      </g>
     </g>
    </g>
    <g id="xtick_13">
     <g id="line2d_13">
      <g>
       <use xlink:href="#m1438bcbd06" x="93.520318" y="228.96" style="fill: #262626; stroke: #262626; stroke-width: 0.6"/>
      </g>
     </g>
    </g>
    <g id="xtick_14">
     <g id="line2d_14">
      <g>
       <use xlink:href="#m1438bcbd06" x="127.475823" y="228.96" style="fill: #262626; stroke: #262626; stroke-width: 0.6"/>
      </g>
     </g>
    </g>
    <g id="xtick_15">
     <g id="line2d_15">
      <g>
       <use xlink:href="#m1438bcbd06" x="151.567637" y="228.96" style="fill: #262626; stroke: #262626; stroke-width: 0.6"/>
      </g>
     </g>
    </g>
    <g id="xtick_16">
     <g id="line2d_16">
      <g>
       <use xlink:href="#m1438bcbd06" x="170.2547" y="228.96" style="fill: #262626; stroke: #262626; stroke-width: 0.6"/>
      </g>
     </g>
    </g>
    <g id="xtick_17">
     <g id="line2d_17">
      <g>
       <use xlink:href="#m1438bcbd06" x="185.523142" y="228.96" style="fill: #262626; stroke: #262626; stroke-width: 0.6"/>
      </g>
     </g>
    </g>
    <g id="xtick_18">
     <g id="line2d_18">
      <g>
       <use xlink:href="#m1438bcbd06" x="198.432426" y="228.96" style="fill: #262626; stroke: #262626; stroke-width: 0.6"/>
      </g>
     </g>
    </g>
    <g id="xtick_19">
     <g id="line2d_19">
      <g>
       <use xlink:href="#m1438bcbd06" x="209.614956" y="228.96" style="fill: #262626; stroke: #262626; stroke-width: 0.6"/>
      </g>
     </g>
    </g>
    <g id="xtick_20">
     <g id="line2d_20">
      <g>
       <use xlink:href="#m1438bcbd06" x="219.478646" y="228.96" style="fill: #262626; stroke: #262626; stroke-width: 0.6"/>
      </g>
     </g>
    </g>
    <g id="xtick_21">
     <g id="line2d_21">
      <g>
       <use xlink:href="#m1438bcbd06" x="320.304842" y="228.96" style="fill: #262626; stroke: #262626; stroke-width: 0.6"/>
      </g>
     </g>
    </g>
    <g id="xtick_22">
     <g id="line2d_22">
      <g>
       <use xlink:href="#m1438bcbd06" x="344.396656" y="228.96" style="fill: #262626; stroke: #262626; stroke-width: 0.6"/>
      </g>
     </g>
    </g>
    <g id="xtick_23">
     <g id="line2d_23">
      <g>
       <use xlink:href="#m1438bcbd06" x="378.352161" y="228.96" style="fill: #262626; stroke: #262626; stroke-width: 0.6"/>
      </g>
     </g>
    </g>
    <g id="xtick_24">
     <g id="line2d_24">
      <g>
       <use xlink:href="#m1438bcbd06" x="391.261444" y="228.96" style="fill: #262626; stroke: #262626; stroke-width: 0.6"/>
      </g>
     </g>
    </g>
    <g id="xtick_25">
     <g id="line2d_25">
      <g>
       <use xlink:href="#m1438bcbd06" x="402.443974" y="228.96" style="fill: #262626; stroke: #262626; stroke-width: 0.6"/>
      </g>
     </g>
    </g>
    <g id="xtick_26">
     <g id="line2d_26">
      <g>
       <use xlink:href="#m1438bcbd06" x="412.307665" y="228.96" style="fill: #262626; stroke: #262626; stroke-width: 0.6"/>
      </g>
     </g>
    </g>
    <g id="xtick_27">
     <g id="line2d_27">
      <g>
       <use xlink:href="#m1438bcbd06" x="513.133861" y="228.96" style="fill: #262626; stroke: #262626; stroke-width: 0.6"/>
      </g>
     </g>
    </g>
    <g id="xtick_28">
     <g id="line2d_28">
      <g>
       <use xlink:href="#m1438bcbd06" x="537.225675" y="228.96" style="fill: #262626; stroke: #262626; stroke-width: 0.6"/>
      </g>
     </g>
    </g>
    <g id="xtick_29">
     <g id="line2d_29">
      <g>
       <use xlink:href="#m1438bcbd06" x="571.181179" y="228.96" style="fill: #262626; stroke: #262626; stroke-width: 0.6"/>
      </g>
     </g>
    </g>
    <g id="xtick_30">
     <g id="line2d_30">
      <g>
       <use xlink:href="#m1438bcbd06" x="584.090463" y="228.96" style="fill: #262626; stroke: #262626; stroke-width: 0.6"/>
      </g>
     </g>
    </g>
    <g id="xtick_31">
     <g id="line2d_31">
      <g>
       <use xlink:href="#m1438bcbd06" x="595.272993" y="228.96" style="fill: #262626; stroke: #262626; stroke-width: 0.6"/>
      </g>
     </g>
    </g>
    <g id="xtick_32">
     <g id="line2d_32">
      <g>
       <use xlink:href="#m1438bcbd06" x="605.136684" y="228.96" style="fill: #262626; stroke: #262626; stroke-width: 0.6"/>
      </g>
     </g>
    </g>
    <g id="xtick_33">
     <g id="line2d_33">
      <g>
       <use xlink:href="#m1438bcbd06" x="705.962879" y="228.96" style="fill: #262626; stroke: #262626; stroke-width: 0.6"/>
      </g>
     </g>
    </g>
    <g id="xtick_34">
     <g id="line2d_34">
      <g>
       <use xlink:href="#m1438bcbd06" x="730.054693" y="228.96" style="fill: #262626; stroke: #262626; stroke-width: 0.6"/>
      </g>
     </g>
    </g>
    <g id="xtick_35">
     <g id="line2d_35">
      <g>
       <use xlink:href="#m1438bcbd06" x="764.010198" y="228.96" style="fill: #262626; stroke: #262626; stroke-width: 0.6"/>
      </g>
     </g>
    </g>
    <g id="xtick_36">
     <g id="line2d_36">
      <g>
       <use xlink:href="#m1438bcbd06" x="776.919482" y="228.96" style="fill: #262626; stroke: #262626; stroke-width: 0.6"/>
      </g>
     </g>
    </g>
    <g id="xtick_37">
     <g id="line2d_37">
      <g>
       <use xlink:href="#m1438bcbd06" x="788.102012" y="228.96" style="fill: #262626; stroke: #262626; stroke-width: 0.6"/>
      </g>
     </g>
    </g>
    <g id="xtick_38">
     <g id="line2d_38">
      <g>
       <use xlink:href="#m1438bcbd06" x="797.965703" y="228.96" style="fill: #262626; stroke: #262626; stroke-width: 0.6"/>
      </g>
     </g>
    </g>
    <g id="text_11">
     <text style="font-size: 10px; font-family: 'Arial', 'DejaVu Sans', 'Liberation Sans', 'Bitstream Vera Sans', sans-serif; text-anchor: middle; fill: #262626" x="425.7" y="256.385" transform="rotate(-0 425.7 256.385)">Income or consumption (day)</text>
    </g>
   </g>
   <g id="matplotlib.axis_2"/>
   <g id="FillBetweenPolyCollection_1">
    <defs>
     <path id="mae2b0a973b" d="M 45.245455 -36.804515 
L 45.245455 -36.729688 
L 47.794875 -36.729688 
L 50.344295 -36.729688 
L 52.893714 -36.729688 
L 55.443134 -36.729688 
L 57.992554 -36.729688 
L 60.541974 -36.729688 
L 63.091394 -36.729688 
L 65.640814 -36.729688 
L 68.190234 -36.729688 
L 70.739654 -36.729688 
L 73.289074 -36.729688 
L 75.838494 -36.729688 
L 78.387914 -36.729688 
L 80.937334 -36.729688 
L 83.486754 -36.729688 
L 86.036174 -36.729688 
L 88.585594 -36.729688 
L 91.135014 -36.729688 
L 93.684434 -36.729688 
L 96.233854 -36.729688 
L 98.783274 -36.729688 
L 101.332694 -36.729688 
L 103.882114 -36.729688 
L 106.431534 -36.729688 
L 108.980954 -36.729688 
L 111.530374 -36.729688 
L 114.079794 -36.729688 
L 116.629214 -36.729688 
L 119.178634 -36.729688 
L 121.728054 -36.729688 
L 124.277474 -36.729688 
L 126.826894 -36.729688 
L 129.376314 -36.729688 
L 131.925734 -36.729688 
L 134.475154 -36.729688 
L 137.024574 -36.729688 
L 139.573994 -36.729688 
L 142.123414 -36.729688 
L 144.672834 -36.729688 
L 147.222254 -36.729688 
L 149.771674 -36.729688 
L 152.321094 -36.729688 
L 154.870514 -36.729688 
L 157.419934 -36.729688 
L 159.969354 -36.729688 
L 162.518774 -36.729688 
L 165.068194 -36.729688 
L 167.617614 -36.729688 
L 170.167034 -36.729688 
L 172.716454 -36.729688 
L 175.265874 -36.729688 
L 177.815294 -36.729688 
L 180.364714 -36.729688 
L 182.914133 -36.729688 
L 185.463553 -36.729688 
L 188.012973 -36.729688 
L 190.562393 -36.729688 
L 193.111813 -36.729688 
L 195.661233 -36.729688 
L 198.210653 -36.729688 
L 200.760073 -36.729688 
L 203.309493 -36.729688 
L 205.858913 -36.729688 
L 208.408333 -36.729688 
L 210.957753 -36.729688 
L 213.507173 -36.729688 
L 216.056593 -36.729688 
L 218.606013 -36.729688 
L 221.155433 -36.729688 
L 223.704853 -36.729688 
L 226.254273 -36.729688 
L 228.803693 -36.729688 
L 231.353113 -36.729688 
L 233.902533 -36.729688 
L 236.451953 -36.729688 
L 239.001373 -36.729688 
L 241.550793 -36.729688 
L 244.100213 -36.729688 
L 246.649633 -36.729688 
L 249.199053 -36.729688 
L 251.748473 -36.729688 
L 254.297893 -36.729688 
L 256.847313 -36.729688 
L 259.396733 -36.729688 
L 261.946153 -36.729688 
L 264.495573 -36.729688 
L 267.044993 -36.729688 
L 269.594413 -36.729688 
L 272.143833 -36.729688 
L 274.693253 -36.729688 
L 277.242673 -36.729688 
L 279.792093 -36.729688 
L 282.341513 -36.729688 
L 284.890933 -36.729688 
L 287.440353 -36.729688 
L 289.989773 -36.729688 
L 292.539193 -36.729688 
L 295.088613 -36.729688 
L 297.638033 -36.729688 
L 300.187453 -36.729688 
L 302.736873 -36.729688 
L 305.286293 -36.729688 
L 307.835713 -36.729688 
L 310.385133 -36.729688 
L 312.934552 -36.729688 
L 315.483972 -36.729688 
L 318.033392 -36.729688 
L 320.582812 -36.729688 
L 323.132232 -36.729688 
L 325.681652 -36.729688 
L 328.231072 -36.729688 
L 330.780492 -36.729688 
L 333.329912 -36.729688 
L 335.879332 -36.729688 
L 338.428752 -36.729688 
L 340.978172 -36.729688 
L 343.527592 -36.729688 
L 346.077012 -36.729688 
L 348.626432 -36.729688 
L 351.175852 -36.729688 
L 353.725272 -36.729688 
L 356.274692 -36.729688 
L 358.824112 -36.729688 
L 361.373532 -36.729688 
L 363.922952 -36.729688 
L 366.472372 -36.729688 
L 369.021792 -36.729688 
L 371.571212 -36.729688 
L 374.120632 -36.729688 
L 376.670052 -36.729688 
L 379.219472 -36.729688 
L 381.768892 -36.729688 
L 384.318312 -36.729688 
L 386.867732 -36.729688 
L 389.417152 -36.729688 
L 391.966572 -36.729688 
L 394.515992 -36.729688 
L 397.065412 -36.729688 
L 399.614832 -36.729688 
L 402.164252 -36.729688 
L 404.713672 -36.729688 
L 407.263092 -36.729688 
L 409.812512 -36.729688 
L 412.361932 -36.729688 
L 414.911352 -36.729688 
L 417.460772 -36.729688 
L 420.010192 -36.729688 
L 422.559612 -36.729688 
L 425.109032 -36.729688 
L 427.658452 -36.729688 
L 430.207872 -36.729688 
L 432.757292 -36.729688 
L 435.306712 -36.729688 
L 437.856132 -36.729688 
L 440.405552 -36.729688 
L 442.954972 -36.729688 
L 445.504391 -36.729688 
L 448.053811 -36.729688 
L 450.603231 -36.729688 
L 453.152651 -36.729688 
L 455.702071 -36.729688 
L 458.251491 -36.729688 
L 460.800911 -36.729688 
L 463.350331 -36.729688 
L 465.899751 -36.729688 
L 468.449171 -36.729688 
L 470.998591 -36.729688 
L 473.548011 -36.729688 
L 476.097431 -36.729688 
L 478.646851 -36.729688 
L 481.196271 -36.729688 
L 483.745691 -36.729688 
L 486.295111 -36.729688 
L 488.844531 -36.729688 
L 491.393951 -36.729688 
L 493.943371 -36.729688 
L 496.492791 -36.729688 
L 499.042211 -36.729688 
L 501.591631 -36.729688 
L 504.141051 -36.729688 
L 506.690471 -36.729688 
L 509.239891 -36.729688 
L 511.789311 -36.729688 
L 514.338731 -36.729688 
L 516.888151 -36.729688 
L 519.437571 -36.729688 
L 521.986991 -36.729688 
L 524.536411 -36.729688 
L 527.085831 -36.729688 
L 529.635251 -36.729688 
L 532.184671 -36.729688 
L 534.734091 -36.729688 
L 537.283511 -36.729688 
L 539.832931 -36.729688 
L 542.382351 -36.729688 
L 544.931771 -36.729688 
L 547.481191 -36.729688 
L 550.030611 -36.729688 
L 552.580031 -36.729688 
L 552.580031 -36.767524 
L 552.580031 -36.767524 
L 550.030611 -36.780513 
L 547.481191 -36.797283 
L 544.931771 -36.818691 
L 542.382351 -36.845713 
L 539.832931 -36.879435 
L 537.283511 -36.921037 
L 534.734091 -36.971765 
L 532.184671 -37.032899 
L 529.635251 -37.105701 
L 527.085831 -37.191357 
L 524.536411 -37.290906 
L 521.986991 -37.405166 
L 519.437571 -37.534651 
L 516.888151 -37.679492 
L 514.338731 -37.839363 
L 511.789311 -38.013418 
L 509.239891 -38.200252 
L 506.690471 -38.397883 
L 504.141051 -38.603768 
L 501.591631 -38.81485 
L 499.042211 -39.027647 
L 496.492791 -39.238374 
L 493.943371 -39.443099 
L 491.393951 -39.637928 
L 488.844531 -39.819201 
L 486.295111 -39.983704 
L 483.745691 -40.128869 
L 481.196271 -40.252957 
L 478.646851 -40.355205 
L 476.097431 -40.435937 
L 473.548011 -40.496614 
L 470.998591 -40.53983 
L 468.449171 -40.569246 
L 465.899751 -40.589466 
L 463.350331 -40.605864 
L 460.800911 -40.624364 
L 458.251491 -40.6512 
L 455.702071 -40.692656 
L 453.152651 -40.75481 
L 450.603231 -40.843305 
L 448.053811 -40.963144 
L 445.504391 -41.118529 
L 442.954972 -41.312765 
L 440.405552 -41.548204 
L 437.856132 -41.82626 
L 435.306712 -42.147472 
L 432.757292 -42.511609 
L 430.207872 -42.917818 
L 427.658452 -43.364796 
L 425.109032 -43.850967 
L 422.559612 -44.374667 
L 420.010192 -44.934316 
L 417.460772 -45.528563 
L 414.911352 -46.156414 
L 412.361932 -46.817317 
L 409.812512 -47.511228 
L 407.263092 -48.238632 
L 404.713672 -49.000541 
L 402.164252 -49.798468 
L 399.614832 -50.634379 
L 397.065412 -51.510634 
L 394.515992 -52.429915 
L 391.966572 -53.395153 
L 389.417152 -54.409453 
L 386.867732 -55.476018 
L 384.318312 -56.59808 
L 381.768892 -57.778829 
L 379.219472 -59.021349 
L 376.670052 -60.328561 
L 374.120632 -61.703162 
L 371.571212 -63.14758 
L 369.021792 -64.663924 
L 366.472372 -66.253955 
L 363.922952 -67.919051 
L 361.373532 -69.660198 
L 358.824112 -71.477982 
L 356.274692 -73.372598 
L 353.725272 -75.343873 
L 351.175852 -77.391294 
L 348.626432 -79.514049 
L 346.077012 -81.711067 
L 343.527592 -83.98106 
L 340.978172 -86.32256 
L 338.428752 -88.733942 
L 335.879332 -91.21344 
L 333.329912 -93.759136 
L 330.780492 -96.368941 
L 328.231072 -99.040549 
L 325.681652 -101.771381 
L 323.132232 -104.558506 
L 320.582812 -107.398566 
L 318.033392 -110.287684 
L 315.483972 -113.221385 
L 312.934552 -116.194513 
L 310.385133 -119.201171 
L 307.835713 -122.234662 
L 305.286293 -125.28746 
L 302.736873 -128.351188 
L 300.187453 -131.416617 
L 297.638033 -134.473674 
L 295.088613 -137.511471 
L 292.539193 -140.518334 
L 289.989773 -143.481844 
L 287.440353 -146.388883 
L 284.890933 -149.225689 
L 282.341513 -151.977916 
L 279.792093 -154.630706 
L 277.242673 -157.168773 
L 274.693253 -159.576509 
L 272.143833 -161.838113 
L 269.594413 -163.937738 
L 267.044993 -165.859678 
L 264.495573 -167.588574 
L 261.946153 -169.109653 
L 259.396733 -170.408983 
L 256.847313 -171.473751 
L 254.297893 -172.29254 
L 251.748473 -172.8556 
L 249.199053 -173.155108 
L 246.649633 -173.185391 
L 244.100213 -172.943105 
L 241.550793 -172.427373 
L 239.001373 -171.639847 
L 236.451953 -170.584715 
L 233.902533 -169.268641 
L 231.353113 -167.700635 
L 228.803693 -165.891869 
L 226.254273 -163.855443 
L 223.704853 -161.60611 
L 221.155433 -159.159978 
L 218.606013 -156.534195 
L 216.056593 -153.746635 
L 213.507173 -150.815598 
L 210.957753 -147.759528 
L 208.408333 -144.59676 
L 205.858913 -141.345301 
L 203.309493 -138.022654 
L 200.760073 -134.645667 
L 198.210653 -131.230429 
L 195.661233 -127.792193 
L 193.111813 -124.34533 
L 190.562393 -120.903306 
L 188.012973 -117.478671 
L 185.463553 -114.083071 
L 182.914133 -110.727258 
L 180.364714 -107.421103 
L 177.815294 -104.173613 
L 175.265874 -100.992929 
L 172.716454 -97.886328 
L 170.167034 -94.860206 
L 167.617614 -91.920053 
L 165.068194 -89.070422 
L 162.518774 -86.314887 
L 159.969354 -83.656011 
L 157.419934 -81.095311 
L 154.870514 -78.633245 
L 152.321094 -76.269215 
L 149.771674 -74.001608 
L 147.222254 -71.827861 
L 144.672834 -69.744578 
L 142.123414 -67.747673 
L 139.573994 -65.832559 
L 137.024574 -63.994361 
L 134.475154 -62.228152 
L 131.925734 -60.529191 
L 129.376314 -58.893154 
L 126.826894 -57.316341 
L 124.277474 -55.795849 
L 121.728054 -54.32968 
L 119.178634 -52.916808 
L 116.629214 -51.557167 
L 114.079794 -50.25158 
L 111.530374 -49.001628 
L 108.980954 -47.809475 
L 106.431534 -46.677647 
L 103.882114 -45.6088 
L 101.332694 -44.605481 
L 98.783274 -43.669899 
L 96.233854 -42.803731 
L 93.684434 -42.007963 
L 91.135014 -41.282775 
L 88.585594 -40.627484 
L 86.036174 -40.040536 
L 83.486754 -39.519545 
L 80.937334 -39.061375 
L 78.387914 -38.662253 
L 75.838494 -38.317906 
L 73.289074 -38.023705 
L 70.739654 -37.774821 
L 68.190234 -37.566364 
L 65.640814 -37.393514 
L 63.091394 -37.251632 
L 60.541974 -37.136348 
L 57.992554 -37.043625 
L 55.443134 -36.96981 
L 52.893714 -36.911646 
L 50.344295 -36.866283 
L 47.794875 -36.831267 
L 45.245455 -36.804515 
z
" style="stroke: #dd8452"/>
    </defs>
    <g>
     <use xlink:href="#mae2b0a973b" x="0" y="265.689687" style="fill: #dd8452; fill-opacity: 0.25; stroke: #dd8452"/>
    </g>
   </g>
   <g id="FillBetweenPolyCollection_2">
    <defs>
     <path id="m6e57fc0c51" d="M 325.195434 -36.782771 
L 325.195434 -36.729688 
L 327.612314 -36.729688 
L 330.029194 -36.729688 
L 332.446074 -36.729688 
L 334.862954 -36.729688 
L 337.279834 -36.729688 
L 339.696713 -36.729688 
L 342.113593 -36.729688 
L 344.530473 -36.729688 
L 346.947353 -36.729688 
L 349.364233 -36.729688 
L 351.781113 -36.729688 
L 354.197993 -36.729688 
L 356.614873 -36.729688 
L 359.031753 -36.729688 
L 361.448633 -36.729688 
L 363.865513 -36.729688 
L 366.282393 -36.729688 
L 368.699273 -36.729688 
L 371.116153 -36.729688 
L 373.533033 -36.729688 
L 375.949913 -36.729688 
L 378.366793 -36.729688 
L 380.783673 -36.729688 
L 383.200553 -36.729688 
L 385.617433 -36.729688 
L 388.034313 -36.729688 
L 390.451193 -36.729688 
L 392.868073 -36.729688 
L 395.284953 -36.729688 
L 397.701832 -36.729688 
L 400.118712 -36.729688 
L 402.535592 -36.729688 
L 404.952472 -36.729688 
L 407.369352 -36.729688 
L 409.786232 -36.729688 
L 412.203112 -36.729688 
L 414.619992 -36.729688 
L 417.036872 -36.729688 
L 419.453752 -36.729688 
L 421.870632 -36.729688 
L 424.287512 -36.729688 
L 426.704392 -36.729688 
L 429.121272 -36.729688 
L 431.538152 -36.729688 
L 433.955032 -36.729688 
L 436.371912 -36.729688 
L 438.788792 -36.729688 
L 441.205672 -36.729688 
L 443.622552 -36.729688 
L 446.039432 -36.729688 
L 448.456312 -36.729688 
L 450.873192 -36.729688 
L 453.290072 -36.729688 
L 455.706951 -36.729688 
L 458.123831 -36.729688 
L 460.540711 -36.729688 
L 462.957591 -36.729688 
L 465.374471 -36.729688 
L 467.791351 -36.729688 
L 470.208231 -36.729688 
L 472.625111 -36.729688 
L 475.041991 -36.729688 
L 477.458871 -36.729688 
L 479.875751 -36.729688 
L 482.292631 -36.729688 
L 484.709511 -36.729688 
L 487.126391 -36.729688 
L 489.543271 -36.729688 
L 491.960151 -36.729688 
L 494.377031 -36.729688 
L 496.793911 -36.729688 
L 499.210791 -36.729688 
L 501.627671 -36.729688 
L 504.044551 -36.729688 
L 506.461431 -36.729688 
L 508.878311 -36.729688 
L 511.295191 -36.729688 
L 513.71207 -36.729688 
L 516.12895 -36.729688 
L 518.54583 -36.729688 
L 520.96271 -36.729688 
L 523.37959 -36.729688 
L 525.79647 -36.729688 
L 528.21335 -36.729688 
L 530.63023 -36.729688 
L 533.04711 -36.729688 
L 535.46399 -36.729688 
L 537.88087 -36.729688 
L 540.29775 -36.729688 
L 542.71463 -36.729688 
L 545.13151 -36.729688 
L 547.54839 -36.729688 
L 549.96527 -36.729688 
L 552.38215 -36.729688 
L 554.79903 -36.729688 
L 557.21591 -36.729688 
L 559.63279 -36.729688 
L 562.04967 -36.729688 
L 564.46655 -36.729688 
L 566.88343 -36.729688 
L 569.30031 -36.729688 
L 571.717189 -36.729688 
L 574.134069 -36.729688 
L 576.550949 -36.729688 
L 578.967829 -36.729688 
L 581.384709 -36.729688 
L 583.801589 -36.729688 
L 586.218469 -36.729688 
L 588.635349 -36.729688 
L 591.052229 -36.729688 
L 593.469109 -36.729688 
L 595.885989 -36.729688 
L 598.302869 -36.729688 
L 600.719749 -36.729688 
L 603.136629 -36.729688 
L 605.553509 -36.729688 
L 607.970389 -36.729688 
L 610.387269 -36.729688 
L 612.804149 -36.729688 
L 615.221029 -36.729688 
L 617.637909 -36.729688 
L 620.054789 -36.729688 
L 622.471669 -36.729688 
L 624.888549 -36.729688 
L 627.305429 -36.729688 
L 629.722308 -36.729688 
L 632.139188 -36.729688 
L 634.556068 -36.729688 
L 636.972948 -36.729688 
L 639.389828 -36.729688 
L 641.806708 -36.729688 
L 644.223588 -36.729688 
L 646.640468 -36.729688 
L 649.057348 -36.729688 
L 651.474228 -36.729688 
L 653.891108 -36.729688 
L 656.307988 -36.729688 
L 658.724868 -36.729688 
L 661.141748 -36.729688 
L 663.558628 -36.729688 
L 665.975508 -36.729688 
L 668.392388 -36.729688 
L 670.809268 -36.729688 
L 673.226148 -36.729688 
L 675.643028 -36.729688 
L 678.059908 -36.729688 
L 680.476788 -36.729688 
L 682.893668 -36.729688 
L 685.310548 -36.729688 
L 687.727427 -36.729688 
L 690.144307 -36.729688 
L 692.561187 -36.729688 
L 694.978067 -36.729688 
L 697.394947 -36.729688 
L 699.811827 -36.729688 
L 702.228707 -36.729688 
L 704.645587 -36.729688 
L 707.062467 -36.729688 
L 709.479347 -36.729688 
L 711.896227 -36.729688 
L 714.313107 -36.729688 
L 716.729987 -36.729688 
L 719.146867 -36.729688 
L 721.563747 -36.729688 
L 723.980627 -36.729688 
L 726.397507 -36.729688 
L 728.814387 -36.729688 
L 731.231267 -36.729688 
L 733.648147 -36.729688 
L 736.065027 -36.729688 
L 738.481907 -36.729688 
L 740.898787 -36.729688 
L 743.315667 -36.729688 
L 745.732546 -36.729688 
L 748.149426 -36.729688 
L 750.566306 -36.729688 
L 752.983186 -36.729688 
L 755.400066 -36.729688 
L 757.816946 -36.729688 
L 760.233826 -36.729688 
L 762.650706 -36.729688 
L 765.067586 -36.729688 
L 767.484466 -36.729688 
L 769.901346 -36.729688 
L 772.318226 -36.729688 
L 774.735106 -36.729688 
L 777.151986 -36.729688 
L 779.568866 -36.729688 
L 781.985746 -36.729688 
L 784.402626 -36.729688 
L 786.819506 -36.729688 
L 789.236386 -36.729688 
L 791.653266 -36.729688 
L 794.070146 -36.729688 
L 796.487026 -36.729688 
L 798.903906 -36.729688 
L 801.320786 -36.729688 
L 803.737665 -36.729688 
L 806.154545 -36.729688 
L 806.154545 -36.782771 
L 806.154545 -36.782771 
L 803.737665 -36.808118 
L 801.320786 -36.843535 
L 798.903906 -36.892044 
L 796.487026 -36.957159 
L 794.070146 -37.042795 
L 791.653266 -37.153106 
L 789.236386 -37.292232 
L 786.819506 -37.463953 
L 784.402626 -37.671273 
L 781.985746 -37.915937 
L 779.568866 -38.197945 
L 777.151986 -38.515098 
L 774.735106 -38.862654 
L 772.318226 -39.233143 
L 769.901346 -39.616414 
L 767.484466 -39.999941 
L 765.067586 -40.3694 
L 762.650706 -40.709502 
L 760.233826 -41.005009 
L 757.816946 -41.241855 
L 755.400066 -41.408252 
L 752.983186 -41.495664 
L 750.566306 -41.499537 
L 748.149426 -41.419702 
L 745.732546 -41.260394 
L 743.315667 -41.029906 
L 740.898787 -40.739899 
L 738.481907 -40.404472 
L 736.065027 -40.039096 
L 733.648147 -39.659533 
L 731.231267 -39.28086 
L 728.814387 -38.916688 
L 726.397507 -38.578651 
L 723.980627 -38.276169 
L 721.563747 -38.016499 
L 719.146867 -37.805011 
L 716.729987 -37.645639 
L 714.313107 -37.541421 
L 711.896227 -37.495061 
L 709.479347 -37.50943 
L 707.062467 -37.587961 
L 704.645587 -37.734896 
L 702.228707 -37.955378 
L 699.811827 -38.255383 
L 697.394947 -38.641532 
L 694.978067 -39.120817 
L 692.561187 -39.700299 
L 690.144307 -40.386837 
L 687.727427 -41.186894 
L 685.310548 -42.106481 
L 682.893668 -43.151249 
L 680.476788 -44.326735 
L 678.059908 -45.638751 
L 675.643028 -47.093853 
L 673.226148 -48.699836 
L 670.809268 -50.46617 
L 668.392388 -52.404309 
L 665.975508 -54.52779 
L 663.558628 -56.852095 
L 661.141748 -59.394245 
L 658.724868 -62.172146 
L 656.307988 -65.203732 
L 653.891108 -68.505974 
L 651.474228 -72.093851 
L 649.057348 -75.979371 
L 646.640468 -80.170737 
L 644.223588 -84.671719 
L 641.806708 -89.481294 
L 639.389828 -94.593558 
L 636.972948 -99.997894 
L 634.556068 -105.679355 
L 632.139188 -111.619187 
L 629.722308 -117.795422 
L 627.305429 -124.183449 
L 624.888549 -130.756503 
L 622.471669 -137.486021 
L 620.054789 -144.341841 
L 617.637909 -151.292263 
L 615.221029 -158.303988 
L 612.804149 -165.342 
L 610.387269 -172.369453 
L 607.970389 -179.347602 
L 605.553509 -186.235833 
L 603.136629 -192.991802 
L 600.719749 -199.57167 
L 598.302869 -205.93041 
L 595.885989 -212.022123 
L 593.469109 -217.800323 
L 591.052229 -223.218139 
L 588.635349 -228.228418 
L 586.218469 -232.78373 
L 583.801589 -236.836339 
L 581.384709 -240.338208 
L 578.967829 -243.241158 
L 576.550949 -245.49729 
L 574.134069 -247.059773 
L 571.717189 -247.884082 
L 569.30031 -247.929688 
L 566.88343 -247.162165 
L 564.46655 -245.55559 
L 562.04967 -243.095037 
L 559.63279 -239.77895 
L 557.21591 -235.621116 
L 554.79903 -230.652 
L 552.38215 -224.919224 
L 549.96527 -218.487074 
L 547.54839 -211.434986 
L 545.13151 -203.855082 
L 542.71463 -195.848936 
L 540.29775 -187.523814 
L 537.88087 -178.98869 
L 535.46399 -170.350357 
L 533.04711 -161.709922 
L 530.63023 -153.159913 
L 528.21335 -144.78215 
L 525.79647 -136.646442 
L 523.37959 -128.810069 
L 520.96271 -121.317966 
L 518.54583 -114.203431 
L 516.12895 -107.489218 
L 513.71207 -101.188821 
L 511.295191 -95.307825 
L 508.878311 -89.845229 
L 506.461431 -84.794662 
L 504.044551 -80.145488 
L 501.627671 -75.883785 
L 499.210791 -71.993216 
L 496.793911 -68.455792 
L 494.377031 -65.252525 
L 491.960151 -62.363961 
L 489.543271 -59.770559 
L 487.126391 -57.452914 
L 484.709511 -55.391797 
L 482.292631 -53.568047 
L 479.875751 -51.962346 
L 477.458871 -50.554948 
L 475.041991 -49.325453 
L 472.625111 -48.252702 
L 470.208231 -47.314868 
L 467.791351 -46.489788 
L 465.374471 -45.755518 
L 462.957591 -45.091089 
L 460.540711 -44.477354 
L 458.123831 -43.897828 
L 455.706951 -43.339398 
L 453.290072 -42.79281 
L 450.873192 -42.252847 
L 448.456312 -41.718177 
L 446.039432 -41.190903 
L 443.622552 -40.675861 
L 441.205672 -40.17977 
L 438.788792 -39.710345 
L 436.371912 -39.275472 
L 433.955032 -38.882525 
L 431.538152 -38.537895 
L 429.121272 -38.246727 
L 426.704392 -38.012853 
L 424.287512 -37.838884 
L 421.870632 -37.726369 
L 419.453752 -37.675981 
L 417.036872 -37.687633 
L 414.619992 -37.760502 
L 412.203112 -37.892921 
L 409.786232 -38.082151 
L 407.369352 -38.324069 
L 404.952472 -38.612825 
L 402.535592 -38.940548 
L 400.118712 -39.29717 
L 397.701832 -39.670456 
L 395.284953 -40.046264 
L 392.868073 -40.409083 
L 390.451193 -40.742807 
L 388.034313 -41.031705 
L 385.617433 -41.261486 
L 383.200553 -41.420352 
L 380.783673 -41.499917 
L 378.366793 -41.495881 
L 375.949913 -41.408374 
L 373.533033 -41.241922 
L 371.116153 -41.005045 
L 368.699273 -40.709521 
L 366.282393 -40.36941 
L 363.865513 -39.999946 
L 361.448633 -39.616417 
L 359.031753 -39.233144 
L 356.614873 -38.862655 
L 354.197993 -38.515098 
L 351.781113 -38.197945 
L 349.364233 -37.915937 
L 346.947353 -37.671273 
L 344.530473 -37.463953 
L 342.113593 -37.292232 
L 339.696713 -37.153106 
L 337.279834 -37.042795 
L 334.862954 -36.957159 
L 332.446074 -36.892044 
L 330.029194 -36.843535 
L 327.612314 -36.808118 
L 325.195434 -36.782771 
z
" style="stroke: #4c72b0"/>
    </defs>
    <g>
     <use xlink:href="#m6e57fc0c51" x="0" y="265.689687" style="fill: #4c72b0; fill-opacity: 0.25; stroke: #4c72b0"/>
    </g>
   </g>
   <g id="line2d_39">
    <path d="M 320.304842 228.96 
L 320.304842 7.2 
" style="fill: none; stroke-dasharray: 2.96,1.28; stroke-dashoffset: 0; stroke: #d3d3d3; stroke-width: 0.8"/>
   </g>
   <g id="line2d_40">
    <path d="M 485.964539 228.96 
L 485.964539 7.2 
" style="fill: none; stroke-dasharray: 2.96,1.28; stroke-dashoffset: 0; stroke: #d3d3d3; stroke-width: 0.8"/>
   </g>
   <g id="line2d_41">
    <path d="M 415.502672 228.96 
L 415.502672 7.2 
" style="fill: none; stroke-dasharray: 2.96,1.28; stroke-dashoffset: 0; stroke: #d3d3d3; stroke-width: 0.8"/>
   </g>
   <g id="line2d_42">
    <path d="M 7.2 228.96 
L 844.2 228.96 
" style="fill: none; stroke: #808080; stroke-width: 0.5; stroke-linecap: round"/>
   </g>
   <g id="text_12">
    <text style="font-size: 8px; font-family: 'Arial', 'DejaVu Sans', 'Liberation Sans', 'Bitstream Vera Sans', sans-serif; fill: #808080" transform="translate(326.558592 124.59635) rotate(-90)">International Poverty Line: $3.00</text>
   </g>
   <g id="text_13">
    <text style="font-size: 8px; font-family: 'Arial', 'DejaVu Sans', 'Liberation Sans', 'Bitstream Vera Sans', sans-serif; fill: #808080" transform="translate(491.690789 81.31135) rotate(-90)">World mean: $21.69</text>
   </g>
   <g id="text_14">
    <text style="font-size: 8px; font-family: 'Arial', 'DejaVu Sans', 'Liberation Sans', 'Bitstream Vera Sans', sans-serif; fill: #808080" transform="translate(421.228922 83.08885) rotate(-90)">World median: $9.35</text>
   </g>
   <g id="text_15">
    <text style="font-size: 10px; font-family: 'Arial', 'DejaVu Sans', 'Liberation Sans', 'Bitstream Vera Sans', sans-serif; text-anchor: middle" x="572.595401" y="226.855312" transform="rotate(-0 572.595401 226.855312)">Denmark (2022)</text>
   </g>
   <g id="text_16">
    <text style="font-size: 10px; font-family: 'Arial', 'DejaVu Sans', 'Liberation Sans', 'Bitstream Vera Sans', sans-serif; text-anchor: middle" x="251.457758" y="226.855312" transform="rotate(-0 251.457758 226.855312)">Democratic Republic of Congo (2020)</text>
   </g>
  </g>
 </g>
</svg>
