<?xml version="1.0" encoding="utf-8" standalone="no"?>
<!DOCTYPE svg PUBLIC "-//W3C//DTD SVG 1.1//EN"
  "http://www.w3.org/Graphics/SVG/1.1/DTD/svg11.dtd">
<svg xmlns:xlink="http://www.w3.org/1999/xlink" width="1080pt" height="540pt" viewBox="0 0 1080 540" xmlns="http://www.w3.org/2000/svg" version="1.1">
 <metadata>
  <rdf:RDF xmlns:dc="http://purl.org/dc/elements/1.1/" xmlns:cc="http://creativecommons.org/ns#" xmlns:rdf="http://www.w3.org/1999/02/22-rdf-syntax-ns#">
   <cc:Work>
    <dc:type rdf:resource="http://purl.org/dc/dcmitype/StillImage"/>
    <dc:date>2025-03-17T19:00:07.209421</dc:date>
    <dc:format>image/svg+xml</dc:format>
    <dc:creator>
     <cc:Agent>
      <dc:title>Matplotlib v3.10.1, https://matplotlib.org/</dc:title>
     </cc:Agent>
    </dc:creator>
   </cc:Work>
  </rdf:RDF>
 </metadata>
 <defs>
  <style type="text/css">*{stroke-linejoin: round; stroke-linecap: butt}</style>
 </defs>
 <g id="figure_1">
  <g id="patch_1">
   <path d="M 0 540 
L 1080 540 
L 1080 0 
L 0 0 
z
" style="fill: #ffffff"/>
  </g>
  <g id="axes_1">
   <g id="patch_2">
    <path d="M 135 480.6 
L 972 480.6 
L 972 64.8 
L 135 64.8 
z
" style="fill: #ffffff"/>
   </g>
   <g id="matplotlib.axis_1">
    <g id="xtick_1">
     <g id="line2d_1">
      <defs>
       <path id="m9e0cce48f7" d="M 0 0 
L 0 3.5 
" style="stroke: #262626; stroke-width: 0.8"/>
      </defs>
      <g>
       <use xlink:href="#m9e0cce48f7" x="369.497237" y="480.6" style="fill: #262626; stroke: #262626; stroke-width: 0.8"/>
      </g>
     </g>
     <g id="text_1">
      <!-- 1 -->
      <g style="fill: #262626" transform="translate(366.716768 494.757812) scale(0.1 -0.1)">
       <defs>
        <path id="ArialMT-31" d="M 2384 0 
L 1822 0 
L 1822 3584 
Q 1619 3391 1289 3197 
Q 959 3003 697 2906 
L 697 3450 
Q 1169 3672 1522 3987 
Q 1875 4303 2022 4600 
L 2384 4600 
L 2384 0 
z
" transform="scale(0.015625)"/>
       </defs>
       <use xlink:href="#ArialMT-31"/>
      </g>
     </g>
    </g>
    <g id="xtick_2">
     <g id="line2d_2">
      <g>
       <use xlink:href="#m9e0cce48f7" x="428.717199" y="480.6" style="fill: #262626; stroke: #262626; stroke-width: 0.8"/>
      </g>
     </g>
     <g id="text_2">
      <!-- 2 -->
      <g style="fill: #262626" transform="translate(425.93673 494.757812) scale(0.1 -0.1)">
       <defs>
        <path id="ArialMT-32" d="M 3222 541 
L 3222 0 
L 194 0 
Q 188 203 259 391 
Q 375 700 629 1000 
Q 884 1300 1366 1694 
Q 2113 2306 2375 2664 
Q 2638 3022 2638 3341 
Q 2638 3675 2398 3904 
Q 2159 4134 1775 4134 
Q 1369 4134 1125 3890 
Q 881 3647 878 3216 
L 300 3275 
Q 359 3922 746 4261 
Q 1134 4600 1788 4600 
Q 2447 4600 2831 4234 
Q 3216 3869 3216 3328 
Q 3216 3053 3103 2787 
Q 2991 2522 2730 2228 
Q 2469 1934 1863 1422 
Q 1356 997 1212 845 
Q 1069 694 975 541 
L 3222 541 
z
" transform="scale(0.015625)"/>
       </defs>
       <use xlink:href="#ArialMT-32"/>
      </g>
     </g>
    </g>
    <g id="xtick_3">
     <g id="line2d_3">
      <g>
       <use xlink:href="#m9e0cce48f7" x="507.001731" y="480.6" style="fill: #262626; stroke: #262626; stroke-width: 0.8"/>
      </g>
     </g>
     <g id="text_3">
      <!-- 5 -->
      <g style="fill: #262626" transform="translate(504.221262 494.757812) scale(0.1 -0.1)">
       <defs>
        <path id="ArialMT-35" d="M 266 1200 
L 856 1250 
Q 922 819 1161 601 
Q 1400 384 1738 384 
Q 2144 384 2425 690 
Q 2706 997 2706 1503 
Q 2706 1984 2436 2262 
Q 2166 2541 1728 2541 
Q 1456 2541 1237 2417 
Q 1019 2294 894 2097 
L 366 2166 
L 809 4519 
L 3088 4519 
L 3088 3981 
L 1259 3981 
L 1013 2750 
Q 1425 3038 1878 3038 
Q 2478 3038 2890 2622 
Q 3303 2206 3303 1553 
Q 3303 931 2941 478 
Q 2500 -78 1738 -78 
Q 1113 -78 717 272 
Q 322 622 266 1200 
z
" transform="scale(0.015625)"/>
       </defs>
       <use xlink:href="#ArialMT-35"/>
      </g>
     </g>
    </g>
    <g id="xtick_4">
     <g id="line2d_4">
      <g>
       <use xlink:href="#m9e0cce48f7" x="566.221693" y="480.6" style="fill: #262626; stroke: #262626; stroke-width: 0.8"/>
      </g>
     </g>
     <g id="text_4">
      <!-- 10 -->
      <g style="fill: #262626" transform="translate(560.660755 494.757812) scale(0.1 -0.1)">
       <defs>
        <path id="ArialMT-30" d="M 266 2259 
Q 266 3072 433 3567 
Q 600 4063 929 4331 
Q 1259 4600 1759 4600 
Q 2128 4600 2406 4451 
Q 2684 4303 2865 4023 
Q 3047 3744 3150 3342 
Q 3253 2941 3253 2259 
Q 3253 1453 3087 958 
Q 2922 463 2592 192 
Q 2263 -78 1759 -78 
Q 1097 -78 719 397 
Q 266 969 266 2259 
z
M 844 2259 
Q 844 1131 1108 757 
Q 1372 384 1759 384 
Q 2147 384 2411 759 
Q 2675 1134 2675 2259 
Q 2675 3391 2411 3762 
Q 2147 4134 1753 4134 
Q 1366 4134 1134 3806 
Q 844 3388 844 2259 
z
" transform="scale(0.015625)"/>
       </defs>
       <use xlink:href="#ArialMT-31"/>
       <use xlink:href="#ArialMT-30" transform="translate(55.615234 0)"/>
      </g>
     </g>
    </g>
    <g id="xtick_5">
     <g id="line2d_5">
      <g>
       <use xlink:href="#m9e0cce48f7" x="625.441655" y="480.6" style="fill: #262626; stroke: #262626; stroke-width: 0.8"/>
      </g>
     </g>
     <g id="text_5">
      <!-- 20 -->
      <g style="fill: #262626" transform="translate(619.880717 494.757812) scale(0.1 -0.1)">
       <use xlink:href="#ArialMT-32"/>
       <use xlink:href="#ArialMT-30" transform="translate(55.615234 0)"/>
      </g>
     </g>
    </g>
    <g id="xtick_6">
     <g id="line2d_6">
      <g>
       <use xlink:href="#m9e0cce48f7" x="703.726186" y="480.6" style="fill: #262626; stroke: #262626; stroke-width: 0.8"/>
      </g>
     </g>
     <g id="text_6">
      <!-- 50 -->
      <g style="fill: #262626" transform="translate(698.165249 494.757812) scale(0.1 -0.1)">
       <use xlink:href="#ArialMT-35"/>
       <use xlink:href="#ArialMT-30" transform="translate(55.615234 0)"/>
      </g>
     </g>
    </g>
    <g id="xtick_7">
     <g id="line2d_7">
      <g>
       <use xlink:href="#m9e0cce48f7" x="762.946148" y="480.6" style="fill: #262626; stroke: #262626; stroke-width: 0.8"/>
      </g>
     </g>
     <g id="text_7">
      <!-- 100 -->
      <g style="fill: #262626" transform="translate(754.604742 494.757812) scale(0.1 -0.1)">
       <use xlink:href="#ArialMT-31"/>
       <use xlink:href="#ArialMT-30" transform="translate(55.615234 0)"/>
       <use xlink:href="#ArialMT-30" transform="translate(111.230469 0)"/>
      </g>
     </g>
    </g>
    <g id="xtick_8">
     <g id="line2d_8">
      <g>
       <use xlink:href="#m9e0cce48f7" x="822.16611" y="480.6" style="fill: #262626; stroke: #262626; stroke-width: 0.8"/>
      </g>
     </g>
     <g id="text_8">
      <!-- 200 -->
      <g style="fill: #262626" transform="translate(813.824704 494.757812) scale(0.1 -0.1)">
       <use xlink:href="#ArialMT-32"/>
       <use xlink:href="#ArialMT-30" transform="translate(55.615234 0)"/>
       <use xlink:href="#ArialMT-30" transform="translate(111.230469 0)"/>
      </g>
     </g>
    </g>
    <g id="xtick_9">
     <g id="line2d_9">
      <g>
       <use xlink:href="#m9e0cce48f7" x="900.450642" y="480.6" style="fill: #262626; stroke: #262626; stroke-width: 0.8"/>
      </g>
     </g>
     <g id="text_9">
      <!-- 500 -->
      <g style="fill: #262626" transform="translate(892.109236 494.757812) scale(0.1 -0.1)">
       <use xlink:href="#ArialMT-35"/>
       <use xlink:href="#ArialMT-30" transform="translate(55.615234 0)"/>
       <use xlink:href="#ArialMT-30" transform="translate(111.230469 0)"/>
      </g>
     </g>
    </g>
    <g id="xtick_10">
     <g id="line2d_10">
      <g>
       <use xlink:href="#m9e0cce48f7" x="959.670604" y="480.6" style="fill: #262626; stroke: #262626; stroke-width: 0.8"/>
      </g>
     </g>
     <g id="text_10">
      <!-- 1000 -->
      <g style="fill: #262626" transform="translate(948.548729 494.757812) scale(0.1 -0.1)">
       <use xlink:href="#ArialMT-31"/>
       <use xlink:href="#ArialMT-30" transform="translate(55.615234 0)"/>
       <use xlink:href="#ArialMT-30" transform="translate(111.230469 0)"/>
       <use xlink:href="#ArialMT-30" transform="translate(166.845703 0)"/>
      </g>
     </g>
    </g>
    <g id="xtick_11">
     <g id="line2d_11">
      <defs>
       <path id="m45820d3698" d="M 0 0 
L 0 2 
" style="stroke: #262626; stroke-width: 0.6"/>
      </defs>
      <g>
       <use xlink:href="#m45820d3698" x="142.299778" y="480.6" style="fill: #262626; stroke: #262626; stroke-width: 0.6"/>
      </g>
     </g>
    </g>
    <g id="xtick_12">
     <g id="line2d_12">
      <g>
       <use xlink:href="#m45820d3698" x="153.708212" y="480.6" style="fill: #262626; stroke: #262626; stroke-width: 0.6"/>
      </g>
     </g>
    </g>
    <g id="xtick_13">
     <g id="line2d_13">
      <g>
       <use xlink:href="#m45820d3698" x="163.771164" y="480.6" style="fill: #262626; stroke: #262626; stroke-width: 0.6"/>
      </g>
     </g>
    </g>
    <g id="xtick_14">
     <g id="line2d_14">
      <g>
       <use xlink:href="#m45820d3698" x="231.992744" y="480.6" style="fill: #262626; stroke: #262626; stroke-width: 0.6"/>
      </g>
     </g>
    </g>
    <g id="xtick_15">
     <g id="line2d_15">
      <g>
       <use xlink:href="#m45820d3698" x="266.634201" y="480.6" style="fill: #262626; stroke: #262626; stroke-width: 0.6"/>
      </g>
     </g>
    </g>
    <g id="xtick_16">
     <g id="line2d_16">
      <g>
       <use xlink:href="#m45820d3698" x="291.212706" y="480.6" style="fill: #262626; stroke: #262626; stroke-width: 0.6"/>
      </g>
     </g>
    </g>
    <g id="xtick_17">
     <g id="line2d_17">
      <g>
       <use xlink:href="#m45820d3698" x="310.277275" y="480.6" style="fill: #262626; stroke: #262626; stroke-width: 0.6"/>
      </g>
     </g>
    </g>
    <g id="xtick_18">
     <g id="line2d_18">
      <g>
       <use xlink:href="#m45820d3698" x="325.854163" y="480.6" style="fill: #262626; stroke: #262626; stroke-width: 0.6"/>
      </g>
     </g>
    </g>
    <g id="xtick_19">
     <g id="line2d_19">
      <g>
       <use xlink:href="#m45820d3698" x="339.024233" y="480.6" style="fill: #262626; stroke: #262626; stroke-width: 0.6"/>
      </g>
     </g>
    </g>
    <g id="xtick_20">
     <g id="line2d_20">
      <g>
       <use xlink:href="#m45820d3698" x="350.432668" y="480.6" style="fill: #262626; stroke: #262626; stroke-width: 0.6"/>
      </g>
     </g>
    </g>
    <g id="xtick_21">
     <g id="line2d_21">
      <g>
       <use xlink:href="#m45820d3698" x="360.49562" y="480.6" style="fill: #262626; stroke: #262626; stroke-width: 0.6"/>
      </g>
     </g>
    </g>
    <g id="xtick_22">
     <g id="line2d_22">
      <g>
       <use xlink:href="#m45820d3698" x="463.358656" y="480.6" style="fill: #262626; stroke: #262626; stroke-width: 0.6"/>
      </g>
     </g>
    </g>
    <g id="xtick_23">
     <g id="line2d_23">
      <g>
       <use xlink:href="#m45820d3698" x="487.937161" y="480.6" style="fill: #262626; stroke: #262626; stroke-width: 0.6"/>
      </g>
     </g>
    </g>
    <g id="xtick_24">
     <g id="line2d_24">
      <g>
       <use xlink:href="#m45820d3698" x="522.578618" y="480.6" style="fill: #262626; stroke: #262626; stroke-width: 0.6"/>
      </g>
     </g>
    </g>
    <g id="xtick_25">
     <g id="line2d_25">
      <g>
       <use xlink:href="#m45820d3698" x="535.748689" y="480.6" style="fill: #262626; stroke: #262626; stroke-width: 0.6"/>
      </g>
     </g>
    </g>
    <g id="xtick_26">
     <g id="line2d_26">
      <g>
       <use xlink:href="#m45820d3698" x="547.157123" y="480.6" style="fill: #262626; stroke: #262626; stroke-width: 0.6"/>
      </g>
     </g>
    </g>
    <g id="xtick_27">
     <g id="line2d_27">
      <g>
       <use xlink:href="#m45820d3698" x="557.220075" y="480.6" style="fill: #262626; stroke: #262626; stroke-width: 0.6"/>
      </g>
     </g>
    </g>
    <g id="xtick_28">
     <g id="line2d_28">
      <g>
       <use xlink:href="#m45820d3698" x="660.083112" y="480.6" style="fill: #262626; stroke: #262626; stroke-width: 0.6"/>
      </g>
     </g>
    </g>
    <g id="xtick_29">
     <g id="line2d_29">
      <g>
       <use xlink:href="#m45820d3698" x="684.661617" y="480.6" style="fill: #262626; stroke: #262626; stroke-width: 0.6"/>
      </g>
     </g>
    </g>
    <g id="xtick_30">
     <g id="line2d_30">
      <g>
       <use xlink:href="#m45820d3698" x="719.303074" y="480.6" style="fill: #262626; stroke: #262626; stroke-width: 0.6"/>
      </g>
     </g>
    </g>
    <g id="xtick_31">
     <g id="line2d_31">
      <g>
       <use xlink:href="#m45820d3698" x="732.473145" y="480.6" style="fill: #262626; stroke: #262626; stroke-width: 0.6"/>
      </g>
     </g>
    </g>
    <g id="xtick_32">
     <g id="line2d_32">
      <g>
       <use xlink:href="#m45820d3698" x="743.881579" y="480.6" style="fill: #262626; stroke: #262626; stroke-width: 0.6"/>
      </g>
     </g>
    </g>
    <g id="xtick_33">
     <g id="line2d_33">
      <g>
       <use xlink:href="#m45820d3698" x="753.944531" y="480.6" style="fill: #262626; stroke: #262626; stroke-width: 0.6"/>
      </g>
     </g>
    </g>
    <g id="xtick_34">
     <g id="line2d_34">
      <g>
       <use xlink:href="#m45820d3698" x="856.807568" y="480.6" style="fill: #262626; stroke: #262626; stroke-width: 0.6"/>
      </g>
     </g>
    </g>
    <g id="xtick_35">
     <g id="line2d_35">
      <g>
       <use xlink:href="#m45820d3698" x="881.386072" y="480.6" style="fill: #262626; stroke: #262626; stroke-width: 0.6"/>
      </g>
     </g>
    </g>
    <g id="xtick_36">
     <g id="line2d_36">
      <g>
       <use xlink:href="#m45820d3698" x="916.02753" y="480.6" style="fill: #262626; stroke: #262626; stroke-width: 0.6"/>
      </g>
     </g>
    </g>
    <g id="xtick_37">
     <g id="line2d_37">
      <g>
       <use xlink:href="#m45820d3698" x="929.1976" y="480.6" style="fill: #262626; stroke: #262626; stroke-width: 0.6"/>
      </g>
     </g>
    </g>
    <g id="xtick_38">
     <g id="line2d_38">
      <g>
       <use xlink:href="#m45820d3698" x="940.606035" y="480.6" style="fill: #262626; stroke: #262626; stroke-width: 0.6"/>
      </g>
     </g>
    </g>
    <g id="xtick_39">
     <g id="line2d_39">
      <g>
       <use xlink:href="#m45820d3698" x="950.668987" y="480.6" style="fill: #262626; stroke: #262626; stroke-width: 0.6"/>
      </g>
     </g>
    </g>
    <g id="text_11">
     <!-- Income or consumption (day) -->
     <g style="fill: #262626" transform="translate(488.753906 508.025) scale(0.1 -0.1)">
      <defs>
       <path id="ArialMT-49" d="M 597 0 
L 597 4581 
L 1203 4581 
L 1203 0 
L 597 0 
z
" transform="scale(0.015625)"/>
       <path id="ArialMT-6e" d="M 422 0 
L 422 3319 
L 928 3319 
L 928 2847 
Q 1294 3394 1984 3394 
Q 2284 3394 2536 3286 
Q 2788 3178 2913 3003 
Q 3038 2828 3088 2588 
Q 3119 2431 3119 2041 
L 3119 0 
L 2556 0 
L 2556 2019 
Q 2556 2363 2490 2533 
Q 2425 2703 2258 2804 
Q 2091 2906 1866 2906 
Q 1506 2906 1245 2678 
Q 984 2450 984 1813 
L 984 0 
L 422 0 
z
" transform="scale(0.015625)"/>
       <path id="ArialMT-63" d="M 2588 1216 
L 3141 1144 
Q 3050 572 2676 248 
Q 2303 -75 1759 -75 
Q 1078 -75 664 370 
Q 250 816 250 1647 
Q 250 2184 428 2587 
Q 606 2991 970 3192 
Q 1334 3394 1763 3394 
Q 2303 3394 2647 3120 
Q 2991 2847 3088 2344 
L 2541 2259 
Q 2463 2594 2264 2762 
Q 2066 2931 1784 2931 
Q 1359 2931 1093 2626 
Q 828 2322 828 1663 
Q 828 994 1084 691 
Q 1341 388 1753 388 
Q 2084 388 2306 591 
Q 2528 794 2588 1216 
z
" transform="scale(0.015625)"/>
       <path id="ArialMT-6f" d="M 213 1659 
Q 213 2581 725 3025 
Q 1153 3394 1769 3394 
Q 2453 3394 2887 2945 
Q 3322 2497 3322 1706 
Q 3322 1066 3130 698 
Q 2938 331 2570 128 
Q 2203 -75 1769 -75 
Q 1072 -75 642 372 
Q 213 819 213 1659 
z
M 791 1659 
Q 791 1022 1069 705 
Q 1347 388 1769 388 
Q 2188 388 2466 706 
Q 2744 1025 2744 1678 
Q 2744 2294 2464 2611 
Q 2184 2928 1769 2928 
Q 1347 2928 1069 2612 
Q 791 2297 791 1659 
z
" transform="scale(0.015625)"/>
       <path id="ArialMT-6d" d="M 422 0 
L 422 3319 
L 925 3319 
L 925 2853 
Q 1081 3097 1340 3245 
Q 1600 3394 1931 3394 
Q 2300 3394 2536 3241 
Q 2772 3088 2869 2813 
Q 3263 3394 3894 3394 
Q 4388 3394 4653 3120 
Q 4919 2847 4919 2278 
L 4919 0 
L 4359 0 
L 4359 2091 
Q 4359 2428 4304 2576 
Q 4250 2725 4106 2815 
Q 3963 2906 3769 2906 
Q 3419 2906 3187 2673 
Q 2956 2441 2956 1928 
L 2956 0 
L 2394 0 
L 2394 2156 
Q 2394 2531 2256 2718 
Q 2119 2906 1806 2906 
Q 1569 2906 1367 2781 
Q 1166 2656 1075 2415 
Q 984 2175 984 1722 
L 984 0 
L 422 0 
z
" transform="scale(0.015625)"/>
       <path id="ArialMT-65" d="M 2694 1069 
L 3275 997 
Q 3138 488 2766 206 
Q 2394 -75 1816 -75 
Q 1088 -75 661 373 
Q 234 822 234 1631 
Q 234 2469 665 2931 
Q 1097 3394 1784 3394 
Q 2450 3394 2872 2941 
Q 3294 2488 3294 1666 
Q 3294 1616 3291 1516 
L 816 1516 
Q 847 969 1125 678 
Q 1403 388 1819 388 
Q 2128 388 2347 550 
Q 2566 713 2694 1069 
z
M 847 1978 
L 2700 1978 
Q 2663 2397 2488 2606 
Q 2219 2931 1791 2931 
Q 1403 2931 1139 2672 
Q 875 2413 847 1978 
z
" transform="scale(0.015625)"/>
       <path id="ArialMT-20" transform="scale(0.015625)"/>
       <path id="ArialMT-72" d="M 416 0 
L 416 3319 
L 922 3319 
L 922 2816 
Q 1116 3169 1280 3281 
Q 1444 3394 1641 3394 
Q 1925 3394 2219 3213 
L 2025 2691 
Q 1819 2813 1613 2813 
Q 1428 2813 1281 2702 
Q 1134 2591 1072 2394 
Q 978 2094 978 1738 
L 978 0 
L 416 0 
z
" transform="scale(0.015625)"/>
       <path id="ArialMT-73" d="M 197 991 
L 753 1078 
Q 800 744 1014 566 
Q 1228 388 1613 388 
Q 2000 388 2187 545 
Q 2375 703 2375 916 
Q 2375 1106 2209 1216 
Q 2094 1291 1634 1406 
Q 1016 1563 777 1677 
Q 538 1791 414 1992 
Q 291 2194 291 2438 
Q 291 2659 392 2848 
Q 494 3038 669 3163 
Q 800 3259 1026 3326 
Q 1253 3394 1513 3394 
Q 1903 3394 2198 3281 
Q 2494 3169 2634 2976 
Q 2775 2784 2828 2463 
L 2278 2388 
Q 2241 2644 2061 2787 
Q 1881 2931 1553 2931 
Q 1166 2931 1000 2803 
Q 834 2675 834 2503 
Q 834 2394 903 2306 
Q 972 2216 1119 2156 
Q 1203 2125 1616 2013 
Q 2213 1853 2448 1751 
Q 2684 1650 2818 1456 
Q 2953 1263 2953 975 
Q 2953 694 2789 445 
Q 2625 197 2315 61 
Q 2006 -75 1616 -75 
Q 969 -75 630 194 
Q 291 463 197 991 
z
" transform="scale(0.015625)"/>
       <path id="ArialMT-75" d="M 2597 0 
L 2597 488 
Q 2209 -75 1544 -75 
Q 1250 -75 995 37 
Q 741 150 617 320 
Q 494 491 444 738 
Q 409 903 409 1263 
L 409 3319 
L 972 3319 
L 972 1478 
Q 972 1038 1006 884 
Q 1059 663 1231 536 
Q 1403 409 1656 409 
Q 1909 409 2131 539 
Q 2353 669 2445 892 
Q 2538 1116 2538 1541 
L 2538 3319 
L 3100 3319 
L 3100 0 
L 2597 0 
z
" transform="scale(0.015625)"/>
       <path id="ArialMT-70" d="M 422 -1272 
L 422 3319 
L 934 3319 
L 934 2888 
Q 1116 3141 1344 3267 
Q 1572 3394 1897 3394 
Q 2322 3394 2647 3175 
Q 2972 2956 3137 2557 
Q 3303 2159 3303 1684 
Q 3303 1175 3120 767 
Q 2938 359 2589 142 
Q 2241 -75 1856 -75 
Q 1575 -75 1351 44 
Q 1128 163 984 344 
L 984 -1272 
L 422 -1272 
z
M 931 1641 
Q 931 1000 1190 694 
Q 1450 388 1819 388 
Q 2194 388 2461 705 
Q 2728 1022 2728 1688 
Q 2728 2322 2467 2637 
Q 2206 2953 1844 2953 
Q 1484 2953 1207 2617 
Q 931 2281 931 1641 
z
" transform="scale(0.015625)"/>
       <path id="ArialMT-74" d="M 1650 503 
L 1731 6 
Q 1494 -44 1306 -44 
Q 1000 -44 831 53 
Q 663 150 594 308 
Q 525 466 525 972 
L 525 2881 
L 113 2881 
L 113 3319 
L 525 3319 
L 525 4141 
L 1084 4478 
L 1084 3319 
L 1650 3319 
L 1650 2881 
L 1084 2881 
L 1084 941 
Q 1084 700 1114 631 
Q 1144 563 1211 522 
Q 1278 481 1403 481 
Q 1497 481 1650 503 
z
" transform="scale(0.015625)"/>
       <path id="ArialMT-69" d="M 425 3934 
L 425 4581 
L 988 4581 
L 988 3934 
L 425 3934 
z
M 425 0 
L 425 3319 
L 988 3319 
L 988 0 
L 425 0 
z
" transform="scale(0.015625)"/>
       <path id="ArialMT-28" d="M 1497 -1347 
Q 1031 -759 709 28 
Q 388 816 388 1659 
Q 388 2403 628 3084 
Q 909 3875 1497 4659 
L 1900 4659 
Q 1522 4009 1400 3731 
Q 1209 3300 1100 2831 
Q 966 2247 966 1656 
Q 966 153 1900 -1347 
L 1497 -1347 
z
" transform="scale(0.015625)"/>
       <path id="ArialMT-64" d="M 2575 0 
L 2575 419 
Q 2259 -75 1647 -75 
Q 1250 -75 917 144 
Q 584 363 401 755 
Q 219 1147 219 1656 
Q 219 2153 384 2558 
Q 550 2963 881 3178 
Q 1213 3394 1622 3394 
Q 1922 3394 2156 3267 
Q 2391 3141 2538 2938 
L 2538 4581 
L 3097 4581 
L 3097 0 
L 2575 0 
z
M 797 1656 
Q 797 1019 1065 703 
Q 1334 388 1700 388 
Q 2069 388 2326 689 
Q 2584 991 2584 1609 
Q 2584 2291 2321 2609 
Q 2059 2928 1675 2928 
Q 1300 2928 1048 2622 
Q 797 2316 797 1656 
z
" transform="scale(0.015625)"/>
       <path id="ArialMT-61" d="M 2588 409 
Q 2275 144 1986 34 
Q 1697 -75 1366 -75 
Q 819 -75 525 192 
Q 231 459 231 875 
Q 231 1119 342 1320 
Q 453 1522 633 1644 
Q 813 1766 1038 1828 
Q 1203 1872 1538 1913 
Q 2219 1994 2541 2106 
Q 2544 2222 2544 2253 
Q 2544 2597 2384 2738 
Q 2169 2928 1744 2928 
Q 1347 2928 1158 2789 
Q 969 2650 878 2297 
L 328 2372 
Q 403 2725 575 2942 
Q 747 3159 1072 3276 
Q 1397 3394 1825 3394 
Q 2250 3394 2515 3294 
Q 2781 3194 2906 3042 
Q 3031 2891 3081 2659 
Q 3109 2516 3109 2141 
L 3109 1391 
Q 3109 606 3145 398 
Q 3181 191 3288 0 
L 2700 0 
Q 2613 175 2588 409 
z
M 2541 1666 
Q 2234 1541 1622 1453 
Q 1275 1403 1131 1340 
Q 988 1278 909 1158 
Q 831 1038 831 891 
Q 831 666 1001 516 
Q 1172 366 1500 366 
Q 1825 366 2078 508 
Q 2331 650 2450 897 
Q 2541 1088 2541 1459 
L 2541 1666 
z
" transform="scale(0.015625)"/>
       <path id="ArialMT-79" d="M 397 -1278 
L 334 -750 
Q 519 -800 656 -800 
Q 844 -800 956 -737 
Q 1069 -675 1141 -563 
Q 1194 -478 1313 -144 
Q 1328 -97 1363 -6 
L 103 3319 
L 709 3319 
L 1400 1397 
Q 1534 1031 1641 628 
Q 1738 1016 1872 1384 
L 2581 3319 
L 3144 3319 
L 1881 -56 
Q 1678 -603 1566 -809 
Q 1416 -1088 1222 -1217 
Q 1028 -1347 759 -1347 
Q 597 -1347 397 -1278 
z
" transform="scale(0.015625)"/>
       <path id="ArialMT-29" d="M 791 -1347 
L 388 -1347 
Q 1322 153 1322 1656 
Q 1322 2244 1188 2822 
Q 1081 3291 891 3722 
Q 769 4003 388 4659 
L 791 4659 
Q 1378 3875 1659 3084 
Q 1900 2403 1900 1659 
Q 1900 816 1576 28 
Q 1253 -759 791 -1347 
z
" transform="scale(0.015625)"/>
      </defs>
      <use xlink:href="#ArialMT-49"/>
      <use xlink:href="#ArialMT-6e" transform="translate(27.783203 0)"/>
      <use xlink:href="#ArialMT-63" transform="translate(83.398438 0)"/>
      <use xlink:href="#ArialMT-6f" transform="translate(133.398438 0)"/>
      <use xlink:href="#ArialMT-6d" transform="translate(189.013672 0)"/>
      <use xlink:href="#ArialMT-65" transform="translate(272.314453 0)"/>
      <use xlink:href="#ArialMT-20" transform="translate(327.929688 0)"/>
      <use xlink:href="#ArialMT-6f" transform="translate(355.712891 0)"/>
      <use xlink:href="#ArialMT-72" transform="translate(411.328125 0)"/>
      <use xlink:href="#ArialMT-20" transform="translate(444.628906 0)"/>
      <use xlink:href="#ArialMT-63" transform="translate(472.412109 0)"/>
      <use xlink:href="#ArialMT-6f" transform="translate(522.412109 0)"/>
      <use xlink:href="#ArialMT-6e" transform="translate(578.027344 0)"/>
      <use xlink:href="#ArialMT-73" transform="translate(633.642578 0)"/>
      <use xlink:href="#ArialMT-75" transform="translate(683.642578 0)"/>
      <use xlink:href="#ArialMT-6d" transform="translate(739.257812 0)"/>
      <use xlink:href="#ArialMT-70" transform="translate(822.558594 0)"/>
      <use xlink:href="#ArialMT-74" transform="translate(878.173828 0)"/>
      <use xlink:href="#ArialMT-69" transform="translate(905.957031 0)"/>
      <use xlink:href="#ArialMT-6f" transform="translate(928.173828 0)"/>
      <use xlink:href="#ArialMT-6e" transform="translate(983.789062 0)"/>
      <use xlink:href="#ArialMT-20" transform="translate(1039.404297 0)"/>
      <use xlink:href="#ArialMT-28" transform="translate(1067.1875 0)"/>
      <use xlink:href="#ArialMT-64" transform="translate(1100.488281 0)"/>
      <use xlink:href="#ArialMT-61" transform="translate(1156.103516 0)"/>
      <use xlink:href="#ArialMT-79" transform="translate(1211.71875 0)"/>
      <use xlink:href="#ArialMT-29" transform="translate(1261.71875 0)"/>
     </g>
    </g>
   </g>
   <g id="matplotlib.axis_2"/>
   <g id="FillBetweenPolyCollection_1">
    <defs>
     <path id="m0b5be19ac6" d="M 173.045455 -59.534441 
L 173.045455 -59.4 
L 175.647295 -59.4 
L 178.249135 -59.4 
L 180.850975 -59.4 
L 183.452815 -59.4 
L 186.054655 -59.4 
L 188.656495 -59.4 
L 191.258335 -59.4 
L 193.860176 -59.4 
L 196.462016 -59.4 
L 199.063856 -59.4 
L 201.665696 -59.4 
L 204.267536 -59.4 
L 206.869376 -59.4 
L 209.471216 -59.4 
L 212.073056 -59.4 
L 214.674897 -59.4 
L 217.276737 -59.4 
L 219.878577 -59.4 
L 222.480417 -59.4 
L 225.082257 -59.4 
L 227.684097 -59.4 
L 230.285937 -59.4 
L 232.887777 -59.4 
L 235.489618 -59.4 
L 238.091458 -59.4 
L 240.693298 -59.4 
L 243.295138 -59.4 
L 245.896978 -59.4 
L 248.498818 -59.4 
L 251.100658 -59.4 
L 253.702498 -59.4 
L 256.304339 -59.4 
L 258.906179 -59.4 
L 261.508019 -59.4 
L 264.109859 -59.4 
L 266.711699 -59.4 
L 269.313539 -59.4 
L 271.915379 -59.4 
L 274.517219 -59.4 
L 277.119059 -59.4 
L 279.7209 -59.4 
L 282.32274 -59.4 
L 284.92458 -59.4 
L 287.52642 -59.4 
L 290.12826 -59.4 
L 292.7301 -59.4 
L 295.33194 -59.4 
L 297.93378 -59.4 
L 300.535621 -59.4 
L 303.137461 -59.4 
L 305.739301 -59.4 
L 308.341141 -59.4 
L 310.942981 -59.4 
L 313.544821 -59.4 
L 316.146661 -59.4 
L 318.748501 -59.4 
L 321.350342 -59.4 
L 323.952182 -59.4 
L 326.554022 -59.4 
L 329.155862 -59.4 
L 331.757702 -59.4 
L 334.359542 -59.4 
L 336.961382 -59.4 
L 339.563222 -59.4 
L 342.165063 -59.4 
L 344.766903 -59.4 
L 347.368743 -59.4 
L 349.970583 -59.4 
L 352.572423 -59.4 
L 355.174263 -59.4 
L 357.776103 -59.4 
L 360.377943 -59.4 
L 362.979784 -59.4 
L 365.581624 -59.4 
L 368.183464 -59.4 
L 370.785304 -59.4 
L 373.387144 -59.4 
L 375.988984 -59.4 
L 378.590824 -59.4 
L 381.192664 -59.4 
L 383.794505 -59.4 
L 386.396345 -59.4 
L 388.998185 -59.4 
L 391.600025 -59.4 
L 394.201865 -59.4 
L 396.803705 -59.4 
L 399.405545 -59.4 
L 402.007385 -59.4 
L 404.609226 -59.4 
L 407.211066 -59.4 
L 409.812906 -59.4 
L 412.414746 -59.4 
L 415.016586 -59.4 
L 417.618426 -59.4 
L 420.220266 -59.4 
L 422.822106 -59.4 
L 425.423947 -59.4 
L 428.025787 -59.4 
L 430.627627 -59.4 
L 433.229467 -59.4 
L 435.831307 -59.4 
L 438.433147 -59.4 
L 441.034987 -59.4 
L 443.636827 -59.4 
L 446.238668 -59.4 
L 448.840508 -59.4 
L 451.442348 -59.4 
L 454.044188 -59.4 
L 456.646028 -59.4 
L 459.247868 -59.4 
L 461.849708 -59.4 
L 464.451548 -59.4 
L 467.053389 -59.4 
L 469.655229 -59.4 
L 472.257069 -59.4 
L 474.858909 -59.4 
L 477.460749 -59.4 
L 480.062589 -59.4 
L 482.664429 -59.4 
L 485.266269 -59.4 
L 487.86811 -59.4 
L 490.46995 -59.4 
L 493.07179 -59.4 
L 495.67363 -59.4 
L 498.27547 -59.4 
L 500.87731 -59.4 
L 503.47915 -59.4 
L 506.08099 -59.4 
L 508.682831 -59.4 
L 511.284671 -59.4 
L 513.886511 -59.4 
L 516.488351 -59.4 
L 519.090191 -59.4 
L 521.692031 -59.4 
L 524.293871 -59.4 
L 526.895711 -59.4 
L 529.497551 -59.4 
L 532.099392 -59.4 
L 534.701232 -59.4 
L 537.303072 -59.4 
L 539.904912 -59.4 
L 542.506752 -59.4 
L 545.108592 -59.4 
L 547.710432 -59.4 
L 550.312272 -59.4 
L 552.914113 -59.4 
L 555.515953 -59.4 
L 558.117793 -59.4 
L 560.719633 -59.4 
L 563.321473 -59.4 
L 565.923313 -59.4 
L 568.525153 -59.4 
L 571.126993 -59.4 
L 573.728834 -59.4 
L 576.330674 -59.4 
L 578.932514 -59.4 
L 581.534354 -59.4 
L 584.136194 -59.4 
L 586.738034 -59.4 
L 589.339874 -59.4 
L 591.941714 -59.4 
L 594.543555 -59.4 
L 597.145395 -59.4 
L 599.747235 -59.4 
L 602.349075 -59.4 
L 604.950915 -59.4 
L 607.552755 -59.4 
L 610.154595 -59.4 
L 612.756435 -59.4 
L 615.358276 -59.4 
L 617.960116 -59.4 
L 620.561956 -59.4 
L 623.163796 -59.4 
L 625.765636 -59.4 
L 628.367476 -59.4 
L 630.969316 -59.4 
L 633.571156 -59.4 
L 636.172997 -59.4 
L 638.774837 -59.4 
L 641.376677 -59.4 
L 643.978517 -59.4 
L 646.580357 -59.4 
L 649.182197 -59.4 
L 651.784037 -59.4 
L 654.385877 -59.4 
L 656.987718 -59.4 
L 659.589558 -59.4 
L 662.191398 -59.4 
L 664.793238 -59.4 
L 667.395078 -59.4 
L 669.996918 -59.4 
L 672.598758 -59.4 
L 675.200598 -59.4 
L 677.802439 -59.4 
L 680.404279 -59.4 
L 683.006119 -59.4 
L 685.607959 -59.4 
L 688.209799 -59.4 
L 690.811639 -59.4 
L 690.811639 -59.469066 
L 690.811639 -59.469066 
L 688.209799 -59.492779 
L 685.607959 -59.523392 
L 683.006119 -59.562474 
L 680.404279 -59.611805 
L 677.802439 -59.673368 
L 675.200598 -59.749314 
L 672.598758 -59.841923 
L 669.996918 -59.953527 
L 667.395078 -60.086431 
L 664.793238 -60.242797 
L 662.191398 -60.424524 
L 659.589558 -60.633101 
L 656.987718 -60.869465 
L 654.385877 -61.133853 
L 651.784037 -61.425664 
L 649.182197 -61.743353 
L 646.580357 -62.084351 
L 643.978517 -62.445036 
L 641.376677 -62.82076 
L 638.774837 -63.205942 
L 636.172997 -63.594221 
L 633.571156 -63.978685 
L 630.969316 -64.352158 
L 628.367476 -64.707528 
L 625.765636 -65.03812 
L 623.163796 -65.338068 
L 620.561956 -65.602693 
L 617.960116 -65.828824 
L 615.358276 -66.015081 
L 612.756435 -66.162064 
L 610.154595 -66.272452 
L 607.552755 -66.35099 
L 604.950915 -66.404372 
L 602.349075 -66.441011 
L 599.747235 -66.470724 
L 597.145395 -66.504328 
L 594.543555 -66.553202 
L 591.941714 -66.628811 
L 589.339874 -66.742244 
L 586.738034 -66.903787 
L 584.136194 -67.12255 
L 581.534354 -67.406188 
L 578.932514 -67.760702 
L 576.330674 -68.190365 
L 573.728834 -68.697729 
L 571.126993 -69.283753 
L 568.525153 -69.947994 
L 565.923313 -70.688883 
L 563.321473 -71.504029 
L 560.719633 -72.390559 
L 558.117793 -73.345443 
L 555.515953 -74.365815 
L 552.914113 -75.449235 
L 550.312272 -76.593923 
L 547.710432 -77.798914 
L 545.108592 -79.064169 
L 542.506752 -80.390618 
L 539.904912 -81.780151 
L 537.303072 -83.235565 
L 534.701232 -84.76048 
L 532.099392 -86.359221 
L 529.497551 -88.03669 
L 526.895711 -89.798232 
L 524.293871 -91.649492 
L 521.692031 -93.59628 
L 519.090191 -95.644443 
L 516.488351 -97.79974 
L 513.886511 -100.067726 
L 511.284671 -102.453645 
L 508.682831 -104.96233 
L 506.08099 -107.598112 
L 503.47915 -110.364747 
L 500.87731 -113.265346 
L 498.27547 -116.302335 
L 495.67363 -119.477425 
L 493.07179 -122.791607 
L 490.46995 -126.245176 
L 487.86811 -129.837759 
L 485.266269 -133.568385 
L 482.664429 -137.435541 
L 480.062589 -141.437261 
L 477.460749 -145.571189 
L 474.858909 -149.834649 
L 472.257069 -154.224684 
L 469.655229 -158.738076 
L 467.053389 -163.371331 
L 464.451548 -168.120631 
L 461.849708 -172.981755 
L 459.247868 -177.949966 
L 456.646028 -183.019875 
L 454.044188 -188.185297 
L 451.442348 -193.439087 
L 448.840508 -198.772993 
L 446.238668 -204.177516 
L 443.636827 -209.641795 
L 441.034987 -215.153509 
L 438.433147 -220.698824 
L 435.831307 -226.262357 
L 433.229467 -231.82718 
L 430.627627 -237.374835 
L 428.025787 -242.885387 
L 425.423947 -248.337481 
L 422.822106 -253.708415 
L 420.220266 -258.974231 
L 417.618426 -264.10981 
L 415.016586 -269.088983 
L 412.414746 -273.884666 
L 409.812906 -278.469021 
L 407.211066 -282.813647 
L 404.609226 -286.889812 
L 402.007385 -290.668745 
L 399.405545 -294.121963 
L 396.803705 -297.221661 
L 394.201865 -299.941146 
L 391.600025 -302.255312 
L 388.998185 -304.141134 
L 386.396345 -305.578181 
L 383.794505 -306.549105 
L 381.192664 -307.040103 
L 378.590824 -307.041318 
L 375.988984 -306.547161 
L 373.387144 -305.556535 
L 370.785304 -304.072948 
L 368.183464 -302.104509 
L 365.581624 -299.663804 
L 362.979784 -296.767645 
L 360.377943 -293.436734 
L 357.776103 -289.695217 
L 355.174263 -285.57019 
L 352.572423 -281.091139 
L 349.970583 -276.28938 
L 347.368743 -271.197483 
L 344.766903 -265.848727 
L 342.165063 -260.276598 
L 339.563222 -254.51433 
L 336.961382 -248.594523 
L 334.359542 -242.548816 
L 331.757702 -236.407632 
L 329.155862 -230.199993 
L 326.554022 -223.953387 
L 323.952182 -217.693689 
L 321.350342 -211.445125 
L 318.748501 -205.230266 
L 316.146661 -199.070041 
L 313.544821 -192.983771 
L 310.942981 -186.989194 
L 308.341141 -181.102491 
L 305.739301 -175.338297 
L 303.137461 -169.709696 
L 300.535621 -164.228196 
L 297.93378 -158.903683 
L 295.33194 -153.744359 
L 292.7301 -148.756672 
L 290.12826 -143.945246 
L 287.52642 -139.312819 
L 284.92458 -134.860215 
L 282.32274 -130.586346 
L 279.7209 -126.488278 
L 277.119059 -122.561356 
L 274.517219 -118.799399 
L 271.915379 -115.19497 
L 269.313539 -111.739708 
L 266.711699 -108.424718 
L 264.109859 -105.240994 
L 261.508019 -102.179853 
L 258.906179 -99.233354 
L 256.304339 -96.394677 
L 253.702498 -93.658426 
L 251.100658 -91.020847 
L 248.498818 -88.479934 
L 245.896978 -86.035416 
L 243.295138 -83.688633 
L 240.693298 -81.442305 
L 238.091458 -79.300208 
L 235.489618 -77.266784 
L 232.887777 -75.346726 
L 230.285937 -73.54454 
L 227.684097 -71.864143 
L 225.082257 -70.308504 
L 222.480417 -68.879358 
L 219.878577 -67.577003 
L 217.276737 -66.400196 
L 214.674897 -65.346133 
L 212.073056 -64.410521 
L 209.471216 -63.587722 
L 206.869376 -62.870958 
L 204.267536 -62.252552 
L 201.665696 -61.724196 
L 199.063856 -61.277216 
L 196.462016 -60.902833 
L 193.860176 -60.592393 
L 191.258335 -60.337563 
L 188.656495 -60.130499 
L 186.054655 -59.963955 
L 183.452815 -59.831366 
L 180.850975 -59.726888 
L 178.249135 -59.645402 
L 175.647295 -59.5825 
L 173.045455 -59.534441 
z
" style="stroke: #dd8452"/>
    </defs>
    <g clip-path="url(#pcbbbb46140)">
     <use xlink:href="#m0b5be19ac6" x="0" y="540" style="fill: #dd8452; fill-opacity: 0.25; stroke: #dd8452"/>
    </g>
   </g>
   <g id="FillBetweenPolyCollection_2">
    <defs>
     <path id="ma936a2256a" d="M 516.67555 -59.501367 
L 516.67555 -59.4 
L 518.772429 -59.4 
L 520.869309 -59.4 
L 522.966188 -59.4 
L 525.063068 -59.4 
L 527.159947 -59.4 
L 529.256826 -59.4 
L 531.353706 -59.4 
L 533.450585 -59.4 
L 535.547464 -59.4 
L 537.644344 -59.4 
L 539.741223 -59.4 
L 541.838103 -59.4 
L 543.934982 -59.4 
L 546.031861 -59.4 
L 548.128741 -59.4 
L 550.22562 -59.4 
L 552.322499 -59.4 
L 554.419379 -59.4 
L 556.516258 -59.4 
L 558.613138 -59.4 
L 560.710017 -59.4 
L 562.806896 -59.4 
L 564.903776 -59.4 
L 567.000655 -59.4 
L 569.097534 -59.4 
L 571.194414 -59.4 
L 573.291293 -59.4 
L 575.388173 -59.4 
L 577.485052 -59.4 
L 579.581931 -59.4 
L 581.678811 -59.4 
L 583.77569 -59.4 
L 585.872569 -59.4 
L 587.969449 -59.4 
L 590.066328 -59.4 
L 592.163207 -59.4 
L 594.260087 -59.4 
L 596.356966 -59.4 
L 598.453846 -59.4 
L 600.550725 -59.4 
L 602.647604 -59.4 
L 604.744484 -59.4 
L 606.841363 -59.4 
L 608.938242 -59.4 
L 611.035122 -59.4 
L 613.132001 -59.4 
L 615.228881 -59.4 
L 617.32576 -59.4 
L 619.422639 -59.4 
L 621.519519 -59.4 
L 623.616398 -59.4 
L 625.713277 -59.4 
L 627.810157 -59.4 
L 629.907036 -59.4 
L 632.003916 -59.4 
L 634.100795 -59.4 
L 636.197674 -59.4 
L 638.294554 -59.4 
L 640.391433 -59.4 
L 642.488312 -59.4 
L 644.585192 -59.4 
L 646.682071 -59.4 
L 648.778951 -59.4 
L 650.87583 -59.4 
L 652.972709 -59.4 
L 655.069589 -59.4 
L 657.166468 -59.4 
L 659.263347 -59.4 
L 661.360227 -59.4 
L 663.457106 -59.4 
L 665.553986 -59.4 
L 667.650865 -59.4 
L 669.747744 -59.4 
L 671.844624 -59.4 
L 673.941503 -59.4 
L 676.038382 -59.4 
L 678.135262 -59.4 
L 680.232141 -59.4 
L 682.329021 -59.4 
L 684.4259 -59.4 
L 686.522779 -59.4 
L 688.619659 -59.4 
L 690.716538 -59.4 
L 692.813417 -59.4 
L 694.910297 -59.4 
L 697.007176 -59.4 
L 699.104056 -59.4 
L 701.200935 -59.4 
L 703.297814 -59.4 
L 705.394694 -59.4 
L 707.491573 -59.4 
L 709.588452 -59.4 
L 711.685332 -59.4 
L 713.782211 -59.4 
L 715.879091 -59.4 
L 717.97597 -59.4 
L 720.072849 -59.4 
L 722.169729 -59.4 
L 724.266608 -59.4 
L 726.363487 -59.4 
L 728.460367 -59.4 
L 730.557246 -59.4 
L 732.654126 -59.4 
L 734.751005 -59.4 
L 736.847884 -59.4 
L 738.944764 -59.4 
L 741.041643 -59.4 
L 743.138522 -59.4 
L 745.235402 -59.4 
L 747.332281 -59.4 
L 749.429161 -59.4 
L 751.52604 -59.4 
L 753.622919 -59.4 
L 755.719799 -59.4 
L 757.816678 -59.4 
L 759.913557 -59.4 
L 762.010437 -59.4 
L 764.107316 -59.4 
L 766.204196 -59.4 
L 768.301075 -59.4 
L 770.397954 -59.4 
L 772.494834 -59.4 
L 774.591713 -59.4 
L 776.688592 -59.4 
L 778.785472 -59.4 
L 780.882351 -59.4 
L 782.979231 -59.4 
L 785.07611 -59.4 
L 787.172989 -59.4 
L 789.269869 -59.4 
L 791.366748 -59.4 
L 793.463627 -59.4 
L 795.560507 -59.4 
L 797.657386 -59.4 
L 799.754266 -59.4 
L 801.851145 -59.4 
L 803.948024 -59.4 
L 806.044904 -59.4 
L 808.141783 -59.4 
L 810.238662 -59.4 
L 812.335542 -59.4 
L 814.432421 -59.4 
L 816.529301 -59.4 
L 818.62618 -59.4 
L 820.723059 -59.4 
L 822.819939 -59.4 
L 824.916818 -59.4 
L 827.013697 -59.4 
L 829.110577 -59.4 
L 831.207456 -59.4 
L 833.304336 -59.4 
L 835.401215 -59.4 
L 837.498094 -59.4 
L 839.594974 -59.4 
L 841.691853 -59.4 
L 843.788732 -59.4 
L 845.885612 -59.4 
L 847.982491 -59.4 
L 850.07937 -59.4 
L 852.17625 -59.4 
L 854.273129 -59.4 
L 856.370009 -59.4 
L 858.466888 -59.4 
L 860.563767 -59.4 
L 862.660647 -59.4 
L 864.757526 -59.4 
L 866.854405 -59.4 
L 868.951285 -59.4 
L 871.048164 -59.4 
L 873.145044 -59.4 
L 875.241923 -59.4 
L 877.338802 -59.4 
L 879.435682 -59.4 
L 881.532561 -59.4 
L 883.62944 -59.4 
L 885.72632 -59.4 
L 887.823199 -59.4 
L 889.920079 -59.4 
L 892.016958 -59.4 
L 894.113837 -59.4 
L 896.210717 -59.4 
L 898.307596 -59.4 
L 900.404475 -59.4 
L 902.501355 -59.4 
L 904.598234 -59.4 
L 906.695114 -59.4 
L 908.791993 -59.4 
L 910.888872 -59.4 
L 912.985752 -59.4 
L 915.082631 -59.4 
L 917.17951 -59.4 
L 919.27639 -59.4 
L 921.373269 -59.4 
L 923.470149 -59.4 
L 925.567028 -59.4 
L 927.663907 -59.4 
L 929.760787 -59.4 
L 931.857666 -59.4 
L 933.954545 -59.4 
L 933.954545 -59.502961 
L 933.954545 -59.502961 
L 931.857666 -59.547025 
L 929.760787 -59.606888 
L 927.663907 -59.686883 
L 925.567028 -59.792014 
L 923.470149 -59.927866 
L 921.373269 -60.100444 
L 919.27639 -60.315901 
L 917.17951 -60.580186 
L 915.082631 -60.898576 
L 912.985752 -61.275139 
L 910.888872 -61.712143 
L 908.791993 -62.209457 
L 906.695114 -62.764004 
L 904.598234 -63.369332 
L 902.501355 -64.015356 
L 900.404475 -64.68835 
L 898.307596 -65.371217 
L 896.210717 -66.044066 
L 894.113837 -66.685086 
L 892.016958 -67.271672 
L 889.920079 -67.781734 
L 887.823199 -68.195088 
L 885.72632 -68.494809 
L 883.62944 -68.66843 
L 881.532561 -68.708873 
L 879.435682 -68.615035 
L 877.338802 -68.391955 
L 875.241923 -68.05058 
L 873.145044 -67.607141 
L 871.048164 -67.08221 
L 868.951285 -66.499553 
L 866.854405 -65.88487 
L 864.757526 -65.264548 
L 862.660647 -64.664528 
L 860.563767 -64.109367 
L 858.466888 -63.62152 
L 856.370009 -63.220892 
L 854.273129 -62.9246 
L 852.17625 -62.746946 
L 850.07937 -62.69951 
L 847.982491 -62.791339 
L 845.885612 -63.029159 
L 843.788732 -63.417593 
L 841.691853 -63.959357 
L 839.594974 -64.655456 
L 837.498094 -65.505389 
L 835.401215 -66.507395 
L 833.304336 -67.658785 
L 831.207456 -68.956371 
L 829.110577 -70.397008 
L 827.013697 -71.978239 
L 824.916818 -73.699003 
L 822.819939 -75.560367 
L 820.723059 -77.566196 
L 818.62618 -79.723705 
L 816.529301 -82.043819 
L 814.432421 -84.541285 
L 812.335542 -87.23452 
L 810.238662 -90.145175 
L 808.141783 -93.29745 
L 806.044904 -96.717215 
L 803.948024 -100.430991 
L 801.851145 -104.464882 
L 799.754266 -108.843532 
L 797.657386 -113.589177 
L 795.560507 -118.720836 
L 793.463627 -124.253702 
L 791.366748 -130.19871 
L 789.269869 -136.562326 
L 787.172989 -143.346502 
L 785.07611 -150.548809 
L 782.979231 -158.162704 
L 780.882351 -166.177918 
L 778.785472 -174.580947 
L 776.688592 -183.355609 
L 774.591713 -192.483656 
L 772.494834 -201.945396 
L 770.397954 -211.720281 
L 768.301075 -221.78741 
L 766.204196 -232.12587 
L 764.107316 -242.714858 
L 762.010437 -253.533518 
L 759.913557 -264.560457 
L 757.816678 -275.772924 
L 755.719799 -287.145688 
L 753.622919 -298.649687 
L 751.52604 -310.250562 
L 749.429161 -321.907212 
L 747.332281 -333.570548 
L 745.235402 -345.182592 
L 743.138522 -356.676059 
L 741.041643 -367.974515 
L 738.944764 -378.993156 
L 736.847884 -389.640166 
L 734.751005 -399.818586 
L 732.654126 -409.428558 
L 730.557246 -418.369765 
L 728.460367 -426.543916 
L 726.363487 -433.857094 
L 724.266608 -440.221845 
L 722.169729 -445.558924 
L 720.072849 -449.79866 
L 717.97597 -452.88197 
L 715.879091 -454.761075 
L 713.782211 -455.4 
L 711.685332 -454.77497 
L 709.588452 -452.874773 
L 707.491573 -449.701144 
L 705.394694 -445.269206 
L 703.297814 -439.60792 
L 701.200935 -432.760499 
L 699.104056 -424.784671 
L 697.007176 -415.75269 
L 694.910297 -405.750967 
L 692.813417 -394.879228 
L 690.716538 -383.249129 
L 688.619659 -370.982303 
L 686.522779 -358.207869 
L 684.4259 -345.059474 
L 682.329021 -331.672003 
L 680.232141 -318.178108 
L 678.135262 -304.704746 
L 676.038382 -291.369916 
L 673.941503 -278.279783 
L 671.844624 -265.526342 
L 669.747744 -253.185757 
L 667.650865 -241.317453 
L 665.553986 -229.963976 
L 663.457106 -219.151615 
L 661.360227 -208.891702 
L 659.263347 -199.18247 
L 657.166468 -190.011318 
L 655.069589 -181.357313 
L 652.972709 -173.19375 
L 650.87583 -165.490592 
L 648.778951 -158.216658 
L 646.682071 -151.341428 
L 644.585192 -144.836405 
L 642.488312 -138.676006 
L 640.391433 -132.838005 
L 638.294554 -127.303576 
L 636.197674 -122.057045 
L 634.100795 -117.085442 
L 632.003916 -112.37797 
L 629.907036 -107.925496 
L 627.810157 -103.720136 
L 625.713277 -99.754985 
L 623.616398 -96.024019 
L 621.519519 -92.522131 
L 619.422639 -89.245282 
L 617.32576 -86.190684 
L 615.228881 -83.356954 
L 613.132001 -80.744174 
L 611.035122 -78.353797 
L 608.938242 -76.188362 
L 606.841363 -74.251015 
L 604.744484 -72.544851 
L 602.647604 -71.072109 
L 600.550725 -69.83329 
L 598.453846 -68.826256 
L 596.356966 -68.045404 
L 594.260087 -67.480979 
L 592.163207 -67.118612 
L 590.066328 -66.939127 
L 587.969449 -66.91868 
L 585.872569 -67.029231 
L 583.77569 -67.239355 
L 581.678811 -67.51536 
L 579.581931 -67.822649 
L 577.485052 -68.127239 
L 575.388173 -68.397334 
L 573.291293 -68.604842 
L 571.194414 -68.726695 
L 569.097534 -68.745884 
L 567.000655 -68.652119 
L 564.903776 -68.442041 
L 562.806896 -68.118995 
L 560.710017 -67.692371 
L 558.613138 -67.176585 
L 556.516258 -66.589794 
L 554.419379 -65.952465 
L 552.322499 -65.285913 
L 550.22562 -64.610938 
L 548.128741 -63.946646 
L 546.031861 -63.309541 
L 543.934982 -62.712913 
L 541.838103 -62.16654 
L 539.741223 -61.67668 
L 537.644344 -61.246296 
L 535.547464 -60.875479 
L 533.450585 -60.56197 
L 531.353706 -60.30175 
L 529.256826 -60.089614 
L 527.159947 -59.919701 
L 525.063068 -59.785947 
L 522.966188 -59.682443 
L 520.869309 -59.603685 
L 518.772429 -59.544749 
L 516.67555 -59.501367 
z
" style="stroke: #4c72b0"/>
    </defs>
    <g clip-path="url(#pcbbbb46140)">
     <use xlink:href="#ma936a2256a" x="0" y="540" style="fill: #4c72b0; fill-opacity: 0.25; stroke: #4c72b0"/>
    </g>
   </g>
   <g id="line2d_40">
    <path d="M 434.896012 480.6 
L 434.896012 64.8 
" clip-path="url(#pcbbbb46140)" style="fill: none; stroke-dasharray: 2.96,1.28; stroke-dashoffset: 0; stroke: #d3d3d3; stroke-width: 0.8"/>
   </g>
   <g id="line2d_41">
    <path d="M 621.885286 480.6 
L 621.885286 64.8 
" clip-path="url(#pcbbbb46140)" style="fill: none; stroke-dasharray: 2.96,1.28; stroke-dashoffset: 0; stroke: #d3d3d3; stroke-width: 0.8"/>
   </g>
   <g id="line2d_42">
    <path d="M 549.786141 480.6 
L 549.786141 64.8 
" clip-path="url(#pcbbbb46140)" style="fill: none; stroke-dasharray: 2.96,1.28; stroke-dashoffset: 0; stroke: #d3d3d3; stroke-width: 0.8"/>
   </g>
   <g id="text_12">
    <!-- International Poverty Line: $2.15 -->
    <g style="fill: #808080" transform="translate(441.149762 184.13675) rotate(-90) scale(0.08 -0.08)">
     <defs>
      <path id="ArialMT-6c" d="M 409 0 
L 409 4581 
L 972 4581 
L 972 0 
L 409 0 
z
" transform="scale(0.015625)"/>
      <path id="ArialMT-50" d="M 494 0 
L 494 4581 
L 2222 4581 
Q 2678 4581 2919 4538 
Q 3256 4481 3484 4323 
Q 3713 4166 3852 3881 
Q 3991 3597 3991 3256 
Q 3991 2672 3619 2267 
Q 3247 1863 2275 1863 
L 1100 1863 
L 1100 0 
L 494 0 
z
M 1100 2403 
L 2284 2403 
Q 2872 2403 3119 2622 
Q 3366 2841 3366 3238 
Q 3366 3525 3220 3729 
Q 3075 3934 2838 4000 
Q 2684 4041 2272 4041 
L 1100 4041 
L 1100 2403 
z
" transform="scale(0.015625)"/>
      <path id="ArialMT-76" d="M 1344 0 
L 81 3319 
L 675 3319 
L 1388 1331 
Q 1503 1009 1600 663 
Q 1675 925 1809 1294 
L 2547 3319 
L 3125 3319 
L 1869 0 
L 1344 0 
z
" transform="scale(0.015625)"/>
      <path id="ArialMT-4c" d="M 469 0 
L 469 4581 
L 1075 4581 
L 1075 541 
L 3331 541 
L 3331 0 
L 469 0 
z
" transform="scale(0.015625)"/>
      <path id="ArialMT-3a" d="M 578 2678 
L 578 3319 
L 1219 3319 
L 1219 2678 
L 578 2678 
z
M 578 0 
L 578 641 
L 1219 641 
L 1219 0 
L 578 0 
z
" transform="scale(0.015625)"/>
      <path id="ArialMT-24" d="M 1594 -659 
L 1594 -97 
Q 1172 -44 908 92 
Q 644 228 451 531 
Q 259 834 228 1272 
L 794 1378 
Q 859 925 1025 713 
Q 1263 413 1594 378 
L 1594 2169 
Q 1247 2234 884 2438 
Q 616 2588 470 2853 
Q 325 3119 325 3456 
Q 325 4056 750 4428 
Q 1034 4678 1594 4734 
L 1594 5003 
L 1925 5003 
L 1925 4734 
Q 2416 4688 2703 4447 
Q 3072 4141 3147 3606 
L 2566 3519 
Q 2516 3850 2358 4026 
Q 2200 4203 1925 4259 
L 1925 2638 
Q 2350 2531 2488 2472 
Q 2750 2356 2915 2190 
Q 3081 2025 3170 1797 
Q 3259 1569 3259 1303 
Q 3259 719 2887 328 
Q 2516 -63 1925 -91 
L 1925 -659 
L 1594 -659 
z
M 1594 4266 
Q 1266 4216 1077 4003 
Q 888 3791 888 3500 
Q 888 3213 1048 3019 
Q 1209 2825 1594 2709 
L 1594 4266 
z
M 1925 378 
Q 2253 419 2467 662 
Q 2681 906 2681 1266 
Q 2681 1572 2529 1758 
Q 2378 1944 1925 2091 
L 1925 378 
z
" transform="scale(0.015625)"/>
      <path id="ArialMT-2e" d="M 581 0 
L 581 641 
L 1222 641 
L 1222 0 
L 581 0 
z
" transform="scale(0.015625)"/>
     </defs>
     <use xlink:href="#ArialMT-49"/>
     <use xlink:href="#ArialMT-6e" transform="translate(27.783203 0)"/>
     <use xlink:href="#ArialMT-74" transform="translate(83.398438 0)"/>
     <use xlink:href="#ArialMT-65" transform="translate(111.181641 0)"/>
     <use xlink:href="#ArialMT-72" transform="translate(166.796875 0)"/>
     <use xlink:href="#ArialMT-6e" transform="translate(200.097656 0)"/>
     <use xlink:href="#ArialMT-61" transform="translate(255.712891 0)"/>
     <use xlink:href="#ArialMT-74" transform="translate(311.328125 0)"/>
     <use xlink:href="#ArialMT-69" transform="translate(339.111328 0)"/>
     <use xlink:href="#ArialMT-6f" transform="translate(361.328125 0)"/>
     <use xlink:href="#ArialMT-6e" transform="translate(416.943359 0)"/>
     <use xlink:href="#ArialMT-61" transform="translate(472.558594 0)"/>
     <use xlink:href="#ArialMT-6c" transform="translate(528.173828 0)"/>
     <use xlink:href="#ArialMT-20" transform="translate(550.390625 0)"/>
     <use xlink:href="#ArialMT-50" transform="translate(578.173828 0)"/>
     <use xlink:href="#ArialMT-6f" transform="translate(644.873047 0)"/>
     <use xlink:href="#ArialMT-76" transform="translate(700.488281 0)"/>
     <use xlink:href="#ArialMT-65" transform="translate(750.488281 0)"/>
     <use xlink:href="#ArialMT-72" transform="translate(806.103516 0)"/>
     <use xlink:href="#ArialMT-74" transform="translate(839.404297 0)"/>
     <use xlink:href="#ArialMT-79" transform="translate(867.1875 0)"/>
     <use xlink:href="#ArialMT-20" transform="translate(917.1875 0)"/>
     <use xlink:href="#ArialMT-4c" transform="translate(944.970703 0)"/>
     <use xlink:href="#ArialMT-69" transform="translate(1000.585938 0)"/>
     <use xlink:href="#ArialMT-6e" transform="translate(1022.802734 0)"/>
     <use xlink:href="#ArialMT-65" transform="translate(1078.417969 0)"/>
     <use xlink:href="#ArialMT-3a" transform="translate(1134.033203 0)"/>
     <use xlink:href="#ArialMT-20" transform="translate(1161.816406 0)"/>
     <use xlink:href="#ArialMT-24" transform="translate(1189.599609 0)"/>
     <use xlink:href="#ArialMT-32" transform="translate(1245.214844 0)"/>
     <use xlink:href="#ArialMT-2e" transform="translate(1300.830078 0)"/>
     <use xlink:href="#ArialMT-31" transform="translate(1328.613281 0)"/>
     <use xlink:href="#ArialMT-35" transform="translate(1384.228516 0)"/>
    </g>
   </g>
   <g id="text_13">
    <!-- World mean: $19.18 -->
    <g style="fill: #808080" transform="translate(627.611536 140.85175) rotate(-90) scale(0.08 -0.08)">
     <defs>
      <path id="ArialMT-57" d="M 1294 0 
L 78 4581 
L 700 4581 
L 1397 1578 
Q 1509 1106 1591 641 
Q 1766 1375 1797 1488 
L 2669 4581 
L 3400 4581 
L 4056 2263 
Q 4303 1400 4413 641 
Q 4500 1075 4641 1638 
L 5359 4581 
L 5969 4581 
L 4713 0 
L 4128 0 
L 3163 3491 
Q 3041 3928 3019 4028 
Q 2947 3713 2884 3491 
L 1913 0 
L 1294 0 
z
" transform="scale(0.015625)"/>
      <path id="ArialMT-39" d="M 350 1059 
L 891 1109 
Q 959 728 1153 556 
Q 1347 384 1650 384 
Q 1909 384 2104 503 
Q 2300 622 2425 820 
Q 2550 1019 2634 1356 
Q 2719 1694 2719 2044 
Q 2719 2081 2716 2156 
Q 2547 1888 2255 1720 
Q 1963 1553 1622 1553 
Q 1053 1553 659 1965 
Q 266 2378 266 3053 
Q 266 3750 677 4175 
Q 1088 4600 1706 4600 
Q 2153 4600 2523 4359 
Q 2894 4119 3086 3673 
Q 3278 3228 3278 2384 
Q 3278 1506 3087 986 
Q 2897 466 2520 194 
Q 2144 -78 1638 -78 
Q 1100 -78 759 220 
Q 419 519 350 1059 
z
M 2653 3081 
Q 2653 3566 2395 3850 
Q 2138 4134 1775 4134 
Q 1400 4134 1122 3828 
Q 844 3522 844 3034 
Q 844 2597 1108 2323 
Q 1372 2050 1759 2050 
Q 2150 2050 2401 2323 
Q 2653 2597 2653 3081 
z
" transform="scale(0.015625)"/>
      <path id="ArialMT-38" d="M 1131 2484 
Q 781 2613 612 2850 
Q 444 3088 444 3419 
Q 444 3919 803 4259 
Q 1163 4600 1759 4600 
Q 2359 4600 2725 4251 
Q 3091 3903 3091 3403 
Q 3091 3084 2923 2848 
Q 2756 2613 2416 2484 
Q 2838 2347 3058 2040 
Q 3278 1734 3278 1309 
Q 3278 722 2862 322 
Q 2447 -78 1769 -78 
Q 1091 -78 675 323 
Q 259 725 259 1325 
Q 259 1772 486 2073 
Q 713 2375 1131 2484 
z
M 1019 3438 
Q 1019 3113 1228 2906 
Q 1438 2700 1772 2700 
Q 2097 2700 2305 2904 
Q 2513 3109 2513 3406 
Q 2513 3716 2298 3927 
Q 2084 4138 1766 4138 
Q 1444 4138 1231 3931 
Q 1019 3725 1019 3438 
z
M 838 1322 
Q 838 1081 952 856 
Q 1066 631 1291 507 
Q 1516 384 1775 384 
Q 2178 384 2440 643 
Q 2703 903 2703 1303 
Q 2703 1709 2433 1975 
Q 2163 2241 1756 2241 
Q 1359 2241 1098 1978 
Q 838 1716 838 1322 
z
" transform="scale(0.015625)"/>
     </defs>
     <use xlink:href="#ArialMT-57"/>
     <use xlink:href="#ArialMT-6f" transform="translate(92.634766 0)"/>
     <use xlink:href="#ArialMT-72" transform="translate(148.25 0)"/>
     <use xlink:href="#ArialMT-6c" transform="translate(181.550781 0)"/>
     <use xlink:href="#ArialMT-64" transform="translate(203.767578 0)"/>
     <use xlink:href="#ArialMT-20" transform="translate(259.382812 0)"/>
     <use xlink:href="#ArialMT-6d" transform="translate(287.166016 0)"/>
     <use xlink:href="#ArialMT-65" transform="translate(370.466797 0)"/>
     <use xlink:href="#ArialMT-61" transform="translate(426.082031 0)"/>
     <use xlink:href="#ArialMT-6e" transform="translate(481.697266 0)"/>
     <use xlink:href="#ArialMT-3a" transform="translate(537.3125 0)"/>
     <use xlink:href="#ArialMT-20" transform="translate(565.095703 0)"/>
     <use xlink:href="#ArialMT-24" transform="translate(592.878906 0)"/>
     <use xlink:href="#ArialMT-31" transform="translate(648.494141 0)"/>
     <use xlink:href="#ArialMT-39" transform="translate(704.109375 0)"/>
     <use xlink:href="#ArialMT-2e" transform="translate(759.724609 0)"/>
     <use xlink:href="#ArialMT-31" transform="translate(787.507812 0)"/>
     <use xlink:href="#ArialMT-38" transform="translate(843.123047 0)"/>
    </g>
   </g>
   <g id="text_14">
    <!-- World median: $8.25 -->
    <g style="fill: #808080" transform="translate(555.512391 142.62925) rotate(-90) scale(0.08 -0.08)">
     <use xlink:href="#ArialMT-57"/>
     <use xlink:href="#ArialMT-6f" transform="translate(92.634766 0)"/>
     <use xlink:href="#ArialMT-72" transform="translate(148.25 0)"/>
     <use xlink:href="#ArialMT-6c" transform="translate(181.550781 0)"/>
     <use xlink:href="#ArialMT-64" transform="translate(203.767578 0)"/>
     <use xlink:href="#ArialMT-20" transform="translate(259.382812 0)"/>
     <use xlink:href="#ArialMT-6d" transform="translate(287.166016 0)"/>
     <use xlink:href="#ArialMT-65" transform="translate(370.466797 0)"/>
     <use xlink:href="#ArialMT-64" transform="translate(426.082031 0)"/>
     <use xlink:href="#ArialMT-69" transform="translate(481.697266 0)"/>
     <use xlink:href="#ArialMT-61" transform="translate(503.914062 0)"/>
     <use xlink:href="#ArialMT-6e" transform="translate(559.529297 0)"/>
     <use xlink:href="#ArialMT-3a" transform="translate(615.144531 0)"/>
     <use xlink:href="#ArialMT-20" transform="translate(642.927734 0)"/>
     <use xlink:href="#ArialMT-24" transform="translate(670.710938 0)"/>
     <use xlink:href="#ArialMT-38" transform="translate(726.326172 0)"/>
     <use xlink:href="#ArialMT-2e" transform="translate(781.941406 0)"/>
     <use xlink:href="#ArialMT-32" transform="translate(809.724609 0)"/>
     <use xlink:href="#ArialMT-35" transform="translate(865.339844 0)"/>
    </g>
   </g>
   <g id="text_15">
    <!-- Denmark (2021) -->
    <g transform="translate(696.004217 478.495313) scale(0.1 -0.1)">
     <defs>
      <path id="ArialMT-44" d="M 494 0 
L 494 4581 
L 2072 4581 
Q 2606 4581 2888 4516 
Q 3281 4425 3559 4188 
Q 3922 3881 4101 3404 
Q 4281 2928 4281 2316 
Q 4281 1794 4159 1391 
Q 4038 988 3847 723 
Q 3656 459 3429 307 
Q 3203 156 2883 78 
Q 2563 0 2147 0 
L 494 0 
z
M 1100 541 
L 2078 541 
Q 2531 541 2789 625 
Q 3047 709 3200 863 
Q 3416 1078 3536 1442 
Q 3656 1806 3656 2325 
Q 3656 3044 3420 3430 
Q 3184 3816 2847 3947 
Q 2603 4041 2063 4041 
L 1100 4041 
L 1100 541 
z
" transform="scale(0.015625)"/>
      <path id="ArialMT-6b" d="M 425 0 
L 425 4581 
L 988 4581 
L 988 1969 
L 2319 3319 
L 3047 3319 
L 1778 2088 
L 3175 0 
L 2481 0 
L 1384 1697 
L 988 1316 
L 988 0 
L 425 0 
z
" transform="scale(0.015625)"/>
     </defs>
     <use xlink:href="#ArialMT-44"/>
     <use xlink:href="#ArialMT-65" transform="translate(72.216797 0)"/>
     <use xlink:href="#ArialMT-6e" transform="translate(127.832031 0)"/>
     <use xlink:href="#ArialMT-6d" transform="translate(183.447266 0)"/>
     <use xlink:href="#ArialMT-61" transform="translate(266.748047 0)"/>
     <use xlink:href="#ArialMT-72" transform="translate(322.363281 0)"/>
     <use xlink:href="#ArialMT-6b" transform="translate(355.664062 0)"/>
     <use xlink:href="#ArialMT-20" transform="translate(405.664062 0)"/>
     <use xlink:href="#ArialMT-28" transform="translate(433.447266 0)"/>
     <use xlink:href="#ArialMT-32" transform="translate(466.748047 0)"/>
     <use xlink:href="#ArialMT-30" transform="translate(522.363281 0)"/>
     <use xlink:href="#ArialMT-32" transform="translate(577.978516 0)"/>
     <use xlink:href="#ArialMT-31" transform="translate(633.59375 0)"/>
     <use xlink:href="#ArialMT-29" transform="translate(689.208984 0)"/>
    </g>
   </g>
   <g id="text_16">
    <!-- Democratic Republic of Congo (2020) -->
    <g transform="translate(364.705545 478.495313) scale(0.1 -0.1)">
     <defs>
      <path id="ArialMT-52" d="M 503 0 
L 503 4581 
L 2534 4581 
Q 3147 4581 3465 4457 
Q 3784 4334 3975 4021 
Q 4166 3709 4166 3331 
Q 4166 2844 3850 2509 
Q 3534 2175 2875 2084 
Q 3116 1969 3241 1856 
Q 3506 1613 3744 1247 
L 4541 0 
L 3778 0 
L 3172 953 
Q 2906 1366 2734 1584 
Q 2563 1803 2427 1890 
Q 2291 1978 2150 2013 
Q 2047 2034 1813 2034 
L 1109 2034 
L 1109 0 
L 503 0 
z
M 1109 2559 
L 2413 2559 
Q 2828 2559 3062 2645 
Q 3297 2731 3419 2920 
Q 3541 3109 3541 3331 
Q 3541 3656 3305 3865 
Q 3069 4075 2559 4075 
L 1109 4075 
L 1109 2559 
z
" transform="scale(0.015625)"/>
      <path id="ArialMT-62" d="M 941 0 
L 419 0 
L 419 4581 
L 981 4581 
L 981 2947 
Q 1338 3394 1891 3394 
Q 2197 3394 2470 3270 
Q 2744 3147 2920 2923 
Q 3097 2700 3197 2384 
Q 3297 2069 3297 1709 
Q 3297 856 2875 390 
Q 2453 -75 1863 -75 
Q 1275 -75 941 416 
L 941 0 
z
M 934 1684 
Q 934 1088 1097 822 
Q 1363 388 1816 388 
Q 2184 388 2453 708 
Q 2722 1028 2722 1663 
Q 2722 2313 2464 2622 
Q 2206 2931 1841 2931 
Q 1472 2931 1203 2611 
Q 934 2291 934 1684 
z
" transform="scale(0.015625)"/>
      <path id="ArialMT-66" d="M 556 0 
L 556 2881 
L 59 2881 
L 59 3319 
L 556 3319 
L 556 3672 
Q 556 4006 616 4169 
Q 697 4388 901 4523 
Q 1106 4659 1475 4659 
Q 1713 4659 2000 4603 
L 1916 4113 
Q 1741 4144 1584 4144 
Q 1328 4144 1222 4034 
Q 1116 3925 1116 3625 
L 1116 3319 
L 1763 3319 
L 1763 2881 
L 1116 2881 
L 1116 0 
L 556 0 
z
" transform="scale(0.015625)"/>
      <path id="ArialMT-43" d="M 3763 1606 
L 4369 1453 
Q 4178 706 3683 314 
Q 3188 -78 2472 -78 
Q 1731 -78 1267 223 
Q 803 525 561 1097 
Q 319 1669 319 2325 
Q 319 3041 592 3573 
Q 866 4106 1370 4382 
Q 1875 4659 2481 4659 
Q 3169 4659 3637 4309 
Q 4106 3959 4291 3325 
L 3694 3184 
Q 3534 3684 3231 3912 
Q 2928 4141 2469 4141 
Q 1941 4141 1586 3887 
Q 1231 3634 1087 3207 
Q 944 2781 944 2328 
Q 944 1744 1114 1308 
Q 1284 872 1643 656 
Q 2003 441 2422 441 
Q 2931 441 3284 734 
Q 3638 1028 3763 1606 
z
" transform="scale(0.015625)"/>
      <path id="ArialMT-67" d="M 319 -275 
L 866 -356 
Q 900 -609 1056 -725 
Q 1266 -881 1628 -881 
Q 2019 -881 2231 -725 
Q 2444 -569 2519 -288 
Q 2563 -116 2559 434 
Q 2191 0 1641 0 
Q 956 0 581 494 
Q 206 988 206 1678 
Q 206 2153 378 2554 
Q 550 2956 876 3175 
Q 1203 3394 1644 3394 
Q 2231 3394 2613 2919 
L 2613 3319 
L 3131 3319 
L 3131 450 
Q 3131 -325 2973 -648 
Q 2816 -972 2473 -1159 
Q 2131 -1347 1631 -1347 
Q 1038 -1347 672 -1080 
Q 306 -813 319 -275 
z
M 784 1719 
Q 784 1066 1043 766 
Q 1303 466 1694 466 
Q 2081 466 2343 764 
Q 2606 1063 2606 1700 
Q 2606 2309 2336 2618 
Q 2066 2928 1684 2928 
Q 1309 2928 1046 2623 
Q 784 2319 784 1719 
z
" transform="scale(0.015625)"/>
     </defs>
     <use xlink:href="#ArialMT-44"/>
     <use xlink:href="#ArialMT-65" transform="translate(72.216797 0)"/>
     <use xlink:href="#ArialMT-6d" transform="translate(127.832031 0)"/>
     <use xlink:href="#ArialMT-6f" transform="translate(211.132812 0)"/>
     <use xlink:href="#ArialMT-63" transform="translate(266.748047 0)"/>
     <use xlink:href="#ArialMT-72" transform="translate(316.748047 0)"/>
     <use xlink:href="#ArialMT-61" transform="translate(350.048828 0)"/>
     <use xlink:href="#ArialMT-74" transform="translate(405.664062 0)"/>
     <use xlink:href="#ArialMT-69" transform="translate(433.447266 0)"/>
     <use xlink:href="#ArialMT-63" transform="translate(455.664062 0)"/>
     <use xlink:href="#ArialMT-20" transform="translate(505.664062 0)"/>
     <use xlink:href="#ArialMT-52" transform="translate(533.447266 0)"/>
     <use xlink:href="#ArialMT-65" transform="translate(605.664062 0)"/>
     <use xlink:href="#ArialMT-70" transform="translate(661.279297 0)"/>
     <use xlink:href="#ArialMT-75" transform="translate(716.894531 0)"/>
     <use xlink:href="#ArialMT-62" transform="translate(772.509766 0)"/>
     <use xlink:href="#ArialMT-6c" transform="translate(828.125 0)"/>
     <use xlink:href="#ArialMT-69" transform="translate(850.341797 0)"/>
     <use xlink:href="#ArialMT-63" transform="translate(872.558594 0)"/>
     <use xlink:href="#ArialMT-20" transform="translate(922.558594 0)"/>
     <use xlink:href="#ArialMT-6f" transform="translate(950.341797 0)"/>
     <use xlink:href="#ArialMT-66" transform="translate(1005.957031 0)"/>
     <use xlink:href="#ArialMT-20" transform="translate(1033.740234 0)"/>
     <use xlink:href="#ArialMT-43" transform="translate(1061.523438 0)"/>
     <use xlink:href="#ArialMT-6f" transform="translate(1133.740234 0)"/>
     <use xlink:href="#ArialMT-6e" transform="translate(1189.355469 0)"/>
     <use xlink:href="#ArialMT-67" transform="translate(1244.970703 0)"/>
     <use xlink:href="#ArialMT-6f" transform="translate(1300.585938 0)"/>
     <use xlink:href="#ArialMT-20" transform="translate(1356.201172 0)"/>
     <use xlink:href="#ArialMT-28" transform="translate(1383.984375 0)"/>
     <use xlink:href="#ArialMT-32" transform="translate(1417.285156 0)"/>
     <use xlink:href="#ArialMT-30" transform="translate(1472.900391 0)"/>
     <use xlink:href="#ArialMT-32" transform="translate(1528.515625 0)"/>
     <use xlink:href="#ArialMT-30" transform="translate(1584.130859 0)"/>
     <use xlink:href="#ArialMT-29" transform="translate(1639.746094 0)"/>
    </g>
   </g>
  </g>
 </g>
 <defs>
  <clipPath id="pcbbbb46140">
   <rect x="135" y="64.8" width="837" height="415.8"/>
  </clipPath>
 </defs>
</svg>
