<?xml version="1.0" encoding="utf-8" standalone="no"?>
<!DOCTYPE svg PUBLIC "-//W3C//DTD SVG 1.1//EN"
  "http://www.w3.org/Graphics/SVG/1.1/DTD/svg11.dtd">
<svg xmlns:xlink="http://www.w3.org/1999/xlink" width="851.4pt" height="265.689687pt" viewBox="0 0 851.4 265.689687" xmlns="http://www.w3.org/2000/svg" version="1.1">
 <metadata>
  <rdf:RDF xmlns:dc="http://purl.org/dc/elements/1.1/" xmlns:cc="http://creativecommons.org/ns#" xmlns:rdf="http://www.w3.org/1999/02/22-rdf-syntax-ns#">
   <cc:Work>
    <dc:type rdf:resource="http://purl.org/dc/dcmitype/StillImage"/>
    <dc:date>2025-04-15T11:23:00.346816</dc:date>
    <dc:format>image/svg+xml</dc:format>
    <dc:creator>
     <cc:Agent>
      <dc:title>Matplotlib v3.10.1, https://matplotlib.org/</dc:title>
     </cc:Agent>
    </dc:creator>
   </cc:Work>
  </rdf:RDF>
 </metadata>
 <defs>
  <style type="text/css">*{stroke-linejoin: round; stroke-linecap: butt}</style>
 </defs>
 <g id="figure_1">
  <g id="patch_1">
   <path d="M 0 265.689687 
L 851.4 265.689687 
L 851.4 0 
L 0 0 
z
" style="fill: #ffffff"/>
  </g>
  <g id="axes_1">
   <g id="patch_2">
    <path d="M 7.2 228.96 
L 844.2 228.96 
L 844.2 7.2 
L 7.2 7.2 
z
" style="fill: #ffffff"/>
   </g>
   <g id="matplotlib.axis_1">
    <g id="xtick_1">
     <g id="line2d_1">
      <defs>
       <path id="m82b0f72afd" d="M 0 0 
L 0 3.5 
" style="stroke: #262626; stroke-width: 0.8"/>
      </defs>
      <g>
       <use xlink:href="#m82b0f72afd" x="241.697237" y="228.96" style="fill: #262626; stroke: #262626; stroke-width: 0.8"/>
      </g>
     </g>
     <g id="text_1">
      <text style="font-size: 10px; font-family: 'Arial', 'DejaVu Sans', 'Liberation Sans', 'Bitstream Vera Sans', sans-serif; text-anchor: middle; fill: #262626" x="241.697237" y="243.117812" transform="rotate(-0 241.697237 243.117812)">1</text>
     </g>
    </g>
    <g id="xtick_2">
     <g id="line2d_2">
      <g>
       <use xlink:href="#m82b0f72afd" x="300.917199" y="228.96" style="fill: #262626; stroke: #262626; stroke-width: 0.8"/>
      </g>
     </g>
     <g id="text_2">
      <text style="font-size: 10px; font-family: 'Arial', 'DejaVu Sans', 'Liberation Sans', 'Bitstream Vera Sans', sans-serif; text-anchor: middle; fill: #262626" x="300.917199" y="243.117812" transform="rotate(-0 300.917199 243.117812)">2</text>
     </g>
    </g>
    <g id="xtick_3">
     <g id="line2d_3">
      <g>
       <use xlink:href="#m82b0f72afd" x="379.201731" y="228.96" style="fill: #262626; stroke: #262626; stroke-width: 0.8"/>
      </g>
     </g>
     <g id="text_3">
      <text style="font-size: 10px; font-family: 'Arial', 'DejaVu Sans', 'Liberation Sans', 'Bitstream Vera Sans', sans-serif; text-anchor: middle; fill: #262626" x="379.201731" y="243.117812" transform="rotate(-0 379.201731 243.117812)">5</text>
     </g>
    </g>
    <g id="xtick_4">
     <g id="line2d_4">
      <g>
       <use xlink:href="#m82b0f72afd" x="438.421693" y="228.96" style="fill: #262626; stroke: #262626; stroke-width: 0.8"/>
      </g>
     </g>
     <g id="text_4">
      <text style="font-size: 10px; font-family: 'Arial', 'DejaVu Sans', 'Liberation Sans', 'Bitstream Vera Sans', sans-serif; text-anchor: middle; fill: #262626" x="438.421693" y="243.117812" transform="rotate(-0 438.421693 243.117812)">10</text>
     </g>
    </g>
    <g id="xtick_5">
     <g id="line2d_5">
      <g>
       <use xlink:href="#m82b0f72afd" x="497.641655" y="228.96" style="fill: #262626; stroke: #262626; stroke-width: 0.8"/>
      </g>
     </g>
     <g id="text_5">
      <text style="font-size: 10px; font-family: 'Arial', 'DejaVu Sans', 'Liberation Sans', 'Bitstream Vera Sans', sans-serif; text-anchor: middle; fill: #262626" x="497.641655" y="243.117812" transform="rotate(-0 497.641655 243.117812)">20</text>
     </g>
    </g>
    <g id="xtick_6">
     <g id="line2d_6">
      <g>
       <use xlink:href="#m82b0f72afd" x="575.926186" y="228.96" style="fill: #262626; stroke: #262626; stroke-width: 0.8"/>
      </g>
     </g>
     <g id="text_6">
      <text style="font-size: 10px; font-family: 'Arial', 'DejaVu Sans', 'Liberation Sans', 'Bitstream Vera Sans', sans-serif; text-anchor: middle; fill: #262626" x="575.926186" y="243.117812" transform="rotate(-0 575.926186 243.117812)">50</text>
     </g>
    </g>
    <g id="xtick_7">
     <g id="line2d_7">
      <g>
       <use xlink:href="#m82b0f72afd" x="635.146148" y="228.96" style="fill: #262626; stroke: #262626; stroke-width: 0.8"/>
      </g>
     </g>
     <g id="text_7">
      <text style="font-size: 10px; font-family: 'Arial', 'DejaVu Sans', 'Liberation Sans', 'Bitstream Vera Sans', sans-serif; text-anchor: middle; fill: #262626" x="635.146148" y="243.117812" transform="rotate(-0 635.146148 243.117812)">100</text>
     </g>
    </g>
    <g id="xtick_8">
     <g id="line2d_8">
      <g>
       <use xlink:href="#m82b0f72afd" x="694.36611" y="228.96" style="fill: #262626; stroke: #262626; stroke-width: 0.8"/>
      </g>
     </g>
     <g id="text_8">
      <text style="font-size: 10px; font-family: 'Arial', 'DejaVu Sans', 'Liberation Sans', 'Bitstream Vera Sans', sans-serif; text-anchor: middle; fill: #262626" x="694.36611" y="243.117812" transform="rotate(-0 694.36611 243.117812)">200</text>
     </g>
    </g>
    <g id="xtick_9">
     <g id="line2d_9">
      <g>
       <use xlink:href="#m82b0f72afd" x="772.650642" y="228.96" style="fill: #262626; stroke: #262626; stroke-width: 0.8"/>
      </g>
     </g>
     <g id="text_9">
      <text style="font-size: 10px; font-family: 'Arial', 'DejaVu Sans', 'Liberation Sans', 'Bitstream Vera Sans', sans-serif; text-anchor: middle; fill: #262626" x="772.650642" y="243.117812" transform="rotate(-0 772.650642 243.117812)">500</text>
     </g>
    </g>
    <g id="xtick_10">
     <g id="line2d_10">
      <g>
       <use xlink:href="#m82b0f72afd" x="831.870604" y="228.96" style="fill: #262626; stroke: #262626; stroke-width: 0.8"/>
      </g>
     </g>
     <g id="text_10">
      <text style="font-size: 10px; font-family: 'Arial', 'DejaVu Sans', 'Liberation Sans', 'Bitstream Vera Sans', sans-serif; text-anchor: middle; fill: #262626" x="831.870604" y="243.117812" transform="rotate(-0 831.870604 243.117812)">1000</text>
     </g>
    </g>
    <g id="xtick_11">
     <g id="line2d_11">
      <defs>
       <path id="m89d84993eb" d="M 0 0 
L 0 2 
" style="stroke: #262626; stroke-width: 0.6"/>
      </defs>
      <g>
       <use xlink:href="#m89d84993eb" x="14.499778" y="228.96" style="fill: #262626; stroke: #262626; stroke-width: 0.6"/>
      </g>
     </g>
    </g>
    <g id="xtick_12">
     <g id="line2d_12">
      <g>
       <use xlink:href="#m89d84993eb" x="25.908212" y="228.96" style="fill: #262626; stroke: #262626; stroke-width: 0.6"/>
      </g>
     </g>
    </g>
    <g id="xtick_13">
     <g id="line2d_13">
      <g>
       <use xlink:href="#m89d84993eb" x="35.971164" y="228.96" style="fill: #262626; stroke: #262626; stroke-width: 0.6"/>
      </g>
     </g>
    </g>
    <g id="xtick_14">
     <g id="line2d_14">
      <g>
       <use xlink:href="#m89d84993eb" x="104.192744" y="228.96" style="fill: #262626; stroke: #262626; stroke-width: 0.6"/>
      </g>
     </g>
    </g>
    <g id="xtick_15">
     <g id="line2d_15">
      <g>
       <use xlink:href="#m89d84993eb" x="138.834201" y="228.96" style="fill: #262626; stroke: #262626; stroke-width: 0.6"/>
      </g>
     </g>
    </g>
    <g id="xtick_16">
     <g id="line2d_16">
      <g>
       <use xlink:href="#m89d84993eb" x="163.412706" y="228.96" style="fill: #262626; stroke: #262626; stroke-width: 0.6"/>
      </g>
     </g>
    </g>
    <g id="xtick_17">
     <g id="line2d_17">
      <g>
       <use xlink:href="#m89d84993eb" x="182.477275" y="228.96" style="fill: #262626; stroke: #262626; stroke-width: 0.6"/>
      </g>
     </g>
    </g>
    <g id="xtick_18">
     <g id="line2d_18">
      <g>
       <use xlink:href="#m89d84993eb" x="198.054163" y="228.96" style="fill: #262626; stroke: #262626; stroke-width: 0.6"/>
      </g>
     </g>
    </g>
    <g id="xtick_19">
     <g id="line2d_19">
      <g>
       <use xlink:href="#m89d84993eb" x="211.224233" y="228.96" style="fill: #262626; stroke: #262626; stroke-width: 0.6"/>
      </g>
     </g>
    </g>
    <g id="xtick_20">
     <g id="line2d_20">
      <g>
       <use xlink:href="#m89d84993eb" x="222.632668" y="228.96" style="fill: #262626; stroke: #262626; stroke-width: 0.6"/>
      </g>
     </g>
    </g>
    <g id="xtick_21">
     <g id="line2d_21">
      <g>
       <use xlink:href="#m89d84993eb" x="232.69562" y="228.96" style="fill: #262626; stroke: #262626; stroke-width: 0.6"/>
      </g>
     </g>
    </g>
    <g id="xtick_22">
     <g id="line2d_22">
      <g>
       <use xlink:href="#m89d84993eb" x="335.558656" y="228.96" style="fill: #262626; stroke: #262626; stroke-width: 0.6"/>
      </g>
     </g>
    </g>
    <g id="xtick_23">
     <g id="line2d_23">
      <g>
       <use xlink:href="#m89d84993eb" x="360.137161" y="228.96" style="fill: #262626; stroke: #262626; stroke-width: 0.6"/>
      </g>
     </g>
    </g>
    <g id="xtick_24">
     <g id="line2d_24">
      <g>
       <use xlink:href="#m89d84993eb" x="394.778618" y="228.96" style="fill: #262626; stroke: #262626; stroke-width: 0.6"/>
      </g>
     </g>
    </g>
    <g id="xtick_25">
     <g id="line2d_25">
      <g>
       <use xlink:href="#m89d84993eb" x="407.948689" y="228.96" style="fill: #262626; stroke: #262626; stroke-width: 0.6"/>
      </g>
     </g>
    </g>
    <g id="xtick_26">
     <g id="line2d_26">
      <g>
       <use xlink:href="#m89d84993eb" x="419.357123" y="228.96" style="fill: #262626; stroke: #262626; stroke-width: 0.6"/>
      </g>
     </g>
    </g>
    <g id="xtick_27">
     <g id="line2d_27">
      <g>
       <use xlink:href="#m89d84993eb" x="429.420075" y="228.96" style="fill: #262626; stroke: #262626; stroke-width: 0.6"/>
      </g>
     </g>
    </g>
    <g id="xtick_28">
     <g id="line2d_28">
      <g>
       <use xlink:href="#m89d84993eb" x="532.283112" y="228.96" style="fill: #262626; stroke: #262626; stroke-width: 0.6"/>
      </g>
     </g>
    </g>
    <g id="xtick_29">
     <g id="line2d_29">
      <g>
       <use xlink:href="#m89d84993eb" x="556.861617" y="228.96" style="fill: #262626; stroke: #262626; stroke-width: 0.6"/>
      </g>
     </g>
    </g>
    <g id="xtick_30">
     <g id="line2d_30">
      <g>
       <use xlink:href="#m89d84993eb" x="591.503074" y="228.96" style="fill: #262626; stroke: #262626; stroke-width: 0.6"/>
      </g>
     </g>
    </g>
    <g id="xtick_31">
     <g id="line2d_31">
      <g>
       <use xlink:href="#m89d84993eb" x="604.673145" y="228.96" style="fill: #262626; stroke: #262626; stroke-width: 0.6"/>
      </g>
     </g>
    </g>
    <g id="xtick_32">
     <g id="line2d_32">
      <g>
       <use xlink:href="#m89d84993eb" x="616.081579" y="228.96" style="fill: #262626; stroke: #262626; stroke-width: 0.6"/>
      </g>
     </g>
    </g>
    <g id="xtick_33">
     <g id="line2d_33">
      <g>
       <use xlink:href="#m89d84993eb" x="626.144531" y="228.96" style="fill: #262626; stroke: #262626; stroke-width: 0.6"/>
      </g>
     </g>
    </g>
    <g id="xtick_34">
     <g id="line2d_34">
      <g>
       <use xlink:href="#m89d84993eb" x="729.007568" y="228.96" style="fill: #262626; stroke: #262626; stroke-width: 0.6"/>
      </g>
     </g>
    </g>
    <g id="xtick_35">
     <g id="line2d_35">
      <g>
       <use xlink:href="#m89d84993eb" x="753.586072" y="228.96" style="fill: #262626; stroke: #262626; stroke-width: 0.6"/>
      </g>
     </g>
    </g>
    <g id="xtick_36">
     <g id="line2d_36">
      <g>
       <use xlink:href="#m89d84993eb" x="788.22753" y="228.96" style="fill: #262626; stroke: #262626; stroke-width: 0.6"/>
      </g>
     </g>
    </g>
    <g id="xtick_37">
     <g id="line2d_37">
      <g>
       <use xlink:href="#m89d84993eb" x="801.3976" y="228.96" style="fill: #262626; stroke: #262626; stroke-width: 0.6"/>
      </g>
     </g>
    </g>
    <g id="xtick_38">
     <g id="line2d_38">
      <g>
       <use xlink:href="#m89d84993eb" x="812.806035" y="228.96" style="fill: #262626; stroke: #262626; stroke-width: 0.6"/>
      </g>
     </g>
    </g>
    <g id="xtick_39">
     <g id="line2d_39">
      <g>
       <use xlink:href="#m89d84993eb" x="822.868987" y="228.96" style="fill: #262626; stroke: #262626; stroke-width: 0.6"/>
      </g>
     </g>
    </g>
    <g id="text_11">
     <text style="font-size: 10px; font-family: 'Arial', 'DejaVu Sans', 'Liberation Sans', 'Bitstream Vera Sans', sans-serif; text-anchor: middle; fill: #262626" x="425.7" y="256.385" transform="rotate(-0 425.7 256.385)">Income or consumption (day)</text>
    </g>
   </g>
   <g id="matplotlib.axis_2"/>
   <g id="FillBetweenPolyCollection_1">
    <defs>
     <path id="meee0679c51" d="M 45.245455 -36.801389 
L 45.245455 -36.729688 
L 47.847295 -36.729688 
L 50.449135 -36.729688 
L 53.050975 -36.729688 
L 55.652815 -36.729688 
L 58.254655 -36.729688 
L 60.856495 -36.729688 
L 63.458335 -36.729688 
L 66.060176 -36.729688 
L 68.662016 -36.729688 
L 71.263856 -36.729688 
L 73.865696 -36.729688 
L 76.467536 -36.729688 
L 79.069376 -36.729688 
L 81.671216 -36.729688 
L 84.273056 -36.729688 
L 86.874897 -36.729688 
L 89.476737 -36.729688 
L 92.078577 -36.729688 
L 94.680417 -36.729688 
L 97.282257 -36.729688 
L 99.884097 -36.729688 
L 102.485937 -36.729688 
L 105.087777 -36.729688 
L 107.689618 -36.729688 
L 110.291458 -36.729688 
L 112.893298 -36.729688 
L 115.495138 -36.729688 
L 118.096978 -36.729688 
L 120.698818 -36.729688 
L 123.300658 -36.729688 
L 125.902498 -36.729688 
L 128.504339 -36.729688 
L 131.106179 -36.729688 
L 133.708019 -36.729688 
L 136.309859 -36.729688 
L 138.911699 -36.729688 
L 141.513539 -36.729688 
L 144.115379 -36.729688 
L 146.717219 -36.729688 
L 149.319059 -36.729688 
L 151.9209 -36.729688 
L 154.52274 -36.729688 
L 157.12458 -36.729688 
L 159.72642 -36.729688 
L 162.32826 -36.729688 
L 164.9301 -36.729688 
L 167.53194 -36.729688 
L 170.13378 -36.729688 
L 172.735621 -36.729688 
L 175.337461 -36.729688 
L 177.939301 -36.729688 
L 180.541141 -36.729688 
L 183.142981 -36.729688 
L 185.744821 -36.729688 
L 188.346661 -36.729688 
L 190.948501 -36.729688 
L 193.550342 -36.729688 
L 196.152182 -36.729688 
L 198.754022 -36.729688 
L 201.355862 -36.729688 
L 203.957702 -36.729688 
L 206.559542 -36.729688 
L 209.161382 -36.729688 
L 211.763222 -36.729688 
L 214.365063 -36.729688 
L 216.966903 -36.729688 
L 219.568743 -36.729688 
L 222.170583 -36.729688 
L 224.772423 -36.729688 
L 227.374263 -36.729688 
L 229.976103 -36.729688 
L 232.577943 -36.729688 
L 235.179784 -36.729688 
L 237.781624 -36.729688 
L 240.383464 -36.729688 
L 242.985304 -36.729688 
L 245.587144 -36.729688 
L 248.188984 -36.729688 
L 250.790824 -36.729688 
L 253.392664 -36.729688 
L 255.994505 -36.729688 
L 258.596345 -36.729688 
L 261.198185 -36.729688 
L 263.800025 -36.729688 
L 266.401865 -36.729688 
L 269.003705 -36.729688 
L 271.605545 -36.729688 
L 274.207385 -36.729688 
L 276.809226 -36.729688 
L 279.411066 -36.729688 
L 282.012906 -36.729688 
L 284.614746 -36.729688 
L 287.216586 -36.729688 
L 289.818426 -36.729688 
L 292.420266 -36.729688 
L 295.022106 -36.729688 
L 297.623947 -36.729688 
L 300.225787 -36.729688 
L 302.827627 -36.729688 
L 305.429467 -36.729688 
L 308.031307 -36.729688 
L 310.633147 -36.729688 
L 313.234987 -36.729688 
L 315.836827 -36.729688 
L 318.438668 -36.729688 
L 321.040508 -36.729688 
L 323.642348 -36.729688 
L 326.244188 -36.729688 
L 328.846028 -36.729688 
L 331.447868 -36.729688 
L 334.049708 -36.729688 
L 336.651548 -36.729688 
L 339.253389 -36.729688 
L 341.855229 -36.729688 
L 344.457069 -36.729688 
L 347.058909 -36.729688 
L 349.660749 -36.729688 
L 352.262589 -36.729688 
L 354.864429 -36.729688 
L 357.466269 -36.729688 
L 360.06811 -36.729688 
L 362.66995 -36.729688 
L 365.27179 -36.729688 
L 367.87363 -36.729688 
L 370.47547 -36.729688 
L 373.07731 -36.729688 
L 375.67915 -36.729688 
L 378.28099 -36.729688 
L 380.882831 -36.729688 
L 383.484671 -36.729688 
L 386.086511 -36.729688 
L 388.688351 -36.729688 
L 391.290191 -36.729688 
L 393.892031 -36.729688 
L 396.493871 -36.729688 
L 399.095711 -36.729688 
L 401.697551 -36.729688 
L 404.299392 -36.729688 
L 406.901232 -36.729688 
L 409.503072 -36.729688 
L 412.104912 -36.729688 
L 414.706752 -36.729688 
L 417.308592 -36.729688 
L 419.910432 -36.729688 
L 422.512272 -36.729688 
L 425.114113 -36.729688 
L 427.715953 -36.729688 
L 430.317793 -36.729688 
L 432.919633 -36.729688 
L 435.521473 -36.729688 
L 438.123313 -36.729688 
L 440.725153 -36.729688 
L 443.326993 -36.729688 
L 445.928834 -36.729688 
L 448.530674 -36.729688 
L 451.132514 -36.729688 
L 453.734354 -36.729688 
L 456.336194 -36.729688 
L 458.938034 -36.729688 
L 461.539874 -36.729688 
L 464.141714 -36.729688 
L 466.743555 -36.729688 
L 469.345395 -36.729688 
L 471.947235 -36.729688 
L 474.549075 -36.729688 
L 477.150915 -36.729688 
L 479.752755 -36.729688 
L 482.354595 -36.729688 
L 484.956435 -36.729688 
L 487.558276 -36.729688 
L 490.160116 -36.729688 
L 492.761956 -36.729688 
L 495.363796 -36.729688 
L 497.965636 -36.729688 
L 500.567476 -36.729688 
L 503.169316 -36.729688 
L 505.771156 -36.729688 
L 508.372997 -36.729688 
L 510.974837 -36.729688 
L 513.576677 -36.729688 
L 516.178517 -36.729688 
L 518.780357 -36.729688 
L 521.382197 -36.729688 
L 523.984037 -36.729688 
L 526.585877 -36.729688 
L 529.187718 -36.729688 
L 531.789558 -36.729688 
L 534.391398 -36.729688 
L 536.993238 -36.729688 
L 539.595078 -36.729688 
L 542.196918 -36.729688 
L 544.798758 -36.729688 
L 547.400598 -36.729688 
L 550.002439 -36.729688 
L 552.604279 -36.729688 
L 555.206119 -36.729688 
L 557.807959 -36.729688 
L 560.409799 -36.729688 
L 563.011639 -36.729688 
L 563.011639 -36.766523 
L 563.011639 -36.766523 
L 560.409799 -36.779169 
L 557.807959 -36.795497 
L 555.206119 -36.81634 
L 552.604279 -36.84265 
L 550.002439 -36.875484 
L 547.400598 -36.915988 
L 544.798758 -36.96538 
L 542.196918 -37.024902 
L 539.595078 -37.095784 
L 536.993238 -37.179179 
L 534.391398 -37.2761 
L 531.789558 -37.387341 
L 529.187718 -37.513402 
L 526.585877 -37.654409 
L 523.984037 -37.810041 
L 521.382197 -37.979476 
L 518.780357 -38.161341 
L 516.178517 -38.353707 
L 513.576677 -38.554093 
L 510.974837 -38.759523 
L 508.372997 -38.966605 
L 505.771156 -39.171653 
L 503.169316 -39.370839 
L 500.567476 -39.560369 
L 497.965636 -39.736685 
L 495.363796 -39.896657 
L 492.761956 -40.03779 
L 490.160116 -40.158393 
L 487.558276 -40.257731 
L 484.956435 -40.336122 
L 482.354595 -40.394995 
L 479.752755 -40.436882 
L 477.150915 -40.465352 
L 474.549075 -40.484894 
L 471.947235 -40.50074 
L 469.345395 -40.518662 
L 466.743555 -40.544729 
L 464.141714 -40.585053 
L 461.539874 -40.645551 
L 458.938034 -40.731707 
L 456.336194 -40.848381 
L 453.734354 -40.999654 
L 451.132514 -41.188729 
L 448.530674 -41.417882 
L 445.928834 -41.688476 
L 443.326993 -42.001022 
L 440.725153 -42.355284 
L 438.123313 -42.750425 
L 435.521473 -43.18517 
L 432.919633 -43.657985 
L 430.317793 -44.167257 
L 427.715953 -44.711455 
L 425.114113 -45.28928 
L 422.512272 -45.89978 
L 419.910432 -46.542442 
L 417.308592 -47.217245 
L 414.706752 -47.924684 
L 412.104912 -48.665768 
L 409.503072 -49.441989 
L 406.901232 -50.255277 
L 404.299392 -51.107938 
L 401.697551 -52.002589 
L 399.095711 -52.942078 
L 396.493871 -53.929417 
L 393.892031 -54.967703 
L 391.290191 -56.060057 
L 388.688351 -57.209549 
L 386.086511 -58.419141 
L 383.484671 -59.691632 
L 380.882831 -61.029597 
L 378.28099 -62.435347 
L 375.67915 -63.910886 
L 373.07731 -65.457872 
L 370.47547 -67.077599 
L 367.87363 -68.770981 
L 365.27179 -70.538545 
L 362.66995 -72.380448 
L 360.06811 -74.296493 
L 357.466269 -76.286159 
L 354.864429 -78.348643 
L 352.262589 -80.482893 
L 349.660749 -82.687655 
L 347.058909 -84.9615 
L 344.457069 -87.302853 
L 341.855229 -89.709995 
L 339.253389 -92.181064 
L 336.651548 -94.714024 
L 334.049708 -97.306624 
L 331.447868 -99.956336 
L 328.846028 -102.660288 
L 326.244188 -105.415179 
L 323.642348 -108.2172 
L 321.040508 -111.06195 
L 318.438668 -113.944363 
L 315.836827 -116.858645 
L 313.234987 -119.798225 
L 310.633147 -122.755727 
L 308.031307 -125.722945 
L 305.429467 -128.69085 
L 302.827627 -131.649599 
L 300.225787 -134.588561 
L 297.623947 -137.496344 
L 295.022106 -140.360842 
L 292.420266 -143.169278 
L 289.818426 -145.908253 
L 287.216586 -148.563812 
L 284.614746 -151.121509 
L 282.012906 -153.566499 
L 279.411066 -155.883632 
L 276.809226 -158.057587 
L 274.207385 -160.073018 
L 271.605545 -161.914734 
L 269.003705 -163.567907 
L 266.401865 -165.018299 
L 263.800025 -166.252521 
L 261.198185 -167.258293 
L 258.596345 -168.024717 
L 255.994505 -168.542543 
L 253.392664 -168.804409 
L 250.790824 -168.805057 
L 248.188984 -168.541507 
L 245.587144 -168.013173 
L 242.985304 -167.221926 
L 240.383464 -166.172093 
L 237.781624 -164.870383 
L 235.179784 -163.325765 
L 232.577943 -161.549279 
L 229.976103 -159.553803 
L 227.374263 -157.353789 
L 224.772423 -154.964962 
L 222.170583 -152.404024 
L 219.568743 -149.688345 
L 216.966903 -146.835675 
L 214.365063 -143.863873 
L 211.763222 -140.790664 
L 209.161382 -137.633433 
L 206.559542 -134.409056 
L 203.957702 -131.133758 
L 201.355862 -127.823017 
L 198.754022 -124.491494 
L 196.152182 -121.152988 
L 193.550342 -117.820421 
L 190.948501 -114.505829 
L 188.346661 -111.220376 
L 185.744821 -107.974366 
L 183.142981 -104.777258 
L 180.541141 -101.637683 
L 177.939301 -98.563446 
L 175.337461 -95.561525 
L 172.735621 -92.638059 
L 170.13378 -89.798318 
L 167.53194 -87.046679 
L 164.9301 -84.386579 
L 162.32826 -81.820485 
L 159.72642 -79.349858 
L 157.12458 -76.975135 
L 154.52274 -74.695738 
L 151.9209 -72.510102 
L 149.319059 -70.415744 
L 146.717219 -68.409367 
L 144.115379 -66.487005 
L 141.513539 -64.644198 
L 138.911699 -62.876204 
L 136.309859 -61.178218 
L 133.708019 -59.545609 
L 131.106179 -57.974143 
L 128.504339 -56.460182 
L 125.902498 -55.000848 
L 123.300658 -53.594139 
L 120.698818 -52.238986 
L 118.096978 -50.935242 
L 115.495138 -49.683625 
L 112.893298 -48.485584 
L 110.291458 -47.343132 
L 107.689618 -46.258639 
L 105.087777 -45.234608 
L 102.485937 -44.273442 
L 99.884097 -43.377231 
L 97.282257 -42.547556 
L 94.680417 -41.785345 
L 92.078577 -41.090756 
L 89.476737 -40.463126 
L 86.874897 -39.900959 
L 84.273056 -39.401965 
L 81.671216 -38.963139 
L 79.069376 -38.580865 
L 76.467536 -38.251049 
L 73.865696 -37.969259 
L 71.263856 -37.73087 
L 68.662016 -37.531199 
L 66.060176 -37.36563 
L 63.458335 -37.229721 
L 60.856495 -37.119287 
L 58.254655 -37.030464 
L 55.652815 -36.959749 
L 53.050975 -36.904028 
L 50.449135 -36.860568 
L 47.847295 -36.827021 
L 45.245455 -36.801389 
z
" style="stroke: #dd8452"/>
    </defs>
    <g>
     <use xlink:href="#meee0679c51" x="0" y="265.689687" style="fill: #dd8452; fill-opacity: 0.25; stroke: #dd8452"/>
    </g>
   </g>
   <g id="FillBetweenPolyCollection_2">
    <defs>
     <path id="m67a44dc6bb" d="M 388.87555 -36.78375 
L 388.87555 -36.729688 
L 390.972429 -36.729688 
L 393.069309 -36.729688 
L 395.166188 -36.729688 
L 397.263068 -36.729688 
L 399.359947 -36.729688 
L 401.456826 -36.729688 
L 403.553706 -36.729688 
L 405.650585 -36.729688 
L 407.747464 -36.729688 
L 409.844344 -36.729688 
L 411.941223 -36.729688 
L 414.038103 -36.729688 
L 416.134982 -36.729688 
L 418.231861 -36.729688 
L 420.328741 -36.729688 
L 422.42562 -36.729688 
L 424.522499 -36.729688 
L 426.619379 -36.729688 
L 428.716258 -36.729688 
L 430.813138 -36.729688 
L 432.910017 -36.729688 
L 435.006896 -36.729688 
L 437.103776 -36.729688 
L 439.200655 -36.729688 
L 441.297534 -36.729688 
L 443.394414 -36.729688 
L 445.491293 -36.729688 
L 447.588173 -36.729688 
L 449.685052 -36.729688 
L 451.781931 -36.729688 
L 453.878811 -36.729688 
L 455.97569 -36.729688 
L 458.072569 -36.729688 
L 460.169449 -36.729688 
L 462.266328 -36.729688 
L 464.363207 -36.729688 
L 466.460087 -36.729688 
L 468.556966 -36.729688 
L 470.653846 -36.729688 
L 472.750725 -36.729688 
L 474.847604 -36.729688 
L 476.944484 -36.729688 
L 479.041363 -36.729688 
L 481.138242 -36.729688 
L 483.235122 -36.729688 
L 485.332001 -36.729688 
L 487.428881 -36.729688 
L 489.52576 -36.729688 
L 491.622639 -36.729688 
L 493.719519 -36.729688 
L 495.816398 -36.729688 
L 497.913277 -36.729688 
L 500.010157 -36.729688 
L 502.107036 -36.729688 
L 504.203916 -36.729688 
L 506.300795 -36.729688 
L 508.397674 -36.729688 
L 510.494554 -36.729688 
L 512.591433 -36.729688 
L 514.688312 -36.729688 
L 516.785192 -36.729688 
L 518.882071 -36.729688 
L 520.978951 -36.729688 
L 523.07583 -36.729688 
L 525.172709 -36.729688 
L 527.269589 -36.729688 
L 529.366468 -36.729688 
L 531.463347 -36.729688 
L 533.560227 -36.729688 
L 535.657106 -36.729688 
L 537.753986 -36.729688 
L 539.850865 -36.729688 
L 541.947744 -36.729688 
L 544.044624 -36.729688 
L 546.141503 -36.729688 
L 548.238382 -36.729688 
L 550.335262 -36.729688 
L 552.432141 -36.729688 
L 554.529021 -36.729688 
L 556.6259 -36.729688 
L 558.722779 -36.729688 
L 560.819659 -36.729688 
L 562.916538 -36.729688 
L 565.013417 -36.729688 
L 567.110297 -36.729688 
L 569.207176 -36.729688 
L 571.304056 -36.729688 
L 573.400935 -36.729688 
L 575.497814 -36.729688 
L 577.594694 -36.729688 
L 579.691573 -36.729688 
L 581.788452 -36.729688 
L 583.885332 -36.729688 
L 585.982211 -36.729688 
L 588.079091 -36.729688 
L 590.17597 -36.729688 
L 592.272849 -36.729688 
L 594.369729 -36.729688 
L 596.466608 -36.729688 
L 598.563487 -36.729688 
L 600.660367 -36.729688 
L 602.757246 -36.729688 
L 604.854126 -36.729688 
L 606.951005 -36.729688 
L 609.047884 -36.729688 
L 611.144764 -36.729688 
L 613.241643 -36.729688 
L 615.338522 -36.729688 
L 617.435402 -36.729688 
L 619.532281 -36.729688 
L 621.629161 -36.729688 
L 623.72604 -36.729688 
L 625.822919 -36.729688 
L 627.919799 -36.729688 
L 630.016678 -36.729688 
L 632.113557 -36.729688 
L 634.210437 -36.729688 
L 636.307316 -36.729688 
L 638.404196 -36.729688 
L 640.501075 -36.729688 
L 642.597954 -36.729688 
L 644.694834 -36.729688 
L 646.791713 -36.729688 
L 648.888592 -36.729688 
L 650.985472 -36.729688 
L 653.082351 -36.729688 
L 655.179231 -36.729688 
L 657.27611 -36.729688 
L 659.372989 -36.729688 
L 661.469869 -36.729688 
L 663.566748 -36.729688 
L 665.663627 -36.729688 
L 667.760507 -36.729688 
L 669.857386 -36.729688 
L 671.954266 -36.729688 
L 674.051145 -36.729688 
L 676.148024 -36.729688 
L 678.244904 -36.729688 
L 680.341783 -36.729688 
L 682.438662 -36.729688 
L 684.535542 -36.729688 
L 686.632421 -36.729688 
L 688.729301 -36.729688 
L 690.82618 -36.729688 
L 692.923059 -36.729688 
L 695.019939 -36.729688 
L 697.116818 -36.729688 
L 699.213697 -36.729688 
L 701.310577 -36.729688 
L 703.407456 -36.729688 
L 705.504336 -36.729688 
L 707.601215 -36.729688 
L 709.698094 -36.729688 
L 711.794974 -36.729688 
L 713.891853 -36.729688 
L 715.988732 -36.729688 
L 718.085612 -36.729688 
L 720.182491 -36.729688 
L 722.27937 -36.729688 
L 724.37625 -36.729688 
L 726.473129 -36.729688 
L 728.570009 -36.729688 
L 730.666888 -36.729688 
L 732.763767 -36.729688 
L 734.860647 -36.729688 
L 736.957526 -36.729688 
L 739.054405 -36.729688 
L 741.151285 -36.729688 
L 743.248164 -36.729688 
L 745.345044 -36.729688 
L 747.441923 -36.729688 
L 749.538802 -36.729688 
L 751.635682 -36.729688 
L 753.732561 -36.729688 
L 755.82944 -36.729688 
L 757.92632 -36.729688 
L 760.023199 -36.729688 
L 762.120079 -36.729688 
L 764.216958 -36.729688 
L 766.313837 -36.729688 
L 768.410717 -36.729688 
L 770.507596 -36.729688 
L 772.604475 -36.729688 
L 774.701355 -36.729688 
L 776.798234 -36.729688 
L 778.895114 -36.729688 
L 780.991993 -36.729688 
L 783.088872 -36.729688 
L 785.185752 -36.729688 
L 787.282631 -36.729688 
L 789.37951 -36.729688 
L 791.47639 -36.729688 
L 793.573269 -36.729688 
L 795.670149 -36.729688 
L 797.767028 -36.729688 
L 799.863907 -36.729688 
L 801.960787 -36.729688 
L 804.057666 -36.729688 
L 806.154545 -36.729688 
L 806.154545 -36.7846 
L 806.154545 -36.7846 
L 804.057666 -36.808101 
L 801.960787 -36.840028 
L 799.863907 -36.882692 
L 797.767028 -36.938761 
L 795.670149 -37.011216 
L 793.573269 -37.103257 
L 791.47639 -37.218168 
L 789.37951 -37.35912 
L 787.282631 -37.528928 
L 785.185752 -37.729762 
L 783.088872 -37.96283 
L 780.991993 -38.228064 
L 778.895114 -38.523823 
L 776.798234 -38.846665 
L 774.701355 -39.191211 
L 772.604475 -39.550141 
L 770.507596 -39.914337 
L 768.410717 -40.273189 
L 766.313837 -40.615067 
L 764.216958 -40.927912 
L 762.120079 -41.199946 
L 760.023199 -41.420401 
L 757.92632 -41.580252 
L 755.82944 -41.67285 
L 753.732561 -41.69442 
L 751.635682 -41.644373 
L 749.538802 -41.525397 
L 747.441923 -41.34333 
L 745.345044 -41.106829 
L 743.248164 -40.826866 
L 741.151285 -40.516116 
L 739.054405 -40.188285 
L 736.957526 -39.857446 
L 734.860647 -39.537436 
L 732.763767 -39.24135 
L 730.666888 -38.981165 
L 728.570009 -38.767496 
L 726.473129 -38.609474 
L 724.37625 -38.514725 
L 722.27937 -38.489426 
L 720.182491 -38.538402 
L 718.085612 -38.665239 
L 715.988732 -38.872404 
L 713.891853 -39.161344 
L 711.794974 -39.532597 
L 709.698094 -39.985895 
L 707.601215 -40.520298 
L 705.504336 -41.134373 
L 703.407456 -41.826419 
L 701.310577 -42.594759 
L 699.213697 -43.438081 
L 697.116818 -44.355822 
L 695.019939 -45.34855 
L 692.923059 -46.418325 
L 690.82618 -47.568997 
L 688.729301 -48.806391 
L 686.632421 -50.138373 
L 684.535542 -51.574765 
L 682.438662 -53.127114 
L 680.341783 -54.808328 
L 678.244904 -56.632202 
L 676.148024 -58.612883 
L 674.051145 -60.764291 
L 671.954266 -63.099571 
L 669.857386 -65.630582 
L 667.760507 -68.367467 
L 665.663627 -71.318328 
L 663.566748 -74.488999 
L 661.469869 -77.882928 
L 659.372989 -81.501155 
L 657.27611 -85.342386 
L 655.179231 -89.40313 
L 653.082351 -93.677911 
L 650.985472 -98.159526 
L 648.888592 -102.839346 
L 646.791713 -107.707638 
L 644.694834 -112.753899 
L 642.597954 -117.967171 
L 640.501075 -123.336306 
L 638.404196 -128.850151 
L 636.307316 -134.497612 
L 634.210437 -140.267564 
L 632.113557 -146.148598 
L 630.016678 -152.12858 
L 627.919799 -158.194054 
L 625.822919 -164.329521 
L 623.72604 -170.516654 
L 621.629161 -176.733534 
L 619.532281 -182.95398 
L 617.435402 -189.14707 
L 615.338522 -195.276919 
L 613.241643 -201.302762 
L 611.144764 -207.179371 
L 609.047884 -212.857776 
L 606.951005 -218.286267 
L 604.854126 -223.411585 
L 602.757246 -228.180229 
L 600.660367 -232.539776 
L 598.563487 -236.440137 
L 596.466608 -239.834672 
L 594.369729 -242.681113 
L 592.272849 -244.942306 
L 590.17597 -246.586738 
L 588.079091 -247.588928 
L 585.982211 -247.929688 
L 583.885332 -247.596338 
L 581.788452 -246.5829 
L 579.691573 -244.890298 
L 577.594694 -242.526597 
L 575.497814 -239.507245 
L 573.400935 -235.855287 
L 571.304056 -231.601512 
L 569.207176 -226.784456 
L 567.110297 -221.450203 
L 565.013417 -215.651942 
L 562.916538 -209.449223 
L 560.819659 -202.906916 
L 558.722779 -196.093884 
L 556.6259 -189.081407 
L 554.529021 -181.941422 
L 552.432141 -174.744678 
L 550.335262 -167.558885 
L 548.238382 -160.446976 
L 546.141503 -153.465572 
L 544.044624 -146.663736 
L 541.947744 -140.082091 
L 539.850865 -133.752329 
L 537.753986 -127.697141 
L 535.657106 -121.930549 
L 533.560227 -116.458595 
L 531.463347 -111.280338 
L 529.366468 -106.389057 
L 527.269589 -101.773588 
L 525.172709 -97.419687 
L 523.07583 -93.311337 
L 520.978951 -89.431905 
L 518.882071 -85.765116 
L 516.785192 -82.29577 
L 514.688312 -79.010224 
L 512.591433 -75.896623 
L 510.494554 -72.944928 
L 508.397674 -70.146778 
L 506.300795 -67.495256 
L 504.203916 -64.984605 
L 502.107036 -62.609952 
L 500.010157 -60.367093 
L 497.913277 -58.252346 
L 495.816398 -56.262498 
L 493.719519 -54.394824 
L 491.622639 -52.647171 
L 489.52576 -51.018052 
L 487.428881 -49.506729 
L 485.332001 -48.113247 
L 483.235122 -46.838379 
L 481.138242 -45.683481 
L 479.041363 -44.650229 
L 476.944484 -43.740275 
L 474.847604 -42.954812 
L 472.750725 -42.294109 
L 470.653846 -41.757024 
L 468.556966 -41.34057 
L 466.460087 -41.039543 
L 464.363207 -40.84628 
L 462.266328 -40.750555 
L 460.169449 -40.73965 
L 458.072569 -40.798611 
L 455.97569 -40.910677 
L 453.878811 -41.05788 
L 451.781931 -41.221767 
L 449.685052 -41.384215 
L 447.588173 -41.528266 
L 445.491293 -41.638937 
L 443.394414 -41.703925 
L 441.297534 -41.714159 
L 439.200655 -41.664151 
L 437.103776 -41.552109 
L 435.006896 -41.379818 
L 432.910017 -41.152286 
L 430.813138 -40.8772 
L 428.716258 -40.564244 
L 426.619379 -40.224336 
L 424.522499 -39.868841 
L 422.42562 -39.508854 
L 420.328741 -39.154565 
L 418.231861 -38.814776 
L 416.134982 -38.496574 
L 414.038103 -38.205176 
L 411.941223 -37.943917 
L 409.844344 -37.714379 
L 407.747464 -37.51661 
L 405.650585 -37.349405 
L 403.553706 -37.210621 
L 401.456826 -37.097482 
L 399.359947 -37.006861 
L 397.263068 -36.935526 
L 395.166188 -36.880324 
L 393.069309 -36.838319 
L 390.972429 -36.806887 
L 388.87555 -36.78375 
z
" style="stroke: #4c72b0"/>
    </defs>
    <g>
     <use xlink:href="#m67a44dc6bb" x="0" y="265.689687" style="fill: #4c72b0; fill-opacity: 0.25; stroke: #4c72b0"/>
    </g>
   </g>
   <g id="line2d_40">
    <path d="M 307.096012 228.96 
L 307.096012 7.2 
" style="fill: none; stroke-dasharray: 2.96,1.28; stroke-dashoffset: 0; stroke: #d3d3d3; stroke-width: 0.8"/>
   </g>
   <g id="line2d_41">
    <path d="M 494.085286 228.96 
L 494.085286 7.2 
" style="fill: none; stroke-dasharray: 2.96,1.28; stroke-dashoffset: 0; stroke: #d3d3d3; stroke-width: 0.8"/>
   </g>
   <g id="line2d_42">
    <path d="M 421.986141 228.96 
L 421.986141 7.2 
" style="fill: none; stroke-dasharray: 2.96,1.28; stroke-dashoffset: 0; stroke: #d3d3d3; stroke-width: 0.8"/>
   </g>
   <g id="line2d_43">
    <path d="M 7.2 228.96 
L 844.2 228.96 
" style="fill: none; stroke: #808080; stroke-width: 0.5; stroke-linecap: round"/>
   </g>
   <g id="text_12">
    <text style="font-size: 8px; font-family: 'Arial', 'DejaVu Sans', 'Liberation Sans', 'Bitstream Vera Sans', sans-serif; fill: #808080" transform="translate(313.349762 124.59635) rotate(-90)">International Poverty Line: $2.15</text>
   </g>
   <g id="text_13">
    <text style="font-size: 8px; font-family: 'Arial', 'DejaVu Sans', 'Liberation Sans', 'Bitstream Vera Sans', sans-serif; fill: #808080" transform="translate(499.811536 81.31135) rotate(-90)">World mean: $19.18</text>
   </g>
   <g id="text_14">
    <text style="font-size: 8px; font-family: 'Arial', 'DejaVu Sans', 'Liberation Sans', 'Bitstream Vera Sans', sans-serif; fill: #808080" transform="translate(427.712391 83.08885) rotate(-90)">World median: $8.25</text>
   </g>
   <g id="text_15">
    <text style="font-size: 10px; font-family: 'Arial', 'DejaVu Sans', 'Liberation Sans', 'Bitstream Vera Sans', sans-serif; text-anchor: middle" x="587.268782" y="226.855312" transform="rotate(-0 587.268782 226.855312)">Denmark (2021)</text>
   </g>
   <g id="text_16">
    <text style="font-size: 10px; font-family: 'Arial', 'DejaVu Sans', 'Liberation Sans', 'Bitstream Vera Sans', sans-serif; text-anchor: middle" x="255.970112" y="226.855312" transform="rotate(-0 255.970112 226.855312)">Democratic Republic of Congo (2020)</text>
   </g>
  </g>
 </g>
</svg>
