<?xml version="1.0" encoding="utf-8" standalone="no"?>
<!DOCTYPE svg PUBLIC "-//W3C//DTD SVG 1.1//EN"
  "http://www.w3.org/Graphics/SVG/1.1/DTD/svg11.dtd">
<svg xmlns:xlink="http://www.w3.org/1999/xlink" width="1080pt" height="288pt" viewBox="0 0 1080 288" xmlns="http://www.w3.org/2000/svg" version="1.1">
 <metadata>
  <rdf:RDF xmlns:dc="http://purl.org/dc/elements/1.1/" xmlns:cc="http://creativecommons.org/ns#" xmlns:rdf="http://www.w3.org/1999/02/22-rdf-syntax-ns#">
   <cc:Work>
    <dc:type rdf:resource="http://purl.org/dc/dcmitype/StillImage"/>
    <dc:date>2025-04-04T17:23:26.075736</dc:date>
    <dc:format>image/svg+xml</dc:format>
    <dc:creator>
     <cc:Agent>
      <dc:title>Matplotlib v3.10.1, https://matplotlib.org/</dc:title>
     </cc:Agent>
    </dc:creator>
   </cc:Work>
  </rdf:RDF>
 </metadata>
 <defs>
  <style type="text/css">*{stroke-linejoin: round; stroke-linecap: butt}</style>
 </defs>
 <g id="figure_1">
  <g id="patch_1">
   <path d="M 0 288 
L 1080 288 
L 1080 0 
L 0 0 
z
" style="fill: #ffffff"/>
  </g>
  <g id="axes_1">
   <g id="patch_2">
    <path d="M 135 256.32 
L 972 256.32 
L 972 34.56 
L 135 34.56 
z
" style="fill: #ffffff"/>
   </g>
   <g id="matplotlib.axis_1">
    <g id="xtick_1">
     <g id="line2d_1">
      <defs>
       <path id="md03fd2cacb" d="M 0 0 
L 0 3.5 
" style="stroke: #262626; stroke-width: 0.8"/>
      </defs>
      <g>
       <use xlink:href="#md03fd2cacb" x="326.780033" y="256.32" style="fill: #262626; stroke: #262626; stroke-width: 0.8"/>
      </g>
     </g>
     <g id="text_1">
      <!-- 1 -->
      <g style="fill: #262626" transform="translate(323.999565 270.477813) scale(0.1 -0.1)">
       <defs>
        <path id="ArialMT-31" d="M 2384 0 
L 1822 0 
L 1822 3584 
Q 1619 3391 1289 3197 
Q 959 3003 697 2906 
L 697 3450 
Q 1169 3672 1522 3987 
Q 1875 4303 2022 4600 
L 2384 4600 
L 2384 0 
z
" transform="scale(0.015625)"/>
       </defs>
       <use xlink:href="#ArialMT-31"/>
      </g>
     </g>
    </g>
    <g id="xtick_2">
     <g id="line2d_2">
      <g>
       <use xlink:href="#md03fd2cacb" x="386.94023" y="256.32" style="fill: #262626; stroke: #262626; stroke-width: 0.8"/>
      </g>
     </g>
     <g id="text_2">
      <!-- 2 -->
      <g style="fill: #262626" transform="translate(384.159762 270.477813) scale(0.1 -0.1)">
       <defs>
        <path id="ArialMT-32" d="M 3222 541 
L 3222 0 
L 194 0 
Q 188 203 259 391 
Q 375 700 629 1000 
Q 884 1300 1366 1694 
Q 2113 2306 2375 2664 
Q 2638 3022 2638 3341 
Q 2638 3675 2398 3904 
Q 2159 4134 1775 4134 
Q 1369 4134 1125 3890 
Q 881 3647 878 3216 
L 300 3275 
Q 359 3922 746 4261 
Q 1134 4600 1788 4600 
Q 2447 4600 2831 4234 
Q 3216 3869 3216 3328 
Q 3216 3053 3103 2787 
Q 2991 2522 2730 2228 
Q 2469 1934 1863 1422 
Q 1356 997 1212 845 
Q 1069 694 975 541 
L 3222 541 
z
" transform="scale(0.015625)"/>
       </defs>
       <use xlink:href="#ArialMT-32"/>
      </g>
     </g>
    </g>
    <g id="xtick_3">
     <g id="line2d_3">
      <g>
       <use xlink:href="#md03fd2cacb" x="466.467685" y="256.32" style="fill: #262626; stroke: #262626; stroke-width: 0.8"/>
      </g>
     </g>
     <g id="text_3">
      <!-- 5 -->
      <g style="fill: #262626" transform="translate(463.687216 270.477813) scale(0.1 -0.1)">
       <defs>
        <path id="ArialMT-35" d="M 266 1200 
L 856 1250 
Q 922 819 1161 601 
Q 1400 384 1738 384 
Q 2144 384 2425 690 
Q 2706 997 2706 1503 
Q 2706 1984 2436 2262 
Q 2166 2541 1728 2541 
Q 1456 2541 1237 2417 
Q 1019 2294 894 2097 
L 366 2166 
L 809 4519 
L 3088 4519 
L 3088 3981 
L 1259 3981 
L 1013 2750 
Q 1425 3038 1878 3038 
Q 2478 3038 2890 2622 
Q 3303 2206 3303 1553 
Q 3303 931 2941 478 
Q 2500 -78 1738 -78 
Q 1113 -78 717 272 
Q 322 622 266 1200 
z
" transform="scale(0.015625)"/>
       </defs>
       <use xlink:href="#ArialMT-35"/>
      </g>
     </g>
    </g>
    <g id="xtick_4">
     <g id="line2d_4">
      <g>
       <use xlink:href="#md03fd2cacb" x="526.627882" y="256.32" style="fill: #262626; stroke: #262626; stroke-width: 0.8"/>
      </g>
     </g>
     <g id="text_4">
      <!-- 10 -->
      <g style="fill: #262626" transform="translate(521.066944 270.477813) scale(0.1 -0.1)">
       <defs>
        <path id="ArialMT-30" d="M 266 2259 
Q 266 3072 433 3567 
Q 600 4063 929 4331 
Q 1259 4600 1759 4600 
Q 2128 4600 2406 4451 
Q 2684 4303 2865 4023 
Q 3047 3744 3150 3342 
Q 3253 2941 3253 2259 
Q 3253 1453 3087 958 
Q 2922 463 2592 192 
Q 2263 -78 1759 -78 
Q 1097 -78 719 397 
Q 266 969 266 2259 
z
M 844 2259 
Q 844 1131 1108 757 
Q 1372 384 1759 384 
Q 2147 384 2411 759 
Q 2675 1134 2675 2259 
Q 2675 3391 2411 3762 
Q 2147 4134 1753 4134 
Q 1366 4134 1134 3806 
Q 844 3388 844 2259 
z
" transform="scale(0.015625)"/>
       </defs>
       <use xlink:href="#ArialMT-31"/>
       <use xlink:href="#ArialMT-30" transform="translate(55.615234 0)"/>
      </g>
     </g>
    </g>
    <g id="xtick_5">
     <g id="line2d_5">
      <g>
       <use xlink:href="#md03fd2cacb" x="586.788079" y="256.32" style="fill: #262626; stroke: #262626; stroke-width: 0.8"/>
      </g>
     </g>
     <g id="text_5">
      <!-- 20 -->
      <g style="fill: #262626" transform="translate(581.227141 270.477813) scale(0.1 -0.1)">
       <use xlink:href="#ArialMT-32"/>
       <use xlink:href="#ArialMT-30" transform="translate(55.615234 0)"/>
      </g>
     </g>
    </g>
    <g id="xtick_6">
     <g id="line2d_6">
      <g>
       <use xlink:href="#md03fd2cacb" x="666.315534" y="256.32" style="fill: #262626; stroke: #262626; stroke-width: 0.8"/>
      </g>
     </g>
     <g id="text_6">
      <!-- 50 -->
      <g style="fill: #262626" transform="translate(660.754596 270.477813) scale(0.1 -0.1)">
       <use xlink:href="#ArialMT-35"/>
       <use xlink:href="#ArialMT-30" transform="translate(55.615234 0)"/>
      </g>
     </g>
    </g>
    <g id="xtick_7">
     <g id="line2d_7">
      <g>
       <use xlink:href="#md03fd2cacb" x="726.47573" y="256.32" style="fill: #262626; stroke: #262626; stroke-width: 0.8"/>
      </g>
     </g>
     <g id="text_7">
      <!-- 100 -->
      <g style="fill: #262626" transform="translate(718.134324 270.477813) scale(0.1 -0.1)">
       <use xlink:href="#ArialMT-31"/>
       <use xlink:href="#ArialMT-30" transform="translate(55.615234 0)"/>
       <use xlink:href="#ArialMT-30" transform="translate(111.230469 0)"/>
      </g>
     </g>
    </g>
    <g id="xtick_8">
     <g id="line2d_8">
      <g>
       <use xlink:href="#md03fd2cacb" x="786.635927" y="256.32" style="fill: #262626; stroke: #262626; stroke-width: 0.8"/>
      </g>
     </g>
     <g id="text_8">
      <!-- 200 -->
      <g style="fill: #262626" transform="translate(778.294521 270.477813) scale(0.1 -0.1)">
       <use xlink:href="#ArialMT-32"/>
       <use xlink:href="#ArialMT-30" transform="translate(55.615234 0)"/>
       <use xlink:href="#ArialMT-30" transform="translate(111.230469 0)"/>
      </g>
     </g>
    </g>
    <g id="xtick_9">
     <g id="line2d_9">
      <g>
       <use xlink:href="#md03fd2cacb" x="866.163382" y="256.32" style="fill: #262626; stroke: #262626; stroke-width: 0.8"/>
      </g>
     </g>
     <g id="text_9">
      <!-- 500 -->
      <g style="fill: #262626" transform="translate(857.821976 270.477813) scale(0.1 -0.1)">
       <use xlink:href="#ArialMT-35"/>
       <use xlink:href="#ArialMT-30" transform="translate(55.615234 0)"/>
       <use xlink:href="#ArialMT-30" transform="translate(111.230469 0)"/>
      </g>
     </g>
    </g>
    <g id="xtick_10">
     <g id="line2d_10">
      <g>
       <use xlink:href="#md03fd2cacb" x="926.323579" y="256.32" style="fill: #262626; stroke: #262626; stroke-width: 0.8"/>
      </g>
     </g>
     <g id="text_10">
      <!-- 1000 -->
      <g style="fill: #262626" transform="translate(915.201704 270.477813) scale(0.1 -0.1)">
       <use xlink:href="#ArialMT-31"/>
       <use xlink:href="#ArialMT-30" transform="translate(55.615234 0)"/>
       <use xlink:href="#ArialMT-30" transform="translate(111.230469 0)"/>
       <use xlink:href="#ArialMT-30" transform="translate(166.845703 0)"/>
      </g>
     </g>
    </g>
    <g id="xtick_11">
     <g id="line2d_11">
      <defs>
       <path id="mf613e44e82" d="M 0 0 
L 0 2 
" style="stroke: #262626; stroke-width: 0.6"/>
      </defs>
      <g>
       <use xlink:href="#mf613e44e82" x="187.092382" y="256.32" style="fill: #262626; stroke: #262626; stroke-width: 0.6"/>
      </g>
     </g>
    </g>
    <g id="xtick_12">
     <g id="line2d_12">
      <g>
       <use xlink:href="#mf613e44e82" x="222.283841" y="256.32" style="fill: #262626; stroke: #262626; stroke-width: 0.6"/>
      </g>
     </g>
    </g>
    <g id="xtick_13">
     <g id="line2d_13">
      <g>
       <use xlink:href="#mf613e44e82" x="247.252579" y="256.32" style="fill: #262626; stroke: #262626; stroke-width: 0.6"/>
      </g>
     </g>
    </g>
    <g id="xtick_14">
     <g id="line2d_14">
      <g>
       <use xlink:href="#mf613e44e82" x="266.619836" y="256.32" style="fill: #262626; stroke: #262626; stroke-width: 0.6"/>
      </g>
     </g>
    </g>
    <g id="xtick_15">
     <g id="line2d_15">
      <g>
       <use xlink:href="#mf613e44e82" x="282.444038" y="256.32" style="fill: #262626; stroke: #262626; stroke-width: 0.6"/>
      </g>
     </g>
    </g>
    <g id="xtick_16">
     <g id="line2d_16">
      <g>
       <use xlink:href="#mf613e44e82" x="295.82321" y="256.32" style="fill: #262626; stroke: #262626; stroke-width: 0.6"/>
      </g>
     </g>
    </g>
    <g id="xtick_17">
     <g id="line2d_17">
      <g>
       <use xlink:href="#mf613e44e82" x="307.412776" y="256.32" style="fill: #262626; stroke: #262626; stroke-width: 0.6"/>
      </g>
     </g>
    </g>
    <g id="xtick_18">
     <g id="line2d_18">
      <g>
       <use xlink:href="#mf613e44e82" x="317.635497" y="256.32" style="fill: #262626; stroke: #262626; stroke-width: 0.6"/>
      </g>
     </g>
    </g>
    <g id="xtick_19">
     <g id="line2d_19">
      <g>
       <use xlink:href="#mf613e44e82" x="422.13169" y="256.32" style="fill: #262626; stroke: #262626; stroke-width: 0.6"/>
      </g>
     </g>
    </g>
    <g id="xtick_20">
     <g id="line2d_20">
      <g>
       <use xlink:href="#mf613e44e82" x="447.100427" y="256.32" style="fill: #262626; stroke: #262626; stroke-width: 0.6"/>
      </g>
     </g>
    </g>
    <g id="xtick_21">
     <g id="line2d_21">
      <g>
       <use xlink:href="#mf613e44e82" x="482.291887" y="256.32" style="fill: #262626; stroke: #262626; stroke-width: 0.6"/>
      </g>
     </g>
    </g>
    <g id="xtick_22">
     <g id="line2d_22">
      <g>
       <use xlink:href="#mf613e44e82" x="495.671058" y="256.32" style="fill: #262626; stroke: #262626; stroke-width: 0.6"/>
      </g>
     </g>
    </g>
    <g id="xtick_23">
     <g id="line2d_23">
      <g>
       <use xlink:href="#mf613e44e82" x="507.260624" y="256.32" style="fill: #262626; stroke: #262626; stroke-width: 0.6"/>
      </g>
     </g>
    </g>
    <g id="xtick_24">
     <g id="line2d_24">
      <g>
       <use xlink:href="#mf613e44e82" x="517.483346" y="256.32" style="fill: #262626; stroke: #262626; stroke-width: 0.6"/>
      </g>
     </g>
    </g>
    <g id="xtick_25">
     <g id="line2d_25">
      <g>
       <use xlink:href="#mf613e44e82" x="621.979538" y="256.32" style="fill: #262626; stroke: #262626; stroke-width: 0.6"/>
      </g>
     </g>
    </g>
    <g id="xtick_26">
     <g id="line2d_26">
      <g>
       <use xlink:href="#mf613e44e82" x="646.948276" y="256.32" style="fill: #262626; stroke: #262626; stroke-width: 0.6"/>
      </g>
     </g>
    </g>
    <g id="xtick_27">
     <g id="line2d_27">
      <g>
       <use xlink:href="#mf613e44e82" x="682.139735" y="256.32" style="fill: #262626; stroke: #262626; stroke-width: 0.6"/>
      </g>
     </g>
    </g>
    <g id="xtick_28">
     <g id="line2d_28">
      <g>
       <use xlink:href="#mf613e44e82" x="695.518907" y="256.32" style="fill: #262626; stroke: #262626; stroke-width: 0.6"/>
      </g>
     </g>
    </g>
    <g id="xtick_29">
     <g id="line2d_29">
      <g>
       <use xlink:href="#mf613e44e82" x="707.108473" y="256.32" style="fill: #262626; stroke: #262626; stroke-width: 0.6"/>
      </g>
     </g>
    </g>
    <g id="xtick_30">
     <g id="line2d_30">
      <g>
       <use xlink:href="#mf613e44e82" x="717.331194" y="256.32" style="fill: #262626; stroke: #262626; stroke-width: 0.6"/>
      </g>
     </g>
    </g>
    <g id="xtick_31">
     <g id="line2d_31">
      <g>
       <use xlink:href="#mf613e44e82" x="821.827387" y="256.32" style="fill: #262626; stroke: #262626; stroke-width: 0.6"/>
      </g>
     </g>
    </g>
    <g id="xtick_32">
     <g id="line2d_32">
      <g>
       <use xlink:href="#mf613e44e82" x="846.796124" y="256.32" style="fill: #262626; stroke: #262626; stroke-width: 0.6"/>
      </g>
     </g>
    </g>
    <g id="xtick_33">
     <g id="line2d_33">
      <g>
       <use xlink:href="#mf613e44e82" x="881.987584" y="256.32" style="fill: #262626; stroke: #262626; stroke-width: 0.6"/>
      </g>
     </g>
    </g>
    <g id="xtick_34">
     <g id="line2d_34">
      <g>
       <use xlink:href="#mf613e44e82" x="895.366756" y="256.32" style="fill: #262626; stroke: #262626; stroke-width: 0.6"/>
      </g>
     </g>
    </g>
    <g id="xtick_35">
     <g id="line2d_35">
      <g>
       <use xlink:href="#mf613e44e82" x="906.956321" y="256.32" style="fill: #262626; stroke: #262626; stroke-width: 0.6"/>
      </g>
     </g>
    </g>
    <g id="xtick_36">
     <g id="line2d_36">
      <g>
       <use xlink:href="#mf613e44e82" x="917.179043" y="256.32" style="fill: #262626; stroke: #262626; stroke-width: 0.6"/>
      </g>
     </g>
    </g>
    <g id="text_11">
     <!-- Income or consumption (day) -->
     <g style="fill: #262626" transform="translate(488.753906 283.745) scale(0.1 -0.1)">
      <defs>
       <path id="ArialMT-49" d="M 597 0 
L 597 4581 
L 1203 4581 
L 1203 0 
L 597 0 
z
" transform="scale(0.015625)"/>
       <path id="ArialMT-6e" d="M 422 0 
L 422 3319 
L 928 3319 
L 928 2847 
Q 1294 3394 1984 3394 
Q 2284 3394 2536 3286 
Q 2788 3178 2913 3003 
Q 3038 2828 3088 2588 
Q 3119 2431 3119 2041 
L 3119 0 
L 2556 0 
L 2556 2019 
Q 2556 2363 2490 2533 
Q 2425 2703 2258 2804 
Q 2091 2906 1866 2906 
Q 1506 2906 1245 2678 
Q 984 2450 984 1813 
L 984 0 
L 422 0 
z
" transform="scale(0.015625)"/>
       <path id="ArialMT-63" d="M 2588 1216 
L 3141 1144 
Q 3050 572 2676 248 
Q 2303 -75 1759 -75 
Q 1078 -75 664 370 
Q 250 816 250 1647 
Q 250 2184 428 2587 
Q 606 2991 970 3192 
Q 1334 3394 1763 3394 
Q 2303 3394 2647 3120 
Q 2991 2847 3088 2344 
L 2541 2259 
Q 2463 2594 2264 2762 
Q 2066 2931 1784 2931 
Q 1359 2931 1093 2626 
Q 828 2322 828 1663 
Q 828 994 1084 691 
Q 1341 388 1753 388 
Q 2084 388 2306 591 
Q 2528 794 2588 1216 
z
" transform="scale(0.015625)"/>
       <path id="ArialMT-6f" d="M 213 1659 
Q 213 2581 725 3025 
Q 1153 3394 1769 3394 
Q 2453 3394 2887 2945 
Q 3322 2497 3322 1706 
Q 3322 1066 3130 698 
Q 2938 331 2570 128 
Q 2203 -75 1769 -75 
Q 1072 -75 642 372 
Q 213 819 213 1659 
z
M 791 1659 
Q 791 1022 1069 705 
Q 1347 388 1769 388 
Q 2188 388 2466 706 
Q 2744 1025 2744 1678 
Q 2744 2294 2464 2611 
Q 2184 2928 1769 2928 
Q 1347 2928 1069 2612 
Q 791 2297 791 1659 
z
" transform="scale(0.015625)"/>
       <path id="ArialMT-6d" d="M 422 0 
L 422 3319 
L 925 3319 
L 925 2853 
Q 1081 3097 1340 3245 
Q 1600 3394 1931 3394 
Q 2300 3394 2536 3241 
Q 2772 3088 2869 2813 
Q 3263 3394 3894 3394 
Q 4388 3394 4653 3120 
Q 4919 2847 4919 2278 
L 4919 0 
L 4359 0 
L 4359 2091 
Q 4359 2428 4304 2576 
Q 4250 2725 4106 2815 
Q 3963 2906 3769 2906 
Q 3419 2906 3187 2673 
Q 2956 2441 2956 1928 
L 2956 0 
L 2394 0 
L 2394 2156 
Q 2394 2531 2256 2718 
Q 2119 2906 1806 2906 
Q 1569 2906 1367 2781 
Q 1166 2656 1075 2415 
Q 984 2175 984 1722 
L 984 0 
L 422 0 
z
" transform="scale(0.015625)"/>
       <path id="ArialMT-65" d="M 2694 1069 
L 3275 997 
Q 3138 488 2766 206 
Q 2394 -75 1816 -75 
Q 1088 -75 661 373 
Q 234 822 234 1631 
Q 234 2469 665 2931 
Q 1097 3394 1784 3394 
Q 2450 3394 2872 2941 
Q 3294 2488 3294 1666 
Q 3294 1616 3291 1516 
L 816 1516 
Q 847 969 1125 678 
Q 1403 388 1819 388 
Q 2128 388 2347 550 
Q 2566 713 2694 1069 
z
M 847 1978 
L 2700 1978 
Q 2663 2397 2488 2606 
Q 2219 2931 1791 2931 
Q 1403 2931 1139 2672 
Q 875 2413 847 1978 
z
" transform="scale(0.015625)"/>
       <path id="ArialMT-20" transform="scale(0.015625)"/>
       <path id="ArialMT-72" d="M 416 0 
L 416 3319 
L 922 3319 
L 922 2816 
Q 1116 3169 1280 3281 
Q 1444 3394 1641 3394 
Q 1925 3394 2219 3213 
L 2025 2691 
Q 1819 2813 1613 2813 
Q 1428 2813 1281 2702 
Q 1134 2591 1072 2394 
Q 978 2094 978 1738 
L 978 0 
L 416 0 
z
" transform="scale(0.015625)"/>
       <path id="ArialMT-73" d="M 197 991 
L 753 1078 
Q 800 744 1014 566 
Q 1228 388 1613 388 
Q 2000 388 2187 545 
Q 2375 703 2375 916 
Q 2375 1106 2209 1216 
Q 2094 1291 1634 1406 
Q 1016 1563 777 1677 
Q 538 1791 414 1992 
Q 291 2194 291 2438 
Q 291 2659 392 2848 
Q 494 3038 669 3163 
Q 800 3259 1026 3326 
Q 1253 3394 1513 3394 
Q 1903 3394 2198 3281 
Q 2494 3169 2634 2976 
Q 2775 2784 2828 2463 
L 2278 2388 
Q 2241 2644 2061 2787 
Q 1881 2931 1553 2931 
Q 1166 2931 1000 2803 
Q 834 2675 834 2503 
Q 834 2394 903 2306 
Q 972 2216 1119 2156 
Q 1203 2125 1616 2013 
Q 2213 1853 2448 1751 
Q 2684 1650 2818 1456 
Q 2953 1263 2953 975 
Q 2953 694 2789 445 
Q 2625 197 2315 61 
Q 2006 -75 1616 -75 
Q 969 -75 630 194 
Q 291 463 197 991 
z
" transform="scale(0.015625)"/>
       <path id="ArialMT-75" d="M 2597 0 
L 2597 488 
Q 2209 -75 1544 -75 
Q 1250 -75 995 37 
Q 741 150 617 320 
Q 494 491 444 738 
Q 409 903 409 1263 
L 409 3319 
L 972 3319 
L 972 1478 
Q 972 1038 1006 884 
Q 1059 663 1231 536 
Q 1403 409 1656 409 
Q 1909 409 2131 539 
Q 2353 669 2445 892 
Q 2538 1116 2538 1541 
L 2538 3319 
L 3100 3319 
L 3100 0 
L 2597 0 
z
" transform="scale(0.015625)"/>
       <path id="ArialMT-70" d="M 422 -1272 
L 422 3319 
L 934 3319 
L 934 2888 
Q 1116 3141 1344 3267 
Q 1572 3394 1897 3394 
Q 2322 3394 2647 3175 
Q 2972 2956 3137 2557 
Q 3303 2159 3303 1684 
Q 3303 1175 3120 767 
Q 2938 359 2589 142 
Q 2241 -75 1856 -75 
Q 1575 -75 1351 44 
Q 1128 163 984 344 
L 984 -1272 
L 422 -1272 
z
M 931 1641 
Q 931 1000 1190 694 
Q 1450 388 1819 388 
Q 2194 388 2461 705 
Q 2728 1022 2728 1688 
Q 2728 2322 2467 2637 
Q 2206 2953 1844 2953 
Q 1484 2953 1207 2617 
Q 931 2281 931 1641 
z
" transform="scale(0.015625)"/>
       <path id="ArialMT-74" d="M 1650 503 
L 1731 6 
Q 1494 -44 1306 -44 
Q 1000 -44 831 53 
Q 663 150 594 308 
Q 525 466 525 972 
L 525 2881 
L 113 2881 
L 113 3319 
L 525 3319 
L 525 4141 
L 1084 4478 
L 1084 3319 
L 1650 3319 
L 1650 2881 
L 1084 2881 
L 1084 941 
Q 1084 700 1114 631 
Q 1144 563 1211 522 
Q 1278 481 1403 481 
Q 1497 481 1650 503 
z
" transform="scale(0.015625)"/>
       <path id="ArialMT-69" d="M 425 3934 
L 425 4581 
L 988 4581 
L 988 3934 
L 425 3934 
z
M 425 0 
L 425 3319 
L 988 3319 
L 988 0 
L 425 0 
z
" transform="scale(0.015625)"/>
       <path id="ArialMT-28" d="M 1497 -1347 
Q 1031 -759 709 28 
Q 388 816 388 1659 
Q 388 2403 628 3084 
Q 909 3875 1497 4659 
L 1900 4659 
Q 1522 4009 1400 3731 
Q 1209 3300 1100 2831 
Q 966 2247 966 1656 
Q 966 153 1900 -1347 
L 1497 -1347 
z
" transform="scale(0.015625)"/>
       <path id="ArialMT-64" d="M 2575 0 
L 2575 419 
Q 2259 -75 1647 -75 
Q 1250 -75 917 144 
Q 584 363 401 755 
Q 219 1147 219 1656 
Q 219 2153 384 2558 
Q 550 2963 881 3178 
Q 1213 3394 1622 3394 
Q 1922 3394 2156 3267 
Q 2391 3141 2538 2938 
L 2538 4581 
L 3097 4581 
L 3097 0 
L 2575 0 
z
M 797 1656 
Q 797 1019 1065 703 
Q 1334 388 1700 388 
Q 2069 388 2326 689 
Q 2584 991 2584 1609 
Q 2584 2291 2321 2609 
Q 2059 2928 1675 2928 
Q 1300 2928 1048 2622 
Q 797 2316 797 1656 
z
" transform="scale(0.015625)"/>
       <path id="ArialMT-61" d="M 2588 409 
Q 2275 144 1986 34 
Q 1697 -75 1366 -75 
Q 819 -75 525 192 
Q 231 459 231 875 
Q 231 1119 342 1320 
Q 453 1522 633 1644 
Q 813 1766 1038 1828 
Q 1203 1872 1538 1913 
Q 2219 1994 2541 2106 
Q 2544 2222 2544 2253 
Q 2544 2597 2384 2738 
Q 2169 2928 1744 2928 
Q 1347 2928 1158 2789 
Q 969 2650 878 2297 
L 328 2372 
Q 403 2725 575 2942 
Q 747 3159 1072 3276 
Q 1397 3394 1825 3394 
Q 2250 3394 2515 3294 
Q 2781 3194 2906 3042 
Q 3031 2891 3081 2659 
Q 3109 2516 3109 2141 
L 3109 1391 
Q 3109 606 3145 398 
Q 3181 191 3288 0 
L 2700 0 
Q 2613 175 2588 409 
z
M 2541 1666 
Q 2234 1541 1622 1453 
Q 1275 1403 1131 1340 
Q 988 1278 909 1158 
Q 831 1038 831 891 
Q 831 666 1001 516 
Q 1172 366 1500 366 
Q 1825 366 2078 508 
Q 2331 650 2450 897 
Q 2541 1088 2541 1459 
L 2541 1666 
z
" transform="scale(0.015625)"/>
       <path id="ArialMT-79" d="M 397 -1278 
L 334 -750 
Q 519 -800 656 -800 
Q 844 -800 956 -737 
Q 1069 -675 1141 -563 
Q 1194 -478 1313 -144 
Q 1328 -97 1363 -6 
L 103 3319 
L 709 3319 
L 1400 1397 
Q 1534 1031 1641 628 
Q 1738 1016 1872 1384 
L 2581 3319 
L 3144 3319 
L 1881 -56 
Q 1678 -603 1566 -809 
Q 1416 -1088 1222 -1217 
Q 1028 -1347 759 -1347 
Q 597 -1347 397 -1278 
z
" transform="scale(0.015625)"/>
       <path id="ArialMT-29" d="M 791 -1347 
L 388 -1347 
Q 1322 153 1322 1656 
Q 1322 2244 1188 2822 
Q 1081 3291 891 3722 
Q 769 4003 388 4659 
L 791 4659 
Q 1378 3875 1659 3084 
Q 1900 2403 1900 1659 
Q 1900 816 1576 28 
Q 1253 -759 791 -1347 
z
" transform="scale(0.015625)"/>
      </defs>
      <use xlink:href="#ArialMT-49"/>
      <use xlink:href="#ArialMT-6e" transform="translate(27.783203 0)"/>
      <use xlink:href="#ArialMT-63" transform="translate(83.398438 0)"/>
      <use xlink:href="#ArialMT-6f" transform="translate(133.398438 0)"/>
      <use xlink:href="#ArialMT-6d" transform="translate(189.013672 0)"/>
      <use xlink:href="#ArialMT-65" transform="translate(272.314453 0)"/>
      <use xlink:href="#ArialMT-20" transform="translate(327.929688 0)"/>
      <use xlink:href="#ArialMT-6f" transform="translate(355.712891 0)"/>
      <use xlink:href="#ArialMT-72" transform="translate(411.328125 0)"/>
      <use xlink:href="#ArialMT-20" transform="translate(444.628906 0)"/>
      <use xlink:href="#ArialMT-63" transform="translate(472.412109 0)"/>
      <use xlink:href="#ArialMT-6f" transform="translate(522.412109 0)"/>
      <use xlink:href="#ArialMT-6e" transform="translate(578.027344 0)"/>
      <use xlink:href="#ArialMT-73" transform="translate(633.642578 0)"/>
      <use xlink:href="#ArialMT-75" transform="translate(683.642578 0)"/>
      <use xlink:href="#ArialMT-6d" transform="translate(739.257812 0)"/>
      <use xlink:href="#ArialMT-70" transform="translate(822.558594 0)"/>
      <use xlink:href="#ArialMT-74" transform="translate(878.173828 0)"/>
      <use xlink:href="#ArialMT-69" transform="translate(905.957031 0)"/>
      <use xlink:href="#ArialMT-6f" transform="translate(928.173828 0)"/>
      <use xlink:href="#ArialMT-6e" transform="translate(983.789062 0)"/>
      <use xlink:href="#ArialMT-20" transform="translate(1039.404297 0)"/>
      <use xlink:href="#ArialMT-28" transform="translate(1067.1875 0)"/>
      <use xlink:href="#ArialMT-64" transform="translate(1100.488281 0)"/>
      <use xlink:href="#ArialMT-61" transform="translate(1156.103516 0)"/>
      <use xlink:href="#ArialMT-79" transform="translate(1211.71875 0)"/>
      <use xlink:href="#ArialMT-29" transform="translate(1261.71875 0)"/>
     </g>
    </g>
   </g>
   <g id="matplotlib.axis_2"/>
   <g id="FillBetweenPolyCollection_1">
    <defs>
     <path id="m3f572d5a9d" d="M 240.8049 -31.687862 
L 240.8049 -31.68 
L 243.107196 -31.68 
L 245.409492 -31.68 
L 247.711788 -31.68 
L 250.014084 -31.68 
L 252.31638 -31.68 
L 254.618675 -31.68 
L 256.920971 -31.68 
L 259.223267 -31.68 
L 261.525563 -31.68 
L 263.827859 -31.68 
L 266.130154 -31.68 
L 268.43245 -31.68 
L 270.734746 -31.68 
L 273.037042 -31.68 
L 275.339338 -31.68 
L 277.641634 -31.68 
L 279.943929 -31.68 
L 282.246225 -31.68 
L 284.548521 -31.68 
L 286.850817 -31.68 
L 289.153113 -31.68 
L 291.455409 -31.68 
L 293.757704 -31.68 
L 296.06 -31.68 
L 298.362296 -31.68 
L 300.664592 -31.68 
L 302.966888 -31.68 
L 305.269184 -31.68 
L 307.571479 -31.68 
L 309.873775 -31.68 
L 312.176071 -31.68 
L 314.478367 -31.68 
L 316.780663 -31.68 
L 319.082959 -31.68 
L 321.385254 -31.68 
L 323.68755 -31.68 
L 325.989846 -31.68 
L 328.292142 -31.68 
L 330.594438 -31.68 
L 332.896733 -31.68 
L 335.199029 -31.68 
L 337.501325 -31.68 
L 339.803621 -31.68 
L 342.105917 -31.68 
L 344.408213 -31.68 
L 346.710508 -31.68 
L 349.012804 -31.68 
L 351.3151 -31.68 
L 353.617396 -31.68 
L 355.919692 -31.68 
L 358.221988 -31.68 
L 360.524283 -31.68 
L 362.826579 -31.68 
L 365.128875 -31.68 
L 367.431171 -31.68 
L 369.733467 -31.68 
L 372.035763 -31.68 
L 374.338058 -31.68 
L 376.640354 -31.68 
L 378.94265 -31.68 
L 381.244946 -31.68 
L 383.547242 -31.68 
L 385.849538 -31.68 
L 388.151833 -31.68 
L 390.454129 -31.68 
L 392.756425 -31.68 
L 395.058721 -31.68 
L 397.361017 -31.68 
L 399.663313 -31.68 
L 401.965608 -31.68 
L 404.267904 -31.68 
L 406.5702 -31.68 
L 408.872496 -31.68 
L 411.174792 -31.68 
L 413.477087 -31.68 
L 415.779383 -31.68 
L 418.081679 -31.68 
L 420.383975 -31.68 
L 422.686271 -31.68 
L 424.988567 -31.68 
L 427.290862 -31.68 
L 429.593158 -31.68 
L 431.895454 -31.68 
L 434.19775 -31.68 
L 436.500046 -31.68 
L 438.802342 -31.68 
L 441.104637 -31.68 
L 443.406933 -31.68 
L 445.709229 -31.68 
L 448.011525 -31.68 
L 450.313821 -31.68 
L 452.616117 -31.68 
L 454.918412 -31.68 
L 457.220708 -31.68 
L 459.523004 -31.68 
L 461.8253 -31.68 
L 464.127596 -31.68 
L 466.429892 -31.68 
L 468.732187 -31.68 
L 471.034483 -31.68 
L 473.336779 -31.68 
L 475.639075 -31.68 
L 477.941371 -31.68 
L 480.243666 -31.68 
L 482.545962 -31.68 
L 484.848258 -31.68 
L 487.150554 -31.68 
L 489.45285 -31.68 
L 491.755146 -31.68 
L 494.057441 -31.68 
L 496.359737 -31.68 
L 498.662033 -31.68 
L 500.964329 -31.68 
L 503.266625 -31.68 
L 505.568921 -31.68 
L 507.871216 -31.68 
L 510.173512 -31.68 
L 512.475808 -31.68 
L 514.778104 -31.68 
L 517.0804 -31.68 
L 519.382696 -31.68 
L 521.684991 -31.68 
L 523.987287 -31.68 
L 526.289583 -31.68 
L 528.591879 -31.68 
L 530.894175 -31.68 
L 533.196471 -31.68 
L 535.498766 -31.68 
L 537.801062 -31.68 
L 540.103358 -31.68 
L 542.405654 -31.68 
L 544.70795 -31.68 
L 547.010245 -31.68 
L 549.312541 -31.68 
L 551.614837 -31.68 
L 553.917133 -31.68 
L 556.219429 -31.68 
L 558.521725 -31.68 
L 560.82402 -31.68 
L 563.126316 -31.68 
L 565.428612 -31.68 
L 567.730908 -31.68 
L 570.033204 -31.68 
L 572.3355 -31.68 
L 574.637795 -31.68 
L 576.940091 -31.68 
L 579.242387 -31.68 
L 581.544683 -31.68 
L 583.846979 -31.68 
L 586.149275 -31.68 
L 588.45157 -31.68 
L 590.753866 -31.68 
L 593.056162 -31.68 
L 595.358458 -31.68 
L 597.660754 -31.68 
L 599.96305 -31.68 
L 602.265345 -31.68 
L 604.567641 -31.68 
L 606.869937 -31.68 
L 609.172233 -31.68 
L 611.474529 -31.68 
L 613.776825 -31.68 
L 616.07912 -31.68 
L 618.381416 -31.68 
L 620.683712 -31.68 
L 622.986008 -31.68 
L 625.288304 -31.68 
L 627.590599 -31.68 
L 629.892895 -31.68 
L 632.195191 -31.68 
L 634.497487 -31.68 
L 636.799783 -31.68 
L 639.102079 -31.68 
L 641.404374 -31.68 
L 643.70667 -31.68 
L 646.008966 -31.68 
L 648.311262 -31.68 
L 650.613558 -31.68 
L 652.915854 -31.68 
L 655.218149 -31.68 
L 657.520445 -31.68 
L 659.822741 -31.68 
L 662.125037 -31.68 
L 664.427333 -31.68 
L 666.729629 -31.68 
L 669.031924 -31.68 
L 671.33422 -31.68 
L 673.636516 -31.68 
L 675.938812 -31.68 
L 678.241108 -31.68 
L 680.543404 -31.68 
L 682.845699 -31.68 
L 685.147995 -31.68 
L 687.450291 -31.68 
L 689.752587 -31.68 
L 692.054883 -31.68 
L 694.357178 -31.68 
L 696.659474 -31.68 
L 698.96177 -31.68 
L 698.96177 -31.687642 
L 698.96177 -31.687642 
L 696.659474 -31.693442 
L 694.357178 -31.702767 
L 692.054883 -31.717126 
L 689.752587 -31.738294 
L 687.450291 -31.768132 
L 685.147995 -31.808293 
L 682.845699 -31.859818 
L 680.543404 -31.922675 
L 678.241108 -31.995339 
L 675.938812 -32.074541 
L 673.636516 -32.155301 
L 671.33422 -32.231324 
L 669.031924 -32.295752 
L 666.729629 -32.342166 
L 664.427333 -32.36563 
L 662.125037 -32.363555 
L 659.822741 -32.336175 
L 657.520445 -32.286495 
L 655.218149 -32.219756 
L 652.915854 -32.142521 
L 650.613558 -32.061624 
L 648.311262 -31.983199 
L 646.008966 -31.911983 
L 643.70667 -31.850995 
L 641.404374 -31.801557 
L 639.102079 -31.763616 
L 636.799783 -31.736206 
L 634.497487 -31.717959 
L 632.195191 -31.707562 
L 629.892895 -31.704113 
L 627.590599 -31.707356 
L 625.288304 -31.717798 
L 622.986008 -31.736714 
L 620.683712 -31.766029 
L 618.381416 -31.808102 
L 616.07912 -31.865393 
L 613.776825 -31.94006 
L 611.474529 -32.03353 
L 609.172233 -32.146134 
L 606.869937 -32.276882 
L 604.567641 -32.423455 
L 602.265345 -32.582443 
L 599.96305 -32.749781 
L 597.660754 -32.921315 
L 595.358458 -33.093369 
L 593.056162 -33.263199 
L 590.753866 -33.429271 
L 588.45157 -33.591337 
L 586.149275 -33.75035 
L 583.846979 -33.908271 
L 581.544683 -34.067829 
L 579.242387 -34.232253 
L 576.940091 -34.404985 
L 574.637795 -34.589341 
L 572.3355 -34.788139 
L 570.033204 -35.003297 
L 567.730908 -35.235479 
L 565.428612 -35.483849 
L 563.126316 -35.746022 
L 560.82402 -36.018233 
L 558.521725 -36.295734 
L 556.219429 -36.573361 
L 553.917133 -36.846245 
L 551.614837 -37.110581 
L 549.312541 -37.364435 
L 547.010245 -37.608539 
L 544.70795 -37.846987 
L 542.405654 -38.087721 
L 540.103358 -38.342636 
L 537.801062 -38.627163 
L 535.498766 -38.959221 
L 533.196471 -39.357589 
L 530.894175 -39.839897 
L 528.591879 -40.420571 
L 526.289583 -41.109137 
L 523.987287 -41.909242 
L 521.684991 -42.818588 
L 519.382696 -43.829794 
L 517.0804 -44.931958 
L 514.778104 -46.112577 
L 512.475808 -47.359441 
L 510.173512 -48.662151 
L 507.871216 -50.013057 
L 505.568921 -51.407549 
L 503.266625 -52.843777 
L 500.964329 -54.321974 
L 498.662033 -55.843631 
L 496.359737 -57.410775 
L 494.057441 -59.025624 
L 491.755146 -60.690765 
L 489.45285 -62.409926 
L 487.150554 -64.189194 
L 484.848258 -66.038376 
L 482.545962 -67.972037 
L 480.243666 -70.009739 
L 477.941371 -72.175076 
L 475.639075 -74.493397 
L 473.336779 -76.988417 
L 471.034483 -79.678325 
L 468.732187 -82.572196 
L 466.429892 -85.667633 
L 464.127596 -88.950306 
L 461.8253 -92.395723 
L 459.523004 -95.973004 
L 457.220708 -99.650022 
L 454.918412 -103.398963 
L 452.616117 -107.201313 
L 450.313821 -111.05146 
L 448.011525 -114.958387 
L 445.709229 -118.945265 
L 443.406933 -123.047048 
L 441.104637 -127.306361 
L 438.802342 -131.768198 
L 436.500046 -136.474017 
L 434.19775 -141.455991 
L 431.895454 -146.732066 
L 429.593158 -152.302378 
L 427.290862 -158.147192 
L 424.988567 -164.226191 
L 422.686271 -170.478672 
L 420.383975 -176.824222 
L 418.081679 -183.163803 
L 415.779383 -189.38168 
L 413.477087 -195.349074 
L 411.174792 -200.930458 
L 408.872496 -205.99286 
L 406.5702 -210.417509 
L 404.267904 -214.11196 
L 401.965608 -217.020027 
L 399.663313 -219.126808 
L 397.361017 -220.457054 
L 395.058721 -221.066801 
L 392.756425 -221.030058 
L 390.454129 -220.423737 
L 388.151833 -219.314366 
L 385.849538 -217.749429 
L 383.547242 -215.754574 
L 381.244946 -213.336193 
L 378.94265 -210.487514 
L 376.640354 -207.195889 
L 374.338058 -203.449327 
L 372.035763 -199.241283 
L 369.733467 -194.573618 
L 367.431171 -189.458272 
L 365.128875 -183.918163 
L 362.826579 -177.987493 
L 360.524283 -171.711222 
L 358.221988 -165.143336 
L 355.919692 -158.343794 
L 353.617396 -151.374569 
L 351.3151 -144.295717 
L 349.012804 -137.162556 
L 346.710508 -130.024781 
L 344.408213 -122.927604 
L 342.105917 -115.914258 
L 339.803621 -109.028633 
L 337.501325 -102.316759 
L 335.199029 -95.826353 
L 332.896733 -89.604382 
L 330.594438 -83.693441 
L 328.292142 -78.12813 
L 325.989846 -72.932617 
L 323.68755 -68.120055 
L 321.385254 -63.693849 
L 319.082959 -59.650144 
L 316.780663 -55.980602 
L 314.478367 -52.674616 
L 312.176071 -49.720425 
L 309.873775 -47.105112 
L 307.571479 -44.813813 
L 305.269184 -42.828678 
L 302.966888 -41.128132 
L 300.664592 -39.686774 
L 298.362296 -38.476026 
L 296.06 -37.465408 
L 293.757704 -36.624167 
L 291.455409 -35.9229 
L 289.153113 -35.334903 
L 286.850817 -34.83705 
L 284.548521 -34.410154 
L 282.246225 -34.038908 
L 279.943929 -33.711544 
L 277.641634 -33.419385 
L 275.339338 -33.156379 
L 273.037042 -32.918662 
L 270.734746 -32.704132 
L 268.43245 -32.511985 
L 266.130154 -32.342201 
L 263.827859 -32.195017 
L 261.525563 -32.07045 
L 259.223267 -31.967935 
L 256.920971 -31.886164 
L 254.618675 -31.823101 
L 252.31638 -31.776166 
L 250.014084 -31.7425 
L 247.711788 -31.71925 
L 245.409492 -31.703801 
L 243.107196 -31.693928 
L 240.8049 -31.687862 
z
" style="stroke: #dd8452"/>
    </defs>
    <g clip-path="url(#pfdcf5aa9bd)">
     <use xlink:href="#m3f572d5a9d" x="0" y="288" style="fill: #dd8452; fill-opacity: 0.25; stroke: #dd8452"/>
    </g>
   </g>
   <g id="FillBetweenPolyCollection_2">
    <defs>
     <path id="m0e85143a2c" d="M 173.045455 -31.687979 
L 173.045455 -31.68 
L 176.869118 -31.68 
L 180.692782 -31.68 
L 184.516446 -31.68 
L 188.34011 -31.68 
L 192.163773 -31.68 
L 195.987437 -31.68 
L 199.811101 -31.68 
L 203.634765 -31.68 
L 207.458429 -31.68 
L 211.282092 -31.68 
L 215.105756 -31.68 
L 218.92942 -31.68 
L 222.753084 -31.68 
L 226.576747 -31.68 
L 230.400411 -31.68 
L 234.224075 -31.68 
L 238.047739 -31.68 
L 241.871402 -31.68 
L 245.695066 -31.68 
L 249.51873 -31.68 
L 253.342394 -31.68 
L 257.166058 -31.68 
L 260.989721 -31.68 
L 264.813385 -31.68 
L 268.637049 -31.68 
L 272.460713 -31.68 
L 276.284376 -31.68 
L 280.10804 -31.68 
L 283.931704 -31.68 
L 287.755368 -31.68 
L 291.579032 -31.68 
L 295.402695 -31.68 
L 299.226359 -31.68 
L 303.050023 -31.68 
L 306.873687 -31.68 
L 310.69735 -31.68 
L 314.521014 -31.68 
L 318.344678 -31.68 
L 322.168342 -31.68 
L 325.992005 -31.68 
L 329.815669 -31.68 
L 333.639333 -31.68 
L 337.462997 -31.68 
L 341.286661 -31.68 
L 345.110324 -31.68 
L 348.933988 -31.68 
L 352.757652 -31.68 
L 356.581316 -31.68 
L 360.404979 -31.68 
L 364.228643 -31.68 
L 368.052307 -31.68 
L 371.875971 -31.68 
L 375.699635 -31.68 
L 379.523298 -31.68 
L 383.346962 -31.68 
L 387.170626 -31.68 
L 390.99429 -31.68 
L 394.817953 -31.68 
L 398.641617 -31.68 
L 402.465281 -31.68 
L 406.288945 -31.68 
L 410.112608 -31.68 
L 413.936272 -31.68 
L 417.759936 -31.68 
L 421.5836 -31.68 
L 425.407264 -31.68 
L 429.230927 -31.68 
L 433.054591 -31.68 
L 436.878255 -31.68 
L 440.701919 -31.68 
L 444.525582 -31.68 
L 448.349246 -31.68 
L 452.17291 -31.68 
L 455.996574 -31.68 
L 459.820238 -31.68 
L 463.643901 -31.68 
L 467.467565 -31.68 
L 471.291229 -31.68 
L 475.114893 -31.68 
L 478.938556 -31.68 
L 482.76222 -31.68 
L 486.585884 -31.68 
L 490.409548 -31.68 
L 494.233212 -31.68 
L 498.056875 -31.68 
L 501.880539 -31.68 
L 505.704203 -31.68 
L 509.527867 -31.68 
L 513.35153 -31.68 
L 517.175194 -31.68 
L 520.998858 -31.68 
L 524.822522 -31.68 
L 528.646185 -31.68 
L 532.469849 -31.68 
L 536.293513 -31.68 
L 540.117177 -31.68 
L 543.940841 -31.68 
L 547.764504 -31.68 
L 551.588168 -31.68 
L 555.411832 -31.68 
L 559.235496 -31.68 
L 563.059159 -31.68 
L 566.882823 -31.68 
L 570.706487 -31.68 
L 574.530151 -31.68 
L 578.353815 -31.68 
L 582.177478 -31.68 
L 586.001142 -31.68 
L 589.824806 -31.68 
L 593.64847 -31.68 
L 597.472133 -31.68 
L 601.295797 -31.68 
L 605.119461 -31.68 
L 608.943125 -31.68 
L 612.766788 -31.68 
L 616.590452 -31.68 
L 620.414116 -31.68 
L 624.23778 -31.68 
L 628.061444 -31.68 
L 631.885107 -31.68 
L 635.708771 -31.68 
L 639.532435 -31.68 
L 643.356099 -31.68 
L 647.179762 -31.68 
L 651.003426 -31.68 
L 654.82709 -31.68 
L 658.650754 -31.68 
L 662.474418 -31.68 
L 666.298081 -31.68 
L 670.121745 -31.68 
L 673.945409 -31.68 
L 677.769073 -31.68 
L 681.592736 -31.68 
L 685.4164 -31.68 
L 689.240064 -31.68 
L 693.063728 -31.68 
L 696.887392 -31.68 
L 700.711055 -31.68 
L 704.534719 -31.68 
L 708.358383 -31.68 
L 712.182047 -31.68 
L 716.00571 -31.68 
L 719.829374 -31.68 
L 723.653038 -31.68 
L 727.476702 -31.68 
L 731.300365 -31.68 
L 735.124029 -31.68 
L 738.947693 -31.68 
L 742.771357 -31.68 
L 746.595021 -31.68 
L 750.418684 -31.68 
L 754.242348 -31.68 
L 758.066012 -31.68 
L 761.889676 -31.68 
L 765.713339 -31.68 
L 769.537003 -31.68 
L 773.360667 -31.68 
L 777.184331 -31.68 
L 781.007995 -31.68 
L 784.831658 -31.68 
L 788.655322 -31.68 
L 792.478986 -31.68 
L 796.30265 -31.68 
L 800.126313 -31.68 
L 803.949977 -31.68 
L 807.773641 -31.68 
L 811.597305 -31.68 
L 815.420968 -31.68 
L 819.244632 -31.68 
L 823.068296 -31.68 
L 826.89196 -31.68 
L 830.715624 -31.68 
L 834.539287 -31.68 
L 838.362951 -31.68 
L 842.186615 -31.68 
L 846.010279 -31.68 
L 849.833942 -31.68 
L 853.657606 -31.68 
L 857.48127 -31.68 
L 861.304934 -31.68 
L 865.128598 -31.68 
L 868.952261 -31.68 
L 872.775925 -31.68 
L 876.599589 -31.68 
L 880.423253 -31.68 
L 884.246916 -31.68 
L 888.07058 -31.68 
L 891.894244 -31.68 
L 895.717908 -31.68 
L 899.541571 -31.68 
L 903.365235 -31.68 
L 907.188899 -31.68 
L 911.012563 -31.68 
L 914.836227 -31.68 
L 918.65989 -31.68 
L 922.483554 -31.68 
L 926.307218 -31.68 
L 930.130882 -31.68 
L 933.954545 -31.68 
L 933.954545 -31.687979 
L 933.954545 -31.687979 
L 930.130882 -31.700738 
L 926.307218 -31.728103 
L 922.483554 -31.779573 
L 918.65989 -31.863944 
L 914.836227 -31.983252 
L 911.012563 -32.126174 
L 907.188899 -32.265874 
L 903.365235 -32.366709 
L 899.541571 -32.398851 
L 895.717908 -32.353266 
L 891.894244 -32.24762 
L 888.07058 -32.119424 
L 884.246916 -32.011252 
L 880.423253 -31.956602 
L 876.599589 -31.971618 
L 872.775925 -32.052387 
L 868.952261 -32.176081 
L 865.128598 -32.306798 
L 861.304934 -32.408183 
L 857.48127 -32.460763 
L 853.657606 -32.4755 
L 849.833942 -32.49341 
L 846.010279 -32.568029 
L 842.186615 -32.738653 
L 838.362951 -33.009381 
L 834.539287 -33.346422 
L 830.715624 -33.695393 
L 826.89196 -34.008399 
L 823.068296 -34.265835 
L 819.244632 -34.483101 
L 815.420968 -34.70291 
L 811.597305 -34.980688 
L 807.773641 -35.370011 
L 803.949977 -35.910609 
L 800.126313 -36.619523 
L 796.30265 -37.487943 
L 792.478986 -38.48831 
L 788.655322 -39.593446 
L 784.831658 -40.80148 
L 781.007995 -42.153909 
L 777.184331 -43.737289 
L 773.360667 -45.670841 
L 769.537003 -48.090441 
L 765.713339 -51.134615 
L 761.889676 -54.927036 
L 758.066012 -59.550647 
L 754.242348 -65.025285 
L 750.418684 -71.312812 
L 746.595021 -78.356942 
L 742.771357 -86.126655 
L 738.947693 -94.614438 
L 735.124029 -103.776116 
L 731.300365 -113.46476 
L 727.476702 -123.440051 
L 723.653038 -133.482384 
L 719.829374 -143.542021 
L 716.00571 -153.798617 
L 712.182047 -164.556488 
L 708.358383 -176.02209 
L 704.534719 -188.100774 
L 700.711055 -200.336797 
L 696.887392 -212.023659 
L 693.063728 -222.41289 
L 689.240064 -230.912024 
L 685.4164 -237.189377 
L 681.592736 -241.159892 
L 677.769073 -242.88 
L 673.945409 -242.413459 
L 670.121745 -239.736458 
L 666.298081 -234.728644 
L 662.474418 -227.255437 
L 658.650754 -217.301718 
L 654.82709 -205.087735 
L 651.003426 -191.104783 
L 647.179762 -176.053556 
L 643.356099 -160.722245 
L 639.532435 -145.861838 
L 635.708771 -132.092237 
L 631.885107 -119.838622 
L 628.061444 -109.289616 
L 624.23778 -100.385495 
L 620.414116 -92.85577 
L 616.590452 -86.311058 
L 612.766788 -80.364533 
L 608.943125 -74.738454 
L 605.119461 -69.317249 
L 601.295797 -64.135732 
L 597.472133 -59.320226 
L 593.64847 -55.014425 
L 589.824806 -51.317512 
L 586.001142 -48.249198 
L 582.177478 -45.745932 
L 578.353815 -43.686034 
L 574.530151 -41.933561 
L 570.706487 -40.381843 
L 566.882823 -38.976835 
L 563.059159 -37.713009 
L 559.235496 -36.611195 
L 555.411832 -35.69392 
L 551.588168 -34.967585 
L 547.764504 -34.413403 
L 543.940841 -33.98823 
L 540.117177 -33.6372 
L 536.293513 -33.314987 
L 532.469849 -33.004639 
L 528.646185 -32.721767 
L 524.822522 -32.500636 
L 520.998858 -32.370243 
L 517.175194 -32.333967 
L 513.35153 -32.363392 
L 509.527867 -32.408908 
L 505.704203 -32.421186 
L 501.880539 -32.372027 
L 498.056875 -32.263596 
L 494.233212 -32.122249 
L 490.409548 -31.982745 
L 486.585884 -31.873565 
L 482.76222 -31.81084 
L 478.938556 -31.800668 
L 475.114893 -31.84377 
L 471.291229 -31.936465 
L 467.467565 -32.066779 
L 463.643901 -32.210108 
L 459.820238 -32.331054 
L 455.996574 -32.394229 
L 452.17291 -32.379388 
L 448.349246 -32.291211 
L 444.525582 -32.156695 
L 440.701919 -32.011791 
L 436.878255 -31.886092 
L 433.054591 -31.794243 
L 429.230927 -31.736516 
L 425.407264 -31.704951 
L 421.5836 -31.68983 
L 417.759936 -31.683456 
L 413.936272 -31.681085 
L 410.112608 -31.680304 
L 406.288945 -31.680076 
L 402.465281 -31.680017 
L 398.641617 -31.680003 
L 394.817953 -31.680001 
L 390.99429 -31.68 
L 387.170626 -31.68 
L 383.346962 -31.68 
L 379.523298 -31.68 
L 375.699635 -31.68 
L 371.875971 -31.68 
L 368.052307 -31.68 
L 364.228643 -31.68 
L 360.404979 -31.68 
L 356.581316 -31.68 
L 352.757652 -31.68 
L 348.933988 -31.68 
L 345.110324 -31.68 
L 341.286661 -31.68 
L 337.462997 -31.68 
L 333.639333 -31.68 
L 329.815669 -31.68 
L 325.992005 -31.68 
L 322.168342 -31.68 
L 318.344678 -31.68 
L 314.521014 -31.68 
L 310.69735 -31.68 
L 306.873687 -31.68 
L 303.050023 -31.68 
L 299.226359 -31.68 
L 295.402695 -31.68 
L 291.579032 -31.68 
L 287.755368 -31.68 
L 283.931704 -31.68 
L 280.10804 -31.68 
L 276.284376 -31.68 
L 272.460713 -31.68 
L 268.637049 -31.68 
L 264.813385 -31.680002 
L 260.989721 -31.680009 
L 257.166058 -31.680041 
L 253.342394 -31.680171 
L 249.51873 -31.680642 
L 245.695066 -31.682146 
L 241.871402 -31.686403 
L 238.047739 -31.697055 
L 234.224075 -31.720539 
L 230.400411 -31.765991 
L 226.576747 -31.842784 
L 222.753084 -31.955005 
L 218.92942 -32.094614 
L 215.105756 -32.237852 
L 211.282092 -32.349835 
L 207.458429 -32.397775 
L 203.634765 -32.366408 
L 199.811101 -32.265799 
L 195.987437 -32.126157 
L 192.163773 -31.983249 
L 188.34011 -31.863943 
L 184.516446 -31.779573 
L 180.692782 -31.728103 
L 176.869118 -31.700738 
L 173.045455 -31.687979 
z
" style="stroke: #4c72b0"/>
    </defs>
    <g clip-path="url(#pfdcf5aa9bd)">
     <use xlink:href="#m0e85143a2c" x="0" y="288" style="fill: #4c72b0; fill-opacity: 0.25; stroke: #4c72b0"/>
    </g>
   </g>
   <g id="line2d_37">
    <path d="M 393.217144 256.32 
L 393.217144 34.56 
" clip-path="url(#pfdcf5aa9bd)" style="fill: none; stroke-dasharray: 2.96,1.28; stroke-dashoffset: 0; stroke: #d3d3d3; stroke-width: 0.8"/>
   </g>
   <g id="line2d_38">
    <path d="M 583.175246 256.32 
L 583.175246 34.56 
" clip-path="url(#pfdcf5aa9bd)" style="fill: none; stroke-dasharray: 2.96,1.28; stroke-dashoffset: 0; stroke: #d3d3d3; stroke-width: 0.8"/>
   </g>
   <g id="line2d_39">
    <path d="M 509.931383 256.32 
L 509.931383 34.56 
" clip-path="url(#pfdcf5aa9bd)" style="fill: none; stroke-dasharray: 2.96,1.28; stroke-dashoffset: 0; stroke: #d3d3d3; stroke-width: 0.8"/>
   </g>
   <g id="line2d_40">
    <path d="M 135 256.32 
L 972 256.32 
" clip-path="url(#pfdcf5aa9bd)" style="fill: none; stroke: #808080; stroke-width: 0.5; stroke-linecap: round"/>
   </g>
   <g id="text_12">
    <!-- International Poverty Line: $2.15 -->
    <g style="fill: #808080" transform="translate(399.470894 151.95635) rotate(-90) scale(0.08 -0.08)">
     <defs>
      <path id="ArialMT-6c" d="M 409 0 
L 409 4581 
L 972 4581 
L 972 0 
L 409 0 
z
" transform="scale(0.015625)"/>
      <path id="ArialMT-50" d="M 494 0 
L 494 4581 
L 2222 4581 
Q 2678 4581 2919 4538 
Q 3256 4481 3484 4323 
Q 3713 4166 3852 3881 
Q 3991 3597 3991 3256 
Q 3991 2672 3619 2267 
Q 3247 1863 2275 1863 
L 1100 1863 
L 1100 0 
L 494 0 
z
M 1100 2403 
L 2284 2403 
Q 2872 2403 3119 2622 
Q 3366 2841 3366 3238 
Q 3366 3525 3220 3729 
Q 3075 3934 2838 4000 
Q 2684 4041 2272 4041 
L 1100 4041 
L 1100 2403 
z
" transform="scale(0.015625)"/>
      <path id="ArialMT-76" d="M 1344 0 
L 81 3319 
L 675 3319 
L 1388 1331 
Q 1503 1009 1600 663 
Q 1675 925 1809 1294 
L 2547 3319 
L 3125 3319 
L 1869 0 
L 1344 0 
z
" transform="scale(0.015625)"/>
      <path id="ArialMT-4c" d="M 469 0 
L 469 4581 
L 1075 4581 
L 1075 541 
L 3331 541 
L 3331 0 
L 469 0 
z
" transform="scale(0.015625)"/>
      <path id="ArialMT-3a" d="M 578 2678 
L 578 3319 
L 1219 3319 
L 1219 2678 
L 578 2678 
z
M 578 0 
L 578 641 
L 1219 641 
L 1219 0 
L 578 0 
z
" transform="scale(0.015625)"/>
      <path id="ArialMT-24" d="M 1594 -659 
L 1594 -97 
Q 1172 -44 908 92 
Q 644 228 451 531 
Q 259 834 228 1272 
L 794 1378 
Q 859 925 1025 713 
Q 1263 413 1594 378 
L 1594 2169 
Q 1247 2234 884 2438 
Q 616 2588 470 2853 
Q 325 3119 325 3456 
Q 325 4056 750 4428 
Q 1034 4678 1594 4734 
L 1594 5003 
L 1925 5003 
L 1925 4734 
Q 2416 4688 2703 4447 
Q 3072 4141 3147 3606 
L 2566 3519 
Q 2516 3850 2358 4026 
Q 2200 4203 1925 4259 
L 1925 2638 
Q 2350 2531 2488 2472 
Q 2750 2356 2915 2190 
Q 3081 2025 3170 1797 
Q 3259 1569 3259 1303 
Q 3259 719 2887 328 
Q 2516 -63 1925 -91 
L 1925 -659 
L 1594 -659 
z
M 1594 4266 
Q 1266 4216 1077 4003 
Q 888 3791 888 3500 
Q 888 3213 1048 3019 
Q 1209 2825 1594 2709 
L 1594 4266 
z
M 1925 378 
Q 2253 419 2467 662 
Q 2681 906 2681 1266 
Q 2681 1572 2529 1758 
Q 2378 1944 1925 2091 
L 1925 378 
z
" transform="scale(0.015625)"/>
      <path id="ArialMT-2e" d="M 581 0 
L 581 641 
L 1222 641 
L 1222 0 
L 581 0 
z
" transform="scale(0.015625)"/>
     </defs>
     <use xlink:href="#ArialMT-49"/>
     <use xlink:href="#ArialMT-6e" transform="translate(27.783203 0)"/>
     <use xlink:href="#ArialMT-74" transform="translate(83.398438 0)"/>
     <use xlink:href="#ArialMT-65" transform="translate(111.181641 0)"/>
     <use xlink:href="#ArialMT-72" transform="translate(166.796875 0)"/>
     <use xlink:href="#ArialMT-6e" transform="translate(200.097656 0)"/>
     <use xlink:href="#ArialMT-61" transform="translate(255.712891 0)"/>
     <use xlink:href="#ArialMT-74" transform="translate(311.328125 0)"/>
     <use xlink:href="#ArialMT-69" transform="translate(339.111328 0)"/>
     <use xlink:href="#ArialMT-6f" transform="translate(361.328125 0)"/>
     <use xlink:href="#ArialMT-6e" transform="translate(416.943359 0)"/>
     <use xlink:href="#ArialMT-61" transform="translate(472.558594 0)"/>
     <use xlink:href="#ArialMT-6c" transform="translate(528.173828 0)"/>
     <use xlink:href="#ArialMT-20" transform="translate(550.390625 0)"/>
     <use xlink:href="#ArialMT-50" transform="translate(578.173828 0)"/>
     <use xlink:href="#ArialMT-6f" transform="translate(644.873047 0)"/>
     <use xlink:href="#ArialMT-76" transform="translate(700.488281 0)"/>
     <use xlink:href="#ArialMT-65" transform="translate(750.488281 0)"/>
     <use xlink:href="#ArialMT-72" transform="translate(806.103516 0)"/>
     <use xlink:href="#ArialMT-74" transform="translate(839.404297 0)"/>
     <use xlink:href="#ArialMT-79" transform="translate(867.1875 0)"/>
     <use xlink:href="#ArialMT-20" transform="translate(917.1875 0)"/>
     <use xlink:href="#ArialMT-4c" transform="translate(944.970703 0)"/>
     <use xlink:href="#ArialMT-69" transform="translate(1000.585938 0)"/>
     <use xlink:href="#ArialMT-6e" transform="translate(1022.802734 0)"/>
     <use xlink:href="#ArialMT-65" transform="translate(1078.417969 0)"/>
     <use xlink:href="#ArialMT-3a" transform="translate(1134.033203 0)"/>
     <use xlink:href="#ArialMT-20" transform="translate(1161.816406 0)"/>
     <use xlink:href="#ArialMT-24" transform="translate(1189.599609 0)"/>
     <use xlink:href="#ArialMT-32" transform="translate(1245.214844 0)"/>
     <use xlink:href="#ArialMT-2e" transform="translate(1300.830078 0)"/>
     <use xlink:href="#ArialMT-31" transform="translate(1328.613281 0)"/>
     <use xlink:href="#ArialMT-35" transform="translate(1384.228516 0)"/>
    </g>
   </g>
   <g id="text_13">
    <!-- World mean: $19.18 -->
    <g style="fill: #808080" transform="translate(588.901496 108.67135) rotate(-90) scale(0.08 -0.08)">
     <defs>
      <path id="ArialMT-57" d="M 1294 0 
L 78 4581 
L 700 4581 
L 1397 1578 
Q 1509 1106 1591 641 
Q 1766 1375 1797 1488 
L 2669 4581 
L 3400 4581 
L 4056 2263 
Q 4303 1400 4413 641 
Q 4500 1075 4641 1638 
L 5359 4581 
L 5969 4581 
L 4713 0 
L 4128 0 
L 3163 3491 
Q 3041 3928 3019 4028 
Q 2947 3713 2884 3491 
L 1913 0 
L 1294 0 
z
" transform="scale(0.015625)"/>
      <path id="ArialMT-39" d="M 350 1059 
L 891 1109 
Q 959 728 1153 556 
Q 1347 384 1650 384 
Q 1909 384 2104 503 
Q 2300 622 2425 820 
Q 2550 1019 2634 1356 
Q 2719 1694 2719 2044 
Q 2719 2081 2716 2156 
Q 2547 1888 2255 1720 
Q 1963 1553 1622 1553 
Q 1053 1553 659 1965 
Q 266 2378 266 3053 
Q 266 3750 677 4175 
Q 1088 4600 1706 4600 
Q 2153 4600 2523 4359 
Q 2894 4119 3086 3673 
Q 3278 3228 3278 2384 
Q 3278 1506 3087 986 
Q 2897 466 2520 194 
Q 2144 -78 1638 -78 
Q 1100 -78 759 220 
Q 419 519 350 1059 
z
M 2653 3081 
Q 2653 3566 2395 3850 
Q 2138 4134 1775 4134 
Q 1400 4134 1122 3828 
Q 844 3522 844 3034 
Q 844 2597 1108 2323 
Q 1372 2050 1759 2050 
Q 2150 2050 2401 2323 
Q 2653 2597 2653 3081 
z
" transform="scale(0.015625)"/>
      <path id="ArialMT-38" d="M 1131 2484 
Q 781 2613 612 2850 
Q 444 3088 444 3419 
Q 444 3919 803 4259 
Q 1163 4600 1759 4600 
Q 2359 4600 2725 4251 
Q 3091 3903 3091 3403 
Q 3091 3084 2923 2848 
Q 2756 2613 2416 2484 
Q 2838 2347 3058 2040 
Q 3278 1734 3278 1309 
Q 3278 722 2862 322 
Q 2447 -78 1769 -78 
Q 1091 -78 675 323 
Q 259 725 259 1325 
Q 259 1772 486 2073 
Q 713 2375 1131 2484 
z
M 1019 3438 
Q 1019 3113 1228 2906 
Q 1438 2700 1772 2700 
Q 2097 2700 2305 2904 
Q 2513 3109 2513 3406 
Q 2513 3716 2298 3927 
Q 2084 4138 1766 4138 
Q 1444 4138 1231 3931 
Q 1019 3725 1019 3438 
z
M 838 1322 
Q 838 1081 952 856 
Q 1066 631 1291 507 
Q 1516 384 1775 384 
Q 2178 384 2440 643 
Q 2703 903 2703 1303 
Q 2703 1709 2433 1975 
Q 2163 2241 1756 2241 
Q 1359 2241 1098 1978 
Q 838 1716 838 1322 
z
" transform="scale(0.015625)"/>
     </defs>
     <use xlink:href="#ArialMT-57"/>
     <use xlink:href="#ArialMT-6f" transform="translate(92.634766 0)"/>
     <use xlink:href="#ArialMT-72" transform="translate(148.25 0)"/>
     <use xlink:href="#ArialMT-6c" transform="translate(181.550781 0)"/>
     <use xlink:href="#ArialMT-64" transform="translate(203.767578 0)"/>
     <use xlink:href="#ArialMT-20" transform="translate(259.382812 0)"/>
     <use xlink:href="#ArialMT-6d" transform="translate(287.166016 0)"/>
     <use xlink:href="#ArialMT-65" transform="translate(370.466797 0)"/>
     <use xlink:href="#ArialMT-61" transform="translate(426.082031 0)"/>
     <use xlink:href="#ArialMT-6e" transform="translate(481.697266 0)"/>
     <use xlink:href="#ArialMT-3a" transform="translate(537.3125 0)"/>
     <use xlink:href="#ArialMT-20" transform="translate(565.095703 0)"/>
     <use xlink:href="#ArialMT-24" transform="translate(592.878906 0)"/>
     <use xlink:href="#ArialMT-31" transform="translate(648.494141 0)"/>
     <use xlink:href="#ArialMT-39" transform="translate(704.109375 0)"/>
     <use xlink:href="#ArialMT-2e" transform="translate(759.724609 0)"/>
     <use xlink:href="#ArialMT-31" transform="translate(787.507812 0)"/>
     <use xlink:href="#ArialMT-38" transform="translate(843.123047 0)"/>
    </g>
   </g>
   <g id="text_14">
    <!-- World median: $8.25 -->
    <g style="fill: #808080" transform="translate(515.657633 110.44885) rotate(-90) scale(0.08 -0.08)">
     <use xlink:href="#ArialMT-57"/>
     <use xlink:href="#ArialMT-6f" transform="translate(92.634766 0)"/>
     <use xlink:href="#ArialMT-72" transform="translate(148.25 0)"/>
     <use xlink:href="#ArialMT-6c" transform="translate(181.550781 0)"/>
     <use xlink:href="#ArialMT-64" transform="translate(203.767578 0)"/>
     <use xlink:href="#ArialMT-20" transform="translate(259.382812 0)"/>
     <use xlink:href="#ArialMT-6d" transform="translate(287.166016 0)"/>
     <use xlink:href="#ArialMT-65" transform="translate(370.466797 0)"/>
     <use xlink:href="#ArialMT-64" transform="translate(426.082031 0)"/>
     <use xlink:href="#ArialMT-69" transform="translate(481.697266 0)"/>
     <use xlink:href="#ArialMT-61" transform="translate(503.914062 0)"/>
     <use xlink:href="#ArialMT-6e" transform="translate(559.529297 0)"/>
     <use xlink:href="#ArialMT-3a" transform="translate(615.144531 0)"/>
     <use xlink:href="#ArialMT-20" transform="translate(642.927734 0)"/>
     <use xlink:href="#ArialMT-24" transform="translate(670.710938 0)"/>
     <use xlink:href="#ArialMT-38" transform="translate(726.326172 0)"/>
     <use xlink:href="#ArialMT-2e" transform="translate(781.941406 0)"/>
     <use xlink:href="#ArialMT-32" transform="translate(809.724609 0)"/>
     <use xlink:href="#ArialMT-35" transform="translate(865.339844 0)"/>
    </g>
   </g>
   <g id="legend_1">
    <g id="patch_3">
     <path d="M 811.6 129.704187 
L 884.164062 129.704187 
Q 886.164062 129.704187 886.164062 127.704187 
L 886.164062 85.912 
Q 886.164062 83.912 884.164062 83.912 
L 811.6 83.912 
Q 809.6 83.912 809.6 85.912 
L 809.6 127.704187 
Q 809.6 129.704187 811.6 129.704187 
z
" style="fill: #ffffff; opacity: 0.8; stroke: #cccccc; stroke-linejoin: miter"/>
    </g>
    <g id="text_15">
     <!-- Country -->
     <g style="fill: #262626" transform="translate(830.375781 95.191688) scale(0.1 -0.1)">
      <defs>
       <path id="ArialMT-43" d="M 3763 1606 
L 4369 1453 
Q 4178 706 3683 314 
Q 3188 -78 2472 -78 
Q 1731 -78 1267 223 
Q 803 525 561 1097 
Q 319 1669 319 2325 
Q 319 3041 592 3573 
Q 866 4106 1370 4382 
Q 1875 4659 2481 4659 
Q 3169 4659 3637 4309 
Q 4106 3959 4291 3325 
L 3694 3184 
Q 3534 3684 3231 3912 
Q 2928 4141 2469 4141 
Q 1941 4141 1586 3887 
Q 1231 3634 1087 3207 
Q 944 2781 944 2328 
Q 944 1744 1114 1308 
Q 1284 872 1643 656 
Q 2003 441 2422 441 
Q 2931 441 3284 734 
Q 3638 1028 3763 1606 
z
" transform="scale(0.015625)"/>
      </defs>
      <use xlink:href="#ArialMT-43"/>
      <use xlink:href="#ArialMT-6f" transform="translate(72.216797 0)"/>
      <use xlink:href="#ArialMT-75" transform="translate(127.832031 0)"/>
      <use xlink:href="#ArialMT-6e" transform="translate(183.447266 0)"/>
      <use xlink:href="#ArialMT-74" transform="translate(239.0625 0)"/>
      <use xlink:href="#ArialMT-72" transform="translate(266.845703 0)"/>
      <use xlink:href="#ArialMT-79" transform="translate(300.146484 0)"/>
     </g>
    </g>
    <g id="patch_4">
     <path d="M 813.6 109.454187 
L 833.6 109.454187 
L 833.6 102.454187 
L 813.6 102.454187 
z
" style="fill: #4c72b0; fill-opacity: 0.25; stroke: #4c72b0; stroke-linejoin: miter"/>
    </g>
    <g id="text_16">
     <!-- Denmark -->
     <g style="fill: #262626" transform="translate(841.6 109.454187) scale(0.1 -0.1)">
      <defs>
       <path id="ArialMT-44" d="M 494 0 
L 494 4581 
L 2072 4581 
Q 2606 4581 2888 4516 
Q 3281 4425 3559 4188 
Q 3922 3881 4101 3404 
Q 4281 2928 4281 2316 
Q 4281 1794 4159 1391 
Q 4038 988 3847 723 
Q 3656 459 3429 307 
Q 3203 156 2883 78 
Q 2563 0 2147 0 
L 494 0 
z
M 1100 541 
L 2078 541 
Q 2531 541 2789 625 
Q 3047 709 3200 863 
Q 3416 1078 3536 1442 
Q 3656 1806 3656 2325 
Q 3656 3044 3420 3430 
Q 3184 3816 2847 3947 
Q 2603 4041 2063 4041 
L 1100 4041 
L 1100 541 
z
" transform="scale(0.015625)"/>
       <path id="ArialMT-6b" d="M 425 0 
L 425 4581 
L 988 4581 
L 988 1969 
L 2319 3319 
L 3047 3319 
L 1778 2088 
L 3175 0 
L 2481 0 
L 1384 1697 
L 988 1316 
L 988 0 
L 425 0 
z
" transform="scale(0.015625)"/>
      </defs>
      <use xlink:href="#ArialMT-44"/>
      <use xlink:href="#ArialMT-65" transform="translate(72.216797 0)"/>
      <use xlink:href="#ArialMT-6e" transform="translate(127.832031 0)"/>
      <use xlink:href="#ArialMT-6d" transform="translate(183.447266 0)"/>
      <use xlink:href="#ArialMT-61" transform="translate(266.748047 0)"/>
      <use xlink:href="#ArialMT-72" transform="translate(322.363281 0)"/>
      <use xlink:href="#ArialMT-6b" transform="translate(355.664062 0)"/>
     </g>
    </g>
    <g id="patch_5">
     <path d="M 813.6 123.5995 
L 833.6 123.5995 
L 833.6 116.5995 
L 813.6 116.5995 
z
" style="fill: #dd8452; fill-opacity: 0.25; stroke: #dd8452; stroke-linejoin: miter"/>
    </g>
    <g id="text_17">
     <!-- Niger -->
     <g style="fill: #262626" transform="translate(841.6 123.5995) scale(0.1 -0.1)">
      <defs>
       <path id="ArialMT-4e" d="M 488 0 
L 488 4581 
L 1109 4581 
L 3516 984 
L 3516 4581 
L 4097 4581 
L 4097 0 
L 3475 0 
L 1069 3600 
L 1069 0 
L 488 0 
z
" transform="scale(0.015625)"/>
       <path id="ArialMT-67" d="M 319 -275 
L 866 -356 
Q 900 -609 1056 -725 
Q 1266 -881 1628 -881 
Q 2019 -881 2231 -725 
Q 2444 -569 2519 -288 
Q 2563 -116 2559 434 
Q 2191 0 1641 0 
Q 956 0 581 494 
Q 206 988 206 1678 
Q 206 2153 378 2554 
Q 550 2956 876 3175 
Q 1203 3394 1644 3394 
Q 2231 3394 2613 2919 
L 2613 3319 
L 3131 3319 
L 3131 450 
Q 3131 -325 2973 -648 
Q 2816 -972 2473 -1159 
Q 2131 -1347 1631 -1347 
Q 1038 -1347 672 -1080 
Q 306 -813 319 -275 
z
M 784 1719 
Q 784 1066 1043 766 
Q 1303 466 1694 466 
Q 2081 466 2343 764 
Q 2606 1063 2606 1700 
Q 2606 2309 2336 2618 
Q 2066 2928 1684 2928 
Q 1309 2928 1046 2623 
Q 784 2319 784 1719 
z
" transform="scale(0.015625)"/>
      </defs>
      <use xlink:href="#ArialMT-4e"/>
      <use xlink:href="#ArialMT-69" transform="translate(72.216797 0)"/>
      <use xlink:href="#ArialMT-67" transform="translate(94.433594 0)"/>
      <use xlink:href="#ArialMT-65" transform="translate(150.048828 0)"/>
      <use xlink:href="#ArialMT-72" transform="translate(205.664062 0)"/>
     </g>
    </g>
   </g>
  </g>
 </g>
 <defs>
  <clipPath id="pfdcf5aa9bd">
   <rect x="135" y="34.56" width="837" height="221.76"/>
  </clipPath>
 </defs>
</svg>
