<?xml version="1.0" encoding="utf-8" standalone="no"?>
<!DOCTYPE svg PUBLIC "-//W3C//DTD SVG 1.1//EN"
  "http://www.w3.org/Graphics/SVG/1.1/DTD/svg11.dtd">
<svg xmlns:xlink="http://www.w3.org/1999/xlink" width="1080pt" height="288pt" viewBox="0 0 1080 288" xmlns="http://www.w3.org/2000/svg" version="1.1">
 <metadata>
  <rdf:RDF xmlns:dc="http://purl.org/dc/elements/1.1/" xmlns:cc="http://creativecommons.org/ns#" xmlns:rdf="http://www.w3.org/1999/02/22-rdf-syntax-ns#">
   <cc:Work>
    <dc:type rdf:resource="http://purl.org/dc/dcmitype/StillImage"/>
    <dc:date>2025-04-04T17:23:16.628555</dc:date>
    <dc:format>image/svg+xml</dc:format>
    <dc:creator>
     <cc:Agent>
      <dc:title>Matplotlib v3.10.1, https://matplotlib.org/</dc:title>
     </cc:Agent>
    </dc:creator>
   </cc:Work>
  </rdf:RDF>
 </metadata>
 <defs>
  <style type="text/css">*{stroke-linejoin: round; stroke-linecap: butt}</style>
 </defs>
 <g id="figure_1">
  <g id="patch_1">
   <path d="M 0 288 
L 1080 288 
L 1080 0 
L 0 0 
z
" style="fill: #ffffff"/>
  </g>
  <g id="axes_1">
   <g id="patch_2">
    <path d="M 135 256.32 
L 972 256.32 
L 972 34.56 
L 135 34.56 
z
" style="fill: #ffffff"/>
   </g>
   <g id="matplotlib.axis_1">
    <g id="xtick_1">
     <g id="line2d_1">
      <defs>
       <path id="m10d60e3af0" d="M 0 0 
L 0 3.5 
" style="stroke: #262626; stroke-width: 0.8"/>
      </defs>
      <g>
       <use xlink:href="#m10d60e3af0" x="332.693132" y="256.32" style="fill: #262626; stroke: #262626; stroke-width: 0.8"/>
      </g>
     </g>
     <g id="text_1">
      <!-- 1 -->
      <g style="fill: #262626" transform="translate(329.912663 270.477813) scale(0.1 -0.1)">
       <defs>
        <path id="ArialMT-31" d="M 2384 0 
L 1822 0 
L 1822 3584 
Q 1619 3391 1289 3197 
Q 959 3003 697 2906 
L 697 3450 
Q 1169 3672 1522 3987 
Q 1875 4303 2022 4600 
L 2384 4600 
L 2384 0 
z
" transform="scale(0.015625)"/>
       </defs>
       <use xlink:href="#ArialMT-31"/>
      </g>
     </g>
    </g>
    <g id="xtick_2">
     <g id="line2d_2">
      <g>
       <use xlink:href="#m10d60e3af0" x="392.267446" y="256.32" style="fill: #262626; stroke: #262626; stroke-width: 0.8"/>
      </g>
     </g>
     <g id="text_2">
      <!-- 2 -->
      <g style="fill: #262626" transform="translate(389.486977 270.477813) scale(0.1 -0.1)">
       <defs>
        <path id="ArialMT-32" d="M 3222 541 
L 3222 0 
L 194 0 
Q 188 203 259 391 
Q 375 700 629 1000 
Q 884 1300 1366 1694 
Q 2113 2306 2375 2664 
Q 2638 3022 2638 3341 
Q 2638 3675 2398 3904 
Q 2159 4134 1775 4134 
Q 1369 4134 1125 3890 
Q 881 3647 878 3216 
L 300 3275 
Q 359 3922 746 4261 
Q 1134 4600 1788 4600 
Q 2447 4600 2831 4234 
Q 3216 3869 3216 3328 
Q 3216 3053 3103 2787 
Q 2991 2522 2730 2228 
Q 2469 1934 1863 1422 
Q 1356 997 1212 845 
Q 1069 694 975 541 
L 3222 541 
z
" transform="scale(0.015625)"/>
       </defs>
       <use xlink:href="#ArialMT-32"/>
      </g>
     </g>
    </g>
    <g id="xtick_3">
     <g id="line2d_3">
      <g>
       <use xlink:href="#m10d60e3af0" x="471.020406" y="256.32" style="fill: #262626; stroke: #262626; stroke-width: 0.8"/>
      </g>
     </g>
     <g id="text_3">
      <!-- 5 -->
      <g style="fill: #262626" transform="translate(468.239937 270.477813) scale(0.1 -0.1)">
       <defs>
        <path id="ArialMT-35" d="M 266 1200 
L 856 1250 
Q 922 819 1161 601 
Q 1400 384 1738 384 
Q 2144 384 2425 690 
Q 2706 997 2706 1503 
Q 2706 1984 2436 2262 
Q 2166 2541 1728 2541 
Q 1456 2541 1237 2417 
Q 1019 2294 894 2097 
L 366 2166 
L 809 4519 
L 3088 4519 
L 3088 3981 
L 1259 3981 
L 1013 2750 
Q 1425 3038 1878 3038 
Q 2478 3038 2890 2622 
Q 3303 2206 3303 1553 
Q 3303 931 2941 478 
Q 2500 -78 1738 -78 
Q 1113 -78 717 272 
Q 322 622 266 1200 
z
" transform="scale(0.015625)"/>
       </defs>
       <use xlink:href="#ArialMT-35"/>
      </g>
     </g>
    </g>
    <g id="xtick_4">
     <g id="line2d_4">
      <g>
       <use xlink:href="#m10d60e3af0" x="530.59472" y="256.32" style="fill: #262626; stroke: #262626; stroke-width: 0.8"/>
      </g>
     </g>
     <g id="text_4">
      <!-- 10 -->
      <g style="fill: #262626" transform="translate(525.033782 270.477813) scale(0.1 -0.1)">
       <defs>
        <path id="ArialMT-30" d="M 266 2259 
Q 266 3072 433 3567 
Q 600 4063 929 4331 
Q 1259 4600 1759 4600 
Q 2128 4600 2406 4451 
Q 2684 4303 2865 4023 
Q 3047 3744 3150 3342 
Q 3253 2941 3253 2259 
Q 3253 1453 3087 958 
Q 2922 463 2592 192 
Q 2263 -78 1759 -78 
Q 1097 -78 719 397 
Q 266 969 266 2259 
z
M 844 2259 
Q 844 1131 1108 757 
Q 1372 384 1759 384 
Q 2147 384 2411 759 
Q 2675 1134 2675 2259 
Q 2675 3391 2411 3762 
Q 2147 4134 1753 4134 
Q 1366 4134 1134 3806 
Q 844 3388 844 2259 
z
" transform="scale(0.015625)"/>
       </defs>
       <use xlink:href="#ArialMT-31"/>
       <use xlink:href="#ArialMT-30" transform="translate(55.615234 0)"/>
      </g>
     </g>
    </g>
    <g id="xtick_5">
     <g id="line2d_5">
      <g>
       <use xlink:href="#m10d60e3af0" x="590.169034" y="256.32" style="fill: #262626; stroke: #262626; stroke-width: 0.8"/>
      </g>
     </g>
     <g id="text_5">
      <!-- 20 -->
      <g style="fill: #262626" transform="translate(584.608096 270.477813) scale(0.1 -0.1)">
       <use xlink:href="#ArialMT-32"/>
       <use xlink:href="#ArialMT-30" transform="translate(55.615234 0)"/>
      </g>
     </g>
    </g>
    <g id="xtick_6">
     <g id="line2d_6">
      <g>
       <use xlink:href="#m10d60e3af0" x="668.921993" y="256.32" style="fill: #262626; stroke: #262626; stroke-width: 0.8"/>
      </g>
     </g>
     <g id="text_6">
      <!-- 50 -->
      <g style="fill: #262626" transform="translate(663.361056 270.477813) scale(0.1 -0.1)">
       <use xlink:href="#ArialMT-35"/>
       <use xlink:href="#ArialMT-30" transform="translate(55.615234 0)"/>
      </g>
     </g>
    </g>
    <g id="xtick_7">
     <g id="line2d_7">
      <g>
       <use xlink:href="#m10d60e3af0" x="728.496307" y="256.32" style="fill: #262626; stroke: #262626; stroke-width: 0.8"/>
      </g>
     </g>
     <g id="text_7">
      <!-- 100 -->
      <g style="fill: #262626" transform="translate(720.154901 270.477813) scale(0.1 -0.1)">
       <use xlink:href="#ArialMT-31"/>
       <use xlink:href="#ArialMT-30" transform="translate(55.615234 0)"/>
       <use xlink:href="#ArialMT-30" transform="translate(111.230469 0)"/>
      </g>
     </g>
    </g>
    <g id="xtick_8">
     <g id="line2d_8">
      <g>
       <use xlink:href="#m10d60e3af0" x="788.070621" y="256.32" style="fill: #262626; stroke: #262626; stroke-width: 0.8"/>
      </g>
     </g>
     <g id="text_8">
      <!-- 200 -->
      <g style="fill: #262626" transform="translate(779.729215 270.477813) scale(0.1 -0.1)">
       <use xlink:href="#ArialMT-32"/>
       <use xlink:href="#ArialMT-30" transform="translate(55.615234 0)"/>
       <use xlink:href="#ArialMT-30" transform="translate(111.230469 0)"/>
      </g>
     </g>
    </g>
    <g id="xtick_9">
     <g id="line2d_9">
      <g>
       <use xlink:href="#m10d60e3af0" x="866.823581" y="256.32" style="fill: #262626; stroke: #262626; stroke-width: 0.8"/>
      </g>
     </g>
     <g id="text_9">
      <!-- 500 -->
      <g style="fill: #262626" transform="translate(858.482175 270.477813) scale(0.1 -0.1)">
       <use xlink:href="#ArialMT-35"/>
       <use xlink:href="#ArialMT-30" transform="translate(55.615234 0)"/>
       <use xlink:href="#ArialMT-30" transform="translate(111.230469 0)"/>
      </g>
     </g>
    </g>
    <g id="xtick_10">
     <g id="line2d_10">
      <g>
       <use xlink:href="#m10d60e3af0" x="926.397895" y="256.32" style="fill: #262626; stroke: #262626; stroke-width: 0.8"/>
      </g>
     </g>
     <g id="text_10">
      <!-- 1000 -->
      <g style="fill: #262626" transform="translate(915.27602 270.477813) scale(0.1 -0.1)">
       <use xlink:href="#ArialMT-31"/>
       <use xlink:href="#ArialMT-30" transform="translate(55.615234 0)"/>
       <use xlink:href="#ArialMT-30" transform="translate(111.230469 0)"/>
       <use xlink:href="#ArialMT-30" transform="translate(166.845703 0)"/>
      </g>
     </g>
    </g>
    <g id="xtick_11">
     <g id="line2d_11">
      <defs>
       <path id="mfc6f2968fa" d="M 0 0 
L 0 2 
" style="stroke: #262626; stroke-width: 0.6"/>
      </defs>
      <g>
       <use xlink:href="#mfc6f2968fa" x="194.365858" y="256.32" style="fill: #262626; stroke: #262626; stroke-width: 0.6"/>
      </g>
     </g>
    </g>
    <g id="xtick_12">
     <g id="line2d_12">
      <g>
       <use xlink:href="#mfc6f2968fa" x="229.214598" y="256.32" style="fill: #262626; stroke: #262626; stroke-width: 0.6"/>
      </g>
     </g>
    </g>
    <g id="xtick_13">
     <g id="line2d_13">
      <g>
       <use xlink:href="#mfc6f2968fa" x="253.940173" y="256.32" style="fill: #262626; stroke: #262626; stroke-width: 0.6"/>
      </g>
     </g>
    </g>
    <g id="xtick_14">
     <g id="line2d_14">
      <g>
       <use xlink:href="#mfc6f2968fa" x="273.118818" y="256.32" style="fill: #262626; stroke: #262626; stroke-width: 0.6"/>
      </g>
     </g>
    </g>
    <g id="xtick_15">
     <g id="line2d_15">
      <g>
       <use xlink:href="#mfc6f2968fa" x="288.788912" y="256.32" style="fill: #262626; stroke: #262626; stroke-width: 0.6"/>
      </g>
     </g>
    </g>
    <g id="xtick_16">
     <g id="line2d_16">
      <g>
       <use xlink:href="#mfc6f2968fa" x="302.037788" y="256.32" style="fill: #262626; stroke: #262626; stroke-width: 0.6"/>
      </g>
     </g>
    </g>
    <g id="xtick_17">
     <g id="line2d_17">
      <g>
       <use xlink:href="#mfc6f2968fa" x="313.514487" y="256.32" style="fill: #262626; stroke: #262626; stroke-width: 0.6"/>
      </g>
     </g>
    </g>
    <g id="xtick_18">
     <g id="line2d_18">
      <g>
       <use xlink:href="#mfc6f2968fa" x="323.637652" y="256.32" style="fill: #262626; stroke: #262626; stroke-width: 0.6"/>
      </g>
     </g>
    </g>
    <g id="xtick_19">
     <g id="line2d_19">
      <g>
       <use xlink:href="#mfc6f2968fa" x="427.116186" y="256.32" style="fill: #262626; stroke: #262626; stroke-width: 0.6"/>
      </g>
     </g>
    </g>
    <g id="xtick_20">
     <g id="line2d_20">
      <g>
       <use xlink:href="#mfc6f2968fa" x="451.84176" y="256.32" style="fill: #262626; stroke: #262626; stroke-width: 0.6"/>
      </g>
     </g>
    </g>
    <g id="xtick_21">
     <g id="line2d_21">
      <g>
       <use xlink:href="#mfc6f2968fa" x="486.6905" y="256.32" style="fill: #262626; stroke: #262626; stroke-width: 0.6"/>
      </g>
     </g>
    </g>
    <g id="xtick_22">
     <g id="line2d_22">
      <g>
       <use xlink:href="#mfc6f2968fa" x="499.939376" y="256.32" style="fill: #262626; stroke: #262626; stroke-width: 0.6"/>
      </g>
     </g>
    </g>
    <g id="xtick_23">
     <g id="line2d_23">
      <g>
       <use xlink:href="#mfc6f2968fa" x="511.416074" y="256.32" style="fill: #262626; stroke: #262626; stroke-width: 0.6"/>
      </g>
     </g>
    </g>
    <g id="xtick_24">
     <g id="line2d_24">
      <g>
       <use xlink:href="#mfc6f2968fa" x="521.53924" y="256.32" style="fill: #262626; stroke: #262626; stroke-width: 0.6"/>
      </g>
     </g>
    </g>
    <g id="xtick_25">
     <g id="line2d_25">
      <g>
       <use xlink:href="#mfc6f2968fa" x="625.017773" y="256.32" style="fill: #262626; stroke: #262626; stroke-width: 0.6"/>
      </g>
     </g>
    </g>
    <g id="xtick_26">
     <g id="line2d_26">
      <g>
       <use xlink:href="#mfc6f2968fa" x="649.743348" y="256.32" style="fill: #262626; stroke: #262626; stroke-width: 0.6"/>
      </g>
     </g>
    </g>
    <g id="xtick_27">
     <g id="line2d_27">
      <g>
       <use xlink:href="#mfc6f2968fa" x="684.592087" y="256.32" style="fill: #262626; stroke: #262626; stroke-width: 0.6"/>
      </g>
     </g>
    </g>
    <g id="xtick_28">
     <g id="line2d_28">
      <g>
       <use xlink:href="#mfc6f2968fa" x="697.840963" y="256.32" style="fill: #262626; stroke: #262626; stroke-width: 0.6"/>
      </g>
     </g>
    </g>
    <g id="xtick_29">
     <g id="line2d_29">
      <g>
       <use xlink:href="#mfc6f2968fa" x="709.317662" y="256.32" style="fill: #262626; stroke: #262626; stroke-width: 0.6"/>
      </g>
     </g>
    </g>
    <g id="xtick_30">
     <g id="line2d_30">
      <g>
       <use xlink:href="#mfc6f2968fa" x="719.440827" y="256.32" style="fill: #262626; stroke: #262626; stroke-width: 0.6"/>
      </g>
     </g>
    </g>
    <g id="xtick_31">
     <g id="line2d_31">
      <g>
       <use xlink:href="#mfc6f2968fa" x="822.919361" y="256.32" style="fill: #262626; stroke: #262626; stroke-width: 0.6"/>
      </g>
     </g>
    </g>
    <g id="xtick_32">
     <g id="line2d_32">
      <g>
       <use xlink:href="#mfc6f2968fa" x="847.644935" y="256.32" style="fill: #262626; stroke: #262626; stroke-width: 0.6"/>
      </g>
     </g>
    </g>
    <g id="xtick_33">
     <g id="line2d_33">
      <g>
       <use xlink:href="#mfc6f2968fa" x="882.493675" y="256.32" style="fill: #262626; stroke: #262626; stroke-width: 0.6"/>
      </g>
     </g>
    </g>
    <g id="xtick_34">
     <g id="line2d_34">
      <g>
       <use xlink:href="#mfc6f2968fa" x="895.742551" y="256.32" style="fill: #262626; stroke: #262626; stroke-width: 0.6"/>
      </g>
     </g>
    </g>
    <g id="xtick_35">
     <g id="line2d_35">
      <g>
       <use xlink:href="#mfc6f2968fa" x="907.219249" y="256.32" style="fill: #262626; stroke: #262626; stroke-width: 0.6"/>
      </g>
     </g>
    </g>
    <g id="xtick_36">
     <g id="line2d_36">
      <g>
       <use xlink:href="#mfc6f2968fa" x="917.342415" y="256.32" style="fill: #262626; stroke: #262626; stroke-width: 0.6"/>
      </g>
     </g>
    </g>
    <g id="text_11">
     <!-- Income or consumption (day) -->
     <g style="fill: #262626" transform="translate(488.753906 283.745) scale(0.1 -0.1)">
      <defs>
       <path id="ArialMT-49" d="M 597 0 
L 597 4581 
L 1203 4581 
L 1203 0 
L 597 0 
z
" transform="scale(0.015625)"/>
       <path id="ArialMT-6e" d="M 422 0 
L 422 3319 
L 928 3319 
L 928 2847 
Q 1294 3394 1984 3394 
Q 2284 3394 2536 3286 
Q 2788 3178 2913 3003 
Q 3038 2828 3088 2588 
Q 3119 2431 3119 2041 
L 3119 0 
L 2556 0 
L 2556 2019 
Q 2556 2363 2490 2533 
Q 2425 2703 2258 2804 
Q 2091 2906 1866 2906 
Q 1506 2906 1245 2678 
Q 984 2450 984 1813 
L 984 0 
L 422 0 
z
" transform="scale(0.015625)"/>
       <path id="ArialMT-63" d="M 2588 1216 
L 3141 1144 
Q 3050 572 2676 248 
Q 2303 -75 1759 -75 
Q 1078 -75 664 370 
Q 250 816 250 1647 
Q 250 2184 428 2587 
Q 606 2991 970 3192 
Q 1334 3394 1763 3394 
Q 2303 3394 2647 3120 
Q 2991 2847 3088 2344 
L 2541 2259 
Q 2463 2594 2264 2762 
Q 2066 2931 1784 2931 
Q 1359 2931 1093 2626 
Q 828 2322 828 1663 
Q 828 994 1084 691 
Q 1341 388 1753 388 
Q 2084 388 2306 591 
Q 2528 794 2588 1216 
z
" transform="scale(0.015625)"/>
       <path id="ArialMT-6f" d="M 213 1659 
Q 213 2581 725 3025 
Q 1153 3394 1769 3394 
Q 2453 3394 2887 2945 
Q 3322 2497 3322 1706 
Q 3322 1066 3130 698 
Q 2938 331 2570 128 
Q 2203 -75 1769 -75 
Q 1072 -75 642 372 
Q 213 819 213 1659 
z
M 791 1659 
Q 791 1022 1069 705 
Q 1347 388 1769 388 
Q 2188 388 2466 706 
Q 2744 1025 2744 1678 
Q 2744 2294 2464 2611 
Q 2184 2928 1769 2928 
Q 1347 2928 1069 2612 
Q 791 2297 791 1659 
z
" transform="scale(0.015625)"/>
       <path id="ArialMT-6d" d="M 422 0 
L 422 3319 
L 925 3319 
L 925 2853 
Q 1081 3097 1340 3245 
Q 1600 3394 1931 3394 
Q 2300 3394 2536 3241 
Q 2772 3088 2869 2813 
Q 3263 3394 3894 3394 
Q 4388 3394 4653 3120 
Q 4919 2847 4919 2278 
L 4919 0 
L 4359 0 
L 4359 2091 
Q 4359 2428 4304 2576 
Q 4250 2725 4106 2815 
Q 3963 2906 3769 2906 
Q 3419 2906 3187 2673 
Q 2956 2441 2956 1928 
L 2956 0 
L 2394 0 
L 2394 2156 
Q 2394 2531 2256 2718 
Q 2119 2906 1806 2906 
Q 1569 2906 1367 2781 
Q 1166 2656 1075 2415 
Q 984 2175 984 1722 
L 984 0 
L 422 0 
z
" transform="scale(0.015625)"/>
       <path id="ArialMT-65" d="M 2694 1069 
L 3275 997 
Q 3138 488 2766 206 
Q 2394 -75 1816 -75 
Q 1088 -75 661 373 
Q 234 822 234 1631 
Q 234 2469 665 2931 
Q 1097 3394 1784 3394 
Q 2450 3394 2872 2941 
Q 3294 2488 3294 1666 
Q 3294 1616 3291 1516 
L 816 1516 
Q 847 969 1125 678 
Q 1403 388 1819 388 
Q 2128 388 2347 550 
Q 2566 713 2694 1069 
z
M 847 1978 
L 2700 1978 
Q 2663 2397 2488 2606 
Q 2219 2931 1791 2931 
Q 1403 2931 1139 2672 
Q 875 2413 847 1978 
z
" transform="scale(0.015625)"/>
       <path id="ArialMT-20" transform="scale(0.015625)"/>
       <path id="ArialMT-72" d="M 416 0 
L 416 3319 
L 922 3319 
L 922 2816 
Q 1116 3169 1280 3281 
Q 1444 3394 1641 3394 
Q 1925 3394 2219 3213 
L 2025 2691 
Q 1819 2813 1613 2813 
Q 1428 2813 1281 2702 
Q 1134 2591 1072 2394 
Q 978 2094 978 1738 
L 978 0 
L 416 0 
z
" transform="scale(0.015625)"/>
       <path id="ArialMT-73" d="M 197 991 
L 753 1078 
Q 800 744 1014 566 
Q 1228 388 1613 388 
Q 2000 388 2187 545 
Q 2375 703 2375 916 
Q 2375 1106 2209 1216 
Q 2094 1291 1634 1406 
Q 1016 1563 777 1677 
Q 538 1791 414 1992 
Q 291 2194 291 2438 
Q 291 2659 392 2848 
Q 494 3038 669 3163 
Q 800 3259 1026 3326 
Q 1253 3394 1513 3394 
Q 1903 3394 2198 3281 
Q 2494 3169 2634 2976 
Q 2775 2784 2828 2463 
L 2278 2388 
Q 2241 2644 2061 2787 
Q 1881 2931 1553 2931 
Q 1166 2931 1000 2803 
Q 834 2675 834 2503 
Q 834 2394 903 2306 
Q 972 2216 1119 2156 
Q 1203 2125 1616 2013 
Q 2213 1853 2448 1751 
Q 2684 1650 2818 1456 
Q 2953 1263 2953 975 
Q 2953 694 2789 445 
Q 2625 197 2315 61 
Q 2006 -75 1616 -75 
Q 969 -75 630 194 
Q 291 463 197 991 
z
" transform="scale(0.015625)"/>
       <path id="ArialMT-75" d="M 2597 0 
L 2597 488 
Q 2209 -75 1544 -75 
Q 1250 -75 995 37 
Q 741 150 617 320 
Q 494 491 444 738 
Q 409 903 409 1263 
L 409 3319 
L 972 3319 
L 972 1478 
Q 972 1038 1006 884 
Q 1059 663 1231 536 
Q 1403 409 1656 409 
Q 1909 409 2131 539 
Q 2353 669 2445 892 
Q 2538 1116 2538 1541 
L 2538 3319 
L 3100 3319 
L 3100 0 
L 2597 0 
z
" transform="scale(0.015625)"/>
       <path id="ArialMT-70" d="M 422 -1272 
L 422 3319 
L 934 3319 
L 934 2888 
Q 1116 3141 1344 3267 
Q 1572 3394 1897 3394 
Q 2322 3394 2647 3175 
Q 2972 2956 3137 2557 
Q 3303 2159 3303 1684 
Q 3303 1175 3120 767 
Q 2938 359 2589 142 
Q 2241 -75 1856 -75 
Q 1575 -75 1351 44 
Q 1128 163 984 344 
L 984 -1272 
L 422 -1272 
z
M 931 1641 
Q 931 1000 1190 694 
Q 1450 388 1819 388 
Q 2194 388 2461 705 
Q 2728 1022 2728 1688 
Q 2728 2322 2467 2637 
Q 2206 2953 1844 2953 
Q 1484 2953 1207 2617 
Q 931 2281 931 1641 
z
" transform="scale(0.015625)"/>
       <path id="ArialMT-74" d="M 1650 503 
L 1731 6 
Q 1494 -44 1306 -44 
Q 1000 -44 831 53 
Q 663 150 594 308 
Q 525 466 525 972 
L 525 2881 
L 113 2881 
L 113 3319 
L 525 3319 
L 525 4141 
L 1084 4478 
L 1084 3319 
L 1650 3319 
L 1650 2881 
L 1084 2881 
L 1084 941 
Q 1084 700 1114 631 
Q 1144 563 1211 522 
Q 1278 481 1403 481 
Q 1497 481 1650 503 
z
" transform="scale(0.015625)"/>
       <path id="ArialMT-69" d="M 425 3934 
L 425 4581 
L 988 4581 
L 988 3934 
L 425 3934 
z
M 425 0 
L 425 3319 
L 988 3319 
L 988 0 
L 425 0 
z
" transform="scale(0.015625)"/>
       <path id="ArialMT-28" d="M 1497 -1347 
Q 1031 -759 709 28 
Q 388 816 388 1659 
Q 388 2403 628 3084 
Q 909 3875 1497 4659 
L 1900 4659 
Q 1522 4009 1400 3731 
Q 1209 3300 1100 2831 
Q 966 2247 966 1656 
Q 966 153 1900 -1347 
L 1497 -1347 
z
" transform="scale(0.015625)"/>
       <path id="ArialMT-64" d="M 2575 0 
L 2575 419 
Q 2259 -75 1647 -75 
Q 1250 -75 917 144 
Q 584 363 401 755 
Q 219 1147 219 1656 
Q 219 2153 384 2558 
Q 550 2963 881 3178 
Q 1213 3394 1622 3394 
Q 1922 3394 2156 3267 
Q 2391 3141 2538 2938 
L 2538 4581 
L 3097 4581 
L 3097 0 
L 2575 0 
z
M 797 1656 
Q 797 1019 1065 703 
Q 1334 388 1700 388 
Q 2069 388 2326 689 
Q 2584 991 2584 1609 
Q 2584 2291 2321 2609 
Q 2059 2928 1675 2928 
Q 1300 2928 1048 2622 
Q 797 2316 797 1656 
z
" transform="scale(0.015625)"/>
       <path id="ArialMT-61" d="M 2588 409 
Q 2275 144 1986 34 
Q 1697 -75 1366 -75 
Q 819 -75 525 192 
Q 231 459 231 875 
Q 231 1119 342 1320 
Q 453 1522 633 1644 
Q 813 1766 1038 1828 
Q 1203 1872 1538 1913 
Q 2219 1994 2541 2106 
Q 2544 2222 2544 2253 
Q 2544 2597 2384 2738 
Q 2169 2928 1744 2928 
Q 1347 2928 1158 2789 
Q 969 2650 878 2297 
L 328 2372 
Q 403 2725 575 2942 
Q 747 3159 1072 3276 
Q 1397 3394 1825 3394 
Q 2250 3394 2515 3294 
Q 2781 3194 2906 3042 
Q 3031 2891 3081 2659 
Q 3109 2516 3109 2141 
L 3109 1391 
Q 3109 606 3145 398 
Q 3181 191 3288 0 
L 2700 0 
Q 2613 175 2588 409 
z
M 2541 1666 
Q 2234 1541 1622 1453 
Q 1275 1403 1131 1340 
Q 988 1278 909 1158 
Q 831 1038 831 891 
Q 831 666 1001 516 
Q 1172 366 1500 366 
Q 1825 366 2078 508 
Q 2331 650 2450 897 
Q 2541 1088 2541 1459 
L 2541 1666 
z
" transform="scale(0.015625)"/>
       <path id="ArialMT-79" d="M 397 -1278 
L 334 -750 
Q 519 -800 656 -800 
Q 844 -800 956 -737 
Q 1069 -675 1141 -563 
Q 1194 -478 1313 -144 
Q 1328 -97 1363 -6 
L 103 3319 
L 709 3319 
L 1400 1397 
Q 1534 1031 1641 628 
Q 1738 1016 1872 1384 
L 2581 3319 
L 3144 3319 
L 1881 -56 
Q 1678 -603 1566 -809 
Q 1416 -1088 1222 -1217 
Q 1028 -1347 759 -1347 
Q 597 -1347 397 -1278 
z
" transform="scale(0.015625)"/>
       <path id="ArialMT-29" d="M 791 -1347 
L 388 -1347 
Q 1322 153 1322 1656 
Q 1322 2244 1188 2822 
Q 1081 3291 891 3722 
Q 769 4003 388 4659 
L 791 4659 
Q 1378 3875 1659 3084 
Q 1900 2403 1900 1659 
Q 1900 816 1576 28 
Q 1253 -759 791 -1347 
z
" transform="scale(0.015625)"/>
      </defs>
      <use xlink:href="#ArialMT-49"/>
      <use xlink:href="#ArialMT-6e" transform="translate(27.783203 0)"/>
      <use xlink:href="#ArialMT-63" transform="translate(83.398438 0)"/>
      <use xlink:href="#ArialMT-6f" transform="translate(133.398438 0)"/>
      <use xlink:href="#ArialMT-6d" transform="translate(189.013672 0)"/>
      <use xlink:href="#ArialMT-65" transform="translate(272.314453 0)"/>
      <use xlink:href="#ArialMT-20" transform="translate(327.929688 0)"/>
      <use xlink:href="#ArialMT-6f" transform="translate(355.712891 0)"/>
      <use xlink:href="#ArialMT-72" transform="translate(411.328125 0)"/>
      <use xlink:href="#ArialMT-20" transform="translate(444.628906 0)"/>
      <use xlink:href="#ArialMT-63" transform="translate(472.412109 0)"/>
      <use xlink:href="#ArialMT-6f" transform="translate(522.412109 0)"/>
      <use xlink:href="#ArialMT-6e" transform="translate(578.027344 0)"/>
      <use xlink:href="#ArialMT-73" transform="translate(633.642578 0)"/>
      <use xlink:href="#ArialMT-75" transform="translate(683.642578 0)"/>
      <use xlink:href="#ArialMT-6d" transform="translate(739.257812 0)"/>
      <use xlink:href="#ArialMT-70" transform="translate(822.558594 0)"/>
      <use xlink:href="#ArialMT-74" transform="translate(878.173828 0)"/>
      <use xlink:href="#ArialMT-69" transform="translate(905.957031 0)"/>
      <use xlink:href="#ArialMT-6f" transform="translate(928.173828 0)"/>
      <use xlink:href="#ArialMT-6e" transform="translate(983.789062 0)"/>
      <use xlink:href="#ArialMT-20" transform="translate(1039.404297 0)"/>
      <use xlink:href="#ArialMT-28" transform="translate(1067.1875 0)"/>
      <use xlink:href="#ArialMT-64" transform="translate(1100.488281 0)"/>
      <use xlink:href="#ArialMT-61" transform="translate(1156.103516 0)"/>
      <use xlink:href="#ArialMT-79" transform="translate(1211.71875 0)"/>
      <use xlink:href="#ArialMT-29" transform="translate(1261.71875 0)"/>
     </g>
    </g>
   </g>
   <g id="matplotlib.axis_2"/>
   <g id="FillBetweenPolyCollection_1">
    <defs>
     <path id="mf586c34b1d" d="M 173.045455 -31.775948 
L 173.045455 -31.68 
L 175.931275 -31.68 
L 178.817095 -31.68 
L 181.702915 -31.68 
L 184.588735 -31.68 
L 187.474555 -31.68 
L 190.360375 -31.68 
L 193.246195 -31.68 
L 196.132015 -31.68 
L 199.017835 -31.68 
L 201.903655 -31.68 
L 204.789475 -31.68 
L 207.675295 -31.68 
L 210.561115 -31.68 
L 213.446935 -31.68 
L 216.332755 -31.68 
L 219.218575 -31.68 
L 222.104396 -31.68 
L 224.990216 -31.68 
L 227.876036 -31.68 
L 230.761856 -31.68 
L 233.647676 -31.68 
L 236.533496 -31.68 
L 239.419316 -31.68 
L 242.305136 -31.68 
L 245.190956 -31.68 
L 248.076776 -31.68 
L 250.962596 -31.68 
L 253.848416 -31.68 
L 256.734236 -31.68 
L 259.620056 -31.68 
L 262.505876 -31.68 
L 265.391696 -31.68 
L 268.277517 -31.68 
L 271.163337 -31.68 
L 274.049157 -31.68 
L 276.934977 -31.68 
L 279.820797 -31.68 
L 282.706617 -31.68 
L 285.592437 -31.68 
L 288.478257 -31.68 
L 291.364077 -31.68 
L 294.249897 -31.68 
L 297.135717 -31.68 
L 300.021537 -31.68 
L 302.907357 -31.68 
L 305.793177 -31.68 
L 308.678997 -31.68 
L 311.564817 -31.68 
L 314.450637 -31.68 
L 317.336458 -31.68 
L 320.222278 -31.68 
L 323.108098 -31.68 
L 325.993918 -31.68 
L 328.879738 -31.68 
L 331.765558 -31.68 
L 334.651378 -31.68 
L 337.537198 -31.68 
L 340.423018 -31.68 
L 343.308838 -31.68 
L 346.194658 -31.68 
L 349.080478 -31.68 
L 351.966298 -31.68 
L 354.852118 -31.68 
L 357.737938 -31.68 
L 360.623758 -31.68 
L 363.509578 -31.68 
L 366.395399 -31.68 
L 369.281219 -31.68 
L 372.167039 -31.68 
L 375.052859 -31.68 
L 377.938679 -31.68 
L 380.824499 -31.68 
L 383.710319 -31.68 
L 386.596139 -31.68 
L 389.481959 -31.68 
L 392.367779 -31.68 
L 395.253599 -31.68 
L 398.139419 -31.68 
L 401.025239 -31.68 
L 403.911059 -31.68 
L 406.796879 -31.68 
L 409.682699 -31.68 
L 412.568519 -31.68 
L 415.45434 -31.68 
L 418.34016 -31.68 
L 421.22598 -31.68 
L 424.1118 -31.68 
L 426.99762 -31.68 
L 429.88344 -31.68 
L 432.76926 -31.68 
L 435.65508 -31.68 
L 438.5409 -31.68 
L 441.42672 -31.68 
L 444.31254 -31.68 
L 447.19836 -31.68 
L 450.08418 -31.68 
L 452.97 -31.68 
L 455.85582 -31.68 
L 458.74164 -31.68 
L 461.62746 -31.68 
L 464.513281 -31.68 
L 467.399101 -31.68 
L 470.284921 -31.68 
L 473.170741 -31.68 
L 476.056561 -31.68 
L 478.942381 -31.68 
L 481.828201 -31.68 
L 484.714021 -31.68 
L 487.599841 -31.68 
L 490.485661 -31.68 
L 493.371481 -31.68 
L 496.257301 -31.68 
L 499.143121 -31.68 
L 502.028941 -31.68 
L 504.914761 -31.68 
L 507.800581 -31.68 
L 510.686401 -31.68 
L 513.572222 -31.68 
L 516.458042 -31.68 
L 519.343862 -31.68 
L 522.229682 -31.68 
L 525.115502 -31.68 
L 528.001322 -31.68 
L 530.887142 -31.68 
L 533.772962 -31.68 
L 536.658782 -31.68 
L 539.544602 -31.68 
L 542.430422 -31.68 
L 545.316242 -31.68 
L 548.202062 -31.68 
L 551.087882 -31.68 
L 553.973702 -31.68 
L 556.859522 -31.68 
L 559.745342 -31.68 
L 562.631163 -31.68 
L 565.516983 -31.68 
L 568.402803 -31.68 
L 571.288623 -31.68 
L 574.174443 -31.68 
L 577.060263 -31.68 
L 579.946083 -31.68 
L 582.831903 -31.68 
L 585.717723 -31.68 
L 588.603543 -31.68 
L 591.489363 -31.68 
L 594.375183 -31.68 
L 597.261003 -31.68 
L 600.146823 -31.68 
L 603.032643 -31.68 
L 605.918463 -31.68 
L 608.804284 -31.68 
L 611.690104 -31.68 
L 614.575924 -31.68 
L 617.461744 -31.68 
L 620.347564 -31.68 
L 623.233384 -31.68 
L 626.119204 -31.68 
L 629.005024 -31.68 
L 631.890844 -31.68 
L 634.776664 -31.68 
L 637.662484 -31.68 
L 640.548304 -31.68 
L 643.434124 -31.68 
L 646.319944 -31.68 
L 649.205764 -31.68 
L 652.091584 -31.68 
L 654.977404 -31.68 
L 657.863225 -31.68 
L 660.749045 -31.68 
L 663.634865 -31.68 
L 666.520685 -31.68 
L 669.406505 -31.68 
L 672.292325 -31.68 
L 675.178145 -31.68 
L 678.063965 -31.68 
L 680.949785 -31.68 
L 683.835605 -31.68 
L 686.721425 -31.68 
L 689.607245 -31.68 
L 692.493065 -31.68 
L 695.378885 -31.68 
L 698.264705 -31.68 
L 701.150525 -31.68 
L 704.036345 -31.68 
L 706.922166 -31.68 
L 709.807986 -31.68 
L 712.693806 -31.68 
L 715.579626 -31.68 
L 718.465446 -31.68 
L 721.351266 -31.68 
L 724.237086 -31.68 
L 727.122906 -31.68 
L 730.008726 -31.68 
L 732.894546 -31.68 
L 735.780366 -31.68 
L 738.666186 -31.68 
L 741.552006 -31.68 
L 744.437826 -31.68 
L 747.323646 -31.68 
L 747.323646 -31.685483 
L 747.323646 -31.685483 
L 744.437826 -31.68917 
L 741.552006 -31.694867 
L 738.666186 -31.703363 
L 735.780366 -31.715585 
L 732.894546 -31.732535 
L 730.008726 -31.755176 
L 727.122906 -31.784268 
L 724.237086 -31.820173 
L 721.351266 -31.862652 
L 718.465446 -31.910691 
L 715.579626 -31.962409 
L 712.693806 -32.015098 
L 709.807986 -32.065399 
L 706.922166 -32.109628 
L 704.036345 -32.144215 
L 701.150525 -32.166173 
L 698.264705 -32.173522 
L 695.378885 -32.165586 
L 692.493065 -32.143096 
L 689.607245 -32.108075 
L 686.721425 -32.063543 
L 683.835605 -32.013082 
L 680.949785 -31.960372 
L 678.063965 -31.90875 
L 675.178145 -31.860898 
L 672.292325 -31.818661 
L 669.406505 -31.783023 
L 666.520685 -31.754198 
L 663.634865 -31.731811 
L 660.749045 -31.715098 
L 657.863225 -31.703111 
L 654.977404 -31.694886 
L 652.091584 -31.68956 
L 649.205764 -31.686457 
L 646.319944 -31.685136 
L 643.434124 -31.685418 
L 640.548304 -31.687415 
L 637.662484 -31.691555 
L 634.776664 -31.698618 
L 631.890844 -31.709767 
L 629.005024 -31.726568 
L 626.119204 -31.750983 
L 623.233384 -31.785301 
L 620.347564 -31.832012 
L 617.461744 -31.893596 
L 614.575924 -31.972237 
L 611.690104 -32.069491 
L 608.804284 -32.185954 
L 605.918463 -32.320986 
L 603.032643 -32.472569 
L 600.146823 -32.637364 
L 597.261003 -32.810995 
L 594.375183 -32.988576 
L 591.489363 -33.165414 
L 588.603543 -33.337793 
L 585.717723 -33.503706 
L 582.831903 -33.66338 
L 579.946083 -33.819468 
L 577.060263 -33.976843 
L 574.174443 -34.141982 
L 571.288623 -34.322039 
L 568.402803 -34.523758 
L 565.516983 -34.752428 
L 562.631163 -35.011086 
L 559.745342 -35.300101 
L 556.859522 -35.617238 
L 553.973702 -35.958156 
L 551.087882 -36.317229 
L 548.202062 -36.688542 
L 545.316242 -37.066841 
L 542.430422 -37.448317 
L 539.544602 -37.831097 
L 536.658782 -38.215436 
L 533.772962 -38.603645 
L 530.887142 -38.999827 
L 528.001322 -39.409519 
L 525.115502 -39.83929 
L 522.229682 -40.296344 
L 519.343862 -40.788125 
L 516.458042 -41.321911 
L 513.572222 -41.904393 
L 510.686401 -42.541245 
L 507.800581 -43.236728 
L 504.914761 -43.993407 
L 502.028941 -44.812052 
L 499.143121 -45.691821 
L 496.257301 -46.630765 
L 493.371481 -47.626655 
L 490.485661 -48.678031 
L 487.599841 -49.78533 
L 484.714021 -50.951829 
L 481.828201 -52.184174 
L 478.942381 -53.492288 
L 476.056561 -54.888532 
L 473.170741 -56.386216 
L 470.284921 -57.99766 
L 467.399101 -59.732176 
L 464.513281 -61.594386 
L 461.62746 -63.58322 
L 458.74164 -65.691821 
L 455.85582 -67.90838 
L 452.97 -70.217742 
L 450.08418 -72.603493 
L 447.19836 -75.050197 
L 444.31254 -77.545449 
L 441.42672 -80.081507 
L 438.5409 -82.656299 
L 435.65508 -85.273689 
L 432.76926 -87.942917 
L 429.88344 -90.677195 
L 426.99762 -93.491537 
L 424.1118 -96.400054 
L 421.22598 -99.413084 
L 418.34016 -102.534676 
L 415.45434 -105.76092 
L 412.568519 -109.079543 
L 409.682699 -112.470884 
L 406.796879 -115.910087 
L 403.911059 -119.369999 
L 401.025239 -122.824143 
L 398.139419 -126.249081 
L 395.253599 -129.625726 
L 392.367779 -132.939433 
L 389.481959 -136.179041 
L 386.596139 -139.33525 
L 383.710319 -142.398809 
L 380.824499 -145.358895 
L 377.938679 -148.20189 
L 375.052859 -150.910548 
L 372.167039 -153.463453 
L 369.281219 -155.83464 
L 366.395399 -157.993376 
L 363.509578 -159.904266 
L 360.623758 -161.52793 
L 357.737938 -162.822524 
L 354.852118 -163.746219 
L 351.966298 -164.260501 
L 349.080478 -164.333906 
L 346.194658 -163.945577 
L 343.308838 -163.088024 
L 340.423018 -161.768552 
L 337.537198 -160.009094 
L 334.651378 -157.844473 
L 331.765558 -155.319384 
L 328.879738 -152.484564 
L 325.993918 -149.392699 
L 323.108098 -146.094589 
L 320.222278 -142.636003 
L 317.336458 -139.055593 
L 314.450637 -135.38403 
L 311.564817 -131.644426 
L 308.678997 -127.853877 
L 305.793177 -124.025784 
L 302.907357 -120.172426 
L 300.021537 -116.307233 
L 297.135717 -112.446185 
L 294.249897 -108.608045 
L 291.364077 -104.813348 
L 288.478257 -101.082448 
L 285.592437 -97.433162 
L 282.706617 -93.878669 
L 279.820797 -90.426305 
L 276.934977 -87.077629 
L 274.049157 -83.829863 
L 271.163337 -80.678435 
L 268.277517 -77.620074 
L 265.391696 -74.655761 
L 262.505876 -71.792823 
L 259.620056 -69.045611 
L 256.734236 -66.434444 
L 253.848416 -63.982846 
L 250.962596 -61.71342 
L 248.076776 -59.643017 
L 245.190956 -57.77806 
L 242.305136 -56.110994 
L 239.419316 -54.618703 
L 236.533496 -53.263507 
L 233.647676 -51.996864 
L 230.761856 -50.76539 
L 227.876036 -49.518268 
L 224.990216 -48.214748 
L 222.104396 -46.830307 
L 219.218575 -45.360262 
L 216.332755 -43.82013 
L 213.446935 -42.242682 
L 210.561115 -40.672357 
L 207.675295 -39.158191 
L 204.789475 -37.74665 
L 201.903655 -36.475644 
L 199.017835 -35.370609 
L 196.132015 -34.443023 
L 193.246195 -33.691168 
L 190.360375 -33.10259 
L 187.474555 -32.657478 
L 184.588735 -32.332214 
L 181.702915 -32.102487 
L 178.817095 -31.945631 
L 175.931275 -31.842072 
L 173.045455 -31.775948 
z
" style="stroke: #dd8452"/>
    </defs>
    <g clip-path="url(#p0bc65e67dc)">
     <use xlink:href="#mf586c34b1d" x="0" y="288" style="fill: #dd8452; fill-opacity: 0.25; stroke: #dd8452"/>
    </g>
   </g>
   <g id="FillBetweenPolyCollection_2">
    <defs>
     <path id="mce2edafa25" d="M 180.45573 -31.687979 
L 180.45573 -31.68 
L 184.242156 -31.68 
L 188.028583 -31.68 
L 191.815009 -31.68 
L 195.601435 -31.68 
L 199.387861 -31.68 
L 203.174287 -31.68 
L 206.960714 -31.68 
L 210.74714 -31.68 
L 214.533566 -31.68 
L 218.319992 -31.68 
L 222.106418 -31.68 
L 225.892845 -31.68 
L 229.679271 -31.68 
L 233.465697 -31.68 
L 237.252123 -31.68 
L 241.03855 -31.68 
L 244.824976 -31.68 
L 248.611402 -31.68 
L 252.397828 -31.68 
L 256.184254 -31.68 
L 259.970681 -31.68 
L 263.757107 -31.68 
L 267.543533 -31.68 
L 271.329959 -31.68 
L 275.116385 -31.68 
L 278.902812 -31.68 
L 282.689238 -31.68 
L 286.475664 -31.68 
L 290.26209 -31.68 
L 294.048516 -31.68 
L 297.834943 -31.68 
L 301.621369 -31.68 
L 305.407795 -31.68 
L 309.194221 -31.68 
L 312.980647 -31.68 
L 316.767074 -31.68 
L 320.5535 -31.68 
L 324.339926 -31.68 
L 328.126352 -31.68 
L 331.912779 -31.68 
L 335.699205 -31.68 
L 339.485631 -31.68 
L 343.272057 -31.68 
L 347.058483 -31.68 
L 350.84491 -31.68 
L 354.631336 -31.68 
L 358.417762 -31.68 
L 362.204188 -31.68 
L 365.990614 -31.68 
L 369.777041 -31.68 
L 373.563467 -31.68 
L 377.349893 -31.68 
L 381.136319 -31.68 
L 384.922745 -31.68 
L 388.709172 -31.68 
L 392.495598 -31.68 
L 396.282024 -31.68 
L 400.06845 -31.68 
L 403.854876 -31.68 
L 407.641303 -31.68 
L 411.427729 -31.68 
L 415.214155 -31.68 
L 419.000581 -31.68 
L 422.787007 -31.68 
L 426.573434 -31.68 
L 430.35986 -31.68 
L 434.146286 -31.68 
L 437.932712 -31.68 
L 441.719139 -31.68 
L 445.505565 -31.68 
L 449.291991 -31.68 
L 453.078417 -31.68 
L 456.864843 -31.68 
L 460.65127 -31.68 
L 464.437696 -31.68 
L 468.224122 -31.68 
L 472.010548 -31.68 
L 475.796974 -31.68 
L 479.583401 -31.68 
L 483.369827 -31.68 
L 487.156253 -31.68 
L 490.942679 -31.68 
L 494.729105 -31.68 
L 498.515532 -31.68 
L 502.301958 -31.68 
L 506.088384 -31.68 
L 509.87481 -31.68 
L 513.661236 -31.68 
L 517.447663 -31.68 
L 521.234089 -31.68 
L 525.020515 -31.68 
L 528.806941 -31.68 
L 532.593367 -31.68 
L 536.379794 -31.68 
L 540.16622 -31.68 
L 543.952646 -31.68 
L 547.739072 -31.68 
L 551.525499 -31.68 
L 555.311925 -31.68 
L 559.098351 -31.68 
L 562.884777 -31.68 
L 566.671203 -31.68 
L 570.45763 -31.68 
L 574.244056 -31.68 
L 578.030482 -31.68 
L 581.816908 -31.68 
L 585.603334 -31.68 
L 589.389761 -31.68 
L 593.176187 -31.68 
L 596.962613 -31.68 
L 600.749039 -31.68 
L 604.535465 -31.68 
L 608.321892 -31.68 
L 612.108318 -31.68 
L 615.894744 -31.68 
L 619.68117 -31.68 
L 623.467596 -31.68 
L 627.254023 -31.68 
L 631.040449 -31.68 
L 634.826875 -31.68 
L 638.613301 -31.68 
L 642.399727 -31.68 
L 646.186154 -31.68 
L 649.97258 -31.68 
L 653.759006 -31.68 
L 657.545432 -31.68 
L 661.331859 -31.68 
L 665.118285 -31.68 
L 668.904711 -31.68 
L 672.691137 -31.68 
L 676.477563 -31.68 
L 680.26399 -31.68 
L 684.050416 -31.68 
L 687.836842 -31.68 
L 691.623268 -31.68 
L 695.409694 -31.68 
L 699.196121 -31.68 
L 702.982547 -31.68 
L 706.768973 -31.68 
L 710.555399 -31.68 
L 714.341825 -31.68 
L 718.128252 -31.68 
L 721.914678 -31.68 
L 725.701104 -31.68 
L 729.48753 -31.68 
L 733.273956 -31.68 
L 737.060383 -31.68 
L 740.846809 -31.68 
L 744.633235 -31.68 
L 748.419661 -31.68 
L 752.206088 -31.68 
L 755.992514 -31.68 
L 759.77894 -31.68 
L 763.565366 -31.68 
L 767.351792 -31.68 
L 771.138219 -31.68 
L 774.924645 -31.68 
L 778.711071 -31.68 
L 782.497497 -31.68 
L 786.283923 -31.68 
L 790.07035 -31.68 
L 793.856776 -31.68 
L 797.643202 -31.68 
L 801.429628 -31.68 
L 805.216054 -31.68 
L 809.002481 -31.68 
L 812.788907 -31.68 
L 816.575333 -31.68 
L 820.361759 -31.68 
L 824.148185 -31.68 
L 827.934612 -31.68 
L 831.721038 -31.68 
L 835.507464 -31.68 
L 839.29389 -31.68 
L 843.080316 -31.68 
L 846.866743 -31.68 
L 850.653169 -31.68 
L 854.439595 -31.68 
L 858.226021 -31.68 
L 862.012448 -31.68 
L 865.798874 -31.68 
L 869.5853 -31.68 
L 873.371726 -31.68 
L 877.158152 -31.68 
L 880.944579 -31.68 
L 884.731005 -31.68 
L 888.517431 -31.68 
L 892.303857 -31.68 
L 896.090283 -31.68 
L 899.87671 -31.68 
L 903.663136 -31.68 
L 907.449562 -31.68 
L 911.235988 -31.68 
L 915.022414 -31.68 
L 918.808841 -31.68 
L 922.595267 -31.68 
L 926.381693 -31.68 
L 930.168119 -31.68 
L 933.954545 -31.68 
L 933.954545 -31.687979 
L 933.954545 -31.687979 
L 930.168119 -31.700738 
L 926.381693 -31.728103 
L 922.595267 -31.779573 
L 918.808841 -31.863944 
L 915.022414 -31.983252 
L 911.235988 -32.126174 
L 907.449562 -32.265874 
L 903.663136 -32.366709 
L 899.87671 -32.398851 
L 896.090283 -32.353266 
L 892.303857 -32.24762 
L 888.517431 -32.119424 
L 884.731005 -32.011252 
L 880.944579 -31.956602 
L 877.158152 -31.971618 
L 873.371726 -32.052387 
L 869.5853 -32.176081 
L 865.798874 -32.306798 
L 862.012448 -32.408183 
L 858.226021 -32.460763 
L 854.439595 -32.4755 
L 850.653169 -32.49341 
L 846.866743 -32.568029 
L 843.080316 -32.738653 
L 839.29389 -33.009381 
L 835.507464 -33.346422 
L 831.721038 -33.695393 
L 827.934612 -34.008399 
L 824.148185 -34.265835 
L 820.361759 -34.483101 
L 816.575333 -34.70291 
L 812.788907 -34.980688 
L 809.002481 -35.370011 
L 805.216054 -35.910609 
L 801.429628 -36.619523 
L 797.643202 -37.487943 
L 793.856776 -38.48831 
L 790.07035 -39.593446 
L 786.283923 -40.80148 
L 782.497497 -42.153909 
L 778.711071 -43.737289 
L 774.924645 -45.670841 
L 771.138219 -48.090441 
L 767.351792 -51.134615 
L 763.565366 -54.927036 
L 759.77894 -59.550647 
L 755.992514 -65.025285 
L 752.206088 -71.312812 
L 748.419661 -78.356942 
L 744.633235 -86.126655 
L 740.846809 -94.614438 
L 737.060383 -103.776116 
L 733.273956 -113.46476 
L 729.48753 -123.440051 
L 725.701104 -133.482384 
L 721.914678 -143.542021 
L 718.128252 -153.798617 
L 714.341825 -164.556488 
L 710.555399 -176.02209 
L 706.768973 -188.100774 
L 702.982547 -200.336797 
L 699.196121 -212.023659 
L 695.409694 -222.41289 
L 691.623268 -230.912024 
L 687.836842 -237.189377 
L 684.050416 -241.159892 
L 680.26399 -242.88 
L 676.477563 -242.413459 
L 672.691137 -239.736458 
L 668.904711 -234.728644 
L 665.118285 -227.255437 
L 661.331859 -217.301718 
L 657.545432 -205.087735 
L 653.759006 -191.104783 
L 649.97258 -176.053556 
L 646.186154 -160.722245 
L 642.399727 -145.861838 
L 638.613301 -132.092237 
L 634.826875 -119.838622 
L 631.040449 -109.289616 
L 627.254023 -100.385495 
L 623.467596 -92.85577 
L 619.68117 -86.311058 
L 615.894744 -80.364533 
L 612.108318 -74.738454 
L 608.321892 -69.317249 
L 604.535465 -64.135732 
L 600.749039 -59.320226 
L 596.962613 -55.014425 
L 593.176187 -51.317512 
L 589.389761 -48.249198 
L 585.603334 -45.745932 
L 581.816908 -43.686034 
L 578.030482 -41.933561 
L 574.244056 -40.381843 
L 570.45763 -38.976835 
L 566.671203 -37.713009 
L 562.884777 -36.611195 
L 559.098351 -35.69392 
L 555.311925 -34.967585 
L 551.525499 -34.413403 
L 547.739072 -33.98823 
L 543.952646 -33.6372 
L 540.16622 -33.314987 
L 536.379794 -33.004639 
L 532.593367 -32.721767 
L 528.806941 -32.500636 
L 525.020515 -32.370243 
L 521.234089 -32.333967 
L 517.447663 -32.363392 
L 513.661236 -32.408908 
L 509.87481 -32.421186 
L 506.088384 -32.372027 
L 502.301958 -32.263596 
L 498.515532 -32.122249 
L 494.729105 -31.982745 
L 490.942679 -31.873565 
L 487.156253 -31.81084 
L 483.369827 -31.800668 
L 479.583401 -31.84377 
L 475.796974 -31.936465 
L 472.010548 -32.066779 
L 468.224122 -32.210108 
L 464.437696 -32.331054 
L 460.65127 -32.394229 
L 456.864843 -32.379388 
L 453.078417 -32.291211 
L 449.291991 -32.156695 
L 445.505565 -32.011791 
L 441.719139 -31.886092 
L 437.932712 -31.794243 
L 434.146286 -31.736516 
L 430.35986 -31.704951 
L 426.573434 -31.68983 
L 422.787007 -31.683456 
L 419.000581 -31.681085 
L 415.214155 -31.680304 
L 411.427729 -31.680076 
L 407.641303 -31.680017 
L 403.854876 -31.680003 
L 400.06845 -31.680001 
L 396.282024 -31.68 
L 392.495598 -31.68 
L 388.709172 -31.68 
L 384.922745 -31.68 
L 381.136319 -31.68 
L 377.349893 -31.68 
L 373.563467 -31.68 
L 369.777041 -31.68 
L 365.990614 -31.68 
L 362.204188 -31.68 
L 358.417762 -31.68 
L 354.631336 -31.68 
L 350.84491 -31.68 
L 347.058483 -31.68 
L 343.272057 -31.68 
L 339.485631 -31.68 
L 335.699205 -31.68 
L 331.912779 -31.68 
L 328.126352 -31.68 
L 324.339926 -31.68 
L 320.5535 -31.68 
L 316.767074 -31.68 
L 312.980647 -31.68 
L 309.194221 -31.68 
L 305.407795 -31.68 
L 301.621369 -31.68 
L 297.834943 -31.68 
L 294.048516 -31.68 
L 290.26209 -31.68 
L 286.475664 -31.68 
L 282.689238 -31.68 
L 278.902812 -31.68 
L 275.116385 -31.68 
L 271.329959 -31.680002 
L 267.543533 -31.680009 
L 263.757107 -31.680041 
L 259.970681 -31.680171 
L 256.184254 -31.680642 
L 252.397828 -31.682146 
L 248.611402 -31.686403 
L 244.824976 -31.697055 
L 241.03855 -31.720539 
L 237.252123 -31.765991 
L 233.465697 -31.842784 
L 229.679271 -31.955005 
L 225.892845 -32.094614 
L 222.106418 -32.237852 
L 218.319992 -32.349835 
L 214.533566 -32.397775 
L 210.74714 -32.366408 
L 206.960714 -32.265799 
L 203.174287 -32.126157 
L 199.387861 -31.983249 
L 195.601435 -31.863943 
L 191.815009 -31.779573 
L 188.028583 -31.728103 
L 184.242156 -31.700738 
L 180.45573 -31.687979 
z
" style="stroke: #4c72b0"/>
    </defs>
    <g clip-path="url(#p0bc65e67dc)">
     <use xlink:href="#mce2edafa25" x="0" y="288" style="fill: #4c72b0; fill-opacity: 0.25; stroke: #4c72b0"/>
    </g>
   </g>
   <g id="line2d_37">
    <path d="M 398.483231 256.32 
L 398.483231 34.56 
" clip-path="url(#p0bc65e67dc)" style="fill: none; stroke-dasharray: 2.96,1.28; stroke-dashoffset: 0; stroke: #d3d3d3; stroke-width: 0.8"/>
   </g>
   <g id="line2d_38">
    <path d="M 586.591385 256.32 
L 586.591385 34.56 
" clip-path="url(#p0bc65e67dc)" style="fill: none; stroke-dasharray: 2.96,1.28; stroke-dashoffset: 0; stroke: #d3d3d3; stroke-width: 0.8"/>
   </g>
   <g id="line2d_39">
    <path d="M 514.060823 256.32 
L 514.060823 34.56 
" clip-path="url(#p0bc65e67dc)" style="fill: none; stroke-dasharray: 2.96,1.28; stroke-dashoffset: 0; stroke: #d3d3d3; stroke-width: 0.8"/>
   </g>
   <g id="line2d_40">
    <path d="M 135 256.32 
L 972 256.32 
" clip-path="url(#p0bc65e67dc)" style="fill: none; stroke: #808080; stroke-width: 0.5; stroke-linecap: round"/>
   </g>
   <g id="text_12">
    <!-- International Poverty Line: $2.15 -->
    <g style="fill: #808080" transform="translate(404.736981 151.95635) rotate(-90) scale(0.08 -0.08)">
     <defs>
      <path id="ArialMT-6c" d="M 409 0 
L 409 4581 
L 972 4581 
L 972 0 
L 409 0 
z
" transform="scale(0.015625)"/>
      <path id="ArialMT-50" d="M 494 0 
L 494 4581 
L 2222 4581 
Q 2678 4581 2919 4538 
Q 3256 4481 3484 4323 
Q 3713 4166 3852 3881 
Q 3991 3597 3991 3256 
Q 3991 2672 3619 2267 
Q 3247 1863 2275 1863 
L 1100 1863 
L 1100 0 
L 494 0 
z
M 1100 2403 
L 2284 2403 
Q 2872 2403 3119 2622 
Q 3366 2841 3366 3238 
Q 3366 3525 3220 3729 
Q 3075 3934 2838 4000 
Q 2684 4041 2272 4041 
L 1100 4041 
L 1100 2403 
z
" transform="scale(0.015625)"/>
      <path id="ArialMT-76" d="M 1344 0 
L 81 3319 
L 675 3319 
L 1388 1331 
Q 1503 1009 1600 663 
Q 1675 925 1809 1294 
L 2547 3319 
L 3125 3319 
L 1869 0 
L 1344 0 
z
" transform="scale(0.015625)"/>
      <path id="ArialMT-4c" d="M 469 0 
L 469 4581 
L 1075 4581 
L 1075 541 
L 3331 541 
L 3331 0 
L 469 0 
z
" transform="scale(0.015625)"/>
      <path id="ArialMT-3a" d="M 578 2678 
L 578 3319 
L 1219 3319 
L 1219 2678 
L 578 2678 
z
M 578 0 
L 578 641 
L 1219 641 
L 1219 0 
L 578 0 
z
" transform="scale(0.015625)"/>
      <path id="ArialMT-24" d="M 1594 -659 
L 1594 -97 
Q 1172 -44 908 92 
Q 644 228 451 531 
Q 259 834 228 1272 
L 794 1378 
Q 859 925 1025 713 
Q 1263 413 1594 378 
L 1594 2169 
Q 1247 2234 884 2438 
Q 616 2588 470 2853 
Q 325 3119 325 3456 
Q 325 4056 750 4428 
Q 1034 4678 1594 4734 
L 1594 5003 
L 1925 5003 
L 1925 4734 
Q 2416 4688 2703 4447 
Q 3072 4141 3147 3606 
L 2566 3519 
Q 2516 3850 2358 4026 
Q 2200 4203 1925 4259 
L 1925 2638 
Q 2350 2531 2488 2472 
Q 2750 2356 2915 2190 
Q 3081 2025 3170 1797 
Q 3259 1569 3259 1303 
Q 3259 719 2887 328 
Q 2516 -63 1925 -91 
L 1925 -659 
L 1594 -659 
z
M 1594 4266 
Q 1266 4216 1077 4003 
Q 888 3791 888 3500 
Q 888 3213 1048 3019 
Q 1209 2825 1594 2709 
L 1594 4266 
z
M 1925 378 
Q 2253 419 2467 662 
Q 2681 906 2681 1266 
Q 2681 1572 2529 1758 
Q 2378 1944 1925 2091 
L 1925 378 
z
" transform="scale(0.015625)"/>
      <path id="ArialMT-2e" d="M 581 0 
L 581 641 
L 1222 641 
L 1222 0 
L 581 0 
z
" transform="scale(0.015625)"/>
     </defs>
     <use xlink:href="#ArialMT-49"/>
     <use xlink:href="#ArialMT-6e" transform="translate(27.783203 0)"/>
     <use xlink:href="#ArialMT-74" transform="translate(83.398438 0)"/>
     <use xlink:href="#ArialMT-65" transform="translate(111.181641 0)"/>
     <use xlink:href="#ArialMT-72" transform="translate(166.796875 0)"/>
     <use xlink:href="#ArialMT-6e" transform="translate(200.097656 0)"/>
     <use xlink:href="#ArialMT-61" transform="translate(255.712891 0)"/>
     <use xlink:href="#ArialMT-74" transform="translate(311.328125 0)"/>
     <use xlink:href="#ArialMT-69" transform="translate(339.111328 0)"/>
     <use xlink:href="#ArialMT-6f" transform="translate(361.328125 0)"/>
     <use xlink:href="#ArialMT-6e" transform="translate(416.943359 0)"/>
     <use xlink:href="#ArialMT-61" transform="translate(472.558594 0)"/>
     <use xlink:href="#ArialMT-6c" transform="translate(528.173828 0)"/>
     <use xlink:href="#ArialMT-20" transform="translate(550.390625 0)"/>
     <use xlink:href="#ArialMT-50" transform="translate(578.173828 0)"/>
     <use xlink:href="#ArialMT-6f" transform="translate(644.873047 0)"/>
     <use xlink:href="#ArialMT-76" transform="translate(700.488281 0)"/>
     <use xlink:href="#ArialMT-65" transform="translate(750.488281 0)"/>
     <use xlink:href="#ArialMT-72" transform="translate(806.103516 0)"/>
     <use xlink:href="#ArialMT-74" transform="translate(839.404297 0)"/>
     <use xlink:href="#ArialMT-79" transform="translate(867.1875 0)"/>
     <use xlink:href="#ArialMT-20" transform="translate(917.1875 0)"/>
     <use xlink:href="#ArialMT-4c" transform="translate(944.970703 0)"/>
     <use xlink:href="#ArialMT-69" transform="translate(1000.585938 0)"/>
     <use xlink:href="#ArialMT-6e" transform="translate(1022.802734 0)"/>
     <use xlink:href="#ArialMT-65" transform="translate(1078.417969 0)"/>
     <use xlink:href="#ArialMT-3a" transform="translate(1134.033203 0)"/>
     <use xlink:href="#ArialMT-20" transform="translate(1161.816406 0)"/>
     <use xlink:href="#ArialMT-24" transform="translate(1189.599609 0)"/>
     <use xlink:href="#ArialMT-32" transform="translate(1245.214844 0)"/>
     <use xlink:href="#ArialMT-2e" transform="translate(1300.830078 0)"/>
     <use xlink:href="#ArialMT-31" transform="translate(1328.613281 0)"/>
     <use xlink:href="#ArialMT-35" transform="translate(1384.228516 0)"/>
    </g>
   </g>
   <g id="text_13">
    <!-- World mean: $19.18 -->
    <g style="fill: #808080" transform="translate(592.317635 108.67135) rotate(-90) scale(0.08 -0.08)">
     <defs>
      <path id="ArialMT-57" d="M 1294 0 
L 78 4581 
L 700 4581 
L 1397 1578 
Q 1509 1106 1591 641 
Q 1766 1375 1797 1488 
L 2669 4581 
L 3400 4581 
L 4056 2263 
Q 4303 1400 4413 641 
Q 4500 1075 4641 1638 
L 5359 4581 
L 5969 4581 
L 4713 0 
L 4128 0 
L 3163 3491 
Q 3041 3928 3019 4028 
Q 2947 3713 2884 3491 
L 1913 0 
L 1294 0 
z
" transform="scale(0.015625)"/>
      <path id="ArialMT-39" d="M 350 1059 
L 891 1109 
Q 959 728 1153 556 
Q 1347 384 1650 384 
Q 1909 384 2104 503 
Q 2300 622 2425 820 
Q 2550 1019 2634 1356 
Q 2719 1694 2719 2044 
Q 2719 2081 2716 2156 
Q 2547 1888 2255 1720 
Q 1963 1553 1622 1553 
Q 1053 1553 659 1965 
Q 266 2378 266 3053 
Q 266 3750 677 4175 
Q 1088 4600 1706 4600 
Q 2153 4600 2523 4359 
Q 2894 4119 3086 3673 
Q 3278 3228 3278 2384 
Q 3278 1506 3087 986 
Q 2897 466 2520 194 
Q 2144 -78 1638 -78 
Q 1100 -78 759 220 
Q 419 519 350 1059 
z
M 2653 3081 
Q 2653 3566 2395 3850 
Q 2138 4134 1775 4134 
Q 1400 4134 1122 3828 
Q 844 3522 844 3034 
Q 844 2597 1108 2323 
Q 1372 2050 1759 2050 
Q 2150 2050 2401 2323 
Q 2653 2597 2653 3081 
z
" transform="scale(0.015625)"/>
      <path id="ArialMT-38" d="M 1131 2484 
Q 781 2613 612 2850 
Q 444 3088 444 3419 
Q 444 3919 803 4259 
Q 1163 4600 1759 4600 
Q 2359 4600 2725 4251 
Q 3091 3903 3091 3403 
Q 3091 3084 2923 2848 
Q 2756 2613 2416 2484 
Q 2838 2347 3058 2040 
Q 3278 1734 3278 1309 
Q 3278 722 2862 322 
Q 2447 -78 1769 -78 
Q 1091 -78 675 323 
Q 259 725 259 1325 
Q 259 1772 486 2073 
Q 713 2375 1131 2484 
z
M 1019 3438 
Q 1019 3113 1228 2906 
Q 1438 2700 1772 2700 
Q 2097 2700 2305 2904 
Q 2513 3109 2513 3406 
Q 2513 3716 2298 3927 
Q 2084 4138 1766 4138 
Q 1444 4138 1231 3931 
Q 1019 3725 1019 3438 
z
M 838 1322 
Q 838 1081 952 856 
Q 1066 631 1291 507 
Q 1516 384 1775 384 
Q 2178 384 2440 643 
Q 2703 903 2703 1303 
Q 2703 1709 2433 1975 
Q 2163 2241 1756 2241 
Q 1359 2241 1098 1978 
Q 838 1716 838 1322 
z
" transform="scale(0.015625)"/>
     </defs>
     <use xlink:href="#ArialMT-57"/>
     <use xlink:href="#ArialMT-6f" transform="translate(92.634766 0)"/>
     <use xlink:href="#ArialMT-72" transform="translate(148.25 0)"/>
     <use xlink:href="#ArialMT-6c" transform="translate(181.550781 0)"/>
     <use xlink:href="#ArialMT-64" transform="translate(203.767578 0)"/>
     <use xlink:href="#ArialMT-20" transform="translate(259.382812 0)"/>
     <use xlink:href="#ArialMT-6d" transform="translate(287.166016 0)"/>
     <use xlink:href="#ArialMT-65" transform="translate(370.466797 0)"/>
     <use xlink:href="#ArialMT-61" transform="translate(426.082031 0)"/>
     <use xlink:href="#ArialMT-6e" transform="translate(481.697266 0)"/>
     <use xlink:href="#ArialMT-3a" transform="translate(537.3125 0)"/>
     <use xlink:href="#ArialMT-20" transform="translate(565.095703 0)"/>
     <use xlink:href="#ArialMT-24" transform="translate(592.878906 0)"/>
     <use xlink:href="#ArialMT-31" transform="translate(648.494141 0)"/>
     <use xlink:href="#ArialMT-39" transform="translate(704.109375 0)"/>
     <use xlink:href="#ArialMT-2e" transform="translate(759.724609 0)"/>
     <use xlink:href="#ArialMT-31" transform="translate(787.507812 0)"/>
     <use xlink:href="#ArialMT-38" transform="translate(843.123047 0)"/>
    </g>
   </g>
   <g id="text_14">
    <!-- World median: $8.25 -->
    <g style="fill: #808080" transform="translate(519.787073 110.44885) rotate(-90) scale(0.08 -0.08)">
     <use xlink:href="#ArialMT-57"/>
     <use xlink:href="#ArialMT-6f" transform="translate(92.634766 0)"/>
     <use xlink:href="#ArialMT-72" transform="translate(148.25 0)"/>
     <use xlink:href="#ArialMT-6c" transform="translate(181.550781 0)"/>
     <use xlink:href="#ArialMT-64" transform="translate(203.767578 0)"/>
     <use xlink:href="#ArialMT-20" transform="translate(259.382812 0)"/>
     <use xlink:href="#ArialMT-6d" transform="translate(287.166016 0)"/>
     <use xlink:href="#ArialMT-65" transform="translate(370.466797 0)"/>
     <use xlink:href="#ArialMT-64" transform="translate(426.082031 0)"/>
     <use xlink:href="#ArialMT-69" transform="translate(481.697266 0)"/>
     <use xlink:href="#ArialMT-61" transform="translate(503.914062 0)"/>
     <use xlink:href="#ArialMT-6e" transform="translate(559.529297 0)"/>
     <use xlink:href="#ArialMT-3a" transform="translate(615.144531 0)"/>
     <use xlink:href="#ArialMT-20" transform="translate(642.927734 0)"/>
     <use xlink:href="#ArialMT-24" transform="translate(670.710938 0)"/>
     <use xlink:href="#ArialMT-38" transform="translate(726.326172 0)"/>
     <use xlink:href="#ArialMT-2e" transform="translate(781.941406 0)"/>
     <use xlink:href="#ArialMT-32" transform="translate(809.724609 0)"/>
     <use xlink:href="#ArialMT-35" transform="translate(865.339844 0)"/>
    </g>
   </g>
   <g id="legend_1">
    <g id="patch_3">
     <path d="M 811.6 129.826062 
L 979.2125 129.826062 
Q 981.2125 129.826062 981.2125 127.826062 
L 981.2125 85.912 
Q 981.2125 83.912 979.2125 83.912 
L 811.6 83.912 
Q 809.6 83.912 809.6 85.912 
L 809.6 127.826062 
Q 809.6 129.826062 811.6 129.826062 
z
" style="fill: #ffffff; opacity: 0.8; stroke: #cccccc; stroke-linejoin: miter"/>
    </g>
    <g id="text_15">
     <!-- Country -->
     <g style="fill: #262626" transform="translate(877.9 95.191687) scale(0.1 -0.1)">
      <defs>
       <path id="ArialMT-43" d="M 3763 1606 
L 4369 1453 
Q 4178 706 3683 314 
Q 3188 -78 2472 -78 
Q 1731 -78 1267 223 
Q 803 525 561 1097 
Q 319 1669 319 2325 
Q 319 3041 592 3573 
Q 866 4106 1370 4382 
Q 1875 4659 2481 4659 
Q 3169 4659 3637 4309 
Q 4106 3959 4291 3325 
L 3694 3184 
Q 3534 3684 3231 3912 
Q 2928 4141 2469 4141 
Q 1941 4141 1586 3887 
Q 1231 3634 1087 3207 
Q 944 2781 944 2328 
Q 944 1744 1114 1308 
Q 1284 872 1643 656 
Q 2003 441 2422 441 
Q 2931 441 3284 734 
Q 3638 1028 3763 1606 
z
" transform="scale(0.015625)"/>
      </defs>
      <use xlink:href="#ArialMT-43"/>
      <use xlink:href="#ArialMT-6f" transform="translate(72.216797 0)"/>
      <use xlink:href="#ArialMT-75" transform="translate(127.832031 0)"/>
      <use xlink:href="#ArialMT-6e" transform="translate(183.447266 0)"/>
      <use xlink:href="#ArialMT-74" transform="translate(239.0625 0)"/>
      <use xlink:href="#ArialMT-72" transform="translate(266.845703 0)"/>
      <use xlink:href="#ArialMT-79" transform="translate(300.146484 0)"/>
     </g>
    </g>
    <g id="patch_4">
     <path d="M 813.6 109.454187 
L 833.6 109.454187 
L 833.6 102.454187 
L 813.6 102.454187 
z
" style="fill: #4c72b0; fill-opacity: 0.25; stroke: #4c72b0; stroke-linejoin: miter"/>
    </g>
    <g id="text_16">
     <!-- Denmark -->
     <g style="fill: #262626" transform="translate(841.6 109.454187) scale(0.1 -0.1)">
      <defs>
       <path id="ArialMT-44" d="M 494 0 
L 494 4581 
L 2072 4581 
Q 2606 4581 2888 4516 
Q 3281 4425 3559 4188 
Q 3922 3881 4101 3404 
Q 4281 2928 4281 2316 
Q 4281 1794 4159 1391 
Q 4038 988 3847 723 
Q 3656 459 3429 307 
Q 3203 156 2883 78 
Q 2563 0 2147 0 
L 494 0 
z
M 1100 541 
L 2078 541 
Q 2531 541 2789 625 
Q 3047 709 3200 863 
Q 3416 1078 3536 1442 
Q 3656 1806 3656 2325 
Q 3656 3044 3420 3430 
Q 3184 3816 2847 3947 
Q 2603 4041 2063 4041 
L 1100 4041 
L 1100 541 
z
" transform="scale(0.015625)"/>
       <path id="ArialMT-6b" d="M 425 0 
L 425 4581 
L 988 4581 
L 988 1969 
L 2319 3319 
L 3047 3319 
L 1778 2088 
L 3175 0 
L 2481 0 
L 1384 1697 
L 988 1316 
L 988 0 
L 425 0 
z
" transform="scale(0.015625)"/>
      </defs>
      <use xlink:href="#ArialMT-44"/>
      <use xlink:href="#ArialMT-65" transform="translate(72.216797 0)"/>
      <use xlink:href="#ArialMT-6e" transform="translate(127.832031 0)"/>
      <use xlink:href="#ArialMT-6d" transform="translate(183.447266 0)"/>
      <use xlink:href="#ArialMT-61" transform="translate(266.748047 0)"/>
      <use xlink:href="#ArialMT-72" transform="translate(322.363281 0)"/>
      <use xlink:href="#ArialMT-6b" transform="translate(355.664062 0)"/>
     </g>
    </g>
    <g id="patch_5">
     <path d="M 813.6 123.721375 
L 833.6 123.721375 
L 833.6 116.721375 
L 813.6 116.721375 
z
" style="fill: #dd8452; fill-opacity: 0.25; stroke: #dd8452; stroke-linejoin: miter"/>
    </g>
    <g id="text_17">
     <!-- Democratic Republic of Congo -->
     <g style="fill: #262626" transform="translate(841.6 123.721375) scale(0.1 -0.1)">
      <defs>
       <path id="ArialMT-52" d="M 503 0 
L 503 4581 
L 2534 4581 
Q 3147 4581 3465 4457 
Q 3784 4334 3975 4021 
Q 4166 3709 4166 3331 
Q 4166 2844 3850 2509 
Q 3534 2175 2875 2084 
Q 3116 1969 3241 1856 
Q 3506 1613 3744 1247 
L 4541 0 
L 3778 0 
L 3172 953 
Q 2906 1366 2734 1584 
Q 2563 1803 2427 1890 
Q 2291 1978 2150 2013 
Q 2047 2034 1813 2034 
L 1109 2034 
L 1109 0 
L 503 0 
z
M 1109 2559 
L 2413 2559 
Q 2828 2559 3062 2645 
Q 3297 2731 3419 2920 
Q 3541 3109 3541 3331 
Q 3541 3656 3305 3865 
Q 3069 4075 2559 4075 
L 1109 4075 
L 1109 2559 
z
" transform="scale(0.015625)"/>
       <path id="ArialMT-62" d="M 941 0 
L 419 0 
L 419 4581 
L 981 4581 
L 981 2947 
Q 1338 3394 1891 3394 
Q 2197 3394 2470 3270 
Q 2744 3147 2920 2923 
Q 3097 2700 3197 2384 
Q 3297 2069 3297 1709 
Q 3297 856 2875 390 
Q 2453 -75 1863 -75 
Q 1275 -75 941 416 
L 941 0 
z
M 934 1684 
Q 934 1088 1097 822 
Q 1363 388 1816 388 
Q 2184 388 2453 708 
Q 2722 1028 2722 1663 
Q 2722 2313 2464 2622 
Q 2206 2931 1841 2931 
Q 1472 2931 1203 2611 
Q 934 2291 934 1684 
z
" transform="scale(0.015625)"/>
       <path id="ArialMT-66" d="M 556 0 
L 556 2881 
L 59 2881 
L 59 3319 
L 556 3319 
L 556 3672 
Q 556 4006 616 4169 
Q 697 4388 901 4523 
Q 1106 4659 1475 4659 
Q 1713 4659 2000 4603 
L 1916 4113 
Q 1741 4144 1584 4144 
Q 1328 4144 1222 4034 
Q 1116 3925 1116 3625 
L 1116 3319 
L 1763 3319 
L 1763 2881 
L 1116 2881 
L 1116 0 
L 556 0 
z
" transform="scale(0.015625)"/>
       <path id="ArialMT-67" d="M 319 -275 
L 866 -356 
Q 900 -609 1056 -725 
Q 1266 -881 1628 -881 
Q 2019 -881 2231 -725 
Q 2444 -569 2519 -288 
Q 2563 -116 2559 434 
Q 2191 0 1641 0 
Q 956 0 581 494 
Q 206 988 206 1678 
Q 206 2153 378 2554 
Q 550 2956 876 3175 
Q 1203 3394 1644 3394 
Q 2231 3394 2613 2919 
L 2613 3319 
L 3131 3319 
L 3131 450 
Q 3131 -325 2973 -648 
Q 2816 -972 2473 -1159 
Q 2131 -1347 1631 -1347 
Q 1038 -1347 672 -1080 
Q 306 -813 319 -275 
z
M 784 1719 
Q 784 1066 1043 766 
Q 1303 466 1694 466 
Q 2081 466 2343 764 
Q 2606 1063 2606 1700 
Q 2606 2309 2336 2618 
Q 2066 2928 1684 2928 
Q 1309 2928 1046 2623 
Q 784 2319 784 1719 
z
" transform="scale(0.015625)"/>
      </defs>
      <use xlink:href="#ArialMT-44"/>
      <use xlink:href="#ArialMT-65" transform="translate(72.216797 0)"/>
      <use xlink:href="#ArialMT-6d" transform="translate(127.832031 0)"/>
      <use xlink:href="#ArialMT-6f" transform="translate(211.132812 0)"/>
      <use xlink:href="#ArialMT-63" transform="translate(266.748047 0)"/>
      <use xlink:href="#ArialMT-72" transform="translate(316.748047 0)"/>
      <use xlink:href="#ArialMT-61" transform="translate(350.048828 0)"/>
      <use xlink:href="#ArialMT-74" transform="translate(405.664062 0)"/>
      <use xlink:href="#ArialMT-69" transform="translate(433.447266 0)"/>
      <use xlink:href="#ArialMT-63" transform="translate(455.664062 0)"/>
      <use xlink:href="#ArialMT-20" transform="translate(505.664062 0)"/>
      <use xlink:href="#ArialMT-52" transform="translate(533.447266 0)"/>
      <use xlink:href="#ArialMT-65" transform="translate(605.664062 0)"/>
      <use xlink:href="#ArialMT-70" transform="translate(661.279297 0)"/>
      <use xlink:href="#ArialMT-75" transform="translate(716.894531 0)"/>
      <use xlink:href="#ArialMT-62" transform="translate(772.509766 0)"/>
      <use xlink:href="#ArialMT-6c" transform="translate(828.125 0)"/>
      <use xlink:href="#ArialMT-69" transform="translate(850.341797 0)"/>
      <use xlink:href="#ArialMT-63" transform="translate(872.558594 0)"/>
      <use xlink:href="#ArialMT-20" transform="translate(922.558594 0)"/>
      <use xlink:href="#ArialMT-6f" transform="translate(950.341797 0)"/>
      <use xlink:href="#ArialMT-66" transform="translate(1005.957031 0)"/>
      <use xlink:href="#ArialMT-20" transform="translate(1033.740234 0)"/>
      <use xlink:href="#ArialMT-43" transform="translate(1061.523438 0)"/>
      <use xlink:href="#ArialMT-6f" transform="translate(1133.740234 0)"/>
      <use xlink:href="#ArialMT-6e" transform="translate(1189.355469 0)"/>
      <use xlink:href="#ArialMT-67" transform="translate(1244.970703 0)"/>
      <use xlink:href="#ArialMT-6f" transform="translate(1300.585938 0)"/>
     </g>
    </g>
   </g>
  </g>
 </g>
 <defs>
  <clipPath id="p0bc65e67dc">
   <rect x="135" y="34.56" width="837" height="221.76"/>
  </clipPath>
 </defs>
</svg>
