<?xml version="1.0" encoding="utf-8" standalone="no"?>
<!DOCTYPE svg PUBLIC "-//W3C//DTD SVG 1.1//EN"
  "http://www.w3.org/Graphics/SVG/1.1/DTD/svg11.dtd">
<svg xmlns:xlink="http://www.w3.org/1999/xlink" width="868.082812pt" height="265.689687pt" viewBox="0 0 868.082812 265.689687" xmlns="http://www.w3.org/2000/svg" version="1.1">
 <metadata>
  <rdf:RDF xmlns:dc="http://purl.org/dc/elements/1.1/" xmlns:cc="http://creativecommons.org/ns#" xmlns:rdf="http://www.w3.org/1999/02/22-rdf-syntax-ns#">
   <cc:Work>
    <dc:type rdf:resource="http://purl.org/dc/dcmitype/StillImage"/>
    <dc:date>2026-05-22T18:50:25.864876</dc:date>
    <dc:format>image/svg+xml</dc:format>
    <dc:creator>
     <cc:Agent>
      <dc:title>Matplotlib v3.10.9, https://matplotlib.org/</dc:title>
     </cc:Agent>
    </dc:creator>
   </cc:Work>
  </rdf:RDF>
 </metadata>
 <defs>
  <style type="text/css">*{stroke-linejoin: round; stroke-linecap: butt}</style>
 </defs>
 <g id="figure_1">
  <g id="patch_1">
   <path d="M 0 265.689687 
L 868.082812 265.689687 
L 868.082812 0 
L 0 0 
z
" style="fill: #ffffff"/>
  </g>
  <g id="axes_1">
   <g id="patch_2">
    <path d="M 7.2 228.96 
L 844.2 228.96 
L 844.2 7.2 
L 7.2 7.2 
z
" style="fill: #ffffff"/>
   </g>
   <g id="matplotlib.axis_1">
    <g id="xtick_1">
     <g id="line2d_1">
      <defs>
       <path id="m5492768228" d="M 0 0 
L 0 3.5 
" style="stroke: #262626; stroke-width: 0.8"/>
      </defs>
      <g>
       <use xlink:href="#m5492768228" x="42.249306" y="228.96" style="fill: #262626; stroke: #262626; stroke-width: 0.8"/>
      </g>
     </g>
     <g id="text_1">
      <text style="font-size: 10px; font-family: 'Arial', 'DejaVu Sans', 'Liberation Sans', 'Bitstream Vera Sans', sans-serif; text-anchor: middle; fill: #262626" x="42.249306" y="243.117812" transform="rotate(-0 42.249306 243.117812)">$10</text>
     </g>
    </g>
    <g id="xtick_2">
     <g id="line2d_2">
      <g>
       <use xlink:href="#m5492768228" x="115.381394" y="228.96" style="fill: #262626; stroke: #262626; stroke-width: 0.8"/>
      </g>
     </g>
     <g id="text_2">
      <text style="font-size: 10px; font-family: 'Arial', 'DejaVu Sans', 'Liberation Sans', 'Bitstream Vera Sans', sans-serif; text-anchor: middle; fill: #262626" x="115.381394" y="243.117812" transform="rotate(-0 115.381394 243.117812)">$20</text>
     </g>
    </g>
    <g id="xtick_3">
     <g id="line2d_3">
      <g>
       <use xlink:href="#m5492768228" x="212.056754" y="228.96" style="fill: #262626; stroke: #262626; stroke-width: 0.8"/>
      </g>
     </g>
     <g id="text_3">
      <text style="font-size: 10px; font-family: 'Arial', 'DejaVu Sans', 'Liberation Sans', 'Bitstream Vera Sans', sans-serif; text-anchor: middle; fill: #262626" x="212.056754" y="243.117812" transform="rotate(-0 212.056754 243.117812)">$50</text>
     </g>
    </g>
    <g id="xtick_4">
     <g id="line2d_4">
      <g>
       <use xlink:href="#m5492768228" x="285.188842" y="228.96" style="fill: #262626; stroke: #262626; stroke-width: 0.8"/>
      </g>
     </g>
     <g id="text_4">
      <text style="font-size: 10px; font-family: 'Arial', 'DejaVu Sans', 'Liberation Sans', 'Bitstream Vera Sans', sans-serif; text-anchor: middle; fill: #262626" x="285.188842" y="243.117812" transform="rotate(-0 285.188842 243.117812)">$100</text>
     </g>
    </g>
    <g id="xtick_5">
     <g id="line2d_5">
      <g>
       <use xlink:href="#m5492768228" x="358.320929" y="228.96" style="fill: #262626; stroke: #262626; stroke-width: 0.8"/>
      </g>
     </g>
     <g id="text_5">
      <text style="font-size: 10px; font-family: 'Arial', 'DejaVu Sans', 'Liberation Sans', 'Bitstream Vera Sans', sans-serif; text-anchor: middle; fill: #262626" x="358.320929" y="243.117812" transform="rotate(-0 358.320929 243.117812)">$200</text>
     </g>
    </g>
    <g id="xtick_6">
     <g id="line2d_6">
      <g>
       <use xlink:href="#m5492768228" x="454.99629" y="228.96" style="fill: #262626; stroke: #262626; stroke-width: 0.8"/>
      </g>
     </g>
     <g id="text_6">
      <text style="font-size: 10px; font-family: 'Arial', 'DejaVu Sans', 'Liberation Sans', 'Bitstream Vera Sans', sans-serif; text-anchor: middle; fill: #262626" x="454.99629" y="243.117812" transform="rotate(-0 454.99629 243.117812)">$500</text>
     </g>
    </g>
    <g id="xtick_7">
     <g id="line2d_7">
      <g>
       <use xlink:href="#m5492768228" x="528.128377" y="228.96" style="fill: #262626; stroke: #262626; stroke-width: 0.8"/>
      </g>
     </g>
     <g id="text_7">
      <text style="font-size: 10px; font-family: 'Arial', 'DejaVu Sans', 'Liberation Sans', 'Bitstream Vera Sans', sans-serif; text-anchor: middle; fill: #262626" x="528.128377" y="243.117812" transform="rotate(-0 528.128377 243.117812)">$1000</text>
     </g>
    </g>
    <g id="xtick_8">
     <g id="line2d_8">
      <g>
       <use xlink:href="#m5492768228" x="601.260465" y="228.96" style="fill: #262626; stroke: #262626; stroke-width: 0.8"/>
      </g>
     </g>
     <g id="text_8">
      <text style="font-size: 10px; font-family: 'Arial', 'DejaVu Sans', 'Liberation Sans', 'Bitstream Vera Sans', sans-serif; text-anchor: middle; fill: #262626" x="601.260465" y="243.117812" transform="rotate(-0 601.260465 243.117812)">$2000</text>
     </g>
    </g>
    <g id="xtick_9">
     <g id="line2d_9">
      <g>
       <use xlink:href="#m5492768228" x="697.935825" y="228.96" style="fill: #262626; stroke: #262626; stroke-width: 0.8"/>
      </g>
     </g>
     <g id="text_9">
      <text style="font-size: 10px; font-family: 'Arial', 'DejaVu Sans', 'Liberation Sans', 'Bitstream Vera Sans', sans-serif; text-anchor: middle; fill: #262626" x="697.935825" y="243.117812" transform="rotate(-0 697.935825 243.117812)">$5000</text>
     </g>
    </g>
    <g id="xtick_10">
     <g id="line2d_10">
      <g>
       <use xlink:href="#m5492768228" x="771.067913" y="228.96" style="fill: #262626; stroke: #262626; stroke-width: 0.8"/>
      </g>
     </g>
     <g id="text_10">
      <text style="font-size: 10px; font-family: 'Arial', 'DejaVu Sans', 'Liberation Sans', 'Bitstream Vera Sans', sans-serif; text-anchor: middle; fill: #262626" x="771.067913" y="243.117812" transform="rotate(-0 771.067913 243.117812)">$10000</text>
     </g>
    </g>
    <g id="xtick_11">
     <g id="line2d_11">
      <g>
       <use xlink:href="#m5492768228" x="844.2" y="228.96" style="fill: #262626; stroke: #262626; stroke-width: 0.8"/>
      </g>
     </g>
     <g id="text_11">
      <text style="font-size: 10px; font-family: 'Arial', 'DejaVu Sans', 'Liberation Sans', 'Bitstream Vera Sans', sans-serif; text-anchor: middle; fill: #262626" x="844.2" y="243.117812" transform="rotate(-0 844.2 243.117812)">$20000</text>
     </g>
    </g>
    <g id="xtick_12">
     <g id="line2d_12">
      <defs>
       <path id="m1d3d9091f4" d="M 0 0 
L 0 2 
" style="stroke: #262626; stroke-width: 0.6"/>
      </defs>
      <g>
       <use xlink:href="#m1d3d9091f4" x="18.706033" y="228.96" style="fill: #262626; stroke: #262626; stroke-width: 0.6"/>
      </g>
     </g>
    </g>
    <g id="xtick_13">
     <g id="line2d_13">
      <g>
       <use xlink:href="#m1d3d9091f4" x="31.133003" y="228.96" style="fill: #262626; stroke: #262626; stroke-width: 0.6"/>
      </g>
     </g>
    </g>
    <g id="xtick_14">
     <g id="line2d_14">
      <g>
       <use xlink:href="#m1d3d9091f4" x="158.160922" y="228.96" style="fill: #262626; stroke: #262626; stroke-width: 0.6"/>
      </g>
     </g>
    </g>
    <g id="xtick_15">
     <g id="line2d_15">
      <g>
       <use xlink:href="#m1d3d9091f4" x="188.513481" y="228.96" style="fill: #262626; stroke: #262626; stroke-width: 0.6"/>
      </g>
     </g>
    </g>
    <g id="xtick_16">
     <g id="line2d_16">
      <g>
       <use xlink:href="#m1d3d9091f4" x="231.29301" y="228.96" style="fill: #262626; stroke: #262626; stroke-width: 0.6"/>
      </g>
     </g>
    </g>
    <g id="xtick_17">
     <g id="line2d_17">
      <g>
       <use xlink:href="#m1d3d9091f4" x="247.557032" y="228.96" style="fill: #262626; stroke: #262626; stroke-width: 0.6"/>
      </g>
     </g>
    </g>
    <g id="xtick_18">
     <g id="line2d_18">
      <g>
       <use xlink:href="#m1d3d9091f4" x="261.645568" y="228.96" style="fill: #262626; stroke: #262626; stroke-width: 0.6"/>
      </g>
     </g>
    </g>
    <g id="xtick_19">
     <g id="line2d_19">
      <g>
       <use xlink:href="#m1d3d9091f4" x="274.072538" y="228.96" style="fill: #262626; stroke: #262626; stroke-width: 0.6"/>
      </g>
     </g>
    </g>
    <g id="xtick_20">
     <g id="line2d_20">
      <g>
       <use xlink:href="#m1d3d9091f4" x="401.100458" y="228.96" style="fill: #262626; stroke: #262626; stroke-width: 0.6"/>
      </g>
     </g>
    </g>
    <g id="xtick_21">
     <g id="line2d_21">
      <g>
       <use xlink:href="#m1d3d9091f4" x="431.453016" y="228.96" style="fill: #262626; stroke: #262626; stroke-width: 0.6"/>
      </g>
     </g>
    </g>
    <g id="xtick_22">
     <g id="line2d_22">
      <g>
       <use xlink:href="#m1d3d9091f4" x="474.232545" y="228.96" style="fill: #262626; stroke: #262626; stroke-width: 0.6"/>
      </g>
     </g>
    </g>
    <g id="xtick_23">
     <g id="line2d_23">
      <g>
       <use xlink:href="#m1d3d9091f4" x="490.496567" y="228.96" style="fill: #262626; stroke: #262626; stroke-width: 0.6"/>
      </g>
     </g>
    </g>
    <g id="xtick_24">
     <g id="line2d_24">
      <g>
       <use xlink:href="#m1d3d9091f4" x="504.585104" y="228.96" style="fill: #262626; stroke: #262626; stroke-width: 0.6"/>
      </g>
     </g>
    </g>
    <g id="xtick_25">
     <g id="line2d_25">
      <g>
       <use xlink:href="#m1d3d9091f4" x="517.012074" y="228.96" style="fill: #262626; stroke: #262626; stroke-width: 0.6"/>
      </g>
     </g>
    </g>
    <g id="xtick_26">
     <g id="line2d_26">
      <g>
       <use xlink:href="#m1d3d9091f4" x="644.039993" y="228.96" style="fill: #262626; stroke: #262626; stroke-width: 0.6"/>
      </g>
     </g>
    </g>
    <g id="xtick_27">
     <g id="line2d_27">
      <g>
       <use xlink:href="#m1d3d9091f4" x="674.392552" y="228.96" style="fill: #262626; stroke: #262626; stroke-width: 0.6"/>
      </g>
     </g>
    </g>
    <g id="xtick_28">
     <g id="line2d_28">
      <g>
       <use xlink:href="#m1d3d9091f4" x="717.172081" y="228.96" style="fill: #262626; stroke: #262626; stroke-width: 0.6"/>
      </g>
     </g>
    </g>
    <g id="xtick_29">
     <g id="line2d_29">
      <g>
       <use xlink:href="#m1d3d9091f4" x="733.436102" y="228.96" style="fill: #262626; stroke: #262626; stroke-width: 0.6"/>
      </g>
     </g>
    </g>
    <g id="xtick_30">
     <g id="line2d_30">
      <g>
       <use xlink:href="#m1d3d9091f4" x="747.524639" y="228.96" style="fill: #262626; stroke: #262626; stroke-width: 0.6"/>
      </g>
     </g>
    </g>
    <g id="xtick_31">
     <g id="line2d_31">
      <g>
       <use xlink:href="#m1d3d9091f4" x="759.951609" y="228.96" style="fill: #262626; stroke: #262626; stroke-width: 0.6"/>
      </g>
     </g>
    </g>
    <g id="text_12">
     <text style="font-size: 10px; font-family: 'Arial', 'DejaVu Sans', 'Liberation Sans', 'Bitstream Vera Sans', sans-serif; text-anchor: middle; fill: #262626" x="425.7" y="256.385" transform="rotate(-0 425.7 256.385)">Income or consumption (month)</text>
    </g>
   </g>
   <g id="matplotlib.axis_2"/>
   <g id="FillBetweenPolyCollection_1">
    <defs>
     <path id="md8df432a3d" d="M 42.655248 -36.792227 
L 42.655248 -36.729688 
L 44.788672 -36.729688 
L 46.922096 -36.729688 
L 49.05552 -36.729688 
L 51.188944 -36.729688 
L 53.322368 -36.729688 
L 55.455792 -36.729688 
L 57.589216 -36.729688 
L 59.72264 -36.729688 
L 61.856064 -36.729688 
L 63.989488 -36.729688 
L 66.122912 -36.729688 
L 68.256336 -36.729688 
L 70.38976 -36.729688 
L 72.523184 -36.729688 
L 74.656608 -36.729688 
L 76.790032 -36.729688 
L 78.923456 -36.729688 
L 81.05688 -36.729688 
L 83.190304 -36.729688 
L 85.323728 -36.729688 
L 87.457152 -36.729688 
L 89.590576 -36.729688 
L 91.724 -36.729688 
L 93.857423 -36.729688 
L 95.990847 -36.729688 
L 98.124271 -36.729688 
L 100.257695 -36.729688 
L 102.391119 -36.729688 
L 104.524543 -36.729688 
L 106.657967 -36.729688 
L 108.791391 -36.729688 
L 110.924815 -36.729688 
L 113.058239 -36.729688 
L 115.191663 -36.729688 
L 117.325087 -36.729688 
L 119.458511 -36.729688 
L 121.591935 -36.729688 
L 123.725359 -36.729688 
L 125.858783 -36.729688 
L 127.992207 -36.729688 
L 130.125631 -36.729688 
L 132.259055 -36.729688 
L 134.392479 -36.729688 
L 136.525903 -36.729688 
L 138.659327 -36.729688 
L 140.792751 -36.729688 
L 142.926175 -36.729688 
L 145.059599 -36.729688 
L 147.193023 -36.729688 
L 149.326447 -36.729688 
L 151.459871 -36.729688 
L 153.593295 -36.729688 
L 155.726718 -36.729688 
L 157.860142 -36.729688 
L 159.993566 -36.729688 
L 162.12699 -36.729688 
L 164.260414 -36.729688 
L 166.393838 -36.729688 
L 168.527262 -36.729688 
L 170.660686 -36.729688 
L 172.79411 -36.729688 
L 174.927534 -36.729688 
L 177.060958 -36.729688 
L 179.194382 -36.729688 
L 181.327806 -36.729688 
L 183.46123 -36.729688 
L 185.594654 -36.729688 
L 187.728078 -36.729688 
L 189.861502 -36.729688 
L 191.994926 -36.729688 
L 194.12835 -36.729688 
L 196.261774 -36.729688 
L 198.395198 -36.729688 
L 200.528622 -36.729688 
L 202.662046 -36.729688 
L 204.79547 -36.729688 
L 206.928894 -36.729688 
L 209.062318 -36.729688 
L 211.195742 -36.729688 
L 213.329166 -36.729688 
L 215.46259 -36.729688 
L 217.596013 -36.729688 
L 219.729437 -36.729688 
L 221.862861 -36.729688 
L 223.996285 -36.729688 
L 226.129709 -36.729688 
L 228.263133 -36.729688 
L 230.396557 -36.729688 
L 232.529981 -36.729688 
L 234.663405 -36.729688 
L 236.796829 -36.729688 
L 238.930253 -36.729688 
L 241.063677 -36.729688 
L 243.197101 -36.729688 
L 245.330525 -36.729688 
L 247.463949 -36.729688 
L 249.597373 -36.729688 
L 251.730797 -36.729688 
L 253.864221 -36.729688 
L 255.997645 -36.729688 
L 258.131069 -36.729688 
L 260.264493 -36.729688 
L 262.397917 -36.729688 
L 264.531341 -36.729688 
L 266.664765 -36.729688 
L 268.798189 -36.729688 
L 270.931613 -36.729688 
L 273.065037 -36.729688 
L 275.198461 -36.729688 
L 277.331884 -36.729688 
L 279.465308 -36.729688 
L 281.598732 -36.729688 
L 283.732156 -36.729688 
L 285.86558 -36.729688 
L 287.999004 -36.729688 
L 290.132428 -36.729688 
L 292.265852 -36.729688 
L 294.399276 -36.729688 
L 296.5327 -36.729688 
L 298.666124 -36.729688 
L 300.799548 -36.729688 
L 302.932972 -36.729688 
L 305.066396 -36.729688 
L 307.19982 -36.729688 
L 309.333244 -36.729688 
L 311.466668 -36.729688 
L 313.600092 -36.729688 
L 315.733516 -36.729688 
L 317.86694 -36.729688 
L 320.000364 -36.729688 
L 322.133788 -36.729688 
L 324.267212 -36.729688 
L 326.400636 -36.729688 
L 328.53406 -36.729688 
L 330.667484 -36.729688 
L 332.800908 -36.729688 
L 334.934332 -36.729688 
L 337.067756 -36.729688 
L 339.201179 -36.729688 
L 341.334603 -36.729688 
L 343.468027 -36.729688 
L 345.601451 -36.729688 
L 347.734875 -36.729688 
L 349.868299 -36.729688 
L 352.001723 -36.729688 
L 354.135147 -36.729688 
L 356.268571 -36.729688 
L 358.401995 -36.729688 
L 360.535419 -36.729688 
L 362.668843 -36.729688 
L 364.802267 -36.729688 
L 366.935691 -36.729688 
L 369.069115 -36.729688 
L 371.202539 -36.729688 
L 373.335963 -36.729688 
L 375.469387 -36.729688 
L 377.602811 -36.729688 
L 379.736235 -36.729688 
L 381.869659 -36.729688 
L 384.003083 -36.729688 
L 386.136507 -36.729688 
L 388.269931 -36.729688 
L 390.403355 -36.729688 
L 392.536779 -36.729688 
L 394.670203 -36.729688 
L 396.803627 -36.729688 
L 398.937051 -36.729688 
L 401.070474 -36.729688 
L 403.203898 -36.729688 
L 405.337322 -36.729688 
L 407.470746 -36.729688 
L 409.60417 -36.729688 
L 411.737594 -36.729688 
L 413.871018 -36.729688 
L 416.004442 -36.729688 
L 418.137866 -36.729688 
L 420.27129 -36.729688 
L 422.404714 -36.729688 
L 424.538138 -36.729688 
L 426.671562 -36.729688 
L 428.804986 -36.729688 
L 430.93841 -36.729688 
L 433.071834 -36.729688 
L 435.205258 -36.729688 
L 437.338682 -36.729688 
L 439.472106 -36.729688 
L 441.60553 -36.729688 
L 443.738954 -36.729688 
L 445.872378 -36.729688 
L 448.005802 -36.729688 
L 450.139226 -36.729688 
L 452.27265 -36.729688 
L 454.406074 -36.729688 
L 456.539498 -36.729688 
L 458.672922 -36.729688 
L 460.806346 -36.729688 
L 462.939769 -36.729688 
L 465.073193 -36.729688 
L 467.206617 -36.729688 
L 467.206617 -36.784995 
L 467.206617 -36.784995 
L 465.073193 -36.802372 
L 462.939769 -36.824502 
L 460.806346 -36.852458 
L 458.672922 -36.887492 
L 456.539498 -36.931048 
L 454.406074 -36.984765 
L 452.27265 -37.050491 
L 450.139226 -37.130276 
L 448.005802 -37.226365 
L 445.872378 -37.341184 
L 443.738954 -37.477316 
L 441.60553 -37.637469 
L 439.472106 -37.824433 
L 437.338682 -38.041032 
L 435.205258 -38.290067 
L 433.071834 -38.57425 
L 430.93841 -38.896143 
L 428.804986 -39.258084 
L 426.671562 -39.662125 
L 424.538138 -40.10997 
L 422.404714 -40.602918 
L 420.27129 -41.141826 
L 418.137866 -41.727074 
L 416.004442 -42.35856 
L 413.871018 -43.035697 
L 411.737594 -43.757445 
L 409.60417 -44.522348 
L 407.470746 -45.328593 
L 405.337322 -46.174091 
L 403.203898 -47.056558 
L 401.070474 -47.973613 
L 398.937051 -48.922881 
L 396.803627 -49.902093 
L 394.670203 -50.909183 
L 392.536779 -51.942378 
L 390.403355 -53.000272 
L 388.269931 -54.081894 
L 386.136507 -55.186742 
L 384.003083 -56.314818 
L 381.869659 -57.466624 
L 379.736235 -58.643151 
L 377.602811 -59.845843 
L 375.469387 -61.076547 
L 373.335963 -62.33745 
L 371.202539 -63.630999 
L 369.069115 -64.95982 
L 366.935691 -66.326631 
L 364.802267 -67.734151 
L 362.668843 -69.185016 
L 360.535419 -70.681698 
L 358.401995 -72.226434 
L 356.268571 -73.821172 
L 354.135147 -75.467515 
L 352.001723 -77.166702 
L 349.868299 -78.919582 
L 347.734875 -80.726623 
L 345.601451 -82.587924 
L 343.468027 -84.503248 
L 341.334603 -86.472061 
L 339.201179 -88.493592 
L 337.067756 -90.56689 
L 334.934332 -92.690887 
L 332.800908 -94.864471 
L 330.667484 -97.086539 
L 328.53406 -99.35606 
L 326.400636 -101.672115 
L 324.267212 -104.033929 
L 322.133788 -106.440888 
L 320.000364 -108.89253 
L 317.86694 -111.388526 
L 315.733516 -113.928634 
L 313.600092 -116.51264 
L 311.466668 -119.140275 
L 309.333244 -121.811126 
L 307.19982 -124.524525 
L 305.066396 -127.279437 
L 302.932972 -130.074347 
L 300.799548 -132.907138 
L 298.666124 -135.774982 
L 296.5327 -138.674243 
L 294.399276 -141.600385 
L 292.265852 -144.547909 
L 290.132428 -147.5103 
L 287.999004 -150.480011 
L 285.86558 -153.448464 
L 283.732156 -156.40608 
L 281.598732 -159.342343 
L 279.465308 -162.245886 
L 277.331884 -165.104603 
L 275.198461 -167.905794 
L 273.065037 -170.636321 
L 270.931613 -173.282786 
L 268.798189 -175.831723 
L 266.664765 -178.269791 
L 264.531341 -180.583972 
L 262.397917 -182.76176 
L 260.264493 -184.791341 
L 258.131069 -186.66175 
L 255.997645 -188.363008 
L 253.864221 -189.886225 
L 251.730797 -191.223678 
L 249.597373 -192.368853 
L 247.463949 -193.316453 
L 245.330525 -194.062379 
L 243.197101 -194.603676 
L 241.063677 -194.93847 
L 238.930253 -195.065877 
L 236.796829 -194.985908 
L 234.663405 -194.699378 
L 232.529981 -194.20781 
L 230.396557 -193.513364 
L 228.263133 -192.618774 
L 226.129709 -191.527311 
L 223.996285 -190.242771 
L 221.862861 -188.769481 
L 219.729437 -187.112328 
L 217.596013 -185.276811 
L 215.46259 -183.269089 
L 213.329166 -181.096048 
L 211.195742 -178.765358 
L 209.062318 -176.285515 
L 206.928894 -173.665867 
L 204.79547 -170.916622 
L 202.662046 -168.04881 
L 200.528622 -165.074225 
L 198.395198 -162.00533 
L 196.261774 -158.855124 
L 194.12835 -155.636985 
L 191.994926 -152.364488 
L 189.861502 -149.051203 
L 187.728078 -145.710486 
L 185.594654 -142.355273 
L 183.46123 -138.997876 
L 181.327806 -135.649803 
L 179.194382 -132.321602 
L 177.060958 -129.022729 
L 174.927534 -125.761464 
L 172.79411 -122.544857 
L 170.660686 -119.378715 
L 168.527262 -116.267621 
L 166.393838 -113.215002 
L 164.260414 -110.223209 
L 162.12699 -107.293629 
L 159.993566 -104.426817 
L 157.860142 -101.622632 
L 155.726718 -98.88038 
L 153.593295 -96.198958 
L 151.459871 -93.576986 
L 149.326447 -91.012933 
L 147.193023 -88.505228 
L 145.059599 -86.052356 
L 142.926175 -83.652939 
L 140.792751 -81.305805 
L 138.659327 -79.010036 
L 136.525903 -76.765012 
L 134.392479 -74.570439 
L 132.259055 -72.426365 
L 130.125631 -70.333189 
L 127.992207 -68.291663 
L 125.858783 -66.302882 
L 123.725359 -64.368266 
L 121.591935 -62.489535 
L 119.458511 -60.668669 
L 117.325087 -58.907862 
L 115.191663 -57.209468 
L 113.058239 -55.57593 
L 110.924815 -54.009706 
L 108.791391 -52.513192 
L 106.657967 -51.088632 
L 104.524543 -49.738033 
L 102.391119 -48.463083 
L 100.257695 -47.265074 
L 98.124271 -46.144832 
L 95.990847 -45.102664 
L 93.857423 -44.138317 
L 91.724 -43.250957 
L 89.590576 -42.439166 
L 87.457152 -41.700954 
L 85.323728 -41.033795 
L 83.190304 -40.434673 
L 81.05688 -39.900146 
L 78.923456 -39.426414 
L 76.790032 -39.009408 
L 74.656608 -38.644863 
L 72.523184 -38.328413 
L 70.38976 -38.055662 
L 68.256336 -37.822267 
L 66.122912 -37.624002 
L 63.989488 -37.456818 
L 61.856064 -37.316887 
L 59.72264 -37.200642 
L 57.589216 -37.104803 
L 55.455792 -37.026386 
L 53.322368 -36.962714 
L 51.188944 -36.91141 
L 49.05552 -36.870392 
L 46.922096 -36.83785 
L 44.788672 -36.812234 
L 42.655248 -36.792227 
z
" style="stroke: #dd8452"/>
    </defs>
    <g>
     <use xlink:href="#md8df432a3d" x="0" y="265.689687" style="fill: #dd8452; fill-opacity: 0.25; stroke: #dd8452"/>
    </g>
   </g>
   <g id="FillBetweenPolyCollection_2">
    <defs>
     <path id="mcff2a48164" d="M 414.779398 -36.794212 
L 414.779398 -36.729688 
L 416.472769 -36.729688 
L 418.16614 -36.729688 
L 419.859511 -36.729688 
L 421.552881 -36.729688 
L 423.246252 -36.729688 
L 424.939623 -36.729688 
L 426.632994 -36.729688 
L 428.326365 -36.729688 
L 430.019736 -36.729688 
L 431.713107 -36.729688 
L 433.406478 -36.729688 
L 435.099849 -36.729688 
L 436.79322 -36.729688 
L 438.486591 -36.729688 
L 440.179962 -36.729688 
L 441.873333 -36.729688 
L 443.566704 -36.729688 
L 445.260075 -36.729688 
L 446.953446 -36.729688 
L 448.646817 -36.729688 
L 450.340187 -36.729688 
L 452.033558 -36.729688 
L 453.726929 -36.729688 
L 455.4203 -36.729688 
L 457.113671 -36.729688 
L 458.807042 -36.729688 
L 460.500413 -36.729688 
L 462.193784 -36.729688 
L 463.887155 -36.729688 
L 465.580526 -36.729688 
L 467.273897 -36.729688 
L 468.967268 -36.729688 
L 470.660639 -36.729688 
L 472.35401 -36.729688 
L 474.047381 -36.729688 
L 475.740752 -36.729688 
L 477.434122 -36.729688 
L 479.127493 -36.729688 
L 480.820864 -36.729688 
L 482.514235 -36.729688 
L 484.207606 -36.729688 
L 485.900977 -36.729688 
L 487.594348 -36.729688 
L 489.287719 -36.729688 
L 490.98109 -36.729688 
L 492.674461 -36.729688 
L 494.367832 -36.729688 
L 496.061203 -36.729688 
L 497.754574 -36.729688 
L 499.447945 -36.729688 
L 501.141316 -36.729688 
L 502.834687 -36.729688 
L 504.528058 -36.729688 
L 506.221428 -36.729688 
L 507.914799 -36.729688 
L 509.60817 -36.729688 
L 511.301541 -36.729688 
L 512.994912 -36.729688 
L 514.688283 -36.729688 
L 516.381654 -36.729688 
L 518.075025 -36.729688 
L 519.768396 -36.729688 
L 521.461767 -36.729688 
L 523.155138 -36.729688 
L 524.848509 -36.729688 
L 526.54188 -36.729688 
L 528.235251 -36.729688 
L 529.928622 -36.729688 
L 531.621993 -36.729688 
L 533.315364 -36.729688 
L 535.008734 -36.729688 
L 536.702105 -36.729688 
L 538.395476 -36.729688 
L 540.088847 -36.729688 
L 541.782218 -36.729688 
L 543.475589 -36.729688 
L 545.16896 -36.729688 
L 546.862331 -36.729688 
L 548.555702 -36.729688 
L 550.249073 -36.729688 
L 551.942444 -36.729688 
L 553.635815 -36.729688 
L 555.329186 -36.729688 
L 557.022557 -36.729688 
L 558.715928 -36.729688 
L 560.409299 -36.729688 
L 562.10267 -36.729688 
L 563.79604 -36.729688 
L 565.489411 -36.729688 
L 567.182782 -36.729688 
L 568.876153 -36.729688 
L 570.569524 -36.729688 
L 572.262895 -36.729688 
L 573.956266 -36.729688 
L 575.649637 -36.729688 
L 577.343008 -36.729688 
L 579.036379 -36.729688 
L 580.72975 -36.729688 
L 582.423121 -36.729688 
L 584.116492 -36.729688 
L 585.809863 -36.729688 
L 587.503234 -36.729688 
L 589.196605 -36.729688 
L 590.889975 -36.729688 
L 592.583346 -36.729688 
L 594.276717 -36.729688 
L 595.970088 -36.729688 
L 597.663459 -36.729688 
L 599.35683 -36.729688 
L 601.050201 -36.729688 
L 602.743572 -36.729688 
L 604.436943 -36.729688 
L 606.130314 -36.729688 
L 607.823685 -36.729688 
L 609.517056 -36.729688 
L 611.210427 -36.729688 
L 612.903798 -36.729688 
L 614.597169 -36.729688 
L 616.29054 -36.729688 
L 617.983911 -36.729688 
L 619.677281 -36.729688 
L 621.370652 -36.729688 
L 623.064023 -36.729688 
L 624.757394 -36.729688 
L 626.450765 -36.729688 
L 628.144136 -36.729688 
L 629.837507 -36.729688 
L 631.530878 -36.729688 
L 633.224249 -36.729688 
L 634.91762 -36.729688 
L 636.610991 -36.729688 
L 638.304362 -36.729688 
L 639.997733 -36.729688 
L 641.691104 -36.729688 
L 643.384475 -36.729688 
L 645.077846 -36.729688 
L 646.771217 -36.729688 
L 648.464587 -36.729688 
L 650.157958 -36.729688 
L 651.851329 -36.729688 
L 653.5447 -36.729688 
L 655.238071 -36.729688 
L 656.931442 -36.729688 
L 658.624813 -36.729688 
L 660.318184 -36.729688 
L 662.011555 -36.729688 
L 663.704926 -36.729688 
L 665.398297 -36.729688 
L 667.091668 -36.729688 
L 668.785039 -36.729688 
L 670.47841 -36.729688 
L 672.171781 -36.729688 
L 673.865152 -36.729688 
L 675.558522 -36.729688 
L 677.251893 -36.729688 
L 678.945264 -36.729688 
L 680.638635 -36.729688 
L 682.332006 -36.729688 
L 684.025377 -36.729688 
L 685.718748 -36.729688 
L 687.412119 -36.729688 
L 689.10549 -36.729688 
L 690.798861 -36.729688 
L 692.492232 -36.729688 
L 694.185603 -36.729688 
L 695.878974 -36.729688 
L 697.572345 -36.729688 
L 699.265716 -36.729688 
L 700.959087 -36.729688 
L 702.652458 -36.729688 
L 704.345828 -36.729688 
L 706.039199 -36.729688 
L 707.73257 -36.729688 
L 709.425941 -36.729688 
L 711.119312 -36.729688 
L 712.812683 -36.729688 
L 714.506054 -36.729688 
L 716.199425 -36.729688 
L 717.892796 -36.729688 
L 719.586167 -36.729688 
L 721.279538 -36.729688 
L 722.972909 -36.729688 
L 724.66628 -36.729688 
L 726.359651 -36.729688 
L 728.053022 -36.729688 
L 729.746393 -36.729688 
L 731.439764 -36.729688 
L 733.133134 -36.729688 
L 734.826505 -36.729688 
L 736.519876 -36.729688 
L 738.213247 -36.729688 
L 739.906618 -36.729688 
L 741.599989 -36.729688 
L 743.29336 -36.729688 
L 744.986731 -36.729688 
L 746.680102 -36.729688 
L 748.373473 -36.729688 
L 750.066844 -36.729688 
L 751.760215 -36.729688 
L 751.760215 -36.800619 
L 751.760215 -36.800619 
L 750.066844 -36.824156 
L 748.373473 -36.854473 
L 746.680102 -36.893175 
L 744.986731 -36.942147 
L 743.29336 -37.003573 
L 741.599989 -37.079948 
L 739.906618 -37.174089 
L 738.213247 -37.289134 
L 736.519876 -37.428529 
L 734.826505 -37.596005 
L 733.133134 -37.795548 
L 731.439764 -38.031347 
L 729.746393 -38.307739 
L 728.053022 -38.629141 
L 726.359651 -38.999983 
L 724.66628 -39.42462 
L 722.972909 -39.907269 
L 721.279538 -40.451929 
L 719.586167 -41.062324 
L 717.892796 -41.741851 
L 716.199425 -42.493554 
L 714.506054 -43.32011 
L 712.812683 -44.223836 
L 711.119312 -45.206722 
L 709.425941 -46.270475 
L 707.73257 -47.416584 
L 706.039199 -48.646394 
L 704.345828 -49.961177 
L 702.652458 -51.362215 
L 700.959087 -52.850858 
L 699.265716 -54.428577 
L 697.572345 -56.096992 
L 695.878974 -57.857875 
L 694.185603 -59.713125 
L 692.492232 -61.664719 
L 690.798861 -63.714632 
L 689.10549 -65.864738 
L 687.412119 -68.116692 
L 685.718748 -70.47181 
L 684.025377 -72.930933 
L 682.332006 -75.494314 
L 680.638635 -78.161505 
L 678.945264 -80.931275 
L 677.251893 -83.801553 
L 675.558522 -86.769398 
L 673.865152 -89.831015 
L 672.171781 -92.981791 
L 670.47841 -96.216384 
L 668.785039 -99.528822 
L 667.091668 -102.912646 
L 665.398297 -106.361066 
L 663.704926 -109.867125 
L 662.011555 -113.423874 
L 660.318184 -117.024544 
L 658.624813 -120.6627 
L 656.931442 -124.332381 
L 655.238071 -128.028207 
L 653.5447 -131.745461 
L 651.851329 -135.480128 
L 650.157958 -139.2289 
L 648.464587 -142.989132 
L 646.771217 -146.758774 
L 645.077846 -150.536249 
L 643.384475 -154.320317 
L 641.691104 -158.109904 
L 639.997733 -161.903915 
L 638.304362 -165.701049 
L 636.610991 -169.4996 
L 634.91762 -173.297283 
L 633.224249 -177.091075 
L 631.530878 -180.877083 
L 629.837507 -184.650447 
L 628.144136 -188.405293 
L 626.450765 -192.134718 
L 624.757394 -195.830828 
L 623.064023 -199.484817 
L 621.370652 -203.087079 
L 619.677281 -206.627357 
L 617.983911 -210.094909 
L 616.29054 -213.478688 
L 614.597169 -216.767508 
L 612.903798 -219.950208 
L 611.210427 -223.015785 
L 609.517056 -225.95348 
L 607.823685 -228.752837 
L 606.130314 -231.403698 
L 604.436943 -233.896164 
L 602.743572 -236.220498 
L 601.050201 -238.367004 
L 599.35683 -240.325881 
L 597.663459 -242.087062 
L 595.970088 -243.640075 
L 594.276717 -244.973919 
L 592.583346 -246.07699 
L 590.889975 -246.93707 
L 589.196605 -247.54138 
L 587.503234 -247.87672 
L 585.809863 -247.929688 
L 584.116492 -247.686974 
L 582.423121 -247.135737 
L 580.72975 -246.264026 
L 579.036379 -245.06125 
L 577.343008 -243.518666 
L 575.649637 -241.629856 
L 573.956266 -239.391183 
L 572.262895 -236.802194 
L 570.569524 -233.865944 
L 568.876153 -230.589235 
L 567.182782 -226.98275 
L 565.489411 -223.061072 
L 563.79604 -218.842591 
L 562.10267 -214.349292 
L 560.409299 -209.606443 
L 558.715928 -204.642183 
L 557.022557 -199.487041 
L 555.329186 -194.173384 
L 553.635815 -188.734834 
L 551.942444 -183.205664 
L 550.249073 -177.620188 
L 548.555702 -172.012182 
L 546.862331 -166.414333 
L 545.16896 -160.857737 
L 543.475589 -155.371465 
L 541.782218 -149.982188 
L 540.088847 -144.713882 
L 538.395476 -139.587602 
L 536.702105 -134.621338 
L 535.008734 -129.829931 
L 533.315364 -125.225066 
L 531.621993 -120.81532 
L 529.928622 -116.606264 
L 528.235251 -112.600619 
L 526.54188 -108.798442 
L 524.848509 -105.197356 
L 523.155138 -101.792804 
L 521.461767 -98.578319 
L 519.768396 -95.545819 
L 518.075025 -92.685906 
L 516.381654 -89.988175 
L 514.688283 -87.441522 
L 512.994912 -85.034447 
L 511.301541 -82.755351 
L 509.60817 -80.59281 
L 507.914799 -78.535836 
L 506.221428 -76.574104 
L 504.528058 -74.698146 
L 502.834687 -72.899502 
L 501.141316 -71.170831 
L 499.447945 -69.505962 
L 497.754574 -67.899908 
L 496.061203 -66.348811 
L 494.367832 -64.849857 
L 492.674461 -63.401138 
L 490.98109 -62.001486 
L 489.287719 -60.65028 
L 487.594348 -59.347251 
L 485.900977 -58.092284 
L 484.207606 -56.885237 
L 482.514235 -55.725794 
L 480.820864 -54.613344 
L 479.127493 -53.54692 
L 477.434122 -52.525166 
L 475.740752 -51.546367 
L 474.047381 -50.608507 
L 472.35401 -49.709369 
L 470.660639 -48.846653 
L 468.967268 -48.018107 
L 467.273897 -47.221657 
L 465.580526 -46.45552 
L 463.887155 -45.718298 
L 462.193784 -45.00904 
L 460.500413 -44.327268 
L 458.807042 -43.672967 
L 457.113671 -43.046537 
L 455.4203 -42.448724 
L 453.726929 -41.880514 
L 452.033558 -41.343024 
L 450.340187 -40.837386 
L 448.646817 -40.364628 
L 446.953446 -39.925571 
L 445.260075 -39.520746 
L 443.566704 -39.150327 
L 441.873333 -38.814096 
L 440.179962 -38.511426 
L 438.486591 -38.241294 
L 436.79322 -38.002312 
L 435.099849 -37.792774 
L 433.406478 -37.610717 
L 431.713107 -37.453986 
L 430.019736 -37.320308 
L 428.326365 -37.207355 
L 426.632994 -37.112808 
L 424.939623 -37.034413 
L 423.246252 -36.970024 
L 421.552881 -36.917639 
L 419.859511 -36.875423 
L 418.16614 -36.841724 
L 416.472769 -36.81508 
L 414.779398 -36.794212 
z
" style="stroke: #4c72b0"/>
    </defs>
    <g>
     <use xlink:href="#mcff2a48164" x="0" y="265.689687" style="fill: #4c72b0; fill-opacity: 0.25; stroke: #4c72b0"/>
    </g>
   </g>
   <g id="line2d_32">
    <path d="M 274.072538 228.96 
L 274.072538 7.2 
" style="fill: none; stroke-dasharray: 0.8,1.32; stroke-dashoffset: 0; stroke: #d3d3d3; stroke-width: 0.8"/>
   </g>
   <g id="line2d_33">
    <path d="M 397.341526 228.96 
L 397.341526 7.2 
" style="fill: none; stroke-dasharray: 0.8,1.32; stroke-dashoffset: 0; stroke: #d3d3d3; stroke-width: 0.8"/>
   </g>
   <g id="line2d_34">
    <path d="M 7.2 228.96 
L 844.2 228.96 
" style="fill: none; stroke: #808080; stroke-width: 0.5; stroke-linecap: round"/>
   </g>
   <g id="text_13">
    <text style="font-size: 8px; font-family: 'Arial', 'DejaVu Sans', 'Liberation Sans', 'Bitstream Vera Sans', sans-serif; fill: #808080" transform="translate(280.326288 117.9251) rotate(-90)">International Poverty Line: $90</text>
   </g>
   <g id="text_14">
    <text style="font-size: 8px; font-family: 'Arial', 'DejaVu Sans', 'Liberation Sans', 'Bitstream Vera Sans', sans-serif; fill: #808080" transform="translate(403.067776 80.86635) rotate(-90)">World median: $289</text>
   </g>
   <g id="text_15">
    <text style="font-size: 10px; font-family: 'Arial', 'DejaVu Sans', 'Liberation Sans', 'Bitstream Vera Sans', sans-serif; text-anchor: middle" x="590.943872" y="226.855312" transform="rotate(-0 590.943872 226.855312)">Denmark (2023)</text>
   </g>
   <g id="text_16">
    <text style="font-size: 10px; font-family: 'Arial', 'DejaVu Sans', 'Liberation Sans', 'Bitstream Vera Sans', sans-serif; text-anchor: middle" x="242.57414" y="226.855312" transform="rotate(-0 242.57414 226.855312)">Madagascar (2021)</text>
   </g>
  </g>
 </g>
</svg>
