<?xml version="1.0" encoding="utf-8" standalone="no"?>
<!DOCTYPE svg PUBLIC "-//W3C//DTD SVG 1.1//EN"
  "http://www.w3.org/Graphics/SVG/1.1/DTD/svg11.dtd">
<svg xmlns:xlink="http://www.w3.org/1999/xlink" width="852.764pt" height="282.943437pt" viewBox="0 0 852.764 282.943437" xmlns="http://www.w3.org/2000/svg" version="1.1">
 <metadata>
  <rdf:RDF xmlns:dc="http://purl.org/dc/elements/1.1/" xmlns:cc="http://creativecommons.org/ns#" xmlns:rdf="http://www.w3.org/1999/02/22-rdf-syntax-ns#">
   <cc:Work>
    <dc:type rdf:resource="http://purl.org/dc/dcmitype/StillImage"/>
    <dc:date>2026-05-27T16:31:47.629839</dc:date>
    <dc:format>image/svg+xml</dc:format>
    <dc:creator>
     <cc:Agent>
      <dc:title>Matplotlib v3.10.9, https://matplotlib.org/</dc:title>
     </cc:Agent>
    </dc:creator>
   </cc:Work>
  </rdf:RDF>
 </metadata>
 <defs>
  <style type="text/css">*{stroke-linejoin: round; stroke-linecap: butt}</style>
 </defs>
 <g id="figure_1">
  <g id="patch_1">
   <path d="M 0 282.943437 
L 852.764 282.943437 
L 852.764 0 
L 0 0 
z
" style="fill: #ffffff"/>
  </g>
  <g id="axes_1">
   <g id="patch_2">
    <path d="M 7.2 246.21375 
L 844.2 246.21375 
L 844.2 24.45375 
L 7.2 24.45375 
z
" style="fill: #ffffff"/>
   </g>
   <g id="matplotlib.axis_1">
    <g id="xtick_1">
     <g id="line2d_1">
      <defs>
       <path id="m1d3e3e1766" d="M 0 0 
L 0 3.5 
" style="stroke: #262626; stroke-width: 0.8"/>
      </defs>
      <g>
       <use xlink:href="#m1d3e3e1766" x="57.087852" y="246.21375" style="fill: #262626; stroke: #262626; stroke-width: 0.8"/>
      </g>
     </g>
     <g id="text_1">
      <text style="font-size: 10px; font-family: 'Arial', 'DejaVu Sans', 'Liberation Sans', 'Bitstream Vera Sans', sans-serif; text-anchor: middle; fill: #262626" x="57.087852" y="260.371562" transform="rotate(-0 57.087852 260.371562)">$20</text>
     </g>
    </g>
    <g id="xtick_2">
     <g id="line2d_2">
      <g>
       <use xlink:href="#m1d3e3e1766" x="170.882169" y="246.21375" style="fill: #262626; stroke: #262626; stroke-width: 0.8"/>
      </g>
     </g>
     <g id="text_2">
      <text style="font-size: 10px; font-family: 'Arial', 'DejaVu Sans', 'Liberation Sans', 'Bitstream Vera Sans', sans-serif; text-anchor: middle; fill: #262626" x="170.882169" y="260.371562" transform="rotate(-0 170.882169 260.371562)">$50</text>
     </g>
    </g>
    <g id="xtick_3">
     <g id="line2d_3">
      <g>
       <use xlink:href="#m1d3e3e1766" x="256.964246" y="246.21375" style="fill: #262626; stroke: #262626; stroke-width: 0.8"/>
      </g>
     </g>
     <g id="text_3">
      <text style="font-size: 10px; font-family: 'Arial', 'DejaVu Sans', 'Liberation Sans', 'Bitstream Vera Sans', sans-serif; text-anchor: middle; fill: #262626" x="256.964246" y="260.371562" transform="rotate(-0 256.964246 260.371562)">$100</text>
     </g>
    </g>
    <g id="xtick_4">
     <g id="line2d_4">
      <g>
       <use xlink:href="#m1d3e3e1766" x="343.046323" y="246.21375" style="fill: #262626; stroke: #262626; stroke-width: 0.8"/>
      </g>
     </g>
     <g id="text_4">
      <text style="font-size: 10px; font-family: 'Arial', 'DejaVu Sans', 'Liberation Sans', 'Bitstream Vera Sans', sans-serif; text-anchor: middle; fill: #262626" x="343.046323" y="260.371562" transform="rotate(-0 343.046323 260.371562)">$200</text>
     </g>
    </g>
    <g id="xtick_5">
     <g id="line2d_5">
      <g>
       <use xlink:href="#m1d3e3e1766" x="456.840639" y="246.21375" style="fill: #262626; stroke: #262626; stroke-width: 0.8"/>
      </g>
     </g>
     <g id="text_5">
      <text style="font-size: 10px; font-family: 'Arial', 'DejaVu Sans', 'Liberation Sans', 'Bitstream Vera Sans', sans-serif; text-anchor: middle; fill: #262626" x="456.840639" y="260.371562" transform="rotate(-0 456.840639 260.371562)">$500</text>
     </g>
    </g>
    <g id="xtick_6">
     <g id="line2d_6">
      <g>
       <use xlink:href="#m1d3e3e1766" x="542.922716" y="246.21375" style="fill: #262626; stroke: #262626; stroke-width: 0.8"/>
      </g>
     </g>
     <g id="text_6">
      <text style="font-size: 10px; font-family: 'Arial', 'DejaVu Sans', 'Liberation Sans', 'Bitstream Vera Sans', sans-serif; text-anchor: middle; fill: #262626" x="542.922716" y="260.371562" transform="rotate(-0 542.922716 260.371562)">$1000</text>
     </g>
    </g>
    <g id="xtick_7">
     <g id="line2d_7">
      <g>
       <use xlink:href="#m1d3e3e1766" x="629.004794" y="246.21375" style="fill: #262626; stroke: #262626; stroke-width: 0.8"/>
      </g>
     </g>
     <g id="text_7">
      <text style="font-size: 10px; font-family: 'Arial', 'DejaVu Sans', 'Liberation Sans', 'Bitstream Vera Sans', sans-serif; text-anchor: middle; fill: #262626" x="629.004794" y="260.371562" transform="rotate(-0 629.004794 260.371562)">$2000</text>
     </g>
    </g>
    <g id="xtick_8">
     <g id="line2d_8">
      <g>
       <use xlink:href="#m1d3e3e1766" x="742.79911" y="246.21375" style="fill: #262626; stroke: #262626; stroke-width: 0.8"/>
      </g>
     </g>
     <g id="text_8">
      <text style="font-size: 10px; font-family: 'Arial', 'DejaVu Sans', 'Liberation Sans', 'Bitstream Vera Sans', sans-serif; text-anchor: middle; fill: #262626" x="742.79911" y="260.371562" transform="rotate(-0 742.79911 260.371562)">$5000</text>
     </g>
    </g>
    <g id="xtick_9">
     <g id="line2d_9">
      <g>
       <use xlink:href="#m1d3e3e1766" x="828.881187" y="246.21375" style="fill: #262626; stroke: #262626; stroke-width: 0.8"/>
      </g>
     </g>
     <g id="text_9">
      <text style="font-size: 10px; font-family: 'Arial', 'DejaVu Sans', 'Liberation Sans', 'Bitstream Vera Sans', sans-serif; text-anchor: middle; fill: #262626" x="828.881187" y="260.371562" transform="rotate(-0 828.881187 260.371562)">$10000</text>
     </g>
    </g>
    <g id="xtick_10">
     <g id="line2d_10">
      <defs>
       <path id="mfb25e6e8dd" d="M 0 0 
L 0 2 
" style="stroke: #262626; stroke-width: 0.6"/>
      </defs>
      <g>
       <use xlink:href="#mfb25e6e8dd" x="107.442639" y="246.21375" style="fill: #262626; stroke: #262626; stroke-width: 0.6"/>
      </g>
     </g>
    </g>
    <g id="xtick_11">
     <g id="line2d_11">
      <g>
       <use xlink:href="#mfb25e6e8dd" x="143.169929" y="246.21375" style="fill: #262626; stroke: #262626; stroke-width: 0.6"/>
      </g>
     </g>
    </g>
    <g id="xtick_12">
     <g id="line2d_12">
      <g>
       <use xlink:href="#mfb25e6e8dd" x="193.524717" y="246.21375" style="fill: #262626; stroke: #262626; stroke-width: 0.6"/>
      </g>
     </g>
    </g>
    <g id="xtick_13">
     <g id="line2d_13">
      <g>
       <use xlink:href="#mfb25e6e8dd" x="212.668718" y="246.21375" style="fill: #262626; stroke: #262626; stroke-width: 0.6"/>
      </g>
     </g>
    </g>
    <g id="xtick_14">
     <g id="line2d_14">
      <g>
       <use xlink:href="#mfb25e6e8dd" x="229.252007" y="246.21375" style="fill: #262626; stroke: #262626; stroke-width: 0.6"/>
      </g>
     </g>
    </g>
    <g id="xtick_15">
     <g id="line2d_15">
      <g>
       <use xlink:href="#mfb25e6e8dd" x="243.879504" y="246.21375" style="fill: #262626; stroke: #262626; stroke-width: 0.6"/>
      </g>
     </g>
    </g>
    <g id="xtick_16">
     <g id="line2d_16">
      <g>
       <use xlink:href="#mfb25e6e8dd" x="393.40111" y="246.21375" style="fill: #262626; stroke: #262626; stroke-width: 0.6"/>
      </g>
     </g>
    </g>
    <g id="xtick_17">
     <g id="line2d_17">
      <g>
       <use xlink:href="#mfb25e6e8dd" x="429.1284" y="246.21375" style="fill: #262626; stroke: #262626; stroke-width: 0.6"/>
      </g>
     </g>
    </g>
    <g id="xtick_18">
     <g id="line2d_18">
      <g>
       <use xlink:href="#mfb25e6e8dd" x="479.483187" y="246.21375" style="fill: #262626; stroke: #262626; stroke-width: 0.6"/>
      </g>
     </g>
    </g>
    <g id="xtick_19">
     <g id="line2d_19">
      <g>
       <use xlink:href="#mfb25e6e8dd" x="498.627189" y="246.21375" style="fill: #262626; stroke: #262626; stroke-width: 0.6"/>
      </g>
     </g>
    </g>
    <g id="xtick_20">
     <g id="line2d_20">
      <g>
       <use xlink:href="#mfb25e6e8dd" x="515.210477" y="246.21375" style="fill: #262626; stroke: #262626; stroke-width: 0.6"/>
      </g>
     </g>
    </g>
    <g id="xtick_21">
     <g id="line2d_21">
      <g>
       <use xlink:href="#mfb25e6e8dd" x="529.837974" y="246.21375" style="fill: #262626; stroke: #262626; stroke-width: 0.6"/>
      </g>
     </g>
    </g>
    <g id="xtick_22">
     <g id="line2d_22">
      <g>
       <use xlink:href="#mfb25e6e8dd" x="679.359581" y="246.21375" style="fill: #262626; stroke: #262626; stroke-width: 0.6"/>
      </g>
     </g>
    </g>
    <g id="xtick_23">
     <g id="line2d_23">
      <g>
       <use xlink:href="#mfb25e6e8dd" x="715.086871" y="246.21375" style="fill: #262626; stroke: #262626; stroke-width: 0.6"/>
      </g>
     </g>
    </g>
    <g id="xtick_24">
     <g id="line2d_24">
      <g>
       <use xlink:href="#mfb25e6e8dd" x="765.441658" y="246.21375" style="fill: #262626; stroke: #262626; stroke-width: 0.6"/>
      </g>
     </g>
    </g>
    <g id="xtick_25">
     <g id="line2d_25">
      <g>
       <use xlink:href="#mfb25e6e8dd" x="784.58566" y="246.21375" style="fill: #262626; stroke: #262626; stroke-width: 0.6"/>
      </g>
     </g>
    </g>
    <g id="xtick_26">
     <g id="line2d_26">
      <g>
       <use xlink:href="#mfb25e6e8dd" x="801.168948" y="246.21375" style="fill: #262626; stroke: #262626; stroke-width: 0.6"/>
      </g>
     </g>
    </g>
    <g id="xtick_27">
     <g id="line2d_27">
      <g>
       <use xlink:href="#mfb25e6e8dd" x="815.796445" y="246.21375" style="fill: #262626; stroke: #262626; stroke-width: 0.6"/>
      </g>
     </g>
    </g>
    <g id="text_10">
     <text style="font-size: 10px; font-family: 'Arial', 'DejaVu Sans', 'Liberation Sans', 'Bitstream Vera Sans', sans-serif; text-anchor: middle; fill: #262626" x="425.7" y="273.63875" transform="rotate(-0 425.7 273.63875)">Income or consumption (month)</text>
    </g>
   </g>
   <g id="matplotlib.axis_2"/>
   <g id="FillBetweenPolyCollection_1">
    <defs>
     <path id="m44a36ce005" d="M 45.245455 -36.729688 
L 45.245455 -36.812009 
L 47.34424 -36.838359 
L 49.443026 -36.872136 
L 51.541812 -36.915108 
L 53.640598 -36.969371 
L 55.739384 -37.037383 
L 57.83817 -37.122 
L 59.936955 -37.226505 
L 62.035741 -37.354632 
L 64.134527 -37.510589 
L 66.233313 -37.699061 
L 68.332099 -37.925214 
L 70.430885 -38.194679 
L 72.529671 -38.513525 
L 74.628456 -38.888221 
L 76.727242 -39.325576 
L 78.826028 -39.832673 
L 80.924814 -40.416789 
L 83.0236 -41.085298 
L 85.122386 -41.845574 
L 87.221172 -42.704881 
L 89.319957 -43.670264 
L 91.418743 -44.748443 
L 93.517529 -45.945707 
L 95.616315 -47.267817 
L 97.715101 -48.719926 
L 99.813887 -50.306503 
L 101.912672 -52.031279 
L 104.011458 -53.897205 
L 106.110244 -55.90643 
L 108.20903 -58.060291 
L 110.307816 -60.359317 
L 112.406602 -62.80325 
L 114.505388 -65.391068 
L 116.604173 -68.121021 
L 118.702959 -70.990665 
L 120.801745 -73.996909 
L 122.900531 -77.136045 
L 124.999317 -80.403793 
L 127.098103 -83.795326 
L 129.196888 -87.305306 
L 131.295674 -90.927901 
L 133.39446 -94.656809 
L 135.493246 -98.485271 
L 137.592032 -102.406082 
L 139.690818 -106.411601 
L 141.789604 -110.49376 
L 143.888389 -114.64407 
L 145.987175 -118.853635 
L 148.085961 -123.11316 
L 150.184747 -127.412967 
L 152.283533 -131.743021 
L 154.382319 -136.09295 
L 156.481105 -140.452084 
L 158.57989 -144.809491 
L 160.678676 -149.154029 
L 162.777462 -153.4744 
L 164.876248 -157.759214 
L 166.975034 -161.997058 
L 169.07382 -166.176572 
L 171.172605 -170.286529 
L 173.271391 -174.31591 
L 175.370177 -178.253986 
L 177.468963 -182.090389 
L 179.567749 -185.815177 
L 181.666535 -189.418893 
L 183.765321 -192.892596 
L 185.864106 -196.227897 
L 187.962892 -199.416956 
L 190.061678 -202.452476 
L 192.160464 -205.32767 
L 194.25925 -208.036214 
L 196.358036 -210.572189 
L 198.456821 -212.930003 
L 200.555607 -215.104321 
L 202.654393 -217.089982 
L 204.753179 -218.881936 
L 206.851965 -220.475179 
L 208.950751 -221.864725 
L 211.049537 -223.045586 
L 213.148322 -224.012796 
L 215.247108 -224.761458 
L 217.345894 -225.286832 
L 219.44468 -225.584453 
L 221.543466 -225.650277 
L 223.642252 -225.480859 
L 225.741038 -225.073546 
L 227.839823 -224.426674 
L 229.938609 -223.539771 
L 232.037395 -222.413751 
L 234.136181 -221.051076 
L 236.234967 -219.455897 
L 238.333753 -217.634146 
L 240.432538 -215.59359 
L 242.531324 -213.343824 
L 244.63011 -210.896213 
L 246.728896 -208.263783 
L 248.827682 -205.46106 
L 250.926468 -202.503855 
L 253.025254 -199.409022 
L 255.124039 -196.19418 
L 257.222825 -192.877413 
L 259.321611 -189.476967 
L 261.420397 -186.010939 
L 263.519183 -182.496981 
L 265.617969 -178.952032 
L 267.716754 -175.39206 
L 269.81554 -171.831857 
L 271.914326 -168.284868 
L 274.013112 -164.763054 
L 276.111898 -161.27682 
L 278.210684 -157.834971 
L 280.30947 -154.444721 
L 282.408255 -151.111745 
L 284.507041 -147.840261 
L 286.605827 -144.633155 
L 288.704613 -141.492125 
L 290.803399 -138.417847 
L 292.902185 -135.410154 
L 295.000971 -132.468225 
L 297.099756 -129.590765 
L 299.198542 -126.776185 
L 301.297328 -124.022765 
L 303.396114 -121.328792 
L 305.4949 -118.692687 
L 307.593686 -116.113092 
L 309.692471 -113.588942 
L 311.791257 -111.119493 
L 313.890043 -108.704338 
L 315.988829 -106.343385 
L 318.087615 -104.03682 
L 320.186401 -101.785048 
L 322.285187 -99.588622 
L 324.383972 -97.448162 
L 326.482758 -95.364271 
L 328.581544 -93.337454 
L 330.68033 -91.368041 
L 332.779116 -89.45612 
L 334.877902 -87.60148 
L 336.976687 -85.803576 
L 339.075473 -84.061499 
L 341.174259 -82.373969 
L 343.273045 -80.739342 
L 345.371831 -79.155624 
L 347.470617 -77.620509 
L 349.569403 -76.13141 
L 351.668188 -74.685514 
L 353.766974 -73.279834 
L 355.86576 -71.911261 
L 357.964546 -70.576626 
L 360.063332 -69.272761 
L 362.162118 -67.996554 
L 364.260904 -66.74501 
L 366.359689 -65.515307 
L 368.458475 -64.304852 
L 370.557261 -63.111335 
L 372.656047 -61.932779 
L 374.754833 -60.767585 
L 376.853619 -59.614576 
L 378.952404 -58.47303 
L 381.05119 -57.342709 
L 383.149976 -56.223871 
L 385.248762 -55.117282 
L 387.347548 -54.024197 
L 389.446334 -52.946347 
L 391.54512 -51.885889 
L 393.643905 -50.84536 
L 395.742691 -49.827607 
L 397.841477 -48.835699 
L 399.940263 -47.872843 
L 402.039049 -46.942283 
L 404.137835 -46.047197 
L 406.23662 -45.190596 
L 408.335406 -44.37523 
L 410.434192 -43.603498 
L 412.532978 -42.877377 
L 414.631764 -42.19836 
L 416.73055 -41.567415 
L 418.829336 -40.984963 
L 420.928121 -40.450873 
L 423.026907 -39.96448 
L 425.125693 -39.524611 
L 427.224479 -39.129639 
L 429.323265 -38.777533 
L 431.422051 -38.46593 
L 433.520837 -38.192204 
L 435.619622 -37.953543 
L 437.718408 -37.747019 
L 439.817194 -37.569659 
L 441.91598 -37.418506 
L 444.014766 -37.290675 
L 446.113552 -37.183403 
L 448.212337 -37.094081 
L 450.311123 -37.020283 
L 452.409909 -36.959788 
L 454.508695 -36.910587 
L 456.607481 -36.870884 
L 458.706267 -36.8391 
L 460.805053 -36.813855 
L 462.903838 -36.793962 
L 462.903838 -36.729688 
L 462.903838 -36.729688 
L 460.805053 -36.729688 
L 458.706267 -36.729688 
L 456.607481 -36.729688 
L 454.508695 -36.729688 
L 452.409909 -36.729688 
L 450.311123 -36.729688 
L 448.212337 -36.729688 
L 446.113552 -36.729688 
L 444.014766 -36.729688 
L 441.91598 -36.729688 
L 439.817194 -36.729688 
L 437.718408 -36.729688 
L 435.619622 -36.729688 
L 433.520837 -36.729688 
L 431.422051 -36.729688 
L 429.323265 -36.729688 
L 427.224479 -36.729688 
L 425.125693 -36.729688 
L 423.026907 -36.729688 
L 420.928121 -36.729688 
L 418.829336 -36.729688 
L 416.73055 -36.729688 
L 414.631764 -36.729688 
L 412.532978 -36.729688 
L 410.434192 -36.729688 
L 408.335406 -36.729688 
L 406.23662 -36.729688 
L 404.137835 -36.729688 
L 402.039049 -36.729688 
L 399.940263 -36.729688 
L 397.841477 -36.729688 
L 395.742691 -36.729688 
L 393.643905 -36.729688 
L 391.54512 -36.729688 
L 389.446334 -36.729688 
L 387.347548 -36.729688 
L 385.248762 -36.729688 
L 383.149976 -36.729688 
L 381.05119 -36.729688 
L 378.952404 -36.729688 
L 376.853619 -36.729688 
L 374.754833 -36.729688 
L 372.656047 -36.729688 
L 370.557261 -36.729688 
L 368.458475 -36.729688 
L 366.359689 -36.729688 
L 364.260904 -36.729688 
L 362.162118 -36.729688 
L 360.063332 -36.729688 
L 357.964546 -36.729688 
L 355.86576 -36.729688 
L 353.766974 -36.729688 
L 351.668188 -36.729688 
L 349.569403 -36.729688 
L 347.470617 -36.729688 
L 345.371831 -36.729688 
L 343.273045 -36.729688 
L 341.174259 -36.729688 
L 339.075473 -36.729688 
L 336.976687 -36.729688 
L 334.877902 -36.729688 
L 332.779116 -36.729688 
L 330.68033 -36.729688 
L 328.581544 -36.729688 
L 326.482758 -36.729688 
L 324.383972 -36.729688 
L 322.285187 -36.729688 
L 320.186401 -36.729688 
L 318.087615 -36.729688 
L 315.988829 -36.729688 
L 313.890043 -36.729688 
L 311.791257 -36.729688 
L 309.692471 -36.729688 
L 307.593686 -36.729688 
L 305.4949 -36.729688 
L 303.396114 -36.729688 
L 301.297328 -36.729688 
L 299.198542 -36.729688 
L 297.099756 -36.729688 
L 295.000971 -36.729688 
L 292.902185 -36.729688 
L 290.803399 -36.729688 
L 288.704613 -36.729688 
L 286.605827 -36.729688 
L 284.507041 -36.729688 
L 282.408255 -36.729688 
L 280.30947 -36.729688 
L 278.210684 -36.729688 
L 276.111898 -36.729688 
L 274.013112 -36.729688 
L 271.914326 -36.729688 
L 269.81554 -36.729688 
L 267.716754 -36.729688 
L 265.617969 -36.729688 
L 263.519183 -36.729688 
L 261.420397 -36.729688 
L 259.321611 -36.729688 
L 257.222825 -36.729688 
L 255.124039 -36.729688 
L 253.025254 -36.729688 
L 250.926468 -36.729688 
L 248.827682 -36.729688 
L 246.728896 -36.729688 
L 244.63011 -36.729688 
L 242.531324 -36.729688 
L 240.432538 -36.729688 
L 238.333753 -36.729688 
L 236.234967 -36.729688 
L 234.136181 -36.729688 
L 232.037395 -36.729688 
L 229.938609 -36.729688 
L 227.839823 -36.729688 
L 225.741038 -36.729688 
L 223.642252 -36.729688 
L 221.543466 -36.729688 
L 219.44468 -36.729688 
L 217.345894 -36.729688 
L 215.247108 -36.729688 
L 213.148322 -36.729688 
L 211.049537 -36.729688 
L 208.950751 -36.729688 
L 206.851965 -36.729688 
L 204.753179 -36.729688 
L 202.654393 -36.729688 
L 200.555607 -36.729688 
L 198.456821 -36.729688 
L 196.358036 -36.729688 
L 194.25925 -36.729688 
L 192.160464 -36.729688 
L 190.061678 -36.729688 
L 187.962892 -36.729688 
L 185.864106 -36.729688 
L 183.765321 -36.729688 
L 181.666535 -36.729688 
L 179.567749 -36.729688 
L 177.468963 -36.729688 
L 175.370177 -36.729688 
L 173.271391 -36.729688 
L 171.172605 -36.729688 
L 169.07382 -36.729688 
L 166.975034 -36.729688 
L 164.876248 -36.729688 
L 162.777462 -36.729688 
L 160.678676 -36.729688 
L 158.57989 -36.729688 
L 156.481105 -36.729688 
L 154.382319 -36.729688 
L 152.283533 -36.729688 
L 150.184747 -36.729688 
L 148.085961 -36.729688 
L 145.987175 -36.729688 
L 143.888389 -36.729688 
L 141.789604 -36.729688 
L 139.690818 -36.729688 
L 137.592032 -36.729688 
L 135.493246 -36.729688 
L 133.39446 -36.729688 
L 131.295674 -36.729688 
L 129.196888 -36.729688 
L 127.098103 -36.729688 
L 124.999317 -36.729688 
L 122.900531 -36.729688 
L 120.801745 -36.729688 
L 118.702959 -36.729688 
L 116.604173 -36.729688 
L 114.505388 -36.729688 
L 112.406602 -36.729688 
L 110.307816 -36.729688 
L 108.20903 -36.729688 
L 106.110244 -36.729688 
L 104.011458 -36.729688 
L 101.912672 -36.729688 
L 99.813887 -36.729688 
L 97.715101 -36.729688 
L 95.616315 -36.729688 
L 93.517529 -36.729688 
L 91.418743 -36.729688 
L 89.319957 -36.729688 
L 87.221172 -36.729688 
L 85.122386 -36.729688 
L 83.0236 -36.729688 
L 80.924814 -36.729688 
L 78.826028 -36.729688 
L 76.727242 -36.729688 
L 74.628456 -36.729688 
L 72.529671 -36.729688 
L 70.430885 -36.729688 
L 68.332099 -36.729688 
L 66.233313 -36.729688 
L 64.134527 -36.729688 
L 62.035741 -36.729688 
L 59.936955 -36.729688 
L 57.83817 -36.729688 
L 55.739384 -36.729688 
L 53.640598 -36.729688 
L 51.541812 -36.729688 
L 49.443026 -36.729688 
L 47.34424 -36.729688 
L 45.245455 -36.729688 
z
" style="stroke: #dd8452; stroke-opacity: 0.2"/>
    </defs>
    <g>
     <use xlink:href="#m44a36ce005" x="0" y="282.943437" style="fill: #dd8452; fill-opacity: 0.2; stroke: #dd8452; stroke-opacity: 0.2"/>
    </g>
   </g>
   <g id="FillBetweenPolyCollection_2">
    <defs>
     <path id="ma79d050f9f" d="M 409.502272 -36.729688 
L 409.502272 -36.794212 
L 411.495499 -36.81508 
L 413.488727 -36.841724 
L 415.481954 -36.875423 
L 417.475182 -36.917639 
L 419.468409 -36.970024 
L 421.461637 -37.034413 
L 423.454864 -37.112808 
L 425.448092 -37.207355 
L 427.441319 -37.320308 
L 429.434547 -37.453986 
L 431.427774 -37.610717 
L 433.421002 -37.792774 
L 435.414229 -38.002312 
L 437.407457 -38.241294 
L 439.400684 -38.511426 
L 441.393912 -38.814096 
L 443.387139 -39.150327 
L 445.380367 -39.520746 
L 447.373594 -39.925571 
L 449.366822 -40.364628 
L 451.360049 -40.837386 
L 453.353277 -41.343024 
L 455.346504 -41.880514 
L 457.339732 -42.448724 
L 459.332959 -43.046537 
L 461.326187 -43.672967 
L 463.319414 -44.327268 
L 465.312642 -45.00904 
L 467.305869 -45.718298 
L 469.299097 -46.45552 
L 471.292324 -47.221657 
L 473.285552 -48.018107 
L 475.278779 -48.846653 
L 477.272007 -49.709369 
L 479.265234 -50.608507 
L 481.258462 -51.546367 
L 483.25169 -52.525166 
L 485.244917 -53.54692 
L 487.238145 -54.613344 
L 489.231372 -55.725794 
L 491.2246 -56.885237 
L 493.217827 -58.092284 
L 495.211055 -59.347251 
L 497.204282 -60.65028 
L 499.19751 -62.001486 
L 501.190737 -63.401138 
L 503.183965 -64.849857 
L 505.177192 -66.348811 
L 507.17042 -67.899908 
L 509.163647 -69.505962 
L 511.156875 -71.170831 
L 513.150102 -72.899502 
L 515.14333 -74.698146 
L 517.136557 -76.574104 
L 519.129785 -78.535836 
L 521.123012 -80.59281 
L 523.11624 -82.755351 
L 525.109467 -85.034447 
L 527.102695 -87.441522 
L 529.095922 -89.988175 
L 531.08915 -92.685906 
L 533.082377 -95.545819 
L 535.075605 -98.578319 
L 537.068832 -101.792804 
L 539.06206 -105.197356 
L 541.055287 -108.798442 
L 543.048515 -112.600619 
L 545.041742 -116.606264 
L 547.03497 -120.81532 
L 549.028197 -125.225066 
L 551.021425 -129.829931 
L 553.014652 -134.621338 
L 555.00788 -139.587602 
L 557.001107 -144.713882 
L 558.994335 -149.982188 
L 560.987562 -155.371465 
L 562.98079 -160.857737 
L 564.974017 -166.414333 
L 566.967245 -172.012182 
L 568.960472 -177.620188 
L 570.9537 -183.205664 
L 572.946927 -188.734834 
L 574.940155 -194.173384 
L 576.933382 -199.487041 
L 578.92661 -204.642183 
L 580.919837 -209.606443 
L 582.913065 -214.349292 
L 584.906292 -218.842591 
L 586.89952 -223.061072 
L 588.892747 -226.98275 
L 590.885975 -230.589235 
L 592.879202 -233.865944 
L 594.87243 -236.802194 
L 596.865657 -239.391183 
L 598.858885 -241.629856 
L 600.852112 -243.518666 
L 602.84534 -245.06125 
L 604.838567 -246.264026 
L 606.831795 -247.135737 
L 608.825022 -247.686974 
L 610.81825 -247.929688 
L 612.811477 -247.87672 
L 614.804705 -247.54138 
L 616.797932 -246.93707 
L 618.79116 -246.07699 
L 620.784387 -244.973919 
L 622.777615 -243.640075 
L 624.770842 -242.087062 
L 626.76407 -240.325881 
L 628.757297 -238.367004 
L 630.750525 -236.220498 
L 632.743752 -233.896164 
L 634.73698 -231.403698 
L 636.730207 -228.752837 
L 638.723435 -225.95348 
L 640.716662 -223.015785 
L 642.70989 -219.950208 
L 644.703117 -216.767508 
L 646.696345 -213.478688 
L 648.689572 -210.094909 
L 650.6828 -206.627357 
L 652.676028 -203.087079 
L 654.669255 -199.484817 
L 656.662483 -195.830828 
L 658.65571 -192.134718 
L 660.648938 -188.405293 
L 662.642165 -184.650447 
L 664.635393 -180.877083 
L 666.62862 -177.091075 
L 668.621848 -173.297283 
L 670.615075 -169.4996 
L 672.608303 -165.701049 
L 674.60153 -161.903915 
L 676.594758 -158.109904 
L 678.587985 -154.320317 
L 680.581213 -150.536249 
L 682.57444 -146.758774 
L 684.567668 -142.989132 
L 686.560895 -139.2289 
L 688.554123 -135.480128 
L 690.54735 -131.745461 
L 692.540578 -128.028207 
L 694.533805 -124.332381 
L 696.527033 -120.6627 
L 698.52026 -117.024544 
L 700.513488 -113.423874 
L 702.506715 -109.867125 
L 704.499943 -106.361066 
L 706.49317 -102.912646 
L 708.486398 -99.528822 
L 710.479625 -96.216384 
L 712.472853 -92.981791 
L 714.46608 -89.831015 
L 716.459308 -86.769398 
L 718.452535 -83.801553 
L 720.445763 -80.931275 
L 722.43899 -78.161505 
L 724.432218 -75.494314 
L 726.425445 -72.930933 
L 728.418673 -70.47181 
L 730.4119 -68.116692 
L 732.405128 -65.864738 
L 734.398355 -63.714632 
L 736.391583 -61.664719 
L 738.38481 -59.713125 
L 740.378038 -57.857875 
L 742.371265 -56.096992 
L 744.364493 -54.428577 
L 746.35772 -52.850858 
L 748.350948 -51.362215 
L 750.344175 -49.961177 
L 752.337403 -48.646394 
L 754.33063 -47.416584 
L 756.323858 -46.270475 
L 758.317085 -45.206722 
L 760.310313 -44.223836 
L 762.30354 -43.32011 
L 764.296768 -42.493554 
L 766.289995 -41.741851 
L 768.283223 -41.062324 
L 770.27645 -40.451929 
L 772.269678 -39.907269 
L 774.262905 -39.42462 
L 776.256133 -38.999983 
L 778.24936 -38.629141 
L 780.242588 -38.307739 
L 782.235815 -38.031347 
L 784.229043 -37.795548 
L 786.22227 -37.596005 
L 788.215498 -37.428529 
L 790.208725 -37.289134 
L 792.201953 -37.174089 
L 794.19518 -37.079948 
L 796.188408 -37.003573 
L 798.181635 -36.942147 
L 800.174863 -36.893175 
L 802.16809 -36.854473 
L 804.161318 -36.824156 
L 806.154545 -36.800619 
L 806.154545 -36.729688 
L 806.154545 -36.729688 
L 804.161318 -36.729688 
L 802.16809 -36.729688 
L 800.174863 -36.729688 
L 798.181635 -36.729688 
L 796.188408 -36.729688 
L 794.19518 -36.729688 
L 792.201953 -36.729688 
L 790.208725 -36.729688 
L 788.215498 -36.729688 
L 786.22227 -36.729688 
L 784.229043 -36.729688 
L 782.235815 -36.729688 
L 780.242588 -36.729688 
L 778.24936 -36.729688 
L 776.256133 -36.729688 
L 774.262905 -36.729688 
L 772.269678 -36.729688 
L 770.27645 -36.729688 
L 768.283223 -36.729688 
L 766.289995 -36.729688 
L 764.296768 -36.729688 
L 762.30354 -36.729688 
L 760.310313 -36.729688 
L 758.317085 -36.729688 
L 756.323858 -36.729688 
L 754.33063 -36.729688 
L 752.337403 -36.729688 
L 750.344175 -36.729688 
L 748.350948 -36.729688 
L 746.35772 -36.729688 
L 744.364493 -36.729688 
L 742.371265 -36.729688 
L 740.378038 -36.729688 
L 738.38481 -36.729688 
L 736.391583 -36.729688 
L 734.398355 -36.729688 
L 732.405128 -36.729688 
L 730.4119 -36.729688 
L 728.418673 -36.729688 
L 726.425445 -36.729688 
L 724.432218 -36.729688 
L 722.43899 -36.729688 
L 720.445763 -36.729688 
L 718.452535 -36.729688 
L 716.459308 -36.729688 
L 714.46608 -36.729688 
L 712.472853 -36.729688 
L 710.479625 -36.729688 
L 708.486398 -36.729688 
L 706.49317 -36.729688 
L 704.499943 -36.729688 
L 702.506715 -36.729688 
L 700.513488 -36.729688 
L 698.52026 -36.729688 
L 696.527033 -36.729688 
L 694.533805 -36.729688 
L 692.540578 -36.729688 
L 690.54735 -36.729688 
L 688.554123 -36.729688 
L 686.560895 -36.729688 
L 684.567668 -36.729688 
L 682.57444 -36.729688 
L 680.581213 -36.729688 
L 678.587985 -36.729688 
L 676.594758 -36.729688 
L 674.60153 -36.729688 
L 672.608303 -36.729688 
L 670.615075 -36.729688 
L 668.621848 -36.729688 
L 666.62862 -36.729688 
L 664.635393 -36.729688 
L 662.642165 -36.729688 
L 660.648938 -36.729688 
L 658.65571 -36.729688 
L 656.662483 -36.729688 
L 654.669255 -36.729688 
L 652.676028 -36.729688 
L 650.6828 -36.729688 
L 648.689572 -36.729688 
L 646.696345 -36.729688 
L 644.703117 -36.729688 
L 642.70989 -36.729688 
L 640.716662 -36.729688 
L 638.723435 -36.729688 
L 636.730207 -36.729688 
L 634.73698 -36.729688 
L 632.743752 -36.729688 
L 630.750525 -36.729688 
L 628.757297 -36.729688 
L 626.76407 -36.729688 
L 624.770842 -36.729688 
L 622.777615 -36.729688 
L 620.784387 -36.729688 
L 618.79116 -36.729688 
L 616.797932 -36.729688 
L 614.804705 -36.729688 
L 612.811477 -36.729688 
L 610.81825 -36.729688 
L 608.825022 -36.729688 
L 606.831795 -36.729688 
L 604.838567 -36.729688 
L 602.84534 -36.729688 
L 600.852112 -36.729688 
L 598.858885 -36.729688 
L 596.865657 -36.729688 
L 594.87243 -36.729688 
L 592.879202 -36.729688 
L 590.885975 -36.729688 
L 588.892747 -36.729688 
L 586.89952 -36.729688 
L 584.906292 -36.729688 
L 582.913065 -36.729688 
L 580.919837 -36.729688 
L 578.92661 -36.729688 
L 576.933382 -36.729688 
L 574.940155 -36.729688 
L 572.946927 -36.729688 
L 570.9537 -36.729688 
L 568.960472 -36.729688 
L 566.967245 -36.729688 
L 564.974017 -36.729688 
L 562.98079 -36.729688 
L 560.987562 -36.729688 
L 558.994335 -36.729688 
L 557.001107 -36.729688 
L 555.00788 -36.729688 
L 553.014652 -36.729688 
L 551.021425 -36.729688 
L 549.028197 -36.729688 
L 547.03497 -36.729688 
L 545.041742 -36.729688 
L 543.048515 -36.729688 
L 541.055287 -36.729688 
L 539.06206 -36.729688 
L 537.068832 -36.729688 
L 535.075605 -36.729688 
L 533.082377 -36.729688 
L 531.08915 -36.729688 
L 529.095922 -36.729688 
L 527.102695 -36.729688 
L 525.109467 -36.729688 
L 523.11624 -36.729688 
L 521.123012 -36.729688 
L 519.129785 -36.729688 
L 517.136557 -36.729688 
L 515.14333 -36.729688 
L 513.150102 -36.729688 
L 511.156875 -36.729688 
L 509.163647 -36.729688 
L 507.17042 -36.729688 
L 505.177192 -36.729688 
L 503.183965 -36.729688 
L 501.190737 -36.729688 
L 499.19751 -36.729688 
L 497.204282 -36.729688 
L 495.211055 -36.729688 
L 493.217827 -36.729688 
L 491.2246 -36.729688 
L 489.231372 -36.729688 
L 487.238145 -36.729688 
L 485.244917 -36.729688 
L 483.25169 -36.729688 
L 481.258462 -36.729688 
L 479.265234 -36.729688 
L 477.272007 -36.729688 
L 475.278779 -36.729688 
L 473.285552 -36.729688 
L 471.292324 -36.729688 
L 469.299097 -36.729688 
L 467.305869 -36.729688 
L 465.312642 -36.729688 
L 463.319414 -36.729688 
L 461.326187 -36.729688 
L 459.332959 -36.729688 
L 457.339732 -36.729688 
L 455.346504 -36.729688 
L 453.353277 -36.729688 
L 451.360049 -36.729688 
L 449.366822 -36.729688 
L 447.373594 -36.729688 
L 445.380367 -36.729688 
L 443.387139 -36.729688 
L 441.393912 -36.729688 
L 439.400684 -36.729688 
L 437.407457 -36.729688 
L 435.414229 -36.729688 
L 433.421002 -36.729688 
L 431.427774 -36.729688 
L 429.434547 -36.729688 
L 427.441319 -36.729688 
L 425.448092 -36.729688 
L 423.454864 -36.729688 
L 421.461637 -36.729688 
L 419.468409 -36.729688 
L 417.475182 -36.729688 
L 415.481954 -36.729688 
L 413.488727 -36.729688 
L 411.495499 -36.729688 
L 409.502272 -36.729688 
z
" style="stroke: #4c72b0; stroke-opacity: 0.2"/>
    </defs>
    <g>
     <use xlink:href="#ma79d050f9f" x="0" y="282.943437" style="fill: #4c72b0; fill-opacity: 0.2; stroke: #4c72b0; stroke-opacity: 0.2"/>
    </g>
   </g>
   <g id="FillBetweenPolyCollection_3">
    <defs>
     <path id="m7a3ee298c1" d="M 45.245455 -36.812009 
L 45.245455 -36.729688 
L 47.34424 -36.729688 
L 49.443026 -36.729688 
L 51.541812 -36.729688 
L 53.640598 -36.729688 
L 55.739384 -36.729688 
L 57.83817 -36.729688 
L 59.936955 -36.729688 
L 62.035741 -36.729688 
L 64.134527 -36.729688 
L 66.233313 -36.729688 
L 68.332099 -36.729688 
L 70.430885 -36.729688 
L 72.529671 -36.729688 
L 74.628456 -36.729688 
L 76.727242 -36.729688 
L 78.826028 -36.729688 
L 80.924814 -36.729688 
L 83.0236 -36.729688 
L 85.122386 -36.729688 
L 87.221172 -36.729688 
L 89.319957 -36.729688 
L 91.418743 -36.729688 
L 93.517529 -36.729688 
L 95.616315 -36.729688 
L 97.715101 -36.729688 
L 99.813887 -36.729688 
L 101.912672 -36.729688 
L 104.011458 -36.729688 
L 106.110244 -36.729688 
L 108.20903 -36.729688 
L 110.307816 -36.729688 
L 112.406602 -36.729688 
L 114.505388 -36.729688 
L 116.604173 -36.729688 
L 118.702959 -36.729688 
L 120.801745 -36.729688 
L 122.900531 -36.729688 
L 124.999317 -36.729688 
L 127.098103 -36.729688 
L 129.196888 -36.729688 
L 131.295674 -36.729688 
L 133.39446 -36.729688 
L 135.493246 -36.729688 
L 137.592032 -36.729688 
L 139.690818 -36.729688 
L 141.789604 -36.729688 
L 143.888389 -36.729688 
L 145.987175 -36.729688 
L 148.085961 -36.729688 
L 150.184747 -36.729688 
L 152.283533 -36.729688 
L 154.382319 -36.729688 
L 156.481105 -36.729688 
L 158.57989 -36.729688 
L 160.678676 -36.729688 
L 162.777462 -36.729688 
L 164.876248 -36.729688 
L 166.975034 -36.729688 
L 169.07382 -36.729688 
L 171.172605 -36.729688 
L 173.271391 -36.729688 
L 175.370177 -36.729688 
L 177.468963 -36.729688 
L 179.567749 -36.729688 
L 181.666535 -36.729688 
L 183.765321 -36.729688 
L 185.864106 -36.729688 
L 187.962892 -36.729688 
L 190.061678 -36.729688 
L 192.160464 -36.729688 
L 194.25925 -36.729688 
L 196.358036 -36.729688 
L 198.456821 -36.729688 
L 200.555607 -36.729688 
L 202.654393 -36.729688 
L 204.753179 -36.729688 
L 206.851965 -36.729688 
L 208.950751 -36.729688 
L 211.049537 -36.729688 
L 213.148322 -36.729688 
L 215.247108 -36.729688 
L 217.345894 -36.729688 
L 219.44468 -36.729688 
L 221.543466 -36.729688 
L 223.642252 -36.729688 
L 225.741038 -36.729688 
L 227.839823 -36.729688 
L 229.938609 -36.729688 
L 232.037395 -36.729688 
L 234.136181 -36.729688 
L 236.234967 -36.729688 
L 238.333753 -36.729688 
L 240.432538 -36.729688 
L 242.531324 -36.729688 
L 243.879504 -36.729688 
L 243.879504 -211.776328 
L 243.879504 -211.776328 
L 242.531324 -213.343824 
L 240.432538 -215.59359 
L 238.333753 -217.634146 
L 236.234967 -219.455897 
L 234.136181 -221.051076 
L 232.037395 -222.413751 
L 229.938609 -223.539771 
L 227.839823 -224.426674 
L 225.741038 -225.073546 
L 223.642252 -225.480859 
L 221.543466 -225.650277 
L 219.44468 -225.584453 
L 217.345894 -225.286832 
L 215.247108 -224.761458 
L 213.148322 -224.012796 
L 211.049537 -223.045586 
L 208.950751 -221.864725 
L 206.851965 -220.475179 
L 204.753179 -218.881936 
L 202.654393 -217.089982 
L 200.555607 -215.104321 
L 198.456821 -212.930003 
L 196.358036 -210.572189 
L 194.25925 -208.036214 
L 192.160464 -205.32767 
L 190.061678 -202.452476 
L 187.962892 -199.416956 
L 185.864106 -196.227897 
L 183.765321 -192.892596 
L 181.666535 -189.418893 
L 179.567749 -185.815177 
L 177.468963 -182.090389 
L 175.370177 -178.253986 
L 173.271391 -174.31591 
L 171.172605 -170.286529 
L 169.07382 -166.176572 
L 166.975034 -161.997058 
L 164.876248 -157.759214 
L 162.777462 -153.4744 
L 160.678676 -149.154029 
L 158.57989 -144.809491 
L 156.481105 -140.452084 
L 154.382319 -136.09295 
L 152.283533 -131.743021 
L 150.184747 -127.412967 
L 148.085961 -123.11316 
L 145.987175 -118.853635 
L 143.888389 -114.64407 
L 141.789604 -110.49376 
L 139.690818 -106.411601 
L 137.592032 -102.406082 
L 135.493246 -98.485271 
L 133.39446 -94.656809 
L 131.295674 -90.927901 
L 129.196888 -87.305306 
L 127.098103 -83.795326 
L 124.999317 -80.403793 
L 122.900531 -77.136045 
L 120.801745 -73.996909 
L 118.702959 -70.990665 
L 116.604173 -68.121021 
L 114.505388 -65.391068 
L 112.406602 -62.80325 
L 110.307816 -60.359317 
L 108.20903 -58.060291 
L 106.110244 -55.90643 
L 104.011458 -53.897205 
L 101.912672 -52.031279 
L 99.813887 -50.306503 
L 97.715101 -48.719926 
L 95.616315 -47.267817 
L 93.517529 -45.945707 
L 91.418743 -44.748443 
L 89.319957 -43.670264 
L 87.221172 -42.704881 
L 85.122386 -41.845574 
L 83.0236 -41.085298 
L 80.924814 -40.416789 
L 78.826028 -39.832673 
L 76.727242 -39.325576 
L 74.628456 -38.888221 
L 72.529671 -38.513525 
L 70.430885 -38.194679 
L 68.332099 -37.925214 
L 66.233313 -37.699061 
L 64.134527 -37.510589 
L 62.035741 -37.354632 
L 59.936955 -37.226505 
L 57.83817 -37.122 
L 55.739384 -37.037383 
L 53.640598 -36.969371 
L 51.541812 -36.915108 
L 49.443026 -36.872136 
L 47.34424 -36.838359 
L 45.245455 -36.812009 
z
"/>
    </defs>
    <g>
     <use xlink:href="#m7a3ee298c1" x="0" y="282.943437" style="fill: #dd8452; fill-opacity: 0.3"/>
    </g>
   </g>
   <g id="line2d_28">
    <path d="M 45.245455 246.131429 
L 55.739384 245.906054 
L 62.035741 245.588805 
L 68.332099 245.018224 
L 72.529671 244.429912 
L 76.727242 243.617862 
L 80.924814 242.526648 
L 85.122386 241.097863 
L 89.319957 239.273173 
L 93.517529 236.997731 
L 97.715101 234.223511 
L 101.912672 230.912158 
L 106.110244 227.037008 
L 110.307816 222.584121 
L 114.505388 217.552369 
L 118.702959 211.952772 
L 122.900531 205.807392 
L 127.098103 199.148111 
L 131.295674 192.015537 
L 135.493246 184.458166 
L 139.690818 176.531837 
L 145.987175 164.089802 
L 154.382319 146.850487 
L 166.975034 120.94638 
L 173.271391 108.627527 
L 177.468963 100.853049 
L 181.666535 93.524545 
L 185.864106 86.715541 
L 190.061678 80.490962 
L 194.25925 74.907223 
L 196.358036 72.371249 
L 198.456821 70.013434 
L 200.555607 67.839117 
L 202.654393 65.853455 
L 204.753179 64.061502 
L 206.851965 62.468258 
L 208.950751 61.078713 
L 211.049537 59.897851 
L 213.148322 58.930642 
L 215.247108 58.18198 
L 217.345894 57.656605 
L 219.44468 57.358985 
L 221.543466 57.293161 
L 223.642252 57.462578 
L 225.741038 57.869891 
L 227.839823 58.516764 
L 229.938609 59.403666 
L 232.037395 60.529686 
L 234.136181 61.892361 
L 236.234967 63.487541 
L 238.333753 65.309291 
L 240.432538 67.349847 
L 242.531324 69.599614 
L 244.63011 72.047225 
L 248.827682 77.482378 
L 253.025254 83.534416 
L 257.222825 90.066024 
L 263.519183 100.446456 
L 278.210684 125.108467 
L 284.507041 135.103177 
L 290.803399 144.525591 
L 295.000971 150.475213 
L 301.297328 158.920673 
L 307.593686 166.830345 
L 313.890043 174.2391 
L 320.186401 181.158389 
L 324.383972 185.495276 
L 328.581544 189.605983 
L 332.779116 193.487318 
L 336.976687 197.139862 
L 341.174259 200.569468 
L 345.371831 203.787813 
L 351.668188 208.257923 
L 357.964546 212.366811 
L 364.260904 216.198427 
L 372.656047 221.010658 
L 383.149976 226.719566 
L 391.54512 231.057549 
L 397.841477 234.107739 
L 404.137835 236.896241 
L 408.335406 238.568208 
L 412.532978 240.06606 
L 416.73055 241.376022 
L 420.928121 242.492565 
L 425.125693 243.418826 
L 429.323265 244.165904 
L 435.619622 244.989894 
L 441.91598 245.524932 
L 448.212337 245.849357 
L 456.607481 246.072553 
L 462.903838 246.149475 
L 462.903838 246.149475 
" style="fill: none; stroke: #dd8452; stroke-width: 1.5; stroke-linecap: round"/>
   </g>
   <g id="line2d_29">
    <path d="M 409.502272 246.149226 
L 419.468409 245.973413 
L 427.441319 245.623129 
L 433.421002 245.150663 
L 439.400684 244.432011 
L 445.380367 243.422691 
L 451.360049 242.106051 
L 457.339732 240.494714 
L 463.319414 238.61617 
L 469.299097 236.487917 
L 475.278779 234.096785 
L 481.258462 231.397071 
L 485.244917 229.396517 
L 489.231372 227.217644 
L 493.217827 224.851154 
L 497.204282 222.293157 
L 501.190737 219.542299 
L 505.177192 216.594627 
L 509.163647 213.437475 
L 513.150102 210.043935 
L 517.136557 206.369333 
L 521.123012 202.350628 
L 525.109467 197.90899 
L 529.095922 192.955263 
L 533.082377 187.397619 
L 537.068832 181.150633 
L 541.055287 174.144996 
L 545.041742 166.337173 
L 549.028197 157.718371 
L 553.014652 148.3221 
L 557.001107 138.229556 
L 560.987562 127.571972 
L 568.960472 105.32325 
L 574.940155 88.770054 
L 578.92661 78.301255 
L 582.913065 68.594145 
L 584.906292 64.100846 
L 586.89952 59.882365 
L 588.892747 55.960688 
L 590.885975 52.354203 
L 592.879202 49.077493 
L 594.87243 46.141243 
L 596.865657 43.552254 
L 598.858885 41.313582 
L 600.852112 39.424772 
L 602.84534 37.882187 
L 604.838567 36.679412 
L 606.831795 35.807701 
L 608.825022 35.256464 
L 610.81825 35.01375 
L 612.811477 35.066717 
L 614.804705 35.402058 
L 616.797932 36.006368 
L 618.79116 36.866447 
L 620.784387 37.969519 
L 622.777615 39.303362 
L 624.770842 40.856375 
L 626.76407 42.617557 
L 628.757297 44.576433 
L 630.750525 46.72294 
L 634.73698 51.539739 
L 638.723435 56.989958 
L 642.70989 62.993229 
L 646.696345 69.46475 
L 650.6828 76.316081 
L 656.662483 87.112609 
L 664.635393 102.066355 
L 692.540578 154.915231 
L 700.513488 169.519564 
L 706.49317 180.030791 
L 710.479625 186.727054 
L 714.46608 193.112423 
L 718.452535 199.141885 
L 722.43899 204.781933 
L 726.425445 210.012504 
L 730.4119 214.826745 
L 734.398355 219.228805 
L 738.38481 223.230312 
L 742.371265 226.846445 
L 746.35772 230.092579 
L 750.344175 232.98226 
L 754.33063 235.526853 
L 758.317085 237.736715 
L 762.30354 239.623327 
L 766.289995 241.201587 
L 770.27645 242.491508 
L 774.262905 243.518817 
L 778.24936 244.314296 
L 782.235815 244.91209 
L 788.215498 245.514909 
L 794.19518 245.86349 
L 802.16809 246.088965 
L 806.154545 246.142819 
L 806.154545 246.142819 
" style="fill: none; stroke: #4c72b0; stroke-width: 1.5; stroke-linecap: round"/>
   </g>
   <g id="line2d_30">
    <path d="M 243.879504 246.21375 
L 243.879504 24.45375 
" style="fill: none; stroke-dasharray: 0.8,1.32; stroke-dashoffset: 0; stroke: #d3d3d3; stroke-width: 0.8"/>
   </g>
   <g id="line2d_31">
    <path d="M 7.2 246.21375 
L 844.2 246.21375 
" style="fill: none; stroke: #808080; stroke-width: 0.5; stroke-linecap: round"/>
   </g>
   <g id="AnnotationBbox_1">
    <g id="text_11">
     <text style="font-weight: 700; font-size: 8px; font-family: 'Arial', 'DejaVu Sans', 'Liberation Sans', 'Bitstream Vera Sans', sans-serif; text-anchor: end; fill: #808080" x="243.879504" y="12.92625" transform="rotate(-0 243.879504 12.92625)">International Poverty Line</text>
    </g>
    <g id="text_12">
     <text style="font-size: 8px; font-family: 'Arial', 'DejaVu Sans', 'Liberation Sans', 'Bitstream Vera Sans', sans-serif; text-anchor: end; fill: #808080" x="243.879504" y="22.86375" transform="rotate(-0 243.879504 22.86375)">$90 per month</text>
    </g>
   </g>
   <g id="text_13">
    <text style="font-size: 10px; font-family: 'Arial', 'DejaVu Sans', 'Liberation Sans', 'Bitstream Vera Sans', sans-serif; text-anchor: middle" x="616.861373" y="244.109062" transform="rotate(-0 616.861373 244.109062)">Denmark (2023)</text>
   </g>
   <g id="text_14">
    <text style="font-size: 10px; font-family: 'Arial', 'DejaVu Sans', 'Liberation Sans', 'Bitstream Vera Sans', sans-serif; text-anchor: middle" x="228.145924" y="244.109062" transform="rotate(-0 228.145924 244.109062)">Niger (2021)</text>
   </g>
  </g>
 </g>
</svg>
