<?xml version="1.0" encoding="utf-8" standalone="no"?>
<!DOCTYPE svg PUBLIC "-//W3C//DTD SVG 1.1//EN"
  "http://www.w3.org/Graphics/SVG/1.1/DTD/svg11.dtd">
<svg xmlns:xlink="http://www.w3.org/1999/xlink" width="865.302344pt" height="265.689687pt" viewBox="0 0 865.302344 265.689687" xmlns="http://www.w3.org/2000/svg" version="1.1">
 <metadata>
  <rdf:RDF xmlns:dc="http://purl.org/dc/elements/1.1/" xmlns:cc="http://creativecommons.org/ns#" xmlns:rdf="http://www.w3.org/1999/02/22-rdf-syntax-ns#">
   <cc:Work>
    <dc:type rdf:resource="http://purl.org/dc/dcmitype/StillImage"/>
    <dc:date>2026-05-21T14:04:38.628785</dc:date>
    <dc:format>image/svg+xml</dc:format>
    <dc:creator>
     <cc:Agent>
      <dc:title>Matplotlib v3.10.1, https://matplotlib.org/</dc:title>
     </cc:Agent>
    </dc:creator>
   </cc:Work>
  </rdf:RDF>
 </metadata>
 <defs>
  <style type="text/css">*{stroke-linejoin: round; stroke-linecap: butt}</style>
 </defs>
 <g id="figure_1">
  <g id="patch_1">
   <path d="M 0 265.689687 
L 865.302344 265.689687 
L 865.302344 0 
L 0 0 
z
" style="fill: #ffffff"/>
  </g>
  <g id="axes_1">
   <g id="patch_2">
    <path d="M 7.2 228.96 
L 844.2 228.96 
L 844.2 7.2 
L 7.2 7.2 
z
" style="fill: #ffffff"/>
   </g>
   <g id="matplotlib.axis_1">
    <g id="xtick_1">
     <g id="line2d_1">
      <defs>
       <path id="mb9413c2e80" d="M 0 0 
L 0 3.5 
" style="stroke: #262626; stroke-width: 0.8"/>
      </defs>
      <g>
       <use xlink:href="#mb9413c2e80" x="198.641429" y="228.96" style="fill: #262626; stroke: #262626; stroke-width: 0.8"/>
      </g>
     </g>
     <g id="text_1">
      <text style="font-size: 10px; font-family: 'Arial', 'DejaVu Sans', 'Liberation Sans', 'Bitstream Vera Sans', sans-serif; text-anchor: middle; fill: #262626" x="198.641429" y="243.117812" transform="rotate(-0 198.641429 243.117812)">$1</text>
     </g>
    </g>
    <g id="xtick_2">
     <g id="line2d_2">
      <g>
       <use xlink:href="#mb9413c2e80" x="263.418927" y="228.96" style="fill: #262626; stroke: #262626; stroke-width: 0.8"/>
      </g>
     </g>
     <g id="text_2">
      <text style="font-size: 10px; font-family: 'Arial', 'DejaVu Sans', 'Liberation Sans', 'Bitstream Vera Sans', sans-serif; text-anchor: middle; fill: #262626" x="263.418927" y="243.117812" transform="rotate(-0 263.418927 243.117812)">$2</text>
     </g>
    </g>
    <g id="xtick_3">
     <g id="line2d_3">
      <g>
       <use xlink:href="#mb9413c2e80" x="349.050121" y="228.96" style="fill: #262626; stroke: #262626; stroke-width: 0.8"/>
      </g>
     </g>
     <g id="text_3">
      <text style="font-size: 10px; font-family: 'Arial', 'DejaVu Sans', 'Liberation Sans', 'Bitstream Vera Sans', sans-serif; text-anchor: middle; fill: #262626" x="349.050121" y="243.117812" transform="rotate(-0 349.050121 243.117812)">$5</text>
     </g>
    </g>
    <g id="xtick_4">
     <g id="line2d_4">
      <g>
       <use xlink:href="#mb9413c2e80" x="413.827619" y="228.96" style="fill: #262626; stroke: #262626; stroke-width: 0.8"/>
      </g>
     </g>
     <g id="text_4">
      <text style="font-size: 10px; font-family: 'Arial', 'DejaVu Sans', 'Liberation Sans', 'Bitstream Vera Sans', sans-serif; text-anchor: middle; fill: #262626" x="413.827619" y="243.117812" transform="rotate(-0 413.827619 243.117812)">$10</text>
     </g>
    </g>
    <g id="xtick_5">
     <g id="line2d_5">
      <g>
       <use xlink:href="#mb9413c2e80" x="478.605117" y="228.96" style="fill: #262626; stroke: #262626; stroke-width: 0.8"/>
      </g>
     </g>
     <g id="text_5">
      <text style="font-size: 10px; font-family: 'Arial', 'DejaVu Sans', 'Liberation Sans', 'Bitstream Vera Sans', sans-serif; text-anchor: middle; fill: #262626" x="478.605117" y="243.117812" transform="rotate(-0 478.605117 243.117812)">$20</text>
     </g>
    </g>
    <g id="xtick_6">
     <g id="line2d_6">
      <g>
       <use xlink:href="#mb9413c2e80" x="564.236312" y="228.96" style="fill: #262626; stroke: #262626; stroke-width: 0.8"/>
      </g>
     </g>
     <g id="text_6">
      <text style="font-size: 10px; font-family: 'Arial', 'DejaVu Sans', 'Liberation Sans', 'Bitstream Vera Sans', sans-serif; text-anchor: middle; fill: #262626" x="564.236312" y="243.117812" transform="rotate(-0 564.236312 243.117812)">$50</text>
     </g>
    </g>
    <g id="xtick_7">
     <g id="line2d_7">
      <g>
       <use xlink:href="#mb9413c2e80" x="629.01381" y="228.96" style="fill: #262626; stroke: #262626; stroke-width: 0.8"/>
      </g>
     </g>
     <g id="text_7">
      <text style="font-size: 10px; font-family: 'Arial', 'DejaVu Sans', 'Liberation Sans', 'Bitstream Vera Sans', sans-serif; text-anchor: middle; fill: #262626" x="629.01381" y="243.117812" transform="rotate(-0 629.01381 243.117812)">$100</text>
     </g>
    </g>
    <g id="xtick_8">
     <g id="line2d_8">
      <g>
       <use xlink:href="#mb9413c2e80" x="693.791308" y="228.96" style="fill: #262626; stroke: #262626; stroke-width: 0.8"/>
      </g>
     </g>
     <g id="text_8">
      <text style="font-size: 10px; font-family: 'Arial', 'DejaVu Sans', 'Liberation Sans', 'Bitstream Vera Sans', sans-serif; text-anchor: middle; fill: #262626" x="693.791308" y="243.117812" transform="rotate(-0 693.791308 243.117812)">$200</text>
     </g>
    </g>
    <g id="xtick_9">
     <g id="line2d_9">
      <g>
       <use xlink:href="#mb9413c2e80" x="779.422502" y="228.96" style="fill: #262626; stroke: #262626; stroke-width: 0.8"/>
      </g>
     </g>
     <g id="text_9">
      <text style="font-size: 10px; font-family: 'Arial', 'DejaVu Sans', 'Liberation Sans', 'Bitstream Vera Sans', sans-serif; text-anchor: middle; fill: #262626" x="779.422502" y="243.117812" transform="rotate(-0 779.422502 243.117812)">$500</text>
     </g>
    </g>
    <g id="xtick_10">
     <g id="line2d_10">
      <g>
       <use xlink:href="#mb9413c2e80" x="844.2" y="228.96" style="fill: #262626; stroke: #262626; stroke-width: 0.8"/>
      </g>
     </g>
     <g id="text_10">
      <text style="font-size: 10px; font-family: 'Arial', 'DejaVu Sans', 'Liberation Sans', 'Bitstream Vera Sans', sans-serif; text-anchor: middle; fill: #262626" x="844.2" y="243.117812" transform="rotate(-0 844.2 243.117812)">$1000</text>
     </g>
    </g>
    <g id="xtick_11">
     <g id="line2d_11">
      <defs>
       <path id="m48daddd212" d="M 0 0 
L 0 2 
" style="stroke: #262626; stroke-width: 0.6"/>
      </defs>
      <g>
       <use xlink:href="#m48daddd212" x="48.232736" y="228.96" style="fill: #262626; stroke: #262626; stroke-width: 0.6"/>
      </g>
     </g>
    </g>
    <g id="xtick_12">
     <g id="line2d_12">
      <g>
       <use xlink:href="#m48daddd212" x="86.125143" y="228.96" style="fill: #262626; stroke: #262626; stroke-width: 0.6"/>
      </g>
     </g>
    </g>
    <g id="xtick_13">
     <g id="line2d_13">
      <g>
       <use xlink:href="#m48daddd212" x="113.010234" y="228.96" style="fill: #262626; stroke: #262626; stroke-width: 0.6"/>
      </g>
     </g>
    </g>
    <g id="xtick_14">
     <g id="line2d_14">
      <g>
       <use xlink:href="#m48daddd212" x="133.863931" y="228.96" style="fill: #262626; stroke: #262626; stroke-width: 0.6"/>
      </g>
     </g>
    </g>
    <g id="xtick_15">
     <g id="line2d_15">
      <g>
       <use xlink:href="#m48daddd212" x="150.902641" y="228.96" style="fill: #262626; stroke: #262626; stroke-width: 0.6"/>
      </g>
     </g>
    </g>
    <g id="xtick_16">
     <g id="line2d_16">
      <g>
       <use xlink:href="#m48daddd212" x="165.308666" y="228.96" style="fill: #262626; stroke: #262626; stroke-width: 0.6"/>
      </g>
     </g>
    </g>
    <g id="xtick_17">
     <g id="line2d_17">
      <g>
       <use xlink:href="#m48daddd212" x="177.787732" y="228.96" style="fill: #262626; stroke: #262626; stroke-width: 0.6"/>
      </g>
     </g>
    </g>
    <g id="xtick_18">
     <g id="line2d_18">
      <g>
       <use xlink:href="#m48daddd212" x="188.795049" y="228.96" style="fill: #262626; stroke: #262626; stroke-width: 0.6"/>
      </g>
     </g>
    </g>
    <g id="xtick_19">
     <g id="line2d_19">
      <g>
       <use xlink:href="#m48daddd212" x="301.311334" y="228.96" style="fill: #262626; stroke: #262626; stroke-width: 0.6"/>
      </g>
     </g>
    </g>
    <g id="xtick_20">
     <g id="line2d_20">
      <g>
       <use xlink:href="#m48daddd212" x="328.196425" y="228.96" style="fill: #262626; stroke: #262626; stroke-width: 0.6"/>
      </g>
     </g>
    </g>
    <g id="xtick_21">
     <g id="line2d_21">
      <g>
       <use xlink:href="#m48daddd212" x="366.088832" y="228.96" style="fill: #262626; stroke: #262626; stroke-width: 0.6"/>
      </g>
     </g>
    </g>
    <g id="xtick_22">
     <g id="line2d_22">
      <g>
       <use xlink:href="#m48daddd212" x="380.494856" y="228.96" style="fill: #262626; stroke: #262626; stroke-width: 0.6"/>
      </g>
     </g>
    </g>
    <g id="xtick_23">
     <g id="line2d_23">
      <g>
       <use xlink:href="#m48daddd212" x="392.973923" y="228.96" style="fill: #262626; stroke: #262626; stroke-width: 0.6"/>
      </g>
     </g>
    </g>
    <g id="xtick_24">
     <g id="line2d_24">
      <g>
       <use xlink:href="#m48daddd212" x="403.981239" y="228.96" style="fill: #262626; stroke: #262626; stroke-width: 0.6"/>
      </g>
     </g>
    </g>
    <g id="xtick_25">
     <g id="line2d_25">
      <g>
       <use xlink:href="#m48daddd212" x="516.497524" y="228.96" style="fill: #262626; stroke: #262626; stroke-width: 0.6"/>
      </g>
     </g>
    </g>
    <g id="xtick_26">
     <g id="line2d_26">
      <g>
       <use xlink:href="#m48daddd212" x="543.382615" y="228.96" style="fill: #262626; stroke: #262626; stroke-width: 0.6"/>
      </g>
     </g>
    </g>
    <g id="xtick_27">
     <g id="line2d_27">
      <g>
       <use xlink:href="#m48daddd212" x="581.275022" y="228.96" style="fill: #262626; stroke: #262626; stroke-width: 0.6"/>
      </g>
     </g>
    </g>
    <g id="xtick_28">
     <g id="line2d_28">
      <g>
       <use xlink:href="#m48daddd212" x="595.681047" y="228.96" style="fill: #262626; stroke: #262626; stroke-width: 0.6"/>
      </g>
     </g>
    </g>
    <g id="xtick_29">
     <g id="line2d_29">
      <g>
       <use xlink:href="#m48daddd212" x="608.160113" y="228.96" style="fill: #262626; stroke: #262626; stroke-width: 0.6"/>
      </g>
     </g>
    </g>
    <g id="xtick_30">
     <g id="line2d_30">
      <g>
       <use xlink:href="#m48daddd212" x="619.167429" y="228.96" style="fill: #262626; stroke: #262626; stroke-width: 0.6"/>
      </g>
     </g>
    </g>
    <g id="xtick_31">
     <g id="line2d_31">
      <g>
       <use xlink:href="#m48daddd212" x="731.683715" y="228.96" style="fill: #262626; stroke: #262626; stroke-width: 0.6"/>
      </g>
     </g>
    </g>
    <g id="xtick_32">
     <g id="line2d_32">
      <g>
       <use xlink:href="#m48daddd212" x="758.568806" y="228.96" style="fill: #262626; stroke: #262626; stroke-width: 0.6"/>
      </g>
     </g>
    </g>
    <g id="xtick_33">
     <g id="line2d_33">
      <g>
       <use xlink:href="#m48daddd212" x="796.461213" y="228.96" style="fill: #262626; stroke: #262626; stroke-width: 0.6"/>
      </g>
     </g>
    </g>
    <g id="xtick_34">
     <g id="line2d_34">
      <g>
       <use xlink:href="#m48daddd212" x="810.867237" y="228.96" style="fill: #262626; stroke: #262626; stroke-width: 0.6"/>
      </g>
     </g>
    </g>
    <g id="xtick_35">
     <g id="line2d_35">
      <g>
       <use xlink:href="#m48daddd212" x="823.346303" y="228.96" style="fill: #262626; stroke: #262626; stroke-width: 0.6"/>
      </g>
     </g>
    </g>
    <g id="xtick_36">
     <g id="line2d_36">
      <g>
       <use xlink:href="#m48daddd212" x="834.35362" y="228.96" style="fill: #262626; stroke: #262626; stroke-width: 0.6"/>
      </g>
     </g>
    </g>
    <g id="text_11">
     <text style="font-size: 10px; font-family: 'Arial', 'DejaVu Sans', 'Liberation Sans', 'Bitstream Vera Sans', sans-serif; text-anchor: middle; fill: #262626" x="425.7" y="256.385" transform="rotate(-0 425.7 256.385)">Income or consumption (day)</text>
    </g>
   </g>
   <g id="matplotlib.axis_2"/>
   <g id="FillBetweenPolyCollection_1">
    <defs>
     <path id="m33c8ec3e7c" d="M 42.178626 -36.775902 
L 42.178626 -36.729688 
L 44.39204 -36.729688 
L 46.605454 -36.729688 
L 48.818868 -36.729688 
L 51.032282 -36.729688 
L 53.245695 -36.729688 
L 55.459109 -36.729688 
L 57.672523 -36.729688 
L 59.885937 -36.729688 
L 62.099351 -36.729688 
L 64.312765 -36.729688 
L 66.526179 -36.729688 
L 68.739593 -36.729688 
L 70.953007 -36.729688 
L 73.166421 -36.729688 
L 75.379835 -36.729688 
L 77.593249 -36.729688 
L 79.806663 -36.729688 
L 82.020077 -36.729688 
L 84.233491 -36.729688 
L 86.446905 -36.729688 
L 88.660319 -36.729688 
L 90.873733 -36.729688 
L 93.087147 -36.729688 
L 95.300561 -36.729688 
L 97.513975 -36.729688 
L 99.727389 -36.729688 
L 101.940803 -36.729688 
L 104.154217 -36.729688 
L 106.367631 -36.729688 
L 108.581045 -36.729688 
L 110.794459 -36.729688 
L 113.007873 -36.729688 
L 115.221287 -36.729688 
L 117.434701 -36.729688 
L 119.648115 -36.729688 
L 121.861529 -36.729688 
L 124.074943 -36.729688 
L 126.288357 -36.729688 
L 128.501771 -36.729688 
L 130.715185 -36.729688 
L 132.928598 -36.729688 
L 135.142012 -36.729688 
L 137.355426 -36.729688 
L 139.56884 -36.729688 
L 141.782254 -36.729688 
L 143.995668 -36.729688 
L 146.209082 -36.729688 
L 148.422496 -36.729688 
L 150.63591 -36.729688 
L 152.849324 -36.729688 
L 155.062738 -36.729688 
L 157.276152 -36.729688 
L 159.489566 -36.729688 
L 161.70298 -36.729688 
L 163.916394 -36.729688 
L 166.129808 -36.729688 
L 168.343222 -36.729688 
L 170.556636 -36.729688 
L 172.77005 -36.729688 
L 174.983464 -36.729688 
L 177.196878 -36.729688 
L 179.410292 -36.729688 
L 181.623706 -36.729688 
L 183.83712 -36.729688 
L 186.050534 -36.729688 
L 188.263948 -36.729688 
L 190.477362 -36.729688 
L 192.690776 -36.729688 
L 194.90419 -36.729688 
L 197.117604 -36.729688 
L 199.331018 -36.729688 
L 201.544432 -36.729688 
L 203.757846 -36.729688 
L 205.97126 -36.729688 
L 208.184674 -36.729688 
L 210.398088 -36.729688 
L 212.611501 -36.729688 
L 214.824915 -36.729688 
L 217.038329 -36.729688 
L 219.251743 -36.729688 
L 221.465157 -36.729688 
L 223.678571 -36.729688 
L 225.891985 -36.729688 
L 228.105399 -36.729688 
L 230.318813 -36.729688 
L 232.532227 -36.729688 
L 234.745641 -36.729688 
L 236.959055 -36.729688 
L 239.172469 -36.729688 
L 241.385883 -36.729688 
L 243.599297 -36.729688 
L 245.812711 -36.729688 
L 248.026125 -36.729688 
L 250.239539 -36.729688 
L 252.452953 -36.729688 
L 254.666367 -36.729688 
L 256.879781 -36.729688 
L 259.093195 -36.729688 
L 261.306609 -36.729688 
L 263.520023 -36.729688 
L 265.733437 -36.729688 
L 267.946851 -36.729688 
L 270.160265 -36.729688 
L 272.373679 -36.729688 
L 274.587093 -36.729688 
L 276.800507 -36.729688 
L 279.013921 -36.729688 
L 281.227335 -36.729688 
L 283.440749 -36.729688 
L 285.654163 -36.729688 
L 287.867577 -36.729688 
L 290.080991 -36.729688 
L 292.294404 -36.729688 
L 294.507818 -36.729688 
L 296.721232 -36.729688 
L 298.934646 -36.729688 
L 301.14806 -36.729688 
L 303.361474 -36.729688 
L 305.574888 -36.729688 
L 307.788302 -36.729688 
L 310.001716 -36.729688 
L 312.21513 -36.729688 
L 314.428544 -36.729688 
L 316.641958 -36.729688 
L 318.855372 -36.729688 
L 321.068786 -36.729688 
L 323.2822 -36.729688 
L 325.495614 -36.729688 
L 327.709028 -36.729688 
L 329.922442 -36.729688 
L 332.135856 -36.729688 
L 334.34927 -36.729688 
L 336.562684 -36.729688 
L 338.776098 -36.729688 
L 340.989512 -36.729688 
L 343.202926 -36.729688 
L 345.41634 -36.729688 
L 347.629754 -36.729688 
L 349.843168 -36.729688 
L 352.056582 -36.729688 
L 354.269996 -36.729688 
L 356.48341 -36.729688 
L 358.696824 -36.729688 
L 360.910238 -36.729688 
L 363.123652 -36.729688 
L 365.337066 -36.729688 
L 367.55048 -36.729688 
L 369.763894 -36.729688 
L 371.977307 -36.729688 
L 374.190721 -36.729688 
L 376.404135 -36.729688 
L 378.617549 -36.729688 
L 380.830963 -36.729688 
L 383.044377 -36.729688 
L 385.257791 -36.729688 
L 387.471205 -36.729688 
L 389.684619 -36.729688 
L 391.898033 -36.729688 
L 394.111447 -36.729688 
L 396.324861 -36.729688 
L 398.538275 -36.729688 
L 400.751689 -36.729688 
L 402.965103 -36.729688 
L 405.178517 -36.729688 
L 407.391931 -36.729688 
L 409.605345 -36.729688 
L 411.818759 -36.729688 
L 414.032173 -36.729688 
L 416.245587 -36.729688 
L 418.459001 -36.729688 
L 420.672415 -36.729688 
L 422.885829 -36.729688 
L 425.099243 -36.729688 
L 427.312657 -36.729688 
L 429.526071 -36.729688 
L 431.739485 -36.729688 
L 433.952899 -36.729688 
L 436.166313 -36.729688 
L 438.379727 -36.729688 
L 440.593141 -36.729688 
L 442.806555 -36.729688 
L 445.019969 -36.729688 
L 447.233383 -36.729688 
L 449.446797 -36.729688 
L 451.66021 -36.729688 
L 453.873624 -36.729688 
L 456.087038 -36.729688 
L 458.300452 -36.729688 
L 460.513866 -36.729688 
L 462.72728 -36.729688 
L 464.940694 -36.729688 
L 467.154108 -36.729688 
L 469.367522 -36.729688 
L 471.580936 -36.729688 
L 473.79435 -36.729688 
L 476.007764 -36.729688 
L 478.221178 -36.729688 
L 480.434592 -36.729688 
L 482.648006 -36.729688 
L 482.648006 -36.741506 
L 482.648006 -36.741506 
L 480.434592 -36.74776 
L 478.221178 -36.756879 
L 476.007764 -36.769939 
L 473.79435 -36.788322 
L 471.580936 -36.813745 
L 469.367522 -36.848299 
L 467.154108 -36.894448 
L 464.940694 -36.955023 
L 462.72728 -37.033166 
L 460.513866 -37.132244 
L 458.300452 -37.255718 
L 456.087038 -37.406982 
L 453.873624 -37.589155 
L 451.66021 -37.804866 
L 449.446797 -38.056036 
L 447.233383 -38.34367 
L 445.019969 -38.667707 
L 442.806555 -39.026924 
L 440.593141 -39.418924 
L 438.379727 -39.840227 
L 436.166313 -40.286448 
L 433.952899 -40.752564 
L 431.739485 -41.233251 
L 429.526071 -41.723253 
L 427.312657 -42.217765 
L 425.099243 -42.712774 
L 422.885829 -43.205342 
L 420.672415 -43.693793 
L 418.459001 -44.177793 
L 416.245587 -44.658317 
L 414.032173 -45.137515 
L 411.818759 -45.618481 
L 409.605345 -46.104964 
L 407.391931 -46.601051 
L 405.178517 -47.110837 
L 402.965103 -47.638131 
L 400.751689 -48.186201 
L 398.538275 -48.757592 
L 396.324861 -49.354026 
L 394.111447 -49.976383 
L 391.898033 -50.62477 
L 389.684619 -51.298682 
L 387.471205 -51.997234 
L 385.257791 -52.71945 
L 383.044377 -53.464593 
L 380.830963 -54.232507 
L 378.617549 -55.023917 
L 376.404135 -55.840672 
L 374.190721 -56.685877 
L 371.977307 -57.563886 
L 369.763894 -58.480151 
L 367.55048 -59.440902 
L 365.337066 -60.452715 
L 363.123652 -61.521974 
L 360.910238 -62.654313 
L 358.696824 -63.854086 
L 356.48341 -65.123936 
L 354.269996 -66.464513 
L 352.056582 -67.874373 
L 349.843168 -69.350075 
L 347.629754 -70.886446 
L 345.41634 -72.476987 
L 343.202926 -74.114368 
L 340.989512 -75.790959 
L 338.776098 -77.499344 
L 336.562684 -79.232789 
L 334.34927 -80.985637 
L 332.135856 -82.753622 
L 329.922442 -84.534108 
L 327.709028 -86.326248 
L 325.495614 -88.131065 
L 323.2822 -89.95144 
L 321.068786 -91.791995 
L 318.855372 -93.658842 
L 316.641958 -95.559186 
L 314.428544 -97.500783 
L 312.21513 -99.491261 
L 310.001716 -101.53737 
L 307.788302 -103.644218 
L 305.574888 -105.814595 
L 303.361474 -108.048457 
L 301.14806 -110.342677 
L 298.934646 -112.691082 
L 296.721232 -115.084815 
L 294.507818 -117.512959 
L 292.294404 -119.963364 
L 290.080991 -122.42357 
L 287.867577 -124.881682 
L 285.654163 -127.327114 
L 283.440749 -129.751091 
L 281.227335 -132.14686 
L 279.013921 -134.509625 
L 276.800507 -136.836219 
L 274.587093 -139.124611 
L 272.373679 -141.37333 
L 270.160265 -143.580905 
L 267.946851 -145.745389 
L 265.733437 -147.864026 
L 263.520023 -149.933067 
L 261.306609 -151.947702 
L 259.093195 -153.902084 
L 256.879781 -155.789361 
L 254.666367 -157.601686 
L 252.452953 -159.330156 
L 250.239539 -160.96469 
L 248.026125 -162.493864 
L 245.812711 -163.904775 
L 243.599297 -165.182985 
L 241.385883 -166.312638 
L 239.172469 -167.276782 
L 236.959055 -168.057932 
L 234.745641 -168.638851 
L 232.532227 -169.003481 
L 230.318813 -169.137948 
L 228.105399 -169.031525 
L 225.891985 -168.677436 
L 223.678571 -168.073436 
L 221.465157 -167.222078 
L 219.251743 -166.130669 
L 217.038329 -164.810922 
L 214.824915 -163.278345 
L 212.611501 -161.551449 
L 210.398088 -159.650835 
L 208.184674 -157.598232 
L 205.97126 -155.415563 
L 203.757846 -153.124064 
L 201.544432 -150.743515 
L 199.331018 -148.291614 
L 197.117604 -145.78351 
L 194.90419 -143.231539 
L 192.690776 -140.645171 
L 190.477362 -138.031186 
L 188.263948 -135.394067 
L 186.050534 -132.736585 
L 183.83712 -130.060522 
L 181.623706 -127.36745 
L 179.410292 -124.659487 
L 177.196878 -121.939919 
L 174.983464 -119.213626 
L 172.77005 -116.487221 
L 170.556636 -113.768911 
L 168.343222 -111.068068 
L 166.129808 -108.394577 
L 163.916394 -105.758055 
L 161.70298 -103.167032 
L 159.489566 -100.628225 
L 157.276152 -98.145991 
L 155.062738 -95.722054 
L 152.849324 -93.355526 
L 150.63591 -91.043233 
L 148.422496 -88.780302 
L 146.209082 -86.560937 
L 143.995668 -84.379286 
L 141.782254 -82.230299 
L 139.56884 -80.110477 
L 137.355426 -78.018431 
L 135.142012 -75.955181 
L 132.928598 -73.924191 
L 130.715185 -71.931117 
L 128.501771 -69.983307 
L 126.288357 -68.089113 
L 124.074943 -66.257077 
L 121.861529 -64.495082 
L 119.648115 -62.80954 
L 117.434701 -61.204711 
L 115.221287 -59.682217 
L 113.007873 -58.240805 
L 110.794459 -56.876383 
L 108.581045 -55.582342 
L 106.367631 -54.350141 
L 104.154217 -53.170079 
L 101.940803 -52.032214 
L 99.727389 -50.927304 
L 97.513975 -49.847689 
L 95.300561 -48.788012 
L 93.087147 -47.745703 
L 90.873733 -46.721175 
L 88.660319 -45.717712 
L 86.446905 -44.741065 
L 84.233491 -43.798817 
L 82.020077 -42.899584 
L 79.806663 -42.05215 
L 77.593249 -41.264633 
L 75.379835 -40.543764 
L 73.166421 -39.894347 
L 70.953007 -39.318939 
L 68.739593 -38.817758 
L 66.526179 -38.388798 
L 64.312765 -38.028123 
L 62.099351 -37.730268 
L 59.885937 -37.488717 
L 57.672523 -37.296371 
L 55.459109 -37.145991 
L 53.245695 -37.030565 
L 51.032282 -36.943587 
L 48.818868 -36.879246 
L 46.605454 -36.832522 
L 44.39204 -36.799212 
L 42.178626 -36.775902 
z
" style="stroke: #dd8452"/>
    </defs>
    <g>
     <use xlink:href="#m33c8ec3e7c" x="0" y="265.689687" style="fill: #dd8452; fill-opacity: 0.25; stroke: #dd8452"/>
    </g>
   </g>
   <g id="FillBetweenPolyCollection_2">
    <defs>
     <path id="mea0081bf64" d="M 425.600669 -36.740956 
L 425.600669 -36.729688 
L 427.189365 -36.729688 
L 428.778061 -36.729688 
L 430.366757 -36.729688 
L 431.955453 -36.729688 
L 433.544148 -36.729688 
L 435.132844 -36.729688 
L 436.72154 -36.729688 
L 438.310236 -36.729688 
L 439.898932 -36.729688 
L 441.487627 -36.729688 
L 443.076323 -36.729688 
L 444.665019 -36.729688 
L 446.253715 -36.729688 
L 447.842411 -36.729688 
L 449.431107 -36.729688 
L 451.019802 -36.729688 
L 452.608498 -36.729688 
L 454.197194 -36.729688 
L 455.78589 -36.729688 
L 457.374586 -36.729688 
L 458.963282 -36.729688 
L 460.551977 -36.729688 
L 462.140673 -36.729688 
L 463.729369 -36.729688 
L 465.318065 -36.729688 
L 466.906761 -36.729688 
L 468.495456 -36.729688 
L 470.084152 -36.729688 
L 471.672848 -36.729688 
L 473.261544 -36.729688 
L 474.85024 -36.729688 
L 476.438936 -36.729688 
L 478.027631 -36.729688 
L 479.616327 -36.729688 
L 481.205023 -36.729688 
L 482.793719 -36.729688 
L 484.382415 -36.729688 
L 485.971111 -36.729688 
L 487.559806 -36.729688 
L 489.148502 -36.729688 
L 490.737198 -36.729688 
L 492.325894 -36.729688 
L 493.91459 -36.729688 
L 495.503285 -36.729688 
L 497.091981 -36.729688 
L 498.680677 -36.729688 
L 500.269373 -36.729688 
L 501.858069 -36.729688 
L 503.446765 -36.729688 
L 505.03546 -36.729688 
L 506.624156 -36.729688 
L 508.212852 -36.729688 
L 509.801548 -36.729688 
L 511.390244 -36.729688 
L 512.97894 -36.729688 
L 514.567635 -36.729688 
L 516.156331 -36.729688 
L 517.745027 -36.729688 
L 519.333723 -36.729688 
L 520.922419 -36.729688 
L 522.511114 -36.729688 
L 524.09981 -36.729688 
L 525.688506 -36.729688 
L 527.277202 -36.729688 
L 528.865898 -36.729688 
L 530.454594 -36.729688 
L 532.043289 -36.729688 
L 533.631985 -36.729688 
L 535.220681 -36.729688 
L 536.809377 -36.729688 
L 538.398073 -36.729688 
L 539.986769 -36.729688 
L 541.575464 -36.729688 
L 543.16416 -36.729688 
L 544.752856 -36.729688 
L 546.341552 -36.729688 
L 547.930248 -36.729688 
L 549.518943 -36.729688 
L 551.107639 -36.729688 
L 552.696335 -36.729688 
L 554.285031 -36.729688 
L 555.873727 -36.729688 
L 557.462423 -36.729688 
L 559.051118 -36.729688 
L 560.639814 -36.729688 
L 562.22851 -36.729688 
L 563.817206 -36.729688 
L 565.405902 -36.729688 
L 566.994598 -36.729688 
L 568.583293 -36.729688 
L 570.171989 -36.729688 
L 571.760685 -36.729688 
L 573.349381 -36.729688 
L 574.938077 -36.729688 
L 576.526772 -36.729688 
L 578.115468 -36.729688 
L 579.704164 -36.729688 
L 581.29286 -36.729688 
L 582.881556 -36.729688 
L 584.470252 -36.729688 
L 586.058947 -36.729688 
L 587.647643 -36.729688 
L 589.236339 -36.729688 
L 590.825035 -36.729688 
L 592.413731 -36.729688 
L 594.002427 -36.729688 
L 595.591122 -36.729688 
L 597.179818 -36.729688 
L 598.768514 -36.729688 
L 600.35721 -36.729688 
L 601.945906 -36.729688 
L 603.534601 -36.729688 
L 605.123297 -36.729688 
L 606.711993 -36.729688 
L 608.300689 -36.729688 
L 609.889385 -36.729688 
L 611.478081 -36.729688 
L 613.066776 -36.729688 
L 614.655472 -36.729688 
L 616.244168 -36.729688 
L 617.832864 -36.729688 
L 619.42156 -36.729688 
L 621.010256 -36.729688 
L 622.598951 -36.729688 
L 624.187647 -36.729688 
L 625.776343 -36.729688 
L 627.365039 -36.729688 
L 628.953735 -36.729688 
L 630.54243 -36.729688 
L 632.131126 -36.729688 
L 633.719822 -36.729688 
L 635.308518 -36.729688 
L 636.897214 -36.729688 
L 638.48591 -36.729688 
L 640.074605 -36.729688 
L 641.663301 -36.729688 
L 643.251997 -36.729688 
L 644.840693 -36.729688 
L 646.429389 -36.729688 
L 648.018085 -36.729688 
L 649.60678 -36.729688 
L 651.195476 -36.729688 
L 652.784172 -36.729688 
L 654.372868 -36.729688 
L 655.961564 -36.729688 
L 657.550259 -36.729688 
L 659.138955 -36.729688 
L 660.727651 -36.729688 
L 662.316347 -36.729688 
L 663.905043 -36.729688 
L 665.493739 -36.729688 
L 667.082434 -36.729688 
L 668.67113 -36.729688 
L 670.259826 -36.729688 
L 671.848522 -36.729688 
L 673.437218 -36.729688 
L 675.025914 -36.729688 
L 676.614609 -36.729688 
L 678.203305 -36.729688 
L 679.792001 -36.729688 
L 681.380697 -36.729688 
L 682.969393 -36.729688 
L 684.558088 -36.729688 
L 686.146784 -36.729688 
L 687.73548 -36.729688 
L 689.324176 -36.729688 
L 690.912872 -36.729688 
L 692.501568 -36.729688 
L 694.090263 -36.729688 
L 695.678959 -36.729688 
L 697.267655 -36.729688 
L 698.856351 -36.729688 
L 700.445047 -36.729688 
L 702.033743 -36.729688 
L 703.622438 -36.729688 
L 705.211134 -36.729688 
L 706.79983 -36.729688 
L 708.388526 -36.729688 
L 709.977222 -36.729688 
L 711.565917 -36.729688 
L 713.154613 -36.729688 
L 714.743309 -36.729688 
L 716.332005 -36.729688 
L 717.920701 -36.729688 
L 719.509397 -36.729688 
L 721.098092 -36.729688 
L 722.686788 -36.729688 
L 724.275484 -36.729688 
L 725.86418 -36.729688 
L 727.452876 -36.729688 
L 729.041572 -36.729688 
L 730.630267 -36.729688 
L 732.218963 -36.729688 
L 733.807659 -36.729688 
L 735.396355 -36.729688 
L 736.985051 -36.729688 
L 738.573746 -36.729688 
L 740.162442 -36.729688 
L 741.751138 -36.729688 
L 741.751138 -36.743376 
L 741.751138 -36.743376 
L 740.162442 -36.751673 
L 738.573746 -36.76423 
L 736.985051 -36.782784 
L 735.396355 -36.809557 
L 733.807659 -36.847287 
L 732.218963 -36.899224 
L 730.630267 -36.969073 
L 729.041572 -37.060873 
L 727.452876 -37.178815 
L 725.86418 -37.326998 
L 724.275484 -37.50916 
L 722.686788 -37.728393 
L 721.098092 -37.986896 
L 719.509397 -38.285796 
L 717.920701 -38.625062 
L 716.332005 -39.003547 
L 714.743309 -39.419129 
L 713.154613 -39.868952 
L 711.565917 -40.349714 
L 709.977222 -40.857962 
L 708.388526 -41.390353 
L 706.79983 -41.943843 
L 705.211134 -42.515806 
L 703.622438 -43.104082 
L 702.033743 -43.707003 
L 700.445047 -44.323409 
L 698.856351 -44.952715 
L 697.267655 -45.595042 
L 695.678959 -46.251397 
L 694.090263 -46.923911 
L 692.501568 -47.616069 
L 690.912872 -48.332909 
L 689.324176 -49.081145 
L 687.73548 -49.869199 
L 686.146784 -50.707123 
L 684.558088 -51.606441 
L 682.969393 -52.579921 
L 681.380697 -53.641301 
L 679.792001 -54.804973 
L 678.203305 -56.08564 
L 676.614609 -57.497924 
L 675.025914 -59.055906 
L 673.437218 -60.772624 
L 671.848522 -62.659501 
L 670.259826 -64.725785 
L 668.67113 -66.978019 
L 667.082434 -69.419629 
L 665.493739 -72.050682 
L 663.905043 -74.867849 
L 662.316347 -77.864578 
L 660.727651 -81.031432 
L 659.138955 -84.356531 
L 657.550259 -87.826014 
L 655.961564 -91.424424 
L 654.372868 -95.134987 
L 652.784172 -98.939771 
L 651.195476 -102.819778 
L 649.60678 -106.755069 
L 648.018085 -110.725049 
L 646.429389 -114.709019 
L 644.840693 -118.687042 
L 643.251997 -122.641125 
L 641.663301 -126.556562 
L 640.074605 -130.423258 
L 638.48591 -134.236755 
L 636.897214 -137.998716 
L 635.308518 -141.716702 
L 633.719822 -145.403202 
L 632.131126 -149.074038 
L 630.54243 -152.74642 
L 628.953735 -156.437001 
L 627.365039 -160.160305 
L 625.776343 -163.927744 
L 624.187647 -167.747334 
L 622.598951 -171.623946 
L 621.010256 -175.559788 
L 619.42156 -179.554748 
L 617.832864 -183.606238 
L 616.244168 -187.708384 
L 614.655472 -191.850647 
L 613.066776 -196.016221 
L 611.478081 -200.180722 
L 609.889385 -204.311757 
L 608.300689 -208.369813 
L 606.711993 -212.310633 
L 605.123297 -216.088914 
L 603.534601 -219.662804 
L 601.945906 -222.99843 
L 600.35721 -226.073616 
L 598.768514 -228.880075 
L 597.179818 -231.423612 
L 595.591122 -233.722267 
L 594.002427 -235.8027 
L 592.413731 -237.695414 
L 590.825035 -239.429593 
L 589.236339 -241.028292 
L 587.647643 -242.504619 
L 586.058947 -243.85925 
L 584.470252 -245.079392 
L 582.881556 -246.139058 
L 581.29286 -247.000377 
L 579.704164 -247.61562 
L 578.115468 -247.929688 
L 576.526772 -247.882888 
L 574.938077 -247.413952 
L 573.349381 -246.463286 
L 571.760685 -244.976456 
L 570.171989 -242.907813 
L 568.583293 -240.224047 
L 566.994598 -236.907346 
L 565.405902 -232.957742 
L 563.817206 -228.394297 
L 562.22851 -223.254831 
L 560.639814 -217.594166 
L 559.051118 -211.481027 
L 557.462423 -204.994009 
L 555.873727 -198.217113 
L 554.285031 -191.235423 
L 552.696335 -184.1314 
L 551.107639 -176.982127 
L 549.518943 -169.857606 
L 547.930248 -162.820044 
L 546.341552 -155.923877 
L 544.752856 -149.216228 
L 543.16416 -142.737487 
L 541.575464 -136.521767 
L 539.986769 -130.597104 
L 538.398073 -124.985395 
L 536.809377 -119.702168 
L 535.220681 -114.756353 
L 533.631985 -110.150236 
L 532.043289 -105.879746 
L 530.454594 -101.935173 
L 528.865898 -98.302268 
L 527.277202 -94.963635 
L 525.688506 -91.900183 
L 524.09981 -89.092407 
L 522.511114 -86.521268 
L 520.922419 -84.168496 
L 519.333723 -82.016309 
L 517.745027 -80.046627 
L 516.156331 -78.240023 
L 514.567635 -76.574736 
L 512.97894 -75.026069 
L 511.390244 -73.566451 
L 509.801548 -72.166291 
L 508.212852 -70.795584 
L 506.624156 -69.426071 
L 505.03546 -68.033591 
L 503.446765 -66.600225 
L 501.858069 -65.115859 
L 500.269373 -63.57887 
L 498.680677 -61.99584 
L 497.091981 -60.38034 
L 495.503285 -58.751016 
L 493.91459 -57.129287 
L 492.325894 -55.537006 
L 490.737198 -53.994426 
L 489.148502 -52.518682 
L 487.559806 -51.122914 
L 485.971111 -49.816026 
L 484.382415 -48.602977 
L 482.793719 -47.485422 
L 481.205023 -46.462526 
L 479.616327 -45.531754 
L 478.027631 -44.689516 
L 476.438936 -43.931585 
L 474.85024 -43.253284 
L 473.261544 -42.649479 
L 471.672848 -42.114455 
L 470.084152 -41.641785 
L 468.495456 -41.224265 
L 466.906761 -40.853986 
L 465.318065 -40.522566 
L 463.729369 -40.221545 
L 462.140673 -39.942873 
L 460.551977 -39.679436 
L 458.963282 -39.425528 
L 457.374586 -39.177192 
L 455.78589 -38.932378 
L 454.197194 -38.69089 
L 452.608498 -38.454133 
L 451.019802 -38.224698 
L 449.431107 -38.00586 
L 447.842411 -37.801044 
L 446.253715 -37.613346 
L 444.665019 -37.445167 
L 443.076323 -37.297972 
L 441.487627 -37.172209 
L 439.898932 -37.067352 
L 438.310236 -36.982057 
L 436.72154 -36.914373 
L 435.132844 -36.861983 
L 433.544148 -36.822426 
L 431.955453 -36.79329 
L 430.366757 -36.772356 
L 428.778061 -36.757683 
L 427.189365 -36.74765 
L 425.600669 -36.740956 
z
" style="stroke: #4c72b0"/>
    </defs>
    <g>
     <use xlink:href="#mea0081bf64" x="0" y="265.689687" style="fill: #4c72b0; fill-opacity: 0.25; stroke: #4c72b0"/>
    </g>
   </g>
   <g id="line2d_37">
    <path d="M 301.311334 228.96 
L 301.311334 7.2 
" style="fill: none; stroke-dasharray: 2.96,1.28; stroke-dashoffset: 0; stroke: #d3d3d3; stroke-width: 0.8"/>
   </g>
   <g id="line2d_38">
    <path d="M 487.284081 228.96 
L 487.284081 7.2 
" style="fill: none; stroke-dasharray: 2.96,1.28; stroke-dashoffset: 0; stroke: #d3d3d3; stroke-width: 0.8"/>
   </g>
   <g id="line2d_39">
    <path d="M 408.540882 228.96 
L 408.540882 7.2 
" style="fill: none; stroke-dasharray: 2.96,1.28; stroke-dashoffset: 0; stroke: #d3d3d3; stroke-width: 0.8"/>
   </g>
   <g id="line2d_40">
    <path d="M 7.2 228.96 
L 844.2 228.96 
" style="fill: none; stroke: #808080; stroke-width: 0.5; stroke-linecap: round"/>
   </g>
   <g id="text_12">
    <text style="font-size: 8px; font-family: 'Arial', 'DejaVu Sans', 'Liberation Sans', 'Bitstream Vera Sans', sans-serif; fill: #808080" transform="translate(307.565084 124.59635) rotate(-90)">International Poverty Line: $3.00</text>
   </g>
   <g id="text_13">
    <text style="font-size: 8px; font-family: 'Arial', 'DejaVu Sans', 'Liberation Sans', 'Bitstream Vera Sans', sans-serif; fill: #808080" transform="translate(493.010331 81.31135) rotate(-90)">World mean: $21.95</text>
   </g>
   <g id="text_14">
    <text style="font-size: 8px; font-family: 'Arial', 'DejaVu Sans', 'Liberation Sans', 'Bitstream Vera Sans', sans-serif; fill: #808080" transform="translate(414.267132 83.08885) rotate(-90)">World median: $9.45</text>
   </g>
   <g id="legend_1">
    <g id="patch_3">
     <path d="M 683.8 102.466062 
L 851.4125 102.466062 
Q 853.4125 102.466062 853.4125 100.466062 
L 853.4125 58.552 
Q 853.4125 56.552 851.4125 56.552 
L 683.8 56.552 
Q 681.8 56.552 681.8 58.552 
L 681.8 100.466062 
Q 681.8 102.466062 683.8 102.466062 
z
" style="fill: #ffffff; opacity: 0.8; stroke: #cccccc; stroke-linejoin: miter"/>
    </g>
    <g id="text_15">
     <text style="font-size: 10px; font-family: 'Arial', 'DejaVu Sans', 'Liberation Sans', 'Bitstream Vera Sans', sans-serif; text-anchor: start; fill: #262626" x="750.1" y="67.831687" transform="rotate(-0 750.1 67.831687)">Country</text>
    </g>
    <g id="patch_4">
     <path d="M 685.8 82.094187 
L 705.8 82.094187 
L 705.8 75.094187 
L 685.8 75.094187 
z
" style="fill: #4c72b0; fill-opacity: 0.25; stroke: #4c72b0; stroke-linejoin: miter"/>
    </g>
    <g id="text_16">
     <text style="font-size: 10px; font-family: 'Arial', 'DejaVu Sans', 'Liberation Sans', 'Bitstream Vera Sans', sans-serif; text-anchor: start; fill: #262626" x="713.8" y="82.094187" transform="rotate(-0 713.8 82.094187)">Denmark</text>
    </g>
    <g id="patch_5">
     <path d="M 685.8 96.361375 
L 705.8 96.361375 
L 705.8 89.361375 
L 685.8 89.361375 
z
" style="fill: #dd8452; fill-opacity: 0.25; stroke: #dd8452; stroke-linejoin: miter"/>
    </g>
    <g id="text_17">
     <text style="font-size: 10px; font-family: 'Arial', 'DejaVu Sans', 'Liberation Sans', 'Bitstream Vera Sans', sans-serif; text-anchor: start; fill: #262626" x="713.8" y="96.361375" transform="rotate(-0 713.8 96.361375)">Democratic Republic of Congo</text>
    </g>
   </g>
  </g>
 </g>
</svg>
