<?xml version="1.0" encoding="utf-8" standalone="no"?>
<!DOCTYPE svg PUBLIC "-//W3C//DTD SVG 1.1//EN"
  "http://www.w3.org/Graphics/SVG/1.1/DTD/svg11.dtd">
<svg xmlns:xlink="http://www.w3.org/1999/xlink" width="851.4pt" height="265.689687pt" viewBox="0 0 851.4 265.689687" xmlns="http://www.w3.org/2000/svg" version="1.1">
 <metadata>
  <rdf:RDF xmlns:dc="http://purl.org/dc/elements/1.1/" xmlns:cc="http://creativecommons.org/ns#" xmlns:rdf="http://www.w3.org/1999/02/22-rdf-syntax-ns#">
   <cc:Work>
    <dc:type rdf:resource="http://purl.org/dc/dcmitype/StillImage"/>
    <dc:date>2025-08-21T09:55:17.603077</dc:date>
    <dc:format>image/svg+xml</dc:format>
    <dc:creator>
     <cc:Agent>
      <dc:title>Matplotlib v3.10.1, https://matplotlib.org/</dc:title>
     </cc:Agent>
    </dc:creator>
   </cc:Work>
  </rdf:RDF>
 </metadata>
 <defs>
  <style type="text/css">*{stroke-linejoin: round; stroke-linecap: butt}</style>
 </defs>
 <g id="figure_1">
  <g id="patch_1">
   <path d="M 0 265.689687 
L 851.4 265.689687 
L 851.4 0 
L 0 0 
z
" style="fill: #ffffff"/>
  </g>
  <g id="axes_1">
   <g id="patch_2">
    <path d="M 7.2 228.96 
L 844.2 228.96 
L 844.2 7.2 
L 7.2 7.2 
z
" style="fill: #ffffff"/>
   </g>
   <g id="matplotlib.axis_1">
    <g id="xtick_1">
     <g id="line2d_1">
      <defs>
       <path id="m9ecc84cfea" d="M 0 0 
L 0 3.5 
" style="stroke: #262626; stroke-width: 0.8"/>
      </defs>
      <g>
       <use xlink:href="#m9ecc84cfea" x="192.600131" y="228.96" style="fill: #262626; stroke: #262626; stroke-width: 0.8"/>
      </g>
     </g>
     <g id="text_1">
      <text style="font-size: 10px; font-family: 'Arial', 'DejaVu Sans', 'Liberation Sans', 'Bitstream Vera Sans', sans-serif; text-anchor: middle; fill: #262626" x="192.600131" y="243.117812" transform="rotate(-0 192.600131 243.117812)">1</text>
     </g>
    </g>
    <g id="xtick_2">
     <g id="line2d_2">
      <g>
       <use xlink:href="#m9ecc84cfea" x="254.476848" y="228.96" style="fill: #262626; stroke: #262626; stroke-width: 0.8"/>
      </g>
     </g>
     <g id="text_2">
      <text style="font-size: 10px; font-family: 'Arial', 'DejaVu Sans', 'Liberation Sans', 'Bitstream Vera Sans', sans-serif; text-anchor: middle; fill: #262626" x="254.476848" y="243.117812" transform="rotate(-0 254.476848 243.117812)">2</text>
     </g>
    </g>
    <g id="xtick_3">
     <g id="line2d_3">
      <g>
       <use xlink:href="#m9ecc84cfea" x="336.273419" y="228.96" style="fill: #262626; stroke: #262626; stroke-width: 0.8"/>
      </g>
     </g>
     <g id="text_3">
      <text style="font-size: 10px; font-family: 'Arial', 'DejaVu Sans', 'Liberation Sans', 'Bitstream Vera Sans', sans-serif; text-anchor: middle; fill: #262626" x="336.273419" y="243.117812" transform="rotate(-0 336.273419 243.117812)">5</text>
     </g>
    </g>
    <g id="xtick_4">
     <g id="line2d_4">
      <g>
       <use xlink:href="#m9ecc84cfea" x="398.150137" y="228.96" style="fill: #262626; stroke: #262626; stroke-width: 0.8"/>
      </g>
     </g>
     <g id="text_4">
      <text style="font-size: 10px; font-family: 'Arial', 'DejaVu Sans', 'Liberation Sans', 'Bitstream Vera Sans', sans-serif; text-anchor: middle; fill: #262626" x="398.150137" y="243.117812" transform="rotate(-0 398.150137 243.117812)">10</text>
     </g>
    </g>
    <g id="xtick_5">
     <g id="line2d_5">
      <g>
       <use xlink:href="#m9ecc84cfea" x="460.026854" y="228.96" style="fill: #262626; stroke: #262626; stroke-width: 0.8"/>
      </g>
     </g>
     <g id="text_5">
      <text style="font-size: 10px; font-family: 'Arial', 'DejaVu Sans', 'Liberation Sans', 'Bitstream Vera Sans', sans-serif; text-anchor: middle; fill: #262626" x="460.026854" y="243.117812" transform="rotate(-0 460.026854 243.117812)">20</text>
     </g>
    </g>
    <g id="xtick_6">
     <g id="line2d_6">
      <g>
       <use xlink:href="#m9ecc84cfea" x="541.823425" y="228.96" style="fill: #262626; stroke: #262626; stroke-width: 0.8"/>
      </g>
     </g>
     <g id="text_6">
      <text style="font-size: 10px; font-family: 'Arial', 'DejaVu Sans', 'Liberation Sans', 'Bitstream Vera Sans', sans-serif; text-anchor: middle; fill: #262626" x="541.823425" y="243.117812" transform="rotate(-0 541.823425 243.117812)">50</text>
     </g>
    </g>
    <g id="xtick_7">
     <g id="line2d_7">
      <g>
       <use xlink:href="#m9ecc84cfea" x="603.700143" y="228.96" style="fill: #262626; stroke: #262626; stroke-width: 0.8"/>
      </g>
     </g>
     <g id="text_7">
      <text style="font-size: 10px; font-family: 'Arial', 'DejaVu Sans', 'Liberation Sans', 'Bitstream Vera Sans', sans-serif; text-anchor: middle; fill: #262626" x="603.700143" y="243.117812" transform="rotate(-0 603.700143 243.117812)">100</text>
     </g>
    </g>
    <g id="xtick_8">
     <g id="line2d_8">
      <g>
       <use xlink:href="#m9ecc84cfea" x="665.57686" y="228.96" style="fill: #262626; stroke: #262626; stroke-width: 0.8"/>
      </g>
     </g>
     <g id="text_8">
      <text style="font-size: 10px; font-family: 'Arial', 'DejaVu Sans', 'Liberation Sans', 'Bitstream Vera Sans', sans-serif; text-anchor: middle; fill: #262626" x="665.57686" y="243.117812" transform="rotate(-0 665.57686 243.117812)">200</text>
     </g>
    </g>
    <g id="xtick_9">
     <g id="line2d_9">
      <g>
       <use xlink:href="#m9ecc84cfea" x="747.373431" y="228.96" style="fill: #262626; stroke: #262626; stroke-width: 0.8"/>
      </g>
     </g>
     <g id="text_9">
      <text style="font-size: 10px; font-family: 'Arial', 'DejaVu Sans', 'Liberation Sans', 'Bitstream Vera Sans', sans-serif; text-anchor: middle; fill: #262626" x="747.373431" y="243.117812" transform="rotate(-0 747.373431 243.117812)">500</text>
     </g>
    </g>
    <g id="xtick_10">
     <g id="line2d_10">
      <g>
       <use xlink:href="#m9ecc84cfea" x="809.250149" y="228.96" style="fill: #262626; stroke: #262626; stroke-width: 0.8"/>
      </g>
     </g>
     <g id="text_10">
      <text style="font-size: 10px; font-family: 'Arial', 'DejaVu Sans', 'Liberation Sans', 'Bitstream Vera Sans', sans-serif; text-anchor: middle; fill: #262626" x="809.250149" y="243.117812" transform="rotate(-0 809.250149 243.117812)">1000</text>
     </g>
    </g>
    <g id="xtick_11">
     <g id="line2d_11">
      <defs>
       <path id="m5b2668ef70" d="M 0 0 
L 0 2 
" style="stroke: #262626; stroke-width: 0.6"/>
      </defs>
      <g>
       <use xlink:href="#m5b2668ef70" x="48.926842" y="228.96" style="fill: #262626; stroke: #262626; stroke-width: 0.6"/>
      </g>
     </g>
    </g>
    <g id="xtick_12">
     <g id="line2d_12">
      <g>
       <use xlink:href="#m5b2668ef70" x="85.122401" y="228.96" style="fill: #262626; stroke: #262626; stroke-width: 0.6"/>
      </g>
     </g>
    </g>
    <g id="xtick_13">
     <g id="line2d_13">
      <g>
       <use xlink:href="#m5b2668ef70" x="110.803559" y="228.96" style="fill: #262626; stroke: #262626; stroke-width: 0.6"/>
      </g>
     </g>
    </g>
    <g id="xtick_14">
     <g id="line2d_14">
      <g>
       <use xlink:href="#m5b2668ef70" x="130.723413" y="228.96" style="fill: #262626; stroke: #262626; stroke-width: 0.6"/>
      </g>
     </g>
    </g>
    <g id="xtick_15">
     <g id="line2d_15">
      <g>
       <use xlink:href="#m5b2668ef70" x="146.999119" y="228.96" style="fill: #262626; stroke: #262626; stroke-width: 0.6"/>
      </g>
     </g>
    </g>
    <g id="xtick_16">
     <g id="line2d_16">
      <g>
       <use xlink:href="#m5b2668ef70" x="160.760032" y="228.96" style="fill: #262626; stroke: #262626; stroke-width: 0.6"/>
      </g>
     </g>
    </g>
    <g id="xtick_17">
     <g id="line2d_17">
      <g>
       <use xlink:href="#m5b2668ef70" x="172.680277" y="228.96" style="fill: #262626; stroke: #262626; stroke-width: 0.6"/>
      </g>
     </g>
    </g>
    <g id="xtick_18">
     <g id="line2d_18">
      <g>
       <use xlink:href="#m5b2668ef70" x="183.194678" y="228.96" style="fill: #262626; stroke: #262626; stroke-width: 0.6"/>
      </g>
     </g>
    </g>
    <g id="xtick_19">
     <g id="line2d_19">
      <g>
       <use xlink:href="#m5b2668ef70" x="290.672407" y="228.96" style="fill: #262626; stroke: #262626; stroke-width: 0.6"/>
      </g>
     </g>
    </g>
    <g id="xtick_20">
     <g id="line2d_20">
      <g>
       <use xlink:href="#m5b2668ef70" x="316.353565" y="228.96" style="fill: #262626; stroke: #262626; stroke-width: 0.6"/>
      </g>
     </g>
    </g>
    <g id="xtick_21">
     <g id="line2d_21">
      <g>
       <use xlink:href="#m5b2668ef70" x="352.549125" y="228.96" style="fill: #262626; stroke: #262626; stroke-width: 0.6"/>
      </g>
     </g>
    </g>
    <g id="xtick_22">
     <g id="line2d_22">
      <g>
       <use xlink:href="#m5b2668ef70" x="366.310038" y="228.96" style="fill: #262626; stroke: #262626; stroke-width: 0.6"/>
      </g>
     </g>
    </g>
    <g id="xtick_23">
     <g id="line2d_23">
      <g>
       <use xlink:href="#m5b2668ef70" x="378.230283" y="228.96" style="fill: #262626; stroke: #262626; stroke-width: 0.6"/>
      </g>
     </g>
    </g>
    <g id="xtick_24">
     <g id="line2d_24">
      <g>
       <use xlink:href="#m5b2668ef70" x="388.744684" y="228.96" style="fill: #262626; stroke: #262626; stroke-width: 0.6"/>
      </g>
     </g>
    </g>
    <g id="xtick_25">
     <g id="line2d_25">
      <g>
       <use xlink:href="#m5b2668ef70" x="496.222413" y="228.96" style="fill: #262626; stroke: #262626; stroke-width: 0.6"/>
      </g>
     </g>
    </g>
    <g id="xtick_26">
     <g id="line2d_26">
      <g>
       <use xlink:href="#m5b2668ef70" x="521.903571" y="228.96" style="fill: #262626; stroke: #262626; stroke-width: 0.6"/>
      </g>
     </g>
    </g>
    <g id="xtick_27">
     <g id="line2d_27">
      <g>
       <use xlink:href="#m5b2668ef70" x="558.099131" y="228.96" style="fill: #262626; stroke: #262626; stroke-width: 0.6"/>
      </g>
     </g>
    </g>
    <g id="xtick_28">
     <g id="line2d_28">
      <g>
       <use xlink:href="#m5b2668ef70" x="571.860044" y="228.96" style="fill: #262626; stroke: #262626; stroke-width: 0.6"/>
      </g>
     </g>
    </g>
    <g id="xtick_29">
     <g id="line2d_29">
      <g>
       <use xlink:href="#m5b2668ef70" x="583.780289" y="228.96" style="fill: #262626; stroke: #262626; stroke-width: 0.6"/>
      </g>
     </g>
    </g>
    <g id="xtick_30">
     <g id="line2d_30">
      <g>
       <use xlink:href="#m5b2668ef70" x="594.29469" y="228.96" style="fill: #262626; stroke: #262626; stroke-width: 0.6"/>
      </g>
     </g>
    </g>
    <g id="xtick_31">
     <g id="line2d_31">
      <g>
       <use xlink:href="#m5b2668ef70" x="701.772419" y="228.96" style="fill: #262626; stroke: #262626; stroke-width: 0.6"/>
      </g>
     </g>
    </g>
    <g id="xtick_32">
     <g id="line2d_32">
      <g>
       <use xlink:href="#m5b2668ef70" x="727.453578" y="228.96" style="fill: #262626; stroke: #262626; stroke-width: 0.6"/>
      </g>
     </g>
    </g>
    <g id="xtick_33">
     <g id="line2d_33">
      <g>
       <use xlink:href="#m5b2668ef70" x="763.649137" y="228.96" style="fill: #262626; stroke: #262626; stroke-width: 0.6"/>
      </g>
     </g>
    </g>
    <g id="xtick_34">
     <g id="line2d_34">
      <g>
       <use xlink:href="#m5b2668ef70" x="777.41005" y="228.96" style="fill: #262626; stroke: #262626; stroke-width: 0.6"/>
      </g>
     </g>
    </g>
    <g id="xtick_35">
     <g id="line2d_35">
      <g>
       <use xlink:href="#m5b2668ef70" x="789.330295" y="228.96" style="fill: #262626; stroke: #262626; stroke-width: 0.6"/>
      </g>
     </g>
    </g>
    <g id="xtick_36">
     <g id="line2d_36">
      <g>
       <use xlink:href="#m5b2668ef70" x="799.844696" y="228.96" style="fill: #262626; stroke: #262626; stroke-width: 0.6"/>
      </g>
     </g>
    </g>
    <g id="text_11">
     <text style="font-size: 10px; font-family: 'Arial', 'DejaVu Sans', 'Liberation Sans', 'Bitstream Vera Sans', sans-serif; text-anchor: middle; fill: #262626" x="425.7" y="256.385" transform="rotate(-0 425.7 256.385)">Income or consumption (day)</text>
    </g>
   </g>
   <g id="matplotlib.axis_2"/>
   <g id="FillBetweenPolyCollection_1">
    <defs>
     <path id="m6e0d990a5c" d="M 129.104279 -36.737891 
L 129.104279 -36.729688 
L 131.348172 -36.729688 
L 133.592065 -36.729688 
L 135.835958 -36.729688 
L 138.079851 -36.729688 
L 140.323744 -36.729688 
L 142.567637 -36.729688 
L 144.81153 -36.729688 
L 147.055423 -36.729688 
L 149.299316 -36.729688 
L 151.543209 -36.729688 
L 153.787102 -36.729688 
L 156.030995 -36.729688 
L 158.274888 -36.729688 
L 160.518781 -36.729688 
L 162.762674 -36.729688 
L 165.006567 -36.729688 
L 167.250459 -36.729688 
L 169.494352 -36.729688 
L 171.738245 -36.729688 
L 173.982138 -36.729688 
L 176.226031 -36.729688 
L 178.469924 -36.729688 
L 180.713817 -36.729688 
L 182.95771 -36.729688 
L 185.201603 -36.729688 
L 187.445496 -36.729688 
L 189.689389 -36.729688 
L 191.933282 -36.729688 
L 194.177175 -36.729688 
L 196.421068 -36.729688 
L 198.664961 -36.729688 
L 200.908854 -36.729688 
L 203.152747 -36.729688 
L 205.39664 -36.729688 
L 207.640533 -36.729688 
L 209.884426 -36.729688 
L 212.128319 -36.729688 
L 214.372212 -36.729688 
L 216.616105 -36.729688 
L 218.859998 -36.729688 
L 221.103891 -36.729688 
L 223.347784 -36.729688 
L 225.591677 -36.729688 
L 227.83557 -36.729688 
L 230.079463 -36.729688 
L 232.323356 -36.729688 
L 234.567249 -36.729688 
L 236.811142 -36.729688 
L 239.055035 -36.729688 
L 241.298928 -36.729688 
L 243.542821 -36.729688 
L 245.786714 -36.729688 
L 248.030607 -36.729688 
L 250.2745 -36.729688 
L 252.518392 -36.729688 
L 254.762285 -36.729688 
L 257.006178 -36.729688 
L 259.250071 -36.729688 
L 261.493964 -36.729688 
L 263.737857 -36.729688 
L 265.98175 -36.729688 
L 268.225643 -36.729688 
L 270.469536 -36.729688 
L 272.713429 -36.729688 
L 274.957322 -36.729688 
L 277.201215 -36.729688 
L 279.445108 -36.729688 
L 281.689001 -36.729688 
L 283.932894 -36.729688 
L 286.176787 -36.729688 
L 288.42068 -36.729688 
L 290.664573 -36.729688 
L 292.908466 -36.729688 
L 295.152359 -36.729688 
L 297.396252 -36.729688 
L 299.640145 -36.729688 
L 301.884038 -36.729688 
L 304.127931 -36.729688 
L 306.371824 -36.729688 
L 308.615717 -36.729688 
L 310.85961 -36.729688 
L 313.103503 -36.729688 
L 315.347396 -36.729688 
L 317.591289 -36.729688 
L 319.835182 -36.729688 
L 322.079075 -36.729688 
L 324.322968 -36.729688 
L 326.566861 -36.729688 
L 328.810754 -36.729688 
L 331.054647 -36.729688 
L 333.29854 -36.729688 
L 335.542432 -36.729688 
L 337.786325 -36.729688 
L 340.030218 -36.729688 
L 342.274111 -36.729688 
L 344.518004 -36.729688 
L 346.761897 -36.729688 
L 349.00579 -36.729688 
L 351.249683 -36.729688 
L 353.493576 -36.729688 
L 355.737469 -36.729688 
L 357.981362 -36.729688 
L 360.225255 -36.729688 
L 362.469148 -36.729688 
L 364.713041 -36.729688 
L 366.956934 -36.729688 
L 369.200827 -36.729688 
L 371.44472 -36.729688 
L 373.688613 -36.729688 
L 375.932506 -36.729688 
L 378.176399 -36.729688 
L 380.420292 -36.729688 
L 382.664185 -36.729688 
L 384.908078 -36.729688 
L 387.151971 -36.729688 
L 389.395864 -36.729688 
L 391.639757 -36.729688 
L 393.88365 -36.729688 
L 396.127543 -36.729688 
L 398.371436 -36.729688 
L 400.615329 -36.729688 
L 402.859222 -36.729688 
L 405.103115 -36.729688 
L 407.347008 -36.729688 
L 409.590901 -36.729688 
L 411.834794 -36.729688 
L 414.078687 -36.729688 
L 416.32258 -36.729688 
L 418.566473 -36.729688 
L 420.810365 -36.729688 
L 423.054258 -36.729688 
L 425.298151 -36.729688 
L 427.542044 -36.729688 
L 429.785937 -36.729688 
L 432.02983 -36.729688 
L 434.273723 -36.729688 
L 436.517616 -36.729688 
L 438.761509 -36.729688 
L 441.005402 -36.729688 
L 443.249295 -36.729688 
L 445.493188 -36.729688 
L 447.737081 -36.729688 
L 449.980974 -36.729688 
L 452.224867 -36.729688 
L 454.46876 -36.729688 
L 456.712653 -36.729688 
L 458.956546 -36.729688 
L 461.200439 -36.729688 
L 463.444332 -36.729688 
L 465.688225 -36.729688 
L 467.932118 -36.729688 
L 470.176011 -36.729688 
L 472.419904 -36.729688 
L 474.663797 -36.729688 
L 476.90769 -36.729688 
L 479.151583 -36.729688 
L 481.395476 -36.729688 
L 483.639369 -36.729688 
L 485.883262 -36.729688 
L 488.127155 -36.729688 
L 490.371048 -36.729688 
L 492.614941 -36.729688 
L 494.858834 -36.729688 
L 497.102727 -36.729688 
L 499.34662 -36.729688 
L 501.590513 -36.729688 
L 503.834405 -36.729688 
L 506.078298 -36.729688 
L 508.322191 -36.729688 
L 510.566084 -36.729688 
L 512.809977 -36.729688 
L 515.05387 -36.729688 
L 517.297763 -36.729688 
L 519.541656 -36.729688 
L 521.785549 -36.729688 
L 524.029442 -36.729688 
L 526.273335 -36.729688 
L 528.517228 -36.729688 
L 530.761121 -36.729688 
L 533.005014 -36.729688 
L 535.248907 -36.729688 
L 537.4928 -36.729688 
L 539.736693 -36.729688 
L 541.980586 -36.729688 
L 544.224479 -36.729688 
L 546.468372 -36.729688 
L 548.712265 -36.729688 
L 550.956158 -36.729688 
L 553.200051 -36.729688 
L 555.443944 -36.729688 
L 557.687837 -36.729688 
L 559.93173 -36.729688 
L 562.175623 -36.729688 
L 564.419516 -36.729688 
L 566.663409 -36.729688 
L 568.907302 -36.729688 
L 571.151195 -36.729688 
L 573.395088 -36.729688 
L 575.638981 -36.729688 
L 575.638981 -36.737482 
L 575.638981 -36.737482 
L 573.395088 -36.742945 
L 571.151195 -36.751499 
L 568.907302 -36.764395 
L 566.663409 -36.783104 
L 564.419516 -36.809201 
L 562.175623 -36.844165 
L 559.93173 -36.889097 
L 557.687837 -36.944381 
L 555.443944 -37.009353 
L 553.200051 -37.082037 
L 550.956158 -37.159047 
L 548.712265 -37.235726 
L 546.468372 -37.306533 
L 544.224479 -37.365677 
L 541.980586 -37.407883 
L 539.736693 -37.429166 
L 537.4928 -37.427454 
L 535.248907 -37.40292 
L 533.005014 -37.357959 
L 530.761121 -37.296806 
L 528.517228 -37.224899 
L 526.273335 -37.148102 
L 524.029442 -37.07197 
L 521.785549 -37.001188 
L 519.541656 -36.939251 
L 517.297763 -36.888432 
L 515.05387 -36.849979 
L 512.809977 -36.824468 
L 510.566084 -36.812221 
L 508.322191 -36.813689 
L 506.078298 -36.829733 
L 503.834405 -36.861747 
L 501.590513 -36.911622 
L 499.34662 -36.981542 
L 497.102727 -37.073669 
L 494.858834 -37.189769 
L 492.614941 -37.330856 
L 490.371048 -37.496947 
L 488.127155 -37.686978 
L 485.883262 -37.898933 
L 483.639369 -38.130168 
L 481.395476 -38.377887 
L 479.151583 -38.639676 
L 476.90769 -38.913979 
L 474.663797 -39.200438 
L 472.419904 -39.500013 
L 470.176011 -39.814884 
L 467.932118 -40.148165 
L 465.688225 -40.503524 
L 463.444332 -40.884787 
L 461.200439 -41.295635 
L 458.956546 -41.739436 
L 456.712653 -42.219231 
L 454.46876 -42.737835 
L 452.224867 -43.298014 
L 449.980974 -43.902646 
L 447.737081 -44.554838 
L 445.493188 -45.257953 
L 443.249295 -46.015565 
L 441.005402 -46.831357 
L 438.761509 -47.709013 
L 436.517616 -48.652131 
L 434.273723 -49.664188 
L 432.02983 -50.748554 
L 429.785937 -51.908543 
L 427.542044 -53.147485 
L 425.298151 -54.468782 
L 423.054258 -55.875924 
L 420.810365 -57.372475 
L 418.566473 -58.962017 
L 416.32258 -60.648086 
L 414.078687 -62.434132 
L 411.834794 -64.323526 
L 409.590901 -66.319638 
L 407.347008 -68.425973 
L 405.103115 -70.646356 
L 402.859222 -72.985093 
L 400.615329 -75.447083 
L 398.371436 -78.03783 
L 396.127543 -80.763342 
L 393.88365 -83.629923 
L 391.639757 -86.643906 
L 389.395864 -89.811361 
L 387.151971 -93.137809 
L 384.908078 -96.627953 
L 382.664185 -100.285396 
L 380.420292 -104.1123 
L 378.176399 -108.108941 
L 375.932506 -112.273151 
L 373.688613 -116.599665 
L 371.44472 -121.079469 
L 369.200827 -125.699254 
L 366.956934 -130.441098 
L 364.713041 -135.282464 
L 362.469148 -140.196557 
L 360.225255 -145.153036 
L 357.981362 -150.119015 
L 355.737469 -155.060328 
L 353.493576 -159.942948 
L 351.249683 -164.734511 
L 349.00579 -169.4058 
L 346.761897 -173.932018 
L 344.518004 -178.293618 
L 342.274111 -182.476439 
L 340.030218 -186.470984 
L 337.786325 -190.270807 
L 335.542432 -193.870214 
L 333.29854 -197.261672 
L 331.054647 -200.433473 
L 328.810754 -203.368162 
L 326.566861 -206.042122 
L 324.322968 -208.426386 
L 322.079075 -210.488498 
L 319.835182 -212.19496 
L 317.591289 -213.513733 
L 315.347396 -214.416309 
L 313.103503 -214.879093 
L 310.85961 -214.884088 
L 308.615717 -214.419138 
L 306.371824 -213.478114 
L 304.127931 -212.061382 
L 301.884038 -210.176733 
L 299.640145 -207.84064 
L 297.396252 -205.079446 
L 295.152359 -201.929923 
L 292.908466 -198.438652 
L 290.664573 -194.659878 
L 288.42068 -190.651912 
L 286.176787 -186.472518 
L 283.932894 -182.174071 
L 281.689001 -177.799375 
L 279.445108 -173.378944 
L 277.201215 -168.930173 
L 274.957322 -164.458463 
L 272.713429 -159.959906 
L 270.469536 -155.42492 
L 268.225643 -150.842101 
L 265.98175 -146.201688 
L 263.737857 -141.498227 
L 261.493964 -136.732254 
L 259.250071 -131.911021 
L 257.006178 -127.048381 
L 254.762285 -122.164023 
L 252.518392 -117.282207 
L 250.2745 -112.430183 
L 248.030607 -107.636446 
L 245.786714 -102.929016 
L 243.542821 -98.333942 
L 241.298928 -93.87421 
L 239.055035 -89.569179 
L 236.811142 -85.434584 
L 234.567249 -81.482996 
L 232.323356 -77.724568 
L 230.079463 -74.167777 
L 227.83557 -70.819957 
L 225.591677 -67.687415 
L 223.347784 -64.775115 
L 221.103891 -62.086004 
L 218.859998 -59.62018 
L 216.616105 -57.37415 
L 214.372212 -55.340408 
L 212.128319 -53.507466 
L 209.884426 -51.8604 
L 207.640533 -50.381807 
L 205.39664 -49.053034 
L 203.152747 -47.855476 
L 200.908854 -46.771738 
L 198.664961 -45.786538 
L 196.421068 -44.887246 
L 194.177175 -44.064054 
L 191.933282 -43.309791 
L 189.689389 -42.619469 
L 187.445496 -41.989637 
L 185.201603 -41.417655 
L 182.95771 -40.900991 
L 180.713817 -40.436648 
L 178.469924 -40.020805 
L 176.226031 -39.648722 
L 173.982138 -39.314917 
L 171.738245 -39.013572 
L 169.494352 -38.739075 
L 167.250459 -38.486576 
L 165.006567 -38.252441 
L 162.762674 -38.034491 
L 160.518781 -37.831992 
L 158.274888 -37.645391 
L 156.030995 -37.475878 
L 153.787102 -37.324859 
L 151.543209 -37.193461 
L 149.299316 -37.082167 
L 147.055423 -36.990618 
L 144.81153 -36.917608 
L 142.567637 -36.861229 
L 140.323744 -36.819108 
L 138.079851 -36.788682 
L 135.835958 -36.767439 
L 133.592065 -36.753109 
L 131.348172 -36.74377 
L 129.104279 -36.737891 
z
" style="stroke: #dd8452"/>
    </defs>
    <g>
     <use xlink:href="#m6e0d990a5c" x="0" y="265.689687" style="fill: #dd8452; fill-opacity: 0.25; stroke: #dd8452"/>
    </g>
   </g>
   <g id="FillBetweenPolyCollection_2">
    <defs>
     <path id="m4a7965c4ed" d="M 45.245455 -36.737586 
L 45.245455 -36.729688 
L 49.069118 -36.729688 
L 52.892782 -36.729688 
L 56.716446 -36.729688 
L 60.54011 -36.729688 
L 64.363773 -36.729688 
L 68.187437 -36.729688 
L 72.011101 -36.729688 
L 75.834765 -36.729688 
L 79.658429 -36.729688 
L 83.482092 -36.729688 
L 87.305756 -36.729688 
L 91.12942 -36.729688 
L 94.953084 -36.729688 
L 98.776747 -36.729688 
L 102.600411 -36.729688 
L 106.424075 -36.729688 
L 110.247739 -36.729688 
L 114.071402 -36.729688 
L 117.895066 -36.729688 
L 121.71873 -36.729688 
L 125.542394 -36.729688 
L 129.366058 -36.729688 
L 133.189721 -36.729688 
L 137.013385 -36.729688 
L 140.837049 -36.729688 
L 144.660713 -36.729688 
L 148.484376 -36.729688 
L 152.30804 -36.729688 
L 156.131704 -36.729688 
L 159.955368 -36.729688 
L 163.779032 -36.729688 
L 167.602695 -36.729688 
L 171.426359 -36.729688 
L 175.250023 -36.729688 
L 179.073687 -36.729688 
L 182.89735 -36.729688 
L 186.721014 -36.729688 
L 190.544678 -36.729688 
L 194.368342 -36.729688 
L 198.192005 -36.729688 
L 202.015669 -36.729688 
L 205.839333 -36.729688 
L 209.662997 -36.729688 
L 213.486661 -36.729688 
L 217.310324 -36.729688 
L 221.133988 -36.729688 
L 224.957652 -36.729688 
L 228.781316 -36.729688 
L 232.604979 -36.729688 
L 236.428643 -36.729688 
L 240.252307 -36.729688 
L 244.075971 -36.729688 
L 247.899635 -36.729688 
L 251.723298 -36.729688 
L 255.546962 -36.729688 
L 259.370626 -36.729688 
L 263.19429 -36.729688 
L 267.017953 -36.729688 
L 270.841617 -36.729688 
L 274.665281 -36.729688 
L 278.488945 -36.729688 
L 282.312608 -36.729688 
L 286.136272 -36.729688 
L 289.959936 -36.729688 
L 293.7836 -36.729688 
L 297.607264 -36.729688 
L 301.430927 -36.729688 
L 305.254591 -36.729688 
L 309.078255 -36.729688 
L 312.901919 -36.729688 
L 316.725582 -36.729688 
L 320.549246 -36.729688 
L 324.37291 -36.729688 
L 328.196574 -36.729688 
L 332.020238 -36.729688 
L 335.843901 -36.729688 
L 339.667565 -36.729688 
L 343.491229 -36.729688 
L 347.314893 -36.729688 
L 351.138556 -36.729688 
L 354.96222 -36.729688 
L 358.785884 -36.729688 
L 362.609548 -36.729688 
L 366.433212 -36.729688 
L 370.256875 -36.729688 
L 374.080539 -36.729688 
L 377.904203 -36.729688 
L 381.727867 -36.729688 
L 385.55153 -36.729688 
L 389.375194 -36.729688 
L 393.198858 -36.729688 
L 397.022522 -36.729688 
L 400.846185 -36.729688 
L 404.669849 -36.729688 
L 408.493513 -36.729688 
L 412.317177 -36.729688 
L 416.140841 -36.729688 
L 419.964504 -36.729688 
L 423.788168 -36.729688 
L 427.611832 -36.729688 
L 431.435496 -36.729688 
L 435.259159 -36.729688 
L 439.082823 -36.729688 
L 442.906487 -36.729688 
L 446.730151 -36.729688 
L 450.553815 -36.729688 
L 454.377478 -36.729688 
L 458.201142 -36.729688 
L 462.024806 -36.729688 
L 465.84847 -36.729688 
L 469.672133 -36.729688 
L 473.495797 -36.729688 
L 477.319461 -36.729688 
L 481.143125 -36.729688 
L 484.966788 -36.729688 
L 488.790452 -36.729688 
L 492.614116 -36.729688 
L 496.43778 -36.729688 
L 500.261444 -36.729688 
L 504.085107 -36.729688 
L 507.908771 -36.729688 
L 511.732435 -36.729688 
L 515.556099 -36.729688 
L 519.379762 -36.729688 
L 523.203426 -36.729688 
L 527.02709 -36.729688 
L 530.850754 -36.729688 
L 534.674418 -36.729688 
L 538.498081 -36.729688 
L 542.321745 -36.729688 
L 546.145409 -36.729688 
L 549.969073 -36.729688 
L 553.792736 -36.729688 
L 557.6164 -36.729688 
L 561.440064 -36.729688 
L 565.263728 -36.729688 
L 569.087392 -36.729688 
L 572.911055 -36.729688 
L 576.734719 -36.729688 
L 580.558383 -36.729688 
L 584.382047 -36.729688 
L 588.20571 -36.729688 
L 592.029374 -36.729688 
L 595.853038 -36.729688 
L 599.676702 -36.729688 
L 603.500365 -36.729688 
L 607.324029 -36.729688 
L 611.147693 -36.729688 
L 614.971357 -36.729688 
L 618.795021 -36.729688 
L 622.618684 -36.729688 
L 626.442348 -36.729688 
L 630.266012 -36.729688 
L 634.089676 -36.729688 
L 637.913339 -36.729688 
L 641.737003 -36.729688 
L 645.560667 -36.729688 
L 649.384331 -36.729688 
L 653.207995 -36.729688 
L 657.031658 -36.729688 
L 660.855322 -36.729688 
L 664.678986 -36.729688 
L 668.50265 -36.729688 
L 672.326313 -36.729688 
L 676.149977 -36.729688 
L 679.973641 -36.729688 
L 683.797305 -36.729688 
L 687.620968 -36.729688 
L 691.444632 -36.729688 
L 695.268296 -36.729688 
L 699.09196 -36.729688 
L 702.915624 -36.729688 
L 706.739287 -36.729688 
L 710.562951 -36.729688 
L 714.386615 -36.729688 
L 718.210279 -36.729688 
L 722.033942 -36.729688 
L 725.857606 -36.729688 
L 729.68127 -36.729688 
L 733.504934 -36.729688 
L 737.328598 -36.729688 
L 741.152261 -36.729688 
L 744.975925 -36.729688 
L 748.799589 -36.729688 
L 752.623253 -36.729688 
L 756.446916 -36.729688 
L 760.27058 -36.729688 
L 764.094244 -36.729688 
L 767.917908 -36.729688 
L 771.741571 -36.729688 
L 775.565235 -36.729688 
L 779.388899 -36.729688 
L 783.212563 -36.729688 
L 787.036227 -36.729688 
L 790.85989 -36.729688 
L 794.683554 -36.729688 
L 798.507218 -36.729688 
L 802.330882 -36.729688 
L 806.154545 -36.729688 
L 806.154545 -36.737586 
L 806.154545 -36.737586 
L 802.330882 -36.749045 
L 798.507218 -36.772638 
L 794.683554 -36.815962 
L 790.85989 -36.886579 
L 787.036227 -36.987984 
L 783.212563 -37.11467 
L 779.388899 -37.249172 
L 775.565235 -37.364329 
L 771.741571 -37.431732 
L 767.917908 -37.43319 
L 764.094244 -37.369201 
L 760.27058 -37.259564 
L 756.446916 -37.136092 
L 752.623253 -37.032074 
L 748.799589 -36.974095 
L 744.975925 -36.978733 
L 741.152261 -37.052868 
L 737.328598 -37.195009 
L 733.504934 -37.396656 
L 729.68127 -37.644627 
L 725.857606 -37.925104 
L 722.033942 -38.227909 
L 718.210279 -38.548048 
L 714.386615 -38.883201 
L 710.562951 -39.229626 
L 706.739287 -39.581094 
L 702.915624 -39.933272 
L 699.09196 -40.290897 
L 695.268296 -40.671895 
L 691.444632 -41.104795 
L 687.620968 -41.621829 
L 683.797305 -42.254555 
L 679.973641 -43.036828 
L 676.149977 -44.012592 
L 672.326313 -45.23983 
L 668.50265 -46.783905 
L 664.678986 -48.703226 
L 660.855322 -51.039316 
L 657.031658 -53.822755 
L 653.207995 -57.09471 
L 649.384331 -60.929908 
L 645.560667 -65.442354 
L 641.737003 -70.763791 
L 637.913339 -77.000784 
L 634.089676 -84.189074 
L 630.266012 -92.266902 
L 626.442348 -101.08178 
L 622.618684 -110.431432 
L 618.795021 -120.124379 
L 614.971357 -130.034466 
L 611.147693 -140.122554 
L 607.324029 -150.411373 
L 603.500365 -160.923249 
L 599.676702 -171.612775 
L 595.853038 -182.331377 
L 592.029374 -192.841866 
L 588.20571 -202.870903 
L 584.382047 -212.168614 
L 580.558383 -220.549208 
L 576.734719 -227.904279 
L 572.911055 -234.192281 
L 569.087392 -239.406934 
L 565.263728 -243.525293 
L 561.440064 -246.444347 
L 557.6164 -247.929688 
L 553.792736 -247.607041 
L 549.969073 -245.018343 
L 546.145409 -239.74122 
L 542.321745 -231.54228 
L 538.498081 -220.510731 
L 534.674418 -207.112957 
L 530.850754 -192.131711 
L 527.02709 -176.501279 
L 523.203426 -161.098176 
L 519.379762 -146.567327 
L 515.556099 -133.244494 
L 511.732435 -121.188897 
L 507.908771 -110.291864 
L 504.085107 -100.402406 
L 500.261444 -91.418105 
L 496.43778 -83.318295 
L 492.614116 -76.145295 
L 488.790452 -69.954678 
L 484.966788 -64.759299 
L 481.143125 -60.491325 
L 477.319461 -57.001437 
L 473.495797 -54.099057 
L 469.672133 -51.614308 
L 465.84847 -49.446995 
L 462.024806 -47.574614 
L 458.201142 -46.018125 
L 454.377478 -44.791226 
L 450.553815 -43.866476 
L 446.730151 -43.175886 
L 442.906487 -42.638152 
L 439.082823 -42.188733 
L 435.259159 -41.792071 
L 431.435496 -41.432118 
L 427.611832 -41.093599 
L 423.788168 -40.750617 
L 419.964504 -40.37098 
L 416.140841 -39.932391 
L 412.317177 -39.439237 
L 408.493513 -38.929326 
L 404.669849 -38.466367 
L 400.846185 -38.121569 
L 397.022522 -37.952458 
L 393.198858 -37.986878 
L 389.375194 -38.216223 
L 385.55153 -38.597488 
L 381.727867 -39.061306 
L 377.904203 -39.52346 
L 374.080539 -39.898699 
L 370.256875 -40.115953 
L 366.433212 -40.132594 
L 362.609548 -39.943513 
L 358.785884 -39.581016 
L 354.96222 -39.104761 
L 351.138556 -38.58533 
L 347.314893 -38.087433 
L 343.491229 -37.657924 
L 339.667565 -37.320887 
L 335.843901 -37.079272 
L 332.020238 -36.920907 
L 328.196574 -36.826097 
L 324.37291 -36.774343 
L 320.549246 -36.748638 
L 316.725582 -36.737053 
L 312.901919 -36.732366 
L 309.078255 -36.73082 
L 305.254591 -36.730912 
L 301.430927 -36.732682 
L 297.607264 -36.73763 
L 293.7836 -36.74911 
L 289.959936 -36.772758 
L 286.136272 -36.816171 
L 282.312608 -36.8869 
L 278.488945 -36.988415 
L 274.665281 -37.115167 
L 270.841617 -37.249637 
L 267.017953 -37.364613 
L 263.19429 -37.431605 
L 259.370626 -37.432195 
L 255.546962 -37.366216 
L 251.723298 -37.251826 
L 247.899635 -37.117441 
L 244.075971 -36.990379 
L 240.252307 -36.888359 
L 236.428643 -36.81712 
L 232.604979 -36.773304 
L 228.781316 -36.749386 
L 224.957652 -36.737741 
L 221.133988 -36.732669 
L 217.310324 -36.730687 
L 213.486661 -36.729991 
L 209.662997 -36.729771 
L 205.839333 -36.729708 
L 202.015669 -36.729692 
L 198.192005 -36.729688 
L 194.368342 -36.729688 
L 190.544678 -36.729688 
L 186.721014 -36.729688 
L 182.89735 -36.729688 
L 179.073687 -36.729688 
L 175.250023 -36.729688 
L 171.426359 -36.729688 
L 167.602695 -36.729688 
L 163.779032 -36.729688 
L 159.955368 -36.729688 
L 156.131704 -36.729688 
L 152.30804 -36.729688 
L 148.484376 -36.729688 
L 144.660713 -36.729688 
L 140.837049 -36.729692 
L 137.013385 -36.729708 
L 133.189721 -36.729771 
L 129.366058 -36.729992 
L 125.542394 -36.730691 
L 121.71873 -36.73268 
L 117.895066 -36.73777 
L 114.071402 -36.749448 
L 110.247739 -36.773425 
L 106.424075 -36.81733 
L 102.600411 -36.888682 
L 98.776747 -36.990812 
L 94.953084 -37.117942 
L 91.12942 -37.252307 
L 87.305756 -37.366567 
L 83.482092 -37.432323 
L 79.658429 -37.431473 
L 75.834765 -37.364259 
L 72.011101 -37.249154 
L 68.187437 -37.114667 
L 64.363773 -36.987984 
L 60.54011 -36.886579 
L 56.716446 -36.815962 
L 52.892782 -36.772638 
L 49.069118 -36.749045 
L 45.245455 -36.737586 
z
" style="stroke: #4c72b0"/>
    </defs>
    <g>
     <use xlink:href="#m4a7965c4ed" x="0" y="265.689687" style="fill: #4c72b0; fill-opacity: 0.25; stroke: #4c72b0"/>
    </g>
   </g>
   <g id="line2d_37">
    <path d="M 290.672407 228.96 
L 290.672407 7.2 
" style="fill: none; stroke-dasharray: 2.96,1.28; stroke-dashoffset: 0; stroke: #d3d3d3; stroke-width: 0.8"/>
   </g>
   <g id="line2d_38">
    <path d="M 467.260724 228.96 
L 467.260724 7.2 
" style="fill: none; stroke-dasharray: 2.96,1.28; stroke-dashoffset: 0; stroke: #d3d3d3; stroke-width: 0.8"/>
   </g>
   <g id="line2d_39">
    <path d="M 392.150467 228.96 
L 392.150467 7.2 
" style="fill: none; stroke-dasharray: 2.96,1.28; stroke-dashoffset: 0; stroke: #d3d3d3; stroke-width: 0.8"/>
   </g>
   <g id="line2d_40">
    <path d="M 7.2 228.96 
L 844.2 228.96 
" style="fill: none; stroke: #808080; stroke-width: 0.5; stroke-linecap: round"/>
   </g>
   <g id="text_12">
    <text style="font-size: 8px; font-family: 'Arial', 'DejaVu Sans', 'Liberation Sans', 'Bitstream Vera Sans', sans-serif; fill: #808080" transform="translate(296.926157 124.59635) rotate(-90)">International Poverty Line: $3.00</text>
   </g>
   <g id="text_13">
    <text style="font-size: 8px; font-family: 'Arial', 'DejaVu Sans', 'Liberation Sans', 'Bitstream Vera Sans', sans-serif; fill: #808080" transform="translate(472.986974 81.31135) rotate(-90)">World mean: $21.69</text>
   </g>
   <g id="text_14">
    <text style="font-size: 8px; font-family: 'Arial', 'DejaVu Sans', 'Liberation Sans', 'Bitstream Vera Sans', sans-serif; fill: #808080" transform="translate(397.876717 83.08885) rotate(-90)">World median: $9.35</text>
   </g>
   <g id="legend_1">
    <g id="patch_3">
     <path d="M 683.8 102.227 
L 756.364063 102.227 
Q 758.364063 102.227 758.364063 100.227 
L 758.364063 58.552 
Q 758.364063 56.552 756.364063 56.552 
L 683.8 56.552 
Q 681.8 56.552 681.8 58.552 
L 681.8 100.227 
Q 681.8 102.227 683.8 102.227 
z
" style="fill: #ffffff; opacity: 0.8; stroke: #cccccc; stroke-linejoin: miter"/>
    </g>
    <g id="text_15">
     <text style="font-size: 10px; font-family: 'Arial', 'DejaVu Sans', 'Liberation Sans', 'Bitstream Vera Sans', sans-serif; text-anchor: start; fill: #262626" x="702.575781" y="67.831687" transform="rotate(-0 702.575781 67.831687)">Country</text>
    </g>
    <g id="patch_4">
     <path d="M 685.8 82.094187 
L 705.8 82.094187 
L 705.8 75.094187 
L 685.8 75.094187 
z
" style="fill: #4c72b0; fill-opacity: 0.25; stroke: #4c72b0; stroke-linejoin: miter"/>
    </g>
    <g id="text_16">
     <text style="font-size: 10px; font-family: 'Arial', 'DejaVu Sans', 'Liberation Sans', 'Bitstream Vera Sans', sans-serif; text-anchor: start; fill: #262626" x="713.8" y="82.094187" transform="rotate(-0 713.8 82.094187)">Denmark</text>
    </g>
    <g id="patch_5">
     <path d="M 685.8 96.2395 
L 705.8 96.2395 
L 705.8 89.2395 
L 685.8 89.2395 
z
" style="fill: #dd8452; fill-opacity: 0.25; stroke: #dd8452; stroke-linejoin: miter"/>
    </g>
    <g id="text_17">
     <text style="font-size: 10px; font-family: 'Arial', 'DejaVu Sans', 'Liberation Sans', 'Bitstream Vera Sans', sans-serif; text-anchor: start; fill: #262626" x="713.8" y="96.2395" transform="rotate(-0 713.8 96.2395)">Ethiopia</text>
    </g>
   </g>
  </g>
 </g>
</svg>
