<?xml version="1.0" encoding="utf-8" standalone="no"?>
<!DOCTYPE svg PUBLIC "-//W3C//DTD SVG 1.1//EN"
  "http://www.w3.org/Graphics/SVG/1.1/DTD/svg11.dtd">
<svg xmlns:xlink="http://www.w3.org/1999/xlink" width="865.302344pt" height="265.689687pt" viewBox="0 0 865.302344 265.689687" xmlns="http://www.w3.org/2000/svg" version="1.1">
 <metadata>
  <rdf:RDF xmlns:dc="http://purl.org/dc/elements/1.1/" xmlns:cc="http://creativecommons.org/ns#" xmlns:rdf="http://www.w3.org/1999/02/22-rdf-syntax-ns#">
   <cc:Work>
    <dc:type rdf:resource="http://purl.org/dc/dcmitype/StillImage"/>
    <dc:date>2026-01-02T17:38:46.633502</dc:date>
    <dc:format>image/svg+xml</dc:format>
    <dc:creator>
     <cc:Agent>
      <dc:title>Matplotlib v3.10.1, https://matplotlib.org/</dc:title>
     </cc:Agent>
    </dc:creator>
   </cc:Work>
  </rdf:RDF>
 </metadata>
 <defs>
  <style type="text/css">*{stroke-linejoin: round; stroke-linecap: butt}</style>
 </defs>
 <g id="figure_1">
  <g id="patch_1">
   <path d="M 0 265.689687 
L 865.302344 265.689687 
L 865.302344 0 
L 0 0 
z
" style="fill: #ffffff"/>
  </g>
  <g id="axes_1">
   <g id="patch_2">
    <path d="M 7.2 228.96 
L 844.2 228.96 
L 844.2 7.2 
L 7.2 7.2 
z
" style="fill: #ffffff"/>
   </g>
   <g id="matplotlib.axis_1">
    <g id="xtick_1">
     <g id="line2d_1">
      <defs>
       <path id="mdddd0d1aa2" d="M 0 0 
L 0 3.5 
" style="stroke: #262626; stroke-width: 0.8"/>
      </defs>
      <g>
       <use xlink:href="#mdddd0d1aa2" x="72.530965" y="228.96" style="fill: #262626; stroke: #262626; stroke-width: 0.8"/>
      </g>
     </g>
     <g id="text_1">
      <text style="font-size: 10px; font-family: 'Arial', 'DejaVu Sans', 'Liberation Sans', 'Bitstream Vera Sans', sans-serif; text-anchor: middle; fill: #262626" x="72.530965" y="243.117812" transform="rotate(-0 72.530965 243.117812)">$1</text>
     </g>
    </g>
    <g id="xtick_2">
     <g id="line2d_2">
      <g>
       <use xlink:href="#mdddd0d1aa2" x="149.962807" y="228.96" style="fill: #262626; stroke: #262626; stroke-width: 0.8"/>
      </g>
     </g>
     <g id="text_2">
      <text style="font-size: 10px; font-family: 'Arial', 'DejaVu Sans', 'Liberation Sans', 'Bitstream Vera Sans', sans-serif; text-anchor: middle; fill: #262626" x="149.962807" y="243.117812" transform="rotate(-0 149.962807 243.117812)">$2</text>
     </g>
    </g>
    <g id="xtick_3">
     <g id="line2d_3">
      <g>
       <use xlink:href="#mdddd0d1aa2" x="252.322135" y="228.96" style="fill: #262626; stroke: #262626; stroke-width: 0.8"/>
      </g>
     </g>
     <g id="text_3">
      <text style="font-size: 10px; font-family: 'Arial', 'DejaVu Sans', 'Liberation Sans', 'Bitstream Vera Sans', sans-serif; text-anchor: middle; fill: #262626" x="252.322135" y="243.117812" transform="rotate(-0 252.322135 243.117812)">$5</text>
     </g>
    </g>
    <g id="xtick_4">
     <g id="line2d_4">
      <g>
       <use xlink:href="#mdddd0d1aa2" x="329.753977" y="228.96" style="fill: #262626; stroke: #262626; stroke-width: 0.8"/>
      </g>
     </g>
     <g id="text_4">
      <text style="font-size: 10px; font-family: 'Arial', 'DejaVu Sans', 'Liberation Sans', 'Bitstream Vera Sans', sans-serif; text-anchor: middle; fill: #262626" x="329.753977" y="243.117812" transform="rotate(-0 329.753977 243.117812)">$10</text>
     </g>
    </g>
    <g id="xtick_5">
     <g id="line2d_5">
      <g>
       <use xlink:href="#mdddd0d1aa2" x="407.185819" y="228.96" style="fill: #262626; stroke: #262626; stroke-width: 0.8"/>
      </g>
     </g>
     <g id="text_5">
      <text style="font-size: 10px; font-family: 'Arial', 'DejaVu Sans', 'Liberation Sans', 'Bitstream Vera Sans', sans-serif; text-anchor: middle; fill: #262626" x="407.185819" y="243.117812" transform="rotate(-0 407.185819 243.117812)">$20</text>
     </g>
    </g>
    <g id="xtick_6">
     <g id="line2d_6">
      <g>
       <use xlink:href="#mdddd0d1aa2" x="509.545146" y="228.96" style="fill: #262626; stroke: #262626; stroke-width: 0.8"/>
      </g>
     </g>
     <g id="text_6">
      <text style="font-size: 10px; font-family: 'Arial', 'DejaVu Sans', 'Liberation Sans', 'Bitstream Vera Sans', sans-serif; text-anchor: middle; fill: #262626" x="509.545146" y="243.117812" transform="rotate(-0 509.545146 243.117812)">$50</text>
     </g>
    </g>
    <g id="xtick_7">
     <g id="line2d_7">
      <g>
       <use xlink:href="#mdddd0d1aa2" x="586.976988" y="228.96" style="fill: #262626; stroke: #262626; stroke-width: 0.8"/>
      </g>
     </g>
     <g id="text_7">
      <text style="font-size: 10px; font-family: 'Arial', 'DejaVu Sans', 'Liberation Sans', 'Bitstream Vera Sans', sans-serif; text-anchor: middle; fill: #262626" x="586.976988" y="243.117812" transform="rotate(-0 586.976988 243.117812)">$100</text>
     </g>
    </g>
    <g id="xtick_8">
     <g id="line2d_8">
      <g>
       <use xlink:href="#mdddd0d1aa2" x="664.40883" y="228.96" style="fill: #262626; stroke: #262626; stroke-width: 0.8"/>
      </g>
     </g>
     <g id="text_8">
      <text style="font-size: 10px; font-family: 'Arial', 'DejaVu Sans', 'Liberation Sans', 'Bitstream Vera Sans', sans-serif; text-anchor: middle; fill: #262626" x="664.40883" y="243.117812" transform="rotate(-0 664.40883 243.117812)">$200</text>
     </g>
    </g>
    <g id="xtick_9">
     <g id="line2d_9">
      <g>
       <use xlink:href="#mdddd0d1aa2" x="766.768158" y="228.96" style="fill: #262626; stroke: #262626; stroke-width: 0.8"/>
      </g>
     </g>
     <g id="text_9">
      <text style="font-size: 10px; font-family: 'Arial', 'DejaVu Sans', 'Liberation Sans', 'Bitstream Vera Sans', sans-serif; text-anchor: middle; fill: #262626" x="766.768158" y="243.117812" transform="rotate(-0 766.768158 243.117812)">$500</text>
     </g>
    </g>
    <g id="xtick_10">
     <g id="line2d_10">
      <g>
       <use xlink:href="#mdddd0d1aa2" x="844.2" y="228.96" style="fill: #262626; stroke: #262626; stroke-width: 0.8"/>
      </g>
     </g>
     <g id="text_10">
      <text style="font-size: 10px; font-family: 'Arial', 'DejaVu Sans', 'Liberation Sans', 'Bitstream Vera Sans', sans-serif; text-anchor: middle; fill: #262626" x="844.2" y="243.117812" transform="rotate(-0 844.2 243.117812)">$1000</text>
     </g>
    </g>
    <g id="xtick_11">
     <g id="line2d_11">
      <defs>
       <path id="mdbe90353ce" d="M 0 0 
L 0 2 
" style="stroke: #262626; stroke-width: 0.6"/>
      </defs>
      <g>
       <use xlink:href="#mdbe90353ce" x="15.466362" y="228.96" style="fill: #262626; stroke: #262626; stroke-width: 0.6"/>
      </g>
     </g>
    </g>
    <g id="xtick_12">
     <g id="line2d_12">
      <g>
       <use xlink:href="#mdbe90353ce" x="32.686616" y="228.96" style="fill: #262626; stroke: #262626; stroke-width: 0.6"/>
      </g>
     </g>
    </g>
    <g id="xtick_13">
     <g id="line2d_13">
      <g>
       <use xlink:href="#mdbe90353ce" x="47.60348" y="228.96" style="fill: #262626; stroke: #262626; stroke-width: 0.6"/>
      </g>
     </g>
    </g>
    <g id="xtick_14">
     <g id="line2d_14">
      <g>
       <use xlink:href="#mdbe90353ce" x="60.761086" y="228.96" style="fill: #262626; stroke: #262626; stroke-width: 0.6"/>
      </g>
     </g>
    </g>
    <g id="xtick_15">
     <g id="line2d_15">
      <g>
       <use xlink:href="#mdbe90353ce" x="195.257531" y="228.96" style="fill: #262626; stroke: #262626; stroke-width: 0.6"/>
      </g>
     </g>
    </g>
    <g id="xtick_16">
     <g id="line2d_16">
      <g>
       <use xlink:href="#mdbe90353ce" x="227.394649" y="228.96" style="fill: #262626; stroke: #262626; stroke-width: 0.6"/>
      </g>
     </g>
    </g>
    <g id="xtick_17">
     <g id="line2d_17">
      <g>
       <use xlink:href="#mdbe90353ce" x="272.689373" y="228.96" style="fill: #262626; stroke: #262626; stroke-width: 0.6"/>
      </g>
     </g>
    </g>
    <g id="xtick_18">
     <g id="line2d_18">
      <g>
       <use xlink:href="#mdbe90353ce" x="289.909628" y="228.96" style="fill: #262626; stroke: #262626; stroke-width: 0.6"/>
      </g>
     </g>
    </g>
    <g id="xtick_19">
     <g id="line2d_19">
      <g>
       <use xlink:href="#mdbe90353ce" x="304.826491" y="228.96" style="fill: #262626; stroke: #262626; stroke-width: 0.6"/>
      </g>
     </g>
    </g>
    <g id="xtick_20">
     <g id="line2d_20">
      <g>
       <use xlink:href="#mdbe90353ce" x="317.984097" y="228.96" style="fill: #262626; stroke: #262626; stroke-width: 0.6"/>
      </g>
     </g>
    </g>
    <g id="xtick_21">
     <g id="line2d_21">
      <g>
       <use xlink:href="#mdbe90353ce" x="452.480543" y="228.96" style="fill: #262626; stroke: #262626; stroke-width: 0.6"/>
      </g>
     </g>
    </g>
    <g id="xtick_22">
     <g id="line2d_22">
      <g>
       <use xlink:href="#mdbe90353ce" x="484.617661" y="228.96" style="fill: #262626; stroke: #262626; stroke-width: 0.6"/>
      </g>
     </g>
    </g>
    <g id="xtick_23">
     <g id="line2d_23">
      <g>
       <use xlink:href="#mdbe90353ce" x="529.912385" y="228.96" style="fill: #262626; stroke: #262626; stroke-width: 0.6"/>
      </g>
     </g>
    </g>
    <g id="xtick_24">
     <g id="line2d_24">
      <g>
       <use xlink:href="#mdbe90353ce" x="547.13264" y="228.96" style="fill: #262626; stroke: #262626; stroke-width: 0.6"/>
      </g>
     </g>
    </g>
    <g id="xtick_25">
     <g id="line2d_25">
      <g>
       <use xlink:href="#mdbe90353ce" x="562.049503" y="228.96" style="fill: #262626; stroke: #262626; stroke-width: 0.6"/>
      </g>
     </g>
    </g>
    <g id="xtick_26">
     <g id="line2d_26">
      <g>
       <use xlink:href="#mdbe90353ce" x="575.207109" y="228.96" style="fill: #262626; stroke: #262626; stroke-width: 0.6"/>
      </g>
     </g>
    </g>
    <g id="xtick_27">
     <g id="line2d_27">
      <g>
       <use xlink:href="#mdbe90353ce" x="709.703554" y="228.96" style="fill: #262626; stroke: #262626; stroke-width: 0.6"/>
      </g>
     </g>
    </g>
    <g id="xtick_28">
     <g id="line2d_28">
      <g>
       <use xlink:href="#mdbe90353ce" x="741.840673" y="228.96" style="fill: #262626; stroke: #262626; stroke-width: 0.6"/>
      </g>
     </g>
    </g>
    <g id="xtick_29">
     <g id="line2d_29">
      <g>
       <use xlink:href="#mdbe90353ce" x="787.135396" y="228.96" style="fill: #262626; stroke: #262626; stroke-width: 0.6"/>
      </g>
     </g>
    </g>
    <g id="xtick_30">
     <g id="line2d_30">
      <g>
       <use xlink:href="#mdbe90353ce" x="804.355651" y="228.96" style="fill: #262626; stroke: #262626; stroke-width: 0.6"/>
      </g>
     </g>
    </g>
    <g id="xtick_31">
     <g id="line2d_31">
      <g>
       <use xlink:href="#mdbe90353ce" x="819.272515" y="228.96" style="fill: #262626; stroke: #262626; stroke-width: 0.6"/>
      </g>
     </g>
    </g>
    <g id="xtick_32">
     <g id="line2d_32">
      <g>
       <use xlink:href="#mdbe90353ce" x="832.43012" y="228.96" style="fill: #262626; stroke: #262626; stroke-width: 0.6"/>
      </g>
     </g>
    </g>
    <g id="text_11">
     <text style="font-size: 10px; font-family: 'Arial', 'DejaVu Sans', 'Liberation Sans', 'Bitstream Vera Sans', sans-serif; text-anchor: middle; fill: #262626" x="425.7" y="256.385" transform="rotate(-0 425.7 256.385)">Income or consumption (day)</text>
    </g>
   </g>
   <g id="matplotlib.axis_2"/>
   <g id="FillBetweenPolyCollection_1">
    <defs>
     <path id="m9ed187c653" d="M 41.166877 -36.758819 
L 41.166877 -36.729688 
L 43.063069 -36.729688 
L 44.959261 -36.729688 
L 46.855454 -36.729688 
L 48.751646 -36.729688 
L 50.647838 -36.729688 
L 52.54403 -36.729688 
L 54.440223 -36.729688 
L 56.336415 -36.729688 
L 58.232607 -36.729688 
L 60.128799 -36.729688 
L 62.024992 -36.729688 
L 63.921184 -36.729688 
L 65.817376 -36.729688 
L 67.713568 -36.729688 
L 69.60976 -36.729688 
L 71.505953 -36.729688 
L 73.402145 -36.729688 
L 75.298337 -36.729688 
L 77.194529 -36.729688 
L 79.090722 -36.729688 
L 80.986914 -36.729688 
L 82.883106 -36.729688 
L 84.779298 -36.729688 
L 86.675491 -36.729688 
L 88.571683 -36.729688 
L 90.467875 -36.729688 
L 92.364067 -36.729688 
L 94.26026 -36.729688 
L 96.156452 -36.729688 
L 98.052644 -36.729688 
L 99.948836 -36.729688 
L 101.845029 -36.729688 
L 103.741221 -36.729688 
L 105.637413 -36.729688 
L 107.533605 -36.729688 
L 109.429798 -36.729688 
L 111.32599 -36.729688 
L 113.222182 -36.729688 
L 115.118374 -36.729688 
L 117.014567 -36.729688 
L 118.910759 -36.729688 
L 120.806951 -36.729688 
L 122.703143 -36.729688 
L 124.599336 -36.729688 
L 126.495528 -36.729688 
L 128.39172 -36.729688 
L 130.287912 -36.729688 
L 132.184104 -36.729688 
L 134.080297 -36.729688 
L 135.976489 -36.729688 
L 137.872681 -36.729688 
L 139.768873 -36.729688 
L 141.665066 -36.729688 
L 143.561258 -36.729688 
L 145.45745 -36.729688 
L 147.353642 -36.729688 
L 149.249835 -36.729688 
L 151.146027 -36.729688 
L 153.042219 -36.729688 
L 154.938411 -36.729688 
L 156.834604 -36.729688 
L 158.730796 -36.729688 
L 160.626988 -36.729688 
L 162.52318 -36.729688 
L 164.419373 -36.729688 
L 166.315565 -36.729688 
L 168.211757 -36.729688 
L 170.107949 -36.729688 
L 172.004142 -36.729688 
L 173.900334 -36.729688 
L 175.796526 -36.729688 
L 177.692718 -36.729688 
L 179.588911 -36.729688 
L 181.485103 -36.729688 
L 183.381295 -36.729688 
L 185.277487 -36.729688 
L 187.17368 -36.729688 
L 189.069872 -36.729688 
L 190.966064 -36.729688 
L 192.862256 -36.729688 
L 194.758448 -36.729688 
L 196.654641 -36.729688 
L 198.550833 -36.729688 
L 200.447025 -36.729688 
L 202.343217 -36.729688 
L 204.23941 -36.729688 
L 206.135602 -36.729688 
L 208.031794 -36.729688 
L 209.927986 -36.729688 
L 211.824179 -36.729688 
L 213.720371 -36.729688 
L 215.616563 -36.729688 
L 217.512755 -36.729688 
L 219.408948 -36.729688 
L 221.30514 -36.729688 
L 223.201332 -36.729688 
L 225.097524 -36.729688 
L 226.993717 -36.729688 
L 228.889909 -36.729688 
L 230.786101 -36.729688 
L 232.682293 -36.729688 
L 234.578486 -36.729688 
L 236.474678 -36.729688 
L 238.37087 -36.729688 
L 240.267062 -36.729688 
L 242.163255 -36.729688 
L 244.059447 -36.729688 
L 245.955639 -36.729688 
L 247.851831 -36.729688 
L 249.748023 -36.729688 
L 251.644216 -36.729688 
L 253.540408 -36.729688 
L 255.4366 -36.729688 
L 257.332792 -36.729688 
L 259.228985 -36.729688 
L 261.125177 -36.729688 
L 263.021369 -36.729688 
L 264.917561 -36.729688 
L 266.813754 -36.729688 
L 268.709946 -36.729688 
L 270.606138 -36.729688 
L 272.50233 -36.729688 
L 274.398523 -36.729688 
L 276.294715 -36.729688 
L 278.190907 -36.729688 
L 280.087099 -36.729688 
L 281.983292 -36.729688 
L 283.879484 -36.729688 
L 285.775676 -36.729688 
L 287.671868 -36.729688 
L 289.568061 -36.729688 
L 291.464253 -36.729688 
L 293.360445 -36.729688 
L 295.256637 -36.729688 
L 297.15283 -36.729688 
L 299.049022 -36.729688 
L 300.945214 -36.729688 
L 302.841406 -36.729688 
L 304.737599 -36.729688 
L 306.633791 -36.729688 
L 308.529983 -36.729688 
L 310.426175 -36.729688 
L 312.322367 -36.729688 
L 314.21856 -36.729688 
L 316.114752 -36.729688 
L 318.010944 -36.729688 
L 319.907136 -36.729688 
L 321.803329 -36.729688 
L 323.699521 -36.729688 
L 325.595713 -36.729688 
L 327.491905 -36.729688 
L 329.388098 -36.729688 
L 331.28429 -36.729688 
L 333.180482 -36.729688 
L 335.076674 -36.729688 
L 336.972867 -36.729688 
L 338.869059 -36.729688 
L 340.765251 -36.729688 
L 342.661443 -36.729688 
L 344.557636 -36.729688 
L 346.453828 -36.729688 
L 348.35002 -36.729688 
L 350.246212 -36.729688 
L 352.142405 -36.729688 
L 354.038597 -36.729688 
L 355.934789 -36.729688 
L 357.830981 -36.729688 
L 359.727174 -36.729688 
L 361.623366 -36.729688 
L 363.519558 -36.729688 
L 365.41575 -36.729688 
L 367.311942 -36.729688 
L 369.208135 -36.729688 
L 371.104327 -36.729688 
L 373.000519 -36.729688 
L 374.896711 -36.729688 
L 376.792904 -36.729688 
L 378.689096 -36.729688 
L 380.585288 -36.729688 
L 382.48148 -36.729688 
L 384.377673 -36.729688 
L 386.273865 -36.729688 
L 388.170057 -36.729688 
L 390.066249 -36.729688 
L 391.962442 -36.729688 
L 393.858634 -36.729688 
L 395.754826 -36.729688 
L 397.651018 -36.729688 
L 399.547211 -36.729688 
L 401.443403 -36.729688 
L 403.339595 -36.729688 
L 405.235787 -36.729688 
L 407.13198 -36.729688 
L 409.028172 -36.729688 
L 410.924364 -36.729688 
L 412.820556 -36.729688 
L 414.716749 -36.729688 
L 416.612941 -36.729688 
L 418.509133 -36.729688 
L 418.509133 -36.743248 
L 418.509133 -36.743248 
L 416.612941 -36.750415 
L 414.716749 -36.760827 
L 412.820556 -36.775674 
L 410.924364 -36.796449 
L 409.028172 -36.824983 
L 407.13198 -36.863442 
L 405.235787 -36.914316 
L 403.339595 -36.980364 
L 401.443403 -37.06452 
L 399.547211 -37.169762 
L 397.651018 -37.298941 
L 395.754826 -37.454586 
L 393.858634 -37.638687 
L 391.962442 -37.852504 
L 390.066249 -38.096393 
L 388.170057 -38.369703 
L 386.273865 -38.670757 
L 384.377673 -38.996924 
L 382.48148 -39.344811 
L 380.585288 -39.710532 
L 378.689096 -40.090074 
L 376.792904 -40.479689 
L 374.896711 -40.876289 
L 373.000519 -41.277793 
L 371.104327 -41.68338 
L 369.208135 -42.093615 
L 367.311942 -42.510428 
L 365.41575 -42.936944 
L 363.519558 -43.377188 
L 361.623366 -43.835694 
L 359.727174 -44.317063 
L 357.830981 -44.825533 
L 355.934789 -45.364603 
L 354.038597 -45.936753 
L 352.142405 -46.543285 
L 350.246212 -47.184303 
L 348.35002 -47.858809 
L 346.453828 -48.564906 
L 344.557636 -49.300059 
L 342.661443 -50.061394 
L 340.765251 -50.845989 
L 338.869059 -51.651128 
L 336.972867 -52.4745 
L 335.076674 -53.314332 
L 333.180482 -54.169454 
L 331.28429 -55.039307 
L 329.388098 -55.923885 
L 327.491905 -56.823651 
L 325.595713 -57.739411 
L 323.699521 -58.672172 
L 321.803329 -59.623001 
L 319.907136 -60.592886 
L 318.010944 -61.58262 
L 316.114752 -62.592727 
L 314.21856 -63.623443 
L 312.322367 -64.67476 
L 310.426175 -65.746552 
L 308.529983 -66.838762 
L 306.633791 -67.951664 
L 304.737599 -69.086148 
L 302.841406 -70.244029 
L 300.945214 -71.428307 
L 299.049022 -72.643364 
L 297.15283 -73.895039 
L 295.256637 -75.190558 
L 293.360445 -76.538292 
L 291.464253 -77.947352 
L 289.568061 -79.427023 
L 287.671868 -80.986096 
L 285.775676 -82.63214 
L 283.879484 -84.370801 
L 281.983292 -86.205196 
L 280.087099 -88.135489 
L 278.190907 -90.158695 
L 276.294715 -92.268755 
L 274.398523 -94.456896 
L 272.50233 -96.712233 
L 270.606138 -99.022568 
L 268.709946 -101.37531 
L 266.813754 -103.758426 
L 264.917561 -106.161337 
L 263.021369 -108.575692 
L 261.125177 -110.995964 
L 259.228985 -113.419841 
L 257.332792 -115.848409 
L 255.4366 -118.286132 
L 253.540408 -120.740654 
L 251.644216 -123.222437 
L 249.748023 -125.744267 
L 247.851831 -128.320637 
L 245.955639 -130.967029 
L 244.059447 -133.699113 
L 242.163255 -136.531905 
L 240.267062 -139.478913 
L 238.37087 -142.551336 
L 236.474678 -145.757369 
L 234.578486 -149.101669 
L 232.682293 -152.585023 
L 230.786101 -156.204228 
L 228.889909 -159.952163 
L 226.993717 -163.818 
L 225.097524 -167.787479 
L 223.201332 -171.843164 
L 221.30514 -175.964595 
L 219.408948 -180.12831 
L 217.512755 -184.307735 
L 215.616563 -188.473002 
L 213.720371 -192.590803 
L 211.824179 -196.62444 
L 209.927986 -200.534191 
L 208.031794 -204.278138 
L 206.135602 -207.813499 
L 204.23941 -211.098432 
L 202.343217 -214.094204 
L 200.447025 -216.767494 
L 198.550833 -219.092578 
L 196.654641 -221.05308 
L 194.758448 -222.64305 
L 192.862256 -223.867151 
L 190.966064 -224.739896 
L 189.069872 -225.283965 
L 187.17368 -225.527798 
L 185.277487 -225.502737 
L 183.381295 -225.240068 
L 181.485103 -224.768318 
L 179.588911 -224.111113 
L 177.692718 -223.285826 
L 175.796526 -222.303087 
L 173.900334 -221.167133 
L 172.004142 -219.876834 
L 170.107949 -218.427148 
L 168.211757 -216.810748 
L 166.315565 -215.019555 
L 164.419373 -213.045974 
L 162.52318 -210.883743 
L 160.626988 -208.528376 
L 158.730796 -205.977269 
L 156.834604 -203.229611 
L 154.938411 -200.286229 
L 153.042219 -197.14951 
L 151.146027 -193.823454 
L 149.249835 -190.313881 
L 147.353642 -186.628726 
L 145.45745 -182.77833 
L 143.561258 -178.775603 
L 141.665066 -174.635968 
L 139.768873 -170.377005 
L 137.872681 -166.017824 
L 135.976489 -161.5782 
L 134.080297 -157.077605 
L 132.184104 -152.534279 
L 130.287912 -147.964487 
L 128.39172 -143.382078 
L 126.495528 -138.798429 
L 124.599336 -134.222758 
L 122.703143 -129.662757 
L 120.806951 -125.125402 
L 118.910759 -120.617802 
L 117.014567 -116.147909 
L 115.118374 -111.724973 
L 113.222182 -107.359639 
L 111.32599 -103.063689 
L 109.429798 -98.849485 
L 107.533605 -94.72921 
L 105.637413 -90.714083 
L 103.741221 -86.813687 
L 101.845029 -83.035546 
L 99.948836 -79.385036 
L 98.052644 -75.865641 
L 96.156452 -72.47951 
L 94.26026 -69.228208 
L 92.364067 -66.113518 
L 90.467875 -63.138139 
L 88.571683 -60.306167 
L 86.675491 -57.62325 
L 84.779298 -55.096395 
L 82.883106 -52.73345 
L 80.986914 -50.542334 
L 79.090722 -48.530131 
L 77.194529 -46.702179 
L 75.298337 -45.06127 
L 73.402145 -43.607073 
L 71.505953 -42.335834 
L 69.60976 -41.24038 
L 67.713568 -40.310414 
L 65.817376 -39.533039 
L 63.921184 -38.893441 
L 62.024992 -38.375661 
L 60.128799 -37.963352 
L 58.232607 -37.640475 
L 56.336415 -37.391874 
L 54.440223 -37.203706 
L 52.54403 -37.063711 
L 50.647838 -36.961348 
L 48.751646 -36.887793 
L 46.855454 -36.835857 
L 44.959261 -36.799826 
L 43.063069 -36.775266 
L 41.166877 -36.758819 
z
" style="stroke: #dd8452"/>
    </defs>
    <g>
     <use xlink:href="#m9ed187c653" x="0" y="265.689687" style="fill: #dd8452; fill-opacity: 0.25; stroke: #dd8452"/>
    </g>
   </g>
   <g id="FillBetweenPolyCollection_2">
    <defs>
     <path id="maee6cb6af4" d="M 343.996465 -36.74097 
L 343.996465 -36.729688 
L 345.888464 -36.729688 
L 347.780464 -36.729688 
L 349.672464 -36.729688 
L 351.564464 -36.729688 
L 353.456463 -36.729688 
L 355.348463 -36.729688 
L 357.240463 -36.729688 
L 359.132463 -36.729688 
L 361.024462 -36.729688 
L 362.916462 -36.729688 
L 364.808462 -36.729688 
L 366.700462 -36.729688 
L 368.592461 -36.729688 
L 370.484461 -36.729688 
L 372.376461 -36.729688 
L 374.268461 -36.729688 
L 376.16046 -36.729688 
L 378.05246 -36.729688 
L 379.94446 -36.729688 
L 381.83646 -36.729688 
L 383.728459 -36.729688 
L 385.620459 -36.729688 
L 387.512459 -36.729688 
L 389.404459 -36.729688 
L 391.296458 -36.729688 
L 393.188458 -36.729688 
L 395.080458 -36.729688 
L 396.972457 -36.729688 
L 398.864457 -36.729688 
L 400.756457 -36.729688 
L 402.648457 -36.729688 
L 404.540456 -36.729688 
L 406.432456 -36.729688 
L 408.324456 -36.729688 
L 410.216456 -36.729688 
L 412.108455 -36.729688 
L 414.000455 -36.729688 
L 415.892455 -36.729688 
L 417.784455 -36.729688 
L 419.676454 -36.729688 
L 421.568454 -36.729688 
L 423.460454 -36.729688 
L 425.352454 -36.729688 
L 427.244453 -36.729688 
L 429.136453 -36.729688 
L 431.028453 -36.729688 
L 432.920453 -36.729688 
L 434.812452 -36.729688 
L 436.704452 -36.729688 
L 438.596452 -36.729688 
L 440.488452 -36.729688 
L 442.380451 -36.729688 
L 444.272451 -36.729688 
L 446.164451 -36.729688 
L 448.056451 -36.729688 
L 449.94845 -36.729688 
L 451.84045 -36.729688 
L 453.73245 -36.729688 
L 455.62445 -36.729688 
L 457.516449 -36.729688 
L 459.408449 -36.729688 
L 461.300449 -36.729688 
L 463.192449 -36.729688 
L 465.084448 -36.729688 
L 466.976448 -36.729688 
L 468.868448 -36.729688 
L 470.760448 -36.729688 
L 472.652447 -36.729688 
L 474.544447 -36.729688 
L 476.436447 -36.729688 
L 478.328447 -36.729688 
L 480.220446 -36.729688 
L 482.112446 -36.729688 
L 484.004446 -36.729688 
L 485.896446 -36.729688 
L 487.788445 -36.729688 
L 489.680445 -36.729688 
L 491.572445 -36.729688 
L 493.464445 -36.729688 
L 495.356444 -36.729688 
L 497.248444 -36.729688 
L 499.140444 -36.729688 
L 501.032444 -36.729688 
L 502.924443 -36.729688 
L 504.816443 -36.729688 
L 506.708443 -36.729688 
L 508.600443 -36.729688 
L 510.492442 -36.729688 
L 512.384442 -36.729688 
L 514.276442 -36.729688 
L 516.168442 -36.729688 
L 518.060441 -36.729688 
L 519.952441 -36.729688 
L 521.844441 -36.729688 
L 523.736441 -36.729688 
L 525.62844 -36.729688 
L 527.52044 -36.729688 
L 529.41244 -36.729688 
L 531.30444 -36.729688 
L 533.196439 -36.729688 
L 535.088439 -36.729688 
L 536.980439 -36.729688 
L 538.872439 -36.729688 
L 540.764438 -36.729688 
L 542.656438 -36.729688 
L 544.548438 -36.729688 
L 546.440437 -36.729688 
L 548.332437 -36.729688 
L 550.224437 -36.729688 
L 552.116437 -36.729688 
L 554.008436 -36.729688 
L 555.900436 -36.729688 
L 557.792436 -36.729688 
L 559.684436 -36.729688 
L 561.576435 -36.729688 
L 563.468435 -36.729688 
L 565.360435 -36.729688 
L 567.252435 -36.729688 
L 569.144434 -36.729688 
L 571.036434 -36.729688 
L 572.928434 -36.729688 
L 574.820434 -36.729688 
L 576.712433 -36.729688 
L 578.604433 -36.729688 
L 580.496433 -36.729688 
L 582.388433 -36.729688 
L 584.280432 -36.729688 
L 586.172432 -36.729688 
L 588.064432 -36.729688 
L 589.956432 -36.729688 
L 591.848431 -36.729688 
L 593.740431 -36.729688 
L 595.632431 -36.729688 
L 597.524431 -36.729688 
L 599.41643 -36.729688 
L 601.30843 -36.729688 
L 603.20043 -36.729688 
L 605.09243 -36.729688 
L 606.984429 -36.729688 
L 608.876429 -36.729688 
L 610.768429 -36.729688 
L 612.660429 -36.729688 
L 614.552428 -36.729688 
L 616.444428 -36.729688 
L 618.336428 -36.729688 
L 620.228428 -36.729688 
L 622.120427 -36.729688 
L 624.012427 -36.729688 
L 625.904427 -36.729688 
L 627.796427 -36.729688 
L 629.688426 -36.729688 
L 631.580426 -36.729688 
L 633.472426 -36.729688 
L 635.364426 -36.729688 
L 637.256425 -36.729688 
L 639.148425 -36.729688 
L 641.040425 -36.729688 
L 642.932425 -36.729688 
L 644.824424 -36.729688 
L 646.716424 -36.729688 
L 648.608424 -36.729688 
L 650.500424 -36.729688 
L 652.392423 -36.729688 
L 654.284423 -36.729688 
L 656.176423 -36.729688 
L 658.068423 -36.729688 
L 659.960422 -36.729688 
L 661.852422 -36.729688 
L 663.744422 -36.729688 
L 665.636422 -36.729688 
L 667.528421 -36.729688 
L 669.420421 -36.729688 
L 671.312421 -36.729688 
L 673.204421 -36.729688 
L 675.09642 -36.729688 
L 676.98842 -36.729688 
L 678.88042 -36.729688 
L 680.77242 -36.729688 
L 682.664419 -36.729688 
L 684.556419 -36.729688 
L 686.448419 -36.729688 
L 688.340419 -36.729688 
L 690.232418 -36.729688 
L 692.124418 -36.729688 
L 694.016418 -36.729688 
L 695.908417 -36.729688 
L 697.800417 -36.729688 
L 699.692417 -36.729688 
L 701.584417 -36.729688 
L 703.476416 -36.729688 
L 705.368416 -36.729688 
L 707.260416 -36.729688 
L 709.152416 -36.729688 
L 711.044415 -36.729688 
L 712.936415 -36.729688 
L 714.828415 -36.729688 
L 716.720415 -36.729688 
L 718.612414 -36.729688 
L 720.504414 -36.729688 
L 720.504414 -36.74309 
L 720.504414 -36.74309 
L 718.612414 -36.751197 
L 716.720415 -36.763462 
L 714.828415 -36.781586 
L 712.936415 -36.807748 
L 711.044415 -36.844645 
L 709.152416 -36.895497 
L 707.260416 -36.963999 
L 705.368416 -37.054221 
L 703.476416 -37.170443 
L 701.584417 -37.316936 
L 699.692417 -37.497706 
L 697.800417 -37.716221 
L 695.908417 -37.975162 
L 694.016418 -38.276225 
L 692.124418 -38.619998 
L 690.232418 -39.005944 
L 688.340419 -39.43248 
L 686.448419 -39.897136 
L 684.556419 -40.396775 
L 682.664419 -40.927847 
L 680.77242 -41.486618 
L 678.88042 -42.069389 
L 676.98842 -42.672665 
L 675.09642 -43.293305 
L 673.204421 -43.928658 
L 671.312421 -44.576714 
L 669.420421 -45.236276 
L 667.528421 -45.907179 
L 665.636422 -46.590516 
L 663.744422 -47.288865 
L 661.852422 -48.006481 
L 659.960422 -48.749409 
L 658.068423 -49.525518 
L 656.176423 -50.344422 
L 654.284423 -51.217322 
L 652.392423 -52.156776 
L 650.500424 -53.176415 
L 648.608424 -54.290628 
L 646.716424 -55.514223 
L 644.824424 -56.86204 
L 642.932425 -58.348532 
L 641.040425 -59.987276 
L 639.148425 -61.79044 
L 637.256425 -63.768229 
L 635.364426 -65.928349 
L 633.472426 -68.275558 
L 631.580426 -70.811358 
L 629.688426 -73.533883 
L 627.796427 -76.437992 
L 625.904427 -79.515546 
L 624.012427 -82.755818 
L 622.120427 -86.145952 
L 620.228428 -89.671384 
L 618.336428 -93.316166 
L 616.444428 -97.063161 
L 614.552428 -100.894141 
L 612.660429 -104.789864 
L 610.768429 -108.730251 
L 608.876429 -112.694776 
L 606.984429 -116.663161 
L 605.09243 -120.616401 
L 603.20043 -124.538035 
L 601.30843 -128.415511 
L 599.41643 -132.241387 
L 597.524431 -136.014131 
L 595.632431 -139.738283 
L 593.740431 -143.423875 
L 591.848431 -147.085148 
L 589.956432 -150.738766 
L 588.064432 -154.401835 
L 586.172432 -158.090104 
L 584.280432 -161.816653 
L 582.388433 -165.591251 
L 580.496433 -169.420349 
L 578.604433 -173.307503 
L 576.712433 -177.253854 
L 574.820434 -181.258298 
L 572.928434 -185.317064 
L 571.036434 -189.422641 
L 569.144434 -193.562244 
L 567.252435 -197.716265 
L 565.360435 -201.857252 
L 563.468435 -205.949968 
L 561.576435 -209.952864 
L 559.684436 -213.821009 
L 557.792436 -217.510154 
L 555.900436 -220.981301 
L 554.008436 -224.204981 
L 552.116437 -227.164417 
L 550.224437 -229.856958 
L 548.332437 -232.293476 
L 546.440437 -234.495802 
L 544.548438 -236.492618 
L 542.656438 -238.314493 
L 540.764438 -239.988818 
L 538.872439 -241.535361 
L 536.980439 -242.962952 
L 535.088439 -244.267564 
L 533.196439 -245.431794 
L 531.30444 -246.425542 
L 529.41244 -247.207595 
L 527.52044 -247.727814 
L 525.62844 -247.929688 
L 523.736441 -247.753143 
L 521.844441 -247.137585 
L 519.952441 -246.025168 
L 518.060441 -244.364286 
L 516.168442 -242.113153 
L 514.276442 -239.243231 
L 512.384442 -235.74214 
L 510.492442 -231.615664 
L 508.600443 -226.888495 
L 506.708443 -221.603515 
L 504.816443 -215.819629 
L 502.924443 -209.608373 
L 501.032444 -203.049741 
L 499.140444 -196.227754 
L 497.248444 -189.226331 
L 495.356444 -182.125872 
L 493.464445 -175.000848 
L 491.572445 -167.918419 
L 489.680445 -160.937977 
L 487.788445 -154.11134 
L 485.896446 -147.483271 
L 484.004446 -141.092054 
L 482.112446 -134.969878 
L 480.220446 -129.142968 
L 478.328447 -123.631457 
L 476.436447 -118.449135 
L 474.544447 -113.603235 
L 472.652447 -109.094452 
L 470.760448 -104.917318 
L 468.868448 -101.061 
L 466.976448 -97.510477 
L 465.084448 -94.247949 
L 463.192449 -91.254264 
L 461.300449 -88.510126 
L 459.408449 -85.996846 
L 457.516449 -83.69653 
L 455.62445 -81.59167 
L 453.73245 -79.664284 
L 451.84045 -77.894854 
L 449.94845 -76.261382 
L 448.056451 -74.738893 
L 446.164451 -73.299626 
L 444.272451 -71.914023 
L 442.380451 -70.552434 
L 440.488452 -69.187321 
L 438.596452 -67.795583 
L 436.704452 -66.36061 
L 434.812452 -64.873703 
L 432.920453 -63.334608 
L 431.028453 -61.751073 
L 429.136453 -60.137521 
L 427.244453 -58.513075 
L 425.352454 -56.899245 
L 423.460454 -55.31765 
L 421.568454 -53.788058 
L 419.676454 -52.326975 
L 417.784455 -50.94687 
L 415.892455 -49.65602 
L 414.000455 -48.458855 
L 412.108455 -47.356634 
L 410.216456 -46.348254 
L 408.324456 -45.431028 
L 406.432456 -44.601299 
L 404.540456 -43.854827 
L 402.648457 -43.186947 
L 400.756457 -42.592544 
L 398.864457 -42.06592 
L 396.972457 -41.600661 
L 395.080458 -41.189576 
L 393.188458 -40.824782 
L 391.296458 -40.497942 
L 389.404459 -40.200666 
L 387.512459 -39.925001 
L 385.620459 -39.663949 
L 383.728459 -39.411931 
L 381.83646 -39.165121 
L 379.94446 -38.921587 
L 378.05246 -38.681232 
L 376.16046 -38.445532 
L 374.268461 -38.217124 
L 372.376461 -37.999297 
L 370.484461 -37.795473 
L 368.592461 -37.608732 
L 366.700462 -37.441449 
L 364.808462 -37.295066 
L 362.916462 -37.170011 
L 361.024462 -37.06575 
L 359.132463 -36.980936 
L 357.240463 -36.913624 
L 355.348463 -36.861509 
L 353.456463 -36.822146 
L 351.564464 -36.79314 
L 349.672464 -36.772288 
L 347.780464 -36.757663 
L 345.888464 -36.747654 
L 343.996465 -36.74097 
z
" style="stroke: #4c72b0"/>
    </defs>
    <g>
     <use xlink:href="#maee6cb6af4" x="0" y="265.689687" style="fill: #4c72b0; fill-opacity: 0.25; stroke: #4c72b0"/>
    </g>
   </g>
   <g id="line2d_33">
    <path d="M 195.257531 228.96 
L 195.257531 7.2 
" style="fill: none; stroke-dasharray: 2.96,1.28; stroke-dashoffset: 0; stroke: #d3d3d3; stroke-width: 0.8"/>
   </g>
   <g id="line2d_34">
    <path d="M 417.07853 228.96 
L 417.07853 7.2 
" style="fill: none; stroke-dasharray: 2.96,1.28; stroke-dashoffset: 0; stroke: #d3d3d3; stroke-width: 0.8"/>
   </g>
   <g id="line2d_35">
    <path d="M 322.246056 228.96 
L 322.246056 7.2 
" style="fill: none; stroke-dasharray: 2.96,1.28; stroke-dashoffset: 0; stroke: #d3d3d3; stroke-width: 0.8"/>
   </g>
   <g id="line2d_36">
    <path d="M 7.2 228.96 
L 844.2 228.96 
" style="fill: none; stroke: #808080; stroke-width: 0.5; stroke-linecap: round"/>
   </g>
   <g id="text_12">
    <text style="font-size: 8px; font-family: 'Arial', 'DejaVu Sans', 'Liberation Sans', 'Bitstream Vera Sans', sans-serif; fill: #808080" transform="translate(201.511281 124.59635) rotate(-90)">International Poverty Line: $3.00</text>
   </g>
   <g id="text_13">
    <text style="font-size: 8px; font-family: 'Arial', 'DejaVu Sans', 'Liberation Sans', 'Bitstream Vera Sans', sans-serif; fill: #808080" transform="translate(422.80478 81.31135) rotate(-90)">World mean: $21.85</text>
   </g>
   <g id="text_14">
    <text style="font-size: 8px; font-family: 'Arial', 'DejaVu Sans', 'Liberation Sans', 'Bitstream Vera Sans', sans-serif; fill: #808080" transform="translate(327.972306 83.08885) rotate(-90)">World median: $9.35</text>
   </g>
   <g id="legend_1">
    <g id="patch_3">
     <path d="M 683.8 102.344187 
L 756.364063 102.344187 
Q 758.364063 102.344187 758.364063 100.344187 
L 758.364063 58.552 
Q 758.364063 56.552 756.364063 56.552 
L 683.8 56.552 
Q 681.8 56.552 681.8 58.552 
L 681.8 100.344187 
Q 681.8 102.344187 683.8 102.344187 
z
" style="fill: #ffffff; opacity: 0.8; stroke: #cccccc; stroke-linejoin: miter"/>
    </g>
    <g id="text_15">
     <text style="font-size: 10px; font-family: 'Arial', 'DejaVu Sans', 'Liberation Sans', 'Bitstream Vera Sans', sans-serif; text-anchor: start; fill: #262626" x="702.575781" y="67.831687" transform="rotate(-0 702.575781 67.831687)">Country</text>
    </g>
    <g id="patch_4">
     <path d="M 685.8 82.094187 
L 705.8 82.094187 
L 705.8 75.094187 
L 685.8 75.094187 
z
" style="fill: #4c72b0; fill-opacity: 0.25; stroke: #4c72b0; stroke-linejoin: miter"/>
    </g>
    <g id="text_16">
     <text style="font-size: 10px; font-family: 'Arial', 'DejaVu Sans', 'Liberation Sans', 'Bitstream Vera Sans', sans-serif; text-anchor: start; fill: #262626" x="713.8" y="82.094187" transform="rotate(-0 713.8 82.094187)">Denmark</text>
    </g>
    <g id="patch_5">
     <path d="M 685.8 96.2395 
L 705.8 96.2395 
L 705.8 89.2395 
L 685.8 89.2395 
z
" style="fill: #dd8452; fill-opacity: 0.25; stroke: #dd8452; stroke-linejoin: miter"/>
    </g>
    <g id="text_17">
     <text style="font-size: 10px; font-family: 'Arial', 'DejaVu Sans', 'Liberation Sans', 'Bitstream Vera Sans', sans-serif; text-anchor: start; fill: #262626" x="713.8" y="96.2395" transform="rotate(-0 713.8 96.2395)">Niger</text>
    </g>
   </g>
  </g>
 </g>
</svg>
