<?xml version="1.0" encoding="utf-8" standalone="no"?>
<!DOCTYPE svg PUBLIC "-//W3C//DTD SVG 1.1//EN"
  "http://www.w3.org/Graphics/SVG/1.1/DTD/svg11.dtd">
<svg xmlns:xlink="http://www.w3.org/1999/xlink" width="865.302344pt" height="265.689687pt" viewBox="0 0 865.302344 265.689687" xmlns="http://www.w3.org/2000/svg" version="1.1">
 <metadata>
  <rdf:RDF xmlns:dc="http://purl.org/dc/elements/1.1/" xmlns:cc="http://creativecommons.org/ns#" xmlns:rdf="http://www.w3.org/1999/02/22-rdf-syntax-ns#">
   <cc:Work>
    <dc:type rdf:resource="http://purl.org/dc/dcmitype/StillImage"/>
    <dc:date>2026-05-22T12:42:20.516401</dc:date>
    <dc:format>image/svg+xml</dc:format>
    <dc:creator>
     <cc:Agent>
      <dc:title>Matplotlib v3.10.9, https://matplotlib.org/</dc:title>
     </cc:Agent>
    </dc:creator>
   </cc:Work>
  </rdf:RDF>
 </metadata>
 <defs>
  <style type="text/css">*{stroke-linejoin: round; stroke-linecap: butt}</style>
 </defs>
 <g id="figure_1">
  <g id="patch_1">
   <path d="M 0 265.689687 
L 865.302344 265.689687 
L 865.302344 0 
L 0 0 
z
" style="fill: #ffffff"/>
  </g>
  <g id="axes_1">
   <g id="patch_2">
    <path d="M 7.2 228.96 
L 844.2 228.96 
L 844.2 7.2 
L 7.2 7.2 
z
" style="fill: #ffffff"/>
   </g>
   <g id="matplotlib.axis_1">
    <g id="xtick_1">
     <g id="line2d_1">
      <defs>
       <path id="mb5ac42b1b1" d="M 0 0 
L 0 3.5 
" style="stroke: #262626; stroke-width: 0.8"/>
      </defs>
      <g>
       <use xlink:href="#mb5ac42b1b1" x="61.933393" y="228.96" style="fill: #262626; stroke: #262626; stroke-width: 0.8"/>
      </g>
     </g>
     <g id="text_1">
      <text style="font-size: 10px; font-family: 'Arial', 'DejaVu Sans', 'Liberation Sans', 'Bitstream Vera Sans', sans-serif; text-anchor: middle; fill: #262626" x="61.933393" y="243.117812" transform="rotate(-0 61.933393 243.117812)">$1</text>
     </g>
    </g>
    <g id="xtick_2">
     <g id="line2d_2">
      <g>
       <use xlink:href="#mb5ac42b1b1" x="140.428631" y="228.96" style="fill: #262626; stroke: #262626; stroke-width: 0.8"/>
      </g>
     </g>
     <g id="text_2">
      <text style="font-size: 10px; font-family: 'Arial', 'DejaVu Sans', 'Liberation Sans', 'Bitstream Vera Sans', sans-serif; text-anchor: middle; fill: #262626" x="140.428631" y="243.117812" transform="rotate(-0 140.428631 243.117812)">$2</text>
     </g>
    </g>
    <g id="xtick_3">
     <g id="line2d_3">
      <g>
       <use xlink:href="#mb5ac42b1b1" x="244.193691" y="228.96" style="fill: #262626; stroke: #262626; stroke-width: 0.8"/>
      </g>
     </g>
     <g id="text_3">
      <text style="font-size: 10px; font-family: 'Arial', 'DejaVu Sans', 'Liberation Sans', 'Bitstream Vera Sans', sans-serif; text-anchor: middle; fill: #262626" x="244.193691" y="243.117812" transform="rotate(-0 244.193691 243.117812)">$5</text>
     </g>
    </g>
    <g id="xtick_4">
     <g id="line2d_4">
      <g>
       <use xlink:href="#mb5ac42b1b1" x="322.688929" y="228.96" style="fill: #262626; stroke: #262626; stroke-width: 0.8"/>
      </g>
     </g>
     <g id="text_4">
      <text style="font-size: 10px; font-family: 'Arial', 'DejaVu Sans', 'Liberation Sans', 'Bitstream Vera Sans', sans-serif; text-anchor: middle; fill: #262626" x="322.688929" y="243.117812" transform="rotate(-0 322.688929 243.117812)">$10</text>
     </g>
    </g>
    <g id="xtick_5">
     <g id="line2d_5">
      <g>
       <use xlink:href="#mb5ac42b1b1" x="401.184167" y="228.96" style="fill: #262626; stroke: #262626; stroke-width: 0.8"/>
      </g>
     </g>
     <g id="text_5">
      <text style="font-size: 10px; font-family: 'Arial', 'DejaVu Sans', 'Liberation Sans', 'Bitstream Vera Sans', sans-serif; text-anchor: middle; fill: #262626" x="401.184167" y="243.117812" transform="rotate(-0 401.184167 243.117812)">$20</text>
     </g>
    </g>
    <g id="xtick_6">
     <g id="line2d_6">
      <g>
       <use xlink:href="#mb5ac42b1b1" x="504.949227" y="228.96" style="fill: #262626; stroke: #262626; stroke-width: 0.8"/>
      </g>
     </g>
     <g id="text_6">
      <text style="font-size: 10px; font-family: 'Arial', 'DejaVu Sans', 'Liberation Sans', 'Bitstream Vera Sans', sans-serif; text-anchor: middle; fill: #262626" x="504.949227" y="243.117812" transform="rotate(-0 504.949227 243.117812)">$50</text>
     </g>
    </g>
    <g id="xtick_7">
     <g id="line2d_7">
      <g>
       <use xlink:href="#mb5ac42b1b1" x="583.444464" y="228.96" style="fill: #262626; stroke: #262626; stroke-width: 0.8"/>
      </g>
     </g>
     <g id="text_7">
      <text style="font-size: 10px; font-family: 'Arial', 'DejaVu Sans', 'Liberation Sans', 'Bitstream Vera Sans', sans-serif; text-anchor: middle; fill: #262626" x="583.444464" y="243.117812" transform="rotate(-0 583.444464 243.117812)">$100</text>
     </g>
    </g>
    <g id="xtick_8">
     <g id="line2d_8">
      <g>
       <use xlink:href="#mb5ac42b1b1" x="661.939702" y="228.96" style="fill: #262626; stroke: #262626; stroke-width: 0.8"/>
      </g>
     </g>
     <g id="text_8">
      <text style="font-size: 10px; font-family: 'Arial', 'DejaVu Sans', 'Liberation Sans', 'Bitstream Vera Sans', sans-serif; text-anchor: middle; fill: #262626" x="661.939702" y="243.117812" transform="rotate(-0 661.939702 243.117812)">$200</text>
     </g>
    </g>
    <g id="xtick_9">
     <g id="line2d_9">
      <g>
       <use xlink:href="#mb5ac42b1b1" x="765.704762" y="228.96" style="fill: #262626; stroke: #262626; stroke-width: 0.8"/>
      </g>
     </g>
     <g id="text_9">
      <text style="font-size: 10px; font-family: 'Arial', 'DejaVu Sans', 'Liberation Sans', 'Bitstream Vera Sans', sans-serif; text-anchor: middle; fill: #262626" x="765.704762" y="243.117812" transform="rotate(-0 765.704762 243.117812)">$500</text>
     </g>
    </g>
    <g id="xtick_10">
     <g id="line2d_10">
      <g>
       <use xlink:href="#mb5ac42b1b1" x="844.2" y="228.96" style="fill: #262626; stroke: #262626; stroke-width: 0.8"/>
      </g>
     </g>
     <g id="text_10">
      <text style="font-size: 10px; font-family: 'Arial', 'DejaVu Sans', 'Liberation Sans', 'Bitstream Vera Sans', sans-serif; text-anchor: middle; fill: #262626" x="844.2" y="243.117812" transform="rotate(-0 844.2 243.117812)">$1000</text>
     </g>
    </g>
    <g id="xtick_11">
     <g id="line2d_11">
      <defs>
       <path id="mf16a896d74" d="M 0 0 
L 0 2 
" style="stroke: #262626; stroke-width: 0.6"/>
      </defs>
      <g>
       <use xlink:href="#mf16a896d74" x="21.54185" y="228.96" style="fill: #262626; stroke: #262626; stroke-width: 0.6"/>
      </g>
     </g>
    </g>
    <g id="xtick_12">
     <g id="line2d_12">
      <g>
       <use xlink:href="#mf16a896d74" x="36.663571" y="228.96" style="fill: #262626; stroke: #262626; stroke-width: 0.6"/>
      </g>
     </g>
    </g>
    <g id="xtick_13">
     <g id="line2d_13">
      <g>
       <use xlink:href="#mf16a896d74" x="50.001875" y="228.96" style="fill: #262626; stroke: #262626; stroke-width: 0.6"/>
      </g>
     </g>
    </g>
    <g id="xtick_14">
     <g id="line2d_14">
      <g>
       <use xlink:href="#mf16a896d74" x="186.345402" y="228.96" style="fill: #262626; stroke: #262626; stroke-width: 0.6"/>
      </g>
     </g>
    </g>
    <g id="xtick_15">
     <g id="line2d_15">
      <g>
       <use xlink:href="#mf16a896d74" x="218.923869" y="228.96" style="fill: #262626; stroke: #262626; stroke-width: 0.6"/>
      </g>
     </g>
    </g>
    <g id="xtick_16">
     <g id="line2d_16">
      <g>
       <use xlink:href="#mf16a896d74" x="264.840639" y="228.96" style="fill: #262626; stroke: #262626; stroke-width: 0.6"/>
      </g>
     </g>
    </g>
    <g id="xtick_17">
     <g id="line2d_17">
      <g>
       <use xlink:href="#mf16a896d74" x="282.297385" y="228.96" style="fill: #262626; stroke: #262626; stroke-width: 0.6"/>
      </g>
     </g>
    </g>
    <g id="xtick_18">
     <g id="line2d_18">
      <g>
       <use xlink:href="#mf16a896d74" x="297.419107" y="228.96" style="fill: #262626; stroke: #262626; stroke-width: 0.6"/>
      </g>
     </g>
    </g>
    <g id="xtick_19">
     <g id="line2d_19">
      <g>
       <use xlink:href="#mf16a896d74" x="310.75741" y="228.96" style="fill: #262626; stroke: #262626; stroke-width: 0.6"/>
      </g>
     </g>
    </g>
    <g id="xtick_20">
     <g id="line2d_20">
      <g>
       <use xlink:href="#mf16a896d74" x="447.100937" y="228.96" style="fill: #262626; stroke: #262626; stroke-width: 0.6"/>
      </g>
     </g>
    </g>
    <g id="xtick_21">
     <g id="line2d_21">
      <g>
       <use xlink:href="#mf16a896d74" x="479.679404" y="228.96" style="fill: #262626; stroke: #262626; stroke-width: 0.6"/>
      </g>
     </g>
    </g>
    <g id="xtick_22">
     <g id="line2d_22">
      <g>
       <use xlink:href="#mf16a896d74" x="525.596175" y="228.96" style="fill: #262626; stroke: #262626; stroke-width: 0.6"/>
      </g>
     </g>
    </g>
    <g id="xtick_23">
     <g id="line2d_23">
      <g>
       <use xlink:href="#mf16a896d74" x="543.052921" y="228.96" style="fill: #262626; stroke: #262626; stroke-width: 0.6"/>
      </g>
     </g>
    </g>
    <g id="xtick_24">
     <g id="line2d_24">
      <g>
       <use xlink:href="#mf16a896d74" x="558.174642" y="228.96" style="fill: #262626; stroke: #262626; stroke-width: 0.6"/>
      </g>
     </g>
    </g>
    <g id="xtick_25">
     <g id="line2d_25">
      <g>
       <use xlink:href="#mf16a896d74" x="571.512946" y="228.96" style="fill: #262626; stroke: #262626; stroke-width: 0.6"/>
      </g>
     </g>
    </g>
    <g id="xtick_26">
     <g id="line2d_26">
      <g>
       <use xlink:href="#mf16a896d74" x="707.856473" y="228.96" style="fill: #262626; stroke: #262626; stroke-width: 0.6"/>
      </g>
     </g>
    </g>
    <g id="xtick_27">
     <g id="line2d_27">
      <g>
       <use xlink:href="#mf16a896d74" x="740.43494" y="228.96" style="fill: #262626; stroke: #262626; stroke-width: 0.6"/>
      </g>
     </g>
    </g>
    <g id="xtick_28">
     <g id="line2d_28">
      <g>
       <use xlink:href="#mf16a896d74" x="786.35171" y="228.96" style="fill: #262626; stroke: #262626; stroke-width: 0.6"/>
      </g>
     </g>
    </g>
    <g id="xtick_29">
     <g id="line2d_29">
      <g>
       <use xlink:href="#mf16a896d74" x="803.808456" y="228.96" style="fill: #262626; stroke: #262626; stroke-width: 0.6"/>
      </g>
     </g>
    </g>
    <g id="xtick_30">
     <g id="line2d_30">
      <g>
       <use xlink:href="#mf16a896d74" x="818.930178" y="228.96" style="fill: #262626; stroke: #262626; stroke-width: 0.6"/>
      </g>
     </g>
    </g>
    <g id="xtick_31">
     <g id="line2d_31">
      <g>
       <use xlink:href="#mf16a896d74" x="832.268481" y="228.96" style="fill: #262626; stroke: #262626; stroke-width: 0.6"/>
      </g>
     </g>
    </g>
    <g id="text_11">
     <text style="font-size: 10px; font-family: 'Arial', 'DejaVu Sans', 'Liberation Sans', 'Bitstream Vera Sans', sans-serif; text-anchor: middle; fill: #262626" x="425.7" y="256.385" transform="rotate(-0 425.7 256.385)">Income or consumption (day)</text>
    </g>
   </g>
   <g id="matplotlib.axis_2"/>
   <g id="FillBetweenPolyCollection_1">
    <defs>
     <path id="m9ac9cef52f" d="M 41.239414 -36.750309 
L 41.239414 -36.729688 
L 43.151115 -36.729688 
L 45.062816 -36.729688 
L 46.974517 -36.729688 
L 48.886218 -36.729688 
L 50.797919 -36.729688 
L 52.70962 -36.729688 
L 54.621321 -36.729688 
L 56.533022 -36.729688 
L 58.444723 -36.729688 
L 60.356425 -36.729688 
L 62.268126 -36.729688 
L 64.179827 -36.729688 
L 66.091528 -36.729688 
L 68.003229 -36.729688 
L 69.91493 -36.729688 
L 71.826631 -36.729688 
L 73.738332 -36.729688 
L 75.650033 -36.729688 
L 77.561734 -36.729688 
L 79.473435 -36.729688 
L 81.385136 -36.729688 
L 83.296837 -36.729688 
L 85.208538 -36.729688 
L 87.120239 -36.729688 
L 89.031941 -36.729688 
L 90.943642 -36.729688 
L 92.855343 -36.729688 
L 94.767044 -36.729688 
L 96.678745 -36.729688 
L 98.590446 -36.729688 
L 100.502147 -36.729688 
L 102.413848 -36.729688 
L 104.325549 -36.729688 
L 106.23725 -36.729688 
L 108.148951 -36.729688 
L 110.060652 -36.729688 
L 111.972353 -36.729688 
L 113.884054 -36.729688 
L 115.795755 -36.729688 
L 117.707457 -36.729688 
L 119.619158 -36.729688 
L 121.530859 -36.729688 
L 123.44256 -36.729688 
L 125.354261 -36.729688 
L 127.265962 -36.729688 
L 129.177663 -36.729688 
L 131.089364 -36.729688 
L 133.001065 -36.729688 
L 134.912766 -36.729688 
L 136.824467 -36.729688 
L 138.736168 -36.729688 
L 140.647869 -36.729688 
L 142.55957 -36.729688 
L 144.471272 -36.729688 
L 146.382973 -36.729688 
L 148.294674 -36.729688 
L 150.206375 -36.729688 
L 152.118076 -36.729688 
L 154.029777 -36.729688 
L 155.941478 -36.729688 
L 157.853179 -36.729688 
L 159.76488 -36.729688 
L 161.676581 -36.729688 
L 163.588282 -36.729688 
L 165.499983 -36.729688 
L 167.411684 -36.729688 
L 169.323385 -36.729688 
L 171.235086 -36.729688 
L 173.146788 -36.729688 
L 175.058489 -36.729688 
L 176.97019 -36.729688 
L 178.881891 -36.729688 
L 180.793592 -36.729688 
L 182.705293 -36.729688 
L 184.616994 -36.729688 
L 186.528695 -36.729688 
L 188.440396 -36.729688 
L 190.352097 -36.729688 
L 192.263798 -36.729688 
L 194.175499 -36.729688 
L 196.0872 -36.729688 
L 197.998901 -36.729688 
L 199.910602 -36.729688 
L 201.822304 -36.729688 
L 203.734005 -36.729688 
L 205.645706 -36.729688 
L 207.557407 -36.729688 
L 209.469108 -36.729688 
L 211.380809 -36.729688 
L 213.29251 -36.729688 
L 215.204211 -36.729688 
L 217.115912 -36.729688 
L 219.027613 -36.729688 
L 220.939314 -36.729688 
L 222.851015 -36.729688 
L 224.762716 -36.729688 
L 226.674417 -36.729688 
L 228.586118 -36.729688 
L 230.49782 -36.729688 
L 232.409521 -36.729688 
L 234.321222 -36.729688 
L 236.232923 -36.729688 
L 238.144624 -36.729688 
L 240.056325 -36.729688 
L 241.968026 -36.729688 
L 243.879727 -36.729688 
L 245.791428 -36.729688 
L 247.703129 -36.729688 
L 249.61483 -36.729688 
L 251.526531 -36.729688 
L 253.438232 -36.729688 
L 255.349933 -36.729688 
L 257.261634 -36.729688 
L 259.173336 -36.729688 
L 261.085037 -36.729688 
L 262.996738 -36.729688 
L 264.908439 -36.729688 
L 266.82014 -36.729688 
L 268.731841 -36.729688 
L 270.643542 -36.729688 
L 272.555243 -36.729688 
L 274.466944 -36.729688 
L 276.378645 -36.729688 
L 278.290346 -36.729688 
L 280.202047 -36.729688 
L 282.113748 -36.729688 
L 284.025449 -36.729688 
L 285.93715 -36.729688 
L 287.848852 -36.729688 
L 289.760553 -36.729688 
L 291.672254 -36.729688 
L 293.583955 -36.729688 
L 295.495656 -36.729688 
L 297.407357 -36.729688 
L 299.319058 -36.729688 
L 301.230759 -36.729688 
L 303.14246 -36.729688 
L 305.054161 -36.729688 
L 306.965862 -36.729688 
L 308.877563 -36.729688 
L 310.789264 -36.729688 
L 312.700965 -36.729688 
L 314.612666 -36.729688 
L 316.524368 -36.729688 
L 318.436069 -36.729688 
L 320.34777 -36.729688 
L 322.259471 -36.729688 
L 324.171172 -36.729688 
L 326.082873 -36.729688 
L 327.994574 -36.729688 
L 329.906275 -36.729688 
L 331.817976 -36.729688 
L 333.729677 -36.729688 
L 335.641378 -36.729688 
L 337.553079 -36.729688 
L 339.46478 -36.729688 
L 341.376481 -36.729688 
L 343.288182 -36.729688 
L 345.199884 -36.729688 
L 347.111585 -36.729688 
L 349.023286 -36.729688 
L 350.934987 -36.729688 
L 352.846688 -36.729688 
L 354.758389 -36.729688 
L 356.67009 -36.729688 
L 358.581791 -36.729688 
L 360.493492 -36.729688 
L 362.405193 -36.729688 
L 364.316894 -36.729688 
L 366.228595 -36.729688 
L 368.140296 -36.729688 
L 370.051997 -36.729688 
L 371.963698 -36.729688 
L 373.8754 -36.729688 
L 375.787101 -36.729688 
L 377.698802 -36.729688 
L 379.610503 -36.729688 
L 381.522204 -36.729688 
L 383.433905 -36.729688 
L 385.345606 -36.729688 
L 387.257307 -36.729688 
L 389.169008 -36.729688 
L 391.080709 -36.729688 
L 392.99241 -36.729688 
L 394.904111 -36.729688 
L 396.815812 -36.729688 
L 398.727513 -36.729688 
L 400.639214 -36.729688 
L 402.550916 -36.729688 
L 404.462617 -36.729688 
L 406.374318 -36.729688 
L 408.286019 -36.729688 
L 410.19772 -36.729688 
L 412.109421 -36.729688 
L 414.021122 -36.729688 
L 415.932823 -36.729688 
L 417.844524 -36.729688 
L 419.756225 -36.729688 
L 421.667926 -36.729688 
L 421.667926 -36.749972 
L 421.667926 -36.749972 
L 419.756225 -36.760533 
L 417.844524 -36.775855 
L 415.932823 -36.797706 
L 414.021122 -36.828343 
L 412.109421 -36.870577 
L 410.19772 -36.927822 
L 408.286019 -37.00412 
L 406.374318 -37.104128 
L 404.462617 -37.233054 
L 402.550916 -37.396542 
L 400.639214 -37.600496 
L 398.727513 -37.850851 
L 396.815812 -38.15329 
L 394.904111 -38.512941 
L 392.99241 -38.934054 
L 391.080709 -39.419709 
L 389.169008 -39.971563 
L 387.257307 -40.589687 
L 385.345606 -41.27249 
L 383.433905 -42.016771 
L 381.522204 -42.817878 
L 379.610503 -43.669987 
L 377.698802 -44.56646 
L 375.787101 -45.500269 
L 373.8754 -46.464438 
L 371.963698 -47.452471 
L 370.051997 -48.458727 
L 368.140296 -49.478713 
L 366.228595 -50.509282 
L 364.316894 -51.548709 
L 362.405193 -52.596676 
L 360.493492 -53.654153 
L 358.581791 -54.7232 
L 356.67009 -55.806736 
L 354.758389 -56.908267 
L 352.846688 -58.031629 
L 350.934987 -59.180748 
L 349.023286 -60.359448 
L 347.111585 -61.571305 
L 345.199884 -62.819561 
L 343.288182 -64.107085 
L 341.376481 -65.436393 
L 339.46478 -66.809693 
L 337.553079 -68.228962 
L 335.641378 -69.696032 
L 333.729677 -71.212673 
L 331.817976 -72.780664 
L 329.906275 -74.40185 
L 327.994574 -76.078161 
L 326.082873 -77.811625 
L 324.171172 -79.604343 
L 322.259471 -81.458457 
L 320.34777 -83.376101 
L 318.436069 -85.359362 
L 316.524368 -87.410227 
L 314.612666 -89.530553 
L 312.700965 -91.722032 
L 310.789264 -93.986175 
L 308.877563 -96.324279 
L 306.965862 -98.737401 
L 305.054161 -101.226307 
L 303.14246 -103.79141 
L 301.230759 -106.432673 
L 299.319058 -109.149504 
L 297.407357 -111.940627 
L 295.495656 -114.803961 
L 293.583955 -117.736495 
L 291.672254 -120.734202 
L 289.760553 -123.79198 
L 287.848852 -126.903641 
L 285.93715 -130.061945 
L 284.025449 -133.258678 
L 282.113748 -136.48477 
L 280.202047 -139.730436 
L 278.290346 -142.985345 
L 276.378645 -146.238792 
L 274.466944 -149.479887 
L 272.555243 -152.697754 
L 270.643542 -155.881741 
L 268.731841 -159.021648 
L 266.82014 -162.107969 
L 264.908439 -165.132136 
L 262.996738 -168.086753 
L 261.085037 -170.965785 
L 259.173336 -173.764678 
L 257.261634 -176.480376 
L 255.349933 -179.11121 
L 253.438232 -181.656638 
L 251.526531 -184.116869 
L 249.61483 -186.492359 
L 247.703129 -188.783264 
L 245.791428 -190.988879 
L 243.879727 -193.107143 
L 241.968026 -195.13427 
L 240.056325 -197.064548 
L 238.144624 -198.890336 
L 236.232923 -200.602258 
L 234.321222 -202.189575 
L 232.409521 -203.640672 
L 230.49782 -204.943623 
L 228.586118 -206.08675 
L 226.674417 -207.059112 
L 224.762716 -207.85089 
L 222.851015 -208.453627 
L 220.939314 -208.860321 
L 219.027613 -209.065389 
L 217.115912 -209.064543 
L 215.204211 -208.854627 
L 213.29251 -208.433468 
L 211.380809 -207.799805 
L 209.469108 -206.953325 
L 207.557407 -205.894821 
L 205.645706 -204.626477 
L 203.734005 -203.152233 
L 201.822304 -201.47818 
L 199.910602 -199.612904 
L 197.998901 -197.56772 
L 196.0872 -195.356706 
L 194.175499 -192.996506 
L 192.263798 -190.505881 
L 190.352097 -187.905017 
L 188.440396 -185.214653 
L 186.528695 -182.4551 
L 184.616994 -179.645257 
L 182.705293 -176.801721 
L 180.793592 -173.938087 
L 178.881891 -171.064505 
L 176.97019 -168.18752 
L 175.058489 -165.310219 
L 173.146788 -162.432619 
L 171.235086 -159.552258 
L 169.323385 -156.664902 
L 167.411684 -153.765291 
L 165.499983 -150.847848 
L 163.588282 -147.907297 
L 161.676581 -144.939164 
L 159.76488 -141.940125 
L 157.853179 -138.908243 
L 155.941478 -135.84308 
L 154.029777 -132.745727 
L 152.118076 -129.618771 
L 150.206375 -126.466228 
L 148.294674 -123.29343 
L 146.382973 -120.106899 
L 144.471272 -116.914184 
L 142.55957 -113.723664 
L 140.647869 -110.544326 
L 138.736168 -107.385494 
L 136.824467 -104.256545 
L 134.912766 -101.166612 
L 133.001065 -98.124296 
L 131.089364 -95.137412 
L 129.177663 -92.212787 
L 127.265962 -89.356129 
L 125.354261 -86.571973 
L 123.44256 -83.863697 
L 121.530859 -81.233609 
L 119.619158 -78.683082 
L 117.707457 -76.212711 
L 115.795755 -73.82248 
L 113.884054 -71.511914 
L 111.972353 -69.280208 
L 110.060652 -67.126323 
L 108.148951 -65.049065 
L 106.23725 -63.047142 
L 104.325549 -61.11922 
L 102.413848 -59.263988 
L 100.502147 -57.480245 
L 98.590446 -55.766999 
L 96.678745 -54.123589 
L 94.767044 -52.549802 
L 92.855343 -51.045972 
L 90.943642 -49.613041 
L 89.031941 -48.252565 
L 87.120239 -46.966642 
L 85.208538 -45.757768 
L 83.296837 -44.628618 
L 81.385136 -43.581777 
L 79.473435 -42.619437 
L 77.561734 -41.743104 
L 75.650033 -40.953331 
L 73.738332 -40.249519 
L 71.826631 -39.6298 
L 69.91493 -39.091021 
L 68.003229 -38.628817 
L 66.091528 -38.237771 
L 64.179827 -37.91165 
L 62.268126 -37.643666 
L 60.356425 -37.426767 
L 58.444723 -37.253908 
L 56.533022 -37.118298 
L 54.621321 -37.013596 
L 52.70962 -36.934054 
L 50.797919 -36.874604 
L 48.886218 -36.830899 
L 46.974517 -36.799296 
L 45.062816 -36.776825 
L 43.151115 -36.761112 
L 41.239414 -36.750309 
z
" style="stroke: #dd8452"/>
    </defs>
    <g>
     <use xlink:href="#m9ac9cef52f" x="0" y="265.689687" style="fill: #dd8452; fill-opacity: 0.25; stroke: #dd8452"/>
    </g>
   </g>
   <g id="FillBetweenPolyCollection_2">
    <defs>
     <path id="meac18f94f9" d="M 338.926979 -36.740956 
L 338.926979 -36.729688 
L 340.852109 -36.729688 
L 342.777238 -36.729688 
L 344.702367 -36.729688 
L 346.627496 -36.729688 
L 348.552625 -36.729688 
L 350.477755 -36.729688 
L 352.402884 -36.729688 
L 354.328013 -36.729688 
L 356.253142 -36.729688 
L 358.178271 -36.729688 
L 360.103401 -36.729688 
L 362.02853 -36.729688 
L 363.953659 -36.729688 
L 365.878788 -36.729688 
L 367.803917 -36.729688 
L 369.729047 -36.729688 
L 371.654176 -36.729688 
L 373.579305 -36.729688 
L 375.504434 -36.729688 
L 377.429563 -36.729688 
L 379.354693 -36.729688 
L 381.279822 -36.729688 
L 383.204951 -36.729688 
L 385.13008 -36.729688 
L 387.05521 -36.729688 
L 388.980339 -36.729688 
L 390.905468 -36.729688 
L 392.830597 -36.729688 
L 394.755726 -36.729688 
L 396.680856 -36.729688 
L 398.605985 -36.729688 
L 400.531114 -36.729688 
L 402.456243 -36.729688 
L 404.381372 -36.729688 
L 406.306502 -36.729688 
L 408.231631 -36.729688 
L 410.15676 -36.729688 
L 412.081889 -36.729688 
L 414.007018 -36.729688 
L 415.932148 -36.729688 
L 417.857277 -36.729688 
L 419.782406 -36.729688 
L 421.707535 -36.729688 
L 423.632664 -36.729688 
L 425.557794 -36.729688 
L 427.482923 -36.729688 
L 429.408052 -36.729688 
L 431.333181 -36.729688 
L 433.25831 -36.729688 
L 435.18344 -36.729688 
L 437.108569 -36.729688 
L 439.033698 -36.729688 
L 440.958827 -36.729688 
L 442.883957 -36.729688 
L 444.809086 -36.729688 
L 446.734215 -36.729688 
L 448.659344 -36.729688 
L 450.584473 -36.729688 
L 452.509603 -36.729688 
L 454.434732 -36.729688 
L 456.359861 -36.729688 
L 458.28499 -36.729688 
L 460.210119 -36.729688 
L 462.135249 -36.729688 
L 464.060378 -36.729688 
L 465.985507 -36.729688 
L 467.910636 -36.729688 
L 469.835765 -36.729688 
L 471.760895 -36.729688 
L 473.686024 -36.729688 
L 475.611153 -36.729688 
L 477.536282 -36.729688 
L 479.461411 -36.729688 
L 481.386541 -36.729688 
L 483.31167 -36.729688 
L 485.236799 -36.729688 
L 487.161928 -36.729688 
L 489.087057 -36.729688 
L 491.012187 -36.729688 
L 492.937316 -36.729688 
L 494.862445 -36.729688 
L 496.787574 -36.729688 
L 498.712704 -36.729688 
L 500.637833 -36.729688 
L 502.562962 -36.729688 
L 504.488091 -36.729688 
L 506.41322 -36.729688 
L 508.33835 -36.729688 
L 510.263479 -36.729688 
L 512.188608 -36.729688 
L 514.113737 -36.729688 
L 516.038866 -36.729688 
L 517.963996 -36.729688 
L 519.889125 -36.729688 
L 521.814254 -36.729688 
L 523.739383 -36.729688 
L 525.664512 -36.729688 
L 527.589642 -36.729688 
L 529.514771 -36.729688 
L 531.4399 -36.729688 
L 533.365029 -36.729688 
L 535.290158 -36.729688 
L 537.215288 -36.729688 
L 539.140417 -36.729688 
L 541.065546 -36.729688 
L 542.990675 -36.729688 
L 544.915805 -36.729688 
L 546.840934 -36.729688 
L 548.766063 -36.729688 
L 550.691192 -36.729688 
L 552.616321 -36.729688 
L 554.541451 -36.729688 
L 556.46658 -36.729688 
L 558.391709 -36.729688 
L 560.316838 -36.729688 
L 562.241967 -36.729688 
L 564.167097 -36.729688 
L 566.092226 -36.729688 
L 568.017355 -36.729688 
L 569.942484 -36.729688 
L 571.867613 -36.729688 
L 573.792743 -36.729688 
L 575.717872 -36.729688 
L 577.643001 -36.729688 
L 579.56813 -36.729688 
L 581.493259 -36.729688 
L 583.418389 -36.729688 
L 585.343518 -36.729688 
L 587.268647 -36.729688 
L 589.193776 -36.729688 
L 591.118905 -36.729688 
L 593.044035 -36.729688 
L 594.969164 -36.729688 
L 596.894293 -36.729688 
L 598.819422 -36.729688 
L 600.744552 -36.729688 
L 602.669681 -36.729688 
L 604.59481 -36.729688 
L 606.519939 -36.729688 
L 608.445068 -36.729688 
L 610.370198 -36.729688 
L 612.295327 -36.729688 
L 614.220456 -36.729688 
L 616.145585 -36.729688 
L 618.070714 -36.729688 
L 619.995844 -36.729688 
L 621.920973 -36.729688 
L 623.846102 -36.729688 
L 625.771231 -36.729688 
L 627.69636 -36.729688 
L 629.62149 -36.729688 
L 631.546619 -36.729688 
L 633.471748 -36.729688 
L 635.396877 -36.729688 
L 637.322006 -36.729688 
L 639.247136 -36.729688 
L 641.172265 -36.729688 
L 643.097394 -36.729688 
L 645.022523 -36.729688 
L 646.947652 -36.729688 
L 648.872782 -36.729688 
L 650.797911 -36.729688 
L 652.72304 -36.729688 
L 654.648169 -36.729688 
L 656.573299 -36.729688 
L 658.498428 -36.729688 
L 660.423557 -36.729688 
L 662.348686 -36.729688 
L 664.273815 -36.729688 
L 666.198945 -36.729688 
L 668.124074 -36.729688 
L 670.049203 -36.729688 
L 671.974332 -36.729688 
L 673.899461 -36.729688 
L 675.824591 -36.729688 
L 677.74972 -36.729688 
L 679.674849 -36.729688 
L 681.599978 -36.729688 
L 683.525107 -36.729688 
L 685.450237 -36.729688 
L 687.375366 -36.729688 
L 689.300495 -36.729688 
L 691.225624 -36.729688 
L 693.150753 -36.729688 
L 695.075883 -36.729688 
L 697.001012 -36.729688 
L 698.926141 -36.729688 
L 700.85127 -36.729688 
L 702.7764 -36.729688 
L 704.701529 -36.729688 
L 706.626658 -36.729688 
L 708.551787 -36.729688 
L 710.476916 -36.729688 
L 712.402046 -36.729688 
L 714.327175 -36.729688 
L 716.252304 -36.729688 
L 718.177433 -36.729688 
L 720.102562 -36.729688 
L 722.027692 -36.729688 
L 722.027692 -36.743376 
L 722.027692 -36.743376 
L 720.102562 -36.751673 
L 718.177433 -36.76423 
L 716.252304 -36.782784 
L 714.327175 -36.809557 
L 712.402046 -36.847287 
L 710.476916 -36.899224 
L 708.551787 -36.969073 
L 706.626658 -37.060873 
L 704.701529 -37.178815 
L 702.7764 -37.326998 
L 700.85127 -37.50916 
L 698.926141 -37.728393 
L 697.001012 -37.986896 
L 695.075883 -38.285796 
L 693.150753 -38.625062 
L 691.225624 -39.003547 
L 689.300495 -39.419129 
L 687.375366 -39.868952 
L 685.450237 -40.349714 
L 683.525107 -40.857962 
L 681.599978 -41.390353 
L 679.674849 -41.943843 
L 677.74972 -42.515805 
L 675.824591 -43.104082 
L 673.899461 -43.707003 
L 671.974332 -44.323408 
L 670.049203 -44.952715 
L 668.124074 -45.595041 
L 666.198945 -46.251397 
L 664.273815 -46.923911 
L 662.348686 -47.616068 
L 660.423557 -48.332908 
L 658.498428 -49.081145 
L 656.573299 -49.869198 
L 654.648169 -50.707122 
L 652.72304 -51.60644 
L 650.797911 -52.579921 
L 648.872782 -53.6413 
L 646.947652 -54.804972 
L 645.022523 -56.085639 
L 643.097394 -57.497922 
L 641.172265 -59.055905 
L 639.247136 -60.772622 
L 637.322006 -62.659499 
L 635.396877 -64.725783 
L 633.471748 -66.978016 
L 631.546619 -69.419625 
L 629.62149 -72.050678 
L 627.69636 -74.867846 
L 625.771231 -77.864574 
L 623.846102 -81.031428 
L 621.920973 -84.356527 
L 619.995844 -87.82601 
L 618.070714 -91.42442 
L 616.145585 -95.134983 
L 614.220456 -98.939768 
L 612.295327 -102.819775 
L 610.370198 -106.755066 
L 608.445068 -110.725046 
L 606.519939 -114.709016 
L 604.59481 -118.687039 
L 602.669681 -122.641121 
L 600.744552 -126.556558 
L 598.819422 -130.423254 
L 596.894293 -134.236751 
L 594.969164 -137.998712 
L 593.044035 -141.716698 
L 591.118905 -145.403198 
L 589.193776 -149.074035 
L 587.268647 -152.746416 
L 585.343518 -156.436998 
L 583.418389 -160.160302 
L 581.493259 -163.927741 
L 579.56813 -167.747332 
L 577.643001 -171.623944 
L 575.717872 -175.559786 
L 573.792743 -179.554746 
L 571.867613 -183.606236 
L 569.942484 -187.708381 
L 568.017355 -191.850644 
L 566.092226 -196.016217 
L 564.167097 -200.180717 
L 562.241967 -204.311752 
L 560.316838 -208.369807 
L 558.391709 -212.310627 
L 556.46658 -216.088907 
L 554.541451 -219.662797 
L 552.616321 -222.998423 
L 550.691192 -226.073608 
L 548.766063 -228.880067 
L 546.840934 -231.423605 
L 544.915805 -233.72226 
L 542.990675 -235.802693 
L 541.065546 -237.695408 
L 539.140417 -239.429587 
L 537.215288 -241.028287 
L 535.290158 -242.504614 
L 533.365029 -243.859246 
L 531.4399 -245.079388 
L 529.514771 -246.139055 
L 527.589642 -247.000375 
L 525.664512 -247.615619 
L 523.739383 -247.929688 
L 521.814254 -247.882889 
L 519.889125 -247.413954 
L 517.963996 -246.463289 
L 516.038866 -244.976461 
L 514.113737 -242.907818 
L 512.188608 -240.224054 
L 510.263479 -236.907354 
L 508.33835 -232.957752 
L 506.41322 -228.394308 
L 504.488091 -223.254843 
L 502.562962 -217.594179 
L 500.637833 -211.481042 
L 498.712704 -204.994026 
L 496.787574 -198.217131 
L 494.862445 -191.235442 
L 492.937316 -184.13142 
L 491.012187 -176.982147 
L 489.087057 -169.857627 
L 487.161928 -162.820066 
L 485.236799 -155.923898 
L 483.31167 -149.216249 
L 481.386541 -142.737508 
L 479.461411 -136.521787 
L 477.536282 -130.597123 
L 475.611153 -124.985412 
L 473.686024 -119.702184 
L 471.760895 -114.756368 
L 469.835765 -110.150248 
L 467.910636 -105.879758 
L 465.985507 -101.935183 
L 464.060378 -98.302277 
L 462.135249 -94.963643 
L 460.210119 -91.90019 
L 458.28499 -89.092414 
L 456.359861 -86.521273 
L 454.434732 -84.168501 
L 452.509603 -82.016314 
L 450.584473 -80.046631 
L 448.659344 -78.240027 
L 446.734215 -76.574739 
L 444.809086 -75.026072 
L 442.883957 -73.566454 
L 440.958827 -72.166294 
L 439.033698 -70.795587 
L 437.108569 -69.426075 
L 435.18344 -68.033595 
L 433.25831 -66.60023 
L 431.333181 -65.115864 
L 429.408052 -63.578876 
L 427.482923 -61.995845 
L 425.557794 -60.380345 
L 423.632664 -58.751022 
L 421.707535 -57.129292 
L 419.782406 -55.537011 
L 417.857277 -53.994431 
L 415.932148 -52.518687 
L 414.007018 -51.122918 
L 412.081889 -49.81603 
L 410.15676 -48.602981 
L 408.231631 -47.485426 
L 406.306502 -46.46253 
L 404.381372 -45.531757 
L 402.456243 -44.689519 
L 400.531114 -43.931588 
L 398.605985 -43.253287 
L 396.680856 -42.649481 
L 394.755726 -42.114457 
L 392.830597 -41.641787 
L 390.905468 -41.224268 
L 388.980339 -40.853988 
L 387.05521 -40.522568 
L 385.13008 -40.221547 
L 383.204951 -39.942875 
L 381.279822 -39.679438 
L 379.354693 -39.42553 
L 377.429563 -39.177193 
L 375.504434 -38.932379 
L 373.579305 -38.690891 
L 371.654176 -38.454133 
L 369.729047 -38.224699 
L 367.803917 -38.005861 
L 365.878788 -37.801044 
L 363.953659 -37.613347 
L 362.02853 -37.445168 
L 360.103401 -37.297973 
L 358.178271 -37.172209 
L 356.253142 -37.067352 
L 354.328013 -36.982057 
L 352.402884 -36.914374 
L 350.477755 -36.861983 
L 348.552625 -36.822426 
L 346.627496 -36.79329 
L 344.702367 -36.772356 
L 342.777238 -36.757683 
L 340.852109 -36.74765 
L 338.926979 -36.740956 
z
" style="stroke: #4c72b0"/>
    </defs>
    <g>
     <use xlink:href="#meac18f94f9" x="0" y="265.689687" style="fill: #4c72b0; fill-opacity: 0.25; stroke: #4c72b0"/>
    </g>
   </g>
   <g id="line2d_32">
    <path d="M 186.345402 228.96 
L 186.345402 7.2 
" style="fill: none; stroke-dasharray: 0.8,1.32; stroke-dashoffset: 0; stroke: #d3d3d3; stroke-width: 0.8"/>
   </g>
   <g id="line2d_33">
    <path d="M 413.501573 228.96 
L 413.501573 7.2 
" style="fill: none; stroke-dasharray: 0.8,1.32; stroke-dashoffset: 0; stroke: #d3d3d3; stroke-width: 0.8"/>
   </g>
   <g id="line2d_34">
    <path d="M 318.654336 228.96 
L 318.654336 7.2 
" style="fill: none; stroke-dasharray: 0.8,1.32; stroke-dashoffset: 0; stroke: #d3d3d3; stroke-width: 0.8"/>
   </g>
   <g id="line2d_35">
    <path d="M 7.2 228.96 
L 844.2 228.96 
" style="fill: none; stroke: #808080; stroke-width: 0.5; stroke-linecap: round"/>
   </g>
   <g id="text_12">
    <text style="font-size: 8px; font-family: 'Arial', 'DejaVu Sans', 'Liberation Sans', 'Bitstream Vera Sans', sans-serif; fill: #808080" transform="translate(192.599152 124.59635) rotate(-90)">International Poverty Line: $3.00</text>
   </g>
   <g id="text_13">
    <text style="font-size: 8px; font-family: 'Arial', 'DejaVu Sans', 'Liberation Sans', 'Bitstream Vera Sans', sans-serif; fill: #808080" transform="translate(419.227823 81.31135) rotate(-90)">World mean: $22.30</text>
   </g>
   <g id="text_14">
    <text style="font-size: 8px; font-family: 'Arial', 'DejaVu Sans', 'Liberation Sans', 'Bitstream Vera Sans', sans-serif; fill: #808080" transform="translate(324.380586 83.08885) rotate(-90)">World median: $9.65</text>
   </g>
   <g id="legend_1">
    <g id="patch_3">
     <path d="M 683.8 102.227 
L 756.364063 102.227 
Q 758.364063 102.227 758.364063 100.227 
L 758.364063 58.552 
Q 758.364063 56.552 756.364063 56.552 
L 683.8 56.552 
Q 681.8 56.552 681.8 58.552 
L 681.8 100.227 
Q 681.8 102.227 683.8 102.227 
z
" style="fill: #ffffff; opacity: 0.8; stroke: #cccccc; stroke-linejoin: miter"/>
    </g>
    <g id="text_15">
     <text style="font-size: 10px; font-family: 'Arial', 'DejaVu Sans', 'Liberation Sans', 'Bitstream Vera Sans', sans-serif; text-anchor: start; fill: #262626" x="702.575781" y="67.831687" transform="rotate(-0 702.575781 67.831687)">Country</text>
    </g>
    <g id="patch_4">
     <path d="M 685.8 82.094187 
L 705.8 82.094187 
L 705.8 75.094187 
L 685.8 75.094187 
z
" style="fill: #4c72b0; fill-opacity: 0.25; stroke: #4c72b0; stroke-linejoin: miter"/>
    </g>
    <g id="text_16">
     <text style="font-size: 10px; font-family: 'Arial', 'DejaVu Sans', 'Liberation Sans', 'Bitstream Vera Sans', sans-serif; text-anchor: start; fill: #262626" x="713.8" y="82.094187" transform="rotate(-0 713.8 82.094187)">Denmark</text>
    </g>
    <g id="patch_5">
     <path d="M 685.8 96.2395 
L 705.8 96.2395 
L 705.8 89.2395 
L 685.8 89.2395 
z
" style="fill: #dd8452; fill-opacity: 0.25; stroke: #dd8452; stroke-linejoin: miter"/>
    </g>
    <g id="text_17">
     <text style="font-size: 10px; font-family: 'Arial', 'DejaVu Sans', 'Liberation Sans', 'Bitstream Vera Sans', sans-serif; text-anchor: start; fill: #262626" x="713.8" y="96.2395" transform="rotate(-0 713.8 96.2395)">Ethiopia</text>
    </g>
   </g>
  </g>
 </g>
</svg>
