<?xml version="1.0" encoding="utf-8" standalone="no"?>
<!DOCTYPE svg PUBLIC "-//W3C//DTD SVG 1.1//EN"
  "http://www.w3.org/Graphics/SVG/1.1/DTD/svg11.dtd">
<svg xmlns:xlink="http://www.w3.org/1999/xlink" width="851.4pt" height="282.943437pt" viewBox="0 0 851.4 282.943437" xmlns="http://www.w3.org/2000/svg" version="1.1">
 <metadata>
  <rdf:RDF xmlns:dc="http://purl.org/dc/elements/1.1/" xmlns:cc="http://creativecommons.org/ns#" xmlns:rdf="http://www.w3.org/1999/02/22-rdf-syntax-ns#">
   <cc:Work>
    <dc:type rdf:resource="http://purl.org/dc/dcmitype/StillImage"/>
    <dc:date>2026-05-28T14:12:37.990305</dc:date>
    <dc:format>image/svg+xml</dc:format>
    <dc:creator>
     <cc:Agent>
      <dc:title>Matplotlib v3.10.9, https://matplotlib.org/</dc:title>
     </cc:Agent>
    </dc:creator>
   </cc:Work>
  </rdf:RDF>
 </metadata>
 <defs>
  <style type="text/css">*{stroke-linejoin: round; stroke-linecap: butt}</style>
 </defs>
 <g id="figure_1">
  <g id="patch_1">
   <path d="M 0 282.943437 
L 851.4 282.943437 
L 851.4 0 
L 0 0 
z
" style="fill: #ffffff"/>
  </g>
  <g id="axes_1">
   <g id="patch_2">
    <path d="M 7.2 246.21375 
L 844.2 246.21375 
L 844.2 24.45375 
L 7.2 24.45375 
z
" style="fill: #ffffff"/>
   </g>
   <g id="matplotlib.axis_1">
    <g id="xtick_1">
     <g id="line2d_1">
      <defs>
       <path id="mf91f5ca851" d="M 0 0 
L 0 3.5 
" style="stroke: #262626; stroke-width: 0.8"/>
      </defs>
      <g>
       <use xlink:href="#mf91f5ca851" x="19.080862" y="246.21375" style="fill: #262626; stroke: #262626; stroke-width: 0.8"/>
      </g>
     </g>
     <g id="text_1">
      <text style="font-size: 10px; font-family: 'Arial', 'DejaVu Sans', 'Liberation Sans', 'Bitstream Vera Sans', sans-serif; text-anchor: middle; fill: #262626" x="19.080862" y="260.371562" transform="rotate(-0 19.080862 260.371562)">$10</text>
     </g>
    </g>
    <g id="xtick_2">
     <g id="line2d_2">
      <g>
       <use xlink:href="#mf91f5ca851" x="97.832984" y="246.21375" style="fill: #262626; stroke: #262626; stroke-width: 0.8"/>
      </g>
     </g>
     <g id="text_2">
      <text style="font-size: 10px; font-family: 'Arial', 'DejaVu Sans', 'Liberation Sans', 'Bitstream Vera Sans', sans-serif; text-anchor: middle; fill: #262626" x="97.832984" y="260.371562" transform="rotate(-0 97.832984 260.371562)">$20</text>
     </g>
    </g>
    <g id="xtick_3">
     <g id="line2d_3">
      <g>
       <use xlink:href="#mf91f5ca851" x="201.937626" y="246.21375" style="fill: #262626; stroke: #262626; stroke-width: 0.8"/>
      </g>
     </g>
     <g id="text_3">
      <text style="font-size: 10px; font-family: 'Arial', 'DejaVu Sans', 'Liberation Sans', 'Bitstream Vera Sans', sans-serif; text-anchor: middle; fill: #262626" x="201.937626" y="260.371562" transform="rotate(-0 201.937626 260.371562)">$50</text>
     </g>
    </g>
    <g id="xtick_4">
     <g id="line2d_4">
      <g>
       <use xlink:href="#mf91f5ca851" x="280.689747" y="246.21375" style="fill: #262626; stroke: #262626; stroke-width: 0.8"/>
      </g>
     </g>
     <g id="text_4">
      <text style="font-size: 10px; font-family: 'Arial', 'DejaVu Sans', 'Liberation Sans', 'Bitstream Vera Sans', sans-serif; text-anchor: middle; fill: #262626" x="280.689747" y="260.371562" transform="rotate(-0 280.689747 260.371562)">$100</text>
     </g>
    </g>
    <g id="xtick_5">
     <g id="line2d_5">
      <g>
       <use xlink:href="#mf91f5ca851" x="359.441869" y="246.21375" style="fill: #262626; stroke: #262626; stroke-width: 0.8"/>
      </g>
     </g>
     <g id="text_5">
      <text style="font-size: 10px; font-family: 'Arial', 'DejaVu Sans', 'Liberation Sans', 'Bitstream Vera Sans', sans-serif; text-anchor: middle; fill: #262626" x="359.441869" y="260.371562" transform="rotate(-0 359.441869 260.371562)">$200</text>
     </g>
    </g>
    <g id="xtick_6">
     <g id="line2d_6">
      <g>
       <use xlink:href="#mf91f5ca851" x="463.546511" y="246.21375" style="fill: #262626; stroke: #262626; stroke-width: 0.8"/>
      </g>
     </g>
     <g id="text_6">
      <text style="font-size: 10px; font-family: 'Arial', 'DejaVu Sans', 'Liberation Sans', 'Bitstream Vera Sans', sans-serif; text-anchor: middle; fill: #262626" x="463.546511" y="260.371562" transform="rotate(-0 463.546511 260.371562)">$500</text>
     </g>
    </g>
    <g id="xtick_7">
     <g id="line2d_7">
      <g>
       <use xlink:href="#mf91f5ca851" x="542.298632" y="246.21375" style="fill: #262626; stroke: #262626; stroke-width: 0.8"/>
      </g>
     </g>
     <g id="text_7">
      <text style="font-size: 10px; font-family: 'Arial', 'DejaVu Sans', 'Liberation Sans', 'Bitstream Vera Sans', sans-serif; text-anchor: middle; fill: #262626" x="542.298632" y="260.371562" transform="rotate(-0 542.298632 260.371562)">$1000</text>
     </g>
    </g>
    <g id="xtick_8">
     <g id="line2d_8">
      <g>
       <use xlink:href="#mf91f5ca851" x="621.050754" y="246.21375" style="fill: #262626; stroke: #262626; stroke-width: 0.8"/>
      </g>
     </g>
     <g id="text_8">
      <text style="font-size: 10px; font-family: 'Arial', 'DejaVu Sans', 'Liberation Sans', 'Bitstream Vera Sans', sans-serif; text-anchor: middle; fill: #262626" x="621.050754" y="260.371562" transform="rotate(-0 621.050754 260.371562)">$2000</text>
     </g>
    </g>
    <g id="xtick_9">
     <g id="line2d_9">
      <g>
       <use xlink:href="#mf91f5ca851" x="725.155396" y="246.21375" style="fill: #262626; stroke: #262626; stroke-width: 0.8"/>
      </g>
     </g>
     <g id="text_9">
      <text style="font-size: 10px; font-family: 'Arial', 'DejaVu Sans', 'Liberation Sans', 'Bitstream Vera Sans', sans-serif; text-anchor: middle; fill: #262626" x="725.155396" y="260.371562" transform="rotate(-0 725.155396 260.371562)">$5000</text>
     </g>
    </g>
    <g id="xtick_10">
     <g id="line2d_10">
      <g>
       <use xlink:href="#mf91f5ca851" x="803.907517" y="246.21375" style="fill: #262626; stroke: #262626; stroke-width: 0.8"/>
      </g>
     </g>
     <g id="text_10">
      <text style="font-size: 10px; font-family: 'Arial', 'DejaVu Sans', 'Liberation Sans', 'Bitstream Vera Sans', sans-serif; text-anchor: middle; fill: #262626" x="803.907517" y="260.371562" transform="rotate(-0 803.907517 260.371562)">$10000</text>
     </g>
    </g>
    <g id="xtick_11">
     <g id="line2d_11">
      <defs>
       <path id="mbaf7e00180" d="M 0 0 
L 0 2 
" style="stroke: #262626; stroke-width: 0.6"/>
      </defs>
      <g>
       <use xlink:href="#mbaf7e00180" x="143.900022" y="246.21375" style="fill: #262626; stroke: #262626; stroke-width: 0.6"/>
      </g>
     </g>
    </g>
    <g id="xtick_12">
     <g id="line2d_12">
      <g>
       <use xlink:href="#mbaf7e00180" x="176.585105" y="246.21375" style="fill: #262626; stroke: #262626; stroke-width: 0.6"/>
      </g>
     </g>
    </g>
    <g id="xtick_13">
     <g id="line2d_13">
      <g>
       <use xlink:href="#mbaf7e00180" x="222.652143" y="246.21375" style="fill: #262626; stroke: #262626; stroke-width: 0.6"/>
      </g>
     </g>
    </g>
    <g id="xtick_14">
     <g id="line2d_14">
      <g>
       <use xlink:href="#mbaf7e00180" x="240.166018" y="246.21375" style="fill: #262626; stroke: #262626; stroke-width: 0.6"/>
      </g>
     </g>
    </g>
    <g id="xtick_15">
     <g id="line2d_15">
      <g>
       <use xlink:href="#mbaf7e00180" x="255.337227" y="246.21375" style="fill: #262626; stroke: #262626; stroke-width: 0.6"/>
      </g>
     </g>
    </g>
    <g id="xtick_16">
     <g id="line2d_16">
      <g>
       <use xlink:href="#mbaf7e00180" x="268.719181" y="246.21375" style="fill: #262626; stroke: #262626; stroke-width: 0.6"/>
      </g>
     </g>
    </g>
    <g id="xtick_17">
     <g id="line2d_17">
      <g>
       <use xlink:href="#mbaf7e00180" x="405.508907" y="246.21375" style="fill: #262626; stroke: #262626; stroke-width: 0.6"/>
      </g>
     </g>
    </g>
    <g id="xtick_18">
     <g id="line2d_18">
      <g>
       <use xlink:href="#mbaf7e00180" x="438.19399" y="246.21375" style="fill: #262626; stroke: #262626; stroke-width: 0.6"/>
      </g>
     </g>
    </g>
    <g id="xtick_19">
     <g id="line2d_19">
      <g>
       <use xlink:href="#mbaf7e00180" x="484.261028" y="246.21375" style="fill: #262626; stroke: #262626; stroke-width: 0.6"/>
      </g>
     </g>
    </g>
    <g id="xtick_20">
     <g id="line2d_20">
      <g>
       <use xlink:href="#mbaf7e00180" x="501.774903" y="246.21375" style="fill: #262626; stroke: #262626; stroke-width: 0.6"/>
      </g>
     </g>
    </g>
    <g id="xtick_21">
     <g id="line2d_21">
      <g>
       <use xlink:href="#mbaf7e00180" x="516.946112" y="246.21375" style="fill: #262626; stroke: #262626; stroke-width: 0.6"/>
      </g>
     </g>
    </g>
    <g id="xtick_22">
     <g id="line2d_22">
      <g>
       <use xlink:href="#mbaf7e00180" x="530.328066" y="246.21375" style="fill: #262626; stroke: #262626; stroke-width: 0.6"/>
      </g>
     </g>
    </g>
    <g id="xtick_23">
     <g id="line2d_23">
      <g>
       <use xlink:href="#mbaf7e00180" x="667.117792" y="246.21375" style="fill: #262626; stroke: #262626; stroke-width: 0.6"/>
      </g>
     </g>
    </g>
    <g id="xtick_24">
     <g id="line2d_24">
      <g>
       <use xlink:href="#mbaf7e00180" x="699.802875" y="246.21375" style="fill: #262626; stroke: #262626; stroke-width: 0.6"/>
      </g>
     </g>
    </g>
    <g id="xtick_25">
     <g id="line2d_25">
      <g>
       <use xlink:href="#mbaf7e00180" x="745.869913" y="246.21375" style="fill: #262626; stroke: #262626; stroke-width: 0.6"/>
      </g>
     </g>
    </g>
    <g id="xtick_26">
     <g id="line2d_26">
      <g>
       <use xlink:href="#mbaf7e00180" x="763.383788" y="246.21375" style="fill: #262626; stroke: #262626; stroke-width: 0.6"/>
      </g>
     </g>
    </g>
    <g id="xtick_27">
     <g id="line2d_27">
      <g>
       <use xlink:href="#mbaf7e00180" x="778.554997" y="246.21375" style="fill: #262626; stroke: #262626; stroke-width: 0.6"/>
      </g>
     </g>
    </g>
    <g id="xtick_28">
     <g id="line2d_28">
      <g>
       <use xlink:href="#mbaf7e00180" x="791.936951" y="246.21375" style="fill: #262626; stroke: #262626; stroke-width: 0.6"/>
      </g>
     </g>
    </g>
    <g id="text_11">
     <text style="font-size: 10px; font-family: 'Arial', 'DejaVu Sans', 'Liberation Sans', 'Bitstream Vera Sans', sans-serif; text-anchor: middle; fill: #262626" x="425.7" y="273.63875" transform="rotate(-0 425.7 273.63875)">Income or consumption (month)</text>
    </g>
   </g>
   <g id="matplotlib.axis_2"/>
   <g id="FillBetweenPolyCollection_1">
    <defs>
     <path id="mf36029f96b" d="M 45.245455 -36.729688 
L 45.245455 -36.758543 
L 47.490679 -36.774203 
L 49.735903 -36.797236 
L 51.981127 -36.830514 
L 54.226352 -36.877748 
L 56.471576 -36.943616 
L 58.7168 -37.033862 
L 60.962024 -37.155354 
L 63.207249 -37.316074 
L 65.452473 -37.525018 
L 67.697697 -37.791999 
L 69.942922 -38.127334 
L 72.188146 -38.541424 
L 74.43337 -39.044246 
L 76.678594 -39.644782 
L 78.923819 -40.35044 
L 81.169043 -41.16651 
L 83.414267 -42.095735 
L 85.659491 -43.138032 
L 87.904716 -44.290423 
L 90.14994 -45.547201 
L 92.395164 -46.900326 
L 94.640389 -48.340027 
L 96.885613 -49.85556 
L 99.130837 -51.436047 
L 101.376061 -53.071309 
L 103.621286 -54.752605 
L 105.86651 -56.473201 
L 108.111734 -58.228704 
L 110.356959 -60.017134 
L 112.602183 -61.838732 
L 114.847407 -63.695522 
L 117.092631 -65.590699 
L 119.337856 -67.527905 
L 121.58308 -69.510493 
L 123.828304 -71.540859 
L 126.073528 -73.619942 
L 128.318753 -75.746935 
L 130.563977 -77.919273 
L 132.809201 -80.132893 
L 135.054426 -82.382746 
L 137.29965 -84.663518 
L 139.544874 -86.97048 
L 141.790098 -89.300354 
L 144.035323 -91.65212 
L 146.280547 -94.027638 
L 148.525771 -96.432011 
L 150.770995 -98.873639 
L 153.01622 -101.363913 
L 155.261444 -103.916592 
L 157.506668 -106.546873 
L 159.751893 -109.270252 
L 161.997117 -112.101254 
L 164.242341 -115.052147 
L 166.487565 -118.131739 
L 168.73279 -121.344358 
L 170.978014 -124.689086 
L 173.223238 -128.159316 
L 175.468462 -131.74264 
L 177.713687 -135.421087 
L 179.958911 -139.171684 
L 182.204135 -142.967286 
L 184.44936 -146.777636 
L 186.694584 -150.570572 
L 188.939808 -154.313316 
L 191.185032 -157.973773 
L 193.430257 -161.521779 
L 195.675481 -164.930214 
L 197.920705 -168.175955 
L 200.16593 -171.24059 
L 202.411154 -174.110876 
L 204.656378 -176.778886 
L 206.901602 -179.241856 
L 209.146827 -181.501702 
L 211.392051 -183.564248 
L 213.637275 -185.438189 
L 215.882499 -187.133869 
L 218.127724 -188.661953 
L 220.372948 -190.032087 
L 222.618172 -191.251675 
L 224.863397 -192.324861 
L 227.108621 -193.251815 
L 229.353845 -194.028389 
L 231.599069 -194.646189 
L 233.844294 -195.093047 
L 236.089518 -195.353864 
L 238.334742 -195.411759 
L 240.579966 -195.249422 
L 242.825191 -194.85055 
L 245.070415 -194.201258 
L 247.315639 -193.291347 
L 249.560864 -192.115308 
L 251.806088 -190.673002 
L 254.051312 -188.969959 
L 256.296536 -187.017272 
L 258.541761 -184.831117 
L 260.786985 -182.431954 
L 263.032209 -179.843489 
L 265.277433 -177.091498 
L 267.522658 -174.202644 
L 269.767882 -171.203378 
L 272.013106 -168.11902 
L 274.258331 -164.973092 
L 276.503555 -161.786919 
L 278.748779 -158.579497 
L 280.994003 -155.36758 
L 283.239228 -152.165912 
L 285.484452 -148.987536 
L 287.729676 -145.844079 
L 289.974901 -142.745951 
L 292.220125 -139.702419 
L 294.465349 -136.721526 
L 296.710573 -133.809889 
L 298.955798 -130.972399 
L 301.201022 -128.211905 
L 303.446246 -125.528949 
L 305.69147 -122.921621 
L 307.936695 -120.385584 
L 310.181919 -117.914311 
L 312.427143 -115.499536 
L 314.672368 -113.131877 
L 316.917592 -110.80159 
L 319.162816 -108.499376 
L 321.40804 -106.217149 
L 323.653265 -103.948697 
L 325.898489 -101.690153 
L 328.143713 -99.440243 
L 330.388937 -97.200289 
L 332.634162 -94.973984 
L 334.879386 -92.766977 
L 337.12461 -90.586329 
L 339.369835 -88.439918 
L 341.615059 -86.335844 
L 343.860283 -84.281909 
L 346.105507 -82.285201 
L 348.350732 -80.351801 
L 350.595956 -78.486623 
L 352.84118 -76.693347 
L 355.086404 -74.974441 
L 357.331629 -73.331219 
L 359.576853 -71.763925 
L 361.822077 -70.271817 
L 364.067302 -68.853231 
L 366.312526 -67.505655 
L 368.55775 -66.225787 
L 370.802974 -65.009623 
L 373.048199 -63.852561 
L 375.293423 -62.749547 
L 377.538647 -61.695254 
L 379.783872 -60.684294 
L 382.029096 -59.711444 
L 384.27432 -58.771872 
L 386.519544 -57.861334 
L 388.764769 -56.976335 
L 391.009993 -56.114219 
L 393.255217 -55.273196 
L 395.500441 -54.452292 
L 397.745666 -53.651225 
L 399.99089 -52.870232 
L 402.236114 -52.109852 
L 404.481339 -51.370697 
L 406.726563 -50.653227 
L 408.971787 -49.957551 
L 411.217011 -49.283291 
L 413.462236 -48.629492 
L 415.70746 -47.994616 
L 417.952684 -47.376609 
L 420.197908 -46.773037 
L 422.443133 -46.181277 
L 424.688357 -45.598754 
L 426.933581 -45.023196 
L 429.178806 -44.45288 
L 431.42403 -43.886855 
L 433.669254 -43.325104 
L 435.914478 -42.768637 
L 438.159703 -42.219493 
L 440.404927 -41.680656 
L 442.650151 -41.155876 
L 444.895375 -40.649427 
L 447.1406 -40.165804 
L 449.385824 -39.709401 
L 451.631048 -39.284201 
L 453.876273 -38.893498 
L 456.121497 -38.539678 
L 458.366721 -38.224088 
L 460.611945 -37.946985 
L 462.85717 -37.707574 
L 465.102394 -37.504115 
L 467.347618 -37.334091 
L 469.592843 -37.194411 
L 471.838067 -37.081623 
L 474.083291 -36.992124 
L 476.328515 -36.922343 
L 478.57374 -36.868889 
L 480.818964 -36.828664 
L 483.064188 -36.798931 
L 485.309412 -36.777343 
L 487.554637 -36.761948 
L 489.799861 -36.751167 
L 492.045085 -36.743751 
L 492.045085 -36.729688 
L 492.045085 -36.729688 
L 489.799861 -36.729688 
L 487.554637 -36.729688 
L 485.309412 -36.729688 
L 483.064188 -36.729688 
L 480.818964 -36.729688 
L 478.57374 -36.729688 
L 476.328515 -36.729688 
L 474.083291 -36.729688 
L 471.838067 -36.729688 
L 469.592843 -36.729688 
L 467.347618 -36.729688 
L 465.102394 -36.729688 
L 462.85717 -36.729688 
L 460.611945 -36.729688 
L 458.366721 -36.729688 
L 456.121497 -36.729688 
L 453.876273 -36.729688 
L 451.631048 -36.729688 
L 449.385824 -36.729688 
L 447.1406 -36.729688 
L 444.895375 -36.729688 
L 442.650151 -36.729688 
L 440.404927 -36.729688 
L 438.159703 -36.729688 
L 435.914478 -36.729688 
L 433.669254 -36.729688 
L 431.42403 -36.729688 
L 429.178806 -36.729688 
L 426.933581 -36.729688 
L 424.688357 -36.729688 
L 422.443133 -36.729688 
L 420.197908 -36.729688 
L 417.952684 -36.729688 
L 415.70746 -36.729688 
L 413.462236 -36.729688 
L 411.217011 -36.729688 
L 408.971787 -36.729688 
L 406.726563 -36.729688 
L 404.481339 -36.729688 
L 402.236114 -36.729688 
L 399.99089 -36.729688 
L 397.745666 -36.729688 
L 395.500441 -36.729688 
L 393.255217 -36.729688 
L 391.009993 -36.729688 
L 388.764769 -36.729688 
L 386.519544 -36.729688 
L 384.27432 -36.729688 
L 382.029096 -36.729688 
L 379.783872 -36.729688 
L 377.538647 -36.729688 
L 375.293423 -36.729688 
L 373.048199 -36.729688 
L 370.802974 -36.729688 
L 368.55775 -36.729688 
L 366.312526 -36.729688 
L 364.067302 -36.729688 
L 361.822077 -36.729688 
L 359.576853 -36.729688 
L 357.331629 -36.729688 
L 355.086404 -36.729688 
L 352.84118 -36.729688 
L 350.595956 -36.729688 
L 348.350732 -36.729688 
L 346.105507 -36.729688 
L 343.860283 -36.729688 
L 341.615059 -36.729688 
L 339.369835 -36.729688 
L 337.12461 -36.729688 
L 334.879386 -36.729688 
L 332.634162 -36.729688 
L 330.388937 -36.729688 
L 328.143713 -36.729688 
L 325.898489 -36.729688 
L 323.653265 -36.729688 
L 321.40804 -36.729688 
L 319.162816 -36.729688 
L 316.917592 -36.729688 
L 314.672368 -36.729688 
L 312.427143 -36.729688 
L 310.181919 -36.729688 
L 307.936695 -36.729688 
L 305.69147 -36.729688 
L 303.446246 -36.729688 
L 301.201022 -36.729688 
L 298.955798 -36.729688 
L 296.710573 -36.729688 
L 294.465349 -36.729688 
L 292.220125 -36.729688 
L 289.974901 -36.729688 
L 287.729676 -36.729688 
L 285.484452 -36.729688 
L 283.239228 -36.729688 
L 280.994003 -36.729688 
L 278.748779 -36.729688 
L 276.503555 -36.729688 
L 274.258331 -36.729688 
L 272.013106 -36.729688 
L 269.767882 -36.729688 
L 267.522658 -36.729688 
L 265.277433 -36.729688 
L 263.032209 -36.729688 
L 260.786985 -36.729688 
L 258.541761 -36.729688 
L 256.296536 -36.729688 
L 254.051312 -36.729688 
L 251.806088 -36.729688 
L 249.560864 -36.729688 
L 247.315639 -36.729688 
L 245.070415 -36.729688 
L 242.825191 -36.729688 
L 240.579966 -36.729688 
L 238.334742 -36.729688 
L 236.089518 -36.729688 
L 233.844294 -36.729688 
L 231.599069 -36.729688 
L 229.353845 -36.729688 
L 227.108621 -36.729688 
L 224.863397 -36.729688 
L 222.618172 -36.729688 
L 220.372948 -36.729688 
L 218.127724 -36.729688 
L 215.882499 -36.729688 
L 213.637275 -36.729688 
L 211.392051 -36.729688 
L 209.146827 -36.729688 
L 206.901602 -36.729688 
L 204.656378 -36.729688 
L 202.411154 -36.729688 
L 200.16593 -36.729688 
L 197.920705 -36.729688 
L 195.675481 -36.729688 
L 193.430257 -36.729688 
L 191.185032 -36.729688 
L 188.939808 -36.729688 
L 186.694584 -36.729688 
L 184.44936 -36.729688 
L 182.204135 -36.729688 
L 179.958911 -36.729688 
L 177.713687 -36.729688 
L 175.468462 -36.729688 
L 173.223238 -36.729688 
L 170.978014 -36.729688 
L 168.73279 -36.729688 
L 166.487565 -36.729688 
L 164.242341 -36.729688 
L 161.997117 -36.729688 
L 159.751893 -36.729688 
L 157.506668 -36.729688 
L 155.261444 -36.729688 
L 153.01622 -36.729688 
L 150.770995 -36.729688 
L 148.525771 -36.729688 
L 146.280547 -36.729688 
L 144.035323 -36.729688 
L 141.790098 -36.729688 
L 139.544874 -36.729688 
L 137.29965 -36.729688 
L 135.054426 -36.729688 
L 132.809201 -36.729688 
L 130.563977 -36.729688 
L 128.318753 -36.729688 
L 126.073528 -36.729688 
L 123.828304 -36.729688 
L 121.58308 -36.729688 
L 119.337856 -36.729688 
L 117.092631 -36.729688 
L 114.847407 -36.729688 
L 112.602183 -36.729688 
L 110.356959 -36.729688 
L 108.111734 -36.729688 
L 105.86651 -36.729688 
L 103.621286 -36.729688 
L 101.376061 -36.729688 
L 99.130837 -36.729688 
L 96.885613 -36.729688 
L 94.640389 -36.729688 
L 92.395164 -36.729688 
L 90.14994 -36.729688 
L 87.904716 -36.729688 
L 85.659491 -36.729688 
L 83.414267 -36.729688 
L 81.169043 -36.729688 
L 78.923819 -36.729688 
L 76.678594 -36.729688 
L 74.43337 -36.729688 
L 72.188146 -36.729688 
L 69.942922 -36.729688 
L 67.697697 -36.729688 
L 65.452473 -36.729688 
L 63.207249 -36.729688 
L 60.962024 -36.729688 
L 58.7168 -36.729688 
L 56.471576 -36.729688 
L 54.226352 -36.729688 
L 51.981127 -36.729688 
L 49.735903 -36.729688 
L 47.490679 -36.729688 
L 45.245455 -36.729688 
z
" style="stroke: #dd8452; stroke-opacity: 0.2"/>
    </defs>
    <g>
     <use xlink:href="#mf36029f96b" x="0" y="282.943437" style="fill: #dd8452; fill-opacity: 0.2; stroke: #dd8452; stroke-opacity: 0.2"/>
    </g>
   </g>
   <g id="FillBetweenPolyCollection_2">
    <defs>
     <path id="me4eb23bd9f" d="M 421.800095 -36.729688 
L 421.800095 -36.740956 
L 423.731525 -36.74765 
L 425.662954 -36.757683 
L 427.594383 -36.772356 
L 429.525813 -36.79329 
L 431.457242 -36.822426 
L 433.388672 -36.861983 
L 435.320101 -36.914373 
L 437.25153 -36.982057 
L 439.18296 -37.067352 
L 441.114389 -37.172209 
L 443.045819 -37.297973 
L 444.977248 -37.445167 
L 446.908677 -37.613346 
L 448.840107 -37.801044 
L 450.771536 -38.005861 
L 452.702966 -38.224699 
L 454.634395 -38.454133 
L 456.565824 -38.69089 
L 458.497254 -38.932379 
L 460.428683 -39.177193 
L 462.360113 -39.425529 
L 464.291542 -39.679438 
L 466.222971 -39.942874 
L 468.154401 -40.221547 
L 470.08583 -40.522568 
L 472.01726 -40.853988 
L 473.948689 -41.224267 
L 475.880118 -41.641787 
L 477.811548 -42.114457 
L 479.742977 -42.649481 
L 481.674407 -43.253287 
L 483.605836 -43.931587 
L 485.537265 -44.689518 
L 487.468695 -45.531756 
L 489.400124 -46.462529 
L 491.331554 -47.485425 
L 493.262983 -48.602979 
L 495.194412 -49.816029 
L 497.125842 -51.122917 
L 499.057271 -52.518685 
L 500.988701 -53.994429 
L 502.92013 -55.537009 
L 504.851559 -57.12929 
L 506.782989 -58.75102 
L 508.714418 -60.380343 
L 510.645848 -61.995843 
L 512.577277 -63.578873 
L 514.508706 -65.115862 
L 516.440136 -66.600227 
L 518.371565 -68.033592 
L 520.302995 -69.426072 
L 522.234424 -70.795585 
L 524.165853 -72.166291 
L 526.097283 -73.566451 
L 528.028712 -75.026069 
L 529.960142 -76.574736 
L 531.891571 -78.240024 
L 533.823 -80.046628 
L 535.75443 -82.01631 
L 537.685859 -84.168497 
L 539.617289 -86.52127 
L 541.548718 -89.09241 
L 543.480147 -91.900186 
L 545.411577 -94.963639 
L 547.343006 -98.302273 
L 549.274436 -101.935179 
L 551.205865 -105.879754 
L 553.137294 -110.150245 
L 555.068724 -114.756364 
L 557.000153 -119.70218 
L 558.931583 -124.985408 
L 560.863012 -130.597118 
L 562.794441 -136.521782 
L 564.725871 -142.737503 
L 566.6573 -149.216243 
L 568.588729 -155.923892 
L 570.520159 -162.820059 
L 572.451588 -169.85762 
L 574.383018 -176.98214 
L 576.314447 -184.131413 
L 578.245876 -191.235435 
L 580.177306 -198.217124 
L 582.108735 -204.994019 
L 584.040165 -211.481036 
L 585.971594 -217.594173 
L 587.903023 -223.254838 
L 589.834453 -228.394303 
L 591.765882 -232.957748 
L 593.697312 -236.90735 
L 595.628741 -240.224051 
L 597.56017 -242.907816 
L 599.4916 -244.976458 
L 601.423029 -246.463288 
L 603.354459 -247.413953 
L 605.285888 -247.882889 
L 607.217317 -247.929688 
L 609.148747 -247.615619 
L 611.080176 -247.000376 
L 613.011606 -246.139057 
L 614.943035 -245.07939 
L 616.874464 -243.859248 
L 618.805894 -242.504617 
L 620.737323 -241.02829 
L 622.668753 -239.429591 
L 624.600182 -237.695412 
L 626.531611 -235.802697 
L 628.463041 -233.722265 
L 630.39447 -231.423609 
L 632.3259 -228.880072 
L 634.257329 -226.073613 
L 636.188758 -222.998427 
L 638.120188 -219.662802 
L 640.051617 -216.088911 
L 641.983047 -212.31063 
L 643.914476 -208.369811 
L 645.845905 -204.311755 
L 647.777335 -200.18072 
L 649.708764 -196.01622 
L 651.640194 -191.850646 
L 653.571623 -187.708383 
L 655.503052 -183.606238 
L 657.434482 -179.554749 
L 659.365911 -175.559789 
L 661.297341 -171.623947 
L 663.22877 -167.747336 
L 665.160199 -163.927745 
L 667.091629 -160.160306 
L 669.023058 -156.437002 
L 670.954488 -152.74642 
L 672.885917 -149.074039 
L 674.817346 -145.403202 
L 676.748776 -141.716702 
L 678.680205 -137.998716 
L 680.611635 -134.236756 
L 682.543064 -130.423259 
L 684.474493 -126.556563 
L 686.405923 -122.641126 
L 688.337352 -118.687044 
L 690.268782 -114.70902 
L 692.200211 -110.725051 
L 694.13164 -106.75507 
L 696.06307 -102.819779 
L 697.994499 -98.939772 
L 699.925929 -95.134987 
L 701.857358 -91.424423 
L 703.788787 -87.826013 
L 705.720217 -84.35653 
L 707.651646 -81.03143 
L 709.583076 -77.864577 
L 711.514505 -74.867848 
L 713.445934 -72.05068 
L 715.377364 -69.419627 
L 717.308793 -66.978018 
L 719.240223 -64.725784 
L 721.171652 -62.6595 
L 723.103081 -60.772623 
L 725.034511 -59.055906 
L 726.96594 -57.497923 
L 728.89737 -56.08564 
L 730.828799 -54.804972 
L 732.760228 -53.6413 
L 734.691658 -52.579921 
L 736.623087 -51.60644 
L 738.554517 -50.707122 
L 740.485946 -49.869199 
L 742.417375 -49.081145 
L 744.348805 -48.332908 
L 746.280234 -47.616068 
L 748.211664 -46.923911 
L 750.143093 -46.251397 
L 752.074522 -45.595042 
L 754.005952 -44.952715 
L 755.937381 -44.323409 
L 757.868811 -43.707004 
L 759.80024 -43.104083 
L 761.731669 -42.515806 
L 763.663099 -41.943844 
L 765.594528 -41.390353 
L 767.525957 -40.857962 
L 769.457387 -40.349714 
L 771.388816 -39.868952 
L 773.320246 -39.419129 
L 775.251675 -39.003547 
L 777.183104 -38.625062 
L 779.114534 -38.285796 
L 781.045963 -37.986896 
L 782.977393 -37.728393 
L 784.908822 -37.50916 
L 786.840251 -37.326998 
L 788.771681 -37.178815 
L 790.70311 -37.060873 
L 792.63454 -36.969073 
L 794.565969 -36.899224 
L 796.497398 -36.847287 
L 798.428828 -36.809557 
L 800.360257 -36.782784 
L 802.291687 -36.76423 
L 804.223116 -36.751673 
L 806.154545 -36.743376 
L 806.154545 -36.729688 
L 806.154545 -36.729688 
L 804.223116 -36.729688 
L 802.291687 -36.729688 
L 800.360257 -36.729688 
L 798.428828 -36.729688 
L 796.497398 -36.729688 
L 794.565969 -36.729688 
L 792.63454 -36.729688 
L 790.70311 -36.729688 
L 788.771681 -36.729688 
L 786.840251 -36.729688 
L 784.908822 -36.729688 
L 782.977393 -36.729688 
L 781.045963 -36.729688 
L 779.114534 -36.729688 
L 777.183104 -36.729688 
L 775.251675 -36.729688 
L 773.320246 -36.729688 
L 771.388816 -36.729688 
L 769.457387 -36.729688 
L 767.525957 -36.729688 
L 765.594528 -36.729688 
L 763.663099 -36.729688 
L 761.731669 -36.729688 
L 759.80024 -36.729688 
L 757.868811 -36.729688 
L 755.937381 -36.729688 
L 754.005952 -36.729688 
L 752.074522 -36.729688 
L 750.143093 -36.729688 
L 748.211664 -36.729688 
L 746.280234 -36.729688 
L 744.348805 -36.729688 
L 742.417375 -36.729688 
L 740.485946 -36.729688 
L 738.554517 -36.729688 
L 736.623087 -36.729688 
L 734.691658 -36.729688 
L 732.760228 -36.729688 
L 730.828799 -36.729688 
L 728.89737 -36.729688 
L 726.96594 -36.729688 
L 725.034511 -36.729688 
L 723.103081 -36.729688 
L 721.171652 -36.729688 
L 719.240223 -36.729688 
L 717.308793 -36.729688 
L 715.377364 -36.729688 
L 713.445934 -36.729688 
L 711.514505 -36.729688 
L 709.583076 -36.729688 
L 707.651646 -36.729688 
L 705.720217 -36.729688 
L 703.788787 -36.729688 
L 701.857358 -36.729688 
L 699.925929 -36.729688 
L 697.994499 -36.729688 
L 696.06307 -36.729688 
L 694.13164 -36.729688 
L 692.200211 -36.729688 
L 690.268782 -36.729688 
L 688.337352 -36.729688 
L 686.405923 -36.729688 
L 684.474493 -36.729688 
L 682.543064 -36.729688 
L 680.611635 -36.729688 
L 678.680205 -36.729688 
L 676.748776 -36.729688 
L 674.817346 -36.729688 
L 672.885917 -36.729688 
L 670.954488 -36.729688 
L 669.023058 -36.729688 
L 667.091629 -36.729688 
L 665.160199 -36.729688 
L 663.22877 -36.729688 
L 661.297341 -36.729688 
L 659.365911 -36.729688 
L 657.434482 -36.729688 
L 655.503052 -36.729688 
L 653.571623 -36.729688 
L 651.640194 -36.729688 
L 649.708764 -36.729688 
L 647.777335 -36.729688 
L 645.845905 -36.729688 
L 643.914476 -36.729688 
L 641.983047 -36.729688 
L 640.051617 -36.729688 
L 638.120188 -36.729688 
L 636.188758 -36.729688 
L 634.257329 -36.729688 
L 632.3259 -36.729688 
L 630.39447 -36.729688 
L 628.463041 -36.729688 
L 626.531611 -36.729688 
L 624.600182 -36.729688 
L 622.668753 -36.729688 
L 620.737323 -36.729688 
L 618.805894 -36.729688 
L 616.874464 -36.729688 
L 614.943035 -36.729688 
L 613.011606 -36.729688 
L 611.080176 -36.729688 
L 609.148747 -36.729688 
L 607.217317 -36.729688 
L 605.285888 -36.729688 
L 603.354459 -36.729688 
L 601.423029 -36.729688 
L 599.4916 -36.729688 
L 597.56017 -36.729688 
L 595.628741 -36.729688 
L 593.697312 -36.729688 
L 591.765882 -36.729688 
L 589.834453 -36.729688 
L 587.903023 -36.729688 
L 585.971594 -36.729688 
L 584.040165 -36.729688 
L 582.108735 -36.729688 
L 580.177306 -36.729688 
L 578.245876 -36.729688 
L 576.314447 -36.729688 
L 574.383018 -36.729688 
L 572.451588 -36.729688 
L 570.520159 -36.729688 
L 568.588729 -36.729688 
L 566.6573 -36.729688 
L 564.725871 -36.729688 
L 562.794441 -36.729688 
L 560.863012 -36.729688 
L 558.931583 -36.729688 
L 557.000153 -36.729688 
L 555.068724 -36.729688 
L 553.137294 -36.729688 
L 551.205865 -36.729688 
L 549.274436 -36.729688 
L 547.343006 -36.729688 
L 545.411577 -36.729688 
L 543.480147 -36.729688 
L 541.548718 -36.729688 
L 539.617289 -36.729688 
L 537.685859 -36.729688 
L 535.75443 -36.729688 
L 533.823 -36.729688 
L 531.891571 -36.729688 
L 529.960142 -36.729688 
L 528.028712 -36.729688 
L 526.097283 -36.729688 
L 524.165853 -36.729688 
L 522.234424 -36.729688 
L 520.302995 -36.729688 
L 518.371565 -36.729688 
L 516.440136 -36.729688 
L 514.508706 -36.729688 
L 512.577277 -36.729688 
L 510.645848 -36.729688 
L 508.714418 -36.729688 
L 506.782989 -36.729688 
L 504.851559 -36.729688 
L 502.92013 -36.729688 
L 500.988701 -36.729688 
L 499.057271 -36.729688 
L 497.125842 -36.729688 
L 495.194412 -36.729688 
L 493.262983 -36.729688 
L 491.331554 -36.729688 
L 489.400124 -36.729688 
L 487.468695 -36.729688 
L 485.537265 -36.729688 
L 483.605836 -36.729688 
L 481.674407 -36.729688 
L 479.742977 -36.729688 
L 477.811548 -36.729688 
L 475.880118 -36.729688 
L 473.948689 -36.729688 
L 472.01726 -36.729688 
L 470.08583 -36.729688 
L 468.154401 -36.729688 
L 466.222971 -36.729688 
L 464.291542 -36.729688 
L 462.360113 -36.729688 
L 460.428683 -36.729688 
L 458.497254 -36.729688 
L 456.565824 -36.729688 
L 454.634395 -36.729688 
L 452.702966 -36.729688 
L 450.771536 -36.729688 
L 448.840107 -36.729688 
L 446.908677 -36.729688 
L 444.977248 -36.729688 
L 443.045819 -36.729688 
L 441.114389 -36.729688 
L 439.18296 -36.729688 
L 437.25153 -36.729688 
L 435.320101 -36.729688 
L 433.388672 -36.729688 
L 431.457242 -36.729688 
L 429.525813 -36.729688 
L 427.594383 -36.729688 
L 425.662954 -36.729688 
L 423.731525 -36.729688 
L 421.800095 -36.729688 
z
" style="stroke: #4c72b0; stroke-opacity: 0.2"/>
    </defs>
    <g>
     <use xlink:href="#me4eb23bd9f" x="0" y="282.943437" style="fill: #4c72b0; fill-opacity: 0.2; stroke: #4c72b0; stroke-opacity: 0.2"/>
    </g>
   </g>
   <g id="FillBetweenPolyCollection_3">
    <defs>
     <path id="m902b4b3f09" d="M 45.245455 -36.758543 
L 45.245455 -36.729688 
L 47.490679 -36.729688 
L 49.735903 -36.729688 
L 51.981127 -36.729688 
L 54.226352 -36.729688 
L 56.471576 -36.729688 
L 58.7168 -36.729688 
L 60.962024 -36.729688 
L 63.207249 -36.729688 
L 65.452473 -36.729688 
L 67.697697 -36.729688 
L 69.942922 -36.729688 
L 72.188146 -36.729688 
L 74.43337 -36.729688 
L 76.678594 -36.729688 
L 78.923819 -36.729688 
L 81.169043 -36.729688 
L 83.414267 -36.729688 
L 85.659491 -36.729688 
L 87.904716 -36.729688 
L 90.14994 -36.729688 
L 92.395164 -36.729688 
L 94.640389 -36.729688 
L 96.885613 -36.729688 
L 99.130837 -36.729688 
L 101.376061 -36.729688 
L 103.621286 -36.729688 
L 105.86651 -36.729688 
L 108.111734 -36.729688 
L 110.356959 -36.729688 
L 112.602183 -36.729688 
L 114.847407 -36.729688 
L 117.092631 -36.729688 
L 119.337856 -36.729688 
L 121.58308 -36.729688 
L 123.828304 -36.729688 
L 126.073528 -36.729688 
L 128.318753 -36.729688 
L 130.563977 -36.729688 
L 132.809201 -36.729688 
L 135.054426 -36.729688 
L 137.29965 -36.729688 
L 139.544874 -36.729688 
L 141.790098 -36.729688 
L 144.035323 -36.729688 
L 146.280547 -36.729688 
L 148.525771 -36.729688 
L 150.770995 -36.729688 
L 153.01622 -36.729688 
L 155.261444 -36.729688 
L 157.506668 -36.729688 
L 159.751893 -36.729688 
L 161.997117 -36.729688 
L 164.242341 -36.729688 
L 166.487565 -36.729688 
L 168.73279 -36.729688 
L 170.978014 -36.729688 
L 173.223238 -36.729688 
L 175.468462 -36.729688 
L 177.713687 -36.729688 
L 179.958911 -36.729688 
L 182.204135 -36.729688 
L 184.44936 -36.729688 
L 186.694584 -36.729688 
L 188.939808 -36.729688 
L 191.185032 -36.729688 
L 193.430257 -36.729688 
L 195.675481 -36.729688 
L 197.920705 -36.729688 
L 200.16593 -36.729688 
L 202.411154 -36.729688 
L 204.656378 -36.729688 
L 206.901602 -36.729688 
L 209.146827 -36.729688 
L 211.392051 -36.729688 
L 213.637275 -36.729688 
L 215.882499 -36.729688 
L 218.127724 -36.729688 
L 220.372948 -36.729688 
L 222.618172 -36.729688 
L 224.863397 -36.729688 
L 227.108621 -36.729688 
L 229.353845 -36.729688 
L 231.599069 -36.729688 
L 233.844294 -36.729688 
L 236.089518 -36.729688 
L 238.334742 -36.729688 
L 240.579966 -36.729688 
L 242.825191 -36.729688 
L 245.070415 -36.729688 
L 247.315639 -36.729688 
L 249.560864 -36.729688 
L 251.806088 -36.729688 
L 254.051312 -36.729688 
L 256.296536 -36.729688 
L 258.541761 -36.729688 
L 260.786985 -36.729688 
L 263.032209 -36.729688 
L 265.277433 -36.729688 
L 267.522658 -36.729688 
L 268.719181 -36.729688 
L 268.719181 -172.611656 
L 268.719181 -172.611656 
L 267.522658 -174.202644 
L 265.277433 -177.091498 
L 263.032209 -179.843489 
L 260.786985 -182.431954 
L 258.541761 -184.831117 
L 256.296536 -187.017272 
L 254.051312 -188.969959 
L 251.806088 -190.673002 
L 249.560864 -192.115308 
L 247.315639 -193.291347 
L 245.070415 -194.201258 
L 242.825191 -194.85055 
L 240.579966 -195.249422 
L 238.334742 -195.411759 
L 236.089518 -195.353864 
L 233.844294 -195.093047 
L 231.599069 -194.646189 
L 229.353845 -194.028389 
L 227.108621 -193.251815 
L 224.863397 -192.324861 
L 222.618172 -191.251675 
L 220.372948 -190.032087 
L 218.127724 -188.661953 
L 215.882499 -187.133869 
L 213.637275 -185.438189 
L 211.392051 -183.564248 
L 209.146827 -181.501702 
L 206.901602 -179.241856 
L 204.656378 -176.778886 
L 202.411154 -174.110876 
L 200.16593 -171.24059 
L 197.920705 -168.175955 
L 195.675481 -164.930214 
L 193.430257 -161.521779 
L 191.185032 -157.973773 
L 188.939808 -154.313316 
L 186.694584 -150.570572 
L 184.44936 -146.777636 
L 182.204135 -142.967286 
L 179.958911 -139.171684 
L 177.713687 -135.421087 
L 175.468462 -131.74264 
L 173.223238 -128.159316 
L 170.978014 -124.689086 
L 168.73279 -121.344358 
L 166.487565 -118.131739 
L 164.242341 -115.052147 
L 161.997117 -112.101254 
L 159.751893 -109.270252 
L 157.506668 -106.546873 
L 155.261444 -103.916592 
L 153.01622 -101.363913 
L 150.770995 -98.873639 
L 148.525771 -96.432011 
L 146.280547 -94.027638 
L 144.035323 -91.65212 
L 141.790098 -89.300354 
L 139.544874 -86.97048 
L 137.29965 -84.663518 
L 135.054426 -82.382746 
L 132.809201 -80.132893 
L 130.563977 -77.919273 
L 128.318753 -75.746935 
L 126.073528 -73.619942 
L 123.828304 -71.540859 
L 121.58308 -69.510493 
L 119.337856 -67.527905 
L 117.092631 -65.590699 
L 114.847407 -63.695522 
L 112.602183 -61.838732 
L 110.356959 -60.017134 
L 108.111734 -58.228704 
L 105.86651 -56.473201 
L 103.621286 -54.752605 
L 101.376061 -53.071309 
L 99.130837 -51.436047 
L 96.885613 -49.85556 
L 94.640389 -48.340027 
L 92.395164 -46.900326 
L 90.14994 -45.547201 
L 87.904716 -44.290423 
L 85.659491 -43.138032 
L 83.414267 -42.095735 
L 81.169043 -41.16651 
L 78.923819 -40.35044 
L 76.678594 -39.644782 
L 74.43337 -39.044246 
L 72.188146 -38.541424 
L 69.942922 -38.127334 
L 67.697697 -37.791999 
L 65.452473 -37.525018 
L 63.207249 -37.316074 
L 60.962024 -37.155354 
L 58.7168 -37.033862 
L 56.471576 -36.943616 
L 54.226352 -36.877748 
L 51.981127 -36.830514 
L 49.735903 -36.797236 
L 47.490679 -36.774203 
L 45.245455 -36.758543 
z
"/>
    </defs>
    <g>
     <use xlink:href="#m902b4b3f09" x="0" y="282.943437" style="fill: #dd8452; fill-opacity: 0.3"/>
    </g>
   </g>
   <g id="line2d_29">
    <path d="M 45.245455 246.184895 
L 56.471576 245.999822 
L 63.207249 245.627364 
L 67.697697 245.151439 
L 72.188146 244.402014 
L 76.678594 243.298655 
L 81.169043 241.776927 
L 85.659491 239.805406 
L 90.14994 237.396236 
L 94.640389 234.603411 
L 99.130837 231.507391 
L 105.86651 226.470236 
L 112.602183 221.104706 
L 119.337856 215.415532 
L 126.073528 209.323496 
L 132.809201 202.810544 
L 139.544874 195.972958 
L 148.525771 186.511426 
L 155.261444 179.026845 
L 159.751893 173.673185 
L 164.242341 167.891291 
L 168.73279 161.59908 
L 173.223238 154.784121 
L 177.713687 147.52235 
L 193.430257 121.421659 
L 197.920705 114.767483 
L 200.16593 111.702847 
L 202.411154 108.832562 
L 204.656378 106.164552 
L 206.901602 103.701582 
L 209.146827 101.441736 
L 211.392051 99.37919 
L 213.637275 97.505249 
L 215.882499 95.809568 
L 218.127724 94.281485 
L 220.372948 92.911351 
L 222.618172 91.691762 
L 224.863397 90.618576 
L 227.108621 89.691623 
L 229.353845 88.915049 
L 231.599069 88.297248 
L 233.844294 87.850391 
L 236.089518 87.589574 
L 238.334742 87.531678 
L 240.579966 87.694015 
L 242.825191 88.092888 
L 245.070415 88.742179 
L 247.315639 89.65209 
L 249.560864 90.82813 
L 251.806088 92.270435 
L 254.051312 93.973478 
L 256.296536 95.926166 
L 258.541761 98.112321 
L 260.786985 100.511483 
L 265.277433 105.85194 
L 269.767882 111.740059 
L 276.503555 121.156518 
L 287.729676 137.099358 
L 294.465349 146.221911 
L 298.955798 151.971039 
L 303.446246 157.414488 
L 307.936695 162.557854 
L 314.672368 169.81156 
L 323.653265 178.994741 
L 334.879386 190.176461 
L 341.615059 196.607593 
L 346.105507 200.658237 
L 350.595956 204.456814 
L 355.086404 207.968997 
L 359.576853 211.179512 
L 364.067302 214.090206 
L 368.55775 216.71765 
L 373.048199 219.090876 
L 377.538647 221.248184 
L 384.27432 224.171566 
L 391.009993 226.829219 
L 397.745666 229.292212 
L 404.481339 231.57274 
L 411.217011 233.660146 
L 420.197908 236.1704 
L 433.669254 239.618333 
L 444.895375 242.29401 
L 451.631048 243.659236 
L 458.366721 244.71935 
L 465.102394 245.439322 
L 471.838067 245.861814 
L 480.818964 246.114773 
L 492.045085 246.199687 
L 492.045085 246.199687 
" style="fill: none; stroke: #dd8452; stroke-width: 1.5; stroke-linecap: round"/>
   </g>
   <g id="line2d_30">
    <path d="M 421.800095 246.202482 
L 433.388672 246.081454 
L 441.114389 245.771229 
L 446.908677 245.330091 
L 454.634395 244.489304 
L 468.154401 242.721891 
L 473.948689 241.71917 
L 477.811548 240.828981 
L 481.674407 239.690151 
L 485.537265 238.253919 
L 489.400124 236.480909 
L 493.262983 234.340458 
L 497.125842 231.820521 
L 500.988701 228.949008 
L 506.782989 224.192418 
L 512.577277 219.364564 
L 516.440136 216.34321 
L 522.234424 212.147853 
L 528.028712 207.917369 
L 531.891571 204.703414 
L 533.823 202.89681 
L 535.75443 200.927127 
L 537.685859 198.77494 
L 539.617289 196.422168 
L 541.548718 193.851028 
L 543.480147 191.043252 
L 545.411577 187.979799 
L 547.343006 184.641164 
L 549.274436 181.008259 
L 551.205865 177.063684 
L 553.137294 172.793193 
L 555.068724 168.187074 
L 557.000153 163.241258 
L 558.931583 157.958029 
L 562.794441 146.421655 
L 566.6573 133.727194 
L 570.520159 120.123378 
L 582.108735 77.949419 
L 585.971594 65.349264 
L 587.903023 59.6886 
L 589.834453 54.549135 
L 591.765882 49.98569 
L 593.697312 46.036087 
L 595.628741 42.719386 
L 597.56017 40.035622 
L 599.4916 37.966979 
L 601.423029 36.48015 
L 603.354459 35.529484 
L 605.285888 35.060549 
L 607.217317 35.01375 
L 609.148747 35.327818 
L 611.080176 35.943062 
L 613.011606 36.804381 
L 614.943035 37.864047 
L 616.874464 39.084189 
L 620.737323 41.915147 
L 624.600182 45.248025 
L 626.531611 47.14074 
L 628.463041 49.221173 
L 630.39447 51.519828 
L 632.3259 54.063365 
L 634.257329 56.869825 
L 636.188758 59.94501 
L 638.120188 63.280636 
L 641.983047 70.632807 
L 645.845905 78.631683 
L 659.365911 107.383649 
L 665.160199 119.015693 
L 672.885917 133.869399 
L 680.611635 148.706682 
L 686.405923 160.302312 
L 699.925929 187.808451 
L 703.788787 195.117424 
L 707.651646 201.912007 
L 711.514505 208.07559 
L 715.377364 213.52381 
L 717.308793 215.96542 
L 719.240223 218.217653 
L 721.171652 220.283937 
L 723.103081 222.170814 
L 725.034511 223.887531 
L 726.96594 225.445514 
L 730.828799 228.138465 
L 734.691658 230.363517 
L 738.554517 232.236315 
L 742.417375 233.862293 
L 748.211664 236.019527 
L 755.937381 238.620029 
L 763.663099 240.999594 
L 769.457387 242.593723 
L 775.251675 243.939891 
L 779.114534 244.657642 
L 782.977393 245.215044 
L 788.771681 245.764623 
L 794.565969 246.044214 
L 802.291687 246.179208 
L 806.154545 246.200062 
L 806.154545 246.200062 
" style="fill: none; stroke: #4c72b0; stroke-width: 1.5; stroke-linecap: round"/>
   </g>
   <g id="line2d_31">
    <path d="M 268.719181 246.21375 
L 268.719181 24.45375 
" style="fill: none; stroke-dasharray: 0.8,1.32; stroke-dashoffset: 0; stroke: #d3d3d3; stroke-width: 0.8"/>
   </g>
   <g id="line2d_32">
    <path d="M 7.2 246.21375 
L 844.2 246.21375 
" style="fill: none; stroke: #808080; stroke-width: 0.5; stroke-linecap: round"/>
   </g>
   <g id="AnnotationBbox_1">
    <g id="text_12">
     <text style="font-weight: 700; font-size: 8px; font-family: 'Arial', 'DejaVu Sans', 'Liberation Sans', 'Bitstream Vera Sans', sans-serif; text-anchor: end; fill: #808080" x="268.719181" y="12.92625" transform="rotate(-0 268.719181 12.92625)">International Poverty Line</text>
    </g>
    <g id="text_13">
     <text style="font-size: 8px; font-family: 'Arial', 'DejaVu Sans', 'Liberation Sans', 'Bitstream Vera Sans', sans-serif; text-anchor: end; fill: #808080" x="268.719181" y="22.86375" transform="rotate(-0 268.719181 22.86375)">$90 per month</text>
    </g>
   </g>
   <g id="legend_1">
    <g id="patch_3">
     <path d="M 683.8 119.597937 
L 770.825 119.597937 
Q 772.825 119.597937 772.825 117.597937 
L 772.825 75.80575 
Q 772.825 73.80575 770.825 73.80575 
L 683.8 73.80575 
Q 681.8 73.80575 681.8 75.80575 
L 681.8 117.597937 
Q 681.8 119.597937 683.8 119.597937 
z
" style="fill: #ffffff; opacity: 0.8; stroke: #cccccc; stroke-linejoin: miter"/>
    </g>
    <g id="text_14">
     <text style="font-size: 10px; font-family: 'Arial', 'DejaVu Sans', 'Liberation Sans', 'Bitstream Vera Sans', sans-serif; text-anchor: start; fill: #262626" x="709.80625" y="85.085437" transform="rotate(-0 709.80625 85.085437)">Country</text>
    </g>
    <g id="line2d_33">
     <path d="M 685.8 95.847937 
L 695.8 95.847937 
L 705.8 95.847937 
" style="fill: none; stroke: #4c72b0; stroke-width: 1.5; stroke-linecap: round"/>
    </g>
    <g id="text_15">
     <text style="font-size: 10px; font-family: 'Arial', 'DejaVu Sans', 'Liberation Sans', 'Bitstream Vera Sans', sans-serif; text-anchor: start; fill: #262626" x="713.8" y="99.347937" transform="rotate(-0 713.8 99.347937)">Denmark</text>
    </g>
    <g id="line2d_34">
     <path d="M 685.8 109.99325 
L 695.8 109.99325 
L 705.8 109.99325 
" style="fill: none; stroke: #dd8452; stroke-width: 1.5; stroke-linecap: round"/>
    </g>
    <g id="text_16">
     <text style="font-size: 10px; font-family: 'Arial', 'DejaVu Sans', 'Liberation Sans', 'Bitstream Vera Sans', sans-serif; text-anchor: start; fill: #262626" x="713.8" y="113.49325" transform="rotate(-0 713.8 113.49325)">Madagascar</text>
    </g>
   </g>
  </g>
 </g>
</svg>
