<?xml version="1.0" encoding="utf-8" standalone="no"?>
<!DOCTYPE svg PUBLIC "-//W3C//DTD SVG 1.1//EN"
  "http://www.w3.org/Graphics/SVG/1.1/DTD/svg11.dtd">
<svg xmlns:xlink="http://www.w3.org/1999/xlink" width="1080pt" height="540pt" viewBox="0 0 1080 540" xmlns="http://www.w3.org/2000/svg" version="1.1">
 <metadata>
  <rdf:RDF xmlns:dc="http://purl.org/dc/elements/1.1/" xmlns:cc="http://creativecommons.org/ns#" xmlns:rdf="http://www.w3.org/1999/02/22-rdf-syntax-ns#">
   <cc:Work>
    <dc:type rdf:resource="http://purl.org/dc/dcmitype/StillImage"/>
    <dc:date>2025-03-17T18:13:49.914916</dc:date>
    <dc:format>image/svg+xml</dc:format>
    <dc:creator>
     <cc:Agent>
      <dc:title>Matplotlib v3.10.1, https://matplotlib.org/</dc:title>
     </cc:Agent>
    </dc:creator>
   </cc:Work>
  </rdf:RDF>
 </metadata>
 <defs>
  <style type="text/css">*{stroke-linejoin: round; stroke-linecap: butt}</style>
 </defs>
 <g id="figure_1">
  <g id="patch_1">
   <path d="M 0 540 
L 1080 540 
L 1080 0 
L 0 0 
z
" style="fill: #ffffff"/>
  </g>
  <g id="axes_1">
   <g id="patch_2">
    <path d="M 135 480.6 
L 972 480.6 
L 972 64.8 
L 135 64.8 
z
" style="fill: #ffffff"/>
   </g>
   <g id="FillBetweenPolyCollection_1">
    <defs>
     <path id="mefa44c285c" d="M 173.045455 -59.509518 
L 173.045455 -59.4 
L 174.956646 -59.4 
L 176.867838 -59.4 
L 178.77903 -59.4 
L 180.690221 -59.4 
L 182.601413 -59.4 
L 184.512605 -59.4 
L 186.423797 -59.4 
L 188.334988 -59.4 
L 190.24618 -59.4 
L 192.157372 -59.4 
L 194.068564 -59.4 
L 195.979755 -59.4 
L 197.890947 -59.4 
L 199.802139 -59.4 
L 201.713331 -59.4 
L 203.624522 -59.4 
L 205.535714 -59.4 
L 207.446906 -59.4 
L 209.358098 -59.4 
L 211.269289 -59.4 
L 213.180481 -59.4 
L 215.091673 -59.4 
L 217.002864 -59.4 
L 218.914056 -59.4 
L 220.825248 -59.4 
L 222.73644 -59.4 
L 224.647631 -59.4 
L 226.558823 -59.4 
L 228.470015 -59.4 
L 230.381207 -59.4 
L 232.292398 -59.4 
L 234.20359 -59.4 
L 236.114782 -59.4 
L 238.025974 -59.4 
L 239.937165 -59.4 
L 241.848357 -59.4 
L 243.759549 -59.4 
L 245.670741 -59.4 
L 247.581932 -59.4 
L 249.493124 -59.4 
L 251.404316 -59.4 
L 253.315507 -59.4 
L 255.226699 -59.4 
L 257.137891 -59.4 
L 259.049083 -59.4 
L 260.960274 -59.4 
L 262.871466 -59.4 
L 264.782658 -59.4 
L 266.69385 -59.4 
L 268.605041 -59.4 
L 270.516233 -59.4 
L 272.427425 -59.4 
L 274.338617 -59.4 
L 276.249808 -59.4 
L 278.161 -59.4 
L 280.072192 -59.4 
L 281.983384 -59.4 
L 283.894575 -59.4 
L 285.805767 -59.4 
L 287.716959 -59.4 
L 289.62815 -59.4 
L 291.539342 -59.4 
L 293.450534 -59.4 
L 295.361726 -59.4 
L 297.272917 -59.4 
L 299.184109 -59.4 
L 301.095301 -59.4 
L 303.006493 -59.4 
L 304.917684 -59.4 
L 306.828876 -59.4 
L 308.740068 -59.4 
L 310.65126 -59.4 
L 312.562451 -59.4 
L 314.473643 -59.4 
L 316.384835 -59.4 
L 318.296027 -59.4 
L 320.207218 -59.4 
L 322.11841 -59.4 
L 324.029602 -59.4 
L 325.940793 -59.4 
L 327.851985 -59.4 
L 329.763177 -59.4 
L 331.674369 -59.4 
L 333.58556 -59.4 
L 335.496752 -59.4 
L 337.407944 -59.4 
L 339.319136 -59.4 
L 341.230327 -59.4 
L 343.141519 -59.4 
L 345.052711 -59.4 
L 346.963903 -59.4 
L 348.875094 -59.4 
L 350.786286 -59.4 
L 352.697478 -59.4 
L 354.60867 -59.4 
L 356.519861 -59.4 
L 358.431053 -59.4 
L 360.342245 -59.4 
L 362.253436 -59.4 
L 364.164628 -59.4 
L 366.07582 -59.4 
L 367.987012 -59.4 
L 369.898203 -59.4 
L 371.809395 -59.4 
L 373.720587 -59.4 
L 375.631779 -59.4 
L 377.54297 -59.4 
L 379.454162 -59.4 
L 381.365354 -59.4 
L 383.276546 -59.4 
L 385.187737 -59.4 
L 387.098929 -59.4 
L 389.010121 -59.4 
L 390.921313 -59.4 
L 392.832504 -59.4 
L 394.743696 -59.4 
L 396.654888 -59.4 
L 398.566079 -59.4 
L 400.477271 -59.4 
L 402.388463 -59.4 
L 404.299655 -59.4 
L 406.210846 -59.4 
L 408.122038 -59.4 
L 410.03323 -59.4 
L 411.944422 -59.4 
L 413.855613 -59.4 
L 415.766805 -59.4 
L 417.677997 -59.4 
L 419.589189 -59.4 
L 421.50038 -59.4 
L 423.411572 -59.4 
L 425.322764 -59.4 
L 427.233956 -59.4 
L 429.145147 -59.4 
L 431.056339 -59.4 
L 432.967531 -59.4 
L 434.878722 -59.4 
L 436.789914 -59.4 
L 438.701106 -59.4 
L 440.612298 -59.4 
L 442.523489 -59.4 
L 444.434681 -59.4 
L 446.345873 -59.4 
L 448.257065 -59.4 
L 450.168256 -59.4 
L 452.079448 -59.4 
L 453.99064 -59.4 
L 455.901832 -59.4 
L 457.813023 -59.4 
L 459.724215 -59.4 
L 461.635407 -59.4 
L 463.546599 -59.4 
L 465.45779 -59.4 
L 467.368982 -59.4 
L 469.280174 -59.4 
L 471.191365 -59.4 
L 473.102557 -59.4 
L 475.013749 -59.4 
L 476.924941 -59.4 
L 478.836132 -59.4 
L 480.747324 -59.4 
L 482.658516 -59.4 
L 484.569708 -59.4 
L 486.480899 -59.4 
L 488.392091 -59.4 
L 490.303283 -59.4 
L 492.214475 -59.4 
L 494.125666 -59.4 
L 496.036858 -59.4 
L 497.94805 -59.4 
L 499.859242 -59.4 
L 501.770433 -59.4 
L 503.681625 -59.4 
L 505.592817 -59.4 
L 507.504008 -59.4 
L 509.4152 -59.4 
L 511.326392 -59.4 
L 513.237584 -59.4 
L 515.148775 -59.4 
L 517.059967 -59.4 
L 518.971159 -59.4 
L 520.882351 -59.4 
L 522.793542 -59.4 
L 524.704734 -59.4 
L 526.615926 -59.4 
L 528.527118 -59.4 
L 530.438309 -59.4 
L 532.349501 -59.4 
L 534.260693 -59.4 
L 536.171885 -59.4 
L 538.083076 -59.4 
L 539.994268 -59.4 
L 541.90546 -59.4 
L 543.816651 -59.4 
L 545.727843 -59.4 
L 547.639035 -59.4 
L 549.550227 -59.4 
L 551.461418 -59.4 
L 553.37261 -59.4 
L 553.37261 -59.518061 
L 553.37261 -59.518061 
L 551.461418 -59.557871 
L 549.550227 -59.609268 
L 547.639035 -59.675 
L 545.727843 -59.75827 
L 543.816651 -59.862765 
L 541.90546 -59.992667 
L 539.994268 -60.152645 
L 538.083076 -60.347828 
L 536.171885 -60.583763 
L 534.260693 -60.866336 
L 532.349501 -61.20168 
L 530.438309 -61.596054 
L 528.527118 -62.055703 
L 526.615926 -62.586707 
L 524.704734 -63.19482 
L 522.793542 -63.885307 
L 520.882351 -64.662803 
L 518.971159 -65.531187 
L 517.059967 -66.493488 
L 515.148775 -67.551847 
L 513.237584 -68.707515 
L 511.326392 -69.96092 
L 509.4152 -71.311791 
L 507.504008 -72.759332 
L 505.592817 -74.302454 
L 503.681625 -75.940041 
L 501.770433 -77.67124 
L 499.859242 -79.495757 
L 497.94805 -81.414136 
L 496.036858 -83.428005 
L 494.125666 -85.540266 
L 492.214475 -87.755207 
L 490.303283 -90.078537 
L 488.392091 -92.517319 
L 486.480899 -95.079813 
L 484.569708 -97.775235 
L 482.658516 -100.61343 
L 480.747324 -103.6045 
L 478.836132 -106.758394 
L 476.924941 -110.084492 
L 475.013749 -113.591221 
L 473.102557 -117.285713 
L 471.191365 -121.173545 
L 469.280174 -125.258576 
L 467.368982 -129.542882 
L 465.45779 -134.026802 
L 463.546599 -138.709092 
L 461.635407 -143.587147 
L 459.724215 -148.657306 
L 457.813023 -153.915166 
L 455.901832 -159.355914 
L 453.99064 -164.974614 
L 452.079448 -170.76643 
L 450.168256 -176.726774 
L 448.257065 -182.851333 
L 446.345873 -189.136008 
L 444.434681 -195.576734 
L 442.523489 -202.169231 
L 440.612298 -208.908685 
L 438.701106 -215.789409 
L 436.789914 -222.804508 
L 434.878722 -229.945598 
L 432.967531 -237.202591 
L 431.056339 -244.563593 
L 429.145147 -252.014905 
L 427.233956 -259.541159 
L 425.322764 -267.125549 
L 423.411572 -274.750163 
L 421.50038 -282.396371 
L 419.589189 -290.045235 
L 417.677997 -297.677906 
L 415.766805 -305.275962 
L 413.855613 -312.821663 
L 411.944422 -320.298083 
L 410.03323 -327.689114 
L 408.122038 -334.979334 
L 406.210846 -342.153748 
L 404.299655 -349.197418 
L 402.388463 -356.095023 
L 400.477271 -362.830382 
L 398.566079 -369.385974 
L 396.654888 -375.742517 
L 394.743696 -381.878634 
L 392.832504 -387.770639 
L 390.921313 -393.392483 
L 389.010121 -398.715864 
L 387.098929 -403.710503 
L 385.187737 -408.344596 
L 383.276546 -412.585399 
L 381.365354 -416.399941 
L 379.454162 -419.755812 
L 377.54297 -422.621992 
L 375.631779 -424.969693 
L 373.720587 -426.773139 
L 371.809395 -428.010289 
L 369.898203 -428.663439 
L 367.987012 -428.719694 
L 366.07582 -428.171291 
L 364.164628 -427.015772 
L 362.253436 -425.255997 
L 360.342245 -422.900023 
L 358.431053 -419.960847 
L 356.519861 -416.456057 
L 354.60867 -412.407391 
L 352.697478 -407.840247 
L 350.786286 -402.783164 
L 348.875094 -397.267288 
L 346.963903 -391.325857 
L 345.052711 -384.993705 
L 343.141519 -378.306804 
L 341.230327 -371.301845 
L 339.319136 -364.015866 
L 337.407944 -356.485911 
L 335.496752 -348.748733 
L 333.58556 -340.84052 
L 331.674369 -332.796644 
L 329.763177 -324.651434 
L 327.851985 -316.437947 
L 325.940793 -308.187767 
L 324.029602 -299.930796 
L 322.11841 -291.695067 
L 320.207218 -283.506572 
L 318.296027 -275.389105 
L 316.384835 -267.364133 
L 314.473643 -259.450705 
L 312.562451 -251.665393 
L 310.65126 -244.022278 
L 308.740068 -236.53298 
L 306.828876 -229.206742 
L 304.917684 -222.050549 
L 303.006493 -215.069301 
L 301.095301 -208.266015 
L 299.184109 -201.642066 
L 297.272917 -195.197449 
L 295.361726 -188.931058 
L 293.450534 -182.840974 
L 291.539342 -176.924752 
L 289.62815 -171.179695 
L 287.716959 -165.603114 
L 285.805767 -160.192559 
L 283.894575 -154.946022 
L 281.983384 -149.862095 
L 280.072192 -144.940087 
L 278.161 -140.180091 
L 276.249808 -135.582998 
L 274.338617 -131.15046 
L 272.427425 -126.884794 
L 270.516233 -122.788837 
L 268.605041 -118.865751 
L 266.69385 -115.118789 
L 264.782658 -111.551021 
L 262.871466 -108.16505 
L 260.960274 -104.962709 
L 259.049083 -101.944777 
L 257.137891 -99.110719 
L 255.226699 -96.458464 
L 253.315507 -93.98425 
L 251.404316 -91.682539 
L 249.493124 -89.546021 
L 247.581932 -87.565701 
L 245.670741 -85.731084 
L 243.759549 -84.03044 
L 241.848357 -82.451148 
L 239.937165 -80.980087 
L 238.025974 -79.604068 
L 236.114782 -78.310271 
L 234.20359 -77.086667 
L 232.292398 -75.922395 
L 230.381207 -74.808073 
L 228.470015 -73.736029 
L 226.558823 -72.70043 
L 224.647631 -71.697318 
L 222.73644 -70.724538 
L 220.825248 -69.781582 
L 218.914056 -68.869357 
L 217.002864 -67.989888 
L 215.091673 -67.145995 
L 213.180481 -66.340953 
L 211.269289 -65.578164 
L 209.358098 -64.86085 
L 207.446906 -64.191802 
L 205.535714 -63.573175 
L 203.624522 -63.006345 
L 201.713331 -62.491837 
L 199.802139 -62.029301 
L 197.890947 -61.617553 
L 195.979755 -61.254644 
L 194.068564 -60.937982 
L 192.157372 -60.664452 
L 190.24618 -60.430568 
L 188.334988 -60.232611 
L 186.423797 -60.066759 
L 184.512605 -59.929217 
L 182.601413 -59.816308 
L 180.690221 -59.724559 
L 178.77903 -59.650757 
L 176.867838 -59.59199 
L 174.956646 -59.545667 
L 173.045455 -59.509518 
z
" style="stroke: #ff7f0e"/>
    </defs>
    <g clip-path="url(#p7bf7c46084)">
     <use xlink:href="#mefa44c285c" x="0" y="540" style="fill: #ff7f0e; fill-opacity: 0.25; stroke: #ff7f0e"/>
    </g>
   </g>
   <g id="FillBetweenPolyCollection_2">
    <defs>
     <path id="m9dc4ffa3e3" d="M 435.080391 -59.501367 
L 435.080391 -59.4 
L 437.587296 -59.4 
L 440.094201 -59.4 
L 442.601107 -59.4 
L 445.108012 -59.4 
L 447.614917 -59.4 
L 450.121822 -59.4 
L 452.628728 -59.4 
L 455.135633 -59.4 
L 457.642538 -59.4 
L 460.149444 -59.4 
L 462.656349 -59.4 
L 465.163254 -59.4 
L 467.67016 -59.4 
L 470.177065 -59.4 
L 472.68397 -59.4 
L 475.190875 -59.4 
L 477.697781 -59.4 
L 480.204686 -59.4 
L 482.711591 -59.4 
L 485.218497 -59.4 
L 487.725402 -59.4 
L 490.232307 -59.4 
L 492.739213 -59.4 
L 495.246118 -59.4 
L 497.753023 -59.4 
L 500.259928 -59.4 
L 502.766834 -59.4 
L 505.273739 -59.4 
L 507.780644 -59.4 
L 510.28755 -59.4 
L 512.794455 -59.4 
L 515.30136 -59.4 
L 517.808266 -59.4 
L 520.315171 -59.4 
L 522.822076 -59.4 
L 525.328981 -59.4 
L 527.835887 -59.4 
L 530.342792 -59.4 
L 532.849697 -59.4 
L 535.356603 -59.4 
L 537.863508 -59.4 
L 540.370413 -59.4 
L 542.877319 -59.4 
L 545.384224 -59.4 
L 547.891129 -59.4 
L 550.398034 -59.4 
L 552.90494 -59.4 
L 555.411845 -59.4 
L 557.91875 -59.4 
L 560.425656 -59.4 
L 562.932561 -59.4 
L 565.439466 -59.4 
L 567.946372 -59.4 
L 570.453277 -59.4 
L 572.960182 -59.4 
L 575.467087 -59.4 
L 577.973993 -59.4 
L 580.480898 -59.4 
L 582.987803 -59.4 
L 585.494709 -59.4 
L 588.001614 -59.4 
L 590.508519 -59.4 
L 593.015425 -59.4 
L 595.52233 -59.4 
L 598.029235 -59.4 
L 600.53614 -59.4 
L 603.043046 -59.4 
L 605.549951 -59.4 
L 608.056856 -59.4 
L 610.563762 -59.4 
L 613.070667 -59.4 
L 615.577572 -59.4 
L 618.084478 -59.4 
L 620.591383 -59.4 
L 623.098288 -59.4 
L 625.605193 -59.4 
L 628.112099 -59.4 
L 630.619004 -59.4 
L 633.125909 -59.4 
L 635.632815 -59.4 
L 638.13972 -59.4 
L 640.646625 -59.4 
L 643.153531 -59.4 
L 645.660436 -59.4 
L 648.167341 -59.4 
L 650.674246 -59.4 
L 653.181152 -59.4 
L 655.688057 -59.4 
L 658.194962 -59.4 
L 660.701868 -59.4 
L 663.208773 -59.4 
L 665.715678 -59.4 
L 668.222584 -59.4 
L 670.729489 -59.4 
L 673.236394 -59.4 
L 675.743299 -59.4 
L 678.250205 -59.4 
L 680.75711 -59.4 
L 683.264015 -59.4 
L 685.770921 -59.4 
L 688.277826 -59.4 
L 690.784731 -59.4 
L 693.291637 -59.4 
L 695.798542 -59.4 
L 698.305447 -59.4 
L 700.812352 -59.4 
L 703.319258 -59.4 
L 705.826163 -59.4 
L 708.333068 -59.4 
L 710.839974 -59.4 
L 713.346879 -59.4 
L 715.853784 -59.4 
L 718.36069 -59.4 
L 720.867595 -59.4 
L 723.3745 -59.4 
L 725.881405 -59.4 
L 728.388311 -59.4 
L 730.895216 -59.4 
L 733.402121 -59.4 
L 735.909027 -59.4 
L 738.415932 -59.4 
L 740.922837 -59.4 
L 743.429743 -59.4 
L 745.936648 -59.4 
L 748.443553 -59.4 
L 750.950459 -59.4 
L 753.457364 -59.4 
L 755.964269 -59.4 
L 758.471174 -59.4 
L 760.97808 -59.4 
L 763.484985 -59.4 
L 765.99189 -59.4 
L 768.498796 -59.4 
L 771.005701 -59.4 
L 773.512606 -59.4 
L 776.019512 -59.4 
L 778.526417 -59.4 
L 781.033322 -59.4 
L 783.540227 -59.4 
L 786.047133 -59.4 
L 788.554038 -59.4 
L 791.060943 -59.4 
L 793.567849 -59.4 
L 796.074754 -59.4 
L 798.581659 -59.4 
L 801.088565 -59.4 
L 803.59547 -59.4 
L 806.102375 -59.4 
L 808.60928 -59.4 
L 811.116186 -59.4 
L 813.623091 -59.4 
L 816.129996 -59.4 
L 818.636902 -59.4 
L 821.143807 -59.4 
L 823.650712 -59.4 
L 826.157618 -59.4 
L 828.664523 -59.4 
L 831.171428 -59.4 
L 833.678333 -59.4 
L 836.185239 -59.4 
L 838.692144 -59.4 
L 841.199049 -59.4 
L 843.705955 -59.4 
L 846.21286 -59.4 
L 848.719765 -59.4 
L 851.226671 -59.4 
L 853.733576 -59.4 
L 856.240481 -59.4 
L 858.747386 -59.4 
L 861.254292 -59.4 
L 863.761197 -59.4 
L 866.268102 -59.4 
L 868.775008 -59.4 
L 871.281913 -59.4 
L 873.788818 -59.4 
L 876.295724 -59.4 
L 878.802629 -59.4 
L 881.309534 -59.4 
L 883.816439 -59.4 
L 886.323345 -59.4 
L 888.83025 -59.4 
L 891.337155 -59.4 
L 893.844061 -59.4 
L 896.350966 -59.4 
L 898.857871 -59.4 
L 901.364777 -59.4 
L 903.871682 -59.4 
L 906.378587 -59.4 
L 908.885492 -59.4 
L 911.392398 -59.4 
L 913.899303 -59.4 
L 916.406208 -59.4 
L 918.913114 -59.4 
L 921.420019 -59.4 
L 923.926924 -59.4 
L 926.43383 -59.4 
L 928.940735 -59.4 
L 931.44764 -59.4 
L 933.954545 -59.4 
L 933.954545 -59.502961 
L 933.954545 -59.502961 
L 931.44764 -59.547025 
L 928.940735 -59.606888 
L 926.43383 -59.686883 
L 923.926924 -59.792014 
L 921.420019 -59.927866 
L 918.913114 -60.100444 
L 916.406208 -60.315901 
L 913.899303 -60.580186 
L 911.392398 -60.898576 
L 908.885492 -61.275139 
L 906.378587 -61.712143 
L 903.871682 -62.209457 
L 901.364777 -62.764004 
L 898.857871 -63.369332 
L 896.350966 -64.015356 
L 893.844061 -64.68835 
L 891.337155 -65.371217 
L 888.83025 -66.044066 
L 886.323345 -66.685086 
L 883.816439 -67.271672 
L 881.309534 -67.781734 
L 878.802629 -68.195088 
L 876.295724 -68.494809 
L 873.788818 -68.66843 
L 871.281913 -68.708873 
L 868.775008 -68.615035 
L 866.268102 -68.391955 
L 863.761197 -68.05058 
L 861.254292 -67.607141 
L 858.747386 -67.08221 
L 856.240481 -66.499553 
L 853.733576 -65.88487 
L 851.226671 -65.264548 
L 848.719765 -64.664528 
L 846.21286 -64.109367 
L 843.705955 -63.62152 
L 841.199049 -63.220892 
L 838.692144 -62.9246 
L 836.185239 -62.746946 
L 833.678333 -62.69951 
L 831.171428 -62.791339 
L 828.664523 -63.029159 
L 826.157618 -63.417593 
L 823.650712 -63.959357 
L 821.143807 -64.655456 
L 818.636902 -65.505389 
L 816.129996 -66.507395 
L 813.623091 -67.658785 
L 811.116186 -68.956371 
L 808.60928 -70.397008 
L 806.102375 -71.978239 
L 803.59547 -73.699003 
L 801.088565 -75.560367 
L 798.581659 -77.566196 
L 796.074754 -79.723705 
L 793.567849 -82.043819 
L 791.060943 -84.541285 
L 788.554038 -87.23452 
L 786.047133 -90.145175 
L 783.540227 -93.29745 
L 781.033322 -96.717215 
L 778.526417 -100.430991 
L 776.019512 -104.464882 
L 773.512606 -108.843532 
L 771.005701 -113.589177 
L 768.498796 -118.720836 
L 765.99189 -124.253702 
L 763.484985 -130.19871 
L 760.97808 -136.562326 
L 758.471174 -143.346502 
L 755.964269 -150.548809 
L 753.457364 -158.162704 
L 750.950459 -166.177918 
L 748.443553 -174.580947 
L 745.936648 -183.355609 
L 743.429743 -192.483656 
L 740.922837 -201.945396 
L 738.415932 -211.720281 
L 735.909027 -221.78741 
L 733.402121 -232.12587 
L 730.895216 -242.714858 
L 728.388311 -253.533518 
L 725.881405 -264.560457 
L 723.3745 -275.772924 
L 720.867595 -287.145688 
L 718.36069 -298.649687 
L 715.853784 -310.250562 
L 713.346879 -321.907212 
L 710.839974 -333.570548 
L 708.333068 -345.182592 
L 705.826163 -356.676059 
L 703.319258 -367.974515 
L 700.812352 -378.993156 
L 698.305447 -389.640166 
L 695.798542 -399.818586 
L 693.291637 -409.428558 
L 690.784731 -418.369765 
L 688.277826 -426.543916 
L 685.770921 -433.857094 
L 683.264015 -440.221845 
L 680.75711 -445.558924 
L 678.250205 -449.79866 
L 675.743299 -452.88197 
L 673.236394 -454.761075 
L 670.729489 -455.4 
L 668.222584 -454.77497 
L 665.715678 -452.874773 
L 663.208773 -449.701144 
L 660.701868 -445.269206 
L 658.194962 -439.60792 
L 655.688057 -432.760499 
L 653.181152 -424.784671 
L 650.674246 -415.75269 
L 648.167341 -405.750967 
L 645.660436 -394.879228 
L 643.153531 -383.249129 
L 640.646625 -370.982303 
L 638.13972 -358.207869 
L 635.632815 -345.059474 
L 633.125909 -331.672003 
L 630.619004 -318.178108 
L 628.112099 -304.704746 
L 625.605193 -291.369916 
L 623.098288 -278.279783 
L 620.591383 -265.526342 
L 618.084478 -253.185757 
L 615.577572 -241.317453 
L 613.070667 -229.963976 
L 610.563762 -219.151615 
L 608.056856 -208.891702 
L 605.549951 -199.18247 
L 603.043046 -190.011318 
L 600.53614 -181.357313 
L 598.029235 -173.19375 
L 595.52233 -165.490592 
L 593.015425 -158.216658 
L 590.508519 -151.341428 
L 588.001614 -144.836405 
L 585.494709 -138.676006 
L 582.987803 -132.838005 
L 580.480898 -127.303576 
L 577.973993 -122.057045 
L 575.467087 -117.085442 
L 572.960182 -112.37797 
L 570.453277 -107.925496 
L 567.946372 -103.720136 
L 565.439466 -99.754985 
L 562.932561 -96.024019 
L 560.425656 -92.522131 
L 557.91875 -89.245282 
L 555.411845 -86.190684 
L 552.90494 -83.356954 
L 550.398034 -80.744174 
L 547.891129 -78.353797 
L 545.384224 -76.188362 
L 542.877319 -74.251015 
L 540.370413 -72.544851 
L 537.863508 -71.072109 
L 535.356603 -69.83329 
L 532.849697 -68.826256 
L 530.342792 -68.045404 
L 527.835887 -67.480979 
L 525.328981 -67.118612 
L 522.822076 -66.939127 
L 520.315171 -66.91868 
L 517.808266 -67.029231 
L 515.30136 -67.239355 
L 512.794455 -67.51536 
L 510.28755 -67.822649 
L 507.780644 -68.127239 
L 505.273739 -68.397334 
L 502.766834 -68.604842 
L 500.259928 -68.726695 
L 497.753023 -68.745884 
L 495.246118 -68.652119 
L 492.739213 -68.442041 
L 490.232307 -68.118995 
L 487.725402 -67.692371 
L 485.218497 -67.176585 
L 482.711591 -66.589794 
L 480.204686 -65.952465 
L 477.697781 -65.285913 
L 475.190875 -64.610938 
L 472.68397 -63.946646 
L 470.177065 -63.309541 
L 467.67016 -62.712913 
L 465.163254 -62.16654 
L 462.656349 -61.67668 
L 460.149444 -61.246296 
L 457.642538 -60.875479 
L 455.135633 -60.56197 
L 452.628728 -60.30175 
L 450.121822 -60.089614 
L 447.614917 -59.919701 
L 445.108012 -59.785947 
L 442.601107 -59.682443 
L 440.094201 -59.603685 
L 437.587296 -59.544749 
L 435.080391 -59.501367 
z
" style="stroke: #1f77b4"/>
    </defs>
    <g clip-path="url(#p7bf7c46084)">
     <use xlink:href="#m9dc4ffa3e3" x="0" y="540" style="fill: #1f77b4; fill-opacity: 0.25; stroke: #1f77b4"/>
    </g>
   </g>
   <g id="matplotlib.axis_1">
    <g id="xtick_1">
     <g id="line2d_1">
      <defs>
       <path id="m0216f8de6b" d="M 0 0 
L 0 3.5 
" style="stroke: #000000; stroke-width: 0.8"/>
      </defs>
      <g>
       <use xlink:href="#m0216f8de6b" x="259.122681" y="480.6" style="stroke: #000000; stroke-width: 0.8"/>
      </g>
     </g>
     <g id="text_1">
      <!-- 1 -->
      <g transform="translate(255.941431 495.198438) scale(0.1 -0.1)">
       <defs>
        <path id="DejaVuSans-31" d="M 794 531 
L 1825 531 
L 1825 4091 
L 703 3866 
L 703 4441 
L 1819 4666 
L 2450 4666 
L 2450 531 
L 3481 531 
L 3481 0 
L 794 0 
L 794 531 
z
" transform="scale(0.015625)"/>
       </defs>
       <use xlink:href="#DejaVuSans-31"/>
      </g>
     </g>
    </g>
    <g id="xtick_2">
     <g id="line2d_2">
      <g>
       <use xlink:href="#m0216f8de6b" x="329.922574" y="480.6" style="stroke: #000000; stroke-width: 0.8"/>
      </g>
     </g>
     <g id="text_2">
      <!-- 2 -->
      <g transform="translate(326.741324 495.198438) scale(0.1 -0.1)">
       <defs>
        <path id="DejaVuSans-32" d="M 1228 531 
L 3431 531 
L 3431 0 
L 469 0 
L 469 531 
Q 828 903 1448 1529 
Q 2069 2156 2228 2338 
Q 2531 2678 2651 2914 
Q 2772 3150 2772 3378 
Q 2772 3750 2511 3984 
Q 2250 4219 1831 4219 
Q 1534 4219 1204 4116 
Q 875 4013 500 3803 
L 500 4441 
Q 881 4594 1212 4672 
Q 1544 4750 1819 4750 
Q 2544 4750 2975 4387 
Q 3406 4025 3406 3419 
Q 3406 3131 3298 2873 
Q 3191 2616 2906 2266 
Q 2828 2175 2409 1742 
Q 1991 1309 1228 531 
z
" transform="scale(0.015625)"/>
       </defs>
       <use xlink:href="#DejaVuSans-32"/>
      </g>
     </g>
    </g>
    <g id="xtick_3">
     <g id="line2d_3">
      <g>
       <use xlink:href="#m0216f8de6b" x="423.514943" y="480.6" style="stroke: #000000; stroke-width: 0.8"/>
      </g>
     </g>
     <g id="text_3">
      <!-- 5 -->
      <g transform="translate(420.333693 495.198438) scale(0.1 -0.1)">
       <defs>
        <path id="DejaVuSans-35" d="M 691 4666 
L 3169 4666 
L 3169 4134 
L 1269 4134 
L 1269 2991 
Q 1406 3038 1543 3061 
Q 1681 3084 1819 3084 
Q 2600 3084 3056 2656 
Q 3513 2228 3513 1497 
Q 3513 744 3044 326 
Q 2575 -91 1722 -91 
Q 1428 -91 1123 -41 
Q 819 9 494 109 
L 494 744 
Q 775 591 1075 516 
Q 1375 441 1709 441 
Q 2250 441 2565 725 
Q 2881 1009 2881 1497 
Q 2881 1984 2565 2268 
Q 2250 2553 1709 2553 
Q 1456 2553 1204 2497 
Q 953 2441 691 2322 
L 691 4666 
z
" transform="scale(0.015625)"/>
       </defs>
       <use xlink:href="#DejaVuSans-35"/>
      </g>
     </g>
    </g>
    <g id="xtick_4">
     <g id="line2d_4">
      <g>
       <use xlink:href="#m0216f8de6b" x="494.314837" y="480.6" style="stroke: #000000; stroke-width: 0.8"/>
      </g>
     </g>
     <g id="text_4">
      <!-- 10 -->
      <g transform="translate(487.952337 495.198438) scale(0.1 -0.1)">
       <defs>
        <path id="DejaVuSans-30" d="M 2034 4250 
Q 1547 4250 1301 3770 
Q 1056 3291 1056 2328 
Q 1056 1369 1301 889 
Q 1547 409 2034 409 
Q 2525 409 2770 889 
Q 3016 1369 3016 2328 
Q 3016 3291 2770 3770 
Q 2525 4250 2034 4250 
z
M 2034 4750 
Q 2819 4750 3233 4129 
Q 3647 3509 3647 2328 
Q 3647 1150 3233 529 
Q 2819 -91 2034 -91 
Q 1250 -91 836 529 
Q 422 1150 422 2328 
Q 422 3509 836 4129 
Q 1250 4750 2034 4750 
z
" transform="scale(0.015625)"/>
       </defs>
       <use xlink:href="#DejaVuSans-31"/>
       <use xlink:href="#DejaVuSans-30" transform="translate(63.623047 0)"/>
      </g>
     </g>
    </g>
    <g id="xtick_5">
     <g id="line2d_5">
      <g>
       <use xlink:href="#m0216f8de6b" x="565.11473" y="480.6" style="stroke: #000000; stroke-width: 0.8"/>
      </g>
     </g>
     <g id="text_5">
      <!-- 20 -->
      <g transform="translate(558.75223 495.198438) scale(0.1 -0.1)">
       <use xlink:href="#DejaVuSans-32"/>
       <use xlink:href="#DejaVuSans-30" transform="translate(63.623047 0)"/>
      </g>
     </g>
    </g>
    <g id="xtick_6">
     <g id="line2d_6">
      <g>
       <use xlink:href="#m0216f8de6b" x="658.707099" y="480.6" style="stroke: #000000; stroke-width: 0.8"/>
      </g>
     </g>
     <g id="text_6">
      <!-- 50 -->
      <g transform="translate(652.344599 495.198438) scale(0.1 -0.1)">
       <use xlink:href="#DejaVuSans-35"/>
       <use xlink:href="#DejaVuSans-30" transform="translate(63.623047 0)"/>
      </g>
     </g>
    </g>
    <g id="xtick_7">
     <g id="line2d_7">
      <g>
       <use xlink:href="#m0216f8de6b" x="729.506992" y="480.6" style="stroke: #000000; stroke-width: 0.8"/>
      </g>
     </g>
     <g id="text_7">
      <!-- 100 -->
      <g transform="translate(719.963242 495.198438) scale(0.1 -0.1)">
       <use xlink:href="#DejaVuSans-31"/>
       <use xlink:href="#DejaVuSans-30" transform="translate(63.623047 0)"/>
       <use xlink:href="#DejaVuSans-30" transform="translate(127.246094 0)"/>
      </g>
     </g>
    </g>
    <g id="xtick_8">
     <g id="line2d_8">
      <g>
       <use xlink:href="#m0216f8de6b" x="800.306886" y="480.6" style="stroke: #000000; stroke-width: 0.8"/>
      </g>
     </g>
     <g id="text_8">
      <!-- 200 -->
      <g transform="translate(790.763136 495.198438) scale(0.1 -0.1)">
       <use xlink:href="#DejaVuSans-32"/>
       <use xlink:href="#DejaVuSans-30" transform="translate(63.623047 0)"/>
       <use xlink:href="#DejaVuSans-30" transform="translate(127.246094 0)"/>
      </g>
     </g>
    </g>
    <g id="xtick_9">
     <g id="line2d_9">
      <g>
       <use xlink:href="#m0216f8de6b" x="893.899255" y="480.6" style="stroke: #000000; stroke-width: 0.8"/>
      </g>
     </g>
     <g id="text_9">
      <!-- 500 -->
      <g transform="translate(884.355505 495.198438) scale(0.1 -0.1)">
       <use xlink:href="#DejaVuSans-35"/>
       <use xlink:href="#DejaVuSans-30" transform="translate(63.623047 0)"/>
       <use xlink:href="#DejaVuSans-30" transform="translate(127.246094 0)"/>
      </g>
     </g>
    </g>
    <g id="xtick_10">
     <g id="line2d_10">
      <g>
       <use xlink:href="#m0216f8de6b" x="964.699148" y="480.6" style="stroke: #000000; stroke-width: 0.8"/>
      </g>
     </g>
     <g id="text_10">
      <!-- 1000 -->
      <g transform="translate(951.974148 495.198438) scale(0.1 -0.1)">
       <use xlink:href="#DejaVuSans-31"/>
       <use xlink:href="#DejaVuSans-30" transform="translate(63.623047 0)"/>
       <use xlink:href="#DejaVuSans-30" transform="translate(127.246094 0)"/>
       <use xlink:href="#DejaVuSans-30" transform="translate(190.869141 0)"/>
      </g>
     </g>
    </g>
    <g id="xtick_11">
     <g id="line2d_11">
      <defs>
       <path id="mf120123078" d="M 0 0 
L 0 2 
" style="stroke: #000000; stroke-width: 0.6"/>
      </defs>
      <g>
       <use xlink:href="#mf120123078" x="136.145701" y="480.6" style="stroke: #000000; stroke-width: 0.6"/>
      </g>
     </g>
    </g>
    <g id="xtick_12">
     <g id="line2d_12">
      <g>
       <use xlink:href="#mf120123078" x="165.530312" y="480.6" style="stroke: #000000; stroke-width: 0.6"/>
      </g>
     </g>
    </g>
    <g id="xtick_13">
     <g id="line2d_13">
      <g>
       <use xlink:href="#mf120123078" x="188.322787" y="480.6" style="stroke: #000000; stroke-width: 0.6"/>
      </g>
     </g>
    </g>
    <g id="xtick_14">
     <g id="line2d_14">
      <g>
       <use xlink:href="#mf120123078" x="206.945595" y="480.6" style="stroke: #000000; stroke-width: 0.6"/>
      </g>
     </g>
    </g>
    <g id="xtick_15">
     <g id="line2d_15">
      <g>
       <use xlink:href="#mf120123078" x="222.690955" y="480.6" style="stroke: #000000; stroke-width: 0.6"/>
      </g>
     </g>
    </g>
    <g id="xtick_16">
     <g id="line2d_16">
      <g>
       <use xlink:href="#mf120123078" x="236.330206" y="480.6" style="stroke: #000000; stroke-width: 0.6"/>
      </g>
     </g>
    </g>
    <g id="xtick_17">
     <g id="line2d_17">
      <g>
       <use xlink:href="#mf120123078" x="248.360878" y="480.6" style="stroke: #000000; stroke-width: 0.6"/>
      </g>
     </g>
    </g>
    <g id="xtick_18">
     <g id="line2d_18">
      <g>
       <use xlink:href="#mf120123078" x="371.337857" y="480.6" style="stroke: #000000; stroke-width: 0.6"/>
      </g>
     </g>
    </g>
    <g id="xtick_19">
     <g id="line2d_19">
      <g>
       <use xlink:href="#mf120123078" x="400.722468" y="480.6" style="stroke: #000000; stroke-width: 0.6"/>
      </g>
     </g>
    </g>
    <g id="xtick_20">
     <g id="line2d_20">
      <g>
       <use xlink:href="#mf120123078" x="442.137751" y="480.6" style="stroke: #000000; stroke-width: 0.6"/>
      </g>
     </g>
    </g>
    <g id="xtick_21">
     <g id="line2d_21">
      <g>
       <use xlink:href="#mf120123078" x="457.883111" y="480.6" style="stroke: #000000; stroke-width: 0.6"/>
      </g>
     </g>
    </g>
    <g id="xtick_22">
     <g id="line2d_22">
      <g>
       <use xlink:href="#mf120123078" x="471.522362" y="480.6" style="stroke: #000000; stroke-width: 0.6"/>
      </g>
     </g>
    </g>
    <g id="xtick_23">
     <g id="line2d_23">
      <g>
       <use xlink:href="#mf120123078" x="483.553034" y="480.6" style="stroke: #000000; stroke-width: 0.6"/>
      </g>
     </g>
    </g>
    <g id="xtick_24">
     <g id="line2d_24">
      <g>
       <use xlink:href="#mf120123078" x="606.530013" y="480.6" style="stroke: #000000; stroke-width: 0.6"/>
      </g>
     </g>
    </g>
    <g id="xtick_25">
     <g id="line2d_25">
      <g>
       <use xlink:href="#mf120123078" x="635.914624" y="480.6" style="stroke: #000000; stroke-width: 0.6"/>
      </g>
     </g>
    </g>
    <g id="xtick_26">
     <g id="line2d_26">
      <g>
       <use xlink:href="#mf120123078" x="677.329907" y="480.6" style="stroke: #000000; stroke-width: 0.6"/>
      </g>
     </g>
    </g>
    <g id="xtick_27">
     <g id="line2d_27">
      <g>
       <use xlink:href="#mf120123078" x="693.075267" y="480.6" style="stroke: #000000; stroke-width: 0.6"/>
      </g>
     </g>
    </g>
    <g id="xtick_28">
     <g id="line2d_28">
      <g>
       <use xlink:href="#mf120123078" x="706.714518" y="480.6" style="stroke: #000000; stroke-width: 0.6"/>
      </g>
     </g>
    </g>
    <g id="xtick_29">
     <g id="line2d_29">
      <g>
       <use xlink:href="#mf120123078" x="718.74519" y="480.6" style="stroke: #000000; stroke-width: 0.6"/>
      </g>
     </g>
    </g>
    <g id="xtick_30">
     <g id="line2d_30">
      <g>
       <use xlink:href="#mf120123078" x="841.722169" y="480.6" style="stroke: #000000; stroke-width: 0.6"/>
      </g>
     </g>
    </g>
    <g id="xtick_31">
     <g id="line2d_31">
      <g>
       <use xlink:href="#mf120123078" x="871.10678" y="480.6" style="stroke: #000000; stroke-width: 0.6"/>
      </g>
     </g>
    </g>
    <g id="xtick_32">
     <g id="line2d_32">
      <g>
       <use xlink:href="#mf120123078" x="912.522063" y="480.6" style="stroke: #000000; stroke-width: 0.6"/>
      </g>
     </g>
    </g>
    <g id="xtick_33">
     <g id="line2d_33">
      <g>
       <use xlink:href="#mf120123078" x="928.267422" y="480.6" style="stroke: #000000; stroke-width: 0.6"/>
      </g>
     </g>
    </g>
    <g id="xtick_34">
     <g id="line2d_34">
      <g>
       <use xlink:href="#mf120123078" x="941.906673" y="480.6" style="stroke: #000000; stroke-width: 0.6"/>
      </g>
     </g>
    </g>
    <g id="xtick_35">
     <g id="line2d_35">
      <g>
       <use xlink:href="#mf120123078" x="953.937345" y="480.6" style="stroke: #000000; stroke-width: 0.6"/>
      </g>
     </g>
    </g>
    <g id="text_11">
     <!-- Income or consumption (day) -->
     <g transform="translate(479.746875 508.876563) scale(0.1 -0.1)">
      <defs>
       <path id="DejaVuSans-49" d="M 628 4666 
L 1259 4666 
L 1259 0 
L 628 0 
L 628 4666 
z
" transform="scale(0.015625)"/>
       <path id="DejaVuSans-6e" d="M 3513 2113 
L 3513 0 
L 2938 0 
L 2938 2094 
Q 2938 2591 2744 2837 
Q 2550 3084 2163 3084 
Q 1697 3084 1428 2787 
Q 1159 2491 1159 1978 
L 1159 0 
L 581 0 
L 581 3500 
L 1159 3500 
L 1159 2956 
Q 1366 3272 1645 3428 
Q 1925 3584 2291 3584 
Q 2894 3584 3203 3211 
Q 3513 2838 3513 2113 
z
" transform="scale(0.015625)"/>
       <path id="DejaVuSans-63" d="M 3122 3366 
L 3122 2828 
Q 2878 2963 2633 3030 
Q 2388 3097 2138 3097 
Q 1578 3097 1268 2742 
Q 959 2388 959 1747 
Q 959 1106 1268 751 
Q 1578 397 2138 397 
Q 2388 397 2633 464 
Q 2878 531 3122 666 
L 3122 134 
Q 2881 22 2623 -34 
Q 2366 -91 2075 -91 
Q 1284 -91 818 406 
Q 353 903 353 1747 
Q 353 2603 823 3093 
Q 1294 3584 2113 3584 
Q 2378 3584 2631 3529 
Q 2884 3475 3122 3366 
z
" transform="scale(0.015625)"/>
       <path id="DejaVuSans-6f" d="M 1959 3097 
Q 1497 3097 1228 2736 
Q 959 2375 959 1747 
Q 959 1119 1226 758 
Q 1494 397 1959 397 
Q 2419 397 2687 759 
Q 2956 1122 2956 1747 
Q 2956 2369 2687 2733 
Q 2419 3097 1959 3097 
z
M 1959 3584 
Q 2709 3584 3137 3096 
Q 3566 2609 3566 1747 
Q 3566 888 3137 398 
Q 2709 -91 1959 -91 
Q 1206 -91 779 398 
Q 353 888 353 1747 
Q 353 2609 779 3096 
Q 1206 3584 1959 3584 
z
" transform="scale(0.015625)"/>
       <path id="DejaVuSans-6d" d="M 3328 2828 
Q 3544 3216 3844 3400 
Q 4144 3584 4550 3584 
Q 5097 3584 5394 3201 
Q 5691 2819 5691 2113 
L 5691 0 
L 5113 0 
L 5113 2094 
Q 5113 2597 4934 2840 
Q 4756 3084 4391 3084 
Q 3944 3084 3684 2787 
Q 3425 2491 3425 1978 
L 3425 0 
L 2847 0 
L 2847 2094 
Q 2847 2600 2669 2842 
Q 2491 3084 2119 3084 
Q 1678 3084 1418 2786 
Q 1159 2488 1159 1978 
L 1159 0 
L 581 0 
L 581 3500 
L 1159 3500 
L 1159 2956 
Q 1356 3278 1631 3431 
Q 1906 3584 2284 3584 
Q 2666 3584 2933 3390 
Q 3200 3197 3328 2828 
z
" transform="scale(0.015625)"/>
       <path id="DejaVuSans-65" d="M 3597 1894 
L 3597 1613 
L 953 1613 
Q 991 1019 1311 708 
Q 1631 397 2203 397 
Q 2534 397 2845 478 
Q 3156 559 3463 722 
L 3463 178 
Q 3153 47 2828 -22 
Q 2503 -91 2169 -91 
Q 1331 -91 842 396 
Q 353 884 353 1716 
Q 353 2575 817 3079 
Q 1281 3584 2069 3584 
Q 2775 3584 3186 3129 
Q 3597 2675 3597 1894 
z
M 3022 2063 
Q 3016 2534 2758 2815 
Q 2500 3097 2075 3097 
Q 1594 3097 1305 2825 
Q 1016 2553 972 2059 
L 3022 2063 
z
" transform="scale(0.015625)"/>
       <path id="DejaVuSans-20" transform="scale(0.015625)"/>
       <path id="DejaVuSans-72" d="M 2631 2963 
Q 2534 3019 2420 3045 
Q 2306 3072 2169 3072 
Q 1681 3072 1420 2755 
Q 1159 2438 1159 1844 
L 1159 0 
L 581 0 
L 581 3500 
L 1159 3500 
L 1159 2956 
Q 1341 3275 1631 3429 
Q 1922 3584 2338 3584 
Q 2397 3584 2469 3576 
Q 2541 3569 2628 3553 
L 2631 2963 
z
" transform="scale(0.015625)"/>
       <path id="DejaVuSans-73" d="M 2834 3397 
L 2834 2853 
Q 2591 2978 2328 3040 
Q 2066 3103 1784 3103 
Q 1356 3103 1142 2972 
Q 928 2841 928 2578 
Q 928 2378 1081 2264 
Q 1234 2150 1697 2047 
L 1894 2003 
Q 2506 1872 2764 1633 
Q 3022 1394 3022 966 
Q 3022 478 2636 193 
Q 2250 -91 1575 -91 
Q 1294 -91 989 -36 
Q 684 19 347 128 
L 347 722 
Q 666 556 975 473 
Q 1284 391 1588 391 
Q 1994 391 2212 530 
Q 2431 669 2431 922 
Q 2431 1156 2273 1281 
Q 2116 1406 1581 1522 
L 1381 1569 
Q 847 1681 609 1914 
Q 372 2147 372 2553 
Q 372 3047 722 3315 
Q 1072 3584 1716 3584 
Q 2034 3584 2315 3537 
Q 2597 3491 2834 3397 
z
" transform="scale(0.015625)"/>
       <path id="DejaVuSans-75" d="M 544 1381 
L 544 3500 
L 1119 3500 
L 1119 1403 
Q 1119 906 1312 657 
Q 1506 409 1894 409 
Q 2359 409 2629 706 
Q 2900 1003 2900 1516 
L 2900 3500 
L 3475 3500 
L 3475 0 
L 2900 0 
L 2900 538 
Q 2691 219 2414 64 
Q 2138 -91 1772 -91 
Q 1169 -91 856 284 
Q 544 659 544 1381 
z
M 1991 3584 
L 1991 3584 
z
" transform="scale(0.015625)"/>
       <path id="DejaVuSans-70" d="M 1159 525 
L 1159 -1331 
L 581 -1331 
L 581 3500 
L 1159 3500 
L 1159 2969 
Q 1341 3281 1617 3432 
Q 1894 3584 2278 3584 
Q 2916 3584 3314 3078 
Q 3713 2572 3713 1747 
Q 3713 922 3314 415 
Q 2916 -91 2278 -91 
Q 1894 -91 1617 61 
Q 1341 213 1159 525 
z
M 3116 1747 
Q 3116 2381 2855 2742 
Q 2594 3103 2138 3103 
Q 1681 3103 1420 2742 
Q 1159 2381 1159 1747 
Q 1159 1113 1420 752 
Q 1681 391 2138 391 
Q 2594 391 2855 752 
Q 3116 1113 3116 1747 
z
" transform="scale(0.015625)"/>
       <path id="DejaVuSans-74" d="M 1172 4494 
L 1172 3500 
L 2356 3500 
L 2356 3053 
L 1172 3053 
L 1172 1153 
Q 1172 725 1289 603 
Q 1406 481 1766 481 
L 2356 481 
L 2356 0 
L 1766 0 
Q 1100 0 847 248 
Q 594 497 594 1153 
L 594 3053 
L 172 3053 
L 172 3500 
L 594 3500 
L 594 4494 
L 1172 4494 
z
" transform="scale(0.015625)"/>
       <path id="DejaVuSans-69" d="M 603 3500 
L 1178 3500 
L 1178 0 
L 603 0 
L 603 3500 
z
M 603 4863 
L 1178 4863 
L 1178 4134 
L 603 4134 
L 603 4863 
z
" transform="scale(0.015625)"/>
       <path id="DejaVuSans-28" d="M 1984 4856 
Q 1566 4138 1362 3434 
Q 1159 2731 1159 2009 
Q 1159 1288 1364 580 
Q 1569 -128 1984 -844 
L 1484 -844 
Q 1016 -109 783 600 
Q 550 1309 550 2009 
Q 550 2706 781 3412 
Q 1013 4119 1484 4856 
L 1984 4856 
z
" transform="scale(0.015625)"/>
       <path id="DejaVuSans-64" d="M 2906 2969 
L 2906 4863 
L 3481 4863 
L 3481 0 
L 2906 0 
L 2906 525 
Q 2725 213 2448 61 
Q 2172 -91 1784 -91 
Q 1150 -91 751 415 
Q 353 922 353 1747 
Q 353 2572 751 3078 
Q 1150 3584 1784 3584 
Q 2172 3584 2448 3432 
Q 2725 3281 2906 2969 
z
M 947 1747 
Q 947 1113 1208 752 
Q 1469 391 1925 391 
Q 2381 391 2643 752 
Q 2906 1113 2906 1747 
Q 2906 2381 2643 2742 
Q 2381 3103 1925 3103 
Q 1469 3103 1208 2742 
Q 947 2381 947 1747 
z
" transform="scale(0.015625)"/>
       <path id="DejaVuSans-61" d="M 2194 1759 
Q 1497 1759 1228 1600 
Q 959 1441 959 1056 
Q 959 750 1161 570 
Q 1363 391 1709 391 
Q 2188 391 2477 730 
Q 2766 1069 2766 1631 
L 2766 1759 
L 2194 1759 
z
M 3341 1997 
L 3341 0 
L 2766 0 
L 2766 531 
Q 2569 213 2275 61 
Q 1981 -91 1556 -91 
Q 1019 -91 701 211 
Q 384 513 384 1019 
Q 384 1609 779 1909 
Q 1175 2209 1959 2209 
L 2766 2209 
L 2766 2266 
Q 2766 2663 2505 2880 
Q 2244 3097 1772 3097 
Q 1472 3097 1187 3025 
Q 903 2953 641 2809 
L 641 3341 
Q 956 3463 1253 3523 
Q 1550 3584 1831 3584 
Q 2591 3584 2966 3190 
Q 3341 2797 3341 1997 
z
" transform="scale(0.015625)"/>
       <path id="DejaVuSans-79" d="M 2059 -325 
Q 1816 -950 1584 -1140 
Q 1353 -1331 966 -1331 
L 506 -1331 
L 506 -850 
L 844 -850 
Q 1081 -850 1212 -737 
Q 1344 -625 1503 -206 
L 1606 56 
L 191 3500 
L 800 3500 
L 1894 763 
L 2988 3500 
L 3597 3500 
L 2059 -325 
z
" transform="scale(0.015625)"/>
       <path id="DejaVuSans-29" d="M 513 4856 
L 1013 4856 
Q 1481 4119 1714 3412 
Q 1947 2706 1947 2009 
Q 1947 1309 1714 600 
Q 1481 -109 1013 -844 
L 513 -844 
Q 928 -128 1133 580 
Q 1338 1288 1338 2009 
Q 1338 2731 1133 3434 
Q 928 4138 513 4856 
z
" transform="scale(0.015625)"/>
      </defs>
      <use xlink:href="#DejaVuSans-49"/>
      <use xlink:href="#DejaVuSans-6e" transform="translate(29.492188 0)"/>
      <use xlink:href="#DejaVuSans-63" transform="translate(92.871094 0)"/>
      <use xlink:href="#DejaVuSans-6f" transform="translate(147.851562 0)"/>
      <use xlink:href="#DejaVuSans-6d" transform="translate(209.033203 0)"/>
      <use xlink:href="#DejaVuSans-65" transform="translate(306.445312 0)"/>
      <use xlink:href="#DejaVuSans-20" transform="translate(367.96875 0)"/>
      <use xlink:href="#DejaVuSans-6f" transform="translate(399.755859 0)"/>
      <use xlink:href="#DejaVuSans-72" transform="translate(460.9375 0)"/>
      <use xlink:href="#DejaVuSans-20" transform="translate(502.050781 0)"/>
      <use xlink:href="#DejaVuSans-63" transform="translate(533.837891 0)"/>
      <use xlink:href="#DejaVuSans-6f" transform="translate(588.818359 0)"/>
      <use xlink:href="#DejaVuSans-6e" transform="translate(650 0)"/>
      <use xlink:href="#DejaVuSans-73" transform="translate(713.378906 0)"/>
      <use xlink:href="#DejaVuSans-75" transform="translate(765.478516 0)"/>
      <use xlink:href="#DejaVuSans-6d" transform="translate(828.857422 0)"/>
      <use xlink:href="#DejaVuSans-70" transform="translate(926.269531 0)"/>
      <use xlink:href="#DejaVuSans-74" transform="translate(989.746094 0)"/>
      <use xlink:href="#DejaVuSans-69" transform="translate(1028.955078 0)"/>
      <use xlink:href="#DejaVuSans-6f" transform="translate(1056.738281 0)"/>
      <use xlink:href="#DejaVuSans-6e" transform="translate(1117.919922 0)"/>
      <use xlink:href="#DejaVuSans-20" transform="translate(1181.298828 0)"/>
      <use xlink:href="#DejaVuSans-28" transform="translate(1213.085938 0)"/>
      <use xlink:href="#DejaVuSans-64" transform="translate(1252.099609 0)"/>
      <use xlink:href="#DejaVuSans-61" transform="translate(1315.576172 0)"/>
      <use xlink:href="#DejaVuSans-79" transform="translate(1376.855469 0)"/>
      <use xlink:href="#DejaVuSans-29" transform="translate(1436.035156 0)"/>
     </g>
    </g>
   </g>
   <g id="matplotlib.axis_2"/>
   <g id="line2d_36">
    <path d="M 337.309599 480.6 
L 337.309599 64.8 
" clip-path="url(#p7bf7c46084)" style="fill: none; stroke-dasharray: 2.96,1.28; stroke-dashoffset: 0; stroke: #d3d3d3; stroke-width: 0.8"/>
   </g>
   <g id="line2d_37">
    <path d="M 560.862945 480.6 
L 560.862945 64.8 
" clip-path="url(#p7bf7c46084)" style="fill: none; stroke-dasharray: 2.96,1.28; stroke-dashoffset: 0; stroke: #d3d3d3; stroke-width: 0.8"/>
   </g>
   <g id="line2d_38">
    <path d="M 474.665461 480.6 
L 474.665461 64.8 
" clip-path="url(#p7bf7c46084)" style="fill: none; stroke-dasharray: 2.96,1.28; stroke-dashoffset: 0; stroke: #d3d3d3; stroke-width: 0.8"/>
   </g>
   <g id="text_12">
    <!-- International Poverty Line: $2.15 -->
    <g style="fill: #808080" transform="translate(343.388349 200.1605) rotate(-90) scale(0.08 -0.08)">
     <defs>
      <path id="DejaVuSans-6c" d="M 603 4863 
L 1178 4863 
L 1178 0 
L 603 0 
L 603 4863 
z
" transform="scale(0.015625)"/>
      <path id="DejaVuSans-50" d="M 1259 4147 
L 1259 2394 
L 2053 2394 
Q 2494 2394 2734 2622 
Q 2975 2850 2975 3272 
Q 2975 3691 2734 3919 
Q 2494 4147 2053 4147 
L 1259 4147 
z
M 628 4666 
L 2053 4666 
Q 2838 4666 3239 4311 
Q 3641 3956 3641 3272 
Q 3641 2581 3239 2228 
Q 2838 1875 2053 1875 
L 1259 1875 
L 1259 0 
L 628 0 
L 628 4666 
z
" transform="scale(0.015625)"/>
      <path id="DejaVuSans-76" d="M 191 3500 
L 800 3500 
L 1894 563 
L 2988 3500 
L 3597 3500 
L 2284 0 
L 1503 0 
L 191 3500 
z
" transform="scale(0.015625)"/>
      <path id="DejaVuSans-4c" d="M 628 4666 
L 1259 4666 
L 1259 531 
L 3531 531 
L 3531 0 
L 628 0 
L 628 4666 
z
" transform="scale(0.015625)"/>
      <path id="DejaVuSans-3a" d="M 750 794 
L 1409 794 
L 1409 0 
L 750 0 
L 750 794 
z
M 750 3309 
L 1409 3309 
L 1409 2516 
L 750 2516 
L 750 3309 
z
" transform="scale(0.015625)"/>
      <path id="DejaVuSans-24" d="M 2163 -941 
L 1850 -941 
L 1847 0 
Q 1519 6 1191 76 
Q 863 147 531 288 
L 531 850 
Q 850 650 1176 548 
Q 1503 447 1850 444 
L 1850 1869 
Q 1159 1981 845 2250 
Q 531 2519 531 2988 
Q 531 3497 872 3790 
Q 1213 4084 1850 4128 
L 1850 4863 
L 2163 4863 
L 2163 4138 
Q 2453 4125 2725 4076 
Q 2997 4028 3256 3944 
L 3256 3397 
Q 2997 3528 2723 3600 
Q 2450 3672 2163 3684 
L 2163 2350 
Q 2872 2241 3206 1959 
Q 3541 1678 3541 1191 
Q 3541 663 3186 358 
Q 2831 53 2163 6 
L 2163 -941 
z
M 1850 2406 
L 1850 3688 
Q 1488 3647 1297 3481 
Q 1106 3316 1106 3041 
Q 1106 2772 1282 2622 
Q 1459 2472 1850 2406 
z
M 2163 1806 
L 2163 453 
Q 2559 506 2761 678 
Q 2963 850 2963 1131 
Q 2963 1406 2770 1568 
Q 2578 1731 2163 1806 
z
" transform="scale(0.015625)"/>
      <path id="DejaVuSans-2e" d="M 684 794 
L 1344 794 
L 1344 0 
L 684 0 
L 684 794 
z
" transform="scale(0.015625)"/>
     </defs>
     <use xlink:href="#DejaVuSans-49"/>
     <use xlink:href="#DejaVuSans-6e" transform="translate(29.492188 0)"/>
     <use xlink:href="#DejaVuSans-74" transform="translate(92.871094 0)"/>
     <use xlink:href="#DejaVuSans-65" transform="translate(132.080078 0)"/>
     <use xlink:href="#DejaVuSans-72" transform="translate(193.603516 0)"/>
     <use xlink:href="#DejaVuSans-6e" transform="translate(232.966797 0)"/>
     <use xlink:href="#DejaVuSans-61" transform="translate(296.345703 0)"/>
     <use xlink:href="#DejaVuSans-74" transform="translate(357.625 0)"/>
     <use xlink:href="#DejaVuSans-69" transform="translate(396.833984 0)"/>
     <use xlink:href="#DejaVuSans-6f" transform="translate(424.617188 0)"/>
     <use xlink:href="#DejaVuSans-6e" transform="translate(485.798828 0)"/>
     <use xlink:href="#DejaVuSans-61" transform="translate(549.177734 0)"/>
     <use xlink:href="#DejaVuSans-6c" transform="translate(610.457031 0)"/>
     <use xlink:href="#DejaVuSans-20" transform="translate(638.240234 0)"/>
     <use xlink:href="#DejaVuSans-50" transform="translate(670.027344 0)"/>
     <use xlink:href="#DejaVuSans-6f" transform="translate(726.705078 0)"/>
     <use xlink:href="#DejaVuSans-76" transform="translate(787.886719 0)"/>
     <use xlink:href="#DejaVuSans-65" transform="translate(847.066406 0)"/>
     <use xlink:href="#DejaVuSans-72" transform="translate(908.589844 0)"/>
     <use xlink:href="#DejaVuSans-74" transform="translate(949.703125 0)"/>
     <use xlink:href="#DejaVuSans-79" transform="translate(988.912109 0)"/>
     <use xlink:href="#DejaVuSans-20" transform="translate(1048.091797 0)"/>
     <use xlink:href="#DejaVuSans-4c" transform="translate(1079.878906 0)"/>
     <use xlink:href="#DejaVuSans-69" transform="translate(1135.591797 0)"/>
     <use xlink:href="#DejaVuSans-6e" transform="translate(1163.375 0)"/>
     <use xlink:href="#DejaVuSans-65" transform="translate(1226.753906 0)"/>
     <use xlink:href="#DejaVuSans-3a" transform="translate(1288.277344 0)"/>
     <use xlink:href="#DejaVuSans-20" transform="translate(1321.96875 0)"/>
     <use xlink:href="#DejaVuSans-24" transform="translate(1353.755859 0)"/>
     <use xlink:href="#DejaVuSans-32" transform="translate(1417.378906 0)"/>
     <use xlink:href="#DejaVuSans-2e" transform="translate(1481.001953 0)"/>
     <use xlink:href="#DejaVuSans-31" transform="translate(1512.789062 0)"/>
     <use xlink:href="#DejaVuSans-35" transform="translate(1576.412109 0)"/>
    </g>
   </g>
   <g id="text_13">
    <!-- World mean: $19.18 -->
    <g style="fill: #808080" transform="translate(566.941695 150.343) rotate(-90) scale(0.08 -0.08)">
     <defs>
      <path id="DejaVuSans-57" d="M 213 4666 
L 850 4666 
L 1831 722 
L 2809 4666 
L 3519 4666 
L 4500 722 
L 5478 4666 
L 6119 4666 
L 4947 0 
L 4153 0 
L 3169 4050 
L 2175 0 
L 1381 0 
L 213 4666 
z
" transform="scale(0.015625)"/>
      <path id="DejaVuSans-39" d="M 703 97 
L 703 672 
Q 941 559 1184 500 
Q 1428 441 1663 441 
Q 2288 441 2617 861 
Q 2947 1281 2994 2138 
Q 2813 1869 2534 1725 
Q 2256 1581 1919 1581 
Q 1219 1581 811 2004 
Q 403 2428 403 3163 
Q 403 3881 828 4315 
Q 1253 4750 1959 4750 
Q 2769 4750 3195 4129 
Q 3622 3509 3622 2328 
Q 3622 1225 3098 567 
Q 2575 -91 1691 -91 
Q 1453 -91 1209 -44 
Q 966 3 703 97 
z
M 1959 2075 
Q 2384 2075 2632 2365 
Q 2881 2656 2881 3163 
Q 2881 3666 2632 3958 
Q 2384 4250 1959 4250 
Q 1534 4250 1286 3958 
Q 1038 3666 1038 3163 
Q 1038 2656 1286 2365 
Q 1534 2075 1959 2075 
z
" transform="scale(0.015625)"/>
      <path id="DejaVuSans-38" d="M 2034 2216 
Q 1584 2216 1326 1975 
Q 1069 1734 1069 1313 
Q 1069 891 1326 650 
Q 1584 409 2034 409 
Q 2484 409 2743 651 
Q 3003 894 3003 1313 
Q 3003 1734 2745 1975 
Q 2488 2216 2034 2216 
z
M 1403 2484 
Q 997 2584 770 2862 
Q 544 3141 544 3541 
Q 544 4100 942 4425 
Q 1341 4750 2034 4750 
Q 2731 4750 3128 4425 
Q 3525 4100 3525 3541 
Q 3525 3141 3298 2862 
Q 3072 2584 2669 2484 
Q 3125 2378 3379 2068 
Q 3634 1759 3634 1313 
Q 3634 634 3220 271 
Q 2806 -91 2034 -91 
Q 1263 -91 848 271 
Q 434 634 434 1313 
Q 434 1759 690 2068 
Q 947 2378 1403 2484 
z
M 1172 3481 
Q 1172 3119 1398 2916 
Q 1625 2713 2034 2713 
Q 2441 2713 2670 2916 
Q 2900 3119 2900 3481 
Q 2900 3844 2670 4047 
Q 2441 4250 2034 4250 
Q 1625 4250 1398 4047 
Q 1172 3844 1172 3481 
z
" transform="scale(0.015625)"/>
     </defs>
     <use xlink:href="#DejaVuSans-57"/>
     <use xlink:href="#DejaVuSans-6f" transform="translate(93.001953 0)"/>
     <use xlink:href="#DejaVuSans-72" transform="translate(154.183594 0)"/>
     <use xlink:href="#DejaVuSans-6c" transform="translate(195.296875 0)"/>
     <use xlink:href="#DejaVuSans-64" transform="translate(223.080078 0)"/>
     <use xlink:href="#DejaVuSans-20" transform="translate(286.556641 0)"/>
     <use xlink:href="#DejaVuSans-6d" transform="translate(318.34375 0)"/>
     <use xlink:href="#DejaVuSans-65" transform="translate(415.755859 0)"/>
     <use xlink:href="#DejaVuSans-61" transform="translate(477.279297 0)"/>
     <use xlink:href="#DejaVuSans-6e" transform="translate(538.558594 0)"/>
     <use xlink:href="#DejaVuSans-3a" transform="translate(601.9375 0)"/>
     <use xlink:href="#DejaVuSans-20" transform="translate(635.628906 0)"/>
     <use xlink:href="#DejaVuSans-24" transform="translate(667.416016 0)"/>
     <use xlink:href="#DejaVuSans-31" transform="translate(731.039062 0)"/>
     <use xlink:href="#DejaVuSans-39" transform="translate(794.662109 0)"/>
     <use xlink:href="#DejaVuSans-2e" transform="translate(858.285156 0)"/>
     <use xlink:href="#DejaVuSans-31" transform="translate(890.072266 0)"/>
     <use xlink:href="#DejaVuSans-38" transform="translate(953.695312 0)"/>
    </g>
   </g>
   <g id="text_14">
    <!-- World median: $8.25 -->
    <g style="fill: #808080" transform="translate(480.744211 152.55425) rotate(-90) scale(0.08 -0.08)">
     <use xlink:href="#DejaVuSans-57"/>
     <use xlink:href="#DejaVuSans-6f" transform="translate(93.001953 0)"/>
     <use xlink:href="#DejaVuSans-72" transform="translate(154.183594 0)"/>
     <use xlink:href="#DejaVuSans-6c" transform="translate(195.296875 0)"/>
     <use xlink:href="#DejaVuSans-64" transform="translate(223.080078 0)"/>
     <use xlink:href="#DejaVuSans-20" transform="translate(286.556641 0)"/>
     <use xlink:href="#DejaVuSans-6d" transform="translate(318.34375 0)"/>
     <use xlink:href="#DejaVuSans-65" transform="translate(415.755859 0)"/>
     <use xlink:href="#DejaVuSans-64" transform="translate(477.279297 0)"/>
     <use xlink:href="#DejaVuSans-69" transform="translate(540.755859 0)"/>
     <use xlink:href="#DejaVuSans-61" transform="translate(568.539062 0)"/>
     <use xlink:href="#DejaVuSans-6e" transform="translate(629.818359 0)"/>
     <use xlink:href="#DejaVuSans-3a" transform="translate(693.197266 0)"/>
     <use xlink:href="#DejaVuSans-20" transform="translate(726.888672 0)"/>
     <use xlink:href="#DejaVuSans-24" transform="translate(758.675781 0)"/>
     <use xlink:href="#DejaVuSans-38" transform="translate(822.298828 0)"/>
     <use xlink:href="#DejaVuSans-2e" transform="translate(885.921875 0)"/>
     <use xlink:href="#DejaVuSans-32" transform="translate(917.708984 0)"/>
     <use xlink:href="#DejaVuSans-35" transform="translate(981.332031 0)"/>
    </g>
   </g>
   <g id="text_15">
    <!-- Denmark (2021) -->
    <g transform="translate(649.475167 478.520312) scale(0.1 -0.1)">
     <defs>
      <path id="DejaVuSans-44" d="M 1259 4147 
L 1259 519 
L 2022 519 
Q 2988 519 3436 956 
Q 3884 1394 3884 2338 
Q 3884 3275 3436 3711 
Q 2988 4147 2022 4147 
L 1259 4147 
z
M 628 4666 
L 1925 4666 
Q 3281 4666 3915 4102 
Q 4550 3538 4550 2338 
Q 4550 1131 3912 565 
Q 3275 0 1925 0 
L 628 0 
L 628 4666 
z
" transform="scale(0.015625)"/>
      <path id="DejaVuSans-6b" d="M 581 4863 
L 1159 4863 
L 1159 1991 
L 2875 3500 
L 3609 3500 
L 1753 1863 
L 3688 0 
L 2938 0 
L 1159 1709 
L 1159 0 
L 581 0 
L 581 4863 
z
" transform="scale(0.015625)"/>
     </defs>
     <use xlink:href="#DejaVuSans-44"/>
     <use xlink:href="#DejaVuSans-65" transform="translate(77.001953 0)"/>
     <use xlink:href="#DejaVuSans-6e" transform="translate(138.525391 0)"/>
     <use xlink:href="#DejaVuSans-6d" transform="translate(201.904297 0)"/>
     <use xlink:href="#DejaVuSans-61" transform="translate(299.316406 0)"/>
     <use xlink:href="#DejaVuSans-72" transform="translate(360.595703 0)"/>
     <use xlink:href="#DejaVuSans-6b" transform="translate(401.708984 0)"/>
     <use xlink:href="#DejaVuSans-20" transform="translate(459.619141 0)"/>
     <use xlink:href="#DejaVuSans-28" transform="translate(491.40625 0)"/>
     <use xlink:href="#DejaVuSans-32" transform="translate(530.419922 0)"/>
     <use xlink:href="#DejaVuSans-30" transform="translate(594.042969 0)"/>
     <use xlink:href="#DejaVuSans-32" transform="translate(657.666016 0)"/>
     <use xlink:href="#DejaVuSans-31" transform="translate(721.289062 0)"/>
     <use xlink:href="#DejaVuSans-29" transform="translate(784.912109 0)"/>
    </g>
   </g>
   <g id="text_16">
    <!-- Syria (2022) -->
    <g transform="translate(347.171955 478.520312) scale(0.1 -0.1)">
     <defs>
      <path id="DejaVuSans-53" d="M 3425 4513 
L 3425 3897 
Q 3066 4069 2747 4153 
Q 2428 4238 2131 4238 
Q 1616 4238 1336 4038 
Q 1056 3838 1056 3469 
Q 1056 3159 1242 3001 
Q 1428 2844 1947 2747 
L 2328 2669 
Q 3034 2534 3370 2195 
Q 3706 1856 3706 1288 
Q 3706 609 3251 259 
Q 2797 -91 1919 -91 
Q 1588 -91 1214 -16 
Q 841 59 441 206 
L 441 856 
Q 825 641 1194 531 
Q 1563 422 1919 422 
Q 2459 422 2753 634 
Q 3047 847 3047 1241 
Q 3047 1584 2836 1778 
Q 2625 1972 2144 2069 
L 1759 2144 
Q 1053 2284 737 2584 
Q 422 2884 422 3419 
Q 422 4038 858 4394 
Q 1294 4750 2059 4750 
Q 2388 4750 2728 4690 
Q 3069 4631 3425 4513 
z
" transform="scale(0.015625)"/>
     </defs>
     <use xlink:href="#DejaVuSans-53"/>
     <use xlink:href="#DejaVuSans-79" transform="translate(63.476562 0)"/>
     <use xlink:href="#DejaVuSans-72" transform="translate(122.65625 0)"/>
     <use xlink:href="#DejaVuSans-69" transform="translate(163.769531 0)"/>
     <use xlink:href="#DejaVuSans-61" transform="translate(191.552734 0)"/>
     <use xlink:href="#DejaVuSans-20" transform="translate(252.832031 0)"/>
     <use xlink:href="#DejaVuSans-28" transform="translate(284.619141 0)"/>
     <use xlink:href="#DejaVuSans-32" transform="translate(323.632812 0)"/>
     <use xlink:href="#DejaVuSans-30" transform="translate(387.255859 0)"/>
     <use xlink:href="#DejaVuSans-32" transform="translate(450.878906 0)"/>
     <use xlink:href="#DejaVuSans-32" transform="translate(514.501953 0)"/>
     <use xlink:href="#DejaVuSans-29" transform="translate(578.125 0)"/>
    </g>
   </g>
  </g>
 </g>
 <defs>
  <clipPath id="p7bf7c46084">
   <rect x="135" y="64.8" width="837" height="415.8"/>
  </clipPath>
 </defs>
</svg>
