<?xml version="1.0" encoding="utf-8" standalone="no"?>
<!DOCTYPE svg PUBLIC "-//W3C//DTD SVG 1.1//EN"
  "http://www.w3.org/Graphics/SVG/1.1/DTD/svg11.dtd">
<svg xmlns:xlink="http://www.w3.org/1999/xlink" width="865.302344pt" height="265.689687pt" viewBox="0 0 865.302344 265.689687" xmlns="http://www.w3.org/2000/svg" version="1.1">
 <metadata>
  <rdf:RDF xmlns:dc="http://purl.org/dc/elements/1.1/" xmlns:cc="http://creativecommons.org/ns#" xmlns:rdf="http://www.w3.org/1999/02/22-rdf-syntax-ns#">
   <cc:Work>
    <dc:type rdf:resource="http://purl.org/dc/dcmitype/StillImage"/>
    <dc:date>2026-05-22T12:42:20.665363</dc:date>
    <dc:format>image/svg+xml</dc:format>
    <dc:creator>
     <cc:Agent>
      <dc:title>Matplotlib v3.10.9, https://matplotlib.org/</dc:title>
     </cc:Agent>
    </dc:creator>
   </cc:Work>
  </rdf:RDF>
 </metadata>
 <defs>
  <style type="text/css">*{stroke-linejoin: round; stroke-linecap: butt}</style>
 </defs>
 <g id="figure_1">
  <g id="patch_1">
   <path d="M 0 265.689687 
L 865.302344 265.689687 
L 865.302344 0 
L 0 0 
z
" style="fill: #ffffff"/>
  </g>
  <g id="axes_1">
   <g id="patch_2">
    <path d="M 7.2 228.96 
L 844.2 228.96 
L 844.2 7.2 
L 7.2 7.2 
z
" style="fill: #ffffff"/>
   </g>
   <g id="matplotlib.axis_1">
    <g id="xtick_1">
     <g id="line2d_1">
      <defs>
       <path id="m896925f9ba" d="M 0 0 
L 0 3.5 
" style="stroke: #262626; stroke-width: 0.8"/>
      </defs>
      <g>
       <use xlink:href="#m896925f9ba" x="197.737921" y="228.96" style="fill: #262626; stroke: #262626; stroke-width: 0.8"/>
      </g>
     </g>
     <g id="text_1">
      <text style="font-size: 10px; font-family: 'Arial', 'DejaVu Sans', 'Liberation Sans', 'Bitstream Vera Sans', sans-serif; text-anchor: middle; fill: #262626" x="197.737921" y="243.117812" transform="rotate(-0 197.737921 243.117812)">$1</text>
     </g>
    </g>
    <g id="xtick_2">
     <g id="line2d_2">
      <g>
       <use xlink:href="#m896925f9ba" x="262.60608" y="228.96" style="fill: #262626; stroke: #262626; stroke-width: 0.8"/>
      </g>
     </g>
     <g id="text_2">
      <text style="font-size: 10px; font-family: 'Arial', 'DejaVu Sans', 'Liberation Sans', 'Bitstream Vera Sans', sans-serif; text-anchor: middle; fill: #262626" x="262.60608" y="243.117812" transform="rotate(-0 262.60608 243.117812)">$2</text>
     </g>
    </g>
    <g id="xtick_3">
     <g id="line2d_3">
      <g>
       <use xlink:href="#m896925f9ba" x="348.357122" y="228.96" style="fill: #262626; stroke: #262626; stroke-width: 0.8"/>
      </g>
     </g>
     <g id="text_3">
      <text style="font-size: 10px; font-family: 'Arial', 'DejaVu Sans', 'Liberation Sans', 'Bitstream Vera Sans', sans-serif; text-anchor: middle; fill: #262626" x="348.357122" y="243.117812" transform="rotate(-0 348.357122 243.117812)">$5</text>
     </g>
    </g>
    <g id="xtick_4">
     <g id="line2d_4">
      <g>
       <use xlink:href="#m896925f9ba" x="413.225281" y="228.96" style="fill: #262626; stroke: #262626; stroke-width: 0.8"/>
      </g>
     </g>
     <g id="text_4">
      <text style="font-size: 10px; font-family: 'Arial', 'DejaVu Sans', 'Liberation Sans', 'Bitstream Vera Sans', sans-serif; text-anchor: middle; fill: #262626" x="413.225281" y="243.117812" transform="rotate(-0 413.225281 243.117812)">$10</text>
     </g>
    </g>
    <g id="xtick_5">
     <g id="line2d_5">
      <g>
       <use xlink:href="#m896925f9ba" x="478.09344" y="228.96" style="fill: #262626; stroke: #262626; stroke-width: 0.8"/>
      </g>
     </g>
     <g id="text_5">
      <text style="font-size: 10px; font-family: 'Arial', 'DejaVu Sans', 'Liberation Sans', 'Bitstream Vera Sans', sans-serif; text-anchor: middle; fill: #262626" x="478.09344" y="243.117812" transform="rotate(-0 478.09344 243.117812)">$20</text>
     </g>
    </g>
    <g id="xtick_6">
     <g id="line2d_6">
      <g>
       <use xlink:href="#m896925f9ba" x="563.844481" y="228.96" style="fill: #262626; stroke: #262626; stroke-width: 0.8"/>
      </g>
     </g>
     <g id="text_6">
      <text style="font-size: 10px; font-family: 'Arial', 'DejaVu Sans', 'Liberation Sans', 'Bitstream Vera Sans', sans-serif; text-anchor: middle; fill: #262626" x="563.844481" y="243.117812" transform="rotate(-0 563.844481 243.117812)">$50</text>
     </g>
    </g>
    <g id="xtick_7">
     <g id="line2d_7">
      <g>
       <use xlink:href="#m896925f9ba" x="628.71264" y="228.96" style="fill: #262626; stroke: #262626; stroke-width: 0.8"/>
      </g>
     </g>
     <g id="text_7">
      <text style="font-size: 10px; font-family: 'Arial', 'DejaVu Sans', 'Liberation Sans', 'Bitstream Vera Sans', sans-serif; text-anchor: middle; fill: #262626" x="628.71264" y="243.117812" transform="rotate(-0 628.71264 243.117812)">$100</text>
     </g>
    </g>
    <g id="xtick_8">
     <g id="line2d_8">
      <g>
       <use xlink:href="#m896925f9ba" x="693.580799" y="228.96" style="fill: #262626; stroke: #262626; stroke-width: 0.8"/>
      </g>
     </g>
     <g id="text_8">
      <text style="font-size: 10px; font-family: 'Arial', 'DejaVu Sans', 'Liberation Sans', 'Bitstream Vera Sans', sans-serif; text-anchor: middle; fill: #262626" x="693.580799" y="243.117812" transform="rotate(-0 693.580799 243.117812)">$200</text>
     </g>
    </g>
    <g id="xtick_9">
     <g id="line2d_9">
      <g>
       <use xlink:href="#m896925f9ba" x="779.331841" y="228.96" style="fill: #262626; stroke: #262626; stroke-width: 0.8"/>
      </g>
     </g>
     <g id="text_9">
      <text style="font-size: 10px; font-family: 'Arial', 'DejaVu Sans', 'Liberation Sans', 'Bitstream Vera Sans', sans-serif; text-anchor: middle; fill: #262626" x="779.331841" y="243.117812" transform="rotate(-0 779.331841 243.117812)">$500</text>
     </g>
    </g>
    <g id="xtick_10">
     <g id="line2d_10">
      <g>
       <use xlink:href="#m896925f9ba" x="844.2" y="228.96" style="fill: #262626; stroke: #262626; stroke-width: 0.8"/>
      </g>
     </g>
     <g id="text_10">
      <text style="font-size: 10px; font-family: 'Arial', 'DejaVu Sans', 'Liberation Sans', 'Bitstream Vera Sans', sans-serif; text-anchor: middle; fill: #262626" x="844.2" y="243.117812" transform="rotate(-0 844.2 243.117812)">$1000</text>
     </g>
    </g>
    <g id="xtick_11">
     <g id="line2d_11">
      <defs>
       <path id="mdd27c08ce3" d="M 0 0 
L 0 2 
" style="stroke: #262626; stroke-width: 0.6"/>
      </defs>
      <g>
       <use xlink:href="#mdd27c08ce3" x="47.11872" y="228.96" style="fill: #262626; stroke: #262626; stroke-width: 0.6"/>
      </g>
     </g>
    </g>
    <g id="xtick_12">
     <g id="line2d_12">
      <g>
       <use xlink:href="#mdd27c08ce3" x="85.064161" y="228.96" style="fill: #262626; stroke: #262626; stroke-width: 0.6"/>
      </g>
     </g>
    </g>
    <g id="xtick_13">
     <g id="line2d_13">
      <g>
       <use xlink:href="#mdd27c08ce3" x="111.986879" y="228.96" style="fill: #262626; stroke: #262626; stroke-width: 0.6"/>
      </g>
     </g>
    </g>
    <g id="xtick_14">
     <g id="line2d_14">
      <g>
       <use xlink:href="#mdd27c08ce3" x="132.869762" y="228.96" style="fill: #262626; stroke: #262626; stroke-width: 0.6"/>
      </g>
     </g>
    </g>
    <g id="xtick_15">
     <g id="line2d_15">
      <g>
       <use xlink:href="#mdd27c08ce3" x="149.93232" y="228.96" style="fill: #262626; stroke: #262626; stroke-width: 0.6"/>
      </g>
     </g>
    </g>
    <g id="xtick_16">
     <g id="line2d_16">
      <g>
       <use xlink:href="#mdd27c08ce3" x="164.358507" y="228.96" style="fill: #262626; stroke: #262626; stroke-width: 0.6"/>
      </g>
     </g>
    </g>
    <g id="xtick_17">
     <g id="line2d_17">
      <g>
       <use xlink:href="#mdd27c08ce3" x="176.855038" y="228.96" style="fill: #262626; stroke: #262626; stroke-width: 0.6"/>
      </g>
     </g>
    </g>
    <g id="xtick_18">
     <g id="line2d_18">
      <g>
       <use xlink:href="#mdd27c08ce3" x="187.87776" y="228.96" style="fill: #262626; stroke: #262626; stroke-width: 0.6"/>
      </g>
     </g>
    </g>
    <g id="xtick_19">
     <g id="line2d_19">
      <g>
       <use xlink:href="#mdd27c08ce3" x="300.55152" y="228.96" style="fill: #262626; stroke: #262626; stroke-width: 0.6"/>
      </g>
     </g>
    </g>
    <g id="xtick_20">
     <g id="line2d_20">
      <g>
       <use xlink:href="#mdd27c08ce3" x="327.474239" y="228.96" style="fill: #262626; stroke: #262626; stroke-width: 0.6"/>
      </g>
     </g>
    </g>
    <g id="xtick_21">
     <g id="line2d_21">
      <g>
       <use xlink:href="#mdd27c08ce3" x="365.419679" y="228.96" style="fill: #262626; stroke: #262626; stroke-width: 0.6"/>
      </g>
     </g>
    </g>
    <g id="xtick_22">
     <g id="line2d_22">
      <g>
       <use xlink:href="#mdd27c08ce3" x="379.845866" y="228.96" style="fill: #262626; stroke: #262626; stroke-width: 0.6"/>
      </g>
     </g>
    </g>
    <g id="xtick_23">
     <g id="line2d_23">
      <g>
       <use xlink:href="#mdd27c08ce3" x="392.342398" y="228.96" style="fill: #262626; stroke: #262626; stroke-width: 0.6"/>
      </g>
     </g>
    </g>
    <g id="xtick_24">
     <g id="line2d_24">
      <g>
       <use xlink:href="#mdd27c08ce3" x="403.36512" y="228.96" style="fill: #262626; stroke: #262626; stroke-width: 0.6"/>
      </g>
     </g>
    </g>
    <g id="xtick_25">
     <g id="line2d_25">
      <g>
       <use xlink:href="#mdd27c08ce3" x="516.03888" y="228.96" style="fill: #262626; stroke: #262626; stroke-width: 0.6"/>
      </g>
     </g>
    </g>
    <g id="xtick_26">
     <g id="line2d_26">
      <g>
       <use xlink:href="#mdd27c08ce3" x="542.961599" y="228.96" style="fill: #262626; stroke: #262626; stroke-width: 0.6"/>
      </g>
     </g>
    </g>
    <g id="xtick_27">
     <g id="line2d_27">
      <g>
       <use xlink:href="#mdd27c08ce3" x="580.907039" y="228.96" style="fill: #262626; stroke: #262626; stroke-width: 0.6"/>
      </g>
     </g>
    </g>
    <g id="xtick_28">
     <g id="line2d_28">
      <g>
       <use xlink:href="#mdd27c08ce3" x="595.333226" y="228.96" style="fill: #262626; stroke: #262626; stroke-width: 0.6"/>
      </g>
     </g>
    </g>
    <g id="xtick_29">
     <g id="line2d_29">
      <g>
       <use xlink:href="#mdd27c08ce3" x="607.829757" y="228.96" style="fill: #262626; stroke: #262626; stroke-width: 0.6"/>
      </g>
     </g>
    </g>
    <g id="xtick_30">
     <g id="line2d_30">
      <g>
       <use xlink:href="#mdd27c08ce3" x="618.852479" y="228.96" style="fill: #262626; stroke: #262626; stroke-width: 0.6"/>
      </g>
     </g>
    </g>
    <g id="xtick_31">
     <g id="line2d_31">
      <g>
       <use xlink:href="#mdd27c08ce3" x="731.52624" y="228.96" style="fill: #262626; stroke: #262626; stroke-width: 0.6"/>
      </g>
     </g>
    </g>
    <g id="xtick_32">
     <g id="line2d_32">
      <g>
       <use xlink:href="#mdd27c08ce3" x="758.448958" y="228.96" style="fill: #262626; stroke: #262626; stroke-width: 0.6"/>
      </g>
     </g>
    </g>
    <g id="xtick_33">
     <g id="line2d_33">
      <g>
       <use xlink:href="#mdd27c08ce3" x="796.394399" y="228.96" style="fill: #262626; stroke: #262626; stroke-width: 0.6"/>
      </g>
     </g>
    </g>
    <g id="xtick_34">
     <g id="line2d_34">
      <g>
       <use xlink:href="#mdd27c08ce3" x="810.820586" y="228.96" style="fill: #262626; stroke: #262626; stroke-width: 0.6"/>
      </g>
     </g>
    </g>
    <g id="xtick_35">
     <g id="line2d_35">
      <g>
       <use xlink:href="#mdd27c08ce3" x="823.317117" y="228.96" style="fill: #262626; stroke: #262626; stroke-width: 0.6"/>
      </g>
     </g>
    </g>
    <g id="xtick_36">
     <g id="line2d_36">
      <g>
       <use xlink:href="#mdd27c08ce3" x="834.339839" y="228.96" style="fill: #262626; stroke: #262626; stroke-width: 0.6"/>
      </g>
     </g>
    </g>
    <g id="text_11">
     <text style="font-size: 10px; font-family: 'Arial', 'DejaVu Sans', 'Liberation Sans', 'Bitstream Vera Sans', sans-serif; text-anchor: middle; fill: #262626" x="425.7" y="256.385" transform="rotate(-0 425.7 256.385)">Income or consumption (day)</text>
    </g>
   </g>
   <g id="matplotlib.axis_2"/>
   <g id="FillBetweenPolyCollection_1">
    <defs>
     <path id="mcb7b6bed30" d="M 42.249394 -36.775902 
L 42.249394 -36.729688 
L 44.465906 -36.729688 
L 46.682418 -36.729688 
L 48.89893 -36.729688 
L 51.115442 -36.729688 
L 53.331953 -36.729688 
L 55.548465 -36.729688 
L 57.764977 -36.729688 
L 59.981489 -36.729688 
L 62.198001 -36.729688 
L 64.414513 -36.729688 
L 66.631024 -36.729688 
L 68.847536 -36.729688 
L 71.064048 -36.729688 
L 73.28056 -36.729688 
L 75.497072 -36.729688 
L 77.713584 -36.729688 
L 79.930095 -36.729688 
L 82.146607 -36.729688 
L 84.363119 -36.729688 
L 86.579631 -36.729688 
L 88.796143 -36.729688 
L 91.012654 -36.729688 
L 93.229166 -36.729688 
L 95.445678 -36.729688 
L 97.66219 -36.729688 
L 99.878702 -36.729688 
L 102.095214 -36.729688 
L 104.311725 -36.729688 
L 106.528237 -36.729688 
L 108.744749 -36.729688 
L 110.961261 -36.729688 
L 113.177773 -36.729688 
L 115.394285 -36.729688 
L 117.610796 -36.729688 
L 119.827308 -36.729688 
L 122.04382 -36.729688 
L 124.260332 -36.729688 
L 126.476844 -36.729688 
L 128.693356 -36.729688 
L 130.909867 -36.729688 
L 133.126379 -36.729688 
L 135.342891 -36.729688 
L 137.559403 -36.729688 
L 139.775915 -36.729688 
L 141.992426 -36.729688 
L 144.208938 -36.729688 
L 146.42545 -36.729688 
L 148.641962 -36.729688 
L 150.858474 -36.729688 
L 153.074986 -36.729688 
L 155.291497 -36.729688 
L 157.508009 -36.729688 
L 159.724521 -36.729688 
L 161.941033 -36.729688 
L 164.157545 -36.729688 
L 166.374057 -36.729688 
L 168.590568 -36.729688 
L 170.80708 -36.729688 
L 173.023592 -36.729688 
L 175.240104 -36.729688 
L 177.456616 -36.729688 
L 179.673128 -36.729688 
L 181.889639 -36.729688 
L 184.106151 -36.729688 
L 186.322663 -36.729688 
L 188.539175 -36.729688 
L 190.755687 -36.729688 
L 192.972198 -36.729688 
L 195.18871 -36.729688 
L 197.405222 -36.729688 
L 199.621734 -36.729688 
L 201.838246 -36.729688 
L 204.054758 -36.729688 
L 206.271269 -36.729688 
L 208.487781 -36.729688 
L 210.704293 -36.729688 
L 212.920805 -36.729688 
L 215.137317 -36.729688 
L 217.353829 -36.729688 
L 219.57034 -36.729688 
L 221.786852 -36.729688 
L 224.003364 -36.729688 
L 226.219876 -36.729688 
L 228.436388 -36.729688 
L 230.6529 -36.729688 
L 232.869411 -36.729688 
L 235.085923 -36.729688 
L 237.302435 -36.729688 
L 239.518947 -36.729688 
L 241.735459 -36.729688 
L 243.95197 -36.729688 
L 246.168482 -36.729688 
L 248.384994 -36.729688 
L 250.601506 -36.729688 
L 252.818018 -36.729688 
L 255.03453 -36.729688 
L 257.251041 -36.729688 
L 259.467553 -36.729688 
L 261.684065 -36.729688 
L 263.900577 -36.729688 
L 266.117089 -36.729688 
L 268.333601 -36.729688 
L 270.550112 -36.729688 
L 272.766624 -36.729688 
L 274.983136 -36.729688 
L 277.199648 -36.729688 
L 279.41616 -36.729688 
L 281.632672 -36.729688 
L 283.849183 -36.729688 
L 286.065695 -36.729688 
L 288.282207 -36.729688 
L 290.498719 -36.729688 
L 292.715231 -36.729688 
L 294.931743 -36.729688 
L 297.148254 -36.729688 
L 299.364766 -36.729688 
L 301.581278 -36.729688 
L 303.79779 -36.729688 
L 306.014302 -36.729688 
L 308.230813 -36.729688 
L 310.447325 -36.729688 
L 312.663837 -36.729688 
L 314.880349 -36.729688 
L 317.096861 -36.729688 
L 319.313373 -36.729688 
L 321.529884 -36.729688 
L 323.746396 -36.729688 
L 325.962908 -36.729688 
L 328.17942 -36.729688 
L 330.395932 -36.729688 
L 332.612444 -36.729688 
L 334.828955 -36.729688 
L 337.045467 -36.729688 
L 339.261979 -36.729688 
L 341.478491 -36.729688 
L 343.695003 -36.729688 
L 345.911515 -36.729688 
L 348.128026 -36.729688 
L 350.344538 -36.729688 
L 352.56105 -36.729688 
L 354.777562 -36.729688 
L 356.994074 -36.729688 
L 359.210585 -36.729688 
L 361.427097 -36.729688 
L 363.643609 -36.729688 
L 365.860121 -36.729688 
L 368.076633 -36.729688 
L 370.293145 -36.729688 
L 372.509656 -36.729688 
L 374.726168 -36.729688 
L 376.94268 -36.729688 
L 379.159192 -36.729688 
L 381.375704 -36.729688 
L 383.592216 -36.729688 
L 385.808727 -36.729688 
L 388.025239 -36.729688 
L 390.241751 -36.729688 
L 392.458263 -36.729688 
L 394.674775 -36.729688 
L 396.891287 -36.729688 
L 399.107798 -36.729688 
L 401.32431 -36.729688 
L 403.540822 -36.729688 
L 405.757334 -36.729688 
L 407.973846 -36.729688 
L 410.190357 -36.729688 
L 412.406869 -36.729688 
L 414.623381 -36.729688 
L 416.839893 -36.729688 
L 419.056405 -36.729688 
L 421.272917 -36.729688 
L 423.489428 -36.729688 
L 425.70594 -36.729688 
L 427.922452 -36.729688 
L 430.138964 -36.729688 
L 432.355476 -36.729688 
L 434.571988 -36.729688 
L 436.788499 -36.729688 
L 439.005011 -36.729688 
L 441.221523 -36.729688 
L 443.438035 -36.729688 
L 445.654547 -36.729688 
L 447.871059 -36.729688 
L 450.08757 -36.729688 
L 452.304082 -36.729688 
L 454.520594 -36.729688 
L 456.737106 -36.729688 
L 458.953618 -36.729688 
L 461.17013 -36.729688 
L 463.386641 -36.729688 
L 465.603153 -36.729688 
L 467.819665 -36.729688 
L 470.036177 -36.729688 
L 472.252689 -36.729688 
L 474.4692 -36.729688 
L 476.685712 -36.729688 
L 478.902224 -36.729688 
L 481.118736 -36.729688 
L 483.335248 -36.729688 
L 483.335248 -36.741506 
L 483.335248 -36.741506 
L 481.118736 -36.74776 
L 478.902224 -36.756879 
L 476.685712 -36.769939 
L 474.4692 -36.788322 
L 472.252689 -36.813745 
L 470.036177 -36.848299 
L 467.819665 -36.894448 
L 465.603153 -36.955023 
L 463.386641 -37.033166 
L 461.17013 -37.132244 
L 458.953618 -37.255718 
L 456.737106 -37.406982 
L 454.520594 -37.589155 
L 452.304082 -37.804866 
L 450.08757 -38.056036 
L 447.871059 -38.34367 
L 445.654547 -38.667707 
L 443.438035 -39.026924 
L 441.221523 -39.418924 
L 439.005011 -39.840227 
L 436.788499 -40.286449 
L 434.571988 -40.752565 
L 432.355476 -41.233251 
L 430.138964 -41.723253 
L 427.922452 -42.217765 
L 425.70594 -42.712774 
L 423.489428 -43.205342 
L 421.272917 -43.693793 
L 419.056405 -44.177793 
L 416.839893 -44.658317 
L 414.623381 -45.137515 
L 412.406869 -45.618481 
L 410.190357 -46.104964 
L 407.973846 -46.601051 
L 405.757334 -47.110837 
L 403.540822 -47.638131 
L 401.32431 -48.186201 
L 399.107798 -48.757592 
L 396.891287 -49.354026 
L 394.674775 -49.976383 
L 392.458263 -50.62477 
L 390.241751 -51.298683 
L 388.025239 -51.997235 
L 385.808727 -52.71945 
L 383.592216 -53.464594 
L 381.375704 -54.232507 
L 379.159192 -55.023917 
L 376.94268 -55.840672 
L 374.726168 -56.685877 
L 372.509656 -57.563887 
L 370.293145 -58.480151 
L 368.076633 -59.440903 
L 365.860121 -60.452715 
L 363.643609 -61.521974 
L 361.427097 -62.654313 
L 359.210585 -63.854086 
L 356.994074 -65.123936 
L 354.777562 -66.464513 
L 352.56105 -67.874373 
L 350.344538 -69.350076 
L 348.128026 -70.886447 
L 345.911515 -72.476987 
L 343.695003 -74.114368 
L 341.478491 -75.790959 
L 339.261979 -77.499345 
L 337.045467 -79.23279 
L 334.828955 -80.985638 
L 332.612444 -82.753623 
L 330.395932 -84.534109 
L 328.17942 -86.32625 
L 325.962908 -88.131067 
L 323.746396 -89.951442 
L 321.529884 -91.791997 
L 319.313373 -93.658843 
L 317.096861 -95.559188 
L 314.880349 -97.500785 
L 312.663837 -99.491262 
L 310.447325 -101.537371 
L 308.230813 -103.644219 
L 306.014302 -105.814596 
L 303.79779 -108.048458 
L 301.581278 -110.342677 
L 299.364766 -112.691083 
L 297.148254 -115.084816 
L 294.931743 -117.512959 
L 292.715231 -119.963365 
L 290.498719 -122.42357 
L 288.282207 -124.881682 
L 286.065695 -127.327114 
L 283.849183 -129.751091 
L 281.632672 -132.14686 
L 279.41616 -134.509625 
L 277.199648 -136.836219 
L 274.983136 -139.124611 
L 272.766624 -141.37333 
L 270.550112 -143.580905 
L 268.333601 -145.745389 
L 266.117089 -147.864027 
L 263.900577 -149.933067 
L 261.684065 -151.947703 
L 259.467553 -153.902084 
L 257.251041 -155.789362 
L 255.03453 -157.601687 
L 252.818018 -159.330157 
L 250.601506 -160.96469 
L 248.384994 -162.493864 
L 246.168482 -163.904775 
L 243.95197 -165.182985 
L 241.735459 -166.312638 
L 239.518947 -167.276782 
L 237.302435 -168.057932 
L 235.085923 -168.63885 
L 232.869411 -169.00348 
L 230.6529 -169.137948 
L 228.436388 -169.031524 
L 226.219876 -168.677435 
L 224.003364 -168.073435 
L 221.786852 -167.222077 
L 219.57034 -166.130668 
L 217.353829 -164.810921 
L 215.137317 -163.278344 
L 212.920805 -161.551449 
L 210.704293 -159.650834 
L 208.487781 -157.598232 
L 206.271269 -155.415562 
L 204.054758 -153.124063 
L 201.838246 -150.743514 
L 199.621734 -148.291613 
L 197.405222 -145.783509 
L 195.18871 -143.231537 
L 192.972198 -140.645169 
L 190.755687 -138.031184 
L 188.539175 -135.394065 
L 186.322663 -132.736584 
L 184.106151 -130.060521 
L 181.889639 -127.367449 
L 179.673128 -124.659485 
L 177.456616 -121.939918 
L 175.240104 -119.213625 
L 173.023592 -116.48722 
L 170.80708 -113.76891 
L 168.590568 -111.068066 
L 166.374057 -108.394576 
L 164.157545 -105.758054 
L 161.941033 -103.167031 
L 159.724521 -100.628224 
L 157.508009 -98.14599 
L 155.291497 -95.722053 
L 153.074986 -93.355524 
L 150.858474 -91.043231 
L 148.641962 -88.7803 
L 146.42545 -86.560935 
L 144.208938 -84.379284 
L 141.992426 -82.230296 
L 139.775915 -80.110475 
L 137.559403 -78.018428 
L 135.342891 -75.955178 
L 133.126379 -73.924189 
L 130.909867 -71.931115 
L 128.693356 -69.983305 
L 126.476844 -68.08911 
L 124.260332 -66.257074 
L 122.04382 -64.495079 
L 119.827308 -62.809537 
L 117.610796 -61.204709 
L 115.394285 -59.682216 
L 113.177773 -58.240804 
L 110.961261 -56.876381 
L 108.744749 -55.582341 
L 106.528237 -54.350139 
L 104.311725 -53.170078 
L 102.095214 -52.032213 
L 99.878702 -50.927303 
L 97.66219 -49.847688 
L 95.445678 -48.788011 
L 93.229166 -47.745703 
L 91.012654 -46.721175 
L 88.796143 -45.717712 
L 86.579631 -44.741065 
L 84.363119 -43.798817 
L 82.146607 -42.899584 
L 79.930095 -42.05215 
L 77.713584 -41.264633 
L 75.497072 -40.543764 
L 73.28056 -39.894347 
L 71.064048 -39.318939 
L 68.847536 -38.817758 
L 66.631024 -38.388798 
L 64.414513 -38.028123 
L 62.198001 -37.730268 
L 59.981489 -37.488717 
L 57.764977 -37.296371 
L 55.548465 -37.145991 
L 53.331953 -37.030565 
L 51.115442 -36.943587 
L 48.89893 -36.879246 
L 46.682418 -36.832522 
L 44.465906 -36.799212 
L 42.249394 -36.775902 
z
" style="stroke: #dd8452"/>
    </defs>
    <g>
     <use xlink:href="#mcb7b6bed30" x="0" y="265.689687" style="fill: #dd8452; fill-opacity: 0.25; stroke: #dd8452"/>
    </g>
   </g>
   <g id="FillBetweenPolyCollection_2">
    <defs>
     <path id="m56be5b492d" d="M 426.644342 -36.740956 
L 426.644342 -36.729688 
L 428.235261 -36.729688 
L 429.826181 -36.729688 
L 431.4171 -36.729688 
L 433.008019 -36.729688 
L 434.598939 -36.729688 
L 436.189858 -36.729688 
L 437.780777 -36.729688 
L 439.371696 -36.729688 
L 440.962616 -36.729688 
L 442.553535 -36.729688 
L 444.144454 -36.729688 
L 445.735374 -36.729688 
L 447.326293 -36.729688 
L 448.917212 -36.729688 
L 450.508131 -36.729688 
L 452.099051 -36.729688 
L 453.68997 -36.729688 
L 455.280889 -36.729688 
L 456.871809 -36.729688 
L 458.462728 -36.729688 
L 460.053647 -36.729688 
L 461.644566 -36.729688 
L 463.235486 -36.729688 
L 464.826405 -36.729688 
L 466.417324 -36.729688 
L 468.008244 -36.729688 
L 469.599163 -36.729688 
L 471.190082 -36.729688 
L 472.781001 -36.729688 
L 474.371921 -36.729688 
L 475.96284 -36.729688 
L 477.553759 -36.729688 
L 479.144679 -36.729688 
L 480.735598 -36.729688 
L 482.326517 -36.729688 
L 483.917436 -36.729688 
L 485.508356 -36.729688 
L 487.099275 -36.729688 
L 488.690194 -36.729688 
L 490.281114 -36.729688 
L 491.872033 -36.729688 
L 493.462952 -36.729688 
L 495.053871 -36.729688 
L 496.644791 -36.729688 
L 498.23571 -36.729688 
L 499.826629 -36.729688 
L 501.417549 -36.729688 
L 503.008468 -36.729688 
L 504.599387 -36.729688 
L 506.190306 -36.729688 
L 507.781226 -36.729688 
L 509.372145 -36.729688 
L 510.963064 -36.729688 
L 512.553984 -36.729688 
L 514.144903 -36.729688 
L 515.735822 -36.729688 
L 517.326741 -36.729688 
L 518.917661 -36.729688 
L 520.50858 -36.729688 
L 522.099499 -36.729688 
L 523.690419 -36.729688 
L 525.281338 -36.729688 
L 526.872257 -36.729688 
L 528.463176 -36.729688 
L 530.054096 -36.729688 
L 531.645015 -36.729688 
L 533.235934 -36.729688 
L 534.826854 -36.729688 
L 536.417773 -36.729688 
L 538.008692 -36.729688 
L 539.599611 -36.729688 
L 541.190531 -36.729688 
L 542.78145 -36.729688 
L 544.372369 -36.729688 
L 545.963289 -36.729688 
L 547.554208 -36.729688 
L 549.145127 -36.729688 
L 550.736046 -36.729688 
L 552.326966 -36.729688 
L 553.917885 -36.729688 
L 555.508804 -36.729688 
L 557.099724 -36.729688 
L 558.690643 -36.729688 
L 560.281562 -36.729688 
L 561.872481 -36.729688 
L 563.463401 -36.729688 
L 565.05432 -36.729688 
L 566.645239 -36.729688 
L 568.236159 -36.729688 
L 569.827078 -36.729688 
L 571.417997 -36.729688 
L 573.008916 -36.729688 
L 574.599836 -36.729688 
L 576.190755 -36.729688 
L 577.781674 -36.729688 
L 579.372594 -36.729688 
L 580.963513 -36.729688 
L 582.554432 -36.729688 
L 584.145351 -36.729688 
L 585.736271 -36.729688 
L 587.32719 -36.729688 
L 588.918109 -36.729688 
L 590.509029 -36.729688 
L 592.099948 -36.729688 
L 593.690867 -36.729688 
L 595.281786 -36.729688 
L 596.872706 -36.729688 
L 598.463625 -36.729688 
L 600.054544 -36.729688 
L 601.645463 -36.729688 
L 603.236383 -36.729688 
L 604.827302 -36.729688 
L 606.418221 -36.729688 
L 608.009141 -36.729688 
L 609.60006 -36.729688 
L 611.190979 -36.729688 
L 612.781898 -36.729688 
L 614.372818 -36.729688 
L 615.963737 -36.729688 
L 617.554656 -36.729688 
L 619.145576 -36.729688 
L 620.736495 -36.729688 
L 622.327414 -36.729688 
L 623.918333 -36.729688 
L 625.509253 -36.729688 
L 627.100172 -36.729688 
L 628.691091 -36.729688 
L 630.282011 -36.729688 
L 631.87293 -36.729688 
L 633.463849 -36.729688 
L 635.054768 -36.729688 
L 636.645688 -36.729688 
L 638.236607 -36.729688 
L 639.827526 -36.729688 
L 641.418446 -36.729688 
L 643.009365 -36.729688 
L 644.600284 -36.729688 
L 646.191203 -36.729688 
L 647.782123 -36.729688 
L 649.373042 -36.729688 
L 650.963961 -36.729688 
L 652.554881 -36.729688 
L 654.1458 -36.729688 
L 655.736719 -36.729688 
L 657.327638 -36.729688 
L 658.918558 -36.729688 
L 660.509477 -36.729688 
L 662.100396 -36.729688 
L 663.691316 -36.729688 
L 665.282235 -36.729688 
L 666.873154 -36.729688 
L 668.464073 -36.729688 
L 670.054993 -36.729688 
L 671.645912 -36.729688 
L 673.236831 -36.729688 
L 674.827751 -36.729688 
L 676.41867 -36.729688 
L 678.009589 -36.729688 
L 679.600508 -36.729688 
L 681.191428 -36.729688 
L 682.782347 -36.729688 
L 684.373266 -36.729688 
L 685.964186 -36.729688 
L 687.555105 -36.729688 
L 689.146024 -36.729688 
L 690.736943 -36.729688 
L 692.327863 -36.729688 
L 693.918782 -36.729688 
L 695.509701 -36.729688 
L 697.100621 -36.729688 
L 698.69154 -36.729688 
L 700.282459 -36.729688 
L 701.873378 -36.729688 
L 703.464298 -36.729688 
L 705.055217 -36.729688 
L 706.646136 -36.729688 
L 708.237056 -36.729688 
L 709.827975 -36.729688 
L 711.418894 -36.729688 
L 713.009813 -36.729688 
L 714.600733 -36.729688 
L 716.191652 -36.729688 
L 717.782571 -36.729688 
L 719.373491 -36.729688 
L 720.96441 -36.729688 
L 722.555329 -36.729688 
L 724.146248 -36.729688 
L 725.737168 -36.729688 
L 727.328087 -36.729688 
L 728.919006 -36.729688 
L 730.509926 -36.729688 
L 732.100845 -36.729688 
L 733.691764 -36.729688 
L 735.282683 -36.729688 
L 736.873603 -36.729688 
L 738.464522 -36.729688 
L 740.055441 -36.729688 
L 741.646361 -36.729688 
L 743.23728 -36.729688 
L 743.23728 -36.743376 
L 743.23728 -36.743376 
L 741.646361 -36.751673 
L 740.055441 -36.76423 
L 738.464522 -36.782784 
L 736.873603 -36.809557 
L 735.282683 -36.847287 
L 733.691764 -36.899224 
L 732.100845 -36.969073 
L 730.509926 -37.060873 
L 728.919006 -37.178815 
L 727.328087 -37.326998 
L 725.737168 -37.50916 
L 724.146248 -37.728393 
L 722.555329 -37.986896 
L 720.96441 -38.285796 
L 719.373491 -38.625062 
L 717.782571 -39.003547 
L 716.191652 -39.419129 
L 714.600733 -39.868952 
L 713.009813 -40.349714 
L 711.418894 -40.857962 
L 709.827975 -41.390353 
L 708.237056 -41.943843 
L 706.646136 -42.515805 
L 705.055217 -43.104082 
L 703.464298 -43.707003 
L 701.873378 -44.323408 
L 700.282459 -44.952715 
L 698.69154 -45.595041 
L 697.100621 -46.251397 
L 695.509701 -46.923911 
L 693.918782 -47.616068 
L 692.327863 -48.332908 
L 690.736943 -49.081145 
L 689.146024 -49.869198 
L 687.555105 -50.707122 
L 685.964186 -51.60644 
L 684.373266 -52.579921 
L 682.782347 -53.6413 
L 681.191428 -54.804972 
L 679.600508 -56.085639 
L 678.009589 -57.497922 
L 676.41867 -59.055905 
L 674.827751 -60.772622 
L 673.236831 -62.659499 
L 671.645912 -64.725783 
L 670.054993 -66.978016 
L 668.464073 -69.419625 
L 666.873154 -72.050678 
L 665.282235 -74.867846 
L 663.691316 -77.864574 
L 662.100396 -81.031428 
L 660.509477 -84.356527 
L 658.918558 -87.82601 
L 657.327638 -91.42442 
L 655.736719 -95.134983 
L 654.1458 -98.939768 
L 652.554881 -102.819775 
L 650.963961 -106.755066 
L 649.373042 -110.725046 
L 647.782123 -114.709016 
L 646.191203 -118.687039 
L 644.600284 -122.641121 
L 643.009365 -126.556558 
L 641.418446 -130.423254 
L 639.827526 -134.236751 
L 638.236607 -137.998712 
L 636.645688 -141.716698 
L 635.054768 -145.403198 
L 633.463849 -149.074035 
L 631.87293 -152.746416 
L 630.282011 -156.436998 
L 628.691091 -160.160302 
L 627.100172 -163.927741 
L 625.509253 -167.747332 
L 623.918333 -171.623944 
L 622.327414 -175.559786 
L 620.736495 -179.554746 
L 619.145576 -183.606236 
L 617.554656 -187.708381 
L 615.963737 -191.850644 
L 614.372818 -196.016217 
L 612.781898 -200.180717 
L 611.190979 -204.311752 
L 609.60006 -208.369807 
L 608.009141 -212.310627 
L 606.418221 -216.088907 
L 604.827302 -219.662797 
L 603.236383 -222.998423 
L 601.645463 -226.073608 
L 600.054544 -228.880067 
L 598.463625 -231.423605 
L 596.872706 -233.72226 
L 595.281786 -235.802693 
L 593.690867 -237.695408 
L 592.099948 -239.429587 
L 590.509029 -241.028287 
L 588.918109 -242.504614 
L 587.32719 -243.859246 
L 585.736271 -245.079388 
L 584.145351 -246.139055 
L 582.554432 -247.000375 
L 580.963513 -247.615619 
L 579.372594 -247.929688 
L 577.781674 -247.882889 
L 576.190755 -247.413954 
L 574.599836 -246.463289 
L 573.008916 -244.976461 
L 571.417997 -242.907818 
L 569.827078 -240.224054 
L 568.236159 -236.907354 
L 566.645239 -232.957752 
L 565.05432 -228.394308 
L 563.463401 -223.254843 
L 561.872481 -217.594179 
L 560.281562 -211.481042 
L 558.690643 -204.994026 
L 557.099724 -198.217131 
L 555.508804 -191.235442 
L 553.917885 -184.13142 
L 552.326966 -176.982147 
L 550.736046 -169.857627 
L 549.145127 -162.820066 
L 547.554208 -155.923898 
L 545.963289 -149.216249 
L 544.372369 -142.737508 
L 542.78145 -136.521787 
L 541.190531 -130.597123 
L 539.599611 -124.985412 
L 538.008692 -119.702184 
L 536.417773 -114.756368 
L 534.826854 -110.150248 
L 533.235934 -105.879758 
L 531.645015 -101.935183 
L 530.054096 -98.302277 
L 528.463176 -94.963643 
L 526.872257 -91.90019 
L 525.281338 -89.092414 
L 523.690419 -86.521273 
L 522.099499 -84.168501 
L 520.50858 -82.016314 
L 518.917661 -80.046631 
L 517.326741 -78.240027 
L 515.735822 -76.574739 
L 514.144903 -75.026072 
L 512.553984 -73.566454 
L 510.963064 -72.166294 
L 509.372145 -70.795587 
L 507.781226 -69.426075 
L 506.190306 -68.033595 
L 504.599387 -66.60023 
L 503.008468 -65.115864 
L 501.417549 -63.578876 
L 499.826629 -61.995845 
L 498.23571 -60.380345 
L 496.644791 -58.751022 
L 495.053871 -57.129292 
L 493.462952 -55.537011 
L 491.872033 -53.994431 
L 490.281114 -52.518687 
L 488.690194 -51.122918 
L 487.099275 -49.81603 
L 485.508356 -48.602981 
L 483.917436 -47.485426 
L 482.326517 -46.46253 
L 480.735598 -45.531757 
L 479.144679 -44.689519 
L 477.553759 -43.931588 
L 475.96284 -43.253287 
L 474.371921 -42.649481 
L 472.781001 -42.114457 
L 471.190082 -41.641787 
L 469.599163 -41.224268 
L 468.008244 -40.853988 
L 466.417324 -40.522568 
L 464.826405 -40.221547 
L 463.235486 -39.942875 
L 461.644566 -39.679438 
L 460.053647 -39.42553 
L 458.462728 -39.177193 
L 456.871809 -38.932379 
L 455.280889 -38.690891 
L 453.68997 -38.454133 
L 452.099051 -38.224699 
L 450.508131 -38.005861 
L 448.917212 -37.801044 
L 447.326293 -37.613347 
L 445.735374 -37.445168 
L 444.144454 -37.297973 
L 442.553535 -37.172209 
L 440.962616 -37.067352 
L 439.371696 -36.982057 
L 437.780777 -36.914374 
L 436.189858 -36.861983 
L 434.598939 -36.822426 
L 433.008019 -36.79329 
L 431.4171 -36.772356 
L 429.826181 -36.757683 
L 428.235261 -36.74765 
L 426.644342 -36.740956 
z
" style="stroke: #4c72b0"/>
    </defs>
    <g>
     <use xlink:href="#m56be5b492d" x="0" y="265.689687" style="fill: #4c72b0; fill-opacity: 0.25; stroke: #4c72b0"/>
    </g>
   </g>
   <g id="line2d_37">
    <path d="M 300.55152 228.96 
L 300.55152 7.2 
" style="fill: none; stroke-dasharray: 0.8,1.32; stroke-dashoffset: 0; stroke: #d3d3d3; stroke-width: 0.8"/>
   </g>
   <g id="line2d_38">
    <path d="M 488.272496 228.96 
L 488.272496 7.2 
" style="fill: none; stroke-dasharray: 0.8,1.32; stroke-dashoffset: 0; stroke: #d3d3d3; stroke-width: 0.8"/>
   </g>
   <g id="line2d_39">
    <path d="M 409.891109 228.96 
L 409.891109 7.2 
" style="fill: none; stroke-dasharray: 0.8,1.32; stroke-dashoffset: 0; stroke: #d3d3d3; stroke-width: 0.8"/>
   </g>
   <g id="line2d_40">
    <path d="M 7.2 228.96 
L 844.2 228.96 
" style="fill: none; stroke: #808080; stroke-width: 0.5; stroke-linecap: round"/>
   </g>
   <g id="text_12">
    <text style="font-size: 8px; font-family: 'Arial', 'DejaVu Sans', 'Liberation Sans', 'Bitstream Vera Sans', sans-serif; fill: #808080" transform="translate(306.80527 124.59635) rotate(-90)">International Poverty Line: $3.00</text>
   </g>
   <g id="text_13">
    <text style="font-size: 8px; font-family: 'Arial', 'DejaVu Sans', 'Liberation Sans', 'Bitstream Vera Sans', sans-serif; fill: #808080" transform="translate(493.998746 81.31135) rotate(-90)">World mean: $22.30</text>
   </g>
   <g id="text_14">
    <text style="font-size: 8px; font-family: 'Arial', 'DejaVu Sans', 'Liberation Sans', 'Bitstream Vera Sans', sans-serif; fill: #808080" transform="translate(415.617359 83.08885) rotate(-90)">World median: $9.65</text>
   </g>
   <g id="legend_1">
    <g id="patch_3">
     <path d="M 683.8 102.466062 
L 851.4125 102.466062 
Q 853.4125 102.466062 853.4125 100.466062 
L 853.4125 58.552 
Q 853.4125 56.552 851.4125 56.552 
L 683.8 56.552 
Q 681.8 56.552 681.8 58.552 
L 681.8 100.466062 
Q 681.8 102.466062 683.8 102.466062 
z
" style="fill: #ffffff; opacity: 0.8; stroke: #cccccc; stroke-linejoin: miter"/>
    </g>
    <g id="text_15">
     <text style="font-size: 10px; font-family: 'Arial', 'DejaVu Sans', 'Liberation Sans', 'Bitstream Vera Sans', sans-serif; text-anchor: start; fill: #262626" x="750.1" y="67.831687" transform="rotate(-0 750.1 67.831687)">Country</text>
    </g>
    <g id="patch_4">
     <path d="M 685.8 82.094187 
L 705.8 82.094187 
L 705.8 75.094187 
L 685.8 75.094187 
z
" style="fill: #4c72b0; fill-opacity: 0.25; stroke: #4c72b0; stroke-linejoin: miter"/>
    </g>
    <g id="text_16">
     <text style="font-size: 10px; font-family: 'Arial', 'DejaVu Sans', 'Liberation Sans', 'Bitstream Vera Sans', sans-serif; text-anchor: start; fill: #262626" x="713.8" y="82.094187" transform="rotate(-0 713.8 82.094187)">Denmark</text>
    </g>
    <g id="patch_5">
     <path d="M 685.8 96.361375 
L 705.8 96.361375 
L 705.8 89.361375 
L 685.8 89.361375 
z
" style="fill: #dd8452; fill-opacity: 0.25; stroke: #dd8452; stroke-linejoin: miter"/>
    </g>
    <g id="text_17">
     <text style="font-size: 10px; font-family: 'Arial', 'DejaVu Sans', 'Liberation Sans', 'Bitstream Vera Sans', sans-serif; text-anchor: start; fill: #262626" x="713.8" y="96.361375" transform="rotate(-0 713.8 96.361375)">Democratic Republic of Congo</text>
    </g>
   </g>
  </g>
 </g>
</svg>
