<?xml version="1.0" encoding="utf-8" standalone="no"?>
<!DOCTYPE svg PUBLIC "-//W3C//DTD SVG 1.1//EN"
  "http://www.w3.org/Graphics/SVG/1.1/DTD/svg11.dtd">
<svg xmlns:xlink="http://www.w3.org/1999/xlink" width="865.302344pt" height="265.689687pt" viewBox="0 0 865.302344 265.689687" xmlns="http://www.w3.org/2000/svg" version="1.1">
 <metadata>
  <rdf:RDF xmlns:dc="http://purl.org/dc/elements/1.1/" xmlns:cc="http://creativecommons.org/ns#" xmlns:rdf="http://www.w3.org/1999/02/22-rdf-syntax-ns#">
   <cc:Work>
    <dc:type rdf:resource="http://purl.org/dc/dcmitype/StillImage"/>
    <dc:date>2026-05-22T10:03:29.483625</dc:date>
    <dc:format>image/svg+xml</dc:format>
    <dc:creator>
     <cc:Agent>
      <dc:title>Matplotlib v3.10.9, https://matplotlib.org/</dc:title>
     </cc:Agent>
    </dc:creator>
   </cc:Work>
  </rdf:RDF>
 </metadata>
 <defs>
  <style type="text/css">*{stroke-linejoin: round; stroke-linecap: butt}</style>
 </defs>
 <g id="figure_1">
  <g id="patch_1">
   <path d="M 0 265.689687 
L 865.302344 265.689687 
L 865.302344 0 
L 0 0 
z
" style="fill: #ffffff"/>
  </g>
  <g id="axes_1">
   <g id="patch_2">
    <path d="M 7.2 228.96 
L 844.2 228.96 
L 844.2 7.2 
L 7.2 7.2 
z
" style="fill: #ffffff"/>
   </g>
   <g id="matplotlib.axis_1">
    <g id="xtick_1">
     <g id="line2d_1">
      <defs>
       <path id="m3b7ab5d54b" d="M 0 0 
L 0 3.5 
" style="stroke: #262626; stroke-width: 0.8"/>
      </defs>
      <g>
       <use xlink:href="#m3b7ab5d54b" x="131.361264" y="228.96" style="fill: #262626; stroke: #262626; stroke-width: 0.8"/>
      </g>
     </g>
     <g id="text_1">
      <text style="font-size: 10px; font-family: 'Arial', 'DejaVu Sans', 'Liberation Sans', 'Bitstream Vera Sans', sans-serif; text-anchor: middle; fill: #262626" x="131.361264" y="243.117812" transform="rotate(-0 131.361264 243.117812)">$1</text>
     </g>
    </g>
    <g id="xtick_2">
     <g id="line2d_2">
      <g>
       <use xlink:href="#m3b7ab5d54b" x="202.889878" y="228.96" style="fill: #262626; stroke: #262626; stroke-width: 0.8"/>
      </g>
     </g>
     <g id="text_2">
      <text style="font-size: 10px; font-family: 'Arial', 'DejaVu Sans', 'Liberation Sans', 'Bitstream Vera Sans', sans-serif; text-anchor: middle; fill: #262626" x="202.889878" y="243.117812" transform="rotate(-0 202.889878 243.117812)">$2</text>
     </g>
    </g>
    <g id="xtick_3">
     <g id="line2d_3">
      <g>
       <use xlink:href="#m3b7ab5d54b" x="297.445562" y="228.96" style="fill: #262626; stroke: #262626; stroke-width: 0.8"/>
      </g>
     </g>
     <g id="text_3">
      <text style="font-size: 10px; font-family: 'Arial', 'DejaVu Sans', 'Liberation Sans', 'Bitstream Vera Sans', sans-serif; text-anchor: middle; fill: #262626" x="297.445562" y="243.117812" transform="rotate(-0 297.445562 243.117812)">$5</text>
     </g>
    </g>
    <g id="xtick_4">
     <g id="line2d_4">
      <g>
       <use xlink:href="#m3b7ab5d54b" x="368.974176" y="228.96" style="fill: #262626; stroke: #262626; stroke-width: 0.8"/>
      </g>
     </g>
     <g id="text_4">
      <text style="font-size: 10px; font-family: 'Arial', 'DejaVu Sans', 'Liberation Sans', 'Bitstream Vera Sans', sans-serif; text-anchor: middle; fill: #262626" x="368.974176" y="243.117812" transform="rotate(-0 368.974176 243.117812)">$10</text>
     </g>
    </g>
    <g id="xtick_5">
     <g id="line2d_5">
      <g>
       <use xlink:href="#m3b7ab5d54b" x="440.50279" y="228.96" style="fill: #262626; stroke: #262626; stroke-width: 0.8"/>
      </g>
     </g>
     <g id="text_5">
      <text style="font-size: 10px; font-family: 'Arial', 'DejaVu Sans', 'Liberation Sans', 'Bitstream Vera Sans', sans-serif; text-anchor: middle; fill: #262626" x="440.50279" y="243.117812" transform="rotate(-0 440.50279 243.117812)">$20</text>
     </g>
    </g>
    <g id="xtick_6">
     <g id="line2d_6">
      <g>
       <use xlink:href="#m3b7ab5d54b" x="535.058474" y="228.96" style="fill: #262626; stroke: #262626; stroke-width: 0.8"/>
      </g>
     </g>
     <g id="text_6">
      <text style="font-size: 10px; font-family: 'Arial', 'DejaVu Sans', 'Liberation Sans', 'Bitstream Vera Sans', sans-serif; text-anchor: middle; fill: #262626" x="535.058474" y="243.117812" transform="rotate(-0 535.058474 243.117812)">$50</text>
     </g>
    </g>
    <g id="xtick_7">
     <g id="line2d_7">
      <g>
       <use xlink:href="#m3b7ab5d54b" x="606.587088" y="228.96" style="fill: #262626; stroke: #262626; stroke-width: 0.8"/>
      </g>
     </g>
     <g id="text_7">
      <text style="font-size: 10px; font-family: 'Arial', 'DejaVu Sans', 'Liberation Sans', 'Bitstream Vera Sans', sans-serif; text-anchor: middle; fill: #262626" x="606.587088" y="243.117812" transform="rotate(-0 606.587088 243.117812)">$100</text>
     </g>
    </g>
    <g id="xtick_8">
     <g id="line2d_8">
      <g>
       <use xlink:href="#m3b7ab5d54b" x="678.115702" y="228.96" style="fill: #262626; stroke: #262626; stroke-width: 0.8"/>
      </g>
     </g>
     <g id="text_8">
      <text style="font-size: 10px; font-family: 'Arial', 'DejaVu Sans', 'Liberation Sans', 'Bitstream Vera Sans', sans-serif; text-anchor: middle; fill: #262626" x="678.115702" y="243.117812" transform="rotate(-0 678.115702 243.117812)">$200</text>
     </g>
    </g>
    <g id="xtick_9">
     <g id="line2d_9">
      <g>
       <use xlink:href="#m3b7ab5d54b" x="772.671386" y="228.96" style="fill: #262626; stroke: #262626; stroke-width: 0.8"/>
      </g>
     </g>
     <g id="text_9">
      <text style="font-size: 10px; font-family: 'Arial', 'DejaVu Sans', 'Liberation Sans', 'Bitstream Vera Sans', sans-serif; text-anchor: middle; fill: #262626" x="772.671386" y="243.117812" transform="rotate(-0 772.671386 243.117812)">$500</text>
     </g>
    </g>
    <g id="xtick_10">
     <g id="line2d_10">
      <g>
       <use xlink:href="#m3b7ab5d54b" x="844.2" y="228.96" style="fill: #262626; stroke: #262626; stroke-width: 0.8"/>
      </g>
     </g>
     <g id="text_10">
      <text style="font-size: 10px; font-family: 'Arial', 'DejaVu Sans', 'Liberation Sans', 'Bitstream Vera Sans', sans-serif; text-anchor: middle; fill: #262626" x="844.2" y="243.117812" transform="rotate(-0 844.2 243.117812)">$1000</text>
     </g>
    </g>
    <g id="xtick_11">
     <g id="line2d_11">
      <defs>
       <path id="m9129cd5521" d="M 0 0 
L 0 2 
" style="stroke: #262626; stroke-width: 0.6"/>
      </defs>
      <g>
       <use xlink:href="#m9129cd5521" x="36.805579" y="228.96" style="fill: #262626; stroke: #262626; stroke-width: 0.6"/>
      </g>
     </g>
    </g>
    <g id="xtick_12">
     <g id="line2d_12">
      <g>
       <use xlink:href="#m9129cd5521" x="59.83265" y="228.96" style="fill: #262626; stroke: #262626; stroke-width: 0.6"/>
      </g>
     </g>
    </g>
    <g id="xtick_13">
     <g id="line2d_13">
      <g>
       <use xlink:href="#m9129cd5521" x="78.647136" y="228.96" style="fill: #262626; stroke: #262626; stroke-width: 0.6"/>
      </g>
     </g>
    </g>
    <g id="xtick_14">
     <g id="line2d_14">
      <g>
       <use xlink:href="#m9129cd5521" x="94.554558" y="228.96" style="fill: #262626; stroke: #262626; stroke-width: 0.6"/>
      </g>
     </g>
    </g>
    <g id="xtick_15">
     <g id="line2d_15">
      <g>
       <use xlink:href="#m9129cd5521" x="108.334193" y="228.96" style="fill: #262626; stroke: #262626; stroke-width: 0.6"/>
      </g>
     </g>
    </g>
    <g id="xtick_16">
     <g id="line2d_16">
      <g>
       <use xlink:href="#m9129cd5521" x="120.488693" y="228.96" style="fill: #262626; stroke: #262626; stroke-width: 0.6"/>
      </g>
     </g>
    </g>
    <g id="xtick_17">
     <g id="line2d_17">
      <g>
       <use xlink:href="#m9129cd5521" x="244.731434" y="228.96" style="fill: #262626; stroke: #262626; stroke-width: 0.6"/>
      </g>
     </g>
    </g>
    <g id="xtick_18">
     <g id="line2d_18">
      <g>
       <use xlink:href="#m9129cd5521" x="274.418491" y="228.96" style="fill: #262626; stroke: #262626; stroke-width: 0.6"/>
      </g>
     </g>
    </g>
    <g id="xtick_19">
     <g id="line2d_19">
      <g>
       <use xlink:href="#m9129cd5521" x="316.260048" y="228.96" style="fill: #262626; stroke: #262626; stroke-width: 0.6"/>
      </g>
     </g>
    </g>
    <g id="xtick_20">
     <g id="line2d_20">
      <g>
       <use xlink:href="#m9129cd5521" x="332.16747" y="228.96" style="fill: #262626; stroke: #262626; stroke-width: 0.6"/>
      </g>
     </g>
    </g>
    <g id="xtick_21">
     <g id="line2d_21">
      <g>
       <use xlink:href="#m9129cd5521" x="345.947105" y="228.96" style="fill: #262626; stroke: #262626; stroke-width: 0.6"/>
      </g>
     </g>
    </g>
    <g id="xtick_22">
     <g id="line2d_22">
      <g>
       <use xlink:href="#m9129cd5521" x="358.101605" y="228.96" style="fill: #262626; stroke: #262626; stroke-width: 0.6"/>
      </g>
     </g>
    </g>
    <g id="xtick_23">
     <g id="line2d_23">
      <g>
       <use xlink:href="#m9129cd5521" x="482.344347" y="228.96" style="fill: #262626; stroke: #262626; stroke-width: 0.6"/>
      </g>
     </g>
    </g>
    <g id="xtick_24">
     <g id="line2d_24">
      <g>
       <use xlink:href="#m9129cd5521" x="512.031404" y="228.96" style="fill: #262626; stroke: #262626; stroke-width: 0.6"/>
      </g>
     </g>
    </g>
    <g id="xtick_25">
     <g id="line2d_25">
      <g>
       <use xlink:href="#m9129cd5521" x="553.87296" y="228.96" style="fill: #262626; stroke: #262626; stroke-width: 0.6"/>
      </g>
     </g>
    </g>
    <g id="xtick_26">
     <g id="line2d_26">
      <g>
       <use xlink:href="#m9129cd5521" x="569.780382" y="228.96" style="fill: #262626; stroke: #262626; stroke-width: 0.6"/>
      </g>
     </g>
    </g>
    <g id="xtick_27">
     <g id="line2d_27">
      <g>
       <use xlink:href="#m9129cd5521" x="583.560017" y="228.96" style="fill: #262626; stroke: #262626; stroke-width: 0.6"/>
      </g>
     </g>
    </g>
    <g id="xtick_28">
     <g id="line2d_28">
      <g>
       <use xlink:href="#m9129cd5521" x="595.714517" y="228.96" style="fill: #262626; stroke: #262626; stroke-width: 0.6"/>
      </g>
     </g>
    </g>
    <g id="xtick_29">
     <g id="line2d_29">
      <g>
       <use xlink:href="#m9129cd5521" x="719.957259" y="228.96" style="fill: #262626; stroke: #262626; stroke-width: 0.6"/>
      </g>
     </g>
    </g>
    <g id="xtick_30">
     <g id="line2d_30">
      <g>
       <use xlink:href="#m9129cd5521" x="749.644316" y="228.96" style="fill: #262626; stroke: #262626; stroke-width: 0.6"/>
      </g>
     </g>
    </g>
    <g id="xtick_31">
     <g id="line2d_31">
      <g>
       <use xlink:href="#m9129cd5521" x="791.485873" y="228.96" style="fill: #262626; stroke: #262626; stroke-width: 0.6"/>
      </g>
     </g>
    </g>
    <g id="xtick_32">
     <g id="line2d_32">
      <g>
       <use xlink:href="#m9129cd5521" x="807.393294" y="228.96" style="fill: #262626; stroke: #262626; stroke-width: 0.6"/>
      </g>
     </g>
    </g>
    <g id="xtick_33">
     <g id="line2d_33">
      <g>
       <use xlink:href="#m9129cd5521" x="821.17293" y="228.96" style="fill: #262626; stroke: #262626; stroke-width: 0.6"/>
      </g>
     </g>
    </g>
    <g id="xtick_34">
     <g id="line2d_34">
      <g>
       <use xlink:href="#m9129cd5521" x="833.327429" y="228.96" style="fill: #262626; stroke: #262626; stroke-width: 0.6"/>
      </g>
     </g>
    </g>
    <g id="text_11">
     <text style="font-size: 10px; font-family: 'Arial', 'DejaVu Sans', 'Liberation Sans', 'Bitstream Vera Sans', sans-serif; text-anchor: middle; fill: #262626" x="425.7" y="256.385" transform="rotate(-0 425.7 256.385)">Income or consumption (day)</text>
    </g>
   </g>
   <g id="matplotlib.axis_2"/>
   <g id="FillBetweenPolyCollection_1">
    <defs>
     <path id="m4b1f9ae448" d="M 41.75575 -36.758543 
L 41.75575 -36.729688 
L 43.795032 -36.729688 
L 45.834314 -36.729688 
L 47.873596 -36.729688 
L 49.912878 -36.729688 
L 51.95216 -36.729688 
L 53.991442 -36.729688 
L 56.030724 -36.729688 
L 58.070006 -36.729688 
L 60.109288 -36.729688 
L 62.14857 -36.729688 
L 64.187851 -36.729688 
L 66.227133 -36.729688 
L 68.266415 -36.729688 
L 70.305697 -36.729688 
L 72.344979 -36.729688 
L 74.384261 -36.729688 
L 76.423543 -36.729688 
L 78.462825 -36.729688 
L 80.502107 -36.729688 
L 82.541389 -36.729688 
L 84.580671 -36.729688 
L 86.619953 -36.729688 
L 88.659235 -36.729688 
L 90.698517 -36.729688 
L 92.737799 -36.729688 
L 94.777081 -36.729688 
L 96.816363 -36.729688 
L 98.855645 -36.729688 
L 100.894927 -36.729688 
L 102.934209 -36.729688 
L 104.97349 -36.729688 
L 107.012772 -36.729688 
L 109.052054 -36.729688 
L 111.091336 -36.729688 
L 113.130618 -36.729688 
L 115.1699 -36.729688 
L 117.209182 -36.729688 
L 119.248464 -36.729688 
L 121.287746 -36.729688 
L 123.327028 -36.729688 
L 125.36631 -36.729688 
L 127.405592 -36.729688 
L 129.444874 -36.729688 
L 131.484156 -36.729688 
L 133.523438 -36.729688 
L 135.56272 -36.729688 
L 137.602002 -36.729688 
L 139.641284 -36.729688 
L 141.680566 -36.729688 
L 143.719847 -36.729688 
L 145.759129 -36.729688 
L 147.798411 -36.729688 
L 149.837693 -36.729688 
L 151.876975 -36.729688 
L 153.916257 -36.729688 
L 155.955539 -36.729688 
L 157.994821 -36.729688 
L 160.034103 -36.729688 
L 162.073385 -36.729688 
L 164.112667 -36.729688 
L 166.151949 -36.729688 
L 168.191231 -36.729688 
L 170.230513 -36.729688 
L 172.269795 -36.729688 
L 174.309077 -36.729688 
L 176.348359 -36.729688 
L 178.387641 -36.729688 
L 180.426923 -36.729688 
L 182.466205 -36.729688 
L 184.505486 -36.729688 
L 186.544768 -36.729688 
L 188.58405 -36.729688 
L 190.623332 -36.729688 
L 192.662614 -36.729688 
L 194.701896 -36.729688 
L 196.741178 -36.729688 
L 198.78046 -36.729688 
L 200.819742 -36.729688 
L 202.859024 -36.729688 
L 204.898306 -36.729688 
L 206.937588 -36.729688 
L 208.97687 -36.729688 
L 211.016152 -36.729688 
L 213.055434 -36.729688 
L 215.094716 -36.729688 
L 217.133998 -36.729688 
L 219.17328 -36.729688 
L 221.212562 -36.729688 
L 223.251844 -36.729688 
L 225.291125 -36.729688 
L 227.330407 -36.729688 
L 229.369689 -36.729688 
L 231.408971 -36.729688 
L 233.448253 -36.729688 
L 235.487535 -36.729688 
L 237.526817 -36.729688 
L 239.566099 -36.729688 
L 241.605381 -36.729688 
L 243.644663 -36.729688 
L 245.683945 -36.729688 
L 247.723227 -36.729688 
L 249.762509 -36.729688 
L 251.801791 -36.729688 
L 253.841073 -36.729688 
L 255.880355 -36.729688 
L 257.919637 -36.729688 
L 259.958919 -36.729688 
L 261.998201 -36.729688 
L 264.037482 -36.729688 
L 266.076764 -36.729688 
L 268.116046 -36.729688 
L 270.155328 -36.729688 
L 272.19461 -36.729688 
L 274.233892 -36.729688 
L 276.273174 -36.729688 
L 278.312456 -36.729688 
L 280.351738 -36.729688 
L 282.39102 -36.729688 
L 284.430302 -36.729688 
L 286.469584 -36.729688 
L 288.508866 -36.729688 
L 290.548148 -36.729688 
L 292.58743 -36.729688 
L 294.626712 -36.729688 
L 296.665994 -36.729688 
L 298.705276 -36.729688 
L 300.744558 -36.729688 
L 302.78384 -36.729688 
L 304.823121 -36.729688 
L 306.862403 -36.729688 
L 308.901685 -36.729688 
L 310.940967 -36.729688 
L 312.980249 -36.729688 
L 315.019531 -36.729688 
L 317.058813 -36.729688 
L 319.098095 -36.729688 
L 321.137377 -36.729688 
L 323.176659 -36.729688 
L 325.215941 -36.729688 
L 327.255223 -36.729688 
L 329.294505 -36.729688 
L 331.333787 -36.729688 
L 333.373069 -36.729688 
L 335.412351 -36.729688 
L 337.451633 -36.729688 
L 339.490915 -36.729688 
L 341.530197 -36.729688 
L 343.569479 -36.729688 
L 345.60876 -36.729688 
L 347.648042 -36.729688 
L 349.687324 -36.729688 
L 351.726606 -36.729688 
L 353.765888 -36.729688 
L 355.80517 -36.729688 
L 357.844452 -36.729688 
L 359.883734 -36.729688 
L 361.923016 -36.729688 
L 363.962298 -36.729688 
L 366.00158 -36.729688 
L 368.040862 -36.729688 
L 370.080144 -36.729688 
L 372.119426 -36.729688 
L 374.158708 -36.729688 
L 376.19799 -36.729688 
L 378.237272 -36.729688 
L 380.276554 -36.729688 
L 382.315836 -36.729688 
L 384.355117 -36.729688 
L 386.394399 -36.729688 
L 388.433681 -36.729688 
L 390.472963 -36.729688 
L 392.512245 -36.729688 
L 394.551527 -36.729688 
L 396.590809 -36.729688 
L 398.630091 -36.729688 
L 400.669373 -36.729688 
L 402.708655 -36.729688 
L 404.747937 -36.729688 
L 406.787219 -36.729688 
L 408.826501 -36.729688 
L 410.865783 -36.729688 
L 412.905065 -36.729688 
L 414.944347 -36.729688 
L 416.983629 -36.729688 
L 419.022911 -36.729688 
L 421.062193 -36.729688 
L 423.101475 -36.729688 
L 425.140756 -36.729688 
L 427.180038 -36.729688 
L 429.21932 -36.729688 
L 431.258602 -36.729688 
L 433.297884 -36.729688 
L 435.337166 -36.729688 
L 437.376448 -36.729688 
L 439.41573 -36.729688 
L 441.455012 -36.729688 
L 443.494294 -36.729688 
L 445.533576 -36.729688 
L 447.572858 -36.729688 
L 447.572858 -36.743751 
L 447.572858 -36.743751 
L 445.533576 -36.751167 
L 443.494294 -36.761948 
L 441.455012 -36.777343 
L 439.41573 -36.798931 
L 437.376448 -36.828664 
L 435.337166 -36.868889 
L 433.297884 -36.922343 
L 431.258602 -36.992124 
L 429.21932 -37.081623 
L 427.180038 -37.194411 
L 425.140756 -37.334091 
L 423.101475 -37.504115 
L 421.062193 -37.707574 
L 419.022911 -37.946985 
L 416.983629 -38.224088 
L 414.944347 -38.539678 
L 412.905065 -38.893498 
L 410.865783 -39.284201 
L 408.826501 -39.7094 
L 406.787219 -40.165803 
L 404.747937 -40.649427 
L 402.708655 -41.155876 
L 400.669373 -41.680656 
L 398.630091 -42.219493 
L 396.590809 -42.768637 
L 394.551527 -43.325104 
L 392.512245 -43.886855 
L 390.472963 -44.45288 
L 388.433681 -45.023196 
L 386.394399 -45.598754 
L 384.355117 -46.181277 
L 382.315836 -46.773037 
L 380.276554 -47.376609 
L 378.237272 -47.994616 
L 376.19799 -48.629492 
L 374.158708 -49.283291 
L 372.119426 -49.957551 
L 370.080144 -50.653226 
L 368.040862 -51.370697 
L 366.00158 -52.109852 
L 363.962298 -52.870231 
L 361.923016 -53.651224 
L 359.883734 -54.452291 
L 357.844452 -55.273195 
L 355.80517 -56.114218 
L 353.765888 -56.976333 
L 351.726606 -57.861333 
L 349.687324 -58.771871 
L 347.648042 -59.711443 
L 345.60876 -60.684293 
L 343.569479 -61.695253 
L 341.530197 -62.749546 
L 339.490915 -63.85256 
L 337.451633 -65.009622 
L 335.412351 -66.225786 
L 333.373069 -67.505654 
L 331.333787 -68.85323 
L 329.294505 -70.271816 
L 327.255223 -71.763924 
L 325.215941 -73.331217 
L 323.176659 -74.974439 
L 321.137377 -76.693346 
L 319.098095 -78.486621 
L 317.058813 -80.3518 
L 315.019531 -82.285199 
L 312.980249 -84.281908 
L 310.940967 -86.335842 
L 308.901685 -88.439916 
L 306.862403 -90.586327 
L 304.823121 -92.766975 
L 302.78384 -94.973983 
L 300.744558 -97.200288 
L 298.705276 -99.440242 
L 296.665994 -101.690152 
L 294.626712 -103.948696 
L 292.58743 -106.217148 
L 290.548148 -108.499375 
L 288.508866 -110.801589 
L 286.469584 -113.131876 
L 284.430302 -115.499534 
L 282.39102 -117.914309 
L 280.351738 -120.385581 
L 278.312456 -122.921619 
L 276.273174 -125.528947 
L 274.233892 -128.211902 
L 272.19461 -130.972396 
L 270.155328 -133.809886 
L 268.116046 -136.721523 
L 266.076764 -139.702416 
L 264.037482 -142.745948 
L 261.998201 -145.844076 
L 259.958919 -148.987534 
L 257.919637 -152.165909 
L 255.880355 -155.367577 
L 253.841073 -158.579494 
L 251.801791 -161.786916 
L 249.762509 -164.973089 
L 247.723227 -168.119018 
L 245.683945 -171.203375 
L 243.644663 -174.202641 
L 241.605381 -177.091495 
L 239.566099 -179.843486 
L 237.526817 -182.431952 
L 235.487535 -184.831114 
L 233.448253 -187.01727 
L 231.408971 -188.969957 
L 229.369689 -190.673 
L 227.330407 -192.115306 
L 225.291125 -193.291346 
L 223.251844 -194.201257 
L 221.212562 -194.850549 
L 219.17328 -195.249422 
L 217.133998 -195.411759 
L 215.094716 -195.353864 
L 213.055434 -195.093047 
L 211.016152 -194.64619 
L 208.97687 -194.02839 
L 206.937588 -193.251816 
L 204.898306 -192.324863 
L 202.859024 -191.251677 
L 200.819742 -190.032089 
L 198.78046 -188.661955 
L 196.741178 -187.133872 
L 194.701896 -185.438191 
L 192.662614 -183.56425 
L 190.623332 -181.501705 
L 188.58405 -179.241858 
L 186.544768 -176.778889 
L 184.505486 -174.110879 
L 182.466205 -171.240593 
L 180.426923 -168.175958 
L 178.387641 -164.930217 
L 176.348359 -161.521782 
L 174.309077 -157.973776 
L 172.269795 -154.313319 
L 170.230513 -150.570575 
L 168.191231 -146.777639 
L 166.151949 -142.967289 
L 164.112667 -139.171686 
L 162.073385 -135.421089 
L 160.034103 -131.742642 
L 157.994821 -128.159318 
L 155.955539 -124.689089 
L 153.916257 -121.34436 
L 151.876975 -118.131742 
L 149.837693 -115.052149 
L 147.798411 -112.101256 
L 145.759129 -109.270255 
L 143.719847 -106.546876 
L 141.680566 -103.916594 
L 139.641284 -101.363915 
L 137.602002 -98.873641 
L 135.56272 -96.432014 
L 133.523438 -94.02764 
L 131.484156 -91.652122 
L 129.444874 -89.300356 
L 127.405592 -86.970482 
L 125.36631 -84.66352 
L 123.327028 -82.382748 
L 121.287746 -80.132895 
L 119.248464 -77.919275 
L 117.209182 -75.746936 
L 115.1699 -73.619943 
L 113.130618 -71.540861 
L 111.091336 -69.510494 
L 109.052054 -67.527907 
L 107.012772 -65.590701 
L 104.97349 -63.695524 
L 102.934209 -61.838733 
L 100.894927 -60.017136 
L 98.855645 -58.228705 
L 96.816363 -56.473202 
L 94.777081 -54.752607 
L 92.737799 -53.07131 
L 90.698517 -51.436048 
L 88.659235 -49.855561 
L 86.619953 -48.340028 
L 84.580671 -46.900327 
L 82.541389 -45.547202 
L 80.502107 -44.290423 
L 78.462825 -43.138032 
L 76.423543 -42.095736 
L 74.384261 -41.166511 
L 72.344979 -40.35044 
L 70.305697 -39.644783 
L 68.266415 -39.044246 
L 66.227133 -38.541424 
L 64.187851 -38.127334 
L 62.14857 -37.791999 
L 60.109288 -37.525018 
L 58.070006 -37.316074 
L 56.030724 -37.155354 
L 53.991442 -37.033862 
L 51.95216 -36.943616 
L 49.912878 -36.877748 
L 47.873596 -36.830514 
L 45.834314 -36.797236 
L 43.795032 -36.774203 
L 41.75575 -36.758543 
z
" style="stroke: #dd8452"/>
    </defs>
    <g>
     <use xlink:href="#m4b1f9ae448" x="0" y="265.689687" style="fill: #dd8452; fill-opacity: 0.25; stroke: #dd8452"/>
    </g>
   </g>
   <g id="FillBetweenPolyCollection_2">
    <defs>
     <path id="m271ba5e758" d="M 383.771064 -36.740956 
L 383.771064 -36.729688 
L 385.525333 -36.729688 
L 387.279603 -36.729688 
L 389.033873 -36.729688 
L 390.788143 -36.729688 
L 392.542413 -36.729688 
L 394.296682 -36.729688 
L 396.050952 -36.729688 
L 397.805222 -36.729688 
L 399.559492 -36.729688 
L 401.313762 -36.729688 
L 403.068031 -36.729688 
L 404.822301 -36.729688 
L 406.576571 -36.729688 
L 408.330841 -36.729688 
L 410.08511 -36.729688 
L 411.83938 -36.729688 
L 413.59365 -36.729688 
L 415.34792 -36.729688 
L 417.10219 -36.729688 
L 418.856459 -36.729688 
L 420.610729 -36.729688 
L 422.364999 -36.729688 
L 424.119269 -36.729688 
L 425.873538 -36.729688 
L 427.627808 -36.729688 
L 429.382078 -36.729688 
L 431.136348 -36.729688 
L 432.890618 -36.729688 
L 434.644887 -36.729688 
L 436.399157 -36.729688 
L 438.153427 -36.729688 
L 439.907697 -36.729688 
L 441.661967 -36.729688 
L 443.416236 -36.729688 
L 445.170506 -36.729688 
L 446.924776 -36.729688 
L 448.679046 -36.729688 
L 450.433315 -36.729688 
L 452.187585 -36.729688 
L 453.941855 -36.729688 
L 455.696125 -36.729688 
L 457.450395 -36.729688 
L 459.204664 -36.729688 
L 460.958934 -36.729688 
L 462.713204 -36.729688 
L 464.467474 -36.729688 
L 466.221744 -36.729688 
L 467.976013 -36.729688 
L 469.730283 -36.729688 
L 471.484553 -36.729688 
L 473.238823 -36.729688 
L 474.993092 -36.729688 
L 476.747362 -36.729688 
L 478.501632 -36.729688 
L 480.255902 -36.729688 
L 482.010172 -36.729688 
L 483.764441 -36.729688 
L 485.518711 -36.729688 
L 487.272981 -36.729688 
L 489.027251 -36.729688 
L 490.781521 -36.729688 
L 492.53579 -36.729688 
L 494.29006 -36.729688 
L 496.04433 -36.729688 
L 497.7986 -36.729688 
L 499.552869 -36.729688 
L 501.307139 -36.729688 
L 503.061409 -36.729688 
L 504.815679 -36.729688 
L 506.569949 -36.729688 
L 508.324218 -36.729688 
L 510.078488 -36.729688 
L 511.832758 -36.729688 
L 513.587028 -36.729688 
L 515.341298 -36.729688 
L 517.095567 -36.729688 
L 518.849837 -36.729688 
L 520.604107 -36.729688 
L 522.358377 -36.729688 
L 524.112646 -36.729688 
L 525.866916 -36.729688 
L 527.621186 -36.729688 
L 529.375456 -36.729688 
L 531.129726 -36.729688 
L 532.883995 -36.729688 
L 534.638265 -36.729688 
L 536.392535 -36.729688 
L 538.146805 -36.729688 
L 539.901075 -36.729688 
L 541.655344 -36.729688 
L 543.409614 -36.729688 
L 545.163884 -36.729688 
L 546.918154 -36.729688 
L 548.672423 -36.729688 
L 550.426693 -36.729688 
L 552.180963 -36.729688 
L 553.935233 -36.729688 
L 555.689503 -36.729688 
L 557.443772 -36.729688 
L 559.198042 -36.729688 
L 560.952312 -36.729688 
L 562.706582 -36.729688 
L 564.460851 -36.729688 
L 566.215121 -36.729688 
L 567.969391 -36.729688 
L 569.723661 -36.729688 
L 571.477931 -36.729688 
L 573.2322 -36.729688 
L 574.98647 -36.729688 
L 576.74074 -36.729688 
L 578.49501 -36.729688 
L 580.24928 -36.729688 
L 582.003549 -36.729688 
L 583.757819 -36.729688 
L 585.512089 -36.729688 
L 587.266359 -36.729688 
L 589.020628 -36.729688 
L 590.774898 -36.729688 
L 592.529168 -36.729688 
L 594.283438 -36.729688 
L 596.037708 -36.729688 
L 597.791977 -36.729688 
L 599.546247 -36.729688 
L 601.300517 -36.729688 
L 603.054787 -36.729688 
L 604.809057 -36.729688 
L 606.563326 -36.729688 
L 608.317596 -36.729688 
L 610.071866 -36.729688 
L 611.826136 -36.729688 
L 613.580405 -36.729688 
L 615.334675 -36.729688 
L 617.088945 -36.729688 
L 618.843215 -36.729688 
L 620.597485 -36.729688 
L 622.351754 -36.729688 
L 624.106024 -36.729688 
L 625.860294 -36.729688 
L 627.614564 -36.729688 
L 629.368834 -36.729688 
L 631.123103 -36.729688 
L 632.877373 -36.729688 
L 634.631643 -36.729688 
L 636.385913 -36.729688 
L 638.140182 -36.729688 
L 639.894452 -36.729688 
L 641.648722 -36.729688 
L 643.402992 -36.729688 
L 645.157262 -36.729688 
L 646.911531 -36.729688 
L 648.665801 -36.729688 
L 650.420071 -36.729688 
L 652.174341 -36.729688 
L 653.928611 -36.729688 
L 655.68288 -36.729688 
L 657.43715 -36.729688 
L 659.19142 -36.729688 
L 660.94569 -36.729688 
L 662.699959 -36.729688 
L 664.454229 -36.729688 
L 666.208499 -36.729688 
L 667.962769 -36.729688 
L 669.717039 -36.729688 
L 671.471308 -36.729688 
L 673.225578 -36.729688 
L 674.979848 -36.729688 
L 676.734118 -36.729688 
L 678.488388 -36.729688 
L 680.242657 -36.729688 
L 681.996927 -36.729688 
L 683.751197 -36.729688 
L 685.505467 -36.729688 
L 687.259736 -36.729688 
L 689.014006 -36.729688 
L 690.768276 -36.729688 
L 692.522546 -36.729688 
L 694.276816 -36.729688 
L 696.031085 -36.729688 
L 697.785355 -36.729688 
L 699.539625 -36.729688 
L 701.293895 -36.729688 
L 703.048164 -36.729688 
L 704.802434 -36.729688 
L 706.556704 -36.729688 
L 708.310974 -36.729688 
L 710.065244 -36.729688 
L 711.819513 -36.729688 
L 713.573783 -36.729688 
L 715.328053 -36.729688 
L 717.082323 -36.729688 
L 718.836593 -36.729688 
L 720.590862 -36.729688 
L 722.345132 -36.729688 
L 724.099402 -36.729688 
L 725.853672 -36.729688 
L 727.607941 -36.729688 
L 729.362211 -36.729688 
L 731.116481 -36.729688 
L 732.870751 -36.729688 
L 732.870751 -36.743376 
L 732.870751 -36.743376 
L 731.116481 -36.751673 
L 729.362211 -36.76423 
L 727.607941 -36.782784 
L 725.853672 -36.809557 
L 724.099402 -36.847287 
L 722.345132 -36.899224 
L 720.590862 -36.969073 
L 718.836593 -37.060873 
L 717.082323 -37.178815 
L 715.328053 -37.326998 
L 713.573783 -37.50916 
L 711.819513 -37.728393 
L 710.065244 -37.986896 
L 708.310974 -38.285796 
L 706.556704 -38.625062 
L 704.802434 -39.003547 
L 703.048164 -39.419129 
L 701.293895 -39.868952 
L 699.539625 -40.349714 
L 697.785355 -40.857962 
L 696.031085 -41.390353 
L 694.276816 -41.943843 
L 692.522546 -42.515805 
L 690.768276 -43.104082 
L 689.014006 -43.707003 
L 687.259736 -44.323408 
L 685.505467 -44.952715 
L 683.751197 -45.595041 
L 681.996927 -46.251397 
L 680.242657 -46.923911 
L 678.488388 -47.616068 
L 676.734118 -48.332908 
L 674.979848 -49.081145 
L 673.225578 -49.869198 
L 671.471308 -50.707122 
L 669.717039 -51.60644 
L 667.962769 -52.579921 
L 666.208499 -53.6413 
L 664.454229 -54.804972 
L 662.699959 -56.085639 
L 660.94569 -57.497922 
L 659.19142 -59.055905 
L 657.43715 -60.772622 
L 655.68288 -62.659499 
L 653.928611 -64.725783 
L 652.174341 -66.978016 
L 650.420071 -69.419625 
L 648.665801 -72.050678 
L 646.911531 -74.867846 
L 645.157262 -77.864574 
L 643.402992 -81.031428 
L 641.648722 -84.356527 
L 639.894452 -87.82601 
L 638.140182 -91.42442 
L 636.385913 -95.134983 
L 634.631643 -98.939768 
L 632.877373 -102.819775 
L 631.123103 -106.755066 
L 629.368834 -110.725046 
L 627.614564 -114.709016 
L 625.860294 -118.687039 
L 624.106024 -122.641121 
L 622.351754 -126.556558 
L 620.597485 -130.423254 
L 618.843215 -134.236751 
L 617.088945 -137.998712 
L 615.334675 -141.716698 
L 613.580405 -145.403198 
L 611.826136 -149.074035 
L 610.071866 -152.746416 
L 608.317596 -156.436998 
L 606.563326 -160.160302 
L 604.809057 -163.927741 
L 603.054787 -167.747332 
L 601.300517 -171.623944 
L 599.546247 -175.559786 
L 597.791977 -179.554746 
L 596.037708 -183.606236 
L 594.283438 -187.708381 
L 592.529168 -191.850644 
L 590.774898 -196.016217 
L 589.020628 -200.180717 
L 587.266359 -204.311752 
L 585.512089 -208.369807 
L 583.757819 -212.310627 
L 582.003549 -216.088907 
L 580.24928 -219.662797 
L 578.49501 -222.998423 
L 576.74074 -226.073608 
L 574.98647 -228.880067 
L 573.2322 -231.423605 
L 571.477931 -233.72226 
L 569.723661 -235.802693 
L 567.969391 -237.695408 
L 566.215121 -239.429587 
L 564.460851 -241.028287 
L 562.706582 -242.504614 
L 560.952312 -243.859246 
L 559.198042 -245.079388 
L 557.443772 -246.139055 
L 555.689503 -247.000375 
L 553.935233 -247.615619 
L 552.180963 -247.929688 
L 550.426693 -247.882889 
L 548.672423 -247.413954 
L 546.918154 -246.463289 
L 545.163884 -244.976461 
L 543.409614 -242.907818 
L 541.655344 -240.224054 
L 539.901075 -236.907354 
L 538.146805 -232.957752 
L 536.392535 -228.394308 
L 534.638265 -223.254843 
L 532.883995 -217.594179 
L 531.129726 -211.481042 
L 529.375456 -204.994026 
L 527.621186 -198.217131 
L 525.866916 -191.235442 
L 524.112646 -184.13142 
L 522.358377 -176.982147 
L 520.604107 -169.857627 
L 518.849837 -162.820066 
L 517.095567 -155.923898 
L 515.341298 -149.216249 
L 513.587028 -142.737508 
L 511.832758 -136.521787 
L 510.078488 -130.597123 
L 508.324218 -124.985412 
L 506.569949 -119.702184 
L 504.815679 -114.756368 
L 503.061409 -110.150248 
L 501.307139 -105.879758 
L 499.552869 -101.935183 
L 497.7986 -98.302277 
L 496.04433 -94.963643 
L 494.29006 -91.90019 
L 492.53579 -89.092414 
L 490.781521 -86.521273 
L 489.027251 -84.168501 
L 487.272981 -82.016314 
L 485.518711 -80.046631 
L 483.764441 -78.240027 
L 482.010172 -76.574739 
L 480.255902 -75.026072 
L 478.501632 -73.566454 
L 476.747362 -72.166294 
L 474.993092 -70.795587 
L 473.238823 -69.426075 
L 471.484553 -68.033595 
L 469.730283 -66.60023 
L 467.976013 -65.115864 
L 466.221744 -63.578876 
L 464.467474 -61.995845 
L 462.713204 -60.380345 
L 460.958934 -58.751022 
L 459.204664 -57.129292 
L 457.450395 -55.537011 
L 455.696125 -53.994431 
L 453.941855 -52.518687 
L 452.187585 -51.122918 
L 450.433315 -49.81603 
L 448.679046 -48.602981 
L 446.924776 -47.485426 
L 445.170506 -46.46253 
L 443.416236 -45.531757 
L 441.661967 -44.689519 
L 439.907697 -43.931588 
L 438.153427 -43.253287 
L 436.399157 -42.649481 
L 434.644887 -42.114457 
L 432.890618 -41.641787 
L 431.136348 -41.224268 
L 429.382078 -40.853988 
L 427.627808 -40.522568 
L 425.873538 -40.221547 
L 424.119269 -39.942875 
L 422.364999 -39.679438 
L 420.610729 -39.42553 
L 418.856459 -39.177193 
L 417.10219 -38.932379 
L 415.34792 -38.690891 
L 413.59365 -38.454133 
L 411.83938 -38.224699 
L 410.08511 -38.005861 
L 408.330841 -37.801044 
L 406.576571 -37.613347 
L 404.822301 -37.445168 
L 403.068031 -37.297973 
L 401.313762 -37.172209 
L 399.559492 -37.067352 
L 397.805222 -36.982057 
L 396.050952 -36.914374 
L 394.296682 -36.861983 
L 392.542413 -36.822426 
L 390.788143 -36.79329 
L 389.033873 -36.772356 
L 387.279603 -36.757683 
L 385.525333 -36.74765 
L 383.771064 -36.740956 
z
" style="stroke: #4c72b0"/>
    </defs>
    <g>
     <use xlink:href="#m271ba5e758" x="0" y="265.689687" style="fill: #4c72b0; fill-opacity: 0.25; stroke: #4c72b0"/>
    </g>
   </g>
   <g id="line2d_35">
    <path d="M 244.731434 228.96 
L 244.731434 7.2 
" style="fill: none; stroke-dasharray: 0.8,1.32; stroke-dashoffset: 0; stroke: #d3d3d3; stroke-width: 0.8"/>
   </g>
   <g id="line2d_36">
    <path d="M 451.726999 228.96 
L 451.726999 7.2 
" style="fill: none; stroke-dasharray: 0.8,1.32; stroke-dashoffset: 0; stroke: #d3d3d3; stroke-width: 0.8"/>
   </g>
   <g id="line2d_37">
    <path d="M 365.297662 228.96 
L 365.297662 7.2 
" style="fill: none; stroke-dasharray: 0.8,1.32; stroke-dashoffset: 0; stroke: #d3d3d3; stroke-width: 0.8"/>
   </g>
   <g id="line2d_38">
    <path d="M 7.2 228.96 
L 844.2 228.96 
" style="fill: none; stroke: #808080; stroke-width: 0.5; stroke-linecap: round"/>
   </g>
   <g id="text_12">
    <text style="font-size: 8px; font-family: 'Arial', 'DejaVu Sans', 'Liberation Sans', 'Bitstream Vera Sans', sans-serif; fill: #808080" transform="translate(250.985184 124.59635) rotate(-90)">International Poverty Line: $3.00</text>
   </g>
   <g id="text_13">
    <text style="font-size: 8px; font-family: 'Arial', 'DejaVu Sans', 'Liberation Sans', 'Bitstream Vera Sans', sans-serif; fill: #808080" transform="translate(457.453249 81.31135) rotate(-90)">World mean: $22.30</text>
   </g>
   <g id="text_14">
    <text style="font-size: 8px; font-family: 'Arial', 'DejaVu Sans', 'Liberation Sans', 'Bitstream Vera Sans', sans-serif; fill: #808080" transform="translate(371.023912 83.08885) rotate(-90)">World median: $9.65</text>
   </g>
   <g id="legend_1">
    <g id="patch_3">
     <path d="M 683.8 102.344187 
L 770.825 102.344187 
Q 772.825 102.344187 772.825 100.344187 
L 772.825 58.552 
Q 772.825 56.552 770.825 56.552 
L 683.8 56.552 
Q 681.8 56.552 681.8 58.552 
L 681.8 100.344187 
Q 681.8 102.344187 683.8 102.344187 
z
" style="fill: #ffffff; opacity: 0.8; stroke: #cccccc; stroke-linejoin: miter"/>
    </g>
    <g id="text_15">
     <text style="font-size: 10px; font-family: 'Arial', 'DejaVu Sans', 'Liberation Sans', 'Bitstream Vera Sans', sans-serif; text-anchor: start; fill: #262626" x="709.80625" y="67.831687" transform="rotate(-0 709.80625 67.831687)">Country</text>
    </g>
    <g id="patch_4">
     <path d="M 685.8 82.094187 
L 705.8 82.094187 
L 705.8 75.094187 
L 685.8 75.094187 
z
" style="fill: #4c72b0; fill-opacity: 0.25; stroke: #4c72b0; stroke-linejoin: miter"/>
    </g>
    <g id="text_16">
     <text style="font-size: 10px; font-family: 'Arial', 'DejaVu Sans', 'Liberation Sans', 'Bitstream Vera Sans', sans-serif; text-anchor: start; fill: #262626" x="713.8" y="82.094187" transform="rotate(-0 713.8 82.094187)">Denmark</text>
    </g>
    <g id="patch_5">
     <path d="M 685.8 96.2395 
L 705.8 96.2395 
L 705.8 89.2395 
L 685.8 89.2395 
z
" style="fill: #dd8452; fill-opacity: 0.25; stroke: #dd8452; stroke-linejoin: miter"/>
    </g>
    <g id="text_17">
     <text style="font-size: 10px; font-family: 'Arial', 'DejaVu Sans', 'Liberation Sans', 'Bitstream Vera Sans', sans-serif; text-anchor: start; fill: #262626" x="713.8" y="96.2395" transform="rotate(-0 713.8 96.2395)">Madagascar</text>
    </g>
   </g>
  </g>
 </g>
</svg>
