<?xml version="1.0" encoding="utf-8" standalone="no"?>
<!DOCTYPE svg PUBLIC "-//W3C//DTD SVG 1.1//EN"
  "http://www.w3.org/Graphics/SVG/1.1/DTD/svg11.dtd">
<svg xmlns:xlink="http://www.w3.org/1999/xlink" width="865.302344pt" height="265.689687pt" viewBox="0 0 865.302344 265.689687" xmlns="http://www.w3.org/2000/svg" version="1.1">
 <metadata>
  <rdf:RDF xmlns:dc="http://purl.org/dc/elements/1.1/" xmlns:cc="http://creativecommons.org/ns#" xmlns:rdf="http://www.w3.org/1999/02/22-rdf-syntax-ns#">
   <cc:Work>
    <dc:type rdf:resource="http://purl.org/dc/dcmitype/StillImage"/>
    <dc:date>2026-05-21T14:04:38.454804</dc:date>
    <dc:format>image/svg+xml</dc:format>
    <dc:creator>
     <cc:Agent>
      <dc:title>Matplotlib v3.10.1, https://matplotlib.org/</dc:title>
     </cc:Agent>
    </dc:creator>
   </cc:Work>
  </rdf:RDF>
 </metadata>
 <defs>
  <style type="text/css">*{stroke-linejoin: round; stroke-linecap: butt}</style>
 </defs>
 <g id="figure_1">
  <g id="patch_1">
   <path d="M 0 265.689687 
L 865.302344 265.689687 
L 865.302344 0 
L 0 0 
z
" style="fill: #ffffff"/>
  </g>
  <g id="axes_1">
   <g id="patch_2">
    <path d="M 7.2 228.96 
L 844.2 228.96 
L 844.2 7.2 
L 7.2 7.2 
z
" style="fill: #ffffff"/>
   </g>
   <g id="matplotlib.axis_1">
    <g id="xtick_1">
     <g id="line2d_1">
      <defs>
       <path id="m4b7b8e4c7a" d="M 0 0 
L 0 3.5 
" style="stroke: #262626; stroke-width: 0.8"/>
      </defs>
      <g>
       <use xlink:href="#m4b7b8e4c7a" x="65.45864" y="228.96" style="fill: #262626; stroke: #262626; stroke-width: 0.8"/>
      </g>
     </g>
     <g id="text_1">
      <text style="font-size: 10px; font-family: 'Arial', 'DejaVu Sans', 'Liberation Sans', 'Bitstream Vera Sans', sans-serif; text-anchor: middle; fill: #262626" x="65.45864" y="243.117812" transform="rotate(-0 65.45864 243.117812)">$1</text>
     </g>
    </g>
    <g id="xtick_2">
     <g id="line2d_2">
      <g>
       <use xlink:href="#m4b7b8e4c7a" x="143.600142" y="228.96" style="fill: #262626; stroke: #262626; stroke-width: 0.8"/>
      </g>
     </g>
     <g id="text_2">
      <text style="font-size: 10px; font-family: 'Arial', 'DejaVu Sans', 'Liberation Sans', 'Bitstream Vera Sans', sans-serif; text-anchor: middle; fill: #262626" x="143.600142" y="243.117812" transform="rotate(-0 143.600142 243.117812)">$2</text>
     </g>
    </g>
    <g id="xtick_3">
     <g id="line2d_3">
      <g>
       <use xlink:href="#m4b7b8e4c7a" x="246.89759" y="228.96" style="fill: #262626; stroke: #262626; stroke-width: 0.8"/>
      </g>
     </g>
     <g id="text_3">
      <text style="font-size: 10px; font-family: 'Arial', 'DejaVu Sans', 'Liberation Sans', 'Bitstream Vera Sans', sans-serif; text-anchor: middle; fill: #262626" x="246.89759" y="243.117812" transform="rotate(-0 246.89759 243.117812)">$5</text>
     </g>
    </g>
    <g id="xtick_4">
     <g id="line2d_4">
      <g>
       <use xlink:href="#m4b7b8e4c7a" x="325.039093" y="228.96" style="fill: #262626; stroke: #262626; stroke-width: 0.8"/>
      </g>
     </g>
     <g id="text_4">
      <text style="font-size: 10px; font-family: 'Arial', 'DejaVu Sans', 'Liberation Sans', 'Bitstream Vera Sans', sans-serif; text-anchor: middle; fill: #262626" x="325.039093" y="243.117812" transform="rotate(-0 325.039093 243.117812)">$10</text>
     </g>
    </g>
    <g id="xtick_5">
     <g id="line2d_5">
      <g>
       <use xlink:href="#m4b7b8e4c7a" x="403.180596" y="228.96" style="fill: #262626; stroke: #262626; stroke-width: 0.8"/>
      </g>
     </g>
     <g id="text_5">
      <text style="font-size: 10px; font-family: 'Arial', 'DejaVu Sans', 'Liberation Sans', 'Bitstream Vera Sans', sans-serif; text-anchor: middle; fill: #262626" x="403.180596" y="243.117812" transform="rotate(-0 403.180596 243.117812)">$20</text>
     </g>
    </g>
    <g id="xtick_6">
     <g id="line2d_6">
      <g>
       <use xlink:href="#m4b7b8e4c7a" x="506.478044" y="228.96" style="fill: #262626; stroke: #262626; stroke-width: 0.8"/>
      </g>
     </g>
     <g id="text_6">
      <text style="font-size: 10px; font-family: 'Arial', 'DejaVu Sans', 'Liberation Sans', 'Bitstream Vera Sans', sans-serif; text-anchor: middle; fill: #262626" x="506.478044" y="243.117812" transform="rotate(-0 506.478044 243.117812)">$50</text>
     </g>
    </g>
    <g id="xtick_7">
     <g id="line2d_7">
      <g>
       <use xlink:href="#m4b7b8e4c7a" x="584.619547" y="228.96" style="fill: #262626; stroke: #262626; stroke-width: 0.8"/>
      </g>
     </g>
     <g id="text_7">
      <text style="font-size: 10px; font-family: 'Arial', 'DejaVu Sans', 'Liberation Sans', 'Bitstream Vera Sans', sans-serif; text-anchor: middle; fill: #262626" x="584.619547" y="243.117812" transform="rotate(-0 584.619547 243.117812)">$100</text>
     </g>
    </g>
    <g id="xtick_8">
     <g id="line2d_8">
      <g>
       <use xlink:href="#m4b7b8e4c7a" x="662.761049" y="228.96" style="fill: #262626; stroke: #262626; stroke-width: 0.8"/>
      </g>
     </g>
     <g id="text_8">
      <text style="font-size: 10px; font-family: 'Arial', 'DejaVu Sans', 'Liberation Sans', 'Bitstream Vera Sans', sans-serif; text-anchor: middle; fill: #262626" x="662.761049" y="243.117812" transform="rotate(-0 662.761049 243.117812)">$200</text>
     </g>
    </g>
    <g id="xtick_9">
     <g id="line2d_9">
      <g>
       <use xlink:href="#m4b7b8e4c7a" x="766.058497" y="228.96" style="fill: #262626; stroke: #262626; stroke-width: 0.8"/>
      </g>
     </g>
     <g id="text_9">
      <text style="font-size: 10px; font-family: 'Arial', 'DejaVu Sans', 'Liberation Sans', 'Bitstream Vera Sans', sans-serif; text-anchor: middle; fill: #262626" x="766.058497" y="243.117812" transform="rotate(-0 766.058497 243.117812)">$500</text>
     </g>
    </g>
    <g id="xtick_10">
     <g id="line2d_10">
      <g>
       <use xlink:href="#m4b7b8e4c7a" x="844.2" y="228.96" style="fill: #262626; stroke: #262626; stroke-width: 0.8"/>
      </g>
     </g>
     <g id="text_10">
      <text style="font-size: 10px; font-family: 'Arial', 'DejaVu Sans', 'Liberation Sans', 'Bitstream Vera Sans', sans-serif; text-anchor: middle; fill: #262626" x="844.2" y="243.117812" transform="rotate(-0 844.2 243.117812)">$1000</text>
     </g>
    </g>
    <g id="xtick_11">
     <g id="line2d_11">
      <defs>
       <path id="m02a1007934" d="M 0 0 
L 0 2 
" style="stroke: #262626; stroke-width: 0.6"/>
      </defs>
      <g>
       <use xlink:href="#m02a1007934" x="7.87104" y="228.96" style="fill: #262626; stroke: #262626; stroke-width: 0.6"/>
      </g>
     </g>
    </g>
    <g id="xtick_12">
     <g id="line2d_12">
      <g>
       <use xlink:href="#m02a1007934" x="25.249119" y="228.96" style="fill: #262626; stroke: #262626; stroke-width: 0.6"/>
      </g>
     </g>
    </g>
    <g id="xtick_13">
     <g id="line2d_13">
      <g>
       <use xlink:href="#m02a1007934" x="40.302694" y="228.96" style="fill: #262626; stroke: #262626; stroke-width: 0.6"/>
      </g>
     </g>
    </g>
    <g id="xtick_14">
     <g id="line2d_14">
      <g>
       <use xlink:href="#m02a1007934" x="53.580889" y="228.96" style="fill: #262626; stroke: #262626; stroke-width: 0.6"/>
      </g>
     </g>
    </g>
    <g id="xtick_15">
     <g id="line2d_15">
      <g>
       <use xlink:href="#m02a1007934" x="189.309991" y="228.96" style="fill: #262626; stroke: #262626; stroke-width: 0.6"/>
      </g>
     </g>
    </g>
    <g id="xtick_16">
     <g id="line2d_16">
      <g>
       <use xlink:href="#m02a1007934" x="221.741645" y="228.96" style="fill: #262626; stroke: #262626; stroke-width: 0.6"/>
      </g>
     </g>
    </g>
    <g id="xtick_17">
     <g id="line2d_17">
      <g>
       <use xlink:href="#m02a1007934" x="267.451494" y="228.96" style="fill: #262626; stroke: #262626; stroke-width: 0.6"/>
      </g>
     </g>
    </g>
    <g id="xtick_18">
     <g id="line2d_18">
      <g>
       <use xlink:href="#m02a1007934" x="284.829572" y="228.96" style="fill: #262626; stroke: #262626; stroke-width: 0.6"/>
      </g>
     </g>
    </g>
    <g id="xtick_19">
     <g id="line2d_19">
      <g>
       <use xlink:href="#m02a1007934" x="299.883148" y="228.96" style="fill: #262626; stroke: #262626; stroke-width: 0.6"/>
      </g>
     </g>
    </g>
    <g id="xtick_20">
     <g id="line2d_20">
      <g>
       <use xlink:href="#m02a1007934" x="313.161343" y="228.96" style="fill: #262626; stroke: #262626; stroke-width: 0.6"/>
      </g>
     </g>
    </g>
    <g id="xtick_21">
     <g id="line2d_21">
      <g>
       <use xlink:href="#m02a1007934" x="448.890445" y="228.96" style="fill: #262626; stroke: #262626; stroke-width: 0.6"/>
      </g>
     </g>
    </g>
    <g id="xtick_22">
     <g id="line2d_22">
      <g>
       <use xlink:href="#m02a1007934" x="481.322099" y="228.96" style="fill: #262626; stroke: #262626; stroke-width: 0.6"/>
      </g>
     </g>
    </g>
    <g id="xtick_23">
     <g id="line2d_23">
      <g>
       <use xlink:href="#m02a1007934" x="527.031947" y="228.96" style="fill: #262626; stroke: #262626; stroke-width: 0.6"/>
      </g>
     </g>
    </g>
    <g id="xtick_24">
     <g id="line2d_24">
      <g>
       <use xlink:href="#m02a1007934" x="544.410025" y="228.96" style="fill: #262626; stroke: #262626; stroke-width: 0.6"/>
      </g>
     </g>
    </g>
    <g id="xtick_25">
     <g id="line2d_25">
      <g>
       <use xlink:href="#m02a1007934" x="559.463601" y="228.96" style="fill: #262626; stroke: #262626; stroke-width: 0.6"/>
      </g>
     </g>
    </g>
    <g id="xtick_26">
     <g id="line2d_26">
      <g>
       <use xlink:href="#m02a1007934" x="572.741796" y="228.96" style="fill: #262626; stroke: #262626; stroke-width: 0.6"/>
      </g>
     </g>
    </g>
    <g id="xtick_27">
     <g id="line2d_27">
      <g>
       <use xlink:href="#m02a1007934" x="708.470898" y="228.96" style="fill: #262626; stroke: #262626; stroke-width: 0.6"/>
      </g>
     </g>
    </g>
    <g id="xtick_28">
     <g id="line2d_28">
      <g>
       <use xlink:href="#m02a1007934" x="740.902552" y="228.96" style="fill: #262626; stroke: #262626; stroke-width: 0.6"/>
      </g>
     </g>
    </g>
    <g id="xtick_29">
     <g id="line2d_29">
      <g>
       <use xlink:href="#m02a1007934" x="786.612401" y="228.96" style="fill: #262626; stroke: #262626; stroke-width: 0.6"/>
      </g>
     </g>
    </g>
    <g id="xtick_30">
     <g id="line2d_30">
      <g>
       <use xlink:href="#m02a1007934" x="803.990479" y="228.96" style="fill: #262626; stroke: #262626; stroke-width: 0.6"/>
      </g>
     </g>
    </g>
    <g id="xtick_31">
     <g id="line2d_31">
      <g>
       <use xlink:href="#m02a1007934" x="819.044055" y="228.96" style="fill: #262626; stroke: #262626; stroke-width: 0.6"/>
      </g>
     </g>
    </g>
    <g id="xtick_32">
     <g id="line2d_32">
      <g>
       <use xlink:href="#m02a1007934" x="832.32225" y="228.96" style="fill: #262626; stroke: #262626; stroke-width: 0.6"/>
      </g>
     </g>
    </g>
    <g id="text_11">
     <text style="font-size: 10px; font-family: 'Arial', 'DejaVu Sans', 'Liberation Sans', 'Bitstream Vera Sans', sans-serif; text-anchor: middle; fill: #262626" x="425.7" y="256.385" transform="rotate(-0 425.7 256.385)">Income or consumption (day)</text>
    </g>
   </g>
   <g id="matplotlib.axis_2"/>
   <g id="FillBetweenPolyCollection_1">
    <defs>
     <path id="mc3e440eda5" d="M 41.172157 -36.750309 
L 41.172157 -36.729688 
L 43.075243 -36.729688 
L 44.978329 -36.729688 
L 46.881415 -36.729688 
L 48.784501 -36.729688 
L 50.687587 -36.729688 
L 52.590673 -36.729688 
L 54.493759 -36.729688 
L 56.396845 -36.729688 
L 58.299932 -36.729688 
L 60.203018 -36.729688 
L 62.106104 -36.729688 
L 64.00919 -36.729688 
L 65.912276 -36.729688 
L 67.815362 -36.729688 
L 69.718448 -36.729688 
L 71.621534 -36.729688 
L 73.52462 -36.729688 
L 75.427706 -36.729688 
L 77.330792 -36.729688 
L 79.233878 -36.729688 
L 81.136964 -36.729688 
L 83.040051 -36.729688 
L 84.943137 -36.729688 
L 86.846223 -36.729688 
L 88.749309 -36.729688 
L 90.652395 -36.729688 
L 92.555481 -36.729688 
L 94.458567 -36.729688 
L 96.361653 -36.729688 
L 98.264739 -36.729688 
L 100.167825 -36.729688 
L 102.070911 -36.729688 
L 103.973997 -36.729688 
L 105.877083 -36.729688 
L 107.78017 -36.729688 
L 109.683256 -36.729688 
L 111.586342 -36.729688 
L 113.489428 -36.729688 
L 115.392514 -36.729688 
L 117.2956 -36.729688 
L 119.198686 -36.729688 
L 121.101772 -36.729688 
L 123.004858 -36.729688 
L 124.907944 -36.729688 
L 126.81103 -36.729688 
L 128.714116 -36.729688 
L 130.617202 -36.729688 
L 132.520289 -36.729688 
L 134.423375 -36.729688 
L 136.326461 -36.729688 
L 138.229547 -36.729688 
L 140.132633 -36.729688 
L 142.035719 -36.729688 
L 143.938805 -36.729688 
L 145.841891 -36.729688 
L 147.744977 -36.729688 
L 149.648063 -36.729688 
L 151.551149 -36.729688 
L 153.454235 -36.729688 
L 155.357321 -36.729688 
L 157.260408 -36.729688 
L 159.163494 -36.729688 
L 161.06658 -36.729688 
L 162.969666 -36.729688 
L 164.872752 -36.729688 
L 166.775838 -36.729688 
L 168.678924 -36.729688 
L 170.58201 -36.729688 
L 172.485096 -36.729688 
L 174.388182 -36.729688 
L 176.291268 -36.729688 
L 178.194354 -36.729688 
L 180.09744 -36.729688 
L 182.000527 -36.729688 
L 183.903613 -36.729688 
L 185.806699 -36.729688 
L 187.709785 -36.729688 
L 189.612871 -36.729688 
L 191.515957 -36.729688 
L 193.419043 -36.729688 
L 195.322129 -36.729688 
L 197.225215 -36.729688 
L 199.128301 -36.729688 
L 201.031387 -36.729688 
L 202.934473 -36.729688 
L 204.837559 -36.729688 
L 206.740646 -36.729688 
L 208.643732 -36.729688 
L 210.546818 -36.729688 
L 212.449904 -36.729688 
L 214.35299 -36.729688 
L 216.256076 -36.729688 
L 218.159162 -36.729688 
L 220.062248 -36.729688 
L 221.965334 -36.729688 
L 223.86842 -36.729688 
L 225.771506 -36.729688 
L 227.674592 -36.729688 
L 229.577678 -36.729688 
L 231.480765 -36.729688 
L 233.383851 -36.729688 
L 235.286937 -36.729688 
L 237.190023 -36.729688 
L 239.093109 -36.729688 
L 240.996195 -36.729688 
L 242.899281 -36.729688 
L 244.802367 -36.729688 
L 246.705453 -36.729688 
L 248.608539 -36.729688 
L 250.511625 -36.729688 
L 252.414711 -36.729688 
L 254.317797 -36.729688 
L 256.220884 -36.729688 
L 258.12397 -36.729688 
L 260.027056 -36.729688 
L 261.930142 -36.729688 
L 263.833228 -36.729688 
L 265.736314 -36.729688 
L 267.6394 -36.729688 
L 269.542486 -36.729688 
L 271.445572 -36.729688 
L 273.348658 -36.729688 
L 275.251744 -36.729688 
L 277.15483 -36.729688 
L 279.057916 -36.729688 
L 280.961003 -36.729688 
L 282.864089 -36.729688 
L 284.767175 -36.729688 
L 286.670261 -36.729688 
L 288.573347 -36.729688 
L 290.476433 -36.729688 
L 292.379519 -36.729688 
L 294.282605 -36.729688 
L 296.185691 -36.729688 
L 298.088777 -36.729688 
L 299.991863 -36.729688 
L 301.894949 -36.729688 
L 303.798035 -36.729688 
L 305.701122 -36.729688 
L 307.604208 -36.729688 
L 309.507294 -36.729688 
L 311.41038 -36.729688 
L 313.313466 -36.729688 
L 315.216552 -36.729688 
L 317.119638 -36.729688 
L 319.022724 -36.729688 
L 320.92581 -36.729688 
L 322.828896 -36.729688 
L 324.731982 -36.729688 
L 326.635068 -36.729688 
L 328.538154 -36.729688 
L 330.441241 -36.729688 
L 332.344327 -36.729688 
L 334.247413 -36.729688 
L 336.150499 -36.729688 
L 338.053585 -36.729688 
L 339.956671 -36.729688 
L 341.859757 -36.729688 
L 343.762843 -36.729688 
L 345.665929 -36.729688 
L 347.569015 -36.729688 
L 349.472101 -36.729688 
L 351.375187 -36.729688 
L 353.278273 -36.729688 
L 355.18136 -36.729688 
L 357.084446 -36.729688 
L 358.987532 -36.729688 
L 360.890618 -36.729688 
L 362.793704 -36.729688 
L 364.69679 -36.729688 
L 366.599876 -36.729688 
L 368.502962 -36.729688 
L 370.406048 -36.729688 
L 372.309134 -36.729688 
L 374.21222 -36.729688 
L 376.115306 -36.729688 
L 378.018392 -36.729688 
L 379.921478 -36.729688 
L 381.824565 -36.729688 
L 383.727651 -36.729688 
L 385.630737 -36.729688 
L 387.533823 -36.729688 
L 389.436909 -36.729688 
L 391.339995 -36.729688 
L 393.243081 -36.729688 
L 395.146167 -36.729688 
L 397.049253 -36.729688 
L 398.952339 -36.729688 
L 400.855425 -36.729688 
L 402.758511 -36.729688 
L 404.661597 -36.729688 
L 406.564684 -36.729688 
L 408.46777 -36.729688 
L 410.370856 -36.729688 
L 412.273942 -36.729688 
L 414.177028 -36.729688 
L 416.080114 -36.729688 
L 417.9832 -36.729688 
L 419.886286 -36.729688 
L 419.886286 -36.749972 
L 419.886286 -36.749972 
L 417.9832 -36.760533 
L 416.080114 -36.775855 
L 414.177028 -36.797706 
L 412.273942 -36.828343 
L 410.370856 -36.870577 
L 408.46777 -36.927822 
L 406.564684 -37.00412 
L 404.661597 -37.104128 
L 402.758511 -37.233054 
L 400.855425 -37.396542 
L 398.952339 -37.600496 
L 397.049253 -37.85085 
L 395.146167 -38.15329 
L 393.243081 -38.512941 
L 391.339995 -38.934054 
L 389.436909 -39.419708 
L 387.533823 -39.971563 
L 385.630737 -40.589686 
L 383.727651 -41.27249 
L 381.824565 -42.01677 
L 379.921478 -42.817878 
L 378.018392 -43.669987 
L 376.115306 -44.56646 
L 374.21222 -45.500269 
L 372.309134 -46.464438 
L 370.406048 -47.452471 
L 368.502962 -48.458726 
L 366.599876 -49.478713 
L 364.69679 -50.509281 
L 362.793704 -51.548708 
L 360.890618 -52.596676 
L 358.987532 -53.654152 
L 357.084446 -54.7232 
L 355.18136 -55.806736 
L 353.278273 -56.908266 
L 351.375187 -58.031628 
L 349.472101 -59.180747 
L 347.569015 -60.359447 
L 345.665929 -61.571304 
L 343.762843 -62.81956 
L 341.859757 -64.107084 
L 339.956671 -65.436392 
L 338.053585 -66.809692 
L 336.150499 -68.228961 
L 334.247413 -69.696031 
L 332.344327 -71.212671 
L 330.441241 -72.780663 
L 328.538154 -74.401848 
L 326.635068 -76.07816 
L 324.731982 -77.811624 
L 322.828896 -79.604342 
L 320.92581 -81.458455 
L 319.022724 -83.3761 
L 317.119638 -85.359361 
L 315.216552 -87.410227 
L 313.313466 -89.530552 
L 311.41038 -91.722032 
L 309.507294 -93.986175 
L 307.604208 -96.324279 
L 305.701122 -98.737401 
L 303.798035 -101.226308 
L 301.894949 -103.79141 
L 299.991863 -106.432673 
L 298.088777 -109.149504 
L 296.185691 -111.940628 
L 294.282605 -114.803961 
L 292.379519 -117.736495 
L 290.476433 -120.734202 
L 288.573347 -123.79198 
L 286.670261 -126.903641 
L 284.767175 -130.061945 
L 282.864089 -133.258678 
L 280.961003 -136.484769 
L 279.057916 -139.730435 
L 277.15483 -142.985344 
L 275.251744 -146.23879 
L 273.348658 -149.479886 
L 271.445572 -152.697753 
L 269.542486 -155.88174 
L 267.6394 -159.021647 
L 265.736314 -162.107967 
L 263.833228 -165.132135 
L 261.930142 -168.086751 
L 260.027056 -170.965783 
L 258.12397 -173.764676 
L 256.220884 -176.480375 
L 254.317797 -179.111208 
L 252.414711 -181.656637 
L 250.511625 -184.116867 
L 248.608539 -186.492357 
L 246.705453 -188.783263 
L 244.802367 -190.988877 
L 242.899281 -193.107141 
L 240.996195 -195.134268 
L 239.093109 -197.064546 
L 237.190023 -198.890334 
L 235.286937 -200.602256 
L 233.383851 -202.189572 
L 231.480765 -203.640669 
L 229.577678 -204.94362 
L 227.674592 -206.086747 
L 225.771506 -207.059109 
L 223.86842 -207.850887 
L 221.965334 -208.453624 
L 220.062248 -208.860318 
L 218.159162 -209.065386 
L 216.256076 -209.064541 
L 214.35299 -208.854625 
L 212.449904 -208.433467 
L 210.546818 -207.799805 
L 208.643732 -206.953325 
L 206.740646 -205.894822 
L 204.837559 -204.626478 
L 202.934473 -203.152235 
L 201.031387 -201.478182 
L 199.128301 -199.612907 
L 197.225215 -197.567723 
L 195.322129 -195.356709 
L 193.419043 -192.99651 
L 191.515957 -190.505885 
L 189.612871 -187.905022 
L 187.709785 -185.214658 
L 185.806699 -182.455105 
L 183.903613 -179.645262 
L 182.000527 -176.801726 
L 180.09744 -173.938093 
L 178.194354 -171.06451 
L 176.291268 -168.187525 
L 174.388182 -165.310224 
L 172.485096 -162.432624 
L 170.58201 -159.552263 
L 168.678924 -156.664906 
L 166.775838 -153.765295 
L 164.872752 -150.847851 
L 162.969666 -147.9073 
L 161.06658 -144.939165 
L 159.163494 -141.940126 
L 157.260408 -138.908244 
L 155.357321 -135.84308 
L 153.454235 -132.745726 
L 151.551149 -129.618771 
L 149.648063 -126.466227 
L 147.744977 -123.293429 
L 145.841891 -120.106898 
L 143.938805 -116.914182 
L 142.035719 -113.723663 
L 140.132633 -110.544325 
L 138.229547 -107.385493 
L 136.326461 -104.256544 
L 134.423375 -101.166611 
L 132.520289 -98.124295 
L 130.617202 -95.137411 
L 128.714116 -92.212786 
L 126.81103 -89.356129 
L 124.907944 -86.571973 
L 123.004858 -83.863697 
L 121.101772 -81.233609 
L 119.198686 -78.683082 
L 117.2956 -76.212712 
L 115.392514 -73.822481 
L 113.489428 -71.511916 
L 111.586342 -69.280209 
L 109.683256 -67.126324 
L 107.78017 -65.049067 
L 105.877083 -63.047143 
L 103.973997 -61.119221 
L 102.070911 -59.263989 
L 100.167825 -57.480246 
L 98.264739 -55.767 
L 96.361653 -54.12359 
L 94.458567 -52.549803 
L 92.555481 -51.045972 
L 90.652395 -49.613041 
L 88.749309 -48.252565 
L 86.846223 -46.966643 
L 84.943137 -45.757769 
L 83.040051 -44.628619 
L 81.136964 -43.581777 
L 79.233878 -42.619437 
L 77.330792 -41.743105 
L 75.427706 -40.953331 
L 73.52462 -40.249519 
L 71.621534 -39.6298 
L 69.718448 -39.091021 
L 67.815362 -38.628817 
L 65.912276 -38.237771 
L 64.00919 -37.91165 
L 62.106104 -37.643666 
L 60.203018 -37.426767 
L 58.299932 -37.253908 
L 56.396845 -37.118298 
L 54.493759 -37.013596 
L 52.590673 -36.934054 
L 50.687587 -36.874604 
L 48.784501 -36.830899 
L 46.881415 -36.799296 
L 44.978329 -36.776825 
L 43.075243 -36.761112 
L 41.172157 -36.750309 
z
" style="stroke: #dd8452"/>
    </defs>
    <g>
     <use xlink:href="#mc3e440eda5" x="0" y="265.689687" style="fill: #dd8452; fill-opacity: 0.25; stroke: #dd8452"/>
    </g>
   </g>
   <g id="FillBetweenPolyCollection_2">
    <defs>
     <path id="md98bc8c735" d="M 339.240997 -36.740956 
L 339.240997 -36.729688 
L 341.157451 -36.729688 
L 343.073905 -36.729688 
L 344.990359 -36.729688 
L 346.906812 -36.729688 
L 348.823266 -36.729688 
L 350.73972 -36.729688 
L 352.656174 -36.729688 
L 354.572627 -36.729688 
L 356.489081 -36.729688 
L 358.405535 -36.729688 
L 360.321989 -36.729688 
L 362.238442 -36.729688 
L 364.154896 -36.729688 
L 366.07135 -36.729688 
L 367.987804 -36.729688 
L 369.904257 -36.729688 
L 371.820711 -36.729688 
L 373.737165 -36.729688 
L 375.653619 -36.729688 
L 377.570072 -36.729688 
L 379.486526 -36.729688 
L 381.40298 -36.729688 
L 383.319434 -36.729688 
L 385.235887 -36.729688 
L 387.152341 -36.729688 
L 389.068795 -36.729688 
L 390.985249 -36.729688 
L 392.901702 -36.729688 
L 394.818156 -36.729688 
L 396.73461 -36.729688 
L 398.651064 -36.729688 
L 400.567518 -36.729688 
L 402.483971 -36.729688 
L 404.400425 -36.729688 
L 406.316879 -36.729688 
L 408.233333 -36.729688 
L 410.149786 -36.729688 
L 412.06624 -36.729688 
L 413.982694 -36.729688 
L 415.899148 -36.729688 
L 417.815601 -36.729688 
L 419.732055 -36.729688 
L 421.648509 -36.729688 
L 423.564963 -36.729688 
L 425.481416 -36.729688 
L 427.39787 -36.729688 
L 429.314324 -36.729688 
L 431.230778 -36.729688 
L 433.147231 -36.729688 
L 435.063685 -36.729688 
L 436.980139 -36.729688 
L 438.896593 -36.729688 
L 440.813046 -36.729688 
L 442.7295 -36.729688 
L 444.645954 -36.729688 
L 446.562408 -36.729688 
L 448.478861 -36.729688 
L 450.395315 -36.729688 
L 452.311769 -36.729688 
L 454.228223 -36.729688 
L 456.144676 -36.729688 
L 458.06113 -36.729688 
L 459.977584 -36.729688 
L 461.894038 -36.729688 
L 463.810491 -36.729688 
L 465.726945 -36.729688 
L 467.643399 -36.729688 
L 469.559853 -36.729688 
L 471.476306 -36.729688 
L 473.39276 -36.729688 
L 475.309214 -36.729688 
L 477.225668 -36.729688 
L 479.142121 -36.729688 
L 481.058575 -36.729688 
L 482.975029 -36.729688 
L 484.891483 -36.729688 
L 486.807936 -36.729688 
L 488.72439 -36.729688 
L 490.640844 -36.729688 
L 492.557298 -36.729688 
L 494.473751 -36.729688 
L 496.390205 -36.729688 
L 498.306659 -36.729688 
L 500.223113 -36.729688 
L 502.139566 -36.729688 
L 504.05602 -36.729688 
L 505.972474 -36.729688 
L 507.888928 -36.729688 
L 509.805381 -36.729688 
L 511.721835 -36.729688 
L 513.638289 -36.729688 
L 515.554743 -36.729688 
L 517.471196 -36.729688 
L 519.38765 -36.729688 
L 521.304104 -36.729688 
L 523.220558 -36.729688 
L 525.137011 -36.729688 
L 527.053465 -36.729688 
L 528.969919 -36.729688 
L 530.886373 -36.729688 
L 532.802826 -36.729688 
L 534.71928 -36.729688 
L 536.635734 -36.729688 
L 538.552188 -36.729688 
L 540.468641 -36.729688 
L 542.385095 -36.729688 
L 544.301549 -36.729688 
L 546.218003 -36.729688 
L 548.134457 -36.729688 
L 550.05091 -36.729688 
L 551.967364 -36.729688 
L 553.883818 -36.729688 
L 555.800272 -36.729688 
L 557.716725 -36.729688 
L 559.633179 -36.729688 
L 561.549633 -36.729688 
L 563.466087 -36.729688 
L 565.38254 -36.729688 
L 567.298994 -36.729688 
L 569.215448 -36.729688 
L 571.131902 -36.729688 
L 573.048355 -36.729688 
L 574.964809 -36.729688 
L 576.881263 -36.729688 
L 578.797717 -36.729688 
L 580.71417 -36.729688 
L 582.630624 -36.729688 
L 584.547078 -36.729688 
L 586.463532 -36.729688 
L 588.379985 -36.729688 
L 590.296439 -36.729688 
L 592.212893 -36.729688 
L 594.129347 -36.729688 
L 596.0458 -36.729688 
L 597.962254 -36.729688 
L 599.878708 -36.729688 
L 601.795162 -36.729688 
L 603.711615 -36.729688 
L 605.628069 -36.729688 
L 607.544523 -36.729688 
L 609.460977 -36.729688 
L 611.37743 -36.729688 
L 613.293884 -36.729688 
L 615.210338 -36.729688 
L 617.126792 -36.729688 
L 619.043245 -36.729688 
L 620.959699 -36.729688 
L 622.876153 -36.729688 
L 624.792607 -36.729688 
L 626.70906 -36.729688 
L 628.625514 -36.729688 
L 630.541968 -36.729688 
L 632.458422 -36.729688 
L 634.374875 -36.729688 
L 636.291329 -36.729688 
L 638.207783 -36.729688 
L 640.124237 -36.729688 
L 642.04069 -36.729688 
L 643.957144 -36.729688 
L 645.873598 -36.729688 
L 647.790052 -36.729688 
L 649.706505 -36.729688 
L 651.622959 -36.729688 
L 653.539413 -36.729688 
L 655.455867 -36.729688 
L 657.37232 -36.729688 
L 659.288774 -36.729688 
L 661.205228 -36.729688 
L 663.121682 -36.729688 
L 665.038135 -36.729688 
L 666.954589 -36.729688 
L 668.871043 -36.729688 
L 670.787497 -36.729688 
L 672.70395 -36.729688 
L 674.620404 -36.729688 
L 676.536858 -36.729688 
L 678.453312 -36.729688 
L 680.369765 -36.729688 
L 682.286219 -36.729688 
L 684.202673 -36.729688 
L 686.119127 -36.729688 
L 688.03558 -36.729688 
L 689.952034 -36.729688 
L 691.868488 -36.729688 
L 693.784942 -36.729688 
L 695.701395 -36.729688 
L 697.617849 -36.729688 
L 699.534303 -36.729688 
L 701.450757 -36.729688 
L 703.367211 -36.729688 
L 705.283664 -36.729688 
L 707.200118 -36.729688 
L 709.116572 -36.729688 
L 711.033026 -36.729688 
L 712.949479 -36.729688 
L 714.865933 -36.729688 
L 716.782387 -36.729688 
L 718.698841 -36.729688 
L 720.615294 -36.729688 
L 720.615294 -36.743376 
L 720.615294 -36.743376 
L 718.698841 -36.751673 
L 716.782387 -36.76423 
L 714.865933 -36.782784 
L 712.949479 -36.809557 
L 711.033026 -36.847287 
L 709.116572 -36.899224 
L 707.200118 -36.969073 
L 705.283664 -37.060873 
L 703.367211 -37.178815 
L 701.450757 -37.326998 
L 699.534303 -37.50916 
L 697.617849 -37.728393 
L 695.701395 -37.986896 
L 693.784942 -38.285796 
L 691.868488 -38.625062 
L 689.952034 -39.003547 
L 688.03558 -39.419129 
L 686.119127 -39.868952 
L 684.202673 -40.349714 
L 682.286219 -40.857962 
L 680.369765 -41.390353 
L 678.453312 -41.943843 
L 676.536858 -42.515806 
L 674.620404 -43.104082 
L 672.70395 -43.707003 
L 670.787497 -44.323409 
L 668.871043 -44.952715 
L 666.954589 -45.595042 
L 665.038135 -46.251397 
L 663.121682 -46.923911 
L 661.205228 -47.616069 
L 659.288774 -48.332909 
L 657.37232 -49.081145 
L 655.455867 -49.869199 
L 653.539413 -50.707123 
L 651.622959 -51.606441 
L 649.706505 -52.579921 
L 647.790052 -53.641301 
L 645.873598 -54.804973 
L 643.957144 -56.08564 
L 642.04069 -57.497924 
L 640.124237 -59.055906 
L 638.207783 -60.772624 
L 636.291329 -62.659501 
L 634.374875 -64.725785 
L 632.458422 -66.978019 
L 630.541968 -69.419629 
L 628.625514 -72.050682 
L 626.70906 -74.867849 
L 624.792607 -77.864578 
L 622.876153 -81.031432 
L 620.959699 -84.356531 
L 619.043245 -87.826014 
L 617.126792 -91.424424 
L 615.210338 -95.134987 
L 613.293884 -98.939771 
L 611.37743 -102.819778 
L 609.460977 -106.755069 
L 607.544523 -110.725049 
L 605.628069 -114.709019 
L 603.711615 -118.687042 
L 601.795162 -122.641125 
L 599.878708 -126.556562 
L 597.962254 -130.423258 
L 596.0458 -134.236755 
L 594.129347 -137.998716 
L 592.212893 -141.716702 
L 590.296439 -145.403202 
L 588.379985 -149.074038 
L 586.463532 -152.74642 
L 584.547078 -156.437001 
L 582.630624 -160.160305 
L 580.71417 -163.927744 
L 578.797717 -167.747334 
L 576.881263 -171.623946 
L 574.964809 -175.559788 
L 573.048355 -179.554748 
L 571.131902 -183.606238 
L 569.215448 -187.708384 
L 567.298994 -191.850647 
L 565.38254 -196.016221 
L 563.466087 -200.180722 
L 561.549633 -204.311757 
L 559.633179 -208.369813 
L 557.716725 -212.310633 
L 555.800272 -216.088914 
L 553.883818 -219.662804 
L 551.967364 -222.99843 
L 550.05091 -226.073616 
L 548.134457 -228.880075 
L 546.218003 -231.423612 
L 544.301549 -233.722267 
L 542.385095 -235.8027 
L 540.468641 -237.695414 
L 538.552188 -239.429593 
L 536.635734 -241.028292 
L 534.71928 -242.504619 
L 532.802826 -243.85925 
L 530.886373 -245.079392 
L 528.969919 -246.139058 
L 527.053465 -247.000377 
L 525.137011 -247.61562 
L 523.220558 -247.929688 
L 521.304104 -247.882888 
L 519.38765 -247.413952 
L 517.471196 -246.463286 
L 515.554743 -244.976456 
L 513.638289 -242.907813 
L 511.721835 -240.224047 
L 509.805381 -236.907346 
L 507.888928 -232.957742 
L 505.972474 -228.394297 
L 504.05602 -223.254831 
L 502.139566 -217.594166 
L 500.223113 -211.481027 
L 498.306659 -204.994009 
L 496.390205 -198.217113 
L 494.473751 -191.235423 
L 492.557298 -184.1314 
L 490.640844 -176.982127 
L 488.72439 -169.857606 
L 486.807936 -162.820044 
L 484.891483 -155.923877 
L 482.975029 -149.216228 
L 481.058575 -142.737487 
L 479.142121 -136.521767 
L 477.225668 -130.597104 
L 475.309214 -124.985395 
L 473.39276 -119.702168 
L 471.476306 -114.756353 
L 469.559853 -110.150236 
L 467.643399 -105.879746 
L 465.726945 -101.935173 
L 463.810491 -98.302268 
L 461.894038 -94.963635 
L 459.977584 -91.900183 
L 458.06113 -89.092407 
L 456.144676 -86.521268 
L 454.228223 -84.168496 
L 452.311769 -82.016309 
L 450.395315 -80.046627 
L 448.478861 -78.240023 
L 446.562408 -76.574736 
L 444.645954 -75.026069 
L 442.7295 -73.566451 
L 440.813046 -72.166291 
L 438.896593 -70.795584 
L 436.980139 -69.426071 
L 435.063685 -68.033591 
L 433.147231 -66.600225 
L 431.230778 -65.115859 
L 429.314324 -63.57887 
L 427.39787 -61.99584 
L 425.481416 -60.38034 
L 423.564963 -58.751016 
L 421.648509 -57.129287 
L 419.732055 -55.537006 
L 417.815601 -53.994426 
L 415.899148 -52.518682 
L 413.982694 -51.122914 
L 412.06624 -49.816026 
L 410.149786 -48.602977 
L 408.233333 -47.485422 
L 406.316879 -46.462526 
L 404.400425 -45.531754 
L 402.483971 -44.689516 
L 400.567518 -43.931585 
L 398.651064 -43.253284 
L 396.73461 -42.649479 
L 394.818156 -42.114455 
L 392.901702 -41.641785 
L 390.985249 -41.224265 
L 389.068795 -40.853986 
L 387.152341 -40.522566 
L 385.235887 -40.221545 
L 383.319434 -39.942873 
L 381.40298 -39.679436 
L 379.486526 -39.425528 
L 377.570072 -39.177192 
L 375.653619 -38.932378 
L 373.737165 -38.69089 
L 371.820711 -38.454133 
L 369.904257 -38.224698 
L 367.987804 -38.00586 
L 366.07135 -37.801044 
L 364.154896 -37.613346 
L 362.238442 -37.445167 
L 360.321989 -37.297972 
L 358.405535 -37.172209 
L 356.489081 -37.067352 
L 354.572627 -36.982057 
L 352.656174 -36.914373 
L 350.73972 -36.861983 
L 348.823266 -36.822426 
L 346.906812 -36.79329 
L 344.990359 -36.772356 
L 343.073905 -36.757683 
L 341.157451 -36.74765 
L 339.240997 -36.740956 
z
" style="stroke: #4c72b0"/>
    </defs>
    <g>
     <use xlink:href="#md98bc8c735" x="0" y="265.689687" style="fill: #4c72b0; fill-opacity: 0.25; stroke: #4c72b0"/>
    </g>
   </g>
   <g id="line2d_33">
    <path d="M 189.309991 228.96 
L 189.309991 7.2 
" style="fill: none; stroke-dasharray: 2.96,1.28; stroke-dashoffset: 0; stroke: #d3d3d3; stroke-width: 0.8"/>
   </g>
   <g id="line2d_34">
    <path d="M 413.650084 228.96 
L 413.650084 7.2 
" style="fill: none; stroke-dasharray: 2.96,1.28; stroke-dashoffset: 0; stroke: #d3d3d3; stroke-width: 0.8"/>
   </g>
   <g id="line2d_35">
    <path d="M 318.661668 228.96 
L 318.661668 7.2 
" style="fill: none; stroke-dasharray: 2.96,1.28; stroke-dashoffset: 0; stroke: #d3d3d3; stroke-width: 0.8"/>
   </g>
   <g id="line2d_36">
    <path d="M 7.2 228.96 
L 844.2 228.96 
" style="fill: none; stroke: #808080; stroke-width: 0.5; stroke-linecap: round"/>
   </g>
   <g id="text_12">
    <text style="font-size: 8px; font-family: 'Arial', 'DejaVu Sans', 'Liberation Sans', 'Bitstream Vera Sans', sans-serif; fill: #808080" transform="translate(195.563741 124.59635) rotate(-90)">International Poverty Line: $3.00</text>
   </g>
   <g id="text_13">
    <text style="font-size: 8px; font-family: 'Arial', 'DejaVu Sans', 'Liberation Sans', 'Bitstream Vera Sans', sans-serif; fill: #808080" transform="translate(419.376334 81.31135) rotate(-90)">World mean: $21.95</text>
   </g>
   <g id="text_14">
    <text style="font-size: 8px; font-family: 'Arial', 'DejaVu Sans', 'Liberation Sans', 'Bitstream Vera Sans', sans-serif; fill: #808080" transform="translate(324.387918 83.08885) rotate(-90)">World median: $9.45</text>
   </g>
   <g id="legend_1">
    <g id="patch_3">
     <path d="M 683.8 102.227 
L 756.364063 102.227 
Q 758.364063 102.227 758.364063 100.227 
L 758.364063 58.552 
Q 758.364063 56.552 756.364063 56.552 
L 683.8 56.552 
Q 681.8 56.552 681.8 58.552 
L 681.8 100.227 
Q 681.8 102.227 683.8 102.227 
z
" style="fill: #ffffff; opacity: 0.8; stroke: #cccccc; stroke-linejoin: miter"/>
    </g>
    <g id="text_15">
     <text style="font-size: 10px; font-family: 'Arial', 'DejaVu Sans', 'Liberation Sans', 'Bitstream Vera Sans', sans-serif; text-anchor: start; fill: #262626" x="702.575781" y="67.831687" transform="rotate(-0 702.575781 67.831687)">Country</text>
    </g>
    <g id="patch_4">
     <path d="M 685.8 82.094187 
L 705.8 82.094187 
L 705.8 75.094187 
L 685.8 75.094187 
z
" style="fill: #4c72b0; fill-opacity: 0.25; stroke: #4c72b0; stroke-linejoin: miter"/>
    </g>
    <g id="text_16">
     <text style="font-size: 10px; font-family: 'Arial', 'DejaVu Sans', 'Liberation Sans', 'Bitstream Vera Sans', sans-serif; text-anchor: start; fill: #262626" x="713.8" y="82.094187" transform="rotate(-0 713.8 82.094187)">Denmark</text>
    </g>
    <g id="patch_5">
     <path d="M 685.8 96.2395 
L 705.8 96.2395 
L 705.8 89.2395 
L 685.8 89.2395 
z
" style="fill: #dd8452; fill-opacity: 0.25; stroke: #dd8452; stroke-linejoin: miter"/>
    </g>
    <g id="text_17">
     <text style="font-size: 10px; font-family: 'Arial', 'DejaVu Sans', 'Liberation Sans', 'Bitstream Vera Sans', sans-serif; text-anchor: start; fill: #262626" x="713.8" y="96.2395" transform="rotate(-0 713.8 96.2395)">Ethiopia</text>
    </g>
   </g>
  </g>
 </g>
</svg>
