<?xml version="1.0" encoding="utf-8" standalone="no"?>
<!DOCTYPE svg PUBLIC "-//W3C//DTD SVG 1.1//EN"
  "http://www.w3.org/Graphics/SVG/1.1/DTD/svg11.dtd">
<svg xmlns:xlink="http://www.w3.org/1999/xlink" width="865.302344pt" height="265.689687pt" viewBox="0 0 865.302344 265.689687" xmlns="http://www.w3.org/2000/svg" version="1.1">
 <metadata>
  <rdf:RDF xmlns:dc="http://purl.org/dc/elements/1.1/" xmlns:cc="http://creativecommons.org/ns#" xmlns:rdf="http://www.w3.org/1999/02/22-rdf-syntax-ns#">
   <cc:Work>
    <dc:type rdf:resource="http://purl.org/dc/dcmitype/StillImage"/>
    <dc:date>2025-12-08T10:58:19.046130</dc:date>
    <dc:format>image/svg+xml</dc:format>
    <dc:creator>
     <cc:Agent>
      <dc:title>Matplotlib v3.10.1, https://matplotlib.org/</dc:title>
     </cc:Agent>
    </dc:creator>
   </cc:Work>
  </rdf:RDF>
 </metadata>
 <defs>
  <style type="text/css">*{stroke-linejoin: round; stroke-linecap: butt}</style>
 </defs>
 <g id="figure_1">
  <g id="patch_1">
   <path d="M 0 265.689687 
L 865.302344 265.689687 
L 865.302344 0 
L 0 0 
z
" style="fill: #ffffff"/>
  </g>
  <g id="axes_1">
   <g id="patch_2">
    <path d="M 7.2 228.96 
L 844.2 228.96 
L 844.2 7.2 
L 7.2 7.2 
z
" style="fill: #ffffff"/>
   </g>
   <g id="matplotlib.axis_1">
    <g id="xtick_1">
     <g id="line2d_1">
      <defs>
       <path id="m8da5ad366d" d="M 0 0 
L 0 3.5 
" style="stroke: #262626; stroke-width: 0.8"/>
      </defs>
      <g>
       <use xlink:href="#m8da5ad366d" x="47.550576" y="228.96" style="fill: #262626; stroke: #262626; stroke-width: 0.8"/>
      </g>
     </g>
     <g id="text_1">
      <text style="font-size: 10px; font-family: 'Arial', 'DejaVu Sans', 'Liberation Sans', 'Bitstream Vera Sans', sans-serif; text-anchor: middle; fill: #262626" x="47.550576" y="243.117812" transform="rotate(-0 47.550576 243.117812)">$1</text>
     </g>
    </g>
    <g id="xtick_2">
     <g id="line2d_2">
      <g>
       <use xlink:href="#m8da5ad366d" x="127.489034" y="228.96" style="fill: #262626; stroke: #262626; stroke-width: 0.8"/>
      </g>
     </g>
     <g id="text_2">
      <text style="font-size: 10px; font-family: 'Arial', 'DejaVu Sans', 'Liberation Sans', 'Bitstream Vera Sans', sans-serif; text-anchor: middle; fill: #262626" x="127.489034" y="243.117812" transform="rotate(-0 127.489034 243.117812)">$2</text>
     </g>
    </g>
    <g id="xtick_3">
     <g id="line2d_3">
      <g>
       <use xlink:href="#m8da5ad366d" x="233.161927" y="228.96" style="fill: #262626; stroke: #262626; stroke-width: 0.8"/>
      </g>
     </g>
     <g id="text_3">
      <text style="font-size: 10px; font-family: 'Arial', 'DejaVu Sans', 'Liberation Sans', 'Bitstream Vera Sans', sans-serif; text-anchor: middle; fill: #262626" x="233.161927" y="243.117812" transform="rotate(-0 233.161927 243.117812)">$5</text>
     </g>
    </g>
    <g id="xtick_4">
     <g id="line2d_4">
      <g>
       <use xlink:href="#m8da5ad366d" x="313.100384" y="228.96" style="fill: #262626; stroke: #262626; stroke-width: 0.8"/>
      </g>
     </g>
     <g id="text_4">
      <text style="font-size: 10px; font-family: 'Arial', 'DejaVu Sans', 'Liberation Sans', 'Bitstream Vera Sans', sans-serif; text-anchor: middle; fill: #262626" x="313.100384" y="243.117812" transform="rotate(-0 313.100384 243.117812)">$10</text>
     </g>
    </g>
    <g id="xtick_5">
     <g id="line2d_5">
      <g>
       <use xlink:href="#m8da5ad366d" x="393.038842" y="228.96" style="fill: #262626; stroke: #262626; stroke-width: 0.8"/>
      </g>
     </g>
     <g id="text_5">
      <text style="font-size: 10px; font-family: 'Arial', 'DejaVu Sans', 'Liberation Sans', 'Bitstream Vera Sans', sans-serif; text-anchor: middle; fill: #262626" x="393.038842" y="243.117812" transform="rotate(-0 393.038842 243.117812)">$20</text>
     </g>
    </g>
    <g id="xtick_6">
     <g id="line2d_6">
      <g>
       <use xlink:href="#m8da5ad366d" x="498.711735" y="228.96" style="fill: #262626; stroke: #262626; stroke-width: 0.8"/>
      </g>
     </g>
     <g id="text_6">
      <text style="font-size: 10px; font-family: 'Arial', 'DejaVu Sans', 'Liberation Sans', 'Bitstream Vera Sans', sans-serif; text-anchor: middle; fill: #262626" x="498.711735" y="243.117812" transform="rotate(-0 498.711735 243.117812)">$50</text>
     </g>
    </g>
    <g id="xtick_7">
     <g id="line2d_7">
      <g>
       <use xlink:href="#m8da5ad366d" x="578.650192" y="228.96" style="fill: #262626; stroke: #262626; stroke-width: 0.8"/>
      </g>
     </g>
     <g id="text_7">
      <text style="font-size: 10px; font-family: 'Arial', 'DejaVu Sans', 'Liberation Sans', 'Bitstream Vera Sans', sans-serif; text-anchor: middle; fill: #262626" x="578.650192" y="243.117812" transform="rotate(-0 578.650192 243.117812)">$100</text>
     </g>
    </g>
    <g id="xtick_8">
     <g id="line2d_8">
      <g>
       <use xlink:href="#m8da5ad366d" x="658.58865" y="228.96" style="fill: #262626; stroke: #262626; stroke-width: 0.8"/>
      </g>
     </g>
     <g id="text_8">
      <text style="font-size: 10px; font-family: 'Arial', 'DejaVu Sans', 'Liberation Sans', 'Bitstream Vera Sans', sans-serif; text-anchor: middle; fill: #262626" x="658.58865" y="243.117812" transform="rotate(-0 658.58865 243.117812)">$200</text>
     </g>
    </g>
    <g id="xtick_9">
     <g id="line2d_9">
      <g>
       <use xlink:href="#m8da5ad366d" x="764.261542" y="228.96" style="fill: #262626; stroke: #262626; stroke-width: 0.8"/>
      </g>
     </g>
     <g id="text_9">
      <text style="font-size: 10px; font-family: 'Arial', 'DejaVu Sans', 'Liberation Sans', 'Bitstream Vera Sans', sans-serif; text-anchor: middle; fill: #262626" x="764.261542" y="243.117812" transform="rotate(-0 764.261542 243.117812)">$500</text>
     </g>
    </g>
    <g id="xtick_10">
     <g id="line2d_10">
      <g>
       <use xlink:href="#m8da5ad366d" x="844.2" y="228.96" style="fill: #262626; stroke: #262626; stroke-width: 0.8"/>
      </g>
     </g>
     <g id="text_10">
      <text style="font-size: 10px; font-family: 'Arial', 'DejaVu Sans', 'Liberation Sans', 'Bitstream Vera Sans', sans-serif; text-anchor: middle; fill: #262626" x="844.2" y="243.117812" transform="rotate(-0 844.2 243.117812)">$1000</text>
     </g>
    </g>
    <g id="xtick_11">
     <g id="line2d_11">
      <defs>
       <path id="ma98b618916" d="M 0 0 
L 0 2 
" style="stroke: #262626; stroke-width: 0.6"/>
      </defs>
      <g>
       <use xlink:href="#ma98b618916" x="21.816141" y="228.96" style="fill: #262626; stroke: #262626; stroke-width: 0.6"/>
      </g>
     </g>
    </g>
    <g id="xtick_12">
     <g id="line2d_12">
      <g>
       <use xlink:href="#ma98b618916" x="35.399684" y="228.96" style="fill: #262626; stroke: #262626; stroke-width: 0.6"/>
      </g>
     </g>
    </g>
    <g id="xtick_13">
     <g id="line2d_13">
      <g>
       <use xlink:href="#ma98b618916" x="174.250034" y="228.96" style="fill: #262626; stroke: #262626; stroke-width: 0.6"/>
      </g>
     </g>
    </g>
    <g id="xtick_14">
     <g id="line2d_14">
      <g>
       <use xlink:href="#ma98b618916" x="207.427491" y="228.96" style="fill: #262626; stroke: #262626; stroke-width: 0.6"/>
      </g>
     </g>
    </g>
    <g id="xtick_15">
     <g id="line2d_15">
      <g>
       <use xlink:href="#ma98b618916" x="254.188491" y="228.96" style="fill: #262626; stroke: #262626; stroke-width: 0.6"/>
      </g>
     </g>
    </g>
    <g id="xtick_16">
     <g id="line2d_16">
      <g>
       <use xlink:href="#ma98b618916" x="271.966199" y="228.96" style="fill: #262626; stroke: #262626; stroke-width: 0.6"/>
      </g>
     </g>
    </g>
    <g id="xtick_17">
     <g id="line2d_17">
      <g>
       <use xlink:href="#ma98b618916" x="287.365949" y="228.96" style="fill: #262626; stroke: #262626; stroke-width: 0.6"/>
      </g>
     </g>
    </g>
    <g id="xtick_18">
     <g id="line2d_18">
      <g>
       <use xlink:href="#ma98b618916" x="300.949492" y="228.96" style="fill: #262626; stroke: #262626; stroke-width: 0.6"/>
      </g>
     </g>
    </g>
    <g id="xtick_19">
     <g id="line2d_19">
      <g>
       <use xlink:href="#ma98b618916" x="439.799842" y="228.96" style="fill: #262626; stroke: #262626; stroke-width: 0.6"/>
      </g>
     </g>
    </g>
    <g id="xtick_20">
     <g id="line2d_20">
      <g>
       <use xlink:href="#ma98b618916" x="472.977299" y="228.96" style="fill: #262626; stroke: #262626; stroke-width: 0.6"/>
      </g>
     </g>
    </g>
    <g id="xtick_21">
     <g id="line2d_21">
      <g>
       <use xlink:href="#ma98b618916" x="519.738299" y="228.96" style="fill: #262626; stroke: #262626; stroke-width: 0.6"/>
      </g>
     </g>
    </g>
    <g id="xtick_22">
     <g id="line2d_22">
      <g>
       <use xlink:href="#ma98b618916" x="537.516006" y="228.96" style="fill: #262626; stroke: #262626; stroke-width: 0.6"/>
      </g>
     </g>
    </g>
    <g id="xtick_23">
     <g id="line2d_23">
      <g>
       <use xlink:href="#ma98b618916" x="552.915757" y="228.96" style="fill: #262626; stroke: #262626; stroke-width: 0.6"/>
      </g>
     </g>
    </g>
    <g id="xtick_24">
     <g id="line2d_24">
      <g>
       <use xlink:href="#ma98b618916" x="566.499299" y="228.96" style="fill: #262626; stroke: #262626; stroke-width: 0.6"/>
      </g>
     </g>
    </g>
    <g id="xtick_25">
     <g id="line2d_25">
      <g>
       <use xlink:href="#ma98b618916" x="705.34965" y="228.96" style="fill: #262626; stroke: #262626; stroke-width: 0.6"/>
      </g>
     </g>
    </g>
    <g id="xtick_26">
     <g id="line2d_26">
      <g>
       <use xlink:href="#ma98b618916" x="738.527107" y="228.96" style="fill: #262626; stroke: #262626; stroke-width: 0.6"/>
      </g>
     </g>
    </g>
    <g id="xtick_27">
     <g id="line2d_27">
      <g>
       <use xlink:href="#ma98b618916" x="785.288107" y="228.96" style="fill: #262626; stroke: #262626; stroke-width: 0.6"/>
      </g>
     </g>
    </g>
    <g id="xtick_28">
     <g id="line2d_28">
      <g>
       <use xlink:href="#ma98b618916" x="803.065814" y="228.96" style="fill: #262626; stroke: #262626; stroke-width: 0.6"/>
      </g>
     </g>
    </g>
    <g id="xtick_29">
     <g id="line2d_29">
      <g>
       <use xlink:href="#ma98b618916" x="818.465565" y="228.96" style="fill: #262626; stroke: #262626; stroke-width: 0.6"/>
      </g>
     </g>
    </g>
    <g id="xtick_30">
     <g id="line2d_30">
      <g>
       <use xlink:href="#ma98b618916" x="832.049107" y="228.96" style="fill: #262626; stroke: #262626; stroke-width: 0.6"/>
      </g>
     </g>
    </g>
    <g id="text_11">
     <text style="font-size: 10px; font-family: 'Arial', 'DejaVu Sans', 'Liberation Sans', 'Bitstream Vera Sans', sans-serif; text-anchor: middle; fill: #262626" x="425.7" y="256.385" transform="rotate(-0 425.7 256.385)">Income or consumption (day)</text>
    </g>
   </g>
   <g id="matplotlib.axis_2"/>
   <g id="FillBetweenPolyCollection_1">
    <defs>
     <path id="mf7d3622526" d="M 39.97768 -36.800724 
L 39.97768 -36.729688 
L 41.784264 -36.729688 
L 43.590848 -36.729688 
L 45.397432 -36.729688 
L 47.204016 -36.729688 
L 49.0106 -36.729688 
L 50.817184 -36.729688 
L 52.623768 -36.729688 
L 54.430352 -36.729688 
L 56.236936 -36.729688 
L 58.04352 -36.729688 
L 59.850104 -36.729688 
L 61.656688 -36.729688 
L 63.463272 -36.729688 
L 65.269856 -36.729688 
L 67.07644 -36.729688 
L 68.883024 -36.729688 
L 70.689608 -36.729688 
L 72.496192 -36.729688 
L 74.302776 -36.729688 
L 76.10936 -36.729688 
L 77.915944 -36.729688 
L 79.722528 -36.729688 
L 81.529112 -36.729688 
L 83.335696 -36.729688 
L 85.14228 -36.729688 
L 86.948864 -36.729688 
L 88.755447 -36.729688 
L 90.562031 -36.729688 
L 92.368615 -36.729688 
L 94.175199 -36.729688 
L 95.981783 -36.729688 
L 97.788367 -36.729688 
L 99.594951 -36.729688 
L 101.401535 -36.729688 
L 103.208119 -36.729688 
L 105.014703 -36.729688 
L 106.821287 -36.729688 
L 108.627871 -36.729688 
L 110.434455 -36.729688 
L 112.241039 -36.729688 
L 114.047623 -36.729688 
L 115.854207 -36.729688 
L 117.660791 -36.729688 
L 119.467375 -36.729688 
L 121.273959 -36.729688 
L 123.080543 -36.729688 
L 124.887127 -36.729688 
L 126.693711 -36.729688 
L 128.500295 -36.729688 
L 130.306879 -36.729688 
L 132.113463 -36.729688 
L 133.920047 -36.729688 
L 135.726631 -36.729688 
L 137.533215 -36.729688 
L 139.339799 -36.729688 
L 141.146383 -36.729688 
L 142.952966 -36.729688 
L 144.75955 -36.729688 
L 146.566134 -36.729688 
L 148.372718 -36.729688 
L 150.179302 -36.729688 
L 151.985886 -36.729688 
L 153.79247 -36.729688 
L 155.599054 -36.729688 
L 157.405638 -36.729688 
L 159.212222 -36.729688 
L 161.018806 -36.729688 
L 162.82539 -36.729688 
L 164.631974 -36.729688 
L 166.438558 -36.729688 
L 168.245142 -36.729688 
L 170.051726 -36.729688 
L 171.85831 -36.729688 
L 173.664894 -36.729688 
L 175.471478 -36.729688 
L 177.278062 -36.729688 
L 179.084646 -36.729688 
L 180.89123 -36.729688 
L 182.697814 -36.729688 
L 184.504398 -36.729688 
L 186.310982 -36.729688 
L 188.117566 -36.729688 
L 189.92415 -36.729688 
L 191.730734 -36.729688 
L 193.537318 -36.729688 
L 195.343902 -36.729688 
L 197.150485 -36.729688 
L 198.957069 -36.729688 
L 200.763653 -36.729688 
L 202.570237 -36.729688 
L 204.376821 -36.729688 
L 206.183405 -36.729688 
L 207.989989 -36.729688 
L 209.796573 -36.729688 
L 211.603157 -36.729688 
L 213.409741 -36.729688 
L 215.216325 -36.729688 
L 217.022909 -36.729688 
L 218.829493 -36.729688 
L 220.636077 -36.729688 
L 222.442661 -36.729688 
L 224.249245 -36.729688 
L 226.055829 -36.729688 
L 227.862413 -36.729688 
L 229.668997 -36.729688 
L 231.475581 -36.729688 
L 233.282165 -36.729688 
L 235.088749 -36.729688 
L 236.895333 -36.729688 
L 238.701917 -36.729688 
L 240.508501 -36.729688 
L 242.315085 -36.729688 
L 244.121669 -36.729688 
L 245.928253 -36.729688 
L 247.734837 -36.729688 
L 249.541421 -36.729688 
L 251.348004 -36.729688 
L 253.154588 -36.729688 
L 254.961172 -36.729688 
L 256.767756 -36.729688 
L 258.57434 -36.729688 
L 260.380924 -36.729688 
L 262.187508 -36.729688 
L 263.994092 -36.729688 
L 265.800676 -36.729688 
L 267.60726 -36.729688 
L 269.413844 -36.729688 
L 271.220428 -36.729688 
L 273.027012 -36.729688 
L 274.833596 -36.729688 
L 276.64018 -36.729688 
L 278.446764 -36.729688 
L 280.253348 -36.729688 
L 282.059932 -36.729688 
L 283.866516 -36.729688 
L 285.6731 -36.729688 
L 287.479684 -36.729688 
L 289.286268 -36.729688 
L 291.092852 -36.729688 
L 292.899436 -36.729688 
L 294.70602 -36.729688 
L 296.512604 -36.729688 
L 298.319188 -36.729688 
L 300.125772 -36.729688 
L 301.932356 -36.729688 
L 303.73894 -36.729688 
L 305.545523 -36.729688 
L 307.352107 -36.729688 
L 309.158691 -36.729688 
L 310.965275 -36.729688 
L 312.771859 -36.729688 
L 314.578443 -36.729688 
L 316.385027 -36.729688 
L 318.191611 -36.729688 
L 319.998195 -36.729688 
L 321.804779 -36.729688 
L 323.611363 -36.729688 
L 325.417947 -36.729688 
L 327.224531 -36.729688 
L 329.031115 -36.729688 
L 330.837699 -36.729688 
L 332.644283 -36.729688 
L 334.450867 -36.729688 
L 336.257451 -36.729688 
L 338.064035 -36.729688 
L 339.870619 -36.729688 
L 341.677203 -36.729688 
L 343.483787 -36.729688 
L 345.290371 -36.729688 
L 347.096955 -36.729688 
L 348.903539 -36.729688 
L 350.710123 -36.729688 
L 352.516707 -36.729688 
L 354.323291 -36.729688 
L 356.129875 -36.729688 
L 357.936459 -36.729688 
L 359.743043 -36.729688 
L 361.549626 -36.729688 
L 363.35621 -36.729688 
L 365.162794 -36.729688 
L 366.969378 -36.729688 
L 368.775962 -36.729688 
L 370.582546 -36.729688 
L 372.38913 -36.729688 
L 374.195714 -36.729688 
L 376.002298 -36.729688 
L 377.808882 -36.729688 
L 379.615466 -36.729688 
L 381.42205 -36.729688 
L 383.228634 -36.729688 
L 385.035218 -36.729688 
L 386.841802 -36.729688 
L 388.648386 -36.729688 
L 390.45497 -36.729688 
L 392.261554 -36.729688 
L 394.068138 -36.729688 
L 395.874722 -36.729688 
L 397.681306 -36.729688 
L 399.48789 -36.729688 
L 399.48789 -36.810782 
L 399.48789 -36.810782 
L 397.681306 -36.836363 
L 395.874722 -36.86906 
L 394.068138 -36.91055 
L 392.261554 -36.962818 
L 390.45497 -37.028192 
L 388.648386 -37.109374 
L 386.841802 -37.209473 
L 385.035218 -37.332027 
L 383.228634 -37.481021 
L 381.42205 -37.660901 
L 379.615466 -37.876565 
L 377.808882 -38.133357 
L 376.002298 -38.437037 
L 374.195714 -38.793735 
L 372.38913 -39.209894 
L 370.582546 -39.692194 
L 368.775962 -40.247453 
L 366.969378 -40.882523 
L 365.162794 -41.604164 
L 363.35621 -42.418906 
L 361.549626 -43.33291 
L 359.743043 -44.351813 
L 357.936459 -45.480587 
L 356.129875 -46.723392 
L 354.323291 -48.083449 
L 352.516707 -49.562923 
L 350.710123 -51.16284 
L 348.903539 -52.883016 
L 347.096955 -54.722037 
L 345.290371 -56.677263 
L 343.483787 -58.744877 
L 341.677203 -60.919973 
L 339.870619 -63.19668 
L 338.064035 -65.568328 
L 336.257451 -68.027639 
L 334.450867 -70.566949 
L 332.644283 -73.178444 
L 330.837699 -75.8544 
L 329.031115 -78.587424 
L 327.224531 -81.370675 
L 325.417947 -84.198066 
L 323.611363 -87.064419 
L 321.804779 -89.965585 
L 319.998195 -92.898504 
L 318.191611 -95.861211 
L 316.385027 -98.852785 
L 314.578443 -101.873242 
L 312.771859 -104.923373 
L 310.965275 -108.004547 
L 309.158691 -111.118475 
L 307.352107 -114.266966 
L 305.545523 -117.451663 
L 303.73894 -120.673812 
L 301.932356 -123.934034 
L 300.125772 -127.232154 
L 298.319188 -130.567066 
L 296.512604 -133.936658 
L 294.70602 -137.337798 
L 292.899436 -140.766376 
L 291.092852 -144.217403 
L 289.286268 -147.685156 
L 287.479684 -151.163357 
L 285.6731 -154.645384 
L 283.866516 -158.12448 
L 282.059932 -161.593961 
L 280.253348 -165.04741 
L 278.446764 -168.478825 
L 276.64018 -171.882739 
L 274.833596 -175.254273 
L 273.027012 -178.589153 
L 271.220428 -181.883655 
L 269.413844 -185.134508 
L 267.60726 -188.338753 
L 265.800676 -191.493558 
L 263.994092 -194.596019 
L 262.187508 -197.642939 
L 260.380924 -200.630618 
L 258.57434 -203.554657 
L 256.767756 -206.409782 
L 254.961172 -209.189719 
L 253.154588 -211.887104 
L 251.348004 -214.493457 
L 249.541421 -216.999206 
L 247.734837 -219.393764 
L 245.928253 -221.665672 
L 244.121669 -223.802775 
L 242.315085 -225.792448 
L 240.508501 -227.621851 
L 238.701917 -229.278206 
L 236.895333 -230.749076 
L 235.088749 -232.022653 
L 233.282165 -233.088021 
L 231.475581 -233.935405 
L 229.668997 -234.556386 
L 227.862413 -234.94407 
L 226.055829 -235.093231 
L 224.249245 -235.000388 
L 222.442661 -234.663851 
L 220.636077 -234.083717 
L 218.829493 -233.261827 
L 217.022909 -232.201677 
L 215.216325 -230.908316 
L 213.409741 -229.3882 
L 211.603157 -227.649048 
L 209.796573 -225.69967 
L 207.989989 -223.549807 
L 206.183405 -221.209965 
L 204.376821 -218.691259 
L 202.570237 -216.005271 
L 200.763653 -213.163917 
L 198.957069 -210.179338 
L 197.150485 -207.063802 
L 195.343902 -203.82962 
L 193.537318 -200.489084 
L 191.730734 -197.05441 
L 189.92415 -193.537691 
L 188.117566 -189.950858 
L 186.310982 -186.305642 
L 184.504398 -182.61354 
L 182.697814 -178.885772 
L 180.89123 -175.133245 
L 179.084646 -171.366504 
L 177.278062 -167.595685 
L 175.471478 -163.830459 
L 173.664894 -160.079983 
L 171.85831 -156.352841 
L 170.051726 -152.656994 
L 168.245142 -148.999735 
L 166.438558 -145.387644 
L 164.631974 -141.826559 
L 162.82539 -138.321556 
L 161.018806 -134.876936 
L 159.212222 -131.496236 
L 157.405638 -128.182235 
L 155.599054 -124.936993 
L 153.79247 -121.761882 
L 151.985886 -118.657639 
L 150.179302 -115.624425 
L 148.372718 -112.661884 
L 146.566134 -109.769218 
L 144.75955 -106.94525 
L 142.952966 -104.188502 
L 141.146383 -101.49726 
L 139.339799 -98.869646 
L 137.533215 -96.303678 
L 135.726631 -93.797335 
L 133.920047 -91.348605 
L 132.113463 -88.955541 
L 130.306879 -86.6163 
L 128.500295 -84.329186 
L 126.693711 -82.092678 
L 124.887127 -79.905464 
L 123.080543 -77.766464 
L 121.273959 -75.674848 
L 119.467375 -73.630051 
L 117.660791 -71.631791 
L 115.854207 -69.680069 
L 114.047623 -67.77518 
L 112.241039 -65.917704 
L 110.434455 -64.108502 
L 108.627871 -62.348702 
L 106.821287 -60.639678 
L 105.014703 -58.983021 
L 103.208119 -57.380501 
L 101.401535 -55.834024 
L 99.594951 -54.345578 
L 97.788367 -52.917176 
L 95.981783 -51.55079 
L 94.175199 -50.248282 
L 92.368615 -49.011338 
L 90.562031 -47.841394 
L 88.755447 -46.739579 
L 86.948864 -45.70665 
L 85.14228 -44.742952 
L 83.335696 -43.848371 
L 81.529112 -43.02232 
L 79.722528 -42.263722 
L 77.915944 -41.571021 
L 76.10936 -40.942197 
L 74.302776 -40.374802 
L 72.496192 -39.866005 
L 70.689608 -39.41265 
L 68.883024 -39.011312 
L 67.07644 -38.65837 
L 65.269856 -38.350075 
L 63.463272 -38.082618 
L 61.656688 -37.852199 
L 59.850104 -37.655079 
L 58.04352 -37.487645 
L 56.236936 -37.346444 
L 54.430352 -37.22823 
L 52.623768 -37.129981 
L 50.817184 -37.048927 
L 49.0106 -36.982553 
L 47.204016 -36.928605 
L 45.397432 -36.885086 
L 43.590848 -36.850242 
L 41.784264 -36.822556 
L 39.97768 -36.800724 
z
" style="stroke: #dd8452"/>
    </defs>
    <g>
     <use xlink:href="#mf7d3622526" x="0" y="265.689687" style="fill: #dd8452; fill-opacity: 0.25; stroke: #dd8452"/>
    </g>
   </g>
   <g id="FillBetweenPolyCollection_2">
    <defs>
     <path id="mb0d61dafec" d="M 303.511787 -36.793204 
L 303.511787 -36.729688 
L 305.481734 -36.729688 
L 307.451681 -36.729688 
L 309.421628 -36.729688 
L 311.391576 -36.729688 
L 313.361523 -36.729688 
L 315.33147 -36.729688 
L 317.301417 -36.729688 
L 319.271364 -36.729688 
L 321.241312 -36.729688 
L 323.211259 -36.729688 
L 325.181206 -36.729688 
L 327.151153 -36.729688 
L 329.121101 -36.729688 
L 331.091048 -36.729688 
L 333.060995 -36.729688 
L 335.030942 -36.729688 
L 337.00089 -36.729688 
L 338.970837 -36.729688 
L 340.940784 -36.729688 
L 342.910731 -36.729688 
L 344.880679 -36.729688 
L 346.850626 -36.729688 
L 348.820573 -36.729688 
L 350.79052 -36.729688 
L 352.760468 -36.729688 
L 354.730415 -36.729688 
L 356.700362 -36.729688 
L 358.670309 -36.729688 
L 360.640257 -36.729688 
L 362.610204 -36.729688 
L 364.580151 -36.729688 
L 366.550098 -36.729688 
L 368.520046 -36.729688 
L 370.489993 -36.729688 
L 372.45994 -36.729688 
L 374.429887 -36.729688 
L 376.399835 -36.729688 
L 378.369782 -36.729688 
L 380.339729 -36.729688 
L 382.309676 -36.729688 
L 384.279624 -36.729688 
L 386.249571 -36.729688 
L 388.219518 -36.729688 
L 390.189465 -36.729688 
L 392.159413 -36.729688 
L 394.12936 -36.729688 
L 396.099307 -36.729688 
L 398.069254 -36.729688 
L 400.039202 -36.729688 
L 402.009149 -36.729688 
L 403.979096 -36.729688 
L 405.949043 -36.729688 
L 407.918991 -36.729688 
L 409.888938 -36.729688 
L 411.858885 -36.729688 
L 413.828832 -36.729688 
L 415.79878 -36.729688 
L 417.768727 -36.729688 
L 419.738674 -36.729688 
L 421.708621 -36.729688 
L 423.678568 -36.729688 
L 425.648516 -36.729688 
L 427.618463 -36.729688 
L 429.58841 -36.729688 
L 431.558357 -36.729688 
L 433.528305 -36.729688 
L 435.498252 -36.729688 
L 437.468199 -36.729688 
L 439.438146 -36.729688 
L 441.408094 -36.729688 
L 443.378041 -36.729688 
L 445.347988 -36.729688 
L 447.317935 -36.729688 
L 449.287883 -36.729688 
L 451.25783 -36.729688 
L 453.227777 -36.729688 
L 455.197724 -36.729688 
L 457.167672 -36.729688 
L 459.137619 -36.729688 
L 461.107566 -36.729688 
L 463.077513 -36.729688 
L 465.047461 -36.729688 
L 467.017408 -36.729688 
L 468.987355 -36.729688 
L 470.957302 -36.729688 
L 472.92725 -36.729688 
L 474.897197 -36.729688 
L 476.867144 -36.729688 
L 478.837091 -36.729688 
L 480.807039 -36.729688 
L 482.776986 -36.729688 
L 484.746933 -36.729688 
L 486.71688 -36.729688 
L 488.686828 -36.729688 
L 490.656775 -36.729688 
L 492.626722 -36.729688 
L 494.596669 -36.729688 
L 496.566617 -36.729688 
L 498.536564 -36.729688 
L 500.506511 -36.729688 
L 502.476458 -36.729688 
L 504.446406 -36.729688 
L 506.416353 -36.729688 
L 508.3863 -36.729688 
L 510.356247 -36.729688 
L 512.326195 -36.729688 
L 514.296142 -36.729688 
L 516.266089 -36.729688 
L 518.236036 -36.729688 
L 520.205983 -36.729688 
L 522.175931 -36.729688 
L 524.145878 -36.729688 
L 526.115825 -36.729688 
L 528.085772 -36.729688 
L 530.05572 -36.729688 
L 532.025667 -36.729688 
L 533.995614 -36.729688 
L 535.965561 -36.729688 
L 537.935509 -36.729688 
L 539.905456 -36.729688 
L 541.875403 -36.729688 
L 543.84535 -36.729688 
L 545.815298 -36.729688 
L 547.785245 -36.729688 
L 549.755192 -36.729688 
L 551.725139 -36.729688 
L 553.695087 -36.729688 
L 555.665034 -36.729688 
L 557.634981 -36.729688 
L 559.604928 -36.729688 
L 561.574876 -36.729688 
L 563.544823 -36.729688 
L 565.51477 -36.729688 
L 567.484717 -36.729688 
L 569.454665 -36.729688 
L 571.424612 -36.729688 
L 573.394559 -36.729688 
L 575.364506 -36.729688 
L 577.334454 -36.729688 
L 579.304401 -36.729688 
L 581.274348 -36.729688 
L 583.244295 -36.729688 
L 585.214243 -36.729688 
L 587.18419 -36.729688 
L 589.154137 -36.729688 
L 591.124084 -36.729688 
L 593.094032 -36.729688 
L 595.063979 -36.729688 
L 597.033926 -36.729688 
L 599.003873 -36.729688 
L 600.973821 -36.729688 
L 602.943768 -36.729688 
L 604.913715 -36.729688 
L 606.883662 -36.729688 
L 608.85361 -36.729688 
L 610.823557 -36.729688 
L 612.793504 -36.729688 
L 614.763451 -36.729688 
L 616.733398 -36.729688 
L 618.703346 -36.729688 
L 620.673293 -36.729688 
L 622.64324 -36.729688 
L 624.613187 -36.729688 
L 626.583135 -36.729688 
L 628.553082 -36.729688 
L 630.523029 -36.729688 
L 632.492976 -36.729688 
L 634.462924 -36.729688 
L 636.432871 -36.729688 
L 638.402818 -36.729688 
L 640.372765 -36.729688 
L 642.342713 -36.729688 
L 644.31266 -36.729688 
L 646.282607 -36.729688 
L 648.252554 -36.729688 
L 650.222502 -36.729688 
L 652.192449 -36.729688 
L 654.162396 -36.729688 
L 656.132343 -36.729688 
L 658.102291 -36.729688 
L 660.072238 -36.729688 
L 662.042185 -36.729688 
L 664.012132 -36.729688 
L 665.98208 -36.729688 
L 667.952027 -36.729688 
L 669.921974 -36.729688 
L 671.891921 -36.729688 
L 673.861869 -36.729688 
L 675.831816 -36.729688 
L 677.801763 -36.729688 
L 679.77171 -36.729688 
L 681.741658 -36.729688 
L 683.711605 -36.729688 
L 685.681552 -36.729688 
L 687.651499 -36.729688 
L 689.621447 -36.729688 
L 691.591394 -36.729688 
L 693.561341 -36.729688 
L 695.531288 -36.729688 
L 695.531288 -36.805385 
L 695.531288 -36.805385 
L 693.561341 -36.831938 
L 691.591394 -36.866595 
L 689.621447 -36.911407 
L 687.651499 -36.968805 
L 685.681552 -37.041643 
L 683.711605 -37.133217 
L 681.741658 -37.24729 
L 679.77171 -37.388096 
L 677.801763 -37.560328 
L 675.831816 -37.769117 
L 673.861869 -38.019986 
L 671.891921 -38.318786 
L 669.921974 -38.671616 
L 667.952027 -39.084724 
L 665.98208 -39.5644 
L 664.012132 -40.11685 
L 662.042185 -40.748082 
L 660.072238 -41.463781 
L 658.102291 -42.269201 
L 656.132343 -43.169072 
L 654.162396 -44.16753 
L 652.192449 -45.268067 
L 650.222502 -46.473518 
L 648.252554 -47.786074 
L 646.282607 -49.207316 
L 644.31266 -50.738284 
L 642.342713 -52.379555 
L 640.372765 -54.131334 
L 638.402818 -55.993548 
L 636.432871 -57.965931 
L 634.462924 -60.048099 
L 632.492976 -62.239599 
L 630.523029 -64.539936 
L 628.553082 -66.948576 
L 626.583135 -69.464915 
L 624.613187 -72.088235 
L 622.64324 -74.817633 
L 620.673293 -77.65195 
L 618.703346 -80.589694 
L 616.733398 -83.628968 
L 614.763451 -86.767419 
L 612.793504 -90.002212 
L 610.823557 -93.330016 
L 608.85361 -96.74704 
L 606.883662 -100.249074 
L 604.913715 -103.83157 
L 602.943768 -107.489733 
L 600.973821 -111.218616 
L 599.003873 -115.013225 
L 597.033926 -118.8686 
L 595.063979 -122.779891 
L 593.094032 -126.742393 
L 591.124084 -130.751563 
L 589.154137 -134.802988 
L 587.18419 -138.892331 
L 585.214243 -143.015245 
L 583.244295 -147.167255 
L 581.274348 -151.343642 
L 579.304401 -155.539304 
L 577.334454 -159.748637 
L 575.364506 -163.965425 
L 573.394559 -168.182762 
L 571.424612 -172.393001 
L 569.454665 -176.587749 
L 567.484717 -180.757892 
L 565.51477 -184.89367 
L 563.544823 -188.984783 
L 561.574876 -193.020522 
L 559.604928 -196.989924 
L 557.634981 -200.881938 
L 555.665034 -204.685588 
L 553.695087 -208.390123 
L 551.725139 -211.985143 
L 549.755192 -215.460705 
L 547.785245 -218.807371 
L 545.815298 -222.016233 
L 543.84535 -225.078873 
L 541.875403 -227.987296 
L 539.905456 -230.733805 
L 537.935509 -233.310849 
L 535.965561 -235.710845 
L 533.995614 -237.925974 
L 532.025667 -239.947988 
L 530.05572 -241.768021 
L 528.085772 -243.376431 
L 526.115825 -244.762683 
L 524.145878 -245.915295 
L 522.175931 -246.821854 
L 520.205983 -247.469105 
L 518.236036 -247.843145 
L 516.266089 -247.929688 
L 514.296142 -247.714426 
L 512.326195 -247.183469 
L 510.356247 -246.323841 
L 508.3863 -245.124029 
L 506.416353 -243.574544 
L 504.446406 -241.668487 
L 502.476458 -239.402072 
L 500.506511 -236.775093 
L 498.536564 -233.791295 
L 496.566617 -230.458641 
L 494.596669 -226.789435 
L 492.626722 -222.800303 
L 490.656775 -218.51203 
L 488.686828 -213.949236 
L 486.71688 -209.139918 
L 484.746933 -204.114875 
L 482.776986 -198.907034 
L 480.807039 -193.550701 
L 478.837091 -188.080799 
L 476.867144 -182.532084 
L 474.897197 -176.938415 
L 472.92725 -171.332082 
L 470.957302 -165.743229 
L 468.987355 -160.199393 
L 467.017408 -154.725168 
L 465.047461 -149.342005 
L 463.077513 -144.068141 
L 461.107566 -138.918652 
L 459.137619 -133.905613 
L 457.167672 -129.038341 
L 455.197724 -124.323709 
L 453.227777 -119.766489 
L 451.25783 -115.369716 
L 449.287883 -111.13504 
L 447.317935 -107.063047 
L 445.347988 -103.15354 
L 443.378041 -99.405758 
L 441.408094 -95.818541 
L 439.438146 -92.390432 
L 437.468199 -89.119721 
L 435.498252 -86.004441 
L 433.528305 -83.042335 
L 431.558357 -80.230794 
L 429.58841 -77.566792 
L 427.618463 -75.046832 
L 425.648516 -72.666903 
L 423.678568 -70.422478 
L 421.708621 -68.308547 
L 419.738674 -66.31968 
L 417.768727 -64.450144 
L 415.79878 -62.69404 
L 413.828832 -61.045465 
L 411.858885 -59.49869 
L 409.888938 -58.048323 
L 407.918991 -56.689461 
L 405.949043 -55.417802 
L 403.979096 -54.229713 
L 402.009149 -53.12224 
L 400.039202 -52.093061 
L 398.069254 -51.140372 
L 396.099307 -50.262726 
L 394.12936 -49.458828 
L 392.159413 -48.727298 
L 390.189465 -48.066427 
L 388.219518 -47.473949 
L 386.249571 -46.946841 
L 384.279624 -46.481171 
L 382.309676 -46.072021 
L 380.339729 -45.713479 
L 378.369782 -45.398715 
L 376.399835 -45.120137 
L 374.429887 -44.869615 
L 372.45994 -44.638763 
L 370.489993 -44.419255 
L 368.520046 -44.203156 
L 366.550098 -43.983251 
L 364.580151 -43.753328 
L 362.610204 -43.508422 
L 360.640257 -43.244987 
L 358.670309 -42.960988 
L 356.700362 -42.65591 
L 354.730415 -42.330692 
L 352.760468 -41.987582 
L 350.79052 -41.629931 
L 348.820573 -41.261945 
L 346.850626 -40.888409 
L 344.880679 -40.514405 
L 342.910731 -40.145033 
L 340.940784 -39.785166 
L 338.970837 -39.439236 
L 337.00089 -39.111073 
L 335.030942 -38.803783 
L 333.060995 -38.519692 
L 331.091048 -38.260326 
L 329.121101 -38.026437 
L 327.151153 -37.818071 
L 325.181206 -37.634652 
L 323.211259 -37.475086 
L 321.241312 -37.337879 
L 319.271364 -37.221247 
L 317.301417 -37.123226 
L 315.33147 -37.041768 
L 313.361523 -36.974823 
L 311.391576 -36.920411 
L 309.421628 -36.876666 
L 307.451681 -36.841877 
L 305.481734 -36.814507 
L 303.511787 -36.793204 
z
" style="stroke: #4c72b0"/>
    </defs>
    <g>
     <use xlink:href="#mb0d61dafec" x="0" y="265.689687" style="fill: #4c72b0; fill-opacity: 0.25; stroke: #4c72b0"/>
    </g>
   </g>
   <g id="line2d_31">
    <path d="M 174.250034 228.96 
L 174.250034 7.2 
" style="fill: none; stroke-dasharray: 2.96,1.28; stroke-dashoffset: 0; stroke: #d3d3d3; stroke-width: 0.8"/>
   </g>
   <g id="line2d_32">
    <path d="M 402.38427 228.96 
L 402.38427 7.2 
" style="fill: none; stroke-dasharray: 2.96,1.28; stroke-dashoffset: 0; stroke: #d3d3d3; stroke-width: 0.8"/>
   </g>
   <g id="line2d_33">
    <path d="M 305.349418 228.96 
L 305.349418 7.2 
" style="fill: none; stroke-dasharray: 2.96,1.28; stroke-dashoffset: 0; stroke: #d3d3d3; stroke-width: 0.8"/>
   </g>
   <g id="line2d_34">
    <path d="M 7.2 228.96 
L 844.2 228.96 
" style="fill: none; stroke: #808080; stroke-width: 0.5; stroke-linecap: round"/>
   </g>
   <g id="text_12">
    <text style="font-size: 8px; font-family: 'Arial', 'DejaVu Sans', 'Liberation Sans', 'Bitstream Vera Sans', sans-serif; fill: #808080" transform="translate(180.503784 124.59635) rotate(-90)">International Poverty Line: $3.00</text>
   </g>
   <g id="text_13">
    <text style="font-size: 8px; font-family: 'Arial', 'DejaVu Sans', 'Liberation Sans', 'Bitstream Vera Sans', sans-serif; fill: #808080" transform="translate(408.11052 81.31135) rotate(-90)">World mean: $21.69</text>
   </g>
   <g id="text_14">
    <text style="font-size: 8px; font-family: 'Arial', 'DejaVu Sans', 'Liberation Sans', 'Bitstream Vera Sans', sans-serif; fill: #808080" transform="translate(311.075668 83.08885) rotate(-90)">World median: $9.35</text>
   </g>
   <g id="text_15">
    <text style="font-size: 10px; font-family: 'Arial', 'DejaVu Sans', 'Liberation Sans', 'Bitstream Vera Sans', sans-serif; text-anchor: middle" x="520.911395" y="226.855312" transform="rotate(-0 520.911395 226.855312)">Denmark (2022)</text>
   </g>
   <g id="text_16">
    <text style="font-size: 10px; font-family: 'Arial', 'DejaVu Sans', 'Liberation Sans', 'Bitstream Vera Sans', sans-serif; text-anchor: middle" x="226.868117" y="226.855312" transform="rotate(-0 226.868117 226.855312)">Syria (2022)</text>
   </g>
  </g>
 </g>
</svg>
