<?xml version="1.0" encoding="utf-8" standalone="no"?>
<!DOCTYPE svg PUBLIC "-//W3C//DTD SVG 1.1//EN"
  "http://www.w3.org/Graphics/SVG/1.1/DTD/svg11.dtd">
<svg xmlns:xlink="http://www.w3.org/1999/xlink" width="865.302344pt" height="265.689687pt" viewBox="0 0 865.302344 265.689687" xmlns="http://www.w3.org/2000/svg" version="1.1">
 <metadata>
  <rdf:RDF xmlns:dc="http://purl.org/dc/elements/1.1/" xmlns:cc="http://creativecommons.org/ns#" xmlns:rdf="http://www.w3.org/1999/02/22-rdf-syntax-ns#">
   <cc:Work>
    <dc:type rdf:resource="http://purl.org/dc/dcmitype/StillImage"/>
    <dc:date>2026-01-02T17:38:46.794025</dc:date>
    <dc:format>image/svg+xml</dc:format>
    <dc:creator>
     <cc:Agent>
      <dc:title>Matplotlib v3.10.1, https://matplotlib.org/</dc:title>
     </cc:Agent>
    </dc:creator>
   </cc:Work>
  </rdf:RDF>
 </metadata>
 <defs>
  <style type="text/css">*{stroke-linejoin: round; stroke-linecap: butt}</style>
 </defs>
 <g id="figure_1">
  <g id="patch_1">
   <path d="M 0 265.689687 
L 865.302344 265.689687 
L 865.302344 0 
L 0 0 
z
" style="fill: #ffffff"/>
  </g>
  <g id="axes_1">
   <g id="patch_2">
    <path d="M 7.2 228.96 
L 844.2 228.96 
L 844.2 7.2 
L 7.2 7.2 
z
" style="fill: #ffffff"/>
   </g>
   <g id="matplotlib.axis_1">
    <g id="xtick_1">
     <g id="line2d_1">
      <defs>
       <path id="m30c2bf03f1" d="M 0 0 
L 0 3.5 
" style="stroke: #262626; stroke-width: 0.8"/>
      </defs>
      <g>
       <use xlink:href="#m30c2bf03f1" x="34.746279" y="228.96" style="fill: #262626; stroke: #262626; stroke-width: 0.8"/>
      </g>
     </g>
     <g id="text_1">
      <text style="font-size: 10px; font-family: 'Arial', 'DejaVu Sans', 'Liberation Sans', 'Bitstream Vera Sans', sans-serif; text-anchor: middle; fill: #262626" x="34.746279" y="243.117812" transform="rotate(-0 34.746279 243.117812)">$1</text>
     </g>
    </g>
    <g id="xtick_2">
     <g id="line2d_2">
      <g>
       <use xlink:href="#m30c2bf03f1" x="115.969563" y="228.96" style="fill: #262626; stroke: #262626; stroke-width: 0.8"/>
      </g>
     </g>
     <g id="text_2">
      <text style="font-size: 10px; font-family: 'Arial', 'DejaVu Sans', 'Liberation Sans', 'Bitstream Vera Sans', sans-serif; text-anchor: middle; fill: #262626" x="115.969563" y="243.117812" transform="rotate(-0 115.969563 243.117812)">$2</text>
     </g>
    </g>
    <g id="xtick_3">
     <g id="line2d_3">
      <g>
       <use xlink:href="#m30c2bf03f1" x="223.340903" y="228.96" style="fill: #262626; stroke: #262626; stroke-width: 0.8"/>
      </g>
     </g>
     <g id="text_3">
      <text style="font-size: 10px; font-family: 'Arial', 'DejaVu Sans', 'Liberation Sans', 'Bitstream Vera Sans', sans-serif; text-anchor: middle; fill: #262626" x="223.340903" y="243.117812" transform="rotate(-0 223.340903 243.117812)">$5</text>
     </g>
    </g>
    <g id="xtick_4">
     <g id="line2d_4">
      <g>
       <use xlink:href="#m30c2bf03f1" x="304.564186" y="228.96" style="fill: #262626; stroke: #262626; stroke-width: 0.8"/>
      </g>
     </g>
     <g id="text_4">
      <text style="font-size: 10px; font-family: 'Arial', 'DejaVu Sans', 'Liberation Sans', 'Bitstream Vera Sans', sans-serif; text-anchor: middle; fill: #262626" x="304.564186" y="243.117812" transform="rotate(-0 304.564186 243.117812)">$10</text>
     </g>
    </g>
    <g id="xtick_5">
     <g id="line2d_5">
      <g>
       <use xlink:href="#m30c2bf03f1" x="385.78747" y="228.96" style="fill: #262626; stroke: #262626; stroke-width: 0.8"/>
      </g>
     </g>
     <g id="text_5">
      <text style="font-size: 10px; font-family: 'Arial', 'DejaVu Sans', 'Liberation Sans', 'Bitstream Vera Sans', sans-serif; text-anchor: middle; fill: #262626" x="385.78747" y="243.117812" transform="rotate(-0 385.78747 243.117812)">$20</text>
     </g>
    </g>
    <g id="xtick_6">
     <g id="line2d_6">
      <g>
       <use xlink:href="#m30c2bf03f1" x="493.15881" y="228.96" style="fill: #262626; stroke: #262626; stroke-width: 0.8"/>
      </g>
     </g>
     <g id="text_6">
      <text style="font-size: 10px; font-family: 'Arial', 'DejaVu Sans', 'Liberation Sans', 'Bitstream Vera Sans', sans-serif; text-anchor: middle; fill: #262626" x="493.15881" y="243.117812" transform="rotate(-0 493.15881 243.117812)">$50</text>
     </g>
    </g>
    <g id="xtick_7">
     <g id="line2d_7">
      <g>
       <use xlink:href="#m30c2bf03f1" x="574.382093" y="228.96" style="fill: #262626; stroke: #262626; stroke-width: 0.8"/>
      </g>
     </g>
     <g id="text_7">
      <text style="font-size: 10px; font-family: 'Arial', 'DejaVu Sans', 'Liberation Sans', 'Bitstream Vera Sans', sans-serif; text-anchor: middle; fill: #262626" x="574.382093" y="243.117812" transform="rotate(-0 574.382093 243.117812)">$100</text>
     </g>
    </g>
    <g id="xtick_8">
     <g id="line2d_8">
      <g>
       <use xlink:href="#m30c2bf03f1" x="655.605376" y="228.96" style="fill: #262626; stroke: #262626; stroke-width: 0.8"/>
      </g>
     </g>
     <g id="text_8">
      <text style="font-size: 10px; font-family: 'Arial', 'DejaVu Sans', 'Liberation Sans', 'Bitstream Vera Sans', sans-serif; text-anchor: middle; fill: #262626" x="655.605376" y="243.117812" transform="rotate(-0 655.605376 243.117812)">$200</text>
     </g>
    </g>
    <g id="xtick_9">
     <g id="line2d_9">
      <g>
       <use xlink:href="#m30c2bf03f1" x="762.976717" y="228.96" style="fill: #262626; stroke: #262626; stroke-width: 0.8"/>
      </g>
     </g>
     <g id="text_9">
      <text style="font-size: 10px; font-family: 'Arial', 'DejaVu Sans', 'Liberation Sans', 'Bitstream Vera Sans', sans-serif; text-anchor: middle; fill: #262626" x="762.976717" y="243.117812" transform="rotate(-0 762.976717 243.117812)">$500</text>
     </g>
    </g>
    <g id="xtick_10">
     <g id="line2d_10">
      <g>
       <use xlink:href="#m30c2bf03f1" x="844.2" y="228.96" style="fill: #262626; stroke: #262626; stroke-width: 0.8"/>
      </g>
     </g>
     <g id="text_10">
      <text style="font-size: 10px; font-family: 'Arial', 'DejaVu Sans', 'Liberation Sans', 'Bitstream Vera Sans', sans-serif; text-anchor: middle; fill: #262626" x="844.2" y="243.117812" transform="rotate(-0 844.2 243.117812)">$1000</text>
     </g>
    </g>
    <g id="xtick_11">
     <g id="line2d_11">
      <defs>
       <path id="m34095d8ea9" d="M 0 0 
L 0 2 
" style="stroke: #262626; stroke-width: 0.6"/>
      </defs>
      <g>
       <use xlink:href="#m34095d8ea9" x="8.598223" y="228.96" style="fill: #262626; stroke: #262626; stroke-width: 0.6"/>
      </g>
     </g>
    </g>
    <g id="xtick_12">
     <g id="line2d_12">
      <g>
       <use xlink:href="#m34095d8ea9" x="22.400089" y="228.96" style="fill: #262626; stroke: #262626; stroke-width: 0.6"/>
      </g>
     </g>
    </g>
    <g id="xtick_13">
     <g id="line2d_13">
      <g>
       <use xlink:href="#m34095d8ea9" x="163.482138" y="228.96" style="fill: #262626; stroke: #262626; stroke-width: 0.6"/>
      </g>
     </g>
    </g>
    <g id="xtick_14">
     <g id="line2d_14">
      <g>
       <use xlink:href="#m34095d8ea9" x="197.192846" y="228.96" style="fill: #262626; stroke: #262626; stroke-width: 0.6"/>
      </g>
     </g>
    </g>
    <g id="xtick_15">
     <g id="line2d_15">
      <g>
       <use xlink:href="#m34095d8ea9" x="244.705421" y="228.96" style="fill: #262626; stroke: #262626; stroke-width: 0.6"/>
      </g>
     </g>
    </g>
    <g id="xtick_16">
     <g id="line2d_16">
      <g>
       <use xlink:href="#m34095d8ea9" x="262.768864" y="228.96" style="fill: #262626; stroke: #262626; stroke-width: 0.6"/>
      </g>
     </g>
    </g>
    <g id="xtick_17">
     <g id="line2d_17">
      <g>
       <use xlink:href="#m34095d8ea9" x="278.416129" y="228.96" style="fill: #262626; stroke: #262626; stroke-width: 0.6"/>
      </g>
     </g>
    </g>
    <g id="xtick_18">
     <g id="line2d_18">
      <g>
       <use xlink:href="#m34095d8ea9" x="292.217996" y="228.96" style="fill: #262626; stroke: #262626; stroke-width: 0.6"/>
      </g>
     </g>
    </g>
    <g id="xtick_19">
     <g id="line2d_19">
      <g>
       <use xlink:href="#m34095d8ea9" x="433.300045" y="228.96" style="fill: #262626; stroke: #262626; stroke-width: 0.6"/>
      </g>
     </g>
    </g>
    <g id="xtick_20">
     <g id="line2d_20">
      <g>
       <use xlink:href="#m34095d8ea9" x="467.010753" y="228.96" style="fill: #262626; stroke: #262626; stroke-width: 0.6"/>
      </g>
     </g>
    </g>
    <g id="xtick_21">
     <g id="line2d_21">
      <g>
       <use xlink:href="#m34095d8ea9" x="514.523328" y="228.96" style="fill: #262626; stroke: #262626; stroke-width: 0.6"/>
      </g>
     </g>
    </g>
    <g id="xtick_22">
     <g id="line2d_22">
      <g>
       <use xlink:href="#m34095d8ea9" x="532.586771" y="228.96" style="fill: #262626; stroke: #262626; stroke-width: 0.6"/>
      </g>
     </g>
    </g>
    <g id="xtick_23">
     <g id="line2d_23">
      <g>
       <use xlink:href="#m34095d8ea9" x="548.234036" y="228.96" style="fill: #262626; stroke: #262626; stroke-width: 0.6"/>
      </g>
     </g>
    </g>
    <g id="xtick_24">
     <g id="line2d_24">
      <g>
       <use xlink:href="#m34095d8ea9" x="562.035903" y="228.96" style="fill: #262626; stroke: #262626; stroke-width: 0.6"/>
      </g>
     </g>
    </g>
    <g id="xtick_25">
     <g id="line2d_25">
      <g>
       <use xlink:href="#m34095d8ea9" x="703.117951" y="228.96" style="fill: #262626; stroke: #262626; stroke-width: 0.6"/>
      </g>
     </g>
    </g>
    <g id="xtick_26">
     <g id="line2d_26">
      <g>
       <use xlink:href="#m34095d8ea9" x="736.82866" y="228.96" style="fill: #262626; stroke: #262626; stroke-width: 0.6"/>
      </g>
     </g>
    </g>
    <g id="xtick_27">
     <g id="line2d_27">
      <g>
       <use xlink:href="#m34095d8ea9" x="784.341235" y="228.96" style="fill: #262626; stroke: #262626; stroke-width: 0.6"/>
      </g>
     </g>
    </g>
    <g id="xtick_28">
     <g id="line2d_28">
      <g>
       <use xlink:href="#m34095d8ea9" x="802.404677" y="228.96" style="fill: #262626; stroke: #262626; stroke-width: 0.6"/>
      </g>
     </g>
    </g>
    <g id="xtick_29">
     <g id="line2d_29">
      <g>
       <use xlink:href="#m34095d8ea9" x="818.051943" y="228.96" style="fill: #262626; stroke: #262626; stroke-width: 0.6"/>
      </g>
     </g>
    </g>
    <g id="xtick_30">
     <g id="line2d_30">
      <g>
       <use xlink:href="#m34095d8ea9" x="831.85381" y="228.96" style="fill: #262626; stroke: #262626; stroke-width: 0.6"/>
      </g>
     </g>
    </g>
    <g id="text_11">
     <text style="font-size: 10px; font-family: 'Arial', 'DejaVu Sans', 'Liberation Sans', 'Bitstream Vera Sans', sans-serif; text-anchor: middle; fill: #262626" x="425.7" y="256.385" transform="rotate(-0 425.7 256.385)">Income or consumption (day)</text>
    </g>
   </g>
   <g id="matplotlib.axis_2"/>
   <g id="FillBetweenPolyCollection_1">
    <defs>
     <path id="mf02b99d0cf" d="M 40.878461 -36.760866 
L 40.878461 -36.729688 
L 42.609704 -36.729688 
L 44.340947 -36.729688 
L 46.07219 -36.729688 
L 47.803432 -36.729688 
L 49.534675 -36.729688 
L 51.265918 -36.729688 
L 52.997161 -36.729688 
L 54.728404 -36.729688 
L 56.459647 -36.729688 
L 58.19089 -36.729688 
L 59.922133 -36.729688 
L 61.653376 -36.729688 
L 63.384619 -36.729688 
L 65.115862 -36.729688 
L 66.847105 -36.729688 
L 68.578348 -36.729688 
L 70.309591 -36.729688 
L 72.040834 -36.729688 
L 73.772077 -36.729688 
L 75.50332 -36.729688 
L 77.234563 -36.729688 
L 78.965806 -36.729688 
L 80.697049 -36.729688 
L 82.428292 -36.729688 
L 84.159535 -36.729688 
L 85.890778 -36.729688 
L 87.62202 -36.729688 
L 89.353263 -36.729688 
L 91.084506 -36.729688 
L 92.815749 -36.729688 
L 94.546992 -36.729688 
L 96.278235 -36.729688 
L 98.009478 -36.729688 
L 99.740721 -36.729688 
L 101.471964 -36.729688 
L 103.203207 -36.729688 
L 104.93445 -36.729688 
L 106.665693 -36.729688 
L 108.396936 -36.729688 
L 110.128179 -36.729688 
L 111.859422 -36.729688 
L 113.590665 -36.729688 
L 115.321908 -36.729688 
L 117.053151 -36.729688 
L 118.784394 -36.729688 
L 120.515637 -36.729688 
L 122.24688 -36.729688 
L 123.978123 -36.729688 
L 125.709366 -36.729688 
L 127.440608 -36.729688 
L 129.171851 -36.729688 
L 130.903094 -36.729688 
L 132.634337 -36.729688 
L 134.36558 -36.729688 
L 136.096823 -36.729688 
L 137.828066 -36.729688 
L 139.559309 -36.729688 
L 141.290552 -36.729688 
L 143.021795 -36.729688 
L 144.753038 -36.729688 
L 146.484281 -36.729688 
L 148.215524 -36.729688 
L 149.946767 -36.729688 
L 151.67801 -36.729688 
L 153.409253 -36.729688 
L 155.140496 -36.729688 
L 156.871739 -36.729688 
L 158.602982 -36.729688 
L 160.334225 -36.729688 
L 162.065468 -36.729688 
L 163.796711 -36.729688 
L 165.527954 -36.729688 
L 167.259196 -36.729688 
L 168.990439 -36.729688 
L 170.721682 -36.729688 
L 172.452925 -36.729688 
L 174.184168 -36.729688 
L 175.915411 -36.729688 
L 177.646654 -36.729688 
L 179.377897 -36.729688 
L 181.10914 -36.729688 
L 182.840383 -36.729688 
L 184.571626 -36.729688 
L 186.302869 -36.729688 
L 188.034112 -36.729688 
L 189.765355 -36.729688 
L 191.496598 -36.729688 
L 193.227841 -36.729688 
L 194.959084 -36.729688 
L 196.690327 -36.729688 
L 198.42157 -36.729688 
L 200.152813 -36.729688 
L 201.884056 -36.729688 
L 203.615299 -36.729688 
L 205.346542 -36.729688 
L 207.077784 -36.729688 
L 208.809027 -36.729688 
L 210.54027 -36.729688 
L 212.271513 -36.729688 
L 214.002756 -36.729688 
L 215.733999 -36.729688 
L 217.465242 -36.729688 
L 219.196485 -36.729688 
L 220.927728 -36.729688 
L 222.658971 -36.729688 
L 224.390214 -36.729688 
L 226.121457 -36.729688 
L 227.8527 -36.729688 
L 229.583943 -36.729688 
L 231.315186 -36.729688 
L 233.046429 -36.729688 
L 234.777672 -36.729688 
L 236.508915 -36.729688 
L 238.240158 -36.729688 
L 239.971401 -36.729688 
L 241.702644 -36.729688 
L 243.433887 -36.729688 
L 245.16513 -36.729688 
L 246.896372 -36.729688 
L 248.627615 -36.729688 
L 250.358858 -36.729688 
L 252.090101 -36.729688 
L 253.821344 -36.729688 
L 255.552587 -36.729688 
L 257.28383 -36.729688 
L 259.015073 -36.729688 
L 260.746316 -36.729688 
L 262.477559 -36.729688 
L 264.208802 -36.729688 
L 265.940045 -36.729688 
L 267.671288 -36.729688 
L 269.402531 -36.729688 
L 271.133774 -36.729688 
L 272.865017 -36.729688 
L 274.59626 -36.729688 
L 276.327503 -36.729688 
L 278.058746 -36.729688 
L 279.789989 -36.729688 
L 281.521232 -36.729688 
L 283.252475 -36.729688 
L 284.983718 -36.729688 
L 286.71496 -36.729688 
L 288.446203 -36.729688 
L 290.177446 -36.729688 
L 291.908689 -36.729688 
L 293.639932 -36.729688 
L 295.371175 -36.729688 
L 297.102418 -36.729688 
L 298.833661 -36.729688 
L 300.564904 -36.729688 
L 302.296147 -36.729688 
L 304.02739 -36.729688 
L 305.758633 -36.729688 
L 307.489876 -36.729688 
L 309.221119 -36.729688 
L 310.952362 -36.729688 
L 312.683605 -36.729688 
L 314.414848 -36.729688 
L 316.146091 -36.729688 
L 317.877334 -36.729688 
L 319.608577 -36.729688 
L 321.33982 -36.729688 
L 323.071063 -36.729688 
L 324.802306 -36.729688 
L 326.533548 -36.729688 
L 328.264791 -36.729688 
L 329.996034 -36.729688 
L 331.727277 -36.729688 
L 333.45852 -36.729688 
L 335.189763 -36.729688 
L 336.921006 -36.729688 
L 338.652249 -36.729688 
L 340.383492 -36.729688 
L 342.114735 -36.729688 
L 343.845978 -36.729688 
L 345.577221 -36.729688 
L 347.308464 -36.729688 
L 349.039707 -36.729688 
L 350.77095 -36.729688 
L 352.502193 -36.729688 
L 354.233436 -36.729688 
L 355.964679 -36.729688 
L 357.695922 -36.729688 
L 359.427165 -36.729688 
L 361.158408 -36.729688 
L 362.889651 -36.729688 
L 364.620894 -36.729688 
L 366.352136 -36.729688 
L 368.083379 -36.729688 
L 369.814622 -36.729688 
L 371.545865 -36.729688 
L 373.277108 -36.729688 
L 375.008351 -36.729688 
L 376.739594 -36.729688 
L 378.470837 -36.729688 
L 380.20208 -36.729688 
L 381.933323 -36.729688 
L 383.664566 -36.729688 
L 385.395809 -36.729688 
L 385.395809 -36.757231 
L 385.395809 -36.757231 
L 383.664566 -36.77136 
L 381.933323 -36.79179 
L 380.20208 -36.820855 
L 378.470837 -36.86154 
L 376.739594 -36.91757 
L 375.008351 -36.993493 
L 373.277108 -37.094717 
L 371.545865 -37.227508 
L 369.814622 -37.398922 
L 368.083379 -37.616658 
L 366.352136 -37.888834 
L 364.620894 -38.223673 
L 362.889651 -38.629125 
L 361.158408 -39.112431 
L 359.427165 -39.679672 
L 357.695922 -40.335353 
L 355.964679 -41.082057 
L 354.233436 -41.920237 
L 352.502193 -42.848184 
L 350.77095 -43.862207 
L 349.039707 -44.957037 
L 347.308464 -46.126444 
L 345.577221 -47.364014 
L 343.845978 -48.664024 
L 342.114735 -50.022317 
L 340.383492 -51.437056 
L 338.652249 -52.909263 
L 336.921006 -54.443027 
L 335.189763 -56.045329 
L 333.45852 -57.72544 
L 331.727277 -59.493927 
L 329.996034 -61.361333 
L 328.264791 -63.336664 
L 326.533548 -65.425836 
L 324.802306 -67.630271 
L 323.071063 -69.94583 
L 321.33982 -72.362229 
L 319.608577 -74.863077 
L 317.877334 -77.426572 
L 316.146091 -80.026854 
L 314.414848 -82.635916 
L 312.683605 -85.225914 
L 310.952362 -87.771668 
L 309.221119 -90.2531 
L 307.489876 -92.65736 
L 305.758633 -94.980412 
L 304.02739 -97.227886 
L 302.296147 -99.415089 
L 300.564904 -101.566147 
L 298.833661 -103.71231 
L 297.102418 -105.88959 
L 295.371175 -108.135903 
L 293.639932 -110.488005 
L 291.908689 -112.97846 
L 290.177446 -115.632945 
L 288.446203 -118.468102 
L 286.71496 -121.490139 
L 284.983718 -124.694271 
L 283.252475 -128.065041 
L 281.521232 -131.577466 
L 279.789989 -135.198874 
L 278.058746 -138.891261 
L 276.327503 -142.613939 
L 274.59626 -146.326244 
L 272.865017 -149.990091 
L 271.133774 -153.572181 
L 269.402531 -157.045713 
L 267.671288 -160.391532 
L 265.940045 -163.59867 
L 264.208802 -166.664312 
L 262.477559 -169.593251 
L 260.746316 -172.396931 
L 259.015073 -175.092172 
L 257.28383 -177.699716 
L 255.552587 -180.242662 
L 253.821344 -182.744915 
L 252.090101 -185.229698 
L 250.358858 -187.718196 
L 248.627615 -190.228381 
L 246.896372 -192.774039 
L 245.16513 -195.364024 
L 243.433887 -198.00175 
L 241.702644 -200.684926 
L 239.971401 -203.40552 
L 238.240158 -206.149947 
L 236.508915 -208.899459 
L 234.777672 -211.630722 
L 233.046429 -214.316551 
L 231.315186 -216.926788 
L 229.583943 -219.429301 
L 227.8527 -221.791069 
L 226.121457 -223.979325 
L 224.390214 -225.962718 
L 222.658971 -227.712442 
L 220.927728 -229.203267 
L 219.196485 -230.414409 
L 217.465242 -231.330181 
L 215.733999 -231.940366 
L 214.002756 -232.240288 
L 212.271513 -232.230569 
L 210.54027 -231.916616 
L 208.809027 -231.307884 
L 207.077784 -230.417012 
L 205.346542 -229.258909 
L 203.615299 -227.849908 
L 201.884056 -226.207035 
L 200.152813 -224.347449 
L 198.42157 -222.288062 
L 196.690327 -220.045318 
L 194.959084 -217.635061 
L 193.227841 -215.072463 
L 191.496598 -212.37193 
L 189.765355 -209.546967 
L 188.034112 -206.609984 
L 186.302869 -203.57208 
L 184.571626 -200.442843 
L 182.840383 -197.230241 
L 181.10914 -193.940656 
L 179.377897 -190.579108 
L 177.646654 -187.149684 
L 175.915411 -183.656129 
L 174.184168 -180.10255 
L 172.452925 -176.494132 
L 170.721682 -172.837756 
L 168.990439 -169.142429 
L 167.259196 -165.419443 
L 165.527954 -161.68223 
L 163.796711 -157.945915 
L 162.065468 -154.226616 
L 160.334225 -150.540591 
L 158.602982 -146.903329 
L 156.871739 -143.328695 
L 155.140496 -139.828252 
L 153.409253 -136.41081 
L 151.67801 -133.082254 
L 149.946767 -129.845642 
L 148.215524 -126.701536 
L 146.484281 -123.648502 
L 144.753038 -120.683687 
L 143.021795 -117.803408 
L 141.290552 -115.00366 
L 139.559309 -112.280513 
L 137.828066 -109.630355 
L 136.096823 -107.049987 
L 134.36558 -104.536599 
L 132.634337 -102.087642 
L 130.903094 -99.700663 
L 129.171851 -97.373125 
L 127.440608 -95.102267 
L 125.709366 -92.885016 
L 123.978123 -90.717973 
L 122.24688 -88.597472 
L 120.515637 -86.519713 
L 118.784394 -84.480936 
L 117.053151 -82.477626 
L 115.321908 -80.506724 
L 113.590665 -78.565797 
L 111.859422 -76.653174 
L 110.128179 -74.767999 
L 108.396936 -72.910199 
L 106.665693 -71.080382 
L 104.93445 -69.279644 
L 103.203207 -67.509344 
L 101.471964 -65.770854 
L 99.740721 -64.065339 
L 98.009478 -62.393592 
L 96.278235 -60.755983 
L 94.546992 -59.1525 
L 92.815749 -57.582929 
L 91.084506 -56.047118 
L 89.353263 -54.545309 
L 87.62202 -53.078479 
L 85.890778 -51.648637 
L 84.159535 -50.259025 
L 82.428292 -48.914169 
L 80.697049 -47.619775 
L 78.965806 -46.38246 
L 77.234563 -45.209338 
L 75.50332 -44.107518 
L 73.772077 -43.083549 
L 72.040834 -42.142905 
L 70.309591 -41.289532 
L 68.578348 -40.52553 
L 66.847105 -39.850988 
L 65.115862 -39.263973 
L 63.384619 -38.760685 
L 61.653376 -38.335718 
L 59.922133 -37.982428 
L 58.19089 -37.693333 
L 56.459647 -37.460523 
L 54.728404 -37.276046 
L 52.997161 -37.132229 
L 51.265918 -37.021932 
L 49.534675 -36.938723 
L 47.803432 -36.876978 
L 46.07219 -36.831913 
L 44.340947 -36.799563 
L 42.609704 -36.776724 
L 40.878461 -36.760866 
z
" style="stroke: #dd8452"/>
    </defs>
    <g>
     <use xlink:href="#mf02b99d0cf" x="0" y="265.689687" style="fill: #dd8452; fill-opacity: 0.25; stroke: #dd8452"/>
    </g>
   </g>
   <g id="FillBetweenPolyCollection_2">
    <defs>
     <path id="mf4754723b1" d="M 319.504056 -36.74097 
L 319.504056 -36.729688 
L 321.488697 -36.729688 
L 323.473338 -36.729688 
L 325.45798 -36.729688 
L 327.442621 -36.729688 
L 329.427262 -36.729688 
L 331.411904 -36.729688 
L 333.396545 -36.729688 
L 335.381186 -36.729688 
L 337.365828 -36.729688 
L 339.350469 -36.729688 
L 341.33511 -36.729688 
L 343.319751 -36.729688 
L 345.304393 -36.729688 
L 347.289034 -36.729688 
L 349.273675 -36.729688 
L 351.258317 -36.729688 
L 353.242958 -36.729688 
L 355.227599 -36.729688 
L 357.212241 -36.729688 
L 359.196882 -36.729688 
L 361.181523 -36.729688 
L 363.166164 -36.729688 
L 365.150806 -36.729688 
L 367.135447 -36.729688 
L 369.120088 -36.729688 
L 371.10473 -36.729688 
L 373.089371 -36.729688 
L 375.074012 -36.729688 
L 377.058654 -36.729688 
L 379.043295 -36.729688 
L 381.027936 -36.729688 
L 383.012577 -36.729688 
L 384.997219 -36.729688 
L 386.98186 -36.729688 
L 388.966501 -36.729688 
L 390.951143 -36.729688 
L 392.935784 -36.729688 
L 394.920425 -36.729688 
L 396.905066 -36.729688 
L 398.889708 -36.729688 
L 400.874349 -36.729688 
L 402.85899 -36.729688 
L 404.843632 -36.729688 
L 406.828273 -36.729688 
L 408.812914 -36.729688 
L 410.797556 -36.729688 
L 412.782197 -36.729688 
L 414.766838 -36.729688 
L 416.751479 -36.729688 
L 418.736121 -36.729688 
L 420.720762 -36.729688 
L 422.705403 -36.729688 
L 424.690045 -36.729688 
L 426.674686 -36.729688 
L 428.659327 -36.729688 
L 430.643969 -36.729688 
L 432.62861 -36.729688 
L 434.613251 -36.729688 
L 436.597892 -36.729688 
L 438.582534 -36.729688 
L 440.567175 -36.729688 
L 442.551816 -36.729688 
L 444.536458 -36.729688 
L 446.521099 -36.729688 
L 448.50574 -36.729688 
L 450.490382 -36.729688 
L 452.475023 -36.729688 
L 454.459664 -36.729688 
L 456.444305 -36.729688 
L 458.428947 -36.729688 
L 460.413588 -36.729688 
L 462.398229 -36.729688 
L 464.382871 -36.729688 
L 466.367512 -36.729688 
L 468.352153 -36.729688 
L 470.336794 -36.729688 
L 472.321436 -36.729688 
L 474.306077 -36.729688 
L 476.290718 -36.729688 
L 478.27536 -36.729688 
L 480.260001 -36.729688 
L 482.244642 -36.729688 
L 484.229284 -36.729688 
L 486.213925 -36.729688 
L 488.198566 -36.729688 
L 490.183207 -36.729688 
L 492.167849 -36.729688 
L 494.15249 -36.729688 
L 496.137131 -36.729688 
L 498.121773 -36.729688 
L 500.106414 -36.729688 
L 502.091055 -36.729688 
L 504.075697 -36.729688 
L 506.060338 -36.729688 
L 508.044979 -36.729688 
L 510.02962 -36.729688 
L 512.014262 -36.729688 
L 513.998903 -36.729688 
L 515.983544 -36.729688 
L 517.968186 -36.729688 
L 519.952827 -36.729688 
L 521.937468 -36.729688 
L 523.92211 -36.729688 
L 525.906751 -36.729688 
L 527.891392 -36.729688 
L 529.876033 -36.729688 
L 531.860675 -36.729688 
L 533.845316 -36.729688 
L 535.829957 -36.729688 
L 537.814599 -36.729688 
L 539.79924 -36.729688 
L 541.783881 -36.729688 
L 543.768522 -36.729688 
L 545.753164 -36.729688 
L 547.737805 -36.729688 
L 549.722446 -36.729688 
L 551.707088 -36.729688 
L 553.691729 -36.729688 
L 555.67637 -36.729688 
L 557.661012 -36.729688 
L 559.645653 -36.729688 
L 561.630294 -36.729688 
L 563.614935 -36.729688 
L 565.599577 -36.729688 
L 567.584218 -36.729688 
L 569.568859 -36.729688 
L 571.553501 -36.729688 
L 573.538142 -36.729688 
L 575.522783 -36.729688 
L 577.507425 -36.729688 
L 579.492066 -36.729688 
L 581.476707 -36.729688 
L 583.461348 -36.729688 
L 585.44599 -36.729688 
L 587.430631 -36.729688 
L 589.415272 -36.729688 
L 591.399914 -36.729688 
L 593.384555 -36.729688 
L 595.369196 -36.729688 
L 597.353838 -36.729688 
L 599.338479 -36.729688 
L 601.32312 -36.729688 
L 603.307761 -36.729688 
L 605.292403 -36.729688 
L 607.277044 -36.729688 
L 609.261685 -36.729688 
L 611.246327 -36.729688 
L 613.230968 -36.729688 
L 615.215609 -36.729688 
L 617.20025 -36.729688 
L 619.184892 -36.729688 
L 621.169533 -36.729688 
L 623.154174 -36.729688 
L 625.138816 -36.729688 
L 627.123457 -36.729688 
L 629.108098 -36.729688 
L 631.09274 -36.729688 
L 633.077381 -36.729688 
L 635.062022 -36.729688 
L 637.046663 -36.729688 
L 639.031305 -36.729688 
L 641.015946 -36.729688 
L 643.000587 -36.729688 
L 644.985229 -36.729688 
L 646.96987 -36.729688 
L 648.954511 -36.729688 
L 650.939153 -36.729688 
L 652.923794 -36.729688 
L 654.908435 -36.729688 
L 656.893076 -36.729688 
L 658.877718 -36.729688 
L 660.862359 -36.729688 
L 662.847 -36.729688 
L 664.831642 -36.729688 
L 666.816283 -36.729688 
L 668.800924 -36.729688 
L 670.785566 -36.729688 
L 672.770207 -36.729688 
L 674.754848 -36.729688 
L 676.739489 -36.729688 
L 678.724131 -36.729688 
L 680.708772 -36.729688 
L 682.693413 -36.729688 
L 684.678055 -36.729688 
L 686.662696 -36.729688 
L 688.647337 -36.729688 
L 690.631978 -36.729688 
L 692.61662 -36.729688 
L 694.601261 -36.729688 
L 696.585902 -36.729688 
L 698.570544 -36.729688 
L 700.555185 -36.729688 
L 702.539826 -36.729688 
L 704.524468 -36.729688 
L 706.509109 -36.729688 
L 708.49375 -36.729688 
L 710.478391 -36.729688 
L 712.463033 -36.729688 
L 714.447674 -36.729688 
L 714.447674 -36.74309 
L 714.447674 -36.74309 
L 712.463033 -36.751197 
L 710.478391 -36.763462 
L 708.49375 -36.781586 
L 706.509109 -36.807748 
L 704.524468 -36.844645 
L 702.539826 -36.895497 
L 700.555185 -36.963999 
L 698.570544 -37.054221 
L 696.585902 -37.170443 
L 694.601261 -37.316936 
L 692.61662 -37.497706 
L 690.631978 -37.716221 
L 688.647337 -37.975162 
L 686.662696 -38.276225 
L 684.678055 -38.619998 
L 682.693413 -39.005944 
L 680.708772 -39.43248 
L 678.724131 -39.897136 
L 676.739489 -40.396775 
L 674.754848 -40.927847 
L 672.770207 -41.486618 
L 670.785566 -42.069389 
L 668.800924 -42.672665 
L 666.816283 -43.293305 
L 664.831642 -43.928658 
L 662.847 -44.576714 
L 660.862359 -45.236276 
L 658.877718 -45.907179 
L 656.893076 -46.590516 
L 654.908435 -47.288865 
L 652.923794 -48.006481 
L 650.939153 -48.749409 
L 648.954511 -49.525518 
L 646.96987 -50.344422 
L 644.985229 -51.217322 
L 643.000587 -52.156776 
L 641.015946 -53.176415 
L 639.031305 -54.290628 
L 637.046663 -55.514223 
L 635.062022 -56.86204 
L 633.077381 -58.348532 
L 631.09274 -59.987276 
L 629.108098 -61.79044 
L 627.123457 -63.768229 
L 625.138816 -65.928349 
L 623.154174 -68.275558 
L 621.169533 -70.811358 
L 619.184892 -73.533883 
L 617.20025 -76.437992 
L 615.215609 -79.515546 
L 613.230968 -82.755818 
L 611.246327 -86.145952 
L 609.261685 -89.671384 
L 607.277044 -93.316166 
L 605.292403 -97.063161 
L 603.307761 -100.894141 
L 601.32312 -104.789864 
L 599.338479 -108.730251 
L 597.353838 -112.694776 
L 595.369196 -116.663161 
L 593.384555 -120.616401 
L 591.399914 -124.538035 
L 589.415272 -128.415511 
L 587.430631 -132.241387 
L 585.44599 -136.014131 
L 583.461348 -139.738283 
L 581.476707 -143.423875 
L 579.492066 -147.085148 
L 577.507425 -150.738766 
L 575.522783 -154.401835 
L 573.538142 -158.090104 
L 571.553501 -161.816653 
L 569.568859 -165.591251 
L 567.584218 -169.420349 
L 565.599577 -173.307503 
L 563.614935 -177.253854 
L 561.630294 -181.258298 
L 559.645653 -185.317064 
L 557.661012 -189.422641 
L 555.67637 -193.562244 
L 553.691729 -197.716265 
L 551.707088 -201.857252 
L 549.722446 -205.949968 
L 547.737805 -209.952864 
L 545.753164 -213.821009 
L 543.768522 -217.510154 
L 541.783881 -220.981301 
L 539.79924 -224.204981 
L 537.814599 -227.164417 
L 535.829957 -229.856958 
L 533.845316 -232.293476 
L 531.860675 -234.495802 
L 529.876033 -236.492618 
L 527.891392 -238.314493 
L 525.906751 -239.988818 
L 523.92211 -241.535361 
L 521.937468 -242.962952 
L 519.952827 -244.267564 
L 517.968186 -245.431794 
L 515.983544 -246.425542 
L 513.998903 -247.207595 
L 512.014262 -247.727814 
L 510.02962 -247.929688 
L 508.044979 -247.753143 
L 506.060338 -247.137585 
L 504.075697 -246.025168 
L 502.091055 -244.364286 
L 500.106414 -242.113153 
L 498.121773 -239.243231 
L 496.137131 -235.74214 
L 494.15249 -231.615664 
L 492.167849 -226.888495 
L 490.183207 -221.603515 
L 488.198566 -215.819629 
L 486.213925 -209.608373 
L 484.229284 -203.049741 
L 482.244642 -196.227754 
L 480.260001 -189.226331 
L 478.27536 -182.125872 
L 476.290718 -175.000848 
L 474.306077 -167.918419 
L 472.321436 -160.937977 
L 470.336794 -154.11134 
L 468.352153 -147.483271 
L 466.367512 -141.092054 
L 464.382871 -134.969878 
L 462.398229 -129.142968 
L 460.413588 -123.631457 
L 458.428947 -118.449135 
L 456.444305 -113.603235 
L 454.459664 -109.094452 
L 452.475023 -104.917318 
L 450.490382 -101.061 
L 448.50574 -97.510477 
L 446.521099 -94.247949 
L 444.536458 -91.254264 
L 442.551816 -88.510126 
L 440.567175 -85.996846 
L 438.582534 -83.69653 
L 436.597892 -81.59167 
L 434.613251 -79.664284 
L 432.62861 -77.894854 
L 430.643969 -76.261382 
L 428.659327 -74.738893 
L 426.674686 -73.299626 
L 424.690045 -71.914023 
L 422.705403 -70.552434 
L 420.720762 -69.187321 
L 418.736121 -67.795583 
L 416.751479 -66.36061 
L 414.766838 -64.873703 
L 412.782197 -63.334608 
L 410.797556 -61.751073 
L 408.812914 -60.137521 
L 406.828273 -58.513075 
L 404.843632 -56.899245 
L 402.85899 -55.31765 
L 400.874349 -53.788058 
L 398.889708 -52.326975 
L 396.905066 -50.94687 
L 394.920425 -49.65602 
L 392.935784 -48.458855 
L 390.951143 -47.356634 
L 388.966501 -46.348254 
L 386.98186 -45.431028 
L 384.997219 -44.601299 
L 383.012577 -43.854827 
L 381.027936 -43.186947 
L 379.043295 -42.592544 
L 377.058654 -42.06592 
L 375.074012 -41.600661 
L 373.089371 -41.189576 
L 371.10473 -40.824782 
L 369.120088 -40.497942 
L 367.135447 -40.200666 
L 365.150806 -39.925001 
L 363.166164 -39.663949 
L 361.181523 -39.411931 
L 359.196882 -39.165121 
L 357.212241 -38.921587 
L 355.227599 -38.681232 
L 353.242958 -38.445532 
L 351.258317 -38.217124 
L 349.273675 -37.999297 
L 347.289034 -37.795473 
L 345.304393 -37.608732 
L 343.319751 -37.441449 
L 341.33511 -37.295066 
L 339.350469 -37.170011 
L 337.365828 -37.06575 
L 335.381186 -36.980936 
L 333.396545 -36.913624 
L 331.411904 -36.861509 
L 329.427262 -36.822146 
L 327.442621 -36.79314 
L 325.45798 -36.772288 
L 323.473338 -36.757663 
L 321.488697 -36.747654 
L 319.504056 -36.74097 
z
" style="stroke: #4c72b0"/>
    </defs>
    <g>
     <use xlink:href="#mf4754723b1" x="0" y="265.689687" style="fill: #4c72b0; fill-opacity: 0.25; stroke: #4c72b0"/>
    </g>
   </g>
   <g id="line2d_31">
    <path d="M 163.482138 228.96 
L 163.482138 7.2 
" style="fill: none; stroke-dasharray: 2.96,1.28; stroke-dashoffset: 0; stroke: #d3d3d3; stroke-width: 0.8"/>
   </g>
   <g id="line2d_32">
    <path d="M 396.164576 228.96 
L 396.164576 7.2 
" style="fill: none; stroke-dasharray: 2.96,1.28; stroke-dashoffset: 0; stroke: #d3d3d3; stroke-width: 0.8"/>
   </g>
   <g id="line2d_33">
    <path d="M 296.688641 228.96 
L 296.688641 7.2 
" style="fill: none; stroke-dasharray: 2.96,1.28; stroke-dashoffset: 0; stroke: #d3d3d3; stroke-width: 0.8"/>
   </g>
   <g id="line2d_34">
    <path d="M 7.2 228.96 
L 844.2 228.96 
" style="fill: none; stroke: #808080; stroke-width: 0.5; stroke-linecap: round"/>
   </g>
   <g id="text_12">
    <text style="font-size: 8px; font-family: 'Arial', 'DejaVu Sans', 'Liberation Sans', 'Bitstream Vera Sans', sans-serif; fill: #808080" transform="translate(169.735888 124.59635) rotate(-90)">International Poverty Line: $3.00</text>
   </g>
   <g id="text_13">
    <text style="font-size: 8px; font-family: 'Arial', 'DejaVu Sans', 'Liberation Sans', 'Bitstream Vera Sans', sans-serif; fill: #808080" transform="translate(401.890826 81.31135) rotate(-90)">World mean: $21.85</text>
   </g>
   <g id="text_14">
    <text style="font-size: 8px; font-family: 'Arial', 'DejaVu Sans', 'Liberation Sans', 'Bitstream Vera Sans', sans-serif; fill: #808080" transform="translate(302.414891 83.08885) rotate(-90)">World median: $9.35</text>
   </g>
   <g id="legend_1">
    <g id="patch_3">
     <path d="M 683.8 102.466062 
L 756.364063 102.466062 
Q 758.364063 102.466062 758.364063 100.466062 
L 758.364063 58.552 
Q 758.364063 56.552 756.364063 56.552 
L 683.8 56.552 
Q 681.8 56.552 681.8 58.552 
L 681.8 100.466062 
Q 681.8 102.466062 683.8 102.466062 
z
" style="fill: #ffffff; opacity: 0.8; stroke: #cccccc; stroke-linejoin: miter"/>
    </g>
    <g id="text_15">
     <text style="font-size: 10px; font-family: 'Arial', 'DejaVu Sans', 'Liberation Sans', 'Bitstream Vera Sans', sans-serif; text-anchor: start; fill: #262626" x="702.575781" y="67.831687" transform="rotate(-0 702.575781 67.831687)">Country</text>
    </g>
    <g id="patch_4">
     <path d="M 685.8 82.094187 
L 705.8 82.094187 
L 705.8 75.094187 
L 685.8 75.094187 
z
" style="fill: #4c72b0; fill-opacity: 0.25; stroke: #4c72b0; stroke-linejoin: miter"/>
    </g>
    <g id="text_16">
     <text style="font-size: 10px; font-family: 'Arial', 'DejaVu Sans', 'Liberation Sans', 'Bitstream Vera Sans', sans-serif; text-anchor: start; fill: #262626" x="713.8" y="82.094187" transform="rotate(-0 713.8 82.094187)">Denmark</text>
    </g>
    <g id="patch_5">
     <path d="M 685.8 96.361375 
L 705.8 96.361375 
L 705.8 89.361375 
L 685.8 89.361375 
z
" style="fill: #dd8452; fill-opacity: 0.25; stroke: #dd8452; stroke-linejoin: miter"/>
    </g>
    <g id="text_17">
     <text style="font-size: 10px; font-family: 'Arial', 'DejaVu Sans', 'Liberation Sans', 'Bitstream Vera Sans', sans-serif; text-anchor: start; fill: #262626" x="713.8" y="96.361375" transform="rotate(-0 713.8 96.361375)">Syria</text>
    </g>
   </g>
  </g>
 </g>
</svg>
