<?xml version="1.0" encoding="utf-8" standalone="no"?>
<!DOCTYPE svg PUBLIC "-//W3C//DTD SVG 1.1//EN"
  "http://www.w3.org/Graphics/SVG/1.1/DTD/svg11.dtd">
<svg xmlns:xlink="http://www.w3.org/1999/xlink" width="1080pt" height="288pt" viewBox="0 0 1080 288" xmlns="http://www.w3.org/2000/svg" version="1.1">
 <metadata>
  <rdf:RDF xmlns:dc="http://purl.org/dc/elements/1.1/" xmlns:cc="http://creativecommons.org/ns#" xmlns:rdf="http://www.w3.org/1999/02/22-rdf-syntax-ns#">
   <cc:Work>
    <dc:type rdf:resource="http://purl.org/dc/dcmitype/StillImage"/>
    <dc:date>2025-04-07T12:04:14.409100</dc:date>
    <dc:format>image/svg+xml</dc:format>
    <dc:creator>
     <cc:Agent>
      <dc:title>Matplotlib v3.10.1, https://matplotlib.org/</dc:title>
     </cc:Agent>
    </dc:creator>
   </cc:Work>
  </rdf:RDF>
 </metadata>
 <defs>
  <style type="text/css">*{stroke-linejoin: round; stroke-linecap: butt}</style>
 </defs>
 <g id="figure_1">
  <g id="patch_1">
   <path d="M 0 288 
L 1080 288 
L 1080 0 
L 0 0 
z
" style="fill: #ffffff"/>
  </g>
  <g id="axes_1">
   <g id="patch_2">
    <path d="M 135 256.32 
L 972 256.32 
L 972 34.56 
L 135 34.56 
z
" style="fill: #ffffff"/>
   </g>
   <g id="matplotlib.axis_1">
    <g id="xtick_1">
     <g id="line2d_1">
      <defs>
       <path id="md4ef28d5cc" d="M 0 0 
L 0 3.5 
" style="stroke: #262626; stroke-width: 0.8"/>
      </defs>
      <g>
       <use xlink:href="#md4ef28d5cc" x="369.497237" y="256.32" style="fill: #262626; stroke: #262626; stroke-width: 0.8"/>
      </g>
     </g>
     <g id="text_1">
      <!-- 1 -->
      <g style="fill: #262626" transform="translate(366.716768 270.477813) scale(0.1 -0.1)">
       <defs>
        <path id="ArialMT-31" d="M 2384 0 
L 1822 0 
L 1822 3584 
Q 1619 3391 1289 3197 
Q 959 3003 697 2906 
L 697 3450 
Q 1169 3672 1522 3987 
Q 1875 4303 2022 4600 
L 2384 4600 
L 2384 0 
z
" transform="scale(0.015625)"/>
       </defs>
       <use xlink:href="#ArialMT-31"/>
      </g>
     </g>
    </g>
    <g id="xtick_2">
     <g id="line2d_2">
      <g>
       <use xlink:href="#md4ef28d5cc" x="428.717199" y="256.32" style="fill: #262626; stroke: #262626; stroke-width: 0.8"/>
      </g>
     </g>
     <g id="text_2">
      <!-- 2 -->
      <g style="fill: #262626" transform="translate(425.93673 270.477813) scale(0.1 -0.1)">
       <defs>
        <path id="ArialMT-32" d="M 3222 541 
L 3222 0 
L 194 0 
Q 188 203 259 391 
Q 375 700 629 1000 
Q 884 1300 1366 1694 
Q 2113 2306 2375 2664 
Q 2638 3022 2638 3341 
Q 2638 3675 2398 3904 
Q 2159 4134 1775 4134 
Q 1369 4134 1125 3890 
Q 881 3647 878 3216 
L 300 3275 
Q 359 3922 746 4261 
Q 1134 4600 1788 4600 
Q 2447 4600 2831 4234 
Q 3216 3869 3216 3328 
Q 3216 3053 3103 2787 
Q 2991 2522 2730 2228 
Q 2469 1934 1863 1422 
Q 1356 997 1212 845 
Q 1069 694 975 541 
L 3222 541 
z
" transform="scale(0.015625)"/>
       </defs>
       <use xlink:href="#ArialMT-32"/>
      </g>
     </g>
    </g>
    <g id="xtick_3">
     <g id="line2d_3">
      <g>
       <use xlink:href="#md4ef28d5cc" x="507.001731" y="256.32" style="fill: #262626; stroke: #262626; stroke-width: 0.8"/>
      </g>
     </g>
     <g id="text_3">
      <!-- 5 -->
      <g style="fill: #262626" transform="translate(504.221262 270.477813) scale(0.1 -0.1)">
       <defs>
        <path id="ArialMT-35" d="M 266 1200 
L 856 1250 
Q 922 819 1161 601 
Q 1400 384 1738 384 
Q 2144 384 2425 690 
Q 2706 997 2706 1503 
Q 2706 1984 2436 2262 
Q 2166 2541 1728 2541 
Q 1456 2541 1237 2417 
Q 1019 2294 894 2097 
L 366 2166 
L 809 4519 
L 3088 4519 
L 3088 3981 
L 1259 3981 
L 1013 2750 
Q 1425 3038 1878 3038 
Q 2478 3038 2890 2622 
Q 3303 2206 3303 1553 
Q 3303 931 2941 478 
Q 2500 -78 1738 -78 
Q 1113 -78 717 272 
Q 322 622 266 1200 
z
" transform="scale(0.015625)"/>
       </defs>
       <use xlink:href="#ArialMT-35"/>
      </g>
     </g>
    </g>
    <g id="xtick_4">
     <g id="line2d_4">
      <g>
       <use xlink:href="#md4ef28d5cc" x="566.221693" y="256.32" style="fill: #262626; stroke: #262626; stroke-width: 0.8"/>
      </g>
     </g>
     <g id="text_4">
      <!-- 10 -->
      <g style="fill: #262626" transform="translate(560.660755 270.477813) scale(0.1 -0.1)">
       <defs>
        <path id="ArialMT-30" d="M 266 2259 
Q 266 3072 433 3567 
Q 600 4063 929 4331 
Q 1259 4600 1759 4600 
Q 2128 4600 2406 4451 
Q 2684 4303 2865 4023 
Q 3047 3744 3150 3342 
Q 3253 2941 3253 2259 
Q 3253 1453 3087 958 
Q 2922 463 2592 192 
Q 2263 -78 1759 -78 
Q 1097 -78 719 397 
Q 266 969 266 2259 
z
M 844 2259 
Q 844 1131 1108 757 
Q 1372 384 1759 384 
Q 2147 384 2411 759 
Q 2675 1134 2675 2259 
Q 2675 3391 2411 3762 
Q 2147 4134 1753 4134 
Q 1366 4134 1134 3806 
Q 844 3388 844 2259 
z
" transform="scale(0.015625)"/>
       </defs>
       <use xlink:href="#ArialMT-31"/>
       <use xlink:href="#ArialMT-30" transform="translate(55.615234 0)"/>
      </g>
     </g>
    </g>
    <g id="xtick_5">
     <g id="line2d_5">
      <g>
       <use xlink:href="#md4ef28d5cc" x="625.441655" y="256.32" style="fill: #262626; stroke: #262626; stroke-width: 0.8"/>
      </g>
     </g>
     <g id="text_5">
      <!-- 20 -->
      <g style="fill: #262626" transform="translate(619.880717 270.477813) scale(0.1 -0.1)">
       <use xlink:href="#ArialMT-32"/>
       <use xlink:href="#ArialMT-30" transform="translate(55.615234 0)"/>
      </g>
     </g>
    </g>
    <g id="xtick_6">
     <g id="line2d_6">
      <g>
       <use xlink:href="#md4ef28d5cc" x="703.726186" y="256.32" style="fill: #262626; stroke: #262626; stroke-width: 0.8"/>
      </g>
     </g>
     <g id="text_6">
      <!-- 50 -->
      <g style="fill: #262626" transform="translate(698.165249 270.477813) scale(0.1 -0.1)">
       <use xlink:href="#ArialMT-35"/>
       <use xlink:href="#ArialMT-30" transform="translate(55.615234 0)"/>
      </g>
     </g>
    </g>
    <g id="xtick_7">
     <g id="line2d_7">
      <g>
       <use xlink:href="#md4ef28d5cc" x="762.946148" y="256.32" style="fill: #262626; stroke: #262626; stroke-width: 0.8"/>
      </g>
     </g>
     <g id="text_7">
      <!-- 100 -->
      <g style="fill: #262626" transform="translate(754.604742 270.477813) scale(0.1 -0.1)">
       <use xlink:href="#ArialMT-31"/>
       <use xlink:href="#ArialMT-30" transform="translate(55.615234 0)"/>
       <use xlink:href="#ArialMT-30" transform="translate(111.230469 0)"/>
      </g>
     </g>
    </g>
    <g id="xtick_8">
     <g id="line2d_8">
      <g>
       <use xlink:href="#md4ef28d5cc" x="822.16611" y="256.32" style="fill: #262626; stroke: #262626; stroke-width: 0.8"/>
      </g>
     </g>
     <g id="text_8">
      <!-- 200 -->
      <g style="fill: #262626" transform="translate(813.824704 270.477813) scale(0.1 -0.1)">
       <use xlink:href="#ArialMT-32"/>
       <use xlink:href="#ArialMT-30" transform="translate(55.615234 0)"/>
       <use xlink:href="#ArialMT-30" transform="translate(111.230469 0)"/>
      </g>
     </g>
    </g>
    <g id="xtick_9">
     <g id="line2d_9">
      <g>
       <use xlink:href="#md4ef28d5cc" x="900.450642" y="256.32" style="fill: #262626; stroke: #262626; stroke-width: 0.8"/>
      </g>
     </g>
     <g id="text_9">
      <!-- 500 -->
      <g style="fill: #262626" transform="translate(892.109236 270.477813) scale(0.1 -0.1)">
       <use xlink:href="#ArialMT-35"/>
       <use xlink:href="#ArialMT-30" transform="translate(55.615234 0)"/>
       <use xlink:href="#ArialMT-30" transform="translate(111.230469 0)"/>
      </g>
     </g>
    </g>
    <g id="xtick_10">
     <g id="line2d_10">
      <g>
       <use xlink:href="#md4ef28d5cc" x="959.670604" y="256.32" style="fill: #262626; stroke: #262626; stroke-width: 0.8"/>
      </g>
     </g>
     <g id="text_10">
      <!-- 1000 -->
      <g style="fill: #262626" transform="translate(948.548729 270.477813) scale(0.1 -0.1)">
       <use xlink:href="#ArialMT-31"/>
       <use xlink:href="#ArialMT-30" transform="translate(55.615234 0)"/>
       <use xlink:href="#ArialMT-30" transform="translate(111.230469 0)"/>
       <use xlink:href="#ArialMT-30" transform="translate(166.845703 0)"/>
      </g>
     </g>
    </g>
    <g id="xtick_11">
     <g id="line2d_11">
      <defs>
       <path id="md47b106ae0" d="M 0 0 
L 0 2 
" style="stroke: #262626; stroke-width: 0.6"/>
      </defs>
      <g>
       <use xlink:href="#md47b106ae0" x="142.299778" y="256.32" style="fill: #262626; stroke: #262626; stroke-width: 0.6"/>
      </g>
     </g>
    </g>
    <g id="xtick_12">
     <g id="line2d_12">
      <g>
       <use xlink:href="#md47b106ae0" x="153.708212" y="256.32" style="fill: #262626; stroke: #262626; stroke-width: 0.6"/>
      </g>
     </g>
    </g>
    <g id="xtick_13">
     <g id="line2d_13">
      <g>
       <use xlink:href="#md47b106ae0" x="163.771164" y="256.32" style="fill: #262626; stroke: #262626; stroke-width: 0.6"/>
      </g>
     </g>
    </g>
    <g id="xtick_14">
     <g id="line2d_14">
      <g>
       <use xlink:href="#md47b106ae0" x="231.992744" y="256.32" style="fill: #262626; stroke: #262626; stroke-width: 0.6"/>
      </g>
     </g>
    </g>
    <g id="xtick_15">
     <g id="line2d_15">
      <g>
       <use xlink:href="#md47b106ae0" x="266.634201" y="256.32" style="fill: #262626; stroke: #262626; stroke-width: 0.6"/>
      </g>
     </g>
    </g>
    <g id="xtick_16">
     <g id="line2d_16">
      <g>
       <use xlink:href="#md47b106ae0" x="291.212706" y="256.32" style="fill: #262626; stroke: #262626; stroke-width: 0.6"/>
      </g>
     </g>
    </g>
    <g id="xtick_17">
     <g id="line2d_17">
      <g>
       <use xlink:href="#md47b106ae0" x="310.277275" y="256.32" style="fill: #262626; stroke: #262626; stroke-width: 0.6"/>
      </g>
     </g>
    </g>
    <g id="xtick_18">
     <g id="line2d_18">
      <g>
       <use xlink:href="#md47b106ae0" x="325.854163" y="256.32" style="fill: #262626; stroke: #262626; stroke-width: 0.6"/>
      </g>
     </g>
    </g>
    <g id="xtick_19">
     <g id="line2d_19">
      <g>
       <use xlink:href="#md47b106ae0" x="339.024233" y="256.32" style="fill: #262626; stroke: #262626; stroke-width: 0.6"/>
      </g>
     </g>
    </g>
    <g id="xtick_20">
     <g id="line2d_20">
      <g>
       <use xlink:href="#md47b106ae0" x="350.432668" y="256.32" style="fill: #262626; stroke: #262626; stroke-width: 0.6"/>
      </g>
     </g>
    </g>
    <g id="xtick_21">
     <g id="line2d_21">
      <g>
       <use xlink:href="#md47b106ae0" x="360.49562" y="256.32" style="fill: #262626; stroke: #262626; stroke-width: 0.6"/>
      </g>
     </g>
    </g>
    <g id="xtick_22">
     <g id="line2d_22">
      <g>
       <use xlink:href="#md47b106ae0" x="463.358656" y="256.32" style="fill: #262626; stroke: #262626; stroke-width: 0.6"/>
      </g>
     </g>
    </g>
    <g id="xtick_23">
     <g id="line2d_23">
      <g>
       <use xlink:href="#md47b106ae0" x="487.937161" y="256.32" style="fill: #262626; stroke: #262626; stroke-width: 0.6"/>
      </g>
     </g>
    </g>
    <g id="xtick_24">
     <g id="line2d_24">
      <g>
       <use xlink:href="#md47b106ae0" x="522.578618" y="256.32" style="fill: #262626; stroke: #262626; stroke-width: 0.6"/>
      </g>
     </g>
    </g>
    <g id="xtick_25">
     <g id="line2d_25">
      <g>
       <use xlink:href="#md47b106ae0" x="535.748689" y="256.32" style="fill: #262626; stroke: #262626; stroke-width: 0.6"/>
      </g>
     </g>
    </g>
    <g id="xtick_26">
     <g id="line2d_26">
      <g>
       <use xlink:href="#md47b106ae0" x="547.157123" y="256.32" style="fill: #262626; stroke: #262626; stroke-width: 0.6"/>
      </g>
     </g>
    </g>
    <g id="xtick_27">
     <g id="line2d_27">
      <g>
       <use xlink:href="#md47b106ae0" x="557.220075" y="256.32" style="fill: #262626; stroke: #262626; stroke-width: 0.6"/>
      </g>
     </g>
    </g>
    <g id="xtick_28">
     <g id="line2d_28">
      <g>
       <use xlink:href="#md47b106ae0" x="660.083112" y="256.32" style="fill: #262626; stroke: #262626; stroke-width: 0.6"/>
      </g>
     </g>
    </g>
    <g id="xtick_29">
     <g id="line2d_29">
      <g>
       <use xlink:href="#md47b106ae0" x="684.661617" y="256.32" style="fill: #262626; stroke: #262626; stroke-width: 0.6"/>
      </g>
     </g>
    </g>
    <g id="xtick_30">
     <g id="line2d_30">
      <g>
       <use xlink:href="#md47b106ae0" x="719.303074" y="256.32" style="fill: #262626; stroke: #262626; stroke-width: 0.6"/>
      </g>
     </g>
    </g>
    <g id="xtick_31">
     <g id="line2d_31">
      <g>
       <use xlink:href="#md47b106ae0" x="732.473145" y="256.32" style="fill: #262626; stroke: #262626; stroke-width: 0.6"/>
      </g>
     </g>
    </g>
    <g id="xtick_32">
     <g id="line2d_32">
      <g>
       <use xlink:href="#md47b106ae0" x="743.881579" y="256.32" style="fill: #262626; stroke: #262626; stroke-width: 0.6"/>
      </g>
     </g>
    </g>
    <g id="xtick_33">
     <g id="line2d_33">
      <g>
       <use xlink:href="#md47b106ae0" x="753.944531" y="256.32" style="fill: #262626; stroke: #262626; stroke-width: 0.6"/>
      </g>
     </g>
    </g>
    <g id="xtick_34">
     <g id="line2d_34">
      <g>
       <use xlink:href="#md47b106ae0" x="856.807568" y="256.32" style="fill: #262626; stroke: #262626; stroke-width: 0.6"/>
      </g>
     </g>
    </g>
    <g id="xtick_35">
     <g id="line2d_35">
      <g>
       <use xlink:href="#md47b106ae0" x="881.386072" y="256.32" style="fill: #262626; stroke: #262626; stroke-width: 0.6"/>
      </g>
     </g>
    </g>
    <g id="xtick_36">
     <g id="line2d_36">
      <g>
       <use xlink:href="#md47b106ae0" x="916.02753" y="256.32" style="fill: #262626; stroke: #262626; stroke-width: 0.6"/>
      </g>
     </g>
    </g>
    <g id="xtick_37">
     <g id="line2d_37">
      <g>
       <use xlink:href="#md47b106ae0" x="929.1976" y="256.32" style="fill: #262626; stroke: #262626; stroke-width: 0.6"/>
      </g>
     </g>
    </g>
    <g id="xtick_38">
     <g id="line2d_38">
      <g>
       <use xlink:href="#md47b106ae0" x="940.606035" y="256.32" style="fill: #262626; stroke: #262626; stroke-width: 0.6"/>
      </g>
     </g>
    </g>
    <g id="xtick_39">
     <g id="line2d_39">
      <g>
       <use xlink:href="#md47b106ae0" x="950.668987" y="256.32" style="fill: #262626; stroke: #262626; stroke-width: 0.6"/>
      </g>
     </g>
    </g>
    <g id="text_11">
     <!-- Income or consumption (day) -->
     <g style="fill: #262626" transform="translate(488.753906 283.745) scale(0.1 -0.1)">
      <defs>
       <path id="ArialMT-49" d="M 597 0 
L 597 4581 
L 1203 4581 
L 1203 0 
L 597 0 
z
" transform="scale(0.015625)"/>
       <path id="ArialMT-6e" d="M 422 0 
L 422 3319 
L 928 3319 
L 928 2847 
Q 1294 3394 1984 3394 
Q 2284 3394 2536 3286 
Q 2788 3178 2913 3003 
Q 3038 2828 3088 2588 
Q 3119 2431 3119 2041 
L 3119 0 
L 2556 0 
L 2556 2019 
Q 2556 2363 2490 2533 
Q 2425 2703 2258 2804 
Q 2091 2906 1866 2906 
Q 1506 2906 1245 2678 
Q 984 2450 984 1813 
L 984 0 
L 422 0 
z
" transform="scale(0.015625)"/>
       <path id="ArialMT-63" d="M 2588 1216 
L 3141 1144 
Q 3050 572 2676 248 
Q 2303 -75 1759 -75 
Q 1078 -75 664 370 
Q 250 816 250 1647 
Q 250 2184 428 2587 
Q 606 2991 970 3192 
Q 1334 3394 1763 3394 
Q 2303 3394 2647 3120 
Q 2991 2847 3088 2344 
L 2541 2259 
Q 2463 2594 2264 2762 
Q 2066 2931 1784 2931 
Q 1359 2931 1093 2626 
Q 828 2322 828 1663 
Q 828 994 1084 691 
Q 1341 388 1753 388 
Q 2084 388 2306 591 
Q 2528 794 2588 1216 
z
" transform="scale(0.015625)"/>
       <path id="ArialMT-6f" d="M 213 1659 
Q 213 2581 725 3025 
Q 1153 3394 1769 3394 
Q 2453 3394 2887 2945 
Q 3322 2497 3322 1706 
Q 3322 1066 3130 698 
Q 2938 331 2570 128 
Q 2203 -75 1769 -75 
Q 1072 -75 642 372 
Q 213 819 213 1659 
z
M 791 1659 
Q 791 1022 1069 705 
Q 1347 388 1769 388 
Q 2188 388 2466 706 
Q 2744 1025 2744 1678 
Q 2744 2294 2464 2611 
Q 2184 2928 1769 2928 
Q 1347 2928 1069 2612 
Q 791 2297 791 1659 
z
" transform="scale(0.015625)"/>
       <path id="ArialMT-6d" d="M 422 0 
L 422 3319 
L 925 3319 
L 925 2853 
Q 1081 3097 1340 3245 
Q 1600 3394 1931 3394 
Q 2300 3394 2536 3241 
Q 2772 3088 2869 2813 
Q 3263 3394 3894 3394 
Q 4388 3394 4653 3120 
Q 4919 2847 4919 2278 
L 4919 0 
L 4359 0 
L 4359 2091 
Q 4359 2428 4304 2576 
Q 4250 2725 4106 2815 
Q 3963 2906 3769 2906 
Q 3419 2906 3187 2673 
Q 2956 2441 2956 1928 
L 2956 0 
L 2394 0 
L 2394 2156 
Q 2394 2531 2256 2718 
Q 2119 2906 1806 2906 
Q 1569 2906 1367 2781 
Q 1166 2656 1075 2415 
Q 984 2175 984 1722 
L 984 0 
L 422 0 
z
" transform="scale(0.015625)"/>
       <path id="ArialMT-65" d="M 2694 1069 
L 3275 997 
Q 3138 488 2766 206 
Q 2394 -75 1816 -75 
Q 1088 -75 661 373 
Q 234 822 234 1631 
Q 234 2469 665 2931 
Q 1097 3394 1784 3394 
Q 2450 3394 2872 2941 
Q 3294 2488 3294 1666 
Q 3294 1616 3291 1516 
L 816 1516 
Q 847 969 1125 678 
Q 1403 388 1819 388 
Q 2128 388 2347 550 
Q 2566 713 2694 1069 
z
M 847 1978 
L 2700 1978 
Q 2663 2397 2488 2606 
Q 2219 2931 1791 2931 
Q 1403 2931 1139 2672 
Q 875 2413 847 1978 
z
" transform="scale(0.015625)"/>
       <path id="ArialMT-20" transform="scale(0.015625)"/>
       <path id="ArialMT-72" d="M 416 0 
L 416 3319 
L 922 3319 
L 922 2816 
Q 1116 3169 1280 3281 
Q 1444 3394 1641 3394 
Q 1925 3394 2219 3213 
L 2025 2691 
Q 1819 2813 1613 2813 
Q 1428 2813 1281 2702 
Q 1134 2591 1072 2394 
Q 978 2094 978 1738 
L 978 0 
L 416 0 
z
" transform="scale(0.015625)"/>
       <path id="ArialMT-73" d="M 197 991 
L 753 1078 
Q 800 744 1014 566 
Q 1228 388 1613 388 
Q 2000 388 2187 545 
Q 2375 703 2375 916 
Q 2375 1106 2209 1216 
Q 2094 1291 1634 1406 
Q 1016 1563 777 1677 
Q 538 1791 414 1992 
Q 291 2194 291 2438 
Q 291 2659 392 2848 
Q 494 3038 669 3163 
Q 800 3259 1026 3326 
Q 1253 3394 1513 3394 
Q 1903 3394 2198 3281 
Q 2494 3169 2634 2976 
Q 2775 2784 2828 2463 
L 2278 2388 
Q 2241 2644 2061 2787 
Q 1881 2931 1553 2931 
Q 1166 2931 1000 2803 
Q 834 2675 834 2503 
Q 834 2394 903 2306 
Q 972 2216 1119 2156 
Q 1203 2125 1616 2013 
Q 2213 1853 2448 1751 
Q 2684 1650 2818 1456 
Q 2953 1263 2953 975 
Q 2953 694 2789 445 
Q 2625 197 2315 61 
Q 2006 -75 1616 -75 
Q 969 -75 630 194 
Q 291 463 197 991 
z
" transform="scale(0.015625)"/>
       <path id="ArialMT-75" d="M 2597 0 
L 2597 488 
Q 2209 -75 1544 -75 
Q 1250 -75 995 37 
Q 741 150 617 320 
Q 494 491 444 738 
Q 409 903 409 1263 
L 409 3319 
L 972 3319 
L 972 1478 
Q 972 1038 1006 884 
Q 1059 663 1231 536 
Q 1403 409 1656 409 
Q 1909 409 2131 539 
Q 2353 669 2445 892 
Q 2538 1116 2538 1541 
L 2538 3319 
L 3100 3319 
L 3100 0 
L 2597 0 
z
" transform="scale(0.015625)"/>
       <path id="ArialMT-70" d="M 422 -1272 
L 422 3319 
L 934 3319 
L 934 2888 
Q 1116 3141 1344 3267 
Q 1572 3394 1897 3394 
Q 2322 3394 2647 3175 
Q 2972 2956 3137 2557 
Q 3303 2159 3303 1684 
Q 3303 1175 3120 767 
Q 2938 359 2589 142 
Q 2241 -75 1856 -75 
Q 1575 -75 1351 44 
Q 1128 163 984 344 
L 984 -1272 
L 422 -1272 
z
M 931 1641 
Q 931 1000 1190 694 
Q 1450 388 1819 388 
Q 2194 388 2461 705 
Q 2728 1022 2728 1688 
Q 2728 2322 2467 2637 
Q 2206 2953 1844 2953 
Q 1484 2953 1207 2617 
Q 931 2281 931 1641 
z
" transform="scale(0.015625)"/>
       <path id="ArialMT-74" d="M 1650 503 
L 1731 6 
Q 1494 -44 1306 -44 
Q 1000 -44 831 53 
Q 663 150 594 308 
Q 525 466 525 972 
L 525 2881 
L 113 2881 
L 113 3319 
L 525 3319 
L 525 4141 
L 1084 4478 
L 1084 3319 
L 1650 3319 
L 1650 2881 
L 1084 2881 
L 1084 941 
Q 1084 700 1114 631 
Q 1144 563 1211 522 
Q 1278 481 1403 481 
Q 1497 481 1650 503 
z
" transform="scale(0.015625)"/>
       <path id="ArialMT-69" d="M 425 3934 
L 425 4581 
L 988 4581 
L 988 3934 
L 425 3934 
z
M 425 0 
L 425 3319 
L 988 3319 
L 988 0 
L 425 0 
z
" transform="scale(0.015625)"/>
       <path id="ArialMT-28" d="M 1497 -1347 
Q 1031 -759 709 28 
Q 388 816 388 1659 
Q 388 2403 628 3084 
Q 909 3875 1497 4659 
L 1900 4659 
Q 1522 4009 1400 3731 
Q 1209 3300 1100 2831 
Q 966 2247 966 1656 
Q 966 153 1900 -1347 
L 1497 -1347 
z
" transform="scale(0.015625)"/>
       <path id="ArialMT-64" d="M 2575 0 
L 2575 419 
Q 2259 -75 1647 -75 
Q 1250 -75 917 144 
Q 584 363 401 755 
Q 219 1147 219 1656 
Q 219 2153 384 2558 
Q 550 2963 881 3178 
Q 1213 3394 1622 3394 
Q 1922 3394 2156 3267 
Q 2391 3141 2538 2938 
L 2538 4581 
L 3097 4581 
L 3097 0 
L 2575 0 
z
M 797 1656 
Q 797 1019 1065 703 
Q 1334 388 1700 388 
Q 2069 388 2326 689 
Q 2584 991 2584 1609 
Q 2584 2291 2321 2609 
Q 2059 2928 1675 2928 
Q 1300 2928 1048 2622 
Q 797 2316 797 1656 
z
" transform="scale(0.015625)"/>
       <path id="ArialMT-61" d="M 2588 409 
Q 2275 144 1986 34 
Q 1697 -75 1366 -75 
Q 819 -75 525 192 
Q 231 459 231 875 
Q 231 1119 342 1320 
Q 453 1522 633 1644 
Q 813 1766 1038 1828 
Q 1203 1872 1538 1913 
Q 2219 1994 2541 2106 
Q 2544 2222 2544 2253 
Q 2544 2597 2384 2738 
Q 2169 2928 1744 2928 
Q 1347 2928 1158 2789 
Q 969 2650 878 2297 
L 328 2372 
Q 403 2725 575 2942 
Q 747 3159 1072 3276 
Q 1397 3394 1825 3394 
Q 2250 3394 2515 3294 
Q 2781 3194 2906 3042 
Q 3031 2891 3081 2659 
Q 3109 2516 3109 2141 
L 3109 1391 
Q 3109 606 3145 398 
Q 3181 191 3288 0 
L 2700 0 
Q 2613 175 2588 409 
z
M 2541 1666 
Q 2234 1541 1622 1453 
Q 1275 1403 1131 1340 
Q 988 1278 909 1158 
Q 831 1038 831 891 
Q 831 666 1001 516 
Q 1172 366 1500 366 
Q 1825 366 2078 508 
Q 2331 650 2450 897 
Q 2541 1088 2541 1459 
L 2541 1666 
z
" transform="scale(0.015625)"/>
       <path id="ArialMT-79" d="M 397 -1278 
L 334 -750 
Q 519 -800 656 -800 
Q 844 -800 956 -737 
Q 1069 -675 1141 -563 
Q 1194 -478 1313 -144 
Q 1328 -97 1363 -6 
L 103 3319 
L 709 3319 
L 1400 1397 
Q 1534 1031 1641 628 
Q 1738 1016 1872 1384 
L 2581 3319 
L 3144 3319 
L 1881 -56 
Q 1678 -603 1566 -809 
Q 1416 -1088 1222 -1217 
Q 1028 -1347 759 -1347 
Q 597 -1347 397 -1278 
z
" transform="scale(0.015625)"/>
       <path id="ArialMT-29" d="M 791 -1347 
L 388 -1347 
Q 1322 153 1322 1656 
Q 1322 2244 1188 2822 
Q 1081 3291 891 3722 
Q 769 4003 388 4659 
L 791 4659 
Q 1378 3875 1659 3084 
Q 1900 2403 1900 1659 
Q 1900 816 1576 28 
Q 1253 -759 791 -1347 
z
" transform="scale(0.015625)"/>
      </defs>
      <use xlink:href="#ArialMT-49"/>
      <use xlink:href="#ArialMT-6e" transform="translate(27.783203 0)"/>
      <use xlink:href="#ArialMT-63" transform="translate(83.398438 0)"/>
      <use xlink:href="#ArialMT-6f" transform="translate(133.398438 0)"/>
      <use xlink:href="#ArialMT-6d" transform="translate(189.013672 0)"/>
      <use xlink:href="#ArialMT-65" transform="translate(272.314453 0)"/>
      <use xlink:href="#ArialMT-20" transform="translate(327.929688 0)"/>
      <use xlink:href="#ArialMT-6f" transform="translate(355.712891 0)"/>
      <use xlink:href="#ArialMT-72" transform="translate(411.328125 0)"/>
      <use xlink:href="#ArialMT-20" transform="translate(444.628906 0)"/>
      <use xlink:href="#ArialMT-63" transform="translate(472.412109 0)"/>
      <use xlink:href="#ArialMT-6f" transform="translate(522.412109 0)"/>
      <use xlink:href="#ArialMT-6e" transform="translate(578.027344 0)"/>
      <use xlink:href="#ArialMT-73" transform="translate(633.642578 0)"/>
      <use xlink:href="#ArialMT-75" transform="translate(683.642578 0)"/>
      <use xlink:href="#ArialMT-6d" transform="translate(739.257812 0)"/>
      <use xlink:href="#ArialMT-70" transform="translate(822.558594 0)"/>
      <use xlink:href="#ArialMT-74" transform="translate(878.173828 0)"/>
      <use xlink:href="#ArialMT-69" transform="translate(905.957031 0)"/>
      <use xlink:href="#ArialMT-6f" transform="translate(928.173828 0)"/>
      <use xlink:href="#ArialMT-6e" transform="translate(983.789062 0)"/>
      <use xlink:href="#ArialMT-20" transform="translate(1039.404297 0)"/>
      <use xlink:href="#ArialMT-28" transform="translate(1067.1875 0)"/>
      <use xlink:href="#ArialMT-64" transform="translate(1100.488281 0)"/>
      <use xlink:href="#ArialMT-61" transform="translate(1156.103516 0)"/>
      <use xlink:href="#ArialMT-79" transform="translate(1211.71875 0)"/>
      <use xlink:href="#ArialMT-29" transform="translate(1261.71875 0)"/>
     </g>
    </g>
   </g>
   <g id="matplotlib.axis_2"/>
   <g id="FillBetweenPolyCollection_1">
    <defs>
     <path id="m44123f264b" d="M 173.045455 -31.751702 
L 173.045455 -31.68 
L 175.647295 -31.68 
L 178.249135 -31.68 
L 180.850975 -31.68 
L 183.452815 -31.68 
L 186.054655 -31.68 
L 188.656495 -31.68 
L 191.258335 -31.68 
L 193.860176 -31.68 
L 196.462016 -31.68 
L 199.063856 -31.68 
L 201.665696 -31.68 
L 204.267536 -31.68 
L 206.869376 -31.68 
L 209.471216 -31.68 
L 212.073056 -31.68 
L 214.674897 -31.68 
L 217.276737 -31.68 
L 219.878577 -31.68 
L 222.480417 -31.68 
L 225.082257 -31.68 
L 227.684097 -31.68 
L 230.285937 -31.68 
L 232.887777 -31.68 
L 235.489618 -31.68 
L 238.091458 -31.68 
L 240.693298 -31.68 
L 243.295138 -31.68 
L 245.896978 -31.68 
L 248.498818 -31.68 
L 251.100658 -31.68 
L 253.702498 -31.68 
L 256.304339 -31.68 
L 258.906179 -31.68 
L 261.508019 -31.68 
L 264.109859 -31.68 
L 266.711699 -31.68 
L 269.313539 -31.68 
L 271.915379 -31.68 
L 274.517219 -31.68 
L 277.119059 -31.68 
L 279.7209 -31.68 
L 282.32274 -31.68 
L 284.92458 -31.68 
L 287.52642 -31.68 
L 290.12826 -31.68 
L 292.7301 -31.68 
L 295.33194 -31.68 
L 297.93378 -31.68 
L 300.535621 -31.68 
L 303.137461 -31.68 
L 305.739301 -31.68 
L 308.341141 -31.68 
L 310.942981 -31.68 
L 313.544821 -31.68 
L 316.146661 -31.68 
L 318.748501 -31.68 
L 321.350342 -31.68 
L 323.952182 -31.68 
L 326.554022 -31.68 
L 329.155862 -31.68 
L 331.757702 -31.68 
L 334.359542 -31.68 
L 336.961382 -31.68 
L 339.563222 -31.68 
L 342.165063 -31.68 
L 344.766903 -31.68 
L 347.368743 -31.68 
L 349.970583 -31.68 
L 352.572423 -31.68 
L 355.174263 -31.68 
L 357.776103 -31.68 
L 360.377943 -31.68 
L 362.979784 -31.68 
L 365.581624 -31.68 
L 368.183464 -31.68 
L 370.785304 -31.68 
L 373.387144 -31.68 
L 375.988984 -31.68 
L 378.590824 -31.68 
L 381.192664 -31.68 
L 383.794505 -31.68 
L 386.396345 -31.68 
L 388.998185 -31.68 
L 391.600025 -31.68 
L 394.201865 -31.68 
L 396.803705 -31.68 
L 399.405545 -31.68 
L 402.007385 -31.68 
L 404.609226 -31.68 
L 407.211066 -31.68 
L 409.812906 -31.68 
L 412.414746 -31.68 
L 415.016586 -31.68 
L 417.618426 -31.68 
L 420.220266 -31.68 
L 422.822106 -31.68 
L 425.423947 -31.68 
L 428.025787 -31.68 
L 430.627627 -31.68 
L 433.229467 -31.68 
L 435.831307 -31.68 
L 438.433147 -31.68 
L 441.034987 -31.68 
L 443.636827 -31.68 
L 446.238668 -31.68 
L 448.840508 -31.68 
L 451.442348 -31.68 
L 454.044188 -31.68 
L 456.646028 -31.68 
L 459.247868 -31.68 
L 461.849708 -31.68 
L 464.451548 -31.68 
L 467.053389 -31.68 
L 469.655229 -31.68 
L 472.257069 -31.68 
L 474.858909 -31.68 
L 477.460749 -31.68 
L 480.062589 -31.68 
L 482.664429 -31.68 
L 485.266269 -31.68 
L 487.86811 -31.68 
L 490.46995 -31.68 
L 493.07179 -31.68 
L 495.67363 -31.68 
L 498.27547 -31.68 
L 500.87731 -31.68 
L 503.47915 -31.68 
L 506.08099 -31.68 
L 508.682831 -31.68 
L 511.284671 -31.68 
L 513.886511 -31.68 
L 516.488351 -31.68 
L 519.090191 -31.68 
L 521.692031 -31.68 
L 524.293871 -31.68 
L 526.895711 -31.68 
L 529.497551 -31.68 
L 532.099392 -31.68 
L 534.701232 -31.68 
L 537.303072 -31.68 
L 539.904912 -31.68 
L 542.506752 -31.68 
L 545.108592 -31.68 
L 547.710432 -31.68 
L 550.312272 -31.68 
L 552.914113 -31.68 
L 555.515953 -31.68 
L 558.117793 -31.68 
L 560.719633 -31.68 
L 563.321473 -31.68 
L 565.923313 -31.68 
L 568.525153 -31.68 
L 571.126993 -31.68 
L 573.728834 -31.68 
L 576.330674 -31.68 
L 578.932514 -31.68 
L 581.534354 -31.68 
L 584.136194 -31.68 
L 586.738034 -31.68 
L 589.339874 -31.68 
L 591.941714 -31.68 
L 594.543555 -31.68 
L 597.145395 -31.68 
L 599.747235 -31.68 
L 602.349075 -31.68 
L 604.950915 -31.68 
L 607.552755 -31.68 
L 610.154595 -31.68 
L 612.756435 -31.68 
L 615.358276 -31.68 
L 617.960116 -31.68 
L 620.561956 -31.68 
L 623.163796 -31.68 
L 625.765636 -31.68 
L 628.367476 -31.68 
L 630.969316 -31.68 
L 633.571156 -31.68 
L 636.172997 -31.68 
L 638.774837 -31.68 
L 641.376677 -31.68 
L 643.978517 -31.68 
L 646.580357 -31.68 
L 649.182197 -31.68 
L 651.784037 -31.68 
L 654.385877 -31.68 
L 656.987718 -31.68 
L 659.589558 -31.68 
L 662.191398 -31.68 
L 664.793238 -31.68 
L 667.395078 -31.68 
L 669.996918 -31.68 
L 672.598758 -31.68 
L 675.200598 -31.68 
L 677.802439 -31.68 
L 680.404279 -31.68 
L 683.006119 -31.68 
L 685.607959 -31.68 
L 688.209799 -31.68 
L 690.811639 -31.68 
L 690.811639 -31.716835 
L 690.811639 -31.716835 
L 688.209799 -31.729482 
L 685.607959 -31.745809 
L 683.006119 -31.766653 
L 680.404279 -31.792963 
L 677.802439 -31.825796 
L 675.200598 -31.866301 
L 672.598758 -31.915692 
L 669.996918 -31.975214 
L 667.395078 -32.046096 
L 664.793238 -32.129492 
L 662.191398 -32.226413 
L 659.589558 -32.337654 
L 656.987718 -32.463715 
L 654.385877 -32.604721 
L 651.784037 -32.760354 
L 649.182197 -32.929788 
L 646.580357 -33.111654 
L 643.978517 -33.304019 
L 641.376677 -33.504406 
L 638.774837 -33.709836 
L 636.172997 -33.916918 
L 633.571156 -34.121966 
L 630.969316 -34.321151 
L 628.367476 -34.510682 
L 625.765636 -34.686997 
L 623.163796 -34.84697 
L 620.561956 -34.988103 
L 617.960116 -35.108706 
L 615.358276 -35.208043 
L 612.756435 -35.286434 
L 610.154595 -35.345308 
L 607.552755 -35.387195 
L 604.950915 -35.415665 
L 602.349075 -35.435206 
L 599.747235 -35.451053 
L 597.145395 -35.468975 
L 594.543555 -35.495041 
L 591.941714 -35.535366 
L 589.339874 -35.595864 
L 586.738034 -35.68202 
L 584.136194 -35.798694 
L 581.534354 -35.949967 
L 578.932514 -36.139041 
L 576.330674 -36.368195 
L 573.728834 -36.638789 
L 571.126993 -36.951335 
L 568.525153 -37.305597 
L 565.923313 -37.700738 
L 563.321473 -38.135482 
L 560.719633 -38.608298 
L 558.117793 -39.11757 
L 555.515953 -39.661768 
L 552.914113 -40.239592 
L 550.312272 -40.850092 
L 547.710432 -41.492754 
L 545.108592 -42.167557 
L 542.506752 -42.874996 
L 539.904912 -43.61608 
L 537.303072 -44.392301 
L 534.701232 -45.205589 
L 532.099392 -46.058251 
L 529.497551 -46.952902 
L 526.895711 -47.892391 
L 524.293871 -48.879729 
L 521.692031 -49.918016 
L 519.090191 -51.01037 
L 516.488351 -52.159861 
L 513.886511 -53.369454 
L 511.284671 -54.641944 
L 508.682831 -55.979909 
L 506.08099 -57.38566 
L 503.47915 -58.861198 
L 500.87731 -60.408185 
L 498.27547 -62.027912 
L 495.67363 -63.721293 
L 493.07179 -65.488857 
L 490.46995 -67.33076 
L 487.86811 -69.246805 
L 485.266269 -71.236472 
L 482.664429 -73.298955 
L 480.062589 -75.433206 
L 477.460749 -77.637968 
L 474.858909 -79.911813 
L 472.257069 -82.253165 
L 469.655229 -84.660307 
L 467.053389 -87.131377 
L 464.451548 -89.664337 
L 461.849708 -92.256936 
L 459.247868 -94.906648 
L 456.646028 -97.6106 
L 454.044188 -100.365492 
L 451.442348 -103.167513 
L 448.840508 -106.012263 
L 446.238668 -108.894675 
L 443.636827 -111.808957 
L 441.034987 -114.748538 
L 438.433147 -117.706039 
L 435.831307 -120.673257 
L 433.229467 -123.641163 
L 430.627627 -126.599912 
L 428.025787 -129.538873 
L 425.423947 -132.446656 
L 422.822106 -135.311155 
L 420.220266 -138.11959 
L 417.618426 -140.858565 
L 415.016586 -143.514124 
L 412.414746 -146.071822 
L 409.812906 -148.516811 
L 407.211066 -150.833945 
L 404.609226 -153.0079 
L 402.007385 -155.023331 
L 399.405545 -156.865047 
L 396.803705 -158.518219 
L 394.201865 -159.968611 
L 391.600025 -161.202833 
L 388.998185 -162.208605 
L 386.396345 -162.97503 
L 383.794505 -163.492856 
L 381.192664 -163.754722 
L 378.590824 -163.75537 
L 375.988984 -163.491819 
L 373.387144 -162.963485 
L 370.785304 -162.172239 
L 368.183464 -161.122405 
L 365.581624 -159.820695 
L 362.979784 -158.276077 
L 360.377943 -156.499591 
L 357.776103 -154.504116 
L 355.174263 -152.304101 
L 352.572423 -149.915274 
L 349.970583 -147.354336 
L 347.368743 -144.638658 
L 344.766903 -141.785988 
L 342.165063 -138.814185 
L 339.563222 -135.740976 
L 336.961382 -132.583746 
L 334.359542 -129.359368 
L 331.757702 -126.08407 
L 329.155862 -122.77333 
L 326.554022 -119.441806 
L 323.952182 -116.103301 
L 321.350342 -112.770733 
L 318.748501 -109.456142 
L 316.146661 -106.170689 
L 313.544821 -102.924678 
L 310.942981 -99.72757 
L 308.341141 -96.587995 
L 305.739301 -93.513758 
L 303.137461 -90.511838 
L 300.535621 -87.588371 
L 297.93378 -84.748631 
L 295.33194 -81.996991 
L 292.7301 -79.336892 
L 290.12826 -76.770798 
L 287.52642 -74.30017 
L 284.92458 -71.925448 
L 282.32274 -69.646051 
L 279.7209 -67.460415 
L 277.119059 -65.366056 
L 274.517219 -63.359679 
L 271.915379 -61.437317 
L 269.313539 -59.594511 
L 266.711699 -57.826516 
L 264.109859 -56.12853 
L 261.508019 -54.495922 
L 258.906179 -52.924456 
L 256.304339 -51.410494 
L 253.702498 -49.95116 
L 251.100658 -48.544452 
L 248.498818 -47.189298 
L 245.896978 -45.885555 
L 243.295138 -44.633938 
L 240.693298 -43.435896 
L 238.091458 -42.293444 
L 235.489618 -41.208952 
L 232.887777 -40.184921 
L 230.285937 -39.223755 
L 227.684097 -38.327543 
L 225.082257 -37.497869 
L 222.480417 -36.735657 
L 219.878577 -36.041068 
L 217.276737 -35.413438 
L 214.674897 -34.851271 
L 212.073056 -34.352278 
L 209.471216 -33.913452 
L 206.869376 -33.531178 
L 204.267536 -33.201361 
L 201.665696 -32.919571 
L 199.063856 -32.681182 
L 196.462016 -32.481511 
L 193.860176 -32.315943 
L 191.258335 -32.180034 
L 188.656495 -32.0696 
L 186.054655 -31.980776 
L 183.452815 -31.910062 
L 180.850975 -31.85434 
L 178.249135 -31.810881 
L 175.647295 -31.777333 
L 173.045455 -31.751702 
z
" style="stroke: #dd8452"/>
    </defs>
    <g clip-path="url(#p23c21ac305)">
     <use xlink:href="#m44123f264b" x="0" y="288" style="fill: #dd8452; fill-opacity: 0.25; stroke: #dd8452"/>
    </g>
   </g>
   <g id="FillBetweenPolyCollection_2">
    <defs>
     <path id="m594f958af4" d="M 516.67555 -31.734062 
L 516.67555 -31.68 
L 518.772429 -31.68 
L 520.869309 -31.68 
L 522.966188 -31.68 
L 525.063068 -31.68 
L 527.159947 -31.68 
L 529.256826 -31.68 
L 531.353706 -31.68 
L 533.450585 -31.68 
L 535.547464 -31.68 
L 537.644344 -31.68 
L 539.741223 -31.68 
L 541.838103 -31.68 
L 543.934982 -31.68 
L 546.031861 -31.68 
L 548.128741 -31.68 
L 550.22562 -31.68 
L 552.322499 -31.68 
L 554.419379 -31.68 
L 556.516258 -31.68 
L 558.613138 -31.68 
L 560.710017 -31.68 
L 562.806896 -31.68 
L 564.903776 -31.68 
L 567.000655 -31.68 
L 569.097534 -31.68 
L 571.194414 -31.68 
L 573.291293 -31.68 
L 575.388173 -31.68 
L 577.485052 -31.68 
L 579.581931 -31.68 
L 581.678811 -31.68 
L 583.77569 -31.68 
L 585.872569 -31.68 
L 587.969449 -31.68 
L 590.066328 -31.68 
L 592.163207 -31.68 
L 594.260087 -31.68 
L 596.356966 -31.68 
L 598.453846 -31.68 
L 600.550725 -31.68 
L 602.647604 -31.68 
L 604.744484 -31.68 
L 606.841363 -31.68 
L 608.938242 -31.68 
L 611.035122 -31.68 
L 613.132001 -31.68 
L 615.228881 -31.68 
L 617.32576 -31.68 
L 619.422639 -31.68 
L 621.519519 -31.68 
L 623.616398 -31.68 
L 625.713277 -31.68 
L 627.810157 -31.68 
L 629.907036 -31.68 
L 632.003916 -31.68 
L 634.100795 -31.68 
L 636.197674 -31.68 
L 638.294554 -31.68 
L 640.391433 -31.68 
L 642.488312 -31.68 
L 644.585192 -31.68 
L 646.682071 -31.68 
L 648.778951 -31.68 
L 650.87583 -31.68 
L 652.972709 -31.68 
L 655.069589 -31.68 
L 657.166468 -31.68 
L 659.263347 -31.68 
L 661.360227 -31.68 
L 663.457106 -31.68 
L 665.553986 -31.68 
L 667.650865 -31.68 
L 669.747744 -31.68 
L 671.844624 -31.68 
L 673.941503 -31.68 
L 676.038382 -31.68 
L 678.135262 -31.68 
L 680.232141 -31.68 
L 682.329021 -31.68 
L 684.4259 -31.68 
L 686.522779 -31.68 
L 688.619659 -31.68 
L 690.716538 -31.68 
L 692.813417 -31.68 
L 694.910297 -31.68 
L 697.007176 -31.68 
L 699.104056 -31.68 
L 701.200935 -31.68 
L 703.297814 -31.68 
L 705.394694 -31.68 
L 707.491573 -31.68 
L 709.588452 -31.68 
L 711.685332 -31.68 
L 713.782211 -31.68 
L 715.879091 -31.68 
L 717.97597 -31.68 
L 720.072849 -31.68 
L 722.169729 -31.68 
L 724.266608 -31.68 
L 726.363487 -31.68 
L 728.460367 -31.68 
L 730.557246 -31.68 
L 732.654126 -31.68 
L 734.751005 -31.68 
L 736.847884 -31.68 
L 738.944764 -31.68 
L 741.041643 -31.68 
L 743.138522 -31.68 
L 745.235402 -31.68 
L 747.332281 -31.68 
L 749.429161 -31.68 
L 751.52604 -31.68 
L 753.622919 -31.68 
L 755.719799 -31.68 
L 757.816678 -31.68 
L 759.913557 -31.68 
L 762.010437 -31.68 
L 764.107316 -31.68 
L 766.204196 -31.68 
L 768.301075 -31.68 
L 770.397954 -31.68 
L 772.494834 -31.68 
L 774.591713 -31.68 
L 776.688592 -31.68 
L 778.785472 -31.68 
L 780.882351 -31.68 
L 782.979231 -31.68 
L 785.07611 -31.68 
L 787.172989 -31.68 
L 789.269869 -31.68 
L 791.366748 -31.68 
L 793.463627 -31.68 
L 795.560507 -31.68 
L 797.657386 -31.68 
L 799.754266 -31.68 
L 801.851145 -31.68 
L 803.948024 -31.68 
L 806.044904 -31.68 
L 808.141783 -31.68 
L 810.238662 -31.68 
L 812.335542 -31.68 
L 814.432421 -31.68 
L 816.529301 -31.68 
L 818.62618 -31.68 
L 820.723059 -31.68 
L 822.819939 -31.68 
L 824.916818 -31.68 
L 827.013697 -31.68 
L 829.110577 -31.68 
L 831.207456 -31.68 
L 833.304336 -31.68 
L 835.401215 -31.68 
L 837.498094 -31.68 
L 839.594974 -31.68 
L 841.691853 -31.68 
L 843.788732 -31.68 
L 845.885612 -31.68 
L 847.982491 -31.68 
L 850.07937 -31.68 
L 852.17625 -31.68 
L 854.273129 -31.68 
L 856.370009 -31.68 
L 858.466888 -31.68 
L 860.563767 -31.68 
L 862.660647 -31.68 
L 864.757526 -31.68 
L 866.854405 -31.68 
L 868.951285 -31.68 
L 871.048164 -31.68 
L 873.145044 -31.68 
L 875.241923 -31.68 
L 877.338802 -31.68 
L 879.435682 -31.68 
L 881.532561 -31.68 
L 883.62944 -31.68 
L 885.72632 -31.68 
L 887.823199 -31.68 
L 889.920079 -31.68 
L 892.016958 -31.68 
L 894.113837 -31.68 
L 896.210717 -31.68 
L 898.307596 -31.68 
L 900.404475 -31.68 
L 902.501355 -31.68 
L 904.598234 -31.68 
L 906.695114 -31.68 
L 908.791993 -31.68 
L 910.888872 -31.68 
L 912.985752 -31.68 
L 915.082631 -31.68 
L 917.17951 -31.68 
L 919.27639 -31.68 
L 921.373269 -31.68 
L 923.470149 -31.68 
L 925.567028 -31.68 
L 927.663907 -31.68 
L 929.760787 -31.68 
L 931.857666 -31.68 
L 933.954545 -31.68 
L 933.954545 -31.734913 
L 933.954545 -31.734913 
L 931.857666 -31.758413 
L 929.760787 -31.79034 
L 927.663907 -31.833004 
L 925.567028 -31.889074 
L 923.470149 -31.961529 
L 921.373269 -32.05357 
L 919.27639 -32.168481 
L 917.17951 -32.309433 
L 915.082631 -32.479241 
L 912.985752 -32.680074 
L 910.888872 -32.913143 
L 908.791993 -33.178377 
L 906.695114 -33.474136 
L 904.598234 -33.796977 
L 902.501355 -34.141523 
L 900.404475 -34.500453 
L 898.307596 -34.864649 
L 896.210717 -35.223502 
L 894.113837 -35.565379 
L 892.016958 -35.878225 
L 889.920079 -36.150258 
L 887.823199 -36.370714 
L 885.72632 -36.530565 
L 883.62944 -36.623162 
L 881.532561 -36.644732 
L 879.435682 -36.594685 
L 877.338802 -36.475709 
L 875.241923 -36.293643 
L 873.145044 -36.057142 
L 871.048164 -35.777179 
L 868.951285 -35.466429 
L 866.854405 -35.138597 
L 864.757526 -34.807759 
L 862.660647 -34.487748 
L 860.563767 -34.191662 
L 858.466888 -33.931477 
L 856.370009 -33.717809 
L 854.273129 -33.559787 
L 852.17625 -33.465038 
L 850.07937 -33.439739 
L 847.982491 -33.488714 
L 845.885612 -33.615552 
L 843.788732 -33.822716 
L 841.691853 -34.111657 
L 839.594974 -34.48291 
L 837.498094 -34.936207 
L 835.401215 -35.470611 
L 833.304336 -36.084685 
L 831.207456 -36.776731 
L 829.110577 -37.545071 
L 827.013697 -38.388394 
L 824.916818 -39.306135 
L 822.819939 -40.298862 
L 820.723059 -41.368638 
L 818.62618 -42.51931 
L 816.529301 -43.756703 
L 814.432421 -45.088685 
L 812.335542 -46.525077 
L 810.238662 -48.077427 
L 808.141783 -49.75864 
L 806.044904 -51.582515 
L 803.948024 -53.563195 
L 801.851145 -55.714604 
L 799.754266 -58.049884 
L 797.657386 -60.580894 
L 795.560507 -63.317779 
L 793.463627 -66.268641 
L 791.366748 -69.439312 
L 789.269869 -72.83324 
L 787.172989 -76.451468 
L 785.07611 -80.292698 
L 782.979231 -84.353442 
L 780.882351 -88.628223 
L 778.785472 -93.109839 
L 776.688592 -97.789658 
L 774.591713 -102.65795 
L 772.494834 -107.704211 
L 770.397954 -112.917483 
L 768.301075 -118.286618 
L 766.204196 -123.800464 
L 764.107316 -129.447924 
L 762.010437 -135.217876 
L 759.913557 -141.098911 
L 757.816678 -147.078893 
L 755.719799 -153.144367 
L 753.622919 -159.279833 
L 751.52604 -165.466966 
L 749.429161 -171.683846 
L 747.332281 -177.904292 
L 745.235402 -184.097383 
L 743.138522 -190.227231 
L 741.041643 -196.253075 
L 738.944764 -202.129683 
L 736.847884 -207.808088 
L 734.751005 -213.236579 
L 732.654126 -218.361898 
L 730.557246 -223.130541 
L 728.460367 -227.490088 
L 726.363487 -231.39045 
L 724.266608 -234.784984 
L 722.169729 -237.631426 
L 720.072849 -239.892618 
L 717.97597 -241.537051 
L 715.879091 -242.53924 
L 713.782211 -242.88 
L 711.685332 -242.546651 
L 709.588452 -241.533212 
L 707.491573 -239.84061 
L 705.394694 -237.47691 
L 703.297814 -234.457557 
L 701.200935 -230.8056 
L 699.104056 -226.551825 
L 697.007176 -221.734768 
L 694.910297 -216.400516 
L 692.813417 -210.602255 
L 690.716538 -204.399535 
L 688.619659 -197.857228 
L 686.522779 -191.044197 
L 684.4259 -184.031719 
L 682.329021 -176.891735 
L 680.232141 -169.694991 
L 678.135262 -162.509198 
L 676.038382 -155.397289 
L 673.941503 -148.415884 
L 671.844624 -141.614049 
L 669.747744 -135.032404 
L 667.650865 -128.702642 
L 665.553986 -122.647454 
L 663.457106 -116.880861 
L 661.360227 -111.408908 
L 659.263347 -106.230651 
L 657.166468 -101.33937 
L 655.069589 -96.7239 
L 652.972709 -92.37 
L 650.87583 -88.261649 
L 648.778951 -84.382218 
L 646.682071 -80.715428 
L 644.585192 -77.246083 
L 642.488312 -73.960537 
L 640.391433 -70.846936 
L 638.294554 -67.895241 
L 636.197674 -65.097091 
L 634.100795 -62.445569 
L 632.003916 -59.934917 
L 629.907036 -57.560265 
L 627.810157 -55.317406 
L 625.713277 -53.202659 
L 623.616398 -51.21281 
L 621.519519 -49.345137 
L 619.422639 -47.597484 
L 617.32576 -45.968365 
L 615.228881 -44.457042 
L 613.132001 -43.06356 
L 611.035122 -41.788692 
L 608.938242 -40.633793 
L 606.841363 -39.600541 
L 604.744484 -38.690587 
L 602.647604 -37.905125 
L 600.550725 -37.244421 
L 598.453846 -36.707337 
L 596.356966 -36.290882 
L 594.260087 -35.989856 
L 592.163207 -35.796593 
L 590.066328 -35.700868 
L 587.969449 -35.689963 
L 585.872569 -35.748923 
L 583.77569 -35.860989 
L 581.678811 -36.008192 
L 579.581931 -36.17208 
L 577.485052 -36.334527 
L 575.388173 -36.478578 
L 573.291293 -36.589249 
L 571.194414 -36.654237 
L 569.097534 -36.664471 
L 567.000655 -36.614463 
L 564.903776 -36.502422 
L 562.806896 -36.330131 
L 560.710017 -36.102598 
L 558.613138 -35.827512 
L 556.516258 -35.514557 
L 554.419379 -35.174648 
L 552.322499 -34.819154 
L 550.22562 -34.459167 
L 548.128741 -34.104878 
L 546.031861 -33.765089 
L 543.934982 -33.446887 
L 541.838103 -33.155488 
L 539.741223 -32.894229 
L 537.644344 -32.664691 
L 535.547464 -32.466922 
L 533.450585 -32.299717 
L 531.353706 -32.160933 
L 529.256826 -32.047794 
L 527.159947 -31.957174 
L 525.063068 -31.885839 
L 522.966188 -31.830636 
L 520.869309 -31.788632 
L 518.772429 -31.757199 
L 516.67555 -31.734062 
z
" style="stroke: #4c72b0"/>
    </defs>
    <g clip-path="url(#p23c21ac305)">
     <use xlink:href="#m594f958af4" x="0" y="288" style="fill: #4c72b0; fill-opacity: 0.25; stroke: #4c72b0"/>
    </g>
   </g>
   <g id="line2d_40">
    <path d="M 434.896012 256.32 
L 434.896012 34.56 
" clip-path="url(#p23c21ac305)" style="fill: none; stroke-dasharray: 2.96,1.28; stroke-dashoffset: 0; stroke: #d3d3d3; stroke-width: 0.8"/>
   </g>
   <g id="line2d_41">
    <path d="M 621.885286 256.32 
L 621.885286 34.56 
" clip-path="url(#p23c21ac305)" style="fill: none; stroke-dasharray: 2.96,1.28; stroke-dashoffset: 0; stroke: #d3d3d3; stroke-width: 0.8"/>
   </g>
   <g id="line2d_42">
    <path d="M 549.786141 256.32 
L 549.786141 34.56 
" clip-path="url(#p23c21ac305)" style="fill: none; stroke-dasharray: 2.96,1.28; stroke-dashoffset: 0; stroke: #d3d3d3; stroke-width: 0.8"/>
   </g>
   <g id="line2d_43">
    <path d="M 135 256.32 
L 972 256.32 
" clip-path="url(#p23c21ac305)" style="fill: none; stroke: #808080; stroke-width: 0.5; stroke-linecap: round"/>
   </g>
   <g id="text_12">
    <!-- International Poverty Line: $2.15 -->
    <g style="fill: #808080" transform="translate(441.149762 151.95635) rotate(-90) scale(0.08 -0.08)">
     <defs>
      <path id="ArialMT-6c" d="M 409 0 
L 409 4581 
L 972 4581 
L 972 0 
L 409 0 
z
" transform="scale(0.015625)"/>
      <path id="ArialMT-50" d="M 494 0 
L 494 4581 
L 2222 4581 
Q 2678 4581 2919 4538 
Q 3256 4481 3484 4323 
Q 3713 4166 3852 3881 
Q 3991 3597 3991 3256 
Q 3991 2672 3619 2267 
Q 3247 1863 2275 1863 
L 1100 1863 
L 1100 0 
L 494 0 
z
M 1100 2403 
L 2284 2403 
Q 2872 2403 3119 2622 
Q 3366 2841 3366 3238 
Q 3366 3525 3220 3729 
Q 3075 3934 2838 4000 
Q 2684 4041 2272 4041 
L 1100 4041 
L 1100 2403 
z
" transform="scale(0.015625)"/>
      <path id="ArialMT-76" d="M 1344 0 
L 81 3319 
L 675 3319 
L 1388 1331 
Q 1503 1009 1600 663 
Q 1675 925 1809 1294 
L 2547 3319 
L 3125 3319 
L 1869 0 
L 1344 0 
z
" transform="scale(0.015625)"/>
      <path id="ArialMT-4c" d="M 469 0 
L 469 4581 
L 1075 4581 
L 1075 541 
L 3331 541 
L 3331 0 
L 469 0 
z
" transform="scale(0.015625)"/>
      <path id="ArialMT-3a" d="M 578 2678 
L 578 3319 
L 1219 3319 
L 1219 2678 
L 578 2678 
z
M 578 0 
L 578 641 
L 1219 641 
L 1219 0 
L 578 0 
z
" transform="scale(0.015625)"/>
      <path id="ArialMT-24" d="M 1594 -659 
L 1594 -97 
Q 1172 -44 908 92 
Q 644 228 451 531 
Q 259 834 228 1272 
L 794 1378 
Q 859 925 1025 713 
Q 1263 413 1594 378 
L 1594 2169 
Q 1247 2234 884 2438 
Q 616 2588 470 2853 
Q 325 3119 325 3456 
Q 325 4056 750 4428 
Q 1034 4678 1594 4734 
L 1594 5003 
L 1925 5003 
L 1925 4734 
Q 2416 4688 2703 4447 
Q 3072 4141 3147 3606 
L 2566 3519 
Q 2516 3850 2358 4026 
Q 2200 4203 1925 4259 
L 1925 2638 
Q 2350 2531 2488 2472 
Q 2750 2356 2915 2190 
Q 3081 2025 3170 1797 
Q 3259 1569 3259 1303 
Q 3259 719 2887 328 
Q 2516 -63 1925 -91 
L 1925 -659 
L 1594 -659 
z
M 1594 4266 
Q 1266 4216 1077 4003 
Q 888 3791 888 3500 
Q 888 3213 1048 3019 
Q 1209 2825 1594 2709 
L 1594 4266 
z
M 1925 378 
Q 2253 419 2467 662 
Q 2681 906 2681 1266 
Q 2681 1572 2529 1758 
Q 2378 1944 1925 2091 
L 1925 378 
z
" transform="scale(0.015625)"/>
      <path id="ArialMT-2e" d="M 581 0 
L 581 641 
L 1222 641 
L 1222 0 
L 581 0 
z
" transform="scale(0.015625)"/>
     </defs>
     <use xlink:href="#ArialMT-49"/>
     <use xlink:href="#ArialMT-6e" transform="translate(27.783203 0)"/>
     <use xlink:href="#ArialMT-74" transform="translate(83.398438 0)"/>
     <use xlink:href="#ArialMT-65" transform="translate(111.181641 0)"/>
     <use xlink:href="#ArialMT-72" transform="translate(166.796875 0)"/>
     <use xlink:href="#ArialMT-6e" transform="translate(200.097656 0)"/>
     <use xlink:href="#ArialMT-61" transform="translate(255.712891 0)"/>
     <use xlink:href="#ArialMT-74" transform="translate(311.328125 0)"/>
     <use xlink:href="#ArialMT-69" transform="translate(339.111328 0)"/>
     <use xlink:href="#ArialMT-6f" transform="translate(361.328125 0)"/>
     <use xlink:href="#ArialMT-6e" transform="translate(416.943359 0)"/>
     <use xlink:href="#ArialMT-61" transform="translate(472.558594 0)"/>
     <use xlink:href="#ArialMT-6c" transform="translate(528.173828 0)"/>
     <use xlink:href="#ArialMT-20" transform="translate(550.390625 0)"/>
     <use xlink:href="#ArialMT-50" transform="translate(578.173828 0)"/>
     <use xlink:href="#ArialMT-6f" transform="translate(644.873047 0)"/>
     <use xlink:href="#ArialMT-76" transform="translate(700.488281 0)"/>
     <use xlink:href="#ArialMT-65" transform="translate(750.488281 0)"/>
     <use xlink:href="#ArialMT-72" transform="translate(806.103516 0)"/>
     <use xlink:href="#ArialMT-74" transform="translate(839.404297 0)"/>
     <use xlink:href="#ArialMT-79" transform="translate(867.1875 0)"/>
     <use xlink:href="#ArialMT-20" transform="translate(917.1875 0)"/>
     <use xlink:href="#ArialMT-4c" transform="translate(944.970703 0)"/>
     <use xlink:href="#ArialMT-69" transform="translate(1000.585938 0)"/>
     <use xlink:href="#ArialMT-6e" transform="translate(1022.802734 0)"/>
     <use xlink:href="#ArialMT-65" transform="translate(1078.417969 0)"/>
     <use xlink:href="#ArialMT-3a" transform="translate(1134.033203 0)"/>
     <use xlink:href="#ArialMT-20" transform="translate(1161.816406 0)"/>
     <use xlink:href="#ArialMT-24" transform="translate(1189.599609 0)"/>
     <use xlink:href="#ArialMT-32" transform="translate(1245.214844 0)"/>
     <use xlink:href="#ArialMT-2e" transform="translate(1300.830078 0)"/>
     <use xlink:href="#ArialMT-31" transform="translate(1328.613281 0)"/>
     <use xlink:href="#ArialMT-35" transform="translate(1384.228516 0)"/>
    </g>
   </g>
   <g id="text_13">
    <!-- World mean: $19.18 -->
    <g style="fill: #808080" transform="translate(627.611536 108.67135) rotate(-90) scale(0.08 -0.08)">
     <defs>
      <path id="ArialMT-57" d="M 1294 0 
L 78 4581 
L 700 4581 
L 1397 1578 
Q 1509 1106 1591 641 
Q 1766 1375 1797 1488 
L 2669 4581 
L 3400 4581 
L 4056 2263 
Q 4303 1400 4413 641 
Q 4500 1075 4641 1638 
L 5359 4581 
L 5969 4581 
L 4713 0 
L 4128 0 
L 3163 3491 
Q 3041 3928 3019 4028 
Q 2947 3713 2884 3491 
L 1913 0 
L 1294 0 
z
" transform="scale(0.015625)"/>
      <path id="ArialMT-39" d="M 350 1059 
L 891 1109 
Q 959 728 1153 556 
Q 1347 384 1650 384 
Q 1909 384 2104 503 
Q 2300 622 2425 820 
Q 2550 1019 2634 1356 
Q 2719 1694 2719 2044 
Q 2719 2081 2716 2156 
Q 2547 1888 2255 1720 
Q 1963 1553 1622 1553 
Q 1053 1553 659 1965 
Q 266 2378 266 3053 
Q 266 3750 677 4175 
Q 1088 4600 1706 4600 
Q 2153 4600 2523 4359 
Q 2894 4119 3086 3673 
Q 3278 3228 3278 2384 
Q 3278 1506 3087 986 
Q 2897 466 2520 194 
Q 2144 -78 1638 -78 
Q 1100 -78 759 220 
Q 419 519 350 1059 
z
M 2653 3081 
Q 2653 3566 2395 3850 
Q 2138 4134 1775 4134 
Q 1400 4134 1122 3828 
Q 844 3522 844 3034 
Q 844 2597 1108 2323 
Q 1372 2050 1759 2050 
Q 2150 2050 2401 2323 
Q 2653 2597 2653 3081 
z
" transform="scale(0.015625)"/>
      <path id="ArialMT-38" d="M 1131 2484 
Q 781 2613 612 2850 
Q 444 3088 444 3419 
Q 444 3919 803 4259 
Q 1163 4600 1759 4600 
Q 2359 4600 2725 4251 
Q 3091 3903 3091 3403 
Q 3091 3084 2923 2848 
Q 2756 2613 2416 2484 
Q 2838 2347 3058 2040 
Q 3278 1734 3278 1309 
Q 3278 722 2862 322 
Q 2447 -78 1769 -78 
Q 1091 -78 675 323 
Q 259 725 259 1325 
Q 259 1772 486 2073 
Q 713 2375 1131 2484 
z
M 1019 3438 
Q 1019 3113 1228 2906 
Q 1438 2700 1772 2700 
Q 2097 2700 2305 2904 
Q 2513 3109 2513 3406 
Q 2513 3716 2298 3927 
Q 2084 4138 1766 4138 
Q 1444 4138 1231 3931 
Q 1019 3725 1019 3438 
z
M 838 1322 
Q 838 1081 952 856 
Q 1066 631 1291 507 
Q 1516 384 1775 384 
Q 2178 384 2440 643 
Q 2703 903 2703 1303 
Q 2703 1709 2433 1975 
Q 2163 2241 1756 2241 
Q 1359 2241 1098 1978 
Q 838 1716 838 1322 
z
" transform="scale(0.015625)"/>
     </defs>
     <use xlink:href="#ArialMT-57"/>
     <use xlink:href="#ArialMT-6f" transform="translate(92.634766 0)"/>
     <use xlink:href="#ArialMT-72" transform="translate(148.25 0)"/>
     <use xlink:href="#ArialMT-6c" transform="translate(181.550781 0)"/>
     <use xlink:href="#ArialMT-64" transform="translate(203.767578 0)"/>
     <use xlink:href="#ArialMT-20" transform="translate(259.382812 0)"/>
     <use xlink:href="#ArialMT-6d" transform="translate(287.166016 0)"/>
     <use xlink:href="#ArialMT-65" transform="translate(370.466797 0)"/>
     <use xlink:href="#ArialMT-61" transform="translate(426.082031 0)"/>
     <use xlink:href="#ArialMT-6e" transform="translate(481.697266 0)"/>
     <use xlink:href="#ArialMT-3a" transform="translate(537.3125 0)"/>
     <use xlink:href="#ArialMT-20" transform="translate(565.095703 0)"/>
     <use xlink:href="#ArialMT-24" transform="translate(592.878906 0)"/>
     <use xlink:href="#ArialMT-31" transform="translate(648.494141 0)"/>
     <use xlink:href="#ArialMT-39" transform="translate(704.109375 0)"/>
     <use xlink:href="#ArialMT-2e" transform="translate(759.724609 0)"/>
     <use xlink:href="#ArialMT-31" transform="translate(787.507812 0)"/>
     <use xlink:href="#ArialMT-38" transform="translate(843.123047 0)"/>
    </g>
   </g>
   <g id="text_14">
    <!-- World median: $8.25 -->
    <g style="fill: #808080" transform="translate(555.512391 110.44885) rotate(-90) scale(0.08 -0.08)">
     <use xlink:href="#ArialMT-57"/>
     <use xlink:href="#ArialMT-6f" transform="translate(92.634766 0)"/>
     <use xlink:href="#ArialMT-72" transform="translate(148.25 0)"/>
     <use xlink:href="#ArialMT-6c" transform="translate(181.550781 0)"/>
     <use xlink:href="#ArialMT-64" transform="translate(203.767578 0)"/>
     <use xlink:href="#ArialMT-20" transform="translate(259.382812 0)"/>
     <use xlink:href="#ArialMT-6d" transform="translate(287.166016 0)"/>
     <use xlink:href="#ArialMT-65" transform="translate(370.466797 0)"/>
     <use xlink:href="#ArialMT-64" transform="translate(426.082031 0)"/>
     <use xlink:href="#ArialMT-69" transform="translate(481.697266 0)"/>
     <use xlink:href="#ArialMT-61" transform="translate(503.914062 0)"/>
     <use xlink:href="#ArialMT-6e" transform="translate(559.529297 0)"/>
     <use xlink:href="#ArialMT-3a" transform="translate(615.144531 0)"/>
     <use xlink:href="#ArialMT-20" transform="translate(642.927734 0)"/>
     <use xlink:href="#ArialMT-24" transform="translate(670.710938 0)"/>
     <use xlink:href="#ArialMT-38" transform="translate(726.326172 0)"/>
     <use xlink:href="#ArialMT-2e" transform="translate(781.941406 0)"/>
     <use xlink:href="#ArialMT-32" transform="translate(809.724609 0)"/>
     <use xlink:href="#ArialMT-35" transform="translate(865.339844 0)"/>
    </g>
   </g>
   <g id="text_15">
    <!-- Denmark (2021) -->
    <g transform="translate(678.946126 254.215313) scale(0.1 -0.1)">
     <defs>
      <path id="ArialMT-44" d="M 494 0 
L 494 4581 
L 2072 4581 
Q 2606 4581 2888 4516 
Q 3281 4425 3559 4188 
Q 3922 3881 4101 3404 
Q 4281 2928 4281 2316 
Q 4281 1794 4159 1391 
Q 4038 988 3847 723 
Q 3656 459 3429 307 
Q 3203 156 2883 78 
Q 2563 0 2147 0 
L 494 0 
z
M 1100 541 
L 2078 541 
Q 2531 541 2789 625 
Q 3047 709 3200 863 
Q 3416 1078 3536 1442 
Q 3656 1806 3656 2325 
Q 3656 3044 3420 3430 
Q 3184 3816 2847 3947 
Q 2603 4041 2063 4041 
L 1100 4041 
L 1100 541 
z
" transform="scale(0.015625)"/>
      <path id="ArialMT-6b" d="M 425 0 
L 425 4581 
L 988 4581 
L 988 1969 
L 2319 3319 
L 3047 3319 
L 1778 2088 
L 3175 0 
L 2481 0 
L 1384 1697 
L 988 1316 
L 988 0 
L 425 0 
z
" transform="scale(0.015625)"/>
     </defs>
     <use xlink:href="#ArialMT-44"/>
     <use xlink:href="#ArialMT-65" transform="translate(72.216797 0)"/>
     <use xlink:href="#ArialMT-6e" transform="translate(127.832031 0)"/>
     <use xlink:href="#ArialMT-6d" transform="translate(183.447266 0)"/>
     <use xlink:href="#ArialMT-61" transform="translate(266.748047 0)"/>
     <use xlink:href="#ArialMT-72" transform="translate(322.363281 0)"/>
     <use xlink:href="#ArialMT-6b" transform="translate(355.664062 0)"/>
     <use xlink:href="#ArialMT-20" transform="translate(405.664062 0)"/>
     <use xlink:href="#ArialMT-28" transform="translate(433.447266 0)"/>
     <use xlink:href="#ArialMT-32" transform="translate(466.748047 0)"/>
     <use xlink:href="#ArialMT-30" transform="translate(522.363281 0)"/>
     <use xlink:href="#ArialMT-32" transform="translate(577.978516 0)"/>
     <use xlink:href="#ArialMT-31" transform="translate(633.59375 0)"/>
     <use xlink:href="#ArialMT-29" transform="translate(689.208984 0)"/>
    </g>
   </g>
   <g id="text_16">
    <!-- Democratic Republic of Congo (2020) -->
    <g transform="translate(300.123237 254.215313) scale(0.1 -0.1)">
     <defs>
      <path id="ArialMT-52" d="M 503 0 
L 503 4581 
L 2534 4581 
Q 3147 4581 3465 4457 
Q 3784 4334 3975 4021 
Q 4166 3709 4166 3331 
Q 4166 2844 3850 2509 
Q 3534 2175 2875 2084 
Q 3116 1969 3241 1856 
Q 3506 1613 3744 1247 
L 4541 0 
L 3778 0 
L 3172 953 
Q 2906 1366 2734 1584 
Q 2563 1803 2427 1890 
Q 2291 1978 2150 2013 
Q 2047 2034 1813 2034 
L 1109 2034 
L 1109 0 
L 503 0 
z
M 1109 2559 
L 2413 2559 
Q 2828 2559 3062 2645 
Q 3297 2731 3419 2920 
Q 3541 3109 3541 3331 
Q 3541 3656 3305 3865 
Q 3069 4075 2559 4075 
L 1109 4075 
L 1109 2559 
z
" transform="scale(0.015625)"/>
      <path id="ArialMT-62" d="M 941 0 
L 419 0 
L 419 4581 
L 981 4581 
L 981 2947 
Q 1338 3394 1891 3394 
Q 2197 3394 2470 3270 
Q 2744 3147 2920 2923 
Q 3097 2700 3197 2384 
Q 3297 2069 3297 1709 
Q 3297 856 2875 390 
Q 2453 -75 1863 -75 
Q 1275 -75 941 416 
L 941 0 
z
M 934 1684 
Q 934 1088 1097 822 
Q 1363 388 1816 388 
Q 2184 388 2453 708 
Q 2722 1028 2722 1663 
Q 2722 2313 2464 2622 
Q 2206 2931 1841 2931 
Q 1472 2931 1203 2611 
Q 934 2291 934 1684 
z
" transform="scale(0.015625)"/>
      <path id="ArialMT-66" d="M 556 0 
L 556 2881 
L 59 2881 
L 59 3319 
L 556 3319 
L 556 3672 
Q 556 4006 616 4169 
Q 697 4388 901 4523 
Q 1106 4659 1475 4659 
Q 1713 4659 2000 4603 
L 1916 4113 
Q 1741 4144 1584 4144 
Q 1328 4144 1222 4034 
Q 1116 3925 1116 3625 
L 1116 3319 
L 1763 3319 
L 1763 2881 
L 1116 2881 
L 1116 0 
L 556 0 
z
" transform="scale(0.015625)"/>
      <path id="ArialMT-43" d="M 3763 1606 
L 4369 1453 
Q 4178 706 3683 314 
Q 3188 -78 2472 -78 
Q 1731 -78 1267 223 
Q 803 525 561 1097 
Q 319 1669 319 2325 
Q 319 3041 592 3573 
Q 866 4106 1370 4382 
Q 1875 4659 2481 4659 
Q 3169 4659 3637 4309 
Q 4106 3959 4291 3325 
L 3694 3184 
Q 3534 3684 3231 3912 
Q 2928 4141 2469 4141 
Q 1941 4141 1586 3887 
Q 1231 3634 1087 3207 
Q 944 2781 944 2328 
Q 944 1744 1114 1308 
Q 1284 872 1643 656 
Q 2003 441 2422 441 
Q 2931 441 3284 734 
Q 3638 1028 3763 1606 
z
" transform="scale(0.015625)"/>
      <path id="ArialMT-67" d="M 319 -275 
L 866 -356 
Q 900 -609 1056 -725 
Q 1266 -881 1628 -881 
Q 2019 -881 2231 -725 
Q 2444 -569 2519 -288 
Q 2563 -116 2559 434 
Q 2191 0 1641 0 
Q 956 0 581 494 
Q 206 988 206 1678 
Q 206 2153 378 2554 
Q 550 2956 876 3175 
Q 1203 3394 1644 3394 
Q 2231 3394 2613 2919 
L 2613 3319 
L 3131 3319 
L 3131 450 
Q 3131 -325 2973 -648 
Q 2816 -972 2473 -1159 
Q 2131 -1347 1631 -1347 
Q 1038 -1347 672 -1080 
Q 306 -813 319 -275 
z
M 784 1719 
Q 784 1066 1043 766 
Q 1303 466 1694 466 
Q 2081 466 2343 764 
Q 2606 1063 2606 1700 
Q 2606 2309 2336 2618 
Q 2066 2928 1684 2928 
Q 1309 2928 1046 2623 
Q 784 2319 784 1719 
z
" transform="scale(0.015625)"/>
     </defs>
     <use xlink:href="#ArialMT-44"/>
     <use xlink:href="#ArialMT-65" transform="translate(72.216797 0)"/>
     <use xlink:href="#ArialMT-6d" transform="translate(127.832031 0)"/>
     <use xlink:href="#ArialMT-6f" transform="translate(211.132812 0)"/>
     <use xlink:href="#ArialMT-63" transform="translate(266.748047 0)"/>
     <use xlink:href="#ArialMT-72" transform="translate(316.748047 0)"/>
     <use xlink:href="#ArialMT-61" transform="translate(350.048828 0)"/>
     <use xlink:href="#ArialMT-74" transform="translate(405.664062 0)"/>
     <use xlink:href="#ArialMT-69" transform="translate(433.447266 0)"/>
     <use xlink:href="#ArialMT-63" transform="translate(455.664062 0)"/>
     <use xlink:href="#ArialMT-20" transform="translate(505.664062 0)"/>
     <use xlink:href="#ArialMT-52" transform="translate(533.447266 0)"/>
     <use xlink:href="#ArialMT-65" transform="translate(605.664062 0)"/>
     <use xlink:href="#ArialMT-70" transform="translate(661.279297 0)"/>
     <use xlink:href="#ArialMT-75" transform="translate(716.894531 0)"/>
     <use xlink:href="#ArialMT-62" transform="translate(772.509766 0)"/>
     <use xlink:href="#ArialMT-6c" transform="translate(828.125 0)"/>
     <use xlink:href="#ArialMT-69" transform="translate(850.341797 0)"/>
     <use xlink:href="#ArialMT-63" transform="translate(872.558594 0)"/>
     <use xlink:href="#ArialMT-20" transform="translate(922.558594 0)"/>
     <use xlink:href="#ArialMT-6f" transform="translate(950.341797 0)"/>
     <use xlink:href="#ArialMT-66" transform="translate(1005.957031 0)"/>
     <use xlink:href="#ArialMT-20" transform="translate(1033.740234 0)"/>
     <use xlink:href="#ArialMT-43" transform="translate(1061.523438 0)"/>
     <use xlink:href="#ArialMT-6f" transform="translate(1133.740234 0)"/>
     <use xlink:href="#ArialMT-6e" transform="translate(1189.355469 0)"/>
     <use xlink:href="#ArialMT-67" transform="translate(1244.970703 0)"/>
     <use xlink:href="#ArialMT-6f" transform="translate(1300.585938 0)"/>
     <use xlink:href="#ArialMT-20" transform="translate(1356.201172 0)"/>
     <use xlink:href="#ArialMT-28" transform="translate(1383.984375 0)"/>
     <use xlink:href="#ArialMT-32" transform="translate(1417.285156 0)"/>
     <use xlink:href="#ArialMT-30" transform="translate(1472.900391 0)"/>
     <use xlink:href="#ArialMT-32" transform="translate(1528.515625 0)"/>
     <use xlink:href="#ArialMT-30" transform="translate(1584.130859 0)"/>
     <use xlink:href="#ArialMT-29" transform="translate(1639.746094 0)"/>
    </g>
   </g>
  </g>
 </g>
 <defs>
  <clipPath id="p23c21ac305">
   <rect x="135" y="34.56" width="837" height="221.76"/>
  </clipPath>
 </defs>
</svg>
