<?xml version="1.0" encoding="utf-8" standalone="no"?>
<!DOCTYPE svg PUBLIC "-//W3C//DTD SVG 1.1//EN"
  "http://www.w3.org/Graphics/SVG/1.1/DTD/svg11.dtd">
<svg xmlns:xlink="http://www.w3.org/1999/xlink" width="865.302344pt" height="265.689687pt" viewBox="0 0 865.302344 265.689687" xmlns="http://www.w3.org/2000/svg" version="1.1">
 <metadata>
  <rdf:RDF xmlns:dc="http://purl.org/dc/elements/1.1/" xmlns:cc="http://creativecommons.org/ns#" xmlns:rdf="http://www.w3.org/1999/02/22-rdf-syntax-ns#">
   <cc:Work>
    <dc:type rdf:resource="http://purl.org/dc/dcmitype/StillImage"/>
    <dc:date>2026-05-21T14:04:39.291711</dc:date>
    <dc:format>image/svg+xml</dc:format>
    <dc:creator>
     <cc:Agent>
      <dc:title>Matplotlib v3.10.1, https://matplotlib.org/</dc:title>
     </cc:Agent>
    </dc:creator>
   </cc:Work>
  </rdf:RDF>
 </metadata>
 <defs>
  <style type="text/css">*{stroke-linejoin: round; stroke-linecap: butt}</style>
 </defs>
 <g id="figure_1">
  <g id="patch_1">
   <path d="M 0 265.689687 
L 865.302344 265.689687 
L 865.302344 0 
L 0 0 
z
" style="fill: #ffffff"/>
  </g>
  <g id="axes_1">
   <g id="patch_2">
    <path d="M 7.2 228.96 
L 844.2 228.96 
L 844.2 7.2 
L 7.2 7.2 
z
" style="fill: #ffffff"/>
   </g>
   <g id="matplotlib.axis_1">
    <g id="xtick_1">
     <g id="line2d_1">
      <defs>
       <path id="ma2cabeca44" d="M 0 0 
L 0 3.5 
" style="stroke: #262626; stroke-width: 0.8"/>
      </defs>
      <g>
       <use xlink:href="#ma2cabeca44" x="48.221451" y="228.96" style="fill: #262626; stroke: #262626; stroke-width: 0.8"/>
      </g>
     </g>
     <g id="text_1">
      <text style="font-size: 10px; font-family: 'Arial', 'DejaVu Sans', 'Liberation Sans', 'Bitstream Vera Sans', sans-serif; text-anchor: middle; fill: #262626" x="48.221451" y="243.117812" transform="rotate(-0 48.221451 243.117812)">$1</text>
     </g>
    </g>
    <g id="xtick_2">
     <g id="line2d_2">
      <g>
       <use xlink:href="#ma2cabeca44" x="128.092591" y="228.96" style="fill: #262626; stroke: #262626; stroke-width: 0.8"/>
      </g>
     </g>
     <g id="text_2">
      <text style="font-size: 10px; font-family: 'Arial', 'DejaVu Sans', 'Liberation Sans', 'Bitstream Vera Sans', sans-serif; text-anchor: middle; fill: #262626" x="128.092591" y="243.117812" transform="rotate(-0 128.092591 243.117812)">$2</text>
     </g>
    </g>
    <g id="xtick_3">
     <g id="line2d_3">
      <g>
       <use xlink:href="#ma2cabeca44" x="233.676494" y="228.96" style="fill: #262626; stroke: #262626; stroke-width: 0.8"/>
      </g>
     </g>
     <g id="text_3">
      <text style="font-size: 10px; font-family: 'Arial', 'DejaVu Sans', 'Liberation Sans', 'Bitstream Vera Sans', sans-serif; text-anchor: middle; fill: #262626" x="233.676494" y="243.117812" transform="rotate(-0 233.676494 243.117812)">$5</text>
     </g>
    </g>
    <g id="xtick_4">
     <g id="line2d_4">
      <g>
       <use xlink:href="#ma2cabeca44" x="313.547634" y="228.96" style="fill: #262626; stroke: #262626; stroke-width: 0.8"/>
      </g>
     </g>
     <g id="text_4">
      <text style="font-size: 10px; font-family: 'Arial', 'DejaVu Sans', 'Liberation Sans', 'Bitstream Vera Sans', sans-serif; text-anchor: middle; fill: #262626" x="313.547634" y="243.117812" transform="rotate(-0 313.547634 243.117812)">$10</text>
     </g>
    </g>
    <g id="xtick_5">
     <g id="line2d_5">
      <g>
       <use xlink:href="#ma2cabeca44" x="393.418774" y="228.96" style="fill: #262626; stroke: #262626; stroke-width: 0.8"/>
      </g>
     </g>
     <g id="text_5">
      <text style="font-size: 10px; font-family: 'Arial', 'DejaVu Sans', 'Liberation Sans', 'Bitstream Vera Sans', sans-serif; text-anchor: middle; fill: #262626" x="393.418774" y="243.117812" transform="rotate(-0 393.418774 243.117812)">$20</text>
     </g>
    </g>
    <g id="xtick_6">
     <g id="line2d_6">
      <g>
       <use xlink:href="#ma2cabeca44" x="499.002677" y="228.96" style="fill: #262626; stroke: #262626; stroke-width: 0.8"/>
      </g>
     </g>
     <g id="text_6">
      <text style="font-size: 10px; font-family: 'Arial', 'DejaVu Sans', 'Liberation Sans', 'Bitstream Vera Sans', sans-serif; text-anchor: middle; fill: #262626" x="499.002677" y="243.117812" transform="rotate(-0 499.002677 243.117812)">$50</text>
     </g>
    </g>
    <g id="xtick_7">
     <g id="line2d_7">
      <g>
       <use xlink:href="#ma2cabeca44" x="578.873817" y="228.96" style="fill: #262626; stroke: #262626; stroke-width: 0.8"/>
      </g>
     </g>
     <g id="text_7">
      <text style="font-size: 10px; font-family: 'Arial', 'DejaVu Sans', 'Liberation Sans', 'Bitstream Vera Sans', sans-serif; text-anchor: middle; fill: #262626" x="578.873817" y="243.117812" transform="rotate(-0 578.873817 243.117812)">$100</text>
     </g>
    </g>
    <g id="xtick_8">
     <g id="line2d_8">
      <g>
       <use xlink:href="#ma2cabeca44" x="658.744957" y="228.96" style="fill: #262626; stroke: #262626; stroke-width: 0.8"/>
      </g>
     </g>
     <g id="text_8">
      <text style="font-size: 10px; font-family: 'Arial', 'DejaVu Sans', 'Liberation Sans', 'Bitstream Vera Sans', sans-serif; text-anchor: middle; fill: #262626" x="658.744957" y="243.117812" transform="rotate(-0 658.744957 243.117812)">$200</text>
     </g>
    </g>
    <g id="xtick_9">
     <g id="line2d_9">
      <g>
       <use xlink:href="#ma2cabeca44" x="764.32886" y="228.96" style="fill: #262626; stroke: #262626; stroke-width: 0.8"/>
      </g>
     </g>
     <g id="text_9">
      <text style="font-size: 10px; font-family: 'Arial', 'DejaVu Sans', 'Liberation Sans', 'Bitstream Vera Sans', sans-serif; text-anchor: middle; fill: #262626" x="764.32886" y="243.117812" transform="rotate(-0 764.32886 243.117812)">$500</text>
     </g>
    </g>
    <g id="xtick_10">
     <g id="line2d_10">
      <g>
       <use xlink:href="#ma2cabeca44" x="844.2" y="228.96" style="fill: #262626; stroke: #262626; stroke-width: 0.8"/>
      </g>
     </g>
     <g id="text_10">
      <text style="font-size: 10px; font-family: 'Arial', 'DejaVu Sans', 'Liberation Sans', 'Bitstream Vera Sans', sans-serif; text-anchor: middle; fill: #262626" x="844.2" y="243.117812" transform="rotate(-0 844.2 243.117812)">$1000</text>
     </g>
    </g>
    <g id="xtick_11">
     <g id="line2d_11">
      <defs>
       <path id="m81e658b18d" d="M 0 0 
L 0 2 
" style="stroke: #262626; stroke-width: 0.6"/>
      </defs>
      <g>
       <use xlink:href="#m81e658b18d" x="22.508687" y="228.96" style="fill: #262626; stroke: #262626; stroke-width: 0.6"/>
      </g>
     </g>
    </g>
    <g id="xtick_12">
     <g id="line2d_12">
      <g>
       <use xlink:href="#m81e658b18d" x="36.080791" y="228.96" style="fill: #262626; stroke: #262626; stroke-width: 0.6"/>
      </g>
     </g>
    </g>
    <g id="xtick_13">
     <g id="line2d_13">
      <g>
       <use xlink:href="#m81e658b18d" x="174.814212" y="228.96" style="fill: #262626; stroke: #262626; stroke-width: 0.6"/>
      </g>
     </g>
    </g>
    <g id="xtick_14">
     <g id="line2d_14">
      <g>
       <use xlink:href="#m81e658b18d" x="207.96373" y="228.96" style="fill: #262626; stroke: #262626; stroke-width: 0.6"/>
      </g>
     </g>
    </g>
    <g id="xtick_15">
     <g id="line2d_15">
      <g>
       <use xlink:href="#m81e658b18d" x="254.685352" y="228.96" style="fill: #262626; stroke: #262626; stroke-width: 0.6"/>
      </g>
     </g>
    </g>
    <g id="xtick_16">
     <g id="line2d_16">
      <g>
       <use xlink:href="#m81e658b18d" x="272.448088" y="228.96" style="fill: #262626; stroke: #262626; stroke-width: 0.6"/>
      </g>
     </g>
    </g>
    <g id="xtick_17">
     <g id="line2d_17">
      <g>
       <use xlink:href="#m81e658b18d" x="287.83487" y="228.96" style="fill: #262626; stroke: #262626; stroke-width: 0.6"/>
      </g>
     </g>
    </g>
    <g id="xtick_18">
     <g id="line2d_18">
      <g>
       <use xlink:href="#m81e658b18d" x="301.406974" y="228.96" style="fill: #262626; stroke: #262626; stroke-width: 0.6"/>
      </g>
     </g>
    </g>
    <g id="xtick_19">
     <g id="line2d_19">
      <g>
       <use xlink:href="#m81e658b18d" x="440.140395" y="228.96" style="fill: #262626; stroke: #262626; stroke-width: 0.6"/>
      </g>
     </g>
    </g>
    <g id="xtick_20">
     <g id="line2d_20">
      <g>
       <use xlink:href="#m81e658b18d" x="473.289913" y="228.96" style="fill: #262626; stroke: #262626; stroke-width: 0.6"/>
      </g>
     </g>
    </g>
    <g id="xtick_21">
     <g id="line2d_21">
      <g>
       <use xlink:href="#m81e658b18d" x="520.011535" y="228.96" style="fill: #262626; stroke: #262626; stroke-width: 0.6"/>
      </g>
     </g>
    </g>
    <g id="xtick_22">
     <g id="line2d_22">
      <g>
       <use xlink:href="#m81e658b18d" x="537.774271" y="228.96" style="fill: #262626; stroke: #262626; stroke-width: 0.6"/>
      </g>
     </g>
    </g>
    <g id="xtick_23">
     <g id="line2d_23">
      <g>
       <use xlink:href="#m81e658b18d" x="553.161053" y="228.96" style="fill: #262626; stroke: #262626; stroke-width: 0.6"/>
      </g>
     </g>
    </g>
    <g id="xtick_24">
     <g id="line2d_24">
      <g>
       <use xlink:href="#m81e658b18d" x="566.733157" y="228.96" style="fill: #262626; stroke: #262626; stroke-width: 0.6"/>
      </g>
     </g>
    </g>
    <g id="xtick_25">
     <g id="line2d_25">
      <g>
       <use xlink:href="#m81e658b18d" x="705.466578" y="228.96" style="fill: #262626; stroke: #262626; stroke-width: 0.6"/>
      </g>
     </g>
    </g>
    <g id="xtick_26">
     <g id="line2d_26">
      <g>
       <use xlink:href="#m81e658b18d" x="738.616096" y="228.96" style="fill: #262626; stroke: #262626; stroke-width: 0.6"/>
      </g>
     </g>
    </g>
    <g id="xtick_27">
     <g id="line2d_27">
      <g>
       <use xlink:href="#m81e658b18d" x="785.337718" y="228.96" style="fill: #262626; stroke: #262626; stroke-width: 0.6"/>
      </g>
     </g>
    </g>
    <g id="xtick_28">
     <g id="line2d_28">
      <g>
       <use xlink:href="#m81e658b18d" x="803.100454" y="228.96" style="fill: #262626; stroke: #262626; stroke-width: 0.6"/>
      </g>
     </g>
    </g>
    <g id="xtick_29">
     <g id="line2d_29">
      <g>
       <use xlink:href="#m81e658b18d" x="818.487236" y="228.96" style="fill: #262626; stroke: #262626; stroke-width: 0.6"/>
      </g>
     </g>
    </g>
    <g id="xtick_30">
     <g id="line2d_30">
      <g>
       <use xlink:href="#m81e658b18d" x="832.05934" y="228.96" style="fill: #262626; stroke: #262626; stroke-width: 0.6"/>
      </g>
     </g>
    </g>
    <g id="text_11">
     <text style="font-size: 10px; font-family: 'Arial', 'DejaVu Sans', 'Liberation Sans', 'Bitstream Vera Sans', sans-serif; text-anchor: middle; fill: #262626" x="425.7" y="256.385" transform="rotate(-0 425.7 256.385)">Income or consumption (day)</text>
    </g>
   </g>
   <g id="matplotlib.axis_2"/>
   <g id="FillBetweenPolyCollection_1">
    <defs>
     <path id="mdca7cf3094" d="M 40.024779 -36.800774 
L 40.024779 -36.729688 
L 41.786905 -36.729688 
L 43.549032 -36.729688 
L 45.311158 -36.729688 
L 47.073285 -36.729688 
L 48.835411 -36.729688 
L 50.597538 -36.729688 
L 52.359664 -36.729688 
L 54.12179 -36.729688 
L 55.883917 -36.729688 
L 57.646043 -36.729688 
L 59.40817 -36.729688 
L 61.170296 -36.729688 
L 62.932423 -36.729688 
L 64.694549 -36.729688 
L 66.456676 -36.729688 
L 68.218802 -36.729688 
L 69.980929 -36.729688 
L 71.743055 -36.729688 
L 73.505182 -36.729688 
L 75.267308 -36.729688 
L 77.029434 -36.729688 
L 78.791561 -36.729688 
L 80.553687 -36.729688 
L 82.315814 -36.729688 
L 84.07794 -36.729688 
L 85.840067 -36.729688 
L 87.602193 -36.729688 
L 89.36432 -36.729688 
L 91.126446 -36.729688 
L 92.888573 -36.729688 
L 94.650699 -36.729688 
L 96.412826 -36.729688 
L 98.174952 -36.729688 
L 99.937078 -36.729688 
L 101.699205 -36.729688 
L 103.461331 -36.729688 
L 105.223458 -36.729688 
L 106.985584 -36.729688 
L 108.747711 -36.729688 
L 110.509837 -36.729688 
L 112.271964 -36.729688 
L 114.03409 -36.729688 
L 115.796217 -36.729688 
L 117.558343 -36.729688 
L 119.32047 -36.729688 
L 121.082596 -36.729688 
L 122.844722 -36.729688 
L 124.606849 -36.729688 
L 126.368975 -36.729688 
L 128.131102 -36.729688 
L 129.893228 -36.729688 
L 131.655355 -36.729688 
L 133.417481 -36.729688 
L 135.179608 -36.729688 
L 136.941734 -36.729688 
L 138.703861 -36.729688 
L 140.465987 -36.729688 
L 142.228114 -36.729688 
L 143.99024 -36.729688 
L 145.752366 -36.729688 
L 147.514493 -36.729688 
L 149.276619 -36.729688 
L 151.038746 -36.729688 
L 152.800872 -36.729688 
L 154.562999 -36.729688 
L 156.325125 -36.729688 
L 158.087252 -36.729688 
L 159.849378 -36.729688 
L 161.611505 -36.729688 
L 163.373631 -36.729688 
L 165.135757 -36.729688 
L 166.897884 -36.729688 
L 168.66001 -36.729688 
L 170.422137 -36.729688 
L 172.184263 -36.729688 
L 173.94639 -36.729688 
L 175.708516 -36.729688 
L 177.470643 -36.729688 
L 179.232769 -36.729688 
L 180.994896 -36.729688 
L 182.757022 -36.729688 
L 184.519149 -36.729688 
L 186.281275 -36.729688 
L 188.043401 -36.729688 
L 189.805528 -36.729688 
L 191.567654 -36.729688 
L 193.329781 -36.729688 
L 195.091907 -36.729688 
L 196.854034 -36.729688 
L 198.61616 -36.729688 
L 200.378287 -36.729688 
L 202.140413 -36.729688 
L 203.90254 -36.729688 
L 205.664666 -36.729688 
L 207.426793 -36.729688 
L 209.188919 -36.729688 
L 210.951045 -36.729688 
L 212.713172 -36.729688 
L 214.475298 -36.729688 
L 216.237425 -36.729688 
L 217.999551 -36.729688 
L 219.761678 -36.729688 
L 221.523804 -36.729688 
L 223.285931 -36.729688 
L 225.048057 -36.729688 
L 226.810184 -36.729688 
L 228.57231 -36.729688 
L 230.334437 -36.729688 
L 232.096563 -36.729688 
L 233.858689 -36.729688 
L 235.620816 -36.729688 
L 237.382942 -36.729688 
L 239.145069 -36.729688 
L 240.907195 -36.729688 
L 242.669322 -36.729688 
L 244.431448 -36.729688 
L 246.193575 -36.729688 
L 247.955701 -36.729688 
L 249.717828 -36.729688 
L 251.479954 -36.729688 
L 253.242081 -36.729688 
L 255.004207 -36.729688 
L 256.766333 -36.729688 
L 258.52846 -36.729688 
L 260.290586 -36.729688 
L 262.052713 -36.729688 
L 263.814839 -36.729688 
L 265.576966 -36.729688 
L 267.339092 -36.729688 
L 269.101219 -36.729688 
L 270.863345 -36.729688 
L 272.625472 -36.729688 
L 274.387598 -36.729688 
L 276.149725 -36.729688 
L 277.911851 -36.729688 
L 279.673977 -36.729688 
L 281.436104 -36.729688 
L 283.19823 -36.729688 
L 284.960357 -36.729688 
L 286.722483 -36.729688 
L 288.48461 -36.729688 
L 290.246736 -36.729688 
L 292.008863 -36.729688 
L 293.770989 -36.729688 
L 295.533116 -36.729688 
L 297.295242 -36.729688 
L 299.057368 -36.729688 
L 300.819495 -36.729688 
L 302.581621 -36.729688 
L 304.343748 -36.729688 
L 306.105874 -36.729688 
L 307.868001 -36.729688 
L 309.630127 -36.729688 
L 311.392254 -36.729688 
L 313.15438 -36.729688 
L 314.916507 -36.729688 
L 316.678633 -36.729688 
L 318.44076 -36.729688 
L 320.202886 -36.729688 
L 321.965012 -36.729688 
L 323.727139 -36.729688 
L 325.489265 -36.729688 
L 327.251392 -36.729688 
L 329.013518 -36.729688 
L 330.775645 -36.729688 
L 332.537771 -36.729688 
L 334.299898 -36.729688 
L 336.062024 -36.729688 
L 337.824151 -36.729688 
L 339.586277 -36.729688 
L 341.348404 -36.729688 
L 343.11053 -36.729688 
L 344.872656 -36.729688 
L 346.634783 -36.729688 
L 348.396909 -36.729688 
L 350.159036 -36.729688 
L 351.921162 -36.729688 
L 353.683289 -36.729688 
L 355.445415 -36.729688 
L 357.207542 -36.729688 
L 358.969668 -36.729688 
L 360.731795 -36.729688 
L 362.493921 -36.729688 
L 364.256048 -36.729688 
L 366.018174 -36.729688 
L 367.7803 -36.729688 
L 369.542427 -36.729688 
L 371.304553 -36.729688 
L 373.06668 -36.729688 
L 374.828806 -36.729688 
L 376.590933 -36.729688 
L 378.353059 -36.729688 
L 380.115186 -36.729688 
L 381.877312 -36.729688 
L 383.639439 -36.729688 
L 385.401565 -36.729688 
L 387.163692 -36.729688 
L 388.925818 -36.729688 
L 390.687944 -36.729688 
L 390.687944 -36.830702 
L 390.687944 -36.830702 
L 388.925818 -36.862438 
L 387.163692 -36.902964 
L 385.401565 -36.954338 
L 383.639439 -37.018991 
L 381.877312 -37.099765 
L 380.115186 -37.199948 
L 378.353059 -37.323304 
L 376.590933 -37.474098 
L 374.828806 -37.657103 
L 373.06668 -37.877606 
L 371.304553 -38.141383 
L 369.542427 -38.454671 
L 367.7803 -38.824112 
L 366.018174 -39.256676 
L 364.256048 -39.759566 
L 362.493921 -40.340102 
L 360.731795 -41.005576 
L 358.969668 -41.763106 
L 357.207542 -42.619465 
L 355.445415 -43.580907 
L 353.683289 -44.652992 
L 351.921162 -45.840417 
L 350.159036 -47.146858 
L 348.396909 -48.574839 
L 346.634783 -50.125625 
L 344.872656 -51.799155 
L 343.11053 -53.594015 
L 341.348404 -55.507456 
L 339.586277 -57.53546 
L 337.824151 -59.672856 
L 336.062024 -61.913479 
L 334.299898 -64.250364 
L 332.537771 -66.675975 
L 330.775645 -69.182456 
L 329.013518 -71.761887 
L 327.251392 -74.406541 
L 325.489265 -77.109121 
L 323.727139 -79.862973 
L 321.965012 -82.662258 
L 320.202886 -85.502072 
L 318.44076 -88.378515 
L 316.678633 -91.288703 
L 314.916507 -94.230717 
L 313.15438 -97.203497 
L 311.392254 -100.206694 
L 309.630127 -103.240479 
L 307.868001 -106.305323 
L 306.105874 -109.401769 
L 304.343748 -112.530207 
L 302.581621 -115.690657 
L 300.819495 -118.882589 
L 299.057368 -122.104782 
L 297.295242 -125.355224 
L 295.533116 -128.631078 
L 293.770989 -131.928693 
L 292.008863 -135.243677 
L 290.246736 -138.571014 
L 288.48461 -141.905219 
L 286.722483 -145.240528 
L 284.960357 -148.571101 
L 283.19823 -151.891223 
L 281.436104 -155.1955 
L 279.673977 -158.479026 
L 277.911851 -161.737516 
L 276.149725 -164.967391 
L 274.387598 -168.165815 
L 272.625472 -171.330674 
L 270.863345 -174.4605 
L 269.101219 -177.554355 
L 267.339092 -180.611654 
L 265.576966 -183.631969 
L 263.814839 -186.614798 
L 262.052713 -189.559335 
L 260.290586 -192.464231 
L 258.52846 -195.327375 
L 256.766333 -198.145705 
L 255.004207 -200.91505 
L 253.242081 -203.630022 
L 251.479954 -206.283956 
L 249.717828 -208.868909 
L 247.955701 -211.375711 
L 246.193575 -213.794067 
L 244.431448 -216.112713 
L 242.669322 -218.319604 
L 240.907195 -220.402146 
L 239.145069 -222.347443 
L 237.382942 -224.142564 
L 235.620816 -225.774805 
L 233.858689 -227.231957 
L 232.096563 -228.502545 
L 230.334437 -229.576056 
L 228.57231 -230.443131 
L 226.810184 -231.095728 
L 225.048057 -231.527244 
L 223.285931 -231.732603 
L 221.523804 -231.708306 
L 219.761678 -231.452447 
L 217.999551 -230.964694 
L 216.237425 -230.246247 
L 214.475298 -229.299766 
L 212.713172 -228.129287 
L 210.951045 -226.740119 
L 209.188919 -225.138737 
L 207.426793 -223.332667 
L 205.664666 -221.330374 
L 203.90254 -219.141147 
L 202.140413 -216.774994 
L 200.378287 -214.242543 
L 198.61616 -211.554942 
L 196.854034 -208.723772 
L 195.091907 -205.760966 
L 193.329781 -202.67872 
L 191.567654 -199.489424 
L 189.805528 -196.205574 
L 188.043401 -192.839697 
L 186.281275 -189.404266 
L 184.519149 -185.911612 
L 182.757022 -182.373834 
L 180.994896 -178.802709 
L 179.232769 -175.209594 
L 177.470643 -171.605331 
L 175.708516 -168.000163 
L 173.94639 -164.403641 
L 172.184263 -160.824556 
L 170.422137 -157.270872 
L 168.66001 -153.749677 
L 166.897884 -150.267157 
L 165.135757 -146.828575 
L 163.373631 -143.438286 
L 161.611505 -140.099759 
L 159.849378 -136.815616 
L 158.087252 -133.5877 
L 156.325125 -130.41714 
L 154.562999 -127.304438 
L 152.800872 -124.24956 
L 151.038746 -121.252026 
L 149.276619 -118.311007 
L 147.514493 -115.425416 
L 145.752366 -112.593992 
L 143.99024 -109.815376 
L 142.228114 -107.088185 
L 140.465987 -104.411061 
L 138.703861 -101.782727 
L 136.941734 -99.202016 
L 135.179608 -96.667901 
L 133.417481 -94.179514 
L 131.655355 -91.736154 
L 129.893228 -89.337295 
L 128.131102 -86.982582 
L 126.368975 -84.671835 
L 124.606849 -82.405043 
L 122.844722 -80.182359 
L 121.082596 -78.0041 
L 119.32047 -75.870745 
L 117.558343 -73.782934 
L 115.796217 -71.741469 
L 114.03409 -69.747314 
L 112.271964 -67.801596 
L 110.509837 -65.9056 
L 108.747711 -64.060769 
L 106.985584 -62.268689 
L 105.223458 -60.531076 
L 103.461331 -58.849752 
L 101.699205 -57.226618 
L 99.937078 -55.663612 
L 98.174952 -54.162671 
L 96.412826 -52.725673 
L 94.650699 -51.35439 
L 92.888573 -50.05042 
L 91.126446 -48.815138 
L 89.36432 -47.649629 
L 87.602193 -46.554642 
L 85.840067 -45.530539 
L 84.07794 -44.577261 
L 82.315814 -43.694299 
L 80.553687 -42.880683 
L 78.791561 -42.134979 
L 77.029434 -41.455304 
L 75.267308 -40.83935 
L 73.505182 -40.284421 
L 71.743055 -39.787486 
L 69.980929 -39.345227 
L 68.218802 -38.954107 
L 66.456676 -38.610432 
L 64.694549 -38.310417 
L 62.932423 -38.050252 
L 61.170296 -37.826158 
L 59.40817 -37.634449 
L 57.646043 -37.471573 
L 55.883917 -37.334155 
L 54.12179 -37.219029 
L 52.359664 -37.123261 
L 50.597538 -37.044164 
L 48.835411 -36.979304 
L 47.073285 -36.926503 
L 45.311158 -36.88383 
L 43.549032 -36.849594 
L 41.786905 -36.822329 
L 40.024779 -36.800774 
z
" style="stroke: #dd8452"/>
    </defs>
    <g>
     <use xlink:href="#mdca7cf3094" x="0" y="265.689687" style="fill: #dd8452; fill-opacity: 0.25; stroke: #dd8452"/>
    </g>
   </g>
   <g id="FillBetweenPolyCollection_2">
    <defs>
     <path id="mae9edb1878" d="M 328.487075 -36.794212 
L 328.487075 -36.729688 
L 330.336489 -36.729688 
L 332.185902 -36.729688 
L 334.035316 -36.729688 
L 335.884729 -36.729688 
L 337.734143 -36.729688 
L 339.583556 -36.729688 
L 341.432969 -36.729688 
L 343.282383 -36.729688 
L 345.131796 -36.729688 
L 346.98121 -36.729688 
L 348.830623 -36.729688 
L 350.680037 -36.729688 
L 352.52945 -36.729688 
L 354.378864 -36.729688 
L 356.228277 -36.729688 
L 358.077691 -36.729688 
L 359.927104 -36.729688 
L 361.776518 -36.729688 
L 363.625931 -36.729688 
L 365.475345 -36.729688 
L 367.324758 -36.729688 
L 369.174171 -36.729688 
L 371.023585 -36.729688 
L 372.872998 -36.729688 
L 374.722412 -36.729688 
L 376.571825 -36.729688 
L 378.421239 -36.729688 
L 380.270652 -36.729688 
L 382.120066 -36.729688 
L 383.969479 -36.729688 
L 385.818893 -36.729688 
L 387.668306 -36.729688 
L 389.51772 -36.729688 
L 391.367133 -36.729688 
L 393.216546 -36.729688 
L 395.06596 -36.729688 
L 396.915373 -36.729688 
L 398.764787 -36.729688 
L 400.6142 -36.729688 
L 402.463614 -36.729688 
L 404.313027 -36.729688 
L 406.162441 -36.729688 
L 408.011854 -36.729688 
L 409.861268 -36.729688 
L 411.710681 -36.729688 
L 413.560095 -36.729688 
L 415.409508 -36.729688 
L 417.258922 -36.729688 
L 419.108335 -36.729688 
L 420.957748 -36.729688 
L 422.807162 -36.729688 
L 424.656575 -36.729688 
L 426.505989 -36.729688 
L 428.355402 -36.729688 
L 430.204816 -36.729688 
L 432.054229 -36.729688 
L 433.903643 -36.729688 
L 435.753056 -36.729688 
L 437.60247 -36.729688 
L 439.451883 -36.729688 
L 441.301297 -36.729688 
L 443.15071 -36.729688 
L 445.000124 -36.729688 
L 446.849537 -36.729688 
L 448.69895 -36.729688 
L 450.548364 -36.729688 
L 452.397777 -36.729688 
L 454.247191 -36.729688 
L 456.096604 -36.729688 
L 457.946018 -36.729688 
L 459.795431 -36.729688 
L 461.644845 -36.729688 
L 463.494258 -36.729688 
L 465.343672 -36.729688 
L 467.193085 -36.729688 
L 469.042499 -36.729688 
L 470.891912 -36.729688 
L 472.741325 -36.729688 
L 474.590739 -36.729688 
L 476.440152 -36.729688 
L 478.289566 -36.729688 
L 480.138979 -36.729688 
L 481.988393 -36.729688 
L 483.837806 -36.729688 
L 485.68722 -36.729688 
L 487.536633 -36.729688 
L 489.386047 -36.729688 
L 491.23546 -36.729688 
L 493.084874 -36.729688 
L 494.934287 -36.729688 
L 496.783701 -36.729688 
L 498.633114 -36.729688 
L 500.482527 -36.729688 
L 502.331941 -36.729688 
L 504.181354 -36.729688 
L 506.030768 -36.729688 
L 507.880181 -36.729688 
L 509.729595 -36.729688 
L 511.579008 -36.729688 
L 513.428422 -36.729688 
L 515.277835 -36.729688 
L 517.127249 -36.729688 
L 518.976662 -36.729688 
L 520.826076 -36.729688 
L 522.675489 -36.729688 
L 524.524902 -36.729688 
L 526.374316 -36.729688 
L 528.223729 -36.729688 
L 530.073143 -36.729688 
L 531.922556 -36.729688 
L 533.77197 -36.729688 
L 535.621383 -36.729688 
L 537.470797 -36.729688 
L 539.32021 -36.729688 
L 541.169624 -36.729688 
L 543.019037 -36.729688 
L 544.868451 -36.729688 
L 546.717864 -36.729688 
L 548.567278 -36.729688 
L 550.416691 -36.729688 
L 552.266104 -36.729688 
L 554.115518 -36.729688 
L 555.964931 -36.729688 
L 557.814345 -36.729688 
L 559.663758 -36.729688 
L 561.513172 -36.729688 
L 563.362585 -36.729688 
L 565.211999 -36.729688 
L 567.061412 -36.729688 
L 568.910826 -36.729688 
L 570.760239 -36.729688 
L 572.609653 -36.729688 
L 574.459066 -36.729688 
L 576.30848 -36.729688 
L 578.157893 -36.729688 
L 580.007306 -36.729688 
L 581.85672 -36.729688 
L 583.706133 -36.729688 
L 585.555547 -36.729688 
L 587.40496 -36.729688 
L 589.254374 -36.729688 
L 591.103787 -36.729688 
L 592.953201 -36.729688 
L 594.802614 -36.729688 
L 596.652028 -36.729688 
L 598.501441 -36.729688 
L 600.350855 -36.729688 
L 602.200268 -36.729688 
L 604.049681 -36.729688 
L 605.899095 -36.729688 
L 607.748508 -36.729688 
L 609.597922 -36.729688 
L 611.447335 -36.729688 
L 613.296749 -36.729688 
L 615.146162 -36.729688 
L 616.995576 -36.729688 
L 618.844989 -36.729688 
L 620.694403 -36.729688 
L 622.543816 -36.729688 
L 624.39323 -36.729688 
L 626.242643 -36.729688 
L 628.092057 -36.729688 
L 629.94147 -36.729688 
L 631.790883 -36.729688 
L 633.640297 -36.729688 
L 635.48971 -36.729688 
L 637.339124 -36.729688 
L 639.188537 -36.729688 
L 641.037951 -36.729688 
L 642.887364 -36.729688 
L 644.736778 -36.729688 
L 646.586191 -36.729688 
L 648.435605 -36.729688 
L 650.285018 -36.729688 
L 652.134432 -36.729688 
L 653.983845 -36.729688 
L 655.833258 -36.729688 
L 657.682672 -36.729688 
L 659.532085 -36.729688 
L 661.381499 -36.729688 
L 663.230912 -36.729688 
L 665.080326 -36.729688 
L 666.929739 -36.729688 
L 668.779153 -36.729688 
L 670.628566 -36.729688 
L 672.47798 -36.729688 
L 674.327393 -36.729688 
L 676.176807 -36.729688 
L 678.02622 -36.729688 
L 679.875634 -36.729688 
L 681.725047 -36.729688 
L 683.57446 -36.729688 
L 685.423874 -36.729688 
L 687.273287 -36.729688 
L 689.122701 -36.729688 
L 690.972114 -36.729688 
L 692.821528 -36.729688 
L 694.670941 -36.729688 
L 696.520355 -36.729688 
L 696.520355 -36.800619 
L 696.520355 -36.800619 
L 694.670941 -36.824156 
L 692.821528 -36.854473 
L 690.972114 -36.893175 
L 689.122701 -36.942147 
L 687.273287 -37.003573 
L 685.423874 -37.079948 
L 683.57446 -37.174089 
L 681.725047 -37.289134 
L 679.875634 -37.428529 
L 678.02622 -37.596005 
L 676.176807 -37.795548 
L 674.327393 -38.031347 
L 672.47798 -38.307739 
L 670.628566 -38.629141 
L 668.779153 -38.999983 
L 666.929739 -39.42462 
L 665.080326 -39.907269 
L 663.230912 -40.451929 
L 661.381499 -41.062324 
L 659.532085 -41.741851 
L 657.682672 -42.493554 
L 655.833258 -43.32011 
L 653.983845 -44.223836 
L 652.134432 -45.206722 
L 650.285018 -46.270475 
L 648.435605 -47.416584 
L 646.586191 -48.646394 
L 644.736778 -49.961177 
L 642.887364 -51.362215 
L 641.037951 -52.850858 
L 639.188537 -54.428577 
L 637.339124 -56.096992 
L 635.48971 -57.857875 
L 633.640297 -59.713125 
L 631.790883 -61.664719 
L 629.94147 -63.714632 
L 628.092057 -65.864738 
L 626.242643 -68.116692 
L 624.39323 -70.47181 
L 622.543816 -72.930933 
L 620.694403 -75.494314 
L 618.844989 -78.161505 
L 616.995576 -80.931275 
L 615.146162 -83.801553 
L 613.296749 -86.769398 
L 611.447335 -89.831015 
L 609.597922 -92.981791 
L 607.748508 -96.216384 
L 605.899095 -99.528822 
L 604.049681 -102.912646 
L 602.200268 -106.361066 
L 600.350855 -109.867125 
L 598.501441 -113.423874 
L 596.652028 -117.024544 
L 594.802614 -120.6627 
L 592.953201 -124.332381 
L 591.103787 -128.028207 
L 589.254374 -131.745461 
L 587.40496 -135.480128 
L 585.555547 -139.2289 
L 583.706133 -142.989132 
L 581.85672 -146.758774 
L 580.007306 -150.536249 
L 578.157893 -154.320317 
L 576.30848 -158.109904 
L 574.459066 -161.903915 
L 572.609653 -165.701049 
L 570.760239 -169.4996 
L 568.910826 -173.297283 
L 567.061412 -177.091075 
L 565.211999 -180.877083 
L 563.362585 -184.650447 
L 561.513172 -188.405293 
L 559.663758 -192.134718 
L 557.814345 -195.830828 
L 555.964931 -199.484817 
L 554.115518 -203.087079 
L 552.266104 -206.627357 
L 550.416691 -210.094909 
L 548.567278 -213.478688 
L 546.717864 -216.767508 
L 544.868451 -219.950208 
L 543.019037 -223.015785 
L 541.169624 -225.95348 
L 539.32021 -228.752837 
L 537.470797 -231.403698 
L 535.621383 -233.896164 
L 533.77197 -236.220498 
L 531.922556 -238.367004 
L 530.073143 -240.325881 
L 528.223729 -242.087062 
L 526.374316 -243.640075 
L 524.524902 -244.973919 
L 522.675489 -246.07699 
L 520.826076 -246.93707 
L 518.976662 -247.54138 
L 517.127249 -247.87672 
L 515.277835 -247.929688 
L 513.428422 -247.686974 
L 511.579008 -247.135737 
L 509.729595 -246.264026 
L 507.880181 -245.06125 
L 506.030768 -243.518666 
L 504.181354 -241.629856 
L 502.331941 -239.391183 
L 500.482527 -236.802194 
L 498.633114 -233.865944 
L 496.783701 -230.589235 
L 494.934287 -226.98275 
L 493.084874 -223.061072 
L 491.23546 -218.842591 
L 489.386047 -214.349292 
L 487.536633 -209.606443 
L 485.68722 -204.642183 
L 483.837806 -199.487041 
L 481.988393 -194.173384 
L 480.138979 -188.734834 
L 478.289566 -183.205664 
L 476.440152 -177.620188 
L 474.590739 -172.012182 
L 472.741325 -166.414333 
L 470.891912 -160.857737 
L 469.042499 -155.371465 
L 467.193085 -149.982188 
L 465.343672 -144.713882 
L 463.494258 -139.587602 
L 461.644845 -134.621338 
L 459.795431 -129.829931 
L 457.946018 -125.225066 
L 456.096604 -120.81532 
L 454.247191 -116.606264 
L 452.397777 -112.600619 
L 450.548364 -108.798442 
L 448.69895 -105.197356 
L 446.849537 -101.792804 
L 445.000124 -98.578319 
L 443.15071 -95.545819 
L 441.301297 -92.685906 
L 439.451883 -89.988175 
L 437.60247 -87.441522 
L 435.753056 -85.034447 
L 433.903643 -82.755351 
L 432.054229 -80.59281 
L 430.204816 -78.535836 
L 428.355402 -76.574104 
L 426.505989 -74.698146 
L 424.656575 -72.899502 
L 422.807162 -71.170831 
L 420.957748 -69.505962 
L 419.108335 -67.899908 
L 417.258922 -66.348811 
L 415.409508 -64.849857 
L 413.560095 -63.401138 
L 411.710681 -62.001486 
L 409.861268 -60.65028 
L 408.011854 -59.347251 
L 406.162441 -58.092284 
L 404.313027 -56.885237 
L 402.463614 -55.725794 
L 400.6142 -54.613344 
L 398.764787 -53.54692 
L 396.915373 -52.525166 
L 395.06596 -51.546367 
L 393.216546 -50.608507 
L 391.367133 -49.709369 
L 389.51772 -48.846653 
L 387.668306 -48.018107 
L 385.818893 -47.221657 
L 383.969479 -46.45552 
L 382.120066 -45.718298 
L 380.270652 -45.00904 
L 378.421239 -44.327268 
L 376.571825 -43.672967 
L 374.722412 -43.046537 
L 372.872998 -42.448724 
L 371.023585 -41.880514 
L 369.174171 -41.343024 
L 367.324758 -40.837386 
L 365.475345 -40.364628 
L 363.625931 -39.925571 
L 361.776518 -39.520746 
L 359.927104 -39.150327 
L 358.077691 -38.814096 
L 356.228277 -38.511426 
L 354.378864 -38.241294 
L 352.52945 -38.002312 
L 350.680037 -37.792774 
L 348.830623 -37.610717 
L 346.98121 -37.453986 
L 345.131796 -37.320308 
L 343.282383 -37.207355 
L 341.432969 -37.112808 
L 339.583556 -37.034413 
L 337.734143 -36.970024 
L 335.884729 -36.917639 
L 334.035316 -36.875423 
L 332.185902 -36.841724 
L 330.336489 -36.81508 
L 328.487075 -36.794212 
z
" style="stroke: #4c72b0"/>
    </defs>
    <g>
     <use xlink:href="#mae9edb1878" x="0" y="265.689687" style="fill: #4c72b0; fill-opacity: 0.25; stroke: #4c72b0"/>
    </g>
   </g>
   <g id="line2d_31">
    <path d="M 174.814212 228.96 
L 174.814212 7.2 
" style="fill: none; stroke-dasharray: 2.96,1.28; stroke-dashoffset: 0; stroke: #d3d3d3; stroke-width: 0.8"/>
   </g>
   <g id="line2d_32">
    <path d="M 404.120001 228.96 
L 404.120001 7.2 
" style="fill: none; stroke-dasharray: 2.96,1.28; stroke-dashoffset: 0; stroke: #d3d3d3; stroke-width: 0.8"/>
   </g>
   <g id="line2d_33">
    <path d="M 307.029047 228.96 
L 307.029047 7.2 
" style="fill: none; stroke-dasharray: 2.96,1.28; stroke-dashoffset: 0; stroke: #d3d3d3; stroke-width: 0.8"/>
   </g>
   <g id="line2d_34">
    <path d="M 7.2 228.96 
L 844.2 228.96 
" style="fill: none; stroke: #808080; stroke-width: 0.5; stroke-linecap: round"/>
   </g>
   <g id="text_12">
    <text style="font-size: 8px; font-family: 'Arial', 'DejaVu Sans', 'Liberation Sans', 'Bitstream Vera Sans', sans-serif; fill: #808080" transform="translate(181.067962 124.59635) rotate(-90)">International Poverty Line: $3.00</text>
   </g>
   <g id="text_13">
    <text style="font-size: 8px; font-family: 'Arial', 'DejaVu Sans', 'Liberation Sans', 'Bitstream Vera Sans', sans-serif; fill: #808080" transform="translate(409.846251 81.31135) rotate(-90)">World mean: $21.95</text>
   </g>
   <g id="text_14">
    <text style="font-size: 8px; font-family: 'Arial', 'DejaVu Sans', 'Liberation Sans', 'Bitstream Vera Sans', sans-serif; fill: #808080" transform="translate(312.755297 83.08885) rotate(-90)">World median: $9.45</text>
   </g>
   <g id="text_15">
    <text style="font-size: 10px; font-family: 'Arial', 'DejaVu Sans', 'Liberation Sans', 'Bitstream Vera Sans', sans-serif; text-anchor: middle" x="520.884939" y="226.855312" transform="rotate(-0 520.884939 226.855312)">Denmark (2023)</text>
   </g>
   <g id="text_16">
    <text style="font-size: 10px; font-family: 'Arial', 'DejaVu Sans', 'Liberation Sans', 'Bitstream Vera Sans', sans-serif; text-anchor: middle" x="223.697703" y="226.855312" transform="rotate(-0 223.697703 226.855312)">Syria (2022)</text>
   </g>
  </g>
 </g>
</svg>
