<?xml version="1.0" encoding="utf-8" standalone="no"?>
<!DOCTYPE svg PUBLIC "-//W3C//DTD SVG 1.1//EN"
  "http://www.w3.org/Graphics/SVG/1.1/DTD/svg11.dtd">
<svg xmlns:xlink="http://www.w3.org/1999/xlink" width="862.521875pt" height="265.689687pt" viewBox="0 0 862.521875 265.689687" xmlns="http://www.w3.org/2000/svg" version="1.1">
 <metadata>
  <rdf:RDF xmlns:dc="http://purl.org/dc/elements/1.1/" xmlns:cc="http://creativecommons.org/ns#" xmlns:rdf="http://www.w3.org/1999/02/22-rdf-syntax-ns#">
   <cc:Work>
    <dc:type rdf:resource="http://purl.org/dc/dcmitype/StillImage"/>
    <dc:date>2025-12-05T16:06:53.335935</dc:date>
    <dc:format>image/svg+xml</dc:format>
    <dc:creator>
     <cc:Agent>
      <dc:title>Matplotlib v3.10.1, https://matplotlib.org/</dc:title>
     </cc:Agent>
    </dc:creator>
   </cc:Work>
  </rdf:RDF>
 </metadata>
 <defs>
  <style type="text/css">*{stroke-linejoin: round; stroke-linecap: butt}</style>
 </defs>
 <g id="figure_1">
  <g id="patch_1">
   <path d="M 0 265.689687 
L 862.521875 265.689687 
L 862.521875 0 
L 0 0 
z
" style="fill: #ffffff"/>
  </g>
  <g id="axes_1">
   <g id="patch_2">
    <path d="M 7.2 228.96 
L 844.2 228.96 
L 844.2 7.2 
L 7.2 7.2 
z
" style="fill: #ffffff"/>
   </g>
   <g id="matplotlib.axis_1">
    <g id="xtick_1">
     <g id="line2d_1">
      <defs>
       <path id="mdb718c0328" d="M 0 0 
L 0 3.5 
" style="stroke: #262626; stroke-width: 0.8"/>
      </defs>
      <g>
       <use xlink:href="#mdb718c0328" x="199.26392" y="228.96" style="fill: #262626; stroke: #262626; stroke-width: 0.8"/>
      </g>
     </g>
     <g id="text_1">
      <text style="font-size: 10px; font-family: 'Arial', 'DejaVu Sans', 'Liberation Sans', 'Bitstream Vera Sans', sans-serif; text-anchor: middle; fill: #262626" x="199.26392" y="243.117812" transform="rotate(-0 199.26392 243.117812)">1</text>
     </g>
    </g>
    <g id="xtick_2">
     <g id="line2d_2">
      <g>
       <use xlink:href="#mdb718c0328" x="263.978956" y="228.96" style="fill: #262626; stroke: #262626; stroke-width: 0.8"/>
      </g>
     </g>
     <g id="text_2">
      <text style="font-size: 10px; font-family: 'Arial', 'DejaVu Sans', 'Liberation Sans', 'Bitstream Vera Sans', sans-serif; text-anchor: middle; fill: #262626" x="263.978956" y="243.117812" transform="rotate(-0 263.978956 243.117812)">2</text>
     </g>
    </g>
    <g id="xtick_3">
     <g id="line2d_3">
      <g>
       <use xlink:href="#mdb718c0328" x="349.527579" y="228.96" style="fill: #262626; stroke: #262626; stroke-width: 0.8"/>
      </g>
     </g>
     <g id="text_3">
      <text style="font-size: 10px; font-family: 'Arial', 'DejaVu Sans', 'Liberation Sans', 'Bitstream Vera Sans', sans-serif; text-anchor: middle; fill: #262626" x="349.527579" y="243.117812" transform="rotate(-0 349.527579 243.117812)">5</text>
     </g>
    </g>
    <g id="xtick_4">
     <g id="line2d_4">
      <g>
       <use xlink:href="#mdb718c0328" x="414.242614" y="228.96" style="fill: #262626; stroke: #262626; stroke-width: 0.8"/>
      </g>
     </g>
     <g id="text_4">
      <text style="font-size: 10px; font-family: 'Arial', 'DejaVu Sans', 'Liberation Sans', 'Bitstream Vera Sans', sans-serif; text-anchor: middle; fill: #262626" x="414.242614" y="243.117812" transform="rotate(-0 414.242614 243.117812)">10</text>
     </g>
    </g>
    <g id="xtick_5">
     <g id="line2d_5">
      <g>
       <use xlink:href="#mdb718c0328" x="478.957649" y="228.96" style="fill: #262626; stroke: #262626; stroke-width: 0.8"/>
      </g>
     </g>
     <g id="text_5">
      <text style="font-size: 10px; font-family: 'Arial', 'DejaVu Sans', 'Liberation Sans', 'Bitstream Vera Sans', sans-serif; text-anchor: middle; fill: #262626" x="478.957649" y="243.117812" transform="rotate(-0 478.957649 243.117812)">20</text>
     </g>
    </g>
    <g id="xtick_6">
     <g id="line2d_6">
      <g>
       <use xlink:href="#mdb718c0328" x="564.506272" y="228.96" style="fill: #262626; stroke: #262626; stroke-width: 0.8"/>
      </g>
     </g>
     <g id="text_6">
      <text style="font-size: 10px; font-family: 'Arial', 'DejaVu Sans', 'Liberation Sans', 'Bitstream Vera Sans', sans-serif; text-anchor: middle; fill: #262626" x="564.506272" y="243.117812" transform="rotate(-0 564.506272 243.117812)">50</text>
     </g>
    </g>
    <g id="xtick_7">
     <g id="line2d_7">
      <g>
       <use xlink:href="#mdb718c0328" x="629.221307" y="228.96" style="fill: #262626; stroke: #262626; stroke-width: 0.8"/>
      </g>
     </g>
     <g id="text_7">
      <text style="font-size: 10px; font-family: 'Arial', 'DejaVu Sans', 'Liberation Sans', 'Bitstream Vera Sans', sans-serif; text-anchor: middle; fill: #262626" x="629.221307" y="243.117812" transform="rotate(-0 629.221307 243.117812)">100</text>
     </g>
    </g>
    <g id="xtick_8">
     <g id="line2d_8">
      <g>
       <use xlink:href="#mdb718c0328" x="693.936342" y="228.96" style="fill: #262626; stroke: #262626; stroke-width: 0.8"/>
      </g>
     </g>
     <g id="text_8">
      <text style="font-size: 10px; font-family: 'Arial', 'DejaVu Sans', 'Liberation Sans', 'Bitstream Vera Sans', sans-serif; text-anchor: middle; fill: #262626" x="693.936342" y="243.117812" transform="rotate(-0 693.936342 243.117812)">200</text>
     </g>
    </g>
    <g id="xtick_9">
     <g id="line2d_9">
      <g>
       <use xlink:href="#mdb718c0328" x="779.484965" y="228.96" style="fill: #262626; stroke: #262626; stroke-width: 0.8"/>
      </g>
     </g>
     <g id="text_9">
      <text style="font-size: 10px; font-family: 'Arial', 'DejaVu Sans', 'Liberation Sans', 'Bitstream Vera Sans', sans-serif; text-anchor: middle; fill: #262626" x="779.484965" y="243.117812" transform="rotate(-0 779.484965 243.117812)">500</text>
     </g>
    </g>
    <g id="xtick_10">
     <g id="line2d_10">
      <g>
       <use xlink:href="#mdb718c0328" x="844.2" y="228.96" style="fill: #262626; stroke: #262626; stroke-width: 0.8"/>
      </g>
     </g>
     <g id="text_10">
      <text style="font-size: 10px; font-family: 'Arial', 'DejaVu Sans', 'Liberation Sans', 'Bitstream Vera Sans', sans-serif; text-anchor: middle; fill: #262626" x="844.2" y="243.117812" transform="rotate(-0 844.2 243.117812)">1000</text>
     </g>
    </g>
    <g id="xtick_11">
     <g id="line2d_11">
      <defs>
       <path id="m600d969a92" d="M 0 0 
L 0 2 
" style="stroke: #262626; stroke-width: 0.6"/>
      </defs>
      <g>
       <use xlink:href="#m600d969a92" x="49.000262" y="228.96" style="fill: #262626; stroke: #262626; stroke-width: 0.6"/>
      </g>
     </g>
    </g>
    <g id="xtick_12">
     <g id="line2d_12">
      <g>
       <use xlink:href="#m600d969a92" x="86.856131" y="228.96" style="fill: #262626; stroke: #262626; stroke-width: 0.6"/>
      </g>
     </g>
    </g>
    <g id="xtick_13">
     <g id="line2d_13">
      <g>
       <use xlink:href="#m600d969a92" x="113.715297" y="228.96" style="fill: #262626; stroke: #262626; stroke-width: 0.6"/>
      </g>
     </g>
    </g>
    <g id="xtick_14">
     <g id="line2d_14">
      <g>
       <use xlink:href="#m600d969a92" x="134.548885" y="228.96" style="fill: #262626; stroke: #262626; stroke-width: 0.6"/>
      </g>
     </g>
    </g>
    <g id="xtick_15">
     <g id="line2d_15">
      <g>
       <use xlink:href="#m600d969a92" x="151.571166" y="228.96" style="fill: #262626; stroke: #262626; stroke-width: 0.6"/>
      </g>
     </g>
    </g>
    <g id="xtick_16">
     <g id="line2d_16">
      <g>
       <use xlink:href="#m600d969a92" x="165.9633" y="228.96" style="fill: #262626; stroke: #262626; stroke-width: 0.6"/>
      </g>
     </g>
    </g>
    <g id="xtick_17">
     <g id="line2d_17">
      <g>
       <use xlink:href="#m600d969a92" x="178.430332" y="228.96" style="fill: #262626; stroke: #262626; stroke-width: 0.6"/>
      </g>
     </g>
    </g>
    <g id="xtick_18">
     <g id="line2d_18">
      <g>
       <use xlink:href="#m600d969a92" x="189.427035" y="228.96" style="fill: #262626; stroke: #262626; stroke-width: 0.6"/>
      </g>
     </g>
    </g>
    <g id="xtick_19">
     <g id="line2d_19">
      <g>
       <use xlink:href="#m600d969a92" x="301.834824" y="228.96" style="fill: #262626; stroke: #262626; stroke-width: 0.6"/>
      </g>
     </g>
    </g>
    <g id="xtick_20">
     <g id="line2d_20">
      <g>
       <use xlink:href="#m600d969a92" x="328.693991" y="228.96" style="fill: #262626; stroke: #262626; stroke-width: 0.6"/>
      </g>
     </g>
    </g>
    <g id="xtick_21">
     <g id="line2d_21">
      <g>
       <use xlink:href="#m600d969a92" x="366.549859" y="228.96" style="fill: #262626; stroke: #262626; stroke-width: 0.6"/>
      </g>
     </g>
    </g>
    <g id="xtick_22">
     <g id="line2d_22">
      <g>
       <use xlink:href="#m600d969a92" x="380.941993" y="228.96" style="fill: #262626; stroke: #262626; stroke-width: 0.6"/>
      </g>
     </g>
    </g>
    <g id="xtick_23">
     <g id="line2d_23">
      <g>
       <use xlink:href="#m600d969a92" x="393.409026" y="228.96" style="fill: #262626; stroke: #262626; stroke-width: 0.6"/>
      </g>
     </g>
    </g>
    <g id="xtick_24">
     <g id="line2d_24">
      <g>
       <use xlink:href="#m600d969a92" x="404.405728" y="228.96" style="fill: #262626; stroke: #262626; stroke-width: 0.6"/>
      </g>
     </g>
    </g>
    <g id="xtick_25">
     <g id="line2d_25">
      <g>
       <use xlink:href="#m600d969a92" x="516.813517" y="228.96" style="fill: #262626; stroke: #262626; stroke-width: 0.6"/>
      </g>
     </g>
    </g>
    <g id="xtick_26">
     <g id="line2d_26">
      <g>
       <use xlink:href="#m600d969a92" x="543.672684" y="228.96" style="fill: #262626; stroke: #262626; stroke-width: 0.6"/>
      </g>
     </g>
    </g>
    <g id="xtick_27">
     <g id="line2d_27">
      <g>
       <use xlink:href="#m600d969a92" x="581.528553" y="228.96" style="fill: #262626; stroke: #262626; stroke-width: 0.6"/>
      </g>
     </g>
    </g>
    <g id="xtick_28">
     <g id="line2d_28">
      <g>
       <use xlink:href="#m600d969a92" x="595.920686" y="228.96" style="fill: #262626; stroke: #262626; stroke-width: 0.6"/>
      </g>
     </g>
    </g>
    <g id="xtick_29">
     <g id="line2d_29">
      <g>
       <use xlink:href="#m600d969a92" x="608.387719" y="228.96" style="fill: #262626; stroke: #262626; stroke-width: 0.6"/>
      </g>
     </g>
    </g>
    <g id="xtick_30">
     <g id="line2d_30">
      <g>
       <use xlink:href="#m600d969a92" x="619.384421" y="228.96" style="fill: #262626; stroke: #262626; stroke-width: 0.6"/>
      </g>
     </g>
    </g>
    <g id="xtick_31">
     <g id="line2d_31">
      <g>
       <use xlink:href="#m600d969a92" x="731.792211" y="228.96" style="fill: #262626; stroke: #262626; stroke-width: 0.6"/>
      </g>
     </g>
    </g>
    <g id="xtick_32">
     <g id="line2d_32">
      <g>
       <use xlink:href="#m600d969a92" x="758.651377" y="228.96" style="fill: #262626; stroke: #262626; stroke-width: 0.6"/>
      </g>
     </g>
    </g>
    <g id="xtick_33">
     <g id="line2d_33">
      <g>
       <use xlink:href="#m600d969a92" x="796.507246" y="228.96" style="fill: #262626; stroke: #262626; stroke-width: 0.6"/>
      </g>
     </g>
    </g>
    <g id="xtick_34">
     <g id="line2d_34">
      <g>
       <use xlink:href="#m600d969a92" x="810.899379" y="228.96" style="fill: #262626; stroke: #262626; stroke-width: 0.6"/>
      </g>
     </g>
    </g>
    <g id="xtick_35">
     <g id="line2d_35">
      <g>
       <use xlink:href="#m600d969a92" x="823.366412" y="228.96" style="fill: #262626; stroke: #262626; stroke-width: 0.6"/>
      </g>
     </g>
    </g>
    <g id="xtick_36">
     <g id="line2d_36">
      <g>
       <use xlink:href="#m600d969a92" x="834.363114" y="228.96" style="fill: #262626; stroke: #262626; stroke-width: 0.6"/>
      </g>
     </g>
    </g>
    <g id="text_11">
     <text style="font-size: 10px; font-family: 'Arial', 'DejaVu Sans', 'Liberation Sans', 'Bitstream Vera Sans', sans-serif; text-anchor: middle; fill: #262626" x="425.7" y="256.385" transform="rotate(-0 425.7 256.385)">Income or consumption (day)</text>
    </g>
   </g>
   <g id="matplotlib.axis_2"/>
   <g id="FillBetweenPolyCollection_1">
    <defs>
     <path id="mc1d22bea3c" d="M 41.62095 -36.77509 
L 41.62095 -36.729688 
L 43.82021 -36.729688 
L 46.01947 -36.729688 
L 48.21873 -36.729688 
L 50.41799 -36.729688 
L 52.61725 -36.729688 
L 54.81651 -36.729688 
L 57.015769 -36.729688 
L 59.215029 -36.729688 
L 61.414289 -36.729688 
L 63.613549 -36.729688 
L 65.812809 -36.729688 
L 68.012069 -36.729688 
L 70.211328 -36.729688 
L 72.410588 -36.729688 
L 74.609848 -36.729688 
L 76.809108 -36.729688 
L 79.008368 -36.729688 
L 81.207628 -36.729688 
L 83.406888 -36.729688 
L 85.606147 -36.729688 
L 87.805407 -36.729688 
L 90.004667 -36.729688 
L 92.203927 -36.729688 
L 94.403187 -36.729688 
L 96.602447 -36.729688 
L 98.801706 -36.729688 
L 101.000966 -36.729688 
L 103.200226 -36.729688 
L 105.399486 -36.729688 
L 107.598746 -36.729688 
L 109.798006 -36.729688 
L 111.997266 -36.729688 
L 114.196525 -36.729688 
L 116.395785 -36.729688 
L 118.595045 -36.729688 
L 120.794305 -36.729688 
L 122.993565 -36.729688 
L 125.192825 -36.729688 
L 127.392084 -36.729688 
L 129.591344 -36.729688 
L 131.790604 -36.729688 
L 133.989864 -36.729688 
L 136.189124 -36.729688 
L 138.388384 -36.729688 
L 140.587644 -36.729688 
L 142.786903 -36.729688 
L 144.986163 -36.729688 
L 147.185423 -36.729688 
L 149.384683 -36.729688 
L 151.583943 -36.729688 
L 153.783203 -36.729688 
L 155.982462 -36.729688 
L 158.181722 -36.729688 
L 160.380982 -36.729688 
L 162.580242 -36.729688 
L 164.779502 -36.729688 
L 166.978762 -36.729688 
L 169.178022 -36.729688 
L 171.377281 -36.729688 
L 173.576541 -36.729688 
L 175.775801 -36.729688 
L 177.975061 -36.729688 
L 180.174321 -36.729688 
L 182.373581 -36.729688 
L 184.57284 -36.729688 
L 186.7721 -36.729688 
L 188.97136 -36.729688 
L 191.17062 -36.729688 
L 193.36988 -36.729688 
L 195.56914 -36.729688 
L 197.7684 -36.729688 
L 199.967659 -36.729688 
L 202.166919 -36.729688 
L 204.366179 -36.729688 
L 206.565439 -36.729688 
L 208.764699 -36.729688 
L 210.963959 -36.729688 
L 213.163218 -36.729688 
L 215.362478 -36.729688 
L 217.561738 -36.729688 
L 219.760998 -36.729688 
L 221.960258 -36.729688 
L 224.159518 -36.729688 
L 226.358777 -36.729688 
L 228.558037 -36.729688 
L 230.757297 -36.729688 
L 232.956557 -36.729688 
L 235.155817 -36.729688 
L 237.355077 -36.729688 
L 239.554337 -36.729688 
L 241.753596 -36.729688 
L 243.952856 -36.729688 
L 246.152116 -36.729688 
L 248.351376 -36.729688 
L 250.550636 -36.729688 
L 252.749896 -36.729688 
L 254.949155 -36.729688 
L 257.148415 -36.729688 
L 259.347675 -36.729688 
L 261.546935 -36.729688 
L 263.746195 -36.729688 
L 265.945455 -36.729688 
L 268.144715 -36.729688 
L 270.343974 -36.729688 
L 272.543234 -36.729688 
L 274.742494 -36.729688 
L 276.941754 -36.729688 
L 279.141014 -36.729688 
L 281.340274 -36.729688 
L 283.539533 -36.729688 
L 285.738793 -36.729688 
L 287.938053 -36.729688 
L 290.137313 -36.729688 
L 292.336573 -36.729688 
L 294.535833 -36.729688 
L 296.735093 -36.729688 
L 298.934352 -36.729688 
L 301.133612 -36.729688 
L 303.332872 -36.729688 
L 305.532132 -36.729688 
L 307.731392 -36.729688 
L 309.930652 -36.729688 
L 312.129911 -36.729688 
L 314.329171 -36.729688 
L 316.528431 -36.729688 
L 318.727691 -36.729688 
L 320.926951 -36.729688 
L 323.126211 -36.729688 
L 325.325471 -36.729688 
L 327.52473 -36.729688 
L 329.72399 -36.729688 
L 331.92325 -36.729688 
L 334.12251 -36.729688 
L 336.32177 -36.729688 
L 338.52103 -36.729688 
L 340.720289 -36.729688 
L 342.919549 -36.729688 
L 345.118809 -36.729688 
L 347.318069 -36.729688 
L 349.517329 -36.729688 
L 351.716589 -36.729688 
L 353.915849 -36.729688 
L 356.115108 -36.729688 
L 358.314368 -36.729688 
L 360.513628 -36.729688 
L 362.712888 -36.729688 
L 364.912148 -36.729688 
L 367.111408 -36.729688 
L 369.310667 -36.729688 
L 371.509927 -36.729688 
L 373.709187 -36.729688 
L 375.908447 -36.729688 
L 378.107707 -36.729688 
L 380.306967 -36.729688 
L 382.506227 -36.729688 
L 384.705486 -36.729688 
L 386.904746 -36.729688 
L 389.104006 -36.729688 
L 391.303266 -36.729688 
L 393.502526 -36.729688 
L 395.701786 -36.729688 
L 397.901045 -36.729688 
L 400.100305 -36.729688 
L 402.299565 -36.729688 
L 404.498825 -36.729688 
L 406.698085 -36.729688 
L 408.897345 -36.729688 
L 411.096605 -36.729688 
L 413.295864 -36.729688 
L 415.495124 -36.729688 
L 417.694384 -36.729688 
L 419.893644 -36.729688 
L 422.092904 -36.729688 
L 424.292164 -36.729688 
L 426.491423 -36.729688 
L 428.690683 -36.729688 
L 430.889943 -36.729688 
L 433.089203 -36.729688 
L 435.288463 -36.729688 
L 437.487723 -36.729688 
L 439.686983 -36.729688 
L 441.886242 -36.729688 
L 444.085502 -36.729688 
L 446.284762 -36.729688 
L 448.484022 -36.729688 
L 450.683282 -36.729688 
L 452.882542 -36.729688 
L 455.081801 -36.729688 
L 457.281061 -36.729688 
L 459.480321 -36.729688 
L 461.679581 -36.729688 
L 463.878841 -36.729688 
L 466.078101 -36.729688 
L 468.27736 -36.729688 
L 470.47662 -36.729688 
L 472.67588 -36.729688 
L 474.87514 -36.729688 
L 477.0744 -36.729688 
L 479.27366 -36.729688 
L 479.27366 -36.74255 
L 479.27366 -36.74255 
L 477.0744 -36.749342 
L 474.87514 -36.759234 
L 472.67588 -36.77339 
L 470.47662 -36.793296 
L 468.27736 -36.820798 
L 466.078101 -36.858135 
L 463.878841 -36.907945 
L 461.679581 -36.973244 
L 459.480321 -37.057373 
L 457.281061 -37.163896 
L 455.081801 -37.296461 
L 452.882542 -37.458621 
L 450.683282 -37.653621 
L 448.484022 -37.884165 
L 446.284762 -38.152189 
L 444.085502 -38.458654 
L 441.886242 -38.803393 
L 439.686983 -39.185023 
L 437.487723 -39.600951 
L 435.288463 -40.047478 
L 433.089203 -40.519996 
L 430.889943 -41.013281 
L 428.690683 -41.521839 
L 426.491423 -42.040298 
L 424.292164 -42.563781 
L 422.092904 -43.08826 
L 419.893644 -43.61082 
L 417.694384 -44.129841 
L 415.495124 -44.645055 
L 413.295864 -45.157505 
L 411.096605 -45.669387 
L 408.897345 -46.18381 
L 406.698085 -46.704499 
L 404.498825 -47.235469 
L 402.299565 -47.780696 
L 400.100305 -48.343817 
L 397.901045 -48.92789 
L 395.701786 -49.535223 
L 393.502526 -50.167283 
L 391.303266 -50.824714 
L 389.104006 -51.507438 
L 386.904746 -52.214851 
L 384.705486 -52.946096 
L 382.506227 -53.700394 
L 380.306967 -54.477395 
L 378.107707 -55.277519 
L 375.908447 -56.102245 
L 373.709187 -56.954298 
L 371.509927 -57.837708 
L 369.310667 -58.757707 
L 367.111408 -59.72047 
L 364.912148 -60.7327 
L 362.712888 -61.801105 
L 360.513628 -62.931823 
L 358.314368 -64.129848 
L 356.115108 -65.398545 
L 353.915849 -66.739294 
L 351.716589 -68.151322 
L 349.517329 -69.631733 
L 347.318069 -71.175728 
L 345.118809 -72.776984 
L 342.919549 -74.428152 
L 340.720289 -76.121403 
L 338.52103 -77.848979 
L 336.32177 -79.603701 
L 334.12251 -81.379409 
L 331.92325 -83.171308 
L 329.72399 -84.976235 
L 327.52473 -86.792836 
L 325.325471 -88.621658 
L 323.126211 -90.465155 
L 320.926951 -92.327588 
L 318.727691 -94.214807 
L 316.528431 -96.133886 
L 314.329171 -98.092622 
L 312.129911 -100.098898 
L 309.930652 -102.15994 
L 307.731392 -104.281559 
L 305.532132 -106.467424 
L 303.332872 -108.718491 
L 301.133612 -111.032648 
L 298.934352 -113.40465 
L 296.735093 -115.826371 
L 294.535833 -118.287343 
L 292.336573 -120.775536 
L 290.137313 -123.278262 
L 287.938053 -125.783108 
L 285.738793 -128.278752 
L 283.539533 -130.755575 
L 281.340274 -133.206003 
L 279.141014 -135.624543 
L 276.941754 -138.007547 
L 274.742494 -140.352763 
L 272.543234 -142.65876 
L 270.343974 -144.924331 
L 268.144715 -147.14795 
L 265.945455 -149.327367 
L 263.746195 -151.459345 
L 261.546935 -153.539545 
L 259.347675 -155.562529 
L 257.148415 -157.521803 
L 254.949155 -159.409858 
L 252.749896 -161.218164 
L 250.550636 -162.937085 
L 248.351376 -164.555737 
L 246.152116 -166.061834 
L 243.952856 -167.441572 
L 241.753596 -168.679652 
L 239.554337 -169.759476 
L 237.355077 -170.663585 
L 235.155817 -171.374318 
L 232.956557 -171.874681 
L 230.757297 -172.14932 
L 228.558037 -172.185531 
L 226.358777 -171.974168 
L 224.159518 -171.510361 
L 221.960258 -170.793962 
L 219.760998 -169.829678 
L 217.561738 -168.626878 
L 215.362478 -167.19912 
L 213.163218 -165.563443 
L 210.963959 -163.739506 
L 208.764699 -161.748638 
L 206.565439 -159.612881 
L 204.366179 -157.354074 
L 202.166919 -154.993015 
L 199.967659 -152.548758 
L 197.7684 -150.038051 
L 195.56914 -147.474952 
L 193.36988 -144.870649 
L 191.17062 -142.233494 
L 188.97136 -139.569265 
L 186.7721 -136.881637 
L 184.57284 -134.172825 
L 182.373581 -131.444348 
L 180.174321 -128.69782 
L 177.975061 -125.935684 
L 175.775801 -123.161791 
L 173.576541 -120.381745 
L 171.377281 -117.602959 
L 169.178022 -114.834409 
L 166.978762 -112.086125 
L 164.779502 -109.368453 
L 162.580242 -106.691225 
L 160.380982 -104.06292 
L 158.181722 -101.489944 
L 155.982462 -98.97613 
L 153.783203 -96.52252 
L 151.583943 -94.127469 
L 149.384683 -91.787058 
L 147.185423 -89.495752 
L 144.986163 -87.247247 
L 142.786903 -85.035378 
L 140.587644 -82.854994 
L 138.388384 -80.702697 
L 136.189124 -78.577364 
L 133.989864 -76.480399 
L 131.790604 -74.415696 
L 129.591344 -72.38932 
L 127.392084 -70.408949 
L 125.192825 -68.483139 
L 122.993565 -66.620484 
L 120.794305 -64.828769 
L 118.595045 -63.114184 
L 116.395785 -61.480686 
L 114.196525 -59.929578 
L 111.997266 -58.459336 
L 109.798006 -57.065704 
L 107.598746 -55.742071 
L 105.399486 -54.480069 
L 103.200226 -53.270361 
L 101.000966 -52.103521 
L 98.801706 -50.970939 
L 96.602447 -49.865633 
L 94.403187 -48.782902 
L 92.203927 -47.720741 
L 90.004667 -46.679982 
L 87.805407 -45.664136 
L 85.606147 -44.678981 
L 83.406888 -43.73192 
L 81.207628 -42.831217 
L 79.008368 -41.985163 
L 76.809108 -41.201299 
L 74.609848 -40.485743 
L 72.410588 -39.8427 
L 70.211328 -39.274183 
L 68.012069 -38.779946 
L 65.812809 -38.357626 
L 63.613549 -38.003027 
L 61.414289 -37.710528 
L 59.215029 -37.473542 
L 57.015769 -37.284967 
L 54.81651 -37.137613 
L 52.61725 -37.024547 
L 50.41799 -36.939363 
L 48.21873 -36.876348 
L 46.01947 -36.830579 
L 43.82021 -36.797941 
L 41.62095 -36.77509 
z
" style="stroke: #dd8452"/>
    </defs>
    <g>
     <use xlink:href="#mc1d22bea3c" x="0" y="265.689687" style="fill: #dd8452; fill-opacity: 0.25; stroke: #dd8452"/>
    </g>
   </g>
   <g id="FillBetweenPolyCollection_2">
    <defs>
     <path id="m141e432c18" d="M 407.612467 -36.74131 
L 407.612467 -36.729688 
L 409.232705 -36.729688 
L 410.852944 -36.729688 
L 412.473183 -36.729688 
L 414.093421 -36.729688 
L 415.71366 -36.729688 
L 417.333899 -36.729688 
L 418.954137 -36.729688 
L 420.574376 -36.729688 
L 422.194615 -36.729688 
L 423.814853 -36.729688 
L 425.435092 -36.729688 
L 427.055331 -36.729688 
L 428.675569 -36.729688 
L 430.295808 -36.729688 
L 431.916047 -36.729688 
L 433.536285 -36.729688 
L 435.156524 -36.729688 
L 436.776763 -36.729688 
L 438.397001 -36.729688 
L 440.01724 -36.729688 
L 441.637479 -36.729688 
L 443.257717 -36.729688 
L 444.877956 -36.729688 
L 446.498195 -36.729688 
L 448.118433 -36.729688 
L 449.738672 -36.729688 
L 451.358911 -36.729688 
L 452.979149 -36.729688 
L 454.599388 -36.729688 
L 456.219627 -36.729688 
L 457.839865 -36.729688 
L 459.460104 -36.729688 
L 461.080343 -36.729688 
L 462.700581 -36.729688 
L 464.32082 -36.729688 
L 465.941058 -36.729688 
L 467.561297 -36.729688 
L 469.181536 -36.729688 
L 470.801774 -36.729688 
L 472.422013 -36.729688 
L 474.042252 -36.729688 
L 475.66249 -36.729688 
L 477.282729 -36.729688 
L 478.902968 -36.729688 
L 480.523206 -36.729688 
L 482.143445 -36.729688 
L 483.763684 -36.729688 
L 485.383922 -36.729688 
L 487.004161 -36.729688 
L 488.6244 -36.729688 
L 490.244638 -36.729688 
L 491.864877 -36.729688 
L 493.485116 -36.729688 
L 495.105354 -36.729688 
L 496.725593 -36.729688 
L 498.345832 -36.729688 
L 499.96607 -36.729688 
L 501.586309 -36.729688 
L 503.206548 -36.729688 
L 504.826786 -36.729688 
L 506.447025 -36.729688 
L 508.067264 -36.729688 
L 509.687502 -36.729688 
L 511.307741 -36.729688 
L 512.92798 -36.729688 
L 514.548218 -36.729688 
L 516.168457 -36.729688 
L 517.788696 -36.729688 
L 519.408934 -36.729688 
L 521.029173 -36.729688 
L 522.649412 -36.729688 
L 524.26965 -36.729688 
L 525.889889 -36.729688 
L 527.510128 -36.729688 
L 529.130366 -36.729688 
L 530.750605 -36.729688 
L 532.370844 -36.729688 
L 533.991082 -36.729688 
L 535.611321 -36.729688 
L 537.231559 -36.729688 
L 538.851798 -36.729688 
L 540.472037 -36.729688 
L 542.092275 -36.729688 
L 543.712514 -36.729688 
L 545.332753 -36.729688 
L 546.952991 -36.729688 
L 548.57323 -36.729688 
L 550.193469 -36.729688 
L 551.813707 -36.729688 
L 553.433946 -36.729688 
L 555.054185 -36.729688 
L 556.674423 -36.729688 
L 558.294662 -36.729688 
L 559.914901 -36.729688 
L 561.535139 -36.729688 
L 563.155378 -36.729688 
L 564.775617 -36.729688 
L 566.395855 -36.729688 
L 568.016094 -36.729688 
L 569.636333 -36.729688 
L 571.256571 -36.729688 
L 572.87681 -36.729688 
L 574.497049 -36.729688 
L 576.117287 -36.729688 
L 577.737526 -36.729688 
L 579.357765 -36.729688 
L 580.978003 -36.729688 
L 582.598242 -36.729688 
L 584.218481 -36.729688 
L 585.838719 -36.729688 
L 587.458958 -36.729688 
L 589.079197 -36.729688 
L 590.699435 -36.729688 
L 592.319674 -36.729688 
L 593.939913 -36.729688 
L 595.560151 -36.729688 
L 597.18039 -36.729688 
L 598.800629 -36.729688 
L 600.420867 -36.729688 
L 602.041106 -36.729688 
L 603.661345 -36.729688 
L 605.281583 -36.729688 
L 606.901822 -36.729688 
L 608.52206 -36.729688 
L 610.142299 -36.729688 
L 611.762538 -36.729688 
L 613.382776 -36.729688 
L 615.003015 -36.729688 
L 616.623254 -36.729688 
L 618.243492 -36.729688 
L 619.863731 -36.729688 
L 621.48397 -36.729688 
L 623.104208 -36.729688 
L 624.724447 -36.729688 
L 626.344686 -36.729688 
L 627.964924 -36.729688 
L 629.585163 -36.729688 
L 631.205402 -36.729688 
L 632.82564 -36.729688 
L 634.445879 -36.729688 
L 636.066118 -36.729688 
L 637.686356 -36.729688 
L 639.306595 -36.729688 
L 640.926834 -36.729688 
L 642.547072 -36.729688 
L 644.167311 -36.729688 
L 645.78755 -36.729688 
L 647.407788 -36.729688 
L 649.028027 -36.729688 
L 650.648266 -36.729688 
L 652.268504 -36.729688 
L 653.888743 -36.729688 
L 655.508982 -36.729688 
L 657.12922 -36.729688 
L 658.749459 -36.729688 
L 660.369698 -36.729688 
L 661.989936 -36.729688 
L 663.610175 -36.729688 
L 665.230414 -36.729688 
L 666.850652 -36.729688 
L 668.470891 -36.729688 
L 670.09113 -36.729688 
L 671.711368 -36.729688 
L 673.331607 -36.729688 
L 674.951846 -36.729688 
L 676.572084 -36.729688 
L 678.192323 -36.729688 
L 679.812561 -36.729688 
L 681.4328 -36.729688 
L 683.053039 -36.729688 
L 684.673277 -36.729688 
L 686.293516 -36.729688 
L 687.913755 -36.729688 
L 689.533993 -36.729688 
L 691.154232 -36.729688 
L 692.774471 -36.729688 
L 694.394709 -36.729688 
L 696.014948 -36.729688 
L 697.635187 -36.729688 
L 699.255425 -36.729688 
L 700.875664 -36.729688 
L 702.495903 -36.729688 
L 704.116141 -36.729688 
L 705.73638 -36.729688 
L 707.356619 -36.729688 
L 708.976857 -36.729688 
L 710.597096 -36.729688 
L 712.217335 -36.729688 
L 713.837573 -36.729688 
L 715.457812 -36.729688 
L 717.078051 -36.729688 
L 718.698289 -36.729688 
L 720.318528 -36.729688 
L 721.938767 -36.729688 
L 723.559005 -36.729688 
L 725.179244 -36.729688 
L 726.799483 -36.729688 
L 728.419721 -36.729688 
L 730.03996 -36.729688 
L 730.03996 -36.742228 
L 730.03996 -36.742228 
L 728.419721 -36.750064 
L 726.799483 -36.762108 
L 725.179244 -36.780214 
L 723.559005 -36.806849 
L 721.938767 -36.845195 
L 720.318528 -36.899253 
L 718.698289 -36.973895 
L 717.078051 -37.074891 
L 715.457812 -37.208858 
L 713.837573 -37.383145 
L 712.217335 -37.605638 
L 710.597096 -37.88448 
L 708.976857 -38.227727 
L 707.356619 -38.642947 
L 705.73638 -39.13679 
L 704.116141 -39.714559 
L 702.495903 -40.37982 
L 700.875664 -41.134088 
L 699.255425 -41.97662 
L 697.635187 -42.904356 
L 696.014948 -43.912041 
L 694.394709 -44.992526 
L 692.774471 -46.137278 
L 691.154232 -47.337058 
L 689.533993 -48.582751 
L 687.913755 -49.866283 
L 686.293516 -51.181544 
L 684.673277 -52.525241 
L 683.053039 -53.897578 
L 681.4328 -55.302701 
L 679.812561 -56.74882 
L 678.192323 -58.248014 
L 676.572084 -59.815702 
L 674.951846 -61.469837 
L 673.331607 -63.22988 
L 671.711368 -65.115648 
L 670.09113 -67.146118 
L 668.470891 -69.33827 
L 666.850652 -71.70603 
L 665.230414 -74.259382 
L 663.610175 -77.003676 
L 661.989936 -79.939177 
L 660.369698 -83.060882 
L 658.749459 -86.358623 
L 657.12922 -89.817469 
L 655.508982 -93.418426 
L 653.888743 -97.139407 
L 652.268504 -100.956432 
L 650.648266 -104.845007 
L 649.028027 -108.781581 
L 647.407788 -112.745024 
L 645.78755 -116.717996 
L 644.167311 -120.688109 
L 642.547072 -124.648773 
L 640.926834 -128.599594 
L 639.306595 -132.546237 
L 637.686356 -136.499679 
L 636.066118 -140.474856 
L 634.445879 -144.488749 
L 632.82564 -148.558094 
L 631.205402 -152.696935 
L 629.585163 -156.914336 
L 627.964924 -161.212553 
L 626.344686 -165.58596 
L 624.724447 -170.020883 
L 623.104208 -174.496411 
L 621.48397 -178.986034 
L 619.863731 -183.459864 
L 618.243492 -187.887074 
L 616.623254 -192.238161 
L 615.003015 -196.486712 
L 613.382776 -200.610452 
L 611.762538 -204.591535 
L 610.142299 -208.416189 
L 608.52206 -212.073951 
L 606.901822 -215.556812 
L 605.281583 -218.858532 
L 603.661345 -221.974325 
L 602.041106 -224.900961 
L 600.420867 -227.637179 
L 598.800629 -230.184205 
L 597.18039 -232.546101 
L 595.560151 -234.729698 
L 593.939913 -236.743953 
L 592.319674 -238.598696 
L 590.699435 -240.302892 
L 589.079197 -241.862644 
L 587.458958 -243.279219 
L 585.838719 -244.547382 
L 584.218481 -245.654244 
L 582.598242 -246.578725 
L 580.978003 -247.291636 
L 579.357765 -247.75631 
L 577.737526 -247.929688 
L 576.117287 -247.763783 
L 574.497049 -247.207519 
L 572.87681 -246.208961 
L 571.256571 -244.717975 
L 569.636333 -242.689332 
L 568.016094 -240.086129 
L 566.395855 -236.883311 
L 564.775617 -233.070942 
L 563.155378 -228.656801 
L 561.535139 -223.667907 
L 559.914901 -218.150654 
L 558.294662 -212.169441 
L 556.674423 -205.803843 
L 555.054185 -199.144602 
L 553.433946 -192.28883 
L 551.813707 -185.334883 
L 550.193469 -178.377368 
L 548.57323 -171.502653 
L 546.952991 -164.785167 
L 545.332753 -158.284701 
L 543.712514 -152.044794 
L 542.092275 -146.092274 
L 540.472037 -140.437936 
L 538.851798 -135.078275 
L 537.231559 -129.998113 
L 535.611321 -125.173872 
L 533.991082 -120.577156 
L 532.370844 -116.178266 
L 530.750605 -111.949277 
L 529.130366 -107.866389 
L 527.510128 -103.911392 
L 525.889889 -100.072229 
L 524.26965 -96.342799 
L 522.649412 -92.722243 
L 521.029173 -89.213967 
L 519.408934 -85.824643 
L 517.788696 -82.563342 
L 516.168457 -79.440821 
L 514.548218 -76.468903 
L 512.92798 -73.659835 
L 511.307741 -71.025491 
L 509.687502 -68.576352 
L 508.067264 -66.320283 
L 506.447025 -64.261217 
L 504.826786 -62.397959 
L 503.206548 -60.72334 
L 501.586309 -59.223953 
L 499.96607 -57.880614 
L 498.345832 -56.669586 
L 496.725593 -55.564449 
L 495.105354 -54.538419 
L 493.485116 -53.566774 
L 491.864877 -52.629074 
L 490.244638 -51.710835 
L 488.6244 -50.804471 
L 487.004161 -49.909351 
L 485.383922 -49.031036 
L 483.763684 -48.179811 
L 482.143445 -47.368751 
L 480.523206 -46.611603 
L 478.902968 -45.92074 
L 477.282729 -45.305457 
L 475.66249 -44.770757 
L 474.042252 -44.316769 
L 472.422013 -43.938781 
L 470.801774 -43.627876 
L 469.181536 -43.372013 
L 467.561297 -43.157428 
L 465.941058 -42.970112 
L 464.32082 -42.797207 
L 462.700581 -42.628103 
L 461.080343 -42.455125 
L 459.460104 -42.27373 
L 457.839865 -42.082231 
L 456.219627 -41.881132 
L 454.599388 -41.672241 
L 452.979149 -41.457721 
L 451.358911 -41.239287 
L 449.738672 -41.017675 
L 448.118433 -40.792465 
L 446.498195 -40.562267 
L 444.877956 -40.325188 
L 443.257717 -40.079457 
L 441.637479 -39.824063 
L 440.01724 -39.559262 
L 438.397001 -39.286851 
L 436.776763 -39.010165 
L 435.156524 -38.733813 
L 433.536285 -38.4632 
L 431.916047 -38.20395 
L 430.295808 -37.961312 
L 428.675569 -37.739657 
L 427.055331 -37.542121 
L 425.435092 -37.370431 
L 423.814853 -37.224912 
L 422.194615 -37.104638 
L 420.574376 -37.007695 
L 418.954137 -36.931491 
L 417.333899 -36.873065 
L 415.71366 -36.82937 
L 414.093421 -36.797491 
L 412.473183 -36.774801 
L 410.852944 -36.759044 
L 409.232705 -36.748368 
L 407.612467 -36.74131 
z
" style="stroke: #4c72b0"/>
    </defs>
    <g>
     <use xlink:href="#m141e432c18" x="0" y="265.689687" style="fill: #4c72b0; fill-opacity: 0.25; stroke: #4c72b0"/>
    </g>
   </g>
   <g id="line2d_37">
    <path d="M 301.834824 228.96 
L 301.834824 7.2 
" style="fill: none; stroke-dasharray: 2.96,1.28; stroke-dashoffset: 0; stroke: #d3d3d3; stroke-width: 0.8"/>
   </g>
   <g id="line2d_38">
    <path d="M 486.52334 228.96 
L 486.52334 7.2 
" style="fill: none; stroke-dasharray: 2.96,1.28; stroke-dashoffset: 0; stroke: #d3d3d3; stroke-width: 0.8"/>
   </g>
   <g id="line2d_39">
    <path d="M 407.967736 228.96 
L 407.967736 7.2 
" style="fill: none; stroke-dasharray: 2.96,1.28; stroke-dashoffset: 0; stroke: #d3d3d3; stroke-width: 0.8"/>
   </g>
   <g id="line2d_40">
    <path d="M 7.2 228.96 
L 844.2 228.96 
" style="fill: none; stroke: #808080; stroke-width: 0.5; stroke-linecap: round"/>
   </g>
   <g id="text_12">
    <text style="font-size: 8px; font-family: 'Arial', 'DejaVu Sans', 'Liberation Sans', 'Bitstream Vera Sans', sans-serif; fill: #808080" transform="translate(308.088574 124.59635) rotate(-90)">International Poverty Line: $3.00</text>
   </g>
   <g id="text_13">
    <text style="font-size: 8px; font-family: 'Arial', 'DejaVu Sans', 'Liberation Sans', 'Bitstream Vera Sans', sans-serif; fill: #808080" transform="translate(492.24959 81.31135) rotate(-90)">World mean: $21.69</text>
   </g>
   <g id="text_14">
    <text style="font-size: 8px; font-family: 'Arial', 'DejaVu Sans', 'Liberation Sans', 'Bitstream Vera Sans', sans-serif; fill: #808080" transform="translate(413.693986 83.08885) rotate(-90)">World median: $9.35</text>
   </g>
   <g id="legend_1">
    <g id="patch_3">
     <path d="M 683.8 102.466062 
L 851.4125 102.466062 
Q 853.4125 102.466062 853.4125 100.466062 
L 853.4125 58.552 
Q 853.4125 56.552 851.4125 56.552 
L 683.8 56.552 
Q 681.8 56.552 681.8 58.552 
L 681.8 100.466062 
Q 681.8 102.466062 683.8 102.466062 
z
" style="fill: #ffffff; opacity: 0.8; stroke: #cccccc; stroke-linejoin: miter"/>
    </g>
    <g id="text_15">
     <text style="font-size: 10px; font-family: 'Arial', 'DejaVu Sans', 'Liberation Sans', 'Bitstream Vera Sans', sans-serif; text-anchor: start; fill: #262626" x="750.1" y="67.831687" transform="rotate(-0 750.1 67.831687)">Country</text>
    </g>
    <g id="patch_4">
     <path d="M 685.8 82.094187 
L 705.8 82.094187 
L 705.8 75.094187 
L 685.8 75.094187 
z
" style="fill: #4c72b0; fill-opacity: 0.25; stroke: #4c72b0; stroke-linejoin: miter"/>
    </g>
    <g id="text_16">
     <text style="font-size: 10px; font-family: 'Arial', 'DejaVu Sans', 'Liberation Sans', 'Bitstream Vera Sans', sans-serif; text-anchor: start; fill: #262626" x="713.8" y="82.094187" transform="rotate(-0 713.8 82.094187)">Denmark</text>
    </g>
    <g id="patch_5">
     <path d="M 685.8 96.361375 
L 705.8 96.361375 
L 705.8 89.361375 
L 685.8 89.361375 
z
" style="fill: #dd8452; fill-opacity: 0.25; stroke: #dd8452; stroke-linejoin: miter"/>
    </g>
    <g id="text_17">
     <text style="font-size: 10px; font-family: 'Arial', 'DejaVu Sans', 'Liberation Sans', 'Bitstream Vera Sans', sans-serif; text-anchor: start; fill: #262626" x="713.8" y="96.361375" transform="rotate(-0 713.8 96.361375)">Democratic Republic of Congo</text>
    </g>
   </g>
  </g>
 </g>
</svg>
