<?xml version="1.0" encoding="utf-8" standalone="no"?>
<!DOCTYPE svg PUBLIC "-//W3C//DTD SVG 1.1//EN"
  "http://www.w3.org/Graphics/SVG/1.1/DTD/svg11.dtd">
<svg xmlns:xlink="http://www.w3.org/1999/xlink" width="851.4pt" height="265.689687pt" viewBox="0 0 851.4 265.689687" xmlns="http://www.w3.org/2000/svg" version="1.1">
 <metadata>
  <rdf:RDF xmlns:dc="http://purl.org/dc/elements/1.1/" xmlns:cc="http://creativecommons.org/ns#" xmlns:rdf="http://www.w3.org/1999/02/22-rdf-syntax-ns#">
   <cc:Work>
    <dc:type rdf:resource="http://purl.org/dc/dcmitype/StillImage"/>
    <dc:date>2025-06-20T13:16:33.806246</dc:date>
    <dc:format>image/svg+xml</dc:format>
    <dc:creator>
     <cc:Agent>
      <dc:title>Matplotlib v3.10.1, https://matplotlib.org/</dc:title>
     </cc:Agent>
    </dc:creator>
   </cc:Work>
  </rdf:RDF>
 </metadata>
 <defs>
  <style type="text/css">*{stroke-linejoin: round; stroke-linecap: butt}</style>
 </defs>
 <g id="figure_1">
  <g id="patch_1">
   <path d="M 0 265.689687 
L 851.4 265.689687 
L 851.4 0 
L 0 0 
z
" style="fill: #ffffff"/>
  </g>
  <g id="axes_1">
   <g id="patch_2">
    <path d="M 7.2 228.96 
L 844.2 228.96 
L 844.2 7.2 
L 7.2 7.2 
z
" style="fill: #ffffff"/>
   </g>
   <g id="matplotlib.axis_1">
    <g id="xtick_1">
     <g id="line2d_1">
      <defs>
       <path id="m2f9ef06055" d="M 0 0 
L 0 3.5 
" style="stroke: #262626; stroke-width: 0.8"/>
      </defs>
      <g>
       <use xlink:href="#m2f9ef06055" x="192.600131" y="228.96" style="fill: #262626; stroke: #262626; stroke-width: 0.8"/>
      </g>
     </g>
     <g id="text_1">
      <text style="font-size: 10px; font-family: 'Arial', 'DejaVu Sans', 'Liberation Sans', 'Bitstream Vera Sans', sans-serif; text-anchor: middle; fill: #262626" x="192.600131" y="243.117812" transform="rotate(-0 192.600131 243.117812)">1</text>
     </g>
    </g>
    <g id="xtick_2">
     <g id="line2d_2">
      <g>
       <use xlink:href="#m2f9ef06055" x="254.476848" y="228.96" style="fill: #262626; stroke: #262626; stroke-width: 0.8"/>
      </g>
     </g>
     <g id="text_2">
      <text style="font-size: 10px; font-family: 'Arial', 'DejaVu Sans', 'Liberation Sans', 'Bitstream Vera Sans', sans-serif; text-anchor: middle; fill: #262626" x="254.476848" y="243.117812" transform="rotate(-0 254.476848 243.117812)">2</text>
     </g>
    </g>
    <g id="xtick_3">
     <g id="line2d_3">
      <g>
       <use xlink:href="#m2f9ef06055" x="336.273419" y="228.96" style="fill: #262626; stroke: #262626; stroke-width: 0.8"/>
      </g>
     </g>
     <g id="text_3">
      <text style="font-size: 10px; font-family: 'Arial', 'DejaVu Sans', 'Liberation Sans', 'Bitstream Vera Sans', sans-serif; text-anchor: middle; fill: #262626" x="336.273419" y="243.117812" transform="rotate(-0 336.273419 243.117812)">5</text>
     </g>
    </g>
    <g id="xtick_4">
     <g id="line2d_4">
      <g>
       <use xlink:href="#m2f9ef06055" x="398.150137" y="228.96" style="fill: #262626; stroke: #262626; stroke-width: 0.8"/>
      </g>
     </g>
     <g id="text_4">
      <text style="font-size: 10px; font-family: 'Arial', 'DejaVu Sans', 'Liberation Sans', 'Bitstream Vera Sans', sans-serif; text-anchor: middle; fill: #262626" x="398.150137" y="243.117812" transform="rotate(-0 398.150137 243.117812)">10</text>
     </g>
    </g>
    <g id="xtick_5">
     <g id="line2d_5">
      <g>
       <use xlink:href="#m2f9ef06055" x="460.026854" y="228.96" style="fill: #262626; stroke: #262626; stroke-width: 0.8"/>
      </g>
     </g>
     <g id="text_5">
      <text style="font-size: 10px; font-family: 'Arial', 'DejaVu Sans', 'Liberation Sans', 'Bitstream Vera Sans', sans-serif; text-anchor: middle; fill: #262626" x="460.026854" y="243.117812" transform="rotate(-0 460.026854 243.117812)">20</text>
     </g>
    </g>
    <g id="xtick_6">
     <g id="line2d_6">
      <g>
       <use xlink:href="#m2f9ef06055" x="541.823425" y="228.96" style="fill: #262626; stroke: #262626; stroke-width: 0.8"/>
      </g>
     </g>
     <g id="text_6">
      <text style="font-size: 10px; font-family: 'Arial', 'DejaVu Sans', 'Liberation Sans', 'Bitstream Vera Sans', sans-serif; text-anchor: middle; fill: #262626" x="541.823425" y="243.117812" transform="rotate(-0 541.823425 243.117812)">50</text>
     </g>
    </g>
    <g id="xtick_7">
     <g id="line2d_7">
      <g>
       <use xlink:href="#m2f9ef06055" x="603.700143" y="228.96" style="fill: #262626; stroke: #262626; stroke-width: 0.8"/>
      </g>
     </g>
     <g id="text_7">
      <text style="font-size: 10px; font-family: 'Arial', 'DejaVu Sans', 'Liberation Sans', 'Bitstream Vera Sans', sans-serif; text-anchor: middle; fill: #262626" x="603.700143" y="243.117812" transform="rotate(-0 603.700143 243.117812)">100</text>
     </g>
    </g>
    <g id="xtick_8">
     <g id="line2d_8">
      <g>
       <use xlink:href="#m2f9ef06055" x="665.57686" y="228.96" style="fill: #262626; stroke: #262626; stroke-width: 0.8"/>
      </g>
     </g>
     <g id="text_8">
      <text style="font-size: 10px; font-family: 'Arial', 'DejaVu Sans', 'Liberation Sans', 'Bitstream Vera Sans', sans-serif; text-anchor: middle; fill: #262626" x="665.57686" y="243.117812" transform="rotate(-0 665.57686 243.117812)">200</text>
     </g>
    </g>
    <g id="xtick_9">
     <g id="line2d_9">
      <g>
       <use xlink:href="#m2f9ef06055" x="747.373431" y="228.96" style="fill: #262626; stroke: #262626; stroke-width: 0.8"/>
      </g>
     </g>
     <g id="text_9">
      <text style="font-size: 10px; font-family: 'Arial', 'DejaVu Sans', 'Liberation Sans', 'Bitstream Vera Sans', sans-serif; text-anchor: middle; fill: #262626" x="747.373431" y="243.117812" transform="rotate(-0 747.373431 243.117812)">500</text>
     </g>
    </g>
    <g id="xtick_10">
     <g id="line2d_10">
      <g>
       <use xlink:href="#m2f9ef06055" x="809.250149" y="228.96" style="fill: #262626; stroke: #262626; stroke-width: 0.8"/>
      </g>
     </g>
     <g id="text_10">
      <text style="font-size: 10px; font-family: 'Arial', 'DejaVu Sans', 'Liberation Sans', 'Bitstream Vera Sans', sans-serif; text-anchor: middle; fill: #262626" x="809.250149" y="243.117812" transform="rotate(-0 809.250149 243.117812)">1000</text>
     </g>
    </g>
    <g id="xtick_11">
     <g id="line2d_11">
      <defs>
       <path id="m3beb9c4eac" d="M 0 0 
L 0 2 
" style="stroke: #262626; stroke-width: 0.6"/>
      </defs>
      <g>
       <use xlink:href="#m3beb9c4eac" x="48.926842" y="228.96" style="fill: #262626; stroke: #262626; stroke-width: 0.6"/>
      </g>
     </g>
    </g>
    <g id="xtick_12">
     <g id="line2d_12">
      <g>
       <use xlink:href="#m3beb9c4eac" x="85.122401" y="228.96" style="fill: #262626; stroke: #262626; stroke-width: 0.6"/>
      </g>
     </g>
    </g>
    <g id="xtick_13">
     <g id="line2d_13">
      <g>
       <use xlink:href="#m3beb9c4eac" x="110.803559" y="228.96" style="fill: #262626; stroke: #262626; stroke-width: 0.6"/>
      </g>
     </g>
    </g>
    <g id="xtick_14">
     <g id="line2d_14">
      <g>
       <use xlink:href="#m3beb9c4eac" x="130.723413" y="228.96" style="fill: #262626; stroke: #262626; stroke-width: 0.6"/>
      </g>
     </g>
    </g>
    <g id="xtick_15">
     <g id="line2d_15">
      <g>
       <use xlink:href="#m3beb9c4eac" x="146.999119" y="228.96" style="fill: #262626; stroke: #262626; stroke-width: 0.6"/>
      </g>
     </g>
    </g>
    <g id="xtick_16">
     <g id="line2d_16">
      <g>
       <use xlink:href="#m3beb9c4eac" x="160.760032" y="228.96" style="fill: #262626; stroke: #262626; stroke-width: 0.6"/>
      </g>
     </g>
    </g>
    <g id="xtick_17">
     <g id="line2d_17">
      <g>
       <use xlink:href="#m3beb9c4eac" x="172.680277" y="228.96" style="fill: #262626; stroke: #262626; stroke-width: 0.6"/>
      </g>
     </g>
    </g>
    <g id="xtick_18">
     <g id="line2d_18">
      <g>
       <use xlink:href="#m3beb9c4eac" x="183.194678" y="228.96" style="fill: #262626; stroke: #262626; stroke-width: 0.6"/>
      </g>
     </g>
    </g>
    <g id="xtick_19">
     <g id="line2d_19">
      <g>
       <use xlink:href="#m3beb9c4eac" x="290.672407" y="228.96" style="fill: #262626; stroke: #262626; stroke-width: 0.6"/>
      </g>
     </g>
    </g>
    <g id="xtick_20">
     <g id="line2d_20">
      <g>
       <use xlink:href="#m3beb9c4eac" x="316.353565" y="228.96" style="fill: #262626; stroke: #262626; stroke-width: 0.6"/>
      </g>
     </g>
    </g>
    <g id="xtick_21">
     <g id="line2d_21">
      <g>
       <use xlink:href="#m3beb9c4eac" x="352.549125" y="228.96" style="fill: #262626; stroke: #262626; stroke-width: 0.6"/>
      </g>
     </g>
    </g>
    <g id="xtick_22">
     <g id="line2d_22">
      <g>
       <use xlink:href="#m3beb9c4eac" x="366.310038" y="228.96" style="fill: #262626; stroke: #262626; stroke-width: 0.6"/>
      </g>
     </g>
    </g>
    <g id="xtick_23">
     <g id="line2d_23">
      <g>
       <use xlink:href="#m3beb9c4eac" x="378.230283" y="228.96" style="fill: #262626; stroke: #262626; stroke-width: 0.6"/>
      </g>
     </g>
    </g>
    <g id="xtick_24">
     <g id="line2d_24">
      <g>
       <use xlink:href="#m3beb9c4eac" x="388.744684" y="228.96" style="fill: #262626; stroke: #262626; stroke-width: 0.6"/>
      </g>
     </g>
    </g>
    <g id="xtick_25">
     <g id="line2d_25">
      <g>
       <use xlink:href="#m3beb9c4eac" x="496.222413" y="228.96" style="fill: #262626; stroke: #262626; stroke-width: 0.6"/>
      </g>
     </g>
    </g>
    <g id="xtick_26">
     <g id="line2d_26">
      <g>
       <use xlink:href="#m3beb9c4eac" x="521.903571" y="228.96" style="fill: #262626; stroke: #262626; stroke-width: 0.6"/>
      </g>
     </g>
    </g>
    <g id="xtick_27">
     <g id="line2d_27">
      <g>
       <use xlink:href="#m3beb9c4eac" x="558.099131" y="228.96" style="fill: #262626; stroke: #262626; stroke-width: 0.6"/>
      </g>
     </g>
    </g>
    <g id="xtick_28">
     <g id="line2d_28">
      <g>
       <use xlink:href="#m3beb9c4eac" x="571.860044" y="228.96" style="fill: #262626; stroke: #262626; stroke-width: 0.6"/>
      </g>
     </g>
    </g>
    <g id="xtick_29">
     <g id="line2d_29">
      <g>
       <use xlink:href="#m3beb9c4eac" x="583.780289" y="228.96" style="fill: #262626; stroke: #262626; stroke-width: 0.6"/>
      </g>
     </g>
    </g>
    <g id="xtick_30">
     <g id="line2d_30">
      <g>
       <use xlink:href="#m3beb9c4eac" x="594.29469" y="228.96" style="fill: #262626; stroke: #262626; stroke-width: 0.6"/>
      </g>
     </g>
    </g>
    <g id="xtick_31">
     <g id="line2d_31">
      <g>
       <use xlink:href="#m3beb9c4eac" x="701.772419" y="228.96" style="fill: #262626; stroke: #262626; stroke-width: 0.6"/>
      </g>
     </g>
    </g>
    <g id="xtick_32">
     <g id="line2d_32">
      <g>
       <use xlink:href="#m3beb9c4eac" x="727.453578" y="228.96" style="fill: #262626; stroke: #262626; stroke-width: 0.6"/>
      </g>
     </g>
    </g>
    <g id="xtick_33">
     <g id="line2d_33">
      <g>
       <use xlink:href="#m3beb9c4eac" x="763.649137" y="228.96" style="fill: #262626; stroke: #262626; stroke-width: 0.6"/>
      </g>
     </g>
    </g>
    <g id="xtick_34">
     <g id="line2d_34">
      <g>
       <use xlink:href="#m3beb9c4eac" x="777.41005" y="228.96" style="fill: #262626; stroke: #262626; stroke-width: 0.6"/>
      </g>
     </g>
    </g>
    <g id="xtick_35">
     <g id="line2d_35">
      <g>
       <use xlink:href="#m3beb9c4eac" x="789.330295" y="228.96" style="fill: #262626; stroke: #262626; stroke-width: 0.6"/>
      </g>
     </g>
    </g>
    <g id="xtick_36">
     <g id="line2d_36">
      <g>
       <use xlink:href="#m3beb9c4eac" x="799.844696" y="228.96" style="fill: #262626; stroke: #262626; stroke-width: 0.6"/>
      </g>
     </g>
    </g>
    <g id="text_11">
     <text style="font-size: 10px; font-family: 'Arial', 'DejaVu Sans', 'Liberation Sans', 'Bitstream Vera Sans', sans-serif; text-anchor: middle; fill: #262626" x="425.7" y="256.385" transform="rotate(-0 425.7 256.385)">Income or consumption (day)</text>
    </g>
   </g>
   <g id="matplotlib.axis_2"/>
   <g id="FillBetweenPolyCollection_1">
    <defs>
     <path id="m41636065b3" d="M 67.765626 -36.736312 
L 67.765626 -36.729688 
L 70.760108 -36.729688 
L 73.754591 -36.729688 
L 76.749073 -36.729688 
L 79.743556 -36.729688 
L 82.738038 -36.729688 
L 85.732521 -36.729688 
L 88.727003 -36.729688 
L 91.721486 -36.729688 
L 94.715968 -36.729688 
L 97.710451 -36.729688 
L 100.704934 -36.729688 
L 103.699416 -36.729688 
L 106.693899 -36.729688 
L 109.688381 -36.729688 
L 112.682864 -36.729688 
L 115.677346 -36.729688 
L 118.671829 -36.729688 
L 121.666311 -36.729688 
L 124.660794 -36.729688 
L 127.655276 -36.729688 
L 130.649759 -36.729688 
L 133.644242 -36.729688 
L 136.638724 -36.729688 
L 139.633207 -36.729688 
L 142.627689 -36.729688 
L 145.622172 -36.729688 
L 148.616654 -36.729688 
L 151.611137 -36.729688 
L 154.605619 -36.729688 
L 157.600102 -36.729688 
L 160.594584 -36.729688 
L 163.589067 -36.729688 
L 166.583549 -36.729688 
L 169.578032 -36.729688 
L 172.572515 -36.729688 
L 175.566997 -36.729688 
L 178.56148 -36.729688 
L 181.555962 -36.729688 
L 184.550445 -36.729688 
L 187.544927 -36.729688 
L 190.53941 -36.729688 
L 193.533892 -36.729688 
L 196.528375 -36.729688 
L 199.522857 -36.729688 
L 202.51734 -36.729688 
L 205.511823 -36.729688 
L 208.506305 -36.729688 
L 211.500788 -36.729688 
L 214.49527 -36.729688 
L 217.489753 -36.729688 
L 220.484235 -36.729688 
L 223.478718 -36.729688 
L 226.4732 -36.729688 
L 229.467683 -36.729688 
L 232.462165 -36.729688 
L 235.456648 -36.729688 
L 238.451131 -36.729688 
L 241.445613 -36.729688 
L 244.440096 -36.729688 
L 247.434578 -36.729688 
L 250.429061 -36.729688 
L 253.423543 -36.729688 
L 256.418026 -36.729688 
L 259.412508 -36.729688 
L 262.406991 -36.729688 
L 265.401473 -36.729688 
L 268.395956 -36.729688 
L 271.390439 -36.729688 
L 274.384921 -36.729688 
L 277.379404 -36.729688 
L 280.373886 -36.729688 
L 283.368369 -36.729688 
L 286.362851 -36.729688 
L 289.357334 -36.729688 
L 292.351816 -36.729688 
L 295.346299 -36.729688 
L 298.340781 -36.729688 
L 301.335264 -36.729688 
L 304.329747 -36.729688 
L 307.324229 -36.729688 
L 310.318712 -36.729688 
L 313.313194 -36.729688 
L 316.307677 -36.729688 
L 319.302159 -36.729688 
L 322.296642 -36.729688 
L 325.291124 -36.729688 
L 328.285607 -36.729688 
L 331.280089 -36.729688 
L 334.274572 -36.729688 
L 337.269054 -36.729688 
L 340.263537 -36.729688 
L 343.25802 -36.729688 
L 346.252502 -36.729688 
L 349.246985 -36.729688 
L 352.241467 -36.729688 
L 355.23595 -36.729688 
L 358.230432 -36.729688 
L 361.224915 -36.729688 
L 364.219397 -36.729688 
L 367.21388 -36.729688 
L 370.208362 -36.729688 
L 373.202845 -36.729688 
L 376.197328 -36.729688 
L 379.19181 -36.729688 
L 382.186293 -36.729688 
L 385.180775 -36.729688 
L 388.175258 -36.729688 
L 391.16974 -36.729688 
L 394.164223 -36.729688 
L 397.158705 -36.729688 
L 400.153188 -36.729688 
L 403.14767 -36.729688 
L 406.142153 -36.729688 
L 409.136636 -36.729688 
L 412.131118 -36.729688 
L 415.125601 -36.729688 
L 418.120083 -36.729688 
L 421.114566 -36.729688 
L 424.109048 -36.729688 
L 427.103531 -36.729688 
L 430.098013 -36.729688 
L 433.092496 -36.729688 
L 436.086978 -36.729688 
L 439.081461 -36.729688 
L 442.075944 -36.729688 
L 445.070426 -36.729688 
L 448.064909 -36.729688 
L 451.059391 -36.729688 
L 454.053874 -36.729688 
L 457.048356 -36.729688 
L 460.042839 -36.729688 
L 463.037321 -36.729688 
L 466.031804 -36.729688 
L 469.026286 -36.729688 
L 472.020769 -36.729688 
L 475.015252 -36.729688 
L 478.009734 -36.729688 
L 481.004217 -36.729688 
L 483.998699 -36.729688 
L 486.993182 -36.729688 
L 489.987664 -36.729688 
L 492.982147 -36.729688 
L 495.976629 -36.729688 
L 498.971112 -36.729688 
L 501.965594 -36.729688 
L 504.960077 -36.729688 
L 507.954559 -36.729688 
L 510.949042 -36.729688 
L 513.943525 -36.729688 
L 516.938007 -36.729688 
L 519.93249 -36.729688 
L 522.926972 -36.729688 
L 525.921455 -36.729688 
L 528.915937 -36.729688 
L 531.91042 -36.729688 
L 534.904902 -36.729688 
L 537.899385 -36.729688 
L 540.893867 -36.729688 
L 543.88835 -36.729688 
L 546.882833 -36.729688 
L 549.877315 -36.729688 
L 552.871798 -36.729688 
L 555.86628 -36.729688 
L 558.860763 -36.729688 
L 561.855245 -36.729688 
L 564.849728 -36.729688 
L 567.84421 -36.729688 
L 570.838693 -36.729688 
L 573.833175 -36.729688 
L 576.827658 -36.729688 
L 579.822141 -36.729688 
L 582.816623 -36.729688 
L 585.811106 -36.729688 
L 588.805588 -36.729688 
L 591.800071 -36.729688 
L 594.794553 -36.729688 
L 597.789036 -36.729688 
L 600.783518 -36.729688 
L 603.778001 -36.729688 
L 606.772483 -36.729688 
L 609.766966 -36.729688 
L 612.761449 -36.729688 
L 615.755931 -36.729688 
L 618.750414 -36.729688 
L 621.744896 -36.729688 
L 624.739379 -36.729688 
L 627.733861 -36.729688 
L 630.728344 -36.729688 
L 633.722826 -36.729688 
L 636.717309 -36.729688 
L 639.711791 -36.729688 
L 642.706274 -36.729688 
L 645.700757 -36.729688 
L 648.695239 -36.729688 
L 651.689722 -36.729688 
L 654.684204 -36.729688 
L 657.678687 -36.729688 
L 660.673169 -36.729688 
L 663.667652 -36.729688 
L 663.667652 -36.736287 
L 663.667652 -36.736287 
L 660.673169 -36.741687 
L 657.678687 -36.750596 
L 654.684204 -36.764599 
L 651.689722 -36.78555 
L 648.695239 -36.815346 
L 645.700757 -36.855558 
L 642.706274 -36.906934 
L 639.711791 -36.968872 
L 636.717309 -37.038995 
L 633.722826 -37.112996 
L 630.728344 -37.184895 
L 627.733861 -37.247738 
L 624.739379 -37.294672 
L 621.744896 -37.320163 
L 618.750414 -37.321071 
L 615.755931 -37.297283 
L 612.761449 -37.251734 
L 609.766966 -37.189819 
L 606.772483 -37.118335 
L 603.778001 -37.044268 
L 600.783518 -36.973699 
L 597.789036 -36.911068 
L 594.794553 -36.85889 
L 591.800071 -36.817886 
L 588.805588 -36.787386 
L 585.811106 -36.765865 
L 582.816623 -36.75144 
L 579.822141 -36.742259 
L 576.827658 -36.73674 
L 573.833175 -36.733688 
L 570.838693 -36.732322 
L 567.84421 -36.732269 
L 564.849728 -36.73357 
L 561.855245 -36.736723 
L 558.860763 -36.74278 
L 555.86628 -36.753493 
L 552.871798 -36.771473 
L 549.877315 -36.800314 
L 546.882833 -36.844615 
L 543.88835 -36.909788 
L 540.893867 -37.001606 
L 537.899385 -37.125447 
L 534.904902 -37.285291 
L 531.91042 -37.482636 
L 528.915937 -37.715582 
L 525.921455 -37.978399 
L 522.926972 -38.26186 
L 519.93249 -38.554472 
L 516.938007 -38.84453 
L 513.943525 -39.122618 
L 510.949042 -39.383978 
L 507.954559 -39.630087 
L 504.960077 -39.868886 
L 501.965594 -40.113426 
L 498.971112 -40.379171 
L 495.976629 -40.680581 
L 492.982147 -41.027866 
L 489.987664 -41.424796 
L 486.993182 -41.868109 
L 483.998699 -42.34864 
L 481.004217 -42.853787 
L 478.009734 -43.370633 
L 475.015252 -43.888966 
L 472.020769 -44.403578 
L 469.026286 -44.915488 
L 466.031804 -45.432008 
L 463.037321 -45.965747 
L 460.042839 -46.53275 
L 457.048356 -47.150025 
L 454.053874 -47.832771 
L 451.059391 -48.591718 
L 448.064909 -49.43107 
L 445.070426 -50.347586 
L 442.075944 -51.3312 
L 439.081461 -52.367269 
L 436.086978 -53.440171 
L 433.092496 -54.53752 
L 430.098013 -55.654016 
L 427.103531 -56.793944 
L 424.109048 -57.971626 
L 421.114566 -59.2097 
L 418.120083 -60.535679 
L 415.125601 -61.977762 
L 412.131118 -63.561048 
L 409.136636 -65.305104 
L 406.142153 -67.223366 
L 403.14767 -69.324209 
L 400.153188 -71.613021 
L 397.158705 -74.094347 
L 394.164223 -76.773251 
L 391.16974 -79.655383 
L 388.175258 -82.745687 
L 385.180775 -86.046104 
L 382.186293 -89.55289 
L 379.19181 -93.254224 
L 376.197328 -97.128762 
L 373.202845 -101.145595 
L 370.208362 -105.265862 
L 367.21388 -109.445979 
L 364.219397 -113.642189 
L 361.224915 -117.815829 
L 358.230432 -121.938566 
L 355.23595 -125.996745 
L 352.241467 -129.994063 
L 349.246985 -133.951975 
L 346.252502 -137.90746 
L 343.25802 -141.908126 
L 340.263537 -146.004987 
L 337.269054 -150.24367 
L 334.274572 -154.655216 
L 331.280089 -159.247933 
L 328.285607 -164.001824 
L 325.291124 -168.866799 
L 322.296642 -173.765232 
L 319.302159 -178.598547 
L 316.307677 -183.256656 
L 313.313194 -187.628458 
L 310.318712 -191.611452 
L 307.324229 -195.118787 
L 304.329747 -198.082761 
L 301.335264 -200.454591 
L 298.340781 -202.201064 
L 295.346299 -203.299247 
L 292.351816 -203.730707 
L 289.357334 -203.476638 
L 286.362851 -202.515053 
L 283.368369 -200.820678 
L 280.373886 -198.367747 
L 277.379404 -195.135244 
L 274.384921 -191.113712 
L 271.390439 -186.312304 
L 268.395956 -180.764634 
L 265.401473 -174.532084 
L 262.406991 -167.703723 
L 259.412508 -160.392681 
L 256.418026 -152.729597 
L 253.423543 -144.854377 
L 250.429061 -136.907721 
L 247.434578 -129.023696 
L 244.440096 -121.324086 
L 241.445613 -113.914583 
L 238.451131 -106.882377 
L 235.456648 -100.294531 
L 232.462165 -94.19673 
L 229.467683 -88.612456 
L 226.4732 -83.543065 
L 223.478718 -78.96941 
L 220.484235 -74.855451 
L 217.489753 -71.153716 
L 214.49527 -67.811873 
L 211.500788 -64.779193 
L 208.506305 -62.011635 
L 205.511823 -59.474659 
L 202.51734 -57.143534 
L 199.522857 -55.001598 
L 196.528375 -53.037419 
L 193.533892 -51.241893 
L 190.53941 -49.606116 
L 187.544927 -48.120408 
L 184.550445 -46.774413 
L 181.555962 -45.557882 
L 178.56148 -44.461606 
L 175.566997 -43.478062 
L 172.572515 -42.601502 
L 169.578032 -41.827477 
L 166.583549 -41.151975 
L 163.589067 -40.570453 
L 160.594584 -40.077055 
L 157.600102 -39.664213 
L 154.605619 -39.322729 
L 151.611137 -39.042254 
L 148.616654 -38.812051 
L 145.622172 -38.621827 
L 142.627689 -38.462484 
L 139.633207 -38.326625 
L 136.638724 -38.208755 
L 133.644242 -38.105129 
L 130.649759 -38.013298 
L 127.655276 -37.931445 
L 124.660794 -37.8577 
L 121.666311 -37.78964 
L 118.671829 -37.724136 
L 115.677346 -37.657632 
L 112.682864 -37.58679 
L 109.688381 -37.509273 
L 106.693899 -37.424397 
L 103.699416 -37.33342 
L 100.704934 -37.239336 
L 97.710451 -37.146248 
L 94.715968 -37.058507 
L 91.721486 -36.979867 
L 88.727003 -36.912881 
L 85.732521 -36.858645 
L 82.738038 -36.816883 
L 79.743556 -36.786284 
L 76.749073 -36.764936 
L 73.754591 -36.750744 
L 70.760108 -36.74175 
L 67.765626 -36.736312 
z
" style="stroke: #dd8452"/>
    </defs>
    <g>
     <use xlink:href="#m41636065b3" x="0" y="265.689687" style="fill: #dd8452; fill-opacity: 0.25; stroke: #dd8452"/>
    </g>
   </g>
   <g id="FillBetweenPolyCollection_2">
    <defs>
     <path id="m36e7fa810b" d="M 45.245455 -36.737586 
L 45.245455 -36.729688 
L 49.069118 -36.729688 
L 52.892782 -36.729688 
L 56.716446 -36.729688 
L 60.54011 -36.729688 
L 64.363773 -36.729688 
L 68.187437 -36.729688 
L 72.011101 -36.729688 
L 75.834765 -36.729688 
L 79.658429 -36.729688 
L 83.482092 -36.729688 
L 87.305756 -36.729688 
L 91.12942 -36.729688 
L 94.953084 -36.729688 
L 98.776747 -36.729688 
L 102.600411 -36.729688 
L 106.424075 -36.729688 
L 110.247739 -36.729688 
L 114.071402 -36.729688 
L 117.895066 -36.729688 
L 121.71873 -36.729688 
L 125.542394 -36.729688 
L 129.366058 -36.729688 
L 133.189721 -36.729688 
L 137.013385 -36.729688 
L 140.837049 -36.729688 
L 144.660713 -36.729688 
L 148.484376 -36.729688 
L 152.30804 -36.729688 
L 156.131704 -36.729688 
L 159.955368 -36.729688 
L 163.779032 -36.729688 
L 167.602695 -36.729688 
L 171.426359 -36.729688 
L 175.250023 -36.729688 
L 179.073687 -36.729688 
L 182.89735 -36.729688 
L 186.721014 -36.729688 
L 190.544678 -36.729688 
L 194.368342 -36.729688 
L 198.192005 -36.729688 
L 202.015669 -36.729688 
L 205.839333 -36.729688 
L 209.662997 -36.729688 
L 213.486661 -36.729688 
L 217.310324 -36.729688 
L 221.133988 -36.729688 
L 224.957652 -36.729688 
L 228.781316 -36.729688 
L 232.604979 -36.729688 
L 236.428643 -36.729688 
L 240.252307 -36.729688 
L 244.075971 -36.729688 
L 247.899635 -36.729688 
L 251.723298 -36.729688 
L 255.546962 -36.729688 
L 259.370626 -36.729688 
L 263.19429 -36.729688 
L 267.017953 -36.729688 
L 270.841617 -36.729688 
L 274.665281 -36.729688 
L 278.488945 -36.729688 
L 282.312608 -36.729688 
L 286.136272 -36.729688 
L 289.959936 -36.729688 
L 293.7836 -36.729688 
L 297.607264 -36.729688 
L 301.430927 -36.729688 
L 305.254591 -36.729688 
L 309.078255 -36.729688 
L 312.901919 -36.729688 
L 316.725582 -36.729688 
L 320.549246 -36.729688 
L 324.37291 -36.729688 
L 328.196574 -36.729688 
L 332.020238 -36.729688 
L 335.843901 -36.729688 
L 339.667565 -36.729688 
L 343.491229 -36.729688 
L 347.314893 -36.729688 
L 351.138556 -36.729688 
L 354.96222 -36.729688 
L 358.785884 -36.729688 
L 362.609548 -36.729688 
L 366.433212 -36.729688 
L 370.256875 -36.729688 
L 374.080539 -36.729688 
L 377.904203 -36.729688 
L 381.727867 -36.729688 
L 385.55153 -36.729688 
L 389.375194 -36.729688 
L 393.198858 -36.729688 
L 397.022522 -36.729688 
L 400.846185 -36.729688 
L 404.669849 -36.729688 
L 408.493513 -36.729688 
L 412.317177 -36.729688 
L 416.140841 -36.729688 
L 419.964504 -36.729688 
L 423.788168 -36.729688 
L 427.611832 -36.729688 
L 431.435496 -36.729688 
L 435.259159 -36.729688 
L 439.082823 -36.729688 
L 442.906487 -36.729688 
L 446.730151 -36.729688 
L 450.553815 -36.729688 
L 454.377478 -36.729688 
L 458.201142 -36.729688 
L 462.024806 -36.729688 
L 465.84847 -36.729688 
L 469.672133 -36.729688 
L 473.495797 -36.729688 
L 477.319461 -36.729688 
L 481.143125 -36.729688 
L 484.966788 -36.729688 
L 488.790452 -36.729688 
L 492.614116 -36.729688 
L 496.43778 -36.729688 
L 500.261444 -36.729688 
L 504.085107 -36.729688 
L 507.908771 -36.729688 
L 511.732435 -36.729688 
L 515.556099 -36.729688 
L 519.379762 -36.729688 
L 523.203426 -36.729688 
L 527.02709 -36.729688 
L 530.850754 -36.729688 
L 534.674418 -36.729688 
L 538.498081 -36.729688 
L 542.321745 -36.729688 
L 546.145409 -36.729688 
L 549.969073 -36.729688 
L 553.792736 -36.729688 
L 557.6164 -36.729688 
L 561.440064 -36.729688 
L 565.263728 -36.729688 
L 569.087392 -36.729688 
L 572.911055 -36.729688 
L 576.734719 -36.729688 
L 580.558383 -36.729688 
L 584.382047 -36.729688 
L 588.20571 -36.729688 
L 592.029374 -36.729688 
L 595.853038 -36.729688 
L 599.676702 -36.729688 
L 603.500365 -36.729688 
L 607.324029 -36.729688 
L 611.147693 -36.729688 
L 614.971357 -36.729688 
L 618.795021 -36.729688 
L 622.618684 -36.729688 
L 626.442348 -36.729688 
L 630.266012 -36.729688 
L 634.089676 -36.729688 
L 637.913339 -36.729688 
L 641.737003 -36.729688 
L 645.560667 -36.729688 
L 649.384331 -36.729688 
L 653.207995 -36.729688 
L 657.031658 -36.729688 
L 660.855322 -36.729688 
L 664.678986 -36.729688 
L 668.50265 -36.729688 
L 672.326313 -36.729688 
L 676.149977 -36.729688 
L 679.973641 -36.729688 
L 683.797305 -36.729688 
L 687.620968 -36.729688 
L 691.444632 -36.729688 
L 695.268296 -36.729688 
L 699.09196 -36.729688 
L 702.915624 -36.729688 
L 706.739287 -36.729688 
L 710.562951 -36.729688 
L 714.386615 -36.729688 
L 718.210279 -36.729688 
L 722.033942 -36.729688 
L 725.857606 -36.729688 
L 729.68127 -36.729688 
L 733.504934 -36.729688 
L 737.328598 -36.729688 
L 741.152261 -36.729688 
L 744.975925 -36.729688 
L 748.799589 -36.729688 
L 752.623253 -36.729688 
L 756.446916 -36.729688 
L 760.27058 -36.729688 
L 764.094244 -36.729688 
L 767.917908 -36.729688 
L 771.741571 -36.729688 
L 775.565235 -36.729688 
L 779.388899 -36.729688 
L 783.212563 -36.729688 
L 787.036227 -36.729688 
L 790.85989 -36.729688 
L 794.683554 -36.729688 
L 798.507218 -36.729688 
L 802.330882 -36.729688 
L 806.154545 -36.729688 
L 806.154545 -36.737586 
L 806.154545 -36.737586 
L 802.330882 -36.749045 
L 798.507218 -36.772638 
L 794.683554 -36.815962 
L 790.85989 -36.886579 
L 787.036227 -36.987984 
L 783.212563 -37.11467 
L 779.388899 -37.249172 
L 775.565235 -37.364329 
L 771.741571 -37.431732 
L 767.917908 -37.43319 
L 764.094244 -37.369201 
L 760.27058 -37.259564 
L 756.446916 -37.136092 
L 752.623253 -37.032074 
L 748.799589 -36.974095 
L 744.975925 -36.978733 
L 741.152261 -37.052868 
L 737.328598 -37.195009 
L 733.504934 -37.396656 
L 729.68127 -37.644627 
L 725.857606 -37.925104 
L 722.033942 -38.227909 
L 718.210279 -38.548048 
L 714.386615 -38.883201 
L 710.562951 -39.229626 
L 706.739287 -39.581094 
L 702.915624 -39.933272 
L 699.09196 -40.290897 
L 695.268296 -40.671895 
L 691.444632 -41.104795 
L 687.620968 -41.621829 
L 683.797305 -42.254555 
L 679.973641 -43.036828 
L 676.149977 -44.012592 
L 672.326313 -45.23983 
L 668.50265 -46.783905 
L 664.678986 -48.703226 
L 660.855322 -51.039316 
L 657.031658 -53.822755 
L 653.207995 -57.09471 
L 649.384331 -60.929908 
L 645.560667 -65.442354 
L 641.737003 -70.763791 
L 637.913339 -77.000784 
L 634.089676 -84.189074 
L 630.266012 -92.266902 
L 626.442348 -101.08178 
L 622.618684 -110.431432 
L 618.795021 -120.124379 
L 614.971357 -130.034466 
L 611.147693 -140.122554 
L 607.324029 -150.411373 
L 603.500365 -160.923249 
L 599.676702 -171.612775 
L 595.853038 -182.331377 
L 592.029374 -192.841866 
L 588.20571 -202.870903 
L 584.382047 -212.168614 
L 580.558383 -220.549208 
L 576.734719 -227.904279 
L 572.911055 -234.192281 
L 569.087392 -239.406934 
L 565.263728 -243.525293 
L 561.440064 -246.444347 
L 557.6164 -247.929688 
L 553.792736 -247.607041 
L 549.969073 -245.018343 
L 546.145409 -239.74122 
L 542.321745 -231.54228 
L 538.498081 -220.510731 
L 534.674418 -207.112957 
L 530.850754 -192.131711 
L 527.02709 -176.501279 
L 523.203426 -161.098176 
L 519.379762 -146.567327 
L 515.556099 -133.244494 
L 511.732435 -121.188897 
L 507.908771 -110.291864 
L 504.085107 -100.402406 
L 500.261444 -91.418105 
L 496.43778 -83.318295 
L 492.614116 -76.145295 
L 488.790452 -69.954678 
L 484.966788 -64.759299 
L 481.143125 -60.491325 
L 477.319461 -57.001437 
L 473.495797 -54.099057 
L 469.672133 -51.614308 
L 465.84847 -49.446995 
L 462.024806 -47.574614 
L 458.201142 -46.018125 
L 454.377478 -44.791226 
L 450.553815 -43.866476 
L 446.730151 -43.175886 
L 442.906487 -42.638152 
L 439.082823 -42.188733 
L 435.259159 -41.792071 
L 431.435496 -41.432118 
L 427.611832 -41.093599 
L 423.788168 -40.750617 
L 419.964504 -40.37098 
L 416.140841 -39.932391 
L 412.317177 -39.439237 
L 408.493513 -38.929326 
L 404.669849 -38.466367 
L 400.846185 -38.121569 
L 397.022522 -37.952458 
L 393.198858 -37.986878 
L 389.375194 -38.216223 
L 385.55153 -38.597488 
L 381.727867 -39.061306 
L 377.904203 -39.52346 
L 374.080539 -39.898699 
L 370.256875 -40.115953 
L 366.433212 -40.132594 
L 362.609548 -39.943513 
L 358.785884 -39.581016 
L 354.96222 -39.104761 
L 351.138556 -38.58533 
L 347.314893 -38.087433 
L 343.491229 -37.657924 
L 339.667565 -37.320887 
L 335.843901 -37.079272 
L 332.020238 -36.920907 
L 328.196574 -36.826097 
L 324.37291 -36.774343 
L 320.549246 -36.748638 
L 316.725582 -36.737053 
L 312.901919 -36.732366 
L 309.078255 -36.73082 
L 305.254591 -36.730912 
L 301.430927 -36.732682 
L 297.607264 -36.73763 
L 293.7836 -36.74911 
L 289.959936 -36.772758 
L 286.136272 -36.816171 
L 282.312608 -36.8869 
L 278.488945 -36.988415 
L 274.665281 -37.115167 
L 270.841617 -37.249637 
L 267.017953 -37.364613 
L 263.19429 -37.431605 
L 259.370626 -37.432195 
L 255.546962 -37.366216 
L 251.723298 -37.251826 
L 247.899635 -37.117441 
L 244.075971 -36.990379 
L 240.252307 -36.888359 
L 236.428643 -36.81712 
L 232.604979 -36.773304 
L 228.781316 -36.749386 
L 224.957652 -36.737741 
L 221.133988 -36.732669 
L 217.310324 -36.730687 
L 213.486661 -36.729991 
L 209.662997 -36.729771 
L 205.839333 -36.729708 
L 202.015669 -36.729692 
L 198.192005 -36.729688 
L 194.368342 -36.729688 
L 190.544678 -36.729688 
L 186.721014 -36.729688 
L 182.89735 -36.729688 
L 179.073687 -36.729688 
L 175.250023 -36.729688 
L 171.426359 -36.729688 
L 167.602695 -36.729688 
L 163.779032 -36.729688 
L 159.955368 -36.729688 
L 156.131704 -36.729688 
L 152.30804 -36.729688 
L 148.484376 -36.729688 
L 144.660713 -36.729688 
L 140.837049 -36.729692 
L 137.013385 -36.729708 
L 133.189721 -36.729771 
L 129.366058 -36.729992 
L 125.542394 -36.730691 
L 121.71873 -36.73268 
L 117.895066 -36.73777 
L 114.071402 -36.749448 
L 110.247739 -36.773425 
L 106.424075 -36.81733 
L 102.600411 -36.888682 
L 98.776747 -36.990812 
L 94.953084 -37.117942 
L 91.12942 -37.252307 
L 87.305756 -37.366567 
L 83.482092 -37.432323 
L 79.658429 -37.431473 
L 75.834765 -37.364259 
L 72.011101 -37.249154 
L 68.187437 -37.114667 
L 64.363773 -36.987984 
L 60.54011 -36.886579 
L 56.716446 -36.815962 
L 52.892782 -36.772638 
L 49.069118 -36.749045 
L 45.245455 -36.737586 
z
" style="stroke: #4c72b0"/>
    </defs>
    <g>
     <use xlink:href="#m36e7fa810b" x="0" y="265.689687" style="fill: #4c72b0; fill-opacity: 0.25; stroke: #4c72b0"/>
    </g>
   </g>
   <g id="line2d_37">
    <path d="M 290.672407 228.96 
L 290.672407 7.2 
" style="fill: none; stroke-dasharray: 2.96,1.28; stroke-dashoffset: 0; stroke: #d3d3d3; stroke-width: 0.8"/>
   </g>
   <g id="line2d_38">
    <path d="M 467.260724 228.96 
L 467.260724 7.2 
" style="fill: none; stroke-dasharray: 2.96,1.28; stroke-dashoffset: 0; stroke: #d3d3d3; stroke-width: 0.8"/>
   </g>
   <g id="line2d_39">
    <path d="M 392.150467 228.96 
L 392.150467 7.2 
" style="fill: none; stroke-dasharray: 2.96,1.28; stroke-dashoffset: 0; stroke: #d3d3d3; stroke-width: 0.8"/>
   </g>
   <g id="line2d_40">
    <path d="M 7.2 228.96 
L 844.2 228.96 
" style="fill: none; stroke: #808080; stroke-width: 0.5; stroke-linecap: round"/>
   </g>
   <g id="text_12">
    <text style="font-size: 8px; font-family: 'Arial', 'DejaVu Sans', 'Liberation Sans', 'Bitstream Vera Sans', sans-serif; fill: #808080" transform="translate(296.926157 124.59635) rotate(-90)">International Poverty Line: $3.00</text>
   </g>
   <g id="text_13">
    <text style="font-size: 8px; font-family: 'Arial', 'DejaVu Sans', 'Liberation Sans', 'Bitstream Vera Sans', sans-serif; fill: #808080" transform="translate(472.986974 81.31135) rotate(-90)">World mean: $21.69</text>
   </g>
   <g id="text_14">
    <text style="font-size: 8px; font-family: 'Arial', 'DejaVu Sans', 'Liberation Sans', 'Bitstream Vera Sans', sans-serif; fill: #808080" transform="translate(397.876717 83.08885) rotate(-90)">World median: $9.35</text>
   </g>
   <g id="legend_1">
    <g id="patch_3">
     <path d="M 683.8 102.344187 
L 756.364063 102.344187 
Q 758.364063 102.344187 758.364063 100.344187 
L 758.364063 58.552 
Q 758.364063 56.552 756.364063 56.552 
L 683.8 56.552 
Q 681.8 56.552 681.8 58.552 
L 681.8 100.344187 
Q 681.8 102.344187 683.8 102.344187 
z
" style="fill: #ffffff; opacity: 0.8; stroke: #cccccc; stroke-linejoin: miter"/>
    </g>
    <g id="text_15">
     <text style="font-size: 10px; font-family: 'Arial', 'DejaVu Sans', 'Liberation Sans', 'Bitstream Vera Sans', sans-serif; text-anchor: start; fill: #262626" x="702.575781" y="67.831687" transform="rotate(-0 702.575781 67.831687)">Country</text>
    </g>
    <g id="patch_4">
     <path d="M 685.8 82.094187 
L 705.8 82.094187 
L 705.8 75.094187 
L 685.8 75.094187 
z
" style="fill: #4c72b0; fill-opacity: 0.25; stroke: #4c72b0; stroke-linejoin: miter"/>
    </g>
    <g id="text_16">
     <text style="font-size: 10px; font-family: 'Arial', 'DejaVu Sans', 'Liberation Sans', 'Bitstream Vera Sans', sans-serif; text-anchor: start; fill: #262626" x="713.8" y="82.094187" transform="rotate(-0 713.8 82.094187)">Denmark</text>
    </g>
    <g id="patch_5">
     <path d="M 685.8 96.2395 
L 705.8 96.2395 
L 705.8 89.2395 
L 685.8 89.2395 
z
" style="fill: #dd8452; fill-opacity: 0.25; stroke: #dd8452; stroke-linejoin: miter"/>
    </g>
    <g id="text_17">
     <text style="font-size: 10px; font-family: 'Arial', 'DejaVu Sans', 'Liberation Sans', 'Bitstream Vera Sans', sans-serif; text-anchor: start; fill: #262626" x="713.8" y="96.2395" transform="rotate(-0 713.8 96.2395)">Kenya</text>
    </g>
   </g>
  </g>
 </g>
</svg>
