<?xml version="1.0" encoding="utf-8" standalone="no"?>
<!DOCTYPE svg PUBLIC "-//W3C//DTD SVG 1.1//EN"
  "http://www.w3.org/Graphics/SVG/1.1/DTD/svg11.dtd">
<svg xmlns:xlink="http://www.w3.org/1999/xlink" width="854.478043pt" height="282.943437pt" viewBox="0 0 854.478043 282.943437" xmlns="http://www.w3.org/2000/svg" version="1.1">
 <metadata>
  <rdf:RDF xmlns:dc="http://purl.org/dc/elements/1.1/" xmlns:cc="http://creativecommons.org/ns#" xmlns:rdf="http://www.w3.org/1999/02/22-rdf-syntax-ns#">
   <cc:Work>
    <dc:type rdf:resource="http://purl.org/dc/dcmitype/StillImage"/>
    <dc:date>2026-05-27T16:31:47.844830</dc:date>
    <dc:format>image/svg+xml</dc:format>
    <dc:creator>
     <cc:Agent>
      <dc:title>Matplotlib v3.10.9, https://matplotlib.org/</dc:title>
     </cc:Agent>
    </dc:creator>
   </cc:Work>
  </rdf:RDF>
 </metadata>
 <defs>
  <style type="text/css">*{stroke-linejoin: round; stroke-linecap: butt}</style>
 </defs>
 <g id="figure_1">
  <g id="patch_1">
   <path d="M 0 282.943437 
L 854.478043 282.943437 
L 854.478043 0 
L 0 0 
z
" style="fill: #ffffff"/>
  </g>
  <g id="axes_1">
   <g id="patch_2">
    <path d="M 7.2 246.21375 
L 844.2 246.21375 
L 844.2 24.45375 
L 7.2 24.45375 
z
" style="fill: #ffffff"/>
   </g>
   <g id="matplotlib.axis_1">
    <g id="xtick_1">
     <g id="line2d_1">
      <defs>
       <path id="m3585978eed" d="M 0 0 
L 0 3.5 
" style="stroke: #262626; stroke-width: 0.8"/>
      </defs>
      <g>
       <use xlink:href="#m3585978eed" x="122.96992" y="246.21375" style="fill: #262626; stroke: #262626; stroke-width: 0.8"/>
      </g>
     </g>
     <g id="text_1">
      <text style="font-size: 10px; font-family: 'Arial', 'DejaVu Sans', 'Liberation Sans', 'Bitstream Vera Sans', sans-serif; text-anchor: middle; fill: #262626" x="122.96992" y="260.371562" transform="rotate(-0 122.96992 260.371562)">$50</text>
     </g>
    </g>
    <g id="xtick_2">
     <g id="line2d_2">
      <g>
       <use xlink:href="#m3585978eed" x="215.544308" y="246.21375" style="fill: #262626; stroke: #262626; stroke-width: 0.8"/>
      </g>
     </g>
     <g id="text_2">
      <text style="font-size: 10px; font-family: 'Arial', 'DejaVu Sans', 'Liberation Sans', 'Bitstream Vera Sans', sans-serif; text-anchor: middle; fill: #262626" x="215.544308" y="260.371562" transform="rotate(-0 215.544308 260.371562)">$100</text>
     </g>
    </g>
    <g id="xtick_3">
     <g id="line2d_3">
      <g>
       <use xlink:href="#m3585978eed" x="308.118697" y="246.21375" style="fill: #262626; stroke: #262626; stroke-width: 0.8"/>
      </g>
     </g>
     <g id="text_3">
      <text style="font-size: 10px; font-family: 'Arial', 'DejaVu Sans', 'Liberation Sans', 'Bitstream Vera Sans', sans-serif; text-anchor: middle; fill: #262626" x="308.118697" y="260.371562" transform="rotate(-0 308.118697 260.371562)">$200</text>
     </g>
    </g>
    <g id="xtick_4">
     <g id="line2d_4">
      <g>
       <use xlink:href="#m3585978eed" x="430.495381" y="246.21375" style="fill: #262626; stroke: #262626; stroke-width: 0.8"/>
      </g>
     </g>
     <g id="text_4">
      <text style="font-size: 10px; font-family: 'Arial', 'DejaVu Sans', 'Liberation Sans', 'Bitstream Vera Sans', sans-serif; text-anchor: middle; fill: #262626" x="430.495381" y="260.371562" transform="rotate(-0 430.495381 260.371562)">$500</text>
     </g>
    </g>
    <g id="xtick_5">
     <g id="line2d_5">
      <g>
       <use xlink:href="#m3585978eed" x="523.069769" y="246.21375" style="fill: #262626; stroke: #262626; stroke-width: 0.8"/>
      </g>
     </g>
     <g id="text_5">
      <text style="font-size: 10px; font-family: 'Arial', 'DejaVu Sans', 'Liberation Sans', 'Bitstream Vera Sans', sans-serif; text-anchor: middle; fill: #262626" x="523.069769" y="260.371562" transform="rotate(-0 523.069769 260.371562)">$1000</text>
     </g>
    </g>
    <g id="xtick_6">
     <g id="line2d_6">
      <g>
       <use xlink:href="#m3585978eed" x="615.644158" y="246.21375" style="fill: #262626; stroke: #262626; stroke-width: 0.8"/>
      </g>
     </g>
     <g id="text_6">
      <text style="font-size: 10px; font-family: 'Arial', 'DejaVu Sans', 'Liberation Sans', 'Bitstream Vera Sans', sans-serif; text-anchor: middle; fill: #262626" x="615.644158" y="260.371562" transform="rotate(-0 615.644158 260.371562)">$2000</text>
     </g>
    </g>
    <g id="xtick_7">
     <g id="line2d_7">
      <g>
       <use xlink:href="#m3585978eed" x="738.020842" y="246.21375" style="fill: #262626; stroke: #262626; stroke-width: 0.8"/>
      </g>
     </g>
     <g id="text_7">
      <text style="font-size: 10px; font-family: 'Arial', 'DejaVu Sans', 'Liberation Sans', 'Bitstream Vera Sans', sans-serif; text-anchor: middle; fill: #262626" x="738.020842" y="260.371562" transform="rotate(-0 738.020842 260.371562)">$5000</text>
     </g>
    </g>
    <g id="xtick_8">
     <g id="line2d_8">
      <g>
       <use xlink:href="#m3585978eed" x="830.595231" y="246.21375" style="fill: #262626; stroke: #262626; stroke-width: 0.8"/>
      </g>
     </g>
     <g id="text_8">
      <text style="font-size: 10px; font-family: 'Arial', 'DejaVu Sans', 'Liberation Sans', 'Bitstream Vera Sans', sans-serif; text-anchor: middle; fill: #262626" x="830.595231" y="260.371562" transform="rotate(-0 830.595231 260.371562)">$10000</text>
     </g>
    </g>
    <g id="xtick_9">
     <g id="line2d_9">
      <defs>
       <path id="me4bddafcd0" d="M 0 0 
L 0 2 
" style="stroke: #262626; stroke-width: 0.6"/>
      </defs>
      <g>
       <use xlink:href="#me4bddafcd0" x="54.745781" y="246.21375" style="fill: #262626; stroke: #262626; stroke-width: 0.6"/>
      </g>
     </g>
    </g>
    <g id="xtick_10">
     <g id="line2d_10">
      <g>
       <use xlink:href="#me4bddafcd0" x="93.167624" y="246.21375" style="fill: #262626; stroke: #262626; stroke-width: 0.6"/>
      </g>
     </g>
    </g>
    <g id="xtick_11">
     <g id="line2d_11">
      <g>
       <use xlink:href="#me4bddafcd0" x="147.320169" y="246.21375" style="fill: #262626; stroke: #262626; stroke-width: 0.6"/>
      </g>
     </g>
    </g>
    <g id="xtick_12">
     <g id="line2d_12">
      <g>
       <use xlink:href="#me4bddafcd0" x="167.908012" y="246.21375" style="fill: #262626; stroke: #262626; stroke-width: 0.6"/>
      </g>
     </g>
    </g>
    <g id="xtick_13">
     <g id="line2d_13">
      <g>
       <use xlink:href="#me4bddafcd0" x="185.742012" y="246.21375" style="fill: #262626; stroke: #262626; stroke-width: 0.6"/>
      </g>
     </g>
    </g>
    <g id="xtick_14">
     <g id="line2d_14">
      <g>
       <use xlink:href="#me4bddafcd0" x="201.472715" y="246.21375" style="fill: #262626; stroke: #262626; stroke-width: 0.6"/>
      </g>
     </g>
    </g>
    <g id="xtick_15">
     <g id="line2d_15">
      <g>
       <use xlink:href="#me4bddafcd0" x="362.271242" y="246.21375" style="fill: #262626; stroke: #262626; stroke-width: 0.6"/>
      </g>
     </g>
    </g>
    <g id="xtick_16">
     <g id="line2d_16">
      <g>
       <use xlink:href="#me4bddafcd0" x="400.693085" y="246.21375" style="fill: #262626; stroke: #262626; stroke-width: 0.6"/>
      </g>
     </g>
    </g>
    <g id="xtick_17">
     <g id="line2d_17">
      <g>
       <use xlink:href="#me4bddafcd0" x="454.84563" y="246.21375" style="fill: #262626; stroke: #262626; stroke-width: 0.6"/>
      </g>
     </g>
    </g>
    <g id="xtick_18">
     <g id="line2d_18">
      <g>
       <use xlink:href="#me4bddafcd0" x="475.433473" y="246.21375" style="fill: #262626; stroke: #262626; stroke-width: 0.6"/>
      </g>
     </g>
    </g>
    <g id="xtick_19">
     <g id="line2d_19">
      <g>
       <use xlink:href="#me4bddafcd0" x="493.267473" y="246.21375" style="fill: #262626; stroke: #262626; stroke-width: 0.6"/>
      </g>
     </g>
    </g>
    <g id="xtick_20">
     <g id="line2d_20">
      <g>
       <use xlink:href="#me4bddafcd0" x="508.998176" y="246.21375" style="fill: #262626; stroke: #262626; stroke-width: 0.6"/>
      </g>
     </g>
    </g>
    <g id="xtick_21">
     <g id="line2d_21">
      <g>
       <use xlink:href="#me4bddafcd0" x="669.796703" y="246.21375" style="fill: #262626; stroke: #262626; stroke-width: 0.6"/>
      </g>
     </g>
    </g>
    <g id="xtick_22">
     <g id="line2d_22">
      <g>
       <use xlink:href="#me4bddafcd0" x="708.218546" y="246.21375" style="fill: #262626; stroke: #262626; stroke-width: 0.6"/>
      </g>
     </g>
    </g>
    <g id="xtick_23">
     <g id="line2d_23">
      <g>
       <use xlink:href="#me4bddafcd0" x="762.371092" y="246.21375" style="fill: #262626; stroke: #262626; stroke-width: 0.6"/>
      </g>
     </g>
    </g>
    <g id="xtick_24">
     <g id="line2d_24">
      <g>
       <use xlink:href="#me4bddafcd0" x="782.958934" y="246.21375" style="fill: #262626; stroke: #262626; stroke-width: 0.6"/>
      </g>
     </g>
    </g>
    <g id="xtick_25">
     <g id="line2d_25">
      <g>
       <use xlink:href="#me4bddafcd0" x="800.792934" y="246.21375" style="fill: #262626; stroke: #262626; stroke-width: 0.6"/>
      </g>
     </g>
    </g>
    <g id="xtick_26">
     <g id="line2d_26">
      <g>
       <use xlink:href="#me4bddafcd0" x="816.523637" y="246.21375" style="fill: #262626; stroke: #262626; stroke-width: 0.6"/>
      </g>
     </g>
    </g>
    <g id="text_9">
     <text style="font-size: 10px; font-family: 'Arial', 'DejaVu Sans', 'Liberation Sans', 'Bitstream Vera Sans', sans-serif; text-anchor: middle; fill: #262626" x="425.7" y="273.63875" transform="rotate(-0 425.7 273.63875)">Income or consumption (month)</text>
    </g>
   </g>
   <g id="matplotlib.axis_2"/>
   <g id="FillBetweenPolyCollection_1">
    <defs>
     <path id="m0ac3b87ee9" d="M 45.245455 -36.729688 
L 45.245455 -36.800774 
L 47.287842 -36.822329 
L 49.330229 -36.849594 
L 51.372616 -36.88383 
L 53.415003 -36.926503 
L 55.45739 -36.979304 
L 57.499777 -37.044164 
L 59.542164 -37.123261 
L 61.584551 -37.219029 
L 63.626938 -37.334155 
L 65.669325 -37.471573 
L 67.711712 -37.634449 
L 69.754099 -37.826158 
L 71.796486 -38.050252 
L 73.838873 -38.310417 
L 75.88126 -38.610432 
L 77.923647 -38.954107 
L 79.966034 -39.345227 
L 82.008421 -39.787486 
L 84.050808 -40.284421 
L 86.093195 -40.83935 
L 88.135582 -41.455304 
L 90.177969 -42.134979 
L 92.220356 -42.880683 
L 94.262743 -43.694299 
L 96.30513 -44.577261 
L 98.347517 -45.530539 
L 100.389904 -46.554642 
L 102.432291 -47.649629 
L 104.474678 -48.815138 
L 106.517065 -50.05042 
L 108.559452 -51.35439 
L 110.601839 -52.725673 
L 112.644226 -54.162671 
L 114.686613 -55.663612 
L 116.729 -57.226618 
L 118.771387 -58.849752 
L 120.813774 -60.531076 
L 122.856161 -62.268689 
L 124.898548 -64.060769 
L 126.940935 -65.9056 
L 128.983322 -67.801596 
L 131.025709 -69.747314 
L 133.068096 -71.741469 
L 135.110483 -73.782934 
L 137.15287 -75.870745 
L 139.195257 -78.0041 
L 141.237644 -80.182359 
L 143.280032 -82.405043 
L 145.322419 -84.671835 
L 147.364806 -86.982582 
L 149.407193 -89.337295 
L 151.44958 -91.736154 
L 153.491967 -94.179514 
L 155.534354 -96.667901 
L 157.576741 -99.202016 
L 159.619128 -101.782727 
L 161.661515 -104.411061 
L 163.703902 -107.088185 
L 165.746289 -109.815376 
L 167.788676 -112.593992 
L 169.831063 -115.425416 
L 171.87345 -118.311007 
L 173.915837 -121.252026 
L 175.958224 -124.24956 
L 178.000611 -127.304438 
L 180.042998 -130.41714 
L 182.085385 -133.5877 
L 184.127772 -136.815616 
L 186.170159 -140.099759 
L 188.212546 -143.438286 
L 190.254933 -146.828575 
L 192.29732 -150.267157 
L 194.339707 -153.749677 
L 196.382094 -157.270872 
L 198.424481 -160.824556 
L 200.466868 -164.403641 
L 202.509255 -168.000163 
L 204.551642 -171.605331 
L 206.594029 -175.209594 
L 208.636416 -178.802709 
L 210.678803 -182.373834 
L 212.72119 -185.911612 
L 214.763577 -189.404266 
L 216.805964 -192.839697 
L 218.848351 -196.205574 
L 220.890738 -199.489424 
L 222.933125 -202.67872 
L 224.975512 -205.760966 
L 227.017899 -208.723772 
L 229.060286 -211.554942 
L 231.102673 -214.242543 
L 233.14506 -216.774994 
L 235.187447 -219.141147 
L 237.229834 -221.330374 
L 239.272221 -223.332667 
L 241.314608 -225.138737 
L 243.356996 -226.740119 
L 245.399383 -228.129287 
L 247.44177 -229.299766 
L 249.484157 -230.246247 
L 251.526544 -230.964694 
L 253.568931 -231.452447 
L 255.611318 -231.708306 
L 257.653705 -231.732603 
L 259.696092 -231.527244 
L 261.738479 -231.095728 
L 263.780866 -230.443131 
L 265.823253 -229.576056 
L 267.86564 -228.502545 
L 269.908027 -227.231957 
L 271.950414 -225.774805 
L 273.992801 -224.142564 
L 276.035188 -222.347443 
L 278.077575 -220.402146 
L 280.119962 -218.319604 
L 282.162349 -216.112713 
L 284.204736 -213.794067 
L 286.247123 -211.375711 
L 288.28951 -208.868909 
L 290.331897 -206.283956 
L 292.374284 -203.630022 
L 294.416671 -200.91505 
L 296.459058 -198.145705 
L 298.501445 -195.327375 
L 300.543832 -192.464231 
L 302.586219 -189.559335 
L 304.628606 -186.614798 
L 306.670993 -183.631969 
L 308.71338 -180.611654 
L 310.755767 -177.554355 
L 312.798154 -174.4605 
L 314.840541 -171.330674 
L 316.882928 -168.165815 
L 318.925315 -164.967391 
L 320.967702 -161.737516 
L 323.010089 -158.479026 
L 325.052476 -155.1955 
L 327.094863 -151.891223 
L 329.13725 -148.571101 
L 331.179637 -145.240528 
L 333.222024 -141.905219 
L 335.264411 -138.571014 
L 337.306798 -135.243677 
L 339.349185 -131.928693 
L 341.391572 -128.631078 
L 343.43396 -125.355224 
L 345.476347 -122.104782 
L 347.518734 -118.882589 
L 349.561121 -115.690657 
L 351.603508 -112.530207 
L 353.645895 -109.401769 
L 355.688282 -106.305323 
L 357.730669 -103.240479 
L 359.773056 -100.206694 
L 361.815443 -97.203497 
L 363.85783 -94.230717 
L 365.900217 -91.288703 
L 367.942604 -88.378515 
L 369.984991 -85.502072 
L 372.027378 -82.662258 
L 374.069765 -79.862973 
L 376.112152 -77.109121 
L 378.154539 -74.406541 
L 380.196926 -71.761887 
L 382.239313 -69.182456 
L 384.2817 -66.675975 
L 386.324087 -64.250364 
L 388.366474 -61.913479 
L 390.408861 -59.672856 
L 392.451248 -57.53546 
L 394.493635 -55.507456 
L 396.536022 -53.594015 
L 398.578409 -51.799155 
L 400.620796 -50.125625 
L 402.663183 -48.574839 
L 404.70557 -47.146858 
L 406.747957 -45.840417 
L 408.790344 -44.652992 
L 410.832731 -43.580907 
L 412.875118 -42.619465 
L 414.917505 -41.763106 
L 416.959892 -41.005576 
L 419.002279 -40.340102 
L 421.044666 -39.759566 
L 423.087053 -39.256676 
L 425.12944 -38.824112 
L 427.171827 -38.454671 
L 429.214214 -38.141383 
L 431.256601 -37.877606 
L 433.298988 -37.657103 
L 435.341375 -37.474098 
L 437.383762 -37.323304 
L 439.426149 -37.199948 
L 441.468536 -37.099765 
L 443.510924 -37.018991 
L 445.553311 -36.954338 
L 447.595698 -36.902964 
L 449.638085 -36.862438 
L 451.680472 -36.830702 
L 451.680472 -36.729688 
L 451.680472 -36.729688 
L 449.638085 -36.729688 
L 447.595698 -36.729688 
L 445.553311 -36.729688 
L 443.510924 -36.729688 
L 441.468536 -36.729688 
L 439.426149 -36.729688 
L 437.383762 -36.729688 
L 435.341375 -36.729688 
L 433.298988 -36.729688 
L 431.256601 -36.729688 
L 429.214214 -36.729688 
L 427.171827 -36.729688 
L 425.12944 -36.729688 
L 423.087053 -36.729688 
L 421.044666 -36.729688 
L 419.002279 -36.729688 
L 416.959892 -36.729688 
L 414.917505 -36.729688 
L 412.875118 -36.729688 
L 410.832731 -36.729688 
L 408.790344 -36.729688 
L 406.747957 -36.729688 
L 404.70557 -36.729688 
L 402.663183 -36.729688 
L 400.620796 -36.729688 
L 398.578409 -36.729688 
L 396.536022 -36.729688 
L 394.493635 -36.729688 
L 392.451248 -36.729688 
L 390.408861 -36.729688 
L 388.366474 -36.729688 
L 386.324087 -36.729688 
L 384.2817 -36.729688 
L 382.239313 -36.729688 
L 380.196926 -36.729688 
L 378.154539 -36.729688 
L 376.112152 -36.729688 
L 374.069765 -36.729688 
L 372.027378 -36.729688 
L 369.984991 -36.729688 
L 367.942604 -36.729688 
L 365.900217 -36.729688 
L 363.85783 -36.729688 
L 361.815443 -36.729688 
L 359.773056 -36.729688 
L 357.730669 -36.729688 
L 355.688282 -36.729688 
L 353.645895 -36.729688 
L 351.603508 -36.729688 
L 349.561121 -36.729688 
L 347.518734 -36.729688 
L 345.476347 -36.729688 
L 343.43396 -36.729688 
L 341.391572 -36.729688 
L 339.349185 -36.729688 
L 337.306798 -36.729688 
L 335.264411 -36.729688 
L 333.222024 -36.729688 
L 331.179637 -36.729688 
L 329.13725 -36.729688 
L 327.094863 -36.729688 
L 325.052476 -36.729688 
L 323.010089 -36.729688 
L 320.967702 -36.729688 
L 318.925315 -36.729688 
L 316.882928 -36.729688 
L 314.840541 -36.729688 
L 312.798154 -36.729688 
L 310.755767 -36.729688 
L 308.71338 -36.729688 
L 306.670993 -36.729688 
L 304.628606 -36.729688 
L 302.586219 -36.729688 
L 300.543832 -36.729688 
L 298.501445 -36.729688 
L 296.459058 -36.729688 
L 294.416671 -36.729688 
L 292.374284 -36.729688 
L 290.331897 -36.729688 
L 288.28951 -36.729688 
L 286.247123 -36.729688 
L 284.204736 -36.729688 
L 282.162349 -36.729688 
L 280.119962 -36.729688 
L 278.077575 -36.729688 
L 276.035188 -36.729688 
L 273.992801 -36.729688 
L 271.950414 -36.729688 
L 269.908027 -36.729688 
L 267.86564 -36.729688 
L 265.823253 -36.729688 
L 263.780866 -36.729688 
L 261.738479 -36.729688 
L 259.696092 -36.729688 
L 257.653705 -36.729688 
L 255.611318 -36.729688 
L 253.568931 -36.729688 
L 251.526544 -36.729688 
L 249.484157 -36.729688 
L 247.44177 -36.729688 
L 245.399383 -36.729688 
L 243.356996 -36.729688 
L 241.314608 -36.729688 
L 239.272221 -36.729688 
L 237.229834 -36.729688 
L 235.187447 -36.729688 
L 233.14506 -36.729688 
L 231.102673 -36.729688 
L 229.060286 -36.729688 
L 227.017899 -36.729688 
L 224.975512 -36.729688 
L 222.933125 -36.729688 
L 220.890738 -36.729688 
L 218.848351 -36.729688 
L 216.805964 -36.729688 
L 214.763577 -36.729688 
L 212.72119 -36.729688 
L 210.678803 -36.729688 
L 208.636416 -36.729688 
L 206.594029 -36.729688 
L 204.551642 -36.729688 
L 202.509255 -36.729688 
L 200.466868 -36.729688 
L 198.424481 -36.729688 
L 196.382094 -36.729688 
L 194.339707 -36.729688 
L 192.29732 -36.729688 
L 190.254933 -36.729688 
L 188.212546 -36.729688 
L 186.170159 -36.729688 
L 184.127772 -36.729688 
L 182.085385 -36.729688 
L 180.042998 -36.729688 
L 178.000611 -36.729688 
L 175.958224 -36.729688 
L 173.915837 -36.729688 
L 171.87345 -36.729688 
L 169.831063 -36.729688 
L 167.788676 -36.729688 
L 165.746289 -36.729688 
L 163.703902 -36.729688 
L 161.661515 -36.729688 
L 159.619128 -36.729688 
L 157.576741 -36.729688 
L 155.534354 -36.729688 
L 153.491967 -36.729688 
L 151.44958 -36.729688 
L 149.407193 -36.729688 
L 147.364806 -36.729688 
L 145.322419 -36.729688 
L 143.280032 -36.729688 
L 141.237644 -36.729688 
L 139.195257 -36.729688 
L 137.15287 -36.729688 
L 135.110483 -36.729688 
L 133.068096 -36.729688 
L 131.025709 -36.729688 
L 128.983322 -36.729688 
L 126.940935 -36.729688 
L 124.898548 -36.729688 
L 122.856161 -36.729688 
L 120.813774 -36.729688 
L 118.771387 -36.729688 
L 116.729 -36.729688 
L 114.686613 -36.729688 
L 112.644226 -36.729688 
L 110.601839 -36.729688 
L 108.559452 -36.729688 
L 106.517065 -36.729688 
L 104.474678 -36.729688 
L 102.432291 -36.729688 
L 100.389904 -36.729688 
L 98.347517 -36.729688 
L 96.30513 -36.729688 
L 94.262743 -36.729688 
L 92.220356 -36.729688 
L 90.177969 -36.729688 
L 88.135582 -36.729688 
L 86.093195 -36.729688 
L 84.050808 -36.729688 
L 82.008421 -36.729688 
L 79.966034 -36.729688 
L 77.923647 -36.729688 
L 75.88126 -36.729688 
L 73.838873 -36.729688 
L 71.796486 -36.729688 
L 69.754099 -36.729688 
L 67.711712 -36.729688 
L 65.669325 -36.729688 
L 63.626938 -36.729688 
L 61.584551 -36.729688 
L 59.542164 -36.729688 
L 57.499777 -36.729688 
L 55.45739 -36.729688 
L 53.415003 -36.729688 
L 51.372616 -36.729688 
L 49.330229 -36.729688 
L 47.287842 -36.729688 
L 45.245455 -36.729688 
z
" style="stroke: #dd8452; stroke-opacity: 0.2"/>
    </defs>
    <g>
     <use xlink:href="#m0ac3b87ee9" x="0" y="282.943437" style="fill: #dd8452; fill-opacity: 0.2; stroke: #dd8452; stroke-opacity: 0.2"/>
    </g>
   </g>
   <g id="FillBetweenPolyCollection_2">
    <defs>
     <path id="m3f76b20260" d="M 379.586754 -36.729688 
L 379.586754 -36.794212 
L 381.73031 -36.81508 
L 383.873867 -36.841724 
L 386.017424 -36.875423 
L 388.160981 -36.917639 
L 390.304537 -36.970024 
L 392.448094 -37.034413 
L 394.591651 -37.112808 
L 396.735208 -37.207355 
L 398.878764 -37.320308 
L 401.022321 -37.453986 
L 403.165878 -37.610717 
L 405.309435 -37.792774 
L 407.452991 -38.002312 
L 409.596548 -38.241294 
L 411.740105 -38.511426 
L 413.883662 -38.814096 
L 416.027218 -39.150327 
L 418.170775 -39.520746 
L 420.314332 -39.925571 
L 422.457889 -40.364628 
L 424.601445 -40.837386 
L 426.745002 -41.343024 
L 428.888559 -41.880514 
L 431.032116 -42.448724 
L 433.175672 -43.046537 
L 435.319229 -43.672967 
L 437.462786 -44.327268 
L 439.606342 -45.00904 
L 441.749899 -45.718298 
L 443.893456 -46.45552 
L 446.037013 -47.221657 
L 448.180569 -48.018107 
L 450.324126 -48.846653 
L 452.467683 -49.709369 
L 454.61124 -50.608507 
L 456.754796 -51.546367 
L 458.898353 -52.525166 
L 461.04191 -53.54692 
L 463.185467 -54.613344 
L 465.329023 -55.725794 
L 467.47258 -56.885237 
L 469.616137 -58.092284 
L 471.759694 -59.347251 
L 473.90325 -60.65028 
L 476.046807 -62.001486 
L 478.190364 -63.401138 
L 480.333921 -64.849857 
L 482.477477 -66.348811 
L 484.621034 -67.899908 
L 486.764591 -69.505962 
L 488.908148 -71.170831 
L 491.051704 -72.899502 
L 493.195261 -74.698146 
L 495.338818 -76.574104 
L 497.482375 -78.535836 
L 499.625931 -80.59281 
L 501.769488 -82.755351 
L 503.913045 -85.034447 
L 506.056602 -87.441522 
L 508.200158 -89.988175 
L 510.343715 -92.685906 
L 512.487272 -95.545819 
L 514.630828 -98.578319 
L 516.774385 -101.792804 
L 518.917942 -105.197356 
L 521.061499 -108.798442 
L 523.205055 -112.600619 
L 525.348612 -116.606264 
L 527.492169 -120.81532 
L 529.635726 -125.225066 
L 531.779282 -129.829931 
L 533.922839 -134.621338 
L 536.066396 -139.587602 
L 538.209953 -144.713882 
L 540.353509 -149.982188 
L 542.497066 -155.371465 
L 544.640623 -160.857737 
L 546.78418 -166.414333 
L 548.927736 -172.012182 
L 551.071293 -177.620188 
L 553.21485 -183.205664 
L 555.358407 -188.734834 
L 557.501963 -194.173384 
L 559.64552 -199.487041 
L 561.789077 -204.642183 
L 563.932634 -209.606443 
L 566.07619 -214.349292 
L 568.219747 -218.842591 
L 570.363304 -223.061072 
L 572.506861 -226.98275 
L 574.650417 -230.589235 
L 576.793974 -233.865944 
L 578.937531 -236.802194 
L 581.081087 -239.391183 
L 583.224644 -241.629856 
L 585.368201 -243.518666 
L 587.511758 -245.06125 
L 589.655314 -246.264026 
L 591.798871 -247.135737 
L 593.942428 -247.686974 
L 596.085985 -247.929688 
L 598.229541 -247.87672 
L 600.373098 -247.54138 
L 602.516655 -246.93707 
L 604.660212 -246.07699 
L 606.803768 -244.973919 
L 608.947325 -243.640075 
L 611.090882 -242.087062 
L 613.234439 -240.325881 
L 615.377995 -238.367004 
L 617.521552 -236.220498 
L 619.665109 -233.896164 
L 621.808666 -231.403698 
L 623.952222 -228.752837 
L 626.095779 -225.95348 
L 628.239336 -223.015785 
L 630.382893 -219.950208 
L 632.526449 -216.767508 
L 634.670006 -213.478688 
L 636.813563 -210.094909 
L 638.95712 -206.627357 
L 641.100676 -203.087079 
L 643.244233 -199.484817 
L 645.38779 -195.830828 
L 647.531347 -192.134718 
L 649.674903 -188.405293 
L 651.81846 -184.650447 
L 653.962017 -180.877083 
L 656.105573 -177.091075 
L 658.24913 -173.297283 
L 660.392687 -169.4996 
L 662.536244 -165.701049 
L 664.6798 -161.903915 
L 666.823357 -158.109904 
L 668.966914 -154.320317 
L 671.110471 -150.536249 
L 673.254027 -146.758774 
L 675.397584 -142.989132 
L 677.541141 -139.2289 
L 679.684698 -135.480128 
L 681.828254 -131.745461 
L 683.971811 -128.028207 
L 686.115368 -124.332381 
L 688.258925 -120.6627 
L 690.402481 -117.024544 
L 692.546038 -113.423874 
L 694.689595 -109.867125 
L 696.833152 -106.361066 
L 698.976708 -102.912646 
L 701.120265 -99.528822 
L 703.263822 -96.216384 
L 705.407379 -92.981791 
L 707.550935 -89.831015 
L 709.694492 -86.769398 
L 711.838049 -83.801553 
L 713.981606 -80.931275 
L 716.125162 -78.161505 
L 718.268719 -75.494314 
L 720.412276 -72.930933 
L 722.555832 -70.47181 
L 724.699389 -68.116692 
L 726.842946 -65.864738 
L 728.986503 -63.714632 
L 731.130059 -61.664719 
L 733.273616 -59.713125 
L 735.417173 -57.857875 
L 737.56073 -56.096992 
L 739.704286 -54.428577 
L 741.847843 -52.850858 
L 743.9914 -51.362215 
L 746.134957 -49.961177 
L 748.278513 -48.646394 
L 750.42207 -47.416584 
L 752.565627 -46.270475 
L 754.709184 -45.206722 
L 756.85274 -44.223836 
L 758.996297 -43.32011 
L 761.139854 -42.493554 
L 763.283411 -41.741851 
L 765.426967 -41.062324 
L 767.570524 -40.451929 
L 769.714081 -39.907269 
L 771.857638 -39.42462 
L 774.001194 -38.999983 
L 776.144751 -38.629141 
L 778.288308 -38.307739 
L 780.431865 -38.031347 
L 782.575421 -37.795548 
L 784.718978 -37.596005 
L 786.862535 -37.428529 
L 789.006092 -37.289134 
L 791.149648 -37.174089 
L 793.293205 -37.079948 
L 795.436762 -37.003573 
L 797.580318 -36.942147 
L 799.723875 -36.893175 
L 801.867432 -36.854473 
L 804.010989 -36.824156 
L 806.154545 -36.800619 
L 806.154545 -36.729688 
L 806.154545 -36.729688 
L 804.010989 -36.729688 
L 801.867432 -36.729688 
L 799.723875 -36.729688 
L 797.580318 -36.729688 
L 795.436762 -36.729688 
L 793.293205 -36.729688 
L 791.149648 -36.729688 
L 789.006092 -36.729688 
L 786.862535 -36.729688 
L 784.718978 -36.729688 
L 782.575421 -36.729688 
L 780.431865 -36.729688 
L 778.288308 -36.729688 
L 776.144751 -36.729688 
L 774.001194 -36.729688 
L 771.857638 -36.729688 
L 769.714081 -36.729688 
L 767.570524 -36.729688 
L 765.426967 -36.729688 
L 763.283411 -36.729688 
L 761.139854 -36.729688 
L 758.996297 -36.729688 
L 756.85274 -36.729688 
L 754.709184 -36.729688 
L 752.565627 -36.729688 
L 750.42207 -36.729688 
L 748.278513 -36.729688 
L 746.134957 -36.729688 
L 743.9914 -36.729688 
L 741.847843 -36.729688 
L 739.704286 -36.729688 
L 737.56073 -36.729688 
L 735.417173 -36.729688 
L 733.273616 -36.729688 
L 731.130059 -36.729688 
L 728.986503 -36.729688 
L 726.842946 -36.729688 
L 724.699389 -36.729688 
L 722.555832 -36.729688 
L 720.412276 -36.729688 
L 718.268719 -36.729688 
L 716.125162 -36.729688 
L 713.981606 -36.729688 
L 711.838049 -36.729688 
L 709.694492 -36.729688 
L 707.550935 -36.729688 
L 705.407379 -36.729688 
L 703.263822 -36.729688 
L 701.120265 -36.729688 
L 698.976708 -36.729688 
L 696.833152 -36.729688 
L 694.689595 -36.729688 
L 692.546038 -36.729688 
L 690.402481 -36.729688 
L 688.258925 -36.729688 
L 686.115368 -36.729688 
L 683.971811 -36.729688 
L 681.828254 -36.729688 
L 679.684698 -36.729688 
L 677.541141 -36.729688 
L 675.397584 -36.729688 
L 673.254027 -36.729688 
L 671.110471 -36.729688 
L 668.966914 -36.729688 
L 666.823357 -36.729688 
L 664.6798 -36.729688 
L 662.536244 -36.729688 
L 660.392687 -36.729688 
L 658.24913 -36.729688 
L 656.105573 -36.729688 
L 653.962017 -36.729688 
L 651.81846 -36.729688 
L 649.674903 -36.729688 
L 647.531347 -36.729688 
L 645.38779 -36.729688 
L 643.244233 -36.729688 
L 641.100676 -36.729688 
L 638.95712 -36.729688 
L 636.813563 -36.729688 
L 634.670006 -36.729688 
L 632.526449 -36.729688 
L 630.382893 -36.729688 
L 628.239336 -36.729688 
L 626.095779 -36.729688 
L 623.952222 -36.729688 
L 621.808666 -36.729688 
L 619.665109 -36.729688 
L 617.521552 -36.729688 
L 615.377995 -36.729688 
L 613.234439 -36.729688 
L 611.090882 -36.729688 
L 608.947325 -36.729688 
L 606.803768 -36.729688 
L 604.660212 -36.729688 
L 602.516655 -36.729688 
L 600.373098 -36.729688 
L 598.229541 -36.729688 
L 596.085985 -36.729688 
L 593.942428 -36.729688 
L 591.798871 -36.729688 
L 589.655314 -36.729688 
L 587.511758 -36.729688 
L 585.368201 -36.729688 
L 583.224644 -36.729688 
L 581.081087 -36.729688 
L 578.937531 -36.729688 
L 576.793974 -36.729688 
L 574.650417 -36.729688 
L 572.506861 -36.729688 
L 570.363304 -36.729688 
L 568.219747 -36.729688 
L 566.07619 -36.729688 
L 563.932634 -36.729688 
L 561.789077 -36.729688 
L 559.64552 -36.729688 
L 557.501963 -36.729688 
L 555.358407 -36.729688 
L 553.21485 -36.729688 
L 551.071293 -36.729688 
L 548.927736 -36.729688 
L 546.78418 -36.729688 
L 544.640623 -36.729688 
L 542.497066 -36.729688 
L 540.353509 -36.729688 
L 538.209953 -36.729688 
L 536.066396 -36.729688 
L 533.922839 -36.729688 
L 531.779282 -36.729688 
L 529.635726 -36.729688 
L 527.492169 -36.729688 
L 525.348612 -36.729688 
L 523.205055 -36.729688 
L 521.061499 -36.729688 
L 518.917942 -36.729688 
L 516.774385 -36.729688 
L 514.630828 -36.729688 
L 512.487272 -36.729688 
L 510.343715 -36.729688 
L 508.200158 -36.729688 
L 506.056602 -36.729688 
L 503.913045 -36.729688 
L 501.769488 -36.729688 
L 499.625931 -36.729688 
L 497.482375 -36.729688 
L 495.338818 -36.729688 
L 493.195261 -36.729688 
L 491.051704 -36.729688 
L 488.908148 -36.729688 
L 486.764591 -36.729688 
L 484.621034 -36.729688 
L 482.477477 -36.729688 
L 480.333921 -36.729688 
L 478.190364 -36.729688 
L 476.046807 -36.729688 
L 473.90325 -36.729688 
L 471.759694 -36.729688 
L 469.616137 -36.729688 
L 467.47258 -36.729688 
L 465.329023 -36.729688 
L 463.185467 -36.729688 
L 461.04191 -36.729688 
L 458.898353 -36.729688 
L 456.754796 -36.729688 
L 454.61124 -36.729688 
L 452.467683 -36.729688 
L 450.324126 -36.729688 
L 448.180569 -36.729688 
L 446.037013 -36.729688 
L 443.893456 -36.729688 
L 441.749899 -36.729688 
L 439.606342 -36.729688 
L 437.462786 -36.729688 
L 435.319229 -36.729688 
L 433.175672 -36.729688 
L 431.032116 -36.729688 
L 428.888559 -36.729688 
L 426.745002 -36.729688 
L 424.601445 -36.729688 
L 422.457889 -36.729688 
L 420.314332 -36.729688 
L 418.170775 -36.729688 
L 416.027218 -36.729688 
L 413.883662 -36.729688 
L 411.740105 -36.729688 
L 409.596548 -36.729688 
L 407.452991 -36.729688 
L 405.309435 -36.729688 
L 403.165878 -36.729688 
L 401.022321 -36.729688 
L 398.878764 -36.729688 
L 396.735208 -36.729688 
L 394.591651 -36.729688 
L 392.448094 -36.729688 
L 390.304537 -36.729688 
L 388.160981 -36.729688 
L 386.017424 -36.729688 
L 383.873867 -36.729688 
L 381.73031 -36.729688 
L 379.586754 -36.729688 
z
" style="stroke: #4c72b0; stroke-opacity: 0.2"/>
    </defs>
    <g>
     <use xlink:href="#m3f76b20260" x="0" y="282.943437" style="fill: #4c72b0; fill-opacity: 0.2; stroke: #4c72b0; stroke-opacity: 0.2"/>
    </g>
   </g>
   <g id="FillBetweenPolyCollection_3">
    <defs>
     <path id="mfcddb41425" d="M 45.245455 -36.800774 
L 45.245455 -36.729688 
L 47.287842 -36.729688 
L 49.330229 -36.729688 
L 51.372616 -36.729688 
L 53.415003 -36.729688 
L 55.45739 -36.729688 
L 57.499777 -36.729688 
L 59.542164 -36.729688 
L 61.584551 -36.729688 
L 63.626938 -36.729688 
L 65.669325 -36.729688 
L 67.711712 -36.729688 
L 69.754099 -36.729688 
L 71.796486 -36.729688 
L 73.838873 -36.729688 
L 75.88126 -36.729688 
L 77.923647 -36.729688 
L 79.966034 -36.729688 
L 82.008421 -36.729688 
L 84.050808 -36.729688 
L 86.093195 -36.729688 
L 88.135582 -36.729688 
L 90.177969 -36.729688 
L 92.220356 -36.729688 
L 94.262743 -36.729688 
L 96.30513 -36.729688 
L 98.347517 -36.729688 
L 100.389904 -36.729688 
L 102.432291 -36.729688 
L 104.474678 -36.729688 
L 106.517065 -36.729688 
L 108.559452 -36.729688 
L 110.601839 -36.729688 
L 112.644226 -36.729688 
L 114.686613 -36.729688 
L 116.729 -36.729688 
L 118.771387 -36.729688 
L 120.813774 -36.729688 
L 122.856161 -36.729688 
L 124.898548 -36.729688 
L 126.940935 -36.729688 
L 128.983322 -36.729688 
L 131.025709 -36.729688 
L 133.068096 -36.729688 
L 135.110483 -36.729688 
L 137.15287 -36.729688 
L 139.195257 -36.729688 
L 141.237644 -36.729688 
L 143.280032 -36.729688 
L 145.322419 -36.729688 
L 147.364806 -36.729688 
L 149.407193 -36.729688 
L 151.44958 -36.729688 
L 153.491967 -36.729688 
L 155.534354 -36.729688 
L 157.576741 -36.729688 
L 159.619128 -36.729688 
L 161.661515 -36.729688 
L 163.703902 -36.729688 
L 165.746289 -36.729688 
L 167.788676 -36.729688 
L 169.831063 -36.729688 
L 171.87345 -36.729688 
L 173.915837 -36.729688 
L 175.958224 -36.729688 
L 178.000611 -36.729688 
L 180.042998 -36.729688 
L 182.085385 -36.729688 
L 184.127772 -36.729688 
L 186.170159 -36.729688 
L 188.212546 -36.729688 
L 190.254933 -36.729688 
L 192.29732 -36.729688 
L 194.339707 -36.729688 
L 196.382094 -36.729688 
L 198.424481 -36.729688 
L 200.466868 -36.729688 
L 201.472715 -36.729688 
L 201.472715 -166.168004 
L 201.472715 -166.168004 
L 200.466868 -164.403641 
L 198.424481 -160.824556 
L 196.382094 -157.270872 
L 194.339707 -153.749677 
L 192.29732 -150.267157 
L 190.254933 -146.828575 
L 188.212546 -143.438286 
L 186.170159 -140.099759 
L 184.127772 -136.815616 
L 182.085385 -133.5877 
L 180.042998 -130.41714 
L 178.000611 -127.304438 
L 175.958224 -124.24956 
L 173.915837 -121.252026 
L 171.87345 -118.311007 
L 169.831063 -115.425416 
L 167.788676 -112.593992 
L 165.746289 -109.815376 
L 163.703902 -107.088185 
L 161.661515 -104.411061 
L 159.619128 -101.782727 
L 157.576741 -99.202016 
L 155.534354 -96.667901 
L 153.491967 -94.179514 
L 151.44958 -91.736154 
L 149.407193 -89.337295 
L 147.364806 -86.982582 
L 145.322419 -84.671835 
L 143.280032 -82.405043 
L 141.237644 -80.182359 
L 139.195257 -78.0041 
L 137.15287 -75.870745 
L 135.110483 -73.782934 
L 133.068096 -71.741469 
L 131.025709 -69.747314 
L 128.983322 -67.801596 
L 126.940935 -65.9056 
L 124.898548 -64.060769 
L 122.856161 -62.268689 
L 120.813774 -60.531076 
L 118.771387 -58.849752 
L 116.729 -57.226618 
L 114.686613 -55.663612 
L 112.644226 -54.162671 
L 110.601839 -52.725673 
L 108.559452 -51.35439 
L 106.517065 -50.05042 
L 104.474678 -48.815138 
L 102.432291 -47.649629 
L 100.389904 -46.554642 
L 98.347517 -45.530539 
L 96.30513 -44.577261 
L 94.262743 -43.694299 
L 92.220356 -42.880683 
L 90.177969 -42.134979 
L 88.135582 -41.455304 
L 86.093195 -40.83935 
L 84.050808 -40.284421 
L 82.008421 -39.787486 
L 79.966034 -39.345227 
L 77.923647 -38.954107 
L 75.88126 -38.610432 
L 73.838873 -38.310417 
L 71.796486 -38.050252 
L 69.754099 -37.826158 
L 67.711712 -37.634449 
L 65.669325 -37.471573 
L 63.626938 -37.334155 
L 61.584551 -37.219029 
L 59.542164 -37.123261 
L 57.499777 -37.044164 
L 55.45739 -36.979304 
L 53.415003 -36.926503 
L 51.372616 -36.88383 
L 49.330229 -36.849594 
L 47.287842 -36.822329 
L 45.245455 -36.800774 
z
"/>
    </defs>
    <g>
     <use xlink:href="#mfcddb41425" x="0" y="282.943437" style="fill: #dd8452; fill-opacity: 0.3"/>
    </g>
   </g>
   <g id="line2d_27">
    <path d="M 45.245455 246.142664 
L 55.45739 245.964133 
L 63.626938 245.609283 
L 69.754099 245.117279 
L 73.838873 244.63302 
L 77.923647 243.98933 
L 82.008421 243.155951 
L 86.093195 242.104088 
L 90.177969 240.808458 
L 94.262743 239.249139 
L 98.347517 237.412899 
L 102.432291 235.293808 
L 106.517065 232.893017 
L 110.601839 230.217764 
L 114.686613 227.279825 
L 118.771387 224.093685 
L 122.856161 220.674749 
L 126.940935 217.037838 
L 133.068096 211.201968 
L 139.195257 204.939337 
L 145.322419 198.271602 
L 151.44958 191.207283 
L 157.576741 183.741422 
L 163.703902 175.855253 
L 169.831063 167.518021 
L 175.958224 158.693877 
L 182.085385 149.355738 
L 188.212546 139.505151 
L 194.339707 129.19376 
L 202.509255 114.943275 
L 212.72119 97.031826 
L 218.848351 86.737863 
L 222.933125 80.264717 
L 227.017899 74.219665 
L 231.102673 68.700894 
L 235.187447 63.802291 
L 237.229834 61.613064 
L 239.272221 59.61077 
L 241.314608 57.804701 
L 243.356996 56.203319 
L 245.399383 54.814151 
L 247.44177 53.643672 
L 249.484157 52.697191 
L 251.526544 51.978744 
L 253.568931 51.490991 
L 255.611318 51.235132 
L 257.653705 51.210834 
L 259.696092 51.416193 
L 261.738479 51.847709 
L 263.780866 52.500306 
L 265.823253 53.367382 
L 267.86564 54.440893 
L 269.908027 55.711481 
L 271.950414 57.168632 
L 273.992801 58.800874 
L 276.035188 60.595994 
L 280.119962 64.623834 
L 284.204736 69.14937 
L 288.28951 74.074529 
L 292.374284 79.313416 
L 298.501445 87.616062 
L 304.628606 96.32864 
L 310.755767 105.389082 
L 316.882928 114.777622 
L 325.052476 127.747938 
L 349.561121 167.252781 
L 357.730669 179.702958 
L 365.900217 191.654734 
L 372.027378 200.28118 
L 378.154539 208.536897 
L 382.239313 213.760981 
L 386.324087 218.693073 
L 390.408861 223.270581 
L 394.493635 227.435982 
L 398.578409 231.144282 
L 402.663183 234.368599 
L 406.747957 237.10302 
L 410.832731 239.36253 
L 414.917505 241.180332 
L 419.002279 242.603336 
L 423.087053 243.686762 
L 427.171827 244.488767 
L 431.256601 245.065832 
L 437.383762 245.620134 
L 443.510924 245.924446 
L 451.680472 246.112735 
L 451.680472 246.112735 
" style="fill: none; stroke: #dd8452; stroke-width: 1.5; stroke-linecap: round"/>
   </g>
   <g id="line2d_28">
    <path d="M 379.586754 246.149226 
L 390.304537 245.973413 
L 398.878764 245.623129 
L 405.309435 245.150663 
L 411.740105 244.432011 
L 418.170775 243.422691 
L 424.601445 242.106051 
L 431.032116 240.494714 
L 437.462786 238.61617 
L 443.893456 236.487917 
L 450.324126 234.096785 
L 456.754796 231.397071 
L 461.04191 229.396517 
L 465.329023 227.217644 
L 469.616137 224.851154 
L 473.90325 222.293157 
L 478.190364 219.542299 
L 482.477477 216.594627 
L 486.764591 213.437475 
L 491.051704 210.043935 
L 495.338818 206.369333 
L 499.625931 202.350628 
L 503.913045 197.90899 
L 508.200158 192.955263 
L 512.487272 187.397619 
L 516.774385 181.150633 
L 521.061499 174.144996 
L 525.348612 166.337173 
L 529.635726 157.718371 
L 533.922839 148.3221 
L 538.209953 138.229556 
L 542.497066 127.571972 
L 551.071293 105.32325 
L 557.501963 88.770054 
L 561.789077 78.301255 
L 566.07619 68.594145 
L 568.219747 64.100846 
L 570.363304 59.882365 
L 572.506861 55.960688 
L 574.650417 52.354203 
L 576.793974 49.077493 
L 578.937531 46.141243 
L 581.081087 43.552254 
L 583.224644 41.313582 
L 585.368201 39.424772 
L 587.511758 37.882187 
L 589.655314 36.679412 
L 591.798871 35.807701 
L 593.942428 35.256464 
L 596.085985 35.01375 
L 598.229541 35.066717 
L 600.373098 35.402058 
L 602.516655 36.006368 
L 604.660212 36.866447 
L 606.803768 37.969519 
L 608.947325 39.303362 
L 611.090882 40.856375 
L 613.234439 42.617557 
L 615.377995 44.576433 
L 617.521552 46.72294 
L 619.665109 49.047273 
L 623.952222 54.190601 
L 628.239336 59.927653 
L 632.526449 66.17593 
L 636.813563 72.848528 
L 643.244233 83.458621 
L 651.81846 98.292991 
L 688.258925 162.280737 
L 694.689595 173.076313 
L 701.120265 183.414616 
L 705.407379 189.961646 
L 709.694492 196.174039 
L 713.981606 202.012162 
L 718.268719 207.449124 
L 722.555832 212.471628 
L 726.842946 217.0787 
L 731.130059 221.278718 
L 735.417173 225.085563 
L 739.704286 228.51486 
L 743.9914 231.581222 
L 748.278513 234.297044 
L 752.565627 236.672962 
L 756.85274 238.719601 
L 761.139854 240.449883 
L 765.426967 241.881114 
L 769.714081 243.036168 
L 774.001194 243.943455 
L 778.288308 244.635699 
L 782.575421 245.147889 
L 789.006092 245.654304 
L 795.436762 245.939865 
L 806.154545 246.142819 
L 806.154545 246.142819 
" style="fill: none; stroke: #4c72b0; stroke-width: 1.5; stroke-linecap: round"/>
   </g>
   <g id="line2d_29">
    <path d="M 201.472715 246.21375 
L 201.472715 24.45375 
" style="fill: none; stroke-dasharray: 0.8,1.32; stroke-dashoffset: 0; stroke: #d3d3d3; stroke-width: 0.8"/>
   </g>
   <g id="line2d_30">
    <path d="M 7.2 246.21375 
L 844.2 246.21375 
" style="fill: none; stroke: #808080; stroke-width: 0.5; stroke-linecap: round"/>
   </g>
   <g id="AnnotationBbox_1">
    <g id="text_10">
     <text style="font-weight: 700; font-size: 8px; font-family: 'Arial', 'DejaVu Sans', 'Liberation Sans', 'Bitstream Vera Sans', sans-serif; text-anchor: end; fill: #808080" x="201.472715" y="12.92625" transform="rotate(-0 201.472715 12.92625)">International Poverty Line</text>
    </g>
    <g id="text_11">
     <text style="font-size: 8px; font-family: 'Arial', 'DejaVu Sans', 'Liberation Sans', 'Bitstream Vera Sans', sans-serif; text-anchor: end; fill: #808080" x="201.472715" y="22.86375" transform="rotate(-0 201.472715 22.86375)">$90 per month</text>
    </g>
   </g>
   <g id="text_12">
    <text style="font-size: 10px; font-family: 'Arial', 'DejaVu Sans', 'Liberation Sans', 'Bitstream Vera Sans', sans-serif; text-anchor: middle" x="602.584881" y="244.109062" transform="rotate(-0 602.584881 244.109062)">Denmark (2023)</text>
   </g>
   <g id="text_13">
    <text style="font-size: 10px; font-family: 'Arial', 'DejaVu Sans', 'Liberation Sans', 'Bitstream Vera Sans', sans-serif; text-anchor: middle" x="258.130968" y="244.109062" transform="rotate(-0 258.130968 244.109062)">Syria (2022)</text>
   </g>
  </g>
 </g>
</svg>
