<?xml version="1.0" encoding="utf-8" standalone="no"?>
<!DOCTYPE svg PUBLIC "-//W3C//DTD SVG 1.1//EN"
  "http://www.w3.org/Graphics/SVG/1.1/DTD/svg11.dtd">
<svg xmlns:xlink="http://www.w3.org/1999/xlink" width="865.302344pt" height="265.689687pt" viewBox="0 0 865.302344 265.689687" xmlns="http://www.w3.org/2000/svg" version="1.1">
 <metadata>
  <rdf:RDF xmlns:dc="http://purl.org/dc/elements/1.1/" xmlns:cc="http://creativecommons.org/ns#" xmlns:rdf="http://www.w3.org/1999/02/22-rdf-syntax-ns#">
   <cc:Work>
    <dc:type rdf:resource="http://purl.org/dc/dcmitype/StillImage"/>
    <dc:date>2026-01-02T17:38:46.261552</dc:date>
    <dc:format>image/svg+xml</dc:format>
    <dc:creator>
     <cc:Agent>
      <dc:title>Matplotlib v3.10.1, https://matplotlib.org/</dc:title>
     </cc:Agent>
    </dc:creator>
   </cc:Work>
  </rdf:RDF>
 </metadata>
 <defs>
  <style type="text/css">*{stroke-linejoin: round; stroke-linecap: butt}</style>
 </defs>
 <g id="figure_1">
  <g id="patch_1">
   <path d="M 0 265.689687 
L 865.302344 265.689687 
L 865.302344 0 
L 0 0 
z
" style="fill: #ffffff"/>
  </g>
  <g id="axes_1">
   <g id="patch_2">
    <path d="M 7.2 228.96 
L 844.2 228.96 
L 844.2 7.2 
L 7.2 7.2 
z
" style="fill: #ffffff"/>
   </g>
   <g id="matplotlib.axis_1">
    <g id="xtick_1">
     <g id="line2d_1">
      <defs>
       <path id="m58bf7a017e" d="M 0 0 
L 0 3.5 
" style="stroke: #262626; stroke-width: 0.8"/>
      </defs>
      <g>
       <use xlink:href="#m58bf7a017e" x="198.803716" y="228.96" style="fill: #262626; stroke: #262626; stroke-width: 0.8"/>
      </g>
     </g>
     <g id="text_1">
      <text style="font-size: 10px; font-family: 'Arial', 'DejaVu Sans', 'Liberation Sans', 'Bitstream Vera Sans', sans-serif; text-anchor: middle; fill: #262626" x="198.803716" y="243.117812" transform="rotate(-0 198.803716 243.117812)">$1</text>
     </g>
    </g>
    <g id="xtick_2">
     <g id="line2d_2">
      <g>
       <use xlink:href="#m58bf7a017e" x="263.56493" y="228.96" style="fill: #262626; stroke: #262626; stroke-width: 0.8"/>
      </g>
     </g>
     <g id="text_2">
      <text style="font-size: 10px; font-family: 'Arial', 'DejaVu Sans', 'Liberation Sans', 'Bitstream Vera Sans', sans-serif; text-anchor: middle; fill: #262626" x="263.56493" y="243.117812" transform="rotate(-0 263.56493 243.117812)">$2</text>
     </g>
    </g>
    <g id="xtick_3">
     <g id="line2d_3">
      <g>
       <use xlink:href="#m58bf7a017e" x="349.174597" y="228.96" style="fill: #262626; stroke: #262626; stroke-width: 0.8"/>
      </g>
     </g>
     <g id="text_3">
      <text style="font-size: 10px; font-family: 'Arial', 'DejaVu Sans', 'Liberation Sans', 'Bitstream Vera Sans', sans-serif; text-anchor: middle; fill: #262626" x="349.174597" y="243.117812" transform="rotate(-0 349.174597 243.117812)">$5</text>
     </g>
    </g>
    <g id="xtick_4">
     <g id="line2d_4">
      <g>
       <use xlink:href="#m58bf7a017e" x="413.935811" y="228.96" style="fill: #262626; stroke: #262626; stroke-width: 0.8"/>
      </g>
     </g>
     <g id="text_4">
      <text style="font-size: 10px; font-family: 'Arial', 'DejaVu Sans', 'Liberation Sans', 'Bitstream Vera Sans', sans-serif; text-anchor: middle; fill: #262626" x="413.935811" y="243.117812" transform="rotate(-0 413.935811 243.117812)">$10</text>
     </g>
    </g>
    <g id="xtick_5">
     <g id="line2d_5">
      <g>
       <use xlink:href="#m58bf7a017e" x="478.697024" y="228.96" style="fill: #262626; stroke: #262626; stroke-width: 0.8"/>
      </g>
     </g>
     <g id="text_5">
      <text style="font-size: 10px; font-family: 'Arial', 'DejaVu Sans', 'Liberation Sans', 'Bitstream Vera Sans', sans-serif; text-anchor: middle; fill: #262626" x="478.697024" y="243.117812" transform="rotate(-0 478.697024 243.117812)">$20</text>
     </g>
    </g>
    <g id="xtick_6">
     <g id="line2d_6">
      <g>
       <use xlink:href="#m58bf7a017e" x="564.306692" y="228.96" style="fill: #262626; stroke: #262626; stroke-width: 0.8"/>
      </g>
     </g>
     <g id="text_6">
      <text style="font-size: 10px; font-family: 'Arial', 'DejaVu Sans', 'Liberation Sans', 'Bitstream Vera Sans', sans-serif; text-anchor: middle; fill: #262626" x="564.306692" y="243.117812" transform="rotate(-0 564.306692 243.117812)">$50</text>
     </g>
    </g>
    <g id="xtick_7">
     <g id="line2d_7">
      <g>
       <use xlink:href="#m58bf7a017e" x="629.067905" y="228.96" style="fill: #262626; stroke: #262626; stroke-width: 0.8"/>
      </g>
     </g>
     <g id="text_7">
      <text style="font-size: 10px; font-family: 'Arial', 'DejaVu Sans', 'Liberation Sans', 'Bitstream Vera Sans', sans-serif; text-anchor: middle; fill: #262626" x="629.067905" y="243.117812" transform="rotate(-0 629.067905 243.117812)">$100</text>
     </g>
    </g>
    <g id="xtick_8">
     <g id="line2d_8">
      <g>
       <use xlink:href="#m58bf7a017e" x="693.829119" y="228.96" style="fill: #262626; stroke: #262626; stroke-width: 0.8"/>
      </g>
     </g>
     <g id="text_8">
      <text style="font-size: 10px; font-family: 'Arial', 'DejaVu Sans', 'Liberation Sans', 'Bitstream Vera Sans', sans-serif; text-anchor: middle; fill: #262626" x="693.829119" y="243.117812" transform="rotate(-0 693.829119 243.117812)">$200</text>
     </g>
    </g>
    <g id="xtick_9">
     <g id="line2d_9">
      <g>
       <use xlink:href="#m58bf7a017e" x="779.438786" y="228.96" style="fill: #262626; stroke: #262626; stroke-width: 0.8"/>
      </g>
     </g>
     <g id="text_9">
      <text style="font-size: 10px; font-family: 'Arial', 'DejaVu Sans', 'Liberation Sans', 'Bitstream Vera Sans', sans-serif; text-anchor: middle; fill: #262626" x="779.438786" y="243.117812" transform="rotate(-0 779.438786 243.117812)">$500</text>
     </g>
    </g>
    <g id="xtick_10">
     <g id="line2d_10">
      <g>
       <use xlink:href="#m58bf7a017e" x="844.2" y="228.96" style="fill: #262626; stroke: #262626; stroke-width: 0.8"/>
      </g>
     </g>
     <g id="text_10">
      <text style="font-size: 10px; font-family: 'Arial', 'DejaVu Sans', 'Liberation Sans', 'Bitstream Vera Sans', sans-serif; text-anchor: middle; fill: #262626" x="844.2" y="243.117812" transform="rotate(-0 844.2 243.117812)">$1000</text>
     </g>
    </g>
    <g id="xtick_11">
     <g id="line2d_11">
      <defs>
       <path id="m549f35542e" d="M 0 0 
L 0 2 
" style="stroke: #262626; stroke-width: 0.6"/>
      </defs>
      <g>
       <use xlink:href="#m549f35542e" x="48.432835" y="228.96" style="fill: #262626; stroke: #262626; stroke-width: 0.6"/>
      </g>
     </g>
    </g>
    <g id="xtick_12">
     <g id="line2d_12">
      <g>
       <use xlink:href="#m549f35542e" x="86.315717" y="228.96" style="fill: #262626; stroke: #262626; stroke-width: 0.6"/>
      </g>
     </g>
    </g>
    <g id="xtick_13">
     <g id="line2d_13">
      <g>
       <use xlink:href="#m549f35542e" x="113.194049" y="228.96" style="fill: #262626; stroke: #262626; stroke-width: 0.6"/>
      </g>
     </g>
    </g>
    <g id="xtick_14">
     <g id="line2d_14">
      <g>
       <use xlink:href="#m549f35542e" x="134.042503" y="228.96" style="fill: #262626; stroke: #262626; stroke-width: 0.6"/>
      </g>
     </g>
    </g>
    <g id="xtick_15">
     <g id="line2d_15">
      <g>
       <use xlink:href="#m549f35542e" x="151.07693" y="228.96" style="fill: #262626; stroke: #262626; stroke-width: 0.6"/>
      </g>
     </g>
    </g>
    <g id="xtick_16">
     <g id="line2d_16">
      <g>
       <use xlink:href="#m549f35542e" x="165.479333" y="228.96" style="fill: #262626; stroke: #262626; stroke-width: 0.6"/>
      </g>
     </g>
    </g>
    <g id="xtick_17">
     <g id="line2d_17">
      <g>
       <use xlink:href="#m549f35542e" x="177.955262" y="228.96" style="fill: #262626; stroke: #262626; stroke-width: 0.6"/>
      </g>
     </g>
    </g>
    <g id="xtick_18">
     <g id="line2d_18">
      <g>
       <use xlink:href="#m549f35542e" x="188.959811" y="228.96" style="fill: #262626; stroke: #262626; stroke-width: 0.6"/>
      </g>
     </g>
    </g>
    <g id="xtick_19">
     <g id="line2d_19">
      <g>
       <use xlink:href="#m549f35542e" x="301.447811" y="228.96" style="fill: #262626; stroke: #262626; stroke-width: 0.6"/>
      </g>
     </g>
    </g>
    <g id="xtick_20">
     <g id="line2d_20">
      <g>
       <use xlink:href="#m549f35542e" x="328.326143" y="228.96" style="fill: #262626; stroke: #262626; stroke-width: 0.6"/>
      </g>
     </g>
    </g>
    <g id="xtick_21">
     <g id="line2d_21">
      <g>
       <use xlink:href="#m549f35542e" x="366.209025" y="228.96" style="fill: #262626; stroke: #262626; stroke-width: 0.6"/>
      </g>
     </g>
    </g>
    <g id="xtick_22">
     <g id="line2d_22">
      <g>
       <use xlink:href="#m549f35542e" x="380.611428" y="228.96" style="fill: #262626; stroke: #262626; stroke-width: 0.6"/>
      </g>
     </g>
    </g>
    <g id="xtick_23">
     <g id="line2d_23">
      <g>
       <use xlink:href="#m549f35542e" x="393.087357" y="228.96" style="fill: #262626; stroke: #262626; stroke-width: 0.6"/>
      </g>
     </g>
    </g>
    <g id="xtick_24">
     <g id="line2d_24">
      <g>
       <use xlink:href="#m549f35542e" x="404.091906" y="228.96" style="fill: #262626; stroke: #262626; stroke-width: 0.6"/>
      </g>
     </g>
    </g>
    <g id="xtick_25">
     <g id="line2d_25">
      <g>
       <use xlink:href="#m549f35542e" x="516.579906" y="228.96" style="fill: #262626; stroke: #262626; stroke-width: 0.6"/>
      </g>
     </g>
    </g>
    <g id="xtick_26">
     <g id="line2d_26">
      <g>
       <use xlink:href="#m549f35542e" x="543.458238" y="228.96" style="fill: #262626; stroke: #262626; stroke-width: 0.6"/>
      </g>
     </g>
    </g>
    <g id="xtick_27">
     <g id="line2d_27">
      <g>
       <use xlink:href="#m549f35542e" x="581.341119" y="228.96" style="fill: #262626; stroke: #262626; stroke-width: 0.6"/>
      </g>
     </g>
    </g>
    <g id="xtick_28">
     <g id="line2d_28">
      <g>
       <use xlink:href="#m549f35542e" x="595.743522" y="228.96" style="fill: #262626; stroke: #262626; stroke-width: 0.6"/>
      </g>
     </g>
    </g>
    <g id="xtick_29">
     <g id="line2d_29">
      <g>
       <use xlink:href="#m549f35542e" x="608.219451" y="228.96" style="fill: #262626; stroke: #262626; stroke-width: 0.6"/>
      </g>
     </g>
    </g>
    <g id="xtick_30">
     <g id="line2d_30">
      <g>
       <use xlink:href="#m549f35542e" x="619.224001" y="228.96" style="fill: #262626; stroke: #262626; stroke-width: 0.6"/>
      </g>
     </g>
    </g>
    <g id="xtick_31">
     <g id="line2d_31">
      <g>
       <use xlink:href="#m549f35542e" x="731.712" y="228.96" style="fill: #262626; stroke: #262626; stroke-width: 0.6"/>
      </g>
     </g>
    </g>
    <g id="xtick_32">
     <g id="line2d_32">
      <g>
       <use xlink:href="#m549f35542e" x="758.590332" y="228.96" style="fill: #262626; stroke: #262626; stroke-width: 0.6"/>
      </g>
     </g>
    </g>
    <g id="xtick_33">
     <g id="line2d_33">
      <g>
       <use xlink:href="#m549f35542e" x="796.473214" y="228.96" style="fill: #262626; stroke: #262626; stroke-width: 0.6"/>
      </g>
     </g>
    </g>
    <g id="xtick_34">
     <g id="line2d_34">
      <g>
       <use xlink:href="#m549f35542e" x="810.875617" y="228.96" style="fill: #262626; stroke: #262626; stroke-width: 0.6"/>
      </g>
     </g>
    </g>
    <g id="xtick_35">
     <g id="line2d_35">
      <g>
       <use xlink:href="#m549f35542e" x="823.351546" y="228.96" style="fill: #262626; stroke: #262626; stroke-width: 0.6"/>
      </g>
     </g>
    </g>
    <g id="xtick_36">
     <g id="line2d_36">
      <g>
       <use xlink:href="#m549f35542e" x="834.356095" y="228.96" style="fill: #262626; stroke: #262626; stroke-width: 0.6"/>
      </g>
     </g>
    </g>
    <g id="text_11">
     <text style="font-size: 10px; font-family: 'Arial', 'DejaVu Sans', 'Liberation Sans', 'Bitstream Vera Sans', sans-serif; text-anchor: middle; fill: #262626" x="425.7" y="256.385" transform="rotate(-0 425.7 256.385)">Income or consumption (day)</text>
    </g>
   </g>
   <g id="matplotlib.axis_2"/>
   <g id="FillBetweenPolyCollection_1">
    <defs>
     <path id="mfd30ee6abc" d="M 42.130736 -36.775889 
L 42.130736 -36.729688 
L 44.341206 -36.729688 
L 46.551676 -36.729688 
L 48.762146 -36.729688 
L 50.972616 -36.729688 
L 53.183086 -36.729688 
L 55.393556 -36.729688 
L 57.604026 -36.729688 
L 59.814496 -36.729688 
L 62.024966 -36.729688 
L 64.235436 -36.729688 
L 66.445906 -36.729688 
L 68.656376 -36.729688 
L 70.866846 -36.729688 
L 73.077317 -36.729688 
L 75.287787 -36.729688 
L 77.498257 -36.729688 
L 79.708727 -36.729688 
L 81.919197 -36.729688 
L 84.129667 -36.729688 
L 86.340137 -36.729688 
L 88.550607 -36.729688 
L 90.761077 -36.729688 
L 92.971547 -36.729688 
L 95.182017 -36.729688 
L 97.392487 -36.729688 
L 99.602957 -36.729688 
L 101.813427 -36.729688 
L 104.023897 -36.729688 
L 106.234367 -36.729688 
L 108.444837 -36.729688 
L 110.655307 -36.729688 
L 112.865777 -36.729688 
L 115.076248 -36.729688 
L 117.286718 -36.729688 
L 119.497188 -36.729688 
L 121.707658 -36.729688 
L 123.918128 -36.729688 
L 126.128598 -36.729688 
L 128.339068 -36.729688 
L 130.549538 -36.729688 
L 132.760008 -36.729688 
L 134.970478 -36.729688 
L 137.180948 -36.729688 
L 139.391418 -36.729688 
L 141.601888 -36.729688 
L 143.812358 -36.729688 
L 146.022828 -36.729688 
L 148.233298 -36.729688 
L 150.443768 -36.729688 
L 152.654238 -36.729688 
L 154.864708 -36.729688 
L 157.075179 -36.729688 
L 159.285649 -36.729688 
L 161.496119 -36.729688 
L 163.706589 -36.729688 
L 165.917059 -36.729688 
L 168.127529 -36.729688 
L 170.337999 -36.729688 
L 172.548469 -36.729688 
L 174.758939 -36.729688 
L 176.969409 -36.729688 
L 179.179879 -36.729688 
L 181.390349 -36.729688 
L 183.600819 -36.729688 
L 185.811289 -36.729688 
L 188.021759 -36.729688 
L 190.232229 -36.729688 
L 192.442699 -36.729688 
L 194.653169 -36.729688 
L 196.863639 -36.729688 
L 199.07411 -36.729688 
L 201.28458 -36.729688 
L 203.49505 -36.729688 
L 205.70552 -36.729688 
L 207.91599 -36.729688 
L 210.12646 -36.729688 
L 212.33693 -36.729688 
L 214.5474 -36.729688 
L 216.75787 -36.729688 
L 218.96834 -36.729688 
L 221.17881 -36.729688 
L 223.38928 -36.729688 
L 225.59975 -36.729688 
L 227.81022 -36.729688 
L 230.02069 -36.729688 
L 232.23116 -36.729688 
L 234.44163 -36.729688 
L 236.6521 -36.729688 
L 238.86257 -36.729688 
L 241.073041 -36.729688 
L 243.283511 -36.729688 
L 245.493981 -36.729688 
L 247.704451 -36.729688 
L 249.914921 -36.729688 
L 252.125391 -36.729688 
L 254.335861 -36.729688 
L 256.546331 -36.729688 
L 258.756801 -36.729688 
L 260.967271 -36.729688 
L 263.177741 -36.729688 
L 265.388211 -36.729688 
L 267.598681 -36.729688 
L 269.809151 -36.729688 
L 272.019621 -36.729688 
L 274.230091 -36.729688 
L 276.440561 -36.729688 
L 278.651031 -36.729688 
L 280.861501 -36.729688 
L 283.071972 -36.729688 
L 285.282442 -36.729688 
L 287.492912 -36.729688 
L 289.703382 -36.729688 
L 291.913852 -36.729688 
L 294.124322 -36.729688 
L 296.334792 -36.729688 
L 298.545262 -36.729688 
L 300.755732 -36.729688 
L 302.966202 -36.729688 
L 305.176672 -36.729688 
L 307.387142 -36.729688 
L 309.597612 -36.729688 
L 311.808082 -36.729688 
L 314.018552 -36.729688 
L 316.229022 -36.729688 
L 318.439492 -36.729688 
L 320.649962 -36.729688 
L 322.860432 -36.729688 
L 325.070903 -36.729688 
L 327.281373 -36.729688 
L 329.491843 -36.729688 
L 331.702313 -36.729688 
L 333.912783 -36.729688 
L 336.123253 -36.729688 
L 338.333723 -36.729688 
L 340.544193 -36.729688 
L 342.754663 -36.729688 
L 344.965133 -36.729688 
L 347.175603 -36.729688 
L 349.386073 -36.729688 
L 351.596543 -36.729688 
L 353.807013 -36.729688 
L 356.017483 -36.729688 
L 358.227953 -36.729688 
L 360.438423 -36.729688 
L 362.648893 -36.729688 
L 364.859363 -36.729688 
L 367.069834 -36.729688 
L 369.280304 -36.729688 
L 371.490774 -36.729688 
L 373.701244 -36.729688 
L 375.911714 -36.729688 
L 378.122184 -36.729688 
L 380.332654 -36.729688 
L 382.543124 -36.729688 
L 384.753594 -36.729688 
L 386.964064 -36.729688 
L 389.174534 -36.729688 
L 391.385004 -36.729688 
L 393.595474 -36.729688 
L 395.805944 -36.729688 
L 398.016414 -36.729688 
L 400.226884 -36.729688 
L 402.437354 -36.729688 
L 404.647824 -36.729688 
L 406.858294 -36.729688 
L 409.068765 -36.729688 
L 411.279235 -36.729688 
L 413.489705 -36.729688 
L 415.700175 -36.729688 
L 417.910645 -36.729688 
L 420.121115 -36.729688 
L 422.331585 -36.729688 
L 424.542055 -36.729688 
L 426.752525 -36.729688 
L 428.962995 -36.729688 
L 431.173465 -36.729688 
L 433.383935 -36.729688 
L 435.594405 -36.729688 
L 437.804875 -36.729688 
L 440.015345 -36.729688 
L 442.225815 -36.729688 
L 444.436285 -36.729688 
L 446.646755 -36.729688 
L 448.857225 -36.729688 
L 451.067696 -36.729688 
L 453.278166 -36.729688 
L 455.488636 -36.729688 
L 457.699106 -36.729688 
L 459.909576 -36.729688 
L 462.120046 -36.729688 
L 464.330516 -36.729688 
L 466.540986 -36.729688 
L 468.751456 -36.729688 
L 470.961926 -36.729688 
L 473.172396 -36.729688 
L 475.382866 -36.729688 
L 477.593336 -36.729688 
L 479.803806 -36.729688 
L 482.014276 -36.729688 
L 482.014276 -36.741678 
L 482.014276 -36.741678 
L 479.803806 -36.74802 
L 477.593336 -36.757261 
L 475.382866 -36.770495 
L 473.172396 -36.789116 
L 470.961926 -36.814864 
L 468.751456 -36.849848 
L 466.540986 -36.896563 
L 464.330516 -36.957864 
L 462.120046 -37.036925 
L 459.909576 -37.13714 
L 457.699106 -37.262002 
L 455.488636 -37.414925 
L 453.278166 -37.599046 
L 451.067696 -37.817001 
L 448.857225 -38.070704 
L 446.646755 -38.361147 
L 444.436285 -38.688233 
L 442.225815 -39.050693 
L 440.015345 -39.446074 
L 437.804875 -39.870829 
L 435.594405 -40.320499 
L 433.383935 -40.789992 
L 431.173465 -41.27392 
L 428.962995 -41.766979 
L 426.752525 -42.264331 
L 424.542055 -42.761956 
L 422.331585 -43.256929 
L 420.121115 -43.747614 
L 417.910645 -44.233737 
L 415.700175 -44.716346 
L 413.489705 -45.197671 
L 411.279235 -45.680884 
L 409.068765 -46.169802 
L 406.858294 -46.668555 
L 404.647824 -47.18126 
L 402.437354 -47.711713 
L 400.226884 -48.263141 
L 398.016414 -48.838025 
L 395.805944 -49.438001 
L 393.595474 -50.063857 
L 391.385004 -50.71562 
L 389.174534 -51.392726 
L 386.964064 -52.094267 
L 384.753594 -52.819295 
L 382.543124 -53.567153 
L 380.332654 -54.337817 
L 378.122184 -55.13219 
L 375.911714 -55.952323 
L 373.701244 -56.80153 
L 371.490774 -57.684354 
L 369.280304 -58.606382 
L 367.069834 -59.573912 
L 364.859363 -60.593494 
L 362.648893 -61.671392 
L 360.438423 -62.81303 
L 358.227953 -64.022469 
L 356.017483 -65.302012 
L 353.807013 -66.651945 
L 351.596543 -68.070474 
L 349.386073 -69.55385 
L 347.175603 -71.09666 
L 344.965133 -72.692253 
L 342.754663 -74.333239 
L 340.544193 -76.012016 
L 338.333723 -77.721283 
L 336.123253 -79.454487 
L 333.912783 -81.206206 
L 331.702313 -82.972446 
L 329.491843 -84.750866 
L 327.281373 -86.540921 
L 325.070903 -88.343927 
L 322.860432 -90.163039 
L 320.649962 -92.003112 
L 318.439492 -93.870435 
L 316.229022 -95.772313 
L 314.018552 -97.716509 
L 311.808082 -99.710561 
L 309.597612 -101.76102 
L 307.387142 -103.872708 
L 305.176672 -106.048051 
L 302.966202 -108.286602 
L 300.755732 -110.584828 
L 298.545262 -112.936187 
L 296.334792 -115.331527 
L 294.124322 -117.759738 
L 291.913852 -120.208596 
L 289.703382 -122.665681 
L 287.492912 -125.119245 
L 285.282442 -127.558924 
L 283.071972 -129.976206 
L 280.861501 -132.36461 
L 278.651031 -134.719581 
L 276.440561 -137.038146 
L 274.230091 -139.318402 
L 272.019621 -141.55894 
L 269.809151 -143.758288 
L 267.598681 -145.914458 
L 265.388211 -148.024624 
L 263.177741 -150.084951 
L 260.967271 -152.09055 
L 258.756801 -154.035497 
L 256.546331 -155.912871 
L 254.335861 -157.714759 
L 252.125391 -159.432182 
L 249.914921 -161.054976 
L 247.704451 -162.571622 
L 245.493981 -163.969113 
L 243.283511 -165.232914 
L 241.073041 -166.347091 
L 238.86257 -167.294656 
L 236.6521 -168.058149 
L 234.44163 -168.62043 
L 232.23116 -168.965624 
L 230.02069 -169.080117 
L 227.81022 -168.953507 
L 225.59975 -168.579398 
L 223.38928 -167.955942 
L 221.17881 -167.086086 
L 218.96834 -165.977499 
L 216.75787 -164.642201 
L 214.5474 -163.095936 
L 212.33693 -161.35737 
L 210.12646 -159.447174 
L 207.91599 -157.387069 
L 205.70552 -155.198893 
L 203.49505 -152.903737 
L 201.28458 -150.521185 
L 199.07411 -148.068703 
L 196.863639 -145.56119 
L 194.653169 -143.01073 
L 192.442699 -140.426552 
L 190.232229 -137.815224 
L 188.021759 -135.18106 
L 185.811289 -132.52671 
L 183.600819 -129.853889 
L 181.390349 -127.164158 
L 179.179879 -124.459666 
L 176.969409 -121.743767 
L 174.758939 -119.02142 
L 172.548469 -116.299323 
L 170.337999 -113.585744 
L 168.127529 -110.890087 
L 165.917059 -108.222232 
L 163.706589 -105.591744 
L 161.496119 -103.007063 
L 159.285649 -100.474784 
L 157.075179 -97.999132 
L 154.864708 -95.58169 
L 152.654238 -93.221448 
L 150.443768 -90.915134 
L 148.233298 -88.657814 
L 146.022828 -86.44367 
L 143.812358 -84.26687 
L 141.601888 -82.122418 
L 139.391418 -80.006893 
L 137.180948 -77.918997 
L 134.970478 -75.859851 
L 132.760008 -73.833003 
L 130.549538 -71.844176 
L 128.339068 -69.900763 
L 126.128598 -68.011127 
L 123.918128 -66.183797 
L 121.707658 -64.42661 
L 119.497188 -62.745916 
L 117.286718 -61.145896 
L 115.076248 -59.628091 
L 112.865777 -58.191165 
L 110.655307 -56.83096 
L 108.444837 -55.540817 
L 106.234367 -54.312165 
L 104.023897 -53.1353 
L 101.813427 -52.000296 
L 99.602957 -50.897947 
L 97.392487 -49.820644 
L 95.182017 -48.763086 
L 92.971547 -47.722761 
L 90.761077 -46.70013 
L 88.550607 -45.698517 
L 86.340137 -44.723697 
L 84.129667 -43.783264 
L 81.919197 -42.885827 
L 79.708727 -42.040155 
L 77.498257 -41.254339 
L 75.287787 -40.535082 
L 73.077317 -39.887162 
L 70.866846 -39.313111 
L 68.656376 -38.81313 
L 66.445906 -38.385207 
L 64.235436 -38.025402 
L 62.024966 -37.728259 
L 59.814496 -37.487275 
L 57.604026 -37.295366 
L 55.393556 -37.145315 
L 53.183086 -37.030127 
L 50.972616 -36.943317 
L 48.762146 -36.879089 
L 46.551676 -36.832438 
L 44.341206 -36.799174 
L 42.130736 -36.775889 
z
" style="stroke: #dd8452"/>
    </defs>
    <g>
     <use xlink:href="#mfd30ee6abc" x="0" y="265.689687" style="fill: #dd8452; fill-opacity: 0.25; stroke: #dd8452"/>
    </g>
   </g>
   <g id="FillBetweenPolyCollection_2">
    <defs>
     <path id="m0dc0731420" d="M 425.847716 -36.74097 
L 425.847716 -36.729688 
L 427.430117 -36.729688 
L 429.012518 -36.729688 
L 430.594918 -36.729688 
L 432.177319 -36.729688 
L 433.75972 -36.729688 
L 435.342121 -36.729688 
L 436.924521 -36.729688 
L 438.506922 -36.729688 
L 440.089323 -36.729688 
L 441.671723 -36.729688 
L 443.254124 -36.729688 
L 444.836525 -36.729688 
L 446.418925 -36.729688 
L 448.001326 -36.729688 
L 449.583727 -36.729688 
L 451.166127 -36.729688 
L 452.748528 -36.729688 
L 454.330929 -36.729688 
L 455.913329 -36.729688 
L 457.49573 -36.729688 
L 459.078131 -36.729688 
L 460.660531 -36.729688 
L 462.242932 -36.729688 
L 463.825333 -36.729688 
L 465.407733 -36.729688 
L 466.990134 -36.729688 
L 468.572535 -36.729688 
L 470.154935 -36.729688 
L 471.737336 -36.729688 
L 473.319737 -36.729688 
L 474.902138 -36.729688 
L 476.484538 -36.729688 
L 478.066939 -36.729688 
L 479.64934 -36.729688 
L 481.23174 -36.729688 
L 482.814141 -36.729688 
L 484.396542 -36.729688 
L 485.978942 -36.729688 
L 487.561343 -36.729688 
L 489.143744 -36.729688 
L 490.726144 -36.729688 
L 492.308545 -36.729688 
L 493.890946 -36.729688 
L 495.473346 -36.729688 
L 497.055747 -36.729688 
L 498.638148 -36.729688 
L 500.220548 -36.729688 
L 501.802949 -36.729688 
L 503.38535 -36.729688 
L 504.96775 -36.729688 
L 506.550151 -36.729688 
L 508.132552 -36.729688 
L 509.714952 -36.729688 
L 511.297353 -36.729688 
L 512.879754 -36.729688 
L 514.462155 -36.729688 
L 516.044555 -36.729688 
L 517.626956 -36.729688 
L 519.209357 -36.729688 
L 520.791757 -36.729688 
L 522.374158 -36.729688 
L 523.956559 -36.729688 
L 525.538959 -36.729688 
L 527.12136 -36.729688 
L 528.703761 -36.729688 
L 530.286161 -36.729688 
L 531.868562 -36.729688 
L 533.450963 -36.729688 
L 535.033363 -36.729688 
L 536.615764 -36.729688 
L 538.198165 -36.729688 
L 539.780565 -36.729688 
L 541.362966 -36.729688 
L 542.945367 -36.729688 
L 544.527767 -36.729688 
L 546.110168 -36.729688 
L 547.692569 -36.729688 
L 549.274969 -36.729688 
L 550.85737 -36.729688 
L 552.439771 -36.729688 
L 554.022172 -36.729688 
L 555.604572 -36.729688 
L 557.186973 -36.729688 
L 558.769374 -36.729688 
L 560.351774 -36.729688 
L 561.934175 -36.729688 
L 563.516576 -36.729688 
L 565.098976 -36.729688 
L 566.681377 -36.729688 
L 568.263778 -36.729688 
L 569.846178 -36.729688 
L 571.428579 -36.729688 
L 573.01098 -36.729688 
L 574.59338 -36.729688 
L 576.175781 -36.729688 
L 577.758182 -36.729688 
L 579.340582 -36.729688 
L 580.922983 -36.729688 
L 582.505384 -36.729688 
L 584.087784 -36.729688 
L 585.670185 -36.729688 
L 587.252586 -36.729688 
L 588.834986 -36.729688 
L 590.417387 -36.729688 
L 591.999788 -36.729688 
L 593.582189 -36.729688 
L 595.164589 -36.729688 
L 596.74699 -36.729688 
L 598.329391 -36.729688 
L 599.911791 -36.729688 
L 601.494192 -36.729688 
L 603.076593 -36.729688 
L 604.658993 -36.729688 
L 606.241394 -36.729688 
L 607.823795 -36.729688 
L 609.406195 -36.729688 
L 610.988596 -36.729688 
L 612.570997 -36.729688 
L 614.153397 -36.729688 
L 615.735798 -36.729688 
L 617.318199 -36.729688 
L 618.900599 -36.729688 
L 620.483 -36.729688 
L 622.065401 -36.729688 
L 623.647801 -36.729688 
L 625.230202 -36.729688 
L 626.812603 -36.729688 
L 628.395003 -36.729688 
L 629.977404 -36.729688 
L 631.559805 -36.729688 
L 633.142206 -36.729688 
L 634.724606 -36.729688 
L 636.307007 -36.729688 
L 637.889408 -36.729688 
L 639.471808 -36.729688 
L 641.054209 -36.729688 
L 642.63661 -36.729688 
L 644.21901 -36.729688 
L 645.801411 -36.729688 
L 647.383812 -36.729688 
L 648.966212 -36.729688 
L 650.548613 -36.729688 
L 652.131014 -36.729688 
L 653.713414 -36.729688 
L 655.295815 -36.729688 
L 656.878216 -36.729688 
L 658.460616 -36.729688 
L 660.043017 -36.729688 
L 661.625418 -36.729688 
L 663.207818 -36.729688 
L 664.790219 -36.729688 
L 666.37262 -36.729688 
L 667.95502 -36.729688 
L 669.537421 -36.729688 
L 671.119822 -36.729688 
L 672.702223 -36.729688 
L 674.284623 -36.729688 
L 675.867024 -36.729688 
L 677.449425 -36.729688 
L 679.031825 -36.729688 
L 680.614226 -36.729688 
L 682.196627 -36.729688 
L 683.779027 -36.729688 
L 685.361428 -36.729688 
L 686.943829 -36.729688 
L 688.526229 -36.729688 
L 690.10863 -36.729688 
L 691.691031 -36.729688 
L 693.273431 -36.729688 
L 694.855832 -36.729688 
L 696.438233 -36.729688 
L 698.020633 -36.729688 
L 699.603034 -36.729688 
L 701.185435 -36.729688 
L 702.767835 -36.729688 
L 704.350236 -36.729688 
L 705.932637 -36.729688 
L 707.515037 -36.729688 
L 709.097438 -36.729688 
L 710.679839 -36.729688 
L 712.26224 -36.729688 
L 713.84464 -36.729688 
L 715.427041 -36.729688 
L 717.009442 -36.729688 
L 718.591842 -36.729688 
L 720.174243 -36.729688 
L 721.756644 -36.729688 
L 723.339044 -36.729688 
L 724.921445 -36.729688 
L 726.503846 -36.729688 
L 728.086246 -36.729688 
L 729.668647 -36.729688 
L 731.251048 -36.729688 
L 732.833448 -36.729688 
L 734.415849 -36.729688 
L 735.99825 -36.729688 
L 737.58065 -36.729688 
L 739.163051 -36.729688 
L 740.745452 -36.729688 
L 740.745452 -36.74309 
L 740.745452 -36.74309 
L 739.163051 -36.751197 
L 737.58065 -36.763462 
L 735.99825 -36.781586 
L 734.415849 -36.807748 
L 732.833448 -36.844645 
L 731.251048 -36.895497 
L 729.668647 -36.963999 
L 728.086246 -37.054221 
L 726.503846 -37.170443 
L 724.921445 -37.316936 
L 723.339044 -37.497706 
L 721.756644 -37.716221 
L 720.174243 -37.975162 
L 718.591842 -38.276225 
L 717.009442 -38.619998 
L 715.427041 -39.005944 
L 713.84464 -39.43248 
L 712.26224 -39.897136 
L 710.679839 -40.396775 
L 709.097438 -40.927847 
L 707.515037 -41.486618 
L 705.932637 -42.069389 
L 704.350236 -42.672665 
L 702.767835 -43.293305 
L 701.185435 -43.928658 
L 699.603034 -44.576714 
L 698.020633 -45.236276 
L 696.438233 -45.907179 
L 694.855832 -46.590516 
L 693.273431 -47.288865 
L 691.691031 -48.006481 
L 690.10863 -48.749409 
L 688.526229 -49.525518 
L 686.943829 -50.344422 
L 685.361428 -51.217322 
L 683.779027 -52.156776 
L 682.196627 -53.176415 
L 680.614226 -54.290628 
L 679.031825 -55.514223 
L 677.449425 -56.86204 
L 675.867024 -58.348532 
L 674.284623 -59.987276 
L 672.702223 -61.79044 
L 671.119822 -63.768229 
L 669.537421 -65.928349 
L 667.95502 -68.275558 
L 666.37262 -70.811358 
L 664.790219 -73.533883 
L 663.207818 -76.437992 
L 661.625418 -79.515546 
L 660.043017 -82.755818 
L 658.460616 -86.145952 
L 656.878216 -89.671384 
L 655.295815 -93.316166 
L 653.713414 -97.063161 
L 652.131014 -100.894141 
L 650.548613 -104.789864 
L 648.966212 -108.730251 
L 647.383812 -112.694776 
L 645.801411 -116.663161 
L 644.21901 -120.616401 
L 642.63661 -124.538035 
L 641.054209 -128.415511 
L 639.471808 -132.241387 
L 637.889408 -136.014131 
L 636.307007 -139.738283 
L 634.724606 -143.423875 
L 633.142206 -147.085148 
L 631.559805 -150.738766 
L 629.977404 -154.401835 
L 628.395003 -158.090104 
L 626.812603 -161.816653 
L 625.230202 -165.591251 
L 623.647801 -169.420349 
L 622.065401 -173.307503 
L 620.483 -177.253854 
L 618.900599 -181.258298 
L 617.318199 -185.317064 
L 615.735798 -189.422641 
L 614.153397 -193.562244 
L 612.570997 -197.716265 
L 610.988596 -201.857252 
L 609.406195 -205.949968 
L 607.823795 -209.952864 
L 606.241394 -213.821009 
L 604.658993 -217.510154 
L 603.076593 -220.981301 
L 601.494192 -224.204981 
L 599.911791 -227.164417 
L 598.329391 -229.856958 
L 596.74699 -232.293476 
L 595.164589 -234.495802 
L 593.582189 -236.492618 
L 591.999788 -238.314493 
L 590.417387 -239.988818 
L 588.834986 -241.535361 
L 587.252586 -242.962952 
L 585.670185 -244.267564 
L 584.087784 -245.431794 
L 582.505384 -246.425542 
L 580.922983 -247.207595 
L 579.340582 -247.727814 
L 577.758182 -247.929688 
L 576.175781 -247.753143 
L 574.59338 -247.137585 
L 573.01098 -246.025168 
L 571.428579 -244.364286 
L 569.846178 -242.113153 
L 568.263778 -239.243231 
L 566.681377 -235.74214 
L 565.098976 -231.615664 
L 563.516576 -226.888495 
L 561.934175 -221.603515 
L 560.351774 -215.819629 
L 558.769374 -209.608373 
L 557.186973 -203.049741 
L 555.604572 -196.227754 
L 554.022172 -189.226331 
L 552.439771 -182.125872 
L 550.85737 -175.000848 
L 549.274969 -167.918419 
L 547.692569 -160.937977 
L 546.110168 -154.11134 
L 544.527767 -147.483271 
L 542.945367 -141.092054 
L 541.362966 -134.969878 
L 539.780565 -129.142968 
L 538.198165 -123.631457 
L 536.615764 -118.449135 
L 535.033363 -113.603235 
L 533.450963 -109.094452 
L 531.868562 -104.917318 
L 530.286161 -101.061 
L 528.703761 -97.510477 
L 527.12136 -94.247949 
L 525.538959 -91.254264 
L 523.956559 -88.510126 
L 522.374158 -85.996846 
L 520.791757 -83.69653 
L 519.209357 -81.59167 
L 517.626956 -79.664284 
L 516.044555 -77.894854 
L 514.462155 -76.261382 
L 512.879754 -74.738893 
L 511.297353 -73.299626 
L 509.714952 -71.914023 
L 508.132552 -70.552434 
L 506.550151 -69.187321 
L 504.96775 -67.795583 
L 503.38535 -66.36061 
L 501.802949 -64.873703 
L 500.220548 -63.334608 
L 498.638148 -61.751073 
L 497.055747 -60.137521 
L 495.473346 -58.513075 
L 493.890946 -56.899245 
L 492.308545 -55.31765 
L 490.726144 -53.788058 
L 489.143744 -52.326975 
L 487.561343 -50.94687 
L 485.978942 -49.65602 
L 484.396542 -48.458855 
L 482.814141 -47.356634 
L 481.23174 -46.348254 
L 479.64934 -45.431028 
L 478.066939 -44.601299 
L 476.484538 -43.854827 
L 474.902138 -43.186947 
L 473.319737 -42.592544 
L 471.737336 -42.06592 
L 470.154935 -41.600661 
L 468.572535 -41.189576 
L 466.990134 -40.824782 
L 465.407733 -40.497942 
L 463.825333 -40.200666 
L 462.242932 -39.925001 
L 460.660531 -39.663949 
L 459.078131 -39.411931 
L 457.49573 -39.165121 
L 455.913329 -38.921587 
L 454.330929 -38.681232 
L 452.748528 -38.445532 
L 451.166127 -38.217124 
L 449.583727 -37.999297 
L 448.001326 -37.795473 
L 446.418925 -37.608732 
L 444.836525 -37.441449 
L 443.254124 -37.295066 
L 441.671723 -37.170011 
L 440.089323 -37.06575 
L 438.506922 -36.980936 
L 436.924521 -36.913624 
L 435.342121 -36.861509 
L 433.75972 -36.822146 
L 432.177319 -36.79314 
L 430.594918 -36.772288 
L 429.012518 -36.757663 
L 427.430117 -36.747654 
L 425.847716 -36.74097 
z
" style="stroke: #4c72b0"/>
    </defs>
    <g>
     <use xlink:href="#m0dc0731420" x="0" y="265.689687" style="fill: #4c72b0; fill-opacity: 0.25; stroke: #4c72b0"/>
    </g>
   </g>
   <g id="line2d_37">
    <path d="M 301.447811 228.96 
L 301.447811 7.2 
" style="fill: none; stroke-dasharray: 2.96,1.28; stroke-dashoffset: 0; stroke: #d3d3d3; stroke-width: 0.8"/>
   </g>
   <g id="line2d_38">
    <path d="M 486.970933 228.96 
L 486.970933 7.2 
" style="fill: none; stroke-dasharray: 2.96,1.28; stroke-dashoffset: 0; stroke: #d3d3d3; stroke-width: 0.8"/>
   </g>
   <g id="line2d_39">
    <path d="M 407.656455 228.96 
L 407.656455 7.2 
" style="fill: none; stroke-dasharray: 2.96,1.28; stroke-dashoffset: 0; stroke: #d3d3d3; stroke-width: 0.8"/>
   </g>
   <g id="line2d_40">
    <path d="M 7.2 228.96 
L 844.2 228.96 
" style="fill: none; stroke: #808080; stroke-width: 0.5; stroke-linecap: round"/>
   </g>
   <g id="text_12">
    <text style="font-size: 8px; font-family: 'Arial', 'DejaVu Sans', 'Liberation Sans', 'Bitstream Vera Sans', sans-serif; fill: #808080" transform="translate(307.701561 124.59635) rotate(-90)">International Poverty Line: $3.00</text>
   </g>
   <g id="text_13">
    <text style="font-size: 8px; font-family: 'Arial', 'DejaVu Sans', 'Liberation Sans', 'Bitstream Vera Sans', sans-serif; fill: #808080" transform="translate(492.697183 81.31135) rotate(-90)">World mean: $21.85</text>
   </g>
   <g id="text_14">
    <text style="font-size: 8px; font-family: 'Arial', 'DejaVu Sans', 'Liberation Sans', 'Bitstream Vera Sans', sans-serif; fill: #808080" transform="translate(413.382705 83.08885) rotate(-90)">World median: $9.35</text>
   </g>
   <g id="legend_1">
    <g id="patch_3">
     <path d="M 683.8 102.466062 
L 851.4125 102.466062 
Q 853.4125 102.466062 853.4125 100.466062 
L 853.4125 58.552 
Q 853.4125 56.552 851.4125 56.552 
L 683.8 56.552 
Q 681.8 56.552 681.8 58.552 
L 681.8 100.466062 
Q 681.8 102.466062 683.8 102.466062 
z
" style="fill: #ffffff; opacity: 0.8; stroke: #cccccc; stroke-linejoin: miter"/>
    </g>
    <g id="text_15">
     <text style="font-size: 10px; font-family: 'Arial', 'DejaVu Sans', 'Liberation Sans', 'Bitstream Vera Sans', sans-serif; text-anchor: start; fill: #262626" x="750.1" y="67.831687" transform="rotate(-0 750.1 67.831687)">Country</text>
    </g>
    <g id="patch_4">
     <path d="M 685.8 82.094187 
L 705.8 82.094187 
L 705.8 75.094187 
L 685.8 75.094187 
z
" style="fill: #4c72b0; fill-opacity: 0.25; stroke: #4c72b0; stroke-linejoin: miter"/>
    </g>
    <g id="text_16">
     <text style="font-size: 10px; font-family: 'Arial', 'DejaVu Sans', 'Liberation Sans', 'Bitstream Vera Sans', sans-serif; text-anchor: start; fill: #262626" x="713.8" y="82.094187" transform="rotate(-0 713.8 82.094187)">Denmark</text>
    </g>
    <g id="patch_5">
     <path d="M 685.8 96.361375 
L 705.8 96.361375 
L 705.8 89.361375 
L 685.8 89.361375 
z
" style="fill: #dd8452; fill-opacity: 0.25; stroke: #dd8452; stroke-linejoin: miter"/>
    </g>
    <g id="text_17">
     <text style="font-size: 10px; font-family: 'Arial', 'DejaVu Sans', 'Liberation Sans', 'Bitstream Vera Sans', sans-serif; text-anchor: start; fill: #262626" x="713.8" y="96.361375" transform="rotate(-0 713.8 96.361375)">Democratic Republic of Congo</text>
    </g>
   </g>
  </g>
 </g>
</svg>
