<?xml version="1.0" encoding="utf-8" standalone="no"?>
<!DOCTYPE svg PUBLIC "-//W3C//DTD SVG 1.1//EN"
  "http://www.w3.org/Graphics/SVG/1.1/DTD/svg11.dtd">
<svg xmlns:xlink="http://www.w3.org/1999/xlink" width="851.4pt" height="282.943437pt" viewBox="0 0 851.4 282.943437" xmlns="http://www.w3.org/2000/svg" version="1.1">
 <metadata>
  <rdf:RDF xmlns:dc="http://purl.org/dc/elements/1.1/" xmlns:cc="http://creativecommons.org/ns#" xmlns:rdf="http://www.w3.org/1999/02/22-rdf-syntax-ns#">
   <cc:Work>
    <dc:type rdf:resource="http://purl.org/dc/dcmitype/StillImage"/>
    <dc:date>2026-05-28T14:12:38.061234</dc:date>
    <dc:format>image/svg+xml</dc:format>
    <dc:creator>
     <cc:Agent>
      <dc:title>Matplotlib v3.10.9, https://matplotlib.org/</dc:title>
     </cc:Agent>
    </dc:creator>
   </cc:Work>
  </rdf:RDF>
 </metadata>
 <defs>
  <style type="text/css">*{stroke-linejoin: round; stroke-linecap: butt}</style>
 </defs>
 <g id="figure_1">
  <g id="patch_1">
   <path d="M 0 282.943437 
L 851.4 282.943437 
L 851.4 0 
L 0 0 
z
" style="fill: #ffffff"/>
  </g>
  <g id="axes_1">
   <g id="patch_2">
    <path d="M 7.2 246.21375 
L 844.2 246.21375 
L 844.2 24.45375 
L 7.2 24.45375 
z
" style="fill: #ffffff"/>
   </g>
   <g id="matplotlib.axis_1">
    <g id="xtick_1">
     <g id="line2d_1">
      <defs>
       <path id="m29787bb0c1" d="M 0 0 
L 0 3.5 
" style="stroke: #262626; stroke-width: 0.8"/>
      </defs>
      <g>
       <use xlink:href="#m29787bb0c1" x="44.809856" y="246.21375" style="fill: #262626; stroke: #262626; stroke-width: 0.8"/>
      </g>
     </g>
     <g id="text_1">
      <text style="font-size: 10px; font-family: 'Arial', 'DejaVu Sans', 'Liberation Sans', 'Bitstream Vera Sans', sans-serif; text-anchor: middle; fill: #262626" x="44.809856" y="260.371562" transform="rotate(-0 44.809856 260.371562)">$10</text>
     </g>
    </g>
    <g id="xtick_2">
     <g id="line2d_2">
      <g>
       <use xlink:href="#m29787bb0c1" x="123.284656" y="246.21375" style="fill: #262626; stroke: #262626; stroke-width: 0.8"/>
      </g>
     </g>
     <g id="text_2">
      <text style="font-size: 10px; font-family: 'Arial', 'DejaVu Sans', 'Liberation Sans', 'Bitstream Vera Sans', sans-serif; text-anchor: middle; fill: #262626" x="123.284656" y="260.371562" transform="rotate(-0 123.284656 260.371562)">$20</text>
     </g>
    </g>
    <g id="xtick_3">
     <g id="line2d_3">
      <g>
       <use xlink:href="#m29787bb0c1" x="227.022698" y="246.21375" style="fill: #262626; stroke: #262626; stroke-width: 0.8"/>
      </g>
     </g>
     <g id="text_3">
      <text style="font-size: 10px; font-family: 'Arial', 'DejaVu Sans', 'Liberation Sans', 'Bitstream Vera Sans', sans-serif; text-anchor: middle; fill: #262626" x="227.022698" y="260.371562" transform="rotate(-0 227.022698 260.371562)">$50</text>
     </g>
    </g>
    <g id="xtick_4">
     <g id="line2d_4">
      <g>
       <use xlink:href="#m29787bb0c1" x="305.497497" y="246.21375" style="fill: #262626; stroke: #262626; stroke-width: 0.8"/>
      </g>
     </g>
     <g id="text_4">
      <text style="font-size: 10px; font-family: 'Arial', 'DejaVu Sans', 'Liberation Sans', 'Bitstream Vera Sans', sans-serif; text-anchor: middle; fill: #262626" x="305.497497" y="260.371562" transform="rotate(-0 305.497497 260.371562)">$100</text>
     </g>
    </g>
    <g id="xtick_5">
     <g id="line2d_5">
      <g>
       <use xlink:href="#m29787bb0c1" x="383.972297" y="246.21375" style="fill: #262626; stroke: #262626; stroke-width: 0.8"/>
      </g>
     </g>
     <g id="text_5">
      <text style="font-size: 10px; font-family: 'Arial', 'DejaVu Sans', 'Liberation Sans', 'Bitstream Vera Sans', sans-serif; text-anchor: middle; fill: #262626" x="383.972297" y="260.371562" transform="rotate(-0 383.972297 260.371562)">$200</text>
     </g>
    </g>
    <g id="xtick_6">
     <g id="line2d_6">
      <g>
       <use xlink:href="#m29787bb0c1" x="487.710339" y="246.21375" style="fill: #262626; stroke: #262626; stroke-width: 0.8"/>
      </g>
     </g>
     <g id="text_6">
      <text style="font-size: 10px; font-family: 'Arial', 'DejaVu Sans', 'Liberation Sans', 'Bitstream Vera Sans', sans-serif; text-anchor: middle; fill: #262626" x="487.710339" y="260.371562" transform="rotate(-0 487.710339 260.371562)">$500</text>
     </g>
    </g>
    <g id="xtick_7">
     <g id="line2d_7">
      <g>
       <use xlink:href="#m29787bb0c1" x="566.185139" y="246.21375" style="fill: #262626; stroke: #262626; stroke-width: 0.8"/>
      </g>
     </g>
     <g id="text_7">
      <text style="font-size: 10px; font-family: 'Arial', 'DejaVu Sans', 'Liberation Sans', 'Bitstream Vera Sans', sans-serif; text-anchor: middle; fill: #262626" x="566.185139" y="260.371562" transform="rotate(-0 566.185139 260.371562)">$1000</text>
     </g>
    </g>
    <g id="xtick_8">
     <g id="line2d_8">
      <g>
       <use xlink:href="#m29787bb0c1" x="644.659938" y="246.21375" style="fill: #262626; stroke: #262626; stroke-width: 0.8"/>
      </g>
     </g>
     <g id="text_8">
      <text style="font-size: 10px; font-family: 'Arial', 'DejaVu Sans', 'Liberation Sans', 'Bitstream Vera Sans', sans-serif; text-anchor: middle; fill: #262626" x="644.659938" y="260.371562" transform="rotate(-0 644.659938 260.371562)">$2000</text>
     </g>
    </g>
    <g id="xtick_9">
     <g id="line2d_9">
      <g>
       <use xlink:href="#m29787bb0c1" x="748.39798" y="246.21375" style="fill: #262626; stroke: #262626; stroke-width: 0.8"/>
      </g>
     </g>
     <g id="text_9">
      <text style="font-size: 10px; font-family: 'Arial', 'DejaVu Sans', 'Liberation Sans', 'Bitstream Vera Sans', sans-serif; text-anchor: middle; fill: #262626" x="748.39798" y="260.371562" transform="rotate(-0 748.39798 260.371562)">$5000</text>
     </g>
    </g>
    <g id="xtick_10">
     <g id="line2d_10">
      <g>
       <use xlink:href="#m29787bb0c1" x="826.87278" y="246.21375" style="fill: #262626; stroke: #262626; stroke-width: 0.8"/>
      </g>
     </g>
     <g id="text_10">
      <text style="font-size: 10px; font-family: 'Arial', 'DejaVu Sans', 'Liberation Sans', 'Bitstream Vera Sans', sans-serif; text-anchor: middle; fill: #262626" x="826.87278" y="260.371562" transform="rotate(-0 826.87278 260.371562)">$10000</text>
     </g>
    </g>
    <g id="xtick_11">
     <g id="line2d_11">
      <defs>
       <path id="m505d9a8d14" d="M 0 0 
L 0 2 
" style="stroke: #262626; stroke-width: 0.6"/>
      </defs>
      <g>
       <use xlink:href="#m505d9a8d14" x="19.546614" y="246.21375" style="fill: #262626; stroke: #262626; stroke-width: 0.6"/>
      </g>
     </g>
    </g>
    <g id="xtick_12">
     <g id="line2d_12">
      <g>
       <use xlink:href="#m505d9a8d14" x="32.881444" y="246.21375" style="fill: #262626; stroke: #262626; stroke-width: 0.6"/>
      </g>
     </g>
    </g>
    <g id="xtick_13">
     <g id="line2d_13">
      <g>
       <use xlink:href="#m505d9a8d14" x="169.189471" y="246.21375" style="fill: #262626; stroke: #262626; stroke-width: 0.6"/>
      </g>
     </g>
    </g>
    <g id="xtick_14">
     <g id="line2d_14">
      <g>
       <use xlink:href="#m505d9a8d14" x="201.759455" y="246.21375" style="fill: #262626; stroke: #262626; stroke-width: 0.6"/>
      </g>
     </g>
    </g>
    <g id="xtick_15">
     <g id="line2d_15">
      <g>
       <use xlink:href="#m505d9a8d14" x="247.66427" y="246.21375" style="fill: #262626; stroke: #262626; stroke-width: 0.6"/>
      </g>
     </g>
    </g>
    <g id="xtick_16">
     <g id="line2d_16">
      <g>
       <use xlink:href="#m505d9a8d14" x="265.116471" y="246.21375" style="fill: #262626; stroke: #262626; stroke-width: 0.6"/>
      </g>
     </g>
    </g>
    <g id="xtick_17">
     <g id="line2d_17">
      <g>
       <use xlink:href="#m505d9a8d14" x="280.234255" y="246.21375" style="fill: #262626; stroke: #262626; stroke-width: 0.6"/>
      </g>
     </g>
    </g>
    <g id="xtick_18">
     <g id="line2d_18">
      <g>
       <use xlink:href="#m505d9a8d14" x="293.569085" y="246.21375" style="fill: #262626; stroke: #262626; stroke-width: 0.6"/>
      </g>
     </g>
    </g>
    <g id="xtick_19">
     <g id="line2d_19">
      <g>
       <use xlink:href="#m505d9a8d14" x="429.877112" y="246.21375" style="fill: #262626; stroke: #262626; stroke-width: 0.6"/>
      </g>
     </g>
    </g>
    <g id="xtick_20">
     <g id="line2d_20">
      <g>
       <use xlink:href="#m505d9a8d14" x="462.447096" y="246.21375" style="fill: #262626; stroke: #262626; stroke-width: 0.6"/>
      </g>
     </g>
    </g>
    <g id="xtick_21">
     <g id="line2d_21">
      <g>
       <use xlink:href="#m505d9a8d14" x="508.351911" y="246.21375" style="fill: #262626; stroke: #262626; stroke-width: 0.6"/>
      </g>
     </g>
    </g>
    <g id="xtick_22">
     <g id="line2d_22">
      <g>
       <use xlink:href="#m505d9a8d14" x="525.804112" y="246.21375" style="fill: #262626; stroke: #262626; stroke-width: 0.6"/>
      </g>
     </g>
    </g>
    <g id="xtick_23">
     <g id="line2d_23">
      <g>
       <use xlink:href="#m505d9a8d14" x="540.921896" y="246.21375" style="fill: #262626; stroke: #262626; stroke-width: 0.6"/>
      </g>
     </g>
    </g>
    <g id="xtick_24">
     <g id="line2d_24">
      <g>
       <use xlink:href="#m505d9a8d14" x="554.256726" y="246.21375" style="fill: #262626; stroke: #262626; stroke-width: 0.6"/>
      </g>
     </g>
    </g>
    <g id="xtick_25">
     <g id="line2d_25">
      <g>
       <use xlink:href="#m505d9a8d14" x="690.564753" y="246.21375" style="fill: #262626; stroke: #262626; stroke-width: 0.6"/>
      </g>
     </g>
    </g>
    <g id="xtick_26">
     <g id="line2d_26">
      <g>
       <use xlink:href="#m505d9a8d14" x="723.134738" y="246.21375" style="fill: #262626; stroke: #262626; stroke-width: 0.6"/>
      </g>
     </g>
    </g>
    <g id="xtick_27">
     <g id="line2d_27">
      <g>
       <use xlink:href="#m505d9a8d14" x="769.039553" y="246.21375" style="fill: #262626; stroke: #262626; stroke-width: 0.6"/>
      </g>
     </g>
    </g>
    <g id="xtick_28">
     <g id="line2d_28">
      <g>
       <use xlink:href="#m505d9a8d14" x="786.491753" y="246.21375" style="fill: #262626; stroke: #262626; stroke-width: 0.6"/>
      </g>
     </g>
    </g>
    <g id="xtick_29">
     <g id="line2d_29">
      <g>
       <use xlink:href="#m505d9a8d14" x="801.609537" y="246.21375" style="fill: #262626; stroke: #262626; stroke-width: 0.6"/>
      </g>
     </g>
    </g>
    <g id="xtick_30">
     <g id="line2d_30">
      <g>
       <use xlink:href="#m505d9a8d14" x="814.944367" y="246.21375" style="fill: #262626; stroke: #262626; stroke-width: 0.6"/>
      </g>
     </g>
    </g>
    <g id="text_11">
     <text style="font-size: 10px; font-family: 'Arial', 'DejaVu Sans', 'Liberation Sans', 'Bitstream Vera Sans', sans-serif; text-anchor: middle; fill: #262626" x="425.7" y="273.63875" transform="rotate(-0 425.7 273.63875)">Income or consumption (month)</text>
    </g>
   </g>
   <g id="matplotlib.axis_2"/>
   <g id="FillBetweenPolyCollection_1">
    <defs>
     <path id="m0fe634fdce" d="M 45.245455 -36.729688 
L 45.245455 -36.792227 
L 47.534737 -36.812234 
L 49.82402 -36.83785 
L 52.113302 -36.870392 
L 54.402585 -36.91141 
L 56.691868 -36.962714 
L 58.98115 -37.026386 
L 61.270433 -37.104803 
L 63.559716 -37.200642 
L 65.848998 -37.316887 
L 68.138281 -37.456818 
L 70.427564 -37.624002 
L 72.716846 -37.822267 
L 75.006129 -38.055662 
L 77.295412 -38.328413 
L 79.584694 -38.644863 
L 81.873977 -39.009408 
L 84.163259 -39.426414 
L 86.452542 -39.900146 
L 88.741825 -40.434673 
L 91.031107 -41.033795 
L 93.32039 -41.700954 
L 95.609673 -42.439166 
L 97.898955 -43.250957 
L 100.188238 -44.138317 
L 102.477521 -45.102664 
L 104.766803 -46.144832 
L 107.056086 -47.265074 
L 109.345368 -48.463083 
L 111.634651 -49.738033 
L 113.923934 -51.088632 
L 116.213216 -52.513192 
L 118.502499 -54.009706 
L 120.791782 -55.57593 
L 123.081064 -57.209468 
L 125.370347 -58.907862 
L 127.65963 -60.668669 
L 129.948912 -62.489535 
L 132.238195 -64.368266 
L 134.527478 -66.302882 
L 136.81676 -68.291663 
L 139.106043 -70.333189 
L 141.395325 -72.426365 
L 143.684608 -74.570439 
L 145.973891 -76.765012 
L 148.263173 -79.010036 
L 150.552456 -81.305805 
L 152.841739 -83.652939 
L 155.131021 -86.052356 
L 157.420304 -88.505228 
L 159.709587 -91.012933 
L 161.998869 -93.576986 
L 164.288152 -96.198958 
L 166.577434 -98.88038 
L 168.866717 -101.622632 
L 171.156 -104.426817 
L 173.445282 -107.293629 
L 175.734565 -110.223209 
L 178.023848 -113.215002 
L 180.31313 -116.267621 
L 182.602413 -119.378715 
L 184.891696 -122.544857 
L 187.180978 -125.761464 
L 189.470261 -129.022729 
L 191.759544 -132.321602 
L 194.048826 -135.649803 
L 196.338109 -138.997876 
L 198.627391 -142.355273 
L 200.916674 -145.710486 
L 203.205957 -149.051203 
L 205.495239 -152.364488 
L 207.784522 -155.636985 
L 210.073805 -158.855124 
L 212.363087 -162.00533 
L 214.65237 -165.074225 
L 216.941653 -168.04881 
L 219.230935 -170.916622 
L 221.520218 -173.665867 
L 223.8095 -176.285515 
L 226.098783 -178.765358 
L 228.388066 -181.096048 
L 230.677348 -183.269089 
L 232.966631 -185.276811 
L 235.255914 -187.112328 
L 237.545196 -188.769481 
L 239.834479 -190.242771 
L 242.123762 -191.527311 
L 244.413044 -192.618774 
L 246.702327 -193.513364 
L 248.99161 -194.20781 
L 251.280892 -194.699378 
L 253.570175 -194.985908 
L 255.859457 -195.065877 
L 258.14874 -194.93847 
L 260.438023 -194.603676 
L 262.727305 -194.062379 
L 265.016588 -193.316453 
L 267.305871 -192.368853 
L 269.595153 -191.223678 
L 271.884436 -189.886225 
L 274.173719 -188.363008 
L 276.463001 -186.66175 
L 278.752284 -184.791341 
L 281.041566 -182.76176 
L 283.330849 -180.583972 
L 285.620132 -178.269791 
L 287.909414 -175.831723 
L 290.198697 -173.282786 
L 292.48798 -170.636321 
L 294.777262 -167.905794 
L 297.066545 -165.104603 
L 299.355828 -162.245886 
L 301.64511 -159.342343 
L 303.934393 -156.40608 
L 306.223676 -153.448464 
L 308.512958 -150.480011 
L 310.802241 -147.5103 
L 313.091523 -144.547909 
L 315.380806 -141.600385 
L 317.670089 -138.674243 
L 319.959371 -135.774982 
L 322.248654 -132.907138 
L 324.537937 -130.074347 
L 326.827219 -127.279437 
L 329.116502 -124.524525 
L 331.405785 -121.811126 
L 333.695067 -119.140275 
L 335.98435 -116.51264 
L 338.273633 -113.928634 
L 340.562915 -111.388526 
L 342.852198 -108.89253 
L 345.14148 -106.440888 
L 347.430763 -104.033929 
L 349.720046 -101.672115 
L 352.009328 -99.35606 
L 354.298611 -97.086539 
L 356.587894 -94.864471 
L 358.877176 -92.690887 
L 361.166459 -90.56689 
L 363.455742 -88.493592 
L 365.745024 -86.472061 
L 368.034307 -84.503248 
L 370.323589 -82.587924 
L 372.612872 -80.726623 
L 374.902155 -78.919582 
L 377.191437 -77.166702 
L 379.48072 -75.467515 
L 381.770003 -73.821172 
L 384.059285 -72.226434 
L 386.348568 -70.681698 
L 388.637851 -69.185016 
L 390.927133 -67.734151 
L 393.216416 -66.326631 
L 395.505699 -64.95982 
L 397.794981 -63.630999 
L 400.084264 -62.33745 
L 402.373546 -61.076547 
L 404.662829 -59.845843 
L 406.952112 -58.643151 
L 409.241394 -57.466624 
L 411.530677 -56.314818 
L 413.81996 -55.186742 
L 416.109242 -54.081894 
L 418.398525 -53.000272 
L 420.687808 -51.942378 
L 422.97709 -50.909183 
L 425.266373 -49.902093 
L 427.555655 -48.922881 
L 429.844938 -47.973613 
L 432.134221 -47.056558 
L 434.423503 -46.174091 
L 436.712786 -45.328593 
L 439.002069 -44.522348 
L 441.291351 -43.757445 
L 443.580634 -43.035697 
L 445.869917 -42.35856 
L 448.159199 -41.727074 
L 450.448482 -41.141826 
L 452.737765 -40.602918 
L 455.027047 -40.10997 
L 457.31633 -39.662125 
L 459.605612 -39.258084 
L 461.894895 -38.896143 
L 464.184178 -38.57425 
L 466.47346 -38.290067 
L 468.762743 -38.041032 
L 471.052026 -37.824433 
L 473.341308 -37.637469 
L 475.630591 -37.477316 
L 477.919874 -37.341184 
L 480.209156 -37.226365 
L 482.498439 -37.130276 
L 484.787721 -37.050491 
L 487.077004 -36.984765 
L 489.366287 -36.931048 
L 491.655569 -36.887492 
L 493.944852 -36.852458 
L 496.234135 -36.824502 
L 498.523417 -36.802372 
L 500.8127 -36.784995 
L 500.8127 -36.729688 
L 500.8127 -36.729688 
L 498.523417 -36.729688 
L 496.234135 -36.729688 
L 493.944852 -36.729688 
L 491.655569 -36.729688 
L 489.366287 -36.729688 
L 487.077004 -36.729688 
L 484.787721 -36.729688 
L 482.498439 -36.729688 
L 480.209156 -36.729688 
L 477.919874 -36.729688 
L 475.630591 -36.729688 
L 473.341308 -36.729688 
L 471.052026 -36.729688 
L 468.762743 -36.729688 
L 466.47346 -36.729688 
L 464.184178 -36.729688 
L 461.894895 -36.729688 
L 459.605612 -36.729688 
L 457.31633 -36.729688 
L 455.027047 -36.729688 
L 452.737765 -36.729688 
L 450.448482 -36.729688 
L 448.159199 -36.729688 
L 445.869917 -36.729688 
L 443.580634 -36.729688 
L 441.291351 -36.729688 
L 439.002069 -36.729688 
L 436.712786 -36.729688 
L 434.423503 -36.729688 
L 432.134221 -36.729688 
L 429.844938 -36.729688 
L 427.555655 -36.729688 
L 425.266373 -36.729688 
L 422.97709 -36.729688 
L 420.687808 -36.729688 
L 418.398525 -36.729688 
L 416.109242 -36.729688 
L 413.81996 -36.729688 
L 411.530677 -36.729688 
L 409.241394 -36.729688 
L 406.952112 -36.729688 
L 404.662829 -36.729688 
L 402.373546 -36.729688 
L 400.084264 -36.729688 
L 397.794981 -36.729688 
L 395.505699 -36.729688 
L 393.216416 -36.729688 
L 390.927133 -36.729688 
L 388.637851 -36.729688 
L 386.348568 -36.729688 
L 384.059285 -36.729688 
L 381.770003 -36.729688 
L 379.48072 -36.729688 
L 377.191437 -36.729688 
L 374.902155 -36.729688 
L 372.612872 -36.729688 
L 370.323589 -36.729688 
L 368.034307 -36.729688 
L 365.745024 -36.729688 
L 363.455742 -36.729688 
L 361.166459 -36.729688 
L 358.877176 -36.729688 
L 356.587894 -36.729688 
L 354.298611 -36.729688 
L 352.009328 -36.729688 
L 349.720046 -36.729688 
L 347.430763 -36.729688 
L 345.14148 -36.729688 
L 342.852198 -36.729688 
L 340.562915 -36.729688 
L 338.273633 -36.729688 
L 335.98435 -36.729688 
L 333.695067 -36.729688 
L 331.405785 -36.729688 
L 329.116502 -36.729688 
L 326.827219 -36.729688 
L 324.537937 -36.729688 
L 322.248654 -36.729688 
L 319.959371 -36.729688 
L 317.670089 -36.729688 
L 315.380806 -36.729688 
L 313.091523 -36.729688 
L 310.802241 -36.729688 
L 308.512958 -36.729688 
L 306.223676 -36.729688 
L 303.934393 -36.729688 
L 301.64511 -36.729688 
L 299.355828 -36.729688 
L 297.066545 -36.729688 
L 294.777262 -36.729688 
L 292.48798 -36.729688 
L 290.198697 -36.729688 
L 287.909414 -36.729688 
L 285.620132 -36.729688 
L 283.330849 -36.729688 
L 281.041566 -36.729688 
L 278.752284 -36.729688 
L 276.463001 -36.729688 
L 274.173719 -36.729688 
L 271.884436 -36.729688 
L 269.595153 -36.729688 
L 267.305871 -36.729688 
L 265.016588 -36.729688 
L 262.727305 -36.729688 
L 260.438023 -36.729688 
L 258.14874 -36.729688 
L 255.859457 -36.729688 
L 253.570175 -36.729688 
L 251.280892 -36.729688 
L 248.99161 -36.729688 
L 246.702327 -36.729688 
L 244.413044 -36.729688 
L 242.123762 -36.729688 
L 239.834479 -36.729688 
L 237.545196 -36.729688 
L 235.255914 -36.729688 
L 232.966631 -36.729688 
L 230.677348 -36.729688 
L 228.388066 -36.729688 
L 226.098783 -36.729688 
L 223.8095 -36.729688 
L 221.520218 -36.729688 
L 219.230935 -36.729688 
L 216.941653 -36.729688 
L 214.65237 -36.729688 
L 212.363087 -36.729688 
L 210.073805 -36.729688 
L 207.784522 -36.729688 
L 205.495239 -36.729688 
L 203.205957 -36.729688 
L 200.916674 -36.729688 
L 198.627391 -36.729688 
L 196.338109 -36.729688 
L 194.048826 -36.729688 
L 191.759544 -36.729688 
L 189.470261 -36.729688 
L 187.180978 -36.729688 
L 184.891696 -36.729688 
L 182.602413 -36.729688 
L 180.31313 -36.729688 
L 178.023848 -36.729688 
L 175.734565 -36.729688 
L 173.445282 -36.729688 
L 171.156 -36.729688 
L 168.866717 -36.729688 
L 166.577434 -36.729688 
L 164.288152 -36.729688 
L 161.998869 -36.729688 
L 159.709587 -36.729688 
L 157.420304 -36.729688 
L 155.131021 -36.729688 
L 152.841739 -36.729688 
L 150.552456 -36.729688 
L 148.263173 -36.729688 
L 145.973891 -36.729688 
L 143.684608 -36.729688 
L 141.395325 -36.729688 
L 139.106043 -36.729688 
L 136.81676 -36.729688 
L 134.527478 -36.729688 
L 132.238195 -36.729688 
L 129.948912 -36.729688 
L 127.65963 -36.729688 
L 125.370347 -36.729688 
L 123.081064 -36.729688 
L 120.791782 -36.729688 
L 118.502499 -36.729688 
L 116.213216 -36.729688 
L 113.923934 -36.729688 
L 111.634651 -36.729688 
L 109.345368 -36.729688 
L 107.056086 -36.729688 
L 104.766803 -36.729688 
L 102.477521 -36.729688 
L 100.188238 -36.729688 
L 97.898955 -36.729688 
L 95.609673 -36.729688 
L 93.32039 -36.729688 
L 91.031107 -36.729688 
L 88.741825 -36.729688 
L 86.452542 -36.729688 
L 84.163259 -36.729688 
L 81.873977 -36.729688 
L 79.584694 -36.729688 
L 77.295412 -36.729688 
L 75.006129 -36.729688 
L 72.716846 -36.729688 
L 70.427564 -36.729688 
L 68.138281 -36.729688 
L 65.848998 -36.729688 
L 63.559716 -36.729688 
L 61.270433 -36.729688 
L 58.98115 -36.729688 
L 56.691868 -36.729688 
L 54.402585 -36.729688 
L 52.113302 -36.729688 
L 49.82402 -36.729688 
L 47.534737 -36.729688 
L 45.245455 -36.729688 
z
" style="stroke: #dd8452; stroke-opacity: 0.2"/>
    </defs>
    <g>
     <use xlink:href="#m0fe634fdce" x="0" y="282.943437" style="fill: #dd8452; fill-opacity: 0.2; stroke: #dd8452; stroke-opacity: 0.2"/>
    </g>
   </g>
   <g id="FillBetweenPolyCollection_2">
    <defs>
     <path id="ma4a2839b4d" d="M 444.555376 -36.729688 
L 444.555376 -36.794212 
L 446.372457 -36.81508 
L 448.189538 -36.841724 
L 450.006619 -36.875423 
L 451.823701 -36.917639 
L 453.640782 -36.970024 
L 455.457863 -37.034413 
L 457.274944 -37.112808 
L 459.092026 -37.207355 
L 460.909107 -37.320308 
L 462.726188 -37.453986 
L 464.543269 -37.610717 
L 466.360351 -37.792774 
L 468.177432 -38.002312 
L 469.994513 -38.241294 
L 471.811594 -38.511426 
L 473.628676 -38.814096 
L 475.445757 -39.150327 
L 477.262838 -39.520746 
L 479.079919 -39.925571 
L 480.897001 -40.364628 
L 482.714082 -40.837386 
L 484.531163 -41.343024 
L 486.348245 -41.880514 
L 488.165326 -42.448724 
L 489.982407 -43.046537 
L 491.799488 -43.672967 
L 493.61657 -44.327268 
L 495.433651 -45.00904 
L 497.250732 -45.718298 
L 499.067813 -46.45552 
L 500.884895 -47.221657 
L 502.701976 -48.018107 
L 504.519057 -48.846653 
L 506.336138 -49.709369 
L 508.15322 -50.608507 
L 509.970301 -51.546367 
L 511.787382 -52.525166 
L 513.604463 -53.54692 
L 515.421545 -54.613344 
L 517.238626 -55.725794 
L 519.055707 -56.885237 
L 520.872788 -58.092284 
L 522.68987 -59.347251 
L 524.506951 -60.65028 
L 526.324032 -62.001486 
L 528.141113 -63.401138 
L 529.958195 -64.849857 
L 531.775276 -66.348811 
L 533.592357 -67.899908 
L 535.409438 -69.505962 
L 537.22652 -71.170831 
L 539.043601 -72.899502 
L 540.860682 -74.698146 
L 542.677763 -76.574104 
L 544.494845 -78.535836 
L 546.311926 -80.59281 
L 548.129007 -82.755351 
L 549.946088 -85.034447 
L 551.76317 -87.441522 
L 553.580251 -89.988175 
L 555.397332 -92.685906 
L 557.214413 -95.545819 
L 559.031495 -98.578319 
L 560.848576 -101.792804 
L 562.665657 -105.197356 
L 564.482738 -108.798442 
L 566.29982 -112.600619 
L 568.116901 -116.606264 
L 569.933982 -120.81532 
L 571.751064 -125.225066 
L 573.568145 -129.829931 
L 575.385226 -134.621338 
L 577.202307 -139.587602 
L 579.019389 -144.713882 
L 580.83647 -149.982188 
L 582.653551 -155.371465 
L 584.470632 -160.857737 
L 586.287714 -166.414333 
L 588.104795 -172.012182 
L 589.921876 -177.620188 
L 591.738957 -183.205664 
L 593.556039 -188.734834 
L 595.37312 -194.173384 
L 597.190201 -199.487041 
L 599.007282 -204.642183 
L 600.824364 -209.606443 
L 602.641445 -214.349292 
L 604.458526 -218.842591 
L 606.275607 -223.061072 
L 608.092689 -226.98275 
L 609.90977 -230.589235 
L 611.726851 -233.865944 
L 613.543932 -236.802194 
L 615.361014 -239.391183 
L 617.178095 -241.629856 
L 618.995176 -243.518666 
L 620.812257 -245.06125 
L 622.629339 -246.264026 
L 624.44642 -247.135737 
L 626.263501 -247.686974 
L 628.080582 -247.929688 
L 629.897664 -247.87672 
L 631.714745 -247.54138 
L 633.531826 -246.93707 
L 635.348907 -246.07699 
L 637.165989 -244.973919 
L 638.98307 -243.640075 
L 640.800151 -242.087062 
L 642.617232 -240.325881 
L 644.434314 -238.367004 
L 646.251395 -236.220498 
L 648.068476 -233.896164 
L 649.885557 -231.403698 
L 651.702639 -228.752837 
L 653.51972 -225.95348 
L 655.336801 -223.015785 
L 657.153883 -219.950208 
L 658.970964 -216.767508 
L 660.788045 -213.478688 
L 662.605126 -210.094909 
L 664.422208 -206.627357 
L 666.239289 -203.087079 
L 668.05637 -199.484817 
L 669.873451 -195.830828 
L 671.690533 -192.134718 
L 673.507614 -188.405293 
L 675.324695 -184.650447 
L 677.141776 -180.877083 
L 678.958858 -177.091075 
L 680.775939 -173.297283 
L 682.59302 -169.4996 
L 684.410101 -165.701049 
L 686.227183 -161.903915 
L 688.044264 -158.109904 
L 689.861345 -154.320317 
L 691.678426 -150.536249 
L 693.495508 -146.758774 
L 695.312589 -142.989132 
L 697.12967 -139.2289 
L 698.946751 -135.480128 
L 700.763833 -131.745461 
L 702.580914 -128.028207 
L 704.397995 -124.332381 
L 706.215076 -120.6627 
L 708.032158 -117.024544 
L 709.849239 -113.423874 
L 711.66632 -109.867125 
L 713.483401 -106.361066 
L 715.300483 -102.912646 
L 717.117564 -99.528822 
L 718.934645 -96.216384 
L 720.751726 -92.981791 
L 722.568808 -89.831015 
L 724.385889 -86.769398 
L 726.20297 -83.801553 
L 728.020051 -80.931275 
L 729.837133 -78.161505 
L 731.654214 -75.494314 
L 733.471295 -72.930933 
L 735.288376 -70.47181 
L 737.105458 -68.116692 
L 738.922539 -65.864738 
L 740.73962 -63.714632 
L 742.556702 -61.664719 
L 744.373783 -59.713125 
L 746.190864 -57.857875 
L 748.007945 -56.096992 
L 749.825027 -54.428577 
L 751.642108 -52.850858 
L 753.459189 -51.362215 
L 755.27627 -49.961177 
L 757.093352 -48.646394 
L 758.910433 -47.416584 
L 760.727514 -46.270475 
L 762.544595 -45.206722 
L 764.361677 -44.223836 
L 766.178758 -43.32011 
L 767.995839 -42.493554 
L 769.81292 -41.741851 
L 771.630002 -41.062324 
L 773.447083 -40.451929 
L 775.264164 -39.907269 
L 777.081245 -39.42462 
L 778.898327 -38.999983 
L 780.715408 -38.629141 
L 782.532489 -38.307739 
L 784.34957 -38.031347 
L 786.166652 -37.795548 
L 787.983733 -37.596005 
L 789.800814 -37.428529 
L 791.617895 -37.289134 
L 793.434977 -37.174089 
L 795.252058 -37.079948 
L 797.069139 -37.003573 
L 798.88622 -36.942147 
L 800.703302 -36.893175 
L 802.520383 -36.854473 
L 804.337464 -36.824156 
L 806.154545 -36.800619 
L 806.154545 -36.729688 
L 806.154545 -36.729688 
L 804.337464 -36.729688 
L 802.520383 -36.729688 
L 800.703302 -36.729688 
L 798.88622 -36.729688 
L 797.069139 -36.729688 
L 795.252058 -36.729688 
L 793.434977 -36.729688 
L 791.617895 -36.729688 
L 789.800814 -36.729688 
L 787.983733 -36.729688 
L 786.166652 -36.729688 
L 784.34957 -36.729688 
L 782.532489 -36.729688 
L 780.715408 -36.729688 
L 778.898327 -36.729688 
L 777.081245 -36.729688 
L 775.264164 -36.729688 
L 773.447083 -36.729688 
L 771.630002 -36.729688 
L 769.81292 -36.729688 
L 767.995839 -36.729688 
L 766.178758 -36.729688 
L 764.361677 -36.729688 
L 762.544595 -36.729688 
L 760.727514 -36.729688 
L 758.910433 -36.729688 
L 757.093352 -36.729688 
L 755.27627 -36.729688 
L 753.459189 -36.729688 
L 751.642108 -36.729688 
L 749.825027 -36.729688 
L 748.007945 -36.729688 
L 746.190864 -36.729688 
L 744.373783 -36.729688 
L 742.556702 -36.729688 
L 740.73962 -36.729688 
L 738.922539 -36.729688 
L 737.105458 -36.729688 
L 735.288376 -36.729688 
L 733.471295 -36.729688 
L 731.654214 -36.729688 
L 729.837133 -36.729688 
L 728.020051 -36.729688 
L 726.20297 -36.729688 
L 724.385889 -36.729688 
L 722.568808 -36.729688 
L 720.751726 -36.729688 
L 718.934645 -36.729688 
L 717.117564 -36.729688 
L 715.300483 -36.729688 
L 713.483401 -36.729688 
L 711.66632 -36.729688 
L 709.849239 -36.729688 
L 708.032158 -36.729688 
L 706.215076 -36.729688 
L 704.397995 -36.729688 
L 702.580914 -36.729688 
L 700.763833 -36.729688 
L 698.946751 -36.729688 
L 697.12967 -36.729688 
L 695.312589 -36.729688 
L 693.495508 -36.729688 
L 691.678426 -36.729688 
L 689.861345 -36.729688 
L 688.044264 -36.729688 
L 686.227183 -36.729688 
L 684.410101 -36.729688 
L 682.59302 -36.729688 
L 680.775939 -36.729688 
L 678.958858 -36.729688 
L 677.141776 -36.729688 
L 675.324695 -36.729688 
L 673.507614 -36.729688 
L 671.690533 -36.729688 
L 669.873451 -36.729688 
L 668.05637 -36.729688 
L 666.239289 -36.729688 
L 664.422208 -36.729688 
L 662.605126 -36.729688 
L 660.788045 -36.729688 
L 658.970964 -36.729688 
L 657.153883 -36.729688 
L 655.336801 -36.729688 
L 653.51972 -36.729688 
L 651.702639 -36.729688 
L 649.885557 -36.729688 
L 648.068476 -36.729688 
L 646.251395 -36.729688 
L 644.434314 -36.729688 
L 642.617232 -36.729688 
L 640.800151 -36.729688 
L 638.98307 -36.729688 
L 637.165989 -36.729688 
L 635.348907 -36.729688 
L 633.531826 -36.729688 
L 631.714745 -36.729688 
L 629.897664 -36.729688 
L 628.080582 -36.729688 
L 626.263501 -36.729688 
L 624.44642 -36.729688 
L 622.629339 -36.729688 
L 620.812257 -36.729688 
L 618.995176 -36.729688 
L 617.178095 -36.729688 
L 615.361014 -36.729688 
L 613.543932 -36.729688 
L 611.726851 -36.729688 
L 609.90977 -36.729688 
L 608.092689 -36.729688 
L 606.275607 -36.729688 
L 604.458526 -36.729688 
L 602.641445 -36.729688 
L 600.824364 -36.729688 
L 599.007282 -36.729688 
L 597.190201 -36.729688 
L 595.37312 -36.729688 
L 593.556039 -36.729688 
L 591.738957 -36.729688 
L 589.921876 -36.729688 
L 588.104795 -36.729688 
L 586.287714 -36.729688 
L 584.470632 -36.729688 
L 582.653551 -36.729688 
L 580.83647 -36.729688 
L 579.019389 -36.729688 
L 577.202307 -36.729688 
L 575.385226 -36.729688 
L 573.568145 -36.729688 
L 571.751064 -36.729688 
L 569.933982 -36.729688 
L 568.116901 -36.729688 
L 566.29982 -36.729688 
L 564.482738 -36.729688 
L 562.665657 -36.729688 
L 560.848576 -36.729688 
L 559.031495 -36.729688 
L 557.214413 -36.729688 
L 555.397332 -36.729688 
L 553.580251 -36.729688 
L 551.76317 -36.729688 
L 549.946088 -36.729688 
L 548.129007 -36.729688 
L 546.311926 -36.729688 
L 544.494845 -36.729688 
L 542.677763 -36.729688 
L 540.860682 -36.729688 
L 539.043601 -36.729688 
L 537.22652 -36.729688 
L 535.409438 -36.729688 
L 533.592357 -36.729688 
L 531.775276 -36.729688 
L 529.958195 -36.729688 
L 528.141113 -36.729688 
L 526.324032 -36.729688 
L 524.506951 -36.729688 
L 522.68987 -36.729688 
L 520.872788 -36.729688 
L 519.055707 -36.729688 
L 517.238626 -36.729688 
L 515.421545 -36.729688 
L 513.604463 -36.729688 
L 511.787382 -36.729688 
L 509.970301 -36.729688 
L 508.15322 -36.729688 
L 506.336138 -36.729688 
L 504.519057 -36.729688 
L 502.701976 -36.729688 
L 500.884895 -36.729688 
L 499.067813 -36.729688 
L 497.250732 -36.729688 
L 495.433651 -36.729688 
L 493.61657 -36.729688 
L 491.799488 -36.729688 
L 489.982407 -36.729688 
L 488.165326 -36.729688 
L 486.348245 -36.729688 
L 484.531163 -36.729688 
L 482.714082 -36.729688 
L 480.897001 -36.729688 
L 479.079919 -36.729688 
L 477.262838 -36.729688 
L 475.445757 -36.729688 
L 473.628676 -36.729688 
L 471.811594 -36.729688 
L 469.994513 -36.729688 
L 468.177432 -36.729688 
L 466.360351 -36.729688 
L 464.543269 -36.729688 
L 462.726188 -36.729688 
L 460.909107 -36.729688 
L 459.092026 -36.729688 
L 457.274944 -36.729688 
L 455.457863 -36.729688 
L 453.640782 -36.729688 
L 451.823701 -36.729688 
L 450.006619 -36.729688 
L 448.189538 -36.729688 
L 446.372457 -36.729688 
L 444.555376 -36.729688 
z
" style="stroke: #4c72b0; stroke-opacity: 0.2"/>
    </defs>
    <g>
     <use xlink:href="#ma4a2839b4d" x="0" y="282.943437" style="fill: #4c72b0; fill-opacity: 0.2; stroke: #4c72b0; stroke-opacity: 0.2"/>
    </g>
   </g>
   <g id="FillBetweenPolyCollection_3">
    <defs>
     <path id="madaae7b153" d="M 45.245455 -36.792227 
L 45.245455 -36.729688 
L 47.534737 -36.729688 
L 49.82402 -36.729688 
L 52.113302 -36.729688 
L 54.402585 -36.729688 
L 56.691868 -36.729688 
L 58.98115 -36.729688 
L 61.270433 -36.729688 
L 63.559716 -36.729688 
L 65.848998 -36.729688 
L 68.138281 -36.729688 
L 70.427564 -36.729688 
L 72.716846 -36.729688 
L 75.006129 -36.729688 
L 77.295412 -36.729688 
L 79.584694 -36.729688 
L 81.873977 -36.729688 
L 84.163259 -36.729688 
L 86.452542 -36.729688 
L 88.741825 -36.729688 
L 91.031107 -36.729688 
L 93.32039 -36.729688 
L 95.609673 -36.729688 
L 97.898955 -36.729688 
L 100.188238 -36.729688 
L 102.477521 -36.729688 
L 104.766803 -36.729688 
L 107.056086 -36.729688 
L 109.345368 -36.729688 
L 111.634651 -36.729688 
L 113.923934 -36.729688 
L 116.213216 -36.729688 
L 118.502499 -36.729688 
L 120.791782 -36.729688 
L 123.081064 -36.729688 
L 125.370347 -36.729688 
L 127.65963 -36.729688 
L 129.948912 -36.729688 
L 132.238195 -36.729688 
L 134.527478 -36.729688 
L 136.81676 -36.729688 
L 139.106043 -36.729688 
L 141.395325 -36.729688 
L 143.684608 -36.729688 
L 145.973891 -36.729688 
L 148.263173 -36.729688 
L 150.552456 -36.729688 
L 152.841739 -36.729688 
L 155.131021 -36.729688 
L 157.420304 -36.729688 
L 159.709587 -36.729688 
L 161.998869 -36.729688 
L 164.288152 -36.729688 
L 166.577434 -36.729688 
L 168.866717 -36.729688 
L 171.156 -36.729688 
L 173.445282 -36.729688 
L 175.734565 -36.729688 
L 178.023848 -36.729688 
L 180.31313 -36.729688 
L 182.602413 -36.729688 
L 184.891696 -36.729688 
L 187.180978 -36.729688 
L 189.470261 -36.729688 
L 191.759544 -36.729688 
L 194.048826 -36.729688 
L 196.338109 -36.729688 
L 198.627391 -36.729688 
L 200.916674 -36.729688 
L 203.205957 -36.729688 
L 205.495239 -36.729688 
L 207.784522 -36.729688 
L 210.073805 -36.729688 
L 212.363087 -36.729688 
L 214.65237 -36.729688 
L 216.941653 -36.729688 
L 219.230935 -36.729688 
L 221.520218 -36.729688 
L 223.8095 -36.729688 
L 226.098783 -36.729688 
L 228.388066 -36.729688 
L 230.677348 -36.729688 
L 232.966631 -36.729688 
L 235.255914 -36.729688 
L 237.545196 -36.729688 
L 239.834479 -36.729688 
L 242.123762 -36.729688 
L 244.413044 -36.729688 
L 246.702327 -36.729688 
L 248.99161 -36.729688 
L 251.280892 -36.729688 
L 253.570175 -36.729688 
L 255.859457 -36.729688 
L 258.14874 -36.729688 
L 260.438023 -36.729688 
L 262.727305 -36.729688 
L 265.016588 -36.729688 
L 267.305871 -36.729688 
L 269.595153 -36.729688 
L 271.884436 -36.729688 
L 274.173719 -36.729688 
L 276.463001 -36.729688 
L 278.752284 -36.729688 
L 281.041566 -36.729688 
L 283.330849 -36.729688 
L 285.620132 -36.729688 
L 287.909414 -36.729688 
L 290.198697 -36.729688 
L 292.48798 -36.729688 
L 293.569085 -36.729688 
L 293.569085 -169.353718 
L 293.569085 -169.353718 
L 292.48798 -170.636321 
L 290.198697 -173.282786 
L 287.909414 -175.831723 
L 285.620132 -178.269791 
L 283.330849 -180.583972 
L 281.041566 -182.76176 
L 278.752284 -184.791341 
L 276.463001 -186.66175 
L 274.173719 -188.363008 
L 271.884436 -189.886225 
L 269.595153 -191.223678 
L 267.305871 -192.368853 
L 265.016588 -193.316453 
L 262.727305 -194.062379 
L 260.438023 -194.603676 
L 258.14874 -194.93847 
L 255.859457 -195.065877 
L 253.570175 -194.985908 
L 251.280892 -194.699378 
L 248.99161 -194.20781 
L 246.702327 -193.513364 
L 244.413044 -192.618774 
L 242.123762 -191.527311 
L 239.834479 -190.242771 
L 237.545196 -188.769481 
L 235.255914 -187.112328 
L 232.966631 -185.276811 
L 230.677348 -183.269089 
L 228.388066 -181.096048 
L 226.098783 -178.765358 
L 223.8095 -176.285515 
L 221.520218 -173.665867 
L 219.230935 -170.916622 
L 216.941653 -168.04881 
L 214.65237 -165.074225 
L 212.363087 -162.00533 
L 210.073805 -158.855124 
L 207.784522 -155.636985 
L 205.495239 -152.364488 
L 203.205957 -149.051203 
L 200.916674 -145.710486 
L 198.627391 -142.355273 
L 196.338109 -138.997876 
L 194.048826 -135.649803 
L 191.759544 -132.321602 
L 189.470261 -129.022729 
L 187.180978 -125.761464 
L 184.891696 -122.544857 
L 182.602413 -119.378715 
L 180.31313 -116.267621 
L 178.023848 -113.215002 
L 175.734565 -110.223209 
L 173.445282 -107.293629 
L 171.156 -104.426817 
L 168.866717 -101.622632 
L 166.577434 -98.88038 
L 164.288152 -96.198958 
L 161.998869 -93.576986 
L 159.709587 -91.012933 
L 157.420304 -88.505228 
L 155.131021 -86.052356 
L 152.841739 -83.652939 
L 150.552456 -81.305805 
L 148.263173 -79.010036 
L 145.973891 -76.765012 
L 143.684608 -74.570439 
L 141.395325 -72.426365 
L 139.106043 -70.333189 
L 136.81676 -68.291663 
L 134.527478 -66.302882 
L 132.238195 -64.368266 
L 129.948912 -62.489535 
L 127.65963 -60.668669 
L 125.370347 -58.907862 
L 123.081064 -57.209468 
L 120.791782 -55.57593 
L 118.502499 -54.009706 
L 116.213216 -52.513192 
L 113.923934 -51.088632 
L 111.634651 -49.738033 
L 109.345368 -48.463083 
L 107.056086 -47.265074 
L 104.766803 -46.144832 
L 102.477521 -45.102664 
L 100.188238 -44.138317 
L 97.898955 -43.250957 
L 95.609673 -42.439166 
L 93.32039 -41.700954 
L 91.031107 -41.033795 
L 88.741825 -40.434673 
L 86.452542 -39.900146 
L 84.163259 -39.426414 
L 81.873977 -39.009408 
L 79.584694 -38.644863 
L 77.295412 -38.328413 
L 75.006129 -38.055662 
L 72.716846 -37.822267 
L 70.427564 -37.624002 
L 68.138281 -37.456818 
L 65.848998 -37.316887 
L 63.559716 -37.200642 
L 61.270433 -37.104803 
L 58.98115 -37.026386 
L 56.691868 -36.962714 
L 54.402585 -36.91141 
L 52.113302 -36.870392 
L 49.82402 -36.83785 
L 47.534737 -36.812234 
L 45.245455 -36.792227 
z
"/>
    </defs>
    <g>
     <use xlink:href="#madaae7b153" x="0" y="282.943437" style="fill: #dd8452; fill-opacity: 0.3"/>
    </g>
   </g>
   <g id="line2d_31">
    <path d="M 45.245455 246.151211 
L 56.691868 245.980724 
L 65.848998 245.626551 
L 72.716846 245.12117 
L 77.295412 244.615024 
L 81.873977 243.93403 
L 86.452542 243.043292 
L 91.031107 241.909642 
L 95.609673 240.504272 
L 100.188238 238.805121 
L 104.766803 236.798605 
L 109.345368 234.480354 
L 113.923934 231.854805 
L 118.502499 228.933731 
L 123.081064 225.733969 
L 127.65963 222.274769 
L 132.238195 218.575171 
L 136.81676 214.651775 
L 141.395325 210.517072 
L 148.263173 203.933402 
L 155.131021 196.891081 
L 159.709587 191.930504 
L 164.288152 186.74448 
L 168.866717 181.320806 
L 173.445282 175.649809 
L 178.023848 169.728435 
L 184.891696 160.39858 
L 191.759544 150.621836 
L 210.073805 124.088314 
L 214.65237 117.869213 
L 219.230935 112.026815 
L 223.8095 106.657923 
L 228.388066 101.847389 
L 230.677348 99.674349 
L 232.966631 97.666627 
L 235.255914 95.831109 
L 237.545196 94.173957 
L 239.834479 92.700667 
L 242.123762 91.416126 
L 244.413044 90.324664 
L 246.702327 89.430073 
L 248.99161 88.735627 
L 251.280892 88.24406 
L 253.570175 87.957529 
L 255.859457 87.877561 
L 258.14874 88.004967 
L 260.438023 88.339762 
L 262.727305 88.881059 
L 265.016588 89.626984 
L 267.305871 90.574585 
L 269.595153 91.71976 
L 271.884436 93.057213 
L 274.173719 94.58043 
L 276.463001 96.281687 
L 278.752284 98.152097 
L 283.330849 102.359466 
L 287.909414 107.111714 
L 292.48798 112.307117 
L 297.066545 117.838835 
L 303.934393 126.537357 
L 322.248654 150.0363 
L 329.116502 158.418913 
L 335.98435 166.430798 
L 342.852198 174.050907 
L 349.720046 181.271323 
L 356.587894 188.078967 
L 363.455742 194.449845 
L 368.034307 198.44019 
L 372.612872 202.216814 
L 377.191437 205.776736 
L 381.770003 209.122266 
L 386.348568 212.26174 
L 390.927133 215.209286 
L 397.794981 219.312439 
L 404.662829 223.097594 
L 411.530677 226.628619 
L 418.398525 229.943165 
L 425.266373 233.041345 
L 432.134221 235.88688 
L 439.002069 238.42109 
L 443.580634 239.90774 
L 448.159199 241.216363 
L 452.737765 242.340519 
L 457.31633 243.281312 
L 461.894895 244.047295 
L 468.762743 244.902405 
L 475.630591 245.466122 
L 482.498439 245.813161 
L 491.655569 246.055945 
L 500.8127 246.158443 
L 500.8127 246.158443 
" style="fill: none; stroke: #dd8452; stroke-width: 1.5; stroke-linecap: round"/>
   </g>
   <g id="line2d_32">
    <path d="M 444.555376 246.149226 
L 453.640782 245.973413 
L 460.909107 245.623129 
L 466.360351 245.150663 
L 471.811594 244.432011 
L 477.262838 243.422691 
L 482.714082 242.106051 
L 488.165326 240.494714 
L 493.61657 238.61617 
L 499.067813 236.487917 
L 504.519057 234.096785 
L 509.970301 231.397071 
L 513.604463 229.396517 
L 517.238626 227.217644 
L 520.872788 224.851154 
L 524.506951 222.293157 
L 528.141113 219.542299 
L 531.775276 216.594627 
L 535.409438 213.437475 
L 539.043601 210.043935 
L 542.677763 206.369333 
L 546.311926 202.350628 
L 549.946088 197.90899 
L 553.580251 192.955263 
L 557.214413 187.397619 
L 560.848576 181.150633 
L 564.482738 174.144996 
L 568.116901 166.337173 
L 571.751064 157.718371 
L 575.385226 148.3221 
L 579.019389 138.229556 
L 584.470632 122.0857 
L 597.190201 83.456397 
L 600.824364 73.336995 
L 604.458526 64.100846 
L 606.275607 59.882365 
L 608.092689 55.960688 
L 609.90977 52.354203 
L 611.726851 49.077493 
L 613.543932 46.141243 
L 615.361014 43.552254 
L 617.178095 41.313582 
L 618.995176 39.424772 
L 620.812257 37.882187 
L 622.629339 36.679412 
L 624.44642 35.807701 
L 626.263501 35.256464 
L 628.080582 35.01375 
L 629.897664 35.066717 
L 631.714745 35.402058 
L 633.531826 36.006368 
L 635.348907 36.866447 
L 637.165989 37.969519 
L 638.98307 39.303362 
L 640.800151 40.856375 
L 642.617232 42.617557 
L 644.434314 44.576433 
L 646.251395 46.72294 
L 649.885557 51.539739 
L 653.51972 56.989958 
L 657.153883 62.993229 
L 660.788045 69.46475 
L 664.422208 76.316081 
L 669.873451 87.112609 
L 677.141776 102.066355 
L 704.397995 158.611057 
L 711.66632 173.076313 
L 717.117564 183.414616 
L 720.751726 189.961646 
L 724.385889 196.174039 
L 728.020051 202.012162 
L 731.654214 207.449124 
L 735.288376 212.471628 
L 738.922539 217.0787 
L 742.556702 221.278718 
L 746.190864 225.085563 
L 749.825027 228.51486 
L 753.459189 231.581222 
L 757.093352 234.297044 
L 760.727514 236.672962 
L 764.361677 238.719601 
L 767.995839 240.449883 
L 771.630002 241.881114 
L 775.264164 243.036168 
L 778.898327 243.943455 
L 782.532489 244.635699 
L 786.166652 245.147889 
L 791.617895 245.654304 
L 797.069139 245.939865 
L 806.154545 246.142819 
L 806.154545 246.142819 
" style="fill: none; stroke: #4c72b0; stroke-width: 1.5; stroke-linecap: round"/>
   </g>
   <g id="line2d_33">
    <path d="M 293.569085 246.21375 
L 293.569085 24.45375 
" style="fill: none; stroke-dasharray: 0.8,1.32; stroke-dashoffset: 0; stroke: #d3d3d3; stroke-width: 0.8"/>
   </g>
   <g id="line2d_34">
    <path d="M 7.2 246.21375 
L 844.2 246.21375 
" style="fill: none; stroke: #808080; stroke-width: 0.5; stroke-linecap: round"/>
   </g>
   <g id="AnnotationBbox_1">
    <g id="text_12">
     <text style="font-weight: 700; font-size: 8px; font-family: 'Arial', 'DejaVu Sans', 'Liberation Sans', 'Bitstream Vera Sans', sans-serif; text-anchor: end; fill: #808080" x="293.569085" y="12.92625" transform="rotate(-0 293.569085 12.92625)">International Poverty Line</text>
    </g>
    <g id="text_13">
     <text style="font-size: 8px; font-family: 'Arial', 'DejaVu Sans', 'Liberation Sans', 'Bitstream Vera Sans', sans-serif; text-anchor: end; fill: #808080" x="293.569085" y="22.86375" transform="rotate(-0 293.569085 22.86375)">$90 per month</text>
    </g>
   </g>
   <g id="text_14">
    <text style="font-size: 10px; font-family: 'Arial', 'DejaVu Sans', 'Liberation Sans', 'Bitstream Vera Sans', sans-serif; text-anchor: middle" x="633.589661" y="244.109062" transform="rotate(-0 633.589661 244.109062)">Denmark (2023)</text>
   </g>
   <g id="text_15">
    <text style="font-size: 10px; font-family: 'Arial', 'DejaVu Sans', 'Liberation Sans', 'Bitstream Vera Sans', sans-serif; text-anchor: middle" x="259.769551" y="244.109062" transform="rotate(-0 259.769551 244.109062)">Madagascar (2021)</text>
   </g>
  </g>
 </g>
</svg>
