<?xml version="1.0" encoding="utf-8" standalone="no"?>
<!DOCTYPE svg PUBLIC "-//W3C//DTD SVG 1.1//EN"
  "http://www.w3.org/Graphics/SVG/1.1/DTD/svg11.dtd">
<svg xmlns:xlink="http://www.w3.org/1999/xlink" width="860.6125pt" height="265.689687pt" viewBox="0 0 860.6125 265.689687" xmlns="http://www.w3.org/2000/svg" version="1.1">
 <metadata>
  <rdf:RDF xmlns:dc="http://purl.org/dc/elements/1.1/" xmlns:cc="http://creativecommons.org/ns#" xmlns:rdf="http://www.w3.org/1999/02/22-rdf-syntax-ns#">
   <cc:Work>
    <dc:type rdf:resource="http://purl.org/dc/dcmitype/StillImage"/>
    <dc:date>2025-06-18T18:18:33.870745</dc:date>
    <dc:format>image/svg+xml</dc:format>
    <dc:creator>
     <cc:Agent>
      <dc:title>Matplotlib v3.10.1, https://matplotlib.org/</dc:title>
     </cc:Agent>
    </dc:creator>
   </cc:Work>
  </rdf:RDF>
 </metadata>
 <defs>
  <style type="text/css">*{stroke-linejoin: round; stroke-linecap: butt}</style>
 </defs>
 <g id="figure_1">
  <g id="patch_1">
   <path d="M 0 265.689687 
L 860.6125 265.689687 
L 860.6125 0 
L 0 0 
z
" style="fill: #ffffff"/>
  </g>
  <g id="axes_1">
   <g id="patch_2">
    <path d="M 7.2 228.96 
L 844.2 228.96 
L 844.2 7.2 
L 7.2 7.2 
z
" style="fill: #ffffff"/>
   </g>
   <g id="matplotlib.axis_1">
    <g id="xtick_1">
     <g id="line2d_1">
      <defs>
       <path id="m7c728ec001" d="M 0 0 
L 0 3.5 
" style="stroke: #262626; stroke-width: 0.8"/>
      </defs>
      <g>
       <use xlink:href="#m7c728ec001" x="198.289503" y="228.96" style="fill: #262626; stroke: #262626; stroke-width: 0.8"/>
      </g>
     </g>
     <g id="text_1">
      <text style="font-size: 10px; font-family: 'Arial', 'DejaVu Sans', 'Liberation Sans', 'Bitstream Vera Sans', sans-serif; text-anchor: middle; fill: #262626" x="198.289503" y="243.117812" transform="rotate(-0 198.289503 243.117812)">1</text>
     </g>
    </g>
    <g id="xtick_2">
     <g id="line2d_2">
      <g>
       <use xlink:href="#m7c728ec001" x="259.592449" y="228.96" style="fill: #262626; stroke: #262626; stroke-width: 0.8"/>
      </g>
     </g>
     <g id="text_2">
      <text style="font-size: 10px; font-family: 'Arial', 'DejaVu Sans', 'Liberation Sans', 'Bitstream Vera Sans', sans-serif; text-anchor: middle; fill: #262626" x="259.592449" y="243.117812" transform="rotate(-0 259.592449 243.117812)">2</text>
     </g>
    </g>
    <g id="xtick_3">
     <g id="line2d_3">
      <g>
       <use xlink:href="#m7c728ec001" x="340.630537" y="228.96" style="fill: #262626; stroke: #262626; stroke-width: 0.8"/>
      </g>
     </g>
     <g id="text_3">
      <text style="font-size: 10px; font-family: 'Arial', 'DejaVu Sans', 'Liberation Sans', 'Bitstream Vera Sans', sans-serif; text-anchor: middle; fill: #262626" x="340.630537" y="243.117812" transform="rotate(-0 340.630537 243.117812)">5</text>
     </g>
    </g>
    <g id="xtick_4">
     <g id="line2d_4">
      <g>
       <use xlink:href="#m7c728ec001" x="401.933483" y="228.96" style="fill: #262626; stroke: #262626; stroke-width: 0.8"/>
      </g>
     </g>
     <g id="text_4">
      <text style="font-size: 10px; font-family: 'Arial', 'DejaVu Sans', 'Liberation Sans', 'Bitstream Vera Sans', sans-serif; text-anchor: middle; fill: #262626" x="401.933483" y="243.117812" transform="rotate(-0 401.933483 243.117812)">10</text>
     </g>
    </g>
    <g id="xtick_5">
     <g id="line2d_5">
      <g>
       <use xlink:href="#m7c728ec001" x="463.23643" y="228.96" style="fill: #262626; stroke: #262626; stroke-width: 0.8"/>
      </g>
     </g>
     <g id="text_5">
      <text style="font-size: 10px; font-family: 'Arial', 'DejaVu Sans', 'Liberation Sans', 'Bitstream Vera Sans', sans-serif; text-anchor: middle; fill: #262626" x="463.23643" y="243.117812" transform="rotate(-0 463.23643 243.117812)">20</text>
     </g>
    </g>
    <g id="xtick_6">
     <g id="line2d_6">
      <g>
       <use xlink:href="#m7c728ec001" x="544.274517" y="228.96" style="fill: #262626; stroke: #262626; stroke-width: 0.8"/>
      </g>
     </g>
     <g id="text_6">
      <text style="font-size: 10px; font-family: 'Arial', 'DejaVu Sans', 'Liberation Sans', 'Bitstream Vera Sans', sans-serif; text-anchor: middle; fill: #262626" x="544.274517" y="243.117812" transform="rotate(-0 544.274517 243.117812)">50</text>
     </g>
    </g>
    <g id="xtick_7">
     <g id="line2d_7">
      <g>
       <use xlink:href="#m7c728ec001" x="605.577463" y="228.96" style="fill: #262626; stroke: #262626; stroke-width: 0.8"/>
      </g>
     </g>
     <g id="text_7">
      <text style="font-size: 10px; font-family: 'Arial', 'DejaVu Sans', 'Liberation Sans', 'Bitstream Vera Sans', sans-serif; text-anchor: middle; fill: #262626" x="605.577463" y="243.117812" transform="rotate(-0 605.577463 243.117812)">100</text>
     </g>
    </g>
    <g id="xtick_8">
     <g id="line2d_8">
      <g>
       <use xlink:href="#m7c728ec001" x="666.88041" y="228.96" style="fill: #262626; stroke: #262626; stroke-width: 0.8"/>
      </g>
     </g>
     <g id="text_8">
      <text style="font-size: 10px; font-family: 'Arial', 'DejaVu Sans', 'Liberation Sans', 'Bitstream Vera Sans', sans-serif; text-anchor: middle; fill: #262626" x="666.88041" y="243.117812" transform="rotate(-0 666.88041 243.117812)">200</text>
     </g>
    </g>
    <g id="xtick_9">
     <g id="line2d_9">
      <g>
       <use xlink:href="#m7c728ec001" x="747.918497" y="228.96" style="fill: #262626; stroke: #262626; stroke-width: 0.8"/>
      </g>
     </g>
     <g id="text_9">
      <text style="font-size: 10px; font-family: 'Arial', 'DejaVu Sans', 'Liberation Sans', 'Bitstream Vera Sans', sans-serif; text-anchor: middle; fill: #262626" x="747.918497" y="243.117812" transform="rotate(-0 747.918497 243.117812)">500</text>
     </g>
    </g>
    <g id="xtick_10">
     <g id="line2d_10">
      <g>
       <use xlink:href="#m7c728ec001" x="809.221444" y="228.96" style="fill: #262626; stroke: #262626; stroke-width: 0.8"/>
      </g>
     </g>
     <g id="text_10">
      <text style="font-size: 10px; font-family: 'Arial', 'DejaVu Sans', 'Liberation Sans', 'Bitstream Vera Sans', sans-serif; text-anchor: middle; fill: #262626" x="809.221444" y="243.117812" transform="rotate(-0 809.221444 243.117812)">1000</text>
     </g>
    </g>
    <g id="xtick_11">
     <g id="line2d_11">
      <defs>
       <path id="m89dc5b8069" d="M 0 0 
L 0 2 
" style="stroke: #262626; stroke-width: 0.6"/>
      </defs>
      <g>
       <use xlink:href="#m89dc5b8069" x="55.948469" y="228.96" style="fill: #262626; stroke: #262626; stroke-width: 0.6"/>
      </g>
     </g>
    </g>
    <g id="xtick_12">
     <g id="line2d_12">
      <g>
       <use xlink:href="#m89dc5b8069" x="91.808394" y="228.96" style="fill: #262626; stroke: #262626; stroke-width: 0.6"/>
      </g>
     </g>
    </g>
    <g id="xtick_13">
     <g id="line2d_13">
      <g>
       <use xlink:href="#m89dc5b8069" x="117.251415" y="228.96" style="fill: #262626; stroke: #262626; stroke-width: 0.6"/>
      </g>
     </g>
    </g>
    <g id="xtick_14">
     <g id="line2d_14">
      <g>
       <use xlink:href="#m89dc5b8069" x="136.986556" y="228.96" style="fill: #262626; stroke: #262626; stroke-width: 0.6"/>
      </g>
     </g>
    </g>
    <g id="xtick_15">
     <g id="line2d_15">
      <g>
       <use xlink:href="#m89dc5b8069" x="153.11134" y="228.96" style="fill: #262626; stroke: #262626; stroke-width: 0.6"/>
      </g>
     </g>
    </g>
    <g id="xtick_16">
     <g id="line2d_16">
      <g>
       <use xlink:href="#m89dc5b8069" x="166.744651" y="228.96" style="fill: #262626; stroke: #262626; stroke-width: 0.6"/>
      </g>
     </g>
    </g>
    <g id="xtick_17">
     <g id="line2d_17">
      <g>
       <use xlink:href="#m89dc5b8069" x="178.554362" y="228.96" style="fill: #262626; stroke: #262626; stroke-width: 0.6"/>
      </g>
     </g>
    </g>
    <g id="xtick_18">
     <g id="line2d_18">
      <g>
       <use xlink:href="#m89dc5b8069" x="188.971265" y="228.96" style="fill: #262626; stroke: #262626; stroke-width: 0.6"/>
      </g>
     </g>
    </g>
    <g id="xtick_19">
     <g id="line2d_19">
      <g>
       <use xlink:href="#m89dc5b8069" x="295.452374" y="228.96" style="fill: #262626; stroke: #262626; stroke-width: 0.6"/>
      </g>
     </g>
    </g>
    <g id="xtick_20">
     <g id="line2d_20">
      <g>
       <use xlink:href="#m89dc5b8069" x="320.895396" y="228.96" style="fill: #262626; stroke: #262626; stroke-width: 0.6"/>
      </g>
     </g>
    </g>
    <g id="xtick_21">
     <g id="line2d_21">
      <g>
       <use xlink:href="#m89dc5b8069" x="356.755321" y="228.96" style="fill: #262626; stroke: #262626; stroke-width: 0.6"/>
      </g>
     </g>
    </g>
    <g id="xtick_22">
     <g id="line2d_22">
      <g>
       <use xlink:href="#m89dc5b8069" x="370.388631" y="228.96" style="fill: #262626; stroke: #262626; stroke-width: 0.6"/>
      </g>
     </g>
    </g>
    <g id="xtick_23">
     <g id="line2d_23">
      <g>
       <use xlink:href="#m89dc5b8069" x="382.198342" y="228.96" style="fill: #262626; stroke: #262626; stroke-width: 0.6"/>
      </g>
     </g>
    </g>
    <g id="xtick_24">
     <g id="line2d_24">
      <g>
       <use xlink:href="#m89dc5b8069" x="392.615246" y="228.96" style="fill: #262626; stroke: #262626; stroke-width: 0.6"/>
      </g>
     </g>
    </g>
    <g id="xtick_25">
     <g id="line2d_25">
      <g>
       <use xlink:href="#m89dc5b8069" x="499.096354" y="228.96" style="fill: #262626; stroke: #262626; stroke-width: 0.6"/>
      </g>
     </g>
    </g>
    <g id="xtick_26">
     <g id="line2d_26">
      <g>
       <use xlink:href="#m89dc5b8069" x="524.539376" y="228.96" style="fill: #262626; stroke: #262626; stroke-width: 0.6"/>
      </g>
     </g>
    </g>
    <g id="xtick_27">
     <g id="line2d_27">
      <g>
       <use xlink:href="#m89dc5b8069" x="560.399301" y="228.96" style="fill: #262626; stroke: #262626; stroke-width: 0.6"/>
      </g>
     </g>
    </g>
    <g id="xtick_28">
     <g id="line2d_28">
      <g>
       <use xlink:href="#m89dc5b8069" x="574.032612" y="228.96" style="fill: #262626; stroke: #262626; stroke-width: 0.6"/>
      </g>
     </g>
    </g>
    <g id="xtick_29">
     <g id="line2d_29">
      <g>
       <use xlink:href="#m89dc5b8069" x="585.842323" y="228.96" style="fill: #262626; stroke: #262626; stroke-width: 0.6"/>
      </g>
     </g>
    </g>
    <g id="xtick_30">
     <g id="line2d_30">
      <g>
       <use xlink:href="#m89dc5b8069" x="596.259226" y="228.96" style="fill: #262626; stroke: #262626; stroke-width: 0.6"/>
      </g>
     </g>
    </g>
    <g id="xtick_31">
     <g id="line2d_31">
      <g>
       <use xlink:href="#m89dc5b8069" x="702.740335" y="228.96" style="fill: #262626; stroke: #262626; stroke-width: 0.6"/>
      </g>
     </g>
    </g>
    <g id="xtick_32">
     <g id="line2d_32">
      <g>
       <use xlink:href="#m89dc5b8069" x="728.183356" y="228.96" style="fill: #262626; stroke: #262626; stroke-width: 0.6"/>
      </g>
     </g>
    </g>
    <g id="xtick_33">
     <g id="line2d_33">
      <g>
       <use xlink:href="#m89dc5b8069" x="764.043281" y="228.96" style="fill: #262626; stroke: #262626; stroke-width: 0.6"/>
      </g>
     </g>
    </g>
    <g id="xtick_34">
     <g id="line2d_34">
      <g>
       <use xlink:href="#m89dc5b8069" x="777.676592" y="228.96" style="fill: #262626; stroke: #262626; stroke-width: 0.6"/>
      </g>
     </g>
    </g>
    <g id="xtick_35">
     <g id="line2d_35">
      <g>
       <use xlink:href="#m89dc5b8069" x="789.486303" y="228.96" style="fill: #262626; stroke: #262626; stroke-width: 0.6"/>
      </g>
     </g>
    </g>
    <g id="xtick_36">
     <g id="line2d_36">
      <g>
       <use xlink:href="#m89dc5b8069" x="799.903206" y="228.96" style="fill: #262626; stroke: #262626; stroke-width: 0.6"/>
      </g>
     </g>
    </g>
    <g id="text_11">
     <text style="font-size: 10px; font-family: 'Arial', 'DejaVu Sans', 'Liberation Sans', 'Bitstream Vera Sans', sans-serif; text-anchor: middle; fill: #262626" x="425.7" y="256.385" transform="rotate(-0 425.7 256.385)">Income or consumption (day)</text>
    </g>
   </g>
   <g id="matplotlib.axis_2"/>
   <g id="FillBetweenPolyCollection_1">
    <defs>
     <path id="me75df0587a" d="M 45.245455 -36.830239 
L 45.245455 -36.729688 
L 48.213198 -36.729688 
L 51.180941 -36.729688 
L 54.148684 -36.729688 
L 57.116427 -36.729688 
L 60.084171 -36.729688 
L 63.051914 -36.729688 
L 66.019657 -36.729688 
L 68.9874 -36.729688 
L 71.955143 -36.729688 
L 74.922887 -36.729688 
L 77.89063 -36.729688 
L 80.858373 -36.729688 
L 83.826116 -36.729688 
L 86.793859 -36.729688 
L 89.761603 -36.729688 
L 92.729346 -36.729688 
L 95.697089 -36.729688 
L 98.664832 -36.729688 
L 101.632575 -36.729688 
L 104.600319 -36.729688 
L 107.568062 -36.729688 
L 110.535805 -36.729688 
L 113.503548 -36.729688 
L 116.471291 -36.729688 
L 119.439035 -36.729688 
L 122.406778 -36.729688 
L 125.374521 -36.729688 
L 128.342264 -36.729688 
L 131.310007 -36.729688 
L 134.277751 -36.729688 
L 137.245494 -36.729688 
L 140.213237 -36.729688 
L 143.18098 -36.729688 
L 146.148723 -36.729688 
L 149.116467 -36.729688 
L 152.08421 -36.729688 
L 155.051953 -36.729688 
L 158.019696 -36.729688 
L 160.987439 -36.729688 
L 163.955183 -36.729688 
L 166.922926 -36.729688 
L 169.890669 -36.729688 
L 172.858412 -36.729688 
L 175.826155 -36.729688 
L 178.793899 -36.729688 
L 181.761642 -36.729688 
L 184.729385 -36.729688 
L 187.697128 -36.729688 
L 190.664871 -36.729688 
L 193.632615 -36.729688 
L 196.600358 -36.729688 
L 199.568101 -36.729688 
L 202.535844 -36.729688 
L 205.503587 -36.729688 
L 208.471331 -36.729688 
L 211.439074 -36.729688 
L 214.406817 -36.729688 
L 217.37456 -36.729688 
L 220.342303 -36.729688 
L 223.310047 -36.729688 
L 226.27779 -36.729688 
L 229.245533 -36.729688 
L 232.213276 -36.729688 
L 235.181019 -36.729688 
L 238.148763 -36.729688 
L 241.116506 -36.729688 
L 244.084249 -36.729688 
L 247.051992 -36.729688 
L 250.019735 -36.729688 
L 252.987479 -36.729688 
L 255.955222 -36.729688 
L 258.922965 -36.729688 
L 261.890708 -36.729688 
L 264.858451 -36.729688 
L 267.826195 -36.729688 
L 270.793938 -36.729688 
L 273.761681 -36.729688 
L 276.729424 -36.729688 
L 279.697167 -36.729688 
L 282.664911 -36.729688 
L 285.632654 -36.729688 
L 288.600397 -36.729688 
L 291.56814 -36.729688 
L 294.535883 -36.729688 
L 297.503627 -36.729688 
L 300.47137 -36.729688 
L 303.439113 -36.729688 
L 306.406856 -36.729688 
L 309.374599 -36.729688 
L 312.342343 -36.729688 
L 315.310086 -36.729688 
L 318.277829 -36.729688 
L 321.245572 -36.729688 
L 324.213315 -36.729688 
L 327.181059 -36.729688 
L 330.148802 -36.729688 
L 333.116545 -36.729688 
L 336.084288 -36.729688 
L 339.052031 -36.729688 
L 342.019775 -36.729688 
L 344.987518 -36.729688 
L 347.955261 -36.729688 
L 350.923004 -36.729688 
L 353.890747 -36.729688 
L 356.858491 -36.729688 
L 359.826234 -36.729688 
L 362.793977 -36.729688 
L 365.76172 -36.729688 
L 368.729463 -36.729688 
L 371.697207 -36.729688 
L 374.66495 -36.729688 
L 377.632693 -36.729688 
L 380.600436 -36.729688 
L 383.568179 -36.729688 
L 386.535923 -36.729688 
L 389.503666 -36.729688 
L 392.471409 -36.729688 
L 395.439152 -36.729688 
L 398.406895 -36.729688 
L 401.374639 -36.729688 
L 404.342382 -36.729688 
L 407.310125 -36.729688 
L 410.277868 -36.729688 
L 413.245611 -36.729688 
L 416.213355 -36.729688 
L 419.181098 -36.729688 
L 422.148841 -36.729688 
L 425.116584 -36.729688 
L 428.084327 -36.729688 
L 431.052071 -36.729688 
L 434.019814 -36.729688 
L 436.987557 -36.729688 
L 439.9553 -36.729688 
L 442.923043 -36.729688 
L 445.890787 -36.729688 
L 448.85853 -36.729688 
L 451.826273 -36.729688 
L 454.794016 -36.729688 
L 457.761759 -36.729688 
L 460.729503 -36.729688 
L 463.697246 -36.729688 
L 466.664989 -36.729688 
L 469.632732 -36.729688 
L 472.600475 -36.729688 
L 475.568219 -36.729688 
L 478.535962 -36.729688 
L 481.503705 -36.729688 
L 484.471448 -36.729688 
L 487.439191 -36.729688 
L 490.406935 -36.729688 
L 493.374678 -36.729688 
L 496.342421 -36.729688 
L 499.310164 -36.729688 
L 502.277907 -36.729688 
L 505.245651 -36.729688 
L 508.213394 -36.729688 
L 511.181137 -36.729688 
L 514.14888 -36.729688 
L 517.116623 -36.729688 
L 520.084367 -36.729688 
L 523.05211 -36.729688 
L 526.019853 -36.729688 
L 528.987596 -36.729688 
L 531.955339 -36.729688 
L 534.923083 -36.729688 
L 537.890826 -36.729688 
L 540.858569 -36.729688 
L 543.826312 -36.729688 
L 546.794055 -36.729688 
L 549.761799 -36.729688 
L 552.729542 -36.729688 
L 555.697285 -36.729688 
L 558.665028 -36.729688 
L 561.632771 -36.729688 
L 564.600515 -36.729688 
L 567.568258 -36.729688 
L 570.536001 -36.729688 
L 573.503744 -36.729688 
L 576.471487 -36.729688 
L 579.439231 -36.729688 
L 582.406974 -36.729688 
L 585.374717 -36.729688 
L 588.34246 -36.729688 
L 591.310203 -36.729688 
L 594.277947 -36.729688 
L 597.24569 -36.729688 
L 600.213433 -36.729688 
L 603.181176 -36.729688 
L 606.148919 -36.729688 
L 609.116663 -36.729688 
L 612.084406 -36.729688 
L 615.052149 -36.729688 
L 618.019892 -36.729688 
L 620.987635 -36.729688 
L 623.955379 -36.729688 
L 626.923122 -36.729688 
L 629.890865 -36.729688 
L 632.858608 -36.729688 
L 635.826351 -36.729688 
L 635.826351 -36.735332 
L 635.826351 -36.735332 
L 632.858608 -36.739127 
L 629.890865 -36.744987 
L 626.923122 -36.753725 
L 623.955379 -36.766294 
L 620.987635 -36.783724 
L 618.019892 -36.807004 
L 615.052149 -36.836917 
L 612.084406 -36.873838 
L 609.116663 -36.917522 
L 606.148919 -36.966931 
L 603.181176 -37.020138 
L 600.213433 -37.074362 
L 597.24569 -37.126152 
L 594.277947 -37.171724 
L 591.310203 -37.207405 
L 588.34246 -37.230116 
L 585.374717 -37.237815 
L 582.406974 -37.229793 
L 579.439231 -37.206787 
L 576.471487 -37.170867 
L 573.503744 -37.125127 
L 570.536001 -37.073249 
L 567.568258 -37.019013 
L 564.600515 -36.96586 
L 561.632771 -36.916554 
L 558.665028 -36.873003 
L 555.697285 -36.836232 
L 552.729542 -36.80647 
L 549.761799 -36.783337 
L 546.794055 -36.766055 
L 543.826312 -36.753651 
L 540.858569 -36.745129 
L 537.890826 -36.739604 
L 534.923083 -36.736374 
L 531.955339 -36.734982 
L 528.987596 -36.735239 
L 526.019853 -36.737252 
L 523.05211 -36.741456 
L 520.084367 -36.748644 
L 517.116623 -36.76 
L 514.14888 -36.777128 
L 511.181137 -36.802031 
L 508.213394 -36.837057 
L 505.245651 -36.884763 
L 502.277907 -36.947701 
L 499.310164 -37.028127 
L 496.342421 -37.127664 
L 493.374678 -37.246955 
L 490.406935 -37.385379 
L 487.439191 -37.540902 
L 484.471448 -37.710126 
L 481.503705 -37.888579 
L 478.535962 -38.071242 
L 475.568219 -38.253272 
L 472.600475 -38.430806 
L 469.632732 -38.601714 
L 466.664989 -38.766149 
L 463.697246 -38.926758 
L 460.729503 -39.088483 
L 457.761759 -39.257942 
L 454.794016 -39.442484 
L 451.826273 -39.649077 
L 448.85853 -39.883232 
L 445.890787 -40.148165 
L 442.923043 -40.444362 
L 439.9553 -40.76962 
L 436.987557 -41.119544 
L 434.019814 -41.488388 
L 431.052071 -41.87006 
L 428.084327 -42.259117 
L 425.116584 -42.651571 
L 422.148841 -43.045404 
L 419.181098 -43.440786 
L 416.213355 -43.84 
L 413.245611 -44.247186 
L 410.277868 -44.667971 
L 407.310125 -45.109061 
L 404.342382 -45.577832 
L 401.374639 -46.08193 
L 398.406895 -46.628851 
L 395.439152 -47.225513 
L 392.471409 -47.877813 
L 389.503666 -48.590221 
L 386.535923 -49.365473 
L 383.568179 -50.204464 
L 380.600436 -51.106413 
L 377.632693 -52.069363 
L 374.66495 -53.091014 
L 371.697207 -54.169791 
L 368.729463 -55.306002 
L 365.76172 -56.502823 
L 362.793977 -57.766872 
L 359.826234 -59.108148 
L 356.858491 -60.539219 
L 353.890747 -62.073721 
L 350.923004 -63.724394 
L 347.955261 -65.50101 
L 344.987518 -67.408622 
L 342.019775 -69.446499 
L 339.052031 -71.607982 
L 336.084288 -73.881287 
L 333.116545 -76.251115 
L 330.148802 -78.700763 
L 327.181059 -81.214393 
L 324.213315 -83.77914 
L 321.245572 -86.386783 
L 318.277829 -89.034808 
L 315.310086 -91.72671 
L 312.342343 -94.471487 
L 309.374599 -97.282261 
L 306.406856 -100.174142 
L 303.439113 -103.161511 
L 300.47137 -106.255116 
L 297.503627 -109.45948 
L 294.535883 -112.771131 
L 291.56814 -116.178088 
L 288.600397 -119.66076 
L 285.632654 -123.194089 
L 282.664911 -126.750477 
L 279.697167 -130.302823 
L 276.729424 -133.826996 
L 273.761681 -137.30326 
L 270.793938 -140.71644 
L 267.826195 -144.054994 
L 264.858451 -147.30936 
L 261.890708 -150.470068 
L 258.922965 -153.526034 
L 255.955222 -156.46325 
L 252.987479 -159.263923 
L 250.019735 -161.905933 
L 247.051992 -164.362491 
L 244.084249 -166.601984 
L 241.116506 -168.588119 
L 238.148763 -170.280618 
L 235.181019 -171.636728 
L 232.213276 -172.613676 
L 229.245533 -173.171963 
L 226.27779 -173.279115 
L 223.310047 -172.913309 
L 220.342303 -172.066241 
L 217.37456 -170.744672 
L 214.406817 -168.970359 
L 211.439074 -166.778373 
L 208.471331 -164.214065 
L 205.503587 -161.329162 
L 202.535844 -158.177541 
L 199.568101 -154.811235 
L 196.600358 -151.277158 
L 193.632615 -147.614892 
L 190.664871 -143.855779 
L 187.697128 -140.023349 
L 184.729385 -136.134932 
L 181.761642 -132.204101 
L 178.793899 -128.243387 
L 175.826155 -124.266671 
L 172.858412 -120.29068 
L 169.890669 -116.335223 
L 166.922926 -112.422116 
L 163.955183 -108.573081 
L 160.987439 -104.807201 
L 158.019696 -101.138639 
L 155.051953 -97.575294 
L 152.08421 -94.118837 
L 149.116467 -90.766225 
L 146.148723 -87.512423 
L 143.18098 -84.35373 
L 140.213237 -81.290963 
L 137.245494 -78.331713 
L 134.277751 -75.491074 
L 131.310007 -72.790498 
L 128.342264 -70.254836 
L 125.374521 -67.907934 
L 122.406778 -65.767514 
L 119.439035 -63.84027 
L 116.471291 -62.118182 
L 113.503548 -60.576939 
L 110.535805 -59.177049 
L 107.568062 -57.867782 
L 104.600319 -56.593483 
L 101.632575 -55.301297 
L 98.664832 -53.948948 
L 95.697089 -52.511109 
L 92.729346 -50.983112 
L 89.761603 -49.381291 
L 86.793859 -47.739898 
L 83.826116 -46.105298 
L 80.858373 -44.528618 
L 77.89063 -43.058316 
L 74.922887 -41.733952 
L 71.955143 -40.58212 
L 68.9874 -39.614886 
L 66.019657 -38.830582 
L 63.051914 -38.216342 
L 60.084171 -37.751618 
L 57.116427 -37.411864 
L 54.148684 -37.171787 
L 51.180941 -37.007784 
L 48.213198 -36.89945 
L 45.245455 -36.830239 
z
" style="stroke: #dd8452"/>
    </defs>
    <g>
     <use xlink:href="#me75df0587a" x="0" y="265.689687" style="fill: #dd8452; fill-opacity: 0.25; stroke: #dd8452"/>
    </g>
   </g>
   <g id="FillBetweenPolyCollection_2">
    <defs>
     <path id="m2979cc1411" d="M 52.301218 -36.737586 
L 52.301218 -36.729688 
L 56.089426 -36.729688 
L 59.877634 -36.729688 
L 63.665841 -36.729688 
L 67.454049 -36.729688 
L 71.242257 -36.729688 
L 75.030464 -36.729688 
L 78.818672 -36.729688 
L 82.60688 -36.729688 
L 86.395087 -36.729688 
L 90.183295 -36.729688 
L 93.971503 -36.729688 
L 97.75971 -36.729688 
L 101.547918 -36.729688 
L 105.336126 -36.729688 
L 109.124333 -36.729688 
L 112.912541 -36.729688 
L 116.700749 -36.729688 
L 120.488956 -36.729688 
L 124.277164 -36.729688 
L 128.065372 -36.729688 
L 131.853579 -36.729688 
L 135.641787 -36.729688 
L 139.429995 -36.729688 
L 143.218202 -36.729688 
L 147.00641 -36.729688 
L 150.794618 -36.729688 
L 154.582825 -36.729688 
L 158.371033 -36.729688 
L 162.159241 -36.729688 
L 165.947448 -36.729688 
L 169.735656 -36.729688 
L 173.523864 -36.729688 
L 177.312072 -36.729688 
L 181.100279 -36.729688 
L 184.888487 -36.729688 
L 188.676695 -36.729688 
L 192.464902 -36.729688 
L 196.25311 -36.729688 
L 200.041318 -36.729688 
L 203.829525 -36.729688 
L 207.617733 -36.729688 
L 211.405941 -36.729688 
L 215.194148 -36.729688 
L 218.982356 -36.729688 
L 222.770564 -36.729688 
L 226.558771 -36.729688 
L 230.346979 -36.729688 
L 234.135187 -36.729688 
L 237.923394 -36.729688 
L 241.711602 -36.729688 
L 245.49981 -36.729688 
L 249.288017 -36.729688 
L 253.076225 -36.729688 
L 256.864433 -36.729688 
L 260.65264 -36.729688 
L 264.440848 -36.729688 
L 268.229056 -36.729688 
L 272.017263 -36.729688 
L 275.805471 -36.729688 
L 279.593679 -36.729688 
L 283.381886 -36.729688 
L 287.170094 -36.729688 
L 290.958302 -36.729688 
L 294.746509 -36.729688 
L 298.534717 -36.729688 
L 302.322925 -36.729688 
L 306.111132 -36.729688 
L 309.89934 -36.729688 
L 313.687548 -36.729688 
L 317.475755 -36.729688 
L 321.263963 -36.729688 
L 325.052171 -36.729688 
L 328.840378 -36.729688 
L 332.628586 -36.729688 
L 336.416794 -36.729688 
L 340.205002 -36.729688 
L 343.993209 -36.729688 
L 347.781417 -36.729688 
L 351.569625 -36.729688 
L 355.357832 -36.729688 
L 359.14604 -36.729688 
L 362.934248 -36.729688 
L 366.722455 -36.729688 
L 370.510663 -36.729688 
L 374.298871 -36.729688 
L 378.087078 -36.729688 
L 381.875286 -36.729688 
L 385.663494 -36.729688 
L 389.451701 -36.729688 
L 393.239909 -36.729688 
L 397.028117 -36.729688 
L 400.816324 -36.729688 
L 404.604532 -36.729688 
L 408.39274 -36.729688 
L 412.180947 -36.729688 
L 415.969155 -36.729688 
L 419.757363 -36.729688 
L 423.54557 -36.729688 
L 427.333778 -36.729688 
L 431.121986 -36.729688 
L 434.910193 -36.729688 
L 438.698401 -36.729688 
L 442.486609 -36.729688 
L 446.274816 -36.729688 
L 450.063024 -36.729688 
L 453.851232 -36.729688 
L 457.639439 -36.729688 
L 461.427647 -36.729688 
L 465.215855 -36.729688 
L 469.004062 -36.729688 
L 472.79227 -36.729688 
L 476.580478 -36.729688 
L 480.368685 -36.729688 
L 484.156893 -36.729688 
L 487.945101 -36.729688 
L 491.733308 -36.729688 
L 495.521516 -36.729688 
L 499.309724 -36.729688 
L 503.097932 -36.729688 
L 506.886139 -36.729688 
L 510.674347 -36.729688 
L 514.462555 -36.729688 
L 518.250762 -36.729688 
L 522.03897 -36.729688 
L 525.827178 -36.729688 
L 529.615385 -36.729688 
L 533.403593 -36.729688 
L 537.191801 -36.729688 
L 540.980008 -36.729688 
L 544.768216 -36.729688 
L 548.556424 -36.729688 
L 552.344631 -36.729688 
L 556.132839 -36.729688 
L 559.921047 -36.729688 
L 563.709254 -36.729688 
L 567.497462 -36.729688 
L 571.28567 -36.729688 
L 575.073877 -36.729688 
L 578.862085 -36.729688 
L 582.650293 -36.729688 
L 586.4385 -36.729688 
L 590.226708 -36.729688 
L 594.014916 -36.729688 
L 597.803123 -36.729688 
L 601.591331 -36.729688 
L 605.379539 -36.729688 
L 609.167746 -36.729688 
L 612.955954 -36.729688 
L 616.744162 -36.729688 
L 620.532369 -36.729688 
L 624.320577 -36.729688 
L 628.108785 -36.729688 
L 631.896992 -36.729688 
L 635.6852 -36.729688 
L 639.473408 -36.729688 
L 643.261615 -36.729688 
L 647.049823 -36.729688 
L 650.838031 -36.729688 
L 654.626238 -36.729688 
L 658.414446 -36.729688 
L 662.202654 -36.729688 
L 665.990862 -36.729688 
L 669.779069 -36.729688 
L 673.567277 -36.729688 
L 677.355485 -36.729688 
L 681.143692 -36.729688 
L 684.9319 -36.729688 
L 688.720108 -36.729688 
L 692.508315 -36.729688 
L 696.296523 -36.729688 
L 700.084731 -36.729688 
L 703.872938 -36.729688 
L 707.661146 -36.729688 
L 711.449354 -36.729688 
L 715.237561 -36.729688 
L 719.025769 -36.729688 
L 722.813977 -36.729688 
L 726.602184 -36.729688 
L 730.390392 -36.729688 
L 734.1786 -36.729688 
L 737.966807 -36.729688 
L 741.755015 -36.729688 
L 745.543223 -36.729688 
L 749.33143 -36.729688 
L 753.119638 -36.729688 
L 756.907846 -36.729688 
L 760.696053 -36.729688 
L 764.484261 -36.729688 
L 768.272469 -36.729688 
L 772.060676 -36.729688 
L 775.848884 -36.729688 
L 779.637092 -36.729688 
L 783.425299 -36.729688 
L 787.213507 -36.729688 
L 791.001715 -36.729688 
L 794.789922 -36.729688 
L 798.57813 -36.729688 
L 802.366338 -36.729688 
L 806.154545 -36.729688 
L 806.154545 -36.737586 
L 806.154545 -36.737586 
L 802.366338 -36.749045 
L 798.57813 -36.772638 
L 794.789922 -36.815962 
L 791.001715 -36.886579 
L 787.213507 -36.987984 
L 783.425299 -37.11467 
L 779.637092 -37.249172 
L 775.848884 -37.364329 
L 772.060676 -37.431732 
L 768.272469 -37.43319 
L 764.484261 -37.369201 
L 760.696053 -37.259564 
L 756.907846 -37.136092 
L 753.119638 -37.032074 
L 749.33143 -36.974095 
L 745.543223 -36.978733 
L 741.755015 -37.052868 
L 737.966807 -37.195009 
L 734.1786 -37.396656 
L 730.390392 -37.644627 
L 726.602184 -37.925104 
L 722.813977 -38.227909 
L 719.025769 -38.548048 
L 715.237561 -38.883201 
L 711.449354 -39.229626 
L 707.661146 -39.581094 
L 703.872938 -39.933272 
L 700.084731 -40.290897 
L 696.296523 -40.671895 
L 692.508315 -41.104795 
L 688.720108 -41.621829 
L 684.9319 -42.254555 
L 681.143692 -43.036828 
L 677.355485 -44.012592 
L 673.567277 -45.23983 
L 669.779069 -46.783905 
L 665.990862 -48.703226 
L 662.202654 -51.039316 
L 658.414446 -53.822755 
L 654.626238 -57.09471 
L 650.838031 -60.929908 
L 647.049823 -65.442354 
L 643.261615 -70.763791 
L 639.473408 -77.000784 
L 635.6852 -84.189074 
L 631.896992 -92.266902 
L 628.108785 -101.08178 
L 624.320577 -110.431432 
L 620.532369 -120.124379 
L 616.744162 -130.034466 
L 612.955954 -140.122554 
L 609.167746 -150.411373 
L 605.379539 -160.923249 
L 601.591331 -171.612775 
L 597.803123 -182.331377 
L 594.014916 -192.841866 
L 590.226708 -202.870903 
L 586.4385 -212.168614 
L 582.650293 -220.549208 
L 578.862085 -227.904279 
L 575.073877 -234.192281 
L 571.28567 -239.406934 
L 567.497462 -243.525293 
L 563.709254 -246.444347 
L 559.921047 -247.929688 
L 556.132839 -247.607041 
L 552.344631 -245.018343 
L 548.556424 -239.74122 
L 544.768216 -231.54228 
L 540.980008 -220.510731 
L 537.191801 -207.112957 
L 533.403593 -192.131711 
L 529.615385 -176.501279 
L 525.827178 -161.098176 
L 522.03897 -146.567327 
L 518.250762 -133.244494 
L 514.462555 -121.188897 
L 510.674347 -110.291864 
L 506.886139 -100.402406 
L 503.097932 -91.418105 
L 499.309724 -83.318295 
L 495.521516 -76.145295 
L 491.733308 -69.954678 
L 487.945101 -64.759299 
L 484.156893 -60.491325 
L 480.368685 -57.001437 
L 476.580478 -54.099057 
L 472.79227 -51.614308 
L 469.004062 -49.446995 
L 465.215855 -47.574614 
L 461.427647 -46.018125 
L 457.639439 -44.791226 
L 453.851232 -43.866476 
L 450.063024 -43.175886 
L 446.274816 -42.638152 
L 442.486609 -42.188733 
L 438.698401 -41.792071 
L 434.910193 -41.432118 
L 431.121986 -41.093599 
L 427.333778 -40.750617 
L 423.54557 -40.37098 
L 419.757363 -39.932391 
L 415.969155 -39.439237 
L 412.180947 -38.929326 
L 408.39274 -38.466367 
L 404.604532 -38.121569 
L 400.816324 -37.952458 
L 397.028117 -37.986878 
L 393.239909 -38.216223 
L 389.451701 -38.597488 
L 385.663494 -39.061306 
L 381.875286 -39.52346 
L 378.087078 -39.898699 
L 374.298871 -40.115953 
L 370.510663 -40.132594 
L 366.722455 -39.943513 
L 362.934248 -39.581016 
L 359.14604 -39.104761 
L 355.357832 -38.58533 
L 351.569625 -38.087433 
L 347.781417 -37.657924 
L 343.993209 -37.320887 
L 340.205002 -37.079272 
L 336.416794 -36.920907 
L 332.628586 -36.826097 
L 328.840378 -36.774343 
L 325.052171 -36.748638 
L 321.263963 -36.737053 
L 317.475755 -36.732366 
L 313.687548 -36.73082 
L 309.89934 -36.730912 
L 306.111132 -36.732682 
L 302.322925 -36.73763 
L 298.534717 -36.74911 
L 294.746509 -36.772758 
L 290.958302 -36.816171 
L 287.170094 -36.8869 
L 283.381886 -36.988415 
L 279.593679 -37.115167 
L 275.805471 -37.249637 
L 272.017263 -37.364613 
L 268.229056 -37.431605 
L 264.440848 -37.432195 
L 260.65264 -37.366216 
L 256.864433 -37.251826 
L 253.076225 -37.117441 
L 249.288017 -36.990379 
L 245.49981 -36.888359 
L 241.711602 -36.81712 
L 237.923394 -36.773304 
L 234.135187 -36.749386 
L 230.346979 -36.737741 
L 226.558771 -36.732669 
L 222.770564 -36.730687 
L 218.982356 -36.729991 
L 215.194148 -36.729771 
L 211.405941 -36.729708 
L 207.617733 -36.729692 
L 203.829525 -36.729688 
L 200.041318 -36.729688 
L 196.25311 -36.729688 
L 192.464902 -36.729688 
L 188.676695 -36.729688 
L 184.888487 -36.729688 
L 181.100279 -36.729688 
L 177.312072 -36.729688 
L 173.523864 -36.729688 
L 169.735656 -36.729688 
L 165.947448 -36.729688 
L 162.159241 -36.729688 
L 158.371033 -36.729688 
L 154.582825 -36.729688 
L 150.794618 -36.729688 
L 147.00641 -36.729692 
L 143.218202 -36.729708 
L 139.429995 -36.729771 
L 135.641787 -36.729992 
L 131.853579 -36.730691 
L 128.065372 -36.73268 
L 124.277164 -36.73777 
L 120.488956 -36.749448 
L 116.700749 -36.773425 
L 112.912541 -36.81733 
L 109.124333 -36.888682 
L 105.336126 -36.990812 
L 101.547918 -37.117942 
L 97.75971 -37.252307 
L 93.971503 -37.366567 
L 90.183295 -37.432323 
L 86.395087 -37.431473 
L 82.60688 -37.364259 
L 78.818672 -37.249154 
L 75.030464 -37.114667 
L 71.242257 -36.987984 
L 67.454049 -36.886579 
L 63.665841 -36.815962 
L 59.877634 -36.772638 
L 56.089426 -36.749045 
L 52.301218 -36.737586 
z
" style="stroke: #4c72b0"/>
    </defs>
    <g>
     <use xlink:href="#m2979cc1411" x="0" y="265.689687" style="fill: #4c72b0; fill-opacity: 0.25; stroke: #4c72b0"/>
    </g>
   </g>
   <g id="line2d_37">
    <path d="M 295.452374 228.96 
L 295.452374 7.2 
" style="fill: none; stroke-dasharray: 2.96,1.28; stroke-dashoffset: 0; stroke: #d3d3d3; stroke-width: 0.8"/>
   </g>
   <g id="line2d_38">
    <path d="M 470.403221 228.96 
L 470.403221 7.2 
" style="fill: none; stroke-dasharray: 2.96,1.28; stroke-dashoffset: 0; stroke: #d3d3d3; stroke-width: 0.8"/>
   </g>
   <g id="line2d_39">
    <path d="M 395.989447 228.96 
L 395.989447 7.2 
" style="fill: none; stroke-dasharray: 2.96,1.28; stroke-dashoffset: 0; stroke: #d3d3d3; stroke-width: 0.8"/>
   </g>
   <g id="line2d_40">
    <path d="M 7.2 228.96 
L 844.2 228.96 
" style="fill: none; stroke: #808080; stroke-width: 0.5; stroke-linecap: round"/>
   </g>
   <g id="text_12">
    <text style="font-size: 8px; font-family: 'Arial', 'DejaVu Sans', 'Liberation Sans', 'Bitstream Vera Sans', sans-serif; fill: #808080" transform="translate(301.706124 124.59635) rotate(-90)">International Poverty Line: $3.00</text>
   </g>
   <g id="text_13">
    <text style="font-size: 8px; font-family: 'Arial', 'DejaVu Sans', 'Liberation Sans', 'Bitstream Vera Sans', sans-serif; fill: #808080" transform="translate(476.129471 81.31135) rotate(-90)">World mean: $21.69</text>
   </g>
   <g id="text_14">
    <text style="font-size: 8px; font-family: 'Arial', 'DejaVu Sans', 'Liberation Sans', 'Bitstream Vera Sans', sans-serif; fill: #808080" transform="translate(401.715697 83.08885) rotate(-90)">World median: $9.35</text>
   </g>
   <g id="legend_1">
    <g id="patch_3">
     <path d="M 683.8 102.466062 
L 851.4125 102.466062 
Q 853.4125 102.466062 853.4125 100.466062 
L 853.4125 58.552 
Q 853.4125 56.552 851.4125 56.552 
L 683.8 56.552 
Q 681.8 56.552 681.8 58.552 
L 681.8 100.466062 
Q 681.8 102.466062 683.8 102.466062 
z
" style="fill: #ffffff; opacity: 0.8; stroke: #cccccc; stroke-linejoin: miter"/>
    </g>
    <g id="text_15">
     <text style="font-size: 10px; font-family: 'Arial', 'DejaVu Sans', 'Liberation Sans', 'Bitstream Vera Sans', sans-serif; text-anchor: start; fill: #262626" x="750.1" y="67.831687" transform="rotate(-0 750.1 67.831687)">Country</text>
    </g>
    <g id="patch_4">
     <path d="M 685.8 82.094187 
L 705.8 82.094187 
L 705.8 75.094187 
L 685.8 75.094187 
z
" style="fill: #4c72b0; fill-opacity: 0.25; stroke: #4c72b0; stroke-linejoin: miter"/>
    </g>
    <g id="text_16">
     <text style="font-size: 10px; font-family: 'Arial', 'DejaVu Sans', 'Liberation Sans', 'Bitstream Vera Sans', sans-serif; text-anchor: start; fill: #262626" x="713.8" y="82.094187" transform="rotate(-0 713.8 82.094187)">Denmark</text>
    </g>
    <g id="patch_5">
     <path d="M 685.8 96.361375 
L 705.8 96.361375 
L 705.8 89.361375 
L 685.8 89.361375 
z
" style="fill: #dd8452; fill-opacity: 0.25; stroke: #dd8452; stroke-linejoin: miter"/>
    </g>
    <g id="text_17">
     <text style="font-size: 10px; font-family: 'Arial', 'DejaVu Sans', 'Liberation Sans', 'Bitstream Vera Sans', sans-serif; text-anchor: start; fill: #262626" x="713.8" y="96.361375" transform="rotate(-0 713.8 96.361375)">Democratic Republic of Congo</text>
    </g>
   </g>
  </g>
 </g>
</svg>
