<?xml version="1.0" encoding="utf-8" standalone="no"?>
<!DOCTYPE svg PUBLIC "-//W3C//DTD SVG 1.1//EN"
  "http://www.w3.org/Graphics/SVG/1.1/DTD/svg11.dtd">
<svg xmlns:xlink="http://www.w3.org/1999/xlink" width="1080pt" height="540pt" viewBox="0 0 1080 540" xmlns="http://www.w3.org/2000/svg" version="1.1">
 <metadata>
  <rdf:RDF xmlns:dc="http://purl.org/dc/elements/1.1/" xmlns:cc="http://creativecommons.org/ns#" xmlns:rdf="http://www.w3.org/1999/02/22-rdf-syntax-ns#">
   <cc:Work>
    <dc:type rdf:resource="http://purl.org/dc/dcmitype/StillImage"/>
    <dc:date>2025-03-25T12:18:08.814613</dc:date>
    <dc:format>image/svg+xml</dc:format>
    <dc:creator>
     <cc:Agent>
      <dc:title>Matplotlib v3.10.1, https://matplotlib.org/</dc:title>
     </cc:Agent>
    </dc:creator>
   </cc:Work>
  </rdf:RDF>
 </metadata>
 <defs>
  <style type="text/css">*{stroke-linejoin: round; stroke-linecap: butt}</style>
 </defs>
 <g id="figure_1">
  <g id="patch_1">
   <path d="M 0 540 
L 1080 540 
L 1080 0 
L 0 0 
z
" style="fill: #ffffff"/>
  </g>
  <g id="axes_1">
   <g id="patch_2">
    <path d="M 135 480.6 
L 972 480.6 
L 972 64.8 
L 135 64.8 
z
" style="fill: #ffffff"/>
   </g>
   <g id="matplotlib.axis_1">
    <g id="xtick_1">
     <g id="line2d_1">
      <defs>
       <path id="m4252a1e59f" d="M 0 0 
L 0 3.5 
" style="stroke: #262626; stroke-width: 0.8"/>
      </defs>
      <g>
       <use xlink:href="#m4252a1e59f" x="326.780033" y="480.6" style="fill: #262626; stroke: #262626; stroke-width: 0.8"/>
      </g>
     </g>
     <g id="text_1">
      <!-- 1 -->
      <g style="fill: #262626" transform="translate(323.999565 494.757812) scale(0.1 -0.1)">
       <defs>
        <path id="ArialMT-31" d="M 2384 0 
L 1822 0 
L 1822 3584 
Q 1619 3391 1289 3197 
Q 959 3003 697 2906 
L 697 3450 
Q 1169 3672 1522 3987 
Q 1875 4303 2022 4600 
L 2384 4600 
L 2384 0 
z
" transform="scale(0.015625)"/>
       </defs>
       <use xlink:href="#ArialMT-31"/>
      </g>
     </g>
    </g>
    <g id="xtick_2">
     <g id="line2d_2">
      <g>
       <use xlink:href="#m4252a1e59f" x="386.94023" y="480.6" style="fill: #262626; stroke: #262626; stroke-width: 0.8"/>
      </g>
     </g>
     <g id="text_2">
      <!-- 2 -->
      <g style="fill: #262626" transform="translate(384.159762 494.757812) scale(0.1 -0.1)">
       <defs>
        <path id="ArialMT-32" d="M 3222 541 
L 3222 0 
L 194 0 
Q 188 203 259 391 
Q 375 700 629 1000 
Q 884 1300 1366 1694 
Q 2113 2306 2375 2664 
Q 2638 3022 2638 3341 
Q 2638 3675 2398 3904 
Q 2159 4134 1775 4134 
Q 1369 4134 1125 3890 
Q 881 3647 878 3216 
L 300 3275 
Q 359 3922 746 4261 
Q 1134 4600 1788 4600 
Q 2447 4600 2831 4234 
Q 3216 3869 3216 3328 
Q 3216 3053 3103 2787 
Q 2991 2522 2730 2228 
Q 2469 1934 1863 1422 
Q 1356 997 1212 845 
Q 1069 694 975 541 
L 3222 541 
z
" transform="scale(0.015625)"/>
       </defs>
       <use xlink:href="#ArialMT-32"/>
      </g>
     </g>
    </g>
    <g id="xtick_3">
     <g id="line2d_3">
      <g>
       <use xlink:href="#m4252a1e59f" x="466.467685" y="480.6" style="fill: #262626; stroke: #262626; stroke-width: 0.8"/>
      </g>
     </g>
     <g id="text_3">
      <!-- 5 -->
      <g style="fill: #262626" transform="translate(463.687216 494.757812) scale(0.1 -0.1)">
       <defs>
        <path id="ArialMT-35" d="M 266 1200 
L 856 1250 
Q 922 819 1161 601 
Q 1400 384 1738 384 
Q 2144 384 2425 690 
Q 2706 997 2706 1503 
Q 2706 1984 2436 2262 
Q 2166 2541 1728 2541 
Q 1456 2541 1237 2417 
Q 1019 2294 894 2097 
L 366 2166 
L 809 4519 
L 3088 4519 
L 3088 3981 
L 1259 3981 
L 1013 2750 
Q 1425 3038 1878 3038 
Q 2478 3038 2890 2622 
Q 3303 2206 3303 1553 
Q 3303 931 2941 478 
Q 2500 -78 1738 -78 
Q 1113 -78 717 272 
Q 322 622 266 1200 
z
" transform="scale(0.015625)"/>
       </defs>
       <use xlink:href="#ArialMT-35"/>
      </g>
     </g>
    </g>
    <g id="xtick_4">
     <g id="line2d_4">
      <g>
       <use xlink:href="#m4252a1e59f" x="526.627882" y="480.6" style="fill: #262626; stroke: #262626; stroke-width: 0.8"/>
      </g>
     </g>
     <g id="text_4">
      <!-- 10 -->
      <g style="fill: #262626" transform="translate(521.066944 494.757812) scale(0.1 -0.1)">
       <defs>
        <path id="ArialMT-30" d="M 266 2259 
Q 266 3072 433 3567 
Q 600 4063 929 4331 
Q 1259 4600 1759 4600 
Q 2128 4600 2406 4451 
Q 2684 4303 2865 4023 
Q 3047 3744 3150 3342 
Q 3253 2941 3253 2259 
Q 3253 1453 3087 958 
Q 2922 463 2592 192 
Q 2263 -78 1759 -78 
Q 1097 -78 719 397 
Q 266 969 266 2259 
z
M 844 2259 
Q 844 1131 1108 757 
Q 1372 384 1759 384 
Q 2147 384 2411 759 
Q 2675 1134 2675 2259 
Q 2675 3391 2411 3762 
Q 2147 4134 1753 4134 
Q 1366 4134 1134 3806 
Q 844 3388 844 2259 
z
" transform="scale(0.015625)"/>
       </defs>
       <use xlink:href="#ArialMT-31"/>
       <use xlink:href="#ArialMT-30" transform="translate(55.615234 0)"/>
      </g>
     </g>
    </g>
    <g id="xtick_5">
     <g id="line2d_5">
      <g>
       <use xlink:href="#m4252a1e59f" x="586.788079" y="480.6" style="fill: #262626; stroke: #262626; stroke-width: 0.8"/>
      </g>
     </g>
     <g id="text_5">
      <!-- 20 -->
      <g style="fill: #262626" transform="translate(581.227141 494.757812) scale(0.1 -0.1)">
       <use xlink:href="#ArialMT-32"/>
       <use xlink:href="#ArialMT-30" transform="translate(55.615234 0)"/>
      </g>
     </g>
    </g>
    <g id="xtick_6">
     <g id="line2d_6">
      <g>
       <use xlink:href="#m4252a1e59f" x="666.315534" y="480.6" style="fill: #262626; stroke: #262626; stroke-width: 0.8"/>
      </g>
     </g>
     <g id="text_6">
      <!-- 50 -->
      <g style="fill: #262626" transform="translate(660.754596 494.757812) scale(0.1 -0.1)">
       <use xlink:href="#ArialMT-35"/>
       <use xlink:href="#ArialMT-30" transform="translate(55.615234 0)"/>
      </g>
     </g>
    </g>
    <g id="xtick_7">
     <g id="line2d_7">
      <g>
       <use xlink:href="#m4252a1e59f" x="726.47573" y="480.6" style="fill: #262626; stroke: #262626; stroke-width: 0.8"/>
      </g>
     </g>
     <g id="text_7">
      <!-- 100 -->
      <g style="fill: #262626" transform="translate(718.134324 494.757812) scale(0.1 -0.1)">
       <use xlink:href="#ArialMT-31"/>
       <use xlink:href="#ArialMT-30" transform="translate(55.615234 0)"/>
       <use xlink:href="#ArialMT-30" transform="translate(111.230469 0)"/>
      </g>
     </g>
    </g>
    <g id="xtick_8">
     <g id="line2d_8">
      <g>
       <use xlink:href="#m4252a1e59f" x="786.635927" y="480.6" style="fill: #262626; stroke: #262626; stroke-width: 0.8"/>
      </g>
     </g>
     <g id="text_8">
      <!-- 200 -->
      <g style="fill: #262626" transform="translate(778.294521 494.757812) scale(0.1 -0.1)">
       <use xlink:href="#ArialMT-32"/>
       <use xlink:href="#ArialMT-30" transform="translate(55.615234 0)"/>
       <use xlink:href="#ArialMT-30" transform="translate(111.230469 0)"/>
      </g>
     </g>
    </g>
    <g id="xtick_9">
     <g id="line2d_9">
      <g>
       <use xlink:href="#m4252a1e59f" x="866.163382" y="480.6" style="fill: #262626; stroke: #262626; stroke-width: 0.8"/>
      </g>
     </g>
     <g id="text_9">
      <!-- 500 -->
      <g style="fill: #262626" transform="translate(857.821976 494.757812) scale(0.1 -0.1)">
       <use xlink:href="#ArialMT-35"/>
       <use xlink:href="#ArialMT-30" transform="translate(55.615234 0)"/>
       <use xlink:href="#ArialMT-30" transform="translate(111.230469 0)"/>
      </g>
     </g>
    </g>
    <g id="xtick_10">
     <g id="line2d_10">
      <g>
       <use xlink:href="#m4252a1e59f" x="926.323579" y="480.6" style="fill: #262626; stroke: #262626; stroke-width: 0.8"/>
      </g>
     </g>
     <g id="text_10">
      <!-- 1000 -->
      <g style="fill: #262626" transform="translate(915.201704 494.757812) scale(0.1 -0.1)">
       <use xlink:href="#ArialMT-31"/>
       <use xlink:href="#ArialMT-30" transform="translate(55.615234 0)"/>
       <use xlink:href="#ArialMT-30" transform="translate(111.230469 0)"/>
       <use xlink:href="#ArialMT-30" transform="translate(166.845703 0)"/>
      </g>
     </g>
    </g>
    <g id="xtick_11">
     <g id="line2d_11">
      <defs>
       <path id="m3f810a4461" d="M 0 0 
L 0 2 
" style="stroke: #262626; stroke-width: 0.6"/>
      </defs>
      <g>
       <use xlink:href="#m3f810a4461" x="187.092382" y="480.6" style="fill: #262626; stroke: #262626; stroke-width: 0.6"/>
      </g>
     </g>
    </g>
    <g id="xtick_12">
     <g id="line2d_12">
      <g>
       <use xlink:href="#m3f810a4461" x="222.283841" y="480.6" style="fill: #262626; stroke: #262626; stroke-width: 0.6"/>
      </g>
     </g>
    </g>
    <g id="xtick_13">
     <g id="line2d_13">
      <g>
       <use xlink:href="#m3f810a4461" x="247.252579" y="480.6" style="fill: #262626; stroke: #262626; stroke-width: 0.6"/>
      </g>
     </g>
    </g>
    <g id="xtick_14">
     <g id="line2d_14">
      <g>
       <use xlink:href="#m3f810a4461" x="266.619836" y="480.6" style="fill: #262626; stroke: #262626; stroke-width: 0.6"/>
      </g>
     </g>
    </g>
    <g id="xtick_15">
     <g id="line2d_15">
      <g>
       <use xlink:href="#m3f810a4461" x="282.444038" y="480.6" style="fill: #262626; stroke: #262626; stroke-width: 0.6"/>
      </g>
     </g>
    </g>
    <g id="xtick_16">
     <g id="line2d_16">
      <g>
       <use xlink:href="#m3f810a4461" x="295.82321" y="480.6" style="fill: #262626; stroke: #262626; stroke-width: 0.6"/>
      </g>
     </g>
    </g>
    <g id="xtick_17">
     <g id="line2d_17">
      <g>
       <use xlink:href="#m3f810a4461" x="307.412776" y="480.6" style="fill: #262626; stroke: #262626; stroke-width: 0.6"/>
      </g>
     </g>
    </g>
    <g id="xtick_18">
     <g id="line2d_18">
      <g>
       <use xlink:href="#m3f810a4461" x="317.635497" y="480.6" style="fill: #262626; stroke: #262626; stroke-width: 0.6"/>
      </g>
     </g>
    </g>
    <g id="xtick_19">
     <g id="line2d_19">
      <g>
       <use xlink:href="#m3f810a4461" x="422.13169" y="480.6" style="fill: #262626; stroke: #262626; stroke-width: 0.6"/>
      </g>
     </g>
    </g>
    <g id="xtick_20">
     <g id="line2d_20">
      <g>
       <use xlink:href="#m3f810a4461" x="447.100427" y="480.6" style="fill: #262626; stroke: #262626; stroke-width: 0.6"/>
      </g>
     </g>
    </g>
    <g id="xtick_21">
     <g id="line2d_21">
      <g>
       <use xlink:href="#m3f810a4461" x="482.291887" y="480.6" style="fill: #262626; stroke: #262626; stroke-width: 0.6"/>
      </g>
     </g>
    </g>
    <g id="xtick_22">
     <g id="line2d_22">
      <g>
       <use xlink:href="#m3f810a4461" x="495.671058" y="480.6" style="fill: #262626; stroke: #262626; stroke-width: 0.6"/>
      </g>
     </g>
    </g>
    <g id="xtick_23">
     <g id="line2d_23">
      <g>
       <use xlink:href="#m3f810a4461" x="507.260624" y="480.6" style="fill: #262626; stroke: #262626; stroke-width: 0.6"/>
      </g>
     </g>
    </g>
    <g id="xtick_24">
     <g id="line2d_24">
      <g>
       <use xlink:href="#m3f810a4461" x="517.483346" y="480.6" style="fill: #262626; stroke: #262626; stroke-width: 0.6"/>
      </g>
     </g>
    </g>
    <g id="xtick_25">
     <g id="line2d_25">
      <g>
       <use xlink:href="#m3f810a4461" x="621.979538" y="480.6" style="fill: #262626; stroke: #262626; stroke-width: 0.6"/>
      </g>
     </g>
    </g>
    <g id="xtick_26">
     <g id="line2d_26">
      <g>
       <use xlink:href="#m3f810a4461" x="646.948276" y="480.6" style="fill: #262626; stroke: #262626; stroke-width: 0.6"/>
      </g>
     </g>
    </g>
    <g id="xtick_27">
     <g id="line2d_27">
      <g>
       <use xlink:href="#m3f810a4461" x="682.139735" y="480.6" style="fill: #262626; stroke: #262626; stroke-width: 0.6"/>
      </g>
     </g>
    </g>
    <g id="xtick_28">
     <g id="line2d_28">
      <g>
       <use xlink:href="#m3f810a4461" x="695.518907" y="480.6" style="fill: #262626; stroke: #262626; stroke-width: 0.6"/>
      </g>
     </g>
    </g>
    <g id="xtick_29">
     <g id="line2d_29">
      <g>
       <use xlink:href="#m3f810a4461" x="707.108473" y="480.6" style="fill: #262626; stroke: #262626; stroke-width: 0.6"/>
      </g>
     </g>
    </g>
    <g id="xtick_30">
     <g id="line2d_30">
      <g>
       <use xlink:href="#m3f810a4461" x="717.331194" y="480.6" style="fill: #262626; stroke: #262626; stroke-width: 0.6"/>
      </g>
     </g>
    </g>
    <g id="xtick_31">
     <g id="line2d_31">
      <g>
       <use xlink:href="#m3f810a4461" x="821.827387" y="480.6" style="fill: #262626; stroke: #262626; stroke-width: 0.6"/>
      </g>
     </g>
    </g>
    <g id="xtick_32">
     <g id="line2d_32">
      <g>
       <use xlink:href="#m3f810a4461" x="846.796124" y="480.6" style="fill: #262626; stroke: #262626; stroke-width: 0.6"/>
      </g>
     </g>
    </g>
    <g id="xtick_33">
     <g id="line2d_33">
      <g>
       <use xlink:href="#m3f810a4461" x="881.987584" y="480.6" style="fill: #262626; stroke: #262626; stroke-width: 0.6"/>
      </g>
     </g>
    </g>
    <g id="xtick_34">
     <g id="line2d_34">
      <g>
       <use xlink:href="#m3f810a4461" x="895.366756" y="480.6" style="fill: #262626; stroke: #262626; stroke-width: 0.6"/>
      </g>
     </g>
    </g>
    <g id="xtick_35">
     <g id="line2d_35">
      <g>
       <use xlink:href="#m3f810a4461" x="906.956321" y="480.6" style="fill: #262626; stroke: #262626; stroke-width: 0.6"/>
      </g>
     </g>
    </g>
    <g id="xtick_36">
     <g id="line2d_36">
      <g>
       <use xlink:href="#m3f810a4461" x="917.179043" y="480.6" style="fill: #262626; stroke: #262626; stroke-width: 0.6"/>
      </g>
     </g>
    </g>
    <g id="text_11">
     <!-- Income or consumption (day) -->
     <g style="fill: #262626" transform="translate(488.753906 508.025) scale(0.1 -0.1)">
      <defs>
       <path id="ArialMT-49" d="M 597 0 
L 597 4581 
L 1203 4581 
L 1203 0 
L 597 0 
z
" transform="scale(0.015625)"/>
       <path id="ArialMT-6e" d="M 422 0 
L 422 3319 
L 928 3319 
L 928 2847 
Q 1294 3394 1984 3394 
Q 2284 3394 2536 3286 
Q 2788 3178 2913 3003 
Q 3038 2828 3088 2588 
Q 3119 2431 3119 2041 
L 3119 0 
L 2556 0 
L 2556 2019 
Q 2556 2363 2490 2533 
Q 2425 2703 2258 2804 
Q 2091 2906 1866 2906 
Q 1506 2906 1245 2678 
Q 984 2450 984 1813 
L 984 0 
L 422 0 
z
" transform="scale(0.015625)"/>
       <path id="ArialMT-63" d="M 2588 1216 
L 3141 1144 
Q 3050 572 2676 248 
Q 2303 -75 1759 -75 
Q 1078 -75 664 370 
Q 250 816 250 1647 
Q 250 2184 428 2587 
Q 606 2991 970 3192 
Q 1334 3394 1763 3394 
Q 2303 3394 2647 3120 
Q 2991 2847 3088 2344 
L 2541 2259 
Q 2463 2594 2264 2762 
Q 2066 2931 1784 2931 
Q 1359 2931 1093 2626 
Q 828 2322 828 1663 
Q 828 994 1084 691 
Q 1341 388 1753 388 
Q 2084 388 2306 591 
Q 2528 794 2588 1216 
z
" transform="scale(0.015625)"/>
       <path id="ArialMT-6f" d="M 213 1659 
Q 213 2581 725 3025 
Q 1153 3394 1769 3394 
Q 2453 3394 2887 2945 
Q 3322 2497 3322 1706 
Q 3322 1066 3130 698 
Q 2938 331 2570 128 
Q 2203 -75 1769 -75 
Q 1072 -75 642 372 
Q 213 819 213 1659 
z
M 791 1659 
Q 791 1022 1069 705 
Q 1347 388 1769 388 
Q 2188 388 2466 706 
Q 2744 1025 2744 1678 
Q 2744 2294 2464 2611 
Q 2184 2928 1769 2928 
Q 1347 2928 1069 2612 
Q 791 2297 791 1659 
z
" transform="scale(0.015625)"/>
       <path id="ArialMT-6d" d="M 422 0 
L 422 3319 
L 925 3319 
L 925 2853 
Q 1081 3097 1340 3245 
Q 1600 3394 1931 3394 
Q 2300 3394 2536 3241 
Q 2772 3088 2869 2813 
Q 3263 3394 3894 3394 
Q 4388 3394 4653 3120 
Q 4919 2847 4919 2278 
L 4919 0 
L 4359 0 
L 4359 2091 
Q 4359 2428 4304 2576 
Q 4250 2725 4106 2815 
Q 3963 2906 3769 2906 
Q 3419 2906 3187 2673 
Q 2956 2441 2956 1928 
L 2956 0 
L 2394 0 
L 2394 2156 
Q 2394 2531 2256 2718 
Q 2119 2906 1806 2906 
Q 1569 2906 1367 2781 
Q 1166 2656 1075 2415 
Q 984 2175 984 1722 
L 984 0 
L 422 0 
z
" transform="scale(0.015625)"/>
       <path id="ArialMT-65" d="M 2694 1069 
L 3275 997 
Q 3138 488 2766 206 
Q 2394 -75 1816 -75 
Q 1088 -75 661 373 
Q 234 822 234 1631 
Q 234 2469 665 2931 
Q 1097 3394 1784 3394 
Q 2450 3394 2872 2941 
Q 3294 2488 3294 1666 
Q 3294 1616 3291 1516 
L 816 1516 
Q 847 969 1125 678 
Q 1403 388 1819 388 
Q 2128 388 2347 550 
Q 2566 713 2694 1069 
z
M 847 1978 
L 2700 1978 
Q 2663 2397 2488 2606 
Q 2219 2931 1791 2931 
Q 1403 2931 1139 2672 
Q 875 2413 847 1978 
z
" transform="scale(0.015625)"/>
       <path id="ArialMT-20" transform="scale(0.015625)"/>
       <path id="ArialMT-72" d="M 416 0 
L 416 3319 
L 922 3319 
L 922 2816 
Q 1116 3169 1280 3281 
Q 1444 3394 1641 3394 
Q 1925 3394 2219 3213 
L 2025 2691 
Q 1819 2813 1613 2813 
Q 1428 2813 1281 2702 
Q 1134 2591 1072 2394 
Q 978 2094 978 1738 
L 978 0 
L 416 0 
z
" transform="scale(0.015625)"/>
       <path id="ArialMT-73" d="M 197 991 
L 753 1078 
Q 800 744 1014 566 
Q 1228 388 1613 388 
Q 2000 388 2187 545 
Q 2375 703 2375 916 
Q 2375 1106 2209 1216 
Q 2094 1291 1634 1406 
Q 1016 1563 777 1677 
Q 538 1791 414 1992 
Q 291 2194 291 2438 
Q 291 2659 392 2848 
Q 494 3038 669 3163 
Q 800 3259 1026 3326 
Q 1253 3394 1513 3394 
Q 1903 3394 2198 3281 
Q 2494 3169 2634 2976 
Q 2775 2784 2828 2463 
L 2278 2388 
Q 2241 2644 2061 2787 
Q 1881 2931 1553 2931 
Q 1166 2931 1000 2803 
Q 834 2675 834 2503 
Q 834 2394 903 2306 
Q 972 2216 1119 2156 
Q 1203 2125 1616 2013 
Q 2213 1853 2448 1751 
Q 2684 1650 2818 1456 
Q 2953 1263 2953 975 
Q 2953 694 2789 445 
Q 2625 197 2315 61 
Q 2006 -75 1616 -75 
Q 969 -75 630 194 
Q 291 463 197 991 
z
" transform="scale(0.015625)"/>
       <path id="ArialMT-75" d="M 2597 0 
L 2597 488 
Q 2209 -75 1544 -75 
Q 1250 -75 995 37 
Q 741 150 617 320 
Q 494 491 444 738 
Q 409 903 409 1263 
L 409 3319 
L 972 3319 
L 972 1478 
Q 972 1038 1006 884 
Q 1059 663 1231 536 
Q 1403 409 1656 409 
Q 1909 409 2131 539 
Q 2353 669 2445 892 
Q 2538 1116 2538 1541 
L 2538 3319 
L 3100 3319 
L 3100 0 
L 2597 0 
z
" transform="scale(0.015625)"/>
       <path id="ArialMT-70" d="M 422 -1272 
L 422 3319 
L 934 3319 
L 934 2888 
Q 1116 3141 1344 3267 
Q 1572 3394 1897 3394 
Q 2322 3394 2647 3175 
Q 2972 2956 3137 2557 
Q 3303 2159 3303 1684 
Q 3303 1175 3120 767 
Q 2938 359 2589 142 
Q 2241 -75 1856 -75 
Q 1575 -75 1351 44 
Q 1128 163 984 344 
L 984 -1272 
L 422 -1272 
z
M 931 1641 
Q 931 1000 1190 694 
Q 1450 388 1819 388 
Q 2194 388 2461 705 
Q 2728 1022 2728 1688 
Q 2728 2322 2467 2637 
Q 2206 2953 1844 2953 
Q 1484 2953 1207 2617 
Q 931 2281 931 1641 
z
" transform="scale(0.015625)"/>
       <path id="ArialMT-74" d="M 1650 503 
L 1731 6 
Q 1494 -44 1306 -44 
Q 1000 -44 831 53 
Q 663 150 594 308 
Q 525 466 525 972 
L 525 2881 
L 113 2881 
L 113 3319 
L 525 3319 
L 525 4141 
L 1084 4478 
L 1084 3319 
L 1650 3319 
L 1650 2881 
L 1084 2881 
L 1084 941 
Q 1084 700 1114 631 
Q 1144 563 1211 522 
Q 1278 481 1403 481 
Q 1497 481 1650 503 
z
" transform="scale(0.015625)"/>
       <path id="ArialMT-69" d="M 425 3934 
L 425 4581 
L 988 4581 
L 988 3934 
L 425 3934 
z
M 425 0 
L 425 3319 
L 988 3319 
L 988 0 
L 425 0 
z
" transform="scale(0.015625)"/>
       <path id="ArialMT-28" d="M 1497 -1347 
Q 1031 -759 709 28 
Q 388 816 388 1659 
Q 388 2403 628 3084 
Q 909 3875 1497 4659 
L 1900 4659 
Q 1522 4009 1400 3731 
Q 1209 3300 1100 2831 
Q 966 2247 966 1656 
Q 966 153 1900 -1347 
L 1497 -1347 
z
" transform="scale(0.015625)"/>
       <path id="ArialMT-64" d="M 2575 0 
L 2575 419 
Q 2259 -75 1647 -75 
Q 1250 -75 917 144 
Q 584 363 401 755 
Q 219 1147 219 1656 
Q 219 2153 384 2558 
Q 550 2963 881 3178 
Q 1213 3394 1622 3394 
Q 1922 3394 2156 3267 
Q 2391 3141 2538 2938 
L 2538 4581 
L 3097 4581 
L 3097 0 
L 2575 0 
z
M 797 1656 
Q 797 1019 1065 703 
Q 1334 388 1700 388 
Q 2069 388 2326 689 
Q 2584 991 2584 1609 
Q 2584 2291 2321 2609 
Q 2059 2928 1675 2928 
Q 1300 2928 1048 2622 
Q 797 2316 797 1656 
z
" transform="scale(0.015625)"/>
       <path id="ArialMT-61" d="M 2588 409 
Q 2275 144 1986 34 
Q 1697 -75 1366 -75 
Q 819 -75 525 192 
Q 231 459 231 875 
Q 231 1119 342 1320 
Q 453 1522 633 1644 
Q 813 1766 1038 1828 
Q 1203 1872 1538 1913 
Q 2219 1994 2541 2106 
Q 2544 2222 2544 2253 
Q 2544 2597 2384 2738 
Q 2169 2928 1744 2928 
Q 1347 2928 1158 2789 
Q 969 2650 878 2297 
L 328 2372 
Q 403 2725 575 2942 
Q 747 3159 1072 3276 
Q 1397 3394 1825 3394 
Q 2250 3394 2515 3294 
Q 2781 3194 2906 3042 
Q 3031 2891 3081 2659 
Q 3109 2516 3109 2141 
L 3109 1391 
Q 3109 606 3145 398 
Q 3181 191 3288 0 
L 2700 0 
Q 2613 175 2588 409 
z
M 2541 1666 
Q 2234 1541 1622 1453 
Q 1275 1403 1131 1340 
Q 988 1278 909 1158 
Q 831 1038 831 891 
Q 831 666 1001 516 
Q 1172 366 1500 366 
Q 1825 366 2078 508 
Q 2331 650 2450 897 
Q 2541 1088 2541 1459 
L 2541 1666 
z
" transform="scale(0.015625)"/>
       <path id="ArialMT-79" d="M 397 -1278 
L 334 -750 
Q 519 -800 656 -800 
Q 844 -800 956 -737 
Q 1069 -675 1141 -563 
Q 1194 -478 1313 -144 
Q 1328 -97 1363 -6 
L 103 3319 
L 709 3319 
L 1400 1397 
Q 1534 1031 1641 628 
Q 1738 1016 1872 1384 
L 2581 3319 
L 3144 3319 
L 1881 -56 
Q 1678 -603 1566 -809 
Q 1416 -1088 1222 -1217 
Q 1028 -1347 759 -1347 
Q 597 -1347 397 -1278 
z
" transform="scale(0.015625)"/>
       <path id="ArialMT-29" d="M 791 -1347 
L 388 -1347 
Q 1322 153 1322 1656 
Q 1322 2244 1188 2822 
Q 1081 3291 891 3722 
Q 769 4003 388 4659 
L 791 4659 
Q 1378 3875 1659 3084 
Q 1900 2403 1900 1659 
Q 1900 816 1576 28 
Q 1253 -759 791 -1347 
z
" transform="scale(0.015625)"/>
      </defs>
      <use xlink:href="#ArialMT-49"/>
      <use xlink:href="#ArialMT-6e" transform="translate(27.783203 0)"/>
      <use xlink:href="#ArialMT-63" transform="translate(83.398438 0)"/>
      <use xlink:href="#ArialMT-6f" transform="translate(133.398438 0)"/>
      <use xlink:href="#ArialMT-6d" transform="translate(189.013672 0)"/>
      <use xlink:href="#ArialMT-65" transform="translate(272.314453 0)"/>
      <use xlink:href="#ArialMT-20" transform="translate(327.929688 0)"/>
      <use xlink:href="#ArialMT-6f" transform="translate(355.712891 0)"/>
      <use xlink:href="#ArialMT-72" transform="translate(411.328125 0)"/>
      <use xlink:href="#ArialMT-20" transform="translate(444.628906 0)"/>
      <use xlink:href="#ArialMT-63" transform="translate(472.412109 0)"/>
      <use xlink:href="#ArialMT-6f" transform="translate(522.412109 0)"/>
      <use xlink:href="#ArialMT-6e" transform="translate(578.027344 0)"/>
      <use xlink:href="#ArialMT-73" transform="translate(633.642578 0)"/>
      <use xlink:href="#ArialMT-75" transform="translate(683.642578 0)"/>
      <use xlink:href="#ArialMT-6d" transform="translate(739.257812 0)"/>
      <use xlink:href="#ArialMT-70" transform="translate(822.558594 0)"/>
      <use xlink:href="#ArialMT-74" transform="translate(878.173828 0)"/>
      <use xlink:href="#ArialMT-69" transform="translate(905.957031 0)"/>
      <use xlink:href="#ArialMT-6f" transform="translate(928.173828 0)"/>
      <use xlink:href="#ArialMT-6e" transform="translate(983.789062 0)"/>
      <use xlink:href="#ArialMT-20" transform="translate(1039.404297 0)"/>
      <use xlink:href="#ArialMT-28" transform="translate(1067.1875 0)"/>
      <use xlink:href="#ArialMT-64" transform="translate(1100.488281 0)"/>
      <use xlink:href="#ArialMT-61" transform="translate(1156.103516 0)"/>
      <use xlink:href="#ArialMT-79" transform="translate(1211.71875 0)"/>
      <use xlink:href="#ArialMT-29" transform="translate(1261.71875 0)"/>
     </g>
    </g>
   </g>
   <g id="matplotlib.axis_2"/>
   <g id="FillBetweenPolyCollection_1">
    <defs>
     <path id="m8bd0c0c0d0" d="M 243.264777 -59.412935 
L 243.264777 -59.4 
L 245.866877 -59.4 
L 248.468977 -59.4 
L 251.071076 -59.4 
L 253.673176 -59.4 
L 256.275276 -59.4 
L 258.877376 -59.4 
L 261.479476 -59.4 
L 264.081576 -59.4 
L 266.683676 -59.4 
L 269.285776 -59.4 
L 271.887876 -59.4 
L 274.489975 -59.4 
L 277.092075 -59.4 
L 279.694175 -59.4 
L 282.296275 -59.4 
L 284.898375 -59.4 
L 287.500475 -59.4 
L 290.102575 -59.4 
L 292.704675 -59.4 
L 295.306775 -59.4 
L 297.908874 -59.4 
L 300.510974 -59.4 
L 303.113074 -59.4 
L 305.715174 -59.4 
L 308.317274 -59.4 
L 310.919374 -59.4 
L 313.521474 -59.4 
L 316.123574 -59.4 
L 318.725674 -59.4 
L 321.327773 -59.4 
L 323.929873 -59.4 
L 326.531973 -59.4 
L 329.134073 -59.4 
L 331.736173 -59.4 
L 334.338273 -59.4 
L 336.940373 -59.4 
L 339.542473 -59.4 
L 342.144572 -59.4 
L 344.746672 -59.4 
L 347.348772 -59.4 
L 349.950872 -59.4 
L 352.552972 -59.4 
L 355.155072 -59.4 
L 357.757172 -59.4 
L 360.359272 -59.4 
L 362.961372 -59.4 
L 365.563471 -59.4 
L 368.165571 -59.4 
L 370.767671 -59.4 
L 373.369771 -59.4 
L 375.971871 -59.4 
L 378.573971 -59.4 
L 381.176071 -59.4 
L 383.778171 -59.4 
L 386.380271 -59.4 
L 388.98237 -59.4 
L 391.58447 -59.4 
L 394.18657 -59.4 
L 396.78867 -59.4 
L 399.39077 -59.4 
L 401.99287 -59.4 
L 404.59497 -59.4 
L 407.19707 -59.4 
L 409.79917 -59.4 
L 412.401269 -59.4 
L 415.003369 -59.4 
L 417.605469 -59.4 
L 420.207569 -59.4 
L 422.809669 -59.4 
L 425.411769 -59.4 
L 428.013869 -59.4 
L 430.615969 -59.4 
L 433.218069 -59.4 
L 435.820168 -59.4 
L 438.422268 -59.4 
L 441.024368 -59.4 
L 443.626468 -59.4 
L 446.228568 -59.4 
L 448.830668 -59.4 
L 451.432768 -59.4 
L 454.034868 -59.4 
L 456.636968 -59.4 
L 459.239067 -59.4 
L 461.841167 -59.4 
L 464.443267 -59.4 
L 467.045367 -59.4 
L 469.647467 -59.4 
L 472.249567 -59.4 
L 474.851667 -59.4 
L 477.453767 -59.4 
L 480.055866 -59.4 
L 482.657966 -59.4 
L 485.260066 -59.4 
L 487.862166 -59.4 
L 490.464266 -59.4 
L 493.066366 -59.4 
L 495.668466 -59.4 
L 498.270566 -59.4 
L 500.872666 -59.4 
L 503.474765 -59.4 
L 506.076865 -59.4 
L 508.678965 -59.4 
L 511.281065 -59.4 
L 513.883165 -59.4 
L 516.485265 -59.4 
L 519.087365 -59.4 
L 521.689465 -59.4 
L 524.291565 -59.4 
L 526.893664 -59.4 
L 529.495764 -59.4 
L 532.097864 -59.4 
L 534.699964 -59.4 
L 537.302064 -59.4 
L 539.904164 -59.4 
L 542.506264 -59.4 
L 545.108364 -59.4 
L 547.710464 -59.4 
L 550.312563 -59.4 
L 552.914663 -59.4 
L 555.516763 -59.4 
L 558.118863 -59.4 
L 560.720963 -59.4 
L 563.323063 -59.4 
L 565.925163 -59.4 
L 568.527263 -59.4 
L 571.129363 -59.4 
L 573.731462 -59.4 
L 576.333562 -59.4 
L 578.935662 -59.4 
L 581.537762 -59.4 
L 584.139862 -59.4 
L 586.741962 -59.4 
L 589.344062 -59.4 
L 591.946162 -59.4 
L 594.548262 -59.4 
L 597.150361 -59.4 
L 599.752461 -59.4 
L 602.354561 -59.4 
L 604.956661 -59.4 
L 607.558761 -59.4 
L 610.160861 -59.4 
L 612.762961 -59.4 
L 615.365061 -59.4 
L 617.967161 -59.4 
L 620.56926 -59.4 
L 623.17136 -59.4 
L 625.77346 -59.4 
L 628.37556 -59.4 
L 630.97766 -59.4 
L 633.57976 -59.4 
L 636.18186 -59.4 
L 638.78396 -59.4 
L 641.386059 -59.4 
L 643.988159 -59.4 
L 646.590259 -59.4 
L 649.192359 -59.4 
L 651.794459 -59.4 
L 654.396559 -59.4 
L 656.998659 -59.4 
L 659.600759 -59.4 
L 662.202859 -59.4 
L 664.804958 -59.4 
L 667.407058 -59.4 
L 670.009158 -59.4 
L 672.611258 -59.4 
L 675.213358 -59.4 
L 677.815458 -59.4 
L 680.417558 -59.4 
L 683.019658 -59.4 
L 685.621758 -59.4 
L 688.223857 -59.4 
L 690.825957 -59.4 
L 693.428057 -59.4 
L 696.030157 -59.4 
L 698.632257 -59.4 
L 701.234357 -59.4 
L 703.836457 -59.4 
L 706.438557 -59.4 
L 709.040657 -59.4 
L 711.642756 -59.4 
L 714.244856 -59.4 
L 716.846956 -59.4 
L 719.449056 -59.4 
L 722.051156 -59.4 
L 724.653256 -59.4 
L 727.255356 -59.4 
L 729.857456 -59.4 
L 732.459556 -59.4 
L 735.061655 -59.4 
L 737.663755 -59.4 
L 740.265855 -59.4 
L 742.867955 -59.4 
L 745.470055 -59.4 
L 748.072155 -59.4 
L 750.674255 -59.4 
L 753.276355 -59.4 
L 755.878455 -59.4 
L 758.480554 -59.4 
L 761.082654 -59.4 
L 761.082654 -59.41273 
L 761.082654 -59.41273 
L 758.480554 -59.422442 
L 755.878455 -59.438081 
L 753.276355 -59.462201 
L 750.674255 -59.497793 
L 748.072155 -59.547994 
L 745.470055 -59.615579 
L 742.867955 -59.702272 
L 740.265855 -59.807959 
L 737.663755 -59.929982 
L 735.061655 -60.062724 
L 732.459556 -60.197684 
L 729.857456 -60.324179 
L 727.255356 -60.430643 
L 724.653256 -60.506336 
L 722.051156 -60.543122 
L 719.449056 -60.536908 
L 716.846956 -60.48839 
L 714.244856 -60.402931 
L 711.642756 -60.289578 
L 709.040657 -60.159495 
L 706.438557 -60.024156 
L 703.836457 -59.893733 
L 701.234357 -59.775951 
L 698.632257 -59.675575 
L 696.030157 -59.5945 
L 693.428057 -59.532283 
L 690.825957 -59.486917 
L 688.223857 -59.455634 
L 685.621758 -59.435611 
L 683.019658 -59.424495 
L 680.417558 -59.420752 
L 677.815458 -59.423877 
L 675.213358 -59.434494 
L 672.611258 -59.454382 
L 670.009158 -59.486412 
L 667.407058 -59.534376 
L 664.804958 -59.602676 
L 662.202859 -59.695849 
L 659.600759 -59.817974 
L 656.998659 -59.97201 
L 654.396559 -60.159231 
L 651.794459 -60.378877 
L 649.192359 -60.62816 
L 646.590259 -60.902666 
L 643.988159 -61.197108 
L 641.386059 -61.506276 
L 638.78396 -61.825976 
L 636.18186 -62.153763 
L 633.57976 -62.48932 
L 630.97766 -62.834444 
L 628.37556 -63.1927 
L 625.77346 -63.56886 
L 623.17136 -63.968259 
L 620.56926 -64.396182 
L 617.967161 -64.857385 
L 615.365061 -65.355778 
L 612.762961 -65.894327 
L 610.160861 -66.475198 
L 607.558761 -67.100113 
L 604.956661 -67.770875 
L 602.354561 -68.489925 
L 599.752461 -69.260777 
L 597.150361 -70.088158 
L 594.548262 -70.977765 
L 591.946162 -71.935662 
L 589.344062 -72.967494 
L 586.741962 -74.077772 
L 584.139862 -75.269522 
L 581.537762 -76.544497 
L 578.935662 -77.903948 
L 576.333562 -79.349758 
L 573.731462 -80.88556 
L 571.129363 -82.517418 
L 568.527263 -84.253774 
L 565.925163 -86.1046 
L 563.323063 -88.07999 
L 560.720963 -90.188674 
L 558.118863 -92.436965 
L 555.516763 -94.828535 
L 552.914663 -97.365074 
L 550.312563 -100.04754 
L 547.710464 -102.877433 
L 545.108364 -105.857469 
L 542.506264 -108.991282 
L 539.904164 -112.28217 
L 537.302064 -115.731375 
L 534.699964 -119.336712 
L 532.097864 -123.092442 
L 529.495764 -126.991 
L 526.893664 -131.026713 
L 524.291565 -135.201011 
L 521.689465 -139.528105 
L 519.087365 -144.039837 
L 516.485265 -148.788415 
L 513.883165 -153.846138 
L 511.281065 -159.301809 
L 508.678965 -165.254205 
L 506.076865 -171.8036 
L 503.474765 -179.042675 
L 500.872666 -187.048254 
L 498.270566 -195.875008 
L 495.668466 -205.551797 
L 493.066366 -216.080622 
L 490.464266 -227.437466 
L 487.862166 -239.573734 
L 485.260066 -252.416678 
L 482.657966 -265.867338 
L 480.055866 -279.795187 
L 477.453767 -294.029853 
L 474.851667 -308.351826 
L 472.249567 -322.485513 
L 469.647467 -336.098874 
L 467.045367 -348.81356 
L 464.443267 -360.227869 
L 461.841167 -369.951865 
L 459.239067 -377.650568 
L 456.636968 -383.088029 
L 454.034868 -386.163498 
L 451.432768 -386.931386 
L 448.830668 -385.599489 
L 446.228568 -382.504181 
L 443.626468 -378.066094 
L 441.024368 -372.733717 
L 438.422268 -366.924614 
L 435.820168 -360.973992 
L 433.218069 -355.098505 
L 430.615969 -349.380009 
L 428.013869 -343.770372 
L 425.411769 -338.115091 
L 422.809669 -332.190856 
L 420.207569 -325.750638 
L 417.605469 -318.569276 
L 415.003369 -310.483003 
L 412.401269 -301.417667 
L 409.79917 -291.402417 
L 407.19707 -280.568034 
L 404.59497 -269.131428 
L 401.99287 -257.369732 
L 399.39077 -245.588522 
L 396.78867 -234.088885 
L 394.18657 -223.137562 
L 391.58447 -212.943349 
L 388.98237 -203.641828 
L 386.380271 -195.289374 
L 383.778171 -187.866378 
L 381.176071 -181.28865 
L 378.573971 -175.425047 
L 375.971871 -170.118599 
L 373.369771 -165.207903 
L 370.767671 -160.54563 
L 368.165571 -156.011617 
L 365.563471 -151.519251 
L 362.961372 -147.015236 
L 360.359272 -142.474232 
L 357.757172 -137.890682 
L 355.155072 -133.270411 
L 352.552972 -128.624102 
L 349.950872 -123.963858 
L 347.348772 -119.302949 
L 344.746672 -114.65784 
L 342.144572 -110.051041 
L 339.542473 -105.513225 
L 336.940373 -101.083462 
L 334.338273 -96.807129 
L 331.736173 -92.73185 
L 329.134073 -88.902385 
L 326.531973 -85.355684 
L 323.929873 -82.117173 
L 321.327773 -79.198931 
L 318.725674 -76.599894 
L 316.123574 -74.307724 
L 313.521474 -72.301715 
L 310.919374 -70.556025 
L 308.317274 -69.042649 
L 305.715174 -67.733766 
L 303.113074 -66.603273 
L 300.510974 -65.627539 
L 297.908874 -64.785521 
L 295.306775 -64.058453 
L 292.704675 -63.429383 
L 290.102575 -62.882799 
L 287.500475 -62.404539 
L 284.898375 -61.98202 
L 282.296275 -61.604697 
L 279.694175 -61.264555 
L 277.092075 -60.956369 
L 274.489975 -60.677585 
L 271.887876 -60.427751 
L 269.285776 -60.207634 
L 266.683676 -60.018222 
L 264.081576 -59.859873 
L 261.479476 -59.731765 
L 258.877376 -59.631752 
L 256.275276 -59.55655 
L 253.673176 -59.502159 
L 251.071076 -59.464349 
L 248.468977 -59.439101 
L 245.866877 -59.422908 
L 243.264777 -59.412935 
z
" style="stroke: #dd8452"/>
    </defs>
    <g clip-path="url(#p855264bbf3)">
     <use xlink:href="#m8bd0c0c0d0" x="0" y="540" style="fill: #dd8452; fill-opacity: 0.25; stroke: #dd8452"/>
    </g>
   </g>
   <g id="FillBetweenPolyCollection_2">
    <defs>
     <path id="m897a36ce6d" d="M 173.045455 -59.414961 
L 173.045455 -59.4 
L 176.869118 -59.4 
L 180.692782 -59.4 
L 184.516446 -59.4 
L 188.34011 -59.4 
L 192.163773 -59.4 
L 195.987437 -59.4 
L 199.811101 -59.4 
L 203.634765 -59.4 
L 207.458429 -59.4 
L 211.282092 -59.4 
L 215.105756 -59.4 
L 218.92942 -59.4 
L 222.753084 -59.4 
L 226.576747 -59.4 
L 230.400411 -59.4 
L 234.224075 -59.4 
L 238.047739 -59.4 
L 241.871402 -59.4 
L 245.695066 -59.4 
L 249.51873 -59.4 
L 253.342394 -59.4 
L 257.166058 -59.4 
L 260.989721 -59.4 
L 264.813385 -59.4 
L 268.637049 -59.4 
L 272.460713 -59.4 
L 276.284376 -59.4 
L 280.10804 -59.4 
L 283.931704 -59.4 
L 287.755368 -59.4 
L 291.579032 -59.4 
L 295.402695 -59.4 
L 299.226359 -59.4 
L 303.050023 -59.4 
L 306.873687 -59.4 
L 310.69735 -59.4 
L 314.521014 -59.4 
L 318.344678 -59.4 
L 322.168342 -59.4 
L 325.992005 -59.4 
L 329.815669 -59.4 
L 333.639333 -59.4 
L 337.462997 -59.4 
L 341.286661 -59.4 
L 345.110324 -59.4 
L 348.933988 -59.4 
L 352.757652 -59.4 
L 356.581316 -59.4 
L 360.404979 -59.4 
L 364.228643 -59.4 
L 368.052307 -59.4 
L 371.875971 -59.4 
L 375.699635 -59.4 
L 379.523298 -59.4 
L 383.346962 -59.4 
L 387.170626 -59.4 
L 390.99429 -59.4 
L 394.817953 -59.4 
L 398.641617 -59.4 
L 402.465281 -59.4 
L 406.288945 -59.4 
L 410.112608 -59.4 
L 413.936272 -59.4 
L 417.759936 -59.4 
L 421.5836 -59.4 
L 425.407264 -59.4 
L 429.230927 -59.4 
L 433.054591 -59.4 
L 436.878255 -59.4 
L 440.701919 -59.4 
L 444.525582 -59.4 
L 448.349246 -59.4 
L 452.17291 -59.4 
L 455.996574 -59.4 
L 459.820238 -59.4 
L 463.643901 -59.4 
L 467.467565 -59.4 
L 471.291229 -59.4 
L 475.114893 -59.4 
L 478.938556 -59.4 
L 482.76222 -59.4 
L 486.585884 -59.4 
L 490.409548 -59.4 
L 494.233212 -59.4 
L 498.056875 -59.4 
L 501.880539 -59.4 
L 505.704203 -59.4 
L 509.527867 -59.4 
L 513.35153 -59.4 
L 517.175194 -59.4 
L 520.998858 -59.4 
L 524.822522 -59.4 
L 528.646185 -59.4 
L 532.469849 -59.4 
L 536.293513 -59.4 
L 540.117177 -59.4 
L 543.940841 -59.4 
L 547.764504 -59.4 
L 551.588168 -59.4 
L 555.411832 -59.4 
L 559.235496 -59.4 
L 563.059159 -59.4 
L 566.882823 -59.4 
L 570.706487 -59.4 
L 574.530151 -59.4 
L 578.353815 -59.4 
L 582.177478 -59.4 
L 586.001142 -59.4 
L 589.824806 -59.4 
L 593.64847 -59.4 
L 597.472133 -59.4 
L 601.295797 -59.4 
L 605.119461 -59.4 
L 608.943125 -59.4 
L 612.766788 -59.4 
L 616.590452 -59.4 
L 620.414116 -59.4 
L 624.23778 -59.4 
L 628.061444 -59.4 
L 631.885107 -59.4 
L 635.708771 -59.4 
L 639.532435 -59.4 
L 643.356099 -59.4 
L 647.179762 -59.4 
L 651.003426 -59.4 
L 654.82709 -59.4 
L 658.650754 -59.4 
L 662.474418 -59.4 
L 666.298081 -59.4 
L 670.121745 -59.4 
L 673.945409 -59.4 
L 677.769073 -59.4 
L 681.592736 -59.4 
L 685.4164 -59.4 
L 689.240064 -59.4 
L 693.063728 -59.4 
L 696.887392 -59.4 
L 700.711055 -59.4 
L 704.534719 -59.4 
L 708.358383 -59.4 
L 712.182047 -59.4 
L 716.00571 -59.4 
L 719.829374 -59.4 
L 723.653038 -59.4 
L 727.476702 -59.4 
L 731.300365 -59.4 
L 735.124029 -59.4 
L 738.947693 -59.4 
L 742.771357 -59.4 
L 746.595021 -59.4 
L 750.418684 -59.4 
L 754.242348 -59.4 
L 758.066012 -59.4 
L 761.889676 -59.4 
L 765.713339 -59.4 
L 769.537003 -59.4 
L 773.360667 -59.4 
L 777.184331 -59.4 
L 781.007995 -59.4 
L 784.831658 -59.4 
L 788.655322 -59.4 
L 792.478986 -59.4 
L 796.30265 -59.4 
L 800.126313 -59.4 
L 803.949977 -59.4 
L 807.773641 -59.4 
L 811.597305 -59.4 
L 815.420968 -59.4 
L 819.244632 -59.4 
L 823.068296 -59.4 
L 826.89196 -59.4 
L 830.715624 -59.4 
L 834.539287 -59.4 
L 838.362951 -59.4 
L 842.186615 -59.4 
L 846.010279 -59.4 
L 849.833942 -59.4 
L 853.657606 -59.4 
L 857.48127 -59.4 
L 861.304934 -59.4 
L 865.128598 -59.4 
L 868.952261 -59.4 
L 872.775925 -59.4 
L 876.599589 -59.4 
L 880.423253 -59.4 
L 884.246916 -59.4 
L 888.07058 -59.4 
L 891.894244 -59.4 
L 895.717908 -59.4 
L 899.541571 -59.4 
L 903.365235 -59.4 
L 907.188899 -59.4 
L 911.012563 -59.4 
L 914.836227 -59.4 
L 918.65989 -59.4 
L 922.483554 -59.4 
L 926.307218 -59.4 
L 930.130882 -59.4 
L 933.954545 -59.4 
L 933.954545 -59.414961 
L 933.954545 -59.414961 
L 930.130882 -59.438884 
L 926.307218 -59.490193 
L 922.483554 -59.586699 
L 918.65989 -59.744895 
L 914.836227 -59.968598 
L 911.012563 -60.236576 
L 907.188899 -60.498514 
L 903.365235 -60.687579 
L 899.541571 -60.747846 
L 895.717908 -60.662374 
L 891.894244 -60.464287 
L 888.07058 -60.22392 
L 884.246916 -60.021097 
L 880.423253 -59.918628 
L 876.599589 -59.946783 
L 872.775925 -60.098225 
L 868.952261 -60.330151 
L 865.128598 -60.575246 
L 861.304934 -60.765343 
L 857.48127 -60.863931 
L 853.657606 -60.891562 
L 849.833942 -60.925144 
L 846.010279 -61.065054 
L 842.186615 -61.384975 
L 838.362951 -61.89259 
L 834.539287 -62.524542 
L 830.715624 -63.178862 
L 826.89196 -63.765749 
L 823.068296 -64.24844 
L 819.244632 -64.655815 
L 815.420968 -65.067956 
L 811.597305 -65.58879 
L 807.773641 -66.318771 
L 803.949977 -67.332391 
L 800.126313 -68.661605 
L 796.30265 -70.289893 
L 792.478986 -72.165582 
L 788.655322 -74.237712 
L 784.831658 -76.502776 
L 781.007995 -79.038579 
L 777.184331 -82.007418 
L 773.360667 -85.632827 
L 769.537003 -90.169577 
L 765.713339 -95.877403 
L 761.889676 -102.988192 
L 758.066012 -111.657463 
L 754.242348 -121.92241 
L 750.418684 -133.711522 
L 746.595021 -146.919267 
L 742.771357 -161.487479 
L 738.947693 -177.402072 
L 735.124029 -194.580218 
L 731.300365 -212.746426 
L 727.476702 -231.450096 
L 723.653038 -250.279469 
L 719.829374 -269.141288 
L 716.00571 -288.372407 
L 712.182047 -308.543414 
L 708.358383 -330.041418 
L 704.534719 -352.688952 
L 700.711055 -375.631495 
L 696.887392 -397.54436 
L 693.063728 -417.02417 
L 689.240064 -432.960045 
L 685.4164 -444.730082 
L 681.592736 -452.174797 
L 677.769073 -455.4 
L 673.945409 -454.525236 
L 670.121745 -449.505859 
L 666.298081 -440.116208 
L 662.474418 -426.103944 
L 658.650754 -407.440721 
L 654.82709 -384.539504 
L 651.003426 -358.321469 
L 647.179762 -330.100417 
L 643.356099 -301.354209 
L 639.532435 -273.490947 
L 635.708771 -247.672944 
L 631.885107 -224.697417 
L 628.061444 -204.918029 
L 624.23778 -188.222803 
L 620.414116 -174.104569 
L 616.590452 -161.833233 
L 612.766788 -150.683499 
L 608.943125 -140.134601 
L 605.119461 -129.969841 
L 601.295797 -120.254498 
L 597.472133 -111.225424 
L 593.64847 -103.152047 
L 589.824806 -96.220335 
L 586.001142 -90.467246 
L 582.177478 -85.773622 
L 578.353815 -81.911313 
L 574.530151 -78.625426 
L 570.706487 -75.715956 
L 566.882823 -73.081565 
L 563.059159 -70.711892 
L 559.235496 -68.645991 
L 555.411832 -66.926099 
L 551.588168 -65.564222 
L 547.764504 -64.525131 
L 543.940841 -63.727932 
L 540.117177 -63.06975 
L 536.293513 -62.465601 
L 532.469849 -61.883698 
L 528.646185 -61.353314 
L 524.822522 -60.938693 
L 520.998858 -60.694205 
L 517.175194 -60.626188 
L 513.35153 -60.68136 
L 509.527867 -60.766702 
L 505.704203 -60.789723 
L 501.880539 -60.69755 
L 498.056875 -60.494243 
L 494.233212 -60.229217 
L 490.409548 -59.967648 
L 486.585884 -59.762934 
L 482.76222 -59.645325 
L 478.938556 -59.626253 
L 475.114893 -59.707068 
L 471.291229 -59.880872 
L 467.467565 -60.12521 
L 463.643901 -60.393952 
L 459.820238 -60.620726 
L 455.996574 -60.73918 
L 452.17291 -60.711353 
L 448.349246 -60.54602 
L 444.525582 -60.293803 
L 440.701919 -60.022107 
L 436.878255 -59.786422 
L 433.054591 -59.614206 
L 429.230927 -59.505967 
L 425.407264 -59.446783 
L 421.5836 -59.418432 
L 417.759936 -59.406481 
L 413.936272 -59.402034 
L 410.112608 -59.400569 
L 406.288945 -59.400142 
L 402.465281 -59.400032 
L 398.641617 -59.400006 
L 394.817953 -59.400001 
L 390.99429 -59.4 
L 387.170626 -59.4 
L 383.346962 -59.4 
L 379.523298 -59.4 
L 375.699635 -59.4 
L 371.875971 -59.4 
L 368.052307 -59.4 
L 364.228643 -59.4 
L 360.404979 -59.4 
L 356.581316 -59.4 
L 352.757652 -59.4 
L 348.933988 -59.4 
L 345.110324 -59.4 
L 341.286661 -59.4 
L 337.462997 -59.4 
L 333.639333 -59.4 
L 329.815669 -59.4 
L 325.992005 -59.4 
L 322.168342 -59.4 
L 318.344678 -59.4 
L 314.521014 -59.4 
L 310.69735 -59.4 
L 306.873687 -59.4 
L 303.050023 -59.4 
L 299.226359 -59.4 
L 295.402695 -59.4 
L 291.579032 -59.4 
L 287.755368 -59.4 
L 283.931704 -59.4 
L 280.10804 -59.4 
L 276.284376 -59.4 
L 272.460713 -59.4 
L 268.637049 -59.400001 
L 264.813385 -59.400003 
L 260.989721 -59.400016 
L 257.166058 -59.400076 
L 253.342394 -59.400321 
L 249.51873 -59.401203 
L 245.695066 -59.404023 
L 241.871402 -59.412007 
L 238.047739 -59.431978 
L 234.224075 -59.47601 
L 230.400411 -59.561233 
L 226.576747 -59.705219 
L 222.753084 -59.915635 
L 218.92942 -60.177401 
L 215.105756 -60.445973 
L 211.282092 -60.65594 
L 207.458429 -60.745829 
L 203.634765 -60.687015 
L 199.811101 -60.498373 
L 195.987437 -60.236544 
L 192.163773 -59.968592 
L 188.34011 -59.744894 
L 184.516446 -59.586699 
L 180.692782 -59.490193 
L 176.869118 -59.438884 
L 173.045455 -59.414961 
z
" style="stroke: #4c72b0"/>
    </defs>
    <g clip-path="url(#p855264bbf3)">
     <use xlink:href="#m897a36ce6d" x="0" y="540" style="fill: #4c72b0; fill-opacity: 0.25; stroke: #4c72b0"/>
    </g>
   </g>
   <g id="line2d_37">
    <path d="M 393.217144 480.6 
L 393.217144 64.8 
" clip-path="url(#p855264bbf3)" style="fill: none; stroke-dasharray: 2.96,1.28; stroke-dashoffset: 0; stroke: #d3d3d3; stroke-width: 0.8"/>
   </g>
   <g id="line2d_38">
    <path d="M 583.175246 480.6 
L 583.175246 64.8 
" clip-path="url(#p855264bbf3)" style="fill: none; stroke-dasharray: 2.96,1.28; stroke-dashoffset: 0; stroke: #d3d3d3; stroke-width: 0.8"/>
   </g>
   <g id="line2d_39">
    <path d="M 509.931383 480.6 
L 509.931383 64.8 
" clip-path="url(#p855264bbf3)" style="fill: none; stroke-dasharray: 2.96,1.28; stroke-dashoffset: 0; stroke: #d3d3d3; stroke-width: 0.8"/>
   </g>
   <g id="line2d_40">
    <path d="M 135 480.6 
L 972 480.6 
" clip-path="url(#p855264bbf3)" style="fill: none; stroke: #808080; stroke-width: 0.5; stroke-linecap: round"/>
   </g>
   <g id="text_12">
    <!-- International Poverty Line: $2.15 -->
    <g style="fill: #808080" transform="translate(399.470894 184.13675) rotate(-90) scale(0.08 -0.08)">
     <defs>
      <path id="ArialMT-6c" d="M 409 0 
L 409 4581 
L 972 4581 
L 972 0 
L 409 0 
z
" transform="scale(0.015625)"/>
      <path id="ArialMT-50" d="M 494 0 
L 494 4581 
L 2222 4581 
Q 2678 4581 2919 4538 
Q 3256 4481 3484 4323 
Q 3713 4166 3852 3881 
Q 3991 3597 3991 3256 
Q 3991 2672 3619 2267 
Q 3247 1863 2275 1863 
L 1100 1863 
L 1100 0 
L 494 0 
z
M 1100 2403 
L 2284 2403 
Q 2872 2403 3119 2622 
Q 3366 2841 3366 3238 
Q 3366 3525 3220 3729 
Q 3075 3934 2838 4000 
Q 2684 4041 2272 4041 
L 1100 4041 
L 1100 2403 
z
" transform="scale(0.015625)"/>
      <path id="ArialMT-76" d="M 1344 0 
L 81 3319 
L 675 3319 
L 1388 1331 
Q 1503 1009 1600 663 
Q 1675 925 1809 1294 
L 2547 3319 
L 3125 3319 
L 1869 0 
L 1344 0 
z
" transform="scale(0.015625)"/>
      <path id="ArialMT-4c" d="M 469 0 
L 469 4581 
L 1075 4581 
L 1075 541 
L 3331 541 
L 3331 0 
L 469 0 
z
" transform="scale(0.015625)"/>
      <path id="ArialMT-3a" d="M 578 2678 
L 578 3319 
L 1219 3319 
L 1219 2678 
L 578 2678 
z
M 578 0 
L 578 641 
L 1219 641 
L 1219 0 
L 578 0 
z
" transform="scale(0.015625)"/>
      <path id="ArialMT-24" d="M 1594 -659 
L 1594 -97 
Q 1172 -44 908 92 
Q 644 228 451 531 
Q 259 834 228 1272 
L 794 1378 
Q 859 925 1025 713 
Q 1263 413 1594 378 
L 1594 2169 
Q 1247 2234 884 2438 
Q 616 2588 470 2853 
Q 325 3119 325 3456 
Q 325 4056 750 4428 
Q 1034 4678 1594 4734 
L 1594 5003 
L 1925 5003 
L 1925 4734 
Q 2416 4688 2703 4447 
Q 3072 4141 3147 3606 
L 2566 3519 
Q 2516 3850 2358 4026 
Q 2200 4203 1925 4259 
L 1925 2638 
Q 2350 2531 2488 2472 
Q 2750 2356 2915 2190 
Q 3081 2025 3170 1797 
Q 3259 1569 3259 1303 
Q 3259 719 2887 328 
Q 2516 -63 1925 -91 
L 1925 -659 
L 1594 -659 
z
M 1594 4266 
Q 1266 4216 1077 4003 
Q 888 3791 888 3500 
Q 888 3213 1048 3019 
Q 1209 2825 1594 2709 
L 1594 4266 
z
M 1925 378 
Q 2253 419 2467 662 
Q 2681 906 2681 1266 
Q 2681 1572 2529 1758 
Q 2378 1944 1925 2091 
L 1925 378 
z
" transform="scale(0.015625)"/>
      <path id="ArialMT-2e" d="M 581 0 
L 581 641 
L 1222 641 
L 1222 0 
L 581 0 
z
" transform="scale(0.015625)"/>
     </defs>
     <use xlink:href="#ArialMT-49"/>
     <use xlink:href="#ArialMT-6e" transform="translate(27.783203 0)"/>
     <use xlink:href="#ArialMT-74" transform="translate(83.398438 0)"/>
     <use xlink:href="#ArialMT-65" transform="translate(111.181641 0)"/>
     <use xlink:href="#ArialMT-72" transform="translate(166.796875 0)"/>
     <use xlink:href="#ArialMT-6e" transform="translate(200.097656 0)"/>
     <use xlink:href="#ArialMT-61" transform="translate(255.712891 0)"/>
     <use xlink:href="#ArialMT-74" transform="translate(311.328125 0)"/>
     <use xlink:href="#ArialMT-69" transform="translate(339.111328 0)"/>
     <use xlink:href="#ArialMT-6f" transform="translate(361.328125 0)"/>
     <use xlink:href="#ArialMT-6e" transform="translate(416.943359 0)"/>
     <use xlink:href="#ArialMT-61" transform="translate(472.558594 0)"/>
     <use xlink:href="#ArialMT-6c" transform="translate(528.173828 0)"/>
     <use xlink:href="#ArialMT-20" transform="translate(550.390625 0)"/>
     <use xlink:href="#ArialMT-50" transform="translate(578.173828 0)"/>
     <use xlink:href="#ArialMT-6f" transform="translate(644.873047 0)"/>
     <use xlink:href="#ArialMT-76" transform="translate(700.488281 0)"/>
     <use xlink:href="#ArialMT-65" transform="translate(750.488281 0)"/>
     <use xlink:href="#ArialMT-72" transform="translate(806.103516 0)"/>
     <use xlink:href="#ArialMT-74" transform="translate(839.404297 0)"/>
     <use xlink:href="#ArialMT-79" transform="translate(867.1875 0)"/>
     <use xlink:href="#ArialMT-20" transform="translate(917.1875 0)"/>
     <use xlink:href="#ArialMT-4c" transform="translate(944.970703 0)"/>
     <use xlink:href="#ArialMT-69" transform="translate(1000.585938 0)"/>
     <use xlink:href="#ArialMT-6e" transform="translate(1022.802734 0)"/>
     <use xlink:href="#ArialMT-65" transform="translate(1078.417969 0)"/>
     <use xlink:href="#ArialMT-3a" transform="translate(1134.033203 0)"/>
     <use xlink:href="#ArialMT-20" transform="translate(1161.816406 0)"/>
     <use xlink:href="#ArialMT-24" transform="translate(1189.599609 0)"/>
     <use xlink:href="#ArialMT-32" transform="translate(1245.214844 0)"/>
     <use xlink:href="#ArialMT-2e" transform="translate(1300.830078 0)"/>
     <use xlink:href="#ArialMT-31" transform="translate(1328.613281 0)"/>
     <use xlink:href="#ArialMT-35" transform="translate(1384.228516 0)"/>
    </g>
   </g>
   <g id="text_13">
    <!-- World mean: $19.18 -->
    <g style="fill: #808080" transform="translate(588.901496 140.85175) rotate(-90) scale(0.08 -0.08)">
     <defs>
      <path id="ArialMT-57" d="M 1294 0 
L 78 4581 
L 700 4581 
L 1397 1578 
Q 1509 1106 1591 641 
Q 1766 1375 1797 1488 
L 2669 4581 
L 3400 4581 
L 4056 2263 
Q 4303 1400 4413 641 
Q 4500 1075 4641 1638 
L 5359 4581 
L 5969 4581 
L 4713 0 
L 4128 0 
L 3163 3491 
Q 3041 3928 3019 4028 
Q 2947 3713 2884 3491 
L 1913 0 
L 1294 0 
z
" transform="scale(0.015625)"/>
      <path id="ArialMT-39" d="M 350 1059 
L 891 1109 
Q 959 728 1153 556 
Q 1347 384 1650 384 
Q 1909 384 2104 503 
Q 2300 622 2425 820 
Q 2550 1019 2634 1356 
Q 2719 1694 2719 2044 
Q 2719 2081 2716 2156 
Q 2547 1888 2255 1720 
Q 1963 1553 1622 1553 
Q 1053 1553 659 1965 
Q 266 2378 266 3053 
Q 266 3750 677 4175 
Q 1088 4600 1706 4600 
Q 2153 4600 2523 4359 
Q 2894 4119 3086 3673 
Q 3278 3228 3278 2384 
Q 3278 1506 3087 986 
Q 2897 466 2520 194 
Q 2144 -78 1638 -78 
Q 1100 -78 759 220 
Q 419 519 350 1059 
z
M 2653 3081 
Q 2653 3566 2395 3850 
Q 2138 4134 1775 4134 
Q 1400 4134 1122 3828 
Q 844 3522 844 3034 
Q 844 2597 1108 2323 
Q 1372 2050 1759 2050 
Q 2150 2050 2401 2323 
Q 2653 2597 2653 3081 
z
" transform="scale(0.015625)"/>
      <path id="ArialMT-38" d="M 1131 2484 
Q 781 2613 612 2850 
Q 444 3088 444 3419 
Q 444 3919 803 4259 
Q 1163 4600 1759 4600 
Q 2359 4600 2725 4251 
Q 3091 3903 3091 3403 
Q 3091 3084 2923 2848 
Q 2756 2613 2416 2484 
Q 2838 2347 3058 2040 
Q 3278 1734 3278 1309 
Q 3278 722 2862 322 
Q 2447 -78 1769 -78 
Q 1091 -78 675 323 
Q 259 725 259 1325 
Q 259 1772 486 2073 
Q 713 2375 1131 2484 
z
M 1019 3438 
Q 1019 3113 1228 2906 
Q 1438 2700 1772 2700 
Q 2097 2700 2305 2904 
Q 2513 3109 2513 3406 
Q 2513 3716 2298 3927 
Q 2084 4138 1766 4138 
Q 1444 4138 1231 3931 
Q 1019 3725 1019 3438 
z
M 838 1322 
Q 838 1081 952 856 
Q 1066 631 1291 507 
Q 1516 384 1775 384 
Q 2178 384 2440 643 
Q 2703 903 2703 1303 
Q 2703 1709 2433 1975 
Q 2163 2241 1756 2241 
Q 1359 2241 1098 1978 
Q 838 1716 838 1322 
z
" transform="scale(0.015625)"/>
     </defs>
     <use xlink:href="#ArialMT-57"/>
     <use xlink:href="#ArialMT-6f" transform="translate(92.634766 0)"/>
     <use xlink:href="#ArialMT-72" transform="translate(148.25 0)"/>
     <use xlink:href="#ArialMT-6c" transform="translate(181.550781 0)"/>
     <use xlink:href="#ArialMT-64" transform="translate(203.767578 0)"/>
     <use xlink:href="#ArialMT-20" transform="translate(259.382812 0)"/>
     <use xlink:href="#ArialMT-6d" transform="translate(287.166016 0)"/>
     <use xlink:href="#ArialMT-65" transform="translate(370.466797 0)"/>
     <use xlink:href="#ArialMT-61" transform="translate(426.082031 0)"/>
     <use xlink:href="#ArialMT-6e" transform="translate(481.697266 0)"/>
     <use xlink:href="#ArialMT-3a" transform="translate(537.3125 0)"/>
     <use xlink:href="#ArialMT-20" transform="translate(565.095703 0)"/>
     <use xlink:href="#ArialMT-24" transform="translate(592.878906 0)"/>
     <use xlink:href="#ArialMT-31" transform="translate(648.494141 0)"/>
     <use xlink:href="#ArialMT-39" transform="translate(704.109375 0)"/>
     <use xlink:href="#ArialMT-2e" transform="translate(759.724609 0)"/>
     <use xlink:href="#ArialMT-31" transform="translate(787.507812 0)"/>
     <use xlink:href="#ArialMT-38" transform="translate(843.123047 0)"/>
    </g>
   </g>
   <g id="text_14">
    <!-- World median: $8.25 -->
    <g style="fill: #808080" transform="translate(515.657633 142.62925) rotate(-90) scale(0.08 -0.08)">
     <use xlink:href="#ArialMT-57"/>
     <use xlink:href="#ArialMT-6f" transform="translate(92.634766 0)"/>
     <use xlink:href="#ArialMT-72" transform="translate(148.25 0)"/>
     <use xlink:href="#ArialMT-6c" transform="translate(181.550781 0)"/>
     <use xlink:href="#ArialMT-64" transform="translate(203.767578 0)"/>
     <use xlink:href="#ArialMT-20" transform="translate(259.382812 0)"/>
     <use xlink:href="#ArialMT-6d" transform="translate(287.166016 0)"/>
     <use xlink:href="#ArialMT-65" transform="translate(370.466797 0)"/>
     <use xlink:href="#ArialMT-64" transform="translate(426.082031 0)"/>
     <use xlink:href="#ArialMT-69" transform="translate(481.697266 0)"/>
     <use xlink:href="#ArialMT-61" transform="translate(503.914062 0)"/>
     <use xlink:href="#ArialMT-6e" transform="translate(559.529297 0)"/>
     <use xlink:href="#ArialMT-3a" transform="translate(615.144531 0)"/>
     <use xlink:href="#ArialMT-20" transform="translate(642.927734 0)"/>
     <use xlink:href="#ArialMT-24" transform="translate(670.710938 0)"/>
     <use xlink:href="#ArialMT-38" transform="translate(726.326172 0)"/>
     <use xlink:href="#ArialMT-2e" transform="translate(781.941406 0)"/>
     <use xlink:href="#ArialMT-32" transform="translate(809.724609 0)"/>
     <use xlink:href="#ArialMT-35" transform="translate(865.339844 0)"/>
    </g>
   </g>
   <g id="legend_1">
    <g id="patch_3">
     <path d="M 811.6 198.635 
L 884.164062 198.635 
Q 886.164062 198.635 886.164062 196.635 
L 886.164062 154.96 
Q 886.164062 152.96 884.164062 152.96 
L 811.6 152.96 
Q 809.6 152.96 809.6 154.96 
L 809.6 196.635 
Q 809.6 198.635 811.6 198.635 
z
" style="fill: #ffffff; opacity: 0.8; stroke: #cccccc; stroke-linejoin: miter"/>
    </g>
    <g id="text_15">
     <!-- Country -->
     <g style="fill: #262626" transform="translate(830.375781 164.239688) scale(0.1 -0.1)">
      <defs>
       <path id="ArialMT-43" d="M 3763 1606 
L 4369 1453 
Q 4178 706 3683 314 
Q 3188 -78 2472 -78 
Q 1731 -78 1267 223 
Q 803 525 561 1097 
Q 319 1669 319 2325 
Q 319 3041 592 3573 
Q 866 4106 1370 4382 
Q 1875 4659 2481 4659 
Q 3169 4659 3637 4309 
Q 4106 3959 4291 3325 
L 3694 3184 
Q 3534 3684 3231 3912 
Q 2928 4141 2469 4141 
Q 1941 4141 1586 3887 
Q 1231 3634 1087 3207 
Q 944 2781 944 2328 
Q 944 1744 1114 1308 
Q 1284 872 1643 656 
Q 2003 441 2422 441 
Q 2931 441 3284 734 
Q 3638 1028 3763 1606 
z
" transform="scale(0.015625)"/>
      </defs>
      <use xlink:href="#ArialMT-43"/>
      <use xlink:href="#ArialMT-6f" transform="translate(72.216797 0)"/>
      <use xlink:href="#ArialMT-75" transform="translate(127.832031 0)"/>
      <use xlink:href="#ArialMT-6e" transform="translate(183.447266 0)"/>
      <use xlink:href="#ArialMT-74" transform="translate(239.0625 0)"/>
      <use xlink:href="#ArialMT-72" transform="translate(266.845703 0)"/>
      <use xlink:href="#ArialMT-79" transform="translate(300.146484 0)"/>
     </g>
    </g>
    <g id="patch_4">
     <path d="M 813.6 178.502187 
L 833.6 178.502187 
L 833.6 171.502187 
L 813.6 171.502187 
z
" style="fill: #4c72b0; fill-opacity: 0.25; stroke: #4c72b0; stroke-linejoin: miter"/>
    </g>
    <g id="text_16">
     <!-- Denmark -->
     <g style="fill: #262626" transform="translate(841.6 178.502187) scale(0.1 -0.1)">
      <defs>
       <path id="ArialMT-44" d="M 494 0 
L 494 4581 
L 2072 4581 
Q 2606 4581 2888 4516 
Q 3281 4425 3559 4188 
Q 3922 3881 4101 3404 
Q 4281 2928 4281 2316 
Q 4281 1794 4159 1391 
Q 4038 988 3847 723 
Q 3656 459 3429 307 
Q 3203 156 2883 78 
Q 2563 0 2147 0 
L 494 0 
z
M 1100 541 
L 2078 541 
Q 2531 541 2789 625 
Q 3047 709 3200 863 
Q 3416 1078 3536 1442 
Q 3656 1806 3656 2325 
Q 3656 3044 3420 3430 
Q 3184 3816 2847 3947 
Q 2603 4041 2063 4041 
L 1100 4041 
L 1100 541 
z
" transform="scale(0.015625)"/>
       <path id="ArialMT-6b" d="M 425 0 
L 425 4581 
L 988 4581 
L 988 1969 
L 2319 3319 
L 3047 3319 
L 1778 2088 
L 3175 0 
L 2481 0 
L 1384 1697 
L 988 1316 
L 988 0 
L 425 0 
z
" transform="scale(0.015625)"/>
      </defs>
      <use xlink:href="#ArialMT-44"/>
      <use xlink:href="#ArialMT-65" transform="translate(72.216797 0)"/>
      <use xlink:href="#ArialMT-6e" transform="translate(127.832031 0)"/>
      <use xlink:href="#ArialMT-6d" transform="translate(183.447266 0)"/>
      <use xlink:href="#ArialMT-61" transform="translate(266.748047 0)"/>
      <use xlink:href="#ArialMT-72" transform="translate(322.363281 0)"/>
      <use xlink:href="#ArialMT-6b" transform="translate(355.664062 0)"/>
     </g>
    </g>
    <g id="patch_5">
     <path d="M 813.6 192.6475 
L 833.6 192.6475 
L 833.6 185.6475 
L 813.6 185.6475 
z
" style="fill: #dd8452; fill-opacity: 0.25; stroke: #dd8452; stroke-linejoin: miter"/>
    </g>
    <g id="text_17">
     <!-- Ethiopia -->
     <g style="fill: #262626" transform="translate(841.6 192.6475) scale(0.1 -0.1)">
      <defs>
       <path id="ArialMT-45" d="M 506 0 
L 506 4581 
L 3819 4581 
L 3819 4041 
L 1113 4041 
L 1113 2638 
L 3647 2638 
L 3647 2100 
L 1113 2100 
L 1113 541 
L 3925 541 
L 3925 0 
L 506 0 
z
" transform="scale(0.015625)"/>
       <path id="ArialMT-68" d="M 422 0 
L 422 4581 
L 984 4581 
L 984 2938 
Q 1378 3394 1978 3394 
Q 2347 3394 2619 3248 
Q 2891 3103 3008 2847 
Q 3125 2591 3125 2103 
L 3125 0 
L 2563 0 
L 2563 2103 
Q 2563 2525 2380 2717 
Q 2197 2909 1863 2909 
Q 1613 2909 1392 2779 
Q 1172 2650 1078 2428 
Q 984 2206 984 1816 
L 984 0 
L 422 0 
z
" transform="scale(0.015625)"/>
      </defs>
      <use xlink:href="#ArialMT-45"/>
      <use xlink:href="#ArialMT-74" transform="translate(66.699219 0)"/>
      <use xlink:href="#ArialMT-68" transform="translate(94.482422 0)"/>
      <use xlink:href="#ArialMT-69" transform="translate(150.097656 0)"/>
      <use xlink:href="#ArialMT-6f" transform="translate(172.314453 0)"/>
      <use xlink:href="#ArialMT-70" transform="translate(227.929688 0)"/>
      <use xlink:href="#ArialMT-69" transform="translate(283.544922 0)"/>
      <use xlink:href="#ArialMT-61" transform="translate(305.761719 0)"/>
     </g>
    </g>
   </g>
  </g>
 </g>
 <defs>
  <clipPath id="p855264bbf3">
   <rect x="135" y="64.8" width="837" height="415.8"/>
  </clipPath>
 </defs>
</svg>
