<?xml version="1.0" encoding="utf-8" standalone="no"?>
<!DOCTYPE svg PUBLIC "-//W3C//DTD SVG 1.1//EN"
  "http://www.w3.org/Graphics/SVG/1.1/DTD/svg11.dtd">
<svg xmlns:xlink="http://www.w3.org/1999/xlink" width="865.302344pt" height="265.689687pt" viewBox="0 0 865.302344 265.689687" xmlns="http://www.w3.org/2000/svg" version="1.1">
 <metadata>
  <rdf:RDF xmlns:dc="http://purl.org/dc/elements/1.1/" xmlns:cc="http://creativecommons.org/ns#" xmlns:rdf="http://www.w3.org/1999/02/22-rdf-syntax-ns#">
   <cc:Work>
    <dc:type rdf:resource="http://purl.org/dc/dcmitype/StillImage"/>
    <dc:date>2026-05-21T14:04:39.044849</dc:date>
    <dc:format>image/svg+xml</dc:format>
    <dc:creator>
     <cc:Agent>
      <dc:title>Matplotlib v3.10.1, https://matplotlib.org/</dc:title>
     </cc:Agent>
    </dc:creator>
   </cc:Work>
  </rdf:RDF>
 </metadata>
 <defs>
  <style type="text/css">*{stroke-linejoin: round; stroke-linecap: butt}</style>
 </defs>
 <g id="figure_1">
  <g id="patch_1">
   <path d="M 0 265.689687 
L 865.302344 265.689687 
L 865.302344 0 
L 0 0 
z
" style="fill: #ffffff"/>
  </g>
  <g id="axes_1">
   <g id="patch_2">
    <path d="M 7.2 228.96 
L 844.2 228.96 
L 844.2 7.2 
L 7.2 7.2 
z
" style="fill: #ffffff"/>
   </g>
   <g id="matplotlib.axis_1">
    <g id="xtick_1">
     <g id="line2d_1">
      <defs>
       <path id="mcf10c5dc53" d="M 0 0 
L 0 3.5 
" style="stroke: #262626; stroke-width: 0.8"/>
      </defs>
      <g>
       <use xlink:href="#mcf10c5dc53" x="71.935772" y="228.96" style="fill: #262626; stroke: #262626; stroke-width: 0.8"/>
      </g>
     </g>
     <g id="text_1">
      <text style="font-size: 10px; font-family: 'Arial', 'DejaVu Sans', 'Liberation Sans', 'Bitstream Vera Sans', sans-serif; text-anchor: middle; fill: #262626" x="71.935772" y="243.117812" transform="rotate(-0 71.935772 243.117812)">$1</text>
     </g>
    </g>
    <g id="xtick_2">
     <g id="line2d_2">
      <g>
       <use xlink:href="#mcf10c5dc53" x="149.427337" y="228.96" style="fill: #262626; stroke: #262626; stroke-width: 0.8"/>
      </g>
     </g>
     <g id="text_2">
      <text style="font-size: 10px; font-family: 'Arial', 'DejaVu Sans', 'Liberation Sans', 'Bitstream Vera Sans', sans-serif; text-anchor: middle; fill: #262626" x="149.427337" y="243.117812" transform="rotate(-0 149.427337 243.117812)">$2</text>
     </g>
    </g>
    <g id="xtick_3">
     <g id="line2d_3">
      <g>
       <use xlink:href="#mcf10c5dc53" x="251.865615" y="228.96" style="fill: #262626; stroke: #262626; stroke-width: 0.8"/>
      </g>
     </g>
     <g id="text_3">
      <text style="font-size: 10px; font-family: 'Arial', 'DejaVu Sans', 'Liberation Sans', 'Bitstream Vera Sans', sans-serif; text-anchor: middle; fill: #262626" x="251.865615" y="243.117812" transform="rotate(-0 251.865615 243.117812)">$5</text>
     </g>
    </g>
    <g id="xtick_4">
     <g id="line2d_4">
      <g>
       <use xlink:href="#mcf10c5dc53" x="329.357181" y="228.96" style="fill: #262626; stroke: #262626; stroke-width: 0.8"/>
      </g>
     </g>
     <g id="text_4">
      <text style="font-size: 10px; font-family: 'Arial', 'DejaVu Sans', 'Liberation Sans', 'Bitstream Vera Sans', sans-serif; text-anchor: middle; fill: #262626" x="329.357181" y="243.117812" transform="rotate(-0 329.357181 243.117812)">$10</text>
     </g>
    </g>
    <g id="xtick_5">
     <g id="line2d_5">
      <g>
       <use xlink:href="#mcf10c5dc53" x="406.848747" y="228.96" style="fill: #262626; stroke: #262626; stroke-width: 0.8"/>
      </g>
     </g>
     <g id="text_5">
      <text style="font-size: 10px; font-family: 'Arial', 'DejaVu Sans', 'Liberation Sans', 'Bitstream Vera Sans', sans-serif; text-anchor: middle; fill: #262626" x="406.848747" y="243.117812" transform="rotate(-0 406.848747 243.117812)">$20</text>
     </g>
    </g>
    <g id="xtick_6">
     <g id="line2d_6">
      <g>
       <use xlink:href="#mcf10c5dc53" x="509.287025" y="228.96" style="fill: #262626; stroke: #262626; stroke-width: 0.8"/>
      </g>
     </g>
     <g id="text_6">
      <text style="font-size: 10px; font-family: 'Arial', 'DejaVu Sans', 'Liberation Sans', 'Bitstream Vera Sans', sans-serif; text-anchor: middle; fill: #262626" x="509.287025" y="243.117812" transform="rotate(-0 509.287025 243.117812)">$50</text>
     </g>
    </g>
    <g id="xtick_7">
     <g id="line2d_7">
      <g>
       <use xlink:href="#mcf10c5dc53" x="586.778591" y="228.96" style="fill: #262626; stroke: #262626; stroke-width: 0.8"/>
      </g>
     </g>
     <g id="text_7">
      <text style="font-size: 10px; font-family: 'Arial', 'DejaVu Sans', 'Liberation Sans', 'Bitstream Vera Sans', sans-serif; text-anchor: middle; fill: #262626" x="586.778591" y="243.117812" transform="rotate(-0 586.778591 243.117812)">$100</text>
     </g>
    </g>
    <g id="xtick_8">
     <g id="line2d_8">
      <g>
       <use xlink:href="#mcf10c5dc53" x="664.270156" y="228.96" style="fill: #262626; stroke: #262626; stroke-width: 0.8"/>
      </g>
     </g>
     <g id="text_8">
      <text style="font-size: 10px; font-family: 'Arial', 'DejaVu Sans', 'Liberation Sans', 'Bitstream Vera Sans', sans-serif; text-anchor: middle; fill: #262626" x="664.270156" y="243.117812" transform="rotate(-0 664.270156 243.117812)">$200</text>
     </g>
    </g>
    <g id="xtick_9">
     <g id="line2d_9">
      <g>
       <use xlink:href="#mcf10c5dc53" x="766.708434" y="228.96" style="fill: #262626; stroke: #262626; stroke-width: 0.8"/>
      </g>
     </g>
     <g id="text_9">
      <text style="font-size: 10px; font-family: 'Arial', 'DejaVu Sans', 'Liberation Sans', 'Bitstream Vera Sans', sans-serif; text-anchor: middle; fill: #262626" x="766.708434" y="243.117812" transform="rotate(-0 766.708434 243.117812)">$500</text>
     </g>
    </g>
    <g id="xtick_10">
     <g id="line2d_10">
      <g>
       <use xlink:href="#mcf10c5dc53" x="844.2" y="228.96" style="fill: #262626; stroke: #262626; stroke-width: 0.8"/>
      </g>
     </g>
     <g id="text_10">
      <text style="font-size: 10px; font-family: 'Arial', 'DejaVu Sans', 'Liberation Sans', 'Bitstream Vera Sans', sans-serif; text-anchor: middle; fill: #262626" x="844.2" y="243.117812" transform="rotate(-0 844.2 243.117812)">$1000</text>
     </g>
    </g>
    <g id="xtick_11">
     <g id="line2d_11">
      <defs>
       <path id="m28622809d0" d="M 0 0 
L 0 2 
" style="stroke: #262626; stroke-width: 0.6"/>
      </defs>
      <g>
       <use xlink:href="#m28622809d0" x="14.827154" y="228.96" style="fill: #262626; stroke: #262626; stroke-width: 0.6"/>
      </g>
     </g>
    </g>
    <g id="xtick_12">
     <g id="line2d_12">
      <g>
       <use xlink:href="#m28622809d0" x="32.060691" y="228.96" style="fill: #262626; stroke: #262626; stroke-width: 0.6"/>
      </g>
     </g>
    </g>
    <g id="xtick_13">
     <g id="line2d_13">
      <g>
       <use xlink:href="#m28622809d0" x="46.98906" y="228.96" style="fill: #262626; stroke: #262626; stroke-width: 0.6"/>
      </g>
     </g>
    </g>
    <g id="xtick_14">
     <g id="line2d_14">
      <g>
       <use xlink:href="#m28622809d0" x="60.156814" y="228.96" style="fill: #262626; stroke: #262626; stroke-width: 0.6"/>
      </g>
     </g>
    </g>
    <g id="xtick_15">
     <g id="line2d_15">
      <g>
       <use xlink:href="#m28622809d0" x="194.756998" y="228.96" style="fill: #262626; stroke: #262626; stroke-width: 0.6"/>
      </g>
     </g>
    </g>
    <g id="xtick_16">
     <g id="line2d_16">
      <g>
       <use xlink:href="#m28622809d0" x="226.918903" y="228.96" style="fill: #262626; stroke: #262626; stroke-width: 0.6"/>
      </g>
     </g>
    </g>
    <g id="xtick_17">
     <g id="line2d_17">
      <g>
       <use xlink:href="#m28622809d0" x="272.248563" y="228.96" style="fill: #262626; stroke: #262626; stroke-width: 0.6"/>
      </g>
     </g>
    </g>
    <g id="xtick_18">
     <g id="line2d_18">
      <g>
       <use xlink:href="#m28622809d0" x="289.4821" y="228.96" style="fill: #262626; stroke: #262626; stroke-width: 0.6"/>
      </g>
     </g>
    </g>
    <g id="xtick_19">
     <g id="line2d_19">
      <g>
       <use xlink:href="#m28622809d0" x="304.410469" y="228.96" style="fill: #262626; stroke: #262626; stroke-width: 0.6"/>
      </g>
     </g>
    </g>
    <g id="xtick_20">
     <g id="line2d_20">
      <g>
       <use xlink:href="#m28622809d0" x="317.578223" y="228.96" style="fill: #262626; stroke: #262626; stroke-width: 0.6"/>
      </g>
     </g>
    </g>
    <g id="xtick_21">
     <g id="line2d_21">
      <g>
       <use xlink:href="#m28622809d0" x="452.178407" y="228.96" style="fill: #262626; stroke: #262626; stroke-width: 0.6"/>
      </g>
     </g>
    </g>
    <g id="xtick_22">
     <g id="line2d_22">
      <g>
       <use xlink:href="#m28622809d0" x="484.340313" y="228.96" style="fill: #262626; stroke: #262626; stroke-width: 0.6"/>
      </g>
     </g>
    </g>
    <g id="xtick_23">
     <g id="line2d_23">
      <g>
       <use xlink:href="#m28622809d0" x="529.669973" y="228.96" style="fill: #262626; stroke: #262626; stroke-width: 0.6"/>
      </g>
     </g>
    </g>
    <g id="xtick_24">
     <g id="line2d_24">
      <g>
       <use xlink:href="#m28622809d0" x="546.90351" y="228.96" style="fill: #262626; stroke: #262626; stroke-width: 0.6"/>
      </g>
     </g>
    </g>
    <g id="xtick_25">
     <g id="line2d_25">
      <g>
       <use xlink:href="#m28622809d0" x="561.831878" y="228.96" style="fill: #262626; stroke: #262626; stroke-width: 0.6"/>
      </g>
     </g>
    </g>
    <g id="xtick_26">
     <g id="line2d_26">
      <g>
       <use xlink:href="#m28622809d0" x="574.999633" y="228.96" style="fill: #262626; stroke: #262626; stroke-width: 0.6"/>
      </g>
     </g>
    </g>
    <g id="xtick_27">
     <g id="line2d_27">
      <g>
       <use xlink:href="#m28622809d0" x="709.599816" y="228.96" style="fill: #262626; stroke: #262626; stroke-width: 0.6"/>
      </g>
     </g>
    </g>
    <g id="xtick_28">
     <g id="line2d_28">
      <g>
       <use xlink:href="#m28622809d0" x="741.761722" y="228.96" style="fill: #262626; stroke: #262626; stroke-width: 0.6"/>
      </g>
     </g>
    </g>
    <g id="xtick_29">
     <g id="line2d_29">
      <g>
       <use xlink:href="#m28622809d0" x="787.091382" y="228.96" style="fill: #262626; stroke: #262626; stroke-width: 0.6"/>
      </g>
     </g>
    </g>
    <g id="xtick_30">
     <g id="line2d_30">
      <g>
       <use xlink:href="#m28622809d0" x="804.324919" y="228.96" style="fill: #262626; stroke: #262626; stroke-width: 0.6"/>
      </g>
     </g>
    </g>
    <g id="xtick_31">
     <g id="line2d_31">
      <g>
       <use xlink:href="#m28622809d0" x="819.253288" y="228.96" style="fill: #262626; stroke: #262626; stroke-width: 0.6"/>
      </g>
     </g>
    </g>
    <g id="xtick_32">
     <g id="line2d_32">
      <g>
       <use xlink:href="#m28622809d0" x="832.421042" y="228.96" style="fill: #262626; stroke: #262626; stroke-width: 0.6"/>
      </g>
     </g>
    </g>
    <g id="text_11">
     <text style="font-size: 10px; font-family: 'Arial', 'DejaVu Sans', 'Liberation Sans', 'Bitstream Vera Sans', sans-serif; text-anchor: middle; fill: #262626" x="425.7" y="256.385" transform="rotate(-0 425.7 256.385)">Income or consumption (day)</text>
    </g>
   </g>
   <g id="matplotlib.axis_2"/>
   <g id="FillBetweenPolyCollection_1">
    <defs>
     <path id="m15a537e676" d="M 41.221105 -36.758835 
L 41.221105 -36.729688 
L 43.119091 -36.729688 
L 45.017077 -36.729688 
L 46.915063 -36.729688 
L 48.813048 -36.729688 
L 50.711034 -36.729688 
L 52.60902 -36.729688 
L 54.507006 -36.729688 
L 56.404992 -36.729688 
L 58.302978 -36.729688 
L 60.200964 -36.729688 
L 62.09895 -36.729688 
L 63.996935 -36.729688 
L 65.894921 -36.729688 
L 67.792907 -36.729688 
L 69.690893 -36.729688 
L 71.588879 -36.729688 
L 73.486865 -36.729688 
L 75.384851 -36.729688 
L 77.282837 -36.729688 
L 79.180823 -36.729688 
L 81.078808 -36.729688 
L 82.976794 -36.729688 
L 84.87478 -36.729688 
L 86.772766 -36.729688 
L 88.670752 -36.729688 
L 90.568738 -36.729688 
L 92.466724 -36.729688 
L 94.36471 -36.729688 
L 96.262696 -36.729688 
L 98.160681 -36.729688 
L 100.058667 -36.729688 
L 101.956653 -36.729688 
L 103.854639 -36.729688 
L 105.752625 -36.729688 
L 107.650611 -36.729688 
L 109.548597 -36.729688 
L 111.446583 -36.729688 
L 113.344569 -36.729688 
L 115.242554 -36.729688 
L 117.14054 -36.729688 
L 119.038526 -36.729688 
L 120.936512 -36.729688 
L 122.834498 -36.729688 
L 124.732484 -36.729688 
L 126.63047 -36.729688 
L 128.528456 -36.729688 
L 130.426441 -36.729688 
L 132.324427 -36.729688 
L 134.222413 -36.729688 
L 136.120399 -36.729688 
L 138.018385 -36.729688 
L 139.916371 -36.729688 
L 141.814357 -36.729688 
L 143.712343 -36.729688 
L 145.610329 -36.729688 
L 147.508314 -36.729688 
L 149.4063 -36.729688 
L 151.304286 -36.729688 
L 153.202272 -36.729688 
L 155.100258 -36.729688 
L 156.998244 -36.729688 
L 158.89623 -36.729688 
L 160.794216 -36.729688 
L 162.692202 -36.729688 
L 164.590187 -36.729688 
L 166.488173 -36.729688 
L 168.386159 -36.729688 
L 170.284145 -36.729688 
L 172.182131 -36.729688 
L 174.080117 -36.729688 
L 175.978103 -36.729688 
L 177.876089 -36.729688 
L 179.774074 -36.729688 
L 181.67206 -36.729688 
L 183.570046 -36.729688 
L 185.468032 -36.729688 
L 187.366018 -36.729688 
L 189.264004 -36.729688 
L 191.16199 -36.729688 
L 193.059976 -36.729688 
L 194.957962 -36.729688 
L 196.855947 -36.729688 
L 198.753933 -36.729688 
L 200.651919 -36.729688 
L 202.549905 -36.729688 
L 204.447891 -36.729688 
L 206.345877 -36.729688 
L 208.243863 -36.729688 
L 210.141849 -36.729688 
L 212.039835 -36.729688 
L 213.93782 -36.729688 
L 215.835806 -36.729688 
L 217.733792 -36.729688 
L 219.631778 -36.729688 
L 221.529764 -36.729688 
L 223.42775 -36.729688 
L 225.325736 -36.729688 
L 227.223722 -36.729688 
L 229.121708 -36.729688 
L 231.019693 -36.729688 
L 232.917679 -36.729688 
L 234.815665 -36.729688 
L 236.713651 -36.729688 
L 238.611637 -36.729688 
L 240.509623 -36.729688 
L 242.407609 -36.729688 
L 244.305595 -36.729688 
L 246.20358 -36.729688 
L 248.101566 -36.729688 
L 249.999552 -36.729688 
L 251.897538 -36.729688 
L 253.795524 -36.729688 
L 255.69351 -36.729688 
L 257.591496 -36.729688 
L 259.489482 -36.729688 
L 261.387468 -36.729688 
L 263.285453 -36.729688 
L 265.183439 -36.729688 
L 267.081425 -36.729688 
L 268.979411 -36.729688 
L 270.877397 -36.729688 
L 272.775383 -36.729688 
L 274.673369 -36.729688 
L 276.571355 -36.729688 
L 278.469341 -36.729688 
L 280.367326 -36.729688 
L 282.265312 -36.729688 
L 284.163298 -36.729688 
L 286.061284 -36.729688 
L 287.95927 -36.729688 
L 289.857256 -36.729688 
L 291.755242 -36.729688 
L 293.653228 -36.729688 
L 295.551213 -36.729688 
L 297.449199 -36.729688 
L 299.347185 -36.729688 
L 301.245171 -36.729688 
L 303.143157 -36.729688 
L 305.041143 -36.729688 
L 306.939129 -36.729688 
L 308.837115 -36.729688 
L 310.735101 -36.729688 
L 312.633086 -36.729688 
L 314.531072 -36.729688 
L 316.429058 -36.729688 
L 318.327044 -36.729688 
L 320.22503 -36.729688 
L 322.123016 -36.729688 
L 324.021002 -36.729688 
L 325.918988 -36.729688 
L 327.816974 -36.729688 
L 329.714959 -36.729688 
L 331.612945 -36.729688 
L 333.510931 -36.729688 
L 335.408917 -36.729688 
L 337.306903 -36.729688 
L 339.204889 -36.729688 
L 341.102875 -36.729688 
L 343.000861 -36.729688 
L 344.898847 -36.729688 
L 346.796832 -36.729688 
L 348.694818 -36.729688 
L 350.592804 -36.729688 
L 352.49079 -36.729688 
L 354.388776 -36.729688 
L 356.286762 -36.729688 
L 358.184748 -36.729688 
L 360.082734 -36.729688 
L 361.980719 -36.729688 
L 363.878705 -36.729688 
L 365.776691 -36.729688 
L 367.674677 -36.729688 
L 369.572663 -36.729688 
L 371.470649 -36.729688 
L 373.368635 -36.729688 
L 375.266621 -36.729688 
L 377.164607 -36.729688 
L 379.062592 -36.729688 
L 380.960578 -36.729688 
L 382.858564 -36.729688 
L 384.75655 -36.729688 
L 386.654536 -36.729688 
L 388.552522 -36.729688 
L 390.450508 -36.729688 
L 392.348494 -36.729688 
L 394.24648 -36.729688 
L 396.144465 -36.729688 
L 398.042451 -36.729688 
L 399.940437 -36.729688 
L 401.838423 -36.729688 
L 403.736409 -36.729688 
L 405.634395 -36.729688 
L 407.532381 -36.729688 
L 409.430367 -36.729688 
L 411.328352 -36.729688 
L 413.226338 -36.729688 
L 415.124324 -36.729688 
L 417.02231 -36.729688 
L 418.920296 -36.729688 
L 418.920296 -36.743233 
L 418.920296 -36.743233 
L 417.02231 -36.750396 
L 415.124324 -36.760803 
L 413.226338 -36.775646 
L 411.328352 -36.796422 
L 409.430367 -36.824961 
L 407.532381 -36.863436 
L 405.634395 -36.914344 
L 403.736409 -36.98045 
L 401.838423 -37.064702 
L 399.940437 -37.170088 
L 398.042451 -37.299476 
L 396.144465 -37.455407 
L 394.24648 -37.63989 
L 392.348494 -37.854193 
L 390.450508 -38.098682 
L 388.552522 -38.372706 
L 386.654536 -38.67458 
L 384.75655 -39.001654 
L 382.858564 -39.350501 
L 380.960578 -39.717194 
L 379.062592 -40.097665 
L 377.164607 -40.488104 
L 375.266621 -40.885357 
L 373.368635 -41.287281 
L 371.470649 -41.692997 
L 369.572663 -42.103025 
L 367.674677 -42.519266 
L 365.776691 -42.94484 
L 363.878705 -43.383785 
L 361.980719 -43.840669 
L 360.082734 -44.320147 
L 358.184748 -44.826527 
L 356.286762 -45.363384 
L 354.388776 -45.933277 
L 352.49079 -46.537589 
L 350.592804 -47.176493 
L 348.694818 -47.849053 
L 346.796832 -48.553416 
L 344.898847 -49.287082 
L 343.000861 -50.047194 
L 341.102875 -50.830838 
L 339.204889 -51.635292 
L 337.306903 -52.458232 
L 335.408917 -53.297865 
L 333.510931 -54.152996 
L 331.612945 -55.023037 
L 329.714959 -55.907955 
L 327.816974 -56.808181 
L 325.918988 -57.724493 
L 324.021002 -58.657872 
L 322.123016 -59.609362 
L 320.22503 -60.579931 
L 318.327044 -61.570356 
L 316.429058 -62.58115 
L 314.531072 -63.612538 
L 312.633086 -64.664506 
L 310.735101 -65.736916 
L 308.837115 -66.829703 
L 306.939129 -67.943125 
L 305.041143 -69.078056 
L 303.143157 -70.236286 
L 301.245171 -71.420795 
L 299.347185 -72.63594 
L 297.449199 -73.887541 
L 295.551213 -75.18281 
L 293.653228 -76.530118 
L 291.755242 -77.938585 
L 289.857256 -79.417525 
L 287.95927 -80.97577 
L 286.061284 -82.620947 
L 284.163298 -84.358771 
L 282.265312 -86.192434 
L 280.367326 -88.122175 
L 278.469341 -90.145077 
L 276.571355 -92.255137 
L 274.673369 -94.443618 
L 272.775383 -96.699648 
L 270.877397 -99.011019 
L 268.979411 -101.365106 
L 267.081425 -103.749818 
L 265.183439 -106.154505 
L 263.285453 -108.570734 
L 261.387468 -110.992893 
L 259.489482 -113.41859 
L 257.591496 -115.84884 
L 255.69351 -118.288051 
L 253.795524 -120.743826 
L 251.897538 -123.226606 
L 249.999552 -125.749175 
L 248.101566 -128.326041 
L 246.20358 -130.972717 
L 244.305595 -133.704919 
L 242.407609 -136.537717 
L 240.509623 -139.484682 
L 238.611637 -142.557081 
L 236.713651 -145.763176 
L 234.815665 -149.107687 
L 232.917679 -152.591463 
L 231.019693 -156.211349 
L 229.121708 -159.960267 
L 227.223722 -163.827418 
L 225.325736 -167.798564 
L 223.42775 -171.856279 
L 221.529764 -175.980112 
L 219.631778 -180.146607 
L 217.733792 -184.329194 
L 215.835806 -188.49801 
L 213.93782 -192.619754 
L 212.039835 -196.65773 
L 210.141849 -200.572211 
L 208.243863 -204.321263 
L 206.345877 -207.862069 
L 204.447891 -211.152731 
L 202.549905 -214.154436 
L 200.651919 -216.833762 
L 198.753933 -219.164864 
L 196.855947 -221.131238 
L 194.957962 -222.726804 
L 193.059976 -223.956106 
L 191.16199 -224.83356 
L 189.264004 -225.381779 
L 187.366018 -225.62917 
L 185.468032 -225.607079 
L 183.570046 -225.346828 
L 181.67206 -224.877005 
L 179.774074 -224.221316 
L 177.876089 -223.397217 
L 175.978103 -222.41542 
L 174.080117 -221.280231 
L 172.182131 -219.990569 
L 170.284145 -218.541425 
L 168.386159 -216.925487 
L 166.488173 -215.134669 
L 164.590187 -213.161364 
L 162.692202 -210.999291 
L 160.794216 -208.643943 
L 158.89623 -206.092698 
L 156.998244 -203.344728 
L 155.100258 -200.400852 
L 153.202272 -197.263447 
L 151.304286 -193.936506 
L 149.4063 -190.425843 
L 147.508314 -186.739385 
L 145.610329 -182.887464 
L 143.712343 -178.882985 
L 141.814357 -174.741365 
L 139.916371 -170.480186 
L 138.018385 -166.118562 
L 136.120399 -161.676283 
L 134.222413 -157.17284 
L 132.324427 -152.626501 
L 130.426441 -148.053559 
L 128.528456 -143.467894 
L 126.63047 -138.880913 
L 124.732484 -134.301861 
L 122.834498 -129.738451 
L 120.936512 -125.197674 
L 119.038526 -120.686649 
L 117.14054 -116.213336 
L 115.242554 -111.786988 
L 113.344569 -107.418253 
L 111.446583 -103.11892 
L 109.548597 -98.901355 
L 107.650611 -94.777752 
L 105.752625 -90.759341 
L 103.854639 -86.85572 
L 101.956653 -83.074425 
L 100.058667 -79.420846 
L 98.160681 -75.898479 
L 96.262696 -72.509483 
L 94.36471 -69.255431 
L 92.466724 -66.138109 
L 90.568738 -63.160222 
L 88.670752 -60.325869 
L 86.772766 -57.640701 
L 84.87478 -55.11173 
L 82.976794 -52.746807 
L 81.078808 -50.553856 
L 79.180823 -48.539967 
L 77.282837 -46.71048 
L 75.384851 -45.068191 
L 73.486865 -43.612769 
L 71.588879 -42.340458 
L 69.690893 -41.244081 
L 67.792907 -40.313332 
L 65.894921 -39.535304 
L 63.996935 -38.895171 
L 62.09895 -38.37696 
L 60.200964 -37.964311 
L 58.302978 -37.641171 
L 56.404992 -37.392371 
L 54.507006 -37.204053 
L 52.60902 -37.06395 
L 50.711034 -36.961508 
L 48.813048 -36.887899 
L 46.915063 -36.835926 
L 45.017077 -36.799869 
L 43.119091 -36.775293 
L 41.221105 -36.758835 
z
" style="stroke: #dd8452"/>
    </defs>
    <g>
     <use xlink:href="#m15a537e676" x="0" y="265.689687" style="fill: #dd8452; fill-opacity: 0.25; stroke: #dd8452"/>
    </g>
   </g>
   <g id="FillBetweenPolyCollection_2">
    <defs>
     <path id="maa846e8c7b" d="M 343.440962 -36.740956 
L 343.440962 -36.729688 
L 345.341476 -36.729688 
L 347.24199 -36.729688 
L 349.142503 -36.729688 
L 351.043017 -36.729688 
L 352.943531 -36.729688 
L 354.844045 -36.729688 
L 356.744558 -36.729688 
L 358.645072 -36.729688 
L 360.545586 -36.729688 
L 362.4461 -36.729688 
L 364.346614 -36.729688 
L 366.247127 -36.729688 
L 368.147641 -36.729688 
L 370.048155 -36.729688 
L 371.948669 -36.729688 
L 373.849182 -36.729688 
L 375.749696 -36.729688 
L 377.65021 -36.729688 
L 379.550724 -36.729688 
L 381.451237 -36.729688 
L 383.351751 -36.729688 
L 385.252265 -36.729688 
L 387.152779 -36.729688 
L 389.053293 -36.729688 
L 390.953806 -36.729688 
L 392.85432 -36.729688 
L 394.754834 -36.729688 
L 396.655348 -36.729688 
L 398.555861 -36.729688 
L 400.456375 -36.729688 
L 402.356889 -36.729688 
L 404.257403 -36.729688 
L 406.157916 -36.729688 
L 408.05843 -36.729688 
L 409.958944 -36.729688 
L 411.859458 -36.729688 
L 413.759972 -36.729688 
L 415.660485 -36.729688 
L 417.560999 -36.729688 
L 419.461513 -36.729688 
L 421.362027 -36.729688 
L 423.26254 -36.729688 
L 425.163054 -36.729688 
L 427.063568 -36.729688 
L 428.964082 -36.729688 
L 430.864596 -36.729688 
L 432.765109 -36.729688 
L 434.665623 -36.729688 
L 436.566137 -36.729688 
L 438.466651 -36.729688 
L 440.367164 -36.729688 
L 442.267678 -36.729688 
L 444.168192 -36.729688 
L 446.068706 -36.729688 
L 447.969219 -36.729688 
L 449.869733 -36.729688 
L 451.770247 -36.729688 
L 453.670761 -36.729688 
L 455.571275 -36.729688 
L 457.471788 -36.729688 
L 459.372302 -36.729688 
L 461.272816 -36.729688 
L 463.17333 -36.729688 
L 465.073843 -36.729688 
L 466.974357 -36.729688 
L 468.874871 -36.729688 
L 470.775385 -36.729688 
L 472.675898 -36.729688 
L 474.576412 -36.729688 
L 476.476926 -36.729688 
L 478.37744 -36.729688 
L 480.277954 -36.729688 
L 482.178467 -36.729688 
L 484.078981 -36.729688 
L 485.979495 -36.729688 
L 487.880009 -36.729688 
L 489.780522 -36.729688 
L 491.681036 -36.729688 
L 493.58155 -36.729688 
L 495.482064 -36.729688 
L 497.382577 -36.729688 
L 499.283091 -36.729688 
L 501.183605 -36.729688 
L 503.084119 -36.729688 
L 504.984633 -36.729688 
L 506.885146 -36.729688 
L 508.78566 -36.729688 
L 510.686174 -36.729688 
L 512.586688 -36.729688 
L 514.487201 -36.729688 
L 516.387715 -36.729688 
L 518.288229 -36.729688 
L 520.188743 -36.729688 
L 522.089256 -36.729688 
L 523.98977 -36.729688 
L 525.890284 -36.729688 
L 527.790798 -36.729688 
L 529.691312 -36.729688 
L 531.591825 -36.729688 
L 533.492339 -36.729688 
L 535.392853 -36.729688 
L 537.293367 -36.729688 
L 539.19388 -36.729688 
L 541.094394 -36.729688 
L 542.994908 -36.729688 
L 544.895422 -36.729688 
L 546.795935 -36.729688 
L 548.696449 -36.729688 
L 550.596963 -36.729688 
L 552.497477 -36.729688 
L 554.397991 -36.729688 
L 556.298504 -36.729688 
L 558.199018 -36.729688 
L 560.099532 -36.729688 
L 562.000046 -36.729688 
L 563.900559 -36.729688 
L 565.801073 -36.729688 
L 567.701587 -36.729688 
L 569.602101 -36.729688 
L 571.502614 -36.729688 
L 573.403128 -36.729688 
L 575.303642 -36.729688 
L 577.204156 -36.729688 
L 579.10467 -36.729688 
L 581.005183 -36.729688 
L 582.905697 -36.729688 
L 584.806211 -36.729688 
L 586.706725 -36.729688 
L 588.607238 -36.729688 
L 590.507752 -36.729688 
L 592.408266 -36.729688 
L 594.30878 -36.729688 
L 596.209293 -36.729688 
L 598.109807 -36.729688 
L 600.010321 -36.729688 
L 601.910835 -36.729688 
L 603.811349 -36.729688 
L 605.711862 -36.729688 
L 607.612376 -36.729688 
L 609.51289 -36.729688 
L 611.413404 -36.729688 
L 613.313917 -36.729688 
L 615.214431 -36.729688 
L 617.114945 -36.729688 
L 619.015459 -36.729688 
L 620.915972 -36.729688 
L 622.816486 -36.729688 
L 624.717 -36.729688 
L 626.617514 -36.729688 
L 628.518028 -36.729688 
L 630.418541 -36.729688 
L 632.319055 -36.729688 
L 634.219569 -36.729688 
L 636.120083 -36.729688 
L 638.020596 -36.729688 
L 639.92111 -36.729688 
L 641.821624 -36.729688 
L 643.722138 -36.729688 
L 645.622651 -36.729688 
L 647.523165 -36.729688 
L 649.423679 -36.729688 
L 651.324193 -36.729688 
L 653.224707 -36.729688 
L 655.12522 -36.729688 
L 657.025734 -36.729688 
L 658.926248 -36.729688 
L 660.826762 -36.729688 
L 662.727275 -36.729688 
L 664.627789 -36.729688 
L 666.528303 -36.729688 
L 668.428817 -36.729688 
L 670.329331 -36.729688 
L 672.229844 -36.729688 
L 674.130358 -36.729688 
L 676.030872 -36.729688 
L 677.931386 -36.729688 
L 679.831899 -36.729688 
L 681.732413 -36.729688 
L 683.632927 -36.729688 
L 685.533441 -36.729688 
L 687.433954 -36.729688 
L 689.334468 -36.729688 
L 691.234982 -36.729688 
L 693.135496 -36.729688 
L 695.03601 -36.729688 
L 696.936523 -36.729688 
L 698.837037 -36.729688 
L 700.737551 -36.729688 
L 702.638065 -36.729688 
L 704.538578 -36.729688 
L 706.439092 -36.729688 
L 708.339606 -36.729688 
L 710.24012 -36.729688 
L 712.140633 -36.729688 
L 714.041147 -36.729688 
L 715.941661 -36.729688 
L 717.842175 -36.729688 
L 719.742689 -36.729688 
L 721.643202 -36.729688 
L 721.643202 -36.743376 
L 721.643202 -36.743376 
L 719.742689 -36.751673 
L 717.842175 -36.76423 
L 715.941661 -36.782784 
L 714.041147 -36.809557 
L 712.140633 -36.847287 
L 710.24012 -36.899224 
L 708.339606 -36.969073 
L 706.439092 -37.060873 
L 704.538578 -37.178815 
L 702.638065 -37.326998 
L 700.737551 -37.50916 
L 698.837037 -37.728393 
L 696.936523 -37.986896 
L 695.03601 -38.285796 
L 693.135496 -38.625062 
L 691.234982 -39.003547 
L 689.334468 -39.419129 
L 687.433954 -39.868952 
L 685.533441 -40.349714 
L 683.632927 -40.857962 
L 681.732413 -41.390353 
L 679.831899 -41.943843 
L 677.931386 -42.515806 
L 676.030872 -43.104082 
L 674.130358 -43.707003 
L 672.229844 -44.323409 
L 670.329331 -44.952715 
L 668.428817 -45.595042 
L 666.528303 -46.251397 
L 664.627789 -46.923911 
L 662.727275 -47.616069 
L 660.826762 -48.332909 
L 658.926248 -49.081145 
L 657.025734 -49.869199 
L 655.12522 -50.707123 
L 653.224707 -51.606441 
L 651.324193 -52.579921 
L 649.423679 -53.641301 
L 647.523165 -54.804973 
L 645.622651 -56.08564 
L 643.722138 -57.497924 
L 641.821624 -59.055906 
L 639.92111 -60.772624 
L 638.020596 -62.659501 
L 636.120083 -64.725785 
L 634.219569 -66.978019 
L 632.319055 -69.419629 
L 630.418541 -72.050682 
L 628.518028 -74.867849 
L 626.617514 -77.864578 
L 624.717 -81.031432 
L 622.816486 -84.356531 
L 620.915972 -87.826014 
L 619.015459 -91.424424 
L 617.114945 -95.134987 
L 615.214431 -98.939771 
L 613.313917 -102.819778 
L 611.413404 -106.755069 
L 609.51289 -110.725049 
L 607.612376 -114.709019 
L 605.711862 -118.687042 
L 603.811349 -122.641125 
L 601.910835 -126.556562 
L 600.010321 -130.423258 
L 598.109807 -134.236755 
L 596.209293 -137.998716 
L 594.30878 -141.716702 
L 592.408266 -145.403202 
L 590.507752 -149.074038 
L 588.607238 -152.74642 
L 586.706725 -156.437001 
L 584.806211 -160.160305 
L 582.905697 -163.927744 
L 581.005183 -167.747334 
L 579.10467 -171.623946 
L 577.204156 -175.559788 
L 575.303642 -179.554748 
L 573.403128 -183.606238 
L 571.502614 -187.708384 
L 569.602101 -191.850647 
L 567.701587 -196.016221 
L 565.801073 -200.180722 
L 563.900559 -204.311757 
L 562.000046 -208.369813 
L 560.099532 -212.310633 
L 558.199018 -216.088914 
L 556.298504 -219.662804 
L 554.397991 -222.99843 
L 552.497477 -226.073616 
L 550.596963 -228.880075 
L 548.696449 -231.423612 
L 546.795935 -233.722267 
L 544.895422 -235.8027 
L 542.994908 -237.695414 
L 541.094394 -239.429593 
L 539.19388 -241.028292 
L 537.293367 -242.504619 
L 535.392853 -243.85925 
L 533.492339 -245.079392 
L 531.591825 -246.139058 
L 529.691312 -247.000377 
L 527.790798 -247.61562 
L 525.890284 -247.929688 
L 523.98977 -247.882888 
L 522.089256 -247.413952 
L 520.188743 -246.463286 
L 518.288229 -244.976456 
L 516.387715 -242.907813 
L 514.487201 -240.224047 
L 512.586688 -236.907346 
L 510.686174 -232.957742 
L 508.78566 -228.394297 
L 506.885146 -223.254831 
L 504.984633 -217.594166 
L 503.084119 -211.481027 
L 501.183605 -204.994009 
L 499.283091 -198.217113 
L 497.382577 -191.235423 
L 495.482064 -184.1314 
L 493.58155 -176.982127 
L 491.681036 -169.857606 
L 489.780522 -162.820044 
L 487.880009 -155.923877 
L 485.979495 -149.216228 
L 484.078981 -142.737487 
L 482.178467 -136.521767 
L 480.277954 -130.597104 
L 478.37744 -124.985395 
L 476.476926 -119.702168 
L 474.576412 -114.756353 
L 472.675898 -110.150236 
L 470.775385 -105.879746 
L 468.874871 -101.935173 
L 466.974357 -98.302268 
L 465.073843 -94.963635 
L 463.17333 -91.900183 
L 461.272816 -89.092407 
L 459.372302 -86.521268 
L 457.471788 -84.168496 
L 455.571275 -82.016309 
L 453.670761 -80.046627 
L 451.770247 -78.240023 
L 449.869733 -76.574736 
L 447.969219 -75.026069 
L 446.068706 -73.566451 
L 444.168192 -72.166291 
L 442.267678 -70.795584 
L 440.367164 -69.426071 
L 438.466651 -68.033591 
L 436.566137 -66.600225 
L 434.665623 -65.115859 
L 432.765109 -63.57887 
L 430.864596 -61.99584 
L 428.964082 -60.38034 
L 427.063568 -58.751016 
L 425.163054 -57.129287 
L 423.26254 -55.537006 
L 421.362027 -53.994426 
L 419.461513 -52.518682 
L 417.560999 -51.122914 
L 415.660485 -49.816026 
L 413.759972 -48.602977 
L 411.859458 -47.485422 
L 409.958944 -46.462526 
L 408.05843 -45.531754 
L 406.157916 -44.689516 
L 404.257403 -43.931585 
L 402.356889 -43.253284 
L 400.456375 -42.649479 
L 398.555861 -42.114455 
L 396.655348 -41.641785 
L 394.754834 -41.224265 
L 392.85432 -40.853986 
L 390.953806 -40.522566 
L 389.053293 -40.221545 
L 387.152779 -39.942873 
L 385.252265 -39.679436 
L 383.351751 -39.425528 
L 381.451237 -39.177192 
L 379.550724 -38.932378 
L 377.65021 -38.69089 
L 375.749696 -38.454133 
L 373.849182 -38.224698 
L 371.948669 -38.00586 
L 370.048155 -37.801044 
L 368.147641 -37.613346 
L 366.247127 -37.445167 
L 364.346614 -37.297972 
L 362.4461 -37.172209 
L 360.545586 -37.067352 
L 358.645072 -36.982057 
L 356.744558 -36.914373 
L 354.844045 -36.861983 
L 352.943531 -36.822426 
L 351.043017 -36.79329 
L 349.142503 -36.772356 
L 347.24199 -36.757683 
L 345.341476 -36.74765 
L 343.440962 -36.740956 
z
" style="stroke: #4c72b0"/>
    </defs>
    <g>
     <use xlink:href="#maa846e8c7b" x="0" y="265.689687" style="fill: #4c72b0; fill-opacity: 0.25; stroke: #4c72b0"/>
    </g>
   </g>
   <g id="line2d_33">
    <path d="M 194.756998 228.96 
L 194.756998 7.2 
" style="fill: none; stroke-dasharray: 2.96,1.28; stroke-dashoffset: 0; stroke: #d3d3d3; stroke-width: 0.8"/>
   </g>
   <g id="line2d_34">
    <path d="M 417.231156 228.96 
L 417.231156 7.2 
" style="fill: none; stroke-dasharray: 2.96,1.28; stroke-dashoffset: 0; stroke: #d3d3d3; stroke-width: 0.8"/>
   </g>
   <g id="line2d_35">
    <path d="M 323.0328 228.96 
L 323.0328 7.2 
" style="fill: none; stroke-dasharray: 2.96,1.28; stroke-dashoffset: 0; stroke: #d3d3d3; stroke-width: 0.8"/>
   </g>
   <g id="line2d_36">
    <path d="M 7.2 228.96 
L 844.2 228.96 
" style="fill: none; stroke: #808080; stroke-width: 0.5; stroke-linecap: round"/>
   </g>
   <g id="text_12">
    <text style="font-size: 8px; font-family: 'Arial', 'DejaVu Sans', 'Liberation Sans', 'Bitstream Vera Sans', sans-serif; fill: #808080" transform="translate(201.010748 124.59635) rotate(-90)">International Poverty Line: $3.00</text>
   </g>
   <g id="text_13">
    <text style="font-size: 8px; font-family: 'Arial', 'DejaVu Sans', 'Liberation Sans', 'Bitstream Vera Sans', sans-serif; fill: #808080" transform="translate(422.957406 81.31135) rotate(-90)">World mean: $21.95</text>
   </g>
   <g id="text_14">
    <text style="font-size: 8px; font-family: 'Arial', 'DejaVu Sans', 'Liberation Sans', 'Bitstream Vera Sans', sans-serif; fill: #808080" transform="translate(328.75905 83.08885) rotate(-90)">World median: $9.45</text>
   </g>
   <g id="legend_1">
    <g id="patch_3">
     <path d="M 683.8 102.344187 
L 756.364063 102.344187 
Q 758.364063 102.344187 758.364063 100.344187 
L 758.364063 58.552 
Q 758.364063 56.552 756.364063 56.552 
L 683.8 56.552 
Q 681.8 56.552 681.8 58.552 
L 681.8 100.344187 
Q 681.8 102.344187 683.8 102.344187 
z
" style="fill: #ffffff; opacity: 0.8; stroke: #cccccc; stroke-linejoin: miter"/>
    </g>
    <g id="text_15">
     <text style="font-size: 10px; font-family: 'Arial', 'DejaVu Sans', 'Liberation Sans', 'Bitstream Vera Sans', sans-serif; text-anchor: start; fill: #262626" x="702.575781" y="67.831687" transform="rotate(-0 702.575781 67.831687)">Country</text>
    </g>
    <g id="patch_4">
     <path d="M 685.8 82.094187 
L 705.8 82.094187 
L 705.8 75.094187 
L 685.8 75.094187 
z
" style="fill: #4c72b0; fill-opacity: 0.25; stroke: #4c72b0; stroke-linejoin: miter"/>
    </g>
    <g id="text_16">
     <text style="font-size: 10px; font-family: 'Arial', 'DejaVu Sans', 'Liberation Sans', 'Bitstream Vera Sans', sans-serif; text-anchor: start; fill: #262626" x="713.8" y="82.094187" transform="rotate(-0 713.8 82.094187)">Denmark</text>
    </g>
    <g id="patch_5">
     <path d="M 685.8 96.2395 
L 705.8 96.2395 
L 705.8 89.2395 
L 685.8 89.2395 
z
" style="fill: #dd8452; fill-opacity: 0.25; stroke: #dd8452; stroke-linejoin: miter"/>
    </g>
    <g id="text_17">
     <text style="font-size: 10px; font-family: 'Arial', 'DejaVu Sans', 'Liberation Sans', 'Bitstream Vera Sans', sans-serif; text-anchor: start; fill: #262626" x="713.8" y="96.2395" transform="rotate(-0 713.8 96.2395)">Niger</text>
    </g>
   </g>
  </g>
 </g>
</svg>
