<?xml version="1.0" encoding="utf-8" standalone="no"?>
<!DOCTYPE svg PUBLIC "-//W3C//DTD SVG 1.1//EN"
  "http://www.w3.org/Graphics/SVG/1.1/DTD/svg11.dtd">
<svg xmlns:xlink="http://www.w3.org/1999/xlink" width="868.082812pt" height="282.943437pt" viewBox="0 0 868.082812 282.943437" xmlns="http://www.w3.org/2000/svg" version="1.1">
 <metadata>
  <rdf:RDF xmlns:dc="http://purl.org/dc/elements/1.1/" xmlns:cc="http://creativecommons.org/ns#" xmlns:rdf="http://www.w3.org/1999/02/22-rdf-syntax-ns#">
   <cc:Work>
    <dc:type rdf:resource="http://purl.org/dc/dcmitype/StillImage"/>
    <dc:date>2026-05-26T16:01:53.688629</dc:date>
    <dc:format>image/svg+xml</dc:format>
    <dc:creator>
     <cc:Agent>
      <dc:title>Matplotlib v3.10.1, https://matplotlib.org/</dc:title>
     </cc:Agent>
    </dc:creator>
   </cc:Work>
  </rdf:RDF>
 </metadata>
 <defs>
  <style type="text/css">*{stroke-linejoin: round; stroke-linecap: butt}</style>
 </defs>
 <g id="figure_1">
  <g id="patch_1">
   <path d="M 0 282.943437 
L 868.082812 282.943437 
L 868.082812 0 
L 0 0 
z
" style="fill: #ffffff"/>
  </g>
  <g id="axes_1">
   <g id="patch_2">
    <path d="M 7.2 246.21375 
L 844.2 246.21375 
L 844.2 24.45375 
L 7.2 24.45375 
z
" style="fill: #ffffff"/>
   </g>
   <g id="matplotlib.axis_1">
    <g id="xtick_1">
     <g id="line2d_1">
      <defs>
       <path id="mc488c1afe6" d="M 0 0 
L 0 3.5 
" style="stroke: #262626; stroke-width: 0.8"/>
      </defs>
      <g>
       <use xlink:href="#mc488c1afe6" x="99.09017" y="246.21375" style="fill: #262626; stroke: #262626; stroke-width: 0.8"/>
      </g>
     </g>
     <g id="text_1">
      <text style="font-size: 10px; font-family: 'Arial', 'DejaVu Sans', 'Liberation Sans', 'Bitstream Vera Sans', sans-serif; text-anchor: middle; fill: #262626" x="99.09017" y="260.371562" transform="rotate(-0 99.09017 260.371562)">$10</text>
     </g>
    </g>
    <g id="xtick_2">
     <g id="line2d_2">
      <g>
       <use xlink:href="#mc488c1afe6" x="167.038783" y="246.21375" style="fill: #262626; stroke: #262626; stroke-width: 0.8"/>
      </g>
     </g>
     <g id="text_2">
      <text style="font-size: 10px; font-family: 'Arial', 'DejaVu Sans', 'Liberation Sans', 'Bitstream Vera Sans', sans-serif; text-anchor: middle; fill: #262626" x="167.038783" y="260.371562" transform="rotate(-0 167.038783 260.371562)">$20</text>
     </g>
    </g>
    <g id="xtick_3">
     <g id="line2d_3">
      <g>
       <use xlink:href="#mc488c1afe6" x="256.861963" y="246.21375" style="fill: #262626; stroke: #262626; stroke-width: 0.8"/>
      </g>
     </g>
     <g id="text_3">
      <text style="font-size: 10px; font-family: 'Arial', 'DejaVu Sans', 'Liberation Sans', 'Bitstream Vera Sans', sans-serif; text-anchor: middle; fill: #262626" x="256.861963" y="260.371562" transform="rotate(-0 256.861963 260.371562)">$50</text>
     </g>
    </g>
    <g id="xtick_4">
     <g id="line2d_4">
      <g>
       <use xlink:href="#mc488c1afe6" x="324.810576" y="246.21375" style="fill: #262626; stroke: #262626; stroke-width: 0.8"/>
      </g>
     </g>
     <g id="text_4">
      <text style="font-size: 10px; font-family: 'Arial', 'DejaVu Sans', 'Liberation Sans', 'Bitstream Vera Sans', sans-serif; text-anchor: middle; fill: #262626" x="324.810576" y="260.371562" transform="rotate(-0 324.810576 260.371562)">$100</text>
     </g>
    </g>
    <g id="xtick_5">
     <g id="line2d_5">
      <g>
       <use xlink:href="#mc488c1afe6" x="392.759188" y="246.21375" style="fill: #262626; stroke: #262626; stroke-width: 0.8"/>
      </g>
     </g>
     <g id="text_5">
      <text style="font-size: 10px; font-family: 'Arial', 'DejaVu Sans', 'Liberation Sans', 'Bitstream Vera Sans', sans-serif; text-anchor: middle; fill: #262626" x="392.759188" y="260.371562" transform="rotate(-0 392.759188 260.371562)">$200</text>
     </g>
    </g>
    <g id="xtick_6">
     <g id="line2d_6">
      <g>
       <use xlink:href="#mc488c1afe6" x="482.582369" y="246.21375" style="fill: #262626; stroke: #262626; stroke-width: 0.8"/>
      </g>
     </g>
     <g id="text_6">
      <text style="font-size: 10px; font-family: 'Arial', 'DejaVu Sans', 'Liberation Sans', 'Bitstream Vera Sans', sans-serif; text-anchor: middle; fill: #262626" x="482.582369" y="260.371562" transform="rotate(-0 482.582369 260.371562)">$500</text>
     </g>
    </g>
    <g id="xtick_7">
     <g id="line2d_7">
      <g>
       <use xlink:href="#mc488c1afe6" x="550.530981" y="246.21375" style="fill: #262626; stroke: #262626; stroke-width: 0.8"/>
      </g>
     </g>
     <g id="text_7">
      <text style="font-size: 10px; font-family: 'Arial', 'DejaVu Sans', 'Liberation Sans', 'Bitstream Vera Sans', sans-serif; text-anchor: middle; fill: #262626" x="550.530981" y="260.371562" transform="rotate(-0 550.530981 260.371562)">$1000</text>
     </g>
    </g>
    <g id="xtick_8">
     <g id="line2d_8">
      <g>
       <use xlink:href="#mc488c1afe6" x="618.479594" y="246.21375" style="fill: #262626; stroke: #262626; stroke-width: 0.8"/>
      </g>
     </g>
     <g id="text_8">
      <text style="font-size: 10px; font-family: 'Arial', 'DejaVu Sans', 'Liberation Sans', 'Bitstream Vera Sans', sans-serif; text-anchor: middle; fill: #262626" x="618.479594" y="260.371562" transform="rotate(-0 618.479594 260.371562)">$2000</text>
     </g>
    </g>
    <g id="xtick_9">
     <g id="line2d_9">
      <g>
       <use xlink:href="#mc488c1afe6" x="708.302774" y="246.21375" style="fill: #262626; stroke: #262626; stroke-width: 0.8"/>
      </g>
     </g>
     <g id="text_9">
      <text style="font-size: 10px; font-family: 'Arial', 'DejaVu Sans', 'Liberation Sans', 'Bitstream Vera Sans', sans-serif; text-anchor: middle; fill: #262626" x="708.302774" y="260.371562" transform="rotate(-0 708.302774 260.371562)">$5000</text>
     </g>
    </g>
    <g id="xtick_10">
     <g id="line2d_10">
      <g>
       <use xlink:href="#mc488c1afe6" x="776.251387" y="246.21375" style="fill: #262626; stroke: #262626; stroke-width: 0.8"/>
      </g>
     </g>
     <g id="text_10">
      <text style="font-size: 10px; font-family: 'Arial', 'DejaVu Sans', 'Liberation Sans', 'Bitstream Vera Sans', sans-serif; text-anchor: middle; fill: #262626" x="776.251387" y="260.371562" transform="rotate(-0 776.251387 260.371562)">$10000</text>
     </g>
    </g>
    <g id="xtick_11">
     <g id="line2d_11">
      <g>
       <use xlink:href="#mc488c1afe6" x="844.2" y="246.21375" style="fill: #262626; stroke: #262626; stroke-width: 0.8"/>
      </g>
     </g>
     <g id="text_11">
      <text style="font-size: 10px; font-family: 'Arial', 'DejaVu Sans', 'Liberation Sans', 'Bitstream Vera Sans', sans-serif; text-anchor: middle; fill: #262626" x="844.2" y="260.371562" transform="rotate(-0 844.2 260.371562)">$20000</text>
     </g>
    </g>
    <g id="xtick_12">
     <g id="line2d_12">
      <defs>
       <path id="m8f7178574e" d="M 0 0 
L 0 2 
" style="stroke: #262626; stroke-width: 0.6"/>
      </defs>
      <g>
       <use xlink:href="#m8f7178574e" x="9.26699" y="246.21375" style="fill: #262626; stroke: #262626; stroke-width: 0.6"/>
      </g>
     </g>
    </g>
    <g id="xtick_13">
     <g id="line2d_13">
      <g>
       <use xlink:href="#m8f7178574e" x="31.141557" y="246.21375" style="fill: #262626; stroke: #262626; stroke-width: 0.6"/>
      </g>
     </g>
    </g>
    <g id="xtick_14">
     <g id="line2d_14">
      <g>
       <use xlink:href="#m8f7178574e" x="49.01438" y="246.21375" style="fill: #262626; stroke: #262626; stroke-width: 0.6"/>
      </g>
     </g>
    </g>
    <g id="xtick_15">
     <g id="line2d_15">
      <g>
       <use xlink:href="#m8f7178574e" x="64.125637" y="246.21375" style="fill: #262626; stroke: #262626; stroke-width: 0.6"/>
      </g>
     </g>
    </g>
    <g id="xtick_16">
     <g id="line2d_16">
      <g>
       <use xlink:href="#m8f7178574e" x="77.215602" y="246.21375" style="fill: #262626; stroke: #262626; stroke-width: 0.6"/>
      </g>
     </g>
    </g>
    <g id="xtick_17">
     <g id="line2d_17">
      <g>
       <use xlink:href="#m8f7178574e" x="88.761771" y="246.21375" style="fill: #262626; stroke: #262626; stroke-width: 0.6"/>
      </g>
     </g>
    </g>
    <g id="xtick_18">
     <g id="line2d_18">
      <g>
       <use xlink:href="#m8f7178574e" x="206.786173" y="246.21375" style="fill: #262626; stroke: #262626; stroke-width: 0.6"/>
      </g>
     </g>
    </g>
    <g id="xtick_19">
     <g id="line2d_19">
      <g>
       <use xlink:href="#m8f7178574e" x="234.987395" y="246.21375" style="fill: #262626; stroke: #262626; stroke-width: 0.6"/>
      </g>
     </g>
    </g>
    <g id="xtick_20">
     <g id="line2d_20">
      <g>
       <use xlink:href="#m8f7178574e" x="274.734786" y="246.21375" style="fill: #262626; stroke: #262626; stroke-width: 0.6"/>
      </g>
     </g>
    </g>
    <g id="xtick_21">
     <g id="line2d_21">
      <g>
       <use xlink:href="#m8f7178574e" x="289.846042" y="246.21375" style="fill: #262626; stroke: #262626; stroke-width: 0.6"/>
      </g>
     </g>
    </g>
    <g id="xtick_22">
     <g id="line2d_22">
      <g>
       <use xlink:href="#m8f7178574e" x="302.936008" y="246.21375" style="fill: #262626; stroke: #262626; stroke-width: 0.6"/>
      </g>
     </g>
    </g>
    <g id="xtick_23">
     <g id="line2d_23">
      <g>
       <use xlink:href="#m8f7178574e" x="314.482176" y="246.21375" style="fill: #262626; stroke: #262626; stroke-width: 0.6"/>
      </g>
     </g>
    </g>
    <g id="xtick_24">
     <g id="line2d_24">
      <g>
       <use xlink:href="#m8f7178574e" x="432.506579" y="246.21375" style="fill: #262626; stroke: #262626; stroke-width: 0.6"/>
      </g>
     </g>
    </g>
    <g id="xtick_25">
     <g id="line2d_25">
      <g>
       <use xlink:href="#m8f7178574e" x="460.707801" y="246.21375" style="fill: #262626; stroke: #262626; stroke-width: 0.6"/>
      </g>
     </g>
    </g>
    <g id="xtick_26">
     <g id="line2d_26">
      <g>
       <use xlink:href="#m8f7178574e" x="500.455192" y="246.21375" style="fill: #262626; stroke: #262626; stroke-width: 0.6"/>
      </g>
     </g>
    </g>
    <g id="xtick_27">
     <g id="line2d_27">
      <g>
       <use xlink:href="#m8f7178574e" x="515.566448" y="246.21375" style="fill: #262626; stroke: #262626; stroke-width: 0.6"/>
      </g>
     </g>
    </g>
    <g id="xtick_28">
     <g id="line2d_28">
      <g>
       <use xlink:href="#m8f7178574e" x="528.656414" y="246.21375" style="fill: #262626; stroke: #262626; stroke-width: 0.6"/>
      </g>
     </g>
    </g>
    <g id="xtick_29">
     <g id="line2d_29">
      <g>
       <use xlink:href="#m8f7178574e" x="540.202582" y="246.21375" style="fill: #262626; stroke: #262626; stroke-width: 0.6"/>
      </g>
     </g>
    </g>
    <g id="xtick_30">
     <g id="line2d_30">
      <g>
       <use xlink:href="#m8f7178574e" x="658.226985" y="246.21375" style="fill: #262626; stroke: #262626; stroke-width: 0.6"/>
      </g>
     </g>
    </g>
    <g id="xtick_31">
     <g id="line2d_31">
      <g>
       <use xlink:href="#m8f7178574e" x="686.428207" y="246.21375" style="fill: #262626; stroke: #262626; stroke-width: 0.6"/>
      </g>
     </g>
    </g>
    <g id="xtick_32">
     <g id="line2d_32">
      <g>
       <use xlink:href="#m8f7178574e" x="726.175597" y="246.21375" style="fill: #262626; stroke: #262626; stroke-width: 0.6"/>
      </g>
     </g>
    </g>
    <g id="xtick_33">
     <g id="line2d_33">
      <g>
       <use xlink:href="#m8f7178574e" x="741.286854" y="246.21375" style="fill: #262626; stroke: #262626; stroke-width: 0.6"/>
      </g>
     </g>
    </g>
    <g id="xtick_34">
     <g id="line2d_34">
      <g>
       <use xlink:href="#m8f7178574e" x="754.37682" y="246.21375" style="fill: #262626; stroke: #262626; stroke-width: 0.6"/>
      </g>
     </g>
    </g>
    <g id="xtick_35">
     <g id="line2d_35">
      <g>
       <use xlink:href="#m8f7178574e" x="765.922988" y="246.21375" style="fill: #262626; stroke: #262626; stroke-width: 0.6"/>
      </g>
     </g>
    </g>
    <g id="text_12">
     <text style="font-size: 10px; font-family: 'Arial', 'DejaVu Sans', 'Liberation Sans', 'Bitstream Vera Sans', sans-serif; text-anchor: middle; fill: #262626" x="425.7" y="273.63875" transform="rotate(-0 425.7 273.63875)">Income or consumption (month)</text>
    </g>
   </g>
   <g id="matplotlib.axis_2"/>
   <g id="FillBetweenPolyCollection_1">
    <defs>
     <path id="m40d0cbf568" d="M 43.913817 -36.729688 
L 43.913817 -36.775902 
L 46.235587 -36.799212 
L 48.557356 -36.832522 
L 50.879125 -36.879246 
L 53.200895 -36.943587 
L 55.522664 -37.030565 
L 57.844433 -37.145991 
L 60.166203 -37.296371 
L 62.487972 -37.488717 
L 64.809742 -37.730268 
L 67.131511 -38.028122 
L 69.45328 -38.388798 
L 71.77505 -38.817757 
L 74.096819 -39.318939 
L 76.418589 -39.894346 
L 78.740358 -40.543763 
L 81.062127 -41.264632 
L 83.383897 -42.052149 
L 85.705666 -42.899583 
L 88.027435 -43.798816 
L 90.349205 -44.741064 
L 92.670974 -45.717711 
L 94.992744 -46.721174 
L 97.314513 -47.745701 
L 99.636282 -48.78801 
L 101.958052 -49.847687 
L 104.279821 -50.927302 
L 106.601591 -52.032212 
L 108.92336 -53.170076 
L 111.245129 -54.350138 
L 113.566899 -55.58234 
L 115.888668 -56.87638 
L 118.210438 -58.240802 
L 120.532207 -59.682214 
L 122.853976 -61.204707 
L 125.175746 -62.809536 
L 127.497515 -64.495078 
L 129.819284 -66.257073 
L 132.141054 -68.089108 
L 134.462823 -69.983302 
L 136.784593 -71.931113 
L 139.106362 -73.924187 
L 141.428131 -75.955176 
L 143.749901 -78.018426 
L 146.07167 -80.110473 
L 148.39344 -82.230295 
L 150.715209 -84.379282 
L 153.036978 -86.560933 
L 155.358748 -88.780299 
L 157.680517 -91.04323 
L 160.002287 -93.355523 
L 162.324056 -95.722051 
L 164.645825 -98.145988 
L 166.967595 -100.628222 
L 169.289364 -103.16703 
L 171.611133 -105.758053 
L 173.932903 -108.394575 
L 176.254672 -111.068066 
L 178.576442 -113.768909 
L 180.898211 -116.487219 
L 183.21998 -119.213624 
L 185.54175 -121.939917 
L 187.863519 -124.659484 
L 190.185289 -127.367448 
L 192.507058 -130.06052 
L 194.828827 -132.736583 
L 197.150597 -135.394064 
L 199.472366 -138.031183 
L 201.794136 -140.645168 
L 204.115905 -143.231536 
L 206.437674 -145.783508 
L 208.759444 -148.291612 
L 211.081213 -150.743513 
L 213.402982 -153.124062 
L 215.724752 -155.415562 
L 218.046521 -157.598231 
L 220.368291 -159.650833 
L 222.69006 -161.551448 
L 225.011829 -163.278344 
L 227.333599 -164.81092 
L 229.655368 -166.130668 
L 231.977138 -167.222076 
L 234.298907 -168.073434 
L 236.620676 -168.677435 
L 238.942446 -169.031523 
L 241.264215 -169.137947 
L 243.585985 -169.00348 
L 245.907754 -168.63885 
L 248.229523 -168.057932 
L 250.551293 -167.276782 
L 252.873062 -166.312639 
L 255.194831 -165.182986 
L 257.516601 -163.904776 
L 259.83837 -162.493866 
L 262.16014 -160.964692 
L 264.481909 -159.330159 
L 266.803678 -157.601689 
L 269.125448 -155.789364 
L 271.447217 -153.902086 
L 273.768987 -151.947704 
L 276.090756 -149.933069 
L 278.412525 -147.864028 
L 280.734295 -145.74539 
L 283.056064 -143.580906 
L 285.377833 -141.373331 
L 287.699603 -139.124611 
L 290.021372 -136.836219 
L 292.343142 -134.509625 
L 294.664911 -132.14686 
L 296.98668 -129.75109 
L 299.30845 -127.327113 
L 301.630219 -124.881681 
L 303.951989 -122.423569 
L 306.273758 -119.963363 
L 308.595527 -117.512958 
L 310.917297 -115.084815 
L 313.239066 -112.691082 
L 315.560836 -110.342676 
L 317.882605 -108.048457 
L 320.204374 -105.814595 
L 322.526144 -103.644219 
L 324.847913 -101.53737 
L 327.169682 -99.491262 
L 329.491452 -97.500784 
L 331.813221 -95.559188 
L 334.134991 -93.658843 
L 336.45676 -91.791997 
L 338.778529 -89.951442 
L 341.100299 -88.131067 
L 343.422068 -86.32625 
L 345.743838 -84.534109 
L 348.065607 -82.753623 
L 350.387376 -80.985638 
L 352.709146 -79.23279 
L 355.030915 -77.499345 
L 357.352685 -75.790959 
L 359.674454 -74.114368 
L 361.996223 -72.476987 
L 364.317993 -70.886447 
L 366.639762 -69.350075 
L 368.961531 -67.874373 
L 371.283301 -66.464512 
L 373.60507 -65.123936 
L 375.92684 -63.854086 
L 378.248609 -62.654312 
L 380.570378 -61.521973 
L 382.892148 -60.452714 
L 385.213917 -59.440902 
L 387.535687 -58.48015 
L 389.857456 -57.563886 
L 392.179225 -56.685876 
L 394.500995 -55.840671 
L 396.822764 -55.023916 
L 399.144534 -54.232507 
L 401.466303 -53.464593 
L 403.788072 -52.719449 
L 406.109842 -51.997234 
L 408.431611 -51.298682 
L 410.75338 -50.624769 
L 413.07515 -49.976382 
L 415.396919 -49.354026 
L 417.718689 -48.757591 
L 420.040458 -48.1862 
L 422.362227 -47.638131 
L 424.683997 -47.110837 
L 427.005766 -46.60105 
L 429.327536 -46.104964 
L 431.649305 -45.61848 
L 433.971074 -45.137515 
L 436.292844 -44.658317 
L 438.614613 -44.177792 
L 440.936383 -43.693793 
L 443.258152 -43.205342 
L 445.579921 -42.712774 
L 447.901691 -42.217764 
L 450.22346 -41.723252 
L 452.545229 -41.23325 
L 454.866999 -40.752564 
L 457.188768 -40.286448 
L 459.510538 -39.840227 
L 461.832307 -39.418923 
L 464.154076 -39.026923 
L 466.475846 -38.667707 
L 468.797615 -38.34367 
L 471.119385 -38.056035 
L 473.441154 -37.804866 
L 475.762923 -37.589155 
L 478.084693 -37.406982 
L 480.406462 -37.255718 
L 482.728231 -37.132243 
L 485.050001 -37.033166 
L 487.37177 -36.955023 
L 489.69354 -36.894448 
L 492.015309 -36.848299 
L 494.337078 -36.813745 
L 496.658848 -36.788322 
L 498.980617 -36.769939 
L 501.302387 -36.756879 
L 503.624156 -36.74776 
L 505.945925 -36.741505 
L 505.945925 -36.729688 
L 505.945925 -36.729688 
L 503.624156 -36.729688 
L 501.302387 -36.729688 
L 498.980617 -36.729688 
L 496.658848 -36.729688 
L 494.337078 -36.729688 
L 492.015309 -36.729688 
L 489.69354 -36.729688 
L 487.37177 -36.729688 
L 485.050001 -36.729688 
L 482.728231 -36.729688 
L 480.406462 -36.729688 
L 478.084693 -36.729688 
L 475.762923 -36.729688 
L 473.441154 -36.729688 
L 471.119385 -36.729688 
L 468.797615 -36.729688 
L 466.475846 -36.729688 
L 464.154076 -36.729688 
L 461.832307 -36.729688 
L 459.510538 -36.729688 
L 457.188768 -36.729688 
L 454.866999 -36.729688 
L 452.545229 -36.729688 
L 450.22346 -36.729688 
L 447.901691 -36.729688 
L 445.579921 -36.729688 
L 443.258152 -36.729688 
L 440.936383 -36.729688 
L 438.614613 -36.729688 
L 436.292844 -36.729688 
L 433.971074 -36.729688 
L 431.649305 -36.729688 
L 429.327536 -36.729688 
L 427.005766 -36.729688 
L 424.683997 -36.729688 
L 422.362227 -36.729688 
L 420.040458 -36.729688 
L 417.718689 -36.729688 
L 415.396919 -36.729688 
L 413.07515 -36.729688 
L 410.75338 -36.729688 
L 408.431611 -36.729688 
L 406.109842 -36.729688 
L 403.788072 -36.729688 
L 401.466303 -36.729688 
L 399.144534 -36.729688 
L 396.822764 -36.729688 
L 394.500995 -36.729688 
L 392.179225 -36.729688 
L 389.857456 -36.729688 
L 387.535687 -36.729688 
L 385.213917 -36.729688 
L 382.892148 -36.729688 
L 380.570378 -36.729688 
L 378.248609 -36.729688 
L 375.92684 -36.729688 
L 373.60507 -36.729688 
L 371.283301 -36.729688 
L 368.961531 -36.729688 
L 366.639762 -36.729688 
L 364.317993 -36.729688 
L 361.996223 -36.729688 
L 359.674454 -36.729688 
L 357.352685 -36.729688 
L 355.030915 -36.729688 
L 352.709146 -36.729688 
L 350.387376 -36.729688 
L 348.065607 -36.729688 
L 345.743838 -36.729688 
L 343.422068 -36.729688 
L 341.100299 -36.729688 
L 338.778529 -36.729688 
L 336.45676 -36.729688 
L 334.134991 -36.729688 
L 331.813221 -36.729688 
L 329.491452 -36.729688 
L 327.169682 -36.729688 
L 324.847913 -36.729688 
L 322.526144 -36.729688 
L 320.204374 -36.729688 
L 317.882605 -36.729688 
L 315.560836 -36.729688 
L 313.239066 -36.729688 
L 310.917297 -36.729688 
L 308.595527 -36.729688 
L 306.273758 -36.729688 
L 303.951989 -36.729688 
L 301.630219 -36.729688 
L 299.30845 -36.729688 
L 296.98668 -36.729688 
L 294.664911 -36.729688 
L 292.343142 -36.729688 
L 290.021372 -36.729688 
L 287.699603 -36.729688 
L 285.377833 -36.729688 
L 283.056064 -36.729688 
L 280.734295 -36.729688 
L 278.412525 -36.729688 
L 276.090756 -36.729688 
L 273.768987 -36.729688 
L 271.447217 -36.729688 
L 269.125448 -36.729688 
L 266.803678 -36.729688 
L 264.481909 -36.729688 
L 262.16014 -36.729688 
L 259.83837 -36.729688 
L 257.516601 -36.729688 
L 255.194831 -36.729688 
L 252.873062 -36.729688 
L 250.551293 -36.729688 
L 248.229523 -36.729688 
L 245.907754 -36.729688 
L 243.585985 -36.729688 
L 241.264215 -36.729688 
L 238.942446 -36.729688 
L 236.620676 -36.729688 
L 234.298907 -36.729688 
L 231.977138 -36.729688 
L 229.655368 -36.729688 
L 227.333599 -36.729688 
L 225.011829 -36.729688 
L 222.69006 -36.729688 
L 220.368291 -36.729688 
L 218.046521 -36.729688 
L 215.724752 -36.729688 
L 213.402982 -36.729688 
L 211.081213 -36.729688 
L 208.759444 -36.729688 
L 206.437674 -36.729688 
L 204.115905 -36.729688 
L 201.794136 -36.729688 
L 199.472366 -36.729688 
L 197.150597 -36.729688 
L 194.828827 -36.729688 
L 192.507058 -36.729688 
L 190.185289 -36.729688 
L 187.863519 -36.729688 
L 185.54175 -36.729688 
L 183.21998 -36.729688 
L 180.898211 -36.729688 
L 178.576442 -36.729688 
L 176.254672 -36.729688 
L 173.932903 -36.729688 
L 171.611133 -36.729688 
L 169.289364 -36.729688 
L 166.967595 -36.729688 
L 164.645825 -36.729688 
L 162.324056 -36.729688 
L 160.002287 -36.729688 
L 157.680517 -36.729688 
L 155.358748 -36.729688 
L 153.036978 -36.729688 
L 150.715209 -36.729688 
L 148.39344 -36.729688 
L 146.07167 -36.729688 
L 143.749901 -36.729688 
L 141.428131 -36.729688 
L 139.106362 -36.729688 
L 136.784593 -36.729688 
L 134.462823 -36.729688 
L 132.141054 -36.729688 
L 129.819284 -36.729688 
L 127.497515 -36.729688 
L 125.175746 -36.729688 
L 122.853976 -36.729688 
L 120.532207 -36.729688 
L 118.210438 -36.729688 
L 115.888668 -36.729688 
L 113.566899 -36.729688 
L 111.245129 -36.729688 
L 108.92336 -36.729688 
L 106.601591 -36.729688 
L 104.279821 -36.729688 
L 101.958052 -36.729688 
L 99.636282 -36.729688 
L 97.314513 -36.729688 
L 94.992744 -36.729688 
L 92.670974 -36.729688 
L 90.349205 -36.729688 
L 88.027435 -36.729688 
L 85.705666 -36.729688 
L 83.383897 -36.729688 
L 81.062127 -36.729688 
L 78.740358 -36.729688 
L 76.418589 -36.729688 
L 74.096819 -36.729688 
L 71.77505 -36.729688 
L 69.45328 -36.729688 
L 67.131511 -36.729688 
L 64.809742 -36.729688 
L 62.487972 -36.729688 
L 60.166203 -36.729688 
L 57.844433 -36.729688 
L 55.522664 -36.729688 
L 53.200895 -36.729688 
L 50.879125 -36.729688 
L 48.557356 -36.729688 
L 46.235587 -36.729688 
L 43.913817 -36.729688 
z
" style="stroke: #dd8452; stroke-opacity: 0.2"/>
    </defs>
    <g>
     <use xlink:href="#m40d0cbf568" x="0" y="282.943437" style="fill: #dd8452; fill-opacity: 0.2; stroke: #dd8452; stroke-opacity: 0.2"/>
    </g>
   </g>
   <g id="FillBetweenPolyCollection_2">
    <defs>
     <path id="m29459bc1f1" d="M 446.562882 -36.729688 
L 446.562882 -36.740956 
L 448.22935 -36.74765 
L 449.895819 -36.757683 
L 451.562288 -36.772356 
L 453.228756 -36.79329 
L 454.895225 -36.822426 
L 456.561694 -36.861983 
L 458.228163 -36.914373 
L 459.894631 -36.982057 
L 461.5611 -37.067352 
L 463.227569 -37.172209 
L 464.894038 -37.297973 
L 466.560506 -37.445167 
L 468.226975 -37.613346 
L 469.893444 -37.801044 
L 471.559913 -38.005861 
L 473.226381 -38.224699 
L 474.89285 -38.454133 
L 476.559319 -38.69089 
L 478.225787 -38.932379 
L 479.892256 -39.177193 
L 481.558725 -39.425529 
L 483.225194 -39.679438 
L 484.891662 -39.942874 
L 486.558131 -40.221547 
L 488.2246 -40.522568 
L 489.891069 -40.853988 
L 491.557537 -41.224267 
L 493.224006 -41.641787 
L 494.890475 -42.114457 
L 496.556944 -42.649481 
L 498.223412 -43.253287 
L 499.889881 -43.931587 
L 501.55635 -44.689518 
L 503.222818 -45.531756 
L 504.889287 -46.462529 
L 506.555756 -47.485425 
L 508.222225 -48.602979 
L 509.888693 -49.816029 
L 511.555162 -51.122917 
L 513.221631 -52.518685 
L 514.8881 -53.994429 
L 516.554568 -55.537009 
L 518.221037 -57.12929 
L 519.887506 -58.75102 
L 521.553975 -60.380343 
L 523.220443 -61.995843 
L 524.886912 -63.578873 
L 526.553381 -65.115862 
L 528.219849 -66.600227 
L 529.886318 -68.033592 
L 531.552787 -69.426072 
L 533.219256 -70.795585 
L 534.885724 -72.166291 
L 536.552193 -73.566451 
L 538.218662 -75.026069 
L 539.885131 -76.574736 
L 541.551599 -78.240024 
L 543.218068 -80.046628 
L 544.884537 -82.01631 
L 546.551006 -84.168497 
L 548.217474 -86.52127 
L 549.883943 -89.09241 
L 551.550412 -91.900186 
L 553.216881 -94.963639 
L 554.883349 -98.302273 
L 556.549818 -101.935179 
L 558.216287 -105.879754 
L 559.882755 -110.150245 
L 561.549224 -114.756364 
L 563.215693 -119.70218 
L 564.882162 -124.985408 
L 566.54863 -130.597118 
L 568.215099 -136.521782 
L 569.881568 -142.737503 
L 571.548037 -149.216243 
L 573.214505 -155.923892 
L 574.880974 -162.820059 
L 576.547443 -169.85762 
L 578.213912 -176.98214 
L 579.88038 -184.131413 
L 581.546849 -191.235435 
L 583.213318 -198.217124 
L 584.879786 -204.994019 
L 586.546255 -211.481036 
L 588.212724 -217.594173 
L 589.879193 -223.254838 
L 591.545661 -228.394303 
L 593.21213 -232.957748 
L 594.878599 -236.90735 
L 596.545068 -240.224051 
L 598.211536 -242.907816 
L 599.878005 -244.976458 
L 601.544474 -246.463288 
L 603.210943 -247.413953 
L 604.877411 -247.882889 
L 606.54388 -247.929688 
L 608.210349 -247.615619 
L 609.876817 -247.000376 
L 611.543286 -246.139057 
L 613.209755 -245.07939 
L 614.876224 -243.859248 
L 616.542692 -242.504617 
L 618.209161 -241.02829 
L 619.87563 -239.429591 
L 621.542099 -237.695412 
L 623.208567 -235.802697 
L 624.875036 -233.722265 
L 626.541505 -231.423609 
L 628.207974 -228.880072 
L 629.874442 -226.073613 
L 631.540911 -222.998427 
L 633.20738 -219.662802 
L 634.873848 -216.088911 
L 636.540317 -212.31063 
L 638.206786 -208.369811 
L 639.873255 -204.311755 
L 641.539723 -200.18072 
L 643.206192 -196.01622 
L 644.872661 -191.850646 
L 646.53913 -187.708383 
L 648.205598 -183.606238 
L 649.872067 -179.554749 
L 651.538536 -175.559789 
L 653.205005 -171.623947 
L 654.871473 -167.747336 
L 656.537942 -163.927745 
L 658.204411 -160.160306 
L 659.870879 -156.437002 
L 661.537348 -152.74642 
L 663.203817 -149.074039 
L 664.870286 -145.403202 
L 666.536754 -141.716702 
L 668.203223 -137.998716 
L 669.869692 -134.236756 
L 671.536161 -130.423259 
L 673.202629 -126.556563 
L 674.869098 -122.641126 
L 676.535567 -118.687044 
L 678.202036 -114.70902 
L 679.868504 -110.725051 
L 681.534973 -106.75507 
L 683.201442 -102.819779 
L 684.86791 -98.939772 
L 686.534379 -95.134987 
L 688.200848 -91.424423 
L 689.867317 -87.826013 
L 691.533785 -84.35653 
L 693.200254 -81.03143 
L 694.866723 -77.864577 
L 696.533192 -74.867848 
L 698.19966 -72.05068 
L 699.866129 -69.419627 
L 701.532598 -66.978018 
L 703.199067 -64.725784 
L 704.865535 -62.6595 
L 706.532004 -60.772623 
L 708.198473 -59.055906 
L 709.864941 -57.497923 
L 711.53141 -56.08564 
L 713.197879 -54.804972 
L 714.864348 -53.6413 
L 716.530816 -52.579921 
L 718.197285 -51.60644 
L 719.863754 -50.707122 
L 721.530223 -49.869199 
L 723.196691 -49.081145 
L 724.86316 -48.332908 
L 726.529629 -47.616068 
L 728.196098 -46.923911 
L 729.862566 -46.251397 
L 731.529035 -45.595042 
L 733.195504 -44.952715 
L 734.861973 -44.323409 
L 736.528441 -43.707004 
L 738.19491 -43.104083 
L 739.861379 -42.515806 
L 741.527847 -41.943844 
L 743.194316 -41.390353 
L 744.860785 -40.857962 
L 746.527254 -40.349714 
L 748.193722 -39.868952 
L 749.860191 -39.419129 
L 751.52666 -39.003547 
L 753.193129 -38.625062 
L 754.859597 -38.285796 
L 756.526066 -37.986896 
L 758.192535 -37.728393 
L 759.859004 -37.50916 
L 761.525472 -37.326998 
L 763.191941 -37.178815 
L 764.85841 -37.060873 
L 766.524878 -36.969073 
L 768.191347 -36.899224 
L 769.857816 -36.847287 
L 771.524285 -36.809557 
L 773.190753 -36.782784 
L 774.857222 -36.76423 
L 776.523691 -36.751673 
L 778.19016 -36.743376 
L 778.19016 -36.729688 
L 778.19016 -36.729688 
L 776.523691 -36.729688 
L 774.857222 -36.729688 
L 773.190753 -36.729688 
L 771.524285 -36.729688 
L 769.857816 -36.729688 
L 768.191347 -36.729688 
L 766.524878 -36.729688 
L 764.85841 -36.729688 
L 763.191941 -36.729688 
L 761.525472 -36.729688 
L 759.859004 -36.729688 
L 758.192535 -36.729688 
L 756.526066 -36.729688 
L 754.859597 -36.729688 
L 753.193129 -36.729688 
L 751.52666 -36.729688 
L 749.860191 -36.729688 
L 748.193722 -36.729688 
L 746.527254 -36.729688 
L 744.860785 -36.729688 
L 743.194316 -36.729688 
L 741.527847 -36.729688 
L 739.861379 -36.729688 
L 738.19491 -36.729688 
L 736.528441 -36.729688 
L 734.861973 -36.729688 
L 733.195504 -36.729688 
L 731.529035 -36.729688 
L 729.862566 -36.729688 
L 728.196098 -36.729688 
L 726.529629 -36.729688 
L 724.86316 -36.729688 
L 723.196691 -36.729688 
L 721.530223 -36.729688 
L 719.863754 -36.729688 
L 718.197285 -36.729688 
L 716.530816 -36.729688 
L 714.864348 -36.729688 
L 713.197879 -36.729688 
L 711.53141 -36.729688 
L 709.864941 -36.729688 
L 708.198473 -36.729688 
L 706.532004 -36.729688 
L 704.865535 -36.729688 
L 703.199067 -36.729688 
L 701.532598 -36.729688 
L 699.866129 -36.729688 
L 698.19966 -36.729688 
L 696.533192 -36.729688 
L 694.866723 -36.729688 
L 693.200254 -36.729688 
L 691.533785 -36.729688 
L 689.867317 -36.729688 
L 688.200848 -36.729688 
L 686.534379 -36.729688 
L 684.86791 -36.729688 
L 683.201442 -36.729688 
L 681.534973 -36.729688 
L 679.868504 -36.729688 
L 678.202036 -36.729688 
L 676.535567 -36.729688 
L 674.869098 -36.729688 
L 673.202629 -36.729688 
L 671.536161 -36.729688 
L 669.869692 -36.729688 
L 668.203223 -36.729688 
L 666.536754 -36.729688 
L 664.870286 -36.729688 
L 663.203817 -36.729688 
L 661.537348 -36.729688 
L 659.870879 -36.729688 
L 658.204411 -36.729688 
L 656.537942 -36.729688 
L 654.871473 -36.729688 
L 653.205005 -36.729688 
L 651.538536 -36.729688 
L 649.872067 -36.729688 
L 648.205598 -36.729688 
L 646.53913 -36.729688 
L 644.872661 -36.729688 
L 643.206192 -36.729688 
L 641.539723 -36.729688 
L 639.873255 -36.729688 
L 638.206786 -36.729688 
L 636.540317 -36.729688 
L 634.873848 -36.729688 
L 633.20738 -36.729688 
L 631.540911 -36.729688 
L 629.874442 -36.729688 
L 628.207974 -36.729688 
L 626.541505 -36.729688 
L 624.875036 -36.729688 
L 623.208567 -36.729688 
L 621.542099 -36.729688 
L 619.87563 -36.729688 
L 618.209161 -36.729688 
L 616.542692 -36.729688 
L 614.876224 -36.729688 
L 613.209755 -36.729688 
L 611.543286 -36.729688 
L 609.876817 -36.729688 
L 608.210349 -36.729688 
L 606.54388 -36.729688 
L 604.877411 -36.729688 
L 603.210943 -36.729688 
L 601.544474 -36.729688 
L 599.878005 -36.729688 
L 598.211536 -36.729688 
L 596.545068 -36.729688 
L 594.878599 -36.729688 
L 593.21213 -36.729688 
L 591.545661 -36.729688 
L 589.879193 -36.729688 
L 588.212724 -36.729688 
L 586.546255 -36.729688 
L 584.879786 -36.729688 
L 583.213318 -36.729688 
L 581.546849 -36.729688 
L 579.88038 -36.729688 
L 578.213912 -36.729688 
L 576.547443 -36.729688 
L 574.880974 -36.729688 
L 573.214505 -36.729688 
L 571.548037 -36.729688 
L 569.881568 -36.729688 
L 568.215099 -36.729688 
L 566.54863 -36.729688 
L 564.882162 -36.729688 
L 563.215693 -36.729688 
L 561.549224 -36.729688 
L 559.882755 -36.729688 
L 558.216287 -36.729688 
L 556.549818 -36.729688 
L 554.883349 -36.729688 
L 553.216881 -36.729688 
L 551.550412 -36.729688 
L 549.883943 -36.729688 
L 548.217474 -36.729688 
L 546.551006 -36.729688 
L 544.884537 -36.729688 
L 543.218068 -36.729688 
L 541.551599 -36.729688 
L 539.885131 -36.729688 
L 538.218662 -36.729688 
L 536.552193 -36.729688 
L 534.885724 -36.729688 
L 533.219256 -36.729688 
L 531.552787 -36.729688 
L 529.886318 -36.729688 
L 528.219849 -36.729688 
L 526.553381 -36.729688 
L 524.886912 -36.729688 
L 523.220443 -36.729688 
L 521.553975 -36.729688 
L 519.887506 -36.729688 
L 518.221037 -36.729688 
L 516.554568 -36.729688 
L 514.8881 -36.729688 
L 513.221631 -36.729688 
L 511.555162 -36.729688 
L 509.888693 -36.729688 
L 508.222225 -36.729688 
L 506.555756 -36.729688 
L 504.889287 -36.729688 
L 503.222818 -36.729688 
L 501.55635 -36.729688 
L 499.889881 -36.729688 
L 498.223412 -36.729688 
L 496.556944 -36.729688 
L 494.890475 -36.729688 
L 493.224006 -36.729688 
L 491.557537 -36.729688 
L 489.891069 -36.729688 
L 488.2246 -36.729688 
L 486.558131 -36.729688 
L 484.891662 -36.729688 
L 483.225194 -36.729688 
L 481.558725 -36.729688 
L 479.892256 -36.729688 
L 478.225787 -36.729688 
L 476.559319 -36.729688 
L 474.89285 -36.729688 
L 473.226381 -36.729688 
L 471.559913 -36.729688 
L 469.893444 -36.729688 
L 468.226975 -36.729688 
L 466.560506 -36.729688 
L 464.894038 -36.729688 
L 463.227569 -36.729688 
L 461.5611 -36.729688 
L 459.894631 -36.729688 
L 458.228163 -36.729688 
L 456.561694 -36.729688 
L 454.895225 -36.729688 
L 453.228756 -36.729688 
L 451.562288 -36.729688 
L 449.895819 -36.729688 
L 448.22935 -36.729688 
L 446.562882 -36.729688 
z
" style="stroke: #4c72b0; stroke-opacity: 0.2"/>
    </defs>
    <g>
     <use xlink:href="#m29459bc1f1" x="0" y="282.943437" style="fill: #4c72b0; fill-opacity: 0.2; stroke: #4c72b0; stroke-opacity: 0.2"/>
    </g>
   </g>
   <g id="FillBetweenPolyCollection_3">
    <defs>
     <path id="m35a205073d" d="M 43.913817 -36.775902 
L 43.913817 -36.729688 
L 46.235587 -36.729688 
L 48.557356 -36.729688 
L 50.879125 -36.729688 
L 53.200895 -36.729688 
L 55.522664 -36.729688 
L 57.844433 -36.729688 
L 60.166203 -36.729688 
L 62.487972 -36.729688 
L 64.809742 -36.729688 
L 67.131511 -36.729688 
L 69.45328 -36.729688 
L 71.77505 -36.729688 
L 74.096819 -36.729688 
L 76.418589 -36.729688 
L 78.740358 -36.729688 
L 81.062127 -36.729688 
L 83.383897 -36.729688 
L 85.705666 -36.729688 
L 88.027435 -36.729688 
L 90.349205 -36.729688 
L 92.670974 -36.729688 
L 94.992744 -36.729688 
L 97.314513 -36.729688 
L 99.636282 -36.729688 
L 101.958052 -36.729688 
L 104.279821 -36.729688 
L 106.601591 -36.729688 
L 108.92336 -36.729688 
L 111.245129 -36.729688 
L 113.566899 -36.729688 
L 115.888668 -36.729688 
L 118.210438 -36.729688 
L 120.532207 -36.729688 
L 122.853976 -36.729688 
L 125.175746 -36.729688 
L 127.497515 -36.729688 
L 129.819284 -36.729688 
L 132.141054 -36.729688 
L 134.462823 -36.729688 
L 136.784593 -36.729688 
L 139.106362 -36.729688 
L 141.428131 -36.729688 
L 143.749901 -36.729688 
L 146.07167 -36.729688 
L 148.39344 -36.729688 
L 150.715209 -36.729688 
L 153.036978 -36.729688 
L 155.358748 -36.729688 
L 157.680517 -36.729688 
L 160.002287 -36.729688 
L 162.324056 -36.729688 
L 164.645825 -36.729688 
L 166.967595 -36.729688 
L 169.289364 -36.729688 
L 171.611133 -36.729688 
L 173.932903 -36.729688 
L 176.254672 -36.729688 
L 178.576442 -36.729688 
L 180.898211 -36.729688 
L 183.21998 -36.729688 
L 185.54175 -36.729688 
L 187.863519 -36.729688 
L 190.185289 -36.729688 
L 192.507058 -36.729688 
L 194.828827 -36.729688 
L 197.150597 -36.729688 
L 199.472366 -36.729688 
L 201.794136 -36.729688 
L 204.115905 -36.729688 
L 206.437674 -36.729688 
L 208.759444 -36.729688 
L 211.081213 -36.729688 
L 213.402982 -36.729688 
L 215.724752 -36.729688 
L 218.046521 -36.729688 
L 220.368291 -36.729688 
L 222.69006 -36.729688 
L 225.011829 -36.729688 
L 227.333599 -36.729688 
L 229.655368 -36.729688 
L 231.977138 -36.729688 
L 234.298907 -36.729688 
L 236.620676 -36.729688 
L 238.942446 -36.729688 
L 241.264215 -36.729688 
L 243.585985 -36.729688 
L 245.907754 -36.729688 
L 248.229523 -36.729688 
L 250.551293 -36.729688 
L 252.873062 -36.729688 
L 255.194831 -36.729688 
L 257.516601 -36.729688 
L 259.83837 -36.729688 
L 262.16014 -36.729688 
L 264.481909 -36.729688 
L 266.803678 -36.729688 
L 269.125448 -36.729688 
L 271.447217 -36.729688 
L 273.768987 -36.729688 
L 276.090756 -36.729688 
L 278.412525 -36.729688 
L 280.734295 -36.729688 
L 283.056064 -36.729688 
L 285.377833 -36.729688 
L 287.699603 -36.729688 
L 290.021372 -36.729688 
L 292.343142 -36.729688 
L 294.664911 -36.729688 
L 296.98668 -36.729688 
L 299.30845 -36.729688 
L 301.630219 -36.729688 
L 303.951989 -36.729688 
L 306.273758 -36.729688 
L 308.595527 -36.729688 
L 310.917297 -36.729688 
L 313.239066 -36.729688 
L 314.482176 -36.729688 
L 314.482176 -111.44063 
L 314.482176 -111.44063 
L 313.239066 -112.691082 
L 310.917297 -115.084815 
L 308.595527 -117.512958 
L 306.273758 -119.963363 
L 303.951989 -122.423569 
L 301.630219 -124.881681 
L 299.30845 -127.327113 
L 296.98668 -129.75109 
L 294.664911 -132.14686 
L 292.343142 -134.509625 
L 290.021372 -136.836219 
L 287.699603 -139.124611 
L 285.377833 -141.373331 
L 283.056064 -143.580906 
L 280.734295 -145.74539 
L 278.412525 -147.864028 
L 276.090756 -149.933069 
L 273.768987 -151.947704 
L 271.447217 -153.902086 
L 269.125448 -155.789364 
L 266.803678 -157.601689 
L 264.481909 -159.330159 
L 262.16014 -160.964692 
L 259.83837 -162.493866 
L 257.516601 -163.904776 
L 255.194831 -165.182986 
L 252.873062 -166.312639 
L 250.551293 -167.276782 
L 248.229523 -168.057932 
L 245.907754 -168.63885 
L 243.585985 -169.00348 
L 241.264215 -169.137947 
L 238.942446 -169.031523 
L 236.620676 -168.677435 
L 234.298907 -168.073434 
L 231.977138 -167.222076 
L 229.655368 -166.130668 
L 227.333599 -164.81092 
L 225.011829 -163.278344 
L 222.69006 -161.551448 
L 220.368291 -159.650833 
L 218.046521 -157.598231 
L 215.724752 -155.415562 
L 213.402982 -153.124062 
L 211.081213 -150.743513 
L 208.759444 -148.291612 
L 206.437674 -145.783508 
L 204.115905 -143.231536 
L 201.794136 -140.645168 
L 199.472366 -138.031183 
L 197.150597 -135.394064 
L 194.828827 -132.736583 
L 192.507058 -130.06052 
L 190.185289 -127.367448 
L 187.863519 -124.659484 
L 185.54175 -121.939917 
L 183.21998 -119.213624 
L 180.898211 -116.487219 
L 178.576442 -113.768909 
L 176.254672 -111.068066 
L 173.932903 -108.394575 
L 171.611133 -105.758053 
L 169.289364 -103.16703 
L 166.967595 -100.628222 
L 164.645825 -98.145988 
L 162.324056 -95.722051 
L 160.002287 -93.355523 
L 157.680517 -91.04323 
L 155.358748 -88.780299 
L 153.036978 -86.560933 
L 150.715209 -84.379282 
L 148.39344 -82.230295 
L 146.07167 -80.110473 
L 143.749901 -78.018426 
L 141.428131 -75.955176 
L 139.106362 -73.924187 
L 136.784593 -71.931113 
L 134.462823 -69.983302 
L 132.141054 -68.089108 
L 129.819284 -66.257073 
L 127.497515 -64.495078 
L 125.175746 -62.809536 
L 122.853976 -61.204707 
L 120.532207 -59.682214 
L 118.210438 -58.240802 
L 115.888668 -56.87638 
L 113.566899 -55.58234 
L 111.245129 -54.350138 
L 108.92336 -53.170076 
L 106.601591 -52.032212 
L 104.279821 -50.927302 
L 101.958052 -49.847687 
L 99.636282 -48.78801 
L 97.314513 -47.745701 
L 94.992744 -46.721174 
L 92.670974 -45.717711 
L 90.349205 -44.741064 
L 88.027435 -43.798816 
L 85.705666 -42.899583 
L 83.383897 -42.052149 
L 81.062127 -41.264632 
L 78.740358 -40.543763 
L 76.418589 -39.894346 
L 74.096819 -39.318939 
L 71.77505 -38.817757 
L 69.45328 -38.388798 
L 67.131511 -38.028122 
L 64.809742 -37.730268 
L 62.487972 -37.488717 
L 60.166203 -37.296371 
L 57.844433 -37.145991 
L 55.522664 -37.030565 
L 53.200895 -36.943587 
L 50.879125 -36.879246 
L 48.557356 -36.832522 
L 46.235587 -36.799212 
L 43.913817 -36.775902 
z
"/>
    </defs>
    <g>
     <use xlink:href="#m35a205073d" x="0" y="282.943437" style="fill: #dd8452; fill-opacity: 0.3"/>
    </g>
   </g>
   <g id="line2d_36">
    <path d="M 43.913817 246.167536 
L 53.200895 245.99985 
L 60.166203 245.647067 
L 64.809742 245.213169 
L 69.45328 244.55464 
L 74.096819 243.624499 
L 78.740358 242.399674 
L 83.383897 240.891288 
L 88.027435 239.144622 
L 94.992744 236.222264 
L 104.279821 232.016136 
L 111.245129 228.593299 
L 115.888668 226.067058 
L 120.532207 223.261223 
L 125.175746 220.133902 
L 129.819284 216.686365 
L 134.462823 212.960135 
L 141.428131 206.988262 
L 148.39344 200.713143 
L 155.358748 194.163139 
L 162.324056 187.221386 
L 166.967595 182.315215 
L 173.932903 174.548863 
L 183.21998 163.729814 
L 194.828827 150.206855 
L 204.115905 139.711901 
L 211.081213 132.199924 
L 215.724752 127.527876 
L 220.368291 123.292604 
L 222.69006 121.391989 
L 225.011829 119.665094 
L 227.333599 118.132517 
L 229.655368 116.81277 
L 231.977138 115.721361 
L 234.298907 114.870003 
L 236.620676 114.266003 
L 238.942446 113.911914 
L 241.264215 113.80549 
L 243.585985 113.939958 
L 245.907754 114.304588 
L 248.229523 114.885506 
L 250.551293 115.666656 
L 252.873062 116.630799 
L 255.194831 117.760451 
L 257.516601 119.038661 
L 262.16014 121.978746 
L 266.803678 125.341749 
L 271.447217 129.041351 
L 276.090756 133.010369 
L 283.056064 139.362531 
L 290.021372 146.107218 
L 296.98668 153.192348 
L 317.882605 174.89498 
L 322.526144 179.299219 
L 327.169682 183.452176 
L 334.134991 189.284594 
L 343.422068 196.617188 
L 355.030915 205.444093 
L 361.996223 210.46645 
L 366.639762 213.593362 
L 371.283301 216.478925 
L 375.92684 219.089352 
L 380.570378 221.421464 
L 385.213917 223.502536 
L 389.857456 225.379552 
L 396.822764 227.919521 
L 403.788072 230.223988 
L 410.75338 232.318668 
L 417.718689 234.185846 
L 424.683997 235.8326 
L 436.292844 238.28512 
L 461.832307 243.524514 
L 468.797615 244.599768 
L 475.762923 245.354283 
L 482.728231 245.811194 
L 489.69354 246.048989 
L 501.302387 246.186559 
L 505.945925 246.201932 
L 505.945925 246.201932 
" style="fill: none; stroke: #dd8452; stroke-width: 1.5; stroke-linecap: round"/>
   </g>
   <g id="line2d_37">
    <path d="M 446.562882 246.202482 
L 456.561694 246.081454 
L 463.227569 245.771229 
L 468.226975 245.330091 
L 474.89285 244.489304 
L 486.558131 242.721891 
L 491.557537 241.71917 
L 494.890475 240.828981 
L 498.223412 239.690151 
L 501.55635 238.253919 
L 504.889287 236.480909 
L 508.222225 234.340458 
L 511.555162 231.820521 
L 514.8881 228.949008 
L 519.887506 224.192418 
L 526.553381 217.827576 
L 531.552787 213.517365 
L 538.218662 207.917369 
L 541.551599 204.703414 
L 544.884537 200.927127 
L 546.551006 198.77494 
L 548.217474 196.422168 
L 549.883943 193.851028 
L 551.550412 191.043252 
L 553.216881 187.979799 
L 554.883349 184.641164 
L 556.549818 181.008259 
L 558.216287 177.063684 
L 559.882755 172.793193 
L 561.549224 168.187074 
L 564.882162 157.958029 
L 568.215099 146.421655 
L 571.548037 133.727194 
L 574.880974 120.123378 
L 584.879786 77.949419 
L 588.212724 65.349264 
L 589.879193 59.6886 
L 591.545661 54.549135 
L 593.21213 49.98569 
L 594.878599 46.036087 
L 596.545068 42.719386 
L 598.211536 40.035622 
L 599.878005 37.966979 
L 601.544474 36.48015 
L 603.210943 35.529484 
L 604.877411 35.060549 
L 606.54388 35.01375 
L 608.210349 35.327818 
L 609.876817 35.943062 
L 611.543286 36.804381 
L 613.209755 37.864047 
L 616.542692 40.43882 
L 619.87563 43.513847 
L 623.208567 47.14074 
L 624.875036 49.221173 
L 626.541505 51.519828 
L 628.207974 54.063365 
L 629.874442 56.869825 
L 631.540911 59.94501 
L 634.873848 66.854526 
L 638.206786 74.573627 
L 644.872661 91.092791 
L 651.538536 107.383649 
L 656.537942 119.015693 
L 663.203817 133.869399 
L 669.869692 148.706682 
L 674.869098 160.302312 
L 686.534379 187.808451 
L 689.867317 195.117424 
L 693.200254 201.912007 
L 696.533192 208.07559 
L 699.866129 213.52381 
L 703.199067 218.217653 
L 704.865535 220.283937 
L 706.532004 222.170814 
L 709.864941 225.445514 
L 713.197879 228.138465 
L 716.530816 230.363517 
L 719.863754 232.236315 
L 723.196691 233.862293 
L 728.196098 236.019527 
L 734.861973 238.620029 
L 741.527847 240.999594 
L 746.527254 242.593723 
L 751.52666 243.939891 
L 754.859597 244.657642 
L 758.192535 245.215044 
L 763.191941 245.764623 
L 768.191347 246.044214 
L 774.857222 246.179208 
L 778.19016 246.200062 
L 778.19016 246.200062 
" style="fill: none; stroke: #4c72b0; stroke-width: 1.5; stroke-linecap: round"/>
   </g>
   <g id="line2d_38">
    <path d="M 314.482176 246.21375 
L 314.482176 24.45375 
" style="fill: none; stroke-dasharray: 0.8,1.32; stroke-dashoffset: 0; stroke: #d3d3d3; stroke-width: 0.8"/>
   </g>
   <g id="line2d_39">
    <path d="M 7.2 246.21375 
L 844.2 246.21375 
" style="fill: none; stroke: #808080; stroke-width: 0.5; stroke-linecap: round"/>
   </g>
   <g id="AnnotationBbox_1">
    <g id="text_13">
     <text style="font-weight: 700; font-size: 8px; font-family: 'Arial', 'DejaVu Sans', 'Liberation Sans', 'Bitstream Vera Sans', sans-serif; text-anchor: end; fill: #808080" x="314.482176" y="12.92625" transform="rotate(-0 314.482176 12.92625)">International Poverty Line</text>
    </g>
    <g id="text_14">
     <text style="font-size: 8px; font-family: 'Arial', 'DejaVu Sans', 'Liberation Sans', 'Bitstream Vera Sans', sans-serif; text-anchor: end; fill: #808080" x="314.482176" y="22.86375" transform="rotate(-0 314.482176 22.86375)">$90 per month</text>
    </g>
   </g>
   <g id="legend_1">
    <g id="patch_3">
     <path d="M 683.8 119.719812 
L 851.4125 119.719812 
Q 853.4125 119.719812 853.4125 117.719812 
L 853.4125 75.80575 
Q 853.4125 73.80575 851.4125 73.80575 
L 683.8 73.80575 
Q 681.8 73.80575 681.8 75.80575 
L 681.8 117.719812 
Q 681.8 119.719812 683.8 119.719812 
z
" style="fill: #ffffff; opacity: 0.8; stroke: #cccccc; stroke-linejoin: miter"/>
    </g>
    <g id="text_15">
     <text style="font-size: 10px; font-family: 'Arial', 'DejaVu Sans', 'Liberation Sans', 'Bitstream Vera Sans', sans-serif; text-anchor: start; fill: #262626" x="750.1" y="85.085437" transform="rotate(-0 750.1 85.085437)">Country</text>
    </g>
    <g id="line2d_40">
     <path d="M 685.8 95.847937 
L 695.8 95.847937 
L 705.8 95.847937 
" style="fill: none; stroke: #4c72b0; stroke-width: 1.5; stroke-linecap: round"/>
    </g>
    <g id="text_16">
     <text style="font-size: 10px; font-family: 'Arial', 'DejaVu Sans', 'Liberation Sans', 'Bitstream Vera Sans', sans-serif; text-anchor: start; fill: #262626" x="713.8" y="99.347937" transform="rotate(-0 713.8 99.347937)">Denmark</text>
    </g>
    <g id="line2d_41">
     <path d="M 685.8 110.115125 
L 695.8 110.115125 
L 705.8 110.115125 
" style="fill: none; stroke: #dd8452; stroke-width: 1.5; stroke-linecap: round"/>
    </g>
    <g id="text_17">
     <text style="font-size: 10px; font-family: 'Arial', 'DejaVu Sans', 'Liberation Sans', 'Bitstream Vera Sans', sans-serif; text-anchor: start; fill: #262626" x="713.8" y="113.615125" transform="rotate(-0 713.8 113.615125)">Democratic Republic of Congo</text>
    </g>
   </g>
  </g>
 </g>
</svg>
