<?xml version="1.0" encoding="utf-8" standalone="no"?>
<!DOCTYPE svg PUBLIC "-//W3C//DTD SVG 1.1//EN"
  "http://www.w3.org/Graphics/SVG/1.1/DTD/svg11.dtd">
<svg xmlns:xlink="http://www.w3.org/1999/xlink" width="1080pt" height="540pt" viewBox="0 0 1080 540" xmlns="http://www.w3.org/2000/svg" version="1.1">
 <metadata>
  <rdf:RDF xmlns:dc="http://purl.org/dc/elements/1.1/" xmlns:cc="http://creativecommons.org/ns#" xmlns:rdf="http://www.w3.org/1999/02/22-rdf-syntax-ns#">
   <cc:Work>
    <dc:type rdf:resource="http://purl.org/dc/dcmitype/StillImage"/>
    <dc:date>2025-03-14T18:32:53.949325</dc:date>
    <dc:format>image/svg+xml</dc:format>
    <dc:creator>
     <cc:Agent>
      <dc:title>Matplotlib v3.10.1, https://matplotlib.org/</dc:title>
     </cc:Agent>
    </dc:creator>
   </cc:Work>
  </rdf:RDF>
 </metadata>
 <defs>
  <style type="text/css">*{stroke-linejoin: round; stroke-linecap: butt}</style>
 </defs>
 <g id="figure_1">
  <g id="patch_1">
   <path d="M 0 540 
L 1080 540 
L 1080 0 
L 0 0 
z
" style="fill: #ffffff"/>
  </g>
  <g id="axes_1">
   <g id="patch_2">
    <path d="M 10.8 98.175919 
L 1069.2 98.175919 
L 1069.2 10.8 
L 10.8 10.8 
z
" style="fill: #ffffff"/>
   </g>
   <g id="FillBetweenPolyCollection_1">
    <defs>
     <path id="mf1f3de0765" d="M 171.989034 -441.827368 
L 171.989034 -441.824081 
L 175.071523 -441.824081 
L 178.154012 -441.824081 
L 181.236501 -441.824081 
L 184.31899 -441.824081 
L 187.401478 -441.824081 
L 190.483967 -441.824081 
L 193.566456 -441.824081 
L 196.648945 -441.824081 
L 199.731434 -441.824081 
L 202.813923 -441.824081 
L 205.896412 -441.824081 
L 208.978901 -441.824081 
L 212.061389 -441.824081 
L 215.143878 -441.824081 
L 218.226367 -441.824081 
L 221.308856 -441.824081 
L 224.391345 -441.824081 
L 227.473834 -441.824081 
L 230.556323 -441.824081 
L 233.638812 -441.824081 
L 236.7213 -441.824081 
L 239.803789 -441.824081 
L 242.886278 -441.824081 
L 245.968767 -441.824081 
L 249.051256 -441.824081 
L 252.133745 -441.824081 
L 255.216234 -441.824081 
L 258.298723 -441.824081 
L 261.381212 -441.824081 
L 264.4637 -441.824081 
L 267.546189 -441.824081 
L 270.628678 -441.824081 
L 273.711167 -441.824081 
L 276.793656 -441.824081 
L 279.876145 -441.824081 
L 282.958634 -441.824081 
L 286.041123 -441.824081 
L 289.123611 -441.824081 
L 292.2061 -441.824081 
L 295.288589 -441.824081 
L 298.371078 -441.824081 
L 301.453567 -441.824081 
L 304.536056 -441.824081 
L 307.618545 -441.824081 
L 310.701034 -441.824081 
L 313.783522 -441.824081 
L 316.866011 -441.824081 
L 319.9485 -441.824081 
L 323.030989 -441.824081 
L 326.113478 -441.824081 
L 329.195967 -441.824081 
L 332.278456 -441.824081 
L 335.360945 -441.824081 
L 338.443433 -441.824081 
L 341.525922 -441.824081 
L 344.608411 -441.824081 
L 347.6909 -441.824081 
L 350.773389 -441.824081 
L 353.855878 -441.824081 
L 356.938367 -441.824081 
L 360.020856 -441.824081 
L 363.103345 -441.824081 
L 366.185833 -441.824081 
L 369.268322 -441.824081 
L 372.350811 -441.824081 
L 375.4333 -441.824081 
L 378.515789 -441.824081 
L 381.598278 -441.824081 
L 384.680767 -441.824081 
L 387.763256 -441.824081 
L 390.845744 -441.824081 
L 393.928233 -441.824081 
L 397.010722 -441.824081 
L 400.093211 -441.824081 
L 403.1757 -441.824081 
L 406.258189 -441.824081 
L 409.340678 -441.824081 
L 412.423167 -441.824081 
L 415.505655 -441.824081 
L 418.588144 -441.824081 
L 421.670633 -441.824081 
L 424.753122 -441.824081 
L 427.835611 -441.824081 
L 430.9181 -441.824081 
L 434.000589 -441.824081 
L 437.083078 -441.824081 
L 440.165567 -441.824081 
L 443.248055 -441.824081 
L 446.330544 -441.824081 
L 449.413033 -441.824081 
L 452.495522 -441.824081 
L 455.578011 -441.824081 
L 458.6605 -441.824081 
L 461.742989 -441.824081 
L 464.825478 -441.824081 
L 467.907966 -441.824081 
L 470.990455 -441.824081 
L 474.072944 -441.824081 
L 477.155433 -441.824081 
L 480.237922 -441.824081 
L 483.320411 -441.824081 
L 486.4029 -441.824081 
L 489.485389 -441.824081 
L 492.567877 -441.824081 
L 495.650366 -441.824081 
L 498.732855 -441.824081 
L 501.815344 -441.824081 
L 504.897833 -441.824081 
L 507.980322 -441.824081 
L 511.062811 -441.824081 
L 514.1453 -441.824081 
L 517.227788 -441.824081 
L 520.310277 -441.824081 
L 523.392766 -441.824081 
L 526.475255 -441.824081 
L 529.557744 -441.824081 
L 532.640233 -441.824081 
L 535.722722 -441.824081 
L 538.805211 -441.824081 
L 541.8877 -441.824081 
L 544.970188 -441.824081 
L 548.052677 -441.824081 
L 551.135166 -441.824081 
L 554.217655 -441.824081 
L 557.300144 -441.824081 
L 560.382633 -441.824081 
L 563.465122 -441.824081 
L 566.547611 -441.824081 
L 569.630099 -441.824081 
L 572.712588 -441.824081 
L 575.795077 -441.824081 
L 578.877566 -441.824081 
L 581.960055 -441.824081 
L 585.042544 -441.824081 
L 588.125033 -441.824081 
L 591.207522 -441.824081 
L 594.29001 -441.824081 
L 597.372499 -441.824081 
L 600.454988 -441.824081 
L 603.537477 -441.824081 
L 606.619966 -441.824081 
L 609.702455 -441.824081 
L 612.784944 -441.824081 
L 615.867433 -441.824081 
L 618.949921 -441.824081 
L 622.03241 -441.824081 
L 625.114899 -441.824081 
L 628.197388 -441.824081 
L 631.279877 -441.824081 
L 634.362366 -441.824081 
L 637.444855 -441.824081 
L 640.527344 -441.824081 
L 643.609833 -441.824081 
L 646.692321 -441.824081 
L 649.77481 -441.824081 
L 652.857299 -441.824081 
L 655.939788 -441.824081 
L 659.022277 -441.824081 
L 662.104766 -441.824081 
L 665.187255 -441.824081 
L 668.269744 -441.824081 
L 671.352232 -441.824081 
L 674.434721 -441.824081 
L 677.51721 -441.824081 
L 680.599699 -441.824081 
L 683.682188 -441.824081 
L 686.764677 -441.824081 
L 689.847166 -441.824081 
L 692.929655 -441.824081 
L 696.012143 -441.824081 
L 699.094632 -441.824081 
L 702.177121 -441.824081 
L 705.25961 -441.824081 
L 708.342099 -441.824081 
L 711.424588 -441.824081 
L 714.507077 -441.824081 
L 717.589566 -441.824081 
L 720.672055 -441.824081 
L 723.754543 -441.824081 
L 726.837032 -441.824081 
L 729.919521 -441.824081 
L 733.00201 -441.824081 
L 736.084499 -441.824081 
L 739.166988 -441.824081 
L 742.249477 -441.824081 
L 745.331966 -441.824081 
L 748.414454 -441.824081 
L 751.496943 -441.824081 
L 754.579432 -441.824081 
L 757.661921 -441.824081 
L 760.74441 -441.824081 
L 763.826899 -441.824081 
L 766.909388 -441.824081 
L 769.991877 -441.824081 
L 773.074365 -441.824081 
L 776.156854 -441.824081 
L 779.239343 -441.824081 
L 782.321832 -441.824081 
L 785.404321 -441.824081 
L 785.404321 -441.827316 
L 785.404321 -441.827316 
L 782.321832 -441.829783 
L 779.239343 -441.833757 
L 776.156854 -441.839884 
L 773.074365 -441.848927 
L 769.991877 -441.861682 
L 766.909388 -441.878853 
L 763.826899 -441.900879 
L 760.74441 -441.92773 
L 757.661921 -441.958733 
L 754.579432 -441.992458 
L 751.496943 -442.026747 
L 748.414454 -442.058885 
L 745.331966 -442.085934 
L 742.249477 -442.105166 
L 739.166988 -442.114512 
L 736.084499 -442.112933 
L 733.00201 -442.100606 
L 729.919521 -442.078894 
L 726.837032 -442.050094 
L 723.754543 -442.017044 
L 720.672055 -441.982659 
L 717.589566 -441.949523 
L 714.507077 -441.919598 
L 711.424588 -441.894096 
L 708.342099 -441.873497 
L 705.25961 -441.85769 
L 702.177121 -441.846164 
L 699.094632 -441.838216 
L 696.012143 -441.833129 
L 692.929655 -441.830305 
L 689.847166 -441.829354 
L 686.764677 -441.830148 
L 683.682188 -441.832845 
L 680.599699 -441.837898 
L 677.51721 -441.846036 
L 674.434721 -441.858222 
L 671.352232 -441.875575 
L 668.269744 -441.899247 
L 665.187255 -441.930275 
L 662.104766 -441.969411 
L 659.022277 -442.016977 
L 655.939788 -442.072782 
L 652.857299 -442.136117 
L 649.77481 -442.20586 
L 646.692321 -442.280669 
L 643.609833 -442.359218 
L 640.527344 -442.440443 
L 637.444855 -442.523724 
L 634.362366 -442.608978 
L 631.279877 -442.696663 
L 628.197388 -442.787684 
L 625.114899 -442.883254 
L 622.03241 -442.984728 
L 618.949921 -443.09345 
L 615.867433 -443.210627 
L 612.784944 -443.337252 
L 609.702455 -443.47408 
L 606.619966 -443.621661 
L 603.537477 -443.780432 
L 600.454988 -443.950851 
L 597.372499 -444.133538 
L 594.29001 -444.329387 
L 591.207522 -444.539598 
L 588.125033 -444.765618 
L 585.042544 -445.008989 
L 581.960055 -445.271144 
L 578.877566 -445.55323 
L 575.795077 -445.856015 
L 572.712588 -446.179945 
L 569.630099 -446.525338 
L 566.547611 -446.892671 
L 563.465122 -447.282869 
L 560.382633 -447.697472 
L 557.300144 -448.138624 
L 554.217655 -448.608859 
L 551.135166 -449.110742 
L 548.052677 -449.64649 
L 544.970188 -450.217709 
L 541.8877 -450.825329 
L 538.805211 -451.469782 
L 535.722722 -452.15131 
L 532.640233 -452.870295 
L 529.557744 -453.627426 
L 526.475255 -454.423626 
L 523.392766 -455.259735 
L 520.310277 -456.136067 
L 517.227788 -457.052067 
L 514.1453 -458.006276 
L 511.062811 -458.996774 
L 507.980322 -460.022119 
L 504.897833 -461.082673 
L 501.815344 -462.182048 
L 498.732855 -463.328334 
L 495.650366 -464.534794 
L 492.567877 -465.819799 
L 489.485389 -467.205909 
L 486.4029 -468.71822 
L 483.320411 -470.38221 
L 480.237922 -472.221426 
L 477.155433 -474.255385 
L 474.072944 -476.497979 
L 470.990455 -478.956539 
L 467.907966 -481.631574 
L 464.825478 -484.516981 
L 461.742989 -487.600416 
L 458.6605 -490.863393 
L 455.578011 -494.280772 
L 452.495522 -497.81939 
L 449.413033 -501.435959 
L 446.330544 -505.07471 
L 443.248055 -508.665624 
L 440.165567 -512.12434 
L 437.083078 -515.354732 
L 434.000589 -518.25474 
L 430.9181 -520.725293 
L 427.835611 -522.681285 
L 424.753122 -524.062769 
L 421.670633 -524.844146 
L 418.588144 -525.039242 
L 415.505655 -524.70085 
L 412.423167 -523.914432 
L 409.340678 -522.786857 
L 406.258189 -521.432072 
L 403.1757 -519.956167 
L 400.093211 -518.444305 
L 397.010722 -516.951534 
L 393.928233 -515.498648 
L 390.845744 -514.073421 
L 387.763256 -512.636596 
L 384.680767 -511.131439 
L 381.598278 -509.495187 
L 378.515789 -507.670635 
L 375.4333 -505.616174 
L 372.350811 -503.312964 
L 369.268322 -500.768412 
L 366.185833 -498.015745 
L 363.103345 -495.110072 
L 360.020856 -492.121805 
L 356.938367 -489.128579 
L 353.855878 -486.206892 
L 350.773389 -483.424515 
L 347.6909 -480.834494 
L 344.608411 -478.471277 
L 341.525922 -476.349188 
L 338.443433 -474.463244 
L 335.360945 -472.792056 
L 332.278456 -471.302303 
L 329.195967 -469.954106 
L 326.113478 -468.706457 
L 323.030989 -467.521923 
L 319.9485 -466.369977 
L 316.866011 -465.228612 
L 313.783522 -464.084287 
L 310.701034 -462.930564 
L 307.618545 -461.766032 
L 304.536056 -460.59217 
L 301.453567 -459.411693 
L 298.371078 -458.227675 
L 295.288589 -457.043489 
L 292.2061 -455.863316 
L 289.123611 -454.692877 
L 286.041123 -453.539964 
L 282.958634 -452.414504 
L 279.876145 -451.328026 
L 276.793656 -450.292629 
L 273.711167 -449.319686 
L 270.628678 -448.418583 
L 267.546189 -447.595782 
L 264.4637 -446.854351 
L 261.381212 -446.19402 
L 258.298723 -445.611653 
L 255.216234 -445.101991 
L 252.133745 -444.658467 
L 249.051256 -444.273967 
L 245.968767 -443.941423 
L 242.886278 -443.654201 
L 239.803789 -443.406298 
L 236.7213 -443.192368 
L 233.638812 -443.007644 
L 230.556323 -442.847817 
L 227.473834 -442.708948 
L 224.391345 -442.587438 
L 221.308856 -442.480089 
L 218.226367 -442.384224 
L 215.143878 -442.297804 
L 212.061389 -442.219504 
L 208.978901 -442.148674 
L 205.896412 -442.0852 
L 202.813923 -442.029275 
L 199.731434 -441.981152 
L 196.648945 -441.94092 
L 193.566456 -441.908372 
L 190.483967 -441.882962 
L 187.401478 -441.863856 
L 184.31899 -441.850037 
L 181.236501 -441.84043 
L 178.154012 -441.834016 
L 175.071523 -441.829901 
L 171.989034 -441.827368 
z
" style="stroke: #1f77b4"/>
    </defs>
    <g clip-path="url(#p4b9ef78487)">
     <use xlink:href="#mf1f3de0765" x="0" y="540" style="fill: #1f77b4; fill-opacity: 0.25; stroke: #1f77b4"/>
    </g>
   </g>
   <g id="matplotlib.axis_1">
    <g id="xtick_1"/>
    <g id="xtick_2"/>
    <g id="xtick_3"/>
    <g id="xtick_4"/>
    <g id="xtick_5"/>
    <g id="xtick_6"/>
    <g id="xtick_7"/>
    <g id="xtick_8"/>
    <g id="xtick_9"/>
    <g id="xtick_10"/>
    <g id="xtick_11"/>
    <g id="xtick_12"/>
    <g id="xtick_13"/>
    <g id="xtick_14"/>
    <g id="xtick_15"/>
    <g id="xtick_16"/>
    <g id="xtick_17"/>
    <g id="xtick_18"/>
    <g id="xtick_19"/>
    <g id="xtick_20"/>
    <g id="xtick_21"/>
    <g id="xtick_22"/>
    <g id="xtick_23"/>
    <g id="xtick_24"/>
    <g id="xtick_25"/>
    <g id="xtick_26"/>
    <g id="xtick_27"/>
    <g id="xtick_28"/>
    <g id="xtick_29"/>
    <g id="xtick_30"/>
    <g id="xtick_31"/>
    <g id="xtick_32"/>
    <g id="xtick_33"/>
    <g id="xtick_34"/>
    <g id="xtick_35"/>
    <g id="xtick_36"/>
    <g id="xtick_37"/>
    <g id="xtick_38"/>
    <g id="xtick_39"/>
   </g>
   <g id="matplotlib.axis_2"/>
   <g id="line2d_1">
    <path d="M 349.624992 98.175919 
L 349.624992 10.8 
" clip-path="url(#p4b9ef78487)" style="fill: none; stroke-dasharray: 2.96,1.28; stroke-dashoffset: 0; stroke: #d3d3d3; stroke-width: 0.8"/>
   </g>
   <g id="line2d_2">
    <path d="M 574.652377 98.175919 
L 574.652377 10.8 
" clip-path="url(#p4b9ef78487)" style="fill: none; stroke-dasharray: 2.96,1.28; stroke-dashoffset: 0; stroke: #d3d3d3; stroke-width: 0.8"/>
   </g>
   <g id="line2d_3">
    <path d="M 487.886534 98.175919 
L 487.886534 10.8 
" clip-path="url(#p4b9ef78487)" style="fill: none; stroke-dasharray: 2.96,1.28; stroke-dashoffset: 0; stroke: #d3d3d3; stroke-width: 0.8"/>
   </g>
   <g id="text_1">
    <!-- Ethiopia -->
    <g transform="translate(411.91245 96.096231) scale(0.1 -0.1)">
     <defs>
      <path id="DejaVuSans-45" d="M 628 4666 
L 3578 4666 
L 3578 4134 
L 1259 4134 
L 1259 2753 
L 3481 2753 
L 3481 2222 
L 1259 2222 
L 1259 531 
L 3634 531 
L 3634 0 
L 628 0 
L 628 4666 
z
" transform="scale(0.015625)"/>
      <path id="DejaVuSans-74" d="M 1172 4494 
L 1172 3500 
L 2356 3500 
L 2356 3053 
L 1172 3053 
L 1172 1153 
Q 1172 725 1289 603 
Q 1406 481 1766 481 
L 2356 481 
L 2356 0 
L 1766 0 
Q 1100 0 847 248 
Q 594 497 594 1153 
L 594 3053 
L 172 3053 
L 172 3500 
L 594 3500 
L 594 4494 
L 1172 4494 
z
" transform="scale(0.015625)"/>
      <path id="DejaVuSans-68" d="M 3513 2113 
L 3513 0 
L 2938 0 
L 2938 2094 
Q 2938 2591 2744 2837 
Q 2550 3084 2163 3084 
Q 1697 3084 1428 2787 
Q 1159 2491 1159 1978 
L 1159 0 
L 581 0 
L 581 4863 
L 1159 4863 
L 1159 2956 
Q 1366 3272 1645 3428 
Q 1925 3584 2291 3584 
Q 2894 3584 3203 3211 
Q 3513 2838 3513 2113 
z
" transform="scale(0.015625)"/>
      <path id="DejaVuSans-69" d="M 603 3500 
L 1178 3500 
L 1178 0 
L 603 0 
L 603 3500 
z
M 603 4863 
L 1178 4863 
L 1178 4134 
L 603 4134 
L 603 4863 
z
" transform="scale(0.015625)"/>
      <path id="DejaVuSans-6f" d="M 1959 3097 
Q 1497 3097 1228 2736 
Q 959 2375 959 1747 
Q 959 1119 1226 758 
Q 1494 397 1959 397 
Q 2419 397 2687 759 
Q 2956 1122 2956 1747 
Q 2956 2369 2687 2733 
Q 2419 3097 1959 3097 
z
M 1959 3584 
Q 2709 3584 3137 3096 
Q 3566 2609 3566 1747 
Q 3566 888 3137 398 
Q 2709 -91 1959 -91 
Q 1206 -91 779 398 
Q 353 888 353 1747 
Q 353 2609 779 3096 
Q 1206 3584 1959 3584 
z
" transform="scale(0.015625)"/>
      <path id="DejaVuSans-70" d="M 1159 525 
L 1159 -1331 
L 581 -1331 
L 581 3500 
L 1159 3500 
L 1159 2969 
Q 1341 3281 1617 3432 
Q 1894 3584 2278 3584 
Q 2916 3584 3314 3078 
Q 3713 2572 3713 1747 
Q 3713 922 3314 415 
Q 2916 -91 2278 -91 
Q 1894 -91 1617 61 
Q 1341 213 1159 525 
z
M 3116 1747 
Q 3116 2381 2855 2742 
Q 2594 3103 2138 3103 
Q 1681 3103 1420 2742 
Q 1159 2381 1159 1747 
Q 1159 1113 1420 752 
Q 1681 391 2138 391 
Q 2594 391 2855 752 
Q 3116 1113 3116 1747 
z
" transform="scale(0.015625)"/>
      <path id="DejaVuSans-61" d="M 2194 1759 
Q 1497 1759 1228 1600 
Q 959 1441 959 1056 
Q 959 750 1161 570 
Q 1363 391 1709 391 
Q 2188 391 2477 730 
Q 2766 1069 2766 1631 
L 2766 1759 
L 2194 1759 
z
M 3341 1997 
L 3341 0 
L 2766 0 
L 2766 531 
Q 2569 213 2275 61 
Q 1981 -91 1556 -91 
Q 1019 -91 701 211 
Q 384 513 384 1019 
Q 384 1609 779 1909 
Q 1175 2209 1959 2209 
L 2766 2209 
L 2766 2266 
Q 2766 2663 2505 2880 
Q 2244 3097 1772 3097 
Q 1472 3097 1187 3025 
Q 903 2953 641 2809 
L 641 3341 
Q 956 3463 1253 3523 
Q 1550 3584 1831 3584 
Q 2591 3584 2966 3190 
Q 3341 2797 3341 1997 
z
" transform="scale(0.015625)"/>
     </defs>
     <use xlink:href="#DejaVuSans-45"/>
     <use xlink:href="#DejaVuSans-74" transform="translate(63.183594 0)"/>
     <use xlink:href="#DejaVuSans-68" transform="translate(102.392578 0)"/>
     <use xlink:href="#DejaVuSans-69" transform="translate(165.771484 0)"/>
     <use xlink:href="#DejaVuSans-6f" transform="translate(193.554688 0)"/>
     <use xlink:href="#DejaVuSans-70" transform="translate(254.736328 0)"/>
     <use xlink:href="#DejaVuSans-69" transform="translate(318.212891 0)"/>
     <use xlink:href="#DejaVuSans-61" transform="translate(345.996094 0)"/>
    </g>
   </g>
  </g>
  <g id="axes_2">
   <g id="patch_3">
    <path d="M 10.8 196.351837 
L 1069.2 196.351837 
L 1069.2 108.975919 
L 10.8 108.975919 
z
" style="fill: #ffffff"/>
   </g>
   <g id="FillBetweenPolyCollection_2">
    <defs>
     <path id="m7c2ab9b75a" d="M 235.320485 -343.651744 
L 235.320485 -343.648163 
L 238.01414 -343.648163 
L 240.707796 -343.648163 
L 243.401452 -343.648163 
L 246.095108 -343.648163 
L 248.788764 -343.648163 
L 251.48242 -343.648163 
L 254.176075 -343.648163 
L 256.869731 -343.648163 
L 259.563387 -343.648163 
L 262.257043 -343.648163 
L 264.950699 -343.648163 
L 267.644355 -343.648163 
L 270.338011 -343.648163 
L 273.031666 -343.648163 
L 275.725322 -343.648163 
L 278.418978 -343.648163 
L 281.112634 -343.648163 
L 283.80629 -343.648163 
L 286.499946 -343.648163 
L 289.193601 -343.648163 
L 291.887257 -343.648163 
L 294.580913 -343.648163 
L 297.274569 -343.648163 
L 299.968225 -343.648163 
L 302.661881 -343.648163 
L 305.355536 -343.648163 
L 308.049192 -343.648163 
L 310.742848 -343.648163 
L 313.436504 -343.648163 
L 316.13016 -343.648163 
L 318.823816 -343.648163 
L 321.517472 -343.648163 
L 324.211127 -343.648163 
L 326.904783 -343.648163 
L 329.598439 -343.648163 
L 332.292095 -343.648163 
L 334.985751 -343.648163 
L 337.679407 -343.648163 
L 340.373062 -343.648163 
L 343.066718 -343.648163 
L 345.760374 -343.648163 
L 348.45403 -343.648163 
L 351.147686 -343.648163 
L 353.841342 -343.648163 
L 356.534997 -343.648163 
L 359.228653 -343.648163 
L 361.922309 -343.648163 
L 364.615965 -343.648163 
L 367.309621 -343.648163 
L 370.003277 -343.648163 
L 372.696932 -343.648163 
L 375.390588 -343.648163 
L 378.084244 -343.648163 
L 380.7779 -343.648163 
L 383.471556 -343.648163 
L 386.165212 -343.648163 
L 388.858868 -343.648163 
L 391.552523 -343.648163 
L 394.246179 -343.648163 
L 396.939835 -343.648163 
L 399.633491 -343.648163 
L 402.327147 -343.648163 
L 405.020803 -343.648163 
L 407.714458 -343.648163 
L 410.408114 -343.648163 
L 413.10177 -343.648163 
L 415.795426 -343.648163 
L 418.489082 -343.648163 
L 421.182738 -343.648163 
L 423.876393 -343.648163 
L 426.570049 -343.648163 
L 429.263705 -343.648163 
L 431.957361 -343.648163 
L 434.651017 -343.648163 
L 437.344673 -343.648163 
L 440.038329 -343.648163 
L 442.731984 -343.648163 
L 445.42564 -343.648163 
L 448.119296 -343.648163 
L 450.812952 -343.648163 
L 453.506608 -343.648163 
L 456.200264 -343.648163 
L 458.893919 -343.648163 
L 461.587575 -343.648163 
L 464.281231 -343.648163 
L 466.974887 -343.648163 
L 469.668543 -343.648163 
L 472.362199 -343.648163 
L 475.055854 -343.648163 
L 477.74951 -343.648163 
L 480.443166 -343.648163 
L 483.136822 -343.648163 
L 485.830478 -343.648163 
L 488.524134 -343.648163 
L 491.217789 -343.648163 
L 493.911445 -343.648163 
L 496.605101 -343.648163 
L 499.298757 -343.648163 
L 501.992413 -343.648163 
L 504.686069 -343.648163 
L 507.379725 -343.648163 
L 510.07338 -343.648163 
L 512.767036 -343.648163 
L 515.460692 -343.648163 
L 518.154348 -343.648163 
L 520.848004 -343.648163 
L 523.54166 -343.648163 
L 526.235315 -343.648163 
L 528.928971 -343.648163 
L 531.622627 -343.648163 
L 534.316283 -343.648163 
L 537.009939 -343.648163 
L 539.703595 -343.648163 
L 542.39725 -343.648163 
L 545.090906 -343.648163 
L 547.784562 -343.648163 
L 550.478218 -343.648163 
L 553.171874 -343.648163 
L 555.86553 -343.648163 
L 558.559186 -343.648163 
L 561.252841 -343.648163 
L 563.946497 -343.648163 
L 566.640153 -343.648163 
L 569.333809 -343.648163 
L 572.027465 -343.648163 
L 574.721121 -343.648163 
L 577.414776 -343.648163 
L 580.108432 -343.648163 
L 582.802088 -343.648163 
L 585.495744 -343.648163 
L 588.1894 -343.648163 
L 590.883056 -343.648163 
L 593.576711 -343.648163 
L 596.270367 -343.648163 
L 598.964023 -343.648163 
L 601.657679 -343.648163 
L 604.351335 -343.648163 
L 607.044991 -343.648163 
L 609.738646 -343.648163 
L 612.432302 -343.648163 
L 615.125958 -343.648163 
L 617.819614 -343.648163 
L 620.51327 -343.648163 
L 623.206926 -343.648163 
L 625.900582 -343.648163 
L 628.594237 -343.648163 
L 631.287893 -343.648163 
L 633.981549 -343.648163 
L 636.675205 -343.648163 
L 639.368861 -343.648163 
L 642.062517 -343.648163 
L 644.756172 -343.648163 
L 647.449828 -343.648163 
L 650.143484 -343.648163 
L 652.83714 -343.648163 
L 655.530796 -343.648163 
L 658.224452 -343.648163 
L 660.918107 -343.648163 
L 663.611763 -343.648163 
L 666.305419 -343.648163 
L 668.999075 -343.648163 
L 671.692731 -343.648163 
L 674.386387 -343.648163 
L 677.080043 -343.648163 
L 679.773698 -343.648163 
L 682.467354 -343.648163 
L 685.16101 -343.648163 
L 687.854666 -343.648163 
L 690.548322 -343.648163 
L 693.241978 -343.648163 
L 695.935633 -343.648163 
L 698.629289 -343.648163 
L 701.322945 -343.648163 
L 704.016601 -343.648163 
L 706.710257 -343.648163 
L 709.403913 -343.648163 
L 712.097568 -343.648163 
L 714.791224 -343.648163 
L 717.48488 -343.648163 
L 720.178536 -343.648163 
L 722.872192 -343.648163 
L 725.565848 -343.648163 
L 728.259503 -343.648163 
L 730.953159 -343.648163 
L 733.646815 -343.648163 
L 736.340471 -343.648163 
L 739.034127 -343.648163 
L 741.727783 -343.648163 
L 744.421439 -343.648163 
L 747.115094 -343.648163 
L 749.80875 -343.648163 
L 752.502406 -343.648163 
L 755.196062 -343.648163 
L 757.889718 -343.648163 
L 760.583374 -343.648163 
L 763.277029 -343.648163 
L 765.970685 -343.648163 
L 768.664341 -343.648163 
L 771.357997 -343.648163 
L 771.357997 -343.651688 
L 771.357997 -343.651688 
L 768.664341 -343.654187 
L 765.970685 -343.658116 
L 763.277029 -343.664055 
L 760.583374 -343.672693 
L 757.889718 -343.684759 
L 755.196062 -343.700939 
L 752.502406 -343.721728 
L 749.80875 -343.747283 
L 747.115094 -343.777253 
L 744.421439 -343.810671 
L 741.727783 -343.845907 
L 739.034127 -343.880746 
L 736.340471 -343.912587 
L 733.646815 -343.938747 
L 730.953159 -343.956829 
L 728.259503 -343.965085 
L 725.565848 -343.962695 
L 722.872192 -343.949898 
L 720.178536 -343.927954 
L 717.48488 -343.898945 
L 714.791224 -343.865444 
L 712.097568 -343.830149 
L 709.403913 -343.795534 
L 706.710257 -343.763598 
L 704.016601 -343.735726 
L 701.322945 -343.712688 
L 698.629289 -343.694737 
L 695.935633 -343.681786 
L 693.241978 -343.673607 
L 690.548322 -343.670041 
L 687.854666 -343.671167 
L 685.16101 -343.677433 
L 682.467354 -343.689734 
L 679.773698 -343.70943 
L 677.080043 -343.738298 
L 674.386387 -343.778412 
L 671.692731 -343.831959 
L 668.999075 -343.900999 
L 666.305419 -343.987178 
L 663.611763 -344.091441 
L 660.918107 -344.213786 
L 658.224452 -344.353096 
L 655.530796 -344.507094 
L 652.83714 -344.672459 
L 650.143484 -344.845096 
L 647.449828 -345.020544 
L 644.756172 -345.194482 
L 642.062517 -345.363248 
L 639.368861 -345.524315 
L 636.675205 -345.676623 
L 633.981549 -345.820723 
L 631.287893 -345.958708 
L 628.594237 -346.093937 
L 625.900582 -346.230596 
L 623.206926 -346.373167 
L 620.51327 -346.525894 
L 617.819614 -346.692293 
L 615.125958 -346.874798 
L 612.432302 -347.074555 
L 609.738646 -347.291403 
L 607.044991 -347.524043 
L 604.351335 -347.770391 
L 601.657679 -348.028059 
L 598.964023 -348.294936 
L 596.270367 -348.569748 
L 593.576711 -348.852516 
L 590.883056 -349.144791 
L 588.1894 -349.449602 
L 585.495744 -349.77111 
L 582.802088 -350.113998 
L 580.108432 -350.482761 
L 577.414776 -350.88103 
L 574.721121 -351.311133 
L 572.027465 -351.774005 
L 569.333809 -352.269492 
L 566.640153 -352.797004 
L 563.946497 -353.356344 
L 561.252841 -353.948518 
L 558.559186 -354.576304 
L 555.86553 -355.244417 
L 553.171874 -355.959217 
L 550.478218 -356.728002 
L 547.784562 -357.558063 
L 545.090906 -358.455715 
L 542.39725 -359.425547 
L 539.703595 -360.470065 
L 537.009939 -361.589809 
L 534.316283 -362.78391 
L 531.622627 -364.05095 
L 528.928971 -365.389919 
L 526.235315 -366.801043 
L 523.54166 -368.286296 
L 520.848004 -369.849464 
L 518.154348 -371.495714 
L 515.460692 -373.230725 
L 512.767036 -375.059512 
L 510.07338 -376.985122 
L 507.379725 -379.007432 
L 504.686069 -381.122248 
L 501.992413 -383.320873 
L 499.298757 -385.590227 
L 496.605101 -387.913516 
L 493.911445 -390.27136 
L 491.217789 -392.643217 
L 488.524134 -395.008918 
L 485.830478 -397.350104 
L 483.136822 -399.651397 
L 480.443166 -401.901162 
L 477.74951 -404.091767 
L 475.055854 -406.219301 
L 472.362199 -408.28278 
L 469.668543 -410.282924 
L 466.974887 -412.220651 
L 464.281231 -414.095491 
L 461.587575 -415.904117 
L 458.893919 -417.6392 
L 456.200264 -419.288737 
L 453.506608 -420.83595 
L 450.812952 -422.25979 
L 448.119296 -423.536033 
L 445.42564 -424.638898 
L 442.731984 -425.543065 
L 440.038329 -426.225899 
L 437.344673 -426.669653 
L 434.651017 -426.863323 
L 431.957361 -426.803871 
L 429.263705 -426.496533 
L 426.570049 -425.954088 
L 423.876393 -425.195115 
L 421.182738 -424.241483 
L 418.489082 -423.115464 
L 415.795426 -421.836972 
L 413.10177 -420.421425 
L 410.408114 -418.878606 
L 407.714458 -417.212735 
L 405.020803 -415.423689 
L 402.327147 -413.509126 
L 399.633491 -411.467046 
L 396.939835 -409.298274 
L 394.246179 -407.00833 
L 391.552523 -404.608332 
L 388.858868 -402.114749 
L 386.165212 -399.548119 
L 383.471556 -396.931054 
L 380.7779 -394.285997 
L 378.084244 -391.633261 
L 375.390588 -388.989723 
L 372.696932 -386.368401 
L 370.003277 -383.778879 
L 367.309621 -381.228337 
L 364.615965 -378.722852 
L 361.922309 -376.268588 
L 359.228653 -373.872602 
L 356.534997 -371.543116 
L 353.841342 -369.289302 
L 351.147686 -367.120689 
L 348.45403 -365.04643 
L 345.760374 -363.074613 
L 343.066718 -361.21178 
L 340.373062 -359.462703 
L 337.679407 -357.830397 
L 334.985751 -356.316286 
L 332.292095 -354.920415 
L 329.598439 -353.641608 
L 326.904783 -352.47753 
L 324.211127 -351.424674 
L 321.517472 -350.478311 
L 318.823816 -349.632499 
L 316.13016 -348.880206 
L 313.436504 -348.213584 
L 310.742848 -347.624381 
L 308.049192 -347.104402 
L 305.355536 -346.645958 
L 302.661881 -346.242189 
L 299.968225 -345.887206 
L 297.274569 -345.576038 
L 294.580913 -345.30442 
L 291.887257 -345.068504 
L 289.193601 -344.864574 
L 286.499946 -344.688869 
L 283.80629 -344.537547 
L 281.112634 -344.406795 
L 278.418978 -344.293044 
L 275.725322 -344.1932 
L 273.031666 -344.104833 
L 270.338011 -344.026249 
L 267.644355 -343.956442 
L 264.950699 -343.894928 
L 262.257043 -343.841521 
L 259.563387 -343.796109 
L 256.869731 -343.75847 
L 254.176075 -343.728169 
L 251.48242 -343.704535 
L 248.788764 -343.686706 
L 246.095108 -343.673714 
L 243.401452 -343.664575 
L 240.707796 -343.658371 
L 238.01414 -343.654309 
L 235.320485 -343.651744 
z
" style="stroke: #1f77b4"/>
    </defs>
    <g clip-path="url(#p91548c3d30)">
     <use xlink:href="#m7c2ab9b75a" x="0" y="540" style="fill: #1f77b4; fill-opacity: 0.25; stroke: #1f77b4"/>
    </g>
   </g>
   <g id="matplotlib.axis_3">
    <g id="xtick_40"/>
    <g id="xtick_41"/>
    <g id="xtick_42"/>
    <g id="xtick_43"/>
    <g id="xtick_44"/>
    <g id="xtick_45"/>
    <g id="xtick_46"/>
    <g id="xtick_47"/>
    <g id="xtick_48"/>
    <g id="xtick_49"/>
    <g id="xtick_50"/>
    <g id="xtick_51"/>
    <g id="xtick_52"/>
    <g id="xtick_53"/>
    <g id="xtick_54"/>
    <g id="xtick_55"/>
    <g id="xtick_56"/>
    <g id="xtick_57"/>
    <g id="xtick_58"/>
    <g id="xtick_59"/>
    <g id="xtick_60"/>
    <g id="xtick_61"/>
    <g id="xtick_62"/>
    <g id="xtick_63"/>
    <g id="xtick_64"/>
    <g id="xtick_65"/>
    <g id="xtick_66"/>
    <g id="xtick_67"/>
    <g id="xtick_68"/>
    <g id="xtick_69"/>
    <g id="xtick_70"/>
    <g id="xtick_71"/>
    <g id="xtick_72"/>
    <g id="xtick_73"/>
    <g id="xtick_74"/>
    <g id="xtick_75"/>
    <g id="xtick_76"/>
    <g id="xtick_77"/>
    <g id="xtick_78"/>
   </g>
   <g id="matplotlib.axis_4"/>
   <g id="line2d_4">
    <path d="M 349.624992 196.351837 
L 349.624992 108.975919 
" clip-path="url(#p91548c3d30)" style="fill: none; stroke-dasharray: 2.96,1.28; stroke-dashoffset: 0; stroke: #d3d3d3; stroke-width: 0.8"/>
   </g>
   <g id="line2d_5">
    <path d="M 574.652377 196.351837 
L 574.652377 108.975919 
" clip-path="url(#p91548c3d30)" style="fill: none; stroke-dasharray: 2.96,1.28; stroke-dashoffset: 0; stroke: #d3d3d3; stroke-width: 0.8"/>
   </g>
   <g id="line2d_6">
    <path d="M 487.886534 196.351837 
L 487.886534 108.975919 
" clip-path="url(#p91548c3d30)" style="fill: none; stroke-dasharray: 2.96,1.28; stroke-dashoffset: 0; stroke: #d3d3d3; stroke-width: 0.8"/>
   </g>
   <g id="text_2">
    <!-- Bangladesh -->
    <g transform="translate(438.594966 194.27215) scale(0.1 -0.1)">
     <defs>
      <path id="DejaVuSans-42" d="M 1259 2228 
L 1259 519 
L 2272 519 
Q 2781 519 3026 730 
Q 3272 941 3272 1375 
Q 3272 1813 3026 2020 
Q 2781 2228 2272 2228 
L 1259 2228 
z
M 1259 4147 
L 1259 2741 
L 2194 2741 
Q 2656 2741 2882 2914 
Q 3109 3088 3109 3444 
Q 3109 3797 2882 3972 
Q 2656 4147 2194 4147 
L 1259 4147 
z
M 628 4666 
L 2241 4666 
Q 2963 4666 3353 4366 
Q 3744 4066 3744 3513 
Q 3744 3084 3544 2831 
Q 3344 2578 2956 2516 
Q 3422 2416 3680 2098 
Q 3938 1781 3938 1306 
Q 3938 681 3513 340 
Q 3088 0 2303 0 
L 628 0 
L 628 4666 
z
" transform="scale(0.015625)"/>
      <path id="DejaVuSans-6e" d="M 3513 2113 
L 3513 0 
L 2938 0 
L 2938 2094 
Q 2938 2591 2744 2837 
Q 2550 3084 2163 3084 
Q 1697 3084 1428 2787 
Q 1159 2491 1159 1978 
L 1159 0 
L 581 0 
L 581 3500 
L 1159 3500 
L 1159 2956 
Q 1366 3272 1645 3428 
Q 1925 3584 2291 3584 
Q 2894 3584 3203 3211 
Q 3513 2838 3513 2113 
z
" transform="scale(0.015625)"/>
      <path id="DejaVuSans-67" d="M 2906 1791 
Q 2906 2416 2648 2759 
Q 2391 3103 1925 3103 
Q 1463 3103 1205 2759 
Q 947 2416 947 1791 
Q 947 1169 1205 825 
Q 1463 481 1925 481 
Q 2391 481 2648 825 
Q 2906 1169 2906 1791 
z
M 3481 434 
Q 3481 -459 3084 -895 
Q 2688 -1331 1869 -1331 
Q 1566 -1331 1297 -1286 
Q 1028 -1241 775 -1147 
L 775 -588 
Q 1028 -725 1275 -790 
Q 1522 -856 1778 -856 
Q 2344 -856 2625 -561 
Q 2906 -266 2906 331 
L 2906 616 
Q 2728 306 2450 153 
Q 2172 0 1784 0 
Q 1141 0 747 490 
Q 353 981 353 1791 
Q 353 2603 747 3093 
Q 1141 3584 1784 3584 
Q 2172 3584 2450 3431 
Q 2728 3278 2906 2969 
L 2906 3500 
L 3481 3500 
L 3481 434 
z
" transform="scale(0.015625)"/>
      <path id="DejaVuSans-6c" d="M 603 4863 
L 1178 4863 
L 1178 0 
L 603 0 
L 603 4863 
z
" transform="scale(0.015625)"/>
      <path id="DejaVuSans-64" d="M 2906 2969 
L 2906 4863 
L 3481 4863 
L 3481 0 
L 2906 0 
L 2906 525 
Q 2725 213 2448 61 
Q 2172 -91 1784 -91 
Q 1150 -91 751 415 
Q 353 922 353 1747 
Q 353 2572 751 3078 
Q 1150 3584 1784 3584 
Q 2172 3584 2448 3432 
Q 2725 3281 2906 2969 
z
M 947 1747 
Q 947 1113 1208 752 
Q 1469 391 1925 391 
Q 2381 391 2643 752 
Q 2906 1113 2906 1747 
Q 2906 2381 2643 2742 
Q 2381 3103 1925 3103 
Q 1469 3103 1208 2742 
Q 947 2381 947 1747 
z
" transform="scale(0.015625)"/>
      <path id="DejaVuSans-65" d="M 3597 1894 
L 3597 1613 
L 953 1613 
Q 991 1019 1311 708 
Q 1631 397 2203 397 
Q 2534 397 2845 478 
Q 3156 559 3463 722 
L 3463 178 
Q 3153 47 2828 -22 
Q 2503 -91 2169 -91 
Q 1331 -91 842 396 
Q 353 884 353 1716 
Q 353 2575 817 3079 
Q 1281 3584 2069 3584 
Q 2775 3584 3186 3129 
Q 3597 2675 3597 1894 
z
M 3022 2063 
Q 3016 2534 2758 2815 
Q 2500 3097 2075 3097 
Q 1594 3097 1305 2825 
Q 1016 2553 972 2059 
L 3022 2063 
z
" transform="scale(0.015625)"/>
      <path id="DejaVuSans-73" d="M 2834 3397 
L 2834 2853 
Q 2591 2978 2328 3040 
Q 2066 3103 1784 3103 
Q 1356 3103 1142 2972 
Q 928 2841 928 2578 
Q 928 2378 1081 2264 
Q 1234 2150 1697 2047 
L 1894 2003 
Q 2506 1872 2764 1633 
Q 3022 1394 3022 966 
Q 3022 478 2636 193 
Q 2250 -91 1575 -91 
Q 1294 -91 989 -36 
Q 684 19 347 128 
L 347 722 
Q 666 556 975 473 
Q 1284 391 1588 391 
Q 1994 391 2212 530 
Q 2431 669 2431 922 
Q 2431 1156 2273 1281 
Q 2116 1406 1581 1522 
L 1381 1569 
Q 847 1681 609 1914 
Q 372 2147 372 2553 
Q 372 3047 722 3315 
Q 1072 3584 1716 3584 
Q 2034 3584 2315 3537 
Q 2597 3491 2834 3397 
z
" transform="scale(0.015625)"/>
     </defs>
     <use xlink:href="#DejaVuSans-42"/>
     <use xlink:href="#DejaVuSans-61" transform="translate(68.603516 0)"/>
     <use xlink:href="#DejaVuSans-6e" transform="translate(129.882812 0)"/>
     <use xlink:href="#DejaVuSans-67" transform="translate(193.261719 0)"/>
     <use xlink:href="#DejaVuSans-6c" transform="translate(256.738281 0)"/>
     <use xlink:href="#DejaVuSans-61" transform="translate(284.521484 0)"/>
     <use xlink:href="#DejaVuSans-64" transform="translate(345.800781 0)"/>
     <use xlink:href="#DejaVuSans-65" transform="translate(409.277344 0)"/>
     <use xlink:href="#DejaVuSans-73" transform="translate(470.800781 0)"/>
     <use xlink:href="#DejaVuSans-68" transform="translate(522.900391 0)"/>
    </g>
   </g>
  </g>
  <g id="axes_3">
   <g id="patch_4">
    <path d="M 10.8 294.527756 
L 1069.2 294.527756 
L 1069.2 207.151837 
L 10.8 207.151837 
z
" style="fill: #ffffff"/>
   </g>
   <g id="FillBetweenPolyCollection_3">
    <defs>
     <path id="m002afc9081" d="M 238.568162 -245.475872 
L 238.568162 -245.472244 
L 242.447943 -245.472244 
L 246.327723 -245.472244 
L 250.207503 -245.472244 
L 254.087284 -245.472244 
L 257.967064 -245.472244 
L 261.846845 -245.472244 
L 265.726625 -245.472244 
L 269.606405 -245.472244 
L 273.486186 -245.472244 
L 277.365966 -245.472244 
L 281.245747 -245.472244 
L 285.125527 -245.472244 
L 289.005307 -245.472244 
L 292.885088 -245.472244 
L 296.764868 -245.472244 
L 300.644649 -245.472244 
L 304.524429 -245.472244 
L 308.404209 -245.472244 
L 312.28399 -245.472244 
L 316.16377 -245.472244 
L 320.043551 -245.472244 
L 323.923331 -245.472244 
L 327.803111 -245.472244 
L 331.682892 -245.472244 
L 335.562672 -245.472244 
L 339.442453 -245.472244 
L 343.322233 -245.472244 
L 347.202013 -245.472244 
L 351.081794 -245.472244 
L 354.961574 -245.472244 
L 358.841355 -245.472244 
L 362.721135 -245.472244 
L 366.600915 -245.472244 
L 370.480696 -245.472244 
L 374.360476 -245.472244 
L 378.240257 -245.472244 
L 382.120037 -245.472244 
L 385.999817 -245.472244 
L 389.879598 -245.472244 
L 393.759378 -245.472244 
L 397.639159 -245.472244 
L 401.518939 -245.472244 
L 405.398719 -245.472244 
L 409.2785 -245.472244 
L 413.15828 -245.472244 
L 417.038061 -245.472244 
L 420.917841 -245.472244 
L 424.797621 -245.472244 
L 428.677402 -245.472244 
L 432.557182 -245.472244 
L 436.436963 -245.472244 
L 440.316743 -245.472244 
L 444.196523 -245.472244 
L 448.076304 -245.472244 
L 451.956084 -245.472244 
L 455.835865 -245.472244 
L 459.715645 -245.472244 
L 463.595425 -245.472244 
L 467.475206 -245.472244 
L 471.354986 -245.472244 
L 475.234767 -245.472244 
L 479.114547 -245.472244 
L 482.994327 -245.472244 
L 486.874108 -245.472244 
L 490.753888 -245.472244 
L 494.633669 -245.472244 
L 498.513449 -245.472244 
L 502.393229 -245.472244 
L 506.27301 -245.472244 
L 510.15279 -245.472244 
L 514.032571 -245.472244 
L 517.912351 -245.472244 
L 521.792131 -245.472244 
L 525.671912 -245.472244 
L 529.551692 -245.472244 
L 533.431473 -245.472244 
L 537.311253 -245.472244 
L 541.191033 -245.472244 
L 545.070814 -245.472244 
L 548.950594 -245.472244 
L 552.830375 -245.472244 
L 556.710155 -245.472244 
L 560.589935 -245.472244 
L 564.469716 -245.472244 
L 568.349496 -245.472244 
L 572.229277 -245.472244 
L 576.109057 -245.472244 
L 579.988837 -245.472244 
L 583.868618 -245.472244 
L 587.748398 -245.472244 
L 591.628179 -245.472244 
L 595.507959 -245.472244 
L 599.387739 -245.472244 
L 603.26752 -245.472244 
L 607.1473 -245.472244 
L 611.027081 -245.472244 
L 614.906861 -245.472244 
L 618.786641 -245.472244 
L 622.666422 -245.472244 
L 626.546202 -245.472244 
L 630.425983 -245.472244 
L 634.305763 -245.472244 
L 638.185543 -245.472244 
L 642.065324 -245.472244 
L 645.945104 -245.472244 
L 649.824885 -245.472244 
L 653.704665 -245.472244 
L 657.584445 -245.472244 
L 661.464226 -245.472244 
L 665.344006 -245.472244 
L 669.223787 -245.472244 
L 673.103567 -245.472244 
L 676.983347 -245.472244 
L 680.863128 -245.472244 
L 684.742908 -245.472244 
L 688.622689 -245.472244 
L 692.502469 -245.472244 
L 696.382249 -245.472244 
L 700.26203 -245.472244 
L 704.14181 -245.472244 
L 708.021591 -245.472244 
L 711.901371 -245.472244 
L 715.781151 -245.472244 
L 719.660932 -245.472244 
L 723.540712 -245.472244 
L 727.420493 -245.472244 
L 731.300273 -245.472244 
L 735.180053 -245.472244 
L 739.059834 -245.472244 
L 742.939614 -245.472244 
L 746.819395 -245.472244 
L 750.699175 -245.472244 
L 754.578955 -245.472244 
L 758.458736 -245.472244 
L 762.338516 -245.472244 
L 766.218297 -245.472244 
L 770.098077 -245.472244 
L 773.977857 -245.472244 
L 777.857638 -245.472244 
L 781.737418 -245.472244 
L 785.617199 -245.472244 
L 789.496979 -245.472244 
L 793.376759 -245.472244 
L 797.25654 -245.472244 
L 801.13632 -245.472244 
L 805.016101 -245.472244 
L 808.895881 -245.472244 
L 812.775661 -245.472244 
L 816.655442 -245.472244 
L 820.535222 -245.472244 
L 824.415003 -245.472244 
L 828.294783 -245.472244 
L 832.174563 -245.472244 
L 836.054344 -245.472244 
L 839.934124 -245.472244 
L 843.813905 -245.472244 
L 847.693685 -245.472244 
L 851.573465 -245.472244 
L 855.453246 -245.472244 
L 859.333026 -245.472244 
L 863.212807 -245.472244 
L 867.092587 -245.472244 
L 870.972367 -245.472244 
L 874.852148 -245.472244 
L 878.731928 -245.472244 
L 882.611709 -245.472244 
L 886.491489 -245.472244 
L 890.371269 -245.472244 
L 894.25105 -245.472244 
L 898.13083 -245.472244 
L 902.010611 -245.472244 
L 905.890391 -245.472244 
L 909.770171 -245.472244 
L 913.649952 -245.472244 
L 917.529732 -245.472244 
L 921.409513 -245.472244 
L 925.289293 -245.472244 
L 929.169073 -245.472244 
L 933.048854 -245.472244 
L 936.928634 -245.472244 
L 940.808415 -245.472244 
L 944.688195 -245.472244 
L 948.567975 -245.472244 
L 952.447756 -245.472244 
L 956.327536 -245.472244 
L 960.207317 -245.472244 
L 964.087097 -245.472244 
L 967.966877 -245.472244 
L 971.846658 -245.472244 
L 975.726438 -245.472244 
L 979.606219 -245.472244 
L 983.485999 -245.472244 
L 987.365779 -245.472244 
L 991.24556 -245.472244 
L 995.12534 -245.472244 
L 999.005121 -245.472244 
L 1002.884901 -245.472244 
L 1006.764681 -245.472244 
L 1010.644462 -245.472244 
L 1010.644462 -245.475672 
L 1010.644462 -245.475672 
L 1006.764681 -245.478908 
L 1002.884901 -245.48453 
L 999.005121 -245.493722 
L 995.12534 -245.507849 
L 991.24556 -245.528215 
L 987.365779 -245.555681 
L 983.485999 -245.590192 
L 979.606219 -245.630355 
L 975.726438 -245.673233 
L 971.846658 -245.714525 
L 967.966877 -245.749197 
L 964.087097 -245.772457 
L 960.207317 -245.780842 
L 956.327536 -245.773055 
L 952.447756 -245.750301 
L 948.567975 -245.715975 
L 944.688195 -245.674839 
L 940.808415 -245.631936 
L 936.928634 -245.591609 
L 933.048854 -245.556851 
L 929.169073 -245.529113 
L 925.289293 -245.508492 
L 921.409513 -245.494153 
L 917.529732 -245.484802 
L 913.649952 -245.479069 
L 909.770171 -245.475762 
L 905.890391 -245.473963 
L 902.010611 -245.473041 
L 898.13083 -245.472594 
L 894.25105 -245.47239 
L 890.371269 -245.472302 
L 886.491489 -245.472265 
L 882.611709 -245.472252 
L 878.731928 -245.472246 
L 874.852148 -245.472245 
L 870.972367 -245.472244 
L 867.092587 -245.472244 
L 863.212807 -245.472244 
L 859.333026 -245.472244 
L 855.453246 -245.472244 
L 851.573465 -245.472244 
L 847.693685 -245.472244 
L 843.813905 -245.472244 
L 839.934124 -245.472244 
L 836.054344 -245.472244 
L 832.174563 -245.472244 
L 828.294783 -245.472245 
L 824.415003 -245.472246 
L 820.535222 -245.472251 
L 816.655442 -245.472263 
L 812.775661 -245.472297 
L 808.895881 -245.47238 
L 805.016101 -245.472574 
L 801.13632 -245.473007 
L 797.25654 -245.473918 
L 793.376759 -245.475733 
L 789.496979 -245.479157 
L 785.617199 -245.485268 
L 781.737418 -245.495593 
L 777.857638 -245.512099 
L 773.977857 -245.537078 
L 770.098077 -245.572871 
L 766.218297 -245.621477 
L 762.338516 -245.684113 
L 758.458736 -245.760903 
L 754.578955 -245.850837 
L 750.699175 -245.952131 
L 746.819395 -246.062931 
L 742.939614 -246.182197 
L 739.059834 -246.310403 
L 735.180053 -246.449762 
L 731.300273 -246.603778 
L 727.420493 -246.776244 
L 723.540712 -246.970077 
L 719.660932 -247.1865 
L 715.781151 -247.425036 
L 711.901371 -247.684407 
L 708.021591 -247.96407 
L 704.14181 -248.265756 
L 700.26203 -248.594382 
L 696.382249 -248.957931 
L 692.502469 -249.366366 
L 688.622689 -249.830063 
L 684.742908 -250.358397 
L 680.863128 -250.958997 
L 676.983347 -251.63777 
L 673.103567 -252.39939 
L 669.223787 -253.247758 
L 665.344006 -254.186053 
L 661.464226 -255.21636 
L 657.584445 -256.339288 
L 653.704665 -257.554104 
L 649.824885 -258.859725 
L 645.945104 -260.256377 
L 642.065324 -261.747224 
L 638.185543 -263.339094 
L 634.305763 -265.041684 
L 630.425983 -266.865358 
L 626.546202 -268.818335 
L 622.666422 -270.904484 
L 618.786641 -273.122746 
L 614.906861 -275.468515 
L 611.027081 -277.936337 
L 607.1473 -280.522589 
L 603.26752 -283.226611 
L 599.387739 -286.049338 
L 595.507959 -288.989594 
L 591.628179 -292.039352 
L 587.748398 -295.179942 
L 583.868618 -298.380974 
L 579.988837 -301.602628 
L 576.109057 -304.800568 
L 572.229277 -307.931483 
L 568.349496 -310.957058 
L 564.469716 -313.844895 
L 560.589935 -316.566373 
L 556.710155 -319.092943 
L 552.830375 -321.393096 
L 548.950594 -323.43191 
L 545.070814 -325.173781 
L 541.191033 -326.587285 
L 537.311253 -327.649931 
L 533.431473 -328.350454 
L 529.551692 -328.687405 
L 525.671912 -328.664537 
L 521.792131 -328.285111 
L 517.912351 -327.547862 
L 514.032571 -326.446745 
L 510.15279 -324.974977 
L 506.27301 -323.131959 
L 502.393229 -320.930414 
L 498.513449 -318.400902 
L 494.633669 -315.591901 
L 490.753888 -312.565378 
L 486.874108 -309.389396 
L 482.994327 -306.130222 
L 479.114547 -302.846172 
L 475.234767 -299.584443 
L 471.354986 -296.380887 
L 467.475206 -293.261721 
L 463.595425 -290.24591 
L 459.715645 -287.347254 
L 455.835865 -284.575772 
L 451.956084 -281.938416 
L 448.076304 -279.439296 
L 444.196523 -277.079566 
L 440.316743 -274.857104 
L 436.436963 -272.766175 
L 432.557182 -270.797443 
L 428.677402 -268.938726 
L 424.797621 -267.176695 
L 420.917841 -265.499318 
L 417.038061 -263.898428 
L 413.15828 -262.371517 
L 409.2785 -260.922055 
L 405.398719 -259.558034 
L 401.518939 -258.289105 
L 397.639159 -257.123143 
L 393.759378 -256.063326 
L 389.879598 -255.106586 
L 385.999817 -254.243862 
L 382.120037 -253.46197 
L 378.240257 -252.746415 
L 374.360476 -252.08425 
L 370.480696 -251.466143 
L 366.600915 -250.88717 
L 362.721135 -250.346299 
L 358.841355 -249.844982 
L 354.961574 -249.385443 
L 351.081794 -248.96925 
L 347.202013 -248.596529 
L 343.322233 -248.265859 
L 339.442453 -247.974673 
L 335.562672 -247.719829 
L 331.682892 -247.498082 
L 327.803111 -247.306258 
L 323.923331 -247.141147 
L 320.043551 -246.999209 
L 316.16377 -246.876311 
L 312.28399 -246.767666 
L 308.404209 -246.668075 
L 304.524429 -246.572447 
L 300.644649 -246.476462 
L 296.764868 -246.377195 
L 292.885088 -246.273528 
L 289.005307 -246.166248 
L 285.125527 -246.057805 
L 281.245747 -245.95177 
L 277.365966 -245.852124 
L 273.486186 -245.762512 
L 269.606405 -245.685615 
L 265.726625 -245.622787 
L 261.846845 -245.573988 
L 257.967064 -245.538 
L 254.087284 -245.512823 
L 250.207503 -245.496126 
L 246.327723 -245.485634 
L 242.447943 -245.47939 
L 238.568162 -245.475872 
z
" style="stroke: #1f77b4"/>
    </defs>
    <g clip-path="url(#p2f32d1a0e6)">
     <use xlink:href="#m002afc9081" x="0" y="540" style="fill: #1f77b4; fill-opacity: 0.25; stroke: #1f77b4"/>
    </g>
   </g>
   <g id="matplotlib.axis_5">
    <g id="xtick_79"/>
    <g id="xtick_80"/>
    <g id="xtick_81"/>
    <g id="xtick_82"/>
    <g id="xtick_83"/>
    <g id="xtick_84"/>
    <g id="xtick_85"/>
    <g id="xtick_86"/>
    <g id="xtick_87"/>
    <g id="xtick_88"/>
    <g id="xtick_89"/>
    <g id="xtick_90"/>
    <g id="xtick_91"/>
    <g id="xtick_92"/>
    <g id="xtick_93"/>
    <g id="xtick_94"/>
    <g id="xtick_95"/>
    <g id="xtick_96"/>
    <g id="xtick_97"/>
    <g id="xtick_98"/>
    <g id="xtick_99"/>
    <g id="xtick_100"/>
    <g id="xtick_101"/>
    <g id="xtick_102"/>
    <g id="xtick_103"/>
    <g id="xtick_104"/>
    <g id="xtick_105"/>
    <g id="xtick_106"/>
    <g id="xtick_107"/>
    <g id="xtick_108"/>
    <g id="xtick_109"/>
    <g id="xtick_110"/>
    <g id="xtick_111"/>
    <g id="xtick_112"/>
    <g id="xtick_113"/>
    <g id="xtick_114"/>
    <g id="xtick_115"/>
    <g id="xtick_116"/>
    <g id="xtick_117"/>
   </g>
   <g id="matplotlib.axis_6"/>
   <g id="line2d_7">
    <path d="M 349.624992 294.527756 
L 349.624992 207.151837 
" clip-path="url(#p2f32d1a0e6)" style="fill: none; stroke-dasharray: 2.96,1.28; stroke-dashoffset: 0; stroke: #d3d3d3; stroke-width: 0.8"/>
   </g>
   <g id="line2d_8">
    <path d="M 574.652377 294.527756 
L 574.652377 207.151837 
" clip-path="url(#p2f32d1a0e6)" style="fill: none; stroke-dasharray: 2.96,1.28; stroke-dashoffset: 0; stroke: #d3d3d3; stroke-width: 0.8"/>
   </g>
   <g id="line2d_9">
    <path d="M 487.886534 294.527756 
L 487.886534 207.151837 
" clip-path="url(#p2f32d1a0e6)" style="fill: none; stroke-dasharray: 2.96,1.28; stroke-dashoffset: 0; stroke: #d3d3d3; stroke-width: 0.8"/>
   </g>
   <g id="text_3">
    <!-- Vietnam -->
    <g transform="translate(527.737054 292.448069) scale(0.1 -0.1)">
     <defs>
      <path id="DejaVuSans-56" d="M 1831 0 
L 50 4666 
L 709 4666 
L 2188 738 
L 3669 4666 
L 4325 4666 
L 2547 0 
L 1831 0 
z
" transform="scale(0.015625)"/>
      <path id="DejaVuSans-6d" d="M 3328 2828 
Q 3544 3216 3844 3400 
Q 4144 3584 4550 3584 
Q 5097 3584 5394 3201 
Q 5691 2819 5691 2113 
L 5691 0 
L 5113 0 
L 5113 2094 
Q 5113 2597 4934 2840 
Q 4756 3084 4391 3084 
Q 3944 3084 3684 2787 
Q 3425 2491 3425 1978 
L 3425 0 
L 2847 0 
L 2847 2094 
Q 2847 2600 2669 2842 
Q 2491 3084 2119 3084 
Q 1678 3084 1418 2786 
Q 1159 2488 1159 1978 
L 1159 0 
L 581 0 
L 581 3500 
L 1159 3500 
L 1159 2956 
Q 1356 3278 1631 3431 
Q 1906 3584 2284 3584 
Q 2666 3584 2933 3390 
Q 3200 3197 3328 2828 
z
" transform="scale(0.015625)"/>
     </defs>
     <use xlink:href="#DejaVuSans-56"/>
     <use xlink:href="#DejaVuSans-69" transform="translate(66.158203 0)"/>
     <use xlink:href="#DejaVuSans-65" transform="translate(93.941406 0)"/>
     <use xlink:href="#DejaVuSans-74" transform="translate(155.464844 0)"/>
     <use xlink:href="#DejaVuSans-6e" transform="translate(194.673828 0)"/>
     <use xlink:href="#DejaVuSans-61" transform="translate(258.052734 0)"/>
     <use xlink:href="#DejaVuSans-6d" transform="translate(319.332031 0)"/>
    </g>
   </g>
  </g>
  <g id="axes_4">
   <g id="patch_5">
    <path d="M 10.8 392.703675 
L 1069.2 392.703675 
L 1069.2 305.327756 
L 10.8 305.327756 
z
" style="fill: #ffffff"/>
   </g>
   <g id="FillBetweenPolyCollection_4">
    <defs>
     <path id="m1871e5be6e" d="M 246.205745 -147.300056 
L 246.205745 -147.296325 
L 250.09964 -147.296325 
L 253.993535 -147.296325 
L 257.887431 -147.296325 
L 261.781326 -147.296325 
L 265.675221 -147.296325 
L 269.569117 -147.296325 
L 273.463012 -147.296325 
L 277.356907 -147.296325 
L 281.250803 -147.296325 
L 285.144698 -147.296325 
L 289.038593 -147.296325 
L 292.932488 -147.296325 
L 296.826384 -147.296325 
L 300.720279 -147.296325 
L 304.614174 -147.296325 
L 308.50807 -147.296325 
L 312.401965 -147.296325 
L 316.29586 -147.296325 
L 320.189756 -147.296325 
L 324.083651 -147.296325 
L 327.977546 -147.296325 
L 331.871441 -147.296325 
L 335.765337 -147.296325 
L 339.659232 -147.296325 
L 343.553127 -147.296325 
L 347.447023 -147.296325 
L 351.340918 -147.296325 
L 355.234813 -147.296325 
L 359.128709 -147.296325 
L 363.022604 -147.296325 
L 366.916499 -147.296325 
L 370.810394 -147.296325 
L 374.70429 -147.296325 
L 378.598185 -147.296325 
L 382.49208 -147.296325 
L 386.385976 -147.296325 
L 390.279871 -147.296325 
L 394.173766 -147.296325 
L 398.067661 -147.296325 
L 401.961557 -147.296325 
L 405.855452 -147.296325 
L 409.749347 -147.296325 
L 413.643243 -147.296325 
L 417.537138 -147.296325 
L 421.431033 -147.296325 
L 425.324929 -147.296325 
L 429.218824 -147.296325 
L 433.112719 -147.296325 
L 437.006614 -147.296325 
L 440.90051 -147.296325 
L 444.794405 -147.296325 
L 448.6883 -147.296325 
L 452.582196 -147.296325 
L 456.476091 -147.296325 
L 460.369986 -147.296325 
L 464.263882 -147.296325 
L 468.157777 -147.296325 
L 472.051672 -147.296325 
L 475.945567 -147.296325 
L 479.839463 -147.296325 
L 483.733358 -147.296325 
L 487.627253 -147.296325 
L 491.521149 -147.296325 
L 495.415044 -147.296325 
L 499.308939 -147.296325 
L 503.202835 -147.296325 
L 507.09673 -147.296325 
L 510.990625 -147.296325 
L 514.88452 -147.296325 
L 518.778416 -147.296325 
L 522.672311 -147.296325 
L 526.566206 -147.296325 
L 530.460102 -147.296325 
L 534.353997 -147.296325 
L 538.247892 -147.296325 
L 542.141787 -147.296325 
L 546.035683 -147.296325 
L 549.929578 -147.296325 
L 553.823473 -147.296325 
L 557.717369 -147.296325 
L 561.611264 -147.296325 
L 565.505159 -147.296325 
L 569.399055 -147.296325 
L 573.29295 -147.296325 
L 577.186845 -147.296325 
L 581.08074 -147.296325 
L 584.974636 -147.296325 
L 588.868531 -147.296325 
L 592.762426 -147.296325 
L 596.656322 -147.296325 
L 600.550217 -147.296325 
L 604.444112 -147.296325 
L 608.338008 -147.296325 
L 612.231903 -147.296325 
L 616.125798 -147.296325 
L 620.019693 -147.296325 
L 623.913589 -147.296325 
L 627.807484 -147.296325 
L 631.701379 -147.296325 
L 635.595275 -147.296325 
L 639.48917 -147.296325 
L 643.383065 -147.296325 
L 647.276961 -147.296325 
L 651.170856 -147.296325 
L 655.064751 -147.296325 
L 658.958646 -147.296325 
L 662.852542 -147.296325 
L 666.746437 -147.296325 
L 670.640332 -147.296325 
L 674.534228 -147.296325 
L 678.428123 -147.296325 
L 682.322018 -147.296325 
L 686.215914 -147.296325 
L 690.109809 -147.296325 
L 694.003704 -147.296325 
L 697.897599 -147.296325 
L 701.791495 -147.296325 
L 705.68539 -147.296325 
L 709.579285 -147.296325 
L 713.473181 -147.296325 
L 717.367076 -147.296325 
L 721.260971 -147.296325 
L 725.154866 -147.296325 
L 729.048762 -147.296325 
L 732.942657 -147.296325 
L 736.836552 -147.296325 
L 740.730448 -147.296325 
L 744.624343 -147.296325 
L 748.518238 -147.296325 
L 752.412134 -147.296325 
L 756.306029 -147.296325 
L 760.199924 -147.296325 
L 764.093819 -147.296325 
L 767.987715 -147.296325 
L 771.88161 -147.296325 
L 775.775505 -147.296325 
L 779.669401 -147.296325 
L 783.563296 -147.296325 
L 787.457191 -147.296325 
L 791.351087 -147.296325 
L 795.244982 -147.296325 
L 799.138877 -147.296325 
L 803.032772 -147.296325 
L 806.926668 -147.296325 
L 810.820563 -147.296325 
L 814.714458 -147.296325 
L 818.608354 -147.296325 
L 822.502249 -147.296325 
L 826.396144 -147.296325 
L 830.29004 -147.296325 
L 834.183935 -147.296325 
L 838.07783 -147.296325 
L 841.971725 -147.296325 
L 845.865621 -147.296325 
L 849.759516 -147.296325 
L 853.653411 -147.296325 
L 857.547307 -147.296325 
L 861.441202 -147.296325 
L 865.335097 -147.296325 
L 869.228992 -147.296325 
L 873.122888 -147.296325 
L 877.016783 -147.296325 
L 880.910678 -147.296325 
L 884.804574 -147.296325 
L 888.698469 -147.296325 
L 892.592364 -147.296325 
L 896.48626 -147.296325 
L 900.380155 -147.296325 
L 904.27405 -147.296325 
L 908.167945 -147.296325 
L 912.061841 -147.296325 
L 915.955736 -147.296325 
L 919.849631 -147.296325 
L 923.743527 -147.296325 
L 927.637422 -147.296325 
L 931.531317 -147.296325 
L 935.425213 -147.296325 
L 939.319108 -147.296325 
L 943.213003 -147.296325 
L 947.106898 -147.296325 
L 951.000794 -147.296325 
L 954.894689 -147.296325 
L 958.788584 -147.296325 
L 962.68248 -147.296325 
L 966.576375 -147.296325 
L 970.47027 -147.296325 
L 974.364166 -147.296325 
L 978.258061 -147.296325 
L 982.151956 -147.296325 
L 986.045851 -147.296325 
L 989.939747 -147.296325 
L 993.833642 -147.296325 
L 997.727537 -147.296325 
L 1001.621433 -147.296325 
L 1005.515328 -147.296325 
L 1009.409223 -147.296325 
L 1013.303118 -147.296325 
L 1017.197014 -147.296325 
L 1021.090909 -147.296325 
L 1021.090909 -147.300002 
L 1021.090909 -147.300002 
L 1017.197014 -147.302808 
L 1013.303118 -147.307327 
L 1009.409223 -147.314297 
L 1005.515328 -147.324583 
L 1001.621433 -147.339092 
L 997.727537 -147.358624 
L 993.833642 -147.383679 
L 989.939747 -147.414223 
L 986.045851 -147.449487 
L 982.151956 -147.487848 
L 978.258061 -147.526851 
L 974.364166 -147.563417 
L 970.47027 -147.59422 
L 966.576375 -147.616193 
L 962.68248 -147.627048 
L 958.788584 -147.625715 
L 954.894689 -147.612582 
L 951.000794 -147.589488 
L 947.106898 -147.559477 
L 943.213003 -147.526373 
L 939.319108 -147.494278 
L 935.425213 -147.467092 
L 931.531317 -147.448131 
L 927.637422 -147.439871 
L 923.743527 -147.443819 
L 919.849631 -147.460489 
L 915.955736 -147.489448 
L 912.061841 -147.529433 
L 908.167945 -147.578524 
L 904.27405 -147.6344 
L 900.380155 -147.694645 
L 896.48626 -147.757085 
L 892.592364 -147.820098 
L 888.698469 -147.882846 
L 884.804574 -147.945362 
L 880.910678 -148.00851 
L 877.016783 -148.073816 
L 873.122888 -148.143235 
L 869.228992 -148.218897 
L 865.335097 -148.302895 
L 861.441202 -148.397099 
L 857.547307 -148.503039 
L 853.653411 -148.621812 
L 849.759516 -148.754025 
L 845.865621 -148.899791 
L 841.971725 -149.058774 
L 838.07783 -149.23031 
L 834.183935 -149.41358 
L 830.29004 -149.607814 
L 826.396144 -149.81248 
L 822.502249 -150.027411 
L 818.608354 -150.252847 
L 814.714458 -150.489402 
L 810.820563 -150.737995 
L 806.926668 -150.9998 
L 803.032772 -151.276273 
L 799.138877 -151.569302 
L 795.244982 -151.881466 
L 791.351087 -152.216361 
L 787.457191 -152.578901 
L 783.563296 -152.97551 
L 779.669401 -153.414096 
L 775.775505 -153.903786 
L 771.88161 -154.454426 
L 767.987715 -155.075937 
L 764.093819 -155.777638 
L 760.199924 -156.567674 
L 756.306029 -157.452635 
L 752.412134 -158.437425 
L 748.518238 -159.525359 
L 744.624343 -160.718455 
L 740.730448 -162.01783 
L 736.836552 -163.424149 
L 732.942657 -164.938028 
L 729.048762 -166.560346 
L 725.154866 -168.292346 
L 721.260971 -170.135466 
L 717.367076 -172.090858 
L 713.473181 -174.158608 
L 709.579285 -176.336799 
L 705.68539 -178.620627 
L 701.791495 -181.001822 
L 697.897599 -183.468584 
L 694.003704 -186.006127 
L 690.109809 -188.597772 
L 686.215914 -191.226341 
L 682.322018 -193.875542 
L 678.428123 -196.530995 
L 674.534228 -199.180655 
L 670.640332 -201.814546 
L 666.746437 -204.42386 
L 662.852542 -206.999677 
L 658.958646 -209.531586 
L 655.064751 -212.006554 
L 651.170856 -214.408289 
L 647.276961 -216.717245 
L 643.383065 -218.911291 
L 639.48917 -220.966917 
L 635.595275 -222.860765 
L 631.701379 -224.571253 
L 627.807484 -226.080064 
L 623.913589 -227.373343 
L 620.019693 -228.442512 
L 616.125798 -229.284687 
L 612.231903 -229.902664 
L 608.338008 -230.304458 
L 604.444112 -230.502359 
L 600.550217 -230.511486 
L 596.656322 -230.347914 
L 592.762426 -230.026585 
L 588.868531 -229.559323 
L 584.974636 -228.953379 
L 581.08074 -228.210883 
L 577.186845 -227.329423 
L 573.29295 -226.303696 
L 569.399055 -225.127916 
L 565.505159 -223.798379 
L 561.611264 -222.315575 
L 557.717369 -220.685282 
L 553.823473 -218.918391 
L 549.929578 -217.029523 
L 546.035683 -215.034871 
L 542.141787 -212.949853 
L 538.247892 -210.787221 
L 534.353997 -208.556087 
L 530.460102 -206.262058 
L 526.566206 -203.908313 
L 522.672311 -201.497272 
L 518.778416 -199.032327 
L 514.88452 -196.519192 
L 510.990625 -193.966582 
L 507.09673 -191.386167 
L 503.202835 -188.791969 
L 499.308939 -186.199468 
L 495.415044 -183.624746 
L 491.521149 -181.083868 
L 487.627253 -178.592587 
L 483.733358 -176.166305 
L 479.839463 -173.820117 
L 475.945567 -171.568753 
L 472.051672 -169.426261 
L 468.157777 -167.405399 
L 464.263882 -165.51678 
L 460.369986 -163.767962 
L 456.476091 -162.162687 
L 452.582196 -160.700478 
L 448.6883 -159.376741 
L 444.794405 -158.183377 
L 440.90051 -157.109806 
L 437.006614 -156.144203 
L 433.112719 -155.274691 
L 429.218824 -154.490302 
L 425.324929 -153.781569 
L 421.431033 -153.140723 
L 417.537138 -152.561581 
L 413.643243 -152.039223 
L 409.749347 -151.569595 
L 405.855452 -151.149116 
L 401.961557 -150.774356 
L 398.067661 -150.441799 
L 394.173766 -150.147703 
L 390.279871 -149.888068 
L 386.385976 -149.658711 
L 382.49208 -149.455423 
L 378.598185 -149.274207 
L 374.70429 -149.111511 
L 370.810394 -148.964435 
L 366.916499 -148.830833 
L 363.022604 -148.709303 
L 359.128709 -148.599062 
L 355.234813 -148.499734 
L 351.340918 -148.41111 
L 347.447023 -148.332918 
L 343.553127 -148.264644 
L 339.659232 -148.205424 
L 335.765337 -148.154011 
L 331.871441 -148.108798 
L 327.977546 -148.067894 
L 324.083651 -148.029234 
L 320.189756 -147.990729 
L 316.29586 -147.950452 
L 312.401965 -147.906839 
L 308.50807 -147.858904 
L 304.614174 -147.806394 
L 300.720279 -147.749874 
L 296.826384 -147.690673 
L 292.932488 -147.630714 
L 289.038593 -147.572218 
L 285.144698 -147.517377 
L 281.250803 -147.468034 
L 277.356907 -147.42546 
L 273.463012 -147.390243 
L 269.569117 -147.36232 
L 265.675221 -147.341096 
L 261.781326 -147.325631 
L 257.887431 -147.314825 
L 253.993535 -147.307583 
L 250.09964 -147.302928 
L 246.205745 -147.300056 
z
" style="stroke: #1f77b4"/>
    </defs>
    <g clip-path="url(#p3a2844c11c)">
     <use xlink:href="#m1871e5be6e" x="0" y="540" style="fill: #1f77b4; fill-opacity: 0.25; stroke: #1f77b4"/>
    </g>
   </g>
   <g id="matplotlib.axis_7">
    <g id="xtick_118"/>
    <g id="xtick_119"/>
    <g id="xtick_120"/>
    <g id="xtick_121"/>
    <g id="xtick_122"/>
    <g id="xtick_123"/>
    <g id="xtick_124"/>
    <g id="xtick_125"/>
    <g id="xtick_126"/>
    <g id="xtick_127"/>
    <g id="xtick_128"/>
    <g id="xtick_129"/>
    <g id="xtick_130"/>
    <g id="xtick_131"/>
    <g id="xtick_132"/>
    <g id="xtick_133"/>
    <g id="xtick_134"/>
    <g id="xtick_135"/>
    <g id="xtick_136"/>
    <g id="xtick_137"/>
    <g id="xtick_138"/>
    <g id="xtick_139"/>
    <g id="xtick_140"/>
    <g id="xtick_141"/>
    <g id="xtick_142"/>
    <g id="xtick_143"/>
    <g id="xtick_144"/>
    <g id="xtick_145"/>
    <g id="xtick_146"/>
    <g id="xtick_147"/>
    <g id="xtick_148"/>
    <g id="xtick_149"/>
    <g id="xtick_150"/>
    <g id="xtick_151"/>
    <g id="xtick_152"/>
    <g id="xtick_153"/>
    <g id="xtick_154"/>
    <g id="xtick_155"/>
    <g id="xtick_156"/>
   </g>
   <g id="matplotlib.axis_8"/>
   <g id="line2d_10">
    <path d="M 349.624992 392.703675 
L 349.624992 305.327756 
" clip-path="url(#p3a2844c11c)" style="fill: none; stroke-dasharray: 2.96,1.28; stroke-dashoffset: 0; stroke: #d3d3d3; stroke-width: 0.8"/>
   </g>
   <g id="line2d_11">
    <path d="M 574.652377 392.703675 
L 574.652377 305.327756 
" clip-path="url(#p3a2844c11c)" style="fill: none; stroke-dasharray: 2.96,1.28; stroke-dashoffset: 0; stroke: #d3d3d3; stroke-width: 0.8"/>
   </g>
   <g id="line2d_12">
    <path d="M 487.886534 392.703675 
L 487.886534 305.327756 
" clip-path="url(#p3a2844c11c)" style="fill: none; stroke-dasharray: 2.96,1.28; stroke-dashoffset: 0; stroke: #d3d3d3; stroke-width: 0.8"/>
   </g>
   <g id="text_4">
    <!-- Turkey -->
    <g transform="translate(598.794 390.623987) scale(0.1 -0.1)">
     <defs>
      <path id="DejaVuSans-54" d="M -19 4666 
L 3928 4666 
L 3928 4134 
L 2272 4134 
L 2272 0 
L 1638 0 
L 1638 4134 
L -19 4134 
L -19 4666 
z
" transform="scale(0.015625)"/>
      <path id="DejaVuSans-75" d="M 544 1381 
L 544 3500 
L 1119 3500 
L 1119 1403 
Q 1119 906 1312 657 
Q 1506 409 1894 409 
Q 2359 409 2629 706 
Q 2900 1003 2900 1516 
L 2900 3500 
L 3475 3500 
L 3475 0 
L 2900 0 
L 2900 538 
Q 2691 219 2414 64 
Q 2138 -91 1772 -91 
Q 1169 -91 856 284 
Q 544 659 544 1381 
z
M 1991 3584 
L 1991 3584 
z
" transform="scale(0.015625)"/>
      <path id="DejaVuSans-72" d="M 2631 2963 
Q 2534 3019 2420 3045 
Q 2306 3072 2169 3072 
Q 1681 3072 1420 2755 
Q 1159 2438 1159 1844 
L 1159 0 
L 581 0 
L 581 3500 
L 1159 3500 
L 1159 2956 
Q 1341 3275 1631 3429 
Q 1922 3584 2338 3584 
Q 2397 3584 2469 3576 
Q 2541 3569 2628 3553 
L 2631 2963 
z
" transform="scale(0.015625)"/>
      <path id="DejaVuSans-6b" d="M 581 4863 
L 1159 4863 
L 1159 1991 
L 2875 3500 
L 3609 3500 
L 1753 1863 
L 3688 0 
L 2938 0 
L 1159 1709 
L 1159 0 
L 581 0 
L 581 4863 
z
" transform="scale(0.015625)"/>
      <path id="DejaVuSans-79" d="M 2059 -325 
Q 1816 -950 1584 -1140 
Q 1353 -1331 966 -1331 
L 506 -1331 
L 506 -850 
L 844 -850 
Q 1081 -850 1212 -737 
Q 1344 -625 1503 -206 
L 1606 56 
L 191 3500 
L 800 3500 
L 1894 763 
L 2988 3500 
L 3597 3500 
L 2059 -325 
z
" transform="scale(0.015625)"/>
     </defs>
     <use xlink:href="#DejaVuSans-54"/>
     <use xlink:href="#DejaVuSans-75" transform="translate(45.958984 0)"/>
     <use xlink:href="#DejaVuSans-72" transform="translate(109.337891 0)"/>
     <use xlink:href="#DejaVuSans-6b" transform="translate(150.451172 0)"/>
     <use xlink:href="#DejaVuSans-65" transform="translate(204.736328 0)"/>
     <use xlink:href="#DejaVuSans-79" transform="translate(266.259766 0)"/>
    </g>
   </g>
  </g>
  <g id="axes_5">
   <g id="patch_6">
    <path d="M 10.8 490.879594 
L 1069.2 490.879594 
L 1069.2 403.503675 
L 10.8 403.503675 
z
" style="fill: #ffffff"/>
   </g>
   <g id="FillBetweenPolyCollection_5">
    <defs>
     <path id="m31ad4b1d5a" d="M 58.909091 -49.141422 
L 58.909091 -49.120406 
L 63.61634 -49.120406 
L 68.323588 -49.120406 
L 73.030837 -49.120406 
L 77.738086 -49.120406 
L 82.445335 -49.120406 
L 87.152583 -49.120406 
L 91.859832 -49.120406 
L 96.567081 -49.120406 
L 101.274329 -49.120406 
L 105.981578 -49.120406 
L 110.688827 -49.120406 
L 115.396076 -49.120406 
L 120.103324 -49.120406 
L 124.810573 -49.120406 
L 129.517822 -49.120406 
L 134.22507 -49.120406 
L 138.932319 -49.120406 
L 143.639568 -49.120406 
L 148.346817 -49.120406 
L 153.054065 -49.120406 
L 157.761314 -49.120406 
L 162.468563 -49.120406 
L 167.175811 -49.120406 
L 171.88306 -49.120406 
L 176.590309 -49.120406 
L 181.297558 -49.120406 
L 186.004806 -49.120406 
L 190.712055 -49.120406 
L 195.419304 -49.120406 
L 200.126552 -49.120406 
L 204.833801 -49.120406 
L 209.54105 -49.120406 
L 214.248299 -49.120406 
L 218.955547 -49.120406 
L 223.662796 -49.120406 
L 228.370045 -49.120406 
L 233.077294 -49.120406 
L 237.784542 -49.120406 
L 242.491791 -49.120406 
L 247.19904 -49.120406 
L 251.906288 -49.120406 
L 256.613537 -49.120406 
L 261.320786 -49.120406 
L 266.028035 -49.120406 
L 270.735283 -49.120406 
L 275.442532 -49.120406 
L 280.149781 -49.120406 
L 284.857029 -49.120406 
L 289.564278 -49.120406 
L 294.271527 -49.120406 
L 298.978776 -49.120406 
L 303.686024 -49.120406 
L 308.393273 -49.120406 
L 313.100522 -49.120406 
L 317.80777 -49.120406 
L 322.515019 -49.120406 
L 327.222268 -49.120406 
L 331.929517 -49.120406 
L 336.636765 -49.120406 
L 341.344014 -49.120406 
L 346.051263 -49.120406 
L 350.758512 -49.120406 
L 355.46576 -49.120406 
L 360.173009 -49.120406 
L 364.880258 -49.120406 
L 369.587506 -49.120406 
L 374.294755 -49.120406 
L 379.002004 -49.120406 
L 383.709253 -49.120406 
L 388.416501 -49.120406 
L 393.12375 -49.120406 
L 397.830999 -49.120406 
L 402.538247 -49.120406 
L 407.245496 -49.120406 
L 411.952745 -49.120406 
L 416.659994 -49.120406 
L 421.367242 -49.120406 
L 426.074491 -49.120406 
L 430.78174 -49.120406 
L 435.488988 -49.120406 
L 440.196237 -49.120406 
L 444.903486 -49.120406 
L 449.610735 -49.120406 
L 454.317983 -49.120406 
L 459.025232 -49.120406 
L 463.732481 -49.120406 
L 468.43973 -49.120406 
L 473.146978 -49.120406 
L 477.854227 -49.120406 
L 482.561476 -49.120406 
L 487.268724 -49.120406 
L 491.975973 -49.120406 
L 496.683222 -49.120406 
L 501.390471 -49.120406 
L 506.097719 -49.120406 
L 510.804968 -49.120406 
L 515.512217 -49.120406 
L 520.219465 -49.120406 
L 524.926714 -49.120406 
L 529.633963 -49.120406 
L 534.341212 -49.120406 
L 539.04846 -49.120406 
L 543.755709 -49.120406 
L 548.462958 -49.120406 
L 553.170206 -49.120406 
L 557.877455 -49.120406 
L 562.584704 -49.120406 
L 567.291953 -49.120406 
L 571.999201 -49.120406 
L 576.70645 -49.120406 
L 581.413699 -49.120406 
L 586.120948 -49.120406 
L 590.828196 -49.120406 
L 595.535445 -49.120406 
L 600.242694 -49.120406 
L 604.949942 -49.120406 
L 609.657191 -49.120406 
L 614.36444 -49.120406 
L 619.071689 -49.120406 
L 623.778937 -49.120406 
L 628.486186 -49.120406 
L 633.193435 -49.120406 
L 637.900683 -49.120406 
L 642.607932 -49.120406 
L 647.315181 -49.120406 
L 652.02243 -49.120406 
L 656.729678 -49.120406 
L 661.436927 -49.120406 
L 666.144176 -49.120406 
L 670.851424 -49.120406 
L 675.558673 -49.120406 
L 680.265922 -49.120406 
L 684.973171 -49.120406 
L 689.680419 -49.120406 
L 694.387668 -49.120406 
L 699.094917 -49.120406 
L 703.802165 -49.120406 
L 708.509414 -49.120406 
L 713.216663 -49.120406 
L 717.923912 -49.120406 
L 722.63116 -49.120406 
L 727.338409 -49.120406 
L 732.045658 -49.120406 
L 736.752907 -49.120406 
L 741.460155 -49.120406 
L 746.167404 -49.120406 
L 750.874653 -49.120406 
L 755.581901 -49.120406 
L 760.28915 -49.120406 
L 764.996399 -49.120406 
L 769.703648 -49.120406 
L 774.410896 -49.120406 
L 779.118145 -49.120406 
L 783.825394 -49.120406 
L 788.532642 -49.120406 
L 793.239891 -49.120406 
L 797.94714 -49.120406 
L 802.654389 -49.120406 
L 807.361637 -49.120406 
L 812.068886 -49.120406 
L 816.776135 -49.120406 
L 821.483383 -49.120406 
L 826.190632 -49.120406 
L 830.897881 -49.120406 
L 835.60513 -49.120406 
L 840.312378 -49.120406 
L 845.019627 -49.120406 
L 849.726876 -49.120406 
L 854.434125 -49.120406 
L 859.141373 -49.120406 
L 863.848622 -49.120406 
L 868.555871 -49.120406 
L 873.263119 -49.120406 
L 877.970368 -49.120406 
L 882.677617 -49.120406 
L 887.384866 -49.120406 
L 892.092114 -49.120406 
L 896.799363 -49.120406 
L 901.506612 -49.120406 
L 906.21386 -49.120406 
L 910.921109 -49.120406 
L 915.628358 -49.120406 
L 920.335607 -49.120406 
L 925.042855 -49.120406 
L 929.750104 -49.120406 
L 934.457353 -49.120406 
L 939.164601 -49.120406 
L 943.87185 -49.120406 
L 948.579099 -49.120406 
L 953.286348 -49.120406 
L 957.993596 -49.120406 
L 962.700845 -49.120406 
L 967.408094 -49.120406 
L 972.115343 -49.120406 
L 976.822591 -49.120406 
L 981.52984 -49.120406 
L 986.237089 -49.120406 
L 990.944337 -49.120406 
L 995.651586 -49.120406 
L 995.651586 -49.127112 
L 995.651586 -49.127112 
L 990.944337 -49.132379 
L 986.237089 -49.141065 
L 981.52984 -49.15487 
L 976.822591 -49.176024 
L 972.115343 -49.207297 
L 967.408094 -49.25192 
L 962.700845 -49.313427 
L 957.993596 -49.395399 
L 953.286348 -49.501156 
L 948.579099 -49.633438 
L 943.87185 -49.794151 
L 939.164601 -49.98424 
L 934.457353 -50.203737 
L 929.750104 -50.451996 
L 925.042855 -50.728086 
L 920.335607 -51.03127 
L 915.628358 -51.361495 
L 910.921109 -51.719796 
L 906.21386 -52.108563 
L 901.506612 -52.531645 
L 896.799363 -52.994307 
L 892.092114 -53.503071 
L 887.384866 -54.065517 
L 882.677617 -54.69007 
L 877.970368 -55.385831 
L 873.263119 -56.16244 
L 868.555871 -57.029968 
L 863.848622 -57.998796 
L 859.141373 -59.079432 
L 854.434125 -60.282245 
L 849.726876 -61.617088 
L 845.019627 -63.092846 
L 840.312378 -64.716946 
L 835.60513 -66.494915 
L 830.897881 -68.430048 
L 826.190632 -70.523243 
L 821.483383 -72.772984 
L 816.776135 -75.175432 
L 812.068886 -77.724532 
L 807.361637 -80.412063 
L 802.654389 -83.227564 
L 797.94714 -86.158166 
L 793.239891 -89.188367 
L 788.532642 -92.299859 
L 783.825394 -95.471461 
L 779.118145 -98.679229 
L 774.410896 -101.896711 
L 769.703648 -105.095341 
L 764.996399 -108.244932 
L 760.28915 -111.314261 
L 755.581901 -114.271758 
L 750.874653 -117.086311 
L 746.167404 -119.728156 
L 741.460155 -122.1698 
L 736.752907 -124.386837 
L 732.045658 -126.358541 
L 727.338409 -128.068128 
L 722.63116 -129.502639 
L 717.923912 -130.652504 
L 713.216663 -131.510893 
L 708.509414 -132.07302 
L 703.802165 -132.335567 
L 699.094917 -132.29636 
L 694.387668 -131.954396 
L 689.680419 -131.310228 
L 684.973171 -130.366682 
L 680.265922 -129.129748 
L 675.558673 -127.609507 
L 670.851424 -125.820836 
L 666.144176 -123.783711 
L 661.436927 -121.52293 
L 656.729678 -119.06723 
L 652.02243 -116.447874 
L 647.315181 -113.69691 
L 642.607932 -110.845412 
L 637.900683 -107.921991 
L 633.193435 -104.951844 
L 628.486186 -101.956455 
L 623.778937 -98.953941 
L 619.071689 -95.959879 
L 614.36444 -92.988388 
L 609.657191 -90.053163 
L 604.949942 -87.168235 
L 600.242694 -84.348298 
L 595.535445 -81.608562 
L 590.828196 -78.964216 
L 586.120948 -76.429657 
L 581.413699 -74.017692 
L 576.70645 -71.73888 
L 571.999201 -69.601136 
L 567.291953 -67.609618 
L 562.584704 -65.766844 
L 557.877455 -64.072948 
L 553.170206 -62.525968 
L 548.462958 -61.12209 
L 543.755709 -59.855832 
L 539.04846 -58.720203 
L 534.341212 -57.706871 
L 529.633963 -56.806425 
L 524.926714 -56.008733 
L 520.219465 -55.303389 
L 515.512217 -54.680207 
L 510.804968 -54.129664 
L 506.097719 -53.643239 
L 501.390471 -53.213571 
L 496.683222 -52.834434 
L 491.975973 -52.500532 
L 487.268724 -52.20719 
L 482.561476 -51.950012 
L 477.854227 -51.724598 
L 473.146978 -51.526398 
L 468.43973 -51.35073 
L 463.732481 -51.192963 
L 459.025232 -51.048808 
L 454.317983 -50.914649 
L 449.610735 -50.787844 
L 444.903486 -50.666927 
L 440.196237 -50.551702 
L 435.488988 -50.443191 
L 430.78174 -50.343441 
L 426.074491 -50.255172 
L 421.367242 -50.181245 
L 416.659994 -50.124002 
L 411.952745 -50.084541 
L 407.245496 -50.062079 
L 402.538247 -50.053592 
L 397.830999 -50.053877 
L 393.12375 -50.056135 
L 388.416501 -50.053 
L 383.709253 -50.037832 
L 379.002004 -50.005974 
L 374.294755 -49.955679 
L 369.587506 -49.888489 
L 364.880258 -49.808978 
L 360.173009 -49.723949 
L 355.46576 -49.641273 
L 350.758512 -49.568636 
L 346.051263 -49.512409 
L 341.344014 -49.476819 
L 336.636765 -49.463466 
L 331.929517 -49.471219 
L 327.222268 -49.496437 
L 322.515019 -49.533466 
L 317.80777 -49.575378 
L 313.100522 -49.614849 
L 308.393273 -49.645115 
L 303.686024 -49.66085 
L 298.978776 -49.658835 
L 294.271527 -49.638298 
L 289.564278 -49.600854 
L 284.857029 -49.550055 
L 280.149781 -49.490676 
L 275.442532 -49.427874 
L 270.735283 -49.36641 
L 266.028035 -49.310073 
L 261.320786 -49.261374 
L 256.613537 -49.221537 
L 251.906288 -49.190708 
L 247.19904 -49.168301 
L 242.491791 -49.153406 
L 237.784542 -49.145159 
L 233.077294 -49.143062 
L 228.370045 -49.147206 
L 223.662796 -49.158407 
L 218.955547 -49.178251 
L 214.248299 -49.209033 
L 209.54105 -49.253591 
L 204.833801 -49.315035 
L 200.126552 -49.396381 
L 195.419304 -49.500124 
L 190.712055 -49.627818 
L 186.004806 -49.77969 
L 181.297558 -49.954358 
L 176.590309 -50.148641 
L 171.88306 -50.35745 
L 167.175811 -50.573753 
L 162.468563 -50.788614 
L 157.761314 -50.991373 
L 153.054065 -51.170079 
L 148.346817 -51.312285 
L 143.639568 -51.406244 
L 138.932319 -51.442433 
L 134.22507 -51.41513 
L 129.517822 -51.323711 
L 124.810573 -51.173263 
L 120.103324 -50.974288 
L 115.396076 -50.741458 
L 110.688827 -50.491642 
L 105.981578 -50.241635 
L 101.274329 -50.006057 
L 96.567081 -49.795842 
L 91.859832 -49.617535 
L 87.152583 -49.473395 
L 82.445335 -49.362139 
L 77.738086 -49.280027 
L 73.030837 -49.222019 
L 68.323588 -49.182757 
L 63.61634 -49.15728 
L 58.909091 -49.141422 
z
" style="stroke: #1f77b4"/>
    </defs>
    <g clip-path="url(#p88d19313e8)">
     <use xlink:href="#m31ad4b1d5a" x="0" y="540" style="fill: #1f77b4; fill-opacity: 0.25; stroke: #1f77b4"/>
    </g>
   </g>
   <g id="matplotlib.axis_9">
    <g id="xtick_157">
     <g id="line2d_13">
      <defs>
       <path id="md69aa355ca" d="M 0 0 
L 0 3.5 
" style="stroke: #000000; stroke-width: 0.8"/>
      </defs>
      <g>
       <use xlink:href="#md69aa355ca" x="270.922534" y="490.879594" style="stroke: #000000; stroke-width: 0.8"/>
      </g>
     </g>
     <g id="text_5">
      <!-- 1 -->
      <g transform="translate(267.741284 505.478031) scale(0.1 -0.1)">
       <defs>
        <path id="DejaVuSans-31" d="M 794 531 
L 1825 531 
L 1825 4091 
L 703 3866 
L 703 4441 
L 1819 4666 
L 2450 4666 
L 2450 531 
L 3481 531 
L 3481 0 
L 794 0 
L 794 531 
z
" transform="scale(0.015625)"/>
       </defs>
       <use xlink:href="#DejaVuSans-31"/>
      </g>
     </g>
    </g>
    <g id="xtick_158">
     <g id="line2d_14">
      <g>
       <use xlink:href="#md69aa355ca" x="342.18926" y="490.879594" style="stroke: #000000; stroke-width: 0.8"/>
      </g>
     </g>
     <g id="text_6">
      <!-- 2 -->
      <g transform="translate(339.00801 505.478031) scale(0.1 -0.1)">
       <defs>
        <path id="DejaVuSans-32" d="M 1228 531 
L 3431 531 
L 3431 0 
L 469 0 
L 469 531 
Q 828 903 1448 1529 
Q 2069 2156 2228 2338 
Q 2531 2678 2651 2914 
Q 2772 3150 2772 3378 
Q 2772 3750 2511 3984 
Q 2250 4219 1831 4219 
Q 1534 4219 1204 4116 
Q 875 4013 500 3803 
L 500 4441 
Q 881 4594 1212 4672 
Q 1544 4750 1819 4750 
Q 2544 4750 2975 4387 
Q 3406 4025 3406 3419 
Q 3406 3131 3298 2873 
Q 3191 2616 2906 2266 
Q 2828 2175 2409 1742 
Q 1991 1309 1228 531 
z
" transform="scale(0.015625)"/>
       </defs>
       <use xlink:href="#DejaVuSans-32"/>
      </g>
     </g>
    </g>
    <g id="xtick_159">
     <g id="line2d_15">
      <g>
       <use xlink:href="#md69aa355ca" x="436.398746" y="490.879594" style="stroke: #000000; stroke-width: 0.8"/>
      </g>
     </g>
     <g id="text_7">
      <!-- 5 -->
      <g transform="translate(433.217496 505.478031) scale(0.1 -0.1)">
       <defs>
        <path id="DejaVuSans-35" d="M 691 4666 
L 3169 4666 
L 3169 4134 
L 1269 4134 
L 1269 2991 
Q 1406 3038 1543 3061 
Q 1681 3084 1819 3084 
Q 2600 3084 3056 2656 
Q 3513 2228 3513 1497 
Q 3513 744 3044 326 
Q 2575 -91 1722 -91 
Q 1428 -91 1123 -41 
Q 819 9 494 109 
L 494 744 
Q 775 591 1075 516 
Q 1375 441 1709 441 
Q 2250 441 2565 725 
Q 2881 1009 2881 1497 
Q 2881 1984 2565 2268 
Q 2250 2553 1709 2553 
Q 1456 2553 1204 2497 
Q 953 2441 691 2322 
L 691 4666 
z
" transform="scale(0.015625)"/>
       </defs>
       <use xlink:href="#DejaVuSans-35"/>
      </g>
     </g>
    </g>
    <g id="xtick_160">
     <g id="line2d_16">
      <g>
       <use xlink:href="#md69aa355ca" x="507.665472" y="490.879594" style="stroke: #000000; stroke-width: 0.8"/>
      </g>
     </g>
     <g id="text_8">
      <!-- 10 -->
      <g transform="translate(501.302972 505.478031) scale(0.1 -0.1)">
       <defs>
        <path id="DejaVuSans-30" d="M 2034 4250 
Q 1547 4250 1301 3770 
Q 1056 3291 1056 2328 
Q 1056 1369 1301 889 
Q 1547 409 2034 409 
Q 2525 409 2770 889 
Q 3016 1369 3016 2328 
Q 3016 3291 2770 3770 
Q 2525 4250 2034 4250 
z
M 2034 4750 
Q 2819 4750 3233 4129 
Q 3647 3509 3647 2328 
Q 3647 1150 3233 529 
Q 2819 -91 2034 -91 
Q 1250 -91 836 529 
Q 422 1150 422 2328 
Q 422 3509 836 4129 
Q 1250 4750 2034 4750 
z
" transform="scale(0.015625)"/>
       </defs>
       <use xlink:href="#DejaVuSans-31"/>
       <use xlink:href="#DejaVuSans-30" transform="translate(63.623047 0)"/>
      </g>
     </g>
    </g>
    <g id="xtick_161">
     <g id="line2d_17">
      <g>
       <use xlink:href="#md69aa355ca" x="578.932197" y="490.879594" style="stroke: #000000; stroke-width: 0.8"/>
      </g>
     </g>
     <g id="text_9">
      <!-- 20 -->
      <g transform="translate(572.569697 505.478031) scale(0.1 -0.1)">
       <use xlink:href="#DejaVuSans-32"/>
       <use xlink:href="#DejaVuSans-30" transform="translate(63.623047 0)"/>
      </g>
     </g>
    </g>
    <g id="xtick_162">
     <g id="line2d_18">
      <g>
       <use xlink:href="#md69aa355ca" x="673.141684" y="490.879594" style="stroke: #000000; stroke-width: 0.8"/>
      </g>
     </g>
     <g id="text_10">
      <!-- 50 -->
      <g transform="translate(666.779184 505.478031) scale(0.1 -0.1)">
       <use xlink:href="#DejaVuSans-35"/>
       <use xlink:href="#DejaVuSans-30" transform="translate(63.623047 0)"/>
      </g>
     </g>
    </g>
    <g id="xtick_163">
     <g id="line2d_19">
      <g>
       <use xlink:href="#md69aa355ca" x="744.408409" y="490.879594" style="stroke: #000000; stroke-width: 0.8"/>
      </g>
     </g>
     <g id="text_11">
      <!-- 100 -->
      <g transform="translate(734.864659 505.478031) scale(0.1 -0.1)">
       <use xlink:href="#DejaVuSans-31"/>
       <use xlink:href="#DejaVuSans-30" transform="translate(63.623047 0)"/>
       <use xlink:href="#DejaVuSans-30" transform="translate(127.246094 0)"/>
      </g>
     </g>
    </g>
    <g id="xtick_164">
     <g id="line2d_20">
      <g>
       <use xlink:href="#md69aa355ca" x="815.675134" y="490.879594" style="stroke: #000000; stroke-width: 0.8"/>
      </g>
     </g>
     <g id="text_12">
      <!-- 200 -->
      <g transform="translate(806.131384 505.478031) scale(0.1 -0.1)">
       <use xlink:href="#DejaVuSans-32"/>
       <use xlink:href="#DejaVuSans-30" transform="translate(63.623047 0)"/>
       <use xlink:href="#DejaVuSans-30" transform="translate(127.246094 0)"/>
      </g>
     </g>
    </g>
    <g id="xtick_165">
     <g id="line2d_21">
      <g>
       <use xlink:href="#md69aa355ca" x="909.884621" y="490.879594" style="stroke: #000000; stroke-width: 0.8"/>
      </g>
     </g>
     <g id="text_13">
      <!-- 500 -->
      <g transform="translate(900.340871 505.478031) scale(0.1 -0.1)">
       <use xlink:href="#DejaVuSans-35"/>
       <use xlink:href="#DejaVuSans-30" transform="translate(63.623047 0)"/>
       <use xlink:href="#DejaVuSans-30" transform="translate(127.246094 0)"/>
      </g>
     </g>
    </g>
    <g id="xtick_166">
     <g id="line2d_22">
      <g>
       <use xlink:href="#md69aa355ca" x="981.151346" y="490.879594" style="stroke: #000000; stroke-width: 0.8"/>
      </g>
     </g>
     <g id="text_14">
      <!-- 1000 -->
      <g transform="translate(968.426346 505.478031) scale(0.1 -0.1)">
       <use xlink:href="#DejaVuSans-31"/>
       <use xlink:href="#DejaVuSans-30" transform="translate(63.623047 0)"/>
       <use xlink:href="#DejaVuSans-30" transform="translate(127.246094 0)"/>
       <use xlink:href="#DejaVuSans-30" transform="translate(190.869141 0)"/>
      </g>
     </g>
    </g>
    <g id="xtick_167">
     <g id="line2d_23">
      <defs>
       <path id="m2a3270dcd0" d="M 0 0 
L 0 2 
" style="stroke: #000000; stroke-width: 0.6"/>
      </defs>
      <g>
       <use xlink:href="#m2a3270dcd0" x="11.236836" y="490.879594" style="stroke: #000000; stroke-width: 0.6"/>
      </g>
     </g>
    </g>
    <g id="xtick_168">
     <g id="line2d_24">
      <g>
       <use xlink:href="#m2a3270dcd0" x="23.346834" y="490.879594" style="stroke: #000000; stroke-width: 0.6"/>
      </g>
     </g>
    </g>
    <g id="xtick_169">
     <g id="line2d_25">
      <g>
       <use xlink:href="#m2a3270dcd0" x="105.446322" y="490.879594" style="stroke: #000000; stroke-width: 0.6"/>
      </g>
     </g>
    </g>
    <g id="xtick_170">
     <g id="line2d_26">
      <g>
       <use xlink:href="#m2a3270dcd0" x="147.134684" y="490.879594" style="stroke: #000000; stroke-width: 0.6"/>
      </g>
     </g>
    </g>
    <g id="xtick_171">
     <g id="line2d_27">
      <g>
       <use xlink:href="#m2a3270dcd0" x="176.713048" y="490.879594" style="stroke: #000000; stroke-width: 0.6"/>
      </g>
     </g>
    </g>
    <g id="xtick_172">
     <g id="line2d_28">
      <g>
       <use xlink:href="#m2a3270dcd0" x="199.655809" y="490.879594" style="stroke: #000000; stroke-width: 0.6"/>
      </g>
     </g>
    </g>
    <g id="xtick_173">
     <g id="line2d_29">
      <g>
       <use xlink:href="#m2a3270dcd0" x="218.40141" y="490.879594" style="stroke: #000000; stroke-width: 0.6"/>
      </g>
     </g>
    </g>
    <g id="xtick_174">
     <g id="line2d_30">
      <g>
       <use xlink:href="#m2a3270dcd0" x="234.250589" y="490.879594" style="stroke: #000000; stroke-width: 0.6"/>
      </g>
     </g>
    </g>
    <g id="xtick_175">
     <g id="line2d_31">
      <g>
       <use xlink:href="#m2a3270dcd0" x="247.979773" y="490.879594" style="stroke: #000000; stroke-width: 0.6"/>
      </g>
     </g>
    </g>
    <g id="xtick_176">
     <g id="line2d_32">
      <g>
       <use xlink:href="#m2a3270dcd0" x="260.089771" y="490.879594" style="stroke: #000000; stroke-width: 0.6"/>
      </g>
     </g>
    </g>
    <g id="xtick_177">
     <g id="line2d_33">
      <g>
       <use xlink:href="#m2a3270dcd0" x="383.877622" y="490.879594" style="stroke: #000000; stroke-width: 0.6"/>
      </g>
     </g>
    </g>
    <g id="xtick_178">
     <g id="line2d_34">
      <g>
       <use xlink:href="#m2a3270dcd0" x="413.455985" y="490.879594" style="stroke: #000000; stroke-width: 0.6"/>
      </g>
     </g>
    </g>
    <g id="xtick_179">
     <g id="line2d_35">
      <g>
       <use xlink:href="#m2a3270dcd0" x="455.144347" y="490.879594" style="stroke: #000000; stroke-width: 0.6"/>
      </g>
     </g>
    </g>
    <g id="xtick_180">
     <g id="line2d_36">
      <g>
       <use xlink:href="#m2a3270dcd0" x="470.993527" y="490.879594" style="stroke: #000000; stroke-width: 0.6"/>
      </g>
     </g>
    </g>
    <g id="xtick_181">
     <g id="line2d_37">
      <g>
       <use xlink:href="#m2a3270dcd0" x="484.72271" y="490.879594" style="stroke: #000000; stroke-width: 0.6"/>
      </g>
     </g>
    </g>
    <g id="xtick_182">
     <g id="line2d_38">
      <g>
       <use xlink:href="#m2a3270dcd0" x="496.832709" y="490.879594" style="stroke: #000000; stroke-width: 0.6"/>
      </g>
     </g>
    </g>
    <g id="xtick_183">
     <g id="line2d_39">
      <g>
       <use xlink:href="#m2a3270dcd0" x="620.620559" y="490.879594" style="stroke: #000000; stroke-width: 0.6"/>
      </g>
     </g>
    </g>
    <g id="xtick_184">
     <g id="line2d_40">
      <g>
       <use xlink:href="#m2a3270dcd0" x="650.198922" y="490.879594" style="stroke: #000000; stroke-width: 0.6"/>
      </g>
     </g>
    </g>
    <g id="xtick_185">
     <g id="line2d_41">
      <g>
       <use xlink:href="#m2a3270dcd0" x="691.887284" y="490.879594" style="stroke: #000000; stroke-width: 0.6"/>
      </g>
     </g>
    </g>
    <g id="xtick_186">
     <g id="line2d_42">
      <g>
       <use xlink:href="#m2a3270dcd0" x="707.736464" y="490.879594" style="stroke: #000000; stroke-width: 0.6"/>
      </g>
     </g>
    </g>
    <g id="xtick_187">
     <g id="line2d_43">
      <g>
       <use xlink:href="#m2a3270dcd0" x="721.465648" y="490.879594" style="stroke: #000000; stroke-width: 0.6"/>
      </g>
     </g>
    </g>
    <g id="xtick_188">
     <g id="line2d_44">
      <g>
       <use xlink:href="#m2a3270dcd0" x="733.575646" y="490.879594" style="stroke: #000000; stroke-width: 0.6"/>
      </g>
     </g>
    </g>
    <g id="xtick_189">
     <g id="line2d_45">
      <g>
       <use xlink:href="#m2a3270dcd0" x="857.363496" y="490.879594" style="stroke: #000000; stroke-width: 0.6"/>
      </g>
     </g>
    </g>
    <g id="xtick_190">
     <g id="line2d_46">
      <g>
       <use xlink:href="#m2a3270dcd0" x="886.94186" y="490.879594" style="stroke: #000000; stroke-width: 0.6"/>
      </g>
     </g>
    </g>
    <g id="xtick_191">
     <g id="line2d_47">
      <g>
       <use xlink:href="#m2a3270dcd0" x="928.630222" y="490.879594" style="stroke: #000000; stroke-width: 0.6"/>
      </g>
     </g>
    </g>
    <g id="xtick_192">
     <g id="line2d_48">
      <g>
       <use xlink:href="#m2a3270dcd0" x="944.479401" y="490.879594" style="stroke: #000000; stroke-width: 0.6"/>
      </g>
     </g>
    </g>
    <g id="xtick_193">
     <g id="line2d_49">
      <g>
       <use xlink:href="#m2a3270dcd0" x="958.208585" y="490.879594" style="stroke: #000000; stroke-width: 0.6"/>
      </g>
     </g>
    </g>
    <g id="xtick_194">
     <g id="line2d_50">
      <g>
       <use xlink:href="#m2a3270dcd0" x="970.318584" y="490.879594" style="stroke: #000000; stroke-width: 0.6"/>
      </g>
     </g>
    </g>
    <g id="xtick_195">
     <g id="line2d_51">
      <g>
       <use xlink:href="#m2a3270dcd0" x="1052.418072" y="490.879594" style="stroke: #000000; stroke-width: 0.6"/>
      </g>
     </g>
    </g>
   </g>
   <g id="matplotlib.axis_10"/>
   <g id="line2d_52">
    <path d="M 349.624992 490.879594 
L 349.624992 403.503675 
" clip-path="url(#p88d19313e8)" style="fill: none; stroke-dasharray: 2.96,1.28; stroke-dashoffset: 0; stroke: #d3d3d3; stroke-width: 0.8"/>
   </g>
   <g id="line2d_53">
    <path d="M 574.652377 490.879594 
L 574.652377 403.503675 
" clip-path="url(#p88d19313e8)" style="fill: none; stroke-dasharray: 2.96,1.28; stroke-dashoffset: 0; stroke: #d3d3d3; stroke-width: 0.8"/>
   </g>
   <g id="line2d_54">
    <path d="M 487.886534 490.879594 
L 487.886534 403.503675 
" clip-path="url(#p88d19313e8)" style="fill: none; stroke-dasharray: 2.96,1.28; stroke-dashoffset: 0; stroke: #d3d3d3; stroke-width: 0.8"/>
   </g>
   <g id="text_15">
    <!-- International Poverty Line: -->
    <g style="fill: #808080" transform="translate(296.746242 524.708657) scale(0.08 -0.08)">
     <defs>
      <path id="DejaVuSans-49" d="M 628 4666 
L 1259 4666 
L 1259 0 
L 628 0 
L 628 4666 
z
" transform="scale(0.015625)"/>
      <path id="DejaVuSans-20" transform="scale(0.015625)"/>
      <path id="DejaVuSans-50" d="M 1259 4147 
L 1259 2394 
L 2053 2394 
Q 2494 2394 2734 2622 
Q 2975 2850 2975 3272 
Q 2975 3691 2734 3919 
Q 2494 4147 2053 4147 
L 1259 4147 
z
M 628 4666 
L 2053 4666 
Q 2838 4666 3239 4311 
Q 3641 3956 3641 3272 
Q 3641 2581 3239 2228 
Q 2838 1875 2053 1875 
L 1259 1875 
L 1259 0 
L 628 0 
L 628 4666 
z
" transform="scale(0.015625)"/>
      <path id="DejaVuSans-76" d="M 191 3500 
L 800 3500 
L 1894 563 
L 2988 3500 
L 3597 3500 
L 2284 0 
L 1503 0 
L 191 3500 
z
" transform="scale(0.015625)"/>
      <path id="DejaVuSans-4c" d="M 628 4666 
L 1259 4666 
L 1259 531 
L 3531 531 
L 3531 0 
L 628 0 
L 628 4666 
z
" transform="scale(0.015625)"/>
      <path id="DejaVuSans-3a" d="M 750 794 
L 1409 794 
L 1409 0 
L 750 0 
L 750 794 
z
M 750 3309 
L 1409 3309 
L 1409 2516 
L 750 2516 
L 750 3309 
z
" transform="scale(0.015625)"/>
     </defs>
     <use xlink:href="#DejaVuSans-49"/>
     <use xlink:href="#DejaVuSans-6e" transform="translate(29.492188 0)"/>
     <use xlink:href="#DejaVuSans-74" transform="translate(92.871094 0)"/>
     <use xlink:href="#DejaVuSans-65" transform="translate(132.080078 0)"/>
     <use xlink:href="#DejaVuSans-72" transform="translate(193.603516 0)"/>
     <use xlink:href="#DejaVuSans-6e" transform="translate(232.966797 0)"/>
     <use xlink:href="#DejaVuSans-61" transform="translate(296.345703 0)"/>
     <use xlink:href="#DejaVuSans-74" transform="translate(357.625 0)"/>
     <use xlink:href="#DejaVuSans-69" transform="translate(396.833984 0)"/>
     <use xlink:href="#DejaVuSans-6f" transform="translate(424.617188 0)"/>
     <use xlink:href="#DejaVuSans-6e" transform="translate(485.798828 0)"/>
     <use xlink:href="#DejaVuSans-61" transform="translate(549.177734 0)"/>
     <use xlink:href="#DejaVuSans-6c" transform="translate(610.457031 0)"/>
     <use xlink:href="#DejaVuSans-20" transform="translate(638.240234 0)"/>
     <use xlink:href="#DejaVuSans-50" transform="translate(670.027344 0)"/>
     <use xlink:href="#DejaVuSans-6f" transform="translate(726.705078 0)"/>
     <use xlink:href="#DejaVuSans-76" transform="translate(787.886719 0)"/>
     <use xlink:href="#DejaVuSans-65" transform="translate(847.066406 0)"/>
     <use xlink:href="#DejaVuSans-72" transform="translate(908.589844 0)"/>
     <use xlink:href="#DejaVuSans-74" transform="translate(949.703125 0)"/>
     <use xlink:href="#DejaVuSans-79" transform="translate(988.912109 0)"/>
     <use xlink:href="#DejaVuSans-20" transform="translate(1048.091797 0)"/>
     <use xlink:href="#DejaVuSans-4c" transform="translate(1079.878906 0)"/>
     <use xlink:href="#DejaVuSans-69" transform="translate(1135.591797 0)"/>
     <use xlink:href="#DejaVuSans-6e" transform="translate(1163.375 0)"/>
     <use xlink:href="#DejaVuSans-65" transform="translate(1226.753906 0)"/>
     <use xlink:href="#DejaVuSans-3a" transform="translate(1288.277344 0)"/>
    </g>
    <!-- $2.15 -->
    <g style="fill: #808080" transform="translate(338.173742 533.666907) scale(0.08 -0.08)">
     <defs>
      <path id="DejaVuSans-24" d="M 2163 -941 
L 1850 -941 
L 1847 0 
Q 1519 6 1191 76 
Q 863 147 531 288 
L 531 850 
Q 850 650 1176 548 
Q 1503 447 1850 444 
L 1850 1869 
Q 1159 1981 845 2250 
Q 531 2519 531 2988 
Q 531 3497 872 3790 
Q 1213 4084 1850 4128 
L 1850 4863 
L 2163 4863 
L 2163 4138 
Q 2453 4125 2725 4076 
Q 2997 4028 3256 3944 
L 3256 3397 
Q 2997 3528 2723 3600 
Q 2450 3672 2163 3684 
L 2163 2350 
Q 2872 2241 3206 1959 
Q 3541 1678 3541 1191 
Q 3541 663 3186 358 
Q 2831 53 2163 6 
L 2163 -941 
z
M 1850 2406 
L 1850 3688 
Q 1488 3647 1297 3481 
Q 1106 3316 1106 3041 
Q 1106 2772 1282 2622 
Q 1459 2472 1850 2406 
z
M 2163 1806 
L 2163 453 
Q 2559 506 2761 678 
Q 2963 850 2963 1131 
Q 2963 1406 2770 1568 
Q 2578 1731 2163 1806 
z
" transform="scale(0.015625)"/>
      <path id="DejaVuSans-2e" d="M 684 794 
L 1344 794 
L 1344 0 
L 684 0 
L 684 794 
z
" transform="scale(0.015625)"/>
     </defs>
     <use xlink:href="#DejaVuSans-24"/>
     <use xlink:href="#DejaVuSans-32" transform="translate(63.623047 0)"/>
     <use xlink:href="#DejaVuSans-2e" transform="translate(127.246094 0)"/>
     <use xlink:href="#DejaVuSans-31" transform="translate(159.033203 0)"/>
     <use xlink:href="#DejaVuSans-35" transform="translate(222.65625 0)"/>
    </g>
   </g>
   <g id="text_16">
    <!-- World mean: -->
    <g style="fill: #808080" transform="translate(549.227377 524.708657) scale(0.08 -0.08)">
     <defs>
      <path id="DejaVuSans-57" d="M 213 4666 
L 850 4666 
L 1831 722 
L 2809 4666 
L 3519 4666 
L 4500 722 
L 5478 4666 
L 6119 4666 
L 4947 0 
L 4153 0 
L 3169 4050 
L 2175 0 
L 1381 0 
L 213 4666 
z
" transform="scale(0.015625)"/>
     </defs>
     <use xlink:href="#DejaVuSans-57"/>
     <use xlink:href="#DejaVuSans-6f" transform="translate(93.001953 0)"/>
     <use xlink:href="#DejaVuSans-72" transform="translate(154.183594 0)"/>
     <use xlink:href="#DejaVuSans-6c" transform="translate(195.296875 0)"/>
     <use xlink:href="#DejaVuSans-64" transform="translate(223.080078 0)"/>
     <use xlink:href="#DejaVuSans-20" transform="translate(286.556641 0)"/>
     <use xlink:href="#DejaVuSans-6d" transform="translate(318.34375 0)"/>
     <use xlink:href="#DejaVuSans-65" transform="translate(415.755859 0)"/>
     <use xlink:href="#DejaVuSans-61" transform="translate(477.279297 0)"/>
     <use xlink:href="#DejaVuSans-6e" transform="translate(538.558594 0)"/>
     <use xlink:href="#DejaVuSans-3a" transform="translate(601.9375 0)"/>
    </g>
    <!-- $19.18 -->
    <g style="fill: #808080" transform="translate(560.656127 533.666907) scale(0.08 -0.08)">
     <defs>
      <path id="DejaVuSans-39" d="M 703 97 
L 703 672 
Q 941 559 1184 500 
Q 1428 441 1663 441 
Q 2288 441 2617 861 
Q 2947 1281 2994 2138 
Q 2813 1869 2534 1725 
Q 2256 1581 1919 1581 
Q 1219 1581 811 2004 
Q 403 2428 403 3163 
Q 403 3881 828 4315 
Q 1253 4750 1959 4750 
Q 2769 4750 3195 4129 
Q 3622 3509 3622 2328 
Q 3622 1225 3098 567 
Q 2575 -91 1691 -91 
Q 1453 -91 1209 -44 
Q 966 3 703 97 
z
M 1959 2075 
Q 2384 2075 2632 2365 
Q 2881 2656 2881 3163 
Q 2881 3666 2632 3958 
Q 2384 4250 1959 4250 
Q 1534 4250 1286 3958 
Q 1038 3666 1038 3163 
Q 1038 2656 1286 2365 
Q 1534 2075 1959 2075 
z
" transform="scale(0.015625)"/>
      <path id="DejaVuSans-38" d="M 2034 2216 
Q 1584 2216 1326 1975 
Q 1069 1734 1069 1313 
Q 1069 891 1326 650 
Q 1584 409 2034 409 
Q 2484 409 2743 651 
Q 3003 894 3003 1313 
Q 3003 1734 2745 1975 
Q 2488 2216 2034 2216 
z
M 1403 2484 
Q 997 2584 770 2862 
Q 544 3141 544 3541 
Q 544 4100 942 4425 
Q 1341 4750 2034 4750 
Q 2731 4750 3128 4425 
Q 3525 4100 3525 3541 
Q 3525 3141 3298 2862 
Q 3072 2584 2669 2484 
Q 3125 2378 3379 2068 
Q 3634 1759 3634 1313 
Q 3634 634 3220 271 
Q 2806 -91 2034 -91 
Q 1263 -91 848 271 
Q 434 634 434 1313 
Q 434 1759 690 2068 
Q 947 2378 1403 2484 
z
M 1172 3481 
Q 1172 3119 1398 2916 
Q 1625 2713 2034 2713 
Q 2441 2713 2670 2916 
Q 2900 3119 2900 3481 
Q 2900 3844 2670 4047 
Q 2441 4250 2034 4250 
Q 1625 4250 1398 4047 
Q 1172 3844 1172 3481 
z
" transform="scale(0.015625)"/>
     </defs>
     <use xlink:href="#DejaVuSans-24"/>
     <use xlink:href="#DejaVuSans-31" transform="translate(63.623047 0)"/>
     <use xlink:href="#DejaVuSans-39" transform="translate(127.246094 0)"/>
     <use xlink:href="#DejaVuSans-2e" transform="translate(190.869141 0)"/>
     <use xlink:href="#DejaVuSans-31" transform="translate(222.65625 0)"/>
     <use xlink:href="#DejaVuSans-38" transform="translate(286.279297 0)"/>
    </g>
   </g>
   <g id="text_17">
    <!-- World median: -->
    <g style="fill: #808080" transform="translate(458.810909 524.708657) scale(0.08 -0.08)">
     <use xlink:href="#DejaVuSans-57"/>
     <use xlink:href="#DejaVuSans-6f" transform="translate(93.001953 0)"/>
     <use xlink:href="#DejaVuSans-72" transform="translate(154.183594 0)"/>
     <use xlink:href="#DejaVuSans-6c" transform="translate(195.296875 0)"/>
     <use xlink:href="#DejaVuSans-64" transform="translate(223.080078 0)"/>
     <use xlink:href="#DejaVuSans-20" transform="translate(286.556641 0)"/>
     <use xlink:href="#DejaVuSans-6d" transform="translate(318.34375 0)"/>
     <use xlink:href="#DejaVuSans-65" transform="translate(415.755859 0)"/>
     <use xlink:href="#DejaVuSans-64" transform="translate(477.279297 0)"/>
     <use xlink:href="#DejaVuSans-69" transform="translate(540.755859 0)"/>
     <use xlink:href="#DejaVuSans-61" transform="translate(568.539062 0)"/>
     <use xlink:href="#DejaVuSans-6e" transform="translate(629.818359 0)"/>
     <use xlink:href="#DejaVuSans-3a" transform="translate(693.197266 0)"/>
    </g>
    <!-- $8.25 -->
    <g style="fill: #808080" transform="translate(476.435284 533.666907) scale(0.08 -0.08)">
     <use xlink:href="#DejaVuSans-24"/>
     <use xlink:href="#DejaVuSans-38" transform="translate(63.623047 0)"/>
     <use xlink:href="#DejaVuSans-2e" transform="translate(127.246094 0)"/>
     <use xlink:href="#DejaVuSans-32" transform="translate(159.033203 0)"/>
     <use xlink:href="#DejaVuSans-35" transform="translate(222.65625 0)"/>
    </g>
   </g>
   <g id="text_18">
    <!-- United States -->
    <g transform="translate(699.063988 488.799906) scale(0.1 -0.1)">
     <defs>
      <path id="DejaVuSans-55" d="M 556 4666 
L 1191 4666 
L 1191 1831 
Q 1191 1081 1462 751 
Q 1734 422 2344 422 
Q 2950 422 3222 751 
Q 3494 1081 3494 1831 
L 3494 4666 
L 4128 4666 
L 4128 1753 
Q 4128 841 3676 375 
Q 3225 -91 2344 -91 
Q 1459 -91 1007 375 
Q 556 841 556 1753 
L 556 4666 
z
" transform="scale(0.015625)"/>
      <path id="DejaVuSans-53" d="M 3425 4513 
L 3425 3897 
Q 3066 4069 2747 4153 
Q 2428 4238 2131 4238 
Q 1616 4238 1336 4038 
Q 1056 3838 1056 3469 
Q 1056 3159 1242 3001 
Q 1428 2844 1947 2747 
L 2328 2669 
Q 3034 2534 3370 2195 
Q 3706 1856 3706 1288 
Q 3706 609 3251 259 
Q 2797 -91 1919 -91 
Q 1588 -91 1214 -16 
Q 841 59 441 206 
L 441 856 
Q 825 641 1194 531 
Q 1563 422 1919 422 
Q 2459 422 2753 634 
Q 3047 847 3047 1241 
Q 3047 1584 2836 1778 
Q 2625 1972 2144 2069 
L 1759 2144 
Q 1053 2284 737 2584 
Q 422 2884 422 3419 
Q 422 4038 858 4394 
Q 1294 4750 2059 4750 
Q 2388 4750 2728 4690 
Q 3069 4631 3425 4513 
z
" transform="scale(0.015625)"/>
     </defs>
     <use xlink:href="#DejaVuSans-55"/>
     <use xlink:href="#DejaVuSans-6e" transform="translate(73.193359 0)"/>
     <use xlink:href="#DejaVuSans-69" transform="translate(136.572266 0)"/>
     <use xlink:href="#DejaVuSans-74" transform="translate(164.355469 0)"/>
     <use xlink:href="#DejaVuSans-65" transform="translate(203.564453 0)"/>
     <use xlink:href="#DejaVuSans-64" transform="translate(265.087891 0)"/>
     <use xlink:href="#DejaVuSans-20" transform="translate(328.564453 0)"/>
     <use xlink:href="#DejaVuSans-53" transform="translate(360.351562 0)"/>
     <use xlink:href="#DejaVuSans-74" transform="translate(423.828125 0)"/>
     <use xlink:href="#DejaVuSans-61" transform="translate(463.037109 0)"/>
     <use xlink:href="#DejaVuSans-74" transform="translate(524.316406 0)"/>
     <use xlink:href="#DejaVuSans-65" transform="translate(563.525391 0)"/>
     <use xlink:href="#DejaVuSans-73" transform="translate(625.048828 0)"/>
    </g>
   </g>
  </g>
 </g>
 <defs>
  <clipPath id="p4b9ef78487">
   <rect x="10.8" y="10.8" width="1058.4" height="87.375919"/>
  </clipPath>
  <clipPath id="p91548c3d30">
   <rect x="10.8" y="108.975919" width="1058.4" height="87.375919"/>
  </clipPath>
  <clipPath id="p2f32d1a0e6">
   <rect x="10.8" y="207.151837" width="1058.4" height="87.375919"/>
  </clipPath>
  <clipPath id="p3a2844c11c">
   <rect x="10.8" y="305.327756" width="1058.4" height="87.375919"/>
  </clipPath>
  <clipPath id="p88d19313e8">
   <rect x="10.8" y="403.503675" width="1058.4" height="87.375919"/>
  </clipPath>
 </defs>
</svg>
