<?xml version="1.0" encoding="utf-8" standalone="no"?>
<!DOCTYPE svg PUBLIC "-//W3C//DTD SVG 1.1//EN"
  "http://www.w3.org/Graphics/SVG/1.1/DTD/svg11.dtd">
<svg xmlns:xlink="http://www.w3.org/1999/xlink" width="656.1pt" height="183.151437pt" viewBox="0 0 656.1 183.151437" xmlns="http://www.w3.org/2000/svg" version="1.1">
 <metadata>
  <rdf:RDF xmlns:dc="http://purl.org/dc/elements/1.1/" xmlns:cc="http://creativecommons.org/ns#" xmlns:rdf="http://www.w3.org/1999/02/22-rdf-syntax-ns#">
   <cc:Work>
    <dc:type rdf:resource="http://purl.org/dc/dcmitype/StillImage"/>
    <dc:date>2026-05-29T12:14:20.741586</dc:date>
    <dc:format>image/svg+xml</dc:format>
    <dc:creator>
     <cc:Agent>
      <dc:title>Matplotlib v3.10.9, https://matplotlib.org/</dc:title>
     </cc:Agent>
    </dc:creator>
   </cc:Work>
  </rdf:RDF>
 </metadata>
 <defs>
  <style type="text/css">*{stroke-linejoin: round; stroke-linecap: butt}</style>
 </defs>
 <g id="figure_1">
  <g id="patch_1">
   <path d="M 0 183.151437 
L 656.1 183.151437 
L 656.1 0 
L 0 0 
z
" style="fill: #ffffff"/>
  </g>
  <g id="axes_1">
   <g id="patch_2">
    <path d="M 7.2 146.42175 
L 648.9 146.42175 
L 648.9 24.45375 
L 7.2 24.45375 
z
" style="fill: #ffffff"/>
   </g>
   <g id="matplotlib.axis_1">
    <g id="xtick_1">
     <g id="line2d_1">
      <defs>
       <path id="mbb7c759c9c" d="M 0 0 
L 0 3.5 
" style="stroke: #262626; stroke-width: 0.8"/>
      </defs>
      <g>
       <use xlink:href="#mbb7c759c9c" x="41.373646" y="146.42175" style="fill: #262626; stroke: #262626; stroke-width: 0.8"/>
      </g>
     </g>
     <g id="text_1">
      <text style="font-size: 10px; font-family: 'Arial', 'DejaVu Sans', 'Liberation Sans', 'Bitstream Vera Sans', sans-serif; text-anchor: middle; fill: #262626" x="41.373646" y="160.579562" transform="rotate(-0 41.373646 160.579562)">$2</text>
     </g>
    </g>
    <g id="xtick_2">
     <g id="line2d_2">
      <g>
       <use xlink:href="#mbb7c759c9c" x="108.357912" y="146.42175" style="fill: #262626; stroke: #262626; stroke-width: 0.8"/>
      </g>
     </g>
     <g id="text_2">
      <text style="font-size: 10px; font-family: 'Arial', 'DejaVu Sans', 'Liberation Sans', 'Bitstream Vera Sans', sans-serif; text-anchor: middle; fill: #262626" x="108.357912" y="160.579562" transform="rotate(-0 108.357912 160.579562)">$5</text>
     </g>
    </g>
    <g id="xtick_3">
     <g id="line2d_3">
      <g>
       <use xlink:href="#mbb7c759c9c" x="159.029554" y="146.42175" style="fill: #262626; stroke: #262626; stroke-width: 0.8"/>
      </g>
     </g>
     <g id="text_3">
      <text style="font-size: 10px; font-family: 'Arial', 'DejaVu Sans', 'Liberation Sans', 'Bitstream Vera Sans', sans-serif; text-anchor: middle; fill: #262626" x="159.029554" y="160.579562" transform="rotate(-0 159.029554 160.579562)">$10</text>
     </g>
    </g>
    <g id="xtick_4">
     <g id="line2d_4">
      <g>
       <use xlink:href="#mbb7c759c9c" x="209.701195" y="146.42175" style="fill: #262626; stroke: #262626; stroke-width: 0.8"/>
      </g>
     </g>
     <g id="text_4">
      <text style="font-size: 10px; font-family: 'Arial', 'DejaVu Sans', 'Liberation Sans', 'Bitstream Vera Sans', sans-serif; text-anchor: middle; fill: #262626" x="209.701195" y="160.579562" transform="rotate(-0 209.701195 160.579562)">$20</text>
     </g>
    </g>
    <g id="xtick_5">
     <g id="line2d_5">
      <g>
       <use xlink:href="#mbb7c759c9c" x="276.685462" y="146.42175" style="fill: #262626; stroke: #262626; stroke-width: 0.8"/>
      </g>
     </g>
     <g id="text_5">
      <text style="font-size: 10px; font-family: 'Arial', 'DejaVu Sans', 'Liberation Sans', 'Bitstream Vera Sans', sans-serif; text-anchor: middle; fill: #262626" x="276.685462" y="160.579562" transform="rotate(-0 276.685462 160.579562)">$50</text>
     </g>
    </g>
    <g id="xtick_6">
     <g id="line2d_6">
      <g>
       <use xlink:href="#mbb7c759c9c" x="327.357103" y="146.42175" style="fill: #262626; stroke: #262626; stroke-width: 0.8"/>
      </g>
     </g>
     <g id="text_6">
      <text style="font-size: 10px; font-family: 'Arial', 'DejaVu Sans', 'Liberation Sans', 'Bitstream Vera Sans', sans-serif; text-anchor: middle; fill: #262626" x="327.357103" y="160.579562" transform="rotate(-0 327.357103 160.579562)">$100</text>
     </g>
    </g>
    <g id="xtick_7">
     <g id="line2d_7">
      <g>
       <use xlink:href="#mbb7c759c9c" x="378.028745" y="146.42175" style="fill: #262626; stroke: #262626; stroke-width: 0.8"/>
      </g>
     </g>
     <g id="text_7">
      <text style="font-size: 10px; font-family: 'Arial', 'DejaVu Sans', 'Liberation Sans', 'Bitstream Vera Sans', sans-serif; text-anchor: middle; fill: #262626" x="378.028745" y="160.579562" transform="rotate(-0 378.028745 160.579562)">$200</text>
     </g>
    </g>
    <g id="xtick_8">
     <g id="line2d_8">
      <g>
       <use xlink:href="#mbb7c759c9c" x="445.013011" y="146.42175" style="fill: #262626; stroke: #262626; stroke-width: 0.8"/>
      </g>
     </g>
     <g id="text_8">
      <text style="font-size: 10px; font-family: 'Arial', 'DejaVu Sans', 'Liberation Sans', 'Bitstream Vera Sans', sans-serif; text-anchor: middle; fill: #262626" x="445.013011" y="160.579562" transform="rotate(-0 445.013011 160.579562)">$500</text>
     </g>
    </g>
    <g id="xtick_9">
     <g id="line2d_9">
      <g>
       <use xlink:href="#mbb7c759c9c" x="495.684653" y="146.42175" style="fill: #262626; stroke: #262626; stroke-width: 0.8"/>
      </g>
     </g>
     <g id="text_9">
      <text style="font-size: 10px; font-family: 'Arial', 'DejaVu Sans', 'Liberation Sans', 'Bitstream Vera Sans', sans-serif; text-anchor: middle; fill: #262626" x="495.684653" y="160.579562" transform="rotate(-0 495.684653 160.579562)">$1000</text>
     </g>
    </g>
    <g id="xtick_10">
     <g id="line2d_10">
      <g>
       <use xlink:href="#mbb7c759c9c" x="546.356294" y="146.42175" style="fill: #262626; stroke: #262626; stroke-width: 0.8"/>
      </g>
     </g>
     <g id="text_10">
      <text style="font-size: 10px; font-family: 'Arial', 'DejaVu Sans', 'Liberation Sans', 'Bitstream Vera Sans', sans-serif; text-anchor: middle; fill: #262626" x="546.356294" y="160.579562" transform="rotate(-0 546.356294 160.579562)">$2000</text>
     </g>
    </g>
    <g id="xtick_11">
     <g id="line2d_11">
      <g>
       <use xlink:href="#mbb7c759c9c" x="613.340561" y="146.42175" style="fill: #262626; stroke: #262626; stroke-width: 0.8"/>
      </g>
     </g>
     <g id="text_11">
      <text style="font-size: 10px; font-family: 'Arial', 'DejaVu Sans', 'Liberation Sans', 'Bitstream Vera Sans', sans-serif; text-anchor: middle; fill: #262626" x="613.340561" y="160.579562" transform="rotate(-0 613.340561 160.579562)">$5000</text>
     </g>
    </g>
    <g id="xtick_12">
     <g id="line2d_12">
      <defs>
       <path id="mc6b92dc490" d="M 0 0 
L 0 2 
" style="stroke: #262626; stroke-width: 0.6"/>
      </defs>
      <g>
       <use xlink:href="#mc6b92dc490" x="71.014656" y="146.42175" style="fill: #262626; stroke: #262626; stroke-width: 0.6"/>
      </g>
     </g>
    </g>
    <g id="xtick_13">
     <g id="line2d_13">
      <g>
       <use xlink:href="#mc6b92dc490" x="92.045287" y="146.42175" style="fill: #262626; stroke: #262626; stroke-width: 0.6"/>
      </g>
     </g>
    </g>
    <g id="xtick_14">
     <g id="line2d_14">
      <g>
       <use xlink:href="#mc6b92dc490" x="121.686297" y="146.42175" style="fill: #262626; stroke: #262626; stroke-width: 0.6"/>
      </g>
     </g>
    </g>
    <g id="xtick_15">
     <g id="line2d_15">
      <g>
       <use xlink:href="#mc6b92dc490" x="132.955286" y="146.42175" style="fill: #262626; stroke: #262626; stroke-width: 0.6"/>
      </g>
     </g>
    </g>
    <g id="xtick_16">
     <g id="line2d_16">
      <g>
       <use xlink:href="#mc6b92dc490" x="142.716929" y="146.42175" style="fill: #262626; stroke: #262626; stroke-width: 0.6"/>
      </g>
     </g>
    </g>
    <g id="xtick_17">
     <g id="line2d_17">
      <g>
       <use xlink:href="#mc6b92dc490" x="151.327307" y="146.42175" style="fill: #262626; stroke: #262626; stroke-width: 0.6"/>
      </g>
     </g>
    </g>
    <g id="xtick_18">
     <g id="line2d_18">
      <g>
       <use xlink:href="#mc6b92dc490" x="239.342205" y="146.42175" style="fill: #262626; stroke: #262626; stroke-width: 0.6"/>
      </g>
     </g>
    </g>
    <g id="xtick_19">
     <g id="line2d_19">
      <g>
       <use xlink:href="#mc6b92dc490" x="260.372837" y="146.42175" style="fill: #262626; stroke: #262626; stroke-width: 0.6"/>
      </g>
     </g>
    </g>
    <g id="xtick_20">
     <g id="line2d_20">
      <g>
       <use xlink:href="#mc6b92dc490" x="290.013847" y="146.42175" style="fill: #262626; stroke: #262626; stroke-width: 0.6"/>
      </g>
     </g>
    </g>
    <g id="xtick_21">
     <g id="line2d_21">
      <g>
       <use xlink:href="#mc6b92dc490" x="301.282836" y="146.42175" style="fill: #262626; stroke: #262626; stroke-width: 0.6"/>
      </g>
     </g>
    </g>
    <g id="xtick_22">
     <g id="line2d_22">
      <g>
       <use xlink:href="#mc6b92dc490" x="311.044478" y="146.42175" style="fill: #262626; stroke: #262626; stroke-width: 0.6"/>
      </g>
     </g>
    </g>
    <g id="xtick_23">
     <g id="line2d_23">
      <g>
       <use xlink:href="#mc6b92dc490" x="319.654857" y="146.42175" style="fill: #262626; stroke: #262626; stroke-width: 0.6"/>
      </g>
     </g>
    </g>
    <g id="xtick_24">
     <g id="line2d_24">
      <g>
       <use xlink:href="#mc6b92dc490" x="407.669755" y="146.42175" style="fill: #262626; stroke: #262626; stroke-width: 0.6"/>
      </g>
     </g>
    </g>
    <g id="xtick_25">
     <g id="line2d_25">
      <g>
       <use xlink:href="#mc6b92dc490" x="428.700386" y="146.42175" style="fill: #262626; stroke: #262626; stroke-width: 0.6"/>
      </g>
     </g>
    </g>
    <g id="xtick_26">
     <g id="line2d_26">
      <g>
       <use xlink:href="#mc6b92dc490" x="458.341396" y="146.42175" style="fill: #262626; stroke: #262626; stroke-width: 0.6"/>
      </g>
     </g>
    </g>
    <g id="xtick_27">
     <g id="line2d_27">
      <g>
       <use xlink:href="#mc6b92dc490" x="469.610385" y="146.42175" style="fill: #262626; stroke: #262626; stroke-width: 0.6"/>
      </g>
     </g>
    </g>
    <g id="xtick_28">
     <g id="line2d_28">
      <g>
       <use xlink:href="#mc6b92dc490" x="479.372028" y="146.42175" style="fill: #262626; stroke: #262626; stroke-width: 0.6"/>
      </g>
     </g>
    </g>
    <g id="xtick_29">
     <g id="line2d_29">
      <g>
       <use xlink:href="#mc6b92dc490" x="487.982406" y="146.42175" style="fill: #262626; stroke: #262626; stroke-width: 0.6"/>
      </g>
     </g>
    </g>
    <g id="xtick_30">
     <g id="line2d_30">
      <g>
       <use xlink:href="#mc6b92dc490" x="575.997304" y="146.42175" style="fill: #262626; stroke: #262626; stroke-width: 0.6"/>
      </g>
     </g>
    </g>
    <g id="xtick_31">
     <g id="line2d_31">
      <g>
       <use xlink:href="#mc6b92dc490" x="597.027936" y="146.42175" style="fill: #262626; stroke: #262626; stroke-width: 0.6"/>
      </g>
     </g>
    </g>
    <g id="xtick_32">
     <g id="line2d_32">
      <g>
       <use xlink:href="#mc6b92dc490" x="626.668946" y="146.42175" style="fill: #262626; stroke: #262626; stroke-width: 0.6"/>
      </g>
     </g>
    </g>
    <g id="xtick_33">
     <g id="line2d_33">
      <g>
       <use xlink:href="#mc6b92dc490" x="637.937935" y="146.42175" style="fill: #262626; stroke: #262626; stroke-width: 0.6"/>
      </g>
     </g>
    </g>
    <g id="xtick_34">
     <g id="line2d_34">
      <g>
       <use xlink:href="#mc6b92dc490" x="647.699577" y="146.42175" style="fill: #262626; stroke: #262626; stroke-width: 0.6"/>
      </g>
     </g>
    </g>
    <g id="text_12">
     <text style="font-size: 10px; font-family: 'Arial', 'DejaVu Sans', 'Liberation Sans', 'Bitstream Vera Sans', sans-serif; text-anchor: middle; fill: #262626" x="328.05" y="173.84675" transform="rotate(-0 328.05 173.84675)">Income or consumption (month)</text>
    </g>
   </g>
   <g id="matplotlib.axis_2"/>
   <g id="FillBetweenPolyCollection_1">
    <defs>
     <path id="mdee3021302" d="M 108.677709 -36.729687 
L 108.677709 -36.737975 
L 110.96099 -36.742171 
L 113.244271 -36.748217 
L 115.527552 -36.756789 
L 117.810833 -36.768752 
L 120.094114 -36.785187 
L 122.377395 -36.807417 
L 124.660676 -36.837017 
L 126.943957 -36.875827 
L 129.227238 -36.925936 
L 131.510519 -36.989653 
L 133.7938 -37.069461 
L 136.077081 -37.16794 
L 138.360362 -37.287678 
L 140.643643 -37.431165 
L 142.926924 -37.600673 
L 145.210205 -37.798141 
L 147.493486 -38.02506 
L 149.776767 -38.282388 
L 152.060048 -38.570485 
L 154.343329 -38.889084 
L 156.62661 -39.23731 
L 158.909891 -39.613732 
L 161.193172 -40.016458 
L 163.476453 -40.443265 
L 165.759734 -40.891736 
L 168.043015 -41.359425 
L 170.326296 -41.844001 
L 172.609577 -42.343385 
L 174.892858 -42.855858 
L 177.176139 -43.380131 
L 179.45942 -43.915386 
L 181.742701 -44.461276 
L 184.025982 -45.017893 
L 186.309263 -45.585714 
L 188.592544 -46.165521 
L 190.875825 -46.75832 
L 193.159106 -47.365255 
L 195.442387 -47.987525 
L 197.725668 -48.626314 
L 200.008949 -49.282731 
L 202.29223 -49.95777 
L 204.575511 -50.652273 
L 206.858792 -51.36692 
L 209.142073 -52.102217 
L 211.425354 -52.858498 
L 213.708635 -53.635931 
L 215.991916 -54.434529 
L 218.275197 -55.254162 
L 220.558478 -56.094563 
L 222.841759 -56.955345 
L 225.12504 -57.836004 
L 227.408321 -58.735932 
L 229.691602 -59.654422 
L 231.974883 -60.590669 
L 234.258164 -61.54378 
L 236.541445 -62.51277 
L 238.824726 -63.496572 
L 241.108007 -64.494034 
L 243.391288 -65.503923 
L 245.674569 -66.524925 
L 247.95785 -67.555652 
L 250.241131 -68.594639 
L 252.524412 -69.64035 
L 254.807693 -70.691179 
L 257.090974 -71.745455 
L 259.374255 -72.801448 
L 261.657536 -73.857366 
L 263.940817 -74.911367 
L 266.224098 -75.96156 
L 268.507379 -77.006011 
L 270.79066 -78.04275 
L 273.073941 -79.069773 
L 275.357222 -80.085052 
L 277.640503 -81.086542 
L 279.923784 -82.072182 
L 282.207065 -83.039909 
L 284.490346 -83.987659 
L 286.773627 -84.91338 
L 289.056908 -85.815034 
L 291.340189 -86.690606 
L 293.62347 -87.538114 
L 295.906751 -88.355613 
L 298.190032 -89.141205 
L 300.473313 -89.893045 
L 302.756594 -90.609347 
L 305.039875 -91.288393 
L 307.323156 -91.92854 
L 309.606437 -92.528225 
L 311.889718 -93.085973 
L 314.172999 -93.600402 
L 316.45628 -94.070228 
L 318.739561 -94.494272 
L 321.022842 -94.871466 
L 323.306123 -95.200851 
L 325.589404 -95.481591 
L 327.872685 -95.712968 
L 330.155966 -95.89439 
L 332.439247 -96.02539 
L 334.722528 -96.105632 
L 337.005809 -96.134909 
L 339.28909 -96.113146 
L 341.572371 -96.040398 
L 343.855652 -95.916854 
L 346.138933 -95.74283 
L 348.422214 -95.518774 
L 350.705495 -95.245261 
L 352.988776 -94.922988 
L 355.272057 -94.552777 
L 357.555338 -94.135566 
L 359.838619 -93.67241 
L 362.1219 -93.164471 
L 364.405181 -92.613016 
L 366.688462 -92.019416 
L 368.971743 -91.385131 
L 371.255024 -90.711711 
L 373.538305 -90.000789 
L 375.821586 -89.254072 
L 378.104867 -88.473335 
L 380.388148 -87.660416 
L 382.671429 -86.817206 
L 384.95471 -85.945642 
L 387.237991 -85.047703 
L 389.521272 -84.125399 
L 391.804553 -83.180763 
L 394.087834 -82.215848 
L 396.371115 -81.232716 
L 398.654396 -80.233431 
L 400.937677 -79.220053 
L 403.220958 -78.194631 
L 405.504239 -77.159197 
L 407.78752 -76.115756 
L 410.070801 -75.066286 
L 412.354082 -74.012726 
L 414.637363 -72.956973 
L 416.920644 -71.900878 
L 419.203925 -70.846238 
L 421.487206 -69.794795 
L 423.770487 -68.748228 
L 426.053768 -67.708152 
L 428.337049 -66.676113 
L 430.62033 -65.653586 
L 432.903611 -64.641971 
L 435.186892 -63.64259 
L 437.470173 -62.656685 
L 439.753454 -61.685417 
L 442.036735 -60.729859 
L 444.320016 -59.790997 
L 446.603297 -58.869725 
L 448.886578 -57.966839 
L 451.169859 -57.083031 
L 453.45314 -56.218887 
L 455.736421 -55.374868 
L 458.019702 -54.551309 
L 460.302983 -53.748402 
L 462.586264 -52.966186 
L 464.869545 -52.204531 
L 467.152826 -51.463131 
L 469.436107 -50.741493 
L 471.719388 -50.03894 
L 474.002669 -49.354617 
L 476.28595 -48.687509 
L 478.569231 -48.036474 
L 480.852512 -47.400296 
L 483.135793 -46.777742 
L 485.419074 -46.167643 
L 487.702355 -45.568986 
L 489.985636 -44.981 
L 492.268917 -44.403256 
L 494.552198 -43.835739 
L 496.835479 -43.278918 
L 499.11876 -42.733773 
L 501.402041 -42.201791 
L 503.685322 -41.68493 
L 505.968603 -41.18553 
L 508.251884 -40.7062 
L 510.535165 -40.249669 
L 512.818446 -39.818623 
L 515.101727 -39.415532 
L 517.385008 -39.0425 
L 519.668289 -38.701121 
L 521.95157 -38.39238 
L 524.234851 -38.116599 
L 526.518132 -37.873414 
L 528.801413 -37.661815 
L 531.084694 -37.480205 
L 533.367975 -37.326509 
L 535.651256 -37.198285 
L 537.934537 -37.09286 
L 540.217818 -37.007453 
L 542.501099 -36.93929 
L 544.78438 -36.885708 
L 547.067661 -36.844225 
L 549.350942 -36.8126 
L 551.634223 -36.788862 
L 553.917504 -36.771319 
L 556.200785 -36.758556 
L 558.484066 -36.749416 
L 560.767347 -36.742972 
L 563.050628 -36.738502 
L 563.050628 -36.729687 
L 563.050628 -36.729687 
L 560.767347 -36.729687 
L 558.484066 -36.729687 
L 556.200785 -36.729687 
L 553.917504 -36.729687 
L 551.634223 -36.729687 
L 549.350942 -36.729687 
L 547.067661 -36.729687 
L 544.78438 -36.729687 
L 542.501099 -36.729687 
L 540.217818 -36.729687 
L 537.934537 -36.729687 
L 535.651256 -36.729687 
L 533.367975 -36.729687 
L 531.084694 -36.729687 
L 528.801413 -36.729687 
L 526.518132 -36.729687 
L 524.234851 -36.729687 
L 521.95157 -36.729687 
L 519.668289 -36.729687 
L 517.385008 -36.729687 
L 515.101727 -36.729687 
L 512.818446 -36.729687 
L 510.535165 -36.729687 
L 508.251884 -36.729687 
L 505.968603 -36.729687 
L 503.685322 -36.729687 
L 501.402041 -36.729687 
L 499.11876 -36.729687 
L 496.835479 -36.729687 
L 494.552198 -36.729687 
L 492.268917 -36.729687 
L 489.985636 -36.729687 
L 487.702355 -36.729687 
L 485.419074 -36.729687 
L 483.135793 -36.729687 
L 480.852512 -36.729687 
L 478.569231 -36.729687 
L 476.28595 -36.729687 
L 474.002669 -36.729687 
L 471.719388 -36.729687 
L 469.436107 -36.729687 
L 467.152826 -36.729687 
L 464.869545 -36.729687 
L 462.586264 -36.729687 
L 460.302983 -36.729687 
L 458.019702 -36.729687 
L 455.736421 -36.729687 
L 453.45314 -36.729687 
L 451.169859 -36.729687 
L 448.886578 -36.729687 
L 446.603297 -36.729687 
L 444.320016 -36.729687 
L 442.036735 -36.729687 
L 439.753454 -36.729687 
L 437.470173 -36.729687 
L 435.186892 -36.729687 
L 432.903611 -36.729687 
L 430.62033 -36.729687 
L 428.337049 -36.729687 
L 426.053768 -36.729687 
L 423.770487 -36.729687 
L 421.487206 -36.729687 
L 419.203925 -36.729687 
L 416.920644 -36.729687 
L 414.637363 -36.729687 
L 412.354082 -36.729687 
L 410.070801 -36.729687 
L 407.78752 -36.729687 
L 405.504239 -36.729687 
L 403.220958 -36.729687 
L 400.937677 -36.729687 
L 398.654396 -36.729687 
L 396.371115 -36.729687 
L 394.087834 -36.729687 
L 391.804553 -36.729687 
L 389.521272 -36.729687 
L 387.237991 -36.729687 
L 384.95471 -36.729687 
L 382.671429 -36.729687 
L 380.388148 -36.729687 
L 378.104867 -36.729687 
L 375.821586 -36.729687 
L 373.538305 -36.729687 
L 371.255024 -36.729687 
L 368.971743 -36.729687 
L 366.688462 -36.729687 
L 364.405181 -36.729687 
L 362.1219 -36.729687 
L 359.838619 -36.729687 
L 357.555338 -36.729687 
L 355.272057 -36.729687 
L 352.988776 -36.729687 
L 350.705495 -36.729687 
L 348.422214 -36.729687 
L 346.138933 -36.729687 
L 343.855652 -36.729687 
L 341.572371 -36.729687 
L 339.28909 -36.729687 
L 337.005809 -36.729687 
L 334.722528 -36.729687 
L 332.439247 -36.729687 
L 330.155966 -36.729687 
L 327.872685 -36.729687 
L 325.589404 -36.729687 
L 323.306123 -36.729687 
L 321.022842 -36.729687 
L 318.739561 -36.729687 
L 316.45628 -36.729687 
L 314.172999 -36.729687 
L 311.889718 -36.729687 
L 309.606437 -36.729687 
L 307.323156 -36.729687 
L 305.039875 -36.729687 
L 302.756594 -36.729687 
L 300.473313 -36.729687 
L 298.190032 -36.729687 
L 295.906751 -36.729687 
L 293.62347 -36.729687 
L 291.340189 -36.729687 
L 289.056908 -36.729687 
L 286.773627 -36.729687 
L 284.490346 -36.729687 
L 282.207065 -36.729687 
L 279.923784 -36.729687 
L 277.640503 -36.729687 
L 275.357222 -36.729687 
L 273.073941 -36.729687 
L 270.79066 -36.729687 
L 268.507379 -36.729687 
L 266.224098 -36.729687 
L 263.940817 -36.729687 
L 261.657536 -36.729687 
L 259.374255 -36.729687 
L 257.090974 -36.729687 
L 254.807693 -36.729687 
L 252.524412 -36.729687 
L 250.241131 -36.729687 
L 247.95785 -36.729687 
L 245.674569 -36.729687 
L 243.391288 -36.729687 
L 241.108007 -36.729687 
L 238.824726 -36.729687 
L 236.541445 -36.729687 
L 234.258164 -36.729687 
L 231.974883 -36.729687 
L 229.691602 -36.729687 
L 227.408321 -36.729687 
L 225.12504 -36.729687 
L 222.841759 -36.729687 
L 220.558478 -36.729687 
L 218.275197 -36.729687 
L 215.991916 -36.729687 
L 213.708635 -36.729687 
L 211.425354 -36.729687 
L 209.142073 -36.729687 
L 206.858792 -36.729687 
L 204.575511 -36.729687 
L 202.29223 -36.729687 
L 200.008949 -36.729687 
L 197.725668 -36.729687 
L 195.442387 -36.729687 
L 193.159106 -36.729687 
L 190.875825 -36.729687 
L 188.592544 -36.729687 
L 186.309263 -36.729687 
L 184.025982 -36.729687 
L 181.742701 -36.729687 
L 179.45942 -36.729687 
L 177.176139 -36.729687 
L 174.892858 -36.729687 
L 172.609577 -36.729687 
L 170.326296 -36.729687 
L 168.043015 -36.729687 
L 165.759734 -36.729687 
L 163.476453 -36.729687 
L 161.193172 -36.729687 
L 158.909891 -36.729687 
L 156.62661 -36.729687 
L 154.343329 -36.729687 
L 152.060048 -36.729687 
L 149.776767 -36.729687 
L 147.493486 -36.729687 
L 145.210205 -36.729687 
L 142.926924 -36.729687 
L 140.643643 -36.729687 
L 138.360362 -36.729687 
L 136.077081 -36.729687 
L 133.7938 -36.729687 
L 131.510519 -36.729687 
L 129.227238 -36.729687 
L 126.943957 -36.729687 
L 124.660676 -36.729687 
L 122.377395 -36.729687 
L 120.094114 -36.729687 
L 117.810833 -36.729687 
L 115.527552 -36.729687 
L 113.244271 -36.729687 
L 110.96099 -36.729687 
L 108.677709 -36.729687 
z
" style="stroke: #4c72b0; stroke-opacity: 0.2"/>
    </defs>
    <g>
     <use xlink:href="#mdee3021302" x="0" y="183.151437" style="fill: #4c72b0; fill-opacity: 0.2; stroke: #4c72b0; stroke-opacity: 0.2"/>
    </g>
   </g>
   <g id="FillBetweenPolyCollection_2">
    <defs>
     <path id="m9856bc477a" d="M 108.677709 -36.737975 
L 108.677709 -36.729687 
L 110.96099 -36.729687 
L 113.244271 -36.729687 
L 115.527552 -36.729687 
L 117.810833 -36.729687 
L 120.094114 -36.729687 
L 122.377395 -36.729687 
L 124.660676 -36.729687 
L 126.943957 -36.729687 
L 129.227238 -36.729687 
L 131.510519 -36.729687 
L 133.7938 -36.729687 
L 136.077081 -36.729687 
L 138.360362 -36.729687 
L 140.643643 -36.729687 
L 142.926924 -36.729687 
L 145.210205 -36.729687 
L 147.493486 -36.729687 
L 149.776767 -36.729687 
L 152.060048 -36.729687 
L 154.343329 -36.729687 
L 156.62661 -36.729687 
L 158.909891 -36.729687 
L 161.193172 -36.729687 
L 163.476453 -36.729687 
L 165.759734 -36.729687 
L 168.043015 -36.729687 
L 170.326296 -36.729687 
L 172.609577 -36.729687 
L 174.892858 -36.729687 
L 177.176139 -36.729687 
L 179.45942 -36.729687 
L 181.742701 -36.729687 
L 184.025982 -36.729687 
L 186.309263 -36.729687 
L 188.592544 -36.729687 
L 190.875825 -36.729687 
L 193.159106 -36.729687 
L 195.442387 -36.729687 
L 197.725668 -36.729687 
L 200.008949 -36.729687 
L 202.29223 -36.729687 
L 204.575511 -36.729687 
L 206.858792 -36.729687 
L 209.142073 -36.729687 
L 211.425354 -36.729687 
L 213.708635 -36.729687 
L 215.991916 -36.729687 
L 218.275197 -36.729687 
L 220.558478 -36.729687 
L 222.841759 -36.729687 
L 225.12504 -36.729687 
L 227.408321 -36.729687 
L 229.691602 -36.729687 
L 231.974883 -36.729687 
L 234.258164 -36.729687 
L 236.541445 -36.729687 
L 238.824726 -36.729687 
L 241.108007 -36.729687 
L 243.391288 -36.729687 
L 245.674569 -36.729687 
L 247.95785 -36.729687 
L 250.241131 -36.729687 
L 252.524412 -36.729687 
L 254.807693 -36.729687 
L 257.090974 -36.729687 
L 259.374255 -36.729687 
L 261.657536 -36.729687 
L 263.940817 -36.729687 
L 266.224098 -36.729687 
L 268.507379 -36.729687 
L 270.79066 -36.729687 
L 273.073941 -36.729687 
L 275.357222 -36.729687 
L 277.640503 -36.729687 
L 279.923784 -36.729687 
L 282.207065 -36.729687 
L 284.490346 -36.729687 
L 286.773627 -36.729687 
L 289.056908 -36.729687 
L 291.340189 -36.729687 
L 293.62347 -36.729687 
L 295.906751 -36.729687 
L 298.190032 -36.729687 
L 300.473313 -36.729687 
L 302.756594 -36.729687 
L 305.039875 -36.729687 
L 307.323156 -36.729687 
L 309.606437 -36.729687 
L 311.889718 -36.729687 
L 314.172999 -36.729687 
L 316.45628 -36.729687 
L 318.739561 -36.729687 
L 319.654857 -36.729687 
L 319.654857 -94.644064 
L 319.654857 -94.644064 
L 318.739561 -94.494272 
L 316.45628 -94.070228 
L 314.172999 -93.600402 
L 311.889718 -93.085973 
L 309.606437 -92.528225 
L 307.323156 -91.92854 
L 305.039875 -91.288393 
L 302.756594 -90.609347 
L 300.473313 -89.893045 
L 298.190032 -89.141205 
L 295.906751 -88.355613 
L 293.62347 -87.538114 
L 291.340189 -86.690606 
L 289.056908 -85.815034 
L 286.773627 -84.91338 
L 284.490346 -83.987659 
L 282.207065 -83.039909 
L 279.923784 -82.072182 
L 277.640503 -81.086542 
L 275.357222 -80.085052 
L 273.073941 -79.069773 
L 270.79066 -78.04275 
L 268.507379 -77.006011 
L 266.224098 -75.96156 
L 263.940817 -74.911367 
L 261.657536 -73.857366 
L 259.374255 -72.801448 
L 257.090974 -71.745455 
L 254.807693 -70.691179 
L 252.524412 -69.64035 
L 250.241131 -68.594639 
L 247.95785 -67.555652 
L 245.674569 -66.524925 
L 243.391288 -65.503923 
L 241.108007 -64.494034 
L 238.824726 -63.496572 
L 236.541445 -62.51277 
L 234.258164 -61.54378 
L 231.974883 -60.590669 
L 229.691602 -59.654422 
L 227.408321 -58.735932 
L 225.12504 -57.836004 
L 222.841759 -56.955345 
L 220.558478 -56.094563 
L 218.275197 -55.254162 
L 215.991916 -54.434529 
L 213.708635 -53.635931 
L 211.425354 -52.858498 
L 209.142073 -52.102217 
L 206.858792 -51.36692 
L 204.575511 -50.652273 
L 202.29223 -49.95777 
L 200.008949 -49.282731 
L 197.725668 -48.626314 
L 195.442387 -47.987525 
L 193.159106 -47.365255 
L 190.875825 -46.75832 
L 188.592544 -46.165521 
L 186.309263 -45.585714 
L 184.025982 -45.017893 
L 181.742701 -44.461276 
L 179.45942 -43.915386 
L 177.176139 -43.380131 
L 174.892858 -42.855858 
L 172.609577 -42.343385 
L 170.326296 -41.844001 
L 168.043015 -41.359425 
L 165.759734 -40.891736 
L 163.476453 -40.443265 
L 161.193172 -40.016458 
L 158.909891 -39.613732 
L 156.62661 -39.23731 
L 154.343329 -38.889084 
L 152.060048 -38.570485 
L 149.776767 -38.282388 
L 147.493486 -38.02506 
L 145.210205 -37.798141 
L 142.926924 -37.600673 
L 140.643643 -37.431165 
L 138.360362 -37.287678 
L 136.077081 -37.16794 
L 133.7938 -37.069461 
L 131.510519 -36.989653 
L 129.227238 -36.925936 
L 126.943957 -36.875827 
L 124.660676 -36.837017 
L 122.377395 -36.807417 
L 120.094114 -36.785187 
L 117.810833 -36.768752 
L 115.527552 -36.756789 
L 113.244271 -36.748217 
L 110.96099 -36.742171 
L 108.677709 -36.737975 
z
"/>
    </defs>
    <g>
     <use xlink:href="#m9856bc477a" x="0" y="183.151437" style="fill: #4c72b0; fill-opacity: 0.3"/>
    </g>
   </g>
   <g id="FillBetweenPolyCollection_3">
    <defs>
     <path id="m32c08ef207" d="M 108.677709 -36.737975 
L 108.677709 -36.729687 
L 110.96099 -36.729687 
L 113.244271 -36.729687 
L 115.527552 -36.729687 
L 117.810833 -36.729687 
L 120.094114 -36.729687 
L 122.377395 -36.729687 
L 124.660676 -36.729687 
L 126.943957 -36.729687 
L 129.227238 -36.729687 
L 131.510519 -36.729687 
L 133.7938 -36.729687 
L 136.077081 -36.729687 
L 138.360362 -36.729687 
L 140.643643 -36.729687 
L 142.926924 -36.729687 
L 145.210205 -36.729687 
L 147.493486 -36.729687 
L 149.776767 -36.729687 
L 152.060048 -36.729687 
L 154.343329 -36.729687 
L 156.62661 -36.729687 
L 158.909891 -36.729687 
L 161.193172 -36.729687 
L 163.476453 -36.729687 
L 165.759734 -36.729687 
L 168.043015 -36.729687 
L 170.326296 -36.729687 
L 172.609577 -36.729687 
L 174.892858 -36.729687 
L 177.176139 -36.729687 
L 179.45942 -36.729687 
L 181.742701 -36.729687 
L 184.025982 -36.729687 
L 186.309263 -36.729687 
L 188.592544 -36.729687 
L 190.875825 -36.729687 
L 193.159106 -36.729687 
L 195.442387 -36.729687 
L 197.725668 -36.729687 
L 200.008949 -36.729687 
L 202.29223 -36.729687 
L 204.575511 -36.729687 
L 206.858792 -36.729687 
L 209.142073 -36.729687 
L 211.425354 -36.729687 
L 213.708635 -36.729687 
L 215.991916 -36.729687 
L 218.275197 -36.729687 
L 220.558478 -36.729687 
L 222.841759 -36.729687 
L 225.12504 -36.729687 
L 227.408321 -36.729687 
L 229.691602 -36.729687 
L 231.974883 -36.729687 
L 234.258164 -36.729687 
L 236.541445 -36.729687 
L 238.824726 -36.729687 
L 241.108007 -36.729687 
L 243.391288 -36.729687 
L 245.674569 -36.729687 
L 247.95785 -36.729687 
L 250.241131 -36.729687 
L 252.524412 -36.729687 
L 254.807693 -36.729687 
L 257.090974 -36.729687 
L 259.374255 -36.729687 
L 261.657536 -36.729687 
L 263.940817 -36.729687 
L 266.224098 -36.729687 
L 268.507379 -36.729687 
L 270.79066 -36.729687 
L 273.073941 -36.729687 
L 275.357222 -36.729687 
L 277.640503 -36.729687 
L 279.923784 -36.729687 
L 282.207065 -36.729687 
L 284.490346 -36.729687 
L 286.773627 -36.729687 
L 289.056908 -36.729687 
L 291.340189 -36.729687 
L 293.62347 -36.729687 
L 295.906751 -36.729687 
L 298.190032 -36.729687 
L 300.473313 -36.729687 
L 302.756594 -36.729687 
L 305.039875 -36.729687 
L 307.323156 -36.729687 
L 309.606437 -36.729687 
L 311.889718 -36.729687 
L 314.172999 -36.729687 
L 316.45628 -36.729687 
L 318.739561 -36.729687 
L 321.022842 -36.729687 
L 323.306123 -36.729687 
L 325.589404 -36.729687 
L 327.872685 -36.729687 
L 330.155966 -36.729687 
L 332.439247 -36.729687 
L 334.722528 -36.729687 
L 337.005809 -36.729687 
L 339.28909 -36.729687 
L 341.572371 -36.729687 
L 343.855652 -36.729687 
L 346.138933 -36.729687 
L 348.422214 -36.729687 
L 350.705495 -36.729687 
L 352.988776 -36.729687 
L 355.272057 -36.729687 
L 357.555338 -36.729687 
L 359.838619 -36.729687 
L 362.1219 -36.729687 
L 364.405181 -36.729687 
L 366.688462 -36.729687 
L 368.971743 -36.729687 
L 371.255024 -36.729687 
L 373.538305 -36.729687 
L 375.821586 -36.729687 
L 378.104867 -36.729687 
L 380.388148 -36.729687 
L 382.671429 -36.729687 
L 384.95471 -36.729687 
L 387.237991 -36.729687 
L 389.521272 -36.729687 
L 391.804553 -36.729687 
L 394.087834 -36.729687 
L 396.371115 -36.729687 
L 398.654396 -36.729687 
L 400.937677 -36.729687 
L 403.220958 -36.729687 
L 405.504239 -36.729687 
L 407.78752 -36.729687 
L 410.070801 -36.729687 
L 412.354082 -36.729687 
L 414.637363 -36.729687 
L 416.920644 -36.729687 
L 419.203925 -36.729687 
L 421.487206 -36.729687 
L 423.770487 -36.729687 
L 426.053768 -36.729687 
L 428.337049 -36.729687 
L 430.62033 -36.729687 
L 432.903611 -36.729687 
L 435.186892 -36.729687 
L 437.470173 -36.729687 
L 439.753454 -36.729687 
L 442.036735 -36.729687 
L 444.320016 -36.729687 
L 446.603297 -36.729687 
L 448.886578 -36.729687 
L 451.169859 -36.729687 
L 453.45314 -36.729687 
L 455.736421 -36.729687 
L 458.019702 -36.729687 
L 460.302983 -36.729687 
L 462.586264 -36.729687 
L 464.869545 -36.729687 
L 467.152826 -36.729687 
L 469.436107 -36.729687 
L 471.719388 -36.729687 
L 474.002669 -36.729687 
L 476.28595 -36.729687 
L 478.569231 -36.729687 
L 480.852512 -36.729687 
L 483.135793 -36.729687 
L 485.419074 -36.729687 
L 487.702355 -36.729687 
L 487.982406 -36.729687 
L 487.982406 -45.497852 
L 487.982406 -45.497852 
L 487.702355 -45.568986 
L 485.419074 -46.167643 
L 483.135793 -46.777742 
L 480.852512 -47.400296 
L 478.569231 -48.036474 
L 476.28595 -48.687509 
L 474.002669 -49.354617 
L 471.719388 -50.03894 
L 469.436107 -50.741493 
L 467.152826 -51.463131 
L 464.869545 -52.204531 
L 462.586264 -52.966186 
L 460.302983 -53.748402 
L 458.019702 -54.551309 
L 455.736421 -55.374868 
L 453.45314 -56.218887 
L 451.169859 -57.083031 
L 448.886578 -57.966839 
L 446.603297 -58.869725 
L 444.320016 -59.790997 
L 442.036735 -60.729859 
L 439.753454 -61.685417 
L 437.470173 -62.656685 
L 435.186892 -63.64259 
L 432.903611 -64.641971 
L 430.62033 -65.653586 
L 428.337049 -66.676113 
L 426.053768 -67.708152 
L 423.770487 -68.748228 
L 421.487206 -69.794795 
L 419.203925 -70.846238 
L 416.920644 -71.900878 
L 414.637363 -72.956973 
L 412.354082 -74.012726 
L 410.070801 -75.066286 
L 407.78752 -76.115756 
L 405.504239 -77.159197 
L 403.220958 -78.194631 
L 400.937677 -79.220053 
L 398.654396 -80.233431 
L 396.371115 -81.232716 
L 394.087834 -82.215848 
L 391.804553 -83.180763 
L 389.521272 -84.125399 
L 387.237991 -85.047703 
L 384.95471 -85.945642 
L 382.671429 -86.817206 
L 380.388148 -87.660416 
L 378.104867 -88.473335 
L 375.821586 -89.254072 
L 373.538305 -90.000789 
L 371.255024 -90.711711 
L 368.971743 -91.385131 
L 366.688462 -92.019416 
L 364.405181 -92.613016 
L 362.1219 -93.164471 
L 359.838619 -93.67241 
L 357.555338 -94.135566 
L 355.272057 -94.552777 
L 352.988776 -94.922988 
L 350.705495 -95.245261 
L 348.422214 -95.518774 
L 346.138933 -95.74283 
L 343.855652 -95.916854 
L 341.572371 -96.040398 
L 339.28909 -96.113146 
L 337.005809 -96.134909 
L 334.722528 -96.105632 
L 332.439247 -96.02539 
L 330.155966 -95.89439 
L 327.872685 -95.712968 
L 325.589404 -95.481591 
L 323.306123 -95.200851 
L 321.022842 -94.871466 
L 318.739561 -94.494272 
L 316.45628 -94.070228 
L 314.172999 -93.600402 
L 311.889718 -93.085973 
L 309.606437 -92.528225 
L 307.323156 -91.92854 
L 305.039875 -91.288393 
L 302.756594 -90.609347 
L 300.473313 -89.893045 
L 298.190032 -89.141205 
L 295.906751 -88.355613 
L 293.62347 -87.538114 
L 291.340189 -86.690606 
L 289.056908 -85.815034 
L 286.773627 -84.91338 
L 284.490346 -83.987659 
L 282.207065 -83.039909 
L 279.923784 -82.072182 
L 277.640503 -81.086542 
L 275.357222 -80.085052 
L 273.073941 -79.069773 
L 270.79066 -78.04275 
L 268.507379 -77.006011 
L 266.224098 -75.96156 
L 263.940817 -74.911367 
L 261.657536 -73.857366 
L 259.374255 -72.801448 
L 257.090974 -71.745455 
L 254.807693 -70.691179 
L 252.524412 -69.64035 
L 250.241131 -68.594639 
L 247.95785 -67.555652 
L 245.674569 -66.524925 
L 243.391288 -65.503923 
L 241.108007 -64.494034 
L 238.824726 -63.496572 
L 236.541445 -62.51277 
L 234.258164 -61.54378 
L 231.974883 -60.590669 
L 229.691602 -59.654422 
L 227.408321 -58.735932 
L 225.12504 -57.836004 
L 222.841759 -56.955345 
L 220.558478 -56.094563 
L 218.275197 -55.254162 
L 215.991916 -54.434529 
L 213.708635 -53.635931 
L 211.425354 -52.858498 
L 209.142073 -52.102217 
L 206.858792 -51.36692 
L 204.575511 -50.652273 
L 202.29223 -49.95777 
L 200.008949 -49.282731 
L 197.725668 -48.626314 
L 195.442387 -47.987525 
L 193.159106 -47.365255 
L 190.875825 -46.75832 
L 188.592544 -46.165521 
L 186.309263 -45.585714 
L 184.025982 -45.017893 
L 181.742701 -44.461276 
L 179.45942 -43.915386 
L 177.176139 -43.380131 
L 174.892858 -42.855858 
L 172.609577 -42.343385 
L 170.326296 -41.844001 
L 168.043015 -41.359425 
L 165.759734 -40.891736 
L 163.476453 -40.443265 
L 161.193172 -40.016458 
L 158.909891 -39.613732 
L 156.62661 -39.23731 
L 154.343329 -38.889084 
L 152.060048 -38.570485 
L 149.776767 -38.282388 
L 147.493486 -38.02506 
L 145.210205 -37.798141 
L 142.926924 -37.600673 
L 140.643643 -37.431165 
L 138.360362 -37.287678 
L 136.077081 -37.16794 
L 133.7938 -37.069461 
L 131.510519 -36.989653 
L 129.227238 -36.925936 
L 126.943957 -36.875827 
L 124.660676 -36.837017 
L 122.377395 -36.807417 
L 120.094114 -36.785187 
L 117.810833 -36.768752 
L 115.527552 -36.756789 
L 113.244271 -36.748217 
L 110.96099 -36.742171 
L 108.677709 -36.737975 
z
"/>
    </defs>
    <g>
     <use xlink:href="#m32c08ef207" x="0" y="183.151437" style="fill: #4c72b0; fill-opacity: 0.3"/>
    </g>
   </g>
   <g id="line2d_35">
    <path d="M 108.677709 146.413463 
L 126.943957 146.27561 
L 136.077081 145.983498 
L 142.926924 145.550764 
L 149.776767 144.869049 
L 156.62661 143.914128 
L 163.476453 142.708173 
L 172.609577 140.808052 
L 184.025982 138.133544 
L 193.159106 135.786183 
L 202.29223 133.193668 
L 209.142073 131.04922 
L 215.991916 128.716908 
L 222.841759 126.196093 
L 231.974883 122.560768 
L 241.108007 118.657403 
L 252.524412 113.511088 
L 277.640503 102.064896 
L 286.773627 98.238057 
L 293.62347 95.613324 
L 300.473313 93.258393 
L 307.323156 91.222898 
L 311.889718 90.065465 
L 316.45628 89.08121 
L 321.022842 88.279972 
L 325.589404 87.669846 
L 330.155966 87.257048 
L 334.722528 87.045805 
L 339.28909 87.038292 
L 343.855652 87.234584 
L 348.422214 87.632663 
L 352.988776 88.22845 
L 357.555338 89.015871 
L 362.1219 89.986967 
L 366.688462 91.132022 
L 371.255024 92.439727 
L 378.104867 94.678102 
L 384.95471 97.205796 
L 391.804553 99.970674 
L 400.937677 103.931385 
L 414.637363 110.194464 
L 430.62033 117.497851 
L 439.753454 121.466021 
L 448.886578 125.184599 
L 455.736421 127.77657 
L 462.586264 130.185251 
L 469.436107 132.409945 
L 478.569231 135.114963 
L 487.702355 137.582451 
L 499.11876 140.417665 
L 508.251884 142.445238 
L 515.101727 143.735905 
L 521.95157 144.759057 
L 528.801413 145.489623 
L 535.651256 145.953152 
L 544.78438 146.26573 
L 556.200785 146.392882 
L 563.050628 146.412935 
L 563.050628 146.412935 
" style="fill: none; stroke: #4c72b0; stroke-width: 1.5; stroke-linecap: round"/>
   </g>
   <g id="line2d_36">
    <path d="M 319.654857 146.42175 
L 319.654857 24.45375 
" style="fill: none; stroke-dasharray: 0.8,1.32; stroke-dashoffset: 0; stroke: #d3d3d3; stroke-width: 0.8"/>
   </g>
   <g id="line2d_37">
    <path d="M 487.982406 146.42175 
L 487.982406 24.45375 
" style="fill: none; stroke-dasharray: 0.8,1.32; stroke-dashoffset: 0; stroke: #d3d3d3; stroke-width: 0.8"/>
   </g>
   <g id="line2d_38">
    <path d="M 7.2 146.42175 
L 648.9 146.42175 
" style="fill: none; stroke: #808080; stroke-width: 0.5; stroke-linecap: round"/>
   </g>
   <g id="AnnotationBbox_1">
    <g id="text_13">
     <text style="font-weight: 700; font-size: 8px; font-family: 'Arial', 'DejaVu Sans', 'Liberation Sans', 'Bitstream Vera Sans', sans-serif; text-anchor: end; fill: #808080" x="319.654857" y="12.92625" transform="rotate(-0 319.654857 12.92625)">International Poverty Line</text>
    </g>
    <g id="text_14">
     <text style="font-size: 8px; font-family: 'Arial', 'DejaVu Sans', 'Liberation Sans', 'Bitstream Vera Sans', sans-serif; text-anchor: end; fill: #808080" x="319.654857" y="22.86375" transform="rotate(-0 319.654857 22.86375)">$90 per month</text>
    </g>
   </g>
   <g id="AnnotationBbox_2">
    <g id="text_15">
     <text style="font-weight: 700; font-size: 8px; font-family: 'Arial', 'DejaVu Sans', 'Liberation Sans', 'Bitstream Vera Sans', sans-serif; text-anchor: start; fill: #808080" x="487.982406" y="12.92625" transform="rotate(-0 487.982406 12.92625)">High-income poverty line</text>
    </g>
    <g id="text_16">
     <text style="font-size: 8px; font-family: 'Arial', 'DejaVu Sans', 'Liberation Sans', 'Bitstream Vera Sans', sans-serif; text-anchor: start; fill: #808080" x="487.982406" y="22.86375" transform="rotate(-0 487.982406 22.86375)">$900 per month</text>
    </g>
   </g>
   <g id="text_17">
    <text style="font-size: 10px; font-family: 'Arial', 'DejaVu Sans', 'Liberation Sans', 'Bitstream Vera Sans', sans-serif; text-anchor: middle" x="337.078885" y="144.317062" transform="rotate(-0 337.078885 144.317062)">Sweden (1920)</text>
   </g>
  </g>
 </g>
</svg>
