<?xml version="1.0" encoding="utf-8" standalone="no"?>
<!DOCTYPE svg PUBLIC "-//W3C//DTD SVG 1.1//EN"
  "http://www.w3.org/Graphics/SVG/1.1/DTD/svg11.dtd">
<svg xmlns:xlink="http://www.w3.org/1999/xlink" width="828pt" height="158.4pt" viewBox="0 0 828 158.4" xmlns="http://www.w3.org/2000/svg" version="1.1">
 <metadata>
  <rdf:RDF xmlns:dc="http://purl.org/dc/elements/1.1/" xmlns:cc="http://creativecommons.org/ns#" xmlns:rdf="http://www.w3.org/1999/02/22-rdf-syntax-ns#">
   <cc:Work>
    <dc:type rdf:resource="http://purl.org/dc/dcmitype/StillImage"/>
    <dc:date>2025-12-05T17:50:44.415341</dc:date>
    <dc:format>image/svg+xml</dc:format>
    <dc:creator>
     <cc:Agent>
      <dc:title>Matplotlib v3.10.1, https://matplotlib.org/</dc:title>
     </cc:Agent>
    </dc:creator>
   </cc:Work>
  </rdf:RDF>
 </metadata>
 <defs>
  <style type="text/css">*{stroke-linejoin: round; stroke-linecap: butt}</style>
 </defs>
 <g id="figure_1">
  <g id="patch_1">
   <path d="M 0 158.4 
L 828 158.4 
L 828 0 
L 0 0 
z
" style="fill: #ffffff"/>
  </g>
  <g id="axes_1">
   <g id="patch_2">
    <path d="M 33.12 123.552 
L 794.88 123.552 
L 794.88 7.92 
L 33.12 7.92 
z
" style="fill: #ffffff"/>
   </g>
   <g id="matplotlib.axis_1">
    <g id="xtick_1">
     <g id="line2d_1">
      <defs>
       <path id="me4f2e0e934" d="M 0 0 
L 0 3.5 
" style="stroke: #262626; stroke-width: 0.8"/>
      </defs>
      <g>
       <use xlink:href="#me4f2e0e934" x="295.436817" y="123.552" style="fill: #262626; stroke: #262626; stroke-width: 0.8"/>
      </g>
     </g>
     <g id="text_1">
      <text style="font-size: 10px; font-family: 'Arial', 'DejaVu Sans', 'Liberation Sans', 'Bitstream Vera Sans', sans-serif; text-anchor: middle; fill: #262626" x="295.436817" y="137.709812" transform="rotate(-0 295.436817 137.709812)">$1</text>
     </g>
    </g>
    <g id="xtick_2">
     <g id="line2d_2">
      <g>
       <use xlink:href="#me4f2e0e934" x="356.131213" y="123.552" style="fill: #262626; stroke: #262626; stroke-width: 0.8"/>
      </g>
     </g>
     <g id="text_2">
      <text style="font-size: 10px; font-family: 'Arial', 'DejaVu Sans', 'Liberation Sans', 'Bitstream Vera Sans', sans-serif; text-anchor: middle; fill: #262626" x="356.131213" y="137.709812" transform="rotate(-0 356.131213 137.709812)">$2</text>
     </g>
    </g>
    <g id="xtick_3">
     <g id="line2d_3">
      <g>
       <use xlink:href="#me4f2e0e934" x="436.364841" y="123.552" style="fill: #262626; stroke: #262626; stroke-width: 0.8"/>
      </g>
     </g>
     <g id="text_3">
      <text style="font-size: 10px; font-family: 'Arial', 'DejaVu Sans', 'Liberation Sans', 'Bitstream Vera Sans', sans-serif; text-anchor: middle; fill: #262626" x="436.364841" y="137.709812" transform="rotate(-0 436.364841 137.709812)">$5</text>
     </g>
    </g>
    <g id="xtick_4">
     <g id="line2d_4">
      <g>
       <use xlink:href="#me4f2e0e934" x="497.059237" y="123.552" style="fill: #262626; stroke: #262626; stroke-width: 0.8"/>
      </g>
     </g>
     <g id="text_4">
      <text style="font-size: 10px; font-family: 'Arial', 'DejaVu Sans', 'Liberation Sans', 'Bitstream Vera Sans', sans-serif; text-anchor: middle; fill: #262626" x="497.059237" y="137.709812" transform="rotate(-0 497.059237 137.709812)">$10</text>
     </g>
    </g>
    <g id="xtick_5">
     <g id="line2d_5">
      <g>
       <use xlink:href="#me4f2e0e934" x="557.753634" y="123.552" style="fill: #262626; stroke: #262626; stroke-width: 0.8"/>
      </g>
     </g>
     <g id="text_5">
      <text style="font-size: 10px; font-family: 'Arial', 'DejaVu Sans', 'Liberation Sans', 'Bitstream Vera Sans', sans-serif; text-anchor: middle; fill: #262626" x="557.753634" y="137.709812" transform="rotate(-0 557.753634 137.709812)">$20</text>
     </g>
    </g>
    <g id="xtick_6">
     <g id="line2d_6">
      <g>
       <use xlink:href="#me4f2e0e934" x="637.987261" y="123.552" style="fill: #262626; stroke: #262626; stroke-width: 0.8"/>
      </g>
     </g>
     <g id="text_6">
      <text style="font-size: 10px; font-family: 'Arial', 'DejaVu Sans', 'Liberation Sans', 'Bitstream Vera Sans', sans-serif; text-anchor: middle; fill: #262626" x="637.987261" y="137.709812" transform="rotate(-0 637.987261 137.709812)">$50</text>
     </g>
    </g>
    <g id="xtick_7">
     <g id="line2d_7">
      <g>
       <use xlink:href="#me4f2e0e934" x="698.681658" y="123.552" style="fill: #262626; stroke: #262626; stroke-width: 0.8"/>
      </g>
     </g>
     <g id="text_7">
      <text style="font-size: 10px; font-family: 'Arial', 'DejaVu Sans', 'Liberation Sans', 'Bitstream Vera Sans', sans-serif; text-anchor: middle; fill: #262626" x="698.681658" y="137.709812" transform="rotate(-0 698.681658 137.709812)">$100</text>
     </g>
    </g>
    <g id="xtick_8">
     <g id="line2d_8">
      <g>
       <use xlink:href="#me4f2e0e934" x="759.376054" y="123.552" style="fill: #262626; stroke: #262626; stroke-width: 0.8"/>
      </g>
     </g>
     <g id="text_8">
      <text style="font-size: 10px; font-family: 'Arial', 'DejaVu Sans', 'Liberation Sans', 'Bitstream Vera Sans', sans-serif; text-anchor: middle; fill: #262626" x="759.376054" y="137.709812" transform="rotate(-0 759.376054 137.709812)">$200</text>
     </g>
    </g>
    <g id="xtick_9">
     <g id="line2d_9">
      <defs>
       <path id="mbab3644077" d="M 0 0 
L 0 2 
" style="stroke: #262626; stroke-width: 0.6"/>
      </defs>
      <g>
       <use xlink:href="#mbab3644077" x="33.12" y="123.552" style="fill: #262626; stroke: #262626; stroke-width: 0.6"/>
      </g>
     </g>
    </g>
    <g id="xtick_10">
     <g id="line2d_10">
      <g>
       <use xlink:href="#mbab3644077" x="49.084714" y="123.552" style="fill: #262626; stroke: #262626; stroke-width: 0.6"/>
      </g>
     </g>
    </g>
    <g id="xtick_11">
     <g id="line2d_11">
      <g>
       <use xlink:href="#mbab3644077" x="62.582688" y="123.552" style="fill: #262626; stroke: #262626; stroke-width: 0.6"/>
      </g>
     </g>
    </g>
    <g id="xtick_12">
     <g id="line2d_12">
      <g>
       <use xlink:href="#mbab3644077" x="74.275165" y="123.552" style="fill: #262626; stroke: #262626; stroke-width: 0.6"/>
      </g>
     </g>
    </g>
    <g id="xtick_13">
     <g id="line2d_13">
      <g>
       <use xlink:href="#mbab3644077" x="84.58866" y="123.552" style="fill: #262626; stroke: #262626; stroke-width: 0.6"/>
      </g>
     </g>
    </g>
    <g id="xtick_14">
     <g id="line2d_14">
      <g>
       <use xlink:href="#mbab3644077" x="154.508793" y="123.552" style="fill: #262626; stroke: #262626; stroke-width: 0.6"/>
      </g>
     </g>
    </g>
    <g id="xtick_15">
     <g id="line2d_15">
      <g>
       <use xlink:href="#mbab3644077" x="190.012739" y="123.552" style="fill: #262626; stroke: #262626; stroke-width: 0.6"/>
      </g>
     </g>
    </g>
    <g id="xtick_16">
     <g id="line2d_16">
      <g>
       <use xlink:href="#mbab3644077" x="215.203189" y="123.552" style="fill: #262626; stroke: #262626; stroke-width: 0.6"/>
      </g>
     </g>
    </g>
    <g id="xtick_17">
     <g id="line2d_17">
      <g>
       <use xlink:href="#mbab3644077" x="234.74242" y="123.552" style="fill: #262626; stroke: #262626; stroke-width: 0.6"/>
      </g>
     </g>
    </g>
    <g id="xtick_18">
     <g id="line2d_18">
      <g>
       <use xlink:href="#mbab3644077" x="250.707135" y="123.552" style="fill: #262626; stroke: #262626; stroke-width: 0.6"/>
      </g>
     </g>
    </g>
    <g id="xtick_19">
     <g id="line2d_19">
      <g>
       <use xlink:href="#mbab3644077" x="264.205109" y="123.552" style="fill: #262626; stroke: #262626; stroke-width: 0.6"/>
      </g>
     </g>
    </g>
    <g id="xtick_20">
     <g id="line2d_20">
      <g>
       <use xlink:href="#mbab3644077" x="275.897585" y="123.552" style="fill: #262626; stroke: #262626; stroke-width: 0.6"/>
      </g>
     </g>
    </g>
    <g id="xtick_21">
     <g id="line2d_21">
      <g>
       <use xlink:href="#mbab3644077" x="286.211081" y="123.552" style="fill: #262626; stroke: #262626; stroke-width: 0.6"/>
      </g>
     </g>
    </g>
    <g id="xtick_22">
     <g id="line2d_22">
      <g>
       <use xlink:href="#mbab3644077" x="391.635159" y="123.552" style="fill: #262626; stroke: #262626; stroke-width: 0.6"/>
      </g>
     </g>
    </g>
    <g id="xtick_23">
     <g id="line2d_23">
      <g>
       <use xlink:href="#mbab3644077" x="416.82561" y="123.552" style="fill: #262626; stroke: #262626; stroke-width: 0.6"/>
      </g>
     </g>
    </g>
    <g id="xtick_24">
     <g id="line2d_24">
      <g>
       <use xlink:href="#mbab3644077" x="452.329555" y="123.552" style="fill: #262626; stroke: #262626; stroke-width: 0.6"/>
      </g>
     </g>
    </g>
    <g id="xtick_25">
     <g id="line2d_25">
      <g>
       <use xlink:href="#mbab3644077" x="465.827529" y="123.552" style="fill: #262626; stroke: #262626; stroke-width: 0.6"/>
      </g>
     </g>
    </g>
    <g id="xtick_26">
     <g id="line2d_26">
      <g>
       <use xlink:href="#mbab3644077" x="477.520006" y="123.552" style="fill: #262626; stroke: #262626; stroke-width: 0.6"/>
      </g>
     </g>
    </g>
    <g id="xtick_27">
     <g id="line2d_27">
      <g>
       <use xlink:href="#mbab3644077" x="487.833501" y="123.552" style="fill: #262626; stroke: #262626; stroke-width: 0.6"/>
      </g>
     </g>
    </g>
    <g id="xtick_28">
     <g id="line2d_28">
      <g>
       <use xlink:href="#mbab3644077" x="593.25758" y="123.552" style="fill: #262626; stroke: #262626; stroke-width: 0.6"/>
      </g>
     </g>
    </g>
    <g id="xtick_29">
     <g id="line2d_29">
      <g>
       <use xlink:href="#mbab3644077" x="618.44803" y="123.552" style="fill: #262626; stroke: #262626; stroke-width: 0.6"/>
      </g>
     </g>
    </g>
    <g id="xtick_30">
     <g id="line2d_30">
      <g>
       <use xlink:href="#mbab3644077" x="653.951976" y="123.552" style="fill: #262626; stroke: #262626; stroke-width: 0.6"/>
      </g>
     </g>
    </g>
    <g id="xtick_31">
     <g id="line2d_31">
      <g>
       <use xlink:href="#mbab3644077" x="667.44995" y="123.552" style="fill: #262626; stroke: #262626; stroke-width: 0.6"/>
      </g>
     </g>
    </g>
    <g id="xtick_32">
     <g id="line2d_32">
      <g>
       <use xlink:href="#mbab3644077" x="679.142426" y="123.552" style="fill: #262626; stroke: #262626; stroke-width: 0.6"/>
      </g>
     </g>
    </g>
    <g id="xtick_33">
     <g id="line2d_33">
      <g>
       <use xlink:href="#mbab3644077" x="689.455922" y="123.552" style="fill: #262626; stroke: #262626; stroke-width: 0.6"/>
      </g>
     </g>
    </g>
    <g id="xtick_34">
     <g id="line2d_34">
      <g>
       <use xlink:href="#mbab3644077" x="794.88" y="123.552" style="fill: #262626; stroke: #262626; stroke-width: 0.6"/>
      </g>
     </g>
    </g>
    <g id="text_9">
     <text style="font-size: 10px; font-family: 'Arial', 'DejaVu Sans', 'Liberation Sans', 'Bitstream Vera Sans', sans-serif; text-anchor: middle; fill: #262626" x="414" y="150.977" transform="rotate(-0 414 150.977)">Income or consumption (day)</text>
    </g>
   </g>
   <g id="matplotlib.axis_2"/>
   <g id="FillBetweenPolyCollection_1">
    <defs>
     <path id="mf1971a7213" d="M 414.56027 -34.848 
L 414.56027 -34.852775 
L 414.928934 -34.853255 
L 415.297598 -34.853777 
L 415.666261 -34.854345 
L 416.034925 -34.854962 
L 416.403589 -34.855631 
L 416.772253 -34.856357 
L 417.140917 -34.857143 
L 417.509581 -34.857993 
L 417.878244 -34.858912 
L 418.246908 -34.859904 
L 418.615572 -34.860974 
L 418.984236 -34.862126 
L 419.3529 -34.863366 
L 419.721563 -34.864698 
L 420.090227 -34.866129 
L 420.458891 -34.867664 
L 420.827555 -34.869309 
L 421.196219 -34.871069 
L 421.564883 -34.872951 
L 421.933546 -34.874962 
L 422.30221 -34.877106 
L 422.670874 -34.879392 
L 423.039538 -34.881826 
L 423.408202 -34.884415 
L 423.776865 -34.887165 
L 424.145529 -34.890084 
L 424.514193 -34.893179 
L 424.882857 -34.896456 
L 425.251521 -34.899924 
L 425.620185 -34.903588 
L 425.988848 -34.907457 
L 426.357512 -34.911537 
L 426.726176 -34.915836 
L 427.09484 -34.92036 
L 427.463504 -34.925116 
L 427.832167 -34.930111 
L 428.200831 -34.935351 
L 428.569495 -34.940844 
L 428.938159 -34.946594 
L 429.306823 -34.952608 
L 429.675486 -34.958892 
L 430.04415 -34.965451 
L 430.412814 -34.97229 
L 430.781478 -34.979413 
L 431.150142 -34.986825 
L 431.518806 -34.99453 
L 431.887469 -35.002531 
L 432.256133 -35.010831 
L 432.624797 -35.019434 
L 432.993461 -35.028341 
L 433.362125 -35.037553 
L 433.730788 -35.047072 
L 434.099452 -35.056899 
L 434.468116 -35.067033 
L 434.83678 -35.077475 
L 435.205444 -35.088222 
L 435.574108 -35.099274 
L 435.942771 -35.110629 
L 436.311435 -35.122283 
L 436.680099 -35.134235 
L 437.048763 -35.146479 
L 437.417427 -35.159012 
L 437.78609 -35.171828 
L 438.154754 -35.184924 
L 438.523418 -35.198293 
L 438.892082 -35.211928 
L 439.260746 -35.225824 
L 439.62941 -35.239974 
L 439.998073 -35.254369 
L 440.366737 -35.269002 
L 440.735401 -35.283866 
L 441.104065 -35.298951 
L 441.472729 -35.31425 
L 441.841392 -35.329752 
L 442.210056 -35.34545 
L 442.57872 -35.361334 
L 442.947384 -35.377394 
L 443.316048 -35.393621 
L 443.684712 -35.410006 
L 444.053375 -35.426539 
L 444.422039 -35.443211 
L 444.790703 -35.460011 
L 445.159367 -35.476931 
L 445.528031 -35.493961 
L 445.896694 -35.511091 
L 446.265358 -35.528314 
L 446.634022 -35.545619 
L 447.002686 -35.562998 
L 447.37135 -35.580442 
L 447.740014 -35.597943 
L 448.108677 -35.615494 
L 448.477341 -35.633084 
L 448.846005 -35.650708 
L 449.214669 -35.668358 
L 449.583333 -35.686026 
L 449.951996 -35.703706 
L 450.32066 -35.72139 
L 450.689324 -35.739073 
L 451.057988 -35.756747 
L 451.426652 -35.774408 
L 451.795315 -35.792048 
L 452.163979 -35.809662 
L 452.532643 -35.827244 
L 452.901307 -35.84479 
L 453.269971 -35.862294 
L 453.638635 -35.87975 
L 454.007298 -35.897153 
L 454.375962 -35.914498 
L 454.744626 -35.931781 
L 455.11329 -35.948996 
L 455.481954 -35.966138 
L 455.850617 -35.983201 
L 456.219281 -36.000181 
L 456.587945 -36.017073 
L 456.956609 -36.033871 
L 457.325273 -36.050569 
L 457.693937 -36.067162 
L 458.0626 -36.083645 
L 458.431264 -36.100011 
L 458.799928 -36.116255 
L 459.168592 -36.132371 
L 459.537256 -36.148351 
L 459.905919 -36.16419 
L 460.274583 -36.179882 
L 460.643247 -36.195418 
L 461.011911 -36.210794 
L 461.380575 -36.226001 
L 461.749239 -36.241033 
L 462.117902 -36.255883 
L 462.486566 -36.270543 
L 462.85523 -36.285006 
L 463.223894 -36.299266 
L 463.592558 -36.313315 
L 463.961221 -36.327146 
L 464.329885 -36.340752 
L 464.698549 -36.354127 
L 465.067213 -36.367264 
L 465.435877 -36.380156 
L 465.804541 -36.392798 
L 466.173204 -36.405183 
L 466.541868 -36.417306 
L 466.910532 -36.429163 
L 467.279196 -36.440748 
L 467.64786 -36.452058 
L 468.016523 -36.463088 
L 468.385187 -36.473835 
L 468.753851 -36.484298 
L 469.122515 -36.494474 
L 469.491179 -36.504362 
L 469.859843 -36.513961 
L 470.228506 -36.523272 
L 470.59717 -36.532294 
L 470.965834 -36.541031 
L 471.334498 -36.549484 
L 471.703162 -36.557656 
L 472.071825 -36.565552 
L 472.440489 -36.573176 
L 472.809153 -36.580534 
L 473.177817 -36.587632 
L 473.546481 -36.594478 
L 473.915145 -36.601079 
L 474.283808 -36.607445 
L 474.652472 -36.613584 
L 475.021136 -36.619508 
L 475.3898 -36.625227 
L 475.758464 -36.630753 
L 476.127127 -36.636098 
L 476.495791 -36.641277 
L 476.864455 -36.646302 
L 477.233119 -36.651188 
L 477.601783 -36.655949 
L 477.970446 -36.660601 
L 478.33911 -36.66516 
L 478.707774 -36.669642 
L 479.076438 -36.674064 
L 479.445102 -36.678442 
L 479.813766 -36.682793 
L 480.182429 -36.687134 
L 480.551093 -36.691484 
L 480.919757 -36.69586 
L 481.288421 -36.700279 
L 481.657085 -36.704758 
L 482.025748 -36.709316 
L 482.394412 -36.71397 
L 482.763076 -36.718737 
L 483.13174 -36.723635 
L 483.500404 -36.728679 
L 483.869068 -36.733887 
L 484.237731 -36.739276 
L 484.606395 -36.74486 
L 484.975059 -36.750656 
L 485.343723 -36.75668 
L 485.712387 -36.762945 
L 486.08105 -36.769466 
L 486.449714 -36.776257 
L 486.818378 -36.783331 
L 487.187042 -36.790701 
L 487.555706 -36.798379 
L 487.92437 -36.806378 
L 488.293033 -36.814707 
L 488.661697 -36.823379 
L 489.030361 -36.832403 
L 489.399025 -36.841788 
L 489.767689 -36.851544 
L 490.136352 -36.861679 
L 490.505016 -36.872201 
L 490.87368 -36.883117 
L 491.242344 -36.894434 
L 491.611008 -36.906159 
L 491.979672 -36.918297 
L 492.348335 -36.930854 
L 492.716999 -36.943835 
L 493.085663 -36.957244 
L 493.454327 -36.971085 
L 493.822991 -36.985363 
L 494.191654 -37.00008 
L 494.560318 -37.01524 
L 494.928982 -37.030846 
L 495.297646 -37.0469 
L 495.66631 -37.063405 
L 496.034974 -37.080362 
L 496.403637 -37.097775 
L 496.772301 -37.115644 
L 497.140965 -37.133972 
L 497.509629 -37.152761 
L 497.878293 -37.172013 
L 498.246956 -37.191729 
L 498.61562 -37.211912 
L 498.984284 -37.232564 
L 499.352948 -37.253688 
L 499.721612 -37.275286 
L 500.090276 -37.297361 
L 500.458939 -37.319917 
L 500.827603 -37.342958 
L 501.196267 -37.366487 
L 501.564931 -37.39051 
L 501.933595 -37.415032 
L 502.302258 -37.440059 
L 502.670922 -37.465598 
L 503.039586 -37.491656 
L 503.40825 -37.51824 
L 503.776914 -37.54536 
L 504.145577 -37.573025 
L 504.514241 -37.601247 
L 504.882905 -37.630036 
L 505.251569 -37.659404 
L 505.620233 -37.689366 
L 505.988897 -37.719936 
L 506.35756 -37.751128 
L 506.726224 -37.78296 
L 507.094888 -37.815449 
L 507.463552 -37.848613 
L 507.832216 -37.882472 
L 508.200879 -37.917047 
L 508.569543 -37.95236 
L 508.938207 -37.988433 
L 509.306871 -38.02529 
L 509.675535 -38.062956 
L 510.044199 -38.101456 
L 510.412862 -38.140817 
L 510.781526 -38.181067 
L 511.15019 -38.222233 
L 511.518854 -38.264345 
L 511.887518 -38.307431 
L 512.256181 -38.351523 
L 512.624845 -38.396651 
L 512.993509 -38.442846 
L 513.362173 -38.490138 
L 513.730837 -38.538559 
L 514.099501 -38.588141 
L 514.468164 -38.638915 
L 514.836828 -38.690913 
L 515.205492 -38.744164 
L 515.574156 -38.798701 
L 515.94282 -38.854551 
L 516.311483 -38.911746 
L 516.680147 -38.970312 
L 517.048811 -39.030278 
L 517.417475 -39.091669 
L 517.786139 -39.154512 
L 518.154803 -39.218829 
L 518.523466 -39.284643 
L 518.89213 -39.351975 
L 519.260794 -39.420843 
L 519.629458 -39.491265 
L 519.998122 -39.563256 
L 520.366785 -39.636828 
L 520.735449 -39.711994 
L 521.104113 -39.788762 
L 521.472777 -39.867139 
L 521.841441 -39.947129 
L 522.210105 -40.028734 
L 522.578768 -40.111953 
L 522.947432 -40.196784 
L 523.316096 -40.283221 
L 523.68476 -40.371256 
L 524.053424 -40.46088 
L 524.422087 -40.552079 
L 524.790751 -40.644839 
L 525.159415 -40.739142 
L 525.528079 -40.834968 
L 525.896743 -40.932295 
L 526.265406 -41.0311 
L 526.63407 -41.131357 
L 527.002734 -41.233036 
L 527.371398 -41.33611 
L 527.740062 -41.440545 
L 528.108726 -41.54631 
L 528.477389 -41.653368 
L 528.846053 -41.761686 
L 529.214717 -41.871225 
L 529.583381 -41.981948 
L 529.952045 -42.093815 
L 530.320708 -42.206789 
L 530.689372 -42.320828 
L 531.058036 -42.435892 
L 531.4267 -42.551942 
L 531.795364 -42.668936 
L 532.164028 -42.786835 
L 532.532691 -42.905598 
L 532.901355 -43.025185 
L 533.270019 -43.145559 
L 533.638683 -43.26668 
L 534.007347 -43.388512 
L 534.37601 -43.511017 
L 534.744674 -43.634162 
L 535.113338 -43.75791 
L 535.482002 -43.88223 
L 535.850666 -44.00709 
L 536.21933 -44.13246 
L 536.587993 -44.258311 
L 536.956657 -44.384616 
L 537.325321 -44.511349 
L 537.693985 -44.638486 
L 538.062649 -44.766005 
L 538.431312 -44.893883 
L 538.799976 -45.022103 
L 539.16864 -45.150644 
L 539.537304 -45.279492 
L 539.905968 -45.40863 
L 540.274632 -45.538045 
L 540.643295 -45.667723 
L 541.011959 -45.797654 
L 541.380623 -45.927827 
L 541.749287 -46.058231 
L 542.117951 -46.18886 
L 542.486614 -46.319705 
L 542.855278 -46.45076 
L 543.223942 -46.582017 
L 543.592606 -46.713473 
L 543.96127 -46.845121 
L 544.329934 -46.976956 
L 544.698597 -47.108975 
L 545.067261 -47.241174 
L 545.435925 -47.373548 
L 545.804589 -47.506094 
L 546.173253 -47.638807 
L 546.541916 -47.771686 
L 546.91058 -47.904725 
L 547.279244 -48.037921 
L 547.647908 -48.171272 
L 548.016572 -48.304772 
L 548.385236 -48.43842 
L 548.753899 -48.572211 
L 549.122563 -48.706142 
L 549.491227 -48.840209 
L 549.859891 -48.974411 
L 550.228555 -49.108743 
L 550.597218 -49.243205 
L 550.965882 -49.377793 
L 551.334546 -49.512507 
L 551.70321 -49.647347 
L 552.071874 -49.782311 
L 552.440537 -49.917402 
L 552.809201 -50.052621 
L 553.177865 -50.187972 
L 553.546529 -50.323459 
L 553.915193 -50.459089 
L 554.283857 -50.594869 
L 554.65252 -50.730809 
L 555.021184 -50.866919 
L 555.389848 -51.003214 
L 555.758512 -51.139707 
L 556.127176 -51.276417 
L 556.495839 -51.413363 
L 556.864503 -51.550568 
L 557.233167 -51.688055 
L 557.601831 -51.825853 
L 557.970495 -51.96399 
L 558.339159 -52.102499 
L 558.707822 -52.241416 
L 559.076486 -52.380776 
L 559.44515 -52.520622 
L 559.813814 -52.660995 
L 560.182478 -52.801941 
L 560.551141 -52.943508 
L 560.919805 -53.085746 
L 561.288469 -53.228707 
L 561.657133 -53.372448 
L 562.025797 -53.517024 
L 562.394461 -53.662494 
L 562.763124 -53.80892 
L 563.131788 -53.956363 
L 563.500452 -54.104887 
L 563.869116 -54.254557 
L 564.23778 -54.405438 
L 564.606443 -54.557598 
L 564.975107 -54.711102 
L 565.343771 -54.866019 
L 565.712435 -55.022417 
L 566.081099 -55.18036 
L 566.449763 -55.339918 
L 566.818426 -55.501154 
L 567.18709 -55.664135 
L 567.555754 -55.828923 
L 567.924418 -55.995581 
L 568.293082 -56.164168 
L 568.661745 -56.334743 
L 569.030409 -56.507363 
L 569.399073 -56.68208 
L 569.767737 -56.858946 
L 570.136401 -57.038008 
L 570.505065 -57.219313 
L 570.873728 -57.402902 
L 571.242392 -57.588815 
L 571.611056 -57.777086 
L 571.97972 -57.967749 
L 572.348384 -58.160832 
L 572.717047 -58.35636 
L 573.085711 -58.554356 
L 573.454375 -58.754838 
L 573.823039 -58.957822 
L 574.191703 -59.163318 
L 574.560366 -59.371336 
L 574.92903 -59.581882 
L 575.297694 -59.794959 
L 575.666358 -60.010566 
L 576.035022 -60.228702 
L 576.403686 -60.449362 
L 576.772349 -60.672539 
L 577.141013 -60.898226 
L 577.509677 -61.126413 
L 577.878341 -61.35709 
L 578.247005 -61.590245 
L 578.615668 -61.825867 
L 578.984332 -62.063945 
L 579.352996 -62.304467 
L 579.72166 -62.547424 
L 580.090324 -62.792806 
L 580.458988 -63.040607 
L 580.827651 -63.290821 
L 581.196315 -63.543445 
L 581.564979 -63.798479 
L 581.933643 -64.055927 
L 582.302307 -64.315795 
L 582.67097 -64.578094 
L 583.039634 -64.842839 
L 583.408298 -65.11005 
L 583.776962 -65.379752 
L 584.145626 -65.651975 
L 584.51429 -65.926754 
L 584.882953 -66.204132 
L 585.251617 -66.484155 
L 585.620281 -66.766877 
L 585.988945 -67.052359 
L 586.357609 -67.340667 
L 586.726272 -67.631874 
L 587.094936 -67.926061 
L 587.4636 -68.223313 
L 587.832264 -68.523725 
L 588.200928 -68.827395 
L 588.569592 -69.134431 
L 588.938255 -69.444944 
L 589.306919 -69.759055 
L 589.675583 -70.076887 
L 590.044247 -70.398571 
L 590.412911 -70.724244 
L 590.781574 -71.054047 
L 591.150238 -71.388125 
L 591.518902 -71.72663 
L 591.887566 -72.069714 
L 592.25623 -72.417537 
L 592.624894 -72.770258 
L 592.993557 -73.128042 
L 593.362221 -73.491053 
L 593.730885 -73.859459 
L 594.099549 -74.233427 
L 594.468213 -74.613124 
L 594.836876 -74.998718 
L 595.20554 -75.390376 
L 595.574204 -75.788262 
L 595.942868 -76.192539 
L 596.311532 -76.603367 
L 596.680196 -77.020901 
L 597.048859 -77.445293 
L 597.417523 -77.87669 
L 597.786187 -78.315233 
L 598.154851 -78.761059 
L 598.523515 -79.214294 
L 598.892178 -79.67506 
L 599.260842 -80.143469 
L 599.629506 -80.619627 
L 599.99817 -81.103629 
L 600.366834 -81.595559 
L 600.735497 -82.095494 
L 601.104161 -82.603497 
L 601.472825 -83.119622 
L 601.841489 -83.643912 
L 602.210153 -84.176396 
L 602.578817 -84.71709 
L 602.94748 -85.266002 
L 603.316144 -85.823121 
L 603.684808 -86.388426 
L 604.053472 -86.961883 
L 604.422136 -87.543442 
L 604.790799 -88.133042 
L 605.159463 -88.730605 
L 605.528127 -89.336042 
L 605.896791 -89.949247 
L 606.265455 -90.570102 
L 606.634119 -91.198474 
L 607.002782 -91.834216 
L 607.371446 -92.477168 
L 607.74011 -93.127156 
L 608.108774 -93.783992 
L 608.477438 -94.447475 
L 608.846101 -95.117392 
L 609.214765 -95.793515 
L 609.583429 -96.475606 
L 609.952093 -97.163415 
L 610.320757 -97.856678 
L 610.689421 -98.555122 
L 611.058084 -99.258462 
L 611.426748 -99.966406 
L 611.795412 -100.678648 
L 612.164076 -101.394875 
L 612.53274 -102.114767 
L 612.901403 -102.837992 
L 613.270067 -103.564215 
L 613.638731 -104.293092 
L 614.007395 -105.024273 
L 614.376059 -105.757403 
L 614.744723 -106.492122 
L 615.113386 -107.228067 
L 615.48205 -107.964869 
L 615.850714 -108.702161 
L 616.219378 -109.439568 
L 616.588042 -110.176719 
L 616.956705 -110.913239 
L 617.325369 -111.648755 
L 617.694033 -112.382894 
L 618.062697 -113.115284 
L 618.431361 -113.845556 
L 618.800025 -114.573342 
L 619.168688 -115.29828 
L 619.537352 -116.02001 
L 619.906016 -116.738177 
L 620.27468 -117.452431 
L 620.643344 -118.162427 
L 621.012007 -118.867828 
L 621.380671 -119.568301 
L 621.749335 -120.263522 
L 622.117999 -120.953174 
L 622.486663 -121.636947 
L 622.855327 -122.314539 
L 623.22399 -122.985657 
L 623.592654 -123.650018 
L 623.961318 -124.307345 
L 624.329982 -124.957371 
L 624.698646 -125.59984 
L 625.067309 -126.234502 
L 625.435973 -126.86112 
L 625.804637 -127.479463 
L 626.173301 -128.089311 
L 626.541965 -128.690453 
L 626.910628 -129.282686 
L 627.279292 -129.865818 
L 627.647956 -130.439664 
L 628.01662 -131.004049 
L 628.385284 -131.558804 
L 628.753948 -132.103772 
L 629.122611 -132.638799 
L 629.491275 -133.163743 
L 629.859939 -133.678467 
L 630.228603 -134.182841 
L 630.597267 -134.676741 
L 630.96593 -135.160051 
L 631.334594 -135.63266 
L 631.703258 -136.094461 
L 632.071922 -136.545354 
L 632.440586 -136.985244 
L 632.80925 -137.41404 
L 633.177913 -137.831654 
L 633.546577 -138.238004 
L 633.915241 -138.63301 
L 634.283905 -139.016596 
L 634.652569 -139.38869 
L 635.021232 -139.749222 
L 635.389896 -140.098126 
L 635.75856 -140.435337 
L 636.127224 -140.760793 
L 636.495888 -141.074437 
L 636.864552 -141.376212 
L 637.233215 -141.666064 
L 637.601879 -141.943944 
L 637.970543 -142.209802 
L 638.339207 -142.463593 
L 638.707871 -142.705277 
L 639.076534 -142.934814 
L 639.445198 -143.152169 
L 639.813862 -143.357312 
L 640.182526 -143.550215 
L 640.55119 -143.730856 
L 640.919854 -143.899217 
L 641.288517 -144.055287 
L 641.657181 -144.199058 
L 642.025845 -144.33053 
L 642.394509 -144.449708 
L 642.763173 -144.556605 
L 643.131836 -144.65124 
L 643.5005 -144.733641 
L 643.869164 -144.803843 
L 644.237828 -144.86189 
L 644.606492 -144.907835 
L 644.975156 -144.941738 
L 645.343819 -144.963671 
L 645.712483 -144.973714 
L 646.081147 -144.971958 
L 646.449811 -144.958504 
L 646.818475 -144.933462 
L 647.187138 -144.896954 
L 647.555802 -144.849112 
L 647.924466 -144.790078 
L 648.29313 -144.720005 
L 648.661794 -144.639057 
L 649.030457 -144.547407 
L 649.399121 -144.44524 
L 649.767785 -144.33275 
L 650.136449 -144.21014 
L 650.505113 -144.077624 
L 650.873777 -143.935425 
L 651.24244 -143.783772 
L 651.611104 -143.622906 
L 651.979768 -143.453073 
L 652.348432 -143.274528 
L 652.717096 -143.08753 
L 653.085759 -142.892348 
L 653.454423 -142.689252 
L 653.823087 -142.47852 
L 654.191751 -142.260432 
L 654.560415 -142.035273 
L 654.929079 -141.803329 
L 655.297742 -141.564888 
L 655.666406 -141.32024 
L 656.03507 -141.069674 
L 656.403734 -140.813481 
L 656.772398 -140.551947 
L 657.141061 -140.28536 
L 657.509725 -140.014003 
L 657.878389 -139.738155 
L 658.247053 -139.458094 
L 658.615717 -139.17409 
L 658.984381 -138.88641 
L 659.353044 -138.595312 
L 659.721708 -138.301051 
L 660.090372 -138.003872 
L 660.459036 -137.704013 
L 660.8277 -137.401705 
L 661.196363 -137.097168 
L 661.565027 -136.790615 
L 661.933691 -136.482248 
L 662.302355 -136.172261 
L 662.671019 -135.860834 
L 663.039683 -135.548141 
L 663.408346 -135.234342 
L 663.77701 -134.919589 
L 664.145674 -134.604019 
L 664.514338 -134.287763 
L 664.883002 -133.970935 
L 665.251665 -133.653643 
L 665.620329 -133.33598 
L 665.988993 -133.018029 
L 666.357657 -132.699862 
L 666.726321 -132.381538 
L 667.094985 -132.063109 
L 667.463648 -131.74461 
L 667.832312 -131.426071 
L 668.200976 -131.107508 
L 668.56964 -130.788928 
L 668.938304 -130.470325 
L 669.306967 -130.151687 
L 669.675631 -129.83299 
L 670.044295 -129.5142 
L 670.412959 -129.195275 
L 670.781623 -128.876163 
L 671.150287 -128.556805 
L 671.51895 -128.237132 
L 671.887614 -127.917067 
L 672.256278 -127.596527 
L 672.624942 -127.275419 
L 672.993606 -126.953646 
L 673.362269 -126.631103 
L 673.730933 -126.307679 
L 674.099597 -125.983256 
L 674.468261 -125.657712 
L 674.836925 -125.33092 
L 675.205588 -125.002747 
L 675.574252 -124.673057 
L 675.942916 -124.34171 
L 676.31158 -124.008563 
L 676.680244 -123.673469 
L 677.048908 -123.336279 
L 677.417571 -122.996842 
L 677.786235 -122.655007 
L 678.154899 -122.31062 
L 678.523563 -121.963527 
L 678.892227 -121.613573 
L 679.26089 -121.260606 
L 679.629554 -120.904473 
L 679.998218 -120.545021 
L 680.366882 -120.182103 
L 680.735546 -119.815571 
L 681.10421 -119.445282 
L 681.472873 -119.071093 
L 681.841537 -118.69287 
L 682.210201 -118.310479 
L 682.578865 -117.923794 
L 682.947529 -117.532693 
L 683.316192 -117.137059 
L 683.684856 -116.736783 
L 684.05352 -116.331762 
L 684.422184 -115.9219 
L 684.790848 -115.507108 
L 685.159512 -115.087307 
L 685.528175 -114.662424 
L 685.896839 -114.232397 
L 686.265503 -113.797169 
L 686.634167 -113.356697 
L 687.002831 -112.910944 
L 687.371494 -112.459884 
L 687.740158 -112.003501 
L 688.108822 -111.541788 
L 688.477486 -111.074748 
L 688.84615 -110.602396 
L 689.214814 -110.124755 
L 689.583477 -109.641859 
L 689.952141 -109.153753 
L 690.320805 -108.66049 
L 690.689469 -108.162133 
L 691.058133 -107.658757 
L 691.426796 -107.150445 
L 691.79546 -106.637289 
L 692.164124 -106.119389 
L 692.532788 -105.596857 
L 692.901452 -105.06981 
L 693.270116 -104.538375 
L 693.638779 -104.002685 
L 694.007443 -103.462883 
L 694.376107 -102.919114 
L 694.744771 -102.371535 
L 695.113435 -101.820304 
L 695.482098 -101.265587 
L 695.850762 -100.707555 
L 696.219426 -100.146383 
L 696.58809 -99.582248 
L 696.956754 -99.015332 
L 697.325418 -98.445822 
L 697.694081 -97.873903 
L 698.062745 -97.299765 
L 698.431409 -96.723598 
L 698.800073 -96.145594 
L 699.168737 -95.565944 
L 699.5374 -94.984841 
L 699.906064 -94.402475 
L 700.274728 -93.819037 
L 700.643392 -93.234717 
L 701.012056 -92.649701 
L 701.380719 -92.064177 
L 701.749383 -91.478326 
L 702.118047 -90.89233 
L 702.486711 -90.306367 
L 702.855375 -89.720611 
L 703.224039 -89.135233 
L 703.592702 -88.550402 
L 703.961366 -87.966281 
L 704.33003 -87.38303 
L 704.698694 -86.800805 
L 705.067358 -86.219757 
L 705.436021 -85.640035 
L 705.804685 -85.06178 
L 706.173349 -84.485132 
L 706.542013 -83.910224 
L 706.910677 -83.337186 
L 707.279341 -82.766142 
L 707.648004 -82.197214 
L 708.016668 -81.630517 
L 708.385332 -81.066161 
L 708.753996 -80.504255 
L 709.12266 -79.944901 
L 709.491323 -79.388195 
L 709.859987 -78.834234 
L 710.228651 -78.283105 
L 710.597315 -77.734893 
L 710.965979 -77.189681 
L 711.334643 -76.647545 
L 711.703306 -76.108558 
L 712.07197 -75.572788 
L 712.440634 -75.040302 
L 712.809298 -74.511159 
L 713.177962 -73.985419 
L 713.546625 -73.463134 
L 713.915289 -72.944355 
L 714.283953 -72.429129 
L 714.652617 -71.917498 
L 715.021281 -71.409503 
L 715.389945 -70.905179 
L 715.758608 -70.404561 
L 716.127272 -69.907676 
L 716.495936 -69.414553 
L 716.8646 -68.925214 
L 717.233264 -68.439679 
L 717.601927 -67.957967 
L 717.970591 -67.48009 
L 718.339255 -67.006062 
L 718.707919 -66.535889 
L 719.076583 -66.069579 
L 719.445247 -65.607133 
L 719.81391 -65.148553 
L 720.182574 -64.693837 
L 720.551238 -64.242981 
L 720.919902 -63.795977 
L 721.288566 -63.352816 
L 721.657229 -62.913488 
L 722.025893 -62.47798 
L 722.394557 -62.046275 
L 722.763221 -61.618359 
L 723.131885 -61.194211 
L 723.500548 -60.773812 
L 723.869212 -60.357141 
L 724.237876 -59.944175 
L 724.60654 -59.53489 
L 724.975204 -59.129261 
L 725.343868 -58.727263 
L 725.712531 -58.328869 
L 726.081195 -57.934053 
L 726.449859 -57.542786 
L 726.818523 -57.155043 
L 727.187187 -56.770795 
L 727.55585 -56.390015 
L 727.924514 -56.012675 
L 728.293178 -55.638749 
L 728.661842 -55.26821 
L 729.030506 -54.901034 
L 729.39917 -54.537194 
L 729.767833 -54.176667 
L 730.136497 -53.819431 
L 730.505161 -53.465463 
L 730.873825 -53.114743 
L 731.242489 -52.767253 
L 731.611152 -52.422975 
L 731.979816 -52.081893 
L 732.34848 -51.743993 
L 732.717144 -51.409263 
L 733.085808 -51.077693 
L 733.454472 -50.749273 
L 733.823135 -50.423998 
L 734.191799 -50.101862 
L 734.560463 -49.782863 
L 734.929127 -49.467 
L 735.297791 -49.154275 
L 735.666454 -48.844691 
L 736.035118 -48.538253 
L 736.403782 -48.234969 
L 736.772446 -47.934849 
L 737.14111 -47.637903 
L 737.509774 -47.344145 
L 737.878437 -47.05359 
L 738.247101 -46.766254 
L 738.615765 -46.482155 
L 738.984429 -46.201314 
L 739.353093 -45.923751 
L 739.721756 -45.649489 
L 740.09042 -45.378553 
L 740.459084 -45.110966 
L 740.827748 -44.846756 
L 741.196412 -44.585948 
L 741.565076 -44.32857 
L 741.933739 -44.07465 
L 742.302403 -43.824218 
L 742.671067 -43.5773 
L 743.039731 -43.333928 
L 743.408395 -43.094128 
L 743.777058 -42.857931 
L 744.145722 -42.625365 
L 744.514386 -42.396457 
L 744.88305 -42.171235 
L 745.251714 -41.949726 
L 745.620378 -41.731954 
L 745.989041 -41.517945 
L 746.357705 -41.307721 
L 746.726369 -41.101305 
L 747.095033 -40.898717 
L 747.463697 -40.699975 
L 747.83236 -40.505096 
L 748.201024 -40.314096 
L 748.569688 -40.126987 
L 748.938352 -39.94378 
L 749.307016 -39.764484 
L 749.675679 -39.589104 
L 750.044343 -39.417644 
L 750.413007 -39.250106 
L 750.781671 -39.086487 
L 751.150335 -38.926785 
L 751.518999 -38.770992 
L 751.887662 -38.619098 
L 752.256326 -38.471091 
L 752.62499 -38.326956 
L 752.993654 -38.186675 
L 753.362318 -38.050226 
L 753.730981 -37.917587 
L 754.099645 -37.788729 
L 754.468309 -37.663625 
L 754.836973 -37.542241 
L 755.205637 -37.424543 
L 755.574301 -37.310492 
L 755.942964 -37.200049 
L 756.311628 -37.09317 
L 756.680292 -36.989809 
L 757.048956 -36.88992 
L 757.41762 -36.793452 
L 757.786283 -36.700351 
L 758.154947 -36.610564 
L 758.523611 -36.524035 
L 758.892275 -36.440703 
L 759.260939 -36.360509 
L 759.629603 -36.283392 
L 759.998266 -36.209287 
L 760.36693 -36.138129 
L 760.735594 -36.069852 
L 761.104258 -36.004389 
L 761.472922 -35.941672 
L 761.841585 -35.88163 
L 762.210249 -35.824195 
L 762.578913 -35.769296 
L 762.947577 -35.716861 
L 763.316241 -35.66682 
L 763.684905 -35.6191 
L 764.053568 -35.573631 
L 764.422232 -35.530341 
L 764.790896 -35.489159 
L 765.15956 -35.450014 
L 765.528224 -35.412836 
L 765.896887 -35.377554 
L 766.265551 -35.3441 
L 766.634215 -35.312405 
L 767.002879 -35.282402 
L 767.371543 -35.254024 
L 767.740207 -35.227206 
L 768.10887 -35.201884 
L 768.477534 -35.177994 
L 768.846198 -35.155475 
L 769.214862 -35.134266 
L 769.583526 -35.114308 
L 769.952189 -35.095545 
L 770.320853 -35.077918 
L 770.689517 -35.061375 
L 771.058181 -35.045862 
L 771.426845 -35.031328 
L 771.795508 -35.017723 
L 772.164172 -35.004999 
L 772.532836 -34.993109 
L 772.9015 -34.98201 
L 773.270164 -34.971656 
L 773.638828 -34.962008 
L 774.007491 -34.953024 
L 774.376155 -34.944667 
L 774.744819 -34.936901 
L 775.113483 -34.929689 
L 775.482147 -34.922999 
L 775.85081 -34.916798 
L 776.219474 -34.911056 
L 776.588138 -34.905744 
L 776.956802 -34.900834 
L 777.325466 -34.8963 
L 777.69413 -34.892117 
L 778.062793 -34.888261 
L 778.431457 -34.884711 
L 778.800121 -34.881444 
L 779.168785 -34.878442 
L 779.537449 -34.875684 
L 779.906112 -34.873155 
L 780.274776 -34.870836 
L 780.64344 -34.868713 
L 781.012104 -34.866771 
L 781.380768 -34.864995 
L 781.749432 -34.863374 
L 782.118095 -34.861895 
L 782.486759 -34.860547 
L 782.855423 -34.85932 
L 782.855423 -34.848 
L 782.855423 -34.848 
L 782.486759 -34.848 
L 782.118095 -34.848 
L 781.749432 -34.848 
L 781.380768 -34.848 
L 781.012104 -34.848 
L 780.64344 -34.848 
L 780.274776 -34.848 
L 779.906112 -34.848 
L 779.537449 -34.848 
L 779.168785 -34.848 
L 778.800121 -34.848 
L 778.431457 -34.848 
L 778.062793 -34.848 
L 777.69413 -34.848 
L 777.325466 -34.848 
L 776.956802 -34.848 
L 776.588138 -34.848 
L 776.219474 -34.848 
L 775.85081 -34.848 
L 775.482147 -34.848 
L 775.113483 -34.848 
L 774.744819 -34.848 
L 774.376155 -34.848 
L 774.007491 -34.848 
L 773.638828 -34.848 
L 773.270164 -34.848 
L 772.9015 -34.848 
L 772.532836 -34.848 
L 772.164172 -34.848 
L 771.795508 -34.848 
L 771.426845 -34.848 
L 771.058181 -34.848 
L 770.689517 -34.848 
L 770.320853 -34.848 
L 769.952189 -34.848 
L 769.583526 -34.848 
L 769.214862 -34.848 
L 768.846198 -34.848 
L 768.477534 -34.848 
L 768.10887 -34.848 
L 767.740207 -34.848 
L 767.371543 -34.848 
L 767.002879 -34.848 
L 766.634215 -34.848 
L 766.265551 -34.848 
L 765.896887 -34.848 
L 765.528224 -34.848 
L 765.15956 -34.848 
L 764.790896 -34.848 
L 764.422232 -34.848 
L 764.053568 -34.848 
L 763.684905 -34.848 
L 763.316241 -34.848 
L 762.947577 -34.848 
L 762.578913 -34.848 
L 762.210249 -34.848 
L 761.841585 -34.848 
L 761.472922 -34.848 
L 761.104258 -34.848 
L 760.735594 -34.848 
L 760.36693 -34.848 
L 759.998266 -34.848 
L 759.629603 -34.848 
L 759.260939 -34.848 
L 758.892275 -34.848 
L 758.523611 -34.848 
L 758.154947 -34.848 
L 757.786283 -34.848 
L 757.41762 -34.848 
L 757.048956 -34.848 
L 756.680292 -34.848 
L 756.311628 -34.848 
L 755.942964 -34.848 
L 755.574301 -34.848 
L 755.205637 -34.848 
L 754.836973 -34.848 
L 754.468309 -34.848 
L 754.099645 -34.848 
L 753.730981 -34.848 
L 753.362318 -34.848 
L 752.993654 -34.848 
L 752.62499 -34.848 
L 752.256326 -34.848 
L 751.887662 -34.848 
L 751.518999 -34.848 
L 751.150335 -34.848 
L 750.781671 -34.848 
L 750.413007 -34.848 
L 750.044343 -34.848 
L 749.675679 -34.848 
L 749.307016 -34.848 
L 748.938352 -34.848 
L 748.569688 -34.848 
L 748.201024 -34.848 
L 747.83236 -34.848 
L 747.463697 -34.848 
L 747.095033 -34.848 
L 746.726369 -34.848 
L 746.357705 -34.848 
L 745.989041 -34.848 
L 745.620378 -34.848 
L 745.251714 -34.848 
L 744.88305 -34.848 
L 744.514386 -34.848 
L 744.145722 -34.848 
L 743.777058 -34.848 
L 743.408395 -34.848 
L 743.039731 -34.848 
L 742.671067 -34.848 
L 742.302403 -34.848 
L 741.933739 -34.848 
L 741.565076 -34.848 
L 741.196412 -34.848 
L 740.827748 -34.848 
L 740.459084 -34.848 
L 740.09042 -34.848 
L 739.721756 -34.848 
L 739.353093 -34.848 
L 738.984429 -34.848 
L 738.615765 -34.848 
L 738.247101 -34.848 
L 737.878437 -34.848 
L 737.509774 -34.848 
L 737.14111 -34.848 
L 736.772446 -34.848 
L 736.403782 -34.848 
L 736.035118 -34.848 
L 735.666454 -34.848 
L 735.297791 -34.848 
L 734.929127 -34.848 
L 734.560463 -34.848 
L 734.191799 -34.848 
L 733.823135 -34.848 
L 733.454472 -34.848 
L 733.085808 -34.848 
L 732.717144 -34.848 
L 732.34848 -34.848 
L 731.979816 -34.848 
L 731.611152 -34.848 
L 731.242489 -34.848 
L 730.873825 -34.848 
L 730.505161 -34.848 
L 730.136497 -34.848 
L 729.767833 -34.848 
L 729.39917 -34.848 
L 729.030506 -34.848 
L 728.661842 -34.848 
L 728.293178 -34.848 
L 727.924514 -34.848 
L 727.55585 -34.848 
L 727.187187 -34.848 
L 726.818523 -34.848 
L 726.449859 -34.848 
L 726.081195 -34.848 
L 725.712531 -34.848 
L 725.343868 -34.848 
L 724.975204 -34.848 
L 724.60654 -34.848 
L 724.237876 -34.848 
L 723.869212 -34.848 
L 723.500548 -34.848 
L 723.131885 -34.848 
L 722.763221 -34.848 
L 722.394557 -34.848 
L 722.025893 -34.848 
L 721.657229 -34.848 
L 721.288566 -34.848 
L 720.919902 -34.848 
L 720.551238 -34.848 
L 720.182574 -34.848 
L 719.81391 -34.848 
L 719.445247 -34.848 
L 719.076583 -34.848 
L 718.707919 -34.848 
L 718.339255 -34.848 
L 717.970591 -34.848 
L 717.601927 -34.848 
L 717.233264 -34.848 
L 716.8646 -34.848 
L 716.495936 -34.848 
L 716.127272 -34.848 
L 715.758608 -34.848 
L 715.389945 -34.848 
L 715.021281 -34.848 
L 714.652617 -34.848 
L 714.283953 -34.848 
L 713.915289 -34.848 
L 713.546625 -34.848 
L 713.177962 -34.848 
L 712.809298 -34.848 
L 712.440634 -34.848 
L 712.07197 -34.848 
L 711.703306 -34.848 
L 711.334643 -34.848 
L 710.965979 -34.848 
L 710.597315 -34.848 
L 710.228651 -34.848 
L 709.859987 -34.848 
L 709.491323 -34.848 
L 709.12266 -34.848 
L 708.753996 -34.848 
L 708.385332 -34.848 
L 708.016668 -34.848 
L 707.648004 -34.848 
L 707.279341 -34.848 
L 706.910677 -34.848 
L 706.542013 -34.848 
L 706.173349 -34.848 
L 705.804685 -34.848 
L 705.436021 -34.848 
L 705.067358 -34.848 
L 704.698694 -34.848 
L 704.33003 -34.848 
L 703.961366 -34.848 
L 703.592702 -34.848 
L 703.224039 -34.848 
L 702.855375 -34.848 
L 702.486711 -34.848 
L 702.118047 -34.848 
L 701.749383 -34.848 
L 701.380719 -34.848 
L 701.012056 -34.848 
L 700.643392 -34.848 
L 700.274728 -34.848 
L 699.906064 -34.848 
L 699.5374 -34.848 
L 699.168737 -34.848 
L 698.800073 -34.848 
L 698.431409 -34.848 
L 698.062745 -34.848 
L 697.694081 -34.848 
L 697.325418 -34.848 
L 696.956754 -34.848 
L 696.58809 -34.848 
L 696.219426 -34.848 
L 695.850762 -34.848 
L 695.482098 -34.848 
L 695.113435 -34.848 
L 694.744771 -34.848 
L 694.376107 -34.848 
L 694.007443 -34.848 
L 693.638779 -34.848 
L 693.270116 -34.848 
L 692.901452 -34.848 
L 692.532788 -34.848 
L 692.164124 -34.848 
L 691.79546 -34.848 
L 691.426796 -34.848 
L 691.058133 -34.848 
L 690.689469 -34.848 
L 690.320805 -34.848 
L 689.952141 -34.848 
L 689.583477 -34.848 
L 689.214814 -34.848 
L 688.84615 -34.848 
L 688.477486 -34.848 
L 688.108822 -34.848 
L 687.740158 -34.848 
L 687.371494 -34.848 
L 687.002831 -34.848 
L 686.634167 -34.848 
L 686.265503 -34.848 
L 685.896839 -34.848 
L 685.528175 -34.848 
L 685.159512 -34.848 
L 684.790848 -34.848 
L 684.422184 -34.848 
L 684.05352 -34.848 
L 683.684856 -34.848 
L 683.316192 -34.848 
L 682.947529 -34.848 
L 682.578865 -34.848 
L 682.210201 -34.848 
L 681.841537 -34.848 
L 681.472873 -34.848 
L 681.10421 -34.848 
L 680.735546 -34.848 
L 680.366882 -34.848 
L 679.998218 -34.848 
L 679.629554 -34.848 
L 679.26089 -34.848 
L 678.892227 -34.848 
L 678.523563 -34.848 
L 678.154899 -34.848 
L 677.786235 -34.848 
L 677.417571 -34.848 
L 677.048908 -34.848 
L 676.680244 -34.848 
L 676.31158 -34.848 
L 675.942916 -34.848 
L 675.574252 -34.848 
L 675.205588 -34.848 
L 674.836925 -34.848 
L 674.468261 -34.848 
L 674.099597 -34.848 
L 673.730933 -34.848 
L 673.362269 -34.848 
L 672.993606 -34.848 
L 672.624942 -34.848 
L 672.256278 -34.848 
L 671.887614 -34.848 
L 671.51895 -34.848 
L 671.150287 -34.848 
L 670.781623 -34.848 
L 670.412959 -34.848 
L 670.044295 -34.848 
L 669.675631 -34.848 
L 669.306967 -34.848 
L 668.938304 -34.848 
L 668.56964 -34.848 
L 668.200976 -34.848 
L 667.832312 -34.848 
L 667.463648 -34.848 
L 667.094985 -34.848 
L 666.726321 -34.848 
L 666.357657 -34.848 
L 665.988993 -34.848 
L 665.620329 -34.848 
L 665.251665 -34.848 
L 664.883002 -34.848 
L 664.514338 -34.848 
L 664.145674 -34.848 
L 663.77701 -34.848 
L 663.408346 -34.848 
L 663.039683 -34.848 
L 662.671019 -34.848 
L 662.302355 -34.848 
L 661.933691 -34.848 
L 661.565027 -34.848 
L 661.196363 -34.848 
L 660.8277 -34.848 
L 660.459036 -34.848 
L 660.090372 -34.848 
L 659.721708 -34.848 
L 659.353044 -34.848 
L 658.984381 -34.848 
L 658.615717 -34.848 
L 658.247053 -34.848 
L 657.878389 -34.848 
L 657.509725 -34.848 
L 657.141061 -34.848 
L 656.772398 -34.848 
L 656.403734 -34.848 
L 656.03507 -34.848 
L 655.666406 -34.848 
L 655.297742 -34.848 
L 654.929079 -34.848 
L 654.560415 -34.848 
L 654.191751 -34.848 
L 653.823087 -34.848 
L 653.454423 -34.848 
L 653.085759 -34.848 
L 652.717096 -34.848 
L 652.348432 -34.848 
L 651.979768 -34.848 
L 651.611104 -34.848 
L 651.24244 -34.848 
L 650.873777 -34.848 
L 650.505113 -34.848 
L 650.136449 -34.848 
L 649.767785 -34.848 
L 649.399121 -34.848 
L 649.030457 -34.848 
L 648.661794 -34.848 
L 648.29313 -34.848 
L 647.924466 -34.848 
L 647.555802 -34.848 
L 647.187138 -34.848 
L 646.818475 -34.848 
L 646.449811 -34.848 
L 646.081147 -34.848 
L 645.712483 -34.848 
L 645.343819 -34.848 
L 644.975156 -34.848 
L 644.606492 -34.848 
L 644.237828 -34.848 
L 643.869164 -34.848 
L 643.5005 -34.848 
L 643.131836 -34.848 
L 642.763173 -34.848 
L 642.394509 -34.848 
L 642.025845 -34.848 
L 641.657181 -34.848 
L 641.288517 -34.848 
L 640.919854 -34.848 
L 640.55119 -34.848 
L 640.182526 -34.848 
L 639.813862 -34.848 
L 639.445198 -34.848 
L 639.076534 -34.848 
L 638.707871 -34.848 
L 638.339207 -34.848 
L 637.970543 -34.848 
L 637.601879 -34.848 
L 637.233215 -34.848 
L 636.864552 -34.848 
L 636.495888 -34.848 
L 636.127224 -34.848 
L 635.75856 -34.848 
L 635.389896 -34.848 
L 635.021232 -34.848 
L 634.652569 -34.848 
L 634.283905 -34.848 
L 633.915241 -34.848 
L 633.546577 -34.848 
L 633.177913 -34.848 
L 632.80925 -34.848 
L 632.440586 -34.848 
L 632.071922 -34.848 
L 631.703258 -34.848 
L 631.334594 -34.848 
L 630.96593 -34.848 
L 630.597267 -34.848 
L 630.228603 -34.848 
L 629.859939 -34.848 
L 629.491275 -34.848 
L 629.122611 -34.848 
L 628.753948 -34.848 
L 628.385284 -34.848 
L 628.01662 -34.848 
L 627.647956 -34.848 
L 627.279292 -34.848 
L 626.910628 -34.848 
L 626.541965 -34.848 
L 626.173301 -34.848 
L 625.804637 -34.848 
L 625.435973 -34.848 
L 625.067309 -34.848 
L 624.698646 -34.848 
L 624.329982 -34.848 
L 623.961318 -34.848 
L 623.592654 -34.848 
L 623.22399 -34.848 
L 622.855327 -34.848 
L 622.486663 -34.848 
L 622.117999 -34.848 
L 621.749335 -34.848 
L 621.380671 -34.848 
L 621.012007 -34.848 
L 620.643344 -34.848 
L 620.27468 -34.848 
L 619.906016 -34.848 
L 619.537352 -34.848 
L 619.168688 -34.848 
L 618.800025 -34.848 
L 618.431361 -34.848 
L 618.062697 -34.848 
L 617.694033 -34.848 
L 617.325369 -34.848 
L 616.956705 -34.848 
L 616.588042 -34.848 
L 616.219378 -34.848 
L 615.850714 -34.848 
L 615.48205 -34.848 
L 615.113386 -34.848 
L 614.744723 -34.848 
L 614.376059 -34.848 
L 614.007395 -34.848 
L 613.638731 -34.848 
L 613.270067 -34.848 
L 612.901403 -34.848 
L 612.53274 -34.848 
L 612.164076 -34.848 
L 611.795412 -34.848 
L 611.426748 -34.848 
L 611.058084 -34.848 
L 610.689421 -34.848 
L 610.320757 -34.848 
L 609.952093 -34.848 
L 609.583429 -34.848 
L 609.214765 -34.848 
L 608.846101 -34.848 
L 608.477438 -34.848 
L 608.108774 -34.848 
L 607.74011 -34.848 
L 607.371446 -34.848 
L 607.002782 -34.848 
L 606.634119 -34.848 
L 606.265455 -34.848 
L 605.896791 -34.848 
L 605.528127 -34.848 
L 605.159463 -34.848 
L 604.790799 -34.848 
L 604.422136 -34.848 
L 604.053472 -34.848 
L 603.684808 -34.848 
L 603.316144 -34.848 
L 602.94748 -34.848 
L 602.578817 -34.848 
L 602.210153 -34.848 
L 601.841489 -34.848 
L 601.472825 -34.848 
L 601.104161 -34.848 
L 600.735497 -34.848 
L 600.366834 -34.848 
L 599.99817 -34.848 
L 599.629506 -34.848 
L 599.260842 -34.848 
L 598.892178 -34.848 
L 598.523515 -34.848 
L 598.154851 -34.848 
L 597.786187 -34.848 
L 597.417523 -34.848 
L 597.048859 -34.848 
L 596.680196 -34.848 
L 596.311532 -34.848 
L 595.942868 -34.848 
L 595.574204 -34.848 
L 595.20554 -34.848 
L 594.836876 -34.848 
L 594.468213 -34.848 
L 594.099549 -34.848 
L 593.730885 -34.848 
L 593.362221 -34.848 
L 592.993557 -34.848 
L 592.624894 -34.848 
L 592.25623 -34.848 
L 591.887566 -34.848 
L 591.518902 -34.848 
L 591.150238 -34.848 
L 590.781574 -34.848 
L 590.412911 -34.848 
L 590.044247 -34.848 
L 589.675583 -34.848 
L 589.306919 -34.848 
L 588.938255 -34.848 
L 588.569592 -34.848 
L 588.200928 -34.848 
L 587.832264 -34.848 
L 587.4636 -34.848 
L 587.094936 -34.848 
L 586.726272 -34.848 
L 586.357609 -34.848 
L 585.988945 -34.848 
L 585.620281 -34.848 
L 585.251617 -34.848 
L 584.882953 -34.848 
L 584.51429 -34.848 
L 584.145626 -34.848 
L 583.776962 -34.848 
L 583.408298 -34.848 
L 583.039634 -34.848 
L 582.67097 -34.848 
L 582.302307 -34.848 
L 581.933643 -34.848 
L 581.564979 -34.848 
L 581.196315 -34.848 
L 580.827651 -34.848 
L 580.458988 -34.848 
L 580.090324 -34.848 
L 579.72166 -34.848 
L 579.352996 -34.848 
L 578.984332 -34.848 
L 578.615668 -34.848 
L 578.247005 -34.848 
L 577.878341 -34.848 
L 577.509677 -34.848 
L 577.141013 -34.848 
L 576.772349 -34.848 
L 576.403686 -34.848 
L 576.035022 -34.848 
L 575.666358 -34.848 
L 575.297694 -34.848 
L 574.92903 -34.848 
L 574.560366 -34.848 
L 574.191703 -34.848 
L 573.823039 -34.848 
L 573.454375 -34.848 
L 573.085711 -34.848 
L 572.717047 -34.848 
L 572.348384 -34.848 
L 571.97972 -34.848 
L 571.611056 -34.848 
L 571.242392 -34.848 
L 570.873728 -34.848 
L 570.505065 -34.848 
L 570.136401 -34.848 
L 569.767737 -34.848 
L 569.399073 -34.848 
L 569.030409 -34.848 
L 568.661745 -34.848 
L 568.293082 -34.848 
L 567.924418 -34.848 
L 567.555754 -34.848 
L 567.18709 -34.848 
L 566.818426 -34.848 
L 566.449763 -34.848 
L 566.081099 -34.848 
L 565.712435 -34.848 
L 565.343771 -34.848 
L 564.975107 -34.848 
L 564.606443 -34.848 
L 564.23778 -34.848 
L 563.869116 -34.848 
L 563.500452 -34.848 
L 563.131788 -34.848 
L 562.763124 -34.848 
L 562.394461 -34.848 
L 562.025797 -34.848 
L 561.657133 -34.848 
L 561.288469 -34.848 
L 560.919805 -34.848 
L 560.551141 -34.848 
L 560.182478 -34.848 
L 559.813814 -34.848 
L 559.44515 -34.848 
L 559.076486 -34.848 
L 558.707822 -34.848 
L 558.339159 -34.848 
L 557.970495 -34.848 
L 557.601831 -34.848 
L 557.233167 -34.848 
L 556.864503 -34.848 
L 556.495839 -34.848 
L 556.127176 -34.848 
L 555.758512 -34.848 
L 555.389848 -34.848 
L 555.021184 -34.848 
L 554.65252 -34.848 
L 554.283857 -34.848 
L 553.915193 -34.848 
L 553.546529 -34.848 
L 553.177865 -34.848 
L 552.809201 -34.848 
L 552.440537 -34.848 
L 552.071874 -34.848 
L 551.70321 -34.848 
L 551.334546 -34.848 
L 550.965882 -34.848 
L 550.597218 -34.848 
L 550.228555 -34.848 
L 549.859891 -34.848 
L 549.491227 -34.848 
L 549.122563 -34.848 
L 548.753899 -34.848 
L 548.385236 -34.848 
L 548.016572 -34.848 
L 547.647908 -34.848 
L 547.279244 -34.848 
L 546.91058 -34.848 
L 546.541916 -34.848 
L 546.173253 -34.848 
L 545.804589 -34.848 
L 545.435925 -34.848 
L 545.067261 -34.848 
L 544.698597 -34.848 
L 544.329934 -34.848 
L 543.96127 -34.848 
L 543.592606 -34.848 
L 543.223942 -34.848 
L 542.855278 -34.848 
L 542.486614 -34.848 
L 542.117951 -34.848 
L 541.749287 -34.848 
L 541.380623 -34.848 
L 541.011959 -34.848 
L 540.643295 -34.848 
L 540.274632 -34.848 
L 539.905968 -34.848 
L 539.537304 -34.848 
L 539.16864 -34.848 
L 538.799976 -34.848 
L 538.431312 -34.848 
L 538.062649 -34.848 
L 537.693985 -34.848 
L 537.325321 -34.848 
L 536.956657 -34.848 
L 536.587993 -34.848 
L 536.21933 -34.848 
L 535.850666 -34.848 
L 535.482002 -34.848 
L 535.113338 -34.848 
L 534.744674 -34.848 
L 534.37601 -34.848 
L 534.007347 -34.848 
L 533.638683 -34.848 
L 533.270019 -34.848 
L 532.901355 -34.848 
L 532.532691 -34.848 
L 532.164028 -34.848 
L 531.795364 -34.848 
L 531.4267 -34.848 
L 531.058036 -34.848 
L 530.689372 -34.848 
L 530.320708 -34.848 
L 529.952045 -34.848 
L 529.583381 -34.848 
L 529.214717 -34.848 
L 528.846053 -34.848 
L 528.477389 -34.848 
L 528.108726 -34.848 
L 527.740062 -34.848 
L 527.371398 -34.848 
L 527.002734 -34.848 
L 526.63407 -34.848 
L 526.265406 -34.848 
L 525.896743 -34.848 
L 525.528079 -34.848 
L 525.159415 -34.848 
L 524.790751 -34.848 
L 524.422087 -34.848 
L 524.053424 -34.848 
L 523.68476 -34.848 
L 523.316096 -34.848 
L 522.947432 -34.848 
L 522.578768 -34.848 
L 522.210105 -34.848 
L 521.841441 -34.848 
L 521.472777 -34.848 
L 521.104113 -34.848 
L 520.735449 -34.848 
L 520.366785 -34.848 
L 519.998122 -34.848 
L 519.629458 -34.848 
L 519.260794 -34.848 
L 518.89213 -34.848 
L 518.523466 -34.848 
L 518.154803 -34.848 
L 517.786139 -34.848 
L 517.417475 -34.848 
L 517.048811 -34.848 
L 516.680147 -34.848 
L 516.311483 -34.848 
L 515.94282 -34.848 
L 515.574156 -34.848 
L 515.205492 -34.848 
L 514.836828 -34.848 
L 514.468164 -34.848 
L 514.099501 -34.848 
L 513.730837 -34.848 
L 513.362173 -34.848 
L 512.993509 -34.848 
L 512.624845 -34.848 
L 512.256181 -34.848 
L 511.887518 -34.848 
L 511.518854 -34.848 
L 511.15019 -34.848 
L 510.781526 -34.848 
L 510.412862 -34.848 
L 510.044199 -34.848 
L 509.675535 -34.848 
L 509.306871 -34.848 
L 508.938207 -34.848 
L 508.569543 -34.848 
L 508.200879 -34.848 
L 507.832216 -34.848 
L 507.463552 -34.848 
L 507.094888 -34.848 
L 506.726224 -34.848 
L 506.35756 -34.848 
L 505.988897 -34.848 
L 505.620233 -34.848 
L 505.251569 -34.848 
L 504.882905 -34.848 
L 504.514241 -34.848 
L 504.145577 -34.848 
L 503.776914 -34.848 
L 503.40825 -34.848 
L 503.039586 -34.848 
L 502.670922 -34.848 
L 502.302258 -34.848 
L 501.933595 -34.848 
L 501.564931 -34.848 
L 501.196267 -34.848 
L 500.827603 -34.848 
L 500.458939 -34.848 
L 500.090276 -34.848 
L 499.721612 -34.848 
L 499.352948 -34.848 
L 498.984284 -34.848 
L 498.61562 -34.848 
L 498.246956 -34.848 
L 497.878293 -34.848 
L 497.509629 -34.848 
L 497.140965 -34.848 
L 496.772301 -34.848 
L 496.403637 -34.848 
L 496.034974 -34.848 
L 495.66631 -34.848 
L 495.297646 -34.848 
L 494.928982 -34.848 
L 494.560318 -34.848 
L 494.191654 -34.848 
L 493.822991 -34.848 
L 493.454327 -34.848 
L 493.085663 -34.848 
L 492.716999 -34.848 
L 492.348335 -34.848 
L 491.979672 -34.848 
L 491.611008 -34.848 
L 491.242344 -34.848 
L 490.87368 -34.848 
L 490.505016 -34.848 
L 490.136352 -34.848 
L 489.767689 -34.848 
L 489.399025 -34.848 
L 489.030361 -34.848 
L 488.661697 -34.848 
L 488.293033 -34.848 
L 487.92437 -34.848 
L 487.555706 -34.848 
L 487.187042 -34.848 
L 486.818378 -34.848 
L 486.449714 -34.848 
L 486.08105 -34.848 
L 485.712387 -34.848 
L 485.343723 -34.848 
L 484.975059 -34.848 
L 484.606395 -34.848 
L 484.237731 -34.848 
L 483.869068 -34.848 
L 483.500404 -34.848 
L 483.13174 -34.848 
L 482.763076 -34.848 
L 482.394412 -34.848 
L 482.025748 -34.848 
L 481.657085 -34.848 
L 481.288421 -34.848 
L 480.919757 -34.848 
L 480.551093 -34.848 
L 480.182429 -34.848 
L 479.813766 -34.848 
L 479.445102 -34.848 
L 479.076438 -34.848 
L 478.707774 -34.848 
L 478.33911 -34.848 
L 477.970446 -34.848 
L 477.601783 -34.848 
L 477.233119 -34.848 
L 476.864455 -34.848 
L 476.495791 -34.848 
L 476.127127 -34.848 
L 475.758464 -34.848 
L 475.3898 -34.848 
L 475.021136 -34.848 
L 474.652472 -34.848 
L 474.283808 -34.848 
L 473.915145 -34.848 
L 473.546481 -34.848 
L 473.177817 -34.848 
L 472.809153 -34.848 
L 472.440489 -34.848 
L 472.071825 -34.848 
L 471.703162 -34.848 
L 471.334498 -34.848 
L 470.965834 -34.848 
L 470.59717 -34.848 
L 470.228506 -34.848 
L 469.859843 -34.848 
L 469.491179 -34.848 
L 469.122515 -34.848 
L 468.753851 -34.848 
L 468.385187 -34.848 
L 468.016523 -34.848 
L 467.64786 -34.848 
L 467.279196 -34.848 
L 466.910532 -34.848 
L 466.541868 -34.848 
L 466.173204 -34.848 
L 465.804541 -34.848 
L 465.435877 -34.848 
L 465.067213 -34.848 
L 464.698549 -34.848 
L 464.329885 -34.848 
L 463.961221 -34.848 
L 463.592558 -34.848 
L 463.223894 -34.848 
L 462.85523 -34.848 
L 462.486566 -34.848 
L 462.117902 -34.848 
L 461.749239 -34.848 
L 461.380575 -34.848 
L 461.011911 -34.848 
L 460.643247 -34.848 
L 460.274583 -34.848 
L 459.905919 -34.848 
L 459.537256 -34.848 
L 459.168592 -34.848 
L 458.799928 -34.848 
L 458.431264 -34.848 
L 458.0626 -34.848 
L 457.693937 -34.848 
L 457.325273 -34.848 
L 456.956609 -34.848 
L 456.587945 -34.848 
L 456.219281 -34.848 
L 455.850617 -34.848 
L 455.481954 -34.848 
L 455.11329 -34.848 
L 454.744626 -34.848 
L 454.375962 -34.848 
L 454.007298 -34.848 
L 453.638635 -34.848 
L 453.269971 -34.848 
L 452.901307 -34.848 
L 452.532643 -34.848 
L 452.163979 -34.848 
L 451.795315 -34.848 
L 451.426652 -34.848 
L 451.057988 -34.848 
L 450.689324 -34.848 
L 450.32066 -34.848 
L 449.951996 -34.848 
L 449.583333 -34.848 
L 449.214669 -34.848 
L 448.846005 -34.848 
L 448.477341 -34.848 
L 448.108677 -34.848 
L 447.740014 -34.848 
L 447.37135 -34.848 
L 447.002686 -34.848 
L 446.634022 -34.848 
L 446.265358 -34.848 
L 445.896694 -34.848 
L 445.528031 -34.848 
L 445.159367 -34.848 
L 444.790703 -34.848 
L 444.422039 -34.848 
L 444.053375 -34.848 
L 443.684712 -34.848 
L 443.316048 -34.848 
L 442.947384 -34.848 
L 442.57872 -34.848 
L 442.210056 -34.848 
L 441.841392 -34.848 
L 441.472729 -34.848 
L 441.104065 -34.848 
L 440.735401 -34.848 
L 440.366737 -34.848 
L 439.998073 -34.848 
L 439.62941 -34.848 
L 439.260746 -34.848 
L 438.892082 -34.848 
L 438.523418 -34.848 
L 438.154754 -34.848 
L 437.78609 -34.848 
L 437.417427 -34.848 
L 437.048763 -34.848 
L 436.680099 -34.848 
L 436.311435 -34.848 
L 435.942771 -34.848 
L 435.574108 -34.848 
L 435.205444 -34.848 
L 434.83678 -34.848 
L 434.468116 -34.848 
L 434.099452 -34.848 
L 433.730788 -34.848 
L 433.362125 -34.848 
L 432.993461 -34.848 
L 432.624797 -34.848 
L 432.256133 -34.848 
L 431.887469 -34.848 
L 431.518806 -34.848 
L 431.150142 -34.848 
L 430.781478 -34.848 
L 430.412814 -34.848 
L 430.04415 -34.848 
L 429.675486 -34.848 
L 429.306823 -34.848 
L 428.938159 -34.848 
L 428.569495 -34.848 
L 428.200831 -34.848 
L 427.832167 -34.848 
L 427.463504 -34.848 
L 427.09484 -34.848 
L 426.726176 -34.848 
L 426.357512 -34.848 
L 425.988848 -34.848 
L 425.620185 -34.848 
L 425.251521 -34.848 
L 424.882857 -34.848 
L 424.514193 -34.848 
L 424.145529 -34.848 
L 423.776865 -34.848 
L 423.408202 -34.848 
L 423.039538 -34.848 
L 422.670874 -34.848 
L 422.30221 -34.848 
L 421.933546 -34.848 
L 421.564883 -34.848 
L 421.196219 -34.848 
L 420.827555 -34.848 
L 420.458891 -34.848 
L 420.090227 -34.848 
L 419.721563 -34.848 
L 419.3529 -34.848 
L 418.984236 -34.848 
L 418.615572 -34.848 
L 418.246908 -34.848 
L 417.878244 -34.848 
L 417.509581 -34.848 
L 417.140917 -34.848 
L 416.772253 -34.848 
L 416.403589 -34.848 
L 416.034925 -34.848 
L 415.666261 -34.848 
L 415.297598 -34.848 
L 414.928934 -34.848 
L 414.56027 -34.848 
z
" style="stroke: #4c72b0; stroke-opacity: 0.2"/>
    </defs>
    <g>
     <use xlink:href="#mf1971a7213" x="0" y="158.4" style="fill: #4c72b0; fill-opacity: 0.2; stroke: #4c72b0; stroke-opacity: 0.2"/>
    </g>
   </g>
   <g id="FillBetweenPolyCollection_2"/>
   <g id="FillBetweenPolyCollection_3">
    <defs>
     <path id="m2630cafd4a" d="M 414.56027 -34.848 
L 414.56027 -34.852775 
L 414.928934 -34.853255 
L 415.297598 -34.853777 
L 415.666261 -34.854345 
L 416.034925 -34.854962 
L 416.403589 -34.855631 
L 416.772253 -34.856357 
L 417.140917 -34.857143 
L 417.509581 -34.857993 
L 417.878244 -34.858912 
L 418.246908 -34.859904 
L 418.615572 -34.860974 
L 418.984236 -34.862126 
L 419.3529 -34.863366 
L 419.721563 -34.864698 
L 420.090227 -34.866129 
L 420.458891 -34.867664 
L 420.827555 -34.869309 
L 421.196219 -34.871069 
L 421.564883 -34.872951 
L 421.933546 -34.874962 
L 422.30221 -34.877106 
L 422.670874 -34.879392 
L 423.039538 -34.881826 
L 423.408202 -34.884415 
L 423.776865 -34.887165 
L 424.145529 -34.890084 
L 424.514193 -34.893179 
L 424.882857 -34.896456 
L 425.251521 -34.899924 
L 425.620185 -34.903588 
L 425.988848 -34.907457 
L 426.357512 -34.911537 
L 426.726176 -34.915836 
L 427.09484 -34.92036 
L 427.463504 -34.925116 
L 427.832167 -34.930111 
L 428.200831 -34.935351 
L 428.569495 -34.940844 
L 428.938159 -34.946594 
L 429.306823 -34.952608 
L 429.675486 -34.958892 
L 430.04415 -34.965451 
L 430.412814 -34.97229 
L 430.781478 -34.979413 
L 431.150142 -34.986825 
L 431.518806 -34.99453 
L 431.887469 -35.002531 
L 432.256133 -35.010831 
L 432.624797 -35.019434 
L 432.993461 -35.028341 
L 433.362125 -35.037553 
L 433.730788 -35.047072 
L 434.099452 -35.056899 
L 434.468116 -35.067033 
L 434.83678 -35.077475 
L 435.205444 -35.088222 
L 435.574108 -35.099274 
L 435.942771 -35.110629 
L 436.311435 -35.122283 
L 436.680099 -35.134235 
L 437.048763 -35.146479 
L 437.417427 -35.159012 
L 437.78609 -35.171828 
L 438.154754 -35.184924 
L 438.523418 -35.198293 
L 438.892082 -35.211928 
L 439.260746 -35.225824 
L 439.62941 -35.239974 
L 439.998073 -35.254369 
L 440.366737 -35.269002 
L 440.735401 -35.283866 
L 441.104065 -35.298951 
L 441.472729 -35.31425 
L 441.841392 -35.329752 
L 442.210056 -35.34545 
L 442.57872 -35.361334 
L 442.947384 -35.377394 
L 443.316048 -35.393621 
L 443.684712 -35.410006 
L 444.053375 -35.426539 
L 444.422039 -35.443211 
L 444.790703 -35.460011 
L 445.159367 -35.476931 
L 445.528031 -35.493961 
L 445.896694 -35.511091 
L 446.265358 -35.528314 
L 446.634022 -35.545619 
L 447.002686 -35.562998 
L 447.37135 -35.580442 
L 447.740014 -35.597943 
L 448.108677 -35.615494 
L 448.477341 -35.633084 
L 448.846005 -35.650708 
L 449.214669 -35.668358 
L 449.583333 -35.686026 
L 449.951996 -35.703706 
L 450.32066 -35.72139 
L 450.689324 -35.739073 
L 451.057988 -35.756747 
L 451.426652 -35.774408 
L 451.795315 -35.792048 
L 452.163979 -35.809662 
L 452.532643 -35.827244 
L 452.901307 -35.84479 
L 453.269971 -35.862294 
L 453.638635 -35.87975 
L 454.007298 -35.897153 
L 454.375962 -35.914498 
L 454.744626 -35.931781 
L 455.11329 -35.948996 
L 455.481954 -35.966138 
L 455.850617 -35.983201 
L 456.219281 -36.000181 
L 456.587945 -36.017073 
L 456.956609 -36.033871 
L 457.325273 -36.050569 
L 457.693937 -36.067162 
L 458.0626 -36.083645 
L 458.431264 -36.100011 
L 458.799928 -36.116255 
L 459.168592 -36.132371 
L 459.537256 -36.148351 
L 459.905919 -36.16419 
L 460.274583 -36.179882 
L 460.643247 -36.195418 
L 461.011911 -36.210794 
L 461.380575 -36.226001 
L 461.749239 -36.241033 
L 462.117902 -36.255883 
L 462.486566 -36.270543 
L 462.85523 -36.285006 
L 463.223894 -36.299266 
L 463.592558 -36.313315 
L 463.961221 -36.327146 
L 464.329885 -36.340752 
L 464.698549 -36.354127 
L 465.067213 -36.367264 
L 465.435877 -36.380156 
L 465.804541 -36.392798 
L 466.173204 -36.405183 
L 466.541868 -36.417306 
L 466.910532 -36.429163 
L 467.279196 -36.440748 
L 467.64786 -36.452058 
L 468.016523 -36.463088 
L 468.385187 -36.473835 
L 468.753851 -36.484298 
L 469.122515 -36.494474 
L 469.491179 -36.504362 
L 469.859843 -36.513961 
L 470.228506 -36.523272 
L 470.59717 -36.532294 
L 470.965834 -36.541031 
L 471.334498 -36.549484 
L 471.703162 -36.557656 
L 472.071825 -36.565552 
L 472.440489 -36.573176 
L 472.809153 -36.580534 
L 473.177817 -36.587632 
L 473.546481 -36.594478 
L 473.915145 -36.601079 
L 474.283808 -36.607445 
L 474.652472 -36.613584 
L 475.021136 -36.619508 
L 475.3898 -36.625227 
L 475.758464 -36.630753 
L 476.127127 -36.636098 
L 476.495791 -36.641277 
L 476.864455 -36.646302 
L 477.233119 -36.651188 
L 477.601783 -36.655949 
L 477.970446 -36.660601 
L 478.33911 -36.66516 
L 478.707774 -36.669642 
L 479.076438 -36.674064 
L 479.445102 -36.678442 
L 479.813766 -36.682793 
L 480.182429 -36.687134 
L 480.551093 -36.691484 
L 480.919757 -36.69586 
L 481.288421 -36.700279 
L 481.657085 -36.704758 
L 482.025748 -36.709316 
L 482.394412 -36.71397 
L 482.763076 -36.718737 
L 483.13174 -36.723635 
L 483.500404 -36.728679 
L 483.869068 -36.733887 
L 484.237731 -36.739276 
L 484.606395 -36.74486 
L 484.975059 -36.750656 
L 485.343723 -36.75668 
L 485.712387 -36.762945 
L 486.08105 -36.769466 
L 486.449714 -36.776257 
L 486.818378 -36.783331 
L 487.187042 -36.790701 
L 487.555706 -36.798379 
L 487.92437 -36.806378 
L 488.293033 -36.814707 
L 488.661697 -36.823379 
L 489.030361 -36.832403 
L 489.399025 -36.841788 
L 489.767689 -36.851544 
L 490.136352 -36.861679 
L 490.505016 -36.872201 
L 490.87368 -36.883117 
L 491.242344 -36.894434 
L 491.611008 -36.906159 
L 491.979672 -36.918297 
L 492.348335 -36.930854 
L 492.716999 -36.943835 
L 493.085663 -36.957244 
L 493.454327 -36.971085 
L 493.822991 -36.985363 
L 494.191654 -37.00008 
L 494.560318 -37.01524 
L 494.928982 -37.030846 
L 495.297646 -37.0469 
L 495.66631 -37.063405 
L 496.034974 -37.080362 
L 496.403637 -37.097775 
L 496.772301 -37.115644 
L 497.140965 -37.133972 
L 497.509629 -37.152761 
L 497.878293 -37.172013 
L 498.246956 -37.191729 
L 498.61562 -37.211912 
L 498.984284 -37.232564 
L 499.352948 -37.253688 
L 499.721612 -37.275286 
L 500.090276 -37.297361 
L 500.458939 -37.319917 
L 500.827603 -37.342958 
L 501.196267 -37.366487 
L 501.564931 -37.39051 
L 501.933595 -37.415032 
L 502.302258 -37.440059 
L 502.670922 -37.465598 
L 503.039586 -37.491656 
L 503.40825 -37.51824 
L 503.776914 -37.54536 
L 504.145577 -37.573025 
L 504.514241 -37.601247 
L 504.882905 -37.630036 
L 505.251569 -37.659404 
L 505.620233 -37.689366 
L 505.988897 -37.719936 
L 506.35756 -37.751128 
L 506.726224 -37.78296 
L 507.094888 -37.815449 
L 507.463552 -37.848613 
L 507.832216 -37.882472 
L 508.200879 -37.917047 
L 508.569543 -37.95236 
L 508.938207 -37.988433 
L 509.306871 -38.02529 
L 509.675535 -38.062956 
L 510.044199 -38.101456 
L 510.412862 -38.140817 
L 510.781526 -38.181067 
L 511.15019 -38.222233 
L 511.518854 -38.264345 
L 511.887518 -38.307431 
L 512.256181 -38.351523 
L 512.624845 -38.396651 
L 512.993509 -38.442846 
L 513.362173 -38.490138 
L 513.730837 -38.538559 
L 514.099501 -38.588141 
L 514.468164 -38.638915 
L 514.836828 -38.690913 
L 515.205492 -38.744164 
L 515.574156 -38.798701 
L 515.94282 -38.854551 
L 516.311483 -38.911746 
L 516.680147 -38.970312 
L 517.048811 -39.030278 
L 517.417475 -39.091669 
L 517.786139 -39.154512 
L 518.154803 -39.218829 
L 518.523466 -39.284643 
L 518.89213 -39.351975 
L 519.260794 -39.420843 
L 519.629458 -39.491265 
L 519.998122 -39.563256 
L 520.366785 -39.636828 
L 520.735449 -39.711994 
L 521.104113 -39.788762 
L 521.472777 -39.867139 
L 521.841441 -39.947129 
L 522.210105 -40.028734 
L 522.578768 -40.111953 
L 522.947432 -40.196784 
L 523.316096 -40.283221 
L 523.68476 -40.371256 
L 524.053424 -40.46088 
L 524.422087 -40.552079 
L 524.790751 -40.644839 
L 525.159415 -40.739142 
L 525.528079 -40.834968 
L 525.896743 -40.932295 
L 526.265406 -41.0311 
L 526.63407 -41.131357 
L 527.002734 -41.233036 
L 527.371398 -41.33611 
L 527.740062 -41.440545 
L 528.108726 -41.54631 
L 528.477389 -41.653368 
L 528.846053 -41.761686 
L 529.214717 -41.871225 
L 529.583381 -41.981948 
L 529.952045 -42.093815 
L 530.320708 -42.206789 
L 530.689372 -42.320828 
L 531.058036 -42.435892 
L 531.4267 -42.551942 
L 531.795364 -42.668936 
L 532.164028 -42.786835 
L 532.532691 -42.905598 
L 532.901355 -43.025185 
L 533.270019 -43.145559 
L 533.638683 -43.26668 
L 534.007347 -43.388512 
L 534.37601 -43.511017 
L 534.744674 -43.634162 
L 535.113338 -43.75791 
L 535.482002 -43.88223 
L 535.850666 -44.00709 
L 536.21933 -44.13246 
L 536.587993 -44.258311 
L 536.956657 -44.384616 
L 537.325321 -44.511349 
L 537.693985 -44.638486 
L 538.062649 -44.766005 
L 538.431312 -44.893883 
L 538.799976 -45.022103 
L 539.16864 -45.150644 
L 539.537304 -45.279492 
L 539.905968 -45.40863 
L 540.274632 -45.538045 
L 540.643295 -45.667723 
L 541.011959 -45.797654 
L 541.380623 -45.927827 
L 541.749287 -46.058231 
L 542.117951 -46.18886 
L 542.486614 -46.319705 
L 542.855278 -46.45076 
L 543.223942 -46.582017 
L 543.592606 -46.713473 
L 543.96127 -46.845121 
L 544.329934 -46.976956 
L 544.698597 -47.108975 
L 545.067261 -47.241174 
L 545.435925 -47.373548 
L 545.804589 -47.506094 
L 546.173253 -47.638807 
L 546.541916 -47.771686 
L 546.91058 -47.904725 
L 547.279244 -48.037921 
L 547.647908 -48.171272 
L 548.016572 -48.304772 
L 548.385236 -48.43842 
L 548.753899 -48.572211 
L 549.122563 -48.706142 
L 549.491227 -48.840209 
L 549.859891 -48.974411 
L 550.228555 -49.108743 
L 550.597218 -49.243205 
L 550.965882 -49.377793 
L 551.334546 -49.512507 
L 551.70321 -49.647347 
L 552.071874 -49.782311 
L 552.440537 -49.917402 
L 552.809201 -50.052621 
L 553.177865 -50.187972 
L 553.546529 -50.323459 
L 553.915193 -50.459089 
L 554.283857 -50.594869 
L 554.65252 -50.730809 
L 555.021184 -50.866919 
L 555.389848 -51.003214 
L 555.758512 -51.139707 
L 556.127176 -51.276417 
L 556.495839 -51.413363 
L 556.864503 -51.550568 
L 557.233167 -51.688055 
L 557.601831 -51.825853 
L 557.970495 -51.96399 
L 558.339159 -52.102499 
L 558.707822 -52.241416 
L 559.076486 -52.380776 
L 559.44515 -52.520622 
L 559.813814 -52.660995 
L 560.182478 -52.801941 
L 560.551141 -52.943508 
L 560.919805 -53.085746 
L 561.288469 -53.228707 
L 561.657133 -53.372448 
L 562.025797 -53.517024 
L 562.394461 -53.662494 
L 562.763124 -53.80892 
L 563.131788 -53.956363 
L 563.500452 -54.104887 
L 563.869116 -54.254557 
L 564.23778 -54.405438 
L 564.606443 -54.557598 
L 564.975107 -54.711102 
L 565.343771 -54.866019 
L 565.712435 -55.022417 
L 566.081099 -55.18036 
L 566.449763 -55.339918 
L 566.818426 -55.501154 
L 567.18709 -55.664135 
L 567.555754 -55.828923 
L 567.924418 -55.995581 
L 568.293082 -56.164168 
L 568.661745 -56.334743 
L 569.030409 -56.507363 
L 569.399073 -56.68208 
L 569.767737 -56.858946 
L 570.136401 -57.038008 
L 570.505065 -57.219313 
L 570.873728 -57.402902 
L 571.242392 -57.588815 
L 571.611056 -57.777086 
L 571.97972 -57.967749 
L 572.348384 -58.160832 
L 572.717047 -58.35636 
L 573.085711 -58.554356 
L 573.454375 -58.754838 
L 573.823039 -58.957822 
L 574.191703 -59.163318 
L 574.560366 -59.371336 
L 574.92903 -59.581882 
L 575.297694 -59.794959 
L 575.666358 -60.010566 
L 576.035022 -60.228702 
L 576.403686 -60.449362 
L 576.772349 -60.672539 
L 577.141013 -60.898226 
L 577.509677 -61.126413 
L 577.878341 -61.35709 
L 578.247005 -61.590245 
L 578.615668 -61.825867 
L 578.984332 -62.063945 
L 579.352996 -62.304467 
L 579.72166 -62.547424 
L 580.090324 -62.792806 
L 580.458988 -63.040607 
L 580.827651 -63.290821 
L 581.196315 -63.543445 
L 581.564979 -63.798479 
L 581.933643 -64.055927 
L 582.302307 -64.315795 
L 582.67097 -64.578094 
L 583.039634 -64.842839 
L 583.408298 -65.11005 
L 583.776962 -65.379752 
L 584.145626 -65.651975 
L 584.51429 -65.926754 
L 584.882953 -66.204132 
L 585.251617 -66.484155 
L 585.620281 -66.766877 
L 585.988945 -67.052359 
L 586.357609 -67.340667 
L 586.726272 -67.631874 
L 587.094936 -67.926061 
L 587.4636 -68.223313 
L 587.832264 -68.523725 
L 588.200928 -68.827395 
L 588.569592 -69.134431 
L 588.938255 -69.444944 
L 589.306919 -69.759055 
L 589.675583 -70.076887 
L 590.044247 -70.398571 
L 590.412911 -70.724244 
L 590.781574 -71.054047 
L 591.150238 -71.388125 
L 591.518902 -71.72663 
L 591.887566 -72.069714 
L 592.25623 -72.417537 
L 592.624894 -72.770258 
L 592.993557 -73.128042 
L 592.993557 -34.848 
L 592.993557 -34.848 
L 592.624894 -34.848 
L 592.25623 -34.848 
L 591.887566 -34.848 
L 591.518902 -34.848 
L 591.150238 -34.848 
L 590.781574 -34.848 
L 590.412911 -34.848 
L 590.044247 -34.848 
L 589.675583 -34.848 
L 589.306919 -34.848 
L 588.938255 -34.848 
L 588.569592 -34.848 
L 588.200928 -34.848 
L 587.832264 -34.848 
L 587.4636 -34.848 
L 587.094936 -34.848 
L 586.726272 -34.848 
L 586.357609 -34.848 
L 585.988945 -34.848 
L 585.620281 -34.848 
L 585.251617 -34.848 
L 584.882953 -34.848 
L 584.51429 -34.848 
L 584.145626 -34.848 
L 583.776962 -34.848 
L 583.408298 -34.848 
L 583.039634 -34.848 
L 582.67097 -34.848 
L 582.302307 -34.848 
L 581.933643 -34.848 
L 581.564979 -34.848 
L 581.196315 -34.848 
L 580.827651 -34.848 
L 580.458988 -34.848 
L 580.090324 -34.848 
L 579.72166 -34.848 
L 579.352996 -34.848 
L 578.984332 -34.848 
L 578.615668 -34.848 
L 578.247005 -34.848 
L 577.878341 -34.848 
L 577.509677 -34.848 
L 577.141013 -34.848 
L 576.772349 -34.848 
L 576.403686 -34.848 
L 576.035022 -34.848 
L 575.666358 -34.848 
L 575.297694 -34.848 
L 574.92903 -34.848 
L 574.560366 -34.848 
L 574.191703 -34.848 
L 573.823039 -34.848 
L 573.454375 -34.848 
L 573.085711 -34.848 
L 572.717047 -34.848 
L 572.348384 -34.848 
L 571.97972 -34.848 
L 571.611056 -34.848 
L 571.242392 -34.848 
L 570.873728 -34.848 
L 570.505065 -34.848 
L 570.136401 -34.848 
L 569.767737 -34.848 
L 569.399073 -34.848 
L 569.030409 -34.848 
L 568.661745 -34.848 
L 568.293082 -34.848 
L 567.924418 -34.848 
L 567.555754 -34.848 
L 567.18709 -34.848 
L 566.818426 -34.848 
L 566.449763 -34.848 
L 566.081099 -34.848 
L 565.712435 -34.848 
L 565.343771 -34.848 
L 564.975107 -34.848 
L 564.606443 -34.848 
L 564.23778 -34.848 
L 563.869116 -34.848 
L 563.500452 -34.848 
L 563.131788 -34.848 
L 562.763124 -34.848 
L 562.394461 -34.848 
L 562.025797 -34.848 
L 561.657133 -34.848 
L 561.288469 -34.848 
L 560.919805 -34.848 
L 560.551141 -34.848 
L 560.182478 -34.848 
L 559.813814 -34.848 
L 559.44515 -34.848 
L 559.076486 -34.848 
L 558.707822 -34.848 
L 558.339159 -34.848 
L 557.970495 -34.848 
L 557.601831 -34.848 
L 557.233167 -34.848 
L 556.864503 -34.848 
L 556.495839 -34.848 
L 556.127176 -34.848 
L 555.758512 -34.848 
L 555.389848 -34.848 
L 555.021184 -34.848 
L 554.65252 -34.848 
L 554.283857 -34.848 
L 553.915193 -34.848 
L 553.546529 -34.848 
L 553.177865 -34.848 
L 552.809201 -34.848 
L 552.440537 -34.848 
L 552.071874 -34.848 
L 551.70321 -34.848 
L 551.334546 -34.848 
L 550.965882 -34.848 
L 550.597218 -34.848 
L 550.228555 -34.848 
L 549.859891 -34.848 
L 549.491227 -34.848 
L 549.122563 -34.848 
L 548.753899 -34.848 
L 548.385236 -34.848 
L 548.016572 -34.848 
L 547.647908 -34.848 
L 547.279244 -34.848 
L 546.91058 -34.848 
L 546.541916 -34.848 
L 546.173253 -34.848 
L 545.804589 -34.848 
L 545.435925 -34.848 
L 545.067261 -34.848 
L 544.698597 -34.848 
L 544.329934 -34.848 
L 543.96127 -34.848 
L 543.592606 -34.848 
L 543.223942 -34.848 
L 542.855278 -34.848 
L 542.486614 -34.848 
L 542.117951 -34.848 
L 541.749287 -34.848 
L 541.380623 -34.848 
L 541.011959 -34.848 
L 540.643295 -34.848 
L 540.274632 -34.848 
L 539.905968 -34.848 
L 539.537304 -34.848 
L 539.16864 -34.848 
L 538.799976 -34.848 
L 538.431312 -34.848 
L 538.062649 -34.848 
L 537.693985 -34.848 
L 537.325321 -34.848 
L 536.956657 -34.848 
L 536.587993 -34.848 
L 536.21933 -34.848 
L 535.850666 -34.848 
L 535.482002 -34.848 
L 535.113338 -34.848 
L 534.744674 -34.848 
L 534.37601 -34.848 
L 534.007347 -34.848 
L 533.638683 -34.848 
L 533.270019 -34.848 
L 532.901355 -34.848 
L 532.532691 -34.848 
L 532.164028 -34.848 
L 531.795364 -34.848 
L 531.4267 -34.848 
L 531.058036 -34.848 
L 530.689372 -34.848 
L 530.320708 -34.848 
L 529.952045 -34.848 
L 529.583381 -34.848 
L 529.214717 -34.848 
L 528.846053 -34.848 
L 528.477389 -34.848 
L 528.108726 -34.848 
L 527.740062 -34.848 
L 527.371398 -34.848 
L 527.002734 -34.848 
L 526.63407 -34.848 
L 526.265406 -34.848 
L 525.896743 -34.848 
L 525.528079 -34.848 
L 525.159415 -34.848 
L 524.790751 -34.848 
L 524.422087 -34.848 
L 524.053424 -34.848 
L 523.68476 -34.848 
L 523.316096 -34.848 
L 522.947432 -34.848 
L 522.578768 -34.848 
L 522.210105 -34.848 
L 521.841441 -34.848 
L 521.472777 -34.848 
L 521.104113 -34.848 
L 520.735449 -34.848 
L 520.366785 -34.848 
L 519.998122 -34.848 
L 519.629458 -34.848 
L 519.260794 -34.848 
L 518.89213 -34.848 
L 518.523466 -34.848 
L 518.154803 -34.848 
L 517.786139 -34.848 
L 517.417475 -34.848 
L 517.048811 -34.848 
L 516.680147 -34.848 
L 516.311483 -34.848 
L 515.94282 -34.848 
L 515.574156 -34.848 
L 515.205492 -34.848 
L 514.836828 -34.848 
L 514.468164 -34.848 
L 514.099501 -34.848 
L 513.730837 -34.848 
L 513.362173 -34.848 
L 512.993509 -34.848 
L 512.624845 -34.848 
L 512.256181 -34.848 
L 511.887518 -34.848 
L 511.518854 -34.848 
L 511.15019 -34.848 
L 510.781526 -34.848 
L 510.412862 -34.848 
L 510.044199 -34.848 
L 509.675535 -34.848 
L 509.306871 -34.848 
L 508.938207 -34.848 
L 508.569543 -34.848 
L 508.200879 -34.848 
L 507.832216 -34.848 
L 507.463552 -34.848 
L 507.094888 -34.848 
L 506.726224 -34.848 
L 506.35756 -34.848 
L 505.988897 -34.848 
L 505.620233 -34.848 
L 505.251569 -34.848 
L 504.882905 -34.848 
L 504.514241 -34.848 
L 504.145577 -34.848 
L 503.776914 -34.848 
L 503.40825 -34.848 
L 503.039586 -34.848 
L 502.670922 -34.848 
L 502.302258 -34.848 
L 501.933595 -34.848 
L 501.564931 -34.848 
L 501.196267 -34.848 
L 500.827603 -34.848 
L 500.458939 -34.848 
L 500.090276 -34.848 
L 499.721612 -34.848 
L 499.352948 -34.848 
L 498.984284 -34.848 
L 498.61562 -34.848 
L 498.246956 -34.848 
L 497.878293 -34.848 
L 497.509629 -34.848 
L 497.140965 -34.848 
L 496.772301 -34.848 
L 496.403637 -34.848 
L 496.034974 -34.848 
L 495.66631 -34.848 
L 495.297646 -34.848 
L 494.928982 -34.848 
L 494.560318 -34.848 
L 494.191654 -34.848 
L 493.822991 -34.848 
L 493.454327 -34.848 
L 493.085663 -34.848 
L 492.716999 -34.848 
L 492.348335 -34.848 
L 491.979672 -34.848 
L 491.611008 -34.848 
L 491.242344 -34.848 
L 490.87368 -34.848 
L 490.505016 -34.848 
L 490.136352 -34.848 
L 489.767689 -34.848 
L 489.399025 -34.848 
L 489.030361 -34.848 
L 488.661697 -34.848 
L 488.293033 -34.848 
L 487.92437 -34.848 
L 487.555706 -34.848 
L 487.187042 -34.848 
L 486.818378 -34.848 
L 486.449714 -34.848 
L 486.08105 -34.848 
L 485.712387 -34.848 
L 485.343723 -34.848 
L 484.975059 -34.848 
L 484.606395 -34.848 
L 484.237731 -34.848 
L 483.869068 -34.848 
L 483.500404 -34.848 
L 483.13174 -34.848 
L 482.763076 -34.848 
L 482.394412 -34.848 
L 482.025748 -34.848 
L 481.657085 -34.848 
L 481.288421 -34.848 
L 480.919757 -34.848 
L 480.551093 -34.848 
L 480.182429 -34.848 
L 479.813766 -34.848 
L 479.445102 -34.848 
L 479.076438 -34.848 
L 478.707774 -34.848 
L 478.33911 -34.848 
L 477.970446 -34.848 
L 477.601783 -34.848 
L 477.233119 -34.848 
L 476.864455 -34.848 
L 476.495791 -34.848 
L 476.127127 -34.848 
L 475.758464 -34.848 
L 475.3898 -34.848 
L 475.021136 -34.848 
L 474.652472 -34.848 
L 474.283808 -34.848 
L 473.915145 -34.848 
L 473.546481 -34.848 
L 473.177817 -34.848 
L 472.809153 -34.848 
L 472.440489 -34.848 
L 472.071825 -34.848 
L 471.703162 -34.848 
L 471.334498 -34.848 
L 470.965834 -34.848 
L 470.59717 -34.848 
L 470.228506 -34.848 
L 469.859843 -34.848 
L 469.491179 -34.848 
L 469.122515 -34.848 
L 468.753851 -34.848 
L 468.385187 -34.848 
L 468.016523 -34.848 
L 467.64786 -34.848 
L 467.279196 -34.848 
L 466.910532 -34.848 
L 466.541868 -34.848 
L 466.173204 -34.848 
L 465.804541 -34.848 
L 465.435877 -34.848 
L 465.067213 -34.848 
L 464.698549 -34.848 
L 464.329885 -34.848 
L 463.961221 -34.848 
L 463.592558 -34.848 
L 463.223894 -34.848 
L 462.85523 -34.848 
L 462.486566 -34.848 
L 462.117902 -34.848 
L 461.749239 -34.848 
L 461.380575 -34.848 
L 461.011911 -34.848 
L 460.643247 -34.848 
L 460.274583 -34.848 
L 459.905919 -34.848 
L 459.537256 -34.848 
L 459.168592 -34.848 
L 458.799928 -34.848 
L 458.431264 -34.848 
L 458.0626 -34.848 
L 457.693937 -34.848 
L 457.325273 -34.848 
L 456.956609 -34.848 
L 456.587945 -34.848 
L 456.219281 -34.848 
L 455.850617 -34.848 
L 455.481954 -34.848 
L 455.11329 -34.848 
L 454.744626 -34.848 
L 454.375962 -34.848 
L 454.007298 -34.848 
L 453.638635 -34.848 
L 453.269971 -34.848 
L 452.901307 -34.848 
L 452.532643 -34.848 
L 452.163979 -34.848 
L 451.795315 -34.848 
L 451.426652 -34.848 
L 451.057988 -34.848 
L 450.689324 -34.848 
L 450.32066 -34.848 
L 449.951996 -34.848 
L 449.583333 -34.848 
L 449.214669 -34.848 
L 448.846005 -34.848 
L 448.477341 -34.848 
L 448.108677 -34.848 
L 447.740014 -34.848 
L 447.37135 -34.848 
L 447.002686 -34.848 
L 446.634022 -34.848 
L 446.265358 -34.848 
L 445.896694 -34.848 
L 445.528031 -34.848 
L 445.159367 -34.848 
L 444.790703 -34.848 
L 444.422039 -34.848 
L 444.053375 -34.848 
L 443.684712 -34.848 
L 443.316048 -34.848 
L 442.947384 -34.848 
L 442.57872 -34.848 
L 442.210056 -34.848 
L 441.841392 -34.848 
L 441.472729 -34.848 
L 441.104065 -34.848 
L 440.735401 -34.848 
L 440.366737 -34.848 
L 439.998073 -34.848 
L 439.62941 -34.848 
L 439.260746 -34.848 
L 438.892082 -34.848 
L 438.523418 -34.848 
L 438.154754 -34.848 
L 437.78609 -34.848 
L 437.417427 -34.848 
L 437.048763 -34.848 
L 436.680099 -34.848 
L 436.311435 -34.848 
L 435.942771 -34.848 
L 435.574108 -34.848 
L 435.205444 -34.848 
L 434.83678 -34.848 
L 434.468116 -34.848 
L 434.099452 -34.848 
L 433.730788 -34.848 
L 433.362125 -34.848 
L 432.993461 -34.848 
L 432.624797 -34.848 
L 432.256133 -34.848 
L 431.887469 -34.848 
L 431.518806 -34.848 
L 431.150142 -34.848 
L 430.781478 -34.848 
L 430.412814 -34.848 
L 430.04415 -34.848 
L 429.675486 -34.848 
L 429.306823 -34.848 
L 428.938159 -34.848 
L 428.569495 -34.848 
L 428.200831 -34.848 
L 427.832167 -34.848 
L 427.463504 -34.848 
L 427.09484 -34.848 
L 426.726176 -34.848 
L 426.357512 -34.848 
L 425.988848 -34.848 
L 425.620185 -34.848 
L 425.251521 -34.848 
L 424.882857 -34.848 
L 424.514193 -34.848 
L 424.145529 -34.848 
L 423.776865 -34.848 
L 423.408202 -34.848 
L 423.039538 -34.848 
L 422.670874 -34.848 
L 422.30221 -34.848 
L 421.933546 -34.848 
L 421.564883 -34.848 
L 421.196219 -34.848 
L 420.827555 -34.848 
L 420.458891 -34.848 
L 420.090227 -34.848 
L 419.721563 -34.848 
L 419.3529 -34.848 
L 418.984236 -34.848 
L 418.615572 -34.848 
L 418.246908 -34.848 
L 417.878244 -34.848 
L 417.509581 -34.848 
L 417.140917 -34.848 
L 416.772253 -34.848 
L 416.403589 -34.848 
L 416.034925 -34.848 
L 415.666261 -34.848 
L 415.297598 -34.848 
L 414.928934 -34.848 
L 414.56027 -34.848 
z
" style="stroke: #4c72b0; stroke-opacity: 0.3"/>
    </defs>
    <g>
     <use xlink:href="#m2630cafd4a" x="0" y="158.4" style="fill: #4c72b0; fill-opacity: 0.3; stroke: #4c72b0; stroke-opacity: 0.3"/>
    </g>
   </g>
   <g id="line2d_35">
    <path d="M 414.56027 123.547225 
L 430.781478 123.420587 
L 440.735401 123.116134 
L 476.495791 121.758723 
L 493.822991 121.414637 
L 501.933595 120.984968 
L 509.306871 120.37471 
L 514.836828 119.709087 
L 519.629458 118.908735 
L 524.053424 117.93912 
L 528.477389 116.746632 
L 534.007347 115.011488 
L 542.486614 112.080295 
L 556.495839 106.986637 
L 564.23778 103.994562 
L 568.661745 102.065257 
L 572.348384 100.239168 
L 576.035022 98.171298 
L 579.72166 95.852576 
L 583.776962 93.020248 
L 587.4636 90.176687 
L 590.781574 87.345953 
L 593.730885 84.540541 
L 596.311532 81.796633 
L 598.892178 78.72494 
L 601.472825 75.280378 
L 604.053472 71.438117 
L 606.634119 67.201526 
L 609.583429 61.924394 
L 613.270067 54.835785 
L 622.855327 36.085461 
L 625.804637 30.920537 
L 628.385284 26.841196 
L 630.597267 23.723259 
L 632.80925 20.98596 
L 634.652569 19.01131 
L 636.495888 17.325563 
L 638.339207 15.936407 
L 640.182526 14.849785 
L 642.025845 14.06947 
L 643.5005 13.666359 
L 644.975156 13.458262 
L 646.449811 13.441496 
L 647.924466 13.609922 
L 649.767785 14.06725 
L 651.611104 14.777094 
L 653.454423 15.710748 
L 655.666406 17.07976 
L 658.247053 18.941906 
L 661.933691 21.917752 
L 669.675631 28.56701 
L 677.417571 35.403158 
L 681.10421 38.954718 
L 684.422184 42.4781 
L 687.371494 45.940116 
L 690.320805 49.73951 
L 693.638779 54.397315 
L 697.694081 60.526097 
L 712.809298 83.888841 
L 716.495936 88.985447 
L 720.182574 93.706163 
L 723.869212 98.042859 
L 727.55585 102.009985 
L 731.242489 105.632747 
L 734.929127 108.933 
L 738.615765 111.917845 
L 741.933739 114.32535 
L 745.251714 116.450274 
L 748.201024 118.085904 
L 751.150335 119.473215 
L 754.099645 120.611271 
L 757.048956 121.51008 
L 759.998266 122.190713 
L 763.316241 122.73318 
L 767.002879 123.117598 
L 771.795508 123.382277 
L 778.800121 123.518556 
L 782.855423 123.54068 
L 782.855423 123.54068 
" style="fill: none; stroke: #4c72b0; stroke-width: 1.5; stroke-linecap: round"/>
   </g>
   <g id="line2d_36">
    <path d="M 33.12 123.552 
L 794.88 123.552 
" style="fill: none; stroke: #808080; stroke-width: 0.5; stroke-linecap: round"/>
   </g>
   <g id="text_10">
    <text style="font-size: 10px; font-family: 'Arial', 'DejaVu Sans', 'Liberation Sans', 'Bitstream Vera Sans', sans-serif; text-anchor: middle" x="648.440183" y="121.447313" transform="rotate(-0 648.440183 121.447313)">Sweden (2025)</text>
   </g>
  </g>
 </g>
</svg>
