<?xml version="1.0" encoding="utf-8" standalone="no"?>
<!DOCTYPE svg PUBLIC "-//W3C//DTD SVG 1.1//EN"
  "http://www.w3.org/Graphics/SVG/1.1/DTD/svg11.dtd">
<svg xmlns:xlink="http://www.w3.org/1999/xlink" width="828pt" height="158.4pt" viewBox="0 0 828 158.4" xmlns="http://www.w3.org/2000/svg" version="1.1">
 <metadata>
  <rdf:RDF xmlns:dc="http://purl.org/dc/elements/1.1/" xmlns:cc="http://creativecommons.org/ns#" xmlns:rdf="http://www.w3.org/1999/02/22-rdf-syntax-ns#">
   <cc:Work>
    <dc:type rdf:resource="http://purl.org/dc/dcmitype/StillImage"/>
    <dc:date>2026-05-22T12:42:36.305601</dc:date>
    <dc:format>image/svg+xml</dc:format>
    <dc:creator>
     <cc:Agent>
      <dc:title>Matplotlib v3.10.9, https://matplotlib.org/</dc:title>
     </cc:Agent>
    </dc:creator>
   </cc:Work>
  </rdf:RDF>
 </metadata>
 <defs>
  <style type="text/css">*{stroke-linejoin: round; stroke-linecap: butt}</style>
 </defs>
 <g id="figure_1">
  <g id="patch_1">
   <path d="M 0 158.4 
L 828 158.4 
L 828 0 
L 0 0 
z
" style="fill: #ffffff"/>
  </g>
  <g id="axes_1">
   <g id="patch_2">
    <path d="M 33.12 123.552 
L 794.88 123.552 
L 794.88 7.92 
L 33.12 7.92 
z
" style="fill: #ffffff"/>
   </g>
   <g id="matplotlib.axis_1">
    <g id="xtick_1">
     <g id="line2d_1">
      <defs>
       <path id="m95e4acc9d3" d="M 0 0 
L 0 3.5 
" style="stroke: #262626; stroke-width: 0.8"/>
      </defs>
      <g>
       <use xlink:href="#m95e4acc9d3" x="308.695263" y="123.552" style="fill: #262626; stroke: #262626; stroke-width: 0.8"/>
      </g>
     </g>
     <g id="text_1">
      <text style="font-size: 10px; font-family: 'Arial', 'DejaVu Sans', 'Liberation Sans', 'Bitstream Vera Sans', sans-serif; text-anchor: middle; fill: #262626" x="308.695263" y="137.709812" transform="rotate(-0 308.695263 137.709812)">$1</text>
     </g>
    </g>
    <g id="xtick_2">
     <g id="line2d_2">
      <g>
       <use xlink:href="#m95e4acc9d3" x="368.847405" y="123.552" style="fill: #262626; stroke: #262626; stroke-width: 0.8"/>
      </g>
     </g>
     <g id="text_2">
      <text style="font-size: 10px; font-family: 'Arial', 'DejaVu Sans', 'Liberation Sans', 'Bitstream Vera Sans', sans-serif; text-anchor: middle; fill: #262626" x="368.847405" y="137.709812" transform="rotate(-0 368.847405 137.709812)">$2</text>
     </g>
    </g>
    <g id="xtick_3">
     <g id="line2d_3">
      <g>
       <use xlink:href="#m95e4acc9d3" x="448.364212" y="123.552" style="fill: #262626; stroke: #262626; stroke-width: 0.8"/>
      </g>
     </g>
     <g id="text_3">
      <text style="font-size: 10px; font-family: 'Arial', 'DejaVu Sans', 'Liberation Sans', 'Bitstream Vera Sans', sans-serif; text-anchor: middle; fill: #262626" x="448.364212" y="137.709812" transform="rotate(-0 448.364212 137.709812)">$5</text>
     </g>
    </g>
    <g id="xtick_4">
     <g id="line2d_4">
      <g>
       <use xlink:href="#m95e4acc9d3" x="508.516354" y="123.552" style="fill: #262626; stroke: #262626; stroke-width: 0.8"/>
      </g>
     </g>
     <g id="text_4">
      <text style="font-size: 10px; font-family: 'Arial', 'DejaVu Sans', 'Liberation Sans', 'Bitstream Vera Sans', sans-serif; text-anchor: middle; fill: #262626" x="508.516354" y="137.709812" transform="rotate(-0 508.516354 137.709812)">$10</text>
     </g>
    </g>
    <g id="xtick_5">
     <g id="line2d_5">
      <g>
       <use xlink:href="#m95e4acc9d3" x="568.668496" y="123.552" style="fill: #262626; stroke: #262626; stroke-width: 0.8"/>
      </g>
     </g>
     <g id="text_5">
      <text style="font-size: 10px; font-family: 'Arial', 'DejaVu Sans', 'Liberation Sans', 'Bitstream Vera Sans', sans-serif; text-anchor: middle; fill: #262626" x="568.668496" y="137.709812" transform="rotate(-0 568.668496 137.709812)">$20</text>
     </g>
    </g>
    <g id="xtick_6">
     <g id="line2d_6">
      <g>
       <use xlink:href="#m95e4acc9d3" x="648.185303" y="123.552" style="fill: #262626; stroke: #262626; stroke-width: 0.8"/>
      </g>
     </g>
     <g id="text_6">
      <text style="font-size: 10px; font-family: 'Arial', 'DejaVu Sans', 'Liberation Sans', 'Bitstream Vera Sans', sans-serif; text-anchor: middle; fill: #262626" x="648.185303" y="137.709812" transform="rotate(-0 648.185303 137.709812)">$50</text>
     </g>
    </g>
    <g id="xtick_7">
     <g id="line2d_7">
      <g>
       <use xlink:href="#m95e4acc9d3" x="708.337445" y="123.552" style="fill: #262626; stroke: #262626; stroke-width: 0.8"/>
      </g>
     </g>
     <g id="text_7">
      <text style="font-size: 10px; font-family: 'Arial', 'DejaVu Sans', 'Liberation Sans', 'Bitstream Vera Sans', sans-serif; text-anchor: middle; fill: #262626" x="708.337445" y="137.709812" transform="rotate(-0 708.337445 137.709812)">$100</text>
     </g>
    </g>
    <g id="xtick_8">
     <g id="line2d_8">
      <g>
       <use xlink:href="#m95e4acc9d3" x="768.489587" y="123.552" style="fill: #262626; stroke: #262626; stroke-width: 0.8"/>
      </g>
     </g>
     <g id="text_8">
      <text style="font-size: 10px; font-family: 'Arial', 'DejaVu Sans', 'Liberation Sans', 'Bitstream Vera Sans', sans-serif; text-anchor: middle; fill: #262626" x="768.489587" y="137.709812" transform="rotate(-0 768.489587 137.709812)">$200</text>
     </g>
    </g>
    <g id="xtick_9">
     <g id="line2d_9">
      <defs>
       <path id="mf50a97f08f" d="M 0 0 
L 0 2 
" style="stroke: #262626; stroke-width: 0.6"/>
      </defs>
      <g>
       <use xlink:href="#mf50a97f08f" x="48.72203" y="123.552" style="fill: #262626; stroke: #262626; stroke-width: 0.6"/>
      </g>
     </g>
    </g>
    <g id="xtick_10">
     <g id="line2d_10">
      <g>
       <use xlink:href="#mf50a97f08f" x="64.544113" y="123.552" style="fill: #262626; stroke: #262626; stroke-width: 0.6"/>
      </g>
     </g>
    </g>
    <g id="xtick_11">
     <g id="line2d_11">
      <g>
       <use xlink:href="#mf50a97f08f" x="77.921493" y="123.552" style="fill: #262626; stroke: #262626; stroke-width: 0.6"/>
      </g>
     </g>
    </g>
    <g id="xtick_12">
     <g id="line2d_12">
      <g>
       <use xlink:href="#mf50a97f08f" x="89.509507" y="123.552" style="fill: #262626; stroke: #262626; stroke-width: 0.6"/>
      </g>
     </g>
    </g>
    <g id="xtick_13">
     <g id="line2d_13">
      <g>
       <use xlink:href="#mf50a97f08f" x="99.73086" y="123.552" style="fill: #262626; stroke: #262626; stroke-width: 0.6"/>
      </g>
     </g>
    </g>
    <g id="xtick_14">
     <g id="line2d_14">
      <g>
       <use xlink:href="#mf50a97f08f" x="169.026314" y="123.552" style="fill: #262626; stroke: #262626; stroke-width: 0.6"/>
      </g>
     </g>
    </g>
    <g id="xtick_15">
     <g id="line2d_15">
      <g>
       <use xlink:href="#mf50a97f08f" x="204.213062" y="123.552" style="fill: #262626; stroke: #262626; stroke-width: 0.6"/>
      </g>
     </g>
    </g>
    <g id="xtick_16">
     <g id="line2d_16">
      <g>
       <use xlink:href="#mf50a97f08f" x="229.178456" y="123.552" style="fill: #262626; stroke: #262626; stroke-width: 0.6"/>
      </g>
     </g>
    </g>
    <g id="xtick_17">
     <g id="line2d_17">
      <g>
       <use xlink:href="#mf50a97f08f" x="248.543121" y="123.552" style="fill: #262626; stroke: #262626; stroke-width: 0.6"/>
      </g>
     </g>
    </g>
    <g id="xtick_18">
     <g id="line2d_18">
      <g>
       <use xlink:href="#mf50a97f08f" x="264.365204" y="123.552" style="fill: #262626; stroke: #262626; stroke-width: 0.6"/>
      </g>
     </g>
    </g>
    <g id="xtick_19">
     <g id="line2d_19">
      <g>
       <use xlink:href="#mf50a97f08f" x="277.742584" y="123.552" style="fill: #262626; stroke: #262626; stroke-width: 0.6"/>
      </g>
     </g>
    </g>
    <g id="xtick_20">
     <g id="line2d_20">
      <g>
       <use xlink:href="#mf50a97f08f" x="289.330599" y="123.552" style="fill: #262626; stroke: #262626; stroke-width: 0.6"/>
      </g>
     </g>
    </g>
    <g id="xtick_21">
     <g id="line2d_21">
      <g>
       <use xlink:href="#mf50a97f08f" x="299.551951" y="123.552" style="fill: #262626; stroke: #262626; stroke-width: 0.6"/>
      </g>
     </g>
    </g>
    <g id="xtick_22">
     <g id="line2d_22">
      <g>
       <use xlink:href="#mf50a97f08f" x="404.034153" y="123.552" style="fill: #262626; stroke: #262626; stroke-width: 0.6"/>
      </g>
     </g>
    </g>
    <g id="xtick_23">
     <g id="line2d_23">
      <g>
       <use xlink:href="#mf50a97f08f" x="428.999547" y="123.552" style="fill: #262626; stroke: #262626; stroke-width: 0.6"/>
      </g>
     </g>
    </g>
    <g id="xtick_24">
     <g id="line2d_24">
      <g>
       <use xlink:href="#mf50a97f08f" x="464.186295" y="123.552" style="fill: #262626; stroke: #262626; stroke-width: 0.6"/>
      </g>
     </g>
    </g>
    <g id="xtick_25">
     <g id="line2d_25">
      <g>
       <use xlink:href="#mf50a97f08f" x="477.563675" y="123.552" style="fill: #262626; stroke: #262626; stroke-width: 0.6"/>
      </g>
     </g>
    </g>
    <g id="xtick_26">
     <g id="line2d_26">
      <g>
       <use xlink:href="#mf50a97f08f" x="489.15169" y="123.552" style="fill: #262626; stroke: #262626; stroke-width: 0.6"/>
      </g>
     </g>
    </g>
    <g id="xtick_27">
     <g id="line2d_27">
      <g>
       <use xlink:href="#mf50a97f08f" x="499.373042" y="123.552" style="fill: #262626; stroke: #262626; stroke-width: 0.6"/>
      </g>
     </g>
    </g>
    <g id="xtick_28">
     <g id="line2d_28">
      <g>
       <use xlink:href="#mf50a97f08f" x="603.855244" y="123.552" style="fill: #262626; stroke: #262626; stroke-width: 0.6"/>
      </g>
     </g>
    </g>
    <g id="xtick_29">
     <g id="line2d_29">
      <g>
       <use xlink:href="#mf50a97f08f" x="628.820638" y="123.552" style="fill: #262626; stroke: #262626; stroke-width: 0.6"/>
      </g>
     </g>
    </g>
    <g id="xtick_30">
     <g id="line2d_30">
      <g>
       <use xlink:href="#mf50a97f08f" x="664.007386" y="123.552" style="fill: #262626; stroke: #262626; stroke-width: 0.6"/>
      </g>
     </g>
    </g>
    <g id="xtick_31">
     <g id="line2d_31">
      <g>
       <use xlink:href="#mf50a97f08f" x="677.384767" y="123.552" style="fill: #262626; stroke: #262626; stroke-width: 0.6"/>
      </g>
     </g>
    </g>
    <g id="xtick_32">
     <g id="line2d_32">
      <g>
       <use xlink:href="#mf50a97f08f" x="688.972781" y="123.552" style="fill: #262626; stroke: #262626; stroke-width: 0.6"/>
      </g>
     </g>
    </g>
    <g id="xtick_33">
     <g id="line2d_33">
      <g>
       <use xlink:href="#mf50a97f08f" x="699.194133" y="123.552" style="fill: #262626; stroke: #262626; stroke-width: 0.6"/>
      </g>
     </g>
    </g>
    <g id="text_9">
     <text style="font-size: 10px; font-family: 'Arial', 'DejaVu Sans', 'Liberation Sans', 'Bitstream Vera Sans', sans-serif; text-anchor: middle; fill: #262626" x="414" y="150.977" transform="rotate(-0 414 150.977)">Income or consumption (day)</text>
    </g>
   </g>
   <g id="matplotlib.axis_2"/>
   <g id="FillBetweenPolyCollection_1">
    <defs>
     <path id="m7e26c700c5" d="M 519.05067 -34.848 
L 519.05067 -34.863363 
L 519.326792 -34.864689 
L 519.602914 -34.866119 
L 519.879036 -34.86766 
L 520.155158 -34.86932 
L 520.43128 -34.871105 
L 520.707402 -34.873026 
L 520.983524 -34.875091 
L 521.259646 -34.877309 
L 521.535769 -34.879689 
L 521.811891 -34.882243 
L 522.088013 -34.884982 
L 522.364135 -34.887916 
L 522.640257 -34.891058 
L 522.916379 -34.89442 
L 523.192501 -34.898016 
L 523.468623 -34.901859 
L 523.744745 -34.905964 
L 524.020867 -34.910345 
L 524.296989 -34.91502 
L 524.573111 -34.920003 
L 524.849233 -34.925313 
L 525.125355 -34.930966 
L 525.401477 -34.936982 
L 525.677599 -34.94338 
L 525.953721 -34.95018 
L 526.229843 -34.957402 
L 526.505965 -34.965068 
L 526.782087 -34.973201 
L 527.058209 -34.981823 
L 527.334332 -34.990957 
L 527.610454 -35.00063 
L 527.886576 -35.010866 
L 528.162698 -35.02169 
L 528.43882 -35.033131 
L 528.714942 -35.045215 
L 528.991064 -35.057971 
L 529.267186 -35.071428 
L 529.543308 -35.085616 
L 529.81943 -35.100565 
L 530.095552 -35.116307 
L 530.371674 -35.132874 
L 530.647796 -35.150298 
L 530.923918 -35.168612 
L 531.20004 -35.18785 
L 531.476162 -35.208048 
L 531.752284 -35.229239 
L 532.028406 -35.251459 
L 532.304528 -35.274744 
L 532.58065 -35.29913 
L 532.856772 -35.324655 
L 533.132895 -35.351356 
L 533.409017 -35.379269 
L 533.685139 -35.408433 
L 533.961261 -35.438886 
L 534.237383 -35.470665 
L 534.513505 -35.50381 
L 534.789627 -35.538357 
L 535.065749 -35.574346 
L 535.341871 -35.611814 
L 535.617993 -35.6508 
L 535.894115 -35.691341 
L 536.170237 -35.733476 
L 536.446359 -35.77724 
L 536.722481 -35.822671 
L 536.998603 -35.869805 
L 537.274725 -35.918678 
L 537.550847 -35.969326 
L 537.826969 -36.021782 
L 538.103091 -36.07608 
L 538.379213 -36.132254 
L 538.655335 -36.190334 
L 538.931458 -36.250354 
L 539.20758 -36.312341 
L 539.483702 -36.376326 
L 539.759824 -36.442335 
L 540.035946 -36.510397 
L 540.312068 -36.580535 
L 540.58819 -36.652773 
L 540.864312 -36.727135 
L 541.140434 -36.803641 
L 541.416556 -36.882311 
L 541.692678 -36.963163 
L 541.9688 -37.046212 
L 542.244922 -37.131474 
L 542.521044 -37.218962 
L 542.797166 -37.308687 
L 543.073288 -37.400658 
L 543.34941 -37.494884 
L 543.625532 -37.591369 
L 543.901654 -37.69012 
L 544.177776 -37.791136 
L 544.453898 -37.89442 
L 544.730021 -37.99997 
L 545.006143 -38.107782 
L 545.282265 -38.217851 
L 545.558387 -38.330171 
L 545.834509 -38.444732 
L 546.110631 -38.561525 
L 546.386753 -38.680537 
L 546.662875 -38.801755 
L 546.938997 -38.925161 
L 547.215119 -39.05074 
L 547.491241 -39.178471 
L 547.767363 -39.308335 
L 548.043485 -39.44031 
L 548.319607 -39.574372 
L 548.595729 -39.710496 
L 548.871851 -39.848657 
L 549.147973 -39.988826 
L 549.424095 -40.130975 
L 549.700217 -40.275075 
L 549.976339 -40.421094 
L 550.252461 -40.569002 
L 550.528584 -40.718765 
L 550.804706 -40.87035 
L 551.080828 -41.023724 
L 551.35695 -41.178851 
L 551.633072 -41.335697 
L 551.909194 -41.494226 
L 552.185316 -41.654402 
L 552.461438 -41.81619 
L 552.73756 -41.979553 
L 553.013682 -42.144455 
L 553.289804 -42.310859 
L 553.565926 -42.478731 
L 553.842048 -42.648033 
L 554.11817 -42.81873 
L 554.394292 -42.990787 
L 554.670414 -43.16417 
L 554.946536 -43.338845 
L 555.222658 -43.514777 
L 555.49878 -43.691935 
L 555.774902 -43.870285 
L 556.051024 -44.049798 
L 556.327147 -44.230443 
L 556.603269 -44.41219 
L 556.879391 -44.595012 
L 557.155513 -44.778881 
L 557.431635 -44.963771 
L 557.707757 -45.149658 
L 557.983879 -45.336517 
L 558.260001 -45.524327 
L 558.536123 -45.713067 
L 558.812245 -45.902717 
L 559.088367 -46.093258 
L 559.364489 -46.284673 
L 559.640611 -46.476947 
L 559.916733 -46.670066 
L 560.192855 -46.864017 
L 560.468977 -47.058789 
L 560.745099 -47.25437 
L 561.021221 -47.450754 
L 561.297343 -47.647932 
L 561.573465 -47.845899 
L 561.849587 -48.04465 
L 562.12571 -48.244182 
L 562.401832 -48.444493 
L 562.677954 -48.645583 
L 562.954076 -48.847452 
L 563.230198 -49.050102 
L 563.50632 -49.253536 
L 563.782442 -49.457759 
L 564.058564 -49.662776 
L 564.334686 -49.868593 
L 564.610808 -50.075217 
L 564.88693 -50.282658 
L 565.163052 -50.490925 
L 565.439174 -50.700027 
L 565.715296 -50.909976 
L 565.991418 -51.120784 
L 566.26754 -51.332463 
L 566.543662 -51.545027 
L 566.819784 -51.758489 
L 567.095906 -51.972864 
L 567.372028 -52.188168 
L 567.64815 -52.404416 
L 567.924273 -52.621623 
L 568.200395 -52.839806 
L 568.476517 -53.058982 
L 568.752639 -53.279167 
L 569.028761 -53.50038 
L 569.304883 -53.722637 
L 569.581005 -53.945955 
L 569.857127 -54.170354 
L 570.133249 -54.395849 
L 570.409371 -54.62246 
L 570.685493 -54.850203 
L 570.961615 -55.079096 
L 571.237737 -55.309158 
L 571.513859 -55.540404 
L 571.789981 -55.772853 
L 572.066103 -56.006522 
L 572.342225 -56.241427 
L 572.618347 -56.477585 
L 572.894469 -56.715013 
L 573.170591 -56.953725 
L 573.446713 -57.193739 
L 573.722836 -57.435068 
L 573.998958 -57.677728 
L 574.27508 -57.921734 
L 574.551202 -58.1671 
L 574.827324 -58.413839 
L 575.103446 -58.661964 
L 575.379568 -58.911488 
L 575.65569 -59.162425 
L 575.931812 -59.414784 
L 576.207934 -59.668578 
L 576.484056 -59.923818 
L 576.760178 -60.180514 
L 577.0363 -60.438676 
L 577.312422 -60.698313 
L 577.588544 -60.959435 
L 577.864666 -61.222048 
L 578.140788 -61.486162 
L 578.41691 -61.751784 
L 578.693032 -62.01892 
L 578.969154 -62.287577 
L 579.245276 -62.557761 
L 579.521399 -62.829477 
L 579.797521 -63.102729 
L 580.073643 -63.377523 
L 580.349765 -63.653861 
L 580.625887 -63.931748 
L 580.902009 -64.211186 
L 581.178131 -64.492178 
L 581.454253 -64.774725 
L 581.730375 -65.058829 
L 582.006497 -65.344491 
L 582.282619 -65.631712 
L 582.558741 -65.920492 
L 582.834863 -66.21083 
L 583.110985 -66.502725 
L 583.387107 -66.796178 
L 583.663229 -67.091185 
L 583.939351 -67.387745 
L 584.215473 -67.685856 
L 584.491595 -67.985515 
L 584.767717 -68.286719 
L 585.043839 -68.589463 
L 585.319962 -68.893745 
L 585.596084 -69.19956 
L 585.872206 -69.506903 
L 586.148328 -69.815769 
L 586.42445 -70.126154 
L 586.700572 -70.43805 
L 586.976694 -70.751453 
L 587.252816 -71.066355 
L 587.528938 -71.38275 
L 587.80506 -71.700632 
L 588.081182 -72.019991 
L 588.357304 -72.340822 
L 588.633426 -72.663116 
L 588.909548 -72.986864 
L 589.18567 -73.312058 
L 589.461792 -73.638689 
L 589.737914 -73.966748 
L 590.014036 -74.296225 
L 590.290158 -74.627111 
L 590.56628 -74.959395 
L 590.842402 -75.293067 
L 591.118525 -75.628116 
L 591.394647 -75.964532 
L 591.670769 -76.302303 
L 591.946891 -76.641418 
L 592.223013 -76.981864 
L 592.499135 -77.323631 
L 592.775257 -77.666705 
L 593.051379 -78.011074 
L 593.327501 -78.356725 
L 593.603623 -78.703645 
L 593.879745 -79.051822 
L 594.155867 -79.40124 
L 594.431989 -79.751886 
L 594.708111 -80.103747 
L 594.984233 -80.456807 
L 595.260355 -80.811053 
L 595.536477 -81.166468 
L 595.812599 -81.523039 
L 596.088721 -81.88075 
L 596.364843 -82.239584 
L 596.640965 -82.599527 
L 596.917088 -82.960562 
L 597.19321 -83.322672 
L 597.469332 -83.685842 
L 597.745454 -84.050054 
L 598.021576 -84.415291 
L 598.297698 -84.781536 
L 598.57382 -85.148771 
L 598.849942 -85.516979 
L 599.126064 -85.886141 
L 599.402186 -86.256239 
L 599.678308 -86.627255 
L 599.95443 -86.99917 
L 600.230552 -87.371965 
L 600.506674 -87.74562 
L 600.782796 -88.120117 
L 601.058918 -88.495436 
L 601.33504 -88.871556 
L 601.611162 -89.248458 
L 601.887284 -89.626122 
L 602.163406 -90.004526 
L 602.439528 -90.38365 
L 602.715651 -90.763474 
L 602.991773 -91.143975 
L 603.267895 -91.525133 
L 603.544017 -91.906925 
L 603.820139 -92.289331 
L 604.096261 -92.672327 
L 604.372383 -93.055892 
L 604.648505 -93.440004 
L 604.924627 -93.824639 
L 605.200749 -94.209774 
L 605.476871 -94.595387 
L 605.752993 -94.981455 
L 606.029115 -95.367953 
L 606.305237 -95.754858 
L 606.581359 -96.142147 
L 606.857481 -96.529795 
L 607.133603 -96.917778 
L 607.409725 -97.306071 
L 607.685847 -97.694651 
L 607.961969 -98.083491 
L 608.238091 -98.472568 
L 608.514214 -98.861855 
L 608.790336 -99.251329 
L 609.066458 -99.640962 
L 609.34258 -100.03073 
L 609.618702 -100.420606 
L 609.894824 -100.810565 
L 610.170946 -101.20058 
L 610.447068 -101.590626 
L 610.72319 -101.980675 
L 610.999312 -102.370701 
L 611.275434 -102.760677 
L 611.551556 -103.150576 
L 611.827678 -103.540371 
L 612.1038 -103.930034 
L 612.379922 -104.319539 
L 612.656044 -104.708858 
L 612.932166 -105.097963 
L 613.208288 -105.486827 
L 613.48441 -105.875421 
L 613.760532 -106.263717 
L 614.036654 -106.651687 
L 614.312777 -107.039304 
L 614.588899 -107.426537 
L 614.865021 -107.81336 
L 615.141143 -108.199743 
L 615.417265 -108.585658 
L 615.693387 -108.971075 
L 615.969509 -109.355966 
L 616.245631 -109.740301 
L 616.521753 -110.124052 
L 616.797875 -110.50719 
L 617.073997 -110.889684 
L 617.350119 -111.271506 
L 617.626241 -111.652626 
L 617.902363 -112.033015 
L 618.178485 -112.412643 
L 618.454607 -112.791479 
L 618.730729 -113.169496 
L 619.006851 -113.546662 
L 619.282973 -113.922947 
L 619.559095 -114.298323 
L 619.835217 -114.672758 
L 620.11134 -115.046223 
L 620.387462 -115.418688 
L 620.663584 -115.790122 
L 620.939706 -116.160496 
L 621.215828 -116.52978 
L 621.49195 -116.897942 
L 621.768072 -117.264953 
L 622.044194 -117.630783 
L 622.320316 -117.995402 
L 622.596438 -118.358778 
L 622.87256 -118.720883 
L 623.148682 -119.081685 
L 623.424804 -119.441154 
L 623.700926 -119.799261 
L 623.977048 -120.155975 
L 624.25317 -120.511265 
L 624.529292 -120.865101 
L 624.805414 -121.217454 
L 625.081536 -121.568293 
L 625.357658 -121.917588 
L 625.63378 -122.265309 
L 625.909902 -122.611426 
L 626.186025 -122.955908 
L 626.462147 -123.298727 
L 626.738269 -123.639851 
L 627.014391 -123.979252 
L 627.290513 -124.316898 
L 627.566635 -124.652762 
L 627.842757 -124.986812 
L 628.118879 -125.31902 
L 628.395001 -125.649356 
L 628.671123 -125.977791 
L 628.947245 -126.304294 
L 629.223367 -126.628838 
L 629.499489 -126.951392 
L 629.775611 -127.271929 
L 630.051733 -127.590418 
L 630.327855 -127.906831 
L 630.603977 -128.22114 
L 630.880099 -128.533315 
L 631.156221 -128.843329 
L 631.432343 -129.151153 
L 631.708465 -129.456759 
L 631.984588 -129.760119 
L 632.26071 -130.061204 
L 632.536832 -130.359988 
L 632.812954 -130.656441 
L 633.089076 -130.950538 
L 633.365198 -131.242251 
L 633.64132 -131.531552 
L 633.917442 -131.818414 
L 634.193564 -132.102811 
L 634.469686 -132.384716 
L 634.745808 -132.664103 
L 635.02193 -132.940945 
L 635.298052 -133.215215 
L 635.574174 -133.486889 
L 635.850296 -133.755941 
L 636.126418 -134.022344 
L 636.40254 -134.286074 
L 636.678662 -134.547106 
L 636.954784 -134.805414 
L 637.230906 -135.060974 
L 637.507028 -135.313762 
L 637.783151 -135.563752 
L 638.059273 -135.810922 
L 638.335395 -136.055247 
L 638.611517 -136.296704 
L 638.887639 -136.535269 
L 639.163761 -136.770919 
L 639.439883 -137.003632 
L 639.716005 -137.233385 
L 639.992127 -137.460155 
L 640.268249 -137.683921 
L 640.544371 -137.904661 
L 640.820493 -138.122352 
L 641.096615 -138.336975 
L 641.372737 -138.548507 
L 641.648859 -138.756928 
L 641.924981 -138.962218 
L 642.201103 -139.164355 
L 642.477225 -139.363322 
L 642.753347 -139.559097 
L 643.029469 -139.751661 
L 643.305591 -139.940996 
L 643.581714 -140.127082 
L 643.857836 -140.309902 
L 644.133958 -140.489436 
L 644.41008 -140.665668 
L 644.686202 -140.838579 
L 644.962324 -141.008152 
L 645.238446 -141.174372 
L 645.514568 -141.337219 
L 645.79069 -141.49668 
L 646.066812 -141.652737 
L 646.342934 -141.805375 
L 646.619056 -141.954579 
L 646.895178 -142.100334 
L 647.1713 -142.242624 
L 647.447422 -142.381437 
L 647.723544 -142.516757 
L 647.999666 -142.648572 
L 648.275788 -142.776867 
L 648.55191 -142.90163 
L 648.828032 -143.022849 
L 649.104154 -143.140511 
L 649.380277 -143.254604 
L 649.656399 -143.365116 
L 649.932521 -143.472038 
L 650.208643 -143.575356 
L 650.484765 -143.675062 
L 650.760887 -143.771145 
L 651.037009 -143.863595 
L 651.313131 -143.952404 
L 651.589253 -144.037561 
L 651.865375 -144.119058 
L 652.141497 -144.196887 
L 652.417619 -144.27104 
L 652.693741 -144.34151 
L 652.969863 -144.408289 
L 653.245985 -144.47137 
L 653.522107 -144.530747 
L 653.798229 -144.586415 
L 654.074351 -144.638366 
L 654.350473 -144.686597 
L 654.626595 -144.731102 
L 654.902717 -144.771876 
L 655.17884 -144.808916 
L 655.454962 -144.842217 
L 655.731084 -144.871776 
L 656.007206 -144.897591 
L 656.283328 -144.919658 
L 656.55945 -144.937975 
L 656.835572 -144.95254 
L 657.111694 -144.963353 
L 657.387816 -144.970411 
L 657.663938 -144.973714 
L 657.94006 -144.973262 
L 658.216182 -144.969055 
L 658.492304 -144.961093 
L 658.768426 -144.949377 
L 659.044548 -144.933908 
L 659.32067 -144.914688 
L 659.596792 -144.891719 
L 659.872914 -144.865003 
L 660.149036 -144.834542 
L 660.425158 -144.800341 
L 660.70128 -144.762402 
L 660.977403 -144.720729 
L 661.253525 -144.675327 
L 661.529647 -144.626201 
L 661.805769 -144.573354 
L 662.081891 -144.516793 
L 662.358013 -144.456523 
L 662.634135 -144.392551 
L 662.910257 -144.324883 
L 663.186379 -144.253526 
L 663.462501 -144.178488 
L 663.738623 -144.099775 
L 664.014745 -144.017396 
L 664.290867 -143.931359 
L 664.566989 -143.841673 
L 664.843111 -143.748348 
L 665.119233 -143.651392 
L 665.395355 -143.550815 
L 665.671477 -143.446628 
L 665.947599 -143.338842 
L 666.223721 -143.227466 
L 666.499843 -143.112513 
L 666.775966 -142.993994 
L 667.052088 -142.871921 
L 667.32821 -142.746306 
L 667.604332 -142.617162 
L 667.880454 -142.484502 
L 668.156576 -142.34834 
L 668.432698 -142.208689 
L 668.70882 -142.065563 
L 668.984942 -141.918977 
L 669.261064 -141.768945 
L 669.537186 -141.615482 
L 669.813308 -141.458604 
L 670.08943 -141.298327 
L 670.365552 -141.134666 
L 670.641674 -140.967638 
L 670.917796 -140.797259 
L 671.193918 -140.623547 
L 671.47004 -140.446519 
L 671.746162 -140.266192 
L 672.022284 -140.082584 
L 672.298406 -139.895714 
L 672.574529 -139.7056 
L 672.850651 -139.512261 
L 673.126773 -139.315716 
L 673.402895 -139.115984 
L 673.679017 -138.913086 
L 673.955139 -138.707041 
L 674.231261 -138.497869 
L 674.507383 -138.285591 
L 674.783505 -138.070228 
L 675.059627 -137.8518 
L 675.335749 -137.63033 
L 675.611871 -137.405839 
L 675.887993 -137.178348 
L 676.164115 -136.947881 
L 676.440237 -136.714459 
L 676.716359 -136.478104 
L 676.992481 -136.238841 
L 677.268603 -135.996691 
L 677.544725 -135.751679 
L 677.820847 -135.503829 
L 678.096969 -135.253162 
L 678.373092 -134.999705 
L 678.649214 -134.743481 
L 678.925336 -134.484515 
L 679.201458 -134.222832 
L 679.47758 -133.958456 
L 679.753702 -133.691413 
L 680.029824 -133.421727 
L 680.305946 -133.149426 
L 680.582068 -132.874534 
L 680.85819 -132.597077 
L 681.134312 -132.317082 
L 681.410434 -132.034574 
L 681.686556 -131.749581 
L 681.962678 -131.462129 
L 682.2388 -131.172245 
L 682.514922 -130.879956 
L 682.791044 -130.58529 
L 683.067166 -130.288272 
L 683.343288 -129.988932 
L 683.61941 -129.687297 
L 683.895532 -129.383394 
L 684.171655 -129.077252 
L 684.447777 -128.768898 
L 684.723899 -128.458361 
L 685.000021 -128.145669 
L 685.276143 -127.830851 
L 685.552265 -127.513936 
L 685.828387 -127.194951 
L 686.104509 -126.873926 
L 686.380631 -126.55089 
L 686.656753 -126.225872 
L 686.932875 -125.898901 
L 687.208997 -125.570006 
L 687.485119 -125.239217 
L 687.761241 -124.906563 
L 688.037363 -124.572073 
L 688.313485 -124.235778 
L 688.589607 -123.897706 
L 688.865729 -123.557888 
L 689.141851 -123.216353 
L 689.417973 -122.873131 
L 689.694095 -122.528253 
L 689.970218 -122.181747 
L 690.24634 -121.833645 
L 690.522462 -121.483975 
L 690.798584 -121.132769 
L 691.074706 -120.780057 
L 691.350828 -120.425867 
L 691.62695 -120.070232 
L 691.903072 -119.71318 
L 692.179194 -119.354743 
L 692.455316 -118.99495 
L 692.731438 -118.633831 
L 693.00756 -118.271418 
L 693.283682 -117.90774 
L 693.559804 -117.542827 
L 693.835926 -117.17671 
L 694.112048 -116.809419 
L 694.38817 -116.440984 
L 694.664292 -116.071435 
L 694.940414 -115.700803 
L 695.216536 -115.329118 
L 695.492658 -114.95641 
L 695.768781 -114.582708 
L 696.044903 -114.208044 
L 696.321025 -113.832447 
L 696.597147 -113.455946 
L 696.873269 -113.078573 
L 697.149391 -112.700357 
L 697.425513 -112.321327 
L 697.701635 -111.941513 
L 697.977757 -111.560946 
L 698.253879 -111.179654 
L 698.530001 -110.797668 
L 698.806123 -110.415016 
L 699.082245 -110.031728 
L 699.358367 -109.647834 
L 699.634489 -109.263362 
L 699.910611 -108.878341 
L 700.186733 -108.492802 
L 700.462855 -108.106772 
L 700.738977 -107.720281 
L 701.015099 -107.333356 
L 701.291221 -106.946028 
L 701.567344 -106.558324 
L 701.843466 -106.170272 
L 702.119588 -105.781902 
L 702.39571 -105.393241 
L 702.671832 -105.004317 
L 702.947954 -104.615157 
L 703.224076 -104.225791 
L 703.500198 -103.836245 
L 703.77632 -103.446548 
L 704.052442 -103.056725 
L 704.328564 -102.666805 
L 704.604686 -102.276815 
L 704.880808 -101.886781 
L 705.15693 -101.49673 
L 705.433052 -101.10669 
L 705.709174 -100.716685 
L 705.985296 -100.326744 
L 706.261418 -99.936891 
L 706.53754 -99.547153 
L 706.813662 -99.157556 
L 707.089784 -98.768125 
L 707.365907 -98.378886 
L 707.642029 -97.989864 
L 707.918151 -97.601084 
L 708.194273 -97.212571 
L 708.470395 -96.82435 
L 708.746517 -96.436445 
L 709.022639 -96.048882 
L 709.298761 -95.661683 
L 709.574883 -95.274873 
L 709.851005 -94.888476 
L 710.127127 -94.502516 
L 710.403249 -94.117015 
L 710.679371 -93.731998 
L 710.955493 -93.347486 
L 711.231615 -92.963504 
L 711.507737 -92.580073 
L 711.783859 -92.197217 
L 712.059981 -91.814956 
L 712.336103 -91.433314 
L 712.612225 -91.052311 
L 712.888347 -90.671971 
L 713.16447 -90.292313 
L 713.440592 -89.913359 
L 713.716714 -89.53513 
L 713.992836 -89.157647 
L 714.268958 -88.780929 
L 714.54508 -88.404999 
L 714.821202 -88.029874 
L 715.097324 -87.655576 
L 715.373446 -87.282124 
L 715.649568 -86.909537 
L 715.92569 -86.537834 
L 716.201812 -86.167034 
L 716.477934 -85.797156 
L 716.754056 -85.428218 
L 717.030178 -85.060239 
L 717.3063 -84.693236 
L 717.582422 -84.327227 
L 717.858544 -83.962229 
L 718.134666 -83.598261 
L 718.410788 -83.235337 
L 718.68691 -82.873477 
L 718.963033 -82.512695 
L 719.239155 -82.153008 
L 719.515277 -81.794432 
L 719.791399 -81.436983 
L 720.067521 -81.080676 
L 720.343643 -80.725527 
L 720.619765 -80.37155 
L 720.895887 -80.01876 
L 721.172009 -79.667172 
L 721.448131 -79.3168 
L 721.724253 -78.967657 
L 722.000375 -78.619757 
L 722.276497 -78.273114 
L 722.552619 -77.927741 
L 722.828741 -77.58365 
L 723.104863 -77.240854 
L 723.380985 -76.899365 
L 723.657107 -76.559196 
L 723.933229 -76.220358 
L 724.209351 -75.882861 
L 724.485473 -75.546718 
L 724.761596 -75.21194 
L 725.037718 -74.878536 
L 725.31384 -74.546516 
L 725.589962 -74.215891 
L 725.866084 -73.886671 
L 726.142206 -73.558863 
L 726.418328 -73.232478 
L 726.69445 -72.907524 
L 726.970572 -72.584009 
L 727.246694 -72.261941 
L 727.522816 -71.941327 
L 727.798938 -71.622175 
L 728.07506 -71.304491 
L 728.351182 -70.988282 
L 728.627304 -70.673555 
L 728.903426 -70.360314 
L 729.179548 -70.048565 
L 729.45567 -69.738313 
L 729.731792 -69.429562 
L 730.007914 -69.122318 
L 730.284036 -68.816582 
L 730.560159 -68.51236 
L 730.836281 -68.209652 
L 731.112403 -67.908463 
L 731.388525 -67.608794 
L 731.664647 -67.310646 
L 731.940769 -67.014021 
L 732.216891 -66.718919 
L 732.493013 -66.42534 
L 732.769135 -66.133284 
L 733.045257 -65.842751 
L 733.321379 -65.553738 
L 733.597501 -65.266245 
L 733.873623 -64.980268 
L 734.149745 -64.695805 
L 734.425867 -64.412853 
L 734.701989 -64.131407 
L 734.978111 -63.851463 
L 735.254233 -63.573017 
L 735.530355 -63.296062 
L 735.806477 -63.020594 
L 736.082599 -62.746604 
L 736.358722 -62.474087 
L 736.634844 -62.203033 
L 736.910966 -61.933437 
L 737.187088 -61.665287 
L 737.46321 -61.398576 
L 737.739332 -61.133292 
L 738.015454 -60.869427 
L 738.291576 -60.606969 
L 738.567698 -60.345906 
L 738.84382 -60.086226 
L 739.119942 -59.827918 
L 739.396064 -59.570967 
L 739.672186 -59.315362 
L 739.948308 -59.061087 
L 740.22443 -58.808128 
L 740.500552 -58.55647 
L 740.776674 -58.306099 
L 741.052796 -58.056998 
L 741.328918 -57.809152 
L 741.60504 -57.562544 
L 741.881162 -57.317157 
L 742.157285 -57.072974 
L 742.433407 -56.829979 
L 742.709529 -56.588152 
L 742.985651 -56.347478 
L 743.261773 -56.107937 
L 743.537895 -55.869512 
L 743.814017 -55.632185 
L 744.090139 -55.395937 
L 744.366261 -55.16075 
L 744.642383 -54.926606 
L 744.918505 -54.693487 
L 745.194627 -54.461374 
L 745.470749 -54.230251 
L 745.746871 -54.000098 
L 746.022993 -53.7709 
L 746.299115 -53.542638 
L 746.575237 -53.315297 
L 746.851359 -53.08886 
L 747.127481 -52.863311 
L 747.403603 -52.638635 
L 747.679725 -52.414817 
L 747.955847 -52.191844 
L 748.23197 -51.969702 
L 748.508092 -51.748379 
L 748.784214 -51.527862 
L 749.060336 -51.308142 
L 749.336458 -51.089207 
L 749.61258 -50.87105 
L 749.888702 -50.653662 
L 750.164824 -50.437037 
L 750.440946 -50.221168 
L 750.717068 -50.006051 
L 750.99319 -49.791683 
L 751.269312 -49.578062 
L 751.545434 -49.365187 
L 751.821556 -49.153059 
L 752.097678 -48.941679 
L 752.3738 -48.73105 
L 752.649922 -48.521179 
L 752.926044 -48.31207 
L 753.202166 -48.103731 
L 753.478288 -47.896172 
L 753.75441 -47.689404 
L 754.030533 -47.483438 
L 754.306655 -47.278288 
L 754.582777 -47.07397 
L 754.858899 -46.870501 
L 755.135021 -46.667898 
L 755.411143 -46.466181 
L 755.687265 -46.265372 
L 755.963387 -46.065494 
L 756.239509 -45.86657 
L 756.515631 -45.668626 
L 756.791753 -45.471689 
L 757.067875 -45.275787 
L 757.343997 -45.080951 
L 757.620119 -44.887209 
L 757.896241 -44.694595 
L 758.172363 -44.503142 
L 758.448485 -44.312883 
L 758.724607 -44.123853 
L 759.000729 -43.936089 
L 759.276851 -43.749627 
L 759.552973 -43.564504 
L 759.829096 -43.38076 
L 760.105218 -43.198432 
L 760.38134 -43.01756 
L 760.657462 -42.838184 
L 760.933584 -42.660344 
L 761.209706 -42.484079 
L 761.485828 -42.30943 
L 761.76195 -42.136438 
L 762.038072 -41.965142 
L 762.314194 -41.795584 
L 762.590316 -41.627802 
L 762.866438 -41.461836 
L 763.14256 -41.297726 
L 763.418682 -41.135509 
L 763.694804 -40.975223 
L 763.970926 -40.816905 
L 764.247048 -40.660592 
L 764.52317 -40.506318 
L 764.799292 -40.354118 
L 765.075414 -40.204025 
L 765.351536 -40.05607 
L 765.627659 -39.910283 
L 765.903781 -39.766695 
L 766.179903 -39.625332 
L 766.456025 -39.486221 
L 766.732147 -39.349386 
L 767.008269 -39.21485 
L 767.284391 -39.082634 
L 767.560513 -38.952758 
L 767.836635 -38.825239 
L 768.112757 -38.700092 
L 768.388879 -38.577332 
L 768.665001 -38.456971 
L 768.941123 -38.339018 
L 769.217245 -38.223482 
L 769.493367 -38.110368 
L 769.769489 -37.99968 
L 770.045611 -37.891421 
L 770.321733 -37.78559 
L 770.597855 -37.682185 
L 770.873977 -37.581202 
L 771.150099 -37.482635 
L 771.426222 -37.386476 
L 771.702344 -37.292715 
L 771.978466 -37.201341 
L 772.254588 -37.112339 
L 772.53071 -37.025694 
L 772.806832 -36.941389 
L 773.082954 -36.859404 
L 773.359076 -36.779718 
L 773.635198 -36.70231 
L 773.91132 -36.627155 
L 774.187442 -36.554228 
L 774.463564 -36.483501 
L 774.739686 -36.414947 
L 775.015808 -36.348535 
L 775.29193 -36.284235 
L 775.568052 -36.222013 
L 775.844174 -36.161838 
L 776.120296 -36.103674 
L 776.396418 -36.047486 
L 776.67254 -35.993239 
L 776.948662 -35.940894 
L 777.224785 -35.890415 
L 777.500907 -35.841762 
L 777.777029 -35.794898 
L 778.053151 -35.749781 
L 778.329273 -35.706373 
L 778.605395 -35.664633 
L 778.881517 -35.62452 
L 779.157639 -35.585993 
L 779.433761 -35.549012 
L 779.709883 -35.513535 
L 779.986005 -35.479522 
L 780.262127 -35.446931 
L 780.538249 -35.415721 
L 780.814371 -35.385852 
L 781.090493 -35.357283 
L 781.366615 -35.329974 
L 781.642737 -35.303885 
L 781.918859 -35.278976 
L 782.194981 -35.255208 
L 782.471103 -35.232543 
L 782.747225 -35.210942 
L 783.023348 -35.190369 
L 783.29947 -35.170785 
L 783.575592 -35.152156 
L 783.851714 -35.134444 
L 784.127836 -35.117615 
L 784.403958 -35.101635 
L 784.68008 -35.08647 
L 784.956202 -35.072088 
L 785.232324 -35.058456 
L 785.508446 -35.045544 
L 785.784568 -35.03332 
L 786.06069 -35.021755 
L 786.336812 -35.010821 
L 786.612934 -35.000489 
L 786.889056 -34.990732 
L 787.165178 -34.981525 
L 787.4413 -34.97284 
L 787.717422 -34.964654 
L 787.993544 -34.956943 
L 788.269666 -34.949684 
L 788.545788 -34.942855 
L 788.821911 -34.936434 
L 789.098033 -34.9304 
L 789.374155 -34.924734 
L 789.650277 -34.919416 
L 789.926399 -34.914429 
L 790.202521 -34.909754 
L 790.478643 -34.905376 
L 790.754765 -34.901277 
L 791.030887 -34.897442 
L 791.307009 -34.893856 
L 791.583131 -34.890506 
L 791.859253 -34.887378 
L 792.135375 -34.884458 
L 792.411497 -34.881736 
L 792.687619 -34.879198 
L 792.963741 -34.876835 
L 793.239863 -34.874635 
L 793.515985 -34.872588 
L 793.792107 -34.870685 
L 794.068229 -34.868917 
L 794.344351 -34.867276 
L 794.620474 -34.865753 
L 794.896596 -34.864341 
L 794.896596 -34.848 
L 794.896596 -34.848 
L 794.620474 -34.848 
L 794.344351 -34.848 
L 794.068229 -34.848 
L 793.792107 -34.848 
L 793.515985 -34.848 
L 793.239863 -34.848 
L 792.963741 -34.848 
L 792.687619 -34.848 
L 792.411497 -34.848 
L 792.135375 -34.848 
L 791.859253 -34.848 
L 791.583131 -34.848 
L 791.307009 -34.848 
L 791.030887 -34.848 
L 790.754765 -34.848 
L 790.478643 -34.848 
L 790.202521 -34.848 
L 789.926399 -34.848 
L 789.650277 -34.848 
L 789.374155 -34.848 
L 789.098033 -34.848 
L 788.821911 -34.848 
L 788.545788 -34.848 
L 788.269666 -34.848 
L 787.993544 -34.848 
L 787.717422 -34.848 
L 787.4413 -34.848 
L 787.165178 -34.848 
L 786.889056 -34.848 
L 786.612934 -34.848 
L 786.336812 -34.848 
L 786.06069 -34.848 
L 785.784568 -34.848 
L 785.508446 -34.848 
L 785.232324 -34.848 
L 784.956202 -34.848 
L 784.68008 -34.848 
L 784.403958 -34.848 
L 784.127836 -34.848 
L 783.851714 -34.848 
L 783.575592 -34.848 
L 783.29947 -34.848 
L 783.023348 -34.848 
L 782.747225 -34.848 
L 782.471103 -34.848 
L 782.194981 -34.848 
L 781.918859 -34.848 
L 781.642737 -34.848 
L 781.366615 -34.848 
L 781.090493 -34.848 
L 780.814371 -34.848 
L 780.538249 -34.848 
L 780.262127 -34.848 
L 779.986005 -34.848 
L 779.709883 -34.848 
L 779.433761 -34.848 
L 779.157639 -34.848 
L 778.881517 -34.848 
L 778.605395 -34.848 
L 778.329273 -34.848 
L 778.053151 -34.848 
L 777.777029 -34.848 
L 777.500907 -34.848 
L 777.224785 -34.848 
L 776.948662 -34.848 
L 776.67254 -34.848 
L 776.396418 -34.848 
L 776.120296 -34.848 
L 775.844174 -34.848 
L 775.568052 -34.848 
L 775.29193 -34.848 
L 775.015808 -34.848 
L 774.739686 -34.848 
L 774.463564 -34.848 
L 774.187442 -34.848 
L 773.91132 -34.848 
L 773.635198 -34.848 
L 773.359076 -34.848 
L 773.082954 -34.848 
L 772.806832 -34.848 
L 772.53071 -34.848 
L 772.254588 -34.848 
L 771.978466 -34.848 
L 771.702344 -34.848 
L 771.426222 -34.848 
L 771.150099 -34.848 
L 770.873977 -34.848 
L 770.597855 -34.848 
L 770.321733 -34.848 
L 770.045611 -34.848 
L 769.769489 -34.848 
L 769.493367 -34.848 
L 769.217245 -34.848 
L 768.941123 -34.848 
L 768.665001 -34.848 
L 768.388879 -34.848 
L 768.112757 -34.848 
L 767.836635 -34.848 
L 767.560513 -34.848 
L 767.284391 -34.848 
L 767.008269 -34.848 
L 766.732147 -34.848 
L 766.456025 -34.848 
L 766.179903 -34.848 
L 765.903781 -34.848 
L 765.627659 -34.848 
L 765.351536 -34.848 
L 765.075414 -34.848 
L 764.799292 -34.848 
L 764.52317 -34.848 
L 764.247048 -34.848 
L 763.970926 -34.848 
L 763.694804 -34.848 
L 763.418682 -34.848 
L 763.14256 -34.848 
L 762.866438 -34.848 
L 762.590316 -34.848 
L 762.314194 -34.848 
L 762.038072 -34.848 
L 761.76195 -34.848 
L 761.485828 -34.848 
L 761.209706 -34.848 
L 760.933584 -34.848 
L 760.657462 -34.848 
L 760.38134 -34.848 
L 760.105218 -34.848 
L 759.829096 -34.848 
L 759.552973 -34.848 
L 759.276851 -34.848 
L 759.000729 -34.848 
L 758.724607 -34.848 
L 758.448485 -34.848 
L 758.172363 -34.848 
L 757.896241 -34.848 
L 757.620119 -34.848 
L 757.343997 -34.848 
L 757.067875 -34.848 
L 756.791753 -34.848 
L 756.515631 -34.848 
L 756.239509 -34.848 
L 755.963387 -34.848 
L 755.687265 -34.848 
L 755.411143 -34.848 
L 755.135021 -34.848 
L 754.858899 -34.848 
L 754.582777 -34.848 
L 754.306655 -34.848 
L 754.030533 -34.848 
L 753.75441 -34.848 
L 753.478288 -34.848 
L 753.202166 -34.848 
L 752.926044 -34.848 
L 752.649922 -34.848 
L 752.3738 -34.848 
L 752.097678 -34.848 
L 751.821556 -34.848 
L 751.545434 -34.848 
L 751.269312 -34.848 
L 750.99319 -34.848 
L 750.717068 -34.848 
L 750.440946 -34.848 
L 750.164824 -34.848 
L 749.888702 -34.848 
L 749.61258 -34.848 
L 749.336458 -34.848 
L 749.060336 -34.848 
L 748.784214 -34.848 
L 748.508092 -34.848 
L 748.23197 -34.848 
L 747.955847 -34.848 
L 747.679725 -34.848 
L 747.403603 -34.848 
L 747.127481 -34.848 
L 746.851359 -34.848 
L 746.575237 -34.848 
L 746.299115 -34.848 
L 746.022993 -34.848 
L 745.746871 -34.848 
L 745.470749 -34.848 
L 745.194627 -34.848 
L 744.918505 -34.848 
L 744.642383 -34.848 
L 744.366261 -34.848 
L 744.090139 -34.848 
L 743.814017 -34.848 
L 743.537895 -34.848 
L 743.261773 -34.848 
L 742.985651 -34.848 
L 742.709529 -34.848 
L 742.433407 -34.848 
L 742.157285 -34.848 
L 741.881162 -34.848 
L 741.60504 -34.848 
L 741.328918 -34.848 
L 741.052796 -34.848 
L 740.776674 -34.848 
L 740.500552 -34.848 
L 740.22443 -34.848 
L 739.948308 -34.848 
L 739.672186 -34.848 
L 739.396064 -34.848 
L 739.119942 -34.848 
L 738.84382 -34.848 
L 738.567698 -34.848 
L 738.291576 -34.848 
L 738.015454 -34.848 
L 737.739332 -34.848 
L 737.46321 -34.848 
L 737.187088 -34.848 
L 736.910966 -34.848 
L 736.634844 -34.848 
L 736.358722 -34.848 
L 736.082599 -34.848 
L 735.806477 -34.848 
L 735.530355 -34.848 
L 735.254233 -34.848 
L 734.978111 -34.848 
L 734.701989 -34.848 
L 734.425867 -34.848 
L 734.149745 -34.848 
L 733.873623 -34.848 
L 733.597501 -34.848 
L 733.321379 -34.848 
L 733.045257 -34.848 
L 732.769135 -34.848 
L 732.493013 -34.848 
L 732.216891 -34.848 
L 731.940769 -34.848 
L 731.664647 -34.848 
L 731.388525 -34.848 
L 731.112403 -34.848 
L 730.836281 -34.848 
L 730.560159 -34.848 
L 730.284036 -34.848 
L 730.007914 -34.848 
L 729.731792 -34.848 
L 729.45567 -34.848 
L 729.179548 -34.848 
L 728.903426 -34.848 
L 728.627304 -34.848 
L 728.351182 -34.848 
L 728.07506 -34.848 
L 727.798938 -34.848 
L 727.522816 -34.848 
L 727.246694 -34.848 
L 726.970572 -34.848 
L 726.69445 -34.848 
L 726.418328 -34.848 
L 726.142206 -34.848 
L 725.866084 -34.848 
L 725.589962 -34.848 
L 725.31384 -34.848 
L 725.037718 -34.848 
L 724.761596 -34.848 
L 724.485473 -34.848 
L 724.209351 -34.848 
L 723.933229 -34.848 
L 723.657107 -34.848 
L 723.380985 -34.848 
L 723.104863 -34.848 
L 722.828741 -34.848 
L 722.552619 -34.848 
L 722.276497 -34.848 
L 722.000375 -34.848 
L 721.724253 -34.848 
L 721.448131 -34.848 
L 721.172009 -34.848 
L 720.895887 -34.848 
L 720.619765 -34.848 
L 720.343643 -34.848 
L 720.067521 -34.848 
L 719.791399 -34.848 
L 719.515277 -34.848 
L 719.239155 -34.848 
L 718.963033 -34.848 
L 718.68691 -34.848 
L 718.410788 -34.848 
L 718.134666 -34.848 
L 717.858544 -34.848 
L 717.582422 -34.848 
L 717.3063 -34.848 
L 717.030178 -34.848 
L 716.754056 -34.848 
L 716.477934 -34.848 
L 716.201812 -34.848 
L 715.92569 -34.848 
L 715.649568 -34.848 
L 715.373446 -34.848 
L 715.097324 -34.848 
L 714.821202 -34.848 
L 714.54508 -34.848 
L 714.268958 -34.848 
L 713.992836 -34.848 
L 713.716714 -34.848 
L 713.440592 -34.848 
L 713.16447 -34.848 
L 712.888347 -34.848 
L 712.612225 -34.848 
L 712.336103 -34.848 
L 712.059981 -34.848 
L 711.783859 -34.848 
L 711.507737 -34.848 
L 711.231615 -34.848 
L 710.955493 -34.848 
L 710.679371 -34.848 
L 710.403249 -34.848 
L 710.127127 -34.848 
L 709.851005 -34.848 
L 709.574883 -34.848 
L 709.298761 -34.848 
L 709.022639 -34.848 
L 708.746517 -34.848 
L 708.470395 -34.848 
L 708.194273 -34.848 
L 707.918151 -34.848 
L 707.642029 -34.848 
L 707.365907 -34.848 
L 707.089784 -34.848 
L 706.813662 -34.848 
L 706.53754 -34.848 
L 706.261418 -34.848 
L 705.985296 -34.848 
L 705.709174 -34.848 
L 705.433052 -34.848 
L 705.15693 -34.848 
L 704.880808 -34.848 
L 704.604686 -34.848 
L 704.328564 -34.848 
L 704.052442 -34.848 
L 703.77632 -34.848 
L 703.500198 -34.848 
L 703.224076 -34.848 
L 702.947954 -34.848 
L 702.671832 -34.848 
L 702.39571 -34.848 
L 702.119588 -34.848 
L 701.843466 -34.848 
L 701.567344 -34.848 
L 701.291221 -34.848 
L 701.015099 -34.848 
L 700.738977 -34.848 
L 700.462855 -34.848 
L 700.186733 -34.848 
L 699.910611 -34.848 
L 699.634489 -34.848 
L 699.358367 -34.848 
L 699.082245 -34.848 
L 698.806123 -34.848 
L 698.530001 -34.848 
L 698.253879 -34.848 
L 697.977757 -34.848 
L 697.701635 -34.848 
L 697.425513 -34.848 
L 697.149391 -34.848 
L 696.873269 -34.848 
L 696.597147 -34.848 
L 696.321025 -34.848 
L 696.044903 -34.848 
L 695.768781 -34.848 
L 695.492658 -34.848 
L 695.216536 -34.848 
L 694.940414 -34.848 
L 694.664292 -34.848 
L 694.38817 -34.848 
L 694.112048 -34.848 
L 693.835926 -34.848 
L 693.559804 -34.848 
L 693.283682 -34.848 
L 693.00756 -34.848 
L 692.731438 -34.848 
L 692.455316 -34.848 
L 692.179194 -34.848 
L 691.903072 -34.848 
L 691.62695 -34.848 
L 691.350828 -34.848 
L 691.074706 -34.848 
L 690.798584 -34.848 
L 690.522462 -34.848 
L 690.24634 -34.848 
L 689.970218 -34.848 
L 689.694095 -34.848 
L 689.417973 -34.848 
L 689.141851 -34.848 
L 688.865729 -34.848 
L 688.589607 -34.848 
L 688.313485 -34.848 
L 688.037363 -34.848 
L 687.761241 -34.848 
L 687.485119 -34.848 
L 687.208997 -34.848 
L 686.932875 -34.848 
L 686.656753 -34.848 
L 686.380631 -34.848 
L 686.104509 -34.848 
L 685.828387 -34.848 
L 685.552265 -34.848 
L 685.276143 -34.848 
L 685.000021 -34.848 
L 684.723899 -34.848 
L 684.447777 -34.848 
L 684.171655 -34.848 
L 683.895532 -34.848 
L 683.61941 -34.848 
L 683.343288 -34.848 
L 683.067166 -34.848 
L 682.791044 -34.848 
L 682.514922 -34.848 
L 682.2388 -34.848 
L 681.962678 -34.848 
L 681.686556 -34.848 
L 681.410434 -34.848 
L 681.134312 -34.848 
L 680.85819 -34.848 
L 680.582068 -34.848 
L 680.305946 -34.848 
L 680.029824 -34.848 
L 679.753702 -34.848 
L 679.47758 -34.848 
L 679.201458 -34.848 
L 678.925336 -34.848 
L 678.649214 -34.848 
L 678.373092 -34.848 
L 678.096969 -34.848 
L 677.820847 -34.848 
L 677.544725 -34.848 
L 677.268603 -34.848 
L 676.992481 -34.848 
L 676.716359 -34.848 
L 676.440237 -34.848 
L 676.164115 -34.848 
L 675.887993 -34.848 
L 675.611871 -34.848 
L 675.335749 -34.848 
L 675.059627 -34.848 
L 674.783505 -34.848 
L 674.507383 -34.848 
L 674.231261 -34.848 
L 673.955139 -34.848 
L 673.679017 -34.848 
L 673.402895 -34.848 
L 673.126773 -34.848 
L 672.850651 -34.848 
L 672.574529 -34.848 
L 672.298406 -34.848 
L 672.022284 -34.848 
L 671.746162 -34.848 
L 671.47004 -34.848 
L 671.193918 -34.848 
L 670.917796 -34.848 
L 670.641674 -34.848 
L 670.365552 -34.848 
L 670.08943 -34.848 
L 669.813308 -34.848 
L 669.537186 -34.848 
L 669.261064 -34.848 
L 668.984942 -34.848 
L 668.70882 -34.848 
L 668.432698 -34.848 
L 668.156576 -34.848 
L 667.880454 -34.848 
L 667.604332 -34.848 
L 667.32821 -34.848 
L 667.052088 -34.848 
L 666.775966 -34.848 
L 666.499843 -34.848 
L 666.223721 -34.848 
L 665.947599 -34.848 
L 665.671477 -34.848 
L 665.395355 -34.848 
L 665.119233 -34.848 
L 664.843111 -34.848 
L 664.566989 -34.848 
L 664.290867 -34.848 
L 664.014745 -34.848 
L 663.738623 -34.848 
L 663.462501 -34.848 
L 663.186379 -34.848 
L 662.910257 -34.848 
L 662.634135 -34.848 
L 662.358013 -34.848 
L 662.081891 -34.848 
L 661.805769 -34.848 
L 661.529647 -34.848 
L 661.253525 -34.848 
L 660.977403 -34.848 
L 660.70128 -34.848 
L 660.425158 -34.848 
L 660.149036 -34.848 
L 659.872914 -34.848 
L 659.596792 -34.848 
L 659.32067 -34.848 
L 659.044548 -34.848 
L 658.768426 -34.848 
L 658.492304 -34.848 
L 658.216182 -34.848 
L 657.94006 -34.848 
L 657.663938 -34.848 
L 657.387816 -34.848 
L 657.111694 -34.848 
L 656.835572 -34.848 
L 656.55945 -34.848 
L 656.283328 -34.848 
L 656.007206 -34.848 
L 655.731084 -34.848 
L 655.454962 -34.848 
L 655.17884 -34.848 
L 654.902717 -34.848 
L 654.626595 -34.848 
L 654.350473 -34.848 
L 654.074351 -34.848 
L 653.798229 -34.848 
L 653.522107 -34.848 
L 653.245985 -34.848 
L 652.969863 -34.848 
L 652.693741 -34.848 
L 652.417619 -34.848 
L 652.141497 -34.848 
L 651.865375 -34.848 
L 651.589253 -34.848 
L 651.313131 -34.848 
L 651.037009 -34.848 
L 650.760887 -34.848 
L 650.484765 -34.848 
L 650.208643 -34.848 
L 649.932521 -34.848 
L 649.656399 -34.848 
L 649.380277 -34.848 
L 649.104154 -34.848 
L 648.828032 -34.848 
L 648.55191 -34.848 
L 648.275788 -34.848 
L 647.999666 -34.848 
L 647.723544 -34.848 
L 647.447422 -34.848 
L 647.1713 -34.848 
L 646.895178 -34.848 
L 646.619056 -34.848 
L 646.342934 -34.848 
L 646.066812 -34.848 
L 645.79069 -34.848 
L 645.514568 -34.848 
L 645.238446 -34.848 
L 644.962324 -34.848 
L 644.686202 -34.848 
L 644.41008 -34.848 
L 644.133958 -34.848 
L 643.857836 -34.848 
L 643.581714 -34.848 
L 643.305591 -34.848 
L 643.029469 -34.848 
L 642.753347 -34.848 
L 642.477225 -34.848 
L 642.201103 -34.848 
L 641.924981 -34.848 
L 641.648859 -34.848 
L 641.372737 -34.848 
L 641.096615 -34.848 
L 640.820493 -34.848 
L 640.544371 -34.848 
L 640.268249 -34.848 
L 639.992127 -34.848 
L 639.716005 -34.848 
L 639.439883 -34.848 
L 639.163761 -34.848 
L 638.887639 -34.848 
L 638.611517 -34.848 
L 638.335395 -34.848 
L 638.059273 -34.848 
L 637.783151 -34.848 
L 637.507028 -34.848 
L 637.230906 -34.848 
L 636.954784 -34.848 
L 636.678662 -34.848 
L 636.40254 -34.848 
L 636.126418 -34.848 
L 635.850296 -34.848 
L 635.574174 -34.848 
L 635.298052 -34.848 
L 635.02193 -34.848 
L 634.745808 -34.848 
L 634.469686 -34.848 
L 634.193564 -34.848 
L 633.917442 -34.848 
L 633.64132 -34.848 
L 633.365198 -34.848 
L 633.089076 -34.848 
L 632.812954 -34.848 
L 632.536832 -34.848 
L 632.26071 -34.848 
L 631.984588 -34.848 
L 631.708465 -34.848 
L 631.432343 -34.848 
L 631.156221 -34.848 
L 630.880099 -34.848 
L 630.603977 -34.848 
L 630.327855 -34.848 
L 630.051733 -34.848 
L 629.775611 -34.848 
L 629.499489 -34.848 
L 629.223367 -34.848 
L 628.947245 -34.848 
L 628.671123 -34.848 
L 628.395001 -34.848 
L 628.118879 -34.848 
L 627.842757 -34.848 
L 627.566635 -34.848 
L 627.290513 -34.848 
L 627.014391 -34.848 
L 626.738269 -34.848 
L 626.462147 -34.848 
L 626.186025 -34.848 
L 625.909902 -34.848 
L 625.63378 -34.848 
L 625.357658 -34.848 
L 625.081536 -34.848 
L 624.805414 -34.848 
L 624.529292 -34.848 
L 624.25317 -34.848 
L 623.977048 -34.848 
L 623.700926 -34.848 
L 623.424804 -34.848 
L 623.148682 -34.848 
L 622.87256 -34.848 
L 622.596438 -34.848 
L 622.320316 -34.848 
L 622.044194 -34.848 
L 621.768072 -34.848 
L 621.49195 -34.848 
L 621.215828 -34.848 
L 620.939706 -34.848 
L 620.663584 -34.848 
L 620.387462 -34.848 
L 620.11134 -34.848 
L 619.835217 -34.848 
L 619.559095 -34.848 
L 619.282973 -34.848 
L 619.006851 -34.848 
L 618.730729 -34.848 
L 618.454607 -34.848 
L 618.178485 -34.848 
L 617.902363 -34.848 
L 617.626241 -34.848 
L 617.350119 -34.848 
L 617.073997 -34.848 
L 616.797875 -34.848 
L 616.521753 -34.848 
L 616.245631 -34.848 
L 615.969509 -34.848 
L 615.693387 -34.848 
L 615.417265 -34.848 
L 615.141143 -34.848 
L 614.865021 -34.848 
L 614.588899 -34.848 
L 614.312777 -34.848 
L 614.036654 -34.848 
L 613.760532 -34.848 
L 613.48441 -34.848 
L 613.208288 -34.848 
L 612.932166 -34.848 
L 612.656044 -34.848 
L 612.379922 -34.848 
L 612.1038 -34.848 
L 611.827678 -34.848 
L 611.551556 -34.848 
L 611.275434 -34.848 
L 610.999312 -34.848 
L 610.72319 -34.848 
L 610.447068 -34.848 
L 610.170946 -34.848 
L 609.894824 -34.848 
L 609.618702 -34.848 
L 609.34258 -34.848 
L 609.066458 -34.848 
L 608.790336 -34.848 
L 608.514214 -34.848 
L 608.238091 -34.848 
L 607.961969 -34.848 
L 607.685847 -34.848 
L 607.409725 -34.848 
L 607.133603 -34.848 
L 606.857481 -34.848 
L 606.581359 -34.848 
L 606.305237 -34.848 
L 606.029115 -34.848 
L 605.752993 -34.848 
L 605.476871 -34.848 
L 605.200749 -34.848 
L 604.924627 -34.848 
L 604.648505 -34.848 
L 604.372383 -34.848 
L 604.096261 -34.848 
L 603.820139 -34.848 
L 603.544017 -34.848 
L 603.267895 -34.848 
L 602.991773 -34.848 
L 602.715651 -34.848 
L 602.439528 -34.848 
L 602.163406 -34.848 
L 601.887284 -34.848 
L 601.611162 -34.848 
L 601.33504 -34.848 
L 601.058918 -34.848 
L 600.782796 -34.848 
L 600.506674 -34.848 
L 600.230552 -34.848 
L 599.95443 -34.848 
L 599.678308 -34.848 
L 599.402186 -34.848 
L 599.126064 -34.848 
L 598.849942 -34.848 
L 598.57382 -34.848 
L 598.297698 -34.848 
L 598.021576 -34.848 
L 597.745454 -34.848 
L 597.469332 -34.848 
L 597.19321 -34.848 
L 596.917088 -34.848 
L 596.640965 -34.848 
L 596.364843 -34.848 
L 596.088721 -34.848 
L 595.812599 -34.848 
L 595.536477 -34.848 
L 595.260355 -34.848 
L 594.984233 -34.848 
L 594.708111 -34.848 
L 594.431989 -34.848 
L 594.155867 -34.848 
L 593.879745 -34.848 
L 593.603623 -34.848 
L 593.327501 -34.848 
L 593.051379 -34.848 
L 592.775257 -34.848 
L 592.499135 -34.848 
L 592.223013 -34.848 
L 591.946891 -34.848 
L 591.670769 -34.848 
L 591.394647 -34.848 
L 591.118525 -34.848 
L 590.842402 -34.848 
L 590.56628 -34.848 
L 590.290158 -34.848 
L 590.014036 -34.848 
L 589.737914 -34.848 
L 589.461792 -34.848 
L 589.18567 -34.848 
L 588.909548 -34.848 
L 588.633426 -34.848 
L 588.357304 -34.848 
L 588.081182 -34.848 
L 587.80506 -34.848 
L 587.528938 -34.848 
L 587.252816 -34.848 
L 586.976694 -34.848 
L 586.700572 -34.848 
L 586.42445 -34.848 
L 586.148328 -34.848 
L 585.872206 -34.848 
L 585.596084 -34.848 
L 585.319962 -34.848 
L 585.043839 -34.848 
L 584.767717 -34.848 
L 584.491595 -34.848 
L 584.215473 -34.848 
L 583.939351 -34.848 
L 583.663229 -34.848 
L 583.387107 -34.848 
L 583.110985 -34.848 
L 582.834863 -34.848 
L 582.558741 -34.848 
L 582.282619 -34.848 
L 582.006497 -34.848 
L 581.730375 -34.848 
L 581.454253 -34.848 
L 581.178131 -34.848 
L 580.902009 -34.848 
L 580.625887 -34.848 
L 580.349765 -34.848 
L 580.073643 -34.848 
L 579.797521 -34.848 
L 579.521399 -34.848 
L 579.245276 -34.848 
L 578.969154 -34.848 
L 578.693032 -34.848 
L 578.41691 -34.848 
L 578.140788 -34.848 
L 577.864666 -34.848 
L 577.588544 -34.848 
L 577.312422 -34.848 
L 577.0363 -34.848 
L 576.760178 -34.848 
L 576.484056 -34.848 
L 576.207934 -34.848 
L 575.931812 -34.848 
L 575.65569 -34.848 
L 575.379568 -34.848 
L 575.103446 -34.848 
L 574.827324 -34.848 
L 574.551202 -34.848 
L 574.27508 -34.848 
L 573.998958 -34.848 
L 573.722836 -34.848 
L 573.446713 -34.848 
L 573.170591 -34.848 
L 572.894469 -34.848 
L 572.618347 -34.848 
L 572.342225 -34.848 
L 572.066103 -34.848 
L 571.789981 -34.848 
L 571.513859 -34.848 
L 571.237737 -34.848 
L 570.961615 -34.848 
L 570.685493 -34.848 
L 570.409371 -34.848 
L 570.133249 -34.848 
L 569.857127 -34.848 
L 569.581005 -34.848 
L 569.304883 -34.848 
L 569.028761 -34.848 
L 568.752639 -34.848 
L 568.476517 -34.848 
L 568.200395 -34.848 
L 567.924273 -34.848 
L 567.64815 -34.848 
L 567.372028 -34.848 
L 567.095906 -34.848 
L 566.819784 -34.848 
L 566.543662 -34.848 
L 566.26754 -34.848 
L 565.991418 -34.848 
L 565.715296 -34.848 
L 565.439174 -34.848 
L 565.163052 -34.848 
L 564.88693 -34.848 
L 564.610808 -34.848 
L 564.334686 -34.848 
L 564.058564 -34.848 
L 563.782442 -34.848 
L 563.50632 -34.848 
L 563.230198 -34.848 
L 562.954076 -34.848 
L 562.677954 -34.848 
L 562.401832 -34.848 
L 562.12571 -34.848 
L 561.849587 -34.848 
L 561.573465 -34.848 
L 561.297343 -34.848 
L 561.021221 -34.848 
L 560.745099 -34.848 
L 560.468977 -34.848 
L 560.192855 -34.848 
L 559.916733 -34.848 
L 559.640611 -34.848 
L 559.364489 -34.848 
L 559.088367 -34.848 
L 558.812245 -34.848 
L 558.536123 -34.848 
L 558.260001 -34.848 
L 557.983879 -34.848 
L 557.707757 -34.848 
L 557.431635 -34.848 
L 557.155513 -34.848 
L 556.879391 -34.848 
L 556.603269 -34.848 
L 556.327147 -34.848 
L 556.051024 -34.848 
L 555.774902 -34.848 
L 555.49878 -34.848 
L 555.222658 -34.848 
L 554.946536 -34.848 
L 554.670414 -34.848 
L 554.394292 -34.848 
L 554.11817 -34.848 
L 553.842048 -34.848 
L 553.565926 -34.848 
L 553.289804 -34.848 
L 553.013682 -34.848 
L 552.73756 -34.848 
L 552.461438 -34.848 
L 552.185316 -34.848 
L 551.909194 -34.848 
L 551.633072 -34.848 
L 551.35695 -34.848 
L 551.080828 -34.848 
L 550.804706 -34.848 
L 550.528584 -34.848 
L 550.252461 -34.848 
L 549.976339 -34.848 
L 549.700217 -34.848 
L 549.424095 -34.848 
L 549.147973 -34.848 
L 548.871851 -34.848 
L 548.595729 -34.848 
L 548.319607 -34.848 
L 548.043485 -34.848 
L 547.767363 -34.848 
L 547.491241 -34.848 
L 547.215119 -34.848 
L 546.938997 -34.848 
L 546.662875 -34.848 
L 546.386753 -34.848 
L 546.110631 -34.848 
L 545.834509 -34.848 
L 545.558387 -34.848 
L 545.282265 -34.848 
L 545.006143 -34.848 
L 544.730021 -34.848 
L 544.453898 -34.848 
L 544.177776 -34.848 
L 543.901654 -34.848 
L 543.625532 -34.848 
L 543.34941 -34.848 
L 543.073288 -34.848 
L 542.797166 -34.848 
L 542.521044 -34.848 
L 542.244922 -34.848 
L 541.9688 -34.848 
L 541.692678 -34.848 
L 541.416556 -34.848 
L 541.140434 -34.848 
L 540.864312 -34.848 
L 540.58819 -34.848 
L 540.312068 -34.848 
L 540.035946 -34.848 
L 539.759824 -34.848 
L 539.483702 -34.848 
L 539.20758 -34.848 
L 538.931458 -34.848 
L 538.655335 -34.848 
L 538.379213 -34.848 
L 538.103091 -34.848 
L 537.826969 -34.848 
L 537.550847 -34.848 
L 537.274725 -34.848 
L 536.998603 -34.848 
L 536.722481 -34.848 
L 536.446359 -34.848 
L 536.170237 -34.848 
L 535.894115 -34.848 
L 535.617993 -34.848 
L 535.341871 -34.848 
L 535.065749 -34.848 
L 534.789627 -34.848 
L 534.513505 -34.848 
L 534.237383 -34.848 
L 533.961261 -34.848 
L 533.685139 -34.848 
L 533.409017 -34.848 
L 533.132895 -34.848 
L 532.856772 -34.848 
L 532.58065 -34.848 
L 532.304528 -34.848 
L 532.028406 -34.848 
L 531.752284 -34.848 
L 531.476162 -34.848 
L 531.20004 -34.848 
L 530.923918 -34.848 
L 530.647796 -34.848 
L 530.371674 -34.848 
L 530.095552 -34.848 
L 529.81943 -34.848 
L 529.543308 -34.848 
L 529.267186 -34.848 
L 528.991064 -34.848 
L 528.714942 -34.848 
L 528.43882 -34.848 
L 528.162698 -34.848 
L 527.886576 -34.848 
L 527.610454 -34.848 
L 527.334332 -34.848 
L 527.058209 -34.848 
L 526.782087 -34.848 
L 526.505965 -34.848 
L 526.229843 -34.848 
L 525.953721 -34.848 
L 525.677599 -34.848 
L 525.401477 -34.848 
L 525.125355 -34.848 
L 524.849233 -34.848 
L 524.573111 -34.848 
L 524.296989 -34.848 
L 524.020867 -34.848 
L 523.744745 -34.848 
L 523.468623 -34.848 
L 523.192501 -34.848 
L 522.916379 -34.848 
L 522.640257 -34.848 
L 522.364135 -34.848 
L 522.088013 -34.848 
L 521.811891 -34.848 
L 521.535769 -34.848 
L 521.259646 -34.848 
L 520.983524 -34.848 
L 520.707402 -34.848 
L 520.43128 -34.848 
L 520.155158 -34.848 
L 519.879036 -34.848 
L 519.602914 -34.848 
L 519.326792 -34.848 
L 519.05067 -34.848 
z
" style="stroke: #4c72b0; stroke-opacity: 0.2"/>
    </defs>
    <g>
     <use xlink:href="#m7e26c700c5" x="0" y="158.4" style="fill: #4c72b0; fill-opacity: 0.2; stroke: #4c72b0; stroke-opacity: 0.2"/>
    </g>
   </g>
   <g id="FillBetweenPolyCollection_2"/>
   <g id="FillBetweenPolyCollection_3">
    <defs>
     <path id="mdbc3e2babf" d="M 519.05067 -34.863363 
L 519.05067 -34.863363 
L 519.326792 -34.864689 
L 519.602914 -34.866119 
L 519.879036 -34.86766 
L 520.155158 -34.86932 
L 520.43128 -34.871105 
L 520.707402 -34.873026 
L 520.983524 -34.875091 
L 521.259646 -34.877309 
L 521.535769 -34.879689 
L 521.811891 -34.882243 
L 522.088013 -34.884982 
L 522.364135 -34.887916 
L 522.640257 -34.891058 
L 522.916379 -34.89442 
L 523.192501 -34.898016 
L 523.468623 -34.901859 
L 523.744745 -34.905964 
L 524.020867 -34.910345 
L 524.296989 -34.91502 
L 524.573111 -34.920003 
L 524.849233 -34.925313 
L 525.125355 -34.930966 
L 525.401477 -34.936982 
L 525.677599 -34.94338 
L 525.953721 -34.95018 
L 526.229843 -34.957402 
L 526.505965 -34.965068 
L 526.782087 -34.973201 
L 527.058209 -34.981823 
L 527.334332 -34.990957 
L 527.610454 -35.00063 
L 527.886576 -35.010866 
L 528.162698 -35.02169 
L 528.43882 -35.033131 
L 528.714942 -35.045215 
L 528.991064 -35.057971 
L 529.267186 -35.071428 
L 529.543308 -35.085616 
L 529.81943 -35.100565 
L 530.095552 -35.116307 
L 530.371674 -35.132874 
L 530.647796 -35.150298 
L 530.923918 -35.168612 
L 531.20004 -35.18785 
L 531.476162 -35.208048 
L 531.752284 -35.229239 
L 532.028406 -35.251459 
L 532.304528 -35.274744 
L 532.58065 -35.29913 
L 532.856772 -35.324655 
L 533.132895 -35.351356 
L 533.409017 -35.379269 
L 533.685139 -35.408433 
L 533.961261 -35.438886 
L 534.237383 -35.470665 
L 534.513505 -35.50381 
L 534.789627 -35.538357 
L 535.065749 -35.574346 
L 535.341871 -35.611814 
L 535.617993 -35.6508 
L 535.894115 -35.691341 
L 536.170237 -35.733476 
L 536.446359 -35.77724 
L 536.722481 -35.822671 
L 536.998603 -35.869805 
L 537.274725 -35.918678 
L 537.550847 -35.969326 
L 537.826969 -36.021782 
L 538.103091 -36.07608 
L 538.379213 -36.132254 
L 538.655335 -36.190334 
L 538.931458 -36.250354 
L 539.20758 -36.312341 
L 539.483702 -36.376326 
L 539.759824 -36.442335 
L 540.035946 -36.510397 
L 540.312068 -36.580535 
L 540.58819 -36.652773 
L 540.864312 -36.727135 
L 541.140434 -36.803641 
L 541.416556 -36.882311 
L 541.692678 -36.963163 
L 541.9688 -37.046212 
L 542.244922 -37.131474 
L 542.521044 -37.218962 
L 542.797166 -37.308687 
L 543.073288 -37.400658 
L 543.34941 -37.494884 
L 543.625532 -37.591369 
L 543.901654 -37.69012 
L 544.177776 -37.791136 
L 544.453898 -37.89442 
L 544.730021 -37.99997 
L 545.006143 -38.107782 
L 545.282265 -38.217851 
L 545.558387 -38.330171 
L 545.834509 -38.444732 
L 546.110631 -38.561525 
L 546.386753 -38.680537 
L 546.662875 -38.801755 
L 546.938997 -38.925161 
L 547.215119 -39.05074 
L 547.491241 -39.178471 
L 547.767363 -39.308335 
L 548.043485 -39.44031 
L 548.319607 -39.574372 
L 548.595729 -39.710496 
L 548.871851 -39.848657 
L 549.147973 -39.988826 
L 549.424095 -40.130975 
L 549.700217 -40.275075 
L 549.976339 -40.421094 
L 550.252461 -40.569002 
L 550.528584 -40.718765 
L 550.804706 -40.87035 
L 551.080828 -41.023724 
L 551.35695 -41.178851 
L 551.633072 -41.335697 
L 551.909194 -41.494226 
L 552.185316 -41.654402 
L 552.461438 -41.81619 
L 552.73756 -41.979553 
L 553.013682 -42.144455 
L 553.289804 -42.310859 
L 553.565926 -42.478731 
L 553.842048 -42.648033 
L 554.11817 -42.81873 
L 554.394292 -42.990787 
L 554.670414 -43.16417 
L 554.946536 -43.338845 
L 555.222658 -43.514777 
L 555.49878 -43.691935 
L 555.774902 -43.870285 
L 556.051024 -44.049798 
L 556.327147 -44.230443 
L 556.603269 -44.41219 
L 556.879391 -44.595012 
L 557.155513 -44.778881 
L 557.431635 -44.963771 
L 557.707757 -45.149658 
L 557.983879 -45.336517 
L 558.260001 -45.524327 
L 558.536123 -45.713067 
L 558.812245 -45.902717 
L 559.088367 -46.093258 
L 559.364489 -46.284673 
L 559.640611 -46.476947 
L 559.916733 -46.670066 
L 560.192855 -46.864017 
L 560.468977 -47.058789 
L 560.745099 -47.25437 
L 561.021221 -47.450754 
L 561.297343 -47.647932 
L 561.573465 -47.845899 
L 561.849587 -48.04465 
L 562.12571 -48.244182 
L 562.401832 -48.444493 
L 562.677954 -48.645583 
L 562.954076 -48.847452 
L 563.230198 -49.050102 
L 563.50632 -49.253536 
L 563.782442 -49.457759 
L 564.058564 -49.662776 
L 564.334686 -49.868593 
L 564.610808 -50.075217 
L 564.88693 -50.282658 
L 565.163052 -50.490925 
L 565.439174 -50.700027 
L 565.715296 -50.909976 
L 565.991418 -51.120784 
L 566.26754 -51.332463 
L 566.543662 -51.545027 
L 566.819784 -51.758489 
L 567.095906 -51.972864 
L 567.372028 -52.188168 
L 567.64815 -52.404416 
L 567.924273 -52.621623 
L 568.200395 -52.839806 
L 568.476517 -53.058982 
L 568.752639 -53.279167 
L 569.028761 -53.50038 
L 569.304883 -53.722637 
L 569.581005 -53.945955 
L 569.857127 -54.170354 
L 570.133249 -54.395849 
L 570.409371 -54.62246 
L 570.685493 -54.850203 
L 570.961615 -55.079096 
L 571.237737 -55.309158 
L 571.513859 -55.540404 
L 571.789981 -55.772853 
L 572.066103 -56.006522 
L 572.342225 -56.241427 
L 572.618347 -56.477585 
L 572.894469 -56.715013 
L 573.170591 -56.953725 
L 573.446713 -57.193739 
L 573.722836 -57.435068 
L 573.998958 -57.677728 
L 574.27508 -57.921734 
L 574.551202 -58.1671 
L 574.827324 -58.413839 
L 575.103446 -58.661964 
L 575.379568 -58.911488 
L 575.65569 -59.162425 
L 575.931812 -59.414784 
L 576.207934 -59.668578 
L 576.484056 -59.923818 
L 576.760178 -60.180514 
L 577.0363 -60.438676 
L 577.312422 -60.698313 
L 577.588544 -60.959435 
L 577.864666 -61.222048 
L 578.140788 -61.486162 
L 578.41691 -61.751784 
L 578.693032 -62.01892 
L 578.969154 -62.287577 
L 579.245276 -62.557761 
L 579.521399 -62.829477 
L 579.797521 -63.102729 
L 580.073643 -63.377523 
L 580.349765 -63.653861 
L 580.625887 -63.931748 
L 580.902009 -64.211186 
L 581.178131 -64.492178 
L 581.454253 -64.774725 
L 581.730375 -65.058829 
L 582.006497 -65.344491 
L 582.282619 -65.631712 
L 582.558741 -65.920492 
L 582.834863 -66.21083 
L 583.110985 -66.502725 
L 583.387107 -66.796178 
L 583.663229 -67.091185 
L 583.939351 -67.387745 
L 584.215473 -67.685856 
L 584.491595 -67.985515 
L 584.767717 -68.286719 
L 585.043839 -68.589463 
L 585.319962 -68.893745 
L 585.596084 -69.19956 
L 585.872206 -69.506903 
L 586.148328 -69.815769 
L 586.42445 -70.126154 
L 586.700572 -70.43805 
L 586.976694 -70.751453 
L 587.252816 -71.066355 
L 587.528938 -71.38275 
L 587.80506 -71.700632 
L 588.081182 -72.019991 
L 588.357304 -72.340822 
L 588.633426 -72.663116 
L 588.909548 -72.986864 
L 589.18567 -73.312058 
L 589.461792 -73.638689 
L 589.737914 -73.966748 
L 590.014036 -74.296225 
L 590.290158 -74.627111 
L 590.56628 -74.959395 
L 590.842402 -75.293067 
L 591.118525 -75.628116 
L 591.394647 -75.964532 
L 591.670769 -76.302303 
L 591.946891 -76.641418 
L 592.223013 -76.981864 
L 592.499135 -77.323631 
L 592.775257 -77.666705 
L 593.051379 -78.011074 
L 593.327501 -78.356725 
L 593.603623 -78.703645 
L 593.879745 -79.051822 
L 594.155867 -79.40124 
L 594.431989 -79.751886 
L 594.708111 -80.103747 
L 594.984233 -80.456807 
L 595.260355 -80.811053 
L 595.536477 -81.166468 
L 595.812599 -81.523039 
L 596.088721 -81.88075 
L 596.364843 -82.239584 
L 596.640965 -82.599527 
L 596.917088 -82.960562 
L 597.19321 -83.322672 
L 597.469332 -83.685842 
L 597.745454 -84.050054 
L 598.021576 -84.415291 
L 598.297698 -84.781536 
L 598.57382 -85.148771 
L 598.849942 -85.516979 
L 599.126064 -85.886141 
L 599.402186 -86.256239 
L 599.678308 -86.627255 
L 599.95443 -86.99917 
L 600.230552 -87.371965 
L 600.506674 -87.74562 
L 600.782796 -88.120117 
L 601.058918 -88.495436 
L 601.33504 -88.871556 
L 601.611162 -89.248458 
L 601.887284 -89.626122 
L 602.163406 -90.004526 
L 602.439528 -90.38365 
L 602.715651 -90.763474 
L 602.991773 -91.143975 
L 603.267895 -91.525133 
L 603.544017 -91.906925 
L 603.820139 -92.289331 
L 603.820139 -92.289331 
L 603.820139 -34.848 
L 603.544017 -34.848 
L 603.267895 -34.848 
L 602.991773 -34.848 
L 602.715651 -34.848 
L 602.439528 -34.848 
L 602.163406 -34.848 
L 601.887284 -34.848 
L 601.611162 -34.848 
L 601.33504 -34.848 
L 601.058918 -34.848 
L 600.782796 -34.848 
L 600.506674 -34.848 
L 600.230552 -34.848 
L 599.95443 -34.848 
L 599.678308 -34.848 
L 599.402186 -34.848 
L 599.126064 -34.848 
L 598.849942 -34.848 
L 598.57382 -34.848 
L 598.297698 -34.848 
L 598.021576 -34.848 
L 597.745454 -34.848 
L 597.469332 -34.848 
L 597.19321 -34.848 
L 596.917088 -34.848 
L 596.640965 -34.848 
L 596.364843 -34.848 
L 596.088721 -34.848 
L 595.812599 -34.848 
L 595.536477 -34.848 
L 595.260355 -34.848 
L 594.984233 -34.848 
L 594.708111 -34.848 
L 594.431989 -34.848 
L 594.155867 -34.848 
L 593.879745 -34.848 
L 593.603623 -34.848 
L 593.327501 -34.848 
L 593.051379 -34.848 
L 592.775257 -34.848 
L 592.499135 -34.848 
L 592.223013 -34.848 
L 591.946891 -34.848 
L 591.670769 -34.848 
L 591.394647 -34.848 
L 591.118525 -34.848 
L 590.842402 -34.848 
L 590.56628 -34.848 
L 590.290158 -34.848 
L 590.014036 -34.848 
L 589.737914 -34.848 
L 589.461792 -34.848 
L 589.18567 -34.848 
L 588.909548 -34.848 
L 588.633426 -34.848 
L 588.357304 -34.848 
L 588.081182 -34.848 
L 587.80506 -34.848 
L 587.528938 -34.848 
L 587.252816 -34.848 
L 586.976694 -34.848 
L 586.700572 -34.848 
L 586.42445 -34.848 
L 586.148328 -34.848 
L 585.872206 -34.848 
L 585.596084 -34.848 
L 585.319962 -34.848 
L 585.043839 -34.848 
L 584.767717 -34.848 
L 584.491595 -34.848 
L 584.215473 -34.848 
L 583.939351 -34.848 
L 583.663229 -34.848 
L 583.387107 -34.848 
L 583.110985 -34.848 
L 582.834863 -34.848 
L 582.558741 -34.848 
L 582.282619 -34.848 
L 582.006497 -34.848 
L 581.730375 -34.848 
L 581.454253 -34.848 
L 581.178131 -34.848 
L 580.902009 -34.848 
L 580.625887 -34.848 
L 580.349765 -34.848 
L 580.073643 -34.848 
L 579.797521 -34.848 
L 579.521399 -34.848 
L 579.245276 -34.848 
L 578.969154 -34.848 
L 578.693032 -34.848 
L 578.41691 -34.848 
L 578.140788 -34.848 
L 577.864666 -34.848 
L 577.588544 -34.848 
L 577.312422 -34.848 
L 577.0363 -34.848 
L 576.760178 -34.848 
L 576.484056 -34.848 
L 576.207934 -34.848 
L 575.931812 -34.848 
L 575.65569 -34.848 
L 575.379568 -34.848 
L 575.103446 -34.848 
L 574.827324 -34.848 
L 574.551202 -34.848 
L 574.27508 -34.848 
L 573.998958 -34.848 
L 573.722836 -34.848 
L 573.446713 -34.848 
L 573.170591 -34.848 
L 572.894469 -34.848 
L 572.618347 -34.848 
L 572.342225 -34.848 
L 572.066103 -34.848 
L 571.789981 -34.848 
L 571.513859 -34.848 
L 571.237737 -34.848 
L 570.961615 -34.848 
L 570.685493 -34.848 
L 570.409371 -34.848 
L 570.133249 -34.848 
L 569.857127 -34.848 
L 569.581005 -34.848 
L 569.304883 -34.848 
L 569.028761 -34.848 
L 568.752639 -34.848 
L 568.476517 -34.848 
L 568.200395 -34.848 
L 567.924273 -34.848 
L 567.64815 -34.848 
L 567.372028 -34.848 
L 567.095906 -34.848 
L 566.819784 -34.848 
L 566.543662 -34.848 
L 566.26754 -34.848 
L 565.991418 -34.848 
L 565.715296 -34.848 
L 565.439174 -34.848 
L 565.163052 -34.848 
L 564.88693 -34.848 
L 564.610808 -34.848 
L 564.334686 -34.848 
L 564.058564 -34.848 
L 563.782442 -34.848 
L 563.50632 -34.848 
L 563.230198 -34.848 
L 562.954076 -34.848 
L 562.677954 -34.848 
L 562.401832 -34.848 
L 562.12571 -34.848 
L 561.849587 -34.848 
L 561.573465 -34.848 
L 561.297343 -34.848 
L 561.021221 -34.848 
L 560.745099 -34.848 
L 560.468977 -34.848 
L 560.192855 -34.848 
L 559.916733 -34.848 
L 559.640611 -34.848 
L 559.364489 -34.848 
L 559.088367 -34.848 
L 558.812245 -34.848 
L 558.536123 -34.848 
L 558.260001 -34.848 
L 557.983879 -34.848 
L 557.707757 -34.848 
L 557.431635 -34.848 
L 557.155513 -34.848 
L 556.879391 -34.848 
L 556.603269 -34.848 
L 556.327147 -34.848 
L 556.051024 -34.848 
L 555.774902 -34.848 
L 555.49878 -34.848 
L 555.222658 -34.848 
L 554.946536 -34.848 
L 554.670414 -34.848 
L 554.394292 -34.848 
L 554.11817 -34.848 
L 553.842048 -34.848 
L 553.565926 -34.848 
L 553.289804 -34.848 
L 553.013682 -34.848 
L 552.73756 -34.848 
L 552.461438 -34.848 
L 552.185316 -34.848 
L 551.909194 -34.848 
L 551.633072 -34.848 
L 551.35695 -34.848 
L 551.080828 -34.848 
L 550.804706 -34.848 
L 550.528584 -34.848 
L 550.252461 -34.848 
L 549.976339 -34.848 
L 549.700217 -34.848 
L 549.424095 -34.848 
L 549.147973 -34.848 
L 548.871851 -34.848 
L 548.595729 -34.848 
L 548.319607 -34.848 
L 548.043485 -34.848 
L 547.767363 -34.848 
L 547.491241 -34.848 
L 547.215119 -34.848 
L 546.938997 -34.848 
L 546.662875 -34.848 
L 546.386753 -34.848 
L 546.110631 -34.848 
L 545.834509 -34.848 
L 545.558387 -34.848 
L 545.282265 -34.848 
L 545.006143 -34.848 
L 544.730021 -34.848 
L 544.453898 -34.848 
L 544.177776 -34.848 
L 543.901654 -34.848 
L 543.625532 -34.848 
L 543.34941 -34.848 
L 543.073288 -34.848 
L 542.797166 -34.848 
L 542.521044 -34.848 
L 542.244922 -34.848 
L 541.9688 -34.848 
L 541.692678 -34.848 
L 541.416556 -34.848 
L 541.140434 -34.848 
L 540.864312 -34.848 
L 540.58819 -34.848 
L 540.312068 -34.848 
L 540.035946 -34.848 
L 539.759824 -34.848 
L 539.483702 -34.848 
L 539.20758 -34.848 
L 538.931458 -34.848 
L 538.655335 -34.848 
L 538.379213 -34.848 
L 538.103091 -34.848 
L 537.826969 -34.848 
L 537.550847 -34.848 
L 537.274725 -34.848 
L 536.998603 -34.848 
L 536.722481 -34.848 
L 536.446359 -34.848 
L 536.170237 -34.848 
L 535.894115 -34.848 
L 535.617993 -34.848 
L 535.341871 -34.848 
L 535.065749 -34.848 
L 534.789627 -34.848 
L 534.513505 -34.848 
L 534.237383 -34.848 
L 533.961261 -34.848 
L 533.685139 -34.848 
L 533.409017 -34.848 
L 533.132895 -34.848 
L 532.856772 -34.848 
L 532.58065 -34.848 
L 532.304528 -34.848 
L 532.028406 -34.848 
L 531.752284 -34.848 
L 531.476162 -34.848 
L 531.20004 -34.848 
L 530.923918 -34.848 
L 530.647796 -34.848 
L 530.371674 -34.848 
L 530.095552 -34.848 
L 529.81943 -34.848 
L 529.543308 -34.848 
L 529.267186 -34.848 
L 528.991064 -34.848 
L 528.714942 -34.848 
L 528.43882 -34.848 
L 528.162698 -34.848 
L 527.886576 -34.848 
L 527.610454 -34.848 
L 527.334332 -34.848 
L 527.058209 -34.848 
L 526.782087 -34.848 
L 526.505965 -34.848 
L 526.229843 -34.848 
L 525.953721 -34.848 
L 525.677599 -34.848 
L 525.401477 -34.848 
L 525.125355 -34.848 
L 524.849233 -34.848 
L 524.573111 -34.848 
L 524.296989 -34.848 
L 524.020867 -34.848 
L 523.744745 -34.848 
L 523.468623 -34.848 
L 523.192501 -34.848 
L 522.916379 -34.848 
L 522.640257 -34.848 
L 522.364135 -34.848 
L 522.088013 -34.848 
L 521.811891 -34.848 
L 521.535769 -34.848 
L 521.259646 -34.848 
L 520.983524 -34.848 
L 520.707402 -34.848 
L 520.43128 -34.848 
L 520.155158 -34.848 
L 519.879036 -34.848 
L 519.602914 -34.848 
L 519.326792 -34.848 
L 519.05067 -34.848 
z
" style="stroke: #4c72b0; stroke-opacity: 0.3"/>
    </defs>
    <g>
     <use xlink:href="#mdbc3e2babf" x="0" y="158.4" style="fill: #4c72b0; fill-opacity: 0.3; stroke: #4c72b0; stroke-opacity: 0.3"/>
    </g>
   </g>
   <g id="line2d_34">
    <path d="M 519.05067 123.536637 
L 527.886576 123.389134 
L 532.58065 123.10087 
L 536.170237 122.666524 
L 539.20758 122.087659 
L 541.9688 121.353788 
L 544.730021 120.40003 
L 547.491241 119.221529 
L 550.528584 117.681235 
L 553.842048 115.751967 
L 557.983879 113.063483 
L 562.954076 109.552548 
L 567.924273 105.778377 
L 572.342225 102.158573 
L 576.484056 98.476182 
L 580.349765 94.746139 
L 584.215473 90.714144 
L 588.357304 86.059178 
L 592.775257 80.733295 
L 597.469332 74.714158 
L 602.991773 67.256025 
L 611.275434 55.639323 
L 620.11134 43.353777 
L 625.081536 36.831707 
L 629.223367 31.771162 
L 632.812954 27.743559 
L 635.850296 24.644059 
L 638.887639 21.864731 
L 641.648859 19.643072 
L 644.133958 17.910564 
L 646.619056 16.445421 
L 648.828032 15.377151 
L 651.037009 14.536405 
L 653.245985 13.92863 
L 655.454962 13.557783 
L 657.663938 13.426286 
L 659.872914 13.534997 
L 662.081891 13.883207 
L 664.290867 14.468641 
L 666.499843 15.287487 
L 668.70882 16.334437 
L 671.193918 17.776453 
L 673.679017 19.486914 
L 676.440237 21.685541 
L 679.201458 24.177168 
L 682.2388 27.227755 
L 685.552265 30.886064 
L 689.141851 35.183647 
L 693.283682 40.49226 
L 698.530001 47.602332 
L 707.918151 60.798916 
L 715.649568 71.490463 
L 720.895887 78.38124 
L 725.589962 84.184109 
L 729.731792 88.970438 
L 733.873623 93.419732 
L 738.015454 97.530573 
L 742.157285 101.327026 
L 746.851359 105.31114 
L 752.097678 109.458321 
L 757.067875 113.124213 
L 761.209706 115.915921 
L 764.52317 117.893682 
L 767.560513 119.447242 
L 770.321733 120.61441 
L 773.082954 121.540596 
L 775.844174 122.238162 
L 778.881517 122.77548 
L 782.471103 123.167457 
L 786.889056 123.409268 
L 793.792107 123.529315 
L 794.896596 123.535659 
L 794.896596 123.535659 
" style="fill: none; stroke: #4c72b0; stroke-width: 1.5; stroke-linecap: round"/>
   </g>
   <g id="line2d_35">
    <path d="M 33.12 123.552 
L 794.88 123.552 
" style="fill: none; stroke: #808080; stroke-width: 0.5; stroke-linecap: round"/>
   </g>
   <g id="text_10">
    <text style="font-size: 10px; font-family: 'Arial', 'DejaVu Sans', 'Liberation Sans', 'Bitstream Vera Sans', sans-serif; text-anchor: middle" x="657.711079" y="121.447313" transform="rotate(-0 657.711079 121.447313)">Sweden (2026)</text>
   </g>
  </g>
 </g>
</svg>
