<?xml version="1.0" encoding="utf-8" standalone="no"?>
<!DOCTYPE svg PUBLIC "-//W3C//DTD SVG 1.1//EN"
  "http://www.w3.org/Graphics/SVG/1.1/DTD/svg11.dtd">
<svg xmlns:xlink="http://www.w3.org/1999/xlink" width="656.114914pt" height="183.151437pt" viewBox="0 0 656.114914 183.151437" xmlns="http://www.w3.org/2000/svg" version="1.1">
 <metadata>
  <rdf:RDF xmlns:dc="http://purl.org/dc/elements/1.1/" xmlns:cc="http://creativecommons.org/ns#" xmlns:rdf="http://www.w3.org/1999/02/22-rdf-syntax-ns#">
   <cc:Work>
    <dc:type rdf:resource="http://purl.org/dc/dcmitype/StillImage"/>
    <dc:date>2026-05-28T14:12:57.531049</dc:date>
    <dc:format>image/svg+xml</dc:format>
    <dc:creator>
     <cc:Agent>
      <dc:title>Matplotlib v3.10.9, https://matplotlib.org/</dc:title>
     </cc:Agent>
    </dc:creator>
   </cc:Work>
  </rdf:RDF>
 </metadata>
 <defs>
  <style type="text/css">*{stroke-linejoin: round; stroke-linecap: butt}</style>
 </defs>
 <g id="figure_1">
  <g id="patch_1">
   <path d="M 0 183.151437 
L 656.114914 183.151437 
L 656.114914 0 
L 0 0 
z
" style="fill: #ffffff"/>
  </g>
  <g id="axes_1">
   <g id="patch_2">
    <path d="M 7.2 146.42175 
L 648.9 146.42175 
L 648.9 24.45375 
L 7.2 24.45375 
z
" style="fill: #ffffff"/>
   </g>
   <g id="matplotlib.axis_1">
    <g id="xtick_1">
     <g id="line2d_1">
      <defs>
       <path id="mcfd671690c" d="M 0 0 
L 0 3.5 
" style="stroke: #262626; stroke-width: 0.8"/>
      </defs>
      <g>
       <use xlink:href="#mcfd671690c" x="41.482123" y="146.42175" style="fill: #262626; stroke: #262626; stroke-width: 0.8"/>
      </g>
     </g>
     <g id="text_1">
      <text style="font-size: 10px; font-family: 'Arial', 'DejaVu Sans', 'Liberation Sans', 'Bitstream Vera Sans', sans-serif; text-anchor: middle; fill: #262626" x="41.482123" y="160.579562" transform="rotate(-0 41.482123 160.579562)">$2</text>
     </g>
    </g>
    <g id="xtick_2">
     <g id="line2d_2">
      <g>
       <use xlink:href="#mcfd671690c" x="108.679018" y="146.42175" style="fill: #262626; stroke: #262626; stroke-width: 0.8"/>
      </g>
     </g>
     <g id="text_2">
      <text style="font-size: 10px; font-family: 'Arial', 'DejaVu Sans', 'Liberation Sans', 'Bitstream Vera Sans', sans-serif; text-anchor: middle; fill: #262626" x="108.679018" y="160.579562" transform="rotate(-0 108.679018 160.579562)">$5</text>
     </g>
    </g>
    <g id="xtick_3">
     <g id="line2d_3">
      <g>
       <use xlink:href="#mcfd671690c" x="159.511507" y="146.42175" style="fill: #262626; stroke: #262626; stroke-width: 0.8"/>
      </g>
     </g>
     <g id="text_3">
      <text style="font-size: 10px; font-family: 'Arial', 'DejaVu Sans', 'Liberation Sans', 'Bitstream Vera Sans', sans-serif; text-anchor: middle; fill: #262626" x="159.511507" y="160.579562" transform="rotate(-0 159.511507 160.579562)">$10</text>
     </g>
    </g>
    <g id="xtick_4">
     <g id="line2d_4">
      <g>
       <use xlink:href="#mcfd671690c" x="210.343995" y="146.42175" style="fill: #262626; stroke: #262626; stroke-width: 0.8"/>
      </g>
     </g>
     <g id="text_4">
      <text style="font-size: 10px; font-family: 'Arial', 'DejaVu Sans', 'Liberation Sans', 'Bitstream Vera Sans', sans-serif; text-anchor: middle; fill: #262626" x="210.343995" y="160.579562" transform="rotate(-0 210.343995 160.579562)">$20</text>
     </g>
    </g>
    <g id="xtick_5">
     <g id="line2d_5">
      <g>
       <use xlink:href="#mcfd671690c" x="277.54089" y="146.42175" style="fill: #262626; stroke: #262626; stroke-width: 0.8"/>
      </g>
     </g>
     <g id="text_5">
      <text style="font-size: 10px; font-family: 'Arial', 'DejaVu Sans', 'Liberation Sans', 'Bitstream Vera Sans', sans-serif; text-anchor: middle; fill: #262626" x="277.54089" y="160.579562" transform="rotate(-0 277.54089 160.579562)">$50</text>
     </g>
    </g>
    <g id="xtick_6">
     <g id="line2d_6">
      <g>
       <use xlink:href="#mcfd671690c" x="328.373379" y="146.42175" style="fill: #262626; stroke: #262626; stroke-width: 0.8"/>
      </g>
     </g>
     <g id="text_6">
      <text style="font-size: 10px; font-family: 'Arial', 'DejaVu Sans', 'Liberation Sans', 'Bitstream Vera Sans', sans-serif; text-anchor: middle; fill: #262626" x="328.373379" y="160.579562" transform="rotate(-0 328.373379 160.579562)">$100</text>
     </g>
    </g>
    <g id="xtick_7">
     <g id="line2d_7">
      <g>
       <use xlink:href="#mcfd671690c" x="379.205868" y="146.42175" style="fill: #262626; stroke: #262626; stroke-width: 0.8"/>
      </g>
     </g>
     <g id="text_7">
      <text style="font-size: 10px; font-family: 'Arial', 'DejaVu Sans', 'Liberation Sans', 'Bitstream Vera Sans', sans-serif; text-anchor: middle; fill: #262626" x="379.205868" y="160.579562" transform="rotate(-0 379.205868 160.579562)">$200</text>
     </g>
    </g>
    <g id="xtick_8">
     <g id="line2d_8">
      <g>
       <use xlink:href="#mcfd671690c" x="446.402762" y="146.42175" style="fill: #262626; stroke: #262626; stroke-width: 0.8"/>
      </g>
     </g>
     <g id="text_8">
      <text style="font-size: 10px; font-family: 'Arial', 'DejaVu Sans', 'Liberation Sans', 'Bitstream Vera Sans', sans-serif; text-anchor: middle; fill: #262626" x="446.402762" y="160.579562" transform="rotate(-0 446.402762 160.579562)">$500</text>
     </g>
    </g>
    <g id="xtick_9">
     <g id="line2d_9">
      <g>
       <use xlink:href="#mcfd671690c" x="497.235251" y="146.42175" style="fill: #262626; stroke: #262626; stroke-width: 0.8"/>
      </g>
     </g>
     <g id="text_9">
      <text style="font-size: 10px; font-family: 'Arial', 'DejaVu Sans', 'Liberation Sans', 'Bitstream Vera Sans', sans-serif; text-anchor: middle; fill: #262626" x="497.235251" y="160.579562" transform="rotate(-0 497.235251 160.579562)">$1000</text>
     </g>
    </g>
    <g id="xtick_10">
     <g id="line2d_10">
      <g>
       <use xlink:href="#mcfd671690c" x="548.06774" y="146.42175" style="fill: #262626; stroke: #262626; stroke-width: 0.8"/>
      </g>
     </g>
     <g id="text_10">
      <text style="font-size: 10px; font-family: 'Arial', 'DejaVu Sans', 'Liberation Sans', 'Bitstream Vera Sans', sans-serif; text-anchor: middle; fill: #262626" x="548.06774" y="160.579562" transform="rotate(-0 548.06774 160.579562)">$2000</text>
     </g>
    </g>
    <g id="xtick_11">
     <g id="line2d_11">
      <g>
       <use xlink:href="#mcfd671690c" x="615.264635" y="146.42175" style="fill: #262626; stroke: #262626; stroke-width: 0.8"/>
      </g>
     </g>
     <g id="text_11">
      <text style="font-size: 10px; font-family: 'Arial', 'DejaVu Sans', 'Liberation Sans', 'Bitstream Vera Sans', sans-serif; text-anchor: middle; fill: #262626" x="615.264635" y="160.579562" transform="rotate(-0 615.264635 160.579562)">$5000</text>
     </g>
    </g>
    <g id="xtick_12">
     <g id="line2d_12">
      <defs>
       <path id="m86a716fb99" d="M 0 0 
L 0 2 
" style="stroke: #262626; stroke-width: 0.6"/>
      </defs>
      <g>
       <use xlink:href="#m86a716fb99" x="71.217223" y="146.42175" style="fill: #262626; stroke: #262626; stroke-width: 0.6"/>
      </g>
     </g>
    </g>
    <g id="xtick_13">
     <g id="line2d_13">
      <g>
       <use xlink:href="#m86a716fb99" x="92.314612" y="146.42175" style="fill: #262626; stroke: #262626; stroke-width: 0.6"/>
      </g>
     </g>
    </g>
    <g id="xtick_14">
     <g id="line2d_14">
      <g>
       <use xlink:href="#m86a716fb99" x="122.049711" y="146.42175" style="fill: #262626; stroke: #262626; stroke-width: 0.6"/>
      </g>
     </g>
    </g>
    <g id="xtick_15">
     <g id="line2d_15">
      <g>
       <use xlink:href="#m86a716fb99" x="133.354472" y="146.42175" style="fill: #262626; stroke: #262626; stroke-width: 0.6"/>
      </g>
     </g>
    </g>
    <g id="xtick_16">
     <g id="line2d_16">
      <g>
       <use xlink:href="#m86a716fb99" x="143.1471" y="146.42175" style="fill: #262626; stroke: #262626; stroke-width: 0.6"/>
      </g>
     </g>
    </g>
    <g id="xtick_17">
     <g id="line2d_17">
      <g>
       <use xlink:href="#m86a716fb99" x="151.784811" y="146.42175" style="fill: #262626; stroke: #262626; stroke-width: 0.6"/>
      </g>
     </g>
    </g>
    <g id="xtick_18">
     <g id="line2d_18">
      <g>
       <use xlink:href="#m86a716fb99" x="240.079095" y="146.42175" style="fill: #262626; stroke: #262626; stroke-width: 0.6"/>
      </g>
     </g>
    </g>
    <g id="xtick_19">
     <g id="line2d_19">
      <g>
       <use xlink:href="#m86a716fb99" x="261.176484" y="146.42175" style="fill: #262626; stroke: #262626; stroke-width: 0.6"/>
      </g>
     </g>
    </g>
    <g id="xtick_20">
     <g id="line2d_20">
      <g>
       <use xlink:href="#m86a716fb99" x="290.911584" y="146.42175" style="fill: #262626; stroke: #262626; stroke-width: 0.6"/>
      </g>
     </g>
    </g>
    <g id="xtick_21">
     <g id="line2d_21">
      <g>
       <use xlink:href="#m86a716fb99" x="302.216344" y="146.42175" style="fill: #262626; stroke: #262626; stroke-width: 0.6"/>
      </g>
     </g>
    </g>
    <g id="xtick_22">
     <g id="line2d_22">
      <g>
       <use xlink:href="#m86a716fb99" x="312.008973" y="146.42175" style="fill: #262626; stroke: #262626; stroke-width: 0.6"/>
      </g>
     </g>
    </g>
    <g id="xtick_23">
     <g id="line2d_23">
      <g>
       <use xlink:href="#m86a716fb99" x="320.646683" y="146.42175" style="fill: #262626; stroke: #262626; stroke-width: 0.6"/>
      </g>
     </g>
    </g>
    <g id="xtick_24">
     <g id="line2d_24">
      <g>
       <use xlink:href="#m86a716fb99" x="408.940967" y="146.42175" style="fill: #262626; stroke: #262626; stroke-width: 0.6"/>
      </g>
     </g>
    </g>
    <g id="xtick_25">
     <g id="line2d_25">
      <g>
       <use xlink:href="#m86a716fb99" x="430.038356" y="146.42175" style="fill: #262626; stroke: #262626; stroke-width: 0.6"/>
      </g>
     </g>
    </g>
    <g id="xtick_26">
     <g id="line2d_26">
      <g>
       <use xlink:href="#m86a716fb99" x="459.773456" y="146.42175" style="fill: #262626; stroke: #262626; stroke-width: 0.6"/>
      </g>
     </g>
    </g>
    <g id="xtick_27">
     <g id="line2d_27">
      <g>
       <use xlink:href="#m86a716fb99" x="471.078216" y="146.42175" style="fill: #262626; stroke: #262626; stroke-width: 0.6"/>
      </g>
     </g>
    </g>
    <g id="xtick_28">
     <g id="line2d_28">
      <g>
       <use xlink:href="#m86a716fb99" x="480.870845" y="146.42175" style="fill: #262626; stroke: #262626; stroke-width: 0.6"/>
      </g>
     </g>
    </g>
    <g id="xtick_29">
     <g id="line2d_29">
      <g>
       <use xlink:href="#m86a716fb99" x="489.508556" y="146.42175" style="fill: #262626; stroke: #262626; stroke-width: 0.6"/>
      </g>
     </g>
    </g>
    <g id="xtick_30">
     <g id="line2d_30">
      <g>
       <use xlink:href="#m86a716fb99" x="577.802839" y="146.42175" style="fill: #262626; stroke: #262626; stroke-width: 0.6"/>
      </g>
     </g>
    </g>
    <g id="xtick_31">
     <g id="line2d_31">
      <g>
       <use xlink:href="#m86a716fb99" x="598.900228" y="146.42175" style="fill: #262626; stroke: #262626; stroke-width: 0.6"/>
      </g>
     </g>
    </g>
    <g id="xtick_32">
     <g id="line2d_32">
      <g>
       <use xlink:href="#m86a716fb99" x="628.635328" y="146.42175" style="fill: #262626; stroke: #262626; stroke-width: 0.6"/>
      </g>
     </g>
    </g>
    <g id="xtick_33">
     <g id="line2d_33">
      <g>
       <use xlink:href="#m86a716fb99" x="639.940088" y="146.42175" style="fill: #262626; stroke: #262626; stroke-width: 0.6"/>
      </g>
     </g>
    </g>
    <g id="text_12">
     <text style="font-size: 10px; font-family: 'Arial', 'DejaVu Sans', 'Liberation Sans', 'Bitstream Vera Sans', sans-serif; text-anchor: middle; fill: #262626" x="328.05" y="173.84675" transform="rotate(-0 328.05 173.84675)">Income or consumption (month)</text>
    </g>
   </g>
   <g id="matplotlib.axis_2"/>
   <g id="FillBetweenPolyCollection_1">
    <defs>
     <path id="m1f3b215066" d="M 340.499879 -36.729687 
L 340.499879 -36.734724 
L 342.049704 -36.737751 
L 343.599528 -36.742286 
L 345.149352 -36.748901 
L 346.699176 -36.758297 
L 348.249001 -36.77129 
L 349.798825 -36.788785 
L 351.348649 -36.811728 
L 352.898474 -36.841035 
L 354.448298 -36.877509 
L 355.998122 -36.921755 
L 357.547947 -36.974102 
L 359.097771 -37.034541 
L 360.647595 -37.102705 
L 362.197419 -37.177887 
L 363.747244 -37.2591 
L 365.297068 -37.345165 
L 366.846892 -37.434824 
L 368.396717 -37.526841 
L 369.946541 -37.620088 
L 371.496365 -37.713584 
L 373.046189 -37.806497 
L 374.596014 -37.898103 
L 376.145838 -37.987721 
L 377.695662 -38.074643 
L 379.245487 -38.158082 
L 380.795311 -38.237161 
L 382.345135 -38.310941 
L 383.89496 -38.378505 
L 385.444784 -38.439074 
L 386.994608 -38.492139 
L 388.544432 -38.537588 
L 390.094257 -38.575799 
L 391.644081 -38.607686 
L 393.193905 -38.634676 
L 394.74373 -38.658632 
L 396.293554 -38.681722 
L 397.843378 -38.706265 
L 399.393203 -38.73456 
L 400.943027 -38.768743 
L 402.492851 -38.810673 
L 404.042675 -38.861865 
L 405.5925 -38.923468 
L 407.142324 -38.996287 
L 408.692148 -39.080848 
L 410.241973 -39.177487 
L 411.791797 -39.286471 
L 413.341621 -39.408144 
L 414.891446 -39.543084 
L 416.44127 -39.692268 
L 417.991094 -39.857225 
L 419.540918 -40.040141 
L 421.090743 -40.2439 
L 422.640567 -40.472021 
L 424.190391 -40.728484 
L 425.740216 -41.01744 
L 427.29004 -41.342823 
L 428.839864 -41.707929 
L 430.389688 -42.11499 
L 431.939513 -42.564847 
L 433.489337 -43.056754 
L 435.039161 -43.588381 
L 436.588986 -44.156005 
L 438.13881 -44.754883 
L 439.688634 -45.379749 
L 441.238459 -46.025338 
L 442.788283 -46.686864 
L 444.338107 -47.360368 
L 445.887931 -48.042878 
L 447.437756 -48.732375 
L 448.98758 -49.427609 
L 450.537404 -50.12782 
L 452.087229 -50.832477 
L 453.637053 -51.541104 
L 455.186877 -52.253286 
L 456.736702 -52.968842 
L 458.286526 -53.688168 
L 459.83635 -54.412663 
L 461.386174 -55.145128 
L 462.935999 -55.890034 
L 464.485823 -56.653567 
L 466.035647 -57.44339 
L 467.585472 -58.268131 
L 469.135296 -59.136653 
L 470.68512 -60.057223 
L 472.234945 -61.036725 
L 473.784769 -62.080064 
L 475.334593 -63.18991 
L 476.884417 -64.366858 
L 478.434242 -65.610021 
L 479.984066 -66.918024 
L 481.53389 -68.290233 
L 483.083715 -69.728078 
L 484.633539 -71.236214 
L 486.183363 -72.823354 
L 487.733187 -74.502579 
L 489.283012 -76.291049 
L 490.832836 -78.209075 
L 492.38266 -80.278643 
L 493.932485 -82.521522 
L 495.482309 -84.957141 
L 497.032133 -87.600458 
L 498.581958 -90.460042 
L 500.131782 -93.536534 
L 501.681606 -96.82164 
L 503.23143 -100.29775 
L 504.781255 -103.938195 
L 506.331079 -107.708132 
L 507.880903 -111.565991 
L 509.430728 -115.465353 
L 510.980552 -119.357129 
L 512.530376 -123.191838 
L 514.080201 -126.921808 
L 515.630025 -130.503068 
L 517.179849 -133.896777 
L 518.729673 -137.070037 
L 520.279498 -139.996049 
L 521.829322 -142.653667 
L 523.379146 -145.026497 
L 524.928971 -147.101805 
L 526.478795 -148.869498 
L 528.028619 -150.321476 
L 529.578444 -151.451518 
L 531.128268 -152.255775 
L 532.678092 -152.733773 
L 534.227916 -152.889687 
L 535.777741 -152.73357 
L 537.327565 -152.282198 
L 538.877389 -151.559264 
L 540.427214 -150.594769 
L 541.977038 -149.42362 
L 543.526862 -148.083587 
L 545.076686 -146.612904 
L 546.626511 -145.047815 
L 548.176335 -143.420383 
L 549.726159 -141.756773 
L 551.275984 -140.07615 
L 552.825808 -138.390204 
L 554.375632 -136.703225 
L 555.925457 -135.012629 
L 557.475281 -133.309802 
L 559.025105 -131.581173 
L 560.574929 -129.809464 
L 562.124754 -127.975084 
L 563.674578 -126.057667 
L 565.224402 -124.037714 
L 566.774227 -121.898263 
L 568.324051 -119.626472 
L 569.873875 -117.214941 
L 571.4237 -114.662618 
L 572.973524 -111.975143 
L 574.523348 -109.164573 
L 576.073172 -106.248515 
L 577.622997 -103.248799 
L 579.172821 -100.189874 
L 580.722645 -97.097161 
L 582.27247 -93.995566 
L 583.822294 -90.908305 
L 585.372118 -87.856108 
L 586.921943 -84.856803 
L 588.471767 -81.925207 
L 590.021591 -79.073209 
L 591.571415 -76.309971 
L 593.12124 -73.642143 
L 594.671064 -71.074076 
L 596.220888 -68.608028 
L 597.770713 -66.244384 
L 599.320537 -63.981932 
L 600.870361 -61.818215 
L 602.420185 -59.749959 
L 603.97001 -57.773568 
L 605.519834 -55.885622 
L 607.069658 -54.083348 
L 608.619483 -52.364998 
L 610.169307 -50.730085 
L 611.719131 -49.179467 
L 613.268956 -47.715246 
L 614.81878 -46.340525 
L 616.368604 -45.059017 
L 617.918428 -43.874573 
L 619.468253 -42.790665 
L 621.018077 -41.809879 
L 622.567901 -40.93347 
L 624.117726 -40.161023 
L 625.66755 -39.490258 
L 627.217374 -38.916989 
L 628.767199 -38.43525 
L 630.317023 -38.037561 
L 631.866847 -37.715306 
L 633.416671 -37.459178 
L 634.966496 -37.259641 
L 636.51632 -37.107366 
L 638.066144 -36.993591 
L 639.615969 -36.910405 
L 641.165793 -36.850914 
L 642.715617 -36.809313 
L 644.265442 -36.780881 
L 645.815266 -36.761893 
L 647.36509 -36.749506 
L 648.914914 -36.741614 
L 648.914914 -36.729687 
L 648.914914 -36.729687 
L 647.36509 -36.729687 
L 645.815266 -36.729687 
L 644.265442 -36.729687 
L 642.715617 -36.729687 
L 641.165793 -36.729687 
L 639.615969 -36.729687 
L 638.066144 -36.729687 
L 636.51632 -36.729687 
L 634.966496 -36.729687 
L 633.416671 -36.729687 
L 631.866847 -36.729687 
L 630.317023 -36.729687 
L 628.767199 -36.729687 
L 627.217374 -36.729687 
L 625.66755 -36.729687 
L 624.117726 -36.729687 
L 622.567901 -36.729687 
L 621.018077 -36.729687 
L 619.468253 -36.729687 
L 617.918428 -36.729687 
L 616.368604 -36.729687 
L 614.81878 -36.729687 
L 613.268956 -36.729687 
L 611.719131 -36.729687 
L 610.169307 -36.729687 
L 608.619483 -36.729687 
L 607.069658 -36.729687 
L 605.519834 -36.729687 
L 603.97001 -36.729687 
L 602.420185 -36.729687 
L 600.870361 -36.729687 
L 599.320537 -36.729687 
L 597.770713 -36.729687 
L 596.220888 -36.729687 
L 594.671064 -36.729687 
L 593.12124 -36.729687 
L 591.571415 -36.729687 
L 590.021591 -36.729687 
L 588.471767 -36.729687 
L 586.921943 -36.729687 
L 585.372118 -36.729687 
L 583.822294 -36.729687 
L 582.27247 -36.729687 
L 580.722645 -36.729687 
L 579.172821 -36.729687 
L 577.622997 -36.729687 
L 576.073172 -36.729687 
L 574.523348 -36.729687 
L 572.973524 -36.729687 
L 571.4237 -36.729687 
L 569.873875 -36.729687 
L 568.324051 -36.729687 
L 566.774227 -36.729687 
L 565.224402 -36.729687 
L 563.674578 -36.729687 
L 562.124754 -36.729687 
L 560.574929 -36.729687 
L 559.025105 -36.729687 
L 557.475281 -36.729687 
L 555.925457 -36.729687 
L 554.375632 -36.729687 
L 552.825808 -36.729687 
L 551.275984 -36.729687 
L 549.726159 -36.729687 
L 548.176335 -36.729687 
L 546.626511 -36.729687 
L 545.076686 -36.729687 
L 543.526862 -36.729687 
L 541.977038 -36.729687 
L 540.427214 -36.729687 
L 538.877389 -36.729687 
L 537.327565 -36.729687 
L 535.777741 -36.729687 
L 534.227916 -36.729687 
L 532.678092 -36.729687 
L 531.128268 -36.729687 
L 529.578444 -36.729687 
L 528.028619 -36.729687 
L 526.478795 -36.729687 
L 524.928971 -36.729687 
L 523.379146 -36.729687 
L 521.829322 -36.729687 
L 520.279498 -36.729687 
L 518.729673 -36.729687 
L 517.179849 -36.729687 
L 515.630025 -36.729687 
L 514.080201 -36.729687 
L 512.530376 -36.729687 
L 510.980552 -36.729687 
L 509.430728 -36.729687 
L 507.880903 -36.729687 
L 506.331079 -36.729687 
L 504.781255 -36.729687 
L 503.23143 -36.729687 
L 501.681606 -36.729687 
L 500.131782 -36.729687 
L 498.581958 -36.729687 
L 497.032133 -36.729687 
L 495.482309 -36.729687 
L 493.932485 -36.729687 
L 492.38266 -36.729687 
L 490.832836 -36.729687 
L 489.283012 -36.729687 
L 487.733187 -36.729687 
L 486.183363 -36.729687 
L 484.633539 -36.729687 
L 483.083715 -36.729687 
L 481.53389 -36.729687 
L 479.984066 -36.729687 
L 478.434242 -36.729687 
L 476.884417 -36.729687 
L 475.334593 -36.729687 
L 473.784769 -36.729687 
L 472.234945 -36.729687 
L 470.68512 -36.729687 
L 469.135296 -36.729687 
L 467.585472 -36.729687 
L 466.035647 -36.729687 
L 464.485823 -36.729687 
L 462.935999 -36.729687 
L 461.386174 -36.729687 
L 459.83635 -36.729687 
L 458.286526 -36.729687 
L 456.736702 -36.729687 
L 455.186877 -36.729687 
L 453.637053 -36.729687 
L 452.087229 -36.729687 
L 450.537404 -36.729687 
L 448.98758 -36.729687 
L 447.437756 -36.729687 
L 445.887931 -36.729687 
L 444.338107 -36.729687 
L 442.788283 -36.729687 
L 441.238459 -36.729687 
L 439.688634 -36.729687 
L 438.13881 -36.729687 
L 436.588986 -36.729687 
L 435.039161 -36.729687 
L 433.489337 -36.729687 
L 431.939513 -36.729687 
L 430.389688 -36.729687 
L 428.839864 -36.729687 
L 427.29004 -36.729687 
L 425.740216 -36.729687 
L 424.190391 -36.729687 
L 422.640567 -36.729687 
L 421.090743 -36.729687 
L 419.540918 -36.729687 
L 417.991094 -36.729687 
L 416.44127 -36.729687 
L 414.891446 -36.729687 
L 413.341621 -36.729687 
L 411.791797 -36.729687 
L 410.241973 -36.729687 
L 408.692148 -36.729687 
L 407.142324 -36.729687 
L 405.5925 -36.729687 
L 404.042675 -36.729687 
L 402.492851 -36.729687 
L 400.943027 -36.729687 
L 399.393203 -36.729687 
L 397.843378 -36.729687 
L 396.293554 -36.729687 
L 394.74373 -36.729687 
L 393.193905 -36.729687 
L 391.644081 -36.729687 
L 390.094257 -36.729687 
L 388.544432 -36.729687 
L 386.994608 -36.729687 
L 385.444784 -36.729687 
L 383.89496 -36.729687 
L 382.345135 -36.729687 
L 380.795311 -36.729687 
L 379.245487 -36.729687 
L 377.695662 -36.729687 
L 376.145838 -36.729687 
L 374.596014 -36.729687 
L 373.046189 -36.729687 
L 371.496365 -36.729687 
L 369.946541 -36.729687 
L 368.396717 -36.729687 
L 366.846892 -36.729687 
L 365.297068 -36.729687 
L 363.747244 -36.729687 
L 362.197419 -36.729687 
L 360.647595 -36.729687 
L 359.097771 -36.729687 
L 357.547947 -36.729687 
L 355.998122 -36.729687 
L 354.448298 -36.729687 
L 352.898474 -36.729687 
L 351.348649 -36.729687 
L 349.798825 -36.729687 
L 348.249001 -36.729687 
L 346.699176 -36.729687 
L 345.149352 -36.729687 
L 343.599528 -36.729687 
L 342.049704 -36.729687 
L 340.499879 -36.729687 
z
" style="stroke: #4c72b0; stroke-opacity: 0.2"/>
    </defs>
    <g>
     <use xlink:href="#m1f3b215066" x="0" y="183.151437" style="fill: #4c72b0; fill-opacity: 0.2; stroke: #4c72b0; stroke-opacity: 0.2"/>
    </g>
   </g>
   <g id="FillBetweenPolyCollection_2">
    <defs>
     <path id="ma6645febd5" d="M 340.499879 -36.734724 
L 340.499879 -36.729687 
L 342.049704 -36.729687 
L 343.599528 -36.729687 
L 345.149352 -36.729687 
L 346.699176 -36.729687 
L 348.249001 -36.729687 
L 349.798825 -36.729687 
L 351.348649 -36.729687 
L 352.898474 -36.729687 
L 354.448298 -36.729687 
L 355.998122 -36.729687 
L 357.547947 -36.729687 
L 359.097771 -36.729687 
L 360.647595 -36.729687 
L 362.197419 -36.729687 
L 363.747244 -36.729687 
L 365.297068 -36.729687 
L 366.846892 -36.729687 
L 368.396717 -36.729687 
L 369.946541 -36.729687 
L 371.496365 -36.729687 
L 373.046189 -36.729687 
L 374.596014 -36.729687 
L 376.145838 -36.729687 
L 377.695662 -36.729687 
L 379.245487 -36.729687 
L 380.795311 -36.729687 
L 382.345135 -36.729687 
L 383.89496 -36.729687 
L 385.444784 -36.729687 
L 386.994608 -36.729687 
L 388.544432 -36.729687 
L 390.094257 -36.729687 
L 391.644081 -36.729687 
L 393.193905 -36.729687 
L 394.74373 -36.729687 
L 396.293554 -36.729687 
L 397.843378 -36.729687 
L 399.393203 -36.729687 
L 400.943027 -36.729687 
L 402.492851 -36.729687 
L 404.042675 -36.729687 
L 405.5925 -36.729687 
L 407.142324 -36.729687 
L 408.692148 -36.729687 
L 410.241973 -36.729687 
L 411.791797 -36.729687 
L 413.341621 -36.729687 
L 414.891446 -36.729687 
L 416.44127 -36.729687 
L 417.991094 -36.729687 
L 419.540918 -36.729687 
L 421.090743 -36.729687 
L 422.640567 -36.729687 
L 424.190391 -36.729687 
L 425.740216 -36.729687 
L 427.29004 -36.729687 
L 428.839864 -36.729687 
L 430.389688 -36.729687 
L 431.939513 -36.729687 
L 433.489337 -36.729687 
L 435.039161 -36.729687 
L 436.588986 -36.729687 
L 438.13881 -36.729687 
L 439.688634 -36.729687 
L 441.238459 -36.729687 
L 442.788283 -36.729687 
L 444.338107 -36.729687 
L 445.887931 -36.729687 
L 447.437756 -36.729687 
L 448.98758 -36.729687 
L 450.537404 -36.729687 
L 452.087229 -36.729687 
L 453.637053 -36.729687 
L 455.186877 -36.729687 
L 456.736702 -36.729687 
L 458.286526 -36.729687 
L 459.83635 -36.729687 
L 461.386174 -36.729687 
L 462.935999 -36.729687 
L 464.485823 -36.729687 
L 466.035647 -36.729687 
L 467.585472 -36.729687 
L 469.135296 -36.729687 
L 470.68512 -36.729687 
L 472.234945 -36.729687 
L 473.784769 -36.729687 
L 475.334593 -36.729687 
L 476.884417 -36.729687 
L 478.434242 -36.729687 
L 479.984066 -36.729687 
L 481.53389 -36.729687 
L 483.083715 -36.729687 
L 484.633539 -36.729687 
L 486.183363 -36.729687 
L 487.733187 -36.729687 
L 489.283012 -36.729687 
L 489.508556 -36.729687 
L 489.508556 -76.567663 
L 489.508556 -76.567663 
L 489.283012 -76.291049 
L 487.733187 -74.502579 
L 486.183363 -72.823354 
L 484.633539 -71.236214 
L 483.083715 -69.728078 
L 481.53389 -68.290233 
L 479.984066 -66.918024 
L 478.434242 -65.610021 
L 476.884417 -64.366858 
L 475.334593 -63.18991 
L 473.784769 -62.080064 
L 472.234945 -61.036725 
L 470.68512 -60.057223 
L 469.135296 -59.136653 
L 467.585472 -58.268131 
L 466.035647 -57.44339 
L 464.485823 -56.653567 
L 462.935999 -55.890034 
L 461.386174 -55.145128 
L 459.83635 -54.412663 
L 458.286526 -53.688168 
L 456.736702 -52.968842 
L 455.186877 -52.253286 
L 453.637053 -51.541104 
L 452.087229 -50.832477 
L 450.537404 -50.12782 
L 448.98758 -49.427609 
L 447.437756 -48.732375 
L 445.887931 -48.042878 
L 444.338107 -47.360368 
L 442.788283 -46.686864 
L 441.238459 -46.025338 
L 439.688634 -45.379749 
L 438.13881 -44.754883 
L 436.588986 -44.156005 
L 435.039161 -43.588381 
L 433.489337 -43.056754 
L 431.939513 -42.564847 
L 430.389688 -42.11499 
L 428.839864 -41.707929 
L 427.29004 -41.342823 
L 425.740216 -41.01744 
L 424.190391 -40.728484 
L 422.640567 -40.472021 
L 421.090743 -40.2439 
L 419.540918 -40.040141 
L 417.991094 -39.857225 
L 416.44127 -39.692268 
L 414.891446 -39.543084 
L 413.341621 -39.408144 
L 411.791797 -39.286471 
L 410.241973 -39.177487 
L 408.692148 -39.080848 
L 407.142324 -38.996287 
L 405.5925 -38.923468 
L 404.042675 -38.861865 
L 402.492851 -38.810673 
L 400.943027 -38.768743 
L 399.393203 -38.73456 
L 397.843378 -38.706265 
L 396.293554 -38.681722 
L 394.74373 -38.658632 
L 393.193905 -38.634676 
L 391.644081 -38.607686 
L 390.094257 -38.575799 
L 388.544432 -38.537588 
L 386.994608 -38.492139 
L 385.444784 -38.439074 
L 383.89496 -38.378505 
L 382.345135 -38.310941 
L 380.795311 -38.237161 
L 379.245487 -38.158082 
L 377.695662 -38.074643 
L 376.145838 -37.987721 
L 374.596014 -37.898103 
L 373.046189 -37.806497 
L 371.496365 -37.713584 
L 369.946541 -37.620088 
L 368.396717 -37.526841 
L 366.846892 -37.434824 
L 365.297068 -37.345165 
L 363.747244 -37.2591 
L 362.197419 -37.177887 
L 360.647595 -37.102705 
L 359.097771 -37.034541 
L 357.547947 -36.974102 
L 355.998122 -36.921755 
L 354.448298 -36.877509 
L 352.898474 -36.841035 
L 351.348649 -36.811728 
L 349.798825 -36.788785 
L 348.249001 -36.77129 
L 346.699176 -36.758297 
L 345.149352 -36.748901 
L 343.599528 -36.742286 
L 342.049704 -36.737751 
L 340.499879 -36.734724 
z
"/>
    </defs>
    <g>
     <use xlink:href="#ma6645febd5" x="0" y="183.151437" style="fill: #4c72b0; fill-opacity: 0.3"/>
    </g>
   </g>
   <g id="line2d_34">
    <path d="M 340.499879 146.416713 
L 352.898474 146.310403 
L 360.647595 146.048733 
L 373.046189 145.34494 
L 385.444784 144.712363 
L 394.74373 144.492806 
L 405.5925 144.22797 
L 411.791797 143.864966 
L 417.991094 143.294212 
L 422.640567 142.679417 
L 427.29004 141.808614 
L 430.389688 141.036447 
L 433.489337 140.094683 
L 438.13881 138.396554 
L 444.338107 135.791069 
L 455.186877 130.898151 
L 464.485823 126.49787 
L 469.135296 124.014784 
L 472.234945 122.114713 
L 475.334593 119.961527 
L 478.434242 117.541416 
L 481.53389 114.861204 
L 484.633539 111.915224 
L 487.733187 108.648858 
L 490.832836 104.942363 
L 493.932485 100.629915 
L 495.482309 98.194297 
L 498.581958 92.691395 
L 501.681606 86.329797 
L 504.781255 79.213243 
L 509.430728 67.686084 
L 514.080201 56.22963 
L 517.179849 49.254661 
L 520.279498 43.155389 
L 521.829322 40.497771 
L 523.379146 38.12494 
L 524.928971 36.049633 
L 526.478795 34.281939 
L 528.028619 32.829961 
L 529.578444 31.69992 
L 531.128268 30.895663 
L 532.678092 30.417664 
L 534.227916 30.26175 
L 535.777741 30.417867 
L 537.327565 30.86924 
L 538.877389 31.592174 
L 540.427214 32.556668 
L 541.977038 33.727818 
L 545.076686 36.538534 
L 548.176335 39.731054 
L 557.475281 49.841635 
L 562.124754 55.176354 
L 565.224402 59.113724 
L 568.324051 63.524966 
L 571.4237 68.48882 
L 574.523348 73.986865 
L 579.172821 82.961564 
L 586.921943 98.294634 
L 590.021591 104.078228 
L 593.12124 109.509295 
L 596.220888 114.54341 
L 599.320537 119.169506 
L 602.420185 123.401478 
L 605.519834 127.265816 
L 608.619483 130.78644 
L 611.719131 133.971971 
L 614.81878 136.810913 
L 617.918428 139.276865 
L 621.018077 141.341559 
L 624.117726 142.990415 
L 627.217374 144.234449 
L 630.317023 145.113877 
L 633.416671 145.69226 
L 636.51632 146.044072 
L 641.165793 146.300524 
L 648.914914 146.409824 
L 648.914914 146.409824 
" style="fill: none; stroke: #4c72b0; stroke-width: 1.5; stroke-linecap: round"/>
   </g>
   <g id="line2d_35">
    <path d="M 320.646683 146.42175 
L 320.646683 24.45375 
" style="fill: none; stroke-dasharray: 0.8,1.32; stroke-dashoffset: 0; stroke: #d3d3d3; stroke-width: 0.8"/>
   </g>
   <g id="line2d_36">
    <path d="M 489.508556 146.42175 
L 489.508556 24.45375 
" style="fill: none; stroke-dasharray: 0.8,1.32; stroke-dashoffset: 0; stroke: #d3d3d3; stroke-width: 0.8"/>
   </g>
   <g id="line2d_37">
    <path d="M 7.2 146.42175 
L 648.9 146.42175 
" style="fill: none; stroke: #808080; stroke-width: 0.5; stroke-linecap: round"/>
   </g>
   <g id="AnnotationBbox_1">
    <g id="text_13">
     <text style="font-weight: 700; font-size: 8px; font-family: 'Arial', 'DejaVu Sans', 'Liberation Sans', 'Bitstream Vera Sans', sans-serif; text-anchor: end; fill: #808080" x="320.646683" y="12.92625" transform="rotate(-0 320.646683 12.92625)">International Poverty Line</text>
    </g>
    <g id="text_14">
     <text style="font-size: 8px; font-family: 'Arial', 'DejaVu Sans', 'Liberation Sans', 'Bitstream Vera Sans', sans-serif; text-anchor: end; fill: #808080" x="320.646683" y="22.86375" transform="rotate(-0 320.646683 22.86375)">$90 per month</text>
    </g>
   </g>
   <g id="AnnotationBbox_2">
    <g id="text_15">
     <text style="font-weight: 700; font-size: 8px; font-family: 'Arial', 'DejaVu Sans', 'Liberation Sans', 'Bitstream Vera Sans', sans-serif; text-anchor: start; fill: #808080" x="489.508556" y="12.92625" transform="rotate(-0 489.508556 12.92625)">High-income poverty line</text>
    </g>
    <g id="text_16">
     <text style="font-size: 8px; font-family: 'Arial', 'DejaVu Sans', 'Liberation Sans', 'Bitstream Vera Sans', sans-serif; text-anchor: start; fill: #808080" x="489.508556" y="22.86375" transform="rotate(-0 489.508556 22.86375)">$900 per month</text>
    </g>
   </g>
   <g id="text_17">
    <text style="font-size: 10px; font-family: 'Arial', 'DejaVu Sans', 'Liberation Sans', 'Bitstream Vera Sans', sans-serif; text-anchor: middle" x="536.391066" y="144.317062" transform="rotate(-0 536.391066 144.317062)">Sweden (2026)</text>
   </g>
  </g>
 </g>
</svg>
