<?xml version="1.0" encoding="utf-8" standalone="no"?>
<!DOCTYPE svg PUBLIC "-//W3C//DTD SVG 1.1//EN"
  "http://www.w3.org/Graphics/SVG/1.1/DTD/svg11.dtd">
<svg xmlns:xlink="http://www.w3.org/1999/xlink" width="820.817568pt" height="485.018437pt" viewBox="0 0 820.817568 485.018437" xmlns="http://www.w3.org/2000/svg" version="1.1">
 <metadata>
  <rdf:RDF xmlns:dc="http://purl.org/dc/elements/1.1/" xmlns:cc="http://creativecommons.org/ns#" xmlns:rdf="http://www.w3.org/1999/02/22-rdf-syntax-ns#">
   <cc:Work>
    <dc:type rdf:resource="http://purl.org/dc/dcmitype/StillImage"/>
    <dc:date>2026-05-28T14:12:58.119386</dc:date>
    <dc:format>image/svg+xml</dc:format>
    <dc:creator>
     <cc:Agent>
      <dc:title>Matplotlib v3.10.9, https://matplotlib.org/</dc:title>
     </cc:Agent>
    </dc:creator>
   </cc:Work>
  </rdf:RDF>
 </metadata>
 <defs>
  <style type="text/css">*{stroke-linejoin: round; stroke-linecap: butt}</style>
 </defs>
 <g id="figure_1">
  <g id="patch_1">
   <path d="M 0 485.018437 
L 820.817568 485.018437 
L 820.817568 -0 
L 0 -0 
z
" style="fill: #ffffff"/>
  </g>
  <g id="axes_1">
   <g id="patch_2">
    <path d="M 7.2 158.532083 
L 813.6 158.532083 
L 813.6 24.45375 
L 7.2 24.45375 
z
" style="fill: #ffffff"/>
   </g>
   <g id="matplotlib.axis_1">
    <g id="xtick_1"/>
    <g id="xtick_2"/>
    <g id="xtick_3"/>
    <g id="xtick_4"/>
    <g id="xtick_5"/>
    <g id="xtick_6"/>
    <g id="xtick_7"/>
    <g id="xtick_8"/>
    <g id="xtick_9"/>
    <g id="xtick_10"/>
    <g id="xtick_11"/>
    <g id="xtick_12"/>
    <g id="xtick_13"/>
    <g id="xtick_14"/>
    <g id="xtick_15"/>
    <g id="xtick_16"/>
    <g id="xtick_17"/>
    <g id="xtick_18"/>
    <g id="xtick_19"/>
    <g id="xtick_20"/>
    <g id="xtick_21"/>
    <g id="xtick_22"/>
    <g id="xtick_23"/>
    <g id="xtick_24"/>
    <g id="xtick_25"/>
    <g id="xtick_26"/>
    <g id="xtick_27"/>
    <g id="xtick_28"/>
    <g id="xtick_29"/>
    <g id="xtick_30"/>
    <g id="xtick_31"/>
    <g id="xtick_32"/>
    <g id="xtick_33"/>
    <g id="xtick_34"/>
   </g>
   <g id="matplotlib.axis_2"/>
   <g id="FillBetweenPolyCollection_1">
    <defs>
     <path id="m99bce777c9" d="M 34.205721 -326.486354 
L 34.205721 -326.697407 
L 37.054344 -326.76224 
L 39.902966 -326.842601 
L 42.751589 -326.940862 
L 45.600211 -327.059406 
L 48.448834 -327.200533 
L 51.297457 -327.366371 
L 54.146079 -327.558767 
L 56.994702 -327.779199 
L 59.843325 -328.028691 
L 62.691947 -328.30776 
L 65.54057 -328.616374 
L 68.389192 -328.953958 
L 71.237815 -329.319425 
L 74.086438 -329.711236 
L 76.93506 -330.127502 
L 79.783683 -330.566087 
L 82.632306 -331.024745 
L 85.480928 -331.501245 
L 88.329551 -331.993493 
L 91.178173 -332.499642 
L 94.026796 -333.018175 
L 96.875419 -333.547963 
L 99.724041 -334.088289 
L 102.572664 -334.63885 
L 105.421287 -335.199728 
L 108.269909 -335.771343 
L 111.118532 -336.35439 
L 113.967155 -336.94977 
L 116.815777 -337.558517 
L 119.6644 -338.181728 
L 122.513022 -338.820501 
L 125.361645 -339.475884 
L 128.210268 -340.148834 
L 131.05889 -340.840186 
L 133.907513 -341.550635 
L 136.756136 -342.280729 
L 139.604758 -343.030861 
L 142.453381 -343.801276 
L 145.302003 -344.59208 
L 148.150626 -345.40324 
L 150.999249 -346.234603 
L 153.847871 -347.0859 
L 156.696494 -347.956754 
L 159.545117 -348.846693 
L 162.393739 -349.755149 
L 165.242362 -350.681467 
L 168.090984 -351.624911 
L 170.939607 -352.584663 
L 173.78823 -353.559828 
L 176.636852 -354.549435 
L 179.485475 -355.552441 
L 182.334098 -356.56773 
L 185.18272 -357.594117 
L 188.031343 -358.630346 
L 190.879966 -359.675099 
L 193.728588 -360.72699 
L 196.577211 -361.784573 
L 199.425833 -362.846345 
L 202.274456 -363.910743 
L 205.123079 -364.976155 
L 207.971701 -366.040917 
L 210.820324 -367.103323 
L 213.668947 -368.161624 
L 216.517569 -369.214035 
L 219.366192 -370.258739 
L 222.214814 -371.293893 
L 225.063437 -372.317631 
L 227.91206 -373.328072 
L 230.760682 -374.323324 
L 233.609305 -375.301489 
L 236.457928 -376.260672 
L 239.30655 -377.198984 
L 242.155173 -378.114549 
L 245.003795 -379.005509 
L 247.852418 -379.870034 
L 250.701041 -380.706325 
L 253.549663 -381.512619 
L 256.398286 -382.2872 
L 259.246909 -383.028401 
L 262.095531 -383.734609 
L 264.944154 -384.404275 
L 267.792777 -385.035919 
L 270.641399 -385.628131 
L 273.490022 -386.17958 
L 276.338644 -386.68902 
L 279.187267 -387.155291 
L 282.03589 -387.577326 
L 284.884512 -387.954155 
L 287.733135 -388.284907 
L 290.581758 -388.568815 
L 293.43038 -388.805218 
L 296.279003 -388.993566 
L 299.127625 -389.133417 
L 301.976248 -389.224444 
L 304.824871 -389.266433 
L 307.673493 -389.259285 
L 310.522116 -389.203019 
L 313.370739 -389.097764 
L 316.219361 -388.943769 
L 319.067984 -388.741395 
L 321.916606 -388.491113 
L 324.765229 -388.193507 
L 327.613852 -387.84927 
L 330.462474 -387.459199 
L 333.311097 -387.024193 
L 336.15972 -386.545253 
L 339.008342 -386.023471 
L 341.856965 -385.460034 
L 344.705588 -384.856213 
L 347.55421 -384.213362 
L 350.402833 -383.532911 
L 353.251455 -382.816363 
L 356.100078 -382.065286 
L 358.948701 -381.281307 
L 361.797323 -380.466109 
L 364.645946 -379.621423 
L 367.494569 -378.749022 
L 370.343191 -377.850716 
L 373.191814 -376.928343 
L 376.040436 -375.983767 
L 378.889059 -375.018867 
L 381.737682 -374.035537 
L 384.586304 -373.035672 
L 387.434927 -372.021169 
L 390.28355 -370.993917 
L 393.132172 -369.955794 
L 395.980795 -368.90866 
L 398.829417 -367.85435 
L 401.67804 -366.794672 
L 404.526663 -365.731402 
L 407.375285 -364.666276 
L 410.223908 -363.60099 
L 413.072531 -362.537192 
L 415.921153 -361.476479 
L 418.769776 -360.420398 
L 421.618399 -359.370436 
L 424.467021 -358.32802 
L 427.315644 -357.294517 
L 430.164266 -356.271227 
L 433.012889 -355.259383 
L 435.861512 -354.260147 
L 438.710134 -353.274613 
L 441.558757 -352.303796 
L 444.40738 -351.348639 
L 447.256002 -350.410003 
L 450.104625 -349.488667 
L 452.953247 -348.585322 
L 455.80187 -347.700567 
L 458.650493 -346.8349 
L 461.499115 -345.988714 
L 464.347738 -345.162283 
L 467.196361 -344.355756 
L 470.044983 -343.569144 
L 472.893606 -342.802309 
L 475.742228 -342.054957 
L 478.590851 -341.326633 
L 481.439474 -340.616717 
L 484.288096 -339.924432 
L 487.136719 -339.24886 
L 489.985342 -338.588969 
L 492.833964 -337.943649 
L 495.682587 -337.311763 
L 498.53121 -336.692211 
L 501.379832 -336.084004 
L 504.228455 -335.486336 
L 507.077077 -334.898667 
L 509.9257 -334.320795 
L 512.774323 -333.752912 
L 515.622945 -333.195651 
L 518.471568 -332.650097 
L 521.320191 -332.117771 
L 524.168813 -331.600588 
L 527.017436 -331.100773 
L 529.866058 -330.62076 
L 532.714681 -330.163062 
L 535.563304 -329.730134 
L 538.411926 -329.32423 
L 541.260549 -328.947273 
L 544.109172 -328.60074 
L 546.957794 -328.285578 
L 549.806417 -328.002152 
L 552.655039 -327.750225 
L 555.503662 -327.528985 
L 558.352285 -327.337091 
L 561.200907 -327.172752 
L 564.04953 -327.033826 
L 566.898153 -326.917921 
L 569.746775 -326.82251 
L 572.595398 -326.745027 
L 575.444021 -326.682961 
L 578.292643 -326.633927 
L 581.141266 -326.595726 
L 583.989888 -326.566381 
L 586.838511 -326.544155 
L 589.687134 -326.527559 
L 592.535756 -326.515343 
L 595.384379 -326.506479 
L 598.233002 -326.500139 
L 601.081624 -326.49567 
L 601.081624 -326.486354 
L 601.081624 -326.486354 
L 598.233002 -326.486354 
L 595.384379 -326.486354 
L 592.535756 -326.486354 
L 589.687134 -326.486354 
L 586.838511 -326.486354 
L 583.989888 -326.486354 
L 581.141266 -326.486354 
L 578.292643 -326.486354 
L 575.444021 -326.486354 
L 572.595398 -326.486354 
L 569.746775 -326.486354 
L 566.898153 -326.486354 
L 564.04953 -326.486354 
L 561.200907 -326.486354 
L 558.352285 -326.486354 
L 555.503662 -326.486354 
L 552.655039 -326.486354 
L 549.806417 -326.486354 
L 546.957794 -326.486354 
L 544.109172 -326.486354 
L 541.260549 -326.486354 
L 538.411926 -326.486354 
L 535.563304 -326.486354 
L 532.714681 -326.486354 
L 529.866058 -326.486354 
L 527.017436 -326.486354 
L 524.168813 -326.486354 
L 521.320191 -326.486354 
L 518.471568 -326.486354 
L 515.622945 -326.486354 
L 512.774323 -326.486354 
L 509.9257 -326.486354 
L 507.077077 -326.486354 
L 504.228455 -326.486354 
L 501.379832 -326.486354 
L 498.53121 -326.486354 
L 495.682587 -326.486354 
L 492.833964 -326.486354 
L 489.985342 -326.486354 
L 487.136719 -326.486354 
L 484.288096 -326.486354 
L 481.439474 -326.486354 
L 478.590851 -326.486354 
L 475.742228 -326.486354 
L 472.893606 -326.486354 
L 470.044983 -326.486354 
L 467.196361 -326.486354 
L 464.347738 -326.486354 
L 461.499115 -326.486354 
L 458.650493 -326.486354 
L 455.80187 -326.486354 
L 452.953247 -326.486354 
L 450.104625 -326.486354 
L 447.256002 -326.486354 
L 444.40738 -326.486354 
L 441.558757 -326.486354 
L 438.710134 -326.486354 
L 435.861512 -326.486354 
L 433.012889 -326.486354 
L 430.164266 -326.486354 
L 427.315644 -326.486354 
L 424.467021 -326.486354 
L 421.618399 -326.486354 
L 418.769776 -326.486354 
L 415.921153 -326.486354 
L 413.072531 -326.486354 
L 410.223908 -326.486354 
L 407.375285 -326.486354 
L 404.526663 -326.486354 
L 401.67804 -326.486354 
L 398.829417 -326.486354 
L 395.980795 -326.486354 
L 393.132172 -326.486354 
L 390.28355 -326.486354 
L 387.434927 -326.486354 
L 384.586304 -326.486354 
L 381.737682 -326.486354 
L 378.889059 -326.486354 
L 376.040436 -326.486354 
L 373.191814 -326.486354 
L 370.343191 -326.486354 
L 367.494569 -326.486354 
L 364.645946 -326.486354 
L 361.797323 -326.486354 
L 358.948701 -326.486354 
L 356.100078 -326.486354 
L 353.251455 -326.486354 
L 350.402833 -326.486354 
L 347.55421 -326.486354 
L 344.705588 -326.486354 
L 341.856965 -326.486354 
L 339.008342 -326.486354 
L 336.15972 -326.486354 
L 333.311097 -326.486354 
L 330.462474 -326.486354 
L 327.613852 -326.486354 
L 324.765229 -326.486354 
L 321.916606 -326.486354 
L 319.067984 -326.486354 
L 316.219361 -326.486354 
L 313.370739 -326.486354 
L 310.522116 -326.486354 
L 307.673493 -326.486354 
L 304.824871 -326.486354 
L 301.976248 -326.486354 
L 299.127625 -326.486354 
L 296.279003 -326.486354 
L 293.43038 -326.486354 
L 290.581758 -326.486354 
L 287.733135 -326.486354 
L 284.884512 -326.486354 
L 282.03589 -326.486354 
L 279.187267 -326.486354 
L 276.338644 -326.486354 
L 273.490022 -326.486354 
L 270.641399 -326.486354 
L 267.792777 -326.486354 
L 264.944154 -326.486354 
L 262.095531 -326.486354 
L 259.246909 -326.486354 
L 256.398286 -326.486354 
L 253.549663 -326.486354 
L 250.701041 -326.486354 
L 247.852418 -326.486354 
L 245.003795 -326.486354 
L 242.155173 -326.486354 
L 239.30655 -326.486354 
L 236.457928 -326.486354 
L 233.609305 -326.486354 
L 230.760682 -326.486354 
L 227.91206 -326.486354 
L 225.063437 -326.486354 
L 222.214814 -326.486354 
L 219.366192 -326.486354 
L 216.517569 -326.486354 
L 213.668947 -326.486354 
L 210.820324 -326.486354 
L 207.971701 -326.486354 
L 205.123079 -326.486354 
L 202.274456 -326.486354 
L 199.425833 -326.486354 
L 196.577211 -326.486354 
L 193.728588 -326.486354 
L 190.879966 -326.486354 
L 188.031343 -326.486354 
L 185.18272 -326.486354 
L 182.334098 -326.486354 
L 179.485475 -326.486354 
L 176.636852 -326.486354 
L 173.78823 -326.486354 
L 170.939607 -326.486354 
L 168.090984 -326.486354 
L 165.242362 -326.486354 
L 162.393739 -326.486354 
L 159.545117 -326.486354 
L 156.696494 -326.486354 
L 153.847871 -326.486354 
L 150.999249 -326.486354 
L 148.150626 -326.486354 
L 145.302003 -326.486354 
L 142.453381 -326.486354 
L 139.604758 -326.486354 
L 136.756136 -326.486354 
L 133.907513 -326.486354 
L 131.05889 -326.486354 
L 128.210268 -326.486354 
L 125.361645 -326.486354 
L 122.513022 -326.486354 
L 119.6644 -326.486354 
L 116.815777 -326.486354 
L 113.967155 -326.486354 
L 111.118532 -326.486354 
L 108.269909 -326.486354 
L 105.421287 -326.486354 
L 102.572664 -326.486354 
L 99.724041 -326.486354 
L 96.875419 -326.486354 
L 94.026796 -326.486354 
L 91.178173 -326.486354 
L 88.329551 -326.486354 
L 85.480928 -326.486354 
L 82.632306 -326.486354 
L 79.783683 -326.486354 
L 76.93506 -326.486354 
L 74.086438 -326.486354 
L 71.237815 -326.486354 
L 68.389192 -326.486354 
L 65.54057 -326.486354 
L 62.691947 -326.486354 
L 59.843325 -326.486354 
L 56.994702 -326.486354 
L 54.146079 -326.486354 
L 51.297457 -326.486354 
L 48.448834 -326.486354 
L 45.600211 -326.486354 
L 42.751589 -326.486354 
L 39.902966 -326.486354 
L 37.054344 -326.486354 
L 34.205721 -326.486354 
z
" style="stroke: #4c72b0; stroke-opacity: 0.2"/>
    </defs>
    <g>
     <use xlink:href="#m99bce777c9" x="0" y="485.018437" style="fill: #4c72b0; fill-opacity: 0.2; stroke: #4c72b0; stroke-opacity: 0.2"/>
    </g>
   </g>
   <g id="FillBetweenPolyCollection_2">
    <defs>
     <path id="ma2b7efe207" d="M 34.205721 -326.697407 
L 34.205721 -326.486354 
L 37.054344 -326.486354 
L 39.902966 -326.486354 
L 42.751589 -326.486354 
L 45.600211 -326.486354 
L 48.448834 -326.486354 
L 51.297457 -326.486354 
L 54.146079 -326.486354 
L 56.994702 -326.486354 
L 59.843325 -326.486354 
L 62.691947 -326.486354 
L 65.54057 -326.486354 
L 68.389192 -326.486354 
L 71.237815 -326.486354 
L 74.086438 -326.486354 
L 76.93506 -326.486354 
L 79.783683 -326.486354 
L 82.632306 -326.486354 
L 85.480928 -326.486354 
L 88.329551 -326.486354 
L 91.178173 -326.486354 
L 94.026796 -326.486354 
L 96.875419 -326.486354 
L 99.724041 -326.486354 
L 102.572664 -326.486354 
L 105.421287 -326.486354 
L 108.269909 -326.486354 
L 111.118532 -326.486354 
L 113.967155 -326.486354 
L 116.815777 -326.486354 
L 119.6644 -326.486354 
L 122.513022 -326.486354 
L 125.361645 -326.486354 
L 128.210268 -326.486354 
L 131.05889 -326.486354 
L 133.907513 -326.486354 
L 136.756136 -326.486354 
L 139.604758 -326.486354 
L 142.453381 -326.486354 
L 145.302003 -326.486354 
L 148.150626 -326.486354 
L 150.999249 -326.486354 
L 153.847871 -326.486354 
L 156.696494 -326.486354 
L 159.545117 -326.486354 
L 162.393739 -326.486354 
L 165.242362 -326.486354 
L 168.090984 -326.486354 
L 170.939607 -326.486354 
L 173.78823 -326.486354 
L 176.636852 -326.486354 
L 179.485475 -326.486354 
L 182.334098 -326.486354 
L 185.18272 -326.486354 
L 188.031343 -326.486354 
L 190.879966 -326.486354 
L 193.728588 -326.486354 
L 196.577211 -326.486354 
L 199.425833 -326.486354 
L 202.274456 -326.486354 
L 205.123079 -326.486354 
L 207.971701 -326.486354 
L 210.820324 -326.486354 
L 213.668947 -326.486354 
L 216.517569 -326.486354 
L 219.366192 -326.486354 
L 222.214814 -326.486354 
L 225.063437 -326.486354 
L 227.91206 -326.486354 
L 230.760682 -326.486354 
L 233.609305 -326.486354 
L 236.457928 -326.486354 
L 239.30655 -326.486354 
L 242.155173 -326.486354 
L 245.003795 -326.486354 
L 247.852418 -326.486354 
L 250.701041 -326.486354 
L 253.549663 -326.486354 
L 256.398286 -326.486354 
L 259.246909 -326.486354 
L 262.095531 -326.486354 
L 264.944154 -326.486354 
L 267.792777 -326.486354 
L 270.641399 -326.486354 
L 273.490022 -326.486354 
L 276.338644 -326.486354 
L 279.187267 -326.486354 
L 282.03589 -326.486354 
L 284.884512 -326.486354 
L 287.733135 -326.486354 
L 290.581758 -326.486354 
L 293.43038 -326.486354 
L 296.279003 -326.486354 
L 299.127625 -326.486354 
L 301.976248 -326.486354 
L 304.824871 -326.486354 
L 307.673493 -326.486354 
L 310.522116 -326.486354 
L 313.370739 -326.486354 
L 316.219361 -326.486354 
L 319.067984 -326.486354 
L 321.916606 -326.486354 
L 324.765229 -326.486354 
L 327.613852 -326.486354 
L 330.462474 -326.486354 
L 333.311097 -326.486354 
L 336.15972 -326.486354 
L 339.008342 -326.486354 
L 341.856965 -326.486354 
L 344.705588 -326.486354 
L 347.55421 -326.486354 
L 350.402833 -326.486354 
L 353.251455 -326.486354 
L 356.100078 -326.486354 
L 358.948701 -326.486354 
L 361.797323 -326.486354 
L 364.645946 -326.486354 
L 367.494569 -326.486354 
L 370.343191 -326.486354 
L 373.191814 -326.486354 
L 376.040436 -326.486354 
L 378.889059 -326.486354 
L 381.737682 -326.486354 
L 384.586304 -326.486354 
L 387.434927 -326.486354 
L 390.28355 -326.486354 
L 393.132172 -326.486354 
L 395.980795 -326.486354 
L 398.829417 -326.486354 
L 399.850143 -326.486354 
L 399.850143 -367.478415 
L 399.850143 -367.478415 
L 398.829417 -367.85435 
L 395.980795 -368.90866 
L 393.132172 -369.955794 
L 390.28355 -370.993917 
L 387.434927 -372.021169 
L 384.586304 -373.035672 
L 381.737682 -374.035537 
L 378.889059 -375.018867 
L 376.040436 -375.983767 
L 373.191814 -376.928343 
L 370.343191 -377.850716 
L 367.494569 -378.749022 
L 364.645946 -379.621423 
L 361.797323 -380.466109 
L 358.948701 -381.281307 
L 356.100078 -382.065286 
L 353.251455 -382.816363 
L 350.402833 -383.532911 
L 347.55421 -384.213362 
L 344.705588 -384.856213 
L 341.856965 -385.460034 
L 339.008342 -386.023471 
L 336.15972 -386.545253 
L 333.311097 -387.024193 
L 330.462474 -387.459199 
L 327.613852 -387.84927 
L 324.765229 -388.193507 
L 321.916606 -388.491113 
L 319.067984 -388.741395 
L 316.219361 -388.943769 
L 313.370739 -389.097764 
L 310.522116 -389.203019 
L 307.673493 -389.259285 
L 304.824871 -389.266433 
L 301.976248 -389.224444 
L 299.127625 -389.133417 
L 296.279003 -388.993566 
L 293.43038 -388.805218 
L 290.581758 -388.568815 
L 287.733135 -388.284907 
L 284.884512 -387.954155 
L 282.03589 -387.577326 
L 279.187267 -387.155291 
L 276.338644 -386.68902 
L 273.490022 -386.17958 
L 270.641399 -385.628131 
L 267.792777 -385.035919 
L 264.944154 -384.404275 
L 262.095531 -383.734609 
L 259.246909 -383.028401 
L 256.398286 -382.2872 
L 253.549663 -381.512619 
L 250.701041 -380.706325 
L 247.852418 -379.870034 
L 245.003795 -379.005509 
L 242.155173 -378.114549 
L 239.30655 -377.198984 
L 236.457928 -376.260672 
L 233.609305 -375.301489 
L 230.760682 -374.323324 
L 227.91206 -373.328072 
L 225.063437 -372.317631 
L 222.214814 -371.293893 
L 219.366192 -370.258739 
L 216.517569 -369.214035 
L 213.668947 -368.161624 
L 210.820324 -367.103323 
L 207.971701 -366.040917 
L 205.123079 -364.976155 
L 202.274456 -363.910743 
L 199.425833 -362.846345 
L 196.577211 -361.784573 
L 193.728588 -360.72699 
L 190.879966 -359.675099 
L 188.031343 -358.630346 
L 185.18272 -357.594117 
L 182.334098 -356.56773 
L 179.485475 -355.552441 
L 176.636852 -354.549435 
L 173.78823 -353.559828 
L 170.939607 -352.584663 
L 168.090984 -351.624911 
L 165.242362 -350.681467 
L 162.393739 -349.755149 
L 159.545117 -348.846693 
L 156.696494 -347.956754 
L 153.847871 -347.0859 
L 150.999249 -346.234603 
L 148.150626 -345.40324 
L 145.302003 -344.59208 
L 142.453381 -343.801276 
L 139.604758 -343.030861 
L 136.756136 -342.280729 
L 133.907513 -341.550635 
L 131.05889 -340.840186 
L 128.210268 -340.148834 
L 125.361645 -339.475884 
L 122.513022 -338.820501 
L 119.6644 -338.181728 
L 116.815777 -337.558517 
L 113.967155 -336.94977 
L 111.118532 -336.35439 
L 108.269909 -335.771343 
L 105.421287 -335.199728 
L 102.572664 -334.63885 
L 99.724041 -334.088289 
L 96.875419 -333.547963 
L 94.026796 -333.018175 
L 91.178173 -332.499642 
L 88.329551 -331.993493 
L 85.480928 -331.501245 
L 82.632306 -331.024745 
L 79.783683 -330.566087 
L 76.93506 -330.127502 
L 74.086438 -329.711236 
L 71.237815 -329.319425 
L 68.389192 -328.953958 
L 65.54057 -328.616374 
L 62.691947 -328.30776 
L 59.843325 -328.028691 
L 56.994702 -327.779199 
L 54.146079 -327.558767 
L 51.297457 -327.366371 
L 48.448834 -327.200533 
L 45.600211 -327.059406 
L 42.751589 -326.940862 
L 39.902966 -326.842601 
L 37.054344 -326.76224 
L 34.205721 -326.697407 
z
"/>
    </defs>
    <g>
     <use xlink:href="#ma2b7efe207" x="0" y="485.018437" style="fill: #4c72b0; fill-opacity: 0.3"/>
    </g>
   </g>
   <g id="FillBetweenPolyCollection_3">
    <defs>
     <path id="m0ae55db39f" d="M 34.205721 -326.697407 
L 34.205721 -326.486354 
L 37.054344 -326.486354 
L 39.902966 -326.486354 
L 42.751589 -326.486354 
L 45.600211 -326.486354 
L 48.448834 -326.486354 
L 51.297457 -326.486354 
L 54.146079 -326.486354 
L 56.994702 -326.486354 
L 59.843325 -326.486354 
L 62.691947 -326.486354 
L 65.54057 -326.486354 
L 68.389192 -326.486354 
L 71.237815 -326.486354 
L 74.086438 -326.486354 
L 76.93506 -326.486354 
L 79.783683 -326.486354 
L 82.632306 -326.486354 
L 85.480928 -326.486354 
L 88.329551 -326.486354 
L 91.178173 -326.486354 
L 94.026796 -326.486354 
L 96.875419 -326.486354 
L 99.724041 -326.486354 
L 102.572664 -326.486354 
L 105.421287 -326.486354 
L 108.269909 -326.486354 
L 111.118532 -326.486354 
L 113.967155 -326.486354 
L 116.815777 -326.486354 
L 119.6644 -326.486354 
L 122.513022 -326.486354 
L 125.361645 -326.486354 
L 128.210268 -326.486354 
L 131.05889 -326.486354 
L 133.907513 -326.486354 
L 136.756136 -326.486354 
L 139.604758 -326.486354 
L 142.453381 -326.486354 
L 145.302003 -326.486354 
L 148.150626 -326.486354 
L 150.999249 -326.486354 
L 153.847871 -326.486354 
L 156.696494 -326.486354 
L 159.545117 -326.486354 
L 162.393739 -326.486354 
L 165.242362 -326.486354 
L 168.090984 -326.486354 
L 170.939607 -326.486354 
L 173.78823 -326.486354 
L 176.636852 -326.486354 
L 179.485475 -326.486354 
L 182.334098 -326.486354 
L 185.18272 -326.486354 
L 188.031343 -326.486354 
L 190.879966 -326.486354 
L 193.728588 -326.486354 
L 196.577211 -326.486354 
L 199.425833 -326.486354 
L 202.274456 -326.486354 
L 205.123079 -326.486354 
L 207.971701 -326.486354 
L 210.820324 -326.486354 
L 213.668947 -326.486354 
L 216.517569 -326.486354 
L 219.366192 -326.486354 
L 222.214814 -326.486354 
L 225.063437 -326.486354 
L 227.91206 -326.486354 
L 230.760682 -326.486354 
L 233.609305 -326.486354 
L 236.457928 -326.486354 
L 239.30655 -326.486354 
L 242.155173 -326.486354 
L 245.003795 -326.486354 
L 247.852418 -326.486354 
L 250.701041 -326.486354 
L 253.549663 -326.486354 
L 256.398286 -326.486354 
L 259.246909 -326.486354 
L 262.095531 -326.486354 
L 264.944154 -326.486354 
L 267.792777 -326.486354 
L 270.641399 -326.486354 
L 273.490022 -326.486354 
L 276.338644 -326.486354 
L 279.187267 -326.486354 
L 282.03589 -326.486354 
L 284.884512 -326.486354 
L 287.733135 -326.486354 
L 290.581758 -326.486354 
L 293.43038 -326.486354 
L 296.279003 -326.486354 
L 299.127625 -326.486354 
L 301.976248 -326.486354 
L 304.824871 -326.486354 
L 307.673493 -326.486354 
L 310.522116 -326.486354 
L 313.370739 -326.486354 
L 316.219361 -326.486354 
L 319.067984 -326.486354 
L 321.916606 -326.486354 
L 324.765229 -326.486354 
L 327.613852 -326.486354 
L 330.462474 -326.486354 
L 333.311097 -326.486354 
L 336.15972 -326.486354 
L 339.008342 -326.486354 
L 341.856965 -326.486354 
L 344.705588 -326.486354 
L 347.55421 -326.486354 
L 350.402833 -326.486354 
L 353.251455 -326.486354 
L 356.100078 -326.486354 
L 358.948701 -326.486354 
L 361.797323 -326.486354 
L 364.645946 -326.486354 
L 367.494569 -326.486354 
L 370.343191 -326.486354 
L 373.191814 -326.486354 
L 376.040436 -326.486354 
L 378.889059 -326.486354 
L 381.737682 -326.486354 
L 384.586304 -326.486354 
L 387.434927 -326.486354 
L 390.28355 -326.486354 
L 393.132172 -326.486354 
L 395.980795 -326.486354 
L 398.829417 -326.486354 
L 401.67804 -326.486354 
L 404.526663 -326.486354 
L 407.375285 -326.486354 
L 410.223908 -326.486354 
L 413.072531 -326.486354 
L 415.921153 -326.486354 
L 418.769776 -326.486354 
L 421.618399 -326.486354 
L 424.467021 -326.486354 
L 427.315644 -326.486354 
L 430.164266 -326.486354 
L 433.012889 -326.486354 
L 435.861512 -326.486354 
L 438.710134 -326.486354 
L 441.558757 -326.486354 
L 444.40738 -326.486354 
L 447.256002 -326.486354 
L 450.104625 -326.486354 
L 452.953247 -326.486354 
L 455.80187 -326.486354 
L 458.650493 -326.486354 
L 461.499115 -326.486354 
L 464.347738 -326.486354 
L 467.196361 -326.486354 
L 470.044983 -326.486354 
L 472.893606 -326.486354 
L 475.742228 -326.486354 
L 478.590851 -326.486354 
L 481.439474 -326.486354 
L 484.288096 -326.486354 
L 487.136719 -326.486354 
L 489.985342 -326.486354 
L 492.833964 -326.486354 
L 495.682587 -326.486354 
L 498.53121 -326.486354 
L 501.379832 -326.486354 
L 504.228455 -326.486354 
L 507.077077 -326.486354 
L 509.9257 -326.486354 
L 512.774323 -326.486354 
L 515.622945 -326.486354 
L 518.471568 -326.486354 
L 521.320191 -326.486354 
L 524.168813 -326.486354 
L 527.017436 -326.486354 
L 529.866058 -326.486354 
L 532.714681 -326.486354 
L 535.563304 -326.486354 
L 538.411926 -326.486354 
L 541.260549 -326.486354 
L 544.109172 -326.486354 
L 546.957794 -326.486354 
L 549.806417 -326.486354 
L 552.655039 -326.486354 
L 555.503662 -326.486354 
L 558.352285 -326.486354 
L 561.200907 -326.486354 
L 564.04953 -326.486354 
L 566.898153 -326.486354 
L 569.746775 -326.486354 
L 572.595398 -326.486354 
L 575.444021 -326.486354 
L 578.292643 -326.486354 
L 581.141266 -326.486354 
L 583.989888 -326.486354 
L 586.838511 -326.486354 
L 589.687134 -326.486354 
L 592.535756 -326.486354 
L 595.384379 -326.486354 
L 598.233002 -326.486354 
L 601.081624 -326.486354 
L 611.380976 -326.486354 
L 611.380976 -326.49567 
L 611.380976 -326.49567 
L 601.081624 -326.49567 
L 598.233002 -326.500139 
L 595.384379 -326.506479 
L 592.535756 -326.515343 
L 589.687134 -326.527559 
L 586.838511 -326.544155 
L 583.989888 -326.566381 
L 581.141266 -326.595726 
L 578.292643 -326.633927 
L 575.444021 -326.682961 
L 572.595398 -326.745027 
L 569.746775 -326.82251 
L 566.898153 -326.917921 
L 564.04953 -327.033826 
L 561.200907 -327.172752 
L 558.352285 -327.337091 
L 555.503662 -327.528985 
L 552.655039 -327.750225 
L 549.806417 -328.002152 
L 546.957794 -328.285578 
L 544.109172 -328.60074 
L 541.260549 -328.947273 
L 538.411926 -329.32423 
L 535.563304 -329.730134 
L 532.714681 -330.163062 
L 529.866058 -330.62076 
L 527.017436 -331.100773 
L 524.168813 -331.600588 
L 521.320191 -332.117771 
L 518.471568 -332.650097 
L 515.622945 -333.195651 
L 512.774323 -333.752912 
L 509.9257 -334.320795 
L 507.077077 -334.898667 
L 504.228455 -335.486336 
L 501.379832 -336.084004 
L 498.53121 -336.692211 
L 495.682587 -337.311763 
L 492.833964 -337.943649 
L 489.985342 -338.588969 
L 487.136719 -339.24886 
L 484.288096 -339.924432 
L 481.439474 -340.616717 
L 478.590851 -341.326633 
L 475.742228 -342.054957 
L 472.893606 -342.802309 
L 470.044983 -343.569144 
L 467.196361 -344.355756 
L 464.347738 -345.162283 
L 461.499115 -345.988714 
L 458.650493 -346.8349 
L 455.80187 -347.700567 
L 452.953247 -348.585322 
L 450.104625 -349.488667 
L 447.256002 -350.410003 
L 444.40738 -351.348639 
L 441.558757 -352.303796 
L 438.710134 -353.274613 
L 435.861512 -354.260147 
L 433.012889 -355.259383 
L 430.164266 -356.271227 
L 427.315644 -357.294517 
L 424.467021 -358.32802 
L 421.618399 -359.370436 
L 418.769776 -360.420398 
L 415.921153 -361.476479 
L 413.072531 -362.537192 
L 410.223908 -363.60099 
L 407.375285 -364.666276 
L 404.526663 -365.731402 
L 401.67804 -366.794672 
L 398.829417 -367.85435 
L 395.980795 -368.90866 
L 393.132172 -369.955794 
L 390.28355 -370.993917 
L 387.434927 -372.021169 
L 384.586304 -373.035672 
L 381.737682 -374.035537 
L 378.889059 -375.018867 
L 376.040436 -375.983767 
L 373.191814 -376.928343 
L 370.343191 -377.850716 
L 367.494569 -378.749022 
L 364.645946 -379.621423 
L 361.797323 -380.466109 
L 358.948701 -381.281307 
L 356.100078 -382.065286 
L 353.251455 -382.816363 
L 350.402833 -383.532911 
L 347.55421 -384.213362 
L 344.705588 -384.856213 
L 341.856965 -385.460034 
L 339.008342 -386.023471 
L 336.15972 -386.545253 
L 333.311097 -387.024193 
L 330.462474 -387.459199 
L 327.613852 -387.84927 
L 324.765229 -388.193507 
L 321.916606 -388.491113 
L 319.067984 -388.741395 
L 316.219361 -388.943769 
L 313.370739 -389.097764 
L 310.522116 -389.203019 
L 307.673493 -389.259285 
L 304.824871 -389.266433 
L 301.976248 -389.224444 
L 299.127625 -389.133417 
L 296.279003 -388.993566 
L 293.43038 -388.805218 
L 290.581758 -388.568815 
L 287.733135 -388.284907 
L 284.884512 -387.954155 
L 282.03589 -387.577326 
L 279.187267 -387.155291 
L 276.338644 -386.68902 
L 273.490022 -386.17958 
L 270.641399 -385.628131 
L 267.792777 -385.035919 
L 264.944154 -384.404275 
L 262.095531 -383.734609 
L 259.246909 -383.028401 
L 256.398286 -382.2872 
L 253.549663 -381.512619 
L 250.701041 -380.706325 
L 247.852418 -379.870034 
L 245.003795 -379.005509 
L 242.155173 -378.114549 
L 239.30655 -377.198984 
L 236.457928 -376.260672 
L 233.609305 -375.301489 
L 230.760682 -374.323324 
L 227.91206 -373.328072 
L 225.063437 -372.317631 
L 222.214814 -371.293893 
L 219.366192 -370.258739 
L 216.517569 -369.214035 
L 213.668947 -368.161624 
L 210.820324 -367.103323 
L 207.971701 -366.040917 
L 205.123079 -364.976155 
L 202.274456 -363.910743 
L 199.425833 -362.846345 
L 196.577211 -361.784573 
L 193.728588 -360.72699 
L 190.879966 -359.675099 
L 188.031343 -358.630346 
L 185.18272 -357.594117 
L 182.334098 -356.56773 
L 179.485475 -355.552441 
L 176.636852 -354.549435 
L 173.78823 -353.559828 
L 170.939607 -352.584663 
L 168.090984 -351.624911 
L 165.242362 -350.681467 
L 162.393739 -349.755149 
L 159.545117 -348.846693 
L 156.696494 -347.956754 
L 153.847871 -347.0859 
L 150.999249 -346.234603 
L 148.150626 -345.40324 
L 145.302003 -344.59208 
L 142.453381 -343.801276 
L 139.604758 -343.030861 
L 136.756136 -342.280729 
L 133.907513 -341.550635 
L 131.05889 -340.840186 
L 128.210268 -340.148834 
L 125.361645 -339.475884 
L 122.513022 -338.820501 
L 119.6644 -338.181728 
L 116.815777 -337.558517 
L 113.967155 -336.94977 
L 111.118532 -336.35439 
L 108.269909 -335.771343 
L 105.421287 -335.199728 
L 102.572664 -334.63885 
L 99.724041 -334.088289 
L 96.875419 -333.547963 
L 94.026796 -333.018175 
L 91.178173 -332.499642 
L 88.329551 -331.993493 
L 85.480928 -331.501245 
L 82.632306 -331.024745 
L 79.783683 -330.566087 
L 76.93506 -330.127502 
L 74.086438 -329.711236 
L 71.237815 -329.319425 
L 68.389192 -328.953958 
L 65.54057 -328.616374 
L 62.691947 -328.30776 
L 59.843325 -328.028691 
L 56.994702 -327.779199 
L 54.146079 -327.558767 
L 51.297457 -327.366371 
L 48.448834 -327.200533 
L 45.600211 -327.059406 
L 42.751589 -326.940862 
L 39.902966 -326.842601 
L 37.054344 -326.76224 
L 34.205721 -326.697407 
z
"/>
    </defs>
    <g>
     <use xlink:href="#m0ae55db39f" x="0" y="485.018437" style="fill: #4c72b0; fill-opacity: 0.3"/>
    </g>
   </g>
   <g id="line2d_1">
    <path d="M 34.205721 158.32103 
L 45.600211 157.959032 
L 54.146079 157.45967 
L 62.691947 156.710677 
L 71.237815 155.699013 
L 79.783683 154.452351 
L 91.178173 152.518796 
L 105.421287 149.81871 
L 116.815777 147.45992 
L 128.210268 144.869603 
L 136.756136 142.737709 
L 145.302003 140.426358 
L 153.847871 137.932538 
L 165.242362 134.33697 
L 176.636852 130.469002 
L 190.879966 125.343339 
L 230.760682 110.695114 
L 239.30655 107.819453 
L 247.852418 105.148403 
L 256.398286 102.731237 
L 264.944154 100.614162 
L 270.641399 99.390307 
L 276.338644 98.329418 
L 282.03589 97.441112 
L 287.733135 96.733531 
L 293.43038 96.213219 
L 299.127625 95.885021 
L 304.824871 95.752005 
L 310.522116 95.815419 
L 316.219361 96.074668 
L 321.916606 96.527325 
L 327.613852 97.169167 
L 333.311097 97.994244 
L 339.008342 98.994966 
L 344.705588 100.162225 
L 353.251455 102.202074 
L 361.797323 104.552329 
L 370.343191 107.167722 
L 378.889059 109.99957 
L 390.28355 114.02452 
L 407.375285 120.352161 
L 427.315644 127.72392 
L 438.710134 131.743825 
L 450.104625 135.52977 
L 461.499115 139.029724 
L 470.044983 141.449294 
L 481.439474 144.401721 
L 492.833964 147.074789 
L 504.228455 149.532101 
L 518.471568 152.368341 
L 529.866058 154.397678 
L 538.411926 155.694207 
L 546.957794 156.732859 
L 555.503662 157.489452 
L 564.04953 157.984612 
L 572.595398 158.27341 
L 586.838511 158.474282 
L 601.081624 158.522768 
L 601.081624 158.522768 
" style="fill: none; stroke: #4c72b0; stroke-width: 1.5; stroke-linecap: round"/>
   </g>
   <g id="line2d_2">
    <path d="M 7.2 158.532083 
L 813.6 158.532083 
" style="fill: none; stroke: #808080; stroke-width: 0.5; stroke-linecap: round"/>
   </g>
   <g id="text_1">
    <text style="font-size: 10px; font-family: 'Arial', 'DejaVu Sans', 'Liberation Sans', 'Bitstream Vera Sans', sans-serif; text-anchor: middle" x="305.710722" y="156.427396" transform="rotate(-0 305.710722 156.427396)">Sweden (1820)</text>
   </g>
   <g id="AnnotationBbox_1">
    <g id="text_2">
     <text style="font-weight: 700; font-size: 8px; font-family: 'Arial', 'DejaVu Sans', 'Liberation Sans', 'Bitstream Vera Sans', sans-serif; text-anchor: end; fill: #808080" x="399.850143" y="12.92625" transform="rotate(-0 399.850143 12.92625)">International Poverty Line</text>
    </g>
    <g id="text_3">
     <text style="font-size: 8px; font-family: 'Arial', 'DejaVu Sans', 'Liberation Sans', 'Bitstream Vera Sans', sans-serif; text-anchor: end; fill: #808080" x="399.850143" y="22.86375" transform="rotate(-0 399.850143 22.86375)">$90 per month</text>
    </g>
   </g>
   <g id="AnnotationBbox_2">
    <g id="text_4">
     <text style="font-weight: 700; font-size: 8px; font-family: 'Arial', 'DejaVu Sans', 'Liberation Sans', 'Bitstream Vera Sans', sans-serif; text-anchor: start; fill: #808080" x="611.380976" y="12.92625" transform="rotate(-0 611.380976 12.92625)">High-income poverty line</text>
    </g>
    <g id="text_5">
     <text style="font-size: 8px; font-family: 'Arial', 'DejaVu Sans', 'Liberation Sans', 'Bitstream Vera Sans', sans-serif; text-anchor: start; fill: #808080" x="611.380976" y="22.86375" transform="rotate(-0 611.380976 22.86375)">$900 per month</text>
    </g>
   </g>
  </g>
  <g id="axes_2">
   <g id="patch_3">
    <path d="M 7.2 303.410417 
L 813.6 303.410417 
L 813.6 169.332083 
L 7.2 169.332083 
z
" style="fill: #ffffff"/>
   </g>
   <g id="matplotlib.axis_3">
    <g id="xtick_35"/>
    <g id="xtick_36"/>
    <g id="xtick_37"/>
    <g id="xtick_38"/>
    <g id="xtick_39"/>
    <g id="xtick_40"/>
    <g id="xtick_41"/>
    <g id="xtick_42"/>
    <g id="xtick_43"/>
    <g id="xtick_44"/>
    <g id="xtick_45"/>
    <g id="xtick_46"/>
    <g id="xtick_47"/>
    <g id="xtick_48"/>
    <g id="xtick_49"/>
    <g id="xtick_50"/>
    <g id="xtick_51"/>
    <g id="xtick_52"/>
    <g id="xtick_53"/>
    <g id="xtick_54"/>
    <g id="xtick_55"/>
    <g id="xtick_56"/>
    <g id="xtick_57"/>
    <g id="xtick_58"/>
    <g id="xtick_59"/>
    <g id="xtick_60"/>
    <g id="xtick_61"/>
    <g id="xtick_62"/>
    <g id="xtick_63"/>
    <g id="xtick_64"/>
    <g id="xtick_65"/>
    <g id="xtick_66"/>
    <g id="xtick_67"/>
    <g id="xtick_68"/>
   </g>
   <g id="matplotlib.axis_4"/>
   <g id="FillBetweenPolyCollection_4">
    <defs>
     <path id="m41274e5a65" d="M 134.72318 -181.608021 
L 134.72318 -181.617131 
L 137.592493 -181.621744 
L 140.461805 -181.62839 
L 143.331118 -181.637813 
L 146.20043 -181.650964 
L 149.069743 -181.669031 
L 151.939055 -181.693468 
L 154.808367 -181.726007 
L 157.67768 -181.768671 
L 160.546992 -181.823755 
L 163.416305 -181.893799 
L 166.285617 -181.981531 
L 169.15493 -182.089788 
L 172.024242 -182.221415 
L 174.893555 -182.379149 
L 177.762867 -182.565488 
L 180.632179 -182.782562 
L 183.501492 -183.032012 
L 186.370804 -183.314891 
L 189.240117 -183.631593 
L 192.109429 -183.981826 
L 194.978742 -184.364628 
L 197.848054 -184.778425 
L 200.717367 -185.221139 
L 203.586679 -185.690323 
L 206.455992 -186.183323 
L 209.325304 -186.69745 
L 212.194616 -187.23014 
L 215.063929 -187.779109 
L 217.933241 -188.342465 
L 220.802554 -188.918794 
L 223.671866 -189.507195 
L 226.541179 -190.107287 
L 229.410491 -190.719172 
L 232.279804 -191.343372 
L 235.149116 -191.980748 
L 238.018428 -192.632407 
L 240.887741 -193.299605 
L 243.757053 -193.983661 
L 246.626366 -194.685876 
L 249.495678 -195.40747 
L 252.364991 -196.149534 
L 255.234303 -196.912995 
L 258.103616 -197.6986 
L 260.972928 -198.506905 
L 263.842241 -199.338278 
L 266.711553 -200.192903 
L 269.580865 -201.070795 
L 272.450178 -201.97181 
L 275.31949 -202.895656 
L 278.188803 -203.841905 
L 281.058115 -204.810006 
L 283.927428 -205.799289 
L 286.79674 -206.808977 
L 289.666053 -207.838185 
L 292.535365 -208.885931 
L 295.404677 -209.951133 
L 298.27399 -211.032618 
L 301.143302 -212.129119 
L 304.012615 -213.239281 
L 306.881927 -214.36166 
L 309.75124 -215.494729 
L 312.620552 -216.636878 
L 315.489865 -217.786418 
L 318.359177 -218.941585 
L 321.22849 -220.100542 
L 324.097802 -221.261385 
L 326.967114 -222.422146 
L 329.836427 -223.5808 
L 332.705739 -224.735268 
L 335.575052 -225.883424 
L 338.444364 -227.023101 
L 341.313677 -228.152098 
L 344.182989 -229.268186 
L 347.052302 -230.369115 
L 349.921614 -231.45262 
L 352.790926 -232.516434 
L 355.660239 -233.558287 
L 358.529551 -234.575924 
L 361.398864 -235.567104 
L 364.268176 -236.529612 
L 367.137489 -237.46127 
L 370.006801 -238.35994 
L 372.876114 -239.223535 
L 375.745426 -240.050025 
L 378.614739 -240.837449 
L 381.484051 -241.583918 
L 384.353363 -242.287626 
L 387.222676 -242.946855 
L 390.091988 -243.559982 
L 392.961301 -244.125489 
L 395.830613 -244.641965 
L 398.699926 -245.108113 
L 401.569238 -245.522758 
L 404.438551 -245.884849 
L 407.307863 -246.193464 
L 410.177175 -246.447815 
L 413.046488 -246.64725 
L 415.9158 -246.791257 
L 418.785113 -246.879467 
L 421.654425 -246.911651 
L 424.523738 -246.887726 
L 427.39305 -246.807756 
L 430.262363 -246.671944 
L 433.131675 -246.480642 
L 436.000988 -246.234339 
L 438.8703 -245.933668 
L 441.739612 -245.579396 
L 444.608925 -245.172427 
L 447.478237 -244.713791 
L 450.34755 -244.204647 
L 453.216862 -243.646274 
L 456.086175 -243.040065 
L 458.955487 -242.387525 
L 461.8248 -241.690261 
L 464.694112 -240.949977 
L 467.563424 -240.168467 
L 470.432737 -239.347607 
L 473.302049 -238.489351 
L 476.171362 -237.595716 
L 479.040674 -236.668782 
L 481.909987 -235.71068 
L 484.779299 -234.723584 
L 487.648612 -233.709703 
L 490.517924 -232.671273 
L 493.387237 -231.610551 
L 496.256549 -230.529803 
L 499.125861 -229.431297 
L 501.995174 -228.3173 
L 504.864486 -227.190063 
L 507.733799 -226.051819 
L 510.603111 -224.904775 
L 513.472424 -223.751102 
L 516.341736 -222.592932 
L 519.211049 -221.432353 
L 522.080361 -220.271397 
L 524.949673 -219.112041 
L 527.818986 -217.956198 
L 530.688298 -216.805716 
L 533.557611 -215.66237 
L 536.426923 -214.527859 
L 539.296236 -213.403804 
L 542.165548 -212.291745 
L 545.034861 -211.193134 
L 547.904173 -210.109338 
L 550.773486 -209.041631 
L 553.642798 -207.991195 
L 556.51211 -206.959112 
L 559.381423 -205.946366 
L 562.250735 -204.953831 
L 565.120048 -203.98227 
L 567.98936 -203.032323 
L 570.858673 -202.104501 
L 573.727985 -201.19917 
L 576.597298 -200.316542 
L 579.46661 -199.456659 
L 582.335922 -198.619378 
L 585.205235 -197.804363 
L 588.074547 -197.011073 
L 590.94386 -196.238763 
L 593.813172 -195.486493 
L 596.682485 -194.753147 
L 599.551797 -194.037471 
L 602.42111 -193.338125 
L 605.290422 -192.653757 
L 608.159735 -191.983082 
L 611.029047 -191.324983 
L 613.898359 -190.678615 
L 616.767672 -190.043506 
L 619.636984 -189.41964 
L 622.506297 -188.807532 
L 625.375609 -188.208258 
L 628.244922 -187.623455 
L 631.114234 -187.055274 
L 633.983547 -186.506288 
L 636.852859 -185.979365 
L 639.722171 -185.477505 
L 642.591484 -185.00366 
L 645.460796 -184.560546 
L 648.330109 -184.150475 
L 651.199421 -183.7752 
L 654.068734 -183.435804 
L 656.938046 -183.13264 
L 659.807359 -182.86531 
L 662.676671 -182.6327 
L 665.545984 -182.433058 
L 668.415296 -182.264101 
L 671.284608 -182.123146 
L 674.153921 -182.007253 
L 677.023233 -181.913366 
L 679.892546 -181.838435 
L 682.761858 -181.779533 
L 685.631171 -181.733931 
L 688.500483 -181.699166 
L 691.369796 -181.673071 
L 694.239108 -181.653786 
L 697.10842 -181.639755 
L 699.977733 -181.629708 
L 702.847045 -181.622625 
L 705.716358 -181.617711 
L 705.716358 -181.608021 
L 705.716358 -181.608021 
L 702.847045 -181.608021 
L 699.977733 -181.608021 
L 697.10842 -181.608021 
L 694.239108 -181.608021 
L 691.369796 -181.608021 
L 688.500483 -181.608021 
L 685.631171 -181.608021 
L 682.761858 -181.608021 
L 679.892546 -181.608021 
L 677.023233 -181.608021 
L 674.153921 -181.608021 
L 671.284608 -181.608021 
L 668.415296 -181.608021 
L 665.545984 -181.608021 
L 662.676671 -181.608021 
L 659.807359 -181.608021 
L 656.938046 -181.608021 
L 654.068734 -181.608021 
L 651.199421 -181.608021 
L 648.330109 -181.608021 
L 645.460796 -181.608021 
L 642.591484 -181.608021 
L 639.722171 -181.608021 
L 636.852859 -181.608021 
L 633.983547 -181.608021 
L 631.114234 -181.608021 
L 628.244922 -181.608021 
L 625.375609 -181.608021 
L 622.506297 -181.608021 
L 619.636984 -181.608021 
L 616.767672 -181.608021 
L 613.898359 -181.608021 
L 611.029047 -181.608021 
L 608.159735 -181.608021 
L 605.290422 -181.608021 
L 602.42111 -181.608021 
L 599.551797 -181.608021 
L 596.682485 -181.608021 
L 593.813172 -181.608021 
L 590.94386 -181.608021 
L 588.074547 -181.608021 
L 585.205235 -181.608021 
L 582.335922 -181.608021 
L 579.46661 -181.608021 
L 576.597298 -181.608021 
L 573.727985 -181.608021 
L 570.858673 -181.608021 
L 567.98936 -181.608021 
L 565.120048 -181.608021 
L 562.250735 -181.608021 
L 559.381423 -181.608021 
L 556.51211 -181.608021 
L 553.642798 -181.608021 
L 550.773486 -181.608021 
L 547.904173 -181.608021 
L 545.034861 -181.608021 
L 542.165548 -181.608021 
L 539.296236 -181.608021 
L 536.426923 -181.608021 
L 533.557611 -181.608021 
L 530.688298 -181.608021 
L 527.818986 -181.608021 
L 524.949673 -181.608021 
L 522.080361 -181.608021 
L 519.211049 -181.608021 
L 516.341736 -181.608021 
L 513.472424 -181.608021 
L 510.603111 -181.608021 
L 507.733799 -181.608021 
L 504.864486 -181.608021 
L 501.995174 -181.608021 
L 499.125861 -181.608021 
L 496.256549 -181.608021 
L 493.387237 -181.608021 
L 490.517924 -181.608021 
L 487.648612 -181.608021 
L 484.779299 -181.608021 
L 481.909987 -181.608021 
L 479.040674 -181.608021 
L 476.171362 -181.608021 
L 473.302049 -181.608021 
L 470.432737 -181.608021 
L 467.563424 -181.608021 
L 464.694112 -181.608021 
L 461.8248 -181.608021 
L 458.955487 -181.608021 
L 456.086175 -181.608021 
L 453.216862 -181.608021 
L 450.34755 -181.608021 
L 447.478237 -181.608021 
L 444.608925 -181.608021 
L 441.739612 -181.608021 
L 438.8703 -181.608021 
L 436.000988 -181.608021 
L 433.131675 -181.608021 
L 430.262363 -181.608021 
L 427.39305 -181.608021 
L 424.523738 -181.608021 
L 421.654425 -181.608021 
L 418.785113 -181.608021 
L 415.9158 -181.608021 
L 413.046488 -181.608021 
L 410.177175 -181.608021 
L 407.307863 -181.608021 
L 404.438551 -181.608021 
L 401.569238 -181.608021 
L 398.699926 -181.608021 
L 395.830613 -181.608021 
L 392.961301 -181.608021 
L 390.091988 -181.608021 
L 387.222676 -181.608021 
L 384.353363 -181.608021 
L 381.484051 -181.608021 
L 378.614739 -181.608021 
L 375.745426 -181.608021 
L 372.876114 -181.608021 
L 370.006801 -181.608021 
L 367.137489 -181.608021 
L 364.268176 -181.608021 
L 361.398864 -181.608021 
L 358.529551 -181.608021 
L 355.660239 -181.608021 
L 352.790926 -181.608021 
L 349.921614 -181.608021 
L 347.052302 -181.608021 
L 344.182989 -181.608021 
L 341.313677 -181.608021 
L 338.444364 -181.608021 
L 335.575052 -181.608021 
L 332.705739 -181.608021 
L 329.836427 -181.608021 
L 326.967114 -181.608021 
L 324.097802 -181.608021 
L 321.22849 -181.608021 
L 318.359177 -181.608021 
L 315.489865 -181.608021 
L 312.620552 -181.608021 
L 309.75124 -181.608021 
L 306.881927 -181.608021 
L 304.012615 -181.608021 
L 301.143302 -181.608021 
L 298.27399 -181.608021 
L 295.404677 -181.608021 
L 292.535365 -181.608021 
L 289.666053 -181.608021 
L 286.79674 -181.608021 
L 283.927428 -181.608021 
L 281.058115 -181.608021 
L 278.188803 -181.608021 
L 275.31949 -181.608021 
L 272.450178 -181.608021 
L 269.580865 -181.608021 
L 266.711553 -181.608021 
L 263.842241 -181.608021 
L 260.972928 -181.608021 
L 258.103616 -181.608021 
L 255.234303 -181.608021 
L 252.364991 -181.608021 
L 249.495678 -181.608021 
L 246.626366 -181.608021 
L 243.757053 -181.608021 
L 240.887741 -181.608021 
L 238.018428 -181.608021 
L 235.149116 -181.608021 
L 232.279804 -181.608021 
L 229.410491 -181.608021 
L 226.541179 -181.608021 
L 223.671866 -181.608021 
L 220.802554 -181.608021 
L 217.933241 -181.608021 
L 215.063929 -181.608021 
L 212.194616 -181.608021 
L 209.325304 -181.608021 
L 206.455992 -181.608021 
L 203.586679 -181.608021 
L 200.717367 -181.608021 
L 197.848054 -181.608021 
L 194.978742 -181.608021 
L 192.109429 -181.608021 
L 189.240117 -181.608021 
L 186.370804 -181.608021 
L 183.501492 -181.608021 
L 180.632179 -181.608021 
L 177.762867 -181.608021 
L 174.893555 -181.608021 
L 172.024242 -181.608021 
L 169.15493 -181.608021 
L 166.285617 -181.608021 
L 163.416305 -181.608021 
L 160.546992 -181.608021 
L 157.67768 -181.608021 
L 154.808367 -181.608021 
L 151.939055 -181.608021 
L 149.069743 -181.608021 
L 146.20043 -181.608021 
L 143.331118 -181.608021 
L 140.461805 -181.608021 
L 137.592493 -181.608021 
L 134.72318 -181.608021 
z
" style="stroke: #4c72b0; stroke-opacity: 0.2"/>
    </defs>
    <g>
     <use xlink:href="#m41274e5a65" x="0" y="485.018437" style="fill: #4c72b0; fill-opacity: 0.2; stroke: #4c72b0; stroke-opacity: 0.2"/>
    </g>
   </g>
   <g id="FillBetweenPolyCollection_5">
    <defs>
     <path id="ma5ca189ca1" d="M 134.72318 -181.617131 
L 134.72318 -181.608021 
L 137.592493 -181.608021 
L 140.461805 -181.608021 
L 143.331118 -181.608021 
L 146.20043 -181.608021 
L 149.069743 -181.608021 
L 151.939055 -181.608021 
L 154.808367 -181.608021 
L 157.67768 -181.608021 
L 160.546992 -181.608021 
L 163.416305 -181.608021 
L 166.285617 -181.608021 
L 169.15493 -181.608021 
L 172.024242 -181.608021 
L 174.893555 -181.608021 
L 177.762867 -181.608021 
L 180.632179 -181.608021 
L 183.501492 -181.608021 
L 186.370804 -181.608021 
L 189.240117 -181.608021 
L 192.109429 -181.608021 
L 194.978742 -181.608021 
L 197.848054 -181.608021 
L 200.717367 -181.608021 
L 203.586679 -181.608021 
L 206.455992 -181.608021 
L 209.325304 -181.608021 
L 212.194616 -181.608021 
L 215.063929 -181.608021 
L 217.933241 -181.608021 
L 220.802554 -181.608021 
L 223.671866 -181.608021 
L 226.541179 -181.608021 
L 229.410491 -181.608021 
L 232.279804 -181.608021 
L 235.149116 -181.608021 
L 238.018428 -181.608021 
L 240.887741 -181.608021 
L 243.757053 -181.608021 
L 246.626366 -181.608021 
L 249.495678 -181.608021 
L 252.364991 -181.608021 
L 255.234303 -181.608021 
L 258.103616 -181.608021 
L 260.972928 -181.608021 
L 263.842241 -181.608021 
L 266.711553 -181.608021 
L 269.580865 -181.608021 
L 272.450178 -181.608021 
L 275.31949 -181.608021 
L 278.188803 -181.608021 
L 281.058115 -181.608021 
L 283.927428 -181.608021 
L 286.79674 -181.608021 
L 289.666053 -181.608021 
L 292.535365 -181.608021 
L 295.404677 -181.608021 
L 298.27399 -181.608021 
L 301.143302 -181.608021 
L 304.012615 -181.608021 
L 306.881927 -181.608021 
L 309.75124 -181.608021 
L 312.620552 -181.608021 
L 315.489865 -181.608021 
L 318.359177 -181.608021 
L 321.22849 -181.608021 
L 324.097802 -181.608021 
L 326.967114 -181.608021 
L 329.836427 -181.608021 
L 332.705739 -181.608021 
L 335.575052 -181.608021 
L 338.444364 -181.608021 
L 341.313677 -181.608021 
L 344.182989 -181.608021 
L 347.052302 -181.608021 
L 349.921614 -181.608021 
L 352.790926 -181.608021 
L 355.660239 -181.608021 
L 358.529551 -181.608021 
L 361.398864 -181.608021 
L 364.268176 -181.608021 
L 367.137489 -181.608021 
L 370.006801 -181.608021 
L 372.876114 -181.608021 
L 375.745426 -181.608021 
L 378.614739 -181.608021 
L 381.484051 -181.608021 
L 384.353363 -181.608021 
L 387.222676 -181.608021 
L 390.091988 -181.608021 
L 392.961301 -181.608021 
L 395.830613 -181.608021 
L 398.699926 -181.608021 
L 399.850143 -181.608021 
L 399.850143 -245.272778 
L 399.850143 -245.272778 
L 398.699926 -245.108113 
L 395.830613 -244.641965 
L 392.961301 -244.125489 
L 390.091988 -243.559982 
L 387.222676 -242.946855 
L 384.353363 -242.287626 
L 381.484051 -241.583918 
L 378.614739 -240.837449 
L 375.745426 -240.050025 
L 372.876114 -239.223535 
L 370.006801 -238.35994 
L 367.137489 -237.46127 
L 364.268176 -236.529612 
L 361.398864 -235.567104 
L 358.529551 -234.575924 
L 355.660239 -233.558287 
L 352.790926 -232.516434 
L 349.921614 -231.45262 
L 347.052302 -230.369115 
L 344.182989 -229.268186 
L 341.313677 -228.152098 
L 338.444364 -227.023101 
L 335.575052 -225.883424 
L 332.705739 -224.735268 
L 329.836427 -223.5808 
L 326.967114 -222.422146 
L 324.097802 -221.261385 
L 321.22849 -220.100542 
L 318.359177 -218.941585 
L 315.489865 -217.786418 
L 312.620552 -216.636878 
L 309.75124 -215.494729 
L 306.881927 -214.36166 
L 304.012615 -213.239281 
L 301.143302 -212.129119 
L 298.27399 -211.032618 
L 295.404677 -209.951133 
L 292.535365 -208.885931 
L 289.666053 -207.838185 
L 286.79674 -206.808977 
L 283.927428 -205.799289 
L 281.058115 -204.810006 
L 278.188803 -203.841905 
L 275.31949 -202.895656 
L 272.450178 -201.97181 
L 269.580865 -201.070795 
L 266.711553 -200.192903 
L 263.842241 -199.338278 
L 260.972928 -198.506905 
L 258.103616 -197.6986 
L 255.234303 -196.912995 
L 252.364991 -196.149534 
L 249.495678 -195.40747 
L 246.626366 -194.685876 
L 243.757053 -193.983661 
L 240.887741 -193.299605 
L 238.018428 -192.632407 
L 235.149116 -191.980748 
L 232.279804 -191.343372 
L 229.410491 -190.719172 
L 226.541179 -190.107287 
L 223.671866 -189.507195 
L 220.802554 -188.918794 
L 217.933241 -188.342465 
L 215.063929 -187.779109 
L 212.194616 -187.23014 
L 209.325304 -186.69745 
L 206.455992 -186.183323 
L 203.586679 -185.690323 
L 200.717367 -185.221139 
L 197.848054 -184.778425 
L 194.978742 -184.364628 
L 192.109429 -183.981826 
L 189.240117 -183.631593 
L 186.370804 -183.314891 
L 183.501492 -183.032012 
L 180.632179 -182.782562 
L 177.762867 -182.565488 
L 174.893555 -182.379149 
L 172.024242 -182.221415 
L 169.15493 -182.089788 
L 166.285617 -181.981531 
L 163.416305 -181.893799 
L 160.546992 -181.823755 
L 157.67768 -181.768671 
L 154.808367 -181.726007 
L 151.939055 -181.693468 
L 149.069743 -181.669031 
L 146.20043 -181.650964 
L 143.331118 -181.637813 
L 140.461805 -181.62839 
L 137.592493 -181.621744 
L 134.72318 -181.617131 
z
"/>
    </defs>
    <g>
     <use xlink:href="#ma5ca189ca1" x="0" y="485.018437" style="fill: #4c72b0; fill-opacity: 0.3"/>
    </g>
   </g>
   <g id="FillBetweenPolyCollection_6">
    <defs>
     <path id="mb604c400da" d="M 134.72318 -181.617131 
L 134.72318 -181.608021 
L 137.592493 -181.608021 
L 140.461805 -181.608021 
L 143.331118 -181.608021 
L 146.20043 -181.608021 
L 149.069743 -181.608021 
L 151.939055 -181.608021 
L 154.808367 -181.608021 
L 157.67768 -181.608021 
L 160.546992 -181.608021 
L 163.416305 -181.608021 
L 166.285617 -181.608021 
L 169.15493 -181.608021 
L 172.024242 -181.608021 
L 174.893555 -181.608021 
L 177.762867 -181.608021 
L 180.632179 -181.608021 
L 183.501492 -181.608021 
L 186.370804 -181.608021 
L 189.240117 -181.608021 
L 192.109429 -181.608021 
L 194.978742 -181.608021 
L 197.848054 -181.608021 
L 200.717367 -181.608021 
L 203.586679 -181.608021 
L 206.455992 -181.608021 
L 209.325304 -181.608021 
L 212.194616 -181.608021 
L 215.063929 -181.608021 
L 217.933241 -181.608021 
L 220.802554 -181.608021 
L 223.671866 -181.608021 
L 226.541179 -181.608021 
L 229.410491 -181.608021 
L 232.279804 -181.608021 
L 235.149116 -181.608021 
L 238.018428 -181.608021 
L 240.887741 -181.608021 
L 243.757053 -181.608021 
L 246.626366 -181.608021 
L 249.495678 -181.608021 
L 252.364991 -181.608021 
L 255.234303 -181.608021 
L 258.103616 -181.608021 
L 260.972928 -181.608021 
L 263.842241 -181.608021 
L 266.711553 -181.608021 
L 269.580865 -181.608021 
L 272.450178 -181.608021 
L 275.31949 -181.608021 
L 278.188803 -181.608021 
L 281.058115 -181.608021 
L 283.927428 -181.608021 
L 286.79674 -181.608021 
L 289.666053 -181.608021 
L 292.535365 -181.608021 
L 295.404677 -181.608021 
L 298.27399 -181.608021 
L 301.143302 -181.608021 
L 304.012615 -181.608021 
L 306.881927 -181.608021 
L 309.75124 -181.608021 
L 312.620552 -181.608021 
L 315.489865 -181.608021 
L 318.359177 -181.608021 
L 321.22849 -181.608021 
L 324.097802 -181.608021 
L 326.967114 -181.608021 
L 329.836427 -181.608021 
L 332.705739 -181.608021 
L 335.575052 -181.608021 
L 338.444364 -181.608021 
L 341.313677 -181.608021 
L 344.182989 -181.608021 
L 347.052302 -181.608021 
L 349.921614 -181.608021 
L 352.790926 -181.608021 
L 355.660239 -181.608021 
L 358.529551 -181.608021 
L 361.398864 -181.608021 
L 364.268176 -181.608021 
L 367.137489 -181.608021 
L 370.006801 -181.608021 
L 372.876114 -181.608021 
L 375.745426 -181.608021 
L 378.614739 -181.608021 
L 381.484051 -181.608021 
L 384.353363 -181.608021 
L 387.222676 -181.608021 
L 390.091988 -181.608021 
L 392.961301 -181.608021 
L 395.830613 -181.608021 
L 398.699926 -181.608021 
L 401.569238 -181.608021 
L 404.438551 -181.608021 
L 407.307863 -181.608021 
L 410.177175 -181.608021 
L 413.046488 -181.608021 
L 415.9158 -181.608021 
L 418.785113 -181.608021 
L 421.654425 -181.608021 
L 424.523738 -181.608021 
L 427.39305 -181.608021 
L 430.262363 -181.608021 
L 433.131675 -181.608021 
L 436.000988 -181.608021 
L 438.8703 -181.608021 
L 441.739612 -181.608021 
L 444.608925 -181.608021 
L 447.478237 -181.608021 
L 450.34755 -181.608021 
L 453.216862 -181.608021 
L 456.086175 -181.608021 
L 458.955487 -181.608021 
L 461.8248 -181.608021 
L 464.694112 -181.608021 
L 467.563424 -181.608021 
L 470.432737 -181.608021 
L 473.302049 -181.608021 
L 476.171362 -181.608021 
L 479.040674 -181.608021 
L 481.909987 -181.608021 
L 484.779299 -181.608021 
L 487.648612 -181.608021 
L 490.517924 -181.608021 
L 493.387237 -181.608021 
L 496.256549 -181.608021 
L 499.125861 -181.608021 
L 501.995174 -181.608021 
L 504.864486 -181.608021 
L 507.733799 -181.608021 
L 510.603111 -181.608021 
L 513.472424 -181.608021 
L 516.341736 -181.608021 
L 519.211049 -181.608021 
L 522.080361 -181.608021 
L 524.949673 -181.608021 
L 527.818986 -181.608021 
L 530.688298 -181.608021 
L 533.557611 -181.608021 
L 536.426923 -181.608021 
L 539.296236 -181.608021 
L 542.165548 -181.608021 
L 545.034861 -181.608021 
L 547.904173 -181.608021 
L 550.773486 -181.608021 
L 553.642798 -181.608021 
L 556.51211 -181.608021 
L 559.381423 -181.608021 
L 562.250735 -181.608021 
L 565.120048 -181.608021 
L 567.98936 -181.608021 
L 570.858673 -181.608021 
L 573.727985 -181.608021 
L 576.597298 -181.608021 
L 579.46661 -181.608021 
L 582.335922 -181.608021 
L 585.205235 -181.608021 
L 588.074547 -181.608021 
L 590.94386 -181.608021 
L 593.813172 -181.608021 
L 596.682485 -181.608021 
L 599.551797 -181.608021 
L 602.42111 -181.608021 
L 605.290422 -181.608021 
L 608.159735 -181.608021 
L 611.029047 -181.608021 
L 611.380976 -181.608021 
L 611.380976 -191.246786 
L 611.380976 -191.246786 
L 611.029047 -191.324983 
L 608.159735 -191.983082 
L 605.290422 -192.653757 
L 602.42111 -193.338125 
L 599.551797 -194.037471 
L 596.682485 -194.753147 
L 593.813172 -195.486493 
L 590.94386 -196.238763 
L 588.074547 -197.011073 
L 585.205235 -197.804363 
L 582.335922 -198.619378 
L 579.46661 -199.456659 
L 576.597298 -200.316542 
L 573.727985 -201.19917 
L 570.858673 -202.104501 
L 567.98936 -203.032323 
L 565.120048 -203.98227 
L 562.250735 -204.953831 
L 559.381423 -205.946366 
L 556.51211 -206.959112 
L 553.642798 -207.991195 
L 550.773486 -209.041631 
L 547.904173 -210.109338 
L 545.034861 -211.193134 
L 542.165548 -212.291745 
L 539.296236 -213.403804 
L 536.426923 -214.527859 
L 533.557611 -215.66237 
L 530.688298 -216.805716 
L 527.818986 -217.956198 
L 524.949673 -219.112041 
L 522.080361 -220.271397 
L 519.211049 -221.432353 
L 516.341736 -222.592932 
L 513.472424 -223.751102 
L 510.603111 -224.904775 
L 507.733799 -226.051819 
L 504.864486 -227.190063 
L 501.995174 -228.3173 
L 499.125861 -229.431297 
L 496.256549 -230.529803 
L 493.387237 -231.610551 
L 490.517924 -232.671273 
L 487.648612 -233.709703 
L 484.779299 -234.723584 
L 481.909987 -235.71068 
L 479.040674 -236.668782 
L 476.171362 -237.595716 
L 473.302049 -238.489351 
L 470.432737 -239.347607 
L 467.563424 -240.168467 
L 464.694112 -240.949977 
L 461.8248 -241.690261 
L 458.955487 -242.387525 
L 456.086175 -243.040065 
L 453.216862 -243.646274 
L 450.34755 -244.204647 
L 447.478237 -244.713791 
L 444.608925 -245.172427 
L 441.739612 -245.579396 
L 438.8703 -245.933668 
L 436.000988 -246.234339 
L 433.131675 -246.480642 
L 430.262363 -246.671944 
L 427.39305 -246.807756 
L 424.523738 -246.887726 
L 421.654425 -246.911651 
L 418.785113 -246.879467 
L 415.9158 -246.791257 
L 413.046488 -246.64725 
L 410.177175 -246.447815 
L 407.307863 -246.193464 
L 404.438551 -245.884849 
L 401.569238 -245.522758 
L 398.699926 -245.108113 
L 395.830613 -244.641965 
L 392.961301 -244.125489 
L 390.091988 -243.559982 
L 387.222676 -242.946855 
L 384.353363 -242.287626 
L 381.484051 -241.583918 
L 378.614739 -240.837449 
L 375.745426 -240.050025 
L 372.876114 -239.223535 
L 370.006801 -238.35994 
L 367.137489 -237.46127 
L 364.268176 -236.529612 
L 361.398864 -235.567104 
L 358.529551 -234.575924 
L 355.660239 -233.558287 
L 352.790926 -232.516434 
L 349.921614 -231.45262 
L 347.052302 -230.369115 
L 344.182989 -229.268186 
L 341.313677 -228.152098 
L 338.444364 -227.023101 
L 335.575052 -225.883424 
L 332.705739 -224.735268 
L 329.836427 -223.5808 
L 326.967114 -222.422146 
L 324.097802 -221.261385 
L 321.22849 -220.100542 
L 318.359177 -218.941585 
L 315.489865 -217.786418 
L 312.620552 -216.636878 
L 309.75124 -215.494729 
L 306.881927 -214.36166 
L 304.012615 -213.239281 
L 301.143302 -212.129119 
L 298.27399 -211.032618 
L 295.404677 -209.951133 
L 292.535365 -208.885931 
L 289.666053 -207.838185 
L 286.79674 -206.808977 
L 283.927428 -205.799289 
L 281.058115 -204.810006 
L 278.188803 -203.841905 
L 275.31949 -202.895656 
L 272.450178 -201.97181 
L 269.580865 -201.070795 
L 266.711553 -200.192903 
L 263.842241 -199.338278 
L 260.972928 -198.506905 
L 258.103616 -197.6986 
L 255.234303 -196.912995 
L 252.364991 -196.149534 
L 249.495678 -195.40747 
L 246.626366 -194.685876 
L 243.757053 -193.983661 
L 240.887741 -193.299605 
L 238.018428 -192.632407 
L 235.149116 -191.980748 
L 232.279804 -191.343372 
L 229.410491 -190.719172 
L 226.541179 -190.107287 
L 223.671866 -189.507195 
L 220.802554 -188.918794 
L 217.933241 -188.342465 
L 215.063929 -187.779109 
L 212.194616 -187.23014 
L 209.325304 -186.69745 
L 206.455992 -186.183323 
L 203.586679 -185.690323 
L 200.717367 -185.221139 
L 197.848054 -184.778425 
L 194.978742 -184.364628 
L 192.109429 -183.981826 
L 189.240117 -183.631593 
L 186.370804 -183.314891 
L 183.501492 -183.032012 
L 180.632179 -182.782562 
L 177.762867 -182.565488 
L 174.893555 -182.379149 
L 172.024242 -182.221415 
L 169.15493 -182.089788 
L 166.285617 -181.981531 
L 163.416305 -181.893799 
L 160.546992 -181.823755 
L 157.67768 -181.768671 
L 154.808367 -181.726007 
L 151.939055 -181.693468 
L 149.069743 -181.669031 
L 146.20043 -181.650964 
L 143.331118 -181.637813 
L 140.461805 -181.62839 
L 137.592493 -181.621744 
L 134.72318 -181.617131 
z
"/>
    </defs>
    <g>
     <use xlink:href="#mb604c400da" x="0" y="485.018437" style="fill: #4c72b0; fill-opacity: 0.3"/>
    </g>
   </g>
   <g id="line2d_3">
    <path d="M 134.72318 303.401307 
L 154.808367 303.29243 
L 166.285617 303.036906 
L 174.893555 302.639289 
L 183.501492 301.986425 
L 192.109429 301.036611 
L 200.717367 299.797299 
L 209.325304 298.320988 
L 220.802554 296.099644 
L 232.279804 293.675066 
L 243.757053 291.034777 
L 252.364991 288.868904 
L 260.972928 286.511532 
L 269.580865 283.947642 
L 278.188803 281.176532 
L 286.79674 278.209461 
L 298.27399 273.985819 
L 309.75124 269.523709 
L 352.790926 252.502004 
L 361.398864 249.451334 
L 370.006801 246.658497 
L 378.614739 244.180989 
L 384.353363 242.730811 
L 390.091988 241.458455 
L 395.830613 240.376473 
L 401.569238 239.495679 
L 407.307863 238.824973 
L 413.046488 238.371188 
L 418.785113 238.138971 
L 424.523738 238.130711 
L 430.262363 238.346493 
L 436.000988 238.784098 
L 441.739612 239.439041 
L 447.478237 240.304647 
L 453.216862 241.372164 
L 458.955487 242.630912 
L 464.694112 244.06846 
L 470.432737 245.67083 
L 479.040674 248.349655 
L 487.648612 251.308735 
L 496.256549 254.488635 
L 507.733799 258.966618 
L 547.904173 274.9091 
L 559.381423 279.072071 
L 567.98936 281.986114 
L 576.597298 284.701895 
L 585.205235 287.214074 
L 593.813172 289.531944 
L 605.290422 292.36468 
L 616.767672 294.974932 
L 628.244922 297.394982 
L 636.852859 299.039072 
L 645.460796 300.457891 
L 654.068734 301.582633 
L 662.676671 302.385737 
L 671.284608 302.895291 
L 679.892546 303.180002 
L 694.239108 303.364652 
L 705.716358 303.400727 
L 705.716358 303.400727 
" style="fill: none; stroke: #4c72b0; stroke-width: 1.5; stroke-linecap: round"/>
   </g>
   <g id="line2d_4">
    <path d="M 7.2 303.410417 
L 813.6 303.410417 
" style="fill: none; stroke: #808080; stroke-width: 0.5; stroke-linecap: round"/>
   </g>
   <g id="text_6">
    <text style="font-size: 10px; font-family: 'Arial', 'DejaVu Sans', 'Liberation Sans', 'Bitstream Vera Sans', sans-serif; text-anchor: middle" x="421.746257" y="301.305729" transform="rotate(-0 421.746257 301.305729)">Sweden (1920)</text>
   </g>
  </g>
  <g id="axes_3">
   <g id="patch_4">
    <path d="M 7.2 448.28875 
L 813.6 448.28875 
L 813.6 314.210417 
L 7.2 314.210417 
z
" style="fill: #ffffff"/>
   </g>
   <g id="matplotlib.axis_5">
    <g id="xtick_69">
     <g id="line2d_5">
      <defs>
       <path id="m002c4be608" d="M 0 0 
L 0 3.5 
" style="stroke: #262626; stroke-width: 0.8"/>
      </defs>
      <g>
       <use xlink:href="#m002c4be608" x="50.144722" y="448.28875" style="fill: #262626; stroke: #262626; stroke-width: 0.8"/>
      </g>
     </g>
     <g id="text_7">
      <text style="font-size: 10px; font-family: 'Arial', 'DejaVu Sans', 'Liberation Sans', 'Bitstream Vera Sans', sans-serif; text-anchor: middle; fill: #262626" x="50.144722" y="462.446562" transform="rotate(-0 50.144722 462.446562)">$2</text>
     </g>
    </g>
    <g id="xtick_70">
     <g id="line2d_6">
      <g>
       <use xlink:href="#m002c4be608" x="134.321303" y="448.28875" style="fill: #262626; stroke: #262626; stroke-width: 0.8"/>
      </g>
     </g>
     <g id="text_8">
      <text style="font-size: 10px; font-family: 'Arial', 'DejaVu Sans', 'Liberation Sans', 'Bitstream Vera Sans', sans-serif; text-anchor: middle; fill: #262626" x="134.321303" y="462.446562" transform="rotate(-0 134.321303 462.446562)">$5</text>
     </g>
    </g>
    <g id="xtick_71">
     <g id="line2d_7">
      <g>
       <use xlink:href="#m002c4be608" x="197.998429" y="448.28875" style="fill: #262626; stroke: #262626; stroke-width: 0.8"/>
      </g>
     </g>
     <g id="text_9">
      <text style="font-size: 10px; font-family: 'Arial', 'DejaVu Sans', 'Liberation Sans', 'Bitstream Vera Sans', sans-serif; text-anchor: middle; fill: #262626" x="197.998429" y="462.446562" transform="rotate(-0 197.998429 462.446562)">$10</text>
     </g>
    </g>
    <g id="xtick_72">
     <g id="line2d_8">
      <g>
       <use xlink:href="#m002c4be608" x="261.675555" y="448.28875" style="fill: #262626; stroke: #262626; stroke-width: 0.8"/>
      </g>
     </g>
     <g id="text_10">
      <text style="font-size: 10px; font-family: 'Arial', 'DejaVu Sans', 'Liberation Sans', 'Bitstream Vera Sans', sans-serif; text-anchor: middle; fill: #262626" x="261.675555" y="462.446562" transform="rotate(-0 261.675555 462.446562)">$20</text>
     </g>
    </g>
    <g id="xtick_73">
     <g id="line2d_9">
      <g>
       <use xlink:href="#m002c4be608" x="345.852137" y="448.28875" style="fill: #262626; stroke: #262626; stroke-width: 0.8"/>
      </g>
     </g>
     <g id="text_11">
      <text style="font-size: 10px; font-family: 'Arial', 'DejaVu Sans', 'Liberation Sans', 'Bitstream Vera Sans', sans-serif; text-anchor: middle; fill: #262626" x="345.852137" y="462.446562" transform="rotate(-0 345.852137 462.446562)">$50</text>
     </g>
    </g>
    <g id="xtick_74">
     <g id="line2d_10">
      <g>
       <use xlink:href="#m002c4be608" x="409.529263" y="448.28875" style="fill: #262626; stroke: #262626; stroke-width: 0.8"/>
      </g>
     </g>
     <g id="text_12">
      <text style="font-size: 10px; font-family: 'Arial', 'DejaVu Sans', 'Liberation Sans', 'Bitstream Vera Sans', sans-serif; text-anchor: middle; fill: #262626" x="409.529263" y="462.446562" transform="rotate(-0 409.529263 462.446562)">$100</text>
     </g>
    </g>
    <g id="xtick_75">
     <g id="line2d_11">
      <g>
       <use xlink:href="#m002c4be608" x="473.206389" y="448.28875" style="fill: #262626; stroke: #262626; stroke-width: 0.8"/>
      </g>
     </g>
     <g id="text_13">
      <text style="font-size: 10px; font-family: 'Arial', 'DejaVu Sans', 'Liberation Sans', 'Bitstream Vera Sans', sans-serif; text-anchor: middle; fill: #262626" x="473.206389" y="462.446562" transform="rotate(-0 473.206389 462.446562)">$200</text>
     </g>
    </g>
    <g id="xtick_76">
     <g id="line2d_12">
      <g>
       <use xlink:href="#m002c4be608" x="557.382971" y="448.28875" style="fill: #262626; stroke: #262626; stroke-width: 0.8"/>
      </g>
     </g>
     <g id="text_14">
      <text style="font-size: 10px; font-family: 'Arial', 'DejaVu Sans', 'Liberation Sans', 'Bitstream Vera Sans', sans-serif; text-anchor: middle; fill: #262626" x="557.382971" y="462.446562" transform="rotate(-0 557.382971 462.446562)">$500</text>
     </g>
    </g>
    <g id="xtick_77">
     <g id="line2d_13">
      <g>
       <use xlink:href="#m002c4be608" x="621.060097" y="448.28875" style="fill: #262626; stroke: #262626; stroke-width: 0.8"/>
      </g>
     </g>
     <g id="text_15">
      <text style="font-size: 10px; font-family: 'Arial', 'DejaVu Sans', 'Liberation Sans', 'Bitstream Vera Sans', sans-serif; text-anchor: middle; fill: #262626" x="621.060097" y="462.446562" transform="rotate(-0 621.060097 462.446562)">$1000</text>
     </g>
    </g>
    <g id="xtick_78">
     <g id="line2d_14">
      <g>
       <use xlink:href="#m002c4be608" x="684.737222" y="448.28875" style="fill: #262626; stroke: #262626; stroke-width: 0.8"/>
      </g>
     </g>
     <g id="text_16">
      <text style="font-size: 10px; font-family: 'Arial', 'DejaVu Sans', 'Liberation Sans', 'Bitstream Vera Sans', sans-serif; text-anchor: middle; fill: #262626" x="684.737222" y="462.446562" transform="rotate(-0 684.737222 462.446562)">$2000</text>
     </g>
    </g>
    <g id="xtick_79">
     <g id="line2d_15">
      <g>
       <use xlink:href="#m002c4be608" x="768.913804" y="448.28875" style="fill: #262626; stroke: #262626; stroke-width: 0.8"/>
      </g>
     </g>
     <g id="text_17">
      <text style="font-size: 10px; font-family: 'Arial', 'DejaVu Sans', 'Liberation Sans', 'Bitstream Vera Sans', sans-serif; text-anchor: middle; fill: #262626" x="768.913804" y="462.446562" transform="rotate(-0 768.913804 462.446562)">$5000</text>
     </g>
    </g>
    <g id="xtick_80">
     <g id="line2d_16">
      <defs>
       <path id="m709b7d1ab5" d="M 0 0 
L 0 2 
" style="stroke: #262626; stroke-width: 0.6"/>
      </defs>
      <g>
       <use xlink:href="#m709b7d1ab5" x="87.393452" y="448.28875" style="fill: #262626; stroke: #262626; stroke-width: 0.6"/>
      </g>
     </g>
    </g>
    <g id="xtick_81">
     <g id="line2d_17">
      <g>
       <use xlink:href="#m709b7d1ab5" x="113.821847" y="448.28875" style="fill: #262626; stroke: #262626; stroke-width: 0.6"/>
      </g>
     </g>
    </g>
    <g id="xtick_82">
     <g id="line2d_18">
      <g>
       <use xlink:href="#m709b7d1ab5" x="151.070578" y="448.28875" style="fill: #262626; stroke: #262626; stroke-width: 0.6"/>
      </g>
     </g>
    </g>
    <g id="xtick_83">
     <g id="line2d_19">
      <g>
       <use xlink:href="#m709b7d1ab5" x="165.231889" y="448.28875" style="fill: #262626; stroke: #262626; stroke-width: 0.6"/>
      </g>
     </g>
    </g>
    <g id="xtick_84">
     <g id="line2d_20">
      <g>
       <use xlink:href="#m709b7d1ab5" x="177.498973" y="448.28875" style="fill: #262626; stroke: #262626; stroke-width: 0.6"/>
      </g>
     </g>
    </g>
    <g id="xtick_85">
     <g id="line2d_21">
      <g>
       <use xlink:href="#m709b7d1ab5" x="188.319309" y="448.28875" style="fill: #262626; stroke: #262626; stroke-width: 0.6"/>
      </g>
     </g>
    </g>
    <g id="xtick_86">
     <g id="line2d_22">
      <g>
       <use xlink:href="#m709b7d1ab5" x="298.924286" y="448.28875" style="fill: #262626; stroke: #262626; stroke-width: 0.6"/>
      </g>
     </g>
    </g>
    <g id="xtick_87">
     <g id="line2d_23">
      <g>
       <use xlink:href="#m709b7d1ab5" x="325.352681" y="448.28875" style="fill: #262626; stroke: #262626; stroke-width: 0.6"/>
      </g>
     </g>
    </g>
    <g id="xtick_88">
     <g id="line2d_24">
      <g>
       <use xlink:href="#m709b7d1ab5" x="362.601412" y="448.28875" style="fill: #262626; stroke: #262626; stroke-width: 0.6"/>
      </g>
     </g>
    </g>
    <g id="xtick_89">
     <g id="line2d_25">
      <g>
       <use xlink:href="#m709b7d1ab5" x="376.762722" y="448.28875" style="fill: #262626; stroke: #262626; stroke-width: 0.6"/>
      </g>
     </g>
    </g>
    <g id="xtick_90">
     <g id="line2d_26">
      <g>
       <use xlink:href="#m709b7d1ab5" x="389.029807" y="448.28875" style="fill: #262626; stroke: #262626; stroke-width: 0.6"/>
      </g>
     </g>
    </g>
    <g id="xtick_91">
     <g id="line2d_27">
      <g>
       <use xlink:href="#m709b7d1ab5" x="399.850143" y="448.28875" style="fill: #262626; stroke: #262626; stroke-width: 0.6"/>
      </g>
     </g>
    </g>
    <g id="xtick_92">
     <g id="line2d_28">
      <g>
       <use xlink:href="#m709b7d1ab5" x="510.45512" y="448.28875" style="fill: #262626; stroke: #262626; stroke-width: 0.6"/>
      </g>
     </g>
    </g>
    <g id="xtick_93">
     <g id="line2d_29">
      <g>
       <use xlink:href="#m709b7d1ab5" x="536.883515" y="448.28875" style="fill: #262626; stroke: #262626; stroke-width: 0.6"/>
      </g>
     </g>
    </g>
    <g id="xtick_94">
     <g id="line2d_30">
      <g>
       <use xlink:href="#m709b7d1ab5" x="574.132246" y="448.28875" style="fill: #262626; stroke: #262626; stroke-width: 0.6"/>
      </g>
     </g>
    </g>
    <g id="xtick_95">
     <g id="line2d_31">
      <g>
       <use xlink:href="#m709b7d1ab5" x="588.293556" y="448.28875" style="fill: #262626; stroke: #262626; stroke-width: 0.6"/>
      </g>
     </g>
    </g>
    <g id="xtick_96">
     <g id="line2d_32">
      <g>
       <use xlink:href="#m709b7d1ab5" x="600.560641" y="448.28875" style="fill: #262626; stroke: #262626; stroke-width: 0.6"/>
      </g>
     </g>
    </g>
    <g id="xtick_97">
     <g id="line2d_33">
      <g>
       <use xlink:href="#m709b7d1ab5" x="611.380976" y="448.28875" style="fill: #262626; stroke: #262626; stroke-width: 0.6"/>
      </g>
     </g>
    </g>
    <g id="xtick_98">
     <g id="line2d_34">
      <g>
       <use xlink:href="#m709b7d1ab5" x="721.985953" y="448.28875" style="fill: #262626; stroke: #262626; stroke-width: 0.6"/>
      </g>
     </g>
    </g>
    <g id="xtick_99">
     <g id="line2d_35">
      <g>
       <use xlink:href="#m709b7d1ab5" x="748.414348" y="448.28875" style="fill: #262626; stroke: #262626; stroke-width: 0.6"/>
      </g>
     </g>
    </g>
    <g id="xtick_100">
     <g id="line2d_36">
      <g>
       <use xlink:href="#m709b7d1ab5" x="785.663079" y="448.28875" style="fill: #262626; stroke: #262626; stroke-width: 0.6"/>
      </g>
     </g>
    </g>
    <g id="xtick_101">
     <g id="line2d_37">
      <g>
       <use xlink:href="#m709b7d1ab5" x="799.824389" y="448.28875" style="fill: #262626; stroke: #262626; stroke-width: 0.6"/>
      </g>
     </g>
    </g>
    <g id="xtick_102">
     <g id="line2d_38">
      <g>
       <use xlink:href="#m709b7d1ab5" x="812.091474" y="448.28875" style="fill: #262626; stroke: #262626; stroke-width: 0.6"/>
      </g>
     </g>
    </g>
    <g id="text_18">
     <text style="font-size: 10px; font-family: 'Arial', 'DejaVu Sans', 'Liberation Sans', 'Bitstream Vera Sans', sans-serif; text-anchor: middle; fill: #262626" x="410.4" y="475.71375" transform="rotate(-0 410.4 475.71375)">Income or consumption (month)</text>
    </g>
   </g>
   <g id="matplotlib.axis_6"/>
   <g id="FillBetweenPolyCollection_7">
    <defs>
     <path id="m5c497da183" d="M 521.606759 -36.729688 
L 521.606759 -36.747501 
L 523.07415 -36.756522 
L 524.541541 -36.769517 
L 526.008932 -36.787942 
L 527.476323 -36.813658 
L 528.943714 -36.848987 
L 530.411105 -36.896769 
L 531.878496 -36.960397 
L 533.345887 -37.04382 
L 534.813278 -37.151531 
L 536.280669 -37.288494 
L 537.74806 -37.460044 
L 539.215451 -37.671727 
L 540.682842 -37.929109 
L 542.150233 -38.237539 
L 543.617624 -38.601904 
L 545.085015 -39.026367 
L 546.552406 -39.514138 
L 548.019797 -40.067275 
L 549.487188 -40.686549 
L 550.954579 -41.37139 
L 552.42197 -42.119914 
L 553.889361 -42.929046 
L 555.356752 -43.794722 
L 556.824143 -44.712157 
L 558.291534 -45.676162 
L 559.758925 -46.681476 
L 561.226316 -47.72309 
L 562.693707 -48.796535 
L 564.161098 -49.898113 
L 565.628489 -51.025056 
L 567.09588 -52.175606 
L 568.563271 -53.349016 
L 570.030662 -54.545486 
L 571.498053 -55.766037 
L 572.965444 -57.012352 
L 574.432835 -58.286595 
L 575.900226 -59.591223 
L 577.367617 -60.928815 
L 578.835008 -62.301915 
L 580.302399 -63.712908 
L 581.76979 -65.163928 
L 583.237181 -66.656788 
L 584.704572 -68.192948 
L 586.171963 -69.773494 
L 587.639354 -71.399146 
L 589.106745 -73.070266 
L 590.574136 -74.786883 
L 592.041527 -76.548713 
L 593.508918 -78.355185 
L 594.976309 -80.205465 
L 596.4437 -82.098474 
L 597.911091 -84.032902 
L 599.378482 -86.007229 
L 600.845873 -88.019726 
L 602.313264 -90.06847 
L 603.780655 -92.151349 
L 605.248046 -94.266067 
L 606.715437 -96.410147 
L 608.182828 -98.580939 
L 609.650219 -100.77562 
L 611.11761 -102.991205 
L 612.585001 -105.224544 
L 614.052392 -107.472336 
L 615.519783 -109.73113 
L 616.987174 -111.997336 
L 618.454565 -114.267229 
L 619.921956 -116.536962 
L 621.389347 -118.802575 
L 622.856738 -121.060003 
L 624.324129 -123.305088 
L 625.79152 -125.533595 
L 627.258911 -127.741217 
L 628.726302 -129.923597 
L 630.193693 -132.076335 
L 631.661084 -134.195004 
L 633.128475 -136.275168 
L 634.595866 -138.312392 
L 636.063257 -140.302262 
L 637.530648 -142.240399 
L 638.998039 -144.122472 
L 640.46543 -145.944221 
L 641.932821 -147.701465 
L 643.400212 -149.390124 
L 644.867603 -151.006229 
L 646.334994 -152.545945 
L 647.802385 -154.005578 
L 649.269776 -155.381597 
L 650.737167 -156.670642 
L 652.204558 -157.869541 
L 653.671949 -158.975324 
L 655.13934 -159.985232 
L 656.606731 -160.89673 
L 658.074122 -161.707521 
L 659.541513 -162.415547 
L 661.008904 -163.019007 
L 662.476295 -163.516361 
L 663.943686 -163.906333 
L 665.411077 -164.187923 
L 666.878468 -164.360406 
L 668.345859 -164.423338 
L 669.81325 -164.376557 
L 671.280641 -164.220184 
L 672.748032 -163.954621 
L 674.215423 -163.580551 
L 675.682814 -163.098935 
L 677.150205 -162.511007 
L 678.617596 -161.818271 
L 680.084987 -161.022489 
L 681.552378 -160.12568 
L 683.019769 -159.130108 
L 684.48716 -158.038274 
L 685.954551 -156.852903 
L 687.421942 -155.576937 
L 688.889333 -154.213518 
L 690.356724 -152.765978 
L 691.824115 -151.237825 
L 693.291506 -149.63273 
L 694.758897 -147.954508 
L 696.226288 -146.207109 
L 697.693679 -144.394598 
L 699.16107 -142.521141 
L 700.628461 -140.590989 
L 702.095852 -138.608462 
L 703.563243 -136.577934 
L 705.030634 -134.503815 
L 706.498025 -132.390537 
L 707.965416 -130.242538 
L 709.432807 -128.064246 
L 710.900198 -125.860066 
L 712.367589 -123.634363 
L 713.83498 -121.391451 
L 715.302371 -119.135578 
L 716.769762 -116.870913 
L 718.237153 -114.601534 
L 719.704544 -112.33142 
L 721.171935 -110.064435 
L 722.639326 -107.80432 
L 724.106717 -105.554686 
L 725.574108 -103.319006 
L 727.041499 -101.100602 
L 728.50889 -98.902644 
L 729.976281 -96.728141 
L 731.443672 -94.579935 
L 732.911063 -92.460698 
L 734.378454 -90.372922 
L 735.845845 -88.318916 
L 737.313236 -86.300799 
L 738.780627 -84.320492 
L 740.248018 -82.379705 
L 741.715409 -80.479931 
L 743.1828 -78.62242 
L 744.650191 -76.808172 
L 746.117582 -75.037903 
L 747.584973 -73.312027 
L 749.052364 -71.630625 
L 750.519755 -69.99342 
L 751.987146 -68.399753 
L 753.454537 -66.848567 
L 754.921928 -65.338405 
L 756.389319 -63.867428 
L 757.85671 -62.433454 
L 759.324101 -61.034033 
L 760.791492 -59.666545 
L 762.258883 -58.328342 
L 763.726274 -57.016914 
L 765.193665 -55.730079 
L 766.661056 -54.466182 
L 768.128447 -53.224299 
L 769.595838 -52.004402 
L 771.063229 -50.807496 
L 772.53062 -49.635685 
L 773.998011 -48.492172 
L 775.465402 -47.38116 
L 776.932793 -46.307682 
L 778.400184 -45.277345 
L 779.867575 -44.296016 
L 781.334966 -43.369465 
L 782.802357 -42.503009 
L 784.269748 -41.701162 
L 785.737139 -40.967354 
L 787.20453 -40.303706 
L 788.671921 -39.710903 
L 790.139312 -39.18817 
L 791.606703 -38.733329 
L 793.074094 -38.342953 
L 794.541485 -38.012576 
L 796.008876 -37.736955 
L 797.476267 -37.510341 
L 798.943658 -37.326754 
L 800.411049 -37.180237 
L 801.87844 -37.065059 
L 803.345831 -36.97589 
L 804.813222 -36.907911 
L 806.280613 -36.856885 
L 807.748004 -36.819175 
L 809.215395 -36.791741 
L 810.682786 -36.772094 
L 812.150177 -36.758244 
L 813.617568 -36.748635 
L 813.617568 -36.729688 
L 813.617568 -36.729688 
L 812.150177 -36.729688 
L 810.682786 -36.729688 
L 809.215395 -36.729688 
L 807.748004 -36.729688 
L 806.280613 -36.729688 
L 804.813222 -36.729688 
L 803.345831 -36.729688 
L 801.87844 -36.729688 
L 800.411049 -36.729688 
L 798.943658 -36.729688 
L 797.476267 -36.729688 
L 796.008876 -36.729688 
L 794.541485 -36.729688 
L 793.074094 -36.729688 
L 791.606703 -36.729688 
L 790.139312 -36.729688 
L 788.671921 -36.729688 
L 787.20453 -36.729688 
L 785.737139 -36.729688 
L 784.269748 -36.729688 
L 782.802357 -36.729688 
L 781.334966 -36.729688 
L 779.867575 -36.729688 
L 778.400184 -36.729688 
L 776.932793 -36.729688 
L 775.465402 -36.729688 
L 773.998011 -36.729688 
L 772.53062 -36.729688 
L 771.063229 -36.729688 
L 769.595838 -36.729688 
L 768.128447 -36.729688 
L 766.661056 -36.729688 
L 765.193665 -36.729688 
L 763.726274 -36.729688 
L 762.258883 -36.729688 
L 760.791492 -36.729688 
L 759.324101 -36.729688 
L 757.85671 -36.729688 
L 756.389319 -36.729688 
L 754.921928 -36.729688 
L 753.454537 -36.729688 
L 751.987146 -36.729688 
L 750.519755 -36.729688 
L 749.052364 -36.729688 
L 747.584973 -36.729688 
L 746.117582 -36.729688 
L 744.650191 -36.729688 
L 743.1828 -36.729688 
L 741.715409 -36.729688 
L 740.248018 -36.729688 
L 738.780627 -36.729688 
L 737.313236 -36.729688 
L 735.845845 -36.729688 
L 734.378454 -36.729688 
L 732.911063 -36.729688 
L 731.443672 -36.729688 
L 729.976281 -36.729688 
L 728.50889 -36.729688 
L 727.041499 -36.729688 
L 725.574108 -36.729688 
L 724.106717 -36.729688 
L 722.639326 -36.729688 
L 721.171935 -36.729688 
L 719.704544 -36.729688 
L 718.237153 -36.729688 
L 716.769762 -36.729688 
L 715.302371 -36.729688 
L 713.83498 -36.729688 
L 712.367589 -36.729688 
L 710.900198 -36.729688 
L 709.432807 -36.729688 
L 707.965416 -36.729688 
L 706.498025 -36.729688 
L 705.030634 -36.729688 
L 703.563243 -36.729688 
L 702.095852 -36.729688 
L 700.628461 -36.729688 
L 699.16107 -36.729688 
L 697.693679 -36.729688 
L 696.226288 -36.729688 
L 694.758897 -36.729688 
L 693.291506 -36.729688 
L 691.824115 -36.729688 
L 690.356724 -36.729688 
L 688.889333 -36.729688 
L 687.421942 -36.729688 
L 685.954551 -36.729688 
L 684.48716 -36.729688 
L 683.019769 -36.729688 
L 681.552378 -36.729688 
L 680.084987 -36.729688 
L 678.617596 -36.729688 
L 677.150205 -36.729688 
L 675.682814 -36.729688 
L 674.215423 -36.729688 
L 672.748032 -36.729688 
L 671.280641 -36.729688 
L 669.81325 -36.729688 
L 668.345859 -36.729688 
L 666.878468 -36.729688 
L 665.411077 -36.729688 
L 663.943686 -36.729688 
L 662.476295 -36.729688 
L 661.008904 -36.729688 
L 659.541513 -36.729688 
L 658.074122 -36.729688 
L 656.606731 -36.729688 
L 655.13934 -36.729688 
L 653.671949 -36.729688 
L 652.204558 -36.729688 
L 650.737167 -36.729688 
L 649.269776 -36.729688 
L 647.802385 -36.729688 
L 646.334994 -36.729688 
L 644.867603 -36.729688 
L 643.400212 -36.729688 
L 641.932821 -36.729688 
L 640.46543 -36.729688 
L 638.998039 -36.729688 
L 637.530648 -36.729688 
L 636.063257 -36.729688 
L 634.595866 -36.729688 
L 633.128475 -36.729688 
L 631.661084 -36.729688 
L 630.193693 -36.729688 
L 628.726302 -36.729688 
L 627.258911 -36.729688 
L 625.79152 -36.729688 
L 624.324129 -36.729688 
L 622.856738 -36.729688 
L 621.389347 -36.729688 
L 619.921956 -36.729688 
L 618.454565 -36.729688 
L 616.987174 -36.729688 
L 615.519783 -36.729688 
L 614.052392 -36.729688 
L 612.585001 -36.729688 
L 611.11761 -36.729688 
L 609.650219 -36.729688 
L 608.182828 -36.729688 
L 606.715437 -36.729688 
L 605.248046 -36.729688 
L 603.780655 -36.729688 
L 602.313264 -36.729688 
L 600.845873 -36.729688 
L 599.378482 -36.729688 
L 597.911091 -36.729688 
L 596.4437 -36.729688 
L 594.976309 -36.729688 
L 593.508918 -36.729688 
L 592.041527 -36.729688 
L 590.574136 -36.729688 
L 589.106745 -36.729688 
L 587.639354 -36.729688 
L 586.171963 -36.729688 
L 584.704572 -36.729688 
L 583.237181 -36.729688 
L 581.76979 -36.729688 
L 580.302399 -36.729688 
L 578.835008 -36.729688 
L 577.367617 -36.729688 
L 575.900226 -36.729688 
L 574.432835 -36.729688 
L 572.965444 -36.729688 
L 571.498053 -36.729688 
L 570.030662 -36.729688 
L 568.563271 -36.729688 
L 567.09588 -36.729688 
L 565.628489 -36.729688 
L 564.161098 -36.729688 
L 562.693707 -36.729688 
L 561.226316 -36.729688 
L 559.758925 -36.729688 
L 558.291534 -36.729688 
L 556.824143 -36.729688 
L 555.356752 -36.729688 
L 553.889361 -36.729688 
L 552.42197 -36.729688 
L 550.954579 -36.729688 
L 549.487188 -36.729688 
L 548.019797 -36.729688 
L 546.552406 -36.729688 
L 545.085015 -36.729688 
L 543.617624 -36.729688 
L 542.150233 -36.729688 
L 540.682842 -36.729688 
L 539.215451 -36.729688 
L 537.74806 -36.729688 
L 536.280669 -36.729688 
L 534.813278 -36.729688 
L 533.345887 -36.729688 
L 531.878496 -36.729688 
L 530.411105 -36.729688 
L 528.943714 -36.729688 
L 527.476323 -36.729688 
L 526.008932 -36.729688 
L 524.541541 -36.729688 
L 523.07415 -36.729688 
L 521.606759 -36.729688 
z
" style="stroke: #4c72b0; stroke-opacity: 0.2"/>
    </defs>
    <g>
     <use xlink:href="#m5c497da183" x="0" y="485.018437" style="fill: #4c72b0; fill-opacity: 0.2; stroke: #4c72b0; stroke-opacity: 0.2"/>
    </g>
   </g>
   <g id="FillBetweenPolyCollection_8">
    <defs>
     <path id="mb35c3c6a1d" d="M 521.606759 -36.747501 
L 521.606759 -36.729688 
L 523.07415 -36.729688 
L 524.541541 -36.729688 
L 526.008932 -36.729688 
L 527.476323 -36.729688 
L 528.943714 -36.729688 
L 530.411105 -36.729688 
L 531.878496 -36.729688 
L 533.345887 -36.729688 
L 534.813278 -36.729688 
L 536.280669 -36.729688 
L 537.74806 -36.729688 
L 539.215451 -36.729688 
L 540.682842 -36.729688 
L 542.150233 -36.729688 
L 543.617624 -36.729688 
L 545.085015 -36.729688 
L 546.552406 -36.729688 
L 548.019797 -36.729688 
L 549.487188 -36.729688 
L 550.954579 -36.729688 
L 552.42197 -36.729688 
L 553.889361 -36.729688 
L 555.356752 -36.729688 
L 556.824143 -36.729688 
L 558.291534 -36.729688 
L 559.758925 -36.729688 
L 561.226316 -36.729688 
L 562.693707 -36.729688 
L 564.161098 -36.729688 
L 565.628489 -36.729688 
L 567.09588 -36.729688 
L 568.563271 -36.729688 
L 570.030662 -36.729688 
L 571.498053 -36.729688 
L 572.965444 -36.729688 
L 574.432835 -36.729688 
L 575.900226 -36.729688 
L 577.367617 -36.729688 
L 578.835008 -36.729688 
L 580.302399 -36.729688 
L 581.76979 -36.729688 
L 583.237181 -36.729688 
L 584.704572 -36.729688 
L 586.171963 -36.729688 
L 587.639354 -36.729688 
L 589.106745 -36.729688 
L 590.574136 -36.729688 
L 592.041527 -36.729688 
L 593.508918 -36.729688 
L 594.976309 -36.729688 
L 596.4437 -36.729688 
L 597.911091 -36.729688 
L 599.378482 -36.729688 
L 600.845873 -36.729688 
L 602.313264 -36.729688 
L 603.780655 -36.729688 
L 605.248046 -36.729688 
L 606.715437 -36.729688 
L 608.182828 -36.729688 
L 609.650219 -36.729688 
L 611.11761 -36.729688 
L 611.380976 -36.729688 
L 611.380976 -103.389421 
L 611.380976 -103.389421 
L 611.11761 -102.991205 
L 609.650219 -100.77562 
L 608.182828 -98.580939 
L 606.715437 -96.410147 
L 605.248046 -94.266067 
L 603.780655 -92.151349 
L 602.313264 -90.06847 
L 600.845873 -88.019726 
L 599.378482 -86.007229 
L 597.911091 -84.032902 
L 596.4437 -82.098474 
L 594.976309 -80.205465 
L 593.508918 -78.355185 
L 592.041527 -76.548713 
L 590.574136 -74.786883 
L 589.106745 -73.070266 
L 587.639354 -71.399146 
L 586.171963 -69.773494 
L 584.704572 -68.192948 
L 583.237181 -66.656788 
L 581.76979 -65.163928 
L 580.302399 -63.712908 
L 578.835008 -62.301915 
L 577.367617 -60.928815 
L 575.900226 -59.591223 
L 574.432835 -58.286595 
L 572.965444 -57.012352 
L 571.498053 -55.766037 
L 570.030662 -54.545486 
L 568.563271 -53.349016 
L 567.09588 -52.175606 
L 565.628489 -51.025056 
L 564.161098 -49.898113 
L 562.693707 -48.796535 
L 561.226316 -47.72309 
L 559.758925 -46.681476 
L 558.291534 -45.676162 
L 556.824143 -44.712157 
L 555.356752 -43.794722 
L 553.889361 -42.929046 
L 552.42197 -42.119914 
L 550.954579 -41.37139 
L 549.487188 -40.686549 
L 548.019797 -40.067275 
L 546.552406 -39.514138 
L 545.085015 -39.026367 
L 543.617624 -38.601904 
L 542.150233 -38.237539 
L 540.682842 -37.929109 
L 539.215451 -37.671727 
L 537.74806 -37.460044 
L 536.280669 -37.288494 
L 534.813278 -37.151531 
L 533.345887 -37.04382 
L 531.878496 -36.960397 
L 530.411105 -36.896769 
L 528.943714 -36.848987 
L 527.476323 -36.813658 
L 526.008932 -36.787942 
L 524.541541 -36.769517 
L 523.07415 -36.756522 
L 521.606759 -36.747501 
z
"/>
    </defs>
    <g>
     <use xlink:href="#mb35c3c6a1d" x="0" y="485.018437" style="fill: #4c72b0; fill-opacity: 0.3"/>
    </g>
   </g>
   <g id="line2d_39">
    <path d="M 521.606759 448.270936 
L 530.411105 448.121668 
L 534.813278 447.866907 
L 539.215451 447.34671 
L 542.150233 446.780898 
L 545.085015 445.992071 
L 548.019797 444.951163 
L 550.954579 443.647048 
L 553.889361 442.089392 
L 556.824143 440.306281 
L 561.226316 437.295348 
L 565.628489 433.993381 
L 571.498053 429.252401 
L 575.900226 425.427214 
L 580.302399 421.305529 
L 584.704572 416.82549 
L 589.106745 411.948171 
L 593.508918 406.663253 
L 597.911091 400.985535 
L 602.313264 394.949967 
L 608.182828 386.437499 
L 615.519783 375.287307 
L 628.726302 355.09484 
L 633.128475 348.74327 
L 637.530648 342.778039 
L 640.46543 339.074216 
L 643.400212 335.628314 
L 646.334994 332.472493 
L 649.269776 329.63684 
L 652.204558 327.148897 
L 655.13934 325.033206 
L 658.074122 323.310917 
L 661.008904 321.99943 
L 663.943686 321.112104 
L 666.878468 320.658031 
L 669.81325 320.64188 
L 672.748032 321.063817 
L 675.682814 321.919503 
L 678.617596 323.200167 
L 681.552378 324.892758 
L 684.48716 326.980164 
L 687.421942 329.4415 
L 690.356724 332.252459 
L 693.291506 335.385708 
L 696.226288 338.811328 
L 699.16107 342.497297 
L 703.563243 348.440503 
L 707.965416 354.775899 
L 713.83498 363.626987 
L 729.976281 388.290297 
L 735.845845 396.699522 
L 740.248018 402.638732 
L 744.650191 408.210266 
L 749.052364 413.387813 
L 753.454537 418.16987 
L 757.85671 422.584983 
L 762.258883 426.690095 
L 768.128447 431.794138 
L 772.53062 435.382752 
L 776.932793 438.710756 
L 779.867575 440.722422 
L 782.802357 442.515429 
L 785.737139 444.051083 
L 788.671921 445.307534 
L 791.606703 446.285108 
L 794.541485 447.005861 
L 797.476267 447.508097 
L 801.87844 447.953379 
L 807.748004 448.199262 
L 813.617568 448.269803 
L 813.617568 448.269803 
" style="fill: none; stroke: #4c72b0; stroke-width: 1.5; stroke-linecap: round"/>
   </g>
   <g id="line2d_40">
    <path d="M 7.2 448.28875 
L 813.6 448.28875 
" style="fill: none; stroke: #808080; stroke-width: 0.5; stroke-linecap: round"/>
   </g>
   <g id="text_19">
    <text style="font-size: 10px; font-family: 'Arial', 'DejaVu Sans', 'Liberation Sans', 'Bitstream Vera Sans', sans-serif; text-anchor: middle" x="668.392824" y="446.184062" transform="rotate(-0 668.392824 446.184062)">Sweden (2026)</text>
   </g>
  </g>
  <g id="line2d_41">
   <path d="M 399.850143 448.28875 
L 399.850143 24.45375 
" style="fill: none; stroke-dasharray: 0.8,1.32; stroke-dashoffset: 0; stroke: #d3d3d3; stroke-width: 0.8"/>
  </g>
  <g id="line2d_42">
   <path d="M 611.380976 448.28875 
L 611.380976 24.45375 
" style="fill: none; stroke-dasharray: 0.8,1.32; stroke-dashoffset: 0; stroke: #d3d3d3; stroke-width: 0.8"/>
  </g>
 </g>
</svg>
