<?xml version="1.0" encoding="utf-8" standalone="no"?>
<!DOCTYPE svg PUBLIC "-//W3C//DTD SVG 1.1//EN"
  "http://www.w3.org/Graphics/SVG/1.1/DTD/svg11.dtd">
<svg xmlns:xlink="http://www.w3.org/1999/xlink" width="656.11398pt" height="183.151437pt" viewBox="0 0 656.11398 183.151437" xmlns="http://www.w3.org/2000/svg" version="1.1">
 <metadata>
  <rdf:RDF xmlns:dc="http://purl.org/dc/elements/1.1/" xmlns:cc="http://creativecommons.org/ns#" xmlns:rdf="http://www.w3.org/1999/02/22-rdf-syntax-ns#">
   <cc:Work>
    <dc:type rdf:resource="http://purl.org/dc/dcmitype/StillImage"/>
    <dc:date>2026-05-28T14:12:57.976699</dc:date>
    <dc:format>image/svg+xml</dc:format>
    <dc:creator>
     <cc:Agent>
      <dc:title>Matplotlib v3.10.9, https://matplotlib.org/</dc:title>
     </cc:Agent>
    </dc:creator>
   </cc:Work>
  </rdf:RDF>
 </metadata>
 <defs>
  <style type="text/css">*{stroke-linejoin: round; stroke-linecap: butt}</style>
 </defs>
 <g id="figure_1">
  <g id="patch_1">
   <path d="M 0 183.151437 
L 656.11398 183.151437 
L 656.11398 0 
L 0 0 
z
" style="fill: #ffffff"/>
  </g>
  <g id="axes_1">
   <g id="patch_2">
    <path d="M 7.2 146.42175 
L 648.9 146.42175 
L 648.9 24.45375 
L 7.2 24.45375 
z
" style="fill: #ffffff"/>
   </g>
   <g id="matplotlib.axis_1">
    <g id="xtick_1">
     <g id="line2d_1">
      <defs>
       <path id="m99e2590894" d="M 0 0 
L 0 3.5 
" style="stroke: #262626; stroke-width: 0.8"/>
      </defs>
      <g>
       <use xlink:href="#m99e2590894" x="41.373646" y="146.42175" style="fill: #262626; stroke: #262626; stroke-width: 0.8"/>
      </g>
     </g>
     <g id="text_1">
      <text style="font-size: 10px; font-family: 'Arial', 'DejaVu Sans', 'Liberation Sans', 'Bitstream Vera Sans', sans-serif; text-anchor: middle; fill: #262626" x="41.373646" y="160.579562" transform="rotate(-0 41.373646 160.579562)">$2</text>
     </g>
    </g>
    <g id="xtick_2">
     <g id="line2d_2">
      <g>
       <use xlink:href="#m99e2590894" x="108.357912" y="146.42175" style="fill: #262626; stroke: #262626; stroke-width: 0.8"/>
      </g>
     </g>
     <g id="text_2">
      <text style="font-size: 10px; font-family: 'Arial', 'DejaVu Sans', 'Liberation Sans', 'Bitstream Vera Sans', sans-serif; text-anchor: middle; fill: #262626" x="108.357912" y="160.579562" transform="rotate(-0 108.357912 160.579562)">$5</text>
     </g>
    </g>
    <g id="xtick_3">
     <g id="line2d_3">
      <g>
       <use xlink:href="#m99e2590894" x="159.029554" y="146.42175" style="fill: #262626; stroke: #262626; stroke-width: 0.8"/>
      </g>
     </g>
     <g id="text_3">
      <text style="font-size: 10px; font-family: 'Arial', 'DejaVu Sans', 'Liberation Sans', 'Bitstream Vera Sans', sans-serif; text-anchor: middle; fill: #262626" x="159.029554" y="160.579562" transform="rotate(-0 159.029554 160.579562)">$10</text>
     </g>
    </g>
    <g id="xtick_4">
     <g id="line2d_4">
      <g>
       <use xlink:href="#m99e2590894" x="209.701195" y="146.42175" style="fill: #262626; stroke: #262626; stroke-width: 0.8"/>
      </g>
     </g>
     <g id="text_4">
      <text style="font-size: 10px; font-family: 'Arial', 'DejaVu Sans', 'Liberation Sans', 'Bitstream Vera Sans', sans-serif; text-anchor: middle; fill: #262626" x="209.701195" y="160.579562" transform="rotate(-0 209.701195 160.579562)">$20</text>
     </g>
    </g>
    <g id="xtick_5">
     <g id="line2d_5">
      <g>
       <use xlink:href="#m99e2590894" x="276.685462" y="146.42175" style="fill: #262626; stroke: #262626; stroke-width: 0.8"/>
      </g>
     </g>
     <g id="text_5">
      <text style="font-size: 10px; font-family: 'Arial', 'DejaVu Sans', 'Liberation Sans', 'Bitstream Vera Sans', sans-serif; text-anchor: middle; fill: #262626" x="276.685462" y="160.579562" transform="rotate(-0 276.685462 160.579562)">$50</text>
     </g>
    </g>
    <g id="xtick_6">
     <g id="line2d_6">
      <g>
       <use xlink:href="#m99e2590894" x="327.357103" y="146.42175" style="fill: #262626; stroke: #262626; stroke-width: 0.8"/>
      </g>
     </g>
     <g id="text_6">
      <text style="font-size: 10px; font-family: 'Arial', 'DejaVu Sans', 'Liberation Sans', 'Bitstream Vera Sans', sans-serif; text-anchor: middle; fill: #262626" x="327.357103" y="160.579562" transform="rotate(-0 327.357103 160.579562)">$100</text>
     </g>
    </g>
    <g id="xtick_7">
     <g id="line2d_7">
      <g>
       <use xlink:href="#m99e2590894" x="378.028745" y="146.42175" style="fill: #262626; stroke: #262626; stroke-width: 0.8"/>
      </g>
     </g>
     <g id="text_7">
      <text style="font-size: 10px; font-family: 'Arial', 'DejaVu Sans', 'Liberation Sans', 'Bitstream Vera Sans', sans-serif; text-anchor: middle; fill: #262626" x="378.028745" y="160.579562" transform="rotate(-0 378.028745 160.579562)">$200</text>
     </g>
    </g>
    <g id="xtick_8">
     <g id="line2d_8">
      <g>
       <use xlink:href="#m99e2590894" x="445.013011" y="146.42175" style="fill: #262626; stroke: #262626; stroke-width: 0.8"/>
      </g>
     </g>
     <g id="text_8">
      <text style="font-size: 10px; font-family: 'Arial', 'DejaVu Sans', 'Liberation Sans', 'Bitstream Vera Sans', sans-serif; text-anchor: middle; fill: #262626" x="445.013011" y="160.579562" transform="rotate(-0 445.013011 160.579562)">$500</text>
     </g>
    </g>
    <g id="xtick_9">
     <g id="line2d_9">
      <g>
       <use xlink:href="#m99e2590894" x="495.684653" y="146.42175" style="fill: #262626; stroke: #262626; stroke-width: 0.8"/>
      </g>
     </g>
     <g id="text_9">
      <text style="font-size: 10px; font-family: 'Arial', 'DejaVu Sans', 'Liberation Sans', 'Bitstream Vera Sans', sans-serif; text-anchor: middle; fill: #262626" x="495.684653" y="160.579562" transform="rotate(-0 495.684653 160.579562)">$1000</text>
     </g>
    </g>
    <g id="xtick_10">
     <g id="line2d_10">
      <g>
       <use xlink:href="#m99e2590894" x="546.356294" y="146.42175" style="fill: #262626; stroke: #262626; stroke-width: 0.8"/>
      </g>
     </g>
     <g id="text_10">
      <text style="font-size: 10px; font-family: 'Arial', 'DejaVu Sans', 'Liberation Sans', 'Bitstream Vera Sans', sans-serif; text-anchor: middle; fill: #262626" x="546.356294" y="160.579562" transform="rotate(-0 546.356294 160.579562)">$2000</text>
     </g>
    </g>
    <g id="xtick_11">
     <g id="line2d_11">
      <g>
       <use xlink:href="#m99e2590894" x="613.340561" y="146.42175" style="fill: #262626; stroke: #262626; stroke-width: 0.8"/>
      </g>
     </g>
     <g id="text_11">
      <text style="font-size: 10px; font-family: 'Arial', 'DejaVu Sans', 'Liberation Sans', 'Bitstream Vera Sans', sans-serif; text-anchor: middle; fill: #262626" x="613.340561" y="160.579562" transform="rotate(-0 613.340561 160.579562)">$5000</text>
     </g>
    </g>
    <g id="xtick_12">
     <g id="line2d_12">
      <defs>
       <path id="m909c8cec03" d="M 0 0 
L 0 2 
" style="stroke: #262626; stroke-width: 0.6"/>
      </defs>
      <g>
       <use xlink:href="#m909c8cec03" x="71.014656" y="146.42175" style="fill: #262626; stroke: #262626; stroke-width: 0.6"/>
      </g>
     </g>
    </g>
    <g id="xtick_13">
     <g id="line2d_13">
      <g>
       <use xlink:href="#m909c8cec03" x="92.045287" y="146.42175" style="fill: #262626; stroke: #262626; stroke-width: 0.6"/>
      </g>
     </g>
    </g>
    <g id="xtick_14">
     <g id="line2d_14">
      <g>
       <use xlink:href="#m909c8cec03" x="121.686297" y="146.42175" style="fill: #262626; stroke: #262626; stroke-width: 0.6"/>
      </g>
     </g>
    </g>
    <g id="xtick_15">
     <g id="line2d_15">
      <g>
       <use xlink:href="#m909c8cec03" x="132.955286" y="146.42175" style="fill: #262626; stroke: #262626; stroke-width: 0.6"/>
      </g>
     </g>
    </g>
    <g id="xtick_16">
     <g id="line2d_16">
      <g>
       <use xlink:href="#m909c8cec03" x="142.716929" y="146.42175" style="fill: #262626; stroke: #262626; stroke-width: 0.6"/>
      </g>
     </g>
    </g>
    <g id="xtick_17">
     <g id="line2d_17">
      <g>
       <use xlink:href="#m909c8cec03" x="151.327307" y="146.42175" style="fill: #262626; stroke: #262626; stroke-width: 0.6"/>
      </g>
     </g>
    </g>
    <g id="xtick_18">
     <g id="line2d_18">
      <g>
       <use xlink:href="#m909c8cec03" x="239.342205" y="146.42175" style="fill: #262626; stroke: #262626; stroke-width: 0.6"/>
      </g>
     </g>
    </g>
    <g id="xtick_19">
     <g id="line2d_19">
      <g>
       <use xlink:href="#m909c8cec03" x="260.372837" y="146.42175" style="fill: #262626; stroke: #262626; stroke-width: 0.6"/>
      </g>
     </g>
    </g>
    <g id="xtick_20">
     <g id="line2d_20">
      <g>
       <use xlink:href="#m909c8cec03" x="290.013847" y="146.42175" style="fill: #262626; stroke: #262626; stroke-width: 0.6"/>
      </g>
     </g>
    </g>
    <g id="xtick_21">
     <g id="line2d_21">
      <g>
       <use xlink:href="#m909c8cec03" x="301.282836" y="146.42175" style="fill: #262626; stroke: #262626; stroke-width: 0.6"/>
      </g>
     </g>
    </g>
    <g id="xtick_22">
     <g id="line2d_22">
      <g>
       <use xlink:href="#m909c8cec03" x="311.044478" y="146.42175" style="fill: #262626; stroke: #262626; stroke-width: 0.6"/>
      </g>
     </g>
    </g>
    <g id="xtick_23">
     <g id="line2d_23">
      <g>
       <use xlink:href="#m909c8cec03" x="319.654857" y="146.42175" style="fill: #262626; stroke: #262626; stroke-width: 0.6"/>
      </g>
     </g>
    </g>
    <g id="xtick_24">
     <g id="line2d_24">
      <g>
       <use xlink:href="#m909c8cec03" x="407.669755" y="146.42175" style="fill: #262626; stroke: #262626; stroke-width: 0.6"/>
      </g>
     </g>
    </g>
    <g id="xtick_25">
     <g id="line2d_25">
      <g>
       <use xlink:href="#m909c8cec03" x="428.700386" y="146.42175" style="fill: #262626; stroke: #262626; stroke-width: 0.6"/>
      </g>
     </g>
    </g>
    <g id="xtick_26">
     <g id="line2d_26">
      <g>
       <use xlink:href="#m909c8cec03" x="458.341396" y="146.42175" style="fill: #262626; stroke: #262626; stroke-width: 0.6"/>
      </g>
     </g>
    </g>
    <g id="xtick_27">
     <g id="line2d_27">
      <g>
       <use xlink:href="#m909c8cec03" x="469.610385" y="146.42175" style="fill: #262626; stroke: #262626; stroke-width: 0.6"/>
      </g>
     </g>
    </g>
    <g id="xtick_28">
     <g id="line2d_28">
      <g>
       <use xlink:href="#m909c8cec03" x="479.372028" y="146.42175" style="fill: #262626; stroke: #262626; stroke-width: 0.6"/>
      </g>
     </g>
    </g>
    <g id="xtick_29">
     <g id="line2d_29">
      <g>
       <use xlink:href="#m909c8cec03" x="487.982406" y="146.42175" style="fill: #262626; stroke: #262626; stroke-width: 0.6"/>
      </g>
     </g>
    </g>
    <g id="xtick_30">
     <g id="line2d_30">
      <g>
       <use xlink:href="#m909c8cec03" x="575.997304" y="146.42175" style="fill: #262626; stroke: #262626; stroke-width: 0.6"/>
      </g>
     </g>
    </g>
    <g id="xtick_31">
     <g id="line2d_31">
      <g>
       <use xlink:href="#m909c8cec03" x="597.027936" y="146.42175" style="fill: #262626; stroke: #262626; stroke-width: 0.6"/>
      </g>
     </g>
    </g>
    <g id="xtick_32">
     <g id="line2d_32">
      <g>
       <use xlink:href="#m909c8cec03" x="626.668946" y="146.42175" style="fill: #262626; stroke: #262626; stroke-width: 0.6"/>
      </g>
     </g>
    </g>
    <g id="xtick_33">
     <g id="line2d_33">
      <g>
       <use xlink:href="#m909c8cec03" x="637.937935" y="146.42175" style="fill: #262626; stroke: #262626; stroke-width: 0.6"/>
      </g>
     </g>
    </g>
    <g id="xtick_34">
     <g id="line2d_34">
      <g>
       <use xlink:href="#m909c8cec03" x="647.699577" y="146.42175" style="fill: #262626; stroke: #262626; stroke-width: 0.6"/>
      </g>
     </g>
    </g>
    <g id="text_12">
     <text style="font-size: 10px; font-family: 'Arial', 'DejaVu Sans', 'Liberation Sans', 'Bitstream Vera Sans', sans-serif; text-anchor: middle; fill: #262626" x="328.05" y="173.84675" transform="rotate(-0 328.05 173.84675)">Income or consumption (month)</text>
    </g>
   </g>
   <g id="matplotlib.axis_2"/>
   <g id="FillBetweenPolyCollection_1">
    <defs>
     <path id="mfa9081a91f" d="M 416.543771 -36.729687 
L 416.543771 -36.745892 
L 417.711461 -36.754098 
L 418.87915 -36.76592 
L 420.046839 -36.782681 
L 421.214529 -36.806073 
L 422.382218 -36.838211 
L 423.549908 -36.881678 
L 424.717597 -36.939558 
L 425.885287 -37.015447 
L 427.052976 -37.113429 
L 428.220666 -37.238021 
L 429.388355 -37.394076 
L 430.556045 -37.58664 
L 431.723734 -37.820774 
L 432.891424 -38.101346 
L 434.059113 -38.4328 
L 435.226803 -38.818924 
L 436.394492 -39.262639 
L 437.562182 -39.765815 
L 438.729871 -40.329154 
L 439.897561 -40.952138 
L 441.06525 -41.633053 
L 442.23294 -42.369102 
L 443.400629 -43.156588 
L 444.568319 -43.991158 
L 445.736008 -44.868091 
L 446.903698 -45.782602 
L 448.071387 -46.730135 
L 449.239077 -47.706623 
L 450.406766 -48.708704 
L 451.574456 -49.733858 
L 452.742145 -50.780487 
L 453.909835 -51.847912 
L 455.077524 -52.936313 
L 456.245214 -54.04662 
L 457.412903 -55.180365 
L 458.580593 -56.339514 
L 459.748282 -57.526305 
L 460.915972 -58.743082 
L 462.083661 -59.992159 
L 463.251351 -61.275708 
L 464.41904 -62.595667 
L 465.58673 -63.953688 
L 466.754419 -65.351097 
L 467.922109 -66.788884 
L 469.089798 -68.267703 
L 470.257488 -69.787883 
L 471.425177 -71.34945 
L 472.592867 -72.952146 
L 473.760556 -74.595453 
L 474.928246 -76.27861 
L 476.095935 -78.000637 
L 477.263625 -79.760343 
L 478.431314 -81.556342 
L 479.599004 -83.387065 
L 480.766693 -85.250761 
L 481.934383 -87.145509 
L 483.102072 -89.069219 
L 484.269762 -91.01964 
L 485.437451 -92.994359 
L 486.605141 -94.990811 
L 487.77283 -97.006278 
L 488.94052 -99.037895 
L 490.108209 -101.08266 
L 491.275899 -103.137434 
L 492.443588 -105.198949 
L 493.611278 -107.263819 
L 494.778967 -109.328544 
L 495.946656 -111.38952 
L 497.114346 -113.443051 
L 498.282035 -115.485354 
L 499.449725 -117.512575 
L 500.617414 -119.520799 
L 501.785104 -121.50606 
L 502.952793 -123.464357 
L 504.120483 -125.391662 
L 505.288172 -127.283939 
L 506.455862 -129.137155 
L 507.623551 -130.947295 
L 508.791241 -132.710373 
L 509.95893 -134.422453 
L 511.12662 -136.079656 
L 512.294309 -137.678181 
L 513.461999 -139.214315 
L 514.629688 -140.68445 
L 515.797378 -142.085094 
L 516.965067 -143.412889 
L 518.132757 -144.664622 
L 519.300446 -145.837236 
L 520.468136 -146.927848 
L 521.635825 -147.933753 
L 522.803515 -148.852443 
L 523.971204 -149.681613 
L 525.138894 -150.41917 
L 526.306583 -151.063245 
L 527.474273 -151.6122 
L 528.641962 -152.064631 
L 529.809652 -152.41938 
L 530.977341 -152.675536 
L 532.145031 -152.83244 
L 533.31272 -152.889687 
L 534.48041 -152.847132 
L 535.648099 -152.704883 
L 536.815789 -152.463306 
L 537.983478 -152.123023 
L 539.151168 -151.684908 
L 540.318857 -151.150084 
L 541.486547 -150.519917 
L 542.654236 -149.796012 
L 543.821926 -148.980206 
L 544.989615 -148.074557 
L 546.157305 -147.08134 
L 547.324994 -146.003036 
L 548.492684 -144.842318 
L 549.660373 -143.602047 
L 550.828063 -142.285253 
L 551.995752 -140.895127 
L 553.163442 -139.435009 
L 554.331131 -137.908369 
L 555.498821 -136.318799 
L 556.66651 -134.669999 
L 557.8342 -132.965758 
L 559.001889 -131.209943 
L 560.169579 -129.406484 
L 561.337268 -127.559359 
L 562.504958 -125.67258 
L 563.672647 -123.75018 
L 564.840337 -121.796194 
L 566.008026 -119.814651 
L 567.175716 -117.809558 
L 568.343405 -115.784887 
L 569.511094 -113.744561 
L 570.678784 -111.692445 
L 571.846473 -109.632331 
L 573.014163 -107.567929 
L 574.181852 -105.502858 
L 575.349542 -103.440633 
L 576.517231 -101.384658 
L 577.684921 -99.338218 
L 578.85261 -97.304471 
L 580.0203 -95.286439 
L 581.187989 -93.287007 
L 582.355679 -91.308911 
L 583.523368 -89.354738 
L 584.691058 -87.426916 
L 585.858747 -85.527713 
L 587.026437 -83.659231 
L 588.194126 -81.823396 
L 589.361816 -80.021956 
L 590.529505 -78.256467 
L 591.697195 -76.528285 
L 592.864884 -74.838551 
L 594.032574 -73.18817 
L 595.200263 -71.577797 
L 596.367953 -70.007807 
L 597.535642 -68.478274 
L 598.703332 -66.988946 
L 599.871021 -65.539224 
L 601.038711 -64.128145 
L 602.2064 -62.754385 
L 603.37409 -61.416271 
L 604.541779 -60.111818 
L 605.709469 -58.838796 
L 606.877158 -57.594823 
L 608.044848 -56.377491 
L 609.212537 -55.184515 
L 610.380227 -54.01391 
L 611.547916 -52.864172 
L 612.715606 -51.734459 
L 613.883295 -50.624747 
L 615.050985 -49.535948 
L 616.218674 -48.469979 
L 617.386364 -47.429751 
L 618.554053 -46.419089 
L 619.721743 -45.44257 
L 620.889432 -44.505296 
L 622.057122 -43.612604 
L 623.224811 -42.769742 
L 624.392501 -41.981546 
L 625.56019 -41.252125 
L 626.72788 -40.584596 
L 627.895569 -39.98089 
L 629.063259 -39.441632 
L 630.230948 -38.966113 
L 631.398638 -38.552354 
L 632.566327 -38.197238 
L 633.734017 -37.896702 
L 634.901706 -37.645976 
L 636.069396 -37.43983 
L 637.237085 -37.272826 
L 638.404775 -37.139542 
L 639.572464 -37.034767 
L 640.740154 -36.953652 
L 641.907843 -36.891814 
L 643.075533 -36.845396 
L 644.243222 -36.811092 
L 645.410911 -36.786136 
L 646.578601 -36.768263 
L 647.74629 -36.755665 
L 648.91398 -36.746923 
L 648.91398 -36.729687 
L 648.91398 -36.729687 
L 647.74629 -36.729687 
L 646.578601 -36.729687 
L 645.410911 -36.729687 
L 644.243222 -36.729687 
L 643.075533 -36.729687 
L 641.907843 -36.729687 
L 640.740154 -36.729687 
L 639.572464 -36.729687 
L 638.404775 -36.729687 
L 637.237085 -36.729687 
L 636.069396 -36.729687 
L 634.901706 -36.729687 
L 633.734017 -36.729687 
L 632.566327 -36.729687 
L 631.398638 -36.729687 
L 630.230948 -36.729687 
L 629.063259 -36.729687 
L 627.895569 -36.729687 
L 626.72788 -36.729687 
L 625.56019 -36.729687 
L 624.392501 -36.729687 
L 623.224811 -36.729687 
L 622.057122 -36.729687 
L 620.889432 -36.729687 
L 619.721743 -36.729687 
L 618.554053 -36.729687 
L 617.386364 -36.729687 
L 616.218674 -36.729687 
L 615.050985 -36.729687 
L 613.883295 -36.729687 
L 612.715606 -36.729687 
L 611.547916 -36.729687 
L 610.380227 -36.729687 
L 609.212537 -36.729687 
L 608.044848 -36.729687 
L 606.877158 -36.729687 
L 605.709469 -36.729687 
L 604.541779 -36.729687 
L 603.37409 -36.729687 
L 602.2064 -36.729687 
L 601.038711 -36.729687 
L 599.871021 -36.729687 
L 598.703332 -36.729687 
L 597.535642 -36.729687 
L 596.367953 -36.729687 
L 595.200263 -36.729687 
L 594.032574 -36.729687 
L 592.864884 -36.729687 
L 591.697195 -36.729687 
L 590.529505 -36.729687 
L 589.361816 -36.729687 
L 588.194126 -36.729687 
L 587.026437 -36.729687 
L 585.858747 -36.729687 
L 584.691058 -36.729687 
L 583.523368 -36.729687 
L 582.355679 -36.729687 
L 581.187989 -36.729687 
L 580.0203 -36.729687 
L 578.85261 -36.729687 
L 577.684921 -36.729687 
L 576.517231 -36.729687 
L 575.349542 -36.729687 
L 574.181852 -36.729687 
L 573.014163 -36.729687 
L 571.846473 -36.729687 
L 570.678784 -36.729687 
L 569.511094 -36.729687 
L 568.343405 -36.729687 
L 567.175716 -36.729687 
L 566.008026 -36.729687 
L 564.840337 -36.729687 
L 563.672647 -36.729687 
L 562.504958 -36.729687 
L 561.337268 -36.729687 
L 560.169579 -36.729687 
L 559.001889 -36.729687 
L 557.8342 -36.729687 
L 556.66651 -36.729687 
L 555.498821 -36.729687 
L 554.331131 -36.729687 
L 553.163442 -36.729687 
L 551.995752 -36.729687 
L 550.828063 -36.729687 
L 549.660373 -36.729687 
L 548.492684 -36.729687 
L 547.324994 -36.729687 
L 546.157305 -36.729687 
L 544.989615 -36.729687 
L 543.821926 -36.729687 
L 542.654236 -36.729687 
L 541.486547 -36.729687 
L 540.318857 -36.729687 
L 539.151168 -36.729687 
L 537.983478 -36.729687 
L 536.815789 -36.729687 
L 535.648099 -36.729687 
L 534.48041 -36.729687 
L 533.31272 -36.729687 
L 532.145031 -36.729687 
L 530.977341 -36.729687 
L 529.809652 -36.729687 
L 528.641962 -36.729687 
L 527.474273 -36.729687 
L 526.306583 -36.729687 
L 525.138894 -36.729687 
L 523.971204 -36.729687 
L 522.803515 -36.729687 
L 521.635825 -36.729687 
L 520.468136 -36.729687 
L 519.300446 -36.729687 
L 518.132757 -36.729687 
L 516.965067 -36.729687 
L 515.797378 -36.729687 
L 514.629688 -36.729687 
L 513.461999 -36.729687 
L 512.294309 -36.729687 
L 511.12662 -36.729687 
L 509.95893 -36.729687 
L 508.791241 -36.729687 
L 507.623551 -36.729687 
L 506.455862 -36.729687 
L 505.288172 -36.729687 
L 504.120483 -36.729687 
L 502.952793 -36.729687 
L 501.785104 -36.729687 
L 500.617414 -36.729687 
L 499.449725 -36.729687 
L 498.282035 -36.729687 
L 497.114346 -36.729687 
L 495.946656 -36.729687 
L 494.778967 -36.729687 
L 493.611278 -36.729687 
L 492.443588 -36.729687 
L 491.275899 -36.729687 
L 490.108209 -36.729687 
L 488.94052 -36.729687 
L 487.77283 -36.729687 
L 486.605141 -36.729687 
L 485.437451 -36.729687 
L 484.269762 -36.729687 
L 483.102072 -36.729687 
L 481.934383 -36.729687 
L 480.766693 -36.729687 
L 479.599004 -36.729687 
L 478.431314 -36.729687 
L 477.263625 -36.729687 
L 476.095935 -36.729687 
L 474.928246 -36.729687 
L 473.760556 -36.729687 
L 472.592867 -36.729687 
L 471.425177 -36.729687 
L 470.257488 -36.729687 
L 469.089798 -36.729687 
L 467.922109 -36.729687 
L 466.754419 -36.729687 
L 465.58673 -36.729687 
L 464.41904 -36.729687 
L 463.251351 -36.729687 
L 462.083661 -36.729687 
L 460.915972 -36.729687 
L 459.748282 -36.729687 
L 458.580593 -36.729687 
L 457.412903 -36.729687 
L 456.245214 -36.729687 
L 455.077524 -36.729687 
L 453.909835 -36.729687 
L 452.742145 -36.729687 
L 451.574456 -36.729687 
L 450.406766 -36.729687 
L 449.239077 -36.729687 
L 448.071387 -36.729687 
L 446.903698 -36.729687 
L 445.736008 -36.729687 
L 444.568319 -36.729687 
L 443.400629 -36.729687 
L 442.23294 -36.729687 
L 441.06525 -36.729687 
L 439.897561 -36.729687 
L 438.729871 -36.729687 
L 437.562182 -36.729687 
L 436.394492 -36.729687 
L 435.226803 -36.729687 
L 434.059113 -36.729687 
L 432.891424 -36.729687 
L 431.723734 -36.729687 
L 430.556045 -36.729687 
L 429.388355 -36.729687 
L 428.220666 -36.729687 
L 427.052976 -36.729687 
L 425.885287 -36.729687 
L 424.717597 -36.729687 
L 423.549908 -36.729687 
L 422.382218 -36.729687 
L 421.214529 -36.729687 
L 420.046839 -36.729687 
L 418.87915 -36.729687 
L 417.711461 -36.729687 
L 416.543771 -36.729687 
z
" style="stroke: #4c72b0; stroke-opacity: 0.2"/>
    </defs>
    <g>
     <use xlink:href="#mfa9081a91f" x="0" y="183.151437" style="fill: #4c72b0; fill-opacity: 0.2; stroke: #4c72b0; stroke-opacity: 0.2"/>
    </g>
   </g>
   <g id="FillBetweenPolyCollection_2">
    <defs>
     <path id="mddf1c9b31d" d="M 416.543771 -36.745892 
L 416.543771 -36.729687 
L 417.711461 -36.729687 
L 418.87915 -36.729687 
L 420.046839 -36.729687 
L 421.214529 -36.729687 
L 422.382218 -36.729687 
L 423.549908 -36.729687 
L 424.717597 -36.729687 
L 425.885287 -36.729687 
L 427.052976 -36.729687 
L 428.220666 -36.729687 
L 429.388355 -36.729687 
L 430.556045 -36.729687 
L 431.723734 -36.729687 
L 432.891424 -36.729687 
L 434.059113 -36.729687 
L 435.226803 -36.729687 
L 436.394492 -36.729687 
L 437.562182 -36.729687 
L 438.729871 -36.729687 
L 439.897561 -36.729687 
L 441.06525 -36.729687 
L 442.23294 -36.729687 
L 443.400629 -36.729687 
L 444.568319 -36.729687 
L 445.736008 -36.729687 
L 446.903698 -36.729687 
L 448.071387 -36.729687 
L 449.239077 -36.729687 
L 450.406766 -36.729687 
L 451.574456 -36.729687 
L 452.742145 -36.729687 
L 453.909835 -36.729687 
L 455.077524 -36.729687 
L 456.245214 -36.729687 
L 457.412903 -36.729687 
L 458.580593 -36.729687 
L 459.748282 -36.729687 
L 460.915972 -36.729687 
L 462.083661 -36.729687 
L 463.251351 -36.729687 
L 464.41904 -36.729687 
L 465.58673 -36.729687 
L 466.754419 -36.729687 
L 467.922109 -36.729687 
L 469.089798 -36.729687 
L 470.257488 -36.729687 
L 471.425177 -36.729687 
L 472.592867 -36.729687 
L 473.760556 -36.729687 
L 474.928246 -36.729687 
L 476.095935 -36.729687 
L 477.263625 -36.729687 
L 478.431314 -36.729687 
L 479.599004 -36.729687 
L 480.766693 -36.729687 
L 481.934383 -36.729687 
L 483.102072 -36.729687 
L 484.269762 -36.729687 
L 485.437451 -36.729687 
L 486.605141 -36.729687 
L 487.77283 -36.729687 
L 487.982406 -36.729687 
L 487.982406 -97.368526 
L 487.982406 -97.368526 
L 487.77283 -97.006278 
L 486.605141 -94.990811 
L 485.437451 -92.994359 
L 484.269762 -91.01964 
L 483.102072 -89.069219 
L 481.934383 -87.145509 
L 480.766693 -85.250761 
L 479.599004 -83.387065 
L 478.431314 -81.556342 
L 477.263625 -79.760343 
L 476.095935 -78.000637 
L 474.928246 -76.27861 
L 473.760556 -74.595453 
L 472.592867 -72.952146 
L 471.425177 -71.34945 
L 470.257488 -69.787883 
L 469.089798 -68.267703 
L 467.922109 -66.788884 
L 466.754419 -65.351097 
L 465.58673 -63.953688 
L 464.41904 -62.595667 
L 463.251351 -61.275708 
L 462.083661 -59.992159 
L 460.915972 -58.743082 
L 459.748282 -57.526305 
L 458.580593 -56.339514 
L 457.412903 -55.180365 
L 456.245214 -54.04662 
L 455.077524 -52.936313 
L 453.909835 -51.847912 
L 452.742145 -50.780487 
L 451.574456 -49.733858 
L 450.406766 -48.708704 
L 449.239077 -47.706623 
L 448.071387 -46.730135 
L 446.903698 -45.782602 
L 445.736008 -44.868091 
L 444.568319 -43.991158 
L 443.400629 -43.156588 
L 442.23294 -42.369102 
L 441.06525 -41.633053 
L 439.897561 -40.952138 
L 438.729871 -40.329154 
L 437.562182 -39.765815 
L 436.394492 -39.262639 
L 435.226803 -38.818924 
L 434.059113 -38.4328 
L 432.891424 -38.101346 
L 431.723734 -37.820774 
L 430.556045 -37.58664 
L 429.388355 -37.394076 
L 428.220666 -37.238021 
L 427.052976 -37.113429 
L 425.885287 -37.015447 
L 424.717597 -36.939558 
L 423.549908 -36.881678 
L 422.382218 -36.838211 
L 421.214529 -36.806073 
L 420.046839 -36.782681 
L 418.87915 -36.76592 
L 417.711461 -36.754098 
L 416.543771 -36.745892 
z
"/>
    </defs>
    <g>
     <use xlink:href="#mddf1c9b31d" x="0" y="183.151437" style="fill: #4c72b0; fill-opacity: 0.3"/>
    </g>
   </g>
   <g id="line2d_35">
    <path d="M 416.543771 146.405545 
L 423.549908 146.269759 
L 427.052976 146.038009 
L 430.556045 145.564798 
L 432.891424 145.050091 
L 435.226803 144.332513 
L 437.562182 143.385623 
L 439.897561 142.199299 
L 442.23294 140.782335 
L 444.568319 139.16028 
L 448.071387 136.421303 
L 452.742145 132.37095 
L 457.412903 127.971073 
L 460.915972 124.408356 
L 464.41904 120.55577 
L 467.922109 116.362553 
L 471.425177 111.801988 
L 474.928246 106.872827 
L 478.431314 101.595095 
L 483.102072 94.082218 
L 487.77283 86.14516 
L 505.288172 55.867498 
L 508.791241 50.441064 
L 512.294309 45.473256 
L 514.629688 42.466988 
L 516.965067 39.738548 
L 519.300446 37.314201 
L 521.635825 35.217684 
L 523.971204 33.469825 
L 526.306583 32.088192 
L 528.641962 31.086807 
L 530.977341 30.475902 
L 533.31272 30.26175 
L 535.648099 30.446555 
L 537.983478 31.028415 
L 540.318857 32.001354 
L 542.654236 33.355425 
L 544.989615 35.076881 
L 547.324994 37.148402 
L 549.660373 39.54939 
L 551.995752 42.25631 
L 554.331131 45.243069 
L 557.8342 50.185679 
L 561.337268 55.592079 
L 566.008026 63.336786 
L 573.014163 75.583508 
L 581.187989 89.864431 
L 585.858747 97.623724 
L 590.529505 104.894971 
L 594.032574 109.963268 
L 597.535642 114.673164 
L 601.038711 119.023293 
L 604.541779 123.03962 
L 608.044848 126.773947 
L 612.715606 131.416978 
L 617.386364 135.721686 
L 620.889432 138.646141 
L 623.224811 140.381696 
L 625.56019 141.899313 
L 627.895569 143.170547 
L 630.230948 144.185325 
L 632.566327 144.954199 
L 634.901706 145.505462 
L 638.404775 146.011896 
L 641.907843 146.259624 
L 647.74629 146.395773 
L 648.91398 146.404514 
L 648.91398 146.404514 
" style="fill: none; stroke: #4c72b0; stroke-width: 1.5; stroke-linecap: round"/>
   </g>
   <g id="line2d_36">
    <path d="M 319.654857 146.42175 
L 319.654857 24.45375 
" style="fill: none; stroke-dasharray: 0.8,1.32; stroke-dashoffset: 0; stroke: #d3d3d3; stroke-width: 0.8"/>
   </g>
   <g id="line2d_37">
    <path d="M 487.982406 146.42175 
L 487.982406 24.45375 
" style="fill: none; stroke-dasharray: 0.8,1.32; stroke-dashoffset: 0; stroke: #d3d3d3; stroke-width: 0.8"/>
   </g>
   <g id="line2d_38">
    <path d="M 7.2 146.42175 
L 648.9 146.42175 
" style="fill: none; stroke: #808080; stroke-width: 0.5; stroke-linecap: round"/>
   </g>
   <g id="AnnotationBbox_1">
    <g id="text_13">
     <text style="font-weight: 700; font-size: 8px; font-family: 'Arial', 'DejaVu Sans', 'Liberation Sans', 'Bitstream Vera Sans', sans-serif; text-anchor: end; fill: #808080" x="319.654857" y="12.92625" transform="rotate(-0 319.654857 12.92625)">International Poverty Line</text>
    </g>
    <g id="text_14">
     <text style="font-size: 8px; font-family: 'Arial', 'DejaVu Sans', 'Liberation Sans', 'Bitstream Vera Sans', sans-serif; text-anchor: end; fill: #808080" x="319.654857" y="22.86375" transform="rotate(-0 319.654857 22.86375)">$90 per month</text>
    </g>
   </g>
   <g id="AnnotationBbox_2">
    <g id="text_15">
     <text style="font-weight: 700; font-size: 8px; font-family: 'Arial', 'DejaVu Sans', 'Liberation Sans', 'Bitstream Vera Sans', sans-serif; text-anchor: start; fill: #808080" x="487.982406" y="12.92625" transform="rotate(-0 487.982406 12.92625)">High-income poverty line</text>
    </g>
    <g id="text_16">
     <text style="font-size: 8px; font-family: 'Arial', 'DejaVu Sans', 'Liberation Sans', 'Bitstream Vera Sans', sans-serif; text-anchor: start; fill: #808080" x="487.982406" y="22.86375" transform="rotate(-0 487.982406 22.86375)">$900 per month</text>
    </g>
   </g>
   <g id="text_17">
    <text style="font-size: 10px; font-family: 'Arial', 'DejaVu Sans', 'Liberation Sans', 'Bitstream Vera Sans', sans-serif; text-anchor: middle" x="533.350093" y="144.317062" transform="rotate(-0 533.350093 144.317062)">Sweden (2026)</text>
   </g>
  </g>
 </g>
</svg>
