<?xml version="1.0" encoding="utf-8" standalone="no"?>
<!DOCTYPE svg PUBLIC "-//W3C//DTD SVG 1.1//EN"
  "http://www.w3.org/Graphics/SVG/1.1/DTD/svg11.dtd">
<svg xmlns:xlink="http://www.w3.org/1999/xlink" width="820.818742pt" height="485.018437pt" viewBox="0 0 820.818742 485.018437" xmlns="http://www.w3.org/2000/svg" version="1.1">
 <metadata>
  <rdf:RDF xmlns:dc="http://purl.org/dc/elements/1.1/" xmlns:cc="http://creativecommons.org/ns#" xmlns:rdf="http://www.w3.org/1999/02/22-rdf-syntax-ns#">
   <cc:Work>
    <dc:type rdf:resource="http://purl.org/dc/dcmitype/StillImage"/>
    <dc:date>2026-05-27T16:32:07.208574</dc:date>
    <dc:format>image/svg+xml</dc:format>
    <dc:creator>
     <cc:Agent>
      <dc:title>Matplotlib v3.10.9, https://matplotlib.org/</dc:title>
     </cc:Agent>
    </dc:creator>
   </cc:Work>
  </rdf:RDF>
 </metadata>
 <defs>
  <style type="text/css">*{stroke-linejoin: round; stroke-linecap: butt}</style>
 </defs>
 <g id="figure_1">
  <g id="patch_1">
   <path d="M 0 485.018437 
L 820.818742 485.018437 
L 820.818742 -0 
L 0 -0 
z
" style="fill: #ffffff"/>
  </g>
  <g id="axes_1">
   <g id="patch_2">
    <path d="M 7.2 158.532083 
L 813.6 158.532083 
L 813.6 24.45375 
L 7.2 24.45375 
z
" style="fill: #ffffff"/>
   </g>
   <g id="matplotlib.axis_1">
    <g id="xtick_1"/>
    <g id="xtick_2"/>
    <g id="xtick_3"/>
    <g id="xtick_4"/>
    <g id="xtick_5"/>
    <g id="xtick_6"/>
    <g id="xtick_7"/>
    <g id="xtick_8"/>
    <g id="xtick_9"/>
    <g id="xtick_10"/>
    <g id="xtick_11"/>
    <g id="xtick_12"/>
    <g id="xtick_13"/>
    <g id="xtick_14"/>
    <g id="xtick_15"/>
    <g id="xtick_16"/>
    <g id="xtick_17"/>
    <g id="xtick_18"/>
    <g id="xtick_19"/>
    <g id="xtick_20"/>
    <g id="xtick_21"/>
    <g id="xtick_22"/>
    <g id="xtick_23"/>
    <g id="xtick_24"/>
    <g id="xtick_25"/>
    <g id="xtick_26"/>
    <g id="xtick_27"/>
    <g id="xtick_28"/>
    <g id="xtick_29"/>
    <g id="xtick_30"/>
    <g id="xtick_31"/>
    <g id="xtick_32"/>
    <g id="xtick_33"/>
   </g>
   <g id="matplotlib.axis_2"/>
   <g id="FillBetweenPolyCollection_1">
    <defs>
     <path id="m28f6ef0176" d="M 34.291445 -326.486354 
L 34.291445 -326.68095 
L 37.14911 -326.740727 
L 40.006775 -326.814822 
L 42.86444 -326.905421 
L 45.722105 -327.014721 
L 48.57977 -327.144844 
L 51.437435 -327.29775 
L 54.2951 -327.475143 
L 57.152765 -327.678386 
L 60.01043 -327.908424 
L 62.868095 -328.165732 
L 65.72576 -328.450281 
L 68.583426 -328.761541 
L 71.441091 -329.09851 
L 74.298756 -329.459769 
L 77.156421 -329.843575 
L 80.014086 -330.247961 
L 82.871751 -330.670854 
L 85.729416 -331.110198 
L 88.587081 -331.564061 
L 91.444746 -332.030742 
L 94.302411 -332.508842 
L 97.160076 -332.997318 
L 100.017741 -333.495511 
L 102.875406 -334.003141 
L 105.733071 -334.520283 
L 108.590736 -335.047325 
L 111.448401 -335.584908 
L 114.306066 -336.133862 
L 117.163731 -336.695141 
L 120.021396 -337.269755 
L 122.879061 -337.858719 
L 125.736726 -338.462997 
L 128.594391 -339.083472 
L 131.452056 -339.720914 
L 134.309721 -340.375964 
L 137.167386 -341.049127 
L 140.025051 -341.740766 
L 142.882716 -342.451107 
L 145.740381 -343.180245 
L 148.598046 -343.928154 
L 151.455711 -344.694689 
L 154.313376 -345.479604 
L 157.171041 -346.282552 
L 160.028706 -347.103096 
L 162.886371 -347.940712 
L 165.744036 -348.794799 
L 168.601701 -349.664676 
L 171.459366 -350.549589 
L 174.317031 -351.448713 
L 177.174696 -352.361154 
L 180.032361 -353.285948 
L 182.890026 -354.222068 
L 185.747691 -355.168419 
L 188.605356 -356.123847 
L 191.463021 -357.087132 
L 194.320686 -358.057 
L 197.178351 -359.032116 
L 200.036016 -360.011093 
L 202.893682 -360.992493 
L 205.751347 -361.974826 
L 208.609012 -362.956562 
L 211.466677 -363.936124 
L 214.324342 -364.911902 
L 217.182007 -365.882249 
L 220.039672 -366.84549 
L 222.897337 -367.799925 
L 225.755002 -368.743835 
L 228.612667 -369.675485 
L 231.470332 -370.593129 
L 234.327997 -371.49502 
L 237.185662 -372.379409 
L 240.043327 -373.244553 
L 242.900992 -374.088725 
L 245.758657 -374.91021 
L 248.616322 -375.707322 
L 251.473987 -376.478402 
L 254.331652 -377.221823 
L 257.189317 -377.936005 
L 260.046982 -378.619408 
L 262.904647 -379.270548 
L 265.762312 -379.887996 
L 268.619977 -380.470386 
L 271.477642 -381.016418 
L 274.335307 -381.524867 
L 277.192972 -381.994582 
L 280.050637 -382.424495 
L 282.908302 -382.813621 
L 285.765967 -383.161066 
L 288.623632 -383.466027 
L 291.481297 -383.727796 
L 294.338962 -383.945766 
L 297.196627 -384.119427 
L 300.054292 -384.248372 
L 302.911957 -384.332301 
L 305.769622 -384.371016 
L 308.627287 -384.364426 
L 311.484952 -384.312547 
L 314.342617 -384.2155 
L 317.200282 -384.073513 
L 320.057947 -383.886919 
L 322.915612 -383.656153 
L 325.773277 -383.381754 
L 328.630942 -383.06436 
L 331.488607 -382.704705 
L 334.346272 -382.30362 
L 337.203938 -381.862026 
L 340.061603 -381.380931 
L 342.919268 -380.861429 
L 345.776933 -380.304693 
L 348.634598 -379.711969 
L 351.492263 -379.084579 
L 354.349928 -378.423905 
L 357.207593 -377.731394 
L 360.065258 -377.008548 
L 362.922923 -376.256917 
L 365.780588 -375.478097 
L 368.638253 -374.673724 
L 371.495918 -373.845465 
L 374.353583 -372.995016 
L 377.211248 -372.124095 
L 380.068913 -371.234436 
L 382.926578 -370.327783 
L 385.784243 -369.405885 
L 388.641908 -368.47049 
L 391.499573 -367.52334 
L 394.357238 -366.566168 
L 397.214903 -365.600686 
L 400.072568 -364.628588 
L 402.930233 -363.651541 
L 405.787898 -362.671182 
L 408.645563 -361.689112 
L 411.503228 -360.706893 
L 414.360893 -359.726047 
L 417.218558 -358.748046 
L 420.076223 -357.774315 
L 422.933888 -356.806226 
L 425.791553 -355.845095 
L 428.649218 -354.892182 
L 431.506883 -353.948685 
L 434.364548 -353.015741 
L 437.222213 -352.094424 
L 440.079878 -351.185738 
L 442.937543 -350.290623 
L 445.795208 -349.409947 
L 448.652873 -348.544503 
L 451.510538 -347.695011 
L 454.368203 -346.862106 
L 457.225868 -346.046341 
L 460.083533 -345.248177 
L 462.941198 -344.467974 
L 465.798863 -343.705986 
L 468.656528 -342.962349 
L 471.514194 -342.237075 
L 474.371859 -341.530036 
L 477.229524 -340.840961 
L 480.087189 -340.169429 
L 482.944854 -339.51487 
L 485.802519 -338.876568 
L 488.660184 -338.253675 
L 491.517849 -337.645241 
L 494.375514 -337.050241 
L 497.233179 -336.467627 
L 500.090844 -335.896387 
L 502.948509 -335.335606 
L 505.806174 -334.784543 
L 508.663839 -334.242699 
L 511.521504 -333.709887 
L 514.379169 -333.186286 
L 517.236834 -332.672479 
L 520.094499 -332.169465 
L 522.952164 -331.678649 
L 525.809829 -331.201794 
L 528.667494 -330.740953 
L 531.525159 -330.29837 
L 534.382824 -329.876362 
L 537.240489 -329.477193 
L 540.098154 -329.10294 
L 542.955819 -328.755377 
L 545.813484 -328.435866 
L 548.671149 -328.14528 
L 551.528814 -327.883954 
L 554.386479 -327.651672 
L 557.244144 -327.447684 
L 560.101809 -327.270753 
L 562.959474 -327.119229 
L 565.817139 -326.991135 
L 568.674804 -326.884269 
L 571.532469 -326.796298 
L 574.390134 -326.724856 
L 577.247799 -326.66763 
L 580.105464 -326.622419 
L 582.963129 -326.587198 
L 585.820794 -326.560141 
L 588.678459 -326.539648 
L 591.536124 -326.524346 
L 594.393789 -326.513082 
L 597.251454 -326.50491 
L 600.109119 -326.499064 
L 602.966784 -326.494944 
L 602.966784 -326.486354 
L 602.966784 -326.486354 
L 600.109119 -326.486354 
L 597.251454 -326.486354 
L 594.393789 -326.486354 
L 591.536124 -326.486354 
L 588.678459 -326.486354 
L 585.820794 -326.486354 
L 582.963129 -326.486354 
L 580.105464 -326.486354 
L 577.247799 -326.486354 
L 574.390134 -326.486354 
L 571.532469 -326.486354 
L 568.674804 -326.486354 
L 565.817139 -326.486354 
L 562.959474 -326.486354 
L 560.101809 -326.486354 
L 557.244144 -326.486354 
L 554.386479 -326.486354 
L 551.528814 -326.486354 
L 548.671149 -326.486354 
L 545.813484 -326.486354 
L 542.955819 -326.486354 
L 540.098154 -326.486354 
L 537.240489 -326.486354 
L 534.382824 -326.486354 
L 531.525159 -326.486354 
L 528.667494 -326.486354 
L 525.809829 -326.486354 
L 522.952164 -326.486354 
L 520.094499 -326.486354 
L 517.236834 -326.486354 
L 514.379169 -326.486354 
L 511.521504 -326.486354 
L 508.663839 -326.486354 
L 505.806174 -326.486354 
L 502.948509 -326.486354 
L 500.090844 -326.486354 
L 497.233179 -326.486354 
L 494.375514 -326.486354 
L 491.517849 -326.486354 
L 488.660184 -326.486354 
L 485.802519 -326.486354 
L 482.944854 -326.486354 
L 480.087189 -326.486354 
L 477.229524 -326.486354 
L 474.371859 -326.486354 
L 471.514194 -326.486354 
L 468.656528 -326.486354 
L 465.798863 -326.486354 
L 462.941198 -326.486354 
L 460.083533 -326.486354 
L 457.225868 -326.486354 
L 454.368203 -326.486354 
L 451.510538 -326.486354 
L 448.652873 -326.486354 
L 445.795208 -326.486354 
L 442.937543 -326.486354 
L 440.079878 -326.486354 
L 437.222213 -326.486354 
L 434.364548 -326.486354 
L 431.506883 -326.486354 
L 428.649218 -326.486354 
L 425.791553 -326.486354 
L 422.933888 -326.486354 
L 420.076223 -326.486354 
L 417.218558 -326.486354 
L 414.360893 -326.486354 
L 411.503228 -326.486354 
L 408.645563 -326.486354 
L 405.787898 -326.486354 
L 402.930233 -326.486354 
L 400.072568 -326.486354 
L 397.214903 -326.486354 
L 394.357238 -326.486354 
L 391.499573 -326.486354 
L 388.641908 -326.486354 
L 385.784243 -326.486354 
L 382.926578 -326.486354 
L 380.068913 -326.486354 
L 377.211248 -326.486354 
L 374.353583 -326.486354 
L 371.495918 -326.486354 
L 368.638253 -326.486354 
L 365.780588 -326.486354 
L 362.922923 -326.486354 
L 360.065258 -326.486354 
L 357.207593 -326.486354 
L 354.349928 -326.486354 
L 351.492263 -326.486354 
L 348.634598 -326.486354 
L 345.776933 -326.486354 
L 342.919268 -326.486354 
L 340.061603 -326.486354 
L 337.203938 -326.486354 
L 334.346272 -326.486354 
L 331.488607 -326.486354 
L 328.630942 -326.486354 
L 325.773277 -326.486354 
L 322.915612 -326.486354 
L 320.057947 -326.486354 
L 317.200282 -326.486354 
L 314.342617 -326.486354 
L 311.484952 -326.486354 
L 308.627287 -326.486354 
L 305.769622 -326.486354 
L 302.911957 -326.486354 
L 300.054292 -326.486354 
L 297.196627 -326.486354 
L 294.338962 -326.486354 
L 291.481297 -326.486354 
L 288.623632 -326.486354 
L 285.765967 -326.486354 
L 282.908302 -326.486354 
L 280.050637 -326.486354 
L 277.192972 -326.486354 
L 274.335307 -326.486354 
L 271.477642 -326.486354 
L 268.619977 -326.486354 
L 265.762312 -326.486354 
L 262.904647 -326.486354 
L 260.046982 -326.486354 
L 257.189317 -326.486354 
L 254.331652 -326.486354 
L 251.473987 -326.486354 
L 248.616322 -326.486354 
L 245.758657 -326.486354 
L 242.900992 -326.486354 
L 240.043327 -326.486354 
L 237.185662 -326.486354 
L 234.327997 -326.486354 
L 231.470332 -326.486354 
L 228.612667 -326.486354 
L 225.755002 -326.486354 
L 222.897337 -326.486354 
L 220.039672 -326.486354 
L 217.182007 -326.486354 
L 214.324342 -326.486354 
L 211.466677 -326.486354 
L 208.609012 -326.486354 
L 205.751347 -326.486354 
L 202.893682 -326.486354 
L 200.036016 -326.486354 
L 197.178351 -326.486354 
L 194.320686 -326.486354 
L 191.463021 -326.486354 
L 188.605356 -326.486354 
L 185.747691 -326.486354 
L 182.890026 -326.486354 
L 180.032361 -326.486354 
L 177.174696 -326.486354 
L 174.317031 -326.486354 
L 171.459366 -326.486354 
L 168.601701 -326.486354 
L 165.744036 -326.486354 
L 162.886371 -326.486354 
L 160.028706 -326.486354 
L 157.171041 -326.486354 
L 154.313376 -326.486354 
L 151.455711 -326.486354 
L 148.598046 -326.486354 
L 145.740381 -326.486354 
L 142.882716 -326.486354 
L 140.025051 -326.486354 
L 137.167386 -326.486354 
L 134.309721 -326.486354 
L 131.452056 -326.486354 
L 128.594391 -326.486354 
L 125.736726 -326.486354 
L 122.879061 -326.486354 
L 120.021396 -326.486354 
L 117.163731 -326.486354 
L 114.306066 -326.486354 
L 111.448401 -326.486354 
L 108.590736 -326.486354 
L 105.733071 -326.486354 
L 102.875406 -326.486354 
L 100.017741 -326.486354 
L 97.160076 -326.486354 
L 94.302411 -326.486354 
L 91.444746 -326.486354 
L 88.587081 -326.486354 
L 85.729416 -326.486354 
L 82.871751 -326.486354 
L 80.014086 -326.486354 
L 77.156421 -326.486354 
L 74.298756 -326.486354 
L 71.441091 -326.486354 
L 68.583426 -326.486354 
L 65.72576 -326.486354 
L 62.868095 -326.486354 
L 60.01043 -326.486354 
L 57.152765 -326.486354 
L 54.2951 -326.486354 
L 51.437435 -326.486354 
L 48.57977 -326.486354 
L 45.722105 -326.486354 
L 42.86444 -326.486354 
L 40.006775 -326.486354 
L 37.14911 -326.486354 
L 34.291445 -326.486354 
z
" style="stroke: #4c72b0; stroke-opacity: 0.2"/>
    </defs>
    <g>
     <use xlink:href="#m28f6ef0176" x="0" y="485.018437" style="fill: #4c72b0; fill-opacity: 0.2; stroke: #4c72b0; stroke-opacity: 0.2"/>
    </g>
   </g>
   <g id="FillBetweenPolyCollection_2">
    <defs>
     <path id="maa00fcc8d9" d="M 34.291445 -326.68095 
L 34.291445 -326.486354 
L 37.14911 -326.486354 
L 40.006775 -326.486354 
L 42.86444 -326.486354 
L 45.722105 -326.486354 
L 48.57977 -326.486354 
L 51.437435 -326.486354 
L 54.2951 -326.486354 
L 57.152765 -326.486354 
L 60.01043 -326.486354 
L 62.868095 -326.486354 
L 65.72576 -326.486354 
L 68.583426 -326.486354 
L 71.441091 -326.486354 
L 74.298756 -326.486354 
L 77.156421 -326.486354 
L 80.014086 -326.486354 
L 82.871751 -326.486354 
L 85.729416 -326.486354 
L 88.587081 -326.486354 
L 91.444746 -326.486354 
L 94.302411 -326.486354 
L 97.160076 -326.486354 
L 100.017741 -326.486354 
L 102.875406 -326.486354 
L 105.733071 -326.486354 
L 108.590736 -326.486354 
L 111.448401 -326.486354 
L 114.306066 -326.486354 
L 117.163731 -326.486354 
L 120.021396 -326.486354 
L 122.879061 -326.486354 
L 125.736726 -326.486354 
L 128.594391 -326.486354 
L 131.452056 -326.486354 
L 134.309721 -326.486354 
L 137.167386 -326.486354 
L 140.025051 -326.486354 
L 142.882716 -326.486354 
L 145.740381 -326.486354 
L 148.598046 -326.486354 
L 151.455711 -326.486354 
L 154.313376 -326.486354 
L 157.171041 -326.486354 
L 160.028706 -326.486354 
L 162.886371 -326.486354 
L 165.744036 -326.486354 
L 168.601701 -326.486354 
L 171.459366 -326.486354 
L 174.317031 -326.486354 
L 177.174696 -326.486354 
L 180.032361 -326.486354 
L 182.890026 -326.486354 
L 185.747691 -326.486354 
L 188.605356 -326.486354 
L 191.463021 -326.486354 
L 194.320686 -326.486354 
L 197.178351 -326.486354 
L 200.036016 -326.486354 
L 202.893682 -326.486354 
L 205.751347 -326.486354 
L 208.609012 -326.486354 
L 211.466677 -326.486354 
L 214.324342 -326.486354 
L 217.182007 -326.486354 
L 220.039672 -326.486354 
L 222.897337 -326.486354 
L 225.755002 -326.486354 
L 228.612667 -326.486354 
L 231.470332 -326.486354 
L 234.327997 -326.486354 
L 237.185662 -326.486354 
L 240.043327 -326.486354 
L 242.900992 -326.486354 
L 245.758657 -326.486354 
L 248.616322 -326.486354 
L 251.473987 -326.486354 
L 254.331652 -326.486354 
L 257.189317 -326.486354 
L 260.046982 -326.486354 
L 262.904647 -326.486354 
L 265.762312 -326.486354 
L 268.619977 -326.486354 
L 271.477642 -326.486354 
L 274.335307 -326.486354 
L 277.192972 -326.486354 
L 280.050637 -326.486354 
L 282.908302 -326.486354 
L 285.765967 -326.486354 
L 288.623632 -326.486354 
L 291.481297 -326.486354 
L 294.338962 -326.486354 
L 297.196627 -326.486354 
L 300.054292 -326.486354 
L 302.911957 -326.486354 
L 305.769622 -326.486354 
L 308.627287 -326.486354 
L 311.484952 -326.486354 
L 314.342617 -326.486354 
L 317.200282 -326.486354 
L 320.057947 -326.486354 
L 322.915612 -326.486354 
L 325.773277 -326.486354 
L 328.630942 -326.486354 
L 331.488607 -326.486354 
L 334.346272 -326.486354 
L 337.203938 -326.486354 
L 340.061603 -326.486354 
L 342.919268 -326.486354 
L 345.776933 -326.486354 
L 348.634598 -326.486354 
L 351.492263 -326.486354 
L 354.349928 -326.486354 
L 357.207593 -326.486354 
L 360.065258 -326.486354 
L 362.922923 -326.486354 
L 365.780588 -326.486354 
L 368.638253 -326.486354 
L 371.495918 -326.486354 
L 374.353583 -326.486354 
L 377.211248 -326.486354 
L 380.068913 -326.486354 
L 382.926578 -326.486354 
L 385.784243 -326.486354 
L 388.641908 -326.486354 
L 391.499573 -326.486354 
L 394.357238 -326.486354 
L 397.214903 -326.486354 
L 400.072568 -326.486354 
L 401.096533 -326.486354 
L 401.096533 -364.281968 
L 401.096533 -364.281968 
L 400.072568 -364.628588 
L 397.214903 -365.600686 
L 394.357238 -366.566168 
L 391.499573 -367.52334 
L 388.641908 -368.47049 
L 385.784243 -369.405885 
L 382.926578 -370.327783 
L 380.068913 -371.234436 
L 377.211248 -372.124095 
L 374.353583 -372.995016 
L 371.495918 -373.845465 
L 368.638253 -374.673724 
L 365.780588 -375.478097 
L 362.922923 -376.256917 
L 360.065258 -377.008548 
L 357.207593 -377.731394 
L 354.349928 -378.423905 
L 351.492263 -379.084579 
L 348.634598 -379.711969 
L 345.776933 -380.304693 
L 342.919268 -380.861429 
L 340.061603 -381.380931 
L 337.203938 -381.862026 
L 334.346272 -382.30362 
L 331.488607 -382.704705 
L 328.630942 -383.06436 
L 325.773277 -383.381754 
L 322.915612 -383.656153 
L 320.057947 -383.886919 
L 317.200282 -384.073513 
L 314.342617 -384.2155 
L 311.484952 -384.312547 
L 308.627287 -384.364426 
L 305.769622 -384.371016 
L 302.911957 -384.332301 
L 300.054292 -384.248372 
L 297.196627 -384.119427 
L 294.338962 -383.945766 
L 291.481297 -383.727796 
L 288.623632 -383.466027 
L 285.765967 -383.161066 
L 282.908302 -382.813621 
L 280.050637 -382.424495 
L 277.192972 -381.994582 
L 274.335307 -381.524867 
L 271.477642 -381.016418 
L 268.619977 -380.470386 
L 265.762312 -379.887996 
L 262.904647 -379.270548 
L 260.046982 -378.619408 
L 257.189317 -377.936005 
L 254.331652 -377.221823 
L 251.473987 -376.478402 
L 248.616322 -375.707322 
L 245.758657 -374.91021 
L 242.900992 -374.088725 
L 240.043327 -373.244553 
L 237.185662 -372.379409 
L 234.327997 -371.49502 
L 231.470332 -370.593129 
L 228.612667 -369.675485 
L 225.755002 -368.743835 
L 222.897337 -367.799925 
L 220.039672 -366.84549 
L 217.182007 -365.882249 
L 214.324342 -364.911902 
L 211.466677 -363.936124 
L 208.609012 -362.956562 
L 205.751347 -361.974826 
L 202.893682 -360.992493 
L 200.036016 -360.011093 
L 197.178351 -359.032116 
L 194.320686 -358.057 
L 191.463021 -357.087132 
L 188.605356 -356.123847 
L 185.747691 -355.168419 
L 182.890026 -354.222068 
L 180.032361 -353.285948 
L 177.174696 -352.361154 
L 174.317031 -351.448713 
L 171.459366 -350.549589 
L 168.601701 -349.664676 
L 165.744036 -348.794799 
L 162.886371 -347.940712 
L 160.028706 -347.103096 
L 157.171041 -346.282552 
L 154.313376 -345.479604 
L 151.455711 -344.694689 
L 148.598046 -343.928154 
L 145.740381 -343.180245 
L 142.882716 -342.451107 
L 140.025051 -341.740766 
L 137.167386 -341.049127 
L 134.309721 -340.375964 
L 131.452056 -339.720914 
L 128.594391 -339.083472 
L 125.736726 -338.462997 
L 122.879061 -337.858719 
L 120.021396 -337.269755 
L 117.163731 -336.695141 
L 114.306066 -336.133862 
L 111.448401 -335.584908 
L 108.590736 -335.047325 
L 105.733071 -334.520283 
L 102.875406 -334.003141 
L 100.017741 -333.495511 
L 97.160076 -332.997318 
L 94.302411 -332.508842 
L 91.444746 -332.030742 
L 88.587081 -331.564061 
L 85.729416 -331.110198 
L 82.871751 -330.670854 
L 80.014086 -330.247961 
L 77.156421 -329.843575 
L 74.298756 -329.459769 
L 71.441091 -329.09851 
L 68.583426 -328.761541 
L 65.72576 -328.450281 
L 62.868095 -328.165732 
L 60.01043 -327.908424 
L 57.152765 -327.678386 
L 54.2951 -327.475143 
L 51.437435 -327.29775 
L 48.57977 -327.144844 
L 45.722105 -327.014721 
L 42.86444 -326.905421 
L 40.006775 -326.814822 
L 37.14911 -326.740727 
L 34.291445 -326.68095 
z
"/>
    </defs>
    <g>
     <use xlink:href="#maa00fcc8d9" x="0" y="485.018437" style="fill: #4c72b0; fill-opacity: 0.3"/>
    </g>
   </g>
   <g id="FillBetweenPolyCollection_3">
    <defs>
     <path id="m4cb2d13a14" d="M 34.291445 -326.68095 
L 34.291445 -326.486354 
L 37.14911 -326.486354 
L 40.006775 -326.486354 
L 42.86444 -326.486354 
L 45.722105 -326.486354 
L 48.57977 -326.486354 
L 51.437435 -326.486354 
L 54.2951 -326.486354 
L 57.152765 -326.486354 
L 60.01043 -326.486354 
L 62.868095 -326.486354 
L 65.72576 -326.486354 
L 68.583426 -326.486354 
L 71.441091 -326.486354 
L 74.298756 -326.486354 
L 77.156421 -326.486354 
L 80.014086 -326.486354 
L 82.871751 -326.486354 
L 85.729416 -326.486354 
L 88.587081 -326.486354 
L 91.444746 -326.486354 
L 94.302411 -326.486354 
L 97.160076 -326.486354 
L 100.017741 -326.486354 
L 102.875406 -326.486354 
L 105.733071 -326.486354 
L 108.590736 -326.486354 
L 111.448401 -326.486354 
L 114.306066 -326.486354 
L 117.163731 -326.486354 
L 120.021396 -326.486354 
L 122.879061 -326.486354 
L 125.736726 -326.486354 
L 128.594391 -326.486354 
L 131.452056 -326.486354 
L 134.309721 -326.486354 
L 137.167386 -326.486354 
L 140.025051 -326.486354 
L 142.882716 -326.486354 
L 145.740381 -326.486354 
L 148.598046 -326.486354 
L 151.455711 -326.486354 
L 154.313376 -326.486354 
L 157.171041 -326.486354 
L 160.028706 -326.486354 
L 162.886371 -326.486354 
L 165.744036 -326.486354 
L 168.601701 -326.486354 
L 171.459366 -326.486354 
L 174.317031 -326.486354 
L 177.174696 -326.486354 
L 180.032361 -326.486354 
L 182.890026 -326.486354 
L 185.747691 -326.486354 
L 188.605356 -326.486354 
L 191.463021 -326.486354 
L 194.320686 -326.486354 
L 197.178351 -326.486354 
L 200.036016 -326.486354 
L 202.893682 -326.486354 
L 205.751347 -326.486354 
L 208.609012 -326.486354 
L 211.466677 -326.486354 
L 214.324342 -326.486354 
L 217.182007 -326.486354 
L 220.039672 -326.486354 
L 222.897337 -326.486354 
L 225.755002 -326.486354 
L 228.612667 -326.486354 
L 231.470332 -326.486354 
L 234.327997 -326.486354 
L 237.185662 -326.486354 
L 240.043327 -326.486354 
L 242.900992 -326.486354 
L 245.758657 -326.486354 
L 248.616322 -326.486354 
L 251.473987 -326.486354 
L 254.331652 -326.486354 
L 257.189317 -326.486354 
L 260.046982 -326.486354 
L 262.904647 -326.486354 
L 265.762312 -326.486354 
L 268.619977 -326.486354 
L 271.477642 -326.486354 
L 274.335307 -326.486354 
L 277.192972 -326.486354 
L 280.050637 -326.486354 
L 282.908302 -326.486354 
L 285.765967 -326.486354 
L 288.623632 -326.486354 
L 291.481297 -326.486354 
L 294.338962 -326.486354 
L 297.196627 -326.486354 
L 300.054292 -326.486354 
L 302.911957 -326.486354 
L 305.769622 -326.486354 
L 308.627287 -326.486354 
L 311.484952 -326.486354 
L 314.342617 -326.486354 
L 317.200282 -326.486354 
L 320.057947 -326.486354 
L 322.915612 -326.486354 
L 325.773277 -326.486354 
L 328.630942 -326.486354 
L 331.488607 -326.486354 
L 334.346272 -326.486354 
L 337.203938 -326.486354 
L 340.061603 -326.486354 
L 342.919268 -326.486354 
L 345.776933 -326.486354 
L 348.634598 -326.486354 
L 351.492263 -326.486354 
L 354.349928 -326.486354 
L 357.207593 -326.486354 
L 360.065258 -326.486354 
L 362.922923 -326.486354 
L 365.780588 -326.486354 
L 368.638253 -326.486354 
L 371.495918 -326.486354 
L 374.353583 -326.486354 
L 377.211248 -326.486354 
L 380.068913 -326.486354 
L 382.926578 -326.486354 
L 385.784243 -326.486354 
L 388.641908 -326.486354 
L 391.499573 -326.486354 
L 394.357238 -326.486354 
L 397.214903 -326.486354 
L 400.072568 -326.486354 
L 402.930233 -326.486354 
L 405.787898 -326.486354 
L 408.645563 -326.486354 
L 411.503228 -326.486354 
L 414.360893 -326.486354 
L 417.218558 -326.486354 
L 420.076223 -326.486354 
L 422.933888 -326.486354 
L 425.791553 -326.486354 
L 428.649218 -326.486354 
L 431.506883 -326.486354 
L 434.364548 -326.486354 
L 437.222213 -326.486354 
L 440.079878 -326.486354 
L 442.937543 -326.486354 
L 445.795208 -326.486354 
L 448.652873 -326.486354 
L 451.510538 -326.486354 
L 454.368203 -326.486354 
L 457.225868 -326.486354 
L 460.083533 -326.486354 
L 462.941198 -326.486354 
L 465.798863 -326.486354 
L 468.656528 -326.486354 
L 471.514194 -326.486354 
L 474.371859 -326.486354 
L 477.229524 -326.486354 
L 480.087189 -326.486354 
L 482.944854 -326.486354 
L 485.802519 -326.486354 
L 488.660184 -326.486354 
L 491.517849 -326.486354 
L 494.375514 -326.486354 
L 497.233179 -326.486354 
L 500.090844 -326.486354 
L 502.948509 -326.486354 
L 505.806174 -326.486354 
L 508.663839 -326.486354 
L 511.521504 -326.486354 
L 514.379169 -326.486354 
L 517.236834 -326.486354 
L 520.094499 -326.486354 
L 522.952164 -326.486354 
L 525.809829 -326.486354 
L 528.667494 -326.486354 
L 531.525159 -326.486354 
L 534.382824 -326.486354 
L 537.240489 -326.486354 
L 540.098154 -326.486354 
L 542.955819 -326.486354 
L 545.813484 -326.486354 
L 548.671149 -326.486354 
L 551.528814 -326.486354 
L 554.386479 -326.486354 
L 557.244144 -326.486354 
L 560.101809 -326.486354 
L 562.959474 -326.486354 
L 565.817139 -326.486354 
L 568.674804 -326.486354 
L 571.532469 -326.486354 
L 574.390134 -326.486354 
L 577.247799 -326.486354 
L 580.105464 -326.486354 
L 582.963129 -326.486354 
L 585.820794 -326.486354 
L 588.678459 -326.486354 
L 591.536124 -326.486354 
L 594.393789 -326.486354 
L 597.251454 -326.486354 
L 600.109119 -326.486354 
L 602.966784 -326.486354 
L 613.29883 -326.486354 
L 613.29883 -326.494944 
L 613.29883 -326.494944 
L 602.966784 -326.494944 
L 600.109119 -326.499064 
L 597.251454 -326.50491 
L 594.393789 -326.513082 
L 591.536124 -326.524346 
L 588.678459 -326.539648 
L 585.820794 -326.560141 
L 582.963129 -326.587198 
L 580.105464 -326.622419 
L 577.247799 -326.66763 
L 574.390134 -326.724856 
L 571.532469 -326.796298 
L 568.674804 -326.884269 
L 565.817139 -326.991135 
L 562.959474 -327.119229 
L 560.101809 -327.270753 
L 557.244144 -327.447684 
L 554.386479 -327.651672 
L 551.528814 -327.883954 
L 548.671149 -328.14528 
L 545.813484 -328.435866 
L 542.955819 -328.755377 
L 540.098154 -329.10294 
L 537.240489 -329.477193 
L 534.382824 -329.876362 
L 531.525159 -330.29837 
L 528.667494 -330.740953 
L 525.809829 -331.201794 
L 522.952164 -331.678649 
L 520.094499 -332.169465 
L 517.236834 -332.672479 
L 514.379169 -333.186286 
L 511.521504 -333.709887 
L 508.663839 -334.242699 
L 505.806174 -334.784543 
L 502.948509 -335.335606 
L 500.090844 -335.896387 
L 497.233179 -336.467627 
L 494.375514 -337.050241 
L 491.517849 -337.645241 
L 488.660184 -338.253675 
L 485.802519 -338.876568 
L 482.944854 -339.51487 
L 480.087189 -340.169429 
L 477.229524 -340.840961 
L 474.371859 -341.530036 
L 471.514194 -342.237075 
L 468.656528 -342.962349 
L 465.798863 -343.705986 
L 462.941198 -344.467974 
L 460.083533 -345.248177 
L 457.225868 -346.046341 
L 454.368203 -346.862106 
L 451.510538 -347.695011 
L 448.652873 -348.544503 
L 445.795208 -349.409947 
L 442.937543 -350.290623 
L 440.079878 -351.185738 
L 437.222213 -352.094424 
L 434.364548 -353.015741 
L 431.506883 -353.948685 
L 428.649218 -354.892182 
L 425.791553 -355.845095 
L 422.933888 -356.806226 
L 420.076223 -357.774315 
L 417.218558 -358.748046 
L 414.360893 -359.726047 
L 411.503228 -360.706893 
L 408.645563 -361.689112 
L 405.787898 -362.671182 
L 402.930233 -363.651541 
L 400.072568 -364.628588 
L 397.214903 -365.600686 
L 394.357238 -366.566168 
L 391.499573 -367.52334 
L 388.641908 -368.47049 
L 385.784243 -369.405885 
L 382.926578 -370.327783 
L 380.068913 -371.234436 
L 377.211248 -372.124095 
L 374.353583 -372.995016 
L 371.495918 -373.845465 
L 368.638253 -374.673724 
L 365.780588 -375.478097 
L 362.922923 -376.256917 
L 360.065258 -377.008548 
L 357.207593 -377.731394 
L 354.349928 -378.423905 
L 351.492263 -379.084579 
L 348.634598 -379.711969 
L 345.776933 -380.304693 
L 342.919268 -380.861429 
L 340.061603 -381.380931 
L 337.203938 -381.862026 
L 334.346272 -382.30362 
L 331.488607 -382.704705 
L 328.630942 -383.06436 
L 325.773277 -383.381754 
L 322.915612 -383.656153 
L 320.057947 -383.886919 
L 317.200282 -384.073513 
L 314.342617 -384.2155 
L 311.484952 -384.312547 
L 308.627287 -384.364426 
L 305.769622 -384.371016 
L 302.911957 -384.332301 
L 300.054292 -384.248372 
L 297.196627 -384.119427 
L 294.338962 -383.945766 
L 291.481297 -383.727796 
L 288.623632 -383.466027 
L 285.765967 -383.161066 
L 282.908302 -382.813621 
L 280.050637 -382.424495 
L 277.192972 -381.994582 
L 274.335307 -381.524867 
L 271.477642 -381.016418 
L 268.619977 -380.470386 
L 265.762312 -379.887996 
L 262.904647 -379.270548 
L 260.046982 -378.619408 
L 257.189317 -377.936005 
L 254.331652 -377.221823 
L 251.473987 -376.478402 
L 248.616322 -375.707322 
L 245.758657 -374.91021 
L 242.900992 -374.088725 
L 240.043327 -373.244553 
L 237.185662 -372.379409 
L 234.327997 -371.49502 
L 231.470332 -370.593129 
L 228.612667 -369.675485 
L 225.755002 -368.743835 
L 222.897337 -367.799925 
L 220.039672 -366.84549 
L 217.182007 -365.882249 
L 214.324342 -364.911902 
L 211.466677 -363.936124 
L 208.609012 -362.956562 
L 205.751347 -361.974826 
L 202.893682 -360.992493 
L 200.036016 -360.011093 
L 197.178351 -359.032116 
L 194.320686 -358.057 
L 191.463021 -357.087132 
L 188.605356 -356.123847 
L 185.747691 -355.168419 
L 182.890026 -354.222068 
L 180.032361 -353.285948 
L 177.174696 -352.361154 
L 174.317031 -351.448713 
L 171.459366 -350.549589 
L 168.601701 -349.664676 
L 165.744036 -348.794799 
L 162.886371 -347.940712 
L 160.028706 -347.103096 
L 157.171041 -346.282552 
L 154.313376 -345.479604 
L 151.455711 -344.694689 
L 148.598046 -343.928154 
L 145.740381 -343.180245 
L 142.882716 -342.451107 
L 140.025051 -341.740766 
L 137.167386 -341.049127 
L 134.309721 -340.375964 
L 131.452056 -339.720914 
L 128.594391 -339.083472 
L 125.736726 -338.462997 
L 122.879061 -337.858719 
L 120.021396 -337.269755 
L 117.163731 -336.695141 
L 114.306066 -336.133862 
L 111.448401 -335.584908 
L 108.590736 -335.047325 
L 105.733071 -334.520283 
L 102.875406 -334.003141 
L 100.017741 -333.495511 
L 97.160076 -332.997318 
L 94.302411 -332.508842 
L 91.444746 -332.030742 
L 88.587081 -331.564061 
L 85.729416 -331.110198 
L 82.871751 -330.670854 
L 80.014086 -330.247961 
L 77.156421 -329.843575 
L 74.298756 -329.459769 
L 71.441091 -329.09851 
L 68.583426 -328.761541 
L 65.72576 -328.450281 
L 62.868095 -328.165732 
L 60.01043 -327.908424 
L 57.152765 -327.678386 
L 54.2951 -327.475143 
L 51.437435 -327.29775 
L 48.57977 -327.144844 
L 45.722105 -327.014721 
L 42.86444 -326.905421 
L 40.006775 -326.814822 
L 37.14911 -326.740727 
L 34.291445 -326.68095 
z
"/>
    </defs>
    <g>
     <use xlink:href="#m4cb2d13a14" x="0" y="485.018437" style="fill: #4c72b0; fill-opacity: 0.3"/>
    </g>
   </g>
   <g id="line2d_1">
    <path d="M 34.291445 158.337488 
L 45.722105 158.003717 
L 54.2951 157.543294 
L 62.868095 156.852706 
L 71.441091 155.919928 
L 80.014086 154.770477 
L 91.444746 152.987695 
L 105.733071 150.498154 
L 117.163731 148.323297 
L 128.594391 145.934966 
L 140.025051 143.277672 
L 151.455711 140.323748 
L 162.886371 137.077725 
L 174.317031 133.569724 
L 188.605356 128.894591 
L 211.466677 121.082313 
L 228.612667 115.342953 
L 240.043327 111.773884 
L 248.616322 109.311115 
L 257.189317 107.082433 
L 265.762312 105.130441 
L 274.335307 103.49357 
L 280.050637 102.593943 
L 285.765967 101.857372 
L 291.481297 101.290641 
L 297.196627 100.899011 
L 302.911957 100.686137 
L 308.627287 100.654012 
L 314.342617 100.802938 
L 320.057947 101.131519 
L 325.773277 101.636683 
L 331.488607 102.313732 
L 337.203938 103.156412 
L 342.919268 104.157008 
L 351.492263 105.933859 
L 360.065258 108.00989 
L 368.638253 110.344714 
L 377.211248 112.894342 
L 388.641908 116.547948 
L 405.787898 122.347256 
L 431.506883 131.069752 
L 442.937543 134.727814 
L 454.368203 138.156332 
L 465.798863 141.312452 
L 477.229524 144.177477 
L 488.660184 146.764762 
L 500.090844 149.122051 
L 514.379169 151.832152 
L 525.809829 153.816644 
L 534.382824 155.142075 
L 542.955819 156.26306 
L 551.528814 157.134484 
L 560.101809 157.747685 
L 568.674804 158.134169 
L 580.105464 158.396018 
L 597.251454 158.513528 
L 602.966784 158.523494 
L 602.966784 158.523494 
" style="fill: none; stroke: #4c72b0; stroke-width: 1.5; stroke-linecap: round"/>
   </g>
   <g id="line2d_2">
    <path d="M 7.2 158.532083 
L 813.6 158.532083 
" style="fill: none; stroke: #808080; stroke-width: 0.5; stroke-linecap: round"/>
   </g>
   <g id="text_1">
    <text style="font-size: 10px; font-family: 'Arial', 'DejaVu Sans', 'Liberation Sans', 'Bitstream Vera Sans', sans-serif; text-anchor: middle" x="306.658285" y="156.427396" transform="rotate(-0 306.658285 156.427396)">Sweden (1820)</text>
   </g>
   <g id="AnnotationBbox_1">
    <g id="text_2">
     <text style="font-weight: 700; font-size: 8px; font-family: 'Arial', 'DejaVu Sans', 'Liberation Sans', 'Bitstream Vera Sans', sans-serif; text-anchor: end; fill: #808080" x="401.096533" y="12.92625" transform="rotate(-0 401.096533 12.92625)">International Poverty Line</text>
    </g>
    <g id="text_3">
     <text style="font-size: 8px; font-family: 'Arial', 'DejaVu Sans', 'Liberation Sans', 'Bitstream Vera Sans', sans-serif; text-anchor: end; fill: #808080" x="401.096533" y="22.86375" transform="rotate(-0 401.096533 22.86375)">$90 per month</text>
    </g>
   </g>
   <g id="AnnotationBbox_2">
    <g id="text_4">
     <text style="font-weight: 700; font-size: 8px; font-family: 'Arial', 'DejaVu Sans', 'Liberation Sans', 'Bitstream Vera Sans', sans-serif; text-anchor: start; fill: #808080" x="613.29883" y="12.92625" transform="rotate(-0 613.29883 12.92625)">High-income poverty line</text>
    </g>
    <g id="text_5">
     <text style="font-size: 8px; font-family: 'Arial', 'DejaVu Sans', 'Liberation Sans', 'Bitstream Vera Sans', sans-serif; text-anchor: start; fill: #808080" x="613.29883" y="22.86375" transform="rotate(-0 613.29883 22.86375)">$900 per month</text>
    </g>
   </g>
  </g>
  <g id="axes_2">
   <g id="patch_3">
    <path d="M 7.2 303.410417 
L 813.6 303.410417 
L 813.6 169.332083 
L 7.2 169.332083 
z
" style="fill: #ffffff"/>
   </g>
   <g id="matplotlib.axis_3">
    <g id="xtick_34"/>
    <g id="xtick_35"/>
    <g id="xtick_36"/>
    <g id="xtick_37"/>
    <g id="xtick_38"/>
    <g id="xtick_39"/>
    <g id="xtick_40"/>
    <g id="xtick_41"/>
    <g id="xtick_42"/>
    <g id="xtick_43"/>
    <g id="xtick_44"/>
    <g id="xtick_45"/>
    <g id="xtick_46"/>
    <g id="xtick_47"/>
    <g id="xtick_48"/>
    <g id="xtick_49"/>
    <g id="xtick_50"/>
    <g id="xtick_51"/>
    <g id="xtick_52"/>
    <g id="xtick_53"/>
    <g id="xtick_54"/>
    <g id="xtick_55"/>
    <g id="xtick_56"/>
    <g id="xtick_57"/>
    <g id="xtick_58"/>
    <g id="xtick_59"/>
    <g id="xtick_60"/>
    <g id="xtick_61"/>
    <g id="xtick_62"/>
    <g id="xtick_63"/>
    <g id="xtick_64"/>
    <g id="xtick_65"/>
    <g id="xtick_66"/>
   </g>
   <g id="matplotlib.axis_4"/>
   <g id="FillBetweenPolyCollection_4">
    <defs>
     <path id="mfbc0e4c76d" d="M 135.127977 -181.608021 
L 135.127977 -181.61642 
L 138.006398 -181.620674 
L 140.884819 -181.626802 
L 143.763239 -181.63549 
L 146.64166 -181.647615 
L 149.52008 -181.664274 
L 152.398501 -181.686805 
L 155.276921 -181.716807 
L 158.155342 -181.756144 
L 161.033762 -181.806933 
L 163.912183 -181.871515 
L 166.790603 -181.952406 
L 169.669024 -182.052221 
L 172.547444 -182.173584 
L 175.425865 -182.319018 
L 178.304285 -182.490827 
L 181.182706 -182.690974 
L 184.061126 -182.920973 
L 186.939547 -183.181794 
L 189.817967 -183.4738 
L 192.696388 -183.796723 
L 195.574808 -184.149675 
L 198.453229 -184.531205 
L 201.331649 -184.939398 
L 204.21007 -185.371996 
L 207.08849 -185.826554 
L 209.966911 -186.30059 
L 212.845331 -186.791743 
L 215.723752 -187.297904 
L 218.602173 -187.817332 
L 221.480593 -188.34872 
L 224.359014 -188.891239 
L 227.237434 -189.444538 
L 230.115855 -190.008709 
L 232.994275 -190.584236 
L 235.872696 -191.171911 
L 238.751116 -191.772756 
L 241.629537 -192.387927 
L 244.507957 -193.018643 
L 247.386378 -193.666101 
L 250.264798 -194.331427 
L 253.143219 -195.015627 
L 256.021639 -195.719556 
L 258.90006 -196.443901 
L 261.77848 -197.189177 
L 264.656901 -197.955721 
L 267.535321 -198.743705 
L 270.413742 -199.553142 
L 273.292162 -200.383898 
L 276.170583 -201.235705 
L 279.049003 -202.108168 
L 281.927424 -203.000779 
L 284.805844 -203.912921 
L 287.684265 -204.843876 
L 290.562685 -205.79283 
L 293.441106 -206.758875 
L 296.319526 -207.741016 
L 299.197947 -208.738169 
L 302.076368 -209.749168 
L 304.954788 -210.772763 
L 307.833209 -211.807622 
L 310.711629 -212.852337 
L 313.59005 -213.905424 
L 316.46847 -214.965327 
L 319.346891 -216.030417 
L 322.225311 -217.099002 
L 325.103732 -218.169325 
L 327.982152 -219.239574 
L 330.860573 -220.307879 
L 333.738993 -221.372324 
L 336.617414 -222.43095 
L 339.495834 -223.481759 
L 342.374255 -224.52272 
L 345.252675 -225.551778 
L 348.131096 -226.566859 
L 351.009516 -227.565876 
L 353.887937 -228.546736 
L 356.766357 -229.507349 
L 359.644778 -230.445633 
L 362.523198 -231.359524 
L 365.401619 -232.246979 
L 368.280039 -233.105988 
L 371.15846 -233.934582 
L 374.03688 -234.730836 
L 376.915301 -235.492879 
L 379.793721 -236.218902 
L 382.672142 -236.907164 
L 385.550563 -237.555998 
L 388.428983 -238.163822 
L 391.307404 -238.72914 
L 394.185824 -239.25055 
L 397.064245 -239.726752 
L 399.942665 -240.156552 
L 402.821086 -240.538864 
L 405.699506 -240.87272 
L 408.577927 -241.15727 
L 411.456347 -241.391787 
L 414.334768 -241.575671 
L 417.213188 -241.708449 
L 420.091609 -241.78978 
L 422.970029 -241.819454 
L 425.84845 -241.797395 
L 428.72687 -241.723661 
L 431.605291 -241.598439 
L 434.483711 -241.422054 
L 437.362132 -241.194957 
L 440.240552 -240.917732 
L 443.118973 -240.591085 
L 445.997393 -240.21585 
L 448.875814 -239.792978 
L 451.754234 -239.323535 
L 454.632655 -238.808702 
L 457.511075 -238.249764 
L 460.389496 -237.648108 
L 463.267916 -237.005214 
L 466.146337 -236.322656 
L 469.024758 -235.602085 
L 471.903178 -234.845234 
L 474.781599 -234.053902 
L 477.660019 -233.22995 
L 480.53844 -232.375296 
L 483.41686 -231.491904 
L 486.295281 -230.581779 
L 489.173701 -229.646958 
L 492.052122 -228.689502 
L 494.930542 -227.711492 
L 497.808963 -226.715017 
L 500.687383 -225.70217 
L 503.565804 -224.675039 
L 506.444224 -223.635701 
L 509.322645 -222.586215 
L 512.201065 -221.528614 
L 515.079486 -220.464901 
L 517.957906 -219.397042 
L 520.836327 -218.326961 
L 523.714747 -217.256534 
L 526.593168 -216.187581 
L 529.471588 -215.121868 
L 532.350009 -214.061097 
L 535.228429 -213.006906 
L 538.10685 -211.960861 
L 540.98527 -210.924457 
L 543.863691 -209.899113 
L 546.742111 -208.886169 
L 549.620532 -207.886884 
L 552.498953 -206.902434 
L 555.377373 -205.933908 
L 558.255794 -204.982304 
L 561.134214 -204.048529 
L 564.012635 -203.13339 
L 566.891055 -202.237588 
L 569.769476 -201.361716 
L 572.647896 -200.506242 
L 575.526317 -199.671507 
L 578.404737 -198.857704 
L 581.283158 -198.064872 
L 584.161578 -197.29288 
L 587.039999 -196.541417 
L 589.918419 -195.809986 
L 592.79684 -195.097899 
L 595.67526 -194.404288 
L 598.553681 -193.728126 
L 601.432101 -193.068256 
L 604.310522 -192.423444 
L 607.188942 -191.792441 
L 610.067363 -191.174063 
L 612.945783 -190.567281 
L 615.824204 -189.971316 
L 618.702624 -189.38573 
L 621.581045 -188.810511 
L 624.459465 -188.246134 
L 627.337886 -187.69359 
L 630.216307 -187.154388 
L 633.094727 -186.630512 
L 635.973148 -186.124335 
L 638.851568 -185.6385 
L 641.729989 -185.175774 
L 644.608409 -184.738877 
L 647.48683 -184.330316 
L 650.36525 -183.952222 
L 653.243671 -183.606209 
L 656.122091 -183.293279 
L 659.000512 -183.013754 
L 661.878932 -182.76727 
L 664.757353 -182.552798 
L 667.635773 -182.368724 
L 670.514194 -182.212942 
L 673.392614 -182.082978 
L 676.271035 -181.976122 
L 679.149455 -181.889556 
L 682.027876 -181.820468 
L 684.906296 -181.766159 
L 687.784717 -181.724113 
L 690.663137 -181.692059 
L 693.541558 -181.667998 
L 696.419978 -181.650217 
L 699.298399 -181.637281 
L 702.176819 -181.628017 
L 705.05524 -181.621486 
L 707.93366 -181.616955 
L 707.93366 -181.608021 
L 707.93366 -181.608021 
L 705.05524 -181.608021 
L 702.176819 -181.608021 
L 699.298399 -181.608021 
L 696.419978 -181.608021 
L 693.541558 -181.608021 
L 690.663137 -181.608021 
L 687.784717 -181.608021 
L 684.906296 -181.608021 
L 682.027876 -181.608021 
L 679.149455 -181.608021 
L 676.271035 -181.608021 
L 673.392614 -181.608021 
L 670.514194 -181.608021 
L 667.635773 -181.608021 
L 664.757353 -181.608021 
L 661.878932 -181.608021 
L 659.000512 -181.608021 
L 656.122091 -181.608021 
L 653.243671 -181.608021 
L 650.36525 -181.608021 
L 647.48683 -181.608021 
L 644.608409 -181.608021 
L 641.729989 -181.608021 
L 638.851568 -181.608021 
L 635.973148 -181.608021 
L 633.094727 -181.608021 
L 630.216307 -181.608021 
L 627.337886 -181.608021 
L 624.459465 -181.608021 
L 621.581045 -181.608021 
L 618.702624 -181.608021 
L 615.824204 -181.608021 
L 612.945783 -181.608021 
L 610.067363 -181.608021 
L 607.188942 -181.608021 
L 604.310522 -181.608021 
L 601.432101 -181.608021 
L 598.553681 -181.608021 
L 595.67526 -181.608021 
L 592.79684 -181.608021 
L 589.918419 -181.608021 
L 587.039999 -181.608021 
L 584.161578 -181.608021 
L 581.283158 -181.608021 
L 578.404737 -181.608021 
L 575.526317 -181.608021 
L 572.647896 -181.608021 
L 569.769476 -181.608021 
L 566.891055 -181.608021 
L 564.012635 -181.608021 
L 561.134214 -181.608021 
L 558.255794 -181.608021 
L 555.377373 -181.608021 
L 552.498953 -181.608021 
L 549.620532 -181.608021 
L 546.742111 -181.608021 
L 543.863691 -181.608021 
L 540.98527 -181.608021 
L 538.10685 -181.608021 
L 535.228429 -181.608021 
L 532.350009 -181.608021 
L 529.471588 -181.608021 
L 526.593168 -181.608021 
L 523.714747 -181.608021 
L 520.836327 -181.608021 
L 517.957906 -181.608021 
L 515.079486 -181.608021 
L 512.201065 -181.608021 
L 509.322645 -181.608021 
L 506.444224 -181.608021 
L 503.565804 -181.608021 
L 500.687383 -181.608021 
L 497.808963 -181.608021 
L 494.930542 -181.608021 
L 492.052122 -181.608021 
L 489.173701 -181.608021 
L 486.295281 -181.608021 
L 483.41686 -181.608021 
L 480.53844 -181.608021 
L 477.660019 -181.608021 
L 474.781599 -181.608021 
L 471.903178 -181.608021 
L 469.024758 -181.608021 
L 466.146337 -181.608021 
L 463.267916 -181.608021 
L 460.389496 -181.608021 
L 457.511075 -181.608021 
L 454.632655 -181.608021 
L 451.754234 -181.608021 
L 448.875814 -181.608021 
L 445.997393 -181.608021 
L 443.118973 -181.608021 
L 440.240552 -181.608021 
L 437.362132 -181.608021 
L 434.483711 -181.608021 
L 431.605291 -181.608021 
L 428.72687 -181.608021 
L 425.84845 -181.608021 
L 422.970029 -181.608021 
L 420.091609 -181.608021 
L 417.213188 -181.608021 
L 414.334768 -181.608021 
L 411.456347 -181.608021 
L 408.577927 -181.608021 
L 405.699506 -181.608021 
L 402.821086 -181.608021 
L 399.942665 -181.608021 
L 397.064245 -181.608021 
L 394.185824 -181.608021 
L 391.307404 -181.608021 
L 388.428983 -181.608021 
L 385.550563 -181.608021 
L 382.672142 -181.608021 
L 379.793721 -181.608021 
L 376.915301 -181.608021 
L 374.03688 -181.608021 
L 371.15846 -181.608021 
L 368.280039 -181.608021 
L 365.401619 -181.608021 
L 362.523198 -181.608021 
L 359.644778 -181.608021 
L 356.766357 -181.608021 
L 353.887937 -181.608021 
L 351.009516 -181.608021 
L 348.131096 -181.608021 
L 345.252675 -181.608021 
L 342.374255 -181.608021 
L 339.495834 -181.608021 
L 336.617414 -181.608021 
L 333.738993 -181.608021 
L 330.860573 -181.608021 
L 327.982152 -181.608021 
L 325.103732 -181.608021 
L 322.225311 -181.608021 
L 319.346891 -181.608021 
L 316.46847 -181.608021 
L 313.59005 -181.608021 
L 310.711629 -181.608021 
L 307.833209 -181.608021 
L 304.954788 -181.608021 
L 302.076368 -181.608021 
L 299.197947 -181.608021 
L 296.319526 -181.608021 
L 293.441106 -181.608021 
L 290.562685 -181.608021 
L 287.684265 -181.608021 
L 284.805844 -181.608021 
L 281.927424 -181.608021 
L 279.049003 -181.608021 
L 276.170583 -181.608021 
L 273.292162 -181.608021 
L 270.413742 -181.608021 
L 267.535321 -181.608021 
L 264.656901 -181.608021 
L 261.77848 -181.608021 
L 258.90006 -181.608021 
L 256.021639 -181.608021 
L 253.143219 -181.608021 
L 250.264798 -181.608021 
L 247.386378 -181.608021 
L 244.507957 -181.608021 
L 241.629537 -181.608021 
L 238.751116 -181.608021 
L 235.872696 -181.608021 
L 232.994275 -181.608021 
L 230.115855 -181.608021 
L 227.237434 -181.608021 
L 224.359014 -181.608021 
L 221.480593 -181.608021 
L 218.602173 -181.608021 
L 215.723752 -181.608021 
L 212.845331 -181.608021 
L 209.966911 -181.608021 
L 207.08849 -181.608021 
L 204.21007 -181.608021 
L 201.331649 -181.608021 
L 198.453229 -181.608021 
L 195.574808 -181.608021 
L 192.696388 -181.608021 
L 189.817967 -181.608021 
L 186.939547 -181.608021 
L 184.061126 -181.608021 
L 181.182706 -181.608021 
L 178.304285 -181.608021 
L 175.425865 -181.608021 
L 172.547444 -181.608021 
L 169.669024 -181.608021 
L 166.790603 -181.608021 
L 163.912183 -181.608021 
L 161.033762 -181.608021 
L 158.155342 -181.608021 
L 155.276921 -181.608021 
L 152.398501 -181.608021 
L 149.52008 -181.608021 
L 146.64166 -181.608021 
L 143.763239 -181.608021 
L 140.884819 -181.608021 
L 138.006398 -181.608021 
L 135.127977 -181.608021 
z
" style="stroke: #4c72b0; stroke-opacity: 0.2"/>
    </defs>
    <g>
     <use xlink:href="#mfbc0e4c76d" x="0" y="485.018437" style="fill: #4c72b0; fill-opacity: 0.2; stroke: #4c72b0; stroke-opacity: 0.2"/>
    </g>
   </g>
   <g id="FillBetweenPolyCollection_5">
    <defs>
     <path id="mef2efe7bbb" d="M 135.127977 -181.61642 
L 135.127977 -181.608021 
L 138.006398 -181.608021 
L 140.884819 -181.608021 
L 143.763239 -181.608021 
L 146.64166 -181.608021 
L 149.52008 -181.608021 
L 152.398501 -181.608021 
L 155.276921 -181.608021 
L 158.155342 -181.608021 
L 161.033762 -181.608021 
L 163.912183 -181.608021 
L 166.790603 -181.608021 
L 169.669024 -181.608021 
L 172.547444 -181.608021 
L 175.425865 -181.608021 
L 178.304285 -181.608021 
L 181.182706 -181.608021 
L 184.061126 -181.608021 
L 186.939547 -181.608021 
L 189.817967 -181.608021 
L 192.696388 -181.608021 
L 195.574808 -181.608021 
L 198.453229 -181.608021 
L 201.331649 -181.608021 
L 204.21007 -181.608021 
L 207.08849 -181.608021 
L 209.966911 -181.608021 
L 212.845331 -181.608021 
L 215.723752 -181.608021 
L 218.602173 -181.608021 
L 221.480593 -181.608021 
L 224.359014 -181.608021 
L 227.237434 -181.608021 
L 230.115855 -181.608021 
L 232.994275 -181.608021 
L 235.872696 -181.608021 
L 238.751116 -181.608021 
L 241.629537 -181.608021 
L 244.507957 -181.608021 
L 247.386378 -181.608021 
L 250.264798 -181.608021 
L 253.143219 -181.608021 
L 256.021639 -181.608021 
L 258.90006 -181.608021 
L 261.77848 -181.608021 
L 264.656901 -181.608021 
L 267.535321 -181.608021 
L 270.413742 -181.608021 
L 273.292162 -181.608021 
L 276.170583 -181.608021 
L 279.049003 -181.608021 
L 281.927424 -181.608021 
L 284.805844 -181.608021 
L 287.684265 -181.608021 
L 290.562685 -181.608021 
L 293.441106 -181.608021 
L 296.319526 -181.608021 
L 299.197947 -181.608021 
L 302.076368 -181.608021 
L 304.954788 -181.608021 
L 307.833209 -181.608021 
L 310.711629 -181.608021 
L 313.59005 -181.608021 
L 316.46847 -181.608021 
L 319.346891 -181.608021 
L 322.225311 -181.608021 
L 325.103732 -181.608021 
L 327.982152 -181.608021 
L 330.860573 -181.608021 
L 333.738993 -181.608021 
L 336.617414 -181.608021 
L 339.495834 -181.608021 
L 342.374255 -181.608021 
L 345.252675 -181.608021 
L 348.131096 -181.608021 
L 351.009516 -181.608021 
L 353.887937 -181.608021 
L 356.766357 -181.608021 
L 359.644778 -181.608021 
L 362.523198 -181.608021 
L 365.401619 -181.608021 
L 368.280039 -181.608021 
L 371.15846 -181.608021 
L 374.03688 -181.608021 
L 376.915301 -181.608021 
L 379.793721 -181.608021 
L 382.672142 -181.608021 
L 385.550563 -181.608021 
L 388.428983 -181.608021 
L 391.307404 -181.608021 
L 394.185824 -181.608021 
L 397.064245 -181.608021 
L 399.942665 -181.608021 
L 401.096533 -181.608021 
L 401.096533 -240.308376 
L 401.096533 -240.308376 
L 399.942665 -240.156552 
L 397.064245 -239.726752 
L 394.185824 -239.25055 
L 391.307404 -238.72914 
L 388.428983 -238.163822 
L 385.550563 -237.555998 
L 382.672142 -236.907164 
L 379.793721 -236.218902 
L 376.915301 -235.492879 
L 374.03688 -234.730836 
L 371.15846 -233.934582 
L 368.280039 -233.105988 
L 365.401619 -232.246979 
L 362.523198 -231.359524 
L 359.644778 -230.445633 
L 356.766357 -229.507349 
L 353.887937 -228.546736 
L 351.009516 -227.565876 
L 348.131096 -226.566859 
L 345.252675 -225.551778 
L 342.374255 -224.52272 
L 339.495834 -223.481759 
L 336.617414 -222.43095 
L 333.738993 -221.372324 
L 330.860573 -220.307879 
L 327.982152 -219.239574 
L 325.103732 -218.169325 
L 322.225311 -217.099002 
L 319.346891 -216.030417 
L 316.46847 -214.965327 
L 313.59005 -213.905424 
L 310.711629 -212.852337 
L 307.833209 -211.807622 
L 304.954788 -210.772763 
L 302.076368 -209.749168 
L 299.197947 -208.738169 
L 296.319526 -207.741016 
L 293.441106 -206.758875 
L 290.562685 -205.79283 
L 287.684265 -204.843876 
L 284.805844 -203.912921 
L 281.927424 -203.000779 
L 279.049003 -202.108168 
L 276.170583 -201.235705 
L 273.292162 -200.383898 
L 270.413742 -199.553142 
L 267.535321 -198.743705 
L 264.656901 -197.955721 
L 261.77848 -197.189177 
L 258.90006 -196.443901 
L 256.021639 -195.719556 
L 253.143219 -195.015627 
L 250.264798 -194.331427 
L 247.386378 -193.666101 
L 244.507957 -193.018643 
L 241.629537 -192.387927 
L 238.751116 -191.772756 
L 235.872696 -191.171911 
L 232.994275 -190.584236 
L 230.115855 -190.008709 
L 227.237434 -189.444538 
L 224.359014 -188.891239 
L 221.480593 -188.34872 
L 218.602173 -187.817332 
L 215.723752 -187.297904 
L 212.845331 -186.791743 
L 209.966911 -186.30059 
L 207.08849 -185.826554 
L 204.21007 -185.371996 
L 201.331649 -184.939398 
L 198.453229 -184.531205 
L 195.574808 -184.149675 
L 192.696388 -183.796723 
L 189.817967 -183.4738 
L 186.939547 -183.181794 
L 184.061126 -182.920973 
L 181.182706 -182.690974 
L 178.304285 -182.490827 
L 175.425865 -182.319018 
L 172.547444 -182.173584 
L 169.669024 -182.052221 
L 166.790603 -181.952406 
L 163.912183 -181.871515 
L 161.033762 -181.806933 
L 158.155342 -181.756144 
L 155.276921 -181.716807 
L 152.398501 -181.686805 
L 149.52008 -181.664274 
L 146.64166 -181.647615 
L 143.763239 -181.63549 
L 140.884819 -181.626802 
L 138.006398 -181.620674 
L 135.127977 -181.61642 
z
"/>
    </defs>
    <g>
     <use xlink:href="#mef2efe7bbb" x="0" y="485.018437" style="fill: #4c72b0; fill-opacity: 0.3"/>
    </g>
   </g>
   <g id="FillBetweenPolyCollection_6">
    <defs>
     <path id="m1374b51be6" d="M 135.127977 -181.61642 
L 135.127977 -181.608021 
L 138.006398 -181.608021 
L 140.884819 -181.608021 
L 143.763239 -181.608021 
L 146.64166 -181.608021 
L 149.52008 -181.608021 
L 152.398501 -181.608021 
L 155.276921 -181.608021 
L 158.155342 -181.608021 
L 161.033762 -181.608021 
L 163.912183 -181.608021 
L 166.790603 -181.608021 
L 169.669024 -181.608021 
L 172.547444 -181.608021 
L 175.425865 -181.608021 
L 178.304285 -181.608021 
L 181.182706 -181.608021 
L 184.061126 -181.608021 
L 186.939547 -181.608021 
L 189.817967 -181.608021 
L 192.696388 -181.608021 
L 195.574808 -181.608021 
L 198.453229 -181.608021 
L 201.331649 -181.608021 
L 204.21007 -181.608021 
L 207.08849 -181.608021 
L 209.966911 -181.608021 
L 212.845331 -181.608021 
L 215.723752 -181.608021 
L 218.602173 -181.608021 
L 221.480593 -181.608021 
L 224.359014 -181.608021 
L 227.237434 -181.608021 
L 230.115855 -181.608021 
L 232.994275 -181.608021 
L 235.872696 -181.608021 
L 238.751116 -181.608021 
L 241.629537 -181.608021 
L 244.507957 -181.608021 
L 247.386378 -181.608021 
L 250.264798 -181.608021 
L 253.143219 -181.608021 
L 256.021639 -181.608021 
L 258.90006 -181.608021 
L 261.77848 -181.608021 
L 264.656901 -181.608021 
L 267.535321 -181.608021 
L 270.413742 -181.608021 
L 273.292162 -181.608021 
L 276.170583 -181.608021 
L 279.049003 -181.608021 
L 281.927424 -181.608021 
L 284.805844 -181.608021 
L 287.684265 -181.608021 
L 290.562685 -181.608021 
L 293.441106 -181.608021 
L 296.319526 -181.608021 
L 299.197947 -181.608021 
L 302.076368 -181.608021 
L 304.954788 -181.608021 
L 307.833209 -181.608021 
L 310.711629 -181.608021 
L 313.59005 -181.608021 
L 316.46847 -181.608021 
L 319.346891 -181.608021 
L 322.225311 -181.608021 
L 325.103732 -181.608021 
L 327.982152 -181.608021 
L 330.860573 -181.608021 
L 333.738993 -181.608021 
L 336.617414 -181.608021 
L 339.495834 -181.608021 
L 342.374255 -181.608021 
L 345.252675 -181.608021 
L 348.131096 -181.608021 
L 351.009516 -181.608021 
L 353.887937 -181.608021 
L 356.766357 -181.608021 
L 359.644778 -181.608021 
L 362.523198 -181.608021 
L 365.401619 -181.608021 
L 368.280039 -181.608021 
L 371.15846 -181.608021 
L 374.03688 -181.608021 
L 376.915301 -181.608021 
L 379.793721 -181.608021 
L 382.672142 -181.608021 
L 385.550563 -181.608021 
L 388.428983 -181.608021 
L 391.307404 -181.608021 
L 394.185824 -181.608021 
L 397.064245 -181.608021 
L 399.942665 -181.608021 
L 402.821086 -181.608021 
L 405.699506 -181.608021 
L 408.577927 -181.608021 
L 411.456347 -181.608021 
L 414.334768 -181.608021 
L 417.213188 -181.608021 
L 420.091609 -181.608021 
L 422.970029 -181.608021 
L 425.84845 -181.608021 
L 428.72687 -181.608021 
L 431.605291 -181.608021 
L 434.483711 -181.608021 
L 437.362132 -181.608021 
L 440.240552 -181.608021 
L 443.118973 -181.608021 
L 445.997393 -181.608021 
L 448.875814 -181.608021 
L 451.754234 -181.608021 
L 454.632655 -181.608021 
L 457.511075 -181.608021 
L 460.389496 -181.608021 
L 463.267916 -181.608021 
L 466.146337 -181.608021 
L 469.024758 -181.608021 
L 471.903178 -181.608021 
L 474.781599 -181.608021 
L 477.660019 -181.608021 
L 480.53844 -181.608021 
L 483.41686 -181.608021 
L 486.295281 -181.608021 
L 489.173701 -181.608021 
L 492.052122 -181.608021 
L 494.930542 -181.608021 
L 497.808963 -181.608021 
L 500.687383 -181.608021 
L 503.565804 -181.608021 
L 506.444224 -181.608021 
L 509.322645 -181.608021 
L 512.201065 -181.608021 
L 515.079486 -181.608021 
L 517.957906 -181.608021 
L 520.836327 -181.608021 
L 523.714747 -181.608021 
L 526.593168 -181.608021 
L 529.471588 -181.608021 
L 532.350009 -181.608021 
L 535.228429 -181.608021 
L 538.10685 -181.608021 
L 540.98527 -181.608021 
L 543.863691 -181.608021 
L 546.742111 -181.608021 
L 549.620532 -181.608021 
L 552.498953 -181.608021 
L 555.377373 -181.608021 
L 558.255794 -181.608021 
L 561.134214 -181.608021 
L 564.012635 -181.608021 
L 566.891055 -181.608021 
L 569.769476 -181.608021 
L 572.647896 -181.608021 
L 575.526317 -181.608021 
L 578.404737 -181.608021 
L 581.283158 -181.608021 
L 584.161578 -181.608021 
L 587.039999 -181.608021 
L 589.918419 -181.608021 
L 592.79684 -181.608021 
L 595.67526 -181.608021 
L 598.553681 -181.608021 
L 601.432101 -181.608021 
L 604.310522 -181.608021 
L 607.188942 -181.608021 
L 610.067363 -181.608021 
L 612.945783 -181.608021 
L 613.29883 -181.608021 
L 613.29883 -190.495182 
L 613.29883 -190.495182 
L 612.945783 -190.567281 
L 610.067363 -191.174063 
L 607.188942 -191.792441 
L 604.310522 -192.423444 
L 601.432101 -193.068256 
L 598.553681 -193.728126 
L 595.67526 -194.404288 
L 592.79684 -195.097899 
L 589.918419 -195.809986 
L 587.039999 -196.541417 
L 584.161578 -197.29288 
L 581.283158 -198.064872 
L 578.404737 -198.857704 
L 575.526317 -199.671507 
L 572.647896 -200.506242 
L 569.769476 -201.361716 
L 566.891055 -202.237588 
L 564.012635 -203.13339 
L 561.134214 -204.048529 
L 558.255794 -204.982304 
L 555.377373 -205.933908 
L 552.498953 -206.902434 
L 549.620532 -207.886884 
L 546.742111 -208.886169 
L 543.863691 -209.899113 
L 540.98527 -210.924457 
L 538.10685 -211.960861 
L 535.228429 -213.006906 
L 532.350009 -214.061097 
L 529.471588 -215.121868 
L 526.593168 -216.187581 
L 523.714747 -217.256534 
L 520.836327 -218.326961 
L 517.957906 -219.397042 
L 515.079486 -220.464901 
L 512.201065 -221.528614 
L 509.322645 -222.586215 
L 506.444224 -223.635701 
L 503.565804 -224.675039 
L 500.687383 -225.70217 
L 497.808963 -226.715017 
L 494.930542 -227.711492 
L 492.052122 -228.689502 
L 489.173701 -229.646958 
L 486.295281 -230.581779 
L 483.41686 -231.491904 
L 480.53844 -232.375296 
L 477.660019 -233.22995 
L 474.781599 -234.053902 
L 471.903178 -234.845234 
L 469.024758 -235.602085 
L 466.146337 -236.322656 
L 463.267916 -237.005214 
L 460.389496 -237.648108 
L 457.511075 -238.249764 
L 454.632655 -238.808702 
L 451.754234 -239.323535 
L 448.875814 -239.792978 
L 445.997393 -240.21585 
L 443.118973 -240.591085 
L 440.240552 -240.917732 
L 437.362132 -241.194957 
L 434.483711 -241.422054 
L 431.605291 -241.598439 
L 428.72687 -241.723661 
L 425.84845 -241.797395 
L 422.970029 -241.819454 
L 420.091609 -241.78978 
L 417.213188 -241.708449 
L 414.334768 -241.575671 
L 411.456347 -241.391787 
L 408.577927 -241.15727 
L 405.699506 -240.87272 
L 402.821086 -240.538864 
L 399.942665 -240.156552 
L 397.064245 -239.726752 
L 394.185824 -239.25055 
L 391.307404 -238.72914 
L 388.428983 -238.163822 
L 385.550563 -237.555998 
L 382.672142 -236.907164 
L 379.793721 -236.218902 
L 376.915301 -235.492879 
L 374.03688 -234.730836 
L 371.15846 -233.934582 
L 368.280039 -233.105988 
L 365.401619 -232.246979 
L 362.523198 -231.359524 
L 359.644778 -230.445633 
L 356.766357 -229.507349 
L 353.887937 -228.546736 
L 351.009516 -227.565876 
L 348.131096 -226.566859 
L 345.252675 -225.551778 
L 342.374255 -224.52272 
L 339.495834 -223.481759 
L 336.617414 -222.43095 
L 333.738993 -221.372324 
L 330.860573 -220.307879 
L 327.982152 -219.239574 
L 325.103732 -218.169325 
L 322.225311 -217.099002 
L 319.346891 -216.030417 
L 316.46847 -214.965327 
L 313.59005 -213.905424 
L 310.711629 -212.852337 
L 307.833209 -211.807622 
L 304.954788 -210.772763 
L 302.076368 -209.749168 
L 299.197947 -208.738169 
L 296.319526 -207.741016 
L 293.441106 -206.758875 
L 290.562685 -205.79283 
L 287.684265 -204.843876 
L 284.805844 -203.912921 
L 281.927424 -203.000779 
L 279.049003 -202.108168 
L 276.170583 -201.235705 
L 273.292162 -200.383898 
L 270.413742 -199.553142 
L 267.535321 -198.743705 
L 264.656901 -197.955721 
L 261.77848 -197.189177 
L 258.90006 -196.443901 
L 256.021639 -195.719556 
L 253.143219 -195.015627 
L 250.264798 -194.331427 
L 247.386378 -193.666101 
L 244.507957 -193.018643 
L 241.629537 -192.387927 
L 238.751116 -191.772756 
L 235.872696 -191.171911 
L 232.994275 -190.584236 
L 230.115855 -190.008709 
L 227.237434 -189.444538 
L 224.359014 -188.891239 
L 221.480593 -188.34872 
L 218.602173 -187.817332 
L 215.723752 -187.297904 
L 212.845331 -186.791743 
L 209.966911 -186.30059 
L 207.08849 -185.826554 
L 204.21007 -185.371996 
L 201.331649 -184.939398 
L 198.453229 -184.531205 
L 195.574808 -184.149675 
L 192.696388 -183.796723 
L 189.817967 -183.4738 
L 186.939547 -183.181794 
L 184.061126 -182.920973 
L 181.182706 -182.690974 
L 178.304285 -182.490827 
L 175.425865 -182.319018 
L 172.547444 -182.173584 
L 169.669024 -182.052221 
L 166.790603 -181.952406 
L 163.912183 -181.871515 
L 161.033762 -181.806933 
L 158.155342 -181.756144 
L 155.276921 -181.716807 
L 152.398501 -181.686805 
L 149.52008 -181.664274 
L 146.64166 -181.647615 
L 143.763239 -181.63549 
L 140.884819 -181.626802 
L 138.006398 -181.620674 
L 135.127977 -181.61642 
z
"/>
    </defs>
    <g>
     <use xlink:href="#m1374b51be6" x="0" y="485.018437" style="fill: #4c72b0; fill-opacity: 0.3"/>
    </g>
   </g>
   <g id="line2d_3">
    <path d="M 135.127977 303.402017 
L 158.155342 303.262294 
L 169.669024 302.966217 
L 178.304285 302.52761 
L 186.939547 301.836644 
L 195.574808 300.868762 
L 204.21007 299.646441 
L 215.723752 297.720533 
L 227.237434 295.5739 
L 238.751116 293.245682 
L 250.264798 290.687011 
L 258.90006 288.574536 
L 267.535321 286.274732 
L 276.170583 283.782733 
L 284.805844 281.105516 
L 296.319526 277.277422 
L 307.833209 273.210816 
L 325.103732 266.849112 
L 345.252675 259.466659 
L 356.766357 255.511088 
L 365.401619 252.771459 
L 374.03688 250.287601 
L 382.672142 248.111274 
L 388.428983 246.854615 
L 394.185824 245.767888 
L 399.942665 244.861886 
L 405.699506 244.145718 
L 411.456347 243.62665 
L 417.213188 243.309989 
L 422.970029 243.198983 
L 428.72687 243.294777 
L 434.483711 243.596384 
L 440.240552 244.100706 
L 445.997393 244.802587 
L 451.754234 245.694902 
L 457.511075 246.768673 
L 463.267916 248.013223 
L 471.903178 250.173203 
L 480.53844 252.643141 
L 489.173701 255.37148 
L 500.687383 259.316267 
L 515.079486 264.553537 
L 543.863691 275.119325 
L 555.377373 279.08453 
L 566.891055 282.780849 
L 575.526317 285.346931 
L 584.161578 287.725558 
L 592.79684 289.920539 
L 604.310522 292.594993 
L 615.824204 295.047122 
L 630.216307 297.864049 
L 638.851568 299.379937 
L 647.48683 300.688121 
L 656.122091 301.725159 
L 664.757353 302.465639 
L 673.392614 302.93546 
L 684.906296 303.252279 
L 699.298399 303.381157 
L 707.93366 303.401482 
L 707.93366 303.401482 
" style="fill: none; stroke: #4c72b0; stroke-width: 1.5; stroke-linecap: round"/>
   </g>
   <g id="line2d_4">
    <path d="M 7.2 303.410417 
L 813.6 303.410417 
" style="fill: none; stroke: #808080; stroke-width: 0.5; stroke-linecap: round"/>
   </g>
   <g id="text_6">
    <text style="font-size: 10px; font-family: 'Arial', 'DejaVu Sans', 'Liberation Sans', 'Bitstream Vera Sans', sans-serif; text-anchor: middle" x="423.062152" y="301.305729" transform="rotate(-0 423.062152 301.305729)">Sweden (1920)</text>
   </g>
  </g>
  <g id="axes_3">
   <g id="patch_4">
    <path d="M 7.2 448.28875 
L 813.6 448.28875 
L 813.6 314.210417 
L 7.2 314.210417 
z
" style="fill: #ffffff"/>
   </g>
   <g id="matplotlib.axis_5">
    <g id="xtick_67">
     <g id="line2d_5">
      <defs>
       <path id="m2106040ffe" d="M 0 0 
L 0 3.5 
" style="stroke: #262626; stroke-width: 0.8"/>
      </defs>
      <g>
       <use xlink:href="#m2106040ffe" x="50.281041" y="448.28875" style="fill: #262626; stroke: #262626; stroke-width: 0.8"/>
      </g>
     </g>
     <g id="text_7">
      <text style="font-size: 10px; font-family: 'Arial', 'DejaVu Sans', 'Liberation Sans', 'Bitstream Vera Sans', sans-serif; text-anchor: middle; fill: #262626" x="50.281041" y="462.446562" transform="rotate(-0 50.281041 462.446562)">$2</text>
     </g>
    </g>
    <g id="xtick_68">
     <g id="line2d_6">
      <g>
       <use xlink:href="#m2106040ffe" x="134.724825" y="448.28875" style="fill: #262626; stroke: #262626; stroke-width: 0.8"/>
      </g>
     </g>
     <g id="text_8">
      <text style="font-size: 10px; font-family: 'Arial', 'DejaVu Sans', 'Liberation Sans', 'Bitstream Vera Sans', sans-serif; text-anchor: middle; fill: #262626" x="134.724825" y="462.446562" transform="rotate(-0 134.724825 462.446562)">$5</text>
     </g>
    </g>
    <g id="xtick_69">
     <g id="line2d_7">
      <g>
       <use xlink:href="#m2106040ffe" x="198.604081" y="448.28875" style="fill: #262626; stroke: #262626; stroke-width: 0.8"/>
      </g>
     </g>
     <g id="text_9">
      <text style="font-size: 10px; font-family: 'Arial', 'DejaVu Sans', 'Liberation Sans', 'Bitstream Vera Sans', sans-serif; text-anchor: middle; fill: #262626" x="198.604081" y="462.446562" transform="rotate(-0 198.604081 462.446562)">$10</text>
     </g>
    </g>
    <g id="xtick_70">
     <g id="line2d_8">
      <g>
       <use xlink:href="#m2106040ffe" x="262.483338" y="448.28875" style="fill: #262626; stroke: #262626; stroke-width: 0.8"/>
      </g>
     </g>
     <g id="text_10">
      <text style="font-size: 10px; font-family: 'Arial', 'DejaVu Sans', 'Liberation Sans', 'Bitstream Vera Sans', sans-serif; text-anchor: middle; fill: #262626" x="262.483338" y="462.446562" transform="rotate(-0 262.483338 462.446562)">$20</text>
     </g>
    </g>
    <g id="xtick_71">
     <g id="line2d_9">
      <g>
       <use xlink:href="#m2106040ffe" x="346.927122" y="448.28875" style="fill: #262626; stroke: #262626; stroke-width: 0.8"/>
      </g>
     </g>
     <g id="text_11">
      <text style="font-size: 10px; font-family: 'Arial', 'DejaVu Sans', 'Liberation Sans', 'Bitstream Vera Sans', sans-serif; text-anchor: middle; fill: #262626" x="346.927122" y="462.446562" transform="rotate(-0 346.927122 462.446562)">$50</text>
     </g>
    </g>
    <g id="xtick_72">
     <g id="line2d_10">
      <g>
       <use xlink:href="#m2106040ffe" x="410.806378" y="448.28875" style="fill: #262626; stroke: #262626; stroke-width: 0.8"/>
      </g>
     </g>
     <g id="text_12">
      <text style="font-size: 10px; font-family: 'Arial', 'DejaVu Sans', 'Liberation Sans', 'Bitstream Vera Sans', sans-serif; text-anchor: middle; fill: #262626" x="410.806378" y="462.446562" transform="rotate(-0 410.806378 462.446562)">$100</text>
     </g>
    </g>
    <g id="xtick_73">
     <g id="line2d_11">
      <g>
       <use xlink:href="#m2106040ffe" x="474.685634" y="448.28875" style="fill: #262626; stroke: #262626; stroke-width: 0.8"/>
      </g>
     </g>
     <g id="text_13">
      <text style="font-size: 10px; font-family: 'Arial', 'DejaVu Sans', 'Liberation Sans', 'Bitstream Vera Sans', sans-serif; text-anchor: middle; fill: #262626" x="474.685634" y="462.446562" transform="rotate(-0 474.685634 462.446562)">$200</text>
     </g>
    </g>
    <g id="xtick_74">
     <g id="line2d_12">
      <g>
       <use xlink:href="#m2106040ffe" x="559.129418" y="448.28875" style="fill: #262626; stroke: #262626; stroke-width: 0.8"/>
      </g>
     </g>
     <g id="text_14">
      <text style="font-size: 10px; font-family: 'Arial', 'DejaVu Sans', 'Liberation Sans', 'Bitstream Vera Sans', sans-serif; text-anchor: middle; fill: #262626" x="559.129418" y="462.446562" transform="rotate(-0 559.129418 462.446562)">$500</text>
     </g>
    </g>
    <g id="xtick_75">
     <g id="line2d_13">
      <g>
       <use xlink:href="#m2106040ffe" x="623.008675" y="448.28875" style="fill: #262626; stroke: #262626; stroke-width: 0.8"/>
      </g>
     </g>
     <g id="text_15">
      <text style="font-size: 10px; font-family: 'Arial', 'DejaVu Sans', 'Liberation Sans', 'Bitstream Vera Sans', sans-serif; text-anchor: middle; fill: #262626" x="623.008675" y="462.446562" transform="rotate(-0 623.008675 462.446562)">$1000</text>
     </g>
    </g>
    <g id="xtick_76">
     <g id="line2d_14">
      <g>
       <use xlink:href="#m2106040ffe" x="686.887931" y="448.28875" style="fill: #262626; stroke: #262626; stroke-width: 0.8"/>
      </g>
     </g>
     <g id="text_16">
      <text style="font-size: 10px; font-family: 'Arial', 'DejaVu Sans', 'Liberation Sans', 'Bitstream Vera Sans', sans-serif; text-anchor: middle; fill: #262626" x="686.887931" y="462.446562" transform="rotate(-0 686.887931 462.446562)">$2000</text>
     </g>
    </g>
    <g id="xtick_77">
     <g id="line2d_15">
      <g>
       <use xlink:href="#m2106040ffe" x="771.331715" y="448.28875" style="fill: #262626; stroke: #262626; stroke-width: 0.8"/>
      </g>
     </g>
     <g id="text_17">
      <text style="font-size: 10px; font-family: 'Arial', 'DejaVu Sans', 'Liberation Sans', 'Bitstream Vera Sans', sans-serif; text-anchor: middle; fill: #262626" x="771.331715" y="462.446562" transform="rotate(-0 771.331715 462.446562)">$5000</text>
     </g>
    </g>
    <g id="xtick_78">
     <g id="line2d_16">
      <defs>
       <path id="m0459fe91ea" d="M 0 0 
L 0 2 
" style="stroke: #262626; stroke-width: 0.6"/>
      </defs>
      <g>
       <use xlink:href="#m0459fe91ea" x="87.648011" y="448.28875" style="fill: #262626; stroke: #262626; stroke-width: 0.6"/>
      </g>
     </g>
    </g>
    <g id="xtick_79">
     <g id="line2d_17">
      <g>
       <use xlink:href="#m0459fe91ea" x="114.160298" y="448.28875" style="fill: #262626; stroke: #262626; stroke-width: 0.6"/>
      </g>
     </g>
    </g>
    <g id="xtick_80">
     <g id="line2d_18">
      <g>
       <use xlink:href="#m0459fe91ea" x="151.527267" y="448.28875" style="fill: #262626; stroke: #262626; stroke-width: 0.6"/>
      </g>
     </g>
    </g>
    <g id="xtick_81">
     <g id="line2d_19">
      <g>
       <use xlink:href="#m0459fe91ea" x="165.73353" y="448.28875" style="fill: #262626; stroke: #262626; stroke-width: 0.6"/>
      </g>
     </g>
    </g>
    <g id="xtick_82">
     <g id="line2d_20">
      <g>
       <use xlink:href="#m0459fe91ea" x="178.039554" y="448.28875" style="fill: #262626; stroke: #262626; stroke-width: 0.6"/>
      </g>
     </g>
    </g>
    <g id="xtick_83">
     <g id="line2d_21">
      <g>
       <use xlink:href="#m0459fe91ea" x="188.894237" y="448.28875" style="fill: #262626; stroke: #262626; stroke-width: 0.6"/>
      </g>
     </g>
    </g>
    <g id="xtick_84">
     <g id="line2d_22">
      <g>
       <use xlink:href="#m0459fe91ea" x="299.850307" y="448.28875" style="fill: #262626; stroke: #262626; stroke-width: 0.6"/>
      </g>
     </g>
    </g>
    <g id="xtick_85">
     <g id="line2d_23">
      <g>
       <use xlink:href="#m0459fe91ea" x="326.362594" y="448.28875" style="fill: #262626; stroke: #262626; stroke-width: 0.6"/>
      </g>
     </g>
    </g>
    <g id="xtick_86">
     <g id="line2d_24">
      <g>
       <use xlink:href="#m0459fe91ea" x="363.729564" y="448.28875" style="fill: #262626; stroke: #262626; stroke-width: 0.6"/>
      </g>
     </g>
    </g>
    <g id="xtick_87">
     <g id="line2d_25">
      <g>
       <use xlink:href="#m0459fe91ea" x="377.935826" y="448.28875" style="fill: #262626; stroke: #262626; stroke-width: 0.6"/>
      </g>
     </g>
    </g>
    <g id="xtick_88">
     <g id="line2d_26">
      <g>
       <use xlink:href="#m0459fe91ea" x="390.241851" y="448.28875" style="fill: #262626; stroke: #262626; stroke-width: 0.6"/>
      </g>
     </g>
    </g>
    <g id="xtick_89">
     <g id="line2d_27">
      <g>
       <use xlink:href="#m0459fe91ea" x="401.096533" y="448.28875" style="fill: #262626; stroke: #262626; stroke-width: 0.6"/>
      </g>
     </g>
    </g>
    <g id="xtick_90">
     <g id="line2d_28">
      <g>
       <use xlink:href="#m0459fe91ea" x="512.052604" y="448.28875" style="fill: #262626; stroke: #262626; stroke-width: 0.6"/>
      </g>
     </g>
    </g>
    <g id="xtick_91">
     <g id="line2d_29">
      <g>
       <use xlink:href="#m0459fe91ea" x="538.564891" y="448.28875" style="fill: #262626; stroke: #262626; stroke-width: 0.6"/>
      </g>
     </g>
    </g>
    <g id="xtick_92">
     <g id="line2d_30">
      <g>
       <use xlink:href="#m0459fe91ea" x="575.93186" y="448.28875" style="fill: #262626; stroke: #262626; stroke-width: 0.6"/>
      </g>
     </g>
    </g>
    <g id="xtick_93">
     <g id="line2d_31">
      <g>
       <use xlink:href="#m0459fe91ea" x="590.138123" y="448.28875" style="fill: #262626; stroke: #262626; stroke-width: 0.6"/>
      </g>
     </g>
    </g>
    <g id="xtick_94">
     <g id="line2d_32">
      <g>
       <use xlink:href="#m0459fe91ea" x="602.444147" y="448.28875" style="fill: #262626; stroke: #262626; stroke-width: 0.6"/>
      </g>
     </g>
    </g>
    <g id="xtick_95">
     <g id="line2d_33">
      <g>
       <use xlink:href="#m0459fe91ea" x="613.29883" y="448.28875" style="fill: #262626; stroke: #262626; stroke-width: 0.6"/>
      </g>
     </g>
    </g>
    <g id="xtick_96">
     <g id="line2d_34">
      <g>
       <use xlink:href="#m0459fe91ea" x="724.254901" y="448.28875" style="fill: #262626; stroke: #262626; stroke-width: 0.6"/>
      </g>
     </g>
    </g>
    <g id="xtick_97">
     <g id="line2d_35">
      <g>
       <use xlink:href="#m0459fe91ea" x="750.767187" y="448.28875" style="fill: #262626; stroke: #262626; stroke-width: 0.6"/>
      </g>
     </g>
    </g>
    <g id="xtick_98">
     <g id="line2d_36">
      <g>
       <use xlink:href="#m0459fe91ea" x="788.134157" y="448.28875" style="fill: #262626; stroke: #262626; stroke-width: 0.6"/>
      </g>
     </g>
    </g>
    <g id="xtick_99">
     <g id="line2d_37">
      <g>
       <use xlink:href="#m0459fe91ea" x="802.34042" y="448.28875" style="fill: #262626; stroke: #262626; stroke-width: 0.6"/>
      </g>
     </g>
    </g>
    <g id="text_18">
     <text style="font-size: 10px; font-family: 'Arial', 'DejaVu Sans', 'Liberation Sans', 'Bitstream Vera Sans', sans-serif; text-anchor: middle; fill: #262626" x="410.4" y="475.71375" transform="rotate(-0 410.4 475.71375)">Income or consumption (month)</text>
    </g>
   </g>
   <g id="matplotlib.axis_6"/>
   <g id="FillBetweenPolyCollection_7">
    <defs>
     <path id="mbd8d32cfb1" d="M 426.04529 -36.729688 
L 426.04529 -36.735224 
L 427.992895 -36.738551 
L 429.940501 -36.743537 
L 431.888106 -36.750809 
L 433.835711 -36.761137 
L 435.783317 -36.77542 
L 437.730922 -36.794653 
L 439.678527 -36.819874 
L 441.626132 -36.852091 
L 443.573738 -36.892186 
L 445.521343 -36.940826 
L 447.468948 -36.99837 
L 449.416554 -37.06481 
L 451.364159 -37.139742 
L 453.311764 -37.22239 
L 455.259369 -37.311666 
L 457.206975 -37.406277 
L 459.15458 -37.504838 
L 461.102185 -37.605991 
L 463.049791 -37.708497 
L 464.997396 -37.811276 
L 466.945001 -37.913415 
L 468.892606 -38.014116 
L 470.840212 -38.112633 
L 472.787817 -38.208185 
L 474.735422 -38.299909 
L 476.683028 -38.386839 
L 478.630633 -38.467945 
L 480.578238 -38.542218 
L 482.525843 -38.608801 
L 484.473449 -38.667135 
L 486.421054 -38.717096 
L 488.368659 -38.759102 
L 490.316265 -38.794155 
L 492.26387 -38.823824 
L 494.211475 -38.850159 
L 496.15908 -38.875542 
L 498.106686 -38.902522 
L 500.054291 -38.933626 
L 502.001896 -38.971203 
L 503.949502 -39.017296 
L 505.897107 -39.073571 
L 507.844712 -39.141291 
L 509.792317 -39.22134 
L 511.739923 -39.314298 
L 513.687528 -39.420532 
L 515.635133 -39.540337 
L 517.582739 -39.674091 
L 519.530344 -39.822429 
L 521.477949 -39.986426 
L 523.425554 -40.167762 
L 525.37316 -40.36884 
L 527.320765 -40.59283 
L 529.26837 -40.843601 
L 531.215976 -41.125529 
L 533.163581 -41.443175 
L 535.111186 -41.800866 
L 537.058791 -42.202224 
L 539.006397 -42.649703 
L 540.954002 -43.144226 
L 542.901607 -43.684975 
L 544.849213 -44.269388 
L 546.796818 -44.893372 
L 548.744423 -45.551714 
L 550.692028 -46.238623 
L 552.639634 -46.948313 
L 554.587239 -47.675522 
L 556.534844 -48.4159 
L 558.48245 -49.166177 
L 560.430055 -49.924135 
L 562.37766 -50.688399 
L 564.325266 -51.458135 
L 566.272871 -52.232758 
L 568.220476 -53.011746 
L 570.168081 -53.794641 
L 572.115687 -54.581245 
L 574.063292 -55.371993 
L 576.010897 -56.168425 
L 577.958503 -56.973617 
L 579.906108 -57.792486 
L 581.853713 -58.631831 
L 583.801318 -59.500076 
L 585.748924 -60.406706 
L 587.696529 -61.361465 
L 589.644134 -62.373439 
L 591.59174 -63.450197 
L 593.539345 -64.59713 
L 595.48695 -65.817174 
L 597.434555 -67.110982 
L 599.382161 -68.477581 
L 601.329766 -69.915456 
L 603.277371 -71.423914 
L 605.224977 -73.004523 
L 607.172582 -74.662404 
L 609.120187 -76.407132 
L 611.067792 -78.25309 
L 613.015398 -80.219139 
L 614.963003 -82.327607 
L 616.910608 -84.602665 
L 618.858214 -87.068243 
L 620.805819 -89.745696 
L 622.753424 -92.651472 
L 624.701029 -95.794987 
L 626.648635 -99.176946 
L 628.59624 -102.788234 
L 630.543845 -106.609491 
L 632.491451 -110.6114 
L 634.439056 -114.755658 
L 636.386661 -118.996567 
L 638.334266 -123.283102 
L 640.281872 -127.561296 
L 642.229477 -131.776758 
L 644.177082 -135.87708 
L 646.124688 -139.813927 
L 648.072293 -143.544601 
L 650.019898 -147.032937 
L 651.967503 -150.249477 
L 653.915109 -153.170972 
L 655.862714 -155.779403 
L 657.810319 -158.06077 
L 659.757925 -160.00398 
L 661.70553 -161.600127 
L 663.653135 -162.842371 
L 665.60074 -163.726484 
L 667.548346 -164.251943 
L 669.495951 -164.423338 
L 671.443556 -164.25172 
L 673.391162 -163.75553 
L 675.338767 -162.960815 
L 677.286372 -161.900555 
L 679.233977 -160.613121 
L 681.181583 -159.140035 
L 683.129188 -157.523326 
L 685.076793 -155.802838 
L 687.024399 -154.013817 
L 688.972004 -152.185025 
L 690.919609 -150.337531 
L 692.867215 -148.484185 
L 694.81482 -146.629705 
L 696.762425 -144.771248 
L 698.71003 -142.899345 
L 700.657636 -140.999079 
L 702.605241 -139.051455 
L 704.552846 -137.034937 
L 706.500452 -134.927138 
L 708.448057 -132.706621 
L 710.395662 -130.354742 
L 712.343267 -127.857382 
L 714.290873 -125.206408 
L 716.238478 -122.400662 
L 718.186083 -119.446345 
L 720.133689 -116.35671 
L 722.081294 -113.151114 
L 724.028899 -109.853553 
L 725.976504 -106.490904 
L 727.92411 -103.091112 
L 729.871715 -99.681557 
L 731.81932 -96.287758 
L 733.766926 -92.932505 
L 735.714531 -89.635396 
L 737.662136 -86.412718 
L 739.609741 -83.277543 
L 741.557347 -80.23994 
L 743.504952 -77.30722 
L 745.452557 -74.484167 
L 747.400163 -71.773262 
L 749.347768 -69.17493 
L 751.295373 -66.687837 
L 753.242978 -64.309281 
L 755.190584 -62.035667 
L 757.138189 -59.863037 
L 759.085794 -57.787635 
L 761.0334 -55.806412 
L 762.981005 -53.917445 
L 764.92861 -52.1202 
L 766.876215 -50.415618 
L 768.823821 -48.806014 
L 770.771426 -47.294795 
L 772.719031 -45.886045 
L 774.666637 -44.583996 
L 776.614242 -43.392466 
L 778.561847 -42.314297 
L 780.509452 -41.350868 
L 782.457058 -40.501724 
L 784.404663 -39.764358 
L 786.352268 -39.134168 
L 788.299874 -38.604597 
L 790.247479 -38.167421 
L 792.195084 -37.813169 
L 794.142689 -37.53161 
L 796.090295 -37.312261 
L 798.0379 -37.144866 
L 799.985505 -37.019795 
L 801.933111 -36.928349 
L 803.880716 -36.86295 
L 805.828321 -36.81722 
L 807.775926 -36.785964 
L 809.723532 -36.765091 
L 811.671137 -36.751474 
L 813.618742 -36.742798 
L 813.618742 -36.729688 
L 813.618742 -36.729688 
L 811.671137 -36.729688 
L 809.723532 -36.729688 
L 807.775926 -36.729688 
L 805.828321 -36.729688 
L 803.880716 -36.729688 
L 801.933111 -36.729688 
L 799.985505 -36.729688 
L 798.0379 -36.729688 
L 796.090295 -36.729688 
L 794.142689 -36.729688 
L 792.195084 -36.729688 
L 790.247479 -36.729688 
L 788.299874 -36.729688 
L 786.352268 -36.729688 
L 784.404663 -36.729688 
L 782.457058 -36.729688 
L 780.509452 -36.729688 
L 778.561847 -36.729688 
L 776.614242 -36.729688 
L 774.666637 -36.729688 
L 772.719031 -36.729688 
L 770.771426 -36.729688 
L 768.823821 -36.729688 
L 766.876215 -36.729688 
L 764.92861 -36.729688 
L 762.981005 -36.729688 
L 761.0334 -36.729688 
L 759.085794 -36.729688 
L 757.138189 -36.729688 
L 755.190584 -36.729688 
L 753.242978 -36.729688 
L 751.295373 -36.729688 
L 749.347768 -36.729688 
L 747.400163 -36.729688 
L 745.452557 -36.729688 
L 743.504952 -36.729688 
L 741.557347 -36.729688 
L 739.609741 -36.729688 
L 737.662136 -36.729688 
L 735.714531 -36.729688 
L 733.766926 -36.729688 
L 731.81932 -36.729688 
L 729.871715 -36.729688 
L 727.92411 -36.729688 
L 725.976504 -36.729688 
L 724.028899 -36.729688 
L 722.081294 -36.729688 
L 720.133689 -36.729688 
L 718.186083 -36.729688 
L 716.238478 -36.729688 
L 714.290873 -36.729688 
L 712.343267 -36.729688 
L 710.395662 -36.729688 
L 708.448057 -36.729688 
L 706.500452 -36.729688 
L 704.552846 -36.729688 
L 702.605241 -36.729688 
L 700.657636 -36.729688 
L 698.71003 -36.729688 
L 696.762425 -36.729688 
L 694.81482 -36.729688 
L 692.867215 -36.729688 
L 690.919609 -36.729688 
L 688.972004 -36.729688 
L 687.024399 -36.729688 
L 685.076793 -36.729688 
L 683.129188 -36.729688 
L 681.181583 -36.729688 
L 679.233977 -36.729688 
L 677.286372 -36.729688 
L 675.338767 -36.729688 
L 673.391162 -36.729688 
L 671.443556 -36.729688 
L 669.495951 -36.729688 
L 667.548346 -36.729688 
L 665.60074 -36.729688 
L 663.653135 -36.729688 
L 661.70553 -36.729688 
L 659.757925 -36.729688 
L 657.810319 -36.729688 
L 655.862714 -36.729688 
L 653.915109 -36.729688 
L 651.967503 -36.729688 
L 650.019898 -36.729688 
L 648.072293 -36.729688 
L 646.124688 -36.729688 
L 644.177082 -36.729688 
L 642.229477 -36.729688 
L 640.281872 -36.729688 
L 638.334266 -36.729688 
L 636.386661 -36.729688 
L 634.439056 -36.729688 
L 632.491451 -36.729688 
L 630.543845 -36.729688 
L 628.59624 -36.729688 
L 626.648635 -36.729688 
L 624.701029 -36.729688 
L 622.753424 -36.729688 
L 620.805819 -36.729688 
L 618.858214 -36.729688 
L 616.910608 -36.729688 
L 614.963003 -36.729688 
L 613.015398 -36.729688 
L 611.067792 -36.729688 
L 609.120187 -36.729688 
L 607.172582 -36.729688 
L 605.224977 -36.729688 
L 603.277371 -36.729688 
L 601.329766 -36.729688 
L 599.382161 -36.729688 
L 597.434555 -36.729688 
L 595.48695 -36.729688 
L 593.539345 -36.729688 
L 591.59174 -36.729688 
L 589.644134 -36.729688 
L 587.696529 -36.729688 
L 585.748924 -36.729688 
L 583.801318 -36.729688 
L 581.853713 -36.729688 
L 579.906108 -36.729688 
L 577.958503 -36.729688 
L 576.010897 -36.729688 
L 574.063292 -36.729688 
L 572.115687 -36.729688 
L 570.168081 -36.729688 
L 568.220476 -36.729688 
L 566.272871 -36.729688 
L 564.325266 -36.729688 
L 562.37766 -36.729688 
L 560.430055 -36.729688 
L 558.48245 -36.729688 
L 556.534844 -36.729688 
L 554.587239 -36.729688 
L 552.639634 -36.729688 
L 550.692028 -36.729688 
L 548.744423 -36.729688 
L 546.796818 -36.729688 
L 544.849213 -36.729688 
L 542.901607 -36.729688 
L 540.954002 -36.729688 
L 539.006397 -36.729688 
L 537.058791 -36.729688 
L 535.111186 -36.729688 
L 533.163581 -36.729688 
L 531.215976 -36.729688 
L 529.26837 -36.729688 
L 527.320765 -36.729688 
L 525.37316 -36.729688 
L 523.425554 -36.729688 
L 521.477949 -36.729688 
L 519.530344 -36.729688 
L 517.582739 -36.729688 
L 515.635133 -36.729688 
L 513.687528 -36.729688 
L 511.739923 -36.729688 
L 509.792317 -36.729688 
L 507.844712 -36.729688 
L 505.897107 -36.729688 
L 503.949502 -36.729688 
L 502.001896 -36.729688 
L 500.054291 -36.729688 
L 498.106686 -36.729688 
L 496.15908 -36.729688 
L 494.211475 -36.729688 
L 492.26387 -36.729688 
L 490.316265 -36.729688 
L 488.368659 -36.729688 
L 486.421054 -36.729688 
L 484.473449 -36.729688 
L 482.525843 -36.729688 
L 480.578238 -36.729688 
L 478.630633 -36.729688 
L 476.683028 -36.729688 
L 474.735422 -36.729688 
L 472.787817 -36.729688 
L 470.840212 -36.729688 
L 468.892606 -36.729688 
L 466.945001 -36.729688 
L 464.997396 -36.729688 
L 463.049791 -36.729688 
L 461.102185 -36.729688 
L 459.15458 -36.729688 
L 457.206975 -36.729688 
L 455.259369 -36.729688 
L 453.311764 -36.729688 
L 451.364159 -36.729688 
L 449.416554 -36.729688 
L 447.468948 -36.729688 
L 445.521343 -36.729688 
L 443.573738 -36.729688 
L 441.626132 -36.729688 
L 439.678527 -36.729688 
L 437.730922 -36.729688 
L 435.783317 -36.729688 
L 433.835711 -36.729688 
L 431.888106 -36.729688 
L 429.940501 -36.729688 
L 427.992895 -36.729688 
L 426.04529 -36.729688 
z
" style="stroke: #4c72b0; stroke-opacity: 0.2"/>
    </defs>
    <g>
     <use xlink:href="#mbd8d32cfb1" x="0" y="485.018437" style="fill: #4c72b0; fill-opacity: 0.2; stroke: #4c72b0; stroke-opacity: 0.2"/>
    </g>
   </g>
   <g id="FillBetweenPolyCollection_8">
    <defs>
     <path id="m9c5b013bbc" d="M 426.04529 -36.735224 
L 426.04529 -36.729688 
L 427.992895 -36.729688 
L 429.940501 -36.729688 
L 431.888106 -36.729688 
L 433.835711 -36.729688 
L 435.783317 -36.729688 
L 437.730922 -36.729688 
L 439.678527 -36.729688 
L 441.626132 -36.729688 
L 443.573738 -36.729688 
L 445.521343 -36.729688 
L 447.468948 -36.729688 
L 449.416554 -36.729688 
L 451.364159 -36.729688 
L 453.311764 -36.729688 
L 455.259369 -36.729688 
L 457.206975 -36.729688 
L 459.15458 -36.729688 
L 461.102185 -36.729688 
L 463.049791 -36.729688 
L 464.997396 -36.729688 
L 466.945001 -36.729688 
L 468.892606 -36.729688 
L 470.840212 -36.729688 
L 472.787817 -36.729688 
L 474.735422 -36.729688 
L 476.683028 -36.729688 
L 478.630633 -36.729688 
L 480.578238 -36.729688 
L 482.525843 -36.729688 
L 484.473449 -36.729688 
L 486.421054 -36.729688 
L 488.368659 -36.729688 
L 490.316265 -36.729688 
L 492.26387 -36.729688 
L 494.211475 -36.729688 
L 496.15908 -36.729688 
L 498.106686 -36.729688 
L 500.054291 -36.729688 
L 502.001896 -36.729688 
L 503.949502 -36.729688 
L 505.897107 -36.729688 
L 507.844712 -36.729688 
L 509.792317 -36.729688 
L 511.739923 -36.729688 
L 513.687528 -36.729688 
L 515.635133 -36.729688 
L 517.582739 -36.729688 
L 519.530344 -36.729688 
L 521.477949 -36.729688 
L 523.425554 -36.729688 
L 525.37316 -36.729688 
L 527.320765 -36.729688 
L 529.26837 -36.729688 
L 531.215976 -36.729688 
L 533.163581 -36.729688 
L 535.111186 -36.729688 
L 537.058791 -36.729688 
L 539.006397 -36.729688 
L 540.954002 -36.729688 
L 542.901607 -36.729688 
L 544.849213 -36.729688 
L 546.796818 -36.729688 
L 548.744423 -36.729688 
L 550.692028 -36.729688 
L 552.639634 -36.729688 
L 554.587239 -36.729688 
L 556.534844 -36.729688 
L 558.48245 -36.729688 
L 560.430055 -36.729688 
L 562.37766 -36.729688 
L 564.325266 -36.729688 
L 566.272871 -36.729688 
L 568.220476 -36.729688 
L 570.168081 -36.729688 
L 572.115687 -36.729688 
L 574.063292 -36.729688 
L 576.010897 -36.729688 
L 577.958503 -36.729688 
L 579.906108 -36.729688 
L 581.853713 -36.729688 
L 583.801318 -36.729688 
L 585.748924 -36.729688 
L 587.696529 -36.729688 
L 589.644134 -36.729688 
L 591.59174 -36.729688 
L 593.539345 -36.729688 
L 595.48695 -36.729688 
L 597.434555 -36.729688 
L 599.382161 -36.729688 
L 601.329766 -36.729688 
L 603.277371 -36.729688 
L 605.224977 -36.729688 
L 607.172582 -36.729688 
L 609.120187 -36.729688 
L 611.067792 -36.729688 
L 613.015398 -36.729688 
L 613.29883 -36.729688 
L 613.29883 -80.523218 
L 613.29883 -80.523218 
L 613.015398 -80.219139 
L 611.067792 -78.25309 
L 609.120187 -76.407132 
L 607.172582 -74.662404 
L 605.224977 -73.004523 
L 603.277371 -71.423914 
L 601.329766 -69.915456 
L 599.382161 -68.477581 
L 597.434555 -67.110982 
L 595.48695 -65.817174 
L 593.539345 -64.59713 
L 591.59174 -63.450197 
L 589.644134 -62.373439 
L 587.696529 -61.361465 
L 585.748924 -60.406706 
L 583.801318 -59.500076 
L 581.853713 -58.631831 
L 579.906108 -57.792486 
L 577.958503 -56.973617 
L 576.010897 -56.168425 
L 574.063292 -55.371993 
L 572.115687 -54.581245 
L 570.168081 -53.794641 
L 568.220476 -53.011746 
L 566.272871 -52.232758 
L 564.325266 -51.458135 
L 562.37766 -50.688399 
L 560.430055 -49.924135 
L 558.48245 -49.166177 
L 556.534844 -48.4159 
L 554.587239 -47.675522 
L 552.639634 -46.948313 
L 550.692028 -46.238623 
L 548.744423 -45.551714 
L 546.796818 -44.893372 
L 544.849213 -44.269388 
L 542.901607 -43.684975 
L 540.954002 -43.144226 
L 539.006397 -42.649703 
L 537.058791 -42.202224 
L 535.111186 -41.800866 
L 533.163581 -41.443175 
L 531.215976 -41.125529 
L 529.26837 -40.843601 
L 527.320765 -40.59283 
L 525.37316 -40.36884 
L 523.425554 -40.167762 
L 521.477949 -39.986426 
L 519.530344 -39.822429 
L 517.582739 -39.674091 
L 515.635133 -39.540337 
L 513.687528 -39.420532 
L 511.739923 -39.314298 
L 509.792317 -39.22134 
L 507.844712 -39.141291 
L 505.897107 -39.073571 
L 503.949502 -39.017296 
L 502.001896 -38.971203 
L 500.054291 -38.933626 
L 498.106686 -38.902522 
L 496.15908 -38.875542 
L 494.211475 -38.850159 
L 492.26387 -38.823824 
L 490.316265 -38.794155 
L 488.368659 -38.759102 
L 486.421054 -38.717096 
L 484.473449 -38.667135 
L 482.525843 -38.608801 
L 480.578238 -38.542218 
L 478.630633 -38.467945 
L 476.683028 -38.386839 
L 474.735422 -38.299909 
L 472.787817 -38.208185 
L 470.840212 -38.112633 
L 468.892606 -38.014116 
L 466.945001 -37.913415 
L 464.997396 -37.811276 
L 463.049791 -37.708497 
L 461.102185 -37.605991 
L 459.15458 -37.504838 
L 457.206975 -37.406277 
L 455.259369 -37.311666 
L 453.311764 -37.22239 
L 451.364159 -37.139742 
L 449.416554 -37.06481 
L 447.468948 -36.99837 
L 445.521343 -36.940826 
L 443.573738 -36.892186 
L 441.626132 -36.852091 
L 439.678527 -36.819874 
L 437.730922 -36.794653 
L 435.783317 -36.77542 
L 433.835711 -36.761137 
L 431.888106 -36.750809 
L 429.940501 -36.743537 
L 427.992895 -36.738551 
L 426.04529 -36.735224 
z
"/>
    </defs>
    <g>
     <use xlink:href="#m9c5b013bbc" x="0" y="485.018437" style="fill: #4c72b0; fill-opacity: 0.3"/>
    </g>
   </g>
   <g id="line2d_38">
    <path d="M 426.04529 448.283213 
L 441.626132 448.166347 
L 451.364159 447.878696 
L 464.997396 447.207161 
L 480.578238 446.476219 
L 490.316265 446.224283 
L 507.844712 445.877147 
L 515.635133 445.4781 
L 523.425554 444.850676 
L 529.26837 444.174836 
L 535.111186 443.217571 
L 539.006397 442.368735 
L 542.901607 441.333462 
L 548.744423 439.466724 
L 556.534844 436.602538 
L 568.220476 432.006692 
L 579.906108 427.225952 
L 585.748924 424.611731 
L 589.644134 422.644998 
L 593.539345 420.421308 
L 597.434555 417.907456 
L 601.329766 415.102982 
L 605.224977 412.013914 
L 609.120187 408.611305 
L 613.015398 404.799298 
L 614.963003 402.69083 
L 616.910608 400.415772 
L 618.858214 397.950195 
L 620.805819 395.272741 
L 622.753424 392.366966 
L 624.701029 389.223451 
L 626.648635 385.841491 
L 630.543845 378.408946 
L 634.439056 370.26278 
L 644.177082 349.141358 
L 648.072293 341.473836 
L 650.019898 337.9855 
L 651.967503 334.768961 
L 653.915109 331.847466 
L 655.862714 329.239034 
L 657.810319 326.957667 
L 659.757925 325.014457 
L 661.70553 323.418311 
L 663.653135 322.176066 
L 665.60074 321.291954 
L 667.548346 320.766495 
L 669.495951 320.595099 
L 671.443556 320.766717 
L 673.391162 321.262907 
L 675.338767 322.057622 
L 677.286372 323.117882 
L 679.233977 324.405317 
L 681.181583 325.878403 
L 685.076793 329.215599 
L 690.919609 334.680907 
L 700.657636 344.019358 
L 704.552846 347.983501 
L 708.448057 352.311816 
L 712.343267 357.161056 
L 716.238478 362.617775 
L 720.133689 368.661727 
L 724.028899 375.164885 
L 737.662136 398.605719 
L 741.557347 404.778498 
L 745.452557 410.534271 
L 749.347768 415.843508 
L 753.242978 420.709156 
L 757.138189 425.1554 
L 761.0334 429.212026 
L 764.92861 432.898238 
L 768.823821 436.212424 
L 772.719031 439.132393 
L 776.614242 441.625972 
L 780.509452 443.66757 
L 784.404663 445.25408 
L 788.299874 446.413841 
L 792.195084 447.205269 
L 796.090295 447.706176 
L 799.985505 447.998643 
L 805.828321 448.201218 
L 813.618742 448.27564 
L 813.618742 448.27564 
" style="fill: none; stroke: #4c72b0; stroke-width: 1.5; stroke-linecap: round"/>
   </g>
   <g id="line2d_39">
    <path d="M 7.2 448.28875 
L 813.6 448.28875 
" style="fill: none; stroke: #808080; stroke-width: 0.5; stroke-linecap: round"/>
   </g>
   <g id="text_19">
    <text style="font-size: 10px; font-family: 'Arial', 'DejaVu Sans', 'Liberation Sans', 'Bitstream Vera Sans', sans-serif; text-anchor: middle" x="672.214299" y="446.184062" transform="rotate(-0 672.214299 446.184062)">Sweden (2026)</text>
   </g>
  </g>
  <g id="line2d_40">
   <path d="M 401.096533 448.28875 
L 401.096533 24.45375 
" style="fill: none; stroke-dasharray: 0.8,1.32; stroke-dashoffset: 0; stroke: #d3d3d3; stroke-width: 0.8"/>
  </g>
  <g id="line2d_41">
   <path d="M 613.29883 448.28875 
L 613.29883 24.45375 
" style="fill: none; stroke-dasharray: 0.8,1.32; stroke-dashoffset: 0; stroke: #d3d3d3; stroke-width: 0.8"/>
  </g>
 </g>
</svg>
