<?xml version="1.0" encoding="utf-8" standalone="no"?>
<!DOCTYPE svg PUBLIC "-//W3C//DTD SVG 1.1//EN"
  "http://www.w3.org/Graphics/SVG/1.1/DTD/svg11.dtd">
<svg xmlns:xlink="http://www.w3.org/1999/xlink" width="828pt" height="158.4pt" viewBox="0 0 828 158.4" xmlns="http://www.w3.org/2000/svg" version="1.1">
 <metadata>
  <rdf:RDF xmlns:dc="http://purl.org/dc/elements/1.1/" xmlns:cc="http://creativecommons.org/ns#" xmlns:rdf="http://www.w3.org/1999/02/22-rdf-syntax-ns#">
   <cc:Work>
    <dc:type rdf:resource="http://purl.org/dc/dcmitype/StillImage"/>
    <dc:date>2026-05-22T10:03:38.486598</dc:date>
    <dc:format>image/svg+xml</dc:format>
    <dc:creator>
     <cc:Agent>
      <dc:title>Matplotlib v3.10.9, https://matplotlib.org/</dc:title>
     </cc:Agent>
    </dc:creator>
   </cc:Work>
  </rdf:RDF>
 </metadata>
 <defs>
  <style type="text/css">*{stroke-linejoin: round; stroke-linecap: butt}</style>
 </defs>
 <g id="figure_1">
  <g id="patch_1">
   <path d="M 0 158.4 
L 828 158.4 
L 828 0 
L 0 0 
z
" style="fill: #ffffff"/>
  </g>
  <g id="axes_1">
   <g id="patch_2">
    <path d="M 33.12 123.552 
L 794.88 123.552 
L 794.88 7.92 
L 33.12 7.92 
z
" style="fill: #ffffff"/>
   </g>
   <g id="matplotlib.axis_1">
    <g id="xtick_1">
     <g id="line2d_1">
      <defs>
       <path id="mabfd9040aa" d="M 0 0 
L 0 3.5 
" style="stroke: #262626; stroke-width: 0.8"/>
      </defs>
      <g>
       <use xlink:href="#mabfd9040aa" x="295.436817" y="123.552" style="fill: #262626; stroke: #262626; stroke-width: 0.8"/>
      </g>
     </g>
     <g id="text_1">
      <text style="font-size: 10px; font-family: 'Arial', 'DejaVu Sans', 'Liberation Sans', 'Bitstream Vera Sans', sans-serif; text-anchor: middle; fill: #262626" x="295.436817" y="137.709812" transform="rotate(-0 295.436817 137.709812)">$1</text>
     </g>
    </g>
    <g id="xtick_2">
     <g id="line2d_2">
      <g>
       <use xlink:href="#mabfd9040aa" x="356.131213" y="123.552" style="fill: #262626; stroke: #262626; stroke-width: 0.8"/>
      </g>
     </g>
     <g id="text_2">
      <text style="font-size: 10px; font-family: 'Arial', 'DejaVu Sans', 'Liberation Sans', 'Bitstream Vera Sans', sans-serif; text-anchor: middle; fill: #262626" x="356.131213" y="137.709812" transform="rotate(-0 356.131213 137.709812)">$2</text>
     </g>
    </g>
    <g id="xtick_3">
     <g id="line2d_3">
      <g>
       <use xlink:href="#mabfd9040aa" x="436.364841" y="123.552" style="fill: #262626; stroke: #262626; stroke-width: 0.8"/>
      </g>
     </g>
     <g id="text_3">
      <text style="font-size: 10px; font-family: 'Arial', 'DejaVu Sans', 'Liberation Sans', 'Bitstream Vera Sans', sans-serif; text-anchor: middle; fill: #262626" x="436.364841" y="137.709812" transform="rotate(-0 436.364841 137.709812)">$5</text>
     </g>
    </g>
    <g id="xtick_4">
     <g id="line2d_4">
      <g>
       <use xlink:href="#mabfd9040aa" x="497.059237" y="123.552" style="fill: #262626; stroke: #262626; stroke-width: 0.8"/>
      </g>
     </g>
     <g id="text_4">
      <text style="font-size: 10px; font-family: 'Arial', 'DejaVu Sans', 'Liberation Sans', 'Bitstream Vera Sans', sans-serif; text-anchor: middle; fill: #262626" x="497.059237" y="137.709812" transform="rotate(-0 497.059237 137.709812)">$10</text>
     </g>
    </g>
    <g id="xtick_5">
     <g id="line2d_5">
      <g>
       <use xlink:href="#mabfd9040aa" x="557.753634" y="123.552" style="fill: #262626; stroke: #262626; stroke-width: 0.8"/>
      </g>
     </g>
     <g id="text_5">
      <text style="font-size: 10px; font-family: 'Arial', 'DejaVu Sans', 'Liberation Sans', 'Bitstream Vera Sans', sans-serif; text-anchor: middle; fill: #262626" x="557.753634" y="137.709812" transform="rotate(-0 557.753634 137.709812)">$20</text>
     </g>
    </g>
    <g id="xtick_6">
     <g id="line2d_6">
      <g>
       <use xlink:href="#mabfd9040aa" x="637.987261" y="123.552" style="fill: #262626; stroke: #262626; stroke-width: 0.8"/>
      </g>
     </g>
     <g id="text_6">
      <text style="font-size: 10px; font-family: 'Arial', 'DejaVu Sans', 'Liberation Sans', 'Bitstream Vera Sans', sans-serif; text-anchor: middle; fill: #262626" x="637.987261" y="137.709812" transform="rotate(-0 637.987261 137.709812)">$50</text>
     </g>
    </g>
    <g id="xtick_7">
     <g id="line2d_7">
      <g>
       <use xlink:href="#mabfd9040aa" x="698.681658" y="123.552" style="fill: #262626; stroke: #262626; stroke-width: 0.8"/>
      </g>
     </g>
     <g id="text_7">
      <text style="font-size: 10px; font-family: 'Arial', 'DejaVu Sans', 'Liberation Sans', 'Bitstream Vera Sans', sans-serif; text-anchor: middle; fill: #262626" x="698.681658" y="137.709812" transform="rotate(-0 698.681658 137.709812)">$100</text>
     </g>
    </g>
    <g id="xtick_8">
     <g id="line2d_8">
      <g>
       <use xlink:href="#mabfd9040aa" x="759.376054" y="123.552" style="fill: #262626; stroke: #262626; stroke-width: 0.8"/>
      </g>
     </g>
     <g id="text_8">
      <text style="font-size: 10px; font-family: 'Arial', 'DejaVu Sans', 'Liberation Sans', 'Bitstream Vera Sans', sans-serif; text-anchor: middle; fill: #262626" x="759.376054" y="137.709812" transform="rotate(-0 759.376054 137.709812)">$200</text>
     </g>
    </g>
    <g id="xtick_9">
     <g id="line2d_9">
      <defs>
       <path id="m9cb1a36abe" d="M 0 0 
L 0 2 
" style="stroke: #262626; stroke-width: 0.6"/>
      </defs>
      <g>
       <use xlink:href="#m9cb1a36abe" x="33.12" y="123.552" style="fill: #262626; stroke: #262626; stroke-width: 0.6"/>
      </g>
     </g>
    </g>
    <g id="xtick_10">
     <g id="line2d_10">
      <g>
       <use xlink:href="#m9cb1a36abe" x="49.084714" y="123.552" style="fill: #262626; stroke: #262626; stroke-width: 0.6"/>
      </g>
     </g>
    </g>
    <g id="xtick_11">
     <g id="line2d_11">
      <g>
       <use xlink:href="#m9cb1a36abe" x="62.582688" y="123.552" style="fill: #262626; stroke: #262626; stroke-width: 0.6"/>
      </g>
     </g>
    </g>
    <g id="xtick_12">
     <g id="line2d_12">
      <g>
       <use xlink:href="#m9cb1a36abe" x="74.275165" y="123.552" style="fill: #262626; stroke: #262626; stroke-width: 0.6"/>
      </g>
     </g>
    </g>
    <g id="xtick_13">
     <g id="line2d_13">
      <g>
       <use xlink:href="#m9cb1a36abe" x="84.58866" y="123.552" style="fill: #262626; stroke: #262626; stroke-width: 0.6"/>
      </g>
     </g>
    </g>
    <g id="xtick_14">
     <g id="line2d_14">
      <g>
       <use xlink:href="#m9cb1a36abe" x="154.508793" y="123.552" style="fill: #262626; stroke: #262626; stroke-width: 0.6"/>
      </g>
     </g>
    </g>
    <g id="xtick_15">
     <g id="line2d_15">
      <g>
       <use xlink:href="#m9cb1a36abe" x="190.012739" y="123.552" style="fill: #262626; stroke: #262626; stroke-width: 0.6"/>
      </g>
     </g>
    </g>
    <g id="xtick_16">
     <g id="line2d_16">
      <g>
       <use xlink:href="#m9cb1a36abe" x="215.203189" y="123.552" style="fill: #262626; stroke: #262626; stroke-width: 0.6"/>
      </g>
     </g>
    </g>
    <g id="xtick_17">
     <g id="line2d_17">
      <g>
       <use xlink:href="#m9cb1a36abe" x="234.74242" y="123.552" style="fill: #262626; stroke: #262626; stroke-width: 0.6"/>
      </g>
     </g>
    </g>
    <g id="xtick_18">
     <g id="line2d_18">
      <g>
       <use xlink:href="#m9cb1a36abe" x="250.707135" y="123.552" style="fill: #262626; stroke: #262626; stroke-width: 0.6"/>
      </g>
     </g>
    </g>
    <g id="xtick_19">
     <g id="line2d_19">
      <g>
       <use xlink:href="#m9cb1a36abe" x="264.205109" y="123.552" style="fill: #262626; stroke: #262626; stroke-width: 0.6"/>
      </g>
     </g>
    </g>
    <g id="xtick_20">
     <g id="line2d_20">
      <g>
       <use xlink:href="#m9cb1a36abe" x="275.897585" y="123.552" style="fill: #262626; stroke: #262626; stroke-width: 0.6"/>
      </g>
     </g>
    </g>
    <g id="xtick_21">
     <g id="line2d_21">
      <g>
       <use xlink:href="#m9cb1a36abe" x="286.211081" y="123.552" style="fill: #262626; stroke: #262626; stroke-width: 0.6"/>
      </g>
     </g>
    </g>
    <g id="xtick_22">
     <g id="line2d_22">
      <g>
       <use xlink:href="#m9cb1a36abe" x="391.635159" y="123.552" style="fill: #262626; stroke: #262626; stroke-width: 0.6"/>
      </g>
     </g>
    </g>
    <g id="xtick_23">
     <g id="line2d_23">
      <g>
       <use xlink:href="#m9cb1a36abe" x="416.82561" y="123.552" style="fill: #262626; stroke: #262626; stroke-width: 0.6"/>
      </g>
     </g>
    </g>
    <g id="xtick_24">
     <g id="line2d_24">
      <g>
       <use xlink:href="#m9cb1a36abe" x="452.329555" y="123.552" style="fill: #262626; stroke: #262626; stroke-width: 0.6"/>
      </g>
     </g>
    </g>
    <g id="xtick_25">
     <g id="line2d_25">
      <g>
       <use xlink:href="#m9cb1a36abe" x="465.827529" y="123.552" style="fill: #262626; stroke: #262626; stroke-width: 0.6"/>
      </g>
     </g>
    </g>
    <g id="xtick_26">
     <g id="line2d_26">
      <g>
       <use xlink:href="#m9cb1a36abe" x="477.520006" y="123.552" style="fill: #262626; stroke: #262626; stroke-width: 0.6"/>
      </g>
     </g>
    </g>
    <g id="xtick_27">
     <g id="line2d_27">
      <g>
       <use xlink:href="#m9cb1a36abe" x="487.833501" y="123.552" style="fill: #262626; stroke: #262626; stroke-width: 0.6"/>
      </g>
     </g>
    </g>
    <g id="xtick_28">
     <g id="line2d_28">
      <g>
       <use xlink:href="#m9cb1a36abe" x="593.25758" y="123.552" style="fill: #262626; stroke: #262626; stroke-width: 0.6"/>
      </g>
     </g>
    </g>
    <g id="xtick_29">
     <g id="line2d_29">
      <g>
       <use xlink:href="#m9cb1a36abe" x="618.44803" y="123.552" style="fill: #262626; stroke: #262626; stroke-width: 0.6"/>
      </g>
     </g>
    </g>
    <g id="xtick_30">
     <g id="line2d_30">
      <g>
       <use xlink:href="#m9cb1a36abe" x="653.951976" y="123.552" style="fill: #262626; stroke: #262626; stroke-width: 0.6"/>
      </g>
     </g>
    </g>
    <g id="xtick_31">
     <g id="line2d_31">
      <g>
       <use xlink:href="#m9cb1a36abe" x="667.44995" y="123.552" style="fill: #262626; stroke: #262626; stroke-width: 0.6"/>
      </g>
     </g>
    </g>
    <g id="xtick_32">
     <g id="line2d_32">
      <g>
       <use xlink:href="#m9cb1a36abe" x="679.142426" y="123.552" style="fill: #262626; stroke: #262626; stroke-width: 0.6"/>
      </g>
     </g>
    </g>
    <g id="xtick_33">
     <g id="line2d_33">
      <g>
       <use xlink:href="#m9cb1a36abe" x="689.455922" y="123.552" style="fill: #262626; stroke: #262626; stroke-width: 0.6"/>
      </g>
     </g>
    </g>
    <g id="xtick_34">
     <g id="line2d_34">
      <g>
       <use xlink:href="#m9cb1a36abe" x="794.88" y="123.552" style="fill: #262626; stroke: #262626; stroke-width: 0.6"/>
      </g>
     </g>
    </g>
    <g id="text_9">
     <text style="font-size: 10px; font-family: 'Arial', 'DejaVu Sans', 'Liberation Sans', 'Bitstream Vera Sans', sans-serif; text-anchor: middle; fill: #262626" x="414" y="150.977" transform="rotate(-0 414 150.977)">Income or consumption (day)</text>
    </g>
   </g>
   <g id="matplotlib.axis_2"/>
   <g id="FillBetweenPolyCollection_1">
    <defs>
     <path id="mfb1e33745e" d="M 507.688517 -34.848 
L 507.688517 -34.863363 
L 507.967128 -34.864689 
L 508.24574 -34.866119 
L 508.524351 -34.86766 
L 508.802962 -34.86932 
L 509.081573 -34.871105 
L 509.360184 -34.873026 
L 509.638796 -34.875091 
L 509.917407 -34.877309 
L 510.196018 -34.879689 
L 510.474629 -34.882243 
L 510.75324 -34.884982 
L 511.031852 -34.887916 
L 511.310463 -34.891058 
L 511.589074 -34.89442 
L 511.867685 -34.898016 
L 512.146296 -34.901859 
L 512.424908 -34.905964 
L 512.703519 -34.910345 
L 512.98213 -34.91502 
L 513.260741 -34.920003 
L 513.539352 -34.925313 
L 513.817964 -34.930966 
L 514.096575 -34.936982 
L 514.375186 -34.94338 
L 514.653797 -34.95018 
L 514.932409 -34.957402 
L 515.21102 -34.965068 
L 515.489631 -34.973201 
L 515.768242 -34.981823 
L 516.046853 -34.990957 
L 516.325465 -35.00063 
L 516.604076 -35.010866 
L 516.882687 -35.02169 
L 517.161298 -35.033131 
L 517.439909 -35.045215 
L 517.718521 -35.057971 
L 517.997132 -35.071428 
L 518.275743 -35.085616 
L 518.554354 -35.100565 
L 518.832965 -35.116307 
L 519.111577 -35.132874 
L 519.390188 -35.150298 
L 519.668799 -35.168612 
L 519.94741 -35.18785 
L 520.226021 -35.208048 
L 520.504633 -35.229239 
L 520.783244 -35.251459 
L 521.061855 -35.274744 
L 521.340466 -35.29913 
L 521.619078 -35.324655 
L 521.897689 -35.351356 
L 522.1763 -35.379269 
L 522.454911 -35.408433 
L 522.733522 -35.438886 
L 523.012134 -35.470665 
L 523.290745 -35.50381 
L 523.569356 -35.538357 
L 523.847967 -35.574346 
L 524.126578 -35.611814 
L 524.40519 -35.6508 
L 524.683801 -35.691341 
L 524.962412 -35.733476 
L 525.241023 -35.77724 
L 525.519634 -35.822671 
L 525.798246 -35.869805 
L 526.076857 -35.918678 
L 526.355468 -35.969326 
L 526.634079 -36.021782 
L 526.91269 -36.07608 
L 527.191302 -36.132254 
L 527.469913 -36.190334 
L 527.748524 -36.250354 
L 528.027135 -36.312341 
L 528.305747 -36.376326 
L 528.584358 -36.442335 
L 528.862969 -36.510397 
L 529.14158 -36.580535 
L 529.420191 -36.652773 
L 529.698803 -36.727135 
L 529.977414 -36.803641 
L 530.256025 -36.882311 
L 530.534636 -36.963163 
L 530.813247 -37.046212 
L 531.091859 -37.131474 
L 531.37047 -37.218962 
L 531.649081 -37.308687 
L 531.927692 -37.400658 
L 532.206303 -37.494884 
L 532.484915 -37.591369 
L 532.763526 -37.69012 
L 533.042137 -37.791136 
L 533.320748 -37.89442 
L 533.599359 -37.99997 
L 533.877971 -38.107782 
L 534.156582 -38.217851 
L 534.435193 -38.330171 
L 534.713804 -38.444732 
L 534.992416 -38.561525 
L 535.271027 -38.680537 
L 535.549638 -38.801755 
L 535.828249 -38.925161 
L 536.10686 -39.05074 
L 536.385472 -39.178471 
L 536.664083 -39.308335 
L 536.942694 -39.44031 
L 537.221305 -39.574372 
L 537.499916 -39.710496 
L 537.778528 -39.848657 
L 538.057139 -39.988826 
L 538.33575 -40.130975 
L 538.614361 -40.275075 
L 538.892972 -40.421094 
L 539.171584 -40.569002 
L 539.450195 -40.718765 
L 539.728806 -40.87035 
L 540.007417 -41.023724 
L 540.286028 -41.178851 
L 540.56464 -41.335697 
L 540.843251 -41.494226 
L 541.121862 -41.654402 
L 541.400473 -41.81619 
L 541.679084 -41.979553 
L 541.957696 -42.144455 
L 542.236307 -42.310859 
L 542.514918 -42.478731 
L 542.793529 -42.648033 
L 543.072141 -42.81873 
L 543.350752 -42.990787 
L 543.629363 -43.16417 
L 543.907974 -43.338845 
L 544.186585 -43.514777 
L 544.465197 -43.691935 
L 544.743808 -43.870285 
L 545.022419 -44.049798 
L 545.30103 -44.230443 
L 545.579641 -44.41219 
L 545.858253 -44.595012 
L 546.136864 -44.778881 
L 546.415475 -44.963771 
L 546.694086 -45.149658 
L 546.972697 -45.336517 
L 547.251309 -45.524327 
L 547.52992 -45.713067 
L 547.808531 -45.902717 
L 548.087142 -46.093258 
L 548.365753 -46.284673 
L 548.644365 -46.476947 
L 548.922976 -46.670066 
L 549.201587 -46.864017 
L 549.480198 -47.058789 
L 549.75881 -47.25437 
L 550.037421 -47.450754 
L 550.316032 -47.647932 
L 550.594643 -47.845899 
L 550.873254 -48.04465 
L 551.151866 -48.244182 
L 551.430477 -48.444493 
L 551.709088 -48.645583 
L 551.987699 -48.847452 
L 552.26631 -49.050102 
L 552.544922 -49.253536 
L 552.823533 -49.457759 
L 553.102144 -49.662776 
L 553.380755 -49.868593 
L 553.659366 -50.075217 
L 553.937978 -50.282658 
L 554.216589 -50.490925 
L 554.4952 -50.700027 
L 554.773811 -50.909976 
L 555.052422 -51.120784 
L 555.331034 -51.332463 
L 555.609645 -51.545027 
L 555.888256 -51.758489 
L 556.166867 -51.972864 
L 556.445479 -52.188168 
L 556.72409 -52.404416 
L 557.002701 -52.621623 
L 557.281312 -52.839806 
L 557.559923 -53.058982 
L 557.838535 -53.279167 
L 558.117146 -53.50038 
L 558.395757 -53.722637 
L 558.674368 -53.945955 
L 558.952979 -54.170354 
L 559.231591 -54.395849 
L 559.510202 -54.62246 
L 559.788813 -54.850203 
L 560.067424 -55.079096 
L 560.346035 -55.309158 
L 560.624647 -55.540404 
L 560.903258 -55.772853 
L 561.181869 -56.006522 
L 561.46048 -56.241427 
L 561.739091 -56.477585 
L 562.017703 -56.715013 
L 562.296314 -56.953725 
L 562.574925 -57.193739 
L 562.853536 -57.435068 
L 563.132148 -57.677728 
L 563.410759 -57.921734 
L 563.68937 -58.1671 
L 563.967981 -58.413839 
L 564.246592 -58.661964 
L 564.525204 -58.911488 
L 564.803815 -59.162425 
L 565.082426 -59.414784 
L 565.361037 -59.668578 
L 565.639648 -59.923818 
L 565.91826 -60.180514 
L 566.196871 -60.438676 
L 566.475482 -60.698313 
L 566.754093 -60.959435 
L 567.032704 -61.222048 
L 567.311316 -61.486162 
L 567.589927 -61.751784 
L 567.868538 -62.01892 
L 568.147149 -62.287577 
L 568.42576 -62.557761 
L 568.704372 -62.829477 
L 568.982983 -63.102729 
L 569.261594 -63.377523 
L 569.540205 -63.653861 
L 569.818816 -63.931748 
L 570.097428 -64.211186 
L 570.376039 -64.492178 
L 570.65465 -64.774725 
L 570.933261 -65.058829 
L 571.211873 -65.344491 
L 571.490484 -65.631712 
L 571.769095 -65.920492 
L 572.047706 -66.21083 
L 572.326317 -66.502725 
L 572.604929 -66.796178 
L 572.88354 -67.091185 
L 573.162151 -67.387745 
L 573.440762 -67.685856 
L 573.719373 -67.985515 
L 573.997985 -68.286719 
L 574.276596 -68.589463 
L 574.555207 -68.893745 
L 574.833818 -69.19956 
L 575.112429 -69.506903 
L 575.391041 -69.815769 
L 575.669652 -70.126154 
L 575.948263 -70.43805 
L 576.226874 -70.751453 
L 576.505485 -71.066355 
L 576.784097 -71.38275 
L 577.062708 -71.700632 
L 577.341319 -72.019991 
L 577.61993 -72.340822 
L 577.898542 -72.663116 
L 578.177153 -72.986864 
L 578.455764 -73.312058 
L 578.734375 -73.638689 
L 579.012986 -73.966748 
L 579.291598 -74.296225 
L 579.570209 -74.627111 
L 579.84882 -74.959395 
L 580.127431 -75.293067 
L 580.406042 -75.628116 
L 580.684654 -75.964532 
L 580.963265 -76.302303 
L 581.241876 -76.641418 
L 581.520487 -76.981864 
L 581.799098 -77.323631 
L 582.07771 -77.666705 
L 582.356321 -78.011074 
L 582.634932 -78.356725 
L 582.913543 -78.703645 
L 583.192154 -79.051822 
L 583.470766 -79.40124 
L 583.749377 -79.751886 
L 584.027988 -80.103747 
L 584.306599 -80.456807 
L 584.585211 -80.811053 
L 584.863822 -81.166468 
L 585.142433 -81.523039 
L 585.421044 -81.88075 
L 585.699655 -82.239584 
L 585.978267 -82.599527 
L 586.256878 -82.960562 
L 586.535489 -83.322672 
L 586.8141 -83.685842 
L 587.092711 -84.050054 
L 587.371323 -84.415291 
L 587.649934 -84.781536 
L 587.928545 -85.148771 
L 588.207156 -85.516979 
L 588.485767 -85.886141 
L 588.764379 -86.256239 
L 589.04299 -86.627255 
L 589.321601 -86.99917 
L 589.600212 -87.371965 
L 589.878823 -87.74562 
L 590.157435 -88.120117 
L 590.436046 -88.495436 
L 590.714657 -88.871556 
L 590.993268 -89.248458 
L 591.27188 -89.626122 
L 591.550491 -90.004526 
L 591.829102 -90.38365 
L 592.107713 -90.763474 
L 592.386324 -91.143975 
L 592.664936 -91.525133 
L 592.943547 -91.906925 
L 593.222158 -92.289331 
L 593.500769 -92.672327 
L 593.77938 -93.055892 
L 594.057992 -93.440004 
L 594.336603 -93.824639 
L 594.615214 -94.209774 
L 594.893825 -94.595387 
L 595.172436 -94.981455 
L 595.451048 -95.367953 
L 595.729659 -95.754858 
L 596.00827 -96.142147 
L 596.286881 -96.529795 
L 596.565492 -96.917778 
L 596.844104 -97.306071 
L 597.122715 -97.694651 
L 597.401326 -98.083491 
L 597.679937 -98.472568 
L 597.958549 -98.861855 
L 598.23716 -99.251329 
L 598.515771 -99.640962 
L 598.794382 -100.03073 
L 599.072993 -100.420606 
L 599.351605 -100.810565 
L 599.630216 -101.20058 
L 599.908827 -101.590626 
L 600.187438 -101.980675 
L 600.466049 -102.370701 
L 600.744661 -102.760677 
L 601.023272 -103.150576 
L 601.301883 -103.540371 
L 601.580494 -103.930034 
L 601.859105 -104.319539 
L 602.137717 -104.708858 
L 602.416328 -105.097963 
L 602.694939 -105.486827 
L 602.97355 -105.875421 
L 603.252161 -106.263717 
L 603.530773 -106.651687 
L 603.809384 -107.039304 
L 604.087995 -107.426537 
L 604.366606 -107.81336 
L 604.645217 -108.199743 
L 604.923829 -108.585658 
L 605.20244 -108.971075 
L 605.481051 -109.355966 
L 605.759662 -109.740301 
L 606.038274 -110.124052 
L 606.316885 -110.50719 
L 606.595496 -110.889684 
L 606.874107 -111.271506 
L 607.152718 -111.652626 
L 607.43133 -112.033015 
L 607.709941 -112.412643 
L 607.988552 -112.791479 
L 608.267163 -113.169496 
L 608.545774 -113.546662 
L 608.824386 -113.922947 
L 609.102997 -114.298323 
L 609.381608 -114.672758 
L 609.660219 -115.046223 
L 609.93883 -115.418688 
L 610.217442 -115.790122 
L 610.496053 -116.160496 
L 610.774664 -116.52978 
L 611.053275 -116.897942 
L 611.331886 -117.264953 
L 611.610498 -117.630783 
L 611.889109 -117.995402 
L 612.16772 -118.358778 
L 612.446331 -118.720883 
L 612.724943 -119.081685 
L 613.003554 -119.441154 
L 613.282165 -119.799261 
L 613.560776 -120.155975 
L 613.839387 -120.511265 
L 614.117999 -120.865101 
L 614.39661 -121.217454 
L 614.675221 -121.568293 
L 614.953832 -121.917588 
L 615.232443 -122.265309 
L 615.511055 -122.611426 
L 615.789666 -122.955908 
L 616.068277 -123.298727 
L 616.346888 -123.639851 
L 616.625499 -123.979252 
L 616.904111 -124.316898 
L 617.182722 -124.652762 
L 617.461333 -124.986812 
L 617.739944 -125.31902 
L 618.018555 -125.649356 
L 618.297167 -125.977791 
L 618.575778 -126.304294 
L 618.854389 -126.628838 
L 619.133 -126.951392 
L 619.411612 -127.271929 
L 619.690223 -127.590418 
L 619.968834 -127.906831 
L 620.247445 -128.22114 
L 620.526056 -128.533315 
L 620.804668 -128.843329 
L 621.083279 -129.151153 
L 621.36189 -129.456759 
L 621.640501 -129.760119 
L 621.919112 -130.061204 
L 622.197724 -130.359988 
L 622.476335 -130.656441 
L 622.754946 -130.950538 
L 623.033557 -131.242251 
L 623.312168 -131.531552 
L 623.59078 -131.818414 
L 623.869391 -132.102811 
L 624.148002 -132.384716 
L 624.426613 -132.664103 
L 624.705224 -132.940945 
L 624.983836 -133.215215 
L 625.262447 -133.486889 
L 625.541058 -133.755941 
L 625.819669 -134.022344 
L 626.098281 -134.286074 
L 626.376892 -134.547106 
L 626.655503 -134.805414 
L 626.934114 -135.060974 
L 627.212725 -135.313762 
L 627.491337 -135.563752 
L 627.769948 -135.810922 
L 628.048559 -136.055247 
L 628.32717 -136.296704 
L 628.605781 -136.535269 
L 628.884393 -136.770919 
L 629.163004 -137.003632 
L 629.441615 -137.233385 
L 629.720226 -137.460155 
L 629.998837 -137.683921 
L 630.277449 -137.904661 
L 630.55606 -138.122352 
L 630.834671 -138.336975 
L 631.113282 -138.548507 
L 631.391893 -138.756928 
L 631.670505 -138.962218 
L 631.949116 -139.164355 
L 632.227727 -139.363322 
L 632.506338 -139.559097 
L 632.78495 -139.751661 
L 633.063561 -139.940996 
L 633.342172 -140.127082 
L 633.620783 -140.309902 
L 633.899394 -140.489436 
L 634.178006 -140.665668 
L 634.456617 -140.838579 
L 634.735228 -141.008152 
L 635.013839 -141.174372 
L 635.29245 -141.337219 
L 635.571062 -141.49668 
L 635.849673 -141.652737 
L 636.128284 -141.805375 
L 636.406895 -141.954579 
L 636.685506 -142.100334 
L 636.964118 -142.242624 
L 637.242729 -142.381437 
L 637.52134 -142.516757 
L 637.799951 -142.648572 
L 638.078562 -142.776867 
L 638.357174 -142.90163 
L 638.635785 -143.022849 
L 638.914396 -143.140511 
L 639.193007 -143.254604 
L 639.471618 -143.365116 
L 639.75023 -143.472038 
L 640.028841 -143.575356 
L 640.307452 -143.675062 
L 640.586063 -143.771145 
L 640.864675 -143.863595 
L 641.143286 -143.952404 
L 641.421897 -144.037561 
L 641.700508 -144.119058 
L 641.979119 -144.196887 
L 642.257731 -144.27104 
L 642.536342 -144.34151 
L 642.814953 -144.408289 
L 643.093564 -144.47137 
L 643.372175 -144.530747 
L 643.650787 -144.586415 
L 643.929398 -144.638366 
L 644.208009 -144.686597 
L 644.48662 -144.731102 
L 644.765231 -144.771876 
L 645.043843 -144.808916 
L 645.322454 -144.842217 
L 645.601065 -144.871776 
L 645.879676 -144.897591 
L 646.158287 -144.919658 
L 646.436899 -144.937975 
L 646.71551 -144.95254 
L 646.994121 -144.963353 
L 647.272732 -144.970411 
L 647.551344 -144.973714 
L 647.829955 -144.973262 
L 648.108566 -144.969055 
L 648.387177 -144.961093 
L 648.665788 -144.949377 
L 648.9444 -144.933908 
L 649.223011 -144.914688 
L 649.501622 -144.891719 
L 649.780233 -144.865003 
L 650.058844 -144.834542 
L 650.337456 -144.800341 
L 650.616067 -144.762402 
L 650.894678 -144.720729 
L 651.173289 -144.675327 
L 651.4519 -144.626201 
L 651.730512 -144.573354 
L 652.009123 -144.516793 
L 652.287734 -144.456523 
L 652.566345 -144.392551 
L 652.844956 -144.324883 
L 653.123568 -144.253526 
L 653.402179 -144.178488 
L 653.68079 -144.099775 
L 653.959401 -144.017396 
L 654.238013 -143.931359 
L 654.516624 -143.841673 
L 654.795235 -143.748348 
L 655.073846 -143.651392 
L 655.352457 -143.550815 
L 655.631069 -143.446628 
L 655.90968 -143.338842 
L 656.188291 -143.227466 
L 656.466902 -143.112513 
L 656.745513 -142.993994 
L 657.024125 -142.871921 
L 657.302736 -142.746306 
L 657.581347 -142.617162 
L 657.859958 -142.484502 
L 658.138569 -142.34834 
L 658.417181 -142.208689 
L 658.695792 -142.065563 
L 658.974403 -141.918977 
L 659.253014 -141.768945 
L 659.531625 -141.615482 
L 659.810237 -141.458604 
L 660.088848 -141.298327 
L 660.367459 -141.134666 
L 660.64607 -140.967638 
L 660.924682 -140.797259 
L 661.203293 -140.623547 
L 661.481904 -140.446519 
L 661.760515 -140.266192 
L 662.039126 -140.082584 
L 662.317738 -139.895714 
L 662.596349 -139.7056 
L 662.87496 -139.512261 
L 663.153571 -139.315716 
L 663.432182 -139.115984 
L 663.710794 -138.913086 
L 663.989405 -138.707041 
L 664.268016 -138.497869 
L 664.546627 -138.285591 
L 664.825238 -138.070228 
L 665.10385 -137.8518 
L 665.382461 -137.63033 
L 665.661072 -137.405839 
L 665.939683 -137.178348 
L 666.218294 -136.947881 
L 666.496906 -136.714459 
L 666.775517 -136.478104 
L 667.054128 -136.238841 
L 667.332739 -135.996691 
L 667.611351 -135.751679 
L 667.889962 -135.503829 
L 668.168573 -135.253162 
L 668.447184 -134.999705 
L 668.725795 -134.743481 
L 669.004407 -134.484515 
L 669.283018 -134.222832 
L 669.561629 -133.958456 
L 669.84024 -133.691413 
L 670.118851 -133.421727 
L 670.397463 -133.149426 
L 670.676074 -132.874534 
L 670.954685 -132.597077 
L 671.233296 -132.317082 
L 671.511907 -132.034574 
L 671.790519 -131.749581 
L 672.06913 -131.462129 
L 672.347741 -131.172245 
L 672.626352 -130.879956 
L 672.904963 -130.58529 
L 673.183575 -130.288272 
L 673.462186 -129.988932 
L 673.740797 -129.687297 
L 674.019408 -129.383394 
L 674.298019 -129.077252 
L 674.576631 -128.768898 
L 674.855242 -128.458361 
L 675.133853 -128.145669 
L 675.412464 -127.830851 
L 675.691076 -127.513936 
L 675.969687 -127.194951 
L 676.248298 -126.873926 
L 676.526909 -126.55089 
L 676.80552 -126.225872 
L 677.084132 -125.898901 
L 677.362743 -125.570006 
L 677.641354 -125.239217 
L 677.919965 -124.906563 
L 678.198576 -124.572073 
L 678.477188 -124.235778 
L 678.755799 -123.897706 
L 679.03441 -123.557888 
L 679.313021 -123.216353 
L 679.591632 -122.873131 
L 679.870244 -122.528253 
L 680.148855 -122.181747 
L 680.427466 -121.833645 
L 680.706077 -121.483975 
L 680.984688 -121.132769 
L 681.2633 -120.780057 
L 681.541911 -120.425867 
L 681.820522 -120.070232 
L 682.099133 -119.71318 
L 682.377745 -119.354743 
L 682.656356 -118.99495 
L 682.934967 -118.633831 
L 683.213578 -118.271418 
L 683.492189 -117.90774 
L 683.770801 -117.542827 
L 684.049412 -117.17671 
L 684.328023 -116.809419 
L 684.606634 -116.440984 
L 684.885245 -116.071435 
L 685.163857 -115.700803 
L 685.442468 -115.329118 
L 685.721079 -114.95641 
L 685.99969 -114.582708 
L 686.278301 -114.208044 
L 686.556913 -113.832447 
L 686.835524 -113.455946 
L 687.114135 -113.078573 
L 687.392746 -112.700357 
L 687.671357 -112.321327 
L 687.949969 -111.941513 
L 688.22858 -111.560946 
L 688.507191 -111.179654 
L 688.785802 -110.797668 
L 689.064414 -110.415016 
L 689.343025 -110.031728 
L 689.621636 -109.647834 
L 689.900247 -109.263362 
L 690.178858 -108.878341 
L 690.45747 -108.492802 
L 690.736081 -108.106772 
L 691.014692 -107.720281 
L 691.293303 -107.333356 
L 691.571914 -106.946028 
L 691.850526 -106.558324 
L 692.129137 -106.170272 
L 692.407748 -105.781902 
L 692.686359 -105.393241 
L 692.96497 -105.004317 
L 693.243582 -104.615157 
L 693.522193 -104.225791 
L 693.800804 -103.836245 
L 694.079415 -103.446548 
L 694.358026 -103.056725 
L 694.636638 -102.666805 
L 694.915249 -102.276815 
L 695.19386 -101.886781 
L 695.472471 -101.49673 
L 695.751083 -101.10669 
L 696.029694 -100.716685 
L 696.308305 -100.326744 
L 696.586916 -99.936891 
L 696.865527 -99.547153 
L 697.144139 -99.157556 
L 697.42275 -98.768125 
L 697.701361 -98.378886 
L 697.979972 -97.989864 
L 698.258583 -97.601084 
L 698.537195 -97.212571 
L 698.815806 -96.82435 
L 699.094417 -96.436445 
L 699.373028 -96.048882 
L 699.651639 -95.661683 
L 699.930251 -95.274873 
L 700.208862 -94.888476 
L 700.487473 -94.502516 
L 700.766084 -94.117015 
L 701.044695 -93.731998 
L 701.323307 -93.347486 
L 701.601918 -92.963504 
L 701.880529 -92.580073 
L 702.15914 -92.197217 
L 702.437751 -91.814956 
L 702.716363 -91.433314 
L 702.994974 -91.052311 
L 703.273585 -90.671971 
L 703.552196 -90.292313 
L 703.830808 -89.913359 
L 704.109419 -89.53513 
L 704.38803 -89.157647 
L 704.666641 -88.780929 
L 704.945252 -88.404999 
L 705.223864 -88.029874 
L 705.502475 -87.655576 
L 705.781086 -87.282124 
L 706.059697 -86.909537 
L 706.338308 -86.537834 
L 706.61692 -86.167034 
L 706.895531 -85.797156 
L 707.174142 -85.428218 
L 707.452753 -85.060239 
L 707.731364 -84.693236 
L 708.009976 -84.327227 
L 708.288587 -83.962229 
L 708.567198 -83.598261 
L 708.845809 -83.235337 
L 709.12442 -82.873477 
L 709.403032 -82.512695 
L 709.681643 -82.153008 
L 709.960254 -81.794432 
L 710.238865 -81.436983 
L 710.517477 -81.080676 
L 710.796088 -80.725527 
L 711.074699 -80.37155 
L 711.35331 -80.01876 
L 711.631921 -79.667172 
L 711.910533 -79.3168 
L 712.189144 -78.967657 
L 712.467755 -78.619757 
L 712.746366 -78.273114 
L 713.024977 -77.927741 
L 713.303589 -77.58365 
L 713.5822 -77.240854 
L 713.860811 -76.899365 
L 714.139422 -76.559196 
L 714.418033 -76.220358 
L 714.696645 -75.882861 
L 714.975256 -75.546718 
L 715.253867 -75.21194 
L 715.532478 -74.878536 
L 715.811089 -74.546516 
L 716.089701 -74.215891 
L 716.368312 -73.886671 
L 716.646923 -73.558863 
L 716.925534 -73.232478 
L 717.204146 -72.907524 
L 717.482757 -72.584009 
L 717.761368 -72.261941 
L 718.039979 -71.941327 
L 718.31859 -71.622175 
L 718.597202 -71.304491 
L 718.875813 -70.988282 
L 719.154424 -70.673555 
L 719.433035 -70.360314 
L 719.711646 -70.048565 
L 719.990258 -69.738313 
L 720.268869 -69.429562 
L 720.54748 -69.122318 
L 720.826091 -68.816582 
L 721.104702 -68.51236 
L 721.383314 -68.209652 
L 721.661925 -67.908463 
L 721.940536 -67.608794 
L 722.219147 -67.310646 
L 722.497758 -67.014021 
L 722.77637 -66.718919 
L 723.054981 -66.42534 
L 723.333592 -66.133284 
L 723.612203 -65.842751 
L 723.890815 -65.553738 
L 724.169426 -65.266245 
L 724.448037 -64.980268 
L 724.726648 -64.695805 
L 725.005259 -64.412853 
L 725.283871 -64.131407 
L 725.562482 -63.851463 
L 725.841093 -63.573017 
L 726.119704 -63.296062 
L 726.398315 -63.020594 
L 726.676927 -62.746604 
L 726.955538 -62.474087 
L 727.234149 -62.203033 
L 727.51276 -61.933437 
L 727.791371 -61.665287 
L 728.069983 -61.398576 
L 728.348594 -61.133292 
L 728.627205 -60.869427 
L 728.905816 -60.606969 
L 729.184427 -60.345906 
L 729.463039 -60.086226 
L 729.74165 -59.827918 
L 730.020261 -59.570967 
L 730.298872 -59.315362 
L 730.577484 -59.061087 
L 730.856095 -58.808128 
L 731.134706 -58.55647 
L 731.413317 -58.306099 
L 731.691928 -58.056998 
L 731.97054 -57.809152 
L 732.249151 -57.562544 
L 732.527762 -57.317157 
L 732.806373 -57.072974 
L 733.084984 -56.829979 
L 733.363596 -56.588152 
L 733.642207 -56.347478 
L 733.920818 -56.107937 
L 734.199429 -55.869512 
L 734.47804 -55.632185 
L 734.756652 -55.395937 
L 735.035263 -55.16075 
L 735.313874 -54.926606 
L 735.592485 -54.693487 
L 735.871096 -54.461374 
L 736.149708 -54.230251 
L 736.428319 -54.000098 
L 736.70693 -53.7709 
L 736.985541 -53.542638 
L 737.264152 -53.315297 
L 737.542764 -53.08886 
L 737.821375 -52.863311 
L 738.099986 -52.638635 
L 738.378597 -52.414817 
L 738.657209 -52.191844 
L 738.93582 -51.969702 
L 739.214431 -51.748379 
L 739.493042 -51.527862 
L 739.771653 -51.308142 
L 740.050265 -51.089207 
L 740.328876 -50.87105 
L 740.607487 -50.653662 
L 740.886098 -50.437037 
L 741.164709 -50.221168 
L 741.443321 -50.006051 
L 741.721932 -49.791683 
L 742.000543 -49.578062 
L 742.279154 -49.365187 
L 742.557765 -49.153059 
L 742.836377 -48.941679 
L 743.114988 -48.73105 
L 743.393599 -48.521179 
L 743.67221 -48.31207 
L 743.950821 -48.103731 
L 744.229433 -47.896172 
L 744.508044 -47.689404 
L 744.786655 -47.483438 
L 745.065266 -47.278288 
L 745.343878 -47.07397 
L 745.622489 -46.870501 
L 745.9011 -46.667898 
L 746.179711 -46.466181 
L 746.458322 -46.265372 
L 746.736934 -46.065494 
L 747.015545 -45.86657 
L 747.294156 -45.668626 
L 747.572767 -45.471689 
L 747.851378 -45.275787 
L 748.12999 -45.080951 
L 748.408601 -44.887209 
L 748.687212 -44.694595 
L 748.965823 -44.503142 
L 749.244434 -44.312883 
L 749.523046 -44.123853 
L 749.801657 -43.936089 
L 750.080268 -43.749627 
L 750.358879 -43.564504 
L 750.63749 -43.38076 
L 750.916102 -43.198432 
L 751.194713 -43.01756 
L 751.473324 -42.838184 
L 751.751935 -42.660344 
L 752.030547 -42.484079 
L 752.309158 -42.30943 
L 752.587769 -42.136438 
L 752.86638 -41.965142 
L 753.144991 -41.795584 
L 753.423603 -41.627802 
L 753.702214 -41.461836 
L 753.980825 -41.297726 
L 754.259436 -41.135509 
L 754.538047 -40.975223 
L 754.816659 -40.816905 
L 755.09527 -40.660592 
L 755.373881 -40.506318 
L 755.652492 -40.354118 
L 755.931103 -40.204025 
L 756.209715 -40.05607 
L 756.488326 -39.910283 
L 756.766937 -39.766695 
L 757.045548 -39.625332 
L 757.324159 -39.486221 
L 757.602771 -39.349386 
L 757.881382 -39.21485 
L 758.159993 -39.082634 
L 758.438604 -38.952758 
L 758.717216 -38.825239 
L 758.995827 -38.700092 
L 759.274438 -38.577332 
L 759.553049 -38.456971 
L 759.83166 -38.339018 
L 760.110272 -38.223482 
L 760.388883 -38.110368 
L 760.667494 -37.99968 
L 760.946105 -37.891421 
L 761.224716 -37.78559 
L 761.503328 -37.682185 
L 761.781939 -37.581202 
L 762.06055 -37.482635 
L 762.339161 -37.386476 
L 762.617772 -37.292715 
L 762.896384 -37.201341 
L 763.174995 -37.112339 
L 763.453606 -37.025694 
L 763.732217 -36.941389 
L 764.010828 -36.859404 
L 764.28944 -36.779718 
L 764.568051 -36.70231 
L 764.846662 -36.627155 
L 765.125273 -36.554228 
L 765.403885 -36.483501 
L 765.682496 -36.414947 
L 765.961107 -36.348535 
L 766.239718 -36.284235 
L 766.518329 -36.222013 
L 766.796941 -36.161838 
L 767.075552 -36.103674 
L 767.354163 -36.047486 
L 767.632774 -35.993239 
L 767.911385 -35.940894 
L 768.189997 -35.890415 
L 768.468608 -35.841762 
L 768.747219 -35.794898 
L 769.02583 -35.749781 
L 769.304441 -35.706373 
L 769.583053 -35.664633 
L 769.861664 -35.62452 
L 770.140275 -35.585993 
L 770.418886 -35.549012 
L 770.697497 -35.513535 
L 770.976109 -35.479522 
L 771.25472 -35.446931 
L 771.533331 -35.415721 
L 771.811942 -35.385852 
L 772.090553 -35.357283 
L 772.369165 -35.329974 
L 772.647776 -35.303885 
L 772.926387 -35.278976 
L 773.204998 -35.255208 
L 773.48361 -35.232543 
L 773.762221 -35.210942 
L 774.040832 -35.190369 
L 774.319443 -35.170785 
L 774.598054 -35.152156 
L 774.876666 -35.134444 
L 775.155277 -35.117615 
L 775.433888 -35.101635 
L 775.712499 -35.08647 
L 775.99111 -35.072088 
L 776.269722 -35.058456 
L 776.548333 -35.045544 
L 776.826944 -35.03332 
L 777.105555 -35.021755 
L 777.384166 -35.010821 
L 777.662778 -35.000489 
L 777.941389 -34.990732 
L 778.22 -34.981525 
L 778.498611 -34.97284 
L 778.777222 -34.964654 
L 779.055834 -34.956943 
L 779.334445 -34.949684 
L 779.613056 -34.942855 
L 779.891667 -34.936434 
L 780.170279 -34.9304 
L 780.44889 -34.924734 
L 780.727501 -34.919416 
L 781.006112 -34.914429 
L 781.284723 -34.909754 
L 781.563335 -34.905376 
L 781.841946 -34.901277 
L 782.120557 -34.897442 
L 782.399168 -34.893856 
L 782.677779 -34.890506 
L 782.956391 -34.887378 
L 783.235002 -34.884458 
L 783.513613 -34.881736 
L 783.792224 -34.879198 
L 784.070835 -34.876835 
L 784.349447 -34.874635 
L 784.628058 -34.872588 
L 784.906669 -34.870685 
L 785.18528 -34.868917 
L 785.463891 -34.867276 
L 785.742503 -34.865753 
L 786.021114 -34.864341 
L 786.021114 -34.848 
L 786.021114 -34.848 
L 785.742503 -34.848 
L 785.463891 -34.848 
L 785.18528 -34.848 
L 784.906669 -34.848 
L 784.628058 -34.848 
L 784.349447 -34.848 
L 784.070835 -34.848 
L 783.792224 -34.848 
L 783.513613 -34.848 
L 783.235002 -34.848 
L 782.956391 -34.848 
L 782.677779 -34.848 
L 782.399168 -34.848 
L 782.120557 -34.848 
L 781.841946 -34.848 
L 781.563335 -34.848 
L 781.284723 -34.848 
L 781.006112 -34.848 
L 780.727501 -34.848 
L 780.44889 -34.848 
L 780.170279 -34.848 
L 779.891667 -34.848 
L 779.613056 -34.848 
L 779.334445 -34.848 
L 779.055834 -34.848 
L 778.777222 -34.848 
L 778.498611 -34.848 
L 778.22 -34.848 
L 777.941389 -34.848 
L 777.662778 -34.848 
L 777.384166 -34.848 
L 777.105555 -34.848 
L 776.826944 -34.848 
L 776.548333 -34.848 
L 776.269722 -34.848 
L 775.99111 -34.848 
L 775.712499 -34.848 
L 775.433888 -34.848 
L 775.155277 -34.848 
L 774.876666 -34.848 
L 774.598054 -34.848 
L 774.319443 -34.848 
L 774.040832 -34.848 
L 773.762221 -34.848 
L 773.48361 -34.848 
L 773.204998 -34.848 
L 772.926387 -34.848 
L 772.647776 -34.848 
L 772.369165 -34.848 
L 772.090553 -34.848 
L 771.811942 -34.848 
L 771.533331 -34.848 
L 771.25472 -34.848 
L 770.976109 -34.848 
L 770.697497 -34.848 
L 770.418886 -34.848 
L 770.140275 -34.848 
L 769.861664 -34.848 
L 769.583053 -34.848 
L 769.304441 -34.848 
L 769.02583 -34.848 
L 768.747219 -34.848 
L 768.468608 -34.848 
L 768.189997 -34.848 
L 767.911385 -34.848 
L 767.632774 -34.848 
L 767.354163 -34.848 
L 767.075552 -34.848 
L 766.796941 -34.848 
L 766.518329 -34.848 
L 766.239718 -34.848 
L 765.961107 -34.848 
L 765.682496 -34.848 
L 765.403885 -34.848 
L 765.125273 -34.848 
L 764.846662 -34.848 
L 764.568051 -34.848 
L 764.28944 -34.848 
L 764.010828 -34.848 
L 763.732217 -34.848 
L 763.453606 -34.848 
L 763.174995 -34.848 
L 762.896384 -34.848 
L 762.617772 -34.848 
L 762.339161 -34.848 
L 762.06055 -34.848 
L 761.781939 -34.848 
L 761.503328 -34.848 
L 761.224716 -34.848 
L 760.946105 -34.848 
L 760.667494 -34.848 
L 760.388883 -34.848 
L 760.110272 -34.848 
L 759.83166 -34.848 
L 759.553049 -34.848 
L 759.274438 -34.848 
L 758.995827 -34.848 
L 758.717216 -34.848 
L 758.438604 -34.848 
L 758.159993 -34.848 
L 757.881382 -34.848 
L 757.602771 -34.848 
L 757.324159 -34.848 
L 757.045548 -34.848 
L 756.766937 -34.848 
L 756.488326 -34.848 
L 756.209715 -34.848 
L 755.931103 -34.848 
L 755.652492 -34.848 
L 755.373881 -34.848 
L 755.09527 -34.848 
L 754.816659 -34.848 
L 754.538047 -34.848 
L 754.259436 -34.848 
L 753.980825 -34.848 
L 753.702214 -34.848 
L 753.423603 -34.848 
L 753.144991 -34.848 
L 752.86638 -34.848 
L 752.587769 -34.848 
L 752.309158 -34.848 
L 752.030547 -34.848 
L 751.751935 -34.848 
L 751.473324 -34.848 
L 751.194713 -34.848 
L 750.916102 -34.848 
L 750.63749 -34.848 
L 750.358879 -34.848 
L 750.080268 -34.848 
L 749.801657 -34.848 
L 749.523046 -34.848 
L 749.244434 -34.848 
L 748.965823 -34.848 
L 748.687212 -34.848 
L 748.408601 -34.848 
L 748.12999 -34.848 
L 747.851378 -34.848 
L 747.572767 -34.848 
L 747.294156 -34.848 
L 747.015545 -34.848 
L 746.736934 -34.848 
L 746.458322 -34.848 
L 746.179711 -34.848 
L 745.9011 -34.848 
L 745.622489 -34.848 
L 745.343878 -34.848 
L 745.065266 -34.848 
L 744.786655 -34.848 
L 744.508044 -34.848 
L 744.229433 -34.848 
L 743.950821 -34.848 
L 743.67221 -34.848 
L 743.393599 -34.848 
L 743.114988 -34.848 
L 742.836377 -34.848 
L 742.557765 -34.848 
L 742.279154 -34.848 
L 742.000543 -34.848 
L 741.721932 -34.848 
L 741.443321 -34.848 
L 741.164709 -34.848 
L 740.886098 -34.848 
L 740.607487 -34.848 
L 740.328876 -34.848 
L 740.050265 -34.848 
L 739.771653 -34.848 
L 739.493042 -34.848 
L 739.214431 -34.848 
L 738.93582 -34.848 
L 738.657209 -34.848 
L 738.378597 -34.848 
L 738.099986 -34.848 
L 737.821375 -34.848 
L 737.542764 -34.848 
L 737.264152 -34.848 
L 736.985541 -34.848 
L 736.70693 -34.848 
L 736.428319 -34.848 
L 736.149708 -34.848 
L 735.871096 -34.848 
L 735.592485 -34.848 
L 735.313874 -34.848 
L 735.035263 -34.848 
L 734.756652 -34.848 
L 734.47804 -34.848 
L 734.199429 -34.848 
L 733.920818 -34.848 
L 733.642207 -34.848 
L 733.363596 -34.848 
L 733.084984 -34.848 
L 732.806373 -34.848 
L 732.527762 -34.848 
L 732.249151 -34.848 
L 731.97054 -34.848 
L 731.691928 -34.848 
L 731.413317 -34.848 
L 731.134706 -34.848 
L 730.856095 -34.848 
L 730.577484 -34.848 
L 730.298872 -34.848 
L 730.020261 -34.848 
L 729.74165 -34.848 
L 729.463039 -34.848 
L 729.184427 -34.848 
L 728.905816 -34.848 
L 728.627205 -34.848 
L 728.348594 -34.848 
L 728.069983 -34.848 
L 727.791371 -34.848 
L 727.51276 -34.848 
L 727.234149 -34.848 
L 726.955538 -34.848 
L 726.676927 -34.848 
L 726.398315 -34.848 
L 726.119704 -34.848 
L 725.841093 -34.848 
L 725.562482 -34.848 
L 725.283871 -34.848 
L 725.005259 -34.848 
L 724.726648 -34.848 
L 724.448037 -34.848 
L 724.169426 -34.848 
L 723.890815 -34.848 
L 723.612203 -34.848 
L 723.333592 -34.848 
L 723.054981 -34.848 
L 722.77637 -34.848 
L 722.497758 -34.848 
L 722.219147 -34.848 
L 721.940536 -34.848 
L 721.661925 -34.848 
L 721.383314 -34.848 
L 721.104702 -34.848 
L 720.826091 -34.848 
L 720.54748 -34.848 
L 720.268869 -34.848 
L 719.990258 -34.848 
L 719.711646 -34.848 
L 719.433035 -34.848 
L 719.154424 -34.848 
L 718.875813 -34.848 
L 718.597202 -34.848 
L 718.31859 -34.848 
L 718.039979 -34.848 
L 717.761368 -34.848 
L 717.482757 -34.848 
L 717.204146 -34.848 
L 716.925534 -34.848 
L 716.646923 -34.848 
L 716.368312 -34.848 
L 716.089701 -34.848 
L 715.811089 -34.848 
L 715.532478 -34.848 
L 715.253867 -34.848 
L 714.975256 -34.848 
L 714.696645 -34.848 
L 714.418033 -34.848 
L 714.139422 -34.848 
L 713.860811 -34.848 
L 713.5822 -34.848 
L 713.303589 -34.848 
L 713.024977 -34.848 
L 712.746366 -34.848 
L 712.467755 -34.848 
L 712.189144 -34.848 
L 711.910533 -34.848 
L 711.631921 -34.848 
L 711.35331 -34.848 
L 711.074699 -34.848 
L 710.796088 -34.848 
L 710.517477 -34.848 
L 710.238865 -34.848 
L 709.960254 -34.848 
L 709.681643 -34.848 
L 709.403032 -34.848 
L 709.12442 -34.848 
L 708.845809 -34.848 
L 708.567198 -34.848 
L 708.288587 -34.848 
L 708.009976 -34.848 
L 707.731364 -34.848 
L 707.452753 -34.848 
L 707.174142 -34.848 
L 706.895531 -34.848 
L 706.61692 -34.848 
L 706.338308 -34.848 
L 706.059697 -34.848 
L 705.781086 -34.848 
L 705.502475 -34.848 
L 705.223864 -34.848 
L 704.945252 -34.848 
L 704.666641 -34.848 
L 704.38803 -34.848 
L 704.109419 -34.848 
L 703.830808 -34.848 
L 703.552196 -34.848 
L 703.273585 -34.848 
L 702.994974 -34.848 
L 702.716363 -34.848 
L 702.437751 -34.848 
L 702.15914 -34.848 
L 701.880529 -34.848 
L 701.601918 -34.848 
L 701.323307 -34.848 
L 701.044695 -34.848 
L 700.766084 -34.848 
L 700.487473 -34.848 
L 700.208862 -34.848 
L 699.930251 -34.848 
L 699.651639 -34.848 
L 699.373028 -34.848 
L 699.094417 -34.848 
L 698.815806 -34.848 
L 698.537195 -34.848 
L 698.258583 -34.848 
L 697.979972 -34.848 
L 697.701361 -34.848 
L 697.42275 -34.848 
L 697.144139 -34.848 
L 696.865527 -34.848 
L 696.586916 -34.848 
L 696.308305 -34.848 
L 696.029694 -34.848 
L 695.751083 -34.848 
L 695.472471 -34.848 
L 695.19386 -34.848 
L 694.915249 -34.848 
L 694.636638 -34.848 
L 694.358026 -34.848 
L 694.079415 -34.848 
L 693.800804 -34.848 
L 693.522193 -34.848 
L 693.243582 -34.848 
L 692.96497 -34.848 
L 692.686359 -34.848 
L 692.407748 -34.848 
L 692.129137 -34.848 
L 691.850526 -34.848 
L 691.571914 -34.848 
L 691.293303 -34.848 
L 691.014692 -34.848 
L 690.736081 -34.848 
L 690.45747 -34.848 
L 690.178858 -34.848 
L 689.900247 -34.848 
L 689.621636 -34.848 
L 689.343025 -34.848 
L 689.064414 -34.848 
L 688.785802 -34.848 
L 688.507191 -34.848 
L 688.22858 -34.848 
L 687.949969 -34.848 
L 687.671357 -34.848 
L 687.392746 -34.848 
L 687.114135 -34.848 
L 686.835524 -34.848 
L 686.556913 -34.848 
L 686.278301 -34.848 
L 685.99969 -34.848 
L 685.721079 -34.848 
L 685.442468 -34.848 
L 685.163857 -34.848 
L 684.885245 -34.848 
L 684.606634 -34.848 
L 684.328023 -34.848 
L 684.049412 -34.848 
L 683.770801 -34.848 
L 683.492189 -34.848 
L 683.213578 -34.848 
L 682.934967 -34.848 
L 682.656356 -34.848 
L 682.377745 -34.848 
L 682.099133 -34.848 
L 681.820522 -34.848 
L 681.541911 -34.848 
L 681.2633 -34.848 
L 680.984688 -34.848 
L 680.706077 -34.848 
L 680.427466 -34.848 
L 680.148855 -34.848 
L 679.870244 -34.848 
L 679.591632 -34.848 
L 679.313021 -34.848 
L 679.03441 -34.848 
L 678.755799 -34.848 
L 678.477188 -34.848 
L 678.198576 -34.848 
L 677.919965 -34.848 
L 677.641354 -34.848 
L 677.362743 -34.848 
L 677.084132 -34.848 
L 676.80552 -34.848 
L 676.526909 -34.848 
L 676.248298 -34.848 
L 675.969687 -34.848 
L 675.691076 -34.848 
L 675.412464 -34.848 
L 675.133853 -34.848 
L 674.855242 -34.848 
L 674.576631 -34.848 
L 674.298019 -34.848 
L 674.019408 -34.848 
L 673.740797 -34.848 
L 673.462186 -34.848 
L 673.183575 -34.848 
L 672.904963 -34.848 
L 672.626352 -34.848 
L 672.347741 -34.848 
L 672.06913 -34.848 
L 671.790519 -34.848 
L 671.511907 -34.848 
L 671.233296 -34.848 
L 670.954685 -34.848 
L 670.676074 -34.848 
L 670.397463 -34.848 
L 670.118851 -34.848 
L 669.84024 -34.848 
L 669.561629 -34.848 
L 669.283018 -34.848 
L 669.004407 -34.848 
L 668.725795 -34.848 
L 668.447184 -34.848 
L 668.168573 -34.848 
L 667.889962 -34.848 
L 667.611351 -34.848 
L 667.332739 -34.848 
L 667.054128 -34.848 
L 666.775517 -34.848 
L 666.496906 -34.848 
L 666.218294 -34.848 
L 665.939683 -34.848 
L 665.661072 -34.848 
L 665.382461 -34.848 
L 665.10385 -34.848 
L 664.825238 -34.848 
L 664.546627 -34.848 
L 664.268016 -34.848 
L 663.989405 -34.848 
L 663.710794 -34.848 
L 663.432182 -34.848 
L 663.153571 -34.848 
L 662.87496 -34.848 
L 662.596349 -34.848 
L 662.317738 -34.848 
L 662.039126 -34.848 
L 661.760515 -34.848 
L 661.481904 -34.848 
L 661.203293 -34.848 
L 660.924682 -34.848 
L 660.64607 -34.848 
L 660.367459 -34.848 
L 660.088848 -34.848 
L 659.810237 -34.848 
L 659.531625 -34.848 
L 659.253014 -34.848 
L 658.974403 -34.848 
L 658.695792 -34.848 
L 658.417181 -34.848 
L 658.138569 -34.848 
L 657.859958 -34.848 
L 657.581347 -34.848 
L 657.302736 -34.848 
L 657.024125 -34.848 
L 656.745513 -34.848 
L 656.466902 -34.848 
L 656.188291 -34.848 
L 655.90968 -34.848 
L 655.631069 -34.848 
L 655.352457 -34.848 
L 655.073846 -34.848 
L 654.795235 -34.848 
L 654.516624 -34.848 
L 654.238013 -34.848 
L 653.959401 -34.848 
L 653.68079 -34.848 
L 653.402179 -34.848 
L 653.123568 -34.848 
L 652.844956 -34.848 
L 652.566345 -34.848 
L 652.287734 -34.848 
L 652.009123 -34.848 
L 651.730512 -34.848 
L 651.4519 -34.848 
L 651.173289 -34.848 
L 650.894678 -34.848 
L 650.616067 -34.848 
L 650.337456 -34.848 
L 650.058844 -34.848 
L 649.780233 -34.848 
L 649.501622 -34.848 
L 649.223011 -34.848 
L 648.9444 -34.848 
L 648.665788 -34.848 
L 648.387177 -34.848 
L 648.108566 -34.848 
L 647.829955 -34.848 
L 647.551344 -34.848 
L 647.272732 -34.848 
L 646.994121 -34.848 
L 646.71551 -34.848 
L 646.436899 -34.848 
L 646.158287 -34.848 
L 645.879676 -34.848 
L 645.601065 -34.848 
L 645.322454 -34.848 
L 645.043843 -34.848 
L 644.765231 -34.848 
L 644.48662 -34.848 
L 644.208009 -34.848 
L 643.929398 -34.848 
L 643.650787 -34.848 
L 643.372175 -34.848 
L 643.093564 -34.848 
L 642.814953 -34.848 
L 642.536342 -34.848 
L 642.257731 -34.848 
L 641.979119 -34.848 
L 641.700508 -34.848 
L 641.421897 -34.848 
L 641.143286 -34.848 
L 640.864675 -34.848 
L 640.586063 -34.848 
L 640.307452 -34.848 
L 640.028841 -34.848 
L 639.75023 -34.848 
L 639.471618 -34.848 
L 639.193007 -34.848 
L 638.914396 -34.848 
L 638.635785 -34.848 
L 638.357174 -34.848 
L 638.078562 -34.848 
L 637.799951 -34.848 
L 637.52134 -34.848 
L 637.242729 -34.848 
L 636.964118 -34.848 
L 636.685506 -34.848 
L 636.406895 -34.848 
L 636.128284 -34.848 
L 635.849673 -34.848 
L 635.571062 -34.848 
L 635.29245 -34.848 
L 635.013839 -34.848 
L 634.735228 -34.848 
L 634.456617 -34.848 
L 634.178006 -34.848 
L 633.899394 -34.848 
L 633.620783 -34.848 
L 633.342172 -34.848 
L 633.063561 -34.848 
L 632.78495 -34.848 
L 632.506338 -34.848 
L 632.227727 -34.848 
L 631.949116 -34.848 
L 631.670505 -34.848 
L 631.391893 -34.848 
L 631.113282 -34.848 
L 630.834671 -34.848 
L 630.55606 -34.848 
L 630.277449 -34.848 
L 629.998837 -34.848 
L 629.720226 -34.848 
L 629.441615 -34.848 
L 629.163004 -34.848 
L 628.884393 -34.848 
L 628.605781 -34.848 
L 628.32717 -34.848 
L 628.048559 -34.848 
L 627.769948 -34.848 
L 627.491337 -34.848 
L 627.212725 -34.848 
L 626.934114 -34.848 
L 626.655503 -34.848 
L 626.376892 -34.848 
L 626.098281 -34.848 
L 625.819669 -34.848 
L 625.541058 -34.848 
L 625.262447 -34.848 
L 624.983836 -34.848 
L 624.705224 -34.848 
L 624.426613 -34.848 
L 624.148002 -34.848 
L 623.869391 -34.848 
L 623.59078 -34.848 
L 623.312168 -34.848 
L 623.033557 -34.848 
L 622.754946 -34.848 
L 622.476335 -34.848 
L 622.197724 -34.848 
L 621.919112 -34.848 
L 621.640501 -34.848 
L 621.36189 -34.848 
L 621.083279 -34.848 
L 620.804668 -34.848 
L 620.526056 -34.848 
L 620.247445 -34.848 
L 619.968834 -34.848 
L 619.690223 -34.848 
L 619.411612 -34.848 
L 619.133 -34.848 
L 618.854389 -34.848 
L 618.575778 -34.848 
L 618.297167 -34.848 
L 618.018555 -34.848 
L 617.739944 -34.848 
L 617.461333 -34.848 
L 617.182722 -34.848 
L 616.904111 -34.848 
L 616.625499 -34.848 
L 616.346888 -34.848 
L 616.068277 -34.848 
L 615.789666 -34.848 
L 615.511055 -34.848 
L 615.232443 -34.848 
L 614.953832 -34.848 
L 614.675221 -34.848 
L 614.39661 -34.848 
L 614.117999 -34.848 
L 613.839387 -34.848 
L 613.560776 -34.848 
L 613.282165 -34.848 
L 613.003554 -34.848 
L 612.724943 -34.848 
L 612.446331 -34.848 
L 612.16772 -34.848 
L 611.889109 -34.848 
L 611.610498 -34.848 
L 611.331886 -34.848 
L 611.053275 -34.848 
L 610.774664 -34.848 
L 610.496053 -34.848 
L 610.217442 -34.848 
L 609.93883 -34.848 
L 609.660219 -34.848 
L 609.381608 -34.848 
L 609.102997 -34.848 
L 608.824386 -34.848 
L 608.545774 -34.848 
L 608.267163 -34.848 
L 607.988552 -34.848 
L 607.709941 -34.848 
L 607.43133 -34.848 
L 607.152718 -34.848 
L 606.874107 -34.848 
L 606.595496 -34.848 
L 606.316885 -34.848 
L 606.038274 -34.848 
L 605.759662 -34.848 
L 605.481051 -34.848 
L 605.20244 -34.848 
L 604.923829 -34.848 
L 604.645217 -34.848 
L 604.366606 -34.848 
L 604.087995 -34.848 
L 603.809384 -34.848 
L 603.530773 -34.848 
L 603.252161 -34.848 
L 602.97355 -34.848 
L 602.694939 -34.848 
L 602.416328 -34.848 
L 602.137717 -34.848 
L 601.859105 -34.848 
L 601.580494 -34.848 
L 601.301883 -34.848 
L 601.023272 -34.848 
L 600.744661 -34.848 
L 600.466049 -34.848 
L 600.187438 -34.848 
L 599.908827 -34.848 
L 599.630216 -34.848 
L 599.351605 -34.848 
L 599.072993 -34.848 
L 598.794382 -34.848 
L 598.515771 -34.848 
L 598.23716 -34.848 
L 597.958549 -34.848 
L 597.679937 -34.848 
L 597.401326 -34.848 
L 597.122715 -34.848 
L 596.844104 -34.848 
L 596.565492 -34.848 
L 596.286881 -34.848 
L 596.00827 -34.848 
L 595.729659 -34.848 
L 595.451048 -34.848 
L 595.172436 -34.848 
L 594.893825 -34.848 
L 594.615214 -34.848 
L 594.336603 -34.848 
L 594.057992 -34.848 
L 593.77938 -34.848 
L 593.500769 -34.848 
L 593.222158 -34.848 
L 592.943547 -34.848 
L 592.664936 -34.848 
L 592.386324 -34.848 
L 592.107713 -34.848 
L 591.829102 -34.848 
L 591.550491 -34.848 
L 591.27188 -34.848 
L 590.993268 -34.848 
L 590.714657 -34.848 
L 590.436046 -34.848 
L 590.157435 -34.848 
L 589.878823 -34.848 
L 589.600212 -34.848 
L 589.321601 -34.848 
L 589.04299 -34.848 
L 588.764379 -34.848 
L 588.485767 -34.848 
L 588.207156 -34.848 
L 587.928545 -34.848 
L 587.649934 -34.848 
L 587.371323 -34.848 
L 587.092711 -34.848 
L 586.8141 -34.848 
L 586.535489 -34.848 
L 586.256878 -34.848 
L 585.978267 -34.848 
L 585.699655 -34.848 
L 585.421044 -34.848 
L 585.142433 -34.848 
L 584.863822 -34.848 
L 584.585211 -34.848 
L 584.306599 -34.848 
L 584.027988 -34.848 
L 583.749377 -34.848 
L 583.470766 -34.848 
L 583.192154 -34.848 
L 582.913543 -34.848 
L 582.634932 -34.848 
L 582.356321 -34.848 
L 582.07771 -34.848 
L 581.799098 -34.848 
L 581.520487 -34.848 
L 581.241876 -34.848 
L 580.963265 -34.848 
L 580.684654 -34.848 
L 580.406042 -34.848 
L 580.127431 -34.848 
L 579.84882 -34.848 
L 579.570209 -34.848 
L 579.291598 -34.848 
L 579.012986 -34.848 
L 578.734375 -34.848 
L 578.455764 -34.848 
L 578.177153 -34.848 
L 577.898542 -34.848 
L 577.61993 -34.848 
L 577.341319 -34.848 
L 577.062708 -34.848 
L 576.784097 -34.848 
L 576.505485 -34.848 
L 576.226874 -34.848 
L 575.948263 -34.848 
L 575.669652 -34.848 
L 575.391041 -34.848 
L 575.112429 -34.848 
L 574.833818 -34.848 
L 574.555207 -34.848 
L 574.276596 -34.848 
L 573.997985 -34.848 
L 573.719373 -34.848 
L 573.440762 -34.848 
L 573.162151 -34.848 
L 572.88354 -34.848 
L 572.604929 -34.848 
L 572.326317 -34.848 
L 572.047706 -34.848 
L 571.769095 -34.848 
L 571.490484 -34.848 
L 571.211873 -34.848 
L 570.933261 -34.848 
L 570.65465 -34.848 
L 570.376039 -34.848 
L 570.097428 -34.848 
L 569.818816 -34.848 
L 569.540205 -34.848 
L 569.261594 -34.848 
L 568.982983 -34.848 
L 568.704372 -34.848 
L 568.42576 -34.848 
L 568.147149 -34.848 
L 567.868538 -34.848 
L 567.589927 -34.848 
L 567.311316 -34.848 
L 567.032704 -34.848 
L 566.754093 -34.848 
L 566.475482 -34.848 
L 566.196871 -34.848 
L 565.91826 -34.848 
L 565.639648 -34.848 
L 565.361037 -34.848 
L 565.082426 -34.848 
L 564.803815 -34.848 
L 564.525204 -34.848 
L 564.246592 -34.848 
L 563.967981 -34.848 
L 563.68937 -34.848 
L 563.410759 -34.848 
L 563.132148 -34.848 
L 562.853536 -34.848 
L 562.574925 -34.848 
L 562.296314 -34.848 
L 562.017703 -34.848 
L 561.739091 -34.848 
L 561.46048 -34.848 
L 561.181869 -34.848 
L 560.903258 -34.848 
L 560.624647 -34.848 
L 560.346035 -34.848 
L 560.067424 -34.848 
L 559.788813 -34.848 
L 559.510202 -34.848 
L 559.231591 -34.848 
L 558.952979 -34.848 
L 558.674368 -34.848 
L 558.395757 -34.848 
L 558.117146 -34.848 
L 557.838535 -34.848 
L 557.559923 -34.848 
L 557.281312 -34.848 
L 557.002701 -34.848 
L 556.72409 -34.848 
L 556.445479 -34.848 
L 556.166867 -34.848 
L 555.888256 -34.848 
L 555.609645 -34.848 
L 555.331034 -34.848 
L 555.052422 -34.848 
L 554.773811 -34.848 
L 554.4952 -34.848 
L 554.216589 -34.848 
L 553.937978 -34.848 
L 553.659366 -34.848 
L 553.380755 -34.848 
L 553.102144 -34.848 
L 552.823533 -34.848 
L 552.544922 -34.848 
L 552.26631 -34.848 
L 551.987699 -34.848 
L 551.709088 -34.848 
L 551.430477 -34.848 
L 551.151866 -34.848 
L 550.873254 -34.848 
L 550.594643 -34.848 
L 550.316032 -34.848 
L 550.037421 -34.848 
L 549.75881 -34.848 
L 549.480198 -34.848 
L 549.201587 -34.848 
L 548.922976 -34.848 
L 548.644365 -34.848 
L 548.365753 -34.848 
L 548.087142 -34.848 
L 547.808531 -34.848 
L 547.52992 -34.848 
L 547.251309 -34.848 
L 546.972697 -34.848 
L 546.694086 -34.848 
L 546.415475 -34.848 
L 546.136864 -34.848 
L 545.858253 -34.848 
L 545.579641 -34.848 
L 545.30103 -34.848 
L 545.022419 -34.848 
L 544.743808 -34.848 
L 544.465197 -34.848 
L 544.186585 -34.848 
L 543.907974 -34.848 
L 543.629363 -34.848 
L 543.350752 -34.848 
L 543.072141 -34.848 
L 542.793529 -34.848 
L 542.514918 -34.848 
L 542.236307 -34.848 
L 541.957696 -34.848 
L 541.679084 -34.848 
L 541.400473 -34.848 
L 541.121862 -34.848 
L 540.843251 -34.848 
L 540.56464 -34.848 
L 540.286028 -34.848 
L 540.007417 -34.848 
L 539.728806 -34.848 
L 539.450195 -34.848 
L 539.171584 -34.848 
L 538.892972 -34.848 
L 538.614361 -34.848 
L 538.33575 -34.848 
L 538.057139 -34.848 
L 537.778528 -34.848 
L 537.499916 -34.848 
L 537.221305 -34.848 
L 536.942694 -34.848 
L 536.664083 -34.848 
L 536.385472 -34.848 
L 536.10686 -34.848 
L 535.828249 -34.848 
L 535.549638 -34.848 
L 535.271027 -34.848 
L 534.992416 -34.848 
L 534.713804 -34.848 
L 534.435193 -34.848 
L 534.156582 -34.848 
L 533.877971 -34.848 
L 533.599359 -34.848 
L 533.320748 -34.848 
L 533.042137 -34.848 
L 532.763526 -34.848 
L 532.484915 -34.848 
L 532.206303 -34.848 
L 531.927692 -34.848 
L 531.649081 -34.848 
L 531.37047 -34.848 
L 531.091859 -34.848 
L 530.813247 -34.848 
L 530.534636 -34.848 
L 530.256025 -34.848 
L 529.977414 -34.848 
L 529.698803 -34.848 
L 529.420191 -34.848 
L 529.14158 -34.848 
L 528.862969 -34.848 
L 528.584358 -34.848 
L 528.305747 -34.848 
L 528.027135 -34.848 
L 527.748524 -34.848 
L 527.469913 -34.848 
L 527.191302 -34.848 
L 526.91269 -34.848 
L 526.634079 -34.848 
L 526.355468 -34.848 
L 526.076857 -34.848 
L 525.798246 -34.848 
L 525.519634 -34.848 
L 525.241023 -34.848 
L 524.962412 -34.848 
L 524.683801 -34.848 
L 524.40519 -34.848 
L 524.126578 -34.848 
L 523.847967 -34.848 
L 523.569356 -34.848 
L 523.290745 -34.848 
L 523.012134 -34.848 
L 522.733522 -34.848 
L 522.454911 -34.848 
L 522.1763 -34.848 
L 521.897689 -34.848 
L 521.619078 -34.848 
L 521.340466 -34.848 
L 521.061855 -34.848 
L 520.783244 -34.848 
L 520.504633 -34.848 
L 520.226021 -34.848 
L 519.94741 -34.848 
L 519.668799 -34.848 
L 519.390188 -34.848 
L 519.111577 -34.848 
L 518.832965 -34.848 
L 518.554354 -34.848 
L 518.275743 -34.848 
L 517.997132 -34.848 
L 517.718521 -34.848 
L 517.439909 -34.848 
L 517.161298 -34.848 
L 516.882687 -34.848 
L 516.604076 -34.848 
L 516.325465 -34.848 
L 516.046853 -34.848 
L 515.768242 -34.848 
L 515.489631 -34.848 
L 515.21102 -34.848 
L 514.932409 -34.848 
L 514.653797 -34.848 
L 514.375186 -34.848 
L 514.096575 -34.848 
L 513.817964 -34.848 
L 513.539352 -34.848 
L 513.260741 -34.848 
L 512.98213 -34.848 
L 512.703519 -34.848 
L 512.424908 -34.848 
L 512.146296 -34.848 
L 511.867685 -34.848 
L 511.589074 -34.848 
L 511.310463 -34.848 
L 511.031852 -34.848 
L 510.75324 -34.848 
L 510.474629 -34.848 
L 510.196018 -34.848 
L 509.917407 -34.848 
L 509.638796 -34.848 
L 509.360184 -34.848 
L 509.081573 -34.848 
L 508.802962 -34.848 
L 508.524351 -34.848 
L 508.24574 -34.848 
L 507.967128 -34.848 
L 507.688517 -34.848 
z
" style="stroke: #4c72b0; stroke-opacity: 0.2"/>
    </defs>
    <g>
     <use xlink:href="#mfb1e33745e" x="0" y="158.4" style="fill: #4c72b0; fill-opacity: 0.2; stroke: #4c72b0; stroke-opacity: 0.2"/>
    </g>
   </g>
   <g id="FillBetweenPolyCollection_2"/>
   <g id="FillBetweenPolyCollection_3">
    <defs>
     <path id="m65cd3c8b75" d="M 507.688517 -34.863363 
L 507.688517 -34.863363 
L 507.967128 -34.864689 
L 508.24574 -34.866119 
L 508.524351 -34.86766 
L 508.802962 -34.86932 
L 509.081573 -34.871105 
L 509.360184 -34.873026 
L 509.638796 -34.875091 
L 509.917407 -34.877309 
L 510.196018 -34.879689 
L 510.474629 -34.882243 
L 510.75324 -34.884982 
L 511.031852 -34.887916 
L 511.310463 -34.891058 
L 511.589074 -34.89442 
L 511.867685 -34.898016 
L 512.146296 -34.901859 
L 512.424908 -34.905964 
L 512.703519 -34.910345 
L 512.98213 -34.91502 
L 513.260741 -34.920003 
L 513.539352 -34.925313 
L 513.817964 -34.930966 
L 514.096575 -34.936982 
L 514.375186 -34.94338 
L 514.653797 -34.95018 
L 514.932409 -34.957402 
L 515.21102 -34.965068 
L 515.489631 -34.973201 
L 515.768242 -34.981823 
L 516.046853 -34.990957 
L 516.325465 -35.00063 
L 516.604076 -35.010866 
L 516.882687 -35.02169 
L 517.161298 -35.033131 
L 517.439909 -35.045215 
L 517.718521 -35.057971 
L 517.997132 -35.071428 
L 518.275743 -35.085616 
L 518.554354 -35.100565 
L 518.832965 -35.116307 
L 519.111577 -35.132874 
L 519.390188 -35.150298 
L 519.668799 -35.168612 
L 519.94741 -35.18785 
L 520.226021 -35.208048 
L 520.504633 -35.229239 
L 520.783244 -35.251459 
L 521.061855 -35.274744 
L 521.340466 -35.29913 
L 521.619078 -35.324655 
L 521.897689 -35.351356 
L 522.1763 -35.379269 
L 522.454911 -35.408433 
L 522.733522 -35.438886 
L 523.012134 -35.470665 
L 523.290745 -35.50381 
L 523.569356 -35.538357 
L 523.847967 -35.574346 
L 524.126578 -35.611814 
L 524.40519 -35.6508 
L 524.683801 -35.691341 
L 524.962412 -35.733476 
L 525.241023 -35.77724 
L 525.519634 -35.822671 
L 525.798246 -35.869805 
L 526.076857 -35.918678 
L 526.355468 -35.969326 
L 526.634079 -36.021782 
L 526.91269 -36.07608 
L 527.191302 -36.132254 
L 527.469913 -36.190334 
L 527.748524 -36.250354 
L 528.027135 -36.312341 
L 528.305747 -36.376326 
L 528.584358 -36.442335 
L 528.862969 -36.510397 
L 529.14158 -36.580535 
L 529.420191 -36.652773 
L 529.698803 -36.727135 
L 529.977414 -36.803641 
L 530.256025 -36.882311 
L 530.534636 -36.963163 
L 530.813247 -37.046212 
L 531.091859 -37.131474 
L 531.37047 -37.218962 
L 531.649081 -37.308687 
L 531.927692 -37.400658 
L 532.206303 -37.494884 
L 532.484915 -37.591369 
L 532.763526 -37.69012 
L 533.042137 -37.791136 
L 533.320748 -37.89442 
L 533.599359 -37.99997 
L 533.877971 -38.107782 
L 534.156582 -38.217851 
L 534.435193 -38.330171 
L 534.713804 -38.444732 
L 534.992416 -38.561525 
L 535.271027 -38.680537 
L 535.549638 -38.801755 
L 535.828249 -38.925161 
L 536.10686 -39.05074 
L 536.385472 -39.178471 
L 536.664083 -39.308335 
L 536.942694 -39.44031 
L 537.221305 -39.574372 
L 537.499916 -39.710496 
L 537.778528 -39.848657 
L 538.057139 -39.988826 
L 538.33575 -40.130975 
L 538.614361 -40.275075 
L 538.892972 -40.421094 
L 539.171584 -40.569002 
L 539.450195 -40.718765 
L 539.728806 -40.87035 
L 540.007417 -41.023724 
L 540.286028 -41.178851 
L 540.56464 -41.335697 
L 540.843251 -41.494226 
L 541.121862 -41.654402 
L 541.400473 -41.81619 
L 541.679084 -41.979553 
L 541.957696 -42.144455 
L 542.236307 -42.310859 
L 542.514918 -42.478731 
L 542.793529 -42.648033 
L 543.072141 -42.81873 
L 543.350752 -42.990787 
L 543.629363 -43.16417 
L 543.907974 -43.338845 
L 544.186585 -43.514777 
L 544.465197 -43.691935 
L 544.743808 -43.870285 
L 545.022419 -44.049798 
L 545.30103 -44.230443 
L 545.579641 -44.41219 
L 545.858253 -44.595012 
L 546.136864 -44.778881 
L 546.415475 -44.963771 
L 546.694086 -45.149658 
L 546.972697 -45.336517 
L 547.251309 -45.524327 
L 547.52992 -45.713067 
L 547.808531 -45.902717 
L 548.087142 -46.093258 
L 548.365753 -46.284673 
L 548.644365 -46.476947 
L 548.922976 -46.670066 
L 549.201587 -46.864017 
L 549.480198 -47.058789 
L 549.75881 -47.25437 
L 550.037421 -47.450754 
L 550.316032 -47.647932 
L 550.594643 -47.845899 
L 550.873254 -48.04465 
L 551.151866 -48.244182 
L 551.430477 -48.444493 
L 551.709088 -48.645583 
L 551.987699 -48.847452 
L 552.26631 -49.050102 
L 552.544922 -49.253536 
L 552.823533 -49.457759 
L 553.102144 -49.662776 
L 553.380755 -49.868593 
L 553.659366 -50.075217 
L 553.937978 -50.282658 
L 554.216589 -50.490925 
L 554.4952 -50.700027 
L 554.773811 -50.909976 
L 555.052422 -51.120784 
L 555.331034 -51.332463 
L 555.609645 -51.545027 
L 555.888256 -51.758489 
L 556.166867 -51.972864 
L 556.445479 -52.188168 
L 556.72409 -52.404416 
L 557.002701 -52.621623 
L 557.281312 -52.839806 
L 557.559923 -53.058982 
L 557.838535 -53.279167 
L 558.117146 -53.50038 
L 558.395757 -53.722637 
L 558.674368 -53.945955 
L 558.952979 -54.170354 
L 559.231591 -54.395849 
L 559.510202 -54.62246 
L 559.788813 -54.850203 
L 560.067424 -55.079096 
L 560.346035 -55.309158 
L 560.624647 -55.540404 
L 560.903258 -55.772853 
L 561.181869 -56.006522 
L 561.46048 -56.241427 
L 561.739091 -56.477585 
L 562.017703 -56.715013 
L 562.296314 -56.953725 
L 562.574925 -57.193739 
L 562.853536 -57.435068 
L 563.132148 -57.677728 
L 563.410759 -57.921734 
L 563.68937 -58.1671 
L 563.967981 -58.413839 
L 564.246592 -58.661964 
L 564.525204 -58.911488 
L 564.803815 -59.162425 
L 565.082426 -59.414784 
L 565.361037 -59.668578 
L 565.639648 -59.923818 
L 565.91826 -60.180514 
L 566.196871 -60.438676 
L 566.475482 -60.698313 
L 566.754093 -60.959435 
L 567.032704 -61.222048 
L 567.311316 -61.486162 
L 567.589927 -61.751784 
L 567.868538 -62.01892 
L 568.147149 -62.287577 
L 568.42576 -62.557761 
L 568.704372 -62.829477 
L 568.982983 -63.102729 
L 569.261594 -63.377523 
L 569.540205 -63.653861 
L 569.818816 -63.931748 
L 570.097428 -64.211186 
L 570.376039 -64.492178 
L 570.65465 -64.774725 
L 570.933261 -65.058829 
L 571.211873 -65.344491 
L 571.490484 -65.631712 
L 571.769095 -65.920492 
L 572.047706 -66.21083 
L 572.326317 -66.502725 
L 572.604929 -66.796178 
L 572.88354 -67.091185 
L 573.162151 -67.387745 
L 573.440762 -67.685856 
L 573.719373 -67.985515 
L 573.997985 -68.286719 
L 574.276596 -68.589463 
L 574.555207 -68.893745 
L 574.833818 -69.19956 
L 575.112429 -69.506903 
L 575.391041 -69.815769 
L 575.669652 -70.126154 
L 575.948263 -70.43805 
L 576.226874 -70.751453 
L 576.505485 -71.066355 
L 576.784097 -71.38275 
L 577.062708 -71.700632 
L 577.341319 -72.019991 
L 577.61993 -72.340822 
L 577.898542 -72.663116 
L 578.177153 -72.986864 
L 578.455764 -73.312058 
L 578.734375 -73.638689 
L 579.012986 -73.966748 
L 579.291598 -74.296225 
L 579.570209 -74.627111 
L 579.84882 -74.959395 
L 580.127431 -75.293067 
L 580.406042 -75.628116 
L 580.684654 -75.964532 
L 580.963265 -76.302303 
L 581.241876 -76.641418 
L 581.520487 -76.981864 
L 581.799098 -77.323631 
L 582.07771 -77.666705 
L 582.356321 -78.011074 
L 582.634932 -78.356725 
L 582.913543 -78.703645 
L 583.192154 -79.051822 
L 583.470766 -79.40124 
L 583.749377 -79.751886 
L 584.027988 -80.103747 
L 584.306599 -80.456807 
L 584.585211 -80.811053 
L 584.863822 -81.166468 
L 585.142433 -81.523039 
L 585.421044 -81.88075 
L 585.699655 -82.239584 
L 585.978267 -82.599527 
L 586.256878 -82.960562 
L 586.535489 -83.322672 
L 586.8141 -83.685842 
L 587.092711 -84.050054 
L 587.371323 -84.415291 
L 587.649934 -84.781536 
L 587.928545 -85.148771 
L 588.207156 -85.516979 
L 588.485767 -85.886141 
L 588.764379 -86.256239 
L 589.04299 -86.627255 
L 589.321601 -86.99917 
L 589.600212 -87.371965 
L 589.878823 -87.74562 
L 590.157435 -88.120117 
L 590.436046 -88.495436 
L 590.714657 -88.871556 
L 590.993268 -89.248458 
L 591.27188 -89.626122 
L 591.550491 -90.004526 
L 591.829102 -90.38365 
L 592.107713 -90.763474 
L 592.386324 -91.143975 
L 592.664936 -91.525133 
L 592.943547 -91.906925 
L 593.222158 -92.289331 
L 593.222158 -92.289331 
L 593.222158 -34.848 
L 592.943547 -34.848 
L 592.664936 -34.848 
L 592.386324 -34.848 
L 592.107713 -34.848 
L 591.829102 -34.848 
L 591.550491 -34.848 
L 591.27188 -34.848 
L 590.993268 -34.848 
L 590.714657 -34.848 
L 590.436046 -34.848 
L 590.157435 -34.848 
L 589.878823 -34.848 
L 589.600212 -34.848 
L 589.321601 -34.848 
L 589.04299 -34.848 
L 588.764379 -34.848 
L 588.485767 -34.848 
L 588.207156 -34.848 
L 587.928545 -34.848 
L 587.649934 -34.848 
L 587.371323 -34.848 
L 587.092711 -34.848 
L 586.8141 -34.848 
L 586.535489 -34.848 
L 586.256878 -34.848 
L 585.978267 -34.848 
L 585.699655 -34.848 
L 585.421044 -34.848 
L 585.142433 -34.848 
L 584.863822 -34.848 
L 584.585211 -34.848 
L 584.306599 -34.848 
L 584.027988 -34.848 
L 583.749377 -34.848 
L 583.470766 -34.848 
L 583.192154 -34.848 
L 582.913543 -34.848 
L 582.634932 -34.848 
L 582.356321 -34.848 
L 582.07771 -34.848 
L 581.799098 -34.848 
L 581.520487 -34.848 
L 581.241876 -34.848 
L 580.963265 -34.848 
L 580.684654 -34.848 
L 580.406042 -34.848 
L 580.127431 -34.848 
L 579.84882 -34.848 
L 579.570209 -34.848 
L 579.291598 -34.848 
L 579.012986 -34.848 
L 578.734375 -34.848 
L 578.455764 -34.848 
L 578.177153 -34.848 
L 577.898542 -34.848 
L 577.61993 -34.848 
L 577.341319 -34.848 
L 577.062708 -34.848 
L 576.784097 -34.848 
L 576.505485 -34.848 
L 576.226874 -34.848 
L 575.948263 -34.848 
L 575.669652 -34.848 
L 575.391041 -34.848 
L 575.112429 -34.848 
L 574.833818 -34.848 
L 574.555207 -34.848 
L 574.276596 -34.848 
L 573.997985 -34.848 
L 573.719373 -34.848 
L 573.440762 -34.848 
L 573.162151 -34.848 
L 572.88354 -34.848 
L 572.604929 -34.848 
L 572.326317 -34.848 
L 572.047706 -34.848 
L 571.769095 -34.848 
L 571.490484 -34.848 
L 571.211873 -34.848 
L 570.933261 -34.848 
L 570.65465 -34.848 
L 570.376039 -34.848 
L 570.097428 -34.848 
L 569.818816 -34.848 
L 569.540205 -34.848 
L 569.261594 -34.848 
L 568.982983 -34.848 
L 568.704372 -34.848 
L 568.42576 -34.848 
L 568.147149 -34.848 
L 567.868538 -34.848 
L 567.589927 -34.848 
L 567.311316 -34.848 
L 567.032704 -34.848 
L 566.754093 -34.848 
L 566.475482 -34.848 
L 566.196871 -34.848 
L 565.91826 -34.848 
L 565.639648 -34.848 
L 565.361037 -34.848 
L 565.082426 -34.848 
L 564.803815 -34.848 
L 564.525204 -34.848 
L 564.246592 -34.848 
L 563.967981 -34.848 
L 563.68937 -34.848 
L 563.410759 -34.848 
L 563.132148 -34.848 
L 562.853536 -34.848 
L 562.574925 -34.848 
L 562.296314 -34.848 
L 562.017703 -34.848 
L 561.739091 -34.848 
L 561.46048 -34.848 
L 561.181869 -34.848 
L 560.903258 -34.848 
L 560.624647 -34.848 
L 560.346035 -34.848 
L 560.067424 -34.848 
L 559.788813 -34.848 
L 559.510202 -34.848 
L 559.231591 -34.848 
L 558.952979 -34.848 
L 558.674368 -34.848 
L 558.395757 -34.848 
L 558.117146 -34.848 
L 557.838535 -34.848 
L 557.559923 -34.848 
L 557.281312 -34.848 
L 557.002701 -34.848 
L 556.72409 -34.848 
L 556.445479 -34.848 
L 556.166867 -34.848 
L 555.888256 -34.848 
L 555.609645 -34.848 
L 555.331034 -34.848 
L 555.052422 -34.848 
L 554.773811 -34.848 
L 554.4952 -34.848 
L 554.216589 -34.848 
L 553.937978 -34.848 
L 553.659366 -34.848 
L 553.380755 -34.848 
L 553.102144 -34.848 
L 552.823533 -34.848 
L 552.544922 -34.848 
L 552.26631 -34.848 
L 551.987699 -34.848 
L 551.709088 -34.848 
L 551.430477 -34.848 
L 551.151866 -34.848 
L 550.873254 -34.848 
L 550.594643 -34.848 
L 550.316032 -34.848 
L 550.037421 -34.848 
L 549.75881 -34.848 
L 549.480198 -34.848 
L 549.201587 -34.848 
L 548.922976 -34.848 
L 548.644365 -34.848 
L 548.365753 -34.848 
L 548.087142 -34.848 
L 547.808531 -34.848 
L 547.52992 -34.848 
L 547.251309 -34.848 
L 546.972697 -34.848 
L 546.694086 -34.848 
L 546.415475 -34.848 
L 546.136864 -34.848 
L 545.858253 -34.848 
L 545.579641 -34.848 
L 545.30103 -34.848 
L 545.022419 -34.848 
L 544.743808 -34.848 
L 544.465197 -34.848 
L 544.186585 -34.848 
L 543.907974 -34.848 
L 543.629363 -34.848 
L 543.350752 -34.848 
L 543.072141 -34.848 
L 542.793529 -34.848 
L 542.514918 -34.848 
L 542.236307 -34.848 
L 541.957696 -34.848 
L 541.679084 -34.848 
L 541.400473 -34.848 
L 541.121862 -34.848 
L 540.843251 -34.848 
L 540.56464 -34.848 
L 540.286028 -34.848 
L 540.007417 -34.848 
L 539.728806 -34.848 
L 539.450195 -34.848 
L 539.171584 -34.848 
L 538.892972 -34.848 
L 538.614361 -34.848 
L 538.33575 -34.848 
L 538.057139 -34.848 
L 537.778528 -34.848 
L 537.499916 -34.848 
L 537.221305 -34.848 
L 536.942694 -34.848 
L 536.664083 -34.848 
L 536.385472 -34.848 
L 536.10686 -34.848 
L 535.828249 -34.848 
L 535.549638 -34.848 
L 535.271027 -34.848 
L 534.992416 -34.848 
L 534.713804 -34.848 
L 534.435193 -34.848 
L 534.156582 -34.848 
L 533.877971 -34.848 
L 533.599359 -34.848 
L 533.320748 -34.848 
L 533.042137 -34.848 
L 532.763526 -34.848 
L 532.484915 -34.848 
L 532.206303 -34.848 
L 531.927692 -34.848 
L 531.649081 -34.848 
L 531.37047 -34.848 
L 531.091859 -34.848 
L 530.813247 -34.848 
L 530.534636 -34.848 
L 530.256025 -34.848 
L 529.977414 -34.848 
L 529.698803 -34.848 
L 529.420191 -34.848 
L 529.14158 -34.848 
L 528.862969 -34.848 
L 528.584358 -34.848 
L 528.305747 -34.848 
L 528.027135 -34.848 
L 527.748524 -34.848 
L 527.469913 -34.848 
L 527.191302 -34.848 
L 526.91269 -34.848 
L 526.634079 -34.848 
L 526.355468 -34.848 
L 526.076857 -34.848 
L 525.798246 -34.848 
L 525.519634 -34.848 
L 525.241023 -34.848 
L 524.962412 -34.848 
L 524.683801 -34.848 
L 524.40519 -34.848 
L 524.126578 -34.848 
L 523.847967 -34.848 
L 523.569356 -34.848 
L 523.290745 -34.848 
L 523.012134 -34.848 
L 522.733522 -34.848 
L 522.454911 -34.848 
L 522.1763 -34.848 
L 521.897689 -34.848 
L 521.619078 -34.848 
L 521.340466 -34.848 
L 521.061855 -34.848 
L 520.783244 -34.848 
L 520.504633 -34.848 
L 520.226021 -34.848 
L 519.94741 -34.848 
L 519.668799 -34.848 
L 519.390188 -34.848 
L 519.111577 -34.848 
L 518.832965 -34.848 
L 518.554354 -34.848 
L 518.275743 -34.848 
L 517.997132 -34.848 
L 517.718521 -34.848 
L 517.439909 -34.848 
L 517.161298 -34.848 
L 516.882687 -34.848 
L 516.604076 -34.848 
L 516.325465 -34.848 
L 516.046853 -34.848 
L 515.768242 -34.848 
L 515.489631 -34.848 
L 515.21102 -34.848 
L 514.932409 -34.848 
L 514.653797 -34.848 
L 514.375186 -34.848 
L 514.096575 -34.848 
L 513.817964 -34.848 
L 513.539352 -34.848 
L 513.260741 -34.848 
L 512.98213 -34.848 
L 512.703519 -34.848 
L 512.424908 -34.848 
L 512.146296 -34.848 
L 511.867685 -34.848 
L 511.589074 -34.848 
L 511.310463 -34.848 
L 511.031852 -34.848 
L 510.75324 -34.848 
L 510.474629 -34.848 
L 510.196018 -34.848 
L 509.917407 -34.848 
L 509.638796 -34.848 
L 509.360184 -34.848 
L 509.081573 -34.848 
L 508.802962 -34.848 
L 508.524351 -34.848 
L 508.24574 -34.848 
L 507.967128 -34.848 
L 507.688517 -34.848 
z
" style="stroke: #4c72b0; stroke-opacity: 0.3"/>
    </defs>
    <g>
     <use xlink:href="#m65cd3c8b75" x="0" y="158.4" style="fill: #4c72b0; fill-opacity: 0.3; stroke: #4c72b0; stroke-opacity: 0.3"/>
    </g>
   </g>
   <g id="line2d_35">
    <path d="M 507.688517 123.536637 
L 516.604076 123.389134 
L 521.340466 123.10087 
L 524.962412 122.666524 
L 528.027135 122.087659 
L 530.813247 121.353788 
L 533.599359 120.40003 
L 536.385472 119.221529 
L 539.450195 117.681235 
L 542.793529 115.751967 
L 546.972697 113.063483 
L 551.987699 109.552548 
L 557.002701 105.778377 
L 561.46048 102.158573 
L 565.639648 98.476182 
L 569.540205 94.746139 
L 573.440762 90.714144 
L 577.61993 86.059178 
L 582.07771 80.733295 
L 586.8141 74.714158 
L 592.386324 67.256025 
L 600.744661 55.639323 
L 609.381608 43.727242 
L 614.39661 37.182546 
L 618.575778 32.095706 
L 622.197724 28.040012 
L 625.541058 24.644059 
L 628.605781 21.864731 
L 631.391893 19.643072 
L 633.899394 17.910564 
L 636.406895 16.445421 
L 638.635785 15.377151 
L 640.864675 14.536405 
L 643.093564 13.92863 
L 645.322454 13.557783 
L 647.551344 13.426286 
L 649.780233 13.534997 
L 652.009123 13.883207 
L 654.238013 14.468641 
L 656.466902 15.287487 
L 658.695792 16.334437 
L 661.203293 17.776453 
L 663.710794 19.486914 
L 666.496906 21.685541 
L 669.283018 24.177168 
L 672.347741 27.227755 
L 675.691076 30.886064 
L 679.313021 35.183647 
L 683.492189 40.49226 
L 688.785802 47.602332 
L 698.258583 60.798916 
L 706.059697 71.490463 
L 711.35331 78.38124 
L 716.089701 84.184109 
L 720.268869 88.970438 
L 724.448037 93.419732 
L 728.627205 97.530573 
L 732.806373 101.327026 
L 737.542764 105.31114 
L 742.836377 109.458321 
L 747.851378 113.124213 
L 752.030547 115.915921 
L 755.373881 117.893682 
L 758.438604 119.447242 
L 761.224716 120.61441 
L 764.010828 121.540596 
L 766.796941 122.238162 
L 769.861664 122.77548 
L 773.48361 123.167457 
L 777.941389 123.409268 
L 784.906669 123.529315 
L 786.021114 123.535659 
L 786.021114 123.535659 
" style="fill: none; stroke: #4c72b0; stroke-width: 1.5; stroke-linecap: round"/>
   </g>
   <g id="line2d_36">
    <path d="M 33.12 123.552 
L 794.88 123.552 
" style="fill: none; stroke: #808080; stroke-width: 0.5; stroke-linecap: round"/>
   </g>
   <g id="text_10">
    <text style="font-size: 10px; font-family: 'Arial', 'DejaVu Sans', 'Liberation Sans', 'Bitstream Vera Sans', sans-serif; text-anchor: middle" x="647.598909" y="121.447313" transform="rotate(-0 647.598909 121.447313)">Sweden (2026)</text>
   </g>
  </g>
 </g>
</svg>
