<?xml version="1.0" encoding="utf-8" standalone="no"?>
<!DOCTYPE svg PUBLIC "-//W3C//DTD SVG 1.1//EN"
  "http://www.w3.org/Graphics/SVG/1.1/DTD/svg11.dtd">
<svg xmlns:xlink="http://www.w3.org/1999/xlink" width="656.1pt" height="183.151437pt" viewBox="0 0 656.1 183.151437" xmlns="http://www.w3.org/2000/svg" version="1.1">
 <metadata>
  <rdf:RDF xmlns:dc="http://purl.org/dc/elements/1.1/" xmlns:cc="http://creativecommons.org/ns#" xmlns:rdf="http://www.w3.org/1999/02/22-rdf-syntax-ns#">
   <cc:Work>
    <dc:type rdf:resource="http://purl.org/dc/dcmitype/StillImage"/>
    <dc:date>2026-05-28T14:12:57.471568</dc:date>
    <dc:format>image/svg+xml</dc:format>
    <dc:creator>
     <cc:Agent>
      <dc:title>Matplotlib v3.10.9, https://matplotlib.org/</dc:title>
     </cc:Agent>
    </dc:creator>
   </cc:Work>
  </rdf:RDF>
 </metadata>
 <defs>
  <style type="text/css">*{stroke-linejoin: round; stroke-linecap: butt}</style>
 </defs>
 <g id="figure_1">
  <g id="patch_1">
   <path d="M 0 183.151437 
L 656.1 183.151437 
L 656.1 0 
L 0 0 
z
" style="fill: #ffffff"/>
  </g>
  <g id="axes_1">
   <g id="patch_2">
    <path d="M 7.2 146.42175 
L 648.9 146.42175 
L 648.9 24.45375 
L 7.2 24.45375 
z
" style="fill: #ffffff"/>
   </g>
   <g id="matplotlib.axis_1">
    <g id="xtick_1">
     <g id="line2d_1">
      <defs>
       <path id="m392ed16bcb" d="M 0 0 
L 0 3.5 
" style="stroke: #262626; stroke-width: 0.8"/>
      </defs>
      <g>
       <use xlink:href="#m392ed16bcb" x="41.482123" y="146.42175" style="fill: #262626; stroke: #262626; stroke-width: 0.8"/>
      </g>
     </g>
     <g id="text_1">
      <text style="font-size: 10px; font-family: 'Arial', 'DejaVu Sans', 'Liberation Sans', 'Bitstream Vera Sans', sans-serif; text-anchor: middle; fill: #262626" x="41.482123" y="160.579562" transform="rotate(-0 41.482123 160.579562)">$2</text>
     </g>
    </g>
    <g id="xtick_2">
     <g id="line2d_2">
      <g>
       <use xlink:href="#m392ed16bcb" x="108.679018" y="146.42175" style="fill: #262626; stroke: #262626; stroke-width: 0.8"/>
      </g>
     </g>
     <g id="text_2">
      <text style="font-size: 10px; font-family: 'Arial', 'DejaVu Sans', 'Liberation Sans', 'Bitstream Vera Sans', sans-serif; text-anchor: middle; fill: #262626" x="108.679018" y="160.579562" transform="rotate(-0 108.679018 160.579562)">$5</text>
     </g>
    </g>
    <g id="xtick_3">
     <g id="line2d_3">
      <g>
       <use xlink:href="#m392ed16bcb" x="159.511507" y="146.42175" style="fill: #262626; stroke: #262626; stroke-width: 0.8"/>
      </g>
     </g>
     <g id="text_3">
      <text style="font-size: 10px; font-family: 'Arial', 'DejaVu Sans', 'Liberation Sans', 'Bitstream Vera Sans', sans-serif; text-anchor: middle; fill: #262626" x="159.511507" y="160.579562" transform="rotate(-0 159.511507 160.579562)">$10</text>
     </g>
    </g>
    <g id="xtick_4">
     <g id="line2d_4">
      <g>
       <use xlink:href="#m392ed16bcb" x="210.343995" y="146.42175" style="fill: #262626; stroke: #262626; stroke-width: 0.8"/>
      </g>
     </g>
     <g id="text_4">
      <text style="font-size: 10px; font-family: 'Arial', 'DejaVu Sans', 'Liberation Sans', 'Bitstream Vera Sans', sans-serif; text-anchor: middle; fill: #262626" x="210.343995" y="160.579562" transform="rotate(-0 210.343995 160.579562)">$20</text>
     </g>
    </g>
    <g id="xtick_5">
     <g id="line2d_5">
      <g>
       <use xlink:href="#m392ed16bcb" x="277.54089" y="146.42175" style="fill: #262626; stroke: #262626; stroke-width: 0.8"/>
      </g>
     </g>
     <g id="text_5">
      <text style="font-size: 10px; font-family: 'Arial', 'DejaVu Sans', 'Liberation Sans', 'Bitstream Vera Sans', sans-serif; text-anchor: middle; fill: #262626" x="277.54089" y="160.579562" transform="rotate(-0 277.54089 160.579562)">$50</text>
     </g>
    </g>
    <g id="xtick_6">
     <g id="line2d_6">
      <g>
       <use xlink:href="#m392ed16bcb" x="328.373379" y="146.42175" style="fill: #262626; stroke: #262626; stroke-width: 0.8"/>
      </g>
     </g>
     <g id="text_6">
      <text style="font-size: 10px; font-family: 'Arial', 'DejaVu Sans', 'Liberation Sans', 'Bitstream Vera Sans', sans-serif; text-anchor: middle; fill: #262626" x="328.373379" y="160.579562" transform="rotate(-0 328.373379 160.579562)">$100</text>
     </g>
    </g>
    <g id="xtick_7">
     <g id="line2d_7">
      <g>
       <use xlink:href="#m392ed16bcb" x="379.205868" y="146.42175" style="fill: #262626; stroke: #262626; stroke-width: 0.8"/>
      </g>
     </g>
     <g id="text_7">
      <text style="font-size: 10px; font-family: 'Arial', 'DejaVu Sans', 'Liberation Sans', 'Bitstream Vera Sans', sans-serif; text-anchor: middle; fill: #262626" x="379.205868" y="160.579562" transform="rotate(-0 379.205868 160.579562)">$200</text>
     </g>
    </g>
    <g id="xtick_8">
     <g id="line2d_8">
      <g>
       <use xlink:href="#m392ed16bcb" x="446.402762" y="146.42175" style="fill: #262626; stroke: #262626; stroke-width: 0.8"/>
      </g>
     </g>
     <g id="text_8">
      <text style="font-size: 10px; font-family: 'Arial', 'DejaVu Sans', 'Liberation Sans', 'Bitstream Vera Sans', sans-serif; text-anchor: middle; fill: #262626" x="446.402762" y="160.579562" transform="rotate(-0 446.402762 160.579562)">$500</text>
     </g>
    </g>
    <g id="xtick_9">
     <g id="line2d_9">
      <g>
       <use xlink:href="#m392ed16bcb" x="497.235251" y="146.42175" style="fill: #262626; stroke: #262626; stroke-width: 0.8"/>
      </g>
     </g>
     <g id="text_9">
      <text style="font-size: 10px; font-family: 'Arial', 'DejaVu Sans', 'Liberation Sans', 'Bitstream Vera Sans', sans-serif; text-anchor: middle; fill: #262626" x="497.235251" y="160.579562" transform="rotate(-0 497.235251 160.579562)">$1000</text>
     </g>
    </g>
    <g id="xtick_10">
     <g id="line2d_10">
      <g>
       <use xlink:href="#m392ed16bcb" x="548.06774" y="146.42175" style="fill: #262626; stroke: #262626; stroke-width: 0.8"/>
      </g>
     </g>
     <g id="text_10">
      <text style="font-size: 10px; font-family: 'Arial', 'DejaVu Sans', 'Liberation Sans', 'Bitstream Vera Sans', sans-serif; text-anchor: middle; fill: #262626" x="548.06774" y="160.579562" transform="rotate(-0 548.06774 160.579562)">$2000</text>
     </g>
    </g>
    <g id="xtick_11">
     <g id="line2d_11">
      <g>
       <use xlink:href="#m392ed16bcb" x="615.264635" y="146.42175" style="fill: #262626; stroke: #262626; stroke-width: 0.8"/>
      </g>
     </g>
     <g id="text_11">
      <text style="font-size: 10px; font-family: 'Arial', 'DejaVu Sans', 'Liberation Sans', 'Bitstream Vera Sans', sans-serif; text-anchor: middle; fill: #262626" x="615.264635" y="160.579562" transform="rotate(-0 615.264635 160.579562)">$5000</text>
     </g>
    </g>
    <g id="xtick_12">
     <g id="line2d_12">
      <defs>
       <path id="me385048b72" d="M 0 0 
L 0 2 
" style="stroke: #262626; stroke-width: 0.6"/>
      </defs>
      <g>
       <use xlink:href="#me385048b72" x="71.217223" y="146.42175" style="fill: #262626; stroke: #262626; stroke-width: 0.6"/>
      </g>
     </g>
    </g>
    <g id="xtick_13">
     <g id="line2d_13">
      <g>
       <use xlink:href="#me385048b72" x="92.314612" y="146.42175" style="fill: #262626; stroke: #262626; stroke-width: 0.6"/>
      </g>
     </g>
    </g>
    <g id="xtick_14">
     <g id="line2d_14">
      <g>
       <use xlink:href="#me385048b72" x="122.049711" y="146.42175" style="fill: #262626; stroke: #262626; stroke-width: 0.6"/>
      </g>
     </g>
    </g>
    <g id="xtick_15">
     <g id="line2d_15">
      <g>
       <use xlink:href="#me385048b72" x="133.354472" y="146.42175" style="fill: #262626; stroke: #262626; stroke-width: 0.6"/>
      </g>
     </g>
    </g>
    <g id="xtick_16">
     <g id="line2d_16">
      <g>
       <use xlink:href="#me385048b72" x="143.1471" y="146.42175" style="fill: #262626; stroke: #262626; stroke-width: 0.6"/>
      </g>
     </g>
    </g>
    <g id="xtick_17">
     <g id="line2d_17">
      <g>
       <use xlink:href="#me385048b72" x="151.784811" y="146.42175" style="fill: #262626; stroke: #262626; stroke-width: 0.6"/>
      </g>
     </g>
    </g>
    <g id="xtick_18">
     <g id="line2d_18">
      <g>
       <use xlink:href="#me385048b72" x="240.079095" y="146.42175" style="fill: #262626; stroke: #262626; stroke-width: 0.6"/>
      </g>
     </g>
    </g>
    <g id="xtick_19">
     <g id="line2d_19">
      <g>
       <use xlink:href="#me385048b72" x="261.176484" y="146.42175" style="fill: #262626; stroke: #262626; stroke-width: 0.6"/>
      </g>
     </g>
    </g>
    <g id="xtick_20">
     <g id="line2d_20">
      <g>
       <use xlink:href="#me385048b72" x="290.911584" y="146.42175" style="fill: #262626; stroke: #262626; stroke-width: 0.6"/>
      </g>
     </g>
    </g>
    <g id="xtick_21">
     <g id="line2d_21">
      <g>
       <use xlink:href="#me385048b72" x="302.216344" y="146.42175" style="fill: #262626; stroke: #262626; stroke-width: 0.6"/>
      </g>
     </g>
    </g>
    <g id="xtick_22">
     <g id="line2d_22">
      <g>
       <use xlink:href="#me385048b72" x="312.008973" y="146.42175" style="fill: #262626; stroke: #262626; stroke-width: 0.6"/>
      </g>
     </g>
    </g>
    <g id="xtick_23">
     <g id="line2d_23">
      <g>
       <use xlink:href="#me385048b72" x="320.646683" y="146.42175" style="fill: #262626; stroke: #262626; stroke-width: 0.6"/>
      </g>
     </g>
    </g>
    <g id="xtick_24">
     <g id="line2d_24">
      <g>
       <use xlink:href="#me385048b72" x="408.940967" y="146.42175" style="fill: #262626; stroke: #262626; stroke-width: 0.6"/>
      </g>
     </g>
    </g>
    <g id="xtick_25">
     <g id="line2d_25">
      <g>
       <use xlink:href="#me385048b72" x="430.038356" y="146.42175" style="fill: #262626; stroke: #262626; stroke-width: 0.6"/>
      </g>
     </g>
    </g>
    <g id="xtick_26">
     <g id="line2d_26">
      <g>
       <use xlink:href="#me385048b72" x="459.773456" y="146.42175" style="fill: #262626; stroke: #262626; stroke-width: 0.6"/>
      </g>
     </g>
    </g>
    <g id="xtick_27">
     <g id="line2d_27">
      <g>
       <use xlink:href="#me385048b72" x="471.078216" y="146.42175" style="fill: #262626; stroke: #262626; stroke-width: 0.6"/>
      </g>
     </g>
    </g>
    <g id="xtick_28">
     <g id="line2d_28">
      <g>
       <use xlink:href="#me385048b72" x="480.870845" y="146.42175" style="fill: #262626; stroke: #262626; stroke-width: 0.6"/>
      </g>
     </g>
    </g>
    <g id="xtick_29">
     <g id="line2d_29">
      <g>
       <use xlink:href="#me385048b72" x="489.508556" y="146.42175" style="fill: #262626; stroke: #262626; stroke-width: 0.6"/>
      </g>
     </g>
    </g>
    <g id="xtick_30">
     <g id="line2d_30">
      <g>
       <use xlink:href="#me385048b72" x="577.802839" y="146.42175" style="fill: #262626; stroke: #262626; stroke-width: 0.6"/>
      </g>
     </g>
    </g>
    <g id="xtick_31">
     <g id="line2d_31">
      <g>
       <use xlink:href="#me385048b72" x="598.900228" y="146.42175" style="fill: #262626; stroke: #262626; stroke-width: 0.6"/>
      </g>
     </g>
    </g>
    <g id="xtick_32">
     <g id="line2d_32">
      <g>
       <use xlink:href="#me385048b72" x="628.635328" y="146.42175" style="fill: #262626; stroke: #262626; stroke-width: 0.6"/>
      </g>
     </g>
    </g>
    <g id="xtick_33">
     <g id="line2d_33">
      <g>
       <use xlink:href="#me385048b72" x="639.940088" y="146.42175" style="fill: #262626; stroke: #262626; stroke-width: 0.6"/>
      </g>
     </g>
    </g>
    <g id="text_12">
     <text style="font-size: 10px; font-family: 'Arial', 'DejaVu Sans', 'Liberation Sans', 'Bitstream Vera Sans', sans-serif; text-anchor: middle; fill: #262626" x="328.05" y="173.84675" transform="rotate(-0 328.05 173.84675)">Income or consumption (month)</text>
    </g>
   </g>
   <g id="matplotlib.axis_2"/>
   <g id="FillBetweenPolyCollection_1">
    <defs>
     <path id="m6b44cce308" d="M 108.99983 -36.729687 
L 108.99983 -36.737328 
L 111.290359 -36.741198 
L 113.580888 -36.746772 
L 115.871417 -36.754675 
L 118.161946 -36.765706 
L 120.452474 -36.78086 
L 122.743003 -36.801356 
L 125.033532 -36.828648 
L 127.324061 -36.864432 
L 129.61459 -36.910633 
L 131.905119 -36.969382 
L 134.195647 -37.042967 
L 136.486176 -37.133766 
L 138.776705 -37.244168 
L 141.067234 -37.376466 
L 143.357763 -37.532756 
L 145.648292 -37.714826 
L 147.93882 -37.92405 
L 150.229349 -38.161313 
L 152.519878 -38.426945 
L 154.810407 -38.7207 
L 157.100936 -39.041772 
L 159.391464 -39.388842 
L 161.681993 -39.760165 
L 163.972522 -40.15369 
L 166.263051 -40.567191 
L 168.55358 -40.998411 
L 170.844109 -41.445201 
L 173.134637 -41.905645 
L 175.425166 -42.378156 
L 177.715695 -42.861548 
L 180.006224 -43.355065 
L 182.296753 -43.858388 
L 184.587282 -44.371602 
L 186.87781 -44.895146 
L 189.168339 -45.42974 
L 191.458868 -45.976315 
L 193.749397 -46.535923 
L 196.039926 -47.10967 
L 198.330455 -47.698648 
L 200.620983 -48.30388 
L 202.911512 -48.926281 
L 205.202041 -49.566629 
L 207.49257 -50.225549 
L 209.783099 -50.90351 
L 212.073628 -51.600818 
L 214.364156 -52.317629 
L 216.654685 -53.053955 
L 218.945214 -53.809675 
L 221.235743 -54.584544 
L 223.526272 -55.378204 
L 225.8168 -56.190192 
L 228.107329 -57.019946 
L 230.397858 -57.866815 
L 232.688387 -58.730056 
L 234.978916 -59.608845 
L 237.269445 -60.502277 
L 239.559973 -61.409364 
L 241.850502 -62.329047 
L 244.141031 -63.260187 
L 246.43156 -64.201575 
L 248.722089 -65.151929 
L 251.012618 -66.109898 
L 253.303146 -67.074067 
L 255.593675 -68.042956 
L 257.884204 -69.015023 
L 260.174733 -69.988672 
L 262.465262 -70.962252 
L 264.755791 -71.934065 
L 267.046319 -72.902367 
L 269.336848 -73.865375 
L 271.627377 -74.821271 
L 273.917906 -75.76821 
L 276.208435 -76.704321 
L 278.498964 -77.627717 
L 280.789492 -78.5365 
L 283.080021 -79.428766 
L 285.37055 -80.302613 
L 287.661079 -81.156149 
L 289.951608 -81.987494 
L 292.242136 -82.794792 
L 294.532665 -83.576213 
L 296.823194 -84.329966 
L 299.113723 -85.0543 
L 301.404252 -85.747513 
L 303.694781 -86.40796 
L 305.985309 -87.034056 
L 308.275838 -87.624286 
L 310.566367 -88.177209 
L 312.856896 -88.691466 
L 315.147425 -89.165781 
L 317.437954 -89.598971 
L 319.728482 -89.98995 
L 322.019011 -90.337731 
L 324.30954 -90.641432 
L 326.600069 -90.90028 
L 328.890598 -91.113615 
L 331.181127 -91.28089 
L 333.471655 -91.401675 
L 335.762184 -91.47566 
L 338.052713 -91.502654 
L 340.343242 -91.482588 
L 342.633771 -91.415513 
L 344.924299 -91.301602 
L 347.214828 -91.141148 
L 349.505357 -90.934564 
L 351.795886 -90.682378 
L 354.086415 -90.385235 
L 356.376944 -90.043892 
L 358.667472 -89.659215 
L 360.958001 -89.232174 
L 363.24853 -88.763842 
L 365.539059 -88.255389 
L 367.829588 -87.708076 
L 370.120117 -87.12325 
L 372.410645 -86.502342 
L 374.701174 -85.846856 
L 376.991703 -85.158366 
L 379.282232 -84.438509 
L 381.572761 -83.688979 
L 383.86329 -82.911519 
L 386.153818 -82.107918 
L 388.444347 -81.279998 
L 390.734876 -80.429612 
L 393.025405 -79.558637 
L 395.315934 -78.668963 
L 397.606463 -77.762493 
L 399.896991 -76.841129 
L 402.18752 -75.906771 
L 404.478049 -74.961309 
L 406.768578 -74.006615 
L 409.059107 -73.04454 
L 411.349635 -72.076904 
L 413.640164 -71.105498 
L 415.930693 -70.13207 
L 418.221222 -69.158326 
L 420.511751 -68.185924 
L 422.80228 -67.216469 
L 425.092808 -66.251511 
L 427.383337 -65.292537 
L 429.673866 -64.340974 
L 431.964395 -63.398181 
L 434.254924 -62.465448 
L 436.545453 -61.543996 
L 438.835981 -60.63497 
L 441.12651 -59.739438 
L 443.417039 -58.858392 
L 445.707568 -57.99274 
L 447.998097 -57.143306 
L 450.288626 -56.310824 
L 452.579154 -55.495934 
L 454.869683 -54.699173 
L 457.160212 -53.920968 
L 459.450741 -53.161628 
L 461.74127 -52.42133 
L 464.031798 -51.700109 
L 466.322327 -50.997846 
L 468.612856 -50.314258 
L 470.903385 -49.648891 
L 473.193914 -49.001121 
L 475.484443 -48.37016 
L 477.774971 -47.755071 
L 480.0655 -47.154802 
L 482.356029 -46.568231 
L 484.646558 -45.994222 
L 486.937087 -45.431698 
L 489.227616 -44.879722 
L 491.518144 -44.337586 
L 493.808673 -43.804892 
L 496.099202 -43.281629 
L 498.389731 -42.768227 
L 500.68026 -42.265591 
L 502.970789 -41.775091 
L 505.261317 -41.298533 
L 507.551846 -40.838075 
L 509.842375 -40.396122 
L 512.132904 -39.975191 
L 514.423433 -39.577756 
L 516.713962 -39.206098 
L 519.00449 -38.862154 
L 521.295019 -38.547394 
L 523.585548 -38.262728 
L 525.876077 -38.008451 
L 528.166606 -37.78423 
L 530.457134 -37.58913 
L 532.747663 -37.421682 
L 535.038192 -37.27997 
L 537.328721 -37.161745 
L 539.61925 -37.064541 
L 541.909779 -36.985794 
L 544.200307 -36.922946 
L 546.490836 -36.873542 
L 548.781365 -36.835294 
L 551.071894 -36.806135 
L 553.362423 -36.784248 
L 555.652952 -36.768072 
L 557.94348 -36.756305 
L 560.234009 -36.747877 
L 562.524538 -36.741937 
L 564.815067 -36.737815 
L 564.815067 -36.729687 
L 564.815067 -36.729687 
L 562.524538 -36.729687 
L 560.234009 -36.729687 
L 557.94348 -36.729687 
L 555.652952 -36.729687 
L 553.362423 -36.729687 
L 551.071894 -36.729687 
L 548.781365 -36.729687 
L 546.490836 -36.729687 
L 544.200307 -36.729687 
L 541.909779 -36.729687 
L 539.61925 -36.729687 
L 537.328721 -36.729687 
L 535.038192 -36.729687 
L 532.747663 -36.729687 
L 530.457134 -36.729687 
L 528.166606 -36.729687 
L 525.876077 -36.729687 
L 523.585548 -36.729687 
L 521.295019 -36.729687 
L 519.00449 -36.729687 
L 516.713962 -36.729687 
L 514.423433 -36.729687 
L 512.132904 -36.729687 
L 509.842375 -36.729687 
L 507.551846 -36.729687 
L 505.261317 -36.729687 
L 502.970789 -36.729687 
L 500.68026 -36.729687 
L 498.389731 -36.729687 
L 496.099202 -36.729687 
L 493.808673 -36.729687 
L 491.518144 -36.729687 
L 489.227616 -36.729687 
L 486.937087 -36.729687 
L 484.646558 -36.729687 
L 482.356029 -36.729687 
L 480.0655 -36.729687 
L 477.774971 -36.729687 
L 475.484443 -36.729687 
L 473.193914 -36.729687 
L 470.903385 -36.729687 
L 468.612856 -36.729687 
L 466.322327 -36.729687 
L 464.031798 -36.729687 
L 461.74127 -36.729687 
L 459.450741 -36.729687 
L 457.160212 -36.729687 
L 454.869683 -36.729687 
L 452.579154 -36.729687 
L 450.288626 -36.729687 
L 447.998097 -36.729687 
L 445.707568 -36.729687 
L 443.417039 -36.729687 
L 441.12651 -36.729687 
L 438.835981 -36.729687 
L 436.545453 -36.729687 
L 434.254924 -36.729687 
L 431.964395 -36.729687 
L 429.673866 -36.729687 
L 427.383337 -36.729687 
L 425.092808 -36.729687 
L 422.80228 -36.729687 
L 420.511751 -36.729687 
L 418.221222 -36.729687 
L 415.930693 -36.729687 
L 413.640164 -36.729687 
L 411.349635 -36.729687 
L 409.059107 -36.729687 
L 406.768578 -36.729687 
L 404.478049 -36.729687 
L 402.18752 -36.729687 
L 399.896991 -36.729687 
L 397.606463 -36.729687 
L 395.315934 -36.729687 
L 393.025405 -36.729687 
L 390.734876 -36.729687 
L 388.444347 -36.729687 
L 386.153818 -36.729687 
L 383.86329 -36.729687 
L 381.572761 -36.729687 
L 379.282232 -36.729687 
L 376.991703 -36.729687 
L 374.701174 -36.729687 
L 372.410645 -36.729687 
L 370.120117 -36.729687 
L 367.829588 -36.729687 
L 365.539059 -36.729687 
L 363.24853 -36.729687 
L 360.958001 -36.729687 
L 358.667472 -36.729687 
L 356.376944 -36.729687 
L 354.086415 -36.729687 
L 351.795886 -36.729687 
L 349.505357 -36.729687 
L 347.214828 -36.729687 
L 344.924299 -36.729687 
L 342.633771 -36.729687 
L 340.343242 -36.729687 
L 338.052713 -36.729687 
L 335.762184 -36.729687 
L 333.471655 -36.729687 
L 331.181127 -36.729687 
L 328.890598 -36.729687 
L 326.600069 -36.729687 
L 324.30954 -36.729687 
L 322.019011 -36.729687 
L 319.728482 -36.729687 
L 317.437954 -36.729687 
L 315.147425 -36.729687 
L 312.856896 -36.729687 
L 310.566367 -36.729687 
L 308.275838 -36.729687 
L 305.985309 -36.729687 
L 303.694781 -36.729687 
L 301.404252 -36.729687 
L 299.113723 -36.729687 
L 296.823194 -36.729687 
L 294.532665 -36.729687 
L 292.242136 -36.729687 
L 289.951608 -36.729687 
L 287.661079 -36.729687 
L 285.37055 -36.729687 
L 283.080021 -36.729687 
L 280.789492 -36.729687 
L 278.498964 -36.729687 
L 276.208435 -36.729687 
L 273.917906 -36.729687 
L 271.627377 -36.729687 
L 269.336848 -36.729687 
L 267.046319 -36.729687 
L 264.755791 -36.729687 
L 262.465262 -36.729687 
L 260.174733 -36.729687 
L 257.884204 -36.729687 
L 255.593675 -36.729687 
L 253.303146 -36.729687 
L 251.012618 -36.729687 
L 248.722089 -36.729687 
L 246.43156 -36.729687 
L 244.141031 -36.729687 
L 241.850502 -36.729687 
L 239.559973 -36.729687 
L 237.269445 -36.729687 
L 234.978916 -36.729687 
L 232.688387 -36.729687 
L 230.397858 -36.729687 
L 228.107329 -36.729687 
L 225.8168 -36.729687 
L 223.526272 -36.729687 
L 221.235743 -36.729687 
L 218.945214 -36.729687 
L 216.654685 -36.729687 
L 214.364156 -36.729687 
L 212.073628 -36.729687 
L 209.783099 -36.729687 
L 207.49257 -36.729687 
L 205.202041 -36.729687 
L 202.911512 -36.729687 
L 200.620983 -36.729687 
L 198.330455 -36.729687 
L 196.039926 -36.729687 
L 193.749397 -36.729687 
L 191.458868 -36.729687 
L 189.168339 -36.729687 
L 186.87781 -36.729687 
L 184.587282 -36.729687 
L 182.296753 -36.729687 
L 180.006224 -36.729687 
L 177.715695 -36.729687 
L 175.425166 -36.729687 
L 173.134637 -36.729687 
L 170.844109 -36.729687 
L 168.55358 -36.729687 
L 166.263051 -36.729687 
L 163.972522 -36.729687 
L 161.681993 -36.729687 
L 159.391464 -36.729687 
L 157.100936 -36.729687 
L 154.810407 -36.729687 
L 152.519878 -36.729687 
L 150.229349 -36.729687 
L 147.93882 -36.729687 
L 145.648292 -36.729687 
L 143.357763 -36.729687 
L 141.067234 -36.729687 
L 138.776705 -36.729687 
L 136.486176 -36.729687 
L 134.195647 -36.729687 
L 131.905119 -36.729687 
L 129.61459 -36.729687 
L 127.324061 -36.729687 
L 125.033532 -36.729687 
L 122.743003 -36.729687 
L 120.452474 -36.729687 
L 118.161946 -36.729687 
L 115.871417 -36.729687 
L 113.580888 -36.729687 
L 111.290359 -36.729687 
L 108.99983 -36.729687 
z
" style="stroke: #4c72b0; stroke-opacity: 0.2"/>
    </defs>
    <g>
     <use xlink:href="#m6b44cce308" x="0" y="183.151437" style="fill: #4c72b0; fill-opacity: 0.2; stroke: #4c72b0; stroke-opacity: 0.2"/>
    </g>
   </g>
   <g id="FillBetweenPolyCollection_2">
    <defs>
     <path id="m5d86650ebe" d="M 108.99983 -36.737328 
L 108.99983 -36.729687 
L 111.290359 -36.729687 
L 113.580888 -36.729687 
L 115.871417 -36.729687 
L 118.161946 -36.729687 
L 120.452474 -36.729687 
L 122.743003 -36.729687 
L 125.033532 -36.729687 
L 127.324061 -36.729687 
L 129.61459 -36.729687 
L 131.905119 -36.729687 
L 134.195647 -36.729687 
L 136.486176 -36.729687 
L 138.776705 -36.729687 
L 141.067234 -36.729687 
L 143.357763 -36.729687 
L 145.648292 -36.729687 
L 147.93882 -36.729687 
L 150.229349 -36.729687 
L 152.519878 -36.729687 
L 154.810407 -36.729687 
L 157.100936 -36.729687 
L 159.391464 -36.729687 
L 161.681993 -36.729687 
L 163.972522 -36.729687 
L 166.263051 -36.729687 
L 168.55358 -36.729687 
L 170.844109 -36.729687 
L 173.134637 -36.729687 
L 175.425166 -36.729687 
L 177.715695 -36.729687 
L 180.006224 -36.729687 
L 182.296753 -36.729687 
L 184.587282 -36.729687 
L 186.87781 -36.729687 
L 189.168339 -36.729687 
L 191.458868 -36.729687 
L 193.749397 -36.729687 
L 196.039926 -36.729687 
L 198.330455 -36.729687 
L 200.620983 -36.729687 
L 202.911512 -36.729687 
L 205.202041 -36.729687 
L 207.49257 -36.729687 
L 209.783099 -36.729687 
L 212.073628 -36.729687 
L 214.364156 -36.729687 
L 216.654685 -36.729687 
L 218.945214 -36.729687 
L 221.235743 -36.729687 
L 223.526272 -36.729687 
L 225.8168 -36.729687 
L 228.107329 -36.729687 
L 230.397858 -36.729687 
L 232.688387 -36.729687 
L 234.978916 -36.729687 
L 237.269445 -36.729687 
L 239.559973 -36.729687 
L 241.850502 -36.729687 
L 244.141031 -36.729687 
L 246.43156 -36.729687 
L 248.722089 -36.729687 
L 251.012618 -36.729687 
L 253.303146 -36.729687 
L 255.593675 -36.729687 
L 257.884204 -36.729687 
L 260.174733 -36.729687 
L 262.465262 -36.729687 
L 264.755791 -36.729687 
L 267.046319 -36.729687 
L 269.336848 -36.729687 
L 271.627377 -36.729687 
L 273.917906 -36.729687 
L 276.208435 -36.729687 
L 278.498964 -36.729687 
L 280.789492 -36.729687 
L 283.080021 -36.729687 
L 285.37055 -36.729687 
L 287.661079 -36.729687 
L 289.951608 -36.729687 
L 292.242136 -36.729687 
L 294.532665 -36.729687 
L 296.823194 -36.729687 
L 299.113723 -36.729687 
L 301.404252 -36.729687 
L 303.694781 -36.729687 
L 305.985309 -36.729687 
L 308.275838 -36.729687 
L 310.566367 -36.729687 
L 312.856896 -36.729687 
L 315.147425 -36.729687 
L 317.437954 -36.729687 
L 319.728482 -36.729687 
L 320.646683 -36.729687 
L 320.646683 -90.128061 
L 320.646683 -90.128061 
L 319.728482 -89.98995 
L 317.437954 -89.598971 
L 315.147425 -89.165781 
L 312.856896 -88.691466 
L 310.566367 -88.177209 
L 308.275838 -87.624286 
L 305.985309 -87.034056 
L 303.694781 -86.40796 
L 301.404252 -85.747513 
L 299.113723 -85.0543 
L 296.823194 -84.329966 
L 294.532665 -83.576213 
L 292.242136 -82.794792 
L 289.951608 -81.987494 
L 287.661079 -81.156149 
L 285.37055 -80.302613 
L 283.080021 -79.428766 
L 280.789492 -78.5365 
L 278.498964 -77.627717 
L 276.208435 -76.704321 
L 273.917906 -75.76821 
L 271.627377 -74.821271 
L 269.336848 -73.865375 
L 267.046319 -72.902367 
L 264.755791 -71.934065 
L 262.465262 -70.962252 
L 260.174733 -69.988672 
L 257.884204 -69.015023 
L 255.593675 -68.042956 
L 253.303146 -67.074067 
L 251.012618 -66.109898 
L 248.722089 -65.151929 
L 246.43156 -64.201575 
L 244.141031 -63.260187 
L 241.850502 -62.329047 
L 239.559973 -61.409364 
L 237.269445 -60.502277 
L 234.978916 -59.608845 
L 232.688387 -58.730056 
L 230.397858 -57.866815 
L 228.107329 -57.019946 
L 225.8168 -56.190192 
L 223.526272 -55.378204 
L 221.235743 -54.584544 
L 218.945214 -53.809675 
L 216.654685 -53.053955 
L 214.364156 -52.317629 
L 212.073628 -51.600818 
L 209.783099 -50.90351 
L 207.49257 -50.225549 
L 205.202041 -49.566629 
L 202.911512 -48.926281 
L 200.620983 -48.30388 
L 198.330455 -47.698648 
L 196.039926 -47.10967 
L 193.749397 -46.535923 
L 191.458868 -45.976315 
L 189.168339 -45.42974 
L 186.87781 -44.895146 
L 184.587282 -44.371602 
L 182.296753 -43.858388 
L 180.006224 -43.355065 
L 177.715695 -42.861548 
L 175.425166 -42.378156 
L 173.134637 -41.905645 
L 170.844109 -41.445201 
L 168.55358 -40.998411 
L 166.263051 -40.567191 
L 163.972522 -40.15369 
L 161.681993 -39.760165 
L 159.391464 -39.388842 
L 157.100936 -39.041772 
L 154.810407 -38.7207 
L 152.519878 -38.426945 
L 150.229349 -38.161313 
L 147.93882 -37.92405 
L 145.648292 -37.714826 
L 143.357763 -37.532756 
L 141.067234 -37.376466 
L 138.776705 -37.244168 
L 136.486176 -37.133766 
L 134.195647 -37.042967 
L 131.905119 -36.969382 
L 129.61459 -36.910633 
L 127.324061 -36.864432 
L 125.033532 -36.828648 
L 122.743003 -36.801356 
L 120.452474 -36.78086 
L 118.161946 -36.765706 
L 115.871417 -36.754675 
L 113.580888 -36.746772 
L 111.290359 -36.741198 
L 108.99983 -36.737328 
z
"/>
    </defs>
    <g>
     <use xlink:href="#m5d86650ebe" x="0" y="183.151437" style="fill: #4c72b0; fill-opacity: 0.3"/>
    </g>
   </g>
   <g id="FillBetweenPolyCollection_3">
    <defs>
     <path id="m85ecc60faa" d="M 108.99983 -36.737328 
L 108.99983 -36.729687 
L 111.290359 -36.729687 
L 113.580888 -36.729687 
L 115.871417 -36.729687 
L 118.161946 -36.729687 
L 120.452474 -36.729687 
L 122.743003 -36.729687 
L 125.033532 -36.729687 
L 127.324061 -36.729687 
L 129.61459 -36.729687 
L 131.905119 -36.729687 
L 134.195647 -36.729687 
L 136.486176 -36.729687 
L 138.776705 -36.729687 
L 141.067234 -36.729687 
L 143.357763 -36.729687 
L 145.648292 -36.729687 
L 147.93882 -36.729687 
L 150.229349 -36.729687 
L 152.519878 -36.729687 
L 154.810407 -36.729687 
L 157.100936 -36.729687 
L 159.391464 -36.729687 
L 161.681993 -36.729687 
L 163.972522 -36.729687 
L 166.263051 -36.729687 
L 168.55358 -36.729687 
L 170.844109 -36.729687 
L 173.134637 -36.729687 
L 175.425166 -36.729687 
L 177.715695 -36.729687 
L 180.006224 -36.729687 
L 182.296753 -36.729687 
L 184.587282 -36.729687 
L 186.87781 -36.729687 
L 189.168339 -36.729687 
L 191.458868 -36.729687 
L 193.749397 -36.729687 
L 196.039926 -36.729687 
L 198.330455 -36.729687 
L 200.620983 -36.729687 
L 202.911512 -36.729687 
L 205.202041 -36.729687 
L 207.49257 -36.729687 
L 209.783099 -36.729687 
L 212.073628 -36.729687 
L 214.364156 -36.729687 
L 216.654685 -36.729687 
L 218.945214 -36.729687 
L 221.235743 -36.729687 
L 223.526272 -36.729687 
L 225.8168 -36.729687 
L 228.107329 -36.729687 
L 230.397858 -36.729687 
L 232.688387 -36.729687 
L 234.978916 -36.729687 
L 237.269445 -36.729687 
L 239.559973 -36.729687 
L 241.850502 -36.729687 
L 244.141031 -36.729687 
L 246.43156 -36.729687 
L 248.722089 -36.729687 
L 251.012618 -36.729687 
L 253.303146 -36.729687 
L 255.593675 -36.729687 
L 257.884204 -36.729687 
L 260.174733 -36.729687 
L 262.465262 -36.729687 
L 264.755791 -36.729687 
L 267.046319 -36.729687 
L 269.336848 -36.729687 
L 271.627377 -36.729687 
L 273.917906 -36.729687 
L 276.208435 -36.729687 
L 278.498964 -36.729687 
L 280.789492 -36.729687 
L 283.080021 -36.729687 
L 285.37055 -36.729687 
L 287.661079 -36.729687 
L 289.951608 -36.729687 
L 292.242136 -36.729687 
L 294.532665 -36.729687 
L 296.823194 -36.729687 
L 299.113723 -36.729687 
L 301.404252 -36.729687 
L 303.694781 -36.729687 
L 305.985309 -36.729687 
L 308.275838 -36.729687 
L 310.566367 -36.729687 
L 312.856896 -36.729687 
L 315.147425 -36.729687 
L 317.437954 -36.729687 
L 319.728482 -36.729687 
L 322.019011 -36.729687 
L 324.30954 -36.729687 
L 326.600069 -36.729687 
L 328.890598 -36.729687 
L 331.181127 -36.729687 
L 333.471655 -36.729687 
L 335.762184 -36.729687 
L 338.052713 -36.729687 
L 340.343242 -36.729687 
L 342.633771 -36.729687 
L 344.924299 -36.729687 
L 347.214828 -36.729687 
L 349.505357 -36.729687 
L 351.795886 -36.729687 
L 354.086415 -36.729687 
L 356.376944 -36.729687 
L 358.667472 -36.729687 
L 360.958001 -36.729687 
L 363.24853 -36.729687 
L 365.539059 -36.729687 
L 367.829588 -36.729687 
L 370.120117 -36.729687 
L 372.410645 -36.729687 
L 374.701174 -36.729687 
L 376.991703 -36.729687 
L 379.282232 -36.729687 
L 381.572761 -36.729687 
L 383.86329 -36.729687 
L 386.153818 -36.729687 
L 388.444347 -36.729687 
L 390.734876 -36.729687 
L 393.025405 -36.729687 
L 395.315934 -36.729687 
L 397.606463 -36.729687 
L 399.896991 -36.729687 
L 402.18752 -36.729687 
L 404.478049 -36.729687 
L 406.768578 -36.729687 
L 409.059107 -36.729687 
L 411.349635 -36.729687 
L 413.640164 -36.729687 
L 415.930693 -36.729687 
L 418.221222 -36.729687 
L 420.511751 -36.729687 
L 422.80228 -36.729687 
L 425.092808 -36.729687 
L 427.383337 -36.729687 
L 429.673866 -36.729687 
L 431.964395 -36.729687 
L 434.254924 -36.729687 
L 436.545453 -36.729687 
L 438.835981 -36.729687 
L 441.12651 -36.729687 
L 443.417039 -36.729687 
L 445.707568 -36.729687 
L 447.998097 -36.729687 
L 450.288626 -36.729687 
L 452.579154 -36.729687 
L 454.869683 -36.729687 
L 457.160212 -36.729687 
L 459.450741 -36.729687 
L 461.74127 -36.729687 
L 464.031798 -36.729687 
L 466.322327 -36.729687 
L 468.612856 -36.729687 
L 470.903385 -36.729687 
L 473.193914 -36.729687 
L 475.484443 -36.729687 
L 477.774971 -36.729687 
L 480.0655 -36.729687 
L 482.356029 -36.729687 
L 484.646558 -36.729687 
L 486.937087 -36.729687 
L 489.227616 -36.729687 
L 489.508556 -36.729687 
L 489.508556 -44.814135 
L 489.508556 -44.814135 
L 489.227616 -44.879722 
L 486.937087 -45.431698 
L 484.646558 -45.994222 
L 482.356029 -46.568231 
L 480.0655 -47.154802 
L 477.774971 -47.755071 
L 475.484443 -48.37016 
L 473.193914 -49.001121 
L 470.903385 -49.648891 
L 468.612856 -50.314258 
L 466.322327 -50.997846 
L 464.031798 -51.700109 
L 461.74127 -52.42133 
L 459.450741 -53.161628 
L 457.160212 -53.920968 
L 454.869683 -54.699173 
L 452.579154 -55.495934 
L 450.288626 -56.310824 
L 447.998097 -57.143306 
L 445.707568 -57.99274 
L 443.417039 -58.858392 
L 441.12651 -59.739438 
L 438.835981 -60.63497 
L 436.545453 -61.543996 
L 434.254924 -62.465448 
L 431.964395 -63.398181 
L 429.673866 -64.340974 
L 427.383337 -65.292537 
L 425.092808 -66.251511 
L 422.80228 -67.216469 
L 420.511751 -68.185924 
L 418.221222 -69.158326 
L 415.930693 -70.13207 
L 413.640164 -71.105498 
L 411.349635 -72.076904 
L 409.059107 -73.04454 
L 406.768578 -74.006615 
L 404.478049 -74.961309 
L 402.18752 -75.906771 
L 399.896991 -76.841129 
L 397.606463 -77.762493 
L 395.315934 -78.668963 
L 393.025405 -79.558637 
L 390.734876 -80.429612 
L 388.444347 -81.279998 
L 386.153818 -82.107918 
L 383.86329 -82.911519 
L 381.572761 -83.688979 
L 379.282232 -84.438509 
L 376.991703 -85.158366 
L 374.701174 -85.846856 
L 372.410645 -86.502342 
L 370.120117 -87.12325 
L 367.829588 -87.708076 
L 365.539059 -88.255389 
L 363.24853 -88.763842 
L 360.958001 -89.232174 
L 358.667472 -89.659215 
L 356.376944 -90.043892 
L 354.086415 -90.385235 
L 351.795886 -90.682378 
L 349.505357 -90.934564 
L 347.214828 -91.141148 
L 344.924299 -91.301602 
L 342.633771 -91.415513 
L 340.343242 -91.482588 
L 338.052713 -91.502654 
L 335.762184 -91.47566 
L 333.471655 -91.401675 
L 331.181127 -91.28089 
L 328.890598 -91.113615 
L 326.600069 -90.90028 
L 324.30954 -90.641432 
L 322.019011 -90.337731 
L 319.728482 -89.98995 
L 317.437954 -89.598971 
L 315.147425 -89.165781 
L 312.856896 -88.691466 
L 310.566367 -88.177209 
L 308.275838 -87.624286 
L 305.985309 -87.034056 
L 303.694781 -86.40796 
L 301.404252 -85.747513 
L 299.113723 -85.0543 
L 296.823194 -84.329966 
L 294.532665 -83.576213 
L 292.242136 -82.794792 
L 289.951608 -81.987494 
L 287.661079 -81.156149 
L 285.37055 -80.302613 
L 283.080021 -79.428766 
L 280.789492 -78.5365 
L 278.498964 -77.627717 
L 276.208435 -76.704321 
L 273.917906 -75.76821 
L 271.627377 -74.821271 
L 269.336848 -73.865375 
L 267.046319 -72.902367 
L 264.755791 -71.934065 
L 262.465262 -70.962252 
L 260.174733 -69.988672 
L 257.884204 -69.015023 
L 255.593675 -68.042956 
L 253.303146 -67.074067 
L 251.012618 -66.109898 
L 248.722089 -65.151929 
L 246.43156 -64.201575 
L 244.141031 -63.260187 
L 241.850502 -62.329047 
L 239.559973 -61.409364 
L 237.269445 -60.502277 
L 234.978916 -59.608845 
L 232.688387 -58.730056 
L 230.397858 -57.866815 
L 228.107329 -57.019946 
L 225.8168 -56.190192 
L 223.526272 -55.378204 
L 221.235743 -54.584544 
L 218.945214 -53.809675 
L 216.654685 -53.053955 
L 214.364156 -52.317629 
L 212.073628 -51.600818 
L 209.783099 -50.90351 
L 207.49257 -50.225549 
L 205.202041 -49.566629 
L 202.911512 -48.926281 
L 200.620983 -48.30388 
L 198.330455 -47.698648 
L 196.039926 -47.10967 
L 193.749397 -46.535923 
L 191.458868 -45.976315 
L 189.168339 -45.42974 
L 186.87781 -44.895146 
L 184.587282 -44.371602 
L 182.296753 -43.858388 
L 180.006224 -43.355065 
L 177.715695 -42.861548 
L 175.425166 -42.378156 
L 173.134637 -41.905645 
L 170.844109 -41.445201 
L 168.55358 -40.998411 
L 166.263051 -40.567191 
L 163.972522 -40.15369 
L 161.681993 -39.760165 
L 159.391464 -39.388842 
L 157.100936 -39.041772 
L 154.810407 -38.7207 
L 152.519878 -38.426945 
L 150.229349 -38.161313 
L 147.93882 -37.92405 
L 145.648292 -37.714826 
L 143.357763 -37.532756 
L 141.067234 -37.376466 
L 138.776705 -37.244168 
L 136.486176 -37.133766 
L 134.195647 -37.042967 
L 131.905119 -36.969382 
L 129.61459 -36.910633 
L 127.324061 -36.864432 
L 125.033532 -36.828648 
L 122.743003 -36.801356 
L 120.452474 -36.78086 
L 118.161946 -36.765706 
L 115.871417 -36.754675 
L 113.580888 -36.746772 
L 111.290359 -36.741198 
L 108.99983 -36.737328 
z
"/>
    </defs>
    <g>
     <use xlink:href="#m85ecc60faa" x="0" y="183.151437" style="fill: #4c72b0; fill-opacity: 0.3"/>
    </g>
   </g>
   <g id="line2d_34">
    <path d="M 108.99983 146.414109 
L 127.324061 146.287006 
L 136.486176 146.017671 
L 143.357763 145.618681 
L 150.229349 144.990125 
L 157.100936 144.109665 
L 163.972522 142.997747 
L 173.134637 141.245793 
L 184.587282 138.779835 
L 193.749397 136.615515 
L 202.911512 134.225157 
L 212.073628 131.55062 
L 218.945214 129.341763 
L 228.107329 126.131491 
L 237.269445 122.649161 
L 248.722089 117.999509 
L 283.080021 103.722672 
L 289.951608 101.163943 
L 296.823194 98.821471 
L 303.694781 96.743478 
L 310.566367 94.974228 
L 315.147425 93.985657 
L 319.728482 93.161488 
L 324.30954 92.510006 
L 328.890598 92.037822 
L 333.471655 91.749762 
L 338.052713 91.648783 
L 342.633771 91.735924 
L 347.214828 92.010289 
L 351.795886 92.469059 
L 356.376944 93.107545 
L 360.958001 93.919264 
L 365.539059 94.896048 
L 372.410645 96.649095 
L 379.282232 98.712929 
L 386.153818 101.04352 
L 393.025405 103.592801 
L 402.18752 107.244666 
L 415.930693 113.019368 
L 431.964395 119.753257 
L 441.12651 123.412 
L 450.288626 126.840613 
L 459.450741 129.989809 
L 468.612856 132.83718 
L 477.774971 135.396367 
L 486.937087 137.71974 
L 498.389731 140.38321 
L 507.551846 142.313362 
L 514.423433 143.573682 
L 521.295019 144.604044 
L 528.166606 145.367208 
L 535.038192 145.871467 
L 541.909779 146.165644 
L 551.071894 146.345303 
L 564.815067 146.413623 
L 564.815067 146.413623 
" style="fill: none; stroke: #4c72b0; stroke-width: 1.5; stroke-linecap: round"/>
   </g>
   <g id="line2d_35">
    <path d="M 320.646683 146.42175 
L 320.646683 24.45375 
" style="fill: none; stroke-dasharray: 0.8,1.32; stroke-dashoffset: 0; stroke: #d3d3d3; stroke-width: 0.8"/>
   </g>
   <g id="line2d_36">
    <path d="M 489.508556 146.42175 
L 489.508556 24.45375 
" style="fill: none; stroke-dasharray: 0.8,1.32; stroke-dashoffset: 0; stroke: #d3d3d3; stroke-width: 0.8"/>
   </g>
   <g id="line2d_37">
    <path d="M 7.2 146.42175 
L 648.9 146.42175 
" style="fill: none; stroke: #808080; stroke-width: 0.5; stroke-linecap: round"/>
   </g>
   <g id="AnnotationBbox_1">
    <g id="text_13">
     <text style="font-weight: 700; font-size: 8px; font-family: 'Arial', 'DejaVu Sans', 'Liberation Sans', 'Bitstream Vera Sans', sans-serif; text-anchor: end; fill: #808080" x="320.646683" y="12.92625" transform="rotate(-0 320.646683 12.92625)">International Poverty Line</text>
    </g>
    <g id="text_14">
     <text style="font-size: 8px; font-family: 'Arial', 'DejaVu Sans', 'Liberation Sans', 'Bitstream Vera Sans', sans-serif; text-anchor: end; fill: #808080" x="320.646683" y="22.86375" transform="rotate(-0 320.646683 22.86375)">$90 per month</text>
    </g>
   </g>
   <g id="AnnotationBbox_2">
    <g id="text_15">
     <text style="font-weight: 700; font-size: 8px; font-family: 'Arial', 'DejaVu Sans', 'Liberation Sans', 'Bitstream Vera Sans', sans-serif; text-anchor: start; fill: #808080" x="489.508556" y="12.92625" transform="rotate(-0 489.508556 12.92625)">High-income poverty line</text>
    </g>
    <g id="text_16">
     <text style="font-size: 8px; font-family: 'Arial', 'DejaVu Sans', 'Liberation Sans', 'Bitstream Vera Sans', sans-serif; text-anchor: start; fill: #808080" x="489.508556" y="22.86375" transform="rotate(-0 489.508556 22.86375)">$900 per month</text>
    </g>
   </g>
   <g id="text_17">
    <text style="font-size: 10px; font-family: 'Arial', 'DejaVu Sans', 'Liberation Sans', 'Bitstream Vera Sans', sans-serif; text-anchor: middle" x="338.126021" y="144.317062" transform="rotate(-0 338.126021 144.317062)">Sweden (1920)</text>
   </g>
  </g>
 </g>
</svg>
