<?xml version="1.0" encoding="utf-8" standalone="no"?>
<!DOCTYPE svg PUBLIC "-//W3C//DTD SVG 1.1//EN"
  "http://www.w3.org/Graphics/SVG/1.1/DTD/svg11.dtd">
<svg xmlns:xlink="http://www.w3.org/1999/xlink" width="670.002344pt" height="165.897687pt" viewBox="0 0 670.002344 165.897687" xmlns="http://www.w3.org/2000/svg" version="1.1">
 <metadata>
  <rdf:RDF xmlns:dc="http://purl.org/dc/elements/1.1/" xmlns:cc="http://creativecommons.org/ns#" xmlns:rdf="http://www.w3.org/1999/02/22-rdf-syntax-ns#">
   <cc:Work>
    <dc:type rdf:resource="http://purl.org/dc/dcmitype/StillImage"/>
    <dc:date>2026-05-22T11:58:14.658788</dc:date>
    <dc:format>image/svg+xml</dc:format>
    <dc:creator>
     <cc:Agent>
      <dc:title>Matplotlib v3.10.9, https://matplotlib.org/</dc:title>
     </cc:Agent>
    </dc:creator>
   </cc:Work>
  </rdf:RDF>
 </metadata>
 <defs>
  <style type="text/css">*{stroke-linejoin: round; stroke-linecap: butt}</style>
 </defs>
 <g id="figure_1">
  <g id="patch_1">
   <path d="M 0 165.897687 
L 670.002344 165.897687 
L 670.002344 0 
L 0 0 
z
" style="fill: #ffffff"/>
  </g>
  <g id="axes_1">
   <g id="patch_2">
    <path d="M 7.2 129.168 
L 648.9 129.168 
L 648.9 7.2 
L 7.2 7.2 
z
" style="fill: #ffffff"/>
   </g>
   <g id="matplotlib.axis_1">
    <g id="xtick_1">
     <g id="line2d_1">
      <defs>
       <path id="m2b60335e65" d="M 0 0 
L 0 3.5 
" style="stroke: #262626; stroke-width: 0.8"/>
      </defs>
      <g>
       <use xlink:href="#m2b60335e65" x="173.404687" y="129.168" style="fill: #262626; stroke: #262626; stroke-width: 0.8"/>
      </g>
     </g>
     <g id="text_1">
      <text style="font-size: 10px; font-family: 'Arial', 'DejaVu Sans', 'Liberation Sans', 'Bitstream Vera Sans', sans-serif; text-anchor: middle; fill: #262626" x="173.404687" y="143.325812" transform="rotate(-0 173.404687 143.325812)">$1</text>
     </g>
    </g>
    <g id="xtick_2">
     <g id="line2d_2">
      <g>
       <use xlink:href="#m2b60335e65" x="221.117471" y="129.168" style="fill: #262626; stroke: #262626; stroke-width: 0.8"/>
      </g>
     </g>
     <g id="text_2">
      <text style="font-size: 10px; font-family: 'Arial', 'DejaVu Sans', 'Liberation Sans', 'Bitstream Vera Sans', sans-serif; text-anchor: middle; fill: #262626" x="221.117471" y="143.325812" transform="rotate(-0 221.117471 143.325812)">$2</text>
     </g>
    </g>
    <g id="xtick_3">
     <g id="line2d_3">
      <g>
       <use xlink:href="#m2b60335e65" x="284.190341" y="129.168" style="fill: #262626; stroke: #262626; stroke-width: 0.8"/>
      </g>
     </g>
     <g id="text_3">
      <text style="font-size: 10px; font-family: 'Arial', 'DejaVu Sans', 'Liberation Sans', 'Bitstream Vera Sans', sans-serif; text-anchor: middle; fill: #262626" x="284.190341" y="143.325812" transform="rotate(-0 284.190341 143.325812)">$5</text>
     </g>
    </g>
    <g id="xtick_4">
     <g id="line2d_4">
      <g>
       <use xlink:href="#m2b60335e65" x="331.903125" y="129.168" style="fill: #262626; stroke: #262626; stroke-width: 0.8"/>
      </g>
     </g>
     <g id="text_4">
      <text style="font-size: 10px; font-family: 'Arial', 'DejaVu Sans', 'Liberation Sans', 'Bitstream Vera Sans', sans-serif; text-anchor: middle; fill: #262626" x="331.903125" y="143.325812" transform="rotate(-0 331.903125 143.325812)">$10</text>
     </g>
    </g>
    <g id="xtick_5">
     <g id="line2d_5">
      <g>
       <use xlink:href="#m2b60335e65" x="379.615909" y="129.168" style="fill: #262626; stroke: #262626; stroke-width: 0.8"/>
      </g>
     </g>
     <g id="text_5">
      <text style="font-size: 10px; font-family: 'Arial', 'DejaVu Sans', 'Liberation Sans', 'Bitstream Vera Sans', sans-serif; text-anchor: middle; fill: #262626" x="379.615909" y="143.325812" transform="rotate(-0 379.615909 143.325812)">$20</text>
     </g>
    </g>
    <g id="xtick_6">
     <g id="line2d_6">
      <g>
       <use xlink:href="#m2b60335e65" x="442.688778" y="129.168" style="fill: #262626; stroke: #262626; stroke-width: 0.8"/>
      </g>
     </g>
     <g id="text_6">
      <text style="font-size: 10px; font-family: 'Arial', 'DejaVu Sans', 'Liberation Sans', 'Bitstream Vera Sans', sans-serif; text-anchor: middle; fill: #262626" x="442.688778" y="143.325812" transform="rotate(-0 442.688778 143.325812)">$50</text>
     </g>
    </g>
    <g id="xtick_7">
     <g id="line2d_7">
      <g>
       <use xlink:href="#m2b60335e65" x="490.401562" y="129.168" style="fill: #262626; stroke: #262626; stroke-width: 0.8"/>
      </g>
     </g>
     <g id="text_7">
      <text style="font-size: 10px; font-family: 'Arial', 'DejaVu Sans', 'Liberation Sans', 'Bitstream Vera Sans', sans-serif; text-anchor: middle; fill: #262626" x="490.401562" y="143.325812" transform="rotate(-0 490.401562 143.325812)">$100</text>
     </g>
    </g>
    <g id="xtick_8">
     <g id="line2d_8">
      <g>
       <use xlink:href="#m2b60335e65" x="538.114346" y="129.168" style="fill: #262626; stroke: #262626; stroke-width: 0.8"/>
      </g>
     </g>
     <g id="text_8">
      <text style="font-size: 10px; font-family: 'Arial', 'DejaVu Sans', 'Liberation Sans', 'Bitstream Vera Sans', sans-serif; text-anchor: middle; fill: #262626" x="538.114346" y="143.325812" transform="rotate(-0 538.114346 143.325812)">$200</text>
     </g>
    </g>
    <g id="xtick_9">
     <g id="line2d_9">
      <g>
       <use xlink:href="#m2b60335e65" x="601.187216" y="129.168" style="fill: #262626; stroke: #262626; stroke-width: 0.8"/>
      </g>
     </g>
     <g id="text_9">
      <text style="font-size: 10px; font-family: 'Arial', 'DejaVu Sans', 'Liberation Sans', 'Bitstream Vera Sans', sans-serif; text-anchor: middle; fill: #262626" x="601.187216" y="143.325812" transform="rotate(-0 601.187216 143.325812)">$500</text>
     </g>
    </g>
    <g id="xtick_10">
     <g id="line2d_10">
      <g>
       <use xlink:href="#m2b60335e65" x="648.9" y="129.168" style="fill: #262626; stroke: #262626; stroke-width: 0.8"/>
      </g>
     </g>
     <g id="text_10">
      <text style="font-size: 10px; font-family: 'Arial', 'DejaVu Sans', 'Liberation Sans', 'Bitstream Vera Sans', sans-serif; text-anchor: middle; fill: #262626" x="648.9" y="143.325812" transform="rotate(-0 648.9 143.325812)">$1000</text>
     </g>
    </g>
    <g id="xtick_11">
     <g id="line2d_11">
      <defs>
       <path id="mf265b4f6ae" d="M 0 0 
L 0 2 
" style="stroke: #262626; stroke-width: 0.6"/>
      </defs>
      <g>
       <use xlink:href="#mf265b4f6ae" x="7.653759" y="129.168" style="fill: #262626; stroke: #262626; stroke-width: 0.6"/>
      </g>
     </g>
    </g>
    <g id="xtick_12">
     <g id="line2d_12">
      <g>
       <use xlink:href="#mf265b4f6ae" x="62.619033" y="129.168" style="fill: #262626; stroke: #262626; stroke-width: 0.6"/>
      </g>
     </g>
    </g>
    <g id="xtick_13">
     <g id="line2d_13">
      <g>
       <use xlink:href="#mf265b4f6ae" x="90.529223" y="129.168" style="fill: #262626; stroke: #262626; stroke-width: 0.6"/>
      </g>
     </g>
    </g>
    <g id="xtick_14">
     <g id="line2d_14">
      <g>
       <use xlink:href="#mf265b4f6ae" x="110.331817" y="129.168" style="fill: #262626; stroke: #262626; stroke-width: 0.6"/>
      </g>
     </g>
    </g>
    <g id="xtick_15">
     <g id="line2d_15">
      <g>
       <use xlink:href="#mf265b4f6ae" x="125.691903" y="129.168" style="fill: #262626; stroke: #262626; stroke-width: 0.6"/>
      </g>
     </g>
    </g>
    <g id="xtick_16">
     <g id="line2d_16">
      <g>
       <use xlink:href="#mf265b4f6ae" x="138.242007" y="129.168" style="fill: #262626; stroke: #262626; stroke-width: 0.6"/>
      </g>
     </g>
    </g>
    <g id="xtick_17">
     <g id="line2d_17">
      <g>
       <use xlink:href="#mf265b4f6ae" x="148.852968" y="129.168" style="fill: #262626; stroke: #262626; stroke-width: 0.6"/>
      </g>
     </g>
    </g>
    <g id="xtick_18">
     <g id="line2d_18">
      <g>
       <use xlink:href="#mf265b4f6ae" x="158.044601" y="129.168" style="fill: #262626; stroke: #262626; stroke-width: 0.6"/>
      </g>
     </g>
    </g>
    <g id="xtick_19">
     <g id="line2d_19">
      <g>
       <use xlink:href="#mf265b4f6ae" x="166.152196" y="129.168" style="fill: #262626; stroke: #262626; stroke-width: 0.6"/>
      </g>
     </g>
    </g>
    <g id="xtick_20">
     <g id="line2d_20">
      <g>
       <use xlink:href="#mf265b4f6ae" x="249.02766" y="129.168" style="fill: #262626; stroke: #262626; stroke-width: 0.6"/>
      </g>
     </g>
    </g>
    <g id="xtick_21">
     <g id="line2d_21">
      <g>
       <use xlink:href="#mf265b4f6ae" x="268.830255" y="129.168" style="fill: #262626; stroke: #262626; stroke-width: 0.6"/>
      </g>
     </g>
    </g>
    <g id="xtick_22">
     <g id="line2d_22">
      <g>
       <use xlink:href="#mf265b4f6ae" x="296.740444" y="129.168" style="fill: #262626; stroke: #262626; stroke-width: 0.6"/>
      </g>
     </g>
    </g>
    <g id="xtick_23">
     <g id="line2d_23">
      <g>
       <use xlink:href="#mf265b4f6ae" x="307.351406" y="129.168" style="fill: #262626; stroke: #262626; stroke-width: 0.6"/>
      </g>
     </g>
    </g>
    <g id="xtick_24">
     <g id="line2d_24">
      <g>
       <use xlink:href="#mf265b4f6ae" x="316.543039" y="129.168" style="fill: #262626; stroke: #262626; stroke-width: 0.6"/>
      </g>
     </g>
    </g>
    <g id="xtick_25">
     <g id="line2d_25">
      <g>
       <use xlink:href="#mf265b4f6ae" x="324.650634" y="129.168" style="fill: #262626; stroke: #262626; stroke-width: 0.6"/>
      </g>
     </g>
    </g>
    <g id="xtick_26">
     <g id="line2d_26">
      <g>
       <use xlink:href="#mf265b4f6ae" x="407.526098" y="129.168" style="fill: #262626; stroke: #262626; stroke-width: 0.6"/>
      </g>
     </g>
    </g>
    <g id="xtick_27">
     <g id="line2d_27">
      <g>
       <use xlink:href="#mf265b4f6ae" x="427.328693" y="129.168" style="fill: #262626; stroke: #262626; stroke-width: 0.6"/>
      </g>
     </g>
    </g>
    <g id="xtick_28">
     <g id="line2d_28">
      <g>
       <use xlink:href="#mf265b4f6ae" x="455.238882" y="129.168" style="fill: #262626; stroke: #262626; stroke-width: 0.6"/>
      </g>
     </g>
    </g>
    <g id="xtick_29">
     <g id="line2d_29">
      <g>
       <use xlink:href="#mf265b4f6ae" x="465.849844" y="129.168" style="fill: #262626; stroke: #262626; stroke-width: 0.6"/>
      </g>
     </g>
    </g>
    <g id="xtick_30">
     <g id="line2d_30">
      <g>
       <use xlink:href="#mf265b4f6ae" x="475.041477" y="129.168" style="fill: #262626; stroke: #262626; stroke-width: 0.6"/>
      </g>
     </g>
    </g>
    <g id="xtick_31">
     <g id="line2d_31">
      <g>
       <use xlink:href="#mf265b4f6ae" x="483.149072" y="129.168" style="fill: #262626; stroke: #262626; stroke-width: 0.6"/>
      </g>
     </g>
    </g>
    <g id="xtick_32">
     <g id="line2d_32">
      <g>
       <use xlink:href="#mf265b4f6ae" x="566.024536" y="129.168" style="fill: #262626; stroke: #262626; stroke-width: 0.6"/>
      </g>
     </g>
    </g>
    <g id="xtick_33">
     <g id="line2d_33">
      <g>
       <use xlink:href="#mf265b4f6ae" x="585.82713" y="129.168" style="fill: #262626; stroke: #262626; stroke-width: 0.6"/>
      </g>
     </g>
    </g>
    <g id="xtick_34">
     <g id="line2d_34">
      <g>
       <use xlink:href="#mf265b4f6ae" x="613.73732" y="129.168" style="fill: #262626; stroke: #262626; stroke-width: 0.6"/>
      </g>
     </g>
    </g>
    <g id="xtick_35">
     <g id="line2d_35">
      <g>
       <use xlink:href="#mf265b4f6ae" x="624.348281" y="129.168" style="fill: #262626; stroke: #262626; stroke-width: 0.6"/>
      </g>
     </g>
    </g>
    <g id="xtick_36">
     <g id="line2d_36">
      <g>
       <use xlink:href="#mf265b4f6ae" x="633.539914" y="129.168" style="fill: #262626; stroke: #262626; stroke-width: 0.6"/>
      </g>
     </g>
    </g>
    <g id="xtick_37">
     <g id="line2d_37">
      <g>
       <use xlink:href="#mf265b4f6ae" x="641.647509" y="129.168" style="fill: #262626; stroke: #262626; stroke-width: 0.6"/>
      </g>
     </g>
    </g>
    <g id="text_11">
     <text style="font-size: 10px; font-family: 'Arial', 'DejaVu Sans', 'Liberation Sans', 'Bitstream Vera Sans', sans-serif; text-anchor: middle; fill: #262626" x="328.05" y="156.593" transform="rotate(-0 328.05 156.593)">Income or consumption (day)</text>
    </g>
   </g>
   <g id="matplotlib.axis_2"/>
   <g id="FillBetweenPolyCollection_1">
    <defs>
     <path id="m12da54cf0f" d="M 340.258963 -36.729687 
L 340.258963 -36.745892 
L 340.477983 -36.747291 
L 340.697003 -36.748799 
L 340.916024 -36.750425 
L 341.135044 -36.752175 
L 341.354065 -36.754059 
L 341.573085 -36.756085 
L 341.792106 -36.758263 
L 342.011126 -36.760602 
L 342.230147 -36.763113 
L 342.449167 -36.765807 
L 342.668188 -36.768696 
L 342.887208 -36.771791 
L 343.106229 -36.775105 
L 343.325249 -36.778651 
L 343.54427 -36.782444 
L 343.76329 -36.786497 
L 343.982311 -36.790827 
L 344.201331 -36.795449 
L 344.420352 -36.800379 
L 344.639372 -36.805636 
L 344.858393 -36.811236 
L 345.077413 -36.8172 
L 345.296434 -36.823546 
L 345.515454 -36.830294 
L 345.734475 -36.837466 
L 345.953495 -36.845084 
L 346.172516 -36.85317 
L 346.391536 -36.861749 
L 346.610557 -36.870843 
L 346.829577 -36.880478 
L 347.048598 -36.890681 
L 347.267618 -36.901477 
L 347.486639 -36.912895 
L 347.705659 -36.924962 
L 347.92468 -36.937709 
L 348.1437 -36.951164 
L 348.362721 -36.965358 
L 348.581741 -36.980323 
L 348.800762 -36.996092 
L 349.019782 -37.012696 
L 349.238803 -37.030171 
L 349.457823 -37.048549 
L 349.676844 -37.067867 
L 349.895864 -37.08816 
L 350.114885 -37.109464 
L 350.333905 -37.131816 
L 350.552926 -37.155253 
L 350.771946 -37.179814 
L 350.990966 -37.205537 
L 351.209987 -37.232461 
L 351.429007 -37.260624 
L 351.648028 -37.290067 
L 351.867048 -37.320829 
L 352.086069 -37.352951 
L 352.305089 -37.386472 
L 352.52411 -37.421432 
L 352.74313 -37.457872 
L 352.962151 -37.495833 
L 353.181171 -37.535355 
L 353.400192 -37.576477 
L 353.619212 -37.619239 
L 353.838233 -37.663682 
L 354.057253 -37.709845 
L 354.276274 -37.757765 
L 354.495294 -37.807482 
L 354.714315 -37.859033 
L 354.933335 -37.912456 
L 355.152356 -37.967786 
L 355.371376 -38.02506 
L 355.590397 -38.084311 
L 355.809417 -38.145574 
L 356.028438 -38.208882 
L 356.247458 -38.274266 
L 356.466479 -38.341757 
L 356.685499 -38.411384 
L 356.90452 -38.483174 
L 357.12354 -38.557156 
L 357.342561 -38.633353 
L 357.561581 -38.711789 
L 357.780602 -38.792487 
L 357.999622 -38.875468 
L 358.218643 -38.960749 
L 358.437663 -39.04835 
L 358.656684 -39.138284 
L 358.875704 -39.230565 
L 359.094725 -39.325206 
L 359.313745 -39.422217 
L 359.532766 -39.521606 
L 359.751786 -39.623379 
L 359.970807 -39.72754 
L 360.189827 -39.834091 
L 360.408848 -39.943035 
L 360.627868 -40.054368 
L 360.846888 -40.168087 
L 361.065909 -40.284188 
L 361.284929 -40.402662 
L 361.50395 -40.523501 
L 361.72297 -40.646694 
L 361.941991 -40.772227 
L 362.161011 -40.900086 
L 362.380032 -41.030255 
L 362.599052 -41.162714 
L 362.818073 -41.297445 
L 363.037093 -41.434425 
L 363.256114 -41.573631 
L 363.475134 -41.715039 
L 363.694155 -41.858622 
L 363.913175 -42.004353 
L 364.132196 -42.152203 
L 364.351216 -42.302141 
L 364.570237 -42.454136 
L 364.789257 -42.608157 
L 365.008278 -42.764169 
L 365.227298 -42.922138 
L 365.446319 -43.082029 
L 365.665339 -43.243807 
L 365.88436 -43.407434 
L 366.10338 -43.572875 
L 366.322401 -43.74009 
L 366.541421 -43.909043 
L 366.760442 -44.079696 
L 366.979462 -44.252011 
L 367.198483 -44.425948 
L 367.417503 -44.601471 
L 367.636524 -44.77854 
L 367.855544 -44.957119 
L 368.074565 -45.13717 
L 368.293585 -45.318655 
L 368.512606 -45.501538 
L 368.731626 -45.685784 
L 368.950647 -45.871357 
L 369.169667 -46.058221 
L 369.388688 -46.246345 
L 369.607708 -46.435694 
L 369.826729 -46.626237 
L 370.045749 -46.817943 
L 370.26477 -47.010782 
L 370.48379 -47.204726 
L 370.702811 -47.399747 
L 370.921831 -47.59582 
L 371.140851 -47.792918 
L 371.359872 -47.991019 
L 371.578892 -48.190101 
L 371.797913 -48.390142 
L 372.016933 -48.591124 
L 372.235954 -48.793028 
L 372.454974 -48.995838 
L 372.673995 -49.199538 
L 372.893015 -49.404117 
L 373.112036 -49.609561 
L 373.331056 -49.815859 
L 373.550077 -50.023003 
L 373.769097 -50.230986 
L 373.988118 -50.4398 
L 374.207138 -50.649441 
L 374.426159 -50.859907 
L 374.645179 -51.071194 
L 374.8642 -51.283302 
L 375.08322 -51.496232 
L 375.302241 -51.709987 
L 375.521261 -51.924568 
L 375.740282 -52.139981 
L 375.959302 -52.356232 
L 376.178323 -52.573326 
L 376.397343 -52.791273 
L 376.616364 -53.010081 
L 376.835384 -53.229759 
L 377.054405 -53.450319 
L 377.273425 -53.671772 
L 377.492446 -53.894131 
L 377.711466 -54.117409 
L 377.930487 -54.34162 
L 378.149507 -54.566779 
L 378.368528 -54.792901 
L 378.587548 -55.020002 
L 378.806569 -55.248098 
L 379.025589 -55.477207 
L 379.24461 -55.707346 
L 379.46363 -55.938531 
L 379.682651 -56.170782 
L 379.901671 -56.404115 
L 380.120692 -56.638551 
L 380.339712 -56.874106 
L 380.558733 -57.1108 
L 380.777753 -57.348652 
L 380.996774 -57.587679 
L 381.215794 -57.827901 
L 381.434814 -58.069337 
L 381.653835 -58.312004 
L 381.872855 -58.555922 
L 382.091876 -58.801108 
L 382.310896 -59.047581 
L 382.529917 -59.295357 
L 382.748937 -59.544456 
L 382.967958 -59.794893 
L 383.186978 -60.046685 
L 383.405999 -60.29985 
L 383.625019 -60.554403 
L 383.84404 -60.81036 
L 384.06306 -61.067736 
L 384.282081 -61.326546 
L 384.501101 -61.586805 
L 384.720122 -61.848526 
L 384.939142 -62.111723 
L 385.158163 -62.376409 
L 385.377183 -62.642597 
L 385.596204 -62.910298 
L 385.815224 -63.179523 
L 386.034245 -63.450285 
L 386.253265 -63.722593 
L 386.472286 -63.996456 
L 386.691306 -64.271886 
L 386.910327 -64.548889 
L 387.129347 -64.827475 
L 387.348368 -65.107652 
L 387.567388 -65.389425 
L 387.786409 -65.672803 
L 388.005429 -65.957792 
L 388.22445 -66.244396 
L 388.44347 -66.532621 
L 388.662491 -66.822472 
L 388.881511 -67.113952 
L 389.100532 -67.407065 
L 389.319552 -67.701815 
L 389.538573 -67.998204 
L 389.757593 -68.296233 
L 389.976614 -68.595904 
L 390.195634 -68.897219 
L 390.414655 -69.200178 
L 390.633675 -69.504781 
L 390.852696 -69.811028 
L 391.071716 -70.118918 
L 391.290737 -70.42845 
L 391.509757 -70.739622 
L 391.728777 -71.052432 
L 391.947798 -71.366878 
L 392.166818 -71.682957 
L 392.385839 -72.000665 
L 392.604859 -72.319998 
L 392.82388 -72.640953 
L 393.0429 -72.963525 
L 393.261921 -73.287709 
L 393.480941 -73.613499 
L 393.699962 -73.940891 
L 393.918982 -74.269877 
L 394.138003 -74.600453 
L 394.357023 -74.93261 
L 394.576044 -75.266342 
L 394.795064 -75.601641 
L 395.014085 -75.9385 
L 395.233105 -76.276911 
L 395.452126 -76.616864 
L 395.671146 -76.958352 
L 395.890167 -77.301365 
L 396.109187 -77.645894 
L 396.328208 -77.991928 
L 396.547228 -78.339459 
L 396.766249 -78.688476 
L 396.985269 -79.038967 
L 397.20429 -79.390922 
L 397.42331 -79.744331 
L 397.642331 -80.09918 
L 397.861351 -80.455459 
L 398.080372 -80.813155 
L 398.299392 -81.172257 
L 398.518413 -81.53275 
L 398.737433 -81.894623 
L 398.956454 -82.257861 
L 399.175474 -82.622452 
L 399.394495 -82.988382 
L 399.613515 -83.355636 
L 399.832536 -83.724201 
L 400.051556 -84.094061 
L 400.270577 -84.465201 
L 400.489597 -84.837607 
L 400.708618 -85.211264 
L 400.927638 -85.586154 
L 401.146659 -85.962263 
L 401.365679 -86.339574 
L 401.5847 -86.718071 
L 401.80372 -87.097737 
L 402.02274 -87.478554 
L 402.241761 -87.860506 
L 402.460781 -88.243576 
L 402.679802 -88.627744 
L 402.898822 -89.012995 
L 403.117843 -89.399308 
L 403.336863 -89.786665 
L 403.555884 -90.175049 
L 403.774904 -90.564439 
L 403.993925 -90.954817 
L 404.212945 -91.346162 
L 404.431966 -91.738456 
L 404.650986 -92.131678 
L 404.870007 -92.525808 
L 405.089027 -92.920825 
L 405.308048 -93.316709 
L 405.527068 -93.713439 
L 405.746089 -94.110993 
L 405.965109 -94.50935 
L 406.18413 -94.908489 
L 406.40315 -95.308387 
L 406.622171 -95.709023 
L 406.841191 -96.110373 
L 407.060212 -96.512416 
L 407.279232 -96.915129 
L 407.498253 -97.318488 
L 407.717273 -97.722471 
L 407.936294 -98.127053 
L 408.155314 -98.532212 
L 408.374335 -98.937923 
L 408.593355 -99.344162 
L 408.812376 -99.750904 
L 409.031396 -100.158126 
L 409.250417 -100.565802 
L 409.469437 -100.973908 
L 409.688458 -101.382418 
L 409.907478 -101.791307 
L 410.126499 -102.200549 
L 410.345519 -102.610119 
L 410.56454 -103.01999 
L 410.78356 -103.430137 
L 411.002581 -103.840533 
L 411.221601 -104.251151 
L 411.440622 -104.661966 
L 411.659642 -105.072949 
L 411.878662 -105.484074 
L 412.097683 -105.895313 
L 412.316703 -106.30664 
L 412.535724 -106.718026 
L 412.754744 -107.129444 
L 412.973765 -107.540865 
L 413.192785 -107.952262 
L 413.411806 -108.363607 
L 413.630826 -108.77487 
L 413.849847 -109.186024 
L 414.068867 -109.597039 
L 414.287888 -110.007887 
L 414.506908 -110.418538 
L 414.725929 -110.828964 
L 414.944949 -111.239135 
L 415.16397 -111.649022 
L 415.38299 -112.058594 
L 415.602011 -112.467823 
L 415.821031 -112.876679 
L 416.040052 -113.285131 
L 416.259072 -113.693149 
L 416.478093 -114.100704 
L 416.697113 -114.507765 
L 416.916134 -114.914301 
L 417.135154 -115.320281 
L 417.354175 -115.725676 
L 417.573195 -116.130455 
L 417.792216 -116.534586 
L 418.011236 -116.938039 
L 418.230257 -117.340783 
L 418.449277 -117.742787 
L 418.668298 -118.144018 
L 418.887318 -118.544448 
L 419.106339 -118.944042 
L 419.325359 -119.342772 
L 419.54438 -119.740604 
L 419.7634 -120.137508 
L 419.982421 -120.533452 
L 420.201441 -120.928405 
L 420.420462 -121.322334 
L 420.639482 -121.715207 
L 420.858503 -122.106995 
L 421.077523 -122.497663 
L 421.296544 -122.887181 
L 421.515564 -123.275517 
L 421.734585 -123.662638 
L 421.953605 -124.048514 
L 422.172625 -124.433111 
L 422.391646 -124.816399 
L 422.610666 -125.198345 
L 422.829687 -125.578917 
L 423.048707 -125.958083 
L 423.267728 -126.335812 
L 423.486748 -126.712072 
L 423.705769 -127.08683 
L 423.924789 -127.460055 
L 424.14381 -127.831715 
L 424.36283 -128.201778 
L 424.581851 -128.570212 
L 424.800871 -128.936986 
L 425.019892 -129.302068 
L 425.238912 -129.665426 
L 425.457933 -130.027029 
L 425.676953 -130.386845 
L 425.895974 -130.744843 
L 426.114994 -131.100991 
L 426.334015 -131.455258 
L 426.553035 -131.807613 
L 426.772056 -132.158024 
L 426.991076 -132.50646 
L 427.210097 -132.852891 
L 427.429117 -133.197285 
L 427.648138 -133.539612 
L 427.867158 -133.879841 
L 428.086179 -134.217941 
L 428.305199 -134.553882 
L 428.52422 -134.887633 
L 428.74324 -135.219164 
L 428.962261 -135.548445 
L 429.181281 -135.875446 
L 429.400302 -136.200137 
L 429.619322 -136.522488 
L 429.838343 -136.84247 
L 430.057363 -137.160053 
L 430.276384 -137.475209 
L 430.495404 -137.787907 
L 430.714425 -138.098118 
L 430.933445 -138.405815 
L 431.152466 -138.710968 
L 431.371486 -139.013549 
L 431.590507 -139.313529 
L 431.809527 -139.610881 
L 432.028548 -139.905577 
L 432.247568 -140.197588 
L 432.466588 -140.486887 
L 432.685609 -140.773448 
L 432.904629 -141.057242 
L 433.12365 -141.338243 
L 433.34267 -141.616424 
L 433.561691 -141.891758 
L 433.780711 -142.16422 
L 433.999732 -142.433784 
L 434.218752 -142.700422 
L 434.437773 -142.964111 
L 434.656793 -143.224824 
L 434.875814 -143.482537 
L 435.094834 -143.737224 
L 435.313855 -143.988861 
L 435.532875 -144.237424 
L 435.751896 -144.482889 
L 435.970916 -144.725231 
L 436.189937 -144.964427 
L 436.408957 -145.200454 
L 436.627978 -145.433289 
L 436.846998 -145.662909 
L 437.066019 -145.889291 
L 437.285039 -146.112414 
L 437.50406 -146.332255 
L 437.72308 -146.548794 
L 437.942101 -146.762008 
L 438.161121 -146.971876 
L 438.380142 -147.178378 
L 438.599162 -147.381494 
L 438.818183 -147.581204 
L 439.037203 -147.777486 
L 439.256224 -147.970323 
L 439.475244 -148.159695 
L 439.694265 -148.345583 
L 439.913285 -148.527969 
L 440.132306 -148.706835 
L 440.351326 -148.882162 
L 440.570347 -149.053933 
L 440.789367 -149.222131 
L 441.008388 -149.386739 
L 441.227408 -149.547741 
L 441.446429 -149.70512 
L 441.665449 -149.858861 
L 441.88447 -150.008949 
L 442.10349 -150.155368 
L 442.322511 -150.298103 
L 442.541531 -150.43714 
L 442.760551 -150.572465 
L 442.979572 -150.704065 
L 443.198592 -150.831926 
L 443.417613 -150.956034 
L 443.636633 -151.076379 
L 443.855654 -151.192947 
L 444.074674 -151.305727 
L 444.293695 -151.414707 
L 444.512715 -151.519876 
L 444.731736 -151.621224 
L 444.950756 -151.71874 
L 445.169777 -151.812415 
L 445.388797 -151.902238 
L 445.607818 -151.988201 
L 445.826838 -152.070294 
L 446.045859 -152.148511 
L 446.264879 -152.222842 
L 446.4839 -152.29328 
L 446.70292 -152.359818 
L 446.921941 -152.422449 
L 447.140961 -152.481166 
L 447.359982 -152.535964 
L 447.579002 -152.586838 
L 447.798023 -152.633781 
L 448.017043 -152.67679 
L 448.236064 -152.715859 
L 448.455084 -152.750985 
L 448.674105 -152.782164 
L 448.893125 -152.809393 
L 449.112146 -152.832669 
L 449.331166 -152.85199 
L 449.550187 -152.867353 
L 449.769207 -152.878758 
L 449.988228 -152.886203 
L 450.207248 -152.889687 
L 450.426269 -152.889211 
L 450.645289 -152.884773 
L 450.86431 -152.876375 
L 451.08333 -152.864017 
L 451.302351 -152.8477 
L 451.521371 -152.827427 
L 451.740392 -152.803199 
L 451.959412 -152.775019 
L 452.178433 -152.74289 
L 452.397453 -152.706814 
L 452.616473 -152.666797 
L 452.835494 -152.622841 
L 453.054514 -152.574951 
L 453.273535 -152.523132 
L 453.492555 -152.46739 
L 453.711576 -152.407729 
L 453.930596 -152.344157 
L 454.149617 -152.27668 
L 454.368637 -152.205304 
L 454.587658 -152.130037 
L 454.806678 -152.050887 
L 455.025699 -151.967861 
L 455.244719 -151.880968 
L 455.46374 -151.790217 
L 455.68276 -151.695617 
L 455.901781 -151.597178 
L 456.120801 -151.494909 
L 456.339822 -151.388821 
L 456.558842 -151.278925 
L 456.777863 -151.165233 
L 456.996883 -151.047754 
L 457.215904 -150.926502 
L 457.434924 -150.801489 
L 457.653945 -150.672727 
L 457.872965 -150.540229 
L 458.091986 -150.404009 
L 458.311006 -150.264081 
L 458.530027 -150.120457 
L 458.749047 -149.973154 
L 458.968068 -149.822186 
L 459.187088 -149.667567 
L 459.406109 -149.509314 
L 459.625129 -149.347443 
L 459.84415 -149.181969 
L 460.06317 -149.012909 
L 460.282191 -148.84028 
L 460.501211 -148.6641 
L 460.720232 -148.484385 
L 460.939252 -148.301155 
L 461.158273 -148.114426 
L 461.377293 -147.924218 
L 461.596314 -147.73055 
L 461.815334 -147.533441 
L 462.034355 -147.332909 
L 462.253375 -147.128976 
L 462.472396 -146.921662 
L 462.691416 -146.710986 
L 462.910436 -146.49697 
L 463.129457 -146.279634 
L 463.348477 -146.059001 
L 463.567498 -145.835091 
L 463.786518 -145.607928 
L 464.005539 -145.377532 
L 464.224559 -145.143926 
L 464.44358 -144.907134 
L 464.6626 -144.667178 
L 464.881621 -144.424082 
L 465.100641 -144.17787 
L 465.319662 -143.928565 
L 465.538682 -143.676191 
L 465.757703 -143.420773 
L 465.976723 -143.162336 
L 466.195744 -142.900904 
L 466.414764 -142.636503 
L 466.633785 -142.369157 
L 466.852805 -142.098894 
L 467.071826 -141.825738 
L 467.290846 -141.549716 
L 467.509867 -141.270853 
L 467.728887 -140.989178 
L 467.947908 -140.704715 
L 468.166928 -140.417493 
L 468.385949 -140.127538 
L 468.604969 -139.834878 
L 468.82399 -139.539541 
L 469.04301 -139.241553 
L 469.262031 -138.940944 
L 469.481051 -138.637742 
L 469.700072 -138.331974 
L 469.919092 -138.023669 
L 470.138113 -137.712856 
L 470.357133 -137.399564 
L 470.576154 -137.083821 
L 470.795174 -136.765658 
L 471.014195 -136.445103 
L 471.233215 -136.122186 
L 471.452236 -135.796936 
L 471.671256 -135.469383 
L 471.890277 -135.139558 
L 472.109297 -134.80749 
L 472.328318 -134.473209 
L 472.547338 -134.136745 
L 472.766359 -133.79813 
L 472.985379 -133.457394 
L 473.204399 -133.114566 
L 473.42342 -132.769679 
L 473.64244 -132.422763 
L 473.861461 -132.073848 
L 474.080481 -131.722966 
L 474.299502 -131.370148 
L 474.518522 -131.015426 
L 474.737543 -130.65883 
L 474.956563 -130.300391 
L 475.175584 -129.940142 
L 475.394604 -129.578114 
L 475.613625 -129.214338 
L 475.832645 -128.848846 
L 476.051666 -128.481669 
L 476.270686 -128.11284 
L 476.489707 -127.742389 
L 476.708727 -127.37035 
L 476.927748 -126.996753 
L 477.146768 -126.621631 
L 477.365789 -126.245015 
L 477.584809 -125.866937 
L 477.80383 -125.487429 
L 478.02285 -125.106523 
L 478.241871 -124.724252 
L 478.460891 -124.340646 
L 478.679912 -123.955738 
L 478.898932 -123.569559 
L 479.117953 -123.182143 
L 479.336973 -122.79352 
L 479.555994 -122.403722 
L 479.775014 -122.012781 
L 479.994035 -121.62073 
L 480.213055 -121.227599 
L 480.432076 -120.833421 
L 480.651096 -120.438227 
L 480.870117 -120.042049 
L 481.089137 -119.644919 
L 481.308158 -119.246867 
L 481.527178 -118.847927 
L 481.746199 -118.448128 
L 481.965219 -118.047503 
L 482.18424 -117.646083 
L 482.40326 -117.243898 
L 482.622281 -116.840981 
L 482.841301 -116.437362 
L 483.060322 -116.033072 
L 483.279342 -115.628142 
L 483.498362 -115.222603 
L 483.717383 -114.816486 
L 483.936403 -114.409821 
L 484.155424 -114.002639 
L 484.374444 -113.59497 
L 484.593465 -113.186844 
L 484.812485 -112.778292 
L 485.031506 -112.369344 
L 485.250526 -111.96003 
L 485.469547 -111.550379 
L 485.688567 -111.140421 
L 485.907588 -110.730186 
L 486.126608 -110.319703 
L 486.345629 -109.909002 
L 486.564649 -109.498111 
L 486.78367 -109.08706 
L 487.00269 -108.675877 
L 487.221711 -108.264591 
L 487.440731 -107.853232 
L 487.659752 -107.441826 
L 487.878772 -107.030403 
L 488.097793 -106.61899 
L 488.316813 -106.207616 
L 488.535834 -105.796308 
L 488.754854 -105.385093 
L 488.973875 -104.974 
L 489.192895 -104.563055 
L 489.411916 -104.152285 
L 489.630936 -103.741718 
L 489.849957 -103.33138 
L 490.068977 -102.921297 
L 490.287998 -102.511495 
L 490.507018 -102.102002 
L 490.726039 -101.692842 
L 490.945059 -101.284042 
L 491.16408 -100.875627 
L 491.3831 -100.467622 
L 491.602121 -100.060053 
L 491.821141 -99.652944 
L 492.040162 -99.24632 
L 492.259182 -98.840206 
L 492.478203 -98.434625 
L 492.697223 -98.029603 
L 492.916244 -97.625162 
L 493.135264 -97.221327 
L 493.354285 -96.818121 
L 493.573305 -96.415566 
L 493.792325 -96.013687 
L 494.011346 -95.612506 
L 494.230366 -95.212045 
L 494.449387 -94.812326 
L 494.668407 -94.413372 
L 494.887428 -94.015205 
L 495.106448 -93.617846 
L 495.325469 -93.221316 
L 495.544489 -92.825637 
L 495.76351 -92.43083 
L 495.98253 -92.036914 
L 496.201551 -91.643911 
L 496.420571 -91.251841 
L 496.639592 -90.860724 
L 496.858612 -90.470578 
L 497.077633 -90.081425 
L 497.296653 -89.693282 
L 497.515674 -89.306169 
L 497.734694 -88.920105 
L 497.953715 -88.535108 
L 498.172735 -88.151195 
L 498.391756 -87.768386 
L 498.610776 -87.386697 
L 498.829797 -87.006146 
L 499.048817 -86.62675 
L 499.267838 -86.248527 
L 499.486858 -85.871491 
L 499.705879 -85.495661 
L 499.924899 -85.121051 
L 500.14392 -84.747679 
L 500.36294 -84.375558 
L 500.581961 -84.004705 
L 500.800981 -83.635134 
L 501.020002 -83.26686 
L 501.239022 -82.899897 
L 501.458043 -82.53426 
L 501.677063 -82.169962 
L 501.896084 -81.807017 
L 502.115104 -81.445438 
L 502.334125 -81.085237 
L 502.553145 -80.726429 
L 502.772166 -80.369024 
L 502.991186 -80.013034 
L 503.210207 -79.658473 
L 503.429227 -79.30535 
L 503.648247 -78.953677 
L 503.867268 -78.603465 
L 504.086288 -78.254724 
L 504.305309 -77.907463 
L 504.524329 -77.561694 
L 504.74335 -77.217425 
L 504.96237 -76.874665 
L 505.181391 -76.533423 
L 505.400411 -76.193707 
L 505.619432 -75.855526 
L 505.838452 -75.518886 
L 506.057473 -75.183795 
L 506.276493 -74.850259 
L 506.495514 -74.518286 
L 506.714534 -74.187881 
L 506.933555 -73.85905 
L 507.152575 -73.531798 
L 507.371596 -73.20613 
L 507.590616 -72.88205 
L 507.809637 -72.559562 
L 508.028657 -72.238669 
L 508.247678 -71.919376 
L 508.466698 -71.601683 
L 508.685719 -71.285593 
L 508.904739 -70.971109 
L 509.12376 -70.65823 
L 509.34278 -70.346958 
L 509.561801 -70.037293 
L 509.780821 -69.729234 
L 509.999842 -69.422781 
L 510.218862 -69.117932 
L 510.437883 -68.814685 
L 510.656903 -68.513039 
L 510.875924 -68.212989 
L 511.094944 -67.914532 
L 511.313965 -67.617665 
L 511.532985 -67.322382 
L 511.752006 -67.028678 
L 511.971026 -66.736548 
L 512.190047 -66.445985 
L 512.409067 -66.156982 
L 512.628088 -65.869532 
L 512.847108 -65.583627 
L 513.066129 -65.299258 
L 513.285149 -65.016415 
L 513.50417 -64.735089 
L 513.72319 -64.45527 
L 513.94221 -64.176946 
L 514.161231 -63.900106 
L 514.380251 -63.624739 
L 514.599272 -63.35083 
L 514.818292 -63.078368 
L 515.037313 -62.807338 
L 515.256333 -62.537726 
L 515.475354 -62.269519 
L 515.694374 -62.002699 
L 515.913395 -61.737252 
L 516.132415 -61.473162 
L 516.351436 -61.210412 
L 516.570456 -60.948985 
L 516.789477 -60.688864 
L 517.008497 -60.430031 
L 517.227518 -60.172468 
L 517.446538 -59.916158 
L 517.665559 -59.661081 
L 517.884579 -59.407219 
L 518.1036 -59.154553 
L 518.32262 -58.903064 
L 518.541641 -58.652732 
L 518.760661 -58.403539 
L 518.979682 -58.155465 
L 519.198702 -57.908491 
L 519.417723 -57.662598 
L 519.636743 -57.417767 
L 519.855764 -57.173979 
L 520.074784 -56.931216 
L 520.293805 -56.689459 
L 520.512825 -56.44869 
L 520.731846 -56.208891 
L 520.950866 -55.970047 
L 521.169887 -55.732139 
L 521.388907 -55.495152 
L 521.607928 -55.25907 
L 521.826948 -55.023879 
L 522.045969 -54.789565 
L 522.264989 -54.556114 
L 522.48401 -54.323515 
L 522.70303 -54.091755 
L 522.922051 -53.860824 
L 523.141071 -53.630713 
L 523.360092 -53.401413 
L 523.579112 -53.172918 
L 523.798133 -52.945221 
L 524.017153 -52.718317 
L 524.236173 -52.492203 
L 524.455194 -52.266877 
L 524.674214 -52.042337 
L 524.893235 -51.818585 
L 525.112255 -51.595623 
L 525.331276 -51.373453 
L 525.550296 -51.152081 
L 525.769317 -50.931514 
L 525.988337 -50.71176 
L 526.207358 -50.492828 
L 526.426378 -50.27473 
L 526.645399 -50.057478 
L 526.864419 -49.841088 
L 527.08344 -49.625574 
L 527.30246 -49.410955 
L 527.521481 -49.197251 
L 527.740501 -48.984481 
L 527.959522 -48.772669 
L 528.178542 -48.561838 
L 528.397563 -48.352014 
L 528.616583 -48.143224 
L 528.835604 -47.935496 
L 529.054624 -47.72886 
L 529.273645 -47.523348 
L 529.492665 -47.31899 
L 529.711686 -47.115822 
L 529.930706 -46.913878 
L 530.149727 -46.713194 
L 530.368747 -46.513806 
L 530.587768 -46.315754 
L 530.806788 -46.119075 
L 531.025809 -45.923809 
L 531.244829 -45.729996 
L 531.46385 -45.537678 
L 531.68287 -45.346895 
L 531.901891 -45.15769 
L 532.120911 -44.970105 
L 532.339932 -44.784182 
L 532.558952 -44.599963 
L 532.777973 -44.417492 
L 532.996993 -44.23681 
L 533.216014 -44.057961 
L 533.435034 -43.880985 
L 533.654055 -43.705926 
L 533.873075 -43.532823 
L 534.092096 -43.361717 
L 534.311116 -43.192648 
L 534.530136 -43.025656 
L 534.749157 -42.860778 
L 534.968177 -42.698051 
L 535.187198 -42.537511 
L 535.406218 -42.379193 
L 535.625239 -42.223131 
L 535.844259 -42.069356 
L 536.06328 -41.9179 
L 536.2823 -41.768791 
L 536.501321 -41.622058 
L 536.720341 -41.477725 
L 536.939362 -41.335817 
L 537.158382 -41.196356 
L 537.377403 -41.059363 
L 537.596423 -40.924857 
L 537.815444 -40.792853 
L 538.034464 -40.663367 
L 538.253485 -40.53641 
L 538.472505 -40.411994 
L 538.691526 -40.290127 
L 538.910546 -40.170815 
L 539.129567 -40.054062 
L 539.348587 -39.939871 
L 539.567608 -39.828241 
L 539.786628 -39.71917 
L 540.005649 -39.612654 
L 540.224669 -39.508686 
L 540.44369 -39.407258 
L 540.66271 -39.30836 
L 540.881731 -39.211979 
L 541.100751 -39.1181 
L 541.319772 -39.026707 
L 541.538792 -38.937782 
L 541.757813 -38.851305 
L 541.976833 -38.767253 
L 542.195854 -38.685604 
L 542.414874 -38.606331 
L 542.633895 -38.529408 
L 542.852915 -38.454805 
L 543.071936 -38.382495 
L 543.290956 -38.312444 
L 543.509977 -38.24462 
L 543.728997 -38.178989 
L 543.948018 -38.115516 
L 544.167038 -38.054166 
L 544.386059 -37.994899 
L 544.605079 -37.937679 
L 544.824099 -37.882466 
L 545.04312 -37.829221 
L 545.26214 -37.777903 
L 545.481161 -37.72847 
L 545.700181 -37.680881 
L 545.919202 -37.635095 
L 546.138222 -37.591067 
L 546.357243 -37.548756 
L 546.576263 -37.508119 
L 546.795284 -37.469111 
L 547.014304 -37.431691 
L 547.233325 -37.395814 
L 547.452345 -37.361437 
L 547.671366 -37.328517 
L 547.890386 -37.297011 
L 548.109407 -37.266877 
L 548.328427 -37.238071 
L 548.547448 -37.210552 
L 548.766468 -37.184278 
L 548.985489 -37.159208 
L 549.204509 -37.135301 
L 549.42353 -37.112517 
L 549.64255 -37.090816 
L 549.861571 -37.07016 
L 550.080591 -37.050509 
L 550.299612 -37.031827 
L 550.518632 -37.014076 
L 550.737653 -36.99722 
L 550.956673 -36.981225 
L 551.175694 -36.966055 
L 551.394714 -36.951676 
L 551.613735 -36.938056 
L 551.832755 -36.925162 
L 552.051776 -36.912964 
L 552.270796 -36.90143 
L 552.489817 -36.890532 
L 552.708837 -36.880241 
L 552.927858 -36.870528 
L 553.146878 -36.861368 
L 553.365899 -36.852734 
L 553.584919 -36.8446 
L 553.80394 -36.836944 
L 554.02296 -36.82974 
L 554.241981 -36.822967 
L 554.461001 -36.816602 
L 554.680021 -36.810626 
L 554.899042 -36.805017 
L 555.118062 -36.799756 
L 555.337083 -36.794826 
L 555.556103 -36.790207 
L 555.775124 -36.785883 
L 555.994144 -36.781838 
L 556.213165 -36.778056 
L 556.432185 -36.774523 
L 556.651206 -36.771223 
L 556.870226 -36.768144 
L 557.089247 -36.765272 
L 557.308267 -36.762595 
L 557.527288 -36.760102 
L 557.746308 -36.757782 
L 557.965329 -36.755623 
L 558.184349 -36.753616 
L 558.40337 -36.751751 
L 558.62239 -36.75002 
L 558.841411 -36.748413 
L 559.060431 -36.746923 
L 559.060431 -36.729687 
L 559.060431 -36.729687 
L 558.841411 -36.729687 
L 558.62239 -36.729687 
L 558.40337 -36.729687 
L 558.184349 -36.729687 
L 557.965329 -36.729687 
L 557.746308 -36.729687 
L 557.527288 -36.729687 
L 557.308267 -36.729687 
L 557.089247 -36.729687 
L 556.870226 -36.729687 
L 556.651206 -36.729687 
L 556.432185 -36.729687 
L 556.213165 -36.729687 
L 555.994144 -36.729687 
L 555.775124 -36.729687 
L 555.556103 -36.729687 
L 555.337083 -36.729687 
L 555.118062 -36.729687 
L 554.899042 -36.729687 
L 554.680021 -36.729687 
L 554.461001 -36.729687 
L 554.241981 -36.729687 
L 554.02296 -36.729687 
L 553.80394 -36.729687 
L 553.584919 -36.729687 
L 553.365899 -36.729687 
L 553.146878 -36.729687 
L 552.927858 -36.729687 
L 552.708837 -36.729687 
L 552.489817 -36.729687 
L 552.270796 -36.729687 
L 552.051776 -36.729687 
L 551.832755 -36.729687 
L 551.613735 -36.729687 
L 551.394714 -36.729687 
L 551.175694 -36.729687 
L 550.956673 -36.729687 
L 550.737653 -36.729687 
L 550.518632 -36.729687 
L 550.299612 -36.729687 
L 550.080591 -36.729687 
L 549.861571 -36.729687 
L 549.64255 -36.729687 
L 549.42353 -36.729687 
L 549.204509 -36.729687 
L 548.985489 -36.729687 
L 548.766468 -36.729687 
L 548.547448 -36.729687 
L 548.328427 -36.729687 
L 548.109407 -36.729687 
L 547.890386 -36.729687 
L 547.671366 -36.729687 
L 547.452345 -36.729687 
L 547.233325 -36.729687 
L 547.014304 -36.729687 
L 546.795284 -36.729687 
L 546.576263 -36.729687 
L 546.357243 -36.729687 
L 546.138222 -36.729687 
L 545.919202 -36.729687 
L 545.700181 -36.729687 
L 545.481161 -36.729687 
L 545.26214 -36.729687 
L 545.04312 -36.729687 
L 544.824099 -36.729687 
L 544.605079 -36.729687 
L 544.386059 -36.729687 
L 544.167038 -36.729687 
L 543.948018 -36.729687 
L 543.728997 -36.729687 
L 543.509977 -36.729687 
L 543.290956 -36.729687 
L 543.071936 -36.729687 
L 542.852915 -36.729687 
L 542.633895 -36.729687 
L 542.414874 -36.729687 
L 542.195854 -36.729687 
L 541.976833 -36.729687 
L 541.757813 -36.729687 
L 541.538792 -36.729687 
L 541.319772 -36.729687 
L 541.100751 -36.729687 
L 540.881731 -36.729687 
L 540.66271 -36.729687 
L 540.44369 -36.729687 
L 540.224669 -36.729687 
L 540.005649 -36.729687 
L 539.786628 -36.729687 
L 539.567608 -36.729687 
L 539.348587 -36.729687 
L 539.129567 -36.729687 
L 538.910546 -36.729687 
L 538.691526 -36.729687 
L 538.472505 -36.729687 
L 538.253485 -36.729687 
L 538.034464 -36.729687 
L 537.815444 -36.729687 
L 537.596423 -36.729687 
L 537.377403 -36.729687 
L 537.158382 -36.729687 
L 536.939362 -36.729687 
L 536.720341 -36.729687 
L 536.501321 -36.729687 
L 536.2823 -36.729687 
L 536.06328 -36.729687 
L 535.844259 -36.729687 
L 535.625239 -36.729687 
L 535.406218 -36.729687 
L 535.187198 -36.729687 
L 534.968177 -36.729687 
L 534.749157 -36.729687 
L 534.530136 -36.729687 
L 534.311116 -36.729687 
L 534.092096 -36.729687 
L 533.873075 -36.729687 
L 533.654055 -36.729687 
L 533.435034 -36.729687 
L 533.216014 -36.729687 
L 532.996993 -36.729687 
L 532.777973 -36.729687 
L 532.558952 -36.729687 
L 532.339932 -36.729687 
L 532.120911 -36.729687 
L 531.901891 -36.729687 
L 531.68287 -36.729687 
L 531.46385 -36.729687 
L 531.244829 -36.729687 
L 531.025809 -36.729687 
L 530.806788 -36.729687 
L 530.587768 -36.729687 
L 530.368747 -36.729687 
L 530.149727 -36.729687 
L 529.930706 -36.729687 
L 529.711686 -36.729687 
L 529.492665 -36.729687 
L 529.273645 -36.729687 
L 529.054624 -36.729687 
L 528.835604 -36.729687 
L 528.616583 -36.729687 
L 528.397563 -36.729687 
L 528.178542 -36.729687 
L 527.959522 -36.729687 
L 527.740501 -36.729687 
L 527.521481 -36.729687 
L 527.30246 -36.729687 
L 527.08344 -36.729687 
L 526.864419 -36.729687 
L 526.645399 -36.729687 
L 526.426378 -36.729687 
L 526.207358 -36.729687 
L 525.988337 -36.729687 
L 525.769317 -36.729687 
L 525.550296 -36.729687 
L 525.331276 -36.729687 
L 525.112255 -36.729687 
L 524.893235 -36.729687 
L 524.674214 -36.729687 
L 524.455194 -36.729687 
L 524.236173 -36.729687 
L 524.017153 -36.729687 
L 523.798133 -36.729687 
L 523.579112 -36.729687 
L 523.360092 -36.729687 
L 523.141071 -36.729687 
L 522.922051 -36.729687 
L 522.70303 -36.729687 
L 522.48401 -36.729687 
L 522.264989 -36.729687 
L 522.045969 -36.729687 
L 521.826948 -36.729687 
L 521.607928 -36.729687 
L 521.388907 -36.729687 
L 521.169887 -36.729687 
L 520.950866 -36.729687 
L 520.731846 -36.729687 
L 520.512825 -36.729687 
L 520.293805 -36.729687 
L 520.074784 -36.729687 
L 519.855764 -36.729687 
L 519.636743 -36.729687 
L 519.417723 -36.729687 
L 519.198702 -36.729687 
L 518.979682 -36.729687 
L 518.760661 -36.729687 
L 518.541641 -36.729687 
L 518.32262 -36.729687 
L 518.1036 -36.729687 
L 517.884579 -36.729687 
L 517.665559 -36.729687 
L 517.446538 -36.729687 
L 517.227518 -36.729687 
L 517.008497 -36.729687 
L 516.789477 -36.729687 
L 516.570456 -36.729687 
L 516.351436 -36.729687 
L 516.132415 -36.729687 
L 515.913395 -36.729687 
L 515.694374 -36.729687 
L 515.475354 -36.729687 
L 515.256333 -36.729687 
L 515.037313 -36.729687 
L 514.818292 -36.729687 
L 514.599272 -36.729687 
L 514.380251 -36.729687 
L 514.161231 -36.729687 
L 513.94221 -36.729687 
L 513.72319 -36.729687 
L 513.50417 -36.729687 
L 513.285149 -36.729687 
L 513.066129 -36.729687 
L 512.847108 -36.729687 
L 512.628088 -36.729687 
L 512.409067 -36.729687 
L 512.190047 -36.729687 
L 511.971026 -36.729687 
L 511.752006 -36.729687 
L 511.532985 -36.729687 
L 511.313965 -36.729687 
L 511.094944 -36.729687 
L 510.875924 -36.729687 
L 510.656903 -36.729687 
L 510.437883 -36.729687 
L 510.218862 -36.729687 
L 509.999842 -36.729687 
L 509.780821 -36.729687 
L 509.561801 -36.729687 
L 509.34278 -36.729687 
L 509.12376 -36.729687 
L 508.904739 -36.729687 
L 508.685719 -36.729687 
L 508.466698 -36.729687 
L 508.247678 -36.729687 
L 508.028657 -36.729687 
L 507.809637 -36.729687 
L 507.590616 -36.729687 
L 507.371596 -36.729687 
L 507.152575 -36.729687 
L 506.933555 -36.729687 
L 506.714534 -36.729687 
L 506.495514 -36.729687 
L 506.276493 -36.729687 
L 506.057473 -36.729687 
L 505.838452 -36.729687 
L 505.619432 -36.729687 
L 505.400411 -36.729687 
L 505.181391 -36.729687 
L 504.96237 -36.729687 
L 504.74335 -36.729687 
L 504.524329 -36.729687 
L 504.305309 -36.729687 
L 504.086288 -36.729687 
L 503.867268 -36.729687 
L 503.648247 -36.729687 
L 503.429227 -36.729687 
L 503.210207 -36.729687 
L 502.991186 -36.729687 
L 502.772166 -36.729687 
L 502.553145 -36.729687 
L 502.334125 -36.729687 
L 502.115104 -36.729687 
L 501.896084 -36.729687 
L 501.677063 -36.729687 
L 501.458043 -36.729687 
L 501.239022 -36.729687 
L 501.020002 -36.729687 
L 500.800981 -36.729687 
L 500.581961 -36.729687 
L 500.36294 -36.729687 
L 500.14392 -36.729687 
L 499.924899 -36.729687 
L 499.705879 -36.729687 
L 499.486858 -36.729687 
L 499.267838 -36.729687 
L 499.048817 -36.729687 
L 498.829797 -36.729687 
L 498.610776 -36.729687 
L 498.391756 -36.729687 
L 498.172735 -36.729687 
L 497.953715 -36.729687 
L 497.734694 -36.729687 
L 497.515674 -36.729687 
L 497.296653 -36.729687 
L 497.077633 -36.729687 
L 496.858612 -36.729687 
L 496.639592 -36.729687 
L 496.420571 -36.729687 
L 496.201551 -36.729687 
L 495.98253 -36.729687 
L 495.76351 -36.729687 
L 495.544489 -36.729687 
L 495.325469 -36.729687 
L 495.106448 -36.729687 
L 494.887428 -36.729687 
L 494.668407 -36.729687 
L 494.449387 -36.729687 
L 494.230366 -36.729687 
L 494.011346 -36.729687 
L 493.792325 -36.729687 
L 493.573305 -36.729687 
L 493.354285 -36.729687 
L 493.135264 -36.729687 
L 492.916244 -36.729687 
L 492.697223 -36.729687 
L 492.478203 -36.729687 
L 492.259182 -36.729687 
L 492.040162 -36.729687 
L 491.821141 -36.729687 
L 491.602121 -36.729687 
L 491.3831 -36.729687 
L 491.16408 -36.729687 
L 490.945059 -36.729687 
L 490.726039 -36.729687 
L 490.507018 -36.729687 
L 490.287998 -36.729687 
L 490.068977 -36.729687 
L 489.849957 -36.729687 
L 489.630936 -36.729687 
L 489.411916 -36.729687 
L 489.192895 -36.729687 
L 488.973875 -36.729687 
L 488.754854 -36.729687 
L 488.535834 -36.729687 
L 488.316813 -36.729687 
L 488.097793 -36.729687 
L 487.878772 -36.729687 
L 487.659752 -36.729687 
L 487.440731 -36.729687 
L 487.221711 -36.729687 
L 487.00269 -36.729687 
L 486.78367 -36.729687 
L 486.564649 -36.729687 
L 486.345629 -36.729687 
L 486.126608 -36.729687 
L 485.907588 -36.729687 
L 485.688567 -36.729687 
L 485.469547 -36.729687 
L 485.250526 -36.729687 
L 485.031506 -36.729687 
L 484.812485 -36.729687 
L 484.593465 -36.729687 
L 484.374444 -36.729687 
L 484.155424 -36.729687 
L 483.936403 -36.729687 
L 483.717383 -36.729687 
L 483.498362 -36.729687 
L 483.279342 -36.729687 
L 483.060322 -36.729687 
L 482.841301 -36.729687 
L 482.622281 -36.729687 
L 482.40326 -36.729687 
L 482.18424 -36.729687 
L 481.965219 -36.729687 
L 481.746199 -36.729687 
L 481.527178 -36.729687 
L 481.308158 -36.729687 
L 481.089137 -36.729687 
L 480.870117 -36.729687 
L 480.651096 -36.729687 
L 480.432076 -36.729687 
L 480.213055 -36.729687 
L 479.994035 -36.729687 
L 479.775014 -36.729687 
L 479.555994 -36.729687 
L 479.336973 -36.729687 
L 479.117953 -36.729687 
L 478.898932 -36.729687 
L 478.679912 -36.729687 
L 478.460891 -36.729687 
L 478.241871 -36.729687 
L 478.02285 -36.729687 
L 477.80383 -36.729687 
L 477.584809 -36.729687 
L 477.365789 -36.729687 
L 477.146768 -36.729687 
L 476.927748 -36.729687 
L 476.708727 -36.729687 
L 476.489707 -36.729687 
L 476.270686 -36.729687 
L 476.051666 -36.729687 
L 475.832645 -36.729687 
L 475.613625 -36.729687 
L 475.394604 -36.729687 
L 475.175584 -36.729687 
L 474.956563 -36.729687 
L 474.737543 -36.729687 
L 474.518522 -36.729687 
L 474.299502 -36.729687 
L 474.080481 -36.729687 
L 473.861461 -36.729687 
L 473.64244 -36.729687 
L 473.42342 -36.729687 
L 473.204399 -36.729687 
L 472.985379 -36.729687 
L 472.766359 -36.729687 
L 472.547338 -36.729687 
L 472.328318 -36.729687 
L 472.109297 -36.729687 
L 471.890277 -36.729687 
L 471.671256 -36.729687 
L 471.452236 -36.729687 
L 471.233215 -36.729687 
L 471.014195 -36.729687 
L 470.795174 -36.729687 
L 470.576154 -36.729687 
L 470.357133 -36.729687 
L 470.138113 -36.729687 
L 469.919092 -36.729687 
L 469.700072 -36.729687 
L 469.481051 -36.729687 
L 469.262031 -36.729687 
L 469.04301 -36.729687 
L 468.82399 -36.729687 
L 468.604969 -36.729687 
L 468.385949 -36.729687 
L 468.166928 -36.729687 
L 467.947908 -36.729687 
L 467.728887 -36.729687 
L 467.509867 -36.729687 
L 467.290846 -36.729687 
L 467.071826 -36.729687 
L 466.852805 -36.729687 
L 466.633785 -36.729687 
L 466.414764 -36.729687 
L 466.195744 -36.729687 
L 465.976723 -36.729687 
L 465.757703 -36.729687 
L 465.538682 -36.729687 
L 465.319662 -36.729687 
L 465.100641 -36.729687 
L 464.881621 -36.729687 
L 464.6626 -36.729687 
L 464.44358 -36.729687 
L 464.224559 -36.729687 
L 464.005539 -36.729687 
L 463.786518 -36.729687 
L 463.567498 -36.729687 
L 463.348477 -36.729687 
L 463.129457 -36.729687 
L 462.910436 -36.729687 
L 462.691416 -36.729687 
L 462.472396 -36.729687 
L 462.253375 -36.729687 
L 462.034355 -36.729687 
L 461.815334 -36.729687 
L 461.596314 -36.729687 
L 461.377293 -36.729687 
L 461.158273 -36.729687 
L 460.939252 -36.729687 
L 460.720232 -36.729687 
L 460.501211 -36.729687 
L 460.282191 -36.729687 
L 460.06317 -36.729687 
L 459.84415 -36.729687 
L 459.625129 -36.729687 
L 459.406109 -36.729687 
L 459.187088 -36.729687 
L 458.968068 -36.729687 
L 458.749047 -36.729687 
L 458.530027 -36.729687 
L 458.311006 -36.729687 
L 458.091986 -36.729687 
L 457.872965 -36.729687 
L 457.653945 -36.729687 
L 457.434924 -36.729687 
L 457.215904 -36.729687 
L 456.996883 -36.729687 
L 456.777863 -36.729687 
L 456.558842 -36.729687 
L 456.339822 -36.729687 
L 456.120801 -36.729687 
L 455.901781 -36.729687 
L 455.68276 -36.729687 
L 455.46374 -36.729687 
L 455.244719 -36.729687 
L 455.025699 -36.729687 
L 454.806678 -36.729687 
L 454.587658 -36.729687 
L 454.368637 -36.729687 
L 454.149617 -36.729687 
L 453.930596 -36.729687 
L 453.711576 -36.729687 
L 453.492555 -36.729687 
L 453.273535 -36.729687 
L 453.054514 -36.729687 
L 452.835494 -36.729687 
L 452.616473 -36.729687 
L 452.397453 -36.729687 
L 452.178433 -36.729687 
L 451.959412 -36.729687 
L 451.740392 -36.729687 
L 451.521371 -36.729687 
L 451.302351 -36.729687 
L 451.08333 -36.729687 
L 450.86431 -36.729687 
L 450.645289 -36.729687 
L 450.426269 -36.729687 
L 450.207248 -36.729687 
L 449.988228 -36.729687 
L 449.769207 -36.729687 
L 449.550187 -36.729687 
L 449.331166 -36.729687 
L 449.112146 -36.729687 
L 448.893125 -36.729687 
L 448.674105 -36.729687 
L 448.455084 -36.729687 
L 448.236064 -36.729687 
L 448.017043 -36.729687 
L 447.798023 -36.729687 
L 447.579002 -36.729687 
L 447.359982 -36.729687 
L 447.140961 -36.729687 
L 446.921941 -36.729687 
L 446.70292 -36.729687 
L 446.4839 -36.729687 
L 446.264879 -36.729687 
L 446.045859 -36.729687 
L 445.826838 -36.729687 
L 445.607818 -36.729687 
L 445.388797 -36.729687 
L 445.169777 -36.729687 
L 444.950756 -36.729687 
L 444.731736 -36.729687 
L 444.512715 -36.729687 
L 444.293695 -36.729687 
L 444.074674 -36.729687 
L 443.855654 -36.729687 
L 443.636633 -36.729687 
L 443.417613 -36.729687 
L 443.198592 -36.729687 
L 442.979572 -36.729687 
L 442.760551 -36.729687 
L 442.541531 -36.729687 
L 442.322511 -36.729687 
L 442.10349 -36.729687 
L 441.88447 -36.729687 
L 441.665449 -36.729687 
L 441.446429 -36.729687 
L 441.227408 -36.729687 
L 441.008388 -36.729687 
L 440.789367 -36.729687 
L 440.570347 -36.729687 
L 440.351326 -36.729687 
L 440.132306 -36.729687 
L 439.913285 -36.729687 
L 439.694265 -36.729687 
L 439.475244 -36.729687 
L 439.256224 -36.729687 
L 439.037203 -36.729687 
L 438.818183 -36.729687 
L 438.599162 -36.729687 
L 438.380142 -36.729687 
L 438.161121 -36.729687 
L 437.942101 -36.729687 
L 437.72308 -36.729687 
L 437.50406 -36.729687 
L 437.285039 -36.729687 
L 437.066019 -36.729687 
L 436.846998 -36.729687 
L 436.627978 -36.729687 
L 436.408957 -36.729687 
L 436.189937 -36.729687 
L 435.970916 -36.729687 
L 435.751896 -36.729687 
L 435.532875 -36.729687 
L 435.313855 -36.729687 
L 435.094834 -36.729687 
L 434.875814 -36.729687 
L 434.656793 -36.729687 
L 434.437773 -36.729687 
L 434.218752 -36.729687 
L 433.999732 -36.729687 
L 433.780711 -36.729687 
L 433.561691 -36.729687 
L 433.34267 -36.729687 
L 433.12365 -36.729687 
L 432.904629 -36.729687 
L 432.685609 -36.729687 
L 432.466588 -36.729687 
L 432.247568 -36.729687 
L 432.028548 -36.729687 
L 431.809527 -36.729687 
L 431.590507 -36.729687 
L 431.371486 -36.729687 
L 431.152466 -36.729687 
L 430.933445 -36.729687 
L 430.714425 -36.729687 
L 430.495404 -36.729687 
L 430.276384 -36.729687 
L 430.057363 -36.729687 
L 429.838343 -36.729687 
L 429.619322 -36.729687 
L 429.400302 -36.729687 
L 429.181281 -36.729687 
L 428.962261 -36.729687 
L 428.74324 -36.729687 
L 428.52422 -36.729687 
L 428.305199 -36.729687 
L 428.086179 -36.729687 
L 427.867158 -36.729687 
L 427.648138 -36.729687 
L 427.429117 -36.729687 
L 427.210097 -36.729687 
L 426.991076 -36.729687 
L 426.772056 -36.729687 
L 426.553035 -36.729687 
L 426.334015 -36.729687 
L 426.114994 -36.729687 
L 425.895974 -36.729687 
L 425.676953 -36.729687 
L 425.457933 -36.729687 
L 425.238912 -36.729687 
L 425.019892 -36.729687 
L 424.800871 -36.729687 
L 424.581851 -36.729687 
L 424.36283 -36.729687 
L 424.14381 -36.729687 
L 423.924789 -36.729687 
L 423.705769 -36.729687 
L 423.486748 -36.729687 
L 423.267728 -36.729687 
L 423.048707 -36.729687 
L 422.829687 -36.729687 
L 422.610666 -36.729687 
L 422.391646 -36.729687 
L 422.172625 -36.729687 
L 421.953605 -36.729687 
L 421.734585 -36.729687 
L 421.515564 -36.729687 
L 421.296544 -36.729687 
L 421.077523 -36.729687 
L 420.858503 -36.729687 
L 420.639482 -36.729687 
L 420.420462 -36.729687 
L 420.201441 -36.729687 
L 419.982421 -36.729687 
L 419.7634 -36.729687 
L 419.54438 -36.729687 
L 419.325359 -36.729687 
L 419.106339 -36.729687 
L 418.887318 -36.729687 
L 418.668298 -36.729687 
L 418.449277 -36.729687 
L 418.230257 -36.729687 
L 418.011236 -36.729687 
L 417.792216 -36.729687 
L 417.573195 -36.729687 
L 417.354175 -36.729687 
L 417.135154 -36.729687 
L 416.916134 -36.729687 
L 416.697113 -36.729687 
L 416.478093 -36.729687 
L 416.259072 -36.729687 
L 416.040052 -36.729687 
L 415.821031 -36.729687 
L 415.602011 -36.729687 
L 415.38299 -36.729687 
L 415.16397 -36.729687 
L 414.944949 -36.729687 
L 414.725929 -36.729687 
L 414.506908 -36.729687 
L 414.287888 -36.729687 
L 414.068867 -36.729687 
L 413.849847 -36.729687 
L 413.630826 -36.729687 
L 413.411806 -36.729687 
L 413.192785 -36.729687 
L 412.973765 -36.729687 
L 412.754744 -36.729687 
L 412.535724 -36.729687 
L 412.316703 -36.729687 
L 412.097683 -36.729687 
L 411.878662 -36.729687 
L 411.659642 -36.729687 
L 411.440622 -36.729687 
L 411.221601 -36.729687 
L 411.002581 -36.729687 
L 410.78356 -36.729687 
L 410.56454 -36.729687 
L 410.345519 -36.729687 
L 410.126499 -36.729687 
L 409.907478 -36.729687 
L 409.688458 -36.729687 
L 409.469437 -36.729687 
L 409.250417 -36.729687 
L 409.031396 -36.729687 
L 408.812376 -36.729687 
L 408.593355 -36.729687 
L 408.374335 -36.729687 
L 408.155314 -36.729687 
L 407.936294 -36.729687 
L 407.717273 -36.729687 
L 407.498253 -36.729687 
L 407.279232 -36.729687 
L 407.060212 -36.729687 
L 406.841191 -36.729687 
L 406.622171 -36.729687 
L 406.40315 -36.729687 
L 406.18413 -36.729687 
L 405.965109 -36.729687 
L 405.746089 -36.729687 
L 405.527068 -36.729687 
L 405.308048 -36.729687 
L 405.089027 -36.729687 
L 404.870007 -36.729687 
L 404.650986 -36.729687 
L 404.431966 -36.729687 
L 404.212945 -36.729687 
L 403.993925 -36.729687 
L 403.774904 -36.729687 
L 403.555884 -36.729687 
L 403.336863 -36.729687 
L 403.117843 -36.729687 
L 402.898822 -36.729687 
L 402.679802 -36.729687 
L 402.460781 -36.729687 
L 402.241761 -36.729687 
L 402.02274 -36.729687 
L 401.80372 -36.729687 
L 401.5847 -36.729687 
L 401.365679 -36.729687 
L 401.146659 -36.729687 
L 400.927638 -36.729687 
L 400.708618 -36.729687 
L 400.489597 -36.729687 
L 400.270577 -36.729687 
L 400.051556 -36.729687 
L 399.832536 -36.729687 
L 399.613515 -36.729687 
L 399.394495 -36.729687 
L 399.175474 -36.729687 
L 398.956454 -36.729687 
L 398.737433 -36.729687 
L 398.518413 -36.729687 
L 398.299392 -36.729687 
L 398.080372 -36.729687 
L 397.861351 -36.729687 
L 397.642331 -36.729687 
L 397.42331 -36.729687 
L 397.20429 -36.729687 
L 396.985269 -36.729687 
L 396.766249 -36.729687 
L 396.547228 -36.729687 
L 396.328208 -36.729687 
L 396.109187 -36.729687 
L 395.890167 -36.729687 
L 395.671146 -36.729687 
L 395.452126 -36.729687 
L 395.233105 -36.729687 
L 395.014085 -36.729687 
L 394.795064 -36.729687 
L 394.576044 -36.729687 
L 394.357023 -36.729687 
L 394.138003 -36.729687 
L 393.918982 -36.729687 
L 393.699962 -36.729687 
L 393.480941 -36.729687 
L 393.261921 -36.729687 
L 393.0429 -36.729687 
L 392.82388 -36.729687 
L 392.604859 -36.729687 
L 392.385839 -36.729687 
L 392.166818 -36.729687 
L 391.947798 -36.729687 
L 391.728777 -36.729687 
L 391.509757 -36.729687 
L 391.290737 -36.729687 
L 391.071716 -36.729687 
L 390.852696 -36.729687 
L 390.633675 -36.729687 
L 390.414655 -36.729687 
L 390.195634 -36.729687 
L 389.976614 -36.729687 
L 389.757593 -36.729687 
L 389.538573 -36.729687 
L 389.319552 -36.729687 
L 389.100532 -36.729687 
L 388.881511 -36.729687 
L 388.662491 -36.729687 
L 388.44347 -36.729687 
L 388.22445 -36.729687 
L 388.005429 -36.729687 
L 387.786409 -36.729687 
L 387.567388 -36.729687 
L 387.348368 -36.729687 
L 387.129347 -36.729687 
L 386.910327 -36.729687 
L 386.691306 -36.729687 
L 386.472286 -36.729687 
L 386.253265 -36.729687 
L 386.034245 -36.729687 
L 385.815224 -36.729687 
L 385.596204 -36.729687 
L 385.377183 -36.729687 
L 385.158163 -36.729687 
L 384.939142 -36.729687 
L 384.720122 -36.729687 
L 384.501101 -36.729687 
L 384.282081 -36.729687 
L 384.06306 -36.729687 
L 383.84404 -36.729687 
L 383.625019 -36.729687 
L 383.405999 -36.729687 
L 383.186978 -36.729687 
L 382.967958 -36.729687 
L 382.748937 -36.729687 
L 382.529917 -36.729687 
L 382.310896 -36.729687 
L 382.091876 -36.729687 
L 381.872855 -36.729687 
L 381.653835 -36.729687 
L 381.434814 -36.729687 
L 381.215794 -36.729687 
L 380.996774 -36.729687 
L 380.777753 -36.729687 
L 380.558733 -36.729687 
L 380.339712 -36.729687 
L 380.120692 -36.729687 
L 379.901671 -36.729687 
L 379.682651 -36.729687 
L 379.46363 -36.729687 
L 379.24461 -36.729687 
L 379.025589 -36.729687 
L 378.806569 -36.729687 
L 378.587548 -36.729687 
L 378.368528 -36.729687 
L 378.149507 -36.729687 
L 377.930487 -36.729687 
L 377.711466 -36.729687 
L 377.492446 -36.729687 
L 377.273425 -36.729687 
L 377.054405 -36.729687 
L 376.835384 -36.729687 
L 376.616364 -36.729687 
L 376.397343 -36.729687 
L 376.178323 -36.729687 
L 375.959302 -36.729687 
L 375.740282 -36.729687 
L 375.521261 -36.729687 
L 375.302241 -36.729687 
L 375.08322 -36.729687 
L 374.8642 -36.729687 
L 374.645179 -36.729687 
L 374.426159 -36.729687 
L 374.207138 -36.729687 
L 373.988118 -36.729687 
L 373.769097 -36.729687 
L 373.550077 -36.729687 
L 373.331056 -36.729687 
L 373.112036 -36.729687 
L 372.893015 -36.729687 
L 372.673995 -36.729687 
L 372.454974 -36.729687 
L 372.235954 -36.729687 
L 372.016933 -36.729687 
L 371.797913 -36.729687 
L 371.578892 -36.729687 
L 371.359872 -36.729687 
L 371.140851 -36.729687 
L 370.921831 -36.729687 
L 370.702811 -36.729687 
L 370.48379 -36.729687 
L 370.26477 -36.729687 
L 370.045749 -36.729687 
L 369.826729 -36.729687 
L 369.607708 -36.729687 
L 369.388688 -36.729687 
L 369.169667 -36.729687 
L 368.950647 -36.729687 
L 368.731626 -36.729687 
L 368.512606 -36.729687 
L 368.293585 -36.729687 
L 368.074565 -36.729687 
L 367.855544 -36.729687 
L 367.636524 -36.729687 
L 367.417503 -36.729687 
L 367.198483 -36.729687 
L 366.979462 -36.729687 
L 366.760442 -36.729687 
L 366.541421 -36.729687 
L 366.322401 -36.729687 
L 366.10338 -36.729687 
L 365.88436 -36.729687 
L 365.665339 -36.729687 
L 365.446319 -36.729687 
L 365.227298 -36.729687 
L 365.008278 -36.729687 
L 364.789257 -36.729687 
L 364.570237 -36.729687 
L 364.351216 -36.729687 
L 364.132196 -36.729687 
L 363.913175 -36.729687 
L 363.694155 -36.729687 
L 363.475134 -36.729687 
L 363.256114 -36.729687 
L 363.037093 -36.729687 
L 362.818073 -36.729687 
L 362.599052 -36.729687 
L 362.380032 -36.729687 
L 362.161011 -36.729687 
L 361.941991 -36.729687 
L 361.72297 -36.729687 
L 361.50395 -36.729687 
L 361.284929 -36.729687 
L 361.065909 -36.729687 
L 360.846888 -36.729687 
L 360.627868 -36.729687 
L 360.408848 -36.729687 
L 360.189827 -36.729687 
L 359.970807 -36.729687 
L 359.751786 -36.729687 
L 359.532766 -36.729687 
L 359.313745 -36.729687 
L 359.094725 -36.729687 
L 358.875704 -36.729687 
L 358.656684 -36.729687 
L 358.437663 -36.729687 
L 358.218643 -36.729687 
L 357.999622 -36.729687 
L 357.780602 -36.729687 
L 357.561581 -36.729687 
L 357.342561 -36.729687 
L 357.12354 -36.729687 
L 356.90452 -36.729687 
L 356.685499 -36.729687 
L 356.466479 -36.729687 
L 356.247458 -36.729687 
L 356.028438 -36.729687 
L 355.809417 -36.729687 
L 355.590397 -36.729687 
L 355.371376 -36.729687 
L 355.152356 -36.729687 
L 354.933335 -36.729687 
L 354.714315 -36.729687 
L 354.495294 -36.729687 
L 354.276274 -36.729687 
L 354.057253 -36.729687 
L 353.838233 -36.729687 
L 353.619212 -36.729687 
L 353.400192 -36.729687 
L 353.181171 -36.729687 
L 352.962151 -36.729687 
L 352.74313 -36.729687 
L 352.52411 -36.729687 
L 352.305089 -36.729687 
L 352.086069 -36.729687 
L 351.867048 -36.729687 
L 351.648028 -36.729687 
L 351.429007 -36.729687 
L 351.209987 -36.729687 
L 350.990966 -36.729687 
L 350.771946 -36.729687 
L 350.552926 -36.729687 
L 350.333905 -36.729687 
L 350.114885 -36.729687 
L 349.895864 -36.729687 
L 349.676844 -36.729687 
L 349.457823 -36.729687 
L 349.238803 -36.729687 
L 349.019782 -36.729687 
L 348.800762 -36.729687 
L 348.581741 -36.729687 
L 348.362721 -36.729687 
L 348.1437 -36.729687 
L 347.92468 -36.729687 
L 347.705659 -36.729687 
L 347.486639 -36.729687 
L 347.267618 -36.729687 
L 347.048598 -36.729687 
L 346.829577 -36.729687 
L 346.610557 -36.729687 
L 346.391536 -36.729687 
L 346.172516 -36.729687 
L 345.953495 -36.729687 
L 345.734475 -36.729687 
L 345.515454 -36.729687 
L 345.296434 -36.729687 
L 345.077413 -36.729687 
L 344.858393 -36.729687 
L 344.639372 -36.729687 
L 344.420352 -36.729687 
L 344.201331 -36.729687 
L 343.982311 -36.729687 
L 343.76329 -36.729687 
L 343.54427 -36.729687 
L 343.325249 -36.729687 
L 343.106229 -36.729687 
L 342.887208 -36.729687 
L 342.668188 -36.729687 
L 342.449167 -36.729687 
L 342.230147 -36.729687 
L 342.011126 -36.729687 
L 341.792106 -36.729687 
L 341.573085 -36.729687 
L 341.354065 -36.729687 
L 341.135044 -36.729687 
L 340.916024 -36.729687 
L 340.697003 -36.729687 
L 340.477983 -36.729687 
L 340.258963 -36.729687 
z
" style="stroke: #4c72b0; stroke-opacity: 0.2"/>
    </defs>
    <g>
     <use xlink:href="#m12da54cf0f" x="0" y="165.897687" style="fill: #4c72b0; fill-opacity: 0.2; stroke: #4c72b0; stroke-opacity: 0.2"/>
    </g>
   </g>
   <g id="FillBetweenPolyCollection_2"/>
   <g id="FillBetweenPolyCollection_3">
    <defs>
     <path id="mf0e0afee13" d="M 340.258963 -36.745892 
L 340.258963 -36.745892 
L 340.477983 -36.747291 
L 340.697003 -36.748799 
L 340.916024 -36.750425 
L 341.135044 -36.752175 
L 341.354065 -36.754059 
L 341.573085 -36.756085 
L 341.792106 -36.758263 
L 342.011126 -36.760602 
L 342.230147 -36.763113 
L 342.449167 -36.765807 
L 342.668188 -36.768696 
L 342.887208 -36.771791 
L 343.106229 -36.775105 
L 343.325249 -36.778651 
L 343.54427 -36.782444 
L 343.76329 -36.786497 
L 343.982311 -36.790827 
L 344.201331 -36.795449 
L 344.420352 -36.800379 
L 344.639372 -36.805636 
L 344.858393 -36.811236 
L 345.077413 -36.8172 
L 345.296434 -36.823546 
L 345.515454 -36.830294 
L 345.734475 -36.837466 
L 345.953495 -36.845084 
L 346.172516 -36.85317 
L 346.391536 -36.861749 
L 346.610557 -36.870843 
L 346.829577 -36.880478 
L 347.048598 -36.890681 
L 347.267618 -36.901477 
L 347.486639 -36.912895 
L 347.705659 -36.924962 
L 347.92468 -36.937709 
L 348.1437 -36.951164 
L 348.362721 -36.965358 
L 348.581741 -36.980323 
L 348.800762 -36.996092 
L 349.019782 -37.012696 
L 349.238803 -37.030171 
L 349.457823 -37.048549 
L 349.676844 -37.067867 
L 349.895864 -37.08816 
L 350.114885 -37.109464 
L 350.333905 -37.131816 
L 350.552926 -37.155253 
L 350.771946 -37.179814 
L 350.990966 -37.205537 
L 351.209987 -37.232461 
L 351.429007 -37.260624 
L 351.648028 -37.290067 
L 351.867048 -37.320829 
L 352.086069 -37.352951 
L 352.305089 -37.386472 
L 352.52411 -37.421432 
L 352.74313 -37.457872 
L 352.962151 -37.495833 
L 353.181171 -37.535355 
L 353.400192 -37.576477 
L 353.619212 -37.619239 
L 353.838233 -37.663682 
L 354.057253 -37.709845 
L 354.276274 -37.757765 
L 354.495294 -37.807482 
L 354.714315 -37.859033 
L 354.933335 -37.912456 
L 355.152356 -37.967786 
L 355.371376 -38.02506 
L 355.590397 -38.084311 
L 355.809417 -38.145574 
L 356.028438 -38.208882 
L 356.247458 -38.274266 
L 356.466479 -38.341757 
L 356.685499 -38.411384 
L 356.90452 -38.483174 
L 357.12354 -38.557156 
L 357.342561 -38.633353 
L 357.561581 -38.711789 
L 357.780602 -38.792487 
L 357.999622 -38.875468 
L 358.218643 -38.960749 
L 358.437663 -39.04835 
L 358.656684 -39.138284 
L 358.875704 -39.230565 
L 359.094725 -39.325206 
L 359.313745 -39.422217 
L 359.532766 -39.521606 
L 359.751786 -39.623379 
L 359.970807 -39.72754 
L 360.189827 -39.834091 
L 360.408848 -39.943035 
L 360.627868 -40.054368 
L 360.846888 -40.168087 
L 361.065909 -40.284188 
L 361.284929 -40.402662 
L 361.50395 -40.523501 
L 361.72297 -40.646694 
L 361.941991 -40.772227 
L 362.161011 -40.900086 
L 362.380032 -41.030255 
L 362.599052 -41.162714 
L 362.818073 -41.297445 
L 363.037093 -41.434425 
L 363.256114 -41.573631 
L 363.475134 -41.715039 
L 363.694155 -41.858622 
L 363.913175 -42.004353 
L 364.132196 -42.152203 
L 364.351216 -42.302141 
L 364.570237 -42.454136 
L 364.789257 -42.608157 
L 365.008278 -42.764169 
L 365.227298 -42.922138 
L 365.446319 -43.082029 
L 365.665339 -43.243807 
L 365.88436 -43.407434 
L 366.10338 -43.572875 
L 366.322401 -43.74009 
L 366.541421 -43.909043 
L 366.760442 -44.079696 
L 366.979462 -44.252011 
L 367.198483 -44.425948 
L 367.417503 -44.601471 
L 367.636524 -44.77854 
L 367.855544 -44.957119 
L 368.074565 -45.13717 
L 368.293585 -45.318655 
L 368.512606 -45.501538 
L 368.731626 -45.685784 
L 368.950647 -45.871357 
L 369.169667 -46.058221 
L 369.388688 -46.246345 
L 369.607708 -46.435694 
L 369.826729 -46.626237 
L 370.045749 -46.817943 
L 370.26477 -47.010782 
L 370.48379 -47.204726 
L 370.702811 -47.399747 
L 370.921831 -47.59582 
L 371.140851 -47.792918 
L 371.359872 -47.991019 
L 371.578892 -48.190101 
L 371.797913 -48.390142 
L 372.016933 -48.591124 
L 372.235954 -48.793028 
L 372.454974 -48.995838 
L 372.673995 -49.199538 
L 372.893015 -49.404117 
L 373.112036 -49.609561 
L 373.331056 -49.815859 
L 373.550077 -50.023003 
L 373.769097 -50.230986 
L 373.988118 -50.4398 
L 374.207138 -50.649441 
L 374.426159 -50.859907 
L 374.645179 -51.071194 
L 374.8642 -51.283302 
L 375.08322 -51.496232 
L 375.302241 -51.709987 
L 375.521261 -51.924568 
L 375.740282 -52.139981 
L 375.959302 -52.356232 
L 376.178323 -52.573326 
L 376.397343 -52.791273 
L 376.616364 -53.010081 
L 376.835384 -53.229759 
L 377.054405 -53.450319 
L 377.273425 -53.671772 
L 377.492446 -53.894131 
L 377.711466 -54.117409 
L 377.930487 -54.34162 
L 378.149507 -54.566779 
L 378.368528 -54.792901 
L 378.587548 -55.020002 
L 378.806569 -55.248098 
L 379.025589 -55.477207 
L 379.24461 -55.707346 
L 379.46363 -55.938531 
L 379.682651 -56.170782 
L 379.901671 -56.404115 
L 380.120692 -56.638551 
L 380.339712 -56.874106 
L 380.558733 -57.1108 
L 380.777753 -57.348652 
L 380.996774 -57.587679 
L 381.215794 -57.827901 
L 381.434814 -58.069337 
L 381.653835 -58.312004 
L 381.872855 -58.555922 
L 382.091876 -58.801108 
L 382.310896 -59.047581 
L 382.529917 -59.295357 
L 382.748937 -59.544456 
L 382.967958 -59.794893 
L 383.186978 -60.046685 
L 383.405999 -60.29985 
L 383.625019 -60.554403 
L 383.84404 -60.81036 
L 384.06306 -61.067736 
L 384.282081 -61.326546 
L 384.501101 -61.586805 
L 384.720122 -61.848526 
L 384.939142 -62.111723 
L 385.158163 -62.376409 
L 385.377183 -62.642597 
L 385.596204 -62.910298 
L 385.815224 -63.179523 
L 386.034245 -63.450285 
L 386.253265 -63.722593 
L 386.472286 -63.996456 
L 386.691306 -64.271886 
L 386.910327 -64.548889 
L 387.129347 -64.827475 
L 387.348368 -65.107652 
L 387.567388 -65.389425 
L 387.786409 -65.672803 
L 388.005429 -65.957792 
L 388.22445 -66.244396 
L 388.44347 -66.532621 
L 388.662491 -66.822472 
L 388.881511 -67.113952 
L 389.100532 -67.407065 
L 389.319552 -67.701815 
L 389.538573 -67.998204 
L 389.757593 -68.296233 
L 389.976614 -68.595904 
L 390.195634 -68.897219 
L 390.414655 -69.200178 
L 390.633675 -69.504781 
L 390.852696 -69.811028 
L 391.071716 -70.118918 
L 391.290737 -70.42845 
L 391.509757 -70.739622 
L 391.728777 -71.052432 
L 391.947798 -71.366878 
L 392.166818 -71.682957 
L 392.385839 -72.000665 
L 392.604859 -72.319998 
L 392.82388 -72.640953 
L 393.0429 -72.963525 
L 393.261921 -73.287709 
L 393.480941 -73.613499 
L 393.699962 -73.940891 
L 393.918982 -74.269877 
L 394.138003 -74.600453 
L 394.357023 -74.93261 
L 394.576044 -75.266342 
L 394.795064 -75.601641 
L 395.014085 -75.9385 
L 395.233105 -76.276911 
L 395.452126 -76.616864 
L 395.671146 -76.958352 
L 395.890167 -77.301365 
L 396.109187 -77.645894 
L 396.328208 -77.991928 
L 396.547228 -78.339459 
L 396.766249 -78.688476 
L 396.985269 -79.038967 
L 397.20429 -79.390922 
L 397.42331 -79.744331 
L 397.642331 -80.09918 
L 397.861351 -80.455459 
L 398.080372 -80.813155 
L 398.299392 -81.172257 
L 398.518413 -81.53275 
L 398.737433 -81.894623 
L 398.956454 -82.257861 
L 399.175474 -82.622452 
L 399.394495 -82.988382 
L 399.613515 -83.355636 
L 399.832536 -83.724201 
L 400.051556 -84.094061 
L 400.270577 -84.465201 
L 400.489597 -84.837607 
L 400.708618 -85.211264 
L 400.927638 -85.586154 
L 401.146659 -85.962263 
L 401.365679 -86.339574 
L 401.5847 -86.718071 
L 401.80372 -87.097737 
L 402.02274 -87.478554 
L 402.241761 -87.860506 
L 402.460781 -88.243576 
L 402.679802 -88.627744 
L 402.898822 -89.012995 
L 403.117843 -89.399308 
L 403.336863 -89.786665 
L 403.555884 -90.175049 
L 403.774904 -90.564439 
L 403.993925 -90.954817 
L 404.212945 -91.346162 
L 404.431966 -91.738456 
L 404.650986 -92.131678 
L 404.870007 -92.525808 
L 405.089027 -92.920825 
L 405.308048 -93.316709 
L 405.527068 -93.713439 
L 405.746089 -94.110993 
L 405.965109 -94.50935 
L 406.18413 -94.908489 
L 406.40315 -95.308387 
L 406.622171 -95.709023 
L 406.841191 -96.110373 
L 407.060212 -96.512416 
L 407.279232 -96.915129 
L 407.498253 -97.318488 
L 407.498253 -97.318488 
L 407.498253 -36.729687 
L 407.279232 -36.729687 
L 407.060212 -36.729687 
L 406.841191 -36.729687 
L 406.622171 -36.729687 
L 406.40315 -36.729687 
L 406.18413 -36.729687 
L 405.965109 -36.729687 
L 405.746089 -36.729687 
L 405.527068 -36.729687 
L 405.308048 -36.729687 
L 405.089027 -36.729687 
L 404.870007 -36.729687 
L 404.650986 -36.729687 
L 404.431966 -36.729687 
L 404.212945 -36.729687 
L 403.993925 -36.729687 
L 403.774904 -36.729687 
L 403.555884 -36.729687 
L 403.336863 -36.729687 
L 403.117843 -36.729687 
L 402.898822 -36.729687 
L 402.679802 -36.729687 
L 402.460781 -36.729687 
L 402.241761 -36.729687 
L 402.02274 -36.729687 
L 401.80372 -36.729687 
L 401.5847 -36.729687 
L 401.365679 -36.729687 
L 401.146659 -36.729687 
L 400.927638 -36.729687 
L 400.708618 -36.729687 
L 400.489597 -36.729687 
L 400.270577 -36.729687 
L 400.051556 -36.729687 
L 399.832536 -36.729687 
L 399.613515 -36.729687 
L 399.394495 -36.729687 
L 399.175474 -36.729687 
L 398.956454 -36.729687 
L 398.737433 -36.729687 
L 398.518413 -36.729687 
L 398.299392 -36.729687 
L 398.080372 -36.729687 
L 397.861351 -36.729687 
L 397.642331 -36.729687 
L 397.42331 -36.729687 
L 397.20429 -36.729687 
L 396.985269 -36.729687 
L 396.766249 -36.729687 
L 396.547228 -36.729687 
L 396.328208 -36.729687 
L 396.109187 -36.729687 
L 395.890167 -36.729687 
L 395.671146 -36.729687 
L 395.452126 -36.729687 
L 395.233105 -36.729687 
L 395.014085 -36.729687 
L 394.795064 -36.729687 
L 394.576044 -36.729687 
L 394.357023 -36.729687 
L 394.138003 -36.729687 
L 393.918982 -36.729687 
L 393.699962 -36.729687 
L 393.480941 -36.729687 
L 393.261921 -36.729687 
L 393.0429 -36.729687 
L 392.82388 -36.729687 
L 392.604859 -36.729687 
L 392.385839 -36.729687 
L 392.166818 -36.729687 
L 391.947798 -36.729687 
L 391.728777 -36.729687 
L 391.509757 -36.729687 
L 391.290737 -36.729687 
L 391.071716 -36.729687 
L 390.852696 -36.729687 
L 390.633675 -36.729687 
L 390.414655 -36.729687 
L 390.195634 -36.729687 
L 389.976614 -36.729687 
L 389.757593 -36.729687 
L 389.538573 -36.729687 
L 389.319552 -36.729687 
L 389.100532 -36.729687 
L 388.881511 -36.729687 
L 388.662491 -36.729687 
L 388.44347 -36.729687 
L 388.22445 -36.729687 
L 388.005429 -36.729687 
L 387.786409 -36.729687 
L 387.567388 -36.729687 
L 387.348368 -36.729687 
L 387.129347 -36.729687 
L 386.910327 -36.729687 
L 386.691306 -36.729687 
L 386.472286 -36.729687 
L 386.253265 -36.729687 
L 386.034245 -36.729687 
L 385.815224 -36.729687 
L 385.596204 -36.729687 
L 385.377183 -36.729687 
L 385.158163 -36.729687 
L 384.939142 -36.729687 
L 384.720122 -36.729687 
L 384.501101 -36.729687 
L 384.282081 -36.729687 
L 384.06306 -36.729687 
L 383.84404 -36.729687 
L 383.625019 -36.729687 
L 383.405999 -36.729687 
L 383.186978 -36.729687 
L 382.967958 -36.729687 
L 382.748937 -36.729687 
L 382.529917 -36.729687 
L 382.310896 -36.729687 
L 382.091876 -36.729687 
L 381.872855 -36.729687 
L 381.653835 -36.729687 
L 381.434814 -36.729687 
L 381.215794 -36.729687 
L 380.996774 -36.729687 
L 380.777753 -36.729687 
L 380.558733 -36.729687 
L 380.339712 -36.729687 
L 380.120692 -36.729687 
L 379.901671 -36.729687 
L 379.682651 -36.729687 
L 379.46363 -36.729687 
L 379.24461 -36.729687 
L 379.025589 -36.729687 
L 378.806569 -36.729687 
L 378.587548 -36.729687 
L 378.368528 -36.729687 
L 378.149507 -36.729687 
L 377.930487 -36.729687 
L 377.711466 -36.729687 
L 377.492446 -36.729687 
L 377.273425 -36.729687 
L 377.054405 -36.729687 
L 376.835384 -36.729687 
L 376.616364 -36.729687 
L 376.397343 -36.729687 
L 376.178323 -36.729687 
L 375.959302 -36.729687 
L 375.740282 -36.729687 
L 375.521261 -36.729687 
L 375.302241 -36.729687 
L 375.08322 -36.729687 
L 374.8642 -36.729687 
L 374.645179 -36.729687 
L 374.426159 -36.729687 
L 374.207138 -36.729687 
L 373.988118 -36.729687 
L 373.769097 -36.729687 
L 373.550077 -36.729687 
L 373.331056 -36.729687 
L 373.112036 -36.729687 
L 372.893015 -36.729687 
L 372.673995 -36.729687 
L 372.454974 -36.729687 
L 372.235954 -36.729687 
L 372.016933 -36.729687 
L 371.797913 -36.729687 
L 371.578892 -36.729687 
L 371.359872 -36.729687 
L 371.140851 -36.729687 
L 370.921831 -36.729687 
L 370.702811 -36.729687 
L 370.48379 -36.729687 
L 370.26477 -36.729687 
L 370.045749 -36.729687 
L 369.826729 -36.729687 
L 369.607708 -36.729687 
L 369.388688 -36.729687 
L 369.169667 -36.729687 
L 368.950647 -36.729687 
L 368.731626 -36.729687 
L 368.512606 -36.729687 
L 368.293585 -36.729687 
L 368.074565 -36.729687 
L 367.855544 -36.729687 
L 367.636524 -36.729687 
L 367.417503 -36.729687 
L 367.198483 -36.729687 
L 366.979462 -36.729687 
L 366.760442 -36.729687 
L 366.541421 -36.729687 
L 366.322401 -36.729687 
L 366.10338 -36.729687 
L 365.88436 -36.729687 
L 365.665339 -36.729687 
L 365.446319 -36.729687 
L 365.227298 -36.729687 
L 365.008278 -36.729687 
L 364.789257 -36.729687 
L 364.570237 -36.729687 
L 364.351216 -36.729687 
L 364.132196 -36.729687 
L 363.913175 -36.729687 
L 363.694155 -36.729687 
L 363.475134 -36.729687 
L 363.256114 -36.729687 
L 363.037093 -36.729687 
L 362.818073 -36.729687 
L 362.599052 -36.729687 
L 362.380032 -36.729687 
L 362.161011 -36.729687 
L 361.941991 -36.729687 
L 361.72297 -36.729687 
L 361.50395 -36.729687 
L 361.284929 -36.729687 
L 361.065909 -36.729687 
L 360.846888 -36.729687 
L 360.627868 -36.729687 
L 360.408848 -36.729687 
L 360.189827 -36.729687 
L 359.970807 -36.729687 
L 359.751786 -36.729687 
L 359.532766 -36.729687 
L 359.313745 -36.729687 
L 359.094725 -36.729687 
L 358.875704 -36.729687 
L 358.656684 -36.729687 
L 358.437663 -36.729687 
L 358.218643 -36.729687 
L 357.999622 -36.729687 
L 357.780602 -36.729687 
L 357.561581 -36.729687 
L 357.342561 -36.729687 
L 357.12354 -36.729687 
L 356.90452 -36.729687 
L 356.685499 -36.729687 
L 356.466479 -36.729687 
L 356.247458 -36.729687 
L 356.028438 -36.729687 
L 355.809417 -36.729687 
L 355.590397 -36.729687 
L 355.371376 -36.729687 
L 355.152356 -36.729687 
L 354.933335 -36.729687 
L 354.714315 -36.729687 
L 354.495294 -36.729687 
L 354.276274 -36.729687 
L 354.057253 -36.729687 
L 353.838233 -36.729687 
L 353.619212 -36.729687 
L 353.400192 -36.729687 
L 353.181171 -36.729687 
L 352.962151 -36.729687 
L 352.74313 -36.729687 
L 352.52411 -36.729687 
L 352.305089 -36.729687 
L 352.086069 -36.729687 
L 351.867048 -36.729687 
L 351.648028 -36.729687 
L 351.429007 -36.729687 
L 351.209987 -36.729687 
L 350.990966 -36.729687 
L 350.771946 -36.729687 
L 350.552926 -36.729687 
L 350.333905 -36.729687 
L 350.114885 -36.729687 
L 349.895864 -36.729687 
L 349.676844 -36.729687 
L 349.457823 -36.729687 
L 349.238803 -36.729687 
L 349.019782 -36.729687 
L 348.800762 -36.729687 
L 348.581741 -36.729687 
L 348.362721 -36.729687 
L 348.1437 -36.729687 
L 347.92468 -36.729687 
L 347.705659 -36.729687 
L 347.486639 -36.729687 
L 347.267618 -36.729687 
L 347.048598 -36.729687 
L 346.829577 -36.729687 
L 346.610557 -36.729687 
L 346.391536 -36.729687 
L 346.172516 -36.729687 
L 345.953495 -36.729687 
L 345.734475 -36.729687 
L 345.515454 -36.729687 
L 345.296434 -36.729687 
L 345.077413 -36.729687 
L 344.858393 -36.729687 
L 344.639372 -36.729687 
L 344.420352 -36.729687 
L 344.201331 -36.729687 
L 343.982311 -36.729687 
L 343.76329 -36.729687 
L 343.54427 -36.729687 
L 343.325249 -36.729687 
L 343.106229 -36.729687 
L 342.887208 -36.729687 
L 342.668188 -36.729687 
L 342.449167 -36.729687 
L 342.230147 -36.729687 
L 342.011126 -36.729687 
L 341.792106 -36.729687 
L 341.573085 -36.729687 
L 341.354065 -36.729687 
L 341.135044 -36.729687 
L 340.916024 -36.729687 
L 340.697003 -36.729687 
L 340.477983 -36.729687 
L 340.258963 -36.729687 
z
" style="stroke: #4c72b0; stroke-opacity: 0.3"/>
    </defs>
    <g>
     <use xlink:href="#mf0e0afee13" x="0" y="165.897687" style="fill: #4c72b0; fill-opacity: 0.3; stroke: #4c72b0; stroke-opacity: 0.3"/>
    </g>
   </g>
   <g id="line2d_38">
    <path d="M 340.258963 129.151795 
L 347.267618 128.99621 
L 350.990966 128.69215 
L 353.838233 128.234005 
L 356.247458 127.623421 
L 358.437663 126.849338 
L 360.627868 125.84332 
L 362.818073 124.600243 
L 365.227298 122.97555 
L 368.074565 120.760518 
L 371.359872 117.906668 
L 375.302241 114.187701 
L 379.46363 109.959156 
L 383.186978 105.851002 
L 386.472286 101.901231 
L 389.757593 97.601455 
L 393.0429 92.934163 
L 396.547228 87.558228 
L 400.270577 81.432486 
L 404.650986 73.76601 
L 410.126499 63.697138 
L 421.515564 42.622171 
L 425.457933 35.870658 
L 428.74324 30.678524 
L 431.590507 26.584158 
L 434.218752 23.197265 
L 436.627978 20.464399 
L 438.818183 18.316484 
L 440.789367 16.675557 
L 442.760551 15.325222 
L 444.512715 14.377811 
L 446.264879 13.674846 
L 448.017043 13.220898 
L 449.769207 13.018929 
L 451.521371 13.07026 
L 453.273535 13.374556 
L 455.025699 13.929827 
L 456.777863 14.732455 
L 458.530027 15.77723 
L 460.501211 17.233588 
L 462.472396 18.976026 
L 464.6626 21.230509 
L 466.852805 23.798794 
L 469.262031 26.956743 
L 471.890277 30.75813 
L 474.956563 35.597296 
L 478.460891 41.557042 
L 483.060322 49.864616 
L 499.486858 80.026196 
L 503.429227 86.592338 
L 507.152575 92.365889 
L 510.656903 97.384649 
L 514.161231 101.997581 
L 517.665559 106.236606 
L 521.607928 110.638617 
L 525.988337 115.185927 
L 529.930706 118.983809 
L 532.996993 121.660877 
L 535.625239 123.674557 
L 538.034464 125.234321 
L 540.224669 126.389002 
L 542.414874 127.291357 
L 544.605079 127.960008 
L 547.014304 128.465997 
L 549.861571 128.827528 
L 553.584919 129.053087 
L 559.060431 129.150764 
L 559.060431 129.150764 
" style="fill: none; stroke: #4c72b0; stroke-width: 1.5; stroke-linecap: round"/>
   </g>
   <g id="line2d_39">
    <path d="M 7.2 129.168 
L 648.9 129.168 
" style="fill: none; stroke: #808080; stroke-width: 0.5; stroke-linecap: round"/>
   </g>
   <g id="text_12">
    <text style="font-size: 10px; font-family: 'Arial', 'DejaVu Sans', 'Liberation Sans', 'Bitstream Vera Sans', sans-serif; text-anchor: middle" x="450.24464" y="127.063312" transform="rotate(-0 450.24464 127.063312)">Sweden (2026)</text>
   </g>
  </g>
 </g>
</svg>
