<?xml version="1.0" encoding="utf-8" standalone="no"?>
<!DOCTYPE svg PUBLIC "-//W3C//DTD SVG 1.1//EN"
  "http://www.w3.org/Graphics/SVG/1.1/DTD/svg11.dtd">
<svg xmlns:xlink="http://www.w3.org/1999/xlink" width="656.114914pt" height="183.151437pt" viewBox="0 0 656.114914 183.151437" xmlns="http://www.w3.org/2000/svg" version="1.1">
 <metadata>
  <rdf:RDF xmlns:dc="http://purl.org/dc/elements/1.1/" xmlns:cc="http://creativecommons.org/ns#" xmlns:rdf="http://www.w3.org/1999/02/22-rdf-syntax-ns#">
   <cc:Work>
    <dc:type rdf:resource="http://purl.org/dc/dcmitype/StillImage"/>
    <dc:date>2026-05-27T14:29:04.823931</dc:date>
    <dc:format>image/svg+xml</dc:format>
    <dc:creator>
     <cc:Agent>
      <dc:title>Matplotlib v3.10.9, https://matplotlib.org/</dc:title>
     </cc:Agent>
    </dc:creator>
   </cc:Work>
  </rdf:RDF>
 </metadata>
 <defs>
  <style type="text/css">*{stroke-linejoin: round; stroke-linecap: butt}</style>
 </defs>
 <g id="figure_1">
  <g id="patch_1">
   <path d="M 0 183.151437 
L 656.114914 183.151437 
L 656.114914 0 
L 0 0 
z
" style="fill: #ffffff"/>
  </g>
  <g id="axes_1">
   <g id="patch_2">
    <path d="M 7.2 146.42175 
L 648.9 146.42175 
L 648.9 24.45375 
L 7.2 24.45375 
z
" style="fill: #ffffff"/>
   </g>
   <g id="matplotlib.axis_1">
    <g id="xtick_1">
     <g id="line2d_1">
      <defs>
       <path id="m7c214dac12" d="M 0 0 
L 0 3.5 
" style="stroke: #262626; stroke-width: 0.8"/>
      </defs>
      <g>
       <use xlink:href="#m7c214dac12" x="159.511507" y="146.42175" style="fill: #262626; stroke: #262626; stroke-width: 0.8"/>
      </g>
     </g>
     <g id="text_1">
      <text style="font-size: 10px; font-family: 'Arial', 'DejaVu Sans', 'Liberation Sans', 'Bitstream Vera Sans', sans-serif; text-anchor: middle; fill: #262626" x="159.511507" y="160.579562" transform="rotate(-0 159.511507 160.579562)">$10</text>
     </g>
    </g>
    <g id="xtick_2">
     <g id="line2d_2">
      <g>
       <use xlink:href="#m7c214dac12" x="210.343995" y="146.42175" style="fill: #262626; stroke: #262626; stroke-width: 0.8"/>
      </g>
     </g>
     <g id="text_2">
      <text style="font-size: 10px; font-family: 'Arial', 'DejaVu Sans', 'Liberation Sans', 'Bitstream Vera Sans', sans-serif; text-anchor: middle; fill: #262626" x="210.343995" y="160.579562" transform="rotate(-0 210.343995 160.579562)">$20</text>
     </g>
    </g>
    <g id="xtick_3">
     <g id="line2d_3">
      <g>
       <use xlink:href="#m7c214dac12" x="277.54089" y="146.42175" style="fill: #262626; stroke: #262626; stroke-width: 0.8"/>
      </g>
     </g>
     <g id="text_3">
      <text style="font-size: 10px; font-family: 'Arial', 'DejaVu Sans', 'Liberation Sans', 'Bitstream Vera Sans', sans-serif; text-anchor: middle; fill: #262626" x="277.54089" y="160.579562" transform="rotate(-0 277.54089 160.579562)">$50</text>
     </g>
    </g>
    <g id="xtick_4">
     <g id="line2d_4">
      <g>
       <use xlink:href="#m7c214dac12" x="328.373379" y="146.42175" style="fill: #262626; stroke: #262626; stroke-width: 0.8"/>
      </g>
     </g>
     <g id="text_4">
      <text style="font-size: 10px; font-family: 'Arial', 'DejaVu Sans', 'Liberation Sans', 'Bitstream Vera Sans', sans-serif; text-anchor: middle; fill: #262626" x="328.373379" y="160.579562" transform="rotate(-0 328.373379 160.579562)">$100</text>
     </g>
    </g>
    <g id="xtick_5">
     <g id="line2d_5">
      <g>
       <use xlink:href="#m7c214dac12" x="379.205868" y="146.42175" style="fill: #262626; stroke: #262626; stroke-width: 0.8"/>
      </g>
     </g>
     <g id="text_5">
      <text style="font-size: 10px; font-family: 'Arial', 'DejaVu Sans', 'Liberation Sans', 'Bitstream Vera Sans', sans-serif; text-anchor: middle; fill: #262626" x="379.205868" y="160.579562" transform="rotate(-0 379.205868 160.579562)">$200</text>
     </g>
    </g>
    <g id="xtick_6">
     <g id="line2d_6">
      <g>
       <use xlink:href="#m7c214dac12" x="446.402762" y="146.42175" style="fill: #262626; stroke: #262626; stroke-width: 0.8"/>
      </g>
     </g>
     <g id="text_6">
      <text style="font-size: 10px; font-family: 'Arial', 'DejaVu Sans', 'Liberation Sans', 'Bitstream Vera Sans', sans-serif; text-anchor: middle; fill: #262626" x="446.402762" y="160.579562" transform="rotate(-0 446.402762 160.579562)">$500</text>
     </g>
    </g>
    <g id="xtick_7">
     <g id="line2d_7">
      <g>
       <use xlink:href="#m7c214dac12" x="497.235251" y="146.42175" style="fill: #262626; stroke: #262626; stroke-width: 0.8"/>
      </g>
     </g>
     <g id="text_7">
      <text style="font-size: 10px; font-family: 'Arial', 'DejaVu Sans', 'Liberation Sans', 'Bitstream Vera Sans', sans-serif; text-anchor: middle; fill: #262626" x="497.235251" y="160.579562" transform="rotate(-0 497.235251 160.579562)">$1000</text>
     </g>
    </g>
    <g id="xtick_8">
     <g id="line2d_8">
      <g>
       <use xlink:href="#m7c214dac12" x="548.06774" y="146.42175" style="fill: #262626; stroke: #262626; stroke-width: 0.8"/>
      </g>
     </g>
     <g id="text_8">
      <text style="font-size: 10px; font-family: 'Arial', 'DejaVu Sans', 'Liberation Sans', 'Bitstream Vera Sans', sans-serif; text-anchor: middle; fill: #262626" x="548.06774" y="160.579562" transform="rotate(-0 548.06774 160.579562)">$2000</text>
     </g>
    </g>
    <g id="xtick_9">
     <g id="line2d_9">
      <g>
       <use xlink:href="#m7c214dac12" x="615.264635" y="146.42175" style="fill: #262626; stroke: #262626; stroke-width: 0.8"/>
      </g>
     </g>
     <g id="text_9">
      <text style="font-size: 10px; font-family: 'Arial', 'DejaVu Sans', 'Liberation Sans', 'Bitstream Vera Sans', sans-serif; text-anchor: middle; fill: #262626" x="615.264635" y="160.579562" transform="rotate(-0 615.264635 160.579562)">$5000</text>
     </g>
    </g>
    <g id="xtick_10">
     <g id="line2d_10">
      <defs>
       <path id="md0a7808ddc" d="M 0 0 
L 0 2 
" style="stroke: #262626; stroke-width: 0.6"/>
      </defs>
      <g>
       <use xlink:href="#md0a7808ddc" x="41.482123" y="146.42175" style="fill: #262626; stroke: #262626; stroke-width: 0.6"/>
      </g>
     </g>
    </g>
    <g id="xtick_11">
     <g id="line2d_11">
      <g>
       <use xlink:href="#md0a7808ddc" x="71.217223" y="146.42175" style="fill: #262626; stroke: #262626; stroke-width: 0.6"/>
      </g>
     </g>
    </g>
    <g id="xtick_12">
     <g id="line2d_12">
      <g>
       <use xlink:href="#md0a7808ddc" x="92.314612" y="146.42175" style="fill: #262626; stroke: #262626; stroke-width: 0.6"/>
      </g>
     </g>
    </g>
    <g id="xtick_13">
     <g id="line2d_13">
      <g>
       <use xlink:href="#md0a7808ddc" x="108.679018" y="146.42175" style="fill: #262626; stroke: #262626; stroke-width: 0.6"/>
      </g>
     </g>
    </g>
    <g id="xtick_14">
     <g id="line2d_14">
      <g>
       <use xlink:href="#md0a7808ddc" x="122.049711" y="146.42175" style="fill: #262626; stroke: #262626; stroke-width: 0.6"/>
      </g>
     </g>
    </g>
    <g id="xtick_15">
     <g id="line2d_15">
      <g>
       <use xlink:href="#md0a7808ddc" x="133.354472" y="146.42175" style="fill: #262626; stroke: #262626; stroke-width: 0.6"/>
      </g>
     </g>
    </g>
    <g id="xtick_16">
     <g id="line2d_16">
      <g>
       <use xlink:href="#md0a7808ddc" x="143.1471" y="146.42175" style="fill: #262626; stroke: #262626; stroke-width: 0.6"/>
      </g>
     </g>
    </g>
    <g id="xtick_17">
     <g id="line2d_17">
      <g>
       <use xlink:href="#md0a7808ddc" x="151.784811" y="146.42175" style="fill: #262626; stroke: #262626; stroke-width: 0.6"/>
      </g>
     </g>
    </g>
    <g id="xtick_18">
     <g id="line2d_18">
      <g>
       <use xlink:href="#md0a7808ddc" x="240.079095" y="146.42175" style="fill: #262626; stroke: #262626; stroke-width: 0.6"/>
      </g>
     </g>
    </g>
    <g id="xtick_19">
     <g id="line2d_19">
      <g>
       <use xlink:href="#md0a7808ddc" x="261.176484" y="146.42175" style="fill: #262626; stroke: #262626; stroke-width: 0.6"/>
      </g>
     </g>
    </g>
    <g id="xtick_20">
     <g id="line2d_20">
      <g>
       <use xlink:href="#md0a7808ddc" x="290.911584" y="146.42175" style="fill: #262626; stroke: #262626; stroke-width: 0.6"/>
      </g>
     </g>
    </g>
    <g id="xtick_21">
     <g id="line2d_21">
      <g>
       <use xlink:href="#md0a7808ddc" x="302.216344" y="146.42175" style="fill: #262626; stroke: #262626; stroke-width: 0.6"/>
      </g>
     </g>
    </g>
    <g id="xtick_22">
     <g id="line2d_22">
      <g>
       <use xlink:href="#md0a7808ddc" x="312.008973" y="146.42175" style="fill: #262626; stroke: #262626; stroke-width: 0.6"/>
      </g>
     </g>
    </g>
    <g id="xtick_23">
     <g id="line2d_23">
      <g>
       <use xlink:href="#md0a7808ddc" x="320.646683" y="146.42175" style="fill: #262626; stroke: #262626; stroke-width: 0.6"/>
      </g>
     </g>
    </g>
    <g id="xtick_24">
     <g id="line2d_24">
      <g>
       <use xlink:href="#md0a7808ddc" x="408.940967" y="146.42175" style="fill: #262626; stroke: #262626; stroke-width: 0.6"/>
      </g>
     </g>
    </g>
    <g id="xtick_25">
     <g id="line2d_25">
      <g>
       <use xlink:href="#md0a7808ddc" x="430.038356" y="146.42175" style="fill: #262626; stroke: #262626; stroke-width: 0.6"/>
      </g>
     </g>
    </g>
    <g id="xtick_26">
     <g id="line2d_26">
      <g>
       <use xlink:href="#md0a7808ddc" x="459.773456" y="146.42175" style="fill: #262626; stroke: #262626; stroke-width: 0.6"/>
      </g>
     </g>
    </g>
    <g id="xtick_27">
     <g id="line2d_27">
      <g>
       <use xlink:href="#md0a7808ddc" x="471.078216" y="146.42175" style="fill: #262626; stroke: #262626; stroke-width: 0.6"/>
      </g>
     </g>
    </g>
    <g id="xtick_28">
     <g id="line2d_28">
      <g>
       <use xlink:href="#md0a7808ddc" x="480.870845" y="146.42175" style="fill: #262626; stroke: #262626; stroke-width: 0.6"/>
      </g>
     </g>
    </g>
    <g id="xtick_29">
     <g id="line2d_29">
      <g>
       <use xlink:href="#md0a7808ddc" x="489.508556" y="146.42175" style="fill: #262626; stroke: #262626; stroke-width: 0.6"/>
      </g>
     </g>
    </g>
    <g id="xtick_30">
     <g id="line2d_30">
      <g>
       <use xlink:href="#md0a7808ddc" x="577.802839" y="146.42175" style="fill: #262626; stroke: #262626; stroke-width: 0.6"/>
      </g>
     </g>
    </g>
    <g id="xtick_31">
     <g id="line2d_31">
      <g>
       <use xlink:href="#md0a7808ddc" x="598.900228" y="146.42175" style="fill: #262626; stroke: #262626; stroke-width: 0.6"/>
      </g>
     </g>
    </g>
    <g id="xtick_32">
     <g id="line2d_32">
      <g>
       <use xlink:href="#md0a7808ddc" x="628.635328" y="146.42175" style="fill: #262626; stroke: #262626; stroke-width: 0.6"/>
      </g>
     </g>
    </g>
    <g id="xtick_33">
     <g id="line2d_33">
      <g>
       <use xlink:href="#md0a7808ddc" x="639.940088" y="146.42175" style="fill: #262626; stroke: #262626; stroke-width: 0.6"/>
      </g>
     </g>
    </g>
    <g id="text_10">
     <text style="font-size: 10px; font-family: 'Arial', 'DejaVu Sans', 'Liberation Sans', 'Bitstream Vera Sans', sans-serif; text-anchor: middle; fill: #262626" x="328.05" y="173.84675" transform="rotate(-0 328.05 173.84675)">Income or consumption (month)</text>
    </g>
   </g>
   <g id="matplotlib.axis_2"/>
   <g id="FillBetweenPolyCollection_1">
    <defs>
     <path id="m6d1d0a5654" d="M 340.499879 -36.729687 
L 340.499879 -36.734724 
L 340.808603 -36.73523 
L 341.117327 -36.735781 
L 341.426051 -36.736379 
L 341.734774 -36.73703 
L 342.043498 -36.737736 
L 342.352222 -36.738502 
L 342.660946 -36.73933 
L 342.969669 -36.740227 
L 343.278393 -36.741196 
L 343.587117 -36.742242 
L 343.895841 -36.74337 
L 344.204564 -36.744585 
L 344.513288 -36.745893 
L 344.822012 -36.747298 
L 345.130736 -36.748807 
L 345.439459 -36.750425 
L 345.748183 -36.75216 
L 346.056907 -36.754016 
L 346.365631 -36.756001 
L 346.674354 -36.758121 
L 346.983078 -36.760382 
L 347.291802 -36.762793 
L 347.600526 -36.765359 
L 347.909249 -36.768089 
L 348.217973 -36.770989 
L 348.526697 -36.774067 
L 348.835421 -36.77733 
L 349.144145 -36.780786 
L 349.452868 -36.784442 
L 349.761592 -36.788306 
L 350.070316 -36.792385 
L 350.37904 -36.796687 
L 350.687763 -36.801219 
L 350.996487 -36.805989 
L 351.305211 -36.811004 
L 351.613935 -36.81627 
L 351.922658 -36.821796 
L 352.231382 -36.827586 
L 352.540106 -36.833649 
L 352.84883 -36.83999 
L 353.157553 -36.846615 
L 353.466277 -36.85353 
L 353.775001 -36.86074 
L 354.083725 -36.86825 
L 354.392448 -36.876064 
L 354.701172 -36.884187 
L 355.009896 -36.892622 
L 355.31862 -36.901373 
L 355.627343 -36.910442 
L 355.936067 -36.919831 
L 356.244791 -36.929543 
L 356.553515 -36.939578 
L 356.862238 -36.949937 
L 357.170962 -36.960621 
L 357.479686 -36.971627 
L 357.78841 -36.982957 
L 358.097134 -36.994607 
L 358.405857 -37.006576 
L 358.714581 -37.018862 
L 359.023305 -37.031459 
L 359.332029 -37.044366 
L 359.640752 -37.057576 
L 359.949476 -37.071086 
L 360.2582 -37.084889 
L 360.566924 -37.09898 
L 360.875647 -37.113353 
L 361.184371 -37.127999 
L 361.493095 -37.142913 
L 361.801819 -37.158085 
L 362.110542 -37.173508 
L 362.419266 -37.189174 
L 362.72799 -37.205073 
L 363.036714 -37.221197 
L 363.345437 -37.237535 
L 363.654161 -37.254079 
L 363.962885 -37.270819 
L 364.271609 -37.287745 
L 364.580332 -37.304847 
L 364.889056 -37.322114 
L 365.19778 -37.339538 
L 365.506504 -37.357107 
L 365.815227 -37.374812 
L 366.123951 -37.392642 
L 366.432675 -37.410589 
L 366.741399 -37.428641 
L 367.050123 -37.44679 
L 367.358846 -37.465026 
L 367.66757 -37.48334 
L 367.976294 -37.501723 
L 368.285018 -37.520165 
L 368.593741 -37.538659 
L 368.902465 -37.557196 
L 369.211189 -37.575768 
L 369.519913 -37.594366 
L 369.828636 -37.612985 
L 370.13736 -37.631615 
L 370.446084 -37.650251 
L 370.754808 -37.668884 
L 371.063531 -37.687509 
L 371.372255 -37.70612 
L 371.680979 -37.724709 
L 371.989703 -37.743271 
L 372.298426 -37.761801 
L 372.60715 -37.780292 
L 372.915874 -37.798738 
L 373.224598 -37.817135 
L 373.533321 -37.835477 
L 373.842045 -37.853758 
L 374.150769 -37.871973 
L 374.459493 -37.890118 
L 374.768216 -37.908186 
L 375.07694 -37.926172 
L 375.385664 -37.944071 
L 375.694388 -37.961877 
L 376.003112 -37.979584 
L 376.311835 -37.997188 
L 376.620559 -38.014682 
L 376.929283 -38.03206 
L 377.238007 -38.049316 
L 377.54673 -38.066444 
L 377.855454 -38.083437 
L 378.164178 -38.100289 
L 378.472902 -38.116993 
L 378.781625 -38.133541 
L 379.090349 -38.149928 
L 379.399073 -38.166146 
L 379.707797 -38.182187 
L 380.01652 -38.198044 
L 380.325244 -38.21371 
L 380.633968 -38.229177 
L 380.942692 -38.244438 
L 381.251415 -38.259485 
L 381.560139 -38.27431 
L 381.868863 -38.288907 
L 382.177587 -38.303268 
L 382.48631 -38.317385 
L 382.795034 -38.331252 
L 383.103758 -38.344862 
L 383.412482 -38.358209 
L 383.721206 -38.371286 
L 384.029929 -38.384088 
L 384.338653 -38.396609 
L 384.647377 -38.408844 
L 384.956101 -38.420789 
L 385.264824 -38.43244 
L 385.573548 -38.443794 
L 385.882272 -38.454848 
L 386.190996 -38.465599 
L 386.499719 -38.476047 
L 386.808443 -38.486191 
L 387.117167 -38.49603 
L 387.425891 -38.505566 
L 387.734614 -38.5148 
L 388.043338 -38.523735 
L 388.352062 -38.532374 
L 388.660786 -38.540721 
L 388.969509 -38.548782 
L 389.278233 -38.556561 
L 389.586957 -38.564065 
L 389.895681 -38.571303 
L 390.204404 -38.578282 
L 390.513128 -38.585013 
L 390.821852 -38.591503 
L 391.130576 -38.597766 
L 391.439299 -38.603812 
L 391.748023 -38.609653 
L 392.056747 -38.615304 
L 392.365471 -38.620777 
L 392.674195 -38.626086 
L 392.982918 -38.631248 
L 393.291642 -38.636278 
L 393.600366 -38.641191 
L 393.90909 -38.646005 
L 394.217813 -38.650736 
L 394.526537 -38.655402 
L 394.835261 -38.66002 
L 395.143985 -38.664609 
L 395.452708 -38.669187 
L 395.761432 -38.673772 
L 396.070156 -38.678383 
L 396.37888 -38.683038 
L 396.687603 -38.687756 
L 396.996327 -38.692555 
L 397.305051 -38.697454 
L 397.613775 -38.70247 
L 397.922498 -38.707623 
L 398.231222 -38.71293 
L 398.539946 -38.718409 
L 398.84867 -38.724076 
L 399.157393 -38.729949 
L 399.466117 -38.736044 
L 399.774841 -38.742378 
L 400.083565 -38.748965 
L 400.392288 -38.755822 
L 400.701012 -38.762962 
L 401.009736 -38.7704 
L 401.31846 -38.77815 
L 401.627184 -38.786224 
L 401.935907 -38.794635 
L 402.244631 -38.803395 
L 402.553355 -38.812514 
L 402.862079 -38.822005 
L 403.170802 -38.831876 
L 403.479526 -38.842138 
L 403.78825 -38.852799 
L 404.096974 -38.863867 
L 404.405697 -38.875352 
L 404.714421 -38.887259 
L 405.023145 -38.899595 
L 405.331869 -38.912368 
L 405.640592 -38.925582 
L 405.949316 -38.939243 
L 406.25804 -38.953355 
L 406.566764 -38.967923 
L 406.875487 -38.982952 
L 407.184211 -38.998444 
L 407.492935 -39.014403 
L 407.801659 -39.030832 
L 408.110382 -39.047733 
L 408.419106 -39.06511 
L 408.72783 -39.082965 
L 409.036554 -39.101299 
L 409.345277 -39.120115 
L 409.654001 -39.139414 
L 409.962725 -39.1592 
L 410.271449 -39.179473 
L 410.580173 -39.200236 
L 410.888896 -39.221492 
L 411.19762 -39.243241 
L 411.506344 -39.265488 
L 411.815068 -39.288234 
L 412.123791 -39.311484 
L 412.432515 -39.33524 
L 412.741239 -39.359506 
L 413.049963 -39.384287 
L 413.358686 -39.409589 
L 413.66741 -39.435416 
L 413.976134 -39.461774 
L 414.284858 -39.488671 
L 414.593581 -39.516114 
L 414.902305 -39.544112 
L 415.211029 -39.572674 
L 415.519753 -39.601809 
L 415.828476 -39.63153 
L 416.1372 -39.661847 
L 416.445924 -39.692775 
L 416.754648 -39.724326 
L 417.063371 -39.756517 
L 417.372095 -39.789362 
L 417.680819 -39.82288 
L 417.989543 -39.857089 
L 418.298266 -39.892008 
L 418.60699 -39.927658 
L 418.915714 -39.964061 
L 419.224438 -40.001239 
L 419.533162 -40.039216 
L 419.841885 -40.078018 
L 420.150609 -40.11767 
L 420.459333 -40.1582 
L 420.768057 -40.199634 
L 421.07678 -40.242003 
L 421.385504 -40.285336 
L 421.694228 -40.329663 
L 422.002952 -40.375016 
L 422.311675 -40.421425 
L 422.620399 -40.468924 
L 422.929123 -40.517545 
L 423.237847 -40.567321 
L 423.54657 -40.618284 
L 423.855294 -40.670469 
L 424.164018 -40.723908 
L 424.472742 -40.778634 
L 424.781465 -40.83468 
L 425.090189 -40.892078 
L 425.398913 -40.950859 
L 425.707637 -41.011055 
L 426.01636 -41.072695 
L 426.325084 -41.135809 
L 426.633808 -41.200424 
L 426.942532 -41.266567 
L 427.251256 -41.334263 
L 427.559979 -41.403536 
L 427.868703 -41.474408 
L 428.177427 -41.546898 
L 428.486151 -41.621025 
L 428.794874 -41.696806 
L 429.103598 -41.774255 
L 429.412322 -41.853382 
L 429.721046 -41.934199 
L 430.029769 -42.016712 
L 430.338493 -42.100925 
L 430.647217 -42.186842 
L 430.955941 -42.274461 
L 431.264664 -42.363781 
L 431.573388 -42.454795 
L 431.882112 -42.547496 
L 432.190836 -42.641872 
L 432.499559 -42.737912 
L 432.808283 -42.835599 
L 433.117007 -42.934915 
L 433.425731 -43.035839 
L 433.734454 -43.138349 
L 434.043178 -43.242419 
L 434.351902 -43.348023 
L 434.660626 -43.45513 
L 434.969349 -43.56371 
L 435.278073 -43.673729 
L 435.586797 -43.785152 
L 435.895521 -43.897945 
L 436.204245 -44.012067 
L 436.512968 -44.127482 
L 436.821692 -44.244148 
L 437.130416 -44.362026 
L 437.43914 -44.481073 
L 437.747863 -44.601247 
L 438.056587 -44.722507 
L 438.365311 -44.844809 
L 438.674035 -44.968111 
L 438.982758 -45.092371 
L 439.291482 -45.217546 
L 439.600206 -45.343594 
L 439.90893 -45.470474 
L 440.217653 -45.598147 
L 440.526377 -45.726572 
L 440.835101 -45.855711 
L 441.143825 -45.985527 
L 441.452548 -46.115983 
L 441.761272 -46.247045 
L 442.069996 -46.378679 
L 442.37872 -46.510854 
L 442.687443 -46.643538 
L 442.996167 -46.776704 
L 443.304891 -46.910324 
L 443.613615 -47.044372 
L 443.922338 -47.178825 
L 444.231062 -47.313659 
L 444.539786 -47.448854 
L 444.84851 -47.584392 
L 445.157234 -47.720253 
L 445.465957 -47.856422 
L 445.774681 -47.992884 
L 446.083405 -48.129626 
L 446.392129 -48.266634 
L 446.700852 -48.403899 
L 447.009576 -48.54141 
L 447.3183 -48.679158 
L 447.627024 -48.817135 
L 447.935747 -48.955334 
L 448.244471 -49.093747 
L 448.553195 -49.23237 
L 448.861919 -49.371197 
L 449.170642 -49.510222 
L 449.479366 -49.649442 
L 449.78809 -49.788851 
L 450.096814 -49.928446 
L 450.405537 -50.068223 
L 450.714261 -50.208178 
L 451.022985 -50.348306 
L 451.331709 -50.488606 
L 451.640432 -50.629071 
L 451.949156 -50.7697 
L 452.25788 -50.910488 
L 452.566604 -51.051431 
L 452.875327 -51.192526 
L 453.184051 -51.333769 
L 453.492775 -51.475158 
L 453.801499 -51.616688 
L 454.110223 -51.758356 
L 454.418946 -51.900162 
L 454.72767 -52.042101 
L 455.036394 -52.184173 
L 455.345118 -52.326378 
L 455.653841 -52.468715 
L 455.962565 -52.611185 
L 456.271289 -52.75379 
L 456.580013 -52.896534 
L 456.888736 -53.039422 
L 457.19746 -53.182459 
L 457.506184 -53.325654 
L 457.814908 -53.469016 
L 458.123631 -53.612557 
L 458.432355 -53.756291 
L 458.741079 -53.900233 
L 459.049803 -54.044401 
L 459.358526 -54.188817 
L 459.66725 -54.333502 
L 459.975974 -54.478483 
L 460.284698 -54.623788 
L 460.593421 -54.769449 
L 460.902145 -54.915497 
L 461.210869 -55.061971 
L 461.519593 -55.20891 
L 461.828317 -55.356355 
L 462.13704 -55.504352 
L 462.445764 -55.652948 
L 462.754488 -55.802193 
L 463.063212 -55.95214 
L 463.371935 -56.102845 
L 463.680659 -56.254364 
L 463.989383 -56.406759 
L 464.298107 -56.56009 
L 464.60683 -56.714422 
L 464.915554 -56.869819 
L 465.224278 -57.02635 
L 465.533002 -57.184081 
L 465.841725 -57.343083 
L 466.150449 -57.503425 
L 466.459173 -57.665178 
L 466.767897 -57.828414 
L 467.07662 -57.993202 
L 467.385344 -58.159614 
L 467.694068 -58.32772 
L 468.002792 -58.49759 
L 468.311515 -58.669292 
L 468.620239 -58.842892 
L 468.928963 -59.018457 
L 469.237687 -59.196051 
L 469.54641 -59.375735 
L 469.855134 -59.557568 
L 470.163858 -59.741607 
L 470.472582 -59.927907 
L 470.781306 -60.116517 
L 471.090029 -60.307488 
L 471.398753 -60.500863 
L 471.707477 -60.696683 
L 472.016201 -60.894987 
L 472.324924 -61.09581 
L 472.633648 -61.299181 
L 472.942372 -61.505129 
L 473.251096 -61.713676 
L 473.559819 -61.924843 
L 473.868543 -62.138647 
L 474.177267 -62.355099 
L 474.485991 -62.57421 
L 474.794714 -62.795986 
L 475.103438 -63.02043 
L 475.412162 -63.247543 
L 475.720886 -63.477322 
L 476.029609 -63.709764 
L 476.338333 -63.944862 
L 476.647057 -64.182607 
L 476.955781 -64.422989 
L 477.264504 -64.665998 
L 477.573228 -64.911622 
L 477.881952 -65.159849 
L 478.190676 -65.410666 
L 478.499399 -65.664063 
L 478.808123 -65.920028 
L 479.116847 -66.178552 
L 479.425571 -66.439626 
L 479.734295 -66.703246 
L 480.043018 -66.969407 
L 480.351742 -67.23811 
L 480.660466 -67.509357 
L 480.96919 -67.783155 
L 481.277913 -68.059516 
L 481.586637 -68.338454 
L 481.895361 -68.619989 
L 482.204085 -68.904149 
L 482.512808 -69.190962 
L 482.821532 -69.480468 
L 483.130256 -69.772707 
L 483.43898 -70.067731 
L 483.747703 -70.365595 
L 484.056427 -70.666361 
L 484.365151 -70.9701 
L 484.673875 -71.276887 
L 484.982598 -71.586806 
L 485.291322 -71.899948 
L 485.600046 -72.21641 
L 485.90877 -72.536297 
L 486.217493 -72.85972 
L 486.526217 -73.186797 
L 486.834941 -73.517653 
L 487.143665 -73.852419 
L 487.452388 -74.191232 
L 487.761112 -74.534235 
L 488.069836 -74.881576 
L 488.37856 -75.233409 
L 488.687284 -75.589891 
L 488.996007 -75.951186 
L 489.304731 -76.317459 
L 489.613455 -76.688879 
L 489.922179 -77.065618 
L 490.230902 -77.447851 
L 490.539626 -77.835753 
L 490.84835 -78.229501 
L 491.157074 -78.629272 
L 491.465797 -79.035243 
L 491.774521 -79.447588 
L 492.083245 -79.866483 
L 492.391969 -80.292099 
L 492.700692 -80.724604 
L 493.009416 -81.164164 
L 493.31814 -81.610938 
L 493.626864 -82.065084 
L 493.935587 -82.52675 
L 494.244311 -82.99608 
L 494.553035 -83.473209 
L 494.861759 -83.958267 
L 495.170482 -84.451374 
L 495.479206 -84.95264 
L 495.78793 -85.462168 
L 496.096654 -85.980048 
L 496.405378 -86.506361 
L 496.714101 -87.041176 
L 497.022825 -87.584553 
L 497.331549 -88.136534 
L 497.640273 -88.697155 
L 497.948996 -89.266435 
L 498.25772 -89.844379 
L 498.566444 -90.430982 
L 498.875168 -91.026222 
L 499.183891 -91.630064 
L 499.492615 -92.242458 
L 499.801339 -92.863339 
L 500.110063 -93.49263 
L 500.418786 -94.130236 
L 500.72751 -94.776048 
L 501.036234 -95.429943 
L 501.344958 -96.091782 
L 501.653681 -96.761413 
L 501.962405 -97.438669 
L 502.271129 -98.123366 
L 502.579853 -98.81531 
L 502.888576 -99.514288 
L 503.1973 -100.220079 
L 503.506024 -100.932443 
L 503.814748 -101.651131 
L 504.123471 -102.37588 
L 504.432195 -103.106414 
L 504.740919 -103.842446 
L 505.049643 -104.583678 
L 505.358367 -105.329801 
L 505.66709 -106.080494 
L 505.975814 -106.83543 
L 506.284538 -107.594269 
L 506.593262 -108.356666 
L 506.901985 -109.122266 
L 507.210709 -109.890706 
L 507.519433 -110.661621 
L 507.828157 -111.434634 
L 508.13688 -112.209368 
L 508.445604 -112.98544 
L 508.754328 -113.762462 
L 509.063052 -114.540045 
L 509.371775 -115.317797 
L 509.680499 -116.095324 
L 509.989223 -116.872232 
L 510.297947 -117.648127 
L 510.60667 -118.422616 
L 510.915394 -119.195307 
L 511.224118 -119.965809 
L 511.532842 -120.733736 
L 511.841565 -121.498704 
L 512.150289 -122.260333 
L 512.459013 -123.018248 
L 512.767737 -123.772079 
L 513.07646 -124.521463 
L 513.385184 -125.266043 
L 513.693908 -126.005467 
L 514.002632 -126.739392 
L 514.311356 -127.467482 
L 514.620079 -128.189411 
L 514.928803 -128.904859 
L 515.237527 -129.613516 
L 515.546251 -130.315081 
L 515.854974 -131.009262 
L 516.163698 -131.695778 
L 516.472422 -132.374354 
L 516.781146 -133.044729 
L 517.089869 -133.706649 
L 517.398593 -134.359871 
L 517.707317 -135.004161 
L 518.016041 -135.639295 
L 518.324764 -136.26506 
L 518.633488 -136.88125 
L 518.942212 -137.48767 
L 519.250936 -138.084134 
L 519.559659 -138.670463 
L 519.868383 -139.24649 
L 520.177107 -139.812053 
L 520.485831 -140.366999 
L 520.794554 -140.911184 
L 521.103278 -141.44447 
L 521.412002 -141.966726 
L 521.720726 -142.477828 
L 522.029449 -142.977658 
L 522.338173 -143.466104 
L 522.646897 -143.943059 
L 522.955621 -144.408421 
L 523.264345 -144.862095 
L 523.573068 -145.303988 
L 523.881792 -145.734012 
L 524.190516 -146.152083 
L 524.49924 -146.55812 
L 524.807963 -146.952047 
L 525.116687 -147.333789 
L 525.425411 -147.703276 
L 525.734135 -148.060441 
L 526.042858 -148.405217 
L 526.351582 -148.737543 
L 526.660306 -149.057359 
L 526.96903 -149.364609 
L 527.277753 -149.659238 
L 527.586477 -149.941195 
L 527.895201 -150.210434 
L 528.203925 -150.466908 
L 528.512648 -150.710578 
L 528.821372 -150.941406 
L 529.130096 -151.159358 
L 529.43882 -151.364405 
L 529.747543 -151.556524 
L 530.056267 -151.735695 
L 530.364991 -151.901905 
L 530.673715 -152.055145 
L 530.982438 -152.195414 
L 531.291162 -152.322717 
L 531.599886 -152.437067 
L 531.90861 -152.538483 
L 532.217334 -152.626992 
L 532.526057 -152.702633 
L 532.834781 -152.765448 
L 533.143505 -152.815492 
L 533.452229 -152.85283 
L 533.760952 -152.877533 
L 534.069676 -152.889688 
L 534.3784 -152.889386 
L 534.687124 -152.876733 
L 534.995847 -152.851846 
L 535.304571 -152.814849 
L 535.613295 -152.765882 
L 535.922019 -152.705093 
L 536.230742 -152.632641 
L 536.539466 -152.548699 
L 536.84819 -152.453447 
L 537.156914 -152.347079 
L 537.465637 -152.229798 
L 537.774361 -152.101817 
L 538.083085 -151.963361 
L 538.391809 -151.814663 
L 538.700532 -151.655964 
L 539.009256 -151.487517 
L 539.31798 -151.30958 
L 539.626704 -151.122421 
L 539.935428 -150.926314 
L 540.244151 -150.721538 
L 540.552875 -150.508381 
L 540.861599 -150.287134 
L 541.170323 -150.058092 
L 541.479046 -149.821554 
L 541.78777 -149.577823 
L 542.096494 -149.327201 
L 542.405218 -149.069995 
L 542.713941 -148.80651 
L 543.022665 -148.53705 
L 543.331389 -148.261921 
L 543.640113 -147.981424 
L 543.948836 -147.695858 
L 544.25756 -147.40552 
L 544.566284 -147.110701 
L 544.875008 -146.811689 
L 545.183731 -146.508763 
L 545.492455 -146.202199 
L 545.801179 -145.892265 
L 546.109903 -145.579222 
L 546.418626 -145.263321 
L 546.72735 -144.944806 
L 547.036074 -144.623912 
L 547.344798 -144.300863 
L 547.653521 -143.975875 
L 547.962245 -143.649152 
L 548.270969 -143.320888 
L 548.579693 -142.991266 
L 548.888417 -142.660457 
L 549.19714 -142.328622 
L 549.505864 -141.995909 
L 549.814588 -141.662454 
L 550.123312 -141.328382 
L 550.432035 -140.993807 
L 550.740759 -140.65883 
L 551.049483 -140.323538 
L 551.358207 -139.98801 
L 551.66693 -139.652311 
L 551.975654 -139.316494 
L 552.284378 -138.980601 
L 552.593102 -138.644662 
L 552.901825 -138.308698 
L 553.210549 -137.972715 
L 553.519273 -137.636712 
L 553.827997 -137.300675 
L 554.13672 -136.96458 
L 554.445444 -136.628394 
L 554.754168 -136.292072 
L 555.062892 -135.955563 
L 555.371615 -135.618803 
L 555.680339 -135.281723 
L 555.989063 -134.944241 
L 556.297787 -134.606272 
L 556.60651 -134.267719 
L 556.915234 -133.928479 
L 557.223958 -133.588444 
L 557.532682 -133.247495 
L 557.841406 -132.905512 
L 558.150129 -132.562364 
L 558.458853 -132.217919 
L 558.767577 -131.872039 
L 559.076301 -131.524578 
L 559.385024 -131.175391 
L 559.693748 -130.824326 
L 560.002472 -130.471229 
L 560.311196 -130.115944 
L 560.619919 -129.758312 
L 560.928643 -129.398172 
L 561.237367 -129.035363 
L 561.546091 -128.669721 
L 561.854814 -128.301085 
L 562.163538 -127.929293 
L 562.472262 -127.554183 
L 562.780986 -127.175594 
L 563.089709 -126.793371 
L 563.398433 -126.407356 
L 563.707157 -126.017398 
L 564.015881 -125.623347 
L 564.324604 -125.225059 
L 564.633328 -124.822394 
L 564.942052 -124.415217 
L 565.250776 -124.003397 
L 565.559499 -123.586813 
L 565.868223 -123.165346 
L 566.176947 -122.738888 
L 566.485671 -122.307335 
L 566.794395 -121.870595 
L 567.103118 -121.42858 
L 567.411842 -120.981214 
L 567.720566 -120.528428 
L 568.02929 -120.070164 
L 568.338013 -119.606372 
L 568.646737 -119.137013 
L 568.955461 -118.662058 
L 569.264185 -118.181488 
L 569.572908 -117.695295 
L 569.881632 -117.203481 
L 570.190356 -116.70606 
L 570.49908 -116.203054 
L 570.807803 -115.694499 
L 571.116527 -115.180439 
L 571.425251 -114.66093 
L 571.733975 -114.136037 
L 572.042698 -113.605838 
L 572.351422 -113.070418 
L 572.660146 -112.529873 
L 572.96887 -111.984309 
L 573.277593 -111.433841 
L 573.586317 -110.878593 
L 573.895041 -110.318696 
L 574.203765 -109.754292 
L 574.512489 -109.185527 
L 574.821212 -108.612557 
L 575.129936 -108.035545 
L 575.43866 -107.454657 
L 575.747384 -106.870068 
L 576.056107 -106.281958 
L 576.364831 -105.690509 
L 576.673555 -105.095909 
L 576.982279 -104.498351 
L 577.291002 -103.898029 
L 577.599726 -103.29514 
L 577.90845 -102.689884 
L 578.217174 -102.08246 
L 578.525897 -101.473072 
L 578.834621 -100.861921 
L 579.143345 -100.24921 
L 579.452069 -99.635141 
L 579.760792 -99.019915 
L 580.069516 -98.403731 
L 580.37824 -97.786789 
L 580.686964 -97.169283 
L 580.995687 -96.551409 
L 581.304411 -95.933356 
L 581.613135 -95.315314 
L 581.921859 -94.697465 
L 582.230582 -94.079993 
L 582.539306 -93.463074 
L 582.84803 -92.846881 
L 583.156754 -92.231583 
L 583.465478 -91.617346 
L 583.774201 -91.004331 
L 584.082925 -90.392691 
L 584.391649 -89.78258 
L 584.700373 -89.174144 
L 585.009096 -88.567524 
L 585.31782 -87.962858 
L 585.626544 -87.360277 
L 585.935268 -86.75991 
L 586.243991 -86.161878 
L 586.552715 -85.5663 
L 586.861439 -84.973289 
L 587.170163 -84.382954 
L 587.478886 -83.795397 
L 587.78761 -83.210719 
L 588.096334 -82.629014 
L 588.405058 -82.050372 
L 588.713781 -81.474879 
L 589.022505 -80.902618 
L 589.331229 -80.333664 
L 589.639953 -79.768092 
L 589.948676 -79.205969 
L 590.2574 -78.647362 
L 590.566124 -78.092332 
L 590.874848 -77.540935 
L 591.183571 -76.993224 
L 591.492295 -76.44925 
L 591.801019 -75.909057 
L 592.109743 -75.372689 
L 592.418467 -74.840184 
L 592.72719 -74.311577 
L 593.035914 -73.7869 
L 593.344638 -73.266181 
L 593.653362 -72.749445 
L 593.962085 -72.236713 
L 594.270809 -71.728005 
L 594.579533 -71.223336 
L 594.888257 -70.722717 
L 595.19698 -70.226159 
L 595.505704 -69.733668 
L 595.814428 -69.245248 
L 596.123152 -68.760899 
L 596.431875 -68.28062 
L 596.740599 -67.804406 
L 597.049323 -67.33225 
L 597.358047 -66.864144 
L 597.66677 -66.400076 
L 597.975494 -65.940032 
L 598.284218 -65.483997 
L 598.592942 -65.031954 
L 598.901665 -64.583882 
L 599.210389 -64.139762 
L 599.519113 -63.699571 
L 599.827837 -63.263284 
L 600.13656 -62.830878 
L 600.445284 -62.402326 
L 600.754008 -61.977601 
L 601.062732 -61.556675 
L 601.371456 -61.139521 
L 601.680179 -60.72611 
L 601.988903 -60.316413 
L 602.297627 -59.910401 
L 602.606351 -59.508045 
L 602.915074 -59.109316 
L 603.223798 -58.714186 
L 603.532522 -58.322628 
L 603.841246 -57.934614 
L 604.149969 -57.550119 
L 604.458693 -57.169116 
L 604.767417 -56.791582 
L 605.076141 -56.417493 
L 605.384864 -56.04683 
L 605.693588 -55.679571 
L 606.002312 -55.315698 
L 606.311036 -54.955194 
L 606.619759 -54.598045 
L 606.928483 -54.244238 
L 607.237207 -53.89376 
L 607.545931 -53.546605 
L 607.854654 -53.202764 
L 608.163378 -52.862232 
L 608.472102 -52.525007 
L 608.780826 -52.191088 
L 609.089549 -51.860476 
L 609.398273 -51.533176 
L 609.706997 -51.209193 
L 610.015721 -50.888535 
L 610.324445 -50.571212 
L 610.633168 -50.257237 
L 610.941892 -49.946622 
L 611.250616 -49.639384 
L 611.55934 -49.335542 
L 611.868063 -49.035113 
L 612.176787 -48.738121 
L 612.485511 -48.444586 
L 612.794235 -48.154534 
L 613.102958 -47.86799 
L 613.411682 -47.58498 
L 613.720406 -47.305533 
L 614.02913 -47.029677 
L 614.337853 -46.757442 
L 614.646577 -46.488857 
L 614.955301 -46.223953 
L 615.264025 -45.962761 
L 615.572748 -45.705312 
L 615.881472 -45.451637 
L 616.190196 -45.201767 
L 616.49892 -44.955733 
L 616.807643 -44.713564 
L 617.116367 -44.475289 
L 617.425091 -44.240938 
L 617.733815 -44.010537 
L 618.042539 -43.784114 
L 618.351262 -43.561692 
L 618.659986 -43.343297 
L 618.96871 -43.128949 
L 619.277434 -42.918668 
L 619.586157 -42.712473 
L 619.894881 -42.510381 
L 620.203605 -42.312405 
L 620.512329 -42.118557 
L 620.821052 -41.928846 
L 621.129776 -41.743279 
L 621.4385 -41.561861 
L 621.747224 -41.384592 
L 622.055947 -41.211472 
L 622.364671 -41.042496 
L 622.673395 -40.877658 
L 622.982119 -40.716948 
L 623.290842 -40.560352 
L 623.599566 -40.407855 
L 623.90829 -40.259438 
L 624.217014 -40.115078 
L 624.525737 -39.974751 
L 624.834461 -39.838428 
L 625.143185 -39.706078 
L 625.451909 -39.577668 
L 625.760632 -39.453159 
L 626.069356 -39.332513 
L 626.37808 -39.215686 
L 626.686804 -39.102632 
L 626.995528 -38.993305 
L 627.304251 -38.887652 
L 627.612975 -38.785621 
L 627.921699 -38.687156 
L 628.230423 -38.592199 
L 628.539146 -38.500689 
L 628.84787 -38.412566 
L 629.156594 -38.327765 
L 629.465318 -38.24622 
L 629.774041 -38.167863 
L 630.082765 -38.092627 
L 630.391489 -38.02044 
L 630.700213 -37.951231 
L 631.008936 -37.884928 
L 631.31766 -37.821457 
L 631.626384 -37.760744 
L 631.935108 -37.702714 
L 632.243831 -37.647292 
L 632.552555 -37.594403 
L 632.861279 -37.543971 
L 633.170003 -37.495919 
L 633.478726 -37.450173 
L 633.78745 -37.406656 
L 634.096174 -37.365294 
L 634.404898 -37.326012 
L 634.713621 -37.288737 
L 635.022345 -37.253394 
L 635.331069 -37.219912 
L 635.639793 -37.188218 
L 635.948517 -37.158243 
L 636.25724 -37.129918 
L 636.565964 -37.103174 
L 636.874688 -37.077943 
L 637.183412 -37.054162 
L 637.492135 -37.031766 
L 637.800859 -37.010693 
L 638.109583 -36.990881 
L 638.418307 -36.972271 
L 638.72703 -36.954806 
L 639.035754 -36.938429 
L 639.344478 -36.923087 
L 639.653202 -36.908726 
L 639.961925 -36.895296 
L 640.270649 -36.882747 
L 640.579373 -36.871032 
L 640.888097 -36.860106 
L 641.19682 -36.849924 
L 641.505544 -36.840445 
L 641.814268 -36.831627 
L 642.122992 -36.823433 
L 642.431715 -36.815824 
L 642.740439 -36.808766 
L 643.049163 -36.802225 
L 643.357887 -36.796168 
L 643.66661 -36.790565 
L 643.975334 -36.785386 
L 644.284058 -36.780604 
L 644.592782 -36.776192 
L 644.901506 -36.772126 
L 645.210229 -36.768382 
L 645.518953 -36.764937 
L 645.827677 -36.761771 
L 646.136401 -36.758864 
L 646.445124 -36.756197 
L 646.753848 -36.753753 
L 647.062572 -36.751514 
L 647.371296 -36.749467 
L 647.680019 -36.747595 
L 647.988743 -36.745887 
L 648.297467 -36.744328 
L 648.606191 -36.742907 
L 648.914914 -36.741614 
L 648.914914 -36.729687 
L 648.914914 -36.729687 
L 648.606191 -36.729687 
L 648.297467 -36.729687 
L 647.988743 -36.729687 
L 647.680019 -36.729687 
L 647.371296 -36.729687 
L 647.062572 -36.729687 
L 646.753848 -36.729687 
L 646.445124 -36.729687 
L 646.136401 -36.729687 
L 645.827677 -36.729687 
L 645.518953 -36.729687 
L 645.210229 -36.729687 
L 644.901506 -36.729687 
L 644.592782 -36.729687 
L 644.284058 -36.729687 
L 643.975334 -36.729687 
L 643.66661 -36.729687 
L 643.357887 -36.729687 
L 643.049163 -36.729687 
L 642.740439 -36.729687 
L 642.431715 -36.729687 
L 642.122992 -36.729687 
L 641.814268 -36.729687 
L 641.505544 -36.729687 
L 641.19682 -36.729687 
L 640.888097 -36.729687 
L 640.579373 -36.729687 
L 640.270649 -36.729687 
L 639.961925 -36.729687 
L 639.653202 -36.729687 
L 639.344478 -36.729687 
L 639.035754 -36.729687 
L 638.72703 -36.729687 
L 638.418307 -36.729687 
L 638.109583 -36.729687 
L 637.800859 -36.729687 
L 637.492135 -36.729687 
L 637.183412 -36.729687 
L 636.874688 -36.729687 
L 636.565964 -36.729687 
L 636.25724 -36.729687 
L 635.948517 -36.729687 
L 635.639793 -36.729687 
L 635.331069 -36.729687 
L 635.022345 -36.729687 
L 634.713621 -36.729687 
L 634.404898 -36.729687 
L 634.096174 -36.729687 
L 633.78745 -36.729687 
L 633.478726 -36.729687 
L 633.170003 -36.729687 
L 632.861279 -36.729687 
L 632.552555 -36.729687 
L 632.243831 -36.729687 
L 631.935108 -36.729687 
L 631.626384 -36.729687 
L 631.31766 -36.729687 
L 631.008936 -36.729687 
L 630.700213 -36.729687 
L 630.391489 -36.729687 
L 630.082765 -36.729687 
L 629.774041 -36.729687 
L 629.465318 -36.729687 
L 629.156594 -36.729687 
L 628.84787 -36.729687 
L 628.539146 -36.729687 
L 628.230423 -36.729687 
L 627.921699 -36.729687 
L 627.612975 -36.729687 
L 627.304251 -36.729687 
L 626.995528 -36.729687 
L 626.686804 -36.729687 
L 626.37808 -36.729687 
L 626.069356 -36.729687 
L 625.760632 -36.729687 
L 625.451909 -36.729687 
L 625.143185 -36.729687 
L 624.834461 -36.729687 
L 624.525737 -36.729687 
L 624.217014 -36.729687 
L 623.90829 -36.729687 
L 623.599566 -36.729687 
L 623.290842 -36.729687 
L 622.982119 -36.729687 
L 622.673395 -36.729687 
L 622.364671 -36.729687 
L 622.055947 -36.729687 
L 621.747224 -36.729687 
L 621.4385 -36.729687 
L 621.129776 -36.729687 
L 620.821052 -36.729687 
L 620.512329 -36.729687 
L 620.203605 -36.729687 
L 619.894881 -36.729687 
L 619.586157 -36.729687 
L 619.277434 -36.729687 
L 618.96871 -36.729687 
L 618.659986 -36.729687 
L 618.351262 -36.729687 
L 618.042539 -36.729687 
L 617.733815 -36.729687 
L 617.425091 -36.729687 
L 617.116367 -36.729687 
L 616.807643 -36.729687 
L 616.49892 -36.729687 
L 616.190196 -36.729687 
L 615.881472 -36.729687 
L 615.572748 -36.729687 
L 615.264025 -36.729687 
L 614.955301 -36.729687 
L 614.646577 -36.729687 
L 614.337853 -36.729687 
L 614.02913 -36.729687 
L 613.720406 -36.729687 
L 613.411682 -36.729687 
L 613.102958 -36.729687 
L 612.794235 -36.729687 
L 612.485511 -36.729687 
L 612.176787 -36.729687 
L 611.868063 -36.729687 
L 611.55934 -36.729687 
L 611.250616 -36.729687 
L 610.941892 -36.729687 
L 610.633168 -36.729687 
L 610.324445 -36.729687 
L 610.015721 -36.729687 
L 609.706997 -36.729687 
L 609.398273 -36.729687 
L 609.089549 -36.729687 
L 608.780826 -36.729687 
L 608.472102 -36.729687 
L 608.163378 -36.729687 
L 607.854654 -36.729687 
L 607.545931 -36.729687 
L 607.237207 -36.729687 
L 606.928483 -36.729687 
L 606.619759 -36.729687 
L 606.311036 -36.729687 
L 606.002312 -36.729687 
L 605.693588 -36.729687 
L 605.384864 -36.729687 
L 605.076141 -36.729687 
L 604.767417 -36.729687 
L 604.458693 -36.729687 
L 604.149969 -36.729687 
L 603.841246 -36.729687 
L 603.532522 -36.729687 
L 603.223798 -36.729687 
L 602.915074 -36.729687 
L 602.606351 -36.729687 
L 602.297627 -36.729687 
L 601.988903 -36.729687 
L 601.680179 -36.729687 
L 601.371456 -36.729687 
L 601.062732 -36.729687 
L 600.754008 -36.729687 
L 600.445284 -36.729687 
L 600.13656 -36.729687 
L 599.827837 -36.729687 
L 599.519113 -36.729687 
L 599.210389 -36.729687 
L 598.901665 -36.729687 
L 598.592942 -36.729687 
L 598.284218 -36.729687 
L 597.975494 -36.729687 
L 597.66677 -36.729687 
L 597.358047 -36.729687 
L 597.049323 -36.729687 
L 596.740599 -36.729687 
L 596.431875 -36.729687 
L 596.123152 -36.729687 
L 595.814428 -36.729687 
L 595.505704 -36.729687 
L 595.19698 -36.729687 
L 594.888257 -36.729687 
L 594.579533 -36.729687 
L 594.270809 -36.729687 
L 593.962085 -36.729687 
L 593.653362 -36.729687 
L 593.344638 -36.729687 
L 593.035914 -36.729687 
L 592.72719 -36.729687 
L 592.418467 -36.729687 
L 592.109743 -36.729687 
L 591.801019 -36.729687 
L 591.492295 -36.729687 
L 591.183571 -36.729687 
L 590.874848 -36.729687 
L 590.566124 -36.729687 
L 590.2574 -36.729687 
L 589.948676 -36.729687 
L 589.639953 -36.729687 
L 589.331229 -36.729687 
L 589.022505 -36.729687 
L 588.713781 -36.729687 
L 588.405058 -36.729687 
L 588.096334 -36.729687 
L 587.78761 -36.729687 
L 587.478886 -36.729687 
L 587.170163 -36.729687 
L 586.861439 -36.729687 
L 586.552715 -36.729687 
L 586.243991 -36.729687 
L 585.935268 -36.729687 
L 585.626544 -36.729687 
L 585.31782 -36.729687 
L 585.009096 -36.729687 
L 584.700373 -36.729687 
L 584.391649 -36.729687 
L 584.082925 -36.729687 
L 583.774201 -36.729687 
L 583.465478 -36.729687 
L 583.156754 -36.729687 
L 582.84803 -36.729687 
L 582.539306 -36.729687 
L 582.230582 -36.729687 
L 581.921859 -36.729687 
L 581.613135 -36.729687 
L 581.304411 -36.729687 
L 580.995687 -36.729687 
L 580.686964 -36.729687 
L 580.37824 -36.729687 
L 580.069516 -36.729687 
L 579.760792 -36.729687 
L 579.452069 -36.729687 
L 579.143345 -36.729687 
L 578.834621 -36.729687 
L 578.525897 -36.729687 
L 578.217174 -36.729687 
L 577.90845 -36.729687 
L 577.599726 -36.729687 
L 577.291002 -36.729687 
L 576.982279 -36.729687 
L 576.673555 -36.729687 
L 576.364831 -36.729687 
L 576.056107 -36.729687 
L 575.747384 -36.729687 
L 575.43866 -36.729687 
L 575.129936 -36.729687 
L 574.821212 -36.729687 
L 574.512489 -36.729687 
L 574.203765 -36.729687 
L 573.895041 -36.729687 
L 573.586317 -36.729687 
L 573.277593 -36.729687 
L 572.96887 -36.729687 
L 572.660146 -36.729687 
L 572.351422 -36.729687 
L 572.042698 -36.729687 
L 571.733975 -36.729687 
L 571.425251 -36.729687 
L 571.116527 -36.729687 
L 570.807803 -36.729687 
L 570.49908 -36.729687 
L 570.190356 -36.729687 
L 569.881632 -36.729687 
L 569.572908 -36.729687 
L 569.264185 -36.729687 
L 568.955461 -36.729687 
L 568.646737 -36.729687 
L 568.338013 -36.729687 
L 568.02929 -36.729687 
L 567.720566 -36.729687 
L 567.411842 -36.729687 
L 567.103118 -36.729687 
L 566.794395 -36.729687 
L 566.485671 -36.729687 
L 566.176947 -36.729687 
L 565.868223 -36.729687 
L 565.559499 -36.729687 
L 565.250776 -36.729687 
L 564.942052 -36.729687 
L 564.633328 -36.729687 
L 564.324604 -36.729687 
L 564.015881 -36.729687 
L 563.707157 -36.729687 
L 563.398433 -36.729687 
L 563.089709 -36.729687 
L 562.780986 -36.729687 
L 562.472262 -36.729687 
L 562.163538 -36.729687 
L 561.854814 -36.729687 
L 561.546091 -36.729687 
L 561.237367 -36.729687 
L 560.928643 -36.729687 
L 560.619919 -36.729687 
L 560.311196 -36.729687 
L 560.002472 -36.729687 
L 559.693748 -36.729687 
L 559.385024 -36.729687 
L 559.076301 -36.729687 
L 558.767577 -36.729687 
L 558.458853 -36.729687 
L 558.150129 -36.729687 
L 557.841406 -36.729687 
L 557.532682 -36.729687 
L 557.223958 -36.729687 
L 556.915234 -36.729687 
L 556.60651 -36.729687 
L 556.297787 -36.729687 
L 555.989063 -36.729687 
L 555.680339 -36.729687 
L 555.371615 -36.729687 
L 555.062892 -36.729687 
L 554.754168 -36.729687 
L 554.445444 -36.729687 
L 554.13672 -36.729687 
L 553.827997 -36.729687 
L 553.519273 -36.729687 
L 553.210549 -36.729687 
L 552.901825 -36.729687 
L 552.593102 -36.729687 
L 552.284378 -36.729687 
L 551.975654 -36.729687 
L 551.66693 -36.729687 
L 551.358207 -36.729687 
L 551.049483 -36.729687 
L 550.740759 -36.729687 
L 550.432035 -36.729687 
L 550.123312 -36.729687 
L 549.814588 -36.729687 
L 549.505864 -36.729687 
L 549.19714 -36.729687 
L 548.888417 -36.729687 
L 548.579693 -36.729687 
L 548.270969 -36.729687 
L 547.962245 -36.729687 
L 547.653521 -36.729687 
L 547.344798 -36.729687 
L 547.036074 -36.729687 
L 546.72735 -36.729687 
L 546.418626 -36.729687 
L 546.109903 -36.729687 
L 545.801179 -36.729687 
L 545.492455 -36.729687 
L 545.183731 -36.729687 
L 544.875008 -36.729687 
L 544.566284 -36.729687 
L 544.25756 -36.729687 
L 543.948836 -36.729687 
L 543.640113 -36.729687 
L 543.331389 -36.729687 
L 543.022665 -36.729687 
L 542.713941 -36.729687 
L 542.405218 -36.729687 
L 542.096494 -36.729687 
L 541.78777 -36.729687 
L 541.479046 -36.729687 
L 541.170323 -36.729687 
L 540.861599 -36.729687 
L 540.552875 -36.729687 
L 540.244151 -36.729687 
L 539.935428 -36.729687 
L 539.626704 -36.729687 
L 539.31798 -36.729687 
L 539.009256 -36.729687 
L 538.700532 -36.729687 
L 538.391809 -36.729687 
L 538.083085 -36.729687 
L 537.774361 -36.729687 
L 537.465637 -36.729687 
L 537.156914 -36.729687 
L 536.84819 -36.729687 
L 536.539466 -36.729687 
L 536.230742 -36.729687 
L 535.922019 -36.729687 
L 535.613295 -36.729687 
L 535.304571 -36.729687 
L 534.995847 -36.729687 
L 534.687124 -36.729687 
L 534.3784 -36.729687 
L 534.069676 -36.729687 
L 533.760952 -36.729687 
L 533.452229 -36.729687 
L 533.143505 -36.729687 
L 532.834781 -36.729687 
L 532.526057 -36.729687 
L 532.217334 -36.729687 
L 531.90861 -36.729687 
L 531.599886 -36.729687 
L 531.291162 -36.729687 
L 530.982438 -36.729687 
L 530.673715 -36.729687 
L 530.364991 -36.729687 
L 530.056267 -36.729687 
L 529.747543 -36.729687 
L 529.43882 -36.729687 
L 529.130096 -36.729687 
L 528.821372 -36.729687 
L 528.512648 -36.729687 
L 528.203925 -36.729687 
L 527.895201 -36.729687 
L 527.586477 -36.729687 
L 527.277753 -36.729687 
L 526.96903 -36.729687 
L 526.660306 -36.729687 
L 526.351582 -36.729687 
L 526.042858 -36.729687 
L 525.734135 -36.729687 
L 525.425411 -36.729687 
L 525.116687 -36.729687 
L 524.807963 -36.729687 
L 524.49924 -36.729687 
L 524.190516 -36.729687 
L 523.881792 -36.729687 
L 523.573068 -36.729687 
L 523.264345 -36.729687 
L 522.955621 -36.729687 
L 522.646897 -36.729687 
L 522.338173 -36.729687 
L 522.029449 -36.729687 
L 521.720726 -36.729687 
L 521.412002 -36.729687 
L 521.103278 -36.729687 
L 520.794554 -36.729687 
L 520.485831 -36.729687 
L 520.177107 -36.729687 
L 519.868383 -36.729687 
L 519.559659 -36.729687 
L 519.250936 -36.729687 
L 518.942212 -36.729687 
L 518.633488 -36.729687 
L 518.324764 -36.729687 
L 518.016041 -36.729687 
L 517.707317 -36.729687 
L 517.398593 -36.729687 
L 517.089869 -36.729687 
L 516.781146 -36.729687 
L 516.472422 -36.729687 
L 516.163698 -36.729687 
L 515.854974 -36.729687 
L 515.546251 -36.729687 
L 515.237527 -36.729687 
L 514.928803 -36.729687 
L 514.620079 -36.729687 
L 514.311356 -36.729687 
L 514.002632 -36.729687 
L 513.693908 -36.729687 
L 513.385184 -36.729687 
L 513.07646 -36.729687 
L 512.767737 -36.729687 
L 512.459013 -36.729687 
L 512.150289 -36.729687 
L 511.841565 -36.729687 
L 511.532842 -36.729687 
L 511.224118 -36.729687 
L 510.915394 -36.729687 
L 510.60667 -36.729687 
L 510.297947 -36.729687 
L 509.989223 -36.729687 
L 509.680499 -36.729687 
L 509.371775 -36.729687 
L 509.063052 -36.729687 
L 508.754328 -36.729687 
L 508.445604 -36.729687 
L 508.13688 -36.729687 
L 507.828157 -36.729687 
L 507.519433 -36.729687 
L 507.210709 -36.729687 
L 506.901985 -36.729687 
L 506.593262 -36.729687 
L 506.284538 -36.729687 
L 505.975814 -36.729687 
L 505.66709 -36.729687 
L 505.358367 -36.729687 
L 505.049643 -36.729687 
L 504.740919 -36.729687 
L 504.432195 -36.729687 
L 504.123471 -36.729687 
L 503.814748 -36.729687 
L 503.506024 -36.729687 
L 503.1973 -36.729687 
L 502.888576 -36.729687 
L 502.579853 -36.729687 
L 502.271129 -36.729687 
L 501.962405 -36.729687 
L 501.653681 -36.729687 
L 501.344958 -36.729687 
L 501.036234 -36.729687 
L 500.72751 -36.729687 
L 500.418786 -36.729687 
L 500.110063 -36.729687 
L 499.801339 -36.729687 
L 499.492615 -36.729687 
L 499.183891 -36.729687 
L 498.875168 -36.729687 
L 498.566444 -36.729687 
L 498.25772 -36.729687 
L 497.948996 -36.729687 
L 497.640273 -36.729687 
L 497.331549 -36.729687 
L 497.022825 -36.729687 
L 496.714101 -36.729687 
L 496.405378 -36.729687 
L 496.096654 -36.729687 
L 495.78793 -36.729687 
L 495.479206 -36.729687 
L 495.170482 -36.729687 
L 494.861759 -36.729687 
L 494.553035 -36.729687 
L 494.244311 -36.729687 
L 493.935587 -36.729687 
L 493.626864 -36.729687 
L 493.31814 -36.729687 
L 493.009416 -36.729687 
L 492.700692 -36.729687 
L 492.391969 -36.729687 
L 492.083245 -36.729687 
L 491.774521 -36.729687 
L 491.465797 -36.729687 
L 491.157074 -36.729687 
L 490.84835 -36.729687 
L 490.539626 -36.729687 
L 490.230902 -36.729687 
L 489.922179 -36.729687 
L 489.613455 -36.729687 
L 489.304731 -36.729687 
L 488.996007 -36.729687 
L 488.687284 -36.729687 
L 488.37856 -36.729687 
L 488.069836 -36.729687 
L 487.761112 -36.729687 
L 487.452388 -36.729687 
L 487.143665 -36.729687 
L 486.834941 -36.729687 
L 486.526217 -36.729687 
L 486.217493 -36.729687 
L 485.90877 -36.729687 
L 485.600046 -36.729687 
L 485.291322 -36.729687 
L 484.982598 -36.729687 
L 484.673875 -36.729687 
L 484.365151 -36.729687 
L 484.056427 -36.729687 
L 483.747703 -36.729687 
L 483.43898 -36.729687 
L 483.130256 -36.729687 
L 482.821532 -36.729687 
L 482.512808 -36.729687 
L 482.204085 -36.729687 
L 481.895361 -36.729687 
L 481.586637 -36.729687 
L 481.277913 -36.729687 
L 480.96919 -36.729687 
L 480.660466 -36.729687 
L 480.351742 -36.729687 
L 480.043018 -36.729687 
L 479.734295 -36.729687 
L 479.425571 -36.729687 
L 479.116847 -36.729687 
L 478.808123 -36.729687 
L 478.499399 -36.729687 
L 478.190676 -36.729687 
L 477.881952 -36.729687 
L 477.573228 -36.729687 
L 477.264504 -36.729687 
L 476.955781 -36.729687 
L 476.647057 -36.729687 
L 476.338333 -36.729687 
L 476.029609 -36.729687 
L 475.720886 -36.729687 
L 475.412162 -36.729687 
L 475.103438 -36.729687 
L 474.794714 -36.729687 
L 474.485991 -36.729687 
L 474.177267 -36.729687 
L 473.868543 -36.729687 
L 473.559819 -36.729687 
L 473.251096 -36.729687 
L 472.942372 -36.729687 
L 472.633648 -36.729687 
L 472.324924 -36.729687 
L 472.016201 -36.729687 
L 471.707477 -36.729687 
L 471.398753 -36.729687 
L 471.090029 -36.729687 
L 470.781306 -36.729687 
L 470.472582 -36.729687 
L 470.163858 -36.729687 
L 469.855134 -36.729687 
L 469.54641 -36.729687 
L 469.237687 -36.729687 
L 468.928963 -36.729687 
L 468.620239 -36.729687 
L 468.311515 -36.729687 
L 468.002792 -36.729687 
L 467.694068 -36.729687 
L 467.385344 -36.729687 
L 467.07662 -36.729687 
L 466.767897 -36.729687 
L 466.459173 -36.729687 
L 466.150449 -36.729687 
L 465.841725 -36.729687 
L 465.533002 -36.729687 
L 465.224278 -36.729687 
L 464.915554 -36.729687 
L 464.60683 -36.729687 
L 464.298107 -36.729687 
L 463.989383 -36.729687 
L 463.680659 -36.729687 
L 463.371935 -36.729687 
L 463.063212 -36.729687 
L 462.754488 -36.729687 
L 462.445764 -36.729687 
L 462.13704 -36.729687 
L 461.828317 -36.729687 
L 461.519593 -36.729687 
L 461.210869 -36.729687 
L 460.902145 -36.729687 
L 460.593421 -36.729687 
L 460.284698 -36.729687 
L 459.975974 -36.729687 
L 459.66725 -36.729687 
L 459.358526 -36.729687 
L 459.049803 -36.729687 
L 458.741079 -36.729687 
L 458.432355 -36.729687 
L 458.123631 -36.729687 
L 457.814908 -36.729687 
L 457.506184 -36.729687 
L 457.19746 -36.729687 
L 456.888736 -36.729687 
L 456.580013 -36.729687 
L 456.271289 -36.729687 
L 455.962565 -36.729687 
L 455.653841 -36.729687 
L 455.345118 -36.729687 
L 455.036394 -36.729687 
L 454.72767 -36.729687 
L 454.418946 -36.729687 
L 454.110223 -36.729687 
L 453.801499 -36.729687 
L 453.492775 -36.729687 
L 453.184051 -36.729687 
L 452.875327 -36.729687 
L 452.566604 -36.729687 
L 452.25788 -36.729687 
L 451.949156 -36.729687 
L 451.640432 -36.729687 
L 451.331709 -36.729687 
L 451.022985 -36.729687 
L 450.714261 -36.729687 
L 450.405537 -36.729687 
L 450.096814 -36.729687 
L 449.78809 -36.729687 
L 449.479366 -36.729687 
L 449.170642 -36.729687 
L 448.861919 -36.729687 
L 448.553195 -36.729687 
L 448.244471 -36.729687 
L 447.935747 -36.729687 
L 447.627024 -36.729687 
L 447.3183 -36.729687 
L 447.009576 -36.729687 
L 446.700852 -36.729687 
L 446.392129 -36.729687 
L 446.083405 -36.729687 
L 445.774681 -36.729687 
L 445.465957 -36.729687 
L 445.157234 -36.729687 
L 444.84851 -36.729687 
L 444.539786 -36.729687 
L 444.231062 -36.729687 
L 443.922338 -36.729687 
L 443.613615 -36.729687 
L 443.304891 -36.729687 
L 442.996167 -36.729687 
L 442.687443 -36.729687 
L 442.37872 -36.729687 
L 442.069996 -36.729687 
L 441.761272 -36.729687 
L 441.452548 -36.729687 
L 441.143825 -36.729687 
L 440.835101 -36.729687 
L 440.526377 -36.729687 
L 440.217653 -36.729687 
L 439.90893 -36.729687 
L 439.600206 -36.729687 
L 439.291482 -36.729687 
L 438.982758 -36.729687 
L 438.674035 -36.729687 
L 438.365311 -36.729687 
L 438.056587 -36.729687 
L 437.747863 -36.729687 
L 437.43914 -36.729687 
L 437.130416 -36.729687 
L 436.821692 -36.729687 
L 436.512968 -36.729687 
L 436.204245 -36.729687 
L 435.895521 -36.729687 
L 435.586797 -36.729687 
L 435.278073 -36.729687 
L 434.969349 -36.729687 
L 434.660626 -36.729687 
L 434.351902 -36.729687 
L 434.043178 -36.729687 
L 433.734454 -36.729687 
L 433.425731 -36.729687 
L 433.117007 -36.729687 
L 432.808283 -36.729687 
L 432.499559 -36.729687 
L 432.190836 -36.729687 
L 431.882112 -36.729687 
L 431.573388 -36.729687 
L 431.264664 -36.729687 
L 430.955941 -36.729687 
L 430.647217 -36.729687 
L 430.338493 -36.729687 
L 430.029769 -36.729687 
L 429.721046 -36.729687 
L 429.412322 -36.729687 
L 429.103598 -36.729687 
L 428.794874 -36.729687 
L 428.486151 -36.729687 
L 428.177427 -36.729687 
L 427.868703 -36.729687 
L 427.559979 -36.729687 
L 427.251256 -36.729687 
L 426.942532 -36.729687 
L 426.633808 -36.729687 
L 426.325084 -36.729687 
L 426.01636 -36.729687 
L 425.707637 -36.729687 
L 425.398913 -36.729687 
L 425.090189 -36.729687 
L 424.781465 -36.729687 
L 424.472742 -36.729687 
L 424.164018 -36.729687 
L 423.855294 -36.729687 
L 423.54657 -36.729687 
L 423.237847 -36.729687 
L 422.929123 -36.729687 
L 422.620399 -36.729687 
L 422.311675 -36.729687 
L 422.002952 -36.729687 
L 421.694228 -36.729687 
L 421.385504 -36.729687 
L 421.07678 -36.729687 
L 420.768057 -36.729687 
L 420.459333 -36.729687 
L 420.150609 -36.729687 
L 419.841885 -36.729687 
L 419.533162 -36.729687 
L 419.224438 -36.729687 
L 418.915714 -36.729687 
L 418.60699 -36.729687 
L 418.298266 -36.729687 
L 417.989543 -36.729687 
L 417.680819 -36.729687 
L 417.372095 -36.729687 
L 417.063371 -36.729687 
L 416.754648 -36.729687 
L 416.445924 -36.729687 
L 416.1372 -36.729687 
L 415.828476 -36.729687 
L 415.519753 -36.729687 
L 415.211029 -36.729687 
L 414.902305 -36.729687 
L 414.593581 -36.729687 
L 414.284858 -36.729687 
L 413.976134 -36.729687 
L 413.66741 -36.729687 
L 413.358686 -36.729687 
L 413.049963 -36.729687 
L 412.741239 -36.729687 
L 412.432515 -36.729687 
L 412.123791 -36.729687 
L 411.815068 -36.729687 
L 411.506344 -36.729687 
L 411.19762 -36.729687 
L 410.888896 -36.729687 
L 410.580173 -36.729687 
L 410.271449 -36.729687 
L 409.962725 -36.729687 
L 409.654001 -36.729687 
L 409.345277 -36.729687 
L 409.036554 -36.729687 
L 408.72783 -36.729687 
L 408.419106 -36.729687 
L 408.110382 -36.729687 
L 407.801659 -36.729687 
L 407.492935 -36.729687 
L 407.184211 -36.729687 
L 406.875487 -36.729687 
L 406.566764 -36.729687 
L 406.25804 -36.729687 
L 405.949316 -36.729687 
L 405.640592 -36.729687 
L 405.331869 -36.729687 
L 405.023145 -36.729687 
L 404.714421 -36.729687 
L 404.405697 -36.729687 
L 404.096974 -36.729687 
L 403.78825 -36.729687 
L 403.479526 -36.729687 
L 403.170802 -36.729687 
L 402.862079 -36.729687 
L 402.553355 -36.729687 
L 402.244631 -36.729687 
L 401.935907 -36.729687 
L 401.627184 -36.729687 
L 401.31846 -36.729687 
L 401.009736 -36.729687 
L 400.701012 -36.729687 
L 400.392288 -36.729687 
L 400.083565 -36.729687 
L 399.774841 -36.729687 
L 399.466117 -36.729687 
L 399.157393 -36.729687 
L 398.84867 -36.729687 
L 398.539946 -36.729687 
L 398.231222 -36.729687 
L 397.922498 -36.729687 
L 397.613775 -36.729687 
L 397.305051 -36.729687 
L 396.996327 -36.729687 
L 396.687603 -36.729687 
L 396.37888 -36.729687 
L 396.070156 -36.729687 
L 395.761432 -36.729687 
L 395.452708 -36.729687 
L 395.143985 -36.729687 
L 394.835261 -36.729687 
L 394.526537 -36.729687 
L 394.217813 -36.729687 
L 393.90909 -36.729687 
L 393.600366 -36.729687 
L 393.291642 -36.729687 
L 392.982918 -36.729687 
L 392.674195 -36.729687 
L 392.365471 -36.729687 
L 392.056747 -36.729687 
L 391.748023 -36.729687 
L 391.439299 -36.729687 
L 391.130576 -36.729687 
L 390.821852 -36.729687 
L 390.513128 -36.729687 
L 390.204404 -36.729687 
L 389.895681 -36.729687 
L 389.586957 -36.729687 
L 389.278233 -36.729687 
L 388.969509 -36.729687 
L 388.660786 -36.729687 
L 388.352062 -36.729687 
L 388.043338 -36.729687 
L 387.734614 -36.729687 
L 387.425891 -36.729687 
L 387.117167 -36.729687 
L 386.808443 -36.729687 
L 386.499719 -36.729687 
L 386.190996 -36.729687 
L 385.882272 -36.729687 
L 385.573548 -36.729687 
L 385.264824 -36.729687 
L 384.956101 -36.729687 
L 384.647377 -36.729687 
L 384.338653 -36.729687 
L 384.029929 -36.729687 
L 383.721206 -36.729687 
L 383.412482 -36.729687 
L 383.103758 -36.729687 
L 382.795034 -36.729687 
L 382.48631 -36.729687 
L 382.177587 -36.729687 
L 381.868863 -36.729687 
L 381.560139 -36.729687 
L 381.251415 -36.729687 
L 380.942692 -36.729687 
L 380.633968 -36.729687 
L 380.325244 -36.729687 
L 380.01652 -36.729687 
L 379.707797 -36.729687 
L 379.399073 -36.729687 
L 379.090349 -36.729687 
L 378.781625 -36.729687 
L 378.472902 -36.729687 
L 378.164178 -36.729687 
L 377.855454 -36.729687 
L 377.54673 -36.729687 
L 377.238007 -36.729687 
L 376.929283 -36.729687 
L 376.620559 -36.729687 
L 376.311835 -36.729687 
L 376.003112 -36.729687 
L 375.694388 -36.729687 
L 375.385664 -36.729687 
L 375.07694 -36.729687 
L 374.768216 -36.729687 
L 374.459493 -36.729687 
L 374.150769 -36.729687 
L 373.842045 -36.729687 
L 373.533321 -36.729687 
L 373.224598 -36.729687 
L 372.915874 -36.729687 
L 372.60715 -36.729687 
L 372.298426 -36.729687 
L 371.989703 -36.729687 
L 371.680979 -36.729687 
L 371.372255 -36.729687 
L 371.063531 -36.729687 
L 370.754808 -36.729687 
L 370.446084 -36.729687 
L 370.13736 -36.729687 
L 369.828636 -36.729687 
L 369.519913 -36.729687 
L 369.211189 -36.729687 
L 368.902465 -36.729687 
L 368.593741 -36.729687 
L 368.285018 -36.729687 
L 367.976294 -36.729687 
L 367.66757 -36.729687 
L 367.358846 -36.729687 
L 367.050123 -36.729687 
L 366.741399 -36.729687 
L 366.432675 -36.729687 
L 366.123951 -36.729687 
L 365.815227 -36.729687 
L 365.506504 -36.729687 
L 365.19778 -36.729687 
L 364.889056 -36.729687 
L 364.580332 -36.729687 
L 364.271609 -36.729687 
L 363.962885 -36.729687 
L 363.654161 -36.729687 
L 363.345437 -36.729687 
L 363.036714 -36.729687 
L 362.72799 -36.729687 
L 362.419266 -36.729687 
L 362.110542 -36.729687 
L 361.801819 -36.729687 
L 361.493095 -36.729687 
L 361.184371 -36.729687 
L 360.875647 -36.729687 
L 360.566924 -36.729687 
L 360.2582 -36.729687 
L 359.949476 -36.729687 
L 359.640752 -36.729687 
L 359.332029 -36.729687 
L 359.023305 -36.729687 
L 358.714581 -36.729687 
L 358.405857 -36.729687 
L 358.097134 -36.729687 
L 357.78841 -36.729687 
L 357.479686 -36.729687 
L 357.170962 -36.729687 
L 356.862238 -36.729687 
L 356.553515 -36.729687 
L 356.244791 -36.729687 
L 355.936067 -36.729687 
L 355.627343 -36.729687 
L 355.31862 -36.729687 
L 355.009896 -36.729687 
L 354.701172 -36.729687 
L 354.392448 -36.729687 
L 354.083725 -36.729687 
L 353.775001 -36.729687 
L 353.466277 -36.729687 
L 353.157553 -36.729687 
L 352.84883 -36.729687 
L 352.540106 -36.729687 
L 352.231382 -36.729687 
L 351.922658 -36.729687 
L 351.613935 -36.729687 
L 351.305211 -36.729687 
L 350.996487 -36.729687 
L 350.687763 -36.729687 
L 350.37904 -36.729687 
L 350.070316 -36.729687 
L 349.761592 -36.729687 
L 349.452868 -36.729687 
L 349.144145 -36.729687 
L 348.835421 -36.729687 
L 348.526697 -36.729687 
L 348.217973 -36.729687 
L 347.909249 -36.729687 
L 347.600526 -36.729687 
L 347.291802 -36.729687 
L 346.983078 -36.729687 
L 346.674354 -36.729687 
L 346.365631 -36.729687 
L 346.056907 -36.729687 
L 345.748183 -36.729687 
L 345.439459 -36.729687 
L 345.130736 -36.729687 
L 344.822012 -36.729687 
L 344.513288 -36.729687 
L 344.204564 -36.729687 
L 343.895841 -36.729687 
L 343.587117 -36.729687 
L 343.278393 -36.729687 
L 342.969669 -36.729687 
L 342.660946 -36.729687 
L 342.352222 -36.729687 
L 342.043498 -36.729687 
L 341.734774 -36.729687 
L 341.426051 -36.729687 
L 341.117327 -36.729687 
L 340.808603 -36.729687 
L 340.499879 -36.729687 
z
" style="stroke: #4c72b0; stroke-opacity: 0.2"/>
    </defs>
    <g>
     <use xlink:href="#m6d1d0a5654" x="0" y="183.151437" style="fill: #4c72b0; fill-opacity: 0.2; stroke: #4c72b0; stroke-opacity: 0.2"/>
    </g>
   </g>
   <g id="FillBetweenPolyCollection_2">
    <defs>
     <path id="me67dae89a6" d="M 340.499879 -36.734724 
L 340.499879 -36.729687 
L 340.808603 -36.729687 
L 341.117327 -36.729687 
L 341.426051 -36.729687 
L 341.734774 -36.729687 
L 342.043498 -36.729687 
L 342.352222 -36.729687 
L 342.660946 -36.729687 
L 342.969669 -36.729687 
L 343.278393 -36.729687 
L 343.587117 -36.729687 
L 343.895841 -36.729687 
L 344.204564 -36.729687 
L 344.513288 -36.729687 
L 344.822012 -36.729687 
L 345.130736 -36.729687 
L 345.439459 -36.729687 
L 345.748183 -36.729687 
L 346.056907 -36.729687 
L 346.365631 -36.729687 
L 346.674354 -36.729687 
L 346.983078 -36.729687 
L 347.291802 -36.729687 
L 347.600526 -36.729687 
L 347.909249 -36.729687 
L 348.217973 -36.729687 
L 348.526697 -36.729687 
L 348.835421 -36.729687 
L 349.144145 -36.729687 
L 349.452868 -36.729687 
L 349.761592 -36.729687 
L 350.070316 -36.729687 
L 350.37904 -36.729687 
L 350.687763 -36.729687 
L 350.996487 -36.729687 
L 351.305211 -36.729687 
L 351.613935 -36.729687 
L 351.922658 -36.729687 
L 352.231382 -36.729687 
L 352.540106 -36.729687 
L 352.84883 -36.729687 
L 353.157553 -36.729687 
L 353.466277 -36.729687 
L 353.775001 -36.729687 
L 354.083725 -36.729687 
L 354.392448 -36.729687 
L 354.701172 -36.729687 
L 355.009896 -36.729687 
L 355.31862 -36.729687 
L 355.627343 -36.729687 
L 355.936067 -36.729687 
L 356.244791 -36.729687 
L 356.553515 -36.729687 
L 356.862238 -36.729687 
L 357.170962 -36.729687 
L 357.479686 -36.729687 
L 357.78841 -36.729687 
L 358.097134 -36.729687 
L 358.405857 -36.729687 
L 358.714581 -36.729687 
L 359.023305 -36.729687 
L 359.332029 -36.729687 
L 359.640752 -36.729687 
L 359.949476 -36.729687 
L 360.2582 -36.729687 
L 360.566924 -36.729687 
L 360.875647 -36.729687 
L 361.184371 -36.729687 
L 361.493095 -36.729687 
L 361.801819 -36.729687 
L 362.110542 -36.729687 
L 362.419266 -36.729687 
L 362.72799 -36.729687 
L 363.036714 -36.729687 
L 363.345437 -36.729687 
L 363.654161 -36.729687 
L 363.962885 -36.729687 
L 364.271609 -36.729687 
L 364.580332 -36.729687 
L 364.889056 -36.729687 
L 365.19778 -36.729687 
L 365.506504 -36.729687 
L 365.815227 -36.729687 
L 366.123951 -36.729687 
L 366.432675 -36.729687 
L 366.741399 -36.729687 
L 367.050123 -36.729687 
L 367.358846 -36.729687 
L 367.66757 -36.729687 
L 367.976294 -36.729687 
L 368.285018 -36.729687 
L 368.593741 -36.729687 
L 368.902465 -36.729687 
L 369.211189 -36.729687 
L 369.519913 -36.729687 
L 369.828636 -36.729687 
L 370.13736 -36.729687 
L 370.446084 -36.729687 
L 370.754808 -36.729687 
L 371.063531 -36.729687 
L 371.372255 -36.729687 
L 371.680979 -36.729687 
L 371.989703 -36.729687 
L 372.298426 -36.729687 
L 372.60715 -36.729687 
L 372.915874 -36.729687 
L 373.224598 -36.729687 
L 373.533321 -36.729687 
L 373.842045 -36.729687 
L 374.150769 -36.729687 
L 374.459493 -36.729687 
L 374.768216 -36.729687 
L 375.07694 -36.729687 
L 375.385664 -36.729687 
L 375.694388 -36.729687 
L 376.003112 -36.729687 
L 376.311835 -36.729687 
L 376.620559 -36.729687 
L 376.929283 -36.729687 
L 377.238007 -36.729687 
L 377.54673 -36.729687 
L 377.855454 -36.729687 
L 378.164178 -36.729687 
L 378.472902 -36.729687 
L 378.781625 -36.729687 
L 379.090349 -36.729687 
L 379.399073 -36.729687 
L 379.707797 -36.729687 
L 380.01652 -36.729687 
L 380.325244 -36.729687 
L 380.633968 -36.729687 
L 380.942692 -36.729687 
L 381.251415 -36.729687 
L 381.560139 -36.729687 
L 381.868863 -36.729687 
L 382.177587 -36.729687 
L 382.48631 -36.729687 
L 382.795034 -36.729687 
L 383.103758 -36.729687 
L 383.412482 -36.729687 
L 383.721206 -36.729687 
L 384.029929 -36.729687 
L 384.338653 -36.729687 
L 384.647377 -36.729687 
L 384.956101 -36.729687 
L 385.264824 -36.729687 
L 385.573548 -36.729687 
L 385.882272 -36.729687 
L 386.190996 -36.729687 
L 386.499719 -36.729687 
L 386.808443 -36.729687 
L 387.117167 -36.729687 
L 387.425891 -36.729687 
L 387.734614 -36.729687 
L 388.043338 -36.729687 
L 388.352062 -36.729687 
L 388.660786 -36.729687 
L 388.969509 -36.729687 
L 389.278233 -36.729687 
L 389.586957 -36.729687 
L 389.895681 -36.729687 
L 390.204404 -36.729687 
L 390.513128 -36.729687 
L 390.821852 -36.729687 
L 391.130576 -36.729687 
L 391.439299 -36.729687 
L 391.748023 -36.729687 
L 392.056747 -36.729687 
L 392.365471 -36.729687 
L 392.674195 -36.729687 
L 392.982918 -36.729687 
L 393.291642 -36.729687 
L 393.600366 -36.729687 
L 393.90909 -36.729687 
L 394.217813 -36.729687 
L 394.526537 -36.729687 
L 394.835261 -36.729687 
L 395.143985 -36.729687 
L 395.452708 -36.729687 
L 395.761432 -36.729687 
L 396.070156 -36.729687 
L 396.37888 -36.729687 
L 396.687603 -36.729687 
L 396.996327 -36.729687 
L 397.305051 -36.729687 
L 397.613775 -36.729687 
L 397.922498 -36.729687 
L 398.231222 -36.729687 
L 398.539946 -36.729687 
L 398.84867 -36.729687 
L 399.157393 -36.729687 
L 399.466117 -36.729687 
L 399.774841 -36.729687 
L 400.083565 -36.729687 
L 400.392288 -36.729687 
L 400.701012 -36.729687 
L 401.009736 -36.729687 
L 401.31846 -36.729687 
L 401.627184 -36.729687 
L 401.935907 -36.729687 
L 402.244631 -36.729687 
L 402.553355 -36.729687 
L 402.862079 -36.729687 
L 403.170802 -36.729687 
L 403.479526 -36.729687 
L 403.78825 -36.729687 
L 404.096974 -36.729687 
L 404.405697 -36.729687 
L 404.714421 -36.729687 
L 405.023145 -36.729687 
L 405.331869 -36.729687 
L 405.640592 -36.729687 
L 405.949316 -36.729687 
L 406.25804 -36.729687 
L 406.566764 -36.729687 
L 406.875487 -36.729687 
L 407.184211 -36.729687 
L 407.492935 -36.729687 
L 407.801659 -36.729687 
L 408.110382 -36.729687 
L 408.419106 -36.729687 
L 408.72783 -36.729687 
L 409.036554 -36.729687 
L 409.345277 -36.729687 
L 409.654001 -36.729687 
L 409.962725 -36.729687 
L 410.271449 -36.729687 
L 410.580173 -36.729687 
L 410.888896 -36.729687 
L 411.19762 -36.729687 
L 411.506344 -36.729687 
L 411.815068 -36.729687 
L 412.123791 -36.729687 
L 412.432515 -36.729687 
L 412.741239 -36.729687 
L 413.049963 -36.729687 
L 413.358686 -36.729687 
L 413.66741 -36.729687 
L 413.976134 -36.729687 
L 414.284858 -36.729687 
L 414.593581 -36.729687 
L 414.902305 -36.729687 
L 415.211029 -36.729687 
L 415.519753 -36.729687 
L 415.828476 -36.729687 
L 416.1372 -36.729687 
L 416.445924 -36.729687 
L 416.754648 -36.729687 
L 417.063371 -36.729687 
L 417.372095 -36.729687 
L 417.680819 -36.729687 
L 417.989543 -36.729687 
L 418.298266 -36.729687 
L 418.60699 -36.729687 
L 418.915714 -36.729687 
L 419.224438 -36.729687 
L 419.533162 -36.729687 
L 419.841885 -36.729687 
L 420.150609 -36.729687 
L 420.459333 -36.729687 
L 420.768057 -36.729687 
L 421.07678 -36.729687 
L 421.385504 -36.729687 
L 421.694228 -36.729687 
L 422.002952 -36.729687 
L 422.311675 -36.729687 
L 422.620399 -36.729687 
L 422.929123 -36.729687 
L 423.237847 -36.729687 
L 423.54657 -36.729687 
L 423.855294 -36.729687 
L 424.164018 -36.729687 
L 424.472742 -36.729687 
L 424.781465 -36.729687 
L 425.090189 -36.729687 
L 425.398913 -36.729687 
L 425.707637 -36.729687 
L 426.01636 -36.729687 
L 426.325084 -36.729687 
L 426.633808 -36.729687 
L 426.942532 -36.729687 
L 427.251256 -36.729687 
L 427.559979 -36.729687 
L 427.868703 -36.729687 
L 428.177427 -36.729687 
L 428.486151 -36.729687 
L 428.794874 -36.729687 
L 429.103598 -36.729687 
L 429.412322 -36.729687 
L 429.721046 -36.729687 
L 430.029769 -36.729687 
L 430.338493 -36.729687 
L 430.647217 -36.729687 
L 430.955941 -36.729687 
L 431.264664 -36.729687 
L 431.573388 -36.729687 
L 431.882112 -36.729687 
L 432.190836 -36.729687 
L 432.499559 -36.729687 
L 432.808283 -36.729687 
L 433.117007 -36.729687 
L 433.425731 -36.729687 
L 433.734454 -36.729687 
L 434.043178 -36.729687 
L 434.351902 -36.729687 
L 434.660626 -36.729687 
L 434.969349 -36.729687 
L 435.278073 -36.729687 
L 435.586797 -36.729687 
L 435.895521 -36.729687 
L 436.204245 -36.729687 
L 436.512968 -36.729687 
L 436.821692 -36.729687 
L 437.130416 -36.729687 
L 437.43914 -36.729687 
L 437.747863 -36.729687 
L 438.056587 -36.729687 
L 438.365311 -36.729687 
L 438.674035 -36.729687 
L 438.982758 -36.729687 
L 439.291482 -36.729687 
L 439.600206 -36.729687 
L 439.90893 -36.729687 
L 440.217653 -36.729687 
L 440.526377 -36.729687 
L 440.835101 -36.729687 
L 441.143825 -36.729687 
L 441.452548 -36.729687 
L 441.761272 -36.729687 
L 442.069996 -36.729687 
L 442.37872 -36.729687 
L 442.687443 -36.729687 
L 442.996167 -36.729687 
L 443.304891 -36.729687 
L 443.613615 -36.729687 
L 443.922338 -36.729687 
L 444.231062 -36.729687 
L 444.539786 -36.729687 
L 444.84851 -36.729687 
L 445.157234 -36.729687 
L 445.465957 -36.729687 
L 445.774681 -36.729687 
L 446.083405 -36.729687 
L 446.392129 -36.729687 
L 446.700852 -36.729687 
L 447.009576 -36.729687 
L 447.3183 -36.729687 
L 447.627024 -36.729687 
L 447.935747 -36.729687 
L 448.244471 -36.729687 
L 448.553195 -36.729687 
L 448.861919 -36.729687 
L 449.170642 -36.729687 
L 449.479366 -36.729687 
L 449.78809 -36.729687 
L 450.096814 -36.729687 
L 450.405537 -36.729687 
L 450.714261 -36.729687 
L 451.022985 -36.729687 
L 451.331709 -36.729687 
L 451.640432 -36.729687 
L 451.949156 -36.729687 
L 452.25788 -36.729687 
L 452.566604 -36.729687 
L 452.875327 -36.729687 
L 453.184051 -36.729687 
L 453.492775 -36.729687 
L 453.801499 -36.729687 
L 454.110223 -36.729687 
L 454.418946 -36.729687 
L 454.72767 -36.729687 
L 455.036394 -36.729687 
L 455.345118 -36.729687 
L 455.653841 -36.729687 
L 455.962565 -36.729687 
L 456.271289 -36.729687 
L 456.580013 -36.729687 
L 456.888736 -36.729687 
L 457.19746 -36.729687 
L 457.506184 -36.729687 
L 457.814908 -36.729687 
L 458.123631 -36.729687 
L 458.432355 -36.729687 
L 458.741079 -36.729687 
L 459.049803 -36.729687 
L 459.358526 -36.729687 
L 459.66725 -36.729687 
L 459.975974 -36.729687 
L 460.284698 -36.729687 
L 460.593421 -36.729687 
L 460.902145 -36.729687 
L 461.210869 -36.729687 
L 461.519593 -36.729687 
L 461.828317 -36.729687 
L 462.13704 -36.729687 
L 462.445764 -36.729687 
L 462.754488 -36.729687 
L 463.063212 -36.729687 
L 463.371935 -36.729687 
L 463.680659 -36.729687 
L 463.989383 -36.729687 
L 464.298107 -36.729687 
L 464.60683 -36.729687 
L 464.915554 -36.729687 
L 465.224278 -36.729687 
L 465.533002 -36.729687 
L 465.841725 -36.729687 
L 466.150449 -36.729687 
L 466.459173 -36.729687 
L 466.767897 -36.729687 
L 467.07662 -36.729687 
L 467.385344 -36.729687 
L 467.694068 -36.729687 
L 468.002792 -36.729687 
L 468.311515 -36.729687 
L 468.620239 -36.729687 
L 468.928963 -36.729687 
L 469.237687 -36.729687 
L 469.54641 -36.729687 
L 469.855134 -36.729687 
L 470.163858 -36.729687 
L 470.472582 -36.729687 
L 470.781306 -36.729687 
L 471.090029 -36.729687 
L 471.398753 -36.729687 
L 471.707477 -36.729687 
L 472.016201 -36.729687 
L 472.324924 -36.729687 
L 472.633648 -36.729687 
L 472.942372 -36.729687 
L 473.251096 -36.729687 
L 473.559819 -36.729687 
L 473.868543 -36.729687 
L 474.177267 -36.729687 
L 474.485991 -36.729687 
L 474.794714 -36.729687 
L 475.103438 -36.729687 
L 475.412162 -36.729687 
L 475.720886 -36.729687 
L 476.029609 -36.729687 
L 476.338333 -36.729687 
L 476.647057 -36.729687 
L 476.955781 -36.729687 
L 477.264504 -36.729687 
L 477.573228 -36.729687 
L 477.881952 -36.729687 
L 478.190676 -36.729687 
L 478.499399 -36.729687 
L 478.808123 -36.729687 
L 479.116847 -36.729687 
L 479.425571 -36.729687 
L 479.734295 -36.729687 
L 480.043018 -36.729687 
L 480.351742 -36.729687 
L 480.660466 -36.729687 
L 480.96919 -36.729687 
L 481.277913 -36.729687 
L 481.586637 -36.729687 
L 481.895361 -36.729687 
L 482.204085 -36.729687 
L 482.512808 -36.729687 
L 482.821532 -36.729687 
L 483.130256 -36.729687 
L 483.43898 -36.729687 
L 483.747703 -36.729687 
L 484.056427 -36.729687 
L 484.365151 -36.729687 
L 484.673875 -36.729687 
L 484.982598 -36.729687 
L 485.291322 -36.729687 
L 485.600046 -36.729687 
L 485.90877 -36.729687 
L 486.217493 -36.729687 
L 486.526217 -36.729687 
L 486.834941 -36.729687 
L 487.143665 -36.729687 
L 487.452388 -36.729687 
L 487.761112 -36.729687 
L 488.069836 -36.729687 
L 488.37856 -36.729687 
L 488.687284 -36.729687 
L 488.996007 -36.729687 
L 489.304731 -36.729687 
L 489.508556 -36.729687 
L 489.508556 -76.562501 
L 489.508556 -76.562501 
L 489.304731 -76.317459 
L 488.996007 -75.951186 
L 488.687284 -75.589891 
L 488.37856 -75.233409 
L 488.069836 -74.881576 
L 487.761112 -74.534235 
L 487.452388 -74.191232 
L 487.143665 -73.852419 
L 486.834941 -73.517653 
L 486.526217 -73.186797 
L 486.217493 -72.85972 
L 485.90877 -72.536297 
L 485.600046 -72.21641 
L 485.291322 -71.899948 
L 484.982598 -71.586806 
L 484.673875 -71.276887 
L 484.365151 -70.9701 
L 484.056427 -70.666361 
L 483.747703 -70.365595 
L 483.43898 -70.067731 
L 483.130256 -69.772707 
L 482.821532 -69.480468 
L 482.512808 -69.190962 
L 482.204085 -68.904149 
L 481.895361 -68.619989 
L 481.586637 -68.338454 
L 481.277913 -68.059516 
L 480.96919 -67.783155 
L 480.660466 -67.509357 
L 480.351742 -67.23811 
L 480.043018 -66.969407 
L 479.734295 -66.703246 
L 479.425571 -66.439626 
L 479.116847 -66.178552 
L 478.808123 -65.920028 
L 478.499399 -65.664063 
L 478.190676 -65.410666 
L 477.881952 -65.159849 
L 477.573228 -64.911622 
L 477.264504 -64.665998 
L 476.955781 -64.422989 
L 476.647057 -64.182607 
L 476.338333 -63.944862 
L 476.029609 -63.709764 
L 475.720886 -63.477322 
L 475.412162 -63.247543 
L 475.103438 -63.02043 
L 474.794714 -62.795986 
L 474.485991 -62.57421 
L 474.177267 -62.355099 
L 473.868543 -62.138647 
L 473.559819 -61.924843 
L 473.251096 -61.713676 
L 472.942372 -61.505129 
L 472.633648 -61.299181 
L 472.324924 -61.09581 
L 472.016201 -60.894987 
L 471.707477 -60.696683 
L 471.398753 -60.500863 
L 471.090029 -60.307488 
L 470.781306 -60.116517 
L 470.472582 -59.927907 
L 470.163858 -59.741607 
L 469.855134 -59.557568 
L 469.54641 -59.375735 
L 469.237687 -59.196051 
L 468.928963 -59.018457 
L 468.620239 -58.842892 
L 468.311515 -58.669292 
L 468.002792 -58.49759 
L 467.694068 -58.32772 
L 467.385344 -58.159614 
L 467.07662 -57.993202 
L 466.767897 -57.828414 
L 466.459173 -57.665178 
L 466.150449 -57.503425 
L 465.841725 -57.343083 
L 465.533002 -57.184081 
L 465.224278 -57.02635 
L 464.915554 -56.869819 
L 464.60683 -56.714422 
L 464.298107 -56.56009 
L 463.989383 -56.406759 
L 463.680659 -56.254364 
L 463.371935 -56.102845 
L 463.063212 -55.95214 
L 462.754488 -55.802193 
L 462.445764 -55.652948 
L 462.13704 -55.504352 
L 461.828317 -55.356355 
L 461.519593 -55.20891 
L 461.210869 -55.061971 
L 460.902145 -54.915497 
L 460.593421 -54.769449 
L 460.284698 -54.623788 
L 459.975974 -54.478483 
L 459.66725 -54.333502 
L 459.358526 -54.188817 
L 459.049803 -54.044401 
L 458.741079 -53.900233 
L 458.432355 -53.756291 
L 458.123631 -53.612557 
L 457.814908 -53.469016 
L 457.506184 -53.325654 
L 457.19746 -53.182459 
L 456.888736 -53.039422 
L 456.580013 -52.896534 
L 456.271289 -52.75379 
L 455.962565 -52.611185 
L 455.653841 -52.468715 
L 455.345118 -52.326378 
L 455.036394 -52.184173 
L 454.72767 -52.042101 
L 454.418946 -51.900162 
L 454.110223 -51.758356 
L 453.801499 -51.616688 
L 453.492775 -51.475158 
L 453.184051 -51.333769 
L 452.875327 -51.192526 
L 452.566604 -51.051431 
L 452.25788 -50.910488 
L 451.949156 -50.7697 
L 451.640432 -50.629071 
L 451.331709 -50.488606 
L 451.022985 -50.348306 
L 450.714261 -50.208178 
L 450.405537 -50.068223 
L 450.096814 -49.928446 
L 449.78809 -49.788851 
L 449.479366 -49.649442 
L 449.170642 -49.510222 
L 448.861919 -49.371197 
L 448.553195 -49.23237 
L 448.244471 -49.093747 
L 447.935747 -48.955334 
L 447.627024 -48.817135 
L 447.3183 -48.679158 
L 447.009576 -48.54141 
L 446.700852 -48.403899 
L 446.392129 -48.266634 
L 446.083405 -48.129626 
L 445.774681 -47.992884 
L 445.465957 -47.856422 
L 445.157234 -47.720253 
L 444.84851 -47.584392 
L 444.539786 -47.448854 
L 444.231062 -47.313659 
L 443.922338 -47.178825 
L 443.613615 -47.044372 
L 443.304891 -46.910324 
L 442.996167 -46.776704 
L 442.687443 -46.643538 
L 442.37872 -46.510854 
L 442.069996 -46.378679 
L 441.761272 -46.247045 
L 441.452548 -46.115983 
L 441.143825 -45.985527 
L 440.835101 -45.855711 
L 440.526377 -45.726572 
L 440.217653 -45.598147 
L 439.90893 -45.470474 
L 439.600206 -45.343594 
L 439.291482 -45.217546 
L 438.982758 -45.092371 
L 438.674035 -44.968111 
L 438.365311 -44.844809 
L 438.056587 -44.722507 
L 437.747863 -44.601247 
L 437.43914 -44.481073 
L 437.130416 -44.362026 
L 436.821692 -44.244148 
L 436.512968 -44.127482 
L 436.204245 -44.012067 
L 435.895521 -43.897945 
L 435.586797 -43.785152 
L 435.278073 -43.673729 
L 434.969349 -43.56371 
L 434.660626 -43.45513 
L 434.351902 -43.348023 
L 434.043178 -43.242419 
L 433.734454 -43.138349 
L 433.425731 -43.035839 
L 433.117007 -42.934915 
L 432.808283 -42.835599 
L 432.499559 -42.737912 
L 432.190836 -42.641872 
L 431.882112 -42.547496 
L 431.573388 -42.454795 
L 431.264664 -42.363781 
L 430.955941 -42.274461 
L 430.647217 -42.186842 
L 430.338493 -42.100925 
L 430.029769 -42.016712 
L 429.721046 -41.934199 
L 429.412322 -41.853382 
L 429.103598 -41.774255 
L 428.794874 -41.696806 
L 428.486151 -41.621025 
L 428.177427 -41.546898 
L 427.868703 -41.474408 
L 427.559979 -41.403536 
L 427.251256 -41.334263 
L 426.942532 -41.266567 
L 426.633808 -41.200424 
L 426.325084 -41.135809 
L 426.01636 -41.072695 
L 425.707637 -41.011055 
L 425.398913 -40.950859 
L 425.090189 -40.892078 
L 424.781465 -40.83468 
L 424.472742 -40.778634 
L 424.164018 -40.723908 
L 423.855294 -40.670469 
L 423.54657 -40.618284 
L 423.237847 -40.567321 
L 422.929123 -40.517545 
L 422.620399 -40.468924 
L 422.311675 -40.421425 
L 422.002952 -40.375016 
L 421.694228 -40.329663 
L 421.385504 -40.285336 
L 421.07678 -40.242003 
L 420.768057 -40.199634 
L 420.459333 -40.1582 
L 420.150609 -40.11767 
L 419.841885 -40.078018 
L 419.533162 -40.039216 
L 419.224438 -40.001239 
L 418.915714 -39.964061 
L 418.60699 -39.927658 
L 418.298266 -39.892008 
L 417.989543 -39.857089 
L 417.680819 -39.82288 
L 417.372095 -39.789362 
L 417.063371 -39.756517 
L 416.754648 -39.724326 
L 416.445924 -39.692775 
L 416.1372 -39.661847 
L 415.828476 -39.63153 
L 415.519753 -39.601809 
L 415.211029 -39.572674 
L 414.902305 -39.544112 
L 414.593581 -39.516114 
L 414.284858 -39.488671 
L 413.976134 -39.461774 
L 413.66741 -39.435416 
L 413.358686 -39.409589 
L 413.049963 -39.384287 
L 412.741239 -39.359506 
L 412.432515 -39.33524 
L 412.123791 -39.311484 
L 411.815068 -39.288234 
L 411.506344 -39.265488 
L 411.19762 -39.243241 
L 410.888896 -39.221492 
L 410.580173 -39.200236 
L 410.271449 -39.179473 
L 409.962725 -39.1592 
L 409.654001 -39.139414 
L 409.345277 -39.120115 
L 409.036554 -39.101299 
L 408.72783 -39.082965 
L 408.419106 -39.06511 
L 408.110382 -39.047733 
L 407.801659 -39.030832 
L 407.492935 -39.014403 
L 407.184211 -38.998444 
L 406.875487 -38.982952 
L 406.566764 -38.967923 
L 406.25804 -38.953355 
L 405.949316 -38.939243 
L 405.640592 -38.925582 
L 405.331869 -38.912368 
L 405.023145 -38.899595 
L 404.714421 -38.887259 
L 404.405697 -38.875352 
L 404.096974 -38.863867 
L 403.78825 -38.852799 
L 403.479526 -38.842138 
L 403.170802 -38.831876 
L 402.862079 -38.822005 
L 402.553355 -38.812514 
L 402.244631 -38.803395 
L 401.935907 -38.794635 
L 401.627184 -38.786224 
L 401.31846 -38.77815 
L 401.009736 -38.7704 
L 400.701012 -38.762962 
L 400.392288 -38.755822 
L 400.083565 -38.748965 
L 399.774841 -38.742378 
L 399.466117 -38.736044 
L 399.157393 -38.729949 
L 398.84867 -38.724076 
L 398.539946 -38.718409 
L 398.231222 -38.71293 
L 397.922498 -38.707623 
L 397.613775 -38.70247 
L 397.305051 -38.697454 
L 396.996327 -38.692555 
L 396.687603 -38.687756 
L 396.37888 -38.683038 
L 396.070156 -38.678383 
L 395.761432 -38.673772 
L 395.452708 -38.669187 
L 395.143985 -38.664609 
L 394.835261 -38.66002 
L 394.526537 -38.655402 
L 394.217813 -38.650736 
L 393.90909 -38.646005 
L 393.600366 -38.641191 
L 393.291642 -38.636278 
L 392.982918 -38.631248 
L 392.674195 -38.626086 
L 392.365471 -38.620777 
L 392.056747 -38.615304 
L 391.748023 -38.609653 
L 391.439299 -38.603812 
L 391.130576 -38.597766 
L 390.821852 -38.591503 
L 390.513128 -38.585013 
L 390.204404 -38.578282 
L 389.895681 -38.571303 
L 389.586957 -38.564065 
L 389.278233 -38.556561 
L 388.969509 -38.548782 
L 388.660786 -38.540721 
L 388.352062 -38.532374 
L 388.043338 -38.523735 
L 387.734614 -38.5148 
L 387.425891 -38.505566 
L 387.117167 -38.49603 
L 386.808443 -38.486191 
L 386.499719 -38.476047 
L 386.190996 -38.465599 
L 385.882272 -38.454848 
L 385.573548 -38.443794 
L 385.264824 -38.43244 
L 384.956101 -38.420789 
L 384.647377 -38.408844 
L 384.338653 -38.396609 
L 384.029929 -38.384088 
L 383.721206 -38.371286 
L 383.412482 -38.358209 
L 383.103758 -38.344862 
L 382.795034 -38.331252 
L 382.48631 -38.317385 
L 382.177587 -38.303268 
L 381.868863 -38.288907 
L 381.560139 -38.27431 
L 381.251415 -38.259485 
L 380.942692 -38.244438 
L 380.633968 -38.229177 
L 380.325244 -38.21371 
L 380.01652 -38.198044 
L 379.707797 -38.182187 
L 379.399073 -38.166146 
L 379.090349 -38.149928 
L 378.781625 -38.133541 
L 378.472902 -38.116993 
L 378.164178 -38.100289 
L 377.855454 -38.083437 
L 377.54673 -38.066444 
L 377.238007 -38.049316 
L 376.929283 -38.03206 
L 376.620559 -38.014682 
L 376.311835 -37.997188 
L 376.003112 -37.979584 
L 375.694388 -37.961877 
L 375.385664 -37.944071 
L 375.07694 -37.926172 
L 374.768216 -37.908186 
L 374.459493 -37.890118 
L 374.150769 -37.871973 
L 373.842045 -37.853758 
L 373.533321 -37.835477 
L 373.224598 -37.817135 
L 372.915874 -37.798738 
L 372.60715 -37.780292 
L 372.298426 -37.761801 
L 371.989703 -37.743271 
L 371.680979 -37.724709 
L 371.372255 -37.70612 
L 371.063531 -37.687509 
L 370.754808 -37.668884 
L 370.446084 -37.650251 
L 370.13736 -37.631615 
L 369.828636 -37.612985 
L 369.519913 -37.594366 
L 369.211189 -37.575768 
L 368.902465 -37.557196 
L 368.593741 -37.538659 
L 368.285018 -37.520165 
L 367.976294 -37.501723 
L 367.66757 -37.48334 
L 367.358846 -37.465026 
L 367.050123 -37.44679 
L 366.741399 -37.428641 
L 366.432675 -37.410589 
L 366.123951 -37.392642 
L 365.815227 -37.374812 
L 365.506504 -37.357107 
L 365.19778 -37.339538 
L 364.889056 -37.322114 
L 364.580332 -37.304847 
L 364.271609 -37.287745 
L 363.962885 -37.270819 
L 363.654161 -37.254079 
L 363.345437 -37.237535 
L 363.036714 -37.221197 
L 362.72799 -37.205073 
L 362.419266 -37.189174 
L 362.110542 -37.173508 
L 361.801819 -37.158085 
L 361.493095 -37.142913 
L 361.184371 -37.127999 
L 360.875647 -37.113353 
L 360.566924 -37.09898 
L 360.2582 -37.084889 
L 359.949476 -37.071086 
L 359.640752 -37.057576 
L 359.332029 -37.044366 
L 359.023305 -37.031459 
L 358.714581 -37.018862 
L 358.405857 -37.006576 
L 358.097134 -36.994607 
L 357.78841 -36.982957 
L 357.479686 -36.971627 
L 357.170962 -36.960621 
L 356.862238 -36.949937 
L 356.553515 -36.939578 
L 356.244791 -36.929543 
L 355.936067 -36.919831 
L 355.627343 -36.910442 
L 355.31862 -36.901373 
L 355.009896 -36.892622 
L 354.701172 -36.884187 
L 354.392448 -36.876064 
L 354.083725 -36.86825 
L 353.775001 -36.86074 
L 353.466277 -36.85353 
L 353.157553 -36.846615 
L 352.84883 -36.83999 
L 352.540106 -36.833649 
L 352.231382 -36.827586 
L 351.922658 -36.821796 
L 351.613935 -36.81627 
L 351.305211 -36.811004 
L 350.996487 -36.805989 
L 350.687763 -36.801219 
L 350.37904 -36.796687 
L 350.070316 -36.792385 
L 349.761592 -36.788306 
L 349.452868 -36.784442 
L 349.144145 -36.780786 
L 348.835421 -36.77733 
L 348.526697 -36.774067 
L 348.217973 -36.770989 
L 347.909249 -36.768089 
L 347.600526 -36.765359 
L 347.291802 -36.762793 
L 346.983078 -36.760382 
L 346.674354 -36.758121 
L 346.365631 -36.756001 
L 346.056907 -36.754016 
L 345.748183 -36.75216 
L 345.439459 -36.750425 
L 345.130736 -36.748807 
L 344.822012 -36.747298 
L 344.513288 -36.745893 
L 344.204564 -36.744585 
L 343.895841 -36.74337 
L 343.587117 -36.742242 
L 343.278393 -36.741196 
L 342.969669 -36.740227 
L 342.660946 -36.73933 
L 342.352222 -36.738502 
L 342.043498 -36.737736 
L 341.734774 -36.73703 
L 341.426051 -36.736379 
L 341.117327 -36.735781 
L 340.808603 -36.73523 
L 340.499879 -36.734724 
z
"/>
    </defs>
    <g>
     <use xlink:href="#me67dae89a6" x="0" y="183.151437" style="fill: #4c72b0; fill-opacity: 0.3"/>
    </g>
   </g>
   <g id="line2d_34">
    <path d="M 340.499879 146.416713 
L 353.775001 146.290698 
L 362.110542 145.977929 
L 377.855454 145.068 
L 387.734614 144.636637 
L 398.539946 144.433029 
L 406.566764 144.183514 
L 413.358686 143.741849 
L 419.224438 143.150199 
L 423.855294 142.480969 
L 427.868703 141.67703 
L 431.573388 140.696643 
L 435.278073 139.477709 
L 439.600206 137.807844 
L 445.774681 135.158553 
L 456.580013 130.254904 
L 464.915554 126.281618 
L 468.928963 124.13298 
L 472.324924 122.055628 
L 475.412162 119.903895 
L 478.499399 117.487375 
L 481.895361 114.531448 
L 484.982598 111.564631 
L 487.761112 108.617203 
L 490.230902 105.703586 
L 492.700692 102.426834 
L 494.861759 99.19317 
L 497.022825 95.566885 
L 499.183891 91.521374 
L 501.653681 86.390024 
L 504.432195 80.045023 
L 508.13688 70.942069 
L 514.311356 55.683955 
L 517.089869 49.444789 
L 519.250936 45.067304 
L 521.412002 41.184711 
L 523.264345 38.289342 
L 525.116687 35.817648 
L 526.660306 34.094079 
L 528.203925 32.684529 
L 529.747543 31.594913 
L 530.982438 30.956024 
L 532.217334 30.524445 
L 533.452229 30.298608 
L 534.687124 30.274704 
L 535.922019 30.446345 
L 537.465637 30.92164 
L 539.009256 31.663921 
L 540.552875 32.643056 
L 542.405218 34.081442 
L 544.566284 36.040736 
L 547.653521 39.175562 
L 554.445444 46.523044 
L 560.619919 53.393125 
L 563.707157 57.13404 
L 566.485671 60.844102 
L 568.955461 64.48938 
L 571.733975 69.0154 
L 574.512489 73.96591 
L 578.217174 81.068977 
L 589.639953 103.383346 
L 593.035914 109.364537 
L 596.123152 114.390539 
L 599.210389 119.011675 
L 602.297627 123.241037 
L 605.384864 127.104608 
L 608.472102 130.626431 
L 611.55934 133.815896 
L 614.337853 136.393996 
L 617.116367 138.676148 
L 619.586157 140.438964 
L 622.055947 141.939966 
L 624.525737 143.176687 
L 626.995528 144.158133 
L 629.465318 144.905218 
L 632.243831 145.504145 
L 635.331069 145.931526 
L 639.035754 146.213008 
L 644.284058 146.370833 
L 648.914914 146.409824 
L 648.914914 146.409824 
" style="fill: none; stroke: #4c72b0; stroke-width: 1.5; stroke-linecap: round"/>
   </g>
   <g id="line2d_35">
    <path d="M 320.646683 146.42175 
L 320.646683 24.45375 
" style="fill: none; stroke-dasharray: 0.8,1.32; stroke-dashoffset: 0; stroke: #d3d3d3; stroke-width: 0.8"/>
   </g>
   <g id="line2d_36">
    <path d="M 489.508556 146.42175 
L 489.508556 24.45375 
" style="fill: none; stroke-dasharray: 0.8,1.32; stroke-dashoffset: 0; stroke: #d3d3d3; stroke-width: 0.8"/>
   </g>
   <g id="line2d_37">
    <path d="M 7.2 146.42175 
L 648.9 146.42175 
" style="fill: none; stroke: #808080; stroke-width: 0.5; stroke-linecap: round"/>
   </g>
   <g id="AnnotationBbox_1">
    <g id="text_11">
     <text style="font-weight: 700; font-size: 8px; font-family: 'Arial', 'DejaVu Sans', 'Liberation Sans', 'Bitstream Vera Sans', sans-serif; text-anchor: end; fill: #808080" x="320.646683" y="12.92625" transform="rotate(-0 320.646683 12.92625)">International Poverty Line</text>
    </g>
    <g id="text_12">
     <text style="font-size: 8px; font-family: 'Arial', 'DejaVu Sans', 'Liberation Sans', 'Bitstream Vera Sans', sans-serif; text-anchor: end; fill: #808080" x="320.646683" y="22.86375" transform="rotate(-0 320.646683 22.86375)">$90 per month</text>
    </g>
   </g>
   <g id="AnnotationBbox_2">
    <g id="text_13">
     <text style="font-weight: 700; font-size: 8px; font-family: 'Arial', 'DejaVu Sans', 'Liberation Sans', 'Bitstream Vera Sans', sans-serif; text-anchor: start; fill: #808080" x="489.508556" y="12.92625" transform="rotate(-0 489.508556 12.92625)">High-income poverty line</text>
    </g>
    <g id="text_14">
     <text style="font-size: 8px; font-family: 'Arial', 'DejaVu Sans', 'Liberation Sans', 'Bitstream Vera Sans', sans-serif; text-anchor: start; fill: #808080" x="489.508556" y="22.86375" transform="rotate(-0 489.508556 22.86375)">$900 per month</text>
    </g>
   </g>
   <g id="text_15">
    <text style="font-size: 10px; font-family: 'Arial', 'DejaVu Sans', 'Liberation Sans', 'Bitstream Vera Sans', sans-serif; text-anchor: middle" x="536.391066" y="144.317062" transform="rotate(-0 536.391066 144.317062)">Sweden (2026)</text>
   </g>
  </g>
 </g>
</svg>
