<?xml version="1.0" encoding="utf-8" standalone="no"?>
<!DOCTYPE svg PUBLIC "-//W3C//DTD SVG 1.1//EN"
  "http://www.w3.org/Graphics/SVG/1.1/DTD/svg11.dtd">
<svg xmlns:xlink="http://www.w3.org/1999/xlink" width="851.4pt" height="154.809687pt" viewBox="0 0 851.4 154.809687" xmlns="http://www.w3.org/2000/svg" version="1.1">
 <metadata>
  <rdf:RDF xmlns:dc="http://purl.org/dc/elements/1.1/" xmlns:cc="http://creativecommons.org/ns#" xmlns:rdf="http://www.w3.org/1999/02/22-rdf-syntax-ns#">
   <cc:Work>
    <dc:type rdf:resource="http://purl.org/dc/dcmitype/StillImage"/>
    <dc:date>2025-12-05T16:06:55.537259</dc:date>
    <dc:format>image/svg+xml</dc:format>
    <dc:creator>
     <cc:Agent>
      <dc:title>Matplotlib v3.10.1, https://matplotlib.org/</dc:title>
     </cc:Agent>
    </dc:creator>
   </cc:Work>
  </rdf:RDF>
 </metadata>
 <defs>
  <style type="text/css">*{stroke-linejoin: round; stroke-linecap: butt}</style>
 </defs>
 <g id="figure_1">
  <g id="patch_1">
   <path d="M 0 154.809687 
L 851.4 154.809687 
L 851.4 0 
L 0 0 
z
" style="fill: #ffffff"/>
  </g>
  <g id="axes_1">
   <g id="patch_2">
    <path d="M 7.2 118.08 
L 844.2 118.08 
L 844.2 7.2 
L 7.2 7.2 
z
" style="fill: #ffffff"/>
   </g>
   <g id="matplotlib.axis_1">
    <g id="xtick_1">
     <g id="line2d_1">
      <defs>
       <path id="m5f3d6e10d7" d="M 0 0 
L 0 3.5 
" style="stroke: #262626; stroke-width: 0.8"/>
      </defs>
      <g>
       <use xlink:href="#m5f3d6e10d7" x="295.426181" y="118.08" style="fill: #262626; stroke: #262626; stroke-width: 0.8"/>
      </g>
     </g>
     <g id="text_1">
      <text style="font-size: 10px; font-family: 'Arial', 'DejaVu Sans', 'Liberation Sans', 'Bitstream Vera Sans', sans-serif; text-anchor: middle; fill: #262626" x="295.426181" y="132.237812" transform="rotate(-0 295.426181 132.237812)">1</text>
     </g>
    </g>
    <g id="xtick_2">
     <g id="line2d_2">
      <g>
       <use xlink:href="#m5f3d6e10d7" x="362.11544" y="118.08" style="fill: #262626; stroke: #262626; stroke-width: 0.8"/>
      </g>
     </g>
     <g id="text_2">
      <text style="font-size: 10px; font-family: 'Arial', 'DejaVu Sans', 'Liberation Sans', 'Bitstream Vera Sans', sans-serif; text-anchor: middle; fill: #262626" x="362.11544" y="132.237812" transform="rotate(-0 362.11544 132.237812)">2</text>
     </g>
    </g>
    <g id="xtick_3">
     <g id="line2d_3">
      <g>
       <use xlink:href="#m5f3d6e10d7" x="450.273845" y="118.08" style="fill: #262626; stroke: #262626; stroke-width: 0.8"/>
      </g>
     </g>
     <g id="text_3">
      <text style="font-size: 10px; font-family: 'Arial', 'DejaVu Sans', 'Liberation Sans', 'Bitstream Vera Sans', sans-serif; text-anchor: middle; fill: #262626" x="450.273845" y="132.237812" transform="rotate(-0 450.273845 132.237812)">5</text>
     </g>
    </g>
    <g id="xtick_4">
     <g id="line2d_4">
      <g>
       <use xlink:href="#m5f3d6e10d7" x="516.963103" y="118.08" style="fill: #262626; stroke: #262626; stroke-width: 0.8"/>
      </g>
     </g>
     <g id="text_4">
      <text style="font-size: 10px; font-family: 'Arial', 'DejaVu Sans', 'Liberation Sans', 'Bitstream Vera Sans', sans-serif; text-anchor: middle; fill: #262626" x="516.963103" y="132.237812" transform="rotate(-0 516.963103 132.237812)">10</text>
     </g>
    </g>
    <g id="xtick_5">
     <g id="line2d_5">
      <g>
       <use xlink:href="#m5f3d6e10d7" x="583.652362" y="118.08" style="fill: #262626; stroke: #262626; stroke-width: 0.8"/>
      </g>
     </g>
     <g id="text_5">
      <text style="font-size: 10px; font-family: 'Arial', 'DejaVu Sans', 'Liberation Sans', 'Bitstream Vera Sans', sans-serif; text-anchor: middle; fill: #262626" x="583.652362" y="132.237812" transform="rotate(-0 583.652362 132.237812)">20</text>
     </g>
    </g>
    <g id="xtick_6">
     <g id="line2d_6">
      <g>
       <use xlink:href="#m5f3d6e10d7" x="671.810767" y="118.08" style="fill: #262626; stroke: #262626; stroke-width: 0.8"/>
      </g>
     </g>
     <g id="text_6">
      <text style="font-size: 10px; font-family: 'Arial', 'DejaVu Sans', 'Liberation Sans', 'Bitstream Vera Sans', sans-serif; text-anchor: middle; fill: #262626" x="671.810767" y="132.237812" transform="rotate(-0 671.810767 132.237812)">50</text>
     </g>
    </g>
    <g id="xtick_7">
     <g id="line2d_7">
      <g>
       <use xlink:href="#m5f3d6e10d7" x="738.500026" y="118.08" style="fill: #262626; stroke: #262626; stroke-width: 0.8"/>
      </g>
     </g>
     <g id="text_7">
      <text style="font-size: 10px; font-family: 'Arial', 'DejaVu Sans', 'Liberation Sans', 'Bitstream Vera Sans', sans-serif; text-anchor: middle; fill: #262626" x="738.500026" y="132.237812" transform="rotate(-0 738.500026 132.237812)">100</text>
     </g>
    </g>
    <g id="xtick_8">
     <g id="line2d_8">
      <g>
       <use xlink:href="#m5f3d6e10d7" x="805.189284" y="118.08" style="fill: #262626; stroke: #262626; stroke-width: 0.8"/>
      </g>
     </g>
     <g id="text_8">
      <text style="font-size: 10px; font-family: 'Arial', 'DejaVu Sans', 'Liberation Sans', 'Bitstream Vera Sans', sans-serif; text-anchor: middle; fill: #262626" x="805.189284" y="132.237812" transform="rotate(-0 805.189284 132.237812)">200</text>
     </g>
    </g>
    <g id="xtick_9">
     <g id="line2d_9">
      <defs>
       <path id="m30c6a997ed" d="M 0 0 
L 0 2 
" style="stroke: #262626; stroke-width: 0.6"/>
      </defs>
      <g>
       <use xlink:href="#m30c6a997ed" x="7.2" y="118.08" style="fill: #262626; stroke: #262626; stroke-width: 0.6"/>
      </g>
     </g>
    </g>
    <g id="xtick_10">
     <g id="line2d_10">
      <g>
       <use xlink:href="#m30c6a997ed" x="24.74157" y="118.08" style="fill: #262626; stroke: #262626; stroke-width: 0.6"/>
      </g>
     </g>
    </g>
    <g id="xtick_11">
     <g id="line2d_11">
      <g>
       <use xlink:href="#m30c6a997ed" x="39.572755" y="118.08" style="fill: #262626; stroke: #262626; stroke-width: 0.6"/>
      </g>
     </g>
    </g>
    <g id="xtick_12">
     <g id="line2d_12">
      <g>
       <use xlink:href="#m30c6a997ed" x="52.420113" y="118.08" style="fill: #262626; stroke: #262626; stroke-width: 0.6"/>
      </g>
     </g>
    </g>
    <g id="xtick_13">
     <g id="line2d_13">
      <g>
       <use xlink:href="#m30c6a997ed" x="63.752285" y="118.08" style="fill: #262626; stroke: #262626; stroke-width: 0.6"/>
      </g>
     </g>
    </g>
    <g id="xtick_14">
     <g id="line2d_14">
      <g>
       <use xlink:href="#m30c6a997ed" x="140.578518" y="118.08" style="fill: #262626; stroke: #262626; stroke-width: 0.6"/>
      </g>
     </g>
    </g>
    <g id="xtick_15">
     <g id="line2d_15">
      <g>
       <use xlink:href="#m30c6a997ed" x="179.589233" y="118.08" style="fill: #262626; stroke: #262626; stroke-width: 0.6"/>
      </g>
     </g>
    </g>
    <g id="xtick_16">
     <g id="line2d_16">
      <g>
       <use xlink:href="#m30c6a997ed" x="207.267776" y="118.08" style="fill: #262626; stroke: #262626; stroke-width: 0.6"/>
      </g>
     </g>
    </g>
    <g id="xtick_17">
     <g id="line2d_17">
      <g>
       <use xlink:href="#m30c6a997ed" x="228.736922" y="118.08" style="fill: #262626; stroke: #262626; stroke-width: 0.6"/>
      </g>
     </g>
    </g>
    <g id="xtick_18">
     <g id="line2d_18">
      <g>
       <use xlink:href="#m30c6a997ed" x="246.278492" y="118.08" style="fill: #262626; stroke: #262626; stroke-width: 0.6"/>
      </g>
     </g>
    </g>
    <g id="xtick_19">
     <g id="line2d_19">
      <g>
       <use xlink:href="#m30c6a997ed" x="261.109678" y="118.08" style="fill: #262626; stroke: #262626; stroke-width: 0.6"/>
      </g>
     </g>
    </g>
    <g id="xtick_20">
     <g id="line2d_20">
      <g>
       <use xlink:href="#m30c6a997ed" x="273.957035" y="118.08" style="fill: #262626; stroke: #262626; stroke-width: 0.6"/>
      </g>
     </g>
    </g>
    <g id="xtick_21">
     <g id="line2d_21">
      <g>
       <use xlink:href="#m30c6a997ed" x="285.289207" y="118.08" style="fill: #262626; stroke: #262626; stroke-width: 0.6"/>
      </g>
     </g>
    </g>
    <g id="xtick_22">
     <g id="line2d_22">
      <g>
       <use xlink:href="#m30c6a997ed" x="401.126155" y="118.08" style="fill: #262626; stroke: #262626; stroke-width: 0.6"/>
      </g>
     </g>
    </g>
    <g id="xtick_23">
     <g id="line2d_23">
      <g>
       <use xlink:href="#m30c6a997ed" x="428.804699" y="118.08" style="fill: #262626; stroke: #262626; stroke-width: 0.6"/>
      </g>
     </g>
    </g>
    <g id="xtick_24">
     <g id="line2d_24">
      <g>
       <use xlink:href="#m30c6a997ed" x="467.815414" y="118.08" style="fill: #262626; stroke: #262626; stroke-width: 0.6"/>
      </g>
     </g>
    </g>
    <g id="xtick_25">
     <g id="line2d_25">
      <g>
       <use xlink:href="#m30c6a997ed" x="482.6466" y="118.08" style="fill: #262626; stroke: #262626; stroke-width: 0.6"/>
      </g>
     </g>
    </g>
    <g id="xtick_26">
     <g id="line2d_26">
      <g>
       <use xlink:href="#m30c6a997ed" x="495.493957" y="118.08" style="fill: #262626; stroke: #262626; stroke-width: 0.6"/>
      </g>
     </g>
    </g>
    <g id="xtick_27">
     <g id="line2d_27">
      <g>
       <use xlink:href="#m30c6a997ed" x="506.82613" y="118.08" style="fill: #262626; stroke: #262626; stroke-width: 0.6"/>
      </g>
     </g>
    </g>
    <g id="xtick_28">
     <g id="line2d_28">
      <g>
       <use xlink:href="#m30c6a997ed" x="622.663078" y="118.08" style="fill: #262626; stroke: #262626; stroke-width: 0.6"/>
      </g>
     </g>
    </g>
    <g id="xtick_29">
     <g id="line2d_29">
      <g>
       <use xlink:href="#m30c6a997ed" x="650.341621" y="118.08" style="fill: #262626; stroke: #262626; stroke-width: 0.6"/>
      </g>
     </g>
    </g>
    <g id="xtick_30">
     <g id="line2d_30">
      <g>
       <use xlink:href="#m30c6a997ed" x="689.352336" y="118.08" style="fill: #262626; stroke: #262626; stroke-width: 0.6"/>
      </g>
     </g>
    </g>
    <g id="xtick_31">
     <g id="line2d_31">
      <g>
       <use xlink:href="#m30c6a997ed" x="704.183522" y="118.08" style="fill: #262626; stroke: #262626; stroke-width: 0.6"/>
      </g>
     </g>
    </g>
    <g id="xtick_32">
     <g id="line2d_32">
      <g>
       <use xlink:href="#m30c6a997ed" x="717.03088" y="118.08" style="fill: #262626; stroke: #262626; stroke-width: 0.6"/>
      </g>
     </g>
    </g>
    <g id="xtick_33">
     <g id="line2d_33">
      <g>
       <use xlink:href="#m30c6a997ed" x="728.363052" y="118.08" style="fill: #262626; stroke: #262626; stroke-width: 0.6"/>
      </g>
     </g>
    </g>
    <g id="xtick_34">
     <g id="line2d_34">
      <g>
       <use xlink:href="#m30c6a997ed" x="844.2" y="118.08" style="fill: #262626; stroke: #262626; stroke-width: 0.6"/>
      </g>
     </g>
    </g>
    <g id="text_9">
     <text style="font-size: 10px; font-family: 'Arial', 'DejaVu Sans', 'Liberation Sans', 'Bitstream Vera Sans', sans-serif; text-anchor: middle; fill: #262626" x="425.7" y="145.505" transform="rotate(-0 425.7 145.505)">Income or consumption (day)</text>
    </g>
   </g>
   <g id="matplotlib.axis_2"/>
   <g id="FillBetweenPolyCollection_1">
    <defs>
     <path id="m9a7ea75f8c" d="M 123.457563 -36.729688 
L 123.457563 -36.744419 
L 124.056165 -36.745691 
L 124.654766 -36.747062 
L 125.253368 -36.74854 
L 125.85197 -36.750131 
L 126.450571 -36.751843 
L 127.049173 -36.753685 
L 127.647774 -36.755665 
L 128.246376 -36.757792 
L 128.844978 -36.760074 
L 129.443579 -36.762524 
L 130.042181 -36.765149 
L 130.640782 -36.767963 
L 131.239384 -36.770976 
L 131.837986 -36.7742 
L 132.436587 -36.777648 
L 133.035189 -36.781333 
L 133.63379 -36.785269 
L 134.232392 -36.789471 
L 134.830994 -36.793953 
L 135.429595 -36.798731 
L 136.028197 -36.803823 
L 136.626798 -36.809244 
L 137.2254 -36.815013 
L 137.824001 -36.821148 
L 138.422603 -36.827668 
L 139.021205 -36.834593 
L 139.619806 -36.841945 
L 140.218408 -36.849743 
L 140.817009 -36.85801 
L 141.415611 -36.86677 
L 142.014213 -36.876045 
L 142.612814 -36.88586 
L 143.211416 -36.89624 
L 143.810017 -36.90721 
L 144.408619 -36.918798 
L 145.007221 -36.931029 
L 145.605822 -36.943933 
L 146.204424 -36.957538 
L 146.803025 -36.971873 
L 147.401627 -36.986968 
L 148.000229 -37.002854 
L 148.59883 -37.019562 
L 149.197432 -37.037123 
L 149.796033 -37.055571 
L 150.394635 -37.074939 
L 150.993236 -37.095259 
L 151.591838 -37.116565 
L 152.19044 -37.138894 
L 152.789041 -37.162278 
L 153.387643 -37.186754 
L 153.986244 -37.212357 
L 154.584846 -37.239124 
L 155.183448 -37.267089 
L 155.782049 -37.29629 
L 156.380651 -37.326764 
L 156.979252 -37.358546 
L 157.577854 -37.391674 
L 158.176456 -37.426183 
L 158.775057 -37.462112 
L 159.373659 -37.499496 
L 159.97226 -37.538371 
L 160.570862 -37.578773 
L 161.169464 -37.620739 
L 161.768065 -37.664303 
L 162.366667 -37.7095 
L 162.965268 -37.756365 
L 163.56387 -37.804931 
L 164.162471 -37.855231 
L 164.761073 -37.907298 
L 165.359675 -37.961163 
L 165.958276 -38.016857 
L 166.556878 -38.07441 
L 167.155479 -38.13385 
L 167.754081 -38.195205 
L 168.352683 -38.258502 
L 168.951284 -38.323766 
L 169.549886 -38.391022 
L 170.148487 -38.460292 
L 170.747089 -38.531597 
L 171.345691 -38.604959 
L 171.944292 -38.680396 
L 172.542894 -38.757925 
L 173.141495 -38.837561 
L 173.740097 -38.919319 
L 174.338699 -39.003212 
L 174.9373 -39.089249 
L 175.535902 -39.177441 
L 176.134503 -39.267794 
L 176.733105 -39.360315 
L 177.331706 -39.455007 
L 177.930308 -39.551872 
L 178.52891 -39.650911 
L 179.127511 -39.752123 
L 179.726113 -39.855505 
L 180.324714 -39.96105 
L 180.923316 -40.068754 
L 181.521918 -40.178608 
L 182.120519 -40.290601 
L 182.719121 -40.404722 
L 183.317722 -40.520958 
L 183.916324 -40.639293 
L 184.514926 -40.759711 
L 185.113527 -40.882193 
L 185.712129 -41.00672 
L 186.31073 -41.133271 
L 186.909332 -41.261824 
L 187.507934 -41.392354 
L 188.106535 -41.524837 
L 188.705137 -41.659245 
L 189.303738 -41.795553 
L 189.90234 -41.933731 
L 190.500941 -42.073749 
L 191.099543 -42.215578 
L 191.698145 -42.359187 
L 192.296746 -42.504542 
L 192.895348 -42.651613 
L 193.493949 -42.800365 
L 194.092551 -42.950765 
L 194.691153 -43.102779 
L 195.289754 -43.256373 
L 195.888356 -43.411512 
L 196.486957 -43.568161 
L 197.085559 -43.726286 
L 197.684161 -43.885852 
L 198.282762 -44.046825 
L 198.881364 -44.209169 
L 199.479965 -44.372851 
L 200.078567 -44.537838 
L 200.677168 -44.704096 
L 201.27577 -44.871592 
L 201.874372 -45.040294 
L 202.472973 -45.210171 
L 203.071575 -45.381192 
L 203.670176 -45.553328 
L 204.268778 -45.726549 
L 204.86738 -45.900827 
L 205.465981 -46.076135 
L 206.064583 -46.252448 
L 206.663184 -46.42974 
L 207.261786 -46.607987 
L 207.860388 -46.787168 
L 208.458989 -46.96726 
L 209.057591 -47.148243 
L 209.656192 -47.330099 
L 210.254794 -47.512809 
L 210.853396 -47.696358 
L 211.451997 -47.880731 
L 212.050599 -48.065914 
L 212.6492 -48.251894 
L 213.247802 -48.438661 
L 213.846403 -48.626205 
L 214.445005 -48.814518 
L 215.043607 -49.003593 
L 215.642208 -49.193424 
L 216.24081 -49.384007 
L 216.839411 -49.575339 
L 217.438013 -49.767418 
L 218.036615 -49.960244 
L 218.635216 -50.153817 
L 219.233818 -50.348139 
L 219.832419 -50.543213 
L 220.431021 -50.739043 
L 221.029623 -50.935635 
L 221.628224 -51.132993 
L 222.226826 -51.331127 
L 222.825427 -51.530043 
L 223.424029 -51.72975 
L 224.022631 -51.930259 
L 224.621232 -52.13158 
L 225.219834 -52.333724 
L 225.818435 -52.536704 
L 226.417037 -52.740533 
L 227.015638 -52.945223 
L 227.61424 -53.150788 
L 228.212842 -53.357244 
L 228.811443 -53.564604 
L 229.410045 -53.772885 
L 230.008646 -53.982102 
L 230.607248 -54.19227 
L 231.20585 -54.403407 
L 231.804451 -54.615529 
L 232.403053 -54.828652 
L 233.001654 -55.042793 
L 233.600256 -55.257969 
L 234.198858 -55.474198 
L 234.797459 -55.691496 
L 235.396061 -55.90988 
L 235.994662 -56.129367 
L 236.593264 -56.349973 
L 237.191866 -56.571717 
L 237.790467 -56.794613 
L 238.389069 -57.018679 
L 238.98767 -57.243931 
L 239.586272 -57.470384 
L 240.184873 -57.698054 
L 240.783475 -57.926956 
L 241.382077 -58.157106 
L 241.980678 -58.388518 
L 242.57928 -58.621206 
L 243.177881 -58.855184 
L 243.776483 -59.090466 
L 244.375085 -59.327065 
L 244.973686 -59.564993 
L 245.572288 -59.804263 
L 246.170889 -60.044887 
L 246.769491 -60.286875 
L 247.368093 -60.53024 
L 247.966694 -60.774991 
L 248.565296 -61.021137 
L 249.163897 -61.26869 
L 249.762499 -61.517657 
L 250.361101 -61.768047 
L 250.959702 -62.019869 
L 251.558304 -62.273129 
L 252.156905 -62.527835 
L 252.755507 -62.783993 
L 253.354108 -63.041609 
L 253.95271 -63.300689 
L 254.551312 -63.561238 
L 255.149913 -63.823261 
L 255.748515 -64.086762 
L 256.347116 -64.351744 
L 256.945718 -64.618211 
L 257.54432 -64.886165 
L 258.142921 -65.155609 
L 258.741523 -65.426545 
L 259.340124 -65.698973 
L 259.938726 -65.972896 
L 260.537328 -66.248313 
L 261.135929 -66.525225 
L 261.734531 -66.803632 
L 262.333132 -67.083532 
L 262.931734 -67.364924 
L 263.530336 -67.647808 
L 264.128937 -67.932181 
L 264.727539 -68.218041 
L 265.32614 -68.505385 
L 265.924742 -68.79421 
L 266.523343 -69.084513 
L 267.121945 -69.37629 
L 267.720547 -69.669537 
L 268.319148 -69.96425 
L 268.91775 -70.260423 
L 269.516351 -70.558052 
L 270.114953 -70.857131 
L 270.713555 -71.157654 
L 271.312156 -71.459615 
L 271.910758 -71.763008 
L 272.509359 -72.067825 
L 273.107961 -72.374061 
L 273.706563 -72.681707 
L 274.305164 -72.990755 
L 274.903766 -73.301199 
L 275.502367 -73.613029 
L 276.100969 -73.926237 
L 276.699571 -74.240814 
L 277.298172 -74.556751 
L 277.896774 -74.874038 
L 278.495375 -75.192667 
L 279.093977 -75.512626 
L 279.692578 -75.833906 
L 280.29118 -76.156497 
L 280.889782 -76.480387 
L 281.488383 -76.805565 
L 282.086985 -77.132021 
L 282.685586 -77.459742 
L 283.284188 -77.788717 
L 283.88279 -78.118934 
L 284.481391 -78.450381 
L 285.079993 -78.783044 
L 285.678594 -79.116912 
L 286.277196 -79.45197 
L 286.875798 -79.788207 
L 287.474399 -80.125607 
L 288.073001 -80.464158 
L 288.671602 -80.803846 
L 289.270204 -81.144655 
L 289.868806 -81.486572 
L 290.467407 -81.829582 
L 291.066009 -82.17367 
L 291.66461 -82.518821 
L 292.263212 -82.865019 
L 292.861813 -83.212248 
L 293.460415 -83.560493 
L 294.059017 -83.909737 
L 294.657618 -84.259965 
L 295.25622 -84.611159 
L 295.854821 -84.963302 
L 296.453423 -85.316378 
L 297.052025 -85.670369 
L 297.650626 -86.025258 
L 298.249228 -86.381026 
L 298.847829 -86.737657 
L 299.446431 -87.095132 
L 300.045033 -87.453431 
L 300.643634 -87.812538 
L 301.242236 -88.172433 
L 301.840837 -88.533096 
L 302.439439 -88.894509 
L 303.038041 -89.256652 
L 303.636642 -89.619505 
L 304.235244 -89.983049 
L 304.833845 -90.347263 
L 305.432447 -90.712128 
L 306.031048 -91.077621 
L 306.62965 -91.443724 
L 307.228252 -91.810414 
L 307.826853 -92.177671 
L 308.425455 -92.545473 
L 309.024056 -92.913799 
L 309.622658 -93.282627 
L 310.22126 -93.651936 
L 310.819861 -94.021702 
L 311.418463 -94.391903 
L 312.017064 -94.762518 
L 312.615666 -95.133523 
L 313.214268 -95.504896 
L 313.812869 -95.876613 
L 314.411471 -96.248652 
L 315.010072 -96.620988 
L 315.608674 -96.993598 
L 316.207276 -97.366459 
L 316.805877 -97.739546 
L 317.404479 -98.112836 
L 318.00308 -98.486303 
L 318.601682 -98.859924 
L 319.200283 -99.233674 
L 319.798885 -99.607529 
L 320.397487 -99.981462 
L 320.996088 -100.355449 
L 321.59469 -100.729465 
L 322.193291 -101.103485 
L 322.791893 -101.477482 
L 323.390495 -101.851432 
L 323.989096 -102.225308 
L 324.587698 -102.599084 
L 325.186299 -102.972734 
L 325.784901 -103.346232 
L 326.383503 -103.719552 
L 326.982104 -104.092666 
L 327.580706 -104.465549 
L 328.179307 -104.838173 
L 328.777909 -105.210512 
L 329.376511 -105.582539 
L 329.975112 -105.954225 
L 330.573714 -106.325545 
L 331.172315 -106.696471 
L 331.770917 -107.066976 
L 332.369518 -107.437031 
L 332.96812 -107.806609 
L 333.566722 -108.175682 
L 334.165323 -108.544223 
L 334.763925 -108.912204 
L 335.362526 -109.279596 
L 335.961128 -109.646371 
L 336.55973 -110.012502 
L 337.158331 -110.37796 
L 337.756933 -110.742716 
L 338.355534 -111.106743 
L 338.954136 -111.470011 
L 339.552738 -111.832492 
L 340.151339 -112.194158 
L 340.749941 -112.55498 
L 341.348542 -112.914929 
L 341.947144 -113.273976 
L 342.545746 -113.632094 
L 343.144347 -113.989252 
L 343.742949 -114.345422 
L 344.34155 -114.700575 
L 344.940152 -115.054682 
L 345.538753 -115.407715 
L 346.137355 -115.759643 
L 346.735957 -116.110439 
L 347.334558 -116.460073 
L 347.93316 -116.808516 
L 348.531761 -117.15574 
L 349.130363 -117.501715 
L 349.728965 -117.846411 
L 350.327566 -118.189801 
L 350.926168 -118.531855 
L 351.524769 -118.872545 
L 352.123371 -119.21184 
L 352.721973 -119.549713 
L 353.320574 -119.886134 
L 353.919176 -120.221074 
L 354.517777 -120.554505 
L 355.116379 -120.886398 
L 355.714981 -121.216723 
L 356.313582 -121.545453 
L 356.912184 -121.872559 
L 357.510785 -122.198011 
L 358.109387 -122.521782 
L 358.707988 -122.843843 
L 359.30659 -123.164166 
L 359.905192 -123.482721 
L 360.503793 -123.799481 
L 361.102395 -124.114419 
L 361.700996 -124.427504 
L 362.299598 -124.73871 
L 362.8982 -125.048009 
L 363.496801 -125.355373 
L 364.095403 -125.660773 
L 364.694004 -125.964184 
L 365.292606 -126.265575 
L 365.891208 -126.564922 
L 366.489809 -126.862196 
L 367.088411 -127.157369 
L 367.687012 -127.450416 
L 368.285614 -127.741309 
L 368.884216 -128.030021 
L 369.482817 -128.316525 
L 370.081419 -128.600796 
L 370.68002 -128.882807 
L 371.278622 -129.162531 
L 371.877223 -129.439943 
L 372.475825 -129.715017 
L 373.074427 -129.987726 
L 373.673028 -130.258046 
L 374.27163 -130.525951 
L 374.870231 -130.791416 
L 375.468833 -131.054415 
L 376.067435 -131.314925 
L 376.666036 -131.572919 
L 377.264638 -131.828375 
L 377.863239 -132.081267 
L 378.461841 -132.331571 
L 379.060443 -132.579264 
L 379.659044 -132.824321 
L 380.257646 -133.06672 
L 380.856247 -133.306437 
L 381.454849 -133.543449 
L 382.053451 -133.777733 
L 382.652052 -134.009267 
L 383.250654 -134.238028 
L 383.849255 -134.463995 
L 384.447857 -134.687144 
L 385.046458 -134.907455 
L 385.64506 -135.124906 
L 386.243662 -135.339476 
L 386.842263 -135.551144 
L 387.440865 -135.75989 
L 388.039466 -135.965692 
L 388.638068 -136.168531 
L 389.23667 -136.368387 
L 389.835271 -136.56524 
L 390.433873 -136.759071 
L 391.032474 -136.94986 
L 391.631076 -137.13759 
L 392.229678 -137.32224 
L 392.828279 -137.503794 
L 393.426881 -137.682233 
L 394.025482 -137.857539 
L 394.624084 -138.029696 
L 395.222686 -138.198685 
L 395.821287 -138.36449 
L 396.419889 -138.527095 
L 397.01849 -138.686483 
L 397.617092 -138.842639 
L 398.215693 -138.995546 
L 398.814295 -139.14519 
L 399.412897 -139.291555 
L 400.011498 -139.434628 
L 400.6101 -139.574392 
L 401.208701 -139.710835 
L 401.807303 -139.843943 
L 402.405905 -139.973702 
L 403.004506 -140.1001 
L 403.603108 -140.223123 
L 404.201709 -140.342759 
L 404.800311 -140.458996 
L 405.398913 -140.571822 
L 405.997514 -140.681226 
L 406.596116 -140.787197 
L 407.194717 -140.889724 
L 407.793319 -140.988797 
L 408.391921 -141.084405 
L 408.990522 -141.17654 
L 409.589124 -141.265191 
L 410.187725 -141.350349 
L 410.786327 -141.432007 
L 411.384928 -141.510155 
L 411.98353 -141.584785 
L 412.582132 -141.655891 
L 413.180733 -141.723465 
L 413.779335 -141.787499 
L 414.377936 -141.847988 
L 414.976538 -141.904925 
L 415.57514 -141.958305 
L 416.173741 -142.008121 
L 416.772343 -142.05437 
L 417.370944 -142.097046 
L 417.969546 -142.136144 
L 418.568148 -142.171662 
L 419.166749 -142.203594 
L 419.765351 -142.231939 
L 420.363952 -142.256692 
L 420.962554 -142.277852 
L 421.561156 -142.295417 
L 422.159757 -142.309384 
L 422.758359 -142.319752 
L 423.35696 -142.32652 
L 423.955562 -142.329688 
L 424.554163 -142.329254 
L 425.152765 -142.32522 
L 425.751367 -142.317585 
L 426.349968 -142.30635 
L 426.94857 -142.291517 
L 427.547171 -142.273087 
L 428.145773 -142.251062 
L 428.744375 -142.225443 
L 429.342976 -142.196235 
L 429.941578 -142.163439 
L 430.540179 -142.127059 
L 431.138781 -142.087099 
L 431.737383 -142.043563 
L 432.335984 -141.996455 
L 432.934586 -141.94578 
L 433.533187 -141.891544 
L 434.131789 -141.833751 
L 434.730391 -141.772408 
L 435.328992 -141.707521 
L 435.927594 -141.639096 
L 436.526195 -141.567141 
L 437.124797 -141.491663 
L 437.723398 -141.41267 
L 438.322 -141.330169 
L 438.920602 -141.244169 
L 439.519203 -141.154678 
L 440.117805 -141.061707 
L 440.716406 -140.965264 
L 441.315008 -140.865359 
L 441.91361 -140.762001 
L 442.512211 -140.655203 
L 443.110813 -140.544974 
L 443.709414 -140.431326 
L 444.308016 -140.314269 
L 444.906618 -140.193817 
L 445.505219 -140.06998 
L 446.103821 -139.942772 
L 446.702422 -139.812206 
L 447.301024 -139.678294 
L 447.899626 -139.54105 
L 448.498227 -139.400488 
L 449.096829 -139.256622 
L 449.69543 -139.109466 
L 450.294032 -138.959035 
L 450.892633 -138.805344 
L 451.491235 -138.648409 
L 452.089837 -138.488245 
L 452.688438 -138.324868 
L 453.28704 -138.158295 
L 453.885641 -137.988542 
L 454.484243 -137.815626 
L 455.082845 -137.639564 
L 455.681446 -137.460373 
L 456.280048 -137.278072 
L 456.878649 -137.092679 
L 457.477251 -136.904211 
L 458.075853 -136.712687 
L 458.674454 -136.518127 
L 459.273056 -136.32055 
L 459.871657 -136.119974 
L 460.470259 -135.91642 
L 461.068861 -135.709907 
L 461.667462 -135.500456 
L 462.266064 -135.288088 
L 462.864665 -135.072822 
L 463.463267 -134.854681 
L 464.061868 -134.633685 
L 464.66047 -134.409855 
L 465.259072 -134.183214 
L 465.857673 -133.953783 
L 466.456275 -133.721585 
L 467.054876 -133.486642 
L 467.653478 -133.248977 
L 468.25208 -133.008612 
L 468.850681 -132.765571 
L 469.449283 -132.519877 
L 470.047884 -132.271554 
L 470.646486 -132.020624 
L 471.245088 -131.767113 
L 471.843689 -131.511044 
L 472.442291 -131.252442 
L 473.040892 -130.991331 
L 473.639494 -130.727736 
L 474.238096 -130.461682 
L 474.836697 -130.193193 
L 475.435299 -129.922295 
L 476.0339 -129.649015 
L 476.632502 -129.373376 
L 477.231103 -129.095405 
L 477.829705 -128.815128 
L 478.428307 -128.532571 
L 479.026908 -128.24776 
L 479.62551 -127.960721 
L 480.224111 -127.671482 
L 480.822713 -127.380068 
L 481.421315 -127.086507 
L 482.019916 -126.790825 
L 482.618518 -126.49305 
L 483.217119 -126.193209 
L 483.815721 -125.891329 
L 484.414323 -125.587437 
L 485.012924 -125.281561 
L 485.611526 -124.973729 
L 486.210127 -124.663969 
L 486.808729 -124.352308 
L 487.407331 -124.038774 
L 488.005932 -123.723395 
L 488.604534 -123.4062 
L 489.203135 -123.087216 
L 489.801737 -122.766473 
L 490.400338 -122.443998 
L 490.99894 -122.11982 
L 491.597542 -121.793966 
L 492.196143 -121.466467 
L 492.794745 -121.137351 
L 493.393346 -120.806645 
L 493.991948 -120.474379 
L 494.59055 -120.140583 
L 495.189151 -119.805283 
L 495.787753 -119.46851 
L 496.386354 -119.130292 
L 496.984956 -118.790659 
L 497.583558 -118.449638 
L 498.182159 -118.10726 
L 498.780761 -117.763553 
L 499.379362 -117.418546 
L 499.977964 -117.072268 
L 500.576566 -116.724748 
L 501.175167 -116.376016 
L 501.773769 -116.026099 
L 502.37237 -115.675028 
L 502.970972 -115.322831 
L 503.569573 -114.969537 
L 504.168175 -114.615175 
L 504.766777 -114.259775 
L 505.365378 -113.903364 
L 505.96398 -113.545973 
L 506.562581 -113.187629 
L 507.161183 -112.828362 
L 507.759785 -112.4682 
L 508.358386 -112.107172 
L 508.956988 -111.745308 
L 509.555589 -111.382634 
L 510.154191 -111.019181 
L 510.752793 -110.654976 
L 511.351394 -110.290048 
L 511.949996 -109.924426 
L 512.548597 -109.558138 
L 513.147199 -109.191211 
L 513.745801 -108.823675 
L 514.344402 -108.455557 
L 514.943004 -108.086885 
L 515.541605 -107.717688 
L 516.140207 -107.347992 
L 516.738808 -106.977826 
L 517.33741 -106.607218 
L 517.936012 -106.236195 
L 518.534613 -105.864784 
L 519.133215 -105.493013 
L 519.731816 -105.120909 
L 520.330418 -104.748499 
L 520.92902 -104.37581 
L 521.527621 -104.002869 
L 522.126223 -103.629702 
L 522.724824 -103.256337 
L 523.323426 -102.8828 
L 523.922028 -102.509117 
L 524.520629 -102.135315 
L 525.119231 -101.761419 
L 525.717832 -101.387455 
L 526.316434 -101.01345 
L 526.915036 -100.639429 
L 527.513637 -100.265418 
L 528.112239 -99.891441 
L 528.71084 -99.517524 
L 529.309442 -99.143693 
L 529.908043 -98.769972 
L 530.506645 -98.396385 
L 531.105247 -98.022958 
L 531.703848 -97.649715 
L 532.30245 -97.27668 
L 532.901051 -96.903878 
L 533.499653 -96.531331 
L 534.098255 -96.159064 
L 534.696856 -95.787101 
L 535.295458 -95.415464 
L 535.894059 -95.044178 
L 536.492661 -94.673264 
L 537.091263 -94.302746 
L 537.689864 -93.932647 
L 538.288466 -93.562989 
L 538.887067 -93.193794 
L 539.485669 -92.825085 
L 540.084271 -92.456883 
L 540.682872 -92.089209 
L 541.281474 -91.722086 
L 541.880075 -91.355535 
L 542.478677 -90.989577 
L 543.077278 -90.624232 
L 543.67588 -90.259521 
L 544.274482 -89.895466 
L 544.873083 -89.532085 
L 545.471685 -89.1694 
L 546.070286 -88.80743 
L 546.668888 -88.446194 
L 547.26749 -88.085713 
L 547.866091 -87.726004 
L 548.464693 -87.367088 
L 549.063294 -87.008983 
L 549.661896 -86.651708 
L 550.260498 -86.295281 
L 550.859099 -85.939719 
L 551.457701 -85.585042 
L 552.056302 -85.231266 
L 552.654904 -84.878409 
L 553.253506 -84.526488 
L 553.852107 -84.17552 
L 554.450709 -83.825523 
L 555.04931 -83.476511 
L 555.647912 -83.128503 
L 556.246513 -82.781513 
L 556.845115 -82.435558 
L 557.443717 -82.090652 
L 558.042318 -81.746813 
L 558.64092 -81.404053 
L 559.239521 -81.062389 
L 559.838123 -80.721835 
L 560.436725 -80.382405 
L 561.035326 -80.044114 
L 561.633928 -79.706974 
L 562.232529 -79.371001 
L 562.831131 -79.036206 
L 563.429733 -78.702604 
L 564.028334 -78.370206 
L 564.626936 -78.039026 
L 565.225537 -77.709076 
L 565.824139 -77.380368 
L 566.422741 -77.052913 
L 567.021342 -76.726723 
L 567.619944 -76.40181 
L 568.218545 -76.078183 
L 568.817147 -75.755854 
L 569.415748 -75.434834 
L 570.01435 -75.115131 
L 570.612952 -74.796756 
L 571.211553 -74.479719 
L 571.810155 -74.164028 
L 572.408756 -73.849692 
L 573.007358 -73.53672 
L 573.60596 -73.22512 
L 574.204561 -72.9149 
L 574.803163 -72.606067 
L 575.401764 -72.298629 
L 576.000366 -71.992593 
L 576.598968 -71.687965 
L 577.197569 -71.384751 
L 577.796171 -71.082957 
L 578.394772 -70.782589 
L 578.993374 -70.483652 
L 579.591976 -70.18615 
L 580.190577 -69.890088 
L 580.789179 -69.59547 
L 581.38778 -69.302299 
L 581.986382 -69.010578 
L 582.584983 -68.720311 
L 583.183585 -68.4315 
L 583.782187 -68.144146 
L 584.380788 -67.85825 
L 584.97939 -67.573815 
L 585.577991 -67.290841 
L 586.176593 -67.009327 
L 586.775195 -66.729273 
L 587.373796 -66.45068 
L 587.972398 -66.173544 
L 588.570999 -65.897866 
L 589.169601 -65.623641 
L 589.768203 -65.350868 
L 590.366804 -65.079544 
L 590.965406 -64.809665 
L 591.564007 -64.541226 
L 592.162609 -64.274222 
L 592.76121 -64.00865 
L 593.359812 -63.744501 
L 593.958414 -63.481772 
L 594.557015 -63.220454 
L 595.155617 -62.96054 
L 595.754218 -62.702022 
L 596.35282 -62.444892 
L 596.951422 -62.189142 
L 597.550023 -61.93476 
L 598.148625 -61.681739 
L 598.747226 -61.430066 
L 599.345828 -61.179732 
L 599.94443 -60.930724 
L 600.543031 -60.683031 
L 601.141633 -60.436641 
L 601.740234 -60.191539 
L 602.338836 -59.947714 
L 602.937438 -59.70515 
L 603.536039 -59.463835 
L 604.134641 -59.223753 
L 604.733242 -58.984889 
L 605.331844 -58.747228 
L 605.930445 -58.510755 
L 606.529047 -58.275452 
L 607.127649 -58.041304 
L 607.72625 -57.808295 
L 608.324852 -57.576407 
L 608.923453 -57.345623 
L 609.522055 -57.115927 
L 610.120657 -56.8873 
L 610.719258 -56.659726 
L 611.31786 -56.433187 
L 611.916461 -56.207665 
L 612.515063 -55.983143 
L 613.113665 -55.759604 
L 613.712266 -55.537031 
L 614.310868 -55.315405 
L 614.909469 -55.094711 
L 615.508071 -54.874932 
L 616.106673 -54.656051 
L 616.705274 -54.438053 
L 617.303876 -54.220921 
L 617.902477 -54.004641 
L 618.501079 -53.789198 
L 619.09968 -53.574579 
L 619.698282 -53.360769 
L 620.296884 -53.147756 
L 620.895485 -52.935528 
L 621.494087 -52.724074 
L 622.092688 -52.513383 
L 622.69129 -52.303446 
L 623.289892 -52.094254 
L 623.888493 -51.8858 
L 624.487095 -51.678077 
L 625.085696 -51.471079 
L 625.684298 -51.264803 
L 626.2829 -51.059245 
L 626.881501 -50.854403 
L 627.480103 -50.650276 
L 628.078704 -50.446865 
L 628.677306 -50.244172 
L 629.275908 -50.042199 
L 629.874509 -49.840953 
L 630.473111 -49.640437 
L 631.071712 -49.44066 
L 631.670314 -49.241631 
L 632.268915 -49.04336 
L 632.867517 -48.845859 
L 633.466119 -48.64914 
L 634.06472 -48.453219 
L 634.663322 -48.258111 
L 635.261923 -48.063834 
L 635.860525 -47.870407 
L 636.459127 -47.67785 
L 637.057728 -47.486186 
L 637.65633 -47.295437 
L 638.254931 -47.105628 
L 638.853533 -46.916784 
L 639.452135 -46.728934 
L 640.050736 -46.542104 
L 640.649338 -46.356324 
L 641.247939 -46.171626 
L 641.846541 -45.988041 
L 642.445143 -45.8056 
L 643.043744 -45.624339 
L 643.642346 -45.444291 
L 644.240947 -45.265492 
L 644.839549 -45.087978 
L 645.43815 -44.911784 
L 646.036752 -44.73695 
L 646.635354 -44.563511 
L 647.233955 -44.391506 
L 647.832557 -44.220974 
L 648.431158 -44.051953 
L 649.02976 -43.884482 
L 649.628362 -43.718599 
L 650.226963 -43.554343 
L 650.825565 -43.391753 
L 651.424166 -43.230866 
L 652.022768 -43.071721 
L 652.62137 -42.914354 
L 653.219971 -42.758804 
L 653.818573 -42.605105 
L 654.417174 -42.453294 
L 655.015776 -42.303404 
L 655.614378 -42.155471 
L 656.212979 -42.009525 
L 656.811581 -41.8656 
L 657.410182 -41.723725 
L 658.008784 -41.58393 
L 658.607385 -41.446243 
L 659.205987 -41.31069 
L 659.804589 -41.177295 
L 660.40319 -41.046084 
L 661.001792 -40.917077 
L 661.600393 -40.790294 
L 662.198995 -40.665755 
L 662.797597 -40.543477 
L 663.396198 -40.423473 
L 663.9948 -40.305759 
L 664.593401 -40.190344 
L 665.192003 -40.077238 
L 665.790605 -39.96645 
L 666.389206 -39.857984 
L 666.987808 -39.751846 
L 667.586409 -39.648035 
L 668.185011 -39.546553 
L 668.783613 -39.447398 
L 669.382214 -39.350565 
L 669.980816 -39.256049 
L 670.579417 -39.163842 
L 671.178019 -39.073934 
L 671.77662 -38.986315 
L 672.375222 -38.900971 
L 672.973824 -38.817886 
L 673.572425 -38.737046 
L 674.171027 -38.65843 
L 674.769628 -38.582019 
L 675.36823 -38.507793 
L 675.966832 -38.435726 
L 676.565433 -38.365796 
L 677.164035 -38.297976 
L 677.762636 -38.232239 
L 678.361238 -38.168556 
L 678.95984 -38.106898 
L 679.558441 -38.047234 
L 680.157043 -37.989532 
L 680.755644 -37.933758 
L 681.354246 -37.87988 
L 681.952848 -37.827861 
L 682.551449 -37.777668 
L 683.150051 -37.729263 
L 683.748652 -37.68261 
L 684.347254 -37.637671 
L 684.945855 -37.594409 
L 685.544457 -37.552784 
L 686.143059 -37.51276 
L 686.74166 -37.474295 
L 687.340262 -37.437352 
L 687.938863 -37.401891 
L 688.537465 -37.367872 
L 689.136067 -37.335256 
L 689.734668 -37.304005 
L 690.33327 -37.274078 
L 690.931871 -37.245436 
L 691.530473 -37.218041 
L 692.129075 -37.191854 
L 692.727676 -37.166837 
L 693.326278 -37.142952 
L 693.924879 -37.120161 
L 694.523481 -37.098427 
L 695.122083 -37.077714 
L 695.720684 -37.057986 
L 696.319286 -37.039208 
L 696.917887 -37.021343 
L 697.516489 -37.00436 
L 698.11509 -36.988222 
L 698.713692 -36.972899 
L 699.312294 -36.958358 
L 699.910895 -36.944567 
L 700.509497 -36.931495 
L 701.108098 -36.919113 
L 701.7067 -36.907392 
L 702.305302 -36.896302 
L 702.903903 -36.885817 
L 703.502505 -36.87591 
L 704.101106 -36.866554 
L 704.699708 -36.857725 
L 705.29831 -36.849397 
L 705.896911 -36.841548 
L 706.495513 -36.834154 
L 707.094114 -36.827193 
L 707.692716 -36.820644 
L 708.291318 -36.814487 
L 708.889919 -36.808701 
L 709.488521 -36.803268 
L 710.087122 -36.798169 
L 710.685724 -36.793386 
L 711.284325 -36.788904 
L 711.882927 -36.784705 
L 712.481529 -36.780775 
L 713.08013 -36.777097 
L 713.678732 -36.773659 
L 714.277333 -36.770447 
L 714.875935 -36.767447 
L 715.474537 -36.764648 
L 716.073138 -36.762037 
L 716.67174 -36.759604 
L 717.270341 -36.757337 
L 717.868943 -36.755228 
L 718.467545 -36.753265 
L 719.066146 -36.751441 
L 719.664748 -36.749745 
L 720.263349 -36.748171 
L 720.861951 -36.746711 
L 721.460553 -36.745357 
L 721.460553 -36.729688 
L 721.460553 -36.729688 
L 720.861951 -36.729688 
L 720.263349 -36.729688 
L 719.664748 -36.729688 
L 719.066146 -36.729688 
L 718.467545 -36.729688 
L 717.868943 -36.729688 
L 717.270341 -36.729688 
L 716.67174 -36.729688 
L 716.073138 -36.729688 
L 715.474537 -36.729688 
L 714.875935 -36.729688 
L 714.277333 -36.729688 
L 713.678732 -36.729688 
L 713.08013 -36.729688 
L 712.481529 -36.729688 
L 711.882927 -36.729688 
L 711.284325 -36.729688 
L 710.685724 -36.729688 
L 710.087122 -36.729688 
L 709.488521 -36.729688 
L 708.889919 -36.729688 
L 708.291318 -36.729688 
L 707.692716 -36.729688 
L 707.094114 -36.729688 
L 706.495513 -36.729688 
L 705.896911 -36.729688 
L 705.29831 -36.729688 
L 704.699708 -36.729688 
L 704.101106 -36.729688 
L 703.502505 -36.729688 
L 702.903903 -36.729688 
L 702.305302 -36.729688 
L 701.7067 -36.729688 
L 701.108098 -36.729688 
L 700.509497 -36.729688 
L 699.910895 -36.729688 
L 699.312294 -36.729688 
L 698.713692 -36.729688 
L 698.11509 -36.729688 
L 697.516489 -36.729688 
L 696.917887 -36.729688 
L 696.319286 -36.729688 
L 695.720684 -36.729688 
L 695.122083 -36.729688 
L 694.523481 -36.729688 
L 693.924879 -36.729688 
L 693.326278 -36.729688 
L 692.727676 -36.729688 
L 692.129075 -36.729688 
L 691.530473 -36.729688 
L 690.931871 -36.729688 
L 690.33327 -36.729688 
L 689.734668 -36.729688 
L 689.136067 -36.729688 
L 688.537465 -36.729688 
L 687.938863 -36.729688 
L 687.340262 -36.729688 
L 686.74166 -36.729688 
L 686.143059 -36.729688 
L 685.544457 -36.729688 
L 684.945855 -36.729688 
L 684.347254 -36.729688 
L 683.748652 -36.729688 
L 683.150051 -36.729688 
L 682.551449 -36.729688 
L 681.952848 -36.729688 
L 681.354246 -36.729688 
L 680.755644 -36.729688 
L 680.157043 -36.729688 
L 679.558441 -36.729688 
L 678.95984 -36.729688 
L 678.361238 -36.729688 
L 677.762636 -36.729688 
L 677.164035 -36.729688 
L 676.565433 -36.729688 
L 675.966832 -36.729688 
L 675.36823 -36.729688 
L 674.769628 -36.729688 
L 674.171027 -36.729688 
L 673.572425 -36.729688 
L 672.973824 -36.729688 
L 672.375222 -36.729688 
L 671.77662 -36.729688 
L 671.178019 -36.729688 
L 670.579417 -36.729688 
L 669.980816 -36.729688 
L 669.382214 -36.729688 
L 668.783613 -36.729688 
L 668.185011 -36.729688 
L 667.586409 -36.729688 
L 666.987808 -36.729688 
L 666.389206 -36.729688 
L 665.790605 -36.729688 
L 665.192003 -36.729688 
L 664.593401 -36.729688 
L 663.9948 -36.729688 
L 663.396198 -36.729688 
L 662.797597 -36.729688 
L 662.198995 -36.729688 
L 661.600393 -36.729688 
L 661.001792 -36.729688 
L 660.40319 -36.729688 
L 659.804589 -36.729688 
L 659.205987 -36.729688 
L 658.607385 -36.729688 
L 658.008784 -36.729688 
L 657.410182 -36.729688 
L 656.811581 -36.729688 
L 656.212979 -36.729688 
L 655.614378 -36.729688 
L 655.015776 -36.729688 
L 654.417174 -36.729688 
L 653.818573 -36.729688 
L 653.219971 -36.729688 
L 652.62137 -36.729688 
L 652.022768 -36.729688 
L 651.424166 -36.729688 
L 650.825565 -36.729688 
L 650.226963 -36.729688 
L 649.628362 -36.729688 
L 649.02976 -36.729688 
L 648.431158 -36.729688 
L 647.832557 -36.729688 
L 647.233955 -36.729688 
L 646.635354 -36.729688 
L 646.036752 -36.729688 
L 645.43815 -36.729688 
L 644.839549 -36.729688 
L 644.240947 -36.729688 
L 643.642346 -36.729688 
L 643.043744 -36.729688 
L 642.445143 -36.729688 
L 641.846541 -36.729688 
L 641.247939 -36.729688 
L 640.649338 -36.729688 
L 640.050736 -36.729688 
L 639.452135 -36.729688 
L 638.853533 -36.729688 
L 638.254931 -36.729688 
L 637.65633 -36.729688 
L 637.057728 -36.729688 
L 636.459127 -36.729688 
L 635.860525 -36.729688 
L 635.261923 -36.729688 
L 634.663322 -36.729688 
L 634.06472 -36.729688 
L 633.466119 -36.729688 
L 632.867517 -36.729688 
L 632.268915 -36.729688 
L 631.670314 -36.729688 
L 631.071712 -36.729688 
L 630.473111 -36.729688 
L 629.874509 -36.729688 
L 629.275908 -36.729688 
L 628.677306 -36.729688 
L 628.078704 -36.729688 
L 627.480103 -36.729688 
L 626.881501 -36.729688 
L 626.2829 -36.729688 
L 625.684298 -36.729688 
L 625.085696 -36.729688 
L 624.487095 -36.729688 
L 623.888493 -36.729688 
L 623.289892 -36.729688 
L 622.69129 -36.729688 
L 622.092688 -36.729688 
L 621.494087 -36.729688 
L 620.895485 -36.729688 
L 620.296884 -36.729688 
L 619.698282 -36.729688 
L 619.09968 -36.729688 
L 618.501079 -36.729688 
L 617.902477 -36.729688 
L 617.303876 -36.729688 
L 616.705274 -36.729688 
L 616.106673 -36.729688 
L 615.508071 -36.729688 
L 614.909469 -36.729688 
L 614.310868 -36.729688 
L 613.712266 -36.729688 
L 613.113665 -36.729688 
L 612.515063 -36.729688 
L 611.916461 -36.729688 
L 611.31786 -36.729688 
L 610.719258 -36.729688 
L 610.120657 -36.729688 
L 609.522055 -36.729688 
L 608.923453 -36.729688 
L 608.324852 -36.729688 
L 607.72625 -36.729688 
L 607.127649 -36.729688 
L 606.529047 -36.729688 
L 605.930445 -36.729688 
L 605.331844 -36.729688 
L 604.733242 -36.729688 
L 604.134641 -36.729688 
L 603.536039 -36.729688 
L 602.937438 -36.729688 
L 602.338836 -36.729688 
L 601.740234 -36.729688 
L 601.141633 -36.729688 
L 600.543031 -36.729688 
L 599.94443 -36.729688 
L 599.345828 -36.729688 
L 598.747226 -36.729688 
L 598.148625 -36.729688 
L 597.550023 -36.729688 
L 596.951422 -36.729688 
L 596.35282 -36.729688 
L 595.754218 -36.729688 
L 595.155617 -36.729688 
L 594.557015 -36.729688 
L 593.958414 -36.729688 
L 593.359812 -36.729688 
L 592.76121 -36.729688 
L 592.162609 -36.729688 
L 591.564007 -36.729688 
L 590.965406 -36.729688 
L 590.366804 -36.729688 
L 589.768203 -36.729688 
L 589.169601 -36.729688 
L 588.570999 -36.729688 
L 587.972398 -36.729688 
L 587.373796 -36.729688 
L 586.775195 -36.729688 
L 586.176593 -36.729688 
L 585.577991 -36.729688 
L 584.97939 -36.729688 
L 584.380788 -36.729688 
L 583.782187 -36.729688 
L 583.183585 -36.729688 
L 582.584983 -36.729688 
L 581.986382 -36.729688 
L 581.38778 -36.729688 
L 580.789179 -36.729688 
L 580.190577 -36.729688 
L 579.591976 -36.729688 
L 578.993374 -36.729688 
L 578.394772 -36.729688 
L 577.796171 -36.729688 
L 577.197569 -36.729688 
L 576.598968 -36.729688 
L 576.000366 -36.729688 
L 575.401764 -36.729688 
L 574.803163 -36.729688 
L 574.204561 -36.729688 
L 573.60596 -36.729688 
L 573.007358 -36.729688 
L 572.408756 -36.729688 
L 571.810155 -36.729688 
L 571.211553 -36.729688 
L 570.612952 -36.729688 
L 570.01435 -36.729688 
L 569.415748 -36.729688 
L 568.817147 -36.729688 
L 568.218545 -36.729688 
L 567.619944 -36.729688 
L 567.021342 -36.729688 
L 566.422741 -36.729688 
L 565.824139 -36.729688 
L 565.225537 -36.729688 
L 564.626936 -36.729688 
L 564.028334 -36.729688 
L 563.429733 -36.729688 
L 562.831131 -36.729688 
L 562.232529 -36.729688 
L 561.633928 -36.729688 
L 561.035326 -36.729688 
L 560.436725 -36.729688 
L 559.838123 -36.729688 
L 559.239521 -36.729688 
L 558.64092 -36.729688 
L 558.042318 -36.729688 
L 557.443717 -36.729688 
L 556.845115 -36.729688 
L 556.246513 -36.729688 
L 555.647912 -36.729688 
L 555.04931 -36.729688 
L 554.450709 -36.729688 
L 553.852107 -36.729688 
L 553.253506 -36.729688 
L 552.654904 -36.729688 
L 552.056302 -36.729688 
L 551.457701 -36.729688 
L 550.859099 -36.729688 
L 550.260498 -36.729688 
L 549.661896 -36.729688 
L 549.063294 -36.729688 
L 548.464693 -36.729688 
L 547.866091 -36.729688 
L 547.26749 -36.729688 
L 546.668888 -36.729688 
L 546.070286 -36.729688 
L 545.471685 -36.729688 
L 544.873083 -36.729688 
L 544.274482 -36.729688 
L 543.67588 -36.729688 
L 543.077278 -36.729688 
L 542.478677 -36.729688 
L 541.880075 -36.729688 
L 541.281474 -36.729688 
L 540.682872 -36.729688 
L 540.084271 -36.729688 
L 539.485669 -36.729688 
L 538.887067 -36.729688 
L 538.288466 -36.729688 
L 537.689864 -36.729688 
L 537.091263 -36.729688 
L 536.492661 -36.729688 
L 535.894059 -36.729688 
L 535.295458 -36.729688 
L 534.696856 -36.729688 
L 534.098255 -36.729688 
L 533.499653 -36.729688 
L 532.901051 -36.729688 
L 532.30245 -36.729688 
L 531.703848 -36.729688 
L 531.105247 -36.729688 
L 530.506645 -36.729688 
L 529.908043 -36.729688 
L 529.309442 -36.729688 
L 528.71084 -36.729688 
L 528.112239 -36.729688 
L 527.513637 -36.729688 
L 526.915036 -36.729688 
L 526.316434 -36.729688 
L 525.717832 -36.729688 
L 525.119231 -36.729688 
L 524.520629 -36.729688 
L 523.922028 -36.729688 
L 523.323426 -36.729688 
L 522.724824 -36.729688 
L 522.126223 -36.729688 
L 521.527621 -36.729688 
L 520.92902 -36.729688 
L 520.330418 -36.729688 
L 519.731816 -36.729688 
L 519.133215 -36.729688 
L 518.534613 -36.729688 
L 517.936012 -36.729688 
L 517.33741 -36.729688 
L 516.738808 -36.729688 
L 516.140207 -36.729688 
L 515.541605 -36.729688 
L 514.943004 -36.729688 
L 514.344402 -36.729688 
L 513.745801 -36.729688 
L 513.147199 -36.729688 
L 512.548597 -36.729688 
L 511.949996 -36.729688 
L 511.351394 -36.729688 
L 510.752793 -36.729688 
L 510.154191 -36.729688 
L 509.555589 -36.729688 
L 508.956988 -36.729688 
L 508.358386 -36.729688 
L 507.759785 -36.729688 
L 507.161183 -36.729688 
L 506.562581 -36.729688 
L 505.96398 -36.729688 
L 505.365378 -36.729688 
L 504.766777 -36.729688 
L 504.168175 -36.729688 
L 503.569573 -36.729688 
L 502.970972 -36.729688 
L 502.37237 -36.729688 
L 501.773769 -36.729688 
L 501.175167 -36.729688 
L 500.576566 -36.729688 
L 499.977964 -36.729688 
L 499.379362 -36.729688 
L 498.780761 -36.729688 
L 498.182159 -36.729688 
L 497.583558 -36.729688 
L 496.984956 -36.729688 
L 496.386354 -36.729688 
L 495.787753 -36.729688 
L 495.189151 -36.729688 
L 494.59055 -36.729688 
L 493.991948 -36.729688 
L 493.393346 -36.729688 
L 492.794745 -36.729688 
L 492.196143 -36.729688 
L 491.597542 -36.729688 
L 490.99894 -36.729688 
L 490.400338 -36.729688 
L 489.801737 -36.729688 
L 489.203135 -36.729688 
L 488.604534 -36.729688 
L 488.005932 -36.729688 
L 487.407331 -36.729688 
L 486.808729 -36.729688 
L 486.210127 -36.729688 
L 485.611526 -36.729688 
L 485.012924 -36.729688 
L 484.414323 -36.729688 
L 483.815721 -36.729688 
L 483.217119 -36.729688 
L 482.618518 -36.729688 
L 482.019916 -36.729688 
L 481.421315 -36.729688 
L 480.822713 -36.729688 
L 480.224111 -36.729688 
L 479.62551 -36.729688 
L 479.026908 -36.729688 
L 478.428307 -36.729688 
L 477.829705 -36.729688 
L 477.231103 -36.729688 
L 476.632502 -36.729688 
L 476.0339 -36.729688 
L 475.435299 -36.729688 
L 474.836697 -36.729688 
L 474.238096 -36.729688 
L 473.639494 -36.729688 
L 473.040892 -36.729688 
L 472.442291 -36.729688 
L 471.843689 -36.729688 
L 471.245088 -36.729688 
L 470.646486 -36.729688 
L 470.047884 -36.729688 
L 469.449283 -36.729688 
L 468.850681 -36.729688 
L 468.25208 -36.729688 
L 467.653478 -36.729688 
L 467.054876 -36.729688 
L 466.456275 -36.729688 
L 465.857673 -36.729688 
L 465.259072 -36.729688 
L 464.66047 -36.729688 
L 464.061868 -36.729688 
L 463.463267 -36.729688 
L 462.864665 -36.729688 
L 462.266064 -36.729688 
L 461.667462 -36.729688 
L 461.068861 -36.729688 
L 460.470259 -36.729688 
L 459.871657 -36.729688 
L 459.273056 -36.729688 
L 458.674454 -36.729688 
L 458.075853 -36.729688 
L 457.477251 -36.729688 
L 456.878649 -36.729688 
L 456.280048 -36.729688 
L 455.681446 -36.729688 
L 455.082845 -36.729688 
L 454.484243 -36.729688 
L 453.885641 -36.729688 
L 453.28704 -36.729688 
L 452.688438 -36.729688 
L 452.089837 -36.729688 
L 451.491235 -36.729688 
L 450.892633 -36.729688 
L 450.294032 -36.729688 
L 449.69543 -36.729688 
L 449.096829 -36.729688 
L 448.498227 -36.729688 
L 447.899626 -36.729688 
L 447.301024 -36.729688 
L 446.702422 -36.729688 
L 446.103821 -36.729688 
L 445.505219 -36.729688 
L 444.906618 -36.729688 
L 444.308016 -36.729688 
L 443.709414 -36.729688 
L 443.110813 -36.729688 
L 442.512211 -36.729688 
L 441.91361 -36.729688 
L 441.315008 -36.729688 
L 440.716406 -36.729688 
L 440.117805 -36.729688 
L 439.519203 -36.729688 
L 438.920602 -36.729688 
L 438.322 -36.729688 
L 437.723398 -36.729688 
L 437.124797 -36.729688 
L 436.526195 -36.729688 
L 435.927594 -36.729688 
L 435.328992 -36.729688 
L 434.730391 -36.729688 
L 434.131789 -36.729688 
L 433.533187 -36.729688 
L 432.934586 -36.729688 
L 432.335984 -36.729688 
L 431.737383 -36.729688 
L 431.138781 -36.729688 
L 430.540179 -36.729688 
L 429.941578 -36.729688 
L 429.342976 -36.729688 
L 428.744375 -36.729688 
L 428.145773 -36.729688 
L 427.547171 -36.729688 
L 426.94857 -36.729688 
L 426.349968 -36.729688 
L 425.751367 -36.729688 
L 425.152765 -36.729688 
L 424.554163 -36.729688 
L 423.955562 -36.729688 
L 423.35696 -36.729688 
L 422.758359 -36.729688 
L 422.159757 -36.729688 
L 421.561156 -36.729688 
L 420.962554 -36.729688 
L 420.363952 -36.729688 
L 419.765351 -36.729688 
L 419.166749 -36.729688 
L 418.568148 -36.729688 
L 417.969546 -36.729688 
L 417.370944 -36.729688 
L 416.772343 -36.729688 
L 416.173741 -36.729688 
L 415.57514 -36.729688 
L 414.976538 -36.729688 
L 414.377936 -36.729688 
L 413.779335 -36.729688 
L 413.180733 -36.729688 
L 412.582132 -36.729688 
L 411.98353 -36.729688 
L 411.384928 -36.729688 
L 410.786327 -36.729688 
L 410.187725 -36.729688 
L 409.589124 -36.729688 
L 408.990522 -36.729688 
L 408.391921 -36.729688 
L 407.793319 -36.729688 
L 407.194717 -36.729688 
L 406.596116 -36.729688 
L 405.997514 -36.729688 
L 405.398913 -36.729688 
L 404.800311 -36.729688 
L 404.201709 -36.729688 
L 403.603108 -36.729688 
L 403.004506 -36.729688 
L 402.405905 -36.729688 
L 401.807303 -36.729688 
L 401.208701 -36.729688 
L 400.6101 -36.729688 
L 400.011498 -36.729688 
L 399.412897 -36.729688 
L 398.814295 -36.729688 
L 398.215693 -36.729688 
L 397.617092 -36.729688 
L 397.01849 -36.729688 
L 396.419889 -36.729688 
L 395.821287 -36.729688 
L 395.222686 -36.729688 
L 394.624084 -36.729688 
L 394.025482 -36.729688 
L 393.426881 -36.729688 
L 392.828279 -36.729688 
L 392.229678 -36.729688 
L 391.631076 -36.729688 
L 391.032474 -36.729688 
L 390.433873 -36.729688 
L 389.835271 -36.729688 
L 389.23667 -36.729688 
L 388.638068 -36.729688 
L 388.039466 -36.729688 
L 387.440865 -36.729688 
L 386.842263 -36.729688 
L 386.243662 -36.729688 
L 385.64506 -36.729688 
L 385.046458 -36.729688 
L 384.447857 -36.729688 
L 383.849255 -36.729688 
L 383.250654 -36.729688 
L 382.652052 -36.729688 
L 382.053451 -36.729688 
L 381.454849 -36.729688 
L 380.856247 -36.729688 
L 380.257646 -36.729688 
L 379.659044 -36.729688 
L 379.060443 -36.729688 
L 378.461841 -36.729688 
L 377.863239 -36.729688 
L 377.264638 -36.729688 
L 376.666036 -36.729688 
L 376.067435 -36.729688 
L 375.468833 -36.729688 
L 374.870231 -36.729688 
L 374.27163 -36.729688 
L 373.673028 -36.729688 
L 373.074427 -36.729688 
L 372.475825 -36.729688 
L 371.877223 -36.729688 
L 371.278622 -36.729688 
L 370.68002 -36.729688 
L 370.081419 -36.729688 
L 369.482817 -36.729688 
L 368.884216 -36.729688 
L 368.285614 -36.729688 
L 367.687012 -36.729688 
L 367.088411 -36.729688 
L 366.489809 -36.729688 
L 365.891208 -36.729688 
L 365.292606 -36.729688 
L 364.694004 -36.729688 
L 364.095403 -36.729688 
L 363.496801 -36.729688 
L 362.8982 -36.729688 
L 362.299598 -36.729688 
L 361.700996 -36.729688 
L 361.102395 -36.729688 
L 360.503793 -36.729688 
L 359.905192 -36.729688 
L 359.30659 -36.729688 
L 358.707988 -36.729688 
L 358.109387 -36.729688 
L 357.510785 -36.729688 
L 356.912184 -36.729688 
L 356.313582 -36.729688 
L 355.714981 -36.729688 
L 355.116379 -36.729688 
L 354.517777 -36.729688 
L 353.919176 -36.729688 
L 353.320574 -36.729688 
L 352.721973 -36.729688 
L 352.123371 -36.729688 
L 351.524769 -36.729688 
L 350.926168 -36.729688 
L 350.327566 -36.729688 
L 349.728965 -36.729688 
L 349.130363 -36.729688 
L 348.531761 -36.729688 
L 347.93316 -36.729688 
L 347.334558 -36.729688 
L 346.735957 -36.729688 
L 346.137355 -36.729688 
L 345.538753 -36.729688 
L 344.940152 -36.729688 
L 344.34155 -36.729688 
L 343.742949 -36.729688 
L 343.144347 -36.729688 
L 342.545746 -36.729688 
L 341.947144 -36.729688 
L 341.348542 -36.729688 
L 340.749941 -36.729688 
L 340.151339 -36.729688 
L 339.552738 -36.729688 
L 338.954136 -36.729688 
L 338.355534 -36.729688 
L 337.756933 -36.729688 
L 337.158331 -36.729688 
L 336.55973 -36.729688 
L 335.961128 -36.729688 
L 335.362526 -36.729688 
L 334.763925 -36.729688 
L 334.165323 -36.729688 
L 333.566722 -36.729688 
L 332.96812 -36.729688 
L 332.369518 -36.729688 
L 331.770917 -36.729688 
L 331.172315 -36.729688 
L 330.573714 -36.729688 
L 329.975112 -36.729688 
L 329.376511 -36.729688 
L 328.777909 -36.729688 
L 328.179307 -36.729688 
L 327.580706 -36.729688 
L 326.982104 -36.729688 
L 326.383503 -36.729688 
L 325.784901 -36.729688 
L 325.186299 -36.729688 
L 324.587698 -36.729688 
L 323.989096 -36.729688 
L 323.390495 -36.729688 
L 322.791893 -36.729688 
L 322.193291 -36.729688 
L 321.59469 -36.729688 
L 320.996088 -36.729688 
L 320.397487 -36.729688 
L 319.798885 -36.729688 
L 319.200283 -36.729688 
L 318.601682 -36.729688 
L 318.00308 -36.729688 
L 317.404479 -36.729688 
L 316.805877 -36.729688 
L 316.207276 -36.729688 
L 315.608674 -36.729688 
L 315.010072 -36.729688 
L 314.411471 -36.729688 
L 313.812869 -36.729688 
L 313.214268 -36.729688 
L 312.615666 -36.729688 
L 312.017064 -36.729688 
L 311.418463 -36.729688 
L 310.819861 -36.729688 
L 310.22126 -36.729688 
L 309.622658 -36.729688 
L 309.024056 -36.729688 
L 308.425455 -36.729688 
L 307.826853 -36.729688 
L 307.228252 -36.729688 
L 306.62965 -36.729688 
L 306.031048 -36.729688 
L 305.432447 -36.729688 
L 304.833845 -36.729688 
L 304.235244 -36.729688 
L 303.636642 -36.729688 
L 303.038041 -36.729688 
L 302.439439 -36.729688 
L 301.840837 -36.729688 
L 301.242236 -36.729688 
L 300.643634 -36.729688 
L 300.045033 -36.729688 
L 299.446431 -36.729688 
L 298.847829 -36.729688 
L 298.249228 -36.729688 
L 297.650626 -36.729688 
L 297.052025 -36.729688 
L 296.453423 -36.729688 
L 295.854821 -36.729688 
L 295.25622 -36.729688 
L 294.657618 -36.729688 
L 294.059017 -36.729688 
L 293.460415 -36.729688 
L 292.861813 -36.729688 
L 292.263212 -36.729688 
L 291.66461 -36.729688 
L 291.066009 -36.729688 
L 290.467407 -36.729688 
L 289.868806 -36.729688 
L 289.270204 -36.729688 
L 288.671602 -36.729688 
L 288.073001 -36.729688 
L 287.474399 -36.729688 
L 286.875798 -36.729688 
L 286.277196 -36.729688 
L 285.678594 -36.729688 
L 285.079993 -36.729688 
L 284.481391 -36.729688 
L 283.88279 -36.729688 
L 283.284188 -36.729688 
L 282.685586 -36.729688 
L 282.086985 -36.729688 
L 281.488383 -36.729688 
L 280.889782 -36.729688 
L 280.29118 -36.729688 
L 279.692578 -36.729688 
L 279.093977 -36.729688 
L 278.495375 -36.729688 
L 277.896774 -36.729688 
L 277.298172 -36.729688 
L 276.699571 -36.729688 
L 276.100969 -36.729688 
L 275.502367 -36.729688 
L 274.903766 -36.729688 
L 274.305164 -36.729688 
L 273.706563 -36.729688 
L 273.107961 -36.729688 
L 272.509359 -36.729688 
L 271.910758 -36.729688 
L 271.312156 -36.729688 
L 270.713555 -36.729688 
L 270.114953 -36.729688 
L 269.516351 -36.729688 
L 268.91775 -36.729688 
L 268.319148 -36.729688 
L 267.720547 -36.729688 
L 267.121945 -36.729688 
L 266.523343 -36.729688 
L 265.924742 -36.729688 
L 265.32614 -36.729688 
L 264.727539 -36.729688 
L 264.128937 -36.729688 
L 263.530336 -36.729688 
L 262.931734 -36.729688 
L 262.333132 -36.729688 
L 261.734531 -36.729688 
L 261.135929 -36.729688 
L 260.537328 -36.729688 
L 259.938726 -36.729688 
L 259.340124 -36.729688 
L 258.741523 -36.729688 
L 258.142921 -36.729688 
L 257.54432 -36.729688 
L 256.945718 -36.729688 
L 256.347116 -36.729688 
L 255.748515 -36.729688 
L 255.149913 -36.729688 
L 254.551312 -36.729688 
L 253.95271 -36.729688 
L 253.354108 -36.729688 
L 252.755507 -36.729688 
L 252.156905 -36.729688 
L 251.558304 -36.729688 
L 250.959702 -36.729688 
L 250.361101 -36.729688 
L 249.762499 -36.729688 
L 249.163897 -36.729688 
L 248.565296 -36.729688 
L 247.966694 -36.729688 
L 247.368093 -36.729688 
L 246.769491 -36.729688 
L 246.170889 -36.729688 
L 245.572288 -36.729688 
L 244.973686 -36.729688 
L 244.375085 -36.729688 
L 243.776483 -36.729688 
L 243.177881 -36.729688 
L 242.57928 -36.729688 
L 241.980678 -36.729688 
L 241.382077 -36.729688 
L 240.783475 -36.729688 
L 240.184873 -36.729688 
L 239.586272 -36.729688 
L 238.98767 -36.729688 
L 238.389069 -36.729688 
L 237.790467 -36.729688 
L 237.191866 -36.729688 
L 236.593264 -36.729688 
L 235.994662 -36.729688 
L 235.396061 -36.729688 
L 234.797459 -36.729688 
L 234.198858 -36.729688 
L 233.600256 -36.729688 
L 233.001654 -36.729688 
L 232.403053 -36.729688 
L 231.804451 -36.729688 
L 231.20585 -36.729688 
L 230.607248 -36.729688 
L 230.008646 -36.729688 
L 229.410045 -36.729688 
L 228.811443 -36.729688 
L 228.212842 -36.729688 
L 227.61424 -36.729688 
L 227.015638 -36.729688 
L 226.417037 -36.729688 
L 225.818435 -36.729688 
L 225.219834 -36.729688 
L 224.621232 -36.729688 
L 224.022631 -36.729688 
L 223.424029 -36.729688 
L 222.825427 -36.729688 
L 222.226826 -36.729688 
L 221.628224 -36.729688 
L 221.029623 -36.729688 
L 220.431021 -36.729688 
L 219.832419 -36.729688 
L 219.233818 -36.729688 
L 218.635216 -36.729688 
L 218.036615 -36.729688 
L 217.438013 -36.729688 
L 216.839411 -36.729688 
L 216.24081 -36.729688 
L 215.642208 -36.729688 
L 215.043607 -36.729688 
L 214.445005 -36.729688 
L 213.846403 -36.729688 
L 213.247802 -36.729688 
L 212.6492 -36.729688 
L 212.050599 -36.729688 
L 211.451997 -36.729688 
L 210.853396 -36.729688 
L 210.254794 -36.729688 
L 209.656192 -36.729688 
L 209.057591 -36.729688 
L 208.458989 -36.729688 
L 207.860388 -36.729688 
L 207.261786 -36.729688 
L 206.663184 -36.729688 
L 206.064583 -36.729688 
L 205.465981 -36.729688 
L 204.86738 -36.729688 
L 204.268778 -36.729688 
L 203.670176 -36.729688 
L 203.071575 -36.729688 
L 202.472973 -36.729688 
L 201.874372 -36.729688 
L 201.27577 -36.729688 
L 200.677168 -36.729688 
L 200.078567 -36.729688 
L 199.479965 -36.729688 
L 198.881364 -36.729688 
L 198.282762 -36.729688 
L 197.684161 -36.729688 
L 197.085559 -36.729688 
L 196.486957 -36.729688 
L 195.888356 -36.729688 
L 195.289754 -36.729688 
L 194.691153 -36.729688 
L 194.092551 -36.729688 
L 193.493949 -36.729688 
L 192.895348 -36.729688 
L 192.296746 -36.729688 
L 191.698145 -36.729688 
L 191.099543 -36.729688 
L 190.500941 -36.729688 
L 189.90234 -36.729688 
L 189.303738 -36.729688 
L 188.705137 -36.729688 
L 188.106535 -36.729688 
L 187.507934 -36.729688 
L 186.909332 -36.729688 
L 186.31073 -36.729688 
L 185.712129 -36.729688 
L 185.113527 -36.729688 
L 184.514926 -36.729688 
L 183.916324 -36.729688 
L 183.317722 -36.729688 
L 182.719121 -36.729688 
L 182.120519 -36.729688 
L 181.521918 -36.729688 
L 180.923316 -36.729688 
L 180.324714 -36.729688 
L 179.726113 -36.729688 
L 179.127511 -36.729688 
L 178.52891 -36.729688 
L 177.930308 -36.729688 
L 177.331706 -36.729688 
L 176.733105 -36.729688 
L 176.134503 -36.729688 
L 175.535902 -36.729688 
L 174.9373 -36.729688 
L 174.338699 -36.729688 
L 173.740097 -36.729688 
L 173.141495 -36.729688 
L 172.542894 -36.729688 
L 171.944292 -36.729688 
L 171.345691 -36.729688 
L 170.747089 -36.729688 
L 170.148487 -36.729688 
L 169.549886 -36.729688 
L 168.951284 -36.729688 
L 168.352683 -36.729688 
L 167.754081 -36.729688 
L 167.155479 -36.729688 
L 166.556878 -36.729688 
L 165.958276 -36.729688 
L 165.359675 -36.729688 
L 164.761073 -36.729688 
L 164.162471 -36.729688 
L 163.56387 -36.729688 
L 162.965268 -36.729688 
L 162.366667 -36.729688 
L 161.768065 -36.729688 
L 161.169464 -36.729688 
L 160.570862 -36.729688 
L 159.97226 -36.729688 
L 159.373659 -36.729688 
L 158.775057 -36.729688 
L 158.176456 -36.729688 
L 157.577854 -36.729688 
L 156.979252 -36.729688 
L 156.380651 -36.729688 
L 155.782049 -36.729688 
L 155.183448 -36.729688 
L 154.584846 -36.729688 
L 153.986244 -36.729688 
L 153.387643 -36.729688 
L 152.789041 -36.729688 
L 152.19044 -36.729688 
L 151.591838 -36.729688 
L 150.993236 -36.729688 
L 150.394635 -36.729688 
L 149.796033 -36.729688 
L 149.197432 -36.729688 
L 148.59883 -36.729688 
L 148.000229 -36.729688 
L 147.401627 -36.729688 
L 146.803025 -36.729688 
L 146.204424 -36.729688 
L 145.605822 -36.729688 
L 145.007221 -36.729688 
L 144.408619 -36.729688 
L 143.810017 -36.729688 
L 143.211416 -36.729688 
L 142.612814 -36.729688 
L 142.014213 -36.729688 
L 141.415611 -36.729688 
L 140.817009 -36.729688 
L 140.218408 -36.729688 
L 139.619806 -36.729688 
L 139.021205 -36.729688 
L 138.422603 -36.729688 
L 137.824001 -36.729688 
L 137.2254 -36.729688 
L 136.626798 -36.729688 
L 136.028197 -36.729688 
L 135.429595 -36.729688 
L 134.830994 -36.729688 
L 134.232392 -36.729688 
L 133.63379 -36.729688 
L 133.035189 -36.729688 
L 132.436587 -36.729688 
L 131.837986 -36.729688 
L 131.239384 -36.729688 
L 130.640782 -36.729688 
L 130.042181 -36.729688 
L 129.443579 -36.729688 
L 128.844978 -36.729688 
L 128.246376 -36.729688 
L 127.647774 -36.729688 
L 127.049173 -36.729688 
L 126.450571 -36.729688 
L 125.85197 -36.729688 
L 125.253368 -36.729688 
L 124.654766 -36.729688 
L 124.056165 -36.729688 
L 123.457563 -36.729688 
z
" style="stroke: #4c72b0; stroke-opacity: 0.2"/>
    </defs>
    <g clip-path="url(#pa231fcc9cf)">
     <use xlink:href="#m9a7ea75f8c" x="0" y="154.809687" style="fill: #4c72b0; fill-opacity: 0.2; stroke: #4c72b0; stroke-opacity: 0.2"/>
    </g>
   </g>
   <g id="FillBetweenPolyCollection_2">
    <defs>
     <path id="m7c9ccf9214" d="M 123.457563 -36.729688 
L 123.457563 -36.744419 
L 124.056165 -36.745691 
L 124.654766 -36.747062 
L 125.253368 -36.74854 
L 125.85197 -36.750131 
L 126.450571 -36.751843 
L 127.049173 -36.753685 
L 127.647774 -36.755665 
L 128.246376 -36.757792 
L 128.844978 -36.760074 
L 129.443579 -36.762524 
L 130.042181 -36.765149 
L 130.640782 -36.767963 
L 131.239384 -36.770976 
L 131.837986 -36.7742 
L 132.436587 -36.777648 
L 133.035189 -36.781333 
L 133.63379 -36.785269 
L 134.232392 -36.789471 
L 134.830994 -36.793953 
L 135.429595 -36.798731 
L 136.028197 -36.803823 
L 136.626798 -36.809244 
L 137.2254 -36.815013 
L 137.824001 -36.821148 
L 138.422603 -36.827668 
L 139.021205 -36.834593 
L 139.619806 -36.841945 
L 140.218408 -36.849743 
L 140.817009 -36.85801 
L 141.415611 -36.86677 
L 142.014213 -36.876045 
L 142.612814 -36.88586 
L 143.211416 -36.89624 
L 143.810017 -36.90721 
L 144.408619 -36.918798 
L 145.007221 -36.931029 
L 145.605822 -36.943933 
L 146.204424 -36.957538 
L 146.803025 -36.971873 
L 147.401627 -36.986968 
L 148.000229 -37.002854 
L 148.59883 -37.019562 
L 149.197432 -37.037123 
L 149.796033 -37.055571 
L 150.394635 -37.074939 
L 150.993236 -37.095259 
L 151.591838 -37.116565 
L 152.19044 -37.138894 
L 152.789041 -37.162278 
L 153.387643 -37.186754 
L 153.986244 -37.212357 
L 154.584846 -37.239124 
L 155.183448 -37.267089 
L 155.782049 -37.29629 
L 156.380651 -37.326764 
L 156.979252 -37.358546 
L 157.577854 -37.391674 
L 158.176456 -37.426183 
L 158.775057 -37.462112 
L 159.373659 -37.499496 
L 159.97226 -37.538371 
L 160.570862 -37.578773 
L 161.169464 -37.620739 
L 161.768065 -37.664303 
L 162.366667 -37.7095 
L 162.965268 -37.756365 
L 163.56387 -37.804931 
L 164.162471 -37.855231 
L 164.761073 -37.907298 
L 165.359675 -37.961163 
L 165.958276 -38.016857 
L 166.556878 -38.07441 
L 167.155479 -38.13385 
L 167.754081 -38.195205 
L 168.352683 -38.258502 
L 168.951284 -38.323766 
L 169.549886 -38.391022 
L 170.148487 -38.460292 
L 170.747089 -38.531597 
L 171.345691 -38.604959 
L 171.944292 -38.680396 
L 172.542894 -38.757925 
L 173.141495 -38.837561 
L 173.740097 -38.919319 
L 174.338699 -39.003212 
L 174.9373 -39.089249 
L 175.535902 -39.177441 
L 176.134503 -39.267794 
L 176.733105 -39.360315 
L 177.331706 -39.455007 
L 177.930308 -39.551872 
L 178.52891 -39.650911 
L 179.127511 -39.752123 
L 179.726113 -39.855505 
L 180.324714 -39.96105 
L 180.923316 -40.068754 
L 181.521918 -40.178608 
L 182.120519 -40.290601 
L 182.719121 -40.404722 
L 183.317722 -40.520958 
L 183.916324 -40.639293 
L 184.514926 -40.759711 
L 185.113527 -40.882193 
L 185.712129 -41.00672 
L 186.31073 -41.133271 
L 186.909332 -41.261824 
L 187.507934 -41.392354 
L 188.106535 -41.524837 
L 188.705137 -41.659245 
L 189.303738 -41.795553 
L 189.90234 -41.933731 
L 190.500941 -42.073749 
L 191.099543 -42.215578 
L 191.698145 -42.359187 
L 192.296746 -42.504542 
L 192.895348 -42.651613 
L 193.493949 -42.800365 
L 194.092551 -42.950765 
L 194.691153 -43.102779 
L 195.289754 -43.256373 
L 195.888356 -43.411512 
L 196.486957 -43.568161 
L 197.085559 -43.726286 
L 197.684161 -43.885852 
L 198.282762 -44.046825 
L 198.881364 -44.209169 
L 199.479965 -44.372851 
L 200.078567 -44.537838 
L 200.677168 -44.704096 
L 201.27577 -44.871592 
L 201.874372 -45.040294 
L 202.472973 -45.210171 
L 203.071575 -45.381192 
L 203.670176 -45.553328 
L 204.268778 -45.726549 
L 204.86738 -45.900827 
L 205.465981 -46.076135 
L 206.064583 -46.252448 
L 206.663184 -46.42974 
L 207.261786 -46.607987 
L 207.860388 -46.787168 
L 208.458989 -46.96726 
L 209.057591 -47.148243 
L 209.656192 -47.330099 
L 210.254794 -47.512809 
L 210.853396 -47.696358 
L 211.451997 -47.880731 
L 212.050599 -48.065914 
L 212.6492 -48.251894 
L 213.247802 -48.438661 
L 213.846403 -48.626205 
L 214.445005 -48.814518 
L 215.043607 -49.003593 
L 215.642208 -49.193424 
L 216.24081 -49.384007 
L 216.839411 -49.575339 
L 217.438013 -49.767418 
L 218.036615 -49.960244 
L 218.635216 -50.153817 
L 219.233818 -50.348139 
L 219.832419 -50.543213 
L 220.431021 -50.739043 
L 221.029623 -50.935635 
L 221.628224 -51.132993 
L 222.226826 -51.331127 
L 222.825427 -51.530043 
L 223.424029 -51.72975 
L 224.022631 -51.930259 
L 224.621232 -52.13158 
L 225.219834 -52.333724 
L 225.818435 -52.536704 
L 226.417037 -52.740533 
L 227.015638 -52.945223 
L 227.61424 -53.150788 
L 228.212842 -53.357244 
L 228.811443 -53.564604 
L 229.410045 -53.772885 
L 230.008646 -53.982102 
L 230.607248 -54.19227 
L 231.20585 -54.403407 
L 231.804451 -54.615529 
L 232.403053 -54.828652 
L 233.001654 -55.042793 
L 233.600256 -55.257969 
L 234.198858 -55.474198 
L 234.797459 -55.691496 
L 235.396061 -55.90988 
L 235.994662 -56.129367 
L 236.593264 -56.349973 
L 237.191866 -56.571717 
L 237.790467 -56.794613 
L 238.389069 -57.018679 
L 238.98767 -57.243931 
L 239.586272 -57.470384 
L 240.184873 -57.698054 
L 240.783475 -57.926956 
L 241.382077 -58.157106 
L 241.980678 -58.388518 
L 242.57928 -58.621206 
L 243.177881 -58.855184 
L 243.776483 -59.090466 
L 244.375085 -59.327065 
L 244.973686 -59.564993 
L 245.572288 -59.804263 
L 246.170889 -60.044887 
L 246.769491 -60.286875 
L 247.368093 -60.53024 
L 247.966694 -60.774991 
L 248.565296 -61.021137 
L 249.163897 -61.26869 
L 249.762499 -61.517657 
L 250.361101 -61.768047 
L 250.959702 -62.019869 
L 251.558304 -62.273129 
L 252.156905 -62.527835 
L 252.755507 -62.783993 
L 253.354108 -63.041609 
L 253.95271 -63.300689 
L 254.551312 -63.561238 
L 255.149913 -63.823261 
L 255.748515 -64.086762 
L 256.347116 -64.351744 
L 256.945718 -64.618211 
L 257.54432 -64.886165 
L 258.142921 -65.155609 
L 258.741523 -65.426545 
L 259.340124 -65.698973 
L 259.938726 -65.972896 
L 260.537328 -66.248313 
L 261.135929 -66.525225 
L 261.734531 -66.803632 
L 262.333132 -67.083532 
L 262.931734 -67.364924 
L 263.530336 -67.647808 
L 264.128937 -67.932181 
L 264.727539 -68.218041 
L 265.32614 -68.505385 
L 265.924742 -68.79421 
L 266.523343 -69.084513 
L 267.121945 -69.37629 
L 267.720547 -69.669537 
L 268.319148 -69.96425 
L 268.91775 -70.260423 
L 269.516351 -70.558052 
L 270.114953 -70.857131 
L 270.713555 -71.157654 
L 271.312156 -71.459615 
L 271.910758 -71.763008 
L 272.509359 -72.067825 
L 273.107961 -72.374061 
L 273.706563 -72.681707 
L 274.305164 -72.990755 
L 274.903766 -73.301199 
L 275.502367 -73.613029 
L 276.100969 -73.926237 
L 276.699571 -74.240814 
L 277.298172 -74.556751 
L 277.896774 -74.874038 
L 278.495375 -75.192667 
L 279.093977 -75.512626 
L 279.692578 -75.833906 
L 280.29118 -76.156497 
L 280.889782 -76.480387 
L 281.488383 -76.805565 
L 282.086985 -77.132021 
L 282.685586 -77.459742 
L 283.284188 -77.788717 
L 283.88279 -78.118934 
L 284.481391 -78.450381 
L 285.079993 -78.783044 
L 285.678594 -79.116912 
L 286.277196 -79.45197 
L 286.875798 -79.788207 
L 287.474399 -80.125607 
L 288.073001 -80.464158 
L 288.671602 -80.803846 
L 289.270204 -81.144655 
L 289.868806 -81.486572 
L 290.467407 -81.829582 
L 291.066009 -82.17367 
L 291.66461 -82.518821 
L 292.263212 -82.865019 
L 292.861813 -83.212248 
L 293.460415 -83.560493 
L 294.059017 -83.909737 
L 294.657618 -84.259965 
L 295.25622 -84.611159 
L 295.854821 -84.963302 
L 296.453423 -85.316378 
L 297.052025 -85.670369 
L 297.650626 -86.025258 
L 298.249228 -86.381026 
L 298.847829 -86.737657 
L 299.446431 -87.095132 
L 300.045033 -87.453431 
L 300.643634 -87.812538 
L 301.242236 -88.172433 
L 301.840837 -88.533096 
L 302.439439 -88.894509 
L 303.038041 -89.256652 
L 303.636642 -89.619505 
L 304.235244 -89.983049 
L 304.833845 -90.347263 
L 305.432447 -90.712128 
L 306.031048 -91.077621 
L 306.62965 -91.443724 
L 307.228252 -91.810414 
L 307.826853 -92.177671 
L 308.425455 -92.545473 
L 309.024056 -92.913799 
L 309.622658 -93.282627 
L 310.22126 -93.651936 
L 310.819861 -94.021702 
L 311.418463 -94.391903 
L 312.017064 -94.762518 
L 312.615666 -95.133523 
L 313.214268 -95.504896 
L 313.812869 -95.876613 
L 314.411471 -96.248652 
L 315.010072 -96.620988 
L 315.608674 -96.993598 
L 316.207276 -97.366459 
L 316.805877 -97.739546 
L 317.404479 -98.112836 
L 318.00308 -98.486303 
L 318.601682 -98.859924 
L 319.200283 -99.233674 
L 319.798885 -99.607529 
L 320.397487 -99.981462 
L 320.996088 -100.355449 
L 321.59469 -100.729465 
L 322.193291 -101.103485 
L 322.791893 -101.477482 
L 323.390495 -101.851432 
L 323.989096 -102.225308 
L 324.587698 -102.599084 
L 325.186299 -102.972734 
L 325.784901 -103.346232 
L 326.383503 -103.719552 
L 326.982104 -104.092666 
L 327.580706 -104.465549 
L 328.179307 -104.838173 
L 328.777909 -105.210512 
L 329.376511 -105.582539 
L 329.975112 -105.954225 
L 330.573714 -106.325545 
L 331.172315 -106.696471 
L 331.770917 -107.066976 
L 332.369518 -107.437031 
L 332.96812 -107.806609 
L 333.566722 -108.175682 
L 334.165323 -108.544223 
L 334.763925 -108.912204 
L 335.362526 -109.279596 
L 335.961128 -109.646371 
L 336.55973 -110.012502 
L 337.158331 -110.37796 
L 337.756933 -110.742716 
L 338.355534 -111.106743 
L 338.954136 -111.470011 
L 339.552738 -111.832492 
L 340.151339 -112.194158 
L 340.749941 -112.55498 
L 341.348542 -112.914929 
L 341.947144 -113.273976 
L 342.545746 -113.632094 
L 343.144347 -113.989252 
L 343.742949 -114.345422 
L 344.34155 -114.700575 
L 344.940152 -115.054682 
L 345.538753 -115.407715 
L 346.137355 -115.759643 
L 346.735957 -116.110439 
L 347.334558 -116.460073 
L 347.93316 -116.808516 
L 348.531761 -117.15574 
L 349.130363 -117.501715 
L 349.728965 -117.846411 
L 350.327566 -118.189801 
L 350.926168 -118.531855 
L 351.524769 -118.872545 
L 352.123371 -119.21184 
L 352.721973 -119.549713 
L 353.320574 -119.886134 
L 353.919176 -120.221074 
L 354.517777 -120.554505 
L 355.116379 -120.886398 
L 355.714981 -121.216723 
L 356.313582 -121.545453 
L 356.912184 -121.872559 
L 357.510785 -122.198011 
L 358.109387 -122.521782 
L 358.707988 -122.843843 
L 359.30659 -123.164166 
L 359.905192 -123.482721 
L 360.503793 -123.799481 
L 361.102395 -124.114419 
L 361.700996 -124.427504 
L 362.299598 -124.73871 
L 362.8982 -125.048009 
L 363.496801 -125.355373 
L 364.095403 -125.660773 
L 364.694004 -125.964184 
L 365.292606 -126.265575 
L 365.891208 -126.564922 
L 366.489809 -126.862196 
L 367.088411 -127.157369 
L 367.687012 -127.450416 
L 368.285614 -127.741309 
L 368.884216 -128.030021 
L 369.482817 -128.316525 
L 370.081419 -128.600796 
L 370.68002 -128.882807 
L 371.278622 -129.162531 
L 371.877223 -129.439943 
L 372.475825 -129.715017 
L 373.074427 -129.987726 
L 373.673028 -130.258046 
L 374.27163 -130.525951 
L 374.870231 -130.791416 
L 375.468833 -131.054415 
L 376.067435 -131.314925 
L 376.666036 -131.572919 
L 377.264638 -131.828375 
L 377.863239 -132.081267 
L 378.461841 -132.331571 
L 379.060443 -132.579264 
L 379.659044 -132.824321 
L 380.257646 -133.06672 
L 380.856247 -133.306437 
L 381.454849 -133.543449 
L 382.053451 -133.777733 
L 382.652052 -134.009267 
L 383.250654 -134.238028 
L 383.849255 -134.463995 
L 384.447857 -134.687144 
L 385.046458 -134.907455 
L 385.64506 -135.124906 
L 386.243662 -135.339476 
L 386.842263 -135.551144 
L 387.440865 -135.75989 
L 388.039466 -135.965692 
L 388.638068 -136.168531 
L 389.23667 -136.368387 
L 389.835271 -136.56524 
L 390.433873 -136.759071 
L 391.032474 -136.94986 
L 391.631076 -137.13759 
L 392.229678 -137.32224 
L 392.828279 -137.503794 
L 393.426881 -137.682233 
L 394.025482 -137.857539 
L 394.624084 -138.029696 
L 395.222686 -138.198685 
L 395.821287 -138.36449 
L 396.419889 -138.527095 
L 397.01849 -138.686483 
L 397.617092 -138.842639 
L 398.215693 -138.995546 
L 398.814295 -139.14519 
L 399.412897 -139.291555 
L 400.011498 -139.434628 
L 400.6101 -139.574392 
L 400.6101 -36.729688 
L 400.6101 -36.729688 
L 400.011498 -36.729688 
L 399.412897 -36.729688 
L 398.814295 -36.729688 
L 398.215693 -36.729688 
L 397.617092 -36.729688 
L 397.01849 -36.729688 
L 396.419889 -36.729688 
L 395.821287 -36.729688 
L 395.222686 -36.729688 
L 394.624084 -36.729688 
L 394.025482 -36.729688 
L 393.426881 -36.729688 
L 392.828279 -36.729688 
L 392.229678 -36.729688 
L 391.631076 -36.729688 
L 391.032474 -36.729688 
L 390.433873 -36.729688 
L 389.835271 -36.729688 
L 389.23667 -36.729688 
L 388.638068 -36.729688 
L 388.039466 -36.729688 
L 387.440865 -36.729688 
L 386.842263 -36.729688 
L 386.243662 -36.729688 
L 385.64506 -36.729688 
L 385.046458 -36.729688 
L 384.447857 -36.729688 
L 383.849255 -36.729688 
L 383.250654 -36.729688 
L 382.652052 -36.729688 
L 382.053451 -36.729688 
L 381.454849 -36.729688 
L 380.856247 -36.729688 
L 380.257646 -36.729688 
L 379.659044 -36.729688 
L 379.060443 -36.729688 
L 378.461841 -36.729688 
L 377.863239 -36.729688 
L 377.264638 -36.729688 
L 376.666036 -36.729688 
L 376.067435 -36.729688 
L 375.468833 -36.729688 
L 374.870231 -36.729688 
L 374.27163 -36.729688 
L 373.673028 -36.729688 
L 373.074427 -36.729688 
L 372.475825 -36.729688 
L 371.877223 -36.729688 
L 371.278622 -36.729688 
L 370.68002 -36.729688 
L 370.081419 -36.729688 
L 369.482817 -36.729688 
L 368.884216 -36.729688 
L 368.285614 -36.729688 
L 367.687012 -36.729688 
L 367.088411 -36.729688 
L 366.489809 -36.729688 
L 365.891208 -36.729688 
L 365.292606 -36.729688 
L 364.694004 -36.729688 
L 364.095403 -36.729688 
L 363.496801 -36.729688 
L 362.8982 -36.729688 
L 362.299598 -36.729688 
L 361.700996 -36.729688 
L 361.102395 -36.729688 
L 360.503793 -36.729688 
L 359.905192 -36.729688 
L 359.30659 -36.729688 
L 358.707988 -36.729688 
L 358.109387 -36.729688 
L 357.510785 -36.729688 
L 356.912184 -36.729688 
L 356.313582 -36.729688 
L 355.714981 -36.729688 
L 355.116379 -36.729688 
L 354.517777 -36.729688 
L 353.919176 -36.729688 
L 353.320574 -36.729688 
L 352.721973 -36.729688 
L 352.123371 -36.729688 
L 351.524769 -36.729688 
L 350.926168 -36.729688 
L 350.327566 -36.729688 
L 349.728965 -36.729688 
L 349.130363 -36.729688 
L 348.531761 -36.729688 
L 347.93316 -36.729688 
L 347.334558 -36.729688 
L 346.735957 -36.729688 
L 346.137355 -36.729688 
L 345.538753 -36.729688 
L 344.940152 -36.729688 
L 344.34155 -36.729688 
L 343.742949 -36.729688 
L 343.144347 -36.729688 
L 342.545746 -36.729688 
L 341.947144 -36.729688 
L 341.348542 -36.729688 
L 340.749941 -36.729688 
L 340.151339 -36.729688 
L 339.552738 -36.729688 
L 338.954136 -36.729688 
L 338.355534 -36.729688 
L 337.756933 -36.729688 
L 337.158331 -36.729688 
L 336.55973 -36.729688 
L 335.961128 -36.729688 
L 335.362526 -36.729688 
L 334.763925 -36.729688 
L 334.165323 -36.729688 
L 333.566722 -36.729688 
L 332.96812 -36.729688 
L 332.369518 -36.729688 
L 331.770917 -36.729688 
L 331.172315 -36.729688 
L 330.573714 -36.729688 
L 329.975112 -36.729688 
L 329.376511 -36.729688 
L 328.777909 -36.729688 
L 328.179307 -36.729688 
L 327.580706 -36.729688 
L 326.982104 -36.729688 
L 326.383503 -36.729688 
L 325.784901 -36.729688 
L 325.186299 -36.729688 
L 324.587698 -36.729688 
L 323.989096 -36.729688 
L 323.390495 -36.729688 
L 322.791893 -36.729688 
L 322.193291 -36.729688 
L 321.59469 -36.729688 
L 320.996088 -36.729688 
L 320.397487 -36.729688 
L 319.798885 -36.729688 
L 319.200283 -36.729688 
L 318.601682 -36.729688 
L 318.00308 -36.729688 
L 317.404479 -36.729688 
L 316.805877 -36.729688 
L 316.207276 -36.729688 
L 315.608674 -36.729688 
L 315.010072 -36.729688 
L 314.411471 -36.729688 
L 313.812869 -36.729688 
L 313.214268 -36.729688 
L 312.615666 -36.729688 
L 312.017064 -36.729688 
L 311.418463 -36.729688 
L 310.819861 -36.729688 
L 310.22126 -36.729688 
L 309.622658 -36.729688 
L 309.024056 -36.729688 
L 308.425455 -36.729688 
L 307.826853 -36.729688 
L 307.228252 -36.729688 
L 306.62965 -36.729688 
L 306.031048 -36.729688 
L 305.432447 -36.729688 
L 304.833845 -36.729688 
L 304.235244 -36.729688 
L 303.636642 -36.729688 
L 303.038041 -36.729688 
L 302.439439 -36.729688 
L 301.840837 -36.729688 
L 301.242236 -36.729688 
L 300.643634 -36.729688 
L 300.045033 -36.729688 
L 299.446431 -36.729688 
L 298.847829 -36.729688 
L 298.249228 -36.729688 
L 297.650626 -36.729688 
L 297.052025 -36.729688 
L 296.453423 -36.729688 
L 295.854821 -36.729688 
L 295.25622 -36.729688 
L 294.657618 -36.729688 
L 294.059017 -36.729688 
L 293.460415 -36.729688 
L 292.861813 -36.729688 
L 292.263212 -36.729688 
L 291.66461 -36.729688 
L 291.066009 -36.729688 
L 290.467407 -36.729688 
L 289.868806 -36.729688 
L 289.270204 -36.729688 
L 288.671602 -36.729688 
L 288.073001 -36.729688 
L 287.474399 -36.729688 
L 286.875798 -36.729688 
L 286.277196 -36.729688 
L 285.678594 -36.729688 
L 285.079993 -36.729688 
L 284.481391 -36.729688 
L 283.88279 -36.729688 
L 283.284188 -36.729688 
L 282.685586 -36.729688 
L 282.086985 -36.729688 
L 281.488383 -36.729688 
L 280.889782 -36.729688 
L 280.29118 -36.729688 
L 279.692578 -36.729688 
L 279.093977 -36.729688 
L 278.495375 -36.729688 
L 277.896774 -36.729688 
L 277.298172 -36.729688 
L 276.699571 -36.729688 
L 276.100969 -36.729688 
L 275.502367 -36.729688 
L 274.903766 -36.729688 
L 274.305164 -36.729688 
L 273.706563 -36.729688 
L 273.107961 -36.729688 
L 272.509359 -36.729688 
L 271.910758 -36.729688 
L 271.312156 -36.729688 
L 270.713555 -36.729688 
L 270.114953 -36.729688 
L 269.516351 -36.729688 
L 268.91775 -36.729688 
L 268.319148 -36.729688 
L 267.720547 -36.729688 
L 267.121945 -36.729688 
L 266.523343 -36.729688 
L 265.924742 -36.729688 
L 265.32614 -36.729688 
L 264.727539 -36.729688 
L 264.128937 -36.729688 
L 263.530336 -36.729688 
L 262.931734 -36.729688 
L 262.333132 -36.729688 
L 261.734531 -36.729688 
L 261.135929 -36.729688 
L 260.537328 -36.729688 
L 259.938726 -36.729688 
L 259.340124 -36.729688 
L 258.741523 -36.729688 
L 258.142921 -36.729688 
L 257.54432 -36.729688 
L 256.945718 -36.729688 
L 256.347116 -36.729688 
L 255.748515 -36.729688 
L 255.149913 -36.729688 
L 254.551312 -36.729688 
L 253.95271 -36.729688 
L 253.354108 -36.729688 
L 252.755507 -36.729688 
L 252.156905 -36.729688 
L 251.558304 -36.729688 
L 250.959702 -36.729688 
L 250.361101 -36.729688 
L 249.762499 -36.729688 
L 249.163897 -36.729688 
L 248.565296 -36.729688 
L 247.966694 -36.729688 
L 247.368093 -36.729688 
L 246.769491 -36.729688 
L 246.170889 -36.729688 
L 245.572288 -36.729688 
L 244.973686 -36.729688 
L 244.375085 -36.729688 
L 243.776483 -36.729688 
L 243.177881 -36.729688 
L 242.57928 -36.729688 
L 241.980678 -36.729688 
L 241.382077 -36.729688 
L 240.783475 -36.729688 
L 240.184873 -36.729688 
L 239.586272 -36.729688 
L 238.98767 -36.729688 
L 238.389069 -36.729688 
L 237.790467 -36.729688 
L 237.191866 -36.729688 
L 236.593264 -36.729688 
L 235.994662 -36.729688 
L 235.396061 -36.729688 
L 234.797459 -36.729688 
L 234.198858 -36.729688 
L 233.600256 -36.729688 
L 233.001654 -36.729688 
L 232.403053 -36.729688 
L 231.804451 -36.729688 
L 231.20585 -36.729688 
L 230.607248 -36.729688 
L 230.008646 -36.729688 
L 229.410045 -36.729688 
L 228.811443 -36.729688 
L 228.212842 -36.729688 
L 227.61424 -36.729688 
L 227.015638 -36.729688 
L 226.417037 -36.729688 
L 225.818435 -36.729688 
L 225.219834 -36.729688 
L 224.621232 -36.729688 
L 224.022631 -36.729688 
L 223.424029 -36.729688 
L 222.825427 -36.729688 
L 222.226826 -36.729688 
L 221.628224 -36.729688 
L 221.029623 -36.729688 
L 220.431021 -36.729688 
L 219.832419 -36.729688 
L 219.233818 -36.729688 
L 218.635216 -36.729688 
L 218.036615 -36.729688 
L 217.438013 -36.729688 
L 216.839411 -36.729688 
L 216.24081 -36.729688 
L 215.642208 -36.729688 
L 215.043607 -36.729688 
L 214.445005 -36.729688 
L 213.846403 -36.729688 
L 213.247802 -36.729688 
L 212.6492 -36.729688 
L 212.050599 -36.729688 
L 211.451997 -36.729688 
L 210.853396 -36.729688 
L 210.254794 -36.729688 
L 209.656192 -36.729688 
L 209.057591 -36.729688 
L 208.458989 -36.729688 
L 207.860388 -36.729688 
L 207.261786 -36.729688 
L 206.663184 -36.729688 
L 206.064583 -36.729688 
L 205.465981 -36.729688 
L 204.86738 -36.729688 
L 204.268778 -36.729688 
L 203.670176 -36.729688 
L 203.071575 -36.729688 
L 202.472973 -36.729688 
L 201.874372 -36.729688 
L 201.27577 -36.729688 
L 200.677168 -36.729688 
L 200.078567 -36.729688 
L 199.479965 -36.729688 
L 198.881364 -36.729688 
L 198.282762 -36.729688 
L 197.684161 -36.729688 
L 197.085559 -36.729688 
L 196.486957 -36.729688 
L 195.888356 -36.729688 
L 195.289754 -36.729688 
L 194.691153 -36.729688 
L 194.092551 -36.729688 
L 193.493949 -36.729688 
L 192.895348 -36.729688 
L 192.296746 -36.729688 
L 191.698145 -36.729688 
L 191.099543 -36.729688 
L 190.500941 -36.729688 
L 189.90234 -36.729688 
L 189.303738 -36.729688 
L 188.705137 -36.729688 
L 188.106535 -36.729688 
L 187.507934 -36.729688 
L 186.909332 -36.729688 
L 186.31073 -36.729688 
L 185.712129 -36.729688 
L 185.113527 -36.729688 
L 184.514926 -36.729688 
L 183.916324 -36.729688 
L 183.317722 -36.729688 
L 182.719121 -36.729688 
L 182.120519 -36.729688 
L 181.521918 -36.729688 
L 180.923316 -36.729688 
L 180.324714 -36.729688 
L 179.726113 -36.729688 
L 179.127511 -36.729688 
L 178.52891 -36.729688 
L 177.930308 -36.729688 
L 177.331706 -36.729688 
L 176.733105 -36.729688 
L 176.134503 -36.729688 
L 175.535902 -36.729688 
L 174.9373 -36.729688 
L 174.338699 -36.729688 
L 173.740097 -36.729688 
L 173.141495 -36.729688 
L 172.542894 -36.729688 
L 171.944292 -36.729688 
L 171.345691 -36.729688 
L 170.747089 -36.729688 
L 170.148487 -36.729688 
L 169.549886 -36.729688 
L 168.951284 -36.729688 
L 168.352683 -36.729688 
L 167.754081 -36.729688 
L 167.155479 -36.729688 
L 166.556878 -36.729688 
L 165.958276 -36.729688 
L 165.359675 -36.729688 
L 164.761073 -36.729688 
L 164.162471 -36.729688 
L 163.56387 -36.729688 
L 162.965268 -36.729688 
L 162.366667 -36.729688 
L 161.768065 -36.729688 
L 161.169464 -36.729688 
L 160.570862 -36.729688 
L 159.97226 -36.729688 
L 159.373659 -36.729688 
L 158.775057 -36.729688 
L 158.176456 -36.729688 
L 157.577854 -36.729688 
L 156.979252 -36.729688 
L 156.380651 -36.729688 
L 155.782049 -36.729688 
L 155.183448 -36.729688 
L 154.584846 -36.729688 
L 153.986244 -36.729688 
L 153.387643 -36.729688 
L 152.789041 -36.729688 
L 152.19044 -36.729688 
L 151.591838 -36.729688 
L 150.993236 -36.729688 
L 150.394635 -36.729688 
L 149.796033 -36.729688 
L 149.197432 -36.729688 
L 148.59883 -36.729688 
L 148.000229 -36.729688 
L 147.401627 -36.729688 
L 146.803025 -36.729688 
L 146.204424 -36.729688 
L 145.605822 -36.729688 
L 145.007221 -36.729688 
L 144.408619 -36.729688 
L 143.810017 -36.729688 
L 143.211416 -36.729688 
L 142.612814 -36.729688 
L 142.014213 -36.729688 
L 141.415611 -36.729688 
L 140.817009 -36.729688 
L 140.218408 -36.729688 
L 139.619806 -36.729688 
L 139.021205 -36.729688 
L 138.422603 -36.729688 
L 137.824001 -36.729688 
L 137.2254 -36.729688 
L 136.626798 -36.729688 
L 136.028197 -36.729688 
L 135.429595 -36.729688 
L 134.830994 -36.729688 
L 134.232392 -36.729688 
L 133.63379 -36.729688 
L 133.035189 -36.729688 
L 132.436587 -36.729688 
L 131.837986 -36.729688 
L 131.239384 -36.729688 
L 130.640782 -36.729688 
L 130.042181 -36.729688 
L 129.443579 -36.729688 
L 128.844978 -36.729688 
L 128.246376 -36.729688 
L 127.647774 -36.729688 
L 127.049173 -36.729688 
L 126.450571 -36.729688 
L 125.85197 -36.729688 
L 125.253368 -36.729688 
L 124.654766 -36.729688 
L 124.056165 -36.729688 
L 123.457563 -36.729688 
z
" style="stroke: #4c72b0; stroke-opacity: 0.3"/>
    </defs>
    <g clip-path="url(#pa231fcc9cf)">
     <use xlink:href="#m7c9ccf9214" x="0" y="154.809687" style="fill: #4c72b0; fill-opacity: 0.3; stroke: #4c72b0; stroke-opacity: 0.3"/>
    </g>
   </g>
   <g id="line2d_35">
    <path d="M 123.457563 118.065268 
L 143.211416 117.913448 
L 153.387643 117.622933 
L 161.169464 117.188949 
L 167.754081 116.614483 
L 173.740097 115.890368 
L 179.726113 114.954183 
L 185.712129 113.802967 
L 192.296746 112.305145 
L 199.479965 110.436836 
L 207.860388 108.02252 
L 218.036615 104.849443 
L 228.212842 101.452444 
L 237.191866 98.237971 
L 245.572288 95.005424 
L 253.354108 91.768079 
L 261.135929 88.284462 
L 268.91775 84.549264 
L 276.699571 80.568874 
L 285.079993 76.026643 
L 294.059017 70.89995 
L 304.235244 64.826638 
L 318.00308 56.323384 
L 340.749941 42.254708 
L 350.327566 36.619886 
L 358.109387 32.287905 
L 365.292606 28.544112 
L 371.877223 25.369744 
L 377.863239 22.728421 
L 383.849255 20.345693 
L 389.23667 18.441301 
L 394.624084 16.779992 
L 399.412897 15.518132 
L 404.201709 14.466929 
L 408.990522 13.633148 
L 413.779335 13.022188 
L 418.568148 12.638026 
L 423.35696 12.483168 
L 428.145773 12.558626 
L 432.934586 12.863907 
L 437.723398 13.397018 
L 442.512211 14.154485 
L 447.301024 15.131393 
L 452.089837 16.321442 
L 457.477251 17.905477 
L 462.864665 19.736865 
L 468.25208 21.801075 
L 474.238096 24.348006 
L 480.224111 27.138206 
L 486.808729 30.45738 
L 493.991948 34.335308 
L 502.37237 39.13466 
L 511.949996 44.885261 
L 526.915036 54.170258 
L 545.471685 65.640287 
L 556.246513 72.028174 
L 565.225537 77.100611 
L 573.60596 81.584568 
L 581.38778 85.507389 
L 589.169601 89.186046 
L 596.951422 92.620546 
L 605.331844 96.062459 
L 614.310868 99.494282 
L 624.487095 103.131611 
L 635.261923 106.745854 
L 644.240947 109.544195 
L 652.022768 111.737967 
L 658.607385 113.363445 
L 664.593401 114.619344 
L 670.579417 115.645846 
L 676.565433 116.443891 
L 683.150051 117.080424 
L 690.33327 117.53561 
L 698.713692 117.836788 
L 710.087122 118.011519 
L 721.460553 118.064331 
L 721.460553 118.064331 
" clip-path="url(#pa231fcc9cf)" style="fill: none; stroke: #4c72b0; stroke-width: 1.5; stroke-linecap: round"/>
   </g>
   <g id="line2d_36">
    <path d="M 7.2 118.08 
L 844.2 118.08 
" clip-path="url(#pa231fcc9cf)" style="fill: none; stroke: #808080; stroke-width: 0.5; stroke-linecap: round"/>
   </g>
   <g id="text_10">
    <text style="font-size: 10px; font-family: 'Arial', 'DejaVu Sans', 'Liberation Sans', 'Bitstream Vera Sans', sans-serif; text-anchor: middle" x="424.057755" y="115.975312" transform="rotate(-0 424.057755 115.975312)">Sweden (1920)</text>
   </g>
  </g>
 </g>
 <defs>
  <clipPath id="pa231fcc9cf">
   <rect x="7.2" y="7.2" width="837" height="110.88"/>
  </clipPath>
 </defs>
</svg>
