<?xml version="1.0" encoding="utf-8" standalone="no"?>
<!DOCTYPE svg PUBLIC "-//W3C//DTD SVG 1.1//EN"
  "http://www.w3.org/Graphics/SVG/1.1/DTD/svg11.dtd">
<svg xmlns:xlink="http://www.w3.org/1999/xlink" width="670.002344pt" height="165.897687pt" viewBox="0 0 670.002344 165.897687" xmlns="http://www.w3.org/2000/svg" version="1.1">
 <metadata>
  <rdf:RDF xmlns:dc="http://purl.org/dc/elements/1.1/" xmlns:cc="http://creativecommons.org/ns#" xmlns:rdf="http://www.w3.org/1999/02/22-rdf-syntax-ns#">
   <cc:Work>
    <dc:type rdf:resource="http://purl.org/dc/dcmitype/StillImage"/>
    <dc:date>2026-05-22T11:58:09.951136</dc:date>
    <dc:format>image/svg+xml</dc:format>
    <dc:creator>
     <cc:Agent>
      <dc:title>Matplotlib v3.10.9, https://matplotlib.org/</dc:title>
     </cc:Agent>
    </dc:creator>
   </cc:Work>
  </rdf:RDF>
 </metadata>
 <defs>
  <style type="text/css">*{stroke-linejoin: round; stroke-linecap: butt}</style>
 </defs>
 <g id="figure_1">
  <g id="patch_1">
   <path d="M 0 165.897687 
L 670.002344 165.897687 
L 670.002344 0 
L 0 0 
z
" style="fill: #ffffff"/>
  </g>
  <g id="axes_1">
   <g id="patch_2">
    <path d="M 7.2 129.168 
L 648.9 129.168 
L 648.9 7.2 
L 7.2 7.2 
z
" style="fill: #ffffff"/>
   </g>
   <g id="matplotlib.axis_1">
    <g id="xtick_1">
     <g id="line2d_1">
      <defs>
       <path id="m9179df85ff" d="M 0 0 
L 0 3.5 
" style="stroke: #262626; stroke-width: 0.8"/>
      </defs>
      <g>
       <use xlink:href="#m9179df85ff" x="173.404687" y="129.168" style="fill: #262626; stroke: #262626; stroke-width: 0.8"/>
      </g>
     </g>
     <g id="text_1">
      <text style="font-size: 10px; font-family: 'Arial', 'DejaVu Sans', 'Liberation Sans', 'Bitstream Vera Sans', sans-serif; text-anchor: middle; fill: #262626" x="173.404687" y="143.325812" transform="rotate(-0 173.404687 143.325812)">$1</text>
     </g>
    </g>
    <g id="xtick_2">
     <g id="line2d_2">
      <g>
       <use xlink:href="#m9179df85ff" x="221.117471" y="129.168" style="fill: #262626; stroke: #262626; stroke-width: 0.8"/>
      </g>
     </g>
     <g id="text_2">
      <text style="font-size: 10px; font-family: 'Arial', 'DejaVu Sans', 'Liberation Sans', 'Bitstream Vera Sans', sans-serif; text-anchor: middle; fill: #262626" x="221.117471" y="143.325812" transform="rotate(-0 221.117471 143.325812)">$2</text>
     </g>
    </g>
    <g id="xtick_3">
     <g id="line2d_3">
      <g>
       <use xlink:href="#m9179df85ff" x="284.190341" y="129.168" style="fill: #262626; stroke: #262626; stroke-width: 0.8"/>
      </g>
     </g>
     <g id="text_3">
      <text style="font-size: 10px; font-family: 'Arial', 'DejaVu Sans', 'Liberation Sans', 'Bitstream Vera Sans', sans-serif; text-anchor: middle; fill: #262626" x="284.190341" y="143.325812" transform="rotate(-0 284.190341 143.325812)">$5</text>
     </g>
    </g>
    <g id="xtick_4">
     <g id="line2d_4">
      <g>
       <use xlink:href="#m9179df85ff" x="331.903125" y="129.168" style="fill: #262626; stroke: #262626; stroke-width: 0.8"/>
      </g>
     </g>
     <g id="text_4">
      <text style="font-size: 10px; font-family: 'Arial', 'DejaVu Sans', 'Liberation Sans', 'Bitstream Vera Sans', sans-serif; text-anchor: middle; fill: #262626" x="331.903125" y="143.325812" transform="rotate(-0 331.903125 143.325812)">$10</text>
     </g>
    </g>
    <g id="xtick_5">
     <g id="line2d_5">
      <g>
       <use xlink:href="#m9179df85ff" x="379.615909" y="129.168" style="fill: #262626; stroke: #262626; stroke-width: 0.8"/>
      </g>
     </g>
     <g id="text_5">
      <text style="font-size: 10px; font-family: 'Arial', 'DejaVu Sans', 'Liberation Sans', 'Bitstream Vera Sans', sans-serif; text-anchor: middle; fill: #262626" x="379.615909" y="143.325812" transform="rotate(-0 379.615909 143.325812)">$20</text>
     </g>
    </g>
    <g id="xtick_6">
     <g id="line2d_6">
      <g>
       <use xlink:href="#m9179df85ff" x="442.688778" y="129.168" style="fill: #262626; stroke: #262626; stroke-width: 0.8"/>
      </g>
     </g>
     <g id="text_6">
      <text style="font-size: 10px; font-family: 'Arial', 'DejaVu Sans', 'Liberation Sans', 'Bitstream Vera Sans', sans-serif; text-anchor: middle; fill: #262626" x="442.688778" y="143.325812" transform="rotate(-0 442.688778 143.325812)">$50</text>
     </g>
    </g>
    <g id="xtick_7">
     <g id="line2d_7">
      <g>
       <use xlink:href="#m9179df85ff" x="490.401562" y="129.168" style="fill: #262626; stroke: #262626; stroke-width: 0.8"/>
      </g>
     </g>
     <g id="text_7">
      <text style="font-size: 10px; font-family: 'Arial', 'DejaVu Sans', 'Liberation Sans', 'Bitstream Vera Sans', sans-serif; text-anchor: middle; fill: #262626" x="490.401562" y="143.325812" transform="rotate(-0 490.401562 143.325812)">$100</text>
     </g>
    </g>
    <g id="xtick_8">
     <g id="line2d_8">
      <g>
       <use xlink:href="#m9179df85ff" x="538.114346" y="129.168" style="fill: #262626; stroke: #262626; stroke-width: 0.8"/>
      </g>
     </g>
     <g id="text_8">
      <text style="font-size: 10px; font-family: 'Arial', 'DejaVu Sans', 'Liberation Sans', 'Bitstream Vera Sans', sans-serif; text-anchor: middle; fill: #262626" x="538.114346" y="143.325812" transform="rotate(-0 538.114346 143.325812)">$200</text>
     </g>
    </g>
    <g id="xtick_9">
     <g id="line2d_9">
      <g>
       <use xlink:href="#m9179df85ff" x="601.187216" y="129.168" style="fill: #262626; stroke: #262626; stroke-width: 0.8"/>
      </g>
     </g>
     <g id="text_9">
      <text style="font-size: 10px; font-family: 'Arial', 'DejaVu Sans', 'Liberation Sans', 'Bitstream Vera Sans', sans-serif; text-anchor: middle; fill: #262626" x="601.187216" y="143.325812" transform="rotate(-0 601.187216 143.325812)">$500</text>
     </g>
    </g>
    <g id="xtick_10">
     <g id="line2d_10">
      <g>
       <use xlink:href="#m9179df85ff" x="648.9" y="129.168" style="fill: #262626; stroke: #262626; stroke-width: 0.8"/>
      </g>
     </g>
     <g id="text_10">
      <text style="font-size: 10px; font-family: 'Arial', 'DejaVu Sans', 'Liberation Sans', 'Bitstream Vera Sans', sans-serif; text-anchor: middle; fill: #262626" x="648.9" y="143.325812" transform="rotate(-0 648.9 143.325812)">$1000</text>
     </g>
    </g>
    <g id="xtick_11">
     <g id="line2d_11">
      <defs>
       <path id="m82b15445fb" d="M 0 0 
L 0 2 
" style="stroke: #262626; stroke-width: 0.6"/>
      </defs>
      <g>
       <use xlink:href="#m82b15445fb" x="7.653759" y="129.168" style="fill: #262626; stroke: #262626; stroke-width: 0.6"/>
      </g>
     </g>
    </g>
    <g id="xtick_12">
     <g id="line2d_12">
      <g>
       <use xlink:href="#m82b15445fb" x="62.619033" y="129.168" style="fill: #262626; stroke: #262626; stroke-width: 0.6"/>
      </g>
     </g>
    </g>
    <g id="xtick_13">
     <g id="line2d_13">
      <g>
       <use xlink:href="#m82b15445fb" x="90.529223" y="129.168" style="fill: #262626; stroke: #262626; stroke-width: 0.6"/>
      </g>
     </g>
    </g>
    <g id="xtick_14">
     <g id="line2d_14">
      <g>
       <use xlink:href="#m82b15445fb" x="110.331817" y="129.168" style="fill: #262626; stroke: #262626; stroke-width: 0.6"/>
      </g>
     </g>
    </g>
    <g id="xtick_15">
     <g id="line2d_15">
      <g>
       <use xlink:href="#m82b15445fb" x="125.691903" y="129.168" style="fill: #262626; stroke: #262626; stroke-width: 0.6"/>
      </g>
     </g>
    </g>
    <g id="xtick_16">
     <g id="line2d_16">
      <g>
       <use xlink:href="#m82b15445fb" x="138.242007" y="129.168" style="fill: #262626; stroke: #262626; stroke-width: 0.6"/>
      </g>
     </g>
    </g>
    <g id="xtick_17">
     <g id="line2d_17">
      <g>
       <use xlink:href="#m82b15445fb" x="148.852968" y="129.168" style="fill: #262626; stroke: #262626; stroke-width: 0.6"/>
      </g>
     </g>
    </g>
    <g id="xtick_18">
     <g id="line2d_18">
      <g>
       <use xlink:href="#m82b15445fb" x="158.044601" y="129.168" style="fill: #262626; stroke: #262626; stroke-width: 0.6"/>
      </g>
     </g>
    </g>
    <g id="xtick_19">
     <g id="line2d_19">
      <g>
       <use xlink:href="#m82b15445fb" x="166.152196" y="129.168" style="fill: #262626; stroke: #262626; stroke-width: 0.6"/>
      </g>
     </g>
    </g>
    <g id="xtick_20">
     <g id="line2d_20">
      <g>
       <use xlink:href="#m82b15445fb" x="249.02766" y="129.168" style="fill: #262626; stroke: #262626; stroke-width: 0.6"/>
      </g>
     </g>
    </g>
    <g id="xtick_21">
     <g id="line2d_21">
      <g>
       <use xlink:href="#m82b15445fb" x="268.830255" y="129.168" style="fill: #262626; stroke: #262626; stroke-width: 0.6"/>
      </g>
     </g>
    </g>
    <g id="xtick_22">
     <g id="line2d_22">
      <g>
       <use xlink:href="#m82b15445fb" x="296.740444" y="129.168" style="fill: #262626; stroke: #262626; stroke-width: 0.6"/>
      </g>
     </g>
    </g>
    <g id="xtick_23">
     <g id="line2d_23">
      <g>
       <use xlink:href="#m82b15445fb" x="307.351406" y="129.168" style="fill: #262626; stroke: #262626; stroke-width: 0.6"/>
      </g>
     </g>
    </g>
    <g id="xtick_24">
     <g id="line2d_24">
      <g>
       <use xlink:href="#m82b15445fb" x="316.543039" y="129.168" style="fill: #262626; stroke: #262626; stroke-width: 0.6"/>
      </g>
     </g>
    </g>
    <g id="xtick_25">
     <g id="line2d_25">
      <g>
       <use xlink:href="#m82b15445fb" x="324.650634" y="129.168" style="fill: #262626; stroke: #262626; stroke-width: 0.6"/>
      </g>
     </g>
    </g>
    <g id="xtick_26">
     <g id="line2d_26">
      <g>
       <use xlink:href="#m82b15445fb" x="407.526098" y="129.168" style="fill: #262626; stroke: #262626; stroke-width: 0.6"/>
      </g>
     </g>
    </g>
    <g id="xtick_27">
     <g id="line2d_27">
      <g>
       <use xlink:href="#m82b15445fb" x="427.328693" y="129.168" style="fill: #262626; stroke: #262626; stroke-width: 0.6"/>
      </g>
     </g>
    </g>
    <g id="xtick_28">
     <g id="line2d_28">
      <g>
       <use xlink:href="#m82b15445fb" x="455.238882" y="129.168" style="fill: #262626; stroke: #262626; stroke-width: 0.6"/>
      </g>
     </g>
    </g>
    <g id="xtick_29">
     <g id="line2d_29">
      <g>
       <use xlink:href="#m82b15445fb" x="465.849844" y="129.168" style="fill: #262626; stroke: #262626; stroke-width: 0.6"/>
      </g>
     </g>
    </g>
    <g id="xtick_30">
     <g id="line2d_30">
      <g>
       <use xlink:href="#m82b15445fb" x="475.041477" y="129.168" style="fill: #262626; stroke: #262626; stroke-width: 0.6"/>
      </g>
     </g>
    </g>
    <g id="xtick_31">
     <g id="line2d_31">
      <g>
       <use xlink:href="#m82b15445fb" x="483.149072" y="129.168" style="fill: #262626; stroke: #262626; stroke-width: 0.6"/>
      </g>
     </g>
    </g>
    <g id="xtick_32">
     <g id="line2d_32">
      <g>
       <use xlink:href="#m82b15445fb" x="566.024536" y="129.168" style="fill: #262626; stroke: #262626; stroke-width: 0.6"/>
      </g>
     </g>
    </g>
    <g id="xtick_33">
     <g id="line2d_33">
      <g>
       <use xlink:href="#m82b15445fb" x="585.82713" y="129.168" style="fill: #262626; stroke: #262626; stroke-width: 0.6"/>
      </g>
     </g>
    </g>
    <g id="xtick_34">
     <g id="line2d_34">
      <g>
       <use xlink:href="#m82b15445fb" x="613.73732" y="129.168" style="fill: #262626; stroke: #262626; stroke-width: 0.6"/>
      </g>
     </g>
    </g>
    <g id="xtick_35">
     <g id="line2d_35">
      <g>
       <use xlink:href="#m82b15445fb" x="624.348281" y="129.168" style="fill: #262626; stroke: #262626; stroke-width: 0.6"/>
      </g>
     </g>
    </g>
    <g id="xtick_36">
     <g id="line2d_36">
      <g>
       <use xlink:href="#m82b15445fb" x="633.539914" y="129.168" style="fill: #262626; stroke: #262626; stroke-width: 0.6"/>
      </g>
     </g>
    </g>
    <g id="xtick_37">
     <g id="line2d_37">
      <g>
       <use xlink:href="#m82b15445fb" x="641.647509" y="129.168" style="fill: #262626; stroke: #262626; stroke-width: 0.6"/>
      </g>
     </g>
    </g>
    <g id="text_11">
     <text style="font-size: 10px; font-family: 'Arial', 'DejaVu Sans', 'Liberation Sans', 'Bitstream Vera Sans', sans-serif; text-anchor: middle; fill: #262626" x="328.05" y="156.593" transform="rotate(-0 328.05 156.593)">Income or consumption (day)</text>
    </g>
   </g>
   <g id="matplotlib.axis_2"/>
   <g id="FillBetweenPolyCollection_1">
    <defs>
     <path id="mb4d5520f95" d="M 267.662421 -36.729687 
L 267.662421 -36.734724 
L 267.952198 -36.73523 
L 268.241974 -36.735781 
L 268.531751 -36.736379 
L 268.821528 -36.73703 
L 269.111304 -36.737736 
L 269.401081 -36.738502 
L 269.690858 -36.73933 
L 269.980634 -36.740227 
L 270.270411 -36.741196 
L 270.560188 -36.742242 
L 270.849964 -36.74337 
L 271.139741 -36.744585 
L 271.429518 -36.745893 
L 271.719294 -36.747298 
L 272.009071 -36.748807 
L 272.298848 -36.750425 
L 272.588625 -36.75216 
L 272.878401 -36.754016 
L 273.168178 -36.756001 
L 273.457955 -36.758121 
L 273.747731 -36.760382 
L 274.037508 -36.762793 
L 274.327285 -36.765359 
L 274.617061 -36.768089 
L 274.906838 -36.770989 
L 275.196615 -36.774067 
L 275.486391 -36.77733 
L 275.776168 -36.780786 
L 276.065945 -36.784442 
L 276.355721 -36.788306 
L 276.645498 -36.792385 
L 276.935275 -36.796687 
L 277.225051 -36.801219 
L 277.514828 -36.805989 
L 277.804605 -36.811004 
L 278.094382 -36.81627 
L 278.384158 -36.821796 
L 278.673935 -36.827586 
L 278.963712 -36.833649 
L 279.253488 -36.83999 
L 279.543265 -36.846615 
L 279.833042 -36.85353 
L 280.122818 -36.86074 
L 280.412595 -36.86825 
L 280.702372 -36.876064 
L 280.992148 -36.884187 
L 281.281925 -36.892622 
L 281.571702 -36.901373 
L 281.861478 -36.910442 
L 282.151255 -36.919831 
L 282.441032 -36.929543 
L 282.730808 -36.939578 
L 283.020585 -36.949937 
L 283.310362 -36.960621 
L 283.600139 -36.971627 
L 283.889915 -36.982957 
L 284.179692 -36.994607 
L 284.469469 -37.006576 
L 284.759245 -37.018862 
L 285.049022 -37.031459 
L 285.338799 -37.044366 
L 285.628575 -37.057576 
L 285.918352 -37.071086 
L 286.208129 -37.084889 
L 286.497905 -37.09898 
L 286.787682 -37.113353 
L 287.077459 -37.127999 
L 287.367235 -37.142913 
L 287.657012 -37.158085 
L 287.946789 -37.173508 
L 288.236565 -37.189174 
L 288.526342 -37.205073 
L 288.816119 -37.221197 
L 289.105896 -37.237535 
L 289.395672 -37.254079 
L 289.685449 -37.270819 
L 289.975226 -37.287745 
L 290.265002 -37.304847 
L 290.554779 -37.322114 
L 290.844556 -37.339538 
L 291.134332 -37.357107 
L 291.424109 -37.374812 
L 291.713886 -37.392642 
L 292.003662 -37.410589 
L 292.293439 -37.428641 
L 292.583216 -37.44679 
L 292.872992 -37.465026 
L 293.162769 -37.48334 
L 293.452546 -37.501723 
L 293.742323 -37.520165 
L 294.032099 -37.538659 
L 294.321876 -37.557196 
L 294.611653 -37.575768 
L 294.901429 -37.594366 
L 295.191206 -37.612985 
L 295.480983 -37.631615 
L 295.770759 -37.650251 
L 296.060536 -37.668884 
L 296.350313 -37.687509 
L 296.640089 -37.70612 
L 296.929866 -37.724709 
L 297.219643 -37.743271 
L 297.509419 -37.761801 
L 297.799196 -37.780292 
L 298.088973 -37.798738 
L 298.378749 -37.817135 
L 298.668526 -37.835477 
L 298.958303 -37.853758 
L 299.24808 -37.871973 
L 299.537856 -37.890118 
L 299.827633 -37.908186 
L 300.11741 -37.926172 
L 300.407186 -37.944071 
L 300.696963 -37.961877 
L 300.98674 -37.979584 
L 301.276516 -37.997188 
L 301.566293 -38.014682 
L 301.85607 -38.03206 
L 302.145846 -38.049316 
L 302.435623 -38.066444 
L 302.7254 -38.083437 
L 303.015176 -38.100289 
L 303.304953 -38.116993 
L 303.59473 -38.133541 
L 303.884506 -38.149928 
L 304.174283 -38.166146 
L 304.46406 -38.182187 
L 304.753837 -38.198044 
L 305.043613 -38.21371 
L 305.33339 -38.229177 
L 305.623167 -38.244438 
L 305.912943 -38.259485 
L 306.20272 -38.27431 
L 306.492497 -38.288907 
L 306.782273 -38.303268 
L 307.07205 -38.317385 
L 307.361827 -38.331252 
L 307.651603 -38.344862 
L 307.94138 -38.358209 
L 308.231157 -38.371286 
L 308.520933 -38.384088 
L 308.81071 -38.396609 
L 309.100487 -38.408844 
L 309.390263 -38.420789 
L 309.68004 -38.43244 
L 309.969817 -38.443794 
L 310.259594 -38.454848 
L 310.54937 -38.465599 
L 310.839147 -38.476047 
L 311.128924 -38.486191 
L 311.4187 -38.49603 
L 311.708477 -38.505566 
L 311.998254 -38.5148 
L 312.28803 -38.523735 
L 312.577807 -38.532374 
L 312.867584 -38.540721 
L 313.15736 -38.548782 
L 313.447137 -38.556561 
L 313.736914 -38.564065 
L 314.02669 -38.571303 
L 314.316467 -38.578282 
L 314.606244 -38.585013 
L 314.89602 -38.591503 
L 315.185797 -38.597766 
L 315.475574 -38.603812 
L 315.765351 -38.609653 
L 316.055127 -38.615304 
L 316.344904 -38.620777 
L 316.634681 -38.626086 
L 316.924457 -38.631248 
L 317.214234 -38.636278 
L 317.504011 -38.641191 
L 317.793787 -38.646005 
L 318.083564 -38.650736 
L 318.373341 -38.655402 
L 318.663117 -38.66002 
L 318.952894 -38.664609 
L 319.242671 -38.669187 
L 319.532447 -38.673772 
L 319.822224 -38.678383 
L 320.112001 -38.683038 
L 320.401777 -38.687756 
L 320.691554 -38.692555 
L 320.981331 -38.697454 
L 321.271108 -38.70247 
L 321.560884 -38.707623 
L 321.850661 -38.71293 
L 322.140438 -38.718409 
L 322.430214 -38.724076 
L 322.719991 -38.729949 
L 323.009768 -38.736044 
L 323.299544 -38.742378 
L 323.589321 -38.748965 
L 323.879098 -38.755822 
L 324.168874 -38.762962 
L 324.458651 -38.7704 
L 324.748428 -38.77815 
L 325.038204 -38.786224 
L 325.327981 -38.794635 
L 325.617758 -38.803395 
L 325.907534 -38.812514 
L 326.197311 -38.822005 
L 326.487088 -38.831876 
L 326.776865 -38.842138 
L 327.066641 -38.852799 
L 327.356418 -38.863867 
L 327.646195 -38.875352 
L 327.935971 -38.887259 
L 328.225748 -38.899595 
L 328.515525 -38.912368 
L 328.805301 -38.925582 
L 329.095078 -38.939243 
L 329.384855 -38.953355 
L 329.674631 -38.967923 
L 329.964408 -38.982952 
L 330.254185 -38.998444 
L 330.543961 -39.014403 
L 330.833738 -39.030832 
L 331.123515 -39.047733 
L 331.413291 -39.06511 
L 331.703068 -39.082965 
L 331.992845 -39.101299 
L 332.282622 -39.120115 
L 332.572398 -39.139414 
L 332.862175 -39.1592 
L 333.151952 -39.179473 
L 333.441728 -39.200236 
L 333.731505 -39.221492 
L 334.021282 -39.243241 
L 334.311058 -39.265488 
L 334.600835 -39.288234 
L 334.890612 -39.311484 
L 335.180388 -39.33524 
L 335.470165 -39.359506 
L 335.759942 -39.384287 
L 336.049718 -39.409589 
L 336.339495 -39.435416 
L 336.629272 -39.461774 
L 336.919048 -39.488671 
L 337.208825 -39.516114 
L 337.498602 -39.544112 
L 337.788379 -39.572674 
L 338.078155 -39.601809 
L 338.367932 -39.63153 
L 338.657709 -39.661847 
L 338.947485 -39.692775 
L 339.237262 -39.724326 
L 339.527039 -39.756517 
L 339.816815 -39.789362 
L 340.106592 -39.82288 
L 340.396369 -39.857089 
L 340.686145 -39.892008 
L 340.975922 -39.927658 
L 341.265699 -39.964061 
L 341.555475 -40.001239 
L 341.845252 -40.039216 
L 342.135029 -40.078018 
L 342.424805 -40.11767 
L 342.714582 -40.1582 
L 343.004359 -40.199634 
L 343.294136 -40.242003 
L 343.583912 -40.285336 
L 343.873689 -40.329663 
L 344.163466 -40.375016 
L 344.453242 -40.421425 
L 344.743019 -40.468924 
L 345.032796 -40.517545 
L 345.322572 -40.567321 
L 345.612349 -40.618284 
L 345.902126 -40.670469 
L 346.191902 -40.723908 
L 346.481679 -40.778634 
L 346.771456 -40.83468 
L 347.061232 -40.892078 
L 347.351009 -40.950859 
L 347.640786 -41.011055 
L 347.930562 -41.072695 
L 348.220339 -41.135809 
L 348.510116 -41.200424 
L 348.799893 -41.266567 
L 349.089669 -41.334263 
L 349.379446 -41.403536 
L 349.669223 -41.474408 
L 349.958999 -41.546898 
L 350.248776 -41.621025 
L 350.538553 -41.696806 
L 350.828329 -41.774255 
L 351.118106 -41.853382 
L 351.407883 -41.934199 
L 351.697659 -42.016712 
L 351.987436 -42.100925 
L 352.277213 -42.186842 
L 352.566989 -42.274461 
L 352.856766 -42.363781 
L 353.146543 -42.454795 
L 353.436319 -42.547496 
L 353.726096 -42.641872 
L 354.015873 -42.737912 
L 354.30565 -42.835599 
L 354.595426 -42.934915 
L 354.885203 -43.035839 
L 355.17498 -43.138349 
L 355.464756 -43.242419 
L 355.754533 -43.348023 
L 356.04431 -43.45513 
L 356.334086 -43.56371 
L 356.623863 -43.673729 
L 356.91364 -43.785152 
L 357.203416 -43.897945 
L 357.493193 -44.012067 
L 357.78297 -44.127482 
L 358.072746 -44.244148 
L 358.362523 -44.362026 
L 358.6523 -44.481073 
L 358.942076 -44.601247 
L 359.231853 -44.722507 
L 359.52163 -44.844809 
L 359.811407 -44.968111 
L 360.101183 -45.092371 
L 360.39096 -45.217546 
L 360.680737 -45.343594 
L 360.970513 -45.470474 
L 361.26029 -45.598147 
L 361.550067 -45.726572 
L 361.839843 -45.855711 
L 362.12962 -45.985527 
L 362.419397 -46.115983 
L 362.709173 -46.247045 
L 362.99895 -46.378679 
L 363.288727 -46.510854 
L 363.578503 -46.643538 
L 363.86828 -46.776704 
L 364.158057 -46.910324 
L 364.447833 -47.044372 
L 364.73761 -47.178825 
L 365.027387 -47.313659 
L 365.317164 -47.448854 
L 365.60694 -47.584392 
L 365.896717 -47.720253 
L 366.186494 -47.856422 
L 366.47627 -47.992884 
L 366.766047 -48.129626 
L 367.055824 -48.266634 
L 367.3456 -48.403899 
L 367.635377 -48.54141 
L 367.925154 -48.679158 
L 368.21493 -48.817135 
L 368.504707 -48.955334 
L 368.794484 -49.093747 
L 369.08426 -49.23237 
L 369.374037 -49.371197 
L 369.663814 -49.510222 
L 369.953591 -49.649442 
L 370.243367 -49.788851 
L 370.533144 -49.928446 
L 370.822921 -50.068223 
L 371.112697 -50.208178 
L 371.402474 -50.348306 
L 371.692251 -50.488606 
L 371.982027 -50.629071 
L 372.271804 -50.7697 
L 372.561581 -50.910488 
L 372.851357 -51.051431 
L 373.141134 -51.192526 
L 373.430911 -51.333769 
L 373.720687 -51.475158 
L 374.010464 -51.616688 
L 374.300241 -51.758356 
L 374.590017 -51.900162 
L 374.879794 -52.042101 
L 375.169571 -52.184173 
L 375.459348 -52.326378 
L 375.749124 -52.468715 
L 376.038901 -52.611185 
L 376.328678 -52.75379 
L 376.618454 -52.896534 
L 376.908231 -53.039422 
L 377.198008 -53.182459 
L 377.487784 -53.325654 
L 377.777561 -53.469016 
L 378.067338 -53.612557 
L 378.357114 -53.756291 
L 378.646891 -53.900233 
L 378.936668 -54.044401 
L 379.226444 -54.188817 
L 379.516221 -54.333502 
L 379.805998 -54.478483 
L 380.095774 -54.623788 
L 380.385551 -54.769449 
L 380.675328 -54.915497 
L 380.965105 -55.061971 
L 381.254881 -55.20891 
L 381.544658 -55.356355 
L 381.834435 -55.504352 
L 382.124211 -55.652948 
L 382.413988 -55.802193 
L 382.703765 -55.95214 
L 382.993541 -56.102845 
L 383.283318 -56.254364 
L 383.573095 -56.406759 
L 383.862871 -56.56009 
L 384.152648 -56.714422 
L 384.442425 -56.869819 
L 384.732201 -57.02635 
L 385.021978 -57.184081 
L 385.311755 -57.343083 
L 385.601531 -57.503425 
L 385.891308 -57.665178 
L 386.181085 -57.828414 
L 386.470862 -57.993202 
L 386.760638 -58.159614 
L 387.050415 -58.32772 
L 387.340192 -58.49759 
L 387.629968 -58.669292 
L 387.919745 -58.842892 
L 388.209522 -59.018457 
L 388.499298 -59.196051 
L 388.789075 -59.375735 
L 389.078852 -59.557568 
L 389.368628 -59.741607 
L 389.658405 -59.927907 
L 389.948182 -60.116517 
L 390.237958 -60.307488 
L 390.527735 -60.500863 
L 390.817512 -60.696683 
L 391.107288 -60.894987 
L 391.397065 -61.09581 
L 391.686842 -61.299181 
L 391.976619 -61.505129 
L 392.266395 -61.713676 
L 392.556172 -61.924843 
L 392.845949 -62.138647 
L 393.135725 -62.355099 
L 393.425502 -62.57421 
L 393.715279 -62.795986 
L 394.005055 -63.02043 
L 394.294832 -63.247543 
L 394.584609 -63.477322 
L 394.874385 -63.709764 
L 395.164162 -63.944862 
L 395.453939 -64.182607 
L 395.743715 -64.422989 
L 396.033492 -64.665998 
L 396.323269 -64.911622 
L 396.613045 -65.159849 
L 396.902822 -65.410666 
L 397.192599 -65.664063 
L 397.482376 -65.920028 
L 397.772152 -66.178552 
L 398.061929 -66.439626 
L 398.351706 -66.703246 
L 398.641482 -66.969407 
L 398.931259 -67.23811 
L 399.221036 -67.509357 
L 399.510812 -67.783155 
L 399.800589 -68.059516 
L 400.090366 -68.338454 
L 400.380142 -68.619989 
L 400.669919 -68.904149 
L 400.959696 -69.190962 
L 401.249472 -69.480468 
L 401.539249 -69.772707 
L 401.829026 -70.067731 
L 402.118802 -70.365595 
L 402.408579 -70.666361 
L 402.698356 -70.9701 
L 402.988133 -71.276887 
L 403.277909 -71.586806 
L 403.567686 -71.899948 
L 403.857463 -72.21641 
L 404.147239 -72.536297 
L 404.437016 -72.85972 
L 404.726793 -73.186797 
L 405.016569 -73.517653 
L 405.306346 -73.852419 
L 405.596123 -74.191232 
L 405.885899 -74.534235 
L 406.175676 -74.881576 
L 406.465453 -75.233409 
L 406.755229 -75.589891 
L 407.045006 -75.951186 
L 407.334783 -76.317459 
L 407.624559 -76.688879 
L 407.914336 -77.065618 
L 408.204113 -77.447851 
L 408.49389 -77.835753 
L 408.783666 -78.229501 
L 409.073443 -78.629272 
L 409.36322 -79.035243 
L 409.652996 -79.447588 
L 409.942773 -79.866483 
L 410.23255 -80.292099 
L 410.522326 -80.724604 
L 410.812103 -81.164164 
L 411.10188 -81.610938 
L 411.391656 -82.065084 
L 411.681433 -82.52675 
L 411.97121 -82.99608 
L 412.260986 -83.473209 
L 412.550763 -83.958267 
L 412.84054 -84.451374 
L 413.130316 -84.95264 
L 413.420093 -85.462168 
L 413.70987 -85.980048 
L 413.999647 -86.506361 
L 414.289423 -87.041176 
L 414.5792 -87.584553 
L 414.868977 -88.136534 
L 415.158753 -88.697155 
L 415.44853 -89.266435 
L 415.738307 -89.844379 
L 416.028083 -90.430982 
L 416.31786 -91.026222 
L 416.607637 -91.630064 
L 416.897413 -92.242458 
L 417.18719 -92.863339 
L 417.476967 -93.49263 
L 417.766743 -94.130236 
L 418.05652 -94.776048 
L 418.346297 -95.429943 
L 418.636073 -96.091782 
L 418.92585 -96.761413 
L 419.215627 -97.438669 
L 419.505404 -98.123366 
L 419.79518 -98.81531 
L 420.084957 -99.514288 
L 420.374734 -100.220079 
L 420.66451 -100.932443 
L 420.954287 -101.651131 
L 421.244064 -102.37588 
L 421.53384 -103.106414 
L 421.823617 -103.842446 
L 422.113394 -104.583678 
L 422.40317 -105.329801 
L 422.692947 -106.080494 
L 422.982724 -106.83543 
L 423.2725 -107.594269 
L 423.562277 -108.356666 
L 423.852054 -109.122266 
L 424.14183 -109.890706 
L 424.431607 -110.661621 
L 424.721384 -111.434634 
L 425.011161 -112.209368 
L 425.300937 -112.98544 
L 425.590714 -113.762462 
L 425.880491 -114.540045 
L 426.170267 -115.317797 
L 426.460044 -116.095324 
L 426.749821 -116.872232 
L 427.039597 -117.648127 
L 427.329374 -118.422616 
L 427.619151 -119.195307 
L 427.908927 -119.965809 
L 428.198704 -120.733736 
L 428.488481 -121.498704 
L 428.778257 -122.260333 
L 429.068034 -123.018248 
L 429.357811 -123.772079 
L 429.647587 -124.521463 
L 429.937364 -125.266043 
L 430.227141 -126.005467 
L 430.516918 -126.739392 
L 430.806694 -127.467482 
L 431.096471 -128.189411 
L 431.386248 -128.904859 
L 431.676024 -129.613516 
L 431.965801 -130.315081 
L 432.255578 -131.009262 
L 432.545354 -131.695778 
L 432.835131 -132.374354 
L 433.124908 -133.044729 
L 433.414684 -133.706649 
L 433.704461 -134.359871 
L 433.994238 -135.004161 
L 434.284014 -135.639295 
L 434.573791 -136.26506 
L 434.863568 -136.88125 
L 435.153344 -137.48767 
L 435.443121 -138.084134 
L 435.732898 -138.670463 
L 436.022675 -139.24649 
L 436.312451 -139.812053 
L 436.602228 -140.366999 
L 436.892005 -140.911184 
L 437.181781 -141.44447 
L 437.471558 -141.966726 
L 437.761335 -142.477828 
L 438.051111 -142.977658 
L 438.340888 -143.466104 
L 438.630665 -143.943059 
L 438.920441 -144.408421 
L 439.210218 -144.862095 
L 439.499995 -145.303988 
L 439.789771 -145.734012 
L 440.079548 -146.152083 
L 440.369325 -146.55812 
L 440.659101 -146.952047 
L 440.948878 -147.333789 
L 441.238655 -147.703276 
L 441.528432 -148.060441 
L 441.818208 -148.405217 
L 442.107985 -148.737543 
L 442.397762 -149.057359 
L 442.687538 -149.364609 
L 442.977315 -149.659238 
L 443.267092 -149.941195 
L 443.556868 -150.210434 
L 443.846645 -150.466908 
L 444.136422 -150.710578 
L 444.426198 -150.941406 
L 444.715975 -151.159358 
L 445.005752 -151.364405 
L 445.295528 -151.556524 
L 445.585305 -151.735695 
L 445.875082 -151.901905 
L 446.164859 -152.055145 
L 446.454635 -152.195414 
L 446.744412 -152.322717 
L 447.034189 -152.437067 
L 447.323965 -152.538483 
L 447.613742 -152.626992 
L 447.903519 -152.702633 
L 448.193295 -152.765448 
L 448.483072 -152.815492 
L 448.772849 -152.85283 
L 449.062625 -152.877533 
L 449.352402 -152.889687 
L 449.642179 -152.889386 
L 449.931955 -152.876733 
L 450.221732 -152.851846 
L 450.511509 -152.814849 
L 450.801285 -152.765882 
L 451.091062 -152.705093 
L 451.380839 -152.632641 
L 451.670616 -152.548699 
L 451.960392 -152.453447 
L 452.250169 -152.347079 
L 452.539946 -152.229798 
L 452.829722 -152.101817 
L 453.119499 -151.963361 
L 453.409276 -151.814663 
L 453.699052 -151.655964 
L 453.988829 -151.487517 
L 454.278606 -151.30958 
L 454.568382 -151.122421 
L 454.858159 -150.926314 
L 455.147936 -150.721538 
L 455.437712 -150.508381 
L 455.727489 -150.287134 
L 456.017266 -150.058092 
L 456.307042 -149.821554 
L 456.596819 -149.577823 
L 456.886596 -149.327201 
L 457.176373 -149.069995 
L 457.466149 -148.80651 
L 457.755926 -148.53705 
L 458.045703 -148.261921 
L 458.335479 -147.981424 
L 458.625256 -147.695858 
L 458.915033 -147.40552 
L 459.204809 -147.110701 
L 459.494586 -146.811689 
L 459.784363 -146.508763 
L 460.074139 -146.202199 
L 460.363916 -145.892265 
L 460.653693 -145.579222 
L 460.943469 -145.263321 
L 461.233246 -144.944806 
L 461.523023 -144.623912 
L 461.812799 -144.300863 
L 462.102576 -143.975875 
L 462.392353 -143.649152 
L 462.68213 -143.320888 
L 462.971906 -142.991266 
L 463.261683 -142.660457 
L 463.55146 -142.328622 
L 463.841236 -141.995909 
L 464.131013 -141.662454 
L 464.42079 -141.328382 
L 464.710566 -140.993807 
L 465.000343 -140.65883 
L 465.29012 -140.323538 
L 465.579896 -139.98801 
L 465.869673 -139.652311 
L 466.15945 -139.316494 
L 466.449226 -138.980601 
L 466.739003 -138.644662 
L 467.02878 -138.308698 
L 467.318556 -137.972715 
L 467.608333 -137.636712 
L 467.89811 -137.300675 
L 468.187887 -136.96458 
L 468.477663 -136.628394 
L 468.76744 -136.292072 
L 469.057217 -135.955563 
L 469.346993 -135.618803 
L 469.63677 -135.281723 
L 469.926547 -134.944241 
L 470.216323 -134.606272 
L 470.5061 -134.267719 
L 470.795877 -133.928479 
L 471.085653 -133.588444 
L 471.37543 -133.247495 
L 471.665207 -132.905512 
L 471.954983 -132.562364 
L 472.24476 -132.217919 
L 472.534537 -131.872039 
L 472.824313 -131.524578 
L 473.11409 -131.175391 
L 473.403867 -130.824326 
L 473.693644 -130.471229 
L 473.98342 -130.115944 
L 474.273197 -129.758312 
L 474.562974 -129.398172 
L 474.85275 -129.035363 
L 475.142527 -128.669721 
L 475.432304 -128.301085 
L 475.72208 -127.929293 
L 476.011857 -127.554183 
L 476.301634 -127.175594 
L 476.59141 -126.793371 
L 476.881187 -126.407356 
L 477.170964 -126.017398 
L 477.46074 -125.623347 
L 477.750517 -125.225059 
L 478.040294 -124.822394 
L 478.33007 -124.415217 
L 478.619847 -124.003397 
L 478.909624 -123.586813 
L 479.199401 -123.165346 
L 479.489177 -122.738888 
L 479.778954 -122.307335 
L 480.068731 -121.870595 
L 480.358507 -121.42858 
L 480.648284 -120.981214 
L 480.938061 -120.528428 
L 481.227837 -120.070164 
L 481.517614 -119.606372 
L 481.807391 -119.137013 
L 482.097167 -118.662058 
L 482.386944 -118.181488 
L 482.676721 -117.695295 
L 482.966497 -117.203481 
L 483.256274 -116.70606 
L 483.546051 -116.203054 
L 483.835827 -115.694499 
L 484.125604 -115.180439 
L 484.415381 -114.66093 
L 484.705158 -114.136037 
L 484.994934 -113.605838 
L 485.284711 -113.070418 
L 485.574488 -112.529873 
L 485.864264 -111.984309 
L 486.154041 -111.433841 
L 486.443818 -110.878593 
L 486.733594 -110.318696 
L 487.023371 -109.754292 
L 487.313148 -109.185527 
L 487.602924 -108.612557 
L 487.892701 -108.035545 
L 488.182478 -107.454657 
L 488.472254 -106.870068 
L 488.762031 -106.281958 
L 489.051808 -105.690509 
L 489.341584 -105.095909 
L 489.631361 -104.498351 
L 489.921138 -103.898029 
L 490.210915 -103.29514 
L 490.500691 -102.689884 
L 490.790468 -102.08246 
L 491.080245 -101.473072 
L 491.370021 -100.861921 
L 491.659798 -100.24921 
L 491.949575 -99.635141 
L 492.239351 -99.019915 
L 492.529128 -98.403731 
L 492.818905 -97.786789 
L 493.108681 -97.169283 
L 493.398458 -96.551409 
L 493.688235 -95.933356 
L 493.978011 -95.315314 
L 494.267788 -94.697465 
L 494.557565 -94.079993 
L 494.847341 -93.463074 
L 495.137118 -92.846881 
L 495.426895 -92.231583 
L 495.716672 -91.617346 
L 496.006448 -91.004331 
L 496.296225 -90.392691 
L 496.586002 -89.78258 
L 496.875778 -89.174144 
L 497.165555 -88.567524 
L 497.455332 -87.962858 
L 497.745108 -87.360277 
L 498.034885 -86.75991 
L 498.324662 -86.161878 
L 498.614438 -85.5663 
L 498.904215 -84.973289 
L 499.193992 -84.382954 
L 499.483768 -83.795397 
L 499.773545 -83.210719 
L 500.063322 -82.629014 
L 500.353098 -82.050372 
L 500.642875 -81.474879 
L 500.932652 -80.902618 
L 501.222429 -80.333664 
L 501.512205 -79.768092 
L 501.801982 -79.205969 
L 502.091759 -78.647362 
L 502.381535 -78.092332 
L 502.671312 -77.540935 
L 502.961089 -76.993224 
L 503.250865 -76.44925 
L 503.540642 -75.909057 
L 503.830419 -75.372689 
L 504.120195 -74.840184 
L 504.409972 -74.311577 
L 504.699749 -73.7869 
L 504.989525 -73.266181 
L 505.279302 -72.749445 
L 505.569079 -72.236713 
L 505.858855 -71.728005 
L 506.148632 -71.223336 
L 506.438409 -70.722717 
L 506.728186 -70.226159 
L 507.017962 -69.733668 
L 507.307739 -69.245248 
L 507.597516 -68.760899 
L 507.887292 -68.28062 
L 508.177069 -67.804406 
L 508.466846 -67.33225 
L 508.756622 -66.864144 
L 509.046399 -66.400076 
L 509.336176 -65.940032 
L 509.625952 -65.483997 
L 509.915729 -65.031954 
L 510.205506 -64.583882 
L 510.495282 -64.139762 
L 510.785059 -63.699571 
L 511.074836 -63.263284 
L 511.364612 -62.830878 
L 511.654389 -62.402326 
L 511.944166 -61.977601 
L 512.233943 -61.556675 
L 512.523719 -61.139521 
L 512.813496 -60.72611 
L 513.103273 -60.316413 
L 513.393049 -59.910401 
L 513.682826 -59.508045 
L 513.972603 -59.109316 
L 514.262379 -58.714186 
L 514.552156 -58.322628 
L 514.841933 -57.934614 
L 515.131709 -57.550119 
L 515.421486 -57.169116 
L 515.711263 -56.791582 
L 516.001039 -56.417493 
L 516.290816 -56.04683 
L 516.580593 -55.679571 
L 516.870369 -55.315698 
L 517.160146 -54.955194 
L 517.449923 -54.598045 
L 517.7397 -54.244238 
L 518.029476 -53.89376 
L 518.319253 -53.546605 
L 518.60903 -53.202764 
L 518.898806 -52.862232 
L 519.188583 -52.525007 
L 519.47836 -52.191088 
L 519.768136 -51.860476 
L 520.057913 -51.533176 
L 520.34769 -51.209193 
L 520.637466 -50.888535 
L 520.927243 -50.571212 
L 521.21702 -50.257237 
L 521.506796 -49.946622 
L 521.796573 -49.639384 
L 522.08635 -49.335542 
L 522.376127 -49.035113 
L 522.665903 -48.738121 
L 522.95568 -48.444586 
L 523.245457 -48.154534 
L 523.535233 -47.86799 
L 523.82501 -47.58498 
L 524.114787 -47.305533 
L 524.404563 -47.029677 
L 524.69434 -46.757442 
L 524.984117 -46.488857 
L 525.273893 -46.223953 
L 525.56367 -45.962761 
L 525.853447 -45.705312 
L 526.143223 -45.451637 
L 526.433 -45.201767 
L 526.722777 -44.955733 
L 527.012553 -44.713564 
L 527.30233 -44.475289 
L 527.592107 -44.240938 
L 527.881884 -44.010537 
L 528.17166 -43.784114 
L 528.461437 -43.561692 
L 528.751214 -43.343297 
L 529.04099 -43.128949 
L 529.330767 -42.918668 
L 529.620544 -42.712473 
L 529.91032 -42.510381 
L 530.200097 -42.312405 
L 530.489874 -42.118557 
L 530.77965 -41.928846 
L 531.069427 -41.743279 
L 531.359204 -41.561861 
L 531.64898 -41.384592 
L 531.938757 -41.211472 
L 532.228534 -41.042496 
L 532.51831 -40.877658 
L 532.808087 -40.716948 
L 533.097864 -40.560352 
L 533.387641 -40.407855 
L 533.677417 -40.259438 
L 533.967194 -40.115078 
L 534.256971 -39.974751 
L 534.546747 -39.838428 
L 534.836524 -39.706078 
L 535.126301 -39.577668 
L 535.416077 -39.453159 
L 535.705854 -39.332513 
L 535.995631 -39.215686 
L 536.285407 -39.102632 
L 536.575184 -38.993305 
L 536.864961 -38.887652 
L 537.154737 -38.785621 
L 537.444514 -38.687156 
L 537.734291 -38.592199 
L 538.024067 -38.500689 
L 538.313844 -38.412566 
L 538.603621 -38.327765 
L 538.893398 -38.24622 
L 539.183174 -38.167863 
L 539.472951 -38.092627 
L 539.762728 -38.02044 
L 540.052504 -37.951231 
L 540.342281 -37.884928 
L 540.632058 -37.821457 
L 540.921834 -37.760744 
L 541.211611 -37.702714 
L 541.501388 -37.647292 
L 541.791164 -37.594403 
L 542.080941 -37.543971 
L 542.370718 -37.495919 
L 542.660494 -37.450173 
L 542.950271 -37.406656 
L 543.240048 -37.365294 
L 543.529824 -37.326012 
L 543.819601 -37.288737 
L 544.109378 -37.253394 
L 544.399155 -37.219912 
L 544.688931 -37.188218 
L 544.978708 -37.158243 
L 545.268485 -37.129918 
L 545.558261 -37.103174 
L 545.848038 -37.077943 
L 546.137815 -37.054162 
L 546.427591 -37.031766 
L 546.717368 -37.010693 
L 547.007145 -36.990881 
L 547.296921 -36.972271 
L 547.586698 -36.954806 
L 547.876475 -36.938429 
L 548.166251 -36.923087 
L 548.456028 -36.908726 
L 548.745805 -36.895296 
L 549.035581 -36.882747 
L 549.325358 -36.871032 
L 549.615135 -36.860106 
L 549.904912 -36.849924 
L 550.194688 -36.840445 
L 550.484465 -36.831627 
L 550.774242 -36.823433 
L 551.064018 -36.815824 
L 551.353795 -36.808766 
L 551.643572 -36.802225 
L 551.933348 -36.796168 
L 552.223125 -36.790565 
L 552.512902 -36.785386 
L 552.802678 -36.780604 
L 553.092455 -36.776192 
L 553.382232 -36.772126 
L 553.672008 -36.768382 
L 553.961785 -36.764937 
L 554.251562 -36.761771 
L 554.541338 -36.758864 
L 554.831115 -36.756197 
L 555.120892 -36.753753 
L 555.410669 -36.751514 
L 555.700445 -36.749467 
L 555.990222 -36.747595 
L 556.279999 -36.745887 
L 556.569775 -36.744328 
L 556.859552 -36.742907 
L 557.149329 -36.741614 
L 557.149329 -36.729687 
L 557.149329 -36.729687 
L 556.859552 -36.729687 
L 556.569775 -36.729687 
L 556.279999 -36.729687 
L 555.990222 -36.729687 
L 555.700445 -36.729687 
L 555.410669 -36.729687 
L 555.120892 -36.729687 
L 554.831115 -36.729687 
L 554.541338 -36.729687 
L 554.251562 -36.729687 
L 553.961785 -36.729687 
L 553.672008 -36.729687 
L 553.382232 -36.729687 
L 553.092455 -36.729687 
L 552.802678 -36.729687 
L 552.512902 -36.729687 
L 552.223125 -36.729687 
L 551.933348 -36.729687 
L 551.643572 -36.729687 
L 551.353795 -36.729687 
L 551.064018 -36.729687 
L 550.774242 -36.729687 
L 550.484465 -36.729687 
L 550.194688 -36.729687 
L 549.904912 -36.729687 
L 549.615135 -36.729687 
L 549.325358 -36.729687 
L 549.035581 -36.729687 
L 548.745805 -36.729687 
L 548.456028 -36.729687 
L 548.166251 -36.729687 
L 547.876475 -36.729687 
L 547.586698 -36.729687 
L 547.296921 -36.729687 
L 547.007145 -36.729687 
L 546.717368 -36.729687 
L 546.427591 -36.729687 
L 546.137815 -36.729687 
L 545.848038 -36.729687 
L 545.558261 -36.729687 
L 545.268485 -36.729687 
L 544.978708 -36.729687 
L 544.688931 -36.729687 
L 544.399155 -36.729687 
L 544.109378 -36.729687 
L 543.819601 -36.729687 
L 543.529824 -36.729687 
L 543.240048 -36.729687 
L 542.950271 -36.729687 
L 542.660494 -36.729687 
L 542.370718 -36.729687 
L 542.080941 -36.729687 
L 541.791164 -36.729687 
L 541.501388 -36.729687 
L 541.211611 -36.729687 
L 540.921834 -36.729687 
L 540.632058 -36.729687 
L 540.342281 -36.729687 
L 540.052504 -36.729687 
L 539.762728 -36.729687 
L 539.472951 -36.729687 
L 539.183174 -36.729687 
L 538.893398 -36.729687 
L 538.603621 -36.729687 
L 538.313844 -36.729687 
L 538.024067 -36.729687 
L 537.734291 -36.729687 
L 537.444514 -36.729687 
L 537.154737 -36.729687 
L 536.864961 -36.729687 
L 536.575184 -36.729687 
L 536.285407 -36.729687 
L 535.995631 -36.729687 
L 535.705854 -36.729687 
L 535.416077 -36.729687 
L 535.126301 -36.729687 
L 534.836524 -36.729687 
L 534.546747 -36.729687 
L 534.256971 -36.729687 
L 533.967194 -36.729687 
L 533.677417 -36.729687 
L 533.387641 -36.729687 
L 533.097864 -36.729687 
L 532.808087 -36.729687 
L 532.51831 -36.729687 
L 532.228534 -36.729687 
L 531.938757 -36.729687 
L 531.64898 -36.729687 
L 531.359204 -36.729687 
L 531.069427 -36.729687 
L 530.77965 -36.729687 
L 530.489874 -36.729687 
L 530.200097 -36.729687 
L 529.91032 -36.729687 
L 529.620544 -36.729687 
L 529.330767 -36.729687 
L 529.04099 -36.729687 
L 528.751214 -36.729687 
L 528.461437 -36.729687 
L 528.17166 -36.729687 
L 527.881884 -36.729687 
L 527.592107 -36.729687 
L 527.30233 -36.729687 
L 527.012553 -36.729687 
L 526.722777 -36.729687 
L 526.433 -36.729687 
L 526.143223 -36.729687 
L 525.853447 -36.729687 
L 525.56367 -36.729687 
L 525.273893 -36.729687 
L 524.984117 -36.729687 
L 524.69434 -36.729687 
L 524.404563 -36.729687 
L 524.114787 -36.729687 
L 523.82501 -36.729687 
L 523.535233 -36.729687 
L 523.245457 -36.729687 
L 522.95568 -36.729687 
L 522.665903 -36.729687 
L 522.376127 -36.729687 
L 522.08635 -36.729687 
L 521.796573 -36.729687 
L 521.506796 -36.729687 
L 521.21702 -36.729687 
L 520.927243 -36.729687 
L 520.637466 -36.729687 
L 520.34769 -36.729687 
L 520.057913 -36.729687 
L 519.768136 -36.729687 
L 519.47836 -36.729687 
L 519.188583 -36.729687 
L 518.898806 -36.729687 
L 518.60903 -36.729687 
L 518.319253 -36.729687 
L 518.029476 -36.729687 
L 517.7397 -36.729687 
L 517.449923 -36.729687 
L 517.160146 -36.729687 
L 516.870369 -36.729687 
L 516.580593 -36.729687 
L 516.290816 -36.729687 
L 516.001039 -36.729687 
L 515.711263 -36.729687 
L 515.421486 -36.729687 
L 515.131709 -36.729687 
L 514.841933 -36.729687 
L 514.552156 -36.729687 
L 514.262379 -36.729687 
L 513.972603 -36.729687 
L 513.682826 -36.729687 
L 513.393049 -36.729687 
L 513.103273 -36.729687 
L 512.813496 -36.729687 
L 512.523719 -36.729687 
L 512.233943 -36.729687 
L 511.944166 -36.729687 
L 511.654389 -36.729687 
L 511.364612 -36.729687 
L 511.074836 -36.729687 
L 510.785059 -36.729687 
L 510.495282 -36.729687 
L 510.205506 -36.729687 
L 509.915729 -36.729687 
L 509.625952 -36.729687 
L 509.336176 -36.729687 
L 509.046399 -36.729687 
L 508.756622 -36.729687 
L 508.466846 -36.729687 
L 508.177069 -36.729687 
L 507.887292 -36.729687 
L 507.597516 -36.729687 
L 507.307739 -36.729687 
L 507.017962 -36.729687 
L 506.728186 -36.729687 
L 506.438409 -36.729687 
L 506.148632 -36.729687 
L 505.858855 -36.729687 
L 505.569079 -36.729687 
L 505.279302 -36.729687 
L 504.989525 -36.729687 
L 504.699749 -36.729687 
L 504.409972 -36.729687 
L 504.120195 -36.729687 
L 503.830419 -36.729687 
L 503.540642 -36.729687 
L 503.250865 -36.729687 
L 502.961089 -36.729687 
L 502.671312 -36.729687 
L 502.381535 -36.729687 
L 502.091759 -36.729687 
L 501.801982 -36.729687 
L 501.512205 -36.729687 
L 501.222429 -36.729687 
L 500.932652 -36.729687 
L 500.642875 -36.729687 
L 500.353098 -36.729687 
L 500.063322 -36.729687 
L 499.773545 -36.729687 
L 499.483768 -36.729687 
L 499.193992 -36.729687 
L 498.904215 -36.729687 
L 498.614438 -36.729687 
L 498.324662 -36.729687 
L 498.034885 -36.729687 
L 497.745108 -36.729687 
L 497.455332 -36.729687 
L 497.165555 -36.729687 
L 496.875778 -36.729687 
L 496.586002 -36.729687 
L 496.296225 -36.729687 
L 496.006448 -36.729687 
L 495.716672 -36.729687 
L 495.426895 -36.729687 
L 495.137118 -36.729687 
L 494.847341 -36.729687 
L 494.557565 -36.729687 
L 494.267788 -36.729687 
L 493.978011 -36.729687 
L 493.688235 -36.729687 
L 493.398458 -36.729687 
L 493.108681 -36.729687 
L 492.818905 -36.729687 
L 492.529128 -36.729687 
L 492.239351 -36.729687 
L 491.949575 -36.729687 
L 491.659798 -36.729687 
L 491.370021 -36.729687 
L 491.080245 -36.729687 
L 490.790468 -36.729687 
L 490.500691 -36.729687 
L 490.210915 -36.729687 
L 489.921138 -36.729687 
L 489.631361 -36.729687 
L 489.341584 -36.729687 
L 489.051808 -36.729687 
L 488.762031 -36.729687 
L 488.472254 -36.729687 
L 488.182478 -36.729687 
L 487.892701 -36.729687 
L 487.602924 -36.729687 
L 487.313148 -36.729687 
L 487.023371 -36.729687 
L 486.733594 -36.729687 
L 486.443818 -36.729687 
L 486.154041 -36.729687 
L 485.864264 -36.729687 
L 485.574488 -36.729687 
L 485.284711 -36.729687 
L 484.994934 -36.729687 
L 484.705158 -36.729687 
L 484.415381 -36.729687 
L 484.125604 -36.729687 
L 483.835827 -36.729687 
L 483.546051 -36.729687 
L 483.256274 -36.729687 
L 482.966497 -36.729687 
L 482.676721 -36.729687 
L 482.386944 -36.729687 
L 482.097167 -36.729687 
L 481.807391 -36.729687 
L 481.517614 -36.729687 
L 481.227837 -36.729687 
L 480.938061 -36.729687 
L 480.648284 -36.729687 
L 480.358507 -36.729687 
L 480.068731 -36.729687 
L 479.778954 -36.729687 
L 479.489177 -36.729687 
L 479.199401 -36.729687 
L 478.909624 -36.729687 
L 478.619847 -36.729687 
L 478.33007 -36.729687 
L 478.040294 -36.729687 
L 477.750517 -36.729687 
L 477.46074 -36.729687 
L 477.170964 -36.729687 
L 476.881187 -36.729687 
L 476.59141 -36.729687 
L 476.301634 -36.729687 
L 476.011857 -36.729687 
L 475.72208 -36.729687 
L 475.432304 -36.729687 
L 475.142527 -36.729687 
L 474.85275 -36.729687 
L 474.562974 -36.729687 
L 474.273197 -36.729687 
L 473.98342 -36.729687 
L 473.693644 -36.729687 
L 473.403867 -36.729687 
L 473.11409 -36.729687 
L 472.824313 -36.729687 
L 472.534537 -36.729687 
L 472.24476 -36.729687 
L 471.954983 -36.729687 
L 471.665207 -36.729687 
L 471.37543 -36.729687 
L 471.085653 -36.729687 
L 470.795877 -36.729687 
L 470.5061 -36.729687 
L 470.216323 -36.729687 
L 469.926547 -36.729687 
L 469.63677 -36.729687 
L 469.346993 -36.729687 
L 469.057217 -36.729687 
L 468.76744 -36.729687 
L 468.477663 -36.729687 
L 468.187887 -36.729687 
L 467.89811 -36.729687 
L 467.608333 -36.729687 
L 467.318556 -36.729687 
L 467.02878 -36.729687 
L 466.739003 -36.729687 
L 466.449226 -36.729687 
L 466.15945 -36.729687 
L 465.869673 -36.729687 
L 465.579896 -36.729687 
L 465.29012 -36.729687 
L 465.000343 -36.729687 
L 464.710566 -36.729687 
L 464.42079 -36.729687 
L 464.131013 -36.729687 
L 463.841236 -36.729687 
L 463.55146 -36.729687 
L 463.261683 -36.729687 
L 462.971906 -36.729687 
L 462.68213 -36.729687 
L 462.392353 -36.729687 
L 462.102576 -36.729687 
L 461.812799 -36.729687 
L 461.523023 -36.729687 
L 461.233246 -36.729687 
L 460.943469 -36.729687 
L 460.653693 -36.729687 
L 460.363916 -36.729687 
L 460.074139 -36.729687 
L 459.784363 -36.729687 
L 459.494586 -36.729687 
L 459.204809 -36.729687 
L 458.915033 -36.729687 
L 458.625256 -36.729687 
L 458.335479 -36.729687 
L 458.045703 -36.729687 
L 457.755926 -36.729687 
L 457.466149 -36.729687 
L 457.176373 -36.729687 
L 456.886596 -36.729687 
L 456.596819 -36.729687 
L 456.307042 -36.729687 
L 456.017266 -36.729687 
L 455.727489 -36.729687 
L 455.437712 -36.729687 
L 455.147936 -36.729687 
L 454.858159 -36.729687 
L 454.568382 -36.729687 
L 454.278606 -36.729687 
L 453.988829 -36.729687 
L 453.699052 -36.729687 
L 453.409276 -36.729687 
L 453.119499 -36.729687 
L 452.829722 -36.729687 
L 452.539946 -36.729687 
L 452.250169 -36.729687 
L 451.960392 -36.729687 
L 451.670616 -36.729687 
L 451.380839 -36.729687 
L 451.091062 -36.729687 
L 450.801285 -36.729687 
L 450.511509 -36.729687 
L 450.221732 -36.729687 
L 449.931955 -36.729687 
L 449.642179 -36.729687 
L 449.352402 -36.729687 
L 449.062625 -36.729687 
L 448.772849 -36.729687 
L 448.483072 -36.729687 
L 448.193295 -36.729687 
L 447.903519 -36.729687 
L 447.613742 -36.729687 
L 447.323965 -36.729687 
L 447.034189 -36.729687 
L 446.744412 -36.729687 
L 446.454635 -36.729687 
L 446.164859 -36.729687 
L 445.875082 -36.729687 
L 445.585305 -36.729687 
L 445.295528 -36.729687 
L 445.005752 -36.729687 
L 444.715975 -36.729687 
L 444.426198 -36.729687 
L 444.136422 -36.729687 
L 443.846645 -36.729687 
L 443.556868 -36.729687 
L 443.267092 -36.729687 
L 442.977315 -36.729687 
L 442.687538 -36.729687 
L 442.397762 -36.729687 
L 442.107985 -36.729687 
L 441.818208 -36.729687 
L 441.528432 -36.729687 
L 441.238655 -36.729687 
L 440.948878 -36.729687 
L 440.659101 -36.729687 
L 440.369325 -36.729687 
L 440.079548 -36.729687 
L 439.789771 -36.729687 
L 439.499995 -36.729687 
L 439.210218 -36.729687 
L 438.920441 -36.729687 
L 438.630665 -36.729687 
L 438.340888 -36.729687 
L 438.051111 -36.729687 
L 437.761335 -36.729687 
L 437.471558 -36.729687 
L 437.181781 -36.729687 
L 436.892005 -36.729687 
L 436.602228 -36.729687 
L 436.312451 -36.729687 
L 436.022675 -36.729687 
L 435.732898 -36.729687 
L 435.443121 -36.729687 
L 435.153344 -36.729687 
L 434.863568 -36.729687 
L 434.573791 -36.729687 
L 434.284014 -36.729687 
L 433.994238 -36.729687 
L 433.704461 -36.729687 
L 433.414684 -36.729687 
L 433.124908 -36.729687 
L 432.835131 -36.729687 
L 432.545354 -36.729687 
L 432.255578 -36.729687 
L 431.965801 -36.729687 
L 431.676024 -36.729687 
L 431.386248 -36.729687 
L 431.096471 -36.729687 
L 430.806694 -36.729687 
L 430.516918 -36.729687 
L 430.227141 -36.729687 
L 429.937364 -36.729687 
L 429.647587 -36.729687 
L 429.357811 -36.729687 
L 429.068034 -36.729687 
L 428.778257 -36.729687 
L 428.488481 -36.729687 
L 428.198704 -36.729687 
L 427.908927 -36.729687 
L 427.619151 -36.729687 
L 427.329374 -36.729687 
L 427.039597 -36.729687 
L 426.749821 -36.729687 
L 426.460044 -36.729687 
L 426.170267 -36.729687 
L 425.880491 -36.729687 
L 425.590714 -36.729687 
L 425.300937 -36.729687 
L 425.011161 -36.729687 
L 424.721384 -36.729687 
L 424.431607 -36.729687 
L 424.14183 -36.729687 
L 423.852054 -36.729687 
L 423.562277 -36.729687 
L 423.2725 -36.729687 
L 422.982724 -36.729687 
L 422.692947 -36.729687 
L 422.40317 -36.729687 
L 422.113394 -36.729687 
L 421.823617 -36.729687 
L 421.53384 -36.729687 
L 421.244064 -36.729687 
L 420.954287 -36.729687 
L 420.66451 -36.729687 
L 420.374734 -36.729687 
L 420.084957 -36.729687 
L 419.79518 -36.729687 
L 419.505404 -36.729687 
L 419.215627 -36.729687 
L 418.92585 -36.729687 
L 418.636073 -36.729687 
L 418.346297 -36.729687 
L 418.05652 -36.729687 
L 417.766743 -36.729687 
L 417.476967 -36.729687 
L 417.18719 -36.729687 
L 416.897413 -36.729687 
L 416.607637 -36.729687 
L 416.31786 -36.729687 
L 416.028083 -36.729687 
L 415.738307 -36.729687 
L 415.44853 -36.729687 
L 415.158753 -36.729687 
L 414.868977 -36.729687 
L 414.5792 -36.729687 
L 414.289423 -36.729687 
L 413.999647 -36.729687 
L 413.70987 -36.729687 
L 413.420093 -36.729687 
L 413.130316 -36.729687 
L 412.84054 -36.729687 
L 412.550763 -36.729687 
L 412.260986 -36.729687 
L 411.97121 -36.729687 
L 411.681433 -36.729687 
L 411.391656 -36.729687 
L 411.10188 -36.729687 
L 410.812103 -36.729687 
L 410.522326 -36.729687 
L 410.23255 -36.729687 
L 409.942773 -36.729687 
L 409.652996 -36.729687 
L 409.36322 -36.729687 
L 409.073443 -36.729687 
L 408.783666 -36.729687 
L 408.49389 -36.729687 
L 408.204113 -36.729687 
L 407.914336 -36.729687 
L 407.624559 -36.729687 
L 407.334783 -36.729687 
L 407.045006 -36.729687 
L 406.755229 -36.729687 
L 406.465453 -36.729687 
L 406.175676 -36.729687 
L 405.885899 -36.729687 
L 405.596123 -36.729687 
L 405.306346 -36.729687 
L 405.016569 -36.729687 
L 404.726793 -36.729687 
L 404.437016 -36.729687 
L 404.147239 -36.729687 
L 403.857463 -36.729687 
L 403.567686 -36.729687 
L 403.277909 -36.729687 
L 402.988133 -36.729687 
L 402.698356 -36.729687 
L 402.408579 -36.729687 
L 402.118802 -36.729687 
L 401.829026 -36.729687 
L 401.539249 -36.729687 
L 401.249472 -36.729687 
L 400.959696 -36.729687 
L 400.669919 -36.729687 
L 400.380142 -36.729687 
L 400.090366 -36.729687 
L 399.800589 -36.729687 
L 399.510812 -36.729687 
L 399.221036 -36.729687 
L 398.931259 -36.729687 
L 398.641482 -36.729687 
L 398.351706 -36.729687 
L 398.061929 -36.729687 
L 397.772152 -36.729687 
L 397.482376 -36.729687 
L 397.192599 -36.729687 
L 396.902822 -36.729687 
L 396.613045 -36.729687 
L 396.323269 -36.729687 
L 396.033492 -36.729687 
L 395.743715 -36.729687 
L 395.453939 -36.729687 
L 395.164162 -36.729687 
L 394.874385 -36.729687 
L 394.584609 -36.729687 
L 394.294832 -36.729687 
L 394.005055 -36.729687 
L 393.715279 -36.729687 
L 393.425502 -36.729687 
L 393.135725 -36.729687 
L 392.845949 -36.729687 
L 392.556172 -36.729687 
L 392.266395 -36.729687 
L 391.976619 -36.729687 
L 391.686842 -36.729687 
L 391.397065 -36.729687 
L 391.107288 -36.729687 
L 390.817512 -36.729687 
L 390.527735 -36.729687 
L 390.237958 -36.729687 
L 389.948182 -36.729687 
L 389.658405 -36.729687 
L 389.368628 -36.729687 
L 389.078852 -36.729687 
L 388.789075 -36.729687 
L 388.499298 -36.729687 
L 388.209522 -36.729687 
L 387.919745 -36.729687 
L 387.629968 -36.729687 
L 387.340192 -36.729687 
L 387.050415 -36.729687 
L 386.760638 -36.729687 
L 386.470862 -36.729687 
L 386.181085 -36.729687 
L 385.891308 -36.729687 
L 385.601531 -36.729687 
L 385.311755 -36.729687 
L 385.021978 -36.729687 
L 384.732201 -36.729687 
L 384.442425 -36.729687 
L 384.152648 -36.729687 
L 383.862871 -36.729687 
L 383.573095 -36.729687 
L 383.283318 -36.729687 
L 382.993541 -36.729687 
L 382.703765 -36.729687 
L 382.413988 -36.729687 
L 382.124211 -36.729687 
L 381.834435 -36.729687 
L 381.544658 -36.729687 
L 381.254881 -36.729687 
L 380.965105 -36.729687 
L 380.675328 -36.729687 
L 380.385551 -36.729687 
L 380.095774 -36.729687 
L 379.805998 -36.729687 
L 379.516221 -36.729687 
L 379.226444 -36.729687 
L 378.936668 -36.729687 
L 378.646891 -36.729687 
L 378.357114 -36.729687 
L 378.067338 -36.729687 
L 377.777561 -36.729687 
L 377.487784 -36.729687 
L 377.198008 -36.729687 
L 376.908231 -36.729687 
L 376.618454 -36.729687 
L 376.328678 -36.729687 
L 376.038901 -36.729687 
L 375.749124 -36.729687 
L 375.459348 -36.729687 
L 375.169571 -36.729687 
L 374.879794 -36.729687 
L 374.590017 -36.729687 
L 374.300241 -36.729687 
L 374.010464 -36.729687 
L 373.720687 -36.729687 
L 373.430911 -36.729687 
L 373.141134 -36.729687 
L 372.851357 -36.729687 
L 372.561581 -36.729687 
L 372.271804 -36.729687 
L 371.982027 -36.729687 
L 371.692251 -36.729687 
L 371.402474 -36.729687 
L 371.112697 -36.729687 
L 370.822921 -36.729687 
L 370.533144 -36.729687 
L 370.243367 -36.729687 
L 369.953591 -36.729687 
L 369.663814 -36.729687 
L 369.374037 -36.729687 
L 369.08426 -36.729687 
L 368.794484 -36.729687 
L 368.504707 -36.729687 
L 368.21493 -36.729687 
L 367.925154 -36.729687 
L 367.635377 -36.729687 
L 367.3456 -36.729687 
L 367.055824 -36.729687 
L 366.766047 -36.729687 
L 366.47627 -36.729687 
L 366.186494 -36.729687 
L 365.896717 -36.729687 
L 365.60694 -36.729687 
L 365.317164 -36.729687 
L 365.027387 -36.729687 
L 364.73761 -36.729687 
L 364.447833 -36.729687 
L 364.158057 -36.729687 
L 363.86828 -36.729687 
L 363.578503 -36.729687 
L 363.288727 -36.729687 
L 362.99895 -36.729687 
L 362.709173 -36.729687 
L 362.419397 -36.729687 
L 362.12962 -36.729687 
L 361.839843 -36.729687 
L 361.550067 -36.729687 
L 361.26029 -36.729687 
L 360.970513 -36.729687 
L 360.680737 -36.729687 
L 360.39096 -36.729687 
L 360.101183 -36.729687 
L 359.811407 -36.729687 
L 359.52163 -36.729687 
L 359.231853 -36.729687 
L 358.942076 -36.729687 
L 358.6523 -36.729687 
L 358.362523 -36.729687 
L 358.072746 -36.729687 
L 357.78297 -36.729687 
L 357.493193 -36.729687 
L 357.203416 -36.729687 
L 356.91364 -36.729687 
L 356.623863 -36.729687 
L 356.334086 -36.729687 
L 356.04431 -36.729687 
L 355.754533 -36.729687 
L 355.464756 -36.729687 
L 355.17498 -36.729687 
L 354.885203 -36.729687 
L 354.595426 -36.729687 
L 354.30565 -36.729687 
L 354.015873 -36.729687 
L 353.726096 -36.729687 
L 353.436319 -36.729687 
L 353.146543 -36.729687 
L 352.856766 -36.729687 
L 352.566989 -36.729687 
L 352.277213 -36.729687 
L 351.987436 -36.729687 
L 351.697659 -36.729687 
L 351.407883 -36.729687 
L 351.118106 -36.729687 
L 350.828329 -36.729687 
L 350.538553 -36.729687 
L 350.248776 -36.729687 
L 349.958999 -36.729687 
L 349.669223 -36.729687 
L 349.379446 -36.729687 
L 349.089669 -36.729687 
L 348.799893 -36.729687 
L 348.510116 -36.729687 
L 348.220339 -36.729687 
L 347.930562 -36.729687 
L 347.640786 -36.729687 
L 347.351009 -36.729687 
L 347.061232 -36.729687 
L 346.771456 -36.729687 
L 346.481679 -36.729687 
L 346.191902 -36.729687 
L 345.902126 -36.729687 
L 345.612349 -36.729687 
L 345.322572 -36.729687 
L 345.032796 -36.729687 
L 344.743019 -36.729687 
L 344.453242 -36.729687 
L 344.163466 -36.729687 
L 343.873689 -36.729687 
L 343.583912 -36.729687 
L 343.294136 -36.729687 
L 343.004359 -36.729687 
L 342.714582 -36.729687 
L 342.424805 -36.729687 
L 342.135029 -36.729687 
L 341.845252 -36.729687 
L 341.555475 -36.729687 
L 341.265699 -36.729687 
L 340.975922 -36.729687 
L 340.686145 -36.729687 
L 340.396369 -36.729687 
L 340.106592 -36.729687 
L 339.816815 -36.729687 
L 339.527039 -36.729687 
L 339.237262 -36.729687 
L 338.947485 -36.729687 
L 338.657709 -36.729687 
L 338.367932 -36.729687 
L 338.078155 -36.729687 
L 337.788379 -36.729687 
L 337.498602 -36.729687 
L 337.208825 -36.729687 
L 336.919048 -36.729687 
L 336.629272 -36.729687 
L 336.339495 -36.729687 
L 336.049718 -36.729687 
L 335.759942 -36.729687 
L 335.470165 -36.729687 
L 335.180388 -36.729687 
L 334.890612 -36.729687 
L 334.600835 -36.729687 
L 334.311058 -36.729687 
L 334.021282 -36.729687 
L 333.731505 -36.729687 
L 333.441728 -36.729687 
L 333.151952 -36.729687 
L 332.862175 -36.729687 
L 332.572398 -36.729687 
L 332.282622 -36.729687 
L 331.992845 -36.729687 
L 331.703068 -36.729687 
L 331.413291 -36.729687 
L 331.123515 -36.729687 
L 330.833738 -36.729687 
L 330.543961 -36.729687 
L 330.254185 -36.729687 
L 329.964408 -36.729687 
L 329.674631 -36.729687 
L 329.384855 -36.729687 
L 329.095078 -36.729687 
L 328.805301 -36.729687 
L 328.515525 -36.729687 
L 328.225748 -36.729687 
L 327.935971 -36.729687 
L 327.646195 -36.729687 
L 327.356418 -36.729687 
L 327.066641 -36.729687 
L 326.776865 -36.729687 
L 326.487088 -36.729687 
L 326.197311 -36.729687 
L 325.907534 -36.729687 
L 325.617758 -36.729687 
L 325.327981 -36.729687 
L 325.038204 -36.729687 
L 324.748428 -36.729687 
L 324.458651 -36.729687 
L 324.168874 -36.729687 
L 323.879098 -36.729687 
L 323.589321 -36.729687 
L 323.299544 -36.729687 
L 323.009768 -36.729687 
L 322.719991 -36.729687 
L 322.430214 -36.729687 
L 322.140438 -36.729687 
L 321.850661 -36.729687 
L 321.560884 -36.729687 
L 321.271108 -36.729687 
L 320.981331 -36.729687 
L 320.691554 -36.729687 
L 320.401777 -36.729687 
L 320.112001 -36.729687 
L 319.822224 -36.729687 
L 319.532447 -36.729687 
L 319.242671 -36.729687 
L 318.952894 -36.729687 
L 318.663117 -36.729687 
L 318.373341 -36.729687 
L 318.083564 -36.729687 
L 317.793787 -36.729687 
L 317.504011 -36.729687 
L 317.214234 -36.729687 
L 316.924457 -36.729687 
L 316.634681 -36.729687 
L 316.344904 -36.729687 
L 316.055127 -36.729687 
L 315.765351 -36.729687 
L 315.475574 -36.729687 
L 315.185797 -36.729687 
L 314.89602 -36.729687 
L 314.606244 -36.729687 
L 314.316467 -36.729687 
L 314.02669 -36.729687 
L 313.736914 -36.729687 
L 313.447137 -36.729687 
L 313.15736 -36.729687 
L 312.867584 -36.729687 
L 312.577807 -36.729687 
L 312.28803 -36.729687 
L 311.998254 -36.729687 
L 311.708477 -36.729687 
L 311.4187 -36.729687 
L 311.128924 -36.729687 
L 310.839147 -36.729687 
L 310.54937 -36.729687 
L 310.259594 -36.729687 
L 309.969817 -36.729687 
L 309.68004 -36.729687 
L 309.390263 -36.729687 
L 309.100487 -36.729687 
L 308.81071 -36.729687 
L 308.520933 -36.729687 
L 308.231157 -36.729687 
L 307.94138 -36.729687 
L 307.651603 -36.729687 
L 307.361827 -36.729687 
L 307.07205 -36.729687 
L 306.782273 -36.729687 
L 306.492497 -36.729687 
L 306.20272 -36.729687 
L 305.912943 -36.729687 
L 305.623167 -36.729687 
L 305.33339 -36.729687 
L 305.043613 -36.729687 
L 304.753837 -36.729687 
L 304.46406 -36.729687 
L 304.174283 -36.729687 
L 303.884506 -36.729687 
L 303.59473 -36.729687 
L 303.304953 -36.729687 
L 303.015176 -36.729687 
L 302.7254 -36.729687 
L 302.435623 -36.729687 
L 302.145846 -36.729687 
L 301.85607 -36.729687 
L 301.566293 -36.729687 
L 301.276516 -36.729687 
L 300.98674 -36.729687 
L 300.696963 -36.729687 
L 300.407186 -36.729687 
L 300.11741 -36.729687 
L 299.827633 -36.729687 
L 299.537856 -36.729687 
L 299.24808 -36.729687 
L 298.958303 -36.729687 
L 298.668526 -36.729687 
L 298.378749 -36.729687 
L 298.088973 -36.729687 
L 297.799196 -36.729687 
L 297.509419 -36.729687 
L 297.219643 -36.729687 
L 296.929866 -36.729687 
L 296.640089 -36.729687 
L 296.350313 -36.729687 
L 296.060536 -36.729687 
L 295.770759 -36.729687 
L 295.480983 -36.729687 
L 295.191206 -36.729687 
L 294.901429 -36.729687 
L 294.611653 -36.729687 
L 294.321876 -36.729687 
L 294.032099 -36.729687 
L 293.742323 -36.729687 
L 293.452546 -36.729687 
L 293.162769 -36.729687 
L 292.872992 -36.729687 
L 292.583216 -36.729687 
L 292.293439 -36.729687 
L 292.003662 -36.729687 
L 291.713886 -36.729687 
L 291.424109 -36.729687 
L 291.134332 -36.729687 
L 290.844556 -36.729687 
L 290.554779 -36.729687 
L 290.265002 -36.729687 
L 289.975226 -36.729687 
L 289.685449 -36.729687 
L 289.395672 -36.729687 
L 289.105896 -36.729687 
L 288.816119 -36.729687 
L 288.526342 -36.729687 
L 288.236565 -36.729687 
L 287.946789 -36.729687 
L 287.657012 -36.729687 
L 287.367235 -36.729687 
L 287.077459 -36.729687 
L 286.787682 -36.729687 
L 286.497905 -36.729687 
L 286.208129 -36.729687 
L 285.918352 -36.729687 
L 285.628575 -36.729687 
L 285.338799 -36.729687 
L 285.049022 -36.729687 
L 284.759245 -36.729687 
L 284.469469 -36.729687 
L 284.179692 -36.729687 
L 283.889915 -36.729687 
L 283.600139 -36.729687 
L 283.310362 -36.729687 
L 283.020585 -36.729687 
L 282.730808 -36.729687 
L 282.441032 -36.729687 
L 282.151255 -36.729687 
L 281.861478 -36.729687 
L 281.571702 -36.729687 
L 281.281925 -36.729687 
L 280.992148 -36.729687 
L 280.702372 -36.729687 
L 280.412595 -36.729687 
L 280.122818 -36.729687 
L 279.833042 -36.729687 
L 279.543265 -36.729687 
L 279.253488 -36.729687 
L 278.963712 -36.729687 
L 278.673935 -36.729687 
L 278.384158 -36.729687 
L 278.094382 -36.729687 
L 277.804605 -36.729687 
L 277.514828 -36.729687 
L 277.225051 -36.729687 
L 276.935275 -36.729687 
L 276.645498 -36.729687 
L 276.355721 -36.729687 
L 276.065945 -36.729687 
L 275.776168 -36.729687 
L 275.486391 -36.729687 
L 275.196615 -36.729687 
L 274.906838 -36.729687 
L 274.617061 -36.729687 
L 274.327285 -36.729687 
L 274.037508 -36.729687 
L 273.747731 -36.729687 
L 273.457955 -36.729687 
L 273.168178 -36.729687 
L 272.878401 -36.729687 
L 272.588625 -36.729687 
L 272.298848 -36.729687 
L 272.009071 -36.729687 
L 271.719294 -36.729687 
L 271.429518 -36.729687 
L 271.139741 -36.729687 
L 270.849964 -36.729687 
L 270.560188 -36.729687 
L 270.270411 -36.729687 
L 269.980634 -36.729687 
L 269.690858 -36.729687 
L 269.401081 -36.729687 
L 269.111304 -36.729687 
L 268.821528 -36.729687 
L 268.531751 -36.729687 
L 268.241974 -36.729687 
L 267.952198 -36.729687 
L 267.662421 -36.729687 
z
" style="stroke: #4c72b0; stroke-opacity: 0.2"/>
    </defs>
    <g>
     <use xlink:href="#mb4d5520f95" x="0" y="165.897687" style="fill: #4c72b0; fill-opacity: 0.2; stroke: #4c72b0; stroke-opacity: 0.2"/>
    </g>
   </g>
   <g id="FillBetweenPolyCollection_2"/>
   <g id="FillBetweenPolyCollection_3">
    <defs>
     <path id="m4f6ca41bd2" d="M 267.662421 -36.734724 
L 267.662421 -36.734724 
L 267.952198 -36.73523 
L 268.241974 -36.735781 
L 268.531751 -36.736379 
L 268.821528 -36.73703 
L 269.111304 -36.737736 
L 269.401081 -36.738502 
L 269.690858 -36.73933 
L 269.980634 -36.740227 
L 270.270411 -36.741196 
L 270.560188 -36.742242 
L 270.849964 -36.74337 
L 271.139741 -36.744585 
L 271.429518 -36.745893 
L 271.719294 -36.747298 
L 272.009071 -36.748807 
L 272.298848 -36.750425 
L 272.588625 -36.75216 
L 272.878401 -36.754016 
L 273.168178 -36.756001 
L 273.457955 -36.758121 
L 273.747731 -36.760382 
L 274.037508 -36.762793 
L 274.327285 -36.765359 
L 274.617061 -36.768089 
L 274.906838 -36.770989 
L 275.196615 -36.774067 
L 275.486391 -36.77733 
L 275.776168 -36.780786 
L 276.065945 -36.784442 
L 276.355721 -36.788306 
L 276.645498 -36.792385 
L 276.935275 -36.796687 
L 277.225051 -36.801219 
L 277.514828 -36.805989 
L 277.804605 -36.811004 
L 278.094382 -36.81627 
L 278.384158 -36.821796 
L 278.673935 -36.827586 
L 278.963712 -36.833649 
L 279.253488 -36.83999 
L 279.543265 -36.846615 
L 279.833042 -36.85353 
L 280.122818 -36.86074 
L 280.412595 -36.86825 
L 280.702372 -36.876064 
L 280.992148 -36.884187 
L 281.281925 -36.892622 
L 281.571702 -36.901373 
L 281.861478 -36.910442 
L 282.151255 -36.919831 
L 282.441032 -36.929543 
L 282.730808 -36.939578 
L 283.020585 -36.949937 
L 283.310362 -36.960621 
L 283.600139 -36.971627 
L 283.889915 -36.982957 
L 284.179692 -36.994607 
L 284.469469 -37.006576 
L 284.759245 -37.018862 
L 285.049022 -37.031459 
L 285.338799 -37.044366 
L 285.628575 -37.057576 
L 285.918352 -37.071086 
L 286.208129 -37.084889 
L 286.497905 -37.09898 
L 286.787682 -37.113353 
L 287.077459 -37.127999 
L 287.367235 -37.142913 
L 287.657012 -37.158085 
L 287.946789 -37.173508 
L 288.236565 -37.189174 
L 288.526342 -37.205073 
L 288.816119 -37.221197 
L 289.105896 -37.237535 
L 289.395672 -37.254079 
L 289.685449 -37.270819 
L 289.975226 -37.287745 
L 290.265002 -37.304847 
L 290.554779 -37.322114 
L 290.844556 -37.339538 
L 291.134332 -37.357107 
L 291.424109 -37.374812 
L 291.713886 -37.392642 
L 292.003662 -37.410589 
L 292.293439 -37.428641 
L 292.583216 -37.44679 
L 292.872992 -37.465026 
L 293.162769 -37.48334 
L 293.452546 -37.501723 
L 293.742323 -37.520165 
L 294.032099 -37.538659 
L 294.321876 -37.557196 
L 294.611653 -37.575768 
L 294.901429 -37.594366 
L 295.191206 -37.612985 
L 295.480983 -37.631615 
L 295.770759 -37.650251 
L 296.060536 -37.668884 
L 296.350313 -37.687509 
L 296.640089 -37.70612 
L 296.929866 -37.724709 
L 297.219643 -37.743271 
L 297.509419 -37.761801 
L 297.799196 -37.780292 
L 298.088973 -37.798738 
L 298.378749 -37.817135 
L 298.668526 -37.835477 
L 298.958303 -37.853758 
L 299.24808 -37.871973 
L 299.537856 -37.890118 
L 299.827633 -37.908186 
L 300.11741 -37.926172 
L 300.407186 -37.944071 
L 300.696963 -37.961877 
L 300.98674 -37.979584 
L 301.276516 -37.997188 
L 301.566293 -38.014682 
L 301.85607 -38.03206 
L 302.145846 -38.049316 
L 302.435623 -38.066444 
L 302.7254 -38.083437 
L 303.015176 -38.100289 
L 303.304953 -38.116993 
L 303.59473 -38.133541 
L 303.884506 -38.149928 
L 304.174283 -38.166146 
L 304.46406 -38.182187 
L 304.753837 -38.198044 
L 305.043613 -38.21371 
L 305.33339 -38.229177 
L 305.623167 -38.244438 
L 305.912943 -38.259485 
L 306.20272 -38.27431 
L 306.492497 -38.288907 
L 306.782273 -38.303268 
L 307.07205 -38.317385 
L 307.361827 -38.331252 
L 307.651603 -38.344862 
L 307.94138 -38.358209 
L 308.231157 -38.371286 
L 308.520933 -38.384088 
L 308.81071 -38.396609 
L 309.100487 -38.408844 
L 309.390263 -38.420789 
L 309.68004 -38.43244 
L 309.969817 -38.443794 
L 310.259594 -38.454848 
L 310.54937 -38.465599 
L 310.839147 -38.476047 
L 311.128924 -38.486191 
L 311.4187 -38.49603 
L 311.708477 -38.505566 
L 311.998254 -38.5148 
L 312.28803 -38.523735 
L 312.577807 -38.532374 
L 312.867584 -38.540721 
L 313.15736 -38.548782 
L 313.447137 -38.556561 
L 313.736914 -38.564065 
L 314.02669 -38.571303 
L 314.316467 -38.578282 
L 314.606244 -38.585013 
L 314.89602 -38.591503 
L 315.185797 -38.597766 
L 315.475574 -38.603812 
L 315.765351 -38.609653 
L 316.055127 -38.615304 
L 316.344904 -38.620777 
L 316.634681 -38.626086 
L 316.924457 -38.631248 
L 317.214234 -38.636278 
L 317.504011 -38.641191 
L 317.793787 -38.646005 
L 318.083564 -38.650736 
L 318.373341 -38.655402 
L 318.663117 -38.66002 
L 318.952894 -38.664609 
L 319.242671 -38.669187 
L 319.532447 -38.673772 
L 319.822224 -38.678383 
L 320.112001 -38.683038 
L 320.401777 -38.687756 
L 320.691554 -38.692555 
L 320.981331 -38.697454 
L 321.271108 -38.70247 
L 321.560884 -38.707623 
L 321.850661 -38.71293 
L 322.140438 -38.718409 
L 322.430214 -38.724076 
L 322.719991 -38.729949 
L 323.009768 -38.736044 
L 323.299544 -38.742378 
L 323.589321 -38.748965 
L 323.879098 -38.755822 
L 324.168874 -38.762962 
L 324.458651 -38.7704 
L 324.748428 -38.77815 
L 325.038204 -38.786224 
L 325.327981 -38.794635 
L 325.617758 -38.803395 
L 325.907534 -38.812514 
L 326.197311 -38.822005 
L 326.487088 -38.831876 
L 326.776865 -38.842138 
L 327.066641 -38.852799 
L 327.356418 -38.863867 
L 327.646195 -38.875352 
L 327.935971 -38.887259 
L 328.225748 -38.899595 
L 328.515525 -38.912368 
L 328.805301 -38.925582 
L 329.095078 -38.939243 
L 329.384855 -38.953355 
L 329.674631 -38.967923 
L 329.964408 -38.982952 
L 330.254185 -38.998444 
L 330.543961 -39.014403 
L 330.833738 -39.030832 
L 331.123515 -39.047733 
L 331.413291 -39.06511 
L 331.703068 -39.082965 
L 331.992845 -39.101299 
L 332.282622 -39.120115 
L 332.572398 -39.139414 
L 332.862175 -39.1592 
L 333.151952 -39.179473 
L 333.441728 -39.200236 
L 333.731505 -39.221492 
L 334.021282 -39.243241 
L 334.311058 -39.265488 
L 334.600835 -39.288234 
L 334.890612 -39.311484 
L 335.180388 -39.33524 
L 335.470165 -39.359506 
L 335.759942 -39.384287 
L 336.049718 -39.409589 
L 336.339495 -39.435416 
L 336.629272 -39.461774 
L 336.919048 -39.488671 
L 337.208825 -39.516114 
L 337.498602 -39.544112 
L 337.788379 -39.572674 
L 338.078155 -39.601809 
L 338.367932 -39.63153 
L 338.657709 -39.661847 
L 338.947485 -39.692775 
L 339.237262 -39.724326 
L 339.527039 -39.756517 
L 339.816815 -39.789362 
L 340.106592 -39.82288 
L 340.396369 -39.857089 
L 340.686145 -39.892008 
L 340.975922 -39.927658 
L 341.265699 -39.964061 
L 341.555475 -40.001239 
L 341.845252 -40.039216 
L 342.135029 -40.078018 
L 342.424805 -40.11767 
L 342.714582 -40.1582 
L 343.004359 -40.199634 
L 343.294136 -40.242003 
L 343.583912 -40.285336 
L 343.873689 -40.329663 
L 344.163466 -40.375016 
L 344.453242 -40.421425 
L 344.743019 -40.468924 
L 345.032796 -40.517545 
L 345.322572 -40.567321 
L 345.612349 -40.618284 
L 345.902126 -40.670469 
L 346.191902 -40.723908 
L 346.481679 -40.778634 
L 346.771456 -40.83468 
L 347.061232 -40.892078 
L 347.351009 -40.950859 
L 347.640786 -41.011055 
L 347.930562 -41.072695 
L 348.220339 -41.135809 
L 348.510116 -41.200424 
L 348.799893 -41.266567 
L 349.089669 -41.334263 
L 349.379446 -41.403536 
L 349.669223 -41.474408 
L 349.958999 -41.546898 
L 350.248776 -41.621025 
L 350.538553 -41.696806 
L 350.828329 -41.774255 
L 351.118106 -41.853382 
L 351.407883 -41.934199 
L 351.697659 -42.016712 
L 351.987436 -42.100925 
L 352.277213 -42.186842 
L 352.566989 -42.274461 
L 352.856766 -42.363781 
L 353.146543 -42.454795 
L 353.436319 -42.547496 
L 353.726096 -42.641872 
L 354.015873 -42.737912 
L 354.30565 -42.835599 
L 354.595426 -42.934915 
L 354.885203 -43.035839 
L 355.17498 -43.138349 
L 355.464756 -43.242419 
L 355.754533 -43.348023 
L 356.04431 -43.45513 
L 356.334086 -43.56371 
L 356.623863 -43.673729 
L 356.91364 -43.785152 
L 357.203416 -43.897945 
L 357.493193 -44.012067 
L 357.78297 -44.127482 
L 358.072746 -44.244148 
L 358.362523 -44.362026 
L 358.6523 -44.481073 
L 358.942076 -44.601247 
L 359.231853 -44.722507 
L 359.52163 -44.844809 
L 359.811407 -44.968111 
L 360.101183 -45.092371 
L 360.39096 -45.217546 
L 360.680737 -45.343594 
L 360.970513 -45.470474 
L 361.26029 -45.598147 
L 361.550067 -45.726572 
L 361.839843 -45.855711 
L 362.12962 -45.985527 
L 362.419397 -46.115983 
L 362.709173 -46.247045 
L 362.99895 -46.378679 
L 363.288727 -46.510854 
L 363.578503 -46.643538 
L 363.86828 -46.776704 
L 364.158057 -46.910324 
L 364.447833 -47.044372 
L 364.73761 -47.178825 
L 365.027387 -47.313659 
L 365.317164 -47.448854 
L 365.60694 -47.584392 
L 365.896717 -47.720253 
L 366.186494 -47.856422 
L 366.47627 -47.992884 
L 366.766047 -48.129626 
L 367.055824 -48.266634 
L 367.3456 -48.403899 
L 367.635377 -48.54141 
L 367.925154 -48.679158 
L 368.21493 -48.817135 
L 368.504707 -48.955334 
L 368.794484 -49.093747 
L 369.08426 -49.23237 
L 369.374037 -49.371197 
L 369.663814 -49.510222 
L 369.953591 -49.649442 
L 370.243367 -49.788851 
L 370.533144 -49.928446 
L 370.822921 -50.068223 
L 371.112697 -50.208178 
L 371.402474 -50.348306 
L 371.692251 -50.488606 
L 371.982027 -50.629071 
L 372.271804 -50.7697 
L 372.561581 -50.910488 
L 372.851357 -51.051431 
L 373.141134 -51.192526 
L 373.430911 -51.333769 
L 373.720687 -51.475158 
L 374.010464 -51.616688 
L 374.300241 -51.758356 
L 374.590017 -51.900162 
L 374.879794 -52.042101 
L 375.169571 -52.184173 
L 375.459348 -52.326378 
L 375.749124 -52.468715 
L 376.038901 -52.611185 
L 376.328678 -52.75379 
L 376.618454 -52.896534 
L 376.908231 -53.039422 
L 377.198008 -53.182459 
L 377.487784 -53.325654 
L 377.777561 -53.469016 
L 378.067338 -53.612557 
L 378.357114 -53.756291 
L 378.646891 -53.900233 
L 378.936668 -54.044401 
L 379.226444 -54.188817 
L 379.516221 -54.333502 
L 379.805998 -54.478483 
L 380.095774 -54.623788 
L 380.385551 -54.769449 
L 380.675328 -54.915497 
L 380.965105 -55.061971 
L 381.254881 -55.20891 
L 381.544658 -55.356355 
L 381.834435 -55.504352 
L 382.124211 -55.652948 
L 382.413988 -55.802193 
L 382.703765 -55.95214 
L 382.993541 -56.102845 
L 383.283318 -56.254364 
L 383.573095 -56.406759 
L 383.862871 -56.56009 
L 384.152648 -56.714422 
L 384.442425 -56.869819 
L 384.732201 -57.02635 
L 385.021978 -57.184081 
L 385.311755 -57.343083 
L 385.601531 -57.503425 
L 385.891308 -57.665178 
L 386.181085 -57.828414 
L 386.470862 -57.993202 
L 386.760638 -58.159614 
L 387.050415 -58.32772 
L 387.340192 -58.49759 
L 387.629968 -58.669292 
L 387.919745 -58.842892 
L 388.209522 -59.018457 
L 388.499298 -59.196051 
L 388.789075 -59.375735 
L 389.078852 -59.557568 
L 389.368628 -59.741607 
L 389.658405 -59.927907 
L 389.948182 -60.116517 
L 390.237958 -60.307488 
L 390.527735 -60.500863 
L 390.817512 -60.696683 
L 391.107288 -60.894987 
L 391.397065 -61.09581 
L 391.686842 -61.299181 
L 391.976619 -61.505129 
L 392.266395 -61.713676 
L 392.556172 -61.924843 
L 392.845949 -62.138647 
L 393.135725 -62.355099 
L 393.425502 -62.57421 
L 393.715279 -62.795986 
L 394.005055 -63.02043 
L 394.294832 -63.247543 
L 394.584609 -63.477322 
L 394.874385 -63.709764 
L 395.164162 -63.944862 
L 395.453939 -64.182607 
L 395.743715 -64.422989 
L 396.033492 -64.665998 
L 396.323269 -64.911622 
L 396.613045 -65.159849 
L 396.902822 -65.410666 
L 397.192599 -65.664063 
L 397.482376 -65.920028 
L 397.772152 -66.178552 
L 398.061929 -66.439626 
L 398.351706 -66.703246 
L 398.641482 -66.969407 
L 398.931259 -67.23811 
L 399.221036 -67.509357 
L 399.510812 -67.783155 
L 399.800589 -68.059516 
L 400.090366 -68.338454 
L 400.380142 -68.619989 
L 400.669919 -68.904149 
L 400.959696 -69.190962 
L 401.249472 -69.480468 
L 401.539249 -69.772707 
L 401.829026 -70.067731 
L 402.118802 -70.365595 
L 402.408579 -70.666361 
L 402.698356 -70.9701 
L 402.988133 -71.276887 
L 403.277909 -71.586806 
L 403.567686 -71.899948 
L 403.857463 -72.21641 
L 404.147239 -72.536297 
L 404.437016 -72.85972 
L 404.726793 -73.186797 
L 405.016569 -73.517653 
L 405.306346 -73.852419 
L 405.596123 -74.191232 
L 405.885899 -74.534235 
L 406.175676 -74.881576 
L 406.465453 -75.233409 
L 406.755229 -75.589891 
L 407.045006 -75.951186 
L 407.334783 -76.317459 
L 407.334783 -76.317459 
L 407.334783 -36.729687 
L 407.045006 -36.729687 
L 406.755229 -36.729687 
L 406.465453 -36.729687 
L 406.175676 -36.729687 
L 405.885899 -36.729687 
L 405.596123 -36.729687 
L 405.306346 -36.729687 
L 405.016569 -36.729687 
L 404.726793 -36.729687 
L 404.437016 -36.729687 
L 404.147239 -36.729687 
L 403.857463 -36.729687 
L 403.567686 -36.729687 
L 403.277909 -36.729687 
L 402.988133 -36.729687 
L 402.698356 -36.729687 
L 402.408579 -36.729687 
L 402.118802 -36.729687 
L 401.829026 -36.729687 
L 401.539249 -36.729687 
L 401.249472 -36.729687 
L 400.959696 -36.729687 
L 400.669919 -36.729687 
L 400.380142 -36.729687 
L 400.090366 -36.729687 
L 399.800589 -36.729687 
L 399.510812 -36.729687 
L 399.221036 -36.729687 
L 398.931259 -36.729687 
L 398.641482 -36.729687 
L 398.351706 -36.729687 
L 398.061929 -36.729687 
L 397.772152 -36.729687 
L 397.482376 -36.729687 
L 397.192599 -36.729687 
L 396.902822 -36.729687 
L 396.613045 -36.729687 
L 396.323269 -36.729687 
L 396.033492 -36.729687 
L 395.743715 -36.729687 
L 395.453939 -36.729687 
L 395.164162 -36.729687 
L 394.874385 -36.729687 
L 394.584609 -36.729687 
L 394.294832 -36.729687 
L 394.005055 -36.729687 
L 393.715279 -36.729687 
L 393.425502 -36.729687 
L 393.135725 -36.729687 
L 392.845949 -36.729687 
L 392.556172 -36.729687 
L 392.266395 -36.729687 
L 391.976619 -36.729687 
L 391.686842 -36.729687 
L 391.397065 -36.729687 
L 391.107288 -36.729687 
L 390.817512 -36.729687 
L 390.527735 -36.729687 
L 390.237958 -36.729687 
L 389.948182 -36.729687 
L 389.658405 -36.729687 
L 389.368628 -36.729687 
L 389.078852 -36.729687 
L 388.789075 -36.729687 
L 388.499298 -36.729687 
L 388.209522 -36.729687 
L 387.919745 -36.729687 
L 387.629968 -36.729687 
L 387.340192 -36.729687 
L 387.050415 -36.729687 
L 386.760638 -36.729687 
L 386.470862 -36.729687 
L 386.181085 -36.729687 
L 385.891308 -36.729687 
L 385.601531 -36.729687 
L 385.311755 -36.729687 
L 385.021978 -36.729687 
L 384.732201 -36.729687 
L 384.442425 -36.729687 
L 384.152648 -36.729687 
L 383.862871 -36.729687 
L 383.573095 -36.729687 
L 383.283318 -36.729687 
L 382.993541 -36.729687 
L 382.703765 -36.729687 
L 382.413988 -36.729687 
L 382.124211 -36.729687 
L 381.834435 -36.729687 
L 381.544658 -36.729687 
L 381.254881 -36.729687 
L 380.965105 -36.729687 
L 380.675328 -36.729687 
L 380.385551 -36.729687 
L 380.095774 -36.729687 
L 379.805998 -36.729687 
L 379.516221 -36.729687 
L 379.226444 -36.729687 
L 378.936668 -36.729687 
L 378.646891 -36.729687 
L 378.357114 -36.729687 
L 378.067338 -36.729687 
L 377.777561 -36.729687 
L 377.487784 -36.729687 
L 377.198008 -36.729687 
L 376.908231 -36.729687 
L 376.618454 -36.729687 
L 376.328678 -36.729687 
L 376.038901 -36.729687 
L 375.749124 -36.729687 
L 375.459348 -36.729687 
L 375.169571 -36.729687 
L 374.879794 -36.729687 
L 374.590017 -36.729687 
L 374.300241 -36.729687 
L 374.010464 -36.729687 
L 373.720687 -36.729687 
L 373.430911 -36.729687 
L 373.141134 -36.729687 
L 372.851357 -36.729687 
L 372.561581 -36.729687 
L 372.271804 -36.729687 
L 371.982027 -36.729687 
L 371.692251 -36.729687 
L 371.402474 -36.729687 
L 371.112697 -36.729687 
L 370.822921 -36.729687 
L 370.533144 -36.729687 
L 370.243367 -36.729687 
L 369.953591 -36.729687 
L 369.663814 -36.729687 
L 369.374037 -36.729687 
L 369.08426 -36.729687 
L 368.794484 -36.729687 
L 368.504707 -36.729687 
L 368.21493 -36.729687 
L 367.925154 -36.729687 
L 367.635377 -36.729687 
L 367.3456 -36.729687 
L 367.055824 -36.729687 
L 366.766047 -36.729687 
L 366.47627 -36.729687 
L 366.186494 -36.729687 
L 365.896717 -36.729687 
L 365.60694 -36.729687 
L 365.317164 -36.729687 
L 365.027387 -36.729687 
L 364.73761 -36.729687 
L 364.447833 -36.729687 
L 364.158057 -36.729687 
L 363.86828 -36.729687 
L 363.578503 -36.729687 
L 363.288727 -36.729687 
L 362.99895 -36.729687 
L 362.709173 -36.729687 
L 362.419397 -36.729687 
L 362.12962 -36.729687 
L 361.839843 -36.729687 
L 361.550067 -36.729687 
L 361.26029 -36.729687 
L 360.970513 -36.729687 
L 360.680737 -36.729687 
L 360.39096 -36.729687 
L 360.101183 -36.729687 
L 359.811407 -36.729687 
L 359.52163 -36.729687 
L 359.231853 -36.729687 
L 358.942076 -36.729687 
L 358.6523 -36.729687 
L 358.362523 -36.729687 
L 358.072746 -36.729687 
L 357.78297 -36.729687 
L 357.493193 -36.729687 
L 357.203416 -36.729687 
L 356.91364 -36.729687 
L 356.623863 -36.729687 
L 356.334086 -36.729687 
L 356.04431 -36.729687 
L 355.754533 -36.729687 
L 355.464756 -36.729687 
L 355.17498 -36.729687 
L 354.885203 -36.729687 
L 354.595426 -36.729687 
L 354.30565 -36.729687 
L 354.015873 -36.729687 
L 353.726096 -36.729687 
L 353.436319 -36.729687 
L 353.146543 -36.729687 
L 352.856766 -36.729687 
L 352.566989 -36.729687 
L 352.277213 -36.729687 
L 351.987436 -36.729687 
L 351.697659 -36.729687 
L 351.407883 -36.729687 
L 351.118106 -36.729687 
L 350.828329 -36.729687 
L 350.538553 -36.729687 
L 350.248776 -36.729687 
L 349.958999 -36.729687 
L 349.669223 -36.729687 
L 349.379446 -36.729687 
L 349.089669 -36.729687 
L 348.799893 -36.729687 
L 348.510116 -36.729687 
L 348.220339 -36.729687 
L 347.930562 -36.729687 
L 347.640786 -36.729687 
L 347.351009 -36.729687 
L 347.061232 -36.729687 
L 346.771456 -36.729687 
L 346.481679 -36.729687 
L 346.191902 -36.729687 
L 345.902126 -36.729687 
L 345.612349 -36.729687 
L 345.322572 -36.729687 
L 345.032796 -36.729687 
L 344.743019 -36.729687 
L 344.453242 -36.729687 
L 344.163466 -36.729687 
L 343.873689 -36.729687 
L 343.583912 -36.729687 
L 343.294136 -36.729687 
L 343.004359 -36.729687 
L 342.714582 -36.729687 
L 342.424805 -36.729687 
L 342.135029 -36.729687 
L 341.845252 -36.729687 
L 341.555475 -36.729687 
L 341.265699 -36.729687 
L 340.975922 -36.729687 
L 340.686145 -36.729687 
L 340.396369 -36.729687 
L 340.106592 -36.729687 
L 339.816815 -36.729687 
L 339.527039 -36.729687 
L 339.237262 -36.729687 
L 338.947485 -36.729687 
L 338.657709 -36.729687 
L 338.367932 -36.729687 
L 338.078155 -36.729687 
L 337.788379 -36.729687 
L 337.498602 -36.729687 
L 337.208825 -36.729687 
L 336.919048 -36.729687 
L 336.629272 -36.729687 
L 336.339495 -36.729687 
L 336.049718 -36.729687 
L 335.759942 -36.729687 
L 335.470165 -36.729687 
L 335.180388 -36.729687 
L 334.890612 -36.729687 
L 334.600835 -36.729687 
L 334.311058 -36.729687 
L 334.021282 -36.729687 
L 333.731505 -36.729687 
L 333.441728 -36.729687 
L 333.151952 -36.729687 
L 332.862175 -36.729687 
L 332.572398 -36.729687 
L 332.282622 -36.729687 
L 331.992845 -36.729687 
L 331.703068 -36.729687 
L 331.413291 -36.729687 
L 331.123515 -36.729687 
L 330.833738 -36.729687 
L 330.543961 -36.729687 
L 330.254185 -36.729687 
L 329.964408 -36.729687 
L 329.674631 -36.729687 
L 329.384855 -36.729687 
L 329.095078 -36.729687 
L 328.805301 -36.729687 
L 328.515525 -36.729687 
L 328.225748 -36.729687 
L 327.935971 -36.729687 
L 327.646195 -36.729687 
L 327.356418 -36.729687 
L 327.066641 -36.729687 
L 326.776865 -36.729687 
L 326.487088 -36.729687 
L 326.197311 -36.729687 
L 325.907534 -36.729687 
L 325.617758 -36.729687 
L 325.327981 -36.729687 
L 325.038204 -36.729687 
L 324.748428 -36.729687 
L 324.458651 -36.729687 
L 324.168874 -36.729687 
L 323.879098 -36.729687 
L 323.589321 -36.729687 
L 323.299544 -36.729687 
L 323.009768 -36.729687 
L 322.719991 -36.729687 
L 322.430214 -36.729687 
L 322.140438 -36.729687 
L 321.850661 -36.729687 
L 321.560884 -36.729687 
L 321.271108 -36.729687 
L 320.981331 -36.729687 
L 320.691554 -36.729687 
L 320.401777 -36.729687 
L 320.112001 -36.729687 
L 319.822224 -36.729687 
L 319.532447 -36.729687 
L 319.242671 -36.729687 
L 318.952894 -36.729687 
L 318.663117 -36.729687 
L 318.373341 -36.729687 
L 318.083564 -36.729687 
L 317.793787 -36.729687 
L 317.504011 -36.729687 
L 317.214234 -36.729687 
L 316.924457 -36.729687 
L 316.634681 -36.729687 
L 316.344904 -36.729687 
L 316.055127 -36.729687 
L 315.765351 -36.729687 
L 315.475574 -36.729687 
L 315.185797 -36.729687 
L 314.89602 -36.729687 
L 314.606244 -36.729687 
L 314.316467 -36.729687 
L 314.02669 -36.729687 
L 313.736914 -36.729687 
L 313.447137 -36.729687 
L 313.15736 -36.729687 
L 312.867584 -36.729687 
L 312.577807 -36.729687 
L 312.28803 -36.729687 
L 311.998254 -36.729687 
L 311.708477 -36.729687 
L 311.4187 -36.729687 
L 311.128924 -36.729687 
L 310.839147 -36.729687 
L 310.54937 -36.729687 
L 310.259594 -36.729687 
L 309.969817 -36.729687 
L 309.68004 -36.729687 
L 309.390263 -36.729687 
L 309.100487 -36.729687 
L 308.81071 -36.729687 
L 308.520933 -36.729687 
L 308.231157 -36.729687 
L 307.94138 -36.729687 
L 307.651603 -36.729687 
L 307.361827 -36.729687 
L 307.07205 -36.729687 
L 306.782273 -36.729687 
L 306.492497 -36.729687 
L 306.20272 -36.729687 
L 305.912943 -36.729687 
L 305.623167 -36.729687 
L 305.33339 -36.729687 
L 305.043613 -36.729687 
L 304.753837 -36.729687 
L 304.46406 -36.729687 
L 304.174283 -36.729687 
L 303.884506 -36.729687 
L 303.59473 -36.729687 
L 303.304953 -36.729687 
L 303.015176 -36.729687 
L 302.7254 -36.729687 
L 302.435623 -36.729687 
L 302.145846 -36.729687 
L 301.85607 -36.729687 
L 301.566293 -36.729687 
L 301.276516 -36.729687 
L 300.98674 -36.729687 
L 300.696963 -36.729687 
L 300.407186 -36.729687 
L 300.11741 -36.729687 
L 299.827633 -36.729687 
L 299.537856 -36.729687 
L 299.24808 -36.729687 
L 298.958303 -36.729687 
L 298.668526 -36.729687 
L 298.378749 -36.729687 
L 298.088973 -36.729687 
L 297.799196 -36.729687 
L 297.509419 -36.729687 
L 297.219643 -36.729687 
L 296.929866 -36.729687 
L 296.640089 -36.729687 
L 296.350313 -36.729687 
L 296.060536 -36.729687 
L 295.770759 -36.729687 
L 295.480983 -36.729687 
L 295.191206 -36.729687 
L 294.901429 -36.729687 
L 294.611653 -36.729687 
L 294.321876 -36.729687 
L 294.032099 -36.729687 
L 293.742323 -36.729687 
L 293.452546 -36.729687 
L 293.162769 -36.729687 
L 292.872992 -36.729687 
L 292.583216 -36.729687 
L 292.293439 -36.729687 
L 292.003662 -36.729687 
L 291.713886 -36.729687 
L 291.424109 -36.729687 
L 291.134332 -36.729687 
L 290.844556 -36.729687 
L 290.554779 -36.729687 
L 290.265002 -36.729687 
L 289.975226 -36.729687 
L 289.685449 -36.729687 
L 289.395672 -36.729687 
L 289.105896 -36.729687 
L 288.816119 -36.729687 
L 288.526342 -36.729687 
L 288.236565 -36.729687 
L 287.946789 -36.729687 
L 287.657012 -36.729687 
L 287.367235 -36.729687 
L 287.077459 -36.729687 
L 286.787682 -36.729687 
L 286.497905 -36.729687 
L 286.208129 -36.729687 
L 285.918352 -36.729687 
L 285.628575 -36.729687 
L 285.338799 -36.729687 
L 285.049022 -36.729687 
L 284.759245 -36.729687 
L 284.469469 -36.729687 
L 284.179692 -36.729687 
L 283.889915 -36.729687 
L 283.600139 -36.729687 
L 283.310362 -36.729687 
L 283.020585 -36.729687 
L 282.730808 -36.729687 
L 282.441032 -36.729687 
L 282.151255 -36.729687 
L 281.861478 -36.729687 
L 281.571702 -36.729687 
L 281.281925 -36.729687 
L 280.992148 -36.729687 
L 280.702372 -36.729687 
L 280.412595 -36.729687 
L 280.122818 -36.729687 
L 279.833042 -36.729687 
L 279.543265 -36.729687 
L 279.253488 -36.729687 
L 278.963712 -36.729687 
L 278.673935 -36.729687 
L 278.384158 -36.729687 
L 278.094382 -36.729687 
L 277.804605 -36.729687 
L 277.514828 -36.729687 
L 277.225051 -36.729687 
L 276.935275 -36.729687 
L 276.645498 -36.729687 
L 276.355721 -36.729687 
L 276.065945 -36.729687 
L 275.776168 -36.729687 
L 275.486391 -36.729687 
L 275.196615 -36.729687 
L 274.906838 -36.729687 
L 274.617061 -36.729687 
L 274.327285 -36.729687 
L 274.037508 -36.729687 
L 273.747731 -36.729687 
L 273.457955 -36.729687 
L 273.168178 -36.729687 
L 272.878401 -36.729687 
L 272.588625 -36.729687 
L 272.298848 -36.729687 
L 272.009071 -36.729687 
L 271.719294 -36.729687 
L 271.429518 -36.729687 
L 271.139741 -36.729687 
L 270.849964 -36.729687 
L 270.560188 -36.729687 
L 270.270411 -36.729687 
L 269.980634 -36.729687 
L 269.690858 -36.729687 
L 269.401081 -36.729687 
L 269.111304 -36.729687 
L 268.821528 -36.729687 
L 268.531751 -36.729687 
L 268.241974 -36.729687 
L 267.952198 -36.729687 
L 267.662421 -36.729687 
z
" style="stroke: #4c72b0; stroke-opacity: 0.3"/>
    </defs>
    <g>
     <use xlink:href="#m4f6ca41bd2" x="0" y="165.897687" style="fill: #4c72b0; fill-opacity: 0.3; stroke: #4c72b0; stroke-opacity: 0.3"/>
    </g>
   </g>
   <g id="line2d_38">
    <path d="M 267.662421 129.162963 
L 280.122818 129.036948 
L 287.946789 128.724179 
L 302.7254 127.81425 
L 311.998254 127.382887 
L 322.140438 127.179279 
L 329.674631 126.929764 
L 336.049718 126.488099 
L 341.555475 125.896449 
L 345.902126 125.227219 
L 349.669223 124.42328 
L 353.146543 123.442893 
L 356.623863 122.223959 
L 360.680737 120.554094 
L 366.47627 117.904803 
L 376.618454 113.001154 
L 384.442425 109.027868 
L 388.209522 106.87923 
L 391.397065 104.801878 
L 394.294832 102.650145 
L 397.192599 100.233625 
L 400.380142 97.277698 
L 403.567686 93.997739 
L 406.175676 91.016112 
L 408.49389 88.061934 
L 410.812103 84.733524 
L 412.84054 81.446313 
L 414.868977 77.761153 
L 417.18719 73.034348 
L 419.505404 67.774321 
L 422.40317 60.567887 
L 427.039597 48.24956 
L 431.096471 37.708277 
L 433.704461 31.537817 
L 436.022675 26.651198 
L 438.051111 22.92003 
L 439.789771 20.163676 
L 441.528432 17.837247 
L 442.977315 16.23845 
L 444.426198 14.956282 
L 445.875082 13.995783 
L 447.034189 13.460621 
L 448.193295 13.13224 
L 449.352402 13.008 
L 450.511509 13.082838 
L 451.670616 13.348989 
L 453.119499 13.934326 
L 454.568382 14.775267 
L 456.307042 16.076133 
L 458.335479 17.916264 
L 460.943469 20.634367 
L 465.29012 25.574149 
L 474.273197 36.139375 
L 477.46074 40.27434 
L 480.068731 44.027093 
L 482.676721 48.202393 
L 485.284711 52.82727 
L 488.182478 58.44303 
L 491.949575 66.262547 
L 500.353098 83.847316 
L 503.830419 90.524998 
L 507.017962 96.164019 
L 509.915729 100.865734 
L 512.813496 105.171577 
L 515.711263 109.106106 
L 518.60903 112.694924 
L 521.506796 115.951065 
L 524.404563 118.86801 
L 527.012553 121.184124 
L 529.620544 123.185214 
L 531.938757 124.686216 
L 534.256971 125.922937 
L 536.575184 126.904383 
L 538.893398 127.651468 
L 541.501388 128.250395 
L 544.399155 128.677776 
L 547.876475 128.959258 
L 552.802678 129.117083 
L 557.149329 129.156074 
L 557.149329 129.156074 
" style="fill: none; stroke: #4c72b0; stroke-width: 1.5; stroke-linecap: round"/>
   </g>
   <g id="line2d_39">
    <path d="M 7.2 129.168 
L 648.9 129.168 
" style="fill: none; stroke: #808080; stroke-width: 0.5; stroke-linecap: round"/>
   </g>
   <g id="text_12">
    <text style="font-size: 10px; font-family: 'Arial', 'DejaVu Sans', 'Liberation Sans', 'Bitstream Vera Sans', sans-serif; text-anchor: middle" x="451.531323" y="127.063312" transform="rotate(-0 451.531323 127.063312)">Sweden (2026)</text>
   </g>
  </g>
 </g>
</svg>
