<?xml version="1.0" encoding="utf-8" standalone="no"?>
<!DOCTYPE svg PUBLIC "-//W3C//DTD SVG 1.1//EN"
  "http://www.w3.org/Graphics/SVG/1.1/DTD/svg11.dtd">
<svg xmlns:xlink="http://www.w3.org/1999/xlink" width="851.4pt" height="154.809687pt" viewBox="0 0 851.4 154.809687" xmlns="http://www.w3.org/2000/svg" version="1.1">
 <metadata>
  <rdf:RDF xmlns:dc="http://purl.org/dc/elements/1.1/" xmlns:cc="http://creativecommons.org/ns#" xmlns:rdf="http://www.w3.org/1999/02/22-rdf-syntax-ns#">
   <cc:Work>
    <dc:type rdf:resource="http://purl.org/dc/dcmitype/StillImage"/>
    <dc:date>2025-12-05T16:06:55.469748</dc:date>
    <dc:format>image/svg+xml</dc:format>
    <dc:creator>
     <cc:Agent>
      <dc:title>Matplotlib v3.10.1, https://matplotlib.org/</dc:title>
     </cc:Agent>
    </dc:creator>
   </cc:Work>
  </rdf:RDF>
 </metadata>
 <defs>
  <style type="text/css">*{stroke-linejoin: round; stroke-linecap: butt}</style>
 </defs>
 <g id="figure_1">
  <g id="patch_1">
   <path d="M 0 154.809687 
L 851.4 154.809687 
L 851.4 0 
L 0 0 
z
" style="fill: #ffffff"/>
  </g>
  <g id="axes_1">
   <g id="patch_2">
    <path d="M 7.2 118.08 
L 844.2 118.08 
L 844.2 7.2 
L 7.2 7.2 
z
" style="fill: #ffffff"/>
   </g>
   <g id="matplotlib.axis_1">
    <g id="xtick_1">
     <g id="line2d_1">
      <defs>
       <path id="md751bffea7" d="M 0 0 
L 0 3.5 
" style="stroke: #262626; stroke-width: 0.8"/>
      </defs>
      <g>
       <use xlink:href="#md751bffea7" x="295.426181" y="118.08" style="fill: #262626; stroke: #262626; stroke-width: 0.8"/>
      </g>
     </g>
     <g id="text_1">
      <text style="font-size: 10px; font-family: 'Arial', 'DejaVu Sans', 'Liberation Sans', 'Bitstream Vera Sans', sans-serif; text-anchor: middle; fill: #262626" x="295.426181" y="132.237812" transform="rotate(-0 295.426181 132.237812)">1</text>
     </g>
    </g>
    <g id="xtick_2">
     <g id="line2d_2">
      <g>
       <use xlink:href="#md751bffea7" x="362.11544" y="118.08" style="fill: #262626; stroke: #262626; stroke-width: 0.8"/>
      </g>
     </g>
     <g id="text_2">
      <text style="font-size: 10px; font-family: 'Arial', 'DejaVu Sans', 'Liberation Sans', 'Bitstream Vera Sans', sans-serif; text-anchor: middle; fill: #262626" x="362.11544" y="132.237812" transform="rotate(-0 362.11544 132.237812)">2</text>
     </g>
    </g>
    <g id="xtick_3">
     <g id="line2d_3">
      <g>
       <use xlink:href="#md751bffea7" x="450.273845" y="118.08" style="fill: #262626; stroke: #262626; stroke-width: 0.8"/>
      </g>
     </g>
     <g id="text_3">
      <text style="font-size: 10px; font-family: 'Arial', 'DejaVu Sans', 'Liberation Sans', 'Bitstream Vera Sans', sans-serif; text-anchor: middle; fill: #262626" x="450.273845" y="132.237812" transform="rotate(-0 450.273845 132.237812)">5</text>
     </g>
    </g>
    <g id="xtick_4">
     <g id="line2d_4">
      <g>
       <use xlink:href="#md751bffea7" x="516.963103" y="118.08" style="fill: #262626; stroke: #262626; stroke-width: 0.8"/>
      </g>
     </g>
     <g id="text_4">
      <text style="font-size: 10px; font-family: 'Arial', 'DejaVu Sans', 'Liberation Sans', 'Bitstream Vera Sans', sans-serif; text-anchor: middle; fill: #262626" x="516.963103" y="132.237812" transform="rotate(-0 516.963103 132.237812)">10</text>
     </g>
    </g>
    <g id="xtick_5">
     <g id="line2d_5">
      <g>
       <use xlink:href="#md751bffea7" x="583.652362" y="118.08" style="fill: #262626; stroke: #262626; stroke-width: 0.8"/>
      </g>
     </g>
     <g id="text_5">
      <text style="font-size: 10px; font-family: 'Arial', 'DejaVu Sans', 'Liberation Sans', 'Bitstream Vera Sans', sans-serif; text-anchor: middle; fill: #262626" x="583.652362" y="132.237812" transform="rotate(-0 583.652362 132.237812)">20</text>
     </g>
    </g>
    <g id="xtick_6">
     <g id="line2d_6">
      <g>
       <use xlink:href="#md751bffea7" x="671.810767" y="118.08" style="fill: #262626; stroke: #262626; stroke-width: 0.8"/>
      </g>
     </g>
     <g id="text_6">
      <text style="font-size: 10px; font-family: 'Arial', 'DejaVu Sans', 'Liberation Sans', 'Bitstream Vera Sans', sans-serif; text-anchor: middle; fill: #262626" x="671.810767" y="132.237812" transform="rotate(-0 671.810767 132.237812)">50</text>
     </g>
    </g>
    <g id="xtick_7">
     <g id="line2d_7">
      <g>
       <use xlink:href="#md751bffea7" x="738.500026" y="118.08" style="fill: #262626; stroke: #262626; stroke-width: 0.8"/>
      </g>
     </g>
     <g id="text_7">
      <text style="font-size: 10px; font-family: 'Arial', 'DejaVu Sans', 'Liberation Sans', 'Bitstream Vera Sans', sans-serif; text-anchor: middle; fill: #262626" x="738.500026" y="132.237812" transform="rotate(-0 738.500026 132.237812)">100</text>
     </g>
    </g>
    <g id="xtick_8">
     <g id="line2d_8">
      <g>
       <use xlink:href="#md751bffea7" x="805.189284" y="118.08" style="fill: #262626; stroke: #262626; stroke-width: 0.8"/>
      </g>
     </g>
     <g id="text_8">
      <text style="font-size: 10px; font-family: 'Arial', 'DejaVu Sans', 'Liberation Sans', 'Bitstream Vera Sans', sans-serif; text-anchor: middle; fill: #262626" x="805.189284" y="132.237812" transform="rotate(-0 805.189284 132.237812)">200</text>
     </g>
    </g>
    <g id="xtick_9">
     <g id="line2d_9">
      <defs>
       <path id="m072d14a56c" d="M 0 0 
L 0 2 
" style="stroke: #262626; stroke-width: 0.6"/>
      </defs>
      <g>
       <use xlink:href="#m072d14a56c" x="7.2" y="118.08" style="fill: #262626; stroke: #262626; stroke-width: 0.6"/>
      </g>
     </g>
    </g>
    <g id="xtick_10">
     <g id="line2d_10">
      <g>
       <use xlink:href="#m072d14a56c" x="24.74157" y="118.08" style="fill: #262626; stroke: #262626; stroke-width: 0.6"/>
      </g>
     </g>
    </g>
    <g id="xtick_11">
     <g id="line2d_11">
      <g>
       <use xlink:href="#m072d14a56c" x="39.572755" y="118.08" style="fill: #262626; stroke: #262626; stroke-width: 0.6"/>
      </g>
     </g>
    </g>
    <g id="xtick_12">
     <g id="line2d_12">
      <g>
       <use xlink:href="#m072d14a56c" x="52.420113" y="118.08" style="fill: #262626; stroke: #262626; stroke-width: 0.6"/>
      </g>
     </g>
    </g>
    <g id="xtick_13">
     <g id="line2d_13">
      <g>
       <use xlink:href="#m072d14a56c" x="63.752285" y="118.08" style="fill: #262626; stroke: #262626; stroke-width: 0.6"/>
      </g>
     </g>
    </g>
    <g id="xtick_14">
     <g id="line2d_14">
      <g>
       <use xlink:href="#m072d14a56c" x="140.578518" y="118.08" style="fill: #262626; stroke: #262626; stroke-width: 0.6"/>
      </g>
     </g>
    </g>
    <g id="xtick_15">
     <g id="line2d_15">
      <g>
       <use xlink:href="#m072d14a56c" x="179.589233" y="118.08" style="fill: #262626; stroke: #262626; stroke-width: 0.6"/>
      </g>
     </g>
    </g>
    <g id="xtick_16">
     <g id="line2d_16">
      <g>
       <use xlink:href="#m072d14a56c" x="207.267776" y="118.08" style="fill: #262626; stroke: #262626; stroke-width: 0.6"/>
      </g>
     </g>
    </g>
    <g id="xtick_17">
     <g id="line2d_17">
      <g>
       <use xlink:href="#m072d14a56c" x="228.736922" y="118.08" style="fill: #262626; stroke: #262626; stroke-width: 0.6"/>
      </g>
     </g>
    </g>
    <g id="xtick_18">
     <g id="line2d_18">
      <g>
       <use xlink:href="#m072d14a56c" x="246.278492" y="118.08" style="fill: #262626; stroke: #262626; stroke-width: 0.6"/>
      </g>
     </g>
    </g>
    <g id="xtick_19">
     <g id="line2d_19">
      <g>
       <use xlink:href="#m072d14a56c" x="261.109678" y="118.08" style="fill: #262626; stroke: #262626; stroke-width: 0.6"/>
      </g>
     </g>
    </g>
    <g id="xtick_20">
     <g id="line2d_20">
      <g>
       <use xlink:href="#m072d14a56c" x="273.957035" y="118.08" style="fill: #262626; stroke: #262626; stroke-width: 0.6"/>
      </g>
     </g>
    </g>
    <g id="xtick_21">
     <g id="line2d_21">
      <g>
       <use xlink:href="#m072d14a56c" x="285.289207" y="118.08" style="fill: #262626; stroke: #262626; stroke-width: 0.6"/>
      </g>
     </g>
    </g>
    <g id="xtick_22">
     <g id="line2d_22">
      <g>
       <use xlink:href="#m072d14a56c" x="401.126155" y="118.08" style="fill: #262626; stroke: #262626; stroke-width: 0.6"/>
      </g>
     </g>
    </g>
    <g id="xtick_23">
     <g id="line2d_23">
      <g>
       <use xlink:href="#m072d14a56c" x="428.804699" y="118.08" style="fill: #262626; stroke: #262626; stroke-width: 0.6"/>
      </g>
     </g>
    </g>
    <g id="xtick_24">
     <g id="line2d_24">
      <g>
       <use xlink:href="#m072d14a56c" x="467.815414" y="118.08" style="fill: #262626; stroke: #262626; stroke-width: 0.6"/>
      </g>
     </g>
    </g>
    <g id="xtick_25">
     <g id="line2d_25">
      <g>
       <use xlink:href="#m072d14a56c" x="482.6466" y="118.08" style="fill: #262626; stroke: #262626; stroke-width: 0.6"/>
      </g>
     </g>
    </g>
    <g id="xtick_26">
     <g id="line2d_26">
      <g>
       <use xlink:href="#m072d14a56c" x="495.493957" y="118.08" style="fill: #262626; stroke: #262626; stroke-width: 0.6"/>
      </g>
     </g>
    </g>
    <g id="xtick_27">
     <g id="line2d_27">
      <g>
       <use xlink:href="#m072d14a56c" x="506.82613" y="118.08" style="fill: #262626; stroke: #262626; stroke-width: 0.6"/>
      </g>
     </g>
    </g>
    <g id="xtick_28">
     <g id="line2d_28">
      <g>
       <use xlink:href="#m072d14a56c" x="622.663078" y="118.08" style="fill: #262626; stroke: #262626; stroke-width: 0.6"/>
      </g>
     </g>
    </g>
    <g id="xtick_29">
     <g id="line2d_29">
      <g>
       <use xlink:href="#m072d14a56c" x="650.341621" y="118.08" style="fill: #262626; stroke: #262626; stroke-width: 0.6"/>
      </g>
     </g>
    </g>
    <g id="xtick_30">
     <g id="line2d_30">
      <g>
       <use xlink:href="#m072d14a56c" x="689.352336" y="118.08" style="fill: #262626; stroke: #262626; stroke-width: 0.6"/>
      </g>
     </g>
    </g>
    <g id="xtick_31">
     <g id="line2d_31">
      <g>
       <use xlink:href="#m072d14a56c" x="704.183522" y="118.08" style="fill: #262626; stroke: #262626; stroke-width: 0.6"/>
      </g>
     </g>
    </g>
    <g id="xtick_32">
     <g id="line2d_32">
      <g>
       <use xlink:href="#m072d14a56c" x="717.03088" y="118.08" style="fill: #262626; stroke: #262626; stroke-width: 0.6"/>
      </g>
     </g>
    </g>
    <g id="xtick_33">
     <g id="line2d_33">
      <g>
       <use xlink:href="#m072d14a56c" x="728.363052" y="118.08" style="fill: #262626; stroke: #262626; stroke-width: 0.6"/>
      </g>
     </g>
    </g>
    <g id="xtick_34">
     <g id="line2d_34">
      <g>
       <use xlink:href="#m072d14a56c" x="844.2" y="118.08" style="fill: #262626; stroke: #262626; stroke-width: 0.6"/>
      </g>
     </g>
    </g>
    <g id="text_9">
     <text style="font-size: 10px; font-family: 'Arial', 'DejaVu Sans', 'Liberation Sans', 'Bitstream Vera Sans', sans-serif; text-anchor: middle; fill: #262626" x="425.7" y="145.505" transform="rotate(-0 425.7 145.505)">Income or consumption (day)</text>
    </g>
   </g>
   <g id="matplotlib.axis_2"/>
   <g id="FillBetweenPolyCollection_1">
    <defs>
     <path id="mde0e3b3a6a" d="M -10.135296 -36.729688 
L -10.135296 -36.744419 
L -9.512662 -36.745691 
L -8.890028 -36.747062 
L -8.267394 -36.74854 
L -7.644759 -36.750131 
L -7.022125 -36.751843 
L -6.399491 -36.753685 
L -5.776857 -36.755665 
L -5.154223 -36.757792 
L -4.531588 -36.760074 
L -3.908954 -36.762524 
L -3.28632 -36.765149 
L -2.663686 -36.767963 
L -2.041052 -36.770976 
L -1.418418 -36.7742 
L -0.795783 -36.777648 
L -0.173149 -36.781333 
L 0.449485 -36.785269 
L 1.072119 -36.789471 
L 1.694753 -36.793953 
L 2.317388 -36.798731 
L 2.940022 -36.803823 
L 3.562656 -36.809244 
L 4.18529 -36.815013 
L 4.807924 -36.821148 
L 5.430559 -36.827668 
L 6.053193 -36.834593 
L 6.675827 -36.841945 
L 7.298461 -36.849743 
L 7.921095 -36.85801 
L 8.543729 -36.86677 
L 9.166364 -36.876045 
L 9.788998 -36.88586 
L 10.411632 -36.89624 
L 11.034266 -36.90721 
L 11.6569 -36.918797 
L 12.279535 -36.931029 
L 12.902169 -36.943933 
L 13.524803 -36.957538 
L 14.147437 -36.971873 
L 14.770071 -36.986968 
L 15.392705 -37.002854 
L 16.01534 -37.019562 
L 16.637974 -37.037123 
L 17.260608 -37.055571 
L 17.883242 -37.074938 
L 18.505876 -37.095258 
L 19.128511 -37.116565 
L 19.751145 -37.138894 
L 20.373779 -37.162278 
L 20.996413 -37.186754 
L 21.619047 -37.212357 
L 22.241682 -37.239123 
L 22.864316 -37.267089 
L 23.48695 -37.29629 
L 24.109584 -37.326764 
L 24.732218 -37.358546 
L 25.354852 -37.391673 
L 25.977487 -37.426183 
L 26.600121 -37.462112 
L 27.222755 -37.499496 
L 27.845389 -37.538371 
L 28.468023 -37.578773 
L 29.090658 -37.620739 
L 29.713292 -37.664303 
L 30.335926 -37.7095 
L 30.95856 -37.756365 
L 31.581194 -37.804931 
L 32.203828 -37.855231 
L 32.826463 -37.907298 
L 33.449097 -37.961163 
L 34.071731 -38.016857 
L 34.694365 -38.074409 
L 35.316999 -38.133849 
L 35.939634 -38.195205 
L 36.562268 -38.258502 
L 37.184902 -38.323766 
L 37.807536 -38.391021 
L 38.43017 -38.460291 
L 39.052805 -38.531597 
L 39.675439 -38.604959 
L 40.298073 -38.680396 
L 40.920707 -38.757925 
L 41.543341 -38.837561 
L 42.165975 -38.919319 
L 42.78861 -39.003212 
L 43.411244 -39.089249 
L 44.033878 -39.177441 
L 44.656512 -39.267794 
L 45.279146 -39.360315 
L 45.901781 -39.455006 
L 46.524415 -39.551872 
L 47.147049 -39.650911 
L 47.769683 -39.752123 
L 48.392317 -39.855504 
L 49.014951 -39.96105 
L 49.637586 -40.068754 
L 50.26022 -40.178608 
L 50.882854 -40.290601 
L 51.505488 -40.404722 
L 52.128122 -40.520958 
L 52.750757 -40.639293 
L 53.373391 -40.75971 
L 53.996025 -40.882193 
L 54.618659 -41.00672 
L 55.241293 -41.133271 
L 55.863927 -41.261824 
L 56.486562 -41.392354 
L 57.109196 -41.524836 
L 57.73183 -41.659245 
L 58.354464 -41.795553 
L 58.977098 -41.93373 
L 59.599733 -42.073749 
L 60.222367 -42.215578 
L 60.845001 -42.359186 
L 61.467635 -42.504542 
L 62.090269 -42.651613 
L 62.712904 -42.800365 
L 63.335538 -42.950765 
L 63.958172 -43.102779 
L 64.580806 -43.256373 
L 65.20344 -43.411512 
L 65.826074 -43.568161 
L 66.448709 -43.726286 
L 67.071343 -43.885852 
L 67.693977 -44.046825 
L 68.316611 -44.209169 
L 68.939245 -44.372851 
L 69.56188 -44.537838 
L 70.184514 -44.704096 
L 70.807148 -44.871592 
L 71.429782 -45.040294 
L 72.052416 -45.210171 
L 72.67505 -45.381192 
L 73.297685 -45.553328 
L 73.920319 -45.726549 
L 74.542953 -45.900827 
L 75.165587 -46.076135 
L 75.788221 -46.252448 
L 76.410856 -46.42974 
L 77.03349 -46.607987 
L 77.656124 -46.787168 
L 78.278758 -46.96726 
L 78.901392 -47.148243 
L 79.524027 -47.330099 
L 80.146661 -47.512809 
L 80.769295 -47.696358 
L 81.391929 -47.880731 
L 82.014563 -48.065913 
L 82.637197 -48.251894 
L 83.259832 -48.438661 
L 83.882466 -48.626205 
L 84.5051 -48.814518 
L 85.127734 -49.003593 
L 85.750368 -49.193424 
L 86.373003 -49.384007 
L 86.995637 -49.575339 
L 87.618271 -49.767418 
L 88.240905 -49.960244 
L 88.863539 -50.153817 
L 89.486173 -50.348139 
L 90.108808 -50.543213 
L 90.731442 -50.739043 
L 91.354076 -50.935635 
L 91.97671 -51.132993 
L 92.599344 -51.331127 
L 93.221979 -51.530042 
L 93.844613 -51.72975 
L 94.467247 -51.930259 
L 95.089881 -52.13158 
L 95.712515 -52.333724 
L 96.33515 -52.536704 
L 96.957784 -52.740532 
L 97.580418 -52.945222 
L 98.203052 -53.150788 
L 98.825686 -53.357244 
L 99.44832 -53.564604 
L 100.070955 -53.772885 
L 100.693589 -53.982101 
L 101.316223 -54.19227 
L 101.938857 -54.403407 
L 102.561491 -54.615529 
L 103.184126 -54.828651 
L 103.80676 -55.042793 
L 104.429394 -55.257969 
L 105.052028 -55.474198 
L 105.674662 -55.691495 
L 106.297296 -55.909879 
L 106.919931 -56.129366 
L 107.542565 -56.349973 
L 108.165199 -56.571716 
L 108.787833 -56.794613 
L 109.410467 -57.018679 
L 110.033102 -57.24393 
L 110.655736 -57.470383 
L 111.27837 -57.698053 
L 111.901004 -57.926955 
L 112.523638 -58.157105 
L 113.146272 -58.388517 
L 113.768907 -58.621205 
L 114.391541 -58.855183 
L 115.014175 -59.090465 
L 115.636809 -59.327064 
L 116.259443 -59.564992 
L 116.882078 -59.804263 
L 117.504712 -60.044886 
L 118.127346 -60.286875 
L 118.74998 -60.530239 
L 119.372614 -60.77499 
L 119.995249 -61.021137 
L 120.617883 -61.268689 
L 121.240517 -61.517656 
L 121.863151 -61.768047 
L 122.485785 -62.019868 
L 123.108419 -62.273128 
L 123.731054 -62.527834 
L 124.353688 -62.783992 
L 124.976322 -63.041608 
L 125.598956 -63.300688 
L 126.22159 -63.561237 
L 126.844225 -63.82326 
L 127.466859 -64.086761 
L 128.089493 -64.351743 
L 128.712127 -64.61821 
L 129.334761 -64.886164 
L 129.957395 -65.155608 
L 130.58003 -65.426544 
L 131.202664 -65.698972 
L 131.825298 -65.972895 
L 132.447932 -66.248312 
L 133.070566 -66.525224 
L 133.693201 -66.803631 
L 134.315835 -67.083531 
L 134.938469 -67.364923 
L 135.561103 -67.647807 
L 136.183737 -67.93218 
L 136.806372 -68.21804 
L 137.429006 -68.505384 
L 138.05164 -68.794209 
L 138.674274 -69.084512 
L 139.296908 -69.376289 
L 139.919542 -69.669536 
L 140.542177 -69.964249 
L 141.164811 -70.260422 
L 141.787445 -70.558051 
L 142.410079 -70.85713 
L 143.032713 -71.157653 
L 143.655348 -71.459614 
L 144.277982 -71.763007 
L 144.900616 -72.067824 
L 145.52325 -72.37406 
L 146.145884 -72.681706 
L 146.768518 -72.990754 
L 147.391153 -73.301198 
L 148.013787 -73.613028 
L 148.636421 -73.926236 
L 149.259055 -74.240813 
L 149.881689 -74.55675 
L 150.504324 -74.874037 
L 151.126958 -75.192666 
L 151.749592 -75.512625 
L 152.372226 -75.833906 
L 152.99486 -76.156496 
L 153.617495 -76.480386 
L 154.240129 -76.805564 
L 154.862763 -77.13202 
L 155.485397 -77.459741 
L 156.108031 -77.788717 
L 156.730665 -78.118933 
L 157.3533 -78.45038 
L 157.975934 -78.783043 
L 158.598568 -79.116911 
L 159.221202 -79.451969 
L 159.843836 -79.788206 
L 160.466471 -80.125606 
L 161.089105 -80.464157 
L 161.711739 -80.803845 
L 162.334373 -81.144654 
L 162.957007 -81.486572 
L 163.579641 -81.829582 
L 164.202276 -82.17367 
L 164.82491 -82.51882 
L 165.447544 -82.865018 
L 166.070178 -83.212247 
L 166.692812 -83.560492 
L 167.315447 -83.909737 
L 167.938081 -84.259964 
L 168.560715 -84.611158 
L 169.183349 -84.963301 
L 169.805983 -85.316377 
L 170.428618 -85.670368 
L 171.051252 -86.025257 
L 171.673886 -86.381026 
L 172.29652 -86.737656 
L 172.919154 -87.095131 
L 173.541788 -87.453431 
L 174.164423 -87.812537 
L 174.787057 -88.172432 
L 175.409691 -88.533095 
L 176.032325 -88.894508 
L 176.654959 -89.256651 
L 177.277594 -89.619505 
L 177.900228 -89.983048 
L 178.522862 -90.347263 
L 179.145496 -90.712127 
L 179.76813 -91.077621 
L 180.390764 -91.443723 
L 181.013399 -91.810413 
L 181.636033 -92.17767 
L 182.258667 -92.545472 
L 182.881301 -92.913798 
L 183.503935 -93.282626 
L 184.12657 -93.651935 
L 184.749204 -94.021701 
L 185.371838 -94.391902 
L 185.994472 -94.762517 
L 186.617106 -95.133522 
L 187.23974 -95.504895 
L 187.862375 -95.876612 
L 188.485009 -96.248651 
L 189.107643 -96.620987 
L 189.730277 -96.993597 
L 190.352911 -97.366458 
L 190.975546 -97.739545 
L 191.59818 -98.112835 
L 192.220814 -98.486302 
L 192.843448 -98.859923 
L 193.466082 -99.233673 
L 194.088717 -99.607527 
L 194.711351 -99.981461 
L 195.333985 -100.355448 
L 195.956619 -100.729464 
L 196.579253 -101.103484 
L 197.201887 -101.477481 
L 197.824522 -101.851431 
L 198.447156 -102.225306 
L 199.06979 -102.599082 
L 199.692424 -102.972733 
L 200.315058 -103.346231 
L 200.937693 -103.71955 
L 201.560327 -104.092665 
L 202.182961 -104.465548 
L 202.805595 -104.838172 
L 203.428229 -105.210511 
L 204.050863 -105.582537 
L 204.673498 -105.954224 
L 205.296132 -106.325544 
L 205.918766 -106.69647 
L 206.5414 -107.066974 
L 207.164034 -107.437029 
L 207.786669 -107.806607 
L 208.409303 -108.175681 
L 209.031937 -108.544222 
L 209.654571 -108.912202 
L 210.277205 -109.279595 
L 210.89984 -109.64637 
L 211.522474 -110.012501 
L 212.145108 -110.377958 
L 212.767742 -110.742715 
L 213.390376 -111.106741 
L 214.01301 -111.470009 
L 214.635645 -111.832491 
L 215.258279 -112.194157 
L 215.880913 -112.554978 
L 216.503547 -112.914927 
L 217.126181 -113.273975 
L 217.748816 -113.632092 
L 218.37145 -113.98925 
L 218.994084 -114.34542 
L 219.616718 -114.700573 
L 220.239352 -115.054681 
L 220.861986 -115.407713 
L 221.484621 -115.759642 
L 222.107255 -116.110438 
L 222.729889 -116.460072 
L 223.352523 -116.808515 
L 223.975157 -117.155739 
L 224.597792 -117.501713 
L 225.220426 -117.84641 
L 225.84306 -118.1898 
L 226.465694 -118.531854 
L 227.088328 -118.872543 
L 227.710963 -119.211839 
L 228.333597 -119.549711 
L 228.956231 -119.886132 
L 229.578865 -120.221072 
L 230.201499 -120.554503 
L 230.824133 -120.886396 
L 231.446768 -121.216722 
L 232.069402 -121.545452 
L 232.692036 -121.872557 
L 233.31467 -122.19801 
L 233.937304 -122.521781 
L 234.559939 -122.843842 
L 235.182573 -123.164164 
L 235.805207 -123.48272 
L 236.427841 -123.79948 
L 237.050475 -124.114417 
L 237.673109 -124.427503 
L 238.295744 -124.738709 
L 238.918378 -125.048008 
L 239.541012 -125.355371 
L 240.163646 -125.660772 
L 240.78628 -125.964182 
L 241.408915 -126.265574 
L 242.031549 -126.56492 
L 242.654183 -126.862194 
L 243.276817 -127.157368 
L 243.899451 -127.450414 
L 244.522086 -127.741307 
L 245.14472 -128.030019 
L 245.767354 -128.316524 
L 246.389988 -128.600795 
L 247.012622 -128.882805 
L 247.635256 -129.16253 
L 248.257891 -129.439942 
L 248.880525 -129.715015 
L 249.503159 -129.987725 
L 250.125793 -130.258045 
L 250.748427 -130.525949 
L 251.371062 -130.791414 
L 251.993696 -131.054414 
L 252.61633 -131.314923 
L 253.238964 -131.572918 
L 253.861598 -131.828373 
L 254.484232 -132.081265 
L 255.106867 -132.331569 
L 255.729501 -132.579262 
L 256.352135 -132.824319 
L 256.974769 -133.066718 
L 257.597403 -133.306435 
L 258.220038 -133.543447 
L 258.842672 -133.777732 
L 259.465306 -134.009266 
L 260.08794 -134.238027 
L 260.710574 -134.463993 
L 261.333208 -134.687142 
L 261.955843 -134.907453 
L 262.578477 -135.124905 
L 263.201111 -135.339475 
L 263.823745 -135.551143 
L 264.446379 -135.759888 
L 265.069014 -135.96569 
L 265.691648 -136.168529 
L 266.314282 -136.368385 
L 266.936916 -136.565238 
L 267.55955 -136.759069 
L 268.182185 -136.949859 
L 268.804819 -137.137588 
L 269.427453 -137.322239 
L 270.050087 -137.503793 
L 270.672721 -137.682232 
L 271.295355 -137.857538 
L 271.91799 -138.029695 
L 272.540624 -138.198684 
L 273.163258 -138.364489 
L 273.785892 -138.527094 
L 274.408526 -138.686482 
L 275.031161 -138.842638 
L 275.653795 -138.995545 
L 276.276429 -139.145189 
L 276.899063 -139.291554 
L 277.521697 -139.434627 
L 278.144331 -139.574391 
L 278.766966 -139.710834 
L 279.3896 -139.843942 
L 280.012234 -139.973701 
L 280.634868 -140.100099 
L 281.257502 -140.223122 
L 281.880137 -140.342758 
L 282.502771 -140.458995 
L 283.125405 -140.571821 
L 283.748039 -140.681226 
L 284.370673 -140.787197 
L 284.993308 -140.889724 
L 285.615942 -140.988796 
L 286.238576 -141.084405 
L 286.86121 -141.176539 
L 287.483844 -141.26519 
L 288.106478 -141.350349 
L 288.729113 -141.432006 
L 289.351747 -141.510154 
L 289.974381 -141.584785 
L 290.597015 -141.655891 
L 291.219649 -141.723464 
L 291.842284 -141.787499 
L 292.464918 -141.847988 
L 293.087552 -141.904925 
L 293.710186 -141.958305 
L 294.33282 -142.008121 
L 294.955454 -142.05437 
L 295.578089 -142.097046 
L 296.200723 -142.136144 
L 296.823357 -142.171661 
L 297.445991 -142.203594 
L 298.068625 -142.231939 
L 298.69126 -142.256692 
L 299.313894 -142.277852 
L 299.936528 -142.295417 
L 300.559162 -142.309384 
L 301.181796 -142.319752 
L 301.804431 -142.32652 
L 302.427065 -142.329687 
L 303.049699 -142.329254 
L 303.672333 -142.32522 
L 304.294967 -142.317585 
L 304.917601 -142.30635 
L 305.540236 -142.291517 
L 306.16287 -142.273087 
L 306.785504 -142.251062 
L 307.408138 -142.225444 
L 308.030772 -142.196235 
L 308.653407 -142.163439 
L 309.276041 -142.127059 
L 309.898675 -142.087099 
L 310.521309 -142.043563 
L 311.143943 -141.996455 
L 311.766577 -141.94578 
L 312.389212 -141.891544 
L 313.011846 -141.833751 
L 313.63448 -141.772408 
L 314.257114 -141.707521 
L 314.879748 -141.639097 
L 315.502383 -141.567142 
L 316.125017 -141.491664 
L 316.747651 -141.41267 
L 317.370285 -141.330169 
L 317.992919 -141.244169 
L 318.615554 -141.154679 
L 319.238188 -141.061707 
L 319.860822 -140.965264 
L 320.483456 -140.865359 
L 321.10609 -140.762002 
L 321.728724 -140.655203 
L 322.351359 -140.544974 
L 322.973993 -140.431326 
L 323.596627 -140.314269 
L 324.219261 -140.193817 
L 324.841895 -140.069981 
L 325.46453 -139.942773 
L 326.087164 -139.812206 
L 326.709798 -139.678294 
L 327.332432 -139.54105 
L 327.955066 -139.400488 
L 328.5777 -139.256622 
L 329.200335 -139.109466 
L 329.822969 -138.959035 
L 330.445603 -138.805345 
L 331.068237 -138.648409 
L 331.690871 -138.488246 
L 332.313506 -138.324869 
L 332.93614 -138.158296 
L 333.558774 -137.988542 
L 334.181408 -137.815626 
L 334.804042 -137.639564 
L 335.426676 -137.460374 
L 336.049311 -137.278073 
L 336.671945 -137.092679 
L 337.294579 -136.904211 
L 337.917213 -136.712688 
L 338.539847 -136.518128 
L 339.162482 -136.32055 
L 339.785116 -136.119975 
L 340.40775 -135.916421 
L 341.030384 -135.709908 
L 341.653018 -135.500457 
L 342.275653 -135.288089 
L 342.898287 -135.072823 
L 343.520921 -134.854682 
L 344.143555 -134.633685 
L 344.766189 -134.409856 
L 345.388823 -134.183215 
L 346.011458 -133.953784 
L 346.634092 -133.721586 
L 347.256726 -133.486643 
L 347.87936 -133.248978 
L 348.501994 -133.008613 
L 349.124629 -132.765572 
L 349.747263 -132.519878 
L 350.369897 -132.271555 
L 350.992531 -132.020626 
L 351.615165 -131.767114 
L 352.237799 -131.511046 
L 352.860434 -131.252443 
L 353.483068 -130.991332 
L 354.105702 -130.727737 
L 354.728336 -130.461683 
L 355.35097 -130.193194 
L 355.973605 -129.922297 
L 356.596239 -129.649016 
L 357.218873 -129.373377 
L 357.841507 -129.095406 
L 358.464141 -128.815129 
L 359.086776 -128.532572 
L 359.70941 -128.247761 
L 360.332044 -127.960723 
L 360.954678 -127.671483 
L 361.577312 -127.380069 
L 362.199946 -127.086508 
L 362.822581 -126.790827 
L 363.445215 -126.493052 
L 364.067849 -126.19321 
L 364.690483 -125.89133 
L 365.313117 -125.587438 
L 365.935752 -125.281563 
L 366.558386 -124.973731 
L 367.18102 -124.66397 
L 367.803654 -124.352309 
L 368.426288 -124.038775 
L 369.048922 -123.723397 
L 369.671557 -123.406202 
L 370.294191 -123.087218 
L 370.916825 -122.766475 
L 371.539459 -122.444 
L 372.162093 -122.119821 
L 372.784728 -121.793968 
L 373.407362 -121.466469 
L 374.029996 -121.137353 
L 374.65263 -120.806647 
L 375.275264 -120.474381 
L 375.897899 -120.140585 
L 376.520533 -119.805285 
L 377.143167 -119.468512 
L 377.765801 -119.130295 
L 378.388435 -118.790661 
L 379.011069 -118.449641 
L 379.633704 -118.107262 
L 380.256338 -117.763555 
L 380.878972 -117.418548 
L 381.501606 -117.07227 
L 382.12424 -116.724751 
L 382.746875 -116.376018 
L 383.369509 -116.026102 
L 383.992143 -115.67503 
L 384.614777 -115.322833 
L 385.237411 -114.96954 
L 385.860045 -114.615178 
L 386.48268 -114.259777 
L 387.105314 -113.903367 
L 387.727948 -113.545975 
L 388.350582 -113.187632 
L 388.973216 -112.828364 
L 389.595851 -112.468203 
L 390.218485 -112.107175 
L 390.841119 -111.74531 
L 391.463753 -111.382637 
L 392.086387 -111.019184 
L 392.709021 -110.654979 
L 393.331656 -110.290051 
L 393.95429 -109.924429 
L 394.576924 -109.55814 
L 395.199558 -109.191214 
L 395.822192 -108.823678 
L 396.444827 -108.45556 
L 397.067461 -108.086888 
L 397.690095 -107.71769 
L 398.312729 -107.347995 
L 398.935363 -106.977829 
L 399.557998 -106.607221 
L 400.180632 -106.236198 
L 400.803266 -105.864787 
L 401.4259 -105.493016 
L 402.048534 -105.120912 
L 402.671168 -104.748502 
L 403.293803 -104.375813 
L 403.916437 -104.002872 
L 404.539071 -103.629705 
L 405.161705 -103.25634 
L 405.784339 -102.882803 
L 406.406974 -102.50912 
L 407.029608 -102.135318 
L 407.652242 -101.761422 
L 408.274876 -101.387459 
L 408.89751 -101.013453 
L 409.520144 -100.639432 
L 410.142779 -100.265421 
L 410.765413 -99.891444 
L 411.388047 -99.517527 
L 412.010681 -99.143696 
L 412.633315 -98.769975 
L 413.25595 -98.396388 
L 413.878584 -98.022961 
L 414.501218 -97.649718 
L 415.123852 -97.276683 
L 415.746486 -96.903881 
L 416.369121 -96.531334 
L 416.991755 -96.159067 
L 417.614389 -95.787104 
L 418.237023 -95.415467 
L 418.859657 -95.044181 
L 419.482291 -94.673267 
L 420.104926 -94.30275 
L 420.72756 -93.93265 
L 421.350194 -93.562992 
L 421.972828 -93.193797 
L 422.595462 -92.825088 
L 423.218097 -92.456886 
L 423.840731 -92.089212 
L 424.463365 -91.722089 
L 425.085999 -91.355538 
L 425.708633 -90.98958 
L 426.331267 -90.624235 
L 426.953902 -90.259525 
L 427.576536 -89.895469 
L 428.19917 -89.532088 
L 428.821804 -89.169403 
L 429.444438 -88.807433 
L 430.067073 -88.446197 
L 430.689707 -88.085716 
L 431.312341 -87.726007 
L 431.934975 -87.367091 
L 432.557609 -87.008986 
L 433.180244 -86.651711 
L 433.802878 -86.295284 
L 434.425512 -85.939722 
L 435.048146 -85.585045 
L 435.67078 -85.231269 
L 436.293414 -84.878412 
L 436.916049 -84.526491 
L 437.538683 -84.175523 
L 438.161317 -83.825526 
L 438.783951 -83.476514 
L 439.406585 -83.128506 
L 440.02922 -82.781516 
L 440.651854 -82.435561 
L 441.274488 -82.090656 
L 441.897122 -81.746816 
L 442.519756 -81.404056 
L 443.14239 -81.062392 
L 443.765025 -80.721838 
L 444.387659 -80.382408 
L 445.010293 -80.044117 
L 445.632927 -79.706977 
L 446.255561 -79.371004 
L 446.878196 -79.036209 
L 447.50083 -78.702607 
L 448.123464 -78.370209 
L 448.746098 -78.039029 
L 449.368732 -77.709079 
L 449.991367 -77.380371 
L 450.614001 -77.052916 
L 451.236635 -76.726726 
L 451.859269 -76.401813 
L 452.481903 -76.078186 
L 453.104537 -75.755857 
L 453.727172 -75.434836 
L 454.349806 -75.115134 
L 454.97244 -74.796759 
L 455.595074 -74.479721 
L 456.217708 -74.16403 
L 456.840343 -73.849695 
L 457.462977 -73.536723 
L 458.085611 -73.225123 
L 458.708245 -72.914903 
L 459.330879 -72.60607 
L 459.953513 -72.298632 
L 460.576148 -71.992596 
L 461.198782 -71.687968 
L 461.821416 -71.384754 
L 462.44405 -71.08296 
L 463.066684 -70.782592 
L 463.689319 -70.483655 
L 464.311953 -70.186153 
L 464.934587 -69.890091 
L 465.557221 -69.595472 
L 466.179855 -69.302302 
L 466.802489 -69.010581 
L 467.425124 -68.720314 
L 468.047758 -68.431502 
L 468.670392 -68.144148 
L 469.293026 -67.858253 
L 469.91566 -67.573818 
L 470.538295 -67.290843 
L 471.160929 -67.009329 
L 471.783563 -66.729276 
L 472.406197 -66.450682 
L 473.028831 -66.173547 
L 473.651466 -65.897868 
L 474.2741 -65.623644 
L 474.896734 -65.350871 
L 475.519368 -65.079547 
L 476.142002 -64.809667 
L 476.764636 -64.541228 
L 477.387271 -64.274225 
L 478.009905 -64.008652 
L 478.632539 -63.744504 
L 479.255173 -63.481774 
L 479.877807 -63.220456 
L 480.500442 -62.960542 
L 481.123076 -62.702024 
L 481.74571 -62.444895 
L 482.368344 -62.189144 
L 482.990978 -61.934763 
L 483.613612 -61.681741 
L 484.236247 -61.430069 
L 484.858881 -61.179734 
L 485.481515 -60.930727 
L 486.104149 -60.683034 
L 486.726783 -60.436643 
L 487.349418 -60.191541 
L 487.972052 -59.947716 
L 488.594686 -59.705153 
L 489.21732 -59.463837 
L 489.839954 -59.223755 
L 490.462589 -58.984891 
L 491.085223 -58.747231 
L 491.707857 -58.510757 
L 492.330491 -58.275454 
L 492.953125 -58.041307 
L 493.575759 -57.808297 
L 494.198394 -57.576409 
L 494.821028 -57.345625 
L 495.443662 -57.115929 
L 496.066296 -56.887302 
L 496.68893 -56.659728 
L 497.311565 -56.433189 
L 497.934199 -56.207667 
L 498.556833 -55.983145 
L 499.179467 -55.759606 
L 499.802101 -55.537033 
L 500.424735 -55.315407 
L 501.04737 -55.094713 
L 501.670004 -54.874934 
L 502.292638 -54.656053 
L 502.915272 -54.438055 
L 503.537906 -54.220923 
L 504.160541 -54.004643 
L 504.783175 -53.7892 
L 505.405809 -53.574581 
L 506.028443 -53.360771 
L 506.651077 -53.147758 
L 507.273712 -52.93553 
L 507.896346 -52.724076 
L 508.51898 -52.513385 
L 509.141614 -52.303448 
L 509.764248 -52.094256 
L 510.386882 -51.885802 
L 511.009517 -51.678079 
L 511.632151 -51.471081 
L 512.254785 -51.264805 
L 512.877419 -51.059247 
L 513.500053 -50.854405 
L 514.122688 -50.650278 
L 514.745322 -50.446867 
L 515.367956 -50.244174 
L 515.99059 -50.042201 
L 516.613224 -49.840955 
L 517.235858 -49.640439 
L 517.858493 -49.440662 
L 518.481127 -49.241633 
L 519.103761 -49.043362 
L 519.726395 -48.845861 
L 520.349029 -48.649142 
L 520.971664 -48.453221 
L 521.594298 -48.258113 
L 522.216932 -48.063836 
L 522.839566 -47.870409 
L 523.4622 -47.677852 
L 524.084835 -47.486188 
L 524.707469 -47.295439 
L 525.330103 -47.10563 
L 525.952737 -46.916786 
L 526.575371 -46.728935 
L 527.198005 -46.542106 
L 527.82064 -46.356326 
L 528.443274 -46.171628 
L 529.065908 -45.988042 
L 529.688542 -45.805602 
L 530.311176 -45.624341 
L 530.933811 -45.444293 
L 531.556445 -45.265494 
L 532.179079 -45.087979 
L 532.801713 -44.911786 
L 533.424347 -44.736951 
L 534.046981 -44.563512 
L 534.669616 -44.391508 
L 535.29225 -44.220976 
L 535.914884 -44.051955 
L 536.537518 -43.884483 
L 537.160152 -43.7186 
L 537.782787 -43.554345 
L 538.405421 -43.391754 
L 539.028055 -43.230867 
L 539.650689 -43.071722 
L 540.273323 -42.914356 
L 540.895957 -42.758805 
L 541.518592 -42.605106 
L 542.141226 -42.453295 
L 542.76386 -42.303406 
L 543.386494 -42.155472 
L 544.009128 -42.009527 
L 544.631763 -41.865601 
L 545.254397 -41.723727 
L 545.877031 -41.583932 
L 546.499665 -41.446244 
L 547.122299 -41.310691 
L 547.744934 -41.177297 
L 548.367568 -41.046085 
L 548.990202 -40.917078 
L 549.612836 -40.790295 
L 550.23547 -40.665756 
L 550.858104 -40.543478 
L 551.480739 -40.423474 
L 552.103373 -40.30576 
L 552.726007 -40.190345 
L 553.348641 -40.077239 
L 553.971275 -39.966451 
L 554.59391 -39.857985 
L 555.216544 -39.751847 
L 555.839178 -39.648036 
L 556.461812 -39.546554 
L 557.084446 -39.447399 
L 557.70708 -39.350566 
L 558.329715 -39.25605 
L 558.952349 -39.163843 
L 559.574983 -39.073935 
L 560.197617 -38.986316 
L 560.820251 -38.900971 
L 561.442886 -38.817887 
L 562.06552 -38.737046 
L 562.688154 -38.658431 
L 563.310788 -38.58202 
L 563.933422 -38.507793 
L 564.556057 -38.435727 
L 565.178691 -38.365797 
L 565.801325 -38.297977 
L 566.423959 -38.232239 
L 567.046593 -38.168557 
L 567.669227 -38.106899 
L 568.291862 -38.047234 
L 568.914496 -37.989532 
L 569.53713 -37.933758 
L 570.159764 -37.87988 
L 570.782398 -37.827862 
L 571.405033 -37.777668 
L 572.027667 -37.729264 
L 572.650301 -37.68261 
L 573.272935 -37.637672 
L 573.895569 -37.594409 
L 574.518203 -37.552785 
L 575.140838 -37.51276 
L 575.763472 -37.474295 
L 576.386106 -37.437352 
L 577.00874 -37.401891 
L 577.631374 -37.367872 
L 578.254009 -37.335257 
L 578.876643 -37.304005 
L 579.499277 -37.274078 
L 580.121911 -37.245436 
L 580.744545 -37.218041 
L 581.36718 -37.191854 
L 581.989814 -37.166837 
L 582.612448 -37.142952 
L 583.235082 -37.120161 
L 583.857716 -37.098427 
L 584.48035 -37.077714 
L 585.102985 -37.057986 
L 585.725619 -37.039208 
L 586.348253 -37.021344 
L 586.970887 -37.00436 
L 587.593521 -36.988223 
L 588.216156 -36.972899 
L 588.83879 -36.958358 
L 589.461424 -36.944567 
L 590.084058 -36.931495 
L 590.706692 -36.919113 
L 591.329326 -36.907392 
L 591.951961 -36.896302 
L 592.574595 -36.885817 
L 593.197229 -36.87591 
L 593.819863 -36.866554 
L 594.442497 -36.857725 
L 595.065132 -36.849397 
L 595.687766 -36.841548 
L 596.3104 -36.834154 
L 596.933034 -36.827193 
L 597.555668 -36.820644 
L 598.178302 -36.814487 
L 598.800937 -36.808701 
L 599.423571 -36.803268 
L 600.046205 -36.798169 
L 600.668839 -36.793387 
L 601.291473 -36.788904 
L 601.914108 -36.784705 
L 602.536742 -36.780775 
L 603.159376 -36.777097 
L 603.78201 -36.773659 
L 604.404644 -36.770447 
L 605.027279 -36.767447 
L 605.649913 -36.764648 
L 606.272547 -36.762037 
L 606.895181 -36.759604 
L 607.517815 -36.757337 
L 608.140449 -36.755228 
L 608.763084 -36.753265 
L 609.385718 -36.751441 
L 610.008352 -36.749745 
L 610.630986 -36.748171 
L 611.25362 -36.746711 
L 611.876255 -36.745357 
L 611.876255 -36.729688 
L 611.876255 -36.729688 
L 611.25362 -36.729688 
L 610.630986 -36.729688 
L 610.008352 -36.729688 
L 609.385718 -36.729688 
L 608.763084 -36.729688 
L 608.140449 -36.729688 
L 607.517815 -36.729688 
L 606.895181 -36.729688 
L 606.272547 -36.729688 
L 605.649913 -36.729688 
L 605.027279 -36.729688 
L 604.404644 -36.729688 
L 603.78201 -36.729688 
L 603.159376 -36.729688 
L 602.536742 -36.729688 
L 601.914108 -36.729688 
L 601.291473 -36.729688 
L 600.668839 -36.729688 
L 600.046205 -36.729688 
L 599.423571 -36.729688 
L 598.800937 -36.729688 
L 598.178302 -36.729688 
L 597.555668 -36.729688 
L 596.933034 -36.729688 
L 596.3104 -36.729688 
L 595.687766 -36.729688 
L 595.065132 -36.729688 
L 594.442497 -36.729688 
L 593.819863 -36.729688 
L 593.197229 -36.729688 
L 592.574595 -36.729688 
L 591.951961 -36.729688 
L 591.329326 -36.729688 
L 590.706692 -36.729688 
L 590.084058 -36.729688 
L 589.461424 -36.729688 
L 588.83879 -36.729688 
L 588.216156 -36.729688 
L 587.593521 -36.729688 
L 586.970887 -36.729688 
L 586.348253 -36.729688 
L 585.725619 -36.729688 
L 585.102985 -36.729688 
L 584.48035 -36.729688 
L 583.857716 -36.729688 
L 583.235082 -36.729688 
L 582.612448 -36.729688 
L 581.989814 -36.729688 
L 581.36718 -36.729688 
L 580.744545 -36.729688 
L 580.121911 -36.729688 
L 579.499277 -36.729688 
L 578.876643 -36.729688 
L 578.254009 -36.729688 
L 577.631374 -36.729688 
L 577.00874 -36.729688 
L 576.386106 -36.729688 
L 575.763472 -36.729688 
L 575.140838 -36.729688 
L 574.518203 -36.729688 
L 573.895569 -36.729688 
L 573.272935 -36.729688 
L 572.650301 -36.729688 
L 572.027667 -36.729688 
L 571.405033 -36.729688 
L 570.782398 -36.729688 
L 570.159764 -36.729688 
L 569.53713 -36.729688 
L 568.914496 -36.729688 
L 568.291862 -36.729688 
L 567.669227 -36.729688 
L 567.046593 -36.729688 
L 566.423959 -36.729688 
L 565.801325 -36.729688 
L 565.178691 -36.729688 
L 564.556057 -36.729688 
L 563.933422 -36.729688 
L 563.310788 -36.729688 
L 562.688154 -36.729688 
L 562.06552 -36.729688 
L 561.442886 -36.729688 
L 560.820251 -36.729688 
L 560.197617 -36.729688 
L 559.574983 -36.729688 
L 558.952349 -36.729688 
L 558.329715 -36.729688 
L 557.70708 -36.729688 
L 557.084446 -36.729688 
L 556.461812 -36.729688 
L 555.839178 -36.729688 
L 555.216544 -36.729688 
L 554.59391 -36.729688 
L 553.971275 -36.729688 
L 553.348641 -36.729688 
L 552.726007 -36.729688 
L 552.103373 -36.729688 
L 551.480739 -36.729688 
L 550.858104 -36.729688 
L 550.23547 -36.729688 
L 549.612836 -36.729688 
L 548.990202 -36.729688 
L 548.367568 -36.729688 
L 547.744934 -36.729688 
L 547.122299 -36.729688 
L 546.499665 -36.729688 
L 545.877031 -36.729688 
L 545.254397 -36.729688 
L 544.631763 -36.729688 
L 544.009128 -36.729688 
L 543.386494 -36.729688 
L 542.76386 -36.729688 
L 542.141226 -36.729688 
L 541.518592 -36.729688 
L 540.895957 -36.729688 
L 540.273323 -36.729688 
L 539.650689 -36.729688 
L 539.028055 -36.729688 
L 538.405421 -36.729688 
L 537.782787 -36.729688 
L 537.160152 -36.729688 
L 536.537518 -36.729688 
L 535.914884 -36.729688 
L 535.29225 -36.729688 
L 534.669616 -36.729688 
L 534.046981 -36.729688 
L 533.424347 -36.729688 
L 532.801713 -36.729688 
L 532.179079 -36.729688 
L 531.556445 -36.729688 
L 530.933811 -36.729688 
L 530.311176 -36.729688 
L 529.688542 -36.729688 
L 529.065908 -36.729688 
L 528.443274 -36.729688 
L 527.82064 -36.729688 
L 527.198005 -36.729688 
L 526.575371 -36.729688 
L 525.952737 -36.729688 
L 525.330103 -36.729688 
L 524.707469 -36.729688 
L 524.084835 -36.729688 
L 523.4622 -36.729688 
L 522.839566 -36.729688 
L 522.216932 -36.729688 
L 521.594298 -36.729688 
L 520.971664 -36.729688 
L 520.349029 -36.729688 
L 519.726395 -36.729688 
L 519.103761 -36.729688 
L 518.481127 -36.729688 
L 517.858493 -36.729688 
L 517.235858 -36.729688 
L 516.613224 -36.729688 
L 515.99059 -36.729688 
L 515.367956 -36.729688 
L 514.745322 -36.729688 
L 514.122688 -36.729688 
L 513.500053 -36.729688 
L 512.877419 -36.729688 
L 512.254785 -36.729688 
L 511.632151 -36.729688 
L 511.009517 -36.729688 
L 510.386882 -36.729688 
L 509.764248 -36.729688 
L 509.141614 -36.729688 
L 508.51898 -36.729688 
L 507.896346 -36.729688 
L 507.273712 -36.729688 
L 506.651077 -36.729688 
L 506.028443 -36.729688 
L 505.405809 -36.729688 
L 504.783175 -36.729688 
L 504.160541 -36.729688 
L 503.537906 -36.729688 
L 502.915272 -36.729688 
L 502.292638 -36.729688 
L 501.670004 -36.729688 
L 501.04737 -36.729688 
L 500.424735 -36.729688 
L 499.802101 -36.729688 
L 499.179467 -36.729688 
L 498.556833 -36.729688 
L 497.934199 -36.729688 
L 497.311565 -36.729688 
L 496.68893 -36.729688 
L 496.066296 -36.729688 
L 495.443662 -36.729688 
L 494.821028 -36.729688 
L 494.198394 -36.729688 
L 493.575759 -36.729688 
L 492.953125 -36.729688 
L 492.330491 -36.729688 
L 491.707857 -36.729688 
L 491.085223 -36.729688 
L 490.462589 -36.729688 
L 489.839954 -36.729688 
L 489.21732 -36.729688 
L 488.594686 -36.729688 
L 487.972052 -36.729688 
L 487.349418 -36.729688 
L 486.726783 -36.729688 
L 486.104149 -36.729688 
L 485.481515 -36.729688 
L 484.858881 -36.729688 
L 484.236247 -36.729688 
L 483.613612 -36.729688 
L 482.990978 -36.729688 
L 482.368344 -36.729688 
L 481.74571 -36.729688 
L 481.123076 -36.729688 
L 480.500442 -36.729688 
L 479.877807 -36.729688 
L 479.255173 -36.729688 
L 478.632539 -36.729688 
L 478.009905 -36.729688 
L 477.387271 -36.729688 
L 476.764636 -36.729688 
L 476.142002 -36.729688 
L 475.519368 -36.729688 
L 474.896734 -36.729688 
L 474.2741 -36.729688 
L 473.651466 -36.729688 
L 473.028831 -36.729688 
L 472.406197 -36.729688 
L 471.783563 -36.729688 
L 471.160929 -36.729688 
L 470.538295 -36.729688 
L 469.91566 -36.729688 
L 469.293026 -36.729688 
L 468.670392 -36.729688 
L 468.047758 -36.729688 
L 467.425124 -36.729688 
L 466.802489 -36.729688 
L 466.179855 -36.729688 
L 465.557221 -36.729688 
L 464.934587 -36.729688 
L 464.311953 -36.729688 
L 463.689319 -36.729688 
L 463.066684 -36.729688 
L 462.44405 -36.729688 
L 461.821416 -36.729688 
L 461.198782 -36.729688 
L 460.576148 -36.729688 
L 459.953513 -36.729688 
L 459.330879 -36.729688 
L 458.708245 -36.729688 
L 458.085611 -36.729688 
L 457.462977 -36.729688 
L 456.840343 -36.729688 
L 456.217708 -36.729688 
L 455.595074 -36.729688 
L 454.97244 -36.729688 
L 454.349806 -36.729688 
L 453.727172 -36.729688 
L 453.104537 -36.729688 
L 452.481903 -36.729688 
L 451.859269 -36.729688 
L 451.236635 -36.729688 
L 450.614001 -36.729688 
L 449.991367 -36.729688 
L 449.368732 -36.729688 
L 448.746098 -36.729688 
L 448.123464 -36.729688 
L 447.50083 -36.729688 
L 446.878196 -36.729688 
L 446.255561 -36.729688 
L 445.632927 -36.729688 
L 445.010293 -36.729688 
L 444.387659 -36.729688 
L 443.765025 -36.729688 
L 443.14239 -36.729688 
L 442.519756 -36.729688 
L 441.897122 -36.729688 
L 441.274488 -36.729688 
L 440.651854 -36.729688 
L 440.02922 -36.729688 
L 439.406585 -36.729688 
L 438.783951 -36.729688 
L 438.161317 -36.729688 
L 437.538683 -36.729688 
L 436.916049 -36.729688 
L 436.293414 -36.729688 
L 435.67078 -36.729688 
L 435.048146 -36.729688 
L 434.425512 -36.729688 
L 433.802878 -36.729688 
L 433.180244 -36.729688 
L 432.557609 -36.729688 
L 431.934975 -36.729688 
L 431.312341 -36.729688 
L 430.689707 -36.729688 
L 430.067073 -36.729688 
L 429.444438 -36.729688 
L 428.821804 -36.729688 
L 428.19917 -36.729688 
L 427.576536 -36.729688 
L 426.953902 -36.729688 
L 426.331267 -36.729688 
L 425.708633 -36.729688 
L 425.085999 -36.729688 
L 424.463365 -36.729688 
L 423.840731 -36.729688 
L 423.218097 -36.729688 
L 422.595462 -36.729688 
L 421.972828 -36.729688 
L 421.350194 -36.729688 
L 420.72756 -36.729688 
L 420.104926 -36.729688 
L 419.482291 -36.729688 
L 418.859657 -36.729688 
L 418.237023 -36.729688 
L 417.614389 -36.729688 
L 416.991755 -36.729688 
L 416.369121 -36.729688 
L 415.746486 -36.729688 
L 415.123852 -36.729688 
L 414.501218 -36.729688 
L 413.878584 -36.729688 
L 413.25595 -36.729688 
L 412.633315 -36.729688 
L 412.010681 -36.729688 
L 411.388047 -36.729688 
L 410.765413 -36.729688 
L 410.142779 -36.729688 
L 409.520144 -36.729688 
L 408.89751 -36.729688 
L 408.274876 -36.729688 
L 407.652242 -36.729688 
L 407.029608 -36.729688 
L 406.406974 -36.729688 
L 405.784339 -36.729688 
L 405.161705 -36.729688 
L 404.539071 -36.729688 
L 403.916437 -36.729688 
L 403.293803 -36.729688 
L 402.671168 -36.729688 
L 402.048534 -36.729688 
L 401.4259 -36.729688 
L 400.803266 -36.729688 
L 400.180632 -36.729688 
L 399.557998 -36.729688 
L 398.935363 -36.729688 
L 398.312729 -36.729688 
L 397.690095 -36.729688 
L 397.067461 -36.729688 
L 396.444827 -36.729688 
L 395.822192 -36.729688 
L 395.199558 -36.729688 
L 394.576924 -36.729688 
L 393.95429 -36.729688 
L 393.331656 -36.729688 
L 392.709021 -36.729688 
L 392.086387 -36.729688 
L 391.463753 -36.729688 
L 390.841119 -36.729688 
L 390.218485 -36.729688 
L 389.595851 -36.729688 
L 388.973216 -36.729688 
L 388.350582 -36.729688 
L 387.727948 -36.729688 
L 387.105314 -36.729688 
L 386.48268 -36.729688 
L 385.860045 -36.729688 
L 385.237411 -36.729688 
L 384.614777 -36.729688 
L 383.992143 -36.729688 
L 383.369509 -36.729688 
L 382.746875 -36.729688 
L 382.12424 -36.729688 
L 381.501606 -36.729688 
L 380.878972 -36.729688 
L 380.256338 -36.729688 
L 379.633704 -36.729688 
L 379.011069 -36.729688 
L 378.388435 -36.729688 
L 377.765801 -36.729688 
L 377.143167 -36.729688 
L 376.520533 -36.729688 
L 375.897899 -36.729688 
L 375.275264 -36.729688 
L 374.65263 -36.729688 
L 374.029996 -36.729688 
L 373.407362 -36.729688 
L 372.784728 -36.729688 
L 372.162093 -36.729688 
L 371.539459 -36.729688 
L 370.916825 -36.729688 
L 370.294191 -36.729688 
L 369.671557 -36.729688 
L 369.048922 -36.729688 
L 368.426288 -36.729688 
L 367.803654 -36.729688 
L 367.18102 -36.729688 
L 366.558386 -36.729688 
L 365.935752 -36.729688 
L 365.313117 -36.729688 
L 364.690483 -36.729688 
L 364.067849 -36.729688 
L 363.445215 -36.729688 
L 362.822581 -36.729688 
L 362.199946 -36.729688 
L 361.577312 -36.729688 
L 360.954678 -36.729688 
L 360.332044 -36.729688 
L 359.70941 -36.729688 
L 359.086776 -36.729688 
L 358.464141 -36.729688 
L 357.841507 -36.729688 
L 357.218873 -36.729688 
L 356.596239 -36.729688 
L 355.973605 -36.729688 
L 355.35097 -36.729688 
L 354.728336 -36.729688 
L 354.105702 -36.729688 
L 353.483068 -36.729688 
L 352.860434 -36.729688 
L 352.237799 -36.729688 
L 351.615165 -36.729688 
L 350.992531 -36.729688 
L 350.369897 -36.729688 
L 349.747263 -36.729688 
L 349.124629 -36.729688 
L 348.501994 -36.729688 
L 347.87936 -36.729688 
L 347.256726 -36.729688 
L 346.634092 -36.729688 
L 346.011458 -36.729688 
L 345.388823 -36.729688 
L 344.766189 -36.729688 
L 344.143555 -36.729688 
L 343.520921 -36.729688 
L 342.898287 -36.729688 
L 342.275653 -36.729688 
L 341.653018 -36.729688 
L 341.030384 -36.729688 
L 340.40775 -36.729688 
L 339.785116 -36.729688 
L 339.162482 -36.729688 
L 338.539847 -36.729688 
L 337.917213 -36.729688 
L 337.294579 -36.729688 
L 336.671945 -36.729688 
L 336.049311 -36.729688 
L 335.426676 -36.729688 
L 334.804042 -36.729688 
L 334.181408 -36.729688 
L 333.558774 -36.729688 
L 332.93614 -36.729688 
L 332.313506 -36.729688 
L 331.690871 -36.729688 
L 331.068237 -36.729688 
L 330.445603 -36.729688 
L 329.822969 -36.729688 
L 329.200335 -36.729688 
L 328.5777 -36.729688 
L 327.955066 -36.729688 
L 327.332432 -36.729688 
L 326.709798 -36.729688 
L 326.087164 -36.729688 
L 325.46453 -36.729688 
L 324.841895 -36.729688 
L 324.219261 -36.729688 
L 323.596627 -36.729688 
L 322.973993 -36.729688 
L 322.351359 -36.729688 
L 321.728724 -36.729688 
L 321.10609 -36.729688 
L 320.483456 -36.729688 
L 319.860822 -36.729688 
L 319.238188 -36.729688 
L 318.615554 -36.729688 
L 317.992919 -36.729688 
L 317.370285 -36.729688 
L 316.747651 -36.729688 
L 316.125017 -36.729688 
L 315.502383 -36.729688 
L 314.879748 -36.729688 
L 314.257114 -36.729688 
L 313.63448 -36.729688 
L 313.011846 -36.729688 
L 312.389212 -36.729688 
L 311.766577 -36.729688 
L 311.143943 -36.729688 
L 310.521309 -36.729688 
L 309.898675 -36.729688 
L 309.276041 -36.729688 
L 308.653407 -36.729688 
L 308.030772 -36.729688 
L 307.408138 -36.729688 
L 306.785504 -36.729688 
L 306.16287 -36.729688 
L 305.540236 -36.729688 
L 304.917601 -36.729688 
L 304.294967 -36.729688 
L 303.672333 -36.729688 
L 303.049699 -36.729688 
L 302.427065 -36.729688 
L 301.804431 -36.729688 
L 301.181796 -36.729688 
L 300.559162 -36.729688 
L 299.936528 -36.729688 
L 299.313894 -36.729688 
L 298.69126 -36.729688 
L 298.068625 -36.729688 
L 297.445991 -36.729688 
L 296.823357 -36.729688 
L 296.200723 -36.729688 
L 295.578089 -36.729688 
L 294.955454 -36.729688 
L 294.33282 -36.729688 
L 293.710186 -36.729688 
L 293.087552 -36.729688 
L 292.464918 -36.729688 
L 291.842284 -36.729688 
L 291.219649 -36.729688 
L 290.597015 -36.729688 
L 289.974381 -36.729688 
L 289.351747 -36.729688 
L 288.729113 -36.729688 
L 288.106478 -36.729688 
L 287.483844 -36.729688 
L 286.86121 -36.729688 
L 286.238576 -36.729688 
L 285.615942 -36.729688 
L 284.993308 -36.729688 
L 284.370673 -36.729688 
L 283.748039 -36.729688 
L 283.125405 -36.729688 
L 282.502771 -36.729688 
L 281.880137 -36.729688 
L 281.257502 -36.729688 
L 280.634868 -36.729688 
L 280.012234 -36.729688 
L 279.3896 -36.729688 
L 278.766966 -36.729688 
L 278.144331 -36.729688 
L 277.521697 -36.729688 
L 276.899063 -36.729688 
L 276.276429 -36.729688 
L 275.653795 -36.729688 
L 275.031161 -36.729688 
L 274.408526 -36.729688 
L 273.785892 -36.729688 
L 273.163258 -36.729688 
L 272.540624 -36.729688 
L 271.91799 -36.729688 
L 271.295355 -36.729688 
L 270.672721 -36.729688 
L 270.050087 -36.729688 
L 269.427453 -36.729688 
L 268.804819 -36.729688 
L 268.182185 -36.729688 
L 267.55955 -36.729688 
L 266.936916 -36.729688 
L 266.314282 -36.729688 
L 265.691648 -36.729688 
L 265.069014 -36.729688 
L 264.446379 -36.729688 
L 263.823745 -36.729688 
L 263.201111 -36.729688 
L 262.578477 -36.729688 
L 261.955843 -36.729688 
L 261.333208 -36.729688 
L 260.710574 -36.729688 
L 260.08794 -36.729688 
L 259.465306 -36.729688 
L 258.842672 -36.729688 
L 258.220038 -36.729688 
L 257.597403 -36.729688 
L 256.974769 -36.729688 
L 256.352135 -36.729688 
L 255.729501 -36.729688 
L 255.106867 -36.729688 
L 254.484232 -36.729688 
L 253.861598 -36.729688 
L 253.238964 -36.729688 
L 252.61633 -36.729688 
L 251.993696 -36.729688 
L 251.371062 -36.729688 
L 250.748427 -36.729688 
L 250.125793 -36.729688 
L 249.503159 -36.729688 
L 248.880525 -36.729688 
L 248.257891 -36.729688 
L 247.635256 -36.729688 
L 247.012622 -36.729688 
L 246.389988 -36.729688 
L 245.767354 -36.729688 
L 245.14472 -36.729688 
L 244.522086 -36.729688 
L 243.899451 -36.729688 
L 243.276817 -36.729688 
L 242.654183 -36.729688 
L 242.031549 -36.729688 
L 241.408915 -36.729688 
L 240.78628 -36.729688 
L 240.163646 -36.729688 
L 239.541012 -36.729688 
L 238.918378 -36.729688 
L 238.295744 -36.729688 
L 237.673109 -36.729688 
L 237.050475 -36.729688 
L 236.427841 -36.729688 
L 235.805207 -36.729688 
L 235.182573 -36.729688 
L 234.559939 -36.729688 
L 233.937304 -36.729688 
L 233.31467 -36.729688 
L 232.692036 -36.729688 
L 232.069402 -36.729688 
L 231.446768 -36.729688 
L 230.824133 -36.729688 
L 230.201499 -36.729688 
L 229.578865 -36.729688 
L 228.956231 -36.729688 
L 228.333597 -36.729688 
L 227.710963 -36.729688 
L 227.088328 -36.729688 
L 226.465694 -36.729688 
L 225.84306 -36.729688 
L 225.220426 -36.729688 
L 224.597792 -36.729688 
L 223.975157 -36.729688 
L 223.352523 -36.729688 
L 222.729889 -36.729688 
L 222.107255 -36.729688 
L 221.484621 -36.729688 
L 220.861986 -36.729688 
L 220.239352 -36.729688 
L 219.616718 -36.729688 
L 218.994084 -36.729688 
L 218.37145 -36.729688 
L 217.748816 -36.729688 
L 217.126181 -36.729688 
L 216.503547 -36.729688 
L 215.880913 -36.729688 
L 215.258279 -36.729688 
L 214.635645 -36.729688 
L 214.01301 -36.729688 
L 213.390376 -36.729688 
L 212.767742 -36.729688 
L 212.145108 -36.729688 
L 211.522474 -36.729688 
L 210.89984 -36.729688 
L 210.277205 -36.729688 
L 209.654571 -36.729688 
L 209.031937 -36.729688 
L 208.409303 -36.729688 
L 207.786669 -36.729688 
L 207.164034 -36.729688 
L 206.5414 -36.729688 
L 205.918766 -36.729688 
L 205.296132 -36.729688 
L 204.673498 -36.729688 
L 204.050863 -36.729688 
L 203.428229 -36.729688 
L 202.805595 -36.729688 
L 202.182961 -36.729688 
L 201.560327 -36.729688 
L 200.937693 -36.729688 
L 200.315058 -36.729688 
L 199.692424 -36.729688 
L 199.06979 -36.729688 
L 198.447156 -36.729688 
L 197.824522 -36.729688 
L 197.201887 -36.729688 
L 196.579253 -36.729688 
L 195.956619 -36.729688 
L 195.333985 -36.729688 
L 194.711351 -36.729688 
L 194.088717 -36.729688 
L 193.466082 -36.729688 
L 192.843448 -36.729688 
L 192.220814 -36.729688 
L 191.59818 -36.729688 
L 190.975546 -36.729688 
L 190.352911 -36.729688 
L 189.730277 -36.729688 
L 189.107643 -36.729688 
L 188.485009 -36.729688 
L 187.862375 -36.729688 
L 187.23974 -36.729688 
L 186.617106 -36.729688 
L 185.994472 -36.729688 
L 185.371838 -36.729688 
L 184.749204 -36.729688 
L 184.12657 -36.729688 
L 183.503935 -36.729688 
L 182.881301 -36.729688 
L 182.258667 -36.729688 
L 181.636033 -36.729688 
L 181.013399 -36.729688 
L 180.390764 -36.729688 
L 179.76813 -36.729688 
L 179.145496 -36.729688 
L 178.522862 -36.729688 
L 177.900228 -36.729688 
L 177.277594 -36.729688 
L 176.654959 -36.729688 
L 176.032325 -36.729688 
L 175.409691 -36.729688 
L 174.787057 -36.729688 
L 174.164423 -36.729688 
L 173.541788 -36.729688 
L 172.919154 -36.729688 
L 172.29652 -36.729688 
L 171.673886 -36.729688 
L 171.051252 -36.729688 
L 170.428618 -36.729688 
L 169.805983 -36.729688 
L 169.183349 -36.729688 
L 168.560715 -36.729688 
L 167.938081 -36.729688 
L 167.315447 -36.729688 
L 166.692812 -36.729688 
L 166.070178 -36.729688 
L 165.447544 -36.729688 
L 164.82491 -36.729688 
L 164.202276 -36.729688 
L 163.579641 -36.729688 
L 162.957007 -36.729688 
L 162.334373 -36.729688 
L 161.711739 -36.729688 
L 161.089105 -36.729688 
L 160.466471 -36.729688 
L 159.843836 -36.729688 
L 159.221202 -36.729688 
L 158.598568 -36.729688 
L 157.975934 -36.729688 
L 157.3533 -36.729688 
L 156.730665 -36.729688 
L 156.108031 -36.729688 
L 155.485397 -36.729688 
L 154.862763 -36.729688 
L 154.240129 -36.729688 
L 153.617495 -36.729688 
L 152.99486 -36.729688 
L 152.372226 -36.729688 
L 151.749592 -36.729688 
L 151.126958 -36.729688 
L 150.504324 -36.729688 
L 149.881689 -36.729688 
L 149.259055 -36.729688 
L 148.636421 -36.729688 
L 148.013787 -36.729688 
L 147.391153 -36.729688 
L 146.768518 -36.729688 
L 146.145884 -36.729688 
L 145.52325 -36.729688 
L 144.900616 -36.729688 
L 144.277982 -36.729688 
L 143.655348 -36.729688 
L 143.032713 -36.729688 
L 142.410079 -36.729688 
L 141.787445 -36.729688 
L 141.164811 -36.729688 
L 140.542177 -36.729688 
L 139.919542 -36.729688 
L 139.296908 -36.729688 
L 138.674274 -36.729688 
L 138.05164 -36.729688 
L 137.429006 -36.729688 
L 136.806372 -36.729688 
L 136.183737 -36.729688 
L 135.561103 -36.729688 
L 134.938469 -36.729688 
L 134.315835 -36.729688 
L 133.693201 -36.729688 
L 133.070566 -36.729688 
L 132.447932 -36.729688 
L 131.825298 -36.729688 
L 131.202664 -36.729688 
L 130.58003 -36.729688 
L 129.957395 -36.729688 
L 129.334761 -36.729688 
L 128.712127 -36.729688 
L 128.089493 -36.729688 
L 127.466859 -36.729688 
L 126.844225 -36.729688 
L 126.22159 -36.729688 
L 125.598956 -36.729688 
L 124.976322 -36.729688 
L 124.353688 -36.729688 
L 123.731054 -36.729688 
L 123.108419 -36.729688 
L 122.485785 -36.729688 
L 121.863151 -36.729688 
L 121.240517 -36.729688 
L 120.617883 -36.729688 
L 119.995249 -36.729688 
L 119.372614 -36.729688 
L 118.74998 -36.729688 
L 118.127346 -36.729688 
L 117.504712 -36.729688 
L 116.882078 -36.729688 
L 116.259443 -36.729688 
L 115.636809 -36.729688 
L 115.014175 -36.729688 
L 114.391541 -36.729688 
L 113.768907 -36.729688 
L 113.146272 -36.729688 
L 112.523638 -36.729688 
L 111.901004 -36.729688 
L 111.27837 -36.729688 
L 110.655736 -36.729688 
L 110.033102 -36.729688 
L 109.410467 -36.729688 
L 108.787833 -36.729688 
L 108.165199 -36.729688 
L 107.542565 -36.729688 
L 106.919931 -36.729688 
L 106.297296 -36.729688 
L 105.674662 -36.729688 
L 105.052028 -36.729688 
L 104.429394 -36.729688 
L 103.80676 -36.729688 
L 103.184126 -36.729688 
L 102.561491 -36.729688 
L 101.938857 -36.729688 
L 101.316223 -36.729688 
L 100.693589 -36.729688 
L 100.070955 -36.729688 
L 99.44832 -36.729688 
L 98.825686 -36.729688 
L 98.203052 -36.729688 
L 97.580418 -36.729688 
L 96.957784 -36.729688 
L 96.33515 -36.729688 
L 95.712515 -36.729688 
L 95.089881 -36.729688 
L 94.467247 -36.729688 
L 93.844613 -36.729688 
L 93.221979 -36.729688 
L 92.599344 -36.729688 
L 91.97671 -36.729688 
L 91.354076 -36.729688 
L 90.731442 -36.729688 
L 90.108808 -36.729688 
L 89.486173 -36.729688 
L 88.863539 -36.729688 
L 88.240905 -36.729688 
L 87.618271 -36.729688 
L 86.995637 -36.729688 
L 86.373003 -36.729688 
L 85.750368 -36.729688 
L 85.127734 -36.729688 
L 84.5051 -36.729688 
L 83.882466 -36.729688 
L 83.259832 -36.729688 
L 82.637197 -36.729688 
L 82.014563 -36.729688 
L 81.391929 -36.729688 
L 80.769295 -36.729688 
L 80.146661 -36.729688 
L 79.524027 -36.729688 
L 78.901392 -36.729688 
L 78.278758 -36.729688 
L 77.656124 -36.729688 
L 77.03349 -36.729688 
L 76.410856 -36.729688 
L 75.788221 -36.729688 
L 75.165587 -36.729688 
L 74.542953 -36.729688 
L 73.920319 -36.729688 
L 73.297685 -36.729688 
L 72.67505 -36.729688 
L 72.052416 -36.729688 
L 71.429782 -36.729688 
L 70.807148 -36.729688 
L 70.184514 -36.729688 
L 69.56188 -36.729688 
L 68.939245 -36.729688 
L 68.316611 -36.729688 
L 67.693977 -36.729688 
L 67.071343 -36.729688 
L 66.448709 -36.729688 
L 65.826074 -36.729688 
L 65.20344 -36.729688 
L 64.580806 -36.729688 
L 63.958172 -36.729688 
L 63.335538 -36.729688 
L 62.712904 -36.729688 
L 62.090269 -36.729688 
L 61.467635 -36.729688 
L 60.845001 -36.729688 
L 60.222367 -36.729688 
L 59.599733 -36.729688 
L 58.977098 -36.729688 
L 58.354464 -36.729688 
L 57.73183 -36.729688 
L 57.109196 -36.729688 
L 56.486562 -36.729688 
L 55.863927 -36.729688 
L 55.241293 -36.729688 
L 54.618659 -36.729688 
L 53.996025 -36.729688 
L 53.373391 -36.729688 
L 52.750757 -36.729688 
L 52.128122 -36.729688 
L 51.505488 -36.729688 
L 50.882854 -36.729688 
L 50.26022 -36.729688 
L 49.637586 -36.729688 
L 49.014951 -36.729688 
L 48.392317 -36.729688 
L 47.769683 -36.729688 
L 47.147049 -36.729688 
L 46.524415 -36.729688 
L 45.901781 -36.729688 
L 45.279146 -36.729688 
L 44.656512 -36.729688 
L 44.033878 -36.729688 
L 43.411244 -36.729688 
L 42.78861 -36.729688 
L 42.165975 -36.729688 
L 41.543341 -36.729688 
L 40.920707 -36.729688 
L 40.298073 -36.729688 
L 39.675439 -36.729688 
L 39.052805 -36.729688 
L 38.43017 -36.729688 
L 37.807536 -36.729688 
L 37.184902 -36.729688 
L 36.562268 -36.729688 
L 35.939634 -36.729688 
L 35.316999 -36.729688 
L 34.694365 -36.729688 
L 34.071731 -36.729688 
L 33.449097 -36.729688 
L 32.826463 -36.729688 
L 32.203828 -36.729688 
L 31.581194 -36.729688 
L 30.95856 -36.729688 
L 30.335926 -36.729688 
L 29.713292 -36.729688 
L 29.090658 -36.729688 
L 28.468023 -36.729688 
L 27.845389 -36.729688 
L 27.222755 -36.729688 
L 26.600121 -36.729688 
L 25.977487 -36.729688 
L 25.354852 -36.729688 
L 24.732218 -36.729688 
L 24.109584 -36.729688 
L 23.48695 -36.729688 
L 22.864316 -36.729688 
L 22.241682 -36.729688 
L 21.619047 -36.729688 
L 20.996413 -36.729688 
L 20.373779 -36.729688 
L 19.751145 -36.729688 
L 19.128511 -36.729688 
L 18.505876 -36.729688 
L 17.883242 -36.729688 
L 17.260608 -36.729688 
L 16.637974 -36.729688 
L 16.01534 -36.729688 
L 15.392705 -36.729688 
L 14.770071 -36.729688 
L 14.147437 -36.729688 
L 13.524803 -36.729688 
L 12.902169 -36.729688 
L 12.279535 -36.729688 
L 11.6569 -36.729688 
L 11.034266 -36.729688 
L 10.411632 -36.729688 
L 9.788998 -36.729688 
L 9.166364 -36.729688 
L 8.543729 -36.729688 
L 7.921095 -36.729688 
L 7.298461 -36.729688 
L 6.675827 -36.729688 
L 6.053193 -36.729688 
L 5.430559 -36.729688 
L 4.807924 -36.729688 
L 4.18529 -36.729688 
L 3.562656 -36.729688 
L 2.940022 -36.729688 
L 2.317388 -36.729688 
L 1.694753 -36.729688 
L 1.072119 -36.729688 
L 0.449485 -36.729688 
L -0.173149 -36.729688 
L -0.795783 -36.729688 
L -1.418418 -36.729688 
L -2.041052 -36.729688 
L -2.663686 -36.729688 
L -3.28632 -36.729688 
L -3.908954 -36.729688 
L -4.531588 -36.729688 
L -5.154223 -36.729688 
L -5.776857 -36.729688 
L -6.399491 -36.729688 
L -7.022125 -36.729688 
L -7.644759 -36.729688 
L -8.267394 -36.729688 
L -8.890028 -36.729688 
L -9.512662 -36.729688 
L -10.135296 -36.729688 
z
" style="stroke: #4c72b0; stroke-opacity: 0.2"/>
    </defs>
    <g clip-path="url(#p47bcf61634)">
     <use xlink:href="#mde0e3b3a6a" x="0" y="154.809687" style="fill: #4c72b0; fill-opacity: 0.2; stroke: #4c72b0; stroke-opacity: 0.2"/>
    </g>
   </g>
   <g id="FillBetweenPolyCollection_2">
    <defs>
     <path id="m369be362de" d="M -10.135296 -36.729688 
L -10.135296 -36.744419 
L -9.512662 -36.745691 
L -8.890028 -36.747062 
L -8.267394 -36.74854 
L -7.644759 -36.750131 
L -7.022125 -36.751843 
L -6.399491 -36.753685 
L -5.776857 -36.755665 
L -5.154223 -36.757792 
L -4.531588 -36.760074 
L -3.908954 -36.762524 
L -3.28632 -36.765149 
L -2.663686 -36.767963 
L -2.041052 -36.770976 
L -1.418418 -36.7742 
L -0.795783 -36.777648 
L -0.173149 -36.781333 
L 0.449485 -36.785269 
L 1.072119 -36.789471 
L 1.694753 -36.793953 
L 2.317388 -36.798731 
L 2.940022 -36.803823 
L 3.562656 -36.809244 
L 4.18529 -36.815013 
L 4.807924 -36.821148 
L 5.430559 -36.827668 
L 6.053193 -36.834593 
L 6.675827 -36.841945 
L 7.298461 -36.849743 
L 7.921095 -36.85801 
L 8.543729 -36.86677 
L 9.166364 -36.876045 
L 9.788998 -36.88586 
L 10.411632 -36.89624 
L 11.034266 -36.90721 
L 11.6569 -36.918797 
L 12.279535 -36.931029 
L 12.902169 -36.943933 
L 13.524803 -36.957538 
L 14.147437 -36.971873 
L 14.770071 -36.986968 
L 15.392705 -37.002854 
L 16.01534 -37.019562 
L 16.637974 -37.037123 
L 17.260608 -37.055571 
L 17.883242 -37.074938 
L 18.505876 -37.095258 
L 19.128511 -37.116565 
L 19.751145 -37.138894 
L 20.373779 -37.162278 
L 20.996413 -37.186754 
L 21.619047 -37.212357 
L 22.241682 -37.239123 
L 22.864316 -37.267089 
L 23.48695 -37.29629 
L 24.109584 -37.326764 
L 24.732218 -37.358546 
L 25.354852 -37.391673 
L 25.977487 -37.426183 
L 26.600121 -37.462112 
L 27.222755 -37.499496 
L 27.845389 -37.538371 
L 28.468023 -37.578773 
L 29.090658 -37.620739 
L 29.713292 -37.664303 
L 30.335926 -37.7095 
L 30.95856 -37.756365 
L 31.581194 -37.804931 
L 32.203828 -37.855231 
L 32.826463 -37.907298 
L 33.449097 -37.961163 
L 34.071731 -38.016857 
L 34.694365 -38.074409 
L 35.316999 -38.133849 
L 35.939634 -38.195205 
L 36.562268 -38.258502 
L 37.184902 -38.323766 
L 37.807536 -38.391021 
L 38.43017 -38.460291 
L 39.052805 -38.531597 
L 39.675439 -38.604959 
L 40.298073 -38.680396 
L 40.920707 -38.757925 
L 41.543341 -38.837561 
L 42.165975 -38.919319 
L 42.78861 -39.003212 
L 43.411244 -39.089249 
L 44.033878 -39.177441 
L 44.656512 -39.267794 
L 45.279146 -39.360315 
L 45.901781 -39.455006 
L 46.524415 -39.551872 
L 47.147049 -39.650911 
L 47.769683 -39.752123 
L 48.392317 -39.855504 
L 49.014951 -39.96105 
L 49.637586 -40.068754 
L 50.26022 -40.178608 
L 50.882854 -40.290601 
L 51.505488 -40.404722 
L 52.128122 -40.520958 
L 52.750757 -40.639293 
L 53.373391 -40.75971 
L 53.996025 -40.882193 
L 54.618659 -41.00672 
L 55.241293 -41.133271 
L 55.863927 -41.261824 
L 56.486562 -41.392354 
L 57.109196 -41.524836 
L 57.73183 -41.659245 
L 58.354464 -41.795553 
L 58.977098 -41.93373 
L 59.599733 -42.073749 
L 60.222367 -42.215578 
L 60.845001 -42.359186 
L 61.467635 -42.504542 
L 62.090269 -42.651613 
L 62.712904 -42.800365 
L 63.335538 -42.950765 
L 63.958172 -43.102779 
L 64.580806 -43.256373 
L 65.20344 -43.411512 
L 65.826074 -43.568161 
L 66.448709 -43.726286 
L 67.071343 -43.885852 
L 67.693977 -44.046825 
L 68.316611 -44.209169 
L 68.939245 -44.372851 
L 69.56188 -44.537838 
L 70.184514 -44.704096 
L 70.807148 -44.871592 
L 71.429782 -45.040294 
L 72.052416 -45.210171 
L 72.67505 -45.381192 
L 73.297685 -45.553328 
L 73.920319 -45.726549 
L 74.542953 -45.900827 
L 75.165587 -46.076135 
L 75.788221 -46.252448 
L 76.410856 -46.42974 
L 77.03349 -46.607987 
L 77.656124 -46.787168 
L 78.278758 -46.96726 
L 78.901392 -47.148243 
L 79.524027 -47.330099 
L 80.146661 -47.512809 
L 80.769295 -47.696358 
L 81.391929 -47.880731 
L 82.014563 -48.065913 
L 82.637197 -48.251894 
L 83.259832 -48.438661 
L 83.882466 -48.626205 
L 84.5051 -48.814518 
L 85.127734 -49.003593 
L 85.750368 -49.193424 
L 86.373003 -49.384007 
L 86.995637 -49.575339 
L 87.618271 -49.767418 
L 88.240905 -49.960244 
L 88.863539 -50.153817 
L 89.486173 -50.348139 
L 90.108808 -50.543213 
L 90.731442 -50.739043 
L 91.354076 -50.935635 
L 91.97671 -51.132993 
L 92.599344 -51.331127 
L 93.221979 -51.530042 
L 93.844613 -51.72975 
L 94.467247 -51.930259 
L 95.089881 -52.13158 
L 95.712515 -52.333724 
L 96.33515 -52.536704 
L 96.957784 -52.740532 
L 97.580418 -52.945222 
L 98.203052 -53.150788 
L 98.825686 -53.357244 
L 99.44832 -53.564604 
L 100.070955 -53.772885 
L 100.693589 -53.982101 
L 101.316223 -54.19227 
L 101.938857 -54.403407 
L 102.561491 -54.615529 
L 103.184126 -54.828651 
L 103.80676 -55.042793 
L 104.429394 -55.257969 
L 105.052028 -55.474198 
L 105.674662 -55.691495 
L 106.297296 -55.909879 
L 106.919931 -56.129366 
L 107.542565 -56.349973 
L 108.165199 -56.571716 
L 108.787833 -56.794613 
L 109.410467 -57.018679 
L 110.033102 -57.24393 
L 110.655736 -57.470383 
L 111.27837 -57.698053 
L 111.901004 -57.926955 
L 112.523638 -58.157105 
L 113.146272 -58.388517 
L 113.768907 -58.621205 
L 114.391541 -58.855183 
L 115.014175 -59.090465 
L 115.636809 -59.327064 
L 116.259443 -59.564992 
L 116.882078 -59.804263 
L 117.504712 -60.044886 
L 118.127346 -60.286875 
L 118.74998 -60.530239 
L 119.372614 -60.77499 
L 119.995249 -61.021137 
L 120.617883 -61.268689 
L 121.240517 -61.517656 
L 121.863151 -61.768047 
L 122.485785 -62.019868 
L 123.108419 -62.273128 
L 123.731054 -62.527834 
L 124.353688 -62.783992 
L 124.976322 -63.041608 
L 125.598956 -63.300688 
L 126.22159 -63.561237 
L 126.844225 -63.82326 
L 127.466859 -64.086761 
L 128.089493 -64.351743 
L 128.712127 -64.61821 
L 129.334761 -64.886164 
L 129.957395 -65.155608 
L 130.58003 -65.426544 
L 131.202664 -65.698972 
L 131.825298 -65.972895 
L 132.447932 -66.248312 
L 133.070566 -66.525224 
L 133.693201 -66.803631 
L 134.315835 -67.083531 
L 134.938469 -67.364923 
L 135.561103 -67.647807 
L 136.183737 -67.93218 
L 136.806372 -68.21804 
L 137.429006 -68.505384 
L 138.05164 -68.794209 
L 138.674274 -69.084512 
L 139.296908 -69.376289 
L 139.919542 -69.669536 
L 140.542177 -69.964249 
L 141.164811 -70.260422 
L 141.787445 -70.558051 
L 142.410079 -70.85713 
L 143.032713 -71.157653 
L 143.655348 -71.459614 
L 144.277982 -71.763007 
L 144.900616 -72.067824 
L 145.52325 -72.37406 
L 146.145884 -72.681706 
L 146.768518 -72.990754 
L 147.391153 -73.301198 
L 148.013787 -73.613028 
L 148.636421 -73.926236 
L 149.259055 -74.240813 
L 149.881689 -74.55675 
L 150.504324 -74.874037 
L 151.126958 -75.192666 
L 151.749592 -75.512625 
L 152.372226 -75.833906 
L 152.99486 -76.156496 
L 153.617495 -76.480386 
L 154.240129 -76.805564 
L 154.862763 -77.13202 
L 155.485397 -77.459741 
L 156.108031 -77.788717 
L 156.730665 -78.118933 
L 157.3533 -78.45038 
L 157.975934 -78.783043 
L 158.598568 -79.116911 
L 159.221202 -79.451969 
L 159.843836 -79.788206 
L 160.466471 -80.125606 
L 161.089105 -80.464157 
L 161.711739 -80.803845 
L 162.334373 -81.144654 
L 162.957007 -81.486572 
L 163.579641 -81.829582 
L 164.202276 -82.17367 
L 164.82491 -82.51882 
L 165.447544 -82.865018 
L 166.070178 -83.212247 
L 166.692812 -83.560492 
L 167.315447 -83.909737 
L 167.938081 -84.259964 
L 168.560715 -84.611158 
L 169.183349 -84.963301 
L 169.805983 -85.316377 
L 170.428618 -85.670368 
L 171.051252 -86.025257 
L 171.673886 -86.381026 
L 172.29652 -86.737656 
L 172.919154 -87.095131 
L 173.541788 -87.453431 
L 174.164423 -87.812537 
L 174.787057 -88.172432 
L 175.409691 -88.533095 
L 176.032325 -88.894508 
L 176.654959 -89.256651 
L 177.277594 -89.619505 
L 177.900228 -89.983048 
L 178.522862 -90.347263 
L 179.145496 -90.712127 
L 179.76813 -91.077621 
L 180.390764 -91.443723 
L 181.013399 -91.810413 
L 181.636033 -92.17767 
L 182.258667 -92.545472 
L 182.881301 -92.913798 
L 183.503935 -93.282626 
L 184.12657 -93.651935 
L 184.749204 -94.021701 
L 185.371838 -94.391902 
L 185.994472 -94.762517 
L 186.617106 -95.133522 
L 187.23974 -95.504895 
L 187.862375 -95.876612 
L 188.485009 -96.248651 
L 189.107643 -96.620987 
L 189.730277 -96.993597 
L 190.352911 -97.366458 
L 190.975546 -97.739545 
L 191.59818 -98.112835 
L 192.220814 -98.486302 
L 192.843448 -98.859923 
L 193.466082 -99.233673 
L 194.088717 -99.607527 
L 194.711351 -99.981461 
L 195.333985 -100.355448 
L 195.956619 -100.729464 
L 196.579253 -101.103484 
L 197.201887 -101.477481 
L 197.824522 -101.851431 
L 198.447156 -102.225306 
L 199.06979 -102.599082 
L 199.692424 -102.972733 
L 200.315058 -103.346231 
L 200.937693 -103.71955 
L 201.560327 -104.092665 
L 202.182961 -104.465548 
L 202.805595 -104.838172 
L 203.428229 -105.210511 
L 204.050863 -105.582537 
L 204.673498 -105.954224 
L 205.296132 -106.325544 
L 205.918766 -106.69647 
L 206.5414 -107.066974 
L 207.164034 -107.437029 
L 207.786669 -107.806607 
L 208.409303 -108.175681 
L 209.031937 -108.544222 
L 209.654571 -108.912202 
L 210.277205 -109.279595 
L 210.89984 -109.64637 
L 211.522474 -110.012501 
L 212.145108 -110.377958 
L 212.767742 -110.742715 
L 213.390376 -111.106741 
L 214.01301 -111.470009 
L 214.635645 -111.832491 
L 215.258279 -112.194157 
L 215.880913 -112.554978 
L 216.503547 -112.914927 
L 217.126181 -113.273975 
L 217.748816 -113.632092 
L 218.37145 -113.98925 
L 218.994084 -114.34542 
L 219.616718 -114.700573 
L 220.239352 -115.054681 
L 220.861986 -115.407713 
L 221.484621 -115.759642 
L 222.107255 -116.110438 
L 222.729889 -116.460072 
L 223.352523 -116.808515 
L 223.975157 -117.155739 
L 224.597792 -117.501713 
L 225.220426 -117.84641 
L 225.84306 -118.1898 
L 226.465694 -118.531854 
L 227.088328 -118.872543 
L 227.710963 -119.211839 
L 228.333597 -119.549711 
L 228.956231 -119.886132 
L 229.578865 -120.221072 
L 230.201499 -120.554503 
L 230.824133 -120.886396 
L 231.446768 -121.216722 
L 232.069402 -121.545452 
L 232.692036 -121.872557 
L 233.31467 -122.19801 
L 233.937304 -122.521781 
L 234.559939 -122.843842 
L 235.182573 -123.164164 
L 235.805207 -123.48272 
L 236.427841 -123.79948 
L 237.050475 -124.114417 
L 237.673109 -124.427503 
L 238.295744 -124.738709 
L 238.918378 -125.048008 
L 239.541012 -125.355371 
L 240.163646 -125.660772 
L 240.78628 -125.964182 
L 241.408915 -126.265574 
L 242.031549 -126.56492 
L 242.654183 -126.862194 
L 243.276817 -127.157368 
L 243.899451 -127.450414 
L 244.522086 -127.741307 
L 245.14472 -128.030019 
L 245.767354 -128.316524 
L 246.389988 -128.600795 
L 247.012622 -128.882805 
L 247.635256 -129.16253 
L 248.257891 -129.439942 
L 248.880525 -129.715015 
L 249.503159 -129.987725 
L 250.125793 -130.258045 
L 250.748427 -130.525949 
L 251.371062 -130.791414 
L 251.993696 -131.054414 
L 252.61633 -131.314923 
L 253.238964 -131.572918 
L 253.861598 -131.828373 
L 254.484232 -132.081265 
L 255.106867 -132.331569 
L 255.729501 -132.579262 
L 256.352135 -132.824319 
L 256.974769 -133.066718 
L 257.597403 -133.306435 
L 258.220038 -133.543447 
L 258.842672 -133.777732 
L 259.465306 -134.009266 
L 260.08794 -134.238027 
L 260.710574 -134.463993 
L 261.333208 -134.687142 
L 261.955843 -134.907453 
L 262.578477 -135.124905 
L 263.201111 -135.339475 
L 263.823745 -135.551143 
L 264.446379 -135.759888 
L 265.069014 -135.96569 
L 265.691648 -136.168529 
L 266.314282 -136.368385 
L 266.936916 -136.565238 
L 267.55955 -136.759069 
L 268.182185 -136.949859 
L 268.804819 -137.137588 
L 269.427453 -137.322239 
L 270.050087 -137.503793 
L 270.672721 -137.682232 
L 271.295355 -137.857538 
L 271.91799 -138.029695 
L 272.540624 -138.198684 
L 273.163258 -138.364489 
L 273.785892 -138.527094 
L 274.408526 -138.686482 
L 275.031161 -138.842638 
L 275.653795 -138.995545 
L 276.276429 -139.145189 
L 276.899063 -139.291554 
L 277.521697 -139.434627 
L 278.144331 -139.574391 
L 278.766966 -139.710834 
L 279.3896 -139.843942 
L 280.012234 -139.973701 
L 280.634868 -140.100099 
L 281.257502 -140.223122 
L 281.880137 -140.342758 
L 282.502771 -140.458995 
L 283.125405 -140.571821 
L 283.748039 -140.681226 
L 284.370673 -140.787197 
L 284.993308 -140.889724 
L 285.615942 -140.988796 
L 286.238576 -141.084405 
L 286.86121 -141.176539 
L 287.483844 -141.26519 
L 288.106478 -141.350349 
L 288.729113 -141.432006 
L 289.351747 -141.510154 
L 289.974381 -141.584785 
L 290.597015 -141.655891 
L 291.219649 -141.723464 
L 291.842284 -141.787499 
L 292.464918 -141.847988 
L 293.087552 -141.904925 
L 293.710186 -141.958305 
L 294.33282 -142.008121 
L 294.955454 -142.05437 
L 295.578089 -142.097046 
L 296.200723 -142.136144 
L 296.823357 -142.171661 
L 297.445991 -142.203594 
L 298.068625 -142.231939 
L 298.69126 -142.256692 
L 299.313894 -142.277852 
L 299.936528 -142.295417 
L 300.559162 -142.309384 
L 301.181796 -142.319752 
L 301.804431 -142.32652 
L 302.427065 -142.329687 
L 303.049699 -142.329254 
L 303.672333 -142.32522 
L 304.294967 -142.317585 
L 304.917601 -142.30635 
L 305.540236 -142.291517 
L 306.16287 -142.273087 
L 306.785504 -142.251062 
L 307.408138 -142.225444 
L 308.030772 -142.196235 
L 308.653407 -142.163439 
L 309.276041 -142.127059 
L 309.898675 -142.087099 
L 310.521309 -142.043563 
L 311.143943 -141.996455 
L 311.766577 -141.94578 
L 312.389212 -141.891544 
L 313.011846 -141.833751 
L 313.63448 -141.772408 
L 314.257114 -141.707521 
L 314.879748 -141.639097 
L 315.502383 -141.567142 
L 316.125017 -141.491664 
L 316.747651 -141.41267 
L 317.370285 -141.330169 
L 317.992919 -141.244169 
L 318.615554 -141.154679 
L 319.238188 -141.061707 
L 319.860822 -140.965264 
L 320.483456 -140.865359 
L 321.10609 -140.762002 
L 321.728724 -140.655203 
L 322.351359 -140.544974 
L 322.973993 -140.431326 
L 323.596627 -140.314269 
L 324.219261 -140.193817 
L 324.841895 -140.069981 
L 325.46453 -139.942773 
L 326.087164 -139.812206 
L 326.709798 -139.678294 
L 327.332432 -139.54105 
L 327.955066 -139.400488 
L 328.5777 -139.256622 
L 329.200335 -139.109466 
L 329.822969 -138.959035 
L 330.445603 -138.805345 
L 331.068237 -138.648409 
L 331.690871 -138.488246 
L 332.313506 -138.324869 
L 332.93614 -138.158296 
L 333.558774 -137.988542 
L 334.181408 -137.815626 
L 334.804042 -137.639564 
L 335.426676 -137.460374 
L 336.049311 -137.278073 
L 336.671945 -137.092679 
L 337.294579 -136.904211 
L 337.917213 -136.712688 
L 338.539847 -136.518128 
L 339.162482 -136.32055 
L 339.785116 -136.119975 
L 340.40775 -135.916421 
L 341.030384 -135.709908 
L 341.653018 -135.500457 
L 342.275653 -135.288089 
L 342.898287 -135.072823 
L 343.520921 -134.854682 
L 344.143555 -134.633685 
L 344.766189 -134.409856 
L 345.388823 -134.183215 
L 346.011458 -133.953784 
L 346.634092 -133.721586 
L 347.256726 -133.486643 
L 347.87936 -133.248978 
L 348.501994 -133.008613 
L 349.124629 -132.765572 
L 349.747263 -132.519878 
L 350.369897 -132.271555 
L 350.992531 -132.020626 
L 351.615165 -131.767114 
L 352.237799 -131.511046 
L 352.860434 -131.252443 
L 353.483068 -130.991332 
L 354.105702 -130.727737 
L 354.728336 -130.461683 
L 355.35097 -130.193194 
L 355.973605 -129.922297 
L 356.596239 -129.649016 
L 357.218873 -129.373377 
L 357.841507 -129.095406 
L 358.464141 -128.815129 
L 359.086776 -128.532572 
L 359.70941 -128.247761 
L 360.332044 -127.960723 
L 360.954678 -127.671483 
L 361.577312 -127.380069 
L 362.199946 -127.086508 
L 362.822581 -126.790827 
L 363.445215 -126.493052 
L 364.067849 -126.19321 
L 364.690483 -125.89133 
L 365.313117 -125.587438 
L 365.935752 -125.281563 
L 366.558386 -124.973731 
L 367.18102 -124.66397 
L 367.803654 -124.352309 
L 368.426288 -124.038775 
L 369.048922 -123.723397 
L 369.671557 -123.406202 
L 370.294191 -123.087218 
L 370.916825 -122.766475 
L 371.539459 -122.444 
L 372.162093 -122.119821 
L 372.784728 -121.793968 
L 373.407362 -121.466469 
L 374.029996 -121.137353 
L 374.65263 -120.806647 
L 375.275264 -120.474381 
L 375.897899 -120.140585 
L 376.520533 -119.805285 
L 377.143167 -119.468512 
L 377.765801 -119.130295 
L 378.388435 -118.790661 
L 379.011069 -118.449641 
L 379.633704 -118.107262 
L 380.256338 -117.763555 
L 380.878972 -117.418548 
L 381.501606 -117.07227 
L 382.12424 -116.724751 
L 382.746875 -116.376018 
L 383.369509 -116.026102 
L 383.992143 -115.67503 
L 384.614777 -115.322833 
L 385.237411 -114.96954 
L 385.860045 -114.615178 
L 386.48268 -114.259777 
L 387.105314 -113.903367 
L 387.727948 -113.545975 
L 388.350582 -113.187632 
L 388.973216 -112.828364 
L 389.595851 -112.468203 
L 390.218485 -112.107175 
L 390.841119 -111.74531 
L 391.463753 -111.382637 
L 392.086387 -111.019184 
L 392.709021 -110.654979 
L 393.331656 -110.290051 
L 393.95429 -109.924429 
L 394.576924 -109.55814 
L 395.199558 -109.191214 
L 395.822192 -108.823678 
L 396.444827 -108.45556 
L 397.067461 -108.086888 
L 397.690095 -107.71769 
L 398.312729 -107.347995 
L 398.935363 -106.977829 
L 399.557998 -106.607221 
L 400.180632 -106.236198 
L 400.803266 -105.864787 
L 400.803266 -36.729688 
L 400.803266 -36.729688 
L 400.180632 -36.729688 
L 399.557998 -36.729688 
L 398.935363 -36.729688 
L 398.312729 -36.729688 
L 397.690095 -36.729688 
L 397.067461 -36.729688 
L 396.444827 -36.729688 
L 395.822192 -36.729688 
L 395.199558 -36.729688 
L 394.576924 -36.729688 
L 393.95429 -36.729688 
L 393.331656 -36.729688 
L 392.709021 -36.729688 
L 392.086387 -36.729688 
L 391.463753 -36.729688 
L 390.841119 -36.729688 
L 390.218485 -36.729688 
L 389.595851 -36.729688 
L 388.973216 -36.729688 
L 388.350582 -36.729688 
L 387.727948 -36.729688 
L 387.105314 -36.729688 
L 386.48268 -36.729688 
L 385.860045 -36.729688 
L 385.237411 -36.729688 
L 384.614777 -36.729688 
L 383.992143 -36.729688 
L 383.369509 -36.729688 
L 382.746875 -36.729688 
L 382.12424 -36.729688 
L 381.501606 -36.729688 
L 380.878972 -36.729688 
L 380.256338 -36.729688 
L 379.633704 -36.729688 
L 379.011069 -36.729688 
L 378.388435 -36.729688 
L 377.765801 -36.729688 
L 377.143167 -36.729688 
L 376.520533 -36.729688 
L 375.897899 -36.729688 
L 375.275264 -36.729688 
L 374.65263 -36.729688 
L 374.029996 -36.729688 
L 373.407362 -36.729688 
L 372.784728 -36.729688 
L 372.162093 -36.729688 
L 371.539459 -36.729688 
L 370.916825 -36.729688 
L 370.294191 -36.729688 
L 369.671557 -36.729688 
L 369.048922 -36.729688 
L 368.426288 -36.729688 
L 367.803654 -36.729688 
L 367.18102 -36.729688 
L 366.558386 -36.729688 
L 365.935752 -36.729688 
L 365.313117 -36.729688 
L 364.690483 -36.729688 
L 364.067849 -36.729688 
L 363.445215 -36.729688 
L 362.822581 -36.729688 
L 362.199946 -36.729688 
L 361.577312 -36.729688 
L 360.954678 -36.729688 
L 360.332044 -36.729688 
L 359.70941 -36.729688 
L 359.086776 -36.729688 
L 358.464141 -36.729688 
L 357.841507 -36.729688 
L 357.218873 -36.729688 
L 356.596239 -36.729688 
L 355.973605 -36.729688 
L 355.35097 -36.729688 
L 354.728336 -36.729688 
L 354.105702 -36.729688 
L 353.483068 -36.729688 
L 352.860434 -36.729688 
L 352.237799 -36.729688 
L 351.615165 -36.729688 
L 350.992531 -36.729688 
L 350.369897 -36.729688 
L 349.747263 -36.729688 
L 349.124629 -36.729688 
L 348.501994 -36.729688 
L 347.87936 -36.729688 
L 347.256726 -36.729688 
L 346.634092 -36.729688 
L 346.011458 -36.729688 
L 345.388823 -36.729688 
L 344.766189 -36.729688 
L 344.143555 -36.729688 
L 343.520921 -36.729688 
L 342.898287 -36.729688 
L 342.275653 -36.729688 
L 341.653018 -36.729688 
L 341.030384 -36.729688 
L 340.40775 -36.729688 
L 339.785116 -36.729688 
L 339.162482 -36.729688 
L 338.539847 -36.729688 
L 337.917213 -36.729688 
L 337.294579 -36.729688 
L 336.671945 -36.729688 
L 336.049311 -36.729688 
L 335.426676 -36.729688 
L 334.804042 -36.729688 
L 334.181408 -36.729688 
L 333.558774 -36.729688 
L 332.93614 -36.729688 
L 332.313506 -36.729688 
L 331.690871 -36.729688 
L 331.068237 -36.729688 
L 330.445603 -36.729688 
L 329.822969 -36.729688 
L 329.200335 -36.729688 
L 328.5777 -36.729688 
L 327.955066 -36.729688 
L 327.332432 -36.729688 
L 326.709798 -36.729688 
L 326.087164 -36.729688 
L 325.46453 -36.729688 
L 324.841895 -36.729688 
L 324.219261 -36.729688 
L 323.596627 -36.729688 
L 322.973993 -36.729688 
L 322.351359 -36.729688 
L 321.728724 -36.729688 
L 321.10609 -36.729688 
L 320.483456 -36.729688 
L 319.860822 -36.729688 
L 319.238188 -36.729688 
L 318.615554 -36.729688 
L 317.992919 -36.729688 
L 317.370285 -36.729688 
L 316.747651 -36.729688 
L 316.125017 -36.729688 
L 315.502383 -36.729688 
L 314.879748 -36.729688 
L 314.257114 -36.729688 
L 313.63448 -36.729688 
L 313.011846 -36.729688 
L 312.389212 -36.729688 
L 311.766577 -36.729688 
L 311.143943 -36.729688 
L 310.521309 -36.729688 
L 309.898675 -36.729688 
L 309.276041 -36.729688 
L 308.653407 -36.729688 
L 308.030772 -36.729688 
L 307.408138 -36.729688 
L 306.785504 -36.729688 
L 306.16287 -36.729688 
L 305.540236 -36.729688 
L 304.917601 -36.729688 
L 304.294967 -36.729688 
L 303.672333 -36.729688 
L 303.049699 -36.729688 
L 302.427065 -36.729688 
L 301.804431 -36.729688 
L 301.181796 -36.729688 
L 300.559162 -36.729688 
L 299.936528 -36.729688 
L 299.313894 -36.729688 
L 298.69126 -36.729688 
L 298.068625 -36.729688 
L 297.445991 -36.729688 
L 296.823357 -36.729688 
L 296.200723 -36.729688 
L 295.578089 -36.729688 
L 294.955454 -36.729688 
L 294.33282 -36.729688 
L 293.710186 -36.729688 
L 293.087552 -36.729688 
L 292.464918 -36.729688 
L 291.842284 -36.729688 
L 291.219649 -36.729688 
L 290.597015 -36.729688 
L 289.974381 -36.729688 
L 289.351747 -36.729688 
L 288.729113 -36.729688 
L 288.106478 -36.729688 
L 287.483844 -36.729688 
L 286.86121 -36.729688 
L 286.238576 -36.729688 
L 285.615942 -36.729688 
L 284.993308 -36.729688 
L 284.370673 -36.729688 
L 283.748039 -36.729688 
L 283.125405 -36.729688 
L 282.502771 -36.729688 
L 281.880137 -36.729688 
L 281.257502 -36.729688 
L 280.634868 -36.729688 
L 280.012234 -36.729688 
L 279.3896 -36.729688 
L 278.766966 -36.729688 
L 278.144331 -36.729688 
L 277.521697 -36.729688 
L 276.899063 -36.729688 
L 276.276429 -36.729688 
L 275.653795 -36.729688 
L 275.031161 -36.729688 
L 274.408526 -36.729688 
L 273.785892 -36.729688 
L 273.163258 -36.729688 
L 272.540624 -36.729688 
L 271.91799 -36.729688 
L 271.295355 -36.729688 
L 270.672721 -36.729688 
L 270.050087 -36.729688 
L 269.427453 -36.729688 
L 268.804819 -36.729688 
L 268.182185 -36.729688 
L 267.55955 -36.729688 
L 266.936916 -36.729688 
L 266.314282 -36.729688 
L 265.691648 -36.729688 
L 265.069014 -36.729688 
L 264.446379 -36.729688 
L 263.823745 -36.729688 
L 263.201111 -36.729688 
L 262.578477 -36.729688 
L 261.955843 -36.729688 
L 261.333208 -36.729688 
L 260.710574 -36.729688 
L 260.08794 -36.729688 
L 259.465306 -36.729688 
L 258.842672 -36.729688 
L 258.220038 -36.729688 
L 257.597403 -36.729688 
L 256.974769 -36.729688 
L 256.352135 -36.729688 
L 255.729501 -36.729688 
L 255.106867 -36.729688 
L 254.484232 -36.729688 
L 253.861598 -36.729688 
L 253.238964 -36.729688 
L 252.61633 -36.729688 
L 251.993696 -36.729688 
L 251.371062 -36.729688 
L 250.748427 -36.729688 
L 250.125793 -36.729688 
L 249.503159 -36.729688 
L 248.880525 -36.729688 
L 248.257891 -36.729688 
L 247.635256 -36.729688 
L 247.012622 -36.729688 
L 246.389988 -36.729688 
L 245.767354 -36.729688 
L 245.14472 -36.729688 
L 244.522086 -36.729688 
L 243.899451 -36.729688 
L 243.276817 -36.729688 
L 242.654183 -36.729688 
L 242.031549 -36.729688 
L 241.408915 -36.729688 
L 240.78628 -36.729688 
L 240.163646 -36.729688 
L 239.541012 -36.729688 
L 238.918378 -36.729688 
L 238.295744 -36.729688 
L 237.673109 -36.729688 
L 237.050475 -36.729688 
L 236.427841 -36.729688 
L 235.805207 -36.729688 
L 235.182573 -36.729688 
L 234.559939 -36.729688 
L 233.937304 -36.729688 
L 233.31467 -36.729688 
L 232.692036 -36.729688 
L 232.069402 -36.729688 
L 231.446768 -36.729688 
L 230.824133 -36.729688 
L 230.201499 -36.729688 
L 229.578865 -36.729688 
L 228.956231 -36.729688 
L 228.333597 -36.729688 
L 227.710963 -36.729688 
L 227.088328 -36.729688 
L 226.465694 -36.729688 
L 225.84306 -36.729688 
L 225.220426 -36.729688 
L 224.597792 -36.729688 
L 223.975157 -36.729688 
L 223.352523 -36.729688 
L 222.729889 -36.729688 
L 222.107255 -36.729688 
L 221.484621 -36.729688 
L 220.861986 -36.729688 
L 220.239352 -36.729688 
L 219.616718 -36.729688 
L 218.994084 -36.729688 
L 218.37145 -36.729688 
L 217.748816 -36.729688 
L 217.126181 -36.729688 
L 216.503547 -36.729688 
L 215.880913 -36.729688 
L 215.258279 -36.729688 
L 214.635645 -36.729688 
L 214.01301 -36.729688 
L 213.390376 -36.729688 
L 212.767742 -36.729688 
L 212.145108 -36.729688 
L 211.522474 -36.729688 
L 210.89984 -36.729688 
L 210.277205 -36.729688 
L 209.654571 -36.729688 
L 209.031937 -36.729688 
L 208.409303 -36.729688 
L 207.786669 -36.729688 
L 207.164034 -36.729688 
L 206.5414 -36.729688 
L 205.918766 -36.729688 
L 205.296132 -36.729688 
L 204.673498 -36.729688 
L 204.050863 -36.729688 
L 203.428229 -36.729688 
L 202.805595 -36.729688 
L 202.182961 -36.729688 
L 201.560327 -36.729688 
L 200.937693 -36.729688 
L 200.315058 -36.729688 
L 199.692424 -36.729688 
L 199.06979 -36.729688 
L 198.447156 -36.729688 
L 197.824522 -36.729688 
L 197.201887 -36.729688 
L 196.579253 -36.729688 
L 195.956619 -36.729688 
L 195.333985 -36.729688 
L 194.711351 -36.729688 
L 194.088717 -36.729688 
L 193.466082 -36.729688 
L 192.843448 -36.729688 
L 192.220814 -36.729688 
L 191.59818 -36.729688 
L 190.975546 -36.729688 
L 190.352911 -36.729688 
L 189.730277 -36.729688 
L 189.107643 -36.729688 
L 188.485009 -36.729688 
L 187.862375 -36.729688 
L 187.23974 -36.729688 
L 186.617106 -36.729688 
L 185.994472 -36.729688 
L 185.371838 -36.729688 
L 184.749204 -36.729688 
L 184.12657 -36.729688 
L 183.503935 -36.729688 
L 182.881301 -36.729688 
L 182.258667 -36.729688 
L 181.636033 -36.729688 
L 181.013399 -36.729688 
L 180.390764 -36.729688 
L 179.76813 -36.729688 
L 179.145496 -36.729688 
L 178.522862 -36.729688 
L 177.900228 -36.729688 
L 177.277594 -36.729688 
L 176.654959 -36.729688 
L 176.032325 -36.729688 
L 175.409691 -36.729688 
L 174.787057 -36.729688 
L 174.164423 -36.729688 
L 173.541788 -36.729688 
L 172.919154 -36.729688 
L 172.29652 -36.729688 
L 171.673886 -36.729688 
L 171.051252 -36.729688 
L 170.428618 -36.729688 
L 169.805983 -36.729688 
L 169.183349 -36.729688 
L 168.560715 -36.729688 
L 167.938081 -36.729688 
L 167.315447 -36.729688 
L 166.692812 -36.729688 
L 166.070178 -36.729688 
L 165.447544 -36.729688 
L 164.82491 -36.729688 
L 164.202276 -36.729688 
L 163.579641 -36.729688 
L 162.957007 -36.729688 
L 162.334373 -36.729688 
L 161.711739 -36.729688 
L 161.089105 -36.729688 
L 160.466471 -36.729688 
L 159.843836 -36.729688 
L 159.221202 -36.729688 
L 158.598568 -36.729688 
L 157.975934 -36.729688 
L 157.3533 -36.729688 
L 156.730665 -36.729688 
L 156.108031 -36.729688 
L 155.485397 -36.729688 
L 154.862763 -36.729688 
L 154.240129 -36.729688 
L 153.617495 -36.729688 
L 152.99486 -36.729688 
L 152.372226 -36.729688 
L 151.749592 -36.729688 
L 151.126958 -36.729688 
L 150.504324 -36.729688 
L 149.881689 -36.729688 
L 149.259055 -36.729688 
L 148.636421 -36.729688 
L 148.013787 -36.729688 
L 147.391153 -36.729688 
L 146.768518 -36.729688 
L 146.145884 -36.729688 
L 145.52325 -36.729688 
L 144.900616 -36.729688 
L 144.277982 -36.729688 
L 143.655348 -36.729688 
L 143.032713 -36.729688 
L 142.410079 -36.729688 
L 141.787445 -36.729688 
L 141.164811 -36.729688 
L 140.542177 -36.729688 
L 139.919542 -36.729688 
L 139.296908 -36.729688 
L 138.674274 -36.729688 
L 138.05164 -36.729688 
L 137.429006 -36.729688 
L 136.806372 -36.729688 
L 136.183737 -36.729688 
L 135.561103 -36.729688 
L 134.938469 -36.729688 
L 134.315835 -36.729688 
L 133.693201 -36.729688 
L 133.070566 -36.729688 
L 132.447932 -36.729688 
L 131.825298 -36.729688 
L 131.202664 -36.729688 
L 130.58003 -36.729688 
L 129.957395 -36.729688 
L 129.334761 -36.729688 
L 128.712127 -36.729688 
L 128.089493 -36.729688 
L 127.466859 -36.729688 
L 126.844225 -36.729688 
L 126.22159 -36.729688 
L 125.598956 -36.729688 
L 124.976322 -36.729688 
L 124.353688 -36.729688 
L 123.731054 -36.729688 
L 123.108419 -36.729688 
L 122.485785 -36.729688 
L 121.863151 -36.729688 
L 121.240517 -36.729688 
L 120.617883 -36.729688 
L 119.995249 -36.729688 
L 119.372614 -36.729688 
L 118.74998 -36.729688 
L 118.127346 -36.729688 
L 117.504712 -36.729688 
L 116.882078 -36.729688 
L 116.259443 -36.729688 
L 115.636809 -36.729688 
L 115.014175 -36.729688 
L 114.391541 -36.729688 
L 113.768907 -36.729688 
L 113.146272 -36.729688 
L 112.523638 -36.729688 
L 111.901004 -36.729688 
L 111.27837 -36.729688 
L 110.655736 -36.729688 
L 110.033102 -36.729688 
L 109.410467 -36.729688 
L 108.787833 -36.729688 
L 108.165199 -36.729688 
L 107.542565 -36.729688 
L 106.919931 -36.729688 
L 106.297296 -36.729688 
L 105.674662 -36.729688 
L 105.052028 -36.729688 
L 104.429394 -36.729688 
L 103.80676 -36.729688 
L 103.184126 -36.729688 
L 102.561491 -36.729688 
L 101.938857 -36.729688 
L 101.316223 -36.729688 
L 100.693589 -36.729688 
L 100.070955 -36.729688 
L 99.44832 -36.729688 
L 98.825686 -36.729688 
L 98.203052 -36.729688 
L 97.580418 -36.729688 
L 96.957784 -36.729688 
L 96.33515 -36.729688 
L 95.712515 -36.729688 
L 95.089881 -36.729688 
L 94.467247 -36.729688 
L 93.844613 -36.729688 
L 93.221979 -36.729688 
L 92.599344 -36.729688 
L 91.97671 -36.729688 
L 91.354076 -36.729688 
L 90.731442 -36.729688 
L 90.108808 -36.729688 
L 89.486173 -36.729688 
L 88.863539 -36.729688 
L 88.240905 -36.729688 
L 87.618271 -36.729688 
L 86.995637 -36.729688 
L 86.373003 -36.729688 
L 85.750368 -36.729688 
L 85.127734 -36.729688 
L 84.5051 -36.729688 
L 83.882466 -36.729688 
L 83.259832 -36.729688 
L 82.637197 -36.729688 
L 82.014563 -36.729688 
L 81.391929 -36.729688 
L 80.769295 -36.729688 
L 80.146661 -36.729688 
L 79.524027 -36.729688 
L 78.901392 -36.729688 
L 78.278758 -36.729688 
L 77.656124 -36.729688 
L 77.03349 -36.729688 
L 76.410856 -36.729688 
L 75.788221 -36.729688 
L 75.165587 -36.729688 
L 74.542953 -36.729688 
L 73.920319 -36.729688 
L 73.297685 -36.729688 
L 72.67505 -36.729688 
L 72.052416 -36.729688 
L 71.429782 -36.729688 
L 70.807148 -36.729688 
L 70.184514 -36.729688 
L 69.56188 -36.729688 
L 68.939245 -36.729688 
L 68.316611 -36.729688 
L 67.693977 -36.729688 
L 67.071343 -36.729688 
L 66.448709 -36.729688 
L 65.826074 -36.729688 
L 65.20344 -36.729688 
L 64.580806 -36.729688 
L 63.958172 -36.729688 
L 63.335538 -36.729688 
L 62.712904 -36.729688 
L 62.090269 -36.729688 
L 61.467635 -36.729688 
L 60.845001 -36.729688 
L 60.222367 -36.729688 
L 59.599733 -36.729688 
L 58.977098 -36.729688 
L 58.354464 -36.729688 
L 57.73183 -36.729688 
L 57.109196 -36.729688 
L 56.486562 -36.729688 
L 55.863927 -36.729688 
L 55.241293 -36.729688 
L 54.618659 -36.729688 
L 53.996025 -36.729688 
L 53.373391 -36.729688 
L 52.750757 -36.729688 
L 52.128122 -36.729688 
L 51.505488 -36.729688 
L 50.882854 -36.729688 
L 50.26022 -36.729688 
L 49.637586 -36.729688 
L 49.014951 -36.729688 
L 48.392317 -36.729688 
L 47.769683 -36.729688 
L 47.147049 -36.729688 
L 46.524415 -36.729688 
L 45.901781 -36.729688 
L 45.279146 -36.729688 
L 44.656512 -36.729688 
L 44.033878 -36.729688 
L 43.411244 -36.729688 
L 42.78861 -36.729688 
L 42.165975 -36.729688 
L 41.543341 -36.729688 
L 40.920707 -36.729688 
L 40.298073 -36.729688 
L 39.675439 -36.729688 
L 39.052805 -36.729688 
L 38.43017 -36.729688 
L 37.807536 -36.729688 
L 37.184902 -36.729688 
L 36.562268 -36.729688 
L 35.939634 -36.729688 
L 35.316999 -36.729688 
L 34.694365 -36.729688 
L 34.071731 -36.729688 
L 33.449097 -36.729688 
L 32.826463 -36.729688 
L 32.203828 -36.729688 
L 31.581194 -36.729688 
L 30.95856 -36.729688 
L 30.335926 -36.729688 
L 29.713292 -36.729688 
L 29.090658 -36.729688 
L 28.468023 -36.729688 
L 27.845389 -36.729688 
L 27.222755 -36.729688 
L 26.600121 -36.729688 
L 25.977487 -36.729688 
L 25.354852 -36.729688 
L 24.732218 -36.729688 
L 24.109584 -36.729688 
L 23.48695 -36.729688 
L 22.864316 -36.729688 
L 22.241682 -36.729688 
L 21.619047 -36.729688 
L 20.996413 -36.729688 
L 20.373779 -36.729688 
L 19.751145 -36.729688 
L 19.128511 -36.729688 
L 18.505876 -36.729688 
L 17.883242 -36.729688 
L 17.260608 -36.729688 
L 16.637974 -36.729688 
L 16.01534 -36.729688 
L 15.392705 -36.729688 
L 14.770071 -36.729688 
L 14.147437 -36.729688 
L 13.524803 -36.729688 
L 12.902169 -36.729688 
L 12.279535 -36.729688 
L 11.6569 -36.729688 
L 11.034266 -36.729688 
L 10.411632 -36.729688 
L 9.788998 -36.729688 
L 9.166364 -36.729688 
L 8.543729 -36.729688 
L 7.921095 -36.729688 
L 7.298461 -36.729688 
L 6.675827 -36.729688 
L 6.053193 -36.729688 
L 5.430559 -36.729688 
L 4.807924 -36.729688 
L 4.18529 -36.729688 
L 3.562656 -36.729688 
L 2.940022 -36.729688 
L 2.317388 -36.729688 
L 1.694753 -36.729688 
L 1.072119 -36.729688 
L 0.449485 -36.729688 
L -0.173149 -36.729688 
L -0.795783 -36.729688 
L -1.418418 -36.729688 
L -2.041052 -36.729688 
L -2.663686 -36.729688 
L -3.28632 -36.729688 
L -3.908954 -36.729688 
L -4.531588 -36.729688 
L -5.154223 -36.729688 
L -5.776857 -36.729688 
L -6.399491 -36.729688 
L -7.022125 -36.729688 
L -7.644759 -36.729688 
L -8.267394 -36.729688 
L -8.890028 -36.729688 
L -9.512662 -36.729688 
L -10.135296 -36.729688 
z
" style="stroke: #4c72b0; stroke-opacity: 0.3"/>
    </defs>
    <g clip-path="url(#p47bcf61634)">
     <use xlink:href="#m369be362de" x="0" y="154.809687" style="fill: #4c72b0; fill-opacity: 0.3; stroke: #4c72b0; stroke-opacity: 0.3"/>
    </g>
   </g>
   <g id="line2d_35">
    <path d="M -1 118.033171 
L 13.524803 117.852149 
L 23.48695 117.513397 
L 30.95856 117.053323 
L 37.807536 116.418666 
L 44.033878 115.632247 
L 50.26022 114.63108 
L 56.486562 113.417334 
L 63.335538 111.858923 
L 71.429782 109.769394 
L 80.769295 107.113329 
L 91.354076 103.874053 
L 101.938857 100.406281 
L 111.27837 97.111634 
L 119.372614 94.034698 
L 127.466859 90.722926 
L 135.561103 87.161881 
L 143.655348 83.350074 
L 151.749592 79.297062 
L 160.466471 74.684081 
L 169.805983 69.49331 
L 181.013399 62.999274 
L 197.824522 52.958257 
L 215.258279 42.615531 
L 225.220426 36.963278 
L 233.31467 32.611678 
L 240.78628 28.845505 
L 247.635256 25.647158 
L 253.861598 22.981314 
L 260.08794 20.571661 
L 265.691648 18.641158 
L 271.295355 16.952149 
L 276.276429 15.664499 
L 281.257502 14.586566 
L 286.238576 13.725283 
L 291.219649 13.086223 
L 296.200723 12.673543 
L 301.181796 12.489936 
L 306.16287 12.5366 
L 311.143943 12.813232 
L 316.125017 13.318024 
L 321.10609 14.047686 
L 326.087164 14.997481 
L 331.068237 16.161278 
L 336.671945 17.717008 
L 342.275653 19.521599 
L 347.87936 21.560709 
L 354.105702 24.08195 
L 360.332044 26.848965 
L 367.18102 30.145717 
L 374.65263 34.00304 
L 382.746875 38.43367 
L 392.709021 44.154709 
L 407.029608 52.67437 
L 428.821804 65.640284 
L 440.02922 72.028171 
L 449.368732 77.100608 
L 458.085611 81.584565 
L 466.179855 85.507386 
L 474.2741 89.186044 
L 482.368344 92.620544 
L 491.085223 96.062457 
L 500.424735 99.49428 
L 511.009517 103.131609 
L 522.216932 106.745852 
L 531.556445 109.544194 
L 539.650689 111.737965 
L 546.499665 113.363443 
L 552.726007 114.619343 
L 558.952349 115.645845 
L 565.178691 116.443891 
L 572.027667 117.080424 
L 579.499277 117.53561 
L 588.216156 117.836788 
L 600.046205 118.011519 
L 611.876255 118.064331 
L 611.876255 118.064331 
" clip-path="url(#p47bcf61634)" style="fill: none; stroke: #4c72b0; stroke-width: 1.5; stroke-linecap: round"/>
   </g>
   <g id="line2d_36">
    <path d="M 7.2 118.08 
L 844.2 118.08 
" clip-path="url(#p47bcf61634)" style="fill: none; stroke: #808080; stroke-width: 0.5; stroke-linecap: round"/>
   </g>
   <g id="text_10">
    <text style="font-size: 10px; font-family: 'Arial', 'DejaVu Sans', 'Liberation Sans', 'Bitstream Vera Sans', sans-serif; text-anchor: middle" x="302.53336" y="115.975312" transform="rotate(-0 302.53336 115.975312)">Sweden (1820)</text>
   </g>
  </g>
 </g>
 <defs>
  <clipPath id="p47bcf61634">
   <rect x="7.2" y="7.2" width="837" height="110.88"/>
  </clipPath>
 </defs>
</svg>
