<?xml version="1.0" encoding="utf-8" standalone="no"?>
<!DOCTYPE svg PUBLIC "-//W3C//DTD SVG 1.1//EN"
  "http://www.w3.org/Graphics/SVG/1.1/DTD/svg11.dtd">
<svg xmlns:xlink="http://www.w3.org/1999/xlink" width="851.4pt" height="154.809687pt" viewBox="0 0 851.4 154.809687" xmlns="http://www.w3.org/2000/svg" version="1.1">
 <metadata>
  <rdf:RDF xmlns:dc="http://purl.org/dc/elements/1.1/" xmlns:cc="http://creativecommons.org/ns#" xmlns:rdf="http://www.w3.org/1999/02/22-rdf-syntax-ns#">
   <cc:Work>
    <dc:type rdf:resource="http://purl.org/dc/dcmitype/StillImage"/>
    <dc:date>2025-12-05T16:06:55.601564</dc:date>
    <dc:format>image/svg+xml</dc:format>
    <dc:creator>
     <cc:Agent>
      <dc:title>Matplotlib v3.10.1, https://matplotlib.org/</dc:title>
     </cc:Agent>
    </dc:creator>
   </cc:Work>
  </rdf:RDF>
 </metadata>
 <defs>
  <style type="text/css">*{stroke-linejoin: round; stroke-linecap: butt}</style>
 </defs>
 <g id="figure_1">
  <g id="patch_1">
   <path d="M 0 154.809687 
L 851.4 154.809687 
L 851.4 0 
L 0 0 
z
" style="fill: #ffffff"/>
  </g>
  <g id="axes_1">
   <g id="patch_2">
    <path d="M 7.2 118.08 
L 844.2 118.08 
L 844.2 7.2 
L 7.2 7.2 
z
" style="fill: #ffffff"/>
   </g>
   <g id="matplotlib.axis_1">
    <g id="xtick_1">
     <g id="line2d_1">
      <defs>
       <path id="mf722b28d30" d="M 0 0 
L 0 3.5 
" style="stroke: #262626; stroke-width: 0.8"/>
      </defs>
      <g>
       <use xlink:href="#mf722b28d30" x="295.426181" y="118.08" style="fill: #262626; stroke: #262626; stroke-width: 0.8"/>
      </g>
     </g>
     <g id="text_1">
      <text style="font-size: 10px; font-family: 'Arial', 'DejaVu Sans', 'Liberation Sans', 'Bitstream Vera Sans', sans-serif; text-anchor: middle; fill: #262626" x="295.426181" y="132.237812" transform="rotate(-0 295.426181 132.237812)">1</text>
     </g>
    </g>
    <g id="xtick_2">
     <g id="line2d_2">
      <g>
       <use xlink:href="#mf722b28d30" x="362.11544" y="118.08" style="fill: #262626; stroke: #262626; stroke-width: 0.8"/>
      </g>
     </g>
     <g id="text_2">
      <text style="font-size: 10px; font-family: 'Arial', 'DejaVu Sans', 'Liberation Sans', 'Bitstream Vera Sans', sans-serif; text-anchor: middle; fill: #262626" x="362.11544" y="132.237812" transform="rotate(-0 362.11544 132.237812)">2</text>
     </g>
    </g>
    <g id="xtick_3">
     <g id="line2d_3">
      <g>
       <use xlink:href="#mf722b28d30" x="450.273845" y="118.08" style="fill: #262626; stroke: #262626; stroke-width: 0.8"/>
      </g>
     </g>
     <g id="text_3">
      <text style="font-size: 10px; font-family: 'Arial', 'DejaVu Sans', 'Liberation Sans', 'Bitstream Vera Sans', sans-serif; text-anchor: middle; fill: #262626" x="450.273845" y="132.237812" transform="rotate(-0 450.273845 132.237812)">5</text>
     </g>
    </g>
    <g id="xtick_4">
     <g id="line2d_4">
      <g>
       <use xlink:href="#mf722b28d30" x="516.963103" y="118.08" style="fill: #262626; stroke: #262626; stroke-width: 0.8"/>
      </g>
     </g>
     <g id="text_4">
      <text style="font-size: 10px; font-family: 'Arial', 'DejaVu Sans', 'Liberation Sans', 'Bitstream Vera Sans', sans-serif; text-anchor: middle; fill: #262626" x="516.963103" y="132.237812" transform="rotate(-0 516.963103 132.237812)">10</text>
     </g>
    </g>
    <g id="xtick_5">
     <g id="line2d_5">
      <g>
       <use xlink:href="#mf722b28d30" x="583.652362" y="118.08" style="fill: #262626; stroke: #262626; stroke-width: 0.8"/>
      </g>
     </g>
     <g id="text_5">
      <text style="font-size: 10px; font-family: 'Arial', 'DejaVu Sans', 'Liberation Sans', 'Bitstream Vera Sans', sans-serif; text-anchor: middle; fill: #262626" x="583.652362" y="132.237812" transform="rotate(-0 583.652362 132.237812)">20</text>
     </g>
    </g>
    <g id="xtick_6">
     <g id="line2d_6">
      <g>
       <use xlink:href="#mf722b28d30" x="671.810767" y="118.08" style="fill: #262626; stroke: #262626; stroke-width: 0.8"/>
      </g>
     </g>
     <g id="text_6">
      <text style="font-size: 10px; font-family: 'Arial', 'DejaVu Sans', 'Liberation Sans', 'Bitstream Vera Sans', sans-serif; text-anchor: middle; fill: #262626" x="671.810767" y="132.237812" transform="rotate(-0 671.810767 132.237812)">50</text>
     </g>
    </g>
    <g id="xtick_7">
     <g id="line2d_7">
      <g>
       <use xlink:href="#mf722b28d30" x="738.500026" y="118.08" style="fill: #262626; stroke: #262626; stroke-width: 0.8"/>
      </g>
     </g>
     <g id="text_7">
      <text style="font-size: 10px; font-family: 'Arial', 'DejaVu Sans', 'Liberation Sans', 'Bitstream Vera Sans', sans-serif; text-anchor: middle; fill: #262626" x="738.500026" y="132.237812" transform="rotate(-0 738.500026 132.237812)">100</text>
     </g>
    </g>
    <g id="xtick_8">
     <g id="line2d_8">
      <g>
       <use xlink:href="#mf722b28d30" x="805.189284" y="118.08" style="fill: #262626; stroke: #262626; stroke-width: 0.8"/>
      </g>
     </g>
     <g id="text_8">
      <text style="font-size: 10px; font-family: 'Arial', 'DejaVu Sans', 'Liberation Sans', 'Bitstream Vera Sans', sans-serif; text-anchor: middle; fill: #262626" x="805.189284" y="132.237812" transform="rotate(-0 805.189284 132.237812)">200</text>
     </g>
    </g>
    <g id="xtick_9">
     <g id="line2d_9">
      <defs>
       <path id="ma150edbd0b" d="M 0 0 
L 0 2 
" style="stroke: #262626; stroke-width: 0.6"/>
      </defs>
      <g>
       <use xlink:href="#ma150edbd0b" x="7.2" y="118.08" style="fill: #262626; stroke: #262626; stroke-width: 0.6"/>
      </g>
     </g>
    </g>
    <g id="xtick_10">
     <g id="line2d_10">
      <g>
       <use xlink:href="#ma150edbd0b" x="24.74157" y="118.08" style="fill: #262626; stroke: #262626; stroke-width: 0.6"/>
      </g>
     </g>
    </g>
    <g id="xtick_11">
     <g id="line2d_11">
      <g>
       <use xlink:href="#ma150edbd0b" x="39.572755" y="118.08" style="fill: #262626; stroke: #262626; stroke-width: 0.6"/>
      </g>
     </g>
    </g>
    <g id="xtick_12">
     <g id="line2d_12">
      <g>
       <use xlink:href="#ma150edbd0b" x="52.420113" y="118.08" style="fill: #262626; stroke: #262626; stroke-width: 0.6"/>
      </g>
     </g>
    </g>
    <g id="xtick_13">
     <g id="line2d_13">
      <g>
       <use xlink:href="#ma150edbd0b" x="63.752285" y="118.08" style="fill: #262626; stroke: #262626; stroke-width: 0.6"/>
      </g>
     </g>
    </g>
    <g id="xtick_14">
     <g id="line2d_14">
      <g>
       <use xlink:href="#ma150edbd0b" x="140.578518" y="118.08" style="fill: #262626; stroke: #262626; stroke-width: 0.6"/>
      </g>
     </g>
    </g>
    <g id="xtick_15">
     <g id="line2d_15">
      <g>
       <use xlink:href="#ma150edbd0b" x="179.589233" y="118.08" style="fill: #262626; stroke: #262626; stroke-width: 0.6"/>
      </g>
     </g>
    </g>
    <g id="xtick_16">
     <g id="line2d_16">
      <g>
       <use xlink:href="#ma150edbd0b" x="207.267776" y="118.08" style="fill: #262626; stroke: #262626; stroke-width: 0.6"/>
      </g>
     </g>
    </g>
    <g id="xtick_17">
     <g id="line2d_17">
      <g>
       <use xlink:href="#ma150edbd0b" x="228.736922" y="118.08" style="fill: #262626; stroke: #262626; stroke-width: 0.6"/>
      </g>
     </g>
    </g>
    <g id="xtick_18">
     <g id="line2d_18">
      <g>
       <use xlink:href="#ma150edbd0b" x="246.278492" y="118.08" style="fill: #262626; stroke: #262626; stroke-width: 0.6"/>
      </g>
     </g>
    </g>
    <g id="xtick_19">
     <g id="line2d_19">
      <g>
       <use xlink:href="#ma150edbd0b" x="261.109678" y="118.08" style="fill: #262626; stroke: #262626; stroke-width: 0.6"/>
      </g>
     </g>
    </g>
    <g id="xtick_20">
     <g id="line2d_20">
      <g>
       <use xlink:href="#ma150edbd0b" x="273.957035" y="118.08" style="fill: #262626; stroke: #262626; stroke-width: 0.6"/>
      </g>
     </g>
    </g>
    <g id="xtick_21">
     <g id="line2d_21">
      <g>
       <use xlink:href="#ma150edbd0b" x="285.289207" y="118.08" style="fill: #262626; stroke: #262626; stroke-width: 0.6"/>
      </g>
     </g>
    </g>
    <g id="xtick_22">
     <g id="line2d_22">
      <g>
       <use xlink:href="#ma150edbd0b" x="401.126155" y="118.08" style="fill: #262626; stroke: #262626; stroke-width: 0.6"/>
      </g>
     </g>
    </g>
    <g id="xtick_23">
     <g id="line2d_23">
      <g>
       <use xlink:href="#ma150edbd0b" x="428.804699" y="118.08" style="fill: #262626; stroke: #262626; stroke-width: 0.6"/>
      </g>
     </g>
    </g>
    <g id="xtick_24">
     <g id="line2d_24">
      <g>
       <use xlink:href="#ma150edbd0b" x="467.815414" y="118.08" style="fill: #262626; stroke: #262626; stroke-width: 0.6"/>
      </g>
     </g>
    </g>
    <g id="xtick_25">
     <g id="line2d_25">
      <g>
       <use xlink:href="#ma150edbd0b" x="482.6466" y="118.08" style="fill: #262626; stroke: #262626; stroke-width: 0.6"/>
      </g>
     </g>
    </g>
    <g id="xtick_26">
     <g id="line2d_26">
      <g>
       <use xlink:href="#ma150edbd0b" x="495.493957" y="118.08" style="fill: #262626; stroke: #262626; stroke-width: 0.6"/>
      </g>
     </g>
    </g>
    <g id="xtick_27">
     <g id="line2d_27">
      <g>
       <use xlink:href="#ma150edbd0b" x="506.82613" y="118.08" style="fill: #262626; stroke: #262626; stroke-width: 0.6"/>
      </g>
     </g>
    </g>
    <g id="xtick_28">
     <g id="line2d_28">
      <g>
       <use xlink:href="#ma150edbd0b" x="622.663078" y="118.08" style="fill: #262626; stroke: #262626; stroke-width: 0.6"/>
      </g>
     </g>
    </g>
    <g id="xtick_29">
     <g id="line2d_29">
      <g>
       <use xlink:href="#ma150edbd0b" x="650.341621" y="118.08" style="fill: #262626; stroke: #262626; stroke-width: 0.6"/>
      </g>
     </g>
    </g>
    <g id="xtick_30">
     <g id="line2d_30">
      <g>
       <use xlink:href="#ma150edbd0b" x="689.352336" y="118.08" style="fill: #262626; stroke: #262626; stroke-width: 0.6"/>
      </g>
     </g>
    </g>
    <g id="xtick_31">
     <g id="line2d_31">
      <g>
       <use xlink:href="#ma150edbd0b" x="704.183522" y="118.08" style="fill: #262626; stroke: #262626; stroke-width: 0.6"/>
      </g>
     </g>
    </g>
    <g id="xtick_32">
     <g id="line2d_32">
      <g>
       <use xlink:href="#ma150edbd0b" x="717.03088" y="118.08" style="fill: #262626; stroke: #262626; stroke-width: 0.6"/>
      </g>
     </g>
    </g>
    <g id="xtick_33">
     <g id="line2d_33">
      <g>
       <use xlink:href="#ma150edbd0b" x="728.363052" y="118.08" style="fill: #262626; stroke: #262626; stroke-width: 0.6"/>
      </g>
     </g>
    </g>
    <g id="xtick_34">
     <g id="line2d_34">
      <g>
       <use xlink:href="#ma150edbd0b" x="844.2" y="118.08" style="fill: #262626; stroke: #262626; stroke-width: 0.6"/>
      </g>
     </g>
    </g>
    <g id="text_9">
     <text style="font-size: 10px; font-family: 'Arial', 'DejaVu Sans', 'Liberation Sans', 'Bitstream Vera Sans', sans-serif; text-anchor: middle; fill: #262626" x="425.7" y="145.505" transform="rotate(-0 425.7 145.505)">Income or consumption (day)</text>
    </g>
   </g>
   <g id="matplotlib.axis_2"/>
   <g id="FillBetweenPolyCollection_1">
    <defs>
     <path id="m574761aab3" d="M 426.315609 -36.729688 
L 426.315609 -36.734267 
L 426.720686 -36.734726 
L 427.125763 -36.735227 
L 427.53084 -36.735772 
L 427.935917 -36.736363 
L 428.340995 -36.737005 
L 428.746072 -36.737701 
L 429.151149 -36.738455 
L 429.556226 -36.73927 
L 429.961303 -36.740151 
L 430.366381 -36.741102 
L 430.771458 -36.742128 
L 431.176535 -36.743233 
L 431.581612 -36.744422 
L 431.98669 -36.7457 
L 432.391767 -36.747072 
L 432.796844 -36.748544 
L 433.201921 -36.750121 
L 433.606998 -36.751809 
L 434.012076 -36.753613 
L 434.417153 -36.755541 
L 434.82223 -36.757598 
L 435.227307 -36.75979 
L 435.632384 -36.762124 
L 436.037462 -36.764606 
L 436.442539 -36.767243 
L 436.847616 -36.770042 
L 437.252693 -36.77301 
L 437.65777 -36.776152 
L 438.062848 -36.779477 
L 438.467925 -36.782991 
L 438.873002 -36.786701 
L 439.278079 -36.790613 
L 439.683156 -36.794735 
L 440.088234 -36.799073 
L 440.493311 -36.803634 
L 440.898388 -36.808424 
L 441.303465 -36.813449 
L 441.708543 -36.818716 
L 442.11362 -36.82423 
L 442.518697 -36.829997 
L 442.923774 -36.836023 
L 443.328851 -36.842312 
L 443.733929 -36.848869 
L 444.139006 -36.8557 
L 444.544083 -36.862807 
L 444.94916 -36.870195 
L 445.354237 -36.877868 
L 445.759315 -36.885827 
L 446.164392 -36.894076 
L 446.569469 -36.902617 
L 446.974546 -36.911451 
L 447.379623 -36.920579 
L 447.784701 -36.930002 
L 448.189778 -36.93972 
L 448.594855 -36.949732 
L 448.999932 -36.960038 
L 449.405009 -36.970636 
L 449.810087 -36.981524 
L 450.215164 -36.992699 
L 450.620241 -37.004159 
L 451.025318 -37.0159 
L 451.430396 -37.027918 
L 451.835473 -37.040208 
L 452.24055 -37.052765 
L 452.645627 -37.065585 
L 453.050704 -37.07866 
L 453.455782 -37.091985 
L 453.860859 -37.105553 
L 454.265936 -37.119356 
L 454.671013 -37.133388 
L 455.07609 -37.147641 
L 455.481168 -37.162106 
L 455.886245 -37.176776 
L 456.291322 -37.191642 
L 456.696399 -37.206694 
L 457.101476 -37.221925 
L 457.506554 -37.237326 
L 457.911631 -37.252886 
L 458.316708 -37.268598 
L 458.721785 -37.284451 
L 459.126862 -37.300437 
L 459.53194 -37.316547 
L 459.937017 -37.332772 
L 460.342094 -37.349102 
L 460.747171 -37.365528 
L 461.152249 -37.382043 
L 461.557326 -37.398637 
L 461.962403 -37.415302 
L 462.36748 -37.432029 
L 462.772557 -37.448811 
L 463.177635 -37.46564 
L 463.582712 -37.482508 
L 463.987789 -37.499408 
L 464.392866 -37.516332 
L 464.797943 -37.533274 
L 465.203021 -37.550228 
L 465.608098 -37.567185 
L 466.013175 -37.584141 
L 466.418252 -37.601089 
L 466.823329 -37.618023 
L 467.228407 -37.634939 
L 467.633484 -37.651829 
L 468.038561 -37.668689 
L 468.443638 -37.685514 
L 468.848716 -37.702298 
L 469.253793 -37.719036 
L 469.65887 -37.735725 
L 470.063947 -37.752357 
L 470.469024 -37.76893 
L 470.874102 -37.785437 
L 471.279179 -37.801874 
L 471.684256 -37.818236 
L 472.089333 -37.834519 
L 472.49441 -37.850716 
L 472.899488 -37.866824 
L 473.304565 -37.882836 
L 473.709642 -37.898747 
L 474.114719 -37.914553 
L 474.519796 -37.930246 
L 474.924874 -37.945823 
L 475.329951 -37.961276 
L 475.735028 -37.976599 
L 476.140105 -37.991788 
L 476.545182 -38.006834 
L 476.95026 -38.021732 
L 477.355337 -38.036476 
L 477.760414 -38.051058 
L 478.165491 -38.065473 
L 478.570569 -38.079712 
L 478.975646 -38.093769 
L 479.380723 -38.107639 
L 479.7858 -38.121312 
L 480.190877 -38.134784 
L 480.595955 -38.148047 
L 481.001032 -38.161094 
L 481.406109 -38.173919 
L 481.811186 -38.186516 
L 482.216263 -38.198878 
L 482.621341 -38.211 
L 483.026418 -38.222877 
L 483.431495 -38.234502 
L 483.836572 -38.245871 
L 484.241649 -38.25698 
L 484.646727 -38.267825 
L 485.051804 -38.278402 
L 485.456881 -38.288708 
L 485.861958 -38.298741 
L 486.267035 -38.308498 
L 486.672113 -38.31798 
L 487.07719 -38.327184 
L 487.482267 -38.336112 
L 487.887344 -38.344764 
L 488.292422 -38.353142 
L 488.697499 -38.361247 
L 489.102576 -38.369084 
L 489.507653 -38.376655 
L 489.91273 -38.383966 
L 490.317808 -38.391022 
L 490.722885 -38.397828 
L 491.127962 -38.404392 
L 491.533039 -38.410722 
L 491.938116 -38.416826 
L 492.343194 -38.422713 
L 492.748271 -38.428393 
L 493.153348 -38.433877 
L 493.558425 -38.439176 
L 493.963502 -38.444302 
L 494.36858 -38.449268 
L 494.773657 -38.454086 
L 495.178734 -38.458771 
L 495.583811 -38.463337 
L 495.988889 -38.467798 
L 496.393966 -38.47217 
L 496.799043 -38.476468 
L 497.20412 -38.480708 
L 497.609197 -38.484905 
L 498.014275 -38.489078 
L 498.419352 -38.493241 
L 498.824429 -38.497412 
L 499.229506 -38.501608 
L 499.634583 -38.505845 
L 500.039661 -38.510141 
L 500.444738 -38.514511 
L 500.849815 -38.518974 
L 501.254892 -38.523545 
L 501.659969 -38.528241 
L 502.065047 -38.533078 
L 502.470124 -38.538073 
L 502.875201 -38.54324 
L 503.280278 -38.548595 
L 503.685355 -38.554153 
L 504.090433 -38.559928 
L 504.49551 -38.565936 
L 504.900587 -38.572189 
L 505.305664 -38.578701 
L 505.710742 -38.585484 
L 506.115819 -38.592551 
L 506.520896 -38.599914 
L 506.925973 -38.607584 
L 507.33105 -38.615571 
L 507.736128 -38.623887 
L 508.141205 -38.63254 
L 508.546282 -38.641539 
L 508.951359 -38.650894 
L 509.356436 -38.660613 
L 509.761514 -38.670702 
L 510.166591 -38.68117 
L 510.571668 -38.692022 
L 510.976745 -38.703265 
L 511.381822 -38.714904 
L 511.7869 -38.726945 
L 512.191977 -38.739392 
L 512.597054 -38.75225 
L 513.002131 -38.765523 
L 513.407208 -38.779214 
L 513.812286 -38.793326 
L 514.217363 -38.807863 
L 514.62244 -38.822828 
L 515.027517 -38.838222 
L 515.432595 -38.854048 
L 515.837672 -38.870309 
L 516.242749 -38.887006 
L 516.647826 -38.904141 
L 517.052903 -38.921716 
L 517.457981 -38.939732 
L 517.863058 -38.958193 
L 518.268135 -38.977099 
L 518.673212 -38.996452 
L 519.078289 -39.016256 
L 519.483367 -39.036511 
L 519.888444 -39.057222 
L 520.293521 -39.07839 
L 520.698598 -39.100019 
L 521.103675 -39.122113 
L 521.508753 -39.144675 
L 521.91383 -39.167711 
L 522.318907 -39.191225 
L 522.723984 -39.215224 
L 523.129062 -39.239713 
L 523.534139 -39.2647 
L 523.939216 -39.290192 
L 524.344293 -39.316197 
L 524.74937 -39.342726 
L 525.154448 -39.369787 
L 525.559525 -39.397393 
L 525.964602 -39.425555 
L 526.369679 -39.454285 
L 526.774756 -39.483598 
L 527.179834 -39.513509 
L 527.584911 -39.544033 
L 527.989988 -39.575186 
L 528.395065 -39.606987 
L 528.800142 -39.639455 
L 529.20522 -39.67261 
L 529.610297 -39.706471 
L 530.015374 -39.741061 
L 530.420451 -39.776404 
L 530.825528 -39.812522 
L 531.230606 -39.84944 
L 531.635683 -39.887183 
L 532.04076 -39.925779 
L 532.445837 -39.965253 
L 532.850915 -40.005634 
L 533.255992 -40.046951 
L 533.661069 -40.089231 
L 534.066146 -40.132504 
L 534.471223 -40.1768 
L 534.876301 -40.222148 
L 535.281378 -40.26858 
L 535.686455 -40.316124 
L 536.091532 -40.364812 
L 536.496609 -40.414672 
L 536.901687 -40.465736 
L 537.306764 -40.518031 
L 537.711841 -40.571586 
L 538.116918 -40.62643 
L 538.521995 -40.682589 
L 538.927073 -40.740091 
L 539.33215 -40.79896 
L 539.737227 -40.859219 
L 540.142304 -40.920893 
L 540.547381 -40.984003 
L 540.952459 -41.048567 
L 541.357536 -41.114605 
L 541.762613 -41.182133 
L 542.16769 -41.251165 
L 542.572768 -41.321715 
L 542.977845 -41.393792 
L 543.382922 -41.467405 
L 543.787999 -41.542561 
L 544.193076 -41.619263 
L 544.598154 -41.697514 
L 545.003231 -41.777314 
L 545.408308 -41.858658 
L 545.813385 -41.941543 
L 546.218462 -42.025961 
L 546.62354 -42.111901 
L 547.028617 -42.199353 
L 547.433694 -42.2883 
L 547.838771 -42.378727 
L 548.243848 -42.470615 
L 548.648926 -42.563943 
L 549.054003 -42.658688 
L 549.45908 -42.754824 
L 549.864157 -42.852325 
L 550.269235 -42.951163 
L 550.674312 -43.051306 
L 551.079389 -43.152724 
L 551.484466 -43.255383 
L 551.889543 -43.359249 
L 552.294621 -43.464287 
L 552.699698 -43.570459 
L 553.104775 -43.67773 
L 553.509852 -43.78606 
L 553.914929 -43.895413 
L 554.320007 -44.005749 
L 554.725084 -44.117029 
L 555.130161 -44.229215 
L 555.535238 -44.342269 
L 555.940315 -44.456151 
L 556.345393 -44.570824 
L 556.75047 -44.686251 
L 557.155547 -44.802395 
L 557.560624 -44.919219 
L 557.965701 -45.036691 
L 558.370779 -45.154774 
L 558.775856 -45.273437 
L 559.180933 -45.392648 
L 559.58601 -45.512377 
L 559.991088 -45.632594 
L 560.396165 -45.753273 
L 560.801242 -45.874388 
L 561.206319 -45.995913 
L 561.611396 -46.117825 
L 562.016474 -46.240103 
L 562.421551 -46.362726 
L 562.826628 -46.485676 
L 563.231705 -46.608936 
L 563.636782 -46.732488 
L 564.04186 -46.856319 
L 564.446937 -46.980416 
L 564.852014 -47.104765 
L 565.257091 -47.229356 
L 565.662168 -47.354179 
L 566.067246 -47.479224 
L 566.472323 -47.604485 
L 566.8774 -47.729953 
L 567.282477 -47.855621 
L 567.687554 -47.981485 
L 568.092632 -48.107538 
L 568.497709 -48.233776 
L 568.902786 -48.360193 
L 569.307863 -48.486787 
L 569.712941 -48.613553 
L 570.118018 -48.740487 
L 570.523095 -48.867585 
L 570.928172 -48.994845 
L 571.333249 -49.122263 
L 571.738327 -49.249834 
L 572.143404 -49.377557 
L 572.548481 -49.505427 
L 572.953558 -49.633442 
L 573.358635 -49.761597 
L 573.763713 -49.889889 
L 574.16879 -50.018316 
L 574.573867 -50.146874 
L 574.978944 -50.275561 
L 575.384021 -50.404373 
L 575.789099 -50.533309 
L 576.194176 -50.662366 
L 576.599253 -50.791544 
L 577.00433 -50.920842 
L 577.409408 -51.05026 
L 577.814485 -51.179799 
L 578.219562 -51.309461 
L 578.624639 -51.43925 
L 579.029716 -51.569169 
L 579.434794 -51.699225 
L 579.839871 -51.829425 
L 580.244948 -51.959778 
L 580.650025 -52.090295 
L 581.055102 -52.220988 
L 581.46018 -52.351872 
L 581.865257 -52.482964 
L 582.270334 -52.614282 
L 582.675411 -52.745848 
L 583.080488 -52.877686 
L 583.485566 -53.00982 
L 583.890643 -53.142281 
L 584.29572 -53.275098 
L 584.700797 -53.408305 
L 585.105874 -53.541939 
L 585.510952 -53.676037 
L 585.916029 -53.810642 
L 586.321106 -53.945795 
L 586.726183 -54.081544 
L 587.131261 -54.217937 
L 587.536338 -54.355023 
L 587.941415 -54.492857 
L 588.346492 -54.631491 
L 588.751569 -54.770983 
L 589.156647 -54.911391 
L 589.561724 -55.052775 
L 589.966801 -55.195195 
L 590.371878 -55.338714 
L 590.776955 -55.483395 
L 591.182033 -55.629302 
L 591.58711 -55.776498 
L 591.992187 -55.925049 
L 592.397264 -56.075018 
L 592.802341 -56.226471 
L 593.207419 -56.379472 
L 593.612496 -56.534082 
L 594.017573 -56.690365 
L 594.42265 -56.848381 
L 594.827727 -57.008189 
L 595.232805 -57.169849 
L 595.637882 -57.333414 
L 596.042959 -57.498939 
L 596.448036 -57.666476 
L 596.853114 -57.836074 
L 597.258191 -58.007778 
L 597.663268 -58.181632 
L 598.068345 -58.357676 
L 598.473422 -58.535948 
L 598.8785 -58.716483 
L 599.283577 -58.89931 
L 599.688654 -59.084458 
L 600.093731 -59.271951 
L 600.498808 -59.46181 
L 600.903886 -59.654053 
L 601.308963 -59.848694 
L 601.71404 -60.045746 
L 602.119117 -60.245216 
L 602.524194 -60.447109 
L 602.929272 -60.651429 
L 603.334349 -60.858176 
L 603.739426 -61.067347 
L 604.144503 -61.278939 
L 604.549581 -61.492944 
L 604.954658 -61.709356 
L 605.359735 -61.928166 
L 605.764812 -62.149362 
L 606.169889 -62.372936 
L 606.574967 -62.598875 
L 606.980044 -62.827169 
L 607.385121 -63.057807 
L 607.790198 -63.290779 
L 608.195275 -63.526077 
L 608.600353 -63.763694 
L 609.00543 -64.003626 
L 609.410507 -64.245868 
L 609.815584 -64.490421 
L 610.220661 -64.737289 
L 610.625739 -64.986477 
L 611.030816 -65.237997 
L 611.435893 -65.491862 
L 611.84097 -65.748092 
L 612.246047 -66.00671 
L 612.651125 -66.267745 
L 613.056202 -66.531233 
L 613.461279 -66.797211 
L 613.866356 -67.065726 
L 614.271434 -67.33683 
L 614.676511 -67.61058 
L 615.081588 -67.887039 
L 615.486665 -68.166279 
L 615.891742 -68.448376 
L 616.29682 -68.733412 
L 616.701897 -69.021478 
L 617.106974 -69.312669 
L 617.512051 -69.607087 
L 617.917128 -69.904839 
L 618.322206 -70.206041 
L 618.727283 -70.510812 
L 619.13236 -70.819277 
L 619.537437 -71.131566 
L 619.942514 -71.447815 
L 620.347592 -71.768164 
L 620.752669 -72.092757 
L 621.157746 -72.421742 
L 621.562823 -72.755271 
L 621.9679 -73.093497 
L 622.372978 -73.436577 
L 622.778055 -73.78467 
L 623.183132 -74.137936 
L 623.588209 -74.496535 
L 623.993287 -74.860628 
L 624.398364 -75.230376 
L 624.803441 -75.605938 
L 625.208518 -75.987473 
L 625.613595 -76.375136 
L 626.018673 -76.76908 
L 626.42375 -77.169455 
L 626.828827 -77.576407 
L 627.233904 -77.990075 
L 627.638981 -78.410596 
L 628.044059 -78.8381 
L 628.449136 -79.272709 
L 628.854213 -79.714539 
L 629.25929 -80.163699 
L 629.664367 -80.620289 
L 630.069445 -81.0844 
L 630.474522 -81.556114 
L 630.879599 -82.035503 
L 631.284676 -82.52263 
L 631.689754 -83.017545 
L 632.094831 -83.520288 
L 632.499908 -84.030889 
L 632.904985 -84.549363 
L 633.310062 -85.075716 
L 633.71514 -85.60994 
L 634.120217 -86.152014 
L 634.525294 -86.701904 
L 634.930371 -87.259564 
L 635.335448 -87.824933 
L 635.740526 -88.397939 
L 636.145603 -88.978495 
L 636.55068 -89.5665 
L 636.955757 -90.16184 
L 637.360834 -90.764388 
L 637.765912 -91.374004 
L 638.170989 -91.990534 
L 638.576066 -92.61381 
L 638.981143 -93.243653 
L 639.38622 -93.879869 
L 639.791298 -94.522255 
L 640.196375 -95.170593 
L 640.601452 -95.824653 
L 641.006529 -96.484195 
L 641.411607 -97.148967 
L 641.816684 -97.818708 
L 642.221761 -98.493145 
L 642.626838 -99.171994 
L 643.031915 -99.854966 
L 643.436993 -100.54176 
L 643.84207 -101.232066 
L 644.247147 -101.92557 
L 644.652224 -102.621949 
L 645.057301 -103.320872 
L 645.462379 -104.022004 
L 645.867456 -104.725005 
L 646.272533 -105.42953 
L 646.67761 -106.135231 
L 647.082687 -106.841754 
L 647.487765 -107.548746 
L 647.892842 -108.255849 
L 648.297919 -108.962706 
L 648.702996 -109.668958 
L 649.108073 -110.374247 
L 649.513151 -111.078216 
L 649.918228 -111.780508 
L 650.323305 -112.480768 
L 650.728382 -113.178646 
L 651.13346 -113.873792 
L 651.538537 -114.565861 
L 651.943614 -115.254515 
L 652.348691 -115.939415 
L 652.753768 -116.620234 
L 653.158846 -117.296646 
L 653.563923 -117.968332 
L 653.969 -118.634983 
L 654.374077 -119.296293 
L 654.779154 -119.951965 
L 655.184232 -120.601711 
L 655.589309 -121.245249 
L 655.994386 -121.882307 
L 656.399463 -122.512621 
L 656.80454 -123.135934 
L 657.209618 -123.752 
L 657.614695 -124.36058 
L 658.019772 -124.961447 
L 658.424849 -125.554378 
L 658.829927 -126.139164 
L 659.235004 -126.715601 
L 659.640081 -127.283496 
L 660.045158 -127.842664 
L 660.450235 -128.392927 
L 660.855313 -128.934118 
L 661.26039 -129.466075 
L 661.665467 -129.988646 
L 662.070544 -130.501687 
L 662.475621 -131.005058 
L 662.880699 -131.498629 
L 663.285776 -131.982275 
L 663.690853 -132.455878 
L 664.09593 -132.919326 
L 664.501007 -133.372512 
L 664.906085 -133.815335 
L 665.311162 -134.247698 
L 665.716239 -134.669511 
L 666.121316 -135.080684 
L 666.526393 -135.481136 
L 666.931471 -135.870787 
L 667.336548 -136.24956 
L 667.741625 -136.617382 
L 668.146702 -136.974185 
L 668.55178 -137.319901 
L 668.956857 -137.654466 
L 669.361934 -137.977819 
L 669.767011 -138.2899 
L 670.172088 -138.590655 
L 670.577166 -138.880028 
L 670.982243 -139.157969 
L 671.38732 -139.424428 
L 671.792397 -139.67936 
L 672.197474 -139.922722 
L 672.602552 -140.154473 
L 673.007629 -140.374577 
L 673.412706 -140.583 
L 673.817783 -140.779712 
L 674.22286 -140.964688 
L 674.627938 -141.137905 
L 675.033015 -141.299348 
L 675.438092 -141.449004 
L 675.843169 -141.586866 
L 676.248246 -141.712935 
L 676.653324 -141.827216 
L 677.058401 -141.929719 
L 677.463478 -142.020466 
L 677.868555 -142.09948 
L 678.273633 -142.166798 
L 678.67871 -142.222459 
L 679.083787 -142.266515 
L 679.488864 -142.299025 
L 679.893941 -142.320057 
L 680.299019 -142.329688 
L 680.704096 -142.328004 
L 681.109173 -142.315102 
L 681.51425 -142.29109 
L 681.919327 -142.256082 
L 682.324405 -142.210206 
L 682.729482 -142.153598 
L 683.134559 -142.086404 
L 683.539636 -142.008783 
L 683.944713 -141.9209 
L 684.349791 -141.822931 
L 684.754868 -141.715064 
L 685.159945 -141.597493 
L 685.565022 -141.470423 
L 685.9701 -141.334067 
L 686.375177 -141.188647 
L 686.780254 -141.034392 
L 687.185331 -140.871538 
L 687.590408 -140.700331 
L 687.995486 -140.521018 
L 688.400563 -140.333857 
L 688.80564 -140.139107 
L 689.210717 -139.937036 
L 689.615794 -139.72791 
L 690.020872 -139.512004 
L 690.425949 -139.289592 
L 690.831026 -139.06095 
L 691.236103 -138.826356 
L 691.64118 -138.586087 
L 692.046258 -138.340422 
L 692.451335 -138.089637 
L 692.856412 -137.834005 
L 693.261489 -137.5738 
L 693.666566 -137.309289 
L 694.071644 -137.040737 
L 694.476721 -136.768404 
L 694.881798 -136.492546 
L 695.286875 -136.213412 
L 695.691953 -135.931243 
L 696.09703 -135.646277 
L 696.502107 -135.358741 
L 696.907184 -135.068857 
L 697.312261 -134.776835 
L 697.717339 -134.48288 
L 698.122416 -134.187186 
L 698.527493 -133.889937 
L 698.93257 -133.591309 
L 699.337647 -133.291466 
L 699.742725 -132.990563 
L 700.147802 -132.688745 
L 700.552879 -132.386144 
L 700.957956 -132.082885 
L 701.363033 -131.779078 
L 701.768111 -131.474825 
L 702.173188 -131.170216 
L 702.578265 -130.865332 
L 702.983342 -130.56024 
L 703.388419 -130.254998 
L 703.793497 -129.949655 
L 704.198574 -129.644245 
L 704.603651 -129.338797 
L 705.008728 -129.033326 
L 705.413806 -128.727837 
L 705.818883 -128.422328 
L 706.22396 -128.116785 
L 706.629037 -127.811185 
L 707.034114 -127.505496 
L 707.439192 -127.199677 
L 707.844269 -126.89368 
L 708.249346 -126.587446 
L 708.654423 -126.28091 
L 709.0595 -125.973998 
L 709.464578 -125.666631 
L 709.869655 -125.35872 
L 710.274732 -125.05017 
L 710.679809 -124.740883 
L 711.084886 -124.43075 
L 711.489964 -124.119659 
L 711.895041 -123.807494 
L 712.300118 -123.494131 
L 712.705195 -123.179445 
L 713.110273 -122.863304 
L 713.51535 -122.545574 
L 713.920427 -122.226118 
L 714.325504 -121.904794 
L 714.730581 -121.581462 
L 715.135659 -121.255975 
L 715.540736 -120.928188 
L 715.945813 -120.597953 
L 716.35089 -120.265124 
L 716.755967 -119.929552 
L 717.161045 -119.591091 
L 717.566122 -119.249593 
L 717.971199 -118.904914 
L 718.376276 -118.55691 
L 718.781353 -118.205441 
L 719.186431 -117.850368 
L 719.591508 -117.491558 
L 719.996585 -117.128878 
L 720.401662 -116.762202 
L 720.806739 -116.391408 
L 721.211817 -116.016379 
L 721.616894 -115.637005 
L 722.021971 -115.253178 
L 722.427048 -114.864802 
L 722.832126 -114.471783 
L 723.237203 -114.074038 
L 723.64228 -113.671489 
L 724.047357 -113.264067 
L 724.452434 -112.851712 
L 724.857512 -112.43437 
L 725.262589 -112.012 
L 725.667666 -111.584565 
L 726.072743 -111.152042 
L 726.47782 -110.714414 
L 726.882898 -110.271676 
L 727.287975 -109.823829 
L 727.693052 -109.370889 
L 728.098129 -108.912877 
L 728.503206 -108.449827 
L 728.908284 -107.981779 
L 729.313361 -107.508787 
L 729.718438 -107.030911 
L 730.123515 -106.548222 
L 730.528592 -106.060799 
L 730.93367 -105.568731 
L 731.338747 -105.072116 
L 731.743824 -104.571057 
L 732.148901 -104.06567 
L 732.553979 -103.556075 
L 732.959056 -103.0424 
L 733.364133 -102.52478 
L 733.76921 -102.003359 
L 734.174287 -101.478282 
L 734.579365 -100.949705 
L 734.984442 -100.417785 
L 735.389519 -99.882686 
L 735.794596 -99.344575 
L 736.199673 -98.803624 
L 736.604751 -98.260006 
L 737.009828 -97.7139 
L 737.414905 -97.165485 
L 737.819982 -96.614941 
L 738.225059 -96.062453 
L 738.630137 -95.508202 
L 739.035214 -94.952374 
L 739.440291 -94.395151 
L 739.845368 -93.836718 
L 740.250446 -93.277257 
L 740.655523 -92.71695 
L 741.0606 -92.155976 
L 741.465677 -91.594514 
L 741.870754 -91.03274 
L 742.275832 -90.470826 
L 742.680909 -89.908943 
L 743.085986 -89.347259 
L 743.491063 -88.785938 
L 743.89614 -88.225141 
L 744.301218 -87.665025 
L 744.706295 -87.105743 
L 745.111372 -86.547445 
L 745.516449 -85.990277 
L 745.921526 -85.434378 
L 746.326604 -84.879888 
L 746.731681 -84.326937 
L 747.136758 -83.775656 
L 747.541835 -83.226167 
L 747.946912 -82.678591 
L 748.35199 -82.133043 
L 748.757067 -81.589635 
L 749.162144 -81.048472 
L 749.567221 -80.509658 
L 749.972299 -79.973291 
L 750.377376 -79.439464 
L 750.782453 -78.908268 
L 751.18753 -78.379788 
L 751.592607 -77.854106 
L 751.997685 -77.3313 
L 752.402762 -76.811443 
L 752.807839 -76.294606 
L 753.212916 -75.780854 
L 753.617993 -75.270251 
L 754.023071 -74.762854 
L 754.428148 -74.258719 
L 754.833225 -73.757898 
L 755.238302 -73.260439 
L 755.643379 -72.766386 
L 756.048457 -72.275782 
L 756.453534 -71.788663 
L 756.858611 -71.305065 
L 757.263688 -70.82502 
L 757.668765 -70.348555 
L 758.073843 -69.875697 
L 758.47892 -69.406468 
L 758.883997 -68.940887 
L 759.289074 -68.478971 
L 759.694152 -68.020733 
L 760.099229 -67.566185 
L 760.504306 -67.115335 
L 760.909383 -66.668188 
L 761.31446 -66.224747 
L 761.719538 -65.785013 
L 762.124615 -65.348984 
L 762.529692 -64.916655 
L 762.934769 -64.488021 
L 763.339846 -64.063073 
L 763.744924 -63.641799 
L 764.150001 -63.224188 
L 764.555078 -62.810225 
L 764.960155 -62.399894 
L 765.365232 -61.993177 
L 765.77031 -61.590055 
L 766.175387 -61.190508 
L 766.580464 -60.794513 
L 766.985541 -60.402048 
L 767.390619 -60.013089 
L 767.795696 -59.627611 
L 768.200773 -59.245589 
L 768.60585 -58.866998 
L 769.010927 -58.491811 
L 769.416005 -58.120003 
L 769.821082 -57.751546 
L 770.226159 -57.386414 
L 770.631236 -57.024581 
L 771.036313 -56.666022 
L 771.441391 -56.310711 
L 771.846468 -55.958624 
L 772.251545 -55.609736 
L 772.656622 -55.264026 
L 773.061699 -54.92147 
L 773.466777 -54.582049 
L 773.871854 -54.245743 
L 774.276931 -53.912533 
L 774.682008 -53.582403 
L 775.087085 -53.255338 
L 775.492163 -52.931325 
L 775.89724 -52.610351 
L 776.302317 -52.292407 
L 776.707394 -51.977484 
L 777.112472 -51.665576 
L 777.517549 -51.356678 
L 777.922626 -51.050789 
L 778.327703 -50.747907 
L 778.73278 -50.448033 
L 779.137858 -50.151172 
L 779.542935 -49.857327 
L 779.948012 -49.566507 
L 780.353089 -49.278721 
L 780.758166 -48.993978 
L 781.163244 -48.712293 
L 781.568321 -48.433678 
L 781.973398 -48.15815 
L 782.378475 -47.885726 
L 782.783552 -47.616427 
L 783.18863 -47.35027 
L 783.593707 -47.08728 
L 783.998784 -46.827478 
L 784.403861 -46.570888 
L 784.808938 -46.317535 
L 785.214016 -46.067445 
L 785.619093 -45.820645 
L 786.02417 -45.57716 
L 786.429247 -45.337019 
L 786.834325 -45.100249 
L 787.239402 -44.866878 
L 787.644479 -44.636934 
L 788.049556 -44.410444 
L 788.454633 -44.187435 
L 788.859711 -43.967934 
L 789.264788 -43.751968 
L 789.669865 -43.539561 
L 790.074942 -43.330739 
L 790.480019 -43.125525 
L 790.885097 -42.923941 
L 791.290174 -42.726007 
L 791.695251 -42.531745 
L 792.100328 -42.34117 
L 792.505405 -42.154301 
L 792.910483 -41.97115 
L 793.31556 -41.79173 
L 793.720637 -41.616052 
L 794.125714 -41.444124 
L 794.530791 -41.275951 
L 794.935869 -41.111538 
L 795.340946 -40.950885 
L 795.746023 -40.79399 
L 796.1511 -40.640851 
L 796.556178 -40.49146 
L 796.961255 -40.345809 
L 797.366332 -40.203884 
L 797.771409 -40.065673 
L 798.176486 -39.931156 
L 798.581564 -39.800315 
L 798.986641 -39.673127 
L 799.391718 -39.549565 
L 799.796795 -39.429602 
L 800.201872 -39.313206 
L 800.60695 -39.200345 
L 801.012027 -39.090981 
L 801.417104 -38.985077 
L 801.822181 -38.88259 
L 802.227258 -38.783477 
L 802.632336 -38.687693 
L 803.037413 -38.595189 
L 803.44249 -38.505915 
L 803.847567 -38.419818 
L 804.252645 -38.336844 
L 804.657722 -38.256937 
L 805.062799 -38.180039 
L 805.467876 -38.106091 
L 805.872953 -38.035031 
L 806.278031 -37.966797 
L 806.683108 -37.901326 
L 807.088185 -37.838554 
L 807.493262 -37.778414 
L 807.898339 -37.72084 
L 808.303417 -37.665765 
L 808.708494 -37.613122 
L 809.113571 -37.562842 
L 809.518648 -37.514857 
L 809.923725 -37.469099 
L 810.328803 -37.425498 
L 810.73388 -37.383987 
L 811.138957 -37.344498 
L 811.544034 -37.306961 
L 811.949111 -37.271311 
L 812.354189 -37.237479 
L 812.759266 -37.205399 
L 813.164343 -37.175007 
L 813.56942 -37.146237 
L 813.974498 -37.119025 
L 814.379575 -37.09331 
L 814.784652 -37.069028 
L 815.189729 -37.04612 
L 815.594806 -37.024526 
L 815.999884 -37.004189 
L 816.404961 -36.985052 
L 816.810038 -36.967059 
L 817.215115 -36.950157 
L 817.620192 -36.934294 
L 818.02527 -36.919419 
L 818.430347 -36.905482 
L 818.835424 -36.892436 
L 819.240501 -36.880235 
L 819.645578 -36.868834 
L 820.050656 -36.85819 
L 820.455733 -36.848262 
L 820.86081 -36.83901 
L 821.265887 -36.830396 
L 821.670964 -36.822382 
L 822.076042 -36.814935 
L 822.481119 -36.80802 
L 822.886196 -36.801605 
L 823.291273 -36.795659 
L 823.696351 -36.790153 
L 824.101428 -36.785059 
L 824.506505 -36.780351 
L 824.911582 -36.776003 
L 825.316659 -36.771992 
L 825.721737 -36.768294 
L 826.126814 -36.76489 
L 826.531891 -36.761757 
L 826.936968 -36.758878 
L 827.342045 -36.756234 
L 827.747123 -36.753808 
L 828.1522 -36.751585 
L 828.557277 -36.749549 
L 828.962354 -36.747687 
L 829.367431 -36.745984 
L 829.772509 -36.74443 
L 830.177586 -36.743012 
L 830.582663 -36.741719 
L 830.98774 -36.740543 
L 830.98774 -36.729688 
L 830.98774 -36.729688 
L 830.582663 -36.729688 
L 830.177586 -36.729688 
L 829.772509 -36.729688 
L 829.367431 -36.729688 
L 828.962354 -36.729688 
L 828.557277 -36.729688 
L 828.1522 -36.729688 
L 827.747123 -36.729688 
L 827.342045 -36.729688 
L 826.936968 -36.729688 
L 826.531891 -36.729688 
L 826.126814 -36.729688 
L 825.721737 -36.729688 
L 825.316659 -36.729688 
L 824.911582 -36.729688 
L 824.506505 -36.729688 
L 824.101428 -36.729688 
L 823.696351 -36.729688 
L 823.291273 -36.729688 
L 822.886196 -36.729688 
L 822.481119 -36.729688 
L 822.076042 -36.729688 
L 821.670964 -36.729688 
L 821.265887 -36.729688 
L 820.86081 -36.729688 
L 820.455733 -36.729688 
L 820.050656 -36.729688 
L 819.645578 -36.729688 
L 819.240501 -36.729688 
L 818.835424 -36.729688 
L 818.430347 -36.729688 
L 818.02527 -36.729688 
L 817.620192 -36.729688 
L 817.215115 -36.729688 
L 816.810038 -36.729688 
L 816.404961 -36.729688 
L 815.999884 -36.729688 
L 815.594806 -36.729688 
L 815.189729 -36.729688 
L 814.784652 -36.729688 
L 814.379575 -36.729688 
L 813.974498 -36.729688 
L 813.56942 -36.729688 
L 813.164343 -36.729688 
L 812.759266 -36.729688 
L 812.354189 -36.729688 
L 811.949111 -36.729688 
L 811.544034 -36.729688 
L 811.138957 -36.729688 
L 810.73388 -36.729688 
L 810.328803 -36.729688 
L 809.923725 -36.729688 
L 809.518648 -36.729688 
L 809.113571 -36.729688 
L 808.708494 -36.729688 
L 808.303417 -36.729688 
L 807.898339 -36.729688 
L 807.493262 -36.729688 
L 807.088185 -36.729688 
L 806.683108 -36.729688 
L 806.278031 -36.729688 
L 805.872953 -36.729688 
L 805.467876 -36.729688 
L 805.062799 -36.729688 
L 804.657722 -36.729688 
L 804.252645 -36.729688 
L 803.847567 -36.729688 
L 803.44249 -36.729688 
L 803.037413 -36.729688 
L 802.632336 -36.729688 
L 802.227258 -36.729688 
L 801.822181 -36.729688 
L 801.417104 -36.729688 
L 801.012027 -36.729688 
L 800.60695 -36.729688 
L 800.201872 -36.729688 
L 799.796795 -36.729688 
L 799.391718 -36.729688 
L 798.986641 -36.729688 
L 798.581564 -36.729688 
L 798.176486 -36.729688 
L 797.771409 -36.729688 
L 797.366332 -36.729688 
L 796.961255 -36.729688 
L 796.556178 -36.729688 
L 796.1511 -36.729688 
L 795.746023 -36.729688 
L 795.340946 -36.729688 
L 794.935869 -36.729688 
L 794.530791 -36.729688 
L 794.125714 -36.729688 
L 793.720637 -36.729688 
L 793.31556 -36.729688 
L 792.910483 -36.729688 
L 792.505405 -36.729688 
L 792.100328 -36.729688 
L 791.695251 -36.729688 
L 791.290174 -36.729688 
L 790.885097 -36.729688 
L 790.480019 -36.729688 
L 790.074942 -36.729688 
L 789.669865 -36.729688 
L 789.264788 -36.729688 
L 788.859711 -36.729688 
L 788.454633 -36.729688 
L 788.049556 -36.729688 
L 787.644479 -36.729688 
L 787.239402 -36.729688 
L 786.834325 -36.729688 
L 786.429247 -36.729688 
L 786.02417 -36.729688 
L 785.619093 -36.729688 
L 785.214016 -36.729688 
L 784.808938 -36.729688 
L 784.403861 -36.729688 
L 783.998784 -36.729688 
L 783.593707 -36.729688 
L 783.18863 -36.729688 
L 782.783552 -36.729688 
L 782.378475 -36.729688 
L 781.973398 -36.729688 
L 781.568321 -36.729688 
L 781.163244 -36.729688 
L 780.758166 -36.729688 
L 780.353089 -36.729688 
L 779.948012 -36.729688 
L 779.542935 -36.729688 
L 779.137858 -36.729688 
L 778.73278 -36.729688 
L 778.327703 -36.729688 
L 777.922626 -36.729688 
L 777.517549 -36.729688 
L 777.112472 -36.729688 
L 776.707394 -36.729688 
L 776.302317 -36.729688 
L 775.89724 -36.729688 
L 775.492163 -36.729688 
L 775.087085 -36.729688 
L 774.682008 -36.729688 
L 774.276931 -36.729688 
L 773.871854 -36.729688 
L 773.466777 -36.729688 
L 773.061699 -36.729688 
L 772.656622 -36.729688 
L 772.251545 -36.729688 
L 771.846468 -36.729688 
L 771.441391 -36.729688 
L 771.036313 -36.729688 
L 770.631236 -36.729688 
L 770.226159 -36.729688 
L 769.821082 -36.729688 
L 769.416005 -36.729688 
L 769.010927 -36.729688 
L 768.60585 -36.729688 
L 768.200773 -36.729688 
L 767.795696 -36.729688 
L 767.390619 -36.729688 
L 766.985541 -36.729688 
L 766.580464 -36.729688 
L 766.175387 -36.729688 
L 765.77031 -36.729688 
L 765.365232 -36.729688 
L 764.960155 -36.729688 
L 764.555078 -36.729688 
L 764.150001 -36.729688 
L 763.744924 -36.729688 
L 763.339846 -36.729688 
L 762.934769 -36.729688 
L 762.529692 -36.729688 
L 762.124615 -36.729688 
L 761.719538 -36.729688 
L 761.31446 -36.729688 
L 760.909383 -36.729688 
L 760.504306 -36.729688 
L 760.099229 -36.729688 
L 759.694152 -36.729688 
L 759.289074 -36.729688 
L 758.883997 -36.729688 
L 758.47892 -36.729688 
L 758.073843 -36.729688 
L 757.668765 -36.729688 
L 757.263688 -36.729688 
L 756.858611 -36.729688 
L 756.453534 -36.729688 
L 756.048457 -36.729688 
L 755.643379 -36.729688 
L 755.238302 -36.729688 
L 754.833225 -36.729688 
L 754.428148 -36.729688 
L 754.023071 -36.729688 
L 753.617993 -36.729688 
L 753.212916 -36.729688 
L 752.807839 -36.729688 
L 752.402762 -36.729688 
L 751.997685 -36.729688 
L 751.592607 -36.729688 
L 751.18753 -36.729688 
L 750.782453 -36.729688 
L 750.377376 -36.729688 
L 749.972299 -36.729688 
L 749.567221 -36.729688 
L 749.162144 -36.729688 
L 748.757067 -36.729688 
L 748.35199 -36.729688 
L 747.946912 -36.729688 
L 747.541835 -36.729688 
L 747.136758 -36.729688 
L 746.731681 -36.729688 
L 746.326604 -36.729688 
L 745.921526 -36.729688 
L 745.516449 -36.729688 
L 745.111372 -36.729688 
L 744.706295 -36.729688 
L 744.301218 -36.729688 
L 743.89614 -36.729688 
L 743.491063 -36.729688 
L 743.085986 -36.729688 
L 742.680909 -36.729688 
L 742.275832 -36.729688 
L 741.870754 -36.729688 
L 741.465677 -36.729688 
L 741.0606 -36.729688 
L 740.655523 -36.729688 
L 740.250446 -36.729688 
L 739.845368 -36.729688 
L 739.440291 -36.729688 
L 739.035214 -36.729688 
L 738.630137 -36.729688 
L 738.225059 -36.729688 
L 737.819982 -36.729688 
L 737.414905 -36.729688 
L 737.009828 -36.729688 
L 736.604751 -36.729688 
L 736.199673 -36.729688 
L 735.794596 -36.729688 
L 735.389519 -36.729688 
L 734.984442 -36.729688 
L 734.579365 -36.729688 
L 734.174287 -36.729688 
L 733.76921 -36.729688 
L 733.364133 -36.729688 
L 732.959056 -36.729688 
L 732.553979 -36.729688 
L 732.148901 -36.729688 
L 731.743824 -36.729688 
L 731.338747 -36.729688 
L 730.93367 -36.729688 
L 730.528592 -36.729688 
L 730.123515 -36.729688 
L 729.718438 -36.729688 
L 729.313361 -36.729688 
L 728.908284 -36.729688 
L 728.503206 -36.729688 
L 728.098129 -36.729688 
L 727.693052 -36.729688 
L 727.287975 -36.729688 
L 726.882898 -36.729688 
L 726.47782 -36.729688 
L 726.072743 -36.729688 
L 725.667666 -36.729688 
L 725.262589 -36.729688 
L 724.857512 -36.729688 
L 724.452434 -36.729688 
L 724.047357 -36.729688 
L 723.64228 -36.729688 
L 723.237203 -36.729688 
L 722.832126 -36.729688 
L 722.427048 -36.729688 
L 722.021971 -36.729688 
L 721.616894 -36.729688 
L 721.211817 -36.729688 
L 720.806739 -36.729688 
L 720.401662 -36.729688 
L 719.996585 -36.729688 
L 719.591508 -36.729688 
L 719.186431 -36.729688 
L 718.781353 -36.729688 
L 718.376276 -36.729688 
L 717.971199 -36.729688 
L 717.566122 -36.729688 
L 717.161045 -36.729688 
L 716.755967 -36.729688 
L 716.35089 -36.729688 
L 715.945813 -36.729688 
L 715.540736 -36.729688 
L 715.135659 -36.729688 
L 714.730581 -36.729688 
L 714.325504 -36.729688 
L 713.920427 -36.729688 
L 713.51535 -36.729688 
L 713.110273 -36.729688 
L 712.705195 -36.729688 
L 712.300118 -36.729688 
L 711.895041 -36.729688 
L 711.489964 -36.729688 
L 711.084886 -36.729688 
L 710.679809 -36.729688 
L 710.274732 -36.729688 
L 709.869655 -36.729688 
L 709.464578 -36.729688 
L 709.0595 -36.729688 
L 708.654423 -36.729688 
L 708.249346 -36.729688 
L 707.844269 -36.729688 
L 707.439192 -36.729688 
L 707.034114 -36.729688 
L 706.629037 -36.729688 
L 706.22396 -36.729688 
L 705.818883 -36.729688 
L 705.413806 -36.729688 
L 705.008728 -36.729688 
L 704.603651 -36.729688 
L 704.198574 -36.729688 
L 703.793497 -36.729688 
L 703.388419 -36.729688 
L 702.983342 -36.729688 
L 702.578265 -36.729688 
L 702.173188 -36.729688 
L 701.768111 -36.729688 
L 701.363033 -36.729688 
L 700.957956 -36.729688 
L 700.552879 -36.729688 
L 700.147802 -36.729688 
L 699.742725 -36.729688 
L 699.337647 -36.729688 
L 698.93257 -36.729688 
L 698.527493 -36.729688 
L 698.122416 -36.729688 
L 697.717339 -36.729688 
L 697.312261 -36.729688 
L 696.907184 -36.729688 
L 696.502107 -36.729688 
L 696.09703 -36.729688 
L 695.691953 -36.729688 
L 695.286875 -36.729688 
L 694.881798 -36.729688 
L 694.476721 -36.729688 
L 694.071644 -36.729688 
L 693.666566 -36.729688 
L 693.261489 -36.729688 
L 692.856412 -36.729688 
L 692.451335 -36.729688 
L 692.046258 -36.729688 
L 691.64118 -36.729688 
L 691.236103 -36.729688 
L 690.831026 -36.729688 
L 690.425949 -36.729688 
L 690.020872 -36.729688 
L 689.615794 -36.729688 
L 689.210717 -36.729688 
L 688.80564 -36.729688 
L 688.400563 -36.729688 
L 687.995486 -36.729688 
L 687.590408 -36.729688 
L 687.185331 -36.729688 
L 686.780254 -36.729688 
L 686.375177 -36.729688 
L 685.9701 -36.729688 
L 685.565022 -36.729688 
L 685.159945 -36.729688 
L 684.754868 -36.729688 
L 684.349791 -36.729688 
L 683.944713 -36.729688 
L 683.539636 -36.729688 
L 683.134559 -36.729688 
L 682.729482 -36.729688 
L 682.324405 -36.729688 
L 681.919327 -36.729688 
L 681.51425 -36.729688 
L 681.109173 -36.729688 
L 680.704096 -36.729688 
L 680.299019 -36.729688 
L 679.893941 -36.729688 
L 679.488864 -36.729688 
L 679.083787 -36.729688 
L 678.67871 -36.729688 
L 678.273633 -36.729688 
L 677.868555 -36.729688 
L 677.463478 -36.729688 
L 677.058401 -36.729688 
L 676.653324 -36.729688 
L 676.248246 -36.729688 
L 675.843169 -36.729688 
L 675.438092 -36.729688 
L 675.033015 -36.729688 
L 674.627938 -36.729688 
L 674.22286 -36.729688 
L 673.817783 -36.729688 
L 673.412706 -36.729688 
L 673.007629 -36.729688 
L 672.602552 -36.729688 
L 672.197474 -36.729688 
L 671.792397 -36.729688 
L 671.38732 -36.729688 
L 670.982243 -36.729688 
L 670.577166 -36.729688 
L 670.172088 -36.729688 
L 669.767011 -36.729688 
L 669.361934 -36.729688 
L 668.956857 -36.729688 
L 668.55178 -36.729688 
L 668.146702 -36.729688 
L 667.741625 -36.729688 
L 667.336548 -36.729688 
L 666.931471 -36.729688 
L 666.526393 -36.729688 
L 666.121316 -36.729688 
L 665.716239 -36.729688 
L 665.311162 -36.729688 
L 664.906085 -36.729688 
L 664.501007 -36.729688 
L 664.09593 -36.729688 
L 663.690853 -36.729688 
L 663.285776 -36.729688 
L 662.880699 -36.729688 
L 662.475621 -36.729688 
L 662.070544 -36.729688 
L 661.665467 -36.729688 
L 661.26039 -36.729688 
L 660.855313 -36.729688 
L 660.450235 -36.729688 
L 660.045158 -36.729688 
L 659.640081 -36.729688 
L 659.235004 -36.729688 
L 658.829927 -36.729688 
L 658.424849 -36.729688 
L 658.019772 -36.729688 
L 657.614695 -36.729688 
L 657.209618 -36.729688 
L 656.80454 -36.729688 
L 656.399463 -36.729688 
L 655.994386 -36.729688 
L 655.589309 -36.729688 
L 655.184232 -36.729688 
L 654.779154 -36.729688 
L 654.374077 -36.729688 
L 653.969 -36.729688 
L 653.563923 -36.729688 
L 653.158846 -36.729688 
L 652.753768 -36.729688 
L 652.348691 -36.729688 
L 651.943614 -36.729688 
L 651.538537 -36.729688 
L 651.13346 -36.729688 
L 650.728382 -36.729688 
L 650.323305 -36.729688 
L 649.918228 -36.729688 
L 649.513151 -36.729688 
L 649.108073 -36.729688 
L 648.702996 -36.729688 
L 648.297919 -36.729688 
L 647.892842 -36.729688 
L 647.487765 -36.729688 
L 647.082687 -36.729688 
L 646.67761 -36.729688 
L 646.272533 -36.729688 
L 645.867456 -36.729688 
L 645.462379 -36.729688 
L 645.057301 -36.729688 
L 644.652224 -36.729688 
L 644.247147 -36.729688 
L 643.84207 -36.729688 
L 643.436993 -36.729688 
L 643.031915 -36.729688 
L 642.626838 -36.729688 
L 642.221761 -36.729688 
L 641.816684 -36.729688 
L 641.411607 -36.729688 
L 641.006529 -36.729688 
L 640.601452 -36.729688 
L 640.196375 -36.729688 
L 639.791298 -36.729688 
L 639.38622 -36.729688 
L 638.981143 -36.729688 
L 638.576066 -36.729688 
L 638.170989 -36.729688 
L 637.765912 -36.729688 
L 637.360834 -36.729688 
L 636.955757 -36.729688 
L 636.55068 -36.729688 
L 636.145603 -36.729688 
L 635.740526 -36.729688 
L 635.335448 -36.729688 
L 634.930371 -36.729688 
L 634.525294 -36.729688 
L 634.120217 -36.729688 
L 633.71514 -36.729688 
L 633.310062 -36.729688 
L 632.904985 -36.729688 
L 632.499908 -36.729688 
L 632.094831 -36.729688 
L 631.689754 -36.729688 
L 631.284676 -36.729688 
L 630.879599 -36.729688 
L 630.474522 -36.729688 
L 630.069445 -36.729688 
L 629.664367 -36.729688 
L 629.25929 -36.729688 
L 628.854213 -36.729688 
L 628.449136 -36.729688 
L 628.044059 -36.729688 
L 627.638981 -36.729688 
L 627.233904 -36.729688 
L 626.828827 -36.729688 
L 626.42375 -36.729688 
L 626.018673 -36.729688 
L 625.613595 -36.729688 
L 625.208518 -36.729688 
L 624.803441 -36.729688 
L 624.398364 -36.729688 
L 623.993287 -36.729688 
L 623.588209 -36.729688 
L 623.183132 -36.729688 
L 622.778055 -36.729688 
L 622.372978 -36.729688 
L 621.9679 -36.729688 
L 621.562823 -36.729688 
L 621.157746 -36.729688 
L 620.752669 -36.729688 
L 620.347592 -36.729688 
L 619.942514 -36.729688 
L 619.537437 -36.729688 
L 619.13236 -36.729688 
L 618.727283 -36.729688 
L 618.322206 -36.729688 
L 617.917128 -36.729688 
L 617.512051 -36.729688 
L 617.106974 -36.729688 
L 616.701897 -36.729688 
L 616.29682 -36.729688 
L 615.891742 -36.729688 
L 615.486665 -36.729688 
L 615.081588 -36.729688 
L 614.676511 -36.729688 
L 614.271434 -36.729688 
L 613.866356 -36.729688 
L 613.461279 -36.729688 
L 613.056202 -36.729688 
L 612.651125 -36.729688 
L 612.246047 -36.729688 
L 611.84097 -36.729688 
L 611.435893 -36.729688 
L 611.030816 -36.729688 
L 610.625739 -36.729688 
L 610.220661 -36.729688 
L 609.815584 -36.729688 
L 609.410507 -36.729688 
L 609.00543 -36.729688 
L 608.600353 -36.729688 
L 608.195275 -36.729688 
L 607.790198 -36.729688 
L 607.385121 -36.729688 
L 606.980044 -36.729688 
L 606.574967 -36.729688 
L 606.169889 -36.729688 
L 605.764812 -36.729688 
L 605.359735 -36.729688 
L 604.954658 -36.729688 
L 604.549581 -36.729688 
L 604.144503 -36.729688 
L 603.739426 -36.729688 
L 603.334349 -36.729688 
L 602.929272 -36.729688 
L 602.524194 -36.729688 
L 602.119117 -36.729688 
L 601.71404 -36.729688 
L 601.308963 -36.729688 
L 600.903886 -36.729688 
L 600.498808 -36.729688 
L 600.093731 -36.729688 
L 599.688654 -36.729688 
L 599.283577 -36.729688 
L 598.8785 -36.729688 
L 598.473422 -36.729688 
L 598.068345 -36.729688 
L 597.663268 -36.729688 
L 597.258191 -36.729688 
L 596.853114 -36.729688 
L 596.448036 -36.729688 
L 596.042959 -36.729688 
L 595.637882 -36.729688 
L 595.232805 -36.729688 
L 594.827727 -36.729688 
L 594.42265 -36.729688 
L 594.017573 -36.729688 
L 593.612496 -36.729688 
L 593.207419 -36.729688 
L 592.802341 -36.729688 
L 592.397264 -36.729688 
L 591.992187 -36.729688 
L 591.58711 -36.729688 
L 591.182033 -36.729688 
L 590.776955 -36.729688 
L 590.371878 -36.729688 
L 589.966801 -36.729688 
L 589.561724 -36.729688 
L 589.156647 -36.729688 
L 588.751569 -36.729688 
L 588.346492 -36.729688 
L 587.941415 -36.729688 
L 587.536338 -36.729688 
L 587.131261 -36.729688 
L 586.726183 -36.729688 
L 586.321106 -36.729688 
L 585.916029 -36.729688 
L 585.510952 -36.729688 
L 585.105874 -36.729688 
L 584.700797 -36.729688 
L 584.29572 -36.729688 
L 583.890643 -36.729688 
L 583.485566 -36.729688 
L 583.080488 -36.729688 
L 582.675411 -36.729688 
L 582.270334 -36.729688 
L 581.865257 -36.729688 
L 581.46018 -36.729688 
L 581.055102 -36.729688 
L 580.650025 -36.729688 
L 580.244948 -36.729688 
L 579.839871 -36.729688 
L 579.434794 -36.729688 
L 579.029716 -36.729688 
L 578.624639 -36.729688 
L 578.219562 -36.729688 
L 577.814485 -36.729688 
L 577.409408 -36.729688 
L 577.00433 -36.729688 
L 576.599253 -36.729688 
L 576.194176 -36.729688 
L 575.789099 -36.729688 
L 575.384021 -36.729688 
L 574.978944 -36.729688 
L 574.573867 -36.729688 
L 574.16879 -36.729688 
L 573.763713 -36.729688 
L 573.358635 -36.729688 
L 572.953558 -36.729688 
L 572.548481 -36.729688 
L 572.143404 -36.729688 
L 571.738327 -36.729688 
L 571.333249 -36.729688 
L 570.928172 -36.729688 
L 570.523095 -36.729688 
L 570.118018 -36.729688 
L 569.712941 -36.729688 
L 569.307863 -36.729688 
L 568.902786 -36.729688 
L 568.497709 -36.729688 
L 568.092632 -36.729688 
L 567.687554 -36.729688 
L 567.282477 -36.729688 
L 566.8774 -36.729688 
L 566.472323 -36.729688 
L 566.067246 -36.729688 
L 565.662168 -36.729688 
L 565.257091 -36.729688 
L 564.852014 -36.729688 
L 564.446937 -36.729688 
L 564.04186 -36.729688 
L 563.636782 -36.729688 
L 563.231705 -36.729688 
L 562.826628 -36.729688 
L 562.421551 -36.729688 
L 562.016474 -36.729688 
L 561.611396 -36.729688 
L 561.206319 -36.729688 
L 560.801242 -36.729688 
L 560.396165 -36.729688 
L 559.991088 -36.729688 
L 559.58601 -36.729688 
L 559.180933 -36.729688 
L 558.775856 -36.729688 
L 558.370779 -36.729688 
L 557.965701 -36.729688 
L 557.560624 -36.729688 
L 557.155547 -36.729688 
L 556.75047 -36.729688 
L 556.345393 -36.729688 
L 555.940315 -36.729688 
L 555.535238 -36.729688 
L 555.130161 -36.729688 
L 554.725084 -36.729688 
L 554.320007 -36.729688 
L 553.914929 -36.729688 
L 553.509852 -36.729688 
L 553.104775 -36.729688 
L 552.699698 -36.729688 
L 552.294621 -36.729688 
L 551.889543 -36.729688 
L 551.484466 -36.729688 
L 551.079389 -36.729688 
L 550.674312 -36.729688 
L 550.269235 -36.729688 
L 549.864157 -36.729688 
L 549.45908 -36.729688 
L 549.054003 -36.729688 
L 548.648926 -36.729688 
L 548.243848 -36.729688 
L 547.838771 -36.729688 
L 547.433694 -36.729688 
L 547.028617 -36.729688 
L 546.62354 -36.729688 
L 546.218462 -36.729688 
L 545.813385 -36.729688 
L 545.408308 -36.729688 
L 545.003231 -36.729688 
L 544.598154 -36.729688 
L 544.193076 -36.729688 
L 543.787999 -36.729688 
L 543.382922 -36.729688 
L 542.977845 -36.729688 
L 542.572768 -36.729688 
L 542.16769 -36.729688 
L 541.762613 -36.729688 
L 541.357536 -36.729688 
L 540.952459 -36.729688 
L 540.547381 -36.729688 
L 540.142304 -36.729688 
L 539.737227 -36.729688 
L 539.33215 -36.729688 
L 538.927073 -36.729688 
L 538.521995 -36.729688 
L 538.116918 -36.729688 
L 537.711841 -36.729688 
L 537.306764 -36.729688 
L 536.901687 -36.729688 
L 536.496609 -36.729688 
L 536.091532 -36.729688 
L 535.686455 -36.729688 
L 535.281378 -36.729688 
L 534.876301 -36.729688 
L 534.471223 -36.729688 
L 534.066146 -36.729688 
L 533.661069 -36.729688 
L 533.255992 -36.729688 
L 532.850915 -36.729688 
L 532.445837 -36.729688 
L 532.04076 -36.729688 
L 531.635683 -36.729688 
L 531.230606 -36.729688 
L 530.825528 -36.729688 
L 530.420451 -36.729688 
L 530.015374 -36.729688 
L 529.610297 -36.729688 
L 529.20522 -36.729688 
L 528.800142 -36.729688 
L 528.395065 -36.729688 
L 527.989988 -36.729688 
L 527.584911 -36.729688 
L 527.179834 -36.729688 
L 526.774756 -36.729688 
L 526.369679 -36.729688 
L 525.964602 -36.729688 
L 525.559525 -36.729688 
L 525.154448 -36.729688 
L 524.74937 -36.729688 
L 524.344293 -36.729688 
L 523.939216 -36.729688 
L 523.534139 -36.729688 
L 523.129062 -36.729688 
L 522.723984 -36.729688 
L 522.318907 -36.729688 
L 521.91383 -36.729688 
L 521.508753 -36.729688 
L 521.103675 -36.729688 
L 520.698598 -36.729688 
L 520.293521 -36.729688 
L 519.888444 -36.729688 
L 519.483367 -36.729688 
L 519.078289 -36.729688 
L 518.673212 -36.729688 
L 518.268135 -36.729688 
L 517.863058 -36.729688 
L 517.457981 -36.729688 
L 517.052903 -36.729688 
L 516.647826 -36.729688 
L 516.242749 -36.729688 
L 515.837672 -36.729688 
L 515.432595 -36.729688 
L 515.027517 -36.729688 
L 514.62244 -36.729688 
L 514.217363 -36.729688 
L 513.812286 -36.729688 
L 513.407208 -36.729688 
L 513.002131 -36.729688 
L 512.597054 -36.729688 
L 512.191977 -36.729688 
L 511.7869 -36.729688 
L 511.381822 -36.729688 
L 510.976745 -36.729688 
L 510.571668 -36.729688 
L 510.166591 -36.729688 
L 509.761514 -36.729688 
L 509.356436 -36.729688 
L 508.951359 -36.729688 
L 508.546282 -36.729688 
L 508.141205 -36.729688 
L 507.736128 -36.729688 
L 507.33105 -36.729688 
L 506.925973 -36.729688 
L 506.520896 -36.729688 
L 506.115819 -36.729688 
L 505.710742 -36.729688 
L 505.305664 -36.729688 
L 504.900587 -36.729688 
L 504.49551 -36.729688 
L 504.090433 -36.729688 
L 503.685355 -36.729688 
L 503.280278 -36.729688 
L 502.875201 -36.729688 
L 502.470124 -36.729688 
L 502.065047 -36.729688 
L 501.659969 -36.729688 
L 501.254892 -36.729688 
L 500.849815 -36.729688 
L 500.444738 -36.729688 
L 500.039661 -36.729688 
L 499.634583 -36.729688 
L 499.229506 -36.729688 
L 498.824429 -36.729688 
L 498.419352 -36.729688 
L 498.014275 -36.729688 
L 497.609197 -36.729688 
L 497.20412 -36.729688 
L 496.799043 -36.729688 
L 496.393966 -36.729688 
L 495.988889 -36.729688 
L 495.583811 -36.729688 
L 495.178734 -36.729688 
L 494.773657 -36.729688 
L 494.36858 -36.729688 
L 493.963502 -36.729688 
L 493.558425 -36.729688 
L 493.153348 -36.729688 
L 492.748271 -36.729688 
L 492.343194 -36.729688 
L 491.938116 -36.729688 
L 491.533039 -36.729688 
L 491.127962 -36.729688 
L 490.722885 -36.729688 
L 490.317808 -36.729688 
L 489.91273 -36.729688 
L 489.507653 -36.729688 
L 489.102576 -36.729688 
L 488.697499 -36.729688 
L 488.292422 -36.729688 
L 487.887344 -36.729688 
L 487.482267 -36.729688 
L 487.07719 -36.729688 
L 486.672113 -36.729688 
L 486.267035 -36.729688 
L 485.861958 -36.729688 
L 485.456881 -36.729688 
L 485.051804 -36.729688 
L 484.646727 -36.729688 
L 484.241649 -36.729688 
L 483.836572 -36.729688 
L 483.431495 -36.729688 
L 483.026418 -36.729688 
L 482.621341 -36.729688 
L 482.216263 -36.729688 
L 481.811186 -36.729688 
L 481.406109 -36.729688 
L 481.001032 -36.729688 
L 480.595955 -36.729688 
L 480.190877 -36.729688 
L 479.7858 -36.729688 
L 479.380723 -36.729688 
L 478.975646 -36.729688 
L 478.570569 -36.729688 
L 478.165491 -36.729688 
L 477.760414 -36.729688 
L 477.355337 -36.729688 
L 476.95026 -36.729688 
L 476.545182 -36.729688 
L 476.140105 -36.729688 
L 475.735028 -36.729688 
L 475.329951 -36.729688 
L 474.924874 -36.729688 
L 474.519796 -36.729688 
L 474.114719 -36.729688 
L 473.709642 -36.729688 
L 473.304565 -36.729688 
L 472.899488 -36.729688 
L 472.49441 -36.729688 
L 472.089333 -36.729688 
L 471.684256 -36.729688 
L 471.279179 -36.729688 
L 470.874102 -36.729688 
L 470.469024 -36.729688 
L 470.063947 -36.729688 
L 469.65887 -36.729688 
L 469.253793 -36.729688 
L 468.848716 -36.729688 
L 468.443638 -36.729688 
L 468.038561 -36.729688 
L 467.633484 -36.729688 
L 467.228407 -36.729688 
L 466.823329 -36.729688 
L 466.418252 -36.729688 
L 466.013175 -36.729688 
L 465.608098 -36.729688 
L 465.203021 -36.729688 
L 464.797943 -36.729688 
L 464.392866 -36.729688 
L 463.987789 -36.729688 
L 463.582712 -36.729688 
L 463.177635 -36.729688 
L 462.772557 -36.729688 
L 462.36748 -36.729688 
L 461.962403 -36.729688 
L 461.557326 -36.729688 
L 461.152249 -36.729688 
L 460.747171 -36.729688 
L 460.342094 -36.729688 
L 459.937017 -36.729688 
L 459.53194 -36.729688 
L 459.126862 -36.729688 
L 458.721785 -36.729688 
L 458.316708 -36.729688 
L 457.911631 -36.729688 
L 457.506554 -36.729688 
L 457.101476 -36.729688 
L 456.696399 -36.729688 
L 456.291322 -36.729688 
L 455.886245 -36.729688 
L 455.481168 -36.729688 
L 455.07609 -36.729688 
L 454.671013 -36.729688 
L 454.265936 -36.729688 
L 453.860859 -36.729688 
L 453.455782 -36.729688 
L 453.050704 -36.729688 
L 452.645627 -36.729688 
L 452.24055 -36.729688 
L 451.835473 -36.729688 
L 451.430396 -36.729688 
L 451.025318 -36.729688 
L 450.620241 -36.729688 
L 450.215164 -36.729688 
L 449.810087 -36.729688 
L 449.405009 -36.729688 
L 448.999932 -36.729688 
L 448.594855 -36.729688 
L 448.189778 -36.729688 
L 447.784701 -36.729688 
L 447.379623 -36.729688 
L 446.974546 -36.729688 
L 446.569469 -36.729688 
L 446.164392 -36.729688 
L 445.759315 -36.729688 
L 445.354237 -36.729688 
L 444.94916 -36.729688 
L 444.544083 -36.729688 
L 444.139006 -36.729688 
L 443.733929 -36.729688 
L 443.328851 -36.729688 
L 442.923774 -36.729688 
L 442.518697 -36.729688 
L 442.11362 -36.729688 
L 441.708543 -36.729688 
L 441.303465 -36.729688 
L 440.898388 -36.729688 
L 440.493311 -36.729688 
L 440.088234 -36.729688 
L 439.683156 -36.729688 
L 439.278079 -36.729688 
L 438.873002 -36.729688 
L 438.467925 -36.729688 
L 438.062848 -36.729688 
L 437.65777 -36.729688 
L 437.252693 -36.729688 
L 436.847616 -36.729688 
L 436.442539 -36.729688 
L 436.037462 -36.729688 
L 435.632384 -36.729688 
L 435.227307 -36.729688 
L 434.82223 -36.729688 
L 434.417153 -36.729688 
L 434.012076 -36.729688 
L 433.606998 -36.729688 
L 433.201921 -36.729688 
L 432.796844 -36.729688 
L 432.391767 -36.729688 
L 431.98669 -36.729688 
L 431.581612 -36.729688 
L 431.176535 -36.729688 
L 430.771458 -36.729688 
L 430.366381 -36.729688 
L 429.961303 -36.729688 
L 429.556226 -36.729688 
L 429.151149 -36.729688 
L 428.746072 -36.729688 
L 428.340995 -36.729688 
L 427.935917 -36.729688 
L 427.53084 -36.729688 
L 427.125763 -36.729688 
L 426.720686 -36.729688 
L 426.315609 -36.729688 
z
" style="stroke: #4c72b0; stroke-opacity: 0.2"/>
    </defs>
    <g clip-path="url(#pd3ea51f7e8)">
     <use xlink:href="#m574761aab3" x="0" y="154.809687" style="fill: #4c72b0; fill-opacity: 0.2; stroke: #4c72b0; stroke-opacity: 0.2"/>
    </g>
   </g>
   <g id="FillBetweenPolyCollection_2"/>
   <g id="line2d_35">
    <path d="M 426.315609 118.075421 
L 444.544083 117.94688 
L 455.886245 117.632911 
L 493.153348 116.37581 
L 514.62244 115.98686 
L 523.534139 115.544988 
L 531.230606 114.960248 
L 537.306764 114.291657 
L 542.572768 113.487973 
L 547.433694 112.521387 
L 552.699698 111.239228 
L 559.180933 109.41704 
L 570.118018 106.069201 
L 585.916029 100.999046 
L 592.397264 98.734669 
L 597.258191 96.80191 
L 601.308963 94.960993 
L 605.359735 92.881522 
L 609.410507 90.56382 
L 613.866356 87.743961 
L 617.917128 84.904848 
L 621.157746 82.387945 
L 624.398364 79.579311 
L 627.233904 76.819612 
L 630.069445 73.725288 
L 632.904985 70.260324 
L 635.740526 66.411748 
L 638.576066 62.195878 
L 641.816684 56.990979 
L 646.272533 49.380157 
L 653.969 36.174705 
L 657.209618 31.057688 
L 660.045158 26.967024 
L 662.475621 23.80463 
L 664.906085 20.994353 
L 667.336548 18.560128 
L 669.361934 16.831869 
L 671.38732 15.38526 
L 673.412706 14.226687 
L 675.438092 13.360684 
L 677.058401 12.879968 
L 678.67871 12.587228 
L 680.299019 12.48 
L 682.324405 12.599482 
L 684.349791 12.986756 
L 686.375177 13.62104 
L 688.400563 14.475831 
L 690.831026 15.748738 
L 693.666566 17.500399 
L 697.312261 20.032852 
L 704.198574 25.165442 
L 714.730581 33.228226 
L 718.781353 36.604247 
L 722.427048 39.944886 
L 725.667666 43.225122 
L 728.908284 46.827908 
L 732.553979 51.253613 
L 736.604751 56.549681 
L 743.085986 65.462428 
L 749.972299 74.836397 
L 754.428148 80.550968 
L 758.47892 85.40322 
L 762.529692 89.893032 
L 766.175387 93.61918 
L 769.821082 97.058142 
L 773.871854 100.563945 
L 777.922626 103.758899 
L 781.973398 106.651538 
L 785.619093 108.989043 
L 789.264788 111.05772 
L 792.505405 112.655387 
L 795.746023 114.015697 
L 798.986641 115.136561 
L 802.227258 116.02621 
L 805.872953 116.774657 
L 809.518648 117.29483 
L 813.974498 117.690662 
L 819.645578 117.940854 
L 828.1522 118.058102 
L 830.98774 118.069145 
L 830.98774 118.069145 
" clip-path="url(#pd3ea51f7e8)" style="fill: none; stroke: #4c72b0; stroke-width: 1.5; stroke-linecap: round"/>
   </g>
   <g id="line2d_36">
    <path d="M 7.2 118.08 
L 844.2 118.08 
" clip-path="url(#pd3ea51f7e8)" style="fill: none; stroke: #808080; stroke-width: 0.5; stroke-linecap: round"/>
   </g>
   <g id="text_10">
    <text style="font-size: 10px; font-family: 'Arial', 'DejaVu Sans', 'Liberation Sans', 'Bitstream Vera Sans', sans-serif; text-anchor: middle" x="683.296137" y="115.975312" transform="rotate(-0 683.296137 115.975312)">Sweden (2025)</text>
   </g>
  </g>
 </g>
 <defs>
  <clipPath id="pd3ea51f7e8">
   <rect x="7.2" y="7.2" width="837" height="110.88"/>
  </clipPath>
 </defs>
</svg>
