<?xml version="1.0" encoding="utf-8" standalone="no"?>
<!DOCTYPE svg PUBLIC "-//W3C//DTD SVG 1.1//EN"
  "http://www.w3.org/Graphics/SVG/1.1/DTD/svg11.dtd">
<svg xmlns:xlink="http://www.w3.org/1999/xlink" width="1080pt" height="540pt" viewBox="0 0 1080 540" xmlns="http://www.w3.org/2000/svg" version="1.1">
 <metadata>
  <rdf:RDF xmlns:dc="http://purl.org/dc/elements/1.1/" xmlns:cc="http://creativecommons.org/ns#" xmlns:rdf="http://www.w3.org/1999/02/22-rdf-syntax-ns#">
   <cc:Work>
    <dc:type rdf:resource="http://purl.org/dc/dcmitype/StillImage"/>
    <dc:date>2025-03-25T12:18:12.636053</dc:date>
    <dc:format>image/svg+xml</dc:format>
    <dc:creator>
     <cc:Agent>
      <dc:title>Matplotlib v3.10.1, https://matplotlib.org/</dc:title>
     </cc:Agent>
    </dc:creator>
   </cc:Work>
  </rdf:RDF>
 </metadata>
 <defs>
  <style type="text/css">*{stroke-linejoin: round; stroke-linecap: butt}</style>
 </defs>
 <g id="figure_1">
  <g id="patch_1">
   <path d="M 0 540 
L 1080 540 
L 1080 0 
L 0 0 
z
" style="fill: #ffffff"/>
  </g>
  <g id="axes_1">
   <g id="patch_2">
    <path d="M 135 480.6 
L 972 480.6 
L 972 64.8 
L 135 64.8 
z
" style="fill: #ffffff"/>
   </g>
   <g id="matplotlib.axis_1">
    <g id="xtick_1">
     <g id="line2d_1">
      <defs>
       <path id="m374acd9569" d="M 0 0 
L 0 3.5 
" style="stroke: #262626; stroke-width: 0.8"/>
      </defs>
      <g>
       <use xlink:href="#m374acd9569" x="345.262427" y="480.6" style="fill: #262626; stroke: #262626; stroke-width: 0.8"/>
      </g>
     </g>
     <g id="text_1">
      <!-- 1 -->
      <g style="fill: #262626" transform="translate(342.481958 494.757812) scale(0.1 -0.1)">
       <defs>
        <path id="ArialMT-31" d="M 2384 0 
L 1822 0 
L 1822 3584 
Q 1619 3391 1289 3197 
Q 959 3003 697 2906 
L 697 3450 
Q 1169 3672 1522 3987 
Q 1875 4303 2022 4600 
L 2384 4600 
L 2384 0 
z
" transform="scale(0.015625)"/>
       </defs>
       <use xlink:href="#ArialMT-31"/>
      </g>
     </g>
    </g>
    <g id="xtick_2">
     <g id="line2d_2">
      <g>
       <use xlink:href="#m374acd9569" x="403.151868" y="480.6" style="fill: #262626; stroke: #262626; stroke-width: 0.8"/>
      </g>
     </g>
     <g id="text_2">
      <!-- 2 -->
      <g style="fill: #262626" transform="translate(400.371399 494.757812) scale(0.1 -0.1)">
       <defs>
        <path id="ArialMT-32" d="M 3222 541 
L 3222 0 
L 194 0 
Q 188 203 259 391 
Q 375 700 629 1000 
Q 884 1300 1366 1694 
Q 2113 2306 2375 2664 
Q 2638 3022 2638 3341 
Q 2638 3675 2398 3904 
Q 2159 4134 1775 4134 
Q 1369 4134 1125 3890 
Q 881 3647 878 3216 
L 300 3275 
Q 359 3922 746 4261 
Q 1134 4600 1788 4600 
Q 2447 4600 2831 4234 
Q 3216 3869 3216 3328 
Q 3216 3053 3103 2787 
Q 2991 2522 2730 2228 
Q 2469 1934 1863 1422 
Q 1356 997 1212 845 
Q 1069 694 975 541 
L 3222 541 
z
" transform="scale(0.015625)"/>
       </defs>
       <use xlink:href="#ArialMT-32"/>
      </g>
     </g>
    </g>
    <g id="xtick_3">
     <g id="line2d_3">
      <g>
       <use xlink:href="#m374acd9569" x="479.677546" y="480.6" style="fill: #262626; stroke: #262626; stroke-width: 0.8"/>
      </g>
     </g>
     <g id="text_3">
      <!-- 5 -->
      <g style="fill: #262626" transform="translate(476.897077 494.757812) scale(0.1 -0.1)">
       <defs>
        <path id="ArialMT-35" d="M 266 1200 
L 856 1250 
Q 922 819 1161 601 
Q 1400 384 1738 384 
Q 2144 384 2425 690 
Q 2706 997 2706 1503 
Q 2706 1984 2436 2262 
Q 2166 2541 1728 2541 
Q 1456 2541 1237 2417 
Q 1019 2294 894 2097 
L 366 2166 
L 809 4519 
L 3088 4519 
L 3088 3981 
L 1259 3981 
L 1013 2750 
Q 1425 3038 1878 3038 
Q 2478 3038 2890 2622 
Q 3303 2206 3303 1553 
Q 3303 931 2941 478 
Q 2500 -78 1738 -78 
Q 1113 -78 717 272 
Q 322 622 266 1200 
z
" transform="scale(0.015625)"/>
       </defs>
       <use xlink:href="#ArialMT-35"/>
      </g>
     </g>
    </g>
    <g id="xtick_4">
     <g id="line2d_4">
      <g>
       <use xlink:href="#m374acd9569" x="537.566987" y="480.6" style="fill: #262626; stroke: #262626; stroke-width: 0.8"/>
      </g>
     </g>
     <g id="text_4">
      <!-- 10 -->
      <g style="fill: #262626" transform="translate(532.006049 494.757812) scale(0.1 -0.1)">
       <defs>
        <path id="ArialMT-30" d="M 266 2259 
Q 266 3072 433 3567 
Q 600 4063 929 4331 
Q 1259 4600 1759 4600 
Q 2128 4600 2406 4451 
Q 2684 4303 2865 4023 
Q 3047 3744 3150 3342 
Q 3253 2941 3253 2259 
Q 3253 1453 3087 958 
Q 2922 463 2592 192 
Q 2263 -78 1759 -78 
Q 1097 -78 719 397 
Q 266 969 266 2259 
z
M 844 2259 
Q 844 1131 1108 757 
Q 1372 384 1759 384 
Q 2147 384 2411 759 
Q 2675 1134 2675 2259 
Q 2675 3391 2411 3762 
Q 2147 4134 1753 4134 
Q 1366 4134 1134 3806 
Q 844 3388 844 2259 
z
" transform="scale(0.015625)"/>
       </defs>
       <use xlink:href="#ArialMT-31"/>
       <use xlink:href="#ArialMT-30" transform="translate(55.615234 0)"/>
      </g>
     </g>
    </g>
    <g id="xtick_5">
     <g id="line2d_5">
      <g>
       <use xlink:href="#m374acd9569" x="595.456428" y="480.6" style="fill: #262626; stroke: #262626; stroke-width: 0.8"/>
      </g>
     </g>
     <g id="text_5">
      <!-- 20 -->
      <g style="fill: #262626" transform="translate(589.89549 494.757812) scale(0.1 -0.1)">
       <use xlink:href="#ArialMT-32"/>
       <use xlink:href="#ArialMT-30" transform="translate(55.615234 0)"/>
      </g>
     </g>
    </g>
    <g id="xtick_6">
     <g id="line2d_6">
      <g>
       <use xlink:href="#m374acd9569" x="671.982106" y="480.6" style="fill: #262626; stroke: #262626; stroke-width: 0.8"/>
      </g>
     </g>
     <g id="text_6">
      <!-- 50 -->
      <g style="fill: #262626" transform="translate(666.421168 494.757812) scale(0.1 -0.1)">
       <use xlink:href="#ArialMT-35"/>
       <use xlink:href="#ArialMT-30" transform="translate(55.615234 0)"/>
      </g>
     </g>
    </g>
    <g id="xtick_7">
     <g id="line2d_7">
      <g>
       <use xlink:href="#m374acd9569" x="729.871547" y="480.6" style="fill: #262626; stroke: #262626; stroke-width: 0.8"/>
      </g>
     </g>
     <g id="text_7">
      <!-- 100 -->
      <g style="fill: #262626" transform="translate(721.53014 494.757812) scale(0.1 -0.1)">
       <use xlink:href="#ArialMT-31"/>
       <use xlink:href="#ArialMT-30" transform="translate(55.615234 0)"/>
       <use xlink:href="#ArialMT-30" transform="translate(111.230469 0)"/>
      </g>
     </g>
    </g>
    <g id="xtick_8">
     <g id="line2d_8">
      <g>
       <use xlink:href="#m374acd9569" x="787.760988" y="480.6" style="fill: #262626; stroke: #262626; stroke-width: 0.8"/>
      </g>
     </g>
     <g id="text_8">
      <!-- 200 -->
      <g style="fill: #262626" transform="translate(779.419581 494.757812) scale(0.1 -0.1)">
       <use xlink:href="#ArialMT-32"/>
       <use xlink:href="#ArialMT-30" transform="translate(55.615234 0)"/>
       <use xlink:href="#ArialMT-30" transform="translate(111.230469 0)"/>
      </g>
     </g>
    </g>
    <g id="xtick_9">
     <g id="line2d_9">
      <g>
       <use xlink:href="#m374acd9569" x="864.286666" y="480.6" style="fill: #262626; stroke: #262626; stroke-width: 0.8"/>
      </g>
     </g>
     <g id="text_9">
      <!-- 500 -->
      <g style="fill: #262626" transform="translate(855.94526 494.757812) scale(0.1 -0.1)">
       <use xlink:href="#ArialMT-35"/>
       <use xlink:href="#ArialMT-30" transform="translate(55.615234 0)"/>
       <use xlink:href="#ArialMT-30" transform="translate(111.230469 0)"/>
      </g>
     </g>
    </g>
    <g id="xtick_10">
     <g id="line2d_10">
      <g>
       <use xlink:href="#m374acd9569" x="922.176107" y="480.6" style="fill: #262626; stroke: #262626; stroke-width: 0.8"/>
      </g>
     </g>
     <g id="text_10">
      <!-- 1000 -->
      <g style="fill: #262626" transform="translate(911.054232 494.757812) scale(0.1 -0.1)">
       <use xlink:href="#ArialMT-31"/>
       <use xlink:href="#ArialMT-30" transform="translate(55.615234 0)"/>
       <use xlink:href="#ArialMT-30" transform="translate(111.230469 0)"/>
       <use xlink:href="#ArialMT-30" transform="translate(166.845703 0)"/>
      </g>
     </g>
    </g>
    <g id="xtick_11">
     <g id="line2d_11">
      <defs>
       <path id="mdd6a787814" d="M 0 0 
L 0 2 
" style="stroke: #262626; stroke-width: 0.6"/>
      </defs>
      <g>
       <use xlink:href="#mdd6a787814" x="144.158493" y="480.6" style="fill: #262626; stroke: #262626; stroke-width: 0.6"/>
      </g>
     </g>
    </g>
    <g id="xtick_12">
     <g id="line2d_12">
      <g>
       <use xlink:href="#mdd6a787814" x="210.847308" y="480.6" style="fill: #262626; stroke: #262626; stroke-width: 0.6"/>
      </g>
     </g>
    </g>
    <g id="xtick_13">
     <g id="line2d_13">
      <g>
       <use xlink:href="#mdd6a787814" x="244.71046" y="480.6" style="fill: #262626; stroke: #262626; stroke-width: 0.6"/>
      </g>
     </g>
    </g>
    <g id="xtick_14">
     <g id="line2d_14">
      <g>
       <use xlink:href="#mdd6a787814" x="268.736749" y="480.6" style="fill: #262626; stroke: #262626; stroke-width: 0.6"/>
      </g>
     </g>
    </g>
    <g id="xtick_15">
     <g id="line2d_15">
      <g>
       <use xlink:href="#mdd6a787814" x="287.372986" y="480.6" style="fill: #262626; stroke: #262626; stroke-width: 0.6"/>
      </g>
     </g>
    </g>
    <g id="xtick_16">
     <g id="line2d_16">
      <g>
       <use xlink:href="#mdd6a787814" x="302.599901" y="480.6" style="fill: #262626; stroke: #262626; stroke-width: 0.6"/>
      </g>
     </g>
    </g>
    <g id="xtick_17">
     <g id="line2d_17">
      <g>
       <use xlink:href="#mdd6a787814" x="315.474074" y="480.6" style="fill: #262626; stroke: #262626; stroke-width: 0.6"/>
      </g>
     </g>
    </g>
    <g id="xtick_18">
     <g id="line2d_18">
      <g>
       <use xlink:href="#mdd6a787814" x="326.62619" y="480.6" style="fill: #262626; stroke: #262626; stroke-width: 0.6"/>
      </g>
     </g>
    </g>
    <g id="xtick_19">
     <g id="line2d_19">
      <g>
       <use xlink:href="#mdd6a787814" x="336.463053" y="480.6" style="fill: #262626; stroke: #262626; stroke-width: 0.6"/>
      </g>
     </g>
    </g>
    <g id="xtick_20">
     <g id="line2d_20">
      <g>
       <use xlink:href="#mdd6a787814" x="437.01502" y="480.6" style="fill: #262626; stroke: #262626; stroke-width: 0.6"/>
      </g>
     </g>
    </g>
    <g id="xtick_21">
     <g id="line2d_21">
      <g>
       <use xlink:href="#mdd6a787814" x="461.041309" y="480.6" style="fill: #262626; stroke: #262626; stroke-width: 0.6"/>
      </g>
     </g>
    </g>
    <g id="xtick_22">
     <g id="line2d_22">
      <g>
       <use xlink:href="#mdd6a787814" x="494.904461" y="480.6" style="fill: #262626; stroke: #262626; stroke-width: 0.6"/>
      </g>
     </g>
    </g>
    <g id="xtick_23">
     <g id="line2d_23">
      <g>
       <use xlink:href="#mdd6a787814" x="507.778634" y="480.6" style="fill: #262626; stroke: #262626; stroke-width: 0.6"/>
      </g>
     </g>
    </g>
    <g id="xtick_24">
     <g id="line2d_24">
      <g>
       <use xlink:href="#mdd6a787814" x="518.930749" y="480.6" style="fill: #262626; stroke: #262626; stroke-width: 0.6"/>
      </g>
     </g>
    </g>
    <g id="xtick_25">
     <g id="line2d_25">
      <g>
       <use xlink:href="#mdd6a787814" x="528.767613" y="480.6" style="fill: #262626; stroke: #262626; stroke-width: 0.6"/>
      </g>
     </g>
    </g>
    <g id="xtick_26">
     <g id="line2d_26">
      <g>
       <use xlink:href="#mdd6a787814" x="629.31958" y="480.6" style="fill: #262626; stroke: #262626; stroke-width: 0.6"/>
      </g>
     </g>
    </g>
    <g id="xtick_27">
     <g id="line2d_27">
      <g>
       <use xlink:href="#mdd6a787814" x="653.345868" y="480.6" style="fill: #262626; stroke: #262626; stroke-width: 0.6"/>
      </g>
     </g>
    </g>
    <g id="xtick_28">
     <g id="line2d_28">
      <g>
       <use xlink:href="#mdd6a787814" x="687.209021" y="480.6" style="fill: #262626; stroke: #262626; stroke-width: 0.6"/>
      </g>
     </g>
    </g>
    <g id="xtick_29">
     <g id="line2d_29">
      <g>
       <use xlink:href="#mdd6a787814" x="700.083193" y="480.6" style="fill: #262626; stroke: #262626; stroke-width: 0.6"/>
      </g>
     </g>
    </g>
    <g id="xtick_30">
     <g id="line2d_30">
      <g>
       <use xlink:href="#mdd6a787814" x="711.235309" y="480.6" style="fill: #262626; stroke: #262626; stroke-width: 0.6"/>
      </g>
     </g>
    </g>
    <g id="xtick_31">
     <g id="line2d_31">
      <g>
       <use xlink:href="#mdd6a787814" x="721.072173" y="480.6" style="fill: #262626; stroke: #262626; stroke-width: 0.6"/>
      </g>
     </g>
    </g>
    <g id="xtick_32">
     <g id="line2d_32">
      <g>
       <use xlink:href="#mdd6a787814" x="821.62414" y="480.6" style="fill: #262626; stroke: #262626; stroke-width: 0.6"/>
      </g>
     </g>
    </g>
    <g id="xtick_33">
     <g id="line2d_33">
      <g>
       <use xlink:href="#mdd6a787814" x="845.650428" y="480.6" style="fill: #262626; stroke: #262626; stroke-width: 0.6"/>
      </g>
     </g>
    </g>
    <g id="xtick_34">
     <g id="line2d_34">
      <g>
       <use xlink:href="#mdd6a787814" x="879.51358" y="480.6" style="fill: #262626; stroke: #262626; stroke-width: 0.6"/>
      </g>
     </g>
    </g>
    <g id="xtick_35">
     <g id="line2d_35">
      <g>
       <use xlink:href="#mdd6a787814" x="892.387753" y="480.6" style="fill: #262626; stroke: #262626; stroke-width: 0.6"/>
      </g>
     </g>
    </g>
    <g id="xtick_36">
     <g id="line2d_36">
      <g>
       <use xlink:href="#mdd6a787814" x="903.539869" y="480.6" style="fill: #262626; stroke: #262626; stroke-width: 0.6"/>
      </g>
     </g>
    </g>
    <g id="xtick_37">
     <g id="line2d_37">
      <g>
       <use xlink:href="#mdd6a787814" x="913.376733" y="480.6" style="fill: #262626; stroke: #262626; stroke-width: 0.6"/>
      </g>
     </g>
    </g>
    <g id="text_11">
     <!-- Income or consumption (day) -->
     <g style="fill: #262626" transform="translate(488.753906 508.025) scale(0.1 -0.1)">
      <defs>
       <path id="ArialMT-49" d="M 597 0 
L 597 4581 
L 1203 4581 
L 1203 0 
L 597 0 
z
" transform="scale(0.015625)"/>
       <path id="ArialMT-6e" d="M 422 0 
L 422 3319 
L 928 3319 
L 928 2847 
Q 1294 3394 1984 3394 
Q 2284 3394 2536 3286 
Q 2788 3178 2913 3003 
Q 3038 2828 3088 2588 
Q 3119 2431 3119 2041 
L 3119 0 
L 2556 0 
L 2556 2019 
Q 2556 2363 2490 2533 
Q 2425 2703 2258 2804 
Q 2091 2906 1866 2906 
Q 1506 2906 1245 2678 
Q 984 2450 984 1813 
L 984 0 
L 422 0 
z
" transform="scale(0.015625)"/>
       <path id="ArialMT-63" d="M 2588 1216 
L 3141 1144 
Q 3050 572 2676 248 
Q 2303 -75 1759 -75 
Q 1078 -75 664 370 
Q 250 816 250 1647 
Q 250 2184 428 2587 
Q 606 2991 970 3192 
Q 1334 3394 1763 3394 
Q 2303 3394 2647 3120 
Q 2991 2847 3088 2344 
L 2541 2259 
Q 2463 2594 2264 2762 
Q 2066 2931 1784 2931 
Q 1359 2931 1093 2626 
Q 828 2322 828 1663 
Q 828 994 1084 691 
Q 1341 388 1753 388 
Q 2084 388 2306 591 
Q 2528 794 2588 1216 
z
" transform="scale(0.015625)"/>
       <path id="ArialMT-6f" d="M 213 1659 
Q 213 2581 725 3025 
Q 1153 3394 1769 3394 
Q 2453 3394 2887 2945 
Q 3322 2497 3322 1706 
Q 3322 1066 3130 698 
Q 2938 331 2570 128 
Q 2203 -75 1769 -75 
Q 1072 -75 642 372 
Q 213 819 213 1659 
z
M 791 1659 
Q 791 1022 1069 705 
Q 1347 388 1769 388 
Q 2188 388 2466 706 
Q 2744 1025 2744 1678 
Q 2744 2294 2464 2611 
Q 2184 2928 1769 2928 
Q 1347 2928 1069 2612 
Q 791 2297 791 1659 
z
" transform="scale(0.015625)"/>
       <path id="ArialMT-6d" d="M 422 0 
L 422 3319 
L 925 3319 
L 925 2853 
Q 1081 3097 1340 3245 
Q 1600 3394 1931 3394 
Q 2300 3394 2536 3241 
Q 2772 3088 2869 2813 
Q 3263 3394 3894 3394 
Q 4388 3394 4653 3120 
Q 4919 2847 4919 2278 
L 4919 0 
L 4359 0 
L 4359 2091 
Q 4359 2428 4304 2576 
Q 4250 2725 4106 2815 
Q 3963 2906 3769 2906 
Q 3419 2906 3187 2673 
Q 2956 2441 2956 1928 
L 2956 0 
L 2394 0 
L 2394 2156 
Q 2394 2531 2256 2718 
Q 2119 2906 1806 2906 
Q 1569 2906 1367 2781 
Q 1166 2656 1075 2415 
Q 984 2175 984 1722 
L 984 0 
L 422 0 
z
" transform="scale(0.015625)"/>
       <path id="ArialMT-65" d="M 2694 1069 
L 3275 997 
Q 3138 488 2766 206 
Q 2394 -75 1816 -75 
Q 1088 -75 661 373 
Q 234 822 234 1631 
Q 234 2469 665 2931 
Q 1097 3394 1784 3394 
Q 2450 3394 2872 2941 
Q 3294 2488 3294 1666 
Q 3294 1616 3291 1516 
L 816 1516 
Q 847 969 1125 678 
Q 1403 388 1819 388 
Q 2128 388 2347 550 
Q 2566 713 2694 1069 
z
M 847 1978 
L 2700 1978 
Q 2663 2397 2488 2606 
Q 2219 2931 1791 2931 
Q 1403 2931 1139 2672 
Q 875 2413 847 1978 
z
" transform="scale(0.015625)"/>
       <path id="ArialMT-20" transform="scale(0.015625)"/>
       <path id="ArialMT-72" d="M 416 0 
L 416 3319 
L 922 3319 
L 922 2816 
Q 1116 3169 1280 3281 
Q 1444 3394 1641 3394 
Q 1925 3394 2219 3213 
L 2025 2691 
Q 1819 2813 1613 2813 
Q 1428 2813 1281 2702 
Q 1134 2591 1072 2394 
Q 978 2094 978 1738 
L 978 0 
L 416 0 
z
" transform="scale(0.015625)"/>
       <path id="ArialMT-73" d="M 197 991 
L 753 1078 
Q 800 744 1014 566 
Q 1228 388 1613 388 
Q 2000 388 2187 545 
Q 2375 703 2375 916 
Q 2375 1106 2209 1216 
Q 2094 1291 1634 1406 
Q 1016 1563 777 1677 
Q 538 1791 414 1992 
Q 291 2194 291 2438 
Q 291 2659 392 2848 
Q 494 3038 669 3163 
Q 800 3259 1026 3326 
Q 1253 3394 1513 3394 
Q 1903 3394 2198 3281 
Q 2494 3169 2634 2976 
Q 2775 2784 2828 2463 
L 2278 2388 
Q 2241 2644 2061 2787 
Q 1881 2931 1553 2931 
Q 1166 2931 1000 2803 
Q 834 2675 834 2503 
Q 834 2394 903 2306 
Q 972 2216 1119 2156 
Q 1203 2125 1616 2013 
Q 2213 1853 2448 1751 
Q 2684 1650 2818 1456 
Q 2953 1263 2953 975 
Q 2953 694 2789 445 
Q 2625 197 2315 61 
Q 2006 -75 1616 -75 
Q 969 -75 630 194 
Q 291 463 197 991 
z
" transform="scale(0.015625)"/>
       <path id="ArialMT-75" d="M 2597 0 
L 2597 488 
Q 2209 -75 1544 -75 
Q 1250 -75 995 37 
Q 741 150 617 320 
Q 494 491 444 738 
Q 409 903 409 1263 
L 409 3319 
L 972 3319 
L 972 1478 
Q 972 1038 1006 884 
Q 1059 663 1231 536 
Q 1403 409 1656 409 
Q 1909 409 2131 539 
Q 2353 669 2445 892 
Q 2538 1116 2538 1541 
L 2538 3319 
L 3100 3319 
L 3100 0 
L 2597 0 
z
" transform="scale(0.015625)"/>
       <path id="ArialMT-70" d="M 422 -1272 
L 422 3319 
L 934 3319 
L 934 2888 
Q 1116 3141 1344 3267 
Q 1572 3394 1897 3394 
Q 2322 3394 2647 3175 
Q 2972 2956 3137 2557 
Q 3303 2159 3303 1684 
Q 3303 1175 3120 767 
Q 2938 359 2589 142 
Q 2241 -75 1856 -75 
Q 1575 -75 1351 44 
Q 1128 163 984 344 
L 984 -1272 
L 422 -1272 
z
M 931 1641 
Q 931 1000 1190 694 
Q 1450 388 1819 388 
Q 2194 388 2461 705 
Q 2728 1022 2728 1688 
Q 2728 2322 2467 2637 
Q 2206 2953 1844 2953 
Q 1484 2953 1207 2617 
Q 931 2281 931 1641 
z
" transform="scale(0.015625)"/>
       <path id="ArialMT-74" d="M 1650 503 
L 1731 6 
Q 1494 -44 1306 -44 
Q 1000 -44 831 53 
Q 663 150 594 308 
Q 525 466 525 972 
L 525 2881 
L 113 2881 
L 113 3319 
L 525 3319 
L 525 4141 
L 1084 4478 
L 1084 3319 
L 1650 3319 
L 1650 2881 
L 1084 2881 
L 1084 941 
Q 1084 700 1114 631 
Q 1144 563 1211 522 
Q 1278 481 1403 481 
Q 1497 481 1650 503 
z
" transform="scale(0.015625)"/>
       <path id="ArialMT-69" d="M 425 3934 
L 425 4581 
L 988 4581 
L 988 3934 
L 425 3934 
z
M 425 0 
L 425 3319 
L 988 3319 
L 988 0 
L 425 0 
z
" transform="scale(0.015625)"/>
       <path id="ArialMT-28" d="M 1497 -1347 
Q 1031 -759 709 28 
Q 388 816 388 1659 
Q 388 2403 628 3084 
Q 909 3875 1497 4659 
L 1900 4659 
Q 1522 4009 1400 3731 
Q 1209 3300 1100 2831 
Q 966 2247 966 1656 
Q 966 153 1900 -1347 
L 1497 -1347 
z
" transform="scale(0.015625)"/>
       <path id="ArialMT-64" d="M 2575 0 
L 2575 419 
Q 2259 -75 1647 -75 
Q 1250 -75 917 144 
Q 584 363 401 755 
Q 219 1147 219 1656 
Q 219 2153 384 2558 
Q 550 2963 881 3178 
Q 1213 3394 1622 3394 
Q 1922 3394 2156 3267 
Q 2391 3141 2538 2938 
L 2538 4581 
L 3097 4581 
L 3097 0 
L 2575 0 
z
M 797 1656 
Q 797 1019 1065 703 
Q 1334 388 1700 388 
Q 2069 388 2326 689 
Q 2584 991 2584 1609 
Q 2584 2291 2321 2609 
Q 2059 2928 1675 2928 
Q 1300 2928 1048 2622 
Q 797 2316 797 1656 
z
" transform="scale(0.015625)"/>
       <path id="ArialMT-61" d="M 2588 409 
Q 2275 144 1986 34 
Q 1697 -75 1366 -75 
Q 819 -75 525 192 
Q 231 459 231 875 
Q 231 1119 342 1320 
Q 453 1522 633 1644 
Q 813 1766 1038 1828 
Q 1203 1872 1538 1913 
Q 2219 1994 2541 2106 
Q 2544 2222 2544 2253 
Q 2544 2597 2384 2738 
Q 2169 2928 1744 2928 
Q 1347 2928 1158 2789 
Q 969 2650 878 2297 
L 328 2372 
Q 403 2725 575 2942 
Q 747 3159 1072 3276 
Q 1397 3394 1825 3394 
Q 2250 3394 2515 3294 
Q 2781 3194 2906 3042 
Q 3031 2891 3081 2659 
Q 3109 2516 3109 2141 
L 3109 1391 
Q 3109 606 3145 398 
Q 3181 191 3288 0 
L 2700 0 
Q 2613 175 2588 409 
z
M 2541 1666 
Q 2234 1541 1622 1453 
Q 1275 1403 1131 1340 
Q 988 1278 909 1158 
Q 831 1038 831 891 
Q 831 666 1001 516 
Q 1172 366 1500 366 
Q 1825 366 2078 508 
Q 2331 650 2450 897 
Q 2541 1088 2541 1459 
L 2541 1666 
z
" transform="scale(0.015625)"/>
       <path id="ArialMT-79" d="M 397 -1278 
L 334 -750 
Q 519 -800 656 -800 
Q 844 -800 956 -737 
Q 1069 -675 1141 -563 
Q 1194 -478 1313 -144 
Q 1328 -97 1363 -6 
L 103 3319 
L 709 3319 
L 1400 1397 
Q 1534 1031 1641 628 
Q 1738 1016 1872 1384 
L 2581 3319 
L 3144 3319 
L 1881 -56 
Q 1678 -603 1566 -809 
Q 1416 -1088 1222 -1217 
Q 1028 -1347 759 -1347 
Q 597 -1347 397 -1278 
z
" transform="scale(0.015625)"/>
       <path id="ArialMT-29" d="M 791 -1347 
L 388 -1347 
Q 1322 153 1322 1656 
Q 1322 2244 1188 2822 
Q 1081 3291 891 3722 
Q 769 4003 388 4659 
L 791 4659 
Q 1378 3875 1659 3084 
Q 1900 2403 1900 1659 
Q 1900 816 1576 28 
Q 1253 -759 791 -1347 
z
" transform="scale(0.015625)"/>
      </defs>
      <use xlink:href="#ArialMT-49"/>
      <use xlink:href="#ArialMT-6e" transform="translate(27.783203 0)"/>
      <use xlink:href="#ArialMT-63" transform="translate(83.398438 0)"/>
      <use xlink:href="#ArialMT-6f" transform="translate(133.398438 0)"/>
      <use xlink:href="#ArialMT-6d" transform="translate(189.013672 0)"/>
      <use xlink:href="#ArialMT-65" transform="translate(272.314453 0)"/>
      <use xlink:href="#ArialMT-20" transform="translate(327.929688 0)"/>
      <use xlink:href="#ArialMT-6f" transform="translate(355.712891 0)"/>
      <use xlink:href="#ArialMT-72" transform="translate(411.328125 0)"/>
      <use xlink:href="#ArialMT-20" transform="translate(444.628906 0)"/>
      <use xlink:href="#ArialMT-63" transform="translate(472.412109 0)"/>
      <use xlink:href="#ArialMT-6f" transform="translate(522.412109 0)"/>
      <use xlink:href="#ArialMT-6e" transform="translate(578.027344 0)"/>
      <use xlink:href="#ArialMT-73" transform="translate(633.642578 0)"/>
      <use xlink:href="#ArialMT-75" transform="translate(683.642578 0)"/>
      <use xlink:href="#ArialMT-6d" transform="translate(739.257812 0)"/>
      <use xlink:href="#ArialMT-70" transform="translate(822.558594 0)"/>
      <use xlink:href="#ArialMT-74" transform="translate(878.173828 0)"/>
      <use xlink:href="#ArialMT-69" transform="translate(905.957031 0)"/>
      <use xlink:href="#ArialMT-6f" transform="translate(928.173828 0)"/>
      <use xlink:href="#ArialMT-6e" transform="translate(983.789062 0)"/>
      <use xlink:href="#ArialMT-20" transform="translate(1039.404297 0)"/>
      <use xlink:href="#ArialMT-28" transform="translate(1067.1875 0)"/>
      <use xlink:href="#ArialMT-64" transform="translate(1100.488281 0)"/>
      <use xlink:href="#ArialMT-61" transform="translate(1156.103516 0)"/>
      <use xlink:href="#ArialMT-79" transform="translate(1211.71875 0)"/>
      <use xlink:href="#ArialMT-29" transform="translate(1261.71875 0)"/>
     </g>
    </g>
   </g>
   <g id="matplotlib.axis_2"/>
   <g id="FillBetweenPolyCollection_1">
    <defs>
     <path id="mf92507b8a6" d="M 197.804101 -59.429333 
L 197.804101 -59.4 
L 200.343069 -59.4 
L 202.882036 -59.4 
L 205.421004 -59.4 
L 207.959971 -59.4 
L 210.498939 -59.4 
L 213.037906 -59.4 
L 215.576874 -59.4 
L 218.115841 -59.4 
L 220.654809 -59.4 
L 223.193777 -59.4 
L 225.732744 -59.4 
L 228.271712 -59.4 
L 230.810679 -59.4 
L 233.349647 -59.4 
L 235.888614 -59.4 
L 238.427582 -59.4 
L 240.96655 -59.4 
L 243.505517 -59.4 
L 246.044485 -59.4 
L 248.583452 -59.4 
L 251.12242 -59.4 
L 253.661387 -59.4 
L 256.200355 -59.4 
L 258.739323 -59.4 
L 261.27829 -59.4 
L 263.817258 -59.4 
L 266.356225 -59.4 
L 268.895193 -59.4 
L 271.43416 -59.4 
L 273.973128 -59.4 
L 276.512096 -59.4 
L 279.051063 -59.4 
L 281.590031 -59.4 
L 284.128998 -59.4 
L 286.667966 -59.4 
L 289.206933 -59.4 
L 291.745901 -59.4 
L 294.284868 -59.4 
L 296.823836 -59.4 
L 299.362804 -59.4 
L 301.901771 -59.4 
L 304.440739 -59.4 
L 306.979706 -59.4 
L 309.518674 -59.4 
L 312.057641 -59.4 
L 314.596609 -59.4 
L 317.135577 -59.4 
L 319.674544 -59.4 
L 322.213512 -59.4 
L 324.752479 -59.4 
L 327.291447 -59.4 
L 329.830414 -59.4 
L 332.369382 -59.4 
L 334.90835 -59.4 
L 337.447317 -59.4 
L 339.986285 -59.4 
L 342.525252 -59.4 
L 345.06422 -59.4 
L 347.603187 -59.4 
L 350.142155 -59.4 
L 352.681123 -59.4 
L 355.22009 -59.4 
L 357.759058 -59.4 
L 360.298025 -59.4 
L 362.836993 -59.4 
L 365.37596 -59.4 
L 367.914928 -59.4 
L 370.453895 -59.4 
L 372.992863 -59.4 
L 375.531831 -59.4 
L 378.070798 -59.4 
L 380.609766 -59.4 
L 383.148733 -59.4 
L 385.687701 -59.4 
L 388.226668 -59.4 
L 390.765636 -59.4 
L 393.304604 -59.4 
L 395.843571 -59.4 
L 398.382539 -59.4 
L 400.921506 -59.4 
L 403.460474 -59.4 
L 405.999441 -59.4 
L 408.538409 -59.4 
L 411.077377 -59.4 
L 413.616344 -59.4 
L 416.155312 -59.4 
L 418.694279 -59.4 
L 421.233247 -59.4 
L 423.772214 -59.4 
L 426.311182 -59.4 
L 428.85015 -59.4 
L 431.389117 -59.4 
L 433.928085 -59.4 
L 436.467052 -59.4 
L 439.00602 -59.4 
L 441.544987 -59.4 
L 444.083955 -59.4 
L 446.622922 -59.4 
L 449.16189 -59.4 
L 451.700858 -59.4 
L 454.239825 -59.4 
L 456.778793 -59.4 
L 459.31776 -59.4 
L 461.856728 -59.4 
L 464.395695 -59.4 
L 466.934663 -59.4 
L 469.473631 -59.4 
L 472.012598 -59.4 
L 474.551566 -59.4 
L 477.090533 -59.4 
L 479.629501 -59.4 
L 482.168468 -59.4 
L 484.707436 -59.4 
L 487.246404 -59.4 
L 489.785371 -59.4 
L 492.324339 -59.4 
L 494.863306 -59.4 
L 497.402274 -59.4 
L 499.941241 -59.4 
L 502.480209 -59.4 
L 505.019177 -59.4 
L 507.558144 -59.4 
L 510.097112 -59.4 
L 512.636079 -59.4 
L 515.175047 -59.4 
L 517.714014 -59.4 
L 520.252982 -59.4 
L 522.791949 -59.4 
L 525.330917 -59.4 
L 527.869885 -59.4 
L 530.408852 -59.4 
L 532.94782 -59.4 
L 535.486787 -59.4 
L 538.025755 -59.4 
L 540.564722 -59.4 
L 543.10369 -59.4 
L 545.642658 -59.4 
L 548.181625 -59.4 
L 550.720593 -59.4 
L 553.25956 -59.4 
L 555.798528 -59.4 
L 558.337495 -59.4 
L 560.876463 -59.4 
L 563.415431 -59.4 
L 565.954398 -59.4 
L 568.493366 -59.4 
L 571.032333 -59.4 
L 573.571301 -59.4 
L 576.110268 -59.4 
L 578.649236 -59.4 
L 581.188204 -59.4 
L 583.727171 -59.4 
L 586.266139 -59.4 
L 588.805106 -59.4 
L 591.344074 -59.4 
L 593.883041 -59.4 
L 596.422009 -59.4 
L 598.960976 -59.4 
L 601.499944 -59.4 
L 604.038912 -59.4 
L 606.577879 -59.4 
L 609.116847 -59.4 
L 611.655814 -59.4 
L 614.194782 -59.4 
L 616.733749 -59.4 
L 619.272717 -59.4 
L 621.811685 -59.4 
L 624.350652 -59.4 
L 626.88962 -59.4 
L 629.428587 -59.4 
L 631.967555 -59.4 
L 634.506522 -59.4 
L 637.04549 -59.4 
L 639.584458 -59.4 
L 642.123425 -59.4 
L 644.662393 -59.4 
L 647.20136 -59.4 
L 649.740328 -59.4 
L 652.279295 -59.4 
L 654.818263 -59.4 
L 657.357231 -59.4 
L 659.896198 -59.4 
L 662.435166 -59.4 
L 664.974133 -59.4 
L 667.513101 -59.4 
L 670.052068 -59.4 
L 672.591036 -59.4 
L 675.130003 -59.4 
L 677.668971 -59.4 
L 680.207939 -59.4 
L 682.746906 -59.4 
L 685.285874 -59.4 
L 687.824841 -59.4 
L 690.363809 -59.4 
L 692.902776 -59.4 
L 695.441744 -59.4 
L 697.980712 -59.4 
L 700.519679 -59.4 
L 703.058647 -59.4 
L 703.058647 -59.416918 
L 703.058647 -59.416918 
L 700.519679 -59.429239 
L 697.980712 -59.448772 
L 695.441744 -59.478522 
L 692.902776 -59.522014 
L 690.363809 -59.582994 
L 687.824841 -59.664891 
L 685.285874 -59.770086 
L 682.746906 -59.899049 
L 680.207939 -60.049514 
L 677.668971 -60.215905 
L 675.130003 -60.389226 
L 672.591036 -60.557594 
L 670.052068 -60.707441 
L 667.513101 -60.825257 
L 664.974133 -60.899579 
L 662.435166 -60.922827 
L 659.896198 -60.892578 
L 657.357231 -60.811982 
L 654.818263 -60.689221 
L 652.279295 -60.536148 
L 649.740328 -60.366403 
L 647.20136 -60.193446 
L 644.662393 -60.028881 
L 642.123425 -59.881359 
L 639.584458 -59.756177 
L 637.04549 -59.655511 
L 634.506522 -59.57913 
L 631.967555 -59.525357 
L 629.428587 -59.49209 
L 626.88962 -59.477702 
L 624.350652 -59.481758 
L 621.811685 -59.505467 
L 619.272717 -59.551883 
L 616.733749 -59.62583 
L 614.194782 -59.733548 
L 611.655814 -59.88208 
L 609.116847 -60.078432 
L 606.577879 -60.328596 
L 604.038912 -60.63658 
L 601.499944 -61.003612 
L 598.960976 -61.427691 
L 596.422009 -61.903611 
L 593.883041 -62.423484 
L 591.344074 -62.977698 
L 588.805106 -63.556131 
L 586.266139 -64.149418 
L 583.727171 -64.750049 
L 581.188204 -65.353137 
L 578.649236 -65.956821 
L 576.110268 -66.562283 
L 573.571301 -67.173486 
L 571.032333 -67.796708 
L 568.493366 -68.439952 
L 565.954398 -69.112297 
L 563.415431 -69.823207 
L 560.876463 -70.581864 
L 558.337495 -71.396552 
L 555.798528 -72.27421 
L 553.25956 -73.220228 
L 550.720593 -74.238576 
L 548.181625 -75.332315 
L 545.642658 -76.504441 
L 543.10369 -77.758953 
L 540.564722 -79.101933 
L 538.025755 -80.542379 
L 535.486787 -82.092537 
L 532.94782 -83.767564 
L 530.408852 -85.584465 
L 527.869885 -87.560462 
L 525.330917 -89.711112 
L 522.791949 -92.048603 
L 520.252982 -94.580655 
L 517.714014 -97.310336 
L 515.175047 -100.23688 
L 512.636079 -103.357314 
L 510.097112 -106.668495 
L 507.558144 -110.169034 
L 505.019177 -113.860622 
L 502.480209 -117.748475 
L 499.941241 -121.84089 
L 497.402274 -126.148227 
L 494.863306 -130.681795 
L 492.324339 -135.453191 
L 489.785371 -140.474403 
L 487.246404 -145.758706 
L 484.707436 -151.321945 
L 482.168468 -157.183571 
L 479.629501 -163.366762 
L 477.090533 -169.897185 
L 474.551566 -176.800454 
L 472.012598 -184.098778 
L 469.473631 -191.807649 
L 466.934663 -199.933444 
L 464.395695 -208.472528 
L 461.856728 -217.411908 
L 459.31776 -226.73102 
L 456.778793 -236.403817 
L 454.239825 -246.400337 
L 451.700858 -256.687196 
L 449.16189 -267.226923 
L 446.622922 -277.976606 
L 444.083955 -288.886676 
L 441.544987 -299.900757 
L 439.00602 -310.957269 
L 436.467052 -321.992963 
L 433.928085 -332.947875 
L 431.389117 -343.770511 
L 428.85015 -354.421637 
L 426.311182 -364.875014 
L 423.772214 -375.113902 
L 421.233247 -385.123159 
L 418.694279 -394.878094 
L 416.155312 -404.332432 
L 413.616344 -413.408567 
L 411.077377 -421.993129 
L 408.538409 -429.939903 
L 405.999441 -437.080345 
L 403.460474 -443.240032 
L 400.921506 -448.257848 
L 398.382539 -452.004209 
L 395.843571 -454.39509 
L 393.304604 -455.4 
L 390.765636 -455.043557 
L 388.226668 -453.401555 
L 385.687701 -450.592854 
L 383.148733 -446.768273 
L 380.609766 -442.097151 
L 378.070798 -436.75197 
L 375.531831 -430.891646 
L 372.992863 -424.644857 
L 370.453895 -418.095687 
L 367.914928 -411.274396 
L 365.37596 -404.155917 
L 362.836993 -396.667413 
L 360.298025 -388.70437 
L 357.759058 -380.152632 
L 355.22009 -370.912219 
L 352.681123 -360.918204 
L 350.142155 -350.154587 
L 347.603187 -338.658771 
L 345.06422 -326.516492 
L 342.525252 -313.849253 
L 339.986285 -300.797844 
L 337.447317 -287.506059 
L 334.90835 -274.108086 
L 332.369382 -260.721625 
L 329.830414 -247.446893 
L 327.291447 -234.370019 
L 324.752479 -221.568345 
L 322.213512 -209.115041 
L 319.674544 -197.081186 
L 317.135577 -185.534736 
L 314.596609 -174.537062 
L 312.057641 -164.138619 
L 309.518674 -154.375492 
L 306.979706 -145.268087 
L 304.440739 -136.82233 
L 301.901771 -129.032783 
L 299.362804 -121.886447 
L 296.823836 -115.365896 
L 294.284868 -109.450793 
L 291.745901 -104.117563 
L 289.206933 -99.337754 
L 286.667966 -95.076151 
L 284.128998 -91.289777 
L 281.590031 -87.928642 
L 279.051063 -84.938429 
L 276.512096 -82.264705 
L 273.973128 -79.857692 
L 271.43416 -77.67646 
L 268.895193 -75.691526 
L 266.356225 -73.885296 
L 263.817258 -72.250279 
L 261.27829 -70.785562 
L 258.739323 -69.492337 
L 256.200355 -68.369459 
L 253.661387 -67.40994 
L 251.12242 -66.599039 
L 248.583452 -65.914285 
L 246.044485 -65.327377 
L 243.505517 -64.807516 
L 240.96655 -64.325441 
L 238.427582 -63.857296 
L 235.888614 -63.3875 
L 233.349647 -62.91003 
L 230.810679 -62.427926 
L 228.271712 -61.951225 
L 225.732744 -61.493892 
L 223.193777 -61.070504 
L 220.654809 -60.693366 
L 218.115841 -60.370584 
L 215.576874 -60.105293 
L 213.037906 -59.895923 
L 210.498939 -59.737231 
L 207.959971 -59.621678 
L 205.421004 -59.540819 
L 202.882036 -59.486424 
L 200.343069 -59.451233 
L 197.804101 -59.429333 
z
" style="stroke: #dd8452"/>
    </defs>
    <g clip-path="url(#p713e164cd3)">
     <use xlink:href="#mf92507b8a6" x="0" y="540" style="fill: #dd8452; fill-opacity: 0.25; stroke: #dd8452"/>
    </g>
   </g>
   <g id="FillBetweenPolyCollection_2">
    <defs>
     <path id="m7064399940" d="M 173.045455 -59.481091 
L 173.045455 -59.4 
L 176.869118 -59.4 
L 180.692782 -59.4 
L 184.516446 -59.4 
L 188.34011 -59.4 
L 192.163773 -59.4 
L 195.987437 -59.4 
L 199.811101 -59.4 
L 203.634765 -59.4 
L 207.458429 -59.4 
L 211.282092 -59.4 
L 215.105756 -59.4 
L 218.92942 -59.4 
L 222.753084 -59.4 
L 226.576747 -59.4 
L 230.400411 -59.4 
L 234.224075 -59.4 
L 238.047739 -59.4 
L 241.871402 -59.4 
L 245.695066 -59.4 
L 249.51873 -59.4 
L 253.342394 -59.4 
L 257.166058 -59.4 
L 260.989721 -59.4 
L 264.813385 -59.4 
L 268.637049 -59.4 
L 272.460713 -59.4 
L 276.284376 -59.4 
L 280.10804 -59.4 
L 283.931704 -59.4 
L 287.755368 -59.4 
L 291.579032 -59.4 
L 295.402695 -59.4 
L 299.226359 -59.4 
L 303.050023 -59.4 
L 306.873687 -59.4 
L 310.69735 -59.4 
L 314.521014 -59.4 
L 318.344678 -59.4 
L 322.168342 -59.4 
L 325.992005 -59.4 
L 329.815669 -59.4 
L 333.639333 -59.4 
L 337.462997 -59.4 
L 341.286661 -59.4 
L 345.110324 -59.4 
L 348.933988 -59.4 
L 352.757652 -59.4 
L 356.581316 -59.4 
L 360.404979 -59.4 
L 364.228643 -59.4 
L 368.052307 -59.4 
L 371.875971 -59.4 
L 375.699635 -59.4 
L 379.523298 -59.4 
L 383.346962 -59.4 
L 387.170626 -59.4 
L 390.99429 -59.4 
L 394.817953 -59.4 
L 398.641617 -59.4 
L 402.465281 -59.4 
L 406.288945 -59.4 
L 410.112608 -59.4 
L 413.936272 -59.4 
L 417.759936 -59.4 
L 421.5836 -59.4 
L 425.407264 -59.4 
L 429.230927 -59.4 
L 433.054591 -59.4 
L 436.878255 -59.4 
L 440.701919 -59.4 
L 444.525582 -59.4 
L 448.349246 -59.4 
L 452.17291 -59.4 
L 455.996574 -59.4 
L 459.820238 -59.4 
L 463.643901 -59.4 
L 467.467565 -59.4 
L 471.291229 -59.4 
L 475.114893 -59.4 
L 478.938556 -59.4 
L 482.76222 -59.4 
L 486.585884 -59.4 
L 490.409548 -59.4 
L 494.233212 -59.4 
L 498.056875 -59.4 
L 501.880539 -59.4 
L 505.704203 -59.4 
L 509.527867 -59.4 
L 513.35153 -59.4 
L 517.175194 -59.4 
L 520.998858 -59.4 
L 524.822522 -59.4 
L 528.646185 -59.4 
L 532.469849 -59.4 
L 536.293513 -59.4 
L 540.117177 -59.4 
L 543.940841 -59.4 
L 547.764504 -59.4 
L 551.588168 -59.4 
L 555.411832 -59.4 
L 559.235496 -59.4 
L 563.059159 -59.4 
L 566.882823 -59.4 
L 570.706487 -59.4 
L 574.530151 -59.4 
L 578.353815 -59.4 
L 582.177478 -59.4 
L 586.001142 -59.4 
L 589.824806 -59.4 
L 593.64847 -59.4 
L 597.472133 -59.4 
L 601.295797 -59.4 
L 605.119461 -59.4 
L 608.943125 -59.4 
L 612.766788 -59.4 
L 616.590452 -59.4 
L 620.414116 -59.4 
L 624.23778 -59.4 
L 628.061444 -59.4 
L 631.885107 -59.4 
L 635.708771 -59.4 
L 639.532435 -59.4 
L 643.356099 -59.4 
L 647.179762 -59.4 
L 651.003426 -59.4 
L 654.82709 -59.4 
L 658.650754 -59.4 
L 662.474418 -59.4 
L 666.298081 -59.4 
L 670.121745 -59.4 
L 673.945409 -59.4 
L 677.769073 -59.4 
L 681.592736 -59.4 
L 685.4164 -59.4 
L 689.240064 -59.4 
L 693.063728 -59.4 
L 696.887392 -59.4 
L 700.711055 -59.4 
L 704.534719 -59.4 
L 708.358383 -59.4 
L 712.182047 -59.4 
L 716.00571 -59.4 
L 719.829374 -59.4 
L 723.653038 -59.4 
L 727.476702 -59.4 
L 731.300365 -59.4 
L 735.124029 -59.4 
L 738.947693 -59.4 
L 742.771357 -59.4 
L 746.595021 -59.4 
L 750.418684 -59.4 
L 754.242348 -59.4 
L 758.066012 -59.4 
L 761.889676 -59.4 
L 765.713339 -59.4 
L 769.537003 -59.4 
L 773.360667 -59.4 
L 777.184331 -59.4 
L 781.007995 -59.4 
L 784.831658 -59.4 
L 788.655322 -59.4 
L 792.478986 -59.4 
L 796.30265 -59.4 
L 800.126313 -59.4 
L 803.949977 -59.4 
L 807.773641 -59.4 
L 811.597305 -59.4 
L 815.420968 -59.4 
L 819.244632 -59.4 
L 823.068296 -59.4 
L 826.89196 -59.4 
L 830.715624 -59.4 
L 834.539287 -59.4 
L 838.362951 -59.4 
L 842.186615 -59.4 
L 846.010279 -59.4 
L 849.833942 -59.4 
L 853.657606 -59.4 
L 857.48127 -59.4 
L 861.304934 -59.4 
L 865.128598 -59.4 
L 868.952261 -59.4 
L 872.775925 -59.4 
L 876.599589 -59.4 
L 880.423253 -59.4 
L 884.246916 -59.4 
L 888.07058 -59.4 
L 891.894244 -59.4 
L 895.717908 -59.4 
L 899.541571 -59.4 
L 903.365235 -59.4 
L 907.188899 -59.4 
L 911.012563 -59.4 
L 914.836227 -59.4 
L 918.65989 -59.4 
L 922.483554 -59.4 
L 926.307218 -59.4 
L 930.130882 -59.4 
L 933.954545 -59.4 
L 933.954545 -59.425874 
L 933.954545 -59.425874 
L 930.130882 -59.446199 
L 926.307218 -59.479715 
L 922.483554 -59.532982 
L 918.65989 -59.614611 
L 914.836227 -59.735282 
L 911.012563 -59.907468 
L 907.188899 -60.144802 
L 903.365235 -60.461104 
L 899.541571 -60.869183 
L 895.717908 -61.379614 
L 891.894244 -61.999751 
L 888.07058 -62.733241 
L 884.246916 -63.580206 
L 880.423253 -64.538155 
L 876.599589 -65.603491 
L 872.775925 -66.773376 
L 868.952261 -68.047603 
L 865.128598 -69.430164 
L 861.304934 -70.930282 
L 857.48127 -72.562814 
L 853.657606 -74.348069 
L 849.833942 -76.311219 
L 846.010279 -78.481506 
L 842.186615 -80.891445 
L 838.362951 -83.57615 
L 834.539287 -86.57282 
L 830.715624 -89.920319 
L 826.89196 -93.658697 
L 823.068296 -97.828505 
L 819.244632 -102.469751 
L 815.420968 -107.620459 
L 811.597305 -113.314911 
L 807.773641 -119.581763 
L 803.949977 -126.442339 
L 800.126313 -133.909361 
L 796.30265 -141.986292 
L 792.478986 -150.667281 
L 788.655322 -159.937512 
L 784.831658 -169.773627 
L 781.007995 -180.143897 
L 777.184331 -191.007962 
L 773.360667 -202.316161 
L 769.537003 -214.008682 
L 765.713339 -226.014873 
L 761.889676 -238.253012 
L 758.066012 -250.630702 
L 754.242348 -263.045874 
L 750.418684 -275.388303 
L 746.595021 -287.541506 
L 742.771357 -299.385007 
L 738.947693 -310.796988 
L 735.124029 -321.657392 
L 731.300365 -331.851377 
L 727.476702 -341.272853 
L 723.653038 -349.827646 
L 719.829374 -357.435787 
L 716.00571 -364.032504 
L 712.182047 -369.567795 
L 708.358383 -374.004734 
L 704.534719 -377.316965 
L 700.711055 -379.486024 
L 696.887392 -380.499104 
L 693.063728 -380.347818 
L 689.240064 -379.028292 
L 685.4164 -376.54267 
L 681.592736 -372.901842 
L 677.769073 -368.128933 
L 673.945409 -362.262838 
L 670.121745 -355.360966 
L 666.298081 -347.50039 
L 662.474418 -338.776801 
L 658.650754 -329.301088 
L 654.82709 -319.193881 
L 651.003426 -308.578845 
L 647.179762 -297.575877 
L 643.356099 -286.295386 
L 639.532435 -274.834596 
L 635.708771 -263.276407 
L 631.885107 -251.690721 
L 628.061444 -240.137652 
L 624.23778 -228.671675 
L 620.414116 -217.345636 
L 616.590452 -206.213677 
L 612.766788 -195.332495 
L 608.943125 -184.760783 
L 605.119461 -174.557146 
L 601.295797 -164.777142 
L 597.472133 -155.470186 
L 593.64847 -146.677024 
L 589.824806 -138.428196 
L 586.001142 -130.743603 
L 582.177478 -123.632962 
L 578.353815 -117.096792 
L 574.530151 -111.127521 
L 570.706487 -105.710429 
L 566.882823 -100.824371 
L 563.059159 -96.442361 
L 559.235496 -92.532257 
L 555.411832 -89.057742 
L 551.588168 -85.979718 
L 547.764504 -83.258036 
L 543.940841 -80.853386 
L 540.117177 -78.729028 
L 536.293513 -76.852077 
L 532.469849 -75.194135 
L 528.646185 -73.731173 
L 524.822522 -72.442759 
L 520.998858 -71.310852 
L 517.175194 -70.318489 
L 513.35153 -69.448693 
L 509.527867 -68.683906 
L 505.704203 -68.006063 
L 501.880539 -67.397293 
L 498.056875 -66.841047 
L 494.233212 -66.323375 
L 490.409548 -65.834077 
L 486.585884 -65.367501 
L 482.76222 -64.922884 
L 478.938556 -64.504175 
L 475.114893 -64.119278 
L 471.291229 -63.778677 
L 467.467565 -63.493418 
L 463.643901 -63.272536 
L 459.820238 -63.120268 
L 455.996574 -63.033596 
L 452.17291 -63.000845 
L 448.349246 -63.001945 
L 444.525582 -63.010658 
L 440.701919 -62.998563 
L 436.878255 -62.940036 
L 433.054591 -62.817104 
L 429.230927 -62.623032 
L 425.407264 -62.363769 
L 421.5836 -62.056965 
L 417.759936 -61.728868 
L 413.936272 -61.409849 
L 410.112608 -61.129565 
L 406.288945 -60.912606 
L 402.465281 -60.775275 
L 398.641617 -60.723751 
L 394.817953 -60.753669 
L 390.99429 -60.850974 
L 387.170626 -60.993859 
L 383.346962 -61.155581 
L 379.523298 -61.307887 
L 375.699635 -61.424674 
L 371.875971 -61.485388 
L 368.052307 -61.477612 
L 364.228643 -61.39837 
L 360.404979 -61.253884 
L 356.581316 -61.057867 
L 352.757652 -60.828743 
L 348.933988 -60.586412 
L 345.110324 -60.349246 
L 341.286661 -60.131857 
L 337.462997 -59.943945 
L 333.639333 -59.79023 
L 329.815669 -59.67127 
L 325.992005 -59.584811 
L 322.168342 -59.527334 
L 318.344678 -59.495513 
L 314.521014 -59.487422 
L 310.69735 -59.50341 
L 306.873687 -59.546632 
L 303.050023 -59.623203 
L 299.226359 -59.741978 
L 295.402695 -59.913913 
L 291.579032 -60.151007 
L 287.755368 -60.464892 
L 283.931704 -60.865203 
L 280.10804 -61.357928 
L 276.284376 -61.94395 
L 272.460713 -62.617937 
L 268.637049 -63.36761 
L 264.813385 -64.173333 
L 260.989721 -65.007973 
L 257.166058 -65.837047 
L 253.342394 -66.619426 
L 249.51873 -67.308993 
L 245.695066 -67.857716 
L 241.871402 -68.220273 
L 238.047739 -68.359912 
L 234.224075 -68.254562 
L 230.400411 -67.901806 
L 226.576747 -67.321276 
L 222.753084 -66.5535 
L 218.92942 -65.655087 
L 215.105756 -64.691133 
L 211.282092 -63.72644 
L 207.458429 -62.817424 
L 203.634765 -62.006277 
L 199.811101 -61.31825 
L 195.987437 -60.762063 
L 192.163773 -60.332763 
L 188.34011 -60.015924 
L 184.516446 -59.792087 
L 180.692782 -59.640589 
L 176.869118 -59.542283 
L 173.045455 -59.481091 
z
" style="stroke: #4c72b0"/>
    </defs>
    <g clip-path="url(#p713e164cd3)">
     <use xlink:href="#m7064399940" x="0" y="540" style="fill: #4c72b0; fill-opacity: 0.25; stroke: #4c72b0"/>
    </g>
   </g>
   <g id="line2d_38">
    <path d="M 409.191859 480.6 
L 409.191859 64.8 
" clip-path="url(#p713e164cd3)" style="fill: none; stroke-dasharray: 2.96,1.28; stroke-dashoffset: 0; stroke: #d3d3d3; stroke-width: 0.8"/>
   </g>
   <g id="line2d_39">
    <path d="M 591.979961 480.6 
L 591.979961 64.8 
" clip-path="url(#p713e164cd3)" style="fill: none; stroke-dasharray: 2.96,1.28; stroke-dashoffset: 0; stroke: #d3d3d3; stroke-width: 0.8"/>
   </g>
   <g id="line2d_40">
    <path d="M 521.5007 480.6 
L 521.5007 64.8 
" clip-path="url(#p713e164cd3)" style="fill: none; stroke-dasharray: 2.96,1.28; stroke-dashoffset: 0; stroke: #d3d3d3; stroke-width: 0.8"/>
   </g>
   <g id="line2d_41">
    <path d="M 135 480.6 
L 972 480.6 
" clip-path="url(#p713e164cd3)" style="fill: none; stroke: #808080; stroke-width: 0.5; stroke-linecap: round"/>
   </g>
   <g id="text_12">
    <!-- International Poverty Line: $2.15 -->
    <g style="fill: #808080" transform="translate(415.445609 184.13675) rotate(-90) scale(0.08 -0.08)">
     <defs>
      <path id="ArialMT-6c" d="M 409 0 
L 409 4581 
L 972 4581 
L 972 0 
L 409 0 
z
" transform="scale(0.015625)"/>
      <path id="ArialMT-50" d="M 494 0 
L 494 4581 
L 2222 4581 
Q 2678 4581 2919 4538 
Q 3256 4481 3484 4323 
Q 3713 4166 3852 3881 
Q 3991 3597 3991 3256 
Q 3991 2672 3619 2267 
Q 3247 1863 2275 1863 
L 1100 1863 
L 1100 0 
L 494 0 
z
M 1100 2403 
L 2284 2403 
Q 2872 2403 3119 2622 
Q 3366 2841 3366 3238 
Q 3366 3525 3220 3729 
Q 3075 3934 2838 4000 
Q 2684 4041 2272 4041 
L 1100 4041 
L 1100 2403 
z
" transform="scale(0.015625)"/>
      <path id="ArialMT-76" d="M 1344 0 
L 81 3319 
L 675 3319 
L 1388 1331 
Q 1503 1009 1600 663 
Q 1675 925 1809 1294 
L 2547 3319 
L 3125 3319 
L 1869 0 
L 1344 0 
z
" transform="scale(0.015625)"/>
      <path id="ArialMT-4c" d="M 469 0 
L 469 4581 
L 1075 4581 
L 1075 541 
L 3331 541 
L 3331 0 
L 469 0 
z
" transform="scale(0.015625)"/>
      <path id="ArialMT-3a" d="M 578 2678 
L 578 3319 
L 1219 3319 
L 1219 2678 
L 578 2678 
z
M 578 0 
L 578 641 
L 1219 641 
L 1219 0 
L 578 0 
z
" transform="scale(0.015625)"/>
      <path id="ArialMT-24" d="M 1594 -659 
L 1594 -97 
Q 1172 -44 908 92 
Q 644 228 451 531 
Q 259 834 228 1272 
L 794 1378 
Q 859 925 1025 713 
Q 1263 413 1594 378 
L 1594 2169 
Q 1247 2234 884 2438 
Q 616 2588 470 2853 
Q 325 3119 325 3456 
Q 325 4056 750 4428 
Q 1034 4678 1594 4734 
L 1594 5003 
L 1925 5003 
L 1925 4734 
Q 2416 4688 2703 4447 
Q 3072 4141 3147 3606 
L 2566 3519 
Q 2516 3850 2358 4026 
Q 2200 4203 1925 4259 
L 1925 2638 
Q 2350 2531 2488 2472 
Q 2750 2356 2915 2190 
Q 3081 2025 3170 1797 
Q 3259 1569 3259 1303 
Q 3259 719 2887 328 
Q 2516 -63 1925 -91 
L 1925 -659 
L 1594 -659 
z
M 1594 4266 
Q 1266 4216 1077 4003 
Q 888 3791 888 3500 
Q 888 3213 1048 3019 
Q 1209 2825 1594 2709 
L 1594 4266 
z
M 1925 378 
Q 2253 419 2467 662 
Q 2681 906 2681 1266 
Q 2681 1572 2529 1758 
Q 2378 1944 1925 2091 
L 1925 378 
z
" transform="scale(0.015625)"/>
      <path id="ArialMT-2e" d="M 581 0 
L 581 641 
L 1222 641 
L 1222 0 
L 581 0 
z
" transform="scale(0.015625)"/>
     </defs>
     <use xlink:href="#ArialMT-49"/>
     <use xlink:href="#ArialMT-6e" transform="translate(27.783203 0)"/>
     <use xlink:href="#ArialMT-74" transform="translate(83.398438 0)"/>
     <use xlink:href="#ArialMT-65" transform="translate(111.181641 0)"/>
     <use xlink:href="#ArialMT-72" transform="translate(166.796875 0)"/>
     <use xlink:href="#ArialMT-6e" transform="translate(200.097656 0)"/>
     <use xlink:href="#ArialMT-61" transform="translate(255.712891 0)"/>
     <use xlink:href="#ArialMT-74" transform="translate(311.328125 0)"/>
     <use xlink:href="#ArialMT-69" transform="translate(339.111328 0)"/>
     <use xlink:href="#ArialMT-6f" transform="translate(361.328125 0)"/>
     <use xlink:href="#ArialMT-6e" transform="translate(416.943359 0)"/>
     <use xlink:href="#ArialMT-61" transform="translate(472.558594 0)"/>
     <use xlink:href="#ArialMT-6c" transform="translate(528.173828 0)"/>
     <use xlink:href="#ArialMT-20" transform="translate(550.390625 0)"/>
     <use xlink:href="#ArialMT-50" transform="translate(578.173828 0)"/>
     <use xlink:href="#ArialMT-6f" transform="translate(644.873047 0)"/>
     <use xlink:href="#ArialMT-76" transform="translate(700.488281 0)"/>
     <use xlink:href="#ArialMT-65" transform="translate(750.488281 0)"/>
     <use xlink:href="#ArialMT-72" transform="translate(806.103516 0)"/>
     <use xlink:href="#ArialMT-74" transform="translate(839.404297 0)"/>
     <use xlink:href="#ArialMT-79" transform="translate(867.1875 0)"/>
     <use xlink:href="#ArialMT-20" transform="translate(917.1875 0)"/>
     <use xlink:href="#ArialMT-4c" transform="translate(944.970703 0)"/>
     <use xlink:href="#ArialMT-69" transform="translate(1000.585938 0)"/>
     <use xlink:href="#ArialMT-6e" transform="translate(1022.802734 0)"/>
     <use xlink:href="#ArialMT-65" transform="translate(1078.417969 0)"/>
     <use xlink:href="#ArialMT-3a" transform="translate(1134.033203 0)"/>
     <use xlink:href="#ArialMT-20" transform="translate(1161.816406 0)"/>
     <use xlink:href="#ArialMT-24" transform="translate(1189.599609 0)"/>
     <use xlink:href="#ArialMT-32" transform="translate(1245.214844 0)"/>
     <use xlink:href="#ArialMT-2e" transform="translate(1300.830078 0)"/>
     <use xlink:href="#ArialMT-31" transform="translate(1328.613281 0)"/>
     <use xlink:href="#ArialMT-35" transform="translate(1384.228516 0)"/>
    </g>
   </g>
   <g id="text_13">
    <!-- World mean: $19.18 -->
    <g style="fill: #808080" transform="translate(597.706211 140.85175) rotate(-90) scale(0.08 -0.08)">
     <defs>
      <path id="ArialMT-57" d="M 1294 0 
L 78 4581 
L 700 4581 
L 1397 1578 
Q 1509 1106 1591 641 
Q 1766 1375 1797 1488 
L 2669 4581 
L 3400 4581 
L 4056 2263 
Q 4303 1400 4413 641 
Q 4500 1075 4641 1638 
L 5359 4581 
L 5969 4581 
L 4713 0 
L 4128 0 
L 3163 3491 
Q 3041 3928 3019 4028 
Q 2947 3713 2884 3491 
L 1913 0 
L 1294 0 
z
" transform="scale(0.015625)"/>
      <path id="ArialMT-39" d="M 350 1059 
L 891 1109 
Q 959 728 1153 556 
Q 1347 384 1650 384 
Q 1909 384 2104 503 
Q 2300 622 2425 820 
Q 2550 1019 2634 1356 
Q 2719 1694 2719 2044 
Q 2719 2081 2716 2156 
Q 2547 1888 2255 1720 
Q 1963 1553 1622 1553 
Q 1053 1553 659 1965 
Q 266 2378 266 3053 
Q 266 3750 677 4175 
Q 1088 4600 1706 4600 
Q 2153 4600 2523 4359 
Q 2894 4119 3086 3673 
Q 3278 3228 3278 2384 
Q 3278 1506 3087 986 
Q 2897 466 2520 194 
Q 2144 -78 1638 -78 
Q 1100 -78 759 220 
Q 419 519 350 1059 
z
M 2653 3081 
Q 2653 3566 2395 3850 
Q 2138 4134 1775 4134 
Q 1400 4134 1122 3828 
Q 844 3522 844 3034 
Q 844 2597 1108 2323 
Q 1372 2050 1759 2050 
Q 2150 2050 2401 2323 
Q 2653 2597 2653 3081 
z
" transform="scale(0.015625)"/>
      <path id="ArialMT-38" d="M 1131 2484 
Q 781 2613 612 2850 
Q 444 3088 444 3419 
Q 444 3919 803 4259 
Q 1163 4600 1759 4600 
Q 2359 4600 2725 4251 
Q 3091 3903 3091 3403 
Q 3091 3084 2923 2848 
Q 2756 2613 2416 2484 
Q 2838 2347 3058 2040 
Q 3278 1734 3278 1309 
Q 3278 722 2862 322 
Q 2447 -78 1769 -78 
Q 1091 -78 675 323 
Q 259 725 259 1325 
Q 259 1772 486 2073 
Q 713 2375 1131 2484 
z
M 1019 3438 
Q 1019 3113 1228 2906 
Q 1438 2700 1772 2700 
Q 2097 2700 2305 2904 
Q 2513 3109 2513 3406 
Q 2513 3716 2298 3927 
Q 2084 4138 1766 4138 
Q 1444 4138 1231 3931 
Q 1019 3725 1019 3438 
z
M 838 1322 
Q 838 1081 952 856 
Q 1066 631 1291 507 
Q 1516 384 1775 384 
Q 2178 384 2440 643 
Q 2703 903 2703 1303 
Q 2703 1709 2433 1975 
Q 2163 2241 1756 2241 
Q 1359 2241 1098 1978 
Q 838 1716 838 1322 
z
" transform="scale(0.015625)"/>
     </defs>
     <use xlink:href="#ArialMT-57"/>
     <use xlink:href="#ArialMT-6f" transform="translate(92.634766 0)"/>
     <use xlink:href="#ArialMT-72" transform="translate(148.25 0)"/>
     <use xlink:href="#ArialMT-6c" transform="translate(181.550781 0)"/>
     <use xlink:href="#ArialMT-64" transform="translate(203.767578 0)"/>
     <use xlink:href="#ArialMT-20" transform="translate(259.382812 0)"/>
     <use xlink:href="#ArialMT-6d" transform="translate(287.166016 0)"/>
     <use xlink:href="#ArialMT-65" transform="translate(370.466797 0)"/>
     <use xlink:href="#ArialMT-61" transform="translate(426.082031 0)"/>
     <use xlink:href="#ArialMT-6e" transform="translate(481.697266 0)"/>
     <use xlink:href="#ArialMT-3a" transform="translate(537.3125 0)"/>
     <use xlink:href="#ArialMT-20" transform="translate(565.095703 0)"/>
     <use xlink:href="#ArialMT-24" transform="translate(592.878906 0)"/>
     <use xlink:href="#ArialMT-31" transform="translate(648.494141 0)"/>
     <use xlink:href="#ArialMT-39" transform="translate(704.109375 0)"/>
     <use xlink:href="#ArialMT-2e" transform="translate(759.724609 0)"/>
     <use xlink:href="#ArialMT-31" transform="translate(787.507812 0)"/>
     <use xlink:href="#ArialMT-38" transform="translate(843.123047 0)"/>
    </g>
   </g>
   <g id="text_14">
    <!-- World median: $8.25 -->
    <g style="fill: #808080" transform="translate(527.22695 142.62925) rotate(-90) scale(0.08 -0.08)">
     <use xlink:href="#ArialMT-57"/>
     <use xlink:href="#ArialMT-6f" transform="translate(92.634766 0)"/>
     <use xlink:href="#ArialMT-72" transform="translate(148.25 0)"/>
     <use xlink:href="#ArialMT-6c" transform="translate(181.550781 0)"/>
     <use xlink:href="#ArialMT-64" transform="translate(203.767578 0)"/>
     <use xlink:href="#ArialMT-20" transform="translate(259.382812 0)"/>
     <use xlink:href="#ArialMT-6d" transform="translate(287.166016 0)"/>
     <use xlink:href="#ArialMT-65" transform="translate(370.466797 0)"/>
     <use xlink:href="#ArialMT-64" transform="translate(426.082031 0)"/>
     <use xlink:href="#ArialMT-69" transform="translate(481.697266 0)"/>
     <use xlink:href="#ArialMT-61" transform="translate(503.914062 0)"/>
     <use xlink:href="#ArialMT-6e" transform="translate(559.529297 0)"/>
     <use xlink:href="#ArialMT-3a" transform="translate(615.144531 0)"/>
     <use xlink:href="#ArialMT-20" transform="translate(642.927734 0)"/>
     <use xlink:href="#ArialMT-24" transform="translate(670.710938 0)"/>
     <use xlink:href="#ArialMT-38" transform="translate(726.326172 0)"/>
     <use xlink:href="#ArialMT-2e" transform="translate(781.941406 0)"/>
     <use xlink:href="#ArialMT-32" transform="translate(809.724609 0)"/>
     <use xlink:href="#ArialMT-35" transform="translate(865.339844 0)"/>
    </g>
   </g>
   <g id="legend_1">
    <g id="patch_3">
     <path d="M 811.6 198.635 
L 903.63125 198.635 
Q 905.63125 198.635 905.63125 196.635 
L 905.63125 154.96 
Q 905.63125 152.96 903.63125 152.96 
L 811.6 152.96 
Q 809.6 152.96 809.6 154.96 
L 809.6 196.635 
Q 809.6 198.635 811.6 198.635 
z
" style="fill: #ffffff; opacity: 0.8; stroke: #cccccc; stroke-linejoin: miter"/>
    </g>
    <g id="text_15">
     <!-- Country -->
     <g style="fill: #262626" transform="translate(840.109375 164.239688) scale(0.1 -0.1)">
      <defs>
       <path id="ArialMT-43" d="M 3763 1606 
L 4369 1453 
Q 4178 706 3683 314 
Q 3188 -78 2472 -78 
Q 1731 -78 1267 223 
Q 803 525 561 1097 
Q 319 1669 319 2325 
Q 319 3041 592 3573 
Q 866 4106 1370 4382 
Q 1875 4659 2481 4659 
Q 3169 4659 3637 4309 
Q 4106 3959 4291 3325 
L 3694 3184 
Q 3534 3684 3231 3912 
Q 2928 4141 2469 4141 
Q 1941 4141 1586 3887 
Q 1231 3634 1087 3207 
Q 944 2781 944 2328 
Q 944 1744 1114 1308 
Q 1284 872 1643 656 
Q 2003 441 2422 441 
Q 2931 441 3284 734 
Q 3638 1028 3763 1606 
z
" transform="scale(0.015625)"/>
      </defs>
      <use xlink:href="#ArialMT-43"/>
      <use xlink:href="#ArialMT-6f" transform="translate(72.216797 0)"/>
      <use xlink:href="#ArialMT-75" transform="translate(127.832031 0)"/>
      <use xlink:href="#ArialMT-6e" transform="translate(183.447266 0)"/>
      <use xlink:href="#ArialMT-74" transform="translate(239.0625 0)"/>
      <use xlink:href="#ArialMT-72" transform="translate(266.845703 0)"/>
      <use xlink:href="#ArialMT-79" transform="translate(300.146484 0)"/>
     </g>
    </g>
    <g id="patch_4">
     <path d="M 813.6 178.502187 
L 833.6 178.502187 
L 833.6 171.502187 
L 813.6 171.502187 
z
" style="fill: #4c72b0; fill-opacity: 0.25; stroke: #4c72b0; stroke-linejoin: miter"/>
    </g>
    <g id="text_16">
     <!-- United States -->
     <g style="fill: #262626" transform="translate(841.6 178.502187) scale(0.1 -0.1)">
      <defs>
       <path id="ArialMT-55" d="M 3500 4581 
L 4106 4581 
L 4106 1934 
Q 4106 1244 3950 837 
Q 3794 431 3386 176 
Q 2978 -78 2316 -78 
Q 1672 -78 1262 144 
Q 853 366 678 786 
Q 503 1206 503 1934 
L 503 4581 
L 1109 4581 
L 1109 1938 
Q 1109 1341 1220 1058 
Q 1331 775 1601 622 
Q 1872 469 2263 469 
Q 2931 469 3215 772 
Q 3500 1075 3500 1938 
L 3500 4581 
z
" transform="scale(0.015625)"/>
       <path id="ArialMT-53" d="M 288 1472 
L 859 1522 
Q 900 1178 1048 958 
Q 1197 738 1509 602 
Q 1822 466 2213 466 
Q 2559 466 2825 569 
Q 3091 672 3220 851 
Q 3350 1031 3350 1244 
Q 3350 1459 3225 1620 
Q 3100 1781 2813 1891 
Q 2628 1963 1997 2114 
Q 1366 2266 1113 2400 
Q 784 2572 623 2826 
Q 463 3081 463 3397 
Q 463 3744 659 4045 
Q 856 4347 1234 4503 
Q 1613 4659 2075 4659 
Q 2584 4659 2973 4495 
Q 3363 4331 3572 4012 
Q 3781 3694 3797 3291 
L 3216 3247 
Q 3169 3681 2898 3903 
Q 2628 4125 2100 4125 
Q 1550 4125 1298 3923 
Q 1047 3722 1047 3438 
Q 1047 3191 1225 3031 
Q 1400 2872 2139 2705 
Q 2878 2538 3153 2413 
Q 3553 2228 3743 1945 
Q 3934 1663 3934 1294 
Q 3934 928 3725 604 
Q 3516 281 3123 101 
Q 2731 -78 2241 -78 
Q 1619 -78 1198 103 
Q 778 284 539 648 
Q 300 1013 288 1472 
z
" transform="scale(0.015625)"/>
      </defs>
      <use xlink:href="#ArialMT-55"/>
      <use xlink:href="#ArialMT-6e" transform="translate(72.216797 0)"/>
      <use xlink:href="#ArialMT-69" transform="translate(127.832031 0)"/>
      <use xlink:href="#ArialMT-74" transform="translate(150.048828 0)"/>
      <use xlink:href="#ArialMT-65" transform="translate(177.832031 0)"/>
      <use xlink:href="#ArialMT-64" transform="translate(233.447266 0)"/>
      <use xlink:href="#ArialMT-20" transform="translate(289.0625 0)"/>
      <use xlink:href="#ArialMT-53" transform="translate(316.845703 0)"/>
      <use xlink:href="#ArialMT-74" transform="translate(383.544922 0)"/>
      <use xlink:href="#ArialMT-61" transform="translate(411.328125 0)"/>
      <use xlink:href="#ArialMT-74" transform="translate(466.943359 0)"/>
      <use xlink:href="#ArialMT-65" transform="translate(494.726562 0)"/>
      <use xlink:href="#ArialMT-73" transform="translate(550.341797 0)"/>
     </g>
    </g>
    <g id="patch_5">
     <path d="M 813.6 192.6475 
L 833.6 192.6475 
L 833.6 185.6475 
L 813.6 185.6475 
z
" style="fill: #dd8452; fill-opacity: 0.25; stroke: #dd8452; stroke-linejoin: miter"/>
    </g>
    <g id="text_17">
     <!-- Burundi -->
     <g style="fill: #262626" transform="translate(841.6 192.6475) scale(0.1 -0.1)">
      <defs>
       <path id="ArialMT-42" d="M 469 0 
L 469 4581 
L 2188 4581 
Q 2713 4581 3030 4442 
Q 3347 4303 3526 4014 
Q 3706 3725 3706 3409 
Q 3706 3116 3547 2856 
Q 3388 2597 3066 2438 
Q 3481 2316 3704 2022 
Q 3928 1728 3928 1328 
Q 3928 1006 3792 729 
Q 3656 453 3456 303 
Q 3256 153 2954 76 
Q 2653 0 2216 0 
L 469 0 
z
M 1075 2656 
L 2066 2656 
Q 2469 2656 2644 2709 
Q 2875 2778 2992 2937 
Q 3109 3097 3109 3338 
Q 3109 3566 3000 3739 
Q 2891 3913 2687 3977 
Q 2484 4041 1991 4041 
L 1075 4041 
L 1075 2656 
z
M 1075 541 
L 2216 541 
Q 2509 541 2628 563 
Q 2838 600 2978 687 
Q 3119 775 3209 942 
Q 3300 1109 3300 1328 
Q 3300 1584 3169 1773 
Q 3038 1963 2805 2039 
Q 2572 2116 2134 2116 
L 1075 2116 
L 1075 541 
z
" transform="scale(0.015625)"/>
      </defs>
      <use xlink:href="#ArialMT-42"/>
      <use xlink:href="#ArialMT-75" transform="translate(66.699219 0)"/>
      <use xlink:href="#ArialMT-72" transform="translate(122.314453 0)"/>
      <use xlink:href="#ArialMT-75" transform="translate(155.615234 0)"/>
      <use xlink:href="#ArialMT-6e" transform="translate(211.230469 0)"/>
      <use xlink:href="#ArialMT-64" transform="translate(266.845703 0)"/>
      <use xlink:href="#ArialMT-69" transform="translate(322.460938 0)"/>
     </g>
    </g>
   </g>
  </g>
 </g>
 <defs>
  <clipPath id="p713e164cd3">
   <rect x="135" y="64.8" width="837" height="415.8"/>
  </clipPath>
 </defs>
</svg>
