<?xml version="1.0" encoding="utf-8" standalone="no"?>
<!DOCTYPE svg PUBLIC "-//W3C//DTD SVG 1.1//EN"
  "http://www.w3.org/Graphics/SVG/1.1/DTD/svg11.dtd">
<svg xmlns:xlink="http://www.w3.org/1999/xlink" width="851.4pt" height="265.689687pt" viewBox="0 0 851.4 265.689687" xmlns="http://www.w3.org/2000/svg" version="1.1">
 <metadata>
  <rdf:RDF xmlns:dc="http://purl.org/dc/elements/1.1/" xmlns:cc="http://creativecommons.org/ns#" xmlns:rdf="http://www.w3.org/1999/02/22-rdf-syntax-ns#">
   <cc:Work>
    <dc:type rdf:resource="http://purl.org/dc/dcmitype/StillImage"/>
    <dc:date>2025-07-25T10:50:04.093184</dc:date>
    <dc:format>image/svg+xml</dc:format>
    <dc:creator>
     <cc:Agent>
      <dc:title>Matplotlib v3.10.1, https://matplotlib.org/</dc:title>
     </cc:Agent>
    </dc:creator>
   </cc:Work>
  </rdf:RDF>
 </metadata>
 <defs>
  <style type="text/css">*{stroke-linejoin: round; stroke-linecap: butt}</style>
 </defs>
 <g id="figure_1">
  <g id="patch_1">
   <path d="M 0 265.689687 
L 851.4 265.689687 
L 851.4 0 
L 0 0 
z
" style="fill: #ffffff"/>
  </g>
  <g id="axes_1">
   <g id="patch_2">
    <path d="M 7.2 228.96 
L 844.2 228.96 
L 844.2 7.2 
L 7.2 7.2 
z
" style="fill: #ffffff"/>
   </g>
   <g id="matplotlib.axis_1">
    <g id="xtick_1">
     <g id="line2d_1">
      <defs>
       <path id="m0c93fe2e28" d="M 0 0 
L 0 3.5 
" style="stroke: #262626; stroke-width: 0.8"/>
      </defs>
      <g>
       <use xlink:href="#m0c93fe2e28" x="208.096995" y="228.96" style="fill: #262626; stroke: #262626; stroke-width: 0.8"/>
      </g>
     </g>
     <g id="text_1">
      <text style="font-size: 10px; font-family: 'Arial', 'DejaVu Sans', 'Liberation Sans', 'Bitstream Vera Sans', sans-serif; text-anchor: middle; fill: #262626" x="208.096995" y="243.117812" transform="rotate(-0 208.096995 243.117812)">1</text>
     </g>
    </g>
    <g id="xtick_2">
     <g id="line2d_2">
      <g>
       <use xlink:href="#m0c93fe2e28" x="265.993165" y="228.96" style="fill: #262626; stroke: #262626; stroke-width: 0.8"/>
      </g>
     </g>
     <g id="text_2">
      <text style="font-size: 10px; font-family: 'Arial', 'DejaVu Sans', 'Liberation Sans', 'Bitstream Vera Sans', sans-serif; text-anchor: middle; fill: #262626" x="265.993165" y="243.117812" transform="rotate(-0 265.993165 243.117812)">2</text>
     </g>
    </g>
    <g id="xtick_3">
     <g id="line2d_3">
      <g>
       <use xlink:href="#m0c93fe2e28" x="342.52774" y="228.96" style="fill: #262626; stroke: #262626; stroke-width: 0.8"/>
      </g>
     </g>
     <g id="text_3">
      <text style="font-size: 10px; font-family: 'Arial', 'DejaVu Sans', 'Liberation Sans', 'Bitstream Vera Sans', sans-serif; text-anchor: middle; fill: #262626" x="342.52774" y="243.117812" transform="rotate(-0 342.52774 243.117812)">5</text>
     </g>
    </g>
    <g id="xtick_4">
     <g id="line2d_4">
      <g>
       <use xlink:href="#m0c93fe2e28" x="400.42391" y="228.96" style="fill: #262626; stroke: #262626; stroke-width: 0.8"/>
      </g>
     </g>
     <g id="text_4">
      <text style="font-size: 10px; font-family: 'Arial', 'DejaVu Sans', 'Liberation Sans', 'Bitstream Vera Sans', sans-serif; text-anchor: middle; fill: #262626" x="400.42391" y="243.117812" transform="rotate(-0 400.42391 243.117812)">10</text>
     </g>
    </g>
    <g id="xtick_5">
     <g id="line2d_5">
      <g>
       <use xlink:href="#m0c93fe2e28" x="458.320081" y="228.96" style="fill: #262626; stroke: #262626; stroke-width: 0.8"/>
      </g>
     </g>
     <g id="text_5">
      <text style="font-size: 10px; font-family: 'Arial', 'DejaVu Sans', 'Liberation Sans', 'Bitstream Vera Sans', sans-serif; text-anchor: middle; fill: #262626" x="458.320081" y="243.117812" transform="rotate(-0 458.320081 243.117812)">20</text>
     </g>
    </g>
    <g id="xtick_6">
     <g id="line2d_6">
      <g>
       <use xlink:href="#m0c93fe2e28" x="534.854655" y="228.96" style="fill: #262626; stroke: #262626; stroke-width: 0.8"/>
      </g>
     </g>
     <g id="text_6">
      <text style="font-size: 10px; font-family: 'Arial', 'DejaVu Sans', 'Liberation Sans', 'Bitstream Vera Sans', sans-serif; text-anchor: middle; fill: #262626" x="534.854655" y="243.117812" transform="rotate(-0 534.854655 243.117812)">50</text>
     </g>
    </g>
    <g id="xtick_7">
     <g id="line2d_7">
      <g>
       <use xlink:href="#m0c93fe2e28" x="592.750826" y="228.96" style="fill: #262626; stroke: #262626; stroke-width: 0.8"/>
      </g>
     </g>
     <g id="text_7">
      <text style="font-size: 10px; font-family: 'Arial', 'DejaVu Sans', 'Liberation Sans', 'Bitstream Vera Sans', sans-serif; text-anchor: middle; fill: #262626" x="592.750826" y="243.117812" transform="rotate(-0 592.750826 243.117812)">100</text>
     </g>
    </g>
    <g id="xtick_8">
     <g id="line2d_8">
      <g>
       <use xlink:href="#m0c93fe2e28" x="650.646996" y="228.96" style="fill: #262626; stroke: #262626; stroke-width: 0.8"/>
      </g>
     </g>
     <g id="text_8">
      <text style="font-size: 10px; font-family: 'Arial', 'DejaVu Sans', 'Liberation Sans', 'Bitstream Vera Sans', sans-serif; text-anchor: middle; fill: #262626" x="650.646996" y="243.117812" transform="rotate(-0 650.646996 243.117812)">200</text>
     </g>
    </g>
    <g id="xtick_9">
     <g id="line2d_9">
      <g>
       <use xlink:href="#m0c93fe2e28" x="727.181571" y="228.96" style="fill: #262626; stroke: #262626; stroke-width: 0.8"/>
      </g>
     </g>
     <g id="text_9">
      <text style="font-size: 10px; font-family: 'Arial', 'DejaVu Sans', 'Liberation Sans', 'Bitstream Vera Sans', sans-serif; text-anchor: middle; fill: #262626" x="727.181571" y="243.117812" transform="rotate(-0 727.181571 243.117812)">500</text>
     </g>
    </g>
    <g id="xtick_10">
     <g id="line2d_10">
      <g>
       <use xlink:href="#m0c93fe2e28" x="785.077741" y="228.96" style="fill: #262626; stroke: #262626; stroke-width: 0.8"/>
      </g>
     </g>
     <g id="text_10">
      <text style="font-size: 10px; font-family: 'Arial', 'DejaVu Sans', 'Liberation Sans', 'Bitstream Vera Sans', sans-serif; text-anchor: middle; fill: #262626" x="785.077741" y="243.117812" transform="rotate(-0 785.077741 243.117812)">1000</text>
     </g>
    </g>
    <g id="xtick_11">
     <g id="line2d_11">
      <defs>
       <path id="mf4de2c0a13" d="M 0 0 
L 0 2 
" style="stroke: #262626; stroke-width: 0.6"/>
      </defs>
      <g>
       <use xlink:href="#mf4de2c0a13" x="73.66625" y="228.96" style="fill: #262626; stroke: #262626; stroke-width: 0.6"/>
      </g>
     </g>
    </g>
    <g id="xtick_12">
     <g id="line2d_12">
      <g>
       <use xlink:href="#mf4de2c0a13" x="107.533339" y="228.96" style="fill: #262626; stroke: #262626; stroke-width: 0.6"/>
      </g>
     </g>
    </g>
    <g id="xtick_13">
     <g id="line2d_13">
      <g>
       <use xlink:href="#mf4de2c0a13" x="131.562421" y="228.96" style="fill: #262626; stroke: #262626; stroke-width: 0.6"/>
      </g>
     </g>
    </g>
    <g id="xtick_14">
     <g id="line2d_14">
      <g>
       <use xlink:href="#mf4de2c0a13" x="150.200824" y="228.96" style="fill: #262626; stroke: #262626; stroke-width: 0.6"/>
      </g>
     </g>
    </g>
    <g id="xtick_15">
     <g id="line2d_15">
      <g>
       <use xlink:href="#mf4de2c0a13" x="165.429509" y="228.96" style="fill: #262626; stroke: #262626; stroke-width: 0.6"/>
      </g>
     </g>
    </g>
    <g id="xtick_16">
     <g id="line2d_16">
      <g>
       <use xlink:href="#mf4de2c0a13" x="178.305179" y="228.96" style="fill: #262626; stroke: #262626; stroke-width: 0.6"/>
      </g>
     </g>
    </g>
    <g id="xtick_17">
     <g id="line2d_17">
      <g>
       <use xlink:href="#mf4de2c0a13" x="189.458591" y="228.96" style="fill: #262626; stroke: #262626; stroke-width: 0.6"/>
      </g>
     </g>
    </g>
    <g id="xtick_18">
     <g id="line2d_18">
      <g>
       <use xlink:href="#mf4de2c0a13" x="199.296598" y="228.96" style="fill: #262626; stroke: #262626; stroke-width: 0.6"/>
      </g>
     </g>
    </g>
    <g id="xtick_19">
     <g id="line2d_19">
      <g>
       <use xlink:href="#mf4de2c0a13" x="299.860254" y="228.96" style="fill: #262626; stroke: #262626; stroke-width: 0.6"/>
      </g>
     </g>
    </g>
    <g id="xtick_20">
     <g id="line2d_20">
      <g>
       <use xlink:href="#mf4de2c0a13" x="323.889336" y="228.96" style="fill: #262626; stroke: #262626; stroke-width: 0.6"/>
      </g>
     </g>
    </g>
    <g id="xtick_21">
     <g id="line2d_21">
      <g>
       <use xlink:href="#mf4de2c0a13" x="357.756425" y="228.96" style="fill: #262626; stroke: #262626; stroke-width: 0.6"/>
      </g>
     </g>
    </g>
    <g id="xtick_22">
     <g id="line2d_22">
      <g>
       <use xlink:href="#mf4de2c0a13" x="370.632094" y="228.96" style="fill: #262626; stroke: #262626; stroke-width: 0.6"/>
      </g>
     </g>
    </g>
    <g id="xtick_23">
     <g id="line2d_23">
      <g>
       <use xlink:href="#mf4de2c0a13" x="381.785506" y="228.96" style="fill: #262626; stroke: #262626; stroke-width: 0.6"/>
      </g>
     </g>
    </g>
    <g id="xtick_24">
     <g id="line2d_24">
      <g>
       <use xlink:href="#mf4de2c0a13" x="391.623513" y="228.96" style="fill: #262626; stroke: #262626; stroke-width: 0.6"/>
      </g>
     </g>
    </g>
    <g id="xtick_25">
     <g id="line2d_25">
      <g>
       <use xlink:href="#mf4de2c0a13" x="492.187169" y="228.96" style="fill: #262626; stroke: #262626; stroke-width: 0.6"/>
      </g>
     </g>
    </g>
    <g id="xtick_26">
     <g id="line2d_26">
      <g>
       <use xlink:href="#mf4de2c0a13" x="516.216251" y="228.96" style="fill: #262626; stroke: #262626; stroke-width: 0.6"/>
      </g>
     </g>
    </g>
    <g id="xtick_27">
     <g id="line2d_27">
      <g>
       <use xlink:href="#mf4de2c0a13" x="550.08334" y="228.96" style="fill: #262626; stroke: #262626; stroke-width: 0.6"/>
      </g>
     </g>
    </g>
    <g id="xtick_28">
     <g id="line2d_28">
      <g>
       <use xlink:href="#mf4de2c0a13" x="562.95901" y="228.96" style="fill: #262626; stroke: #262626; stroke-width: 0.6"/>
      </g>
     </g>
    </g>
    <g id="xtick_29">
     <g id="line2d_29">
      <g>
       <use xlink:href="#mf4de2c0a13" x="574.112422" y="228.96" style="fill: #262626; stroke: #262626; stroke-width: 0.6"/>
      </g>
     </g>
    </g>
    <g id="xtick_30">
     <g id="line2d_30">
      <g>
       <use xlink:href="#mf4de2c0a13" x="583.950429" y="228.96" style="fill: #262626; stroke: #262626; stroke-width: 0.6"/>
      </g>
     </g>
    </g>
    <g id="xtick_31">
     <g id="line2d_31">
      <g>
       <use xlink:href="#mf4de2c0a13" x="684.514085" y="228.96" style="fill: #262626; stroke: #262626; stroke-width: 0.6"/>
      </g>
     </g>
    </g>
    <g id="xtick_32">
     <g id="line2d_32">
      <g>
       <use xlink:href="#mf4de2c0a13" x="708.543167" y="228.96" style="fill: #262626; stroke: #262626; stroke-width: 0.6"/>
      </g>
     </g>
    </g>
    <g id="xtick_33">
     <g id="line2d_33">
      <g>
       <use xlink:href="#mf4de2c0a13" x="742.410255" y="228.96" style="fill: #262626; stroke: #262626; stroke-width: 0.6"/>
      </g>
     </g>
    </g>
    <g id="xtick_34">
     <g id="line2d_34">
      <g>
       <use xlink:href="#mf4de2c0a13" x="755.285925" y="228.96" style="fill: #262626; stroke: #262626; stroke-width: 0.6"/>
      </g>
     </g>
    </g>
    <g id="xtick_35">
     <g id="line2d_35">
      <g>
       <use xlink:href="#mf4de2c0a13" x="766.439337" y="228.96" style="fill: #262626; stroke: #262626; stroke-width: 0.6"/>
      </g>
     </g>
    </g>
    <g id="xtick_36">
     <g id="line2d_36">
      <g>
       <use xlink:href="#mf4de2c0a13" x="776.277344" y="228.96" style="fill: #262626; stroke: #262626; stroke-width: 0.6"/>
      </g>
     </g>
    </g>
    <g id="xtick_37">
     <g id="line2d_37">
      <g>
       <use xlink:href="#mf4de2c0a13" x="842.973912" y="228.96" style="fill: #262626; stroke: #262626; stroke-width: 0.6"/>
      </g>
     </g>
    </g>
    <g id="text_11">
     <text style="font-size: 10px; font-family: 'Arial', 'DejaVu Sans', 'Liberation Sans', 'Bitstream Vera Sans', sans-serif; text-anchor: middle; fill: #262626" x="425.7" y="256.385" transform="rotate(-0 425.7 256.385)">Income or consumption (day)</text>
    </g>
   </g>
   <g id="matplotlib.axis_2"/>
   <g id="FillBetweenPolyCollection_1">
    <defs>
     <path id="ma00ff20a6f" d="M 69.137664 -36.744534 
L 69.137664 -36.729688 
L 71.676867 -36.729688 
L 74.216071 -36.729688 
L 76.755274 -36.729688 
L 79.294478 -36.729688 
L 81.833681 -36.729688 
L 84.372885 -36.729688 
L 86.912088 -36.729688 
L 89.451292 -36.729688 
L 91.990495 -36.729688 
L 94.529699 -36.729688 
L 97.068903 -36.729688 
L 99.608106 -36.729688 
L 102.14731 -36.729688 
L 104.686513 -36.729688 
L 107.225717 -36.729688 
L 109.76492 -36.729688 
L 112.304124 -36.729688 
L 114.843327 -36.729688 
L 117.382531 -36.729688 
L 119.921734 -36.729688 
L 122.460938 -36.729688 
L 125.000141 -36.729688 
L 127.539345 -36.729688 
L 130.078548 -36.729688 
L 132.617752 -36.729688 
L 135.156955 -36.729688 
L 137.696159 -36.729688 
L 140.235362 -36.729688 
L 142.774566 -36.729688 
L 145.313769 -36.729688 
L 147.852973 -36.729688 
L 150.392177 -36.729688 
L 152.93138 -36.729688 
L 155.470584 -36.729688 
L 158.009787 -36.729688 
L 160.548991 -36.729688 
L 163.088194 -36.729688 
L 165.627398 -36.729688 
L 168.166601 -36.729688 
L 170.705805 -36.729688 
L 173.245008 -36.729688 
L 175.784212 -36.729688 
L 178.323415 -36.729688 
L 180.862619 -36.729688 
L 183.401822 -36.729688 
L 185.941026 -36.729688 
L 188.480229 -36.729688 
L 191.019433 -36.729688 
L 193.558636 -36.729688 
L 196.09784 -36.729688 
L 198.637044 -36.729688 
L 201.176247 -36.729688 
L 203.715451 -36.729688 
L 206.254654 -36.729688 
L 208.793858 -36.729688 
L 211.333061 -36.729688 
L 213.872265 -36.729688 
L 216.411468 -36.729688 
L 218.950672 -36.729688 
L 221.489875 -36.729688 
L 224.029079 -36.729688 
L 226.568282 -36.729688 
L 229.107486 -36.729688 
L 231.646689 -36.729688 
L 234.185893 -36.729688 
L 236.725096 -36.729688 
L 239.2643 -36.729688 
L 241.803503 -36.729688 
L 244.342707 -36.729688 
L 246.881911 -36.729688 
L 249.421114 -36.729688 
L 251.960318 -36.729688 
L 254.499521 -36.729688 
L 257.038725 -36.729688 
L 259.577928 -36.729688 
L 262.117132 -36.729688 
L 264.656335 -36.729688 
L 267.195539 -36.729688 
L 269.734742 -36.729688 
L 272.273946 -36.729688 
L 274.813149 -36.729688 
L 277.352353 -36.729688 
L 279.891556 -36.729688 
L 282.43076 -36.729688 
L 284.969963 -36.729688 
L 287.509167 -36.729688 
L 290.04837 -36.729688 
L 292.587574 -36.729688 
L 295.126778 -36.729688 
L 297.665981 -36.729688 
L 300.205185 -36.729688 
L 302.744388 -36.729688 
L 305.283592 -36.729688 
L 307.822795 -36.729688 
L 310.361999 -36.729688 
L 312.901202 -36.729688 
L 315.440406 -36.729688 
L 317.979609 -36.729688 
L 320.518813 -36.729688 
L 323.058016 -36.729688 
L 325.59722 -36.729688 
L 328.136423 -36.729688 
L 330.675627 -36.729688 
L 333.21483 -36.729688 
L 335.754034 -36.729688 
L 338.293237 -36.729688 
L 340.832441 -36.729688 
L 343.371644 -36.729688 
L 345.910848 -36.729688 
L 348.450052 -36.729688 
L 350.989255 -36.729688 
L 353.528459 -36.729688 
L 356.067662 -36.729688 
L 358.606866 -36.729688 
L 361.146069 -36.729688 
L 363.685273 -36.729688 
L 366.224476 -36.729688 
L 368.76368 -36.729688 
L 371.302883 -36.729688 
L 373.842087 -36.729688 
L 376.38129 -36.729688 
L 378.920494 -36.729688 
L 381.459697 -36.729688 
L 383.998901 -36.729688 
L 386.538104 -36.729688 
L 389.077308 -36.729688 
L 391.616511 -36.729688 
L 394.155715 -36.729688 
L 396.694919 -36.729688 
L 399.234122 -36.729688 
L 401.773326 -36.729688 
L 404.312529 -36.729688 
L 406.851733 -36.729688 
L 409.390936 -36.729688 
L 411.93014 -36.729688 
L 414.469343 -36.729688 
L 417.008547 -36.729688 
L 419.54775 -36.729688 
L 422.086954 -36.729688 
L 424.626157 -36.729688 
L 427.165361 -36.729688 
L 429.704564 -36.729688 
L 432.243768 -36.729688 
L 434.782971 -36.729688 
L 437.322175 -36.729688 
L 439.861378 -36.729688 
L 442.400582 -36.729688 
L 444.939786 -36.729688 
L 447.478989 -36.729688 
L 450.018193 -36.729688 
L 452.557396 -36.729688 
L 455.0966 -36.729688 
L 457.635803 -36.729688 
L 460.175007 -36.729688 
L 462.71421 -36.729688 
L 465.253414 -36.729688 
L 467.792617 -36.729688 
L 470.331821 -36.729688 
L 472.871024 -36.729688 
L 475.410228 -36.729688 
L 477.949431 -36.729688 
L 480.488635 -36.729688 
L 483.027838 -36.729688 
L 485.567042 -36.729688 
L 488.106245 -36.729688 
L 490.645449 -36.729688 
L 493.184652 -36.729688 
L 495.723856 -36.729688 
L 498.26306 -36.729688 
L 500.802263 -36.729688 
L 503.341467 -36.729688 
L 505.88067 -36.729688 
L 508.419874 -36.729688 
L 510.959077 -36.729688 
L 513.498281 -36.729688 
L 516.037484 -36.729688 
L 518.576688 -36.729688 
L 521.115891 -36.729688 
L 523.655095 -36.729688 
L 526.194298 -36.729688 
L 528.733502 -36.729688 
L 531.272705 -36.729688 
L 533.811909 -36.729688 
L 536.351112 -36.729688 
L 538.890316 -36.729688 
L 541.429519 -36.729688 
L 543.968723 -36.729688 
L 546.507927 -36.729688 
L 549.04713 -36.729688 
L 551.586334 -36.729688 
L 554.125537 -36.729688 
L 556.664741 -36.729688 
L 559.203944 -36.729688 
L 561.743148 -36.729688 
L 564.282351 -36.729688 
L 566.821555 -36.729688 
L 569.360758 -36.729688 
L 571.899962 -36.729688 
L 574.439165 -36.729688 
L 574.439165 -36.73871 
L 574.439165 -36.73871 
L 571.899962 -36.74528 
L 569.360758 -36.755696 
L 566.821555 -36.771559 
L 564.282351 -36.794748 
L 561.743148 -36.827261 
L 559.203944 -36.870927 
L 556.664741 -36.927015 
L 554.125537 -36.995776 
L 551.586334 -37.076004 
L 549.04713 -37.164728 
L 546.507927 -37.257153 
L 543.968723 -37.346946 
L 541.429519 -37.426873 
L 538.890316 -37.48973 
L 536.351112 -37.529405 
L 533.811909 -37.541851 
L 531.272705 -37.525771 
L 528.733502 -37.482841 
L 526.194298 -37.417417 
L 523.655095 -37.335815 
L 521.115891 -37.245308 
L 518.576688 -37.153073 
L 516.037484 -37.065299 
L 513.498281 -36.986604 
L 510.959077 -36.919817 
L 508.419874 -36.866103 
L 505.88067 -36.825344 
L 503.341467 -36.796648 
L 500.802263 -36.778899 
L 498.26306 -36.771233 
L 495.723856 -36.773419 
L 493.184652 -36.786106 
L 490.645449 -36.810926 
L 488.106245 -36.850452 
L 485.567042 -36.908014 
L 483.027838 -36.987366 
L 480.488635 -37.092242 
L 477.949431 -37.22583 
L 475.410228 -37.39026 
L 472.871024 -37.586179 
L 470.331821 -37.812509 
L 467.792617 -38.066467 
L 465.253414 -38.34384 
L 462.71421 -38.639498 
L 460.175007 -38.948045 
L 457.635803 -39.26449 
L 455.0966 -39.584836 
L 452.557396 -39.906491 
L 450.018193 -40.228481 
L 447.478989 -40.551462 
L 444.939786 -40.877573 
L 442.400582 -41.210188 
L 439.861378 -41.553597 
L 437.322175 -41.912651 
L 434.782971 -42.292389 
L 432.243768 -42.697682 
L 429.704564 -43.132909 
L 427.165361 -43.601721 
L 424.626157 -44.106946 
L 422.086954 -44.650663 
L 419.54775 -45.234482 
L 417.008547 -45.859991 
L 414.469343 -46.529325 
L 411.93014 -47.245724 
L 409.390936 -48.013979 
L 406.851733 -48.840598 
L 404.312529 -49.733635 
L 401.773326 -50.702134 
L 399.234122 -51.755274 
L 396.694919 -52.901385 
L 394.155715 -54.147041 
L 391.616511 -55.496476 
L 389.077308 -56.951471 
L 386.538104 -58.511765 
L 383.998901 -60.175899 
L 381.459697 -61.942277 
L 378.920494 -63.810175 
L 376.38129 -65.780442 
L 373.842087 -67.855744 
L 371.302883 -70.040351 
L 368.76368 -72.339614 
L 366.224476 -74.759407 
L 363.685273 -77.305799 
L 361.146069 -79.985136 
L 358.606866 -82.804523 
L 356.067662 -85.772512 
L 353.528459 -88.899636 
L 350.989255 -92.198451 
L 348.450052 -95.682853 
L 345.910848 -99.366692 
L 343.371644 -103.26196 
L 340.832441 -107.377003 
L 338.293237 -111.71522 
L 335.754034 -116.274561 
L 333.21483 -121.047862 
L 330.675627 -126.023789 
L 328.136423 -131.18796 
L 325.59722 -136.523822 
L 323.058016 -142.012969 
L 320.518813 -147.634877 
L 317.979609 -153.366266 
L 315.440406 -159.18054 
L 312.901202 -165.047752 
L 310.361999 -170.935471 
L 307.822795 -176.810631 
L 305.283592 -182.64208 
L 302.744388 -188.403239 
L 300.205185 -194.073993 
L 297.665981 -199.640977 
L 295.126778 -205.095626 
L 292.587574 -210.429938 
L 290.04837 -215.630546 
L 287.509167 -220.67238 
L 284.969963 -225.513573 
L 282.43076 -230.093223 
L 279.891556 -234.333053 
L 277.352353 -238.143071 
L 274.813149 -241.430331 
L 272.273946 -244.109087 
L 269.734742 -246.110382 
L 267.195539 -247.389411 
L 264.656335 -247.929688 
L 262.117132 -247.743904 
L 259.577928 -246.871927 
L 257.038725 -245.376652 
L 254.499521 -243.338255 
L 251.960318 -240.847153 
L 249.421114 -237.995802 
L 246.881911 -234.869663 
L 244.342707 -231.538069 
L 241.803503 -228.046294 
L 239.2643 -224.41043 
L 236.725096 -220.6165 
L 234.185893 -216.624594 
L 231.646689 -212.377707 
L 229.107486 -207.813826 
L 226.568282 -202.878957 
L 224.029079 -197.538481 
L 221.489875 -191.784608 
L 218.950672 -185.638656 
L 216.411468 -179.14811 
L 213.872265 -172.379618 
L 211.333061 -165.409909 
L 208.793858 -158.316864 
L 206.254654 -151.172635 
L 203.715451 -144.039909 
L 201.176247 -136.971391 
L 198.637044 -130.011717 
L 196.09784 -123.200455 
L 193.558636 -116.574783 
L 191.019433 -110.170864 
L 188.480229 -104.023535 
L 185.941026 -98.16466 
L 183.401822 -92.620921 
L 180.862619 -87.411969 
L 178.323415 -82.549606 
L 175.784212 -78.038228 
L 173.245008 -73.876251 
L 170.705805 -70.057931 
L 168.166601 -66.574876 
L 165.627398 -63.416775 
L 163.088194 -60.571225 
L 160.548991 -58.022918 
L 158.009787 -55.752727 
L 155.470584 -53.737276 
L 152.93138 -51.949421 
L 150.392177 -50.359752 
L 147.852973 -48.938879 
L 145.313769 -47.659994 
L 142.774566 -46.501103 
L 140.235362 -45.446399 
L 137.696159 -44.486463 
L 135.156955 -43.61727 
L 132.617752 -42.838265 
L 130.078548 -42.149943 
L 127.539345 -41.551481 
L 125.000141 -41.038895 
L 122.460938 -40.604085 
L 119.921734 -40.234932 
L 117.382531 -39.916385 
L 114.843327 -39.632281 
L 112.304124 -39.367501 
L 109.76492 -39.10996 
L 107.225717 -38.852046 
L 104.686513 -38.591176 
L 102.14731 -38.329429 
L 99.608106 -38.072379 
L 97.068903 -37.827443 
L 94.529699 -37.60215 
L 91.990495 -37.402676 
L 89.451292 -37.232906 
L 86.912088 -37.094093 
L 84.372885 -36.985063 
L 81.833681 -36.902789 
L 79.294478 -36.843127 
L 76.755274 -36.801537 
L 74.216071 -36.77366 
L 71.676867 -36.755685 
L 69.137664 -36.744534 
z
" style="stroke: #dd8452"/>
    </defs>
    <g>
     <use xlink:href="#ma00ff20a6f" x="0" y="265.689687" style="fill: #dd8452; fill-opacity: 0.25; stroke: #dd8452"/>
    </g>
   </g>
   <g id="FillBetweenPolyCollection_2">
    <defs>
     <path id="m620d503074" d="M 45.245455 -36.773278 
L 45.245455 -36.729688 
L 49.069118 -36.729688 
L 52.892782 -36.729688 
L 56.716446 -36.729688 
L 60.54011 -36.729688 
L 64.363773 -36.729688 
L 68.187437 -36.729688 
L 72.011101 -36.729688 
L 75.834765 -36.729688 
L 79.658429 -36.729688 
L 83.482092 -36.729688 
L 87.305756 -36.729688 
L 91.12942 -36.729688 
L 94.953084 -36.729688 
L 98.776747 -36.729688 
L 102.600411 -36.729688 
L 106.424075 -36.729688 
L 110.247739 -36.729688 
L 114.071402 -36.729688 
L 117.895066 -36.729688 
L 121.71873 -36.729688 
L 125.542394 -36.729688 
L 129.366058 -36.729688 
L 133.189721 -36.729688 
L 137.013385 -36.729688 
L 140.837049 -36.729688 
L 144.660713 -36.729688 
L 148.484376 -36.729688 
L 152.30804 -36.729688 
L 156.131704 -36.729688 
L 159.955368 -36.729688 
L 163.779032 -36.729688 
L 167.602695 -36.729688 
L 171.426359 -36.729688 
L 175.250023 -36.729688 
L 179.073687 -36.729688 
L 182.89735 -36.729688 
L 186.721014 -36.729688 
L 190.544678 -36.729688 
L 194.368342 -36.729688 
L 198.192005 -36.729688 
L 202.015669 -36.729688 
L 205.839333 -36.729688 
L 209.662997 -36.729688 
L 213.486661 -36.729688 
L 217.310324 -36.729688 
L 221.133988 -36.729688 
L 224.957652 -36.729688 
L 228.781316 -36.729688 
L 232.604979 -36.729688 
L 236.428643 -36.729688 
L 240.252307 -36.729688 
L 244.075971 -36.729688 
L 247.899635 -36.729688 
L 251.723298 -36.729688 
L 255.546962 -36.729688 
L 259.370626 -36.729688 
L 263.19429 -36.729688 
L 267.017953 -36.729688 
L 270.841617 -36.729688 
L 274.665281 -36.729688 
L 278.488945 -36.729688 
L 282.312608 -36.729688 
L 286.136272 -36.729688 
L 289.959936 -36.729688 
L 293.7836 -36.729688 
L 297.607264 -36.729688 
L 301.430927 -36.729688 
L 305.254591 -36.729688 
L 309.078255 -36.729688 
L 312.901919 -36.729688 
L 316.725582 -36.729688 
L 320.549246 -36.729688 
L 324.37291 -36.729688 
L 328.196574 -36.729688 
L 332.020238 -36.729688 
L 335.843901 -36.729688 
L 339.667565 -36.729688 
L 343.491229 -36.729688 
L 347.314893 -36.729688 
L 351.138556 -36.729688 
L 354.96222 -36.729688 
L 358.785884 -36.729688 
L 362.609548 -36.729688 
L 366.433212 -36.729688 
L 370.256875 -36.729688 
L 374.080539 -36.729688 
L 377.904203 -36.729688 
L 381.727867 -36.729688 
L 385.55153 -36.729688 
L 389.375194 -36.729688 
L 393.198858 -36.729688 
L 397.022522 -36.729688 
L 400.846185 -36.729688 
L 404.669849 -36.729688 
L 408.493513 -36.729688 
L 412.317177 -36.729688 
L 416.140841 -36.729688 
L 419.964504 -36.729688 
L 423.788168 -36.729688 
L 427.611832 -36.729688 
L 431.435496 -36.729688 
L 435.259159 -36.729688 
L 439.082823 -36.729688 
L 442.906487 -36.729688 
L 446.730151 -36.729688 
L 450.553815 -36.729688 
L 454.377478 -36.729688 
L 458.201142 -36.729688 
L 462.024806 -36.729688 
L 465.84847 -36.729688 
L 469.672133 -36.729688 
L 473.495797 -36.729688 
L 477.319461 -36.729688 
L 481.143125 -36.729688 
L 484.966788 -36.729688 
L 488.790452 -36.729688 
L 492.614116 -36.729688 
L 496.43778 -36.729688 
L 500.261444 -36.729688 
L 504.085107 -36.729688 
L 507.908771 -36.729688 
L 511.732435 -36.729688 
L 515.556099 -36.729688 
L 519.379762 -36.729688 
L 523.203426 -36.729688 
L 527.02709 -36.729688 
L 530.850754 -36.729688 
L 534.674418 -36.729688 
L 538.498081 -36.729688 
L 542.321745 -36.729688 
L 546.145409 -36.729688 
L 549.969073 -36.729688 
L 553.792736 -36.729688 
L 557.6164 -36.729688 
L 561.440064 -36.729688 
L 565.263728 -36.729688 
L 569.087392 -36.729688 
L 572.911055 -36.729688 
L 576.734719 -36.729688 
L 580.558383 -36.729688 
L 584.382047 -36.729688 
L 588.20571 -36.729688 
L 592.029374 -36.729688 
L 595.853038 -36.729688 
L 599.676702 -36.729688 
L 603.500365 -36.729688 
L 607.324029 -36.729688 
L 611.147693 -36.729688 
L 614.971357 -36.729688 
L 618.795021 -36.729688 
L 622.618684 -36.729688 
L 626.442348 -36.729688 
L 630.266012 -36.729688 
L 634.089676 -36.729688 
L 637.913339 -36.729688 
L 641.737003 -36.729688 
L 645.560667 -36.729688 
L 649.384331 -36.729688 
L 653.207995 -36.729688 
L 657.031658 -36.729688 
L 660.855322 -36.729688 
L 664.678986 -36.729688 
L 668.50265 -36.729688 
L 672.326313 -36.729688 
L 676.149977 -36.729688 
L 679.973641 -36.729688 
L 683.797305 -36.729688 
L 687.620968 -36.729688 
L 691.444632 -36.729688 
L 695.268296 -36.729688 
L 699.09196 -36.729688 
L 702.915624 -36.729688 
L 706.739287 -36.729688 
L 710.562951 -36.729688 
L 714.386615 -36.729688 
L 718.210279 -36.729688 
L 722.033942 -36.729688 
L 725.857606 -36.729688 
L 729.68127 -36.729688 
L 733.504934 -36.729688 
L 737.328598 -36.729688 
L 741.152261 -36.729688 
L 744.975925 -36.729688 
L 748.799589 -36.729688 
L 752.623253 -36.729688 
L 756.446916 -36.729688 
L 760.27058 -36.729688 
L 764.094244 -36.729688 
L 767.917908 -36.729688 
L 771.741571 -36.729688 
L 775.565235 -36.729688 
L 779.388899 -36.729688 
L 783.212563 -36.729688 
L 787.036227 -36.729688 
L 790.85989 -36.729688 
L 794.683554 -36.729688 
L 798.507218 -36.729688 
L 802.330882 -36.729688 
L 806.154545 -36.729688 
L 806.154545 -36.743139 
L 806.154545 -36.743139 
L 802.330882 -36.753752 
L 798.507218 -36.771228 
L 794.683554 -36.798916 
L 790.85989 -36.841141 
L 787.036227 -36.903151 
L 783.212563 -36.990916 
L 779.388899 -37.110743 
L 775.565235 -37.268778 
L 771.741571 -37.470465 
L 767.917908 -37.720114 
L 764.094244 -38.020717 
L 760.27058 -38.374099 
L 756.446916 -38.781451 
L 752.623253 -39.244127 
L 748.799589 -39.764553 
L 744.975925 -40.347011 
L 741.152261 -40.998116 
L 737.328598 -41.726861 
L 733.504934 -42.544252 
L 729.68127 -43.462662 
L 725.857606 -44.495098 
L 722.033942 -45.654591 
L 718.210279 -46.953848 
L 714.386615 -48.405216 
L 710.562951 -50.02088 
L 706.739287 -51.813156 
L 702.915624 -53.794712 
L 699.09196 -55.978577 
L 695.268296 -58.377924 
L 691.444632 -61.005675 
L 687.620968 -63.874095 
L 683.797305 -66.994517 
L 679.973641 -70.377304 
L 676.149977 -74.032008 
L 672.326313 -77.967577 
L 668.50265 -82.192347 
L 664.678986 -86.71359 
L 660.855322 -91.536451 
L 657.031658 -96.662288 
L 653.207995 -102.086631 
L 649.384331 -107.797063 
L 645.560667 -113.771436 
L 641.737003 -119.976736 
L 637.913339 -126.368796 
L 634.089676 -132.892863 
L 630.266012 -139.484902 
L 626.442348 -146.073387 
L 622.618684 -152.581398 
L 618.795021 -158.928931 
L 614.971357 -165.035456 
L 611.147693 -170.822883 
L 607.324029 -176.21901 
L 603.500365 -181.161357 
L 599.676702 -185.600959 
L 595.853038 -189.50539 
L 592.029374 -192.860174 
L 588.20571 -195.667867 
L 584.382047 -197.944572 
L 580.558383 -199.714267 
L 576.734719 -201.001997 
L 572.911055 -201.827339 
L 569.087392 -202.199637 
L 565.263728 -202.116072 
L 561.440064 -201.563013 
L 557.6164 -200.520308 
L 553.792736 -198.967518 
L 549.969073 -196.890738 
L 546.145409 -194.28854 
L 542.321745 -191.175876 
L 538.498081 -187.585151 
L 534.674418 -183.564335 
L 530.850754 -179.172455 
L 527.02709 -174.473371 
L 523.203426 -169.529009 
L 519.379762 -164.39336 
L 515.556099 -159.108383 
L 511.732435 -153.702581 
L 507.908771 -148.192456 
L 504.085107 -142.586455 
L 500.261444 -136.890478 
L 496.43778 -131.113742 
L 492.614116 -125.273717 
L 488.790452 -119.39915 
L 484.966788 -113.530613 
L 481.143125 -107.718569 
L 477.319461 -102.019461 
L 473.495797 -96.490694 
L 469.672133 -91.185523 
L 465.84847 -86.148771 
L 462.024806 -81.414058 
L 458.201142 -77.002786 
L 454.377478 -72.924797 
L 450.553815 -69.18022 
L 446.730151 -65.761941 
L 442.906487 -62.658055 
L 439.082823 -59.853886 
L 435.259159 -57.333324 
L 431.435496 -55.07952 
L 427.611832 -53.075115 
L 423.788168 -51.302233 
L 419.964504 -49.742476 
L 416.140841 -48.377012 
L 412.317177 -47.186797 
L 408.493513 -46.152853 
L 404.669849 -45.25654 
L 400.846185 -44.47977 
L 397.022522 -43.805163 
L 393.198858 -43.216224 
L 389.375194 -42.697591 
L 385.55153 -42.235435 
L 381.727867 -41.81799 
L 377.904203 -41.436116 
L 374.080539 -41.083755 
L 370.256875 -40.758082 
L 366.433212 -40.459199 
L 362.609548 -40.189292 
L 358.785884 -39.951308 
L 354.96222 -39.747353 
L 351.138556 -39.577128 
L 347.314893 -39.436817 
L 343.491229 -39.31877 
L 339.667565 -39.212196 
L 335.843901 -39.104831 
L 332.020238 -38.985258 
L 328.196574 -38.845351 
L 324.37291 -38.682209 
L 320.549246 -38.499083 
L 316.725582 -38.305012 
L 312.901919 -38.113247 
L 309.078255 -37.938796 
L 305.254591 -37.795645 
L 301.430927 -37.694191 
L 297.607264 -37.639384 
L 293.7836 -37.629828 
L 289.959936 -37.657969 
L 286.136272 -37.711276 
L 282.312608 -37.774201 
L 278.488945 -37.830584 
L 274.665281 -37.866105 
L 270.841617 -37.870354 
L 267.017953 -37.838182 
L 263.19429 -37.770077 
L 259.370626 -37.67159 
L 255.546962 -37.551976 
L 251.723298 -37.422423 
L 247.899635 -37.294293 
L 244.075971 -37.177739 
L 240.252307 -37.080933 
L 236.428643 -37.009914 
L 232.604979 -36.968915 
L 228.781316 -36.960896 
L 224.957652 -36.987965 
L 221.133988 -37.051461 
L 217.310324 -37.151573 
L 213.486661 -37.286552 
L 209.662997 -37.451757 
L 205.839333 -37.63887 
L 202.015669 -37.83566 
L 198.192005 -38.026599 
L 194.368342 -38.194397 
L 190.544678 -38.322292 
L 186.721014 -38.39667 
L 182.89735 -38.409414 
L 179.073687 -38.359456 
L 175.250023 -38.253129 
L 171.426359 -38.103304 
L 167.602695 -37.927557 
L 163.779032 -37.74589 
L 159.955368 -37.57857 
L 156.131704 -37.444499 
L 152.30804 -37.360288 
L 148.484376 -37.339876 
L 144.660713 -37.394328 
L 140.837049 -37.53136 
L 137.013385 -37.754303 
L 133.189721 -38.060478 
L 129.366058 -38.439352 
L 125.542394 -38.871142 
L 121.71873 -39.326648 
L 117.895066 -39.768952 
L 114.071402 -40.157166 
L 110.247739 -40.451838 
L 106.424075 -40.620993 
L 102.600411 -40.645488 
L 98.776747 -40.522342 
L 94.953084 -40.265195 
L 91.12942 -39.901743 
L 87.305756 -39.468787 
L 83.482092 -39.006105 
L 79.658429 -38.550531 
L 75.834765 -38.131434 
L 72.011101 -37.768275 
L 68.187437 -37.470302 
L 64.363773 -37.237985 
L 60.54011 -37.065441 
L 56.716446 -36.943139 
L 52.892782 -36.86029 
L 49.069118 -36.806598 
L 45.245455 -36.773278 
z
" style="stroke: #4c72b0"/>
    </defs>
    <g>
     <use xlink:href="#m620d503074" x="0" y="265.689687" style="fill: #4c72b0; fill-opacity: 0.25; stroke: #4c72b0"/>
    </g>
   </g>
   <g id="line2d_38">
    <path d="M 299.860254 228.96 
L 299.860254 7.2 
" style="fill: none; stroke-dasharray: 2.96,1.28; stroke-dashoffset: 0; stroke: #d3d3d3; stroke-width: 0.8"/>
   </g>
   <g id="line2d_39">
    <path d="M 465.088594 228.96 
L 465.088594 7.2 
" style="fill: none; stroke-dasharray: 2.96,1.28; stroke-dashoffset: 0; stroke: #d3d3d3; stroke-width: 0.8"/>
   </g>
   <g id="line2d_40">
    <path d="M 394.810201 228.96 
L 394.810201 7.2 
" style="fill: none; stroke-dasharray: 2.96,1.28; stroke-dashoffset: 0; stroke: #d3d3d3; stroke-width: 0.8"/>
   </g>
   <g id="line2d_41">
    <path d="M 7.2 228.96 
L 844.2 228.96 
" style="fill: none; stroke: #808080; stroke-width: 0.5; stroke-linecap: round"/>
   </g>
   <g id="text_12">
    <text style="font-size: 8px; font-family: 'Arial', 'DejaVu Sans', 'Liberation Sans', 'Bitstream Vera Sans', sans-serif; fill: #808080" transform="translate(306.114004 124.59635) rotate(-90)">International Poverty Line: $3.00</text>
   </g>
   <g id="text_13">
    <text style="font-size: 8px; font-family: 'Arial', 'DejaVu Sans', 'Liberation Sans', 'Bitstream Vera Sans', sans-serif; fill: #808080" transform="translate(470.814844 81.31135) rotate(-90)">World mean: $21.69</text>
   </g>
   <g id="text_14">
    <text style="font-size: 8px; font-family: 'Arial', 'DejaVu Sans', 'Liberation Sans', 'Bitstream Vera Sans', sans-serif; fill: #808080" transform="translate(400.536451 83.08885) rotate(-90)">World median: $9.35</text>
   </g>
   <g id="legend_1">
    <g id="patch_3">
     <path d="M 683.8 102.227 
L 775.83125 102.227 
Q 777.83125 102.227 777.83125 100.227 
L 777.83125 58.552 
Q 777.83125 56.552 775.83125 56.552 
L 683.8 56.552 
Q 681.8 56.552 681.8 58.552 
L 681.8 100.227 
Q 681.8 102.227 683.8 102.227 
z
" style="fill: #ffffff; opacity: 0.8; stroke: #cccccc; stroke-linejoin: miter"/>
    </g>
    <g id="text_15">
     <text style="font-size: 10px; font-family: 'Arial', 'DejaVu Sans', 'Liberation Sans', 'Bitstream Vera Sans', sans-serif; text-anchor: start; fill: #262626" x="712.309375" y="67.831687" transform="rotate(-0 712.309375 67.831687)">Country</text>
    </g>
    <g id="patch_4">
     <path d="M 685.8 82.094187 
L 705.8 82.094187 
L 705.8 75.094187 
L 685.8 75.094187 
z
" style="fill: #4c72b0; fill-opacity: 0.25; stroke: #4c72b0; stroke-linejoin: miter"/>
    </g>
    <g id="text_16">
     <text style="font-size: 10px; font-family: 'Arial', 'DejaVu Sans', 'Liberation Sans', 'Bitstream Vera Sans', sans-serif; text-anchor: start; fill: #262626" x="713.8" y="82.094187" transform="rotate(-0 713.8 82.094187)">United States</text>
    </g>
    <g id="patch_5">
     <path d="M 685.8 96.2395 
L 705.8 96.2395 
L 705.8 89.2395 
L 685.8 89.2395 
z
" style="fill: #dd8452; fill-opacity: 0.25; stroke: #dd8452; stroke-linejoin: miter"/>
    </g>
    <g id="text_17">
     <text style="font-size: 10px; font-family: 'Arial', 'DejaVu Sans', 'Liberation Sans', 'Bitstream Vera Sans', sans-serif; text-anchor: start; fill: #262626" x="713.8" y="96.2395" transform="rotate(-0 713.8 96.2395)">Burundi</text>
    </g>
   </g>
  </g>
 </g>
</svg>
