<?xml version="1.0" encoding="utf-8" standalone="no"?>
<!DOCTYPE svg PUBLIC "-//W3C//DTD SVG 1.1//EN"
  "http://www.w3.org/Graphics/SVG/1.1/DTD/svg11.dtd">
<svg xmlns:xlink="http://www.w3.org/1999/xlink" width="861.826323pt" height="265.689687pt" viewBox="0 0 861.826323 265.689687" xmlns="http://www.w3.org/2000/svg" version="1.1">
 <metadata>
  <rdf:RDF xmlns:dc="http://purl.org/dc/elements/1.1/" xmlns:cc="http://creativecommons.org/ns#" xmlns:rdf="http://www.w3.org/1999/02/22-rdf-syntax-ns#">
   <cc:Work>
    <dc:type rdf:resource="http://purl.org/dc/dcmitype/StillImage"/>
    <dc:date>2026-01-02T17:38:47.019237</dc:date>
    <dc:format>image/svg+xml</dc:format>
    <dc:creator>
     <cc:Agent>
      <dc:title>Matplotlib v3.10.1, https://matplotlib.org/</dc:title>
     </cc:Agent>
    </dc:creator>
   </cc:Work>
  </rdf:RDF>
 </metadata>
 <defs>
  <style type="text/css">*{stroke-linejoin: round; stroke-linecap: butt}</style>
 </defs>
 <g id="figure_1">
  <g id="patch_1">
   <path d="M 0 265.689687 
L 861.826323 265.689687 
L 861.826323 0 
L 0 0 
z
" style="fill: #ffffff"/>
  </g>
  <g id="axes_1">
   <g id="patch_2">
    <path d="M 7.2 228.96 
L 844.2 228.96 
L 844.2 7.2 
L 7.2 7.2 
z
" style="fill: #ffffff"/>
   </g>
   <g id="matplotlib.axis_1">
    <g id="xtick_1">
     <g id="line2d_1">
      <defs>
       <path id="m76a7bb0f72" d="M 0 0 
L 0 3.5 
" style="stroke: #262626; stroke-width: 0.8"/>
      </defs>
      <g>
       <use xlink:href="#m76a7bb0f72" x="156.408685" y="228.96" style="fill: #262626; stroke: #262626; stroke-width: 0.8"/>
      </g>
     </g>
     <g id="text_1">
      <text style="font-size: 10px; font-family: 'Arial', 'DejaVu Sans', 'Liberation Sans', 'Bitstream Vera Sans', sans-serif; text-anchor: middle; fill: #262626" x="156.408685" y="243.117812" transform="rotate(-0 156.408685 243.117812)">$1</text>
     </g>
    </g>
    <g id="xtick_2">
     <g id="line2d_2">
      <g>
       <use xlink:href="#m76a7bb0f72" x="225.075162" y="228.96" style="fill: #262626; stroke: #262626; stroke-width: 0.8"/>
      </g>
     </g>
     <g id="text_2">
      <text style="font-size: 10px; font-family: 'Arial', 'DejaVu Sans', 'Liberation Sans', 'Bitstream Vera Sans', sans-serif; text-anchor: middle; fill: #262626" x="225.075162" y="243.117812" transform="rotate(-0 225.075162 243.117812)">$2</text>
     </g>
    </g>
    <g id="xtick_3">
     <g id="line2d_3">
      <g>
       <use xlink:href="#m76a7bb0f72" x="315.847307" y="228.96" style="fill: #262626; stroke: #262626; stroke-width: 0.8"/>
      </g>
     </g>
     <g id="text_3">
      <text style="font-size: 10px; font-family: 'Arial', 'DejaVu Sans', 'Liberation Sans', 'Bitstream Vera Sans', sans-serif; text-anchor: middle; fill: #262626" x="315.847307" y="243.117812" transform="rotate(-0 315.847307 243.117812)">$5</text>
     </g>
    </g>
    <g id="xtick_4">
     <g id="line2d_4">
      <g>
       <use xlink:href="#m76a7bb0f72" x="384.513783" y="228.96" style="fill: #262626; stroke: #262626; stroke-width: 0.8"/>
      </g>
     </g>
     <g id="text_4">
      <text style="font-size: 10px; font-family: 'Arial', 'DejaVu Sans', 'Liberation Sans', 'Bitstream Vera Sans', sans-serif; text-anchor: middle; fill: #262626" x="384.513783" y="243.117812" transform="rotate(-0 384.513783 243.117812)">$10</text>
     </g>
    </g>
    <g id="xtick_5">
     <g id="line2d_5">
      <g>
       <use xlink:href="#m76a7bb0f72" x="453.18026" y="228.96" style="fill: #262626; stroke: #262626; stroke-width: 0.8"/>
      </g>
     </g>
     <g id="text_5">
      <text style="font-size: 10px; font-family: 'Arial', 'DejaVu Sans', 'Liberation Sans', 'Bitstream Vera Sans', sans-serif; text-anchor: middle; fill: #262626" x="453.18026" y="243.117812" transform="rotate(-0 453.18026 243.117812)">$20</text>
     </g>
    </g>
    <g id="xtick_6">
     <g id="line2d_6">
      <g>
       <use xlink:href="#m76a7bb0f72" x="543.952404" y="228.96" style="fill: #262626; stroke: #262626; stroke-width: 0.8"/>
      </g>
     </g>
     <g id="text_6">
      <text style="font-size: 10px; font-family: 'Arial', 'DejaVu Sans', 'Liberation Sans', 'Bitstream Vera Sans', sans-serif; text-anchor: middle; fill: #262626" x="543.952404" y="243.117812" transform="rotate(-0 543.952404 243.117812)">$50</text>
     </g>
    </g>
    <g id="xtick_7">
     <g id="line2d_7">
      <g>
       <use xlink:href="#m76a7bb0f72" x="612.618881" y="228.96" style="fill: #262626; stroke: #262626; stroke-width: 0.8"/>
      </g>
     </g>
     <g id="text_7">
      <text style="font-size: 10px; font-family: 'Arial', 'DejaVu Sans', 'Liberation Sans', 'Bitstream Vera Sans', sans-serif; text-anchor: middle; fill: #262626" x="612.618881" y="243.117812" transform="rotate(-0 612.618881 243.117812)">$100</text>
     </g>
    </g>
    <g id="xtick_8">
     <g id="line2d_8">
      <g>
       <use xlink:href="#m76a7bb0f72" x="681.285358" y="228.96" style="fill: #262626; stroke: #262626; stroke-width: 0.8"/>
      </g>
     </g>
     <g id="text_8">
      <text style="font-size: 10px; font-family: 'Arial', 'DejaVu Sans', 'Liberation Sans', 'Bitstream Vera Sans', sans-serif; text-anchor: middle; fill: #262626" x="681.285358" y="243.117812" transform="rotate(-0 681.285358 243.117812)">$200</text>
     </g>
    </g>
    <g id="xtick_9">
     <g id="line2d_9">
      <g>
       <use xlink:href="#m76a7bb0f72" x="772.057502" y="228.96" style="fill: #262626; stroke: #262626; stroke-width: 0.8"/>
      </g>
     </g>
     <g id="text_9">
      <text style="font-size: 10px; font-family: 'Arial', 'DejaVu Sans', 'Liberation Sans', 'Bitstream Vera Sans', sans-serif; text-anchor: middle; fill: #262626" x="772.057502" y="243.117812" transform="rotate(-0 772.057502 243.117812)">$500</text>
     </g>
    </g>
    <g id="xtick_10">
     <g id="line2d_10">
      <g>
       <use xlink:href="#m76a7bb0f72" x="840.723979" y="228.96" style="fill: #262626; stroke: #262626; stroke-width: 0.8"/>
      </g>
     </g>
     <g id="text_10">
      <text style="font-size: 10px; font-family: 'Arial', 'DejaVu Sans', 'Liberation Sans', 'Bitstream Vera Sans', sans-serif; text-anchor: middle; fill: #262626" x="840.723979" y="243.117812" transform="rotate(-0 840.723979 243.117812)">$1000</text>
     </g>
    </g>
    <g id="xtick_11">
     <g id="line2d_11">
      <defs>
       <path id="mae7bae1cf9" d="M 0 0 
L 0 2 
" style="stroke: #262626; stroke-width: 0.6"/>
      </defs>
      <g>
       <use xlink:href="#mae7bae1cf9" x="37.137378" y="228.96" style="fill: #262626; stroke: #262626; stroke-width: 0.6"/>
      </g>
     </g>
    </g>
    <g id="xtick_12">
     <g id="line2d_12">
      <g>
       <use xlink:href="#mae7bae1cf9" x="65.636541" y="228.96" style="fill: #262626; stroke: #262626; stroke-width: 0.6"/>
      </g>
     </g>
    </g>
    <g id="xtick_13">
     <g id="line2d_13">
      <g>
       <use xlink:href="#mae7bae1cf9" x="87.742209" y="228.96" style="fill: #262626; stroke: #262626; stroke-width: 0.6"/>
      </g>
     </g>
    </g>
    <g id="xtick_14">
     <g id="line2d_14">
      <g>
       <use xlink:href="#mae7bae1cf9" x="105.803855" y="228.96" style="fill: #262626; stroke: #262626; stroke-width: 0.6"/>
      </g>
     </g>
    </g>
    <g id="xtick_15">
     <g id="line2d_15">
      <g>
       <use xlink:href="#mae7bae1cf9" x="121.074759" y="228.96" style="fill: #262626; stroke: #262626; stroke-width: 0.6"/>
      </g>
     </g>
    </g>
    <g id="xtick_16">
     <g id="line2d_16">
      <g>
       <use xlink:href="#mae7bae1cf9" x="134.303017" y="228.96" style="fill: #262626; stroke: #262626; stroke-width: 0.6"/>
      </g>
     </g>
    </g>
    <g id="xtick_17">
     <g id="line2d_17">
      <g>
       <use xlink:href="#mae7bae1cf9" x="145.971168" y="228.96" style="fill: #262626; stroke: #262626; stroke-width: 0.6"/>
      </g>
     </g>
    </g>
    <g id="xtick_18">
     <g id="line2d_18">
      <g>
       <use xlink:href="#mae7bae1cf9" x="265.242476" y="228.96" style="fill: #262626; stroke: #262626; stroke-width: 0.6"/>
      </g>
     </g>
    </g>
    <g id="xtick_19">
     <g id="line2d_19">
      <g>
       <use xlink:href="#mae7bae1cf9" x="293.741639" y="228.96" style="fill: #262626; stroke: #262626; stroke-width: 0.6"/>
      </g>
     </g>
    </g>
    <g id="xtick_20">
     <g id="line2d_20">
      <g>
       <use xlink:href="#mae7bae1cf9" x="333.908952" y="228.96" style="fill: #262626; stroke: #262626; stroke-width: 0.6"/>
      </g>
     </g>
    </g>
    <g id="xtick_21">
     <g id="line2d_21">
      <g>
       <use xlink:href="#mae7bae1cf9" x="349.179856" y="228.96" style="fill: #262626; stroke: #262626; stroke-width: 0.6"/>
      </g>
     </g>
    </g>
    <g id="xtick_22">
     <g id="line2d_22">
      <g>
       <use xlink:href="#mae7bae1cf9" x="362.408115" y="228.96" style="fill: #262626; stroke: #262626; stroke-width: 0.6"/>
      </g>
     </g>
    </g>
    <g id="xtick_23">
     <g id="line2d_23">
      <g>
       <use xlink:href="#mae7bae1cf9" x="374.076266" y="228.96" style="fill: #262626; stroke: #262626; stroke-width: 0.6"/>
      </g>
     </g>
    </g>
    <g id="xtick_24">
     <g id="line2d_24">
      <g>
       <use xlink:href="#mae7bae1cf9" x="493.347574" y="228.96" style="fill: #262626; stroke: #262626; stroke-width: 0.6"/>
      </g>
     </g>
    </g>
    <g id="xtick_25">
     <g id="line2d_25">
      <g>
       <use xlink:href="#mae7bae1cf9" x="521.846736" y="228.96" style="fill: #262626; stroke: #262626; stroke-width: 0.6"/>
      </g>
     </g>
    </g>
    <g id="xtick_26">
     <g id="line2d_26">
      <g>
       <use xlink:href="#mae7bae1cf9" x="562.01405" y="228.96" style="fill: #262626; stroke: #262626; stroke-width: 0.6"/>
      </g>
     </g>
    </g>
    <g id="xtick_27">
     <g id="line2d_27">
      <g>
       <use xlink:href="#mae7bae1cf9" x="577.284954" y="228.96" style="fill: #262626; stroke: #262626; stroke-width: 0.6"/>
      </g>
     </g>
    </g>
    <g id="xtick_28">
     <g id="line2d_28">
      <g>
       <use xlink:href="#mae7bae1cf9" x="590.513213" y="228.96" style="fill: #262626; stroke: #262626; stroke-width: 0.6"/>
      </g>
     </g>
    </g>
    <g id="xtick_29">
     <g id="line2d_29">
      <g>
       <use xlink:href="#mae7bae1cf9" x="602.181364" y="228.96" style="fill: #262626; stroke: #262626; stroke-width: 0.6"/>
      </g>
     </g>
    </g>
    <g id="xtick_30">
     <g id="line2d_30">
      <g>
       <use xlink:href="#mae7bae1cf9" x="721.452672" y="228.96" style="fill: #262626; stroke: #262626; stroke-width: 0.6"/>
      </g>
     </g>
    </g>
    <g id="xtick_31">
     <g id="line2d_31">
      <g>
       <use xlink:href="#mae7bae1cf9" x="749.951834" y="228.96" style="fill: #262626; stroke: #262626; stroke-width: 0.6"/>
      </g>
     </g>
    </g>
    <g id="xtick_32">
     <g id="line2d_32">
      <g>
       <use xlink:href="#mae7bae1cf9" x="790.119148" y="228.96" style="fill: #262626; stroke: #262626; stroke-width: 0.6"/>
      </g>
     </g>
    </g>
    <g id="xtick_33">
     <g id="line2d_33">
      <g>
       <use xlink:href="#mae7bae1cf9" x="805.390052" y="228.96" style="fill: #262626; stroke: #262626; stroke-width: 0.6"/>
      </g>
     </g>
    </g>
    <g id="xtick_34">
     <g id="line2d_34">
      <g>
       <use xlink:href="#mae7bae1cf9" x="818.618311" y="228.96" style="fill: #262626; stroke: #262626; stroke-width: 0.6"/>
      </g>
     </g>
    </g>
    <g id="xtick_35">
     <g id="line2d_35">
      <g>
       <use xlink:href="#mae7bae1cf9" x="830.286462" y="228.96" style="fill: #262626; stroke: #262626; stroke-width: 0.6"/>
      </g>
     </g>
    </g>
    <g id="text_11">
     <text style="font-size: 10px; font-family: 'Arial', 'DejaVu Sans', 'Liberation Sans', 'Bitstream Vera Sans', sans-serif; text-anchor: middle; fill: #262626" x="425.7" y="256.385" transform="rotate(-0 425.7 256.385)">Income or consumption (day)</text>
    </g>
   </g>
   <g id="matplotlib.axis_2"/>
   <g id="FillBetweenPolyCollection_1">
    <defs>
     <path id="m6bf0db4a52" d="M 45.245455 -36.746883 
L 45.245455 -36.729688 
L 47.248818 -36.729688 
L 49.252182 -36.729688 
L 51.255545 -36.729688 
L 53.258909 -36.729688 
L 55.262272 -36.729688 
L 57.265636 -36.729688 
L 59.269 -36.729688 
L 61.272363 -36.729688 
L 63.275727 -36.729688 
L 65.27909 -36.729688 
L 67.282454 -36.729688 
L 69.285817 -36.729688 
L 71.289181 -36.729688 
L 73.292544 -36.729688 
L 75.295908 -36.729688 
L 77.299272 -36.729688 
L 79.302635 -36.729688 
L 81.305999 -36.729688 
L 83.309362 -36.729688 
L 85.312726 -36.729688 
L 87.316089 -36.729688 
L 89.319453 -36.729688 
L 91.322817 -36.729688 
L 93.32618 -36.729688 
L 95.329544 -36.729688 
L 97.332907 -36.729688 
L 99.336271 -36.729688 
L 101.339634 -36.729688 
L 103.342998 -36.729688 
L 105.346362 -36.729688 
L 107.349725 -36.729688 
L 109.353089 -36.729688 
L 111.356452 -36.729688 
L 113.359816 -36.729688 
L 115.363179 -36.729688 
L 117.366543 -36.729688 
L 119.369907 -36.729688 
L 121.37327 -36.729688 
L 123.376634 -36.729688 
L 125.379997 -36.729688 
L 127.383361 -36.729688 
L 129.386724 -36.729688 
L 131.390088 -36.729688 
L 133.393452 -36.729688 
L 135.396815 -36.729688 
L 137.400179 -36.729688 
L 139.403542 -36.729688 
L 141.406906 -36.729688 
L 143.410269 -36.729688 
L 145.413633 -36.729688 
L 147.416996 -36.729688 
L 149.42036 -36.729688 
L 151.423724 -36.729688 
L 153.427087 -36.729688 
L 155.430451 -36.729688 
L 157.433814 -36.729688 
L 159.437178 -36.729688 
L 161.440541 -36.729688 
L 163.443905 -36.729688 
L 165.447269 -36.729688 
L 167.450632 -36.729688 
L 169.453996 -36.729688 
L 171.457359 -36.729688 
L 173.460723 -36.729688 
L 175.464086 -36.729688 
L 177.46745 -36.729688 
L 179.470814 -36.729688 
L 181.474177 -36.729688 
L 183.477541 -36.729688 
L 185.480904 -36.729688 
L 187.484268 -36.729688 
L 189.487631 -36.729688 
L 191.490995 -36.729688 
L 193.494359 -36.729688 
L 195.497722 -36.729688 
L 197.501086 -36.729688 
L 199.504449 -36.729688 
L 201.507813 -36.729688 
L 203.511176 -36.729688 
L 205.51454 -36.729688 
L 207.517903 -36.729688 
L 209.521267 -36.729688 
L 211.524631 -36.729688 
L 213.527994 -36.729688 
L 215.531358 -36.729688 
L 217.534721 -36.729688 
L 219.538085 -36.729688 
L 221.541448 -36.729688 
L 223.544812 -36.729688 
L 225.548176 -36.729688 
L 227.551539 -36.729688 
L 229.554903 -36.729688 
L 231.558266 -36.729688 
L 233.56163 -36.729688 
L 235.564993 -36.729688 
L 237.568357 -36.729688 
L 239.571721 -36.729688 
L 241.575084 -36.729688 
L 243.578448 -36.729688 
L 245.581811 -36.729688 
L 247.585175 -36.729688 
L 249.588538 -36.729688 
L 251.591902 -36.729688 
L 253.595266 -36.729688 
L 255.598629 -36.729688 
L 257.601993 -36.729688 
L 259.605356 -36.729688 
L 261.60872 -36.729688 
L 263.612083 -36.729688 
L 265.615447 -36.729688 
L 267.618811 -36.729688 
L 269.622174 -36.729688 
L 271.625538 -36.729688 
L 273.628901 -36.729688 
L 275.632265 -36.729688 
L 277.635628 -36.729688 
L 279.638992 -36.729688 
L 281.642355 -36.729688 
L 283.645719 -36.729688 
L 285.649083 -36.729688 
L 287.652446 -36.729688 
L 289.65581 -36.729688 
L 291.659173 -36.729688 
L 293.662537 -36.729688 
L 295.6659 -36.729688 
L 297.669264 -36.729688 
L 299.672628 -36.729688 
L 301.675991 -36.729688 
L 303.679355 -36.729688 
L 305.682718 -36.729688 
L 307.686082 -36.729688 
L 309.689445 -36.729688 
L 311.692809 -36.729688 
L 313.696173 -36.729688 
L 315.699536 -36.729688 
L 317.7029 -36.729688 
L 319.706263 -36.729688 
L 321.709627 -36.729688 
L 323.71299 -36.729688 
L 325.716354 -36.729688 
L 327.719718 -36.729688 
L 329.723081 -36.729688 
L 331.726445 -36.729688 
L 333.729808 -36.729688 
L 335.733172 -36.729688 
L 337.736535 -36.729688 
L 339.739899 -36.729688 
L 341.743262 -36.729688 
L 343.746626 -36.729688 
L 345.74999 -36.729688 
L 347.753353 -36.729688 
L 349.756717 -36.729688 
L 351.76008 -36.729688 
L 353.763444 -36.729688 
L 355.766807 -36.729688 
L 357.770171 -36.729688 
L 359.773535 -36.729688 
L 361.776898 -36.729688 
L 363.780262 -36.729688 
L 365.783625 -36.729688 
L 367.786989 -36.729688 
L 369.790352 -36.729688 
L 371.793716 -36.729688 
L 373.79708 -36.729688 
L 375.800443 -36.729688 
L 377.803807 -36.729688 
L 379.80717 -36.729688 
L 381.810534 -36.729688 
L 383.813897 -36.729688 
L 385.817261 -36.729688 
L 387.820625 -36.729688 
L 389.823988 -36.729688 
L 391.827352 -36.729688 
L 393.830715 -36.729688 
L 395.834079 -36.729688 
L 397.837442 -36.729688 
L 399.840806 -36.729688 
L 401.84417 -36.729688 
L 403.847533 -36.729688 
L 405.850897 -36.729688 
L 407.85426 -36.729688 
L 409.857624 -36.729688 
L 411.860987 -36.729688 
L 413.864351 -36.729688 
L 415.867714 -36.729688 
L 417.871078 -36.729688 
L 419.874442 -36.729688 
L 421.877805 -36.729688 
L 423.881169 -36.729688 
L 425.884532 -36.729688 
L 427.887896 -36.729688 
L 429.891259 -36.729688 
L 431.894623 -36.729688 
L 433.897987 -36.729688 
L 435.90135 -36.729688 
L 437.904714 -36.729688 
L 439.908077 -36.729688 
L 441.911441 -36.729688 
L 443.914804 -36.729688 
L 443.914804 -36.748715 
L 443.914804 -36.748715 
L 441.911441 -36.758913 
L 439.908077 -36.773831 
L 437.904714 -36.795267 
L 435.90135 -36.825519 
L 433.897987 -36.867459 
L 431.894623 -36.924573 
L 429.891259 -37.000984 
L 427.887896 -37.101421 
L 425.884532 -37.231135 
L 423.881169 -37.395757 
L 421.877805 -37.601085 
L 419.874442 -37.85281 
L 417.871078 -38.156197 
L 415.867714 -38.515743 
L 413.864351 -38.93483 
L 411.860987 -39.415431 
L 409.857624 -39.957881 
L 407.85426 -40.560771 
L 405.850897 -41.220961 
L 403.847533 -41.933753 
L 401.84417 -42.693198 
L 399.840806 -43.49252 
L 397.837442 -44.324622 
L 395.834079 -45.182618 
L 393.830715 -46.060342 
L 391.827352 -46.95277 
L 389.823988 -47.856323 
L 387.820625 -48.769015 
L 385.817261 -49.690439 
L 383.813897 -50.621606 
L 381.810534 -51.564667 
L 379.80717 -52.522562 
L 377.803807 -53.498644 
L 375.800443 -54.496334 
L 373.79708 -55.518845 
L 371.793716 -56.569003 
L 369.790352 -57.649173 
L 367.786989 -58.761291 
L 365.783625 -59.906977 
L 363.780262 -61.087699 
L 361.776898 -62.304948 
L 359.773535 -63.560391 
L 357.770171 -64.855972 
L 355.766807 -66.193942 
L 353.763444 -67.576807 
L 351.76008 -69.007216 
L 349.756717 -70.487794 
L 347.753353 -72.020979 
L 345.74999 -73.608875 
L 343.746626 -75.25318 
L 341.743262 -76.955202 
L 339.739899 -78.715977 
L 337.736535 -80.536481 
L 335.733172 -82.417904 
L 333.729808 -84.361944 
L 331.726445 -86.371055 
L 329.723081 -88.44861 
L 327.719718 -90.598918 
L 325.716354 -92.827087 
L 323.71299 -95.13873 
L 321.709627 -97.539554 
L 319.706263 -100.034875 
L 317.7029 -102.629139 
L 315.699536 -105.325517 
L 313.696173 -108.12563 
L 311.692809 -111.029436 
L 309.689445 -114.035306 
L 307.686082 -117.14024 
L 305.682718 -120.340207 
L 303.679355 -123.63052 
L 301.675991 -127.006198 
L 299.672628 -130.462243 
L 297.669264 -133.993791 
L 295.6659 -137.596121 
L 293.662537 -141.26451 
L 291.659173 -144.993993 
L 289.65581 -148.779038 
L 287.652446 -152.613228 
L 285.649083 -156.488993 
L 283.645719 -160.397459 
L 281.642355 -164.328458 
L 279.638992 -168.27071 
L 277.635628 -172.212212 
L 275.632265 -176.140773 
L 273.628901 -180.044681 
L 271.625538 -183.913409 
L 269.622174 -187.738286 
L 267.618811 -191.513015 
L 265.615447 -195.233959 
L 263.612083 -198.900085 
L 261.60872 -202.512533 
L 259.605356 -206.073782 
L 257.601993 -209.586462 
L 255.598629 -213.051915 
L 253.595266 -216.468662 
L 251.591902 -219.830967 
L 249.588538 -223.127703 
L 247.585175 -226.3417 
L 245.581811 -229.449716 
L 243.578448 -232.423085 
L 241.575084 -235.228991 
L 239.571721 -237.832262 
L 237.568357 -240.197475 
L 235.564993 -242.291122 
L 233.56163 -244.083618 
L 231.558266 -245.550924 
L 229.554903 -246.67568 
L 227.551539 -247.447769 
L 225.548176 -247.864386 
L 223.544812 -247.929688 
L 221.541448 -247.654183 
L 219.538085 -247.053993 
L 217.534721 -246.150085 
L 215.531358 -244.967533 
L 213.527994 -243.534785 
L 211.524631 -241.882878 
L 209.521267 -240.044523 
L 207.517903 -238.052966 
L 205.51454 -235.940604 
L 203.511176 -233.737386 
L 201.507813 -231.469077 
L 199.504449 -229.15558 
L 197.501086 -226.809483 
L 195.497722 -224.435073 
L 193.494359 -222.027968 
L 191.490995 -219.575492 
L 189.487631 -217.057816 
L 187.484268 -214.449793 
L 185.480904 -211.723321 
L 183.477541 -208.850014 
L 181.474177 -205.803893 
L 179.470814 -202.563835 
L 177.46745 -199.115531 
L 175.464086 -195.452761 
L 173.460723 -191.577891 
L 171.457359 -187.501576 
L 169.453996 -183.241736 
L 167.450632 -178.821984 
L 165.447269 -174.269681 
L 163.443905 -169.613893 
L 161.440541 -164.883455 
L 159.437178 -160.10537 
L 157.433814 -155.303667 
L 155.430451 -150.498825 
L 153.427087 -145.707737 
L 151.423724 -140.944145 
L 149.42036 -136.219424 
L 147.416996 -131.543534 
L 145.413633 -126.925961 
L 143.410269 -122.376498 
L 141.406906 -117.905725 
L 139.403542 -113.525137 
L 137.400179 -109.246916 
L 135.396815 -105.083388 
L 133.393452 -101.046289 
L 131.390088 -97.14595 
L 129.386724 -93.390547 
L 127.383361 -89.785529 
L 125.379997 -86.3333 
L 123.376634 -83.033217 
L 121.37327 -79.881868 
L 119.369907 -76.873606 
L 117.366543 -74.001254 
L 115.363179 -71.256885 
L 113.359816 -68.632591 
L 111.356452 -66.121165 
L 109.353089 -63.716625 
L 107.349725 -61.414566 
L 105.346362 -59.212319 
L 103.342998 -57.108937 
L 101.339634 -55.105027 
L 99.336271 -53.202471 
L 97.332907 -51.404068 
L 95.329544 -49.713132 
L 93.32618 -48.133072 
L 91.322817 -46.666986 
L 89.319453 -45.317296 
L 87.316089 -44.085421 
L 85.312726 -42.971535 
L 83.309362 -41.97439 
L 81.305999 -41.091237 
L 79.302635 -40.317833 
L 77.299272 -39.648538 
L 75.295908 -39.076489 
L 73.292544 -38.593838 
L 71.289181 -38.192037 
L 69.285817 -37.862142 
L 67.282454 -37.595116 
L 65.27909 -37.382117 
L 63.275727 -37.214737 
L 61.272363 -37.085201 
L 59.269 -36.986502 
L 57.265636 -36.91248 
L 55.262272 -36.857851 
L 53.258909 -36.818185 
L 51.255545 -36.789856 
L 49.252182 -36.769958 
L 47.248818 -36.756215 
L 45.245455 -36.746883 
z
" style="stroke: #dd8452"/>
    </defs>
    <g>
     <use xlink:href="#m6bf0db4a52" x="0" y="265.689687" style="fill: #dd8452; fill-opacity: 0.25; stroke: #dd8452"/>
    </g>
   </g>
   <g id="FillBetweenPolyCollection_2">
    <defs>
     <path id="mc1a33fc233" d="M 192.408068 -36.73738 
L 192.408068 -36.729688 
L 195.492222 -36.729688 
L 198.576375 -36.729688 
L 201.660528 -36.729688 
L 204.744681 -36.729688 
L 207.828834 -36.729688 
L 210.912987 -36.729688 
L 213.99714 -36.729688 
L 217.081294 -36.729688 
L 220.165447 -36.729688 
L 223.2496 -36.729688 
L 226.333753 -36.729688 
L 229.417906 -36.729688 
L 232.502059 -36.729688 
L 235.586213 -36.729688 
L 238.670366 -36.729688 
L 241.754519 -36.729688 
L 244.838672 -36.729688 
L 247.922825 -36.729688 
L 251.006978 -36.729688 
L 254.091131 -36.729688 
L 257.175285 -36.729688 
L 260.259438 -36.729688 
L 263.343591 -36.729688 
L 266.427744 -36.729688 
L 269.511897 -36.729688 
L 272.59605 -36.729688 
L 275.680203 -36.729688 
L 278.764357 -36.729688 
L 281.84851 -36.729688 
L 284.932663 -36.729688 
L 288.016816 -36.729688 
L 291.100969 -36.729688 
L 294.185122 -36.729688 
L 297.269276 -36.729688 
L 300.353429 -36.729688 
L 303.437582 -36.729688 
L 306.521735 -36.729688 
L 309.605888 -36.729688 
L 312.690041 -36.729688 
L 315.774194 -36.729688 
L 318.858348 -36.729688 
L 321.942501 -36.729688 
L 325.026654 -36.729688 
L 328.110807 -36.729688 
L 331.19496 -36.729688 
L 334.279113 -36.729688 
L 337.363266 -36.729688 
L 340.44742 -36.729688 
L 343.531573 -36.729688 
L 346.615726 -36.729688 
L 349.699879 -36.729688 
L 352.784032 -36.729688 
L 355.868185 -36.729688 
L 358.952339 -36.729688 
L 362.036492 -36.729688 
L 365.120645 -36.729688 
L 368.204798 -36.729688 
L 371.288951 -36.729688 
L 374.373104 -36.729688 
L 377.457257 -36.729688 
L 380.541411 -36.729688 
L 383.625564 -36.729688 
L 386.709717 -36.729688 
L 389.79387 -36.729688 
L 392.878023 -36.729688 
L 395.962176 -36.729688 
L 399.04633 -36.729688 
L 402.130483 -36.729688 
L 405.214636 -36.729688 
L 408.298789 -36.729688 
L 411.382942 -36.729688 
L 414.467095 -36.729688 
L 417.551248 -36.729688 
L 420.635402 -36.729688 
L 423.719555 -36.729688 
L 426.803708 -36.729688 
L 429.887861 -36.729688 
L 432.972014 -36.729688 
L 436.056167 -36.729688 
L 439.14032 -36.729688 
L 442.224474 -36.729688 
L 445.308627 -36.729688 
L 448.39278 -36.729688 
L 451.476933 -36.729688 
L 454.561086 -36.729688 
L 457.645239 -36.729688 
L 460.729393 -36.729688 
L 463.813546 -36.729688 
L 466.897699 -36.729688 
L 469.981852 -36.729688 
L 473.066005 -36.729688 
L 476.150158 -36.729688 
L 479.234311 -36.729688 
L 482.318465 -36.729688 
L 485.402618 -36.729688 
L 488.486771 -36.729688 
L 491.570924 -36.729688 
L 494.655077 -36.729688 
L 497.73923 -36.729688 
L 500.823384 -36.729688 
L 503.907537 -36.729688 
L 506.99169 -36.729688 
L 510.075843 -36.729688 
L 513.159996 -36.729688 
L 516.244149 -36.729688 
L 519.328302 -36.729688 
L 522.412456 -36.729688 
L 525.496609 -36.729688 
L 528.580762 -36.729688 
L 531.664915 -36.729688 
L 534.749068 -36.729688 
L 537.833221 -36.729688 
L 540.917374 -36.729688 
L 544.001528 -36.729688 
L 547.085681 -36.729688 
L 550.169834 -36.729688 
L 553.253987 -36.729688 
L 556.33814 -36.729688 
L 559.422293 -36.729688 
L 562.506447 -36.729688 
L 565.5906 -36.729688 
L 568.674753 -36.729688 
L 571.758906 -36.729688 
L 574.843059 -36.729688 
L 577.927212 -36.729688 
L 581.011365 -36.729688 
L 584.095519 -36.729688 
L 587.179672 -36.729688 
L 590.263825 -36.729688 
L 593.347978 -36.729688 
L 596.432131 -36.729688 
L 599.516284 -36.729688 
L 602.600437 -36.729688 
L 605.684591 -36.729688 
L 608.768744 -36.729688 
L 611.852897 -36.729688 
L 614.93705 -36.729688 
L 618.021203 -36.729688 
L 621.105356 -36.729688 
L 624.18951 -36.729688 
L 627.273663 -36.729688 
L 630.357816 -36.729688 
L 633.441969 -36.729688 
L 636.526122 -36.729688 
L 639.610275 -36.729688 
L 642.694428 -36.729688 
L 645.778582 -36.729688 
L 648.862735 -36.729688 
L 651.946888 -36.729688 
L 655.031041 -36.729688 
L 658.115194 -36.729688 
L 661.199347 -36.729688 
L 664.283501 -36.729688 
L 667.367654 -36.729688 
L 670.451807 -36.729688 
L 673.53596 -36.729688 
L 676.620113 -36.729688 
L 679.704266 -36.729688 
L 682.788419 -36.729688 
L 685.872573 -36.729688 
L 688.956726 -36.729688 
L 692.040879 -36.729688 
L 695.125032 -36.729688 
L 698.209185 -36.729688 
L 701.293338 -36.729688 
L 704.377491 -36.729688 
L 707.461645 -36.729688 
L 710.545798 -36.729688 
L 713.629951 -36.729688 
L 716.714104 -36.729688 
L 719.798257 -36.729688 
L 722.88241 -36.729688 
L 725.966564 -36.729688 
L 729.050717 -36.729688 
L 732.13487 -36.729688 
L 735.219023 -36.729688 
L 738.303176 -36.729688 
L 741.387329 -36.729688 
L 744.471482 -36.729688 
L 747.555636 -36.729688 
L 750.639789 -36.729688 
L 753.723942 -36.729688 
L 756.808095 -36.729688 
L 759.892248 -36.729688 
L 762.976401 -36.729688 
L 766.060554 -36.729688 
L 769.144708 -36.729688 
L 772.228861 -36.729688 
L 775.313014 -36.729688 
L 778.397167 -36.729688 
L 781.48132 -36.729688 
L 784.565473 -36.729688 
L 787.649627 -36.729688 
L 790.73378 -36.729688 
L 793.817933 -36.729688 
L 796.902086 -36.729688 
L 799.986239 -36.729688 
L 803.070392 -36.729688 
L 806.154545 -36.729688 
L 806.154545 -36.75244 
L 806.154545 -36.75244 
L 803.070392 -36.76818 
L 799.986239 -36.793227 
L 796.902086 -36.832048 
L 793.817933 -36.89066 
L 790.73378 -36.97688 
L 787.649627 -37.100473 
L 784.565473 -37.273156 
L 781.48132 -37.508389 
L 778.397167 -37.820915 
L 775.313014 -38.226039 
L 772.228861 -38.738691 
L 769.144708 -39.372341 
L 766.060554 -40.137915 
L 762.976401 -41.042856 
L 759.892248 -42.090485 
L 756.808095 -43.279804 
L 753.723942 -44.605777 
L 750.639789 -46.060098 
L 747.555636 -47.632315 
L 744.471482 -49.31117 
L 741.387329 -51.085912 
L 738.303176 -52.947427 
L 735.219023 -54.889001 
L 732.13487 -56.906673 
L 729.050717 -58.999172 
L 725.966564 -61.167549 
L 722.88241 -63.414638 
L 719.798257 -65.744489 
L 716.714104 -68.161922 
L 713.629951 -70.672239 
L 710.545798 -73.281129 
L 707.461645 -75.994701 
L 704.377491 -78.819546 
L 701.293338 -81.762752 
L 698.209185 -84.831762 
L 695.125032 -88.034056 
L 692.040879 -91.376655 
L 688.956726 -94.865484 
L 685.872573 -98.504691 
L 682.788419 -102.29598 
L 679.704266 -106.238059 
L 676.620113 -110.326224 
L 673.53596 -114.552141 
L 670.451807 -118.903803 
L 667.367654 -123.365678 
L 664.283501 -127.919014 
L 661.199347 -132.542284 
L 658.115194 -137.211727 
L 655.031041 -141.90192 
L 651.946888 -146.586324 
L 648.862735 -151.237697 
L 645.778582 -155.828344 
L 642.694428 -160.330173 
L 639.610275 -164.714603 
L 636.526122 -168.952475 
L 633.441969 -173.014114 
L 630.357816 -176.869753 
L 627.273663 -180.490441 
L 624.18951 -183.849464 
L 621.105356 -186.924173 
L 618.021203 -189.697953 
L 614.93705 -192.161961 
L 611.852897 -194.316273 
L 608.768744 -196.170078 
L 605.684591 -197.740766 
L 602.600437 -199.051916 
L 599.516284 -200.130405 
L 596.432131 -201.003046 
L 593.347978 -201.693224 
L 590.263825 -202.218045 
L 587.179672 -202.586365 
L 584.095519 -202.79797 
L 581.011365 -202.843925 
L 577.927212 -202.707989 
L 574.843059 -202.368814 
L 571.758906 -201.802603 
L 568.674753 -200.985877 
L 565.5906 -199.898068 
L 562.506447 -198.523718 
L 559.422293 -196.854155 
L 556.33814 -194.888576 
L 553.253987 -192.634512 
L 550.169834 -190.107688 
L 547.085681 -187.331274 
L 544.001528 -184.334574 
L 540.917374 -181.151213 
L 537.833221 -177.816941 
L 534.749068 -174.367217 
L 531.664915 -170.834799 
L 528.580762 -167.247587 
L 525.496609 -163.626954 
L 522.412456 -159.986759 
L 519.328302 -156.333168 
L 516.244149 -152.665279 
L 513.159996 -148.976477 
L 510.075843 -145.256347 
L 506.99169 -141.49289 
L 503.907537 -137.674821 
L 500.823384 -133.793664 
L 497.73923 -129.845479 
L 494.655077 -125.832053 
L 491.570924 -121.761486 
L 488.486771 -117.648158 
L 485.402618 -113.51212 
L 482.318465 -109.377987 
L 479.234311 -105.273464 
L 476.150158 -101.227629 
L 473.066005 -97.26915 
L 469.981852 -93.424572 
L 466.897699 -89.716854 
L 463.813546 -86.164276 
L 460.729393 -82.779823 
L 457.645239 -79.571087 
L 454.561086 -76.540671 
L 451.476933 -73.687003 
L 448.39278 -71.005422 
L 445.308627 -68.489363 
L 442.224474 -66.131452 
L 439.14032 -63.924383 
L 436.056167 -61.86148 
L 432.972014 -59.936924 
L 429.887861 -58.145696 
L 426.803708 -56.483315 
L 423.719555 -54.945491 
L 420.635402 -53.527787 
L 417.551248 -52.225371 
L 414.467095 -51.032894 
L 411.382942 -49.944486 
L 408.298789 -48.953863 
L 405.214636 -48.054471 
L 402.130483 -47.239662 
L 399.04633 -46.502828 
L 395.962176 -45.837508 
L 392.878023 -45.237436 
L 389.79387 -44.696557 
L 386.709717 -44.209016 
L 383.625564 -43.769146 
L 380.541411 -43.37147 
L 377.457257 -43.010718 
L 374.373104 -42.681886 
L 371.288951 -42.380302 
L 368.204798 -42.101711 
L 365.120645 -41.842358 
L 362.036492 -41.599051 
L 358.952339 -41.369193 
L 355.868185 -41.150783 
L 352.784032 -40.942376 
L 349.699879 -40.743017 
L 346.615726 -40.552144 
L 343.531573 -40.369487 
L 340.44742 -40.194959 
L 337.363266 -40.028565 
L 334.279113 -39.870314 
L 331.19496 -39.720162 
L 328.110807 -39.577973 
L 325.026654 -39.443501 
L 321.942501 -39.316401 
L 318.858348 -39.196249 
L 315.774194 -39.082584 
L 312.690041 -38.974948 
L 309.605888 -38.872923 
L 306.521735 -38.77616 
L 303.437582 -38.684387 
L 300.353429 -38.597404 
L 297.269276 -38.515062 
L 294.185122 -38.437239 
L 291.100969 -38.363831 
L 288.016816 -38.294743 
L 284.932663 -38.229897 
L 281.84851 -38.169236 
L 278.764357 -38.112711 
L 275.680203 -38.060234 
L 272.59605 -38.011599 
L 269.511897 -37.966371 
L 266.427744 -37.923778 
L 263.343591 -37.882642 
L 260.259438 -37.841383 
L 257.175285 -37.798131 
L 254.091131 -37.750934 
L 251.006978 -37.69804 
L 247.922825 -37.638206 
L 244.838672 -37.570946 
L 241.754519 -37.496689 
L 238.670366 -37.416784 
L 235.586213 -37.33336 
L 232.502059 -37.249056 
L 229.417906 -37.166693 
L 226.333753 -37.088926 
L 223.2496 -37.017958 
L 220.165447 -36.955344 
L 217.081294 -36.901913 
L 213.99714 -36.857792 
L 210.912987 -36.822522 
L 207.828834 -36.795215 
L 204.744681 -36.77473 
L 201.660528 -36.759833 
L 198.576375 -36.74933 
L 195.492222 -36.742146 
L 192.408068 -36.73738 
z
" style="stroke: #4c72b0"/>
    </defs>
    <g>
     <use xlink:href="#mc1a33fc233" x="0" y="265.689687" style="fill: #4c72b0; fill-opacity: 0.25; stroke: #4c72b0"/>
    </g>
   </g>
   <g id="line2d_36">
    <path d="M 265.242476 228.96 
L 265.242476 7.2 
" style="fill: none; stroke-dasharray: 2.96,1.28; stroke-dashoffset: 0; stroke: #d3d3d3; stroke-width: 0.8"/>
   </g>
   <g id="line2d_37">
    <path d="M 461.953106 228.96 
L 461.953106 7.2 
" style="fill: none; stroke-dasharray: 2.96,1.28; stroke-dashoffset: 0; stroke: #d3d3d3; stroke-width: 0.8"/>
   </g>
   <g id="line2d_38">
    <path d="M 377.855767 228.96 
L 377.855767 7.2 
" style="fill: none; stroke-dasharray: 2.96,1.28; stroke-dashoffset: 0; stroke: #d3d3d3; stroke-width: 0.8"/>
   </g>
   <g id="line2d_39">
    <path d="M 7.2 228.96 
L 844.2 228.96 
" style="fill: none; stroke: #808080; stroke-width: 0.5; stroke-linecap: round"/>
   </g>
   <g id="text_12">
    <text style="font-size: 8px; font-family: 'Arial', 'DejaVu Sans', 'Liberation Sans', 'Bitstream Vera Sans', sans-serif; fill: #808080" transform="translate(271.496226 124.59635) rotate(-90)">International Poverty Line: $3.00</text>
   </g>
   <g id="text_13">
    <text style="font-size: 8px; font-family: 'Arial', 'DejaVu Sans', 'Liberation Sans', 'Bitstream Vera Sans', sans-serif; fill: #808080" transform="translate(467.679356 81.31135) rotate(-90)">World mean: $21.85</text>
   </g>
   <g id="text_14">
    <text style="font-size: 8px; font-family: 'Arial', 'DejaVu Sans', 'Liberation Sans', 'Bitstream Vera Sans', sans-serif; fill: #808080" transform="translate(383.582017 83.08885) rotate(-90)">World median: $9.35</text>
   </g>
   <g id="legend_1">
    <g id="patch_3">
     <path d="M 683.8 102.227 
L 775.83125 102.227 
Q 777.83125 102.227 777.83125 100.227 
L 777.83125 58.552 
Q 777.83125 56.552 775.83125 56.552 
L 683.8 56.552 
Q 681.8 56.552 681.8 58.552 
L 681.8 100.227 
Q 681.8 102.227 683.8 102.227 
z
" style="fill: #ffffff; opacity: 0.8; stroke: #cccccc; stroke-linejoin: miter"/>
    </g>
    <g id="text_15">
     <text style="font-size: 10px; font-family: 'Arial', 'DejaVu Sans', 'Liberation Sans', 'Bitstream Vera Sans', sans-serif; text-anchor: start; fill: #262626" x="712.309375" y="67.831687" transform="rotate(-0 712.309375 67.831687)">Country</text>
    </g>
    <g id="patch_4">
     <path d="M 685.8 82.094187 
L 705.8 82.094187 
L 705.8 75.094187 
L 685.8 75.094187 
z
" style="fill: #4c72b0; fill-opacity: 0.25; stroke: #4c72b0; stroke-linejoin: miter"/>
    </g>
    <g id="text_16">
     <text style="font-size: 10px; font-family: 'Arial', 'DejaVu Sans', 'Liberation Sans', 'Bitstream Vera Sans', sans-serif; text-anchor: start; fill: #262626" x="713.8" y="82.094187" transform="rotate(-0 713.8 82.094187)">United States</text>
    </g>
    <g id="patch_5">
     <path d="M 685.8 96.2395 
L 705.8 96.2395 
L 705.8 89.2395 
L 685.8 89.2395 
z
" style="fill: #dd8452; fill-opacity: 0.25; stroke: #dd8452; stroke-linejoin: miter"/>
    </g>
    <g id="text_17">
     <text style="font-size: 10px; font-family: 'Arial', 'DejaVu Sans', 'Liberation Sans', 'Bitstream Vera Sans', sans-serif; text-anchor: start; fill: #262626" x="713.8" y="96.2395" transform="rotate(-0 713.8 96.2395)">Burundi</text>
    </g>
   </g>
  </g>
 </g>
</svg>
