<?xml version="1.0" encoding="utf-8" standalone="no"?>
<!DOCTYPE svg PUBLIC "-//W3C//DTD SVG 1.1//EN"
  "http://www.w3.org/Graphics/SVG/1.1/DTD/svg11.dtd">
<svg xmlns:xlink="http://www.w3.org/1999/xlink" width="1080pt" height="540pt" viewBox="0 0 1080 540" xmlns="http://www.w3.org/2000/svg" version="1.1">
 <metadata>
  <rdf:RDF xmlns:dc="http://purl.org/dc/elements/1.1/" xmlns:cc="http://creativecommons.org/ns#" xmlns:rdf="http://www.w3.org/1999/02/22-rdf-syntax-ns#">
   <cc:Work>
    <dc:type rdf:resource="http://purl.org/dc/dcmitype/StillImage"/>
    <dc:date>2025-03-17T19:00:10.295993</dc:date>
    <dc:format>image/svg+xml</dc:format>
    <dc:creator>
     <cc:Agent>
      <dc:title>Matplotlib v3.10.1, https://matplotlib.org/</dc:title>
     </cc:Agent>
    </dc:creator>
   </cc:Work>
  </rdf:RDF>
 </metadata>
 <defs>
  <style type="text/css">*{stroke-linejoin: round; stroke-linecap: butt}</style>
 </defs>
 <g id="figure_1">
  <g id="patch_1">
   <path d="M 0 540 
L 1080 540 
L 1080 0 
L 0 0 
z
" style="fill: #ffffff"/>
  </g>
  <g id="axes_1">
   <g id="patch_2">
    <path d="M 135 480.6 
L 972 480.6 
L 972 64.8 
L 135 64.8 
z
" style="fill: #ffffff"/>
   </g>
   <g id="matplotlib.axis_1">
    <g id="xtick_1">
     <g id="line2d_1">
      <defs>
       <path id="m39abd57468" d="M 0 0 
L 0 3.5 
" style="stroke: #262626; stroke-width: 0.8"/>
      </defs>
      <g>
       <use xlink:href="#m39abd57468" x="360.441833" y="480.6" style="fill: #262626; stroke: #262626; stroke-width: 0.8"/>
      </g>
     </g>
     <g id="text_1">
      <!-- 1 -->
      <g style="fill: #262626" transform="translate(357.661364 494.757812) scale(0.1 -0.1)">
       <defs>
        <path id="ArialMT-31" d="M 2384 0 
L 1822 0 
L 1822 3584 
Q 1619 3391 1289 3197 
Q 959 3003 697 2906 
L 697 3450 
Q 1169 3672 1522 3987 
Q 1875 4303 2022 4600 
L 2384 4600 
L 2384 0 
z
" transform="scale(0.015625)"/>
       </defs>
       <use xlink:href="#ArialMT-31"/>
      </g>
     </g>
    </g>
    <g id="xtick_2">
     <g id="line2d_2">
      <g>
       <use xlink:href="#m39abd57468" x="413.557625" y="480.6" style="fill: #262626; stroke: #262626; stroke-width: 0.8"/>
      </g>
     </g>
     <g id="text_2">
      <!-- 2 -->
      <g style="fill: #262626" transform="translate(410.777156 494.757812) scale(0.1 -0.1)">
       <defs>
        <path id="ArialMT-32" d="M 3222 541 
L 3222 0 
L 194 0 
Q 188 203 259 391 
Q 375 700 629 1000 
Q 884 1300 1366 1694 
Q 2113 2306 2375 2664 
Q 2638 3022 2638 3341 
Q 2638 3675 2398 3904 
Q 2159 4134 1775 4134 
Q 1369 4134 1125 3890 
Q 881 3647 878 3216 
L 300 3275 
Q 359 3922 746 4261 
Q 1134 4600 1788 4600 
Q 2447 4600 2831 4234 
Q 3216 3869 3216 3328 
Q 3216 3053 3103 2787 
Q 2991 2522 2730 2228 
Q 2469 1934 1863 1422 
Q 1356 997 1212 845 
Q 1069 694 975 541 
L 3222 541 
z
" transform="scale(0.015625)"/>
       </defs>
       <use xlink:href="#ArialMT-32"/>
      </g>
     </g>
    </g>
    <g id="xtick_3">
     <g id="line2d_3">
      <g>
       <use xlink:href="#m39abd57468" x="483.772883" y="480.6" style="fill: #262626; stroke: #262626; stroke-width: 0.8"/>
      </g>
     </g>
     <g id="text_3">
      <!-- 5 -->
      <g style="fill: #262626" transform="translate(480.992414 494.757812) scale(0.1 -0.1)">
       <defs>
        <path id="ArialMT-35" d="M 266 1200 
L 856 1250 
Q 922 819 1161 601 
Q 1400 384 1738 384 
Q 2144 384 2425 690 
Q 2706 997 2706 1503 
Q 2706 1984 2436 2262 
Q 2166 2541 1728 2541 
Q 1456 2541 1237 2417 
Q 1019 2294 894 2097 
L 366 2166 
L 809 4519 
L 3088 4519 
L 3088 3981 
L 1259 3981 
L 1013 2750 
Q 1425 3038 1878 3038 
Q 2478 3038 2890 2622 
Q 3303 2206 3303 1553 
Q 3303 931 2941 478 
Q 2500 -78 1738 -78 
Q 1113 -78 717 272 
Q 322 622 266 1200 
z
" transform="scale(0.015625)"/>
       </defs>
       <use xlink:href="#ArialMT-35"/>
      </g>
     </g>
    </g>
    <g id="xtick_4">
     <g id="line2d_4">
      <g>
       <use xlink:href="#m39abd57468" x="536.888675" y="480.6" style="fill: #262626; stroke: #262626; stroke-width: 0.8"/>
      </g>
     </g>
     <g id="text_4">
      <!-- 10 -->
      <g style="fill: #262626" transform="translate(531.327737 494.757812) scale(0.1 -0.1)">
       <defs>
        <path id="ArialMT-30" d="M 266 2259 
Q 266 3072 433 3567 
Q 600 4063 929 4331 
Q 1259 4600 1759 4600 
Q 2128 4600 2406 4451 
Q 2684 4303 2865 4023 
Q 3047 3744 3150 3342 
Q 3253 2941 3253 2259 
Q 3253 1453 3087 958 
Q 2922 463 2592 192 
Q 2263 -78 1759 -78 
Q 1097 -78 719 397 
Q 266 969 266 2259 
z
M 844 2259 
Q 844 1131 1108 757 
Q 1372 384 1759 384 
Q 2147 384 2411 759 
Q 2675 1134 2675 2259 
Q 2675 3391 2411 3762 
Q 2147 4134 1753 4134 
Q 1366 4134 1134 3806 
Q 844 3388 844 2259 
z
" transform="scale(0.015625)"/>
       </defs>
       <use xlink:href="#ArialMT-31"/>
       <use xlink:href="#ArialMT-30" transform="translate(55.615234 0)"/>
      </g>
     </g>
    </g>
    <g id="xtick_5">
     <g id="line2d_5">
      <g>
       <use xlink:href="#m39abd57468" x="590.004467" y="480.6" style="fill: #262626; stroke: #262626; stroke-width: 0.8"/>
      </g>
     </g>
     <g id="text_5">
      <!-- 20 -->
      <g style="fill: #262626" transform="translate(584.44353 494.757812) scale(0.1 -0.1)">
       <use xlink:href="#ArialMT-32"/>
       <use xlink:href="#ArialMT-30" transform="translate(55.615234 0)"/>
      </g>
     </g>
    </g>
    <g id="xtick_6">
     <g id="line2d_6">
      <g>
       <use xlink:href="#m39abd57468" x="660.219725" y="480.6" style="fill: #262626; stroke: #262626; stroke-width: 0.8"/>
      </g>
     </g>
     <g id="text_6">
      <!-- 50 -->
      <g style="fill: #262626" transform="translate(654.658788 494.757812) scale(0.1 -0.1)">
       <use xlink:href="#ArialMT-35"/>
       <use xlink:href="#ArialMT-30" transform="translate(55.615234 0)"/>
      </g>
     </g>
    </g>
    <g id="xtick_7">
     <g id="line2d_7">
      <g>
       <use xlink:href="#m39abd57468" x="713.335517" y="480.6" style="fill: #262626; stroke: #262626; stroke-width: 0.8"/>
      </g>
     </g>
     <g id="text_7">
      <!-- 100 -->
      <g style="fill: #262626" transform="translate(704.994111 494.757812) scale(0.1 -0.1)">
       <use xlink:href="#ArialMT-31"/>
       <use xlink:href="#ArialMT-30" transform="translate(55.615234 0)"/>
       <use xlink:href="#ArialMT-30" transform="translate(111.230469 0)"/>
      </g>
     </g>
    </g>
    <g id="xtick_8">
     <g id="line2d_8">
      <g>
       <use xlink:href="#m39abd57468" x="766.45131" y="480.6" style="fill: #262626; stroke: #262626; stroke-width: 0.8"/>
      </g>
     </g>
     <g id="text_8">
      <!-- 200 -->
      <g style="fill: #262626" transform="translate(758.109903 494.757812) scale(0.1 -0.1)">
       <use xlink:href="#ArialMT-32"/>
       <use xlink:href="#ArialMT-30" transform="translate(55.615234 0)"/>
       <use xlink:href="#ArialMT-30" transform="translate(111.230469 0)"/>
      </g>
     </g>
    </g>
    <g id="xtick_9">
     <g id="line2d_9">
      <g>
       <use xlink:href="#m39abd57468" x="836.666568" y="480.6" style="fill: #262626; stroke: #262626; stroke-width: 0.8"/>
      </g>
     </g>
     <g id="text_9">
      <!-- 500 -->
      <g style="fill: #262626" transform="translate(828.325161 494.757812) scale(0.1 -0.1)">
       <use xlink:href="#ArialMT-35"/>
       <use xlink:href="#ArialMT-30" transform="translate(55.615234 0)"/>
       <use xlink:href="#ArialMT-30" transform="translate(111.230469 0)"/>
      </g>
     </g>
    </g>
    <g id="xtick_10">
     <g id="line2d_10">
      <g>
       <use xlink:href="#m39abd57468" x="889.78236" y="480.6" style="fill: #262626; stroke: #262626; stroke-width: 0.8"/>
      </g>
     </g>
     <g id="text_10">
      <!-- 1000 -->
      <g style="fill: #262626" transform="translate(878.660485 494.757812) scale(0.1 -0.1)">
       <use xlink:href="#ArialMT-31"/>
       <use xlink:href="#ArialMT-30" transform="translate(55.615234 0)"/>
       <use xlink:href="#ArialMT-30" transform="translate(111.230469 0)"/>
       <use xlink:href="#ArialMT-30" transform="translate(166.845703 0)"/>
      </g>
     </g>
    </g>
    <g id="xtick_11">
     <g id="line2d_11">
      <defs>
       <path id="m89d6f6f25d" d="M 0 0 
L 0 2 
" style="stroke: #262626; stroke-width: 0.6"/>
      </defs>
      <g>
       <use xlink:href="#m89d6f6f25d" x="144.850479" y="480.6" style="fill: #262626; stroke: #262626; stroke-width: 0.6"/>
      </g>
     </g>
    </g>
    <g id="xtick_12">
     <g id="line2d_12">
      <g>
       <use xlink:href="#m89d6f6f25d" x="156.663028" y="480.6" style="fill: #262626; stroke: #262626; stroke-width: 0.6"/>
      </g>
     </g>
    </g>
    <g id="xtick_13">
     <g id="line2d_13">
      <g>
       <use xlink:href="#m89d6f6f25d" x="166.895524" y="480.6" style="fill: #262626; stroke: #262626; stroke-width: 0.6"/>
      </g>
     </g>
    </g>
    <g id="xtick_14">
     <g id="line2d_14">
      <g>
       <use xlink:href="#m89d6f6f25d" x="175.921225" y="480.6" style="fill: #262626; stroke: #262626; stroke-width: 0.6"/>
      </g>
     </g>
    </g>
    <g id="xtick_15">
     <g id="line2d_15">
      <g>
       <use xlink:href="#m89d6f6f25d" x="237.110782" y="480.6" style="fill: #262626; stroke: #262626; stroke-width: 0.6"/>
      </g>
     </g>
    </g>
    <g id="xtick_16">
     <g id="line2d_16">
      <g>
       <use xlink:href="#m89d6f6f25d" x="268.181529" y="480.6" style="fill: #262626; stroke: #262626; stroke-width: 0.6"/>
      </g>
     </g>
    </g>
    <g id="xtick_17">
     <g id="line2d_17">
      <g>
       <use xlink:href="#m89d6f6f25d" x="290.226575" y="480.6" style="fill: #262626; stroke: #262626; stroke-width: 0.6"/>
      </g>
     </g>
    </g>
    <g id="xtick_18">
     <g id="line2d_18">
      <g>
       <use xlink:href="#m89d6f6f25d" x="307.32604" y="480.6" style="fill: #262626; stroke: #262626; stroke-width: 0.6"/>
      </g>
     </g>
    </g>
    <g id="xtick_19">
     <g id="line2d_19">
      <g>
       <use xlink:href="#m89d6f6f25d" x="321.297321" y="480.6" style="fill: #262626; stroke: #262626; stroke-width: 0.6"/>
      </g>
     </g>
    </g>
    <g id="xtick_20">
     <g id="line2d_20">
      <g>
       <use xlink:href="#m89d6f6f25d" x="333.109871" y="480.6" style="fill: #262626; stroke: #262626; stroke-width: 0.6"/>
      </g>
     </g>
    </g>
    <g id="xtick_21">
     <g id="line2d_21">
      <g>
       <use xlink:href="#m89d6f6f25d" x="343.342367" y="480.6" style="fill: #262626; stroke: #262626; stroke-width: 0.6"/>
      </g>
     </g>
    </g>
    <g id="xtick_22">
     <g id="line2d_22">
      <g>
       <use xlink:href="#m89d6f6f25d" x="352.368068" y="480.6" style="fill: #262626; stroke: #262626; stroke-width: 0.6"/>
      </g>
     </g>
    </g>
    <g id="xtick_23">
     <g id="line2d_23">
      <g>
       <use xlink:href="#m89d6f6f25d" x="444.628371" y="480.6" style="fill: #262626; stroke: #262626; stroke-width: 0.6"/>
      </g>
     </g>
    </g>
    <g id="xtick_24">
     <g id="line2d_24">
      <g>
       <use xlink:href="#m89d6f6f25d" x="466.673417" y="480.6" style="fill: #262626; stroke: #262626; stroke-width: 0.6"/>
      </g>
     </g>
    </g>
    <g id="xtick_25">
     <g id="line2d_25">
      <g>
       <use xlink:href="#m89d6f6f25d" x="497.744164" y="480.6" style="fill: #262626; stroke: #262626; stroke-width: 0.6"/>
      </g>
     </g>
    </g>
    <g id="xtick_26">
     <g id="line2d_26">
      <g>
       <use xlink:href="#m89d6f6f25d" x="509.556713" y="480.6" style="fill: #262626; stroke: #262626; stroke-width: 0.6"/>
      </g>
     </g>
    </g>
    <g id="xtick_27">
     <g id="line2d_27">
      <g>
       <use xlink:href="#m89d6f6f25d" x="519.789209" y="480.6" style="fill: #262626; stroke: #262626; stroke-width: 0.6"/>
      </g>
     </g>
    </g>
    <g id="xtick_28">
     <g id="line2d_28">
      <g>
       <use xlink:href="#m89d6f6f25d" x="528.81491" y="480.6" style="fill: #262626; stroke: #262626; stroke-width: 0.6"/>
      </g>
     </g>
    </g>
    <g id="xtick_29">
     <g id="line2d_29">
      <g>
       <use xlink:href="#m89d6f6f25d" x="621.075214" y="480.6" style="fill: #262626; stroke: #262626; stroke-width: 0.6"/>
      </g>
     </g>
    </g>
    <g id="xtick_30">
     <g id="line2d_30">
      <g>
       <use xlink:href="#m89d6f6f25d" x="643.120259" y="480.6" style="fill: #262626; stroke: #262626; stroke-width: 0.6"/>
      </g>
     </g>
    </g>
    <g id="xtick_31">
     <g id="line2d_31">
      <g>
       <use xlink:href="#m89d6f6f25d" x="674.191006" y="480.6" style="fill: #262626; stroke: #262626; stroke-width: 0.6"/>
      </g>
     </g>
    </g>
    <g id="xtick_32">
     <g id="line2d_32">
      <g>
       <use xlink:href="#m89d6f6f25d" x="686.003556" y="480.6" style="fill: #262626; stroke: #262626; stroke-width: 0.6"/>
      </g>
     </g>
    </g>
    <g id="xtick_33">
     <g id="line2d_33">
      <g>
       <use xlink:href="#m89d6f6f25d" x="696.236052" y="480.6" style="fill: #262626; stroke: #262626; stroke-width: 0.6"/>
      </g>
     </g>
    </g>
    <g id="xtick_34">
     <g id="line2d_34">
      <g>
       <use xlink:href="#m89d6f6f25d" x="705.261753" y="480.6" style="fill: #262626; stroke: #262626; stroke-width: 0.6"/>
      </g>
     </g>
    </g>
    <g id="xtick_35">
     <g id="line2d_35">
      <g>
       <use xlink:href="#m89d6f6f25d" x="797.522056" y="480.6" style="fill: #262626; stroke: #262626; stroke-width: 0.6"/>
      </g>
     </g>
    </g>
    <g id="xtick_36">
     <g id="line2d_36">
      <g>
       <use xlink:href="#m89d6f6f25d" x="819.567102" y="480.6" style="fill: #262626; stroke: #262626; stroke-width: 0.6"/>
      </g>
     </g>
    </g>
    <g id="xtick_37">
     <g id="line2d_37">
      <g>
       <use xlink:href="#m89d6f6f25d" x="850.637848" y="480.6" style="fill: #262626; stroke: #262626; stroke-width: 0.6"/>
      </g>
     </g>
    </g>
    <g id="xtick_38">
     <g id="line2d_38">
      <g>
       <use xlink:href="#m89d6f6f25d" x="862.450398" y="480.6" style="fill: #262626; stroke: #262626; stroke-width: 0.6"/>
      </g>
     </g>
    </g>
    <g id="xtick_39">
     <g id="line2d_39">
      <g>
       <use xlink:href="#m89d6f6f25d" x="872.682894" y="480.6" style="fill: #262626; stroke: #262626; stroke-width: 0.6"/>
      </g>
     </g>
    </g>
    <g id="xtick_40">
     <g id="line2d_40">
      <g>
       <use xlink:href="#m89d6f6f25d" x="881.708595" y="480.6" style="fill: #262626; stroke: #262626; stroke-width: 0.6"/>
      </g>
     </g>
    </g>
    <g id="xtick_41">
     <g id="line2d_41">
      <g>
       <use xlink:href="#m89d6f6f25d" x="942.898152" y="480.6" style="fill: #262626; stroke: #262626; stroke-width: 0.6"/>
      </g>
     </g>
    </g>
    <g id="text_11">
     <!-- Income or consumption (day) -->
     <g style="fill: #262626" transform="translate(488.753906 508.025) scale(0.1 -0.1)">
      <defs>
       <path id="ArialMT-49" d="M 597 0 
L 597 4581 
L 1203 4581 
L 1203 0 
L 597 0 
z
" transform="scale(0.015625)"/>
       <path id="ArialMT-6e" d="M 422 0 
L 422 3319 
L 928 3319 
L 928 2847 
Q 1294 3394 1984 3394 
Q 2284 3394 2536 3286 
Q 2788 3178 2913 3003 
Q 3038 2828 3088 2588 
Q 3119 2431 3119 2041 
L 3119 0 
L 2556 0 
L 2556 2019 
Q 2556 2363 2490 2533 
Q 2425 2703 2258 2804 
Q 2091 2906 1866 2906 
Q 1506 2906 1245 2678 
Q 984 2450 984 1813 
L 984 0 
L 422 0 
z
" transform="scale(0.015625)"/>
       <path id="ArialMT-63" d="M 2588 1216 
L 3141 1144 
Q 3050 572 2676 248 
Q 2303 -75 1759 -75 
Q 1078 -75 664 370 
Q 250 816 250 1647 
Q 250 2184 428 2587 
Q 606 2991 970 3192 
Q 1334 3394 1763 3394 
Q 2303 3394 2647 3120 
Q 2991 2847 3088 2344 
L 2541 2259 
Q 2463 2594 2264 2762 
Q 2066 2931 1784 2931 
Q 1359 2931 1093 2626 
Q 828 2322 828 1663 
Q 828 994 1084 691 
Q 1341 388 1753 388 
Q 2084 388 2306 591 
Q 2528 794 2588 1216 
z
" transform="scale(0.015625)"/>
       <path id="ArialMT-6f" d="M 213 1659 
Q 213 2581 725 3025 
Q 1153 3394 1769 3394 
Q 2453 3394 2887 2945 
Q 3322 2497 3322 1706 
Q 3322 1066 3130 698 
Q 2938 331 2570 128 
Q 2203 -75 1769 -75 
Q 1072 -75 642 372 
Q 213 819 213 1659 
z
M 791 1659 
Q 791 1022 1069 705 
Q 1347 388 1769 388 
Q 2188 388 2466 706 
Q 2744 1025 2744 1678 
Q 2744 2294 2464 2611 
Q 2184 2928 1769 2928 
Q 1347 2928 1069 2612 
Q 791 2297 791 1659 
z
" transform="scale(0.015625)"/>
       <path id="ArialMT-6d" d="M 422 0 
L 422 3319 
L 925 3319 
L 925 2853 
Q 1081 3097 1340 3245 
Q 1600 3394 1931 3394 
Q 2300 3394 2536 3241 
Q 2772 3088 2869 2813 
Q 3263 3394 3894 3394 
Q 4388 3394 4653 3120 
Q 4919 2847 4919 2278 
L 4919 0 
L 4359 0 
L 4359 2091 
Q 4359 2428 4304 2576 
Q 4250 2725 4106 2815 
Q 3963 2906 3769 2906 
Q 3419 2906 3187 2673 
Q 2956 2441 2956 1928 
L 2956 0 
L 2394 0 
L 2394 2156 
Q 2394 2531 2256 2718 
Q 2119 2906 1806 2906 
Q 1569 2906 1367 2781 
Q 1166 2656 1075 2415 
Q 984 2175 984 1722 
L 984 0 
L 422 0 
z
" transform="scale(0.015625)"/>
       <path id="ArialMT-65" d="M 2694 1069 
L 3275 997 
Q 3138 488 2766 206 
Q 2394 -75 1816 -75 
Q 1088 -75 661 373 
Q 234 822 234 1631 
Q 234 2469 665 2931 
Q 1097 3394 1784 3394 
Q 2450 3394 2872 2941 
Q 3294 2488 3294 1666 
Q 3294 1616 3291 1516 
L 816 1516 
Q 847 969 1125 678 
Q 1403 388 1819 388 
Q 2128 388 2347 550 
Q 2566 713 2694 1069 
z
M 847 1978 
L 2700 1978 
Q 2663 2397 2488 2606 
Q 2219 2931 1791 2931 
Q 1403 2931 1139 2672 
Q 875 2413 847 1978 
z
" transform="scale(0.015625)"/>
       <path id="ArialMT-20" transform="scale(0.015625)"/>
       <path id="ArialMT-72" d="M 416 0 
L 416 3319 
L 922 3319 
L 922 2816 
Q 1116 3169 1280 3281 
Q 1444 3394 1641 3394 
Q 1925 3394 2219 3213 
L 2025 2691 
Q 1819 2813 1613 2813 
Q 1428 2813 1281 2702 
Q 1134 2591 1072 2394 
Q 978 2094 978 1738 
L 978 0 
L 416 0 
z
" transform="scale(0.015625)"/>
       <path id="ArialMT-73" d="M 197 991 
L 753 1078 
Q 800 744 1014 566 
Q 1228 388 1613 388 
Q 2000 388 2187 545 
Q 2375 703 2375 916 
Q 2375 1106 2209 1216 
Q 2094 1291 1634 1406 
Q 1016 1563 777 1677 
Q 538 1791 414 1992 
Q 291 2194 291 2438 
Q 291 2659 392 2848 
Q 494 3038 669 3163 
Q 800 3259 1026 3326 
Q 1253 3394 1513 3394 
Q 1903 3394 2198 3281 
Q 2494 3169 2634 2976 
Q 2775 2784 2828 2463 
L 2278 2388 
Q 2241 2644 2061 2787 
Q 1881 2931 1553 2931 
Q 1166 2931 1000 2803 
Q 834 2675 834 2503 
Q 834 2394 903 2306 
Q 972 2216 1119 2156 
Q 1203 2125 1616 2013 
Q 2213 1853 2448 1751 
Q 2684 1650 2818 1456 
Q 2953 1263 2953 975 
Q 2953 694 2789 445 
Q 2625 197 2315 61 
Q 2006 -75 1616 -75 
Q 969 -75 630 194 
Q 291 463 197 991 
z
" transform="scale(0.015625)"/>
       <path id="ArialMT-75" d="M 2597 0 
L 2597 488 
Q 2209 -75 1544 -75 
Q 1250 -75 995 37 
Q 741 150 617 320 
Q 494 491 444 738 
Q 409 903 409 1263 
L 409 3319 
L 972 3319 
L 972 1478 
Q 972 1038 1006 884 
Q 1059 663 1231 536 
Q 1403 409 1656 409 
Q 1909 409 2131 539 
Q 2353 669 2445 892 
Q 2538 1116 2538 1541 
L 2538 3319 
L 3100 3319 
L 3100 0 
L 2597 0 
z
" transform="scale(0.015625)"/>
       <path id="ArialMT-70" d="M 422 -1272 
L 422 3319 
L 934 3319 
L 934 2888 
Q 1116 3141 1344 3267 
Q 1572 3394 1897 3394 
Q 2322 3394 2647 3175 
Q 2972 2956 3137 2557 
Q 3303 2159 3303 1684 
Q 3303 1175 3120 767 
Q 2938 359 2589 142 
Q 2241 -75 1856 -75 
Q 1575 -75 1351 44 
Q 1128 163 984 344 
L 984 -1272 
L 422 -1272 
z
M 931 1641 
Q 931 1000 1190 694 
Q 1450 388 1819 388 
Q 2194 388 2461 705 
Q 2728 1022 2728 1688 
Q 2728 2322 2467 2637 
Q 2206 2953 1844 2953 
Q 1484 2953 1207 2617 
Q 931 2281 931 1641 
z
" transform="scale(0.015625)"/>
       <path id="ArialMT-74" d="M 1650 503 
L 1731 6 
Q 1494 -44 1306 -44 
Q 1000 -44 831 53 
Q 663 150 594 308 
Q 525 466 525 972 
L 525 2881 
L 113 2881 
L 113 3319 
L 525 3319 
L 525 4141 
L 1084 4478 
L 1084 3319 
L 1650 3319 
L 1650 2881 
L 1084 2881 
L 1084 941 
Q 1084 700 1114 631 
Q 1144 563 1211 522 
Q 1278 481 1403 481 
Q 1497 481 1650 503 
z
" transform="scale(0.015625)"/>
       <path id="ArialMT-69" d="M 425 3934 
L 425 4581 
L 988 4581 
L 988 3934 
L 425 3934 
z
M 425 0 
L 425 3319 
L 988 3319 
L 988 0 
L 425 0 
z
" transform="scale(0.015625)"/>
       <path id="ArialMT-28" d="M 1497 -1347 
Q 1031 -759 709 28 
Q 388 816 388 1659 
Q 388 2403 628 3084 
Q 909 3875 1497 4659 
L 1900 4659 
Q 1522 4009 1400 3731 
Q 1209 3300 1100 2831 
Q 966 2247 966 1656 
Q 966 153 1900 -1347 
L 1497 -1347 
z
" transform="scale(0.015625)"/>
       <path id="ArialMT-64" d="M 2575 0 
L 2575 419 
Q 2259 -75 1647 -75 
Q 1250 -75 917 144 
Q 584 363 401 755 
Q 219 1147 219 1656 
Q 219 2153 384 2558 
Q 550 2963 881 3178 
Q 1213 3394 1622 3394 
Q 1922 3394 2156 3267 
Q 2391 3141 2538 2938 
L 2538 4581 
L 3097 4581 
L 3097 0 
L 2575 0 
z
M 797 1656 
Q 797 1019 1065 703 
Q 1334 388 1700 388 
Q 2069 388 2326 689 
Q 2584 991 2584 1609 
Q 2584 2291 2321 2609 
Q 2059 2928 1675 2928 
Q 1300 2928 1048 2622 
Q 797 2316 797 1656 
z
" transform="scale(0.015625)"/>
       <path id="ArialMT-61" d="M 2588 409 
Q 2275 144 1986 34 
Q 1697 -75 1366 -75 
Q 819 -75 525 192 
Q 231 459 231 875 
Q 231 1119 342 1320 
Q 453 1522 633 1644 
Q 813 1766 1038 1828 
Q 1203 1872 1538 1913 
Q 2219 1994 2541 2106 
Q 2544 2222 2544 2253 
Q 2544 2597 2384 2738 
Q 2169 2928 1744 2928 
Q 1347 2928 1158 2789 
Q 969 2650 878 2297 
L 328 2372 
Q 403 2725 575 2942 
Q 747 3159 1072 3276 
Q 1397 3394 1825 3394 
Q 2250 3394 2515 3294 
Q 2781 3194 2906 3042 
Q 3031 2891 3081 2659 
Q 3109 2516 3109 2141 
L 3109 1391 
Q 3109 606 3145 398 
Q 3181 191 3288 0 
L 2700 0 
Q 2613 175 2588 409 
z
M 2541 1666 
Q 2234 1541 1622 1453 
Q 1275 1403 1131 1340 
Q 988 1278 909 1158 
Q 831 1038 831 891 
Q 831 666 1001 516 
Q 1172 366 1500 366 
Q 1825 366 2078 508 
Q 2331 650 2450 897 
Q 2541 1088 2541 1459 
L 2541 1666 
z
" transform="scale(0.015625)"/>
       <path id="ArialMT-79" d="M 397 -1278 
L 334 -750 
Q 519 -800 656 -800 
Q 844 -800 956 -737 
Q 1069 -675 1141 -563 
Q 1194 -478 1313 -144 
Q 1328 -97 1363 -6 
L 103 3319 
L 709 3319 
L 1400 1397 
Q 1534 1031 1641 628 
Q 1738 1016 1872 1384 
L 2581 3319 
L 3144 3319 
L 1881 -56 
Q 1678 -603 1566 -809 
Q 1416 -1088 1222 -1217 
Q 1028 -1347 759 -1347 
Q 597 -1347 397 -1278 
z
" transform="scale(0.015625)"/>
       <path id="ArialMT-29" d="M 791 -1347 
L 388 -1347 
Q 1322 153 1322 1656 
Q 1322 2244 1188 2822 
Q 1081 3291 891 3722 
Q 769 4003 388 4659 
L 791 4659 
Q 1378 3875 1659 3084 
Q 1900 2403 1900 1659 
Q 1900 816 1576 28 
Q 1253 -759 791 -1347 
z
" transform="scale(0.015625)"/>
      </defs>
      <use xlink:href="#ArialMT-49"/>
      <use xlink:href="#ArialMT-6e" transform="translate(27.783203 0)"/>
      <use xlink:href="#ArialMT-63" transform="translate(83.398438 0)"/>
      <use xlink:href="#ArialMT-6f" transform="translate(133.398438 0)"/>
      <use xlink:href="#ArialMT-6d" transform="translate(189.013672 0)"/>
      <use xlink:href="#ArialMT-65" transform="translate(272.314453 0)"/>
      <use xlink:href="#ArialMT-20" transform="translate(327.929688 0)"/>
      <use xlink:href="#ArialMT-6f" transform="translate(355.712891 0)"/>
      <use xlink:href="#ArialMT-72" transform="translate(411.328125 0)"/>
      <use xlink:href="#ArialMT-20" transform="translate(444.628906 0)"/>
      <use xlink:href="#ArialMT-63" transform="translate(472.412109 0)"/>
      <use xlink:href="#ArialMT-6f" transform="translate(522.412109 0)"/>
      <use xlink:href="#ArialMT-6e" transform="translate(578.027344 0)"/>
      <use xlink:href="#ArialMT-73" transform="translate(633.642578 0)"/>
      <use xlink:href="#ArialMT-75" transform="translate(683.642578 0)"/>
      <use xlink:href="#ArialMT-6d" transform="translate(739.257812 0)"/>
      <use xlink:href="#ArialMT-70" transform="translate(822.558594 0)"/>
      <use xlink:href="#ArialMT-74" transform="translate(878.173828 0)"/>
      <use xlink:href="#ArialMT-69" transform="translate(905.957031 0)"/>
      <use xlink:href="#ArialMT-6f" transform="translate(928.173828 0)"/>
      <use xlink:href="#ArialMT-6e" transform="translate(983.789062 0)"/>
      <use xlink:href="#ArialMT-20" transform="translate(1039.404297 0)"/>
      <use xlink:href="#ArialMT-28" transform="translate(1067.1875 0)"/>
      <use xlink:href="#ArialMT-64" transform="translate(1100.488281 0)"/>
      <use xlink:href="#ArialMT-61" transform="translate(1156.103516 0)"/>
      <use xlink:href="#ArialMT-79" transform="translate(1211.71875 0)"/>
      <use xlink:href="#ArialMT-29" transform="translate(1261.71875 0)"/>
     </g>
    </g>
   </g>
   <g id="matplotlib.axis_2"/>
   <g id="FillBetweenPolyCollection_1">
    <defs>
     <path id="m736b7d60f8" d="M 224.883235 -59.513601 
L 224.883235 -59.4 
L 226.931554 -59.4 
L 228.979872 -59.4 
L 231.02819 -59.4 
L 233.076509 -59.4 
L 235.124827 -59.4 
L 237.173145 -59.4 
L 239.221464 -59.4 
L 241.269782 -59.4 
L 243.318101 -59.4 
L 245.366419 -59.4 
L 247.414737 -59.4 
L 249.463056 -59.4 
L 251.511374 -59.4 
L 253.559692 -59.4 
L 255.608011 -59.4 
L 257.656329 -59.4 
L 259.704647 -59.4 
L 261.752966 -59.4 
L 263.801284 -59.4 
L 265.849602 -59.4 
L 267.897921 -59.4 
L 269.946239 -59.4 
L 271.994557 -59.4 
L 274.042876 -59.4 
L 276.091194 -59.4 
L 278.139512 -59.4 
L 280.187831 -59.4 
L 282.236149 -59.4 
L 284.284467 -59.4 
L 286.332786 -59.4 
L 288.381104 -59.4 
L 290.429422 -59.4 
L 292.477741 -59.4 
L 294.526059 -59.4 
L 296.574377 -59.4 
L 298.622696 -59.4 
L 300.671014 -59.4 
L 302.719332 -59.4 
L 304.767651 -59.4 
L 306.815969 -59.4 
L 308.864287 -59.4 
L 310.912606 -59.4 
L 312.960924 -59.4 
L 315.009242 -59.4 
L 317.057561 -59.4 
L 319.105879 -59.4 
L 321.154197 -59.4 
L 323.202516 -59.4 
L 325.250834 -59.4 
L 327.299152 -59.4 
L 329.347471 -59.4 
L 331.395789 -59.4 
L 333.444107 -59.4 
L 335.492426 -59.4 
L 337.540744 -59.4 
L 339.589062 -59.4 
L 341.637381 -59.4 
L 343.685699 -59.4 
L 345.734017 -59.4 
L 347.782336 -59.4 
L 349.830654 -59.4 
L 351.878972 -59.4 
L 353.927291 -59.4 
L 355.975609 -59.4 
L 358.023927 -59.4 
L 360.072246 -59.4 
L 362.120564 -59.4 
L 364.168882 -59.4 
L 366.217201 -59.4 
L 368.265519 -59.4 
L 370.313837 -59.4 
L 372.362156 -59.4 
L 374.410474 -59.4 
L 376.458792 -59.4 
L 378.507111 -59.4 
L 380.555429 -59.4 
L 382.603747 -59.4 
L 384.652066 -59.4 
L 386.700384 -59.4 
L 388.748702 -59.4 
L 390.797021 -59.4 
L 392.845339 -59.4 
L 394.893657 -59.4 
L 396.941976 -59.4 
L 398.990294 -59.4 
L 401.038612 -59.4 
L 403.086931 -59.4 
L 405.135249 -59.4 
L 407.183567 -59.4 
L 409.231886 -59.4 
L 411.280204 -59.4 
L 413.328522 -59.4 
L 415.376841 -59.4 
L 417.425159 -59.4 
L 419.473477 -59.4 
L 421.521796 -59.4 
L 423.570114 -59.4 
L 425.618432 -59.4 
L 427.666751 -59.4 
L 429.715069 -59.4 
L 431.763387 -59.4 
L 433.811706 -59.4 
L 435.860024 -59.4 
L 437.908342 -59.4 
L 439.956661 -59.4 
L 442.004979 -59.4 
L 444.053297 -59.4 
L 446.101616 -59.4 
L 448.149934 -59.4 
L 450.198252 -59.4 
L 452.246571 -59.4 
L 454.294889 -59.4 
L 456.343207 -59.4 
L 458.391526 -59.4 
L 460.439844 -59.4 
L 462.488162 -59.4 
L 464.536481 -59.4 
L 466.584799 -59.4 
L 468.633117 -59.4 
L 470.681436 -59.4 
L 472.729754 -59.4 
L 474.778072 -59.4 
L 476.826391 -59.4 
L 478.874709 -59.4 
L 480.923027 -59.4 
L 482.971346 -59.4 
L 485.019664 -59.4 
L 487.067982 -59.4 
L 489.116301 -59.4 
L 491.164619 -59.4 
L 493.212937 -59.4 
L 495.261256 -59.4 
L 497.309574 -59.4 
L 499.357892 -59.4 
L 501.406211 -59.4 
L 503.454529 -59.4 
L 505.502847 -59.4 
L 507.551166 -59.4 
L 509.599484 -59.4 
L 511.647802 -59.4 
L 513.696121 -59.4 
L 515.744439 -59.4 
L 517.792757 -59.4 
L 519.841076 -59.4 
L 521.889394 -59.4 
L 523.937712 -59.4 
L 525.986031 -59.4 
L 528.034349 -59.4 
L 530.082667 -59.4 
L 532.130986 -59.4 
L 534.179304 -59.4 
L 536.227622 -59.4 
L 538.275941 -59.4 
L 540.324259 -59.4 
L 542.372577 -59.4 
L 544.420896 -59.4 
L 546.469214 -59.4 
L 548.517532 -59.4 
L 550.565851 -59.4 
L 552.614169 -59.4 
L 554.662487 -59.4 
L 556.710806 -59.4 
L 558.759124 -59.4 
L 560.807442 -59.4 
L 562.855761 -59.4 
L 564.904079 -59.4 
L 566.952397 -59.4 
L 569.000716 -59.4 
L 571.049034 -59.4 
L 573.097352 -59.4 
L 575.145671 -59.4 
L 577.193989 -59.4 
L 579.242307 -59.4 
L 581.290626 -59.4 
L 583.338944 -59.4 
L 585.387262 -59.4 
L 587.435581 -59.4 
L 589.483899 -59.4 
L 591.532217 -59.4 
L 593.580536 -59.4 
L 595.628854 -59.4 
L 597.677172 -59.4 
L 599.725491 -59.4 
L 601.773809 -59.4 
L 603.822127 -59.4 
L 605.870446 -59.4 
L 607.918764 -59.4 
L 609.967082 -59.4 
L 612.015401 -59.4 
L 614.063719 -59.4 
L 616.112037 -59.4 
L 618.160356 -59.4 
L 620.208674 -59.4 
L 622.256992 -59.4 
L 624.305311 -59.4 
L 626.353629 -59.4 
L 628.401947 -59.4 
L 630.450266 -59.4 
L 632.498584 -59.4 
L 632.498584 -59.512548 
L 632.498584 -59.512548 
L 630.450266 -59.552757 
L 628.401947 -59.605121 
L 626.353629 -59.672498 
L 624.305311 -59.758151 
L 622.256992 -59.865714 
L 620.208674 -59.999135 
L 618.160356 -60.162582 
L 616.112037 -60.360305 
L 614.063719 -60.596457 
L 612.015401 -60.874882 
L 609.967082 -61.198862 
L 607.918764 -61.570843 
L 605.870446 -61.992162 
L 603.822127 -62.462769 
L 601.773809 -62.981002 
L 599.725491 -63.543405 
L 597.677172 -64.144637 
L 595.628854 -64.777486 
L 593.580536 -65.433001 
L 591.532217 -66.10076 
L 589.483899 -66.769267 
L 587.435581 -67.426473 
L 585.387262 -68.060394 
L 583.338944 -68.659803 
L 581.290626 -69.21494 
L 579.242307 -69.718207 
L 577.193989 -70.164786 
L 575.145671 -70.55314 
L 573.097352 -70.885346 
L 571.049034 -71.167239 
L 569.000716 -71.408337 
L 566.952397 -71.621552 
L 564.904079 -71.822701 
L 562.855761 -72.029846 
L 560.807442 -72.262509 
L 558.759124 -72.540813 
L 556.710806 -72.884615 
L 554.662487 -73.312689 
L 552.614169 -73.842008 
L 550.565851 -74.487179 
L 548.517532 -75.260059 
L 546.469214 -76.169566 
L 544.420896 -77.221694 
L 542.372577 -78.419699 
L 540.324259 -79.764453 
L 538.275941 -81.254901 
L 536.227622 -82.8886 
L 534.179304 -84.662272 
L 532.130986 -86.572355 
L 530.082667 -88.615489 
L 528.034349 -90.788924 
L 525.986031 -93.090837 
L 523.937712 -95.520535 
L 521.889394 -98.078564 
L 519.841076 -100.766721 
L 517.792757 -103.588001 
L 515.744439 -106.546482 
L 513.696121 -109.647186 
L 511.647802 -112.895916 
L 509.599484 -116.299105 
L 507.551166 -119.863673 
L 505.502847 -123.596905 
L 503.454529 -127.506348 
L 501.406211 -131.599723 
L 499.357892 -135.884861 
L 497.309574 -140.369622 
L 495.261256 -145.06183 
L 493.212937 -149.96918 
L 491.164619 -155.099135 
L 489.116301 -160.45879 
L 487.067982 -166.054723 
L 485.019664 -171.892806 
L 482.971346 -177.978011 
L 480.923027 -184.314191 
L 478.874709 -190.903858 
L 476.826391 -197.747964 
L 474.778072 -204.845693 
L 472.729754 -212.194267 
L 470.681436 -219.788791 
L 468.633117 -227.622122 
L 466.584799 -235.684783 
L 464.536481 -243.964909 
L 462.488162 -252.448243 
L 460.439844 -261.118159 
L 458.391526 -269.955718 
L 456.343207 -278.939751 
L 454.294889 -288.046953 
L 452.246571 -297.251979 
L 450.198252 -306.527546 
L 448.149934 -315.84451 
L 446.101616 -325.171937 
L 444.053297 -334.47715 
L 442.004979 -343.725757 
L 439.956661 -352.881676 
L 437.908342 -361.907158 
L 435.860024 -370.762827 
L 433.811706 -379.407762 
L 431.763387 -387.79964 
L 429.715069 -395.894952 
L 427.666751 -403.649325 
L 425.618432 -411.01795 
L 423.570114 -417.956131 
L 421.521796 -424.419935 
L 419.473477 -430.366943 
L 417.425159 -435.757063 
L 415.376841 -440.553372 
L 413.328522 -444.722942 
L 411.280204 -448.237599 
L 409.231886 -451.074566 
L 407.183567 -453.216944 
L 405.135249 -454.653991 
L 403.086931 -455.381176 
L 401.038612 -455.4 
L 398.990294 -454.717584 
L 396.941976 -453.34606 
L 394.893657 -451.301794 
L 392.845339 -448.604501 
L 390.797021 -445.276317 
L 388.748702 -441.340884 
L 386.700384 -436.822524 
L 384.652066 -431.74555 
L 382.603747 -426.133759 
L 380.555429 -420.01014 
L 378.507111 -413.396802 
L 376.458792 -406.315117 
L 374.410474 -398.786042 
L 372.362156 -390.830598 
L 370.313837 -382.470431 
L 368.265519 -373.728419 
L 366.217201 -364.629253 
L 364.168882 -355.199945 
L 362.120564 -345.470219 
L 360.072246 -335.472747 
L 358.023927 -325.243214 
L 355.975609 -314.820215 
L 353.927291 -304.244969 
L 351.878972 -293.5609 
L 349.830654 -282.813084 
L 347.782336 -272.047617 
L 345.734017 -261.310929 
L 343.685699 -250.649082 
L 341.637381 -240.107085 
L 339.589062 -229.728257 
L 337.540744 -219.553652 
L 335.492426 -209.621571 
L 333.444107 -199.967161 
L 331.395789 -190.622106 
L 329.347471 -181.614409 
L 327.299152 -172.968249 
L 325.250834 -164.703908 
L 323.202516 -156.837747 
L 321.154197 -149.382223 
L 319.105879 -142.345933 
L 317.057561 -135.733665 
L 315.009242 -129.546468 
L 312.960924 -123.781723 
L 310.912606 -118.433226 
L 308.864287 -113.491296 
L 306.815969 -108.942909 
L 304.767651 -104.771896 
L 302.719332 -100.959187 
L 300.671014 -97.483148 
L 298.622696 -94.319995 
L 296.574377 -91.444297 
L 294.526059 -88.829556 
L 292.477741 -86.448846 
L 290.429422 -84.275488 
L 288.381104 -82.283733 
L 286.332786 -80.449398 
L 284.284467 -78.750443 
L 282.236149 -77.167434 
L 280.187831 -75.683875 
L 278.139512 -74.286382 
L 276.091194 -72.964701 
L 274.042876 -71.711567 
L 271.994557 -70.522417 
L 269.946239 -69.394994 
L 267.897921 -68.328869 
L 265.849602 -67.324915 
L 263.801284 -66.384779 
L 261.752966 -65.510382 
L 259.704647 -64.703482 
L 257.656329 -63.965312 
L 255.608011 -63.296327 
L 253.559692 -62.696034 
L 251.511374 -62.162939 
L 249.463056 -61.694561 
L 247.414737 -61.287534 
L 245.366419 -60.93775 
L 243.318101 -60.640541 
L 241.269782 -60.390871 
L 239.221464 -60.183535 
L 237.173145 -60.013331 
L 235.124827 -59.875217 
L 233.076509 -59.764435 
L 231.02819 -59.676601 
L 228.979872 -59.607765 
L 226.931554 -59.554438 
L 224.883235 -59.513601 
z
" style="stroke: #dd8452"/>
    </defs>
    <g clip-path="url(#pbfdb55bdcf)">
     <use xlink:href="#m736b7d60f8" x="0" y="540" style="fill: #dd8452; fill-opacity: 0.25; stroke: #dd8452"/>
    </g>
   </g>
   <g id="FillBetweenPolyCollection_2">
    <defs>
     <path id="me119c86c9f" d="M 173.045455 -59.47598 
L 173.045455 -59.4 
L 176.869118 -59.4 
L 180.692782 -59.4 
L 184.516446 -59.4 
L 188.34011 -59.4 
L 192.163773 -59.4 
L 195.987437 -59.4 
L 199.811101 -59.4 
L 203.634765 -59.4 
L 207.458429 -59.4 
L 211.282092 -59.4 
L 215.105756 -59.4 
L 218.92942 -59.4 
L 222.753084 -59.4 
L 226.576747 -59.4 
L 230.400411 -59.4 
L 234.224075 -59.4 
L 238.047739 -59.4 
L 241.871402 -59.4 
L 245.695066 -59.4 
L 249.51873 -59.4 
L 253.342394 -59.4 
L 257.166058 -59.4 
L 260.989721 -59.4 
L 264.813385 -59.4 
L 268.637049 -59.4 
L 272.460713 -59.4 
L 276.284376 -59.4 
L 280.10804 -59.4 
L 283.931704 -59.4 
L 287.755368 -59.4 
L 291.579032 -59.4 
L 295.402695 -59.4 
L 299.226359 -59.4 
L 303.050023 -59.4 
L 306.873687 -59.4 
L 310.69735 -59.4 
L 314.521014 -59.4 
L 318.344678 -59.4 
L 322.168342 -59.4 
L 325.992005 -59.4 
L 329.815669 -59.4 
L 333.639333 -59.4 
L 337.462997 -59.4 
L 341.286661 -59.4 
L 345.110324 -59.4 
L 348.933988 -59.4 
L 352.757652 -59.4 
L 356.581316 -59.4 
L 360.404979 -59.4 
L 364.228643 -59.4 
L 368.052307 -59.4 
L 371.875971 -59.4 
L 375.699635 -59.4 
L 379.523298 -59.4 
L 383.346962 -59.4 
L 387.170626 -59.4 
L 390.99429 -59.4 
L 394.817953 -59.4 
L 398.641617 -59.4 
L 402.465281 -59.4 
L 406.288945 -59.4 
L 410.112608 -59.4 
L 413.936272 -59.4 
L 417.759936 -59.4 
L 421.5836 -59.4 
L 425.407264 -59.4 
L 429.230927 -59.4 
L 433.054591 -59.4 
L 436.878255 -59.4 
L 440.701919 -59.4 
L 444.525582 -59.4 
L 448.349246 -59.4 
L 452.17291 -59.4 
L 455.996574 -59.4 
L 459.820238 -59.4 
L 463.643901 -59.4 
L 467.467565 -59.4 
L 471.291229 -59.4 
L 475.114893 -59.4 
L 478.938556 -59.4 
L 482.76222 -59.4 
L 486.585884 -59.4 
L 490.409548 -59.4 
L 494.233212 -59.4 
L 498.056875 -59.4 
L 501.880539 -59.4 
L 505.704203 -59.4 
L 509.527867 -59.4 
L 513.35153 -59.4 
L 517.175194 -59.4 
L 520.998858 -59.4 
L 524.822522 -59.4 
L 528.646185 -59.4 
L 532.469849 -59.4 
L 536.293513 -59.4 
L 540.117177 -59.4 
L 543.940841 -59.4 
L 547.764504 -59.4 
L 551.588168 -59.4 
L 555.411832 -59.4 
L 559.235496 -59.4 
L 563.059159 -59.4 
L 566.882823 -59.4 
L 570.706487 -59.4 
L 574.530151 -59.4 
L 578.353815 -59.4 
L 582.177478 -59.4 
L 586.001142 -59.4 
L 589.824806 -59.4 
L 593.64847 -59.4 
L 597.472133 -59.4 
L 601.295797 -59.4 
L 605.119461 -59.4 
L 608.943125 -59.4 
L 612.766788 -59.4 
L 616.590452 -59.4 
L 620.414116 -59.4 
L 624.23778 -59.4 
L 628.061444 -59.4 
L 631.885107 -59.4 
L 635.708771 -59.4 
L 639.532435 -59.4 
L 643.356099 -59.4 
L 647.179762 -59.4 
L 651.003426 -59.4 
L 654.82709 -59.4 
L 658.650754 -59.4 
L 662.474418 -59.4 
L 666.298081 -59.4 
L 670.121745 -59.4 
L 673.945409 -59.4 
L 677.769073 -59.4 
L 681.592736 -59.4 
L 685.4164 -59.4 
L 689.240064 -59.4 
L 693.063728 -59.4 
L 696.887392 -59.4 
L 700.711055 -59.4 
L 704.534719 -59.4 
L 708.358383 -59.4 
L 712.182047 -59.4 
L 716.00571 -59.4 
L 719.829374 -59.4 
L 723.653038 -59.4 
L 727.476702 -59.4 
L 731.300365 -59.4 
L 735.124029 -59.4 
L 738.947693 -59.4 
L 742.771357 -59.4 
L 746.595021 -59.4 
L 750.418684 -59.4 
L 754.242348 -59.4 
L 758.066012 -59.4 
L 761.889676 -59.4 
L 765.713339 -59.4 
L 769.537003 -59.4 
L 773.360667 -59.4 
L 777.184331 -59.4 
L 781.007995 -59.4 
L 784.831658 -59.4 
L 788.655322 -59.4 
L 792.478986 -59.4 
L 796.30265 -59.4 
L 800.126313 -59.4 
L 803.949977 -59.4 
L 807.773641 -59.4 
L 811.597305 -59.4 
L 815.420968 -59.4 
L 819.244632 -59.4 
L 823.068296 -59.4 
L 826.89196 -59.4 
L 830.715624 -59.4 
L 834.539287 -59.4 
L 838.362951 -59.4 
L 842.186615 -59.4 
L 846.010279 -59.4 
L 849.833942 -59.4 
L 853.657606 -59.4 
L 857.48127 -59.4 
L 861.304934 -59.4 
L 865.128598 -59.4 
L 868.952261 -59.4 
L 872.775925 -59.4 
L 876.599589 -59.4 
L 880.423253 -59.4 
L 884.246916 -59.4 
L 888.07058 -59.4 
L 891.894244 -59.4 
L 895.717908 -59.4 
L 899.541571 -59.4 
L 903.365235 -59.4 
L 907.188899 -59.4 
L 911.012563 -59.4 
L 914.836227 -59.4 
L 918.65989 -59.4 
L 922.483554 -59.4 
L 926.307218 -59.4 
L 930.130882 -59.4 
L 933.954545 -59.4 
L 933.954545 -59.476573 
L 933.954545 -59.476573 
L 930.130882 -59.51272 
L 926.307218 -59.563135 
L 922.483554 -59.632137 
L 918.65989 -59.724805 
L 914.836227 -59.84691 
L 911.012563 -60.00476 
L 907.188899 -60.204952 
L 903.365235 -60.454027 
L 899.541571 -60.758053 
L 895.717908 -61.122155 
L 891.894244 -61.550064 
L 888.07058 -62.043728 
L 884.246916 -62.603081 
L 880.423253 -63.226022 
L 876.599589 -63.908687 
L 872.775925 -64.646023 
L 868.952261 -65.432679 
L 865.128598 -66.264152 
L 861.304934 -67.138112 
L 857.48127 -68.055762 
L 853.657606 -69.023097 
L 849.833942 -70.051905 
L 846.010279 -71.160384 
L 842.186615 -72.373281 
L 838.362951 -73.721532 
L 834.539287 -75.24142 
L 830.715624 -76.973351 
L 826.89196 -78.960375 
L 823.068296 -81.246613 
L 819.244632 -83.875737 
L 815.420968 -86.889633 
L 811.597305 -90.327345 
L 807.773641 -94.224314 
L 803.949977 -98.611899 
L 800.126313 -103.517128 
L 796.30265 -108.962566 
L 792.478986 -114.966226 
L 788.655322 -121.541413 
L 784.831658 -128.696443 
L 781.007995 -136.43421 
L 777.184331 -144.751586 
L 773.360667 -153.638702 
L 769.537003 -163.078162 
L 765.713339 -173.044251 
L 761.889676 -183.50223 
L 758.066012 -194.40777 
L 754.242348 -205.706614 
L 750.418684 -217.334484 
L 746.595021 -229.217304 
L 742.771357 -241.27172 
L 738.947693 -253.405952 
L 735.124029 -265.520944 
L 731.300365 -277.511782 
L 727.476702 -289.269356 
L 723.653038 -300.682189 
L 719.829374 -311.638385 
L 716.00571 -322.02762 
L 712.182047 -331.743115 
L 708.358383 -340.683516 
L 704.534719 -348.754647 
L 700.711055 -355.871065 
L 696.887392 -361.957428 
L 693.063728 -366.949632 
L 689.240064 -370.795732 
L 685.4164 -373.456661 
L 681.592736 -374.906733 
L 677.769073 -375.133975 
L 673.945409 -374.140246 
L 670.121745 -371.941179 
L 666.298081 -368.565902 
L 662.474418 -364.056538 
L 658.650754 -358.46747 
L 654.82709 -351.864359 
L 651.003426 -344.322919 
L 647.179762 -335.927487 
L 643.356099 -326.769414 
L 639.532435 -316.945347 
L 635.708771 -306.555458 
L 631.885107 -295.701698 
L 628.061444 -284.48615 
L 624.23778 -273.009516 
L 620.414116 -261.369793 
L 616.590452 -249.661151 
L 612.766788 -237.973003 
L 608.943125 -226.389259 
L 605.119461 -214.987729 
L 601.295797 -203.839639 
L 597.472133 -193.009236 
L 593.64847 -182.553449 
L 589.824806 -172.521586 
L 586.001142 -162.955078 
L 582.177478 -153.887266 
L 578.353815 -145.343249 
L 574.530151 -137.339827 
L 570.706487 -129.885563 
L 566.882823 -122.981006 
L 563.059159 -116.619098 
L 559.235496 -110.785796 
L 555.411832 -105.460922 
L 551.588168 -100.61924 
L 547.764504 -96.231728 
L 543.940841 -92.267001 
L 540.117177 -88.692813 
L 536.293513 -85.477523 
L 532.469849 -82.59144 
L 528.646185 -80.007903 
L 524.822522 -77.704009 
L 520.998858 -75.660904 
L 517.175194 -73.863601 
L 513.35153 -72.300329 
L 509.527867 -70.961488 
L 505.704203 -69.838314 
L 501.880539 -68.921421 
L 498.056875 -68.199387 
L 494.233212 -67.657581 
L 490.409548 -67.277374 
L 486.585884 -67.035867 
L 482.76222 -66.906192 
L 478.938556 -66.858382 
L 475.114893 -66.860718 
L 471.291229 -66.881441 
L 467.467565 -66.890612 
L 463.643901 -66.861944 
L 459.820238 -66.774383 
L 455.996574 -66.613268 
L 452.17291 -66.37096 
L 448.349246 -66.046867 
L 444.525582 -65.646895 
L 440.701919 -65.182398 
L 436.878255 -64.66876 
L 433.054591 -64.123783 
L 429.230927 -63.566051 
L 425.407264 -63.013426 
L 421.5836 -62.481808 
L 417.759936 -61.984252 
L 413.936272 -61.53045 
L 410.112608 -61.12659 
L 406.288945 -60.775535 
L 402.465281 -60.477229 
L 398.641617 -60.229274 
L 394.817953 -60.027563 
L 390.99429 -59.866914 
L 387.170626 -59.741642 
L 383.346962 -59.646033 
L 379.523298 -59.574709 
L 375.699635 -59.522882 
L 371.875971 -59.486513 
L 368.052307 -59.462391 
L 364.228643 -59.448166 
L 360.404979 -59.442351 
L 356.581316 -59.444314 
L 352.757652 -59.454267 
L 348.933988 -59.473275 
L 345.110324 -59.503258 
L 341.286661 -59.547001 
L 337.462997 -59.608134 
L 333.639333 -59.691078 
L 329.815669 -59.800931 
L 325.992005 -59.943253 
L 322.168342 -60.123758 
L 318.344678 -60.347884 
L 314.521014 -60.620261 
L 310.69735 -60.944083 
L 306.873687 -61.320451 
L 303.050023 -61.747728 
L 299.226359 -62.221003 
L 295.402695 -62.731731 
L 291.579032 -63.267648 
L 287.755368 -63.813005 
L 283.931704 -64.349169 
L 280.10804 -64.855575 
L 276.284376 -65.310976 
L 272.460713 -65.694893 
L 268.637049 -65.989127 
L 264.813385 -66.17919 
L 260.989721 -66.255484 
L 257.166058 -66.214106 
L 253.342394 -66.057177 
L 249.51873 -65.792661 
L 245.695066 -65.433699 
L 241.871402 -64.997525 
L 238.047739 -64.504096 
L 234.224075 -63.974589 
L 230.400411 -63.429914 
L 226.576747 -62.889392 
L 222.753084 -62.369711 
L 218.92942 -61.884215 
L 215.105756 -61.442558 
L 211.282092 -61.050707 
L 207.458429 -60.711222 
L 203.634765 -60.423747 
L 199.811101 -60.185633 
L 195.987437 -59.992594 
L 192.163773 -59.839344 
L 188.34011 -59.720157 
L 184.516446 -59.629315 
L 180.692782 -59.56144 
L 176.869118 -59.511712 
L 173.045455 -59.47598 
z
" style="stroke: #4c72b0"/>
    </defs>
    <g clip-path="url(#pbfdb55bdcf)">
     <use xlink:href="#me119c86c9f" x="0" y="540" style="fill: #4c72b0; fill-opacity: 0.25; stroke: #4c72b0"/>
    </g>
   </g>
   <g id="line2d_42">
    <path d="M 419.099549 480.6 
L 419.099549 64.8 
" clip-path="url(#pbfdb55bdcf)" style="fill: none; stroke-dasharray: 2.96,1.28; stroke-dashoffset: 0; stroke: #d3d3d3; stroke-width: 0.8"/>
   </g>
   <g id="line2d_43">
    <path d="M 586.814675 480.6 
L 586.814675 64.8 
" clip-path="url(#pbfdb55bdcf)" style="fill: none; stroke-dasharray: 2.96,1.28; stroke-dashoffset: 0; stroke: #d3d3d3; stroke-width: 0.8"/>
   </g>
   <g id="line2d_44">
    <path d="M 522.147238 480.6 
L 522.147238 64.8 
" clip-path="url(#pbfdb55bdcf)" style="fill: none; stroke-dasharray: 2.96,1.28; stroke-dashoffset: 0; stroke: #d3d3d3; stroke-width: 0.8"/>
   </g>
   <g id="text_12">
    <!-- International Poverty Line: $2.15 -->
    <g style="fill: #808080" transform="translate(425.353299 184.13675) rotate(-90) scale(0.08 -0.08)">
     <defs>
      <path id="ArialMT-6c" d="M 409 0 
L 409 4581 
L 972 4581 
L 972 0 
L 409 0 
z
" transform="scale(0.015625)"/>
      <path id="ArialMT-50" d="M 494 0 
L 494 4581 
L 2222 4581 
Q 2678 4581 2919 4538 
Q 3256 4481 3484 4323 
Q 3713 4166 3852 3881 
Q 3991 3597 3991 3256 
Q 3991 2672 3619 2267 
Q 3247 1863 2275 1863 
L 1100 1863 
L 1100 0 
L 494 0 
z
M 1100 2403 
L 2284 2403 
Q 2872 2403 3119 2622 
Q 3366 2841 3366 3238 
Q 3366 3525 3220 3729 
Q 3075 3934 2838 4000 
Q 2684 4041 2272 4041 
L 1100 4041 
L 1100 2403 
z
" transform="scale(0.015625)"/>
      <path id="ArialMT-76" d="M 1344 0 
L 81 3319 
L 675 3319 
L 1388 1331 
Q 1503 1009 1600 663 
Q 1675 925 1809 1294 
L 2547 3319 
L 3125 3319 
L 1869 0 
L 1344 0 
z
" transform="scale(0.015625)"/>
      <path id="ArialMT-4c" d="M 469 0 
L 469 4581 
L 1075 4581 
L 1075 541 
L 3331 541 
L 3331 0 
L 469 0 
z
" transform="scale(0.015625)"/>
      <path id="ArialMT-3a" d="M 578 2678 
L 578 3319 
L 1219 3319 
L 1219 2678 
L 578 2678 
z
M 578 0 
L 578 641 
L 1219 641 
L 1219 0 
L 578 0 
z
" transform="scale(0.015625)"/>
      <path id="ArialMT-24" d="M 1594 -659 
L 1594 -97 
Q 1172 -44 908 92 
Q 644 228 451 531 
Q 259 834 228 1272 
L 794 1378 
Q 859 925 1025 713 
Q 1263 413 1594 378 
L 1594 2169 
Q 1247 2234 884 2438 
Q 616 2588 470 2853 
Q 325 3119 325 3456 
Q 325 4056 750 4428 
Q 1034 4678 1594 4734 
L 1594 5003 
L 1925 5003 
L 1925 4734 
Q 2416 4688 2703 4447 
Q 3072 4141 3147 3606 
L 2566 3519 
Q 2516 3850 2358 4026 
Q 2200 4203 1925 4259 
L 1925 2638 
Q 2350 2531 2488 2472 
Q 2750 2356 2915 2190 
Q 3081 2025 3170 1797 
Q 3259 1569 3259 1303 
Q 3259 719 2887 328 
Q 2516 -63 1925 -91 
L 1925 -659 
L 1594 -659 
z
M 1594 4266 
Q 1266 4216 1077 4003 
Q 888 3791 888 3500 
Q 888 3213 1048 3019 
Q 1209 2825 1594 2709 
L 1594 4266 
z
M 1925 378 
Q 2253 419 2467 662 
Q 2681 906 2681 1266 
Q 2681 1572 2529 1758 
Q 2378 1944 1925 2091 
L 1925 378 
z
" transform="scale(0.015625)"/>
      <path id="ArialMT-2e" d="M 581 0 
L 581 641 
L 1222 641 
L 1222 0 
L 581 0 
z
" transform="scale(0.015625)"/>
     </defs>
     <use xlink:href="#ArialMT-49"/>
     <use xlink:href="#ArialMT-6e" transform="translate(27.783203 0)"/>
     <use xlink:href="#ArialMT-74" transform="translate(83.398438 0)"/>
     <use xlink:href="#ArialMT-65" transform="translate(111.181641 0)"/>
     <use xlink:href="#ArialMT-72" transform="translate(166.796875 0)"/>
     <use xlink:href="#ArialMT-6e" transform="translate(200.097656 0)"/>
     <use xlink:href="#ArialMT-61" transform="translate(255.712891 0)"/>
     <use xlink:href="#ArialMT-74" transform="translate(311.328125 0)"/>
     <use xlink:href="#ArialMT-69" transform="translate(339.111328 0)"/>
     <use xlink:href="#ArialMT-6f" transform="translate(361.328125 0)"/>
     <use xlink:href="#ArialMT-6e" transform="translate(416.943359 0)"/>
     <use xlink:href="#ArialMT-61" transform="translate(472.558594 0)"/>
     <use xlink:href="#ArialMT-6c" transform="translate(528.173828 0)"/>
     <use xlink:href="#ArialMT-20" transform="translate(550.390625 0)"/>
     <use xlink:href="#ArialMT-50" transform="translate(578.173828 0)"/>
     <use xlink:href="#ArialMT-6f" transform="translate(644.873047 0)"/>
     <use xlink:href="#ArialMT-76" transform="translate(700.488281 0)"/>
     <use xlink:href="#ArialMT-65" transform="translate(750.488281 0)"/>
     <use xlink:href="#ArialMT-72" transform="translate(806.103516 0)"/>
     <use xlink:href="#ArialMT-74" transform="translate(839.404297 0)"/>
     <use xlink:href="#ArialMT-79" transform="translate(867.1875 0)"/>
     <use xlink:href="#ArialMT-20" transform="translate(917.1875 0)"/>
     <use xlink:href="#ArialMT-4c" transform="translate(944.970703 0)"/>
     <use xlink:href="#ArialMT-69" transform="translate(1000.585938 0)"/>
     <use xlink:href="#ArialMT-6e" transform="translate(1022.802734 0)"/>
     <use xlink:href="#ArialMT-65" transform="translate(1078.417969 0)"/>
     <use xlink:href="#ArialMT-3a" transform="translate(1134.033203 0)"/>
     <use xlink:href="#ArialMT-20" transform="translate(1161.816406 0)"/>
     <use xlink:href="#ArialMT-24" transform="translate(1189.599609 0)"/>
     <use xlink:href="#ArialMT-32" transform="translate(1245.214844 0)"/>
     <use xlink:href="#ArialMT-2e" transform="translate(1300.830078 0)"/>
     <use xlink:href="#ArialMT-31" transform="translate(1328.613281 0)"/>
     <use xlink:href="#ArialMT-35" transform="translate(1384.228516 0)"/>
    </g>
   </g>
   <g id="text_13">
    <!-- World mean: $19.18 -->
    <g style="fill: #808080" transform="translate(592.540925 140.85175) rotate(-90) scale(0.08 -0.08)">
     <defs>
      <path id="ArialMT-57" d="M 1294 0 
L 78 4581 
L 700 4581 
L 1397 1578 
Q 1509 1106 1591 641 
Q 1766 1375 1797 1488 
L 2669 4581 
L 3400 4581 
L 4056 2263 
Q 4303 1400 4413 641 
Q 4500 1075 4641 1638 
L 5359 4581 
L 5969 4581 
L 4713 0 
L 4128 0 
L 3163 3491 
Q 3041 3928 3019 4028 
Q 2947 3713 2884 3491 
L 1913 0 
L 1294 0 
z
" transform="scale(0.015625)"/>
      <path id="ArialMT-39" d="M 350 1059 
L 891 1109 
Q 959 728 1153 556 
Q 1347 384 1650 384 
Q 1909 384 2104 503 
Q 2300 622 2425 820 
Q 2550 1019 2634 1356 
Q 2719 1694 2719 2044 
Q 2719 2081 2716 2156 
Q 2547 1888 2255 1720 
Q 1963 1553 1622 1553 
Q 1053 1553 659 1965 
Q 266 2378 266 3053 
Q 266 3750 677 4175 
Q 1088 4600 1706 4600 
Q 2153 4600 2523 4359 
Q 2894 4119 3086 3673 
Q 3278 3228 3278 2384 
Q 3278 1506 3087 986 
Q 2897 466 2520 194 
Q 2144 -78 1638 -78 
Q 1100 -78 759 220 
Q 419 519 350 1059 
z
M 2653 3081 
Q 2653 3566 2395 3850 
Q 2138 4134 1775 4134 
Q 1400 4134 1122 3828 
Q 844 3522 844 3034 
Q 844 2597 1108 2323 
Q 1372 2050 1759 2050 
Q 2150 2050 2401 2323 
Q 2653 2597 2653 3081 
z
" transform="scale(0.015625)"/>
      <path id="ArialMT-38" d="M 1131 2484 
Q 781 2613 612 2850 
Q 444 3088 444 3419 
Q 444 3919 803 4259 
Q 1163 4600 1759 4600 
Q 2359 4600 2725 4251 
Q 3091 3903 3091 3403 
Q 3091 3084 2923 2848 
Q 2756 2613 2416 2484 
Q 2838 2347 3058 2040 
Q 3278 1734 3278 1309 
Q 3278 722 2862 322 
Q 2447 -78 1769 -78 
Q 1091 -78 675 323 
Q 259 725 259 1325 
Q 259 1772 486 2073 
Q 713 2375 1131 2484 
z
M 1019 3438 
Q 1019 3113 1228 2906 
Q 1438 2700 1772 2700 
Q 2097 2700 2305 2904 
Q 2513 3109 2513 3406 
Q 2513 3716 2298 3927 
Q 2084 4138 1766 4138 
Q 1444 4138 1231 3931 
Q 1019 3725 1019 3438 
z
M 838 1322 
Q 838 1081 952 856 
Q 1066 631 1291 507 
Q 1516 384 1775 384 
Q 2178 384 2440 643 
Q 2703 903 2703 1303 
Q 2703 1709 2433 1975 
Q 2163 2241 1756 2241 
Q 1359 2241 1098 1978 
Q 838 1716 838 1322 
z
" transform="scale(0.015625)"/>
     </defs>
     <use xlink:href="#ArialMT-57"/>
     <use xlink:href="#ArialMT-6f" transform="translate(92.634766 0)"/>
     <use xlink:href="#ArialMT-72" transform="translate(148.25 0)"/>
     <use xlink:href="#ArialMT-6c" transform="translate(181.550781 0)"/>
     <use xlink:href="#ArialMT-64" transform="translate(203.767578 0)"/>
     <use xlink:href="#ArialMT-20" transform="translate(259.382812 0)"/>
     <use xlink:href="#ArialMT-6d" transform="translate(287.166016 0)"/>
     <use xlink:href="#ArialMT-65" transform="translate(370.466797 0)"/>
     <use xlink:href="#ArialMT-61" transform="translate(426.082031 0)"/>
     <use xlink:href="#ArialMT-6e" transform="translate(481.697266 0)"/>
     <use xlink:href="#ArialMT-3a" transform="translate(537.3125 0)"/>
     <use xlink:href="#ArialMT-20" transform="translate(565.095703 0)"/>
     <use xlink:href="#ArialMT-24" transform="translate(592.878906 0)"/>
     <use xlink:href="#ArialMT-31" transform="translate(648.494141 0)"/>
     <use xlink:href="#ArialMT-39" transform="translate(704.109375 0)"/>
     <use xlink:href="#ArialMT-2e" transform="translate(759.724609 0)"/>
     <use xlink:href="#ArialMT-31" transform="translate(787.507812 0)"/>
     <use xlink:href="#ArialMT-38" transform="translate(843.123047 0)"/>
    </g>
   </g>
   <g id="text_14">
    <!-- World median: $8.25 -->
    <g style="fill: #808080" transform="translate(527.873488 142.62925) rotate(-90) scale(0.08 -0.08)">
     <use xlink:href="#ArialMT-57"/>
     <use xlink:href="#ArialMT-6f" transform="translate(92.634766 0)"/>
     <use xlink:href="#ArialMT-72" transform="translate(148.25 0)"/>
     <use xlink:href="#ArialMT-6c" transform="translate(181.550781 0)"/>
     <use xlink:href="#ArialMT-64" transform="translate(203.767578 0)"/>
     <use xlink:href="#ArialMT-20" transform="translate(259.382812 0)"/>
     <use xlink:href="#ArialMT-6d" transform="translate(287.166016 0)"/>
     <use xlink:href="#ArialMT-65" transform="translate(370.466797 0)"/>
     <use xlink:href="#ArialMT-64" transform="translate(426.082031 0)"/>
     <use xlink:href="#ArialMT-69" transform="translate(481.697266 0)"/>
     <use xlink:href="#ArialMT-61" transform="translate(503.914062 0)"/>
     <use xlink:href="#ArialMT-6e" transform="translate(559.529297 0)"/>
     <use xlink:href="#ArialMT-3a" transform="translate(615.144531 0)"/>
     <use xlink:href="#ArialMT-20" transform="translate(642.927734 0)"/>
     <use xlink:href="#ArialMT-24" transform="translate(670.710938 0)"/>
     <use xlink:href="#ArialMT-38" transform="translate(726.326172 0)"/>
     <use xlink:href="#ArialMT-2e" transform="translate(781.941406 0)"/>
     <use xlink:href="#ArialMT-32" transform="translate(809.724609 0)"/>
     <use xlink:href="#ArialMT-35" transform="translate(865.339844 0)"/>
    </g>
   </g>
   <g id="text_15">
    <!-- United States (2022) -->
    <g transform="translate(659.920572 478.495313) scale(0.1 -0.1)">
     <defs>
      <path id="ArialMT-55" d="M 3500 4581 
L 4106 4581 
L 4106 1934 
Q 4106 1244 3950 837 
Q 3794 431 3386 176 
Q 2978 -78 2316 -78 
Q 1672 -78 1262 144 
Q 853 366 678 786 
Q 503 1206 503 1934 
L 503 4581 
L 1109 4581 
L 1109 1938 
Q 1109 1341 1220 1058 
Q 1331 775 1601 622 
Q 1872 469 2263 469 
Q 2931 469 3215 772 
Q 3500 1075 3500 1938 
L 3500 4581 
z
" transform="scale(0.015625)"/>
      <path id="ArialMT-53" d="M 288 1472 
L 859 1522 
Q 900 1178 1048 958 
Q 1197 738 1509 602 
Q 1822 466 2213 466 
Q 2559 466 2825 569 
Q 3091 672 3220 851 
Q 3350 1031 3350 1244 
Q 3350 1459 3225 1620 
Q 3100 1781 2813 1891 
Q 2628 1963 1997 2114 
Q 1366 2266 1113 2400 
Q 784 2572 623 2826 
Q 463 3081 463 3397 
Q 463 3744 659 4045 
Q 856 4347 1234 4503 
Q 1613 4659 2075 4659 
Q 2584 4659 2973 4495 
Q 3363 4331 3572 4012 
Q 3781 3694 3797 3291 
L 3216 3247 
Q 3169 3681 2898 3903 
Q 2628 4125 2100 4125 
Q 1550 4125 1298 3923 
Q 1047 3722 1047 3438 
Q 1047 3191 1225 3031 
Q 1400 2872 2139 2705 
Q 2878 2538 3153 2413 
Q 3553 2228 3743 1945 
Q 3934 1663 3934 1294 
Q 3934 928 3725 604 
Q 3516 281 3123 101 
Q 2731 -78 2241 -78 
Q 1619 -78 1198 103 
Q 778 284 539 648 
Q 300 1013 288 1472 
z
" transform="scale(0.015625)"/>
     </defs>
     <use xlink:href="#ArialMT-55"/>
     <use xlink:href="#ArialMT-6e" transform="translate(72.216797 0)"/>
     <use xlink:href="#ArialMT-69" transform="translate(127.832031 0)"/>
     <use xlink:href="#ArialMT-74" transform="translate(150.048828 0)"/>
     <use xlink:href="#ArialMT-65" transform="translate(177.832031 0)"/>
     <use xlink:href="#ArialMT-64" transform="translate(233.447266 0)"/>
     <use xlink:href="#ArialMT-20" transform="translate(289.0625 0)"/>
     <use xlink:href="#ArialMT-53" transform="translate(316.845703 0)"/>
     <use xlink:href="#ArialMT-74" transform="translate(383.544922 0)"/>
     <use xlink:href="#ArialMT-61" transform="translate(411.328125 0)"/>
     <use xlink:href="#ArialMT-74" transform="translate(466.943359 0)"/>
     <use xlink:href="#ArialMT-65" transform="translate(494.726562 0)"/>
     <use xlink:href="#ArialMT-73" transform="translate(550.341797 0)"/>
     <use xlink:href="#ArialMT-20" transform="translate(600.341797 0)"/>
     <use xlink:href="#ArialMT-28" transform="translate(628.125 0)"/>
     <use xlink:href="#ArialMT-32" transform="translate(661.425781 0)"/>
     <use xlink:href="#ArialMT-30" transform="translate(717.041016 0)"/>
     <use xlink:href="#ArialMT-32" transform="translate(772.65625 0)"/>
     <use xlink:href="#ArialMT-32" transform="translate(828.271484 0)"/>
     <use xlink:href="#ArialMT-29" transform="translate(883.886719 0)"/>
    </g>
   </g>
   <g id="text_16">
    <!-- Burundi (2020) -->
    <g transform="translate(388.190637 478.495313) scale(0.1 -0.1)">
     <defs>
      <path id="ArialMT-42" d="M 469 0 
L 469 4581 
L 2188 4581 
Q 2713 4581 3030 4442 
Q 3347 4303 3526 4014 
Q 3706 3725 3706 3409 
Q 3706 3116 3547 2856 
Q 3388 2597 3066 2438 
Q 3481 2316 3704 2022 
Q 3928 1728 3928 1328 
Q 3928 1006 3792 729 
Q 3656 453 3456 303 
Q 3256 153 2954 76 
Q 2653 0 2216 0 
L 469 0 
z
M 1075 2656 
L 2066 2656 
Q 2469 2656 2644 2709 
Q 2875 2778 2992 2937 
Q 3109 3097 3109 3338 
Q 3109 3566 3000 3739 
Q 2891 3913 2687 3977 
Q 2484 4041 1991 4041 
L 1075 4041 
L 1075 2656 
z
M 1075 541 
L 2216 541 
Q 2509 541 2628 563 
Q 2838 600 2978 687 
Q 3119 775 3209 942 
Q 3300 1109 3300 1328 
Q 3300 1584 3169 1773 
Q 3038 1963 2805 2039 
Q 2572 2116 2134 2116 
L 1075 2116 
L 1075 541 
z
" transform="scale(0.015625)"/>
     </defs>
     <use xlink:href="#ArialMT-42"/>
     <use xlink:href="#ArialMT-75" transform="translate(66.699219 0)"/>
     <use xlink:href="#ArialMT-72" transform="translate(122.314453 0)"/>
     <use xlink:href="#ArialMT-75" transform="translate(155.615234 0)"/>
     <use xlink:href="#ArialMT-6e" transform="translate(211.230469 0)"/>
     <use xlink:href="#ArialMT-64" transform="translate(266.845703 0)"/>
     <use xlink:href="#ArialMT-69" transform="translate(322.460938 0)"/>
     <use xlink:href="#ArialMT-20" transform="translate(344.677734 0)"/>
     <use xlink:href="#ArialMT-28" transform="translate(372.460938 0)"/>
     <use xlink:href="#ArialMT-32" transform="translate(405.761719 0)"/>
     <use xlink:href="#ArialMT-30" transform="translate(461.376953 0)"/>
     <use xlink:href="#ArialMT-32" transform="translate(516.992188 0)"/>
     <use xlink:href="#ArialMT-30" transform="translate(572.607422 0)"/>
     <use xlink:href="#ArialMT-29" transform="translate(628.222656 0)"/>
    </g>
   </g>
  </g>
 </g>
 <defs>
  <clipPath id="pbfdb55bdcf">
   <rect x="135" y="64.8" width="837" height="415.8"/>
  </clipPath>
 </defs>
</svg>
