<?xml version="1.0" encoding="utf-8" standalone="no"?>
<!DOCTYPE svg PUBLIC "-//W3C//DTD SVG 1.1//EN"
  "http://www.w3.org/Graphics/SVG/1.1/DTD/svg11.dtd">
<svg xmlns:xlink="http://www.w3.org/1999/xlink" width="862.032304pt" height="265.689687pt" viewBox="0 0 862.032304 265.689687" xmlns="http://www.w3.org/2000/svg" version="1.1">
 <metadata>
  <rdf:RDF xmlns:dc="http://purl.org/dc/elements/1.1/" xmlns:cc="http://creativecommons.org/ns#" xmlns:rdf="http://www.w3.org/1999/02/22-rdf-syntax-ns#">
   <cc:Work>
    <dc:type rdf:resource="http://purl.org/dc/dcmitype/StillImage"/>
    <dc:date>2025-08-21T11:29:11.133518</dc:date>
    <dc:format>image/svg+xml</dc:format>
    <dc:creator>
     <cc:Agent>
      <dc:title>Matplotlib v3.10.1, https://matplotlib.org/</dc:title>
     </cc:Agent>
    </dc:creator>
   </cc:Work>
  </rdf:RDF>
 </metadata>
 <defs>
  <style type="text/css">*{stroke-linejoin: round; stroke-linecap: butt}</style>
 </defs>
 <g id="figure_1">
  <g id="patch_1">
   <path d="M 0 265.689687 
L 862.032304 265.689687 
L 862.032304 0 
L 0 0 
z
" style="fill: #ffffff"/>
  </g>
  <g id="axes_1">
   <g id="patch_2">
    <path d="M 7.2 228.96 
L 844.2 228.96 
L 844.2 7.2 
L 7.2 7.2 
z
" style="fill: #ffffff"/>
   </g>
   <g id="matplotlib.axis_1">
    <g id="xtick_1">
     <g id="line2d_1">
      <defs>
       <path id="me0af591fad" d="M 0 0 
L 0 3.5 
" style="stroke: #262626; stroke-width: 0.8"/>
      </defs>
      <g>
       <use xlink:href="#me0af591fad" x="155.458941" y="228.96" style="fill: #262626; stroke: #262626; stroke-width: 0.8"/>
      </g>
     </g>
     <g id="text_1">
      <text style="font-size: 10px; font-family: 'Arial', 'DejaVu Sans', 'Liberation Sans', 'Bitstream Vera Sans', sans-serif; text-anchor: middle; fill: #262626" x="155.458941" y="243.117812" transform="rotate(-0 155.458941 243.117812)">1</text>
     </g>
    </g>
    <g id="xtick_2">
     <g id="line2d_2">
      <g>
       <use xlink:href="#me0af591fad" x="224.520388" y="228.96" style="fill: #262626; stroke: #262626; stroke-width: 0.8"/>
      </g>
     </g>
     <g id="text_2">
      <text style="font-size: 10px; font-family: 'Arial', 'DejaVu Sans', 'Liberation Sans', 'Bitstream Vera Sans', sans-serif; text-anchor: middle; fill: #262626" x="224.520388" y="243.117812" transform="rotate(-0 224.520388 243.117812)">2</text>
     </g>
    </g>
    <g id="xtick_3">
     <g id="line2d_3">
      <g>
       <use xlink:href="#me0af591fad" x="315.814656" y="228.96" style="fill: #262626; stroke: #262626; stroke-width: 0.8"/>
      </g>
     </g>
     <g id="text_3">
      <text style="font-size: 10px; font-family: 'Arial', 'DejaVu Sans', 'Liberation Sans', 'Bitstream Vera Sans', sans-serif; text-anchor: middle; fill: #262626" x="315.814656" y="243.117812" transform="rotate(-0 315.814656 243.117812)">5</text>
     </g>
    </g>
    <g id="xtick_4">
     <g id="line2d_4">
      <g>
       <use xlink:href="#me0af591fad" x="384.876104" y="228.96" style="fill: #262626; stroke: #262626; stroke-width: 0.8"/>
      </g>
     </g>
     <g id="text_4">
      <text style="font-size: 10px; font-family: 'Arial', 'DejaVu Sans', 'Liberation Sans', 'Bitstream Vera Sans', sans-serif; text-anchor: middle; fill: #262626" x="384.876104" y="243.117812" transform="rotate(-0 384.876104 243.117812)">10</text>
     </g>
    </g>
    <g id="xtick_5">
     <g id="line2d_5">
      <g>
       <use xlink:href="#me0af591fad" x="453.937551" y="228.96" style="fill: #262626; stroke: #262626; stroke-width: 0.8"/>
      </g>
     </g>
     <g id="text_5">
      <text style="font-size: 10px; font-family: 'Arial', 'DejaVu Sans', 'Liberation Sans', 'Bitstream Vera Sans', sans-serif; text-anchor: middle; fill: #262626" x="453.937551" y="243.117812" transform="rotate(-0 453.937551 243.117812)">20</text>
     </g>
    </g>
    <g id="xtick_6">
     <g id="line2d_6">
      <g>
       <use xlink:href="#me0af591fad" x="545.231819" y="228.96" style="fill: #262626; stroke: #262626; stroke-width: 0.8"/>
      </g>
     </g>
     <g id="text_6">
      <text style="font-size: 10px; font-family: 'Arial', 'DejaVu Sans', 'Liberation Sans', 'Bitstream Vera Sans', sans-serif; text-anchor: middle; fill: #262626" x="545.231819" y="243.117812" transform="rotate(-0 545.231819 243.117812)">50</text>
     </g>
    </g>
    <g id="xtick_7">
     <g id="line2d_7">
      <g>
       <use xlink:href="#me0af591fad" x="614.293266" y="228.96" style="fill: #262626; stroke: #262626; stroke-width: 0.8"/>
      </g>
     </g>
     <g id="text_7">
      <text style="font-size: 10px; font-family: 'Arial', 'DejaVu Sans', 'Liberation Sans', 'Bitstream Vera Sans', sans-serif; text-anchor: middle; fill: #262626" x="614.293266" y="243.117812" transform="rotate(-0 614.293266 243.117812)">100</text>
     </g>
    </g>
    <g id="xtick_8">
     <g id="line2d_8">
      <g>
       <use xlink:href="#me0af591fad" x="683.354714" y="228.96" style="fill: #262626; stroke: #262626; stroke-width: 0.8"/>
      </g>
     </g>
     <g id="text_8">
      <text style="font-size: 10px; font-family: 'Arial', 'DejaVu Sans', 'Liberation Sans', 'Bitstream Vera Sans', sans-serif; text-anchor: middle; fill: #262626" x="683.354714" y="243.117812" transform="rotate(-0 683.354714 243.117812)">200</text>
     </g>
    </g>
    <g id="xtick_9">
     <g id="line2d_9">
      <g>
       <use xlink:href="#me0af591fad" x="774.648982" y="228.96" style="fill: #262626; stroke: #262626; stroke-width: 0.8"/>
      </g>
     </g>
     <g id="text_9">
      <text style="font-size: 10px; font-family: 'Arial', 'DejaVu Sans', 'Liberation Sans', 'Bitstream Vera Sans', sans-serif; text-anchor: middle; fill: #262626" x="774.648982" y="243.117812" transform="rotate(-0 774.648982 243.117812)">500</text>
     </g>
    </g>
    <g id="xtick_10">
     <g id="line2d_10">
      <g>
       <use xlink:href="#me0af591fad" x="843.710429" y="228.96" style="fill: #262626; stroke: #262626; stroke-width: 0.8"/>
      </g>
     </g>
     <g id="text_10">
      <text style="font-size: 10px; font-family: 'Arial', 'DejaVu Sans', 'Liberation Sans', 'Bitstream Vera Sans', sans-serif; text-anchor: middle; fill: #262626" x="843.710429" y="243.117812" transform="rotate(-0 843.710429 243.117812)">1000</text>
     </g>
    </g>
    <g id="xtick_11">
     <g id="line2d_11">
      <defs>
       <path id="m288e6ae5fc" d="M 0 0 
L 0 2 
" style="stroke: #262626; stroke-width: 0.6"/>
      </defs>
      <g>
       <use xlink:href="#m288e6ae5fc" x="35.501583" y="228.96" style="fill: #262626; stroke: #262626; stroke-width: 0.6"/>
      </g>
     </g>
    </g>
    <g id="xtick_12">
     <g id="line2d_12">
      <g>
       <use xlink:href="#m288e6ae5fc" x="64.164673" y="228.96" style="fill: #262626; stroke: #262626; stroke-width: 0.6"/>
      </g>
     </g>
    </g>
    <g id="xtick_13">
     <g id="line2d_13">
      <g>
       <use xlink:href="#m288e6ae5fc" x="86.397493" y="228.96" style="fill: #262626; stroke: #262626; stroke-width: 0.6"/>
      </g>
     </g>
    </g>
    <g id="xtick_14">
     <g id="line2d_14">
      <g>
       <use xlink:href="#m288e6ae5fc" x="104.56303" y="228.96" style="fill: #262626; stroke: #262626; stroke-width: 0.6"/>
      </g>
     </g>
    </g>
    <g id="xtick_15">
     <g id="line2d_15">
      <g>
       <use xlink:href="#m288e6ae5fc" x="119.921773" y="228.96" style="fill: #262626; stroke: #262626; stroke-width: 0.6"/>
      </g>
     </g>
    </g>
    <g id="xtick_16">
     <g id="line2d_16">
      <g>
       <use xlink:href="#m288e6ae5fc" x="133.226121" y="228.96" style="fill: #262626; stroke: #262626; stroke-width: 0.6"/>
      </g>
     </g>
    </g>
    <g id="xtick_17">
     <g id="line2d_17">
      <g>
       <use xlink:href="#m288e6ae5fc" x="144.961387" y="228.96" style="fill: #262626; stroke: #262626; stroke-width: 0.6"/>
      </g>
     </g>
    </g>
    <g id="xtick_18">
     <g id="line2d_18">
      <g>
       <use xlink:href="#m288e6ae5fc" x="264.918745" y="228.96" style="fill: #262626; stroke: #262626; stroke-width: 0.6"/>
      </g>
     </g>
    </g>
    <g id="xtick_19">
     <g id="line2d_19">
      <g>
       <use xlink:href="#m288e6ae5fc" x="293.581836" y="228.96" style="fill: #262626; stroke: #262626; stroke-width: 0.6"/>
      </g>
     </g>
    </g>
    <g id="xtick_20">
     <g id="line2d_20">
      <g>
       <use xlink:href="#m288e6ae5fc" x="333.980193" y="228.96" style="fill: #262626; stroke: #262626; stroke-width: 0.6"/>
      </g>
     </g>
    </g>
    <g id="xtick_21">
     <g id="line2d_21">
      <g>
       <use xlink:href="#m288e6ae5fc" x="349.338935" y="228.96" style="fill: #262626; stroke: #262626; stroke-width: 0.6"/>
      </g>
     </g>
    </g>
    <g id="xtick_22">
     <g id="line2d_22">
      <g>
       <use xlink:href="#m288e6ae5fc" x="362.643283" y="228.96" style="fill: #262626; stroke: #262626; stroke-width: 0.6"/>
      </g>
     </g>
    </g>
    <g id="xtick_23">
     <g id="line2d_23">
      <g>
       <use xlink:href="#m288e6ae5fc" x="374.37855" y="228.96" style="fill: #262626; stroke: #262626; stroke-width: 0.6"/>
      </g>
     </g>
    </g>
    <g id="xtick_24">
     <g id="line2d_24">
      <g>
       <use xlink:href="#m288e6ae5fc" x="494.335908" y="228.96" style="fill: #262626; stroke: #262626; stroke-width: 0.6"/>
      </g>
     </g>
    </g>
    <g id="xtick_25">
     <g id="line2d_25">
      <g>
       <use xlink:href="#m288e6ae5fc" x="522.998999" y="228.96" style="fill: #262626; stroke: #262626; stroke-width: 0.6"/>
      </g>
     </g>
    </g>
    <g id="xtick_26">
     <g id="line2d_26">
      <g>
       <use xlink:href="#m288e6ae5fc" x="563.397356" y="228.96" style="fill: #262626; stroke: #262626; stroke-width: 0.6"/>
      </g>
     </g>
    </g>
    <g id="xtick_27">
     <g id="line2d_27">
      <g>
       <use xlink:href="#m288e6ae5fc" x="578.756098" y="228.96" style="fill: #262626; stroke: #262626; stroke-width: 0.6"/>
      </g>
     </g>
    </g>
    <g id="xtick_28">
     <g id="line2d_28">
      <g>
       <use xlink:href="#m288e6ae5fc" x="592.060446" y="228.96" style="fill: #262626; stroke: #262626; stroke-width: 0.6"/>
      </g>
     </g>
    </g>
    <g id="xtick_29">
     <g id="line2d_29">
      <g>
       <use xlink:href="#m288e6ae5fc" x="603.795713" y="228.96" style="fill: #262626; stroke: #262626; stroke-width: 0.6"/>
      </g>
     </g>
    </g>
    <g id="xtick_30">
     <g id="line2d_30">
      <g>
       <use xlink:href="#m288e6ae5fc" x="723.753071" y="228.96" style="fill: #262626; stroke: #262626; stroke-width: 0.6"/>
      </g>
     </g>
    </g>
    <g id="xtick_31">
     <g id="line2d_31">
      <g>
       <use xlink:href="#m288e6ae5fc" x="752.416161" y="228.96" style="fill: #262626; stroke: #262626; stroke-width: 0.6"/>
      </g>
     </g>
    </g>
    <g id="xtick_32">
     <g id="line2d_32">
      <g>
       <use xlink:href="#m288e6ae5fc" x="792.814518" y="228.96" style="fill: #262626; stroke: #262626; stroke-width: 0.6"/>
      </g>
     </g>
    </g>
    <g id="xtick_33">
     <g id="line2d_33">
      <g>
       <use xlink:href="#m288e6ae5fc" x="808.173261" y="228.96" style="fill: #262626; stroke: #262626; stroke-width: 0.6"/>
      </g>
     </g>
    </g>
    <g id="xtick_34">
     <g id="line2d_34">
      <g>
       <use xlink:href="#m288e6ae5fc" x="821.477609" y="228.96" style="fill: #262626; stroke: #262626; stroke-width: 0.6"/>
      </g>
     </g>
    </g>
    <g id="xtick_35">
     <g id="line2d_35">
      <g>
       <use xlink:href="#m288e6ae5fc" x="833.212876" y="228.96" style="fill: #262626; stroke: #262626; stroke-width: 0.6"/>
      </g>
     </g>
    </g>
    <g id="text_11">
     <text style="font-size: 10px; font-family: 'Arial', 'DejaVu Sans', 'Liberation Sans', 'Bitstream Vera Sans', sans-serif; text-anchor: middle; fill: #262626" x="425.7" y="256.385" transform="rotate(-0 425.7 256.385)">Income or consumption (day)</text>
    </g>
   </g>
   <g id="matplotlib.axis_2"/>
   <g id="FillBetweenPolyCollection_1">
    <defs>
     <path id="m74575628ca" d="M 45.245455 -36.749725 
L 45.245455 -36.729688 
L 47.240641 -36.729688 
L 49.235827 -36.729688 
L 51.231013 -36.729688 
L 53.226199 -36.729688 
L 55.221385 -36.729688 
L 57.216571 -36.729688 
L 59.211757 -36.729688 
L 61.206943 -36.729688 
L 63.20213 -36.729688 
L 65.197316 -36.729688 
L 67.192502 -36.729688 
L 69.187688 -36.729688 
L 71.182874 -36.729688 
L 73.17806 -36.729688 
L 75.173246 -36.729688 
L 77.168432 -36.729688 
L 79.163618 -36.729688 
L 81.158805 -36.729688 
L 83.153991 -36.729688 
L 85.149177 -36.729688 
L 87.144363 -36.729688 
L 89.139549 -36.729688 
L 91.134735 -36.729688 
L 93.129921 -36.729688 
L 95.125107 -36.729688 
L 97.120294 -36.729688 
L 99.11548 -36.729688 
L 101.110666 -36.729688 
L 103.105852 -36.729688 
L 105.101038 -36.729688 
L 107.096224 -36.729688 
L 109.09141 -36.729688 
L 111.086596 -36.729688 
L 113.081782 -36.729688 
L 115.076969 -36.729688 
L 117.072155 -36.729688 
L 119.067341 -36.729688 
L 121.062527 -36.729688 
L 123.057713 -36.729688 
L 125.052899 -36.729688 
L 127.048085 -36.729688 
L 129.043271 -36.729688 
L 131.038457 -36.729688 
L 133.033644 -36.729688 
L 135.02883 -36.729688 
L 137.024016 -36.729688 
L 139.019202 -36.729688 
L 141.014388 -36.729688 
L 143.009574 -36.729688 
L 145.00476 -36.729688 
L 146.999946 -36.729688 
L 148.995133 -36.729688 
L 150.990319 -36.729688 
L 152.985505 -36.729688 
L 154.980691 -36.729688 
L 156.975877 -36.729688 
L 158.971063 -36.729688 
L 160.966249 -36.729688 
L 162.961435 -36.729688 
L 164.956621 -36.729688 
L 166.951808 -36.729688 
L 168.946994 -36.729688 
L 170.94218 -36.729688 
L 172.937366 -36.729688 
L 174.932552 -36.729688 
L 176.927738 -36.729688 
L 178.922924 -36.729688 
L 180.91811 -36.729688 
L 182.913296 -36.729688 
L 184.908483 -36.729688 
L 186.903669 -36.729688 
L 188.898855 -36.729688 
L 190.894041 -36.729688 
L 192.889227 -36.729688 
L 194.884413 -36.729688 
L 196.879599 -36.729688 
L 198.874785 -36.729688 
L 200.869971 -36.729688 
L 202.865158 -36.729688 
L 204.860344 -36.729688 
L 206.85553 -36.729688 
L 208.850716 -36.729688 
L 210.845902 -36.729688 
L 212.841088 -36.729688 
L 214.836274 -36.729688 
L 216.83146 -36.729688 
L 218.826647 -36.729688 
L 220.821833 -36.729688 
L 222.817019 -36.729688 
L 224.812205 -36.729688 
L 226.807391 -36.729688 
L 228.802577 -36.729688 
L 230.797763 -36.729688 
L 232.792949 -36.729688 
L 234.788135 -36.729688 
L 236.783322 -36.729688 
L 238.778508 -36.729688 
L 240.773694 -36.729688 
L 242.76888 -36.729688 
L 244.764066 -36.729688 
L 246.759252 -36.729688 
L 248.754438 -36.729688 
L 250.749624 -36.729688 
L 252.74481 -36.729688 
L 254.739997 -36.729688 
L 256.735183 -36.729688 
L 258.730369 -36.729688 
L 260.725555 -36.729688 
L 262.720741 -36.729688 
L 264.715927 -36.729688 
L 266.711113 -36.729688 
L 268.706299 -36.729688 
L 270.701485 -36.729688 
L 272.696672 -36.729688 
L 274.691858 -36.729688 
L 276.687044 -36.729688 
L 278.68223 -36.729688 
L 280.677416 -36.729688 
L 282.672602 -36.729688 
L 284.667788 -36.729688 
L 286.662974 -36.729688 
L 288.658161 -36.729688 
L 290.653347 -36.729688 
L 292.648533 -36.729688 
L 294.643719 -36.729688 
L 296.638905 -36.729688 
L 298.634091 -36.729688 
L 300.629277 -36.729688 
L 302.624463 -36.729688 
L 304.619649 -36.729688 
L 306.614836 -36.729688 
L 308.610022 -36.729688 
L 310.605208 -36.729688 
L 312.600394 -36.729688 
L 314.59558 -36.729688 
L 316.590766 -36.729688 
L 318.585952 -36.729688 
L 320.581138 -36.729688 
L 322.576324 -36.729688 
L 324.571511 -36.729688 
L 326.566697 -36.729688 
L 328.561883 -36.729688 
L 330.557069 -36.729688 
L 332.552255 -36.729688 
L 334.547441 -36.729688 
L 336.542627 -36.729688 
L 338.537813 -36.729688 
L 340.533 -36.729688 
L 342.528186 -36.729688 
L 344.523372 -36.729688 
L 346.518558 -36.729688 
L 348.513744 -36.729688 
L 350.50893 -36.729688 
L 352.504116 -36.729688 
L 354.499302 -36.729688 
L 356.494488 -36.729688 
L 358.489675 -36.729688 
L 360.484861 -36.729688 
L 362.480047 -36.729688 
L 364.475233 -36.729688 
L 366.470419 -36.729688 
L 368.465605 -36.729688 
L 370.460791 -36.729688 
L 372.455977 -36.729688 
L 374.451163 -36.729688 
L 376.44635 -36.729688 
L 378.441536 -36.729688 
L 380.436722 -36.729688 
L 382.431908 -36.729688 
L 384.427094 -36.729688 
L 386.42228 -36.729688 
L 388.417466 -36.729688 
L 390.412652 -36.729688 
L 392.407838 -36.729688 
L 394.403025 -36.729688 
L 396.398211 -36.729688 
L 398.393397 -36.729688 
L 400.388583 -36.729688 
L 402.383769 -36.729688 
L 404.378955 -36.729688 
L 406.374141 -36.729688 
L 408.369327 -36.729688 
L 410.364514 -36.729688 
L 412.3597 -36.729688 
L 414.354886 -36.729688 
L 416.350072 -36.729688 
L 418.345258 -36.729688 
L 420.340444 -36.729688 
L 422.33563 -36.729688 
L 424.330816 -36.729688 
L 426.326002 -36.729688 
L 428.321189 -36.729688 
L 430.316375 -36.729688 
L 432.311561 -36.729688 
L 434.306747 -36.729688 
L 436.301933 -36.729688 
L 438.297119 -36.729688 
L 440.292305 -36.729688 
L 442.287491 -36.729688 
L 442.287491 -36.747901 
L 442.287491 -36.747901 
L 440.292305 -36.757633 
L 438.297119 -36.771866 
L 436.301933 -36.792318 
L 434.306747 -36.821193 
L 432.311561 -36.861253 
L 430.316375 -36.915862 
L 428.321189 -36.989017 
L 426.326002 -37.085327 
L 424.330816 -37.209945 
L 422.33563 -37.368435 
L 420.340444 -37.566583 
L 418.345258 -37.810138 
L 416.350072 -38.104508 
L 414.354886 -38.454425 
L 412.3597 -38.863604 
L 410.364514 -39.33444 
L 408.369327 -39.867769 
L 406.374141 -40.462729 
L 404.378955 -41.11675 
L 402.383769 -41.825688 
L 400.388583 -42.58409 
L 398.393397 -43.385591 
L 396.398211 -44.22338 
L 394.403025 -45.090717 
L 392.407838 -45.981422 
L 390.412652 -46.890303 
L 388.417466 -47.81346 
L 386.42228 -48.748457 
L 384.427094 -49.694325 
L 382.431908 -50.651442 
L 380.436722 -51.621279 
L 378.441536 -52.606088 
L 376.44635 -53.608559 
L 374.451163 -54.631504 
L 372.455977 -55.677605 
L 370.460791 -56.74925 
L 368.465605 -57.84847 
L 366.470419 -58.97697 
L 364.475233 -60.136237 
L 362.480047 -61.327681 
L 360.484861 -62.552801 
L 358.489675 -63.813312 
L 356.494488 -65.111228 
L 354.499302 -66.448878 
L 352.504116 -67.828845 
L 350.50893 -69.253849 
L 348.513744 -70.726593 
L 346.518558 -72.249604 
L 344.523372 -73.825104 
L 342.528186 -75.454944 
L 340.533 -77.140625 
L 338.537813 -78.883419 
L 336.542627 -80.684563 
L 334.547441 -82.545517 
L 332.552255 -84.468233 
L 330.557069 -86.455374 
L 328.561883 -88.510456 
L 326.566697 -90.637851 
L 324.571511 -92.842648 
L 322.576324 -95.130367 
L 320.581138 -97.506572 
L 318.585952 -99.976412 
L 316.590766 -102.544178 
L 314.59558 -105.212923 
L 312.600394 -107.984203 
L 310.605208 -110.857976 
L 308.610022 -113.832665 
L 306.614836 -116.905362 
L 304.619649 -120.072135 
L 302.624463 -123.328382 
L 300.629277 -126.66917 
L 298.634091 -130.089495 
L 296.638905 -133.584444 
L 294.643719 -137.149207 
L 292.648533 -140.778975 
L 290.653347 -144.468719 
L 288.658161 -148.212917 
L 286.662974 -152.005264 
L 284.667788 -155.83842 
L 282.672602 -159.703871 
L 280.677416 -163.591911 
L 278.68223 -167.491802 
L 276.687044 -171.3921 
L 274.691858 -175.281136 
L 272.696672 -179.147617 
L 270.701485 -182.981281 
L 268.706299 -186.773541 
L 266.711113 -190.518002 
L 264.715927 -194.210782 
L 262.720741 -197.850541 
L 260.725555 -201.438154 
L 258.730369 -204.976006 
L 256.735183 -208.466937 
L 254.739997 -211.912915 
L 252.74481 -215.313569 
L 250.749624 -218.664755 
L 248.754438 -221.957353 
L 246.759252 -225.176478 
L 244.764066 -228.301244 
L 242.76888 -231.305173 
L 240.773694 -234.157237 
L 238.778508 -236.823444 
L 236.783322 -239.268792 
L 234.788135 -241.459389 
L 232.792949 -243.364481 
L 230.797763 -244.958191 
L 228.802577 -246.220804 
L 226.807391 -247.139525 
L 224.812205 -247.708715 
L 222.817019 -247.929688 
L 220.821833 -247.810182 
L 218.826647 -247.363674 
L 216.83146 -246.608627 
L 214.836274 -245.567767 
L 212.841088 -244.267391 
L 210.845902 -242.736671 
L 208.850716 -241.006874 
L 206.85553 -239.110408 
L 204.860344 -237.079637 
L 202.865158 -234.945445 
L 200.869971 -232.735614 
L 198.874785 -230.473132 
L 196.879599 -228.174615 
L 194.884413 -225.849039 
L 192.889227 -223.496993 
L 190.894041 -221.110582 
L 188.898855 -218.674081 
L 186.903669 -216.165321 
L 184.908483 -213.557699 
L 182.913296 -210.822638 
L 180.91811 -207.932252 
L 178.922924 -204.861939 
L 176.927738 -201.592663 
L 174.932552 -198.112668 
L 172.937366 -194.418505 
L 170.94218 -190.515271 
L 168.946994 -186.416087 
L 166.951808 -182.140904 
L 164.956621 -177.714814 
L 162.961435 -173.166071 
L 160.966249 -168.524058 
L 158.971063 -163.817422 
L 156.975877 -159.072565 
L 154.980691 -154.312628 
L 152.985505 -149.557013 
L 150.990319 -144.82144 
L 148.995133 -140.118457 
L 146.999946 -135.458261 
L 145.00476 -130.849664 
L 143.009574 -126.30104 
L 141.014388 -121.821089 
L 139.019202 -117.419308 
L 137.024016 -113.106125 
L 135.02883 -108.892667 
L 133.033644 -104.790247 
L 131.038457 -100.809661 
L 129.043271 -96.960401 
L 127.048085 -93.249947 
L 125.052899 -89.683215 
L 123.057713 -86.262263 
L 121.062527 -82.986289 
L 119.067341 -79.851904 
L 117.072155 -76.853648 
L 115.076969 -73.984673 
L 113.081782 -71.237498 
L 111.086596 -68.604763 
L 109.09141 -66.079891 
L 107.096224 -63.657608 
L 105.101038 -61.334294 
L 103.105852 -59.108141 
L 101.110666 -56.979138 
L 99.11548 -54.948898 
L 97.120294 -53.020361 
L 95.125107 -51.197405 
L 93.129921 -49.484397 
L 91.134735 -47.885726 
L 89.139549 -46.405329 
L 87.144363 -45.046272 
L 85.149177 -43.810374 
L 83.153991 -42.697928 
L 81.158805 -41.707516 
L 79.163618 -40.835944 
L 77.168432 -40.078289 
L 75.173246 -39.428045 
L 73.17806 -38.877377 
L 71.182874 -38.417434 
L 69.187688 -38.0387 
L 67.192502 -37.731368 
L 65.197316 -37.485686 
L 63.20213 -37.29227 
L 61.206943 -37.142357 
L 59.211757 -37.027988 
L 57.216571 -36.942128 
L 55.221385 -36.87871 
L 53.226199 -36.832633 
L 51.231013 -36.799707 
L 49.235827 -36.77657 
L 47.240641 -36.760584 
L 45.245455 -36.749725 
z
" style="stroke: #dd8452"/>
    </defs>
    <g>
     <use xlink:href="#m74575628ca" x="0" y="265.689687" style="fill: #dd8452; fill-opacity: 0.25; stroke: #dd8452"/>
    </g>
   </g>
   <g id="FillBetweenPolyCollection_2">
    <defs>
     <path id="mc9db720333" d="M 173.768949 -36.744909 
L 173.768949 -36.729688 
L 176.946766 -36.729688 
L 180.124583 -36.729688 
L 183.3024 -36.729688 
L 186.480217 -36.729688 
L 189.658034 -36.729688 
L 192.835851 -36.729688 
L 196.013668 -36.729688 
L 199.191485 -36.729688 
L 202.369302 -36.729688 
L 205.54712 -36.729688 
L 208.724937 -36.729688 
L 211.902754 -36.729688 
L 215.080571 -36.729688 
L 218.258388 -36.729688 
L 221.436205 -36.729688 
L 224.614022 -36.729688 
L 227.791839 -36.729688 
L 230.969656 -36.729688 
L 234.147473 -36.729688 
L 237.32529 -36.729688 
L 240.503107 -36.729688 
L 243.680924 -36.729688 
L 246.858741 -36.729688 
L 250.036558 -36.729688 
L 253.214376 -36.729688 
L 256.392193 -36.729688 
L 259.57001 -36.729688 
L 262.747827 -36.729688 
L 265.925644 -36.729688 
L 269.103461 -36.729688 
L 272.281278 -36.729688 
L 275.459095 -36.729688 
L 278.636912 -36.729688 
L 281.814729 -36.729688 
L 284.992546 -36.729688 
L 288.170363 -36.729688 
L 291.34818 -36.729688 
L 294.525997 -36.729688 
L 297.703815 -36.729688 
L 300.881632 -36.729688 
L 304.059449 -36.729688 
L 307.237266 -36.729688 
L 310.415083 -36.729688 
L 313.5929 -36.729688 
L 316.770717 -36.729688 
L 319.948534 -36.729688 
L 323.126351 -36.729688 
L 326.304168 -36.729688 
L 329.481985 -36.729688 
L 332.659802 -36.729688 
L 335.837619 -36.729688 
L 339.015436 -36.729688 
L 342.193253 -36.729688 
L 345.371071 -36.729688 
L 348.548888 -36.729688 
L 351.726705 -36.729688 
L 354.904522 -36.729688 
L 358.082339 -36.729688 
L 361.260156 -36.729688 
L 364.437973 -36.729688 
L 367.61579 -36.729688 
L 370.793607 -36.729688 
L 373.971424 -36.729688 
L 377.149241 -36.729688 
L 380.327058 -36.729688 
L 383.504875 -36.729688 
L 386.682692 -36.729688 
L 389.860509 -36.729688 
L 393.038327 -36.729688 
L 396.216144 -36.729688 
L 399.393961 -36.729688 
L 402.571778 -36.729688 
L 405.749595 -36.729688 
L 408.927412 -36.729688 
L 412.105229 -36.729688 
L 415.283046 -36.729688 
L 418.460863 -36.729688 
L 421.63868 -36.729688 
L 424.816497 -36.729688 
L 427.994314 -36.729688 
L 431.172131 -36.729688 
L 434.349948 -36.729688 
L 437.527766 -36.729688 
L 440.705583 -36.729688 
L 443.8834 -36.729688 
L 447.061217 -36.729688 
L 450.239034 -36.729688 
L 453.416851 -36.729688 
L 456.594668 -36.729688 
L 459.772485 -36.729688 
L 462.950302 -36.729688 
L 466.128119 -36.729688 
L 469.305936 -36.729688 
L 472.483753 -36.729688 
L 475.66157 -36.729688 
L 478.839387 -36.729688 
L 482.017204 -36.729688 
L 485.195022 -36.729688 
L 488.372839 -36.729688 
L 491.550656 -36.729688 
L 494.728473 -36.729688 
L 497.90629 -36.729688 
L 501.084107 -36.729688 
L 504.261924 -36.729688 
L 507.439741 -36.729688 
L 510.617558 -36.729688 
L 513.795375 -36.729688 
L 516.973192 -36.729688 
L 520.151009 -36.729688 
L 523.328826 -36.729688 
L 526.506643 -36.729688 
L 529.684461 -36.729688 
L 532.862278 -36.729688 
L 536.040095 -36.729688 
L 539.217912 -36.729688 
L 542.395729 -36.729688 
L 545.573546 -36.729688 
L 548.751363 -36.729688 
L 551.92918 -36.729688 
L 555.106997 -36.729688 
L 558.284814 -36.729688 
L 561.462631 -36.729688 
L 564.640448 -36.729688 
L 567.818265 -36.729688 
L 570.996082 -36.729688 
L 574.173899 -36.729688 
L 577.351717 -36.729688 
L 580.529534 -36.729688 
L 583.707351 -36.729688 
L 586.885168 -36.729688 
L 590.062985 -36.729688 
L 593.240802 -36.729688 
L 596.418619 -36.729688 
L 599.596436 -36.729688 
L 602.774253 -36.729688 
L 605.95207 -36.729688 
L 609.129887 -36.729688 
L 612.307704 -36.729688 
L 615.485521 -36.729688 
L 618.663338 -36.729688 
L 621.841155 -36.729688 
L 625.018973 -36.729688 
L 628.19679 -36.729688 
L 631.374607 -36.729688 
L 634.552424 -36.729688 
L 637.730241 -36.729688 
L 640.908058 -36.729688 
L 644.085875 -36.729688 
L 647.263692 -36.729688 
L 650.441509 -36.729688 
L 653.619326 -36.729688 
L 656.797143 -36.729688 
L 659.97496 -36.729688 
L 663.152777 -36.729688 
L 666.330594 -36.729688 
L 669.508412 -36.729688 
L 672.686229 -36.729688 
L 675.864046 -36.729688 
L 679.041863 -36.729688 
L 682.21968 -36.729688 
L 685.397497 -36.729688 
L 688.575314 -36.729688 
L 691.753131 -36.729688 
L 694.930948 -36.729688 
L 698.108765 -36.729688 
L 701.286582 -36.729688 
L 704.464399 -36.729688 
L 707.642216 -36.729688 
L 710.820033 -36.729688 
L 713.99785 -36.729688 
L 717.175668 -36.729688 
L 720.353485 -36.729688 
L 723.531302 -36.729688 
L 726.709119 -36.729688 
L 729.886936 -36.729688 
L 733.064753 -36.729688 
L 736.24257 -36.729688 
L 739.420387 -36.729688 
L 742.598204 -36.729688 
L 745.776021 -36.729688 
L 748.953838 -36.729688 
L 752.131655 -36.729688 
L 755.309472 -36.729688 
L 758.487289 -36.729688 
L 761.665106 -36.729688 
L 764.842924 -36.729688 
L 768.020741 -36.729688 
L 771.198558 -36.729688 
L 774.376375 -36.729688 
L 777.554192 -36.729688 
L 780.732009 -36.729688 
L 783.909826 -36.729688 
L 787.087643 -36.729688 
L 790.26546 -36.729688 
L 793.443277 -36.729688 
L 796.621094 -36.729688 
L 799.798911 -36.729688 
L 802.976728 -36.729688 
L 806.154545 -36.729688 
L 806.154545 -36.751515 
L 806.154545 -36.751515 
L 802.976728 -36.767121 
L 799.798911 -36.792279 
L 796.621094 -36.831753 
L 793.443277 -36.892041 
L 790.26546 -36.981686 
L 787.087643 -37.111491 
L 783.909826 -37.294565 
L 780.732009 -37.546136 
L 777.554192 -37.883073 
L 774.376375 -38.3231 
L 771.198558 -38.883732 
L 768.020741 -39.581025 
L 764.842924 -40.428287 
L 761.665106 -41.434933 
L 758.487289 -42.605659 
L 755.309472 -43.940103 
L 752.131655 -45.433055 
L 748.953838 -47.075222 
L 745.776021 -48.854427 
L 742.598204 -50.757064 
L 739.420387 -52.769593 
L 736.24257 -54.879845 
L 733.064753 -57.078 
L 729.886936 -59.357152 
L 726.709119 -61.713469 
L 723.531302 -64.146053 
L 720.353485 -66.656607 
L 717.175668 -69.249038 
L 713.99785 -71.929095 
L 710.820033 -74.704059 
L 707.642216 -77.582476 
L 704.464399 -80.57388 
L 701.286582 -83.688428 
L 698.108765 -86.936404 
L 694.930948 -90.327574 
L 691.753131 -93.870413 
L 688.575314 -97.571281 
L 685.397497 -101.433603 
L 682.21968 -105.457176 
L 679.041863 -109.637634 
L 675.864046 -113.966168 
L 672.686229 -118.429488 
L 669.508412 -123.010067 
L 666.330594 -127.686623 
L 663.152777 -132.434802 
L 659.97496 -137.22798 
L 656.797143 -142.038086 
L 653.619326 -146.836317 
L 650.441509 -151.593628 
L 647.263692 -156.280941 
L 644.085875 -160.869058 
L 640.908058 -165.328393 
L 637.730241 -169.628715 
L 634.552424 -173.739151 
L 631.374607 -177.62867 
L 628.19679 -181.267201 
L 625.018973 -184.627368 
L 621.841155 -187.686633 
L 618.663338 -190.429496 
L 615.485521 -192.849291 
L 612.307704 -194.94915 
L 609.129887 -196.741791 
L 605.95207 -198.248033 
L 602.774253 -199.494164 
L 599.596436 -200.508498 
L 596.418619 -201.317647 
L 593.240802 -201.943067 
L 590.062985 -202.398383 
L 586.885168 -202.68786 
L 583.707351 -202.80618 
L 580.529534 -202.739475 
L 577.351717 -202.467379 
L 574.173899 -201.965767 
L 570.996082 -201.209773 
L 567.818265 -200.176735 
L 564.640448 -198.848784 
L 561.462631 -197.214871 
L 558.284814 -195.272141 
L 555.106997 -193.026615 
L 551.92918 -190.493176 
L 548.751363 -187.694895 
L 545.573546 -184.661738 
L 542.395729 -181.428704 
L 539.217912 -178.033518 
L 536.040095 -174.514037 
L 532.862278 -170.905576 
L 529.684461 -167.238444 
L 526.506643 -163.535952 
L 523.328826 -159.813156 
L 520.151009 -156.076499 
L 516.973192 -152.32443 
L 513.795375 -148.548914 
L 510.617558 -144.737663 
L 507.439741 -140.876797 
L 504.261924 -136.9536 
L 501.084107 -132.959052 
L 497.90629 -128.889839 
L 494.728473 -124.749666 
L 491.550656 -120.54975 
L 488.372839 -116.30851 
L 485.195022 -112.050543 
L 482.017204 -107.80503 
L 478.839387 -103.603773 
L 475.66157 -99.479061 
L 472.483753 -95.461587 
L 469.305936 -91.578594 
L 466.128119 -87.852436 
L 462.950302 -84.299656 
L 459.772485 -80.930665 
L 456.594668 -77.750018 
L 453.416851 -74.757204 
L 450.239034 -71.947816 
L 447.061217 -69.3149 
L 443.8834 -66.850287 
L 440.705583 -64.545709 
L 437.527766 -62.393576 
L 434.349948 -60.387361 
L 431.172131 -58.521609 
L 427.994314 -56.791667 
L 424.816497 -55.193256 
L 421.63868 -53.722008 
L 418.460863 -52.373092 
L 415.283046 -51.140979 
L 412.105229 -50.019383 
L 408.927412 -49.001354 
L 405.749595 -48.079497 
L 402.571778 -47.246238 
L 399.393961 -46.494111 
L 396.216144 -45.815986 
L 393.038327 -45.205216 
L 389.860509 -44.65568 
L 386.682692 -44.161712 
L 383.504875 -43.717945 
L 380.327058 -43.319103 
L 377.149241 -42.959809 
L 373.971424 -42.634464 
L 370.793607 -42.337241 
L 367.61579 -42.062226 
L 364.437973 -41.80369 
L 361.260156 -41.556449 
L 358.082339 -41.316258 
L 354.904522 -41.080151 
L 351.726705 -40.846693 
L 348.548888 -40.6161 
L 345.371071 -40.390207 
L 342.193253 -40.172297 
L 339.015436 -39.96678 
L 335.837619 -39.778732 
L 332.659802 -39.613285 
L 329.481985 -39.474889 
L 326.304168 -39.366503 
L 323.126351 -39.28881 
L 319.948534 -39.239612 
L 316.770717 -39.213546 
L 313.5929 -39.202275 
L 310.415083 -39.195198 
L 307.237266 -39.180635 
L 304.059449 -39.147336 
L 300.881632 -39.086046 
L 297.703815 -38.990863 
L 294.525997 -38.860119 
L 291.34818 -38.69664 
L 288.170363 -38.507357 
L 284.992546 -38.302359 
L 281.814729 -38.093598 
L 278.636912 -37.893485 
L 275.459095 -37.713599 
L 272.281278 -37.563671 
L 269.103461 -37.450914 
L 265.925644 -37.379673 
L 262.747827 -37.351344 
L 259.57001 -37.36446 
L 256.392193 -37.414885 
L 253.214376 -37.496077 
L 250.036558 -37.599451 
L 246.858741 -37.714862 
L 243.680924 -37.831255 
L 240.503107 -37.937492 
L 237.32529 -38.023283 
L 234.147473 -38.08015 
L 230.969656 -38.102254 
L 227.791839 -38.08697 
L 224.614022 -38.035079 
L 221.436205 -37.950537 
L 218.258388 -37.839857 
L 215.080571 -37.711206 
L 211.902754 -37.573364 
L 208.724937 -37.434731 
L 205.54712 -37.302501 
L 202.369302 -37.182133 
L 199.191485 -37.077123 
L 196.013668 -36.989067 
L 192.835851 -36.917944 
L 189.658034 -36.862525 
L 186.480217 -36.820814 
L 183.3024 -36.790462 
L 180.124583 -36.769092 
L 176.946766 -36.754526 
L 173.768949 -36.744909 
z
" style="stroke: #4c72b0"/>
    </defs>
    <g>
     <use xlink:href="#mc9db720333" x="0" y="265.689687" style="fill: #4c72b0; fill-opacity: 0.25; stroke: #4c72b0"/>
    </g>
   </g>
   <g id="line2d_36">
    <path d="M 264.918745 228.96 
L 264.918745 7.2 
" style="fill: none; stroke-dasharray: 2.96,1.28; stroke-dashoffset: 0; stroke: #d3d3d3; stroke-width: 0.8"/>
   </g>
   <g id="line2d_37">
    <path d="M 462.011372 228.96 
L 462.011372 7.2 
" style="fill: none; stroke-dasharray: 2.96,1.28; stroke-dashoffset: 0; stroke: #d3d3d3; stroke-width: 0.8"/>
   </g>
   <g id="line2d_38">
    <path d="M 378.17979 228.96 
L 378.17979 7.2 
" style="fill: none; stroke-dasharray: 2.96,1.28; stroke-dashoffset: 0; stroke: #d3d3d3; stroke-width: 0.8"/>
   </g>
   <g id="line2d_39">
    <path d="M 7.2 228.96 
L 844.2 228.96 
" style="fill: none; stroke: #808080; stroke-width: 0.5; stroke-linecap: round"/>
   </g>
   <g id="text_12">
    <text style="font-size: 8px; font-family: 'Arial', 'DejaVu Sans', 'Liberation Sans', 'Bitstream Vera Sans', sans-serif; fill: #808080" transform="translate(271.172495 124.59635) rotate(-90)">International Poverty Line: $3.00</text>
   </g>
   <g id="text_13">
    <text style="font-size: 8px; font-family: 'Arial', 'DejaVu Sans', 'Liberation Sans', 'Bitstream Vera Sans', sans-serif; fill: #808080" transform="translate(467.737622 81.31135) rotate(-90)">World mean: $21.69</text>
   </g>
   <g id="text_14">
    <text style="font-size: 8px; font-family: 'Arial', 'DejaVu Sans', 'Liberation Sans', 'Bitstream Vera Sans', sans-serif; fill: #808080" transform="translate(383.90604 83.08885) rotate(-90)">World median: $9.35</text>
   </g>
   <g id="legend_1">
    <g id="patch_3">
     <path d="M 683.8 102.227 
L 775.83125 102.227 
Q 777.83125 102.227 777.83125 100.227 
L 777.83125 58.552 
Q 777.83125 56.552 775.83125 56.552 
L 683.8 56.552 
Q 681.8 56.552 681.8 58.552 
L 681.8 100.227 
Q 681.8 102.227 683.8 102.227 
z
" style="fill: #ffffff; opacity: 0.8; stroke: #cccccc; stroke-linejoin: miter"/>
    </g>
    <g id="text_15">
     <text style="font-size: 10px; font-family: 'Arial', 'DejaVu Sans', 'Liberation Sans', 'Bitstream Vera Sans', sans-serif; text-anchor: start; fill: #262626" x="712.309375" y="67.831687" transform="rotate(-0 712.309375 67.831687)">Country</text>
    </g>
    <g id="patch_4">
     <path d="M 685.8 82.094187 
L 705.8 82.094187 
L 705.8 75.094187 
L 685.8 75.094187 
z
" style="fill: #4c72b0; fill-opacity: 0.25; stroke: #4c72b0; stroke-linejoin: miter"/>
    </g>
    <g id="text_16">
     <text style="font-size: 10px; font-family: 'Arial', 'DejaVu Sans', 'Liberation Sans', 'Bitstream Vera Sans', sans-serif; text-anchor: start; fill: #262626" x="713.8" y="82.094187" transform="rotate(-0 713.8 82.094187)">United States</text>
    </g>
    <g id="patch_5">
     <path d="M 685.8 96.2395 
L 705.8 96.2395 
L 705.8 89.2395 
L 685.8 89.2395 
z
" style="fill: #dd8452; fill-opacity: 0.25; stroke: #dd8452; stroke-linejoin: miter"/>
    </g>
    <g id="text_17">
     <text style="font-size: 10px; font-family: 'Arial', 'DejaVu Sans', 'Liberation Sans', 'Bitstream Vera Sans', sans-serif; text-anchor: start; fill: #262626" x="713.8" y="96.2395" transform="rotate(-0 713.8 96.2395)">Burundi</text>
    </g>
   </g>
  </g>
 </g>
</svg>
