<?xml version="1.0" encoding="utf-8" standalone="no"?>
<!DOCTYPE svg PUBLIC "-//W3C//DTD SVG 1.1//EN"
  "http://www.w3.org/Graphics/SVG/1.1/DTD/svg11.dtd">
<svg xmlns:xlink="http://www.w3.org/1999/xlink" width="851.4pt" height="282.943437pt" viewBox="0 0 851.4 282.943437" xmlns="http://www.w3.org/2000/svg" version="1.1">
 <metadata>
  <rdf:RDF xmlns:dc="http://purl.org/dc/elements/1.1/" xmlns:cc="http://creativecommons.org/ns#" xmlns:rdf="http://www.w3.org/1999/02/22-rdf-syntax-ns#">
   <cc:Work>
    <dc:type rdf:resource="http://purl.org/dc/dcmitype/StillImage"/>
    <dc:date>2026-05-27T15:38:20.534921</dc:date>
    <dc:format>image/svg+xml</dc:format>
    <dc:creator>
     <cc:Agent>
      <dc:title>Matplotlib v3.10.9, https://matplotlib.org/</dc:title>
     </cc:Agent>
    </dc:creator>
   </cc:Work>
  </rdf:RDF>
 </metadata>
 <defs>
  <style type="text/css">*{stroke-linejoin: round; stroke-linecap: butt}</style>
 </defs>
 <g id="figure_1">
  <g id="patch_1">
   <path d="M 0 282.943437 
L 851.4 282.943437 
L 851.4 0 
L 0 0 
z
" style="fill: #ffffff"/>
  </g>
  <g id="axes_1">
   <g id="patch_2">
    <path d="M 7.2 246.21375 
L 844.2 246.21375 
L 844.2 24.45375 
L 7.2 24.45375 
z
" style="fill: #ffffff"/>
   </g>
   <g id="matplotlib.axis_1">
    <g id="xtick_1">
     <g id="line2d_1">
      <defs>
       <path id="m6211ac3599" d="M 0 0 
L 0 3.5 
" style="stroke: #262626; stroke-width: 0.8"/>
      </defs>
      <g>
       <use xlink:href="#m6211ac3599" x="59.792833" y="246.21375" style="fill: #262626; stroke: #262626; stroke-width: 0.8"/>
      </g>
     </g>
     <g id="text_1">
      <text style="font-size: 10px; font-family: 'Arial', 'DejaVu Sans', 'Liberation Sans', 'Bitstream Vera Sans', sans-serif; text-anchor: middle; fill: #262626" x="59.792833" y="260.371562" transform="rotate(-0 59.792833 260.371562)">$10</text>
     </g>
    </g>
    <g id="xtick_2">
     <g id="line2d_2">
      <g>
       <use xlink:href="#m6211ac3599" x="126.745984" y="246.21375" style="fill: #262626; stroke: #262626; stroke-width: 0.8"/>
      </g>
     </g>
     <g id="text_2">
      <text style="font-size: 10px; font-family: 'Arial', 'DejaVu Sans', 'Liberation Sans', 'Bitstream Vera Sans', sans-serif; text-anchor: middle; fill: #262626" x="126.745984" y="260.371562" transform="rotate(-0 126.745984 260.371562)">$20</text>
     </g>
    </g>
    <g id="xtick_3">
     <g id="line2d_3">
      <g>
       <use xlink:href="#m6211ac3599" x="215.253236" y="246.21375" style="fill: #262626; stroke: #262626; stroke-width: 0.8"/>
      </g>
     </g>
     <g id="text_3">
      <text style="font-size: 10px; font-family: 'Arial', 'DejaVu Sans', 'Liberation Sans', 'Bitstream Vera Sans', sans-serif; text-anchor: middle; fill: #262626" x="215.253236" y="260.371562" transform="rotate(-0 215.253236 260.371562)">$50</text>
     </g>
    </g>
    <g id="xtick_4">
     <g id="line2d_4">
      <g>
       <use xlink:href="#m6211ac3599" x="282.206387" y="246.21375" style="fill: #262626; stroke: #262626; stroke-width: 0.8"/>
      </g>
     </g>
     <g id="text_4">
      <text style="font-size: 10px; font-family: 'Arial', 'DejaVu Sans', 'Liberation Sans', 'Bitstream Vera Sans', sans-serif; text-anchor: middle; fill: #262626" x="282.206387" y="260.371562" transform="rotate(-0 282.206387 260.371562)">$100</text>
     </g>
    </g>
    <g id="xtick_5">
     <g id="line2d_5">
      <g>
       <use xlink:href="#m6211ac3599" x="349.159538" y="246.21375" style="fill: #262626; stroke: #262626; stroke-width: 0.8"/>
      </g>
     </g>
     <g id="text_5">
      <text style="font-size: 10px; font-family: 'Arial', 'DejaVu Sans', 'Liberation Sans', 'Bitstream Vera Sans', sans-serif; text-anchor: middle; fill: #262626" x="349.159538" y="260.371562" transform="rotate(-0 349.159538 260.371562)">$200</text>
     </g>
    </g>
    <g id="xtick_6">
     <g id="line2d_6">
      <g>
       <use xlink:href="#m6211ac3599" x="437.666789" y="246.21375" style="fill: #262626; stroke: #262626; stroke-width: 0.8"/>
      </g>
     </g>
     <g id="text_6">
      <text style="font-size: 10px; font-family: 'Arial', 'DejaVu Sans', 'Liberation Sans', 'Bitstream Vera Sans', sans-serif; text-anchor: middle; fill: #262626" x="437.666789" y="260.371562" transform="rotate(-0 437.666789 260.371562)">$500</text>
     </g>
    </g>
    <g id="xtick_7">
     <g id="line2d_7">
      <g>
       <use xlink:href="#m6211ac3599" x="504.61994" y="246.21375" style="fill: #262626; stroke: #262626; stroke-width: 0.8"/>
      </g>
     </g>
     <g id="text_7">
      <text style="font-size: 10px; font-family: 'Arial', 'DejaVu Sans', 'Liberation Sans', 'Bitstream Vera Sans', sans-serif; text-anchor: middle; fill: #262626" x="504.61994" y="260.371562" transform="rotate(-0 504.61994 260.371562)">$1000</text>
     </g>
    </g>
    <g id="xtick_8">
     <g id="line2d_8">
      <g>
       <use xlink:href="#m6211ac3599" x="571.573091" y="246.21375" style="fill: #262626; stroke: #262626; stroke-width: 0.8"/>
      </g>
     </g>
     <g id="text_8">
      <text style="font-size: 10px; font-family: 'Arial', 'DejaVu Sans', 'Liberation Sans', 'Bitstream Vera Sans', sans-serif; text-anchor: middle; fill: #262626" x="571.573091" y="260.371562" transform="rotate(-0 571.573091 260.371562)">$2000</text>
     </g>
    </g>
    <g id="xtick_9">
     <g id="line2d_9">
      <g>
       <use xlink:href="#m6211ac3599" x="660.080342" y="246.21375" style="fill: #262626; stroke: #262626; stroke-width: 0.8"/>
      </g>
     </g>
     <g id="text_9">
      <text style="font-size: 10px; font-family: 'Arial', 'DejaVu Sans', 'Liberation Sans', 'Bitstream Vera Sans', sans-serif; text-anchor: middle; fill: #262626" x="660.080342" y="260.371562" transform="rotate(-0 660.080342 260.371562)">$5000</text>
     </g>
    </g>
    <g id="xtick_10">
     <g id="line2d_10">
      <g>
       <use xlink:href="#m6211ac3599" x="727.033493" y="246.21375" style="fill: #262626; stroke: #262626; stroke-width: 0.8"/>
      </g>
     </g>
     <g id="text_10">
      <text style="font-size: 10px; font-family: 'Arial', 'DejaVu Sans', 'Liberation Sans', 'Bitstream Vera Sans', sans-serif; text-anchor: middle; fill: #262626" x="727.033493" y="260.371562" transform="rotate(-0 727.033493 260.371562)">$10000</text>
     </g>
    </g>
    <g id="xtick_11">
     <g id="line2d_11">
      <g>
       <use xlink:href="#m6211ac3599" x="793.986644" y="246.21375" style="fill: #262626; stroke: #262626; stroke-width: 0.8"/>
      </g>
     </g>
     <g id="text_11">
      <text style="font-size: 10px; font-family: 'Arial', 'DejaVu Sans', 'Liberation Sans', 'Bitstream Vera Sans', sans-serif; text-anchor: middle; fill: #262626" x="793.986644" y="260.371562" transform="rotate(-0 793.986644 260.371562)">$20000</text>
     </g>
    </g>
    <g id="xtick_12">
     <g id="line2d_12">
      <defs>
       <path id="m72d173b80b" d="M 0 0 
L 0 2 
" style="stroke: #262626; stroke-width: 0.6"/>
      </defs>
      <g>
       <use xlink:href="#m72d173b80b" x="10.450665" y="246.21375" style="fill: #262626; stroke: #262626; stroke-width: 0.6"/>
      </g>
     </g>
    </g>
    <g id="xtick_13">
     <g id="line2d_13">
      <g>
       <use xlink:href="#m72d173b80b" x="25.340538" y="246.21375" style="fill: #262626; stroke: #262626; stroke-width: 0.6"/>
      </g>
     </g>
    </g>
    <g id="xtick_14">
     <g id="line2d_14">
      <g>
       <use xlink:href="#m72d173b80b" x="38.238733" y="246.21375" style="fill: #262626; stroke: #262626; stroke-width: 0.6"/>
      </g>
     </g>
    </g>
    <g id="xtick_15">
     <g id="line2d_15">
      <g>
       <use xlink:href="#m72d173b80b" x="49.615747" y="246.21375" style="fill: #262626; stroke: #262626; stroke-width: 0.6"/>
      </g>
     </g>
    </g>
    <g id="xtick_16">
     <g id="line2d_16">
      <g>
       <use xlink:href="#m72d173b80b" x="165.911067" y="246.21375" style="fill: #262626; stroke: #262626; stroke-width: 0.6"/>
      </g>
     </g>
    </g>
    <g id="xtick_17">
     <g id="line2d_17">
      <g>
       <use xlink:href="#m72d173b80b" x="193.699135" y="246.21375" style="fill: #262626; stroke: #262626; stroke-width: 0.6"/>
      </g>
     </g>
    </g>
    <g id="xtick_18">
     <g id="line2d_18">
      <g>
       <use xlink:href="#m72d173b80b" x="232.864218" y="246.21375" style="fill: #262626; stroke: #262626; stroke-width: 0.6"/>
      </g>
     </g>
    </g>
    <g id="xtick_19">
     <g id="line2d_19">
      <g>
       <use xlink:href="#m72d173b80b" x="247.754091" y="246.21375" style="fill: #262626; stroke: #262626; stroke-width: 0.6"/>
      </g>
     </g>
    </g>
    <g id="xtick_20">
     <g id="line2d_20">
      <g>
       <use xlink:href="#m72d173b80b" x="260.652286" y="246.21375" style="fill: #262626; stroke: #262626; stroke-width: 0.6"/>
      </g>
     </g>
    </g>
    <g id="xtick_21">
     <g id="line2d_21">
      <g>
       <use xlink:href="#m72d173b80b" x="272.0293" y="246.21375" style="fill: #262626; stroke: #262626; stroke-width: 0.6"/>
      </g>
     </g>
    </g>
    <g id="xtick_22">
     <g id="line2d_22">
      <g>
       <use xlink:href="#m72d173b80b" x="388.32462" y="246.21375" style="fill: #262626; stroke: #262626; stroke-width: 0.6"/>
      </g>
     </g>
    </g>
    <g id="xtick_23">
     <g id="line2d_23">
      <g>
       <use xlink:href="#m72d173b80b" x="416.112689" y="246.21375" style="fill: #262626; stroke: #262626; stroke-width: 0.6"/>
      </g>
     </g>
    </g>
    <g id="xtick_24">
     <g id="line2d_24">
      <g>
       <use xlink:href="#m72d173b80b" x="455.277771" y="246.21375" style="fill: #262626; stroke: #262626; stroke-width: 0.6"/>
      </g>
     </g>
    </g>
    <g id="xtick_25">
     <g id="line2d_25">
      <g>
       <use xlink:href="#m72d173b80b" x="470.167644" y="246.21375" style="fill: #262626; stroke: #262626; stroke-width: 0.6"/>
      </g>
     </g>
    </g>
    <g id="xtick_26">
     <g id="line2d_26">
      <g>
       <use xlink:href="#m72d173b80b" x="483.065839" y="246.21375" style="fill: #262626; stroke: #262626; stroke-width: 0.6"/>
      </g>
     </g>
    </g>
    <g id="xtick_27">
     <g id="line2d_27">
      <g>
       <use xlink:href="#m72d173b80b" x="494.442854" y="246.21375" style="fill: #262626; stroke: #262626; stroke-width: 0.6"/>
      </g>
     </g>
    </g>
    <g id="xtick_28">
     <g id="line2d_28">
      <g>
       <use xlink:href="#m72d173b80b" x="610.738173" y="246.21375" style="fill: #262626; stroke: #262626; stroke-width: 0.6"/>
      </g>
     </g>
    </g>
    <g id="xtick_29">
     <g id="line2d_29">
      <g>
       <use xlink:href="#m72d173b80b" x="638.526242" y="246.21375" style="fill: #262626; stroke: #262626; stroke-width: 0.6"/>
      </g>
     </g>
    </g>
    <g id="xtick_30">
     <g id="line2d_30">
      <g>
       <use xlink:href="#m72d173b80b" x="677.691324" y="246.21375" style="fill: #262626; stroke: #262626; stroke-width: 0.6"/>
      </g>
     </g>
    </g>
    <g id="xtick_31">
     <g id="line2d_31">
      <g>
       <use xlink:href="#m72d173b80b" x="692.581198" y="246.21375" style="fill: #262626; stroke: #262626; stroke-width: 0.6"/>
      </g>
     </g>
    </g>
    <g id="xtick_32">
     <g id="line2d_32">
      <g>
       <use xlink:href="#m72d173b80b" x="705.479393" y="246.21375" style="fill: #262626; stroke: #262626; stroke-width: 0.6"/>
      </g>
     </g>
    </g>
    <g id="xtick_33">
     <g id="line2d_33">
      <g>
       <use xlink:href="#m72d173b80b" x="716.856407" y="246.21375" style="fill: #262626; stroke: #262626; stroke-width: 0.6"/>
      </g>
     </g>
    </g>
    <g id="xtick_34">
     <g id="line2d_34">
      <g>
       <use xlink:href="#m72d173b80b" x="833.151727" y="246.21375" style="fill: #262626; stroke: #262626; stroke-width: 0.6"/>
      </g>
     </g>
    </g>
    <g id="text_12">
     <text style="font-size: 10px; font-family: 'Arial', 'DejaVu Sans', 'Liberation Sans', 'Bitstream Vera Sans', sans-serif; text-anchor: middle; fill: #262626" x="425.7" y="273.63875" transform="rotate(-0 425.7 273.63875)">Income or consumption (month)</text>
    </g>
   </g>
   <g id="matplotlib.axis_2"/>
   <g id="FillBetweenPolyCollection_1">
    <defs>
     <path id="meff804080c" d="M 45.245455 -36.729688 
L 45.245455 -36.807738 
L 47.222651 -36.832297 
L 49.199848 -36.863613 
L 51.177045 -36.903237 
L 53.154242 -36.952987 
L 55.131439 -37.014977 
L 57.108636 -37.091629 
L 59.085833 -37.185698 
L 61.06303 -37.30028 
L 63.040227 -37.438813 
L 65.017424 -37.605075 
L 66.99462 -37.803166 
L 68.971817 -38.037488 
L 70.949014 -38.312705 
L 72.926211 -38.633704 
L 74.903408 -39.005532 
L 76.880605 -39.433345 
L 78.857802 -39.92233 
L 80.834999 -40.477641 
L 82.812196 -41.104325 
L 84.789393 -41.807258 
L 86.76659 -42.591077 
L 88.743786 -43.460132 
L 90.720983 -44.418444 
L 92.69818 -45.469677 
L 94.675377 -46.617128 
L 96.652574 -47.863729 
L 98.629771 -49.212066 
L 100.606968 -50.664411 
L 102.584165 -52.222763 
L 104.561362 -53.888897 
L 106.538559 -55.664414 
L 108.515755 -57.550797 
L 110.492952 -59.54945 
L 112.470149 -61.661733 
L 114.447346 -63.88899 
L 116.424543 -66.232548 
L 118.40174 -68.693708 
L 120.378937 -71.273713 
L 122.356134 -73.973704 
L 124.333331 -76.794649 
L 126.310528 -79.737271 
L 128.287725 -82.801958 
L 130.264921 -85.988666 
L 132.242118 -89.296829 
L 134.219315 -92.725255 
L 136.196512 -96.272044 
L 138.173709 -99.934508 
L 140.150906 -103.7091 
L 142.128103 -107.591368 
L 144.1053 -111.575912 
L 146.082497 -115.656374 
L 148.059694 -119.825437 
L 150.03689 -124.074843 
L 152.014087 -128.395437 
L 153.991284 -132.777224 
L 155.968481 -137.209451 
L 157.945678 -141.680698 
L 159.922875 -146.178996 
L 161.900072 -150.691959 
L 163.877269 -155.206924 
L 165.854466 -159.71111 
L 167.831663 -164.191781 
L 169.808859 -168.636418 
L 171.786056 -173.03288 
L 173.763253 -177.369567 
L 175.74045 -181.635567 
L 177.717647 -185.820778 
L 179.694844 -189.916009 
L 181.672041 -193.91304 
L 183.649238 -197.804656 
L 185.626435 -201.584629 
L 187.603632 -205.247659 
L 189.580829 -208.789283 
L 191.558025 -212.205734 
L 193.535222 -215.493777 
L 195.512419 -218.650516 
L 197.489616 -221.673191 
L 199.466813 -224.558968 
L 201.44401 -227.304742 
L 203.421207 -229.90696 
L 205.398404 -232.361474 
L 207.375601 -234.663439 
L 209.352798 -236.807257 
L 211.329994 -238.786576 
L 213.307191 -240.594344 
L 215.284388 -242.222918 
L 217.261585 -243.664225 
L 219.238782 -244.909962 
L 221.215979 -245.951835 
L 223.193176 -246.781812 
L 225.170373 -247.3924 
L 227.14757 -247.776905 
L 229.124767 -247.929688 
L 231.101964 -247.846382 
L 233.07916 -247.524086 
L 235.056357 -246.961504 
L 237.033554 -246.159032 
L 239.010751 -245.118798 
L 240.987948 -243.844644 
L 242.965145 -242.342056 
L 244.942342 -240.618051 
L 246.919539 -238.681018 
L 248.896736 -236.540538 
L 250.873933 -234.207176 
L 252.851129 -231.692264 
L 254.828326 -229.007684 
L 256.805523 -226.165662 
L 258.78272 -223.178575 
L 260.759917 -220.05878 
L 262.737114 -216.818475 
L 264.714311 -213.469586 
L 266.691508 -210.023686 
L 268.668705 -206.491942 
L 270.645902 -202.88509 
L 272.623098 -199.21343 
L 274.600295 -195.486837 
L 276.577492 -191.714793 
L 278.554689 -187.906414 
L 280.531886 -184.070488 
L 282.509083 -180.215507 
L 284.48628 -176.349698 
L 286.463477 -172.481043 
L 288.440674 -168.617289 
L 290.417871 -164.765954 
L 292.395068 -160.934316 
L 294.372264 -157.129402 
L 296.349461 -153.357958 
L 298.326658 -149.626428 
L 300.303855 -145.940914 
L 302.281052 -142.307143 
L 304.258249 -138.730429 
L 306.235446 -135.21564 
L 308.212643 -131.767161 
L 310.18984 -128.388866 
L 312.167037 -125.08409 
L 314.144233 -121.855612 
L 316.12143 -118.705636 
L 318.098627 -115.635785 
L 320.075824 -112.647099 
L 322.053021 -109.740042 
L 324.030218 -106.914508 
L 326.007415 -104.169849 
L 327.984612 -101.504896 
L 329.961809 -98.91799 
L 331.939006 -96.407029 
L 333.916203 -93.969508 
L 335.893399 -91.602573 
L 337.870596 -89.303082 
L 339.847793 -87.067667 
L 341.82499 -84.892804 
L 343.802187 -82.774891 
L 345.779384 -80.710322 
L 347.756581 -78.695573 
L 349.733778 -76.727287 
L 351.710975 -74.802353 
L 353.688172 -72.917996 
L 355.665368 -71.071847 
L 357.642565 -69.26202 
L 359.619762 -67.487169 
L 361.596959 -65.746536 
L 363.574156 -64.03998 
L 365.551353 -62.367994 
L 367.52855 -60.73169 
L 369.505747 -59.132769 
L 371.482944 -57.573475 
L 373.460141 -56.05651 
L 375.437337 -54.584949 
L 377.414534 -53.162125 
L 379.391731 -51.791507 
L 381.368928 -50.476572 
L 383.346125 -49.220671 
L 385.323322 -48.026899 
L 387.300519 -46.897977 
L 389.277716 -45.836144 
L 391.254913 -44.843068 
L 393.23211 -43.919784 
L 395.209307 -43.066645 
L 397.186503 -42.283309 
L 399.1637 -41.568744 
L 401.140897 -40.921259 
L 403.118094 -40.338555 
L 405.095291 -39.817791 
L 407.072488 -39.355671 
L 409.049685 -38.948528 
L 411.026882 -38.592427 
L 413.004079 -38.283256 
L 414.981276 -38.016822 
L 416.958472 -37.788935 
L 418.935669 -37.595491 
L 420.912866 -37.43253 
L 422.890063 -37.296299 
L 424.86726 -37.183289 
L 426.844457 -37.090267 
L 428.821654 -37.014292 
L 430.798851 -36.952723 
L 432.776048 -36.903219 
L 434.753245 -36.863728 
L 436.730442 -36.832471 
L 438.707638 -36.807929 
L 438.707638 -36.729688 
L 438.707638 -36.729688 
L 436.730442 -36.729688 
L 434.753245 -36.729688 
L 432.776048 -36.729688 
L 430.798851 -36.729688 
L 428.821654 -36.729688 
L 426.844457 -36.729688 
L 424.86726 -36.729688 
L 422.890063 -36.729688 
L 420.912866 -36.729688 
L 418.935669 -36.729688 
L 416.958472 -36.729688 
L 414.981276 -36.729688 
L 413.004079 -36.729688 
L 411.026882 -36.729688 
L 409.049685 -36.729688 
L 407.072488 -36.729688 
L 405.095291 -36.729688 
L 403.118094 -36.729688 
L 401.140897 -36.729688 
L 399.1637 -36.729688 
L 397.186503 -36.729688 
L 395.209307 -36.729688 
L 393.23211 -36.729688 
L 391.254913 -36.729688 
L 389.277716 -36.729688 
L 387.300519 -36.729688 
L 385.323322 -36.729688 
L 383.346125 -36.729688 
L 381.368928 -36.729688 
L 379.391731 -36.729688 
L 377.414534 -36.729688 
L 375.437337 -36.729688 
L 373.460141 -36.729688 
L 371.482944 -36.729688 
L 369.505747 -36.729688 
L 367.52855 -36.729688 
L 365.551353 -36.729688 
L 363.574156 -36.729688 
L 361.596959 -36.729688 
L 359.619762 -36.729688 
L 357.642565 -36.729688 
L 355.665368 -36.729688 
L 353.688172 -36.729688 
L 351.710975 -36.729688 
L 349.733778 -36.729688 
L 347.756581 -36.729688 
L 345.779384 -36.729688 
L 343.802187 -36.729688 
L 341.82499 -36.729688 
L 339.847793 -36.729688 
L 337.870596 -36.729688 
L 335.893399 -36.729688 
L 333.916203 -36.729688 
L 331.939006 -36.729688 
L 329.961809 -36.729688 
L 327.984612 -36.729688 
L 326.007415 -36.729688 
L 324.030218 -36.729688 
L 322.053021 -36.729688 
L 320.075824 -36.729688 
L 318.098627 -36.729688 
L 316.12143 -36.729688 
L 314.144233 -36.729688 
L 312.167037 -36.729688 
L 310.18984 -36.729688 
L 308.212643 -36.729688 
L 306.235446 -36.729688 
L 304.258249 -36.729688 
L 302.281052 -36.729688 
L 300.303855 -36.729688 
L 298.326658 -36.729688 
L 296.349461 -36.729688 
L 294.372264 -36.729688 
L 292.395068 -36.729688 
L 290.417871 -36.729688 
L 288.440674 -36.729688 
L 286.463477 -36.729688 
L 284.48628 -36.729688 
L 282.509083 -36.729688 
L 280.531886 -36.729688 
L 278.554689 -36.729688 
L 276.577492 -36.729688 
L 274.600295 -36.729688 
L 272.623098 -36.729688 
L 270.645902 -36.729688 
L 268.668705 -36.729688 
L 266.691508 -36.729688 
L 264.714311 -36.729688 
L 262.737114 -36.729688 
L 260.759917 -36.729688 
L 258.78272 -36.729688 
L 256.805523 -36.729688 
L 254.828326 -36.729688 
L 252.851129 -36.729688 
L 250.873933 -36.729688 
L 248.896736 -36.729688 
L 246.919539 -36.729688 
L 244.942342 -36.729688 
L 242.965145 -36.729688 
L 240.987948 -36.729688 
L 239.010751 -36.729688 
L 237.033554 -36.729688 
L 235.056357 -36.729688 
L 233.07916 -36.729688 
L 231.101964 -36.729688 
L 229.124767 -36.729688 
L 227.14757 -36.729688 
L 225.170373 -36.729688 
L 223.193176 -36.729688 
L 221.215979 -36.729688 
L 219.238782 -36.729688 
L 217.261585 -36.729688 
L 215.284388 -36.729688 
L 213.307191 -36.729688 
L 211.329994 -36.729688 
L 209.352798 -36.729688 
L 207.375601 -36.729688 
L 205.398404 -36.729688 
L 203.421207 -36.729688 
L 201.44401 -36.729688 
L 199.466813 -36.729688 
L 197.489616 -36.729688 
L 195.512419 -36.729688 
L 193.535222 -36.729688 
L 191.558025 -36.729688 
L 189.580829 -36.729688 
L 187.603632 -36.729688 
L 185.626435 -36.729688 
L 183.649238 -36.729688 
L 181.672041 -36.729688 
L 179.694844 -36.729688 
L 177.717647 -36.729688 
L 175.74045 -36.729688 
L 173.763253 -36.729688 
L 171.786056 -36.729688 
L 169.808859 -36.729688 
L 167.831663 -36.729688 
L 165.854466 -36.729688 
L 163.877269 -36.729688 
L 161.900072 -36.729688 
L 159.922875 -36.729688 
L 157.945678 -36.729688 
L 155.968481 -36.729688 
L 153.991284 -36.729688 
L 152.014087 -36.729688 
L 150.03689 -36.729688 
L 148.059694 -36.729688 
L 146.082497 -36.729688 
L 144.1053 -36.729688 
L 142.128103 -36.729688 
L 140.150906 -36.729688 
L 138.173709 -36.729688 
L 136.196512 -36.729688 
L 134.219315 -36.729688 
L 132.242118 -36.729688 
L 130.264921 -36.729688 
L 128.287725 -36.729688 
L 126.310528 -36.729688 
L 124.333331 -36.729688 
L 122.356134 -36.729688 
L 120.378937 -36.729688 
L 118.40174 -36.729688 
L 116.424543 -36.729688 
L 114.447346 -36.729688 
L 112.470149 -36.729688 
L 110.492952 -36.729688 
L 108.515755 -36.729688 
L 106.538559 -36.729688 
L 104.561362 -36.729688 
L 102.584165 -36.729688 
L 100.606968 -36.729688 
L 98.629771 -36.729688 
L 96.652574 -36.729688 
L 94.675377 -36.729688 
L 92.69818 -36.729688 
L 90.720983 -36.729688 
L 88.743786 -36.729688 
L 86.76659 -36.729688 
L 84.789393 -36.729688 
L 82.812196 -36.729688 
L 80.834999 -36.729688 
L 78.857802 -36.729688 
L 76.880605 -36.729688 
L 74.903408 -36.729688 
L 72.926211 -36.729688 
L 70.949014 -36.729688 
L 68.971817 -36.729688 
L 66.99462 -36.729688 
L 65.017424 -36.729688 
L 63.040227 -36.729688 
L 61.06303 -36.729688 
L 59.085833 -36.729688 
L 57.108636 -36.729688 
L 55.131439 -36.729688 
L 53.154242 -36.729688 
L 51.177045 -36.729688 
L 49.199848 -36.729688 
L 47.222651 -36.729688 
L 45.245455 -36.729688 
z
" style="stroke: #dd8452; stroke-opacity: 0.2"/>
    </defs>
    <g>
     <use xlink:href="#meff804080c" x="0" y="282.943437" style="fill: #dd8452; fill-opacity: 0.2; stroke: #dd8452; stroke-opacity: 0.2"/>
    </g>
   </g>
   <g id="FillBetweenPolyCollection_2">
    <defs>
     <path id="mc653de8aa5" d="M 255.782858 -36.729688 
L 255.782858 -36.781387 
L 258.548545 -36.79861 
L 261.314232 -36.820703 
L 264.079918 -36.848745 
L 266.845605 -36.883958 
L 269.611292 -36.9277 
L 272.376979 -36.981448 
L 275.142666 -37.046771 
L 277.908353 -37.125281 
L 280.67404 -37.218587 
L 283.439727 -37.328219 
L 286.205413 -37.455555 
L 288.9711 -37.601725 
L 291.736787 -37.767521 
L 294.502474 -37.953299 
L 297.268161 -38.15889 
L 300.033848 -38.38352 
L 302.799535 -38.62575 
L 305.565222 -38.883452 
L 308.330908 -39.153801 
L 311.096595 -39.433325 
L 313.862282 -39.717981 
L 316.627969 -40.003285 
L 319.393656 -40.284476 
L 322.159343 -40.556715 
L 324.92503 -40.815318 
L 327.690716 -41.055988 
L 330.456403 -41.275065 
L 333.22209 -41.469754 
L 335.987777 -41.638321 
L 338.753464 -41.780253 
L 341.519151 -41.896365 
L 344.284838 -41.988833 
L 347.050525 -42.061168 
L 349.816211 -42.118122 
L 352.581898 -42.165524 
L 355.347585 -42.21007 
L 358.113272 -42.259064 
L 360.878959 -42.320139 
L 363.644646 -42.400972 
L 366.410333 -42.509005 
L 369.17602 -42.651205 
L 371.941706 -42.833854 
L 374.707393 -43.062412 
L 377.47308 -43.341429 
L 380.238767 -43.674535 
L 383.004454 -44.064488 
L 385.770141 -44.513283 
L 388.535828 -45.022308 
L 391.301515 -45.592535 
L 394.067201 -46.22473 
L 396.832888 -46.919664 
L 399.598575 -47.678316 
L 402.364262 -48.502046 
L 405.129949 -49.392734 
L 407.895636 -50.352866 
L 410.661323 -51.385584 
L 413.42701 -52.494669 
L 416.192696 -53.684484 
L 418.958383 -54.959872 
L 421.72407 -56.326015 
L 424.489757 -57.788266 
L 427.255444 -59.351962 
L 430.021131 -61.022232 
L 432.786818 -62.8038 
L 435.552505 -64.700803 
L 438.318191 -66.716627 
L 441.083878 -68.853757 
L 443.849565 -71.113667 
L 446.615252 -73.496729 
L 449.380939 -76.00216 
L 452.146626 -78.628001 
L 454.912313 -81.371121 
L 457.678 -84.227255 
L 460.443686 -87.191068 
L 463.209373 -90.25624 
L 465.97506 -93.415571 
L 468.740747 -96.661104 
L 471.506434 -99.984254 
L 474.272121 -103.375946 
L 477.037808 -106.82676 
L 479.803494 -110.327068 
L 482.569181 -113.867164 
L 485.334868 -117.437394 
L 488.100555 -121.02826 
L 490.866242 -124.630517 
L 493.631929 -128.235246 
L 496.397616 -131.83391 
L 499.163303 -135.418387 
L 501.928989 -138.980979 
L 504.694676 -142.514404 
L 507.460363 -146.011766 
L 510.22605 -149.466511 
L 512.991737 -152.872363 
L 515.757424 -156.22326 
L 518.523111 -159.513274 
L 521.288798 -162.73654 
L 524.054484 -165.88718 
L 526.820171 -168.959243 
L 529.585858 -171.94665 
L 532.351545 -174.843155 
L 535.117232 -177.642327 
L 537.882919 -180.337541 
L 540.648606 -182.921995 
L 543.414293 -185.388733 
L 546.179979 -187.73069 
L 548.945666 -189.940745 
L 551.711353 -192.011782 
L 554.47704 -193.936759 
L 557.242727 -195.708777 
L 560.008414 -197.321151 
L 562.774101 -198.76748 
L 565.539788 -200.041711 
L 568.305474 -201.138203 
L 571.071161 -202.051782 
L 573.836848 -202.777794 
L 576.602535 -203.312156 
L 579.368222 -203.651391 
L 582.133909 -203.792675 
L 584.899596 -203.733861 
L 587.665283 -203.473515 
L 590.430969 -203.010929 
L 593.196656 -202.34614 
L 595.962343 -201.479937 
L 598.72803 -200.413858 
L 601.493717 -199.15018 
L 604.259404 -197.691904 
L 607.025091 -196.042727 
L 609.790778 -194.207009 
L 612.556464 -192.189741 
L 615.322151 -189.996497 
L 618.087838 -187.6334 
L 620.853525 -185.107075 
L 623.619212 -182.424619 
L 626.384899 -179.59356 
L 629.150586 -176.621838 
L 631.916272 -173.517779 
L 634.681959 -170.290082 
L 637.447646 -166.947809 
L 640.213333 -163.500371 
L 642.97902 -159.957524 
L 645.744707 -156.329351 
L 648.510394 -152.62624 
L 651.276081 -148.858859 
L 654.041767 -145.038103 
L 656.807454 -141.175047 
L 659.573141 -137.280863 
L 662.338828 -133.366744 
L 665.104515 -129.443803 
L 667.870202 -125.522968 
L 670.635889 -121.614881 
L 673.401576 -117.729785 
L 676.167262 -113.877439 
L 678.932949 -110.067025 
L 681.698636 -106.307097 
L 684.464323 -102.605533 
L 687.23001 -98.969525 
L 689.995697 -95.405595 
L 692.761384 -91.919628 
L 695.527071 -88.516933 
L 698.292757 -85.202324 
L 701.058444 -81.980201 
L 703.824131 -78.854642 
L 706.589818 -75.829489 
L 709.355505 -72.908412 
L 712.121192 -70.094966 
L 714.886879 -67.392614 
L 717.652566 -64.804721 
L 720.418252 -62.334524 
L 723.183939 -59.985068 
L 725.949626 -57.75912 
L 728.715313 -55.659065 
L 731.481 -53.686787 
L 734.246687 -51.843557 
L 737.012374 -50.129914 
L 739.778061 -48.545573 
L 742.543747 -47.089352 
L 745.309434 -45.759123 
L 748.075121 -44.551804 
L 750.840808 -43.46338 
L 753.606495 -42.488959 
L 756.372182 -41.622862 
L 759.137869 -40.858737 
L 761.903555 -40.189691 
L 764.669242 -39.608442 
L 767.434929 -39.107472 
L 770.200616 -38.679181 
L 772.966303 -38.316033 
L 775.73199 -38.010686 
L 778.497677 -37.756108 
L 781.263364 -37.545674 
L 784.02905 -37.373233 
L 786.794737 -37.233156 
L 789.560424 -37.120373 
L 792.326111 -37.030369 
L 795.091798 -36.959185 
L 797.857485 -36.903393 
L 800.623172 -36.860058 
L 803.388859 -36.826705 
L 806.154545 -36.80127 
L 806.154545 -36.729688 
L 806.154545 -36.729688 
L 803.388859 -36.729688 
L 800.623172 -36.729688 
L 797.857485 -36.729688 
L 795.091798 -36.729688 
L 792.326111 -36.729688 
L 789.560424 -36.729688 
L 786.794737 -36.729688 
L 784.02905 -36.729688 
L 781.263364 -36.729688 
L 778.497677 -36.729688 
L 775.73199 -36.729688 
L 772.966303 -36.729688 
L 770.200616 -36.729688 
L 767.434929 -36.729688 
L 764.669242 -36.729688 
L 761.903555 -36.729688 
L 759.137869 -36.729688 
L 756.372182 -36.729688 
L 753.606495 -36.729688 
L 750.840808 -36.729688 
L 748.075121 -36.729688 
L 745.309434 -36.729688 
L 742.543747 -36.729688 
L 739.778061 -36.729688 
L 737.012374 -36.729688 
L 734.246687 -36.729688 
L 731.481 -36.729688 
L 728.715313 -36.729688 
L 725.949626 -36.729688 
L 723.183939 -36.729688 
L 720.418252 -36.729688 
L 717.652566 -36.729688 
L 714.886879 -36.729688 
L 712.121192 -36.729688 
L 709.355505 -36.729688 
L 706.589818 -36.729688 
L 703.824131 -36.729688 
L 701.058444 -36.729688 
L 698.292757 -36.729688 
L 695.527071 -36.729688 
L 692.761384 -36.729688 
L 689.995697 -36.729688 
L 687.23001 -36.729688 
L 684.464323 -36.729688 
L 681.698636 -36.729688 
L 678.932949 -36.729688 
L 676.167262 -36.729688 
L 673.401576 -36.729688 
L 670.635889 -36.729688 
L 667.870202 -36.729688 
L 665.104515 -36.729688 
L 662.338828 -36.729688 
L 659.573141 -36.729688 
L 656.807454 -36.729688 
L 654.041767 -36.729688 
L 651.276081 -36.729688 
L 648.510394 -36.729688 
L 645.744707 -36.729688 
L 642.97902 -36.729688 
L 640.213333 -36.729688 
L 637.447646 -36.729688 
L 634.681959 -36.729688 
L 631.916272 -36.729688 
L 629.150586 -36.729688 
L 626.384899 -36.729688 
L 623.619212 -36.729688 
L 620.853525 -36.729688 
L 618.087838 -36.729688 
L 615.322151 -36.729688 
L 612.556464 -36.729688 
L 609.790778 -36.729688 
L 607.025091 -36.729688 
L 604.259404 -36.729688 
L 601.493717 -36.729688 
L 598.72803 -36.729688 
L 595.962343 -36.729688 
L 593.196656 -36.729688 
L 590.430969 -36.729688 
L 587.665283 -36.729688 
L 584.899596 -36.729688 
L 582.133909 -36.729688 
L 579.368222 -36.729688 
L 576.602535 -36.729688 
L 573.836848 -36.729688 
L 571.071161 -36.729688 
L 568.305474 -36.729688 
L 565.539788 -36.729688 
L 562.774101 -36.729688 
L 560.008414 -36.729688 
L 557.242727 -36.729688 
L 554.47704 -36.729688 
L 551.711353 -36.729688 
L 548.945666 -36.729688 
L 546.179979 -36.729688 
L 543.414293 -36.729688 
L 540.648606 -36.729688 
L 537.882919 -36.729688 
L 535.117232 -36.729688 
L 532.351545 -36.729688 
L 529.585858 -36.729688 
L 526.820171 -36.729688 
L 524.054484 -36.729688 
L 521.288798 -36.729688 
L 518.523111 -36.729688 
L 515.757424 -36.729688 
L 512.991737 -36.729688 
L 510.22605 -36.729688 
L 507.460363 -36.729688 
L 504.694676 -36.729688 
L 501.928989 -36.729688 
L 499.163303 -36.729688 
L 496.397616 -36.729688 
L 493.631929 -36.729688 
L 490.866242 -36.729688 
L 488.100555 -36.729688 
L 485.334868 -36.729688 
L 482.569181 -36.729688 
L 479.803494 -36.729688 
L 477.037808 -36.729688 
L 474.272121 -36.729688 
L 471.506434 -36.729688 
L 468.740747 -36.729688 
L 465.97506 -36.729688 
L 463.209373 -36.729688 
L 460.443686 -36.729688 
L 457.678 -36.729688 
L 454.912313 -36.729688 
L 452.146626 -36.729688 
L 449.380939 -36.729688 
L 446.615252 -36.729688 
L 443.849565 -36.729688 
L 441.083878 -36.729688 
L 438.318191 -36.729688 
L 435.552505 -36.729688 
L 432.786818 -36.729688 
L 430.021131 -36.729688 
L 427.255444 -36.729688 
L 424.489757 -36.729688 
L 421.72407 -36.729688 
L 418.958383 -36.729688 
L 416.192696 -36.729688 
L 413.42701 -36.729688 
L 410.661323 -36.729688 
L 407.895636 -36.729688 
L 405.129949 -36.729688 
L 402.364262 -36.729688 
L 399.598575 -36.729688 
L 396.832888 -36.729688 
L 394.067201 -36.729688 
L 391.301515 -36.729688 
L 388.535828 -36.729688 
L 385.770141 -36.729688 
L 383.004454 -36.729688 
L 380.238767 -36.729688 
L 377.47308 -36.729688 
L 374.707393 -36.729688 
L 371.941706 -36.729688 
L 369.17602 -36.729688 
L 366.410333 -36.729688 
L 363.644646 -36.729688 
L 360.878959 -36.729688 
L 358.113272 -36.729688 
L 355.347585 -36.729688 
L 352.581898 -36.729688 
L 349.816211 -36.729688 
L 347.050525 -36.729688 
L 344.284838 -36.729688 
L 341.519151 -36.729688 
L 338.753464 -36.729688 
L 335.987777 -36.729688 
L 333.22209 -36.729688 
L 330.456403 -36.729688 
L 327.690716 -36.729688 
L 324.92503 -36.729688 
L 322.159343 -36.729688 
L 319.393656 -36.729688 
L 316.627969 -36.729688 
L 313.862282 -36.729688 
L 311.096595 -36.729688 
L 308.330908 -36.729688 
L 305.565222 -36.729688 
L 302.799535 -36.729688 
L 300.033848 -36.729688 
L 297.268161 -36.729688 
L 294.502474 -36.729688 
L 291.736787 -36.729688 
L 288.9711 -36.729688 
L 286.205413 -36.729688 
L 283.439727 -36.729688 
L 280.67404 -36.729688 
L 277.908353 -36.729688 
L 275.142666 -36.729688 
L 272.376979 -36.729688 
L 269.611292 -36.729688 
L 266.845605 -36.729688 
L 264.079918 -36.729688 
L 261.314232 -36.729688 
L 258.548545 -36.729688 
L 255.782858 -36.729688 
z
" style="stroke: #4c72b0; stroke-opacity: 0.2"/>
    </defs>
    <g>
     <use xlink:href="#mc653de8aa5" x="0" y="282.943437" style="fill: #4c72b0; fill-opacity: 0.2; stroke: #4c72b0; stroke-opacity: 0.2"/>
    </g>
   </g>
   <g id="FillBetweenPolyCollection_3">
    <defs>
     <path id="m9b253b7fd2" d="M 45.245455 -36.807738 
L 45.245455 -36.729688 
L 47.222651 -36.729688 
L 49.199848 -36.729688 
L 51.177045 -36.729688 
L 53.154242 -36.729688 
L 55.131439 -36.729688 
L 57.108636 -36.729688 
L 59.085833 -36.729688 
L 61.06303 -36.729688 
L 63.040227 -36.729688 
L 65.017424 -36.729688 
L 66.99462 -36.729688 
L 68.971817 -36.729688 
L 70.949014 -36.729688 
L 72.926211 -36.729688 
L 74.903408 -36.729688 
L 76.880605 -36.729688 
L 78.857802 -36.729688 
L 80.834999 -36.729688 
L 82.812196 -36.729688 
L 84.789393 -36.729688 
L 86.76659 -36.729688 
L 88.743786 -36.729688 
L 90.720983 -36.729688 
L 92.69818 -36.729688 
L 94.675377 -36.729688 
L 96.652574 -36.729688 
L 98.629771 -36.729688 
L 100.606968 -36.729688 
L 102.584165 -36.729688 
L 104.561362 -36.729688 
L 106.538559 -36.729688 
L 108.515755 -36.729688 
L 110.492952 -36.729688 
L 112.470149 -36.729688 
L 114.447346 -36.729688 
L 116.424543 -36.729688 
L 118.40174 -36.729688 
L 120.378937 -36.729688 
L 122.356134 -36.729688 
L 124.333331 -36.729688 
L 126.310528 -36.729688 
L 128.287725 -36.729688 
L 130.264921 -36.729688 
L 132.242118 -36.729688 
L 134.219315 -36.729688 
L 136.196512 -36.729688 
L 138.173709 -36.729688 
L 140.150906 -36.729688 
L 142.128103 -36.729688 
L 144.1053 -36.729688 
L 146.082497 -36.729688 
L 148.059694 -36.729688 
L 150.03689 -36.729688 
L 152.014087 -36.729688 
L 153.991284 -36.729688 
L 155.968481 -36.729688 
L 157.945678 -36.729688 
L 159.922875 -36.729688 
L 161.900072 -36.729688 
L 163.877269 -36.729688 
L 165.854466 -36.729688 
L 167.831663 -36.729688 
L 169.808859 -36.729688 
L 171.786056 -36.729688 
L 173.763253 -36.729688 
L 175.74045 -36.729688 
L 177.717647 -36.729688 
L 179.694844 -36.729688 
L 181.672041 -36.729688 
L 183.649238 -36.729688 
L 185.626435 -36.729688 
L 187.603632 -36.729688 
L 189.580829 -36.729688 
L 191.558025 -36.729688 
L 193.535222 -36.729688 
L 195.512419 -36.729688 
L 197.489616 -36.729688 
L 199.466813 -36.729688 
L 201.44401 -36.729688 
L 203.421207 -36.729688 
L 205.398404 -36.729688 
L 207.375601 -36.729688 
L 209.352798 -36.729688 
L 211.329994 -36.729688 
L 213.307191 -36.729688 
L 215.284388 -36.729688 
L 217.261585 -36.729688 
L 219.238782 -36.729688 
L 221.215979 -36.729688 
L 223.193176 -36.729688 
L 225.170373 -36.729688 
L 227.14757 -36.729688 
L 229.124767 -36.729688 
L 231.101964 -36.729688 
L 233.07916 -36.729688 
L 235.056357 -36.729688 
L 237.033554 -36.729688 
L 239.010751 -36.729688 
L 240.987948 -36.729688 
L 242.965145 -36.729688 
L 244.942342 -36.729688 
L 246.919539 -36.729688 
L 248.896736 -36.729688 
L 250.873933 -36.729688 
L 252.851129 -36.729688 
L 254.828326 -36.729688 
L 256.805523 -36.729688 
L 258.78272 -36.729688 
L 260.759917 -36.729688 
L 262.737114 -36.729688 
L 264.714311 -36.729688 
L 266.691508 -36.729688 
L 268.668705 -36.729688 
L 270.645902 -36.729688 
L 272.0293 -36.729688 
L 272.0293 -200.324021 
L 272.0293 -200.324021 
L 270.645902 -202.88509 
L 268.668705 -206.491942 
L 266.691508 -210.023686 
L 264.714311 -213.469586 
L 262.737114 -216.818475 
L 260.759917 -220.05878 
L 258.78272 -223.178575 
L 256.805523 -226.165662 
L 254.828326 -229.007684 
L 252.851129 -231.692264 
L 250.873933 -234.207176 
L 248.896736 -236.540538 
L 246.919539 -238.681018 
L 244.942342 -240.618051 
L 242.965145 -242.342056 
L 240.987948 -243.844644 
L 239.010751 -245.118798 
L 237.033554 -246.159032 
L 235.056357 -246.961504 
L 233.07916 -247.524086 
L 231.101964 -247.846382 
L 229.124767 -247.929688 
L 227.14757 -247.776905 
L 225.170373 -247.3924 
L 223.193176 -246.781812 
L 221.215979 -245.951835 
L 219.238782 -244.909962 
L 217.261585 -243.664225 
L 215.284388 -242.222918 
L 213.307191 -240.594344 
L 211.329994 -238.786576 
L 209.352798 -236.807257 
L 207.375601 -234.663439 
L 205.398404 -232.361474 
L 203.421207 -229.90696 
L 201.44401 -227.304742 
L 199.466813 -224.558968 
L 197.489616 -221.673191 
L 195.512419 -218.650516 
L 193.535222 -215.493777 
L 191.558025 -212.205734 
L 189.580829 -208.789283 
L 187.603632 -205.247659 
L 185.626435 -201.584629 
L 183.649238 -197.804656 
L 181.672041 -193.91304 
L 179.694844 -189.916009 
L 177.717647 -185.820778 
L 175.74045 -181.635567 
L 173.763253 -177.369567 
L 171.786056 -173.03288 
L 169.808859 -168.636418 
L 167.831663 -164.191781 
L 165.854466 -159.71111 
L 163.877269 -155.206924 
L 161.900072 -150.691959 
L 159.922875 -146.178996 
L 157.945678 -141.680698 
L 155.968481 -137.209451 
L 153.991284 -132.777224 
L 152.014087 -128.395437 
L 150.03689 -124.074843 
L 148.059694 -119.825437 
L 146.082497 -115.656374 
L 144.1053 -111.575912 
L 142.128103 -107.591368 
L 140.150906 -103.7091 
L 138.173709 -99.934508 
L 136.196512 -96.272044 
L 134.219315 -92.725255 
L 132.242118 -89.296829 
L 130.264921 -85.988666 
L 128.287725 -82.801958 
L 126.310528 -79.737271 
L 124.333331 -76.794649 
L 122.356134 -73.973704 
L 120.378937 -71.273713 
L 118.40174 -68.693708 
L 116.424543 -66.232548 
L 114.447346 -63.88899 
L 112.470149 -61.661733 
L 110.492952 -59.54945 
L 108.515755 -57.550797 
L 106.538559 -55.664414 
L 104.561362 -53.888897 
L 102.584165 -52.222763 
L 100.606968 -50.664411 
L 98.629771 -49.212066 
L 96.652574 -47.863729 
L 94.675377 -46.617128 
L 92.69818 -45.469677 
L 90.720983 -44.418444 
L 88.743786 -43.460132 
L 86.76659 -42.591077 
L 84.789393 -41.807258 
L 82.812196 -41.104325 
L 80.834999 -40.477641 
L 78.857802 -39.92233 
L 76.880605 -39.433345 
L 74.903408 -39.005532 
L 72.926211 -38.633704 
L 70.949014 -38.312705 
L 68.971817 -38.037488 
L 66.99462 -37.803166 
L 65.017424 -37.605075 
L 63.040227 -37.438813 
L 61.06303 -37.30028 
L 59.085833 -37.185698 
L 57.108636 -37.091629 
L 55.131439 -37.014977 
L 53.154242 -36.952987 
L 51.177045 -36.903237 
L 49.199848 -36.863613 
L 47.222651 -36.832297 
L 45.245455 -36.807738 
z
"/>
    </defs>
    <g>
     <use xlink:href="#m9b253b7fd2" x="0" y="282.943437" style="fill: #dd8452; fill-opacity: 0.3"/>
    </g>
   </g>
   <g id="FillBetweenPolyCollection_4">
    <defs>
     <path id="maafa125680" d="M 255.782858 -36.781387 
L 255.782858 -36.729688 
L 258.548545 -36.729688 
L 261.314232 -36.729688 
L 264.079918 -36.729688 
L 266.845605 -36.729688 
L 269.611292 -36.729688 
L 272.0293 -36.729688 
L 272.0293 -36.974607 
L 272.0293 -36.974607 
L 269.611292 -36.9277 
L 266.845605 -36.883958 
L 264.079918 -36.848745 
L 261.314232 -36.820703 
L 258.548545 -36.79861 
L 255.782858 -36.781387 
z
"/>
    </defs>
    <g>
     <use xlink:href="#maafa125680" x="0" y="282.943437" style="fill: #4c72b0; fill-opacity: 0.3"/>
    </g>
   </g>
   <g id="line2d_35">
    <path d="M 45.245455 246.1357 
L 55.131439 245.928461 
L 61.06303 245.643157 
L 66.99462 245.140272 
L 70.949014 244.630732 
L 74.903408 243.937905 
L 78.857802 243.021108 
L 82.812196 241.839112 
L 86.76659 240.35236 
L 90.720983 238.524993 
L 94.675377 236.32631 
L 98.629771 233.731372 
L 102.584165 230.720675 
L 106.538559 227.279023 
L 110.492952 223.393988 
L 114.447346 219.054447 
L 118.40174 214.24973 
L 122.356134 208.969734 
L 126.310528 203.206167 
L 130.264921 196.954771 
L 134.219315 190.218183 
L 138.173709 183.00893 
L 142.128103 175.35207 
L 146.082497 167.287063 
L 152.014087 154.548001 
L 159.922875 136.764441 
L 171.786056 109.910558 
L 177.717647 97.122659 
L 181.672041 89.030397 
L 185.626435 81.358809 
L 189.580829 74.154155 
L 193.535222 67.44966 
L 197.489616 61.270246 
L 201.44401 55.638696 
L 205.398404 50.581964 
L 209.352798 46.13618 
L 211.329994 44.156862 
L 213.307191 42.349094 
L 215.284388 40.72052 
L 217.261585 39.279213 
L 219.238782 38.033475 
L 221.215979 36.991603 
L 223.193176 36.161626 
L 225.170373 35.551038 
L 227.14757 35.166532 
L 229.124767 35.01375 
L 231.101964 35.097056 
L 233.07916 35.419351 
L 235.056357 35.981934 
L 237.033554 36.784406 
L 239.010751 37.82464 
L 240.987948 39.098794 
L 242.965145 40.601381 
L 244.942342 42.325387 
L 246.919539 44.262419 
L 248.896736 46.402899 
L 250.873933 48.736261 
L 254.828326 53.935754 
L 258.78272 59.764862 
L 262.737114 66.124963 
L 266.691508 72.919752 
L 272.623098 83.730008 
L 280.531886 98.87295 
L 296.349461 129.585479 
L 302.281052 140.636295 
L 308.212643 151.176276 
L 312.167037 157.859347 
L 316.12143 164.237802 
L 320.075824 170.296338 
L 324.030218 176.028929 
L 327.984612 181.438542 
L 331.939006 186.536408 
L 335.893399 191.340864 
L 339.847793 195.875771 
L 343.802187 200.168547 
L 349.733778 206.216151 
L 355.665368 211.871591 
L 361.596959 217.196902 
L 367.52855 222.211748 
L 373.460141 226.886927 
L 377.414534 229.781313 
L 381.368928 232.466865 
L 385.323322 234.916538 
L 389.277716 237.107294 
L 393.23211 239.023653 
L 397.186503 240.660129 
L 401.140897 242.022178 
L 405.095291 243.125646 
L 409.049685 243.994909 
L 413.004079 244.660181 
L 418.935669 245.347947 
L 424.86726 245.760148 
L 432.776048 246.040219 
L 438.707638 246.135509 
L 438.707638 246.135509 
" style="fill: none; stroke: #dd8452; stroke-width: 1.5; stroke-linecap: round"/>
   </g>
   <g id="line2d_36">
    <path d="M 255.782858 246.162051 
L 272.376979 245.961989 
L 283.439727 245.615218 
L 291.736787 245.175917 
L 300.033848 244.559918 
L 311.096595 243.510112 
L 327.690716 241.88745 
L 335.987777 241.305117 
L 344.284838 240.954605 
L 369.17602 240.292233 
L 374.707393 239.881026 
L 380.238767 239.268903 
L 385.770141 238.430155 
L 391.301515 237.350903 
L 396.832888 236.023774 
L 402.364262 234.441391 
L 407.895636 232.590571 
L 413.42701 230.448768 
L 418.958383 227.983565 
L 424.489757 225.155171 
L 430.021131 221.921205 
L 435.552505 218.242634 
L 441.083878 214.089681 
L 446.615252 209.446709 
L 452.146626 204.315436 
L 457.678 198.716183 
L 463.209373 192.687198 
L 468.740747 186.282333 
L 474.272121 179.567491 
L 482.569181 169.076273 
L 510.22605 133.476927 
L 518.523111 123.430163 
L 524.054484 117.056257 
L 529.585858 110.996788 
L 535.117232 105.301111 
L 540.648606 100.021442 
L 546.179979 95.212747 
L 551.711353 90.931655 
L 554.47704 89.006679 
L 557.242727 87.234661 
L 560.008414 85.622287 
L 562.774101 84.175958 
L 565.539788 82.901727 
L 568.305474 81.805235 
L 571.071161 80.891656 
L 573.836848 80.165643 
L 576.602535 79.631282 
L 579.368222 79.292046 
L 582.133909 79.150763 
L 584.899596 79.209576 
L 587.665283 79.469922 
L 590.430969 79.932509 
L 593.196656 80.597297 
L 595.962343 81.4635 
L 598.72803 82.529579 
L 601.493717 83.793257 
L 604.259404 85.251533 
L 607.025091 86.900711 
L 609.790778 88.736428 
L 612.556464 90.753697 
L 615.322151 92.94694 
L 618.087838 95.310038 
L 620.853525 97.836362 
L 626.384899 103.349878 
L 631.916272 109.425659 
L 637.447646 115.995629 
L 642.97902 122.985913 
L 648.510394 130.317197 
L 656.807454 141.768391 
L 681.698636 176.636341 
L 687.23001 183.973912 
L 692.761384 191.02381 
L 698.292757 197.741113 
L 703.824131 204.088795 
L 709.355505 210.035026 
L 714.886879 215.550824 
L 720.418252 220.608913 
L 725.949626 225.184317 
L 731.481 229.25665 
L 737.012374 232.813524 
L 739.778061 234.397864 
L 742.543747 235.854085 
L 748.075121 238.391633 
L 753.606495 240.454479 
L 759.137869 242.0847 
L 764.669242 243.334996 
L 770.200616 244.264256 
L 775.73199 244.932752 
L 781.263364 245.397763 
L 789.560424 245.823065 
L 800.623172 246.08338 
L 806.154545 246.142168 
L 806.154545 246.142168 
" style="fill: none; stroke: #4c72b0; stroke-width: 1.5; stroke-linecap: round"/>
   </g>
   <g id="line2d_37">
    <path d="M 272.0293 246.21375 
L 272.0293 24.45375 
" style="fill: none; stroke-dasharray: 0.8,1.32; stroke-dashoffset: 0; stroke: #d3d3d3; stroke-width: 0.8"/>
   </g>
   <g id="line2d_38">
    <path d="M 7.2 246.21375 
L 844.2 246.21375 
" style="fill: none; stroke: #808080; stroke-width: 0.5; stroke-linecap: round"/>
   </g>
   <g id="AnnotationBbox_1">
    <g id="text_13">
     <text style="font-weight: 700; font-size: 8px; font-family: 'Arial', 'DejaVu Sans', 'Liberation Sans', 'Bitstream Vera Sans', sans-serif; text-anchor: end; fill: #808080" x="272.0293" y="12.92625" transform="rotate(-0 272.0293 12.92625)">International Poverty Line</text>
    </g>
    <g id="text_14">
     <text style="font-size: 8px; font-family: 'Arial', 'DejaVu Sans', 'Liberation Sans', 'Bitstream Vera Sans', sans-serif; text-anchor: end; fill: #808080" x="272.0293" y="22.86375" transform="rotate(-0 272.0293 22.86375)">$90 per month</text>
    </g>
   </g>
   <g id="text_15">
    <text style="font-size: 10px; font-family: 'Arial', 'DejaVu Sans', 'Liberation Sans', 'Bitstream Vera Sans', sans-serif; text-anchor: middle" x="578.249804" y="244.109062" transform="rotate(-0 578.249804 244.109062)">United States (2024)</text>
   </g>
   <g id="text_16">
    <text style="font-size: 10px; font-family: 'Arial', 'DejaVu Sans', 'Liberation Sans', 'Bitstream Vera Sans', sans-serif; text-anchor: middle" x="232.596636" y="244.109062" transform="rotate(-0 232.596636 244.109062)">Burundi (2020)</text>
   </g>
  </g>
 </g>
</svg>
