<?xml version="1.0" encoding="utf-8" standalone="no"?>
<!DOCTYPE svg PUBLIC "-//W3C//DTD SVG 1.1//EN"
  "http://www.w3.org/Graphics/SVG/1.1/DTD/svg11.dtd">
<svg xmlns:xlink="http://www.w3.org/1999/xlink" width="851.4pt" height="265.689687pt" viewBox="0 0 851.4 265.689687" xmlns="http://www.w3.org/2000/svg" version="1.1">
 <metadata>
  <rdf:RDF xmlns:dc="http://purl.org/dc/elements/1.1/" xmlns:cc="http://creativecommons.org/ns#" xmlns:rdf="http://www.w3.org/1999/02/22-rdf-syntax-ns#">
   <cc:Work>
    <dc:type rdf:resource="http://purl.org/dc/dcmitype/StillImage"/>
    <dc:date>2025-04-15T11:23:22.199517</dc:date>
    <dc:format>image/svg+xml</dc:format>
    <dc:creator>
     <cc:Agent>
      <dc:title>Matplotlib v3.10.1, https://matplotlib.org/</dc:title>
     </cc:Agent>
    </dc:creator>
   </cc:Work>
  </rdf:RDF>
 </metadata>
 <defs>
  <style type="text/css">*{stroke-linejoin: round; stroke-linecap: butt}</style>
 </defs>
 <g id="figure_1">
  <g id="patch_1">
   <path d="M 0 265.689687 
L 851.4 265.689687 
L 851.4 0 
L 0 0 
z
" style="fill: #ffffff"/>
  </g>
  <g id="axes_1">
   <g id="patch_2">
    <path d="M 7.2 228.96 
L 844.2 228.96 
L 844.2 7.2 
L 7.2 7.2 
z
" style="fill: #ffffff"/>
   </g>
   <g id="matplotlib.axis_1">
    <g id="xtick_1">
     <g id="line2d_1">
      <defs>
       <path id="m43deab0277" d="M 0 0 
L 0 3.5 
" style="stroke: #262626; stroke-width: 0.8"/>
      </defs>
      <g>
       <use xlink:href="#m43deab0277" x="232.641833" y="228.96" style="fill: #262626; stroke: #262626; stroke-width: 0.8"/>
      </g>
     </g>
     <g id="text_1">
      <text style="font-size: 10px; font-family: 'Arial', 'DejaVu Sans', 'Liberation Sans', 'Bitstream Vera Sans', sans-serif; text-anchor: middle; fill: #262626" x="232.641833" y="243.117812" transform="rotate(-0 232.641833 243.117812)">1</text>
     </g>
    </g>
    <g id="xtick_2">
     <g id="line2d_2">
      <g>
       <use xlink:href="#m43deab0277" x="285.757625" y="228.96" style="fill: #262626; stroke: #262626; stroke-width: 0.8"/>
      </g>
     </g>
     <g id="text_2">
      <text style="font-size: 10px; font-family: 'Arial', 'DejaVu Sans', 'Liberation Sans', 'Bitstream Vera Sans', sans-serif; text-anchor: middle; fill: #262626" x="285.757625" y="243.117812" transform="rotate(-0 285.757625 243.117812)">2</text>
     </g>
    </g>
    <g id="xtick_3">
     <g id="line2d_3">
      <g>
       <use xlink:href="#m43deab0277" x="355.972883" y="228.96" style="fill: #262626; stroke: #262626; stroke-width: 0.8"/>
      </g>
     </g>
     <g id="text_3">
      <text style="font-size: 10px; font-family: 'Arial', 'DejaVu Sans', 'Liberation Sans', 'Bitstream Vera Sans', sans-serif; text-anchor: middle; fill: #262626" x="355.972883" y="243.117812" transform="rotate(-0 355.972883 243.117812)">5</text>
     </g>
    </g>
    <g id="xtick_4">
     <g id="line2d_4">
      <g>
       <use xlink:href="#m43deab0277" x="409.088675" y="228.96" style="fill: #262626; stroke: #262626; stroke-width: 0.8"/>
      </g>
     </g>
     <g id="text_4">
      <text style="font-size: 10px; font-family: 'Arial', 'DejaVu Sans', 'Liberation Sans', 'Bitstream Vera Sans', sans-serif; text-anchor: middle; fill: #262626" x="409.088675" y="243.117812" transform="rotate(-0 409.088675 243.117812)">10</text>
     </g>
    </g>
    <g id="xtick_5">
     <g id="line2d_5">
      <g>
       <use xlink:href="#m43deab0277" x="462.204467" y="228.96" style="fill: #262626; stroke: #262626; stroke-width: 0.8"/>
      </g>
     </g>
     <g id="text_5">
      <text style="font-size: 10px; font-family: 'Arial', 'DejaVu Sans', 'Liberation Sans', 'Bitstream Vera Sans', sans-serif; text-anchor: middle; fill: #262626" x="462.204467" y="243.117812" transform="rotate(-0 462.204467 243.117812)">20</text>
     </g>
    </g>
    <g id="xtick_6">
     <g id="line2d_6">
      <g>
       <use xlink:href="#m43deab0277" x="532.419725" y="228.96" style="fill: #262626; stroke: #262626; stroke-width: 0.8"/>
      </g>
     </g>
     <g id="text_6">
      <text style="font-size: 10px; font-family: 'Arial', 'DejaVu Sans', 'Liberation Sans', 'Bitstream Vera Sans', sans-serif; text-anchor: middle; fill: #262626" x="532.419725" y="243.117812" transform="rotate(-0 532.419725 243.117812)">50</text>
     </g>
    </g>
    <g id="xtick_7">
     <g id="line2d_7">
      <g>
       <use xlink:href="#m43deab0277" x="585.535517" y="228.96" style="fill: #262626; stroke: #262626; stroke-width: 0.8"/>
      </g>
     </g>
     <g id="text_7">
      <text style="font-size: 10px; font-family: 'Arial', 'DejaVu Sans', 'Liberation Sans', 'Bitstream Vera Sans', sans-serif; text-anchor: middle; fill: #262626" x="585.535517" y="243.117812" transform="rotate(-0 585.535517 243.117812)">100</text>
     </g>
    </g>
    <g id="xtick_8">
     <g id="line2d_8">
      <g>
       <use xlink:href="#m43deab0277" x="638.65131" y="228.96" style="fill: #262626; stroke: #262626; stroke-width: 0.8"/>
      </g>
     </g>
     <g id="text_8">
      <text style="font-size: 10px; font-family: 'Arial', 'DejaVu Sans', 'Liberation Sans', 'Bitstream Vera Sans', sans-serif; text-anchor: middle; fill: #262626" x="638.65131" y="243.117812" transform="rotate(-0 638.65131 243.117812)">200</text>
     </g>
    </g>
    <g id="xtick_9">
     <g id="line2d_9">
      <g>
       <use xlink:href="#m43deab0277" x="708.866568" y="228.96" style="fill: #262626; stroke: #262626; stroke-width: 0.8"/>
      </g>
     </g>
     <g id="text_9">
      <text style="font-size: 10px; font-family: 'Arial', 'DejaVu Sans', 'Liberation Sans', 'Bitstream Vera Sans', sans-serif; text-anchor: middle; fill: #262626" x="708.866568" y="243.117812" transform="rotate(-0 708.866568 243.117812)">500</text>
     </g>
    </g>
    <g id="xtick_10">
     <g id="line2d_10">
      <g>
       <use xlink:href="#m43deab0277" x="761.98236" y="228.96" style="fill: #262626; stroke: #262626; stroke-width: 0.8"/>
      </g>
     </g>
     <g id="text_10">
      <text style="font-size: 10px; font-family: 'Arial', 'DejaVu Sans', 'Liberation Sans', 'Bitstream Vera Sans', sans-serif; text-anchor: middle; fill: #262626" x="761.98236" y="243.117812" transform="rotate(-0 761.98236 243.117812)">1000</text>
     </g>
    </g>
    <g id="xtick_11">
     <g id="line2d_11">
      <defs>
       <path id="m8b249ac549" d="M 0 0 
L 0 2 
" style="stroke: #262626; stroke-width: 0.6"/>
      </defs>
      <g>
       <use xlink:href="#m8b249ac549" x="17.050479" y="228.96" style="fill: #262626; stroke: #262626; stroke-width: 0.6"/>
      </g>
     </g>
    </g>
    <g id="xtick_12">
     <g id="line2d_12">
      <g>
       <use xlink:href="#m8b249ac549" x="28.863028" y="228.96" style="fill: #262626; stroke: #262626; stroke-width: 0.6"/>
      </g>
     </g>
    </g>
    <g id="xtick_13">
     <g id="line2d_13">
      <g>
       <use xlink:href="#m8b249ac549" x="39.095524" y="228.96" style="fill: #262626; stroke: #262626; stroke-width: 0.6"/>
      </g>
     </g>
    </g>
    <g id="xtick_14">
     <g id="line2d_14">
      <g>
       <use xlink:href="#m8b249ac549" x="48.121225" y="228.96" style="fill: #262626; stroke: #262626; stroke-width: 0.6"/>
      </g>
     </g>
    </g>
    <g id="xtick_15">
     <g id="line2d_15">
      <g>
       <use xlink:href="#m8b249ac549" x="109.310782" y="228.96" style="fill: #262626; stroke: #262626; stroke-width: 0.6"/>
      </g>
     </g>
    </g>
    <g id="xtick_16">
     <g id="line2d_16">
      <g>
       <use xlink:href="#m8b249ac549" x="140.381529" y="228.96" style="fill: #262626; stroke: #262626; stroke-width: 0.6"/>
      </g>
     </g>
    </g>
    <g id="xtick_17">
     <g id="line2d_17">
      <g>
       <use xlink:href="#m8b249ac549" x="162.426575" y="228.96" style="fill: #262626; stroke: #262626; stroke-width: 0.6"/>
      </g>
     </g>
    </g>
    <g id="xtick_18">
     <g id="line2d_18">
      <g>
       <use xlink:href="#m8b249ac549" x="179.52604" y="228.96" style="fill: #262626; stroke: #262626; stroke-width: 0.6"/>
      </g>
     </g>
    </g>
    <g id="xtick_19">
     <g id="line2d_19">
      <g>
       <use xlink:href="#m8b249ac549" x="193.497321" y="228.96" style="fill: #262626; stroke: #262626; stroke-width: 0.6"/>
      </g>
     </g>
    </g>
    <g id="xtick_20">
     <g id="line2d_20">
      <g>
       <use xlink:href="#m8b249ac549" x="205.309871" y="228.96" style="fill: #262626; stroke: #262626; stroke-width: 0.6"/>
      </g>
     </g>
    </g>
    <g id="xtick_21">
     <g id="line2d_21">
      <g>
       <use xlink:href="#m8b249ac549" x="215.542367" y="228.96" style="fill: #262626; stroke: #262626; stroke-width: 0.6"/>
      </g>
     </g>
    </g>
    <g id="xtick_22">
     <g id="line2d_22">
      <g>
       <use xlink:href="#m8b249ac549" x="224.568068" y="228.96" style="fill: #262626; stroke: #262626; stroke-width: 0.6"/>
      </g>
     </g>
    </g>
    <g id="xtick_23">
     <g id="line2d_23">
      <g>
       <use xlink:href="#m8b249ac549" x="316.828371" y="228.96" style="fill: #262626; stroke: #262626; stroke-width: 0.6"/>
      </g>
     </g>
    </g>
    <g id="xtick_24">
     <g id="line2d_24">
      <g>
       <use xlink:href="#m8b249ac549" x="338.873417" y="228.96" style="fill: #262626; stroke: #262626; stroke-width: 0.6"/>
      </g>
     </g>
    </g>
    <g id="xtick_25">
     <g id="line2d_25">
      <g>
       <use xlink:href="#m8b249ac549" x="369.944164" y="228.96" style="fill: #262626; stroke: #262626; stroke-width: 0.6"/>
      </g>
     </g>
    </g>
    <g id="xtick_26">
     <g id="line2d_26">
      <g>
       <use xlink:href="#m8b249ac549" x="381.756713" y="228.96" style="fill: #262626; stroke: #262626; stroke-width: 0.6"/>
      </g>
     </g>
    </g>
    <g id="xtick_27">
     <g id="line2d_27">
      <g>
       <use xlink:href="#m8b249ac549" x="391.989209" y="228.96" style="fill: #262626; stroke: #262626; stroke-width: 0.6"/>
      </g>
     </g>
    </g>
    <g id="xtick_28">
     <g id="line2d_28">
      <g>
       <use xlink:href="#m8b249ac549" x="401.01491" y="228.96" style="fill: #262626; stroke: #262626; stroke-width: 0.6"/>
      </g>
     </g>
    </g>
    <g id="xtick_29">
     <g id="line2d_29">
      <g>
       <use xlink:href="#m8b249ac549" x="493.275214" y="228.96" style="fill: #262626; stroke: #262626; stroke-width: 0.6"/>
      </g>
     </g>
    </g>
    <g id="xtick_30">
     <g id="line2d_30">
      <g>
       <use xlink:href="#m8b249ac549" x="515.320259" y="228.96" style="fill: #262626; stroke: #262626; stroke-width: 0.6"/>
      </g>
     </g>
    </g>
    <g id="xtick_31">
     <g id="line2d_31">
      <g>
       <use xlink:href="#m8b249ac549" x="546.391006" y="228.96" style="fill: #262626; stroke: #262626; stroke-width: 0.6"/>
      </g>
     </g>
    </g>
    <g id="xtick_32">
     <g id="line2d_32">
      <g>
       <use xlink:href="#m8b249ac549" x="558.203556" y="228.96" style="fill: #262626; stroke: #262626; stroke-width: 0.6"/>
      </g>
     </g>
    </g>
    <g id="xtick_33">
     <g id="line2d_33">
      <g>
       <use xlink:href="#m8b249ac549" x="568.436052" y="228.96" style="fill: #262626; stroke: #262626; stroke-width: 0.6"/>
      </g>
     </g>
    </g>
    <g id="xtick_34">
     <g id="line2d_34">
      <g>
       <use xlink:href="#m8b249ac549" x="577.461753" y="228.96" style="fill: #262626; stroke: #262626; stroke-width: 0.6"/>
      </g>
     </g>
    </g>
    <g id="xtick_35">
     <g id="line2d_35">
      <g>
       <use xlink:href="#m8b249ac549" x="669.722056" y="228.96" style="fill: #262626; stroke: #262626; stroke-width: 0.6"/>
      </g>
     </g>
    </g>
    <g id="xtick_36">
     <g id="line2d_36">
      <g>
       <use xlink:href="#m8b249ac549" x="691.767102" y="228.96" style="fill: #262626; stroke: #262626; stroke-width: 0.6"/>
      </g>
     </g>
    </g>
    <g id="xtick_37">
     <g id="line2d_37">
      <g>
       <use xlink:href="#m8b249ac549" x="722.837848" y="228.96" style="fill: #262626; stroke: #262626; stroke-width: 0.6"/>
      </g>
     </g>
    </g>
    <g id="xtick_38">
     <g id="line2d_38">
      <g>
       <use xlink:href="#m8b249ac549" x="734.650398" y="228.96" style="fill: #262626; stroke: #262626; stroke-width: 0.6"/>
      </g>
     </g>
    </g>
    <g id="xtick_39">
     <g id="line2d_39">
      <g>
       <use xlink:href="#m8b249ac549" x="744.882894" y="228.96" style="fill: #262626; stroke: #262626; stroke-width: 0.6"/>
      </g>
     </g>
    </g>
    <g id="xtick_40">
     <g id="line2d_40">
      <g>
       <use xlink:href="#m8b249ac549" x="753.908595" y="228.96" style="fill: #262626; stroke: #262626; stroke-width: 0.6"/>
      </g>
     </g>
    </g>
    <g id="xtick_41">
     <g id="line2d_41">
      <g>
       <use xlink:href="#m8b249ac549" x="815.098152" y="228.96" style="fill: #262626; stroke: #262626; stroke-width: 0.6"/>
      </g>
     </g>
    </g>
    <g id="text_11">
     <text style="font-size: 10px; font-family: 'Arial', 'DejaVu Sans', 'Liberation Sans', 'Bitstream Vera Sans', sans-serif; text-anchor: middle; fill: #262626" x="425.7" y="256.385" transform="rotate(-0 425.7 256.385)">Income or consumption (day)</text>
    </g>
   </g>
   <g id="matplotlib.axis_2"/>
   <g id="FillBetweenPolyCollection_1">
    <defs>
     <path id="md48218b3aa" d="M 97.083235 -36.790275 
L 97.083235 -36.729688 
L 99.131554 -36.729688 
L 101.179872 -36.729688 
L 103.22819 -36.729688 
L 105.276509 -36.729688 
L 107.324827 -36.729688 
L 109.373145 -36.729688 
L 111.421464 -36.729688 
L 113.469782 -36.729688 
L 115.518101 -36.729688 
L 117.566419 -36.729688 
L 119.614737 -36.729688 
L 121.663056 -36.729688 
L 123.711374 -36.729688 
L 125.759692 -36.729688 
L 127.808011 -36.729688 
L 129.856329 -36.729688 
L 131.904647 -36.729688 
L 133.952966 -36.729688 
L 136.001284 -36.729688 
L 138.049602 -36.729688 
L 140.097921 -36.729688 
L 142.146239 -36.729688 
L 144.194557 -36.729688 
L 146.242876 -36.729688 
L 148.291194 -36.729688 
L 150.339512 -36.729688 
L 152.387831 -36.729688 
L 154.436149 -36.729688 
L 156.484467 -36.729688 
L 158.532786 -36.729688 
L 160.581104 -36.729688 
L 162.629422 -36.729688 
L 164.677741 -36.729688 
L 166.726059 -36.729688 
L 168.774377 -36.729688 
L 170.822696 -36.729688 
L 172.871014 -36.729688 
L 174.919332 -36.729688 
L 176.967651 -36.729688 
L 179.015969 -36.729688 
L 181.064287 -36.729688 
L 183.112606 -36.729688 
L 185.160924 -36.729688 
L 187.209242 -36.729688 
L 189.257561 -36.729688 
L 191.305879 -36.729688 
L 193.354197 -36.729688 
L 195.402516 -36.729688 
L 197.450834 -36.729688 
L 199.499152 -36.729688 
L 201.547471 -36.729688 
L 203.595789 -36.729688 
L 205.644107 -36.729688 
L 207.692426 -36.729688 
L 209.740744 -36.729688 
L 211.789062 -36.729688 
L 213.837381 -36.729688 
L 215.885699 -36.729688 
L 217.934017 -36.729688 
L 219.982336 -36.729688 
L 222.030654 -36.729688 
L 224.078972 -36.729688 
L 226.127291 -36.729688 
L 228.175609 -36.729688 
L 230.223927 -36.729688 
L 232.272246 -36.729688 
L 234.320564 -36.729688 
L 236.368882 -36.729688 
L 238.417201 -36.729688 
L 240.465519 -36.729688 
L 242.513837 -36.729688 
L 244.562156 -36.729688 
L 246.610474 -36.729688 
L 248.658792 -36.729688 
L 250.707111 -36.729688 
L 252.755429 -36.729688 
L 254.803747 -36.729688 
L 256.852066 -36.729688 
L 258.900384 -36.729688 
L 260.948702 -36.729688 
L 262.997021 -36.729688 
L 265.045339 -36.729688 
L 267.093657 -36.729688 
L 269.141976 -36.729688 
L 271.190294 -36.729688 
L 273.238612 -36.729688 
L 275.286931 -36.729688 
L 277.335249 -36.729688 
L 279.383567 -36.729688 
L 281.431886 -36.729688 
L 283.480204 -36.729688 
L 285.528522 -36.729688 
L 287.576841 -36.729688 
L 289.625159 -36.729688 
L 291.673477 -36.729688 
L 293.721796 -36.729688 
L 295.770114 -36.729688 
L 297.818432 -36.729688 
L 299.866751 -36.729688 
L 301.915069 -36.729688 
L 303.963387 -36.729688 
L 306.011706 -36.729688 
L 308.060024 -36.729688 
L 310.108342 -36.729688 
L 312.156661 -36.729688 
L 314.204979 -36.729688 
L 316.253297 -36.729688 
L 318.301616 -36.729688 
L 320.349934 -36.729688 
L 322.398252 -36.729688 
L 324.446571 -36.729688 
L 326.494889 -36.729688 
L 328.543207 -36.729688 
L 330.591526 -36.729688 
L 332.639844 -36.729688 
L 334.688162 -36.729688 
L 336.736481 -36.729688 
L 338.784799 -36.729688 
L 340.833117 -36.729688 
L 342.881436 -36.729688 
L 344.929754 -36.729688 
L 346.978072 -36.729688 
L 349.026391 -36.729688 
L 351.074709 -36.729688 
L 353.123027 -36.729688 
L 355.171346 -36.729688 
L 357.219664 -36.729688 
L 359.267982 -36.729688 
L 361.316301 -36.729688 
L 363.364619 -36.729688 
L 365.412937 -36.729688 
L 367.461256 -36.729688 
L 369.509574 -36.729688 
L 371.557892 -36.729688 
L 373.606211 -36.729688 
L 375.654529 -36.729688 
L 377.702847 -36.729688 
L 379.751166 -36.729688 
L 381.799484 -36.729688 
L 383.847802 -36.729688 
L 385.896121 -36.729688 
L 387.944439 -36.729688 
L 389.992757 -36.729688 
L 392.041076 -36.729688 
L 394.089394 -36.729688 
L 396.137712 -36.729688 
L 398.186031 -36.729688 
L 400.234349 -36.729688 
L 402.282667 -36.729688 
L 404.330986 -36.729688 
L 406.379304 -36.729688 
L 408.427622 -36.729688 
L 410.475941 -36.729688 
L 412.524259 -36.729688 
L 414.572577 -36.729688 
L 416.620896 -36.729688 
L 418.669214 -36.729688 
L 420.717532 -36.729688 
L 422.765851 -36.729688 
L 424.814169 -36.729688 
L 426.862487 -36.729688 
L 428.910806 -36.729688 
L 430.959124 -36.729688 
L 433.007442 -36.729688 
L 435.055761 -36.729688 
L 437.104079 -36.729688 
L 439.152397 -36.729688 
L 441.200716 -36.729688 
L 443.249034 -36.729688 
L 445.297352 -36.729688 
L 447.345671 -36.729688 
L 449.393989 -36.729688 
L 451.442307 -36.729688 
L 453.490626 -36.729688 
L 455.538944 -36.729688 
L 457.587262 -36.729688 
L 459.635581 -36.729688 
L 461.683899 -36.729688 
L 463.732217 -36.729688 
L 465.780536 -36.729688 
L 467.828854 -36.729688 
L 469.877172 -36.729688 
L 471.925491 -36.729688 
L 473.973809 -36.729688 
L 476.022127 -36.729688 
L 478.070446 -36.729688 
L 480.118764 -36.729688 
L 482.167082 -36.729688 
L 484.215401 -36.729688 
L 486.263719 -36.729688 
L 488.312037 -36.729688 
L 490.360356 -36.729688 
L 492.408674 -36.729688 
L 494.456992 -36.729688 
L 496.505311 -36.729688 
L 498.553629 -36.729688 
L 500.601947 -36.729688 
L 502.650266 -36.729688 
L 504.698584 -36.729688 
L 504.698584 -36.789713 
L 504.698584 -36.789713 
L 502.650266 -36.811158 
L 500.601947 -36.839085 
L 498.553629 -36.87502 
L 496.505311 -36.920702 
L 494.456992 -36.978068 
L 492.408674 -37.049226 
L 490.360356 -37.136398 
L 488.312037 -37.24185 
L 486.263719 -37.367798 
L 484.215401 -37.516291 
L 482.167082 -37.68908 
L 480.118764 -37.887471 
L 478.070446 -38.112174 
L 476.022127 -38.363165 
L 473.973809 -38.639555 
L 471.925491 -38.939503 
L 469.877172 -39.26016 
L 467.828854 -39.59768 
L 465.780536 -39.947288 
L 463.732217 -40.303426 
L 461.683899 -40.659963 
L 459.635581 -41.010473 
L 457.587262 -41.348564 
L 455.538944 -41.668249 
L 453.490626 -41.964322 
L 451.442307 -42.232731 
L 449.393989 -42.470907 
L 447.345671 -42.678029 
L 445.297352 -42.855205 
L 443.249034 -43.005548 
L 441.200716 -43.134134 
L 439.152397 -43.247848 
L 437.104079 -43.355128 
L 435.055761 -43.465606 
L 433.007442 -43.589692 
L 430.959124 -43.738121 
L 428.910806 -43.921482 
L 426.862487 -44.149788 
L 424.814169 -44.432092 
L 422.765851 -44.776183 
L 420.717532 -45.188385 
L 418.669214 -45.673456 
L 416.620896 -46.234591 
L 414.572577 -46.873527 
L 412.524259 -47.590729 
L 410.475941 -48.385635 
L 408.427622 -49.256941 
L 406.379304 -50.202899 
L 404.330986 -51.22161 
L 402.282667 -52.311281 
L 400.234349 -53.470447 
L 398.186031 -54.698134 
L 396.137712 -55.993973 
L 394.089394 -57.358255 
L 392.041076 -58.791939 
L 389.992757 -60.296621 
L 387.944439 -61.874478 
L 385.896121 -63.528187 
L 383.847802 -65.260842 
L 381.799484 -67.075877 
L 379.751166 -68.97698 
L 377.702847 -70.968037 
L 375.654529 -73.053073 
L 373.606211 -75.236207 
L 371.557892 -77.521613 
L 369.509574 -79.913486 
L 367.461256 -82.415997 
L 365.412937 -85.03325 
L 363.364619 -87.769226 
L 361.316301 -90.627709 
L 359.267982 -93.612206 
L 357.219664 -96.725851 
L 355.171346 -99.971293 
L 353.123027 -103.350589 
L 351.074709 -106.865078 
L 349.026391 -110.515269 
L 346.978072 -114.300724 
L 344.929754 -118.219963 
L 342.881436 -122.270376 
L 340.833117 -126.448153 
L 338.784799 -130.748238 
L 336.736481 -135.164306 
L 334.688162 -139.688751 
L 332.639844 -144.312706 
L 330.591526 -149.02607 
L 328.543207 -153.817555 
L 326.494889 -158.674729 
L 324.446571 -163.584076 
L 322.398252 -168.531045 
L 320.349934 -173.500093 
L 318.301616 -178.474721 
L 316.253297 -183.437501 
L 314.204979 -188.370091 
L 312.156661 -193.253248 
L 310.108342 -198.066838 
L 308.060024 -202.789862 
L 306.011706 -207.400494 
L 303.963387 -211.876162 
L 301.915069 -216.193662 
L 299.866751 -220.329327 
L 297.818432 -224.259261 
L 295.770114 -227.959624 
L 293.721796 -231.406986 
L 291.673477 -234.578724 
L 289.625159 -237.453455 
L 287.576841 -240.011486 
L 285.528522 -242.235256 
L 283.480204 -244.10974 
L 281.431886 -245.622789 
L 279.383567 -246.765391 
L 277.335249 -247.531816 
L 275.286931 -247.919648 
L 273.238612 -247.929688 
L 271.190294 -247.565732 
L 269.141976 -246.834253 
L 267.093657 -245.743978 
L 265.045339 -244.305421 
L 262.997021 -242.53039 
L 260.948702 -240.431492 
L 258.900384 -238.0217 
L 256.852066 -235.313981 
L 254.803747 -232.321026 
L 252.755429 -229.055095 
L 250.707111 -225.527982 
L 248.658792 -221.751083 
L 246.610474 -217.735577 
L 244.562156 -213.492673 
L 242.513837 -209.033917 
L 240.465519 -204.371511 
L 238.417201 -199.518622 
L 236.368882 -194.489658 
L 234.320564 -189.300471 
L 232.272246 -183.968486 
L 230.223927 -178.512735 
L 228.175609 -172.953802 
L 226.127291 -167.313671 
L 224.078972 -161.615501 
L 222.030654 -155.883332 
L 219.982336 -150.14175 
L 217.934017 -144.415516 
L 215.885699 -138.729198 
L 213.837381 -133.106799 
L 211.789062 -127.571425 
L 209.740744 -122.144969 
L 207.692426 -116.847859 
L 205.644107 -111.69884 
L 203.595789 -106.714811 
L 201.547471 -101.910706 
L 199.499152 -97.29942 
L 197.450834 -92.891772 
L 195.402516 -88.696486 
L 193.354197 -84.720207 
L 191.305879 -80.967518 
L 189.257561 -77.440975 
L 187.209242 -74.141137 
L 185.160924 -71.066607 
L 183.112606 -68.214075 
L 181.064287 -65.578378 
L 179.015969 -63.152572 
L 176.967651 -60.928032 
L 174.919332 -58.894587 
L 172.871014 -57.0407 
L 170.822696 -55.353685 
L 168.774377 -53.819979 
L 166.726059 -52.425451 
L 164.677741 -51.155738 
L 162.629422 -49.996615 
L 160.581104 -48.934345 
L 158.532786 -47.956033 
L 156.484467 -47.049924 
L 154.436149 -46.205652 
L 152.387831 -45.414421 
L 150.339512 -44.669091 
L 148.291194 -43.964195 
L 146.242876 -43.295857 
L 144.194557 -42.661643 
L 142.146239 -42.060351 
L 140.097921 -41.491751 
L 138.049602 -40.956309 
L 136.001284 -40.454903 
L 133.952966 -39.988558 
L 131.904647 -39.558211 
L 129.856329 -39.164521 
L 127.808011 -38.807728 
L 125.759692 -38.487572 
L 123.711374 -38.203255 
L 121.663056 -37.953453 
L 119.614737 -37.736372 
L 117.566419 -37.549821 
L 115.518101 -37.391309 
L 113.469782 -37.258152 
L 111.421464 -37.147573 
L 109.373145 -37.056797 
L 107.324827 -36.983137 
L 105.276509 -36.924053 
L 103.22819 -36.877208 
L 101.179872 -36.840495 
L 99.131554 -36.812054 
L 97.083235 -36.790275 
z
" style="stroke: #dd8452"/>
    </defs>
    <g>
     <use xlink:href="#md48218b3aa" x="0" y="265.689687" style="fill: #dd8452; fill-opacity: 0.25; stroke: #dd8452"/>
    </g>
   </g>
   <g id="FillBetweenPolyCollection_2">
    <defs>
     <path id="m769b30d52f" d="M 45.245455 -36.77021 
L 45.245455 -36.729688 
L 49.069118 -36.729688 
L 52.892782 -36.729688 
L 56.716446 -36.729688 
L 60.54011 -36.729688 
L 64.363773 -36.729688 
L 68.187437 -36.729688 
L 72.011101 -36.729688 
L 75.834765 -36.729688 
L 79.658429 -36.729688 
L 83.482092 -36.729688 
L 87.305756 -36.729688 
L 91.12942 -36.729688 
L 94.953084 -36.729688 
L 98.776747 -36.729688 
L 102.600411 -36.729688 
L 106.424075 -36.729688 
L 110.247739 -36.729688 
L 114.071402 -36.729688 
L 117.895066 -36.729688 
L 121.71873 -36.729688 
L 125.542394 -36.729688 
L 129.366058 -36.729688 
L 133.189721 -36.729688 
L 137.013385 -36.729688 
L 140.837049 -36.729688 
L 144.660713 -36.729688 
L 148.484376 -36.729688 
L 152.30804 -36.729688 
L 156.131704 -36.729688 
L 159.955368 -36.729688 
L 163.779032 -36.729688 
L 167.602695 -36.729688 
L 171.426359 -36.729688 
L 175.250023 -36.729688 
L 179.073687 -36.729688 
L 182.89735 -36.729688 
L 186.721014 -36.729688 
L 190.544678 -36.729688 
L 194.368342 -36.729688 
L 198.192005 -36.729688 
L 202.015669 -36.729688 
L 205.839333 -36.729688 
L 209.662997 -36.729688 
L 213.486661 -36.729688 
L 217.310324 -36.729688 
L 221.133988 -36.729688 
L 224.957652 -36.729688 
L 228.781316 -36.729688 
L 232.604979 -36.729688 
L 236.428643 -36.729688 
L 240.252307 -36.729688 
L 244.075971 -36.729688 
L 247.899635 -36.729688 
L 251.723298 -36.729688 
L 255.546962 -36.729688 
L 259.370626 -36.729688 
L 263.19429 -36.729688 
L 267.017953 -36.729688 
L 270.841617 -36.729688 
L 274.665281 -36.729688 
L 278.488945 -36.729688 
L 282.312608 -36.729688 
L 286.136272 -36.729688 
L 289.959936 -36.729688 
L 293.7836 -36.729688 
L 297.607264 -36.729688 
L 301.430927 -36.729688 
L 305.254591 -36.729688 
L 309.078255 -36.729688 
L 312.901919 -36.729688 
L 316.725582 -36.729688 
L 320.549246 -36.729688 
L 324.37291 -36.729688 
L 328.196574 -36.729688 
L 332.020238 -36.729688 
L 335.843901 -36.729688 
L 339.667565 -36.729688 
L 343.491229 -36.729688 
L 347.314893 -36.729688 
L 351.138556 -36.729688 
L 354.96222 -36.729688 
L 358.785884 -36.729688 
L 362.609548 -36.729688 
L 366.433212 -36.729688 
L 370.256875 -36.729688 
L 374.080539 -36.729688 
L 377.904203 -36.729688 
L 381.727867 -36.729688 
L 385.55153 -36.729688 
L 389.375194 -36.729688 
L 393.198858 -36.729688 
L 397.022522 -36.729688 
L 400.846185 -36.729688 
L 404.669849 -36.729688 
L 408.493513 -36.729688 
L 412.317177 -36.729688 
L 416.140841 -36.729688 
L 419.964504 -36.729688 
L 423.788168 -36.729688 
L 427.611832 -36.729688 
L 431.435496 -36.729688 
L 435.259159 -36.729688 
L 439.082823 -36.729688 
L 442.906487 -36.729688 
L 446.730151 -36.729688 
L 450.553815 -36.729688 
L 454.377478 -36.729688 
L 458.201142 -36.729688 
L 462.024806 -36.729688 
L 465.84847 -36.729688 
L 469.672133 -36.729688 
L 473.495797 -36.729688 
L 477.319461 -36.729688 
L 481.143125 -36.729688 
L 484.966788 -36.729688 
L 488.790452 -36.729688 
L 492.614116 -36.729688 
L 496.43778 -36.729688 
L 500.261444 -36.729688 
L 504.085107 -36.729688 
L 507.908771 -36.729688 
L 511.732435 -36.729688 
L 515.556099 -36.729688 
L 519.379762 -36.729688 
L 523.203426 -36.729688 
L 527.02709 -36.729688 
L 530.850754 -36.729688 
L 534.674418 -36.729688 
L 538.498081 -36.729688 
L 542.321745 -36.729688 
L 546.145409 -36.729688 
L 549.969073 -36.729688 
L 553.792736 -36.729688 
L 557.6164 -36.729688 
L 561.440064 -36.729688 
L 565.263728 -36.729688 
L 569.087392 -36.729688 
L 572.911055 -36.729688 
L 576.734719 -36.729688 
L 580.558383 -36.729688 
L 584.382047 -36.729688 
L 588.20571 -36.729688 
L 592.029374 -36.729688 
L 595.853038 -36.729688 
L 599.676702 -36.729688 
L 603.500365 -36.729688 
L 607.324029 -36.729688 
L 611.147693 -36.729688 
L 614.971357 -36.729688 
L 618.795021 -36.729688 
L 622.618684 -36.729688 
L 626.442348 -36.729688 
L 630.266012 -36.729688 
L 634.089676 -36.729688 
L 637.913339 -36.729688 
L 641.737003 -36.729688 
L 645.560667 -36.729688 
L 649.384331 -36.729688 
L 653.207995 -36.729688 
L 657.031658 -36.729688 
L 660.855322 -36.729688 
L 664.678986 -36.729688 
L 668.50265 -36.729688 
L 672.326313 -36.729688 
L 676.149977 -36.729688 
L 679.973641 -36.729688 
L 683.797305 -36.729688 
L 687.620968 -36.729688 
L 691.444632 -36.729688 
L 695.268296 -36.729688 
L 699.09196 -36.729688 
L 702.915624 -36.729688 
L 706.739287 -36.729688 
L 710.562951 -36.729688 
L 714.386615 -36.729688 
L 718.210279 -36.729688 
L 722.033942 -36.729688 
L 725.857606 -36.729688 
L 729.68127 -36.729688 
L 733.504934 -36.729688 
L 737.328598 -36.729688 
L 741.152261 -36.729688 
L 744.975925 -36.729688 
L 748.799589 -36.729688 
L 752.623253 -36.729688 
L 756.446916 -36.729688 
L 760.27058 -36.729688 
L 764.094244 -36.729688 
L 767.917908 -36.729688 
L 771.741571 -36.729688 
L 775.565235 -36.729688 
L 779.388899 -36.729688 
L 783.212563 -36.729688 
L 787.036227 -36.729688 
L 790.85989 -36.729688 
L 794.683554 -36.729688 
L 798.507218 -36.729688 
L 802.330882 -36.729688 
L 806.154545 -36.729688 
L 806.154545 -36.770527 
L 806.154545 -36.770527 
L 802.330882 -36.789805 
L 798.507218 -36.816693 
L 794.683554 -36.853494 
L 790.85989 -36.902917 
L 787.036227 -36.96804 
L 783.212563 -37.052226 
L 779.388899 -37.158995 
L 775.565235 -37.291835 
L 771.741571 -37.453982 
L 767.917908 -37.64817 
L 764.094244 -37.876388 
L 760.27058 -38.139676 
L 756.446916 -38.437997 
L 752.623253 -38.770233 
L 748.799589 -39.134321 
L 744.975925 -39.527567 
L 741.152261 -39.947116 
L 737.328598 -40.390568 
L 733.504934 -40.85668 
L 729.68127 -41.346094 
L 725.857606 -41.862006 
L 722.033942 -42.410703 
L 718.210279 -43.001892 
L 714.386615 -43.648771 
L 710.562951 -44.367838 
L 706.739287 -45.178445 
L 702.915624 -46.102141 
L 699.09196 -47.161888 
L 695.268296 -48.381215 
L 691.444632 -49.783414 
L 687.620968 -51.390825 
L 683.797305 -53.224272 
L 679.973641 -55.302655 
L 676.149977 -57.6427 
L 672.326313 -60.258822 
L 668.50265 -63.163056 
L 664.678986 -66.365008 
L 660.855322 -69.871774 
L 657.031658 -73.687791 
L 653.207995 -77.8146 
L 649.384331 -82.250533 
L 645.560667 -86.990328 
L 641.737003 -92.024707 
L 637.913339 -97.339955 
L 634.089676 -102.917543 
L 630.266012 -108.733832 
L 626.442348 -114.759882 
L 622.618684 -120.961413 
L 618.795021 -127.298916 
L 614.971357 -133.727938 
L 611.147693 -140.199529 
L 607.324029 -146.660857 
L 603.500365 -153.055971 
L 599.676702 -159.326677 
L 595.853038 -165.413522 
L 592.029374 -171.256826 
L 588.20571 -176.797752 
L 584.382047 -181.979349 
L 580.558383 -186.747563 
L 576.734719 -191.052166 
L 572.911055 -194.847589 
L 569.087392 -198.093649 
L 565.263728 -200.756158 
L 561.440064 -202.807411 
L 557.6164 -204.226573 
L 553.792736 -204.999945 
L 549.969073 -205.121141 
L 546.145409 -204.591152 
L 542.321745 -203.418317 
L 538.498081 -201.618168 
L 534.674418 -199.213174 
L 530.850754 -196.232338 
L 527.02709 -192.710679 
L 523.203426 -188.688578 
L 519.379762 -184.211014 
L 515.556099 -179.326709 
L 511.732435 -174.087206 
L 507.908771 -168.545932 
L 504.085107 -162.75726 
L 500.261444 -156.775634 
L 496.43778 -150.654762 
L 492.614116 -144.44691 
L 488.790452 -138.202301 
L 484.966788 -131.968623 
L 481.143125 -125.790626 
L 477.319461 -119.709809 
L 473.495797 -113.764161 
L 469.672133 -107.987947 
L 465.84847 -102.411527 
L 462.024806 -97.0612 
L 458.201142 -91.959063 
L 454.377478 -87.122896 
L 450.553815 -82.566087 
L 446.730151 -78.297595 
L 442.906487 -74.321988 
L 439.082823 -70.639557 
L 435.259159 -67.24654 
L 431.435496 -64.135445 
L 427.611832 -61.295512 
L 423.788168 -58.713282 
L 419.964504 -56.373276 
L 416.140841 -54.258755 
L 412.317177 -52.352521 
L 408.493513 -50.6377 
L 404.669849 -49.098456 
L 400.846185 -47.720569 
L 397.022522 -46.491825 
L 393.198858 -45.40217 
L 389.375194 -44.443608 
L 385.55153 -43.609863 
L 381.727867 -42.895814 
L 377.904203 -42.296788 
L 374.080539 -41.807779 
L 370.256875 -41.422694 
L 366.433212 -41.133731 
L 362.609548 -40.930954 
L 358.785884 -40.80215 
L 354.96222 -40.73299 
L 351.138556 -40.707491 
L 347.314893 -40.708737 
L 343.491229 -40.719789 
L 339.667565 -40.724681 
L 335.843901 -40.709391 
L 332.020238 -40.662692 
L 328.196574 -40.576764 
L 324.37291 -40.447533 
L 320.549246 -40.274683 
L 316.725582 -40.061365 
L 312.901919 -39.813633 
L 309.078255 -39.539693 
L 305.254591 -39.249038 
L 301.430927 -38.951581 
L 297.607264 -38.656848 
L 293.7836 -38.373319 
L 289.959936 -38.107955 
L 286.136272 -37.865927 
L 282.312608 -37.650536 
L 278.488945 -37.463306 
L 274.665281 -37.304209 
L 270.841617 -37.171967 
L 267.017953 -37.064388 
L 263.19429 -36.978709 
L 259.370626 -36.911897 
L 255.546962 -36.860905 
L 251.723298 -36.822866 
L 247.899635 -36.795225 
L 244.075971 -36.775828 
L 240.252307 -36.762962 
L 236.428643 -36.755376 
L 232.604979 -36.752275 
L 228.781316 -36.753321 
L 224.957652 -36.75863 
L 221.133988 -36.768767 
L 217.310324 -36.784759 
L 213.486661 -36.808088 
L 209.662997 -36.840692 
L 205.839333 -36.884929 
L 202.015669 -36.943518 
L 198.192005 -37.019423 
L 194.368342 -37.115692 
L 190.544678 -37.235226 
L 186.721014 -37.380493 
L 182.89735 -37.553198 
L 179.073687 -37.753928 
L 175.250023 -37.981809 
L 171.426359 -38.234222 
L 167.602695 -38.506611 
L 163.779032 -38.792433 
L 159.955368 -39.08329 
L 156.131704 -39.369244 
L 152.30804 -39.639328 
L 148.484376 -39.882208 
L 144.660713 -40.086964 
L 140.837049 -40.243888 
L 137.013385 -40.345255 
L 133.189721 -40.385946 
L 129.366058 -40.363878 
L 125.542394 -40.280182 
L 121.71873 -40.139107 
L 117.895066 -39.94766 
L 114.071402 -39.715034 
L 110.247739 -39.451872 
L 106.424075 -39.169468 
L 102.600411 -38.878975 
L 98.776747 -38.590697 
L 94.953084 -38.313534 
L 91.12942 -38.054602 
L 87.305756 -37.819052 
L 83.482092 -37.610065 
L 79.658429 -37.429006 
L 75.834765 -37.275686 
L 72.011101 -37.148692 
L 68.187437 -37.045737 
L 64.363773 -36.964004 
L 60.54011 -36.900438 
L 56.716446 -36.851989 
L 52.892782 -36.815789 
L 49.069118 -36.789267 
L 45.245455 -36.77021 
z
" style="stroke: #4c72b0"/>
    </defs>
    <g>
     <use xlink:href="#m769b30d52f" x="0" y="265.689687" style="fill: #4c72b0; fill-opacity: 0.25; stroke: #4c72b0"/>
    </g>
   </g>
   <g id="line2d_42">
    <path d="M 291.299549 228.96 
L 291.299549 7.2 
" style="fill: none; stroke-dasharray: 2.96,1.28; stroke-dashoffset: 0; stroke: #d3d3d3; stroke-width: 0.8"/>
   </g>
   <g id="line2d_43">
    <path d="M 459.014675 228.96 
L 459.014675 7.2 
" style="fill: none; stroke-dasharray: 2.96,1.28; stroke-dashoffset: 0; stroke: #d3d3d3; stroke-width: 0.8"/>
   </g>
   <g id="line2d_44">
    <path d="M 394.347238 228.96 
L 394.347238 7.2 
" style="fill: none; stroke-dasharray: 2.96,1.28; stroke-dashoffset: 0; stroke: #d3d3d3; stroke-width: 0.8"/>
   </g>
   <g id="line2d_45">
    <path d="M 7.2 228.96 
L 844.2 228.96 
" style="fill: none; stroke: #808080; stroke-width: 0.5; stroke-linecap: round"/>
   </g>
   <g id="text_12">
    <text style="font-size: 8px; font-family: 'Arial', 'DejaVu Sans', 'Liberation Sans', 'Bitstream Vera Sans', sans-serif; fill: #808080" transform="translate(297.553299 124.59635) rotate(-90)">International Poverty Line: $2.15</text>
   </g>
   <g id="text_13">
    <text style="font-size: 8px; font-family: 'Arial', 'DejaVu Sans', 'Liberation Sans', 'Bitstream Vera Sans', sans-serif; fill: #808080" transform="translate(464.740925 81.31135) rotate(-90)">World mean: $19.18</text>
   </g>
   <g id="text_14">
    <text style="font-size: 8px; font-family: 'Arial', 'DejaVu Sans', 'Liberation Sans', 'Bitstream Vera Sans', sans-serif; fill: #808080" transform="translate(400.073488 83.08885) rotate(-90)">World median: $8.25</text>
   </g>
   <g id="text_15">
    <text style="font-size: 10px; font-family: 'Arial', 'DejaVu Sans', 'Liberation Sans', 'Bitstream Vera Sans', sans-serif; text-anchor: middle" x="549.220039" y="226.855312" transform="rotate(-0 549.220039 226.855312)">United States (2022)</text>
   </g>
   <g id="text_16">
    <text style="font-size: 10px; font-family: 'Arial', 'DejaVu Sans', 'Liberation Sans', 'Bitstream Vera Sans', sans-serif; text-anchor: middle" x="277.490099" y="226.855312" transform="rotate(-0 277.490099 226.855312)">Burundi (2020)</text>
   </g>
  </g>
 </g>
</svg>
