<?xml version="1.0" encoding="utf-8" standalone="no"?>
<!DOCTYPE svg PUBLIC "-//W3C//DTD SVG 1.1//EN"
  "http://www.w3.org/Graphics/SVG/1.1/DTD/svg11.dtd">
<svg xmlns:xlink="http://www.w3.org/1999/xlink" width="857.208869pt" height="265.689687pt" viewBox="0 0 857.208869 265.689687" xmlns="http://www.w3.org/2000/svg" version="1.1">
 <metadata>
  <rdf:RDF xmlns:dc="http://purl.org/dc/elements/1.1/" xmlns:cc="http://creativecommons.org/ns#" xmlns:rdf="http://www.w3.org/1999/02/22-rdf-syntax-ns#">
   <cc:Work>
    <dc:type rdf:resource="http://purl.org/dc/dcmitype/StillImage"/>
    <dc:date>2026-05-22T12:42:21.490570</dc:date>
    <dc:format>image/svg+xml</dc:format>
    <dc:creator>
     <cc:Agent>
      <dc:title>Matplotlib v3.10.9, https://matplotlib.org/</dc:title>
     </cc:Agent>
    </dc:creator>
   </cc:Work>
  </rdf:RDF>
 </metadata>
 <defs>
  <style type="text/css">*{stroke-linejoin: round; stroke-linecap: butt}</style>
 </defs>
 <g id="figure_1">
  <g id="patch_1">
   <path d="M 0 265.689687 
L 857.208869 265.689687 
L 857.208869 0 
L 0 0 
z
" style="fill: #ffffff"/>
  </g>
  <g id="axes_1">
   <g id="patch_2">
    <path d="M 7.2 228.96 
L 844.2 228.96 
L 844.2 7.2 
L 7.2 7.2 
z
" style="fill: #ffffff"/>
   </g>
   <g id="matplotlib.axis_1">
    <g id="xtick_1">
     <g id="line2d_1">
      <defs>
       <path id="mc85a257b16" d="M 0 0 
L 0 3.5 
" style="stroke: #262626; stroke-width: 0.8"/>
      </defs>
      <g>
       <use xlink:href="#mc85a257b16" x="153.094989" y="228.96" style="fill: #262626; stroke: #262626; stroke-width: 0.8"/>
      </g>
     </g>
     <g id="text_1">
      <text style="font-size: 10px; font-family: 'Arial', 'DejaVu Sans', 'Liberation Sans', 'Bitstream Vera Sans', sans-serif; text-anchor: middle; fill: #262626" x="153.094989" y="243.117812" transform="rotate(-0 153.094989 243.117812)">$1</text>
     </g>
    </g>
    <g id="xtick_2">
     <g id="line2d_2">
      <g>
       <use xlink:href="#mc85a257b16" x="221.630642" y="228.96" style="fill: #262626; stroke: #262626; stroke-width: 0.8"/>
      </g>
     </g>
     <g id="text_2">
      <text style="font-size: 10px; font-family: 'Arial', 'DejaVu Sans', 'Liberation Sans', 'Bitstream Vera Sans', sans-serif; text-anchor: middle; fill: #262626" x="221.630642" y="243.117812" transform="rotate(-0 221.630642 243.117812)">$2</text>
     </g>
    </g>
    <g id="xtick_3">
     <g id="line2d_3">
      <g>
       <use xlink:href="#mc85a257b16" x="312.229848" y="228.96" style="fill: #262626; stroke: #262626; stroke-width: 0.8"/>
      </g>
     </g>
     <g id="text_3">
      <text style="font-size: 10px; font-family: 'Arial', 'DejaVu Sans', 'Liberation Sans', 'Bitstream Vera Sans', sans-serif; text-anchor: middle; fill: #262626" x="312.229848" y="243.117812" transform="rotate(-0 312.229848 243.117812)">$5</text>
     </g>
    </g>
    <g id="xtick_4">
     <g id="line2d_4">
      <g>
       <use xlink:href="#mc85a257b16" x="380.765501" y="228.96" style="fill: #262626; stroke: #262626; stroke-width: 0.8"/>
      </g>
     </g>
     <g id="text_4">
      <text style="font-size: 10px; font-family: 'Arial', 'DejaVu Sans', 'Liberation Sans', 'Bitstream Vera Sans', sans-serif; text-anchor: middle; fill: #262626" x="380.765501" y="243.117812" transform="rotate(-0 380.765501 243.117812)">$10</text>
     </g>
    </g>
    <g id="xtick_5">
     <g id="line2d_5">
      <g>
       <use xlink:href="#mc85a257b16" x="449.301154" y="228.96" style="fill: #262626; stroke: #262626; stroke-width: 0.8"/>
      </g>
     </g>
     <g id="text_5">
      <text style="font-size: 10px; font-family: 'Arial', 'DejaVu Sans', 'Liberation Sans', 'Bitstream Vera Sans', sans-serif; text-anchor: middle; fill: #262626" x="449.301154" y="243.117812" transform="rotate(-0 449.301154 243.117812)">$20</text>
     </g>
    </g>
    <g id="xtick_6">
     <g id="line2d_6">
      <g>
       <use xlink:href="#mc85a257b16" x="539.90036" y="228.96" style="fill: #262626; stroke: #262626; stroke-width: 0.8"/>
      </g>
     </g>
     <g id="text_6">
      <text style="font-size: 10px; font-family: 'Arial', 'DejaVu Sans', 'Liberation Sans', 'Bitstream Vera Sans', sans-serif; text-anchor: middle; fill: #262626" x="539.90036" y="243.117812" transform="rotate(-0 539.90036 243.117812)">$50</text>
     </g>
    </g>
    <g id="xtick_7">
     <g id="line2d_7">
      <g>
       <use xlink:href="#mc85a257b16" x="608.436013" y="228.96" style="fill: #262626; stroke: #262626; stroke-width: 0.8"/>
      </g>
     </g>
     <g id="text_7">
      <text style="font-size: 10px; font-family: 'Arial', 'DejaVu Sans', 'Liberation Sans', 'Bitstream Vera Sans', sans-serif; text-anchor: middle; fill: #262626" x="608.436013" y="243.117812" transform="rotate(-0 608.436013 243.117812)">$100</text>
     </g>
    </g>
    <g id="xtick_8">
     <g id="line2d_8">
      <g>
       <use xlink:href="#mc85a257b16" x="676.971667" y="228.96" style="fill: #262626; stroke: #262626; stroke-width: 0.8"/>
      </g>
     </g>
     <g id="text_8">
      <text style="font-size: 10px; font-family: 'Arial', 'DejaVu Sans', 'Liberation Sans', 'Bitstream Vera Sans', sans-serif; text-anchor: middle; fill: #262626" x="676.971667" y="243.117812" transform="rotate(-0 676.971667 243.117812)">$200</text>
     </g>
    </g>
    <g id="xtick_9">
     <g id="line2d_9">
      <g>
       <use xlink:href="#mc85a257b16" x="767.570872" y="228.96" style="fill: #262626; stroke: #262626; stroke-width: 0.8"/>
      </g>
     </g>
     <g id="text_9">
      <text style="font-size: 10px; font-family: 'Arial', 'DejaVu Sans', 'Liberation Sans', 'Bitstream Vera Sans', sans-serif; text-anchor: middle; fill: #262626" x="767.570872" y="243.117812" transform="rotate(-0 767.570872 243.117812)">$500</text>
     </g>
    </g>
    <g id="xtick_10">
     <g id="line2d_10">
      <g>
       <use xlink:href="#mc85a257b16" x="836.106525" y="228.96" style="fill: #262626; stroke: #262626; stroke-width: 0.8"/>
      </g>
     </g>
     <g id="text_10">
      <text style="font-size: 10px; font-family: 'Arial', 'DejaVu Sans', 'Liberation Sans', 'Bitstream Vera Sans', sans-serif; text-anchor: middle; fill: #262626" x="836.106525" y="243.117812" transform="rotate(-0 836.106525 243.117812)">$1000</text>
     </g>
    </g>
    <g id="xtick_11">
     <g id="line2d_11">
      <defs>
       <path id="m8c03562096" d="M 0 0 
L 0 2 
" style="stroke: #262626; stroke-width: 0.6"/>
      </defs>
      <g>
       <use xlink:href="#m8c03562096" x="34.050917" y="228.96" style="fill: #262626; stroke: #262626; stroke-width: 0.6"/>
      </g>
     </g>
    </g>
    <g id="xtick_12">
     <g id="line2d_12">
      <g>
       <use xlink:href="#m8c03562096" x="62.495783" y="228.96" style="fill: #262626; stroke: #262626; stroke-width: 0.6"/>
      </g>
     </g>
    </g>
    <g id="xtick_13">
     <g id="line2d_13">
      <g>
       <use xlink:href="#m8c03562096" x="84.559335" y="228.96" style="fill: #262626; stroke: #262626; stroke-width: 0.6"/>
      </g>
     </g>
    </g>
    <g id="xtick_14">
     <g id="line2d_14">
      <g>
       <use xlink:href="#m8c03562096" x="102.58657" y="228.96" style="fill: #262626; stroke: #262626; stroke-width: 0.6"/>
      </g>
     </g>
    </g>
    <g id="xtick_15">
     <g id="line2d_15">
      <g>
       <use xlink:href="#m8c03562096" x="117.82838" y="228.96" style="fill: #262626; stroke: #262626; stroke-width: 0.6"/>
      </g>
     </g>
    </g>
    <g id="xtick_16">
     <g id="line2d_16">
      <g>
       <use xlink:href="#m8c03562096" x="131.031436" y="228.96" style="fill: #262626; stroke: #262626; stroke-width: 0.6"/>
      </g>
     </g>
    </g>
    <g id="xtick_17">
     <g id="line2d_17">
      <g>
       <use xlink:href="#m8c03562096" x="142.677357" y="228.96" style="fill: #262626; stroke: #262626; stroke-width: 0.6"/>
      </g>
     </g>
    </g>
    <g id="xtick_18">
     <g id="line2d_18">
      <g>
       <use xlink:href="#m8c03562096" x="261.721429" y="228.96" style="fill: #262626; stroke: #262626; stroke-width: 0.6"/>
      </g>
     </g>
    </g>
    <g id="xtick_19">
     <g id="line2d_19">
      <g>
       <use xlink:href="#m8c03562096" x="290.166295" y="228.96" style="fill: #262626; stroke: #262626; stroke-width: 0.6"/>
      </g>
     </g>
    </g>
    <g id="xtick_20">
     <g id="line2d_20">
      <g>
       <use xlink:href="#m8c03562096" x="330.257083" y="228.96" style="fill: #262626; stroke: #262626; stroke-width: 0.6"/>
      </g>
     </g>
    </g>
    <g id="xtick_21">
     <g id="line2d_21">
      <g>
       <use xlink:href="#m8c03562096" x="345.498892" y="228.96" style="fill: #262626; stroke: #262626; stroke-width: 0.6"/>
      </g>
     </g>
    </g>
    <g id="xtick_22">
     <g id="line2d_22">
      <g>
       <use xlink:href="#m8c03562096" x="358.701949" y="228.96" style="fill: #262626; stroke: #262626; stroke-width: 0.6"/>
      </g>
     </g>
    </g>
    <g id="xtick_23">
     <g id="line2d_23">
      <g>
       <use xlink:href="#m8c03562096" x="370.34787" y="228.96" style="fill: #262626; stroke: #262626; stroke-width: 0.6"/>
      </g>
     </g>
    </g>
    <g id="xtick_24">
     <g id="line2d_24">
      <g>
       <use xlink:href="#m8c03562096" x="489.391941" y="228.96" style="fill: #262626; stroke: #262626; stroke-width: 0.6"/>
      </g>
     </g>
    </g>
    <g id="xtick_25">
     <g id="line2d_25">
      <g>
       <use xlink:href="#m8c03562096" x="517.836808" y="228.96" style="fill: #262626; stroke: #262626; stroke-width: 0.6"/>
      </g>
     </g>
    </g>
    <g id="xtick_26">
     <g id="line2d_26">
      <g>
       <use xlink:href="#m8c03562096" x="557.927595" y="228.96" style="fill: #262626; stroke: #262626; stroke-width: 0.6"/>
      </g>
     </g>
    </g>
    <g id="xtick_27">
     <g id="line2d_27">
      <g>
       <use xlink:href="#m8c03562096" x="573.169405" y="228.96" style="fill: #262626; stroke: #262626; stroke-width: 0.6"/>
      </g>
     </g>
    </g>
    <g id="xtick_28">
     <g id="line2d_28">
      <g>
       <use xlink:href="#m8c03562096" x="586.372461" y="228.96" style="fill: #262626; stroke: #262626; stroke-width: 0.6"/>
      </g>
     </g>
    </g>
    <g id="xtick_29">
     <g id="line2d_29">
      <g>
       <use xlink:href="#m8c03562096" x="598.018382" y="228.96" style="fill: #262626; stroke: #262626; stroke-width: 0.6"/>
      </g>
     </g>
    </g>
    <g id="xtick_30">
     <g id="line2d_30">
      <g>
       <use xlink:href="#m8c03562096" x="717.062454" y="228.96" style="fill: #262626; stroke: #262626; stroke-width: 0.6"/>
      </g>
     </g>
    </g>
    <g id="xtick_31">
     <g id="line2d_31">
      <g>
       <use xlink:href="#m8c03562096" x="745.50732" y="228.96" style="fill: #262626; stroke: #262626; stroke-width: 0.6"/>
      </g>
     </g>
    </g>
    <g id="xtick_32">
     <g id="line2d_32">
      <g>
       <use xlink:href="#m8c03562096" x="785.598107" y="228.96" style="fill: #262626; stroke: #262626; stroke-width: 0.6"/>
      </g>
     </g>
    </g>
    <g id="xtick_33">
     <g id="line2d_33">
      <g>
       <use xlink:href="#m8c03562096" x="800.839917" y="228.96" style="fill: #262626; stroke: #262626; stroke-width: 0.6"/>
      </g>
     </g>
    </g>
    <g id="xtick_34">
     <g id="line2d_34">
      <g>
       <use xlink:href="#m8c03562096" x="814.042973" y="228.96" style="fill: #262626; stroke: #262626; stroke-width: 0.6"/>
      </g>
     </g>
    </g>
    <g id="xtick_35">
     <g id="line2d_35">
      <g>
       <use xlink:href="#m8c03562096" x="825.688894" y="228.96" style="fill: #262626; stroke: #262626; stroke-width: 0.6"/>
      </g>
     </g>
    </g>
    <g id="text_11">
     <text style="font-size: 10px; font-family: 'Arial', 'DejaVu Sans', 'Liberation Sans', 'Bitstream Vera Sans', sans-serif; text-anchor: middle; fill: #262626" x="425.7" y="256.385" transform="rotate(-0 425.7 256.385)">Income or consumption (day)</text>
    </g>
   </g>
   <g id="matplotlib.axis_2"/>
   <g id="FillBetweenPolyCollection_1">
    <defs>
     <path id="m634e00ecc7" d="M 45.245455 -36.746884 
L 45.245455 -36.729688 
L 47.244985 -36.729688 
L 49.244516 -36.729688 
L 51.244047 -36.729688 
L 53.243577 -36.729688 
L 55.243108 -36.729688 
L 57.242639 -36.729688 
L 59.24217 -36.729688 
L 61.2417 -36.729688 
L 63.241231 -36.729688 
L 65.240762 -36.729688 
L 67.240292 -36.729688 
L 69.239823 -36.729688 
L 71.239354 -36.729688 
L 73.238884 -36.729688 
L 75.238415 -36.729688 
L 77.237946 -36.729688 
L 79.237477 -36.729688 
L 81.237007 -36.729688 
L 83.236538 -36.729688 
L 85.236069 -36.729688 
L 87.235599 -36.729688 
L 89.23513 -36.729688 
L 91.234661 -36.729688 
L 93.234192 -36.729688 
L 95.233722 -36.729688 
L 97.233253 -36.729688 
L 99.232784 -36.729688 
L 101.232314 -36.729688 
L 103.231845 -36.729688 
L 105.231376 -36.729688 
L 107.230907 -36.729688 
L 109.230437 -36.729688 
L 111.229968 -36.729688 
L 113.229499 -36.729688 
L 115.229029 -36.729688 
L 117.22856 -36.729688 
L 119.228091 -36.729688 
L 121.227621 -36.729688 
L 123.227152 -36.729688 
L 125.226683 -36.729688 
L 127.226214 -36.729688 
L 129.225744 -36.729688 
L 131.225275 -36.729688 
L 133.224806 -36.729688 
L 135.224336 -36.729688 
L 137.223867 -36.729688 
L 139.223398 -36.729688 
L 141.222929 -36.729688 
L 143.222459 -36.729688 
L 145.22199 -36.729688 
L 147.221521 -36.729688 
L 149.221051 -36.729688 
L 151.220582 -36.729688 
L 153.220113 -36.729688 
L 155.219644 -36.729688 
L 157.219174 -36.729688 
L 159.218705 -36.729688 
L 161.218236 -36.729688 
L 163.217766 -36.729688 
L 165.217297 -36.729688 
L 167.216828 -36.729688 
L 169.216359 -36.729688 
L 171.215889 -36.729688 
L 173.21542 -36.729688 
L 175.214951 -36.729688 
L 177.214481 -36.729688 
L 179.214012 -36.729688 
L 181.213543 -36.729688 
L 183.213073 -36.729688 
L 185.212604 -36.729688 
L 187.212135 -36.729688 
L 189.211666 -36.729688 
L 191.211196 -36.729688 
L 193.210727 -36.729688 
L 195.210258 -36.729688 
L 197.209788 -36.729688 
L 199.209319 -36.729688 
L 201.20885 -36.729688 
L 203.208381 -36.729688 
L 205.207911 -36.729688 
L 207.207442 -36.729688 
L 209.206973 -36.729688 
L 211.206503 -36.729688 
L 213.206034 -36.729688 
L 215.205565 -36.729688 
L 217.205096 -36.729688 
L 219.204626 -36.729688 
L 221.204157 -36.729688 
L 223.203688 -36.729688 
L 225.203218 -36.729688 
L 227.202749 -36.729688 
L 229.20228 -36.729688 
L 231.20181 -36.729688 
L 233.201341 -36.729688 
L 235.200872 -36.729688 
L 237.200403 -36.729688 
L 239.199933 -36.729688 
L 241.199464 -36.729688 
L 243.198995 -36.729688 
L 245.198525 -36.729688 
L 247.198056 -36.729688 
L 249.197587 -36.729688 
L 251.197118 -36.729688 
L 253.196648 -36.729688 
L 255.196179 -36.729688 
L 257.19571 -36.729688 
L 259.19524 -36.729688 
L 261.194771 -36.729688 
L 263.194302 -36.729688 
L 265.193833 -36.729688 
L 267.193363 -36.729688 
L 269.192894 -36.729688 
L 271.192425 -36.729688 
L 273.191955 -36.729688 
L 275.191486 -36.729688 
L 277.191017 -36.729688 
L 279.190547 -36.729688 
L 281.190078 -36.729688 
L 283.189609 -36.729688 
L 285.18914 -36.729688 
L 287.18867 -36.729688 
L 289.188201 -36.729688 
L 291.187732 -36.729688 
L 293.187262 -36.729688 
L 295.186793 -36.729688 
L 297.186324 -36.729688 
L 299.185855 -36.729688 
L 301.185385 -36.729688 
L 303.184916 -36.729688 
L 305.184447 -36.729688 
L 307.183977 -36.729688 
L 309.183508 -36.729688 
L 311.183039 -36.729688 
L 313.18257 -36.729688 
L 315.1821 -36.729688 
L 317.181631 -36.729688 
L 319.181162 -36.729688 
L 321.180692 -36.729688 
L 323.180223 -36.729688 
L 325.179754 -36.729688 
L 327.179285 -36.729688 
L 329.178815 -36.729688 
L 331.178346 -36.729688 
L 333.177877 -36.729688 
L 335.177407 -36.729688 
L 337.176938 -36.729688 
L 339.176469 -36.729688 
L 341.175999 -36.729688 
L 343.17553 -36.729688 
L 345.175061 -36.729688 
L 347.174592 -36.729688 
L 349.174122 -36.729688 
L 351.173653 -36.729688 
L 353.173184 -36.729688 
L 355.172714 -36.729688 
L 357.172245 -36.729688 
L 359.171776 -36.729688 
L 361.171307 -36.729688 
L 363.170837 -36.729688 
L 365.170368 -36.729688 
L 367.169899 -36.729688 
L 369.169429 -36.729688 
L 371.16896 -36.729688 
L 373.168491 -36.729688 
L 375.168022 -36.729688 
L 377.167552 -36.729688 
L 379.167083 -36.729688 
L 381.166614 -36.729688 
L 383.166144 -36.729688 
L 385.165675 -36.729688 
L 387.165206 -36.729688 
L 389.164736 -36.729688 
L 391.164267 -36.729688 
L 393.163798 -36.729688 
L 395.163329 -36.729688 
L 397.162859 -36.729688 
L 399.16239 -36.729688 
L 401.161921 -36.729688 
L 403.161451 -36.729688 
L 405.160982 -36.729688 
L 407.160513 -36.729688 
L 409.160044 -36.729688 
L 411.159574 -36.729688 
L 413.159105 -36.729688 
L 415.158636 -36.729688 
L 417.158166 -36.729688 
L 419.157697 -36.729688 
L 421.157228 -36.729688 
L 423.156759 -36.729688 
L 425.156289 -36.729688 
L 427.15582 -36.729688 
L 429.155351 -36.729688 
L 431.154881 -36.729688 
L 433.154412 -36.729688 
L 435.153943 -36.729688 
L 437.153474 -36.729688 
L 439.153004 -36.729688 
L 441.152535 -36.729688 
L 443.152066 -36.729688 
L 443.152066 -36.748813 
L 443.152066 -36.748813 
L 441.152535 -36.759059 
L 439.153004 -36.774045 
L 437.153474 -36.795574 
L 435.153943 -36.825953 
L 433.154412 -36.868057 
L 431.154881 -36.925384 
L 429.155351 -37.002062 
L 427.15582 -37.102826 
L 425.156289 -37.232931 
L 423.156759 -37.398007 
L 421.157228 -37.603849 
L 419.157697 -37.856138 
L 417.158166 -38.160125 
L 415.158636 -38.520285 
L 413.159105 -38.939977 
L 411.159574 -39.421144 
L 409.160044 -39.964094 
L 407.160513 -40.567385 
L 405.160982 -41.227856 
L 403.161451 -41.94079 
L 401.161921 -42.700226 
L 399.16239 -43.499388 
L 397.162859 -44.331188 
L 395.163329 -45.188759 
L 393.163798 -46.065962 
L 391.164267 -46.957806 
L 389.164736 -47.860746 
L 387.165206 -48.772833 
L 385.165675 -49.693692 
L 383.166144 -50.624363 
L 381.166614 -51.567016 
L 379.167083 -52.524604 
L 377.167552 -53.500485 
L 375.168022 -54.498075 
L 373.168491 -55.520576 
L 371.16896 -56.570796 
L 369.169429 -57.651076 
L 367.169899 -58.763326 
L 365.170368 -59.909138 
L 363.170837 -61.089953 
L 361.171307 -62.307238 
L 359.171776 -63.56264 
L 357.172245 -64.858094 
L 355.172714 -66.195844 
L 353.173184 -67.578402 
L 351.173653 -69.008429 
L 349.174122 -70.48857 
L 347.174592 -72.021288 
L 345.175061 -73.608715 
L 343.17553 -75.252579 
L 341.175999 -76.954213 
L 339.176469 -78.714677 
L 337.176938 -80.534963 
L 335.177407 -82.41627 
L 333.177877 -84.360299 
L 331.178346 -86.3695 
L 329.178815 -88.447233 
L 327.179285 -90.597792 
L 325.179754 -92.826267 
L 323.180223 -95.138252 
L 321.180692 -97.539432 
L 319.181162 -100.035106 
L 317.181631 -102.629705 
L 315.1821 -105.32639 
L 313.18257 -108.126772 
L 311.183039 -111.03081 
L 309.183508 -114.036873 
L 307.183977 -117.141968 
L 305.184447 -120.342068 
L 303.184916 -123.632497 
L 301.185385 -127.008281 
L 299.185855 -130.464429 
L 297.186324 -133.996087 
L 295.186793 -137.598535 
L 293.187262 -141.267056 
L 291.187732 -144.996683 
L 289.188201 -148.781882 
L 287.18867 -152.616234 
L 285.18914 -156.492165 
L 283.189609 -160.400796 
L 281.190078 -164.331954 
L 279.190547 -168.274356 
L 277.191017 -172.215993 
L 275.191486 -176.144675 
L 273.191955 -180.048685 
L 271.192425 -183.917497 
L 269.192894 -187.742439 
L 267.193363 -191.517214 
L 265.193833 -195.238183 
L 263.194302 -198.904313 
L 261.194771 -202.516745 
L 259.19524 -206.077954 
L 257.19571 -209.59057 
L 255.196179 -213.055933 
L 253.196648 -216.472563 
L 251.197118 -219.834722 
L 249.197587 -223.131283 
L 247.198056 -226.345075 
L 245.198525 -229.45286 
L 243.198995 -232.425972 
L 241.199464 -235.2316 
L 239.199933 -237.834576 
L 237.200403 -240.199483 
L 235.200872 -242.292817 
L 233.201341 -244.084999 
L 231.20181 -245.551999 
L 229.20228 -246.676458 
L 227.202749 -247.448267 
L 225.203218 -247.864623 
L 223.203688 -247.929688 
L 221.204157 -247.653973 
L 219.204626 -247.053603 
L 217.205096 -246.149548 
L 215.205565 -244.966882 
L 213.206034 -243.534052 
L 211.206503 -241.882096 
L 209.206973 -240.04372 
L 207.207442 -238.052164 
L 205.207911 -235.939819 
L 203.208381 -233.736624 
L 201.20885 -231.468336 
L 199.209319 -229.154844 
L 197.209788 -226.80873 
L 195.210258 -224.434272 
L 193.210727 -222.027082 
L 191.211196 -219.574481 
L 189.211666 -217.056641 
L 187.212135 -214.448418 
L 185.212604 -211.721718 
L 183.213073 -208.848163 
L 181.213543 -205.801785 
L 179.214012 -202.561472 
L 177.214481 -199.112925 
L 175.214951 -195.449933 
L 173.21542 -191.574871 
L 171.215889 -187.498397 
L 169.216359 -183.238436 
L 167.216828 -178.818597 
L 165.217297 -174.266242 
L 163.217766 -169.610433 
L 161.218236 -164.880001 
L 159.218705 -160.10194 
L 157.219174 -155.300278 
L 155.219644 -150.49549 
L 153.220113 -145.704462 
L 151.220582 -140.940938 
L 149.221051 -136.216291 
L 147.221521 -131.54048 
L 145.22199 -126.922993 
L 143.222459 -122.373625 
L 141.222929 -117.902955 
L 139.223398 -113.522479 
L 137.223867 -109.244378 
L 135.224336 -105.080977 
L 133.224806 -101.044008 
L 131.225275 -97.143802 
L 129.225744 -93.388531 
L 127.226214 -89.78364 
L 125.226683 -86.331532 
L 123.227152 -83.031562 
L 121.227621 -79.880315 
L 119.228091 -76.872146 
L 117.22856 -73.999877 
L 115.229029 -71.255583 
L 113.229499 -68.631358 
L 111.229968 -66.119995 
L 109.230437 -63.715514 
L 107.230907 -61.413513 
L 105.231376 -59.211324 
L 103.231845 -57.108 
L 101.232314 -55.104148 
L 99.232784 -53.201653 
L 97.233253 -51.403312 
L 95.233722 -49.712439 
L 93.234192 -48.132442 
L 91.234661 -46.66642 
L 89.23513 -45.316792 
L 87.235599 -44.084978 
L 85.236069 -42.97115 
L 83.236538 -41.974061 
L 81.237007 -41.090959 
L 79.237477 -40.317602 
L 77.237946 -39.64835 
L 75.238415 -39.076338 
L 73.238884 -38.593719 
L 71.239354 -38.191945 
L 69.239823 -37.862072 
L 67.240292 -37.595065 
L 65.240762 -37.38208 
L 63.241231 -37.214711 
L 61.2417 -37.085184 
L 59.24217 -36.98649 
L 57.242639 -36.912473 
L 55.243108 -36.857846 
L 53.243577 -36.818183 
L 51.244047 -36.789855 
L 49.244516 -36.769957 
L 47.244985 -36.756215 
L 45.245455 -36.746884 
z
" style="stroke: #dd8452"/>
    </defs>
    <g>
     <use xlink:href="#m634e00ecc7" x="0" y="265.689687" style="fill: #dd8452; fill-opacity: 0.25; stroke: #dd8452"/>
    </g>
   </g>
   <g id="FillBetweenPolyCollection_2">
    <defs>
     <path id="m7285ab43f6" d="M 215.246626 -36.737476 
L 215.246626 -36.729688 
L 218.216013 -36.729688 
L 221.1854 -36.729688 
L 224.154786 -36.729688 
L 227.124173 -36.729688 
L 230.093559 -36.729688 
L 233.062946 -36.729688 
L 236.032332 -36.729688 
L 239.001719 -36.729688 
L 241.971105 -36.729688 
L 244.940492 -36.729688 
L 247.909878 -36.729688 
L 250.879265 -36.729688 
L 253.848651 -36.729688 
L 256.818038 -36.729688 
L 259.787424 -36.729688 
L 262.756811 -36.729688 
L 265.726197 -36.729688 
L 268.695584 -36.729688 
L 271.66497 -36.729688 
L 274.634357 -36.729688 
L 277.603744 -36.729688 
L 280.57313 -36.729688 
L 283.542517 -36.729688 
L 286.511903 -36.729688 
L 289.48129 -36.729688 
L 292.450676 -36.729688 
L 295.420063 -36.729688 
L 298.389449 -36.729688 
L 301.358836 -36.729688 
L 304.328222 -36.729688 
L 307.297609 -36.729688 
L 310.266995 -36.729688 
L 313.236382 -36.729688 
L 316.205768 -36.729688 
L 319.175155 -36.729688 
L 322.144541 -36.729688 
L 325.113928 -36.729688 
L 328.083315 -36.729688 
L 331.052701 -36.729688 
L 334.022088 -36.729688 
L 336.991474 -36.729688 
L 339.960861 -36.729688 
L 342.930247 -36.729688 
L 345.899634 -36.729688 
L 348.86902 -36.729688 
L 351.838407 -36.729688 
L 354.807793 -36.729688 
L 357.77718 -36.729688 
L 360.746566 -36.729688 
L 363.715953 -36.729688 
L 366.685339 -36.729688 
L 369.654726 -36.729688 
L 372.624112 -36.729688 
L 375.593499 -36.729688 
L 378.562885 -36.729688 
L 381.532272 -36.729688 
L 384.501659 -36.729688 
L 387.471045 -36.729688 
L 390.440432 -36.729688 
L 393.409818 -36.729688 
L 396.379205 -36.729688 
L 399.348591 -36.729688 
L 402.317978 -36.729688 
L 405.287364 -36.729688 
L 408.256751 -36.729688 
L 411.226137 -36.729688 
L 414.195524 -36.729688 
L 417.16491 -36.729688 
L 420.134297 -36.729688 
L 423.103683 -36.729688 
L 426.07307 -36.729688 
L 429.042456 -36.729688 
L 432.011843 -36.729688 
L 434.98123 -36.729688 
L 437.950616 -36.729688 
L 440.920003 -36.729688 
L 443.889389 -36.729688 
L 446.858776 -36.729688 
L 449.828162 -36.729688 
L 452.797549 -36.729688 
L 455.766935 -36.729688 
L 458.736322 -36.729688 
L 461.705708 -36.729688 
L 464.675095 -36.729688 
L 467.644481 -36.729688 
L 470.613868 -36.729688 
L 473.583254 -36.729688 
L 476.552641 -36.729688 
L 479.522027 -36.729688 
L 482.491414 -36.729688 
L 485.4608 -36.729688 
L 488.430187 -36.729688 
L 491.399574 -36.729688 
L 494.36896 -36.729688 
L 497.338347 -36.729688 
L 500.307733 -36.729688 
L 503.27712 -36.729688 
L 506.246506 -36.729688 
L 509.215893 -36.729688 
L 512.185279 -36.729688 
L 515.154666 -36.729688 
L 518.124052 -36.729688 
L 521.093439 -36.729688 
L 524.062825 -36.729688 
L 527.032212 -36.729688 
L 530.001598 -36.729688 
L 532.970985 -36.729688 
L 535.940371 -36.729688 
L 538.909758 -36.729688 
L 541.879144 -36.729688 
L 544.848531 -36.729688 
L 547.817918 -36.729688 
L 550.787304 -36.729688 
L 553.756691 -36.729688 
L 556.726077 -36.729688 
L 559.695464 -36.729688 
L 562.66485 -36.729688 
L 565.634237 -36.729688 
L 568.603623 -36.729688 
L 571.57301 -36.729688 
L 574.542396 -36.729688 
L 577.511783 -36.729688 
L 580.481169 -36.729688 
L 583.450556 -36.729688 
L 586.419942 -36.729688 
L 589.389329 -36.729688 
L 592.358715 -36.729688 
L 595.328102 -36.729688 
L 598.297489 -36.729688 
L 601.266875 -36.729688 
L 604.236262 -36.729688 
L 607.205648 -36.729688 
L 610.175035 -36.729688 
L 613.144421 -36.729688 
L 616.113808 -36.729688 
L 619.083194 -36.729688 
L 622.052581 -36.729688 
L 625.021967 -36.729688 
L 627.991354 -36.729688 
L 630.96074 -36.729688 
L 633.930127 -36.729688 
L 636.899513 -36.729688 
L 639.8689 -36.729688 
L 642.838286 -36.729688 
L 645.807673 -36.729688 
L 648.777059 -36.729688 
L 651.746446 -36.729688 
L 654.715833 -36.729688 
L 657.685219 -36.729688 
L 660.654606 -36.729688 
L 663.623992 -36.729688 
L 666.593379 -36.729688 
L 669.562765 -36.729688 
L 672.532152 -36.729688 
L 675.501538 -36.729688 
L 678.470925 -36.729688 
L 681.440311 -36.729688 
L 684.409698 -36.729688 
L 687.379084 -36.729688 
L 690.348471 -36.729688 
L 693.317857 -36.729688 
L 696.287244 -36.729688 
L 699.25663 -36.729688 
L 702.226017 -36.729688 
L 705.195404 -36.729688 
L 708.16479 -36.729688 
L 711.134177 -36.729688 
L 714.103563 -36.729688 
L 717.07295 -36.729688 
L 720.042336 -36.729688 
L 723.011723 -36.729688 
L 725.981109 -36.729688 
L 728.950496 -36.729688 
L 731.919882 -36.729688 
L 734.889269 -36.729688 
L 737.858655 -36.729688 
L 740.828042 -36.729688 
L 743.797428 -36.729688 
L 746.766815 -36.729688 
L 749.736201 -36.729688 
L 752.705588 -36.729688 
L 755.674974 -36.729688 
L 758.644361 -36.729688 
L 761.613748 -36.729688 
L 764.583134 -36.729688 
L 767.552521 -36.729688 
L 770.521907 -36.729688 
L 773.491294 -36.729688 
L 776.46068 -36.729688 
L 779.430067 -36.729688 
L 782.399453 -36.729688 
L 785.36884 -36.729688 
L 788.338226 -36.729688 
L 791.307613 -36.729688 
L 794.276999 -36.729688 
L 797.246386 -36.729688 
L 800.215772 -36.729688 
L 803.185159 -36.729688 
L 806.154545 -36.729688 
L 806.154545 -36.751038 
L 806.154545 -36.751038 
L 803.185159 -36.765219 
L 800.215772 -36.787467 
L 797.246386 -36.82152 
L 794.276999 -36.872376 
L 791.307613 -36.946489 
L 788.338226 -37.051904 
L 785.36884 -37.198274 
L 782.399453 -37.396723 
L 779.430067 -37.659521 
L 776.46068 -37.999555 
L 773.491294 -38.429618 
L 770.521907 -38.961565 
L 767.552521 -39.605437 
L 764.583134 -40.368639 
L 761.613748 -41.255327 
L 758.644361 -42.266086 
L 755.674974 -43.397992 
L 752.705588 -44.645063 
L 749.736201 -45.999084 
L 746.766815 -47.450671 
L 743.797428 -48.990476 
L 740.828042 -50.610334 
L 737.858655 -52.304237 
L 734.889269 -54.068987 
L 731.919882 -55.904505 
L 728.950496 -57.813762 
L 725.981109 -59.802412 
L 723.011723 -61.878211 
L 720.042336 -64.050336 
L 717.07295 -66.328695 
L 714.103563 -68.723338 
L 711.134177 -71.243963 
L 708.16479 -73.899565 
L 705.195404 -76.698149 
L 702.226017 -79.646488 
L 699.25663 -82.749845 
L 696.287244 -86.011629 
L 693.317857 -89.432965 
L 690.348471 -93.012211 
L 687.379084 -96.74448 
L 684.409698 -100.621235 
L 681.440311 -104.630081 
L 678.470925 -108.754803 
L 675.501538 -112.975714 
L 672.532152 -117.270317 
L 669.562765 -121.614226 
L 666.593379 -125.982274 
L 663.623992 -130.349671 
L 660.654606 -134.693083 
L 657.685219 -138.99153 
L 654.715833 -143.226977 
L 651.746446 -147.384595 
L 648.777059 -151.452666 
L 645.807673 -155.422185 
L 642.838286 -159.286215 
L 639.8689 -163.039112 
L 636.899513 -166.675709 
L 633.930127 -170.190573 
L 630.96074 -173.577405 
L 627.991354 -176.828649 
L 625.021967 -179.93533 
L 622.052581 -182.887119 
L 619.083194 -185.672583 
L 616.113808 -188.279578 
L 613.144421 -190.695713 
L 610.175035 -192.908849 
L 607.205648 -194.907573 
L 604.236262 -196.681647 
L 601.266875 -198.222396 
L 598.297489 -199.523055 
L 595.328102 -200.579044 
L 592.358715 -201.388142 
L 589.389329 -201.950533 
L 586.419942 -202.268665 
L 583.450556 -202.3469 
L 580.481169 -202.190977 
L 577.511783 -201.807334 
L 574.542396 -201.202407 
L 571.57301 -200.382036 
L 568.603623 -199.351119 
L 565.634237 -198.113609 
L 562.66485 -196.67288 
L 559.695464 -195.032402 
L 556.726077 -193.196594 
L 553.756691 -191.171671 
L 550.787304 -188.966284 
L 547.817918 -186.591798 
L 544.848531 -184.062127 
L 541.879144 -181.393115 
L 538.909758 -178.601571 
L 535.940371 -175.704108 
L 532.970985 -172.715963 
L 530.001598 -169.649998 
L 527.032212 -166.516001 
L 524.062825 -163.320381 
L 521.093439 -160.066274 
L 518.124052 -156.754016 
L 515.154666 -153.381906 
L 512.185279 -149.947155 
L 509.215893 -146.446891 
L 506.246506 -142.879114 
L 503.27712 -139.243495 
L 500.307733 -135.541941 
L 497.338347 -131.778882 
L 494.36896 -127.961268 
L 491.399574 -124.09834 
L 488.430187 -120.201221 
L 485.4608 -116.282457 
L 482.491414 -112.35559 
L 479.522027 -108.434866 
L 476.552641 -104.535093 
L 473.583254 -100.671659 
L 470.613868 -96.860634 
L 467.644481 -93.118861 
L 464.675095 -89.463925 
L 461.705708 -85.91392 
L 458.736322 -82.486969 
L 455.766935 -79.200508 
L 452.797549 -76.070413 
L 449.828162 -73.110095 
L 446.858776 -70.329675 
L 443.889389 -67.735394 
L 440.920003 -65.329327 
L 437.950616 -63.109446 
L 434.98123 -61.070014 
L 432.011843 -59.202252 
L 429.042456 -57.495158 
L 426.07307 -55.936398 
L 423.103683 -54.513138 
L 420.134297 -53.212756 
L 417.16491 -52.023376 
L 414.195524 -50.934206 
L 411.226137 -49.935702 
L 408.256751 -49.019569 
L 405.287364 -48.178669 
L 402.317978 -47.406847 
L 399.348591 -46.698742 
L 396.379205 -46.049597 
L 393.409818 -45.455082 
L 390.440432 -44.911156 
L 387.471045 -44.41396 
L 384.501659 -43.959732 
L 381.532272 -43.544767 
L 378.562885 -43.165388 
L 375.593499 -42.817957 
L 372.624112 -42.498904 
L 369.654726 -42.204779 
L 366.685339 -41.932325 
L 363.715953 -41.67855 
L 360.746566 -41.440805 
L 357.77718 -41.21684 
L 354.807793 -41.004834 
L 351.838407 -40.803394 
L 348.86902 -40.611521 
L 345.899634 -40.428535 
L 342.930247 -40.253998 
L 339.960861 -40.087615 
L 336.991474 -39.92915 
L 334.022088 -39.778363 
L 331.052701 -39.634973 
L 328.083315 -39.498654 
L 325.113928 -39.369046 
L 322.144541 -39.245795 
L 319.175155 -39.128583 
L 316.205768 -39.017156 
L 313.236382 -38.91134 
L 310.266995 -38.811026 
L 307.297609 -38.716144 
L 304.328222 -38.626615 
L 301.358836 -38.54229 
L 298.389449 -38.462881 
L 295.420063 -38.387901 
L 292.450676 -38.316608 
L 289.48129 -38.247981 
L 286.511903 -38.180732 
L 283.542517 -38.113369 
L 280.57313 -38.044315 
L 277.603744 -37.972067 
L 274.634357 -37.895393 
L 271.66497 -37.813525 
L 268.695584 -37.726314 
L 265.726197 -37.63432 
L 262.756811 -37.538808 
L 259.787424 -37.44164 
L 256.818038 -37.345087 
L 253.848651 -37.251578 
L 250.879265 -37.163441 
L 247.909878 -37.082659 
L 244.940492 -37.010703 
L 241.971105 -36.948425 
L 239.001719 -36.896061 
L 236.032332 -36.853286 
L 233.062946 -36.819337 
L 230.093559 -36.793155 
L 227.124173 -36.773533 
L 224.154786 -36.759238 
L 221.1854 -36.749114 
L 218.216013 -36.742143 
L 215.246626 -36.737476 
z
" style="stroke: #4c72b0"/>
    </defs>
    <g>
     <use xlink:href="#m7285ab43f6" x="0" y="265.689687" style="fill: #4c72b0; fill-opacity: 0.25; stroke: #4c72b0"/>
    </g>
   </g>
   <g id="line2d_36">
    <path d="M 261.721429 228.96 
L 261.721429 7.2 
" style="fill: none; stroke-dasharray: 0.8,1.32; stroke-dashoffset: 0; stroke: #d3d3d3; stroke-width: 0.8"/>
   </g>
   <g id="line2d_37">
    <path d="M 460.055711 228.96 
L 460.055711 7.2 
" style="fill: none; stroke-dasharray: 0.8,1.32; stroke-dashoffset: 0; stroke: #d3d3d3; stroke-width: 0.8"/>
   </g>
   <g id="line2d_38">
    <path d="M 377.242823 228.96 
L 377.242823 7.2 
" style="fill: none; stroke-dasharray: 0.8,1.32; stroke-dashoffset: 0; stroke: #d3d3d3; stroke-width: 0.8"/>
   </g>
   <g id="line2d_39">
    <path d="M 7.2 228.96 
L 844.2 228.96 
" style="fill: none; stroke: #808080; stroke-width: 0.5; stroke-linecap: round"/>
   </g>
   <g id="text_12">
    <text style="font-size: 8px; font-family: 'Arial', 'DejaVu Sans', 'Liberation Sans', 'Bitstream Vera Sans', sans-serif; fill: #808080" transform="translate(267.975179 124.59635) rotate(-90)">International Poverty Line: $3.00</text>
   </g>
   <g id="text_13">
    <text style="font-size: 8px; font-family: 'Arial', 'DejaVu Sans', 'Liberation Sans', 'Bitstream Vera Sans', sans-serif; fill: #808080" transform="translate(465.781961 81.31135) rotate(-90)">World mean: $22.30</text>
   </g>
   <g id="text_14">
    <text style="font-size: 8px; font-family: 'Arial', 'DejaVu Sans', 'Liberation Sans', 'Bitstream Vera Sans', sans-serif; fill: #808080" transform="translate(382.969073 83.08885) rotate(-90)">World median: $9.65</text>
   </g>
   <g id="legend_1">
    <g id="patch_3">
     <path d="M 683.8 102.227 
L 775.83125 102.227 
Q 777.83125 102.227 777.83125 100.227 
L 777.83125 58.552 
Q 777.83125 56.552 775.83125 56.552 
L 683.8 56.552 
Q 681.8 56.552 681.8 58.552 
L 681.8 100.227 
Q 681.8 102.227 683.8 102.227 
z
" style="fill: #ffffff; opacity: 0.8; stroke: #cccccc; stroke-linejoin: miter"/>
    </g>
    <g id="text_15">
     <text style="font-size: 10px; font-family: 'Arial', 'DejaVu Sans', 'Liberation Sans', 'Bitstream Vera Sans', sans-serif; text-anchor: start; fill: #262626" x="712.309375" y="67.831687" transform="rotate(-0 712.309375 67.831687)">Country</text>
    </g>
    <g id="patch_4">
     <path d="M 685.8 82.094187 
L 705.8 82.094187 
L 705.8 75.094187 
L 685.8 75.094187 
z
" style="fill: #4c72b0; fill-opacity: 0.25; stroke: #4c72b0; stroke-linejoin: miter"/>
    </g>
    <g id="text_16">
     <text style="font-size: 10px; font-family: 'Arial', 'DejaVu Sans', 'Liberation Sans', 'Bitstream Vera Sans', sans-serif; text-anchor: start; fill: #262626" x="713.8" y="82.094187" transform="rotate(-0 713.8 82.094187)">United States</text>
    </g>
    <g id="patch_5">
     <path d="M 685.8 96.2395 
L 705.8 96.2395 
L 705.8 89.2395 
L 685.8 89.2395 
z
" style="fill: #dd8452; fill-opacity: 0.25; stroke: #dd8452; stroke-linejoin: miter"/>
    </g>
    <g id="text_17">
     <text style="font-size: 10px; font-family: 'Arial', 'DejaVu Sans', 'Liberation Sans', 'Bitstream Vera Sans', sans-serif; text-anchor: start; fill: #262626" x="713.8" y="96.2395" transform="rotate(-0 713.8 96.2395)">Burundi</text>
    </g>
   </g>
  </g>
 </g>
</svg>
