<?xml version="1.0" encoding="utf-8" standalone="no"?>
<!DOCTYPE svg PUBLIC "-//W3C//DTD SVG 1.1//EN"
  "http://www.w3.org/Graphics/SVG/1.1/DTD/svg11.dtd">
<svg xmlns:xlink="http://www.w3.org/1999/xlink" width="858.858612pt" height="265.689687pt" viewBox="0 0 858.858612 265.689687" xmlns="http://www.w3.org/2000/svg" version="1.1">
 <metadata>
  <rdf:RDF xmlns:dc="http://purl.org/dc/elements/1.1/" xmlns:cc="http://creativecommons.org/ns#" xmlns:rdf="http://www.w3.org/1999/02/22-rdf-syntax-ns#">
   <cc:Work>
    <dc:type rdf:resource="http://purl.org/dc/dcmitype/StillImage"/>
    <dc:date>2026-05-21T14:04:39.455909</dc:date>
    <dc:format>image/svg+xml</dc:format>
    <dc:creator>
     <cc:Agent>
      <dc:title>Matplotlib v3.10.1, https://matplotlib.org/</dc:title>
     </cc:Agent>
    </dc:creator>
   </cc:Work>
  </rdf:RDF>
 </metadata>
 <defs>
  <style type="text/css">*{stroke-linejoin: round; stroke-linecap: butt}</style>
 </defs>
 <g id="figure_1">
  <g id="patch_1">
   <path d="M 0 265.689687 
L 858.858612 265.689687 
L 858.858612 0 
L 0 0 
z
" style="fill: #ffffff"/>
  </g>
  <g id="axes_1">
   <g id="patch_2">
    <path d="M 7.2 228.96 
L 844.2 228.96 
L 844.2 7.2 
L 7.2 7.2 
z
" style="fill: #ffffff"/>
   </g>
   <g id="matplotlib.axis_1">
    <g id="xtick_1">
     <g id="line2d_1">
      <defs>
       <path id="m6855d98da6" d="M 0 0 
L 0 3.5 
" style="stroke: #262626; stroke-width: 0.8"/>
      </defs>
      <g>
       <use xlink:href="#m6855d98da6" x="154.79224" y="228.96" style="fill: #262626; stroke: #262626; stroke-width: 0.8"/>
      </g>
     </g>
     <g id="text_1">
      <text style="font-size: 10px; font-family: 'Arial', 'DejaVu Sans', 'Liberation Sans', 'Bitstream Vera Sans', sans-serif; text-anchor: middle; fill: #262626" x="154.79224" y="243.117812" transform="rotate(-0 154.79224 243.117812)">$1</text>
     </g>
    </g>
    <g id="xtick_2">
     <g id="line2d_2">
      <g>
       <use xlink:href="#m6855d98da6" x="223.323126" y="228.96" style="fill: #262626; stroke: #262626; stroke-width: 0.8"/>
      </g>
     </g>
     <g id="text_2">
      <text style="font-size: 10px; font-family: 'Arial', 'DejaVu Sans', 'Liberation Sans', 'Bitstream Vera Sans', sans-serif; text-anchor: middle; fill: #262626" x="223.323126" y="243.117812" transform="rotate(-0 223.323126 243.117812)">$2</text>
     </g>
    </g>
    <g id="xtick_3">
     <g id="line2d_3">
      <g>
       <use xlink:href="#m6855d98da6" x="313.91603" y="228.96" style="fill: #262626; stroke: #262626; stroke-width: 0.8"/>
      </g>
     </g>
     <g id="text_3">
      <text style="font-size: 10px; font-family: 'Arial', 'DejaVu Sans', 'Liberation Sans', 'Bitstream Vera Sans', sans-serif; text-anchor: middle; fill: #262626" x="313.91603" y="243.117812" transform="rotate(-0 313.91603 243.117812)">$5</text>
     </g>
    </g>
    <g id="xtick_4">
     <g id="line2d_4">
      <g>
       <use xlink:href="#m6855d98da6" x="382.446916" y="228.96" style="fill: #262626; stroke: #262626; stroke-width: 0.8"/>
      </g>
     </g>
     <g id="text_4">
      <text style="font-size: 10px; font-family: 'Arial', 'DejaVu Sans', 'Liberation Sans', 'Bitstream Vera Sans', sans-serif; text-anchor: middle; fill: #262626" x="382.446916" y="243.117812" transform="rotate(-0 382.446916 243.117812)">$10</text>
     </g>
    </g>
    <g id="xtick_5">
     <g id="line2d_5">
      <g>
       <use xlink:href="#m6855d98da6" x="450.977802" y="228.96" style="fill: #262626; stroke: #262626; stroke-width: 0.8"/>
      </g>
     </g>
     <g id="text_5">
      <text style="font-size: 10px; font-family: 'Arial', 'DejaVu Sans', 'Liberation Sans', 'Bitstream Vera Sans', sans-serif; text-anchor: middle; fill: #262626" x="450.977802" y="243.117812" transform="rotate(-0 450.977802 243.117812)">$20</text>
     </g>
    </g>
    <g id="xtick_6">
     <g id="line2d_6">
      <g>
       <use xlink:href="#m6855d98da6" x="541.570706" y="228.96" style="fill: #262626; stroke: #262626; stroke-width: 0.8"/>
      </g>
     </g>
     <g id="text_6">
      <text style="font-size: 10px; font-family: 'Arial', 'DejaVu Sans', 'Liberation Sans', 'Bitstream Vera Sans', sans-serif; text-anchor: middle; fill: #262626" x="541.570706" y="243.117812" transform="rotate(-0 541.570706 243.117812)">$50</text>
     </g>
    </g>
    <g id="xtick_7">
     <g id="line2d_7">
      <g>
       <use xlink:href="#m6855d98da6" x="610.101592" y="228.96" style="fill: #262626; stroke: #262626; stroke-width: 0.8"/>
      </g>
     </g>
     <g id="text_7">
      <text style="font-size: 10px; font-family: 'Arial', 'DejaVu Sans', 'Liberation Sans', 'Bitstream Vera Sans', sans-serif; text-anchor: middle; fill: #262626" x="610.101592" y="243.117812" transform="rotate(-0 610.101592 243.117812)">$100</text>
     </g>
    </g>
    <g id="xtick_8">
     <g id="line2d_8">
      <g>
       <use xlink:href="#m6855d98da6" x="678.632478" y="228.96" style="fill: #262626; stroke: #262626; stroke-width: 0.8"/>
      </g>
     </g>
     <g id="text_8">
      <text style="font-size: 10px; font-family: 'Arial', 'DejaVu Sans', 'Liberation Sans', 'Bitstream Vera Sans', sans-serif; text-anchor: middle; fill: #262626" x="678.632478" y="243.117812" transform="rotate(-0 678.632478 243.117812)">$200</text>
     </g>
    </g>
    <g id="xtick_9">
     <g id="line2d_9">
      <g>
       <use xlink:href="#m6855d98da6" x="769.225382" y="228.96" style="fill: #262626; stroke: #262626; stroke-width: 0.8"/>
      </g>
     </g>
     <g id="text_9">
      <text style="font-size: 10px; font-family: 'Arial', 'DejaVu Sans', 'Liberation Sans', 'Bitstream Vera Sans', sans-serif; text-anchor: middle; fill: #262626" x="769.225382" y="243.117812" transform="rotate(-0 769.225382 243.117812)">$500</text>
     </g>
    </g>
    <g id="xtick_10">
     <g id="line2d_10">
      <g>
       <use xlink:href="#m6855d98da6" x="837.756268" y="228.96" style="fill: #262626; stroke: #262626; stroke-width: 0.8"/>
      </g>
     </g>
     <g id="text_10">
      <text style="font-size: 10px; font-family: 'Arial', 'DejaVu Sans', 'Liberation Sans', 'Bitstream Vera Sans', sans-serif; text-anchor: middle; fill: #262626" x="837.756268" y="243.117812" transform="rotate(-0 837.756268 243.117812)">$1000</text>
     </g>
    </g>
    <g id="xtick_11">
     <g id="line2d_11">
      <defs>
       <path id="m5febadb828" d="M 0 0 
L 0 2 
" style="stroke: #262626; stroke-width: 0.6"/>
      </defs>
      <g>
       <use xlink:href="#m5febadb828" x="35.756449" y="228.96" style="fill: #262626; stroke: #262626; stroke-width: 0.6"/>
      </g>
     </g>
    </g>
    <g id="xtick_12">
     <g id="line2d_12">
      <g>
       <use xlink:href="#m5febadb828" x="64.199336" y="228.96" style="fill: #262626; stroke: #262626; stroke-width: 0.6"/>
      </g>
     </g>
    </g>
    <g id="xtick_13">
     <g id="line2d_13">
      <g>
       <use xlink:href="#m5febadb828" x="86.261354" y="228.96" style="fill: #262626; stroke: #262626; stroke-width: 0.6"/>
      </g>
     </g>
    </g>
    <g id="xtick_14">
     <g id="line2d_14">
      <g>
       <use xlink:href="#m5febadb828" x="104.287335" y="228.96" style="fill: #262626; stroke: #262626; stroke-width: 0.6"/>
      </g>
     </g>
    </g>
    <g id="xtick_15">
     <g id="line2d_15">
      <g>
       <use xlink:href="#m5febadb828" x="119.528084" y="228.96" style="fill: #262626; stroke: #262626; stroke-width: 0.6"/>
      </g>
     </g>
    </g>
    <g id="xtick_16">
     <g id="line2d_16">
      <g>
       <use xlink:href="#m5febadb828" x="132.730222" y="228.96" style="fill: #262626; stroke: #262626; stroke-width: 0.6"/>
      </g>
     </g>
    </g>
    <g id="xtick_17">
     <g id="line2d_17">
      <g>
       <use xlink:href="#m5febadb828" x="144.375333" y="228.96" style="fill: #262626; stroke: #262626; stroke-width: 0.6"/>
      </g>
     </g>
    </g>
    <g id="xtick_18">
     <g id="line2d_18">
      <g>
       <use xlink:href="#m5febadb828" x="263.411125" y="228.96" style="fill: #262626; stroke: #262626; stroke-width: 0.6"/>
      </g>
     </g>
    </g>
    <g id="xtick_19">
     <g id="line2d_19">
      <g>
       <use xlink:href="#m5febadb828" x="291.854012" y="228.96" style="fill: #262626; stroke: #262626; stroke-width: 0.6"/>
      </g>
     </g>
    </g>
    <g id="xtick_20">
     <g id="line2d_20">
      <g>
       <use xlink:href="#m5febadb828" x="331.942011" y="228.96" style="fill: #262626; stroke: #262626; stroke-width: 0.6"/>
      </g>
     </g>
    </g>
    <g id="xtick_21">
     <g id="line2d_21">
      <g>
       <use xlink:href="#m5febadb828" x="347.182761" y="228.96" style="fill: #262626; stroke: #262626; stroke-width: 0.6"/>
      </g>
     </g>
    </g>
    <g id="xtick_22">
     <g id="line2d_22">
      <g>
       <use xlink:href="#m5febadb828" x="360.384898" y="228.96" style="fill: #262626; stroke: #262626; stroke-width: 0.6"/>
      </g>
     </g>
    </g>
    <g id="xtick_23">
     <g id="line2d_23">
      <g>
       <use xlink:href="#m5febadb828" x="372.030009" y="228.96" style="fill: #262626; stroke: #262626; stroke-width: 0.6"/>
      </g>
     </g>
    </g>
    <g id="xtick_24">
     <g id="line2d_24">
      <g>
       <use xlink:href="#m5febadb828" x="491.065801" y="228.96" style="fill: #262626; stroke: #262626; stroke-width: 0.6"/>
      </g>
     </g>
    </g>
    <g id="xtick_25">
     <g id="line2d_25">
      <g>
       <use xlink:href="#m5febadb828" x="519.508688" y="228.96" style="fill: #262626; stroke: #262626; stroke-width: 0.6"/>
      </g>
     </g>
    </g>
    <g id="xtick_26">
     <g id="line2d_26">
      <g>
       <use xlink:href="#m5febadb828" x="559.596687" y="228.96" style="fill: #262626; stroke: #262626; stroke-width: 0.6"/>
      </g>
     </g>
    </g>
    <g id="xtick_27">
     <g id="line2d_27">
      <g>
       <use xlink:href="#m5febadb828" x="574.837437" y="228.96" style="fill: #262626; stroke: #262626; stroke-width: 0.6"/>
      </g>
     </g>
    </g>
    <g id="xtick_28">
     <g id="line2d_28">
      <g>
       <use xlink:href="#m5febadb828" x="588.039575" y="228.96" style="fill: #262626; stroke: #262626; stroke-width: 0.6"/>
      </g>
     </g>
    </g>
    <g id="xtick_29">
     <g id="line2d_29">
      <g>
       <use xlink:href="#m5febadb828" x="599.684686" y="228.96" style="fill: #262626; stroke: #262626; stroke-width: 0.6"/>
      </g>
     </g>
    </g>
    <g id="xtick_30">
     <g id="line2d_30">
      <g>
       <use xlink:href="#m5febadb828" x="718.720477" y="228.96" style="fill: #262626; stroke: #262626; stroke-width: 0.6"/>
      </g>
     </g>
    </g>
    <g id="xtick_31">
     <g id="line2d_31">
      <g>
       <use xlink:href="#m5febadb828" x="747.163365" y="228.96" style="fill: #262626; stroke: #262626; stroke-width: 0.6"/>
      </g>
     </g>
    </g>
    <g id="xtick_32">
     <g id="line2d_32">
      <g>
       <use xlink:href="#m5febadb828" x="787.251363" y="228.96" style="fill: #262626; stroke: #262626; stroke-width: 0.6"/>
      </g>
     </g>
    </g>
    <g id="xtick_33">
     <g id="line2d_33">
      <g>
       <use xlink:href="#m5febadb828" x="802.492113" y="228.96" style="fill: #262626; stroke: #262626; stroke-width: 0.6"/>
      </g>
     </g>
    </g>
    <g id="xtick_34">
     <g id="line2d_34">
      <g>
       <use xlink:href="#m5febadb828" x="815.694251" y="228.96" style="fill: #262626; stroke: #262626; stroke-width: 0.6"/>
      </g>
     </g>
    </g>
    <g id="xtick_35">
     <g id="line2d_35">
      <g>
       <use xlink:href="#m5febadb828" x="827.339362" y="228.96" style="fill: #262626; stroke: #262626; stroke-width: 0.6"/>
      </g>
     </g>
    </g>
    <g id="text_11">
     <text style="font-size: 10px; font-family: 'Arial', 'DejaVu Sans', 'Liberation Sans', 'Bitstream Vera Sans', sans-serif; text-anchor: middle; fill: #262626" x="425.7" y="256.385" transform="rotate(-0 425.7 256.385)">Income or consumption (day)</text>
    </g>
   </g>
   <g id="matplotlib.axis_2"/>
   <g id="FillBetweenPolyCollection_1">
    <defs>
     <path id="mccd9149ab6" d="M 45.245455 -36.746884 
L 45.245455 -36.729688 
L 47.244846 -36.729688 
L 49.244238 -36.729688 
L 51.24363 -36.729688 
L 53.243021 -36.729688 
L 55.242413 -36.729688 
L 57.241805 -36.729688 
L 59.241196 -36.729688 
L 61.240588 -36.729688 
L 63.23998 -36.729688 
L 65.239371 -36.729688 
L 67.238763 -36.729688 
L 69.238155 -36.729688 
L 71.237546 -36.729688 
L 73.236938 -36.729688 
L 75.23633 -36.729688 
L 77.235721 -36.729688 
L 79.235113 -36.729688 
L 81.234505 -36.729688 
L 83.233896 -36.729688 
L 85.233288 -36.729688 
L 87.23268 -36.729688 
L 89.232071 -36.729688 
L 91.231463 -36.729688 
L 93.230855 -36.729688 
L 95.230246 -36.729688 
L 97.229638 -36.729688 
L 99.22903 -36.729688 
L 101.228421 -36.729688 
L 103.227813 -36.729688 
L 105.227205 -36.729688 
L 107.226596 -36.729688 
L 109.225988 -36.729688 
L 111.22538 -36.729688 
L 113.224771 -36.729688 
L 115.224163 -36.729688 
L 117.223555 -36.729688 
L 119.222946 -36.729688 
L 121.222338 -36.729688 
L 123.22173 -36.729688 
L 125.221121 -36.729688 
L 127.220513 -36.729688 
L 129.219905 -36.729688 
L 131.219296 -36.729688 
L 133.218688 -36.729688 
L 135.21808 -36.729688 
L 137.217471 -36.729688 
L 139.216863 -36.729688 
L 141.216255 -36.729688 
L 143.215646 -36.729688 
L 145.215038 -36.729688 
L 147.21443 -36.729688 
L 149.213821 -36.729688 
L 151.213213 -36.729688 
L 153.212605 -36.729688 
L 155.211996 -36.729688 
L 157.211388 -36.729688 
L 159.21078 -36.729688 
L 161.210171 -36.729688 
L 163.209563 -36.729688 
L 165.208955 -36.729688 
L 167.208346 -36.729688 
L 169.207738 -36.729688 
L 171.20713 -36.729688 
L 173.206521 -36.729688 
L 175.205913 -36.729688 
L 177.205305 -36.729688 
L 179.204696 -36.729688 
L 181.204088 -36.729688 
L 183.20348 -36.729688 
L 185.202871 -36.729688 
L 187.202263 -36.729688 
L 189.201655 -36.729688 
L 191.201046 -36.729688 
L 193.200438 -36.729688 
L 195.19983 -36.729688 
L 197.199221 -36.729688 
L 199.198613 -36.729688 
L 201.198005 -36.729688 
L 203.197396 -36.729688 
L 205.196788 -36.729688 
L 207.19618 -36.729688 
L 209.195571 -36.729688 
L 211.194963 -36.729688 
L 213.194355 -36.729688 
L 215.193746 -36.729688 
L 217.193138 -36.729688 
L 219.19253 -36.729688 
L 221.191921 -36.729688 
L 223.191313 -36.729688 
L 225.190705 -36.729688 
L 227.190096 -36.729688 
L 229.189488 -36.729688 
L 231.18888 -36.729688 
L 233.188271 -36.729688 
L 235.187663 -36.729688 
L 237.187055 -36.729688 
L 239.186446 -36.729688 
L 241.185838 -36.729688 
L 243.18523 -36.729688 
L 245.184621 -36.729688 
L 247.184013 -36.729688 
L 249.183405 -36.729688 
L 251.182796 -36.729688 
L 253.182188 -36.729688 
L 255.18158 -36.729688 
L 257.180971 -36.729688 
L 259.180363 -36.729688 
L 261.179755 -36.729688 
L 263.179146 -36.729688 
L 265.178538 -36.729688 
L 267.17793 -36.729688 
L 269.177321 -36.729688 
L 271.176713 -36.729688 
L 273.176105 -36.729688 
L 275.175496 -36.729688 
L 277.174888 -36.729688 
L 279.17428 -36.729688 
L 281.173671 -36.729688 
L 283.173063 -36.729688 
L 285.172455 -36.729688 
L 287.171846 -36.729688 
L 289.171238 -36.729688 
L 291.17063 -36.729688 
L 293.170021 -36.729688 
L 295.169413 -36.729688 
L 297.168805 -36.729688 
L 299.168196 -36.729688 
L 301.167588 -36.729688 
L 303.16698 -36.729688 
L 305.166371 -36.729688 
L 307.165763 -36.729688 
L 309.165155 -36.729688 
L 311.164546 -36.729688 
L 313.163938 -36.729688 
L 315.16333 -36.729688 
L 317.162721 -36.729688 
L 319.162113 -36.729688 
L 321.161505 -36.729688 
L 323.160896 -36.729688 
L 325.160288 -36.729688 
L 327.15968 -36.729688 
L 329.159071 -36.729688 
L 331.158463 -36.729688 
L 333.157855 -36.729688 
L 335.157246 -36.729688 
L 337.156638 -36.729688 
L 339.15603 -36.729688 
L 341.155421 -36.729688 
L 343.154813 -36.729688 
L 345.154205 -36.729688 
L 347.153596 -36.729688 
L 349.152988 -36.729688 
L 351.15238 -36.729688 
L 353.151771 -36.729688 
L 355.151163 -36.729688 
L 357.150555 -36.729688 
L 359.149946 -36.729688 
L 361.149338 -36.729688 
L 363.14873 -36.729688 
L 365.148121 -36.729688 
L 367.147513 -36.729688 
L 369.146905 -36.729688 
L 371.146296 -36.729688 
L 373.145688 -36.729688 
L 375.14508 -36.729688 
L 377.144471 -36.729688 
L 379.143863 -36.729688 
L 381.143255 -36.729688 
L 383.142646 -36.729688 
L 385.142038 -36.729688 
L 387.14143 -36.729688 
L 389.140821 -36.729688 
L 391.140213 -36.729688 
L 393.139605 -36.729688 
L 395.138996 -36.729688 
L 397.138388 -36.729688 
L 399.13778 -36.729688 
L 401.137171 -36.729688 
L 403.136563 -36.729688 
L 405.135955 -36.729688 
L 407.135346 -36.729688 
L 409.134738 -36.729688 
L 411.13413 -36.729688 
L 413.133521 -36.729688 
L 415.132913 -36.729688 
L 417.132305 -36.729688 
L 419.131696 -36.729688 
L 421.131088 -36.729688 
L 423.13048 -36.729688 
L 425.129871 -36.729688 
L 427.129263 -36.729688 
L 429.128655 -36.729688 
L 431.128046 -36.729688 
L 433.127438 -36.729688 
L 435.12683 -36.729688 
L 437.126221 -36.729688 
L 439.125613 -36.729688 
L 441.125005 -36.729688 
L 443.124396 -36.729688 
L 443.124396 -36.748813 
L 443.124396 -36.748813 
L 441.125005 -36.759059 
L 439.125613 -36.774045 
L 437.126221 -36.795574 
L 435.12683 -36.825953 
L 433.127438 -36.868057 
L 431.128046 -36.925384 
L 429.128655 -37.002062 
L 427.129263 -37.102826 
L 425.129871 -37.232931 
L 423.13048 -37.398007 
L 421.131088 -37.603849 
L 419.131696 -37.856138 
L 417.132305 -38.160125 
L 415.132913 -38.520285 
L 413.133521 -38.939976 
L 411.13413 -39.421143 
L 409.134738 -39.964093 
L 407.135346 -40.567385 
L 405.135955 -41.227856 
L 403.136563 -41.940789 
L 401.137171 -42.700225 
L 399.13778 -43.499387 
L 397.138388 -44.331186 
L 395.138996 -45.188758 
L 393.139605 -46.065961 
L 391.140213 -46.957805 
L 389.140821 -47.860745 
L 387.14143 -48.772832 
L 385.142038 -49.693692 
L 383.142646 -50.624362 
L 381.143255 -51.567016 
L 379.143863 -52.524604 
L 377.144471 -53.500484 
L 375.14508 -54.498075 
L 373.145688 -55.520576 
L 371.146296 -56.570796 
L 369.146905 -57.651076 
L 367.147513 -58.763326 
L 365.148121 -59.909138 
L 363.14873 -61.089953 
L 361.149338 -62.307238 
L 359.149946 -63.56264 
L 357.150555 -64.858093 
L 355.151163 -66.195843 
L 353.151771 -67.578402 
L 351.15238 -69.008428 
L 349.152988 -70.488569 
L 347.153596 -72.021286 
L 345.154205 -73.608713 
L 343.154813 -75.252577 
L 341.155421 -76.954211 
L 339.15603 -78.714675 
L 337.156638 -80.53496 
L 335.157246 -82.416268 
L 333.157855 -84.360297 
L 331.158463 -86.369497 
L 329.159071 -88.447231 
L 327.15968 -90.59779 
L 325.160288 -92.826266 
L 323.160896 -95.13825 
L 321.161505 -97.539431 
L 319.162113 -100.035105 
L 317.162721 -102.629705 
L 315.16333 -105.32639 
L 313.163938 -108.126773 
L 311.164546 -111.030811 
L 309.165155 -114.036874 
L 307.165763 -117.141969 
L 305.166371 -120.34207 
L 303.16698 -123.632499 
L 301.167588 -127.008283 
L 299.168196 -130.464431 
L 297.168805 -133.996089 
L 295.169413 -137.598537 
L 293.170021 -141.267058 
L 291.17063 -144.996685 
L 289.171238 -148.781884 
L 287.171846 -152.616236 
L 285.172455 -156.492167 
L 283.173063 -160.400798 
L 281.173671 -164.331956 
L 279.17428 -168.274358 
L 277.174888 -172.215996 
L 275.175496 -176.144677 
L 273.176105 -180.048688 
L 271.176713 -183.917501 
L 269.177321 -187.742443 
L 267.17793 -191.517218 
L 265.178538 -195.238187 
L 263.179146 -198.904318 
L 261.179755 -202.516749 
L 259.180363 -206.077959 
L 257.180971 -209.590575 
L 255.18158 -213.055937 
L 253.182188 -216.472567 
L 251.182796 -219.834726 
L 249.183405 -223.131286 
L 247.184013 -226.345078 
L 245.184621 -229.452862 
L 243.18523 -232.425974 
L 241.185838 -235.231601 
L 239.186446 -237.834577 
L 237.187055 -240.199483 
L 235.187663 -242.292817 
L 233.188271 -244.084999 
L 231.18888 -245.551999 
L 229.189488 -246.676458 
L 227.190096 -247.448266 
L 225.190705 -247.864623 
L 223.191313 -247.929687 
L 221.191921 -247.653973 
L 219.19253 -247.053604 
L 217.193138 -246.149548 
L 215.193746 -244.966882 
L 213.194355 -243.534053 
L 211.194963 -241.882097 
L 209.195571 -240.04372 
L 207.19618 -238.052164 
L 205.196788 -235.939819 
L 203.197396 -233.736624 
L 201.198005 -231.468335 
L 199.198613 -229.154843 
L 197.199221 -226.808729 
L 195.19983 -224.43427 
L 193.200438 -222.02708 
L 191.201046 -219.574478 
L 189.201655 -217.056638 
L 187.202263 -214.448415 
L 185.202871 -211.721715 
L 183.20348 -208.84816 
L 181.204088 -205.801781 
L 179.204696 -202.561468 
L 177.205305 -199.11292 
L 175.205913 -195.449929 
L 173.206521 -191.574867 
L 171.20713 -187.498393 
L 169.207738 -183.238431 
L 167.208346 -178.818593 
L 165.208955 -174.266238 
L 163.209563 -169.610429 
L 161.210171 -164.879997 
L 159.21078 -160.101937 
L 157.211388 -155.300275 
L 155.211996 -150.495487 
L 153.212605 -145.70446 
L 151.213213 -140.940936 
L 149.213821 -136.216288 
L 147.21443 -131.540477 
L 145.215038 -126.922991 
L 143.215646 -122.373622 
L 141.216255 -117.902951 
L 139.216863 -113.522476 
L 137.217471 -109.244374 
L 135.21808 -105.080973 
L 133.218688 -101.044004 
L 131.219296 -97.143798 
L 129.219905 -93.388527 
L 127.220513 -89.783635 
L 125.221121 -86.331527 
L 123.22173 -83.031557 
L 121.222338 -79.88031 
L 119.222946 -76.872141 
L 117.223555 -73.999872 
L 115.224163 -71.255578 
L 113.224771 -68.631353 
L 111.22538 -66.11999 
L 109.225988 -63.71551 
L 107.226596 -61.413509 
L 105.227205 -59.21132 
L 103.227813 -57.107996 
L 101.228421 -55.104145 
L 99.22903 -53.201649 
L 97.229638 -51.403309 
L 95.230246 -49.712436 
L 93.230855 -48.132439 
L 91.231463 -46.666417 
L 89.232071 -45.316789 
L 87.23268 -44.084976 
L 85.233288 -42.971149 
L 83.233896 -41.974059 
L 81.234505 -41.090958 
L 79.235113 -40.317601 
L 77.235721 -39.648349 
L 75.23633 -39.076337 
L 73.236938 -38.593718 
L 71.237546 -38.191945 
L 69.238155 -37.862072 
L 67.238763 -37.595064 
L 65.239371 -37.38208 
L 63.23998 -37.214711 
L 61.240588 -37.085184 
L 59.241196 -36.98649 
L 57.241805 -36.912473 
L 55.242413 -36.857846 
L 53.243021 -36.818183 
L 51.24363 -36.789855 
L 49.244238 -36.769957 
L 47.244846 -36.756215 
L 45.245455 -36.746884 
z
" style="stroke: #dd8452"/>
    </defs>
    <g>
     <use xlink:href="#mccd9149ab6" x="0" y="265.689687" style="fill: #dd8452; fill-opacity: 0.25; stroke: #dd8452"/>
    </g>
   </g>
   <g id="FillBetweenPolyCollection_2">
    <defs>
     <path id="m919d6b38ac" d="M 215.287725 -36.737476 
L 215.287725 -36.729688 
L 218.256905 -36.729688 
L 221.226085 -36.729688 
L 224.195265 -36.729688 
L 227.164445 -36.729688 
L 230.133625 -36.729688 
L 233.102805 -36.729688 
L 236.071985 -36.729688 
L 239.041165 -36.729688 
L 242.010345 -36.729688 
L 244.979525 -36.729688 
L 247.948705 -36.729688 
L 250.917885 -36.729688 
L 253.887065 -36.729688 
L 256.856245 -36.729688 
L 259.825425 -36.729688 
L 262.794605 -36.729688 
L 265.763785 -36.729688 
L 268.732965 -36.729688 
L 271.702145 -36.729688 
L 274.671325 -36.729688 
L 277.640505 -36.729688 
L 280.609685 -36.729688 
L 283.578865 -36.729688 
L 286.548045 -36.729688 
L 289.517225 -36.729688 
L 292.486405 -36.729688 
L 295.455585 -36.729688 
L 298.424765 -36.729688 
L 301.393945 -36.729688 
L 304.363125 -36.729688 
L 307.332305 -36.729688 
L 310.301485 -36.729688 
L 313.270665 -36.729688 
L 316.239845 -36.729688 
L 319.209025 -36.729688 
L 322.178205 -36.729688 
L 325.147385 -36.729688 
L 328.116565 -36.729688 
L 331.085745 -36.729688 
L 334.054925 -36.729688 
L 337.024105 -36.729688 
L 339.993285 -36.729688 
L 342.962465 -36.729688 
L 345.931645 -36.729688 
L 348.900825 -36.729688 
L 351.870005 -36.729688 
L 354.839185 -36.729688 
L 357.808365 -36.729688 
L 360.777545 -36.729688 
L 363.746725 -36.729688 
L 366.715905 -36.729688 
L 369.685085 -36.729688 
L 372.654265 -36.729688 
L 375.623445 -36.729688 
L 378.592625 -36.729688 
L 381.561805 -36.729688 
L 384.530985 -36.729688 
L 387.500165 -36.729688 
L 390.469345 -36.729688 
L 393.438525 -36.729688 
L 396.407705 -36.729688 
L 399.376885 -36.729688 
L 402.346065 -36.729688 
L 405.315245 -36.729688 
L 408.284425 -36.729688 
L 411.253605 -36.729688 
L 414.222785 -36.729688 
L 417.191965 -36.729688 
L 420.161145 -36.729688 
L 423.130325 -36.729688 
L 426.099505 -36.729688 
L 429.068685 -36.729688 
L 432.037865 -36.729688 
L 435.007045 -36.729688 
L 437.976225 -36.729688 
L 440.945405 -36.729688 
L 443.914585 -36.729688 
L 446.883765 -36.729688 
L 449.852945 -36.729688 
L 452.822125 -36.729688 
L 455.791305 -36.729688 
L 458.760485 -36.729688 
L 461.729665 -36.729688 
L 464.698845 -36.729688 
L 467.668025 -36.729688 
L 470.637205 -36.729688 
L 473.606385 -36.729688 
L 476.575565 -36.729688 
L 479.544745 -36.729688 
L 482.513925 -36.729688 
L 485.483105 -36.729688 
L 488.452285 -36.729688 
L 491.421465 -36.729688 
L 494.390645 -36.729688 
L 497.359825 -36.729688 
L 500.329005 -36.729688 
L 503.298185 -36.729688 
L 506.267365 -36.729688 
L 509.236545 -36.729688 
L 512.205725 -36.729688 
L 515.174905 -36.729688 
L 518.144085 -36.729688 
L 521.113265 -36.729688 
L 524.082445 -36.729688 
L 527.051625 -36.729688 
L 530.020805 -36.729688 
L 532.989985 -36.729688 
L 535.959165 -36.729688 
L 538.928345 -36.729688 
L 541.897525 -36.729688 
L 544.866705 -36.729688 
L 547.835885 -36.729688 
L 550.805065 -36.729688 
L 553.774245 -36.729688 
L 556.743425 -36.729688 
L 559.712605 -36.729688 
L 562.681785 -36.729688 
L 565.650965 -36.729688 
L 568.620145 -36.729688 
L 571.589325 -36.729688 
L 574.558505 -36.729688 
L 577.527685 -36.729688 
L 580.496865 -36.729688 
L 583.466045 -36.729688 
L 586.435225 -36.729688 
L 589.404405 -36.729688 
L 592.373585 -36.729688 
L 595.342765 -36.729688 
L 598.311945 -36.729688 
L 601.281125 -36.729688 
L 604.250305 -36.729688 
L 607.219485 -36.729688 
L 610.188665 -36.729688 
L 613.157845 -36.729688 
L 616.127025 -36.729688 
L 619.096205 -36.729688 
L 622.065385 -36.729688 
L 625.034565 -36.729688 
L 628.003745 -36.729688 
L 630.972925 -36.729688 
L 633.942105 -36.729688 
L 636.911285 -36.729688 
L 639.880465 -36.729688 
L 642.849645 -36.729688 
L 645.818825 -36.729688 
L 648.788005 -36.729688 
L 651.757185 -36.729688 
L 654.726365 -36.729688 
L 657.695545 -36.729688 
L 660.664725 -36.729688 
L 663.633905 -36.729688 
L 666.603085 -36.729688 
L 669.572265 -36.729688 
L 672.541445 -36.729688 
L 675.510625 -36.729688 
L 678.479805 -36.729688 
L 681.448985 -36.729688 
L 684.418165 -36.729688 
L 687.387345 -36.729688 
L 690.356525 -36.729688 
L 693.325705 -36.729688 
L 696.294885 -36.729688 
L 699.264065 -36.729688 
L 702.233245 -36.729688 
L 705.202425 -36.729688 
L 708.171605 -36.729688 
L 711.140785 -36.729688 
L 714.109965 -36.729688 
L 717.079145 -36.729688 
L 720.048325 -36.729688 
L 723.017505 -36.729688 
L 725.986685 -36.729688 
L 728.955865 -36.729688 
L 731.925045 -36.729688 
L 734.894225 -36.729688 
L 737.863405 -36.729688 
L 740.832585 -36.729688 
L 743.801765 -36.729688 
L 746.770945 -36.729688 
L 749.740125 -36.729688 
L 752.709305 -36.729688 
L 755.678485 -36.729688 
L 758.647665 -36.729688 
L 761.616845 -36.729688 
L 764.586025 -36.729688 
L 767.555205 -36.729688 
L 770.524385 -36.729688 
L 773.493565 -36.729688 
L 776.462745 -36.729688 
L 779.431925 -36.729688 
L 782.401105 -36.729688 
L 785.370285 -36.729688 
L 788.339465 -36.729688 
L 791.308645 -36.729688 
L 794.277825 -36.729688 
L 797.247005 -36.729688 
L 800.216185 -36.729688 
L 803.185365 -36.729688 
L 806.154545 -36.729688 
L 806.154545 -36.751038 
L 806.154545 -36.751038 
L 803.185365 -36.765219 
L 800.216185 -36.787467 
L 797.247005 -36.82152 
L 794.277825 -36.872376 
L 791.308645 -36.946489 
L 788.339465 -37.051904 
L 785.370285 -37.198274 
L 782.401105 -37.396723 
L 779.431925 -37.659521 
L 776.462745 -37.999555 
L 773.493565 -38.429617 
L 770.524385 -38.961565 
L 767.555205 -39.605437 
L 764.586025 -40.368639 
L 761.616845 -41.255327 
L 758.647665 -42.266086 
L 755.678485 -43.397991 
L 752.709305 -44.645063 
L 749.740125 -45.999083 
L 746.770945 -47.450671 
L 743.801765 -48.990475 
L 740.832585 -50.610334 
L 737.863405 -52.304236 
L 734.894225 -54.068987 
L 731.925045 -55.904505 
L 728.955865 -57.813761 
L 725.986685 -59.802411 
L 723.017505 -61.878211 
L 720.048325 -64.050335 
L 717.079145 -66.328695 
L 714.109965 -68.723337 
L 711.140785 -71.243962 
L 708.171605 -73.899564 
L 705.202425 -76.698148 
L 702.233245 -79.646487 
L 699.264065 -82.749844 
L 696.294885 -86.011628 
L 693.325705 -89.432963 
L 690.356525 -93.01221 
L 687.387345 -96.744479 
L 684.418165 -100.621234 
L 681.448985 -104.630081 
L 678.479805 -108.754803 
L 675.510625 -112.975714 
L 672.541445 -117.270316 
L 669.572265 -121.614226 
L 666.603085 -125.982274 
L 663.633905 -130.349671 
L 660.664725 -134.693083 
L 657.695545 -138.99153 
L 654.726365 -143.226977 
L 651.757185 -147.384595 
L 648.788005 -151.452666 
L 645.818825 -155.422186 
L 642.849645 -159.286216 
L 639.880465 -163.039113 
L 636.911285 -166.67571 
L 633.942105 -170.190575 
L 630.972925 -173.577407 
L 628.003745 -176.828651 
L 625.034565 -179.935332 
L 622.065385 -182.887122 
L 619.096205 -185.672586 
L 616.127025 -188.27958 
L 613.157845 -190.695715 
L 610.188665 -192.908851 
L 607.219485 -194.907575 
L 604.250305 -196.681648 
L 601.281125 -198.222397 
L 598.311945 -199.523056 
L 595.342765 -200.579044 
L 592.373585 -201.388142 
L 589.404405 -201.950534 
L 586.435225 -202.268665 
L 583.466045 -202.3469 
L 580.496865 -202.190977 
L 577.527685 -201.807335 
L 574.558505 -201.202408 
L 571.589325 -200.382037 
L 568.620145 -199.35112 
L 565.650965 -198.11361 
L 562.681785 -196.672882 
L 559.712605 -195.032403 
L 556.743425 -193.196595 
L 553.774245 -191.171672 
L 550.805065 -188.966285 
L 547.835885 -186.5918 
L 544.866705 -184.06213 
L 541.897525 -181.393117 
L 538.928345 -178.601574 
L 535.959165 -175.70411 
L 532.989985 -172.715964 
L 530.020805 -169.649999 
L 527.051625 -166.516002 
L 524.082445 -163.320382 
L 521.113265 -160.066275 
L 518.144085 -156.754016 
L 515.174905 -153.381906 
L 512.205725 -149.947155 
L 509.236545 -146.446891 
L 506.267365 -142.879113 
L 503.298185 -139.243495 
L 500.329005 -135.541941 
L 497.359825 -131.778882 
L 494.390645 -127.961269 
L 491.421465 -124.09834 
L 488.452285 -120.201222 
L 485.483105 -116.282457 
L 482.513925 -112.355591 
L 479.544745 -108.434867 
L 476.575565 -104.535093 
L 473.606385 -100.671659 
L 470.637205 -96.860635 
L 467.668025 -93.118861 
L 464.698845 -89.463925 
L 461.729665 -85.91392 
L 458.760485 -82.486969 
L 455.791305 -79.200507 
L 452.822125 -76.070413 
L 449.852945 -73.110094 
L 446.883765 -70.329674 
L 443.914585 -67.735393 
L 440.945405 -65.329327 
L 437.976225 -63.109445 
L 435.007045 -61.070014 
L 432.037865 -59.202251 
L 429.068685 -57.495158 
L 426.099505 -55.936398 
L 423.130325 -54.513138 
L 420.161145 -53.212756 
L 417.191965 -52.023376 
L 414.222785 -50.934206 
L 411.253605 -49.935702 
L 408.284425 -49.01957 
L 405.315245 -48.178669 
L 402.346065 -47.406847 
L 399.376885 -46.698743 
L 396.407705 -46.049597 
L 393.438525 -45.455082 
L 390.469345 -44.911156 
L 387.500165 -44.41396 
L 384.530985 -43.959732 
L 381.561805 -43.544767 
L 378.592625 -43.165388 
L 375.623445 -42.817957 
L 372.654265 -42.498904 
L 369.685085 -42.204779 
L 366.715905 -41.932325 
L 363.746725 -41.67855 
L 360.777545 -41.440805 
L 357.808365 -41.216839 
L 354.839185 -41.004833 
L 351.870005 -40.803394 
L 348.900825 -40.61152 
L 345.931645 -40.428535 
L 342.962465 -40.253998 
L 339.993285 -40.087615 
L 337.024105 -39.929149 
L 334.054925 -39.778362 
L 331.085745 -39.634973 
L 328.116565 -39.498654 
L 325.147385 -39.369046 
L 322.178205 -39.245795 
L 319.209025 -39.128583 
L 316.239845 -39.017156 
L 313.270665 -38.91134 
L 310.301485 -38.811026 
L 307.332305 -38.716144 
L 304.363125 -38.626615 
L 301.393945 -38.54229 
L 298.424765 -38.462881 
L 295.455585 -38.387902 
L 292.486405 -38.316608 
L 289.517225 -38.247981 
L 286.548045 -38.180732 
L 283.578865 -38.113369 
L 280.609685 -38.044315 
L 277.640505 -37.972067 
L 274.671325 -37.895393 
L 271.702145 -37.813525 
L 268.732965 -37.726313 
L 265.763785 -37.63432 
L 262.794605 -37.538808 
L 259.825425 -37.44164 
L 256.856245 -37.345087 
L 253.887065 -37.251578 
L 250.917885 -37.163441 
L 247.948705 -37.082659 
L 244.979525 -37.010703 
L 242.010345 -36.948425 
L 239.041165 -36.896061 
L 236.071985 -36.853286 
L 233.102805 -36.819337 
L 230.133625 -36.793155 
L 227.164445 -36.773533 
L 224.195265 -36.759238 
L 221.226085 -36.749114 
L 218.256905 -36.742143 
L 215.287725 -36.737476 
z
" style="stroke: #4c72b0"/>
    </defs>
    <g>
     <use xlink:href="#m919d6b38ac" x="0" y="265.689687" style="fill: #4c72b0; fill-opacity: 0.25; stroke: #4c72b0"/>
    </g>
   </g>
   <g id="line2d_36">
    <path d="M 263.411125 228.96 
L 263.411125 7.2 
" style="fill: none; stroke-dasharray: 2.96,1.28; stroke-dashoffset: 0; stroke: #d3d3d3; stroke-width: 0.8"/>
   </g>
   <g id="line2d_37">
    <path d="M 460.159649 228.96 
L 460.159649 7.2 
" style="fill: none; stroke-dasharray: 2.96,1.28; stroke-dashoffset: 0; stroke: #d3d3d3; stroke-width: 0.8"/>
   </g>
   <g id="line2d_38">
    <path d="M 376.85385 228.96 
L 376.85385 7.2 
" style="fill: none; stroke-dasharray: 2.96,1.28; stroke-dashoffset: 0; stroke: #d3d3d3; stroke-width: 0.8"/>
   </g>
   <g id="line2d_39">
    <path d="M 7.2 228.96 
L 844.2 228.96 
" style="fill: none; stroke: #808080; stroke-width: 0.5; stroke-linecap: round"/>
   </g>
   <g id="text_12">
    <text style="font-size: 8px; font-family: 'Arial', 'DejaVu Sans', 'Liberation Sans', 'Bitstream Vera Sans', sans-serif; fill: #808080" transform="translate(269.664875 124.59635) rotate(-90)">International Poverty Line: $3.00</text>
   </g>
   <g id="text_13">
    <text style="font-size: 8px; font-family: 'Arial', 'DejaVu Sans', 'Liberation Sans', 'Bitstream Vera Sans', sans-serif; fill: #808080" transform="translate(465.885899 81.31135) rotate(-90)">World mean: $21.95</text>
   </g>
   <g id="text_14">
    <text style="font-size: 8px; font-family: 'Arial', 'DejaVu Sans', 'Liberation Sans', 'Bitstream Vera Sans', sans-serif; fill: #808080" transform="translate(382.5801 83.08885) rotate(-90)">World median: $9.45</text>
   </g>
   <g id="legend_1">
    <g id="patch_3">
     <path d="M 683.8 102.227 
L 775.83125 102.227 
Q 777.83125 102.227 777.83125 100.227 
L 777.83125 58.552 
Q 777.83125 56.552 775.83125 56.552 
L 683.8 56.552 
Q 681.8 56.552 681.8 58.552 
L 681.8 100.227 
Q 681.8 102.227 683.8 102.227 
z
" style="fill: #ffffff; opacity: 0.8; stroke: #cccccc; stroke-linejoin: miter"/>
    </g>
    <g id="text_15">
     <text style="font-size: 10px; font-family: 'Arial', 'DejaVu Sans', 'Liberation Sans', 'Bitstream Vera Sans', sans-serif; text-anchor: start; fill: #262626" x="712.309375" y="67.831687" transform="rotate(-0 712.309375 67.831687)">Country</text>
    </g>
    <g id="patch_4">
     <path d="M 685.8 82.094187 
L 705.8 82.094187 
L 705.8 75.094187 
L 685.8 75.094187 
z
" style="fill: #4c72b0; fill-opacity: 0.25; stroke: #4c72b0; stroke-linejoin: miter"/>
    </g>
    <g id="text_16">
     <text style="font-size: 10px; font-family: 'Arial', 'DejaVu Sans', 'Liberation Sans', 'Bitstream Vera Sans', sans-serif; text-anchor: start; fill: #262626" x="713.8" y="82.094187" transform="rotate(-0 713.8 82.094187)">United States</text>
    </g>
    <g id="patch_5">
     <path d="M 685.8 96.2395 
L 705.8 96.2395 
L 705.8 89.2395 
L 685.8 89.2395 
z
" style="fill: #dd8452; fill-opacity: 0.25; stroke: #dd8452; stroke-linejoin: miter"/>
    </g>
    <g id="text_17">
     <text style="font-size: 10px; font-family: 'Arial', 'DejaVu Sans', 'Liberation Sans', 'Bitstream Vera Sans', sans-serif; text-anchor: start; fill: #262626" x="713.8" y="96.2395" transform="rotate(-0 713.8 96.2395)">Burundi</text>
    </g>
   </g>
  </g>
 </g>
</svg>
