<?xml version="1.0" encoding="utf-8" standalone="no"?>
<!DOCTYPE svg PUBLIC "-//W3C//DTD SVG 1.1//EN"
  "http://www.w3.org/Graphics/SVG/1.1/DTD/svg11.dtd">
<svg xmlns:xlink="http://www.w3.org/1999/xlink" width="851.4pt" height="265.689687pt" viewBox="0 0 851.4 265.689687" xmlns="http://www.w3.org/2000/svg" version="1.1">
 <metadata>
  <rdf:RDF xmlns:dc="http://purl.org/dc/elements/1.1/" xmlns:cc="http://creativecommons.org/ns#" xmlns:rdf="http://www.w3.org/1999/02/22-rdf-syntax-ns#">
   <cc:Work>
    <dc:type rdf:resource="http://purl.org/dc/dcmitype/StillImage"/>
    <dc:date>2025-08-21T09:55:18.675772</dc:date>
    <dc:format>image/svg+xml</dc:format>
    <dc:creator>
     <cc:Agent>
      <dc:title>Matplotlib v3.10.1, https://matplotlib.org/</dc:title>
     </cc:Agent>
    </dc:creator>
   </cc:Work>
  </rdf:RDF>
 </metadata>
 <defs>
  <style type="text/css">*{stroke-linejoin: round; stroke-linecap: butt}</style>
 </defs>
 <g id="figure_1">
  <g id="patch_1">
   <path d="M 0 265.689687 
L 851.4 265.689687 
L 851.4 0 
L 0 0 
z
" style="fill: #ffffff"/>
  </g>
  <g id="axes_1">
   <g id="patch_2">
    <path d="M 7.2 228.96 
L 844.2 228.96 
L 844.2 7.2 
L 7.2 7.2 
z
" style="fill: #ffffff"/>
   </g>
   <g id="matplotlib.axis_1">
    <g id="xtick_1">
     <g id="line2d_1">
      <defs>
       <path id="m67c7b4d9d2" d="M 0 0 
L 0 3.5 
" style="stroke: #262626; stroke-width: 0.8"/>
      </defs>
      <g>
       <use xlink:href="#m67c7b4d9d2" x="207.079586" y="228.96" style="fill: #262626; stroke: #262626; stroke-width: 0.8"/>
      </g>
     </g>
     <g id="text_1">
      <text style="font-size: 10px; font-family: 'Arial', 'DejaVu Sans', 'Liberation Sans', 'Bitstream Vera Sans', sans-serif; text-anchor: middle; fill: #262626" x="207.079586" y="243.117812" transform="rotate(-0 207.079586 243.117812)">1</text>
     </g>
    </g>
    <g id="xtick_2">
     <g id="line2d_2">
      <g>
       <use xlink:href="#m67c7b4d9d2" x="261.657114" y="228.96" style="fill: #262626; stroke: #262626; stroke-width: 0.8"/>
      </g>
     </g>
     <g id="text_2">
      <text style="font-size: 10px; font-family: 'Arial', 'DejaVu Sans', 'Liberation Sans', 'Bitstream Vera Sans', sans-serif; text-anchor: middle; fill: #262626" x="261.657114" y="243.117812" transform="rotate(-0 261.657114 243.117812)">2</text>
     </g>
    </g>
    <g id="xtick_3">
     <g id="line2d_3">
      <g>
       <use xlink:href="#m67c7b4d9d2" x="333.80468" y="228.96" style="fill: #262626; stroke: #262626; stroke-width: 0.8"/>
      </g>
     </g>
     <g id="text_3">
      <text style="font-size: 10px; font-family: 'Arial', 'DejaVu Sans', 'Liberation Sans', 'Bitstream Vera Sans', sans-serif; text-anchor: middle; fill: #262626" x="333.80468" y="243.117812" transform="rotate(-0 333.80468 243.117812)">5</text>
     </g>
    </g>
    <g id="xtick_4">
     <g id="line2d_4">
      <g>
       <use xlink:href="#m67c7b4d9d2" x="388.382207" y="228.96" style="fill: #262626; stroke: #262626; stroke-width: 0.8"/>
      </g>
     </g>
     <g id="text_4">
      <text style="font-size: 10px; font-family: 'Arial', 'DejaVu Sans', 'Liberation Sans', 'Bitstream Vera Sans', sans-serif; text-anchor: middle; fill: #262626" x="388.382207" y="243.117812" transform="rotate(-0 388.382207 243.117812)">10</text>
     </g>
    </g>
    <g id="xtick_5">
     <g id="line2d_5">
      <g>
       <use xlink:href="#m67c7b4d9d2" x="442.959735" y="228.96" style="fill: #262626; stroke: #262626; stroke-width: 0.8"/>
      </g>
     </g>
     <g id="text_5">
      <text style="font-size: 10px; font-family: 'Arial', 'DejaVu Sans', 'Liberation Sans', 'Bitstream Vera Sans', sans-serif; text-anchor: middle; fill: #262626" x="442.959735" y="243.117812" transform="rotate(-0 442.959735 243.117812)">20</text>
     </g>
    </g>
    <g id="xtick_6">
     <g id="line2d_6">
      <g>
       <use xlink:href="#m67c7b4d9d2" x="515.107301" y="228.96" style="fill: #262626; stroke: #262626; stroke-width: 0.8"/>
      </g>
     </g>
     <g id="text_6">
      <text style="font-size: 10px; font-family: 'Arial', 'DejaVu Sans', 'Liberation Sans', 'Bitstream Vera Sans', sans-serif; text-anchor: middle; fill: #262626" x="515.107301" y="243.117812" transform="rotate(-0 515.107301 243.117812)">50</text>
     </g>
    </g>
    <g id="xtick_7">
     <g id="line2d_7">
      <g>
       <use xlink:href="#m67c7b4d9d2" x="569.684829" y="228.96" style="fill: #262626; stroke: #262626; stroke-width: 0.8"/>
      </g>
     </g>
     <g id="text_7">
      <text style="font-size: 10px; font-family: 'Arial', 'DejaVu Sans', 'Liberation Sans', 'Bitstream Vera Sans', sans-serif; text-anchor: middle; fill: #262626" x="569.684829" y="243.117812" transform="rotate(-0 569.684829 243.117812)">100</text>
     </g>
    </g>
    <g id="xtick_8">
     <g id="line2d_8">
      <g>
       <use xlink:href="#m67c7b4d9d2" x="624.262356" y="228.96" style="fill: #262626; stroke: #262626; stroke-width: 0.8"/>
      </g>
     </g>
     <g id="text_8">
      <text style="font-size: 10px; font-family: 'Arial', 'DejaVu Sans', 'Liberation Sans', 'Bitstream Vera Sans', sans-serif; text-anchor: middle; fill: #262626" x="624.262356" y="243.117812" transform="rotate(-0 624.262356 243.117812)">200</text>
     </g>
    </g>
    <g id="xtick_9">
     <g id="line2d_9">
      <g>
       <use xlink:href="#m67c7b4d9d2" x="696.409922" y="228.96" style="fill: #262626; stroke: #262626; stroke-width: 0.8"/>
      </g>
     </g>
     <g id="text_9">
      <text style="font-size: 10px; font-family: 'Arial', 'DejaVu Sans', 'Liberation Sans', 'Bitstream Vera Sans', sans-serif; text-anchor: middle; fill: #262626" x="696.409922" y="243.117812" transform="rotate(-0 696.409922 243.117812)">500</text>
     </g>
    </g>
    <g id="xtick_10">
     <g id="line2d_10">
      <g>
       <use xlink:href="#m67c7b4d9d2" x="750.98745" y="228.96" style="fill: #262626; stroke: #262626; stroke-width: 0.8"/>
      </g>
     </g>
     <g id="text_10">
      <text style="font-size: 10px; font-family: 'Arial', 'DejaVu Sans', 'Liberation Sans', 'Bitstream Vera Sans', sans-serif; text-anchor: middle; fill: #262626" x="750.98745" y="243.117812" transform="rotate(-0 750.98745 243.117812)">1000</text>
     </g>
    </g>
    <g id="xtick_11">
     <g id="line2d_11">
      <defs>
       <path id="m4a0bb03424" d="M 0 0 
L 0 2 
" style="stroke: #262626; stroke-width: 0.6"/>
      </defs>
      <g>
       <use xlink:href="#m4a0bb03424" x="8.206926" y="228.96" style="fill: #262626; stroke: #262626; stroke-width: 0.6"/>
      </g>
     </g>
    </g>
    <g id="xtick_12">
     <g id="line2d_12">
      <g>
       <use xlink:href="#m4a0bb03424" x="17.481012" y="228.96" style="fill: #262626; stroke: #262626; stroke-width: 0.6"/>
      </g>
     </g>
    </g>
    <g id="xtick_13">
     <g id="line2d_13">
      <g>
       <use xlink:href="#m4a0bb03424" x="80.354492" y="228.96" style="fill: #262626; stroke: #262626; stroke-width: 0.6"/>
      </g>
     </g>
    </g>
    <g id="xtick_14">
     <g id="line2d_14">
      <g>
       <use xlink:href="#m4a0bb03424" x="112.280299" y="228.96" style="fill: #262626; stroke: #262626; stroke-width: 0.6"/>
      </g>
     </g>
    </g>
    <g id="xtick_15">
     <g id="line2d_15">
      <g>
       <use xlink:href="#m4a0bb03424" x="134.93202" y="228.96" style="fill: #262626; stroke: #262626; stroke-width: 0.6"/>
      </g>
     </g>
    </g>
    <g id="xtick_16">
     <g id="line2d_16">
      <g>
       <use xlink:href="#m4a0bb03424" x="152.502059" y="228.96" style="fill: #262626; stroke: #262626; stroke-width: 0.6"/>
      </g>
     </g>
    </g>
    <g id="xtick_17">
     <g id="line2d_17">
      <g>
       <use xlink:href="#m4a0bb03424" x="166.857826" y="228.96" style="fill: #262626; stroke: #262626; stroke-width: 0.6"/>
      </g>
     </g>
    </g>
    <g id="xtick_18">
     <g id="line2d_18">
      <g>
       <use xlink:href="#m4a0bb03424" x="178.995455" y="228.96" style="fill: #262626; stroke: #262626; stroke-width: 0.6"/>
      </g>
     </g>
    </g>
    <g id="xtick_19">
     <g id="line2d_19">
      <g>
       <use xlink:href="#m4a0bb03424" x="189.509547" y="228.96" style="fill: #262626; stroke: #262626; stroke-width: 0.6"/>
      </g>
     </g>
    </g>
    <g id="xtick_20">
     <g id="line2d_20">
      <g>
       <use xlink:href="#m4a0bb03424" x="198.783633" y="228.96" style="fill: #262626; stroke: #262626; stroke-width: 0.6"/>
      </g>
     </g>
    </g>
    <g id="xtick_21">
     <g id="line2d_21">
      <g>
       <use xlink:href="#m4a0bb03424" x="293.58292" y="228.96" style="fill: #262626; stroke: #262626; stroke-width: 0.6"/>
      </g>
     </g>
    </g>
    <g id="xtick_22">
     <g id="line2d_22">
      <g>
       <use xlink:href="#m4a0bb03424" x="316.234641" y="228.96" style="fill: #262626; stroke: #262626; stroke-width: 0.6"/>
      </g>
     </g>
    </g>
    <g id="xtick_23">
     <g id="line2d_23">
      <g>
       <use xlink:href="#m4a0bb03424" x="348.160448" y="228.96" style="fill: #262626; stroke: #262626; stroke-width: 0.6"/>
      </g>
     </g>
    </g>
    <g id="xtick_24">
     <g id="line2d_24">
      <g>
       <use xlink:href="#m4a0bb03424" x="360.298076" y="228.96" style="fill: #262626; stroke: #262626; stroke-width: 0.6"/>
      </g>
     </g>
    </g>
    <g id="xtick_25">
     <g id="line2d_25">
      <g>
       <use xlink:href="#m4a0bb03424" x="370.812168" y="228.96" style="fill: #262626; stroke: #262626; stroke-width: 0.6"/>
      </g>
     </g>
    </g>
    <g id="xtick_26">
     <g id="line2d_26">
      <g>
       <use xlink:href="#m4a0bb03424" x="380.086254" y="228.96" style="fill: #262626; stroke: #262626; stroke-width: 0.6"/>
      </g>
     </g>
    </g>
    <g id="xtick_27">
     <g id="line2d_27">
      <g>
       <use xlink:href="#m4a0bb03424" x="474.885542" y="228.96" style="fill: #262626; stroke: #262626; stroke-width: 0.6"/>
      </g>
     </g>
    </g>
    <g id="xtick_28">
     <g id="line2d_28">
      <g>
       <use xlink:href="#m4a0bb03424" x="497.537262" y="228.96" style="fill: #262626; stroke: #262626; stroke-width: 0.6"/>
      </g>
     </g>
    </g>
    <g id="xtick_29">
     <g id="line2d_29">
      <g>
       <use xlink:href="#m4a0bb03424" x="529.463069" y="228.96" style="fill: #262626; stroke: #262626; stroke-width: 0.6"/>
      </g>
     </g>
    </g>
    <g id="xtick_30">
     <g id="line2d_30">
      <g>
       <use xlink:href="#m4a0bb03424" x="541.600697" y="228.96" style="fill: #262626; stroke: #262626; stroke-width: 0.6"/>
      </g>
     </g>
    </g>
    <g id="xtick_31">
     <g id="line2d_31">
      <g>
       <use xlink:href="#m4a0bb03424" x="552.114789" y="228.96" style="fill: #262626; stroke: #262626; stroke-width: 0.6"/>
      </g>
     </g>
    </g>
    <g id="xtick_32">
     <g id="line2d_32">
      <g>
       <use xlink:href="#m4a0bb03424" x="561.388876" y="228.96" style="fill: #262626; stroke: #262626; stroke-width: 0.6"/>
      </g>
     </g>
    </g>
    <g id="xtick_33">
     <g id="line2d_33">
      <g>
       <use xlink:href="#m4a0bb03424" x="656.188163" y="228.96" style="fill: #262626; stroke: #262626; stroke-width: 0.6"/>
      </g>
     </g>
    </g>
    <g id="xtick_34">
     <g id="line2d_34">
      <g>
       <use xlink:href="#m4a0bb03424" x="678.839883" y="228.96" style="fill: #262626; stroke: #262626; stroke-width: 0.6"/>
      </g>
     </g>
    </g>
    <g id="xtick_35">
     <g id="line2d_35">
      <g>
       <use xlink:href="#m4a0bb03424" x="710.76569" y="228.96" style="fill: #262626; stroke: #262626; stroke-width: 0.6"/>
      </g>
     </g>
    </g>
    <g id="xtick_36">
     <g id="line2d_36">
      <g>
       <use xlink:href="#m4a0bb03424" x="722.903318" y="228.96" style="fill: #262626; stroke: #262626; stroke-width: 0.6"/>
      </g>
     </g>
    </g>
    <g id="xtick_37">
     <g id="line2d_37">
      <g>
       <use xlink:href="#m4a0bb03424" x="733.41741" y="228.96" style="fill: #262626; stroke: #262626; stroke-width: 0.6"/>
      </g>
     </g>
    </g>
    <g id="xtick_38">
     <g id="line2d_38">
      <g>
       <use xlink:href="#m4a0bb03424" x="742.691497" y="228.96" style="fill: #262626; stroke: #262626; stroke-width: 0.6"/>
      </g>
     </g>
    </g>
    <g id="xtick_39">
     <g id="line2d_39">
      <g>
       <use xlink:href="#m4a0bb03424" x="805.564977" y="228.96" style="fill: #262626; stroke: #262626; stroke-width: 0.6"/>
      </g>
     </g>
    </g>
    <g id="xtick_40">
     <g id="line2d_40">
      <g>
       <use xlink:href="#m4a0bb03424" x="837.490784" y="228.96" style="fill: #262626; stroke: #262626; stroke-width: 0.6"/>
      </g>
     </g>
    </g>
    <g id="text_11">
     <text style="font-size: 10px; font-family: 'Arial', 'DejaVu Sans', 'Liberation Sans', 'Bitstream Vera Sans', sans-serif; text-anchor: middle; fill: #262626" x="425.7" y="256.385" transform="rotate(-0 425.7 256.385)">Income or consumption (day)</text>
    </g>
   </g>
   <g id="matplotlib.axis_2"/>
   <g id="FillBetweenPolyCollection_1">
    <defs>
     <path id="me0d0375553" d="M 76.578101 -36.790326 
L 76.578101 -36.729688 
L 78.682817 -36.729688 
L 80.787534 -36.729688 
L 82.89225 -36.729688 
L 84.996966 -36.729688 
L 87.101682 -36.729688 
L 89.206398 -36.729688 
L 91.311114 -36.729688 
L 93.41583 -36.729688 
L 95.520546 -36.729688 
L 97.625262 -36.729688 
L 99.729978 -36.729688 
L 101.834694 -36.729688 
L 103.93941 -36.729688 
L 106.044126 -36.729688 
L 108.148843 -36.729688 
L 110.253559 -36.729688 
L 112.358275 -36.729688 
L 114.462991 -36.729688 
L 116.567707 -36.729688 
L 118.672423 -36.729688 
L 120.777139 -36.729688 
L 122.881855 -36.729688 
L 124.986571 -36.729688 
L 127.091287 -36.729688 
L 129.196003 -36.729688 
L 131.300719 -36.729688 
L 133.405435 -36.729688 
L 135.510152 -36.729688 
L 137.614868 -36.729688 
L 139.719584 -36.729688 
L 141.8243 -36.729688 
L 143.929016 -36.729688 
L 146.033732 -36.729688 
L 148.138448 -36.729688 
L 150.243164 -36.729688 
L 152.34788 -36.729688 
L 154.452596 -36.729688 
L 156.557312 -36.729688 
L 158.662028 -36.729688 
L 160.766744 -36.729688 
L 162.871461 -36.729688 
L 164.976177 -36.729688 
L 167.080893 -36.729688 
L 169.185609 -36.729688 
L 171.290325 -36.729688 
L 173.395041 -36.729688 
L 175.499757 -36.729688 
L 177.604473 -36.729688 
L 179.709189 -36.729688 
L 181.813905 -36.729688 
L 183.918621 -36.729688 
L 186.023337 -36.729688 
L 188.128053 -36.729688 
L 190.23277 -36.729688 
L 192.337486 -36.729688 
L 194.442202 -36.729688 
L 196.546918 -36.729688 
L 198.651634 -36.729688 
L 200.75635 -36.729688 
L 202.861066 -36.729688 
L 204.965782 -36.729688 
L 207.070498 -36.729688 
L 209.175214 -36.729688 
L 211.27993 -36.729688 
L 213.384646 -36.729688 
L 215.489362 -36.729688 
L 217.594079 -36.729688 
L 219.698795 -36.729688 
L 221.803511 -36.729688 
L 223.908227 -36.729688 
L 226.012943 -36.729688 
L 228.117659 -36.729688 
L 230.222375 -36.729688 
L 232.327091 -36.729688 
L 234.431807 -36.729688 
L 236.536523 -36.729688 
L 238.641239 -36.729688 
L 240.745955 -36.729688 
L 242.850671 -36.729688 
L 244.955388 -36.729688 
L 247.060104 -36.729688 
L 249.16482 -36.729688 
L 251.269536 -36.729688 
L 253.374252 -36.729688 
L 255.478968 -36.729688 
L 257.583684 -36.729688 
L 259.6884 -36.729688 
L 261.793116 -36.729688 
L 263.897832 -36.729688 
L 266.002548 -36.729688 
L 268.107264 -36.729688 
L 270.21198 -36.729688 
L 272.316697 -36.729688 
L 274.421413 -36.729688 
L 276.526129 -36.729688 
L 278.630845 -36.729688 
L 280.735561 -36.729688 
L 282.840277 -36.729688 
L 284.944993 -36.729688 
L 287.049709 -36.729688 
L 289.154425 -36.729688 
L 291.259141 -36.729688 
L 293.363857 -36.729688 
L 295.468573 -36.729688 
L 297.573289 -36.729688 
L 299.678006 -36.729688 
L 301.782722 -36.729688 
L 303.887438 -36.729688 
L 305.992154 -36.729688 
L 308.09687 -36.729688 
L 310.201586 -36.729688 
L 312.306302 -36.729688 
L 314.411018 -36.729688 
L 316.515734 -36.729688 
L 318.62045 -36.729688 
L 320.725166 -36.729688 
L 322.829882 -36.729688 
L 324.934598 -36.729688 
L 327.039315 -36.729688 
L 329.144031 -36.729688 
L 331.248747 -36.729688 
L 333.353463 -36.729688 
L 335.458179 -36.729688 
L 337.562895 -36.729688 
L 339.667611 -36.729688 
L 341.772327 -36.729688 
L 343.877043 -36.729688 
L 345.981759 -36.729688 
L 348.086475 -36.729688 
L 350.191191 -36.729688 
L 352.295907 -36.729688 
L 354.400624 -36.729688 
L 356.50534 -36.729688 
L 358.610056 -36.729688 
L 360.714772 -36.729688 
L 362.819488 -36.729688 
L 364.924204 -36.729688 
L 367.02892 -36.729688 
L 369.133636 -36.729688 
L 371.238352 -36.729688 
L 373.343068 -36.729688 
L 375.447784 -36.729688 
L 377.5525 -36.729688 
L 379.657216 -36.729688 
L 381.761932 -36.729688 
L 383.866649 -36.729688 
L 385.971365 -36.729688 
L 388.076081 -36.729688 
L 390.180797 -36.729688 
L 392.285513 -36.729688 
L 394.390229 -36.729688 
L 396.494945 -36.729688 
L 398.599661 -36.729688 
L 400.704377 -36.729688 
L 402.809093 -36.729688 
L 404.913809 -36.729688 
L 407.018525 -36.729688 
L 409.123241 -36.729688 
L 411.227958 -36.729688 
L 413.332674 -36.729688 
L 415.43739 -36.729688 
L 417.542106 -36.729688 
L 419.646822 -36.729688 
L 421.751538 -36.729688 
L 423.856254 -36.729688 
L 425.96097 -36.729688 
L 428.065686 -36.729688 
L 430.170402 -36.729688 
L 432.275118 -36.729688 
L 434.379834 -36.729688 
L 436.48455 -36.729688 
L 438.589267 -36.729688 
L 440.693983 -36.729688 
L 442.798699 -36.729688 
L 444.903415 -36.729688 
L 447.008131 -36.729688 
L 449.112847 -36.729688 
L 451.217563 -36.729688 
L 453.322279 -36.729688 
L 455.426995 -36.729688 
L 457.531711 -36.729688 
L 459.636427 -36.729688 
L 461.741143 -36.729688 
L 463.845859 -36.729688 
L 465.950576 -36.729688 
L 468.055292 -36.729688 
L 470.160008 -36.729688 
L 472.264724 -36.729688 
L 474.36944 -36.729688 
L 476.474156 -36.729688 
L 478.578872 -36.729688 
L 480.683588 -36.729688 
L 482.788304 -36.729688 
L 484.89302 -36.729688 
L 486.997736 -36.729688 
L 489.102452 -36.729688 
L 491.207168 -36.729688 
L 493.311885 -36.729688 
L 495.416601 -36.729688 
L 495.416601 -36.789643 
L 495.416601 -36.789643 
L 493.311885 -36.811064 
L 491.207168 -36.83896 
L 489.102452 -36.874856 
L 486.997736 -36.920488 
L 484.89302 -36.977794 
L 482.788304 -37.048877 
L 480.683588 -37.135958 
L 478.578872 -37.241302 
L 476.474156 -37.367122 
L 474.36944 -37.515467 
L 472.264724 -37.688084 
L 470.160008 -37.88628 
L 468.055292 -38.110766 
L 465.950576 -38.361516 
L 463.845859 -38.637645 
L 461.741143 -38.937312 
L 459.636427 -39.257673 
L 457.531711 -39.594884 
L 455.426995 -39.944177 
L 453.322279 -40.299999 
L 451.217563 -40.656225 
L 449.112847 -41.006435 
L 447.008131 -41.344243 
L 444.903415 -41.663669 
L 442.798699 -41.959511 
L 440.693983 -42.227722 
L 438.589267 -42.465734 
L 436.48455 -42.672729 
L 434.379834 -42.849814 
L 432.275118 -43.000098 
L 430.170402 -43.128653 
L 428.065686 -43.24236 
L 425.96097 -43.349646 
L 423.856254 -43.460136 
L 421.751538 -43.584232 
L 419.646822 -43.732655 
L 417.542106 -43.915985 
L 415.43739 -44.144226 
L 413.332674 -44.42642 
L 411.227958 -44.770349 
L 409.123241 -45.182331 
L 407.018525 -45.667117 
L 404.913809 -46.227899 
L 402.809093 -46.866414 
L 400.704377 -47.583127 
L 398.599661 -48.377477 
L 396.494945 -49.248165 
L 394.390229 -50.193448 
L 392.285513 -51.211431 
L 390.180797 -52.300328 
L 388.076081 -53.45868 
L 385.971365 -54.685519 
L 383.866649 -55.980482 
L 381.761932 -57.343863 
L 379.657216 -58.776625 
L 377.5525 -60.280368 
L 375.447784 -61.857267 
L 373.343068 -63.51 
L 371.238352 -65.24166 
L 369.133636 -67.055676 
L 367.02892 -68.955735 
L 364.924204 -70.945719 
L 362.819488 -73.029648 
L 360.714772 -75.211638 
L 358.610056 -77.495861 
L 356.50534 -79.886508 
L 354.400624 -82.387748 
L 352.295907 -85.003687 
L 350.191191 -87.738305 
L 348.086475 -90.595389 
L 345.981759 -93.57845 
L 343.877043 -96.690627 
L 341.772327 -99.934578 
L 339.667611 -103.312365 
L 337.562895 -106.82534 
L 335.458179 -110.47402 
L 333.353463 -114.257981 
L 331.248747 -118.175756 
L 329.144031 -122.224746 
L 327.039315 -126.401156 
L 324.934598 -130.699944 
L 322.829882 -135.114797 
L 320.725166 -139.638123 
L 318.62045 -144.261068 
L 316.515734 -148.973545 
L 314.411018 -153.764275 
L 312.306302 -158.620838 
L 310.201586 -163.529729 
L 308.09687 -168.476405 
L 305.992154 -173.445334 
L 303.887438 -178.420026 
L 301.782722 -183.383062 
L 299.678006 -188.316109 
L 297.573289 -193.199932 
L 295.468573 -198.014407 
L 293.363857 -202.738542 
L 291.259141 -207.35052 
L 289.154425 -211.827775 
L 287.049709 -216.147108 
L 284.944993 -220.284857 
L 282.840277 -224.217124 
L 280.735561 -227.920068 
L 278.630845 -231.37025 
L 276.526129 -234.545036 
L 274.421413 -237.423027 
L 272.316697 -239.984509 
L 270.21198 -242.211896 
L 268.107264 -244.090131 
L 266.002548 -245.607034 
L 263.897832 -246.753559 
L 261.793116 -247.523941 
L 259.6884 -247.915728 
L 257.583684 -247.929687 
L 255.478968 -247.569589 
L 253.374252 -246.841876 
L 251.269536 -245.755256 
L 249.16482 -244.320229 
L 247.060104 -242.548591 
L 244.955388 -240.452945 
L 242.850671 -238.046262 
L 240.745955 -235.341511 
L 238.641239 -232.35139 
L 236.536523 -229.088166 
L 234.431807 -225.563636 
L 232.327091 -221.789202 
L 230.222375 -217.776045 
L 228.117659 -213.535374 
L 226.012943 -209.078732 
L 223.908227 -204.418313 
L 221.803511 -199.567274 
L 219.698795 -194.54001 
L 217.594079 -189.352357 
L 215.489362 -184.021726 
L 213.384646 -178.567131 
L 211.27993 -173.009142 
L 209.175214 -167.369728 
L 207.070498 -161.672035 
L 204.965782 -155.940097 
L 202.861066 -150.198493 
L 200.75635 -144.471982 
L 198.651634 -138.785134 
L 196.546918 -133.161959 
L 194.442202 -127.62557 
L 192.337486 -122.197876 
L 190.23277 -116.899319 
L 188.128053 -111.748664 
L 186.023337 -106.762832 
L 183.918621 -101.956779 
L 181.813905 -97.343428 
L 179.709189 -92.933623 
L 177.604473 -88.736116 
L 175.499757 -84.757579 
L 173.395041 -81.002624 
L 171.290325 -77.473832 
L 169.185609 -74.171786 
L 167.080893 -71.095112 
L 164.976177 -68.240521 
L 162.871461 -65.602864 
L 160.766744 -63.17521 
L 158.662028 -60.948943 
L 156.557312 -58.913896 
L 154.452596 -57.058534 
L 152.34788 -55.370167 
L 150.243164 -53.835227 
L 148.138448 -52.439573 
L 146.033732 -51.168834 
L 143.929016 -50.00877 
L 141.8243 -48.945635 
L 139.719584 -47.96652 
L 137.614868 -47.059658 
L 135.510152 -46.214675 
L 133.405435 -45.422765 
L 131.300719 -44.676784 
L 129.196003 -43.971258 
L 127.091287 -43.30231 
L 124.986571 -42.667505 
L 122.881855 -42.065642 
L 120.777139 -41.496494 
L 118.672423 -40.960527 
L 116.567707 -40.458624 
L 114.462991 -39.991813 
L 112.358275 -39.561033 
L 110.253559 -39.166944 
L 108.148843 -38.809789 
L 106.044126 -38.489308 
L 103.93941 -38.204702 
L 101.834694 -37.954648 
L 99.729978 -37.737348 
L 97.625262 -37.550609 
L 95.520546 -37.39194 
L 93.41583 -37.258651 
L 91.311114 -37.147963 
L 89.206398 -37.057099 
L 87.101682 -36.983368 
L 84.996966 -36.924228 
L 82.89225 -36.877339 
L 80.787534 -36.840592 
L 78.682817 -36.812125 
L 76.578101 -36.790326 
z
" style="stroke: #dd8452"/>
    </defs>
    <g>
     <use xlink:href="#me0d0375553" x="0" y="265.689687" style="fill: #dd8452; fill-opacity: 0.25; stroke: #dd8452"/>
    </g>
   </g>
   <g id="FillBetweenPolyCollection_2">
    <defs>
     <path id="m87fdb8bca1" d="M 45.245455 -36.770978 
L 45.245455 -36.729688 
L 49.069118 -36.729688 
L 52.892782 -36.729688 
L 56.716446 -36.729688 
L 60.54011 -36.729688 
L 64.363773 -36.729688 
L 68.187437 -36.729688 
L 72.011101 -36.729688 
L 75.834765 -36.729688 
L 79.658429 -36.729688 
L 83.482092 -36.729688 
L 87.305756 -36.729688 
L 91.12942 -36.729688 
L 94.953084 -36.729688 
L 98.776747 -36.729688 
L 102.600411 -36.729688 
L 106.424075 -36.729688 
L 110.247739 -36.729688 
L 114.071402 -36.729688 
L 117.895066 -36.729688 
L 121.71873 -36.729688 
L 125.542394 -36.729688 
L 129.366058 -36.729688 
L 133.189721 -36.729688 
L 137.013385 -36.729688 
L 140.837049 -36.729688 
L 144.660713 -36.729688 
L 148.484376 -36.729688 
L 152.30804 -36.729688 
L 156.131704 -36.729688 
L 159.955368 -36.729688 
L 163.779032 -36.729688 
L 167.602695 -36.729688 
L 171.426359 -36.729688 
L 175.250023 -36.729688 
L 179.073687 -36.729688 
L 182.89735 -36.729688 
L 186.721014 -36.729688 
L 190.544678 -36.729688 
L 194.368342 -36.729688 
L 198.192005 -36.729688 
L 202.015669 -36.729688 
L 205.839333 -36.729688 
L 209.662997 -36.729688 
L 213.486661 -36.729688 
L 217.310324 -36.729688 
L 221.133988 -36.729688 
L 224.957652 -36.729688 
L 228.781316 -36.729688 
L 232.604979 -36.729688 
L 236.428643 -36.729688 
L 240.252307 -36.729688 
L 244.075971 -36.729688 
L 247.899635 -36.729688 
L 251.723298 -36.729688 
L 255.546962 -36.729688 
L 259.370626 -36.729688 
L 263.19429 -36.729688 
L 267.017953 -36.729688 
L 270.841617 -36.729688 
L 274.665281 -36.729688 
L 278.488945 -36.729688 
L 282.312608 -36.729688 
L 286.136272 -36.729688 
L 289.959936 -36.729688 
L 293.7836 -36.729688 
L 297.607264 -36.729688 
L 301.430927 -36.729688 
L 305.254591 -36.729688 
L 309.078255 -36.729688 
L 312.901919 -36.729688 
L 316.725582 -36.729688 
L 320.549246 -36.729688 
L 324.37291 -36.729688 
L 328.196574 -36.729688 
L 332.020238 -36.729688 
L 335.843901 -36.729688 
L 339.667565 -36.729688 
L 343.491229 -36.729688 
L 347.314893 -36.729688 
L 351.138556 -36.729688 
L 354.96222 -36.729688 
L 358.785884 -36.729688 
L 362.609548 -36.729688 
L 366.433212 -36.729688 
L 370.256875 -36.729688 
L 374.080539 -36.729688 
L 377.904203 -36.729688 
L 381.727867 -36.729688 
L 385.55153 -36.729688 
L 389.375194 -36.729688 
L 393.198858 -36.729688 
L 397.022522 -36.729688 
L 400.846185 -36.729688 
L 404.669849 -36.729688 
L 408.493513 -36.729688 
L 412.317177 -36.729688 
L 416.140841 -36.729688 
L 419.964504 -36.729688 
L 423.788168 -36.729688 
L 427.611832 -36.729688 
L 431.435496 -36.729688 
L 435.259159 -36.729688 
L 439.082823 -36.729688 
L 442.906487 -36.729688 
L 446.730151 -36.729688 
L 450.553815 -36.729688 
L 454.377478 -36.729688 
L 458.201142 -36.729688 
L 462.024806 -36.729688 
L 465.84847 -36.729688 
L 469.672133 -36.729688 
L 473.495797 -36.729688 
L 477.319461 -36.729688 
L 481.143125 -36.729688 
L 484.966788 -36.729688 
L 488.790452 -36.729688 
L 492.614116 -36.729688 
L 496.43778 -36.729688 
L 500.261444 -36.729688 
L 504.085107 -36.729688 
L 507.908771 -36.729688 
L 511.732435 -36.729688 
L 515.556099 -36.729688 
L 519.379762 -36.729688 
L 523.203426 -36.729688 
L 527.02709 -36.729688 
L 530.850754 -36.729688 
L 534.674418 -36.729688 
L 538.498081 -36.729688 
L 542.321745 -36.729688 
L 546.145409 -36.729688 
L 549.969073 -36.729688 
L 553.792736 -36.729688 
L 557.6164 -36.729688 
L 561.440064 -36.729688 
L 565.263728 -36.729688 
L 569.087392 -36.729688 
L 572.911055 -36.729688 
L 576.734719 -36.729688 
L 580.558383 -36.729688 
L 584.382047 -36.729688 
L 588.20571 -36.729688 
L 592.029374 -36.729688 
L 595.853038 -36.729688 
L 599.676702 -36.729688 
L 603.500365 -36.729688 
L 607.324029 -36.729688 
L 611.147693 -36.729688 
L 614.971357 -36.729688 
L 618.795021 -36.729688 
L 622.618684 -36.729688 
L 626.442348 -36.729688 
L 630.266012 -36.729688 
L 634.089676 -36.729688 
L 637.913339 -36.729688 
L 641.737003 -36.729688 
L 645.560667 -36.729688 
L 649.384331 -36.729688 
L 653.207995 -36.729688 
L 657.031658 -36.729688 
L 660.855322 -36.729688 
L 664.678986 -36.729688 
L 668.50265 -36.729688 
L 672.326313 -36.729688 
L 676.149977 -36.729688 
L 679.973641 -36.729688 
L 683.797305 -36.729688 
L 687.620968 -36.729688 
L 691.444632 -36.729688 
L 695.268296 -36.729688 
L 699.09196 -36.729688 
L 702.915624 -36.729688 
L 706.739287 -36.729688 
L 710.562951 -36.729688 
L 714.386615 -36.729688 
L 718.210279 -36.729688 
L 722.033942 -36.729688 
L 725.857606 -36.729688 
L 729.68127 -36.729688 
L 733.504934 -36.729688 
L 737.328598 -36.729688 
L 741.152261 -36.729688 
L 744.975925 -36.729688 
L 748.799589 -36.729688 
L 752.623253 -36.729688 
L 756.446916 -36.729688 
L 760.27058 -36.729688 
L 764.094244 -36.729688 
L 767.917908 -36.729688 
L 771.741571 -36.729688 
L 775.565235 -36.729688 
L 779.388899 -36.729688 
L 783.212563 -36.729688 
L 787.036227 -36.729688 
L 790.85989 -36.729688 
L 794.683554 -36.729688 
L 798.507218 -36.729688 
L 802.330882 -36.729688 
L 806.154545 -36.729688 
L 806.154545 -36.77113 
L 806.154545 -36.77113 
L 802.330882 -36.790371 
L 798.507218 -36.817082 
L 794.683554 -36.85348 
L 790.85989 -36.902167 
L 787.036227 -36.966082 
L 783.212563 -37.048426 
L 779.388899 -37.152525 
L 775.565235 -37.281657 
L 771.741571 -37.438824 
L 767.917908 -37.626517 
L 764.094244 -37.846465 
L 760.27058 -38.099436 
L 756.446916 -38.385096 
L 752.623253 -38.701995 
L 748.799589 -39.047684 
L 744.975925 -39.419006 
L 741.152261 -39.812546 
L 737.328598 -40.225236 
L 733.504934 -40.655055 
L 729.68127 -41.101768 
L 725.857606 -41.567627 
L 722.033942 -42.057948 
L 718.210279 -42.581494 
L 714.386615 -43.150596 
L 710.562951 -43.780997 
L 706.739287 -44.491415 
L 702.915624 -45.302866 
L 699.09196 -46.237822 
L 695.268296 -47.319276 
L 691.444632 -48.569827 
L 687.620968 -50.010858 
L 683.797305 -51.661887 
L 679.973641 -53.540124 
L 676.149977 -55.660245 
L 672.326313 -58.034366 
L 668.50265 -60.672157 
L 664.678986 -63.581041 
L 660.855322 -66.766412 
L 657.031658 -70.231785 
L 653.207995 -73.978848 
L 649.384331 -78.007366 
L 645.560667 -82.314934 
L 641.737003 -86.896587 
L 637.913339 -91.744301 
L 634.089676 -96.846426 
L 630.266012 -102.187118 
L 626.442348 -107.745826 
L 622.618684 -113.496898 
L 618.795021 -119.409352 
L 614.971357 -125.446874 
L 611.147693 -131.568055 
L 607.324029 -137.726878 
L 603.500365 -143.873466 
L 599.676702 -149.955035 
L 595.853038 -155.917032 
L 592.029374 -161.704371 
L 588.20571 -167.262721 
L 584.382047 -172.539748 
L 580.558383 -177.486249 
L 576.734719 -182.057111 
L 572.911055 -186.212054 
L 569.087392 -189.916128 
L 565.263728 -193.139966 
L 561.440064 -195.859826 
L 557.6164 -198.05745 
L 553.792736 -199.719816 
L 549.969073 -200.83882 
L 546.145409 -201.410963 
L 542.321745 -201.43708 
L 538.498081 -200.922121 
L 534.674418 -199.875005 
L 530.850754 -198.308521 
L 527.02709 -196.239246 
L 523.203426 -193.687441 
L 519.379762 -190.676908 
L 515.556099 -187.234757 
L 511.732435 -183.391102 
L 507.908771 -179.178666 
L 504.085107 -174.63235 
L 500.261444 -169.788762 
L 496.43778 -164.685776 
L 492.614116 -159.362117 
L 488.790452 -153.85703 
L 484.966788 -148.209992 
L 481.143125 -142.460505 
L 477.319461 -136.647898 
L 473.495797 -130.811141 
L 469.672133 -124.988621 
L 465.84847 -119.217854 
L 462.024806 -113.535114 
L 458.201142 -107.974988 
L 454.377478 -102.569856 
L 450.553815 -97.349339 
L 446.730151 -92.339737 
L 442.906487 -87.563526 
L 439.082823 -83.038926 
L 435.259159 -78.779617 
L 431.435496 -74.794594 
L 427.611832 -71.08822 
L 423.788168 -67.660449 
L 419.964504 -64.507235 
L 416.140841 -61.621097 
L 412.317177 -58.991798 
L 408.493513 -56.607108 
L 404.669849 -54.45358 
L 400.846185 -52.517294 
L 397.022522 -50.784486 
L 393.198858 -49.242038 
L 389.375194 -47.877758 
L 385.55153 -46.680445 
L 381.727867 -45.639748 
L 377.904203 -44.745825 
L 374.080539 -43.988884 
L 370.256875 -43.35867 
L 366.433212 -42.843977 
L 362.609548 -42.43229 
L 358.785884 -42.109614 
L 354.96222 -41.860544 
L 351.138556 -41.668593 
L 347.314893 -41.516756 
L 343.491229 -41.388256 
L 339.667565 -41.267381 
L 335.843901 -41.140328 
L 332.020238 -40.995938 
L 328.196574 -40.826241 
L 324.37291 -40.626745 
L 320.549246 -40.396441 
L 316.725582 -40.137526 
L 312.901919 -39.854879 
L 309.078255 -39.555368 
L 305.254591 -39.247057 
L 301.430927 -38.938404 
L 297.607264 -38.637533 
L 293.7836 -38.351628 
L 289.959936 -38.086509 
L 286.136272 -37.846388 
L 282.312608 -37.633805 
L 278.488945 -37.449713 
L 274.665281 -37.293691 
L 270.841617 -37.164216 
L 267.017953 -37.058973 
L 263.19429 -36.975169 
L 259.370626 -36.909801 
L 255.546962 -36.859892 
L 251.723298 -36.822668 
L 247.899635 -36.795678 
L 244.075971 -36.776875 
L 240.252307 -36.764657 
L 236.428643 -36.757888 
L 232.604979 -36.755896 
L 228.781316 -36.758479 
L 224.957652 -36.765898 
L 221.133988 -36.778883 
L 217.310324 -36.798628 
L 213.486661 -36.826789 
L 209.662997 -36.86546 
L 205.839333 -36.917125 
L 202.015669 -36.984571 
L 198.192005 -37.070755 
L 194.368342 -37.178607 
L 190.544678 -37.310788 
L 186.721014 -37.46939 
L 182.89735 -37.655607 
L 179.073687 -37.869396 
L 175.250023 -38.109171 
L 171.426359 -38.371562 
L 167.602695 -38.651293 
L 163.779032 -38.941198 
L 159.955368 -39.232419 
L 156.131704 -39.514782 
L 152.30804 -39.777343 
L 148.484376 -40.009071 
L 144.660713 -40.199604 
L 140.837049 -40.340011 
L 137.013385 -40.42349 
L 133.189721 -40.445909 
L 129.366058 -40.406148 
L 125.542394 -40.30619 
L 121.71873 -40.150959 
L 117.895066 -39.947917 
L 114.071402 -39.706468 
L 110.247739 -39.43724 
L 106.424075 -39.151316 
L 102.600411 -38.859486 
L 98.776747 -38.571603 
L 94.953084 -38.296083 
L 91.12942 -38.039574 
L 87.305756 -37.806812 
L 83.482092 -37.600649 
L 79.658429 -37.422207 
L 75.834765 -37.271147 
L 72.011101 -37.145981 
L 68.187437 -37.044414 
L 64.363773 -36.963662 
L 60.54011 -36.90073 
L 56.716446 -36.852641 
L 52.892782 -36.816599 
L 49.069118 -36.790098 
L 45.245455 -36.770978 
z
" style="stroke: #4c72b0"/>
    </defs>
    <g>
     <use xlink:href="#m87fdb8bca1" x="0" y="265.689687" style="fill: #4c72b0; fill-opacity: 0.25; stroke: #4c72b0"/>
    </g>
   </g>
   <g id="line2d_41">
    <path d="M 293.58292 228.96 
L 293.58292 7.2 
" style="fill: none; stroke-dasharray: 2.96,1.28; stroke-dashoffset: 0; stroke: #d3d3d3; stroke-width: 0.8"/>
   </g>
   <g id="line2d_42">
    <path d="M 449.340272 228.96 
L 449.340272 7.2 
" style="fill: none; stroke-dasharray: 2.96,1.28; stroke-dashoffset: 0; stroke: #d3d3d3; stroke-width: 0.8"/>
   </g>
   <g id="line2d_43">
    <path d="M 383.090279 228.96 
L 383.090279 7.2 
" style="fill: none; stroke-dasharray: 2.96,1.28; stroke-dashoffset: 0; stroke: #d3d3d3; stroke-width: 0.8"/>
   </g>
   <g id="line2d_44">
    <path d="M 7.2 228.96 
L 844.2 228.96 
" style="fill: none; stroke: #808080; stroke-width: 0.5; stroke-linecap: round"/>
   </g>
   <g id="text_12">
    <text style="font-size: 8px; font-family: 'Arial', 'DejaVu Sans', 'Liberation Sans', 'Bitstream Vera Sans', sans-serif; fill: #808080" transform="translate(299.83667 124.59635) rotate(-90)">International Poverty Line: $3.00</text>
   </g>
   <g id="text_13">
    <text style="font-size: 8px; font-family: 'Arial', 'DejaVu Sans', 'Liberation Sans', 'Bitstream Vera Sans', sans-serif; fill: #808080" transform="translate(455.066522 81.31135) rotate(-90)">World mean: $21.69</text>
   </g>
   <g id="text_14">
    <text style="font-size: 8px; font-family: 'Arial', 'DejaVu Sans', 'Liberation Sans', 'Bitstream Vera Sans', sans-serif; fill: #808080" transform="translate(388.816529 83.08885) rotate(-90)">World median: $9.35</text>
   </g>
   <g id="text_15">
    <text style="font-size: 10px; font-family: 'Arial', 'DejaVu Sans', 'Liberation Sans', 'Bitstream Vera Sans', sans-serif; text-anchor: middle" x="541.382141" y="226.855312" transform="rotate(-0 541.382141 226.855312)">United States (2023)</text>
   </g>
   <g id="text_16">
    <text style="font-size: 10px; font-family: 'Arial', 'DejaVu Sans', 'Liberation Sans', 'Bitstream Vera Sans', sans-serif; text-anchor: middle" x="261.931562" y="226.855312" transform="rotate(-0 261.931562 226.855312)">Burundi (2020)</text>
   </g>
  </g>
 </g>
</svg>
