<?xml version="1.0" encoding="utf-8" standalone="no"?>
<!DOCTYPE svg PUBLIC "-//W3C//DTD SVG 1.1//EN"
  "http://www.w3.org/Graphics/SVG/1.1/DTD/svg11.dtd">
<svg xmlns:xlink="http://www.w3.org/1999/xlink" width="851.4pt" height="265.689687pt" viewBox="0 0 851.4 265.689687" xmlns="http://www.w3.org/2000/svg" version="1.1">
 <metadata>
  <rdf:RDF xmlns:dc="http://purl.org/dc/elements/1.1/" xmlns:cc="http://creativecommons.org/ns#" xmlns:rdf="http://www.w3.org/1999/02/22-rdf-syntax-ns#">
   <cc:Work>
    <dc:type rdf:resource="http://purl.org/dc/dcmitype/StillImage"/>
    <dc:date>2026-05-27T16:31:46.664041</dc:date>
    <dc:format>image/svg+xml</dc:format>
    <dc:creator>
     <cc:Agent>
      <dc:title>Matplotlib v3.10.9, https://matplotlib.org/</dc:title>
     </cc:Agent>
    </dc:creator>
   </cc:Work>
  </rdf:RDF>
 </metadata>
 <defs>
  <style type="text/css">*{stroke-linejoin: round; stroke-linecap: butt}</style>
 </defs>
 <g id="figure_1">
  <g id="patch_1">
   <path d="M 0 265.689687 
L 851.4 265.689687 
L 851.4 0 
L 0 0 
z
" style="fill: #ffffff"/>
  </g>
  <g id="axes_1">
   <g id="patch_2">
    <path d="M 7.2 228.96 
L 844.2 228.96 
L 844.2 7.2 
L 7.2 7.2 
z
" style="fill: #ffffff"/>
   </g>
   <g id="matplotlib.axis_1">
    <g id="xtick_1">
     <g id="line2d_1">
      <defs>
       <path id="mc9063fe42f" d="M 0 0 
L 0 3.5 
" style="stroke: #262626; stroke-width: 0.8"/>
      </defs>
      <g>
       <use xlink:href="#mc9063fe42f" x="151.084329" y="228.96" style="fill: #262626; stroke: #262626; stroke-width: 0.8"/>
      </g>
     </g>
     <g id="text_1">
      <text style="font-size: 10px; font-family: 'Arial', 'DejaVu Sans', 'Liberation Sans', 'Bitstream Vera Sans', sans-serif; text-anchor: middle; fill: #262626" x="151.084329" y="243.117812" transform="rotate(-0 151.084329 243.117812)">$1</text>
     </g>
    </g>
    <g id="xtick_2">
     <g id="line2d_2">
      <g>
       <use xlink:href="#mc9063fe42f" x="225.5551" y="228.96" style="fill: #262626; stroke: #262626; stroke-width: 0.8"/>
      </g>
     </g>
     <g id="text_2">
      <text style="font-size: 10px; font-family: 'Arial', 'DejaVu Sans', 'Liberation Sans', 'Bitstream Vera Sans', sans-serif; text-anchor: middle; fill: #262626" x="225.5551" y="243.117812" transform="rotate(-0 225.5551 243.117812)">$2</text>
     </g>
    </g>
    <g id="xtick_3">
     <g id="line2d_3">
      <g>
       <use xlink:href="#mc9063fe42f" x="324.000106" y="228.96" style="fill: #262626; stroke: #262626; stroke-width: 0.8"/>
      </g>
     </g>
     <g id="text_3">
      <text style="font-size: 10px; font-family: 'Arial', 'DejaVu Sans', 'Liberation Sans', 'Bitstream Vera Sans', sans-serif; text-anchor: middle; fill: #262626" x="324.000106" y="243.117812" transform="rotate(-0 324.000106 243.117812)">$5</text>
     </g>
    </g>
    <g id="xtick_4">
     <g id="line2d_4">
      <g>
       <use xlink:href="#mc9063fe42f" x="398.470877" y="228.96" style="fill: #262626; stroke: #262626; stroke-width: 0.8"/>
      </g>
     </g>
     <g id="text_4">
      <text style="font-size: 10px; font-family: 'Arial', 'DejaVu Sans', 'Liberation Sans', 'Bitstream Vera Sans', sans-serif; text-anchor: middle; fill: #262626" x="398.470877" y="243.117812" transform="rotate(-0 398.470877 243.117812)">$10</text>
     </g>
    </g>
    <g id="xtick_5">
     <g id="line2d_5">
      <g>
       <use xlink:href="#mc9063fe42f" x="472.941649" y="228.96" style="fill: #262626; stroke: #262626; stroke-width: 0.8"/>
      </g>
     </g>
     <g id="text_5">
      <text style="font-size: 10px; font-family: 'Arial', 'DejaVu Sans', 'Liberation Sans', 'Bitstream Vera Sans', sans-serif; text-anchor: middle; fill: #262626" x="472.941649" y="243.117812" transform="rotate(-0 472.941649 243.117812)">$20</text>
     </g>
    </g>
    <g id="xtick_6">
     <g id="line2d_6">
      <g>
       <use xlink:href="#mc9063fe42f" x="571.386654" y="228.96" style="fill: #262626; stroke: #262626; stroke-width: 0.8"/>
      </g>
     </g>
     <g id="text_6">
      <text style="font-size: 10px; font-family: 'Arial', 'DejaVu Sans', 'Liberation Sans', 'Bitstream Vera Sans', sans-serif; text-anchor: middle; fill: #262626" x="571.386654" y="243.117812" transform="rotate(-0 571.386654 243.117812)">$50</text>
     </g>
    </g>
    <g id="xtick_7">
     <g id="line2d_7">
      <g>
       <use xlink:href="#mc9063fe42f" x="645.857426" y="228.96" style="fill: #262626; stroke: #262626; stroke-width: 0.8"/>
      </g>
     </g>
     <g id="text_7">
      <text style="font-size: 10px; font-family: 'Arial', 'DejaVu Sans', 'Liberation Sans', 'Bitstream Vera Sans', sans-serif; text-anchor: middle; fill: #262626" x="645.857426" y="243.117812" transform="rotate(-0 645.857426 243.117812)">$100</text>
     </g>
    </g>
    <g id="xtick_8">
     <g id="line2d_8">
      <g>
       <use xlink:href="#mc9063fe42f" x="720.328197" y="228.96" style="fill: #262626; stroke: #262626; stroke-width: 0.8"/>
      </g>
     </g>
     <g id="text_8">
      <text style="font-size: 10px; font-family: 'Arial', 'DejaVu Sans', 'Liberation Sans', 'Bitstream Vera Sans', sans-serif; text-anchor: middle; fill: #262626" x="720.328197" y="243.117812" transform="rotate(-0 720.328197 243.117812)">$200</text>
     </g>
    </g>
    <g id="xtick_9">
     <g id="line2d_9">
      <g>
       <use xlink:href="#mc9063fe42f" x="818.773202" y="228.96" style="fill: #262626; stroke: #262626; stroke-width: 0.8"/>
      </g>
     </g>
     <g id="text_9">
      <text style="font-size: 10px; font-family: 'Arial', 'DejaVu Sans', 'Liberation Sans', 'Bitstream Vera Sans', sans-serif; text-anchor: middle; fill: #262626" x="818.773202" y="243.117812" transform="rotate(-0 818.773202 243.117812)">$500</text>
     </g>
    </g>
    <g id="xtick_10">
     <g id="line2d_10">
      <defs>
       <path id="mada4fadbe7" d="M 0 0 
L 0 2 
" style="stroke: #262626; stroke-width: 0.6"/>
      </defs>
      <g>
       <use xlink:href="#mada4fadbe7" x="21.731161" y="228.96" style="fill: #262626; stroke: #262626; stroke-width: 0.6"/>
      </g>
     </g>
    </g>
    <g id="xtick_11">
     <g id="line2d_11">
      <g>
       <use xlink:href="#mada4fadbe7" x="52.639323" y="228.96" style="fill: #262626; stroke: #262626; stroke-width: 0.6"/>
      </g>
     </g>
    </g>
    <g id="xtick_12">
     <g id="line2d_12">
      <g>
       <use xlink:href="#mada4fadbe7" x="76.613557" y="228.96" style="fill: #262626; stroke: #262626; stroke-width: 0.6"/>
      </g>
     </g>
    </g>
    <g id="xtick_13">
     <g id="line2d_13">
      <g>
       <use xlink:href="#mada4fadbe7" x="96.201932" y="228.96" style="fill: #262626; stroke: #262626; stroke-width: 0.6"/>
      </g>
     </g>
    </g>
    <g id="xtick_14">
     <g id="line2d_14">
      <g>
       <use xlink:href="#mada4fadbe7" x="112.763667" y="228.96" style="fill: #262626; stroke: #262626; stroke-width: 0.6"/>
      </g>
     </g>
    </g>
    <g id="xtick_15">
     <g id="line2d_15">
      <g>
       <use xlink:href="#mada4fadbe7" x="127.110095" y="228.96" style="fill: #262626; stroke: #262626; stroke-width: 0.6"/>
      </g>
     </g>
    </g>
    <g id="xtick_16">
     <g id="line2d_16">
      <g>
       <use xlink:href="#mada4fadbe7" x="139.764541" y="228.96" style="fill: #262626; stroke: #262626; stroke-width: 0.6"/>
      </g>
     </g>
    </g>
    <g id="xtick_17">
     <g id="line2d_17">
      <g>
       <use xlink:href="#mada4fadbe7" x="269.117709" y="228.96" style="fill: #262626; stroke: #262626; stroke-width: 0.6"/>
      </g>
     </g>
    </g>
    <g id="xtick_18">
     <g id="line2d_18">
      <g>
       <use xlink:href="#mada4fadbe7" x="300.025872" y="228.96" style="fill: #262626; stroke: #262626; stroke-width: 0.6"/>
      </g>
     </g>
    </g>
    <g id="xtick_19">
     <g id="line2d_19">
      <g>
       <use xlink:href="#mada4fadbe7" x="343.588481" y="228.96" style="fill: #262626; stroke: #262626; stroke-width: 0.6"/>
      </g>
     </g>
    </g>
    <g id="xtick_20">
     <g id="line2d_20">
      <g>
       <use xlink:href="#mada4fadbe7" x="360.150216" y="228.96" style="fill: #262626; stroke: #262626; stroke-width: 0.6"/>
      </g>
     </g>
    </g>
    <g id="xtick_21">
     <g id="line2d_21">
      <g>
       <use xlink:href="#mada4fadbe7" x="374.496644" y="228.96" style="fill: #262626; stroke: #262626; stroke-width: 0.6"/>
      </g>
     </g>
    </g>
    <g id="xtick_22">
     <g id="line2d_22">
      <g>
       <use xlink:href="#mada4fadbe7" x="387.151089" y="228.96" style="fill: #262626; stroke: #262626; stroke-width: 0.6"/>
      </g>
     </g>
    </g>
    <g id="xtick_23">
     <g id="line2d_23">
      <g>
       <use xlink:href="#mada4fadbe7" x="516.504258" y="228.96" style="fill: #262626; stroke: #262626; stroke-width: 0.6"/>
      </g>
     </g>
    </g>
    <g id="xtick_24">
     <g id="line2d_24">
      <g>
       <use xlink:href="#mada4fadbe7" x="547.41242" y="228.96" style="fill: #262626; stroke: #262626; stroke-width: 0.6"/>
      </g>
     </g>
    </g>
    <g id="xtick_25">
     <g id="line2d_25">
      <g>
       <use xlink:href="#mada4fadbe7" x="590.975029" y="228.96" style="fill: #262626; stroke: #262626; stroke-width: 0.6"/>
      </g>
     </g>
    </g>
    <g id="xtick_26">
     <g id="line2d_26">
      <g>
       <use xlink:href="#mada4fadbe7" x="607.536764" y="228.96" style="fill: #262626; stroke: #262626; stroke-width: 0.6"/>
      </g>
     </g>
    </g>
    <g id="xtick_27">
     <g id="line2d_27">
      <g>
       <use xlink:href="#mada4fadbe7" x="621.883192" y="228.96" style="fill: #262626; stroke: #262626; stroke-width: 0.6"/>
      </g>
     </g>
    </g>
    <g id="xtick_28">
     <g id="line2d_28">
      <g>
       <use xlink:href="#mada4fadbe7" x="634.537638" y="228.96" style="fill: #262626; stroke: #262626; stroke-width: 0.6"/>
      </g>
     </g>
    </g>
    <g id="xtick_29">
     <g id="line2d_29">
      <g>
       <use xlink:href="#mada4fadbe7" x="763.890806" y="228.96" style="fill: #262626; stroke: #262626; stroke-width: 0.6"/>
      </g>
     </g>
    </g>
    <g id="xtick_30">
     <g id="line2d_30">
      <g>
       <use xlink:href="#mada4fadbe7" x="794.798969" y="228.96" style="fill: #262626; stroke: #262626; stroke-width: 0.6"/>
      </g>
     </g>
    </g>
    <g id="xtick_31">
     <g id="line2d_31">
      <g>
       <use xlink:href="#mada4fadbe7" x="838.361578" y="228.96" style="fill: #262626; stroke: #262626; stroke-width: 0.6"/>
      </g>
     </g>
    </g>
    <g id="text_10">
     <text style="font-size: 10px; font-family: 'Arial', 'DejaVu Sans', 'Liberation Sans', 'Bitstream Vera Sans', sans-serif; text-anchor: middle; fill: #262626" x="425.7" y="256.385" transform="rotate(-0 425.7 256.385)">Income or consumption (day)</text>
    </g>
   </g>
   <g id="matplotlib.axis_2"/>
   <g id="FillBetweenPolyCollection_1">
    <defs>
     <path id="mdfe2022df7" d="M 45.245455 -36.729688 
L 45.245455 -36.812185 
L 49.069118 -36.837334 
L 52.892782 -36.86922 
L 56.716446 -36.90936 
L 60.54011 -36.959532 
L 64.363773 -37.021803 
L 68.187437 -37.098549 
L 72.011101 -37.192475 
L 75.834765 -37.30663 
L 79.658429 -37.444418 
L 83.482092 -37.609592 
L 87.305756 -37.806255 
L 91.12942 -38.038835 
L 94.953084 -38.312063 
L 98.776747 -38.63093 
L 102.600411 -39.000639 
L 106.424075 -39.426548 
L 110.247739 -39.9141 
L 114.071402 -40.468749 
L 117.895066 -41.095881 
L 121.71873 -41.800734 
L 125.542394 -42.588319 
L 129.366058 -43.463344 
L 133.189721 -44.43015 
L 137.013385 -45.492656 
L 140.837049 -46.654319 
L 144.660713 -47.918111 
L 148.484376 -49.286513 
L 152.30804 -50.761533 
L 156.131704 -52.344737 
L 159.955368 -54.037303 
L 163.779032 -55.840089 
L 167.602695 -57.753715 
L 171.426359 -59.778655 
L 175.250023 -61.915332 
L 179.073687 -64.164217 
L 182.89735 -66.52592 
L 186.721014 -69.001277 
L 190.544678 -71.591415 
L 194.368342 -74.297807 
L 198.192005 -77.122301 
L 202.015669 -80.067122 
L 205.839333 -83.134855 
L 209.662997 -86.32839 
L 213.486661 -89.650846 
L 217.310324 -93.105464 
L 221.133988 -96.695472 
L 224.957652 -100.423932 
L 228.781316 -104.293554 
L 232.604979 -108.306506 
L 236.428643 -112.464197 
L 240.252307 -116.767063 
L 244.075971 -121.214338 
L 247.899635 -125.80384 
L 251.723298 -130.531753 
L 255.546962 -135.392432 
L 259.370626 -140.378228 
L 263.19429 -145.479342 
L 267.017953 -150.683712 
L 270.841617 -155.97694 
L 274.665281 -161.342274 
L 278.488945 -166.760633 
L 282.312608 -172.210688 
L 286.136272 -177.669007 
L 289.959936 -183.110255 
L 293.7836 -188.507446 
L 297.607264 -193.832259 
L 301.430927 -199.055394 
L 305.254591 -204.146982 
L 309.078255 -209.077017 
L 312.901919 -213.815822 
L 316.725582 -218.334521 
L 320.549246 -222.605515 
L 324.37291 -226.602948 
L 328.196574 -230.303139 
L 332.020238 -233.684988 
L 335.843901 -236.73032 
L 339.667565 -239.424183 
L 343.491229 -241.755072 
L 347.314893 -243.715076 
L 351.138556 -245.299957 
L 354.96222 -246.509144 
L 358.785884 -247.345657 
L 362.609548 -247.815948 
L 366.433212 -247.929688 
L 370.256875 -247.699484 
L 374.080539 -247.140558 
L 377.904203 -246.270377 
L 381.727867 -245.108266 
L 385.55153 -243.674999 
L 389.375194 -241.992394 
L 393.198858 -240.082911 
L 397.022522 -237.969271 
L 400.846185 -235.674098 
L 404.669849 -233.219604 
L 408.493513 -230.627301 
L 412.317177 -227.917768 
L 416.140841 -225.11046 
L 419.964504 -222.223557 
L 423.788168 -219.27387 
L 427.611832 -216.276775 
L 431.435496 -213.2462 
L 435.259159 -210.194638 
L 439.082823 -207.133188 
L 442.906487 -204.071628 
L 446.730151 -201.018495 
L 450.553815 -197.98119 
L 454.377478 -194.966078 
L 458.201142 -191.9786 
L 462.024806 -189.023378 
L 465.84847 -186.104314 
L 469.672133 -183.224685 
L 473.495797 -180.387223 
L 477.319461 -177.594183 
L 481.143125 -174.847401 
L 484.966788 -172.148337 
L 488.790452 -169.498106 
L 492.614116 -166.897494 
L 496.43778 -164.346974 
L 500.261444 -161.846699 
L 504.085107 -159.396504 
L 507.908771 -156.99589 
L 511.732435 -154.644019 
L 515.556099 -152.339698 
L 519.379762 -150.081371 
L 523.203426 -147.867117 
L 527.02709 -145.694644 
L 530.850754 -143.561301 
L 534.674418 -141.464087 
L 538.498081 -139.399676 
L 542.321745 -137.364442 
L 546.145409 -135.354497 
L 549.969073 -133.365735 
L 553.792736 -131.393879 
L 557.6164 -129.434532 
L 561.440064 -127.483241 
L 565.263728 -125.535552 
L 569.087392 -123.587073 
L 572.911055 -121.633534 
L 576.734719 -119.670849 
L 580.558383 -117.695171 
L 584.382047 -115.702954 
L 588.20571 -113.690999 
L 592.029374 -111.656507 
L 595.853038 -109.597121 
L 599.676702 -107.510974 
L 603.500365 -105.39672 
L 607.324029 -103.253571 
L 611.147693 -101.081332 
L 614.971357 -98.880421 
L 618.795021 -96.651896 
L 622.618684 -94.397472 
L 626.442348 -92.119536 
L 630.266012 -89.821148 
L 634.089676 -87.506048 
L 637.913339 -85.178636 
L 641.737003 -82.843956 
L 645.560667 -80.507663 
L 649.384331 -78.175974 
L 653.207995 -75.85561 
L 657.031658 -73.553717 
L 660.855322 -71.277778 
L 664.678986 -69.035512 
L 668.50265 -66.834751 
L 672.326313 -64.68332 
L 676.149977 -62.5889 
L 679.973641 -60.558894 
L 683.797305 -58.600288 
L 687.620968 -56.71952 
L 691.444632 -54.922361 
L 695.268296 -53.2138 
L 699.09196 -51.597956 
L 702.915624 -50.078007 
L 706.739287 -48.65614 
L 710.562951 -47.333529 
L 714.386615 -46.110338 
L 718.210279 -44.985744 
L 722.033942 -43.95799 
L 725.857606 -43.024456 
L 729.68127 -42.181748 
L 733.504934 -41.425798 
L 737.328598 -40.751983 
L 741.152261 -40.155239 
L 744.975925 -39.630186 
L 748.799589 -39.171242 
L 752.623253 -38.772743 
L 756.446916 -38.429038 
L 760.27058 -38.13459 
L 764.094244 -37.88405 
L 767.917908 -37.672325 
L 771.741571 -37.49463 
L 775.565235 -37.346526 
L 779.388899 -37.223942 
L 783.212563 -37.123187 
L 787.036227 -37.040954 
L 790.85989 -36.974311 
L 794.683554 -36.920682 
L 798.507218 -36.877832 
L 802.330882 -36.843837 
L 806.154545 -36.81706 
L 806.154545 -36.729688 
L 806.154545 -36.729688 
L 802.330882 -36.729688 
L 798.507218 -36.729688 
L 794.683554 -36.729688 
L 790.85989 -36.729688 
L 787.036227 -36.729688 
L 783.212563 -36.729688 
L 779.388899 -36.729688 
L 775.565235 -36.729688 
L 771.741571 -36.729688 
L 767.917908 -36.729688 
L 764.094244 -36.729688 
L 760.27058 -36.729688 
L 756.446916 -36.729688 
L 752.623253 -36.729688 
L 748.799589 -36.729688 
L 744.975925 -36.729688 
L 741.152261 -36.729688 
L 737.328598 -36.729688 
L 733.504934 -36.729688 
L 729.68127 -36.729688 
L 725.857606 -36.729688 
L 722.033942 -36.729688 
L 718.210279 -36.729688 
L 714.386615 -36.729688 
L 710.562951 -36.729688 
L 706.739287 -36.729688 
L 702.915624 -36.729688 
L 699.09196 -36.729688 
L 695.268296 -36.729688 
L 691.444632 -36.729688 
L 687.620968 -36.729688 
L 683.797305 -36.729688 
L 679.973641 -36.729688 
L 676.149977 -36.729688 
L 672.326313 -36.729688 
L 668.50265 -36.729688 
L 664.678986 -36.729688 
L 660.855322 -36.729688 
L 657.031658 -36.729688 
L 653.207995 -36.729688 
L 649.384331 -36.729688 
L 645.560667 -36.729688 
L 641.737003 -36.729688 
L 637.913339 -36.729688 
L 634.089676 -36.729688 
L 630.266012 -36.729688 
L 626.442348 -36.729688 
L 622.618684 -36.729688 
L 618.795021 -36.729688 
L 614.971357 -36.729688 
L 611.147693 -36.729688 
L 607.324029 -36.729688 
L 603.500365 -36.729688 
L 599.676702 -36.729688 
L 595.853038 -36.729688 
L 592.029374 -36.729688 
L 588.20571 -36.729688 
L 584.382047 -36.729688 
L 580.558383 -36.729688 
L 576.734719 -36.729688 
L 572.911055 -36.729688 
L 569.087392 -36.729688 
L 565.263728 -36.729688 
L 561.440064 -36.729688 
L 557.6164 -36.729688 
L 553.792736 -36.729688 
L 549.969073 -36.729688 
L 546.145409 -36.729688 
L 542.321745 -36.729688 
L 538.498081 -36.729688 
L 534.674418 -36.729688 
L 530.850754 -36.729688 
L 527.02709 -36.729688 
L 523.203426 -36.729688 
L 519.379762 -36.729688 
L 515.556099 -36.729688 
L 511.732435 -36.729688 
L 507.908771 -36.729688 
L 504.085107 -36.729688 
L 500.261444 -36.729688 
L 496.43778 -36.729688 
L 492.614116 -36.729688 
L 488.790452 -36.729688 
L 484.966788 -36.729688 
L 481.143125 -36.729688 
L 477.319461 -36.729688 
L 473.495797 -36.729688 
L 469.672133 -36.729688 
L 465.84847 -36.729688 
L 462.024806 -36.729688 
L 458.201142 -36.729688 
L 454.377478 -36.729688 
L 450.553815 -36.729688 
L 446.730151 -36.729688 
L 442.906487 -36.729688 
L 439.082823 -36.729688 
L 435.259159 -36.729688 
L 431.435496 -36.729688 
L 427.611832 -36.729688 
L 423.788168 -36.729688 
L 419.964504 -36.729688 
L 416.140841 -36.729688 
L 412.317177 -36.729688 
L 408.493513 -36.729688 
L 404.669849 -36.729688 
L 400.846185 -36.729688 
L 397.022522 -36.729688 
L 393.198858 -36.729688 
L 389.375194 -36.729688 
L 385.55153 -36.729688 
L 381.727867 -36.729688 
L 377.904203 -36.729688 
L 374.080539 -36.729688 
L 370.256875 -36.729688 
L 366.433212 -36.729688 
L 362.609548 -36.729688 
L 358.785884 -36.729688 
L 354.96222 -36.729688 
L 351.138556 -36.729688 
L 347.314893 -36.729688 
L 343.491229 -36.729688 
L 339.667565 -36.729688 
L 335.843901 -36.729688 
L 332.020238 -36.729688 
L 328.196574 -36.729688 
L 324.37291 -36.729688 
L 320.549246 -36.729688 
L 316.725582 -36.729688 
L 312.901919 -36.729688 
L 309.078255 -36.729688 
L 305.254591 -36.729688 
L 301.430927 -36.729688 
L 297.607264 -36.729688 
L 293.7836 -36.729688 
L 289.959936 -36.729688 
L 286.136272 -36.729688 
L 282.312608 -36.729688 
L 278.488945 -36.729688 
L 274.665281 -36.729688 
L 270.841617 -36.729688 
L 267.017953 -36.729688 
L 263.19429 -36.729688 
L 259.370626 -36.729688 
L 255.546962 -36.729688 
L 251.723298 -36.729688 
L 247.899635 -36.729688 
L 244.075971 -36.729688 
L 240.252307 -36.729688 
L 236.428643 -36.729688 
L 232.604979 -36.729688 
L 228.781316 -36.729688 
L 224.957652 -36.729688 
L 221.133988 -36.729688 
L 217.310324 -36.729688 
L 213.486661 -36.729688 
L 209.662997 -36.729688 
L 205.839333 -36.729688 
L 202.015669 -36.729688 
L 198.192005 -36.729688 
L 194.368342 -36.729688 
L 190.544678 -36.729688 
L 186.721014 -36.729688 
L 182.89735 -36.729688 
L 179.073687 -36.729688 
L 175.250023 -36.729688 
L 171.426359 -36.729688 
L 167.602695 -36.729688 
L 163.779032 -36.729688 
L 159.955368 -36.729688 
L 156.131704 -36.729688 
L 152.30804 -36.729688 
L 148.484376 -36.729688 
L 144.660713 -36.729688 
L 140.837049 -36.729688 
L 137.013385 -36.729688 
L 133.189721 -36.729688 
L 129.366058 -36.729688 
L 125.542394 -36.729688 
L 121.71873 -36.729688 
L 117.895066 -36.729688 
L 114.071402 -36.729688 
L 110.247739 -36.729688 
L 106.424075 -36.729688 
L 102.600411 -36.729688 
L 98.776747 -36.729688 
L 94.953084 -36.729688 
L 91.12942 -36.729688 
L 87.305756 -36.729688 
L 83.482092 -36.729688 
L 79.658429 -36.729688 
L 75.834765 -36.729688 
L 72.011101 -36.729688 
L 68.187437 -36.729688 
L 64.363773 -36.729688 
L 60.54011 -36.729688 
L 56.716446 -36.729688 
L 52.892782 -36.729688 
L 49.069118 -36.729688 
L 45.245455 -36.729688 
z
" style="stroke: #4c72b0; stroke-opacity: 0.2"/>
    </defs>
    <g>
     <use xlink:href="#mdfe2022df7" x="0" y="265.689687" style="fill: #4c72b0; fill-opacity: 0.2; stroke: #4c72b0; stroke-opacity: 0.2"/>
    </g>
   </g>
   <g id="FillBetweenPolyCollection_2">
    <defs>
     <path id="m93e3db3bda" d="M 45.245455 -36.812185 
L 45.245455 -36.729688 
L 49.069118 -36.729688 
L 52.892782 -36.729688 
L 56.716446 -36.729688 
L 60.54011 -36.729688 
L 64.363773 -36.729688 
L 68.187437 -36.729688 
L 72.011101 -36.729688 
L 75.834765 -36.729688 
L 79.658429 -36.729688 
L 83.482092 -36.729688 
L 87.305756 -36.729688 
L 91.12942 -36.729688 
L 94.953084 -36.729688 
L 98.776747 -36.729688 
L 102.600411 -36.729688 
L 106.424075 -36.729688 
L 110.247739 -36.729688 
L 114.071402 -36.729688 
L 117.895066 -36.729688 
L 121.71873 -36.729688 
L 125.542394 -36.729688 
L 129.366058 -36.729688 
L 133.189721 -36.729688 
L 137.013385 -36.729688 
L 140.837049 -36.729688 
L 144.660713 -36.729688 
L 148.484376 -36.729688 
L 152.30804 -36.729688 
L 156.131704 -36.729688 
L 159.955368 -36.729688 
L 163.779032 -36.729688 
L 167.602695 -36.729688 
L 171.426359 -36.729688 
L 175.250023 -36.729688 
L 179.073687 -36.729688 
L 182.89735 -36.729688 
L 186.721014 -36.729688 
L 190.544678 -36.729688 
L 194.368342 -36.729688 
L 198.192005 -36.729688 
L 202.015669 -36.729688 
L 205.839333 -36.729688 
L 209.662997 -36.729688 
L 213.486661 -36.729688 
L 217.310324 -36.729688 
L 221.133988 -36.729688 
L 224.957652 -36.729688 
L 228.781316 -36.729688 
L 232.604979 -36.729688 
L 236.428643 -36.729688 
L 240.252307 -36.729688 
L 244.075971 -36.729688 
L 247.899635 -36.729688 
L 251.723298 -36.729688 
L 255.546962 -36.729688 
L 259.370626 -36.729688 
L 263.19429 -36.729688 
L 267.017953 -36.729688 
L 270.841617 -36.729688 
L 274.665281 -36.729688 
L 278.488945 -36.729688 
L 282.312608 -36.729688 
L 286.136272 -36.729688 
L 289.959936 -36.729688 
L 293.7836 -36.729688 
L 297.607264 -36.729688 
L 301.430927 -36.729688 
L 305.254591 -36.729688 
L 309.078255 -36.729688 
L 312.901919 -36.729688 
L 316.725582 -36.729688 
L 320.549246 -36.729688 
L 324.37291 -36.729688 
L 328.196574 -36.729688 
L 332.020238 -36.729688 
L 335.843901 -36.729688 
L 339.667565 -36.729688 
L 343.491229 -36.729688 
L 347.314893 -36.729688 
L 351.138556 -36.729688 
L 354.96222 -36.729688 
L 358.785884 -36.729688 
L 362.609548 -36.729688 
L 366.433212 -36.729688 
L 370.256875 -36.729688 
L 374.080539 -36.729688 
L 377.904203 -36.729688 
L 381.727867 -36.729688 
L 385.55153 -36.729688 
L 389.375194 -36.729688 
L 393.198858 -36.729688 
L 397.022522 -36.729688 
L 400.846185 -36.729688 
L 404.669849 -36.729688 
L 408.493513 -36.729688 
L 412.317177 -36.729688 
L 416.140841 -36.729688 
L 419.964504 -36.729688 
L 423.788168 -36.729688 
L 427.611832 -36.729688 
L 431.435496 -36.729688 
L 435.259159 -36.729688 
L 439.082823 -36.729688 
L 442.906487 -36.729688 
L 446.730151 -36.729688 
L 450.553815 -36.729688 
L 454.377478 -36.729688 
L 458.201142 -36.729688 
L 462.024806 -36.729688 
L 465.84847 -36.729688 
L 469.672133 -36.729688 
L 473.495797 -36.729688 
L 477.319461 -36.729688 
L 481.143125 -36.729688 
L 484.966788 -36.729688 
L 488.790452 -36.729688 
L 492.614116 -36.729688 
L 496.43778 -36.729688 
L 500.261444 -36.729688 
L 504.085107 -36.729688 
L 507.908771 -36.729688 
L 511.732435 -36.729688 
L 515.556099 -36.729688 
L 516.504258 -36.729688 
L 516.504258 -151.787169 
L 516.504258 -151.787169 
L 515.556099 -152.339698 
L 511.732435 -154.644019 
L 507.908771 -156.99589 
L 504.085107 -159.396504 
L 500.261444 -161.846699 
L 496.43778 -164.346974 
L 492.614116 -166.897494 
L 488.790452 -169.498106 
L 484.966788 -172.148337 
L 481.143125 -174.847401 
L 477.319461 -177.594183 
L 473.495797 -180.387223 
L 469.672133 -183.224685 
L 465.84847 -186.104314 
L 462.024806 -189.023378 
L 458.201142 -191.9786 
L 454.377478 -194.966078 
L 450.553815 -197.98119 
L 446.730151 -201.018495 
L 442.906487 -204.071628 
L 439.082823 -207.133188 
L 435.259159 -210.194638 
L 431.435496 -213.2462 
L 427.611832 -216.276775 
L 423.788168 -219.27387 
L 419.964504 -222.223557 
L 416.140841 -225.11046 
L 412.317177 -227.917768 
L 408.493513 -230.627301 
L 404.669849 -233.219604 
L 400.846185 -235.674098 
L 397.022522 -237.969271 
L 393.198858 -240.082911 
L 389.375194 -241.992394 
L 385.55153 -243.674999 
L 381.727867 -245.108266 
L 377.904203 -246.270377 
L 374.080539 -247.140558 
L 370.256875 -247.699484 
L 366.433212 -247.929688 
L 362.609548 -247.815948 
L 358.785884 -247.345657 
L 354.96222 -246.509144 
L 351.138556 -245.299957 
L 347.314893 -243.715076 
L 343.491229 -241.755072 
L 339.667565 -239.424183 
L 335.843901 -236.73032 
L 332.020238 -233.684988 
L 328.196574 -230.303139 
L 324.37291 -226.602948 
L 320.549246 -222.605515 
L 316.725582 -218.334521 
L 312.901919 -213.815822 
L 309.078255 -209.077017 
L 305.254591 -204.146982 
L 301.430927 -199.055394 
L 297.607264 -193.832259 
L 293.7836 -188.507446 
L 289.959936 -183.110255 
L 286.136272 -177.669007 
L 282.312608 -172.210688 
L 278.488945 -166.760633 
L 274.665281 -161.342274 
L 270.841617 -155.97694 
L 267.017953 -150.683712 
L 263.19429 -145.479342 
L 259.370626 -140.378228 
L 255.546962 -135.392432 
L 251.723298 -130.531753 
L 247.899635 -125.80384 
L 244.075971 -121.214338 
L 240.252307 -116.767063 
L 236.428643 -112.464197 
L 232.604979 -108.306506 
L 228.781316 -104.293554 
L 224.957652 -100.423932 
L 221.133988 -96.695472 
L 217.310324 -93.105464 
L 213.486661 -89.650846 
L 209.662997 -86.32839 
L 205.839333 -83.134855 
L 202.015669 -80.067122 
L 198.192005 -77.122301 
L 194.368342 -74.297807 
L 190.544678 -71.591415 
L 186.721014 -69.001277 
L 182.89735 -66.52592 
L 179.073687 -64.164217 
L 175.250023 -61.915332 
L 171.426359 -59.778655 
L 167.602695 -57.753715 
L 163.779032 -55.840089 
L 159.955368 -54.037303 
L 156.131704 -52.344737 
L 152.30804 -50.761533 
L 148.484376 -49.286513 
L 144.660713 -47.918111 
L 140.837049 -46.654319 
L 137.013385 -45.492656 
L 133.189721 -44.43015 
L 129.366058 -43.463344 
L 125.542394 -42.588319 
L 121.71873 -41.800734 
L 117.895066 -41.095881 
L 114.071402 -40.468749 
L 110.247739 -39.9141 
L 106.424075 -39.426548 
L 102.600411 -39.000639 
L 98.776747 -38.63093 
L 94.953084 -38.312063 
L 91.12942 -38.038835 
L 87.305756 -37.806255 
L 83.482092 -37.609592 
L 79.658429 -37.444418 
L 75.834765 -37.30663 
L 72.011101 -37.192475 
L 68.187437 -37.098549 
L 64.363773 -37.021803 
L 60.54011 -36.959532 
L 56.716446 -36.90936 
L 52.892782 -36.86922 
L 49.069118 -36.837334 
L 45.245455 -36.812185 
z
"/>
    </defs>
    <g>
     <use xlink:href="#m93e3db3bda" x="0" y="265.689687" style="fill: #4c72b0; fill-opacity: 0.3"/>
    </g>
   </g>
   <g id="line2d_32">
    <path d="M 45.245455 228.877503 
L 64.363773 228.667884 
L 75.834765 228.383057 
L 87.305756 227.883433 
L 94.953084 227.377624 
L 102.600411 226.689048 
L 110.247739 225.775587 
L 117.895066 224.593806 
L 125.542394 223.101369 
L 133.189721 221.259537 
L 140.837049 219.035368 
L 148.484376 216.403175 
L 156.131704 213.344951 
L 163.779032 209.849599 
L 171.426359 205.911032 
L 179.073687 201.525471 
L 186.721014 196.68841 
L 194.368342 191.39188 
L 202.015669 185.622565 
L 209.662997 179.361297 
L 217.310324 172.584224 
L 224.957652 165.265756 
L 232.604979 157.383182 
L 240.252307 148.922625 
L 247.899635 139.885847 
L 255.546962 130.297256 
L 263.19429 120.210345 
L 270.841617 109.712747 
L 282.312608 93.479 
L 293.7836 77.182241 
L 301.430927 66.634293 
L 309.078255 56.61267 
L 312.901919 51.873865 
L 316.725582 47.355167 
L 320.549246 43.084172 
L 324.37291 39.086739 
L 328.196574 35.386548 
L 332.020238 32.0047 
L 335.843901 28.959368 
L 339.667565 26.265504 
L 343.491229 23.934615 
L 347.314893 21.974611 
L 351.138556 20.389731 
L 354.96222 19.180543 
L 358.785884 18.344031 
L 362.609548 17.87374 
L 366.433212 17.76 
L 370.256875 17.990203 
L 374.080539 18.549129 
L 377.904203 19.41931 
L 381.727867 20.581421 
L 385.55153 22.014688 
L 389.375194 23.697293 
L 393.198858 25.606776 
L 397.022522 27.720417 
L 400.846185 30.015589 
L 404.669849 32.470084 
L 412.317177 37.771919 
L 419.964504 43.46613 
L 431.435496 52.443487 
L 458.201142 73.711087 
L 469.672133 82.465002 
L 481.143125 90.842287 
L 488.790452 96.191582 
L 496.43778 101.342714 
L 504.085107 106.293184 
L 511.732435 111.045668 
L 519.379762 115.608316 
L 530.850754 122.128387 
L 542.321745 128.325246 
L 557.6164 136.255156 
L 584.382047 149.986733 
L 595.853038 156.092566 
L 607.324029 162.436116 
L 618.795021 169.037792 
L 634.089676 178.183639 
L 660.855322 194.411909 
L 668.50265 198.854937 
L 676.149977 203.100788 
L 683.797305 207.0894 
L 691.444632 210.767326 
L 699.09196 214.091731 
L 706.739287 217.033548 
L 714.386615 219.57935 
L 722.033942 221.731698 
L 729.68127 223.50794 
L 737.328598 224.937704 
L 744.975925 226.059502 
L 752.623253 226.916945 
L 760.27058 227.555098 
L 767.917908 228.017363 
L 779.388899 228.465746 
L 794.683554 228.769006 
L 806.154545 228.872628 
L 806.154545 228.872628 
" style="fill: none; stroke: #4c72b0; stroke-width: 1.5; stroke-linecap: round"/>
   </g>
   <g id="line2d_33">
    <path d="M 7.2 228.96 
L 844.2 228.96 
" style="fill: none; stroke: #808080; stroke-width: 0.5; stroke-linecap: round"/>
   </g>
   <g id="legend_1">
    <g id="patch_3">
     <path d="M 683.8 88.081687 
L 741.7375 88.081687 
Q 743.7375 88.081687 743.7375 86.081687 
L 743.7375 58.552 
Q 743.7375 56.552 741.7375 56.552 
L 683.8 56.552 
Q 681.8 56.552 681.8 58.552 
L 681.8 86.081687 
Q 681.8 88.081687 683.8 88.081687 
z
" style="fill: #ffffff; opacity: 0.8; stroke: #cccccc; stroke-linejoin: miter"/>
    </g>
    <g id="text_11">
     <text style="font-size: 10px; font-family: 'Arial', 'DejaVu Sans', 'Liberation Sans', 'Bitstream Vera Sans', sans-serif; text-anchor: start; fill: #262626" x="695.2625" y="67.831687" transform="rotate(-0 695.2625 67.831687)">Country</text>
    </g>
    <g id="line2d_34">
     <path d="M 685.8 78.594187 
L 695.8 78.594187 
L 705.8 78.594187 
" style="fill: none; stroke: #4c72b0; stroke-width: 1.5; stroke-linecap: round"/>
    </g>
    <g id="text_12">
     <text style="font-size: 10px; font-family: 'Arial', 'DejaVu Sans', 'Liberation Sans', 'Bitstream Vera Sans', sans-serif; text-anchor: start; fill: #262626" x="713.8" y="82.094187" transform="rotate(-0 713.8 82.094187)">World</text>
    </g>
   </g>
  </g>
 </g>
</svg>
