<?xml version="1.0" encoding="utf-8" standalone="no"?>
<!DOCTYPE svg PUBLIC "-//W3C//DTD SVG 1.1//EN"
  "http://www.w3.org/Graphics/SVG/1.1/DTD/svg11.dtd">
<svg xmlns:xlink="http://www.w3.org/1999/xlink" width="862.521875pt" height="265.689687pt" viewBox="0 0 862.521875 265.689687" xmlns="http://www.w3.org/2000/svg" version="1.1">
 <metadata>
  <rdf:RDF xmlns:dc="http://purl.org/dc/elements/1.1/" xmlns:cc="http://creativecommons.org/ns#" xmlns:rdf="http://www.w3.org/1999/02/22-rdf-syntax-ns#">
   <cc:Work>
    <dc:type rdf:resource="http://purl.org/dc/dcmitype/StillImage"/>
    <dc:date>2025-04-15T11:22:55.205789</dc:date>
    <dc:format>image/svg+xml</dc:format>
    <dc:creator>
     <cc:Agent>
      <dc:title>Matplotlib v3.10.1, https://matplotlib.org/</dc:title>
     </cc:Agent>
    </dc:creator>
   </cc:Work>
  </rdf:RDF>
 </metadata>
 <defs>
  <style type="text/css">*{stroke-linejoin: round; stroke-linecap: butt}</style>
 </defs>
 <g id="figure_1">
  <g id="patch_1">
   <path d="M 0 265.689687 
L 862.521875 265.689687 
L 862.521875 0 
L 0 0 
z
" style="fill: #ffffff"/>
  </g>
  <g id="axes_1">
   <g id="patch_2">
    <path d="M 7.2 228.96 
L 844.2 228.96 
L 844.2 7.2 
L 7.2 7.2 
z
" style="fill: #ffffff"/>
   </g>
   <g id="matplotlib.axis_1">
    <g id="xtick_1">
     <g id="line2d_1">
      <defs>
       <path id="m8a3ca757aa" d="M 0 0 
L 0 3.5 
" style="stroke: #262626; stroke-width: 0.8"/>
      </defs>
      <g>
       <use xlink:href="#m8a3ca757aa" x="193.577503" y="228.96" style="fill: #262626; stroke: #262626; stroke-width: 0.8"/>
      </g>
     </g>
     <g id="text_1">
      <text style="font-size: 10px; font-family: 'Arial', 'DejaVu Sans', 'Liberation Sans', 'Bitstream Vera Sans', sans-serif; text-anchor: middle; fill: #262626" x="193.577503" y="243.117812" transform="rotate(-0 193.577503 243.117812)">1</text>
     </g>
    </g>
    <g id="xtick_2">
     <g id="line2d_2">
      <g>
       <use xlink:href="#m8a3ca757aa" x="258.863132" y="228.96" style="fill: #262626; stroke: #262626; stroke-width: 0.8"/>
      </g>
     </g>
     <g id="text_2">
      <text style="font-size: 10px; font-family: 'Arial', 'DejaVu Sans', 'Liberation Sans', 'Bitstream Vera Sans', sans-serif; text-anchor: middle; fill: #262626" x="258.863132" y="243.117812" transform="rotate(-0 258.863132 243.117812)">2</text>
     </g>
    </g>
    <g id="xtick_3">
     <g id="line2d_3">
      <g>
       <use xlink:href="#m8a3ca757aa" x="345.16604" y="228.96" style="fill: #262626; stroke: #262626; stroke-width: 0.8"/>
      </g>
     </g>
     <g id="text_3">
      <text style="font-size: 10px; font-family: 'Arial', 'DejaVu Sans', 'Liberation Sans', 'Bitstream Vera Sans', sans-serif; text-anchor: middle; fill: #262626" x="345.16604" y="243.117812" transform="rotate(-0 345.16604 243.117812)">5</text>
     </g>
    </g>
    <g id="xtick_4">
     <g id="line2d_4">
      <g>
       <use xlink:href="#m8a3ca757aa" x="410.451669" y="228.96" style="fill: #262626; stroke: #262626; stroke-width: 0.8"/>
      </g>
     </g>
     <g id="text_4">
      <text style="font-size: 10px; font-family: 'Arial', 'DejaVu Sans', 'Liberation Sans', 'Bitstream Vera Sans', sans-serif; text-anchor: middle; fill: #262626" x="410.451669" y="243.117812" transform="rotate(-0 410.451669 243.117812)">10</text>
     </g>
    </g>
    <g id="xtick_5">
     <g id="line2d_5">
      <g>
       <use xlink:href="#m8a3ca757aa" x="475.737298" y="228.96" style="fill: #262626; stroke: #262626; stroke-width: 0.8"/>
      </g>
     </g>
     <g id="text_5">
      <text style="font-size: 10px; font-family: 'Arial', 'DejaVu Sans', 'Liberation Sans', 'Bitstream Vera Sans', sans-serif; text-anchor: middle; fill: #262626" x="475.737298" y="243.117812" transform="rotate(-0 475.737298 243.117812)">20</text>
     </g>
    </g>
    <g id="xtick_6">
     <g id="line2d_6">
      <g>
       <use xlink:href="#m8a3ca757aa" x="562.040205" y="228.96" style="fill: #262626; stroke: #262626; stroke-width: 0.8"/>
      </g>
     </g>
     <g id="text_6">
      <text style="font-size: 10px; font-family: 'Arial', 'DejaVu Sans', 'Liberation Sans', 'Bitstream Vera Sans', sans-serif; text-anchor: middle; fill: #262626" x="562.040205" y="243.117812" transform="rotate(-0 562.040205 243.117812)">50</text>
     </g>
    </g>
    <g id="xtick_7">
     <g id="line2d_7">
      <g>
       <use xlink:href="#m8a3ca757aa" x="627.325834" y="228.96" style="fill: #262626; stroke: #262626; stroke-width: 0.8"/>
      </g>
     </g>
     <g id="text_7">
      <text style="font-size: 10px; font-family: 'Arial', 'DejaVu Sans', 'Liberation Sans', 'Bitstream Vera Sans', sans-serif; text-anchor: middle; fill: #262626" x="627.325834" y="243.117812" transform="rotate(-0 627.325834 243.117812)">100</text>
     </g>
    </g>
    <g id="xtick_8">
     <g id="line2d_8">
      <g>
       <use xlink:href="#m8a3ca757aa" x="692.611464" y="228.96" style="fill: #262626; stroke: #262626; stroke-width: 0.8"/>
      </g>
     </g>
     <g id="text_8">
      <text style="font-size: 10px; font-family: 'Arial', 'DejaVu Sans', 'Liberation Sans', 'Bitstream Vera Sans', sans-serif; text-anchor: middle; fill: #262626" x="692.611464" y="243.117812" transform="rotate(-0 692.611464 243.117812)">200</text>
     </g>
    </g>
    <g id="xtick_9">
     <g id="line2d_9">
      <g>
       <use xlink:href="#m8a3ca757aa" x="778.914371" y="228.96" style="fill: #262626; stroke: #262626; stroke-width: 0.8"/>
      </g>
     </g>
     <g id="text_9">
      <text style="font-size: 10px; font-family: 'Arial', 'DejaVu Sans', 'Liberation Sans', 'Bitstream Vera Sans', sans-serif; text-anchor: middle; fill: #262626" x="778.914371" y="243.117812" transform="rotate(-0 778.914371 243.117812)">500</text>
     </g>
    </g>
    <g id="xtick_10">
     <g id="line2d_10">
      <g>
       <use xlink:href="#m8a3ca757aa" x="844.2" y="228.96" style="fill: #262626; stroke: #262626; stroke-width: 0.8"/>
      </g>
     </g>
     <g id="text_10">
      <text style="font-size: 10px; font-family: 'Arial', 'DejaVu Sans', 'Liberation Sans', 'Bitstream Vera Sans', sans-serif; text-anchor: middle; fill: #262626" x="844.2" y="243.117812" transform="rotate(-0 844.2 243.117812)">1000</text>
     </g>
    </g>
    <g id="xtick_11">
     <g id="line2d_11">
      <defs>
       <path id="mb23df01db5" d="M 0 0 
L 0 2 
" style="stroke: #262626; stroke-width: 0.6"/>
      </defs>
      <g>
       <use xlink:href="#mb23df01db5" x="41.988967" y="228.96" style="fill: #262626; stroke: #262626; stroke-width: 0.6"/>
      </g>
     </g>
    </g>
    <g id="xtick_12">
     <g id="line2d_12">
      <g>
       <use xlink:href="#mb23df01db5" x="80.178612" y="228.96" style="fill: #262626; stroke: #262626; stroke-width: 0.6"/>
      </g>
     </g>
    </g>
    <g id="xtick_13">
     <g id="line2d_13">
      <g>
       <use xlink:href="#mb23df01db5" x="107.274596" y="228.96" style="fill: #262626; stroke: #262626; stroke-width: 0.6"/>
      </g>
     </g>
    </g>
    <g id="xtick_14">
     <g id="line2d_14">
      <g>
       <use xlink:href="#mb23df01db5" x="128.291874" y="228.96" style="fill: #262626; stroke: #262626; stroke-width: 0.6"/>
      </g>
     </g>
    </g>
    <g id="xtick_15">
     <g id="line2d_15">
      <g>
       <use xlink:href="#mb23df01db5" x="145.464241" y="228.96" style="fill: #262626; stroke: #262626; stroke-width: 0.6"/>
      </g>
     </g>
    </g>
    <g id="xtick_16">
     <g id="line2d_16">
      <g>
       <use xlink:href="#mb23df01db5" x="159.98327" y="228.96" style="fill: #262626; stroke: #262626; stroke-width: 0.6"/>
      </g>
     </g>
    </g>
    <g id="xtick_17">
     <g id="line2d_17">
      <g>
       <use xlink:href="#mb23df01db5" x="172.560225" y="228.96" style="fill: #262626; stroke: #262626; stroke-width: 0.6"/>
      </g>
     </g>
    </g>
    <g id="xtick_18">
     <g id="line2d_18">
      <g>
       <use xlink:href="#mb23df01db5" x="183.653886" y="228.96" style="fill: #262626; stroke: #262626; stroke-width: 0.6"/>
      </g>
     </g>
    </g>
    <g id="xtick_19">
     <g id="line2d_19">
      <g>
       <use xlink:href="#mb23df01db5" x="297.052777" y="228.96" style="fill: #262626; stroke: #262626; stroke-width: 0.6"/>
      </g>
     </g>
    </g>
    <g id="xtick_20">
     <g id="line2d_20">
      <g>
       <use xlink:href="#mb23df01db5" x="324.148761" y="228.96" style="fill: #262626; stroke: #262626; stroke-width: 0.6"/>
      </g>
     </g>
    </g>
    <g id="xtick_21">
     <g id="line2d_21">
      <g>
       <use xlink:href="#mb23df01db5" x="362.338406" y="228.96" style="fill: #262626; stroke: #262626; stroke-width: 0.6"/>
      </g>
     </g>
    </g>
    <g id="xtick_22">
     <g id="line2d_22">
      <g>
       <use xlink:href="#mb23df01db5" x="376.857435" y="228.96" style="fill: #262626; stroke: #262626; stroke-width: 0.6"/>
      </g>
     </g>
    </g>
    <g id="xtick_23">
     <g id="line2d_23">
      <g>
       <use xlink:href="#mb23df01db5" x="389.434391" y="228.96" style="fill: #262626; stroke: #262626; stroke-width: 0.6"/>
      </g>
     </g>
    </g>
    <g id="xtick_24">
     <g id="line2d_24">
      <g>
       <use xlink:href="#mb23df01db5" x="400.528051" y="228.96" style="fill: #262626; stroke: #262626; stroke-width: 0.6"/>
      </g>
     </g>
    </g>
    <g id="xtick_25">
     <g id="line2d_25">
      <g>
       <use xlink:href="#mb23df01db5" x="513.926943" y="228.96" style="fill: #262626; stroke: #262626; stroke-width: 0.6"/>
      </g>
     </g>
    </g>
    <g id="xtick_26">
     <g id="line2d_26">
      <g>
       <use xlink:href="#mb23df01db5" x="541.022927" y="228.96" style="fill: #262626; stroke: #262626; stroke-width: 0.6"/>
      </g>
     </g>
    </g>
    <g id="xtick_27">
     <g id="line2d_27">
      <g>
       <use xlink:href="#mb23df01db5" x="579.212572" y="228.96" style="fill: #262626; stroke: #262626; stroke-width: 0.6"/>
      </g>
     </g>
    </g>
    <g id="xtick_28">
     <g id="line2d_28">
      <g>
       <use xlink:href="#mb23df01db5" x="593.731601" y="228.96" style="fill: #262626; stroke: #262626; stroke-width: 0.6"/>
      </g>
     </g>
    </g>
    <g id="xtick_29">
     <g id="line2d_29">
      <g>
       <use xlink:href="#mb23df01db5" x="606.308556" y="228.96" style="fill: #262626; stroke: #262626; stroke-width: 0.6"/>
      </g>
     </g>
    </g>
    <g id="xtick_30">
     <g id="line2d_30">
      <g>
       <use xlink:href="#mb23df01db5" x="617.402217" y="228.96" style="fill: #262626; stroke: #262626; stroke-width: 0.6"/>
      </g>
     </g>
    </g>
    <g id="xtick_31">
     <g id="line2d_31">
      <g>
       <use xlink:href="#mb23df01db5" x="730.801108" y="228.96" style="fill: #262626; stroke: #262626; stroke-width: 0.6"/>
      </g>
     </g>
    </g>
    <g id="xtick_32">
     <g id="line2d_32">
      <g>
       <use xlink:href="#mb23df01db5" x="757.897093" y="228.96" style="fill: #262626; stroke: #262626; stroke-width: 0.6"/>
      </g>
     </g>
    </g>
    <g id="xtick_33">
     <g id="line2d_33">
      <g>
       <use xlink:href="#mb23df01db5" x="796.086738" y="228.96" style="fill: #262626; stroke: #262626; stroke-width: 0.6"/>
      </g>
     </g>
    </g>
    <g id="xtick_34">
     <g id="line2d_34">
      <g>
       <use xlink:href="#mb23df01db5" x="810.605767" y="228.96" style="fill: #262626; stroke: #262626; stroke-width: 0.6"/>
      </g>
     </g>
    </g>
    <g id="xtick_35">
     <g id="line2d_35">
      <g>
       <use xlink:href="#mb23df01db5" x="823.182722" y="228.96" style="fill: #262626; stroke: #262626; stroke-width: 0.6"/>
      </g>
     </g>
    </g>
    <g id="xtick_36">
     <g id="line2d_36">
      <g>
       <use xlink:href="#mb23df01db5" x="834.276382" y="228.96" style="fill: #262626; stroke: #262626; stroke-width: 0.6"/>
      </g>
     </g>
    </g>
    <g id="text_11">
     <text style="font-size: 10px; font-family: 'Arial', 'DejaVu Sans', 'Liberation Sans', 'Bitstream Vera Sans', sans-serif; text-anchor: middle; fill: #262626" x="425.7" y="256.385" transform="rotate(-0 425.7 256.385)">Income or consumption (day)</text>
    </g>
   </g>
   <g id="matplotlib.axis_2"/>
   <g id="FillBetweenPolyCollection_1">
    <defs>
     <path id="m5b1b571a07" d="M 44.479024 -36.729688 
L 44.479024 -36.800908 
L 45.225351 -36.804889 
L 45.971678 -36.80907 
L 46.718004 -36.813459 
L 47.464331 -36.818066 
L 48.210658 -36.822899 
L 48.956985 -36.827968 
L 49.703312 -36.833283 
L 50.449638 -36.838854 
L 51.195965 -36.844693 
L 51.942292 -36.850808 
L 52.688619 -36.857213 
L 53.434946 -36.863919 
L 54.181273 -36.870936 
L 54.927599 -36.878279 
L 55.673926 -36.885959 
L 56.420253 -36.893989 
L 57.16658 -36.902383 
L 57.912907 -36.911155 
L 58.659233 -36.920319 
L 59.40556 -36.92989 
L 60.151887 -36.939882 
L 60.898214 -36.950311 
L 61.644541 -36.961193 
L 62.390867 -36.972543 
L 63.137194 -36.984379 
L 63.883521 -36.996718 
L 64.629848 -37.009577 
L 65.376175 -37.022974 
L 66.122501 -37.036927 
L 66.868828 -37.051455 
L 67.615155 -37.066578 
L 68.361482 -37.082314 
L 69.107809 -37.098684 
L 69.854135 -37.115708 
L 70.600462 -37.133407 
L 71.346789 -37.151803 
L 72.093116 -37.170917 
L 72.839443 -37.190771 
L 73.585769 -37.211388 
L 74.332096 -37.232791 
L 75.078423 -37.255004 
L 75.82475 -37.27805 
L 76.571077 -37.301953 
L 77.317404 -37.326738 
L 78.06373 -37.352431 
L 78.810057 -37.379056 
L 79.556384 -37.40664 
L 80.302711 -37.435209 
L 81.049038 -37.464789 
L 81.795364 -37.495407 
L 82.541691 -37.527092 
L 83.288018 -37.55987 
L 84.034345 -37.593769 
L 84.780672 -37.628819 
L 85.526998 -37.665047 
L 86.273325 -37.702483 
L 87.019652 -37.741156 
L 87.765979 -37.781096 
L 88.512306 -37.822333 
L 89.258632 -37.864897 
L 90.004959 -37.908819 
L 90.751286 -37.954129 
L 91.497613 -38.000858 
L 92.24394 -38.049037 
L 92.990266 -38.098699 
L 93.736593 -38.149874 
L 94.48292 -38.202595 
L 95.229247 -38.256893 
L 95.975574 -38.3128 
L 96.721901 -38.370349 
L 97.468227 -38.429573 
L 98.214554 -38.490503 
L 98.960881 -38.553172 
L 99.707208 -38.617614 
L 100.453535 -38.68386 
L 101.199861 -38.751944 
L 101.946188 -38.821899 
L 102.692515 -38.893757 
L 103.438842 -38.967551 
L 104.185169 -39.043315 
L 104.931495 -39.12108 
L 105.677822 -39.20088 
L 106.424149 -39.282748 
L 107.170476 -39.366717 
L 107.916803 -39.452818 
L 108.663129 -39.541084 
L 109.409456 -39.631549 
L 110.155783 -39.724244 
L 110.90211 -39.819201 
L 111.648437 -39.916452 
L 112.394763 -40.01603 
L 113.14109 -40.117965 
L 113.887417 -40.222291 
L 114.633744 -40.329036 
L 115.380071 -40.438234 
L 116.126397 -40.549915 
L 116.872724 -40.664109 
L 117.619051 -40.780848 
L 118.365378 -40.900161 
L 119.111705 -41.022078 
L 119.858032 -41.146629 
L 120.604358 -41.273845 
L 121.350685 -41.403753 
L 122.097012 -41.536384 
L 122.843339 -41.671766 
L 123.589666 -41.809927 
L 124.335992 -41.950896 
L 125.082319 -42.094701 
L 125.828646 -42.24137 
L 126.574973 -42.390931 
L 127.3213 -42.54341 
L 128.067626 -42.698835 
L 128.813953 -42.857233 
L 129.56028 -43.01863 
L 130.306607 -43.183054 
L 131.052934 -43.350529 
L 131.79926 -43.521082 
L 132.545587 -43.694739 
L 133.291914 -43.871526 
L 134.038241 -44.051468 
L 134.784568 -44.23459 
L 135.530894 -44.420918 
L 136.277221 -44.610476 
L 137.023548 -44.80329 
L 137.769875 -44.999384 
L 138.516202 -45.198784 
L 139.262529 -45.401513 
L 140.008855 -45.607597 
L 140.755182 -45.81706 
L 141.501509 -46.029926 
L 142.247836 -46.246221 
L 142.994163 -46.465968 
L 143.740489 -46.689193 
L 144.486816 -46.91592 
L 145.233143 -47.146174 
L 145.97947 -47.37998 
L 146.725797 -47.617362 
L 147.472123 -47.858347 
L 148.21845 -48.102959 
L 148.964777 -48.351223 
L 149.711104 -48.603166 
L 150.457431 -48.858813 
L 151.203757 -49.118191 
L 151.950084 -49.381325 
L 152.696411 -49.648243 
L 153.442738 -49.918972 
L 154.189065 -50.193538 
L 154.935391 -50.47197 
L 155.681718 -50.754296 
L 156.428045 -51.040543 
L 157.174372 -51.33074 
L 157.920699 -51.624918 
L 158.667025 -51.923105 
L 159.413352 -52.225331 
L 160.159679 -52.531626 
L 160.906006 -52.842023 
L 161.652333 -53.156551 
L 162.39866 -53.475244 
L 163.144986 -53.798132 
L 163.891313 -54.12525 
L 164.63764 -54.45663 
L 165.383967 -54.792306 
L 166.130294 -55.132313 
L 166.87662 -55.476686 
L 167.622947 -55.825459 
L 168.369274 -56.17867 
L 169.115601 -56.536353 
L 169.861928 -56.898547 
L 170.608254 -57.265289 
L 171.354581 -57.636617 
L 172.100908 -58.012568 
L 172.847235 -58.393184 
L 173.593562 -58.778502 
L 174.339888 -59.168562 
L 175.086215 -59.563406 
L 175.832542 -59.963074 
L 176.578869 -60.367607 
L 177.325196 -60.777047 
L 178.071522 -61.191436 
L 178.817849 -61.610817 
L 179.564176 -62.035233 
L 180.310503 -62.464726 
L 181.05683 -62.89934 
L 181.803157 -63.33912 
L 182.549483 -63.784108 
L 183.29581 -64.234349 
L 184.042137 -64.689888 
L 184.788464 -65.15077 
L 185.534791 -65.617038 
L 186.281117 -66.088739 
L 187.027444 -66.565916 
L 187.773771 -67.048615 
L 188.520098 -67.53688 
L 189.266425 -68.030757 
L 190.012751 -68.53029 
L 190.759078 -69.035524 
L 191.505405 -69.546504 
L 192.251732 -70.063273 
L 192.998059 -70.585875 
L 193.744385 -71.114355 
L 194.490712 -71.648755 
L 195.237039 -72.189118 
L 195.983366 -72.735488 
L 196.729693 -73.287905 
L 197.476019 -73.846411 
L 198.222346 -74.411047 
L 198.968673 -74.981854 
L 199.715 -75.558869 
L 200.461327 -76.142134 
L 201.207653 -76.731684 
L 201.95398 -77.327557 
L 202.700307 -77.92979 
L 203.446634 -78.538417 
L 204.192961 -79.153473 
L 204.939288 -79.774991 
L 205.685614 -80.403002 
L 206.431941 -81.037538 
L 207.178268 -81.678629 
L 207.924595 -82.326302 
L 208.670922 -82.980584 
L 209.417248 -83.641502 
L 210.163575 -84.30908 
L 210.909902 -84.98334 
L 211.656229 -85.664303 
L 212.402556 -86.35199 
L 213.148882 -87.046418 
L 213.895209 -87.747604 
L 214.641536 -88.455562 
L 215.387863 -89.170306 
L 216.13419 -89.891846 
L 216.880516 -90.620191 
L 217.626843 -91.35535 
L 218.37317 -92.097327 
L 219.119497 -92.846126 
L 219.865824 -93.601748 
L 220.61215 -94.364192 
L 221.358477 -95.133456 
L 222.104804 -95.909535 
L 222.851131 -96.692422 
L 223.597458 -97.482107 
L 224.343785 -98.278578 
L 225.090111 -99.081822 
L 225.836438 -99.891822 
L 226.582765 -100.708561 
L 227.329092 -101.532016 
L 228.075419 -102.362164 
L 228.821745 -103.198979 
L 229.568072 -104.042434 
L 230.314399 -104.892496 
L 231.060726 -105.749133 
L 231.807053 -106.612309 
L 232.553379 -107.481985 
L 233.299706 -108.358119 
L 234.046033 -109.240669 
L 234.79236 -110.129587 
L 235.538687 -111.024825 
L 236.285013 -111.92633 
L 237.03134 -112.834048 
L 237.777667 -113.747922 
L 238.523994 -114.667893 
L 239.270321 -115.593897 
L 240.016647 -116.525869 
L 240.762974 -117.463741 
L 241.509301 -118.407442 
L 242.255628 -119.356899 
L 243.001955 -120.312035 
L 243.748281 -121.272772 
L 244.494608 -122.239026 
L 245.240935 -123.210715 
L 245.987262 -124.18775 
L 246.733589 -125.170041 
L 247.479916 -126.157496 
L 248.226242 -127.150019 
L 248.972569 -128.147511 
L 249.718896 -129.149872 
L 250.465223 -130.156999 
L 251.21155 -131.168783 
L 251.957876 -132.185118 
L 252.704203 -133.205891 
L 253.45053 -134.230987 
L 254.196857 -135.26029 
L 254.943184 -136.29368 
L 255.68951 -137.331036 
L 256.435837 -138.372232 
L 257.182164 -139.417142 
L 257.928491 -140.465635 
L 258.674818 -141.51758 
L 259.421144 -142.572842 
L 260.167471 -143.631284 
L 260.913798 -144.692768 
L 261.660125 -145.757151 
L 262.406452 -146.824289 
L 263.152778 -147.894036 
L 263.899105 -148.966245 
L 264.645432 -150.040764 
L 265.391759 -151.11744 
L 266.138086 -152.19612 
L 266.884413 -153.276645 
L 267.630739 -154.358858 
L 268.377066 -155.442597 
L 269.123393 -156.527701 
L 269.86972 -157.614004 
L 270.616047 -158.701339 
L 271.362373 -159.78954 
L 272.1087 -160.878437 
L 272.855027 -161.967858 
L 273.601354 -163.05763 
L 274.347681 -164.147578 
L 275.094007 -165.237528 
L 275.840334 -166.327302 
L 276.586661 -167.416721 
L 277.332988 -168.505606 
L 278.079315 -169.593775 
L 278.825641 -170.681047 
L 279.571968 -171.767239 
L 280.318295 -172.852165 
L 281.064622 -173.935643 
L 281.810949 -175.017484 
L 282.557275 -176.097504 
L 283.303602 -177.175515 
L 284.049929 -178.251328 
L 284.796256 -179.324756 
L 285.542583 -180.39561 
L 286.288909 -181.4637 
L 287.035236 -182.528837 
L 287.781563 -183.590832 
L 288.52789 -184.649494 
L 289.274217 -185.704633 
L 290.020544 -186.75606 
L 290.76687 -187.803586 
L 291.513197 -188.847019 
L 292.259524 -189.886172 
L 293.005851 -190.920855 
L 293.752178 -191.95088 
L 294.498504 -192.976059 
L 295.244831 -193.996205 
L 295.991158 -195.011131 
L 296.737485 -196.020652 
L 297.483812 -197.024583 
L 298.230138 -198.022739 
L 298.976465 -199.014939 
L 299.722792 -200.001 
L 300.469119 -200.980742 
L 301.215446 -201.953986 
L 301.961772 -202.920555 
L 302.708099 -203.880271 
L 303.454426 -204.832961 
L 304.200753 -205.778452 
L 304.94708 -206.716573 
L 305.693406 -207.647153 
L 306.439733 -208.570026 
L 307.18606 -209.485026 
L 307.932387 -210.391989 
L 308.678714 -211.290756 
L 309.425041 -212.181165 
L 310.171367 -213.063062 
L 310.917694 -213.936291 
L 311.664021 -214.8007 
L 312.410348 -215.65614 
L 313.156675 -216.502465 
L 313.903001 -217.339531 
L 314.649328 -218.167195 
L 315.395655 -218.98532 
L 316.141982 -219.793769 
L 316.888309 -220.59241 
L 317.634635 -221.381114 
L 318.380962 -222.159753 
L 319.127289 -222.928204 
L 319.873616 -223.686346 
L 320.619943 -224.434063 
L 321.366269 -225.17124 
L 322.112596 -225.897766 
L 322.858923 -226.613534 
L 323.60525 -227.31844 
L 324.351577 -228.012384 
L 325.097903 -228.695269 
L 325.84423 -229.367001 
L 326.590557 -230.027489 
L 327.336884 -230.676649 
L 328.083211 -231.314396 
L 328.829537 -231.940652 
L 329.575864 -232.55534 
L 330.322191 -233.15839 
L 331.068518 -233.749732 
L 331.814845 -234.329303 
L 332.561172 -234.897041 
L 333.307498 -235.452889 
L 334.053825 -235.996793 
L 334.800152 -236.528705 
L 335.546479 -237.048577 
L 336.292806 -237.556367 
L 337.039132 -238.052037 
L 337.785459 -238.535552 
L 338.531786 -239.00688 
L 339.278113 -239.465994 
L 340.02444 -239.91287 
L 340.770766 -240.347487 
L 341.517093 -240.769828 
L 342.26342 -241.17988 
L 343.009747 -241.577634 
L 343.756074 -241.963083 
L 344.5024 -242.336225 
L 345.248727 -242.697059 
L 345.995054 -243.045591 
L 346.741381 -243.381827 
L 347.487708 -243.705779 
L 348.234034 -244.01746 
L 348.980361 -244.316888 
L 349.726688 -244.604082 
L 350.473015 -244.879067 
L 351.219342 -245.141869 
L 351.965669 -245.392518 
L 352.711995 -245.631045 
L 353.458322 -245.857487 
L 354.204649 -246.071882 
L 354.950976 -246.27427 
L 355.697303 -246.464696 
L 356.443629 -246.643206 
L 357.189956 -246.809848 
L 357.936283 -246.964674 
L 358.68261 -247.107738 
L 359.428937 -247.239096 
L 360.175263 -247.358807 
L 360.92159 -247.466931 
L 361.667917 -247.563531 
L 362.414244 -247.648673 
L 363.160571 -247.722423 
L 363.906897 -247.78485 
L 364.653224 -247.836026 
L 365.399551 -247.876022 
L 366.145878 -247.904914 
L 366.892205 -247.922776 
L 367.638531 -247.929688 
L 368.384858 -247.925727 
L 369.131185 -247.910975 
L 369.877512 -247.885513 
L 370.623839 -247.849425 
L 371.370165 -247.802795 
L 372.116492 -247.745708 
L 372.862819 -247.678253 
L 373.609146 -247.600515 
L 374.355473 -247.512585 
L 375.1018 -247.414551 
L 375.848126 -247.306505 
L 376.594453 -247.188537 
L 377.34078 -247.060739 
L 378.087107 -246.923205 
L 378.833434 -246.776026 
L 379.57976 -246.619297 
L 380.326087 -246.453113 
L 381.072414 -246.277567 
L 381.818741 -246.092756 
L 382.565068 -245.898773 
L 383.311394 -245.695715 
L 384.057721 -245.483678 
L 384.804048 -245.262758 
L 385.550375 -245.033051 
L 386.296702 -244.794653 
L 387.043028 -244.54766 
L 387.789355 -244.29217 
L 388.535682 -244.028278 
L 389.282009 -243.75608 
L 390.028336 -243.475674 
L 390.774662 -243.187154 
L 391.520989 -242.890617 
L 392.267316 -242.586159 
L 393.013643 -242.273875 
L 393.75997 -241.95386 
L 394.506297 -241.626211 
L 395.252623 -241.291021 
L 395.99895 -240.948385 
L 396.745277 -240.598398 
L 397.491604 -240.241154 
L 398.237931 -239.876745 
L 398.984257 -239.505266 
L 399.730584 -239.12681 
L 400.476911 -238.741469 
L 401.223238 -238.349335 
L 401.969565 -237.950501 
L 402.715891 -237.545057 
L 403.462218 -237.133096 
L 404.208545 -236.714707 
L 404.954872 -236.289982 
L 405.701199 -235.85901 
L 406.447525 -235.421882 
L 407.193852 -234.978686 
L 407.940179 -234.529511 
L 408.686506 -234.074446 
L 409.432833 -233.61358 
L 410.179159 -233.147001 
L 410.925486 -232.674795 
L 411.671813 -232.197051 
L 412.41814 -231.713855 
L 413.164467 -231.225295 
L 413.910793 -230.731456 
L 414.65712 -230.232425 
L 415.403447 -229.728288 
L 416.149774 -229.21913 
L 416.896101 -228.705036 
L 417.642428 -228.186093 
L 418.388754 -227.662386 
L 419.135081 -227.133998 
L 419.881408 -226.601014 
L 420.627735 -226.06352 
L 421.374062 -225.5216 
L 422.120388 -224.975337 
L 422.866715 -224.424815 
L 423.613042 -223.87012 
L 424.359369 -223.311334 
L 425.105696 -222.748542 
L 425.852022 -222.181827 
L 426.598349 -221.611272 
L 427.344676 -221.036963 
L 428.091003 -220.458981 
L 428.83733 -219.877411 
L 429.583656 -219.292336 
L 430.329983 -218.70384 
L 431.07631 -218.112006 
L 431.822637 -217.516919 
L 432.568964 -216.91866 
L 433.31529 -216.317315 
L 434.061617 -215.712966 
L 434.807944 -215.105698 
L 435.554271 -214.495594 
L 436.300598 -213.882737 
L 437.046925 -213.267212 
L 437.793251 -212.649103 
L 438.539578 -212.028492 
L 439.285905 -211.405465 
L 440.032232 -210.780104 
L 440.778559 -210.152494 
L 441.524885 -209.52272 
L 442.271212 -208.890863 
L 443.017539 -208.25701 
L 443.763866 -207.621244 
L 444.510193 -206.983648 
L 445.256519 -206.344307 
L 446.002846 -205.703305 
L 446.749173 -205.060725 
L 447.4955 -204.416652 
L 448.241827 -203.771169 
L 448.988153 -203.124359 
L 449.73448 -202.476307 
L 450.480807 -201.827097 
L 451.227134 -201.17681 
L 451.973461 -200.525531 
L 452.719787 -199.873342 
L 453.466114 -199.220326 
L 454.212441 -198.566566 
L 454.958768 -197.912144 
L 455.705095 -197.257142 
L 456.451421 -196.601641 
L 457.197748 -195.945724 
L 457.944075 -195.289471 
L 458.690402 -194.632963 
L 459.436729 -193.976279 
L 460.183056 -193.319501 
L 460.929382 -192.662706 
L 461.675709 -192.005975 
L 462.422036 -191.349384 
L 463.168363 -190.693013 
L 463.91469 -190.036937 
L 464.661016 -189.381234 
L 465.407343 -188.72598 
L 466.15367 -188.071248 
L 466.899997 -187.417115 
L 467.646324 -186.763652 
L 468.39265 -186.110934 
L 469.138977 -185.459032 
L 469.885304 -184.808016 
L 470.631631 -184.157958 
L 471.377958 -183.508927 
L 472.124284 -182.86099 
L 472.870611 -182.214214 
L 473.616938 -181.568667 
L 474.363265 -180.924413 
L 475.109592 -180.281515 
L 475.855918 -179.640037 
L 476.602245 -179.000041 
L 477.348572 -178.361585 
L 478.094899 -177.724731 
L 478.841226 -177.089535 
L 479.587553 -176.456054 
L 480.333879 -175.824343 
L 481.080206 -175.194456 
L 481.826533 -174.566444 
L 482.57286 -173.94036 
L 483.319187 -173.316251 
L 484.065513 -172.694167 
L 484.81184 -172.074154 
L 485.558167 -171.456255 
L 486.304494 -170.840515 
L 487.050821 -170.226975 
L 487.797147 -169.615674 
L 488.543474 -169.006652 
L 489.289801 -168.399945 
L 490.036128 -167.795587 
L 490.782455 -167.193612 
L 491.528781 -166.594052 
L 492.275108 -165.996935 
L 493.021435 -165.40229 
L 493.767762 -164.810144 
L 494.514089 -164.22052 
L 495.260415 -163.633441 
L 496.006742 -163.048928 
L 496.753069 -162.467 
L 497.499396 -161.887673 
L 498.245723 -161.310964 
L 498.992049 -160.736885 
L 499.738376 -160.165448 
L 500.484703 -159.596664 
L 501.23103 -159.030539 
L 501.977357 -158.46708 
L 502.723684 -157.906291 
L 503.47001 -157.348175 
L 504.216337 -156.792733 
L 504.962664 -156.239962 
L 505.708991 -155.68986 
L 506.455318 -155.142423 
L 507.201644 -154.597644 
L 507.947971 -154.055513 
L 508.694298 -153.516023 
L 509.440625 -152.97916 
L 510.186952 -152.444911 
L 510.933278 -151.91326 
L 511.679605 -151.384192 
L 512.425932 -150.857688 
L 513.172259 -150.333727 
L 513.918586 -149.812288 
L 514.664912 -149.293348 
L 515.411239 -148.776882 
L 516.157566 -148.262863 
L 516.903893 -147.751264 
L 517.65022 -147.242056 
L 518.396546 -146.735209 
L 519.142873 -146.23069 
L 519.8892 -145.728465 
L 520.635527 -145.228502 
L 521.381854 -144.730763 
L 522.128181 -144.235213 
L 522.874507 -143.741812 
L 523.620834 -143.250522 
L 524.367161 -142.761302 
L 525.113488 -142.274111 
L 525.859815 -141.788907 
L 526.606141 -141.305646 
L 527.352468 -140.824284 
L 528.098795 -140.344777 
L 528.845122 -139.867078 
L 529.591449 -139.391141 
L 530.337775 -138.916918 
L 531.084102 -138.444362 
L 531.830429 -137.973424 
L 532.576756 -137.504055 
L 533.323083 -137.036205 
L 534.069409 -136.569825 
L 534.815736 -136.104864 
L 535.562063 -135.641271 
L 536.30839 -135.178996 
L 537.054717 -134.717986 
L 537.801043 -134.258191 
L 538.54737 -133.799558 
L 539.293697 -133.342037 
L 540.040024 -132.885574 
L 540.786351 -132.430119 
L 541.532678 -131.97562 
L 542.279004 -131.522024 
L 543.025331 -131.069282 
L 543.771658 -130.61734 
L 544.517985 -130.166149 
L 545.264312 -129.715658 
L 546.010638 -129.265816 
L 546.756965 -128.816573 
L 547.503292 -128.36788 
L 548.249619 -127.919688 
L 548.995946 -127.471949 
L 549.742272 -127.024614 
L 550.488599 -126.577636 
L 551.234926 -126.130969 
L 551.981253 -125.684567 
L 552.72758 -125.238384 
L 553.473906 -124.792376 
L 554.220233 -124.3465 
L 554.96656 -123.900713 
L 555.712887 -123.454973 
L 556.459214 -123.009239 
L 557.20554 -122.563471 
L 557.951867 -122.117631 
L 558.698194 -121.67168 
L 559.444521 -121.225581 
L 560.190848 -120.779299 
L 560.937174 -120.3328 
L 561.683501 -119.886049 
L 562.429828 -119.439014 
L 563.176155 -118.991664 
L 563.922482 -118.543969 
L 564.668809 -118.0959 
L 565.415135 -117.64743 
L 566.161462 -117.198532 
L 566.907789 -116.749182 
L 567.654116 -116.299355 
L 568.400443 -115.84903 
L 569.146769 -115.398185 
L 569.893096 -114.9468 
L 570.639423 -114.494857 
L 571.38575 -114.04234 
L 572.132077 -113.589231 
L 572.878403 -113.135517 
L 573.62473 -112.681186 
L 574.371057 -112.226224 
L 575.117384 -111.770622 
L 575.863711 -111.314371 
L 576.610037 -110.857464 
L 577.356364 -110.399893 
L 578.102691 -109.941655 
L 578.849018 -109.482746 
L 579.595345 -109.023163 
L 580.341671 -108.562906 
L 581.087998 -108.101975 
L 581.834325 -107.640372 
L 582.580652 -107.178101 
L 583.326979 -106.715164 
L 584.073306 -106.251569 
L 584.819632 -105.787322 
L 585.565959 -105.322431 
L 586.312286 -104.856906 
L 587.058613 -104.390757 
L 587.80494 -103.923995 
L 588.551266 -103.456635 
L 589.297593 -102.98869 
L 590.04392 -102.520176 
L 590.790247 -102.051108 
L 591.536574 -101.581504 
L 592.2829 -101.111384 
L 593.029227 -100.640765 
L 593.775554 -100.16967 
L 594.521881 -99.698119 
L 595.268208 -99.226136 
L 596.014534 -98.753743 
L 596.760861 -98.280965 
L 597.507188 -97.807828 
L 598.253515 -97.334358 
L 598.999842 -96.860581 
L 599.746168 -96.386526 
L 600.492495 -95.912222 
L 601.238822 -95.437697 
L 601.985149 -94.962983 
L 602.731476 -94.488109 
L 603.477802 -94.013108 
L 604.224129 -93.538011 
L 604.970456 -93.062852 
L 605.716783 -92.587664 
L 606.46311 -92.112481 
L 607.209437 -91.637338 
L 607.955763 -91.162269 
L 608.70209 -90.68731 
L 609.448417 -90.212498 
L 610.194744 -89.737868 
L 610.941071 -89.263458 
L 611.687397 -88.789305 
L 612.433724 -88.315446 
L 613.180051 -87.84192 
L 613.926378 -87.368765 
L 614.672705 -86.89602 
L 615.419031 -86.423722 
L 616.165358 -85.951913 
L 616.911685 -85.48063 
L 617.658012 -85.009913 
L 618.404339 -84.539803 
L 619.150665 -84.070338 
L 619.896992 -83.60156 
L 620.643319 -83.133508 
L 621.389646 -82.666222 
L 622.135973 -82.199743 
L 622.882299 -81.734111 
L 623.628626 -81.269367 
L 624.374953 -80.805551 
L 625.12128 -80.342704 
L 625.867607 -79.880865 
L 626.613934 -79.420077 
L 627.36026 -78.960378 
L 628.106587 -78.50181 
L 628.852914 -78.044412 
L 629.599241 -77.588226 
L 630.345568 -77.133291 
L 631.091894 -76.679647 
L 631.838221 -76.227335 
L 632.584548 -75.776394 
L 633.330875 -75.326864 
L 634.077202 -74.878785 
L 634.823528 -74.432195 
L 635.569855 -73.987135 
L 636.316182 -73.543644 
L 637.062509 -73.10176 
L 637.808836 -72.661522 
L 638.555162 -72.22297 
L 639.301489 -71.78614 
L 640.047816 -71.351072 
L 640.794143 -70.917804 
L 641.54047 -70.486372 
L 642.286796 -70.056815 
L 643.033123 -69.629171 
L 643.77945 -69.203475 
L 644.525777 -68.779765 
L 645.272104 -68.358077 
L 646.01843 -67.938448 
L 646.764757 -67.520913 
L 647.511084 -67.105508 
L 648.257411 -66.69227 
L 649.003738 -66.281232 
L 649.750065 -65.87243 
L 650.496391 -65.465898 
L 651.242718 -65.06167 
L 651.989045 -64.659781 
L 652.735372 -64.260264 
L 653.481699 -63.863152 
L 654.228025 -63.468478 
L 654.974352 -63.076275 
L 655.720679 -62.686575 
L 656.467006 -62.299409 
L 657.213333 -61.914809 
L 657.959659 -61.532807 
L 658.705986 -61.153432 
L 659.452313 -60.776715 
L 660.19864 -60.402686 
L 660.944967 -60.031374 
L 661.691293 -59.662809 
L 662.43762 -59.297018 
L 663.183947 -58.93403 
L 663.930274 -58.573872 
L 664.676601 -58.216571 
L 665.422927 -57.862155 
L 666.169254 -57.510648 
L 666.915581 -57.162077 
L 667.661908 -56.816467 
L 668.408235 -56.473842 
L 669.154562 -56.134225 
L 669.900888 -55.797641 
L 670.647215 -55.464112 
L 671.393542 -55.13366 
L 672.139869 -54.806306 
L 672.886196 -54.482073 
L 673.632522 -54.160978 
L 674.378849 -53.843043 
L 675.125176 -53.528286 
L 675.871503 -53.216726 
L 676.61783 -52.908379 
L 677.364156 -52.603263 
L 678.110483 -52.301394 
L 678.85681 -52.002786 
L 679.603137 -51.707455 
L 680.349464 -51.415414 
L 681.09579 -51.126676 
L 681.842117 -50.841253 
L 682.588444 -50.559158 
L 683.334771 -50.280399 
L 684.081098 -50.004987 
L 684.827424 -49.732931 
L 685.573751 -49.464239 
L 686.320078 -49.198917 
L 687.066405 -48.936973 
L 687.812732 -48.67841 
L 688.559058 -48.423235 
L 689.305385 -48.17145 
L 690.051712 -47.923058 
L 690.798039 -47.678061 
L 691.544366 -47.436459 
L 692.290693 -47.198252 
L 693.037019 -46.963439 
L 693.783346 -46.732019 
L 694.529673 -46.503987 
L 695.276 -46.279341 
L 696.022327 -46.058075 
L 696.768653 -45.840183 
L 697.51498 -45.625659 
L 698.261307 -45.414495 
L 699.007634 -45.206682 
L 699.753961 -45.00221 
L 700.500287 -44.80107 
L 701.246614 -44.603248 
L 701.992941 -44.408734 
L 702.739268 -44.217512 
L 703.485595 -44.029571 
L 704.231921 -43.844893 
L 704.978248 -43.663463 
L 705.724575 -43.485263 
L 706.470902 -43.310277 
L 707.217229 -43.138485 
L 707.963555 -42.969867 
L 708.709882 -42.804403 
L 709.456209 -42.642072 
L 710.202536 -42.482851 
L 710.948863 -42.326718 
L 711.69519 -42.173649 
L 712.441516 -42.02362 
L 713.187843 -41.876605 
L 713.93417 -41.732577 
L 714.680497 -41.591512 
L 715.426824 -41.453381 
L 716.17315 -41.318156 
L 716.919477 -41.185809 
L 717.665804 -41.056309 
L 718.412131 -40.929629 
L 719.158458 -40.805736 
L 719.904784 -40.6846 
L 720.651111 -40.566189 
L 721.397438 -40.450471 
L 722.143765 -40.337414 
L 722.890092 -40.226984 
L 723.636418 -40.119149 
L 724.382745 -40.013873 
L 725.129072 -39.911124 
L 725.875399 -39.810866 
L 726.621726 -39.713064 
L 727.368052 -39.617684 
L 728.114379 -39.524689 
L 728.860706 -39.434044 
L 729.607033 -39.345712 
L 730.35336 -39.259658 
L 731.099686 -39.175845 
L 731.846013 -39.094237 
L 732.59234 -39.014797 
L 733.338667 -38.937487 
L 734.084994 -38.862272 
L 734.831321 -38.789114 
L 735.577647 -38.717976 
L 736.323974 -38.648822 
L 737.070301 -38.581614 
L 737.816628 -38.516316 
L 738.562955 -38.452891 
L 739.309281 -38.391302 
L 740.055608 -38.331512 
L 740.801935 -38.273485 
L 741.548262 -38.217185 
L 742.294589 -38.162575 
L 743.040915 -38.10962 
L 743.787242 -38.058283 
L 744.533569 -38.00853 
L 745.279896 -37.960325 
L 746.026223 -37.913634 
L 746.772549 -37.86842 
L 747.518876 -37.824651 
L 748.265203 -37.782291 
L 749.01153 -37.741308 
L 749.757857 -37.701668 
L 750.504183 -37.663338 
L 751.25051 -37.626284 
L 751.996837 -37.590476 
L 752.743164 -37.555881 
L 753.489491 -37.522467 
L 754.235818 -37.490204 
L 754.982144 -37.459061 
L 755.728471 -37.429008 
L 756.474798 -37.400015 
L 757.221125 -37.372053 
L 757.967452 -37.345093 
L 758.713778 -37.319107 
L 759.460105 -37.294067 
L 760.206432 -37.269946 
L 760.952759 -37.246717 
L 761.699086 -37.224352 
L 762.445412 -37.202828 
L 763.191739 -37.182117 
L 763.938066 -37.162196 
L 764.684393 -37.143039 
L 765.43072 -37.124624 
L 766.177046 -37.106926 
L 766.923373 -37.089922 
L 767.6697 -37.073591 
L 768.416027 -37.05791 
L 769.162354 -37.042858 
L 769.90868 -37.028414 
L 770.655007 -37.014558 
L 771.401334 -37.001269 
L 772.147661 -36.988529 
L 772.893988 -36.976318 
L 773.640314 -36.964618 
L 774.386641 -36.95341 
L 775.132968 -36.942679 
L 775.879295 -36.932405 
L 776.625622 -36.922573 
L 777.371949 -36.913166 
L 778.118275 -36.90417 
L 778.864602 -36.895568 
L 779.610929 -36.887346 
L 780.357256 -36.879489 
L 781.103583 -36.871984 
L 781.849909 -36.864816 
L 782.596236 -36.857974 
L 783.342563 -36.851443 
L 784.08889 -36.845212 
L 784.835217 -36.839269 
L 785.581543 -36.833602 
L 786.32787 -36.8282 
L 787.074197 -36.823053 
L 787.820524 -36.818149 
L 788.566851 -36.813479 
L 789.313177 -36.809033 
L 790.059504 -36.804801 
L 790.059504 -36.729688 
L 790.059504 -36.729688 
L 789.313177 -36.729688 
L 788.566851 -36.729688 
L 787.820524 -36.729688 
L 787.074197 -36.729688 
L 786.32787 -36.729688 
L 785.581543 -36.729688 
L 784.835217 -36.729688 
L 784.08889 -36.729688 
L 783.342563 -36.729688 
L 782.596236 -36.729688 
L 781.849909 -36.729688 
L 781.103583 -36.729688 
L 780.357256 -36.729688 
L 779.610929 -36.729688 
L 778.864602 -36.729688 
L 778.118275 -36.729688 
L 777.371949 -36.729688 
L 776.625622 -36.729688 
L 775.879295 -36.729688 
L 775.132968 -36.729688 
L 774.386641 -36.729688 
L 773.640314 -36.729688 
L 772.893988 -36.729688 
L 772.147661 -36.729688 
L 771.401334 -36.729688 
L 770.655007 -36.729688 
L 769.90868 -36.729688 
L 769.162354 -36.729688 
L 768.416027 -36.729688 
L 767.6697 -36.729688 
L 766.923373 -36.729688 
L 766.177046 -36.729688 
L 765.43072 -36.729688 
L 764.684393 -36.729688 
L 763.938066 -36.729688 
L 763.191739 -36.729688 
L 762.445412 -36.729688 
L 761.699086 -36.729688 
L 760.952759 -36.729688 
L 760.206432 -36.729688 
L 759.460105 -36.729688 
L 758.713778 -36.729688 
L 757.967452 -36.729688 
L 757.221125 -36.729688 
L 756.474798 -36.729688 
L 755.728471 -36.729688 
L 754.982144 -36.729688 
L 754.235818 -36.729688 
L 753.489491 -36.729688 
L 752.743164 -36.729688 
L 751.996837 -36.729688 
L 751.25051 -36.729688 
L 750.504183 -36.729688 
L 749.757857 -36.729688 
L 749.01153 -36.729688 
L 748.265203 -36.729688 
L 747.518876 -36.729688 
L 746.772549 -36.729688 
L 746.026223 -36.729688 
L 745.279896 -36.729688 
L 744.533569 -36.729688 
L 743.787242 -36.729688 
L 743.040915 -36.729688 
L 742.294589 -36.729688 
L 741.548262 -36.729688 
L 740.801935 -36.729688 
L 740.055608 -36.729688 
L 739.309281 -36.729688 
L 738.562955 -36.729688 
L 737.816628 -36.729688 
L 737.070301 -36.729688 
L 736.323974 -36.729688 
L 735.577647 -36.729688 
L 734.831321 -36.729688 
L 734.084994 -36.729688 
L 733.338667 -36.729688 
L 732.59234 -36.729688 
L 731.846013 -36.729688 
L 731.099686 -36.729688 
L 730.35336 -36.729688 
L 729.607033 -36.729688 
L 728.860706 -36.729688 
L 728.114379 -36.729688 
L 727.368052 -36.729688 
L 726.621726 -36.729688 
L 725.875399 -36.729688 
L 725.129072 -36.729688 
L 724.382745 -36.729688 
L 723.636418 -36.729688 
L 722.890092 -36.729688 
L 722.143765 -36.729688 
L 721.397438 -36.729688 
L 720.651111 -36.729688 
L 719.904784 -36.729688 
L 719.158458 -36.729688 
L 718.412131 -36.729688 
L 717.665804 -36.729688 
L 716.919477 -36.729688 
L 716.17315 -36.729688 
L 715.426824 -36.729688 
L 714.680497 -36.729688 
L 713.93417 -36.729688 
L 713.187843 -36.729688 
L 712.441516 -36.729688 
L 711.69519 -36.729688 
L 710.948863 -36.729688 
L 710.202536 -36.729688 
L 709.456209 -36.729688 
L 708.709882 -36.729688 
L 707.963555 -36.729688 
L 707.217229 -36.729688 
L 706.470902 -36.729688 
L 705.724575 -36.729688 
L 704.978248 -36.729688 
L 704.231921 -36.729688 
L 703.485595 -36.729688 
L 702.739268 -36.729688 
L 701.992941 -36.729688 
L 701.246614 -36.729688 
L 700.500287 -36.729688 
L 699.753961 -36.729688 
L 699.007634 -36.729688 
L 698.261307 -36.729688 
L 697.51498 -36.729688 
L 696.768653 -36.729688 
L 696.022327 -36.729688 
L 695.276 -36.729688 
L 694.529673 -36.729688 
L 693.783346 -36.729688 
L 693.037019 -36.729688 
L 692.290693 -36.729688 
L 691.544366 -36.729688 
L 690.798039 -36.729688 
L 690.051712 -36.729688 
L 689.305385 -36.729688 
L 688.559058 -36.729688 
L 687.812732 -36.729688 
L 687.066405 -36.729688 
L 686.320078 -36.729688 
L 685.573751 -36.729688 
L 684.827424 -36.729688 
L 684.081098 -36.729688 
L 683.334771 -36.729688 
L 682.588444 -36.729688 
L 681.842117 -36.729688 
L 681.09579 -36.729688 
L 680.349464 -36.729688 
L 679.603137 -36.729688 
L 678.85681 -36.729688 
L 678.110483 -36.729688 
L 677.364156 -36.729688 
L 676.61783 -36.729688 
L 675.871503 -36.729688 
L 675.125176 -36.729688 
L 674.378849 -36.729688 
L 673.632522 -36.729688 
L 672.886196 -36.729688 
L 672.139869 -36.729688 
L 671.393542 -36.729688 
L 670.647215 -36.729688 
L 669.900888 -36.729688 
L 669.154562 -36.729688 
L 668.408235 -36.729688 
L 667.661908 -36.729688 
L 666.915581 -36.729688 
L 666.169254 -36.729688 
L 665.422927 -36.729688 
L 664.676601 -36.729688 
L 663.930274 -36.729688 
L 663.183947 -36.729688 
L 662.43762 -36.729688 
L 661.691293 -36.729688 
L 660.944967 -36.729688 
L 660.19864 -36.729688 
L 659.452313 -36.729688 
L 658.705986 -36.729688 
L 657.959659 -36.729688 
L 657.213333 -36.729688 
L 656.467006 -36.729688 
L 655.720679 -36.729688 
L 654.974352 -36.729688 
L 654.228025 -36.729688 
L 653.481699 -36.729688 
L 652.735372 -36.729688 
L 651.989045 -36.729688 
L 651.242718 -36.729688 
L 650.496391 -36.729688 
L 649.750065 -36.729688 
L 649.003738 -36.729688 
L 648.257411 -36.729688 
L 647.511084 -36.729688 
L 646.764757 -36.729688 
L 646.01843 -36.729688 
L 645.272104 -36.729688 
L 644.525777 -36.729688 
L 643.77945 -36.729688 
L 643.033123 -36.729688 
L 642.286796 -36.729688 
L 641.54047 -36.729688 
L 640.794143 -36.729688 
L 640.047816 -36.729688 
L 639.301489 -36.729688 
L 638.555162 -36.729688 
L 637.808836 -36.729688 
L 637.062509 -36.729688 
L 636.316182 -36.729688 
L 635.569855 -36.729688 
L 634.823528 -36.729688 
L 634.077202 -36.729688 
L 633.330875 -36.729688 
L 632.584548 -36.729688 
L 631.838221 -36.729688 
L 631.091894 -36.729688 
L 630.345568 -36.729688 
L 629.599241 -36.729688 
L 628.852914 -36.729688 
L 628.106587 -36.729688 
L 627.36026 -36.729688 
L 626.613934 -36.729688 
L 625.867607 -36.729688 
L 625.12128 -36.729688 
L 624.374953 -36.729688 
L 623.628626 -36.729688 
L 622.882299 -36.729688 
L 622.135973 -36.729688 
L 621.389646 -36.729688 
L 620.643319 -36.729688 
L 619.896992 -36.729688 
L 619.150665 -36.729688 
L 618.404339 -36.729688 
L 617.658012 -36.729688 
L 616.911685 -36.729688 
L 616.165358 -36.729688 
L 615.419031 -36.729688 
L 614.672705 -36.729688 
L 613.926378 -36.729688 
L 613.180051 -36.729688 
L 612.433724 -36.729688 
L 611.687397 -36.729688 
L 610.941071 -36.729688 
L 610.194744 -36.729688 
L 609.448417 -36.729688 
L 608.70209 -36.729688 
L 607.955763 -36.729688 
L 607.209437 -36.729688 
L 606.46311 -36.729688 
L 605.716783 -36.729688 
L 604.970456 -36.729688 
L 604.224129 -36.729688 
L 603.477802 -36.729688 
L 602.731476 -36.729688 
L 601.985149 -36.729688 
L 601.238822 -36.729688 
L 600.492495 -36.729688 
L 599.746168 -36.729688 
L 598.999842 -36.729688 
L 598.253515 -36.729688 
L 597.507188 -36.729688 
L 596.760861 -36.729688 
L 596.014534 -36.729688 
L 595.268208 -36.729688 
L 594.521881 -36.729688 
L 593.775554 -36.729688 
L 593.029227 -36.729688 
L 592.2829 -36.729688 
L 591.536574 -36.729688 
L 590.790247 -36.729688 
L 590.04392 -36.729688 
L 589.297593 -36.729688 
L 588.551266 -36.729688 
L 587.80494 -36.729688 
L 587.058613 -36.729688 
L 586.312286 -36.729688 
L 585.565959 -36.729688 
L 584.819632 -36.729688 
L 584.073306 -36.729688 
L 583.326979 -36.729688 
L 582.580652 -36.729688 
L 581.834325 -36.729688 
L 581.087998 -36.729688 
L 580.341671 -36.729688 
L 579.595345 -36.729688 
L 578.849018 -36.729688 
L 578.102691 -36.729688 
L 577.356364 -36.729688 
L 576.610037 -36.729688 
L 575.863711 -36.729688 
L 575.117384 -36.729688 
L 574.371057 -36.729688 
L 573.62473 -36.729688 
L 572.878403 -36.729688 
L 572.132077 -36.729688 
L 571.38575 -36.729688 
L 570.639423 -36.729688 
L 569.893096 -36.729688 
L 569.146769 -36.729688 
L 568.400443 -36.729688 
L 567.654116 -36.729688 
L 566.907789 -36.729688 
L 566.161462 -36.729688 
L 565.415135 -36.729688 
L 564.668809 -36.729688 
L 563.922482 -36.729688 
L 563.176155 -36.729688 
L 562.429828 -36.729688 
L 561.683501 -36.729688 
L 560.937174 -36.729688 
L 560.190848 -36.729688 
L 559.444521 -36.729688 
L 558.698194 -36.729688 
L 557.951867 -36.729688 
L 557.20554 -36.729688 
L 556.459214 -36.729688 
L 555.712887 -36.729688 
L 554.96656 -36.729688 
L 554.220233 -36.729688 
L 553.473906 -36.729688 
L 552.72758 -36.729688 
L 551.981253 -36.729688 
L 551.234926 -36.729688 
L 550.488599 -36.729688 
L 549.742272 -36.729688 
L 548.995946 -36.729688 
L 548.249619 -36.729688 
L 547.503292 -36.729688 
L 546.756965 -36.729688 
L 546.010638 -36.729688 
L 545.264312 -36.729688 
L 544.517985 -36.729688 
L 543.771658 -36.729688 
L 543.025331 -36.729688 
L 542.279004 -36.729688 
L 541.532678 -36.729688 
L 540.786351 -36.729688 
L 540.040024 -36.729688 
L 539.293697 -36.729688 
L 538.54737 -36.729688 
L 537.801043 -36.729688 
L 537.054717 -36.729688 
L 536.30839 -36.729688 
L 535.562063 -36.729688 
L 534.815736 -36.729688 
L 534.069409 -36.729688 
L 533.323083 -36.729688 
L 532.576756 -36.729688 
L 531.830429 -36.729688 
L 531.084102 -36.729688 
L 530.337775 -36.729688 
L 529.591449 -36.729688 
L 528.845122 -36.729688 
L 528.098795 -36.729688 
L 527.352468 -36.729688 
L 526.606141 -36.729688 
L 525.859815 -36.729688 
L 525.113488 -36.729688 
L 524.367161 -36.729688 
L 523.620834 -36.729688 
L 522.874507 -36.729688 
L 522.128181 -36.729688 
L 521.381854 -36.729688 
L 520.635527 -36.729688 
L 519.8892 -36.729688 
L 519.142873 -36.729688 
L 518.396546 -36.729688 
L 517.65022 -36.729688 
L 516.903893 -36.729688 
L 516.157566 -36.729688 
L 515.411239 -36.729688 
L 514.664912 -36.729688 
L 513.918586 -36.729688 
L 513.172259 -36.729688 
L 512.425932 -36.729688 
L 511.679605 -36.729688 
L 510.933278 -36.729688 
L 510.186952 -36.729688 
L 509.440625 -36.729688 
L 508.694298 -36.729688 
L 507.947971 -36.729688 
L 507.201644 -36.729688 
L 506.455318 -36.729688 
L 505.708991 -36.729688 
L 504.962664 -36.729688 
L 504.216337 -36.729688 
L 503.47001 -36.729688 
L 502.723684 -36.729688 
L 501.977357 -36.729688 
L 501.23103 -36.729688 
L 500.484703 -36.729688 
L 499.738376 -36.729688 
L 498.992049 -36.729688 
L 498.245723 -36.729688 
L 497.499396 -36.729688 
L 496.753069 -36.729688 
L 496.006742 -36.729688 
L 495.260415 -36.729688 
L 494.514089 -36.729688 
L 493.767762 -36.729688 
L 493.021435 -36.729688 
L 492.275108 -36.729688 
L 491.528781 -36.729688 
L 490.782455 -36.729688 
L 490.036128 -36.729688 
L 489.289801 -36.729688 
L 488.543474 -36.729688 
L 487.797147 -36.729688 
L 487.050821 -36.729688 
L 486.304494 -36.729688 
L 485.558167 -36.729688 
L 484.81184 -36.729688 
L 484.065513 -36.729688 
L 483.319187 -36.729688 
L 482.57286 -36.729688 
L 481.826533 -36.729688 
L 481.080206 -36.729688 
L 480.333879 -36.729688 
L 479.587553 -36.729688 
L 478.841226 -36.729688 
L 478.094899 -36.729688 
L 477.348572 -36.729688 
L 476.602245 -36.729688 
L 475.855918 -36.729688 
L 475.109592 -36.729688 
L 474.363265 -36.729688 
L 473.616938 -36.729688 
L 472.870611 -36.729688 
L 472.124284 -36.729688 
L 471.377958 -36.729688 
L 470.631631 -36.729688 
L 469.885304 -36.729688 
L 469.138977 -36.729688 
L 468.39265 -36.729688 
L 467.646324 -36.729688 
L 466.899997 -36.729688 
L 466.15367 -36.729688 
L 465.407343 -36.729688 
L 464.661016 -36.729688 
L 463.91469 -36.729688 
L 463.168363 -36.729688 
L 462.422036 -36.729688 
L 461.675709 -36.729688 
L 460.929382 -36.729688 
L 460.183056 -36.729688 
L 459.436729 -36.729688 
L 458.690402 -36.729688 
L 457.944075 -36.729688 
L 457.197748 -36.729688 
L 456.451421 -36.729688 
L 455.705095 -36.729688 
L 454.958768 -36.729688 
L 454.212441 -36.729688 
L 453.466114 -36.729688 
L 452.719787 -36.729688 
L 451.973461 -36.729688 
L 451.227134 -36.729688 
L 450.480807 -36.729688 
L 449.73448 -36.729688 
L 448.988153 -36.729688 
L 448.241827 -36.729688 
L 447.4955 -36.729688 
L 446.749173 -36.729688 
L 446.002846 -36.729688 
L 445.256519 -36.729688 
L 444.510193 -36.729688 
L 443.763866 -36.729688 
L 443.017539 -36.729688 
L 442.271212 -36.729688 
L 441.524885 -36.729688 
L 440.778559 -36.729688 
L 440.032232 -36.729688 
L 439.285905 -36.729688 
L 438.539578 -36.729688 
L 437.793251 -36.729688 
L 437.046925 -36.729688 
L 436.300598 -36.729688 
L 435.554271 -36.729688 
L 434.807944 -36.729688 
L 434.061617 -36.729688 
L 433.31529 -36.729688 
L 432.568964 -36.729688 
L 431.822637 -36.729688 
L 431.07631 -36.729688 
L 430.329983 -36.729688 
L 429.583656 -36.729688 
L 428.83733 -36.729688 
L 428.091003 -36.729688 
L 427.344676 -36.729688 
L 426.598349 -36.729688 
L 425.852022 -36.729688 
L 425.105696 -36.729688 
L 424.359369 -36.729688 
L 423.613042 -36.729688 
L 422.866715 -36.729688 
L 422.120388 -36.729688 
L 421.374062 -36.729688 
L 420.627735 -36.729688 
L 419.881408 -36.729688 
L 419.135081 -36.729688 
L 418.388754 -36.729688 
L 417.642428 -36.729688 
L 416.896101 -36.729688 
L 416.149774 -36.729688 
L 415.403447 -36.729688 
L 414.65712 -36.729688 
L 413.910793 -36.729688 
L 413.164467 -36.729688 
L 412.41814 -36.729688 
L 411.671813 -36.729688 
L 410.925486 -36.729688 
L 410.179159 -36.729688 
L 409.432833 -36.729688 
L 408.686506 -36.729688 
L 407.940179 -36.729688 
L 407.193852 -36.729688 
L 406.447525 -36.729688 
L 405.701199 -36.729688 
L 404.954872 -36.729688 
L 404.208545 -36.729688 
L 403.462218 -36.729688 
L 402.715891 -36.729688 
L 401.969565 -36.729688 
L 401.223238 -36.729688 
L 400.476911 -36.729688 
L 399.730584 -36.729688 
L 398.984257 -36.729688 
L 398.237931 -36.729688 
L 397.491604 -36.729688 
L 396.745277 -36.729688 
L 395.99895 -36.729688 
L 395.252623 -36.729688 
L 394.506297 -36.729688 
L 393.75997 -36.729688 
L 393.013643 -36.729688 
L 392.267316 -36.729688 
L 391.520989 -36.729688 
L 390.774662 -36.729688 
L 390.028336 -36.729688 
L 389.282009 -36.729688 
L 388.535682 -36.729688 
L 387.789355 -36.729688 
L 387.043028 -36.729688 
L 386.296702 -36.729688 
L 385.550375 -36.729688 
L 384.804048 -36.729688 
L 384.057721 -36.729688 
L 383.311394 -36.729688 
L 382.565068 -36.729688 
L 381.818741 -36.729688 
L 381.072414 -36.729688 
L 380.326087 -36.729688 
L 379.57976 -36.729688 
L 378.833434 -36.729688 
L 378.087107 -36.729688 
L 377.34078 -36.729688 
L 376.594453 -36.729688 
L 375.848126 -36.729688 
L 375.1018 -36.729688 
L 374.355473 -36.729688 
L 373.609146 -36.729688 
L 372.862819 -36.729688 
L 372.116492 -36.729688 
L 371.370165 -36.729688 
L 370.623839 -36.729688 
L 369.877512 -36.729688 
L 369.131185 -36.729688 
L 368.384858 -36.729688 
L 367.638531 -36.729688 
L 366.892205 -36.729688 
L 366.145878 -36.729688 
L 365.399551 -36.729688 
L 364.653224 -36.729688 
L 363.906897 -36.729688 
L 363.160571 -36.729688 
L 362.414244 -36.729688 
L 361.667917 -36.729688 
L 360.92159 -36.729688 
L 360.175263 -36.729688 
L 359.428937 -36.729688 
L 358.68261 -36.729688 
L 357.936283 -36.729688 
L 357.189956 -36.729688 
L 356.443629 -36.729688 
L 355.697303 -36.729688 
L 354.950976 -36.729688 
L 354.204649 -36.729688 
L 353.458322 -36.729688 
L 352.711995 -36.729688 
L 351.965669 -36.729688 
L 351.219342 -36.729688 
L 350.473015 -36.729688 
L 349.726688 -36.729688 
L 348.980361 -36.729688 
L 348.234034 -36.729688 
L 347.487708 -36.729688 
L 346.741381 -36.729688 
L 345.995054 -36.729688 
L 345.248727 -36.729688 
L 344.5024 -36.729688 
L 343.756074 -36.729688 
L 343.009747 -36.729688 
L 342.26342 -36.729688 
L 341.517093 -36.729688 
L 340.770766 -36.729688 
L 340.02444 -36.729688 
L 339.278113 -36.729688 
L 338.531786 -36.729688 
L 337.785459 -36.729688 
L 337.039132 -36.729688 
L 336.292806 -36.729688 
L 335.546479 -36.729688 
L 334.800152 -36.729688 
L 334.053825 -36.729688 
L 333.307498 -36.729688 
L 332.561172 -36.729688 
L 331.814845 -36.729688 
L 331.068518 -36.729688 
L 330.322191 -36.729688 
L 329.575864 -36.729688 
L 328.829537 -36.729688 
L 328.083211 -36.729688 
L 327.336884 -36.729688 
L 326.590557 -36.729688 
L 325.84423 -36.729688 
L 325.097903 -36.729688 
L 324.351577 -36.729688 
L 323.60525 -36.729688 
L 322.858923 -36.729688 
L 322.112596 -36.729688 
L 321.366269 -36.729688 
L 320.619943 -36.729688 
L 319.873616 -36.729688 
L 319.127289 -36.729688 
L 318.380962 -36.729688 
L 317.634635 -36.729688 
L 316.888309 -36.729688 
L 316.141982 -36.729688 
L 315.395655 -36.729688 
L 314.649328 -36.729688 
L 313.903001 -36.729688 
L 313.156675 -36.729688 
L 312.410348 -36.729688 
L 311.664021 -36.729688 
L 310.917694 -36.729688 
L 310.171367 -36.729688 
L 309.425041 -36.729688 
L 308.678714 -36.729688 
L 307.932387 -36.729688 
L 307.18606 -36.729688 
L 306.439733 -36.729688 
L 305.693406 -36.729688 
L 304.94708 -36.729688 
L 304.200753 -36.729688 
L 303.454426 -36.729688 
L 302.708099 -36.729688 
L 301.961772 -36.729688 
L 301.215446 -36.729688 
L 300.469119 -36.729688 
L 299.722792 -36.729688 
L 298.976465 -36.729688 
L 298.230138 -36.729688 
L 297.483812 -36.729688 
L 296.737485 -36.729688 
L 295.991158 -36.729688 
L 295.244831 -36.729688 
L 294.498504 -36.729688 
L 293.752178 -36.729688 
L 293.005851 -36.729688 
L 292.259524 -36.729688 
L 291.513197 -36.729688 
L 290.76687 -36.729688 
L 290.020544 -36.729688 
L 289.274217 -36.729688 
L 288.52789 -36.729688 
L 287.781563 -36.729688 
L 287.035236 -36.729688 
L 286.288909 -36.729688 
L 285.542583 -36.729688 
L 284.796256 -36.729688 
L 284.049929 -36.729688 
L 283.303602 -36.729688 
L 282.557275 -36.729688 
L 281.810949 -36.729688 
L 281.064622 -36.729688 
L 280.318295 -36.729688 
L 279.571968 -36.729688 
L 278.825641 -36.729688 
L 278.079315 -36.729688 
L 277.332988 -36.729688 
L 276.586661 -36.729688 
L 275.840334 -36.729688 
L 275.094007 -36.729688 
L 274.347681 -36.729688 
L 273.601354 -36.729688 
L 272.855027 -36.729688 
L 272.1087 -36.729688 
L 271.362373 -36.729688 
L 270.616047 -36.729688 
L 269.86972 -36.729688 
L 269.123393 -36.729688 
L 268.377066 -36.729688 
L 267.630739 -36.729688 
L 266.884413 -36.729688 
L 266.138086 -36.729688 
L 265.391759 -36.729688 
L 264.645432 -36.729688 
L 263.899105 -36.729688 
L 263.152778 -36.729688 
L 262.406452 -36.729688 
L 261.660125 -36.729688 
L 260.913798 -36.729688 
L 260.167471 -36.729688 
L 259.421144 -36.729688 
L 258.674818 -36.729688 
L 257.928491 -36.729688 
L 257.182164 -36.729688 
L 256.435837 -36.729688 
L 255.68951 -36.729688 
L 254.943184 -36.729688 
L 254.196857 -36.729688 
L 253.45053 -36.729688 
L 252.704203 -36.729688 
L 251.957876 -36.729688 
L 251.21155 -36.729688 
L 250.465223 -36.729688 
L 249.718896 -36.729688 
L 248.972569 -36.729688 
L 248.226242 -36.729688 
L 247.479916 -36.729688 
L 246.733589 -36.729688 
L 245.987262 -36.729688 
L 245.240935 -36.729688 
L 244.494608 -36.729688 
L 243.748281 -36.729688 
L 243.001955 -36.729688 
L 242.255628 -36.729688 
L 241.509301 -36.729688 
L 240.762974 -36.729688 
L 240.016647 -36.729688 
L 239.270321 -36.729688 
L 238.523994 -36.729688 
L 237.777667 -36.729688 
L 237.03134 -36.729688 
L 236.285013 -36.729688 
L 235.538687 -36.729688 
L 234.79236 -36.729688 
L 234.046033 -36.729688 
L 233.299706 -36.729688 
L 232.553379 -36.729688 
L 231.807053 -36.729688 
L 231.060726 -36.729688 
L 230.314399 -36.729688 
L 229.568072 -36.729688 
L 228.821745 -36.729688 
L 228.075419 -36.729688 
L 227.329092 -36.729688 
L 226.582765 -36.729688 
L 225.836438 -36.729688 
L 225.090111 -36.729688 
L 224.343785 -36.729688 
L 223.597458 -36.729688 
L 222.851131 -36.729688 
L 222.104804 -36.729688 
L 221.358477 -36.729688 
L 220.61215 -36.729688 
L 219.865824 -36.729688 
L 219.119497 -36.729688 
L 218.37317 -36.729688 
L 217.626843 -36.729688 
L 216.880516 -36.729688 
L 216.13419 -36.729688 
L 215.387863 -36.729688 
L 214.641536 -36.729688 
L 213.895209 -36.729688 
L 213.148882 -36.729688 
L 212.402556 -36.729688 
L 211.656229 -36.729688 
L 210.909902 -36.729688 
L 210.163575 -36.729688 
L 209.417248 -36.729688 
L 208.670922 -36.729688 
L 207.924595 -36.729688 
L 207.178268 -36.729688 
L 206.431941 -36.729688 
L 205.685614 -36.729688 
L 204.939288 -36.729688 
L 204.192961 -36.729688 
L 203.446634 -36.729688 
L 202.700307 -36.729688 
L 201.95398 -36.729688 
L 201.207653 -36.729688 
L 200.461327 -36.729688 
L 199.715 -36.729688 
L 198.968673 -36.729688 
L 198.222346 -36.729688 
L 197.476019 -36.729688 
L 196.729693 -36.729688 
L 195.983366 -36.729688 
L 195.237039 -36.729688 
L 194.490712 -36.729688 
L 193.744385 -36.729688 
L 192.998059 -36.729688 
L 192.251732 -36.729688 
L 191.505405 -36.729688 
L 190.759078 -36.729688 
L 190.012751 -36.729688 
L 189.266425 -36.729688 
L 188.520098 -36.729688 
L 187.773771 -36.729688 
L 187.027444 -36.729688 
L 186.281117 -36.729688 
L 185.534791 -36.729688 
L 184.788464 -36.729688 
L 184.042137 -36.729688 
L 183.29581 -36.729688 
L 182.549483 -36.729688 
L 181.803157 -36.729688 
L 181.05683 -36.729688 
L 180.310503 -36.729688 
L 179.564176 -36.729688 
L 178.817849 -36.729688 
L 178.071522 -36.729688 
L 177.325196 -36.729688 
L 176.578869 -36.729688 
L 175.832542 -36.729688 
L 175.086215 -36.729688 
L 174.339888 -36.729688 
L 173.593562 -36.729688 
L 172.847235 -36.729688 
L 172.100908 -36.729688 
L 171.354581 -36.729688 
L 170.608254 -36.729688 
L 169.861928 -36.729688 
L 169.115601 -36.729688 
L 168.369274 -36.729688 
L 167.622947 -36.729688 
L 166.87662 -36.729688 
L 166.130294 -36.729688 
L 165.383967 -36.729688 
L 164.63764 -36.729688 
L 163.891313 -36.729688 
L 163.144986 -36.729688 
L 162.39866 -36.729688 
L 161.652333 -36.729688 
L 160.906006 -36.729688 
L 160.159679 -36.729688 
L 159.413352 -36.729688 
L 158.667025 -36.729688 
L 157.920699 -36.729688 
L 157.174372 -36.729688 
L 156.428045 -36.729688 
L 155.681718 -36.729688 
L 154.935391 -36.729688 
L 154.189065 -36.729688 
L 153.442738 -36.729688 
L 152.696411 -36.729688 
L 151.950084 -36.729688 
L 151.203757 -36.729688 
L 150.457431 -36.729688 
L 149.711104 -36.729688 
L 148.964777 -36.729688 
L 148.21845 -36.729688 
L 147.472123 -36.729688 
L 146.725797 -36.729688 
L 145.97947 -36.729688 
L 145.233143 -36.729688 
L 144.486816 -36.729688 
L 143.740489 -36.729688 
L 142.994163 -36.729688 
L 142.247836 -36.729688 
L 141.501509 -36.729688 
L 140.755182 -36.729688 
L 140.008855 -36.729688 
L 139.262529 -36.729688 
L 138.516202 -36.729688 
L 137.769875 -36.729688 
L 137.023548 -36.729688 
L 136.277221 -36.729688 
L 135.530894 -36.729688 
L 134.784568 -36.729688 
L 134.038241 -36.729688 
L 133.291914 -36.729688 
L 132.545587 -36.729688 
L 131.79926 -36.729688 
L 131.052934 -36.729688 
L 130.306607 -36.729688 
L 129.56028 -36.729688 
L 128.813953 -36.729688 
L 128.067626 -36.729688 
L 127.3213 -36.729688 
L 126.574973 -36.729688 
L 125.828646 -36.729688 
L 125.082319 -36.729688 
L 124.335992 -36.729688 
L 123.589666 -36.729688 
L 122.843339 -36.729688 
L 122.097012 -36.729688 
L 121.350685 -36.729688 
L 120.604358 -36.729688 
L 119.858032 -36.729688 
L 119.111705 -36.729688 
L 118.365378 -36.729688 
L 117.619051 -36.729688 
L 116.872724 -36.729688 
L 116.126397 -36.729688 
L 115.380071 -36.729688 
L 114.633744 -36.729688 
L 113.887417 -36.729688 
L 113.14109 -36.729688 
L 112.394763 -36.729688 
L 111.648437 -36.729688 
L 110.90211 -36.729688 
L 110.155783 -36.729688 
L 109.409456 -36.729688 
L 108.663129 -36.729688 
L 107.916803 -36.729688 
L 107.170476 -36.729688 
L 106.424149 -36.729688 
L 105.677822 -36.729688 
L 104.931495 -36.729688 
L 104.185169 -36.729688 
L 103.438842 -36.729688 
L 102.692515 -36.729688 
L 101.946188 -36.729688 
L 101.199861 -36.729688 
L 100.453535 -36.729688 
L 99.707208 -36.729688 
L 98.960881 -36.729688 
L 98.214554 -36.729688 
L 97.468227 -36.729688 
L 96.721901 -36.729688 
L 95.975574 -36.729688 
L 95.229247 -36.729688 
L 94.48292 -36.729688 
L 93.736593 -36.729688 
L 92.990266 -36.729688 
L 92.24394 -36.729688 
L 91.497613 -36.729688 
L 90.751286 -36.729688 
L 90.004959 -36.729688 
L 89.258632 -36.729688 
L 88.512306 -36.729688 
L 87.765979 -36.729688 
L 87.019652 -36.729688 
L 86.273325 -36.729688 
L 85.526998 -36.729688 
L 84.780672 -36.729688 
L 84.034345 -36.729688 
L 83.288018 -36.729688 
L 82.541691 -36.729688 
L 81.795364 -36.729688 
L 81.049038 -36.729688 
L 80.302711 -36.729688 
L 79.556384 -36.729688 
L 78.810057 -36.729688 
L 78.06373 -36.729688 
L 77.317404 -36.729688 
L 76.571077 -36.729688 
L 75.82475 -36.729688 
L 75.078423 -36.729688 
L 74.332096 -36.729688 
L 73.585769 -36.729688 
L 72.839443 -36.729688 
L 72.093116 -36.729688 
L 71.346789 -36.729688 
L 70.600462 -36.729688 
L 69.854135 -36.729688 
L 69.107809 -36.729688 
L 68.361482 -36.729688 
L 67.615155 -36.729688 
L 66.868828 -36.729688 
L 66.122501 -36.729688 
L 65.376175 -36.729688 
L 64.629848 -36.729688 
L 63.883521 -36.729688 
L 63.137194 -36.729688 
L 62.390867 -36.729688 
L 61.644541 -36.729688 
L 60.898214 -36.729688 
L 60.151887 -36.729688 
L 59.40556 -36.729688 
L 58.659233 -36.729688 
L 57.912907 -36.729688 
L 57.16658 -36.729688 
L 56.420253 -36.729688 
L 55.673926 -36.729688 
L 54.927599 -36.729688 
L 54.181273 -36.729688 
L 53.434946 -36.729688 
L 52.688619 -36.729688 
L 51.942292 -36.729688 
L 51.195965 -36.729688 
L 50.449638 -36.729688 
L 49.703312 -36.729688 
L 48.956985 -36.729688 
L 48.210658 -36.729688 
L 47.464331 -36.729688 
L 46.718004 -36.729688 
L 45.971678 -36.729688 
L 45.225351 -36.729688 
L 44.479024 -36.729688 
z
" style="stroke: #4c72b0; stroke-opacity: 0.2"/>
    </defs>
    <g>
     <use xlink:href="#m5b1b571a07" x="0" y="265.689687" style="fill: #4c72b0; fill-opacity: 0.2; stroke: #4c72b0; stroke-opacity: 0.2"/>
    </g>
   </g>
   <g id="FillBetweenPolyCollection_2">
    <defs>
     <path id="m3372900b7b" d="M 44.479024 -36.729688 
L 44.479024 -36.800908 
L 45.225351 -36.804889 
L 45.971678 -36.80907 
L 46.718004 -36.813459 
L 47.464331 -36.818066 
L 48.210658 -36.822899 
L 48.956985 -36.827968 
L 49.703312 -36.833283 
L 50.449638 -36.838854 
L 51.195965 -36.844693 
L 51.942292 -36.850808 
L 52.688619 -36.857213 
L 53.434946 -36.863919 
L 54.181273 -36.870936 
L 54.927599 -36.878279 
L 55.673926 -36.885959 
L 56.420253 -36.893989 
L 57.16658 -36.902383 
L 57.912907 -36.911155 
L 58.659233 -36.920319 
L 59.40556 -36.92989 
L 60.151887 -36.939882 
L 60.898214 -36.950311 
L 61.644541 -36.961193 
L 62.390867 -36.972543 
L 63.137194 -36.984379 
L 63.883521 -36.996718 
L 64.629848 -37.009577 
L 65.376175 -37.022974 
L 66.122501 -37.036927 
L 66.868828 -37.051455 
L 67.615155 -37.066578 
L 68.361482 -37.082314 
L 69.107809 -37.098684 
L 69.854135 -37.115708 
L 70.600462 -37.133407 
L 71.346789 -37.151803 
L 72.093116 -37.170917 
L 72.839443 -37.190771 
L 73.585769 -37.211388 
L 74.332096 -37.232791 
L 75.078423 -37.255004 
L 75.82475 -37.27805 
L 76.571077 -37.301953 
L 77.317404 -37.326738 
L 78.06373 -37.352431 
L 78.810057 -37.379056 
L 79.556384 -37.40664 
L 80.302711 -37.435209 
L 81.049038 -37.464789 
L 81.795364 -37.495407 
L 82.541691 -37.527092 
L 83.288018 -37.55987 
L 84.034345 -37.593769 
L 84.780672 -37.628819 
L 85.526998 -37.665047 
L 86.273325 -37.702483 
L 87.019652 -37.741156 
L 87.765979 -37.781096 
L 88.512306 -37.822333 
L 89.258632 -37.864897 
L 90.004959 -37.908819 
L 90.751286 -37.954129 
L 91.497613 -38.000858 
L 92.24394 -38.049037 
L 92.990266 -38.098699 
L 93.736593 -38.149874 
L 94.48292 -38.202595 
L 95.229247 -38.256893 
L 95.975574 -38.3128 
L 96.721901 -38.370349 
L 97.468227 -38.429573 
L 98.214554 -38.490503 
L 98.960881 -38.553172 
L 99.707208 -38.617614 
L 100.453535 -38.68386 
L 101.199861 -38.751944 
L 101.946188 -38.821899 
L 102.692515 -38.893757 
L 103.438842 -38.967551 
L 104.185169 -39.043315 
L 104.931495 -39.12108 
L 105.677822 -39.20088 
L 106.424149 -39.282748 
L 107.170476 -39.366717 
L 107.916803 -39.452818 
L 108.663129 -39.541084 
L 109.409456 -39.631549 
L 110.155783 -39.724244 
L 110.90211 -39.819201 
L 111.648437 -39.916452 
L 112.394763 -40.01603 
L 113.14109 -40.117965 
L 113.887417 -40.222291 
L 114.633744 -40.329036 
L 115.380071 -40.438234 
L 116.126397 -40.549915 
L 116.872724 -40.664109 
L 117.619051 -40.780848 
L 118.365378 -40.900161 
L 119.111705 -41.022078 
L 119.858032 -41.146629 
L 120.604358 -41.273845 
L 121.350685 -41.403753 
L 122.097012 -41.536384 
L 122.843339 -41.671766 
L 123.589666 -41.809927 
L 124.335992 -41.950896 
L 125.082319 -42.094701 
L 125.828646 -42.24137 
L 126.574973 -42.390931 
L 127.3213 -42.54341 
L 128.067626 -42.698835 
L 128.813953 -42.857233 
L 129.56028 -43.01863 
L 130.306607 -43.183054 
L 131.052934 -43.350529 
L 131.79926 -43.521082 
L 132.545587 -43.694739 
L 133.291914 -43.871526 
L 134.038241 -44.051468 
L 134.784568 -44.23459 
L 135.530894 -44.420918 
L 136.277221 -44.610476 
L 137.023548 -44.80329 
L 137.769875 -44.999384 
L 138.516202 -45.198784 
L 139.262529 -45.401513 
L 140.008855 -45.607597 
L 140.755182 -45.81706 
L 141.501509 -46.029926 
L 142.247836 -46.246221 
L 142.994163 -46.465968 
L 143.740489 -46.689193 
L 144.486816 -46.91592 
L 145.233143 -47.146174 
L 145.97947 -47.37998 
L 146.725797 -47.617362 
L 147.472123 -47.858347 
L 148.21845 -48.102959 
L 148.964777 -48.351223 
L 149.711104 -48.603166 
L 150.457431 -48.858813 
L 151.203757 -49.118191 
L 151.950084 -49.381325 
L 152.696411 -49.648243 
L 153.442738 -49.918972 
L 154.189065 -50.193538 
L 154.935391 -50.47197 
L 155.681718 -50.754296 
L 156.428045 -51.040543 
L 157.174372 -51.33074 
L 157.920699 -51.624918 
L 158.667025 -51.923105 
L 159.413352 -52.225331 
L 160.159679 -52.531626 
L 160.906006 -52.842023 
L 161.652333 -53.156551 
L 162.39866 -53.475244 
L 163.144986 -53.798132 
L 163.891313 -54.12525 
L 164.63764 -54.45663 
L 165.383967 -54.792306 
L 166.130294 -55.132313 
L 166.87662 -55.476686 
L 167.622947 -55.825459 
L 168.369274 -56.17867 
L 169.115601 -56.536353 
L 169.861928 -56.898547 
L 170.608254 -57.265289 
L 171.354581 -57.636617 
L 172.100908 -58.012568 
L 172.847235 -58.393184 
L 173.593562 -58.778502 
L 174.339888 -59.168562 
L 175.086215 -59.563406 
L 175.832542 -59.963074 
L 176.578869 -60.367607 
L 177.325196 -60.777047 
L 178.071522 -61.191436 
L 178.817849 -61.610817 
L 179.564176 -62.035233 
L 180.310503 -62.464726 
L 181.05683 -62.89934 
L 181.803157 -63.33912 
L 182.549483 -63.784108 
L 183.29581 -64.234349 
L 184.042137 -64.689888 
L 184.788464 -65.15077 
L 185.534791 -65.617038 
L 186.281117 -66.088739 
L 187.027444 -66.565916 
L 187.773771 -67.048615 
L 188.520098 -67.53688 
L 189.266425 -68.030757 
L 190.012751 -68.53029 
L 190.759078 -69.035524 
L 191.505405 -69.546504 
L 192.251732 -70.063273 
L 192.998059 -70.585875 
L 193.744385 -71.114355 
L 194.490712 -71.648755 
L 195.237039 -72.189118 
L 195.983366 -72.735488 
L 196.729693 -73.287905 
L 197.476019 -73.846411 
L 198.222346 -74.411047 
L 198.968673 -74.981854 
L 199.715 -75.558869 
L 200.461327 -76.142134 
L 201.207653 -76.731684 
L 201.95398 -77.327557 
L 202.700307 -77.92979 
L 203.446634 -78.538417 
L 204.192961 -79.153473 
L 204.939288 -79.774991 
L 205.685614 -80.403002 
L 206.431941 -81.037538 
L 207.178268 -81.678629 
L 207.924595 -82.326302 
L 208.670922 -82.980584 
L 209.417248 -83.641502 
L 210.163575 -84.30908 
L 210.909902 -84.98334 
L 211.656229 -85.664303 
L 212.402556 -86.35199 
L 213.148882 -87.046418 
L 213.895209 -87.747604 
L 214.641536 -88.455562 
L 215.387863 -89.170306 
L 216.13419 -89.891846 
L 216.880516 -90.620191 
L 217.626843 -91.35535 
L 218.37317 -92.097327 
L 219.119497 -92.846126 
L 219.865824 -93.601748 
L 220.61215 -94.364192 
L 221.358477 -95.133456 
L 222.104804 -95.909535 
L 222.851131 -96.692422 
L 223.597458 -97.482107 
L 224.343785 -98.278578 
L 225.090111 -99.081822 
L 225.836438 -99.891822 
L 226.582765 -100.708561 
L 227.329092 -101.532016 
L 228.075419 -102.362164 
L 228.821745 -103.198979 
L 229.568072 -104.042434 
L 230.314399 -104.892496 
L 231.060726 -105.749133 
L 231.807053 -106.612309 
L 232.553379 -107.481985 
L 233.299706 -108.358119 
L 234.046033 -109.240669 
L 234.79236 -110.129587 
L 235.538687 -111.024825 
L 236.285013 -111.92633 
L 237.03134 -112.834048 
L 237.777667 -113.747922 
L 238.523994 -114.667893 
L 239.270321 -115.593897 
L 240.016647 -116.525869 
L 240.762974 -117.463741 
L 241.509301 -118.407442 
L 242.255628 -119.356899 
L 243.001955 -120.312035 
L 243.748281 -121.272772 
L 244.494608 -122.239026 
L 245.240935 -123.210715 
L 245.987262 -124.18775 
L 246.733589 -125.170041 
L 247.479916 -126.157496 
L 248.226242 -127.150019 
L 248.972569 -128.147511 
L 249.718896 -129.149872 
L 250.465223 -130.156999 
L 251.21155 -131.168783 
L 251.957876 -132.185118 
L 252.704203 -133.205891 
L 253.45053 -134.230987 
L 254.196857 -135.26029 
L 254.943184 -136.29368 
L 255.68951 -137.331036 
L 256.435837 -138.372232 
L 257.182164 -139.417142 
L 257.928491 -140.465635 
L 258.674818 -141.51758 
L 259.421144 -142.572842 
L 260.167471 -143.631284 
L 260.913798 -144.692768 
L 261.660125 -145.757151 
L 262.406452 -146.824289 
L 263.152778 -147.894036 
L 263.899105 -148.966245 
L 264.645432 -150.040764 
L 265.391759 -151.11744 
L 266.138086 -152.19612 
L 266.884413 -153.276645 
L 267.630739 -154.358858 
L 268.377066 -155.442597 
L 269.123393 -156.527701 
L 269.86972 -157.614004 
L 270.616047 -158.701339 
L 271.362373 -159.78954 
L 272.1087 -160.878437 
L 272.855027 -161.967858 
L 273.601354 -163.05763 
L 274.347681 -164.147578 
L 275.094007 -165.237528 
L 275.840334 -166.327302 
L 276.586661 -167.416721 
L 277.332988 -168.505606 
L 278.079315 -169.593775 
L 278.825641 -170.681047 
L 279.571968 -171.767239 
L 280.318295 -172.852165 
L 281.064622 -173.935643 
L 281.810949 -175.017484 
L 282.557275 -176.097504 
L 283.303602 -177.175515 
L 284.049929 -178.251328 
L 284.796256 -179.324756 
L 285.542583 -180.39561 
L 286.288909 -181.4637 
L 287.035236 -182.528837 
L 287.781563 -183.590832 
L 288.52789 -184.649494 
L 289.274217 -185.704633 
L 290.020544 -186.75606 
L 290.76687 -187.803586 
L 291.513197 -188.847019 
L 292.259524 -189.886172 
L 293.005851 -190.920855 
L 293.752178 -191.95088 
L 294.498504 -192.976059 
L 295.244831 -193.996205 
L 295.991158 -195.011131 
L 296.737485 -196.020652 
L 297.483812 -197.024583 
L 298.230138 -198.022739 
L 298.976465 -199.014939 
L 299.722792 -200.001 
L 300.469119 -200.980742 
L 301.215446 -201.953986 
L 301.961772 -202.920555 
L 302.708099 -203.880271 
L 303.454426 -204.832961 
L 304.200753 -205.778452 
L 304.94708 -206.716573 
L 305.693406 -207.647153 
L 306.439733 -208.570026 
L 307.18606 -209.485026 
L 307.932387 -210.391989 
L 308.678714 -211.290756 
L 309.425041 -212.181165 
L 310.171367 -213.063062 
L 310.917694 -213.936291 
L 311.664021 -214.8007 
L 312.410348 -215.65614 
L 313.156675 -216.502465 
L 313.903001 -217.339531 
L 314.649328 -218.167195 
L 315.395655 -218.98532 
L 316.141982 -219.793769 
L 316.888309 -220.59241 
L 317.634635 -221.381114 
L 318.380962 -222.159753 
L 319.127289 -222.928204 
L 319.873616 -223.686346 
L 320.619943 -224.434063 
L 321.366269 -225.17124 
L 322.112596 -225.897766 
L 322.858923 -226.613534 
L 323.60525 -227.31844 
L 324.351577 -228.012384 
L 325.097903 -228.695269 
L 325.84423 -229.367001 
L 326.590557 -230.027489 
L 327.336884 -230.676649 
L 328.083211 -231.314396 
L 328.829537 -231.940652 
L 329.575864 -232.55534 
L 330.322191 -233.15839 
L 331.068518 -233.749732 
L 331.814845 -234.329303 
L 332.561172 -234.897041 
L 333.307498 -235.452889 
L 334.053825 -235.996793 
L 334.800152 -236.528705 
L 335.546479 -237.048577 
L 336.292806 -237.556367 
L 337.039132 -238.052037 
L 337.785459 -238.535552 
L 338.531786 -239.00688 
L 339.278113 -239.465994 
L 340.02444 -239.91287 
L 340.770766 -240.347487 
L 341.517093 -240.769828 
L 342.26342 -241.17988 
L 343.009747 -241.577634 
L 343.756074 -241.963083 
L 344.5024 -242.336225 
L 345.248727 -242.697059 
L 345.995054 -243.045591 
L 346.741381 -243.381827 
L 347.487708 -243.705779 
L 348.234034 -244.01746 
L 348.980361 -244.316888 
L 349.726688 -244.604082 
L 350.473015 -244.879067 
L 351.219342 -245.141869 
L 351.965669 -245.392518 
L 352.711995 -245.631045 
L 353.458322 -245.857487 
L 354.204649 -246.071882 
L 354.950976 -246.27427 
L 355.697303 -246.464696 
L 356.443629 -246.643206 
L 357.189956 -246.809848 
L 357.936283 -246.964674 
L 358.68261 -247.107738 
L 359.428937 -247.239096 
L 360.175263 -247.358807 
L 360.92159 -247.466931 
L 361.667917 -247.563531 
L 362.414244 -247.648673 
L 363.160571 -247.722423 
L 363.906897 -247.78485 
L 364.653224 -247.836026 
L 365.399551 -247.876022 
L 366.145878 -247.904914 
L 366.892205 -247.922776 
L 367.638531 -247.929688 
L 368.384858 -247.925727 
L 369.131185 -247.910975 
L 369.877512 -247.885513 
L 370.623839 -247.849425 
L 371.370165 -247.802795 
L 372.116492 -247.745708 
L 372.862819 -247.678253 
L 373.609146 -247.600515 
L 374.355473 -247.512585 
L 375.1018 -247.414551 
L 375.848126 -247.306505 
L 376.594453 -247.188537 
L 377.34078 -247.060739 
L 378.087107 -246.923205 
L 378.833434 -246.776026 
L 379.57976 -246.619297 
L 380.326087 -246.453113 
L 381.072414 -246.277567 
L 381.818741 -246.092756 
L 382.565068 -245.898773 
L 383.311394 -245.695715 
L 384.057721 -245.483678 
L 384.804048 -245.262758 
L 385.550375 -245.033051 
L 386.296702 -244.794653 
L 387.043028 -244.54766 
L 387.789355 -244.29217 
L 388.535682 -244.028278 
L 389.282009 -243.75608 
L 390.028336 -243.475674 
L 390.774662 -243.187154 
L 391.520989 -242.890617 
L 392.267316 -242.586159 
L 393.013643 -242.273875 
L 393.75997 -241.95386 
L 394.506297 -241.626211 
L 395.252623 -241.291021 
L 395.99895 -240.948385 
L 396.745277 -240.598398 
L 397.491604 -240.241154 
L 398.237931 -239.876745 
L 398.984257 -239.505266 
L 399.730584 -239.12681 
L 400.476911 -238.741469 
L 401.223238 -238.349335 
L 401.969565 -237.950501 
L 402.715891 -237.545057 
L 403.462218 -237.133096 
L 404.208545 -236.714707 
L 404.954872 -236.289982 
L 405.701199 -235.85901 
L 406.447525 -235.421882 
L 407.193852 -234.978686 
L 407.940179 -234.529511 
L 408.686506 -234.074446 
L 409.432833 -233.61358 
L 410.179159 -233.147001 
L 410.925486 -232.674795 
L 411.671813 -232.197051 
L 412.41814 -231.713855 
L 413.164467 -231.225295 
L 413.910793 -230.731456 
L 414.65712 -230.232425 
L 415.403447 -229.728288 
L 416.149774 -229.21913 
L 416.896101 -228.705036 
L 417.642428 -228.186093 
L 418.388754 -227.662386 
L 419.135081 -227.133998 
L 419.881408 -226.601014 
L 420.627735 -226.06352 
L 421.374062 -225.5216 
L 422.120388 -224.975337 
L 422.866715 -224.424815 
L 423.613042 -223.87012 
L 424.359369 -223.311334 
L 425.105696 -222.748542 
L 425.852022 -222.181827 
L 426.598349 -221.611272 
L 427.344676 -221.036963 
L 428.091003 -220.458981 
L 428.83733 -219.877411 
L 429.583656 -219.292336 
L 430.329983 -218.70384 
L 431.07631 -218.112006 
L 431.822637 -217.516919 
L 432.568964 -216.91866 
L 433.31529 -216.317315 
L 434.061617 -215.712966 
L 434.807944 -215.105698 
L 435.554271 -214.495594 
L 436.300598 -213.882737 
L 437.046925 -213.267212 
L 437.793251 -212.649103 
L 438.539578 -212.028492 
L 439.285905 -211.405465 
L 440.032232 -210.780104 
L 440.778559 -210.152494 
L 441.524885 -209.52272 
L 442.271212 -208.890863 
L 443.017539 -208.25701 
L 443.763866 -207.621244 
L 444.510193 -206.983648 
L 445.256519 -206.344307 
L 446.002846 -205.703305 
L 446.749173 -205.060725 
L 447.4955 -204.416652 
L 448.241827 -203.771169 
L 448.988153 -203.124359 
L 449.73448 -202.476307 
L 450.480807 -201.827097 
L 451.227134 -201.17681 
L 451.973461 -200.525531 
L 452.719787 -199.873342 
L 453.466114 -199.220326 
L 454.212441 -198.566566 
L 454.958768 -197.912144 
L 455.705095 -197.257142 
L 456.451421 -196.601641 
L 457.197748 -195.945724 
L 457.944075 -195.289471 
L 458.690402 -194.632963 
L 459.436729 -193.976279 
L 460.183056 -193.319501 
L 460.929382 -192.662706 
L 461.675709 -192.005975 
L 462.422036 -191.349384 
L 463.168363 -190.693013 
L 463.91469 -190.036937 
L 464.661016 -189.381234 
L 465.407343 -188.72598 
L 466.15367 -188.071248 
L 466.899997 -187.417115 
L 467.646324 -186.763652 
L 468.39265 -186.110934 
L 469.138977 -185.459032 
L 469.885304 -184.808016 
L 470.631631 -184.157958 
L 471.377958 -183.508927 
L 472.124284 -182.86099 
L 472.870611 -182.214214 
L 473.616938 -181.568667 
L 474.363265 -180.924413 
L 475.109592 -180.281515 
L 475.855918 -179.640037 
L 476.602245 -179.000041 
L 477.348572 -178.361585 
L 478.094899 -177.724731 
L 478.841226 -177.089535 
L 479.587553 -176.456054 
L 480.333879 -175.824343 
L 481.080206 -175.194456 
L 481.826533 -174.566444 
L 482.57286 -173.94036 
L 483.319187 -173.316251 
L 484.065513 -172.694167 
L 484.81184 -172.074154 
L 485.558167 -171.456255 
L 486.304494 -170.840515 
L 487.050821 -170.226975 
L 487.797147 -169.615674 
L 488.543474 -169.006652 
L 489.289801 -168.399945 
L 490.036128 -167.795587 
L 490.782455 -167.193612 
L 491.528781 -166.594052 
L 492.275108 -165.996935 
L 493.021435 -165.40229 
L 493.767762 -164.810144 
L 494.514089 -164.22052 
L 495.260415 -163.633441 
L 496.006742 -163.048928 
L 496.753069 -162.467 
L 497.499396 -161.887673 
L 498.245723 -161.310964 
L 498.992049 -160.736885 
L 499.738376 -160.165448 
L 500.484703 -159.596664 
L 501.23103 -159.030539 
L 501.977357 -158.46708 
L 502.723684 -157.906291 
L 503.47001 -157.348175 
L 504.216337 -156.792733 
L 504.962664 -156.239962 
L 505.708991 -155.68986 
L 506.455318 -155.142423 
L 507.201644 -154.597644 
L 507.947971 -154.055513 
L 508.694298 -153.516023 
L 509.440625 -152.97916 
L 510.186952 -152.444911 
L 510.933278 -151.91326 
L 511.679605 -151.384192 
L 512.425932 -150.857688 
L 513.172259 -150.333727 
L 513.918586 -149.812288 
L 513.918586 -36.729688 
L 513.918586 -36.729688 
L 513.172259 -36.729688 
L 512.425932 -36.729688 
L 511.679605 -36.729688 
L 510.933278 -36.729688 
L 510.186952 -36.729688 
L 509.440625 -36.729688 
L 508.694298 -36.729688 
L 507.947971 -36.729688 
L 507.201644 -36.729688 
L 506.455318 -36.729688 
L 505.708991 -36.729688 
L 504.962664 -36.729688 
L 504.216337 -36.729688 
L 503.47001 -36.729688 
L 502.723684 -36.729688 
L 501.977357 -36.729688 
L 501.23103 -36.729688 
L 500.484703 -36.729688 
L 499.738376 -36.729688 
L 498.992049 -36.729688 
L 498.245723 -36.729688 
L 497.499396 -36.729688 
L 496.753069 -36.729688 
L 496.006742 -36.729688 
L 495.260415 -36.729688 
L 494.514089 -36.729688 
L 493.767762 -36.729688 
L 493.021435 -36.729688 
L 492.275108 -36.729688 
L 491.528781 -36.729688 
L 490.782455 -36.729688 
L 490.036128 -36.729688 
L 489.289801 -36.729688 
L 488.543474 -36.729688 
L 487.797147 -36.729688 
L 487.050821 -36.729688 
L 486.304494 -36.729688 
L 485.558167 -36.729688 
L 484.81184 -36.729688 
L 484.065513 -36.729688 
L 483.319187 -36.729688 
L 482.57286 -36.729688 
L 481.826533 -36.729688 
L 481.080206 -36.729688 
L 480.333879 -36.729688 
L 479.587553 -36.729688 
L 478.841226 -36.729688 
L 478.094899 -36.729688 
L 477.348572 -36.729688 
L 476.602245 -36.729688 
L 475.855918 -36.729688 
L 475.109592 -36.729688 
L 474.363265 -36.729688 
L 473.616938 -36.729688 
L 472.870611 -36.729688 
L 472.124284 -36.729688 
L 471.377958 -36.729688 
L 470.631631 -36.729688 
L 469.885304 -36.729688 
L 469.138977 -36.729688 
L 468.39265 -36.729688 
L 467.646324 -36.729688 
L 466.899997 -36.729688 
L 466.15367 -36.729688 
L 465.407343 -36.729688 
L 464.661016 -36.729688 
L 463.91469 -36.729688 
L 463.168363 -36.729688 
L 462.422036 -36.729688 
L 461.675709 -36.729688 
L 460.929382 -36.729688 
L 460.183056 -36.729688 
L 459.436729 -36.729688 
L 458.690402 -36.729688 
L 457.944075 -36.729688 
L 457.197748 -36.729688 
L 456.451421 -36.729688 
L 455.705095 -36.729688 
L 454.958768 -36.729688 
L 454.212441 -36.729688 
L 453.466114 -36.729688 
L 452.719787 -36.729688 
L 451.973461 -36.729688 
L 451.227134 -36.729688 
L 450.480807 -36.729688 
L 449.73448 -36.729688 
L 448.988153 -36.729688 
L 448.241827 -36.729688 
L 447.4955 -36.729688 
L 446.749173 -36.729688 
L 446.002846 -36.729688 
L 445.256519 -36.729688 
L 444.510193 -36.729688 
L 443.763866 -36.729688 
L 443.017539 -36.729688 
L 442.271212 -36.729688 
L 441.524885 -36.729688 
L 440.778559 -36.729688 
L 440.032232 -36.729688 
L 439.285905 -36.729688 
L 438.539578 -36.729688 
L 437.793251 -36.729688 
L 437.046925 -36.729688 
L 436.300598 -36.729688 
L 435.554271 -36.729688 
L 434.807944 -36.729688 
L 434.061617 -36.729688 
L 433.31529 -36.729688 
L 432.568964 -36.729688 
L 431.822637 -36.729688 
L 431.07631 -36.729688 
L 430.329983 -36.729688 
L 429.583656 -36.729688 
L 428.83733 -36.729688 
L 428.091003 -36.729688 
L 427.344676 -36.729688 
L 426.598349 -36.729688 
L 425.852022 -36.729688 
L 425.105696 -36.729688 
L 424.359369 -36.729688 
L 423.613042 -36.729688 
L 422.866715 -36.729688 
L 422.120388 -36.729688 
L 421.374062 -36.729688 
L 420.627735 -36.729688 
L 419.881408 -36.729688 
L 419.135081 -36.729688 
L 418.388754 -36.729688 
L 417.642428 -36.729688 
L 416.896101 -36.729688 
L 416.149774 -36.729688 
L 415.403447 -36.729688 
L 414.65712 -36.729688 
L 413.910793 -36.729688 
L 413.164467 -36.729688 
L 412.41814 -36.729688 
L 411.671813 -36.729688 
L 410.925486 -36.729688 
L 410.179159 -36.729688 
L 409.432833 -36.729688 
L 408.686506 -36.729688 
L 407.940179 -36.729688 
L 407.193852 -36.729688 
L 406.447525 -36.729688 
L 405.701199 -36.729688 
L 404.954872 -36.729688 
L 404.208545 -36.729688 
L 403.462218 -36.729688 
L 402.715891 -36.729688 
L 401.969565 -36.729688 
L 401.223238 -36.729688 
L 400.476911 -36.729688 
L 399.730584 -36.729688 
L 398.984257 -36.729688 
L 398.237931 -36.729688 
L 397.491604 -36.729688 
L 396.745277 -36.729688 
L 395.99895 -36.729688 
L 395.252623 -36.729688 
L 394.506297 -36.729688 
L 393.75997 -36.729688 
L 393.013643 -36.729688 
L 392.267316 -36.729688 
L 391.520989 -36.729688 
L 390.774662 -36.729688 
L 390.028336 -36.729688 
L 389.282009 -36.729688 
L 388.535682 -36.729688 
L 387.789355 -36.729688 
L 387.043028 -36.729688 
L 386.296702 -36.729688 
L 385.550375 -36.729688 
L 384.804048 -36.729688 
L 384.057721 -36.729688 
L 383.311394 -36.729688 
L 382.565068 -36.729688 
L 381.818741 -36.729688 
L 381.072414 -36.729688 
L 380.326087 -36.729688 
L 379.57976 -36.729688 
L 378.833434 -36.729688 
L 378.087107 -36.729688 
L 377.34078 -36.729688 
L 376.594453 -36.729688 
L 375.848126 -36.729688 
L 375.1018 -36.729688 
L 374.355473 -36.729688 
L 373.609146 -36.729688 
L 372.862819 -36.729688 
L 372.116492 -36.729688 
L 371.370165 -36.729688 
L 370.623839 -36.729688 
L 369.877512 -36.729688 
L 369.131185 -36.729688 
L 368.384858 -36.729688 
L 367.638531 -36.729688 
L 366.892205 -36.729688 
L 366.145878 -36.729688 
L 365.399551 -36.729688 
L 364.653224 -36.729688 
L 363.906897 -36.729688 
L 363.160571 -36.729688 
L 362.414244 -36.729688 
L 361.667917 -36.729688 
L 360.92159 -36.729688 
L 360.175263 -36.729688 
L 359.428937 -36.729688 
L 358.68261 -36.729688 
L 357.936283 -36.729688 
L 357.189956 -36.729688 
L 356.443629 -36.729688 
L 355.697303 -36.729688 
L 354.950976 -36.729688 
L 354.204649 -36.729688 
L 353.458322 -36.729688 
L 352.711995 -36.729688 
L 351.965669 -36.729688 
L 351.219342 -36.729688 
L 350.473015 -36.729688 
L 349.726688 -36.729688 
L 348.980361 -36.729688 
L 348.234034 -36.729688 
L 347.487708 -36.729688 
L 346.741381 -36.729688 
L 345.995054 -36.729688 
L 345.248727 -36.729688 
L 344.5024 -36.729688 
L 343.756074 -36.729688 
L 343.009747 -36.729688 
L 342.26342 -36.729688 
L 341.517093 -36.729688 
L 340.770766 -36.729688 
L 340.02444 -36.729688 
L 339.278113 -36.729688 
L 338.531786 -36.729688 
L 337.785459 -36.729688 
L 337.039132 -36.729688 
L 336.292806 -36.729688 
L 335.546479 -36.729688 
L 334.800152 -36.729688 
L 334.053825 -36.729688 
L 333.307498 -36.729688 
L 332.561172 -36.729688 
L 331.814845 -36.729688 
L 331.068518 -36.729688 
L 330.322191 -36.729688 
L 329.575864 -36.729688 
L 328.829537 -36.729688 
L 328.083211 -36.729688 
L 327.336884 -36.729688 
L 326.590557 -36.729688 
L 325.84423 -36.729688 
L 325.097903 -36.729688 
L 324.351577 -36.729688 
L 323.60525 -36.729688 
L 322.858923 -36.729688 
L 322.112596 -36.729688 
L 321.366269 -36.729688 
L 320.619943 -36.729688 
L 319.873616 -36.729688 
L 319.127289 -36.729688 
L 318.380962 -36.729688 
L 317.634635 -36.729688 
L 316.888309 -36.729688 
L 316.141982 -36.729688 
L 315.395655 -36.729688 
L 314.649328 -36.729688 
L 313.903001 -36.729688 
L 313.156675 -36.729688 
L 312.410348 -36.729688 
L 311.664021 -36.729688 
L 310.917694 -36.729688 
L 310.171367 -36.729688 
L 309.425041 -36.729688 
L 308.678714 -36.729688 
L 307.932387 -36.729688 
L 307.18606 -36.729688 
L 306.439733 -36.729688 
L 305.693406 -36.729688 
L 304.94708 -36.729688 
L 304.200753 -36.729688 
L 303.454426 -36.729688 
L 302.708099 -36.729688 
L 301.961772 -36.729688 
L 301.215446 -36.729688 
L 300.469119 -36.729688 
L 299.722792 -36.729688 
L 298.976465 -36.729688 
L 298.230138 -36.729688 
L 297.483812 -36.729688 
L 296.737485 -36.729688 
L 295.991158 -36.729688 
L 295.244831 -36.729688 
L 294.498504 -36.729688 
L 293.752178 -36.729688 
L 293.005851 -36.729688 
L 292.259524 -36.729688 
L 291.513197 -36.729688 
L 290.76687 -36.729688 
L 290.020544 -36.729688 
L 289.274217 -36.729688 
L 288.52789 -36.729688 
L 287.781563 -36.729688 
L 287.035236 -36.729688 
L 286.288909 -36.729688 
L 285.542583 -36.729688 
L 284.796256 -36.729688 
L 284.049929 -36.729688 
L 283.303602 -36.729688 
L 282.557275 -36.729688 
L 281.810949 -36.729688 
L 281.064622 -36.729688 
L 280.318295 -36.729688 
L 279.571968 -36.729688 
L 278.825641 -36.729688 
L 278.079315 -36.729688 
L 277.332988 -36.729688 
L 276.586661 -36.729688 
L 275.840334 -36.729688 
L 275.094007 -36.729688 
L 274.347681 -36.729688 
L 273.601354 -36.729688 
L 272.855027 -36.729688 
L 272.1087 -36.729688 
L 271.362373 -36.729688 
L 270.616047 -36.729688 
L 269.86972 -36.729688 
L 269.123393 -36.729688 
L 268.377066 -36.729688 
L 267.630739 -36.729688 
L 266.884413 -36.729688 
L 266.138086 -36.729688 
L 265.391759 -36.729688 
L 264.645432 -36.729688 
L 263.899105 -36.729688 
L 263.152778 -36.729688 
L 262.406452 -36.729688 
L 261.660125 -36.729688 
L 260.913798 -36.729688 
L 260.167471 -36.729688 
L 259.421144 -36.729688 
L 258.674818 -36.729688 
L 257.928491 -36.729688 
L 257.182164 -36.729688 
L 256.435837 -36.729688 
L 255.68951 -36.729688 
L 254.943184 -36.729688 
L 254.196857 -36.729688 
L 253.45053 -36.729688 
L 252.704203 -36.729688 
L 251.957876 -36.729688 
L 251.21155 -36.729688 
L 250.465223 -36.729688 
L 249.718896 -36.729688 
L 248.972569 -36.729688 
L 248.226242 -36.729688 
L 247.479916 -36.729688 
L 246.733589 -36.729688 
L 245.987262 -36.729688 
L 245.240935 -36.729688 
L 244.494608 -36.729688 
L 243.748281 -36.729688 
L 243.001955 -36.729688 
L 242.255628 -36.729688 
L 241.509301 -36.729688 
L 240.762974 -36.729688 
L 240.016647 -36.729688 
L 239.270321 -36.729688 
L 238.523994 -36.729688 
L 237.777667 -36.729688 
L 237.03134 -36.729688 
L 236.285013 -36.729688 
L 235.538687 -36.729688 
L 234.79236 -36.729688 
L 234.046033 -36.729688 
L 233.299706 -36.729688 
L 232.553379 -36.729688 
L 231.807053 -36.729688 
L 231.060726 -36.729688 
L 230.314399 -36.729688 
L 229.568072 -36.729688 
L 228.821745 -36.729688 
L 228.075419 -36.729688 
L 227.329092 -36.729688 
L 226.582765 -36.729688 
L 225.836438 -36.729688 
L 225.090111 -36.729688 
L 224.343785 -36.729688 
L 223.597458 -36.729688 
L 222.851131 -36.729688 
L 222.104804 -36.729688 
L 221.358477 -36.729688 
L 220.61215 -36.729688 
L 219.865824 -36.729688 
L 219.119497 -36.729688 
L 218.37317 -36.729688 
L 217.626843 -36.729688 
L 216.880516 -36.729688 
L 216.13419 -36.729688 
L 215.387863 -36.729688 
L 214.641536 -36.729688 
L 213.895209 -36.729688 
L 213.148882 -36.729688 
L 212.402556 -36.729688 
L 211.656229 -36.729688 
L 210.909902 -36.729688 
L 210.163575 -36.729688 
L 209.417248 -36.729688 
L 208.670922 -36.729688 
L 207.924595 -36.729688 
L 207.178268 -36.729688 
L 206.431941 -36.729688 
L 205.685614 -36.729688 
L 204.939288 -36.729688 
L 204.192961 -36.729688 
L 203.446634 -36.729688 
L 202.700307 -36.729688 
L 201.95398 -36.729688 
L 201.207653 -36.729688 
L 200.461327 -36.729688 
L 199.715 -36.729688 
L 198.968673 -36.729688 
L 198.222346 -36.729688 
L 197.476019 -36.729688 
L 196.729693 -36.729688 
L 195.983366 -36.729688 
L 195.237039 -36.729688 
L 194.490712 -36.729688 
L 193.744385 -36.729688 
L 192.998059 -36.729688 
L 192.251732 -36.729688 
L 191.505405 -36.729688 
L 190.759078 -36.729688 
L 190.012751 -36.729688 
L 189.266425 -36.729688 
L 188.520098 -36.729688 
L 187.773771 -36.729688 
L 187.027444 -36.729688 
L 186.281117 -36.729688 
L 185.534791 -36.729688 
L 184.788464 -36.729688 
L 184.042137 -36.729688 
L 183.29581 -36.729688 
L 182.549483 -36.729688 
L 181.803157 -36.729688 
L 181.05683 -36.729688 
L 180.310503 -36.729688 
L 179.564176 -36.729688 
L 178.817849 -36.729688 
L 178.071522 -36.729688 
L 177.325196 -36.729688 
L 176.578869 -36.729688 
L 175.832542 -36.729688 
L 175.086215 -36.729688 
L 174.339888 -36.729688 
L 173.593562 -36.729688 
L 172.847235 -36.729688 
L 172.100908 -36.729688 
L 171.354581 -36.729688 
L 170.608254 -36.729688 
L 169.861928 -36.729688 
L 169.115601 -36.729688 
L 168.369274 -36.729688 
L 167.622947 -36.729688 
L 166.87662 -36.729688 
L 166.130294 -36.729688 
L 165.383967 -36.729688 
L 164.63764 -36.729688 
L 163.891313 -36.729688 
L 163.144986 -36.729688 
L 162.39866 -36.729688 
L 161.652333 -36.729688 
L 160.906006 -36.729688 
L 160.159679 -36.729688 
L 159.413352 -36.729688 
L 158.667025 -36.729688 
L 157.920699 -36.729688 
L 157.174372 -36.729688 
L 156.428045 -36.729688 
L 155.681718 -36.729688 
L 154.935391 -36.729688 
L 154.189065 -36.729688 
L 153.442738 -36.729688 
L 152.696411 -36.729688 
L 151.950084 -36.729688 
L 151.203757 -36.729688 
L 150.457431 -36.729688 
L 149.711104 -36.729688 
L 148.964777 -36.729688 
L 148.21845 -36.729688 
L 147.472123 -36.729688 
L 146.725797 -36.729688 
L 145.97947 -36.729688 
L 145.233143 -36.729688 
L 144.486816 -36.729688 
L 143.740489 -36.729688 
L 142.994163 -36.729688 
L 142.247836 -36.729688 
L 141.501509 -36.729688 
L 140.755182 -36.729688 
L 140.008855 -36.729688 
L 139.262529 -36.729688 
L 138.516202 -36.729688 
L 137.769875 -36.729688 
L 137.023548 -36.729688 
L 136.277221 -36.729688 
L 135.530894 -36.729688 
L 134.784568 -36.729688 
L 134.038241 -36.729688 
L 133.291914 -36.729688 
L 132.545587 -36.729688 
L 131.79926 -36.729688 
L 131.052934 -36.729688 
L 130.306607 -36.729688 
L 129.56028 -36.729688 
L 128.813953 -36.729688 
L 128.067626 -36.729688 
L 127.3213 -36.729688 
L 126.574973 -36.729688 
L 125.828646 -36.729688 
L 125.082319 -36.729688 
L 124.335992 -36.729688 
L 123.589666 -36.729688 
L 122.843339 -36.729688 
L 122.097012 -36.729688 
L 121.350685 -36.729688 
L 120.604358 -36.729688 
L 119.858032 -36.729688 
L 119.111705 -36.729688 
L 118.365378 -36.729688 
L 117.619051 -36.729688 
L 116.872724 -36.729688 
L 116.126397 -36.729688 
L 115.380071 -36.729688 
L 114.633744 -36.729688 
L 113.887417 -36.729688 
L 113.14109 -36.729688 
L 112.394763 -36.729688 
L 111.648437 -36.729688 
L 110.90211 -36.729688 
L 110.155783 -36.729688 
L 109.409456 -36.729688 
L 108.663129 -36.729688 
L 107.916803 -36.729688 
L 107.170476 -36.729688 
L 106.424149 -36.729688 
L 105.677822 -36.729688 
L 104.931495 -36.729688 
L 104.185169 -36.729688 
L 103.438842 -36.729688 
L 102.692515 -36.729688 
L 101.946188 -36.729688 
L 101.199861 -36.729688 
L 100.453535 -36.729688 
L 99.707208 -36.729688 
L 98.960881 -36.729688 
L 98.214554 -36.729688 
L 97.468227 -36.729688 
L 96.721901 -36.729688 
L 95.975574 -36.729688 
L 95.229247 -36.729688 
L 94.48292 -36.729688 
L 93.736593 -36.729688 
L 92.990266 -36.729688 
L 92.24394 -36.729688 
L 91.497613 -36.729688 
L 90.751286 -36.729688 
L 90.004959 -36.729688 
L 89.258632 -36.729688 
L 88.512306 -36.729688 
L 87.765979 -36.729688 
L 87.019652 -36.729688 
L 86.273325 -36.729688 
L 85.526998 -36.729688 
L 84.780672 -36.729688 
L 84.034345 -36.729688 
L 83.288018 -36.729688 
L 82.541691 -36.729688 
L 81.795364 -36.729688 
L 81.049038 -36.729688 
L 80.302711 -36.729688 
L 79.556384 -36.729688 
L 78.810057 -36.729688 
L 78.06373 -36.729688 
L 77.317404 -36.729688 
L 76.571077 -36.729688 
L 75.82475 -36.729688 
L 75.078423 -36.729688 
L 74.332096 -36.729688 
L 73.585769 -36.729688 
L 72.839443 -36.729688 
L 72.093116 -36.729688 
L 71.346789 -36.729688 
L 70.600462 -36.729688 
L 69.854135 -36.729688 
L 69.107809 -36.729688 
L 68.361482 -36.729688 
L 67.615155 -36.729688 
L 66.868828 -36.729688 
L 66.122501 -36.729688 
L 65.376175 -36.729688 
L 64.629848 -36.729688 
L 63.883521 -36.729688 
L 63.137194 -36.729688 
L 62.390867 -36.729688 
L 61.644541 -36.729688 
L 60.898214 -36.729688 
L 60.151887 -36.729688 
L 59.40556 -36.729688 
L 58.659233 -36.729688 
L 57.912907 -36.729688 
L 57.16658 -36.729688 
L 56.420253 -36.729688 
L 55.673926 -36.729688 
L 54.927599 -36.729688 
L 54.181273 -36.729688 
L 53.434946 -36.729688 
L 52.688619 -36.729688 
L 51.942292 -36.729688 
L 51.195965 -36.729688 
L 50.449638 -36.729688 
L 49.703312 -36.729688 
L 48.956985 -36.729688 
L 48.210658 -36.729688 
L 47.464331 -36.729688 
L 46.718004 -36.729688 
L 45.971678 -36.729688 
L 45.225351 -36.729688 
L 44.479024 -36.729688 
z
" style="stroke: #4c72b0; stroke-opacity: 0.3"/>
    </defs>
    <g>
     <use xlink:href="#m3372900b7b" x="0" y="265.689687" style="fill: #4c72b0; fill-opacity: 0.3; stroke: #4c72b0; stroke-opacity: 0.3"/>
    </g>
   </g>
   <g id="line2d_37">
    <path d="M 44.479024 228.88878 
L 65.376175 228.666714 
L 78.810057 228.310631 
L 89.258632 227.82479 
L 98.214554 227.199185 
L 106.424149 226.406939 
L 113.887417 225.467397 
L 120.604358 224.415843 
L 127.3213 223.146277 
L 134.038241 221.63822 
L 140.008855 220.08209 
L 145.97947 218.309708 
L 151.950084 216.308362 
L 157.920699 214.06477 
L 163.891313 211.564438 
L 169.115601 209.153334 
L 174.339888 206.521125 
L 179.564176 203.654455 
L 184.788464 200.538918 
L 190.012751 197.159397 
L 195.237039 193.500569 
L 200.461327 189.547554 
L 205.685614 185.286685 
L 210.909902 180.706348 
L 216.13419 175.797842 
L 221.358477 170.556231 
L 226.582765 164.981127 
L 231.807053 159.077378 
L 237.03134 152.855639 
L 243.001955 145.377652 
L 248.972569 137.542176 
L 255.68951 128.358652 
L 263.899105 116.723443 
L 276.586661 98.272966 
L 288.52789 81.040194 
L 295.991158 70.678556 
L 301.961772 62.769133 
L 307.18606 56.204662 
L 311.664021 50.888988 
L 316.141982 45.895919 
L 320.619943 41.255625 
L 324.351577 37.677303 
L 328.083211 34.375291 
L 331.814845 31.360384 
L 335.546479 28.641111 
L 339.278113 26.223693 
L 343.009747 24.112053 
L 346.741381 22.30786 
L 349.726688 21.085605 
L 352.711995 20.058642 
L 355.697303 19.224991 
L 358.68261 18.58195 
L 361.667917 18.126156 
L 364.653224 17.853662 
L 368.384858 17.763961 
L 372.116492 17.943979 
L 375.848126 18.383183 
L 379.57976 19.07039 
L 383.311394 19.993972 
L 387.043028 21.142027 
L 390.774662 22.502534 
L 395.252623 24.398667 
L 399.730584 26.562878 
L 404.208545 28.97498 
L 408.686506 31.615241 
L 413.910793 34.958232 
L 419.135081 38.55569 
L 425.105696 42.941146 
L 431.822637 48.172769 
L 439.285905 54.284223 
L 448.241827 61.918519 
L 463.168363 74.996675 
L 477.348572 87.328102 
L 487.050821 95.462713 
L 495.260415 102.056246 
L 502.723684 107.783396 
L 510.186952 113.244777 
L 517.65022 118.447631 
L 525.859815 123.900781 
L 534.815736 129.584823 
L 546.756965 136.873115 
L 583.326979 158.974523 
L 599.746168 169.303161 
L 627.36026 186.72931 
L 637.808836 193.028165 
L 646.764757 198.168775 
L 654.974352 202.613412 
L 662.43762 206.39267 
L 669.154562 209.555462 
L 675.871503 212.472962 
L 682.588444 215.13053 
L 688.559058 217.266452 
L 694.529673 219.1857 
L 700.500287 220.888618 
L 706.470902 222.379411 
L 713.187843 223.813083 
L 719.904784 225.005088 
L 726.621726 225.976623 
L 734.084994 226.827416 
L 742.294589 227.527113 
L 751.25051 228.063403 
L 761.699086 228.465335 
L 775.132968 228.747009 
L 790.059504 228.884887 
L 790.059504 228.884887 
" style="fill: none; stroke: #4c72b0; stroke-width: 1.5; stroke-linecap: round"/>
   </g>
   <g id="line2d_38">
    <path d="M 7.2 228.96 
L 844.2 228.96 
" style="fill: none; stroke: #808080; stroke-width: 0.5; stroke-linecap: round"/>
   </g>
   <g id="legend_1">
    <g id="patch_3">
     <path d="M 683.8 88.081687 
L 741.7375 88.081687 
Q 743.7375 88.081687 743.7375 86.081687 
L 743.7375 58.552 
Q 743.7375 56.552 741.7375 56.552 
L 683.8 56.552 
Q 681.8 56.552 681.8 58.552 
L 681.8 86.081687 
Q 681.8 88.081687 683.8 88.081687 
z
" style="fill: #ffffff; opacity: 0.8; stroke: #cccccc; stroke-linejoin: miter"/>
    </g>
    <g id="text_12">
     <text style="font-size: 10px; font-family: 'Arial', 'DejaVu Sans', 'Liberation Sans', 'Bitstream Vera Sans', sans-serif; text-anchor: start; fill: #262626" x="695.2625" y="67.831687" transform="rotate(-0 695.2625 67.831687)">Country</text>
    </g>
    <g id="line2d_39">
     <path d="M 685.8 78.594187 
L 695.8 78.594187 
L 705.8 78.594187 
" style="fill: none; stroke: #4c72b0; stroke-width: 1.5; stroke-linecap: round"/>
    </g>
    <g id="text_13">
     <text style="font-size: 10px; font-family: 'Arial', 'DejaVu Sans', 'Liberation Sans', 'Bitstream Vera Sans', sans-serif; text-anchor: start; fill: #262626" x="713.8" y="82.094187" transform="rotate(-0 713.8 82.094187)">World</text>
    </g>
   </g>
  </g>
 </g>
</svg>
