<?xml version="1.0" encoding="utf-8" standalone="no"?>
<!DOCTYPE svg PUBLIC "-//W3C//DTD SVG 1.1//EN"
  "http://www.w3.org/Graphics/SVG/1.1/DTD/svg11.dtd">
<svg xmlns:xlink="http://www.w3.org/1999/xlink" width="865.302344pt" height="265.689687pt" viewBox="0 0 865.302344 265.689687" xmlns="http://www.w3.org/2000/svg" version="1.1">
 <metadata>
  <rdf:RDF xmlns:dc="http://purl.org/dc/elements/1.1/" xmlns:cc="http://creativecommons.org/ns#" xmlns:rdf="http://www.w3.org/1999/02/22-rdf-syntax-ns#">
   <cc:Work>
    <dc:type rdf:resource="http://purl.org/dc/dcmitype/StillImage"/>
    <dc:date>2026-05-22T18:50:25.146458</dc:date>
    <dc:format>image/svg+xml</dc:format>
    <dc:creator>
     <cc:Agent>
      <dc:title>Matplotlib v3.10.9, https://matplotlib.org/</dc:title>
     </cc:Agent>
    </dc:creator>
   </cc:Work>
  </rdf:RDF>
 </metadata>
 <defs>
  <style type="text/css">*{stroke-linejoin: round; stroke-linecap: butt}</style>
 </defs>
 <g id="figure_1">
  <g id="patch_1">
   <path d="M 0 265.689687 
L 865.302344 265.689687 
L 865.302344 0 
L 0 0 
z
" style="fill: #ffffff"/>
  </g>
  <g id="axes_1">
   <g id="patch_2">
    <path d="M 7.2 228.96 
L 844.2 228.96 
L 844.2 7.2 
L 7.2 7.2 
z
" style="fill: #ffffff"/>
   </g>
   <g id="matplotlib.axis_1">
    <g id="xtick_1">
     <g id="line2d_1">
      <defs>
       <path id="m2b60f83132" d="M 0 0 
L 0 3.5 
" style="stroke: #262626; stroke-width: 0.8"/>
      </defs>
      <g>
       <use xlink:href="#m2b60f83132" x="143.120097" y="228.96" style="fill: #262626; stroke: #262626; stroke-width: 0.8"/>
      </g>
     </g>
     <g id="text_1">
      <text style="font-size: 10px; font-family: 'Arial', 'DejaVu Sans', 'Liberation Sans', 'Bitstream Vera Sans', sans-serif; text-anchor: middle; fill: #262626" x="143.120097" y="243.117812" transform="rotate(-0 143.120097 243.117812)">$1</text>
     </g>
    </g>
    <g id="xtick_2">
     <g id="line2d_2">
      <g>
       <use xlink:href="#m2b60f83132" x="213.468791" y="228.96" style="fill: #262626; stroke: #262626; stroke-width: 0.8"/>
      </g>
     </g>
     <g id="text_2">
      <text style="font-size: 10px; font-family: 'Arial', 'DejaVu Sans', 'Liberation Sans', 'Bitstream Vera Sans', sans-serif; text-anchor: middle; fill: #262626" x="213.468791" y="243.117812" transform="rotate(-0 213.468791 243.117812)">$2</text>
     </g>
    </g>
    <g id="xtick_3">
     <g id="line2d_3">
      <g>
       <use xlink:href="#m2b60f83132" x="306.464705" y="228.96" style="fill: #262626; stroke: #262626; stroke-width: 0.8"/>
      </g>
     </g>
     <g id="text_3">
      <text style="font-size: 10px; font-family: 'Arial', 'DejaVu Sans', 'Liberation Sans', 'Bitstream Vera Sans', sans-serif; text-anchor: middle; fill: #262626" x="306.464705" y="243.117812" transform="rotate(-0 306.464705 243.117812)">$5</text>
     </g>
    </g>
    <g id="xtick_4">
     <g id="line2d_4">
      <g>
       <use xlink:href="#m2b60f83132" x="376.813398" y="228.96" style="fill: #262626; stroke: #262626; stroke-width: 0.8"/>
      </g>
     </g>
     <g id="text_4">
      <text style="font-size: 10px; font-family: 'Arial', 'DejaVu Sans', 'Liberation Sans', 'Bitstream Vera Sans', sans-serif; text-anchor: middle; fill: #262626" x="376.813398" y="243.117812" transform="rotate(-0 376.813398 243.117812)">$10</text>
     </g>
    </g>
    <g id="xtick_5">
     <g id="line2d_5">
      <g>
       <use xlink:href="#m2b60f83132" x="447.162092" y="228.96" style="fill: #262626; stroke: #262626; stroke-width: 0.8"/>
      </g>
     </g>
     <g id="text_5">
      <text style="font-size: 10px; font-family: 'Arial', 'DejaVu Sans', 'Liberation Sans', 'Bitstream Vera Sans', sans-serif; text-anchor: middle; fill: #262626" x="447.162092" y="243.117812" transform="rotate(-0 447.162092 243.117812)">$20</text>
     </g>
    </g>
    <g id="xtick_6">
     <g id="line2d_6">
      <g>
       <use xlink:href="#m2b60f83132" x="540.158006" y="228.96" style="fill: #262626; stroke: #262626; stroke-width: 0.8"/>
      </g>
     </g>
     <g id="text_6">
      <text style="font-size: 10px; font-family: 'Arial', 'DejaVu Sans', 'Liberation Sans', 'Bitstream Vera Sans', sans-serif; text-anchor: middle; fill: #262626" x="540.158006" y="243.117812" transform="rotate(-0 540.158006 243.117812)">$50</text>
     </g>
    </g>
    <g id="xtick_7">
     <g id="line2d_7">
      <g>
       <use xlink:href="#m2b60f83132" x="610.506699" y="228.96" style="fill: #262626; stroke: #262626; stroke-width: 0.8"/>
      </g>
     </g>
     <g id="text_7">
      <text style="font-size: 10px; font-family: 'Arial', 'DejaVu Sans', 'Liberation Sans', 'Bitstream Vera Sans', sans-serif; text-anchor: middle; fill: #262626" x="610.506699" y="243.117812" transform="rotate(-0 610.506699 243.117812)">$100</text>
     </g>
    </g>
    <g id="xtick_8">
     <g id="line2d_8">
      <g>
       <use xlink:href="#m2b60f83132" x="680.855392" y="228.96" style="fill: #262626; stroke: #262626; stroke-width: 0.8"/>
      </g>
     </g>
     <g id="text_8">
      <text style="font-size: 10px; font-family: 'Arial', 'DejaVu Sans', 'Liberation Sans', 'Bitstream Vera Sans', sans-serif; text-anchor: middle; fill: #262626" x="680.855392" y="243.117812" transform="rotate(-0 680.855392 243.117812)">$200</text>
     </g>
    </g>
    <g id="xtick_9">
     <g id="line2d_9">
      <g>
       <use xlink:href="#m2b60f83132" x="773.851307" y="228.96" style="fill: #262626; stroke: #262626; stroke-width: 0.8"/>
      </g>
     </g>
     <g id="text_9">
      <text style="font-size: 10px; font-family: 'Arial', 'DejaVu Sans', 'Liberation Sans', 'Bitstream Vera Sans', sans-serif; text-anchor: middle; fill: #262626" x="773.851307" y="243.117812" transform="rotate(-0 773.851307 243.117812)">$500</text>
     </g>
    </g>
    <g id="xtick_10">
     <g id="line2d_10">
      <g>
       <use xlink:href="#m2b60f83132" x="844.2" y="228.96" style="fill: #262626; stroke: #262626; stroke-width: 0.8"/>
      </g>
     </g>
     <g id="text_10">
      <text style="font-size: 10px; font-family: 'Arial', 'DejaVu Sans', 'Liberation Sans', 'Bitstream Vera Sans', sans-serif; text-anchor: middle; fill: #262626" x="844.2" y="243.117812" transform="rotate(-0 844.2 243.117812)">$1000</text>
     </g>
    </g>
    <g id="xtick_11">
     <g id="line2d_11">
      <defs>
       <path id="mc664ce8b9c" d="M 0 0 
L 0 2 
" style="stroke: #262626; stroke-width: 0.6"/>
      </defs>
      <g>
       <use xlink:href="#mc664ce8b9c" x="20.926837" y="228.96" style="fill: #262626; stroke: #262626; stroke-width: 0.6"/>
      </g>
     </g>
    </g>
    <g id="xtick_12">
     <g id="line2d_12">
      <g>
       <use xlink:href="#mc664ce8b9c" x="50.124183" y="228.96" style="fill: #262626; stroke: #262626; stroke-width: 0.6"/>
      </g>
     </g>
    </g>
    <g id="xtick_13">
     <g id="line2d_13">
      <g>
       <use xlink:href="#mc664ce8b9c" x="72.771404" y="228.96" style="fill: #262626; stroke: #262626; stroke-width: 0.6"/>
      </g>
     </g>
    </g>
    <g id="xtick_14">
     <g id="line2d_14">
      <g>
       <use xlink:href="#mc664ce8b9c" x="91.275531" y="228.96" style="fill: #262626; stroke: #262626; stroke-width: 0.6"/>
      </g>
     </g>
    </g>
    <g id="xtick_15">
     <g id="line2d_15">
      <g>
       <use xlink:href="#mc664ce8b9c" x="106.920547" y="228.96" style="fill: #262626; stroke: #262626; stroke-width: 0.6"/>
      </g>
     </g>
    </g>
    <g id="xtick_16">
     <g id="line2d_16">
      <g>
       <use xlink:href="#mc664ce8b9c" x="120.472876" y="228.96" style="fill: #262626; stroke: #262626; stroke-width: 0.6"/>
      </g>
     </g>
    </g>
    <g id="xtick_17">
     <g id="line2d_17">
      <g>
       <use xlink:href="#mc664ce8b9c" x="132.426878" y="228.96" style="fill: #262626; stroke: #262626; stroke-width: 0.6"/>
      </g>
     </g>
    </g>
    <g id="xtick_18">
     <g id="line2d_18">
      <g>
       <use xlink:href="#mc664ce8b9c" x="254.620138" y="228.96" style="fill: #262626; stroke: #262626; stroke-width: 0.6"/>
      </g>
     </g>
    </g>
    <g id="xtick_19">
     <g id="line2d_19">
      <g>
       <use xlink:href="#mc664ce8b9c" x="283.817484" y="228.96" style="fill: #262626; stroke: #262626; stroke-width: 0.6"/>
      </g>
     </g>
    </g>
    <g id="xtick_20">
     <g id="line2d_20">
      <g>
       <use xlink:href="#mc664ce8b9c" x="324.968832" y="228.96" style="fill: #262626; stroke: #262626; stroke-width: 0.6"/>
      </g>
     </g>
    </g>
    <g id="xtick_21">
     <g id="line2d_21">
      <g>
       <use xlink:href="#mc664ce8b9c" x="340.613848" y="228.96" style="fill: #262626; stroke: #262626; stroke-width: 0.6"/>
      </g>
     </g>
    </g>
    <g id="xtick_22">
     <g id="line2d_22">
      <g>
       <use xlink:href="#mc664ce8b9c" x="354.166177" y="228.96" style="fill: #262626; stroke: #262626; stroke-width: 0.6"/>
      </g>
     </g>
    </g>
    <g id="xtick_23">
     <g id="line2d_23">
      <g>
       <use xlink:href="#mc664ce8b9c" x="366.120179" y="228.96" style="fill: #262626; stroke: #262626; stroke-width: 0.6"/>
      </g>
     </g>
    </g>
    <g id="xtick_24">
     <g id="line2d_24">
      <g>
       <use xlink:href="#mc664ce8b9c" x="488.313439" y="228.96" style="fill: #262626; stroke: #262626; stroke-width: 0.6"/>
      </g>
     </g>
    </g>
    <g id="xtick_25">
     <g id="line2d_25">
      <g>
       <use xlink:href="#mc664ce8b9c" x="517.510785" y="228.96" style="fill: #262626; stroke: #262626; stroke-width: 0.6"/>
      </g>
     </g>
    </g>
    <g id="xtick_26">
     <g id="line2d_26">
      <g>
       <use xlink:href="#mc664ce8b9c" x="558.662132" y="228.96" style="fill: #262626; stroke: #262626; stroke-width: 0.6"/>
      </g>
     </g>
    </g>
    <g id="xtick_27">
     <g id="line2d_27">
      <g>
       <use xlink:href="#mc664ce8b9c" x="574.307149" y="228.96" style="fill: #262626; stroke: #262626; stroke-width: 0.6"/>
      </g>
     </g>
    </g>
    <g id="xtick_28">
     <g id="line2d_28">
      <g>
       <use xlink:href="#mc664ce8b9c" x="587.859478" y="228.96" style="fill: #262626; stroke: #262626; stroke-width: 0.6"/>
      </g>
     </g>
    </g>
    <g id="xtick_29">
     <g id="line2d_29">
      <g>
       <use xlink:href="#mc664ce8b9c" x="599.81348" y="228.96" style="fill: #262626; stroke: #262626; stroke-width: 0.6"/>
      </g>
     </g>
    </g>
    <g id="xtick_30">
     <g id="line2d_30">
      <g>
       <use xlink:href="#mc664ce8b9c" x="722.00674" y="228.96" style="fill: #262626; stroke: #262626; stroke-width: 0.6"/>
      </g>
     </g>
    </g>
    <g id="xtick_31">
     <g id="line2d_31">
      <g>
       <use xlink:href="#mc664ce8b9c" x="751.204086" y="228.96" style="fill: #262626; stroke: #262626; stroke-width: 0.6"/>
      </g>
     </g>
    </g>
    <g id="xtick_32">
     <g id="line2d_32">
      <g>
       <use xlink:href="#mc664ce8b9c" x="792.355433" y="228.96" style="fill: #262626; stroke: #262626; stroke-width: 0.6"/>
      </g>
     </g>
    </g>
    <g id="xtick_33">
     <g id="line2d_33">
      <g>
       <use xlink:href="#mc664ce8b9c" x="808.00045" y="228.96" style="fill: #262626; stroke: #262626; stroke-width: 0.6"/>
      </g>
     </g>
    </g>
    <g id="xtick_34">
     <g id="line2d_34">
      <g>
       <use xlink:href="#mc664ce8b9c" x="821.552779" y="228.96" style="fill: #262626; stroke: #262626; stroke-width: 0.6"/>
      </g>
     </g>
    </g>
    <g id="xtick_35">
     <g id="line2d_35">
      <g>
       <use xlink:href="#mc664ce8b9c" x="833.506781" y="228.96" style="fill: #262626; stroke: #262626; stroke-width: 0.6"/>
      </g>
     </g>
    </g>
    <g id="text_11">
     <text style="font-size: 10px; font-family: 'Arial', 'DejaVu Sans', 'Liberation Sans', 'Bitstream Vera Sans', sans-serif; text-anchor: middle; fill: #262626" x="425.7" y="256.385" transform="rotate(-0 425.7 256.385)">Income or consumption (day)</text>
    </g>
   </g>
   <g id="matplotlib.axis_2"/>
   <g id="FillBetweenPolyCollection_1">
    <defs>
     <path id="m982ec172c6" d="M 43.139577 -36.729688 
L 43.139577 -36.812183 
L 43.859088 -36.81672 
L 44.578599 -36.821482 
L 45.29811 -36.826479 
L 46.017621 -36.831721 
L 46.737132 -36.837219 
L 47.456643 -36.842983 
L 48.176154 -36.849024 
L 48.895665 -36.855355 
L 49.615176 -36.861986 
L 50.334687 -36.868931 
L 51.054198 -36.876202 
L 51.773709 -36.883813 
L 52.49322 -36.891776 
L 53.212731 -36.900106 
L 53.932243 -36.908818 
L 54.651754 -36.917926 
L 55.371265 -36.927445 
L 56.090776 -36.937392 
L 56.810287 -36.947783 
L 57.529798 -36.958634 
L 58.249309 -36.969962 
L 58.96882 -36.981787 
L 59.688331 -36.994124 
L 60.407842 -37.006994 
L 61.127353 -37.020416 
L 61.846864 -37.034409 
L 62.566375 -37.048993 
L 63.285886 -37.06419 
L 64.005397 -37.080021 
L 64.724908 -37.096506 
L 65.444419 -37.11367 
L 66.16393 -37.131535 
L 66.883441 -37.150124 
L 67.602952 -37.169461 
L 68.322463 -37.189571 
L 69.041974 -37.210479 
L 69.761486 -37.23221 
L 70.480997 -37.254792 
L 71.200508 -37.27825 
L 71.920019 -37.302613 
L 72.63953 -37.327907 
L 73.359041 -37.354162 
L 74.078552 -37.381407 
L 74.798063 -37.40967 
L 75.517574 -37.438983 
L 76.237085 -37.469376 
L 76.956596 -37.50088 
L 77.676107 -37.533528 
L 78.395618 -37.56735 
L 79.115129 -37.602381 
L 79.83464 -37.638653 
L 80.554151 -37.676201 
L 81.273662 -37.715059 
L 81.993173 -37.755262 
L 82.712684 -37.796845 
L 83.432195 -37.839844 
L 84.151706 -37.884296 
L 84.871218 -37.930238 
L 85.590729 -37.977706 
L 86.31024 -38.026738 
L 87.029751 -38.077374 
L 87.749262 -38.129651 
L 88.468773 -38.183608 
L 89.188284 -38.239285 
L 89.907795 -38.296722 
L 90.627306 -38.355958 
L 91.346817 -38.417035 
L 92.066328 -38.479992 
L 92.785839 -38.544871 
L 93.50535 -38.611714 
L 94.224861 -38.680563 
L 94.944372 -38.751458 
L 95.663883 -38.824442 
L 96.383394 -38.899558 
L 97.102905 -38.976848 
L 97.822416 -39.056355 
L 98.541927 -39.138121 
L 99.261438 -39.222191 
L 99.98095 -39.308605 
L 100.700461 -39.397409 
L 101.419972 -39.488644 
L 102.139483 -39.582355 
L 102.858994 -39.678585 
L 103.578505 -39.777376 
L 104.298016 -39.878771 
L 105.017527 -39.982815 
L 105.737038 -40.089549 
L 106.456549 -40.199017 
L 107.17606 -40.311262 
L 107.895571 -40.426326 
L 108.615082 -40.544251 
L 109.334593 -40.665079 
L 110.054104 -40.788852 
L 110.773615 -40.915613 
L 111.493126 -41.045401 
L 112.212637 -41.178259 
L 112.932148 -41.314226 
L 113.651659 -41.453343 
L 114.37117 -41.595651 
L 115.090682 -41.741187 
L 115.810193 -41.889991 
L 116.529704 -42.042102 
L 117.249215 -42.197558 
L 117.968726 -42.356396 
L 118.688237 -42.518653 
L 119.407748 -42.684366 
L 120.127259 -42.85357 
L 120.84677 -43.0263 
L 121.566281 -43.202592 
L 122.285792 -43.382479 
L 123.005303 -43.565995 
L 123.724814 -43.753172 
L 124.444325 -43.944043 
L 125.163836 -44.138638 
L 125.883347 -44.336988 
L 126.602858 -44.539124 
L 127.322369 -44.745074 
L 128.04188 -44.954867 
L 128.761391 -45.16853 
L 129.480902 -45.386091 
L 130.200413 -45.607575 
L 130.919925 -45.833009 
L 131.639436 -46.062416 
L 132.358947 -46.295821 
L 133.078458 -46.533247 
L 133.797969 -46.774716 
L 134.51748 -47.020249 
L 135.236991 -47.269868 
L 135.956502 -47.523592 
L 136.676013 -47.78144 
L 137.395524 -48.043432 
L 138.115035 -48.309584 
L 138.834546 -48.579914 
L 139.554057 -48.854439 
L 140.273568 -49.133172 
L 140.993079 -49.41613 
L 141.71259 -49.703326 
L 142.432101 -49.994773 
L 143.151612 -50.290485 
L 143.871123 -50.590474 
L 144.590634 -50.89475 
L 145.310145 -51.203325 
L 146.029657 -51.516208 
L 146.749168 -51.83341 
L 147.468679 -52.154939 
L 148.18819 -52.480803 
L 148.907701 -52.811012 
L 149.627212 -53.145571 
L 150.346723 -53.484489 
L 151.066234 -53.827771 
L 151.785745 -54.175424 
L 152.505256 -54.527454 
L 153.224767 -54.883865 
L 153.944278 -55.244663 
L 154.663789 -55.609853 
L 155.3833 -55.979438 
L 156.102811 -56.353424 
L 156.822322 -56.731813 
L 157.541833 -57.114611 
L 158.261344 -57.501819 
L 158.980855 -57.893443 
L 159.700366 -58.289485 
L 160.419877 -58.689948 
L 161.139389 -59.094836 
L 161.8589 -59.504152 
L 162.578411 -59.9179 
L 163.297922 -60.336082 
L 164.017433 -60.758702 
L 164.736944 -61.185763 
L 165.456455 -61.61727 
L 166.175966 -62.053226 
L 166.895477 -62.493635 
L 167.614988 -62.938502 
L 168.334499 -63.387831 
L 169.05401 -63.841627 
L 169.773521 -64.299894 
L 170.493032 -64.762639 
L 171.212543 -65.229868 
L 171.932054 -65.701586 
L 172.651565 -66.177801 
L 173.371076 -66.658519 
L 174.090587 -67.143747 
L 174.810098 -67.633495 
L 175.529609 -68.12777 
L 176.249121 -68.626581 
L 176.968632 -69.129938 
L 177.688143 -69.637852 
L 178.407654 -70.150331 
L 179.127165 -70.667389 
L 179.846676 -71.189036 
L 180.566187 -71.715285 
L 181.285698 -72.246149 
L 182.005209 -72.781641 
L 182.72472 -73.321776 
L 183.444231 -73.866567 
L 184.163742 -74.416032 
L 184.883253 -74.970185 
L 185.602764 -75.529042 
L 186.322275 -76.092622 
L 187.041786 -76.660942 
L 187.761297 -77.23402 
L 188.480808 -77.811875 
L 189.200319 -78.394527 
L 189.91983 -78.981996 
L 190.639341 -79.574301 
L 191.358852 -80.171465 
L 192.078364 -80.773509 
L 192.797875 -81.380455 
L 193.517386 -81.992325 
L 194.236897 -82.609143 
L 194.956408 -83.230932 
L 195.675919 -83.857716 
L 196.39543 -84.489518 
L 197.114941 -85.126364 
L 197.834452 -85.768278 
L 198.553963 -86.415286 
L 199.273474 -87.067411 
L 199.992985 -87.724681 
L 200.712496 -88.387121 
L 201.432007 -89.054756 
L 202.151518 -89.727612 
L 202.871029 -90.405716 
L 203.59054 -91.089092 
L 204.310051 -91.777767 
L 205.029562 -92.471767 
L 205.749073 -93.171116 
L 206.468584 -93.87584 
L 207.188096 -94.585965 
L 207.907607 -95.301515 
L 208.627118 -96.022513 
L 209.346629 -96.748985 
L 210.06614 -97.480953 
L 210.785651 -98.218441 
L 211.505162 -98.96147 
L 212.224673 -99.710063 
L 212.944184 -100.464239 
L 213.663695 -101.22402 
L 214.383206 -101.989423 
L 215.102717 -102.760469 
L 215.822228 -103.537173 
L 216.541739 -104.319552 
L 217.26125 -105.107621 
L 217.980761 -105.901394 
L 218.700272 -106.700884 
L 219.419783 -107.506102 
L 220.139294 -108.317058 
L 220.858805 -109.13376 
L 221.578316 -109.956216 
L 222.297828 -110.78443 
L 223.017339 -111.618407 
L 223.73685 -112.458147 
L 224.456361 -113.303652 
L 225.175872 -114.154919 
L 225.895383 -115.011945 
L 226.614894 -115.874724 
L 227.334405 -116.743248 
L 228.053916 -117.617507 
L 228.773427 -118.497488 
L 229.492938 -119.383177 
L 230.212449 -120.274557 
L 230.93196 -121.171609 
L 231.651471 -122.074311 
L 232.370982 -122.982637 
L 233.090493 -123.896562 
L 233.810004 -124.816055 
L 234.529515 -125.741084 
L 235.249026 -126.671613 
L 235.968537 -127.607604 
L 236.688048 -128.549016 
L 237.40756 -129.495804 
L 238.127071 -130.447922 
L 238.846582 -131.405319 
L 239.566093 -132.367941 
L 240.285604 -133.335731 
L 241.005115 -134.30863 
L 241.724626 -135.286575 
L 242.444137 -136.269498 
L 243.163648 -137.25733 
L 243.883159 -138.249997 
L 244.60267 -139.247422 
L 245.322181 -140.249525 
L 246.041692 -141.256221 
L 246.761203 -142.267424 
L 247.480714 -143.283042 
L 248.200225 -144.30298 
L 248.919736 -145.32714 
L 249.639247 -146.355419 
L 250.358758 -147.387713 
L 251.078269 -148.423911 
L 251.79778 -149.4639 
L 252.517291 -150.507563 
L 253.236803 -151.554781 
L 253.956314 -152.605427 
L 254.675825 -153.659375 
L 255.395336 -154.716493 
L 256.114847 -155.776644 
L 256.834358 -156.839691 
L 257.553869 -157.905489 
L 258.27338 -158.973893 
L 258.992891 -160.044752 
L 259.712402 -161.117912 
L 260.431913 -162.193216 
L 261.151424 -163.270504 
L 261.870935 -164.34961 
L 262.590446 -165.430366 
L 263.309957 -166.512602 
L 264.029468 -167.596142 
L 264.748979 -168.680808 
L 265.46849 -169.766419 
L 266.188001 -170.852791 
L 266.907512 -171.939734 
L 267.627023 -173.02706 
L 268.346535 -174.114573 
L 269.066046 -175.202076 
L 269.785557 -176.28937 
L 270.505068 -177.376253 
L 271.224579 -178.462519 
L 271.94409 -179.547959 
L 272.663601 -180.632365 
L 273.383112 -181.715521 
L 274.102623 -182.797215 
L 274.822134 -183.877227 
L 275.541645 -184.955338 
L 276.261156 -186.031327 
L 276.980667 -187.104969 
L 277.700178 -188.17604 
L 278.419689 -189.244312 
L 279.1392 -190.309556 
L 279.858711 -191.371542 
L 280.578222 -192.430039 
L 281.297733 -193.484814 
L 282.017244 -194.535633 
L 282.736755 -195.582261 
L 283.456267 -196.624462 
L 284.175778 -197.662001 
L 284.895289 -198.694639 
L 285.6148 -199.722141 
L 286.334311 -200.744269 
L 287.053822 -201.760784 
L 287.773333 -202.77145 
L 288.492844 -203.776028 
L 289.212355 -204.774282 
L 289.931866 -205.765975 
L 290.651377 -206.75087 
L 291.370888 -207.728733 
L 292.090399 -208.699328 
L 292.80991 -209.662424 
L 293.529421 -210.617786 
L 294.248932 -211.565185 
L 294.968443 -212.504392 
L 295.687954 -213.435178 
L 296.407465 -214.357317 
L 297.126976 -215.270586 
L 297.846487 -216.174763 
L 298.565999 -217.069629 
L 299.28551 -217.954966 
L 300.005021 -218.830559 
L 300.724532 -219.696197 
L 301.444043 -220.55167 
L 302.163554 -221.396773 
L 302.883065 -222.231302 
L 303.602576 -223.055058 
L 304.322087 -223.867844 
L 305.041598 -224.669467 
L 305.761109 -225.459739 
L 306.48062 -226.238473 
L 307.200131 -227.005487 
L 307.919642 -227.760605 
L 308.639153 -228.503653 
L 309.358664 -229.234462 
L 310.078175 -229.952867 
L 310.797686 -230.658707 
L 311.517197 -231.351827 
L 312.236708 -232.032076 
L 312.956219 -232.699306 
L 313.67573 -233.353378 
L 314.395242 -233.994154 
L 315.114753 -234.621503 
L 315.834264 -235.235299 
L 316.553775 -235.83542 
L 317.273286 -236.42175 
L 317.992797 -236.99418 
L 318.712308 -237.552604 
L 319.431819 -238.096922 
L 320.15133 -238.62704 
L 320.870841 -239.142871 
L 321.590352 -239.64433 
L 322.309863 -240.131341 
L 323.029374 -240.603832 
L 323.748885 -241.061737 
L 324.468396 -241.504997 
L 325.187907 -241.933557 
L 325.907418 -242.347369 
L 326.626929 -242.746389 
L 327.34644 -243.130581 
L 328.065951 -243.499915 
L 328.785462 -243.854364 
L 329.504974 -244.19391 
L 330.224485 -244.518538 
L 330.943996 -244.828242 
L 331.663507 -245.123018 
L 332.383018 -245.40287 
L 333.102529 -245.667808 
L 333.82204 -245.917846 
L 334.541551 -246.153006 
L 335.261062 -246.373313 
L 335.980573 -246.578799 
L 336.700084 -246.7695 
L 337.419595 -246.94546 
L 338.139106 -247.106727 
L 338.858617 -247.253353 
L 339.578128 -247.385397 
L 340.297639 -247.502922 
L 341.01715 -247.605996 
L 341.736661 -247.694694 
L 342.456172 -247.769094 
L 343.175683 -247.829278 
L 343.895194 -247.875335 
L 344.614706 -247.907357 
L 345.334217 -247.92544 
L 346.053728 -247.929688 
L 346.773239 -247.920204 
L 347.49275 -247.897099 
L 348.212261 -247.860487 
L 348.931772 -247.810486 
L 349.651283 -247.747217 
L 350.370794 -247.670807 
L 351.090305 -247.581384 
L 351.809816 -247.479081 
L 352.529327 -247.364034 
L 353.248838 -247.236383 
L 353.968349 -247.09627 
L 354.68786 -246.94384 
L 355.407371 -246.779242 
L 356.126882 -246.602627 
L 356.846393 -246.414149 
L 357.565904 -246.213964 
L 358.285415 -246.002231 
L 359.004926 -245.779111 
L 359.724438 -245.544766 
L 360.443949 -245.299363 
L 361.16346 -245.043067 
L 361.882971 -244.776048 
L 362.602482 -244.498476 
L 363.321993 -244.210523 
L 364.041504 -243.912361 
L 364.761015 -243.604165 
L 365.480526 -243.286111 
L 366.200037 -242.958374 
L 366.919548 -242.621133 
L 367.639059 -242.274566 
L 368.35857 -241.91885 
L 369.078081 -241.554165 
L 369.797592 -241.18069 
L 370.517103 -240.798607 
L 371.236614 -240.408093 
L 371.956125 -240.00933 
L 372.675636 -239.602496 
L 373.395147 -239.187773 
L 374.114658 -238.765339 
L 374.834169 -238.335374 
L 375.553681 -237.898056 
L 376.273192 -237.453562 
L 376.992703 -237.002072 
L 377.712214 -236.54376 
L 378.431725 -236.078802 
L 379.151236 -235.607374 
L 379.870747 -235.129649 
L 380.590258 -234.6458 
L 381.309769 -234.155998 
L 382.02928 -233.660413 
L 382.748791 -233.159214 
L 383.468302 -232.652568 
L 384.187813 -232.140641 
L 384.907324 -231.623598 
L 385.626835 -231.1016 
L 386.346346 -230.57481 
L 387.065857 -230.043386 
L 387.785368 -229.507486 
L 388.504879 -228.967266 
L 389.22439 -228.422878 
L 389.943901 -227.874476 
L 390.663413 -227.322208 
L 391.382924 -226.766223 
L 392.102435 -226.206667 
L 392.821946 -225.643683 
L 393.541457 -225.077412 
L 394.260968 -224.507994 
L 394.980479 -223.935567 
L 395.69999 -223.360265 
L 396.419501 -222.782221 
L 397.139012 -222.201566 
L 397.858523 -221.618429 
L 398.578034 -221.032934 
L 399.297545 -220.445206 
L 400.017056 -219.855367 
L 400.736567 -219.263536 
L 401.456078 -218.669829 
L 402.175589 -218.074362 
L 402.8951 -217.477246 
L 403.614611 -216.878593 
L 404.334122 -216.278508 
L 405.053633 -215.677099 
L 405.773145 -215.074468 
L 406.492656 -214.470717 
L 407.212167 -213.865943 
L 407.931678 -213.260244 
L 408.651189 -212.653714 
L 409.3707 -212.046445 
L 410.090211 -211.438527 
L 410.809722 -210.830047 
L 411.529233 -210.221091 
L 412.248744 -209.611744 
L 412.968255 -209.002085 
L 413.687766 -208.392195 
L 414.407277 -207.782151 
L 415.126788 -207.172028 
L 415.846299 -206.561899 
L 416.56581 -205.951836 
L 417.285321 -205.341909 
L 418.004832 -204.732184 
L 418.724343 -204.122727 
L 419.443854 -203.513604 
L 420.163365 -202.904874 
L 420.882877 -202.296599 
L 421.602388 -201.688838 
L 422.321899 -201.081646 
L 423.04141 -200.47508 
L 423.760921 -199.869193 
L 424.480432 -199.264036 
L 425.199943 -198.659661 
L 425.919454 -198.056116 
L 426.638965 -197.453448 
L 427.358476 -196.851704 
L 428.077987 -196.250927 
L 428.797498 -195.651162 
L 429.517009 -195.052449 
L 430.23652 -194.454829 
L 430.956031 -193.858342 
L 431.675542 -193.263025 
L 432.395053 -192.668914 
L 433.114564 -192.076046 
L 433.834075 -191.484454 
L 434.553586 -190.894171 
L 435.273097 -190.305231 
L 435.992608 -189.717662 
L 436.71212 -189.131496 
L 437.431631 -188.546762 
L 438.151142 -187.963486 
L 438.870653 -187.381697 
L 439.590164 -186.80142 
L 440.309675 -186.22268 
L 441.029186 -185.645502 
L 441.748697 -185.069909 
L 442.468208 -184.495923 
L 443.187719 -183.923566 
L 443.90723 -183.352859 
L 444.626741 -182.783822 
L 445.346252 -182.216474 
L 446.065763 -181.650835 
L 446.785274 -181.086922 
L 447.504785 -180.524752 
L 448.224296 -179.964342 
L 448.943807 -179.405708 
L 449.663318 -178.848864 
L 450.382829 -178.293827 
L 451.10234 -177.740609 
L 451.821852 -177.189225 
L 452.541363 -176.639687 
L 453.260874 -176.092006 
L 453.980385 -175.546196 
L 454.699896 -175.002266 
L 455.419407 -174.460229 
L 456.138918 -173.920092 
L 456.858429 -173.381867 
L 457.57794 -172.845562 
L 458.297451 -172.311185 
L 459.016962 -171.778744 
L 459.736473 -171.248247 
L 460.455984 -170.719701 
L 461.175495 -170.193112 
L 461.895006 -169.668485 
L 462.614517 -169.145827 
L 463.334028 -168.625142 
L 464.053539 -168.106434 
L 464.77305 -167.589708 
L 465.492561 -167.074966 
L 466.212072 -166.562212 
L 466.931584 -166.051449 
L 467.651095 -165.542677 
L 468.370606 -165.035898 
L 469.090117 -164.531114 
L 469.809628 -164.028325 
L 470.529139 -163.52753 
L 471.24865 -163.02873 
L 471.968161 -162.531922 
L 472.687672 -162.037105 
L 473.407183 -161.544278 
L 474.126694 -161.053437 
L 474.846205 -160.564579 
L 475.565716 -160.077701 
L 476.285227 -159.592799 
L 477.004738 -159.109867 
L 477.724249 -158.6289 
L 478.44376 -158.149893 
L 479.163271 -157.672838 
L 479.882782 -157.19773 
L 480.602293 -156.72456 
L 481.321804 -156.253321 
L 482.041316 -155.784004 
L 482.760827 -155.3166 
L 483.480338 -154.851098 
L 484.199849 -154.38749 
L 484.91936 -153.925763 
L 485.638871 -153.465907 
L 486.358382 -153.007909 
L 487.077893 -152.551757 
L 487.797404 -152.097438 
L 488.516915 -151.644937 
L 489.236426 -151.194241 
L 489.955937 -150.745335 
L 490.675448 -150.298203 
L 491.394959 -149.852828 
L 492.11447 -149.409196 
L 492.833981 -148.967287 
L 493.553492 -148.527085 
L 494.273003 -148.088571 
L 494.992514 -147.651725 
L 495.712025 -147.216529 
L 496.431536 -146.782963 
L 497.151047 -146.351005 
L 497.870559 -145.920634 
L 498.59007 -145.491829 
L 499.309581 -145.064567 
L 500.029092 -144.638826 
L 500.748603 -144.214581 
L 501.468114 -143.791809 
L 502.187625 -143.370486 
L 502.907136 -142.950586 
L 503.626647 -142.532084 
L 504.346158 -142.114954 
L 505.065669 -141.699169 
L 505.78518 -141.284702 
L 506.504691 -140.871526 
L 507.224202 -140.459613 
L 507.943713 -140.048934 
L 508.663224 -139.639461 
L 509.382735 -139.231163 
L 510.102246 -138.824012 
L 510.821757 -138.417978 
L 511.541268 -138.013029 
L 512.260779 -137.609135 
L 512.980291 -137.206264 
L 513.699802 -136.804385 
L 514.419313 -136.403467 
L 515.138824 -136.003476 
L 515.858335 -135.604379 
L 516.577846 -135.206145 
L 517.297357 -134.80874 
L 518.016868 -134.41213 
L 518.736379 -134.016282 
L 519.45589 -133.621161 
L 520.175401 -133.226734 
L 520.894912 -132.832966 
L 521.614423 -132.439823 
L 522.333934 -132.04727 
L 523.053445 -131.655272 
L 523.772956 -131.263795 
L 524.492467 -130.872802 
L 525.211978 -130.482259 
L 525.931489 -130.092131 
L 526.651 -129.702383 
L 527.370511 -129.312979 
L 528.090023 -128.923883 
L 528.809534 -128.535061 
L 529.529045 -128.146478 
L 530.248556 -127.758097 
L 530.968067 -127.369884 
L 531.687578 -126.981803 
L 532.407089 -126.593821 
L 533.1266 -126.205901 
L 533.846111 -125.818009 
L 534.565622 -125.430111 
L 535.285133 -125.042172 
L 536.004644 -124.654158 
L 536.724155 -124.266035 
L 537.443666 -123.877768 
L 538.163177 -123.489326 
L 538.882688 -123.100674 
L 539.602199 -122.71178 
L 540.32171 -122.322611 
L 541.041221 -121.933134 
L 541.760732 -121.543318 
L 542.480243 -121.153131 
L 543.199755 -120.762543 
L 543.919266 -120.371521 
L 544.638777 -119.980037 
L 545.358288 -119.588059 
L 546.077799 -119.195559 
L 546.79731 -118.802508 
L 547.516821 -118.408876 
L 548.236332 -118.014637 
L 548.955843 -117.619762 
L 549.675354 -117.224225 
L 550.394865 -116.827999 
L 551.114376 -116.431058 
L 551.833887 -116.033378 
L 552.553398 -115.634934 
L 553.272909 -115.2357 
L 553.99242 -114.835656 
L 554.711931 -114.434776 
L 555.431442 -114.03304 
L 556.150953 -113.630427 
L 556.870464 -113.226914 
L 557.589975 -112.822483 
L 558.309486 -112.417114 
L 559.028998 -112.010788 
L 559.748509 -111.603488 
L 560.46802 -111.195197 
L 561.187531 -110.785898 
L 561.907042 -110.375576 
L 562.626553 -109.964216 
L 563.346064 -109.551804 
L 564.065575 -109.138327 
L 564.785086 -108.723773 
L 565.504597 -108.30813 
L 566.224108 -107.891389 
L 566.943619 -107.473538 
L 567.66313 -107.054569 
L 568.382641 -106.634475 
L 569.102152 -106.213248 
L 569.821663 -105.790882 
L 570.541174 -105.367372 
L 571.260685 -104.942713 
L 571.980196 -104.516902 
L 572.699707 -104.089937 
L 573.419218 -103.661815 
L 574.13873 -103.232537 
L 574.858241 -102.802103 
L 575.577752 -102.370514 
L 576.297263 -101.937772 
L 577.016774 -101.503881 
L 577.736285 -101.068845 
L 578.455796 -100.63267 
L 579.175307 -100.195361 
L 579.894818 -99.756926 
L 580.614329 -99.317374 
L 581.33384 -98.876714 
L 582.053351 -98.434956 
L 582.772862 -97.992112 
L 583.492373 -97.548193 
L 584.211884 -97.103215 
L 584.931395 -96.657191 
L 585.650906 -96.210137 
L 586.370417 -95.76207 
L 587.089928 -95.313007 
L 587.809439 -94.862967 
L 588.52895 -94.411971 
L 589.248462 -93.960039 
L 589.967973 -93.507192 
L 590.687484 -93.053455 
L 591.406995 -92.598852 
L 592.126506 -92.143407 
L 592.846017 -91.687147 
L 593.565528 -91.230099 
L 594.285039 -90.772292 
L 595.00455 -90.313755 
L 595.724061 -89.854519 
L 596.443572 -89.394615 
L 597.163083 -88.934076 
L 597.882594 -88.472936 
L 598.602105 -88.011229 
L 599.321616 -87.54899 
L 600.041127 -87.086258 
L 600.760638 -86.62307 
L 601.480149 -86.159464 
L 602.19966 -85.69548 
L 602.919171 -85.231159 
L 603.638682 -84.766543 
L 604.358194 -84.301675 
L 605.077705 -83.836597 
L 605.797216 -83.371356 
L 606.516727 -82.905996 
L 607.236238 -82.440564 
L 607.955749 -81.975107 
L 608.67526 -81.509673 
L 609.394771 -81.044312 
L 610.114282 -80.579073 
L 610.833793 -80.114007 
L 611.553304 -79.649166 
L 612.272815 -79.184602 
L 612.992326 -78.720368 
L 613.711837 -78.256518 
L 614.431348 -77.793106 
L 615.150859 -77.330188 
L 615.87037 -76.867819 
L 616.589881 -76.406056 
L 617.309392 -75.944955 
L 618.028903 -75.484576 
L 618.748414 -75.024974 
L 619.467925 -74.566211 
L 620.187437 -74.108343 
L 620.906948 -73.651432 
L 621.626459 -73.195537 
L 622.34597 -72.740718 
L 623.065481 -72.287037 
L 623.784992 -71.834554 
L 624.504503 -71.38333 
L 625.224014 -70.933428 
L 625.943525 -70.484908 
L 626.663036 -70.037833 
L 627.382547 -69.592265 
L 628.102058 -69.148266 
L 628.821569 -68.705898 
L 629.54108 -68.265223 
L 630.260591 -67.826303 
L 630.980102 -67.389201 
L 631.699613 -66.953977 
L 632.419124 -66.520695 
L 633.138635 -66.089415 
L 633.858146 -65.660198 
L 634.577657 -65.233105 
L 635.297169 -64.808198 
L 636.01668 -64.385536 
L 636.736191 -63.965179 
L 637.455702 -63.547187 
L 638.175213 -63.131618 
L 638.894724 -62.71853 
L 639.614235 -62.307981 
L 640.333746 -61.900029 
L 641.053257 -61.494729 
L 641.772768 -61.092136 
L 642.492279 -60.692307 
L 643.21179 -60.295295 
L 643.931301 -59.901152 
L 644.650812 -59.509932 
L 645.370323 -59.121686 
L 646.089834 -58.736463 
L 646.809345 -58.354314 
L 647.528856 -57.975287 
L 648.248367 -57.599428 
L 648.967878 -57.226785 
L 649.687389 -56.857401 
L 650.406901 -56.491322 
L 651.126412 -56.128588 
L 651.845923 -55.769243 
L 652.565434 -55.413325 
L 653.284945 -55.060873 
L 654.004456 -54.711926 
L 654.723967 -54.366518 
L 655.443478 -54.024685 
L 656.162989 -53.686459 
L 656.8825 -53.351873 
L 657.602011 -53.020957 
L 658.321522 -52.693739 
L 659.041033 -52.370247 
L 659.760544 -52.050507 
L 660.480055 -51.734543 
L 661.199566 -51.422377 
L 661.919077 -51.114032 
L 662.638588 -50.809526 
L 663.358099 -50.508877 
L 664.07761 -50.212103 
L 664.797121 -49.919217 
L 665.516633 -49.630234 
L 666.236144 -49.345164 
L 666.955655 -49.064017 
L 667.675166 -48.786803 
L 668.394677 -48.513528 
L 669.114188 -48.244197 
L 669.833699 -47.978814 
L 670.55321 -47.717381 
L 671.272721 -47.459898 
L 671.992232 -47.206364 
L 672.711743 -46.956777 
L 673.431254 -46.711132 
L 674.150765 -46.469424 
L 674.870276 -46.231644 
L 675.589787 -45.997785 
L 676.309298 -45.767836 
L 677.028809 -45.541786 
L 677.74832 -45.319621 
L 678.467831 -45.101326 
L 679.187342 -44.886885 
L 679.906853 -44.676282 
L 680.626364 -44.469497 
L 681.345876 -44.266511 
L 682.065387 -44.067301 
L 682.784898 -43.871846 
L 683.504409 -43.68012 
L 684.22392 -43.492101 
L 684.943431 -43.30776 
L 685.662942 -43.12707 
L 686.382453 -42.950004 
L 687.101964 -42.776531 
L 687.821475 -42.606621 
L 688.540986 -42.440241 
L 689.260497 -42.277361 
L 689.980008 -42.117945 
L 690.699519 -41.961959 
L 691.41903 -41.809368 
L 692.138541 -41.660137 
L 692.858052 -41.514227 
L 693.577563 -41.371601 
L 694.297074 -41.232221 
L 695.016585 -41.096047 
L 695.736096 -40.96304 
L 696.455608 -40.83316 
L 697.175119 -40.706365 
L 697.89463 -40.582614 
L 698.614141 -40.461866 
L 699.333652 -40.344077 
L 700.053163 -40.229205 
L 700.772674 -40.117207 
L 701.492185 -40.008039 
L 702.211696 -39.901658 
L 702.931207 -39.79802 
L 703.650718 -39.69708 
L 704.370229 -39.598793 
L 705.08974 -39.503116 
L 705.809251 -39.410003 
L 706.528762 -39.319409 
L 707.248273 -39.23129 
L 707.967784 -39.145601 
L 708.687295 -39.062297 
L 709.406806 -38.981332 
L 710.126317 -38.902663 
L 710.845828 -38.826244 
L 711.56534 -38.75203 
L 712.284851 -38.679978 
L 713.004362 -38.610044 
L 713.723873 -38.542182 
L 714.443384 -38.47635 
L 715.162895 -38.412503 
L 715.882406 -38.350599 
L 716.601917 -38.290595 
L 717.321428 -38.232448 
L 718.040939 -38.176116 
L 718.76045 -38.121556 
L 719.479961 -38.068728 
L 720.199472 -38.017591 
L 720.918983 -37.968103 
L 721.638494 -37.920224 
L 722.358005 -37.873916 
L 723.077516 -37.829138 
L 723.797027 -37.785852 
L 724.516538 -37.744019 
L 725.236049 -37.703602 
L 725.95556 -37.664564 
L 726.675072 -37.626868 
L 727.394583 -37.590477 
L 728.114094 -37.555356 
L 728.833605 -37.521471 
L 729.553116 -37.488786 
L 730.272627 -37.457269 
L 730.992138 -37.426884 
L 731.711649 -37.397601 
L 732.43116 -37.369387 
L 733.150671 -37.34221 
L 733.870182 -37.316039 
L 734.589693 -37.290845 
L 735.309204 -37.266597 
L 736.028715 -37.243266 
L 736.748226 -37.220825 
L 737.467737 -37.199244 
L 738.187248 -37.178498 
L 738.906759 -37.158558 
L 739.62627 -37.1394 
L 740.345781 -37.120997 
L 741.065292 -37.103325 
L 741.784803 -37.08636 
L 742.504315 -37.070077 
L 743.223826 -37.054454 
L 743.943337 -37.039469 
L 744.662848 -37.025098 
L 745.382359 -37.011322 
L 746.10187 -36.998118 
L 746.821381 -36.985468 
L 747.540892 -36.97335 
L 748.260403 -36.961746 
L 748.979914 -36.950637 
L 749.699425 -36.940005 
L 750.418936 -36.929833 
L 751.138447 -36.920103 
L 751.857958 -36.910799 
L 752.577469 -36.901904 
L 753.29698 -36.893403 
L 754.016491 -36.885281 
L 754.736002 -36.877523 
L 755.455513 -36.870115 
L 756.175024 -36.863044 
L 756.894535 -36.856295 
L 757.614047 -36.849856 
L 758.333558 -36.843714 
L 759.053069 -36.837857 
L 759.77258 -36.832275 
L 760.492091 -36.826954 
L 761.211602 -36.821886 
L 761.931113 -36.817058 
L 761.931113 -36.729688 
L 761.931113 -36.729688 
L 761.211602 -36.729688 
L 760.492091 -36.729688 
L 759.77258 -36.729688 
L 759.053069 -36.729688 
L 758.333558 -36.729688 
L 757.614047 -36.729688 
L 756.894535 -36.729688 
L 756.175024 -36.729688 
L 755.455513 -36.729688 
L 754.736002 -36.729688 
L 754.016491 -36.729688 
L 753.29698 -36.729688 
L 752.577469 -36.729688 
L 751.857958 -36.729688 
L 751.138447 -36.729688 
L 750.418936 -36.729688 
L 749.699425 -36.729688 
L 748.979914 -36.729688 
L 748.260403 -36.729688 
L 747.540892 -36.729688 
L 746.821381 -36.729688 
L 746.10187 -36.729688 
L 745.382359 -36.729688 
L 744.662848 -36.729688 
L 743.943337 -36.729688 
L 743.223826 -36.729688 
L 742.504315 -36.729688 
L 741.784803 -36.729688 
L 741.065292 -36.729688 
L 740.345781 -36.729688 
L 739.62627 -36.729688 
L 738.906759 -36.729688 
L 738.187248 -36.729688 
L 737.467737 -36.729688 
L 736.748226 -36.729688 
L 736.028715 -36.729688 
L 735.309204 -36.729688 
L 734.589693 -36.729688 
L 733.870182 -36.729688 
L 733.150671 -36.729688 
L 732.43116 -36.729688 
L 731.711649 -36.729688 
L 730.992138 -36.729688 
L 730.272627 -36.729688 
L 729.553116 -36.729688 
L 728.833605 -36.729688 
L 728.114094 -36.729688 
L 727.394583 -36.729688 
L 726.675072 -36.729688 
L 725.95556 -36.729688 
L 725.236049 -36.729688 
L 724.516538 -36.729688 
L 723.797027 -36.729688 
L 723.077516 -36.729688 
L 722.358005 -36.729688 
L 721.638494 -36.729688 
L 720.918983 -36.729688 
L 720.199472 -36.729688 
L 719.479961 -36.729688 
L 718.76045 -36.729688 
L 718.040939 -36.729688 
L 717.321428 -36.729688 
L 716.601917 -36.729688 
L 715.882406 -36.729688 
L 715.162895 -36.729688 
L 714.443384 -36.729688 
L 713.723873 -36.729688 
L 713.004362 -36.729688 
L 712.284851 -36.729688 
L 711.56534 -36.729688 
L 710.845828 -36.729688 
L 710.126317 -36.729688 
L 709.406806 -36.729688 
L 708.687295 -36.729688 
L 707.967784 -36.729688 
L 707.248273 -36.729688 
L 706.528762 -36.729688 
L 705.809251 -36.729688 
L 705.08974 -36.729688 
L 704.370229 -36.729688 
L 703.650718 -36.729688 
L 702.931207 -36.729688 
L 702.211696 -36.729688 
L 701.492185 -36.729688 
L 700.772674 -36.729688 
L 700.053163 -36.729688 
L 699.333652 -36.729688 
L 698.614141 -36.729688 
L 697.89463 -36.729688 
L 697.175119 -36.729688 
L 696.455608 -36.729688 
L 695.736096 -36.729688 
L 695.016585 -36.729688 
L 694.297074 -36.729688 
L 693.577563 -36.729688 
L 692.858052 -36.729688 
L 692.138541 -36.729688 
L 691.41903 -36.729688 
L 690.699519 -36.729688 
L 689.980008 -36.729688 
L 689.260497 -36.729688 
L 688.540986 -36.729688 
L 687.821475 -36.729688 
L 687.101964 -36.729688 
L 686.382453 -36.729688 
L 685.662942 -36.729688 
L 684.943431 -36.729688 
L 684.22392 -36.729688 
L 683.504409 -36.729688 
L 682.784898 -36.729688 
L 682.065387 -36.729688 
L 681.345876 -36.729688 
L 680.626364 -36.729688 
L 679.906853 -36.729688 
L 679.187342 -36.729688 
L 678.467831 -36.729688 
L 677.74832 -36.729688 
L 677.028809 -36.729688 
L 676.309298 -36.729688 
L 675.589787 -36.729688 
L 674.870276 -36.729688 
L 674.150765 -36.729688 
L 673.431254 -36.729688 
L 672.711743 -36.729688 
L 671.992232 -36.729688 
L 671.272721 -36.729688 
L 670.55321 -36.729688 
L 669.833699 -36.729688 
L 669.114188 -36.729688 
L 668.394677 -36.729688 
L 667.675166 -36.729688 
L 666.955655 -36.729688 
L 666.236144 -36.729688 
L 665.516633 -36.729688 
L 664.797121 -36.729688 
L 664.07761 -36.729688 
L 663.358099 -36.729688 
L 662.638588 -36.729688 
L 661.919077 -36.729688 
L 661.199566 -36.729688 
L 660.480055 -36.729688 
L 659.760544 -36.729688 
L 659.041033 -36.729688 
L 658.321522 -36.729688 
L 657.602011 -36.729688 
L 656.8825 -36.729688 
L 656.162989 -36.729688 
L 655.443478 -36.729688 
L 654.723967 -36.729688 
L 654.004456 -36.729688 
L 653.284945 -36.729688 
L 652.565434 -36.729688 
L 651.845923 -36.729688 
L 651.126412 -36.729688 
L 650.406901 -36.729688 
L 649.687389 -36.729688 
L 648.967878 -36.729688 
L 648.248367 -36.729688 
L 647.528856 -36.729688 
L 646.809345 -36.729688 
L 646.089834 -36.729688 
L 645.370323 -36.729688 
L 644.650812 -36.729688 
L 643.931301 -36.729688 
L 643.21179 -36.729688 
L 642.492279 -36.729688 
L 641.772768 -36.729688 
L 641.053257 -36.729688 
L 640.333746 -36.729688 
L 639.614235 -36.729688 
L 638.894724 -36.729688 
L 638.175213 -36.729688 
L 637.455702 -36.729688 
L 636.736191 -36.729688 
L 636.01668 -36.729688 
L 635.297169 -36.729688 
L 634.577657 -36.729688 
L 633.858146 -36.729688 
L 633.138635 -36.729688 
L 632.419124 -36.729688 
L 631.699613 -36.729688 
L 630.980102 -36.729688 
L 630.260591 -36.729688 
L 629.54108 -36.729688 
L 628.821569 -36.729688 
L 628.102058 -36.729688 
L 627.382547 -36.729688 
L 626.663036 -36.729688 
L 625.943525 -36.729688 
L 625.224014 -36.729688 
L 624.504503 -36.729688 
L 623.784992 -36.729688 
L 623.065481 -36.729688 
L 622.34597 -36.729688 
L 621.626459 -36.729688 
L 620.906948 -36.729688 
L 620.187437 -36.729688 
L 619.467925 -36.729688 
L 618.748414 -36.729688 
L 618.028903 -36.729688 
L 617.309392 -36.729688 
L 616.589881 -36.729688 
L 615.87037 -36.729688 
L 615.150859 -36.729688 
L 614.431348 -36.729688 
L 613.711837 -36.729688 
L 612.992326 -36.729688 
L 612.272815 -36.729688 
L 611.553304 -36.729688 
L 610.833793 -36.729688 
L 610.114282 -36.729688 
L 609.394771 -36.729688 
L 608.67526 -36.729688 
L 607.955749 -36.729688 
L 607.236238 -36.729688 
L 606.516727 -36.729688 
L 605.797216 -36.729688 
L 605.077705 -36.729688 
L 604.358194 -36.729688 
L 603.638682 -36.729688 
L 602.919171 -36.729688 
L 602.19966 -36.729688 
L 601.480149 -36.729688 
L 600.760638 -36.729688 
L 600.041127 -36.729688 
L 599.321616 -36.729688 
L 598.602105 -36.729688 
L 597.882594 -36.729688 
L 597.163083 -36.729688 
L 596.443572 -36.729688 
L 595.724061 -36.729688 
L 595.00455 -36.729688 
L 594.285039 -36.729688 
L 593.565528 -36.729688 
L 592.846017 -36.729688 
L 592.126506 -36.729688 
L 591.406995 -36.729688 
L 590.687484 -36.729688 
L 589.967973 -36.729688 
L 589.248462 -36.729688 
L 588.52895 -36.729688 
L 587.809439 -36.729688 
L 587.089928 -36.729688 
L 586.370417 -36.729688 
L 585.650906 -36.729688 
L 584.931395 -36.729688 
L 584.211884 -36.729688 
L 583.492373 -36.729688 
L 582.772862 -36.729688 
L 582.053351 -36.729688 
L 581.33384 -36.729688 
L 580.614329 -36.729688 
L 579.894818 -36.729688 
L 579.175307 -36.729688 
L 578.455796 -36.729688 
L 577.736285 -36.729688 
L 577.016774 -36.729688 
L 576.297263 -36.729688 
L 575.577752 -36.729688 
L 574.858241 -36.729688 
L 574.13873 -36.729688 
L 573.419218 -36.729688 
L 572.699707 -36.729688 
L 571.980196 -36.729688 
L 571.260685 -36.729688 
L 570.541174 -36.729688 
L 569.821663 -36.729688 
L 569.102152 -36.729688 
L 568.382641 -36.729688 
L 567.66313 -36.729688 
L 566.943619 -36.729688 
L 566.224108 -36.729688 
L 565.504597 -36.729688 
L 564.785086 -36.729688 
L 564.065575 -36.729688 
L 563.346064 -36.729688 
L 562.626553 -36.729688 
L 561.907042 -36.729688 
L 561.187531 -36.729688 
L 560.46802 -36.729688 
L 559.748509 -36.729688 
L 559.028998 -36.729688 
L 558.309486 -36.729688 
L 557.589975 -36.729688 
L 556.870464 -36.729688 
L 556.150953 -36.729688 
L 555.431442 -36.729688 
L 554.711931 -36.729688 
L 553.99242 -36.729688 
L 553.272909 -36.729688 
L 552.553398 -36.729688 
L 551.833887 -36.729688 
L 551.114376 -36.729688 
L 550.394865 -36.729688 
L 549.675354 -36.729688 
L 548.955843 -36.729688 
L 548.236332 -36.729688 
L 547.516821 -36.729688 
L 546.79731 -36.729688 
L 546.077799 -36.729688 
L 545.358288 -36.729688 
L 544.638777 -36.729688 
L 543.919266 -36.729688 
L 543.199755 -36.729688 
L 542.480243 -36.729688 
L 541.760732 -36.729688 
L 541.041221 -36.729688 
L 540.32171 -36.729688 
L 539.602199 -36.729688 
L 538.882688 -36.729688 
L 538.163177 -36.729688 
L 537.443666 -36.729688 
L 536.724155 -36.729688 
L 536.004644 -36.729688 
L 535.285133 -36.729688 
L 534.565622 -36.729688 
L 533.846111 -36.729688 
L 533.1266 -36.729688 
L 532.407089 -36.729688 
L 531.687578 -36.729688 
L 530.968067 -36.729688 
L 530.248556 -36.729688 
L 529.529045 -36.729688 
L 528.809534 -36.729688 
L 528.090023 -36.729688 
L 527.370511 -36.729688 
L 526.651 -36.729688 
L 525.931489 -36.729688 
L 525.211978 -36.729688 
L 524.492467 -36.729688 
L 523.772956 -36.729688 
L 523.053445 -36.729688 
L 522.333934 -36.729688 
L 521.614423 -36.729688 
L 520.894912 -36.729688 
L 520.175401 -36.729688 
L 519.45589 -36.729688 
L 518.736379 -36.729688 
L 518.016868 -36.729688 
L 517.297357 -36.729688 
L 516.577846 -36.729688 
L 515.858335 -36.729688 
L 515.138824 -36.729688 
L 514.419313 -36.729688 
L 513.699802 -36.729688 
L 512.980291 -36.729688 
L 512.260779 -36.729688 
L 511.541268 -36.729688 
L 510.821757 -36.729688 
L 510.102246 -36.729688 
L 509.382735 -36.729688 
L 508.663224 -36.729688 
L 507.943713 -36.729688 
L 507.224202 -36.729688 
L 506.504691 -36.729688 
L 505.78518 -36.729688 
L 505.065669 -36.729688 
L 504.346158 -36.729688 
L 503.626647 -36.729688 
L 502.907136 -36.729688 
L 502.187625 -36.729688 
L 501.468114 -36.729688 
L 500.748603 -36.729688 
L 500.029092 -36.729688 
L 499.309581 -36.729688 
L 498.59007 -36.729688 
L 497.870559 -36.729688 
L 497.151047 -36.729688 
L 496.431536 -36.729688 
L 495.712025 -36.729688 
L 494.992514 -36.729688 
L 494.273003 -36.729688 
L 493.553492 -36.729688 
L 492.833981 -36.729688 
L 492.11447 -36.729688 
L 491.394959 -36.729688 
L 490.675448 -36.729688 
L 489.955937 -36.729688 
L 489.236426 -36.729688 
L 488.516915 -36.729688 
L 487.797404 -36.729688 
L 487.077893 -36.729688 
L 486.358382 -36.729688 
L 485.638871 -36.729688 
L 484.91936 -36.729688 
L 484.199849 -36.729688 
L 483.480338 -36.729688 
L 482.760827 -36.729688 
L 482.041316 -36.729688 
L 481.321804 -36.729688 
L 480.602293 -36.729688 
L 479.882782 -36.729688 
L 479.163271 -36.729688 
L 478.44376 -36.729688 
L 477.724249 -36.729688 
L 477.004738 -36.729688 
L 476.285227 -36.729688 
L 475.565716 -36.729688 
L 474.846205 -36.729688 
L 474.126694 -36.729688 
L 473.407183 -36.729688 
L 472.687672 -36.729688 
L 471.968161 -36.729688 
L 471.24865 -36.729688 
L 470.529139 -36.729688 
L 469.809628 -36.729688 
L 469.090117 -36.729688 
L 468.370606 -36.729688 
L 467.651095 -36.729688 
L 466.931584 -36.729688 
L 466.212072 -36.729688 
L 465.492561 -36.729688 
L 464.77305 -36.729688 
L 464.053539 -36.729688 
L 463.334028 -36.729688 
L 462.614517 -36.729688 
L 461.895006 -36.729688 
L 461.175495 -36.729688 
L 460.455984 -36.729688 
L 459.736473 -36.729688 
L 459.016962 -36.729688 
L 458.297451 -36.729688 
L 457.57794 -36.729688 
L 456.858429 -36.729688 
L 456.138918 -36.729688 
L 455.419407 -36.729688 
L 454.699896 -36.729688 
L 453.980385 -36.729688 
L 453.260874 -36.729688 
L 452.541363 -36.729688 
L 451.821852 -36.729688 
L 451.10234 -36.729688 
L 450.382829 -36.729688 
L 449.663318 -36.729688 
L 448.943807 -36.729688 
L 448.224296 -36.729688 
L 447.504785 -36.729688 
L 446.785274 -36.729688 
L 446.065763 -36.729688 
L 445.346252 -36.729688 
L 444.626741 -36.729688 
L 443.90723 -36.729688 
L 443.187719 -36.729688 
L 442.468208 -36.729688 
L 441.748697 -36.729688 
L 441.029186 -36.729688 
L 440.309675 -36.729688 
L 439.590164 -36.729688 
L 438.870653 -36.729688 
L 438.151142 -36.729688 
L 437.431631 -36.729688 
L 436.71212 -36.729688 
L 435.992608 -36.729688 
L 435.273097 -36.729688 
L 434.553586 -36.729688 
L 433.834075 -36.729688 
L 433.114564 -36.729688 
L 432.395053 -36.729688 
L 431.675542 -36.729688 
L 430.956031 -36.729688 
L 430.23652 -36.729688 
L 429.517009 -36.729688 
L 428.797498 -36.729688 
L 428.077987 -36.729688 
L 427.358476 -36.729688 
L 426.638965 -36.729688 
L 425.919454 -36.729688 
L 425.199943 -36.729688 
L 424.480432 -36.729688 
L 423.760921 -36.729688 
L 423.04141 -36.729688 
L 422.321899 -36.729688 
L 421.602388 -36.729688 
L 420.882877 -36.729688 
L 420.163365 -36.729688 
L 419.443854 -36.729688 
L 418.724343 -36.729688 
L 418.004832 -36.729688 
L 417.285321 -36.729688 
L 416.56581 -36.729688 
L 415.846299 -36.729688 
L 415.126788 -36.729688 
L 414.407277 -36.729688 
L 413.687766 -36.729688 
L 412.968255 -36.729688 
L 412.248744 -36.729688 
L 411.529233 -36.729688 
L 410.809722 -36.729688 
L 410.090211 -36.729688 
L 409.3707 -36.729688 
L 408.651189 -36.729688 
L 407.931678 -36.729688 
L 407.212167 -36.729688 
L 406.492656 -36.729688 
L 405.773145 -36.729688 
L 405.053633 -36.729688 
L 404.334122 -36.729688 
L 403.614611 -36.729688 
L 402.8951 -36.729688 
L 402.175589 -36.729688 
L 401.456078 -36.729688 
L 400.736567 -36.729688 
L 400.017056 -36.729688 
L 399.297545 -36.729688 
L 398.578034 -36.729688 
L 397.858523 -36.729688 
L 397.139012 -36.729688 
L 396.419501 -36.729688 
L 395.69999 -36.729688 
L 394.980479 -36.729688 
L 394.260968 -36.729688 
L 393.541457 -36.729688 
L 392.821946 -36.729688 
L 392.102435 -36.729688 
L 391.382924 -36.729688 
L 390.663413 -36.729688 
L 389.943901 -36.729688 
L 389.22439 -36.729688 
L 388.504879 -36.729688 
L 387.785368 -36.729688 
L 387.065857 -36.729688 
L 386.346346 -36.729688 
L 385.626835 -36.729688 
L 384.907324 -36.729688 
L 384.187813 -36.729688 
L 383.468302 -36.729688 
L 382.748791 -36.729688 
L 382.02928 -36.729688 
L 381.309769 -36.729688 
L 380.590258 -36.729688 
L 379.870747 -36.729688 
L 379.151236 -36.729688 
L 378.431725 -36.729688 
L 377.712214 -36.729688 
L 376.992703 -36.729688 
L 376.273192 -36.729688 
L 375.553681 -36.729688 
L 374.834169 -36.729688 
L 374.114658 -36.729688 
L 373.395147 -36.729688 
L 372.675636 -36.729688 
L 371.956125 -36.729688 
L 371.236614 -36.729688 
L 370.517103 -36.729688 
L 369.797592 -36.729688 
L 369.078081 -36.729688 
L 368.35857 -36.729688 
L 367.639059 -36.729688 
L 366.919548 -36.729688 
L 366.200037 -36.729688 
L 365.480526 -36.729688 
L 364.761015 -36.729688 
L 364.041504 -36.729688 
L 363.321993 -36.729688 
L 362.602482 -36.729688 
L 361.882971 -36.729688 
L 361.16346 -36.729688 
L 360.443949 -36.729688 
L 359.724438 -36.729688 
L 359.004926 -36.729688 
L 358.285415 -36.729688 
L 357.565904 -36.729688 
L 356.846393 -36.729688 
L 356.126882 -36.729688 
L 355.407371 -36.729688 
L 354.68786 -36.729688 
L 353.968349 -36.729688 
L 353.248838 -36.729688 
L 352.529327 -36.729688 
L 351.809816 -36.729688 
L 351.090305 -36.729688 
L 350.370794 -36.729688 
L 349.651283 -36.729688 
L 348.931772 -36.729688 
L 348.212261 -36.729688 
L 347.49275 -36.729688 
L 346.773239 -36.729688 
L 346.053728 -36.729688 
L 345.334217 -36.729688 
L 344.614706 -36.729688 
L 343.895194 -36.729688 
L 343.175683 -36.729688 
L 342.456172 -36.729688 
L 341.736661 -36.729688 
L 341.01715 -36.729688 
L 340.297639 -36.729688 
L 339.578128 -36.729688 
L 338.858617 -36.729688 
L 338.139106 -36.729688 
L 337.419595 -36.729688 
L 336.700084 -36.729688 
L 335.980573 -36.729688 
L 335.261062 -36.729688 
L 334.541551 -36.729688 
L 333.82204 -36.729688 
L 333.102529 -36.729688 
L 332.383018 -36.729688 
L 331.663507 -36.729688 
L 330.943996 -36.729688 
L 330.224485 -36.729688 
L 329.504974 -36.729688 
L 328.785462 -36.729688 
L 328.065951 -36.729688 
L 327.34644 -36.729688 
L 326.626929 -36.729688 
L 325.907418 -36.729688 
L 325.187907 -36.729688 
L 324.468396 -36.729688 
L 323.748885 -36.729688 
L 323.029374 -36.729688 
L 322.309863 -36.729688 
L 321.590352 -36.729688 
L 320.870841 -36.729688 
L 320.15133 -36.729688 
L 319.431819 -36.729688 
L 318.712308 -36.729688 
L 317.992797 -36.729688 
L 317.273286 -36.729688 
L 316.553775 -36.729688 
L 315.834264 -36.729688 
L 315.114753 -36.729688 
L 314.395242 -36.729688 
L 313.67573 -36.729688 
L 312.956219 -36.729688 
L 312.236708 -36.729688 
L 311.517197 -36.729688 
L 310.797686 -36.729688 
L 310.078175 -36.729688 
L 309.358664 -36.729688 
L 308.639153 -36.729688 
L 307.919642 -36.729688 
L 307.200131 -36.729688 
L 306.48062 -36.729688 
L 305.761109 -36.729688 
L 305.041598 -36.729688 
L 304.322087 -36.729688 
L 303.602576 -36.729688 
L 302.883065 -36.729688 
L 302.163554 -36.729688 
L 301.444043 -36.729688 
L 300.724532 -36.729688 
L 300.005021 -36.729688 
L 299.28551 -36.729688 
L 298.565999 -36.729688 
L 297.846487 -36.729688 
L 297.126976 -36.729688 
L 296.407465 -36.729688 
L 295.687954 -36.729688 
L 294.968443 -36.729688 
L 294.248932 -36.729688 
L 293.529421 -36.729688 
L 292.80991 -36.729688 
L 292.090399 -36.729688 
L 291.370888 -36.729688 
L 290.651377 -36.729688 
L 289.931866 -36.729688 
L 289.212355 -36.729688 
L 288.492844 -36.729688 
L 287.773333 -36.729688 
L 287.053822 -36.729688 
L 286.334311 -36.729688 
L 285.6148 -36.729688 
L 284.895289 -36.729688 
L 284.175778 -36.729688 
L 283.456267 -36.729688 
L 282.736755 -36.729688 
L 282.017244 -36.729688 
L 281.297733 -36.729688 
L 280.578222 -36.729688 
L 279.858711 -36.729688 
L 279.1392 -36.729688 
L 278.419689 -36.729688 
L 277.700178 -36.729688 
L 276.980667 -36.729688 
L 276.261156 -36.729688 
L 275.541645 -36.729688 
L 274.822134 -36.729688 
L 274.102623 -36.729688 
L 273.383112 -36.729688 
L 272.663601 -36.729688 
L 271.94409 -36.729688 
L 271.224579 -36.729688 
L 270.505068 -36.729688 
L 269.785557 -36.729688 
L 269.066046 -36.729688 
L 268.346535 -36.729688 
L 267.627023 -36.729688 
L 266.907512 -36.729688 
L 266.188001 -36.729688 
L 265.46849 -36.729688 
L 264.748979 -36.729688 
L 264.029468 -36.729688 
L 263.309957 -36.729688 
L 262.590446 -36.729688 
L 261.870935 -36.729688 
L 261.151424 -36.729688 
L 260.431913 -36.729688 
L 259.712402 -36.729688 
L 258.992891 -36.729688 
L 258.27338 -36.729688 
L 257.553869 -36.729688 
L 256.834358 -36.729688 
L 256.114847 -36.729688 
L 255.395336 -36.729688 
L 254.675825 -36.729688 
L 253.956314 -36.729688 
L 253.236803 -36.729688 
L 252.517291 -36.729688 
L 251.79778 -36.729688 
L 251.078269 -36.729688 
L 250.358758 -36.729688 
L 249.639247 -36.729688 
L 248.919736 -36.729688 
L 248.200225 -36.729688 
L 247.480714 -36.729688 
L 246.761203 -36.729688 
L 246.041692 -36.729688 
L 245.322181 -36.729688 
L 244.60267 -36.729688 
L 243.883159 -36.729688 
L 243.163648 -36.729688 
L 242.444137 -36.729688 
L 241.724626 -36.729688 
L 241.005115 -36.729688 
L 240.285604 -36.729688 
L 239.566093 -36.729688 
L 238.846582 -36.729688 
L 238.127071 -36.729688 
L 237.40756 -36.729688 
L 236.688048 -36.729688 
L 235.968537 -36.729688 
L 235.249026 -36.729688 
L 234.529515 -36.729688 
L 233.810004 -36.729688 
L 233.090493 -36.729688 
L 232.370982 -36.729688 
L 231.651471 -36.729688 
L 230.93196 -36.729688 
L 230.212449 -36.729688 
L 229.492938 -36.729688 
L 228.773427 -36.729688 
L 228.053916 -36.729688 
L 227.334405 -36.729688 
L 226.614894 -36.729688 
L 225.895383 -36.729688 
L 225.175872 -36.729688 
L 224.456361 -36.729688 
L 223.73685 -36.729688 
L 223.017339 -36.729688 
L 222.297828 -36.729688 
L 221.578316 -36.729688 
L 220.858805 -36.729688 
L 220.139294 -36.729688 
L 219.419783 -36.729688 
L 218.700272 -36.729688 
L 217.980761 -36.729688 
L 217.26125 -36.729688 
L 216.541739 -36.729688 
L 215.822228 -36.729688 
L 215.102717 -36.729688 
L 214.383206 -36.729688 
L 213.663695 -36.729688 
L 212.944184 -36.729688 
L 212.224673 -36.729688 
L 211.505162 -36.729688 
L 210.785651 -36.729688 
L 210.06614 -36.729688 
L 209.346629 -36.729688 
L 208.627118 -36.729688 
L 207.907607 -36.729688 
L 207.188096 -36.729688 
L 206.468584 -36.729688 
L 205.749073 -36.729688 
L 205.029562 -36.729688 
L 204.310051 -36.729688 
L 203.59054 -36.729688 
L 202.871029 -36.729688 
L 202.151518 -36.729688 
L 201.432007 -36.729688 
L 200.712496 -36.729688 
L 199.992985 -36.729688 
L 199.273474 -36.729688 
L 198.553963 -36.729688 
L 197.834452 -36.729688 
L 197.114941 -36.729688 
L 196.39543 -36.729688 
L 195.675919 -36.729688 
L 194.956408 -36.729688 
L 194.236897 -36.729688 
L 193.517386 -36.729688 
L 192.797875 -36.729688 
L 192.078364 -36.729688 
L 191.358852 -36.729688 
L 190.639341 -36.729688 
L 189.91983 -36.729688 
L 189.200319 -36.729688 
L 188.480808 -36.729688 
L 187.761297 -36.729688 
L 187.041786 -36.729688 
L 186.322275 -36.729688 
L 185.602764 -36.729688 
L 184.883253 -36.729688 
L 184.163742 -36.729688 
L 183.444231 -36.729688 
L 182.72472 -36.729688 
L 182.005209 -36.729688 
L 181.285698 -36.729688 
L 180.566187 -36.729688 
L 179.846676 -36.729688 
L 179.127165 -36.729688 
L 178.407654 -36.729688 
L 177.688143 -36.729688 
L 176.968632 -36.729688 
L 176.249121 -36.729688 
L 175.529609 -36.729688 
L 174.810098 -36.729688 
L 174.090587 -36.729688 
L 173.371076 -36.729688 
L 172.651565 -36.729688 
L 171.932054 -36.729688 
L 171.212543 -36.729688 
L 170.493032 -36.729688 
L 169.773521 -36.729688 
L 169.05401 -36.729688 
L 168.334499 -36.729688 
L 167.614988 -36.729688 
L 166.895477 -36.729688 
L 166.175966 -36.729688 
L 165.456455 -36.729688 
L 164.736944 -36.729688 
L 164.017433 -36.729688 
L 163.297922 -36.729688 
L 162.578411 -36.729688 
L 161.8589 -36.729688 
L 161.139389 -36.729688 
L 160.419877 -36.729688 
L 159.700366 -36.729688 
L 158.980855 -36.729688 
L 158.261344 -36.729688 
L 157.541833 -36.729688 
L 156.822322 -36.729688 
L 156.102811 -36.729688 
L 155.3833 -36.729688 
L 154.663789 -36.729688 
L 153.944278 -36.729688 
L 153.224767 -36.729688 
L 152.505256 -36.729688 
L 151.785745 -36.729688 
L 151.066234 -36.729688 
L 150.346723 -36.729688 
L 149.627212 -36.729688 
L 148.907701 -36.729688 
L 148.18819 -36.729688 
L 147.468679 -36.729688 
L 146.749168 -36.729688 
L 146.029657 -36.729688 
L 145.310145 -36.729688 
L 144.590634 -36.729688 
L 143.871123 -36.729688 
L 143.151612 -36.729688 
L 142.432101 -36.729688 
L 141.71259 -36.729688 
L 140.993079 -36.729688 
L 140.273568 -36.729688 
L 139.554057 -36.729688 
L 138.834546 -36.729688 
L 138.115035 -36.729688 
L 137.395524 -36.729688 
L 136.676013 -36.729688 
L 135.956502 -36.729688 
L 135.236991 -36.729688 
L 134.51748 -36.729688 
L 133.797969 -36.729688 
L 133.078458 -36.729688 
L 132.358947 -36.729688 
L 131.639436 -36.729688 
L 130.919925 -36.729688 
L 130.200413 -36.729688 
L 129.480902 -36.729688 
L 128.761391 -36.729688 
L 128.04188 -36.729688 
L 127.322369 -36.729688 
L 126.602858 -36.729688 
L 125.883347 -36.729688 
L 125.163836 -36.729688 
L 124.444325 -36.729688 
L 123.724814 -36.729688 
L 123.005303 -36.729688 
L 122.285792 -36.729688 
L 121.566281 -36.729688 
L 120.84677 -36.729688 
L 120.127259 -36.729688 
L 119.407748 -36.729688 
L 118.688237 -36.729688 
L 117.968726 -36.729688 
L 117.249215 -36.729688 
L 116.529704 -36.729688 
L 115.810193 -36.729688 
L 115.090682 -36.729688 
L 114.37117 -36.729688 
L 113.651659 -36.729688 
L 112.932148 -36.729688 
L 112.212637 -36.729688 
L 111.493126 -36.729688 
L 110.773615 -36.729688 
L 110.054104 -36.729688 
L 109.334593 -36.729688 
L 108.615082 -36.729688 
L 107.895571 -36.729688 
L 107.17606 -36.729688 
L 106.456549 -36.729688 
L 105.737038 -36.729688 
L 105.017527 -36.729688 
L 104.298016 -36.729688 
L 103.578505 -36.729688 
L 102.858994 -36.729688 
L 102.139483 -36.729688 
L 101.419972 -36.729688 
L 100.700461 -36.729688 
L 99.98095 -36.729688 
L 99.261438 -36.729688 
L 98.541927 -36.729688 
L 97.822416 -36.729688 
L 97.102905 -36.729688 
L 96.383394 -36.729688 
L 95.663883 -36.729688 
L 94.944372 -36.729688 
L 94.224861 -36.729688 
L 93.50535 -36.729688 
L 92.785839 -36.729688 
L 92.066328 -36.729688 
L 91.346817 -36.729688 
L 90.627306 -36.729688 
L 89.907795 -36.729688 
L 89.188284 -36.729688 
L 88.468773 -36.729688 
L 87.749262 -36.729688 
L 87.029751 -36.729688 
L 86.31024 -36.729688 
L 85.590729 -36.729688 
L 84.871218 -36.729688 
L 84.151706 -36.729688 
L 83.432195 -36.729688 
L 82.712684 -36.729688 
L 81.993173 -36.729688 
L 81.273662 -36.729688 
L 80.554151 -36.729688 
L 79.83464 -36.729688 
L 79.115129 -36.729688 
L 78.395618 -36.729688 
L 77.676107 -36.729688 
L 76.956596 -36.729688 
L 76.237085 -36.729688 
L 75.517574 -36.729688 
L 74.798063 -36.729688 
L 74.078552 -36.729688 
L 73.359041 -36.729688 
L 72.63953 -36.729688 
L 71.920019 -36.729688 
L 71.200508 -36.729688 
L 70.480997 -36.729688 
L 69.761486 -36.729688 
L 69.041974 -36.729688 
L 68.322463 -36.729688 
L 67.602952 -36.729688 
L 66.883441 -36.729688 
L 66.16393 -36.729688 
L 65.444419 -36.729688 
L 64.724908 -36.729688 
L 64.005397 -36.729688 
L 63.285886 -36.729688 
L 62.566375 -36.729688 
L 61.846864 -36.729688 
L 61.127353 -36.729688 
L 60.407842 -36.729688 
L 59.688331 -36.729688 
L 58.96882 -36.729688 
L 58.249309 -36.729688 
L 57.529798 -36.729688 
L 56.810287 -36.729688 
L 56.090776 -36.729688 
L 55.371265 -36.729688 
L 54.651754 -36.729688 
L 53.932243 -36.729688 
L 53.212731 -36.729688 
L 52.49322 -36.729688 
L 51.773709 -36.729688 
L 51.054198 -36.729688 
L 50.334687 -36.729688 
L 49.615176 -36.729688 
L 48.895665 -36.729688 
L 48.176154 -36.729688 
L 47.456643 -36.729688 
L 46.737132 -36.729688 
L 46.017621 -36.729688 
L 45.29811 -36.729688 
L 44.578599 -36.729688 
L 43.859088 -36.729688 
L 43.139577 -36.729688 
z
" style="stroke: #4c72b0; stroke-opacity: 0.2"/>
    </defs>
    <g>
     <use xlink:href="#m982ec172c6" x="0" y="265.689687" style="fill: #4c72b0; fill-opacity: 0.2; stroke: #4c72b0; stroke-opacity: 0.2"/>
    </g>
   </g>
   <g id="FillBetweenPolyCollection_2">
    <defs>
     <path id="m43d1d41672" d="M 43.139577 -36.812183 
L 43.139577 -36.812183 
L 43.859088 -36.81672 
L 44.578599 -36.821482 
L 45.29811 -36.826479 
L 46.017621 -36.831721 
L 46.737132 -36.837219 
L 47.456643 -36.842983 
L 48.176154 -36.849024 
L 48.895665 -36.855355 
L 49.615176 -36.861986 
L 50.334687 -36.868931 
L 51.054198 -36.876202 
L 51.773709 -36.883813 
L 52.49322 -36.891776 
L 53.212731 -36.900106 
L 53.932243 -36.908818 
L 54.651754 -36.917926 
L 55.371265 -36.927445 
L 56.090776 -36.937392 
L 56.810287 -36.947783 
L 57.529798 -36.958634 
L 58.249309 -36.969962 
L 58.96882 -36.981787 
L 59.688331 -36.994124 
L 60.407842 -37.006994 
L 61.127353 -37.020416 
L 61.846864 -37.034409 
L 62.566375 -37.048993 
L 63.285886 -37.06419 
L 64.005397 -37.080021 
L 64.724908 -37.096506 
L 65.444419 -37.11367 
L 66.16393 -37.131535 
L 66.883441 -37.150124 
L 67.602952 -37.169461 
L 68.322463 -37.189571 
L 69.041974 -37.210479 
L 69.761486 -37.23221 
L 70.480997 -37.254792 
L 71.200508 -37.27825 
L 71.920019 -37.302613 
L 72.63953 -37.327907 
L 73.359041 -37.354162 
L 74.078552 -37.381407 
L 74.798063 -37.40967 
L 75.517574 -37.438983 
L 76.237085 -37.469376 
L 76.956596 -37.50088 
L 77.676107 -37.533528 
L 78.395618 -37.56735 
L 79.115129 -37.602381 
L 79.83464 -37.638653 
L 80.554151 -37.676201 
L 81.273662 -37.715059 
L 81.993173 -37.755262 
L 82.712684 -37.796845 
L 83.432195 -37.839844 
L 84.151706 -37.884296 
L 84.871218 -37.930238 
L 85.590729 -37.977706 
L 86.31024 -38.026738 
L 87.029751 -38.077374 
L 87.749262 -38.129651 
L 88.468773 -38.183608 
L 89.188284 -38.239285 
L 89.907795 -38.296722 
L 90.627306 -38.355958 
L 91.346817 -38.417035 
L 92.066328 -38.479992 
L 92.785839 -38.544871 
L 93.50535 -38.611714 
L 94.224861 -38.680563 
L 94.944372 -38.751458 
L 95.663883 -38.824442 
L 96.383394 -38.899558 
L 97.102905 -38.976848 
L 97.822416 -39.056355 
L 98.541927 -39.138121 
L 99.261438 -39.222191 
L 99.98095 -39.308605 
L 100.700461 -39.397409 
L 101.419972 -39.488644 
L 102.139483 -39.582355 
L 102.858994 -39.678585 
L 103.578505 -39.777376 
L 104.298016 -39.878771 
L 105.017527 -39.982815 
L 105.737038 -40.089549 
L 106.456549 -40.199017 
L 107.17606 -40.311262 
L 107.895571 -40.426326 
L 108.615082 -40.544251 
L 109.334593 -40.665079 
L 110.054104 -40.788852 
L 110.773615 -40.915613 
L 111.493126 -41.045401 
L 112.212637 -41.178259 
L 112.932148 -41.314226 
L 113.651659 -41.453343 
L 114.37117 -41.595651 
L 115.090682 -41.741187 
L 115.810193 -41.889991 
L 116.529704 -42.042102 
L 117.249215 -42.197558 
L 117.968726 -42.356396 
L 118.688237 -42.518653 
L 119.407748 -42.684366 
L 120.127259 -42.85357 
L 120.84677 -43.0263 
L 121.566281 -43.202592 
L 122.285792 -43.382479 
L 123.005303 -43.565995 
L 123.724814 -43.753172 
L 124.444325 -43.944043 
L 125.163836 -44.138638 
L 125.883347 -44.336988 
L 126.602858 -44.539124 
L 127.322369 -44.745074 
L 128.04188 -44.954867 
L 128.761391 -45.16853 
L 129.480902 -45.386091 
L 130.200413 -45.607575 
L 130.919925 -45.833009 
L 131.639436 -46.062416 
L 132.358947 -46.295821 
L 133.078458 -46.533247 
L 133.797969 -46.774716 
L 134.51748 -47.020249 
L 135.236991 -47.269868 
L 135.956502 -47.523592 
L 136.676013 -47.78144 
L 137.395524 -48.043432 
L 138.115035 -48.309584 
L 138.834546 -48.579914 
L 139.554057 -48.854439 
L 140.273568 -49.133172 
L 140.993079 -49.41613 
L 141.71259 -49.703326 
L 142.432101 -49.994773 
L 143.151612 -50.290485 
L 143.871123 -50.590474 
L 144.590634 -50.89475 
L 145.310145 -51.203325 
L 146.029657 -51.516208 
L 146.749168 -51.83341 
L 147.468679 -52.154939 
L 148.18819 -52.480803 
L 148.907701 -52.811012 
L 149.627212 -53.145571 
L 150.346723 -53.484489 
L 151.066234 -53.827771 
L 151.785745 -54.175424 
L 152.505256 -54.527454 
L 153.224767 -54.883865 
L 153.944278 -55.244663 
L 154.663789 -55.609853 
L 155.3833 -55.979438 
L 156.102811 -56.353424 
L 156.822322 -56.731813 
L 157.541833 -57.114611 
L 158.261344 -57.501819 
L 158.980855 -57.893443 
L 159.700366 -58.289485 
L 160.419877 -58.689948 
L 161.139389 -59.094836 
L 161.8589 -59.504152 
L 162.578411 -59.9179 
L 163.297922 -60.336082 
L 164.017433 -60.758702 
L 164.736944 -61.185763 
L 165.456455 -61.61727 
L 166.175966 -62.053226 
L 166.895477 -62.493635 
L 167.614988 -62.938502 
L 168.334499 -63.387831 
L 169.05401 -63.841627 
L 169.773521 -64.299894 
L 170.493032 -64.762639 
L 171.212543 -65.229868 
L 171.932054 -65.701586 
L 172.651565 -66.177801 
L 173.371076 -66.658519 
L 174.090587 -67.143747 
L 174.810098 -67.633495 
L 175.529609 -68.12777 
L 176.249121 -68.626581 
L 176.968632 -69.129938 
L 177.688143 -69.637852 
L 178.407654 -70.150331 
L 179.127165 -70.667389 
L 179.846676 -71.189036 
L 180.566187 -71.715285 
L 181.285698 -72.246149 
L 182.005209 -72.781641 
L 182.72472 -73.321776 
L 183.444231 -73.866567 
L 184.163742 -74.416032 
L 184.883253 -74.970185 
L 185.602764 -75.529042 
L 186.322275 -76.092622 
L 187.041786 -76.660942 
L 187.761297 -77.23402 
L 188.480808 -77.811875 
L 189.200319 -78.394527 
L 189.91983 -78.981996 
L 190.639341 -79.574301 
L 191.358852 -80.171465 
L 192.078364 -80.773509 
L 192.797875 -81.380455 
L 193.517386 -81.992325 
L 194.236897 -82.609143 
L 194.956408 -83.230932 
L 195.675919 -83.857716 
L 196.39543 -84.489518 
L 197.114941 -85.126364 
L 197.834452 -85.768278 
L 198.553963 -86.415286 
L 199.273474 -87.067411 
L 199.992985 -87.724681 
L 200.712496 -88.387121 
L 201.432007 -89.054756 
L 202.151518 -89.727612 
L 202.871029 -90.405716 
L 203.59054 -91.089092 
L 204.310051 -91.777767 
L 205.029562 -92.471767 
L 205.749073 -93.171116 
L 206.468584 -93.87584 
L 207.188096 -94.585965 
L 207.907607 -95.301515 
L 208.627118 -96.022513 
L 209.346629 -96.748985 
L 210.06614 -97.480953 
L 210.785651 -98.218441 
L 211.505162 -98.96147 
L 212.224673 -99.710063 
L 212.944184 -100.464239 
L 213.663695 -101.22402 
L 214.383206 -101.989423 
L 215.102717 -102.760469 
L 215.822228 -103.537173 
L 216.541739 -104.319552 
L 217.26125 -105.107621 
L 217.980761 -105.901394 
L 218.700272 -106.700884 
L 219.419783 -107.506102 
L 220.139294 -108.317058 
L 220.858805 -109.13376 
L 221.578316 -109.956216 
L 222.297828 -110.78443 
L 223.017339 -111.618407 
L 223.73685 -112.458147 
L 224.456361 -113.303652 
L 225.175872 -114.154919 
L 225.895383 -115.011945 
L 226.614894 -115.874724 
L 227.334405 -116.743248 
L 228.053916 -117.617507 
L 228.773427 -118.497488 
L 229.492938 -119.383177 
L 230.212449 -120.274557 
L 230.93196 -121.171609 
L 231.651471 -122.074311 
L 232.370982 -122.982637 
L 233.090493 -123.896562 
L 233.810004 -124.816055 
L 234.529515 -125.741084 
L 235.249026 -126.671613 
L 235.968537 -127.607604 
L 236.688048 -128.549016 
L 237.40756 -129.495804 
L 238.127071 -130.447922 
L 238.846582 -131.405319 
L 239.566093 -132.367941 
L 240.285604 -133.335731 
L 241.005115 -134.30863 
L 241.724626 -135.286575 
L 242.444137 -136.269498 
L 243.163648 -137.25733 
L 243.883159 -138.249997 
L 244.60267 -139.247422 
L 245.322181 -140.249525 
L 246.041692 -141.256221 
L 246.761203 -142.267424 
L 247.480714 -143.283042 
L 248.200225 -144.30298 
L 248.919736 -145.32714 
L 249.639247 -146.355419 
L 250.358758 -147.387713 
L 251.078269 -148.423911 
L 251.79778 -149.4639 
L 252.517291 -150.507563 
L 253.236803 -151.554781 
L 253.956314 -152.605427 
L 254.675825 -153.659375 
L 255.395336 -154.716493 
L 256.114847 -155.776644 
L 256.834358 -156.839691 
L 257.553869 -157.905489 
L 258.27338 -158.973893 
L 258.992891 -160.044752 
L 259.712402 -161.117912 
L 260.431913 -162.193216 
L 261.151424 -163.270504 
L 261.870935 -164.34961 
L 262.590446 -165.430366 
L 263.309957 -166.512602 
L 264.029468 -167.596142 
L 264.748979 -168.680808 
L 265.46849 -169.766419 
L 266.188001 -170.852791 
L 266.907512 -171.939734 
L 267.627023 -173.02706 
L 268.346535 -174.114573 
L 269.066046 -175.202076 
L 269.785557 -176.28937 
L 270.505068 -177.376253 
L 271.224579 -178.462519 
L 271.94409 -179.547959 
L 272.663601 -180.632365 
L 273.383112 -181.715521 
L 274.102623 -182.797215 
L 274.822134 -183.877227 
L 275.541645 -184.955338 
L 276.261156 -186.031327 
L 276.980667 -187.104969 
L 277.700178 -188.17604 
L 278.419689 -189.244312 
L 279.1392 -190.309556 
L 279.858711 -191.371542 
L 280.578222 -192.430039 
L 281.297733 -193.484814 
L 282.017244 -194.535633 
L 282.736755 -195.582261 
L 283.456267 -196.624462 
L 284.175778 -197.662001 
L 284.895289 -198.694639 
L 285.6148 -199.722141 
L 286.334311 -200.744269 
L 287.053822 -201.760784 
L 287.773333 -202.77145 
L 288.492844 -203.776028 
L 289.212355 -204.774282 
L 289.931866 -205.765975 
L 290.651377 -206.75087 
L 291.370888 -207.728733 
L 292.090399 -208.699328 
L 292.80991 -209.662424 
L 293.529421 -210.617786 
L 294.248932 -211.565185 
L 294.968443 -212.504392 
L 295.687954 -213.435178 
L 296.407465 -214.357317 
L 297.126976 -215.270586 
L 297.846487 -216.174763 
L 298.565999 -217.069629 
L 299.28551 -217.954966 
L 300.005021 -218.830559 
L 300.724532 -219.696197 
L 301.444043 -220.55167 
L 302.163554 -221.396773 
L 302.883065 -222.231302 
L 303.602576 -223.055058 
L 304.322087 -223.867844 
L 305.041598 -224.669467 
L 305.761109 -225.459739 
L 306.48062 -226.238473 
L 307.200131 -227.005487 
L 307.919642 -227.760605 
L 308.639153 -228.503653 
L 309.358664 -229.234462 
L 310.078175 -229.952867 
L 310.797686 -230.658707 
L 311.517197 -231.351827 
L 312.236708 -232.032076 
L 312.956219 -232.699306 
L 313.67573 -233.353378 
L 314.395242 -233.994154 
L 315.114753 -234.621503 
L 315.834264 -235.235299 
L 316.553775 -235.83542 
L 317.273286 -236.42175 
L 317.992797 -236.99418 
L 318.712308 -237.552604 
L 319.431819 -238.096922 
L 320.15133 -238.62704 
L 320.870841 -239.142871 
L 321.590352 -239.64433 
L 322.309863 -240.131341 
L 323.029374 -240.603832 
L 323.748885 -241.061737 
L 324.468396 -241.504997 
L 325.187907 -241.933557 
L 325.907418 -242.347369 
L 326.626929 -242.746389 
L 327.34644 -243.130581 
L 328.065951 -243.499915 
L 328.785462 -243.854364 
L 329.504974 -244.19391 
L 330.224485 -244.518538 
L 330.943996 -244.828242 
L 331.663507 -245.123018 
L 332.383018 -245.40287 
L 333.102529 -245.667808 
L 333.82204 -245.917846 
L 334.541551 -246.153006 
L 335.261062 -246.373313 
L 335.980573 -246.578799 
L 336.700084 -246.7695 
L 337.419595 -246.94546 
L 338.139106 -247.106727 
L 338.858617 -247.253353 
L 339.578128 -247.385397 
L 340.297639 -247.502922 
L 341.01715 -247.605996 
L 341.736661 -247.694694 
L 342.456172 -247.769094 
L 343.175683 -247.829278 
L 343.895194 -247.875335 
L 344.614706 -247.907357 
L 345.334217 -247.92544 
L 346.053728 -247.929688 
L 346.773239 -247.920204 
L 347.49275 -247.897099 
L 348.212261 -247.860487 
L 348.931772 -247.810486 
L 349.651283 -247.747217 
L 350.370794 -247.670807 
L 351.090305 -247.581384 
L 351.809816 -247.479081 
L 352.529327 -247.364034 
L 353.248838 -247.236383 
L 353.968349 -247.09627 
L 354.68786 -246.94384 
L 355.407371 -246.779242 
L 356.126882 -246.602627 
L 356.846393 -246.414149 
L 357.565904 -246.213964 
L 358.285415 -246.002231 
L 359.004926 -245.779111 
L 359.724438 -245.544766 
L 360.443949 -245.299363 
L 361.16346 -245.043067 
L 361.882971 -244.776048 
L 362.602482 -244.498476 
L 363.321993 -244.210523 
L 364.041504 -243.912361 
L 364.761015 -243.604165 
L 365.480526 -243.286111 
L 366.200037 -242.958374 
L 366.919548 -242.621133 
L 367.639059 -242.274566 
L 368.35857 -241.91885 
L 369.078081 -241.554165 
L 369.797592 -241.18069 
L 370.517103 -240.798607 
L 371.236614 -240.408093 
L 371.956125 -240.00933 
L 372.675636 -239.602496 
L 373.395147 -239.187773 
L 374.114658 -238.765339 
L 374.834169 -238.335374 
L 375.553681 -237.898056 
L 376.273192 -237.453562 
L 376.992703 -237.002072 
L 377.712214 -236.54376 
L 378.431725 -236.078802 
L 379.151236 -235.607374 
L 379.870747 -235.129649 
L 380.590258 -234.6458 
L 381.309769 -234.155998 
L 382.02928 -233.660413 
L 382.748791 -233.159214 
L 383.468302 -232.652568 
L 384.187813 -232.140641 
L 384.907324 -231.623598 
L 385.626835 -231.1016 
L 386.346346 -230.57481 
L 387.065857 -230.043386 
L 387.785368 -229.507486 
L 388.504879 -228.967266 
L 389.22439 -228.422878 
L 389.943901 -227.874476 
L 390.663413 -227.322208 
L 391.382924 -226.766223 
L 392.102435 -226.206667 
L 392.821946 -225.643683 
L 393.541457 -225.077412 
L 394.260968 -224.507994 
L 394.980479 -223.935567 
L 395.69999 -223.360265 
L 396.419501 -222.782221 
L 397.139012 -222.201566 
L 397.858523 -221.618429 
L 398.578034 -221.032934 
L 399.297545 -220.445206 
L 400.017056 -219.855367 
L 400.736567 -219.263536 
L 401.456078 -218.669829 
L 402.175589 -218.074362 
L 402.8951 -217.477246 
L 403.614611 -216.878593 
L 404.334122 -216.278508 
L 405.053633 -215.677099 
L 405.773145 -215.074468 
L 406.492656 -214.470717 
L 407.212167 -213.865943 
L 407.931678 -213.260244 
L 408.651189 -212.653714 
L 409.3707 -212.046445 
L 410.090211 -211.438527 
L 410.809722 -210.830047 
L 411.529233 -210.221091 
L 412.248744 -209.611744 
L 412.968255 -209.002085 
L 413.687766 -208.392195 
L 414.407277 -207.782151 
L 415.126788 -207.172028 
L 415.846299 -206.561899 
L 416.56581 -205.951836 
L 417.285321 -205.341909 
L 418.004832 -204.732184 
L 418.724343 -204.122727 
L 419.443854 -203.513604 
L 420.163365 -202.904874 
L 420.882877 -202.296599 
L 421.602388 -201.688838 
L 422.321899 -201.081646 
L 423.04141 -200.47508 
L 423.760921 -199.869193 
L 424.480432 -199.264036 
L 425.199943 -198.659661 
L 425.919454 -198.056116 
L 426.638965 -197.453448 
L 427.358476 -196.851704 
L 428.077987 -196.250927 
L 428.797498 -195.651162 
L 429.517009 -195.052449 
L 430.23652 -194.454829 
L 430.956031 -193.858342 
L 431.675542 -193.263025 
L 432.395053 -192.668914 
L 433.114564 -192.076046 
L 433.834075 -191.484454 
L 434.553586 -190.894171 
L 435.273097 -190.305231 
L 435.992608 -189.717662 
L 436.71212 -189.131496 
L 437.431631 -188.546762 
L 438.151142 -187.963486 
L 438.870653 -187.381697 
L 439.590164 -186.80142 
L 440.309675 -186.22268 
L 441.029186 -185.645502 
L 441.748697 -185.069909 
L 442.468208 -184.495923 
L 443.187719 -183.923566 
L 443.90723 -183.352859 
L 444.626741 -182.783822 
L 445.346252 -182.216474 
L 446.065763 -181.650835 
L 446.785274 -181.086922 
L 447.504785 -180.524752 
L 448.224296 -179.964342 
L 448.943807 -179.405708 
L 449.663318 -178.848864 
L 450.382829 -178.293827 
L 451.10234 -177.740609 
L 451.821852 -177.189225 
L 452.541363 -176.639687 
L 453.260874 -176.092006 
L 453.980385 -175.546196 
L 454.699896 -175.002266 
L 455.419407 -174.460229 
L 456.138918 -173.920092 
L 456.858429 -173.381867 
L 457.57794 -172.845562 
L 458.297451 -172.311185 
L 459.016962 -171.778744 
L 459.736473 -171.248247 
L 460.455984 -170.719701 
L 461.175495 -170.193112 
L 461.895006 -169.668485 
L 462.614517 -169.145827 
L 463.334028 -168.625142 
L 464.053539 -168.106434 
L 464.77305 -167.589708 
L 465.492561 -167.074966 
L 466.212072 -166.562212 
L 466.931584 -166.051449 
L 467.651095 -165.542677 
L 468.370606 -165.035898 
L 469.090117 -164.531114 
L 469.809628 -164.028325 
L 470.529139 -163.52753 
L 471.24865 -163.02873 
L 471.968161 -162.531922 
L 472.687672 -162.037105 
L 473.407183 -161.544278 
L 474.126694 -161.053437 
L 474.846205 -160.564579 
L 475.565716 -160.077701 
L 476.285227 -159.592799 
L 477.004738 -159.109867 
L 477.724249 -158.6289 
L 478.44376 -158.149893 
L 479.163271 -157.672838 
L 479.882782 -157.19773 
L 480.602293 -156.72456 
L 481.321804 -156.253321 
L 482.041316 -155.784004 
L 482.760827 -155.3166 
L 483.480338 -154.851098 
L 484.199849 -154.38749 
L 484.91936 -153.925763 
L 485.638871 -153.465907 
L 486.358382 -153.007909 
L 487.077893 -152.551757 
L 487.797404 -152.097438 
L 488.516915 -151.644937 
L 487.797404 -36.729688 
L 487.077893 -36.729688 
L 486.358382 -36.729688 
L 485.638871 -36.729688 
L 484.91936 -36.729688 
L 484.199849 -36.729688 
L 483.480338 -36.729688 
L 482.760827 -36.729688 
L 482.041316 -36.729688 
L 481.321804 -36.729688 
L 480.602293 -36.729688 
L 479.882782 -36.729688 
L 479.163271 -36.729688 
L 478.44376 -36.729688 
L 477.724249 -36.729688 
L 477.004738 -36.729688 
L 476.285227 -36.729688 
L 475.565716 -36.729688 
L 474.846205 -36.729688 
L 474.126694 -36.729688 
L 473.407183 -36.729688 
L 472.687672 -36.729688 
L 471.968161 -36.729688 
L 471.24865 -36.729688 
L 470.529139 -36.729688 
L 469.809628 -36.729688 
L 469.090117 -36.729688 
L 468.370606 -36.729688 
L 467.651095 -36.729688 
L 466.931584 -36.729688 
L 466.212072 -36.729688 
L 465.492561 -36.729688 
L 464.77305 -36.729688 
L 464.053539 -36.729688 
L 463.334028 -36.729688 
L 462.614517 -36.729688 
L 461.895006 -36.729688 
L 461.175495 -36.729688 
L 460.455984 -36.729688 
L 459.736473 -36.729688 
L 459.016962 -36.729688 
L 458.297451 -36.729688 
L 457.57794 -36.729688 
L 456.858429 -36.729688 
L 456.138918 -36.729688 
L 455.419407 -36.729688 
L 454.699896 -36.729688 
L 453.980385 -36.729688 
L 453.260874 -36.729688 
L 452.541363 -36.729688 
L 451.821852 -36.729688 
L 451.10234 -36.729688 
L 450.382829 -36.729688 
L 449.663318 -36.729688 
L 448.943807 -36.729688 
L 448.224296 -36.729688 
L 447.504785 -36.729688 
L 446.785274 -36.729688 
L 446.065763 -36.729688 
L 445.346252 -36.729688 
L 444.626741 -36.729688 
L 443.90723 -36.729688 
L 443.187719 -36.729688 
L 442.468208 -36.729688 
L 441.748697 -36.729688 
L 441.029186 -36.729688 
L 440.309675 -36.729688 
L 439.590164 -36.729688 
L 438.870653 -36.729688 
L 438.151142 -36.729688 
L 437.431631 -36.729688 
L 436.71212 -36.729688 
L 435.992608 -36.729688 
L 435.273097 -36.729688 
L 434.553586 -36.729688 
L 433.834075 -36.729688 
L 433.114564 -36.729688 
L 432.395053 -36.729688 
L 431.675542 -36.729688 
L 430.956031 -36.729688 
L 430.23652 -36.729688 
L 429.517009 -36.729688 
L 428.797498 -36.729688 
L 428.077987 -36.729688 
L 427.358476 -36.729688 
L 426.638965 -36.729688 
L 425.919454 -36.729688 
L 425.199943 -36.729688 
L 424.480432 -36.729688 
L 423.760921 -36.729688 
L 423.04141 -36.729688 
L 422.321899 -36.729688 
L 421.602388 -36.729688 
L 420.882877 -36.729688 
L 420.163365 -36.729688 
L 419.443854 -36.729688 
L 418.724343 -36.729688 
L 418.004832 -36.729688 
L 417.285321 -36.729688 
L 416.56581 -36.729688 
L 415.846299 -36.729688 
L 415.126788 -36.729688 
L 414.407277 -36.729688 
L 413.687766 -36.729688 
L 412.968255 -36.729688 
L 412.248744 -36.729688 
L 411.529233 -36.729688 
L 410.809722 -36.729688 
L 410.090211 -36.729688 
L 409.3707 -36.729688 
L 408.651189 -36.729688 
L 407.931678 -36.729688 
L 407.212167 -36.729688 
L 406.492656 -36.729688 
L 405.773145 -36.729688 
L 405.053633 -36.729688 
L 404.334122 -36.729688 
L 403.614611 -36.729688 
L 402.8951 -36.729688 
L 402.175589 -36.729688 
L 401.456078 -36.729688 
L 400.736567 -36.729688 
L 400.017056 -36.729688 
L 399.297545 -36.729688 
L 398.578034 -36.729688 
L 397.858523 -36.729688 
L 397.139012 -36.729688 
L 396.419501 -36.729688 
L 395.69999 -36.729688 
L 394.980479 -36.729688 
L 394.260968 -36.729688 
L 393.541457 -36.729688 
L 392.821946 -36.729688 
L 392.102435 -36.729688 
L 391.382924 -36.729688 
L 390.663413 -36.729688 
L 389.943901 -36.729688 
L 389.22439 -36.729688 
L 388.504879 -36.729688 
L 387.785368 -36.729688 
L 387.065857 -36.729688 
L 386.346346 -36.729688 
L 385.626835 -36.729688 
L 384.907324 -36.729688 
L 384.187813 -36.729688 
L 383.468302 -36.729688 
L 382.748791 -36.729688 
L 382.02928 -36.729688 
L 381.309769 -36.729688 
L 380.590258 -36.729688 
L 379.870747 -36.729688 
L 379.151236 -36.729688 
L 378.431725 -36.729688 
L 377.712214 -36.729688 
L 376.992703 -36.729688 
L 376.273192 -36.729688 
L 375.553681 -36.729688 
L 374.834169 -36.729688 
L 374.114658 -36.729688 
L 373.395147 -36.729688 
L 372.675636 -36.729688 
L 371.956125 -36.729688 
L 371.236614 -36.729688 
L 370.517103 -36.729688 
L 369.797592 -36.729688 
L 369.078081 -36.729688 
L 368.35857 -36.729688 
L 367.639059 -36.729688 
L 366.919548 -36.729688 
L 366.200037 -36.729688 
L 365.480526 -36.729688 
L 364.761015 -36.729688 
L 364.041504 -36.729688 
L 363.321993 -36.729688 
L 362.602482 -36.729688 
L 361.882971 -36.729688 
L 361.16346 -36.729688 
L 360.443949 -36.729688 
L 359.724438 -36.729688 
L 359.004926 -36.729688 
L 358.285415 -36.729688 
L 357.565904 -36.729688 
L 356.846393 -36.729688 
L 356.126882 -36.729688 
L 355.407371 -36.729688 
L 354.68786 -36.729688 
L 353.968349 -36.729688 
L 353.248838 -36.729688 
L 352.529327 -36.729688 
L 351.809816 -36.729688 
L 351.090305 -36.729688 
L 350.370794 -36.729688 
L 349.651283 -36.729688 
L 348.931772 -36.729688 
L 348.212261 -36.729688 
L 347.49275 -36.729688 
L 346.773239 -36.729688 
L 346.053728 -36.729688 
L 345.334217 -36.729688 
L 344.614706 -36.729688 
L 343.895194 -36.729688 
L 343.175683 -36.729688 
L 342.456172 -36.729688 
L 341.736661 -36.729688 
L 341.01715 -36.729688 
L 340.297639 -36.729688 
L 339.578128 -36.729688 
L 338.858617 -36.729688 
L 338.139106 -36.729688 
L 337.419595 -36.729688 
L 336.700084 -36.729688 
L 335.980573 -36.729688 
L 335.261062 -36.729688 
L 334.541551 -36.729688 
L 333.82204 -36.729688 
L 333.102529 -36.729688 
L 332.383018 -36.729688 
L 331.663507 -36.729688 
L 330.943996 -36.729688 
L 330.224485 -36.729688 
L 329.504974 -36.729688 
L 328.785462 -36.729688 
L 328.065951 -36.729688 
L 327.34644 -36.729688 
L 326.626929 -36.729688 
L 325.907418 -36.729688 
L 325.187907 -36.729688 
L 324.468396 -36.729688 
L 323.748885 -36.729688 
L 323.029374 -36.729688 
L 322.309863 -36.729688 
L 321.590352 -36.729688 
L 320.870841 -36.729688 
L 320.15133 -36.729688 
L 319.431819 -36.729688 
L 318.712308 -36.729688 
L 317.992797 -36.729688 
L 317.273286 -36.729688 
L 316.553775 -36.729688 
L 315.834264 -36.729688 
L 315.114753 -36.729688 
L 314.395242 -36.729688 
L 313.67573 -36.729688 
L 312.956219 -36.729688 
L 312.236708 -36.729688 
L 311.517197 -36.729688 
L 310.797686 -36.729688 
L 310.078175 -36.729688 
L 309.358664 -36.729688 
L 308.639153 -36.729688 
L 307.919642 -36.729688 
L 307.200131 -36.729688 
L 306.48062 -36.729688 
L 305.761109 -36.729688 
L 305.041598 -36.729688 
L 304.322087 -36.729688 
L 303.602576 -36.729688 
L 302.883065 -36.729688 
L 302.163554 -36.729688 
L 301.444043 -36.729688 
L 300.724532 -36.729688 
L 300.005021 -36.729688 
L 299.28551 -36.729688 
L 298.565999 -36.729688 
L 297.846487 -36.729688 
L 297.126976 -36.729688 
L 296.407465 -36.729688 
L 295.687954 -36.729688 
L 294.968443 -36.729688 
L 294.248932 -36.729688 
L 293.529421 -36.729688 
L 292.80991 -36.729688 
L 292.090399 -36.729688 
L 291.370888 -36.729688 
L 290.651377 -36.729688 
L 289.931866 -36.729688 
L 289.212355 -36.729688 
L 288.492844 -36.729688 
L 287.773333 -36.729688 
L 287.053822 -36.729688 
L 286.334311 -36.729688 
L 285.6148 -36.729688 
L 284.895289 -36.729688 
L 284.175778 -36.729688 
L 283.456267 -36.729688 
L 282.736755 -36.729688 
L 282.017244 -36.729688 
L 281.297733 -36.729688 
L 280.578222 -36.729688 
L 279.858711 -36.729688 
L 279.1392 -36.729688 
L 278.419689 -36.729688 
L 277.700178 -36.729688 
L 276.980667 -36.729688 
L 276.261156 -36.729688 
L 275.541645 -36.729688 
L 274.822134 -36.729688 
L 274.102623 -36.729688 
L 273.383112 -36.729688 
L 272.663601 -36.729688 
L 271.94409 -36.729688 
L 271.224579 -36.729688 
L 270.505068 -36.729688 
L 269.785557 -36.729688 
L 269.066046 -36.729688 
L 268.346535 -36.729688 
L 267.627023 -36.729688 
L 266.907512 -36.729688 
L 266.188001 -36.729688 
L 265.46849 -36.729688 
L 264.748979 -36.729688 
L 264.029468 -36.729688 
L 263.309957 -36.729688 
L 262.590446 -36.729688 
L 261.870935 -36.729688 
L 261.151424 -36.729688 
L 260.431913 -36.729688 
L 259.712402 -36.729688 
L 258.992891 -36.729688 
L 258.27338 -36.729688 
L 257.553869 -36.729688 
L 256.834358 -36.729688 
L 256.114847 -36.729688 
L 255.395336 -36.729688 
L 254.675825 -36.729688 
L 253.956314 -36.729688 
L 253.236803 -36.729688 
L 252.517291 -36.729688 
L 251.79778 -36.729688 
L 251.078269 -36.729688 
L 250.358758 -36.729688 
L 249.639247 -36.729688 
L 248.919736 -36.729688 
L 248.200225 -36.729688 
L 247.480714 -36.729688 
L 246.761203 -36.729688 
L 246.041692 -36.729688 
L 245.322181 -36.729688 
L 244.60267 -36.729688 
L 243.883159 -36.729688 
L 243.163648 -36.729688 
L 242.444137 -36.729688 
L 241.724626 -36.729688 
L 241.005115 -36.729688 
L 240.285604 -36.729688 
L 239.566093 -36.729688 
L 238.846582 -36.729688 
L 238.127071 -36.729688 
L 237.40756 -36.729688 
L 236.688048 -36.729688 
L 235.968537 -36.729688 
L 235.249026 -36.729688 
L 234.529515 -36.729688 
L 233.810004 -36.729688 
L 233.090493 -36.729688 
L 232.370982 -36.729688 
L 231.651471 -36.729688 
L 230.93196 -36.729688 
L 230.212449 -36.729688 
L 229.492938 -36.729688 
L 228.773427 -36.729688 
L 228.053916 -36.729688 
L 227.334405 -36.729688 
L 226.614894 -36.729688 
L 225.895383 -36.729688 
L 225.175872 -36.729688 
L 224.456361 -36.729688 
L 223.73685 -36.729688 
L 223.017339 -36.729688 
L 222.297828 -36.729688 
L 221.578316 -36.729688 
L 220.858805 -36.729688 
L 220.139294 -36.729688 
L 219.419783 -36.729688 
L 218.700272 -36.729688 
L 217.980761 -36.729688 
L 217.26125 -36.729688 
L 216.541739 -36.729688 
L 215.822228 -36.729688 
L 215.102717 -36.729688 
L 214.383206 -36.729688 
L 213.663695 -36.729688 
L 212.944184 -36.729688 
L 212.224673 -36.729688 
L 211.505162 -36.729688 
L 210.785651 -36.729688 
L 210.06614 -36.729688 
L 209.346629 -36.729688 
L 208.627118 -36.729688 
L 207.907607 -36.729688 
L 207.188096 -36.729688 
L 206.468584 -36.729688 
L 205.749073 -36.729688 
L 205.029562 -36.729688 
L 204.310051 -36.729688 
L 203.59054 -36.729688 
L 202.871029 -36.729688 
L 202.151518 -36.729688 
L 201.432007 -36.729688 
L 200.712496 -36.729688 
L 199.992985 -36.729688 
L 199.273474 -36.729688 
L 198.553963 -36.729688 
L 197.834452 -36.729688 
L 197.114941 -36.729688 
L 196.39543 -36.729688 
L 195.675919 -36.729688 
L 194.956408 -36.729688 
L 194.236897 -36.729688 
L 193.517386 -36.729688 
L 192.797875 -36.729688 
L 192.078364 -36.729688 
L 191.358852 -36.729688 
L 190.639341 -36.729688 
L 189.91983 -36.729688 
L 189.200319 -36.729688 
L 188.480808 -36.729688 
L 187.761297 -36.729688 
L 187.041786 -36.729688 
L 186.322275 -36.729688 
L 185.602764 -36.729688 
L 184.883253 -36.729688 
L 184.163742 -36.729688 
L 183.444231 -36.729688 
L 182.72472 -36.729688 
L 182.005209 -36.729688 
L 181.285698 -36.729688 
L 180.566187 -36.729688 
L 179.846676 -36.729688 
L 179.127165 -36.729688 
L 178.407654 -36.729688 
L 177.688143 -36.729688 
L 176.968632 -36.729688 
L 176.249121 -36.729688 
L 175.529609 -36.729688 
L 174.810098 -36.729688 
L 174.090587 -36.729688 
L 173.371076 -36.729688 
L 172.651565 -36.729688 
L 171.932054 -36.729688 
L 171.212543 -36.729688 
L 170.493032 -36.729688 
L 169.773521 -36.729688 
L 169.05401 -36.729688 
L 168.334499 -36.729688 
L 167.614988 -36.729688 
L 166.895477 -36.729688 
L 166.175966 -36.729688 
L 165.456455 -36.729688 
L 164.736944 -36.729688 
L 164.017433 -36.729688 
L 163.297922 -36.729688 
L 162.578411 -36.729688 
L 161.8589 -36.729688 
L 161.139389 -36.729688 
L 160.419877 -36.729688 
L 159.700366 -36.729688 
L 158.980855 -36.729688 
L 158.261344 -36.729688 
L 157.541833 -36.729688 
L 156.822322 -36.729688 
L 156.102811 -36.729688 
L 155.3833 -36.729688 
L 154.663789 -36.729688 
L 153.944278 -36.729688 
L 153.224767 -36.729688 
L 152.505256 -36.729688 
L 151.785745 -36.729688 
L 151.066234 -36.729688 
L 150.346723 -36.729688 
L 149.627212 -36.729688 
L 148.907701 -36.729688 
L 148.18819 -36.729688 
L 147.468679 -36.729688 
L 146.749168 -36.729688 
L 146.029657 -36.729688 
L 145.310145 -36.729688 
L 144.590634 -36.729688 
L 143.871123 -36.729688 
L 143.151612 -36.729688 
L 142.432101 -36.729688 
L 141.71259 -36.729688 
L 140.993079 -36.729688 
L 140.273568 -36.729688 
L 139.554057 -36.729688 
L 138.834546 -36.729688 
L 138.115035 -36.729688 
L 137.395524 -36.729688 
L 136.676013 -36.729688 
L 135.956502 -36.729688 
L 135.236991 -36.729688 
L 134.51748 -36.729688 
L 133.797969 -36.729688 
L 133.078458 -36.729688 
L 132.358947 -36.729688 
L 131.639436 -36.729688 
L 130.919925 -36.729688 
L 130.200413 -36.729688 
L 129.480902 -36.729688 
L 128.761391 -36.729688 
L 128.04188 -36.729688 
L 127.322369 -36.729688 
L 126.602858 -36.729688 
L 125.883347 -36.729688 
L 125.163836 -36.729688 
L 124.444325 -36.729688 
L 123.724814 -36.729688 
L 123.005303 -36.729688 
L 122.285792 -36.729688 
L 121.566281 -36.729688 
L 120.84677 -36.729688 
L 120.127259 -36.729688 
L 119.407748 -36.729688 
L 118.688237 -36.729688 
L 117.968726 -36.729688 
L 117.249215 -36.729688 
L 116.529704 -36.729688 
L 115.810193 -36.729688 
L 115.090682 -36.729688 
L 114.37117 -36.729688 
L 113.651659 -36.729688 
L 112.932148 -36.729688 
L 112.212637 -36.729688 
L 111.493126 -36.729688 
L 110.773615 -36.729688 
L 110.054104 -36.729688 
L 109.334593 -36.729688 
L 108.615082 -36.729688 
L 107.895571 -36.729688 
L 107.17606 -36.729688 
L 106.456549 -36.729688 
L 105.737038 -36.729688 
L 105.017527 -36.729688 
L 104.298016 -36.729688 
L 103.578505 -36.729688 
L 102.858994 -36.729688 
L 102.139483 -36.729688 
L 101.419972 -36.729688 
L 100.700461 -36.729688 
L 99.98095 -36.729688 
L 99.261438 -36.729688 
L 98.541927 -36.729688 
L 97.822416 -36.729688 
L 97.102905 -36.729688 
L 96.383394 -36.729688 
L 95.663883 -36.729688 
L 94.944372 -36.729688 
L 94.224861 -36.729688 
L 93.50535 -36.729688 
L 92.785839 -36.729688 
L 92.066328 -36.729688 
L 91.346817 -36.729688 
L 90.627306 -36.729688 
L 89.907795 -36.729688 
L 89.188284 -36.729688 
L 88.468773 -36.729688 
L 87.749262 -36.729688 
L 87.029751 -36.729688 
L 86.31024 -36.729688 
L 85.590729 -36.729688 
L 84.871218 -36.729688 
L 84.151706 -36.729688 
L 83.432195 -36.729688 
L 82.712684 -36.729688 
L 81.993173 -36.729688 
L 81.273662 -36.729688 
L 80.554151 -36.729688 
L 79.83464 -36.729688 
L 79.115129 -36.729688 
L 78.395618 -36.729688 
L 77.676107 -36.729688 
L 76.956596 -36.729688 
L 76.237085 -36.729688 
L 75.517574 -36.729688 
L 74.798063 -36.729688 
L 74.078552 -36.729688 
L 73.359041 -36.729688 
L 72.63953 -36.729688 
L 71.920019 -36.729688 
L 71.200508 -36.729688 
L 70.480997 -36.729688 
L 69.761486 -36.729688 
L 69.041974 -36.729688 
L 68.322463 -36.729688 
L 67.602952 -36.729688 
L 66.883441 -36.729688 
L 66.16393 -36.729688 
L 65.444419 -36.729688 
L 64.724908 -36.729688 
L 64.005397 -36.729688 
L 63.285886 -36.729688 
L 62.566375 -36.729688 
L 61.846864 -36.729688 
L 61.127353 -36.729688 
L 60.407842 -36.729688 
L 59.688331 -36.729688 
L 58.96882 -36.729688 
L 58.249309 -36.729688 
L 57.529798 -36.729688 
L 56.810287 -36.729688 
L 56.090776 -36.729688 
L 55.371265 -36.729688 
L 54.651754 -36.729688 
L 53.932243 -36.729688 
L 53.212731 -36.729688 
L 52.49322 -36.729688 
L 51.773709 -36.729688 
L 51.054198 -36.729688 
L 50.334687 -36.729688 
L 49.615176 -36.729688 
L 48.895665 -36.729688 
L 48.176154 -36.729688 
L 47.456643 -36.729688 
L 46.737132 -36.729688 
L 46.017621 -36.729688 
L 45.29811 -36.729688 
L 44.578599 -36.729688 
L 43.859088 -36.729688 
L 43.139577 -36.729688 
z
" style="stroke: #4c72b0; stroke-opacity: 0.3"/>
    </defs>
    <g>
     <use xlink:href="#m43d1d41672" x="0" y="265.689687" style="fill: #4c72b0; fill-opacity: 0.3; stroke: #4c72b0; stroke-opacity: 0.3"/>
    </g>
   </g>
   <g id="line2d_36">
    <path d="M 43.139577 228.877505 
L 61.846864 228.655279 
L 74.078552 228.308281 
L 84.151706 227.805391 
L 92.785839 227.144816 
L 99.98095 226.381082 
L 106.456549 225.49067 
L 112.932148 224.375461 
L 118.688237 223.171034 
L 124.444325 221.745645 
L 130.200413 220.082112 
L 135.956502 218.166096 
L 141.71259 215.986362 
L 146.749168 213.856278 
L 151.785745 211.514263 
L 157.541833 208.575077 
L 163.297922 205.353606 
L 169.05401 201.848061 
L 174.810098 198.056193 
L 180.566187 193.974402 
L 186.322275 189.597065 
L 192.078364 184.916178 
L 197.834452 179.921409 
L 203.59054 174.600595 
L 209.346629 168.940702 
L 215.102717 162.929219 
L 220.858805 156.555927 
L 226.614894 149.814963 
L 232.370982 142.70705 
L 238.127071 135.241765 
L 244.60267 126.442266 
L 251.078269 117.265777 
L 258.992891 105.644936 
L 272.663601 85.057323 
L 282.017244 71.154055 
L 288.492844 61.913659 
L 293.529421 55.071901 
L 298.565999 48.620059 
L 302.883065 43.458385 
L 307.200131 38.6842 
L 310.797686 35.03098 
L 314.395242 31.695533 
L 317.992797 28.695508 
L 320.870841 26.546817 
L 323.748885 24.62795 
L 326.626929 22.943299 
L 329.504974 21.495778 
L 332.383018 20.286818 
L 335.261062 19.316375 
L 338.139106 18.582961 
L 341.01715 18.083691 
L 343.895194 17.814353 
L 346.773239 17.769484 
L 349.651283 17.94247 
L 352.529327 18.325653 
L 355.407371 18.910446 
L 358.285415 19.687457 
L 361.882971 20.913639 
L 365.480526 22.403577 
L 369.078081 24.135523 
L 372.675636 26.087191 
L 376.992703 28.687616 
L 381.309769 31.53369 
L 386.346346 35.114877 
L 392.102435 39.483021 
L 399.297545 45.244481 
L 409.3707 53.643242 
L 435.273097 75.384457 
L 445.346252 83.473213 
L 454.699896 90.687421 
L 463.334028 97.064546 
L 471.968161 103.157766 
L 480.602293 108.965127 
L 489.236426 114.495446 
L 497.870559 119.769053 
L 507.224202 125.230075 
L 518.736379 131.673406 
L 536.004644 141.03553 
L 553.99242 150.854032 
L 565.504597 157.381557 
L 576.297263 163.751916 
L 587.089928 170.376681 
L 600.041127 178.603429 
L 628.102058 196.541421 
L 636.736191 201.724508 
L 643.931301 205.788535 
L 650.406901 209.198366 
L 656.162989 212.003228 
L 661.919077 214.575656 
L 667.675166 216.902884 
L 673.431254 218.978555 
L 679.187342 220.802802 
L 684.943431 222.381928 
L 690.699519 223.727728 
L 696.455608 224.856528 
L 702.931207 225.891667 
L 709.406806 226.708355 
L 716.601917 227.399092 
L 725.236049 227.986085 
L 735.309204 228.423091 
L 747.540892 228.716338 
L 761.931113 228.87263 
L 761.931113 228.87263 
" style="fill: none; stroke: #4c72b0; stroke-width: 1.5; stroke-linecap: round"/>
   </g>
   <g id="line2d_37">
    <path d="M 7.2 228.96 
L 844.2 228.96 
" style="fill: none; stroke: #808080; stroke-width: 0.5; stroke-linecap: round"/>
   </g>
   <g id="legend_1">
    <g id="patch_3">
     <path d="M 683.8 88.081687 
L 741.7375 88.081687 
Q 743.7375 88.081687 743.7375 86.081687 
L 743.7375 58.552 
Q 743.7375 56.552 741.7375 56.552 
L 683.8 56.552 
Q 681.8 56.552 681.8 58.552 
L 681.8 86.081687 
Q 681.8 88.081687 683.8 88.081687 
z
" style="fill: #ffffff; opacity: 0.8; stroke: #cccccc; stroke-linejoin: miter"/>
    </g>
    <g id="text_12">
     <text style="font-size: 10px; font-family: 'Arial', 'DejaVu Sans', 'Liberation Sans', 'Bitstream Vera Sans', sans-serif; text-anchor: start; fill: #262626" x="695.2625" y="67.831687" transform="rotate(-0 695.2625 67.831687)">Country</text>
    </g>
    <g id="line2d_38">
     <path d="M 685.8 78.594187 
L 695.8 78.594187 
L 705.8 78.594187 
" style="fill: none; stroke: #4c72b0; stroke-width: 1.5; stroke-linecap: round"/>
    </g>
    <g id="text_13">
     <text style="font-size: 10px; font-family: 'Arial', 'DejaVu Sans', 'Liberation Sans', 'Bitstream Vera Sans', sans-serif; text-anchor: start; fill: #262626" x="713.8" y="82.094187" transform="rotate(-0 713.8 82.094187)">World</text>
    </g>
   </g>
  </g>
 </g>
</svg>
