<?xml version="1.0" encoding="utf-8" standalone="no"?>
<!DOCTYPE svg PUBLIC "-//W3C//DTD SVG 1.1//EN"
  "http://www.w3.org/Graphics/SVG/1.1/DTD/svg11.dtd">
<svg xmlns:xlink="http://www.w3.org/1999/xlink" width="720pt" height="2399.76pt" viewBox="0 0 720 2399.76" xmlns="http://www.w3.org/2000/svg" version="1.1">
 <metadata>
  <rdf:RDF xmlns:dc="http://purl.org/dc/elements/1.1/" xmlns:cc="http://creativecommons.org/ns#" xmlns:rdf="http://www.w3.org/1999/02/22-rdf-syntax-ns#">
   <cc:Work>
    <dc:type rdf:resource="http://purl.org/dc/dcmitype/StillImage"/>
    <dc:date>2024-01-19T11:16:24.199258</dc:date>
    <dc:format>image/svg+xml</dc:format>
    <dc:creator>
     <cc:Agent>
      <dc:title>Matplotlib v3.5.0, https://matplotlib.org/</dc:title>
     </cc:Agent>
    </dc:creator>
   </cc:Work>
  </rdf:RDF>
 </metadata>
 <defs>
  <style type="text/css">*{stroke-linejoin: round; stroke-linecap: butt}</style>
 </defs>
 <g id="figure_1">
  <g id="patch_1">
   <path d="M 0 2399.76 
L 720 2399.76 
L 720 0 
L 0 0 
z
" style="fill: #ffffff"/>
  </g>
  <g id="axes_1">
   <g id="patch_2">
    <path d="M 47.855 466.664 
L 709.2 466.664 
L 709.2 26.16 
L 47.855 26.16 
z
" style="fill: #ffffff"/>
   </g>
   <g id="matplotlib.axis_1">
    <g id="xtick_1">
     <g id="line2d_1">
      <path d="M 134.637339 466.664 
L 134.637339 26.16 
" clip-path="url(#p9cb91cdaa8)" style="fill: none; stroke: #b0b0b0; stroke-width: 0.8; stroke-linecap: square"/>
     </g>
     <g id="line2d_2">
      <defs>
       <path id="m25f623ccf4" d="M 0 0 
L 0 3.5 
" style="stroke: #000000; stroke-width: 0.8"/>
      </defs>
      <g>
       <use xlink:href="#m25f623ccf4" x="134.637339" y="466.664" style="stroke: #000000; stroke-width: 0.8"/>
      </g>
     </g>
    </g>
    <g id="xtick_2">
     <g id="line2d_3">
      <path d="M 201.864751 466.664 
L 201.864751 26.16 
" clip-path="url(#p9cb91cdaa8)" style="fill: none; stroke: #b0b0b0; stroke-width: 0.8; stroke-linecap: square"/>
     </g>
     <g id="line2d_4">
      <g>
       <use xlink:href="#m25f623ccf4" x="201.864751" y="466.664" style="stroke: #000000; stroke-width: 0.8"/>
      </g>
     </g>
    </g>
    <g id="xtick_3">
     <g id="line2d_5">
      <path d="M 290.734555 466.664 
L 290.734555 26.16 
" clip-path="url(#p9cb91cdaa8)" style="fill: none; stroke: #b0b0b0; stroke-width: 0.8; stroke-linecap: square"/>
     </g>
     <g id="line2d_6">
      <g>
       <use xlink:href="#m25f623ccf4" x="290.734555" y="466.664" style="stroke: #000000; stroke-width: 0.8"/>
      </g>
     </g>
    </g>
    <g id="xtick_4">
     <g id="line2d_7">
      <path d="M 357.961966 466.664 
L 357.961966 26.16 
" clip-path="url(#p9cb91cdaa8)" style="fill: none; stroke: #b0b0b0; stroke-width: 0.8; stroke-linecap: square"/>
     </g>
     <g id="line2d_8">
      <g>
       <use xlink:href="#m25f623ccf4" x="357.961966" y="466.664" style="stroke: #000000; stroke-width: 0.8"/>
      </g>
     </g>
    </g>
    <g id="xtick_5">
     <g id="line2d_9">
      <path d="M 425.189378 466.664 
L 425.189378 26.16 
" clip-path="url(#p9cb91cdaa8)" style="fill: none; stroke: #b0b0b0; stroke-width: 0.8; stroke-linecap: square"/>
     </g>
     <g id="line2d_10">
      <g>
       <use xlink:href="#m25f623ccf4" x="425.189378" y="466.664" style="stroke: #000000; stroke-width: 0.8"/>
      </g>
     </g>
    </g>
    <g id="xtick_6">
     <g id="line2d_11">
      <path d="M 514.059182 466.664 
L 514.059182 26.16 
" clip-path="url(#p9cb91cdaa8)" style="fill: none; stroke: #b0b0b0; stroke-width: 0.8; stroke-linecap: square"/>
     </g>
     <g id="line2d_12">
      <g>
       <use xlink:href="#m25f623ccf4" x="514.059182" y="466.664" style="stroke: #000000; stroke-width: 0.8"/>
      </g>
     </g>
    </g>
    <g id="xtick_7">
     <g id="line2d_13">
      <path d="M 581.286593 466.664 
L 581.286593 26.16 
" clip-path="url(#p9cb91cdaa8)" style="fill: none; stroke: #b0b0b0; stroke-width: 0.8; stroke-linecap: square"/>
     </g>
     <g id="line2d_14">
      <g>
       <use xlink:href="#m25f623ccf4" x="581.286593" y="466.664" style="stroke: #000000; stroke-width: 0.8"/>
      </g>
     </g>
    </g>
    <g id="xtick_8">
     <g id="line2d_15">
      <path d="M 648.514005 466.664 
L 648.514005 26.16 
" clip-path="url(#p9cb91cdaa8)" style="fill: none; stroke: #b0b0b0; stroke-width: 0.8; stroke-linecap: square"/>
     </g>
     <g id="line2d_16">
      <g>
       <use xlink:href="#m25f623ccf4" x="648.514005" y="466.664" style="stroke: #000000; stroke-width: 0.8"/>
      </g>
     </g>
    </g>
   </g>
   <g id="matplotlib.axis_2">
    <g id="ytick_1">
     <g id="line2d_17">
      <path d="M 47.855 466.664 
L 709.2 466.664 
" clip-path="url(#p9cb91cdaa8)" style="fill: none; stroke: #b0b0b0; stroke-width: 0.8; stroke-linecap: square"/>
     </g>
     <g id="line2d_18">
      <defs>
       <path id="m109413f58e" d="M 0 0 
L -3.5 0 
" style="stroke: #000000; stroke-width: 0.8"/>
      </defs>
      <g>
       <use xlink:href="#m109413f58e" x="47.855" y="466.664" style="stroke: #000000; stroke-width: 0.8"/>
      </g>
     </g>
     <g id="text_1">
      <!-- 0.0 -->
      <g transform="translate(24.951875 470.463219)scale(0.1 -0.1)">
       <defs>
        <path id="DejaVuSans-30" d="M 2034 4250 
Q 1547 4250 1301 3770 
Q 1056 3291 1056 2328 
Q 1056 1369 1301 889 
Q 1547 409 2034 409 
Q 2525 409 2770 889 
Q 3016 1369 3016 2328 
Q 3016 3291 2770 3770 
Q 2525 4250 2034 4250 
z
M 2034 4750 
Q 2819 4750 3233 4129 
Q 3647 3509 3647 2328 
Q 3647 1150 3233 529 
Q 2819 -91 2034 -91 
Q 1250 -91 836 529 
Q 422 1150 422 2328 
Q 422 3509 836 4129 
Q 1250 4750 2034 4750 
z
" transform="scale(0.015625)"/>
        <path id="DejaVuSans-2e" d="M 684 794 
L 1344 794 
L 1344 0 
L 684 0 
L 684 794 
z
" transform="scale(0.015625)"/>
       </defs>
       <use xlink:href="#DejaVuSans-30"/>
       <use xlink:href="#DejaVuSans-2e" x="63.623047"/>
       <use xlink:href="#DejaVuSans-30" x="95.410156"/>
      </g>
     </g>
    </g>
    <g id="ytick_2">
     <g id="line2d_19">
      <path d="M 47.855 413.27537 
L 709.2 413.27537 
" clip-path="url(#p9cb91cdaa8)" style="fill: none; stroke: #b0b0b0; stroke-width: 0.8; stroke-linecap: square"/>
     </g>
     <g id="line2d_20">
      <g>
       <use xlink:href="#m109413f58e" x="47.855" y="413.27537" style="stroke: #000000; stroke-width: 0.8"/>
      </g>
     </g>
     <g id="text_2">
      <!-- 0.1 -->
      <g transform="translate(24.951875 417.074589)scale(0.1 -0.1)">
       <defs>
        <path id="DejaVuSans-31" d="M 794 531 
L 1825 531 
L 1825 4091 
L 703 3866 
L 703 4441 
L 1819 4666 
L 2450 4666 
L 2450 531 
L 3481 531 
L 3481 0 
L 794 0 
L 794 531 
z
" transform="scale(0.015625)"/>
       </defs>
       <use xlink:href="#DejaVuSans-30"/>
       <use xlink:href="#DejaVuSans-2e" x="63.623047"/>
       <use xlink:href="#DejaVuSans-31" x="95.410156"/>
      </g>
     </g>
    </g>
    <g id="ytick_3">
     <g id="line2d_21">
      <path d="M 47.855 359.88674 
L 709.2 359.88674 
" clip-path="url(#p9cb91cdaa8)" style="fill: none; stroke: #b0b0b0; stroke-width: 0.8; stroke-linecap: square"/>
     </g>
     <g id="line2d_22">
      <g>
       <use xlink:href="#m109413f58e" x="47.855" y="359.88674" style="stroke: #000000; stroke-width: 0.8"/>
      </g>
     </g>
     <g id="text_3">
      <!-- 0.2 -->
      <g transform="translate(24.951875 363.685959)scale(0.1 -0.1)">
       <defs>
        <path id="DejaVuSans-32" d="M 1228 531 
L 3431 531 
L 3431 0 
L 469 0 
L 469 531 
Q 828 903 1448 1529 
Q 2069 2156 2228 2338 
Q 2531 2678 2651 2914 
Q 2772 3150 2772 3378 
Q 2772 3750 2511 3984 
Q 2250 4219 1831 4219 
Q 1534 4219 1204 4116 
Q 875 4013 500 3803 
L 500 4441 
Q 881 4594 1212 4672 
Q 1544 4750 1819 4750 
Q 2544 4750 2975 4387 
Q 3406 4025 3406 3419 
Q 3406 3131 3298 2873 
Q 3191 2616 2906 2266 
Q 2828 2175 2409 1742 
Q 1991 1309 1228 531 
z
" transform="scale(0.015625)"/>
       </defs>
       <use xlink:href="#DejaVuSans-30"/>
       <use xlink:href="#DejaVuSans-2e" x="63.623047"/>
       <use xlink:href="#DejaVuSans-32" x="95.410156"/>
      </g>
     </g>
    </g>
    <g id="ytick_4">
     <g id="line2d_23">
      <path d="M 47.855 306.49811 
L 709.2 306.49811 
" clip-path="url(#p9cb91cdaa8)" style="fill: none; stroke: #b0b0b0; stroke-width: 0.8; stroke-linecap: square"/>
     </g>
     <g id="line2d_24">
      <g>
       <use xlink:href="#m109413f58e" x="47.855" y="306.49811" style="stroke: #000000; stroke-width: 0.8"/>
      </g>
     </g>
     <g id="text_4">
      <!-- 0.3 -->
      <g transform="translate(24.951875 310.297329)scale(0.1 -0.1)">
       <defs>
        <path id="DejaVuSans-33" d="M 2597 2516 
Q 3050 2419 3304 2112 
Q 3559 1806 3559 1356 
Q 3559 666 3084 287 
Q 2609 -91 1734 -91 
Q 1441 -91 1130 -33 
Q 819 25 488 141 
L 488 750 
Q 750 597 1062 519 
Q 1375 441 1716 441 
Q 2309 441 2620 675 
Q 2931 909 2931 1356 
Q 2931 1769 2642 2001 
Q 2353 2234 1838 2234 
L 1294 2234 
L 1294 2753 
L 1863 2753 
Q 2328 2753 2575 2939 
Q 2822 3125 2822 3475 
Q 2822 3834 2567 4026 
Q 2313 4219 1838 4219 
Q 1578 4219 1281 4162 
Q 984 4106 628 3988 
L 628 4550 
Q 988 4650 1302 4700 
Q 1616 4750 1894 4750 
Q 2613 4750 3031 4423 
Q 3450 4097 3450 3541 
Q 3450 3153 3228 2886 
Q 3006 2619 2597 2516 
z
" transform="scale(0.015625)"/>
       </defs>
       <use xlink:href="#DejaVuSans-30"/>
       <use xlink:href="#DejaVuSans-2e" x="63.623047"/>
       <use xlink:href="#DejaVuSans-33" x="95.410156"/>
      </g>
     </g>
    </g>
    <g id="ytick_5">
     <g id="line2d_25">
      <path d="M 47.855 253.10948 
L 709.2 253.10948 
" clip-path="url(#p9cb91cdaa8)" style="fill: none; stroke: #b0b0b0; stroke-width: 0.8; stroke-linecap: square"/>
     </g>
     <g id="line2d_26">
      <g>
       <use xlink:href="#m109413f58e" x="47.855" y="253.10948" style="stroke: #000000; stroke-width: 0.8"/>
      </g>
     </g>
     <g id="text_5">
      <!-- 0.4 -->
      <g transform="translate(24.951875 256.908699)scale(0.1 -0.1)">
       <defs>
        <path id="DejaVuSans-34" d="M 2419 4116 
L 825 1625 
L 2419 1625 
L 2419 4116 
z
M 2253 4666 
L 3047 4666 
L 3047 1625 
L 3713 1625 
L 3713 1100 
L 3047 1100 
L 3047 0 
L 2419 0 
L 2419 1100 
L 313 1100 
L 313 1709 
L 2253 4666 
z
" transform="scale(0.015625)"/>
       </defs>
       <use xlink:href="#DejaVuSans-30"/>
       <use xlink:href="#DejaVuSans-2e" x="63.623047"/>
       <use xlink:href="#DejaVuSans-34" x="95.410156"/>
      </g>
     </g>
    </g>
    <g id="ytick_6">
     <g id="line2d_27">
      <path d="M 47.855 199.72085 
L 709.2 199.72085 
" clip-path="url(#p9cb91cdaa8)" style="fill: none; stroke: #b0b0b0; stroke-width: 0.8; stroke-linecap: square"/>
     </g>
     <g id="line2d_28">
      <g>
       <use xlink:href="#m109413f58e" x="47.855" y="199.72085" style="stroke: #000000; stroke-width: 0.8"/>
      </g>
     </g>
     <g id="text_6">
      <!-- 0.5 -->
      <g transform="translate(24.951875 203.520069)scale(0.1 -0.1)">
       <defs>
        <path id="DejaVuSans-35" d="M 691 4666 
L 3169 4666 
L 3169 4134 
L 1269 4134 
L 1269 2991 
Q 1406 3038 1543 3061 
Q 1681 3084 1819 3084 
Q 2600 3084 3056 2656 
Q 3513 2228 3513 1497 
Q 3513 744 3044 326 
Q 2575 -91 1722 -91 
Q 1428 -91 1123 -41 
Q 819 9 494 109 
L 494 744 
Q 775 591 1075 516 
Q 1375 441 1709 441 
Q 2250 441 2565 725 
Q 2881 1009 2881 1497 
Q 2881 1984 2565 2268 
Q 2250 2553 1709 2553 
Q 1456 2553 1204 2497 
Q 953 2441 691 2322 
L 691 4666 
z
" transform="scale(0.015625)"/>
       </defs>
       <use xlink:href="#DejaVuSans-30"/>
       <use xlink:href="#DejaVuSans-2e" x="63.623047"/>
       <use xlink:href="#DejaVuSans-35" x="95.410156"/>
      </g>
     </g>
    </g>
    <g id="ytick_7">
     <g id="line2d_29">
      <path d="M 47.855 146.33222 
L 709.2 146.33222 
" clip-path="url(#p9cb91cdaa8)" style="fill: none; stroke: #b0b0b0; stroke-width: 0.8; stroke-linecap: square"/>
     </g>
     <g id="line2d_30">
      <g>
       <use xlink:href="#m109413f58e" x="47.855" y="146.33222" style="stroke: #000000; stroke-width: 0.8"/>
      </g>
     </g>
     <g id="text_7">
      <!-- 0.6 -->
      <g transform="translate(24.951875 150.131438)scale(0.1 -0.1)">
       <defs>
        <path id="DejaVuSans-36" d="M 2113 2584 
Q 1688 2584 1439 2293 
Q 1191 2003 1191 1497 
Q 1191 994 1439 701 
Q 1688 409 2113 409 
Q 2538 409 2786 701 
Q 3034 994 3034 1497 
Q 3034 2003 2786 2293 
Q 2538 2584 2113 2584 
z
M 3366 4563 
L 3366 3988 
Q 3128 4100 2886 4159 
Q 2644 4219 2406 4219 
Q 1781 4219 1451 3797 
Q 1122 3375 1075 2522 
Q 1259 2794 1537 2939 
Q 1816 3084 2150 3084 
Q 2853 3084 3261 2657 
Q 3669 2231 3669 1497 
Q 3669 778 3244 343 
Q 2819 -91 2113 -91 
Q 1303 -91 875 529 
Q 447 1150 447 2328 
Q 447 3434 972 4092 
Q 1497 4750 2381 4750 
Q 2619 4750 2861 4703 
Q 3103 4656 3366 4563 
z
" transform="scale(0.015625)"/>
       </defs>
       <use xlink:href="#DejaVuSans-30"/>
       <use xlink:href="#DejaVuSans-2e" x="63.623047"/>
       <use xlink:href="#DejaVuSans-36" x="95.410156"/>
      </g>
     </g>
    </g>
    <g id="ytick_8">
     <g id="line2d_31">
      <path d="M 47.855 92.94359 
L 709.2 92.94359 
" clip-path="url(#p9cb91cdaa8)" style="fill: none; stroke: #b0b0b0; stroke-width: 0.8; stroke-linecap: square"/>
     </g>
     <g id="line2d_32">
      <g>
       <use xlink:href="#m109413f58e" x="47.855" y="92.94359" style="stroke: #000000; stroke-width: 0.8"/>
      </g>
     </g>
     <g id="text_8">
      <!-- 0.7 -->
      <g transform="translate(24.951875 96.742808)scale(0.1 -0.1)">
       <defs>
        <path id="DejaVuSans-37" d="M 525 4666 
L 3525 4666 
L 3525 4397 
L 1831 0 
L 1172 0 
L 2766 4134 
L 525 4134 
L 525 4666 
z
" transform="scale(0.015625)"/>
       </defs>
       <use xlink:href="#DejaVuSans-30"/>
       <use xlink:href="#DejaVuSans-2e" x="63.623047"/>
       <use xlink:href="#DejaVuSans-37" x="95.410156"/>
      </g>
     </g>
    </g>
    <g id="ytick_9">
     <g id="line2d_33">
      <path d="M 47.855 39.55496 
L 709.2 39.55496 
" clip-path="url(#p9cb91cdaa8)" style="fill: none; stroke: #b0b0b0; stroke-width: 0.8; stroke-linecap: square"/>
     </g>
     <g id="line2d_34">
      <g>
       <use xlink:href="#m109413f58e" x="47.855" y="39.55496" style="stroke: #000000; stroke-width: 0.8"/>
      </g>
     </g>
     <g id="text_9">
      <!-- 0.8 -->
      <g transform="translate(24.951875 43.354178)scale(0.1 -0.1)">
       <defs>
        <path id="DejaVuSans-38" d="M 2034 2216 
Q 1584 2216 1326 1975 
Q 1069 1734 1069 1313 
Q 1069 891 1326 650 
Q 1584 409 2034 409 
Q 2484 409 2743 651 
Q 3003 894 3003 1313 
Q 3003 1734 2745 1975 
Q 2488 2216 2034 2216 
z
M 1403 2484 
Q 997 2584 770 2862 
Q 544 3141 544 3541 
Q 544 4100 942 4425 
Q 1341 4750 2034 4750 
Q 2731 4750 3128 4425 
Q 3525 4100 3525 3541 
Q 3525 3141 3298 2862 
Q 3072 2584 2669 2484 
Q 3125 2378 3379 2068 
Q 3634 1759 3634 1313 
Q 3634 634 3220 271 
Q 2806 -91 2034 -91 
Q 1263 -91 848 271 
Q 434 634 434 1313 
Q 434 1759 690 2068 
Q 947 2378 1403 2484 
z
M 1172 3481 
Q 1172 3119 1398 2916 
Q 1625 2713 2034 2713 
Q 2441 2713 2670 2916 
Q 2900 3119 2900 3481 
Q 2900 3844 2670 4047 
Q 2441 4250 2034 4250 
Q 1625 4250 1398 4047 
Q 1172 3844 1172 3481 
z
" transform="scale(0.015625)"/>
       </defs>
       <use xlink:href="#DejaVuSans-30"/>
       <use xlink:href="#DejaVuSans-2e" x="63.623047"/>
       <use xlink:href="#DejaVuSans-38" x="95.410156"/>
      </g>
     </g>
    </g>
    <g id="text_10">
     <!-- Density -->
     <g transform="translate(18.872188 265.420594)rotate(-90)scale(0.1 -0.1)">
      <defs>
       <path id="DejaVuSans-44" d="M 1259 4147 
L 1259 519 
L 2022 519 
Q 2988 519 3436 956 
Q 3884 1394 3884 2338 
Q 3884 3275 3436 3711 
Q 2988 4147 2022 4147 
L 1259 4147 
z
M 628 4666 
L 1925 4666 
Q 3281 4666 3915 4102 
Q 4550 3538 4550 2338 
Q 4550 1131 3912 565 
Q 3275 0 1925 0 
L 628 0 
L 628 4666 
z
" transform="scale(0.015625)"/>
       <path id="DejaVuSans-65" d="M 3597 1894 
L 3597 1613 
L 953 1613 
Q 991 1019 1311 708 
Q 1631 397 2203 397 
Q 2534 397 2845 478 
Q 3156 559 3463 722 
L 3463 178 
Q 3153 47 2828 -22 
Q 2503 -91 2169 -91 
Q 1331 -91 842 396 
Q 353 884 353 1716 
Q 353 2575 817 3079 
Q 1281 3584 2069 3584 
Q 2775 3584 3186 3129 
Q 3597 2675 3597 1894 
z
M 3022 2063 
Q 3016 2534 2758 2815 
Q 2500 3097 2075 3097 
Q 1594 3097 1305 2825 
Q 1016 2553 972 2059 
L 3022 2063 
z
" transform="scale(0.015625)"/>
       <path id="DejaVuSans-6e" d="M 3513 2113 
L 3513 0 
L 2938 0 
L 2938 2094 
Q 2938 2591 2744 2837 
Q 2550 3084 2163 3084 
Q 1697 3084 1428 2787 
Q 1159 2491 1159 1978 
L 1159 0 
L 581 0 
L 581 3500 
L 1159 3500 
L 1159 2956 
Q 1366 3272 1645 3428 
Q 1925 3584 2291 3584 
Q 2894 3584 3203 3211 
Q 3513 2838 3513 2113 
z
" transform="scale(0.015625)"/>
       <path id="DejaVuSans-73" d="M 2834 3397 
L 2834 2853 
Q 2591 2978 2328 3040 
Q 2066 3103 1784 3103 
Q 1356 3103 1142 2972 
Q 928 2841 928 2578 
Q 928 2378 1081 2264 
Q 1234 2150 1697 2047 
L 1894 2003 
Q 2506 1872 2764 1633 
Q 3022 1394 3022 966 
Q 3022 478 2636 193 
Q 2250 -91 1575 -91 
Q 1294 -91 989 -36 
Q 684 19 347 128 
L 347 722 
Q 666 556 975 473 
Q 1284 391 1588 391 
Q 1994 391 2212 530 
Q 2431 669 2431 922 
Q 2431 1156 2273 1281 
Q 2116 1406 1581 1522 
L 1381 1569 
Q 847 1681 609 1914 
Q 372 2147 372 2553 
Q 372 3047 722 3315 
Q 1072 3584 1716 3584 
Q 2034 3584 2315 3537 
Q 2597 3491 2834 3397 
z
" transform="scale(0.015625)"/>
       <path id="DejaVuSans-69" d="M 603 3500 
L 1178 3500 
L 1178 0 
L 603 0 
L 603 3500 
z
M 603 4863 
L 1178 4863 
L 1178 4134 
L 603 4134 
L 603 4863 
z
" transform="scale(0.015625)"/>
       <path id="DejaVuSans-74" d="M 1172 4494 
L 1172 3500 
L 2356 3500 
L 2356 3053 
L 1172 3053 
L 1172 1153 
Q 1172 725 1289 603 
Q 1406 481 1766 481 
L 2356 481 
L 2356 0 
L 1766 0 
Q 1100 0 847 248 
Q 594 497 594 1153 
L 594 3053 
L 172 3053 
L 172 3500 
L 594 3500 
L 594 4494 
L 1172 4494 
z
" transform="scale(0.015625)"/>
       <path id="DejaVuSans-79" d="M 2059 -325 
Q 1816 -950 1584 -1140 
Q 1353 -1331 966 -1331 
L 506 -1331 
L 506 -850 
L 844 -850 
Q 1081 -850 1212 -737 
Q 1344 -625 1503 -206 
L 1606 56 
L 191 3500 
L 800 3500 
L 1894 763 
L 2988 3500 
L 3597 3500 
L 2059 -325 
z
" transform="scale(0.015625)"/>
      </defs>
      <use xlink:href="#DejaVuSans-44"/>
      <use xlink:href="#DejaVuSans-65" x="77.001953"/>
      <use xlink:href="#DejaVuSans-6e" x="138.525391"/>
      <use xlink:href="#DejaVuSans-73" x="201.904297"/>
      <use xlink:href="#DejaVuSans-69" x="254.003906"/>
      <use xlink:href="#DejaVuSans-74" x="281.787109"/>
      <use xlink:href="#DejaVuSans-79" x="320.996094"/>
     </g>
    </g>
   </g>
   <g id="line2d_35">
    <path d="M 77.916136 466.45458 
L 81.538797 466.138448 
L 83.350127 465.861894 
L 85.161458 465.469539 
L 86.972788 464.928033 
L 88.784118 464.200985 
L 90.595448 463.251273 
L 92.406779 462.044153 
L 94.218109 460.55087 
L 96.029439 458.752314 
L 97.84077 456.642106 
L 99.6521 454.228477 
L 101.46343 451.534432 
L 105.086091 445.458317 
L 108.708751 438.783401 
L 126.822054 404.516213 
L 134.067376 391.41012 
L 141.312697 378.27496 
L 144.935357 371.292239 
L 150.369348 360.206911 
L 155.803339 349.132695 
L 159.426 342.324923 
L 163.04866 336.120377 
L 168.482651 327.116106 
L 170.293982 323.807356 
L 172.105312 320.143323 
L 173.916642 316.005253 
L 175.727972 311.289443 
L 177.539303 305.914786 
L 179.350633 299.827654 
L 181.161963 293.003918 
L 182.973294 285.448449 
L 184.784624 277.192866 
L 186.595954 268.292471 
L 190.218615 248.879599 
L 195.652606 217.39139 
L 199.275266 196.450689 
L 202.897927 177.025327 
L 204.709257 168.251507 
L 206.520588 160.258097 
L 208.331918 153.117469 
L 210.143248 146.858772 
L 211.954578 141.464588 
L 213.765909 136.871313 
L 215.577239 132.973174 
L 217.388569 129.629374 
L 221.01123 123.924341 
L 224.63389 118.31436 
L 226.445221 115.116926 
L 228.256551 111.473111 
L 230.067881 107.287716 
L 231.879212 102.509764 
L 233.690542 97.138997 
L 235.501872 91.230654 
L 239.124533 78.310596 
L 242.747193 65.304899 
L 244.558524 59.445787 
L 246.369854 54.419403 
L 248.181184 50.522047 
L 249.992515 48.019432 
L 251.803845 47.126599 
L 253.615175 47.991418 
L 255.426506 50.683659 
L 257.237836 55.191022 
L 259.049166 61.422605 
L 260.860496 69.219352 
L 262.671827 78.37007 
L 264.483157 88.630915 
L 268.105818 111.465945 
L 280.78513 195.911623 
L 284.40779 218.308588 
L 288.030451 239.539274 
L 291.653112 259.456481 
L 295.275772 277.847283 
L 298.898433 294.474766 
L 300.709763 302.063052 
L 302.521093 309.14462 
L 304.332424 315.712356 
L 306.143754 321.769142 
L 307.955084 327.328983 
L 309.766414 332.417631 
L 311.577745 337.072502 
L 313.389075 341.341714 
L 317.011736 348.956575 
L 320.634396 355.765485 
L 340.55903 391.365369 
L 344.18169 397.123225 
L 347.804351 402.358643 
L 351.427011 407.16725 
L 358.672333 416.187531 
L 364.106323 422.7237 
L 367.728984 426.805684 
L 371.351645 430.525769 
L 374.974305 433.8888 
L 378.596966 436.99322 
L 382.219626 439.879956 
L 385.842287 442.397778 
L 387.653617 443.424572 
L 389.464948 444.246453 
L 391.276278 444.842653 
L 393.087608 445.216379 
L 394.898938 445.39956 
L 402.14426 445.711589 
L 403.95559 446.135783 
L 405.76692 446.842158 
L 407.578251 447.854737 
L 409.389581 449.162664 
L 411.200911 450.723041 
L 414.823572 454.315322 
L 418.446232 457.976232 
L 420.257563 459.643207 
L 422.068893 461.131345 
L 423.880223 462.413148 
L 425.691554 463.48009 
L 427.502884 464.339388 
L 429.314214 465.009685 
L 431.125544 465.516518 
L 434.748205 466.152872 
L 438.370866 466.458583 
L 438.370866 466.458583 
" clip-path="url(#p9cb91cdaa8)" style="fill: none; stroke: #1f77b4; stroke-width: 1.5; stroke-linecap: square"/>
   </g>
   <g id="patch_3">
    <path d="M 47.855 466.664 
L 47.855 26.16 
" style="fill: none; stroke: #000000; stroke-width: 0.8; stroke-linejoin: miter; stroke-linecap: square"/>
   </g>
   <g id="patch_4">
    <path d="M 709.2 466.664 
L 709.2 26.16 
" style="fill: none; stroke: #000000; stroke-width: 0.8; stroke-linejoin: miter; stroke-linecap: square"/>
   </g>
   <g id="patch_5">
    <path d="M 47.855 466.664 
L 709.2 466.664 
" style="fill: none; stroke: #000000; stroke-width: 0.8; stroke-linejoin: miter; stroke-linecap: square"/>
   </g>
   <g id="patch_6">
    <path d="M 47.855 26.16 
L 709.2 26.16 
" style="fill: none; stroke: #000000; stroke-width: 0.8; stroke-linejoin: miter; stroke-linecap: square"/>
   </g>
   <g id="text_11">
    <!-- Ethiopia - 2015 -->
    <g transform="translate(332.842188 20.16)scale(0.12 -0.12)">
     <defs>
      <path id="DejaVuSans-45" d="M 628 4666 
L 3578 4666 
L 3578 4134 
L 1259 4134 
L 1259 2753 
L 3481 2753 
L 3481 2222 
L 1259 2222 
L 1259 531 
L 3634 531 
L 3634 0 
L 628 0 
L 628 4666 
z
" transform="scale(0.015625)"/>
      <path id="DejaVuSans-68" d="M 3513 2113 
L 3513 0 
L 2938 0 
L 2938 2094 
Q 2938 2591 2744 2837 
Q 2550 3084 2163 3084 
Q 1697 3084 1428 2787 
Q 1159 2491 1159 1978 
L 1159 0 
L 581 0 
L 581 4863 
L 1159 4863 
L 1159 2956 
Q 1366 3272 1645 3428 
Q 1925 3584 2291 3584 
Q 2894 3584 3203 3211 
Q 3513 2838 3513 2113 
z
" transform="scale(0.015625)"/>
      <path id="DejaVuSans-6f" d="M 1959 3097 
Q 1497 3097 1228 2736 
Q 959 2375 959 1747 
Q 959 1119 1226 758 
Q 1494 397 1959 397 
Q 2419 397 2687 759 
Q 2956 1122 2956 1747 
Q 2956 2369 2687 2733 
Q 2419 3097 1959 3097 
z
M 1959 3584 
Q 2709 3584 3137 3096 
Q 3566 2609 3566 1747 
Q 3566 888 3137 398 
Q 2709 -91 1959 -91 
Q 1206 -91 779 398 
Q 353 888 353 1747 
Q 353 2609 779 3096 
Q 1206 3584 1959 3584 
z
" transform="scale(0.015625)"/>
      <path id="DejaVuSans-70" d="M 1159 525 
L 1159 -1331 
L 581 -1331 
L 581 3500 
L 1159 3500 
L 1159 2969 
Q 1341 3281 1617 3432 
Q 1894 3584 2278 3584 
Q 2916 3584 3314 3078 
Q 3713 2572 3713 1747 
Q 3713 922 3314 415 
Q 2916 -91 2278 -91 
Q 1894 -91 1617 61 
Q 1341 213 1159 525 
z
M 3116 1747 
Q 3116 2381 2855 2742 
Q 2594 3103 2138 3103 
Q 1681 3103 1420 2742 
Q 1159 2381 1159 1747 
Q 1159 1113 1420 752 
Q 1681 391 2138 391 
Q 2594 391 2855 752 
Q 3116 1113 3116 1747 
z
" transform="scale(0.015625)"/>
      <path id="DejaVuSans-61" d="M 2194 1759 
Q 1497 1759 1228 1600 
Q 959 1441 959 1056 
Q 959 750 1161 570 
Q 1363 391 1709 391 
Q 2188 391 2477 730 
Q 2766 1069 2766 1631 
L 2766 1759 
L 2194 1759 
z
M 3341 1997 
L 3341 0 
L 2766 0 
L 2766 531 
Q 2569 213 2275 61 
Q 1981 -91 1556 -91 
Q 1019 -91 701 211 
Q 384 513 384 1019 
Q 384 1609 779 1909 
Q 1175 2209 1959 2209 
L 2766 2209 
L 2766 2266 
Q 2766 2663 2505 2880 
Q 2244 3097 1772 3097 
Q 1472 3097 1187 3025 
Q 903 2953 641 2809 
L 641 3341 
Q 956 3463 1253 3523 
Q 1550 3584 1831 3584 
Q 2591 3584 2966 3190 
Q 3341 2797 3341 1997 
z
" transform="scale(0.015625)"/>
      <path id="DejaVuSans-20" transform="scale(0.015625)"/>
      <path id="DejaVuSans-2d" d="M 313 2009 
L 1997 2009 
L 1997 1497 
L 313 1497 
L 313 2009 
z
" transform="scale(0.015625)"/>
     </defs>
     <use xlink:href="#DejaVuSans-45"/>
     <use xlink:href="#DejaVuSans-74" x="63.183594"/>
     <use xlink:href="#DejaVuSans-68" x="102.392578"/>
     <use xlink:href="#DejaVuSans-69" x="165.771484"/>
     <use xlink:href="#DejaVuSans-6f" x="193.554688"/>
     <use xlink:href="#DejaVuSans-70" x="254.736328"/>
     <use xlink:href="#DejaVuSans-69" x="318.212891"/>
     <use xlink:href="#DejaVuSans-61" x="345.996094"/>
     <use xlink:href="#DejaVuSans-20" x="407.275391"/>
     <use xlink:href="#DejaVuSans-2d" x="439.0625"/>
     <use xlink:href="#DejaVuSans-20" x="475.146484"/>
     <use xlink:href="#DejaVuSans-32" x="506.933594"/>
     <use xlink:href="#DejaVuSans-30" x="570.556641"/>
     <use xlink:href="#DejaVuSans-31" x="634.179688"/>
     <use xlink:href="#DejaVuSans-35" x="697.802734"/>
    </g>
   </g>
  </g>
  <g id="axes_2">
   <g id="patch_7">
    <path d="M 47.855 939.448 
L 709.2 939.448 
L 709.2 498.944 
L 47.855 498.944 
z
" style="fill: #ffffff"/>
   </g>
   <g id="matplotlib.axis_3">
    <g id="xtick_9">
     <g id="line2d_36">
      <path d="M 134.637339 939.448 
L 134.637339 498.944 
" clip-path="url(#p15962b92d4)" style="fill: none; stroke: #b0b0b0; stroke-width: 0.8; stroke-linecap: square"/>
     </g>
     <g id="line2d_37">
      <g>
       <use xlink:href="#m25f623ccf4" x="134.637339" y="939.448" style="stroke: #000000; stroke-width: 0.8"/>
      </g>
     </g>
    </g>
    <g id="xtick_10">
     <g id="line2d_38">
      <path d="M 201.864751 939.448 
L 201.864751 498.944 
" clip-path="url(#p15962b92d4)" style="fill: none; stroke: #b0b0b0; stroke-width: 0.8; stroke-linecap: square"/>
     </g>
     <g id="line2d_39">
      <g>
       <use xlink:href="#m25f623ccf4" x="201.864751" y="939.448" style="stroke: #000000; stroke-width: 0.8"/>
      </g>
     </g>
    </g>
    <g id="xtick_11">
     <g id="line2d_40">
      <path d="M 290.734555 939.448 
L 290.734555 498.944 
" clip-path="url(#p15962b92d4)" style="fill: none; stroke: #b0b0b0; stroke-width: 0.8; stroke-linecap: square"/>
     </g>
     <g id="line2d_41">
      <g>
       <use xlink:href="#m25f623ccf4" x="290.734555" y="939.448" style="stroke: #000000; stroke-width: 0.8"/>
      </g>
     </g>
    </g>
    <g id="xtick_12">
     <g id="line2d_42">
      <path d="M 357.961966 939.448 
L 357.961966 498.944 
" clip-path="url(#p15962b92d4)" style="fill: none; stroke: #b0b0b0; stroke-width: 0.8; stroke-linecap: square"/>
     </g>
     <g id="line2d_43">
      <g>
       <use xlink:href="#m25f623ccf4" x="357.961966" y="939.448" style="stroke: #000000; stroke-width: 0.8"/>
      </g>
     </g>
    </g>
    <g id="xtick_13">
     <g id="line2d_44">
      <path d="M 425.189378 939.448 
L 425.189378 498.944 
" clip-path="url(#p15962b92d4)" style="fill: none; stroke: #b0b0b0; stroke-width: 0.8; stroke-linecap: square"/>
     </g>
     <g id="line2d_45">
      <g>
       <use xlink:href="#m25f623ccf4" x="425.189378" y="939.448" style="stroke: #000000; stroke-width: 0.8"/>
      </g>
     </g>
    </g>
    <g id="xtick_14">
     <g id="line2d_46">
      <path d="M 514.059182 939.448 
L 514.059182 498.944 
" clip-path="url(#p15962b92d4)" style="fill: none; stroke: #b0b0b0; stroke-width: 0.8; stroke-linecap: square"/>
     </g>
     <g id="line2d_47">
      <g>
       <use xlink:href="#m25f623ccf4" x="514.059182" y="939.448" style="stroke: #000000; stroke-width: 0.8"/>
      </g>
     </g>
    </g>
    <g id="xtick_15">
     <g id="line2d_48">
      <path d="M 581.286593 939.448 
L 581.286593 498.944 
" clip-path="url(#p15962b92d4)" style="fill: none; stroke: #b0b0b0; stroke-width: 0.8; stroke-linecap: square"/>
     </g>
     <g id="line2d_49">
      <g>
       <use xlink:href="#m25f623ccf4" x="581.286593" y="939.448" style="stroke: #000000; stroke-width: 0.8"/>
      </g>
     </g>
    </g>
    <g id="xtick_16">
     <g id="line2d_50">
      <path d="M 648.514005 939.448 
L 648.514005 498.944 
" clip-path="url(#p15962b92d4)" style="fill: none; stroke: #b0b0b0; stroke-width: 0.8; stroke-linecap: square"/>
     </g>
     <g id="line2d_51">
      <g>
       <use xlink:href="#m25f623ccf4" x="648.514005" y="939.448" style="stroke: #000000; stroke-width: 0.8"/>
      </g>
     </g>
    </g>
   </g>
   <g id="matplotlib.axis_4">
    <g id="ytick_10">
     <g id="line2d_52">
      <path d="M 47.855 939.448 
L 709.2 939.448 
" clip-path="url(#p15962b92d4)" style="fill: none; stroke: #b0b0b0; stroke-width: 0.8; stroke-linecap: square"/>
     </g>
     <g id="line2d_53">
      <g>
       <use xlink:href="#m109413f58e" x="47.855" y="939.448" style="stroke: #000000; stroke-width: 0.8"/>
      </g>
     </g>
     <g id="text_12">
      <!-- 0.0 -->
      <g transform="translate(24.951875 943.247219)scale(0.1 -0.1)">
       <use xlink:href="#DejaVuSans-30"/>
       <use xlink:href="#DejaVuSans-2e" x="63.623047"/>
       <use xlink:href="#DejaVuSans-30" x="95.410156"/>
      </g>
     </g>
    </g>
    <g id="ytick_11">
     <g id="line2d_54">
      <path d="M 47.855 886.858187 
L 709.2 886.858187 
" clip-path="url(#p15962b92d4)" style="fill: none; stroke: #b0b0b0; stroke-width: 0.8; stroke-linecap: square"/>
     </g>
     <g id="line2d_55">
      <g>
       <use xlink:href="#m109413f58e" x="47.855" y="886.858187" style="stroke: #000000; stroke-width: 0.8"/>
      </g>
     </g>
     <g id="text_13">
      <!-- 0.1 -->
      <g transform="translate(24.951875 890.657405)scale(0.1 -0.1)">
       <use xlink:href="#DejaVuSans-30"/>
       <use xlink:href="#DejaVuSans-2e" x="63.623047"/>
       <use xlink:href="#DejaVuSans-31" x="95.410156"/>
      </g>
     </g>
    </g>
    <g id="ytick_12">
     <g id="line2d_56">
      <path d="M 47.855 834.268373 
L 709.2 834.268373 
" clip-path="url(#p15962b92d4)" style="fill: none; stroke: #b0b0b0; stroke-width: 0.8; stroke-linecap: square"/>
     </g>
     <g id="line2d_57">
      <g>
       <use xlink:href="#m109413f58e" x="47.855" y="834.268373" style="stroke: #000000; stroke-width: 0.8"/>
      </g>
     </g>
     <g id="text_14">
      <!-- 0.2 -->
      <g transform="translate(24.951875 838.067592)scale(0.1 -0.1)">
       <use xlink:href="#DejaVuSans-30"/>
       <use xlink:href="#DejaVuSans-2e" x="63.623047"/>
       <use xlink:href="#DejaVuSans-32" x="95.410156"/>
      </g>
     </g>
    </g>
    <g id="ytick_13">
     <g id="line2d_58">
      <path d="M 47.855 781.67856 
L 709.2 781.67856 
" clip-path="url(#p15962b92d4)" style="fill: none; stroke: #b0b0b0; stroke-width: 0.8; stroke-linecap: square"/>
     </g>
     <g id="line2d_59">
      <g>
       <use xlink:href="#m109413f58e" x="47.855" y="781.67856" style="stroke: #000000; stroke-width: 0.8"/>
      </g>
     </g>
     <g id="text_15">
      <!-- 0.3 -->
      <g transform="translate(24.951875 785.477778)scale(0.1 -0.1)">
       <use xlink:href="#DejaVuSans-30"/>
       <use xlink:href="#DejaVuSans-2e" x="63.623047"/>
       <use xlink:href="#DejaVuSans-33" x="95.410156"/>
      </g>
     </g>
    </g>
    <g id="ytick_14">
     <g id="line2d_60">
      <path d="M 47.855 729.088746 
L 709.2 729.088746 
" clip-path="url(#p15962b92d4)" style="fill: none; stroke: #b0b0b0; stroke-width: 0.8; stroke-linecap: square"/>
     </g>
     <g id="line2d_61">
      <g>
       <use xlink:href="#m109413f58e" x="47.855" y="729.088746" style="stroke: #000000; stroke-width: 0.8"/>
      </g>
     </g>
     <g id="text_16">
      <!-- 0.4 -->
      <g transform="translate(24.951875 732.887965)scale(0.1 -0.1)">
       <use xlink:href="#DejaVuSans-30"/>
       <use xlink:href="#DejaVuSans-2e" x="63.623047"/>
       <use xlink:href="#DejaVuSans-34" x="95.410156"/>
      </g>
     </g>
    </g>
    <g id="ytick_15">
     <g id="line2d_62">
      <path d="M 47.855 676.498933 
L 709.2 676.498933 
" clip-path="url(#p15962b92d4)" style="fill: none; stroke: #b0b0b0; stroke-width: 0.8; stroke-linecap: square"/>
     </g>
     <g id="line2d_63">
      <g>
       <use xlink:href="#m109413f58e" x="47.855" y="676.498933" style="stroke: #000000; stroke-width: 0.8"/>
      </g>
     </g>
     <g id="text_17">
      <!-- 0.5 -->
      <g transform="translate(24.951875 680.298151)scale(0.1 -0.1)">
       <use xlink:href="#DejaVuSans-30"/>
       <use xlink:href="#DejaVuSans-2e" x="63.623047"/>
       <use xlink:href="#DejaVuSans-35" x="95.410156"/>
      </g>
     </g>
    </g>
    <g id="ytick_16">
     <g id="line2d_64">
      <path d="M 47.855 623.909119 
L 709.2 623.909119 
" clip-path="url(#p15962b92d4)" style="fill: none; stroke: #b0b0b0; stroke-width: 0.8; stroke-linecap: square"/>
     </g>
     <g id="line2d_65">
      <g>
       <use xlink:href="#m109413f58e" x="47.855" y="623.909119" style="stroke: #000000; stroke-width: 0.8"/>
      </g>
     </g>
     <g id="text_18">
      <!-- 0.6 -->
      <g transform="translate(24.951875 627.708338)scale(0.1 -0.1)">
       <use xlink:href="#DejaVuSans-30"/>
       <use xlink:href="#DejaVuSans-2e" x="63.623047"/>
       <use xlink:href="#DejaVuSans-36" x="95.410156"/>
      </g>
     </g>
    </g>
    <g id="ytick_17">
     <g id="line2d_66">
      <path d="M 47.855 571.319306 
L 709.2 571.319306 
" clip-path="url(#p15962b92d4)" style="fill: none; stroke: #b0b0b0; stroke-width: 0.8; stroke-linecap: square"/>
     </g>
     <g id="line2d_67">
      <g>
       <use xlink:href="#m109413f58e" x="47.855" y="571.319306" style="stroke: #000000; stroke-width: 0.8"/>
      </g>
     </g>
     <g id="text_19">
      <!-- 0.7 -->
      <g transform="translate(24.951875 575.118524)scale(0.1 -0.1)">
       <use xlink:href="#DejaVuSans-30"/>
       <use xlink:href="#DejaVuSans-2e" x="63.623047"/>
       <use xlink:href="#DejaVuSans-37" x="95.410156"/>
      </g>
     </g>
    </g>
    <g id="ytick_18">
     <g id="line2d_68">
      <path d="M 47.855 518.729492 
L 709.2 518.729492 
" clip-path="url(#p15962b92d4)" style="fill: none; stroke: #b0b0b0; stroke-width: 0.8; stroke-linecap: square"/>
     </g>
     <g id="line2d_69">
      <g>
       <use xlink:href="#m109413f58e" x="47.855" y="518.729492" style="stroke: #000000; stroke-width: 0.8"/>
      </g>
     </g>
     <g id="text_20">
      <!-- 0.8 -->
      <g transform="translate(24.951875 522.528711)scale(0.1 -0.1)">
       <use xlink:href="#DejaVuSans-30"/>
       <use xlink:href="#DejaVuSans-2e" x="63.623047"/>
       <use xlink:href="#DejaVuSans-38" x="95.410156"/>
      </g>
     </g>
    </g>
    <g id="text_21">
     <!-- Density -->
     <g transform="translate(18.872188 738.204594)rotate(-90)scale(0.1 -0.1)">
      <use xlink:href="#DejaVuSans-44"/>
      <use xlink:href="#DejaVuSans-65" x="77.001953"/>
      <use xlink:href="#DejaVuSans-6e" x="138.525391"/>
      <use xlink:href="#DejaVuSans-73" x="201.904297"/>
      <use xlink:href="#DejaVuSans-69" x="254.003906"/>
      <use xlink:href="#DejaVuSans-74" x="281.787109"/>
      <use xlink:href="#DejaVuSans-79" x="320.996094"/>
     </g>
    </g>
   </g>
   <g id="line2d_70">
    <path d="M 128.006651 939.214481 
L 131.124243 938.874125 
L 132.683039 938.579981 
L 134.241835 938.165744 
L 135.800632 937.597708 
L 137.359428 936.839263 
L 138.918224 935.85324 
L 140.47702 934.605052 
L 142.035816 933.06638 
L 143.594612 931.218943 
L 145.153409 929.057759 
L 146.712205 926.593223 
L 148.271001 923.851434 
L 151.388593 917.706136 
L 156.064982 907.60879 
L 163.858963 890.30563 
L 166.976555 882.782136 
L 170.094147 874.329218 
L 173.211739 864.600624 
L 176.329332 853.391317 
L 179.446924 840.63508 
L 182.564516 826.36838 
L 185.682109 810.691923 
L 188.799701 793.745361 
L 191.917293 775.700952 
L 196.593682 747.06597 
L 209.064051 669.054573 
L 213.74044 641.938746 
L 216.858032 624.873364 
L 219.975624 608.697519 
L 223.093217 593.529675 
L 226.210809 579.506635 
L 229.328401 566.718253 
L 232.445994 555.178425 
L 235.563586 544.883426 
L 237.122382 540.225982 
L 238.681178 535.92944 
L 240.239975 532.034664 
L 241.798771 528.592003 
L 243.357567 525.656501 
L 244.916363 523.281749 
L 246.475159 521.513501 
L 248.033955 520.384212 
L 249.592752 519.909439 
L 251.151548 520.086659 
L 252.710344 520.896497 
L 254.26914 522.305905 
L 255.827936 524.272468 
L 257.386732 526.748854 
L 258.945528 529.686571 
L 260.504325 533.038422 
L 262.063121 536.759485 
L 265.180713 545.138591 
L 268.298305 554.487029 
L 272.974694 569.602609 
L 279.209879 590.630956 
L 282.327471 601.583608 
L 285.445063 613.193448 
L 288.562656 625.750826 
L 291.680248 639.353752 
L 296.356636 661.266916 
L 304.150617 698.221491 
L 308.827006 718.831491 
L 313.503394 738.033761 
L 318.179783 756.126305 
L 322.856171 773.306113 
L 327.53256 789.524386 
L 330.650152 799.682996 
L 333.767744 809.206138 
L 336.885337 818.010187 
L 340.002929 826.053321 
L 343.120521 833.35538 
L 346.238114 840.008075 
L 349.355706 846.173091 
L 357.149687 860.768787 
L 364.943668 875.134858 
L 368.06126 880.373455 
L 371.178852 885.102973 
L 374.296445 889.401049 
L 380.531629 897.820798 
L 383.649222 902.451482 
L 388.32561 909.647729 
L 389.884406 911.852495 
L 391.443202 913.817156 
L 393.001999 915.462314 
L 394.560795 916.729396 
L 396.119591 917.590791 
L 397.678387 918.056521 
L 399.237183 918.176152 
L 400.795979 918.035363 
L 405.472368 917.243455 
L 407.031164 917.269872 
L 408.58996 917.606304 
L 410.148756 918.302881 
L 411.707553 919.369561 
L 413.266349 920.77763 
L 414.825145 922.465951 
L 417.942737 926.336686 
L 421.06033 930.242565 
L 422.619126 932.009137 
L 424.177922 933.581234 
L 425.736718 934.93272 
L 427.295514 936.05691 
L 428.85431 936.96289 
L 430.413107 937.670983 
L 431.971903 938.208149 
L 435.089495 938.887339 
L 438.207087 939.21822 
L 438.207087 939.21822 
" clip-path="url(#p15962b92d4)" style="fill: none; stroke: #1f77b4; stroke-width: 1.5; stroke-linecap: square"/>
   </g>
   <g id="patch_8">
    <path d="M 47.855 939.448 
L 47.855 498.944 
" style="fill: none; stroke: #000000; stroke-width: 0.8; stroke-linejoin: miter; stroke-linecap: square"/>
   </g>
   <g id="patch_9">
    <path d="M 709.2 939.448 
L 709.2 498.944 
" style="fill: none; stroke: #000000; stroke-width: 0.8; stroke-linejoin: miter; stroke-linecap: square"/>
   </g>
   <g id="patch_10">
    <path d="M 47.855 939.448 
L 709.2 939.448 
" style="fill: none; stroke: #000000; stroke-width: 0.8; stroke-linejoin: miter; stroke-linecap: square"/>
   </g>
   <g id="patch_11">
    <path d="M 47.855 498.944 
L 709.2 498.944 
" style="fill: none; stroke: #000000; stroke-width: 0.8; stroke-linejoin: miter; stroke-linecap: square"/>
   </g>
   <g id="text_22">
    <!-- Bangladesh - 2016 -->
    <g transform="translate(322.10125 492.944)scale(0.12 -0.12)">
     <defs>
      <path id="DejaVuSans-42" d="M 1259 2228 
L 1259 519 
L 2272 519 
Q 2781 519 3026 730 
Q 3272 941 3272 1375 
Q 3272 1813 3026 2020 
Q 2781 2228 2272 2228 
L 1259 2228 
z
M 1259 4147 
L 1259 2741 
L 2194 2741 
Q 2656 2741 2882 2914 
Q 3109 3088 3109 3444 
Q 3109 3797 2882 3972 
Q 2656 4147 2194 4147 
L 1259 4147 
z
M 628 4666 
L 2241 4666 
Q 2963 4666 3353 4366 
Q 3744 4066 3744 3513 
Q 3744 3084 3544 2831 
Q 3344 2578 2956 2516 
Q 3422 2416 3680 2098 
Q 3938 1781 3938 1306 
Q 3938 681 3513 340 
Q 3088 0 2303 0 
L 628 0 
L 628 4666 
z
" transform="scale(0.015625)"/>
      <path id="DejaVuSans-67" d="M 2906 1791 
Q 2906 2416 2648 2759 
Q 2391 3103 1925 3103 
Q 1463 3103 1205 2759 
Q 947 2416 947 1791 
Q 947 1169 1205 825 
Q 1463 481 1925 481 
Q 2391 481 2648 825 
Q 2906 1169 2906 1791 
z
M 3481 434 
Q 3481 -459 3084 -895 
Q 2688 -1331 1869 -1331 
Q 1566 -1331 1297 -1286 
Q 1028 -1241 775 -1147 
L 775 -588 
Q 1028 -725 1275 -790 
Q 1522 -856 1778 -856 
Q 2344 -856 2625 -561 
Q 2906 -266 2906 331 
L 2906 616 
Q 2728 306 2450 153 
Q 2172 0 1784 0 
Q 1141 0 747 490 
Q 353 981 353 1791 
Q 353 2603 747 3093 
Q 1141 3584 1784 3584 
Q 2172 3584 2450 3431 
Q 2728 3278 2906 2969 
L 2906 3500 
L 3481 3500 
L 3481 434 
z
" transform="scale(0.015625)"/>
      <path id="DejaVuSans-6c" d="M 603 4863 
L 1178 4863 
L 1178 0 
L 603 0 
L 603 4863 
z
" transform="scale(0.015625)"/>
      <path id="DejaVuSans-64" d="M 2906 2969 
L 2906 4863 
L 3481 4863 
L 3481 0 
L 2906 0 
L 2906 525 
Q 2725 213 2448 61 
Q 2172 -91 1784 -91 
Q 1150 -91 751 415 
Q 353 922 353 1747 
Q 353 2572 751 3078 
Q 1150 3584 1784 3584 
Q 2172 3584 2448 3432 
Q 2725 3281 2906 2969 
z
M 947 1747 
Q 947 1113 1208 752 
Q 1469 391 1925 391 
Q 2381 391 2643 752 
Q 2906 1113 2906 1747 
Q 2906 2381 2643 2742 
Q 2381 3103 1925 3103 
Q 1469 3103 1208 2742 
Q 947 2381 947 1747 
z
" transform="scale(0.015625)"/>
     </defs>
     <use xlink:href="#DejaVuSans-42"/>
     <use xlink:href="#DejaVuSans-61" x="68.603516"/>
     <use xlink:href="#DejaVuSans-6e" x="129.882812"/>
     <use xlink:href="#DejaVuSans-67" x="193.261719"/>
     <use xlink:href="#DejaVuSans-6c" x="256.738281"/>
     <use xlink:href="#DejaVuSans-61" x="284.521484"/>
     <use xlink:href="#DejaVuSans-64" x="345.800781"/>
     <use xlink:href="#DejaVuSans-65" x="409.277344"/>
     <use xlink:href="#DejaVuSans-73" x="470.800781"/>
     <use xlink:href="#DejaVuSans-68" x="522.900391"/>
     <use xlink:href="#DejaVuSans-20" x="586.279297"/>
     <use xlink:href="#DejaVuSans-2d" x="618.066406"/>
     <use xlink:href="#DejaVuSans-20" x="654.150391"/>
     <use xlink:href="#DejaVuSans-32" x="685.9375"/>
     <use xlink:href="#DejaVuSans-30" x="749.560547"/>
     <use xlink:href="#DejaVuSans-31" x="813.183594"/>
     <use xlink:href="#DejaVuSans-36" x="876.806641"/>
    </g>
   </g>
  </g>
  <g id="axes_3">
   <g id="patch_12">
    <path d="M 47.855 1412.232 
L 709.2 1412.232 
L 709.2 971.728 
L 47.855 971.728 
z
" style="fill: #ffffff"/>
   </g>
   <g id="matplotlib.axis_5">
    <g id="xtick_17">
     <g id="line2d_71">
      <path d="M 134.637339 1412.232 
L 134.637339 971.728 
" clip-path="url(#p536f18f57a)" style="fill: none; stroke: #b0b0b0; stroke-width: 0.8; stroke-linecap: square"/>
     </g>
     <g id="line2d_72">
      <g>
       <use xlink:href="#m25f623ccf4" x="134.637339" y="1412.232" style="stroke: #000000; stroke-width: 0.8"/>
      </g>
     </g>
    </g>
    <g id="xtick_18">
     <g id="line2d_73">
      <path d="M 201.864751 1412.232 
L 201.864751 971.728 
" clip-path="url(#p536f18f57a)" style="fill: none; stroke: #b0b0b0; stroke-width: 0.8; stroke-linecap: square"/>
     </g>
     <g id="line2d_74">
      <g>
       <use xlink:href="#m25f623ccf4" x="201.864751" y="1412.232" style="stroke: #000000; stroke-width: 0.8"/>
      </g>
     </g>
    </g>
    <g id="xtick_19">
     <g id="line2d_75">
      <path d="M 290.734555 1412.232 
L 290.734555 971.728 
" clip-path="url(#p536f18f57a)" style="fill: none; stroke: #b0b0b0; stroke-width: 0.8; stroke-linecap: square"/>
     </g>
     <g id="line2d_76">
      <g>
       <use xlink:href="#m25f623ccf4" x="290.734555" y="1412.232" style="stroke: #000000; stroke-width: 0.8"/>
      </g>
     </g>
    </g>
    <g id="xtick_20">
     <g id="line2d_77">
      <path d="M 357.961966 1412.232 
L 357.961966 971.728 
" clip-path="url(#p536f18f57a)" style="fill: none; stroke: #b0b0b0; stroke-width: 0.8; stroke-linecap: square"/>
     </g>
     <g id="line2d_78">
      <g>
       <use xlink:href="#m25f623ccf4" x="357.961966" y="1412.232" style="stroke: #000000; stroke-width: 0.8"/>
      </g>
     </g>
    </g>
    <g id="xtick_21">
     <g id="line2d_79">
      <path d="M 425.189378 1412.232 
L 425.189378 971.728 
" clip-path="url(#p536f18f57a)" style="fill: none; stroke: #b0b0b0; stroke-width: 0.8; stroke-linecap: square"/>
     </g>
     <g id="line2d_80">
      <g>
       <use xlink:href="#m25f623ccf4" x="425.189378" y="1412.232" style="stroke: #000000; stroke-width: 0.8"/>
      </g>
     </g>
    </g>
    <g id="xtick_22">
     <g id="line2d_81">
      <path d="M 514.059182 1412.232 
L 514.059182 971.728 
" clip-path="url(#p536f18f57a)" style="fill: none; stroke: #b0b0b0; stroke-width: 0.8; stroke-linecap: square"/>
     </g>
     <g id="line2d_82">
      <g>
       <use xlink:href="#m25f623ccf4" x="514.059182" y="1412.232" style="stroke: #000000; stroke-width: 0.8"/>
      </g>
     </g>
    </g>
    <g id="xtick_23">
     <g id="line2d_83">
      <path d="M 581.286593 1412.232 
L 581.286593 971.728 
" clip-path="url(#p536f18f57a)" style="fill: none; stroke: #b0b0b0; stroke-width: 0.8; stroke-linecap: square"/>
     </g>
     <g id="line2d_84">
      <g>
       <use xlink:href="#m25f623ccf4" x="581.286593" y="1412.232" style="stroke: #000000; stroke-width: 0.8"/>
      </g>
     </g>
    </g>
    <g id="xtick_24">
     <g id="line2d_85">
      <path d="M 648.514005 1412.232 
L 648.514005 971.728 
" clip-path="url(#p536f18f57a)" style="fill: none; stroke: #b0b0b0; stroke-width: 0.8; stroke-linecap: square"/>
     </g>
     <g id="line2d_86">
      <g>
       <use xlink:href="#m25f623ccf4" x="648.514005" y="1412.232" style="stroke: #000000; stroke-width: 0.8"/>
      </g>
     </g>
    </g>
   </g>
   <g id="matplotlib.axis_6">
    <g id="ytick_19">
     <g id="line2d_87">
      <path d="M 47.855 1412.232 
L 709.2 1412.232 
" clip-path="url(#p536f18f57a)" style="fill: none; stroke: #b0b0b0; stroke-width: 0.8; stroke-linecap: square"/>
     </g>
     <g id="line2d_88">
      <g>
       <use xlink:href="#m109413f58e" x="47.855" y="1412.232" style="stroke: #000000; stroke-width: 0.8"/>
      </g>
     </g>
     <g id="text_23">
      <!-- 0.0 -->
      <g transform="translate(24.951875 1416.031219)scale(0.1 -0.1)">
       <use xlink:href="#DejaVuSans-30"/>
       <use xlink:href="#DejaVuSans-2e" x="63.623047"/>
       <use xlink:href="#DejaVuSans-30" x="95.410156"/>
      </g>
     </g>
    </g>
    <g id="ytick_20">
     <g id="line2d_89">
      <path d="M 47.855 1350.991642 
L 709.2 1350.991642 
" clip-path="url(#p536f18f57a)" style="fill: none; stroke: #b0b0b0; stroke-width: 0.8; stroke-linecap: square"/>
     </g>
     <g id="line2d_90">
      <g>
       <use xlink:href="#m109413f58e" x="47.855" y="1350.991642" style="stroke: #000000; stroke-width: 0.8"/>
      </g>
     </g>
     <g id="text_24">
      <!-- 0.1 -->
      <g transform="translate(24.951875 1354.790861)scale(0.1 -0.1)">
       <use xlink:href="#DejaVuSans-30"/>
       <use xlink:href="#DejaVuSans-2e" x="63.623047"/>
       <use xlink:href="#DejaVuSans-31" x="95.410156"/>
      </g>
     </g>
    </g>
    <g id="ytick_21">
     <g id="line2d_91">
      <path d="M 47.855 1289.751285 
L 709.2 1289.751285 
" clip-path="url(#p536f18f57a)" style="fill: none; stroke: #b0b0b0; stroke-width: 0.8; stroke-linecap: square"/>
     </g>
     <g id="line2d_92">
      <g>
       <use xlink:href="#m109413f58e" x="47.855" y="1289.751285" style="stroke: #000000; stroke-width: 0.8"/>
      </g>
     </g>
     <g id="text_25">
      <!-- 0.2 -->
      <g transform="translate(24.951875 1293.550503)scale(0.1 -0.1)">
       <use xlink:href="#DejaVuSans-30"/>
       <use xlink:href="#DejaVuSans-2e" x="63.623047"/>
       <use xlink:href="#DejaVuSans-32" x="95.410156"/>
      </g>
     </g>
    </g>
    <g id="ytick_22">
     <g id="line2d_93">
      <path d="M 47.855 1228.510927 
L 709.2 1228.510927 
" clip-path="url(#p536f18f57a)" style="fill: none; stroke: #b0b0b0; stroke-width: 0.8; stroke-linecap: square"/>
     </g>
     <g id="line2d_94">
      <g>
       <use xlink:href="#m109413f58e" x="47.855" y="1228.510927" style="stroke: #000000; stroke-width: 0.8"/>
      </g>
     </g>
     <g id="text_26">
      <!-- 0.3 -->
      <g transform="translate(24.951875 1232.310146)scale(0.1 -0.1)">
       <use xlink:href="#DejaVuSans-30"/>
       <use xlink:href="#DejaVuSans-2e" x="63.623047"/>
       <use xlink:href="#DejaVuSans-33" x="95.410156"/>
      </g>
     </g>
    </g>
    <g id="ytick_23">
     <g id="line2d_95">
      <path d="M 47.855 1167.270569 
L 709.2 1167.270569 
" clip-path="url(#p536f18f57a)" style="fill: none; stroke: #b0b0b0; stroke-width: 0.8; stroke-linecap: square"/>
     </g>
     <g id="line2d_96">
      <g>
       <use xlink:href="#m109413f58e" x="47.855" y="1167.270569" style="stroke: #000000; stroke-width: 0.8"/>
      </g>
     </g>
     <g id="text_27">
      <!-- 0.4 -->
      <g transform="translate(24.951875 1171.069788)scale(0.1 -0.1)">
       <use xlink:href="#DejaVuSans-30"/>
       <use xlink:href="#DejaVuSans-2e" x="63.623047"/>
       <use xlink:href="#DejaVuSans-34" x="95.410156"/>
      </g>
     </g>
    </g>
    <g id="ytick_24">
     <g id="line2d_97">
      <path d="M 47.855 1106.030212 
L 709.2 1106.030212 
" clip-path="url(#p536f18f57a)" style="fill: none; stroke: #b0b0b0; stroke-width: 0.8; stroke-linecap: square"/>
     </g>
     <g id="line2d_98">
      <g>
       <use xlink:href="#m109413f58e" x="47.855" y="1106.030212" style="stroke: #000000; stroke-width: 0.8"/>
      </g>
     </g>
     <g id="text_28">
      <!-- 0.5 -->
      <g transform="translate(24.951875 1109.829431)scale(0.1 -0.1)">
       <use xlink:href="#DejaVuSans-30"/>
       <use xlink:href="#DejaVuSans-2e" x="63.623047"/>
       <use xlink:href="#DejaVuSans-35" x="95.410156"/>
      </g>
     </g>
    </g>
    <g id="ytick_25">
     <g id="line2d_99">
      <path d="M 47.855 1044.789854 
L 709.2 1044.789854 
" clip-path="url(#p536f18f57a)" style="fill: none; stroke: #b0b0b0; stroke-width: 0.8; stroke-linecap: square"/>
     </g>
     <g id="line2d_100">
      <g>
       <use xlink:href="#m109413f58e" x="47.855" y="1044.789854" style="stroke: #000000; stroke-width: 0.8"/>
      </g>
     </g>
     <g id="text_29">
      <!-- 0.6 -->
      <g transform="translate(24.951875 1048.589073)scale(0.1 -0.1)">
       <use xlink:href="#DejaVuSans-30"/>
       <use xlink:href="#DejaVuSans-2e" x="63.623047"/>
       <use xlink:href="#DejaVuSans-36" x="95.410156"/>
      </g>
     </g>
    </g>
    <g id="ytick_26">
     <g id="line2d_101">
      <path d="M 47.855 983.549496 
L 709.2 983.549496 
" clip-path="url(#p536f18f57a)" style="fill: none; stroke: #b0b0b0; stroke-width: 0.8; stroke-linecap: square"/>
     </g>
     <g id="line2d_102">
      <g>
       <use xlink:href="#m109413f58e" x="47.855" y="983.549496" style="stroke: #000000; stroke-width: 0.8"/>
      </g>
     </g>
     <g id="text_30">
      <!-- 0.7 -->
      <g transform="translate(24.951875 987.348715)scale(0.1 -0.1)">
       <use xlink:href="#DejaVuSans-30"/>
       <use xlink:href="#DejaVuSans-2e" x="63.623047"/>
       <use xlink:href="#DejaVuSans-37" x="95.410156"/>
      </g>
     </g>
    </g>
    <g id="text_31">
     <!-- Density -->
     <g transform="translate(18.872188 1210.988594)rotate(-90)scale(0.1 -0.1)">
      <use xlink:href="#DejaVuSans-44"/>
      <use xlink:href="#DejaVuSans-65" x="77.001953"/>
      <use xlink:href="#DejaVuSans-6e" x="138.525391"/>
      <use xlink:href="#DejaVuSans-73" x="201.904297"/>
      <use xlink:href="#DejaVuSans-69" x="254.003906"/>
      <use xlink:href="#DejaVuSans-74" x="281.787109"/>
      <use xlink:href="#DejaVuSans-79" x="320.996094"/>
     </g>
    </g>
   </g>
   <g id="line2d_103">
    <path d="M 169.512741 1412.012232 
L 173.405871 1411.685764 
L 175.352436 1411.402386 
L 177.299001 1411.002763 
L 179.245566 1410.454824 
L 181.192132 1409.724473 
L 183.138697 1408.778283 
L 185.085262 1407.587045 
L 187.031827 1406.129813 
L 188.978392 1404.397934 
L 190.924957 1402.398374 
L 192.871522 1400.155614 
L 196.764652 1395.122989 
L 202.604348 1387.175555 
L 206.497478 1382.364975 
L 208.444043 1380.237046 
L 210.390608 1378.315045 
L 212.337173 1376.596558 
L 214.283738 1375.069124 
L 216.230303 1373.714658 
L 218.176869 1372.513205 
L 222.069999 1370.491768 
L 225.963129 1368.847879 
L 231.802824 1366.604386 
L 233.749389 1365.747937 
L 235.695955 1364.749328 
L 237.64252 1363.554699 
L 239.589085 1362.116343 
L 241.53565 1360.397428 
L 243.482215 1358.375298 
L 245.42878 1356.042673 
L 247.375345 1353.406451 
L 249.32191 1350.484329 
L 251.268475 1347.299912 
L 255.161606 1340.236246 
L 259.054736 1332.338466 
L 262.947866 1323.607398 
L 266.840996 1313.984362 
L 270.734127 1303.484998 
L 274.627257 1292.295849 
L 286.306647 1257.94192 
L 297.986038 1224.366716 
L 301.879168 1212.166382 
L 305.772298 1198.955694 
L 309.665429 1184.647632 
L 313.558559 1169.346718 
L 319.398254 1145.165044 
L 329.13108 1104.581622 
L 334.970775 1081.159123 
L 342.757036 1050.976048 
L 346.650166 1036.616111 
L 350.543296 1023.329044 
L 352.489861 1017.287896 
L 354.436426 1011.75981 
L 356.382991 1006.822817 
L 358.329556 1002.546026 
L 360.276122 998.987498 
L 362.222687 996.193468 
L 364.169252 994.198667 
L 366.115817 993.02727 
L 368.062382 992.693987 
L 370.008947 993.204876 
L 371.955512 994.557589 
L 373.902077 996.740986 
L 375.848642 999.734209 
L 377.795207 1003.505511 
L 379.741773 1008.011213 
L 381.688338 1013.195186 
L 383.634903 1018.98922 
L 385.581468 1025.314512 
L 389.474598 1039.207855 
L 393.367728 1054.159251 
L 414.779945 1138.892773 
L 420.61964 1163.326725 
L 430.352465 1204.400058 
L 434.245596 1219.965377 
L 438.138726 1234.74811 
L 442.031856 1248.727488 
L 445.924986 1261.904967 
L 449.818117 1274.238798 
L 453.711247 1285.648625 
L 457.604377 1296.074639 
L 461.497507 1305.543078 
L 465.390637 1314.191463 
L 469.283768 1322.2312 
L 475.123463 1333.55888 
L 479.016593 1340.719531 
L 482.909723 1347.491719 
L 486.802854 1353.764971 
L 490.695984 1359.480322 
L 494.589114 1364.647679 
L 498.482244 1369.288086 
L 502.375374 1373.371499 
L 504.32194 1375.184312 
L 506.268505 1376.839839 
L 510.161635 1379.728323 
L 517.947895 1384.944578 
L 519.89446 1386.456519 
L 521.841026 1388.140917 
L 523.787591 1390.008549 
L 527.680721 1394.209087 
L 533.520416 1400.848159 
L 535.466981 1402.879641 
L 537.413546 1404.723443 
L 539.360111 1406.344113 
L 541.306677 1407.724388 
L 543.253242 1408.863977 
L 545.199807 1409.776531 
L 547.146372 1410.485618 
L 549.092937 1411.0205 
L 552.986067 1411.691199 
L 556.879197 1412.01373 
L 556.879197 1412.01373 
" clip-path="url(#p536f18f57a)" style="fill: none; stroke: #1f77b4; stroke-width: 1.5; stroke-linecap: square"/>
   </g>
   <g id="patch_13">
    <path d="M 47.855 1412.232 
L 47.855 971.728 
" style="fill: none; stroke: #000000; stroke-width: 0.8; stroke-linejoin: miter; stroke-linecap: square"/>
   </g>
   <g id="patch_14">
    <path d="M 709.2 1412.232 
L 709.2 971.728 
" style="fill: none; stroke: #000000; stroke-width: 0.8; stroke-linejoin: miter; stroke-linecap: square"/>
   </g>
   <g id="patch_15">
    <path d="M 47.855 1412.232 
L 709.2 1412.232 
" style="fill: none; stroke: #000000; stroke-width: 0.8; stroke-linejoin: miter; stroke-linecap: square"/>
   </g>
   <g id="patch_16">
    <path d="M 47.855 971.728 
L 709.2 971.728 
" style="fill: none; stroke: #000000; stroke-width: 0.8; stroke-linejoin: miter; stroke-linecap: square"/>
   </g>
   <g id="text_32">
    <!-- Vietnam - 2018 -->
    <g transform="translate(332.275 965.728)scale(0.12 -0.12)">
     <defs>
      <path id="DejaVuSans-56" d="M 1831 0 
L 50 4666 
L 709 4666 
L 2188 738 
L 3669 4666 
L 4325 4666 
L 2547 0 
L 1831 0 
z
" transform="scale(0.015625)"/>
      <path id="DejaVuSans-6d" d="M 3328 2828 
Q 3544 3216 3844 3400 
Q 4144 3584 4550 3584 
Q 5097 3584 5394 3201 
Q 5691 2819 5691 2113 
L 5691 0 
L 5113 0 
L 5113 2094 
Q 5113 2597 4934 2840 
Q 4756 3084 4391 3084 
Q 3944 3084 3684 2787 
Q 3425 2491 3425 1978 
L 3425 0 
L 2847 0 
L 2847 2094 
Q 2847 2600 2669 2842 
Q 2491 3084 2119 3084 
Q 1678 3084 1418 2786 
Q 1159 2488 1159 1978 
L 1159 0 
L 581 0 
L 581 3500 
L 1159 3500 
L 1159 2956 
Q 1356 3278 1631 3431 
Q 1906 3584 2284 3584 
Q 2666 3584 2933 3390 
Q 3200 3197 3328 2828 
z
" transform="scale(0.015625)"/>
     </defs>
     <use xlink:href="#DejaVuSans-56"/>
     <use xlink:href="#DejaVuSans-69" x="66.158203"/>
     <use xlink:href="#DejaVuSans-65" x="93.941406"/>
     <use xlink:href="#DejaVuSans-74" x="155.464844"/>
     <use xlink:href="#DejaVuSans-6e" x="194.673828"/>
     <use xlink:href="#DejaVuSans-61" x="258.052734"/>
     <use xlink:href="#DejaVuSans-6d" x="319.332031"/>
     <use xlink:href="#DejaVuSans-20" x="416.744141"/>
     <use xlink:href="#DejaVuSans-2d" x="448.53125"/>
     <use xlink:href="#DejaVuSans-20" x="484.615234"/>
     <use xlink:href="#DejaVuSans-32" x="516.402344"/>
     <use xlink:href="#DejaVuSans-30" x="580.025391"/>
     <use xlink:href="#DejaVuSans-31" x="643.648438"/>
     <use xlink:href="#DejaVuSans-38" x="707.271484"/>
    </g>
   </g>
  </g>
  <g id="axes_4">
   <g id="patch_17">
    <path d="M 47.855 1885.016 
L 709.2 1885.016 
L 709.2 1444.512 
L 47.855 1444.512 
z
" style="fill: #ffffff"/>
   </g>
   <g id="matplotlib.axis_7">
    <g id="xtick_25">
     <g id="line2d_104">
      <path d="M 134.637339 1885.016 
L 134.637339 1444.512 
" clip-path="url(#p4c0ee3cda4)" style="fill: none; stroke: #b0b0b0; stroke-width: 0.8; stroke-linecap: square"/>
     </g>
     <g id="line2d_105">
      <g>
       <use xlink:href="#m25f623ccf4" x="134.637339" y="1885.016" style="stroke: #000000; stroke-width: 0.8"/>
      </g>
     </g>
    </g>
    <g id="xtick_26">
     <g id="line2d_106">
      <path d="M 201.864751 1885.016 
L 201.864751 1444.512 
" clip-path="url(#p4c0ee3cda4)" style="fill: none; stroke: #b0b0b0; stroke-width: 0.8; stroke-linecap: square"/>
     </g>
     <g id="line2d_107">
      <g>
       <use xlink:href="#m25f623ccf4" x="201.864751" y="1885.016" style="stroke: #000000; stroke-width: 0.8"/>
      </g>
     </g>
    </g>
    <g id="xtick_27">
     <g id="line2d_108">
      <path d="M 290.734555 1885.016 
L 290.734555 1444.512 
" clip-path="url(#p4c0ee3cda4)" style="fill: none; stroke: #b0b0b0; stroke-width: 0.8; stroke-linecap: square"/>
     </g>
     <g id="line2d_109">
      <g>
       <use xlink:href="#m25f623ccf4" x="290.734555" y="1885.016" style="stroke: #000000; stroke-width: 0.8"/>
      </g>
     </g>
    </g>
    <g id="xtick_28">
     <g id="line2d_110">
      <path d="M 357.961966 1885.016 
L 357.961966 1444.512 
" clip-path="url(#p4c0ee3cda4)" style="fill: none; stroke: #b0b0b0; stroke-width: 0.8; stroke-linecap: square"/>
     </g>
     <g id="line2d_111">
      <g>
       <use xlink:href="#m25f623ccf4" x="357.961966" y="1885.016" style="stroke: #000000; stroke-width: 0.8"/>
      </g>
     </g>
    </g>
    <g id="xtick_29">
     <g id="line2d_112">
      <path d="M 425.189378 1885.016 
L 425.189378 1444.512 
" clip-path="url(#p4c0ee3cda4)" style="fill: none; stroke: #b0b0b0; stroke-width: 0.8; stroke-linecap: square"/>
     </g>
     <g id="line2d_113">
      <g>
       <use xlink:href="#m25f623ccf4" x="425.189378" y="1885.016" style="stroke: #000000; stroke-width: 0.8"/>
      </g>
     </g>
    </g>
    <g id="xtick_30">
     <g id="line2d_114">
      <path d="M 514.059182 1885.016 
L 514.059182 1444.512 
" clip-path="url(#p4c0ee3cda4)" style="fill: none; stroke: #b0b0b0; stroke-width: 0.8; stroke-linecap: square"/>
     </g>
     <g id="line2d_115">
      <g>
       <use xlink:href="#m25f623ccf4" x="514.059182" y="1885.016" style="stroke: #000000; stroke-width: 0.8"/>
      </g>
     </g>
    </g>
    <g id="xtick_31">
     <g id="line2d_116">
      <path d="M 581.286593 1885.016 
L 581.286593 1444.512 
" clip-path="url(#p4c0ee3cda4)" style="fill: none; stroke: #b0b0b0; stroke-width: 0.8; stroke-linecap: square"/>
     </g>
     <g id="line2d_117">
      <g>
       <use xlink:href="#m25f623ccf4" x="581.286593" y="1885.016" style="stroke: #000000; stroke-width: 0.8"/>
      </g>
     </g>
    </g>
    <g id="xtick_32">
     <g id="line2d_118">
      <path d="M 648.514005 1885.016 
L 648.514005 1444.512 
" clip-path="url(#p4c0ee3cda4)" style="fill: none; stroke: #b0b0b0; stroke-width: 0.8; stroke-linecap: square"/>
     </g>
     <g id="line2d_119">
      <g>
       <use xlink:href="#m25f623ccf4" x="648.514005" y="1885.016" style="stroke: #000000; stroke-width: 0.8"/>
      </g>
     </g>
    </g>
   </g>
   <g id="matplotlib.axis_8">
    <g id="ytick_27">
     <g id="line2d_120">
      <path d="M 47.855 1885.016 
L 709.2 1885.016 
" clip-path="url(#p4c0ee3cda4)" style="fill: none; stroke: #b0b0b0; stroke-width: 0.8; stroke-linecap: square"/>
     </g>
     <g id="line2d_121">
      <g>
       <use xlink:href="#m109413f58e" x="47.855" y="1885.016" style="stroke: #000000; stroke-width: 0.8"/>
      </g>
     </g>
     <g id="text_33">
      <!-- 0.0 -->
      <g transform="translate(24.951875 1888.815219)scale(0.1 -0.1)">
       <use xlink:href="#DejaVuSans-30"/>
       <use xlink:href="#DejaVuSans-2e" x="63.623047"/>
       <use xlink:href="#DejaVuSans-30" x="95.410156"/>
      </g>
     </g>
    </g>
    <g id="ytick_28">
     <g id="line2d_122">
      <path d="M 47.855 1811.292971 
L 709.2 1811.292971 
" clip-path="url(#p4c0ee3cda4)" style="fill: none; stroke: #b0b0b0; stroke-width: 0.8; stroke-linecap: square"/>
     </g>
     <g id="line2d_123">
      <g>
       <use xlink:href="#m109413f58e" x="47.855" y="1811.292971" style="stroke: #000000; stroke-width: 0.8"/>
      </g>
     </g>
     <g id="text_34">
      <!-- 0.1 -->
      <g transform="translate(24.951875 1815.09219)scale(0.1 -0.1)">
       <use xlink:href="#DejaVuSans-30"/>
       <use xlink:href="#DejaVuSans-2e" x="63.623047"/>
       <use xlink:href="#DejaVuSans-31" x="95.410156"/>
      </g>
     </g>
    </g>
    <g id="ytick_29">
     <g id="line2d_124">
      <path d="M 47.855 1737.569943 
L 709.2 1737.569943 
" clip-path="url(#p4c0ee3cda4)" style="fill: none; stroke: #b0b0b0; stroke-width: 0.8; stroke-linecap: square"/>
     </g>
     <g id="line2d_125">
      <g>
       <use xlink:href="#m109413f58e" x="47.855" y="1737.569943" style="stroke: #000000; stroke-width: 0.8"/>
      </g>
     </g>
     <g id="text_35">
      <!-- 0.2 -->
      <g transform="translate(24.951875 1741.369161)scale(0.1 -0.1)">
       <use xlink:href="#DejaVuSans-30"/>
       <use xlink:href="#DejaVuSans-2e" x="63.623047"/>
       <use xlink:href="#DejaVuSans-32" x="95.410156"/>
      </g>
     </g>
    </g>
    <g id="ytick_30">
     <g id="line2d_126">
      <path d="M 47.855 1663.846914 
L 709.2 1663.846914 
" clip-path="url(#p4c0ee3cda4)" style="fill: none; stroke: #b0b0b0; stroke-width: 0.8; stroke-linecap: square"/>
     </g>
     <g id="line2d_127">
      <g>
       <use xlink:href="#m109413f58e" x="47.855" y="1663.846914" style="stroke: #000000; stroke-width: 0.8"/>
      </g>
     </g>
     <g id="text_36">
      <!-- 0.3 -->
      <g transform="translate(24.951875 1667.646133)scale(0.1 -0.1)">
       <use xlink:href="#DejaVuSans-30"/>
       <use xlink:href="#DejaVuSans-2e" x="63.623047"/>
       <use xlink:href="#DejaVuSans-33" x="95.410156"/>
      </g>
     </g>
    </g>
    <g id="ytick_31">
     <g id="line2d_128">
      <path d="M 47.855 1590.123885 
L 709.2 1590.123885 
" clip-path="url(#p4c0ee3cda4)" style="fill: none; stroke: #b0b0b0; stroke-width: 0.8; stroke-linecap: square"/>
     </g>
     <g id="line2d_129">
      <g>
       <use xlink:href="#m109413f58e" x="47.855" y="1590.123885" style="stroke: #000000; stroke-width: 0.8"/>
      </g>
     </g>
     <g id="text_37">
      <!-- 0.4 -->
      <g transform="translate(24.951875 1593.923104)scale(0.1 -0.1)">
       <use xlink:href="#DejaVuSans-30"/>
       <use xlink:href="#DejaVuSans-2e" x="63.623047"/>
       <use xlink:href="#DejaVuSans-34" x="95.410156"/>
      </g>
     </g>
    </g>
    <g id="ytick_32">
     <g id="line2d_130">
      <path d="M 47.855 1516.400857 
L 709.2 1516.400857 
" clip-path="url(#p4c0ee3cda4)" style="fill: none; stroke: #b0b0b0; stroke-width: 0.8; stroke-linecap: square"/>
     </g>
     <g id="line2d_131">
      <g>
       <use xlink:href="#m109413f58e" x="47.855" y="1516.400857" style="stroke: #000000; stroke-width: 0.8"/>
      </g>
     </g>
     <g id="text_38">
      <!-- 0.5 -->
      <g transform="translate(24.951875 1520.200076)scale(0.1 -0.1)">
       <use xlink:href="#DejaVuSans-30"/>
       <use xlink:href="#DejaVuSans-2e" x="63.623047"/>
       <use xlink:href="#DejaVuSans-35" x="95.410156"/>
      </g>
     </g>
    </g>
    <g id="text_39">
     <!-- Density -->
     <g transform="translate(18.872188 1683.772594)rotate(-90)scale(0.1 -0.1)">
      <use xlink:href="#DejaVuSans-44"/>
      <use xlink:href="#DejaVuSans-65" x="77.001953"/>
      <use xlink:href="#DejaVuSans-6e" x="138.525391"/>
      <use xlink:href="#DejaVuSans-73" x="201.904297"/>
      <use xlink:href="#DejaVuSans-69" x="254.003906"/>
      <use xlink:href="#DejaVuSans-74" x="281.787109"/>
      <use xlink:href="#DejaVuSans-79" x="320.996094"/>
     </g>
    </g>
   </g>
   <g id="line2d_132">
    <path d="M 207.972921 1884.77954 
L 212.229587 1884.439698 
L 214.35792 1884.147774 
L 216.486253 1883.738444 
L 218.614586 1883.179624 
L 220.742919 1882.436923 
L 222.871251 1881.476068 
L 224.999584 1880.266102 
L 227.127917 1878.783061 
L 229.25625 1877.013662 
L 231.384583 1874.958378 
L 233.512916 1872.633228 
L 235.641249 1870.069702 
L 239.897915 1864.415058 
L 261.181245 1834.568816 
L 265.437911 1827.810716 
L 269.694576 1820.395766 
L 273.951242 1812.429091 
L 280.336241 1799.8055 
L 284.592907 1791.034771 
L 288.849573 1781.862526 
L 293.106239 1772.083509 
L 297.362905 1761.514039 
L 301.619571 1750.069693 
L 305.876237 1737.764679 
L 310.132903 1724.643699 
L 314.389568 1710.711837 
L 318.646234 1695.932745 
L 322.9029 1680.310244 
L 329.287899 1655.675215 
L 337.801231 1622.593698 
L 342.057897 1606.786953 
L 348.442896 1584.201061 
L 363.341226 1533.18792 
L 367.597892 1518.960819 
L 371.854558 1505.515688 
L 373.982891 1499.258982 
L 376.111224 1493.405483 
L 378.239557 1488.018626 
L 380.36789 1483.152997 
L 382.496223 1478.851662 
L 384.624556 1475.144436 
L 386.752889 1472.047323 
L 388.881222 1469.563238 
L 391.009555 1467.683849 
L 393.137888 1466.392167 
L 395.266221 1465.665361 
L 397.394554 1465.477203 
L 399.522887 1465.799713 
L 401.65122 1466.603778 
L 403.779552 1467.858871 
L 405.907885 1469.532282 
L 408.036218 1471.588479 
L 410.164551 1473.989246 
L 412.292884 1476.695099 
L 414.421217 1479.668129 
L 416.54955 1482.876035 
L 420.806216 1489.922066 
L 422.934549 1493.761078 
L 425.062882 1497.839373 
L 427.191215 1502.196597 
L 429.319548 1506.880569 
L 431.447881 1511.939235 
L 433.576214 1517.411617 
L 435.704547 1523.319279 
L 437.83288 1529.659876 
L 442.089546 1543.49613 
L 446.346212 1558.402358 
L 454.859543 1588.617009 
L 459.116209 1602.941655 
L 463.372875 1616.628615 
L 476.142873 1656.29405 
L 488.912871 1696.127677 
L 493.169536 1708.864581 
L 497.426202 1721.08711 
L 501.682868 1732.793812 
L 508.067867 1749.549663 
L 514.452866 1765.540815 
L 518.709532 1775.775503 
L 522.966198 1785.584329 
L 527.222864 1794.864201 
L 531.47953 1803.526931 
L 535.736196 1811.526548 
L 539.992861 1818.855615 
L 544.249527 1825.509325 
L 548.506193 1831.448015 
L 550.634526 1834.126948 
L 552.762859 1836.600434 
L 554.891192 1838.863498 
L 557.019525 1840.916557 
L 559.147858 1842.766172 
L 561.276191 1844.424506 
L 563.404524 1845.907645 
L 565.532857 1847.233319 
L 569.789523 1849.480061 
L 574.046189 1851.290125 
L 584.687853 1855.170198 
L 586.816186 1856.172128 
L 588.944519 1857.36576 
L 591.072852 1858.785146 
L 593.201185 1860.444327 
L 595.329518 1862.333546 
L 599.586184 1866.645383 
L 605.971183 1873.448848 
L 608.099516 1875.515712 
L 610.227849 1877.3857 
L 612.356182 1879.025599 
L 614.484515 1880.420481 
L 616.612848 1881.571994 
L 618.741181 1882.495101 
L 620.869514 1883.21406 
L 622.997847 1883.758334 
L 625.12618 1884.158984 
L 629.382845 1884.645737 
L 631.511178 1884.781272 
L 631.511178 1884.781272 
" clip-path="url(#p4c0ee3cda4)" style="fill: none; stroke: #1f77b4; stroke-width: 1.5; stroke-linecap: square"/>
   </g>
   <g id="patch_18">
    <path d="M 47.855 1885.016 
L 47.855 1444.512 
" style="fill: none; stroke: #000000; stroke-width: 0.8; stroke-linejoin: miter; stroke-linecap: square"/>
   </g>
   <g id="patch_19">
    <path d="M 709.2 1885.016 
L 709.2 1444.512 
" style="fill: none; stroke: #000000; stroke-width: 0.8; stroke-linejoin: miter; stroke-linecap: square"/>
   </g>
   <g id="patch_20">
    <path d="M 47.855 1885.016 
L 709.2 1885.016 
" style="fill: none; stroke: #000000; stroke-width: 0.8; stroke-linejoin: miter; stroke-linecap: square"/>
   </g>
   <g id="patch_21">
    <path d="M 47.855 1444.512 
L 709.2 1444.512 
" style="fill: none; stroke: #000000; stroke-width: 0.8; stroke-linejoin: miter; stroke-linecap: square"/>
   </g>
   <g id="text_40">
    <!-- Turkiye - 2017 -->
    <g transform="translate(335.868438 1438.512)scale(0.12 -0.12)">
     <defs>
      <path id="DejaVuSans-54" d="M -19 4666 
L 3928 4666 
L 3928 4134 
L 2272 4134 
L 2272 0 
L 1638 0 
L 1638 4134 
L -19 4134 
L -19 4666 
z
" transform="scale(0.015625)"/>
      <path id="DejaVuSans-75" d="M 544 1381 
L 544 3500 
L 1119 3500 
L 1119 1403 
Q 1119 906 1312 657 
Q 1506 409 1894 409 
Q 2359 409 2629 706 
Q 2900 1003 2900 1516 
L 2900 3500 
L 3475 3500 
L 3475 0 
L 2900 0 
L 2900 538 
Q 2691 219 2414 64 
Q 2138 -91 1772 -91 
Q 1169 -91 856 284 
Q 544 659 544 1381 
z
M 1991 3584 
L 1991 3584 
z
" transform="scale(0.015625)"/>
      <path id="DejaVuSans-72" d="M 2631 2963 
Q 2534 3019 2420 3045 
Q 2306 3072 2169 3072 
Q 1681 3072 1420 2755 
Q 1159 2438 1159 1844 
L 1159 0 
L 581 0 
L 581 3500 
L 1159 3500 
L 1159 2956 
Q 1341 3275 1631 3429 
Q 1922 3584 2338 3584 
Q 2397 3584 2469 3576 
Q 2541 3569 2628 3553 
L 2631 2963 
z
" transform="scale(0.015625)"/>
      <path id="DejaVuSans-6b" d="M 581 4863 
L 1159 4863 
L 1159 1991 
L 2875 3500 
L 3609 3500 
L 1753 1863 
L 3688 0 
L 2938 0 
L 1159 1709 
L 1159 0 
L 581 0 
L 581 4863 
z
" transform="scale(0.015625)"/>
     </defs>
     <use xlink:href="#DejaVuSans-54"/>
     <use xlink:href="#DejaVuSans-75" x="45.958984"/>
     <use xlink:href="#DejaVuSans-72" x="109.337891"/>
     <use xlink:href="#DejaVuSans-6b" x="150.451172"/>
     <use xlink:href="#DejaVuSans-69" x="208.361328"/>
     <use xlink:href="#DejaVuSans-79" x="236.144531"/>
     <use xlink:href="#DejaVuSans-65" x="295.324219"/>
     <use xlink:href="#DejaVuSans-20" x="356.847656"/>
     <use xlink:href="#DejaVuSans-2d" x="388.634766"/>
     <use xlink:href="#DejaVuSans-20" x="424.71875"/>
     <use xlink:href="#DejaVuSans-32" x="456.505859"/>
     <use xlink:href="#DejaVuSans-30" x="520.128906"/>
     <use xlink:href="#DejaVuSans-31" x="583.751953"/>
     <use xlink:href="#DejaVuSans-37" x="647.375"/>
    </g>
   </g>
  </g>
  <g id="axes_5">
   <g id="patch_22">
    <path d="M 47.855 2357.8 
L 709.2 2357.8 
L 709.2 1917.296 
L 47.855 1917.296 
z
" style="fill: #ffffff"/>
   </g>
   <g id="matplotlib.axis_9">
    <g id="xtick_33">
     <g id="line2d_133">
      <path d="M 134.637339 2357.8 
L 134.637339 1917.296 
" clip-path="url(#p4f0117ddfb)" style="fill: none; stroke: #b0b0b0; stroke-width: 0.8; stroke-linecap: square"/>
     </g>
     <g id="line2d_134">
      <g>
       <use xlink:href="#m25f623ccf4" x="134.637339" y="2357.8" style="stroke: #000000; stroke-width: 0.8"/>
      </g>
     </g>
     <g id="text_41">
      <!-- 1 -->
      <g transform="translate(131.456089 2372.398438)scale(0.1 -0.1)">
       <use xlink:href="#DejaVuSans-31"/>
      </g>
     </g>
    </g>
    <g id="xtick_34">
     <g id="line2d_135">
      <path d="M 201.864751 2357.8 
L 201.864751 1917.296 
" clip-path="url(#p4f0117ddfb)" style="fill: none; stroke: #b0b0b0; stroke-width: 0.8; stroke-linecap: square"/>
     </g>
     <g id="line2d_136">
      <g>
       <use xlink:href="#m25f623ccf4" x="201.864751" y="2357.8" style="stroke: #000000; stroke-width: 0.8"/>
      </g>
     </g>
     <g id="text_42">
      <!-- 2 -->
      <g transform="translate(198.683501 2372.398438)scale(0.1 -0.1)">
       <use xlink:href="#DejaVuSans-32"/>
      </g>
     </g>
    </g>
    <g id="xtick_35">
     <g id="line2d_137">
      <path d="M 290.734555 2357.8 
L 290.734555 1917.296 
" clip-path="url(#p4f0117ddfb)" style="fill: none; stroke: #b0b0b0; stroke-width: 0.8; stroke-linecap: square"/>
     </g>
     <g id="line2d_138">
      <g>
       <use xlink:href="#m25f623ccf4" x="290.734555" y="2357.8" style="stroke: #000000; stroke-width: 0.8"/>
      </g>
     </g>
     <g id="text_43">
      <!-- 5 -->
      <g transform="translate(287.553305 2372.398438)scale(0.1 -0.1)">
       <use xlink:href="#DejaVuSans-35"/>
      </g>
     </g>
    </g>
    <g id="xtick_36">
     <g id="line2d_139">
      <path d="M 357.961966 2357.8 
L 357.961966 1917.296 
" clip-path="url(#p4f0117ddfb)" style="fill: none; stroke: #b0b0b0; stroke-width: 0.8; stroke-linecap: square"/>
     </g>
     <g id="line2d_140">
      <g>
       <use xlink:href="#m25f623ccf4" x="357.961966" y="2357.8" style="stroke: #000000; stroke-width: 0.8"/>
      </g>
     </g>
     <g id="text_44">
      <!-- 10 -->
      <g transform="translate(351.599466 2372.398438)scale(0.1 -0.1)">
       <use xlink:href="#DejaVuSans-31"/>
       <use xlink:href="#DejaVuSans-30" x="63.623047"/>
      </g>
     </g>
    </g>
    <g id="xtick_37">
     <g id="line2d_141">
      <path d="M 425.189378 2357.8 
L 425.189378 1917.296 
" clip-path="url(#p4f0117ddfb)" style="fill: none; stroke: #b0b0b0; stroke-width: 0.8; stroke-linecap: square"/>
     </g>
     <g id="line2d_142">
      <g>
       <use xlink:href="#m25f623ccf4" x="425.189378" y="2357.8" style="stroke: #000000; stroke-width: 0.8"/>
      </g>
     </g>
     <g id="text_45">
      <!-- 20 -->
      <g transform="translate(418.826878 2372.398438)scale(0.1 -0.1)">
       <use xlink:href="#DejaVuSans-32"/>
       <use xlink:href="#DejaVuSans-30" x="63.623047"/>
      </g>
     </g>
    </g>
    <g id="xtick_38">
     <g id="line2d_143">
      <path d="M 514.059182 2357.8 
L 514.059182 1917.296 
" clip-path="url(#p4f0117ddfb)" style="fill: none; stroke: #b0b0b0; stroke-width: 0.8; stroke-linecap: square"/>
     </g>
     <g id="line2d_144">
      <g>
       <use xlink:href="#m25f623ccf4" x="514.059182" y="2357.8" style="stroke: #000000; stroke-width: 0.8"/>
      </g>
     </g>
     <g id="text_46">
      <!-- 50 -->
      <g transform="translate(507.696682 2372.398438)scale(0.1 -0.1)">
       <use xlink:href="#DejaVuSans-35"/>
       <use xlink:href="#DejaVuSans-30" x="63.623047"/>
      </g>
     </g>
    </g>
    <g id="xtick_39">
     <g id="line2d_145">
      <path d="M 581.286593 2357.8 
L 581.286593 1917.296 
" clip-path="url(#p4f0117ddfb)" style="fill: none; stroke: #b0b0b0; stroke-width: 0.8; stroke-linecap: square"/>
     </g>
     <g id="line2d_146">
      <g>
       <use xlink:href="#m25f623ccf4" x="581.286593" y="2357.8" style="stroke: #000000; stroke-width: 0.8"/>
      </g>
     </g>
     <g id="text_47">
      <!-- 100 -->
      <g transform="translate(571.742843 2372.398438)scale(0.1 -0.1)">
       <use xlink:href="#DejaVuSans-31"/>
       <use xlink:href="#DejaVuSans-30" x="63.623047"/>
       <use xlink:href="#DejaVuSans-30" x="127.246094"/>
      </g>
     </g>
    </g>
    <g id="xtick_40">
     <g id="line2d_147">
      <path d="M 648.514005 2357.8 
L 648.514005 1917.296 
" clip-path="url(#p4f0117ddfb)" style="fill: none; stroke: #b0b0b0; stroke-width: 0.8; stroke-linecap: square"/>
     </g>
     <g id="line2d_148">
      <g>
       <use xlink:href="#m25f623ccf4" x="648.514005" y="2357.8" style="stroke: #000000; stroke-width: 0.8"/>
      </g>
     </g>
     <g id="text_48">
      <!-- 200 -->
      <g transform="translate(638.970255 2372.398438)scale(0.1 -0.1)">
       <use xlink:href="#DejaVuSans-32"/>
       <use xlink:href="#DejaVuSans-30" x="63.623047"/>
       <use xlink:href="#DejaVuSans-30" x="127.246094"/>
      </g>
     </g>
    </g>
    <g id="text_49">
     <!-- Income -->
     <g transform="translate(360.128281 2386.076563)scale(0.1 -0.1)">
      <defs>
       <path id="DejaVuSans-49" d="M 628 4666 
L 1259 4666 
L 1259 0 
L 628 0 
L 628 4666 
z
" transform="scale(0.015625)"/>
       <path id="DejaVuSans-63" d="M 3122 3366 
L 3122 2828 
Q 2878 2963 2633 3030 
Q 2388 3097 2138 3097 
Q 1578 3097 1268 2742 
Q 959 2388 959 1747 
Q 959 1106 1268 751 
Q 1578 397 2138 397 
Q 2388 397 2633 464 
Q 2878 531 3122 666 
L 3122 134 
Q 2881 22 2623 -34 
Q 2366 -91 2075 -91 
Q 1284 -91 818 406 
Q 353 903 353 1747 
Q 353 2603 823 3093 
Q 1294 3584 2113 3584 
Q 2378 3584 2631 3529 
Q 2884 3475 3122 3366 
z
" transform="scale(0.015625)"/>
      </defs>
      <use xlink:href="#DejaVuSans-49"/>
      <use xlink:href="#DejaVuSans-6e" x="29.492188"/>
      <use xlink:href="#DejaVuSans-63" x="92.871094"/>
      <use xlink:href="#DejaVuSans-6f" x="147.851562"/>
      <use xlink:href="#DejaVuSans-6d" x="209.033203"/>
      <use xlink:href="#DejaVuSans-65" x="306.445312"/>
     </g>
    </g>
   </g>
   <g id="matplotlib.axis_10">
    <g id="ytick_33">
     <g id="line2d_149">
      <path d="M 47.855 2357.8 
L 709.2 2357.8 
" clip-path="url(#p4f0117ddfb)" style="fill: none; stroke: #b0b0b0; stroke-width: 0.8; stroke-linecap: square"/>
     </g>
     <g id="line2d_150">
      <g>
       <use xlink:href="#m109413f58e" x="47.855" y="2357.8" style="stroke: #000000; stroke-width: 0.8"/>
      </g>
     </g>
     <g id="text_50">
      <!-- 0.0 -->
      <g transform="translate(24.951875 2361.599219)scale(0.1 -0.1)">
       <use xlink:href="#DejaVuSans-30"/>
       <use xlink:href="#DejaVuSans-2e" x="63.623047"/>
       <use xlink:href="#DejaVuSans-30" x="95.410156"/>
      </g>
     </g>
    </g>
    <g id="ytick_34">
     <g id="line2d_151">
      <path d="M 47.855 2278.779675 
L 709.2 2278.779675 
" clip-path="url(#p4f0117ddfb)" style="fill: none; stroke: #b0b0b0; stroke-width: 0.8; stroke-linecap: square"/>
     </g>
     <g id="line2d_152">
      <g>
       <use xlink:href="#m109413f58e" x="47.855" y="2278.779675" style="stroke: #000000; stroke-width: 0.8"/>
      </g>
     </g>
     <g id="text_51">
      <!-- 0.1 -->
      <g transform="translate(24.951875 2282.578894)scale(0.1 -0.1)">
       <use xlink:href="#DejaVuSans-30"/>
       <use xlink:href="#DejaVuSans-2e" x="63.623047"/>
       <use xlink:href="#DejaVuSans-31" x="95.410156"/>
      </g>
     </g>
    </g>
    <g id="ytick_35">
     <g id="line2d_153">
      <path d="M 47.855 2199.75935 
L 709.2 2199.75935 
" clip-path="url(#p4f0117ddfb)" style="fill: none; stroke: #b0b0b0; stroke-width: 0.8; stroke-linecap: square"/>
     </g>
     <g id="line2d_154">
      <g>
       <use xlink:href="#m109413f58e" x="47.855" y="2199.75935" style="stroke: #000000; stroke-width: 0.8"/>
      </g>
     </g>
     <g id="text_52">
      <!-- 0.2 -->
      <g transform="translate(24.951875 2203.558568)scale(0.1 -0.1)">
       <use xlink:href="#DejaVuSans-30"/>
       <use xlink:href="#DejaVuSans-2e" x="63.623047"/>
       <use xlink:href="#DejaVuSans-32" x="95.410156"/>
      </g>
     </g>
    </g>
    <g id="ytick_36">
     <g id="line2d_155">
      <path d="M 47.855 2120.739025 
L 709.2 2120.739025 
" clip-path="url(#p4f0117ddfb)" style="fill: none; stroke: #b0b0b0; stroke-width: 0.8; stroke-linecap: square"/>
     </g>
     <g id="line2d_156">
      <g>
       <use xlink:href="#m109413f58e" x="47.855" y="2120.739025" style="stroke: #000000; stroke-width: 0.8"/>
      </g>
     </g>
     <g id="text_53">
      <!-- 0.3 -->
      <g transform="translate(24.951875 2124.538243)scale(0.1 -0.1)">
       <use xlink:href="#DejaVuSans-30"/>
       <use xlink:href="#DejaVuSans-2e" x="63.623047"/>
       <use xlink:href="#DejaVuSans-33" x="95.410156"/>
      </g>
     </g>
    </g>
    <g id="ytick_37">
     <g id="line2d_157">
      <path d="M 47.855 2041.718699 
L 709.2 2041.718699 
" clip-path="url(#p4f0117ddfb)" style="fill: none; stroke: #b0b0b0; stroke-width: 0.8; stroke-linecap: square"/>
     </g>
     <g id="line2d_158">
      <g>
       <use xlink:href="#m109413f58e" x="47.855" y="2041.718699" style="stroke: #000000; stroke-width: 0.8"/>
      </g>
     </g>
     <g id="text_54">
      <!-- 0.4 -->
      <g transform="translate(24.951875 2045.517918)scale(0.1 -0.1)">
       <use xlink:href="#DejaVuSans-30"/>
       <use xlink:href="#DejaVuSans-2e" x="63.623047"/>
       <use xlink:href="#DejaVuSans-34" x="95.410156"/>
      </g>
     </g>
    </g>
    <g id="ytick_38">
     <g id="line2d_159">
      <path d="M 47.855 1962.698374 
L 709.2 1962.698374 
" clip-path="url(#p4f0117ddfb)" style="fill: none; stroke: #b0b0b0; stroke-width: 0.8; stroke-linecap: square"/>
     </g>
     <g id="line2d_160">
      <g>
       <use xlink:href="#m109413f58e" x="47.855" y="1962.698374" style="stroke: #000000; stroke-width: 0.8"/>
      </g>
     </g>
     <g id="text_55">
      <!-- 0.5 -->
      <g transform="translate(24.951875 1966.497593)scale(0.1 -0.1)">
       <use xlink:href="#DejaVuSans-30"/>
       <use xlink:href="#DejaVuSans-2e" x="63.623047"/>
       <use xlink:href="#DejaVuSans-35" x="95.410156"/>
      </g>
     </g>
    </g>
    <g id="text_56">
     <!-- Density -->
     <g transform="translate(18.872188 2156.556594)rotate(-90)scale(0.1 -0.1)">
      <use xlink:href="#DejaVuSans-44"/>
      <use xlink:href="#DejaVuSans-65" x="77.001953"/>
      <use xlink:href="#DejaVuSans-6e" x="138.525391"/>
      <use xlink:href="#DejaVuSans-73" x="201.904297"/>
      <use xlink:href="#DejaVuSans-69" x="254.003906"/>
      <use xlink:href="#DejaVuSans-74" x="281.787109"/>
      <use xlink:href="#DejaVuSans-79" x="320.996094"/>
     </g>
    </g>
   </g>
   <g id="line2d_161">
    <path d="M 179.096787 2357.564098 
L 184.122336 2357.17337 
L 186.63511 2356.823428 
L 189.147884 2356.322818 
L 191.660658 2355.631299 
L 194.173433 2354.709696 
L 196.686207 2353.525956 
L 199.198981 2352.062632 
L 201.711755 2350.324804 
L 204.22453 2348.347026 
L 214.275627 2339.864533 
L 216.788401 2338.263853 
L 219.301175 2337.146142 
L 221.813949 2336.606654 
L 224.326724 2336.69264 
L 226.839498 2337.396513 
L 229.352272 2338.65696 
L 231.865046 2340.367748 
L 234.377821 2342.392501 
L 241.916143 2348.906259 
L 244.428918 2350.823986 
L 246.941692 2352.489122 
L 249.454466 2353.875708 
L 251.96724 2354.985557 
L 254.480015 2355.840887 
L 256.992789 2356.476382 
L 259.505563 2356.932035 
L 264.531112 2357.458736 
L 269.55666 2357.680916 
L 279.607757 2357.789572 
L 299.709951 2357.72154 
L 304.7355 2357.565066 
L 309.761048 2357.175526 
L 312.273823 2356.826394 
L 314.786597 2356.326607 
L 317.299371 2355.635614 
L 319.812145 2354.713612 
L 322.32492 2353.527374 
L 324.837694 2352.057394 
L 327.350468 2350.305325 
L 329.863242 2348.300243 
L 334.888791 2343.799847 
L 339.914339 2339.34247 
L 342.427114 2337.425633 
L 344.939888 2335.846998 
L 347.452662 2334.657384 
L 349.965436 2333.855867 
L 352.478211 2333.386988 
L 357.503759 2333.000276 
L 360.016533 2332.797284 
L 362.529308 2332.399677 
L 365.042082 2331.698305 
L 367.554856 2330.62617 
L 370.06763 2329.162234 
L 372.580405 2327.326335 
L 375.093179 2325.167215 
L 377.605953 2322.747072 
L 382.631502 2317.352875 
L 387.65705 2311.441251 
L 392.682599 2305.036363 
L 397.708147 2298.023109 
L 402.733696 2290.289122 
L 405.24647 2286.119644 
L 407.759244 2281.723175 
L 410.272018 2277.070455 
L 412.784793 2272.123537 
L 415.297567 2266.838646 
L 417.810341 2261.171639 
L 420.323115 2255.085145 
L 422.83589 2248.556057 
L 425.348664 2241.581858 
L 427.861438 2234.184456 
L 432.886987 2218.328868 
L 440.425309 2193.098674 
L 447.963632 2168.054898 
L 452.989181 2152.031587 
L 463.040278 2121.11822 
L 470.578601 2097.739846 
L 478.116923 2073.469585 
L 493.193569 2024.102869 
L 498.219117 2008.748371 
L 500.731892 2001.515209 
L 503.244666 1994.6324 
L 505.75744 1988.128059 
L 508.270214 1982.019486 
L 510.782989 1976.314081 
L 513.295763 1971.011436 
L 515.808537 1966.106191 
L 518.321311 1961.591157 
L 520.834086 1957.460135 
L 523.34686 1953.710024 
L 525.859634 1950.341946 
L 528.372408 1947.361416 
L 530.885183 1944.777726 
L 533.397957 1942.602893 
L 535.910731 1940.850541 
L 538.423505 1939.534988 
L 540.93628 1938.670717 
L 543.449054 1938.272195 
L 545.961828 1938.353913 
L 548.474602 1938.930415 
L 550.987377 1940.0161 
L 553.500151 1941.624608 
L 556.012925 1943.767748 
L 558.525699 1946.453982 
L 561.038474 1949.686634 
L 563.551248 1953.462059 
L 566.064022 1957.768068 
L 568.576796 1962.582931 
L 571.089571 1967.875202 
L 573.602345 1973.604499 
L 576.115119 1979.723136 
L 581.140668 1992.913507 
L 586.166216 2006.98505 
L 593.704539 2028.475657 
L 596.217313 2035.301122 
L 598.730088 2041.673909 
L 601.242862 2047.362469 
L 603.755636 2052.107263 
L 606.26841 2055.64899 
L 608.781185 2057.772595 
L 611.293959 2058.363649 
L 613.806733 2057.469087 
L 616.319507 2055.350215 
L 621.345056 2049.707367 
L 623.85783 2047.871903 
L 626.370604 2048.048705 
L 628.883379 2051.252856 
L 631.396153 2058.330636 
L 633.908927 2069.826564 
L 636.421701 2085.885851 
L 638.934476 2106.212641 
L 641.44725 2130.093827 
L 643.960024 2156.484927 
L 648.985573 2211.775077 
L 651.498347 2238.195516 
L 654.011121 2262.434055 
L 656.523895 2283.813607 
L 659.03667 2301.972207 
L 661.549444 2316.841082 
L 664.062218 2328.590053 
L 666.574992 2337.555706 
L 669.087767 2344.167177 
L 671.600541 2348.881021 
L 674.113315 2352.131915 
L 676.626089 2354.301324 
L 679.138864 2355.702612 
L 679.138864 2355.702612 
" clip-path="url(#p4f0117ddfb)" style="fill: none; stroke: #1f77b4; stroke-width: 1.5; stroke-linecap: square"/>
   </g>
   <g id="patch_23">
    <path d="M 47.855 2357.8 
L 47.855 1917.296 
" style="fill: none; stroke: #000000; stroke-width: 0.8; stroke-linejoin: miter; stroke-linecap: square"/>
   </g>
   <g id="patch_24">
    <path d="M 709.2 2357.8 
L 709.2 1917.296 
" style="fill: none; stroke: #000000; stroke-width: 0.8; stroke-linejoin: miter; stroke-linecap: square"/>
   </g>
   <g id="patch_25">
    <path d="M 47.855 2357.8 
L 709.2 2357.8 
" style="fill: none; stroke: #000000; stroke-width: 0.8; stroke-linejoin: miter; stroke-linecap: square"/>
   </g>
   <g id="patch_26">
    <path d="M 47.855 1917.296 
L 709.2 1917.296 
" style="fill: none; stroke: #000000; stroke-width: 0.8; stroke-linejoin: miter; stroke-linecap: square"/>
   </g>
   <g id="text_57">
    <!-- United States - 2019 -->
    <g transform="translate(316.650625 1911.296)scale(0.12 -0.12)">
     <defs>
      <path id="DejaVuSans-55" d="M 556 4666 
L 1191 4666 
L 1191 1831 
Q 1191 1081 1462 751 
Q 1734 422 2344 422 
Q 2950 422 3222 751 
Q 3494 1081 3494 1831 
L 3494 4666 
L 4128 4666 
L 4128 1753 
Q 4128 841 3676 375 
Q 3225 -91 2344 -91 
Q 1459 -91 1007 375 
Q 556 841 556 1753 
L 556 4666 
z
" transform="scale(0.015625)"/>
      <path id="DejaVuSans-53" d="M 3425 4513 
L 3425 3897 
Q 3066 4069 2747 4153 
Q 2428 4238 2131 4238 
Q 1616 4238 1336 4038 
Q 1056 3838 1056 3469 
Q 1056 3159 1242 3001 
Q 1428 2844 1947 2747 
L 2328 2669 
Q 3034 2534 3370 2195 
Q 3706 1856 3706 1288 
Q 3706 609 3251 259 
Q 2797 -91 1919 -91 
Q 1588 -91 1214 -16 
Q 841 59 441 206 
L 441 856 
Q 825 641 1194 531 
Q 1563 422 1919 422 
Q 2459 422 2753 634 
Q 3047 847 3047 1241 
Q 3047 1584 2836 1778 
Q 2625 1972 2144 2069 
L 1759 2144 
Q 1053 2284 737 2584 
Q 422 2884 422 3419 
Q 422 4038 858 4394 
Q 1294 4750 2059 4750 
Q 2388 4750 2728 4690 
Q 3069 4631 3425 4513 
z
" transform="scale(0.015625)"/>
      <path id="DejaVuSans-39" d="M 703 97 
L 703 672 
Q 941 559 1184 500 
Q 1428 441 1663 441 
Q 2288 441 2617 861 
Q 2947 1281 2994 2138 
Q 2813 1869 2534 1725 
Q 2256 1581 1919 1581 
Q 1219 1581 811 2004 
Q 403 2428 403 3163 
Q 403 3881 828 4315 
Q 1253 4750 1959 4750 
Q 2769 4750 3195 4129 
Q 3622 3509 3622 2328 
Q 3622 1225 3098 567 
Q 2575 -91 1691 -91 
Q 1453 -91 1209 -44 
Q 966 3 703 97 
z
M 1959 2075 
Q 2384 2075 2632 2365 
Q 2881 2656 2881 3163 
Q 2881 3666 2632 3958 
Q 2384 4250 1959 4250 
Q 1534 4250 1286 3958 
Q 1038 3666 1038 3163 
Q 1038 2656 1286 2365 
Q 1534 2075 1959 2075 
z
" transform="scale(0.015625)"/>
     </defs>
     <use xlink:href="#DejaVuSans-55"/>
     <use xlink:href="#DejaVuSans-6e" x="73.193359"/>
     <use xlink:href="#DejaVuSans-69" x="136.572266"/>
     <use xlink:href="#DejaVuSans-74" x="164.355469"/>
     <use xlink:href="#DejaVuSans-65" x="203.564453"/>
     <use xlink:href="#DejaVuSans-64" x="265.087891"/>
     <use xlink:href="#DejaVuSans-20" x="328.564453"/>
     <use xlink:href="#DejaVuSans-53" x="360.351562"/>
     <use xlink:href="#DejaVuSans-74" x="423.828125"/>
     <use xlink:href="#DejaVuSans-61" x="463.037109"/>
     <use xlink:href="#DejaVuSans-74" x="524.316406"/>
     <use xlink:href="#DejaVuSans-65" x="563.525391"/>
     <use xlink:href="#DejaVuSans-73" x="625.048828"/>
     <use xlink:href="#DejaVuSans-20" x="677.148438"/>
     <use xlink:href="#DejaVuSans-2d" x="708.935547"/>
     <use xlink:href="#DejaVuSans-20" x="745.019531"/>
     <use xlink:href="#DejaVuSans-32" x="776.806641"/>
     <use xlink:href="#DejaVuSans-30" x="840.429688"/>
     <use xlink:href="#DejaVuSans-31" x="904.052734"/>
     <use xlink:href="#DejaVuSans-39" x="967.675781"/>
    </g>
   </g>
  </g>
 </g>
 <defs>
  <clipPath id="p9cb91cdaa8">
   <rect x="47.855" y="26.16" width="661.345" height="440.504"/>
  </clipPath>
  <clipPath id="p15962b92d4">
   <rect x="47.855" y="498.944" width="661.345" height="440.504"/>
  </clipPath>
  <clipPath id="p536f18f57a">
   <rect x="47.855" y="971.728" width="661.345" height="440.504"/>
  </clipPath>
  <clipPath id="p4c0ee3cda4">
   <rect x="47.855" y="1444.512" width="661.345" height="440.504"/>
  </clipPath>
  <clipPath id="p4f0117ddfb">
   <rect x="47.855" y="1917.296" width="661.345" height="440.504"/>
  </clipPath>
 </defs>
</svg>
