<?xml version="1.0" encoding="utf-8" standalone="no"?>
<!DOCTYPE svg PUBLIC "-//W3C//DTD SVG 1.1//EN"
  "http://www.w3.org/Graphics/SVG/1.1/DTD/svg11.dtd">
<svg xmlns:xlink="http://www.w3.org/1999/xlink" width="720pt" height="2400pt" viewBox="0 0 720 2400" xmlns="http://www.w3.org/2000/svg" version="1.1">
 <metadata>
  <rdf:RDF xmlns:dc="http://purl.org/dc/elements/1.1/" xmlns:cc="http://creativecommons.org/ns#" xmlns:rdf="http://www.w3.org/1999/02/22-rdf-syntax-ns#">
   <cc:Work>
    <dc:type rdf:resource="http://purl.org/dc/dcmitype/StillImage"/>
    <dc:date>2024-01-16T17:04:41.810208</dc:date>
    <dc:format>image/svg+xml</dc:format>
    <dc:creator>
     <cc:Agent>
      <dc:title>Matplotlib v3.8.2, https://matplotlib.org/</dc:title>
     </cc:Agent>
    </dc:creator>
   </cc:Work>
  </rdf:RDF>
 </metadata>
 <defs>
  <style type="text/css">*{stroke-linejoin: round; stroke-linecap: butt}</style>
 </defs>
 <g id="figure_1">
  <g id="patch_1">
   <path d="M 0 2400 
L 720 2400 
L 720 0 
L 0 0 
z
" style="fill: #ffffff"/>
  </g>
  <g id="axes_1">
   <g id="patch_2">
    <path d="M 47.72 466.712 
L 709.2 466.712 
L 709.2 26.88 
L 47.72 26.88 
z
" style="fill: #ffffff"/>
   </g>
   <g id="matplotlib.axis_1">
    <g id="xtick_1">
     <g id="line2d_1">
      <path d="M 134.520054 466.712 
L 134.520054 26.88 
" clip-path="url(#pe5312aa6ff)" style="fill: none; stroke: #b0b0b0; stroke-width: 0.8; stroke-linecap: square"/>
     </g>
     <g id="line2d_2">
      <defs>
       <path id="ma0a61c7e48" d="M 0 0 
L 0 3.5 
" style="stroke: #000000; stroke-width: 0.8"/>
      </defs>
      <g>
       <use xlink:href="#ma0a61c7e48" x="134.520054" y="466.712" style="stroke: #000000; stroke-width: 0.8"/>
      </g>
     </g>
    </g>
    <g id="xtick_2">
     <g id="line2d_3">
      <path d="M 201.761189 466.712 
L 201.761189 26.88 
" clip-path="url(#pe5312aa6ff)" style="fill: none; stroke: #b0b0b0; stroke-width: 0.8; stroke-linecap: square"/>
     </g>
     <g id="line2d_4">
      <g>
       <use xlink:href="#ma0a61c7e48" x="201.761189" y="466.712" style="stroke: #000000; stroke-width: 0.8"/>
      </g>
     </g>
    </g>
    <g id="xtick_3">
     <g id="line2d_5">
      <path d="M 290.649134 466.712 
L 290.649134 26.88 
" clip-path="url(#pe5312aa6ff)" style="fill: none; stroke: #b0b0b0; stroke-width: 0.8; stroke-linecap: square"/>
     </g>
     <g id="line2d_6">
      <g>
       <use xlink:href="#ma0a61c7e48" x="290.649134" y="466.712" style="stroke: #000000; stroke-width: 0.8"/>
      </g>
     </g>
    </g>
    <g id="xtick_4">
     <g id="line2d_7">
      <path d="M 357.890268 466.712 
L 357.890268 26.88 
" clip-path="url(#pe5312aa6ff)" style="fill: none; stroke: #b0b0b0; stroke-width: 0.8; stroke-linecap: square"/>
     </g>
     <g id="line2d_8">
      <g>
       <use xlink:href="#ma0a61c7e48" x="357.890268" y="466.712" style="stroke: #000000; stroke-width: 0.8"/>
      </g>
     </g>
    </g>
    <g id="xtick_5">
     <g id="line2d_9">
      <path d="M 425.131403 466.712 
L 425.131403 26.88 
" clip-path="url(#pe5312aa6ff)" style="fill: none; stroke: #b0b0b0; stroke-width: 0.8; stroke-linecap: square"/>
     </g>
     <g id="line2d_10">
      <g>
       <use xlink:href="#ma0a61c7e48" x="425.131403" y="466.712" style="stroke: #000000; stroke-width: 0.8"/>
      </g>
     </g>
    </g>
    <g id="xtick_6">
     <g id="line2d_11">
      <path d="M 514.019348 466.712 
L 514.019348 26.88 
" clip-path="url(#pe5312aa6ff)" style="fill: none; stroke: #b0b0b0; stroke-width: 0.8; stroke-linecap: square"/>
     </g>
     <g id="line2d_12">
      <g>
       <use xlink:href="#ma0a61c7e48" x="514.019348" y="466.712" style="stroke: #000000; stroke-width: 0.8"/>
      </g>
     </g>
    </g>
    <g id="xtick_7">
     <g id="line2d_13">
      <path d="M 581.260482 466.712 
L 581.260482 26.88 
" clip-path="url(#pe5312aa6ff)" style="fill: none; stroke: #b0b0b0; stroke-width: 0.8; stroke-linecap: square"/>
     </g>
     <g id="line2d_14">
      <g>
       <use xlink:href="#ma0a61c7e48" x="581.260482" y="466.712" style="stroke: #000000; stroke-width: 0.8"/>
      </g>
     </g>
    </g>
    <g id="xtick_8">
     <g id="line2d_15">
      <path d="M 648.501617 466.712 
L 648.501617 26.88 
" clip-path="url(#pe5312aa6ff)" style="fill: none; stroke: #b0b0b0; stroke-width: 0.8; stroke-linecap: square"/>
     </g>
     <g id="line2d_16">
      <g>
       <use xlink:href="#ma0a61c7e48" x="648.501617" y="466.712" style="stroke: #000000; stroke-width: 0.8"/>
      </g>
     </g>
    </g>
   </g>
   <g id="matplotlib.axis_2">
    <g id="ytick_1">
     <g id="line2d_17">
      <path d="M 47.72 466.712 
L 709.2 466.712 
" clip-path="url(#pe5312aa6ff)" style="fill: none; stroke: #b0b0b0; stroke-width: 0.8; stroke-linecap: square"/>
     </g>
     <g id="line2d_18">
      <defs>
       <path id="m42a8156e6b" d="M 0 0 
L -3.5 0 
" style="stroke: #000000; stroke-width: 0.8"/>
      </defs>
      <g>
       <use xlink:href="#m42a8156e6b" x="47.72" y="466.712" style="stroke: #000000; stroke-width: 0.8"/>
      </g>
     </g>
     <g id="text_1">
      <!-- 0.0 -->
      <g transform="translate(24.816875 470.511219) scale(0.1 -0.1)">
       <defs>
        <path id="DejaVuSans-30" d="M 2034 4250 
Q 1547 4250 1301 3770 
Q 1056 3291 1056 2328 
Q 1056 1369 1301 889 
Q 1547 409 2034 409 
Q 2525 409 2770 889 
Q 3016 1369 3016 2328 
Q 3016 3291 2770 3770 
Q 2525 4250 2034 4250 
z
M 2034 4750 
Q 2819 4750 3233 4129 
Q 3647 3509 3647 2328 
Q 3647 1150 3233 529 
Q 2819 -91 2034 -91 
Q 1250 -91 836 529 
Q 422 1150 422 2328 
Q 422 3509 836 4129 
Q 1250 4750 2034 4750 
z
" transform="scale(0.015625)"/>
        <path id="DejaVuSans-2e" d="M 684 794 
L 1344 794 
L 1344 0 
L 684 0 
L 684 794 
z
" transform="scale(0.015625)"/>
       </defs>
       <use xlink:href="#DejaVuSans-30"/>
       <use xlink:href="#DejaVuSans-2e" x="63.623047"/>
       <use xlink:href="#DejaVuSans-30" x="95.410156"/>
      </g>
     </g>
    </g>
    <g id="ytick_2">
     <g id="line2d_19">
      <path d="M 47.72 413.404816 
L 709.2 413.404816 
" clip-path="url(#pe5312aa6ff)" style="fill: none; stroke: #b0b0b0; stroke-width: 0.8; stroke-linecap: square"/>
     </g>
     <g id="line2d_20">
      <g>
       <use xlink:href="#m42a8156e6b" x="47.72" y="413.404816" style="stroke: #000000; stroke-width: 0.8"/>
      </g>
     </g>
     <g id="text_2">
      <!-- 0.1 -->
      <g transform="translate(24.816875 417.204034) scale(0.1 -0.1)">
       <defs>
        <path id="DejaVuSans-31" d="M 794 531 
L 1825 531 
L 1825 4091 
L 703 3866 
L 703 4441 
L 1819 4666 
L 2450 4666 
L 2450 531 
L 3481 531 
L 3481 0 
L 794 0 
L 794 531 
z
" transform="scale(0.015625)"/>
       </defs>
       <use xlink:href="#DejaVuSans-30"/>
       <use xlink:href="#DejaVuSans-2e" x="63.623047"/>
       <use xlink:href="#DejaVuSans-31" x="95.410156"/>
      </g>
     </g>
    </g>
    <g id="ytick_3">
     <g id="line2d_21">
      <path d="M 47.72 360.097631 
L 709.2 360.097631 
" clip-path="url(#pe5312aa6ff)" style="fill: none; stroke: #b0b0b0; stroke-width: 0.8; stroke-linecap: square"/>
     </g>
     <g id="line2d_22">
      <g>
       <use xlink:href="#m42a8156e6b" x="47.72" y="360.097631" style="stroke: #000000; stroke-width: 0.8"/>
      </g>
     </g>
     <g id="text_3">
      <!-- 0.2 -->
      <g transform="translate(24.816875 363.89685) scale(0.1 -0.1)">
       <defs>
        <path id="DejaVuSans-32" d="M 1228 531 
L 3431 531 
L 3431 0 
L 469 0 
L 469 531 
Q 828 903 1448 1529 
Q 2069 2156 2228 2338 
Q 2531 2678 2651 2914 
Q 2772 3150 2772 3378 
Q 2772 3750 2511 3984 
Q 2250 4219 1831 4219 
Q 1534 4219 1204 4116 
Q 875 4013 500 3803 
L 500 4441 
Q 881 4594 1212 4672 
Q 1544 4750 1819 4750 
Q 2544 4750 2975 4387 
Q 3406 4025 3406 3419 
Q 3406 3131 3298 2873 
Q 3191 2616 2906 2266 
Q 2828 2175 2409 1742 
Q 1991 1309 1228 531 
z
" transform="scale(0.015625)"/>
       </defs>
       <use xlink:href="#DejaVuSans-30"/>
       <use xlink:href="#DejaVuSans-2e" x="63.623047"/>
       <use xlink:href="#DejaVuSans-32" x="95.410156"/>
      </g>
     </g>
    </g>
    <g id="ytick_4">
     <g id="line2d_23">
      <path d="M 47.72 306.790447 
L 709.2 306.790447 
" clip-path="url(#pe5312aa6ff)" style="fill: none; stroke: #b0b0b0; stroke-width: 0.8; stroke-linecap: square"/>
     </g>
     <g id="line2d_24">
      <g>
       <use xlink:href="#m42a8156e6b" x="47.72" y="306.790447" style="stroke: #000000; stroke-width: 0.8"/>
      </g>
     </g>
     <g id="text_4">
      <!-- 0.3 -->
      <g transform="translate(24.816875 310.589666) scale(0.1 -0.1)">
       <defs>
        <path id="DejaVuSans-33" d="M 2597 2516 
Q 3050 2419 3304 2112 
Q 3559 1806 3559 1356 
Q 3559 666 3084 287 
Q 2609 -91 1734 -91 
Q 1441 -91 1130 -33 
Q 819 25 488 141 
L 488 750 
Q 750 597 1062 519 
Q 1375 441 1716 441 
Q 2309 441 2620 675 
Q 2931 909 2931 1356 
Q 2931 1769 2642 2001 
Q 2353 2234 1838 2234 
L 1294 2234 
L 1294 2753 
L 1863 2753 
Q 2328 2753 2575 2939 
Q 2822 3125 2822 3475 
Q 2822 3834 2567 4026 
Q 2313 4219 1838 4219 
Q 1578 4219 1281 4162 
Q 984 4106 628 3988 
L 628 4550 
Q 988 4650 1302 4700 
Q 1616 4750 1894 4750 
Q 2613 4750 3031 4423 
Q 3450 4097 3450 3541 
Q 3450 3153 3228 2886 
Q 3006 2619 2597 2516 
z
" transform="scale(0.015625)"/>
       </defs>
       <use xlink:href="#DejaVuSans-30"/>
       <use xlink:href="#DejaVuSans-2e" x="63.623047"/>
       <use xlink:href="#DejaVuSans-33" x="95.410156"/>
      </g>
     </g>
    </g>
    <g id="ytick_5">
     <g id="line2d_25">
      <path d="M 47.72 253.483263 
L 709.2 253.483263 
" clip-path="url(#pe5312aa6ff)" style="fill: none; stroke: #b0b0b0; stroke-width: 0.8; stroke-linecap: square"/>
     </g>
     <g id="line2d_26">
      <g>
       <use xlink:href="#m42a8156e6b" x="47.72" y="253.483263" style="stroke: #000000; stroke-width: 0.8"/>
      </g>
     </g>
     <g id="text_5">
      <!-- 0.4 -->
      <g transform="translate(24.816875 257.282481) scale(0.1 -0.1)">
       <defs>
        <path id="DejaVuSans-34" d="M 2419 4116 
L 825 1625 
L 2419 1625 
L 2419 4116 
z
M 2253 4666 
L 3047 4666 
L 3047 1625 
L 3713 1625 
L 3713 1100 
L 3047 1100 
L 3047 0 
L 2419 0 
L 2419 1100 
L 313 1100 
L 313 1709 
L 2253 4666 
z
" transform="scale(0.015625)"/>
       </defs>
       <use xlink:href="#DejaVuSans-30"/>
       <use xlink:href="#DejaVuSans-2e" x="63.623047"/>
       <use xlink:href="#DejaVuSans-34" x="95.410156"/>
      </g>
     </g>
    </g>
    <g id="ytick_6">
     <g id="line2d_27">
      <path d="M 47.72 200.176078 
L 709.2 200.176078 
" clip-path="url(#pe5312aa6ff)" style="fill: none; stroke: #b0b0b0; stroke-width: 0.8; stroke-linecap: square"/>
     </g>
     <g id="line2d_28">
      <g>
       <use xlink:href="#m42a8156e6b" x="47.72" y="200.176078" style="stroke: #000000; stroke-width: 0.8"/>
      </g>
     </g>
     <g id="text_6">
      <!-- 0.5 -->
      <g transform="translate(24.816875 203.975297) scale(0.1 -0.1)">
       <defs>
        <path id="DejaVuSans-35" d="M 691 4666 
L 3169 4666 
L 3169 4134 
L 1269 4134 
L 1269 2991 
Q 1406 3038 1543 3061 
Q 1681 3084 1819 3084 
Q 2600 3084 3056 2656 
Q 3513 2228 3513 1497 
Q 3513 744 3044 326 
Q 2575 -91 1722 -91 
Q 1428 -91 1123 -41 
Q 819 9 494 109 
L 494 744 
Q 775 591 1075 516 
Q 1375 441 1709 441 
Q 2250 441 2565 725 
Q 2881 1009 2881 1497 
Q 2881 1984 2565 2268 
Q 2250 2553 1709 2553 
Q 1456 2553 1204 2497 
Q 953 2441 691 2322 
L 691 4666 
z
" transform="scale(0.015625)"/>
       </defs>
       <use xlink:href="#DejaVuSans-30"/>
       <use xlink:href="#DejaVuSans-2e" x="63.623047"/>
       <use xlink:href="#DejaVuSans-35" x="95.410156"/>
      </g>
     </g>
    </g>
    <g id="ytick_7">
     <g id="line2d_29">
      <path d="M 47.72 146.868894 
L 709.2 146.868894 
" clip-path="url(#pe5312aa6ff)" style="fill: none; stroke: #b0b0b0; stroke-width: 0.8; stroke-linecap: square"/>
     </g>
     <g id="line2d_30">
      <g>
       <use xlink:href="#m42a8156e6b" x="47.72" y="146.868894" style="stroke: #000000; stroke-width: 0.8"/>
      </g>
     </g>
     <g id="text_7">
      <!-- 0.6 -->
      <g transform="translate(24.816875 150.668113) scale(0.1 -0.1)">
       <defs>
        <path id="DejaVuSans-36" d="M 2113 2584 
Q 1688 2584 1439 2293 
Q 1191 2003 1191 1497 
Q 1191 994 1439 701 
Q 1688 409 2113 409 
Q 2538 409 2786 701 
Q 3034 994 3034 1497 
Q 3034 2003 2786 2293 
Q 2538 2584 2113 2584 
z
M 3366 4563 
L 3366 3988 
Q 3128 4100 2886 4159 
Q 2644 4219 2406 4219 
Q 1781 4219 1451 3797 
Q 1122 3375 1075 2522 
Q 1259 2794 1537 2939 
Q 1816 3084 2150 3084 
Q 2853 3084 3261 2657 
Q 3669 2231 3669 1497 
Q 3669 778 3244 343 
Q 2819 -91 2113 -91 
Q 1303 -91 875 529 
Q 447 1150 447 2328 
Q 447 3434 972 4092 
Q 1497 4750 2381 4750 
Q 2619 4750 2861 4703 
Q 3103 4656 3366 4563 
z
" transform="scale(0.015625)"/>
       </defs>
       <use xlink:href="#DejaVuSans-30"/>
       <use xlink:href="#DejaVuSans-2e" x="63.623047"/>
       <use xlink:href="#DejaVuSans-36" x="95.410156"/>
      </g>
     </g>
    </g>
    <g id="ytick_8">
     <g id="line2d_31">
      <path d="M 47.72 93.56171 
L 709.2 93.56171 
" clip-path="url(#pe5312aa6ff)" style="fill: none; stroke: #b0b0b0; stroke-width: 0.8; stroke-linecap: square"/>
     </g>
     <g id="line2d_32">
      <g>
       <use xlink:href="#m42a8156e6b" x="47.72" y="93.56171" style="stroke: #000000; stroke-width: 0.8"/>
      </g>
     </g>
     <g id="text_8">
      <!-- 0.7 -->
      <g transform="translate(24.816875 97.360928) scale(0.1 -0.1)">
       <defs>
        <path id="DejaVuSans-37" d="M 525 4666 
L 3525 4666 
L 3525 4397 
L 1831 0 
L 1172 0 
L 2766 4134 
L 525 4134 
L 525 4666 
z
" transform="scale(0.015625)"/>
       </defs>
       <use xlink:href="#DejaVuSans-30"/>
       <use xlink:href="#DejaVuSans-2e" x="63.623047"/>
       <use xlink:href="#DejaVuSans-37" x="95.410156"/>
      </g>
     </g>
    </g>
    <g id="ytick_9">
     <g id="line2d_33">
      <path d="M 47.72 40.254525 
L 709.2 40.254525 
" clip-path="url(#pe5312aa6ff)" style="fill: none; stroke: #b0b0b0; stroke-width: 0.8; stroke-linecap: square"/>
     </g>
     <g id="line2d_34">
      <g>
       <use xlink:href="#m42a8156e6b" x="47.72" y="40.254525" style="stroke: #000000; stroke-width: 0.8"/>
      </g>
     </g>
     <g id="text_9">
      <!-- 0.8 -->
      <g transform="translate(24.816875 44.053744) scale(0.1 -0.1)">
       <defs>
        <path id="DejaVuSans-38" d="M 2034 2216 
Q 1584 2216 1326 1975 
Q 1069 1734 1069 1313 
Q 1069 891 1326 650 
Q 1584 409 2034 409 
Q 2484 409 2743 651 
Q 3003 894 3003 1313 
Q 3003 1734 2745 1975 
Q 2488 2216 2034 2216 
z
M 1403 2484 
Q 997 2584 770 2862 
Q 544 3141 544 3541 
Q 544 4100 942 4425 
Q 1341 4750 2034 4750 
Q 2731 4750 3128 4425 
Q 3525 4100 3525 3541 
Q 3525 3141 3298 2862 
Q 3072 2584 2669 2484 
Q 3125 2378 3379 2068 
Q 3634 1759 3634 1313 
Q 3634 634 3220 271 
Q 2806 -91 2034 -91 
Q 1263 -91 848 271 
Q 434 634 434 1313 
Q 434 1759 690 2068 
Q 947 2378 1403 2484 
z
M 1172 3481 
Q 1172 3119 1398 2916 
Q 1625 2713 2034 2713 
Q 2441 2713 2670 2916 
Q 2900 3119 2900 3481 
Q 2900 3844 2670 4047 
Q 2441 4250 2034 4250 
Q 1625 4250 1398 4047 
Q 1172 3844 1172 3481 
z
" transform="scale(0.015625)"/>
       </defs>
       <use xlink:href="#DejaVuSans-30"/>
       <use xlink:href="#DejaVuSans-2e" x="63.623047"/>
       <use xlink:href="#DejaVuSans-38" x="95.410156"/>
      </g>
     </g>
    </g>
    <g id="text_10">
     <!-- Density -->
     <g transform="translate(18.737188 265.804594) rotate(-90) scale(0.1 -0.1)">
      <defs>
       <path id="DejaVuSans-44" d="M 1259 4147 
L 1259 519 
L 2022 519 
Q 2988 519 3436 956 
Q 3884 1394 3884 2338 
Q 3884 3275 3436 3711 
Q 2988 4147 2022 4147 
L 1259 4147 
z
M 628 4666 
L 1925 4666 
Q 3281 4666 3915 4102 
Q 4550 3538 4550 2338 
Q 4550 1131 3912 565 
Q 3275 0 1925 0 
L 628 0 
L 628 4666 
z
" transform="scale(0.015625)"/>
       <path id="DejaVuSans-65" d="M 3597 1894 
L 3597 1613 
L 953 1613 
Q 991 1019 1311 708 
Q 1631 397 2203 397 
Q 2534 397 2845 478 
Q 3156 559 3463 722 
L 3463 178 
Q 3153 47 2828 -22 
Q 2503 -91 2169 -91 
Q 1331 -91 842 396 
Q 353 884 353 1716 
Q 353 2575 817 3079 
Q 1281 3584 2069 3584 
Q 2775 3584 3186 3129 
Q 3597 2675 3597 1894 
z
M 3022 2063 
Q 3016 2534 2758 2815 
Q 2500 3097 2075 3097 
Q 1594 3097 1305 2825 
Q 1016 2553 972 2059 
L 3022 2063 
z
" transform="scale(0.015625)"/>
       <path id="DejaVuSans-6e" d="M 3513 2113 
L 3513 0 
L 2938 0 
L 2938 2094 
Q 2938 2591 2744 2837 
Q 2550 3084 2163 3084 
Q 1697 3084 1428 2787 
Q 1159 2491 1159 1978 
L 1159 0 
L 581 0 
L 581 3500 
L 1159 3500 
L 1159 2956 
Q 1366 3272 1645 3428 
Q 1925 3584 2291 3584 
Q 2894 3584 3203 3211 
Q 3513 2838 3513 2113 
z
" transform="scale(0.015625)"/>
       <path id="DejaVuSans-73" d="M 2834 3397 
L 2834 2853 
Q 2591 2978 2328 3040 
Q 2066 3103 1784 3103 
Q 1356 3103 1142 2972 
Q 928 2841 928 2578 
Q 928 2378 1081 2264 
Q 1234 2150 1697 2047 
L 1894 2003 
Q 2506 1872 2764 1633 
Q 3022 1394 3022 966 
Q 3022 478 2636 193 
Q 2250 -91 1575 -91 
Q 1294 -91 989 -36 
Q 684 19 347 128 
L 347 722 
Q 666 556 975 473 
Q 1284 391 1588 391 
Q 1994 391 2212 530 
Q 2431 669 2431 922 
Q 2431 1156 2273 1281 
Q 2116 1406 1581 1522 
L 1381 1569 
Q 847 1681 609 1914 
Q 372 2147 372 2553 
Q 372 3047 722 3315 
Q 1072 3584 1716 3584 
Q 2034 3584 2315 3537 
Q 2597 3491 2834 3397 
z
" transform="scale(0.015625)"/>
       <path id="DejaVuSans-69" d="M 603 3500 
L 1178 3500 
L 1178 0 
L 603 0 
L 603 3500 
z
M 603 4863 
L 1178 4863 
L 1178 4134 
L 603 4134 
L 603 4863 
z
" transform="scale(0.015625)"/>
       <path id="DejaVuSans-74" d="M 1172 4494 
L 1172 3500 
L 2356 3500 
L 2356 3053 
L 1172 3053 
L 1172 1153 
Q 1172 725 1289 603 
Q 1406 481 1766 481 
L 2356 481 
L 2356 0 
L 1766 0 
Q 1100 0 847 248 
Q 594 497 594 1153 
L 594 3053 
L 172 3053 
L 172 3500 
L 594 3500 
L 594 4494 
L 1172 4494 
z
" transform="scale(0.015625)"/>
       <path id="DejaVuSans-79" d="M 2059 -325 
Q 1816 -950 1584 -1140 
Q 1353 -1331 966 -1331 
L 506 -1331 
L 506 -850 
L 844 -850 
Q 1081 -850 1212 -737 
Q 1344 -625 1503 -206 
L 1606 56 
L 191 3500 
L 800 3500 
L 1894 763 
L 2988 3500 
L 3597 3500 
L 2059 -325 
z
" transform="scale(0.015625)"/>
      </defs>
      <use xlink:href="#DejaVuSans-44"/>
      <use xlink:href="#DejaVuSans-65" x="77.001953"/>
      <use xlink:href="#DejaVuSans-6e" x="138.525391"/>
      <use xlink:href="#DejaVuSans-73" x="201.904297"/>
      <use xlink:href="#DejaVuSans-69" x="254.003906"/>
      <use xlink:href="#DejaVuSans-74" x="281.787109"/>
      <use xlink:href="#DejaVuSans-79" x="320.996094"/>
     </g>
    </g>
   </g>
   <g id="line2d_35">
    <path d="M 77.787273 466.502899 
L 81.410673 466.18725 
L 83.222373 465.911118 
L 85.034073 465.519361 
L 86.845773 464.978681 
L 88.657473 464.252742 
L 90.469173 463.30448 
L 92.280873 462.099201 
L 94.092573 460.608195 
L 95.904273 458.812383 
L 97.715973 456.705394 
L 99.527673 454.295448 
L 101.339373 451.605512 
L 104.962773 445.538667 
L 108.586173 438.873933 
L 126.703174 404.659021 
L 133.949974 391.572922 
L 141.196774 378.4578 
L 144.820174 371.485731 
L 150.255274 360.417314 
L 155.690375 349.359992 
L 159.313775 342.562605 
L 162.937175 336.367524 
L 168.372275 327.37699 
L 170.183975 324.073287 
L 171.995675 320.414844 
L 173.807375 316.283087 
L 175.619075 311.574471 
L 177.430775 306.208013 
L 179.242475 300.130167 
L 181.054175 293.31684 
L 182.865875 285.772897 
L 184.677575 277.529909 
L 186.489275 268.643092 
L 190.112675 249.259834 
L 195.547776 217.819661 
L 199.171176 196.910907 
L 202.794576 177.515178 
L 204.606276 168.754743 
L 206.417976 160.773527 
L 208.229676 153.643792 
L 210.041376 147.394643 
L 211.853076 142.008688 
L 213.664776 137.42242 
L 215.476476 133.530228 
L 217.288176 130.191529 
L 220.911576 124.495199 
L 224.534976 118.893776 
L 226.346676 115.70122 
L 228.158376 112.062963 
L 229.970076 107.883954 
L 231.781776 103.11329 
L 233.593476 97.750717 
L 235.405177 91.851387 
L 239.028577 78.951038 
L 242.651977 65.965183 
L 244.463677 60.115009 
L 246.275377 55.096293 
L 248.087077 51.204882 
L 249.898777 48.706085 
L 251.710477 47.814614 
L 253.522177 48.678113 
L 255.333877 51.366248 
L 257.145577 55.866735 
L 258.957277 62.088811 
L 260.768977 69.873664 
L 262.580677 79.010422 
L 264.392377 89.255614 
L 268.015777 112.055809 
L 280.697678 196.372662 
L 284.321078 218.735461 
L 287.944478 239.933759 
L 291.567878 259.820581 
L 295.191278 278.183327 
L 298.814678 294.785445 
L 300.626378 302.362155 
L 302.438078 309.43292 
L 304.249778 315.990637 
L 306.061478 322.038182 
L 307.873178 327.589542 
L 309.684878 332.670427 
L 311.496578 337.318197 
L 313.308278 341.580896 
L 316.931679 349.18414 
L 320.555079 355.982663 
L 340.483779 391.528239 
L 344.107179 397.277312 
L 347.730579 402.504743 
L 351.353979 407.306014 
L 358.60078 416.312534 
L 364.03588 422.838732 
L 367.65928 426.914489 
L 371.28268 430.628899 
L 374.90608 433.986799 
L 378.52948 437.086484 
L 382.15288 439.968815 
L 385.77628 442.482797 
L 387.58798 443.508024 
L 389.39968 444.328651 
L 391.21138 444.923942 
L 393.02308 445.297098 
L 394.83478 445.479999 
L 402.081581 445.791552 
L 403.893281 446.215099 
L 405.704981 446.920397 
L 407.516681 447.931431 
L 409.328381 449.237363 
L 411.140081 450.79536 
L 414.763481 454.38216 
L 418.386881 458.037485 
L 420.198581 459.701917 
L 422.010281 461.187786 
L 423.821981 462.467632 
L 425.633681 463.532947 
L 427.445381 464.390935 
L 429.257081 465.060208 
L 431.068781 465.566269 
L 434.692181 466.201651 
L 438.315581 466.506896 
L 438.315581 466.506896 
" clip-path="url(#pe5312aa6ff)" style="fill: none; stroke: #1f77b4; stroke-width: 1.5; stroke-linecap: square"/>
   </g>
   <g id="patch_3">
    <path d="M 47.72 466.712 
L 47.72 26.88 
" style="fill: none; stroke: #000000; stroke-width: 0.8; stroke-linejoin: miter; stroke-linecap: square"/>
   </g>
   <g id="patch_4">
    <path d="M 709.2 466.712 
L 709.2 26.88 
" style="fill: none; stroke: #000000; stroke-width: 0.8; stroke-linejoin: miter; stroke-linecap: square"/>
   </g>
   <g id="patch_5">
    <path d="M 47.72 466.712 
L 709.2 466.712 
" style="fill: none; stroke: #000000; stroke-width: 0.8; stroke-linejoin: miter; stroke-linecap: square"/>
   </g>
   <g id="patch_6">
    <path d="M 47.72 26.88 
L 709.2 26.88 
" style="fill: none; stroke: #000000; stroke-width: 0.8; stroke-linejoin: miter; stroke-linecap: square"/>
   </g>
   <g id="text_11">
    <!-- Ethiopia - 2015 -->
    <g transform="translate(332.774688 20.88) scale(0.12 -0.12)">
     <defs>
      <path id="DejaVuSans-45" d="M 628 4666 
L 3578 4666 
L 3578 4134 
L 1259 4134 
L 1259 2753 
L 3481 2753 
L 3481 2222 
L 1259 2222 
L 1259 531 
L 3634 531 
L 3634 0 
L 628 0 
L 628 4666 
z
" transform="scale(0.015625)"/>
      <path id="DejaVuSans-68" d="M 3513 2113 
L 3513 0 
L 2938 0 
L 2938 2094 
Q 2938 2591 2744 2837 
Q 2550 3084 2163 3084 
Q 1697 3084 1428 2787 
Q 1159 2491 1159 1978 
L 1159 0 
L 581 0 
L 581 4863 
L 1159 4863 
L 1159 2956 
Q 1366 3272 1645 3428 
Q 1925 3584 2291 3584 
Q 2894 3584 3203 3211 
Q 3513 2838 3513 2113 
z
" transform="scale(0.015625)"/>
      <path id="DejaVuSans-6f" d="M 1959 3097 
Q 1497 3097 1228 2736 
Q 959 2375 959 1747 
Q 959 1119 1226 758 
Q 1494 397 1959 397 
Q 2419 397 2687 759 
Q 2956 1122 2956 1747 
Q 2956 2369 2687 2733 
Q 2419 3097 1959 3097 
z
M 1959 3584 
Q 2709 3584 3137 3096 
Q 3566 2609 3566 1747 
Q 3566 888 3137 398 
Q 2709 -91 1959 -91 
Q 1206 -91 779 398 
Q 353 888 353 1747 
Q 353 2609 779 3096 
Q 1206 3584 1959 3584 
z
" transform="scale(0.015625)"/>
      <path id="DejaVuSans-70" d="M 1159 525 
L 1159 -1331 
L 581 -1331 
L 581 3500 
L 1159 3500 
L 1159 2969 
Q 1341 3281 1617 3432 
Q 1894 3584 2278 3584 
Q 2916 3584 3314 3078 
Q 3713 2572 3713 1747 
Q 3713 922 3314 415 
Q 2916 -91 2278 -91 
Q 1894 -91 1617 61 
Q 1341 213 1159 525 
z
M 3116 1747 
Q 3116 2381 2855 2742 
Q 2594 3103 2138 3103 
Q 1681 3103 1420 2742 
Q 1159 2381 1159 1747 
Q 1159 1113 1420 752 
Q 1681 391 2138 391 
Q 2594 391 2855 752 
Q 3116 1113 3116 1747 
z
" transform="scale(0.015625)"/>
      <path id="DejaVuSans-61" d="M 2194 1759 
Q 1497 1759 1228 1600 
Q 959 1441 959 1056 
Q 959 750 1161 570 
Q 1363 391 1709 391 
Q 2188 391 2477 730 
Q 2766 1069 2766 1631 
L 2766 1759 
L 2194 1759 
z
M 3341 1997 
L 3341 0 
L 2766 0 
L 2766 531 
Q 2569 213 2275 61 
Q 1981 -91 1556 -91 
Q 1019 -91 701 211 
Q 384 513 384 1019 
Q 384 1609 779 1909 
Q 1175 2209 1959 2209 
L 2766 2209 
L 2766 2266 
Q 2766 2663 2505 2880 
Q 2244 3097 1772 3097 
Q 1472 3097 1187 3025 
Q 903 2953 641 2809 
L 641 3341 
Q 956 3463 1253 3523 
Q 1550 3584 1831 3584 
Q 2591 3584 2966 3190 
Q 3341 2797 3341 1997 
z
" transform="scale(0.015625)"/>
      <path id="DejaVuSans-20" transform="scale(0.015625)"/>
      <path id="DejaVuSans-2d" d="M 313 2009 
L 1997 2009 
L 1997 1497 
L 313 1497 
L 313 2009 
z
" transform="scale(0.015625)"/>
     </defs>
     <use xlink:href="#DejaVuSans-45"/>
     <use xlink:href="#DejaVuSans-74" x="63.183594"/>
     <use xlink:href="#DejaVuSans-68" x="102.392578"/>
     <use xlink:href="#DejaVuSans-69" x="165.771484"/>
     <use xlink:href="#DejaVuSans-6f" x="193.554688"/>
     <use xlink:href="#DejaVuSans-70" x="254.736328"/>
     <use xlink:href="#DejaVuSans-69" x="318.212891"/>
     <use xlink:href="#DejaVuSans-61" x="345.996094"/>
     <use xlink:href="#DejaVuSans-20" x="407.275391"/>
     <use xlink:href="#DejaVuSans-2d" x="439.0625"/>
     <use xlink:href="#DejaVuSans-20" x="475.146484"/>
     <use xlink:href="#DejaVuSans-32" x="506.933594"/>
     <use xlink:href="#DejaVuSans-30" x="570.556641"/>
     <use xlink:href="#DejaVuSans-31" x="634.179688"/>
     <use xlink:href="#DejaVuSans-35" x="697.802734"/>
    </g>
   </g>
  </g>
  <g id="axes_2">
   <g id="patch_7">
    <path d="M 47.72 939.544 
L 709.2 939.544 
L 709.2 499.712 
L 47.72 499.712 
z
" style="fill: #ffffff"/>
   </g>
   <g id="matplotlib.axis_3">
    <g id="xtick_9">
     <g id="line2d_36">
      <path d="M 134.520054 939.544 
L 134.520054 499.712 
" clip-path="url(#p584cd86f83)" style="fill: none; stroke: #b0b0b0; stroke-width: 0.8; stroke-linecap: square"/>
     </g>
     <g id="line2d_37">
      <g>
       <use xlink:href="#ma0a61c7e48" x="134.520054" y="939.544" style="stroke: #000000; stroke-width: 0.8"/>
      </g>
     </g>
    </g>
    <g id="xtick_10">
     <g id="line2d_38">
      <path d="M 201.761189 939.544 
L 201.761189 499.712 
" clip-path="url(#p584cd86f83)" style="fill: none; stroke: #b0b0b0; stroke-width: 0.8; stroke-linecap: square"/>
     </g>
     <g id="line2d_39">
      <g>
       <use xlink:href="#ma0a61c7e48" x="201.761189" y="939.544" style="stroke: #000000; stroke-width: 0.8"/>
      </g>
     </g>
    </g>
    <g id="xtick_11">
     <g id="line2d_40">
      <path d="M 290.649134 939.544 
L 290.649134 499.712 
" clip-path="url(#p584cd86f83)" style="fill: none; stroke: #b0b0b0; stroke-width: 0.8; stroke-linecap: square"/>
     </g>
     <g id="line2d_41">
      <g>
       <use xlink:href="#ma0a61c7e48" x="290.649134" y="939.544" style="stroke: #000000; stroke-width: 0.8"/>
      </g>
     </g>
    </g>
    <g id="xtick_12">
     <g id="line2d_42">
      <path d="M 357.890268 939.544 
L 357.890268 499.712 
" clip-path="url(#p584cd86f83)" style="fill: none; stroke: #b0b0b0; stroke-width: 0.8; stroke-linecap: square"/>
     </g>
     <g id="line2d_43">
      <g>
       <use xlink:href="#ma0a61c7e48" x="357.890268" y="939.544" style="stroke: #000000; stroke-width: 0.8"/>
      </g>
     </g>
    </g>
    <g id="xtick_13">
     <g id="line2d_44">
      <path d="M 425.131403 939.544 
L 425.131403 499.712 
" clip-path="url(#p584cd86f83)" style="fill: none; stroke: #b0b0b0; stroke-width: 0.8; stroke-linecap: square"/>
     </g>
     <g id="line2d_45">
      <g>
       <use xlink:href="#ma0a61c7e48" x="425.131403" y="939.544" style="stroke: #000000; stroke-width: 0.8"/>
      </g>
     </g>
    </g>
    <g id="xtick_14">
     <g id="line2d_46">
      <path d="M 514.019348 939.544 
L 514.019348 499.712 
" clip-path="url(#p584cd86f83)" style="fill: none; stroke: #b0b0b0; stroke-width: 0.8; stroke-linecap: square"/>
     </g>
     <g id="line2d_47">
      <g>
       <use xlink:href="#ma0a61c7e48" x="514.019348" y="939.544" style="stroke: #000000; stroke-width: 0.8"/>
      </g>
     </g>
    </g>
    <g id="xtick_15">
     <g id="line2d_48">
      <path d="M 581.260482 939.544 
L 581.260482 499.712 
" clip-path="url(#p584cd86f83)" style="fill: none; stroke: #b0b0b0; stroke-width: 0.8; stroke-linecap: square"/>
     </g>
     <g id="line2d_49">
      <g>
       <use xlink:href="#ma0a61c7e48" x="581.260482" y="939.544" style="stroke: #000000; stroke-width: 0.8"/>
      </g>
     </g>
    </g>
    <g id="xtick_16">
     <g id="line2d_50">
      <path d="M 648.501617 939.544 
L 648.501617 499.712 
" clip-path="url(#p584cd86f83)" style="fill: none; stroke: #b0b0b0; stroke-width: 0.8; stroke-linecap: square"/>
     </g>
     <g id="line2d_51">
      <g>
       <use xlink:href="#ma0a61c7e48" x="648.501617" y="939.544" style="stroke: #000000; stroke-width: 0.8"/>
      </g>
     </g>
    </g>
   </g>
   <g id="matplotlib.axis_4">
    <g id="ytick_10">
     <g id="line2d_52">
      <path d="M 47.72 939.544 
L 709.2 939.544 
" clip-path="url(#p584cd86f83)" style="fill: none; stroke: #b0b0b0; stroke-width: 0.8; stroke-linecap: square"/>
     </g>
     <g id="line2d_53">
      <g>
       <use xlink:href="#m42a8156e6b" x="47.72" y="939.544" style="stroke: #000000; stroke-width: 0.8"/>
      </g>
     </g>
     <g id="text_12">
      <!-- 0.0 -->
      <g transform="translate(24.816875 943.343219) scale(0.1 -0.1)">
       <use xlink:href="#DejaVuSans-30"/>
       <use xlink:href="#DejaVuSans-2e" x="63.623047"/>
       <use xlink:href="#DejaVuSans-30" x="95.410156"/>
      </g>
     </g>
    </g>
    <g id="ytick_11">
     <g id="line2d_54">
      <path d="M 47.72 887.034414 
L 709.2 887.034414 
" clip-path="url(#p584cd86f83)" style="fill: none; stroke: #b0b0b0; stroke-width: 0.8; stroke-linecap: square"/>
     </g>
     <g id="line2d_55">
      <g>
       <use xlink:href="#m42a8156e6b" x="47.72" y="887.034414" style="stroke: #000000; stroke-width: 0.8"/>
      </g>
     </g>
     <g id="text_13">
      <!-- 0.1 -->
      <g transform="translate(24.816875 890.833632) scale(0.1 -0.1)">
       <use xlink:href="#DejaVuSans-30"/>
       <use xlink:href="#DejaVuSans-2e" x="63.623047"/>
       <use xlink:href="#DejaVuSans-31" x="95.410156"/>
      </g>
     </g>
    </g>
    <g id="ytick_12">
     <g id="line2d_56">
      <path d="M 47.72 834.524827 
L 709.2 834.524827 
" clip-path="url(#p584cd86f83)" style="fill: none; stroke: #b0b0b0; stroke-width: 0.8; stroke-linecap: square"/>
     </g>
     <g id="line2d_57">
      <g>
       <use xlink:href="#m42a8156e6b" x="47.72" y="834.524827" style="stroke: #000000; stroke-width: 0.8"/>
      </g>
     </g>
     <g id="text_14">
      <!-- 0.2 -->
      <g transform="translate(24.816875 838.324046) scale(0.1 -0.1)">
       <use xlink:href="#DejaVuSans-30"/>
       <use xlink:href="#DejaVuSans-2e" x="63.623047"/>
       <use xlink:href="#DejaVuSans-32" x="95.410156"/>
      </g>
     </g>
    </g>
    <g id="ytick_13">
     <g id="line2d_58">
      <path d="M 47.72 782.015241 
L 709.2 782.015241 
" clip-path="url(#p584cd86f83)" style="fill: none; stroke: #b0b0b0; stroke-width: 0.8; stroke-linecap: square"/>
     </g>
     <g id="line2d_59">
      <g>
       <use xlink:href="#m42a8156e6b" x="47.72" y="782.015241" style="stroke: #000000; stroke-width: 0.8"/>
      </g>
     </g>
     <g id="text_15">
      <!-- 0.3 -->
      <g transform="translate(24.816875 785.81446) scale(0.1 -0.1)">
       <use xlink:href="#DejaVuSans-30"/>
       <use xlink:href="#DejaVuSans-2e" x="63.623047"/>
       <use xlink:href="#DejaVuSans-33" x="95.410156"/>
      </g>
     </g>
    </g>
    <g id="ytick_14">
     <g id="line2d_60">
      <path d="M 47.72 729.505654 
L 709.2 729.505654 
" clip-path="url(#p584cd86f83)" style="fill: none; stroke: #b0b0b0; stroke-width: 0.8; stroke-linecap: square"/>
     </g>
     <g id="line2d_61">
      <g>
       <use xlink:href="#m42a8156e6b" x="47.72" y="729.505654" style="stroke: #000000; stroke-width: 0.8"/>
      </g>
     </g>
     <g id="text_16">
      <!-- 0.4 -->
      <g transform="translate(24.816875 733.304873) scale(0.1 -0.1)">
       <use xlink:href="#DejaVuSans-30"/>
       <use xlink:href="#DejaVuSans-2e" x="63.623047"/>
       <use xlink:href="#DejaVuSans-34" x="95.410156"/>
      </g>
     </g>
    </g>
    <g id="ytick_15">
     <g id="line2d_62">
      <path d="M 47.72 676.996068 
L 709.2 676.996068 
" clip-path="url(#p584cd86f83)" style="fill: none; stroke: #b0b0b0; stroke-width: 0.8; stroke-linecap: square"/>
     </g>
     <g id="line2d_63">
      <g>
       <use xlink:href="#m42a8156e6b" x="47.72" y="676.996068" style="stroke: #000000; stroke-width: 0.8"/>
      </g>
     </g>
     <g id="text_17">
      <!-- 0.5 -->
      <g transform="translate(24.816875 680.795287) scale(0.1 -0.1)">
       <use xlink:href="#DejaVuSans-30"/>
       <use xlink:href="#DejaVuSans-2e" x="63.623047"/>
       <use xlink:href="#DejaVuSans-35" x="95.410156"/>
      </g>
     </g>
    </g>
    <g id="ytick_16">
     <g id="line2d_64">
      <path d="M 47.72 624.486482 
L 709.2 624.486482 
" clip-path="url(#p584cd86f83)" style="fill: none; stroke: #b0b0b0; stroke-width: 0.8; stroke-linecap: square"/>
     </g>
     <g id="line2d_65">
      <g>
       <use xlink:href="#m42a8156e6b" x="47.72" y="624.486482" style="stroke: #000000; stroke-width: 0.8"/>
      </g>
     </g>
     <g id="text_18">
      <!-- 0.6 -->
      <g transform="translate(24.816875 628.2857) scale(0.1 -0.1)">
       <use xlink:href="#DejaVuSans-30"/>
       <use xlink:href="#DejaVuSans-2e" x="63.623047"/>
       <use xlink:href="#DejaVuSans-36" x="95.410156"/>
      </g>
     </g>
    </g>
    <g id="ytick_17">
     <g id="line2d_66">
      <path d="M 47.72 571.976895 
L 709.2 571.976895 
" clip-path="url(#p584cd86f83)" style="fill: none; stroke: #b0b0b0; stroke-width: 0.8; stroke-linecap: square"/>
     </g>
     <g id="line2d_67">
      <g>
       <use xlink:href="#m42a8156e6b" x="47.72" y="571.976895" style="stroke: #000000; stroke-width: 0.8"/>
      </g>
     </g>
     <g id="text_19">
      <!-- 0.7 -->
      <g transform="translate(24.816875 575.776114) scale(0.1 -0.1)">
       <use xlink:href="#DejaVuSans-30"/>
       <use xlink:href="#DejaVuSans-2e" x="63.623047"/>
       <use xlink:href="#DejaVuSans-37" x="95.410156"/>
      </g>
     </g>
    </g>
    <g id="ytick_18">
     <g id="line2d_68">
      <path d="M 47.72 519.467309 
L 709.2 519.467309 
" clip-path="url(#p584cd86f83)" style="fill: none; stroke: #b0b0b0; stroke-width: 0.8; stroke-linecap: square"/>
     </g>
     <g id="line2d_69">
      <g>
       <use xlink:href="#m42a8156e6b" x="47.72" y="519.467309" style="stroke: #000000; stroke-width: 0.8"/>
      </g>
     </g>
     <g id="text_20">
      <!-- 0.8 -->
      <g transform="translate(24.816875 523.266528) scale(0.1 -0.1)">
       <use xlink:href="#DejaVuSans-30"/>
       <use xlink:href="#DejaVuSans-2e" x="63.623047"/>
       <use xlink:href="#DejaVuSans-38" x="95.410156"/>
      </g>
     </g>
    </g>
    <g id="text_21">
     <!-- Density -->
     <g transform="translate(18.737188 738.636594) rotate(-90) scale(0.1 -0.1)">
      <use xlink:href="#DejaVuSans-44"/>
      <use xlink:href="#DejaVuSans-65" x="77.001953"/>
      <use xlink:href="#DejaVuSans-6e" x="138.525391"/>
      <use xlink:href="#DejaVuSans-73" x="201.904297"/>
      <use xlink:href="#DejaVuSans-69" x="254.003906"/>
      <use xlink:href="#DejaVuSans-74" x="281.787109"/>
      <use xlink:href="#DejaVuSans-79" x="320.996094"/>
     </g>
    </g>
   </g>
   <g id="line2d_70">
    <path d="M 127.888012 939.310837 
L 131.006241 938.971 
L 132.565355 938.677306 
L 134.124469 938.263701 
L 135.683584 937.69653 
L 137.242698 936.939242 
L 138.801813 935.954724 
L 140.360927 934.70844 
L 141.920041 933.172115 
L 143.479156 931.327497 
L 145.03827 929.16961 
L 146.597384 926.708833 
L 148.156499 923.971227 
L 151.274727 917.835304 
L 155.952071 907.753361 
L 163.747642 890.476598 
L 166.865871 882.964582 
L 169.9841 874.524558 
L 173.102328 864.810806 
L 176.220557 853.618599 
L 179.338786 840.881822 
L 182.457015 826.636886 
L 185.575243 810.984344 
L 188.693472 794.063634 
L 191.811701 776.046753 
L 196.489044 747.455453 
L 208.961959 669.563065 
L 213.639302 642.488604 
L 216.757531 625.449255 
L 219.875759 609.298088 
L 222.993988 594.153382 
L 226.112217 580.151734 
L 229.230445 567.382861 
L 232.348674 555.860638 
L 235.466903 545.581344 
L 237.026017 540.931005 
L 238.585132 536.641018 
L 240.144246 532.752183 
L 241.70336 529.314774 
L 243.262475 526.38375 
L 244.821589 524.012621 
L 246.380703 522.247071 
L 247.939818 521.119504 
L 249.498932 520.645456 
L 251.058046 520.822406 
L 252.617161 521.631008 
L 254.176275 523.038266 
L 255.73539 525.001828 
L 257.294504 527.474437 
L 258.853618 530.407673 
L 260.412733 533.75441 
L 261.971847 537.469797 
L 265.090076 545.83612 
L 268.208304 555.170297 
L 272.885648 570.262817 
L 279.122105 591.259085 
L 282.240334 602.195029 
L 285.358562 613.787158 
L 288.476791 626.325379 
L 291.59502 639.907553 
L 296.272363 661.787288 
L 304.067935 698.685488 
L 308.745278 719.264047 
L 313.422621 738.437023 
L 318.099964 756.501967 
L 322.777307 773.655566 
L 327.45465 789.849098 
L 330.572879 799.992211 
L 333.691108 809.500825 
L 336.809336 818.291443 
L 339.927565 826.322307 
L 343.045794 833.613227 
L 346.164022 840.255773 
L 349.282251 846.411384 
L 357.077823 860.984814 
L 364.873395 875.328969 
L 367.991623 880.559575 
L 371.109852 885.281878 
L 374.228081 889.573397 
L 380.464538 897.980302 
L 383.582767 902.603921 
L 388.26011 909.78919 
L 389.819225 911.990592 
L 391.378339 913.952257 
L 392.937453 915.594905 
L 394.496568 916.860054 
L 396.055682 917.720135 
L 397.614796 918.185154 
L 399.173911 918.304602 
L 400.733025 918.164028 
L 405.410368 917.373328 
L 406.969482 917.399705 
L 408.528597 917.735624 
L 410.087711 918.431138 
L 411.646826 919.496191 
L 413.20594 920.902112 
L 414.765054 922.587857 
L 417.883283 926.452687 
L 421.001512 930.352609 
L 422.560626 932.116486 
L 424.11974 933.686183 
L 425.678855 935.035608 
L 427.237969 936.158083 
L 428.797084 937.062681 
L 430.356198 937.769693 
L 431.915312 938.30604 
L 435.033541 938.984194 
L 438.15177 939.314571 
L 438.15177 939.314571 
" clip-path="url(#p584cd86f83)" style="fill: none; stroke: #1f77b4; stroke-width: 1.5; stroke-linecap: square"/>
   </g>
   <g id="patch_8">
    <path d="M 47.72 939.544 
L 47.72 499.712 
" style="fill: none; stroke: #000000; stroke-width: 0.8; stroke-linejoin: miter; stroke-linecap: square"/>
   </g>
   <g id="patch_9">
    <path d="M 709.2 939.544 
L 709.2 499.712 
" style="fill: none; stroke: #000000; stroke-width: 0.8; stroke-linejoin: miter; stroke-linecap: square"/>
   </g>
   <g id="patch_10">
    <path d="M 47.72 939.544 
L 709.2 939.544 
" style="fill: none; stroke: #000000; stroke-width: 0.8; stroke-linejoin: miter; stroke-linecap: square"/>
   </g>
   <g id="patch_11">
    <path d="M 47.72 499.712 
L 709.2 499.712 
" style="fill: none; stroke: #000000; stroke-width: 0.8; stroke-linejoin: miter; stroke-linecap: square"/>
   </g>
   <g id="text_22">
    <!-- Bangladesh - 2016 -->
    <g transform="translate(322.03375 493.712) scale(0.12 -0.12)">
     <defs>
      <path id="DejaVuSans-42" d="M 1259 2228 
L 1259 519 
L 2272 519 
Q 2781 519 3026 730 
Q 3272 941 3272 1375 
Q 3272 1813 3026 2020 
Q 2781 2228 2272 2228 
L 1259 2228 
z
M 1259 4147 
L 1259 2741 
L 2194 2741 
Q 2656 2741 2882 2914 
Q 3109 3088 3109 3444 
Q 3109 3797 2882 3972 
Q 2656 4147 2194 4147 
L 1259 4147 
z
M 628 4666 
L 2241 4666 
Q 2963 4666 3353 4366 
Q 3744 4066 3744 3513 
Q 3744 3084 3544 2831 
Q 3344 2578 2956 2516 
Q 3422 2416 3680 2098 
Q 3938 1781 3938 1306 
Q 3938 681 3513 340 
Q 3088 0 2303 0 
L 628 0 
L 628 4666 
z
" transform="scale(0.015625)"/>
      <path id="DejaVuSans-67" d="M 2906 1791 
Q 2906 2416 2648 2759 
Q 2391 3103 1925 3103 
Q 1463 3103 1205 2759 
Q 947 2416 947 1791 
Q 947 1169 1205 825 
Q 1463 481 1925 481 
Q 2391 481 2648 825 
Q 2906 1169 2906 1791 
z
M 3481 434 
Q 3481 -459 3084 -895 
Q 2688 -1331 1869 -1331 
Q 1566 -1331 1297 -1286 
Q 1028 -1241 775 -1147 
L 775 -588 
Q 1028 -725 1275 -790 
Q 1522 -856 1778 -856 
Q 2344 -856 2625 -561 
Q 2906 -266 2906 331 
L 2906 616 
Q 2728 306 2450 153 
Q 2172 0 1784 0 
Q 1141 0 747 490 
Q 353 981 353 1791 
Q 353 2603 747 3093 
Q 1141 3584 1784 3584 
Q 2172 3584 2450 3431 
Q 2728 3278 2906 2969 
L 2906 3500 
L 3481 3500 
L 3481 434 
z
" transform="scale(0.015625)"/>
      <path id="DejaVuSans-6c" d="M 603 4863 
L 1178 4863 
L 1178 0 
L 603 0 
L 603 4863 
z
" transform="scale(0.015625)"/>
      <path id="DejaVuSans-64" d="M 2906 2969 
L 2906 4863 
L 3481 4863 
L 3481 0 
L 2906 0 
L 2906 525 
Q 2725 213 2448 61 
Q 2172 -91 1784 -91 
Q 1150 -91 751 415 
Q 353 922 353 1747 
Q 353 2572 751 3078 
Q 1150 3584 1784 3584 
Q 2172 3584 2448 3432 
Q 2725 3281 2906 2969 
z
M 947 1747 
Q 947 1113 1208 752 
Q 1469 391 1925 391 
Q 2381 391 2643 752 
Q 2906 1113 2906 1747 
Q 2906 2381 2643 2742 
Q 2381 3103 1925 3103 
Q 1469 3103 1208 2742 
Q 947 2381 947 1747 
z
" transform="scale(0.015625)"/>
     </defs>
     <use xlink:href="#DejaVuSans-42"/>
     <use xlink:href="#DejaVuSans-61" x="68.603516"/>
     <use xlink:href="#DejaVuSans-6e" x="129.882812"/>
     <use xlink:href="#DejaVuSans-67" x="193.261719"/>
     <use xlink:href="#DejaVuSans-6c" x="256.738281"/>
     <use xlink:href="#DejaVuSans-61" x="284.521484"/>
     <use xlink:href="#DejaVuSans-64" x="345.800781"/>
     <use xlink:href="#DejaVuSans-65" x="409.277344"/>
     <use xlink:href="#DejaVuSans-73" x="470.800781"/>
     <use xlink:href="#DejaVuSans-68" x="522.900391"/>
     <use xlink:href="#DejaVuSans-20" x="586.279297"/>
     <use xlink:href="#DejaVuSans-2d" x="618.066406"/>
     <use xlink:href="#DejaVuSans-20" x="654.150391"/>
     <use xlink:href="#DejaVuSans-32" x="685.9375"/>
     <use xlink:href="#DejaVuSans-30" x="749.560547"/>
     <use xlink:href="#DejaVuSans-31" x="813.183594"/>
     <use xlink:href="#DejaVuSans-36" x="876.806641"/>
    </g>
   </g>
  </g>
  <g id="axes_3">
   <g id="patch_12">
    <path d="M 47.72 1412.376 
L 709.2 1412.376 
L 709.2 972.544 
L 47.72 972.544 
z
" style="fill: #ffffff"/>
   </g>
   <g id="matplotlib.axis_5">
    <g id="xtick_17">
     <g id="line2d_71">
      <path d="M 134.520054 1412.376 
L 134.520054 972.544 
" clip-path="url(#p9d182ea945)" style="fill: none; stroke: #b0b0b0; stroke-width: 0.8; stroke-linecap: square"/>
     </g>
     <g id="line2d_72">
      <g>
       <use xlink:href="#ma0a61c7e48" x="134.520054" y="1412.376" style="stroke: #000000; stroke-width: 0.8"/>
      </g>
     </g>
    </g>
    <g id="xtick_18">
     <g id="line2d_73">
      <path d="M 201.761189 1412.376 
L 201.761189 972.544 
" clip-path="url(#p9d182ea945)" style="fill: none; stroke: #b0b0b0; stroke-width: 0.8; stroke-linecap: square"/>
     </g>
     <g id="line2d_74">
      <g>
       <use xlink:href="#ma0a61c7e48" x="201.761189" y="1412.376" style="stroke: #000000; stroke-width: 0.8"/>
      </g>
     </g>
    </g>
    <g id="xtick_19">
     <g id="line2d_75">
      <path d="M 290.649134 1412.376 
L 290.649134 972.544 
" clip-path="url(#p9d182ea945)" style="fill: none; stroke: #b0b0b0; stroke-width: 0.8; stroke-linecap: square"/>
     </g>
     <g id="line2d_76">
      <g>
       <use xlink:href="#ma0a61c7e48" x="290.649134" y="1412.376" style="stroke: #000000; stroke-width: 0.8"/>
      </g>
     </g>
    </g>
    <g id="xtick_20">
     <g id="line2d_77">
      <path d="M 357.890268 1412.376 
L 357.890268 972.544 
" clip-path="url(#p9d182ea945)" style="fill: none; stroke: #b0b0b0; stroke-width: 0.8; stroke-linecap: square"/>
     </g>
     <g id="line2d_78">
      <g>
       <use xlink:href="#ma0a61c7e48" x="357.890268" y="1412.376" style="stroke: #000000; stroke-width: 0.8"/>
      </g>
     </g>
    </g>
    <g id="xtick_21">
     <g id="line2d_79">
      <path d="M 425.131403 1412.376 
L 425.131403 972.544 
" clip-path="url(#p9d182ea945)" style="fill: none; stroke: #b0b0b0; stroke-width: 0.8; stroke-linecap: square"/>
     </g>
     <g id="line2d_80">
      <g>
       <use xlink:href="#ma0a61c7e48" x="425.131403" y="1412.376" style="stroke: #000000; stroke-width: 0.8"/>
      </g>
     </g>
    </g>
    <g id="xtick_22">
     <g id="line2d_81">
      <path d="M 514.019348 1412.376 
L 514.019348 972.544 
" clip-path="url(#p9d182ea945)" style="fill: none; stroke: #b0b0b0; stroke-width: 0.8; stroke-linecap: square"/>
     </g>
     <g id="line2d_82">
      <g>
       <use xlink:href="#ma0a61c7e48" x="514.019348" y="1412.376" style="stroke: #000000; stroke-width: 0.8"/>
      </g>
     </g>
    </g>
    <g id="xtick_23">
     <g id="line2d_83">
      <path d="M 581.260482 1412.376 
L 581.260482 972.544 
" clip-path="url(#p9d182ea945)" style="fill: none; stroke: #b0b0b0; stroke-width: 0.8; stroke-linecap: square"/>
     </g>
     <g id="line2d_84">
      <g>
       <use xlink:href="#ma0a61c7e48" x="581.260482" y="1412.376" style="stroke: #000000; stroke-width: 0.8"/>
      </g>
     </g>
    </g>
    <g id="xtick_24">
     <g id="line2d_85">
      <path d="M 648.501617 1412.376 
L 648.501617 972.544 
" clip-path="url(#p9d182ea945)" style="fill: none; stroke: #b0b0b0; stroke-width: 0.8; stroke-linecap: square"/>
     </g>
     <g id="line2d_86">
      <g>
       <use xlink:href="#ma0a61c7e48" x="648.501617" y="1412.376" style="stroke: #000000; stroke-width: 0.8"/>
      </g>
     </g>
    </g>
   </g>
   <g id="matplotlib.axis_6">
    <g id="ytick_19">
     <g id="line2d_87">
      <path d="M 47.72 1412.376 
L 709.2 1412.376 
" clip-path="url(#p9d182ea945)" style="fill: none; stroke: #b0b0b0; stroke-width: 0.8; stroke-linecap: square"/>
     </g>
     <g id="line2d_88">
      <g>
       <use xlink:href="#m42a8156e6b" x="47.72" y="1412.376" style="stroke: #000000; stroke-width: 0.8"/>
      </g>
     </g>
     <g id="text_23">
      <!-- 0.0 -->
      <g transform="translate(24.816875 1416.175219) scale(0.1 -0.1)">
       <use xlink:href="#DejaVuSans-30"/>
       <use xlink:href="#DejaVuSans-2e" x="63.623047"/>
       <use xlink:href="#DejaVuSans-30" x="95.410156"/>
      </g>
     </g>
    </g>
    <g id="ytick_20">
     <g id="line2d_89">
      <path d="M 47.72 1351.229066 
L 709.2 1351.229066 
" clip-path="url(#p9d182ea945)" style="fill: none; stroke: #b0b0b0; stroke-width: 0.8; stroke-linecap: square"/>
     </g>
     <g id="line2d_90">
      <g>
       <use xlink:href="#m42a8156e6b" x="47.72" y="1351.229066" style="stroke: #000000; stroke-width: 0.8"/>
      </g>
     </g>
     <g id="text_24">
      <!-- 0.1 -->
      <g transform="translate(24.816875 1355.028285) scale(0.1 -0.1)">
       <use xlink:href="#DejaVuSans-30"/>
       <use xlink:href="#DejaVuSans-2e" x="63.623047"/>
       <use xlink:href="#DejaVuSans-31" x="95.410156"/>
      </g>
     </g>
    </g>
    <g id="ytick_21">
     <g id="line2d_91">
      <path d="M 47.72 1290.082132 
L 709.2 1290.082132 
" clip-path="url(#p9d182ea945)" style="fill: none; stroke: #b0b0b0; stroke-width: 0.8; stroke-linecap: square"/>
     </g>
     <g id="line2d_92">
      <g>
       <use xlink:href="#m42a8156e6b" x="47.72" y="1290.082132" style="stroke: #000000; stroke-width: 0.8"/>
      </g>
     </g>
     <g id="text_25">
      <!-- 0.2 -->
      <g transform="translate(24.816875 1293.881351) scale(0.1 -0.1)">
       <use xlink:href="#DejaVuSans-30"/>
       <use xlink:href="#DejaVuSans-2e" x="63.623047"/>
       <use xlink:href="#DejaVuSans-32" x="95.410156"/>
      </g>
     </g>
    </g>
    <g id="ytick_22">
     <g id="line2d_93">
      <path d="M 47.72 1228.935198 
L 709.2 1228.935198 
" clip-path="url(#p9d182ea945)" style="fill: none; stroke: #b0b0b0; stroke-width: 0.8; stroke-linecap: square"/>
     </g>
     <g id="line2d_94">
      <g>
       <use xlink:href="#m42a8156e6b" x="47.72" y="1228.935198" style="stroke: #000000; stroke-width: 0.8"/>
      </g>
     </g>
     <g id="text_26">
      <!-- 0.3 -->
      <g transform="translate(24.816875 1232.734417) scale(0.1 -0.1)">
       <use xlink:href="#DejaVuSans-30"/>
       <use xlink:href="#DejaVuSans-2e" x="63.623047"/>
       <use xlink:href="#DejaVuSans-33" x="95.410156"/>
      </g>
     </g>
    </g>
    <g id="ytick_23">
     <g id="line2d_95">
      <path d="M 47.72 1167.788264 
L 709.2 1167.788264 
" clip-path="url(#p9d182ea945)" style="fill: none; stroke: #b0b0b0; stroke-width: 0.8; stroke-linecap: square"/>
     </g>
     <g id="line2d_96">
      <g>
       <use xlink:href="#m42a8156e6b" x="47.72" y="1167.788264" style="stroke: #000000; stroke-width: 0.8"/>
      </g>
     </g>
     <g id="text_27">
      <!-- 0.4 -->
      <g transform="translate(24.816875 1171.587483) scale(0.1 -0.1)">
       <use xlink:href="#DejaVuSans-30"/>
       <use xlink:href="#DejaVuSans-2e" x="63.623047"/>
       <use xlink:href="#DejaVuSans-34" x="95.410156"/>
      </g>
     </g>
    </g>
    <g id="ytick_24">
     <g id="line2d_97">
      <path d="M 47.72 1106.64133 
L 709.2 1106.64133 
" clip-path="url(#p9d182ea945)" style="fill: none; stroke: #b0b0b0; stroke-width: 0.8; stroke-linecap: square"/>
     </g>
     <g id="line2d_98">
      <g>
       <use xlink:href="#m42a8156e6b" x="47.72" y="1106.64133" style="stroke: #000000; stroke-width: 0.8"/>
      </g>
     </g>
     <g id="text_28">
      <!-- 0.5 -->
      <g transform="translate(24.816875 1110.440549) scale(0.1 -0.1)">
       <use xlink:href="#DejaVuSans-30"/>
       <use xlink:href="#DejaVuSans-2e" x="63.623047"/>
       <use xlink:href="#DejaVuSans-35" x="95.410156"/>
      </g>
     </g>
    </g>
    <g id="ytick_25">
     <g id="line2d_99">
      <path d="M 47.72 1045.494396 
L 709.2 1045.494396 
" clip-path="url(#p9d182ea945)" style="fill: none; stroke: #b0b0b0; stroke-width: 0.8; stroke-linecap: square"/>
     </g>
     <g id="line2d_100">
      <g>
       <use xlink:href="#m42a8156e6b" x="47.72" y="1045.494396" style="stroke: #000000; stroke-width: 0.8"/>
      </g>
     </g>
     <g id="text_29">
      <!-- 0.6 -->
      <g transform="translate(24.816875 1049.293615) scale(0.1 -0.1)">
       <use xlink:href="#DejaVuSans-30"/>
       <use xlink:href="#DejaVuSans-2e" x="63.623047"/>
       <use xlink:href="#DejaVuSans-36" x="95.410156"/>
      </g>
     </g>
    </g>
    <g id="ytick_26">
     <g id="line2d_101">
      <path d="M 47.72 984.347462 
L 709.2 984.347462 
" clip-path="url(#p9d182ea945)" style="fill: none; stroke: #b0b0b0; stroke-width: 0.8; stroke-linecap: square"/>
     </g>
     <g id="line2d_102">
      <g>
       <use xlink:href="#m42a8156e6b" x="47.72" y="984.347462" style="stroke: #000000; stroke-width: 0.8"/>
      </g>
     </g>
     <g id="text_30">
      <!-- 0.7 -->
      <g transform="translate(24.816875 988.146681) scale(0.1 -0.1)">
       <use xlink:href="#DejaVuSans-30"/>
       <use xlink:href="#DejaVuSans-2e" x="63.623047"/>
       <use xlink:href="#DejaVuSans-37" x="95.410156"/>
      </g>
     </g>
    </g>
    <g id="text_31">
     <!-- Density -->
     <g transform="translate(18.737188 1211.468594) rotate(-90) scale(0.1 -0.1)">
      <use xlink:href="#DejaVuSans-44"/>
      <use xlink:href="#DejaVuSans-65" x="77.001953"/>
      <use xlink:href="#DejaVuSans-6e" x="138.525391"/>
      <use xlink:href="#DejaVuSans-73" x="201.904297"/>
      <use xlink:href="#DejaVuSans-69" x="254.003906"/>
      <use xlink:href="#DejaVuSans-74" x="281.787109"/>
      <use xlink:href="#DejaVuSans-79" x="320.996094"/>
     </g>
    </g>
   </g>
   <g id="line2d_103">
    <path d="M 169.402575 1412.156567 
L 173.2965 1411.830597 
L 175.243462 1411.547652 
L 177.190425 1411.148638 
L 179.137387 1410.601536 
L 181.08435 1409.872298 
L 183.031312 1408.927552 
L 184.978275 1407.738131 
L 186.925237 1406.283122 
L 188.872199 1404.553885 
L 190.819162 1402.557375 
L 192.766124 1400.318037 
L 196.660049 1395.293089 
L 202.500937 1387.357779 
L 206.394862 1382.554538 
L 208.341824 1380.429855 
L 210.288786 1378.510786 
L 212.235749 1376.794921 
L 214.182711 1375.269817 
L 216.129674 1373.917417 
L 218.076636 1372.717797 
L 221.970561 1370.699444 
L 225.864486 1369.058063 
L 231.705374 1366.817992 
L 233.652336 1365.96285 
L 235.599298 1364.965764 
L 237.546261 1363.772957 
L 239.493223 1362.336795 
L 241.440186 1360.620503 
L 243.387148 1358.601458 
L 245.334111 1356.272391 
L 247.281073 1353.640191 
L 249.228036 1350.722526 
L 251.174998 1347.542968 
L 255.068923 1340.490078 
L 258.962848 1332.604346 
L 262.856773 1323.886597 
L 266.750698 1314.278241 
L 270.644623 1303.794894 
L 274.538548 1292.622815 
L 286.220322 1258.321293 
L 297.902097 1224.79731 
L 301.796022 1212.615587 
L 305.689947 1199.425053 
L 309.583872 1185.138818 
L 313.477797 1169.861246 
L 319.318684 1145.716461 
L 329.053497 1105.194951 
L 334.894384 1081.808183 
L 342.682234 1051.671153 
L 346.576159 1037.333123 
L 350.470084 1024.066325 
L 352.417046 1018.034393 
L 354.364008 1012.514741 
L 356.310971 1007.585278 
L 358.257933 1003.315013 
L 360.204896 999.761913 
L 362.151858 996.972145 
L 364.098821 994.980388 
L 366.045783 993.810778 
L 367.992746 993.478003 
L 369.939708 993.988112 
L 371.886671 995.338762 
L 373.833633 997.518828 
L 375.780596 1000.507484 
L 377.727558 1004.273033 
L 379.67452 1008.771862 
L 381.621483 1013.947927 
L 383.568445 1019.733122 
L 385.515408 1026.048764 
L 389.409333 1039.920913 
L 393.303258 1054.8495 
L 414.719845 1139.453759 
L 420.560732 1163.850436 
L 430.295544 1204.861111 
L 434.189469 1220.402685 
L 438.083394 1235.162866 
L 441.977319 1249.120918 
L 445.871244 1262.278294 
L 449.765169 1274.59331 
L 453.659094 1285.985731 
L 457.553019 1296.39584 
L 461.446944 1305.849835 
L 465.340869 1314.485026 
L 469.234794 1322.512499 
L 475.075681 1333.822898 
L 478.969606 1340.972625 
L 482.863531 1347.734482 
L 486.757456 1353.998164 
L 490.651381 1359.704796 
L 494.545306 1364.86427 
L 498.439231 1369.497598 
L 502.333155 1373.574782 
L 504.280118 1375.384829 
L 506.22708 1377.037831 
L 510.121005 1379.921908 
L 517.908855 1385.130206 
L 519.855818 1386.63984 
L 521.80278 1388.321669 
L 523.749742 1390.186452 
L 527.643667 1394.380581 
L 533.484555 1401.009526 
L 535.431517 1403.037908 
L 537.37848 1404.878897 
L 539.325442 1406.497095 
L 541.272405 1407.875264 
L 543.219367 1409.013115 
L 545.16633 1409.924277 
L 547.113292 1410.632282 
L 549.060254 1411.166348 
L 552.954179 1411.836024 
L 556.848104 1412.158063 
L 556.848104 1412.158063 
" clip-path="url(#p9d182ea945)" style="fill: none; stroke: #1f77b4; stroke-width: 1.5; stroke-linecap: square"/>
   </g>
   <g id="patch_13">
    <path d="M 47.72 1412.376 
L 47.72 972.544 
" style="fill: none; stroke: #000000; stroke-width: 0.8; stroke-linejoin: miter; stroke-linecap: square"/>
   </g>
   <g id="patch_14">
    <path d="M 709.2 1412.376 
L 709.2 972.544 
" style="fill: none; stroke: #000000; stroke-width: 0.8; stroke-linejoin: miter; stroke-linecap: square"/>
   </g>
   <g id="patch_15">
    <path d="M 47.72 1412.376 
L 709.2 1412.376 
" style="fill: none; stroke: #000000; stroke-width: 0.8; stroke-linejoin: miter; stroke-linecap: square"/>
   </g>
   <g id="patch_16">
    <path d="M 47.72 972.544 
L 709.2 972.544 
" style="fill: none; stroke: #000000; stroke-width: 0.8; stroke-linejoin: miter; stroke-linecap: square"/>
   </g>
   <g id="text_32">
    <!-- Vietnam - 2018 -->
    <g transform="translate(332.2075 966.544) scale(0.12 -0.12)">
     <defs>
      <path id="DejaVuSans-56" d="M 1831 0 
L 50 4666 
L 709 4666 
L 2188 738 
L 3669 4666 
L 4325 4666 
L 2547 0 
L 1831 0 
z
" transform="scale(0.015625)"/>
      <path id="DejaVuSans-6d" d="M 3328 2828 
Q 3544 3216 3844 3400 
Q 4144 3584 4550 3584 
Q 5097 3584 5394 3201 
Q 5691 2819 5691 2113 
L 5691 0 
L 5113 0 
L 5113 2094 
Q 5113 2597 4934 2840 
Q 4756 3084 4391 3084 
Q 3944 3084 3684 2787 
Q 3425 2491 3425 1978 
L 3425 0 
L 2847 0 
L 2847 2094 
Q 2847 2600 2669 2842 
Q 2491 3084 2119 3084 
Q 1678 3084 1418 2786 
Q 1159 2488 1159 1978 
L 1159 0 
L 581 0 
L 581 3500 
L 1159 3500 
L 1159 2956 
Q 1356 3278 1631 3431 
Q 1906 3584 2284 3584 
Q 2666 3584 2933 3390 
Q 3200 3197 3328 2828 
z
" transform="scale(0.015625)"/>
     </defs>
     <use xlink:href="#DejaVuSans-56"/>
     <use xlink:href="#DejaVuSans-69" x="66.158203"/>
     <use xlink:href="#DejaVuSans-65" x="93.941406"/>
     <use xlink:href="#DejaVuSans-74" x="155.464844"/>
     <use xlink:href="#DejaVuSans-6e" x="194.673828"/>
     <use xlink:href="#DejaVuSans-61" x="258.052734"/>
     <use xlink:href="#DejaVuSans-6d" x="319.332031"/>
     <use xlink:href="#DejaVuSans-20" x="416.744141"/>
     <use xlink:href="#DejaVuSans-2d" x="448.53125"/>
     <use xlink:href="#DejaVuSans-20" x="484.615234"/>
     <use xlink:href="#DejaVuSans-32" x="516.402344"/>
     <use xlink:href="#DejaVuSans-30" x="580.025391"/>
     <use xlink:href="#DejaVuSans-31" x="643.648438"/>
     <use xlink:href="#DejaVuSans-38" x="707.271484"/>
    </g>
   </g>
  </g>
  <g id="axes_4">
   <g id="patch_17">
    <path d="M 47.72 1885.208 
L 709.2 1885.208 
L 709.2 1445.376 
L 47.72 1445.376 
z
" style="fill: #ffffff"/>
   </g>
   <g id="matplotlib.axis_7">
    <g id="xtick_25">
     <g id="line2d_104">
      <path d="M 134.520054 1885.208 
L 134.520054 1445.376 
" clip-path="url(#pc7e8def11d)" style="fill: none; stroke: #b0b0b0; stroke-width: 0.8; stroke-linecap: square"/>
     </g>
     <g id="line2d_105">
      <g>
       <use xlink:href="#ma0a61c7e48" x="134.520054" y="1885.208" style="stroke: #000000; stroke-width: 0.8"/>
      </g>
     </g>
    </g>
    <g id="xtick_26">
     <g id="line2d_106">
      <path d="M 201.761189 1885.208 
L 201.761189 1445.376 
" clip-path="url(#pc7e8def11d)" style="fill: none; stroke: #b0b0b0; stroke-width: 0.8; stroke-linecap: square"/>
     </g>
     <g id="line2d_107">
      <g>
       <use xlink:href="#ma0a61c7e48" x="201.761189" y="1885.208" style="stroke: #000000; stroke-width: 0.8"/>
      </g>
     </g>
    </g>
    <g id="xtick_27">
     <g id="line2d_108">
      <path d="M 290.649134 1885.208 
L 290.649134 1445.376 
" clip-path="url(#pc7e8def11d)" style="fill: none; stroke: #b0b0b0; stroke-width: 0.8; stroke-linecap: square"/>
     </g>
     <g id="line2d_109">
      <g>
       <use xlink:href="#ma0a61c7e48" x="290.649134" y="1885.208" style="stroke: #000000; stroke-width: 0.8"/>
      </g>
     </g>
    </g>
    <g id="xtick_28">
     <g id="line2d_110">
      <path d="M 357.890268 1885.208 
L 357.890268 1445.376 
" clip-path="url(#pc7e8def11d)" style="fill: none; stroke: #b0b0b0; stroke-width: 0.8; stroke-linecap: square"/>
     </g>
     <g id="line2d_111">
      <g>
       <use xlink:href="#ma0a61c7e48" x="357.890268" y="1885.208" style="stroke: #000000; stroke-width: 0.8"/>
      </g>
     </g>
    </g>
    <g id="xtick_29">
     <g id="line2d_112">
      <path d="M 425.131403 1885.208 
L 425.131403 1445.376 
" clip-path="url(#pc7e8def11d)" style="fill: none; stroke: #b0b0b0; stroke-width: 0.8; stroke-linecap: square"/>
     </g>
     <g id="line2d_113">
      <g>
       <use xlink:href="#ma0a61c7e48" x="425.131403" y="1885.208" style="stroke: #000000; stroke-width: 0.8"/>
      </g>
     </g>
    </g>
    <g id="xtick_30">
     <g id="line2d_114">
      <path d="M 514.019348 1885.208 
L 514.019348 1445.376 
" clip-path="url(#pc7e8def11d)" style="fill: none; stroke: #b0b0b0; stroke-width: 0.8; stroke-linecap: square"/>
     </g>
     <g id="line2d_115">
      <g>
       <use xlink:href="#ma0a61c7e48" x="514.019348" y="1885.208" style="stroke: #000000; stroke-width: 0.8"/>
      </g>
     </g>
    </g>
    <g id="xtick_31">
     <g id="line2d_116">
      <path d="M 581.260482 1885.208 
L 581.260482 1445.376 
" clip-path="url(#pc7e8def11d)" style="fill: none; stroke: #b0b0b0; stroke-width: 0.8; stroke-linecap: square"/>
     </g>
     <g id="line2d_117">
      <g>
       <use xlink:href="#ma0a61c7e48" x="581.260482" y="1885.208" style="stroke: #000000; stroke-width: 0.8"/>
      </g>
     </g>
    </g>
    <g id="xtick_32">
     <g id="line2d_118">
      <path d="M 648.501617 1885.208 
L 648.501617 1445.376 
" clip-path="url(#pc7e8def11d)" style="fill: none; stroke: #b0b0b0; stroke-width: 0.8; stroke-linecap: square"/>
     </g>
     <g id="line2d_119">
      <g>
       <use xlink:href="#ma0a61c7e48" x="648.501617" y="1885.208" style="stroke: #000000; stroke-width: 0.8"/>
      </g>
     </g>
    </g>
   </g>
   <g id="matplotlib.axis_8">
    <g id="ytick_27">
     <g id="line2d_120">
      <path d="M 47.72 1885.208 
L 709.2 1885.208 
" clip-path="url(#pc7e8def11d)" style="fill: none; stroke: #b0b0b0; stroke-width: 0.8; stroke-linecap: square"/>
     </g>
     <g id="line2d_121">
      <g>
       <use xlink:href="#m42a8156e6b" x="47.72" y="1885.208" style="stroke: #000000; stroke-width: 0.8"/>
      </g>
     </g>
     <g id="text_33">
      <!-- 0.0 -->
      <g transform="translate(24.816875 1889.007219) scale(0.1 -0.1)">
       <use xlink:href="#DejaVuSans-30"/>
       <use xlink:href="#DejaVuSans-2e" x="63.623047"/>
       <use xlink:href="#DejaVuSans-30" x="95.410156"/>
      </g>
     </g>
    </g>
    <g id="ytick_28">
     <g id="line2d_122">
      <path d="M 47.72 1811.597438 
L 709.2 1811.597438 
" clip-path="url(#pc7e8def11d)" style="fill: none; stroke: #b0b0b0; stroke-width: 0.8; stroke-linecap: square"/>
     </g>
     <g id="line2d_123">
      <g>
       <use xlink:href="#m42a8156e6b" x="47.72" y="1811.597438" style="stroke: #000000; stroke-width: 0.8"/>
      </g>
     </g>
     <g id="text_34">
      <!-- 0.1 -->
      <g transform="translate(24.816875 1815.396656) scale(0.1 -0.1)">
       <use xlink:href="#DejaVuSans-30"/>
       <use xlink:href="#DejaVuSans-2e" x="63.623047"/>
       <use xlink:href="#DejaVuSans-31" x="95.410156"/>
      </g>
     </g>
    </g>
    <g id="ytick_29">
     <g id="line2d_124">
      <path d="M 47.72 1737.986875 
L 709.2 1737.986875 
" clip-path="url(#pc7e8def11d)" style="fill: none; stroke: #b0b0b0; stroke-width: 0.8; stroke-linecap: square"/>
     </g>
     <g id="line2d_125">
      <g>
       <use xlink:href="#m42a8156e6b" x="47.72" y="1737.986875" style="stroke: #000000; stroke-width: 0.8"/>
      </g>
     </g>
     <g id="text_35">
      <!-- 0.2 -->
      <g transform="translate(24.816875 1741.786094) scale(0.1 -0.1)">
       <use xlink:href="#DejaVuSans-30"/>
       <use xlink:href="#DejaVuSans-2e" x="63.623047"/>
       <use xlink:href="#DejaVuSans-32" x="95.410156"/>
      </g>
     </g>
    </g>
    <g id="ytick_30">
     <g id="line2d_126">
      <path d="M 47.72 1664.376313 
L 709.2 1664.376313 
" clip-path="url(#pc7e8def11d)" style="fill: none; stroke: #b0b0b0; stroke-width: 0.8; stroke-linecap: square"/>
     </g>
     <g id="line2d_127">
      <g>
       <use xlink:href="#m42a8156e6b" x="47.72" y="1664.376313" style="stroke: #000000; stroke-width: 0.8"/>
      </g>
     </g>
     <g id="text_36">
      <!-- 0.3 -->
      <g transform="translate(24.816875 1668.175532) scale(0.1 -0.1)">
       <use xlink:href="#DejaVuSans-30"/>
       <use xlink:href="#DejaVuSans-2e" x="63.623047"/>
       <use xlink:href="#DejaVuSans-33" x="95.410156"/>
      </g>
     </g>
    </g>
    <g id="ytick_31">
     <g id="line2d_128">
      <path d="M 47.72 1590.765751 
L 709.2 1590.765751 
" clip-path="url(#pc7e8def11d)" style="fill: none; stroke: #b0b0b0; stroke-width: 0.8; stroke-linecap: square"/>
     </g>
     <g id="line2d_129">
      <g>
       <use xlink:href="#m42a8156e6b" x="47.72" y="1590.765751" style="stroke: #000000; stroke-width: 0.8"/>
      </g>
     </g>
     <g id="text_37">
      <!-- 0.4 -->
      <g transform="translate(24.816875 1594.56497) scale(0.1 -0.1)">
       <use xlink:href="#DejaVuSans-30"/>
       <use xlink:href="#DejaVuSans-2e" x="63.623047"/>
       <use xlink:href="#DejaVuSans-34" x="95.410156"/>
      </g>
     </g>
    </g>
    <g id="ytick_32">
     <g id="line2d_130">
      <path d="M 47.72 1517.155189 
L 709.2 1517.155189 
" clip-path="url(#pc7e8def11d)" style="fill: none; stroke: #b0b0b0; stroke-width: 0.8; stroke-linecap: square"/>
     </g>
     <g id="line2d_131">
      <g>
       <use xlink:href="#m42a8156e6b" x="47.72" y="1517.155189" style="stroke: #000000; stroke-width: 0.8"/>
      </g>
     </g>
     <g id="text_38">
      <!-- 0.5 -->
      <g transform="translate(24.816875 1520.954407) scale(0.1 -0.1)">
       <use xlink:href="#DejaVuSans-30"/>
       <use xlink:href="#DejaVuSans-2e" x="63.623047"/>
       <use xlink:href="#DejaVuSans-35" x="95.410156"/>
      </g>
     </g>
    </g>
    <g id="text_39">
     <!-- Density -->
     <g transform="translate(18.737188 1684.300594) rotate(-90) scale(0.1 -0.1)">
      <use xlink:href="#DejaVuSans-44"/>
      <use xlink:href="#DejaVuSans-65" x="77.001953"/>
      <use xlink:href="#DejaVuSans-6e" x="138.525391"/>
      <use xlink:href="#DejaVuSans-73" x="201.904297"/>
      <use xlink:href="#DejaVuSans-69" x="254.003906"/>
      <use xlink:href="#DejaVuSans-74" x="281.787109"/>
      <use xlink:href="#DejaVuSans-79" x="320.996094"/>
     </g>
    </g>
   </g>
   <g id="line2d_132">
    <path d="M 207.870606 1884.971901 
L 212.12814 1884.632578 
L 214.256908 1884.341098 
L 216.385675 1883.932393 
L 218.514443 1883.374426 
L 220.64321 1882.632857 
L 222.771977 1881.673468 
L 224.900745 1880.465348 
L 227.029512 1878.984569 
L 229.15828 1877.21787 
L 231.287047 1875.165721 
L 233.415814 1872.844118 
L 235.544582 1870.284503 
L 239.802117 1864.638486 
L 261.089791 1834.837774 
L 265.347326 1828.089984 
L 269.60486 1820.686346 
L 273.862395 1812.731824 
L 280.248697 1800.127491 
L 284.506232 1791.370142 
L 288.763767 1782.211889 
L 293.021302 1772.44779 
L 297.278837 1761.894444 
L 301.536372 1750.467557 
L 305.793906 1738.181314 
L 310.051441 1725.080351 
L 314.308976 1711.169742 
L 318.566511 1696.413196 
L 322.824046 1680.814528 
L 329.210348 1656.21708 
L 337.725417 1623.18603 
L 341.982952 1607.403399 
L 348.369255 1584.851961 
L 363.270626 1533.916642 
L 367.528161 1519.711245 
L 371.785696 1506.286625 
L 373.914463 1500.039464 
L 376.043231 1494.194895 
L 378.171998 1488.816256 
L 380.300766 1483.958049 
L 382.429533 1479.663276 
L 384.5583 1475.961706 
L 386.687068 1472.869317 
L 388.815835 1470.389022 
L 390.944603 1468.5125 
L 393.07337 1467.222789 
L 395.202138 1466.497091 
L 397.330905 1466.30922 
L 399.459672 1466.631238 
L 401.58844 1467.434076 
L 403.717207 1468.687255 
L 405.845975 1470.358113 
L 407.974742 1472.411173 
L 410.103509 1474.808278 
L 412.232277 1477.510002 
L 414.361044 1480.478498 
L 416.489812 1483.68151 
L 420.747346 1490.716792 
L 422.876114 1494.549947 
L 425.004881 1498.622021 
L 427.133649 1502.972598 
L 429.262416 1507.649424 
L 431.391183 1512.700373 
L 433.519951 1518.164406 
L 435.648718 1524.063056 
L 437.777486 1530.393981 
L 442.03502 1544.209127 
L 446.292555 1559.092616 
L 454.807625 1589.261173 
L 459.06516 1603.563966 
L 463.322695 1617.230047 
L 476.095299 1656.834971 
L 488.867903 1696.607831 
L 493.125438 1709.325304 
L 497.382973 1721.529187 
L 501.640508 1733.218031 
L 508.02681 1749.94832 
L 514.413112 1765.915077 
L 518.670647 1776.134152 
L 522.928182 1785.928015 
L 527.185717 1795.19373 
L 531.443252 1803.843244 
L 535.700786 1811.830658 
L 539.958321 1819.148544 
L 544.215856 1825.792104 
L 548.473391 1831.721734 
L 550.602158 1834.39658 
L 552.730926 1836.866293 
L 554.859693 1839.125905 
L 556.988461 1841.175832 
L 559.117228 1843.022625 
L 561.245995 1844.67843 
L 563.374763 1846.159306 
L 565.50353 1847.482958 
L 569.761065 1849.726271 
L 574.0186 1851.533574 
L 584.662437 1855.407729 
L 586.791204 1856.40813 
L 588.919972 1857.599941 
L 591.048739 1859.017161 
L 593.177506 1860.673811 
L 595.306274 1862.560149 
L 599.563809 1866.865408 
L 605.950111 1873.658494 
L 608.078878 1875.722205 
L 610.207646 1877.589341 
L 612.336413 1879.226737 
L 614.465181 1880.619492 
L 616.593948 1881.769248 
L 618.722715 1882.690947 
L 620.851483 1883.408809 
L 622.98025 1883.952253 
L 625.109018 1884.352292 
L 629.366552 1884.838302 
L 631.49532 1884.97363 
L 631.49532 1884.97363 
" clip-path="url(#pc7e8def11d)" style="fill: none; stroke: #1f77b4; stroke-width: 1.5; stroke-linecap: square"/>
   </g>
   <g id="patch_18">
    <path d="M 47.72 1885.208 
L 47.72 1445.376 
" style="fill: none; stroke: #000000; stroke-width: 0.8; stroke-linejoin: miter; stroke-linecap: square"/>
   </g>
   <g id="patch_19">
    <path d="M 709.2 1885.208 
L 709.2 1445.376 
" style="fill: none; stroke: #000000; stroke-width: 0.8; stroke-linejoin: miter; stroke-linecap: square"/>
   </g>
   <g id="patch_20">
    <path d="M 47.72 1885.208 
L 709.2 1885.208 
" style="fill: none; stroke: #000000; stroke-width: 0.8; stroke-linejoin: miter; stroke-linecap: square"/>
   </g>
   <g id="patch_21">
    <path d="M 47.72 1445.376 
L 709.2 1445.376 
" style="fill: none; stroke: #000000; stroke-width: 0.8; stroke-linejoin: miter; stroke-linecap: square"/>
   </g>
   <g id="text_40">
    <!-- Turkiye - 2017 -->
    <g transform="translate(335.800938 1439.376) scale(0.12 -0.12)">
     <defs>
      <path id="DejaVuSans-54" d="M -19 4666 
L 3928 4666 
L 3928 4134 
L 2272 4134 
L 2272 0 
L 1638 0 
L 1638 4134 
L -19 4134 
L -19 4666 
z
" transform="scale(0.015625)"/>
      <path id="DejaVuSans-75" d="M 544 1381 
L 544 3500 
L 1119 3500 
L 1119 1403 
Q 1119 906 1312 657 
Q 1506 409 1894 409 
Q 2359 409 2629 706 
Q 2900 1003 2900 1516 
L 2900 3500 
L 3475 3500 
L 3475 0 
L 2900 0 
L 2900 538 
Q 2691 219 2414 64 
Q 2138 -91 1772 -91 
Q 1169 -91 856 284 
Q 544 659 544 1381 
z
M 1991 3584 
L 1991 3584 
z
" transform="scale(0.015625)"/>
      <path id="DejaVuSans-72" d="M 2631 2963 
Q 2534 3019 2420 3045 
Q 2306 3072 2169 3072 
Q 1681 3072 1420 2755 
Q 1159 2438 1159 1844 
L 1159 0 
L 581 0 
L 581 3500 
L 1159 3500 
L 1159 2956 
Q 1341 3275 1631 3429 
Q 1922 3584 2338 3584 
Q 2397 3584 2469 3576 
Q 2541 3569 2628 3553 
L 2631 2963 
z
" transform="scale(0.015625)"/>
      <path id="DejaVuSans-6b" d="M 581 4863 
L 1159 4863 
L 1159 1991 
L 2875 3500 
L 3609 3500 
L 1753 1863 
L 3688 0 
L 2938 0 
L 1159 1709 
L 1159 0 
L 581 0 
L 581 4863 
z
" transform="scale(0.015625)"/>
     </defs>
     <use xlink:href="#DejaVuSans-54"/>
     <use xlink:href="#DejaVuSans-75" x="45.958984"/>
     <use xlink:href="#DejaVuSans-72" x="109.337891"/>
     <use xlink:href="#DejaVuSans-6b" x="150.451172"/>
     <use xlink:href="#DejaVuSans-69" x="208.361328"/>
     <use xlink:href="#DejaVuSans-79" x="236.144531"/>
     <use xlink:href="#DejaVuSans-65" x="295.324219"/>
     <use xlink:href="#DejaVuSans-20" x="356.847656"/>
     <use xlink:href="#DejaVuSans-2d" x="388.634766"/>
     <use xlink:href="#DejaVuSans-20" x="424.71875"/>
     <use xlink:href="#DejaVuSans-32" x="456.505859"/>
     <use xlink:href="#DejaVuSans-30" x="520.128906"/>
     <use xlink:href="#DejaVuSans-31" x="583.751953"/>
     <use xlink:href="#DejaVuSans-37" x="647.375"/>
    </g>
   </g>
  </g>
  <g id="axes_5">
   <g id="patch_22">
    <path d="M 47.72 2358.04 
L 709.2 2358.04 
L 709.2 1918.208 
L 47.72 1918.208 
z
" style="fill: #ffffff"/>
   </g>
   <g id="matplotlib.axis_9">
    <g id="xtick_33">
     <g id="line2d_133">
      <path d="M 134.520054 2358.04 
L 134.520054 1918.208 
" clip-path="url(#p4210ef4cc8)" style="fill: none; stroke: #b0b0b0; stroke-width: 0.8; stroke-linecap: square"/>
     </g>
     <g id="line2d_134">
      <g>
       <use xlink:href="#ma0a61c7e48" x="134.520054" y="2358.04" style="stroke: #000000; stroke-width: 0.8"/>
      </g>
     </g>
     <g id="text_41">
      <!-- 1 -->
      <g transform="translate(131.338804 2372.638437) scale(0.1 -0.1)">
       <use xlink:href="#DejaVuSans-31"/>
      </g>
     </g>
    </g>
    <g id="xtick_34">
     <g id="line2d_135">
      <path d="M 201.761189 2358.04 
L 201.761189 1918.208 
" clip-path="url(#p4210ef4cc8)" style="fill: none; stroke: #b0b0b0; stroke-width: 0.8; stroke-linecap: square"/>
     </g>
     <g id="line2d_136">
      <g>
       <use xlink:href="#ma0a61c7e48" x="201.761189" y="2358.04" style="stroke: #000000; stroke-width: 0.8"/>
      </g>
     </g>
     <g id="text_42">
      <!-- 2 -->
      <g transform="translate(198.579939 2372.638437) scale(0.1 -0.1)">
       <use xlink:href="#DejaVuSans-32"/>
      </g>
     </g>
    </g>
    <g id="xtick_35">
     <g id="line2d_137">
      <path d="M 290.649134 2358.04 
L 290.649134 1918.208 
" clip-path="url(#p4210ef4cc8)" style="fill: none; stroke: #b0b0b0; stroke-width: 0.8; stroke-linecap: square"/>
     </g>
     <g id="line2d_138">
      <g>
       <use xlink:href="#ma0a61c7e48" x="290.649134" y="2358.04" style="stroke: #000000; stroke-width: 0.8"/>
      </g>
     </g>
     <g id="text_43">
      <!-- 5 -->
      <g transform="translate(287.467884 2372.638437) scale(0.1 -0.1)">
       <use xlink:href="#DejaVuSans-35"/>
      </g>
     </g>
    </g>
    <g id="xtick_36">
     <g id="line2d_139">
      <path d="M 357.890268 2358.04 
L 357.890268 1918.208 
" clip-path="url(#p4210ef4cc8)" style="fill: none; stroke: #b0b0b0; stroke-width: 0.8; stroke-linecap: square"/>
     </g>
     <g id="line2d_140">
      <g>
       <use xlink:href="#ma0a61c7e48" x="357.890268" y="2358.04" style="stroke: #000000; stroke-width: 0.8"/>
      </g>
     </g>
     <g id="text_44">
      <!-- 10 -->
      <g transform="translate(351.527768 2372.638437) scale(0.1 -0.1)">
       <use xlink:href="#DejaVuSans-31"/>
       <use xlink:href="#DejaVuSans-30" x="63.623047"/>
      </g>
     </g>
    </g>
    <g id="xtick_37">
     <g id="line2d_141">
      <path d="M 425.131403 2358.04 
L 425.131403 1918.208 
" clip-path="url(#p4210ef4cc8)" style="fill: none; stroke: #b0b0b0; stroke-width: 0.8; stroke-linecap: square"/>
     </g>
     <g id="line2d_142">
      <g>
       <use xlink:href="#ma0a61c7e48" x="425.131403" y="2358.04" style="stroke: #000000; stroke-width: 0.8"/>
      </g>
     </g>
     <g id="text_45">
      <!-- 20 -->
      <g transform="translate(418.768903 2372.638437) scale(0.1 -0.1)">
       <use xlink:href="#DejaVuSans-32"/>
       <use xlink:href="#DejaVuSans-30" x="63.623047"/>
      </g>
     </g>
    </g>
    <g id="xtick_38">
     <g id="line2d_143">
      <path d="M 514.019348 2358.04 
L 514.019348 1918.208 
" clip-path="url(#p4210ef4cc8)" style="fill: none; stroke: #b0b0b0; stroke-width: 0.8; stroke-linecap: square"/>
     </g>
     <g id="line2d_144">
      <g>
       <use xlink:href="#ma0a61c7e48" x="514.019348" y="2358.04" style="stroke: #000000; stroke-width: 0.8"/>
      </g>
     </g>
     <g id="text_46">
      <!-- 50 -->
      <g transform="translate(507.656848 2372.638437) scale(0.1 -0.1)">
       <use xlink:href="#DejaVuSans-35"/>
       <use xlink:href="#DejaVuSans-30" x="63.623047"/>
      </g>
     </g>
    </g>
    <g id="xtick_39">
     <g id="line2d_145">
      <path d="M 581.260482 2358.04 
L 581.260482 1918.208 
" clip-path="url(#p4210ef4cc8)" style="fill: none; stroke: #b0b0b0; stroke-width: 0.8; stroke-linecap: square"/>
     </g>
     <g id="line2d_146">
      <g>
       <use xlink:href="#ma0a61c7e48" x="581.260482" y="2358.04" style="stroke: #000000; stroke-width: 0.8"/>
      </g>
     </g>
     <g id="text_47">
      <!-- 100 -->
      <g transform="translate(571.716732 2372.638437) scale(0.1 -0.1)">
       <use xlink:href="#DejaVuSans-31"/>
       <use xlink:href="#DejaVuSans-30" x="63.623047"/>
       <use xlink:href="#DejaVuSans-30" x="127.246094"/>
      </g>
     </g>
    </g>
    <g id="xtick_40">
     <g id="line2d_147">
      <path d="M 648.501617 2358.04 
L 648.501617 1918.208 
" clip-path="url(#p4210ef4cc8)" style="fill: none; stroke: #b0b0b0; stroke-width: 0.8; stroke-linecap: square"/>
     </g>
     <g id="line2d_148">
      <g>
       <use xlink:href="#ma0a61c7e48" x="648.501617" y="2358.04" style="stroke: #000000; stroke-width: 0.8"/>
      </g>
     </g>
     <g id="text_48">
      <!-- 200 -->
      <g transform="translate(638.957867 2372.638437) scale(0.1 -0.1)">
       <use xlink:href="#DejaVuSans-32"/>
       <use xlink:href="#DejaVuSans-30" x="63.623047"/>
       <use xlink:href="#DejaVuSans-30" x="127.246094"/>
      </g>
     </g>
    </g>
    <g id="text_49">
     <!-- Income -->
     <g transform="translate(360.060781 2386.316562) scale(0.1 -0.1)">
      <defs>
       <path id="DejaVuSans-49" d="M 628 4666 
L 1259 4666 
L 1259 0 
L 628 0 
L 628 4666 
z
" transform="scale(0.015625)"/>
       <path id="DejaVuSans-63" d="M 3122 3366 
L 3122 2828 
Q 2878 2963 2633 3030 
Q 2388 3097 2138 3097 
Q 1578 3097 1268 2742 
Q 959 2388 959 1747 
Q 959 1106 1268 751 
Q 1578 397 2138 397 
Q 2388 397 2633 464 
Q 2878 531 3122 666 
L 3122 134 
Q 2881 22 2623 -34 
Q 2366 -91 2075 -91 
Q 1284 -91 818 406 
Q 353 903 353 1747 
Q 353 2603 823 3093 
Q 1294 3584 2113 3584 
Q 2378 3584 2631 3529 
Q 2884 3475 3122 3366 
z
" transform="scale(0.015625)"/>
      </defs>
      <use xlink:href="#DejaVuSans-49"/>
      <use xlink:href="#DejaVuSans-6e" x="29.492188"/>
      <use xlink:href="#DejaVuSans-63" x="92.871094"/>
      <use xlink:href="#DejaVuSans-6f" x="147.851562"/>
      <use xlink:href="#DejaVuSans-6d" x="209.033203"/>
      <use xlink:href="#DejaVuSans-65" x="306.445312"/>
     </g>
    </g>
   </g>
   <g id="matplotlib.axis_10">
    <g id="ytick_33">
     <g id="line2d_149">
      <path d="M 47.72 2358.04 
L 709.2 2358.04 
" clip-path="url(#p4210ef4cc8)" style="fill: none; stroke: #b0b0b0; stroke-width: 0.8; stroke-linecap: square"/>
     </g>
     <g id="line2d_150">
      <g>
       <use xlink:href="#m42a8156e6b" x="47.72" y="2358.04" style="stroke: #000000; stroke-width: 0.8"/>
      </g>
     </g>
     <g id="text_50">
      <!-- 0.0 -->
      <g transform="translate(24.816875 2361.839219) scale(0.1 -0.1)">
       <use xlink:href="#DejaVuSans-30"/>
       <use xlink:href="#DejaVuSans-2e" x="63.623047"/>
       <use xlink:href="#DejaVuSans-30" x="95.410156"/>
      </g>
     </g>
    </g>
    <g id="ytick_34">
     <g id="line2d_151">
      <path d="M 47.72 2279.140222 
L 709.2 2279.140222 
" clip-path="url(#p4210ef4cc8)" style="fill: none; stroke: #b0b0b0; stroke-width: 0.8; stroke-linecap: square"/>
     </g>
     <g id="line2d_152">
      <g>
       <use xlink:href="#m42a8156e6b" x="47.72" y="2279.140222" style="stroke: #000000; stroke-width: 0.8"/>
      </g>
     </g>
     <g id="text_51">
      <!-- 0.1 -->
      <g transform="translate(24.816875 2282.939441) scale(0.1 -0.1)">
       <use xlink:href="#DejaVuSans-30"/>
       <use xlink:href="#DejaVuSans-2e" x="63.623047"/>
       <use xlink:href="#DejaVuSans-31" x="95.410156"/>
      </g>
     </g>
    </g>
    <g id="ytick_35">
     <g id="line2d_153">
      <path d="M 47.72 2200.240445 
L 709.2 2200.240445 
" clip-path="url(#p4210ef4cc8)" style="fill: none; stroke: #b0b0b0; stroke-width: 0.8; stroke-linecap: square"/>
     </g>
     <g id="line2d_154">
      <g>
       <use xlink:href="#m42a8156e6b" x="47.72" y="2200.240445" style="stroke: #000000; stroke-width: 0.8"/>
      </g>
     </g>
     <g id="text_52">
      <!-- 0.2 -->
      <g transform="translate(24.816875 2204.039663) scale(0.1 -0.1)">
       <use xlink:href="#DejaVuSans-30"/>
       <use xlink:href="#DejaVuSans-2e" x="63.623047"/>
       <use xlink:href="#DejaVuSans-32" x="95.410156"/>
      </g>
     </g>
    </g>
    <g id="ytick_36">
     <g id="line2d_155">
      <path d="M 47.72 2121.340667 
L 709.2 2121.340667 
" clip-path="url(#p4210ef4cc8)" style="fill: none; stroke: #b0b0b0; stroke-width: 0.8; stroke-linecap: square"/>
     </g>
     <g id="line2d_156">
      <g>
       <use xlink:href="#m42a8156e6b" x="47.72" y="2121.340667" style="stroke: #000000; stroke-width: 0.8"/>
      </g>
     </g>
     <g id="text_53">
      <!-- 0.3 -->
      <g transform="translate(24.816875 2125.139886) scale(0.1 -0.1)">
       <use xlink:href="#DejaVuSans-30"/>
       <use xlink:href="#DejaVuSans-2e" x="63.623047"/>
       <use xlink:href="#DejaVuSans-33" x="95.410156"/>
      </g>
     </g>
    </g>
    <g id="ytick_37">
     <g id="line2d_157">
      <path d="M 47.72 2042.440889 
L 709.2 2042.440889 
" clip-path="url(#p4210ef4cc8)" style="fill: none; stroke: #b0b0b0; stroke-width: 0.8; stroke-linecap: square"/>
     </g>
     <g id="line2d_158">
      <g>
       <use xlink:href="#m42a8156e6b" x="47.72" y="2042.440889" style="stroke: #000000; stroke-width: 0.8"/>
      </g>
     </g>
     <g id="text_54">
      <!-- 0.4 -->
      <g transform="translate(24.816875 2046.240108) scale(0.1 -0.1)">
       <use xlink:href="#DejaVuSans-30"/>
       <use xlink:href="#DejaVuSans-2e" x="63.623047"/>
       <use xlink:href="#DejaVuSans-34" x="95.410156"/>
      </g>
     </g>
    </g>
    <g id="ytick_38">
     <g id="line2d_159">
      <path d="M 47.72 1963.541112 
L 709.2 1963.541112 
" clip-path="url(#p4210ef4cc8)" style="fill: none; stroke: #b0b0b0; stroke-width: 0.8; stroke-linecap: square"/>
     </g>
     <g id="line2d_160">
      <g>
       <use xlink:href="#m42a8156e6b" x="47.72" y="1963.541112" style="stroke: #000000; stroke-width: 0.8"/>
      </g>
     </g>
     <g id="text_55">
      <!-- 0.5 -->
      <g transform="translate(24.816875 1967.340331) scale(0.1 -0.1)">
       <use xlink:href="#DejaVuSans-30"/>
       <use xlink:href="#DejaVuSans-2e" x="63.623047"/>
       <use xlink:href="#DejaVuSans-35" x="95.410156"/>
      </g>
     </g>
    </g>
    <g id="text_56">
     <!-- Density -->
     <g transform="translate(18.737188 2157.132594) rotate(-90) scale(0.1 -0.1)">
      <use xlink:href="#DejaVuSans-44"/>
      <use xlink:href="#DejaVuSans-65" x="77.001953"/>
      <use xlink:href="#DejaVuSans-6e" x="138.525391"/>
      <use xlink:href="#DejaVuSans-73" x="201.904297"/>
      <use xlink:href="#DejaVuSans-69" x="254.003906"/>
      <use xlink:href="#DejaVuSans-74" x="281.787109"/>
      <use xlink:href="#DejaVuSans-79" x="320.996094"/>
     </g>
    </g>
   </g>
   <g id="line2d_161">
    <path d="M 178.988577 2357.804458 
L 184.015152 2357.414326 
L 186.528439 2357.064917 
L 189.041726 2356.565071 
L 191.555013 2355.874608 
L 194.068301 2354.95441 
L 196.581588 2353.772476 
L 199.094875 2352.311384 
L 201.608162 2350.576208 
L 204.121449 2348.601446 
L 214.174598 2340.131894 
L 216.687885 2338.533656 
L 219.201172 2337.41765 
L 221.71446 2336.878985 
L 224.227747 2336.964839 
L 226.741034 2337.667639 
L 229.254321 2338.926163 
L 231.767608 2340.634341 
L 234.280895 2342.656006 
L 241.820757 2349.159827 
L 244.334044 2351.074628 
L 246.847331 2352.737224 
L 249.360619 2354.121694 
L 251.873906 2355.229851 
L 254.387193 2356.083875 
L 256.90048 2356.718401 
L 259.413767 2357.173359 
L 264.440342 2357.699257 
L 269.466916 2357.921098 
L 279.520065 2358.029588 
L 299.626362 2357.961659 
L 304.652937 2357.805425 
L 309.679511 2357.416479 
L 312.192798 2357.06788 
L 314.706085 2356.568854 
L 317.219373 2355.878916 
L 319.73266 2354.958321 
L 322.245947 2353.773892 
L 324.759234 2352.306154 
L 327.272521 2350.556758 
L 329.785809 2348.554735 
L 334.812383 2344.061205 
L 339.838957 2339.610628 
L 342.352244 2337.696714 
L 344.865532 2336.120488 
L 347.378819 2334.932688 
L 349.892106 2334.132394 
L 352.405393 2333.664231 
L 357.431968 2333.278109 
L 359.945255 2333.075427 
L 362.458542 2332.678426 
L 364.971829 2331.978124 
L 367.485116 2330.907625 
L 369.998403 2329.445922 
L 372.511691 2327.612823 
L 375.024978 2325.456998 
L 377.538265 2323.040546 
L 382.564839 2317.654578 
L 387.591414 2311.751972 
L 392.617988 2305.356855 
L 397.644563 2298.3543 
L 402.671137 2290.632111 
L 405.184424 2286.468995 
L 407.697711 2282.079232 
L 410.210998 2277.43361 
L 412.724286 2272.494238 
L 415.237573 2267.21741 
L 417.75086 2261.559048 
L 420.264147 2255.481839 
L 422.777434 2248.962712 
L 425.290722 2241.999152 
L 427.804009 2234.613035 
L 432.830583 2218.781635 
L 440.370445 2193.58993 
L 447.910306 2168.584359 
L 452.936881 2152.585491 
L 462.990029 2121.719284 
L 470.529891 2098.376574 
L 478.069752 2074.143338 
L 493.149476 2024.851932 
L 498.17605 2009.520858 
L 500.689337 2002.298731 
L 503.202624 1995.426421 
L 505.715911 1988.932003 
L 508.229199 1982.832749 
L 510.742486 1977.136048 
L 513.255773 1971.841491 
L 515.76906 1966.94373 
L 518.282347 1962.435583 
L 520.795635 1958.310864 
L 523.308922 1954.566473 
L 525.822209 1951.203534 
L 528.335496 1948.227551 
L 530.848783 1945.647802 
L 533.362071 1943.476287 
L 535.875358 1941.726608 
L 538.388645 1940.413062 
L 540.901932 1939.55011 
L 543.415219 1939.152196 
L 545.928506 1939.233788 
L 548.441794 1939.809411 
L 550.955081 1940.89344 
L 553.468368 1942.499494 
L 555.981655 1944.639365 
L 558.494942 1947.321501 
L 561.00823 1950.549221 
L 563.521517 1954.318886 
L 566.034804 1958.618326 
L 568.548091 1963.425844 
L 571.061378 1968.710042 
L 573.574665 1974.430599 
L 576.087953 1980.539902 
L 581.114527 1993.71015 
L 586.141101 2007.760227 
L 593.680963 2029.218049 
L 596.19425 2036.033102 
L 598.707537 2042.396167 
L 601.220825 2048.07605 
L 603.734112 2052.813605 
L 606.247399 2056.349929 
L 608.760686 2058.470294 
L 611.273973 2059.060447 
L 613.78726 2058.16725 
L 616.300548 2056.05161 
L 621.327122 2050.41737 
L 623.840409 2048.584707 
L 626.353696 2048.761239 
L 628.866984 2051.960502 
L 631.380271 2059.027484 
L 633.893558 2070.505875 
L 636.406845 2086.540663 
L 638.920132 2106.836444 
L 641.433419 2130.681198 
L 643.946707 2157.032039 
L 648.973281 2212.237842 
L 651.486568 2238.617976 
L 653.999855 2262.819538 
L 656.513143 2284.166475 
L 659.02643 2302.297373 
L 661.539717 2317.143566 
L 664.053004 2328.874614 
L 666.566291 2337.826589 
L 669.079579 2344.427974 
L 671.592866 2349.134627 
L 674.106153 2352.380562 
L 676.61944 2354.546661 
L 679.132727 2355.945812 
L 679.132727 2355.945812 
" clip-path="url(#p4210ef4cc8)" style="fill: none; stroke: #1f77b4; stroke-width: 1.5; stroke-linecap: square"/>
   </g>
   <g id="patch_23">
    <path d="M 47.72 2358.04 
L 47.72 1918.208 
" style="fill: none; stroke: #000000; stroke-width: 0.8; stroke-linejoin: miter; stroke-linecap: square"/>
   </g>
   <g id="patch_24">
    <path d="M 709.2 2358.04 
L 709.2 1918.208 
" style="fill: none; stroke: #000000; stroke-width: 0.8; stroke-linejoin: miter; stroke-linecap: square"/>
   </g>
   <g id="patch_25">
    <path d="M 47.72 2358.04 
L 709.2 2358.04 
" style="fill: none; stroke: #000000; stroke-width: 0.8; stroke-linejoin: miter; stroke-linecap: square"/>
   </g>
   <g id="patch_26">
    <path d="M 47.72 1918.208 
L 709.2 1918.208 
" style="fill: none; stroke: #000000; stroke-width: 0.8; stroke-linejoin: miter; stroke-linecap: square"/>
   </g>
   <g id="text_57">
    <!-- United States - 2019 -->
    <g transform="translate(316.583125 1912.208) scale(0.12 -0.12)">
     <defs>
      <path id="DejaVuSans-55" d="M 556 4666 
L 1191 4666 
L 1191 1831 
Q 1191 1081 1462 751 
Q 1734 422 2344 422 
Q 2950 422 3222 751 
Q 3494 1081 3494 1831 
L 3494 4666 
L 4128 4666 
L 4128 1753 
Q 4128 841 3676 375 
Q 3225 -91 2344 -91 
Q 1459 -91 1007 375 
Q 556 841 556 1753 
L 556 4666 
z
" transform="scale(0.015625)"/>
      <path id="DejaVuSans-53" d="M 3425 4513 
L 3425 3897 
Q 3066 4069 2747 4153 
Q 2428 4238 2131 4238 
Q 1616 4238 1336 4038 
Q 1056 3838 1056 3469 
Q 1056 3159 1242 3001 
Q 1428 2844 1947 2747 
L 2328 2669 
Q 3034 2534 3370 2195 
Q 3706 1856 3706 1288 
Q 3706 609 3251 259 
Q 2797 -91 1919 -91 
Q 1588 -91 1214 -16 
Q 841 59 441 206 
L 441 856 
Q 825 641 1194 531 
Q 1563 422 1919 422 
Q 2459 422 2753 634 
Q 3047 847 3047 1241 
Q 3047 1584 2836 1778 
Q 2625 1972 2144 2069 
L 1759 2144 
Q 1053 2284 737 2584 
Q 422 2884 422 3419 
Q 422 4038 858 4394 
Q 1294 4750 2059 4750 
Q 2388 4750 2728 4690 
Q 3069 4631 3425 4513 
z
" transform="scale(0.015625)"/>
      <path id="DejaVuSans-39" d="M 703 97 
L 703 672 
Q 941 559 1184 500 
Q 1428 441 1663 441 
Q 2288 441 2617 861 
Q 2947 1281 2994 2138 
Q 2813 1869 2534 1725 
Q 2256 1581 1919 1581 
Q 1219 1581 811 2004 
Q 403 2428 403 3163 
Q 403 3881 828 4315 
Q 1253 4750 1959 4750 
Q 2769 4750 3195 4129 
Q 3622 3509 3622 2328 
Q 3622 1225 3098 567 
Q 2575 -91 1691 -91 
Q 1453 -91 1209 -44 
Q 966 3 703 97 
z
M 1959 2075 
Q 2384 2075 2632 2365 
Q 2881 2656 2881 3163 
Q 2881 3666 2632 3958 
Q 2384 4250 1959 4250 
Q 1534 4250 1286 3958 
Q 1038 3666 1038 3163 
Q 1038 2656 1286 2365 
Q 1534 2075 1959 2075 
z
" transform="scale(0.015625)"/>
     </defs>
     <use xlink:href="#DejaVuSans-55"/>
     <use xlink:href="#DejaVuSans-6e" x="73.193359"/>
     <use xlink:href="#DejaVuSans-69" x="136.572266"/>
     <use xlink:href="#DejaVuSans-74" x="164.355469"/>
     <use xlink:href="#DejaVuSans-65" x="203.564453"/>
     <use xlink:href="#DejaVuSans-64" x="265.087891"/>
     <use xlink:href="#DejaVuSans-20" x="328.564453"/>
     <use xlink:href="#DejaVuSans-53" x="360.351562"/>
     <use xlink:href="#DejaVuSans-74" x="423.828125"/>
     <use xlink:href="#DejaVuSans-61" x="463.037109"/>
     <use xlink:href="#DejaVuSans-74" x="524.316406"/>
     <use xlink:href="#DejaVuSans-65" x="563.525391"/>
     <use xlink:href="#DejaVuSans-73" x="625.048828"/>
     <use xlink:href="#DejaVuSans-20" x="677.148438"/>
     <use xlink:href="#DejaVuSans-2d" x="708.935547"/>
     <use xlink:href="#DejaVuSans-20" x="745.019531"/>
     <use xlink:href="#DejaVuSans-32" x="776.806641"/>
     <use xlink:href="#DejaVuSans-30" x="840.429688"/>
     <use xlink:href="#DejaVuSans-31" x="904.052734"/>
     <use xlink:href="#DejaVuSans-39" x="967.675781"/>
    </g>
   </g>
  </g>
 </g>
 <defs>
  <clipPath id="pe5312aa6ff">
   <rect x="47.72" y="26.88" width="661.48" height="439.832"/>
  </clipPath>
  <clipPath id="p584cd86f83">
   <rect x="47.72" y="499.712" width="661.48" height="439.832"/>
  </clipPath>
  <clipPath id="p9d182ea945">
   <rect x="47.72" y="972.544" width="661.48" height="439.832"/>
  </clipPath>
  <clipPath id="pc7e8def11d">
   <rect x="47.72" y="1445.376" width="661.48" height="439.832"/>
  </clipPath>
  <clipPath id="p4210ef4cc8">
   <rect x="47.72" y="1918.208" width="661.48" height="439.832"/>
  </clipPath>
 </defs>
</svg>
